<?xml version="1.0" encoding="UTF-8"?>
<svg xmlns="http://www.w3.org/2000/svg" width="1200" height="360" viewBox="0 0 1200 360" role="img" aria-label="CPU Utilization (%)">
<rect width="100%" height="100%" fill="#ffffff"/>
<text x="600.0" y="22" text-anchor="middle" font-size="16" font-family="Arial, Helvetica, sans-serif" font-weight="bold">CPU Utilization (%)</text>
<line x1="70" y1="35.00" x2="1180" y2="35.00" stroke="#e3e3e3" stroke-width="1"/>
<text x="62" y="39.00" text-anchor="end" font-size="11" fill="#444" font-family="Arial, Helvetica, sans-serif">100</text>
<line x1="70" y1="89.00" x2="1180" y2="89.00" stroke="#e3e3e3" stroke-width="1"/>
<text x="62" y="93.00" text-anchor="end" font-size="11" fill="#444" font-family="Arial, Helvetica, sans-serif">80</text>
<line x1="70" y1="143.00" x2="1180" y2="143.00" stroke="#e3e3e3" stroke-width="1"/>
<text x="62" y="147.00" text-anchor="end" font-size="11" fill="#444" font-family="Arial, Helvetica, sans-serif">60</text>
<line x1="70" y1="197.00" x2="1180" y2="197.00" stroke="#e3e3e3" stroke-width="1"/>
<text x="62" y="201.00" text-anchor="end" font-size="11" fill="#444" font-family="Arial, Helvetica, sans-serif">40</text>
<line x1="70" y1="251.00" x2="1180" y2="251.00" stroke="#e3e3e3" stroke-width="1"/>
<text x="62" y="255.00" text-anchor="end" font-size="11" fill="#444" font-family="Arial, Helvetica, sans-serif">20</text>
<line x1="70" y1="305.00" x2="1180" y2="305.00" stroke="#e3e3e3" stroke-width="1"/>
<text x="62" y="309.00" text-anchor="end" font-size="11" fill="#444" font-family="Arial, Helvetica, sans-serif">0</text>
<line x1="70" y1="35" x2="70" y2="305" stroke="#999"/>
<line x1="70" y1="305" x2="1180" y2="305" stroke="#999"/>
<text x="70.00" y="323" text-anchor="middle" font-size="10" fill="#444" font-family="Arial, Helvetica, sans-serif">2026-02-11 16:38</text>
<text x="347.50" y="323" text-anchor="middle" font-size="10" fill="#444" font-family="Arial, Helvetica, sans-serif">2026-02-12 15:30</text>
<text x="625.00" y="323" text-anchor="middle" font-size="10" fill="#444" font-family="Arial, Helvetica, sans-serif">2026-02-13 14:22</text>
<text x="902.50" y="323" text-anchor="middle" font-size="10" fill="#444" font-family="Arial, Helvetica, sans-serif">2026-02-14 13:15</text>
<text x="1180.00" y="323" text-anchor="middle" font-size="10" fill="#444" font-family="Arial, Helvetica, sans-serif">2026-02-15 12:07</text>
<polyline fill="none" stroke="#d62728" stroke-opacity="0.95" stroke-width="2" points="71.09,304.46 72.18,298.79 73.27,296.90 74.36,303.92 75.46,304.73 76.53,304.46 77.63,303.92 78.81,304.73 79.89,303.92 80.97,304.46 82.05,303.92 83.16,304.46 84.24,304.46 85.32,303.92 87.28,304.46 88.97,303.92 90.07,304.46 91.18,303.92 92.27,300.95 93.35,304.73 94.42,278.27 95.51,303.92 96.60,304.46 97.70,294.74 98.79,304.46 99.90,303.92 100.99,301.49 102.08,303.92 103.23,295.28 104.32,294.20 105.41,303.65 106.53,304.46 107.61,304.46 108.70,303.92 109.82,303.65 110.90,302.30 111.99,303.92 113.10,304.46 114.18,303.92 115.26,304.73 116.34,304.73 117.42,304.46 118.52,303.38 119.60,304.46 120.71,303.92 121.81,303.38 122.88,304.46 123.97,297.71 125.07,297.44 126.16,48.23 127.40,303.92 128.49,303.92 129.57,304.46 130.65,303.65 131.73,303.65 132.81,304.46 133.89,304.46 134.99,303.92 136.07,304.46 137.18,303.92 138.26,304.46 139.34,304.46 140.43,299.60 141.54,303.65 142.62,303.92 143.71,304.73 144.79,303.92 145.87,304.73 146.95,304.46 148.03,304.46 149.11,304.46 150.20,303.92 151.28,304.73 152.37,303.92 153.46,304.46 154.54,304.73 155.63,303.38 156.71,303.38 157.79,303.65 158.91,304.46 159.99,303.65 161.08,304.73 162.17,304.46 163.25,304.46 164.35,304.73 165.43,303.92 166.51,303.92 167.58,304.46 168.68,304.73 169.77,299.60 170.86,303.65 171.96,304.46 173.03,304.73 174.12,303.65 175.20,303.92 176.29,304.46 177.37,304.46 178.46,303.92 179.53,303.92 180.63,303.92 181.72,304.46 182.81,303.92 183.90,303.92 185.00,298.79 186.09,303.65 187.18,304.46 188.26,304.73 189.35,304.73 190.43,304.46 191.53,304.46 192.61,304.46 193.70,304.46 194.78,302.84 195.88,304.46 196.97,304.46 198.06,304.46 199.17,304.46 200.25,304.46 201.34,304.46 202.43,303.65 203.51,304.73 204.60,303.38 205.69,304.46 206.87,304.46 207.95,304.73 209.06,303.92 210.14,303.92 211.22,304.46 212.30,299.87 213.37,304.46 214.45,304.73 215.54,295.01 216.63,304.46 217.71,303.92 218.79,303.92 219.88,303.92 220.96,304.46 222.07,303.65 223.15,304.46 224.23,304.46 225.31,304.46 226.40,303.92 227.48,303.92 228.58,303.92 229.67,304.73 230.76,304.46 231.85,304.46 232.93,303.92 234.01,304.46 235.09,303.65 236.18,303.92 237.26,303.65 238.35,304.73 239.45,304.46 240.54,304.46 241.63,304.46 242.72,303.11 243.81,303.38 244.89,304.46 245.98,304.46 247.07,304.46 248.18,303.65 249.28,303.92 250.36,304.46 251.45,297.71 252.53,294.20 253.61,303.92 254.69,304.46 255.78,303.65 256.86,297.71 257.94,304.46 259.02,303.92 260.12,304.46 261.21,304.46 262.30,303.92 263.39,303.38 264.50,304.73 265.58,303.92 266.67,303.38 267.75,303.92 268.83,304.46 270.01,304.46 271.12,303.92 272.20,304.73 273.28,304.46 274.36,304.46 275.45,304.73 276.53,304.46 277.62,304.73 278.72,35.00 279.80,303.65 280.88,303.11 281.97,297.17 283.08,304.46 284.17,304.46 285.24,304.46 286.33,303.92 287.43,303.65 288.54,304.46 289.65,303.11 290.73,304.73 291.82,304.46 292.90,303.92 293.99,304.73 295.08,304.46 296.17,303.92 297.27,304.73 298.35,304.46 299.43,304.46 300.53,304.46 301.62,303.92 302.70,303.65 303.79,304.46 304.89,303.65 305.98,304.46 307.06,301.76 308.14,302.03 309.22,304.46 310.31,304.46 311.40,304.46 312.48,35.00 313.56,303.65 314.64,303.92 315.72,304.46 316.82,304.46 317.91,303.65 319.00,304.46 320.10,304.73 321.19,304.46 322.28,304.73 323.37,35.00 324.46,304.73 325.54,303.65 326.63,304.46 327.72,303.65 328.83,304.73 329.92,300.68 331.01,303.65 332.10,303.92 333.18,304.46 334.28,304.46 335.35,304.46 336.44,304.46 337.53,304.73 338.62,304.73 339.71,304.73 340.80,303.65 341.89,303.92 342.98,303.92 344.07,304.73 345.16,35.00 346.26,304.46 347.34,303.92 348.43,304.73 349.52,303.92 350.62,304.73 351.71,303.92 352.80,304.46 353.88,303.92 355.09,304.73 356.18,304.46 357.27,303.65 358.36,304.46 359.46,304.46 360.55,303.92 361.64,304.46 362.73,303.65 363.81,304.73 364.93,295.28 366.04,297.17 367.11,304.46 368.20,304.46 369.29,304.46 370.38,304.73 371.46,304.46 372.59,303.65 373.68,304.46 374.77,303.92 375.87,304.73 377.04,304.73 378.13,304.73 379.50,303.65 381.34,304.46 382.45,303.92 383.56,303.92 384.65,304.73 385.71,304.46 386.80,303.92 387.90,303.65 388.99,304.46 390.09,304.73 391.22,303.92 392.35,35.00 393.50,303.65 394.59,304.46 395.68,304.73 396.77,303.92 397.87,303.92 398.97,303.65 400.07,304.46 401.15,303.92 402.24,304.46 403.37,304.46 404.46,304.46 405.54,304.46 406.63,304.46 407.74,303.92 408.87,304.46 409.96,303.92 411.05,303.92 412.17,303.65 413.21,303.92 414.29,303.65 415.40,303.92 416.48,303.92 417.59,303.92 418.71,303.11 419.80,303.92 420.89,303.92 421.99,304.46 423.09,304.46 424.18,303.65 425.26,304.73 426.34,299.06 427.44,304.73 428.53,304.46 429.61,48.23 430.90,48.50 432.18,48.77 433.47,48.50 434.73,48.23 435.98,48.50 437.23,48.50 438.52,48.77 439.79,304.46 440.88,304.46 441.95,304.46 443.04,303.92 444.12,304.46 445.21,304.46 446.29,303.92 447.37,304.19 448.45,303.65 449.54,304.73 450.63,303.92 451.71,303.92 452.80,304.46 453.88,304.73 454.96,304.73 456.04,304.46 457.13,304.46 458.21,304.46 459.29,303.92 460.38,304.46 461.48,304.73 462.55,303.65 463.63,304.46 464.71,35.00 465.80,304.46 466.89,304.46 467.97,304.73 469.06,304.46 470.14,304.73 471.23,35.00 472.31,304.46 473.40,304.46 474.49,304.73 475.56,303.92 476.65,303.92 477.72,303.92 478.79,303.38 479.88,304.73 480.96,303.65 482.04,304.46 483.12,303.92 484.20,304.46 485.29,304.73 486.36,303.92 487.44,303.38 488.50,304.73 489.63,303.65 490.80,304.73 491.89,304.73 492.98,304.46 494.06,303.92 495.14,303.65 496.22,297.44 497.29,297.71 498.38,48.50 499.66,48.50 500.93,48.50 502.20,48.23 503.47,48.50 504.75,48.23 506.02,48.50 507.32,48.77 508.63,295.82 509.82,297.17 510.99,304.73 512.08,303.92 513.17,303.92 514.26,304.73 515.34,303.92 516.42,304.46 517.51,304.46 518.59,304.46 519.67,304.46 520.75,304.46 521.84,304.73 522.93,303.11 524.01,304.73 525.11,303.92 526.20,304.46 527.28,304.73 528.23,304.46 529.35,303.92 530.44,304.73 531.55,304.73 532.63,304.73 533.71,303.92 534.81,35.00 535.90,304.73 537.00,304.73 538.10,304.46 539.19,304.73 540.30,303.65 541.37,304.46 542.45,304.73 543.54,304.73 544.61,304.73 545.70,35.00 546.77,303.92 547.87,303.92 548.95,303.92 550.04,303.65 551.13,304.46 552.21,304.46 553.30,303.92 554.39,304.46 555.48,304.46 556.57,304.73 557.66,303.92 558.74,301.22 559.84,304.46 560.93,304.46 562.05,304.46 563.13,303.65 564.21,304.46 565.29,304.73 566.37,304.46 567.45,300.68 568.55,303.92 569.63,304.73 570.71,304.46 571.80,304.73 572.87,303.38 573.96,303.92 575.05,304.73 576.15,304.73 577.23,303.92 578.54,303.92 579.66,303.92 580.77,303.65 581.87,304.46 582.96,302.84 584.06,304.46 585.14,304.46 586.22,303.92 587.32,303.92 588.41,303.11 589.49,304.73 590.58,304.46 591.68,304.46 592.76,304.46 593.89,304.73 594.99,304.73 596.08,304.46 597.17,304.73 598.26,304.73 599.34,302.57 600.43,302.84 601.51,301.22 602.65,303.92 603.74,304.46 604.83,304.46 605.92,304.46 607.00,303.92 608.10,304.73 609.18,304.46 610.27,304.46 611.36,303.92 612.45,304.46 613.55,304.46 614.63,304.46 615.72,297.44 616.80,303.92 617.89,304.46 619.00,304.46 620.09,300.68 621.17,303.92 622.25,289.07 623.34,303.65 624.44,302.03 625.54,302.84 626.84,302.84 627.96,304.46 629.05,304.46 630.14,303.92 631.22,304.73 632.31,303.92 633.40,303.92 634.49,303.65 635.60,304.46 636.68,303.92 637.77,304.73 638.85,304.46 639.94,304.46 641.02,303.92 642.11,304.73 643.21,304.46 644.29,304.73 645.37,304.46 646.45,304.73 647.54,304.73 648.64,303.92 649.72,304.46 650.80,304.73 651.91,304.46 653.01,304.46 654.09,304.73 655.17,304.46 656.26,303.38 657.38,303.92 658.46,304.73 659.55,304.73 660.65,303.92 661.74,303.92 662.82,304.46 663.91,303.92 665.00,303.92 666.12,304.73 667.20,303.92 668.29,304.46 669.36,303.92 670.45,304.46 671.54,304.73 672.63,303.92 673.71,304.73 674.81,304.46 675.91,304.73 677.01,298.79 678.07,303.92 679.17,303.92 680.25,304.46 681.34,304.46 682.43,303.65 683.52,303.65 684.60,304.73 685.70,303.92 686.79,303.92 687.88,235.88 688.97,236.69 690.07,236.69 691.16,236.69 692.25,236.15 693.35,232.10 694.58,227.51 695.77,228.59 696.93,222.65 698.03,236.42 699.17,236.15 700.26,235.61 701.35,236.69 702.43,236.69 703.45,236.15 704.58,235.61 705.67,236.15 706.77,236.42 707.84,233.18 708.94,236.69 710.02,236.42 711.12,236.15 712.20,235.61 713.29,235.88 714.37,236.42 715.47,236.42 716.56,236.96 717.65,236.42 718.75,235.61 719.85,236.69 720.94,236.15 722.04,236.42 723.12,242.63 724.24,255.86 725.33,236.69 726.41,235.88 727.49,236.15 728.58,236.42 729.67,235.88 730.75,236.15 731.85,236.96 732.93,236.15 734.04,236.69 735.12,236.96 736.20,236.15 737.29,236.96 738.39,236.15 739.48,236.42 740.58,234.53 741.66,236.15 742.75,236.69 743.84,236.69 744.94,235.34 746.03,236.15 747.13,236.15 748.22,235.61 749.31,236.69 750.41,236.96 751.50,235.61 752.60,232.91 753.72,234.26 754.81,236.42 755.90,236.42 756.99,236.15 758.08,236.96 759.17,236.15 760.26,236.69 761.36,236.96 762.45,234.53 763.54,236.42 764.63,236.69 765.73,236.42 766.82,236.15 767.92,236.42 769.01,235.88 770.11,236.15 771.20,236.96 772.30,235.61 773.41,235.88 774.49,235.88 775.58,236.42 776.67,236.42 777.77,236.69 778.88,236.69 779.98,236.42 781.08,235.61 782.17,236.15 783.25,236.15 784.34,235.34 785.43,236.69 786.53,235.61 787.62,236.69 788.71,235.88 789.80,236.69 790.89,232.91 791.98,235.88 793.08,236.42 794.17,235.88 795.26,235.61 796.36,236.69 797.45,235.88 798.55,236.42 799.64,236.42 800.73,236.69 801.81,236.15 802.89,235.88 803.99,236.42 805.08,235.61 806.18,201.32 807.27,236.69 808.37,236.15 809.46,236.42 810.56,236.42 811.66,235.61 812.74,230.48 813.84,235.34 814.95,283.40 816.03,236.69 817.13,230.75 818.22,236.69 819.33,224.00 820.42,236.42 821.51,236.15 822.63,235.61 823.73,235.88 824.83,236.15 825.92,236.96 827.00,230.48 828.10,235.88 829.20,236.15 830.30,235.61 831.40,243.17 832.49,296.63 833.58,236.15 834.66,235.61 835.78,236.69 836.87,229.94 837.97,229.94 839.06,236.15 840.15,236.42 841.23,236.69 842.31,235.61 843.40,236.69 844.50,236.69 845.59,236.42 846.68,236.15 847.77,236.69 848.87,236.69 849.96,236.42 851.08,231.29 852.18,236.69 853.26,236.15 854.35,236.42 855.44,235.88 856.53,235.61 857.62,235.61 858.72,236.42 859.81,236.96 860.90,236.69 862.00,236.69 863.09,235.61 864.18,235.88 865.28,235.88 866.38,236.69 867.50,236.69 868.61,235.61 869.71,236.15 870.80,283.13 871.90,236.42 873.00,236.69 874.08,235.88 875.17,236.15 876.25,235.07 877.36,236.42 878.45,236.69 879.55,236.15 880.64,237.23 881.75,236.15 882.89,236.15 883.98,236.15 885.07,236.69 886.16,236.69 887.25,236.42 888.35,236.69 889.45,236.69 890.56,235.61 891.65,236.42 892.76,235.34 893.85,236.96 894.95,235.61 896.05,236.69 897.14,236.69 898.23,236.15 899.33,236.42 900.41,236.42 901.52,296.90 902.62,236.15 903.71,235.61 904.80,236.42 905.90,236.42 907.00,236.69 908.09,236.69 909.19,236.69 910.29,236.69 911.42,235.34 912.51,235.88 913.62,233.45 914.71,236.15 915.83,236.15 916.95,235.07 918.06,234.26 919.17,234.26 920.30,235.88 921.40,290.15 922.49,236.69 923.58,236.42 924.68,236.15 925.78,236.42 926.88,235.34 928.00,236.69 929.09,236.15 930.19,236.69 931.28,235.88 932.37,236.15 933.46,236.69 934.56,236.42 935.65,236.96 936.74,231.83 937.83,236.42 938.92,236.42 940.01,236.42 941.09,236.42 942.18,236.15 943.28,236.69 944.38,236.42 945.47,232.64 946.57,235.88 947.67,237.23 948.76,236.42 949.86,235.88 950.95,236.42 952.04,283.94 953.13,236.15 954.22,236.42 955.32,236.42 956.42,236.42 957.50,290.42 958.58,236.42 959.67,236.69 960.76,236.42 961.86,236.15 962.95,236.69 964.04,235.88 965.14,234.53 966.23,235.34 967.31,236.69 968.42,236.42 969.50,236.15 970.58,236.42 971.66,235.61 972.73,236.69 973.83,236.42 974.92,235.34 976.04,235.88 977.12,236.15 978.22,235.61 979.31,236.69 980.42,236.15 981.52,235.61 982.61,236.15 983.72,235.07 984.81,236.15 985.89,235.61 987.00,236.69 988.09,236.15 989.20,235.61 990.30,290.15 991.39,236.42 992.48,236.69 993.57,236.15 994.66,235.61 995.75,236.42 996.84,236.69 997.91,235.88 999.01,235.88 1000.10,235.88 1001.20,236.69 1002.29,236.15 1003.38,236.15 1004.47,236.42 1005.56,235.34 1006.66,235.88 1007.76,236.15 1008.85,236.15 1009.94,235.61 1011.03,236.42 1012.14,236.96 1013.22,235.34 1014.31,236.42 1015.41,236.15 1016.50,236.15 1017.59,235.88 1018.69,236.42 1019.79,233.18 1020.88,236.69 1021.96,235.88 1023.05,236.15 1024.18,236.69 1025.28,236.15 1026.39,235.88 1027.50,232.91 1028.59,236.15 1029.69,283.67 1030.78,236.42 1031.88,235.88 1032.98,234.80 1034.06,235.34 1035.17,236.15 1036.28,234.53 1037.38,236.69 1038.47,236.42 1039.57,236.69 1040.66,236.96 1041.76,235.88 1042.85,236.42 1043.94,236.69 1045.03,235.61 1046.12,236.42 1047.22,236.42 1048.31,236.69 1049.39,236.15 1050.49,236.42 1051.58,236.15 1052.66,235.61 1053.76,236.15 1054.84,235.07 1055.93,236.15 1057.05,236.69 1058.13,231.83 1059.22,235.61 1060.31,285.02 1061.41,236.69 1062.49,236.15 1063.60,236.69 1064.68,231.29 1065.79,283.13 1066.89,236.42 1067.97,234.53 1069.06,235.88 1070.16,236.69 1071.25,236.42 1072.33,229.40 1073.44,236.69 1074.56,235.34 1075.67,235.88 1076.79,236.15 1077.90,235.61 1079.02,236.15 1080.14,236.69 1081.25,236.69 1082.39,236.15 1083.50,229.94 1084.62,236.42 1085.71,236.42 1086.80,235.34 1087.90,230.75 1089.00,236.15 1090.10,236.15 1091.19,236.69 1092.29,236.96 1093.39,235.88 1094.48,235.34 1095.58,236.15 1096.66,235.88 1097.75,235.61 1098.85,236.69 1099.93,235.07 1101.03,231.83 1102.12,236.69 1103.22,235.88 1104.31,236.15 1105.42,236.42 1106.52,236.42 1107.61,232.91 1108.70,236.69 1109.79,235.88 1110.89,236.15 1111.98,231.02 1113.08,290.69 1114.17,236.69 1115.26,232.64 1116.36,243.71 1117.45,236.69 1118.54,236.69 1119.64,235.88 1120.73,236.15 1121.83,235.88 1122.99,235.61 1124.12,234.53 1125.21,236.15 1126.30,235.61 1127.39,262.88 1128.50,230.21 1129.61,236.69 1130.71,230.21 1131.80,236.42 1132.89,235.61 1133.96,236.69 1135.05,236.15 1136.14,236.42 1137.24,236.69 1138.34,233.18 1139.42,236.15 1140.53,236.69 1141.63,236.15 1142.73,236.69 1143.81,236.69 1144.90,236.42 1145.99,235.61 1147.09,236.15 1148.19,236.15 1149.27,236.15 1150.37,235.07 1151.47,236.42 1152.56,231.56 1153.66,236.69 1154.80,235.61 1155.90,236.69 1156.99,235.61 1158.08,235.61 1159.17,235.34 1160.27,236.42 1161.37,236.42 1162.47,236.42 1163.55,296.90 1164.65,236.42 1165.75,236.69 1166.86,249.38 1167.96,236.15 1169.06,236.15 1170.15,235.88 1171.24,236.42 1172.34,236.15 1173.43,232.91 1174.53,235.88 1175.61,236.69 1176.72,235.34 1177.82,236.42 1178.91,236.42 1180.00,235.61"/>
<polyline fill="none" stroke="#d62728" stroke-opacity="0.80" stroke-width="2" points="70.00,303.38 71.09,304.19 72.18,302.57 73.27,303.38 74.36,304.19 75.46,287.72 76.53,303.38 77.63,304.19 78.81,304.19 79.89,303.38 80.97,303.38 82.05,304.19 83.16,304.19 84.24,304.19 85.32,304.19 87.28,304.19 88.97,302.57 90.07,304.19 91.18,304.19 92.27,304.19 93.35,303.38 94.42,303.38 95.51,304.19 96.60,302.57 97.70,302.57 98.79,303.38 99.90,303.38 100.99,304.19 102.08,303.38 103.23,35.00 104.32,303.38 105.41,35.00 106.53,35.00 107.61,303.38 108.70,304.19 109.82,35.00 110.90,303.38 111.99,302.57 113.10,304.19 114.18,303.38 115.26,303.38 116.34,302.57 117.42,304.19 118.52,303.38 119.60,303.38 120.71,302.57 121.81,303.38 122.88,35.00 123.97,303.38 125.07,304.19 126.16,304.19 127.40,302.57 128.49,35.00 129.57,304.19 130.65,303.38 131.73,304.19 132.81,303.38 133.89,303.38 134.99,304.19 136.07,35.00 137.18,304.19 138.26,304.19 139.34,304.19 140.43,303.38 141.54,304.19 142.62,302.57 143.71,304.19 144.79,302.57 145.87,302.57 146.95,303.38 148.03,288.80 149.11,302.57 150.20,304.19 151.28,304.19 152.37,303.38 153.46,304.19 154.54,300.14 155.63,304.19 156.71,304.19 157.79,304.19 158.91,35.00 159.99,35.00 161.08,302.57 162.17,35.00 163.25,35.00 164.35,303.38 165.43,304.19 166.51,35.00 167.58,304.19 168.68,304.19 169.77,304.19 170.86,304.19 171.96,303.38 173.03,303.38 174.12,304.19 175.20,304.19 176.29,303.38 177.37,286.91 178.46,303.38 179.53,304.19 180.63,304.19 181.72,304.19 182.81,303.38 183.90,304.19 185.00,304.19 186.09,303.38 187.18,302.57 188.26,302.57 189.35,304.19 190.43,302.57 191.53,304.19 192.61,304.19 193.70,304.19 194.78,35.00 195.88,304.19 196.97,304.19 198.06,302.57 199.17,35.00 200.25,35.00 201.34,303.38 202.43,304.19 203.51,303.38 204.60,304.19 205.69,304.19 206.87,302.57 207.95,304.19 209.06,35.00 210.14,35.00 211.22,302.57 212.30,304.19 213.37,304.19 214.45,303.38 215.54,35.00 216.63,303.38 217.71,35.00 218.79,304.19 219.88,304.19 220.96,304.19 222.07,303.38 223.15,303.38 224.23,304.19 225.31,304.19 226.40,295.28 227.48,35.00 228.58,303.38 229.67,35.00 230.76,35.00 231.85,302.57 232.93,304.19 234.01,299.33 235.09,304.19 236.18,304.19 237.26,304.19 238.35,303.38 239.45,303.38 240.54,303.38 241.63,302.57 242.72,303.38 243.81,304.19 244.89,303.38 245.98,304.19 247.07,303.38 248.18,304.19 249.28,303.38 250.36,303.38 251.45,302.57 252.53,303.38 253.61,304.19 254.69,303.38 255.78,35.00 256.86,304.19 257.94,303.38 259.02,302.57 260.12,304.19 261.21,304.19 262.30,303.38 263.39,303.38 264.50,304.19 265.58,35.00 266.67,303.38 267.75,35.00 268.83,302.57 270.01,303.38 271.12,304.19 272.20,35.00 273.28,303.38 274.36,35.00 275.45,304.19 276.53,304.19 277.62,35.00 278.72,304.19 279.80,302.57 280.88,302.57 281.97,303.38 283.08,35.00 284.17,302.57 285.24,304.19 286.33,301.76 287.43,303.38 288.54,303.38 289.65,304.19 290.73,303.38 291.82,303.38 292.90,304.19 293.99,304.19 295.08,303.38 296.17,304.19 297.27,304.19 298.35,303.38 299.43,35.00 300.53,304.19 301.62,303.38 302.70,304.19 303.79,304.19 304.89,304.19 305.98,35.00 307.06,35.00 308.14,302.57 309.22,302.57 310.31,304.19 311.40,303.38 312.48,302.57 313.56,302.57 314.64,35.00 315.72,304.19 316.82,35.00 317.91,303.38 319.00,35.00 320.10,303.38 321.19,303.38 322.28,303.38 323.37,35.00 324.46,304.19 325.54,302.57 326.63,303.38 327.72,304.19 328.83,303.38 329.92,35.00 331.01,303.38 332.10,304.19 333.18,303.38 334.28,304.19 335.35,35.00 336.44,302.57 337.53,304.19 338.62,304.19 339.71,303.38 340.80,303.38 341.89,304.19 342.98,303.38 344.07,304.19 345.16,304.19 346.26,304.19 347.34,303.38 348.43,302.57 349.52,304.19 350.62,35.00 351.71,295.28 352.80,303.38 353.88,302.57 355.09,303.38 356.18,301.76 357.27,35.00 358.36,304.19 359.46,303.38 360.55,304.19 361.64,304.19 362.73,299.33 363.81,304.19 364.93,303.38 366.04,302.57 367.11,303.38 368.20,302.57 369.29,304.19 370.38,304.19 371.46,304.19 372.59,302.57 373.68,303.38 374.77,303.38 375.87,35.00 377.04,303.38 378.13,303.38 379.50,304.19 381.34,302.57 382.45,303.38 383.56,303.38 384.65,303.38 385.71,304.19 386.80,303.38 387.90,304.19 388.99,304.19 390.09,303.38 391.22,304.19 392.35,304.19 393.50,304.19 394.59,304.19 395.68,302.57 396.77,35.00 397.87,304.19 398.97,302.57 400.07,303.38 401.15,303.38 402.24,303.38 403.37,304.19 404.46,304.19 405.54,303.38 406.63,304.19 407.74,303.38 408.87,304.19 409.96,303.38 411.05,304.19 412.17,287.18 413.21,288.53 414.29,301.76 415.40,302.57 416.48,303.38 417.59,35.00 418.71,35.00 419.80,303.38 420.89,303.38 421.99,304.19 423.09,304.19 424.18,35.00 425.26,304.19 426.34,35.00 427.44,303.38 428.53,303.38 429.61,302.57 430.90,303.38 432.18,303.38 433.47,300.95 434.73,303.38 435.98,302.57 437.23,304.19 438.52,304.19 439.79,35.00 440.88,303.38 441.95,303.38 443.04,304.19 444.12,304.19 445.21,302.57 446.29,303.38 447.37,304.19 448.45,303.38 449.54,303.38 450.63,304.19 451.71,303.38 452.80,304.19 453.88,303.38 454.96,303.38 456.04,304.19 457.13,303.38 458.21,35.00 459.29,304.19 460.38,304.19 461.48,303.38 462.55,304.19 463.63,304.19 464.71,35.00 465.80,303.38 466.89,304.19 467.97,304.19 469.06,304.19 470.14,302.57 471.23,35.00 472.31,303.38 473.40,287.72 474.49,304.19 475.56,304.19 476.65,303.38 477.72,301.76 478.79,303.38 479.88,304.19 480.96,302.57 482.04,303.38 483.12,303.38 484.20,303.38 485.29,303.38 486.36,304.19 487.44,303.38 488.50,302.57 489.63,304.19 490.80,303.38 491.89,303.38 492.98,303.38 494.06,303.38 495.14,304.19 496.22,304.19 497.29,304.19 498.38,304.19 499.66,303.38 500.93,303.38 502.20,304.19 503.47,302.57 504.75,304.19 506.02,303.38 507.32,302.57 508.63,304.19 509.82,303.38 510.99,303.38 512.08,303.38 513.17,302.57 514.26,35.00 515.34,35.00 516.42,304.19 517.51,303.38 518.59,35.00 519.67,35.00 520.75,303.38 521.84,304.19 522.93,304.19 524.01,304.19 525.11,303.38 526.20,304.19 527.28,304.19 528.23,304.19 529.35,304.19 530.44,287.72 531.55,303.38 532.63,302.57 533.71,303.38 534.81,303.38 535.90,304.19 537.00,304.19 538.10,303.38 539.19,302.57 540.30,304.19 541.37,303.38 542.45,302.57 543.54,304.19 544.61,301.76 545.70,304.19 546.77,304.19 547.87,303.38 548.95,303.38 550.04,304.19 551.13,303.38 552.21,301.76 553.30,304.19 554.39,304.19 555.48,304.19 556.57,35.00 557.66,303.38 558.74,304.19 559.84,304.19 560.93,304.19 562.05,304.19 563.13,35.00 564.21,35.00 565.29,302.57 566.37,304.19 567.45,35.00 568.55,304.19 569.63,303.38 570.71,302.57 571.80,302.57 572.87,304.19 573.96,303.38 575.05,304.19 576.15,303.38 577.23,301.76 578.54,304.19 579.66,304.19 580.77,304.19 581.87,302.57 582.96,304.19 584.06,304.19 585.14,304.19 586.22,303.38 587.32,304.19 588.41,303.38 589.49,35.00 590.58,302.57 591.68,304.19 592.76,302.57 593.89,304.19 594.99,303.38 596.08,304.19 597.17,303.38 598.26,35.00 599.34,302.57 600.43,303.38 601.51,304.19 602.65,304.19 603.74,304.19 604.83,304.19 605.92,303.38 607.00,304.19 608.10,304.19 609.18,304.19 610.27,304.19 611.36,304.19 612.45,304.19 613.55,302.57 614.63,304.19 615.72,303.38 616.80,304.19 617.89,304.19 619.00,304.19 620.09,304.19 621.17,35.00 622.25,304.19 623.34,301.76 624.44,217.79 625.54,304.19 626.84,35.00 627.96,303.38 629.05,302.57 630.14,304.19 631.22,303.38 632.31,304.19 633.40,303.38 634.49,304.19 635.60,304.19 636.68,303.38 637.77,35.00 638.85,35.00 639.94,304.19 641.02,302.57 642.11,304.19 643.21,304.19 644.29,304.19 645.37,303.38 646.45,304.19 647.54,302.57 648.64,304.19 649.72,35.00 650.80,35.00 651.91,303.38 653.01,304.19 654.09,303.38 655.17,300.95 656.26,304.19 657.38,304.19 658.46,304.19 659.55,303.38 660.65,303.38 661.74,302.57 662.82,35.00 663.91,303.38 665.00,35.00 666.12,35.00 667.20,303.38 668.29,304.19 669.36,302.57 670.45,304.19 671.54,304.19 672.63,303.38 673.71,303.38 674.81,296.09 675.91,304.19 677.01,304.19 678.07,304.19 679.17,302.57 680.25,35.00 681.34,303.38 682.43,304.19 683.52,302.57 684.60,302.57 685.70,303.38 686.79,35.00 687.88,303.38 688.97,303.38 690.07,304.19 691.16,304.19 692.25,303.38 693.35,304.19 694.58,303.38 695.77,303.38 696.93,302.57 698.03,304.19 699.17,303.38 700.26,303.38 701.35,304.19 702.43,35.00 703.45,303.38 704.58,287.18 705.67,304.19 706.77,286.37 707.84,302.57 708.94,304.19 710.02,304.19 711.12,304.19 712.20,304.19 713.29,304.19 714.37,35.00 715.47,303.38 716.56,304.19 717.65,35.00 718.75,304.19 719.85,304.19 720.94,303.38 722.04,304.19 723.12,304.19 724.24,303.38 725.33,303.38 726.41,304.19 727.49,304.19 728.58,304.19 729.67,304.19 730.75,302.57 731.85,35.00 732.93,35.00 734.04,304.19 735.12,303.38 736.20,304.19 737.29,304.19 738.39,304.19 739.48,304.19 740.58,304.19 741.66,301.76 742.75,303.38 743.84,302.57 744.94,304.19 746.03,35.00 747.13,304.19 748.22,304.19 749.31,303.38 750.41,35.00 751.50,304.19 752.60,304.19 753.72,304.19 754.81,35.00 755.90,304.19 756.99,304.19 758.08,303.38 759.17,303.38 760.26,35.00 761.36,35.00 762.45,303.38 763.54,304.19 764.63,302.57 765.73,302.57 766.82,304.19 767.92,295.28 769.01,303.38 770.11,304.19 771.20,304.19 772.30,303.38 773.41,35.00 774.49,304.19 775.58,302.57 776.67,35.00 777.77,302.57 778.88,303.38 779.98,304.19 781.08,303.38 782.17,304.19 783.25,35.00 784.34,35.00 785.43,302.57 786.53,303.38 787.62,295.28 788.71,304.19 789.80,304.19 790.89,303.38 791.98,303.38 793.08,304.19 794.17,304.19 795.26,35.00 796.36,303.38 797.45,303.38 798.55,304.19 799.64,35.00 800.73,304.19 801.81,303.38 802.89,35.00 803.99,304.19 805.08,303.38 806.18,302.57 807.27,304.19 808.37,302.57 809.46,304.19 810.56,303.38 811.66,304.19 812.74,304.19 813.84,304.19 814.95,304.19 816.03,304.19 817.13,304.19 818.22,303.38 819.33,303.38 820.42,304.19 821.51,304.19 822.63,304.19 823.73,304.19 824.83,303.38 825.92,304.19 827.00,304.19 828.10,303.38 829.20,303.38 830.30,35.00 831.40,303.38 832.49,303.38 833.58,304.19 834.66,35.00 835.78,302.57 836.87,304.19 837.97,287.18 839.06,304.19 840.15,35.00 841.23,35.00 842.31,304.19 843.40,304.19 844.50,304.19 845.59,304.19 846.68,303.38 847.77,303.38 848.87,303.38 849.96,304.19 851.08,35.00 852.18,35.00 853.26,35.00 854.35,286.37 855.44,302.57 856.53,301.76 857.62,303.38 858.72,303.38 859.81,286.37 860.90,304.19 862.00,304.19 863.09,304.19 864.18,304.19 865.28,303.38 866.38,35.00 867.50,303.38 868.61,304.19 869.71,303.38 870.80,303.38 871.90,35.00 873.00,304.19 874.08,35.00 875.17,303.38 876.25,302.57 877.36,303.38 878.45,303.38 879.55,303.38 880.64,303.38 881.75,303.38 882.89,304.19 883.98,35.00 885.07,303.38 886.16,304.19 887.25,35.00 888.35,35.00 889.45,304.19 890.56,303.38 891.65,304.19 892.76,304.19 893.85,301.76 894.95,304.19 896.05,303.38 897.14,304.19 898.23,301.76 899.33,304.19 900.41,302.57 901.52,302.57 902.62,303.38 903.71,304.19 904.80,35.00 905.90,35.00 907.00,35.00 908.09,303.38 909.19,303.38 910.29,304.19 911.42,35.00 912.51,302.57 913.62,304.19 914.71,35.00 915.83,304.19 916.95,304.19 918.06,303.38 919.17,303.38 920.30,302.57 921.40,304.19 922.49,303.38 923.58,303.38 924.68,304.19 925.78,35.00 926.88,304.19 928.00,35.00 929.09,304.19 930.19,303.38 931.28,35.00 932.37,302.57 933.46,303.38 934.56,298.52 935.65,303.38 936.74,304.19 937.83,303.38 938.92,304.19 940.01,304.19 941.09,35.00 942.18,304.19 943.28,304.19 944.38,35.00 945.47,304.19 946.57,303.38 947.67,304.19 948.76,35.00 949.86,303.38 950.95,303.38 952.04,304.19 953.13,304.19 954.22,304.19 955.32,304.19 956.42,298.52 957.50,303.38 958.58,302.57 959.67,304.19 960.76,302.57 961.86,303.38 962.95,304.19 964.04,304.19 965.14,303.38 966.23,303.38 967.31,304.19 968.42,304.19 969.50,35.00 970.58,35.00 971.66,304.19 972.73,304.19 973.83,303.38 974.92,303.38 976.04,301.76 977.12,304.19 978.22,304.19 979.31,284.75 980.42,303.38 981.52,303.38 982.61,304.19 983.72,304.19 984.81,304.19 985.89,303.38 987.00,303.38 988.09,304.19 989.20,303.38 990.30,303.38 991.39,303.38 992.48,304.19 993.57,304.19 994.66,303.38 995.75,302.57 996.84,303.38 997.91,304.19 999.01,303.38 1000.10,304.19 1001.20,304.19 1002.29,35.00 1003.38,303.38 1004.47,304.19 1005.56,302.57 1006.66,304.19 1007.76,304.19 1008.85,304.19 1009.94,303.38 1011.03,301.76 1012.14,35.00 1013.22,304.19 1014.31,303.38 1015.41,304.19 1016.50,35.00 1017.59,304.19 1018.69,304.19 1019.79,304.19 1020.88,304.19 1021.96,304.19 1023.05,35.00 1024.18,35.00 1025.28,303.38 1026.39,304.19 1027.50,304.19 1028.59,302.57 1029.69,35.00 1030.78,302.57 1031.88,35.00 1032.98,35.00 1034.06,303.38 1035.17,303.38 1036.28,304.19 1037.38,304.19 1038.47,35.00 1039.57,304.19 1040.66,303.38 1041.76,302.57 1042.85,304.19 1043.94,304.19 1045.03,303.38 1046.12,302.57 1047.22,304.19 1048.31,304.19 1049.39,304.19 1050.49,304.19 1051.58,35.00 1052.66,35.00 1053.76,304.19 1054.84,303.38 1055.93,35.00 1057.05,304.19 1058.13,302.57 1059.22,304.19 1060.31,304.19 1061.41,304.19 1062.49,294.47 1063.60,303.38 1064.68,35.00 1065.79,304.19 1066.89,304.19 1067.97,302.57 1069.06,304.19 1070.16,304.19 1071.25,304.19 1072.33,303.38 1073.44,304.19 1074.56,303.38 1075.67,304.19 1076.79,304.19 1077.90,302.57 1079.02,302.57 1080.14,304.19 1081.25,304.19 1082.39,301.76 1083.50,301.76 1084.62,35.00 1085.71,304.19 1086.80,303.38 1087.90,304.19 1089.00,304.19 1090.10,303.38 1091.19,304.19 1092.29,35.00 1093.39,35.00 1094.48,303.38 1095.58,304.19 1096.66,304.19 1097.75,302.57 1098.85,303.38 1099.93,304.19 1101.03,303.38 1102.12,304.19 1103.22,304.19 1104.31,302.57 1105.42,35.00 1106.52,304.19 1107.61,35.00 1108.70,35.00 1109.79,304.19 1110.89,304.19 1111.98,303.38 1113.08,303.38 1114.17,304.19 1115.26,304.19 1116.36,303.38 1117.45,304.19 1118.54,304.19 1119.64,304.19 1120.73,304.19 1121.83,304.19 1122.99,303.38 1124.12,35.00 1125.21,301.76 1126.30,35.00 1127.39,302.57 1128.50,304.19 1129.61,304.19 1130.71,304.19 1131.80,303.38 1132.89,304.19 1133.96,302.57 1135.05,304.19 1136.14,35.00 1137.24,303.38 1138.34,304.19 1139.42,303.38 1140.53,303.38 1141.63,302.57 1142.73,35.00 1143.81,304.19 1144.90,35.00 1145.99,304.19 1147.09,295.28 1148.19,304.19 1149.27,303.38 1150.37,297.71 1151.47,304.19 1152.56,35.00 1153.66,302.57 1154.80,302.57 1155.90,304.19 1156.99,304.19 1158.08,303.38 1159.17,304.19 1160.27,303.38 1161.37,304.19 1162.47,304.19 1163.55,303.38 1164.65,304.19 1165.75,304.19 1166.86,304.19 1167.96,303.38 1169.06,304.19 1170.15,303.38 1171.24,35.00 1172.34,304.19 1173.43,303.38 1174.53,303.38 1175.61,303.38 1176.72,304.19 1177.82,35.00 1178.91,303.38 1180.00,35.00"/>
<polyline fill="none" stroke="#d62728" stroke-opacity="0.65" stroke-width="2" points="70.00,35.00 71.09,304.46 72.18,304.46 73.27,302.30 74.36,304.46 75.46,303.38 76.53,304.46 77.63,304.46 78.81,35.00 79.89,304.46 80.97,304.46 82.05,303.92 83.16,303.92 84.24,304.46 85.32,304.46 87.28,303.92 88.97,304.46 90.07,35.00 91.18,303.92 92.27,302.84 93.35,304.46 94.42,303.92 95.51,302.84 96.60,35.00 97.70,303.92 98.79,35.00 99.90,35.00 100.99,35.00 102.08,303.92 103.23,35.00 104.32,303.38 105.41,303.92 106.53,304.46 107.61,35.00 108.70,35.00 109.82,304.46 110.90,35.00 111.99,304.46 113.10,35.00 114.18,304.46 115.26,303.92 116.34,35.00 117.42,304.46 118.52,304.46 119.60,293.12 120.71,35.00 121.81,304.46 122.88,304.46 123.97,304.46 125.07,35.00 126.16,304.46 127.40,304.46 128.49,304.46 129.57,35.00 130.65,35.00 131.73,304.46 132.81,304.46 133.89,303.38 134.99,303.92 136.07,304.46 137.18,35.00 138.26,304.46 139.34,304.46 140.43,35.00 141.54,304.46 142.62,303.92 143.71,304.46 144.79,304.46 145.87,35.00 146.95,303.92 148.03,303.92 149.11,304.46 150.20,303.92 151.28,303.92 152.37,35.00 153.46,303.92 154.54,304.46 155.63,304.46 156.71,303.38 157.79,35.00 158.91,304.46 159.99,303.38 161.08,304.46 162.17,35.00 163.25,304.46 164.35,304.46 165.43,303.92 166.51,303.92 167.58,303.92 168.68,304.46 169.77,303.92 170.86,304.46 171.96,303.92 173.03,35.00 174.12,303.92 175.20,303.92 176.29,304.46 177.37,304.46 178.46,303.92 179.53,303.92 180.63,35.00 181.72,35.00 182.81,303.92 183.90,35.00 185.00,304.46 186.09,304.46 187.18,304.46 188.26,304.46 189.35,303.92 190.43,304.46 191.53,303.38 192.61,304.46 193.70,303.92 194.78,35.00 195.88,304.46 196.97,303.92 198.06,303.92 199.17,303.92 200.25,304.46 201.34,35.00 202.43,304.46 203.51,304.46 204.60,35.00 205.69,303.92 206.87,304.46 207.95,303.92 209.06,304.46 210.14,304.46 211.22,303.92 212.30,303.92 213.37,304.46 214.45,304.46 215.54,304.46 216.63,303.38 217.71,304.46 218.79,35.00 219.88,303.92 220.96,35.00 222.07,304.46 223.15,35.00 224.23,35.00 225.31,303.92 226.40,303.92 227.48,304.46 228.58,304.46 229.67,304.46 230.76,303.92 231.85,304.46 232.93,304.46 234.01,303.92 235.09,35.00 236.18,304.46 237.26,35.00 238.35,303.92 239.45,304.46 240.54,304.46 241.63,35.00 242.72,35.00 243.81,35.00 244.89,304.46 245.98,303.92 247.07,304.46 248.18,303.92 249.28,303.92 250.36,304.46 251.45,304.46 252.53,304.46 253.61,304.46 254.69,304.46 255.78,304.46 256.86,304.46 257.94,282.59 259.02,304.46 260.12,303.92 261.21,304.46 262.30,304.46 263.39,304.46 264.50,303.38 265.58,304.46 266.67,304.46 267.75,303.92 268.83,304.46 270.01,303.92 271.12,304.46 272.20,304.46 273.28,304.46 274.36,304.46 275.45,304.46 276.53,303.38 277.62,304.46 278.72,304.46 279.80,304.46 280.88,303.92 281.97,35.00 283.08,304.46 284.17,303.92 285.24,303.92 286.33,303.92 287.43,35.00 288.54,304.46 289.65,304.46 290.73,35.00 291.82,303.92 292.90,35.00 293.99,35.00 295.08,304.46 296.17,304.46 297.27,35.00 298.35,35.00 299.43,304.46 300.53,304.46 301.62,303.92 302.70,303.92 303.79,304.46 304.89,304.46 305.98,304.46 307.06,303.92 308.14,304.46 309.22,304.46 310.31,303.92 311.40,303.38 312.48,304.46 313.56,35.00 314.64,304.46 315.72,35.00 316.82,35.00 317.91,303.92 319.00,303.92 320.10,304.46 321.19,304.46 322.28,304.46 323.37,303.92 324.46,297.98 325.54,35.00 326.63,304.46 327.72,303.92 328.83,304.46 329.92,303.92 331.01,35.00 332.10,303.92 333.18,304.46 334.28,35.00 335.35,303.92 336.44,304.46 337.53,304.46 338.62,35.00 339.71,303.92 340.80,303.92 341.89,35.00 342.98,303.92 344.07,303.92 345.16,35.00 346.26,303.92 347.34,304.46 348.43,303.92 349.52,304.46 350.62,303.92 351.71,35.00 352.80,304.46 353.88,35.00 355.09,35.00 356.18,303.92 357.27,303.38 358.36,303.38 359.46,303.38 360.55,35.00 361.64,304.46 362.73,304.46 363.81,304.46 364.93,35.00 366.04,304.46 367.11,304.46 368.20,304.46 369.29,35.00 370.38,304.46 371.46,304.46 372.59,293.66 373.68,303.92 374.77,304.46 375.87,303.92 377.04,304.46 378.13,35.00 379.50,304.46 381.34,304.46 382.45,304.46 383.56,304.46 384.65,35.00 385.71,304.46 386.80,304.46 387.90,303.92 388.99,35.00 390.09,304.46 391.22,35.00 392.35,303.38 393.50,304.46 394.59,304.46 395.68,35.00 396.77,35.00 397.87,304.46 398.97,35.00 400.07,304.46 401.15,304.46 402.24,304.46 403.37,35.00 404.46,303.92 405.54,35.00 406.63,304.46 407.74,304.46 408.87,297.98 409.96,304.46 411.05,35.00 412.17,293.12 413.21,35.00 414.29,303.92 415.40,35.00 416.48,304.46 417.59,304.46 418.71,303.92 419.80,304.46 420.89,304.46 421.99,303.92 423.09,303.92 424.18,304.46 425.26,303.92 426.34,35.00 427.44,304.46 428.53,304.46 429.61,304.46 430.90,304.46 432.18,303.92 433.47,304.46 434.73,304.46 435.98,303.38 437.23,303.92 438.52,303.92 439.79,304.46 440.88,35.00 441.95,35.00 443.04,304.46 444.12,304.46 445.21,303.92 446.29,304.46 447.37,303.92 448.45,35.00 449.54,304.46 450.63,304.46 451.71,304.46 452.80,304.46 453.88,293.12 454.96,304.46 456.04,35.00 457.13,303.92 458.21,303.92 459.29,304.46 460.38,304.46 461.48,35.00 462.55,303.92 463.63,304.46 464.71,304.46 465.80,304.46 466.89,35.00 467.97,297.98 469.06,303.92 470.14,303.38 471.23,304.46 472.31,35.00 473.40,302.84 474.49,303.92 475.56,35.00 476.65,35.00 477.72,303.92 478.79,302.84 479.88,304.46 480.96,303.38 482.04,35.00 483.12,304.46 484.20,304.46 485.29,304.46 486.36,303.92 487.44,304.46 488.50,35.00 489.63,304.46 490.80,303.92 491.89,35.00 492.98,303.92 494.06,303.92 495.14,304.46 496.22,304.46 497.29,304.46 498.38,303.92 499.66,304.46 500.93,304.46 502.20,303.92 503.47,304.46 504.75,303.92 506.02,303.92 507.32,304.46 508.63,303.92 509.82,303.92 510.99,303.92 512.08,35.00 513.17,35.00 514.26,35.00 515.34,303.92 516.42,304.46 517.51,304.46 518.59,304.46 519.67,304.46 520.75,304.46 521.84,35.00 522.93,304.46 524.01,303.38 525.11,35.00 526.20,35.00 527.28,303.92 528.23,282.32 529.35,282.05 530.44,304.46 531.55,35.00 532.63,303.38 533.71,304.46 534.81,35.00 535.90,35.00 537.00,35.00 538.10,303.92 539.19,304.46 540.30,304.46 541.37,303.92 542.45,35.00 543.54,303.38 544.61,303.92 545.70,304.46 546.77,303.92 547.87,304.46 548.95,304.46 550.04,304.46 551.13,304.46 552.21,304.46 553.30,303.92 554.39,303.92 555.48,303.92 556.57,304.46 557.66,304.46 558.74,35.00 559.84,35.00 560.93,304.46 562.05,304.46 563.13,304.46 564.21,303.92 565.29,35.00 566.37,303.92 567.45,35.00 568.55,303.92 569.63,304.46 570.71,35.00 571.80,304.46 572.87,35.00 573.96,304.46 575.05,303.92 576.15,304.46 577.23,302.84 578.54,303.92 579.66,303.92 580.77,304.46 581.87,304.46 582.96,303.38 584.06,303.92 585.14,299.06 586.22,35.00 587.32,304.46 588.41,303.92 589.49,304.46 590.58,35.00 591.68,303.92 592.76,303.92 593.89,304.46 594.99,303.92 596.08,35.00 597.17,304.46 598.26,35.00 599.34,303.92 600.43,35.00 601.51,303.38 602.65,304.46 603.74,304.46 604.83,35.00 605.92,304.46 607.00,304.46 608.10,304.46 609.18,303.92 610.27,35.00 611.36,303.38 612.45,304.46 613.55,304.46 614.63,35.00 615.72,304.46 616.80,35.00 617.89,304.46 619.00,304.46 620.09,291.50 621.17,303.92 622.25,304.46 623.34,304.46 624.44,303.38 625.54,303.92 626.84,303.38 627.96,303.92 629.05,35.00 630.14,35.00 631.22,304.46 632.31,303.38 633.40,304.46 634.49,35.00 635.60,303.92 636.68,304.46 637.77,35.00 638.85,303.92 639.94,35.00 641.02,304.46 642.11,304.46 643.21,35.00 644.29,304.46 645.37,304.46 646.45,35.00 647.54,304.46 648.64,304.46 649.72,304.46 650.80,303.92 651.91,35.00 653.01,304.46 654.09,304.46 655.17,35.00 656.26,304.46 657.38,303.38 658.46,35.00 659.55,304.46 660.65,304.46 661.74,303.92 662.82,304.46 663.91,304.46 665.00,304.46 666.12,304.46 667.20,304.46 668.29,304.46 669.36,303.92 670.45,304.46 671.54,303.92 672.63,304.46 673.71,35.00 674.81,304.46 675.91,304.46 677.01,303.92 678.07,35.00 679.17,304.46 680.25,304.46 681.34,304.46 682.43,304.46 683.52,303.92 684.60,304.46 685.70,304.46 686.79,35.00 687.88,304.46 688.97,303.92 690.07,35.00 691.16,35.00 692.25,303.92 693.35,281.24 694.58,304.46 695.77,304.46 696.93,35.00 698.03,303.92 699.17,303.92 700.26,304.46 701.35,304.46 702.43,303.92 703.45,293.12 704.58,303.92 705.67,292.58 706.77,294.20 707.84,293.12 708.94,303.92 710.02,304.46 711.12,303.92 712.20,303.38 713.29,304.46 714.37,304.46 715.47,304.46 716.56,303.92 717.65,35.00 718.75,35.00 719.85,35.00 720.94,35.00 722.04,304.46 723.12,35.00 724.24,304.46 725.33,303.92 726.41,304.46 727.49,303.92 728.58,303.92 729.67,304.46 730.75,303.92 731.85,304.46 732.93,304.46 734.04,35.00 735.12,304.46 736.20,304.46 737.29,35.00 738.39,303.92 739.48,35.00 740.58,303.92 741.66,35.00 742.75,304.46 743.84,35.00 744.94,304.46 746.03,304.46 747.13,303.92 748.22,304.46 749.31,35.00 750.41,303.92 751.50,304.46 752.60,304.46 753.72,304.46 754.81,304.46 755.90,303.92 756.99,302.84 758.08,304.46 759.17,304.46 760.26,304.46 761.36,304.46 762.45,303.92 763.54,304.46 764.63,303.38 765.73,35.00 766.82,35.00 767.92,303.38 769.01,35.00 770.11,304.46 771.20,303.92 772.30,304.46 773.41,303.92 774.49,304.46 775.58,35.00 776.67,35.00 777.77,35.00 778.88,303.92 779.98,303.92 781.08,303.92 782.17,304.46 783.25,303.92 784.34,304.46 785.43,304.46 786.53,304.46 787.62,304.46 788.71,304.46 789.80,304.46 790.89,35.00 791.98,304.46 793.08,35.00 794.17,304.46 795.26,304.46 796.36,304.46 797.45,304.46 798.55,303.92 799.64,292.58 800.73,304.46 801.81,304.46 802.89,303.92 803.99,304.46 805.08,304.46 806.18,304.46 807.27,303.92 808.37,35.00 809.46,304.46 810.56,304.46 811.66,304.46 812.74,303.92 813.84,304.46 814.95,293.66 816.03,292.04 817.13,293.66 818.22,293.12 819.33,294.20 820.42,293.12 821.51,293.12 822.63,292.58 823.73,293.12 824.83,293.39 825.92,293.12 827.00,293.12 828.10,293.12 829.20,293.12 830.30,293.66 831.40,292.58 832.49,292.58 833.58,293.66 834.66,293.12 835.78,292.58 836.87,293.12 837.97,294.20 839.06,293.12 840.15,293.12 841.23,292.58 842.31,294.20 843.40,293.66 844.50,281.51 845.59,271.25 846.68,293.66 847.77,293.66 848.87,293.12 849.96,293.12 851.08,293.66 852.18,293.12 853.26,293.66 854.35,293.66 855.44,293.66 856.53,293.12 857.62,293.66 858.72,293.12 859.81,292.04 860.90,293.12 862.00,293.12 863.09,293.12 864.18,292.58 865.28,293.12 866.38,293.12 867.50,292.58 868.61,292.58 869.71,293.12 870.80,293.12 871.90,293.39 873.00,293.12 874.08,293.66 875.17,293.12 876.25,292.58 877.36,293.66 878.45,292.58 879.55,293.12 880.64,293.66 881.75,294.20 882.89,293.66 883.98,293.66 885.07,293.12 886.16,293.12 887.25,292.04 888.35,293.12 889.45,293.66 890.56,293.12 891.65,294.20 892.76,293.66 893.85,294.20 894.95,293.12 896.05,293.66 897.14,282.05 898.23,293.66 899.33,293.66 900.41,293.66 901.52,293.12 902.62,293.12 903.71,293.12 904.80,293.12 905.90,293.66 907.00,293.66 908.09,293.66 909.19,292.58 910.29,293.66 911.42,294.20 912.51,293.12 913.62,293.12 914.71,294.20 915.83,292.58 916.95,294.20 918.06,293.12 919.17,293.66 920.30,294.20 921.40,294.20 922.49,293.12 923.58,293.66 924.68,293.66 925.78,293.12 926.88,292.58 928.00,293.66 929.09,293.12 930.19,293.12 931.28,283.13 932.37,292.58 933.46,293.66 934.56,293.66 935.65,292.58 936.74,282.05 937.83,293.12 938.92,293.12 940.01,293.12 941.09,292.58 942.18,293.66 943.28,294.20 944.38,293.12 945.47,293.66 946.57,304.46 947.67,303.92 948.76,35.00 949.86,303.92 950.95,304.46 952.04,303.92 953.13,304.46 954.22,304.46 955.32,35.00 956.42,304.46 957.50,303.92 958.58,303.92 959.67,303.92 960.76,304.46 961.86,304.46 962.95,303.38 964.04,304.46 965.14,304.46 966.23,303.92 967.31,304.46 968.42,303.92 969.50,35.00 970.58,304.46 971.66,304.46 972.73,35.00 973.83,304.46 974.92,304.46 976.04,304.46 977.12,303.92 978.22,35.00 979.31,304.46 980.42,304.46 981.52,303.92 982.61,304.46 983.72,35.00 984.81,35.00 985.89,304.46 987.00,304.46 988.09,303.92 989.20,304.46 990.30,303.92 991.39,35.00 992.48,35.00 993.57,35.00 994.66,303.38 995.75,293.12 996.84,293.12 997.91,304.46 999.01,304.46 1000.10,258.83 1001.20,303.92 1002.29,304.46 1003.38,35.00 1004.47,35.00 1005.56,304.46 1006.66,303.38 1007.76,35.00 1008.85,303.92 1009.94,304.46 1011.03,303.92 1012.14,303.92 1013.22,304.46 1014.31,304.46 1015.41,304.46 1016.50,304.46 1017.59,304.46 1018.69,35.00 1019.79,297.44 1020.88,35.00 1021.96,303.92 1023.05,35.00 1024.18,304.46 1025.28,304.46 1026.39,304.46 1027.50,304.46 1028.59,304.46 1029.69,303.92 1030.78,303.92 1031.88,303.92 1032.98,35.00 1034.06,304.46 1035.17,304.46 1036.28,303.92 1037.38,304.46 1038.47,35.00 1039.57,304.46 1040.66,35.00 1041.76,304.46 1042.85,302.84 1043.94,35.00 1045.03,303.92 1046.12,304.46 1047.22,304.46 1048.31,303.92 1049.39,304.46 1050.49,304.46 1051.58,35.00 1052.66,303.92 1053.76,304.46 1054.84,303.38 1055.93,304.46 1057.05,304.46 1058.13,303.92 1059.22,304.46 1060.31,303.92 1061.41,303.92 1062.49,304.46 1063.60,35.00 1064.68,303.92 1065.79,304.46 1066.89,35.00 1067.97,304.46 1069.06,304.46 1070.16,303.92 1071.25,35.00 1072.33,35.00 1073.44,303.92 1074.56,304.46 1075.67,35.00 1076.79,35.00 1077.90,35.00 1079.02,303.92 1080.14,304.46 1081.25,303.92 1082.39,303.92 1083.50,304.46 1084.62,303.92 1085.71,35.00 1086.80,304.46 1087.90,304.46 1089.00,304.46 1090.10,303.92 1091.19,35.00 1092.29,304.46 1093.39,304.46 1094.48,303.38 1095.58,35.00 1096.66,304.46 1097.75,303.92 1098.85,304.46 1099.93,35.00 1101.03,303.92 1102.12,304.46 1103.22,304.46 1104.31,304.46 1105.42,293.66 1106.52,293.12 1107.61,293.12 1108.70,293.66 1109.79,303.92 1110.89,304.46 1111.98,304.46 1113.08,304.46 1114.17,304.46 1115.26,303.92 1116.36,304.46 1117.45,304.46 1118.54,304.46 1119.64,304.46 1120.73,303.92 1121.83,35.00 1122.99,35.00 1124.12,303.92 1125.21,302.84 1126.30,303.92 1127.39,303.38 1128.50,304.46 1129.61,303.92 1130.71,303.92 1131.80,304.46 1132.89,303.92 1133.96,304.46 1135.05,304.46 1136.14,303.92 1137.24,303.92 1138.34,304.46 1139.42,304.46 1140.53,304.46 1141.63,303.92 1142.73,35.00 1143.81,35.00 1144.90,304.46 1145.99,303.38 1147.09,304.46 1148.19,304.46 1149.27,304.46 1150.37,304.46 1151.47,35.00 1152.56,303.92 1153.66,35.00 1154.80,35.00 1155.90,303.92 1156.99,304.46 1158.08,303.92 1159.17,304.46 1160.27,304.46 1161.37,304.46 1162.47,304.46 1163.55,303.92 1164.65,303.92 1165.75,304.46 1166.86,35.00 1167.96,303.92 1169.06,303.92 1170.15,303.38 1171.24,304.46 1172.34,35.00 1173.43,304.46 1174.53,304.46 1175.61,304.46 1176.72,303.92 1177.82,303.92 1178.91,303.92 1180.00,304.46"/>
<polyline fill="none" stroke="#d62728" stroke-opacity="0.50" stroke-width="2" points="70.00,302.84 71.09,302.84 72.18,303.92 73.27,303.92 74.36,303.92 75.46,303.38 76.53,303.92 77.63,302.57 78.81,303.38 79.89,302.84 80.97,303.92 82.05,303.38 83.16,302.84 84.24,303.38 85.32,287.18 87.28,303.38 88.97,303.38 90.07,303.38 91.18,303.92 92.27,302.84 93.35,293.12 94.42,303.38 95.51,303.38 96.60,303.38 97.70,303.38 98.79,303.38 99.90,303.38 100.99,303.92 102.08,303.38 103.23,303.92 104.32,303.92 105.41,303.38 106.53,303.38 107.61,303.38 108.70,302.03 109.82,303.38 110.90,303.92 111.99,303.92 113.10,303.38 114.18,303.92 115.26,303.92 116.34,303.92 117.42,302.84 118.52,303.92 119.60,303.38 120.71,303.92 121.81,302.84 122.88,303.92 123.97,302.84 125.07,303.38 126.16,302.84 127.40,303.38 128.49,303.92 129.57,303.38 130.65,303.92 131.73,303.38 132.81,303.38 133.89,303.92 134.99,302.30 136.07,303.92 137.18,303.92 138.26,304.46 139.34,303.92 140.43,303.92 141.54,303.92 142.62,303.38 143.71,289.61 144.79,303.92 145.87,303.38 146.95,302.84 148.03,299.87 149.11,303.92 150.20,303.92 151.28,304.46 152.37,303.92 153.46,302.03 154.54,304.46 155.63,303.38 156.71,303.38 157.79,302.84 158.91,302.57 159.99,303.92 161.08,303.92 162.17,303.92 163.25,303.38 164.35,303.38 165.43,302.84 166.51,303.38 167.58,302.84 168.68,303.92 169.77,303.38 170.86,294.20 171.96,303.38 173.03,303.38 174.12,303.92 175.20,303.92 176.29,302.57 177.37,303.38 178.46,302.84 179.53,302.84 180.63,302.57 181.72,303.92 182.81,303.92 183.90,303.92 185.00,303.92 186.09,302.84 187.18,303.92 188.26,303.92 189.35,302.84 190.43,303.92 191.53,302.84 192.61,302.84 193.70,303.92 194.78,303.92 195.88,303.92 196.97,303.92 198.06,302.57 199.17,303.92 200.25,303.92 201.34,303.38 202.43,303.38 203.51,303.92 204.60,304.46 205.69,303.92 206.87,303.92 207.95,303.38 209.06,303.92 210.14,303.92 211.22,304.46 212.30,303.38 213.37,302.84 214.45,303.92 215.54,302.84 216.63,303.92 217.71,303.38 218.79,303.38 219.88,304.46 220.96,303.38 222.07,303.92 223.15,302.57 224.23,302.03 225.31,303.92 226.40,303.92 227.48,303.38 228.58,303.38 229.67,303.92 230.76,303.38 231.85,303.38 232.93,302.84 234.01,302.57 235.09,303.38 236.18,302.03 237.26,302.03 238.35,302.03 239.45,302.84 240.54,302.03 241.63,302.84 242.72,302.84 243.81,302.57 244.89,302.03 245.98,303.92 247.07,303.38 248.18,303.92 249.28,303.92 250.36,303.38 251.45,302.84 252.53,303.92 253.61,303.92 254.69,303.92 255.78,296.90 256.86,303.38 257.94,302.84 259.02,303.92 260.12,303.92 261.21,302.84 262.30,303.92 263.39,302.84 264.50,303.92 265.58,303.92 266.67,303.38 267.75,303.92 268.83,303.92 270.01,299.33 271.12,303.38 272.20,303.92 273.28,303.38 274.36,303.92 275.45,304.46 276.53,303.92 277.62,303.38 278.72,303.92 279.80,302.84 280.88,303.38 281.97,303.38 283.08,303.92 284.17,303.92 285.24,303.92 286.33,302.84 287.43,303.92 288.54,303.38 289.65,303.92 290.73,303.92 291.82,303.38 292.90,302.84 293.99,303.38 295.08,303.38 296.17,303.92 297.27,303.92 298.35,302.84 299.43,303.92 300.53,303.38 301.62,303.92 302.70,303.92 303.79,303.38 304.89,303.92 305.98,302.30 307.06,303.92 308.14,303.38 309.22,303.92 310.31,302.84 311.40,303.92 312.48,302.84 313.56,303.92 314.64,303.92 315.72,303.92 316.82,303.92 317.91,302.84 319.00,303.92 320.10,303.92 321.19,299.87 322.28,303.92 323.37,302.84 324.46,302.84 325.54,303.92 326.63,303.92 327.72,303.92 328.83,304.46 329.92,304.46 331.01,303.38 332.10,303.38 333.18,303.38 334.28,303.92 335.35,303.92 336.44,302.84 337.53,303.92 338.62,303.92 339.71,303.38 340.80,303.38 341.89,303.92 342.98,302.57 344.07,303.92 345.16,302.84 346.26,303.92 347.34,303.92 348.43,303.38 349.52,303.92 350.62,304.46 351.71,303.38 352.80,302.84 353.88,303.38 355.09,303.92 356.18,303.38 357.27,303.92 358.36,303.92 359.46,303.38 360.55,303.38 361.64,303.38 362.73,303.38 363.81,303.92 364.93,302.84 366.04,303.92 367.11,303.92 368.20,303.92 369.29,303.92 370.38,302.84 371.46,303.38 372.59,303.38 373.68,303.92 374.77,302.84 375.87,303.92 377.04,303.92 378.13,293.39 379.50,293.12 381.34,303.92 382.45,302.84 383.56,292.58 384.65,302.03 385.71,302.84 386.80,304.46 387.90,303.92 388.99,303.92 390.09,303.92 391.22,304.46 392.35,303.92 393.50,303.92 394.59,302.84 395.68,303.38 396.77,303.38 397.87,303.92 398.97,303.38 400.07,302.84 401.15,294.74 402.24,303.38 403.37,303.92 404.46,303.92 405.54,303.92 406.63,303.92 407.74,303.38 408.87,303.92 409.96,303.38 411.05,303.92 412.17,303.38 413.21,302.57 414.29,303.92 415.40,303.92 416.48,303.92 417.59,304.46 418.71,303.38 419.80,303.38 420.89,303.38 421.99,304.46 423.09,303.92 424.18,303.92 425.26,303.38 426.34,303.92 427.44,303.92 428.53,303.92 429.61,303.92 430.90,300.41 432.18,303.92 433.47,303.38 434.73,303.92 435.98,303.92 437.23,303.92 438.52,302.84 439.79,303.92 440.88,303.92 441.95,303.92 443.04,303.38 444.12,302.84 445.21,302.84 446.29,303.92 447.37,303.92 448.45,303.38 449.54,304.46 450.63,304.46 451.71,303.92 452.80,292.58 453.88,302.84 454.96,304.46 456.04,303.38 457.13,303.92 458.21,303.38 459.29,303.38 460.38,303.38 461.48,303.38 462.55,303.38 463.63,304.46 464.71,303.38 465.80,304.46 466.89,303.92 467.97,303.38 469.06,303.92 470.14,303.38 471.23,295.82 472.31,302.84 473.40,303.92 474.49,302.84 475.56,299.87 476.65,303.92 477.72,303.38 478.79,302.84 479.88,303.92 480.96,303.92 482.04,303.38 483.12,303.92 484.20,303.38 485.29,303.92 486.36,303.38 487.44,304.46 488.50,303.92 489.63,303.92 490.80,303.92 491.89,303.92 492.98,303.92 494.06,303.38 495.14,302.57 496.22,303.92 497.29,303.92 498.38,303.92 499.66,302.84 500.93,302.84 502.20,303.92 503.47,302.30 504.75,303.92 506.02,303.92 507.32,303.92 508.63,303.92 509.82,303.92 510.99,303.92 512.08,303.38 513.17,303.38 514.26,303.38 515.34,303.38 516.42,303.92 517.51,303.92 518.59,292.85 519.67,303.92 520.75,302.57 521.84,303.38 522.93,303.92 524.01,303.92 525.11,303.38 526.20,303.92 527.28,302.30 528.23,303.92 529.35,303.92 530.44,304.46 531.55,303.38 532.63,303.92 533.71,303.92 534.81,303.38 535.90,303.92 537.00,303.92 538.10,303.92 539.19,304.46 540.30,303.92 541.37,303.38 542.45,303.92 543.54,303.92 544.61,303.92 545.70,302.84 546.77,303.38 547.87,303.92 548.95,303.92 550.04,303.38 551.13,303.92 552.21,303.38 553.30,303.38 554.39,303.92 555.48,303.38 556.57,303.92 557.66,303.92 558.74,303.92 559.84,303.92 560.93,303.92 562.05,303.92 563.13,303.92 564.21,302.84 565.29,302.84 566.37,303.92 567.45,304.46 568.55,302.03 569.63,303.38 570.71,303.92 571.80,303.92 572.87,303.92 573.96,302.84 575.05,303.38 576.15,303.38 577.23,303.38 578.54,303.92 579.66,303.92 580.77,303.38 581.87,302.57 582.96,303.92 584.06,302.84 585.14,303.92 586.22,303.92 587.32,303.92 588.41,304.46 589.49,302.57 590.58,302.57 591.68,303.38 592.76,303.92 593.89,303.92 594.99,303.38 596.08,303.38 597.17,302.84 598.26,303.92 599.34,300.95 600.43,303.92 601.51,302.84 602.65,303.38 603.74,303.92 604.83,303.38 605.92,302.84 607.00,303.92 608.10,303.38 609.18,303.92 610.27,303.38 611.36,303.92 612.45,303.92 613.55,303.92 614.63,303.38 615.72,303.38 616.80,303.92 617.89,303.92 619.00,303.92 620.09,303.92 621.17,303.92 622.25,300.95 623.34,290.69 624.44,303.92 625.54,302.84 626.84,303.92 627.96,303.38 629.05,303.38 630.14,303.92 631.22,304.46 632.31,303.92 633.40,303.92 634.49,303.38 635.60,303.38 636.68,302.84 637.77,304.46 638.85,303.92 639.94,303.38 641.02,304.46 642.11,304.46 643.21,303.38 644.29,303.38 645.37,303.92 646.45,303.38 647.54,304.46 648.64,303.38 649.72,302.84 650.80,304.46 651.91,303.92 653.01,303.92 654.09,303.38 655.17,303.38 656.26,303.92 657.38,303.92 658.46,300.95 659.55,303.92 660.65,302.84 661.74,303.92 662.82,303.38 663.91,303.38 665.00,302.03 666.12,302.03 667.20,303.92 668.29,302.84 669.36,302.84 670.45,302.57 671.54,303.38 672.63,303.38 673.71,303.38 674.81,303.38 675.91,291.77 677.01,274.49 678.07,302.84 679.17,292.85 680.25,302.84 681.34,303.38 682.43,303.92 683.52,303.92 684.60,303.92 685.70,303.38 686.79,303.38 687.88,304.46 688.97,302.84 690.07,303.92 691.16,302.57 692.25,303.92 693.35,303.92 694.58,304.46 695.77,304.46 696.93,303.92 698.03,303.92 699.17,303.92 700.26,303.38 701.35,303.92 702.43,303.38 703.45,303.38 704.58,303.38 705.67,303.92 706.77,303.92 707.84,303.38 708.94,303.38 710.02,303.38 711.12,303.92 712.20,303.38 713.29,303.92 714.37,303.92 715.47,303.92 716.56,303.92 717.65,303.38 718.75,303.92 719.85,303.92 720.94,302.84 722.04,303.38 723.12,303.38 724.24,302.57 725.33,303.38 726.41,302.57 727.49,302.57 728.58,301.49 729.67,303.92 730.75,303.38 731.85,303.92 732.93,302.84 734.04,303.38 735.12,303.92 736.20,303.38 737.29,303.38 738.39,303.38 739.48,303.92 740.58,303.92 741.66,304.46 742.75,303.92 743.84,303.92 744.94,302.57 746.03,303.38 747.13,303.38 748.22,303.92 749.31,302.84 750.41,302.84 751.50,303.38 752.60,303.38 753.72,303.92 754.81,303.38 755.90,303.92 756.99,303.92 758.08,300.41 759.17,303.92 760.26,303.38 761.36,303.92 762.45,303.92 763.54,303.92 764.63,303.38 765.73,304.46 766.82,303.38 767.92,302.84 769.01,303.92 770.11,303.92 771.20,303.38 772.30,303.92 773.41,303.92 774.49,303.92 775.58,303.92 776.67,303.92 777.77,303.38 778.88,302.84 779.98,303.92 781.08,303.38 782.17,303.92 783.25,303.92 784.34,303.38 785.43,303.92 786.53,303.92 787.62,303.38 788.71,303.92 789.80,303.38 790.89,302.84 791.98,303.38 793.08,302.03 794.17,292.85 795.26,303.92 796.36,302.57 797.45,303.38 798.55,302.84 799.64,303.38 800.73,302.84 801.81,291.50 802.89,303.38 803.99,303.92 805.08,303.92 806.18,303.92 807.27,303.92 808.37,303.92 809.46,303.92 810.56,303.92 811.66,303.92 812.74,303.92 813.84,297.71 814.95,303.38 816.03,303.38 817.13,303.92 818.22,303.92 819.33,303.38 820.42,304.46 821.51,304.46 822.63,303.92 823.73,303.92 824.83,303.38 825.92,303.92 827.00,304.46 828.10,303.92 829.20,303.38 830.30,302.84 831.40,302.84 832.49,303.38 833.58,303.92 834.66,302.03 835.78,303.38 836.87,303.92 837.97,302.84 839.06,303.92 840.15,304.46 841.23,303.92 842.31,304.46 843.40,303.38 844.50,303.92 845.59,303.92 846.68,303.92 847.77,303.92 848.87,302.84 849.96,302.84 851.08,303.38 852.18,303.92 853.26,302.84 854.35,292.31 855.44,303.92 856.53,303.38 857.62,303.38 858.72,303.38 859.81,303.92 860.90,303.38 862.00,303.92 863.09,303.92 864.18,303.92 865.28,303.92 866.38,303.92 867.50,302.84 868.61,303.38 869.71,303.92 870.80,303.92 871.90,303.92 873.00,302.84 874.08,303.92 875.17,303.92 876.25,303.92 877.36,303.92 878.45,303.38 879.55,303.92 880.64,303.38 881.75,303.92 882.89,303.92 883.98,303.38 885.07,303.92 886.16,303.92 887.25,301.49 888.35,303.92 889.45,303.92 890.56,303.92 891.65,303.38 892.76,302.84 893.85,303.92 894.95,304.46 896.05,303.38 897.14,303.38 898.23,303.92 899.33,303.92 900.41,303.92 901.52,303.92 902.62,303.38 903.71,303.92 904.80,302.84 905.90,303.92 907.00,303.38 908.09,303.92 909.19,303.92 910.29,303.92 911.42,304.46 912.51,303.38 913.62,303.92 914.71,303.92 915.83,301.49 916.95,302.03 918.06,303.92 919.17,303.38 920.30,302.57 921.40,300.41 922.49,303.38 923.58,302.57 924.68,303.92 925.78,304.46 926.88,303.92 928.00,303.92 929.09,303.38 930.19,303.38 931.28,303.92 932.37,303.92 933.46,303.38 934.56,302.84 935.65,303.92 936.74,304.46 937.83,303.38 938.92,303.38 940.01,302.84 941.09,302.84 942.18,303.92 943.28,303.92 944.38,303.92 945.47,303.38 946.57,303.92 947.67,303.38 948.76,303.92 949.86,303.92 950.95,303.92 952.04,303.92 953.13,303.92 954.22,303.92 955.32,303.92 956.42,303.38 957.50,303.92 958.58,301.49 959.67,302.57 960.76,303.92 961.86,302.57 962.95,303.92 964.04,303.38 965.14,302.84 966.23,303.92 967.31,302.84 968.42,292.58 969.50,290.69 970.58,302.84 971.66,291.50 972.73,302.57 973.83,303.38 974.92,303.92 976.04,303.92 977.12,304.46 978.22,303.92 979.31,303.38 980.42,303.38 981.52,303.92 982.61,303.38 983.72,303.92 984.81,303.38 985.89,303.92 987.00,303.92 988.09,294.20 989.20,303.92 990.30,303.92 991.39,303.92 992.48,303.38 993.57,303.38 994.66,302.57 995.75,303.92 996.84,303.38 997.91,303.92 999.01,304.46 1000.10,302.57 1001.20,303.92 1002.29,302.84 1003.38,303.92 1004.47,303.92 1005.56,302.84 1006.66,303.38 1007.76,303.38 1008.85,303.92 1009.94,302.84 1011.03,303.38 1012.14,303.38 1013.22,303.92 1014.31,303.92 1015.41,303.92 1016.50,303.38 1017.59,303.92 1018.69,303.92 1019.79,303.38 1020.88,303.38 1021.96,303.92 1023.05,303.92 1024.18,303.38 1025.28,303.38 1026.39,303.38 1027.50,303.38 1028.59,303.92 1029.69,303.92 1030.78,303.92 1031.88,303.92 1032.98,295.82 1034.06,303.38 1035.17,303.38 1036.28,303.38 1037.38,303.92 1038.47,303.38 1039.57,303.38 1040.66,302.84 1041.76,303.38 1042.85,302.03 1043.94,303.92 1045.03,303.92 1046.12,303.92 1047.22,302.03 1048.31,303.92 1049.39,297.44 1050.49,303.38 1051.58,303.92 1052.66,303.92 1053.76,303.38 1054.84,303.92 1055.93,303.92 1057.05,303.92 1058.13,303.92 1059.22,303.38 1060.31,303.92 1061.41,300.41 1062.49,303.38 1063.60,303.38 1064.68,303.92 1065.79,300.41 1066.89,303.38 1067.97,303.92 1069.06,303.38 1070.16,303.92 1071.25,303.92 1072.33,303.92 1073.44,303.92 1074.56,302.57 1075.67,303.38 1076.79,303.92 1077.90,303.92 1079.02,302.30 1080.14,303.92 1081.25,303.92 1082.39,304.46 1083.50,303.92 1084.62,302.03 1085.71,303.92 1086.80,303.92 1087.90,302.84 1089.00,303.92 1090.10,303.92 1091.19,303.38 1092.29,303.38 1093.39,300.95 1094.48,303.38 1095.58,303.38 1096.66,303.38 1097.75,292.31 1098.85,303.92 1099.93,303.38 1101.03,302.84 1102.12,303.92 1103.22,303.92 1104.31,303.92 1105.42,303.92 1106.52,303.92 1107.61,303.92 1108.70,303.38 1109.79,303.38 1110.89,303.38 1111.98,303.92 1113.08,303.92 1114.17,292.31 1115.26,303.92 1116.36,303.92 1117.45,303.92 1118.54,303.38 1119.64,303.92 1120.73,302.84 1121.83,303.38 1122.99,303.92 1124.12,303.92 1125.21,304.46 1126.30,302.84 1127.39,303.92 1128.50,303.92 1129.61,302.84 1130.71,303.38 1131.80,303.92 1132.89,303.92 1133.96,303.38 1135.05,303.38 1136.14,303.92 1137.24,303.92 1138.34,302.84 1139.42,303.92 1140.53,302.84 1141.63,303.92 1142.73,302.84 1143.81,303.92 1144.90,302.84 1145.99,303.92 1147.09,302.84 1148.19,303.92 1149.27,303.92 1150.37,303.92 1151.47,303.38 1152.56,303.38 1153.66,303.92 1154.80,302.84 1155.90,303.38 1156.99,303.38 1158.08,304.46 1159.17,303.38 1160.27,303.38 1161.37,303.92 1162.47,303.38 1163.55,302.84 1164.65,302.30 1165.75,303.92 1166.86,303.38 1167.96,303.38 1169.06,303.92 1170.15,302.03 1171.24,303.38 1172.34,303.38 1173.43,303.38 1174.53,303.38 1175.61,303.92 1176.72,300.95 1177.82,302.84 1178.91,302.84 1180.00,303.92"/>
<rect x="70" y="332" width="12" height="12" fill="#d62728" fill-opacity="0.95"/>
<text x="88" y="342" font-size="11" fill="#333" font-family="Arial, Helvetica, sans-serif">nsc1.utdallas.edu</text>
<rect x="350" y="332" width="12" height="12" fill="#d62728" fill-opacity="0.80"/>
<text x="368" y="342" font-size="11" fill="#333" font-family="Arial, Helvetica, sans-serif">nsc2.utdallas.edu</text>
<rect x="630" y="332" width="12" height="12" fill="#d62728" fill-opacity="0.65"/>
<text x="648" y="342" font-size="11" fill="#333" font-family="Arial, Helvetica, sans-serif">nsc3.utdallas.edu</text>
<rect x="910" y="332" width="12" height="12" fill="#d62728" fill-opacity="0.50"/>
<text x="928" y="342" font-size="11" fill="#333" font-family="Arial, Helvetica, sans-serif">nsc4.utdallas.edu</text>
</svg>