<?xml version="1.0" encoding="UTF-8"?>
<svg xmlns="http://www.w3.org/2000/svg" width="1200" height="360" viewBox="0 0 1200 360" role="img" aria-label="CPU Utilization (%)">
<rect width="100%" height="100%" fill="#ffffff"/>
<text x="600.0" y="22" text-anchor="middle" font-size="16" font-family="Arial, Helvetica, sans-serif" font-weight="bold">CPU Utilization (%)</text>
<line x1="70" y1="35.00" x2="1180" y2="35.00" stroke="#e3e3e3" stroke-width="1"/>
<text x="62" y="39.00" text-anchor="end" font-size="11" fill="#444" font-family="Arial, Helvetica, sans-serif">100</text>
<line x1="70" y1="89.00" x2="1180" y2="89.00" stroke="#e3e3e3" stroke-width="1"/>
<text x="62" y="93.00" text-anchor="end" font-size="11" fill="#444" font-family="Arial, Helvetica, sans-serif">80</text>
<line x1="70" y1="143.00" x2="1180" y2="143.00" stroke="#e3e3e3" stroke-width="1"/>
<text x="62" y="147.00" text-anchor="end" font-size="11" fill="#444" font-family="Arial, Helvetica, sans-serif">60</text>
<line x1="70" y1="197.00" x2="1180" y2="197.00" stroke="#e3e3e3" stroke-width="1"/>
<text x="62" y="201.00" text-anchor="end" font-size="11" fill="#444" font-family="Arial, Helvetica, sans-serif">40</text>
<line x1="70" y1="251.00" x2="1180" y2="251.00" stroke="#e3e3e3" stroke-width="1"/>
<text x="62" y="255.00" text-anchor="end" font-size="11" fill="#444" font-family="Arial, Helvetica, sans-serif">20</text>
<line x1="70" y1="305.00" x2="1180" y2="305.00" stroke="#e3e3e3" stroke-width="1"/>
<text x="62" y="309.00" text-anchor="end" font-size="11" fill="#444" font-family="Arial, Helvetica, sans-serif">0</text>
<line x1="70" y1="35" x2="70" y2="305" stroke="#999"/>
<line x1="70" y1="305" x2="1180" y2="305" stroke="#999"/>
<text x="70.00" y="323" text-anchor="middle" font-size="10" fill="#444" font-family="Arial, Helvetica, sans-serif">2026-02-11 16:38</text>
<text x="347.50" y="323" text-anchor="middle" font-size="10" fill="#444" font-family="Arial, Helvetica, sans-serif">2026-02-11 23:38</text>
<text x="625.00" y="323" text-anchor="middle" font-size="10" fill="#444" font-family="Arial, Helvetica, sans-serif">2026-02-12 06:38</text>
<text x="902.50" y="323" text-anchor="middle" font-size="10" fill="#444" font-family="Arial, Helvetica, sans-serif">2026-02-12 13:38</text>
<text x="1180.00" y="323" text-anchor="middle" font-size="10" fill="#444" font-family="Arial, Helvetica, sans-serif">2026-02-12 20:39</text>
<polyline fill="none" stroke="#d62728" stroke-opacity="0.95" stroke-width="2" points="73.55,304.46 77.12,298.79 80.66,296.90 84.23,303.92 87.81,304.73 91.34,304.46 94.90,303.92 98.75,304.73 102.28,303.92 105.82,304.46 109.35,303.92 112.96,304.46 116.49,304.46 120.02,303.92 126.42,304.46 131.93,303.92 135.52,304.46 139.16,303.92 142.70,300.95 146.24,304.73 149.72,278.27 153.31,303.92 156.85,304.46 160.43,294.74 164.00,304.46 167.62,303.92 171.19,301.49 174.75,303.92 178.48,295.28 182.07,294.20 185.61,303.65 189.26,304.46 192.81,304.46 196.37,303.92 200.03,303.65 203.55,302.30 207.10,303.92 210.73,304.46 214.24,303.92 217.79,304.73 221.30,304.73 224.84,304.46 228.41,303.38 231.94,304.46 235.57,303.92 239.16,303.38 242.67,304.46 246.21,297.71 249.80,297.44 253.35,48.23 257.41,303.92 260.97,303.92 264.51,304.46 268.03,303.65 271.56,303.65 275.09,304.46 278.62,304.46 282.18,303.92 285.73,304.46 289.35,303.92 292.89,304.46 296.40,304.46 299.98,299.60 303.57,303.65 307.12,303.92 310.68,304.73 314.19,303.92 317.71,304.73 321.25,304.46 324.77,304.46 328.31,304.46 331.86,303.92 335.39,304.73 338.94,303.92 342.50,304.46 346.01,304.73 349.59,303.38 353.11,303.38 356.64,303.65 360.29,304.46 363.83,303.65 367.37,304.73 370.95,304.46 374.48,304.46 378.05,304.73 381.59,303.92 385.10,303.92 388.62,304.46 392.20,304.73 395.77,299.60 399.32,303.65 402.90,304.46 406.40,304.73 409.97,303.65 413.50,303.92 417.04,304.46 420.56,304.46 424.12,303.92 427.64,303.92 431.22,303.92 434.77,304.46 438.32,303.92 441.88,303.92 445.48,298.79 449.05,303.65 452.60,304.46 456.13,304.73 459.67,304.73 463.20,304.46 466.79,304.46 470.34,304.46 473.89,304.46 477.43,302.84 481.00,304.46 484.56,304.46 488.14,304.46 491.75,304.46 495.28,304.46 498.83,304.46 502.39,303.65 505.93,304.73 509.47,303.38 513.05,304.46 516.90,304.46 520.43,304.73 524.03,303.92 527.57,303.92 531.10,304.46 534.62,299.87 538.10,304.46 541.65,304.73 545.20,295.01 548.74,304.46 552.28,303.92 555.82,303.92 559.36,303.92 562.88,304.46 566.50,303.65 570.04,304.46 573.58,304.46 577.11,304.46 580.67,303.92 584.20,303.92 587.76,303.92 591.33,304.73 594.88,304.46 598.44,304.46 601.98,303.92 605.50,304.46 609.03,303.65 612.58,303.92 616.12,303.65 619.69,304.73 623.27,304.46 626.83,304.46 630.37,304.46 633.96,303.11 637.51,303.38 641.03,304.46 644.60,304.46 648.15,304.46 651.76,303.65 655.36,303.92 658.89,304.46 662.46,297.71 665.98,294.20 669.50,303.92 673.04,304.46 676.60,303.65 680.13,297.71 683.64,304.46 687.17,303.92 690.76,304.46 694.31,304.46 697.88,303.92 701.42,303.38 705.05,304.73 708.59,303.92 712.14,303.38 715.67,303.92 719.19,304.46 723.05,304.46 726.68,303.92 730.21,304.73 733.74,304.46 737.24,304.46 740.80,304.73 744.35,304.46 747.91,304.73 751.48,35.00 755.01,303.65 758.54,303.11 762.09,297.17 765.73,304.46 769.27,304.46 772.79,304.46 776.33,303.92 779.92,303.65 783.54,304.46 787.17,303.11 790.69,304.73 794.25,304.46 797.80,303.92 801.33,304.73 804.90,304.46 808.45,303.92 812.05,304.73 815.58,304.46 819.10,304.46 822.69,304.46 826.24,303.92 829.79,303.65 833.34,304.46 836.94,303.65 840.49,304.46 844.03,301.76 847.54,302.03 851.07,304.46 854.63,304.46 858.18,304.46 861.71,35.00 865.25,303.65 868.76,303.92 872.31,304.46 875.88,304.46 879.44,303.65 883.00,304.46 886.60,304.73 890.15,304.46 893.73,304.73 897.26,35.00 900.83,304.73 904.37,303.65 907.92,304.46 911.48,303.65 915.11,304.73 918.66,300.68 922.23,303.65 925.78,303.92 929.32,304.46 932.88,304.46 936.39,304.46 939.93,304.46 943.51,304.73 947.06,304.73 950.62,304.73 954.17,303.65 957.75,303.92 961.29,303.92 964.85,304.73 968.42,35.00 972.01,304.46 975.54,303.92 979.09,304.73 982.66,303.92 986.25,304.73 989.81,303.92 993.36,304.46 996.90,303.92 1000.84,304.73 1004.42,304.46 1007.97,303.65 1011.52,304.46 1015.11,304.46 1018.68,303.92 1022.23,304.46 1025.80,303.65 1029.32,304.73 1032.98,295.28 1036.58,297.17 1040.10,304.46 1043.64,304.46 1047.20,304.46 1050.75,304.73 1054.31,304.46 1057.99,303.65 1061.55,304.46 1065.09,303.92 1068.69,304.73 1072.52,304.73 1076.07,304.73 1080.54,303.65 1086.55,304.46 1090.18,303.92 1093.81,303.92 1097.35,304.73 1100.83,304.46 1104.36,303.92 1107.97,303.65 1111.54,304.46 1115.11,304.73 1118.81,303.92 1122.48,35.00 1126.25,303.65 1129.81,304.46 1133.37,304.73 1136.92,303.92 1140.52,303.92 1144.12,303.65 1147.70,304.46 1151.24,303.92 1154.78,304.46 1158.48,304.46 1162.05,304.46 1165.56,304.46 1169.13,304.46 1172.74,303.92 1176.42,304.46 1180.00,303.92"/>
<polyline fill="none" stroke="#d62728" stroke-opacity="0.80" stroke-width="2" points="70.00,303.38 73.55,304.19 77.12,302.57 80.66,303.38 84.23,304.19 87.81,287.72 91.34,303.38 94.90,304.19 98.75,304.19 102.28,303.38 105.82,303.38 109.35,304.19 112.96,304.19 116.49,304.19 120.02,304.19 126.42,304.19 131.93,302.57 135.52,304.19 139.16,304.19 142.70,304.19 146.24,303.38 149.72,303.38 153.31,304.19 156.85,302.57 160.43,302.57 164.00,303.38 167.62,303.38 171.19,304.19 174.75,303.38 178.48,35.00 182.07,303.38 185.61,35.00 189.26,35.00 192.81,303.38 196.37,304.19 200.03,35.00 203.55,303.38 207.10,302.57 210.73,304.19 214.24,303.38 217.79,303.38 221.30,302.57 224.84,304.19 228.41,303.38 231.94,303.38 235.57,302.57 239.16,303.38 242.67,35.00 246.21,303.38 249.80,304.19 253.35,304.19 257.41,302.57 260.97,35.00 264.51,304.19 268.03,303.38 271.56,304.19 275.09,303.38 278.62,303.38 282.18,304.19 285.73,35.00 289.35,304.19 292.89,304.19 296.40,304.19 299.98,303.38 303.57,304.19 307.12,302.57 310.68,304.19 314.19,302.57 317.71,302.57 321.25,303.38 324.77,288.80 328.31,302.57 331.86,304.19 335.39,304.19 338.94,303.38 342.50,304.19 346.01,300.14 349.59,304.19 353.11,304.19 356.64,304.19 360.29,35.00 363.83,35.00 367.37,302.57 370.95,35.00 374.48,35.00 378.05,303.38 381.59,304.19 385.10,35.00 388.62,304.19 392.20,304.19 395.77,304.19 399.32,304.19 402.90,303.38 406.40,303.38 409.97,304.19 413.50,304.19 417.04,303.38 420.56,286.91 424.12,303.38 427.64,304.19 431.22,304.19 434.77,304.19 438.32,303.38 441.88,304.19 445.48,304.19 449.05,303.38 452.60,302.57 456.13,302.57 459.67,304.19 463.20,302.57 466.79,304.19 470.34,304.19 473.89,304.19 477.43,35.00 481.00,304.19 484.56,304.19 488.14,302.57 491.75,35.00 495.28,35.00 498.83,303.38 502.39,304.19 505.93,303.38 509.47,304.19 513.05,304.19 516.90,302.57 520.43,304.19 524.03,35.00 527.57,35.00 531.10,302.57 534.62,304.19 538.10,304.19 541.65,303.38 545.20,35.00 548.74,303.38 552.28,35.00 555.82,304.19 559.36,304.19 562.88,304.19 566.50,303.38 570.04,303.38 573.58,304.19 577.11,304.19 580.67,295.28 584.20,35.00 587.76,303.38 591.33,35.00 594.88,35.00 598.44,302.57 601.98,304.19 605.50,299.33 609.03,304.19 612.58,304.19 616.12,304.19 619.69,303.38 623.27,303.38 626.83,303.38 630.37,302.57 633.96,303.38 637.51,304.19 641.03,303.38 644.60,304.19 648.15,303.38 651.76,304.19 655.36,303.38 658.89,303.38 662.46,302.57 665.98,303.38 669.50,304.19 673.04,303.38 676.60,35.00 680.13,304.19 683.64,303.38 687.17,302.57 690.76,304.19 694.31,304.19 697.88,303.38 701.42,303.38 705.05,304.19 708.59,35.00 712.14,303.38 715.67,35.00 719.19,302.57 723.05,303.38 726.68,304.19 730.21,35.00 733.74,303.38 737.24,35.00 740.80,304.19 744.35,304.19 747.91,35.00 751.48,304.19 755.01,302.57 758.54,302.57 762.09,303.38 765.73,35.00 769.27,302.57 772.79,304.19 776.33,301.76 779.92,303.38 783.54,303.38 787.17,304.19 790.69,303.38 794.25,303.38 797.80,304.19 801.33,304.19 804.90,303.38 808.45,304.19 812.05,304.19 815.58,303.38 819.10,35.00 822.69,304.19 826.24,303.38 829.79,304.19 833.34,304.19 836.94,304.19 840.49,35.00 844.03,35.00 847.54,302.57 851.07,302.57 854.63,304.19 858.18,303.38 861.71,302.57 865.25,302.57 868.76,35.00 872.31,304.19 875.88,35.00 879.44,303.38 883.00,35.00 886.60,303.38 890.15,303.38 893.73,303.38 897.26,35.00 900.83,304.19 904.37,302.57 907.92,303.38 911.48,304.19 915.11,303.38 918.66,35.00 922.23,303.38 925.78,304.19 929.32,303.38 932.88,304.19 936.39,35.00 939.93,302.57 943.51,304.19 947.06,304.19 950.62,303.38 954.17,303.38 957.75,304.19 961.29,303.38 964.85,304.19 968.42,304.19 972.01,304.19 975.54,303.38 979.09,302.57 982.66,304.19 986.25,35.00 989.81,295.28 993.36,303.38 996.90,302.57 1000.84,303.38 1004.42,301.76 1007.97,35.00 1011.52,304.19 1015.11,303.38 1018.68,304.19 1022.23,304.19 1025.80,299.33 1029.32,304.19 1032.98,303.38 1036.58,302.57 1040.10,303.38 1043.64,302.57 1047.20,304.19 1050.75,304.19 1054.31,304.19 1057.99,302.57 1061.55,303.38 1065.09,303.38 1068.69,35.00 1072.52,303.38 1076.07,303.38 1080.54,304.19 1086.55,302.57 1090.18,303.38 1093.81,303.38 1097.35,303.38 1100.83,304.19 1104.36,303.38 1107.97,304.19 1111.54,304.19 1115.11,303.38 1118.81,304.19 1122.48,304.19 1126.25,304.19 1129.81,304.19 1133.37,302.57 1136.92,35.00 1140.52,304.19 1144.12,302.57 1147.70,303.38 1151.24,303.38 1154.78,303.38 1158.48,304.19 1162.05,304.19 1165.56,303.38 1169.13,304.19 1172.74,303.38 1176.42,304.19 1180.00,303.38"/>
<polyline fill="none" stroke="#d62728" stroke-opacity="0.65" stroke-width="2" points="70.00,35.00 73.55,304.46 77.12,304.46 80.66,302.30 84.23,304.46 87.81,303.38 91.34,304.46 94.90,304.46 98.75,35.00 102.28,304.46 105.82,304.46 109.35,303.92 112.96,303.92 116.49,304.46 120.02,304.46 126.42,303.92 131.93,304.46 135.52,35.00 139.16,303.92 142.70,302.84 146.24,304.46 149.72,303.92 153.31,302.84 156.85,35.00 160.43,303.92 164.00,35.00 167.62,35.00 171.19,35.00 174.75,303.92 178.48,35.00 182.07,303.38 185.61,303.92 189.26,304.46 192.81,35.00 196.37,35.00 200.03,304.46 203.55,35.00 207.10,304.46 210.73,35.00 214.24,304.46 217.79,303.92 221.30,35.00 224.84,304.46 228.41,304.46 231.94,293.12 235.57,35.00 239.16,304.46 242.67,304.46 246.21,304.46 249.80,35.00 253.35,304.46 257.41,304.46 260.97,304.46 264.51,35.00 268.03,35.00 271.56,304.46 275.09,304.46 278.62,303.38 282.18,303.92 285.73,304.46 289.35,35.00 292.89,304.46 296.40,304.46 299.98,35.00 303.57,304.46 307.12,303.92 310.68,304.46 314.19,304.46 317.71,35.00 321.25,303.92 324.77,303.92 328.31,304.46 331.86,303.92 335.39,303.92 338.94,35.00 342.50,303.92 346.01,304.46 349.59,304.46 353.11,303.38 356.64,35.00 360.29,304.46 363.83,303.38 367.37,304.46 370.95,35.00 374.48,304.46 378.05,304.46 381.59,303.92 385.10,303.92 388.62,303.92 392.20,304.46 395.77,303.92 399.32,304.46 402.90,303.92 406.40,35.00 409.97,303.92 413.50,303.92 417.04,304.46 420.56,304.46 424.12,303.92 427.64,303.92 431.22,35.00 434.77,35.00 438.32,303.92 441.88,35.00 445.48,304.46 449.05,304.46 452.60,304.46 456.13,304.46 459.67,303.92 463.20,304.46 466.79,303.38 470.34,304.46 473.89,303.92 477.43,35.00 481.00,304.46 484.56,303.92 488.14,303.92 491.75,303.92 495.28,304.46 498.83,35.00 502.39,304.46 505.93,304.46 509.47,35.00 513.05,303.92 516.90,304.46 520.43,303.92 524.03,304.46 527.57,304.46 531.10,303.92 534.62,303.92 538.10,304.46 541.65,304.46 545.20,304.46 548.74,303.38 552.28,304.46 555.82,35.00 559.36,303.92 562.88,35.00 566.50,304.46 570.04,35.00 573.58,35.00 577.11,303.92 580.67,303.92 584.20,304.46 587.76,304.46 591.33,304.46 594.88,303.92 598.44,304.46 601.98,304.46 605.50,303.92 609.03,35.00 612.58,304.46 616.12,35.00 619.69,303.92 623.27,304.46 626.83,304.46 630.37,35.00 633.96,35.00 637.51,35.00 641.03,304.46 644.60,303.92 648.15,304.46 651.76,303.92 655.36,303.92 658.89,304.46 662.46,304.46 665.98,304.46 669.50,304.46 673.04,304.46 676.60,304.46 680.13,304.46 683.64,282.59 687.17,304.46 690.76,303.92 694.31,304.46 697.88,304.46 701.42,304.46 705.05,303.38 708.59,304.46 712.14,304.46 715.67,303.92 719.19,304.46 723.05,303.92 726.68,304.46 730.21,304.46 733.74,304.46 737.24,304.46 740.80,304.46 744.35,303.38 747.91,304.46 751.48,304.46 755.01,304.46 758.54,303.92 762.09,35.00 765.73,304.46 769.27,303.92 772.79,303.92 776.33,303.92 779.92,35.00 783.54,304.46 787.17,304.46 790.69,35.00 794.25,303.92 797.80,35.00 801.33,35.00 804.90,304.46 808.45,304.46 812.05,35.00 815.58,35.00 819.10,304.46 822.69,304.46 826.24,303.92 829.79,303.92 833.34,304.46 836.94,304.46 840.49,304.46 844.03,303.92 847.54,304.46 851.07,304.46 854.63,303.92 858.18,303.38 861.71,304.46 865.25,35.00 868.76,304.46 872.31,35.00 875.88,35.00 879.44,303.92 883.00,303.92 886.60,304.46 890.15,304.46 893.73,304.46 897.26,303.92 900.83,297.98 904.37,35.00 907.92,304.46 911.48,303.92 915.11,304.46 918.66,303.92 922.23,35.00 925.78,303.92 929.32,304.46 932.88,35.00 936.39,303.92 939.93,304.46 943.51,304.46 947.06,35.00 950.62,303.92 954.17,303.92 957.75,35.00 961.29,303.92 964.85,303.92 968.42,35.00 972.01,303.92 975.54,304.46 979.09,303.92 982.66,304.46 986.25,303.92 989.81,35.00 993.36,304.46 996.90,35.00 1000.84,35.00 1004.42,303.92 1007.97,303.38 1011.52,303.38 1015.11,303.38 1018.68,35.00 1022.23,304.46 1025.80,304.46 1029.32,304.46 1032.98,35.00 1036.58,304.46 1040.10,304.46 1043.64,304.46 1047.20,35.00 1050.75,304.46 1054.31,304.46 1057.99,293.66 1061.55,303.92 1065.09,304.46 1068.69,303.92 1072.52,304.46 1076.07,35.00 1080.54,304.46 1086.55,304.46 1090.18,304.46 1093.81,304.46 1097.35,35.00 1100.83,304.46 1104.36,304.46 1107.97,303.92 1111.54,35.00 1115.11,304.46 1118.81,35.00 1122.48,303.38 1126.25,304.46 1129.81,304.46 1133.37,35.00 1136.92,35.00 1140.52,304.46 1144.12,35.00 1147.70,304.46 1151.24,304.46 1154.78,304.46 1158.48,35.00 1162.05,303.92 1165.56,35.00 1169.13,304.46 1172.74,304.46 1176.42,297.98 1180.00,304.46"/>
<polyline fill="none" stroke="#d62728" stroke-opacity="0.50" stroke-width="2" points="70.00,302.84 73.55,302.84 77.12,303.92 80.66,303.92 84.23,303.92 87.81,303.38 91.34,303.92 94.90,302.57 98.75,303.38 102.28,302.84 105.82,303.92 109.35,303.38 112.96,302.84 116.49,303.38 120.02,287.18 126.42,303.38 131.93,303.38 135.52,303.38 139.16,303.92 142.70,302.84 146.24,293.12 149.72,303.38 153.31,303.38 156.85,303.38 160.43,303.38 164.00,303.38 167.62,303.38 171.19,303.92 174.75,303.38 178.48,303.92 182.07,303.92 185.61,303.38 189.26,303.38 192.81,303.38 196.37,302.03 200.03,303.38 203.55,303.92 207.10,303.92 210.73,303.38 214.24,303.92 217.79,303.92 221.30,303.92 224.84,302.84 228.41,303.92 231.94,303.38 235.57,303.92 239.16,302.84 242.67,303.92 246.21,302.84 249.80,303.38 253.35,302.84 257.41,303.38 260.97,303.92 264.51,303.38 268.03,303.92 271.56,303.38 275.09,303.38 278.62,303.92 282.18,302.30 285.73,303.92 289.35,303.92 292.89,304.46 296.40,303.92 299.98,303.92 303.57,303.92 307.12,303.38 310.68,289.61 314.19,303.92 317.71,303.38 321.25,302.84 324.77,299.87 328.31,303.92 331.86,303.92 335.39,304.46 338.94,303.92 342.50,302.03 346.01,304.46 349.59,303.38 353.11,303.38 356.64,302.84 360.29,302.57 363.83,303.92 367.37,303.92 370.95,303.92 374.48,303.38 378.05,303.38 381.59,302.84 385.10,303.38 388.62,302.84 392.20,303.92 395.77,303.38 399.32,294.20 402.90,303.38 406.40,303.38 409.97,303.92 413.50,303.92 417.04,302.57 420.56,303.38 424.12,302.84 427.64,302.84 431.22,302.57 434.77,303.92 438.32,303.92 441.88,303.92 445.48,303.92 449.05,302.84 452.60,303.92 456.13,303.92 459.67,302.84 463.20,303.92 466.79,302.84 470.34,302.84 473.89,303.92 477.43,303.92 481.00,303.92 484.56,303.92 488.14,302.57 491.75,303.92 495.28,303.92 498.83,303.38 502.39,303.38 505.93,303.92 509.47,304.46 513.05,303.92 516.90,303.92 520.43,303.38 524.03,303.92 527.57,303.92 531.10,304.46 534.62,303.38 538.10,302.84 541.65,303.92 545.20,302.84 548.74,303.92 552.28,303.38 555.82,303.38 559.36,304.46 562.88,303.38 566.50,303.92 570.04,302.57 573.58,302.03 577.11,303.92 580.67,303.92 584.20,303.38 587.76,303.38 591.33,303.92 594.88,303.38 598.44,303.38 601.98,302.84 605.50,302.57 609.03,303.38 612.58,302.03 616.12,302.03 619.69,302.03 623.27,302.84 626.83,302.03 630.37,302.84 633.96,302.84 637.51,302.57 641.03,302.03 644.60,303.92 648.15,303.38 651.76,303.92 655.36,303.92 658.89,303.38 662.46,302.84 665.98,303.92 669.50,303.92 673.04,303.92 676.60,296.90 680.13,303.38 683.64,302.84 687.17,303.92 690.76,303.92 694.31,302.84 697.88,303.92 701.42,302.84 705.05,303.92 708.59,303.92 712.14,303.38 715.67,303.92 719.19,303.92 723.05,299.33 726.68,303.38 730.21,303.92 733.74,303.38 737.24,303.92 740.80,304.46 744.35,303.92 747.91,303.38 751.48,303.92 755.01,302.84 758.54,303.38 762.09,303.38 765.73,303.92 769.27,303.92 772.79,303.92 776.33,302.84 779.92,303.92 783.54,303.38 787.17,303.92 790.69,303.92 794.25,303.38 797.80,302.84 801.33,303.38 804.90,303.38 808.45,303.92 812.05,303.92 815.58,302.84 819.10,303.92 822.69,303.38 826.24,303.92 829.79,303.92 833.34,303.38 836.94,303.92 840.49,302.30 844.03,303.92 847.54,303.38 851.07,303.92 854.63,302.84 858.18,303.92 861.71,302.84 865.25,303.92 868.76,303.92 872.31,303.92 875.88,303.92 879.44,302.84 883.00,303.92 886.60,303.92 890.15,299.87 893.73,303.92 897.26,302.84 900.83,302.84 904.37,303.92 907.92,303.92 911.48,303.92 915.11,304.46 918.66,304.46 922.23,303.38 925.78,303.38 929.32,303.38 932.88,303.92 936.39,303.92 939.93,302.84 943.51,303.92 947.06,303.92 950.62,303.38 954.17,303.38 957.75,303.92 961.29,302.57 964.85,303.92 968.42,302.84 972.01,303.92 975.54,303.92 979.09,303.38 982.66,303.92 986.25,304.46 989.81,303.38 993.36,302.84 996.90,303.38 1000.84,303.92 1004.42,303.38 1007.97,303.92 1011.52,303.92 1015.11,303.38 1018.68,303.38 1022.23,303.38 1025.80,303.38 1029.32,303.92 1032.98,302.84 1036.58,303.92 1040.10,303.92 1043.64,303.92 1047.20,303.92 1050.75,302.84 1054.31,303.38 1057.99,303.38 1061.55,303.92 1065.09,302.84 1068.69,303.92 1072.52,303.92 1076.07,293.39 1080.54,293.12 1086.55,303.92 1090.18,302.84 1093.81,292.58 1097.35,302.03 1100.83,302.84 1104.36,304.46 1107.97,303.92 1111.54,303.92 1115.11,303.92 1118.81,304.46 1122.48,303.92 1126.25,303.92 1129.81,302.84 1133.37,303.38 1136.92,303.38 1140.52,303.92 1144.12,303.38 1147.70,302.84 1151.24,294.74 1154.78,303.38 1158.48,303.92 1162.05,303.92 1165.56,303.92 1169.13,303.92 1172.74,303.38 1176.42,303.92 1180.00,303.38"/>
<rect x="70" y="332" width="12" height="12" fill="#d62728" fill-opacity="0.95"/>
<text x="88" y="342" font-size="11" fill="#333" font-family="Arial, Helvetica, sans-serif">nsc1.utdallas.edu</text>
<rect x="350" y="332" width="12" height="12" fill="#d62728" fill-opacity="0.80"/>
<text x="368" y="342" font-size="11" fill="#333" font-family="Arial, Helvetica, sans-serif">nsc2.utdallas.edu</text>
<rect x="630" y="332" width="12" height="12" fill="#d62728" fill-opacity="0.65"/>
<text x="648" y="342" font-size="11" fill="#333" font-family="Arial, Helvetica, sans-serif">nsc3.utdallas.edu</text>
<rect x="910" y="332" width="12" height="12" fill="#d62728" fill-opacity="0.50"/>
<text x="928" y="342" font-size="11" fill="#333" font-family="Arial, Helvetica, sans-serif">nsc4.utdallas.edu</text>
</svg>