<?xml version="1.0" encoding="UTF-8"?>
<svg xmlns="http://www.w3.org/2000/svg" width="1200" height="360" viewBox="0 0 1200 360" role="img" aria-label="CPU Utilization (%)">
<rect width="100%" height="100%" fill="#ffffff"/>
<text x="600.0" y="22" text-anchor="middle" font-size="16" font-family="Arial, Helvetica, sans-serif" font-weight="bold">CPU Utilization (%)</text>
<line x1="70" y1="35.00" x2="1180" y2="35.00" stroke="#e3e3e3" stroke-width="1"/>
<text x="62" y="39.00" text-anchor="end" font-size="11" fill="#444" font-family="Arial, Helvetica, sans-serif">100</text>
<line x1="70" y1="89.00" x2="1180" y2="89.00" stroke="#e3e3e3" stroke-width="1"/>
<text x="62" y="93.00" text-anchor="end" font-size="11" fill="#444" font-family="Arial, Helvetica, sans-serif">80</text>
<line x1="70" y1="143.00" x2="1180" y2="143.00" stroke="#e3e3e3" stroke-width="1"/>
<text x="62" y="147.00" text-anchor="end" font-size="11" fill="#444" font-family="Arial, Helvetica, sans-serif">60</text>
<line x1="70" y1="197.00" x2="1180" y2="197.00" stroke="#e3e3e3" stroke-width="1"/>
<text x="62" y="201.00" text-anchor="end" font-size="11" fill="#444" font-family="Arial, Helvetica, sans-serif">40</text>
<line x1="70" y1="251.00" x2="1180" y2="251.00" stroke="#e3e3e3" stroke-width="1"/>
<text x="62" y="255.00" text-anchor="end" font-size="11" fill="#444" font-family="Arial, Helvetica, sans-serif">20</text>
<line x1="70" y1="305.00" x2="1180" y2="305.00" stroke="#e3e3e3" stroke-width="1"/>
<text x="62" y="309.00" text-anchor="end" font-size="11" fill="#444" font-family="Arial, Helvetica, sans-serif">0</text>
<line x1="70" y1="35" x2="70" y2="305" stroke="#999"/>
<line x1="70" y1="305" x2="1180" y2="305" stroke="#999"/>
<text x="70.00" y="323" text-anchor="middle" font-size="10" fill="#444" font-family="Arial, Helvetica, sans-serif">2026-02-11 16:38</text>
<text x="347.50" y="323" text-anchor="middle" font-size="10" fill="#444" font-family="Arial, Helvetica, sans-serif">2026-02-12 22:31</text>
<text x="625.00" y="323" text-anchor="middle" font-size="10" fill="#444" font-family="Arial, Helvetica, sans-serif">2026-02-14 04:24</text>
<text x="902.50" y="323" text-anchor="middle" font-size="10" fill="#444" font-family="Arial, Helvetica, sans-serif">2026-02-15 10:18</text>
<text x="1180.00" y="323" text-anchor="middle" font-size="10" fill="#444" font-family="Arial, Helvetica, sans-serif">2026-02-16 16:11</text>
<polyline fill="none" stroke="#d62728" stroke-opacity="0.95" stroke-width="2" points="70.83,304.46 71.67,298.79 72.50,296.90 73.33,303.92 74.18,304.73 75.00,304.46 75.84,303.92 76.74,304.73 77.57,303.92 78.39,304.46 79.22,303.92 80.07,304.46 80.90,304.46 81.72,303.92 83.22,304.46 84.51,303.92 85.35,304.46 86.21,303.92 87.04,300.95 87.87,304.73 88.68,278.27 89.52,303.92 90.36,304.46 91.19,294.74 92.03,304.46 92.88,303.92 93.72,301.49 94.55,303.92 95.43,295.28 96.27,294.20 97.10,303.65 97.95,304.46 98.78,304.46 99.62,303.92 100.48,303.65 101.30,302.30 102.13,303.92 102.98,304.46 103.80,303.92 104.64,304.73 105.46,304.73 106.29,304.46 107.13,303.38 107.95,304.46 108.80,303.92 109.65,303.38 110.47,304.46 111.30,297.71 112.14,297.44 112.97,48.23 113.92,303.92 114.76,303.92 115.59,304.46 116.41,303.65 117.24,303.65 118.07,304.46 118.89,304.46 119.73,303.92 120.56,304.46 121.41,303.92 122.24,304.46 123.06,304.46 123.90,299.60 124.74,303.65 125.57,303.92 126.41,304.73 127.23,303.92 128.06,304.73 128.88,304.46 129.71,304.46 130.54,304.46 131.37,303.92 132.20,304.73 133.03,303.92 133.87,304.46 134.69,304.73 135.53,303.38 136.35,303.38 137.18,303.65 138.03,304.46 138.86,303.65 139.70,304.73 140.53,304.46 141.36,304.46 142.20,304.73 143.03,303.92 143.85,303.92 144.67,304.46 145.51,304.73 146.35,299.60 147.18,303.65 148.02,304.46 148.84,304.73 149.68,303.65 150.51,303.92 151.34,304.46 152.16,304.46 152.99,303.92 153.82,303.92 154.66,303.92 155.49,304.46 156.32,303.92 157.16,303.92 158.00,298.79 158.84,303.65 159.67,304.46 160.50,304.73 161.33,304.73 162.15,304.46 163.00,304.46 163.83,304.46 164.66,304.46 165.49,302.84 166.32,304.46 167.16,304.46 168.00,304.46 168.84,304.46 169.67,304.46 170.51,304.46 171.34,303.65 172.17,304.73 173.00,303.38 173.84,304.46 174.74,304.46 175.57,304.73 176.41,303.92 177.24,303.92 178.07,304.46 178.89,299.87 179.71,304.46 180.54,304.73 181.37,295.01 182.20,304.46 183.03,303.92 183.86,303.92 184.69,303.92 185.52,304.46 186.37,303.65 187.19,304.46 188.02,304.46 188.85,304.46 189.68,303.92 190.51,303.92 191.35,303.92 192.18,304.73 193.02,304.46 193.85,304.46 194.68,303.92 195.51,304.46 196.33,303.65 197.16,303.92 197.99,303.65 198.83,304.73 199.67,304.46 200.50,304.46 201.33,304.46 202.17,303.11 203.01,303.38 203.83,304.46 204.67,304.46 205.50,304.46 206.35,303.65 207.19,303.92 208.02,304.46 208.85,297.71 209.68,294.20 210.50,303.92 211.33,304.46 212.17,303.65 213.00,297.71 213.82,304.46 214.65,303.92 215.49,304.46 216.32,304.46 217.16,303.92 217.99,303.38 218.84,304.73 219.67,303.92 220.50,303.38 221.33,303.92 222.15,304.46 223.06,304.46 223.91,303.92 224.73,304.73 225.56,304.46 226.38,304.46 227.22,304.73 228.05,304.46 228.88,304.73 229.72,35.00 230.55,303.65 231.37,303.11 232.21,297.17 233.06,304.46 233.89,304.46 234.71,304.46 235.54,303.92 236.38,303.65 237.23,304.46 238.08,303.11 238.91,304.73 239.74,304.46 240.57,303.92 241.40,304.73 242.24,304.46 243.07,303.92 243.91,304.73 244.74,304.46 245.57,304.46 246.41,304.46 247.24,303.92 248.07,303.65 248.90,304.46 249.75,303.65 250.58,304.46 251.41,301.76 252.23,302.03 253.06,304.46 253.89,304.46 254.72,304.46 255.55,35.00 256.38,303.65 257.21,303.92 258.04,304.46 258.87,304.46 259.71,303.65 260.54,304.46 261.39,304.73 262.22,304.46 263.06,304.73 263.89,35.00 264.72,304.73 265.55,303.65 266.38,304.46 267.22,303.65 268.07,304.73 268.90,300.68 269.74,303.65 270.57,303.92 271.40,304.46 272.23,304.46 273.06,304.46 273.89,304.46 274.72,304.73 275.56,304.73 276.39,304.73 277.22,303.65 278.06,303.92 278.89,303.92 279.72,304.73 280.56,35.00 281.40,304.46 282.23,303.92 283.06,304.73 283.90,303.92 284.74,304.73 285.58,303.92 286.41,304.46 287.24,303.92 288.16,304.73 289.00,304.46 289.83,303.65 290.66,304.46 291.51,304.46 292.34,303.92 293.17,304.46 294.01,303.65 294.83,304.73 295.69,295.28 296.54,297.17 297.36,304.46 298.19,304.46 299.03,304.46 299.86,304.73 300.69,304.46 301.56,303.65 302.39,304.46 303.22,303.92 304.06,304.73 304.96,304.73 305.79,304.73 306.84,303.65 308.25,304.46 309.10,303.92 309.95,303.92 310.78,304.73 311.60,304.46 312.42,303.92 313.27,303.65 314.10,304.46 314.94,304.73 315.81,303.92 316.67,35.00 317.55,303.65 318.39,304.46 319.22,304.73 320.05,303.92 320.90,303.92 321.74,303.65 322.58,304.46 323.41,303.92 324.24,304.46 325.11,304.46 325.94,304.46 326.77,304.46 327.60,304.46 328.45,303.92 329.31,304.46 330.15,303.92 330.98,303.92 331.84,303.65 332.64,303.92 333.46,303.65 334.31,303.92 335.14,303.92 335.99,303.92 336.85,303.11 337.68,303.92 338.51,303.92 339.35,304.46 340.20,304.46 341.03,303.65 341.86,304.73 342.68,299.06 343.52,304.73 344.36,304.46 345.18,48.23 346.18,48.50 347.16,48.77 348.14,48.50 349.11,48.23 350.06,48.50 351.02,48.50 352.00,48.77 352.97,304.46 353.81,304.46 354.63,304.46 355.46,303.92 356.29,304.46 357.13,304.46 357.95,303.92 358.78,304.19 359.61,303.65 360.44,304.73 361.27,303.92 362.10,303.92 362.93,304.46 363.76,304.73 364.58,304.73 365.41,304.46 366.24,304.46 367.08,304.46 367.90,303.92 368.73,304.46 369.57,304.73 370.39,303.65 371.22,304.46 372.05,35.00 372.88,304.46 373.71,304.46 374.54,304.73 375.37,304.46 376.20,304.73 377.04,35.00 377.87,304.46 378.70,304.46 379.53,304.73 380.35,303.92 381.18,303.92 382.00,303.92 382.82,303.38 383.65,304.73 384.48,303.65 385.31,304.46 386.13,303.92 386.96,304.46 387.79,304.73 388.61,303.92 389.44,303.38 390.25,304.73 391.11,303.65 392.01,304.73 392.84,304.73 393.68,304.46 394.50,303.92 395.33,303.65 396.16,297.44 396.98,297.71 397.81,48.50 398.79,48.50 399.77,48.50 400.73,48.23 401.71,48.50 402.69,48.23 403.66,48.50 404.65,48.77 405.66,295.82 406.57,297.17 407.46,304.73 408.29,303.92 409.13,303.92 409.97,304.73 410.79,303.92 411.62,304.46 412.45,304.46 413.28,304.46 414.11,304.46 414.93,304.46 415.77,304.73 416.60,303.11 417.43,304.73 418.27,303.92 419.10,304.46 419.92,304.73 420.65,304.46 421.51,303.92 422.34,304.73 423.19,304.73 424.02,304.73 424.85,303.92 425.69,35.00 426.53,304.73 427.36,304.73 428.20,304.46 429.04,304.73 429.89,303.65 430.71,304.46 431.54,304.73 432.37,304.73 433.19,304.73 434.02,35.00 434.84,303.92 435.68,303.92 436.51,303.92 437.35,303.65 438.18,304.46 439.00,304.46 439.84,303.92 440.67,304.46 441.51,304.46 442.34,304.73 443.17,303.92 444.00,301.22 444.84,304.46 445.68,304.46 446.53,304.46 447.36,303.65 448.18,304.46 449.02,304.73 449.84,304.46 450.67,300.68 451.51,303.92 452.33,304.73 453.16,304.46 453.99,304.73 454.82,303.38 455.65,303.92 456.48,304.73 457.32,304.73 458.15,303.92 459.16,303.92 460.01,303.92 460.86,303.65 461.70,304.46 462.53,302.84 463.38,304.46 464.20,304.46 465.03,303.92 465.87,303.92 466.71,303.11 467.53,304.73 468.37,304.46 469.21,304.46 470.04,304.46 470.90,304.73 471.74,304.73 472.58,304.46 473.41,304.73 474.24,304.73 475.07,302.57 475.90,302.84 476.73,301.22 477.60,303.92 478.44,304.46 479.27,304.46 480.10,304.46 480.93,303.92 481.77,304.73 482.60,304.46 483.43,304.46 484.27,303.92 485.10,304.46 485.94,304.46 486.77,304.46 487.60,297.44 488.43,303.92 489.26,304.46 490.11,304.46 490.95,300.68 491.77,303.92 492.60,289.07 493.43,303.65 494.28,302.03 495.12,302.84 496.12,302.84 496.97,304.46 497.80,304.46 498.64,303.92 499.46,304.73 500.30,303.92 501.13,303.92 501.97,303.65 502.82,304.46 503.65,303.92 504.48,304.73 505.30,304.46 506.14,304.46 506.97,303.92 507.80,304.73 508.64,304.46 509.46,304.73 510.29,304.46 511.12,304.73 511.95,304.73 512.80,303.92 513.62,304.46 514.45,304.73 515.30,304.46 516.14,304.46 516.96,304.73 517.79,304.46 518.63,303.38 519.49,303.92 520.31,304.73 521.15,304.73 521.99,303.92 522.82,303.92 523.65,304.46 524.48,303.92 525.32,303.92 526.17,304.73 527.00,303.92 527.83,304.46 528.65,303.92 529.48,304.46 530.32,304.73 531.15,303.92 531.98,304.73 532.82,304.46 533.67,304.73 534.50,298.79 535.32,303.92 536.16,303.92 536.99,304.46 537.82,304.46 538.65,303.65 539.49,303.65 540.31,304.73 541.16,303.92 541.99,303.92 542.82,235.88 543.66,236.69 544.50,236.69 545.34,236.69 546.17,236.15 547.01,232.10 547.95,227.51 548.86,228.59 549.75,222.65 550.59,236.42 551.46,236.15 552.30,235.61 553.13,236.69 553.96,236.69 554.73,236.15 555.60,235.61 556.44,236.15 557.28,236.42 558.10,233.18 558.94,236.69 559.76,236.42 560.60,236.15 561.43,235.61 562.27,235.88 563.10,236.42 563.93,236.42 564.77,236.96 565.61,236.42 566.45,235.61 567.29,236.69 568.12,236.15 568.96,236.42 569.79,242.63 570.64,255.86 571.48,236.69 572.31,235.88 573.14,236.15 573.97,236.42 574.80,235.88 575.63,236.15 576.47,236.96 577.30,236.15 578.15,236.69 578.97,236.96 579.80,236.15 580.64,236.96 581.47,236.15 582.31,236.42 583.15,234.53 583.98,236.15 584.81,236.69 585.65,236.69 586.49,235.34 587.32,236.15 588.17,236.15 589.00,235.61 589.83,236.69 590.67,236.96 591.51,235.61 592.35,232.91 593.21,234.26 594.04,236.42 594.88,236.42 595.71,236.15 596.54,236.96 597.38,236.15 598.21,236.69 599.05,236.96 599.89,234.53 600.72,236.42 601.56,236.69 602.40,236.42 603.23,236.15 604.07,236.42 604.91,235.88 605.75,236.15 606.59,236.96 607.42,235.61 608.27,235.88 609.10,235.88 609.93,236.42 610.77,236.42 611.61,236.69 612.46,236.69 613.30,236.42 614.14,235.61 614.98,236.15 615.81,236.15 616.64,235.34 617.47,236.69 618.31,235.61 619.15,236.69 619.98,235.88 620.81,236.69 621.65,232.91 622.49,235.88 623.33,236.42 624.16,235.88 624.99,235.61 625.84,236.69 626.67,235.88 627.51,236.42 628.35,236.42 629.18,236.69 630.01,236.15 630.84,235.88 631.67,236.42 632.51,235.61 633.35,201.32 634.19,236.69 635.03,236.15 635.86,236.42 636.70,236.42 637.54,235.61 638.37,230.48 639.21,235.34 640.06,283.40 640.89,236.69 641.73,230.75 642.56,236.69 643.41,224.00 644.25,236.42 645.08,236.15 645.94,235.61 646.78,235.88 647.62,236.15 648.46,236.96 649.29,230.48 650.13,235.88 650.97,236.15 651.81,235.61 652.65,243.17 653.48,296.63 654.32,236.15 655.14,235.61 656.00,236.69 656.83,229.94 657.68,229.94 658.51,236.15 659.34,236.42 660.17,236.69 661.00,235.61 661.83,236.69 662.67,236.69 663.51,236.42 664.35,236.15 665.18,236.69 666.02,236.69 666.85,236.42 667.71,231.29 668.55,236.69 669.38,236.15 670.22,236.42 671.04,235.88 671.88,235.61 672.72,235.61 673.56,236.42 674.39,236.96 675.23,236.69 676.07,236.69 676.90,235.61 677.74,235.88 678.57,235.88 679.42,236.69 680.28,236.69 681.12,235.61 681.96,236.15 682.80,283.13 683.64,236.42 684.48,236.69 685.31,235.88 686.14,236.15 686.97,235.07 687.82,236.42 688.65,236.69 689.50,236.15 690.33,237.23 691.18,236.15 692.05,236.15 692.88,236.15 693.72,236.69 694.56,236.69 695.39,236.42 696.23,236.69 697.07,236.69 697.92,235.61 698.76,236.42 699.60,235.34 700.44,236.96 701.28,235.61 702.12,236.69 702.96,236.69 703.79,236.15 704.63,236.42 705.46,236.42 706.31,296.90 707.15,236.15 707.98,235.61 708.82,236.42 709.66,236.42 710.50,236.69 711.34,236.69 712.18,236.69 713.02,236.69 713.88,235.34 714.72,235.88 715.57,233.45 716.40,236.15 717.26,236.15 718.11,235.07 718.97,234.26 719.82,234.26 720.68,235.88 721.52,290.15 722.36,236.69 723.19,236.42 724.03,236.15 724.87,236.42 725.71,235.34 726.57,236.69 727.41,236.15 728.25,236.69 729.08,235.88 729.92,236.15 730.75,236.69 731.59,236.42 732.42,236.96 733.26,231.83 734.09,236.42 734.93,236.42 735.76,236.42 736.59,236.42 737.42,236.15 738.26,236.69 739.11,236.42 739.94,232.64 740.78,235.88 741.63,237.23 742.46,236.42 743.30,235.88 744.14,236.42 744.97,283.94 745.80,236.15 746.64,236.42 747.48,236.42 748.32,236.42 749.15,290.42 749.97,236.42 750.81,236.69 751.64,236.42 752.48,236.15 753.32,236.69 754.15,235.88 754.99,234.53 755.82,235.34 756.66,236.69 757.50,236.42 758.33,236.15 759.15,236.42 759.98,235.61 760.80,236.69 761.64,236.42 762.48,235.34 763.33,235.88 764.16,236.15 765.00,235.61 765.84,236.69 766.69,236.15 767.53,235.61 768.36,236.15 769.21,235.07 770.04,236.15 770.87,235.61 771.72,236.69 772.56,236.15 773.41,235.61 774.25,290.15 775.08,236.42 775.91,236.69 776.75,236.15 777.58,235.61 778.41,236.42 779.25,236.69 780.07,235.88 780.91,235.88 781.75,235.88 782.59,236.69 783.42,236.15 784.25,236.15 785.09,236.42 785.92,235.34 786.76,235.88 787.61,236.15 788.44,236.15 789.28,235.61 790.11,236.42 790.96,236.96 791.79,235.34 792.62,236.42 793.46,236.15 794.30,236.15 795.13,235.88 795.97,236.42 796.81,233.18 797.65,236.69 798.48,235.88 799.31,236.15 800.18,236.69 801.01,236.15 801.86,235.88 802.71,232.91 803.55,236.15 804.39,283.67 805.22,236.42 806.07,235.88 806.90,234.80 807.73,235.34 808.58,236.15 809.43,234.53 810.27,236.69 811.11,236.42 811.95,236.69 812.78,236.96 813.62,235.88 814.46,236.42 815.29,236.69 816.13,235.61 816.96,236.42 817.80,236.42 818.64,236.69 819.47,236.15 820.31,236.42 821.14,236.15 821.97,235.61 822.81,236.15 823.64,235.07 824.47,236.15 825.32,236.69 826.16,231.83 826.99,235.61 827.82,285.02 828.66,236.69 829.49,236.15 830.34,236.69 831.17,231.29 832.02,283.13 832.85,236.42 833.68,234.53 834.51,235.88 835.35,236.69 836.19,236.42 837.02,229.40 837.87,236.69 838.72,235.34 839.57,235.88 840.43,236.15 841.28,235.61 842.13,236.15 842.99,236.69 843.84,236.69 844.71,236.15 845.56,229.94 846.42,236.42 847.26,236.42 848.09,235.34 848.93,230.75 849.78,236.15 850.61,236.15 851.45,236.69 852.29,236.96 853.14,235.88 853.97,235.34 854.81,236.15 855.64,235.88 856.47,235.61 857.31,236.69 858.14,235.07 858.98,231.83 859.82,236.69 860.66,235.88 861.49,236.15 862.34,236.42 863.18,236.42 864.02,232.91 864.85,236.69 865.68,235.88 866.52,236.15 867.36,231.02 868.20,290.69 869.03,236.69 869.87,232.64 870.71,243.71 871.54,236.69 872.38,236.69 873.22,235.88 874.05,236.15 874.89,235.88 875.79,235.61 876.65,234.53 877.48,236.15 878.32,235.61 879.15,262.88 880.00,230.21 880.85,236.69 881.69,230.21 882.53,236.42 883.36,235.61 884.18,236.69 885.02,236.15 885.85,236.42 886.69,236.69 887.53,233.18 888.36,236.15 889.20,236.69 890.05,236.15 890.89,236.69 891.72,236.69 892.55,236.42 893.39,235.61 894.23,236.15 895.07,236.15 895.90,236.15 896.73,235.07 897.58,236.42 898.42,231.56 899.25,236.69 900.13,235.61 900.97,236.69 901.80,235.61 902.64,235.61 903.47,235.34 904.31,236.42 905.15,236.42 906.00,236.42 906.83,296.90 907.67,236.42 908.51,236.69 909.36,249.38 910.20,236.15 911.04,236.15 911.88,235.88 912.71,236.42 913.55,236.15 914.38,232.91 915.22,235.88 916.05,236.69 916.90,235.34 917.74,236.42 918.58,236.42 919.41,235.61 920.24,236.15 921.08,236.15 921.92,236.69 922.75,236.69 923.59,236.15 924.43,235.88 925.27,236.96 926.10,235.88 926.94,236.96 927.77,236.42 928.61,235.34 929.45,236.15 930.29,232.10 931.12,236.69 931.95,236.15 932.78,297.17 933.62,236.42 934.46,236.42 935.29,236.42 936.15,236.42 936.99,230.75 937.83,236.15 938.67,236.69 939.51,235.88 940.36,236.42 941.26,236.15 942.11,231.83 942.95,235.07 943.80,234.80 944.65,235.88 945.48,270.17 946.31,236.15 947.16,236.42 947.99,243.17 948.83,236.69 949.67,235.34 950.51,236.69 951.35,236.69 952.20,236.96 953.04,236.69 953.88,236.69 954.72,235.88 955.55,236.15 956.40,236.69 957.24,236.15 958.07,234.80 958.91,236.69 959.75,236.15 960.59,236.42 961.43,236.42 962.27,235.34 963.11,236.69 963.95,236.69 964.80,236.69 965.64,236.69 966.48,236.15 967.31,235.88 968.15,236.69 969.00,236.69 969.82,236.15 970.66,236.69 971.50,291.23 972.33,235.61 973.17,236.69 974.01,236.15 974.84,236.15 975.68,235.61 976.52,235.34 977.36,236.15 978.19,236.42 979.04,236.69 979.87,236.42 980.72,235.61 981.57,236.69 982.38,236.69 983.20,236.42 984.03,236.15 984.87,236.15 985.71,236.42 986.55,236.42 987.40,236.42 988.23,236.69 989.08,235.88 989.93,235.61 990.76,236.69 991.60,236.42 992.43,236.15 993.27,236.42 994.09,234.26 994.92,235.88 995.76,233.99 996.60,235.88 997.44,235.88 998.27,235.07 999.10,236.42 999.94,236.15 1000.78,236.42 1001.62,236.42 1002.44,236.42 1003.28,289.61 1004.09,236.69 1004.95,235.61 1005.78,235.88 1006.62,236.69 1007.46,236.15 1008.31,236.69 1009.14,236.69 1009.97,236.69 1010.82,236.42 1011.65,236.69 1012.49,236.69 1013.32,236.15 1014.23,236.15 1015.06,236.15 1015.91,236.15 1016.75,236.42 1017.60,236.69 1018.42,236.15 1019.26,236.15 1020.10,235.61 1020.94,236.42 1021.77,236.69 1022.60,236.42 1023.44,236.42 1024.28,236.42 1025.13,236.15 1025.96,236.42 1026.80,236.96 1027.64,236.69 1028.48,236.42 1029.31,236.42 1030.16,235.61 1031.00,230.21 1031.84,235.07 1032.70,236.69 1033.54,236.69 1034.38,236.69 1035.22,236.69 1036.06,236.69 1036.90,236.69 1037.74,235.61 1038.57,236.42 1039.41,235.88 1040.25,304.46 1041.08,303.11 1041.92,304.46 1042.76,304.46 1043.60,304.46 1044.44,304.46 1045.28,303.65 1046.11,304.46 1046.94,304.46 1047.78,304.46 1048.62,299.60 1049.45,303.92 1050.29,304.46 1051.12,304.73 1051.95,303.92 1052.78,304.46 1053.62,304.46 1054.45,304.46 1055.28,304.46 1056.11,304.46 1056.95,304.46 1057.79,304.73 1058.61,304.46 1059.45,303.92 1060.28,302.84 1061.12,304.73 1061.96,304.46 1062.79,304.46 1063.61,303.92 1064.45,304.46 1065.30,304.46 1066.13,304.46 1066.96,304.46 1067.80,304.46 1068.68,301.22 1069.50,304.73 1070.34,303.92 1071.19,304.73 1072.03,303.92 1072.87,304.46 1073.71,304.46 1074.55,304.73 1075.38,304.73 1076.22,304.46 1077.05,304.46 1077.88,304.73 1078.72,304.46 1079.56,303.65 1080.40,304.46 1081.23,304.46 1082.06,304.46 1082.90,304.73 1083.73,304.46 1084.57,304.73 1085.41,304.73 1086.29,304.46 1087.12,301.49 1087.95,304.46 1088.78,304.46 1089.60,303.92 1090.46,304.46 1091.29,297.44 1092.13,304.46 1092.97,304.73 1093.80,304.73 1094.64,304.73 1095.48,303.38 1096.32,304.46 1097.16,304.46 1097.99,303.11 1098.83,304.73 1099.67,303.65 1100.50,304.46 1101.34,301.76 1102.17,304.46 1103.00,297.44 1103.83,304.46 1104.67,304.46 1105.50,302.84 1106.34,304.73 1107.17,304.46 1108.01,304.46 1108.85,303.11 1109.69,304.46 1110.52,304.46 1111.35,303.92 1112.19,303.92 1113.02,304.46 1113.87,303.92 1114.70,303.92 1115.54,303.92 1116.38,304.46 1117.21,303.92 1118.03,303.92 1118.87,304.46 1119.71,303.38 1120.54,304.46 1121.40,304.73 1122.23,304.46 1123.07,304.46 1123.91,304.73 1124.75,304.73 1125.58,35.00 1126.44,303.92 1127.28,304.73 1128.17,300.95 1129.01,298.25 1129.91,303.92 1130.74,304.73 1131.57,304.46 1132.40,304.73 1133.24,304.46 1134.07,304.46 1134.91,304.46 1135.75,304.46 1136.58,297.17 1137.42,304.46 1138.26,303.92 1139.09,303.65 1139.92,304.46 1140.76,304.46 1141.59,303.65 1142.43,304.46 1143.26,304.19 1144.09,304.46 1144.93,304.73 1145.77,304.46 1146.61,304.46 1147.44,299.06 1148.27,303.38 1149.11,303.92 1149.94,304.46 1150.79,304.19 1151.63,303.65 1152.46,303.65 1153.30,303.65 1154.14,303.92 1154.96,303.65 1155.80,304.46 1156.64,303.65 1157.47,303.65 1158.30,304.73 1159.13,304.46 1159.95,304.73 1160.79,303.92 1161.63,304.46 1162.46,304.46 1163.30,303.92 1164.14,304.46 1165.01,304.46 1165.85,302.30 1166.68,302.03 1167.51,304.46 1168.34,297.17 1169.17,303.92 1170.00,304.46 1170.84,303.92 1171.67,303.65 1172.50,303.65 1173.33,303.92 1174.16,303.92 1174.99,303.65 1175.83,303.92 1176.66,303.92 1177.49,303.92 1178.33,304.73 1179.17,303.92 1180.00,304.46"/>
<polyline fill="none" stroke="#d62728" stroke-opacity="0.80" stroke-width="2" points="70.00,303.38 70.83,304.19 71.67,302.57 72.50,303.38 73.33,304.19 74.18,287.72 75.00,303.38 75.84,304.19 76.74,304.19 77.57,303.38 78.39,303.38 79.22,304.19 80.07,304.19 80.90,304.19 81.72,304.19 83.22,304.19 84.51,302.57 85.35,304.19 86.21,304.19 87.04,304.19 87.87,303.38 88.68,303.38 89.52,304.19 90.36,302.57 91.19,302.57 92.03,303.38 92.88,303.38 93.72,304.19 94.55,303.38 95.43,35.00 96.27,303.38 97.10,35.00 97.95,35.00 98.78,303.38 99.62,304.19 100.48,35.00 101.30,303.38 102.13,302.57 102.98,304.19 103.80,303.38 104.64,303.38 105.46,302.57 106.29,304.19 107.13,303.38 107.95,303.38 108.80,302.57 109.65,303.38 110.47,35.00 111.30,303.38 112.14,304.19 112.97,304.19 113.92,302.57 114.76,35.00 115.59,304.19 116.41,303.38 117.24,304.19 118.07,303.38 118.89,303.38 119.73,304.19 120.56,35.00 121.41,304.19 122.24,304.19 123.06,304.19 123.90,303.38 124.74,304.19 125.57,302.57 126.41,304.19 127.23,302.57 128.06,302.57 128.88,303.38 129.71,288.80 130.54,302.57 131.37,304.19 132.20,304.19 133.03,303.38 133.87,304.19 134.69,300.14 135.53,304.19 136.35,304.19 137.18,304.19 138.03,35.00 138.86,35.00 139.70,302.57 140.53,35.00 141.36,35.00 142.20,303.38 143.03,304.19 143.85,35.00 144.67,304.19 145.51,304.19 146.35,304.19 147.18,304.19 148.02,303.38 148.84,303.38 149.68,304.19 150.51,304.19 151.34,303.38 152.16,286.91 152.99,303.38 153.82,304.19 154.66,304.19 155.49,304.19 156.32,303.38 157.16,304.19 158.00,304.19 158.84,303.38 159.67,302.57 160.50,302.57 161.33,304.19 162.15,302.57 163.00,304.19 163.83,304.19 164.66,304.19 165.49,35.00 166.32,304.19 167.16,304.19 168.00,302.57 168.84,35.00 169.67,35.00 170.51,303.38 171.34,304.19 172.17,303.38 173.00,304.19 173.84,304.19 174.74,302.57 175.57,304.19 176.41,35.00 177.24,35.00 178.07,302.57 178.89,304.19 179.71,304.19 180.54,303.38 181.37,35.00 182.20,303.38 183.03,35.00 183.86,304.19 184.69,304.19 185.52,304.19 186.37,303.38 187.19,303.38 188.02,304.19 188.85,304.19 189.68,295.28 190.51,35.00 191.35,303.38 192.18,35.00 193.02,35.00 193.85,302.57 194.68,304.19 195.51,299.33 196.33,304.19 197.16,304.19 197.99,304.19 198.83,303.38 199.67,303.38 200.50,303.38 201.33,302.57 202.17,303.38 203.01,304.19 203.83,303.38 204.67,304.19 205.50,303.38 206.35,304.19 207.19,303.38 208.02,303.38 208.85,302.57 209.68,303.38 210.50,304.19 211.33,303.38 212.17,35.00 213.00,304.19 213.82,303.38 214.65,302.57 215.49,304.19 216.32,304.19 217.16,303.38 217.99,303.38 218.84,304.19 219.67,35.00 220.50,303.38 221.33,35.00 222.15,302.57 223.06,303.38 223.91,304.19 224.73,35.00 225.56,303.38 226.38,35.00 227.22,304.19 228.05,304.19 228.88,35.00 229.72,304.19 230.55,302.57 231.37,302.57 232.21,303.38 233.06,35.00 233.89,302.57 234.71,304.19 235.54,301.76 236.38,303.38 237.23,303.38 238.08,304.19 238.91,303.38 239.74,303.38 240.57,304.19 241.40,304.19 242.24,303.38 243.07,304.19 243.91,304.19 244.74,303.38 245.57,35.00 246.41,304.19 247.24,303.38 248.07,304.19 248.90,304.19 249.75,304.19 250.58,35.00 251.41,35.00 252.23,302.57 253.06,302.57 253.89,304.19 254.72,303.38 255.55,302.57 256.38,302.57 257.21,35.00 258.04,304.19 258.87,35.00 259.71,303.38 260.54,35.00 261.39,303.38 262.22,303.38 263.06,303.38 263.89,35.00 264.72,304.19 265.55,302.57 266.38,303.38 267.22,304.19 268.07,303.38 268.90,35.00 269.74,303.38 270.57,304.19 271.40,303.38 272.23,304.19 273.06,35.00 273.89,302.57 274.72,304.19 275.56,304.19 276.39,303.38 277.22,303.38 278.06,304.19 278.89,303.38 279.72,304.19 280.56,304.19 281.40,304.19 282.23,303.38 283.06,302.57 283.90,304.19 284.74,35.00 285.58,295.28 286.41,303.38 287.24,302.57 288.16,303.38 289.00,301.76 289.83,35.00 290.66,304.19 291.51,303.38 292.34,304.19 293.17,304.19 294.01,299.33 294.83,304.19 295.69,303.38 296.54,302.57 297.36,303.38 298.19,302.57 299.03,304.19 299.86,304.19 300.69,304.19 301.56,302.57 302.39,303.38 303.22,303.38 304.06,35.00 304.96,303.38 305.79,303.38 306.84,304.19 308.25,302.57 309.10,303.38 309.95,303.38 310.78,303.38 311.60,304.19 312.42,303.38 313.27,304.19 314.10,304.19 314.94,303.38 315.81,304.19 316.67,304.19 317.55,304.19 318.39,304.19 319.22,302.57 320.05,35.00 320.90,304.19 321.74,302.57 322.58,303.38 323.41,303.38 324.24,303.38 325.11,304.19 325.94,304.19 326.77,303.38 327.60,304.19 328.45,303.38 329.31,304.19 330.15,303.38 330.98,304.19 331.84,287.18 332.64,288.53 333.46,301.76 334.31,302.57 335.14,303.38 335.99,35.00 336.85,35.00 337.68,303.38 338.51,303.38 339.35,304.19 340.20,304.19 341.03,35.00 341.86,304.19 342.68,35.00 343.52,303.38 344.36,303.38 345.18,302.57 346.18,303.38 347.16,303.38 348.14,300.95 349.11,303.38 350.06,302.57 351.02,304.19 352.00,304.19 352.97,35.00 353.81,303.38 354.63,303.38 355.46,304.19 356.29,304.19 357.13,302.57 357.95,303.38 358.78,304.19 359.61,303.38 360.44,303.38 361.27,304.19 362.10,303.38 362.93,304.19 363.76,303.38 364.58,303.38 365.41,304.19 366.24,303.38 367.08,35.00 367.90,304.19 368.73,304.19 369.57,303.38 370.39,304.19 371.22,304.19 372.05,35.00 372.88,303.38 373.71,304.19 374.54,304.19 375.37,304.19 376.20,302.57 377.04,35.00 377.87,303.38 378.70,287.72 379.53,304.19 380.35,304.19 381.18,303.38 382.00,301.76 382.82,303.38 383.65,304.19 384.48,302.57 385.31,303.38 386.13,303.38 386.96,303.38 387.79,303.38 388.61,304.19 389.44,303.38 390.25,302.57 391.11,304.19 392.01,303.38 392.84,303.38 393.68,303.38 394.50,303.38 395.33,304.19 396.16,304.19 396.98,304.19 397.81,304.19 398.79,303.38 399.77,303.38 400.73,304.19 401.71,302.57 402.69,304.19 403.66,303.38 404.65,302.57 405.66,304.19 406.57,303.38 407.46,303.38 408.29,303.38 409.13,302.57 409.97,35.00 410.79,35.00 411.62,304.19 412.45,303.38 413.28,35.00 414.11,35.00 414.93,303.38 415.77,304.19 416.60,304.19 417.43,304.19 418.27,303.38 419.10,304.19 419.92,304.19 420.65,304.19 421.51,304.19 422.34,287.72 423.19,303.38 424.02,302.57 424.85,303.38 425.69,303.38 426.53,304.19 427.36,304.19 428.20,303.38 429.04,302.57 429.89,304.19 430.71,303.38 431.54,302.57 432.37,304.19 433.19,301.76 434.02,304.19 434.84,304.19 435.68,303.38 436.51,303.38 437.35,304.19 438.18,303.38 439.00,301.76 439.84,304.19 440.67,304.19 441.51,304.19 442.34,35.00 443.17,303.38 444.00,304.19 444.84,304.19 445.68,304.19 446.53,304.19 447.36,35.00 448.18,35.00 449.02,302.57 449.84,304.19 450.67,35.00 451.51,304.19 452.33,303.38 453.16,302.57 453.99,302.57 454.82,304.19 455.65,303.38 456.48,304.19 457.32,303.38 458.15,301.76 459.16,304.19 460.01,304.19 460.86,304.19 461.70,302.57 462.53,304.19 463.38,304.19 464.20,304.19 465.03,303.38 465.87,304.19 466.71,303.38 467.53,35.00 468.37,302.57 469.21,304.19 470.04,302.57 470.90,304.19 471.74,303.38 472.58,304.19 473.41,303.38 474.24,35.00 475.07,302.57 475.90,303.38 476.73,304.19 477.60,304.19 478.44,304.19 479.27,304.19 480.10,303.38 480.93,304.19 481.77,304.19 482.60,304.19 483.43,304.19 484.27,304.19 485.10,304.19 485.94,302.57 486.77,304.19 487.60,303.38 488.43,304.19 489.26,304.19 490.11,304.19 490.95,304.19 491.77,35.00 492.60,304.19 493.43,301.76 494.28,217.79 495.12,304.19 496.12,35.00 496.97,303.38 497.80,302.57 498.64,304.19 499.46,303.38 500.30,304.19 501.13,303.38 501.97,304.19 502.82,304.19 503.65,303.38 504.48,35.00 505.30,35.00 506.14,304.19 506.97,302.57 507.80,304.19 508.64,304.19 509.46,304.19 510.29,303.38 511.12,304.19 511.95,302.57 512.80,304.19 513.62,35.00 514.45,35.00 515.30,303.38 516.14,304.19 516.96,303.38 517.79,300.95 518.63,304.19 519.49,304.19 520.31,304.19 521.15,303.38 521.99,303.38 522.82,302.57 523.65,35.00 524.48,303.38 525.32,35.00 526.17,35.00 527.00,303.38 527.83,304.19 528.65,302.57 529.48,304.19 530.32,304.19 531.15,303.38 531.98,303.38 532.82,296.09 533.67,304.19 534.50,304.19 535.32,304.19 536.16,302.57 536.99,35.00 537.82,303.38 538.65,304.19 539.49,302.57 540.31,302.57 541.16,303.38 541.99,35.00 542.82,303.38 543.66,303.38 544.50,304.19 545.34,304.19 546.17,303.38 547.01,304.19 547.95,303.38 548.86,303.38 549.75,302.57 550.59,304.19 551.46,303.38 552.30,303.38 553.13,304.19 553.96,35.00 554.73,303.38 555.60,287.18 556.44,304.19 557.28,286.37 558.10,302.57 558.94,304.19 559.76,304.19 560.60,304.19 561.43,304.19 562.27,304.19 563.10,35.00 563.93,303.38 564.77,304.19 565.61,35.00 566.45,304.19 567.29,304.19 568.12,303.38 568.96,304.19 569.79,304.19 570.64,303.38 571.48,303.38 572.31,304.19 573.14,304.19 573.97,304.19 574.80,304.19 575.63,302.57 576.47,35.00 577.30,35.00 578.15,304.19 578.97,303.38 579.80,304.19 580.64,304.19 581.47,304.19 582.31,304.19 583.15,304.19 583.98,301.76 584.81,303.38 585.65,302.57 586.49,304.19 587.32,35.00 588.17,304.19 589.00,304.19 589.83,303.38 590.67,35.00 591.51,304.19 592.35,304.19 593.21,304.19 594.04,35.00 594.88,304.19 595.71,304.19 596.54,303.38 597.38,303.38 598.21,35.00 599.05,35.00 599.89,303.38 600.72,304.19 601.56,302.57 602.40,302.57 603.23,304.19 604.07,295.28 604.91,303.38 605.75,304.19 606.59,304.19 607.42,303.38 608.27,35.00 609.10,304.19 609.93,302.57 610.77,35.00 611.61,302.57 612.46,303.38 613.30,304.19 614.14,303.38 614.98,304.19 615.81,35.00 616.64,35.00 617.47,302.57 618.31,303.38 619.15,295.28 619.98,304.19 620.81,304.19 621.65,303.38 622.49,303.38 623.33,304.19 624.16,304.19 624.99,35.00 625.84,303.38 626.67,303.38 627.51,304.19 628.35,35.00 629.18,304.19 630.01,303.38 630.84,35.00 631.67,304.19 632.51,303.38 633.35,302.57 634.19,304.19 635.03,302.57 635.86,304.19 636.70,303.38 637.54,304.19 638.37,304.19 639.21,304.19 640.06,304.19 640.89,304.19 641.73,304.19 642.56,303.38 643.41,303.38 644.25,304.19 645.08,304.19 645.94,304.19 646.78,304.19 647.62,303.38 648.46,304.19 649.29,304.19 650.13,303.38 650.97,303.38 651.81,35.00 652.65,303.38 653.48,303.38 654.32,304.19 655.14,35.00 656.00,302.57 656.83,304.19 657.68,287.18 658.51,304.19 659.34,35.00 660.17,35.00 661.00,304.19 661.83,304.19 662.67,304.19 663.51,304.19 664.35,303.38 665.18,303.38 666.02,303.38 666.85,304.19 667.71,35.00 668.55,35.00 669.38,35.00 670.22,286.37 671.04,302.57 671.88,301.76 672.72,303.38 673.56,303.38 674.39,286.37 675.23,304.19 676.07,304.19 676.90,304.19 677.74,304.19 678.57,303.38 679.42,35.00 680.28,303.38 681.12,304.19 681.96,303.38 682.80,303.38 683.64,35.00 684.48,304.19 685.31,35.00 686.14,303.38 686.97,302.57 687.82,303.38 688.65,303.38 689.50,303.38 690.33,303.38 691.18,303.38 692.05,304.19 692.88,35.00 693.72,303.38 694.56,304.19 695.39,35.00 696.23,35.00 697.07,304.19 697.92,303.38 698.76,304.19 699.60,304.19 700.44,301.76 701.28,304.19 702.12,303.38 702.96,304.19 703.79,301.76 704.63,304.19 705.46,302.57 706.31,302.57 707.15,303.38 707.98,304.19 708.82,35.00 709.66,35.00 710.50,35.00 711.34,303.38 712.18,303.38 713.02,304.19 713.88,35.00 714.72,302.57 715.57,304.19 716.40,35.00 717.26,304.19 718.11,304.19 718.97,303.38 719.82,303.38 720.68,302.57 721.52,304.19 722.36,303.38 723.19,303.38 724.03,304.19 724.87,35.00 725.71,304.19 726.57,35.00 727.41,304.19 728.25,303.38 729.08,35.00 729.92,302.57 730.75,303.38 731.59,298.52 732.42,303.38 733.26,304.19 734.09,303.38 734.93,304.19 735.76,304.19 736.59,35.00 737.42,304.19 738.26,304.19 739.11,35.00 739.94,304.19 740.78,303.38 741.63,304.19 742.46,35.00 743.30,303.38 744.14,303.38 744.97,304.19 745.80,304.19 746.64,304.19 747.48,304.19 748.32,298.52 749.15,303.38 749.97,302.57 750.81,304.19 751.64,302.57 752.48,303.38 753.32,304.19 754.15,304.19 754.99,303.38 755.82,303.38 756.66,304.19 757.50,304.19 758.33,35.00 759.15,35.00 759.98,304.19 760.80,304.19 761.64,303.38 762.48,303.38 763.33,301.76 764.16,304.19 765.00,304.19 765.84,284.75 766.69,303.38 767.53,303.38 768.36,304.19 769.21,304.19 770.04,304.19 770.87,303.38 771.72,303.38 772.56,304.19 773.41,303.38 774.25,303.38 775.08,303.38 775.91,304.19 776.75,304.19 777.58,303.38 778.41,302.57 779.25,303.38 780.07,304.19 780.91,303.38 781.75,304.19 782.59,304.19 783.42,35.00 784.25,303.38 785.09,304.19 785.92,302.57 786.76,304.19 787.61,304.19 788.44,304.19 789.28,303.38 790.11,301.76 790.96,35.00 791.79,304.19 792.62,303.38 793.46,304.19 794.30,35.00 795.13,304.19 795.97,304.19 796.81,304.19 797.65,304.19 798.48,304.19 799.31,35.00 800.18,35.00 801.01,303.38 801.86,304.19 802.71,304.19 803.55,302.57 804.39,35.00 805.22,302.57 806.07,35.00 806.90,35.00 807.73,303.38 808.58,303.38 809.43,304.19 810.27,304.19 811.11,35.00 811.95,304.19 812.78,303.38 813.62,302.57 814.46,304.19 815.29,304.19 816.13,303.38 816.96,302.57 817.80,304.19 818.64,304.19 819.47,304.19 820.31,304.19 821.14,35.00 821.97,35.00 822.81,304.19 823.64,303.38 824.47,35.00 825.32,304.19 826.16,302.57 826.99,304.19 827.82,304.19 828.66,304.19 829.49,294.47 830.34,303.38 831.17,35.00 832.02,304.19 832.85,304.19 833.68,302.57 834.51,304.19 835.35,304.19 836.19,304.19 837.02,303.38 837.87,304.19 838.72,303.38 839.57,304.19 840.43,304.19 841.28,302.57 842.13,302.57 842.99,304.19 843.84,304.19 844.71,301.76 845.56,301.76 846.42,35.00 847.26,304.19 848.09,303.38 848.93,304.19 849.78,304.19 850.61,303.38 851.45,304.19 852.29,35.00 853.14,35.00 853.97,303.38 854.81,304.19 855.64,304.19 856.47,302.57 857.31,303.38 858.14,304.19 858.98,303.38 859.82,304.19 860.66,304.19 861.49,302.57 862.34,35.00 863.18,304.19 864.02,35.00 864.85,35.00 865.68,304.19 866.52,304.19 867.36,303.38 868.20,303.38 869.03,304.19 869.87,304.19 870.71,303.38 871.54,304.19 872.38,304.19 873.22,304.19 874.05,304.19 874.89,304.19 875.79,303.38 876.65,35.00 877.48,301.76 878.32,35.00 879.15,302.57 880.00,304.19 880.85,304.19 881.69,304.19 882.53,303.38 883.36,304.19 884.18,302.57 885.02,304.19 885.85,35.00 886.69,303.38 887.53,304.19 888.36,303.38 889.20,303.38 890.05,302.57 890.89,35.00 891.72,304.19 892.55,35.00 893.39,304.19 894.23,295.28 895.07,304.19 895.90,303.38 896.73,297.71 897.58,304.19 898.42,35.00 899.25,302.57 900.13,302.57 900.97,304.19 901.80,304.19 902.64,303.38 903.47,304.19 904.31,303.38 905.15,304.19 906.00,304.19 906.83,303.38 907.67,304.19 908.51,304.19 909.36,304.19 910.20,303.38 911.04,304.19 911.88,303.38 912.71,35.00 913.55,304.19 914.38,303.38 915.22,303.38 916.05,303.38 916.90,304.19 917.74,35.00 918.58,303.38 919.41,35.00 920.24,304.19 921.08,35.00 921.92,35.00 922.75,304.19 923.59,35.00 924.43,304.19 925.27,304.19 926.10,35.00 926.94,304.19 927.77,304.19 928.61,303.38 929.45,303.38 930.29,303.38 931.12,304.19 931.95,303.38 932.78,35.00 933.62,303.38 934.46,304.19 935.29,303.38 936.15,302.57 936.99,303.38 937.83,304.19 938.67,304.19 939.51,286.91 940.36,301.76 941.26,303.38 942.11,303.38 942.95,304.19 943.80,303.38 944.65,304.19 945.48,303.38 946.31,304.19 947.16,304.19 947.99,304.19 948.83,304.19 949.67,302.57 950.51,35.00 951.35,303.38 952.20,303.38 953.04,35.00 953.88,303.38 954.72,304.19 955.55,304.19 956.40,303.38 957.24,303.38 958.07,303.38 958.91,303.38 959.75,303.38 960.59,304.19 961.43,303.38 962.27,301.76 963.11,304.19 963.95,304.19 964.80,303.38 965.64,304.19 966.48,35.00 967.31,304.19 968.15,35.00 969.00,303.38 969.82,303.38 970.66,303.38 971.50,304.19 972.33,301.76 973.17,35.00 974.01,35.00 974.84,302.57 975.68,304.19 976.52,35.00 977.36,304.19 978.19,304.19 979.04,304.19 979.87,304.19 980.72,304.19 981.57,35.00 982.38,35.00 983.20,35.00 984.03,304.19 984.87,304.19 985.71,303.38 986.55,304.19 987.40,302.57 988.23,302.57 989.08,303.38 989.93,304.19 990.76,303.38 991.60,304.19 992.43,303.38 993.27,35.00 994.09,303.38 994.92,35.00 995.76,304.19 996.60,304.19 997.44,304.19 998.27,304.19 999.10,302.57 999.94,35.00 1000.78,304.19 1001.62,303.38 1002.44,287.72 1003.28,286.10 1004.09,304.19 1004.95,35.00 1005.78,304.19 1006.62,301.76 1007.46,304.19 1008.31,35.00 1009.14,304.19 1009.97,303.38 1010.82,304.19 1011.65,304.19 1012.49,301.76 1013.32,299.33 1014.23,302.57 1015.06,304.19 1015.91,303.38 1016.75,35.00 1017.60,35.00 1018.42,303.38 1019.26,303.38 1020.10,304.19 1020.94,285.02 1021.77,304.19 1022.60,304.19 1023.44,304.19 1024.28,304.19 1025.13,303.38 1025.96,302.57 1026.80,303.38 1027.64,35.00 1028.48,35.00 1029.31,304.19 1030.16,302.57 1031.00,303.38 1031.84,35.00 1032.70,303.38 1033.54,303.38 1034.38,35.00 1035.22,304.19 1036.06,303.38 1036.90,302.57 1037.74,303.38 1038.57,304.19 1039.41,304.19 1040.25,303.38 1041.08,303.38 1041.92,35.00 1042.76,302.57 1043.60,35.00 1044.44,35.00 1045.28,304.19 1046.11,304.19 1046.94,303.38 1047.78,304.19 1048.62,303.38 1049.45,35.00 1050.29,304.19 1051.12,304.19 1051.95,35.00 1052.78,304.19 1053.62,302.57 1054.45,300.95 1055.28,35.00 1056.11,35.00 1056.95,35.00 1057.79,303.38 1058.61,303.38 1059.45,304.19 1060.28,304.19 1061.12,303.38 1061.96,302.57 1062.79,303.38 1063.61,304.19 1064.45,304.19 1065.30,304.19 1066.13,304.19 1066.96,303.38 1067.80,303.38 1068.68,303.38 1069.50,302.57 1070.34,304.19 1071.19,303.38 1072.03,304.19 1072.87,304.19 1073.71,304.19 1074.55,302.57 1075.38,304.19 1076.22,302.57 1077.05,35.00 1077.88,304.19 1078.72,303.38 1079.56,304.19 1080.40,35.00 1081.23,304.19 1082.06,303.38 1082.90,303.38 1083.73,304.19 1084.57,303.38 1085.41,35.00 1086.29,304.19 1087.12,303.38 1087.95,303.38 1088.78,303.38 1089.60,304.19 1090.46,35.00 1091.29,303.38 1092.13,303.38 1092.97,304.19 1093.80,302.57 1094.64,304.19 1095.48,304.19 1096.32,304.19 1097.16,303.38 1097.99,304.19 1098.83,303.38 1099.67,304.19 1100.50,301.76 1101.34,303.38 1102.17,304.19 1103.00,304.19 1103.83,35.00 1104.67,298.52 1105.50,303.38 1106.34,304.19 1107.17,302.57 1108.01,303.38 1108.85,304.19 1109.69,304.19 1110.52,302.57 1111.35,301.76 1112.19,35.00 1113.02,304.19 1113.87,304.19 1114.70,304.19 1115.54,304.19 1116.38,35.00 1117.21,35.00 1118.03,303.38 1118.87,35.00 1119.71,302.57 1120.54,304.19 1121.40,304.19 1122.23,304.19 1123.07,304.19 1123.91,304.19 1124.75,304.19 1125.58,302.57 1126.44,303.38 1127.28,304.19 1128.17,35.00 1129.01,304.19 1129.91,302.57 1130.74,304.19 1131.57,304.19 1132.40,302.57 1133.24,302.57 1134.07,304.19 1134.91,304.19 1135.75,303.38 1136.58,304.19 1137.42,303.38 1138.26,304.19 1139.09,303.38 1139.92,301.76 1140.76,35.00 1141.59,302.57 1142.43,303.38 1143.26,302.57 1144.09,303.38 1144.93,303.38 1145.77,303.38 1146.61,303.38 1147.44,303.38 1148.27,302.57 1149.11,304.19 1149.94,301.76 1150.79,302.57 1151.63,302.57 1152.46,302.57 1153.30,304.19 1154.14,304.19 1154.96,302.57 1155.80,35.00 1156.64,304.19 1157.47,301.76 1158.30,304.19 1159.13,303.38 1159.95,303.38 1160.79,304.19 1161.63,304.19 1162.46,303.38 1163.30,303.38 1164.14,302.57 1165.01,304.19 1165.85,304.19 1166.68,304.19 1167.51,35.00 1168.34,303.38 1169.17,302.57 1170.00,302.57 1170.84,303.38 1171.67,304.19 1172.50,303.38 1173.33,304.19 1174.16,304.19 1174.99,304.19 1175.83,302.57 1176.66,303.38 1177.49,35.00 1178.33,302.57 1179.17,35.00 1180.00,304.19"/>
<polyline fill="none" stroke="#d62728" stroke-opacity="0.65" stroke-width="2" points="70.00,35.00 70.83,304.46 71.67,304.46 72.50,302.30 73.33,304.46 74.18,303.38 75.00,304.46 75.84,304.46 76.74,35.00 77.57,304.46 78.39,304.46 79.22,303.92 80.07,303.92 80.90,304.46 81.72,304.46 83.22,303.92 84.51,304.46 85.35,35.00 86.21,303.92 87.04,302.84 87.87,304.46 88.68,303.92 89.52,302.84 90.36,35.00 91.19,303.92 92.03,35.00 92.88,35.00 93.72,35.00 94.55,303.92 95.43,35.00 96.27,303.38 97.10,303.92 97.95,304.46 98.78,35.00 99.62,35.00 100.48,304.46 101.30,35.00 102.13,304.46 102.98,35.00 103.80,304.46 104.64,303.92 105.46,35.00 106.29,304.46 107.13,304.46 107.95,293.12 108.80,35.00 109.65,304.46 110.47,304.46 111.30,304.46 112.14,35.00 112.97,304.46 113.92,304.46 114.76,304.46 115.59,35.00 116.41,35.00 117.24,304.46 118.07,304.46 118.89,303.38 119.73,303.92 120.56,304.46 121.41,35.00 122.24,304.46 123.06,304.46 123.90,35.00 124.74,304.46 125.57,303.92 126.41,304.46 127.23,304.46 128.06,35.00 128.88,303.92 129.71,303.92 130.54,304.46 131.37,303.92 132.20,303.92 133.03,35.00 133.87,303.92 134.69,304.46 135.53,304.46 136.35,303.38 137.18,35.00 138.03,304.46 138.86,303.38 139.70,304.46 140.53,35.00 141.36,304.46 142.20,304.46 143.03,303.92 143.85,303.92 144.67,303.92 145.51,304.46 146.35,303.92 147.18,304.46 148.02,303.92 148.84,35.00 149.68,303.92 150.51,303.92 151.34,304.46 152.16,304.46 152.99,303.92 153.82,303.92 154.66,35.00 155.49,35.00 156.32,303.92 157.16,35.00 158.00,304.46 158.84,304.46 159.67,304.46 160.50,304.46 161.33,303.92 162.15,304.46 163.00,303.38 163.83,304.46 164.66,303.92 165.49,35.00 166.32,304.46 167.16,303.92 168.00,303.92 168.84,303.92 169.67,304.46 170.51,35.00 171.34,304.46 172.17,304.46 173.00,35.00 173.84,303.92 174.74,304.46 175.57,303.92 176.41,304.46 177.24,304.46 178.07,303.92 178.89,303.92 179.71,304.46 180.54,304.46 181.37,304.46 182.20,303.38 183.03,304.46 183.86,35.00 184.69,303.92 185.52,35.00 186.37,304.46 187.19,35.00 188.02,35.00 188.85,303.92 189.68,303.92 190.51,304.46 191.35,304.46 192.18,304.46 193.02,303.92 193.85,304.46 194.68,304.46 195.51,303.92 196.33,35.00 197.16,304.46 197.99,35.00 198.83,303.92 199.67,304.46 200.50,304.46 201.33,35.00 202.17,35.00 203.01,35.00 203.83,304.46 204.67,303.92 205.50,304.46 206.35,303.92 207.19,303.92 208.02,304.46 208.85,304.46 209.68,304.46 210.50,304.46 211.33,304.46 212.17,304.46 213.00,304.46 213.82,282.59 214.65,304.46 215.49,303.92 216.32,304.46 217.16,304.46 217.99,304.46 218.84,303.38 219.67,304.46 220.50,304.46 221.33,303.92 222.15,304.46 223.06,303.92 223.91,304.46 224.73,304.46 225.56,304.46 226.38,304.46 227.22,304.46 228.05,303.38 228.88,304.46 229.72,304.46 230.55,304.46 231.37,303.92 232.21,35.00 233.06,304.46 233.89,303.92 234.71,303.92 235.54,303.92 236.38,35.00 237.23,304.46 238.08,304.46 238.91,35.00 239.74,303.92 240.57,35.00 241.40,35.00 242.24,304.46 243.07,304.46 243.91,35.00 244.74,35.00 245.57,304.46 246.41,304.46 247.24,303.92 248.07,303.92 248.90,304.46 249.75,304.46 250.58,304.46 251.41,303.92 252.23,304.46 253.06,304.46 253.89,303.92 254.72,303.38 255.55,304.46 256.38,35.00 257.21,304.46 258.04,35.00 258.87,35.00 259.71,303.92 260.54,303.92 261.39,304.46 262.22,304.46 263.06,304.46 263.89,303.92 264.72,297.98 265.55,35.00 266.38,304.46 267.22,303.92 268.07,304.46 268.90,303.92 269.74,35.00 270.57,303.92 271.40,304.46 272.23,35.00 273.06,303.92 273.89,304.46 274.72,304.46 275.56,35.00 276.39,303.92 277.22,303.92 278.06,35.00 278.89,303.92 279.72,303.92 280.56,35.00 281.40,303.92 282.23,304.46 283.06,303.92 283.90,304.46 284.74,303.92 285.58,35.00 286.41,304.46 287.24,35.00 288.16,35.00 289.00,303.92 289.83,303.38 290.66,303.38 291.51,303.38 292.34,35.00 293.17,304.46 294.01,304.46 294.83,304.46 295.69,35.00 296.54,304.46 297.36,304.46 298.19,304.46 299.03,35.00 299.86,304.46 300.69,304.46 301.56,293.66 302.39,303.92 303.22,304.46 304.06,303.92 304.96,304.46 305.79,35.00 306.84,304.46 308.25,304.46 309.10,304.46 309.95,304.46 310.78,35.00 311.60,304.46 312.42,304.46 313.27,303.92 314.10,35.00 314.94,304.46 315.81,35.00 316.67,303.38 317.55,304.46 318.39,304.46 319.22,35.00 320.05,35.00 320.90,304.46 321.74,35.00 322.58,304.46 323.41,304.46 324.24,304.46 325.11,35.00 325.94,303.92 326.77,35.00 327.60,304.46 328.45,304.46 329.31,297.98 330.15,304.46 330.98,35.00 331.84,293.12 332.64,35.00 333.46,303.92 334.31,35.00 335.14,304.46 335.99,304.46 336.85,303.92 337.68,304.46 338.51,304.46 339.35,303.92 340.20,303.92 341.03,304.46 341.86,303.92 342.68,35.00 343.52,304.46 344.36,304.46 345.18,304.46 346.18,304.46 347.16,303.92 348.14,304.46 349.11,304.46 350.06,303.38 351.02,303.92 352.00,303.92 352.97,304.46 353.81,35.00 354.63,35.00 355.46,304.46 356.29,304.46 357.13,303.92 357.95,304.46 358.78,303.92 359.61,35.00 360.44,304.46 361.27,304.46 362.10,304.46 362.93,304.46 363.76,293.12 364.58,304.46 365.41,35.00 366.24,303.92 367.08,303.92 367.90,304.46 368.73,304.46 369.57,35.00 370.39,303.92 371.22,304.46 372.05,304.46 372.88,304.46 373.71,35.00 374.54,297.98 375.37,303.92 376.20,303.38 377.04,304.46 377.87,35.00 378.70,302.84 379.53,303.92 380.35,35.00 381.18,35.00 382.00,303.92 382.82,302.84 383.65,304.46 384.48,303.38 385.31,35.00 386.13,304.46 386.96,304.46 387.79,304.46 388.61,303.92 389.44,304.46 390.25,35.00 391.11,304.46 392.01,303.92 392.84,35.00 393.68,303.92 394.50,303.92 395.33,304.46 396.16,304.46 396.98,304.46 397.81,303.92 398.79,304.46 399.77,304.46 400.73,303.92 401.71,304.46 402.69,303.92 403.66,303.92 404.65,304.46 405.66,303.92 406.57,303.92 407.46,303.92 408.29,35.00 409.13,35.00 409.97,35.00 410.79,303.92 411.62,304.46 412.45,304.46 413.28,304.46 414.11,304.46 414.93,304.46 415.77,35.00 416.60,304.46 417.43,303.38 418.27,35.00 419.10,35.00 419.92,303.92 420.65,282.32 421.51,282.05 422.34,304.46 423.19,35.00 424.02,303.38 424.85,304.46 425.69,35.00 426.53,35.00 427.36,35.00 428.20,303.92 429.04,304.46 429.89,304.46 430.71,303.92 431.54,35.00 432.37,303.38 433.19,303.92 434.02,304.46 434.84,303.92 435.68,304.46 436.51,304.46 437.35,304.46 438.18,304.46 439.00,304.46 439.84,303.92 440.67,303.92 441.51,303.92 442.34,304.46 443.17,304.46 444.00,35.00 444.84,35.00 445.68,304.46 446.53,304.46 447.36,304.46 448.18,303.92 449.02,35.00 449.84,303.92 450.67,35.00 451.51,303.92 452.33,304.46 453.16,35.00 453.99,304.46 454.82,35.00 455.65,304.46 456.48,303.92 457.32,304.46 458.15,302.84 459.16,303.92 460.01,303.92 460.86,304.46 461.70,304.46 462.53,303.38 463.38,303.92 464.20,299.06 465.03,35.00 465.87,304.46 466.71,303.92 467.53,304.46 468.37,35.00 469.21,303.92 470.04,303.92 470.90,304.46 471.74,303.92 472.58,35.00 473.41,304.46 474.24,35.00 475.07,303.92 475.90,35.00 476.73,303.38 477.60,304.46 478.44,304.46 479.27,35.00 480.10,304.46 480.93,304.46 481.77,304.46 482.60,303.92 483.43,35.00 484.27,303.38 485.10,304.46 485.94,304.46 486.77,35.00 487.60,304.46 488.43,35.00 489.26,304.46 490.11,304.46 490.95,291.50 491.77,303.92 492.60,304.46 493.43,304.46 494.28,303.38 495.12,303.92 496.12,303.38 496.97,303.92 497.80,35.00 498.64,35.00 499.46,304.46 500.30,303.38 501.13,304.46 501.97,35.00 502.82,303.92 503.65,304.46 504.48,35.00 505.30,303.92 506.14,35.00 506.97,304.46 507.80,304.46 508.64,35.00 509.46,304.46 510.29,304.46 511.12,35.00 511.95,304.46 512.80,304.46 513.62,304.46 514.45,303.92 515.30,35.00 516.14,304.46 516.96,304.46 517.79,35.00 518.63,304.46 519.49,303.38 520.31,35.00 521.15,304.46 521.99,304.46 522.82,303.92 523.65,304.46 524.48,304.46 525.32,304.46 526.17,304.46 527.00,304.46 527.83,304.46 528.65,303.92 529.48,304.46 530.32,303.92 531.15,304.46 531.98,35.00 532.82,304.46 533.67,304.46 534.50,303.92 535.32,35.00 536.16,304.46 536.99,304.46 537.82,304.46 538.65,304.46 539.49,303.92 540.31,304.46 541.16,304.46 541.99,35.00 542.82,304.46 543.66,303.92 544.50,35.00 545.34,35.00 546.17,303.92 547.01,281.24 547.95,304.46 548.86,304.46 549.75,35.00 550.59,303.92 551.46,303.92 552.30,304.46 553.13,304.46 553.96,303.92 554.73,293.12 555.60,303.92 556.44,292.58 557.28,294.20 558.10,293.12 558.94,303.92 559.76,304.46 560.60,303.92 561.43,303.38 562.27,304.46 563.10,304.46 563.93,304.46 564.77,303.92 565.61,35.00 566.45,35.00 567.29,35.00 568.12,35.00 568.96,304.46 569.79,35.00 570.64,304.46 571.48,303.92 572.31,304.46 573.14,303.92 573.97,303.92 574.80,304.46 575.63,303.92 576.47,304.46 577.30,304.46 578.15,35.00 578.97,304.46 579.80,304.46 580.64,35.00 581.47,303.92 582.31,35.00 583.15,303.92 583.98,35.00 584.81,304.46 585.65,35.00 586.49,304.46 587.32,304.46 588.17,303.92 589.00,304.46 589.83,35.00 590.67,303.92 591.51,304.46 592.35,304.46 593.21,304.46 594.04,304.46 594.88,303.92 595.71,302.84 596.54,304.46 597.38,304.46 598.21,304.46 599.05,304.46 599.89,303.92 600.72,304.46 601.56,303.38 602.40,35.00 603.23,35.00 604.07,303.38 604.91,35.00 605.75,304.46 606.59,303.92 607.42,304.46 608.27,303.92 609.10,304.46 609.93,35.00 610.77,35.00 611.61,35.00 612.46,303.92 613.30,303.92 614.14,303.92 614.98,304.46 615.81,303.92 616.64,304.46 617.47,304.46 618.31,304.46 619.15,304.46 619.98,304.46 620.81,304.46 621.65,35.00 622.49,304.46 623.33,35.00 624.16,304.46 624.99,304.46 625.84,304.46 626.67,304.46 627.51,303.92 628.35,292.58 629.18,304.46 630.01,304.46 630.84,303.92 631.67,304.46 632.51,304.46 633.35,304.46 634.19,303.92 635.03,35.00 635.86,304.46 636.70,304.46 637.54,304.46 638.37,303.92 639.21,304.46 640.06,293.66 640.89,292.04 641.73,293.66 642.56,293.12 643.41,294.20 644.25,293.12 645.08,293.12 645.94,292.58 646.78,293.12 647.62,293.39 648.46,293.12 649.29,293.12 650.13,293.12 650.97,293.12 651.81,293.66 652.65,292.58 653.48,292.58 654.32,293.66 655.14,293.12 656.00,292.58 656.83,293.12 657.68,294.20 658.51,293.12 659.34,293.12 660.17,292.58 661.00,294.20 661.83,293.66 662.67,281.51 663.51,271.25 664.35,293.66 665.18,293.66 666.02,293.12 666.85,293.12 667.71,293.66 668.55,293.12 669.38,293.66 670.22,293.66 671.04,293.66 671.88,293.12 672.72,293.66 673.56,293.12 674.39,292.04 675.23,293.12 676.07,293.12 676.90,293.12 677.74,292.58 678.57,293.12 679.42,293.12 680.28,292.58 681.12,292.58 681.96,293.12 682.80,293.12 683.64,293.39 684.48,293.12 685.31,293.66 686.14,293.12 686.97,292.58 687.82,293.66 688.65,292.58 689.50,293.12 690.33,293.66 691.18,294.20 692.05,293.66 692.88,293.66 693.72,293.12 694.56,293.12 695.39,292.04 696.23,293.12 697.07,293.66 697.92,293.12 698.76,294.20 699.60,293.66 700.44,294.20 701.28,293.12 702.12,293.66 702.96,282.05 703.79,293.66 704.63,293.66 705.46,293.66 706.31,293.12 707.15,293.12 707.98,293.12 708.82,293.12 709.66,293.66 710.50,293.66 711.34,293.66 712.18,292.58 713.02,293.66 713.88,294.20 714.72,293.12 715.57,293.12 716.40,294.20 717.26,292.58 718.11,294.20 718.97,293.12 719.82,293.66 720.68,294.20 721.52,294.20 722.36,293.12 723.19,293.66 724.03,293.66 724.87,293.12 725.71,292.58 726.57,293.66 727.41,293.12 728.25,293.12 729.08,283.13 729.92,292.58 730.75,293.66 731.59,293.66 732.42,292.58 733.26,282.05 734.09,293.12 734.93,293.12 735.76,293.12 736.59,292.58 737.42,293.66 738.26,294.20 739.11,293.12 739.94,293.66 740.78,304.46 741.63,303.92 742.46,35.00 743.30,303.92 744.14,304.46 744.97,303.92 745.80,304.46 746.64,304.46 747.48,35.00 748.32,304.46 749.15,303.92 749.97,303.92 750.81,303.92 751.64,304.46 752.48,304.46 753.32,303.38 754.15,304.46 754.99,304.46 755.82,303.92 756.66,304.46 757.50,303.92 758.33,35.00 759.15,304.46 759.98,304.46 760.80,35.00 761.64,304.46 762.48,304.46 763.33,304.46 764.16,303.92 765.00,35.00 765.84,304.46 766.69,304.46 767.53,303.92 768.36,304.46 769.21,35.00 770.04,35.00 770.87,304.46 771.72,304.46 772.56,303.92 773.41,304.46 774.25,303.92 775.08,35.00 775.91,35.00 776.75,35.00 777.58,303.38 778.41,293.12 779.25,293.12 780.07,304.46 780.91,304.46 781.75,258.83 782.59,303.92 783.42,304.46 784.25,35.00 785.09,35.00 785.92,304.46 786.76,303.38 787.61,35.00 788.44,303.92 789.28,304.46 790.11,303.92 790.96,303.92 791.79,304.46 792.62,304.46 793.46,304.46 794.30,304.46 795.13,304.46 795.97,35.00 796.81,297.44 797.65,35.00 798.48,303.92 799.31,35.00 800.18,304.46 801.01,304.46 801.86,304.46 802.71,304.46 803.55,304.46 804.39,303.92 805.22,303.92 806.07,303.92 806.90,35.00 807.73,304.46 808.58,304.46 809.43,303.92 810.27,304.46 811.11,35.00 811.95,304.46 812.78,35.00 813.62,304.46 814.46,302.84 815.29,35.00 816.13,303.92 816.96,304.46 817.80,304.46 818.64,303.92 819.47,304.46 820.31,304.46 821.14,35.00 821.97,303.92 822.81,304.46 823.64,303.38 824.47,304.46 825.32,304.46 826.16,303.92 826.99,304.46 827.82,303.92 828.66,303.92 829.49,304.46 830.34,35.00 831.17,303.92 832.02,304.46 832.85,35.00 833.68,304.46 834.51,304.46 835.35,303.92 836.19,35.00 837.02,35.00 837.87,303.92 838.72,304.46 839.57,35.00 840.43,35.00 841.28,35.00 842.13,303.92 842.99,304.46 843.84,303.92 844.71,303.92 845.56,304.46 846.42,303.92 847.26,35.00 848.09,304.46 848.93,304.46 849.78,304.46 850.61,303.92 851.45,35.00 852.29,304.46 853.14,304.46 853.97,303.38 854.81,35.00 855.64,304.46 856.47,303.92 857.31,304.46 858.14,35.00 858.98,303.92 859.82,304.46 860.66,304.46 861.49,304.46 862.34,293.66 863.18,293.12 864.02,293.12 864.85,293.66 865.68,303.92 866.52,304.46 867.36,304.46 868.20,304.46 869.03,304.46 869.87,303.92 870.71,304.46 871.54,304.46 872.38,304.46 873.22,304.46 874.05,303.92 874.89,35.00 875.79,35.00 876.65,303.92 877.48,302.84 878.32,303.92 879.15,303.38 880.00,304.46 880.85,303.92 881.69,303.92 882.53,304.46 883.36,303.92 884.18,304.46 885.02,304.46 885.85,303.92 886.69,303.92 887.53,304.46 888.36,304.46 889.20,304.46 890.05,303.92 890.89,35.00 891.72,35.00 892.55,304.46 893.39,303.38 894.23,304.46 895.07,304.46 895.90,304.46 896.73,304.46 897.58,35.00 898.42,303.92 899.25,35.00 900.13,35.00 900.97,303.92 901.80,304.46 902.64,303.92 903.47,304.46 904.31,304.46 905.15,304.46 906.00,304.46 906.83,303.92 907.67,303.92 908.51,304.46 909.36,35.00 910.20,303.92 911.04,303.92 911.88,303.38 912.71,304.46 913.55,35.00 914.38,304.46 915.22,304.46 916.05,304.46 916.90,303.92 917.74,303.92 918.58,303.92 919.41,304.46 920.24,304.46 921.08,304.46 921.92,304.46 922.75,304.46 923.59,304.46 924.43,303.92 925.27,304.46 926.10,304.46 926.94,35.00 927.77,304.46 928.61,304.46 929.45,304.46 930.29,304.46 931.12,35.00 931.95,303.92 932.78,303.92 933.62,303.92 934.46,35.00 935.29,303.92 936.15,303.92 936.99,35.00 937.83,304.46 938.67,248.57 939.51,259.37 940.36,269.09 941.26,293.12 942.11,282.59 942.95,270.17 943.80,282.05 944.65,35.00 945.48,304.46 946.31,304.46 947.16,303.92 947.99,304.46 948.83,304.46 949.67,304.46 950.51,303.38 951.35,304.46 952.20,304.46 953.04,304.46 953.88,304.46 954.72,304.46 955.55,304.46 956.40,303.92 957.24,303.92 958.07,35.00 958.91,303.92 959.75,304.46 960.59,303.92 961.43,35.00 962.27,35.00 963.11,35.00 963.95,303.92 964.80,304.46 965.64,304.46 966.48,35.00 967.31,35.00 968.15,35.00 969.00,35.00 969.82,35.00 970.66,304.46 971.50,304.46 972.33,304.46 973.17,304.46 974.01,304.46 974.84,303.92 975.68,35.00 976.52,35.00 977.36,304.46 978.19,304.46 979.04,304.46 979.87,303.92 980.72,304.46 981.57,35.00 982.38,304.46 983.20,303.38 984.03,304.46 984.87,304.46 985.71,303.92 986.55,304.46 987.40,304.46 988.23,303.92 989.08,303.92 989.93,304.46 990.76,303.92 991.60,303.92 992.43,304.46 993.27,304.46 994.09,35.00 994.92,303.92 995.76,303.92 996.60,304.46 997.44,35.00 998.27,304.46 999.10,303.92 999.94,293.12 1000.78,304.46 1001.62,304.46 1002.44,35.00 1003.28,286.64 1004.09,259.37 1004.95,248.84 1005.78,35.00 1006.62,35.00 1007.46,303.92 1008.31,302.84 1009.14,304.46 1009.97,304.46 1010.82,303.92 1011.65,304.46 1012.49,35.00 1013.32,304.46 1014.23,303.92 1015.06,304.46 1015.91,303.92 1016.75,304.46 1017.60,304.46 1018.42,35.00 1019.26,303.38 1020.10,304.46 1020.94,304.46 1021.77,304.46 1022.60,302.84 1023.44,298.52 1024.28,35.00 1025.13,303.92 1025.96,304.46 1026.80,303.92 1027.64,35.00 1028.48,304.46 1029.31,304.46 1030.16,304.46 1031.00,304.46 1031.84,303.92 1032.70,304.46 1033.54,304.46 1034.38,304.46 1035.22,304.46 1036.06,303.92 1036.90,303.92 1037.74,304.46 1038.57,35.00 1039.41,303.92 1040.25,303.92 1041.08,303.38 1041.92,303.92 1042.76,303.92 1043.60,303.92 1044.44,35.00 1045.28,304.46 1046.11,304.46 1046.94,304.46 1047.78,303.92 1048.62,304.46 1049.45,304.46 1050.29,304.46 1051.12,304.46 1051.95,35.00 1052.78,304.46 1053.62,304.46 1054.45,35.00 1055.28,35.00 1056.11,303.92 1056.95,304.46 1057.79,304.46 1058.61,303.92 1059.45,304.46 1060.28,304.46 1061.12,35.00 1061.96,304.46 1062.79,303.92 1063.61,35.00 1064.45,304.46 1065.30,303.92 1066.13,35.00 1066.96,304.46 1067.80,304.46 1068.68,35.00 1069.50,303.92 1070.34,35.00 1071.19,35.00 1072.03,304.46 1072.87,304.46 1073.71,304.46 1074.55,304.46 1075.38,301.76 1076.22,35.00 1077.05,304.46 1077.88,35.00 1078.72,303.92 1079.56,304.46 1080.40,304.46 1081.23,293.12 1082.06,303.92 1082.90,35.00 1083.73,303.92 1084.57,304.46 1085.41,35.00 1086.29,304.46 1087.12,35.00 1087.95,304.46 1088.78,304.46 1089.60,304.46 1090.46,35.00 1091.29,304.46 1092.13,35.00 1092.97,304.46 1093.80,303.92 1094.64,304.46 1095.48,303.92 1096.32,303.92 1097.16,35.00 1097.99,304.46 1098.83,35.00 1099.67,303.92 1100.50,304.46 1101.34,303.92 1102.17,35.00 1103.00,303.92 1103.83,303.92 1104.67,303.92 1105.50,35.00 1106.34,304.46 1107.17,35.00 1108.01,304.46 1108.85,304.46 1109.69,304.46 1110.52,303.92 1111.35,304.46 1112.19,304.46 1113.02,35.00 1113.87,304.46 1114.70,35.00 1115.54,304.46 1116.38,303.92 1117.21,303.92 1118.03,303.92 1118.87,304.46 1119.71,35.00 1120.54,304.46 1121.40,35.00 1122.23,303.92 1123.07,304.46 1123.91,35.00 1124.75,304.46 1125.58,303.92 1126.44,291.50 1127.28,35.00 1128.17,304.46 1129.01,303.92 1129.91,35.00 1130.74,300.14 1131.57,303.92 1132.40,303.92 1133.24,35.00 1134.07,303.38 1134.91,304.46 1135.75,298.52 1136.58,35.00 1137.42,35.00 1138.26,35.00 1139.09,35.00 1139.92,35.00 1140.76,35.00 1141.59,35.00 1142.43,304.46 1143.26,35.00 1144.09,303.92 1144.93,303.92 1145.77,302.30 1146.61,304.46 1147.44,35.00 1148.27,303.92 1149.11,303.38 1149.94,304.46 1150.79,303.92 1151.63,303.92 1152.46,35.00 1153.30,35.00 1154.14,304.46 1154.96,304.46 1155.80,304.46 1156.64,304.46 1157.47,304.46 1158.30,303.92 1159.13,303.92 1159.95,303.92 1160.79,304.46 1161.63,304.46 1162.46,303.92 1163.30,303.92 1164.14,303.92 1165.01,304.46 1165.85,304.46 1166.68,303.38 1167.51,304.46 1168.34,304.46 1169.17,303.92 1170.00,303.92 1170.84,304.46 1171.67,303.92 1172.50,304.46 1173.33,304.46 1174.16,304.46 1174.99,304.46 1175.83,304.46 1176.66,303.92 1177.49,303.92 1178.33,304.46 1179.17,303.92 1180.00,304.46"/>
<polyline fill="none" stroke="#d62728" stroke-opacity="0.50" stroke-width="2" points="70.00,302.84 70.83,302.84 71.67,303.92 72.50,303.92 73.33,303.92 74.18,303.38 75.00,303.92 75.84,302.57 76.74,303.38 77.57,302.84 78.39,303.92 79.22,303.38 80.07,302.84 80.90,303.38 81.72,287.18 83.22,303.38 84.51,303.38 85.35,303.38 86.21,303.92 87.04,302.84 87.87,293.12 88.68,303.38 89.52,303.38 90.36,303.38 91.19,303.38 92.03,303.38 92.88,303.38 93.72,303.92 94.55,303.38 95.43,303.92 96.27,303.92 97.10,303.38 97.95,303.38 98.78,303.38 99.62,302.03 100.48,303.38 101.30,303.92 102.13,303.92 102.98,303.38 103.80,303.92 104.64,303.92 105.46,303.92 106.29,302.84 107.13,303.92 107.95,303.38 108.80,303.92 109.65,302.84 110.47,303.92 111.30,302.84 112.14,303.38 112.97,302.84 113.92,303.38 114.76,303.92 115.59,303.38 116.41,303.92 117.24,303.38 118.07,303.38 118.89,303.92 119.73,302.30 120.56,303.92 121.41,303.92 122.24,304.46 123.06,303.92 123.90,303.92 124.74,303.92 125.57,303.38 126.41,289.61 127.23,303.92 128.06,303.38 128.88,302.84 129.71,299.87 130.54,303.92 131.37,303.92 132.20,304.46 133.03,303.92 133.87,302.03 134.69,304.46 135.53,303.38 136.35,303.38 137.18,302.84 138.03,302.57 138.86,303.92 139.70,303.92 140.53,303.92 141.36,303.38 142.20,303.38 143.03,302.84 143.85,303.38 144.67,302.84 145.51,303.92 146.35,303.38 147.18,294.20 148.02,303.38 148.84,303.38 149.68,303.92 150.51,303.92 151.34,302.57 152.16,303.38 152.99,302.84 153.82,302.84 154.66,302.57 155.49,303.92 156.32,303.92 157.16,303.92 158.00,303.92 158.84,302.84 159.67,303.92 160.50,303.92 161.33,302.84 162.15,303.92 163.00,302.84 163.83,302.84 164.66,303.92 165.49,303.92 166.32,303.92 167.16,303.92 168.00,302.57 168.84,303.92 169.67,303.92 170.51,303.38 171.34,303.38 172.17,303.92 173.00,304.46 173.84,303.92 174.74,303.92 175.57,303.38 176.41,303.92 177.24,303.92 178.07,304.46 178.89,303.38 179.71,302.84 180.54,303.92 181.37,302.84 182.20,303.92 183.03,303.38 183.86,303.38 184.69,304.46 185.52,303.38 186.37,303.92 187.19,302.57 188.02,302.03 188.85,303.92 189.68,303.92 190.51,303.38 191.35,303.38 192.18,303.92 193.02,303.38 193.85,303.38 194.68,302.84 195.51,302.57 196.33,303.38 197.16,302.03 197.99,302.03 198.83,302.03 199.67,302.84 200.50,302.03 201.33,302.84 202.17,302.84 203.01,302.57 203.83,302.03 204.67,303.92 205.50,303.38 206.35,303.92 207.19,303.92 208.02,303.38 208.85,302.84 209.68,303.92 210.50,303.92 211.33,303.92 212.17,296.90 213.00,303.38 213.82,302.84 214.65,303.92 215.49,303.92 216.32,302.84 217.16,303.92 217.99,302.84 218.84,303.92 219.67,303.92 220.50,303.38 221.33,303.92 222.15,303.92 223.06,299.33 223.91,303.38 224.73,303.92 225.56,303.38 226.38,303.92 227.22,304.46 228.05,303.92 228.88,303.38 229.72,303.92 230.55,302.84 231.37,303.38 232.21,303.38 233.06,303.92 233.89,303.92 234.71,303.92 235.54,302.84 236.38,303.92 237.23,303.38 238.08,303.92 238.91,303.92 239.74,303.38 240.57,302.84 241.40,303.38 242.24,303.38 243.07,303.92 243.91,303.92 244.74,302.84 245.57,303.92 246.41,303.38 247.24,303.92 248.07,303.92 248.90,303.38 249.75,303.92 250.58,302.30 251.41,303.92 252.23,303.38 253.06,303.92 253.89,302.84 254.72,303.92 255.55,302.84 256.38,303.92 257.21,303.92 258.04,303.92 258.87,303.92 259.71,302.84 260.54,303.92 261.39,303.92 262.22,299.87 263.06,303.92 263.89,302.84 264.72,302.84 265.55,303.92 266.38,303.92 267.22,303.92 268.07,304.46 268.90,304.46 269.74,303.38 270.57,303.38 271.40,303.38 272.23,303.92 273.06,303.92 273.89,302.84 274.72,303.92 275.56,303.92 276.39,303.38 277.22,303.38 278.06,303.92 278.89,302.57 279.72,303.92 280.56,302.84 281.40,303.92 282.23,303.92 283.06,303.38 283.90,303.92 284.74,304.46 285.58,303.38 286.41,302.84 287.24,303.38 288.16,303.92 289.00,303.38 289.83,303.92 290.66,303.92 291.51,303.38 292.34,303.38 293.17,303.38 294.01,303.38 294.83,303.92 295.69,302.84 296.54,303.92 297.36,303.92 298.19,303.92 299.03,303.92 299.86,302.84 300.69,303.38 301.56,303.38 302.39,303.92 303.22,302.84 304.06,303.92 304.96,303.92 305.79,293.39 306.84,293.12 308.25,303.92 309.10,302.84 309.95,292.58 310.78,302.03 311.60,302.84 312.42,304.46 313.27,303.92 314.10,303.92 314.94,303.92 315.81,304.46 316.67,303.92 317.55,303.92 318.39,302.84 319.22,303.38 320.05,303.38 320.90,303.92 321.74,303.38 322.58,302.84 323.41,294.74 324.24,303.38 325.11,303.92 325.94,303.92 326.77,303.92 327.60,303.92 328.45,303.38 329.31,303.92 330.15,303.38 330.98,303.92 331.84,303.38 332.64,302.57 333.46,303.92 334.31,303.92 335.14,303.92 335.99,304.46 336.85,303.38 337.68,303.38 338.51,303.38 339.35,304.46 340.20,303.92 341.03,303.92 341.86,303.38 342.68,303.92 343.52,303.92 344.36,303.92 345.18,303.92 346.18,300.41 347.16,303.92 348.14,303.38 349.11,303.92 350.06,303.92 351.02,303.92 352.00,302.84 352.97,303.92 353.81,303.92 354.63,303.92 355.46,303.38 356.29,302.84 357.13,302.84 357.95,303.92 358.78,303.92 359.61,303.38 360.44,304.46 361.27,304.46 362.10,303.92 362.93,292.58 363.76,302.84 364.58,304.46 365.41,303.38 366.24,303.92 367.08,303.38 367.90,303.38 368.73,303.38 369.57,303.38 370.39,303.38 371.22,304.46 372.05,303.38 372.88,304.46 373.71,303.92 374.54,303.38 375.37,303.92 376.20,303.38 377.04,295.82 377.87,302.84 378.70,303.92 379.53,302.84 380.35,299.87 381.18,303.92 382.00,303.38 382.82,302.84 383.65,303.92 384.48,303.92 385.31,303.38 386.13,303.92 386.96,303.38 387.79,303.92 388.61,303.38 389.44,304.46 390.25,303.92 391.11,303.92 392.01,303.92 392.84,303.92 393.68,303.92 394.50,303.38 395.33,302.57 396.16,303.92 396.98,303.92 397.81,303.92 398.79,302.84 399.77,302.84 400.73,303.92 401.71,302.30 402.69,303.92 403.66,303.92 404.65,303.92 405.66,303.92 406.57,303.92 407.46,303.92 408.29,303.38 409.13,303.38 409.97,303.38 410.79,303.38 411.62,303.92 412.45,303.92 413.28,292.85 414.11,303.92 414.93,302.57 415.77,303.38 416.60,303.92 417.43,303.92 418.27,303.38 419.10,303.92 419.92,302.30 420.65,303.92 421.51,303.92 422.34,304.46 423.19,303.38 424.02,303.92 424.85,303.92 425.69,303.38 426.53,303.92 427.36,303.92 428.20,303.92 429.04,304.46 429.89,303.92 430.71,303.38 431.54,303.92 432.37,303.92 433.19,303.92 434.02,302.84 434.84,303.38 435.68,303.92 436.51,303.92 437.35,303.38 438.18,303.92 439.00,303.38 439.84,303.38 440.67,303.92 441.51,303.38 442.34,303.92 443.17,303.92 444.00,303.92 444.84,303.92 445.68,303.92 446.53,303.92 447.36,303.92 448.18,302.84 449.02,302.84 449.84,303.92 450.67,304.46 451.51,302.03 452.33,303.38 453.16,303.92 453.99,303.92 454.82,303.92 455.65,302.84 456.48,303.38 457.32,303.38 458.15,303.38 459.16,303.92 460.01,303.92 460.86,303.38 461.70,302.57 462.53,303.92 463.38,302.84 464.20,303.92 465.03,303.92 465.87,303.92 466.71,304.46 467.53,302.57 468.37,302.57 469.21,303.38 470.04,303.92 470.90,303.92 471.74,303.38 472.58,303.38 473.41,302.84 474.24,303.92 475.07,300.95 475.90,303.92 476.73,302.84 477.60,303.38 478.44,303.92 479.27,303.38 480.10,302.84 480.93,303.92 481.77,303.38 482.60,303.92 483.43,303.38 484.27,303.92 485.10,303.92 485.94,303.92 486.77,303.38 487.60,303.38 488.43,303.92 489.26,303.92 490.11,303.92 490.95,303.92 491.77,303.92 492.60,300.95 493.43,290.69 494.28,303.92 495.12,302.84 496.12,303.92 496.97,303.38 497.80,303.38 498.64,303.92 499.46,304.46 500.30,303.92 501.13,303.92 501.97,303.38 502.82,303.38 503.65,302.84 504.48,304.46 505.30,303.92 506.14,303.38 506.97,304.46 507.80,304.46 508.64,303.38 509.46,303.38 510.29,303.92 511.12,303.38 511.95,304.46 512.80,303.38 513.62,302.84 514.45,304.46 515.30,303.92 516.14,303.92 516.96,303.38 517.79,303.38 518.63,303.92 519.49,303.92 520.31,300.95 521.15,303.92 521.99,302.84 522.82,303.92 523.65,303.38 524.48,303.38 525.32,302.03 526.17,302.03 527.00,303.92 527.83,302.84 528.65,302.84 529.48,302.57 530.32,303.38 531.15,303.38 531.98,303.38 532.82,303.38 533.67,291.77 534.50,274.49 535.32,302.84 536.16,292.85 536.99,302.84 537.82,303.38 538.65,303.92 539.49,303.92 540.31,303.92 541.16,303.38 541.99,303.38 542.82,304.46 543.66,302.84 544.50,303.92 545.34,302.57 546.17,303.92 547.01,303.92 547.95,304.46 548.86,304.46 549.75,303.92 550.59,303.92 551.46,303.92 552.30,303.38 553.13,303.92 553.96,303.38 554.73,303.38 555.60,303.38 556.44,303.92 557.28,303.92 558.10,303.38 558.94,303.38 559.76,303.38 560.60,303.92 561.43,303.38 562.27,303.92 563.10,303.92 563.93,303.92 564.77,303.92 565.61,303.38 566.45,303.92 567.29,303.92 568.12,302.84 568.96,303.38 569.79,303.38 570.64,302.57 571.48,303.38 572.31,302.57 573.14,302.57 573.97,301.49 574.80,303.92 575.63,303.38 576.47,303.92 577.30,302.84 578.15,303.38 578.97,303.92 579.80,303.38 580.64,303.38 581.47,303.38 582.31,303.92 583.15,303.92 583.98,304.46 584.81,303.92 585.65,303.92 586.49,302.57 587.32,303.38 588.17,303.38 589.00,303.92 589.83,302.84 590.67,302.84 591.51,303.38 592.35,303.38 593.21,303.92 594.04,303.38 594.88,303.92 595.71,303.92 596.54,300.41 597.38,303.92 598.21,303.38 599.05,303.92 599.89,303.92 600.72,303.92 601.56,303.38 602.40,304.46 603.23,303.38 604.07,302.84 604.91,303.92 605.75,303.92 606.59,303.38 607.42,303.92 608.27,303.92 609.10,303.92 609.93,303.92 610.77,303.92 611.61,303.38 612.46,302.84 613.30,303.92 614.14,303.38 614.98,303.92 615.81,303.92 616.64,303.38 617.47,303.92 618.31,303.92 619.15,303.38 619.98,303.92 620.81,303.38 621.65,302.84 622.49,303.38 623.33,302.03 624.16,292.85 624.99,303.92 625.84,302.57 626.67,303.38 627.51,302.84 628.35,303.38 629.18,302.84 630.01,291.50 630.84,303.38 631.67,303.92 632.51,303.92 633.35,303.92 634.19,303.92 635.03,303.92 635.86,303.92 636.70,303.92 637.54,303.92 638.37,303.92 639.21,297.71 640.06,303.38 640.89,303.38 641.73,303.92 642.56,303.92 643.41,303.38 644.25,304.46 645.08,304.46 645.94,303.92 646.78,303.92 647.62,303.38 648.46,303.92 649.29,304.46 650.13,303.92 650.97,303.38 651.81,302.84 652.65,302.84 653.48,303.38 654.32,303.92 655.14,302.03 656.00,303.38 656.83,303.92 657.68,302.84 658.51,303.92 659.34,304.46 660.17,303.92 661.00,304.46 661.83,303.38 662.67,303.92 663.51,303.92 664.35,303.92 665.18,303.92 666.02,302.84 666.85,302.84 667.71,303.38 668.55,303.92 669.38,302.84 670.22,292.31 671.04,303.92 671.88,303.38 672.72,303.38 673.56,303.38 674.39,303.92 675.23,303.38 676.07,303.92 676.90,303.92 677.74,303.92 678.57,303.92 679.42,303.92 680.28,302.84 681.12,303.38 681.96,303.92 682.80,303.92 683.64,303.92 684.48,302.84 685.31,303.92 686.14,303.92 686.97,303.92 687.82,303.92 688.65,303.38 689.50,303.92 690.33,303.38 691.18,303.92 692.05,303.92 692.88,303.38 693.72,303.92 694.56,303.92 695.39,301.49 696.23,303.92 697.07,303.92 697.92,303.92 698.76,303.38 699.60,302.84 700.44,303.92 701.28,304.46 702.12,303.38 702.96,303.38 703.79,303.92 704.63,303.92 705.46,303.92 706.31,303.92 707.15,303.38 707.98,303.92 708.82,302.84 709.66,303.92 710.50,303.38 711.34,303.92 712.18,303.92 713.02,303.92 713.88,304.46 714.72,303.38 715.57,303.92 716.40,303.92 717.26,301.49 718.11,302.03 718.97,303.92 719.82,303.38 720.68,302.57 721.52,300.41 722.36,303.38 723.19,302.57 724.03,303.92 724.87,304.46 725.71,303.92 726.57,303.92 727.41,303.38 728.25,303.38 729.08,303.92 729.92,303.92 730.75,303.38 731.59,302.84 732.42,303.92 733.26,304.46 734.09,303.38 734.93,303.38 735.76,302.84 736.59,302.84 737.42,303.92 738.26,303.92 739.11,303.92 739.94,303.38 740.78,303.92 741.63,303.38 742.46,303.92 743.30,303.92 744.14,303.92 744.97,303.92 745.80,303.92 746.64,303.92 747.48,303.92 748.32,303.38 749.15,303.92 749.97,301.49 750.81,302.57 751.64,303.92 752.48,302.57 753.32,303.92 754.15,303.38 754.99,302.84 755.82,303.92 756.66,302.84 757.50,292.58 758.33,290.69 759.15,302.84 759.98,291.50 760.80,302.57 761.64,303.38 762.48,303.92 763.33,303.92 764.16,304.46 765.00,303.92 765.84,303.38 766.69,303.38 767.53,303.92 768.36,303.38 769.21,303.92 770.04,303.38 770.87,303.92 771.72,303.92 772.56,294.20 773.41,303.92 774.25,303.92 775.08,303.92 775.91,303.38 776.75,303.38 777.58,302.57 778.41,303.92 779.25,303.38 780.07,303.92 780.91,304.46 781.75,302.57 782.59,303.92 783.42,302.84 784.25,303.92 785.09,303.92 785.92,302.84 786.76,303.38 787.61,303.38 788.44,303.92 789.28,302.84 790.11,303.38 790.96,303.38 791.79,303.92 792.62,303.92 793.46,303.92 794.30,303.38 795.13,303.92 795.97,303.92 796.81,303.38 797.65,303.38 798.48,303.92 799.31,303.92 800.18,303.38 801.01,303.38 801.86,303.38 802.71,303.38 803.55,303.92 804.39,303.92 805.22,303.92 806.07,303.92 806.90,295.82 807.73,303.38 808.58,303.38 809.43,303.38 810.27,303.92 811.11,303.38 811.95,303.38 812.78,302.84 813.62,303.38 814.46,302.03 815.29,303.92 816.13,303.92 816.96,303.92 817.80,302.03 818.64,303.92 819.47,297.44 820.31,303.38 821.14,303.92 821.97,303.92 822.81,303.38 823.64,303.92 824.47,303.92 825.32,303.92 826.16,303.92 826.99,303.38 827.82,303.92 828.66,300.41 829.49,303.38 830.34,303.38 831.17,303.92 832.02,300.41 832.85,303.38 833.68,303.92 834.51,303.38 835.35,303.92 836.19,303.92 837.02,303.92 837.87,303.92 838.72,302.57 839.57,303.38 840.43,303.92 841.28,303.92 842.13,302.30 842.99,303.92 843.84,303.92 844.71,304.46 845.56,303.92 846.42,302.03 847.26,303.92 848.09,303.92 848.93,302.84 849.78,303.92 850.61,303.92 851.45,303.38 852.29,303.38 853.14,300.95 853.97,303.38 854.81,303.38 855.64,303.38 856.47,292.31 857.31,303.92 858.14,303.38 858.98,302.84 859.82,303.92 860.66,303.92 861.49,303.92 862.34,303.92 863.18,303.92 864.02,303.92 864.85,303.38 865.68,303.38 866.52,303.38 867.36,303.92 868.20,303.92 869.03,292.31 869.87,303.92 870.71,303.92 871.54,303.92 872.38,303.38 873.22,303.92 874.05,302.84 874.89,303.38 875.79,303.92 876.65,303.92 877.48,304.46 878.32,302.84 879.15,303.92 880.00,303.92 880.85,302.84 881.69,303.38 882.53,303.92 883.36,303.92 884.18,303.38 885.02,303.38 885.85,303.92 886.69,303.92 887.53,302.84 888.36,303.92 889.20,302.84 890.05,303.92 890.89,302.84 891.72,303.92 892.55,302.84 893.39,303.92 894.23,302.84 895.07,303.92 895.90,303.92 896.73,303.92 897.58,303.38 898.42,303.38 899.25,303.92 900.13,302.84 900.97,303.38 901.80,303.38 902.64,304.46 903.47,303.38 904.31,303.38 905.15,303.92 906.00,303.38 906.83,302.84 907.67,302.30 908.51,303.92 909.36,303.38 910.20,303.38 911.04,303.92 911.88,302.03 912.71,303.38 913.55,303.38 914.38,303.38 915.22,303.38 916.05,303.92 916.90,300.95 917.74,302.84 918.58,302.84 919.41,303.92 920.24,303.38 921.08,303.92 921.92,303.92 922.75,302.84 923.59,303.92 924.43,303.92 925.27,303.92 926.10,303.92 926.94,302.84 927.77,303.38 928.61,303.38 929.45,304.46 930.29,303.38 931.12,302.84 931.95,303.92 932.78,303.92 933.62,301.49 934.46,302.84 935.29,303.38 936.15,302.84 936.99,303.92 937.83,303.92 938.67,302.84 939.51,303.92 940.36,301.49 941.26,302.57 942.11,303.38 942.95,303.92 943.80,302.84 944.65,303.92 945.48,300.95 946.31,303.38 947.16,303.38 947.99,302.84 948.83,303.38 949.67,303.38 950.51,302.84 951.35,303.38 952.20,303.92 953.04,292.85 953.88,303.38 954.72,303.92 955.55,302.84 956.40,303.92 957.24,303.92 958.07,303.38 958.91,303.38 959.75,303.38 960.59,303.92 961.43,302.57 962.27,303.38 963.11,303.38 963.95,303.92 964.80,303.38 965.64,303.92 966.48,303.92 967.31,302.84 968.15,303.92 969.00,303.38 969.82,303.92 970.66,304.46 971.50,303.38 972.33,303.92 973.17,303.92 974.01,302.84 974.84,303.92 975.68,303.92 976.52,303.92 977.36,303.38 978.19,303.38 979.04,303.92 979.87,303.92 980.72,303.38 981.57,292.58 982.38,293.12 983.20,302.84 984.03,302.30 984.87,303.92 985.71,299.87 986.55,303.92 987.40,302.84 988.23,301.49 989.08,303.92 989.93,303.38 990.76,303.38 991.60,303.92 992.43,303.38 993.27,302.84 994.09,303.92 994.92,303.92 995.76,302.84 996.60,303.92 997.44,303.38 998.27,302.84 999.10,302.57 999.94,303.38 1000.78,302.57 1001.62,302.57 1002.44,303.38 1003.28,302.30 1004.09,303.92 1004.95,303.92 1005.78,303.38 1006.62,303.92 1007.46,303.38 1008.31,303.38 1009.14,303.38 1009.97,303.38 1010.82,303.92 1011.65,303.92 1012.49,303.92 1013.32,303.92 1014.23,302.84 1015.06,302.03 1015.91,303.38 1016.75,303.92 1017.60,303.38 1018.42,303.92 1019.26,303.38 1020.10,303.92 1020.94,302.84 1021.77,303.92 1022.60,303.92 1023.44,304.46 1024.28,303.92 1025.13,303.38 1025.96,302.57 1026.80,303.38 1027.64,302.84 1028.48,304.46 1029.31,303.92 1030.16,303.38 1031.00,302.84 1031.84,301.49 1032.70,303.38 1033.54,303.92 1034.38,303.92 1035.22,303.92 1036.06,302.03 1036.90,303.92 1037.74,303.38 1038.57,303.92 1039.41,303.38 1040.25,303.92 1041.08,303.92 1041.92,276.92 1042.76,304.46 1043.60,303.38 1044.44,303.38 1045.28,303.38 1046.11,303.92 1046.94,303.38 1047.78,301.49 1048.62,304.46 1049.45,303.92 1050.29,303.92 1051.12,303.38 1051.95,303.38 1052.78,303.92 1053.62,303.38 1054.45,302.84 1055.28,302.03 1056.11,302.84 1056.95,303.38 1057.79,303.38 1058.61,303.38 1059.45,303.92 1060.28,303.92 1061.12,304.46 1061.96,303.92 1062.79,303.38 1063.61,303.38 1064.45,303.92 1065.30,303.38 1066.13,303.92 1066.96,303.92 1067.80,304.46 1068.68,303.38 1069.50,303.92 1070.34,302.57 1071.19,303.92 1072.03,303.92 1072.87,303.38 1073.71,303.38 1074.55,303.92 1075.38,303.38 1076.22,303.92 1077.05,304.46 1077.88,303.38 1078.72,303.92 1079.56,302.84 1080.40,303.92 1081.23,303.92 1082.06,302.57 1082.90,304.46 1083.73,303.38 1084.57,302.84 1085.41,303.92 1086.29,303.92 1087.12,303.38 1087.95,303.38 1088.78,303.38 1089.60,303.92 1090.46,303.38 1091.29,303.92 1092.13,303.38 1092.97,303.38 1093.80,303.92 1094.64,303.38 1095.48,303.38 1096.32,303.92 1097.16,303.38 1097.99,302.84 1098.83,303.92 1099.67,303.38 1100.50,303.38 1101.34,303.92 1102.17,302.84 1103.00,303.92 1103.83,303.92 1104.67,303.38 1105.50,303.92 1106.34,303.92 1107.17,303.92 1108.01,303.38 1108.85,303.38 1109.69,299.87 1110.52,303.38 1111.35,304.46 1112.19,303.38 1113.02,303.38 1113.87,303.92 1114.70,303.92 1115.54,303.92 1116.38,303.38 1117.21,304.46 1118.03,303.38 1118.87,303.38 1119.71,303.92 1120.54,303.92 1121.40,303.92 1122.23,303.38 1123.07,303.38 1123.91,302.84 1124.75,303.92 1125.58,303.92 1126.44,303.92 1127.28,303.92 1128.17,303.38 1129.01,303.92 1129.91,302.84 1130.74,302.84 1131.57,304.46 1132.40,303.38 1133.24,303.92 1134.07,303.92 1134.91,302.57 1135.75,302.84 1136.58,303.92 1137.42,303.92 1138.26,303.92 1139.09,303.38 1139.92,303.38 1140.76,303.92 1141.59,303.38 1142.43,303.92 1143.26,303.38 1144.09,303.38 1144.93,302.84 1145.77,303.38 1146.61,303.38 1147.44,303.92 1148.27,300.95 1149.11,304.46 1149.94,303.92 1150.79,303.92 1151.63,303.92 1152.46,302.84 1153.30,300.68 1154.14,303.92 1154.96,303.92 1155.80,303.92 1156.64,303.38 1157.47,303.38 1158.30,302.84 1159.13,303.38 1159.95,303.92 1160.79,303.92 1161.63,303.38 1162.46,303.92 1163.30,303.92 1164.14,303.38 1165.01,303.92 1165.85,294.20 1166.68,302.84 1167.51,303.92 1168.34,303.38 1169.17,303.38 1170.00,303.92 1170.84,303.38 1171.67,302.84 1172.50,303.92 1173.33,303.38 1174.16,303.92 1174.99,302.30 1175.83,293.66 1176.66,303.38 1177.49,303.38 1178.33,302.84 1179.17,303.38 1180.00,302.84"/>
<rect x="70" y="332" width="12" height="12" fill="#d62728" fill-opacity="0.95"/>
<text x="88" y="342" font-size="11" fill="#333" font-family="Arial, Helvetica, sans-serif">nsc1.utdallas.edu</text>
<rect x="350" y="332" width="12" height="12" fill="#d62728" fill-opacity="0.80"/>
<text x="368" y="342" font-size="11" fill="#333" font-family="Arial, Helvetica, sans-serif">nsc2.utdallas.edu</text>
<rect x="630" y="332" width="12" height="12" fill="#d62728" fill-opacity="0.65"/>
<text x="648" y="342" font-size="11" fill="#333" font-family="Arial, Helvetica, sans-serif">nsc3.utdallas.edu</text>
<rect x="910" y="332" width="12" height="12" fill="#d62728" fill-opacity="0.50"/>
<text x="928" y="342" font-size="11" fill="#333" font-family="Arial, Helvetica, sans-serif">nsc4.utdallas.edu</text>
</svg>