<?xml version="1.0" encoding="UTF-8"?>
<svg xmlns="http://www.w3.org/2000/svg" width="1200" height="360" viewBox="0 0 1200 360" role="img" aria-label="CPU Utilization (%)">
<rect width="100%" height="100%" fill="#ffffff"/>
<text x="600.0" y="22" text-anchor="middle" font-size="16" font-family="Arial, Helvetica, sans-serif" font-weight="bold">CPU Utilization (%)</text>
<line x1="70" y1="35.00" x2="1180" y2="35.00" stroke="#e3e3e3" stroke-width="1"/>
<text x="62" y="39.00" text-anchor="end" font-size="11" fill="#444" font-family="Arial, Helvetica, sans-serif">100</text>
<line x1="70" y1="89.00" x2="1180" y2="89.00" stroke="#e3e3e3" stroke-width="1"/>
<text x="62" y="93.00" text-anchor="end" font-size="11" fill="#444" font-family="Arial, Helvetica, sans-serif">80</text>
<line x1="70" y1="143.00" x2="1180" y2="143.00" stroke="#e3e3e3" stroke-width="1"/>
<text x="62" y="147.00" text-anchor="end" font-size="11" fill="#444" font-family="Arial, Helvetica, sans-serif">60</text>
<line x1="70" y1="197.00" x2="1180" y2="197.00" stroke="#e3e3e3" stroke-width="1"/>
<text x="62" y="201.00" text-anchor="end" font-size="11" fill="#444" font-family="Arial, Helvetica, sans-serif">40</text>
<line x1="70" y1="251.00" x2="1180" y2="251.00" stroke="#e3e3e3" stroke-width="1"/>
<text x="62" y="255.00" text-anchor="end" font-size="11" fill="#444" font-family="Arial, Helvetica, sans-serif">20</text>
<line x1="70" y1="305.00" x2="1180" y2="305.00" stroke="#e3e3e3" stroke-width="1"/>
<text x="62" y="309.00" text-anchor="end" font-size="11" fill="#444" font-family="Arial, Helvetica, sans-serif">0</text>
<line x1="70" y1="35" x2="70" y2="305" stroke="#999"/>
<line x1="70" y1="305" x2="1180" y2="305" stroke="#999"/>
<text x="70.00" y="323" text-anchor="middle" font-size="10" fill="#444" font-family="Arial, Helvetica, sans-serif">2026-02-11 16:38</text>
<text x="347.50" y="323" text-anchor="middle" font-size="10" fill="#444" font-family="Arial, Helvetica, sans-serif">2026-02-12 05:21</text>
<text x="625.00" y="323" text-anchor="middle" font-size="10" fill="#444" font-family="Arial, Helvetica, sans-serif">2026-02-12 18:05</text>
<text x="902.50" y="323" text-anchor="middle" font-size="10" fill="#444" font-family="Arial, Helvetica, sans-serif">2026-02-13 06:49</text>
<text x="1180.00" y="323" text-anchor="middle" font-size="10" fill="#444" font-family="Arial, Helvetica, sans-serif">2026-02-13 19:33</text>
<polyline fill="none" stroke="#d62728" stroke-opacity="0.95" stroke-width="2" points="71.96,304.46 73.92,298.79 75.87,296.90 77.83,303.92 79.80,304.73 81.74,304.46 83.70,303.92 85.82,304.73 87.76,303.92 89.71,304.46 91.65,303.92 93.64,304.46 95.58,304.46 97.52,303.92 101.04,304.46 104.07,303.92 106.05,304.46 108.05,303.92 110.00,300.95 111.95,304.73 113.86,278.27 115.84,303.92 117.79,304.46 119.75,294.74 121.72,304.46 123.71,303.92 125.68,301.49 127.64,303.92 129.69,295.28 131.66,294.20 133.61,303.65 135.62,304.46 137.57,304.46 139.53,303.92 141.54,303.65 143.48,302.30 145.44,303.92 147.43,304.46 149.36,303.92 151.32,304.73 153.25,304.73 155.20,304.46 157.16,303.38 159.10,304.46 161.10,303.92 163.07,303.38 165.00,304.46 166.95,297.71 168.93,297.44 170.88,48.23 173.12,303.92 175.07,303.92 177.02,304.46 178.96,303.65 180.90,303.65 182.84,304.46 184.78,304.46 186.74,303.92 188.69,304.46 190.69,303.92 192.64,304.46 194.57,304.46 196.53,299.60 198.51,303.65 200.46,303.92 202.43,304.73 204.36,303.92 206.29,304.73 208.24,304.46 210.18,304.46 212.12,304.46 214.08,303.92 216.02,304.73 217.97,303.92 219.93,304.46 221.87,304.73 223.83,303.38 225.77,303.38 227.71,303.65 229.72,304.46 231.67,303.65 233.62,304.73 235.58,304.46 237.53,304.46 239.49,304.73 241.44,303.92 243.37,303.92 245.31,304.46 247.28,304.73 249.24,299.60 251.19,303.65 253.17,304.46 255.09,304.73 257.05,303.65 259.00,303.92 260.95,304.46 262.88,304.46 264.84,303.92 266.78,303.92 268.74,303.92 270.70,304.46 272.66,303.92 274.61,303.92 276.59,298.79 278.56,303.65 280.51,304.46 282.45,304.73 284.40,304.73 286.34,304.46 288.32,304.46 290.27,304.46 292.22,304.46 294.17,302.84 296.13,304.46 298.10,304.46 300.06,304.46 302.05,304.46 303.99,304.46 305.95,304.46 307.90,303.65 309.85,304.73 311.80,303.38 313.77,304.46 315.89,304.46 317.83,304.73 319.81,303.92 321.76,303.92 323.70,304.46 325.64,299.87 327.56,304.46 329.51,304.73 331.46,295.01 333.41,304.46 335.35,303.92 337.30,303.92 339.25,303.92 341.19,304.46 343.18,303.65 345.13,304.46 347.07,304.46 349.02,304.46 350.97,303.92 352.92,303.92 354.88,303.92 356.84,304.73 358.80,304.46 360.75,304.46 362.70,303.92 364.64,304.46 366.58,303.65 368.53,303.92 370.48,303.65 372.44,304.73 374.42,304.46 376.37,304.46 378.32,304.46 380.29,303.11 382.25,303.38 384.19,304.46 386.15,304.46 388.10,304.46 390.09,303.65 392.07,303.92 394.01,304.46 395.98,297.71 397.91,294.20 399.85,303.92 401.80,304.46 403.75,303.65 405.70,297.71 407.63,304.46 409.57,303.92 411.55,304.46 413.50,304.46 415.46,303.92 417.41,303.38 419.41,304.73 421.36,303.92 423.31,303.38 425.25,303.92 427.19,304.46 429.32,304.46 431.31,303.92 433.25,304.73 435.19,304.46 437.12,304.46 439.08,304.73 441.03,304.46 442.99,304.73 444.95,35.00 446.90,303.65 448.84,303.11 450.80,297.17 452.79,304.46 454.74,304.46 456.68,304.46 458.63,303.92 460.60,303.65 462.60,304.46 464.59,303.11 466.53,304.73 468.49,304.46 470.44,303.92 472.39,304.73 474.35,304.46 476.30,303.92 478.28,304.73 480.23,304.46 482.16,304.46 484.14,304.46 486.09,303.92 488.04,303.65 490.00,304.46 491.98,303.65 493.93,304.46 495.88,301.76 497.81,302.03 499.75,304.46 501.71,304.46 503.66,304.46 505.61,35.00 507.56,303.65 509.49,303.92 511.44,304.46 513.40,304.46 515.36,303.65 517.32,304.46 519.30,304.73 521.26,304.46 523.22,304.73 525.17,35.00 527.13,304.73 529.08,303.65 531.03,304.46 532.99,303.65 534.99,304.73 536.94,300.68 538.90,303.65 540.86,303.92 542.80,304.46 544.77,304.46 546.70,304.46 548.65,304.46 550.61,304.73 552.57,304.73 554.53,304.73 556.48,303.65 558.45,303.92 560.40,303.92 562.35,304.73 564.32,35.00 566.29,304.46 568.24,303.92 570.19,304.73 572.16,303.92 574.13,304.73 576.09,303.92 578.04,304.46 579.99,303.92 582.16,304.73 584.12,304.46 586.08,303.65 588.04,304.46 590.01,304.46 591.97,303.92 593.93,304.46 595.89,303.65 597.83,304.73 599.84,295.28 601.82,297.17 603.76,304.46 605.71,304.46 607.66,304.46 609.62,304.73 611.57,304.46 613.60,303.65 615.56,304.46 617.51,303.92 619.49,304.73 621.59,304.73 623.55,304.73 626.01,303.65 629.31,304.46 631.31,303.92 633.31,303.92 635.26,304.73 637.17,304.46 639.12,303.92 641.10,303.65 643.06,304.46 645.03,304.73 647.06,303.92 649.09,35.00 651.16,303.65 653.12,304.46 655.07,304.73 657.03,303.92 659.01,303.92 660.99,303.65 662.96,304.46 664.91,303.92 666.86,304.46 668.89,304.46 670.86,304.46 672.79,304.46 674.75,304.46 676.74,303.92 678.77,304.46 680.73,303.92 682.69,303.92 684.70,303.65 686.57,303.92 688.51,303.65 690.50,303.92 692.45,303.92 694.43,303.92 696.45,303.11 698.41,303.92 700.36,303.92 702.34,304.46 704.31,304.46 706.27,303.65 708.22,304.73 710.16,299.06 712.12,304.73 714.09,304.46 716.02,48.23 718.35,48.50 720.65,48.77 722.97,48.50 725.24,48.23 727.47,48.50 729.72,48.50 732.04,48.77 734.31,304.46 736.27,304.46 738.21,304.46 740.16,303.92 742.11,304.46 744.06,304.46 746.00,303.92 747.94,304.19 749.88,303.65 751.84,304.73 753.79,303.92 755.74,303.92 757.68,304.46 759.63,304.73 761.57,304.73 763.52,304.46 765.46,304.46 767.42,304.46 769.35,303.92 771.31,304.46 773.28,304.73 775.21,303.65 777.15,304.46 779.09,35.00 781.04,304.46 783.00,304.46 784.95,304.73 786.89,304.46 788.85,304.73 790.81,35.00 792.75,304.46 794.70,304.46 796.65,304.73 798.59,303.92 800.54,303.92 802.46,303.92 804.39,303.38 806.34,304.73 808.28,303.65 810.22,304.46 812.16,303.92 814.10,304.46 816.05,304.73 817.98,303.92 819.91,303.38 821.83,304.73 823.85,303.65 825.95,304.73 827.91,304.73 829.87,304.46 831.81,303.92 833.76,303.65 835.69,297.44 837.62,297.71 839.57,48.50 841.87,48.50 844.16,48.50 846.43,48.23 848.72,48.50 851.02,48.23 853.30,48.50 855.63,48.77 858.00,295.82 860.13,297.17 862.22,304.73 864.18,303.92 866.15,303.92 868.11,304.73 870.04,303.92 871.98,304.46 873.94,304.46 875.88,304.46 877.83,304.46 879.77,304.46 881.72,304.73 883.68,303.11 885.62,304.73 887.60,303.92 889.55,304.46 891.49,304.73 893.20,304.46 895.21,303.92 897.16,304.73 899.16,304.73 901.11,304.73 903.05,303.92 905.02,35.00 906.99,304.73 908.95,304.73 910.92,304.46 912.88,304.73 914.88,303.65 916.81,304.46 918.75,304.73 920.70,304.73 922.63,304.73 924.58,35.00 926.51,303.92 928.49,303.92 930.43,303.92 932.39,303.65 934.33,304.46 936.27,304.46 938.24,303.92 940.19,304.46 942.15,304.46 944.12,304.73 946.07,303.92 948.01,301.22 949.99,304.46 951.94,304.46 953.96,304.46 955.89,303.65 957.83,304.46 959.78,304.73 961.71,304.46 963.66,300.68 965.63,303.92 967.57,304.73 969.51,304.46 971.47,304.73 973.40,303.38 975.35,303.92 977.31,304.73 979.28,304.73 981.23,303.92 983.59,303.92 985.59,303.92 987.59,303.65 989.56,304.46 991.52,302.84 993.50,304.46 995.43,304.46 997.37,303.92 999.35,303.92 1001.31,303.11 1003.26,304.73 1005.22,304.46 1007.18,304.46 1009.13,304.46 1011.15,304.73 1013.14,304.73 1015.09,304.46 1017.05,304.73 1019.00,304.73 1020.95,302.57 1022.90,302.84 1024.85,301.22 1026.89,303.92 1028.85,304.46 1030.82,304.46 1032.77,304.46 1034.72,303.92 1036.68,304.73 1038.63,304.46 1040.58,304.46 1042.54,303.92 1044.50,304.46 1046.47,304.46 1048.42,304.46 1050.37,297.44 1052.32,303.92 1054.27,304.46 1056.26,304.46 1058.22,300.68 1060.16,303.92 1062.10,289.07 1064.06,303.65 1066.05,302.03 1068.01,302.84 1070.36,302.84 1072.37,304.46 1074.32,304.46 1076.28,303.92 1078.22,304.73 1080.18,303.92 1082.14,303.92 1084.10,303.65 1086.09,304.46 1088.04,303.92 1089.98,304.73 1091.93,304.46 1093.88,304.46 1095.83,303.92 1097.78,304.73 1099.75,304.46 1101.69,304.73 1103.64,304.46 1105.59,304.73 1107.54,304.73 1109.52,303.92 1111.46,304.46 1113.40,304.73 1115.38,304.46 1117.36,304.46 1119.30,304.73 1121.25,304.46 1123.21,303.38 1125.22,303.92 1127.16,304.73 1129.12,304.73 1131.09,303.92 1133.04,303.92 1134.99,304.46 1136.95,303.92 1138.91,303.92 1140.91,304.73 1142.86,303.92 1144.81,304.46 1146.74,303.92 1148.69,304.46 1150.65,304.73 1152.60,303.92 1154.55,304.73 1156.53,304.46 1158.51,304.73 1160.47,298.79 1162.39,303.92 1164.37,303.92 1166.31,304.46 1168.27,304.46 1170.21,303.65 1172.17,303.65 1174.12,304.73 1176.09,303.92 1178.05,303.92 1180.00,235.88"/>
<polyline fill="none" stroke="#d62728" stroke-opacity="0.80" stroke-width="2" points="70.00,303.38 71.96,304.19 73.92,302.57 75.87,303.38 77.83,304.19 79.80,287.72 81.74,303.38 83.70,304.19 85.82,304.19 87.76,303.38 89.71,303.38 91.65,304.19 93.64,304.19 95.58,304.19 97.52,304.19 101.04,304.19 104.07,302.57 106.05,304.19 108.05,304.19 110.00,304.19 111.95,303.38 113.86,303.38 115.84,304.19 117.79,302.57 119.75,302.57 121.72,303.38 123.71,303.38 125.68,304.19 127.64,303.38 129.69,35.00 131.66,303.38 133.61,35.00 135.62,35.00 137.57,303.38 139.53,304.19 141.54,35.00 143.48,303.38 145.44,302.57 147.43,304.19 149.36,303.38 151.32,303.38 153.25,302.57 155.20,304.19 157.16,303.38 159.10,303.38 161.10,302.57 163.07,303.38 165.00,35.00 166.95,303.38 168.93,304.19 170.88,304.19 173.12,302.57 175.07,35.00 177.02,304.19 178.96,303.38 180.90,304.19 182.84,303.38 184.78,303.38 186.74,304.19 188.69,35.00 190.69,304.19 192.64,304.19 194.57,304.19 196.53,303.38 198.51,304.19 200.46,302.57 202.43,304.19 204.36,302.57 206.29,302.57 208.24,303.38 210.18,288.80 212.12,302.57 214.08,304.19 216.02,304.19 217.97,303.38 219.93,304.19 221.87,300.14 223.83,304.19 225.77,304.19 227.71,304.19 229.72,35.00 231.67,35.00 233.62,302.57 235.58,35.00 237.53,35.00 239.49,303.38 241.44,304.19 243.37,35.00 245.31,304.19 247.28,304.19 249.24,304.19 251.19,304.19 253.17,303.38 255.09,303.38 257.05,304.19 259.00,304.19 260.95,303.38 262.88,286.91 264.84,303.38 266.78,304.19 268.74,304.19 270.70,304.19 272.66,303.38 274.61,304.19 276.59,304.19 278.56,303.38 280.51,302.57 282.45,302.57 284.40,304.19 286.34,302.57 288.32,304.19 290.27,304.19 292.22,304.19 294.17,35.00 296.13,304.19 298.10,304.19 300.06,302.57 302.05,35.00 303.99,35.00 305.95,303.38 307.90,304.19 309.85,303.38 311.80,304.19 313.77,304.19 315.89,302.57 317.83,304.19 319.81,35.00 321.76,35.00 323.70,302.57 325.64,304.19 327.56,304.19 329.51,303.38 331.46,35.00 333.41,303.38 335.35,35.00 337.30,304.19 339.25,304.19 341.19,304.19 343.18,303.38 345.13,303.38 347.07,304.19 349.02,304.19 350.97,295.28 352.92,35.00 354.88,303.38 356.84,35.00 358.80,35.00 360.75,302.57 362.70,304.19 364.64,299.33 366.58,304.19 368.53,304.19 370.48,304.19 372.44,303.38 374.42,303.38 376.37,303.38 378.32,302.57 380.29,303.38 382.25,304.19 384.19,303.38 386.15,304.19 388.10,303.38 390.09,304.19 392.07,303.38 394.01,303.38 395.98,302.57 397.91,303.38 399.85,304.19 401.80,303.38 403.75,35.00 405.70,304.19 407.63,303.38 409.57,302.57 411.55,304.19 413.50,304.19 415.46,303.38 417.41,303.38 419.41,304.19 421.36,35.00 423.31,303.38 425.25,35.00 427.19,302.57 429.32,303.38 431.31,304.19 433.25,35.00 435.19,303.38 437.12,35.00 439.08,304.19 441.03,304.19 442.99,35.00 444.95,304.19 446.90,302.57 448.84,302.57 450.80,303.38 452.79,35.00 454.74,302.57 456.68,304.19 458.63,301.76 460.60,303.38 462.60,303.38 464.59,304.19 466.53,303.38 468.49,303.38 470.44,304.19 472.39,304.19 474.35,303.38 476.30,304.19 478.28,304.19 480.23,303.38 482.16,35.00 484.14,304.19 486.09,303.38 488.04,304.19 490.00,304.19 491.98,304.19 493.93,35.00 495.88,35.00 497.81,302.57 499.75,302.57 501.71,304.19 503.66,303.38 505.61,302.57 507.56,302.57 509.49,35.00 511.44,304.19 513.40,35.00 515.36,303.38 517.32,35.00 519.30,303.38 521.26,303.38 523.22,303.38 525.17,35.00 527.13,304.19 529.08,302.57 531.03,303.38 532.99,304.19 534.99,303.38 536.94,35.00 538.90,303.38 540.86,304.19 542.80,303.38 544.77,304.19 546.70,35.00 548.65,302.57 550.61,304.19 552.57,304.19 554.53,303.38 556.48,303.38 558.45,304.19 560.40,303.38 562.35,304.19 564.32,304.19 566.29,304.19 568.24,303.38 570.19,302.57 572.16,304.19 574.13,35.00 576.09,295.28 578.04,303.38 579.99,302.57 582.16,303.38 584.12,301.76 586.08,35.00 588.04,304.19 590.01,303.38 591.97,304.19 593.93,304.19 595.89,299.33 597.83,304.19 599.84,303.38 601.82,302.57 603.76,303.38 605.71,302.57 607.66,304.19 609.62,304.19 611.57,304.19 613.60,302.57 615.56,303.38 617.51,303.38 619.49,35.00 621.59,303.38 623.55,303.38 626.01,304.19 629.31,302.57 631.31,303.38 633.31,303.38 635.26,303.38 637.17,304.19 639.12,303.38 641.10,304.19 643.06,304.19 645.03,303.38 647.06,304.19 649.09,304.19 651.16,304.19 653.12,304.19 655.07,302.57 657.03,35.00 659.01,304.19 660.99,302.57 662.96,303.38 664.91,303.38 666.86,303.38 668.89,304.19 670.86,304.19 672.79,303.38 674.75,304.19 676.74,303.38 678.77,304.19 680.73,303.38 682.69,304.19 684.70,287.18 686.57,288.53 688.51,301.76 690.50,302.57 692.45,303.38 694.43,35.00 696.45,35.00 698.41,303.38 700.36,303.38 702.34,304.19 704.31,304.19 706.27,35.00 708.22,304.19 710.16,35.00 712.12,303.38 714.09,303.38 716.02,302.57 718.35,303.38 720.65,303.38 722.97,300.95 725.24,303.38 727.47,302.57 729.72,304.19 732.04,304.19 734.31,35.00 736.27,303.38 738.21,303.38 740.16,304.19 742.11,304.19 744.06,302.57 746.00,303.38 747.94,304.19 749.88,303.38 751.84,303.38 753.79,304.19 755.74,303.38 757.68,304.19 759.63,303.38 761.57,303.38 763.52,304.19 765.46,303.38 767.42,35.00 769.35,304.19 771.31,304.19 773.28,303.38 775.21,304.19 777.15,304.19 779.09,35.00 781.04,303.38 783.00,304.19 784.95,304.19 786.89,304.19 788.85,302.57 790.81,35.00 792.75,303.38 794.70,287.72 796.65,304.19 798.59,304.19 800.54,303.38 802.46,301.76 804.39,303.38 806.34,304.19 808.28,302.57 810.22,303.38 812.16,303.38 814.10,303.38 816.05,303.38 817.98,304.19 819.91,303.38 821.83,302.57 823.85,304.19 825.95,303.38 827.91,303.38 829.87,303.38 831.81,303.38 833.76,304.19 835.69,304.19 837.62,304.19 839.57,304.19 841.87,303.38 844.16,303.38 846.43,304.19 848.72,302.57 851.02,304.19 853.30,303.38 855.63,302.57 858.00,304.19 860.13,303.38 862.22,303.38 864.18,303.38 866.15,302.57 868.11,35.00 870.04,35.00 871.98,304.19 873.94,303.38 875.88,35.00 877.83,35.00 879.77,303.38 881.72,304.19 883.68,304.19 885.62,304.19 887.60,303.38 889.55,304.19 891.49,304.19 893.20,304.19 895.21,304.19 897.16,287.72 899.16,303.38 901.11,302.57 903.05,303.38 905.02,303.38 906.99,304.19 908.95,304.19 910.92,303.38 912.88,302.57 914.88,304.19 916.81,303.38 918.75,302.57 920.70,304.19 922.63,301.76 924.58,304.19 926.51,304.19 928.49,303.38 930.43,303.38 932.39,304.19 934.33,303.38 936.27,301.76 938.24,304.19 940.19,304.19 942.15,304.19 944.12,35.00 946.07,303.38 948.01,304.19 949.99,304.19 951.94,304.19 953.96,304.19 955.89,35.00 957.83,35.00 959.78,302.57 961.71,304.19 963.66,35.00 965.63,304.19 967.57,303.38 969.51,302.57 971.47,302.57 973.40,304.19 975.35,303.38 977.31,304.19 979.28,303.38 981.23,301.76 983.59,304.19 985.59,304.19 987.59,304.19 989.56,302.57 991.52,304.19 993.50,304.19 995.43,304.19 997.37,303.38 999.35,304.19 1001.31,303.38 1003.26,35.00 1005.22,302.57 1007.18,304.19 1009.13,302.57 1011.15,304.19 1013.14,303.38 1015.09,304.19 1017.05,303.38 1019.00,35.00 1020.95,302.57 1022.90,303.38 1024.85,304.19 1026.89,304.19 1028.85,304.19 1030.82,304.19 1032.77,303.38 1034.72,304.19 1036.68,304.19 1038.63,304.19 1040.58,304.19 1042.54,304.19 1044.50,304.19 1046.47,302.57 1048.42,304.19 1050.37,303.38 1052.32,304.19 1054.27,304.19 1056.26,304.19 1058.22,304.19 1060.16,35.00 1062.10,304.19 1064.06,301.76 1066.05,217.79 1068.01,304.19 1070.36,35.00 1072.37,303.38 1074.32,302.57 1076.28,304.19 1078.22,303.38 1080.18,304.19 1082.14,303.38 1084.10,304.19 1086.09,304.19 1088.04,303.38 1089.98,35.00 1091.93,35.00 1093.88,304.19 1095.83,302.57 1097.78,304.19 1099.75,304.19 1101.69,304.19 1103.64,303.38 1105.59,304.19 1107.54,302.57 1109.52,304.19 1111.46,35.00 1113.40,35.00 1115.38,303.38 1117.36,304.19 1119.30,303.38 1121.25,300.95 1123.21,304.19 1125.22,304.19 1127.16,304.19 1129.12,303.38 1131.09,303.38 1133.04,302.57 1134.99,35.00 1136.95,303.38 1138.91,35.00 1140.91,35.00 1142.86,303.38 1144.81,304.19 1146.74,302.57 1148.69,304.19 1150.65,304.19 1152.60,303.38 1154.55,303.38 1156.53,296.09 1158.51,304.19 1160.47,304.19 1162.39,304.19 1164.37,302.57 1166.31,35.00 1168.27,303.38 1170.21,304.19 1172.17,302.57 1174.12,302.57 1176.09,303.38 1178.05,35.00 1180.00,303.38"/>
<polyline fill="none" stroke="#d62728" stroke-opacity="0.65" stroke-width="2" points="70.00,35.00 71.96,304.46 73.92,304.46 75.87,302.30 77.83,304.46 79.80,303.38 81.74,304.46 83.70,304.46 85.82,35.00 87.76,304.46 89.71,304.46 91.65,303.92 93.64,303.92 95.58,304.46 97.52,304.46 101.04,303.92 104.07,304.46 106.05,35.00 108.05,303.92 110.00,302.84 111.95,304.46 113.86,303.92 115.84,302.84 117.79,35.00 119.75,303.92 121.72,35.00 123.71,35.00 125.68,35.00 127.64,303.92 129.69,35.00 131.66,303.38 133.61,303.92 135.62,304.46 137.57,35.00 139.53,35.00 141.54,304.46 143.48,35.00 145.44,304.46 147.43,35.00 149.36,304.46 151.32,303.92 153.25,35.00 155.20,304.46 157.16,304.46 159.10,293.12 161.10,35.00 163.07,304.46 165.00,304.46 166.95,304.46 168.93,35.00 170.88,304.46 173.12,304.46 175.07,304.46 177.02,35.00 178.96,35.00 180.90,304.46 182.84,304.46 184.78,303.38 186.74,303.92 188.69,304.46 190.69,35.00 192.64,304.46 194.57,304.46 196.53,35.00 198.51,304.46 200.46,303.92 202.43,304.46 204.36,304.46 206.29,35.00 208.24,303.92 210.18,303.92 212.12,304.46 214.08,303.92 216.02,303.92 217.97,35.00 219.93,303.92 221.87,304.46 223.83,304.46 225.77,303.38 227.71,35.00 229.72,304.46 231.67,303.38 233.62,304.46 235.58,35.00 237.53,304.46 239.49,304.46 241.44,303.92 243.37,303.92 245.31,303.92 247.28,304.46 249.24,303.92 251.19,304.46 253.17,303.92 255.09,35.00 257.05,303.92 259.00,303.92 260.95,304.46 262.88,304.46 264.84,303.92 266.78,303.92 268.74,35.00 270.70,35.00 272.66,303.92 274.61,35.00 276.59,304.46 278.56,304.46 280.51,304.46 282.45,304.46 284.40,303.92 286.34,304.46 288.32,303.38 290.27,304.46 292.22,303.92 294.17,35.00 296.13,304.46 298.10,303.92 300.06,303.92 302.05,303.92 303.99,304.46 305.95,35.00 307.90,304.46 309.85,304.46 311.80,35.00 313.77,303.92 315.89,304.46 317.83,303.92 319.81,304.46 321.76,304.46 323.70,303.92 325.64,303.92 327.56,304.46 329.51,304.46 331.46,304.46 333.41,303.38 335.35,304.46 337.30,35.00 339.25,303.92 341.19,35.00 343.18,304.46 345.13,35.00 347.07,35.00 349.02,303.92 350.97,303.92 352.92,304.46 354.88,304.46 356.84,304.46 358.80,303.92 360.75,304.46 362.70,304.46 364.64,303.92 366.58,35.00 368.53,304.46 370.48,35.00 372.44,303.92 374.42,304.46 376.37,304.46 378.32,35.00 380.29,35.00 382.25,35.00 384.19,304.46 386.15,303.92 388.10,304.46 390.09,303.92 392.07,303.92 394.01,304.46 395.98,304.46 397.91,304.46 399.85,304.46 401.80,304.46 403.75,304.46 405.70,304.46 407.63,282.59 409.57,304.46 411.55,303.92 413.50,304.46 415.46,304.46 417.41,304.46 419.41,303.38 421.36,304.46 423.31,304.46 425.25,303.92 427.19,304.46 429.32,303.92 431.31,304.46 433.25,304.46 435.19,304.46 437.12,304.46 439.08,304.46 441.03,303.38 442.99,304.46 444.95,304.46 446.90,304.46 448.84,303.92 450.80,35.00 452.79,304.46 454.74,303.92 456.68,303.92 458.63,303.92 460.60,35.00 462.60,304.46 464.59,304.46 466.53,35.00 468.49,303.92 470.44,35.00 472.39,35.00 474.35,304.46 476.30,304.46 478.28,35.00 480.23,35.00 482.16,304.46 484.14,304.46 486.09,303.92 488.04,303.92 490.00,304.46 491.98,304.46 493.93,304.46 495.88,303.92 497.81,304.46 499.75,304.46 501.71,303.92 503.66,303.38 505.61,304.46 507.56,35.00 509.49,304.46 511.44,35.00 513.40,35.00 515.36,303.92 517.32,303.92 519.30,304.46 521.26,304.46 523.22,304.46 525.17,303.92 527.13,297.98 529.08,35.00 531.03,304.46 532.99,303.92 534.99,304.46 536.94,303.92 538.90,35.00 540.86,303.92 542.80,304.46 544.77,35.00 546.70,303.92 548.65,304.46 550.61,304.46 552.57,35.00 554.53,303.92 556.48,303.92 558.45,35.00 560.40,303.92 562.35,303.92 564.32,35.00 566.29,303.92 568.24,304.46 570.19,303.92 572.16,304.46 574.13,303.92 576.09,35.00 578.04,304.46 579.99,35.00 582.16,35.00 584.12,303.92 586.08,303.38 588.04,303.38 590.01,303.38 591.97,35.00 593.93,304.46 595.89,304.46 597.83,304.46 599.84,35.00 601.82,304.46 603.76,304.46 605.71,304.46 607.66,35.00 609.62,304.46 611.57,304.46 613.60,293.66 615.56,303.92 617.51,304.46 619.49,303.92 621.59,304.46 623.55,35.00 626.01,304.46 629.31,304.46 631.31,304.46 633.31,304.46 635.26,35.00 637.17,304.46 639.12,304.46 641.10,303.92 643.06,35.00 645.03,304.46 647.06,35.00 649.09,303.38 651.16,304.46 653.12,304.46 655.07,35.00 657.03,35.00 659.01,304.46 660.99,35.00 662.96,304.46 664.91,304.46 666.86,304.46 668.89,35.00 670.86,303.92 672.79,35.00 674.75,304.46 676.74,304.46 678.77,297.98 680.73,304.46 682.69,35.00 684.70,293.12 686.57,35.00 688.51,303.92 690.50,35.00 692.45,304.46 694.43,304.46 696.45,303.92 698.41,304.46 700.36,304.46 702.34,303.92 704.31,303.92 706.27,304.46 708.22,303.92 710.16,35.00 712.12,304.46 714.09,304.46 716.02,304.46 718.35,304.46 720.65,303.92 722.97,304.46 725.24,304.46 727.47,303.38 729.72,303.92 732.04,303.92 734.31,304.46 736.27,35.00 738.21,35.00 740.16,304.46 742.11,304.46 744.06,303.92 746.00,304.46 747.94,303.92 749.88,35.00 751.84,304.46 753.79,304.46 755.74,304.46 757.68,304.46 759.63,293.12 761.57,304.46 763.52,35.00 765.46,303.92 767.42,303.92 769.35,304.46 771.31,304.46 773.28,35.00 775.21,303.92 777.15,304.46 779.09,304.46 781.04,304.46 783.00,35.00 784.95,297.98 786.89,303.92 788.85,303.38 790.81,304.46 792.75,35.00 794.70,302.84 796.65,303.92 798.59,35.00 800.54,35.00 802.46,303.92 804.39,302.84 806.34,304.46 808.28,303.38 810.22,35.00 812.16,304.46 814.10,304.46 816.05,304.46 817.98,303.92 819.91,304.46 821.83,35.00 823.85,304.46 825.95,303.92 827.91,35.00 829.87,303.92 831.81,303.92 833.76,304.46 835.69,304.46 837.62,304.46 839.57,303.92 841.87,304.46 844.16,304.46 846.43,303.92 848.72,304.46 851.02,303.92 853.30,303.92 855.63,304.46 858.00,303.92 860.13,303.92 862.22,303.92 864.18,35.00 866.15,35.00 868.11,35.00 870.04,303.92 871.98,304.46 873.94,304.46 875.88,304.46 877.83,304.46 879.77,304.46 881.72,35.00 883.68,304.46 885.62,303.38 887.60,35.00 889.55,35.00 891.49,303.92 893.20,282.32 895.21,282.05 897.16,304.46 899.16,35.00 901.11,303.38 903.05,304.46 905.02,35.00 906.99,35.00 908.95,35.00 910.92,303.92 912.88,304.46 914.88,304.46 916.81,303.92 918.75,35.00 920.70,303.38 922.63,303.92 924.58,304.46 926.51,303.92 928.49,304.46 930.43,304.46 932.39,304.46 934.33,304.46 936.27,304.46 938.24,303.92 940.19,303.92 942.15,303.92 944.12,304.46 946.07,304.46 948.01,35.00 949.99,35.00 951.94,304.46 953.96,304.46 955.89,304.46 957.83,303.92 959.78,35.00 961.71,303.92 963.66,35.00 965.63,303.92 967.57,304.46 969.51,35.00 971.47,304.46 973.40,35.00 975.35,304.46 977.31,303.92 979.28,304.46 981.23,302.84 983.59,303.92 985.59,303.92 987.59,304.46 989.56,304.46 991.52,303.38 993.50,303.92 995.43,299.06 997.37,35.00 999.35,304.46 1001.31,303.92 1003.26,304.46 1005.22,35.00 1007.18,303.92 1009.13,303.92 1011.15,304.46 1013.14,303.92 1015.09,35.00 1017.05,304.46 1019.00,35.00 1020.95,303.92 1022.90,35.00 1024.85,303.38 1026.89,304.46 1028.85,304.46 1030.82,35.00 1032.77,304.46 1034.72,304.46 1036.68,304.46 1038.63,303.92 1040.58,35.00 1042.54,303.38 1044.50,304.46 1046.47,304.46 1048.42,35.00 1050.37,304.46 1052.32,35.00 1054.27,304.46 1056.26,304.46 1058.22,291.50 1060.16,303.92 1062.10,304.46 1064.06,304.46 1066.05,303.38 1068.01,303.92 1070.36,303.38 1072.37,303.92 1074.32,35.00 1076.28,35.00 1078.22,304.46 1080.18,303.38 1082.14,304.46 1084.10,35.00 1086.09,303.92 1088.04,304.46 1089.98,35.00 1091.93,303.92 1093.88,35.00 1095.83,304.46 1097.78,304.46 1099.75,35.00 1101.69,304.46 1103.64,304.46 1105.59,35.00 1107.54,304.46 1109.52,304.46 1111.46,304.46 1113.40,303.92 1115.38,35.00 1117.36,304.46 1119.30,304.46 1121.25,35.00 1123.21,304.46 1125.22,303.38 1127.16,35.00 1129.12,304.46 1131.09,304.46 1133.04,303.92 1134.99,304.46 1136.95,304.46 1138.91,304.46 1140.91,304.46 1142.86,304.46 1144.81,304.46 1146.74,303.92 1148.69,304.46 1150.65,303.92 1152.60,304.46 1154.55,35.00 1156.53,304.46 1158.51,304.46 1160.47,303.92 1162.39,35.00 1164.37,304.46 1166.31,304.46 1168.27,304.46 1170.21,304.46 1172.17,303.92 1174.12,304.46 1176.09,304.46 1178.05,35.00 1180.00,304.46"/>
<polyline fill="none" stroke="#d62728" stroke-opacity="0.50" stroke-width="2" points="70.00,302.84 71.96,302.84 73.92,303.92 75.87,303.92 77.83,303.92 79.80,303.38 81.74,303.92 83.70,302.57 85.82,303.38 87.76,302.84 89.71,303.92 91.65,303.38 93.64,302.84 95.58,303.38 97.52,287.18 101.04,303.38 104.07,303.38 106.05,303.38 108.05,303.92 110.00,302.84 111.95,293.12 113.86,303.38 115.84,303.38 117.79,303.38 119.75,303.38 121.72,303.38 123.71,303.38 125.68,303.92 127.64,303.38 129.69,303.92 131.66,303.92 133.61,303.38 135.62,303.38 137.57,303.38 139.53,302.03 141.54,303.38 143.48,303.92 145.44,303.92 147.43,303.38 149.36,303.92 151.32,303.92 153.25,303.92 155.20,302.84 157.16,303.92 159.10,303.38 161.10,303.92 163.07,302.84 165.00,303.92 166.95,302.84 168.93,303.38 170.88,302.84 173.12,303.38 175.07,303.92 177.02,303.38 178.96,303.92 180.90,303.38 182.84,303.38 184.78,303.92 186.74,302.30 188.69,303.92 190.69,303.92 192.64,304.46 194.57,303.92 196.53,303.92 198.51,303.92 200.46,303.38 202.43,289.61 204.36,303.92 206.29,303.38 208.24,302.84 210.18,299.87 212.12,303.92 214.08,303.92 216.02,304.46 217.97,303.92 219.93,302.03 221.87,304.46 223.83,303.38 225.77,303.38 227.71,302.84 229.72,302.57 231.67,303.92 233.62,303.92 235.58,303.92 237.53,303.38 239.49,303.38 241.44,302.84 243.37,303.38 245.31,302.84 247.28,303.92 249.24,303.38 251.19,294.20 253.17,303.38 255.09,303.38 257.05,303.92 259.00,303.92 260.95,302.57 262.88,303.38 264.84,302.84 266.78,302.84 268.74,302.57 270.70,303.92 272.66,303.92 274.61,303.92 276.59,303.92 278.56,302.84 280.51,303.92 282.45,303.92 284.40,302.84 286.34,303.92 288.32,302.84 290.27,302.84 292.22,303.92 294.17,303.92 296.13,303.92 298.10,303.92 300.06,302.57 302.05,303.92 303.99,303.92 305.95,303.38 307.90,303.38 309.85,303.92 311.80,304.46 313.77,303.92 315.89,303.92 317.83,303.38 319.81,303.92 321.76,303.92 323.70,304.46 325.64,303.38 327.56,302.84 329.51,303.92 331.46,302.84 333.41,303.92 335.35,303.38 337.30,303.38 339.25,304.46 341.19,303.38 343.18,303.92 345.13,302.57 347.07,302.03 349.02,303.92 350.97,303.92 352.92,303.38 354.88,303.38 356.84,303.92 358.80,303.38 360.75,303.38 362.70,302.84 364.64,302.57 366.58,303.38 368.53,302.03 370.48,302.03 372.44,302.03 374.42,302.84 376.37,302.03 378.32,302.84 380.29,302.84 382.25,302.57 384.19,302.03 386.15,303.92 388.10,303.38 390.09,303.92 392.07,303.92 394.01,303.38 395.98,302.84 397.91,303.92 399.85,303.92 401.80,303.92 403.75,296.90 405.70,303.38 407.63,302.84 409.57,303.92 411.55,303.92 413.50,302.84 415.46,303.92 417.41,302.84 419.41,303.92 421.36,303.92 423.31,303.38 425.25,303.92 427.19,303.92 429.32,299.33 431.31,303.38 433.25,303.92 435.19,303.38 437.12,303.92 439.08,304.46 441.03,303.92 442.99,303.38 444.95,303.92 446.90,302.84 448.84,303.38 450.80,303.38 452.79,303.92 454.74,303.92 456.68,303.92 458.63,302.84 460.60,303.92 462.60,303.38 464.59,303.92 466.53,303.92 468.49,303.38 470.44,302.84 472.39,303.38 474.35,303.38 476.30,303.92 478.28,303.92 480.23,302.84 482.16,303.92 484.14,303.38 486.09,303.92 488.04,303.92 490.00,303.38 491.98,303.92 493.93,302.30 495.88,303.92 497.81,303.38 499.75,303.92 501.71,302.84 503.66,303.92 505.61,302.84 507.56,303.92 509.49,303.92 511.44,303.92 513.40,303.92 515.36,302.84 517.32,303.92 519.30,303.92 521.26,299.87 523.22,303.92 525.17,302.84 527.13,302.84 529.08,303.92 531.03,303.92 532.99,303.92 534.99,304.46 536.94,304.46 538.90,303.38 540.86,303.38 542.80,303.38 544.77,303.92 546.70,303.92 548.65,302.84 550.61,303.92 552.57,303.92 554.53,303.38 556.48,303.38 558.45,303.92 560.40,302.57 562.35,303.92 564.32,302.84 566.29,303.92 568.24,303.92 570.19,303.38 572.16,303.92 574.13,304.46 576.09,303.38 578.04,302.84 579.99,303.38 582.16,303.92 584.12,303.38 586.08,303.92 588.04,303.92 590.01,303.38 591.97,303.38 593.93,303.38 595.89,303.38 597.83,303.92 599.84,302.84 601.82,303.92 603.76,303.92 605.71,303.92 607.66,303.92 609.62,302.84 611.57,303.38 613.60,303.38 615.56,303.92 617.51,302.84 619.49,303.92 621.59,303.92 623.55,293.39 626.01,293.12 629.31,303.92 631.31,302.84 633.31,292.58 635.26,302.03 637.17,302.84 639.12,304.46 641.10,303.92 643.06,303.92 645.03,303.92 647.06,304.46 649.09,303.92 651.16,303.92 653.12,302.84 655.07,303.38 657.03,303.38 659.01,303.92 660.99,303.38 662.96,302.84 664.91,294.74 666.86,303.38 668.89,303.92 670.86,303.92 672.79,303.92 674.75,303.92 676.74,303.38 678.77,303.92 680.73,303.38 682.69,303.92 684.70,303.38 686.57,302.57 688.51,303.92 690.50,303.92 692.45,303.92 694.43,304.46 696.45,303.38 698.41,303.38 700.36,303.38 702.34,304.46 704.31,303.92 706.27,303.92 708.22,303.38 710.16,303.92 712.12,303.92 714.09,303.92 716.02,303.92 718.35,300.41 720.65,303.92 722.97,303.38 725.24,303.92 727.47,303.92 729.72,303.92 732.04,302.84 734.31,303.92 736.27,303.92 738.21,303.92 740.16,303.38 742.11,302.84 744.06,302.84 746.00,303.92 747.94,303.92 749.88,303.38 751.84,304.46 753.79,304.46 755.74,303.92 757.68,292.58 759.63,302.84 761.57,304.46 763.52,303.38 765.46,303.92 767.42,303.38 769.35,303.38 771.31,303.38 773.28,303.38 775.21,303.38 777.15,304.46 779.09,303.38 781.04,304.46 783.00,303.92 784.95,303.38 786.89,303.92 788.85,303.38 790.81,295.82 792.75,302.84 794.70,303.92 796.65,302.84 798.59,299.87 800.54,303.92 802.46,303.38 804.39,302.84 806.34,303.92 808.28,303.92 810.22,303.38 812.16,303.92 814.10,303.38 816.05,303.92 817.98,303.38 819.91,304.46 821.83,303.92 823.85,303.92 825.95,303.92 827.91,303.92 829.87,303.92 831.81,303.38 833.76,302.57 835.69,303.92 837.62,303.92 839.57,303.92 841.87,302.84 844.16,302.84 846.43,303.92 848.72,302.30 851.02,303.92 853.30,303.92 855.63,303.92 858.00,303.92 860.13,303.92 862.22,303.92 864.18,303.38 866.15,303.38 868.11,303.38 870.04,303.38 871.98,303.92 873.94,303.92 875.88,292.85 877.83,303.92 879.77,302.57 881.72,303.38 883.68,303.92 885.62,303.92 887.60,303.38 889.55,303.92 891.49,302.30 893.20,303.92 895.21,303.92 897.16,304.46 899.16,303.38 901.11,303.92 903.05,303.92 905.02,303.38 906.99,303.92 908.95,303.92 910.92,303.92 912.88,304.46 914.88,303.92 916.81,303.38 918.75,303.92 920.70,303.92 922.63,303.92 924.58,302.84 926.51,303.38 928.49,303.92 930.43,303.92 932.39,303.38 934.33,303.92 936.27,303.38 938.24,303.38 940.19,303.92 942.15,303.38 944.12,303.92 946.07,303.92 948.01,303.92 949.99,303.92 951.94,303.92 953.96,303.92 955.89,303.92 957.83,302.84 959.78,302.84 961.71,303.92 963.66,304.46 965.63,302.03 967.57,303.38 969.51,303.92 971.47,303.92 973.40,303.92 975.35,302.84 977.31,303.38 979.28,303.38 981.23,303.38 983.59,303.92 985.59,303.92 987.59,303.38 989.56,302.57 991.52,303.92 993.50,302.84 995.43,303.92 997.37,303.92 999.35,303.92 1001.31,304.46 1003.26,302.57 1005.22,302.57 1007.18,303.38 1009.13,303.92 1011.15,303.92 1013.14,303.38 1015.09,303.38 1017.05,302.84 1019.00,303.92 1020.95,300.95 1022.90,303.92 1024.85,302.84 1026.89,303.38 1028.85,303.92 1030.82,303.38 1032.77,302.84 1034.72,303.92 1036.68,303.38 1038.63,303.92 1040.58,303.38 1042.54,303.92 1044.50,303.92 1046.47,303.92 1048.42,303.38 1050.37,303.38 1052.32,303.92 1054.27,303.92 1056.26,303.92 1058.22,303.92 1060.16,303.92 1062.10,300.95 1064.06,290.69 1066.05,303.92 1068.01,302.84 1070.36,303.92 1072.37,303.38 1074.32,303.38 1076.28,303.92 1078.22,304.46 1080.18,303.92 1082.14,303.92 1084.10,303.38 1086.09,303.38 1088.04,302.84 1089.98,304.46 1091.93,303.92 1093.88,303.38 1095.83,304.46 1097.78,304.46 1099.75,303.38 1101.69,303.38 1103.64,303.92 1105.59,303.38 1107.54,304.46 1109.52,303.38 1111.46,302.84 1113.40,304.46 1115.38,303.92 1117.36,303.92 1119.30,303.38 1121.25,303.38 1123.21,303.92 1125.22,303.92 1127.16,300.95 1129.12,303.92 1131.09,302.84 1133.04,303.92 1134.99,303.38 1136.95,303.38 1138.91,302.03 1140.91,302.03 1142.86,303.92 1144.81,302.84 1146.74,302.84 1148.69,302.57 1150.65,303.38 1152.60,303.38 1154.55,303.38 1156.53,303.38 1158.51,291.77 1160.47,274.49 1162.39,302.84 1164.37,292.85 1166.31,302.84 1168.27,303.38 1170.21,303.92 1172.17,303.92 1174.12,303.92 1176.09,303.38 1178.05,303.38 1180.00,304.46"/>
<rect x="70" y="332" width="12" height="12" fill="#d62728" fill-opacity="0.95"/>
<text x="88" y="342" font-size="11" fill="#333" font-family="Arial, Helvetica, sans-serif">nsc1.utdallas.edu</text>
<rect x="350" y="332" width="12" height="12" fill="#d62728" fill-opacity="0.80"/>
<text x="368" y="342" font-size="11" fill="#333" font-family="Arial, Helvetica, sans-serif">nsc2.utdallas.edu</text>
<rect x="630" y="332" width="12" height="12" fill="#d62728" fill-opacity="0.65"/>
<text x="648" y="342" font-size="11" fill="#333" font-family="Arial, Helvetica, sans-serif">nsc3.utdallas.edu</text>
<rect x="910" y="332" width="12" height="12" fill="#d62728" fill-opacity="0.50"/>
<text x="928" y="342" font-size="11" fill="#333" font-family="Arial, Helvetica, sans-serif">nsc4.utdallas.edu</text>
</svg>