<?xml version="1.0" encoding="UTF-8"?>
<svg xmlns="http://www.w3.org/2000/svg" width="1200" height="360" viewBox="0 0 1200 360" role="img" aria-label="CPU Utilization (%)">
<rect width="100%" height="100%" fill="#ffffff"/>
<text x="600.0" y="22" text-anchor="middle" font-size="16" font-family="Arial, Helvetica, sans-serif" font-weight="bold">CPU Utilization (%)</text>
<line x1="70" y1="35.00" x2="1180" y2="35.00" stroke="#e3e3e3" stroke-width="1"/>
<text x="62" y="39.00" text-anchor="end" font-size="11" fill="#444" font-family="Arial, Helvetica, sans-serif">100</text>
<line x1="70" y1="89.00" x2="1180" y2="89.00" stroke="#e3e3e3" stroke-width="1"/>
<text x="62" y="93.00" text-anchor="end" font-size="11" fill="#444" font-family="Arial, Helvetica, sans-serif">80</text>
<line x1="70" y1="143.00" x2="1180" y2="143.00" stroke="#e3e3e3" stroke-width="1"/>
<text x="62" y="147.00" text-anchor="end" font-size="11" fill="#444" font-family="Arial, Helvetica, sans-serif">60</text>
<line x1="70" y1="197.00" x2="1180" y2="197.00" stroke="#e3e3e3" stroke-width="1"/>
<text x="62" y="201.00" text-anchor="end" font-size="11" fill="#444" font-family="Arial, Helvetica, sans-serif">40</text>
<line x1="70" y1="251.00" x2="1180" y2="251.00" stroke="#e3e3e3" stroke-width="1"/>
<text x="62" y="255.00" text-anchor="end" font-size="11" fill="#444" font-family="Arial, Helvetica, sans-serif">20</text>
<line x1="70" y1="305.00" x2="1180" y2="305.00" stroke="#e3e3e3" stroke-width="1"/>
<text x="62" y="309.00" text-anchor="end" font-size="11" fill="#444" font-family="Arial, Helvetica, sans-serif">0</text>
<line x1="70" y1="35" x2="70" y2="305" stroke="#999"/>
<line x1="70" y1="305" x2="1180" y2="305" stroke="#999"/>
<text x="70.00" y="323" text-anchor="middle" font-size="10" fill="#444" font-family="Arial, Helvetica, sans-serif">2026-02-11 16:38</text>
<text x="347.50" y="323" text-anchor="middle" font-size="10" fill="#444" font-family="Arial, Helvetica, sans-serif">2026-02-11 23:51</text>
<text x="625.00" y="323" text-anchor="middle" font-size="10" fill="#444" font-family="Arial, Helvetica, sans-serif">2026-02-12 07:05</text>
<text x="902.50" y="323" text-anchor="middle" font-size="10" fill="#444" font-family="Arial, Helvetica, sans-serif">2026-02-12 14:19</text>
<text x="1180.00" y="323" text-anchor="middle" font-size="10" fill="#444" font-family="Arial, Helvetica, sans-serif">2026-02-12 21:33</text>
<polyline fill="none" stroke="#d62728" stroke-opacity="0.95" stroke-width="2" points="73.44,304.46 76.90,298.79 80.33,296.90 83.78,303.92 87.26,304.73 90.67,304.46 94.13,303.92 97.86,304.73 101.28,303.92 104.70,304.46 108.12,303.92 111.62,304.46 115.04,304.46 118.46,303.92 124.66,304.46 130.00,303.92 133.48,304.46 137.00,303.92 140.44,300.95 143.87,304.73 147.24,278.27 150.71,303.92 154.15,304.46 157.61,294.74 161.08,304.46 164.58,303.92 168.04,301.49 171.49,303.92 175.11,295.28 178.58,294.20 182.01,303.65 185.54,304.46 188.99,304.46 192.43,303.92 195.98,303.65 199.39,302.30 202.84,303.92 206.34,304.46 209.74,303.92 213.19,304.73 216.59,304.73 220.02,304.46 223.48,303.38 226.90,304.46 230.42,303.92 233.89,303.38 237.29,304.46 240.72,297.71 244.20,297.44 247.64,48.23 251.58,303.92 255.02,303.92 258.45,304.46 261.87,303.65 265.29,303.65 268.70,304.46 272.12,304.46 275.58,303.92 279.01,304.46 282.52,303.92 285.95,304.46 289.35,304.46 292.81,299.60 296.30,303.65 299.73,303.92 303.19,304.73 306.59,303.92 310.00,304.73 313.42,304.46 316.83,304.46 320.27,304.46 323.71,303.92 327.12,304.73 330.57,303.92 334.02,304.46 337.42,304.73 340.88,303.38 344.30,303.38 347.72,303.65 351.25,304.46 354.68,303.65 358.11,304.73 361.58,304.46 365.00,304.46 368.45,304.73 371.89,303.92 375.29,303.92 378.70,304.46 382.16,304.73 385.63,299.60 389.06,303.65 392.54,304.46 395.93,304.73 399.38,303.65 402.80,303.92 406.24,304.46 409.65,304.46 413.09,303.92 416.50,303.92 419.97,303.92 423.41,304.46 426.86,303.92 430.30,303.92 433.78,298.79 437.25,303.65 440.68,304.46 444.10,304.73 447.54,304.73 450.96,304.46 454.43,304.46 457.88,304.46 461.31,304.46 464.74,302.84 468.20,304.46 471.65,304.46 475.12,304.46 478.61,304.46 482.04,304.46 485.48,304.46 488.92,303.65 492.36,304.73 495.79,303.38 499.25,304.46 502.99,304.46 506.41,304.73 509.89,303.92 513.33,303.92 516.74,304.46 520.15,299.87 523.53,304.46 526.96,304.73 530.41,295.01 533.84,304.46 537.26,303.92 540.69,303.92 544.13,303.92 547.54,304.46 551.04,303.65 554.47,304.46 557.90,304.46 561.32,304.46 564.77,303.92 568.19,303.92 571.64,303.92 575.10,304.73 578.54,304.46 581.98,304.46 585.42,303.92 588.83,304.46 592.25,303.65 595.68,303.92 599.12,303.65 602.57,304.73 606.04,304.46 609.49,304.46 612.92,304.46 616.40,303.11 619.84,303.38 623.25,304.46 626.71,304.46 630.15,304.46 633.65,303.65 637.13,303.92 640.55,304.46 644.01,297.71 647.42,294.20 650.83,303.92 654.26,304.46 657.71,303.65 661.13,297.71 664.53,304.46 667.95,303.92 671.43,304.46 674.87,304.46 678.33,303.92 681.76,303.38 685.28,304.73 688.71,303.92 692.14,303.38 695.57,303.92 698.98,304.46 702.72,304.46 706.24,303.92 709.65,304.73 713.07,304.46 716.46,304.46 719.91,304.73 723.35,304.46 726.80,304.73 730.26,35.00 733.68,303.65 737.10,303.11 740.54,297.17 744.06,304.46 747.49,304.46 750.91,304.46 754.34,303.92 757.81,303.65 761.32,304.46 764.84,303.11 768.25,304.73 771.70,304.46 775.14,303.92 778.56,304.73 782.01,304.46 785.46,303.92 788.94,304.73 792.37,304.46 795.78,304.46 799.25,304.46 802.70,303.92 806.13,303.65 809.57,304.46 813.06,303.65 816.50,304.46 819.93,301.76 823.33,302.03 826.75,304.46 830.20,304.46 833.64,304.46 837.06,35.00 840.49,303.65 843.89,303.92 847.32,304.46 850.79,304.46 854.23,303.65 857.69,304.46 861.17,304.73 864.62,304.46 868.08,304.73 871.50,35.00 874.96,304.73 878.39,303.65 881.83,304.46 885.28,303.65 888.80,304.73 892.24,300.68 895.69,303.65 899.14,303.92 902.56,304.46 906.01,304.46 909.41,304.46 912.85,304.46 916.31,304.73 919.75,304.73 923.20,304.73 926.64,303.65 930.11,303.92 933.54,303.92 936.98,304.73 940.45,35.00 943.92,304.46 947.35,303.92 950.78,304.73 954.24,303.92 957.72,304.73 961.17,303.92 964.61,304.46 968.04,303.92 971.86,304.73 975.32,304.46 978.76,303.65 982.21,304.46 985.68,304.46 989.14,303.92 992.58,304.46 996.03,303.65 999.45,304.73 1003.00,295.28 1006.48,297.17 1009.89,304.46 1013.33,304.46 1016.77,304.46 1020.21,304.73 1023.66,304.46 1027.23,303.65 1030.67,304.46 1034.10,303.92 1037.59,304.73 1041.30,304.73 1044.74,304.73 1049.07,303.65 1054.89,304.46 1058.41,303.92 1061.93,303.92 1065.36,304.73 1068.73,304.46 1072.15,303.92 1075.65,303.65 1079.10,304.46 1082.57,304.73 1086.15,303.92 1089.71,35.00 1093.36,303.65 1096.81,304.46 1100.26,304.73 1103.70,303.92 1107.19,303.92 1110.67,303.65 1114.15,304.46 1117.57,303.92 1121.00,304.46 1124.58,304.46 1128.05,304.46 1131.45,304.46 1134.90,304.46 1138.40,303.92 1141.97,304.46 1145.44,303.92 1148.88,303.92 1152.42,303.65 1155.71,303.92 1159.14,303.65 1162.64,303.92 1166.07,303.92 1169.56,303.92 1173.11,303.11 1176.57,303.92 1180.00,303.92"/>
<polyline fill="none" stroke="#d62728" stroke-opacity="0.80" stroke-width="2" points="70.00,303.38 73.44,304.19 76.90,302.57 80.33,303.38 83.78,304.19 87.26,287.72 90.67,303.38 94.13,304.19 97.86,304.19 101.28,303.38 104.70,303.38 108.12,304.19 111.62,304.19 115.04,304.19 118.46,304.19 124.66,304.19 130.00,302.57 133.48,304.19 137.00,304.19 140.44,304.19 143.87,303.38 147.24,303.38 150.71,304.19 154.15,302.57 157.61,302.57 161.08,303.38 164.58,303.38 168.04,304.19 171.49,303.38 175.11,35.00 178.58,303.38 182.01,35.00 185.54,35.00 188.99,303.38 192.43,304.19 195.98,35.00 199.39,303.38 202.84,302.57 206.34,304.19 209.74,303.38 213.19,303.38 216.59,302.57 220.02,304.19 223.48,303.38 226.90,303.38 230.42,302.57 233.89,303.38 237.29,35.00 240.72,303.38 244.20,304.19 247.64,304.19 251.58,302.57 255.02,35.00 258.45,304.19 261.87,303.38 265.29,304.19 268.70,303.38 272.12,303.38 275.58,304.19 279.01,35.00 282.52,304.19 285.95,304.19 289.35,304.19 292.81,303.38 296.30,304.19 299.73,302.57 303.19,304.19 306.59,302.57 310.00,302.57 313.42,303.38 316.83,288.80 320.27,302.57 323.71,304.19 327.12,304.19 330.57,303.38 334.02,304.19 337.42,300.14 340.88,304.19 344.30,304.19 347.72,304.19 351.25,35.00 354.68,35.00 358.11,302.57 361.58,35.00 365.00,35.00 368.45,303.38 371.89,304.19 375.29,35.00 378.70,304.19 382.16,304.19 385.63,304.19 389.06,304.19 392.54,303.38 395.93,303.38 399.38,304.19 402.80,304.19 406.24,303.38 409.65,286.91 413.09,303.38 416.50,304.19 419.97,304.19 423.41,304.19 426.86,303.38 430.30,304.19 433.78,304.19 437.25,303.38 440.68,302.57 444.10,302.57 447.54,304.19 450.96,302.57 454.43,304.19 457.88,304.19 461.31,304.19 464.74,35.00 468.20,304.19 471.65,304.19 475.12,302.57 478.61,35.00 482.04,35.00 485.48,303.38 488.92,304.19 492.36,303.38 495.79,304.19 499.25,304.19 502.99,302.57 506.41,304.19 509.89,35.00 513.33,35.00 516.74,302.57 520.15,304.19 523.53,304.19 526.96,303.38 530.41,35.00 533.84,303.38 537.26,35.00 540.69,304.19 544.13,304.19 547.54,304.19 551.04,303.38 554.47,303.38 557.90,304.19 561.32,304.19 564.77,295.28 568.19,35.00 571.64,303.38 575.10,35.00 578.54,35.00 581.98,302.57 585.42,304.19 588.83,299.33 592.25,304.19 595.68,304.19 599.12,304.19 602.57,303.38 606.04,303.38 609.49,303.38 612.92,302.57 616.40,303.38 619.84,304.19 623.25,303.38 626.71,304.19 630.15,303.38 633.65,304.19 637.13,303.38 640.55,303.38 644.01,302.57 647.42,303.38 650.83,304.19 654.26,303.38 657.71,35.00 661.13,304.19 664.53,303.38 667.95,302.57 671.43,304.19 674.87,304.19 678.33,303.38 681.76,303.38 685.28,304.19 688.71,35.00 692.14,303.38 695.57,35.00 698.98,302.57 702.72,303.38 706.24,304.19 709.65,35.00 713.07,303.38 716.46,35.00 719.91,304.19 723.35,304.19 726.80,35.00 730.26,304.19 733.68,302.57 737.10,302.57 740.54,303.38 744.06,35.00 747.49,302.57 750.91,304.19 754.34,301.76 757.81,303.38 761.32,303.38 764.84,304.19 768.25,303.38 771.70,303.38 775.14,304.19 778.56,304.19 782.01,303.38 785.46,304.19 788.94,304.19 792.37,303.38 795.78,35.00 799.25,304.19 802.70,303.38 806.13,304.19 809.57,304.19 813.06,304.19 816.50,35.00 819.93,35.00 823.33,302.57 826.75,302.57 830.20,304.19 833.64,303.38 837.06,302.57 840.49,302.57 843.89,35.00 847.32,304.19 850.79,35.00 854.23,303.38 857.69,35.00 861.17,303.38 864.62,303.38 868.08,303.38 871.50,35.00 874.96,304.19 878.39,302.57 881.83,303.38 885.28,304.19 888.80,303.38 892.24,35.00 895.69,303.38 899.14,304.19 902.56,303.38 906.01,304.19 909.41,35.00 912.85,302.57 916.31,304.19 919.75,304.19 923.20,303.38 926.64,303.38 930.11,304.19 933.54,303.38 936.98,304.19 940.45,304.19 943.92,304.19 947.35,303.38 950.78,302.57 954.24,304.19 957.72,35.00 961.17,295.28 964.61,303.38 968.04,302.57 971.86,303.38 975.32,301.76 978.76,35.00 982.21,304.19 985.68,303.38 989.14,304.19 992.58,304.19 996.03,299.33 999.45,304.19 1003.00,303.38 1006.48,302.57 1009.89,303.38 1013.33,302.57 1016.77,304.19 1020.21,304.19 1023.66,304.19 1027.23,302.57 1030.67,303.38 1034.10,303.38 1037.59,35.00 1041.30,303.38 1044.74,303.38 1049.07,304.19 1054.89,302.57 1058.41,303.38 1061.93,303.38 1065.36,303.38 1068.73,304.19 1072.15,303.38 1075.65,304.19 1079.10,304.19 1082.57,303.38 1086.15,304.19 1089.71,304.19 1093.36,304.19 1096.81,304.19 1100.26,302.57 1103.70,35.00 1107.19,304.19 1110.67,302.57 1114.15,303.38 1117.57,303.38 1121.00,303.38 1124.58,304.19 1128.05,304.19 1131.45,303.38 1134.90,304.19 1138.40,303.38 1141.97,304.19 1145.44,303.38 1148.88,304.19 1152.42,287.18 1155.71,288.53 1159.14,301.76 1162.64,302.57 1166.07,303.38 1169.56,35.00 1173.11,35.00 1176.57,303.38 1180.00,303.38"/>
<polyline fill="none" stroke="#d62728" stroke-opacity="0.65" stroke-width="2" points="70.00,35.00 73.44,304.46 76.90,304.46 80.33,302.30 83.78,304.46 87.26,303.38 90.67,304.46 94.13,304.46 97.86,35.00 101.28,304.46 104.70,304.46 108.12,303.92 111.62,303.92 115.04,304.46 118.46,304.46 124.66,303.92 130.00,304.46 133.48,35.00 137.00,303.92 140.44,302.84 143.87,304.46 147.24,303.92 150.71,302.84 154.15,35.00 157.61,303.92 161.08,35.00 164.58,35.00 168.04,35.00 171.49,303.92 175.11,35.00 178.58,303.38 182.01,303.92 185.54,304.46 188.99,35.00 192.43,35.00 195.98,304.46 199.39,35.00 202.84,304.46 206.34,35.00 209.74,304.46 213.19,303.92 216.59,35.00 220.02,304.46 223.48,304.46 226.90,293.12 230.42,35.00 233.89,304.46 237.29,304.46 240.72,304.46 244.20,35.00 247.64,304.46 251.58,304.46 255.02,304.46 258.45,35.00 261.87,35.00 265.29,304.46 268.70,304.46 272.12,303.38 275.58,303.92 279.01,304.46 282.52,35.00 285.95,304.46 289.35,304.46 292.81,35.00 296.30,304.46 299.73,303.92 303.19,304.46 306.59,304.46 310.00,35.00 313.42,303.92 316.83,303.92 320.27,304.46 323.71,303.92 327.12,303.92 330.57,35.00 334.02,303.92 337.42,304.46 340.88,304.46 344.30,303.38 347.72,35.00 351.25,304.46 354.68,303.38 358.11,304.46 361.58,35.00 365.00,304.46 368.45,304.46 371.89,303.92 375.29,303.92 378.70,303.92 382.16,304.46 385.63,303.92 389.06,304.46 392.54,303.92 395.93,35.00 399.38,303.92 402.80,303.92 406.24,304.46 409.65,304.46 413.09,303.92 416.50,303.92 419.97,35.00 423.41,35.00 426.86,303.92 430.30,35.00 433.78,304.46 437.25,304.46 440.68,304.46 444.10,304.46 447.54,303.92 450.96,304.46 454.43,303.38 457.88,304.46 461.31,303.92 464.74,35.00 468.20,304.46 471.65,303.92 475.12,303.92 478.61,303.92 482.04,304.46 485.48,35.00 488.92,304.46 492.36,304.46 495.79,35.00 499.25,303.92 502.99,304.46 506.41,303.92 509.89,304.46 513.33,304.46 516.74,303.92 520.15,303.92 523.53,304.46 526.96,304.46 530.41,304.46 533.84,303.38 537.26,304.46 540.69,35.00 544.13,303.92 547.54,35.00 551.04,304.46 554.47,35.00 557.90,35.00 561.32,303.92 564.77,303.92 568.19,304.46 571.64,304.46 575.10,304.46 578.54,303.92 581.98,304.46 585.42,304.46 588.83,303.92 592.25,35.00 595.68,304.46 599.12,35.00 602.57,303.92 606.04,304.46 609.49,304.46 612.92,35.00 616.40,35.00 619.84,35.00 623.25,304.46 626.71,303.92 630.15,304.46 633.65,303.92 637.13,303.92 640.55,304.46 644.01,304.46 647.42,304.46 650.83,304.46 654.26,304.46 657.71,304.46 661.13,304.46 664.53,282.59 667.95,304.46 671.43,303.92 674.87,304.46 678.33,304.46 681.76,304.46 685.28,303.38 688.71,304.46 692.14,304.46 695.57,303.92 698.98,304.46 702.72,303.92 706.24,304.46 709.65,304.46 713.07,304.46 716.46,304.46 719.91,304.46 723.35,303.38 726.80,304.46 730.26,304.46 733.68,304.46 737.10,303.92 740.54,35.00 744.06,304.46 747.49,303.92 750.91,303.92 754.34,303.92 757.81,35.00 761.32,304.46 764.84,304.46 768.25,35.00 771.70,303.92 775.14,35.00 778.56,35.00 782.01,304.46 785.46,304.46 788.94,35.00 792.37,35.00 795.78,304.46 799.25,304.46 802.70,303.92 806.13,303.92 809.57,304.46 813.06,304.46 816.50,304.46 819.93,303.92 823.33,304.46 826.75,304.46 830.20,303.92 833.64,303.38 837.06,304.46 840.49,35.00 843.89,304.46 847.32,35.00 850.79,35.00 854.23,303.92 857.69,303.92 861.17,304.46 864.62,304.46 868.08,304.46 871.50,303.92 874.96,297.98 878.39,35.00 881.83,304.46 885.28,303.92 888.80,304.46 892.24,303.92 895.69,35.00 899.14,303.92 902.56,304.46 906.01,35.00 909.41,303.92 912.85,304.46 916.31,304.46 919.75,35.00 923.20,303.92 926.64,303.92 930.11,35.00 933.54,303.92 936.98,303.92 940.45,35.00 943.92,303.92 947.35,304.46 950.78,303.92 954.24,304.46 957.72,303.92 961.17,35.00 964.61,304.46 968.04,35.00 971.86,35.00 975.32,303.92 978.76,303.38 982.21,303.38 985.68,303.38 989.14,35.00 992.58,304.46 996.03,304.46 999.45,304.46 1003.00,35.00 1006.48,304.46 1009.89,304.46 1013.33,304.46 1016.77,35.00 1020.21,304.46 1023.66,304.46 1027.23,293.66 1030.67,303.92 1034.10,304.46 1037.59,303.92 1041.30,304.46 1044.74,35.00 1049.07,304.46 1054.89,304.46 1058.41,304.46 1061.93,304.46 1065.36,35.00 1068.73,304.46 1072.15,304.46 1075.65,303.92 1079.10,35.00 1082.57,304.46 1086.15,35.00 1089.71,303.38 1093.36,304.46 1096.81,304.46 1100.26,35.00 1103.70,35.00 1107.19,304.46 1110.67,35.00 1114.15,304.46 1117.57,304.46 1121.00,304.46 1124.58,35.00 1128.05,303.92 1131.45,35.00 1134.90,304.46 1138.40,304.46 1141.97,297.98 1145.44,304.46 1148.88,35.00 1152.42,293.12 1155.71,35.00 1159.14,303.92 1162.64,35.00 1166.07,304.46 1169.56,304.46 1173.11,303.92 1176.57,304.46 1180.00,304.46"/>
<polyline fill="none" stroke="#d62728" stroke-opacity="0.50" stroke-width="2" points="70.00,302.84 73.44,302.84 76.90,303.92 80.33,303.92 83.78,303.92 87.26,303.38 90.67,303.92 94.13,302.57 97.86,303.38 101.28,302.84 104.70,303.92 108.12,303.38 111.62,302.84 115.04,303.38 118.46,287.18 124.66,303.38 130.00,303.38 133.48,303.38 137.00,303.92 140.44,302.84 143.87,293.12 147.24,303.38 150.71,303.38 154.15,303.38 157.61,303.38 161.08,303.38 164.58,303.38 168.04,303.92 171.49,303.38 175.11,303.92 178.58,303.92 182.01,303.38 185.54,303.38 188.99,303.38 192.43,302.03 195.98,303.38 199.39,303.92 202.84,303.92 206.34,303.38 209.74,303.92 213.19,303.92 216.59,303.92 220.02,302.84 223.48,303.92 226.90,303.38 230.42,303.92 233.89,302.84 237.29,303.92 240.72,302.84 244.20,303.38 247.64,302.84 251.58,303.38 255.02,303.92 258.45,303.38 261.87,303.92 265.29,303.38 268.70,303.38 272.12,303.92 275.58,302.30 279.01,303.92 282.52,303.92 285.95,304.46 289.35,303.92 292.81,303.92 296.30,303.92 299.73,303.38 303.19,289.61 306.59,303.92 310.00,303.38 313.42,302.84 316.83,299.87 320.27,303.92 323.71,303.92 327.12,304.46 330.57,303.92 334.02,302.03 337.42,304.46 340.88,303.38 344.30,303.38 347.72,302.84 351.25,302.57 354.68,303.92 358.11,303.92 361.58,303.92 365.00,303.38 368.45,303.38 371.89,302.84 375.29,303.38 378.70,302.84 382.16,303.92 385.63,303.38 389.06,294.20 392.54,303.38 395.93,303.38 399.38,303.92 402.80,303.92 406.24,302.57 409.65,303.38 413.09,302.84 416.50,302.84 419.97,302.57 423.41,303.92 426.86,303.92 430.30,303.92 433.78,303.92 437.25,302.84 440.68,303.92 444.10,303.92 447.54,302.84 450.96,303.92 454.43,302.84 457.88,302.84 461.31,303.92 464.74,303.92 468.20,303.92 471.65,303.92 475.12,302.57 478.61,303.92 482.04,303.92 485.48,303.38 488.92,303.38 492.36,303.92 495.79,304.46 499.25,303.92 502.99,303.92 506.41,303.38 509.89,303.92 513.33,303.92 516.74,304.46 520.15,303.38 523.53,302.84 526.96,303.92 530.41,302.84 533.84,303.92 537.26,303.38 540.69,303.38 544.13,304.46 547.54,303.38 551.04,303.92 554.47,302.57 557.90,302.03 561.32,303.92 564.77,303.92 568.19,303.38 571.64,303.38 575.10,303.92 578.54,303.38 581.98,303.38 585.42,302.84 588.83,302.57 592.25,303.38 595.68,302.03 599.12,302.03 602.57,302.03 606.04,302.84 609.49,302.03 612.92,302.84 616.40,302.84 619.84,302.57 623.25,302.03 626.71,303.92 630.15,303.38 633.65,303.92 637.13,303.92 640.55,303.38 644.01,302.84 647.42,303.92 650.83,303.92 654.26,303.92 657.71,296.90 661.13,303.38 664.53,302.84 667.95,303.92 671.43,303.92 674.87,302.84 678.33,303.92 681.76,302.84 685.28,303.92 688.71,303.92 692.14,303.38 695.57,303.92 698.98,303.92 702.72,299.33 706.24,303.38 709.65,303.92 713.07,303.38 716.46,303.92 719.91,304.46 723.35,303.92 726.80,303.38 730.26,303.92 733.68,302.84 737.10,303.38 740.54,303.38 744.06,303.92 747.49,303.92 750.91,303.92 754.34,302.84 757.81,303.92 761.32,303.38 764.84,303.92 768.25,303.92 771.70,303.38 775.14,302.84 778.56,303.38 782.01,303.38 785.46,303.92 788.94,303.92 792.37,302.84 795.78,303.92 799.25,303.38 802.70,303.92 806.13,303.92 809.57,303.38 813.06,303.92 816.50,302.30 819.93,303.92 823.33,303.38 826.75,303.92 830.20,302.84 833.64,303.92 837.06,302.84 840.49,303.92 843.89,303.92 847.32,303.92 850.79,303.92 854.23,302.84 857.69,303.92 861.17,303.92 864.62,299.87 868.08,303.92 871.50,302.84 874.96,302.84 878.39,303.92 881.83,303.92 885.28,303.92 888.80,304.46 892.24,304.46 895.69,303.38 899.14,303.38 902.56,303.38 906.01,303.92 909.41,303.92 912.85,302.84 916.31,303.92 919.75,303.92 923.20,303.38 926.64,303.38 930.11,303.92 933.54,302.57 936.98,303.92 940.45,302.84 943.92,303.92 947.35,303.92 950.78,303.38 954.24,303.92 957.72,304.46 961.17,303.38 964.61,302.84 968.04,303.38 971.86,303.92 975.32,303.38 978.76,303.92 982.21,303.92 985.68,303.38 989.14,303.38 992.58,303.38 996.03,303.38 999.45,303.92 1003.00,302.84 1006.48,303.92 1009.89,303.92 1013.33,303.92 1016.77,303.92 1020.21,302.84 1023.66,303.38 1027.23,303.38 1030.67,303.92 1034.10,302.84 1037.59,303.92 1041.30,303.92 1044.74,293.39 1049.07,293.12 1054.89,303.92 1058.41,302.84 1061.93,292.58 1065.36,302.03 1068.73,302.84 1072.15,304.46 1075.65,303.92 1079.10,303.92 1082.57,303.92 1086.15,304.46 1089.71,303.92 1093.36,303.92 1096.81,302.84 1100.26,303.38 1103.70,303.38 1107.19,303.92 1110.67,303.38 1114.15,302.84 1117.57,294.74 1121.00,303.38 1124.58,303.92 1128.05,303.92 1131.45,303.92 1134.90,303.92 1138.40,303.38 1141.97,303.92 1145.44,303.38 1148.88,303.92 1152.42,303.38 1155.71,302.57 1159.14,303.92 1162.64,303.92 1166.07,303.92 1169.56,304.46 1173.11,303.38 1176.57,303.38 1180.00,303.38"/>
<rect x="70" y="332" width="12" height="12" fill="#d62728" fill-opacity="0.95"/>
<text x="88" y="342" font-size="11" fill="#333" font-family="Arial, Helvetica, sans-serif">nsc1.utdallas.edu</text>
<rect x="350" y="332" width="12" height="12" fill="#d62728" fill-opacity="0.80"/>
<text x="368" y="342" font-size="11" fill="#333" font-family="Arial, Helvetica, sans-serif">nsc2.utdallas.edu</text>
<rect x="630" y="332" width="12" height="12" fill="#d62728" fill-opacity="0.65"/>
<text x="648" y="342" font-size="11" fill="#333" font-family="Arial, Helvetica, sans-serif">nsc3.utdallas.edu</text>
<rect x="910" y="332" width="12" height="12" fill="#d62728" fill-opacity="0.50"/>
<text x="928" y="342" font-size="11" fill="#333" font-family="Arial, Helvetica, sans-serif">nsc4.utdallas.edu</text>
</svg>