<?xml version="1.0" encoding="UTF-8"?>
<svg xmlns="http://www.w3.org/2000/svg" width="1200" height="360" viewBox="0 0 1200 360" role="img" aria-label="CPU Utilization (%)">
<rect width="100%" height="100%" fill="#ffffff"/>
<text x="600.0" y="22" text-anchor="middle" font-size="16" font-family="Arial, Helvetica, sans-serif" font-weight="bold">CPU Utilization (%)</text>
<line x1="70" y1="35.00" x2="1180" y2="35.00" stroke="#e3e3e3" stroke-width="1"/>
<text x="62" y="39.00" text-anchor="end" font-size="11" fill="#444" font-family="Arial, Helvetica, sans-serif">100</text>
<line x1="70" y1="89.00" x2="1180" y2="89.00" stroke="#e3e3e3" stroke-width="1"/>
<text x="62" y="93.00" text-anchor="end" font-size="11" fill="#444" font-family="Arial, Helvetica, sans-serif">80</text>
<line x1="70" y1="143.00" x2="1180" y2="143.00" stroke="#e3e3e3" stroke-width="1"/>
<text x="62" y="147.00" text-anchor="end" font-size="11" fill="#444" font-family="Arial, Helvetica, sans-serif">60</text>
<line x1="70" y1="197.00" x2="1180" y2="197.00" stroke="#e3e3e3" stroke-width="1"/>
<text x="62" y="201.00" text-anchor="end" font-size="11" fill="#444" font-family="Arial, Helvetica, sans-serif">40</text>
<line x1="70" y1="251.00" x2="1180" y2="251.00" stroke="#e3e3e3" stroke-width="1"/>
<text x="62" y="255.00" text-anchor="end" font-size="11" fill="#444" font-family="Arial, Helvetica, sans-serif">20</text>
<line x1="70" y1="305.00" x2="1180" y2="305.00" stroke="#e3e3e3" stroke-width="1"/>
<text x="62" y="309.00" text-anchor="end" font-size="11" fill="#444" font-family="Arial, Helvetica, sans-serif">0</text>
<line x1="70" y1="35" x2="70" y2="305" stroke="#999"/>
<line x1="70" y1="305" x2="1180" y2="305" stroke="#999"/>
<text x="70.00" y="323" text-anchor="middle" font-size="10" fill="#444" font-family="Arial, Helvetica, sans-serif">2026-02-11 16:38</text>
<text x="347.50" y="323" text-anchor="middle" font-size="10" fill="#444" font-family="Arial, Helvetica, sans-serif">2026-02-12 07:38</text>
<text x="625.00" y="323" text-anchor="middle" font-size="10" fill="#444" font-family="Arial, Helvetica, sans-serif">2026-02-12 22:39</text>
<text x="902.50" y="323" text-anchor="middle" font-size="10" fill="#444" font-family="Arial, Helvetica, sans-serif">2026-02-13 13:40</text>
<text x="1180.00" y="323" text-anchor="middle" font-size="10" fill="#444" font-family="Arial, Helvetica, sans-serif">2026-02-14 04:41</text>
<polyline fill="none" stroke="#d62728" stroke-opacity="0.95" stroke-width="2" points="71.66,304.46 73.32,298.79 74.98,296.90 76.64,303.92 78.31,304.73 79.96,304.46 81.62,303.92 83.42,304.73 85.06,303.92 86.71,304.46 88.36,303.92 90.05,304.46 91.69,304.46 93.34,303.92 96.33,304.46 98.90,303.92 100.57,304.46 102.27,303.92 103.92,300.95 105.58,304.73 107.20,278.27 108.87,303.92 110.53,304.46 112.20,294.74 113.86,304.46 115.55,303.92 117.22,301.49 118.88,303.92 120.62,295.28 122.30,294.20 123.95,303.65 125.65,304.46 127.31,304.46 128.97,303.92 130.68,303.65 132.32,302.30 133.98,303.92 135.67,304.46 137.30,303.92 138.96,304.73 140.60,304.73 142.25,304.46 143.92,303.38 145.57,304.46 147.26,303.92 148.93,303.38 150.57,304.46 152.23,297.71 153.90,297.44 155.56,48.23 157.45,303.92 159.11,303.92 160.76,304.46 162.41,303.65 164.06,303.65 165.70,304.46 167.35,304.46 169.01,303.92 170.66,304.46 172.35,303.92 174.01,304.46 175.64,304.46 177.31,299.60 178.99,303.65 180.65,303.92 182.31,304.73 183.95,303.92 185.59,304.73 187.24,304.46 188.88,304.46 190.53,304.46 192.19,303.92 193.84,304.73 195.49,303.92 197.16,304.46 198.80,304.73 200.46,303.38 202.11,303.38 203.76,303.65 205.46,304.46 207.11,303.65 208.76,304.73 210.43,304.46 212.08,304.46 213.74,304.73 215.40,303.92 217.03,303.92 218.68,304.46 220.35,304.73 222.01,299.60 223.67,303.65 225.34,304.46 226.97,304.73 228.64,303.65 230.29,303.92 231.94,304.46 233.58,304.46 235.24,303.92 236.88,303.92 238.55,303.92 240.21,304.46 241.87,303.92 243.53,303.92 245.21,298.79 246.88,303.65 248.53,304.46 250.18,304.73 251.83,304.73 253.48,304.46 255.15,304.46 256.81,304.46 258.46,304.46 260.12,302.84 261.78,304.46 263.45,304.46 265.11,304.46 266.80,304.46 268.45,304.46 270.11,304.46 271.76,303.65 273.42,304.73 275.07,303.38 276.74,304.46 278.54,304.46 280.18,304.73 281.86,303.92 283.52,303.92 285.16,304.46 286.80,299.87 288.43,304.46 290.08,304.73 291.74,295.01 293.40,304.46 295.04,303.92 296.70,303.92 298.35,303.92 299.99,304.46 301.68,303.65 303.33,304.46 304.98,304.46 306.63,304.46 308.29,303.92 309.94,303.92 311.60,303.92 313.27,304.73 314.92,304.46 316.58,304.46 318.24,303.92 319.88,304.46 321.53,303.65 323.18,303.92 324.83,303.65 326.50,304.73 328.17,304.46 329.83,304.46 331.48,304.46 333.16,303.11 334.82,303.38 336.46,304.46 338.12,304.46 339.78,304.46 341.47,303.65 343.14,303.92 344.79,304.46 346.46,297.71 348.10,294.20 349.74,303.92 351.40,304.46 353.05,303.65 354.70,297.71 356.34,304.46 357.99,303.92 359.66,304.46 361.32,304.46 362.98,303.92 364.64,303.38 366.33,304.73 367.99,303.92 369.64,303.38 371.29,303.92 372.93,304.46 374.73,304.46 376.43,303.92 378.07,304.73 379.72,304.46 381.35,304.46 383.01,304.73 384.67,304.46 386.33,304.73 388.00,35.00 389.64,303.65 391.29,303.11 392.95,297.17 394.64,304.46 396.30,304.46 397.94,304.46 399.59,303.92 401.27,303.65 402.96,304.46 404.65,303.11 406.29,304.73 407.95,304.46 409.61,303.92 411.26,304.73 412.92,304.46 414.58,303.92 416.26,304.73 417.91,304.46 419.55,304.46 421.23,304.46 422.88,303.92 424.54,303.65 426.20,304.46 427.88,303.65 429.53,304.46 431.18,301.76 432.82,302.03 434.47,304.46 436.13,304.46 437.79,304.46 439.43,35.00 441.09,303.65 442.72,303.92 444.38,304.46 446.05,304.46 447.71,303.65 449.37,304.46 451.05,304.73 452.71,304.46 454.38,304.73 456.02,35.00 457.69,304.73 459.34,303.65 461.00,304.46 462.66,303.65 464.35,304.73 466.01,300.68 467.67,303.65 469.33,303.92 470.98,304.46 472.64,304.46 474.28,304.46 475.94,304.46 477.60,304.73 479.26,304.73 480.92,304.73 482.58,303.65 484.25,303.92 485.90,303.92 487.56,304.73 489.23,35.00 490.90,304.46 492.55,303.92 494.20,304.73 495.87,303.92 497.55,304.73 499.21,303.92 500.86,304.46 502.52,303.92 504.36,304.73 506.02,304.46 507.68,303.65 509.34,304.46 511.01,304.46 512.68,303.92 514.34,304.46 516.00,303.65 517.64,304.73 519.35,295.28 521.03,297.17 522.68,304.46 524.33,304.46 525.99,304.46 527.65,304.73 529.30,304.46 531.02,303.65 532.68,304.46 534.34,303.92 536.02,304.73 537.80,304.73 539.46,304.73 541.55,303.65 544.35,304.46 546.04,303.92 547.74,303.92 549.39,304.73 551.01,304.46 552.66,303.92 554.35,303.65 556.01,304.46 557.68,304.73 559.40,303.92 561.12,35.00 562.87,303.65 564.54,304.46 566.20,304.73 567.85,303.92 569.53,303.92 571.21,303.65 572.89,304.46 574.53,303.92 576.19,304.46 577.91,304.46 579.58,304.46 581.22,304.46 582.88,304.46 584.57,303.92 586.29,304.46 587.96,303.92 589.61,303.92 591.32,303.65 592.91,303.92 594.55,303.65 596.24,303.92 597.89,303.92 599.58,303.92 601.29,303.11 602.95,303.92 604.60,303.92 606.28,304.46 607.96,304.46 609.61,303.65 611.27,304.73 612.91,299.06 614.58,304.73 616.24,304.46 617.89,48.23 619.86,48.50 621.81,48.77 623.78,48.50 625.70,48.23 627.60,48.50 629.51,48.50 631.47,48.77 633.40,304.46 635.06,304.46 636.70,304.46 638.35,303.92 640.01,304.46 641.66,304.46 643.31,303.92 644.96,304.19 646.60,303.65 648.26,304.73 649.92,303.92 651.57,303.92 653.22,304.46 654.87,304.73 656.51,304.73 658.17,304.46 659.82,304.46 661.47,304.46 663.11,303.92 664.78,304.46 666.44,304.73 668.08,303.65 669.72,304.46 671.37,35.00 673.03,304.46 674.68,304.46 676.34,304.73 677.99,304.46 679.65,304.73 681.31,35.00 682.96,304.46 684.61,304.46 686.26,304.73 687.91,303.92 689.56,303.92 691.19,303.92 692.83,303.38 694.48,304.73 696.13,303.65 697.77,304.46 699.42,303.92 701.07,304.46 702.72,304.73 704.36,303.92 706.00,303.38 707.62,304.73 709.33,303.65 711.11,304.73 712.78,304.73 714.44,304.46 716.08,303.92 717.73,303.65 719.37,297.44 721.01,297.71 722.66,48.50 724.62,48.50 726.56,48.50 728.49,48.23 730.43,48.50 732.38,48.23 734.31,48.50 736.28,48.77 738.29,295.82 740.10,297.17 741.88,304.73 743.53,303.92 745.21,303.92 746.87,304.73 748.50,303.92 750.15,304.46 751.81,304.46 753.46,304.46 755.11,304.46 756.76,304.46 758.41,304.73 760.07,303.11 761.72,304.73 763.40,303.92 765.05,304.46 766.70,304.73 768.14,304.46 769.85,303.92 771.51,304.73 773.20,304.73 774.86,304.73 776.50,303.92 778.17,35.00 779.84,304.73 781.50,304.73 783.18,304.46 784.84,304.73 786.53,303.65 788.17,304.46 789.81,304.73 791.47,304.73 793.11,304.73 794.76,35.00 796.40,303.92 798.07,303.92 799.72,303.92 801.38,303.65 803.03,304.46 804.68,304.46 806.35,303.92 808.00,304.46 809.66,304.46 811.33,304.73 812.98,303.92 814.63,301.22 816.31,304.46 817.97,304.46 819.68,304.46 821.31,303.65 822.96,304.46 824.61,304.73 826.25,304.46 827.90,300.68 829.57,303.92 831.22,304.73 832.87,304.46 834.52,304.73 836.17,303.38 837.82,303.92 839.48,304.73 841.15,304.73 842.81,303.92 844.80,303.92 846.50,303.92 848.20,303.65 849.87,304.46 851.53,302.84 853.21,304.46 854.85,304.46 856.50,303.92 858.17,303.92 859.84,303.11 861.49,304.73 863.15,304.46 864.81,304.46 866.47,304.46 868.18,304.73 869.87,304.73 871.52,304.46 873.18,304.73 874.84,304.73 876.49,302.57 878.14,302.84 879.80,301.22 881.53,303.92 883.19,304.46 884.86,304.46 886.51,304.46 888.17,303.92 889.83,304.73 891.48,304.46 893.14,304.46 894.80,303.92 896.47,304.46 898.13,304.46 899.79,304.46 901.44,297.44 903.10,303.92 904.75,304.46 906.44,304.46 908.10,300.68 909.75,303.92 911.39,289.07 913.05,303.65 914.74,302.03 916.40,302.84 918.39,302.84 920.10,304.46 921.75,304.46 923.41,303.92 925.06,304.73 926.73,303.92 928.38,303.92 930.05,303.65 931.74,304.46 933.39,303.92 935.04,304.73 936.69,304.46 938.35,304.46 940.00,303.92 941.65,304.73 943.32,304.46 944.97,304.73 946.62,304.46 948.27,304.73 949.92,304.73 951.60,303.92 953.25,304.46 954.90,304.73 956.58,304.46 958.25,304.46 959.90,304.73 961.55,304.46 963.22,303.38 964.92,303.92 966.57,304.73 968.23,304.73 969.90,303.92 971.56,303.92 973.20,304.46 974.87,303.92 976.53,303.92 978.23,304.73 979.88,303.92 981.54,304.46 983.18,303.92 984.83,304.46 986.49,304.73 988.15,303.92 989.80,304.73 991.47,304.46 993.15,304.73 994.82,298.79 996.44,303.92 998.12,303.92 999.77,304.46 1001.43,304.46 1003.08,303.65 1004.74,303.65 1006.39,304.73 1008.07,303.92 1009.73,303.92 1011.38,235.88 1013.05,236.69 1014.73,236.69 1016.39,236.69 1018.05,236.15 1019.72,232.10 1021.59,227.51 1023.41,228.59 1025.18,222.65 1026.86,236.42 1028.59,236.15 1030.25,235.61 1031.91,236.69 1033.55,236.69 1035.10,236.15 1036.83,235.61 1038.49,236.15 1040.17,236.42 1041.80,233.18 1043.47,236.69 1045.11,236.42 1046.79,236.15 1048.44,235.61 1050.10,235.88 1051.75,236.42 1053.42,236.42 1055.08,236.96 1056.75,236.42 1058.42,235.61 1060.10,236.69 1061.76,236.15 1063.42,236.42 1065.08,242.63 1066.78,255.86 1068.44,236.69 1070.08,235.88 1071.74,236.15 1073.40,236.42 1075.05,235.88 1076.71,236.15 1078.37,236.96 1080.03,236.15 1081.71,236.69 1083.36,236.96 1085.01,236.15 1086.67,236.96 1088.34,236.15 1090.01,236.42 1091.67,234.53 1093.32,236.15 1094.99,236.69 1096.65,236.69 1098.32,235.34 1099.99,236.15 1101.66,236.15 1103.33,235.61 1104.98,236.69 1106.65,236.96 1108.31,235.61 1109.99,232.91 1111.70,234.26 1113.36,236.42 1115.03,236.42 1116.69,236.15 1118.34,236.96 1120.00,236.15 1121.67,236.69 1123.33,236.96 1125.00,234.53 1126.66,236.42 1128.33,236.69 1129.99,236.42 1131.65,236.15 1133.33,236.42 1135.00,235.88 1136.67,236.15 1138.34,236.96 1140.01,235.61 1141.69,235.88 1143.35,235.88 1145.00,236.42 1146.67,236.42 1148.34,236.69 1150.03,236.69 1151.70,236.42 1153.38,235.61 1155.05,236.15 1156.69,236.15 1158.35,235.34 1160.01,236.69 1161.68,235.61 1163.35,236.69 1165.01,235.88 1166.67,236.69 1168.32,232.91 1169.99,235.88 1171.67,236.42 1173.33,235.88 1174.98,235.61 1176.67,236.69 1178.33,235.88 1180.00,236.42"/>
<polyline fill="none" stroke="#d62728" stroke-opacity="0.80" stroke-width="2" points="70.00,303.38 71.66,304.19 73.32,302.57 74.98,303.38 76.64,304.19 78.31,287.72 79.96,303.38 81.62,304.19 83.42,304.19 85.06,303.38 86.71,303.38 88.36,304.19 90.05,304.19 91.69,304.19 93.34,304.19 96.33,304.19 98.90,302.57 100.57,304.19 102.27,304.19 103.92,304.19 105.58,303.38 107.20,303.38 108.87,304.19 110.53,302.57 112.20,302.57 113.86,303.38 115.55,303.38 117.22,304.19 118.88,303.38 120.62,35.00 122.30,303.38 123.95,35.00 125.65,35.00 127.31,303.38 128.97,304.19 130.68,35.00 132.32,303.38 133.98,302.57 135.67,304.19 137.30,303.38 138.96,303.38 140.60,302.57 142.25,304.19 143.92,303.38 145.57,303.38 147.26,302.57 148.93,303.38 150.57,35.00 152.23,303.38 153.90,304.19 155.56,304.19 157.45,302.57 159.11,35.00 160.76,304.19 162.41,303.38 164.06,304.19 165.70,303.38 167.35,303.38 169.01,304.19 170.66,35.00 172.35,304.19 174.01,304.19 175.64,304.19 177.31,303.38 178.99,304.19 180.65,302.57 182.31,304.19 183.95,302.57 185.59,302.57 187.24,303.38 188.88,288.80 190.53,302.57 192.19,304.19 193.84,304.19 195.49,303.38 197.16,304.19 198.80,300.14 200.46,304.19 202.11,304.19 203.76,304.19 205.46,35.00 207.11,35.00 208.76,302.57 210.43,35.00 212.08,35.00 213.74,303.38 215.40,304.19 217.03,35.00 218.68,304.19 220.35,304.19 222.01,304.19 223.67,304.19 225.34,303.38 226.97,303.38 228.64,304.19 230.29,304.19 231.94,303.38 233.58,286.91 235.24,303.38 236.88,304.19 238.55,304.19 240.21,304.19 241.87,303.38 243.53,304.19 245.21,304.19 246.88,303.38 248.53,302.57 250.18,302.57 251.83,304.19 253.48,302.57 255.15,304.19 256.81,304.19 258.46,304.19 260.12,35.00 261.78,304.19 263.45,304.19 265.11,302.57 266.80,35.00 268.45,35.00 270.11,303.38 271.76,304.19 273.42,303.38 275.07,304.19 276.74,304.19 278.54,302.57 280.18,304.19 281.86,35.00 283.52,35.00 285.16,302.57 286.80,304.19 288.43,304.19 290.08,303.38 291.74,35.00 293.40,303.38 295.04,35.00 296.70,304.19 298.35,304.19 299.99,304.19 301.68,303.38 303.33,303.38 304.98,304.19 306.63,304.19 308.29,295.28 309.94,35.00 311.60,303.38 313.27,35.00 314.92,35.00 316.58,302.57 318.24,304.19 319.88,299.33 321.53,304.19 323.18,304.19 324.83,304.19 326.50,303.38 328.17,303.38 329.83,303.38 331.48,302.57 333.16,303.38 334.82,304.19 336.46,303.38 338.12,304.19 339.78,303.38 341.47,304.19 343.14,303.38 344.79,303.38 346.46,302.57 348.10,303.38 349.74,304.19 351.40,303.38 353.05,35.00 354.70,304.19 356.34,303.38 357.99,302.57 359.66,304.19 361.32,304.19 362.98,303.38 364.64,303.38 366.33,304.19 367.99,35.00 369.64,303.38 371.29,35.00 372.93,302.57 374.73,303.38 376.43,304.19 378.07,35.00 379.72,303.38 381.35,35.00 383.01,304.19 384.67,304.19 386.33,35.00 388.00,304.19 389.64,302.57 391.29,302.57 392.95,303.38 394.64,35.00 396.30,302.57 397.94,304.19 399.59,301.76 401.27,303.38 402.96,303.38 404.65,304.19 406.29,303.38 407.95,303.38 409.61,304.19 411.26,304.19 412.92,303.38 414.58,304.19 416.26,304.19 417.91,303.38 419.55,35.00 421.23,304.19 422.88,303.38 424.54,304.19 426.20,304.19 427.88,304.19 429.53,35.00 431.18,35.00 432.82,302.57 434.47,302.57 436.13,304.19 437.79,303.38 439.43,302.57 441.09,302.57 442.72,35.00 444.38,304.19 446.05,35.00 447.71,303.38 449.37,35.00 451.05,303.38 452.71,303.38 454.38,303.38 456.02,35.00 457.69,304.19 459.34,302.57 461.00,303.38 462.66,304.19 464.35,303.38 466.01,35.00 467.67,303.38 469.33,304.19 470.98,303.38 472.64,304.19 474.28,35.00 475.94,302.57 477.60,304.19 479.26,304.19 480.92,303.38 482.58,303.38 484.25,304.19 485.90,303.38 487.56,304.19 489.23,304.19 490.90,304.19 492.55,303.38 494.20,302.57 495.87,304.19 497.55,35.00 499.21,295.28 500.86,303.38 502.52,302.57 504.36,303.38 506.02,301.76 507.68,35.00 509.34,304.19 511.01,303.38 512.68,304.19 514.34,304.19 516.00,299.33 517.64,304.19 519.35,303.38 521.03,302.57 522.68,303.38 524.33,302.57 525.99,304.19 527.65,304.19 529.30,304.19 531.02,302.57 532.68,303.38 534.34,303.38 536.02,35.00 537.80,303.38 539.46,303.38 541.55,304.19 544.35,302.57 546.04,303.38 547.74,303.38 549.39,303.38 551.01,304.19 552.66,303.38 554.35,304.19 556.01,304.19 557.68,303.38 559.40,304.19 561.12,304.19 562.87,304.19 564.54,304.19 566.20,302.57 567.85,35.00 569.53,304.19 571.21,302.57 572.89,303.38 574.53,303.38 576.19,303.38 577.91,304.19 579.58,304.19 581.22,303.38 582.88,304.19 584.57,303.38 586.29,304.19 587.96,303.38 589.61,304.19 591.32,287.18 592.91,288.53 594.55,301.76 596.24,302.57 597.89,303.38 599.58,35.00 601.29,35.00 602.95,303.38 604.60,303.38 606.28,304.19 607.96,304.19 609.61,35.00 611.27,304.19 612.91,35.00 614.58,303.38 616.24,303.38 617.89,302.57 619.86,303.38 621.81,303.38 623.78,300.95 625.70,303.38 627.60,302.57 629.51,304.19 631.47,304.19 633.40,35.00 635.06,303.38 636.70,303.38 638.35,304.19 640.01,304.19 641.66,302.57 643.31,303.38 644.96,304.19 646.60,303.38 648.26,303.38 649.92,304.19 651.57,303.38 653.22,304.19 654.87,303.38 656.51,303.38 658.17,304.19 659.82,303.38 661.47,35.00 663.11,304.19 664.78,304.19 666.44,303.38 668.08,304.19 669.72,304.19 671.37,35.00 673.03,303.38 674.68,304.19 676.34,304.19 677.99,304.19 679.65,302.57 681.31,35.00 682.96,303.38 684.61,287.72 686.26,304.19 687.91,304.19 689.56,303.38 691.19,301.76 692.83,303.38 694.48,304.19 696.13,302.57 697.77,303.38 699.42,303.38 701.07,303.38 702.72,303.38 704.36,304.19 706.00,303.38 707.62,302.57 709.33,304.19 711.11,303.38 712.78,303.38 714.44,303.38 716.08,303.38 717.73,304.19 719.37,304.19 721.01,304.19 722.66,304.19 724.62,303.38 726.56,303.38 728.49,304.19 730.43,302.57 732.38,304.19 734.31,303.38 736.28,302.57 738.29,304.19 740.10,303.38 741.88,303.38 743.53,303.38 745.21,302.57 746.87,35.00 748.50,35.00 750.15,304.19 751.81,303.38 753.46,35.00 755.11,35.00 756.76,303.38 758.41,304.19 760.07,304.19 761.72,304.19 763.40,303.38 765.05,304.19 766.70,304.19 768.14,304.19 769.85,304.19 771.51,287.72 773.20,303.38 774.86,302.57 776.50,303.38 778.17,303.38 779.84,304.19 781.50,304.19 783.18,303.38 784.84,302.57 786.53,304.19 788.17,303.38 789.81,302.57 791.47,304.19 793.11,301.76 794.76,304.19 796.40,304.19 798.07,303.38 799.72,303.38 801.38,304.19 803.03,303.38 804.68,301.76 806.35,304.19 808.00,304.19 809.66,304.19 811.33,35.00 812.98,303.38 814.63,304.19 816.31,304.19 817.97,304.19 819.68,304.19 821.31,35.00 822.96,35.00 824.61,302.57 826.25,304.19 827.90,35.00 829.57,304.19 831.22,303.38 832.87,302.57 834.52,302.57 836.17,304.19 837.82,303.38 839.48,304.19 841.15,303.38 842.81,301.76 844.80,304.19 846.50,304.19 848.20,304.19 849.87,302.57 851.53,304.19 853.21,304.19 854.85,304.19 856.50,303.38 858.17,304.19 859.84,303.38 861.49,35.00 863.15,302.57 864.81,304.19 866.47,302.57 868.18,304.19 869.87,303.38 871.52,304.19 873.18,303.38 874.84,35.00 876.49,302.57 878.14,303.38 879.80,304.19 881.53,304.19 883.19,304.19 884.86,304.19 886.51,303.38 888.17,304.19 889.83,304.19 891.48,304.19 893.14,304.19 894.80,304.19 896.47,304.19 898.13,302.57 899.79,304.19 901.44,303.38 903.10,304.19 904.75,304.19 906.44,304.19 908.10,304.19 909.75,35.00 911.39,304.19 913.05,301.76 914.74,217.79 916.40,304.19 918.39,35.00 920.10,303.38 921.75,302.57 923.41,304.19 925.06,303.38 926.73,304.19 928.38,303.38 930.05,304.19 931.74,304.19 933.39,303.38 935.04,35.00 936.69,35.00 938.35,304.19 940.00,302.57 941.65,304.19 943.32,304.19 944.97,304.19 946.62,303.38 948.27,304.19 949.92,302.57 951.60,304.19 953.25,35.00 954.90,35.00 956.58,303.38 958.25,304.19 959.90,303.38 961.55,300.95 963.22,304.19 964.92,304.19 966.57,304.19 968.23,303.38 969.90,303.38 971.56,302.57 973.20,35.00 974.87,303.38 976.53,35.00 978.23,35.00 979.88,303.38 981.54,304.19 983.18,302.57 984.83,304.19 986.49,304.19 988.15,303.38 989.80,303.38 991.47,296.09 993.15,304.19 994.82,304.19 996.44,304.19 998.12,302.57 999.77,35.00 1001.43,303.38 1003.08,304.19 1004.74,302.57 1006.39,302.57 1008.07,303.38 1009.73,35.00 1011.38,303.38 1013.05,303.38 1014.73,304.19 1016.39,304.19 1018.05,303.38 1019.72,304.19 1021.59,303.38 1023.41,303.38 1025.18,302.57 1026.86,304.19 1028.59,303.38 1030.25,303.38 1031.91,304.19 1033.55,35.00 1035.10,303.38 1036.83,287.18 1038.49,304.19 1040.17,286.37 1041.80,302.57 1043.47,304.19 1045.11,304.19 1046.79,304.19 1048.44,304.19 1050.10,304.19 1051.75,35.00 1053.42,303.38 1055.08,304.19 1056.75,35.00 1058.42,304.19 1060.10,304.19 1061.76,303.38 1063.42,304.19 1065.08,304.19 1066.78,303.38 1068.44,303.38 1070.08,304.19 1071.74,304.19 1073.40,304.19 1075.05,304.19 1076.71,302.57 1078.37,35.00 1080.03,35.00 1081.71,304.19 1083.36,303.38 1085.01,304.19 1086.67,304.19 1088.34,304.19 1090.01,304.19 1091.67,304.19 1093.32,301.76 1094.99,303.38 1096.65,302.57 1098.32,304.19 1099.99,35.00 1101.66,304.19 1103.33,304.19 1104.98,303.38 1106.65,35.00 1108.31,304.19 1109.99,304.19 1111.70,304.19 1113.36,35.00 1115.03,304.19 1116.69,304.19 1118.34,303.38 1120.00,303.38 1121.67,35.00 1123.33,35.00 1125.00,303.38 1126.66,304.19 1128.33,302.57 1129.99,302.57 1131.65,304.19 1133.33,295.28 1135.00,303.38 1136.67,304.19 1138.34,304.19 1140.01,303.38 1141.69,35.00 1143.35,304.19 1145.00,302.57 1146.67,35.00 1148.34,302.57 1150.03,303.38 1151.70,304.19 1153.38,303.38 1155.05,304.19 1156.69,35.00 1158.35,35.00 1160.01,302.57 1161.68,303.38 1163.35,295.28 1165.01,304.19 1166.67,304.19 1168.32,303.38 1169.99,303.38 1171.67,304.19 1173.33,304.19 1174.98,35.00 1176.67,303.38 1178.33,303.38 1180.00,304.19"/>
<polyline fill="none" stroke="#d62728" stroke-opacity="0.65" stroke-width="2" points="70.00,35.00 71.66,304.46 73.32,304.46 74.98,302.30 76.64,304.46 78.31,303.38 79.96,304.46 81.62,304.46 83.42,35.00 85.06,304.46 86.71,304.46 88.36,303.92 90.05,303.92 91.69,304.46 93.34,304.46 96.33,303.92 98.90,304.46 100.57,35.00 102.27,303.92 103.92,302.84 105.58,304.46 107.20,303.92 108.87,302.84 110.53,35.00 112.20,303.92 113.86,35.00 115.55,35.00 117.22,35.00 118.88,303.92 120.62,35.00 122.30,303.38 123.95,303.92 125.65,304.46 127.31,35.00 128.97,35.00 130.68,304.46 132.32,35.00 133.98,304.46 135.67,35.00 137.30,304.46 138.96,303.92 140.60,35.00 142.25,304.46 143.92,304.46 145.57,293.12 147.26,35.00 148.93,304.46 150.57,304.46 152.23,304.46 153.90,35.00 155.56,304.46 157.45,304.46 159.11,304.46 160.76,35.00 162.41,35.00 164.06,304.46 165.70,304.46 167.35,303.38 169.01,303.92 170.66,304.46 172.35,35.00 174.01,304.46 175.64,304.46 177.31,35.00 178.99,304.46 180.65,303.92 182.31,304.46 183.95,304.46 185.59,35.00 187.24,303.92 188.88,303.92 190.53,304.46 192.19,303.92 193.84,303.92 195.49,35.00 197.16,303.92 198.80,304.46 200.46,304.46 202.11,303.38 203.76,35.00 205.46,304.46 207.11,303.38 208.76,304.46 210.43,35.00 212.08,304.46 213.74,304.46 215.40,303.92 217.03,303.92 218.68,303.92 220.35,304.46 222.01,303.92 223.67,304.46 225.34,303.92 226.97,35.00 228.64,303.92 230.29,303.92 231.94,304.46 233.58,304.46 235.24,303.92 236.88,303.92 238.55,35.00 240.21,35.00 241.87,303.92 243.53,35.00 245.21,304.46 246.88,304.46 248.53,304.46 250.18,304.46 251.83,303.92 253.48,304.46 255.15,303.38 256.81,304.46 258.46,303.92 260.12,35.00 261.78,304.46 263.45,303.92 265.11,303.92 266.80,303.92 268.45,304.46 270.11,35.00 271.76,304.46 273.42,304.46 275.07,35.00 276.74,303.92 278.54,304.46 280.18,303.92 281.86,304.46 283.52,304.46 285.16,303.92 286.80,303.92 288.43,304.46 290.08,304.46 291.74,304.46 293.40,303.38 295.04,304.46 296.70,35.00 298.35,303.92 299.99,35.00 301.68,304.46 303.33,35.00 304.98,35.00 306.63,303.92 308.29,303.92 309.94,304.46 311.60,304.46 313.27,304.46 314.92,303.92 316.58,304.46 318.24,304.46 319.88,303.92 321.53,35.00 323.18,304.46 324.83,35.00 326.50,303.92 328.17,304.46 329.83,304.46 331.48,35.00 333.16,35.00 334.82,35.00 336.46,304.46 338.12,303.92 339.78,304.46 341.47,303.92 343.14,303.92 344.79,304.46 346.46,304.46 348.10,304.46 349.74,304.46 351.40,304.46 353.05,304.46 354.70,304.46 356.34,282.59 357.99,304.46 359.66,303.92 361.32,304.46 362.98,304.46 364.64,304.46 366.33,303.38 367.99,304.46 369.64,304.46 371.29,303.92 372.93,304.46 374.73,303.92 376.43,304.46 378.07,304.46 379.72,304.46 381.35,304.46 383.01,304.46 384.67,303.38 386.33,304.46 388.00,304.46 389.64,304.46 391.29,303.92 392.95,35.00 394.64,304.46 396.30,303.92 397.94,303.92 399.59,303.92 401.27,35.00 402.96,304.46 404.65,304.46 406.29,35.00 407.95,303.92 409.61,35.00 411.26,35.00 412.92,304.46 414.58,304.46 416.26,35.00 417.91,35.00 419.55,304.46 421.23,304.46 422.88,303.92 424.54,303.92 426.20,304.46 427.88,304.46 429.53,304.46 431.18,303.92 432.82,304.46 434.47,304.46 436.13,303.92 437.79,303.38 439.43,304.46 441.09,35.00 442.72,304.46 444.38,35.00 446.05,35.00 447.71,303.92 449.37,303.92 451.05,304.46 452.71,304.46 454.38,304.46 456.02,303.92 457.69,297.98 459.34,35.00 461.00,304.46 462.66,303.92 464.35,304.46 466.01,303.92 467.67,35.00 469.33,303.92 470.98,304.46 472.64,35.00 474.28,303.92 475.94,304.46 477.60,304.46 479.26,35.00 480.92,303.92 482.58,303.92 484.25,35.00 485.90,303.92 487.56,303.92 489.23,35.00 490.90,303.92 492.55,304.46 494.20,303.92 495.87,304.46 497.55,303.92 499.21,35.00 500.86,304.46 502.52,35.00 504.36,35.00 506.02,303.92 507.68,303.38 509.34,303.38 511.01,303.38 512.68,35.00 514.34,304.46 516.00,304.46 517.64,304.46 519.35,35.00 521.03,304.46 522.68,304.46 524.33,304.46 525.99,35.00 527.65,304.46 529.30,304.46 531.02,293.66 532.68,303.92 534.34,304.46 536.02,303.92 537.80,304.46 539.46,35.00 541.55,304.46 544.35,304.46 546.04,304.46 547.74,304.46 549.39,35.00 551.01,304.46 552.66,304.46 554.35,303.92 556.01,35.00 557.68,304.46 559.40,35.00 561.12,303.38 562.87,304.46 564.54,304.46 566.20,35.00 567.85,35.00 569.53,304.46 571.21,35.00 572.89,304.46 574.53,304.46 576.19,304.46 577.91,35.00 579.58,303.92 581.22,35.00 582.88,304.46 584.57,304.46 586.29,297.98 587.96,304.46 589.61,35.00 591.32,293.12 592.91,35.00 594.55,303.92 596.24,35.00 597.89,304.46 599.58,304.46 601.29,303.92 602.95,304.46 604.60,304.46 606.28,303.92 607.96,303.92 609.61,304.46 611.27,303.92 612.91,35.00 614.58,304.46 616.24,304.46 617.89,304.46 619.86,304.46 621.81,303.92 623.78,304.46 625.70,304.46 627.60,303.38 629.51,303.92 631.47,303.92 633.40,304.46 635.06,35.00 636.70,35.00 638.35,304.46 640.01,304.46 641.66,303.92 643.31,304.46 644.96,303.92 646.60,35.00 648.26,304.46 649.92,304.46 651.57,304.46 653.22,304.46 654.87,293.12 656.51,304.46 658.17,35.00 659.82,303.92 661.47,303.92 663.11,304.46 664.78,304.46 666.44,35.00 668.08,303.92 669.72,304.46 671.37,304.46 673.03,304.46 674.68,35.00 676.34,297.98 677.99,303.92 679.65,303.38 681.31,304.46 682.96,35.00 684.61,302.84 686.26,303.92 687.91,35.00 689.56,35.00 691.19,303.92 692.83,302.84 694.48,304.46 696.13,303.38 697.77,35.00 699.42,304.46 701.07,304.46 702.72,304.46 704.36,303.92 706.00,304.46 707.62,35.00 709.33,304.46 711.11,303.92 712.78,35.00 714.44,303.92 716.08,303.92 717.73,304.46 719.37,304.46 721.01,304.46 722.66,303.92 724.62,304.46 726.56,304.46 728.49,303.92 730.43,304.46 732.38,303.92 734.31,303.92 736.28,304.46 738.29,303.92 740.10,303.92 741.88,303.92 743.53,35.00 745.21,35.00 746.87,35.00 748.50,303.92 750.15,304.46 751.81,304.46 753.46,304.46 755.11,304.46 756.76,304.46 758.41,35.00 760.07,304.46 761.72,303.38 763.40,35.00 765.05,35.00 766.70,303.92 768.14,282.32 769.85,282.05 771.51,304.46 773.20,35.00 774.86,303.38 776.50,304.46 778.17,35.00 779.84,35.00 781.50,35.00 783.18,303.92 784.84,304.46 786.53,304.46 788.17,303.92 789.81,35.00 791.47,303.38 793.11,303.92 794.76,304.46 796.40,303.92 798.07,304.46 799.72,304.46 801.38,304.46 803.03,304.46 804.68,304.46 806.35,303.92 808.00,303.92 809.66,303.92 811.33,304.46 812.98,304.46 814.63,35.00 816.31,35.00 817.97,304.46 819.68,304.46 821.31,304.46 822.96,303.92 824.61,35.00 826.25,303.92 827.90,35.00 829.57,303.92 831.22,304.46 832.87,35.00 834.52,304.46 836.17,35.00 837.82,304.46 839.48,303.92 841.15,304.46 842.81,302.84 844.80,303.92 846.50,303.92 848.20,304.46 849.87,304.46 851.53,303.38 853.21,303.92 854.85,299.06 856.50,35.00 858.17,304.46 859.84,303.92 861.49,304.46 863.15,35.00 864.81,303.92 866.47,303.92 868.18,304.46 869.87,303.92 871.52,35.00 873.18,304.46 874.84,35.00 876.49,303.92 878.14,35.00 879.80,303.38 881.53,304.46 883.19,304.46 884.86,35.00 886.51,304.46 888.17,304.46 889.83,304.46 891.48,303.92 893.14,35.00 894.80,303.38 896.47,304.46 898.13,304.46 899.79,35.00 901.44,304.46 903.10,35.00 904.75,304.46 906.44,304.46 908.10,291.50 909.75,303.92 911.39,304.46 913.05,304.46 914.74,303.38 916.40,303.92 918.39,303.38 920.10,303.92 921.75,35.00 923.41,35.00 925.06,304.46 926.73,303.38 928.38,304.46 930.05,35.00 931.74,303.92 933.39,304.46 935.04,35.00 936.69,303.92 938.35,35.00 940.00,304.46 941.65,304.46 943.32,35.00 944.97,304.46 946.62,304.46 948.27,35.00 949.92,304.46 951.60,304.46 953.25,304.46 954.90,303.92 956.58,35.00 958.25,304.46 959.90,304.46 961.55,35.00 963.22,304.46 964.92,303.38 966.57,35.00 968.23,304.46 969.90,304.46 971.56,303.92 973.20,304.46 974.87,304.46 976.53,304.46 978.23,304.46 979.88,304.46 981.54,304.46 983.18,303.92 984.83,304.46 986.49,303.92 988.15,304.46 989.80,35.00 991.47,304.46 993.15,304.46 994.82,303.92 996.44,35.00 998.12,304.46 999.77,304.46 1001.43,304.46 1003.08,304.46 1004.74,303.92 1006.39,304.46 1008.07,304.46 1009.73,35.00 1011.38,304.46 1013.05,303.92 1014.73,35.00 1016.39,35.00 1018.05,303.92 1019.72,281.24 1021.59,304.46 1023.41,304.46 1025.18,35.00 1026.86,303.92 1028.59,303.92 1030.25,304.46 1031.91,304.46 1033.55,303.92 1035.10,293.12 1036.83,303.92 1038.49,292.58 1040.17,294.20 1041.80,293.12 1043.47,303.92 1045.11,304.46 1046.79,303.92 1048.44,303.38 1050.10,304.46 1051.75,304.46 1053.42,304.46 1055.08,303.92 1056.75,35.00 1058.42,35.00 1060.10,35.00 1061.76,35.00 1063.42,304.46 1065.08,35.00 1066.78,304.46 1068.44,303.92 1070.08,304.46 1071.74,303.92 1073.40,303.92 1075.05,304.46 1076.71,303.92 1078.37,304.46 1080.03,304.46 1081.71,35.00 1083.36,304.46 1085.01,304.46 1086.67,35.00 1088.34,303.92 1090.01,35.00 1091.67,303.92 1093.32,35.00 1094.99,304.46 1096.65,35.00 1098.32,304.46 1099.99,304.46 1101.66,303.92 1103.33,304.46 1104.98,35.00 1106.65,303.92 1108.31,304.46 1109.99,304.46 1111.70,304.46 1113.36,304.46 1115.03,303.92 1116.69,302.84 1118.34,304.46 1120.00,304.46 1121.67,304.46 1123.33,304.46 1125.00,303.92 1126.66,304.46 1128.33,303.38 1129.99,35.00 1131.65,35.00 1133.33,303.38 1135.00,35.00 1136.67,304.46 1138.34,303.92 1140.01,304.46 1141.69,303.92 1143.35,304.46 1145.00,35.00 1146.67,35.00 1148.34,35.00 1150.03,303.92 1151.70,303.92 1153.38,303.92 1155.05,304.46 1156.69,303.92 1158.35,304.46 1160.01,304.46 1161.68,304.46 1163.35,304.46 1165.01,304.46 1166.67,304.46 1168.32,35.00 1169.99,304.46 1171.67,35.00 1173.33,304.46 1174.98,304.46 1176.67,304.46 1178.33,304.46 1180.00,303.92"/>
<polyline fill="none" stroke="#d62728" stroke-opacity="0.50" stroke-width="2" points="70.00,302.84 71.66,302.84 73.32,303.92 74.98,303.92 76.64,303.92 78.31,303.38 79.96,303.92 81.62,302.57 83.42,303.38 85.06,302.84 86.71,303.92 88.36,303.38 90.05,302.84 91.69,303.38 93.34,287.18 96.33,303.38 98.90,303.38 100.57,303.38 102.27,303.92 103.92,302.84 105.58,293.12 107.20,303.38 108.87,303.38 110.53,303.38 112.20,303.38 113.86,303.38 115.55,303.38 117.22,303.92 118.88,303.38 120.62,303.92 122.30,303.92 123.95,303.38 125.65,303.38 127.31,303.38 128.97,302.03 130.68,303.38 132.32,303.92 133.98,303.92 135.67,303.38 137.30,303.92 138.96,303.92 140.60,303.92 142.25,302.84 143.92,303.92 145.57,303.38 147.26,303.92 148.93,302.84 150.57,303.92 152.23,302.84 153.90,303.38 155.56,302.84 157.45,303.38 159.11,303.92 160.76,303.38 162.41,303.92 164.06,303.38 165.70,303.38 167.35,303.92 169.01,302.30 170.66,303.92 172.35,303.92 174.01,304.46 175.64,303.92 177.31,303.92 178.99,303.92 180.65,303.38 182.31,289.61 183.95,303.92 185.59,303.38 187.24,302.84 188.88,299.87 190.53,303.92 192.19,303.92 193.84,304.46 195.49,303.92 197.16,302.03 198.80,304.46 200.46,303.38 202.11,303.38 203.76,302.84 205.46,302.57 207.11,303.92 208.76,303.92 210.43,303.92 212.08,303.38 213.74,303.38 215.40,302.84 217.03,303.38 218.68,302.84 220.35,303.92 222.01,303.38 223.67,294.20 225.34,303.38 226.97,303.38 228.64,303.92 230.29,303.92 231.94,302.57 233.58,303.38 235.24,302.84 236.88,302.84 238.55,302.57 240.21,303.92 241.87,303.92 243.53,303.92 245.21,303.92 246.88,302.84 248.53,303.92 250.18,303.92 251.83,302.84 253.48,303.92 255.15,302.84 256.81,302.84 258.46,303.92 260.12,303.92 261.78,303.92 263.45,303.92 265.11,302.57 266.80,303.92 268.45,303.92 270.11,303.38 271.76,303.38 273.42,303.92 275.07,304.46 276.74,303.92 278.54,303.92 280.18,303.38 281.86,303.92 283.52,303.92 285.16,304.46 286.80,303.38 288.43,302.84 290.08,303.92 291.74,302.84 293.40,303.92 295.04,303.38 296.70,303.38 298.35,304.46 299.99,303.38 301.68,303.92 303.33,302.57 304.98,302.03 306.63,303.92 308.29,303.92 309.94,303.38 311.60,303.38 313.27,303.92 314.92,303.38 316.58,303.38 318.24,302.84 319.88,302.57 321.53,303.38 323.18,302.03 324.83,302.03 326.50,302.03 328.17,302.84 329.83,302.03 331.48,302.84 333.16,302.84 334.82,302.57 336.46,302.03 338.12,303.92 339.78,303.38 341.47,303.92 343.14,303.92 344.79,303.38 346.46,302.84 348.10,303.92 349.74,303.92 351.40,303.92 353.05,296.90 354.70,303.38 356.34,302.84 357.99,303.92 359.66,303.92 361.32,302.84 362.98,303.92 364.64,302.84 366.33,303.92 367.99,303.92 369.64,303.38 371.29,303.92 372.93,303.92 374.73,299.33 376.43,303.38 378.07,303.92 379.72,303.38 381.35,303.92 383.01,304.46 384.67,303.92 386.33,303.38 388.00,303.92 389.64,302.84 391.29,303.38 392.95,303.38 394.64,303.92 396.30,303.92 397.94,303.92 399.59,302.84 401.27,303.92 402.96,303.38 404.65,303.92 406.29,303.92 407.95,303.38 409.61,302.84 411.26,303.38 412.92,303.38 414.58,303.92 416.26,303.92 417.91,302.84 419.55,303.92 421.23,303.38 422.88,303.92 424.54,303.92 426.20,303.38 427.88,303.92 429.53,302.30 431.18,303.92 432.82,303.38 434.47,303.92 436.13,302.84 437.79,303.92 439.43,302.84 441.09,303.92 442.72,303.92 444.38,303.92 446.05,303.92 447.71,302.84 449.37,303.92 451.05,303.92 452.71,299.87 454.38,303.92 456.02,302.84 457.69,302.84 459.34,303.92 461.00,303.92 462.66,303.92 464.35,304.46 466.01,304.46 467.67,303.38 469.33,303.38 470.98,303.38 472.64,303.92 474.28,303.92 475.94,302.84 477.60,303.92 479.26,303.92 480.92,303.38 482.58,303.38 484.25,303.92 485.90,302.57 487.56,303.92 489.23,302.84 490.90,303.92 492.55,303.92 494.20,303.38 495.87,303.92 497.55,304.46 499.21,303.38 500.86,302.84 502.52,303.38 504.36,303.92 506.02,303.38 507.68,303.92 509.34,303.92 511.01,303.38 512.68,303.38 514.34,303.38 516.00,303.38 517.64,303.92 519.35,302.84 521.03,303.92 522.68,303.92 524.33,303.92 525.99,303.92 527.65,302.84 529.30,303.38 531.02,303.38 532.68,303.92 534.34,302.84 536.02,303.92 537.80,303.92 539.46,293.39 541.55,293.12 544.35,303.92 546.04,302.84 547.74,292.58 549.39,302.03 551.01,302.84 552.66,304.46 554.35,303.92 556.01,303.92 557.68,303.92 559.40,304.46 561.12,303.92 562.87,303.92 564.54,302.84 566.20,303.38 567.85,303.38 569.53,303.92 571.21,303.38 572.89,302.84 574.53,294.74 576.19,303.38 577.91,303.92 579.58,303.92 581.22,303.92 582.88,303.92 584.57,303.38 586.29,303.92 587.96,303.38 589.61,303.92 591.32,303.38 592.91,302.57 594.55,303.92 596.24,303.92 597.89,303.92 599.58,304.46 601.29,303.38 602.95,303.38 604.60,303.38 606.28,304.46 607.96,303.92 609.61,303.92 611.27,303.38 612.91,303.92 614.58,303.92 616.24,303.92 617.89,303.92 619.86,300.41 621.81,303.92 623.78,303.38 625.70,303.92 627.60,303.92 629.51,303.92 631.47,302.84 633.40,303.92 635.06,303.92 636.70,303.92 638.35,303.38 640.01,302.84 641.66,302.84 643.31,303.92 644.96,303.92 646.60,303.38 648.26,304.46 649.92,304.46 651.57,303.92 653.22,292.58 654.87,302.84 656.51,304.46 658.17,303.38 659.82,303.92 661.47,303.38 663.11,303.38 664.78,303.38 666.44,303.38 668.08,303.38 669.72,304.46 671.37,303.38 673.03,304.46 674.68,303.92 676.34,303.38 677.99,303.92 679.65,303.38 681.31,295.82 682.96,302.84 684.61,303.92 686.26,302.84 687.91,299.87 689.56,303.92 691.19,303.38 692.83,302.84 694.48,303.92 696.13,303.92 697.77,303.38 699.42,303.92 701.07,303.38 702.72,303.92 704.36,303.38 706.00,304.46 707.62,303.92 709.33,303.92 711.11,303.92 712.78,303.92 714.44,303.92 716.08,303.38 717.73,302.57 719.37,303.92 721.01,303.92 722.66,303.92 724.62,302.84 726.56,302.84 728.49,303.92 730.43,302.30 732.38,303.92 734.31,303.92 736.28,303.92 738.29,303.92 740.10,303.92 741.88,303.92 743.53,303.38 745.21,303.38 746.87,303.38 748.50,303.38 750.15,303.92 751.81,303.92 753.46,292.85 755.11,303.92 756.76,302.57 758.41,303.38 760.07,303.92 761.72,303.92 763.40,303.38 765.05,303.92 766.70,302.30 768.14,303.92 769.85,303.92 771.51,304.46 773.20,303.38 774.86,303.92 776.50,303.92 778.17,303.38 779.84,303.92 781.50,303.92 783.18,303.92 784.84,304.46 786.53,303.92 788.17,303.38 789.81,303.92 791.47,303.92 793.11,303.92 794.76,302.84 796.40,303.38 798.07,303.92 799.72,303.92 801.38,303.38 803.03,303.92 804.68,303.38 806.35,303.38 808.00,303.92 809.66,303.38 811.33,303.92 812.98,303.92 814.63,303.92 816.31,303.92 817.97,303.92 819.68,303.92 821.31,303.92 822.96,302.84 824.61,302.84 826.25,303.92 827.90,304.46 829.57,302.03 831.22,303.38 832.87,303.92 834.52,303.92 836.17,303.92 837.82,302.84 839.48,303.38 841.15,303.38 842.81,303.38 844.80,303.92 846.50,303.92 848.20,303.38 849.87,302.57 851.53,303.92 853.21,302.84 854.85,303.92 856.50,303.92 858.17,303.92 859.84,304.46 861.49,302.57 863.15,302.57 864.81,303.38 866.47,303.92 868.18,303.92 869.87,303.38 871.52,303.38 873.18,302.84 874.84,303.92 876.49,300.95 878.14,303.92 879.80,302.84 881.53,303.38 883.19,303.92 884.86,303.38 886.51,302.84 888.17,303.92 889.83,303.38 891.48,303.92 893.14,303.38 894.80,303.92 896.47,303.92 898.13,303.92 899.79,303.38 901.44,303.38 903.10,303.92 904.75,303.92 906.44,303.92 908.10,303.92 909.75,303.92 911.39,300.95 913.05,290.69 914.74,303.92 916.40,302.84 918.39,303.92 920.10,303.38 921.75,303.38 923.41,303.92 925.06,304.46 926.73,303.92 928.38,303.92 930.05,303.38 931.74,303.38 933.39,302.84 935.04,304.46 936.69,303.92 938.35,303.38 940.00,304.46 941.65,304.46 943.32,303.38 944.97,303.38 946.62,303.92 948.27,303.38 949.92,304.46 951.60,303.38 953.25,302.84 954.90,304.46 956.58,303.92 958.25,303.92 959.90,303.38 961.55,303.38 963.22,303.92 964.92,303.92 966.57,300.95 968.23,303.92 969.90,302.84 971.56,303.92 973.20,303.38 974.87,303.38 976.53,302.03 978.23,302.03 979.88,303.92 981.54,302.84 983.18,302.84 984.83,302.57 986.49,303.38 988.15,303.38 989.80,303.38 991.47,303.38 993.15,291.77 994.82,274.49 996.44,302.84 998.12,292.85 999.77,302.84 1001.43,303.38 1003.08,303.92 1004.74,303.92 1006.39,303.92 1008.07,303.38 1009.73,303.38 1011.38,304.46 1013.05,302.84 1014.73,303.92 1016.39,302.57 1018.05,303.92 1019.72,303.92 1021.59,304.46 1023.41,304.46 1025.18,303.92 1026.86,303.92 1028.59,303.92 1030.25,303.38 1031.91,303.92 1033.55,303.38 1035.10,303.38 1036.83,303.38 1038.49,303.92 1040.17,303.92 1041.80,303.38 1043.47,303.38 1045.11,303.38 1046.79,303.92 1048.44,303.38 1050.10,303.92 1051.75,303.92 1053.42,303.92 1055.08,303.92 1056.75,303.38 1058.42,303.92 1060.10,303.92 1061.76,302.84 1063.42,303.38 1065.08,303.38 1066.78,302.57 1068.44,303.38 1070.08,302.57 1071.74,302.57 1073.40,301.49 1075.05,303.92 1076.71,303.38 1078.37,303.92 1080.03,302.84 1081.71,303.38 1083.36,303.92 1085.01,303.38 1086.67,303.38 1088.34,303.38 1090.01,303.92 1091.67,303.92 1093.32,304.46 1094.99,303.92 1096.65,303.92 1098.32,302.57 1099.99,303.38 1101.66,303.38 1103.33,303.92 1104.98,302.84 1106.65,302.84 1108.31,303.38 1109.99,303.38 1111.70,303.92 1113.36,303.38 1115.03,303.92 1116.69,303.92 1118.34,300.41 1120.00,303.92 1121.67,303.38 1123.33,303.92 1125.00,303.92 1126.66,303.92 1128.33,303.38 1129.99,304.46 1131.65,303.38 1133.33,302.84 1135.00,303.92 1136.67,303.92 1138.34,303.38 1140.01,303.92 1141.69,303.92 1143.35,303.92 1145.00,303.92 1146.67,303.92 1148.34,303.38 1150.03,302.84 1151.70,303.92 1153.38,303.38 1155.05,303.92 1156.69,303.92 1158.35,303.38 1160.01,303.92 1161.68,303.92 1163.35,303.38 1165.01,303.92 1166.67,303.38 1168.32,302.84 1169.99,303.38 1171.67,302.03 1173.33,292.85 1174.98,303.92 1176.67,302.57 1178.33,303.38 1180.00,302.84"/>
<rect x="70" y="332" width="12" height="12" fill="#d62728" fill-opacity="0.95"/>
<text x="88" y="342" font-size="11" fill="#333" font-family="Arial, Helvetica, sans-serif">nsc1.utdallas.edu</text>
<rect x="350" y="332" width="12" height="12" fill="#d62728" fill-opacity="0.80"/>
<text x="368" y="342" font-size="11" fill="#333" font-family="Arial, Helvetica, sans-serif">nsc2.utdallas.edu</text>
<rect x="630" y="332" width="12" height="12" fill="#d62728" fill-opacity="0.65"/>
<text x="648" y="342" font-size="11" fill="#333" font-family="Arial, Helvetica, sans-serif">nsc3.utdallas.edu</text>
<rect x="910" y="332" width="12" height="12" fill="#d62728" fill-opacity="0.50"/>
<text x="928" y="342" font-size="11" fill="#333" font-family="Arial, Helvetica, sans-serif">nsc4.utdallas.edu</text>
</svg>