<?xml version="1.0" encoding="UTF-8"?>
<svg xmlns="http://www.w3.org/2000/svg" width="1200" height="360" viewBox="0 0 1200 360" role="img" aria-label="CPU Utilization (%)">
<rect width="100%" height="100%" fill="#ffffff"/>
<text x="600.0" y="22" text-anchor="middle" font-size="16" font-family="Arial, Helvetica, sans-serif" font-weight="bold">CPU Utilization (%)</text>
<line x1="70" y1="35.00" x2="1180" y2="35.00" stroke="#e3e3e3" stroke-width="1"/>
<text x="62" y="39.00" text-anchor="end" font-size="11" fill="#444" font-family="Arial, Helvetica, sans-serif">100</text>
<line x1="70" y1="89.00" x2="1180" y2="89.00" stroke="#e3e3e3" stroke-width="1"/>
<text x="62" y="93.00" text-anchor="end" font-size="11" fill="#444" font-family="Arial, Helvetica, sans-serif">80</text>
<line x1="70" y1="143.00" x2="1180" y2="143.00" stroke="#e3e3e3" stroke-width="1"/>
<text x="62" y="147.00" text-anchor="end" font-size="11" fill="#444" font-family="Arial, Helvetica, sans-serif">60</text>
<line x1="70" y1="197.00" x2="1180" y2="197.00" stroke="#e3e3e3" stroke-width="1"/>
<text x="62" y="201.00" text-anchor="end" font-size="11" fill="#444" font-family="Arial, Helvetica, sans-serif">40</text>
<line x1="70" y1="251.00" x2="1180" y2="251.00" stroke="#e3e3e3" stroke-width="1"/>
<text x="62" y="255.00" text-anchor="end" font-size="11" fill="#444" font-family="Arial, Helvetica, sans-serif">20</text>
<line x1="70" y1="305.00" x2="1180" y2="305.00" stroke="#e3e3e3" stroke-width="1"/>
<text x="62" y="309.00" text-anchor="end" font-size="11" fill="#444" font-family="Arial, Helvetica, sans-serif">0</text>
<line x1="70" y1="35" x2="70" y2="305" stroke="#999"/>
<line x1="70" y1="305" x2="1180" y2="305" stroke="#999"/>
<text x="70.00" y="323" text-anchor="middle" font-size="10" fill="#444" font-family="Arial, Helvetica, sans-serif">2026-02-11 16:38</text>
<text x="347.50" y="323" text-anchor="middle" font-size="10" fill="#444" font-family="Arial, Helvetica, sans-serif">2026-02-12 03:48</text>
<text x="625.00" y="323" text-anchor="middle" font-size="10" fill="#444" font-family="Arial, Helvetica, sans-serif">2026-02-12 14:59</text>
<text x="902.50" y="323" text-anchor="middle" font-size="10" fill="#444" font-family="Arial, Helvetica, sans-serif">2026-02-13 02:10</text>
<text x="1180.00" y="323" text-anchor="middle" font-size="10" fill="#444" font-family="Arial, Helvetica, sans-serif">2026-02-13 13:20</text>
<polyline fill="none" stroke="#d62728" stroke-opacity="0.95" stroke-width="2" points="72.23,304.46 74.46,298.79 76.68,296.90 78.92,303.92 81.16,304.73 83.37,304.46 85.61,303.92 88.02,304.73 90.23,303.92 92.45,304.46 94.66,303.92 96.92,304.46 99.14,304.46 101.35,303.92 105.36,304.46 108.81,303.92 111.06,304.46 113.34,303.92 115.56,300.95 117.78,304.73 119.96,278.27 122.21,303.92 124.43,304.46 126.67,294.74 128.91,304.46 131.18,303.92 133.42,301.49 135.65,303.92 137.99,295.28 140.24,294.20 142.46,303.65 144.74,304.46 146.97,304.46 149.19,303.92 151.49,303.65 153.70,302.30 155.93,303.92 158.19,304.46 160.39,303.92 162.62,304.73 164.82,304.73 167.04,304.46 169.28,303.38 171.49,304.46 173.77,303.92 176.01,303.38 178.21,304.46 180.43,297.71 182.68,297.44 184.91,48.23 187.45,303.92 189.68,303.92 191.90,304.46 194.11,303.65 196.32,303.65 198.53,304.46 200.74,304.46 202.98,303.92 205.20,304.46 207.47,303.92 209.69,304.46 211.89,304.46 214.13,299.60 216.38,303.65 218.60,303.92 220.84,304.73 223.04,303.92 225.24,304.73 227.46,304.46 229.66,304.46 231.89,304.46 234.11,303.92 236.32,304.73 238.55,303.92 240.78,304.46 242.98,304.73 245.22,303.38 247.43,303.38 249.64,303.65 251.93,304.46 254.15,303.65 256.37,304.73 258.61,304.46 260.82,304.46 263.06,304.73 265.28,303.92 267.48,303.92 269.68,304.46 271.92,304.73 274.17,299.60 276.39,303.65 278.63,304.46 280.83,304.73 283.06,303.65 285.27,303.92 287.50,304.46 289.70,304.46 291.93,303.92 294.14,303.92 296.38,303.92 298.61,304.46 300.83,303.92 303.06,303.92 305.31,298.79 307.56,303.65 309.78,304.46 311.99,304.73 314.21,304.73 316.42,304.46 318.67,304.46 320.90,304.46 323.12,304.46 325.34,302.84 327.58,304.46 329.81,304.46 332.05,304.46 334.31,304.46 336.53,304.46 338.75,304.46 340.98,303.65 343.20,304.73 345.42,303.38 347.66,304.46 350.08,304.46 352.29,304.73 354.55,303.92 356.77,303.92 358.97,304.46 361.18,299.87 363.37,304.46 365.59,304.73 367.81,295.01 370.03,304.46 372.25,303.92 374.47,303.92 376.69,303.92 378.90,304.46 381.16,303.65 383.38,304.46 385.60,304.46 387.81,304.46 390.04,303.92 392.25,303.92 394.49,303.92 396.72,304.73 398.95,304.46 401.18,304.46 403.40,303.92 405.60,304.46 407.82,303.65 410.04,303.92 412.26,303.65 414.49,304.73 416.74,304.46 418.97,304.46 421.19,304.46 423.44,303.11 425.67,303.38 427.87,304.46 430.11,304.46 432.33,304.46 434.60,303.65 436.85,303.92 439.06,304.46 441.30,297.71 443.51,294.20 445.71,303.92 447.93,304.46 450.16,303.65 452.37,297.71 454.57,304.46 456.79,303.92 459.04,304.46 461.26,304.46 463.50,303.92 465.72,303.38 467.99,304.73 470.21,303.92 472.43,303.38 474.65,303.92 476.85,304.46 479.28,304.46 481.55,303.92 483.76,304.73 485.97,304.46 488.16,304.46 490.40,304.73 492.62,304.46 494.85,304.73 497.09,35.00 499.30,303.65 501.52,303.11 503.74,297.17 506.02,304.46 508.24,304.46 510.45,304.46 512.67,303.92 514.91,303.65 517.18,304.46 519.46,303.11 521.67,304.73 523.89,304.46 526.12,303.92 528.33,304.73 530.57,304.46 532.80,303.92 535.05,304.73 537.26,304.46 539.47,304.46 541.72,304.46 543.95,303.92 546.17,303.65 548.39,304.46 550.65,303.65 552.88,304.46 555.09,301.76 557.29,302.03 559.50,304.46 561.74,304.46 563.96,304.46 566.17,35.00 568.39,303.65 570.59,303.92 572.81,304.46 575.06,304.46 577.28,303.65 579.52,304.46 581.77,304.73 584.00,304.46 586.24,304.73 588.45,35.00 590.69,304.73 592.91,303.65 595.14,304.46 597.36,303.65 599.64,304.73 601.87,300.68 604.10,303.65 606.33,303.92 608.54,304.46 610.78,304.46 612.98,304.46 615.20,304.46 617.44,304.73 619.67,304.73 621.89,304.73 624.12,303.65 626.36,303.92 628.58,303.92 630.81,304.73 633.05,35.00 635.30,304.46 637.51,303.92 639.73,304.73 641.97,303.92 644.22,304.73 646.46,303.92 648.68,304.46 650.90,303.92 653.37,304.73 655.61,304.46 657.84,303.65 660.06,304.46 662.31,304.46 664.55,303.92 666.77,304.46 669.01,303.65 671.21,304.73 673.51,295.28 675.77,297.17 677.97,304.46 680.19,304.46 682.42,304.46 684.65,304.73 686.88,304.46 689.19,303.65 691.41,304.46 693.63,303.92 695.89,304.73 698.29,304.73 700.52,304.73 703.32,303.65 707.08,304.46 709.36,303.92 711.63,303.92 713.85,304.73 716.03,304.46 718.25,303.92 720.51,303.65 722.74,304.46 724.98,304.73 727.30,303.92 729.60,35.00 731.96,303.65 734.20,304.46 736.42,304.73 738.65,303.92 740.91,303.92 743.16,303.65 745.41,304.46 747.62,303.92 749.84,304.46 752.16,304.46 754.40,304.46 756.60,304.46 758.84,304.46 761.10,303.92 763.41,304.46 765.65,303.92 767.88,303.92 770.17,303.65 772.30,303.92 774.51,303.65 776.78,303.92 778.99,303.92 781.25,303.92 783.55,303.11 785.79,303.92 788.01,303.92 790.26,304.46 792.51,304.46 794.74,303.65 796.96,304.73 799.16,299.06 801.41,304.73 803.64,304.46 805.85,48.23 808.50,48.50 811.12,48.77 813.76,48.50 816.34,48.23 818.89,48.50 821.45,48.50 824.09,48.77 826.68,304.46 828.91,304.46 831.11,304.46 833.33,303.92 835.55,304.46 837.78,304.46 839.99,303.92 842.20,304.19 844.42,303.65 846.64,304.73 848.86,303.92 851.08,303.92 853.30,304.46 855.52,304.73 857.73,304.73 859.95,304.46 862.16,304.46 864.39,304.46 866.59,303.92 868.82,304.46 871.06,304.73 873.26,303.65 875.47,304.46 877.68,35.00 879.90,304.46 882.13,304.46 884.36,304.73 886.57,304.46 888.80,304.73 891.03,35.00 893.24,304.46 895.46,304.46 897.68,304.73 899.89,303.92 902.11,303.92 904.30,303.92 906.49,303.38 908.72,304.73 910.93,303.65 913.14,304.46 915.35,303.92 917.56,304.46 919.78,304.73 921.98,303.92 924.18,303.38 926.37,304.73 928.67,303.65 931.06,304.73 933.29,304.73 935.52,304.46 937.73,303.92 939.95,303.65 942.15,297.44 944.35,297.71 946.57,48.50 949.20,48.50 951.80,48.50 954.39,48.23 956.99,48.50 959.62,48.23 962.21,48.50 964.86,48.77 967.56,295.82 969.99,297.17 972.37,304.73 974.60,303.92 976.85,303.92 979.08,304.73 981.28,303.92 983.49,304.46 985.72,304.46 987.93,304.46 990.15,304.46 992.36,304.46 994.59,304.73 996.81,303.11 999.03,304.73 1001.28,303.92 1003.49,304.46 1005.71,304.73 1007.65,304.46 1009.95,303.92 1012.17,304.73 1014.45,304.73 1016.67,304.73 1018.88,303.92 1021.12,35.00 1023.36,304.73 1025.60,304.73 1027.84,304.46 1030.08,304.73 1032.35,303.65 1034.55,304.46 1036.75,304.73 1038.98,304.73 1041.18,304.73 1043.40,35.00 1045.60,303.92 1047.85,303.92 1050.06,303.92 1052.29,303.65 1054.51,304.46 1056.72,304.46 1058.96,303.92 1061.18,304.46 1063.41,304.46 1065.66,304.73 1067.88,303.92 1070.09,301.22 1072.34,304.46 1074.57,304.46 1076.86,304.46 1079.06,303.65 1081.28,304.46 1083.50,304.73 1085.70,304.46 1087.91,300.68 1090.16,303.92 1092.37,304.73 1094.58,304.46 1096.81,304.73 1099.01,303.38 1101.23,303.92 1103.47,304.73 1105.71,304.73 1107.93,303.92 1110.61,303.92 1112.89,303.92 1115.18,303.65 1117.42,304.46 1119.65,302.84 1121.90,304.46 1124.10,304.46 1126.31,303.92 1128.56,303.92 1130.80,303.11 1133.02,304.73 1135.25,304.46 1137.49,304.46 1139.71,304.46 1142.01,304.73 1144.27,304.73 1146.50,304.46 1148.73,304.73 1150.95,304.73 1153.17,302.57 1155.39,302.84 1157.62,301.22 1159.93,303.92 1162.17,304.46 1164.41,304.46 1166.63,304.46 1168.85,303.92 1171.09,304.73 1173.30,304.46 1175.53,304.46 1177.77,303.92 1180.00,304.46"/>
<polyline fill="none" stroke="#d62728" stroke-opacity="0.80" stroke-width="2" points="70.00,303.38 72.23,304.19 74.46,302.57 76.68,303.38 78.92,304.19 81.16,287.72 83.37,303.38 85.61,304.19 88.02,304.19 90.23,303.38 92.45,303.38 94.66,304.19 96.92,304.19 99.14,304.19 101.35,304.19 105.36,304.19 108.81,302.57 111.06,304.19 113.34,304.19 115.56,304.19 117.78,303.38 119.96,303.38 122.21,304.19 124.43,302.57 126.67,302.57 128.91,303.38 131.18,303.38 133.42,304.19 135.65,303.38 137.99,35.00 140.24,303.38 142.46,35.00 144.74,35.00 146.97,303.38 149.19,304.19 151.49,35.00 153.70,303.38 155.93,302.57 158.19,304.19 160.39,303.38 162.62,303.38 164.82,302.57 167.04,304.19 169.28,303.38 171.49,303.38 173.77,302.57 176.01,303.38 178.21,35.00 180.43,303.38 182.68,304.19 184.91,304.19 187.45,302.57 189.68,35.00 191.90,304.19 194.11,303.38 196.32,304.19 198.53,303.38 200.74,303.38 202.98,304.19 205.20,35.00 207.47,304.19 209.69,304.19 211.89,304.19 214.13,303.38 216.38,304.19 218.60,302.57 220.84,304.19 223.04,302.57 225.24,302.57 227.46,303.38 229.66,288.80 231.89,302.57 234.11,304.19 236.32,304.19 238.55,303.38 240.78,304.19 242.98,300.14 245.22,304.19 247.43,304.19 249.64,304.19 251.93,35.00 254.15,35.00 256.37,302.57 258.61,35.00 260.82,35.00 263.06,303.38 265.28,304.19 267.48,35.00 269.68,304.19 271.92,304.19 274.17,304.19 276.39,304.19 278.63,303.38 280.83,303.38 283.06,304.19 285.27,304.19 287.50,303.38 289.70,286.91 291.93,303.38 294.14,304.19 296.38,304.19 298.61,304.19 300.83,303.38 303.06,304.19 305.31,304.19 307.56,303.38 309.78,302.57 311.99,302.57 314.21,304.19 316.42,302.57 318.67,304.19 320.90,304.19 323.12,304.19 325.34,35.00 327.58,304.19 329.81,304.19 332.05,302.57 334.31,35.00 336.53,35.00 338.75,303.38 340.98,304.19 343.20,303.38 345.42,304.19 347.66,304.19 350.08,302.57 352.29,304.19 354.55,35.00 356.77,35.00 358.97,302.57 361.18,304.19 363.37,304.19 365.59,303.38 367.81,35.00 370.03,303.38 372.25,35.00 374.47,304.19 376.69,304.19 378.90,304.19 381.16,303.38 383.38,303.38 385.60,304.19 387.81,304.19 390.04,295.28 392.25,35.00 394.49,303.38 396.72,35.00 398.95,35.00 401.18,302.57 403.40,304.19 405.60,299.33 407.82,304.19 410.04,304.19 412.26,304.19 414.49,303.38 416.74,303.38 418.97,303.38 421.19,302.57 423.44,303.38 425.67,304.19 427.87,303.38 430.11,304.19 432.33,303.38 434.60,304.19 436.85,303.38 439.06,303.38 441.30,302.57 443.51,303.38 445.71,304.19 447.93,303.38 450.16,35.00 452.37,304.19 454.57,303.38 456.79,302.57 459.04,304.19 461.26,304.19 463.50,303.38 465.72,303.38 467.99,304.19 470.21,35.00 472.43,303.38 474.65,35.00 476.85,302.57 479.28,303.38 481.55,304.19 483.76,35.00 485.97,303.38 488.16,35.00 490.40,304.19 492.62,304.19 494.85,35.00 497.09,304.19 499.30,302.57 501.52,302.57 503.74,303.38 506.02,35.00 508.24,302.57 510.45,304.19 512.67,301.76 514.91,303.38 517.18,303.38 519.46,304.19 521.67,303.38 523.89,303.38 526.12,304.19 528.33,304.19 530.57,303.38 532.80,304.19 535.05,304.19 537.26,303.38 539.47,35.00 541.72,304.19 543.95,303.38 546.17,304.19 548.39,304.19 550.65,304.19 552.88,35.00 555.09,35.00 557.29,302.57 559.50,302.57 561.74,304.19 563.96,303.38 566.17,302.57 568.39,302.57 570.59,35.00 572.81,304.19 575.06,35.00 577.28,303.38 579.52,35.00 581.77,303.38 584.00,303.38 586.24,303.38 588.45,35.00 590.69,304.19 592.91,302.57 595.14,303.38 597.36,304.19 599.64,303.38 601.87,35.00 604.10,303.38 606.33,304.19 608.54,303.38 610.78,304.19 612.98,35.00 615.20,302.57 617.44,304.19 619.67,304.19 621.89,303.38 624.12,303.38 626.36,304.19 628.58,303.38 630.81,304.19 633.05,304.19 635.30,304.19 637.51,303.38 639.73,302.57 641.97,304.19 644.22,35.00 646.46,295.28 648.68,303.38 650.90,302.57 653.37,303.38 655.61,301.76 657.84,35.00 660.06,304.19 662.31,303.38 664.55,304.19 666.77,304.19 669.01,299.33 671.21,304.19 673.51,303.38 675.77,302.57 677.97,303.38 680.19,302.57 682.42,304.19 684.65,304.19 686.88,304.19 689.19,302.57 691.41,303.38 693.63,303.38 695.89,35.00 698.29,303.38 700.52,303.38 703.32,304.19 707.08,302.57 709.36,303.38 711.63,303.38 713.85,303.38 716.03,304.19 718.25,303.38 720.51,304.19 722.74,304.19 724.98,303.38 727.30,304.19 729.60,304.19 731.96,304.19 734.20,304.19 736.42,302.57 738.65,35.00 740.91,304.19 743.16,302.57 745.41,303.38 747.62,303.38 749.84,303.38 752.16,304.19 754.40,304.19 756.60,303.38 758.84,304.19 761.10,303.38 763.41,304.19 765.65,303.38 767.88,304.19 770.17,287.18 772.30,288.53 774.51,301.76 776.78,302.57 778.99,303.38 781.25,35.00 783.55,35.00 785.79,303.38 788.01,303.38 790.26,304.19 792.51,304.19 794.74,35.00 796.96,304.19 799.16,35.00 801.41,303.38 803.64,303.38 805.85,302.57 808.50,303.38 811.12,303.38 813.76,300.95 816.34,303.38 818.89,302.57 821.45,304.19 824.09,304.19 826.68,35.00 828.91,303.38 831.11,303.38 833.33,304.19 835.55,304.19 837.78,302.57 839.99,303.38 842.20,304.19 844.42,303.38 846.64,303.38 848.86,304.19 851.08,303.38 853.30,304.19 855.52,303.38 857.73,303.38 859.95,304.19 862.16,303.38 864.39,35.00 866.59,304.19 868.82,304.19 871.06,303.38 873.26,304.19 875.47,304.19 877.68,35.00 879.90,303.38 882.13,304.19 884.36,304.19 886.57,304.19 888.80,302.57 891.03,35.00 893.24,303.38 895.46,287.72 897.68,304.19 899.89,304.19 902.11,303.38 904.30,301.76 906.49,303.38 908.72,304.19 910.93,302.57 913.14,303.38 915.35,303.38 917.56,303.38 919.78,303.38 921.98,304.19 924.18,303.38 926.37,302.57 928.67,304.19 931.06,303.38 933.29,303.38 935.52,303.38 937.73,303.38 939.95,304.19 942.15,304.19 944.35,304.19 946.57,304.19 949.20,303.38 951.80,303.38 954.39,304.19 956.99,302.57 959.62,304.19 962.21,303.38 964.86,302.57 967.56,304.19 969.99,303.38 972.37,303.38 974.60,303.38 976.85,302.57 979.08,35.00 981.28,35.00 983.49,304.19 985.72,303.38 987.93,35.00 990.15,35.00 992.36,303.38 994.59,304.19 996.81,304.19 999.03,304.19 1001.28,303.38 1003.49,304.19 1005.71,304.19 1007.65,304.19 1009.95,304.19 1012.17,287.72 1014.45,303.38 1016.67,302.57 1018.88,303.38 1021.12,303.38 1023.36,304.19 1025.60,304.19 1027.84,303.38 1030.08,302.57 1032.35,304.19 1034.55,303.38 1036.75,302.57 1038.98,304.19 1041.18,301.76 1043.40,304.19 1045.60,304.19 1047.85,303.38 1050.06,303.38 1052.29,304.19 1054.51,303.38 1056.72,301.76 1058.96,304.19 1061.18,304.19 1063.41,304.19 1065.66,35.00 1067.88,303.38 1070.09,304.19 1072.34,304.19 1074.57,304.19 1076.86,304.19 1079.06,35.00 1081.28,35.00 1083.50,302.57 1085.70,304.19 1087.91,35.00 1090.16,304.19 1092.37,303.38 1094.58,302.57 1096.81,302.57 1099.01,304.19 1101.23,303.38 1103.47,304.19 1105.71,303.38 1107.93,301.76 1110.61,304.19 1112.89,304.19 1115.18,304.19 1117.42,302.57 1119.65,304.19 1121.90,304.19 1124.10,304.19 1126.31,303.38 1128.56,304.19 1130.80,303.38 1133.02,35.00 1135.25,302.57 1137.49,304.19 1139.71,302.57 1142.01,304.19 1144.27,303.38 1146.50,304.19 1148.73,303.38 1150.95,35.00 1153.17,302.57 1155.39,303.38 1157.62,304.19 1159.93,304.19 1162.17,304.19 1164.41,304.19 1166.63,303.38 1168.85,304.19 1171.09,304.19 1173.30,304.19 1175.53,304.19 1177.77,304.19 1180.00,304.19"/>
<polyline fill="none" stroke="#d62728" stroke-opacity="0.65" stroke-width="2" points="70.00,35.00 72.23,304.46 74.46,304.46 76.68,302.30 78.92,304.46 81.16,303.38 83.37,304.46 85.61,304.46 88.02,35.00 90.23,304.46 92.45,304.46 94.66,303.92 96.92,303.92 99.14,304.46 101.35,304.46 105.36,303.92 108.81,304.46 111.06,35.00 113.34,303.92 115.56,302.84 117.78,304.46 119.96,303.92 122.21,302.84 124.43,35.00 126.67,303.92 128.91,35.00 131.18,35.00 133.42,35.00 135.65,303.92 137.99,35.00 140.24,303.38 142.46,303.92 144.74,304.46 146.97,35.00 149.19,35.00 151.49,304.46 153.70,35.00 155.93,304.46 158.19,35.00 160.39,304.46 162.62,303.92 164.82,35.00 167.04,304.46 169.28,304.46 171.49,293.12 173.77,35.00 176.01,304.46 178.21,304.46 180.43,304.46 182.68,35.00 184.91,304.46 187.45,304.46 189.68,304.46 191.90,35.00 194.11,35.00 196.32,304.46 198.53,304.46 200.74,303.38 202.98,303.92 205.20,304.46 207.47,35.00 209.69,304.46 211.89,304.46 214.13,35.00 216.38,304.46 218.60,303.92 220.84,304.46 223.04,304.46 225.24,35.00 227.46,303.92 229.66,303.92 231.89,304.46 234.11,303.92 236.32,303.92 238.55,35.00 240.78,303.92 242.98,304.46 245.22,304.46 247.43,303.38 249.64,35.00 251.93,304.46 254.15,303.38 256.37,304.46 258.61,35.00 260.82,304.46 263.06,304.46 265.28,303.92 267.48,303.92 269.68,303.92 271.92,304.46 274.17,303.92 276.39,304.46 278.63,303.92 280.83,35.00 283.06,303.92 285.27,303.92 287.50,304.46 289.70,304.46 291.93,303.92 294.14,303.92 296.38,35.00 298.61,35.00 300.83,303.92 303.06,35.00 305.31,304.46 307.56,304.46 309.78,304.46 311.99,304.46 314.21,303.92 316.42,304.46 318.67,303.38 320.90,304.46 323.12,303.92 325.34,35.00 327.58,304.46 329.81,303.92 332.05,303.92 334.31,303.92 336.53,304.46 338.75,35.00 340.98,304.46 343.20,304.46 345.42,35.00 347.66,303.92 350.08,304.46 352.29,303.92 354.55,304.46 356.77,304.46 358.97,303.92 361.18,303.92 363.37,304.46 365.59,304.46 367.81,304.46 370.03,303.38 372.25,304.46 374.47,35.00 376.69,303.92 378.90,35.00 381.16,304.46 383.38,35.00 385.60,35.00 387.81,303.92 390.04,303.92 392.25,304.46 394.49,304.46 396.72,304.46 398.95,303.92 401.18,304.46 403.40,304.46 405.60,303.92 407.82,35.00 410.04,304.46 412.26,35.00 414.49,303.92 416.74,304.46 418.97,304.46 421.19,35.00 423.44,35.00 425.67,35.00 427.87,304.46 430.11,303.92 432.33,304.46 434.60,303.92 436.85,303.92 439.06,304.46 441.30,304.46 443.51,304.46 445.71,304.46 447.93,304.46 450.16,304.46 452.37,304.46 454.57,282.59 456.79,304.46 459.04,303.92 461.26,304.46 463.50,304.46 465.72,304.46 467.99,303.38 470.21,304.46 472.43,304.46 474.65,303.92 476.85,304.46 479.28,303.92 481.55,304.46 483.76,304.46 485.97,304.46 488.16,304.46 490.40,304.46 492.62,303.38 494.85,304.46 497.09,304.46 499.30,304.46 501.52,303.92 503.74,35.00 506.02,304.46 508.24,303.92 510.45,303.92 512.67,303.92 514.91,35.00 517.18,304.46 519.46,304.46 521.67,35.00 523.89,303.92 526.12,35.00 528.33,35.00 530.57,304.46 532.80,304.46 535.05,35.00 537.26,35.00 539.47,304.46 541.72,304.46 543.95,303.92 546.17,303.92 548.39,304.46 550.65,304.46 552.88,304.46 555.09,303.92 557.29,304.46 559.50,304.46 561.74,303.92 563.96,303.38 566.17,304.46 568.39,35.00 570.59,304.46 572.81,35.00 575.06,35.00 577.28,303.92 579.52,303.92 581.77,304.46 584.00,304.46 586.24,304.46 588.45,303.92 590.69,297.98 592.91,35.00 595.14,304.46 597.36,303.92 599.64,304.46 601.87,303.92 604.10,35.00 606.33,303.92 608.54,304.46 610.78,35.00 612.98,303.92 615.20,304.46 617.44,304.46 619.67,35.00 621.89,303.92 624.12,303.92 626.36,35.00 628.58,303.92 630.81,303.92 633.05,35.00 635.30,303.92 637.51,304.46 639.73,303.92 641.97,304.46 644.22,303.92 646.46,35.00 648.68,304.46 650.90,35.00 653.37,35.00 655.61,303.92 657.84,303.38 660.06,303.38 662.31,303.38 664.55,35.00 666.77,304.46 669.01,304.46 671.21,304.46 673.51,35.00 675.77,304.46 677.97,304.46 680.19,304.46 682.42,35.00 684.65,304.46 686.88,304.46 689.19,293.66 691.41,303.92 693.63,304.46 695.89,303.92 698.29,304.46 700.52,35.00 703.32,304.46 707.08,304.46 709.36,304.46 711.63,304.46 713.85,35.00 716.03,304.46 718.25,304.46 720.51,303.92 722.74,35.00 724.98,304.46 727.30,35.00 729.60,303.38 731.96,304.46 734.20,304.46 736.42,35.00 738.65,35.00 740.91,304.46 743.16,35.00 745.41,304.46 747.62,304.46 749.84,304.46 752.16,35.00 754.40,303.92 756.60,35.00 758.84,304.46 761.10,304.46 763.41,297.98 765.65,304.46 767.88,35.00 770.17,293.12 772.30,35.00 774.51,303.92 776.78,35.00 778.99,304.46 781.25,304.46 783.55,303.92 785.79,304.46 788.01,304.46 790.26,303.92 792.51,303.92 794.74,304.46 796.96,303.92 799.16,35.00 801.41,304.46 803.64,304.46 805.85,304.46 808.50,304.46 811.12,303.92 813.76,304.46 816.34,304.46 818.89,303.38 821.45,303.92 824.09,303.92 826.68,304.46 828.91,35.00 831.11,35.00 833.33,304.46 835.55,304.46 837.78,303.92 839.99,304.46 842.20,303.92 844.42,35.00 846.64,304.46 848.86,304.46 851.08,304.46 853.30,304.46 855.52,293.12 857.73,304.46 859.95,35.00 862.16,303.92 864.39,303.92 866.59,304.46 868.82,304.46 871.06,35.00 873.26,303.92 875.47,304.46 877.68,304.46 879.90,304.46 882.13,35.00 884.36,297.98 886.57,303.92 888.80,303.38 891.03,304.46 893.24,35.00 895.46,302.84 897.68,303.92 899.89,35.00 902.11,35.00 904.30,303.92 906.49,302.84 908.72,304.46 910.93,303.38 913.14,35.00 915.35,304.46 917.56,304.46 919.78,304.46 921.98,303.92 924.18,304.46 926.37,35.00 928.67,304.46 931.06,303.92 933.29,35.00 935.52,303.92 937.73,303.92 939.95,304.46 942.15,304.46 944.35,304.46 946.57,303.92 949.20,304.46 951.80,304.46 954.39,303.92 956.99,304.46 959.62,303.92 962.21,303.92 964.86,304.46 967.56,303.92 969.99,303.92 972.37,303.92 974.60,35.00 976.85,35.00 979.08,35.00 981.28,303.92 983.49,304.46 985.72,304.46 987.93,304.46 990.15,304.46 992.36,304.46 994.59,35.00 996.81,304.46 999.03,303.38 1001.28,35.00 1003.49,35.00 1005.71,303.92 1007.65,282.32 1009.95,282.05 1012.17,304.46 1014.45,35.00 1016.67,303.38 1018.88,304.46 1021.12,35.00 1023.36,35.00 1025.60,35.00 1027.84,303.92 1030.08,304.46 1032.35,304.46 1034.55,303.92 1036.75,35.00 1038.98,303.38 1041.18,303.92 1043.40,304.46 1045.60,303.92 1047.85,304.46 1050.06,304.46 1052.29,304.46 1054.51,304.46 1056.72,304.46 1058.96,303.92 1061.18,303.92 1063.41,303.92 1065.66,304.46 1067.88,304.46 1070.09,35.00 1072.34,35.00 1074.57,304.46 1076.86,304.46 1079.06,304.46 1081.28,303.92 1083.50,35.00 1085.70,303.92 1087.91,35.00 1090.16,303.92 1092.37,304.46 1094.58,35.00 1096.81,304.46 1099.01,35.00 1101.23,304.46 1103.47,303.92 1105.71,304.46 1107.93,302.84 1110.61,303.92 1112.89,303.92 1115.18,304.46 1117.42,304.46 1119.65,303.38 1121.90,303.92 1124.10,299.06 1126.31,35.00 1128.56,304.46 1130.80,303.92 1133.02,304.46 1135.25,35.00 1137.49,303.92 1139.71,303.92 1142.01,304.46 1144.27,303.92 1146.50,35.00 1148.73,304.46 1150.95,35.00 1153.17,303.92 1155.39,35.00 1157.62,303.38 1159.93,304.46 1162.17,304.46 1164.41,35.00 1166.63,304.46 1168.85,304.46 1171.09,304.46 1173.30,303.92 1175.53,35.00 1177.77,303.38 1180.00,304.46"/>
<polyline fill="none" stroke="#d62728" stroke-opacity="0.50" stroke-width="2" points="70.00,302.84 72.23,302.84 74.46,303.92 76.68,303.92 78.92,303.92 81.16,303.38 83.37,303.92 85.61,302.57 88.02,303.38 90.23,302.84 92.45,303.92 94.66,303.38 96.92,302.84 99.14,303.38 101.35,287.18 105.36,303.38 108.81,303.38 111.06,303.38 113.34,303.92 115.56,302.84 117.78,293.12 119.96,303.38 122.21,303.38 124.43,303.38 126.67,303.38 128.91,303.38 131.18,303.38 133.42,303.92 135.65,303.38 137.99,303.92 140.24,303.92 142.46,303.38 144.74,303.38 146.97,303.38 149.19,302.03 151.49,303.38 153.70,303.92 155.93,303.92 158.19,303.38 160.39,303.92 162.62,303.92 164.82,303.92 167.04,302.84 169.28,303.92 171.49,303.38 173.77,303.92 176.01,302.84 178.21,303.92 180.43,302.84 182.68,303.38 184.91,302.84 187.45,303.38 189.68,303.92 191.90,303.38 194.11,303.92 196.32,303.38 198.53,303.38 200.74,303.92 202.98,302.30 205.20,303.92 207.47,303.92 209.69,304.46 211.89,303.92 214.13,303.92 216.38,303.92 218.60,303.38 220.84,289.61 223.04,303.92 225.24,303.38 227.46,302.84 229.66,299.87 231.89,303.92 234.11,303.92 236.32,304.46 238.55,303.92 240.78,302.03 242.98,304.46 245.22,303.38 247.43,303.38 249.64,302.84 251.93,302.57 254.15,303.92 256.37,303.92 258.61,303.92 260.82,303.38 263.06,303.38 265.28,302.84 267.48,303.38 269.68,302.84 271.92,303.92 274.17,303.38 276.39,294.20 278.63,303.38 280.83,303.38 283.06,303.92 285.27,303.92 287.50,302.57 289.70,303.38 291.93,302.84 294.14,302.84 296.38,302.57 298.61,303.92 300.83,303.92 303.06,303.92 305.31,303.92 307.56,302.84 309.78,303.92 311.99,303.92 314.21,302.84 316.42,303.92 318.67,302.84 320.90,302.84 323.12,303.92 325.34,303.92 327.58,303.92 329.81,303.92 332.05,302.57 334.31,303.92 336.53,303.92 338.75,303.38 340.98,303.38 343.20,303.92 345.42,304.46 347.66,303.92 350.08,303.92 352.29,303.38 354.55,303.92 356.77,303.92 358.97,304.46 361.18,303.38 363.37,302.84 365.59,303.92 367.81,302.84 370.03,303.92 372.25,303.38 374.47,303.38 376.69,304.46 378.90,303.38 381.16,303.92 383.38,302.57 385.60,302.03 387.81,303.92 390.04,303.92 392.25,303.38 394.49,303.38 396.72,303.92 398.95,303.38 401.18,303.38 403.40,302.84 405.60,302.57 407.82,303.38 410.04,302.03 412.26,302.03 414.49,302.03 416.74,302.84 418.97,302.03 421.19,302.84 423.44,302.84 425.67,302.57 427.87,302.03 430.11,303.92 432.33,303.38 434.60,303.92 436.85,303.92 439.06,303.38 441.30,302.84 443.51,303.92 445.71,303.92 447.93,303.92 450.16,296.90 452.37,303.38 454.57,302.84 456.79,303.92 459.04,303.92 461.26,302.84 463.50,303.92 465.72,302.84 467.99,303.92 470.21,303.92 472.43,303.38 474.65,303.92 476.85,303.92 479.28,299.33 481.55,303.38 483.76,303.92 485.97,303.38 488.16,303.92 490.40,304.46 492.62,303.92 494.85,303.38 497.09,303.92 499.30,302.84 501.52,303.38 503.74,303.38 506.02,303.92 508.24,303.92 510.45,303.92 512.67,302.84 514.91,303.92 517.18,303.38 519.46,303.92 521.67,303.92 523.89,303.38 526.12,302.84 528.33,303.38 530.57,303.38 532.80,303.92 535.05,303.92 537.26,302.84 539.47,303.92 541.72,303.38 543.95,303.92 546.17,303.92 548.39,303.38 550.65,303.92 552.88,302.30 555.09,303.92 557.29,303.38 559.50,303.92 561.74,302.84 563.96,303.92 566.17,302.84 568.39,303.92 570.59,303.92 572.81,303.92 575.06,303.92 577.28,302.84 579.52,303.92 581.77,303.92 584.00,299.87 586.24,303.92 588.45,302.84 590.69,302.84 592.91,303.92 595.14,303.92 597.36,303.92 599.64,304.46 601.87,304.46 604.10,303.38 606.33,303.38 608.54,303.38 610.78,303.92 612.98,303.92 615.20,302.84 617.44,303.92 619.67,303.92 621.89,303.38 624.12,303.38 626.36,303.92 628.58,302.57 630.81,303.92 633.05,302.84 635.30,303.92 637.51,303.92 639.73,303.38 641.97,303.92 644.22,304.46 646.46,303.38 648.68,302.84 650.90,303.38 653.37,303.92 655.61,303.38 657.84,303.92 660.06,303.92 662.31,303.38 664.55,303.38 666.77,303.38 669.01,303.38 671.21,303.92 673.51,302.84 675.77,303.92 677.97,303.92 680.19,303.92 682.42,303.92 684.65,302.84 686.88,303.38 689.19,303.38 691.41,303.92 693.63,302.84 695.89,303.92 698.29,303.92 700.52,293.39 703.32,293.12 707.08,303.92 709.36,302.84 711.63,292.58 713.85,302.03 716.03,302.84 718.25,304.46 720.51,303.92 722.74,303.92 724.98,303.92 727.30,304.46 729.60,303.92 731.96,303.92 734.20,302.84 736.42,303.38 738.65,303.38 740.91,303.92 743.16,303.38 745.41,302.84 747.62,294.74 749.84,303.38 752.16,303.92 754.40,303.92 756.60,303.92 758.84,303.92 761.10,303.38 763.41,303.92 765.65,303.38 767.88,303.92 770.17,303.38 772.30,302.57 774.51,303.92 776.78,303.92 778.99,303.92 781.25,304.46 783.55,303.38 785.79,303.38 788.01,303.38 790.26,304.46 792.51,303.92 794.74,303.92 796.96,303.38 799.16,303.92 801.41,303.92 803.64,303.92 805.85,303.92 808.50,300.41 811.12,303.92 813.76,303.38 816.34,303.92 818.89,303.92 821.45,303.92 824.09,302.84 826.68,303.92 828.91,303.92 831.11,303.92 833.33,303.38 835.55,302.84 837.78,302.84 839.99,303.92 842.20,303.92 844.42,303.38 846.64,304.46 848.86,304.46 851.08,303.92 853.30,292.58 855.52,302.84 857.73,304.46 859.95,303.38 862.16,303.92 864.39,303.38 866.59,303.38 868.82,303.38 871.06,303.38 873.26,303.38 875.47,304.46 877.68,303.38 879.90,304.46 882.13,303.92 884.36,303.38 886.57,303.92 888.80,303.38 891.03,295.82 893.24,302.84 895.46,303.92 897.68,302.84 899.89,299.87 902.11,303.92 904.30,303.38 906.49,302.84 908.72,303.92 910.93,303.92 913.14,303.38 915.35,303.92 917.56,303.38 919.78,303.92 921.98,303.38 924.18,304.46 926.37,303.92 928.67,303.92 931.06,303.92 933.29,303.92 935.52,303.92 937.73,303.38 939.95,302.57 942.15,303.92 944.35,303.92 946.57,303.92 949.20,302.84 951.80,302.84 954.39,303.92 956.99,302.30 959.62,303.92 962.21,303.92 964.86,303.92 967.56,303.92 969.99,303.92 972.37,303.92 974.60,303.38 976.85,303.38 979.08,303.38 981.28,303.38 983.49,303.92 985.72,303.92 987.93,292.85 990.15,303.92 992.36,302.57 994.59,303.38 996.81,303.92 999.03,303.92 1001.28,303.38 1003.49,303.92 1005.71,302.30 1007.65,303.92 1009.95,303.92 1012.17,304.46 1014.45,303.38 1016.67,303.92 1018.88,303.92 1021.12,303.38 1023.36,303.92 1025.60,303.92 1027.84,303.92 1030.08,304.46 1032.35,303.92 1034.55,303.38 1036.75,303.92 1038.98,303.92 1041.18,303.92 1043.40,302.84 1045.60,303.38 1047.85,303.92 1050.06,303.92 1052.29,303.38 1054.51,303.92 1056.72,303.38 1058.96,303.38 1061.18,303.92 1063.41,303.38 1065.66,303.92 1067.88,303.92 1070.09,303.92 1072.34,303.92 1074.57,303.92 1076.86,303.92 1079.06,303.92 1081.28,302.84 1083.50,302.84 1085.70,303.92 1087.91,304.46 1090.16,302.03 1092.37,303.38 1094.58,303.92 1096.81,303.92 1099.01,303.92 1101.23,302.84 1103.47,303.38 1105.71,303.38 1107.93,303.38 1110.61,303.92 1112.89,303.92 1115.18,303.38 1117.42,302.57 1119.65,303.92 1121.90,302.84 1124.10,303.92 1126.31,303.92 1128.56,303.92 1130.80,304.46 1133.02,302.57 1135.25,302.57 1137.49,303.38 1139.71,303.92 1142.01,303.92 1144.27,303.38 1146.50,303.38 1148.73,302.84 1150.95,303.92 1153.17,300.95 1155.39,303.92 1157.62,302.84 1159.93,303.38 1162.17,303.92 1164.41,303.38 1166.63,302.84 1168.85,303.92 1171.09,303.38 1173.30,303.92 1175.53,303.38 1177.77,303.92 1180.00,303.92"/>
<rect x="70" y="332" width="12" height="12" fill="#d62728" fill-opacity="0.95"/>
<text x="88" y="342" font-size="11" fill="#333" font-family="Arial, Helvetica, sans-serif">nsc1.utdallas.edu</text>
<rect x="350" y="332" width="12" height="12" fill="#d62728" fill-opacity="0.80"/>
<text x="368" y="342" font-size="11" fill="#333" font-family="Arial, Helvetica, sans-serif">nsc2.utdallas.edu</text>
<rect x="630" y="332" width="12" height="12" fill="#d62728" fill-opacity="0.65"/>
<text x="648" y="342" font-size="11" fill="#333" font-family="Arial, Helvetica, sans-serif">nsc3.utdallas.edu</text>
<rect x="910" y="332" width="12" height="12" fill="#d62728" fill-opacity="0.50"/>
<text x="928" y="342" font-size="11" fill="#333" font-family="Arial, Helvetica, sans-serif">nsc4.utdallas.edu</text>
</svg>