<?xml version="1.0" encoding="UTF-8"?>
<svg xmlns="http://www.w3.org/2000/svg" width="1200" height="360" viewBox="0 0 1200 360" role="img" aria-label="CPU Utilization (%)">
<rect width="100%" height="100%" fill="#ffffff"/>
<text x="600.0" y="22" text-anchor="middle" font-size="16" font-family="Arial, Helvetica, sans-serif" font-weight="bold">CPU Utilization (%)</text>
<line x1="70" y1="35.00" x2="1180" y2="35.00" stroke="#e3e3e3" stroke-width="1"/>
<text x="62" y="39.00" text-anchor="end" font-size="11" fill="#444" font-family="Arial, Helvetica, sans-serif">100</text>
<line x1="70" y1="89.00" x2="1180" y2="89.00" stroke="#e3e3e3" stroke-width="1"/>
<text x="62" y="93.00" text-anchor="end" font-size="11" fill="#444" font-family="Arial, Helvetica, sans-serif">80</text>
<line x1="70" y1="143.00" x2="1180" y2="143.00" stroke="#e3e3e3" stroke-width="1"/>
<text x="62" y="147.00" text-anchor="end" font-size="11" fill="#444" font-family="Arial, Helvetica, sans-serif">60</text>
<line x1="70" y1="197.00" x2="1180" y2="197.00" stroke="#e3e3e3" stroke-width="1"/>
<text x="62" y="201.00" text-anchor="end" font-size="11" fill="#444" font-family="Arial, Helvetica, sans-serif">40</text>
<line x1="70" y1="251.00" x2="1180" y2="251.00" stroke="#e3e3e3" stroke-width="1"/>
<text x="62" y="255.00" text-anchor="end" font-size="11" fill="#444" font-family="Arial, Helvetica, sans-serif">20</text>
<line x1="70" y1="305.00" x2="1180" y2="305.00" stroke="#e3e3e3" stroke-width="1"/>
<text x="62" y="309.00" text-anchor="end" font-size="11" fill="#444" font-family="Arial, Helvetica, sans-serif">0</text>
<line x1="70" y1="35" x2="70" y2="305" stroke="#999"/>
<line x1="70" y1="305" x2="1180" y2="305" stroke="#999"/>
<text x="70.00" y="323" text-anchor="middle" font-size="10" fill="#444" font-family="Arial, Helvetica, sans-serif">2026-02-11 16:38</text>
<text x="347.50" y="323" text-anchor="middle" font-size="10" fill="#444" font-family="Arial, Helvetica, sans-serif">2026-02-13 00:23</text>
<text x="625.00" y="323" text-anchor="middle" font-size="10" fill="#444" font-family="Arial, Helvetica, sans-serif">2026-02-14 08:09</text>
<text x="902.50" y="323" text-anchor="middle" font-size="10" fill="#444" font-family="Arial, Helvetica, sans-serif">2026-02-15 15:55</text>
<text x="1180.00" y="323" text-anchor="middle" font-size="10" fill="#444" font-family="Arial, Helvetica, sans-serif">2026-02-16 23:41</text>
<polyline fill="none" stroke="#d62728" stroke-opacity="0.95" stroke-width="2" points="70.78,304.46 71.57,298.79 72.35,296.90 73.14,303.92 73.93,304.73 74.71,304.46 75.49,303.92 76.34,304.73 77.12,303.92 77.90,304.46 78.68,303.92 79.47,304.46 80.25,304.46 81.03,303.92 82.44,304.46 83.66,303.92 84.45,304.46 85.25,303.92 86.03,300.95 86.82,304.73 87.58,278.27 88.37,303.92 89.16,304.46 89.94,294.74 90.73,304.46 91.53,303.92 92.32,301.49 93.10,303.92 93.93,295.28 94.72,294.20 95.50,303.65 96.30,304.46 97.09,304.46 97.87,303.92 98.68,303.65 99.45,302.30 100.24,303.92 101.04,304.46 101.81,303.92 102.59,304.73 103.37,304.73 104.15,304.46 104.94,303.38 105.72,304.46 106.52,303.92 107.31,303.38 108.08,304.46 108.86,297.71 109.65,297.44 110.44,48.23 111.33,303.92 112.12,303.92 112.90,304.46 113.68,303.65 114.45,303.65 115.23,304.46 116.01,304.46 116.80,303.92 117.58,304.46 118.38,303.92 119.16,304.46 119.93,304.46 120.72,299.60 121.51,303.65 122.30,303.92 123.08,304.73 123.86,303.92 124.63,304.73 125.41,304.46 126.19,304.46 126.97,304.46 127.75,303.92 128.53,304.73 129.31,303.92 130.10,304.46 130.87,304.73 131.66,303.38 132.44,303.38 133.22,303.65 134.02,304.46 134.80,303.65 135.59,304.73 136.37,304.46 137.15,304.46 137.94,304.73 138.72,303.92 139.50,303.92 140.27,304.46 141.06,304.73 141.85,299.60 142.63,303.65 143.42,304.46 144.19,304.73 144.98,303.65 145.76,303.92 146.54,304.46 147.32,304.46 148.10,303.92 148.88,303.92 149.67,303.92 150.45,304.46 151.23,303.92 152.02,303.92 152.81,298.79 153.60,303.65 154.38,304.46 155.16,304.73 155.94,304.73 156.72,304.46 157.51,304.46 158.30,304.46 159.08,304.46 159.86,302.84 160.65,304.46 161.43,304.46 162.22,304.46 163.02,304.46 163.80,304.46 164.58,304.46 165.36,303.65 166.14,304.73 166.93,303.38 167.71,304.46 168.56,304.46 169.34,304.73 170.14,303.92 170.92,303.92 171.69,304.46 172.47,299.87 173.24,304.46 174.02,304.73 174.81,295.01 175.59,304.46 176.37,303.92 177.15,303.92 177.93,303.92 178.71,304.46 179.50,303.65 180.28,304.46 181.06,304.46 181.84,304.46 182.63,303.92 183.41,303.92 184.19,303.92 184.98,304.73 185.76,304.46 186.55,304.46 187.33,303.92 188.10,304.46 188.88,303.65 189.67,303.92 190.45,303.65 191.23,304.73 192.02,304.46 192.81,304.46 193.59,304.46 194.38,303.11 195.16,303.38 195.94,304.46 196.73,304.46 197.51,304.46 198.31,303.65 199.10,303.92 199.88,304.46 200.67,297.71 201.44,294.20 202.22,303.92 203.00,304.46 203.78,303.65 204.56,297.71 205.34,304.46 206.12,303.92 206.91,304.46 207.69,304.46 208.48,303.92 209.26,303.38 210.06,304.73 210.84,303.92 211.62,303.38 212.40,303.92 213.18,304.46 214.03,304.46 214.83,303.92 215.61,304.73 216.39,304.46 217.16,304.46 217.95,304.73 218.73,304.46 219.51,304.73 220.30,35.00 221.08,303.65 221.86,303.11 222.64,297.17 223.44,304.46 224.22,304.46 225.00,304.46 225.78,303.92 226.57,303.65 227.37,304.46 228.17,303.11 228.95,304.73 229.73,304.46 230.52,303.92 231.30,304.73 232.08,304.46 232.87,303.92 233.66,304.73 234.44,304.46 235.21,304.46 236.01,304.46 236.79,303.92 237.57,303.65 238.36,304.46 239.15,303.65 239.93,304.46 240.71,301.76 241.49,302.03 242.26,304.46 243.05,304.46 243.83,304.46 244.61,35.00 245.39,303.65 246.17,303.92 246.95,304.46 247.74,304.46 248.52,303.65 249.31,304.46 250.10,304.73 250.88,304.46 251.67,304.73 252.45,35.00 253.24,304.73 254.02,303.65 254.80,304.46 255.59,303.65 256.39,304.73 257.17,300.68 257.96,303.65 258.74,303.92 259.52,304.46 260.31,304.46 261.08,304.46 261.86,304.46 262.65,304.73 263.44,304.73 264.22,304.73 265.00,303.65 265.79,303.92 266.57,303.92 267.36,304.73 268.15,35.00 268.94,304.46 269.72,303.92 270.50,304.73 271.29,303.92 272.08,304.73 272.86,303.92 273.65,304.46 274.43,303.92 275.30,304.73 276.09,304.46 276.87,303.65 277.65,304.46 278.44,304.46 279.23,303.92 280.01,304.46 280.80,303.65 281.58,304.73 282.39,295.28 283.18,297.17 283.96,304.46 284.74,304.46 285.52,304.46 286.30,304.73 287.09,304.46 287.90,303.65 288.69,304.46 289.47,303.92 290.26,304.73 291.10,304.73 291.89,304.73 292.87,303.65 294.20,304.46 295.00,303.92 295.80,303.92 296.58,304.73 297.35,304.46 298.13,303.92 298.92,303.65 299.71,304.46 300.50,304.73 301.31,303.92 302.13,35.00 302.96,303.65 303.74,304.46 304.53,304.73 305.31,303.92 306.10,303.92 306.90,303.65 307.69,304.46 308.47,303.92 309.25,304.46 310.06,304.46 310.85,304.46 311.63,304.46 312.41,304.46 313.21,303.92 314.02,304.46 314.81,303.92 315.59,303.92 316.40,303.65 317.15,303.92 317.93,303.65 318.73,303.92 319.51,303.92 320.30,303.92 321.11,303.11 321.90,303.92 322.68,303.92 323.47,304.46 324.26,304.46 325.05,303.65 325.83,304.73 326.60,299.06 327.39,304.73 328.18,304.46 328.96,48.23 329.89,48.50 330.81,48.77 331.74,48.50 332.65,48.23 333.55,48.50 334.45,48.50 335.38,48.77 336.29,304.46 337.07,304.46 337.85,304.46 338.63,303.92 339.41,304.46 340.20,304.46 340.97,303.92 341.75,304.19 342.53,303.65 343.31,304.73 344.10,303.92 344.88,303.92 345.66,304.46 346.44,304.73 347.21,304.73 348.00,304.46 348.77,304.46 349.56,304.46 350.33,303.92 351.12,304.46 351.91,304.73 352.68,303.65 353.46,304.46 354.24,35.00 355.02,304.46 355.80,304.46 356.59,304.73 357.37,304.46 358.15,304.73 358.93,35.00 359.71,304.46 360.49,304.46 361.27,304.73 362.05,303.92 362.83,303.92 363.60,303.92 364.38,303.38 365.16,304.73 365.94,303.65 366.71,304.46 367.49,303.92 368.27,304.46 369.05,304.73 369.83,303.92 370.60,303.38 371.37,304.73 372.18,303.65 373.02,304.73 373.81,304.73 374.59,304.46 375.37,303.92 376.15,303.65 376.92,297.44 377.70,297.71 378.48,48.50 379.40,48.50 380.32,48.50 381.23,48.23 382.15,48.50 383.07,48.23 383.98,48.50 384.92,48.77 385.87,295.82 386.72,297.17 387.56,304.73 388.34,303.92 389.13,303.92 389.92,304.73 390.69,303.92 391.47,304.46 392.26,304.46 393.03,304.46 393.82,304.46 394.59,304.46 395.38,304.73 396.16,303.11 396.94,304.73 397.73,303.92 398.51,304.46 399.29,304.73 399.98,304.46 400.78,303.92 401.57,304.73 402.37,304.73 403.15,304.73 403.93,303.92 404.72,35.00 405.50,304.73 406.29,304.73 407.08,304.46 407.87,304.73 408.67,303.65 409.44,304.46 410.22,304.73 411.00,304.73 411.77,304.73 412.55,35.00 413.33,303.92 414.12,303.92 414.90,303.92 415.68,303.65 416.47,304.46 417.24,304.46 418.03,303.92 418.81,304.46 419.60,304.46 420.39,304.73 421.17,303.92 421.95,301.22 422.74,304.46 423.52,304.46 424.33,304.46 425.11,303.65 425.88,304.46 426.67,304.73 427.44,304.46 428.22,300.68 429.01,303.92 429.79,304.73 430.57,304.46 431.35,304.73 432.13,303.38 432.91,303.92 433.69,304.73 434.48,304.73 435.26,303.92 436.21,303.92 437.01,303.92 437.82,303.65 438.60,304.46 439.39,302.84 440.18,304.46 440.96,304.46 441.73,303.92 442.53,303.92 443.31,303.11 444.09,304.73 444.88,304.46 445.67,304.46 446.45,304.46 447.26,304.73 448.05,304.73 448.84,304.46 449.62,304.73 450.41,304.73 451.19,302.57 451.97,302.84 452.75,301.22 453.57,303.92 454.35,304.46 455.14,304.46 455.92,304.46 456.70,303.92 457.49,304.73 458.27,304.46 459.05,304.46 459.84,303.92 460.63,304.46 461.41,304.46 462.20,304.46 462.98,297.44 463.76,303.92 464.54,304.46 465.34,304.46 466.12,300.68 466.90,303.92 467.68,289.07 468.47,303.65 469.26,302.03 470.05,302.84 470.99,302.84 471.80,304.46 472.58,304.46 473.36,303.92 474.14,304.73 474.93,303.92 475.71,303.92 476.50,303.65 477.30,304.46 478.08,303.92 478.86,304.73 479.64,304.46 480.42,304.46 481.20,303.92 481.98,304.73 482.77,304.46 483.55,304.73 484.33,304.46 485.11,304.73 485.89,304.73 486.69,303.92 487.47,304.46 488.24,304.73 489.04,304.46 489.83,304.46 490.61,304.73 491.39,304.46 492.18,303.38 492.98,303.92 493.76,304.73 494.54,304.73 495.33,303.92 496.12,303.92 496.90,304.46 497.68,303.92 498.47,303.92 499.27,304.73 500.05,303.92 500.84,304.46 501.61,303.92 502.39,304.46 503.17,304.73 503.96,303.92 504.74,304.73 505.53,304.46 506.32,304.73 507.11,298.79 507.88,303.92 508.67,303.92 509.45,304.46 510.24,304.46 511.02,303.65 511.80,303.65 512.58,304.73 513.37,303.92 514.16,303.92 514.94,235.88 515.73,236.69 516.52,236.69 517.31,236.69 518.09,236.15 518.88,232.10 519.76,227.51 520.62,228.59 521.46,222.65 522.25,236.42 523.07,236.15 523.86,235.61 524.65,236.69 525.42,236.69 526.15,236.15 526.97,235.61 527.75,236.15 528.55,236.42 529.32,233.18 530.11,236.69 530.88,236.42 531.68,236.15 532.45,235.61 533.24,235.88 534.02,236.42 534.81,236.42 535.60,236.96 536.38,236.42 537.17,235.61 537.97,236.69 538.75,236.15 539.54,236.42 540.32,242.63 541.12,255.86 541.91,236.69 542.69,235.88 543.47,236.15 544.25,236.42 545.04,235.88 545.82,236.15 546.60,236.96 547.39,236.15 548.18,236.69 548.96,236.96 549.74,236.15 550.53,236.96 551.31,236.15 552.10,236.42 552.89,234.53 553.67,236.15 554.46,236.69 555.24,236.69 556.03,235.34 556.82,236.15 557.61,236.15 558.40,235.61 559.18,236.69 559.97,236.96 560.75,235.61 561.55,232.91 562.36,234.26 563.14,236.42 563.93,236.42 564.71,236.15 565.50,236.96 566.28,236.15 567.07,236.69 567.86,236.96 568.64,234.53 569.43,236.42 570.21,236.69 571.00,236.42 571.79,236.15 572.58,236.42 573.37,235.88 574.16,236.15 574.95,236.96 575.74,235.61 576.53,235.88 577.31,235.88 578.10,236.42 578.89,236.42 579.67,236.69 580.47,236.69 581.26,236.42 582.06,235.61 582.84,236.15 583.62,236.15 584.41,235.34 585.19,236.69 585.98,235.61 586.77,236.69 587.55,235.88 588.34,236.69 589.12,232.91 589.91,235.88 590.70,236.42 591.49,235.88 592.27,235.61 593.06,236.69 593.85,235.88 594.64,236.42 595.42,236.42 596.21,236.69 596.99,236.15 597.77,235.88 598.55,236.42 599.34,235.61 600.13,201.32 600.92,236.69 601.71,236.15 602.49,236.42 603.28,236.42 604.08,235.61 604.86,230.48 605.65,235.34 606.44,283.40 607.23,236.69 608.01,230.75 608.80,236.69 609.60,224.00 610.39,236.42 611.17,236.15 611.98,235.61 612.77,235.88 613.56,236.15 614.35,236.96 615.13,230.48 615.92,235.88 616.71,236.15 617.50,235.61 618.29,243.17 619.08,296.63 619.86,236.15 620.64,235.61 621.45,236.69 622.23,229.94 623.02,229.94 623.81,236.15 624.59,236.42 625.37,236.69 626.15,235.61 626.93,236.69 627.73,236.69 628.51,236.42 629.30,236.15 630.08,236.69 630.87,236.69 631.66,236.42 632.46,231.29 633.26,236.69 634.04,236.15 634.82,236.42 635.60,235.88 636.39,235.61 637.18,235.61 637.97,236.42 638.75,236.96 639.54,236.69 640.33,236.69 641.12,235.61 641.90,235.88 642.69,235.88 643.48,236.69 644.29,236.69 645.09,235.61 645.88,236.15 646.67,283.13 647.46,236.42 648.25,236.69 649.03,235.88 649.81,236.15 650.59,235.07 651.39,236.42 652.17,236.69 652.97,236.15 653.76,237.23 654.55,236.15 655.37,236.15 656.16,236.15 656.94,236.69 657.73,236.69 658.51,236.42 659.31,236.69 660.10,236.69 660.89,235.61 661.68,236.42 662.48,235.34 663.26,236.96 664.06,235.61 664.85,236.69 665.63,236.69 666.42,236.15 667.21,236.42 667.99,236.42 668.79,296.90 669.58,236.15 670.37,235.61 671.15,236.42 671.94,236.42 672.73,236.69 673.52,236.69 674.31,236.69 675.10,236.69 675.92,235.34 676.70,235.88 677.50,233.45 678.29,236.15 679.09,236.15 679.90,235.07 680.70,234.26 681.50,234.26 682.31,235.88 683.10,290.15 683.89,236.69 684.68,236.42 685.47,236.15 686.26,236.42 687.05,235.34 687.86,236.69 688.64,236.15 689.43,236.69 690.22,235.88 691.00,236.15 691.79,236.69 692.58,236.42 693.36,236.96 694.15,231.83 694.93,236.42 695.72,236.42 696.50,236.42 697.28,236.42 698.07,236.15 698.86,236.69 699.65,236.42 700.43,232.64 701.23,235.88 702.02,237.23 702.80,236.42 703.60,235.88 704.38,236.42 705.17,283.94 705.95,236.15 706.74,236.42 707.53,236.42 708.32,236.42 709.10,290.42 709.88,236.42 710.66,236.69 711.45,236.42 712.24,236.15 713.02,236.69 713.81,235.88 714.60,234.53 715.38,235.34 716.17,236.69 716.96,236.42 717.74,236.15 718.52,236.42 719.30,235.61 720.07,236.69 720.86,236.42 721.65,235.34 722.45,235.88 723.23,236.15 724.02,235.61 724.81,236.69 725.61,236.15 726.40,235.61 727.18,236.15 727.98,235.07 728.76,236.15 729.55,235.61 730.34,236.69 731.13,236.15 731.93,235.61 732.72,290.15 733.51,236.42 734.29,236.69 735.07,236.15 735.86,235.61 736.64,236.42 737.43,236.69 738.20,235.88 738.99,235.88 739.78,235.88 740.57,236.69 741.35,236.15 742.14,236.15 742.92,236.42 743.71,235.34 744.50,235.88 745.29,236.15 746.08,236.15 746.86,235.61 747.65,236.42 748.45,236.96 749.23,235.34 750.01,236.42 750.80,236.15 751.59,236.15 752.37,235.88 753.16,236.42 753.96,233.18 754.74,236.69 755.52,235.88 756.30,236.15 757.12,236.69 757.91,236.15 758.71,235.88 759.51,232.91 760.29,236.15 761.08,283.67 761.87,236.42 762.66,235.88 763.45,234.80 764.23,235.34 765.03,236.15 765.83,234.53 766.62,236.69 767.41,236.42 768.20,236.69 768.98,236.96 769.78,235.88 770.56,236.42 771.34,236.69 772.13,235.61 772.92,236.42 773.70,236.42 774.49,236.69 775.27,236.15 776.07,236.42 776.85,236.15 777.63,235.61 778.42,236.15 779.20,235.07 779.98,236.15 780.79,236.69 781.57,231.83 782.35,235.61 783.14,285.02 783.93,236.69 784.70,236.15 785.50,236.69 786.28,231.29 787.08,283.13 787.87,236.42 788.65,234.53 789.43,235.88 790.22,236.69 791.01,236.42 791.79,229.40 792.59,236.69 793.40,235.34 794.19,235.88 795.00,236.15 795.80,235.61 796.60,236.15 797.41,236.69 798.21,236.69 799.03,236.15 799.83,229.94 800.64,236.42 801.43,236.42 802.21,235.34 803.00,230.75 803.80,236.15 804.58,236.15 805.38,236.69 806.16,236.96 806.96,235.88 807.74,235.34 808.53,236.15 809.31,235.88 810.10,235.61 810.89,236.69 811.67,235.07 812.45,231.83 813.25,236.69 814.03,235.88 814.82,236.15 815.62,236.42 816.41,236.42 817.20,232.91 817.98,236.69 818.77,235.88 819.56,236.15 820.34,231.02 821.13,290.69 821.92,236.69 822.70,232.64 823.50,243.71 824.28,236.69 825.07,236.69 825.86,235.88 826.64,236.15 827.43,235.88 828.27,235.61 829.09,234.53 829.87,236.15 830.66,235.61 831.44,262.88 832.24,230.21 833.04,236.69 833.83,230.21 834.62,236.42 835.40,235.61 836.17,236.69 836.96,236.15 837.74,236.42 838.53,236.69 839.32,233.18 840.11,236.15 840.90,236.69 841.69,236.15 842.48,236.69 843.27,236.69 844.05,236.42 844.84,235.61 845.63,236.15 846.42,236.15 847.20,236.15 847.99,235.07 848.78,236.42 849.57,231.56 850.36,236.69 851.18,235.61 851.97,236.69 852.75,235.61 853.54,235.61 854.33,235.34 855.12,236.42 855.91,236.42 856.70,236.42 857.48,296.90 858.27,236.42 859.06,236.69 859.86,249.38 860.66,236.15 861.45,236.15 862.23,235.88 863.02,236.42 863.81,236.15 864.59,232.91 865.38,235.88 866.17,236.69 866.97,235.34 867.75,236.42 868.54,236.42 869.33,235.61 870.11,236.15 870.90,236.15 871.69,236.69 872.47,236.69 873.26,236.15 874.05,235.88 874.84,236.96 875.62,235.88 876.41,236.96 877.19,236.42 877.98,235.34 878.77,236.15 879.56,232.10 880.35,236.69 881.12,236.15 881.91,297.17 882.69,236.42 883.49,236.42 884.27,236.42 885.08,236.42 885.87,230.75 886.66,236.15 887.45,236.69 888.24,235.88 889.04,236.42 889.88,236.15 890.69,231.83 891.48,235.07 892.28,234.80 893.07,235.88 893.86,270.17 894.64,236.15 895.43,236.42 896.22,243.17 897.01,236.69 897.80,235.34 898.59,236.69 899.38,236.69 900.18,236.96 900.97,236.69 901.76,236.69 902.55,235.88 903.34,236.15 904.13,236.69 904.92,236.15 905.70,234.80 906.49,236.69 907.29,236.15 908.07,236.42 908.87,236.42 909.66,235.34 910.45,236.69 911.24,236.69 912.04,236.69 912.83,236.69 913.62,236.15 914.40,235.88 915.19,236.69 915.99,236.69 916.76,236.15 917.55,236.69 918.34,291.23 919.12,235.61 919.92,236.69 920.71,236.15 921.49,236.15 922.28,235.61 923.07,235.34 923.86,236.15 924.64,236.42 925.44,236.69 926.22,236.42 927.02,235.61 927.81,236.69 928.58,236.69 929.35,236.42 930.13,236.15 930.93,236.15 931.72,236.42 932.51,236.42 933.31,236.42 934.09,236.69 934.89,235.88 935.68,235.61 936.47,236.69 937.26,236.42 938.04,236.15 938.83,236.42 939.60,234.26 940.39,235.88 941.17,233.99 941.97,235.88 942.75,235.88 943.53,235.07 944.31,236.42 945.11,236.15 945.89,236.42 946.68,236.42 947.46,236.42 948.25,289.61 949.01,236.69 949.82,235.61 950.60,235.88 951.39,236.69 952.18,236.15 952.98,236.69 953.76,236.69 954.55,236.69 955.34,236.42 956.13,236.69 956.91,236.69 957.70,236.15 958.55,236.15 959.33,236.15 960.13,236.15 960.92,236.42 961.72,236.69 962.50,236.15 963.28,236.15 964.08,235.61 964.86,236.42 965.65,236.69 966.43,236.42 967.22,236.42 968.01,236.42 968.81,236.15 969.59,236.42 970.38,236.96 971.17,236.69 971.96,236.42 972.75,236.42 973.54,235.61 974.33,230.21 975.13,235.07 975.93,236.69 976.73,236.69 977.51,236.69 978.30,236.69 979.10,236.69 979.89,236.69 980.68,235.61 981.46,236.42 982.25,235.88 983.03,304.46 983.82,303.11 984.61,304.46 985.40,304.46 986.19,304.46 986.98,304.46 987.77,303.65 988.55,304.46 989.33,304.46 990.12,304.46 990.91,299.60 991.69,303.92 992.48,304.46 993.27,304.73 994.05,303.92 994.83,304.46 995.62,304.46 996.40,304.46 997.18,304.46 997.97,304.46 998.75,304.46 999.54,304.73 1000.32,304.46 1001.11,303.92 1001.89,302.84 1002.68,304.73 1003.46,304.46 1004.25,304.46 1005.02,303.92 1005.81,304.46 1006.61,304.46 1007.39,304.46 1008.17,304.46 1008.97,304.46 1009.79,301.22 1010.57,304.73 1011.36,303.92 1012.15,304.73 1012.94,303.92 1013.73,304.46 1014.52,304.46 1015.31,304.73 1016.10,304.73 1016.89,304.46 1017.67,304.46 1018.45,304.73 1019.24,304.46 1020.03,303.65 1020.82,304.46 1021.60,304.46 1022.38,304.46 1023.17,304.73 1023.95,304.46 1024.74,304.73 1025.54,304.73 1026.36,304.46 1027.15,301.49 1027.93,304.46 1028.70,304.46 1029.48,303.92 1030.29,304.46 1031.07,297.44 1031.86,304.46 1032.65,304.73 1033.43,304.73 1034.22,304.73 1035.01,303.38 1035.80,304.46 1036.59,304.46 1037.37,303.11 1038.16,304.73 1038.95,303.65 1039.74,304.46 1040.52,301.76 1041.30,304.46 1042.08,297.44 1042.87,304.46 1043.66,304.46 1044.44,302.84 1045.23,304.73 1046.02,304.46 1046.81,304.46 1047.59,303.11 1048.38,304.46 1049.17,304.46 1049.95,303.92 1050.74,303.92 1051.52,304.46 1052.32,303.92 1053.10,303.92 1053.89,303.92 1054.68,304.46 1055.46,303.92 1056.24,303.92 1057.02,304.46 1057.82,303.38 1058.59,304.46 1059.41,304.73 1060.19,304.46 1060.97,304.46 1061.76,304.73 1062.55,304.73 1063.34,35.00 1064.14,303.92 1064.94,304.73 1065.77,300.95 1066.56,298.25 1067.41,303.92 1068.20,304.73 1068.97,304.46 1069.76,304.73 1070.54,304.46 1071.33,304.46 1072.12,304.46 1072.91,304.46 1073.69,297.17 1074.48,304.46 1075.27,303.92 1076.05,303.65 1076.83,304.46 1077.62,304.46 1078.41,303.65 1079.19,304.46 1079.97,304.19 1080.75,304.46 1081.55,304.73 1082.34,304.46 1083.13,304.46 1083.91,299.06 1084.69,303.38 1085.48,303.92 1086.26,304.46 1087.06,304.19 1087.85,303.65 1088.63,303.65 1089.42,303.65 1090.21,303.92 1090.99,303.65 1091.77,304.46 1092.56,303.65 1093.34,303.65 1094.13,304.73 1094.91,304.46 1095.68,304.73 1096.47,303.92 1097.26,304.46 1098.04,304.46 1098.83,303.92 1099.62,304.46 1100.44,304.46 1101.23,302.30 1102.01,302.03 1102.79,304.46 1103.58,297.17 1104.35,303.92 1105.14,304.46 1105.93,303.92 1106.71,303.65 1107.49,303.65 1108.27,303.92 1109.06,303.92 1109.84,303.65 1110.62,303.92 1111.41,303.92 1112.19,303.92 1112.98,304.73 1113.77,303.92 1114.55,304.46 1115.33,304.73 1116.13,301.76 1116.91,304.46 1117.70,303.92 1118.49,304.46 1119.27,304.46 1120.05,304.46 1120.85,303.92 1121.64,304.46 1122.44,303.92 1123.22,304.46 1124.00,304.46 1124.79,303.92 1125.58,304.46 1126.36,304.46 1127.17,301.76 1127.96,304.46 1128.75,303.92 1129.54,304.46 1130.33,303.65 1131.11,303.38 1131.90,304.46 1132.68,304.46 1133.48,303.92 1134.27,303.65 1135.04,304.73 1135.83,304.73 1136.63,304.73 1137.42,303.92 1138.21,304.73 1139.01,304.73 1139.82,302.84 1140.65,303.92 1141.44,304.46 1142.23,304.46 1143.01,303.11 1143.79,303.65 1144.59,303.65 1145.37,304.46 1146.16,304.73 1146.95,304.46 1147.74,303.65 1148.53,303.92 1149.31,303.92 1150.09,304.73 1150.88,300.68 1151.67,304.73 1152.47,303.92 1153.27,304.46 1154.07,304.46 1154.86,304.46 1155.66,304.46 1156.48,304.46 1157.27,304.46 1158.11,303.92 1158.90,304.46 1159.69,304.46 1160.48,304.46 1161.26,304.46 1162.05,304.46 1162.84,304.46 1163.62,304.73 1164.41,304.73 1165.19,303.92 1165.98,303.38 1166.78,303.38 1167.57,304.46 1168.36,304.73 1169.16,303.92 1170.08,303.92 1170.87,304.46 1171.65,304.73 1172.43,304.73 1173.21,304.73 1173.99,303.92 1174.77,304.46 1175.50,304.46 1176.20,304.46 1177.06,296.90 1177.79,304.46 1178.51,304.46 1179.32,303.65 1180.00,304.46"/>
<polyline fill="none" stroke="#d62728" stroke-opacity="0.80" stroke-width="2" points="70.00,303.38 70.78,304.19 71.57,302.57 72.35,303.38 73.14,304.19 73.93,287.72 74.71,303.38 75.49,304.19 76.34,304.19 77.12,303.38 77.90,303.38 78.68,304.19 79.47,304.19 80.25,304.19 81.03,304.19 82.44,304.19 83.66,302.57 84.45,304.19 85.25,304.19 86.03,304.19 86.82,303.38 87.58,303.38 88.37,304.19 89.16,302.57 89.94,302.57 90.73,303.38 91.53,303.38 92.32,304.19 93.10,303.38 93.93,35.00 94.72,303.38 95.50,35.00 96.30,35.00 97.09,303.38 97.87,304.19 98.68,35.00 99.45,303.38 100.24,302.57 101.04,304.19 101.81,303.38 102.59,303.38 103.37,302.57 104.15,304.19 104.94,303.38 105.72,303.38 106.52,302.57 107.31,303.38 108.08,35.00 108.86,303.38 109.65,304.19 110.44,304.19 111.33,302.57 112.12,35.00 112.90,304.19 113.68,303.38 114.45,304.19 115.23,303.38 116.01,303.38 116.80,304.19 117.58,35.00 118.38,304.19 119.16,304.19 119.93,304.19 120.72,303.38 121.51,304.19 122.30,302.57 123.08,304.19 123.86,302.57 124.63,302.57 125.41,303.38 126.19,288.80 126.97,302.57 127.75,304.19 128.53,304.19 129.31,303.38 130.10,304.19 130.87,300.14 131.66,304.19 132.44,304.19 133.22,304.19 134.02,35.00 134.80,35.00 135.59,302.57 136.37,35.00 137.15,35.00 137.94,303.38 138.72,304.19 139.50,35.00 140.27,304.19 141.06,304.19 141.85,304.19 142.63,304.19 143.42,303.38 144.19,303.38 144.98,304.19 145.76,304.19 146.54,303.38 147.32,286.91 148.10,303.38 148.88,304.19 149.67,304.19 150.45,304.19 151.23,303.38 152.02,304.19 152.81,304.19 153.60,303.38 154.38,302.57 155.16,302.57 155.94,304.19 156.72,302.57 157.51,304.19 158.30,304.19 159.08,304.19 159.86,35.00 160.65,304.19 161.43,304.19 162.22,302.57 163.02,35.00 163.80,35.00 164.58,303.38 165.36,304.19 166.14,303.38 166.93,304.19 167.71,304.19 168.56,302.57 169.34,304.19 170.14,35.00 170.92,35.00 171.69,302.57 172.47,304.19 173.24,304.19 174.02,303.38 174.81,35.00 175.59,303.38 176.37,35.00 177.15,304.19 177.93,304.19 178.71,304.19 179.50,303.38 180.28,303.38 181.06,304.19 181.84,304.19 182.63,295.28 183.41,35.00 184.19,303.38 184.98,35.00 185.76,35.00 186.55,302.57 187.33,304.19 188.10,299.33 188.88,304.19 189.67,304.19 190.45,304.19 191.23,303.38 192.02,303.38 192.81,303.38 193.59,302.57 194.38,303.38 195.16,304.19 195.94,303.38 196.73,304.19 197.51,303.38 198.31,304.19 199.10,303.38 199.88,303.38 200.67,302.57 201.44,303.38 202.22,304.19 203.00,303.38 203.78,35.00 204.56,304.19 205.34,303.38 206.12,302.57 206.91,304.19 207.69,304.19 208.48,303.38 209.26,303.38 210.06,304.19 210.84,35.00 211.62,303.38 212.40,35.00 213.18,302.57 214.03,303.38 214.83,304.19 215.61,35.00 216.39,303.38 217.16,35.00 217.95,304.19 218.73,304.19 219.51,35.00 220.30,304.19 221.08,302.57 221.86,302.57 222.64,303.38 223.44,35.00 224.22,302.57 225.00,304.19 225.78,301.76 226.57,303.38 227.37,303.38 228.17,304.19 228.95,303.38 229.73,303.38 230.52,304.19 231.30,304.19 232.08,303.38 232.87,304.19 233.66,304.19 234.44,303.38 235.21,35.00 236.01,304.19 236.79,303.38 237.57,304.19 238.36,304.19 239.15,304.19 239.93,35.00 240.71,35.00 241.49,302.57 242.26,302.57 243.05,304.19 243.83,303.38 244.61,302.57 245.39,302.57 246.17,35.00 246.95,304.19 247.74,35.00 248.52,303.38 249.31,35.00 250.10,303.38 250.88,303.38 251.67,303.38 252.45,35.00 253.24,304.19 254.02,302.57 254.80,303.38 255.59,304.19 256.39,303.38 257.17,35.00 257.96,303.38 258.74,304.19 259.52,303.38 260.31,304.19 261.08,35.00 261.86,302.57 262.65,304.19 263.44,304.19 264.22,303.38 265.00,303.38 265.79,304.19 266.57,303.38 267.36,304.19 268.15,304.19 268.94,304.19 269.72,303.38 270.50,302.57 271.29,304.19 272.08,35.00 272.86,295.28 273.65,303.38 274.43,302.57 275.30,303.38 276.09,301.76 276.87,35.00 277.65,304.19 278.44,303.38 279.23,304.19 280.01,304.19 280.80,299.33 281.58,304.19 282.39,303.38 283.18,302.57 283.96,303.38 284.74,302.57 285.52,304.19 286.30,304.19 287.09,304.19 287.90,302.57 288.69,303.38 289.47,303.38 290.26,35.00 291.10,303.38 291.89,303.38 292.87,304.19 294.20,302.57 295.00,303.38 295.80,303.38 296.58,303.38 297.35,304.19 298.13,303.38 298.92,304.19 299.71,304.19 300.50,303.38 301.31,304.19 302.13,304.19 302.96,304.19 303.74,304.19 304.53,302.57 305.31,35.00 306.10,304.19 306.90,302.57 307.69,303.38 308.47,303.38 309.25,303.38 310.06,304.19 310.85,304.19 311.63,303.38 312.41,304.19 313.21,303.38 314.02,304.19 314.81,303.38 315.59,304.19 316.40,287.18 317.15,288.53 317.93,301.76 318.73,302.57 319.51,303.38 320.30,35.00 321.11,35.00 321.90,303.38 322.68,303.38 323.47,304.19 324.26,304.19 325.05,35.00 325.83,304.19 326.60,35.00 327.39,303.38 328.18,303.38 328.96,302.57 329.89,303.38 330.81,303.38 331.74,300.95 332.65,303.38 333.55,302.57 334.45,304.19 335.38,304.19 336.29,35.00 337.07,303.38 337.85,303.38 338.63,304.19 339.41,304.19 340.20,302.57 340.97,303.38 341.75,304.19 342.53,303.38 343.31,303.38 344.10,304.19 344.88,303.38 345.66,304.19 346.44,303.38 347.21,303.38 348.00,304.19 348.77,303.38 349.56,35.00 350.33,304.19 351.12,304.19 351.91,303.38 352.68,304.19 353.46,304.19 354.24,35.00 355.02,303.38 355.80,304.19 356.59,304.19 357.37,304.19 358.15,302.57 358.93,35.00 359.71,303.38 360.49,287.72 361.27,304.19 362.05,304.19 362.83,303.38 363.60,301.76 364.38,303.38 365.16,304.19 365.94,302.57 366.71,303.38 367.49,303.38 368.27,303.38 369.05,303.38 369.83,304.19 370.60,303.38 371.37,302.57 372.18,304.19 373.02,303.38 373.81,303.38 374.59,303.38 375.37,303.38 376.15,304.19 376.92,304.19 377.70,304.19 378.48,304.19 379.40,303.38 380.32,303.38 381.23,304.19 382.15,302.57 383.07,304.19 383.98,303.38 384.92,302.57 385.87,304.19 386.72,303.38 387.56,303.38 388.34,303.38 389.13,302.57 389.92,35.00 390.69,35.00 391.47,304.19 392.26,303.38 393.03,35.00 393.82,35.00 394.59,303.38 395.38,304.19 396.16,304.19 396.94,304.19 397.73,303.38 398.51,304.19 399.29,304.19 399.98,304.19 400.78,304.19 401.57,287.72 402.37,303.38 403.15,302.57 403.93,303.38 404.72,303.38 405.50,304.19 406.29,304.19 407.08,303.38 407.87,302.57 408.67,304.19 409.44,303.38 410.22,302.57 411.00,304.19 411.77,301.76 412.55,304.19 413.33,304.19 414.12,303.38 414.90,303.38 415.68,304.19 416.47,303.38 417.24,301.76 418.03,304.19 418.81,304.19 419.60,304.19 420.39,35.00 421.17,303.38 421.95,304.19 422.74,304.19 423.52,304.19 424.33,304.19 425.11,35.00 425.88,35.00 426.67,302.57 427.44,304.19 428.22,35.00 429.01,304.19 429.79,303.38 430.57,302.57 431.35,302.57 432.13,304.19 432.91,303.38 433.69,304.19 434.48,303.38 435.26,301.76 436.21,304.19 437.01,304.19 437.82,304.19 438.60,302.57 439.39,304.19 440.18,304.19 440.96,304.19 441.73,303.38 442.53,304.19 443.31,303.38 444.09,35.00 444.88,302.57 445.67,304.19 446.45,302.57 447.26,304.19 448.05,303.38 448.84,304.19 449.62,303.38 450.41,35.00 451.19,302.57 451.97,303.38 452.75,304.19 453.57,304.19 454.35,304.19 455.14,304.19 455.92,303.38 456.70,304.19 457.49,304.19 458.27,304.19 459.05,304.19 459.84,304.19 460.63,304.19 461.41,302.57 462.20,304.19 462.98,303.38 463.76,304.19 464.54,304.19 465.34,304.19 466.12,304.19 466.90,35.00 467.68,304.19 468.47,301.76 469.26,217.79 470.05,304.19 470.99,35.00 471.80,303.38 472.58,302.57 473.36,304.19 474.14,303.38 474.93,304.19 475.71,303.38 476.50,304.19 477.30,304.19 478.08,303.38 478.86,35.00 479.64,35.00 480.42,304.19 481.20,302.57 481.98,304.19 482.77,304.19 483.55,304.19 484.33,303.38 485.11,304.19 485.89,302.57 486.69,304.19 487.47,35.00 488.24,35.00 489.04,303.38 489.83,304.19 490.61,303.38 491.39,300.95 492.18,304.19 492.98,304.19 493.76,304.19 494.54,303.38 495.33,303.38 496.12,302.57 496.90,35.00 497.68,303.38 498.47,35.00 499.27,35.00 500.05,303.38 500.84,304.19 501.61,302.57 502.39,304.19 503.17,304.19 503.96,303.38 504.74,303.38 505.53,296.09 506.32,304.19 507.11,304.19 507.88,304.19 508.67,302.57 509.45,35.00 510.24,303.38 511.02,304.19 511.80,302.57 512.58,302.57 513.37,303.38 514.16,35.00 514.94,303.38 515.73,303.38 516.52,304.19 517.31,304.19 518.09,303.38 518.88,304.19 519.76,303.38 520.62,303.38 521.46,302.57 522.25,304.19 523.07,303.38 523.86,303.38 524.65,304.19 525.42,35.00 526.15,303.38 526.97,287.18 527.75,304.19 528.55,286.37 529.32,302.57 530.11,304.19 530.88,304.19 531.68,304.19 532.45,304.19 533.24,304.19 534.02,35.00 534.81,303.38 535.60,304.19 536.38,35.00 537.17,304.19 537.97,304.19 538.75,303.38 539.54,304.19 540.32,304.19 541.12,303.38 541.91,303.38 542.69,304.19 543.47,304.19 544.25,304.19 545.04,304.19 545.82,302.57 546.60,35.00 547.39,35.00 548.18,304.19 548.96,303.38 549.74,304.19 550.53,304.19 551.31,304.19 552.10,304.19 552.89,304.19 553.67,301.76 554.46,303.38 555.24,302.57 556.03,304.19 556.82,35.00 557.61,304.19 558.40,304.19 559.18,303.38 559.97,35.00 560.75,304.19 561.55,304.19 562.36,304.19 563.14,35.00 563.93,304.19 564.71,304.19 565.50,303.38 566.28,303.38 567.07,35.00 567.86,35.00 568.64,303.38 569.43,304.19 570.21,302.57 571.00,302.57 571.79,304.19 572.58,295.28 573.37,303.38 574.16,304.19 574.95,304.19 575.74,303.38 576.53,35.00 577.31,304.19 578.10,302.57 578.89,35.00 579.67,302.57 580.47,303.38 581.26,304.19 582.06,303.38 582.84,304.19 583.62,35.00 584.41,35.00 585.19,302.57 585.98,303.38 586.77,295.28 587.55,304.19 588.34,304.19 589.12,303.38 589.91,303.38 590.70,304.19 591.49,304.19 592.27,35.00 593.06,303.38 593.85,303.38 594.64,304.19 595.42,35.00 596.21,304.19 596.99,303.38 597.77,35.00 598.55,304.19 599.34,303.38 600.13,302.57 600.92,304.19 601.71,302.57 602.49,304.19 603.28,303.38 604.08,304.19 604.86,304.19 605.65,304.19 606.44,304.19 607.23,304.19 608.01,304.19 608.80,303.38 609.60,303.38 610.39,304.19 611.17,304.19 611.98,304.19 612.77,304.19 613.56,303.38 614.35,304.19 615.13,304.19 615.92,303.38 616.71,303.38 617.50,35.00 618.29,303.38 619.08,303.38 619.86,304.19 620.64,35.00 621.45,302.57 622.23,304.19 623.02,287.18 623.81,304.19 624.59,35.00 625.37,35.00 626.15,304.19 626.93,304.19 627.73,304.19 628.51,304.19 629.30,303.38 630.08,303.38 630.87,303.38 631.66,304.19 632.46,35.00 633.26,35.00 634.04,35.00 634.82,286.37 635.60,302.57 636.39,301.76 637.18,303.38 637.97,303.38 638.75,286.37 639.54,304.19 640.33,304.19 641.12,304.19 641.90,304.19 642.69,303.38 643.48,35.00 644.29,303.38 645.09,304.19 645.88,303.38 646.67,303.38 647.46,35.00 648.25,304.19 649.03,35.00 649.81,303.38 650.59,302.57 651.39,303.38 652.17,303.38 652.97,303.38 653.76,303.38 654.55,303.38 655.37,304.19 656.16,35.00 656.94,303.38 657.73,304.19 658.51,35.00 659.31,35.00 660.10,304.19 660.89,303.38 661.68,304.19 662.48,304.19 663.26,301.76 664.06,304.19 664.85,303.38 665.63,304.19 666.42,301.76 667.21,304.19 667.99,302.57 668.79,302.57 669.58,303.38 670.37,304.19 671.15,35.00 671.94,35.00 672.73,35.00 673.52,303.38 674.31,303.38 675.10,304.19 675.92,35.00 676.70,302.57 677.50,304.19 678.29,35.00 679.09,304.19 679.90,304.19 680.70,303.38 681.50,303.38 682.31,302.57 683.10,304.19 683.89,303.38 684.68,303.38 685.47,304.19 686.26,35.00 687.05,304.19 687.86,35.00 688.64,304.19 689.43,303.38 690.22,35.00 691.00,302.57 691.79,303.38 692.58,298.52 693.36,303.38 694.15,304.19 694.93,303.38 695.72,304.19 696.50,304.19 697.28,35.00 698.07,304.19 698.86,304.19 699.65,35.00 700.43,304.19 701.23,303.38 702.02,304.19 702.80,35.00 703.60,303.38 704.38,303.38 705.17,304.19 705.95,304.19 706.74,304.19 707.53,304.19 708.32,298.52 709.10,303.38 709.88,302.57 710.66,304.19 711.45,302.57 712.24,303.38 713.02,304.19 713.81,304.19 714.60,303.38 715.38,303.38 716.17,304.19 716.96,304.19 717.74,35.00 718.52,35.00 719.30,304.19 720.07,304.19 720.86,303.38 721.65,303.38 722.45,301.76 723.23,304.19 724.02,304.19 724.81,284.75 725.61,303.38 726.40,303.38 727.18,304.19 727.98,304.19 728.76,304.19 729.55,303.38 730.34,303.38 731.13,304.19 731.93,303.38 732.72,303.38 733.51,303.38 734.29,304.19 735.07,304.19 735.86,303.38 736.64,302.57 737.43,303.38 738.20,304.19 738.99,303.38 739.78,304.19 740.57,304.19 741.35,35.00 742.14,303.38 742.92,304.19 743.71,302.57 744.50,304.19 745.29,304.19 746.08,304.19 746.86,303.38 747.65,301.76 748.45,35.00 749.23,304.19 750.01,303.38 750.80,304.19 751.59,35.00 752.37,304.19 753.16,304.19 753.96,304.19 754.74,304.19 755.52,304.19 756.30,35.00 757.12,35.00 757.91,303.38 758.71,304.19 759.51,304.19 760.29,302.57 761.08,35.00 761.87,302.57 762.66,35.00 763.45,35.00 764.23,303.38 765.03,303.38 765.83,304.19 766.62,304.19 767.41,35.00 768.20,304.19 768.98,303.38 769.78,302.57 770.56,304.19 771.34,304.19 772.13,303.38 772.92,302.57 773.70,304.19 774.49,304.19 775.27,304.19 776.07,304.19 776.85,35.00 777.63,35.00 778.42,304.19 779.20,303.38 779.98,35.00 780.79,304.19 781.57,302.57 782.35,304.19 783.14,304.19 783.93,304.19 784.70,294.47 785.50,303.38 786.28,35.00 787.08,304.19 787.87,304.19 788.65,302.57 789.43,304.19 790.22,304.19 791.01,304.19 791.79,303.38 792.59,304.19 793.40,303.38 794.19,304.19 795.00,304.19 795.80,302.57 796.60,302.57 797.41,304.19 798.21,304.19 799.03,301.76 799.83,301.76 800.64,35.00 801.43,304.19 802.21,303.38 803.00,304.19 803.80,304.19 804.58,303.38 805.38,304.19 806.16,35.00 806.96,35.00 807.74,303.38 808.53,304.19 809.31,304.19 810.10,302.57 810.89,303.38 811.67,304.19 812.45,303.38 813.25,304.19 814.03,304.19 814.82,302.57 815.62,35.00 816.41,304.19 817.20,35.00 817.98,35.00 818.77,304.19 819.56,304.19 820.34,303.38 821.13,303.38 821.92,304.19 822.70,304.19 823.50,303.38 824.28,304.19 825.07,304.19 825.86,304.19 826.64,304.19 827.43,304.19 828.27,303.38 829.09,35.00 829.87,301.76 830.66,35.00 831.44,302.57 832.24,304.19 833.04,304.19 833.83,304.19 834.62,303.38 835.40,304.19 836.17,302.57 836.96,304.19 837.74,35.00 838.53,303.38 839.32,304.19 840.11,303.38 840.90,303.38 841.69,302.57 842.48,35.00 843.27,304.19 844.05,35.00 844.84,304.19 845.63,295.28 846.42,304.19 847.20,303.38 847.99,297.71 848.78,304.19 849.57,35.00 850.36,302.57 851.18,302.57 851.97,304.19 852.75,304.19 853.54,303.38 854.33,304.19 855.12,303.38 855.91,304.19 856.70,304.19 857.48,303.38 858.27,304.19 859.06,304.19 859.86,304.19 860.66,303.38 861.45,304.19 862.23,303.38 863.02,35.00 863.81,304.19 864.59,303.38 865.38,303.38 866.17,303.38 866.97,304.19 867.75,35.00 868.54,303.38 869.33,35.00 870.11,304.19 870.90,35.00 871.69,35.00 872.47,304.19 873.26,35.00 874.05,304.19 874.84,304.19 875.62,35.00 876.41,304.19 877.19,304.19 877.98,303.38 878.77,303.38 879.56,303.38 880.35,304.19 881.12,303.38 881.91,35.00 882.69,303.38 883.49,304.19 884.27,303.38 885.08,302.57 885.87,303.38 886.66,304.19 887.45,304.19 888.24,286.91 889.04,301.76 889.88,303.38 890.69,303.38 891.48,304.19 892.28,303.38 893.07,304.19 893.86,303.38 894.64,304.19 895.43,304.19 896.22,304.19 897.01,304.19 897.80,302.57 898.59,35.00 899.38,303.38 900.18,303.38 900.97,35.00 901.76,303.38 902.55,304.19 903.34,304.19 904.13,303.38 904.92,303.38 905.70,303.38 906.49,303.38 907.29,303.38 908.07,304.19 908.87,303.38 909.66,301.76 910.45,304.19 911.24,304.19 912.04,303.38 912.83,304.19 913.62,35.00 914.40,304.19 915.19,35.00 915.99,303.38 916.76,303.38 917.55,303.38 918.34,304.19 919.12,301.76 919.92,35.00 920.71,35.00 921.49,302.57 922.28,304.19 923.07,35.00 923.86,304.19 924.64,304.19 925.44,304.19 926.22,304.19 927.02,304.19 927.81,35.00 928.58,35.00 929.35,35.00 930.13,304.19 930.93,304.19 931.72,303.38 932.51,304.19 933.31,302.57 934.09,302.57 934.89,303.38 935.68,304.19 936.47,303.38 937.26,304.19 938.04,303.38 938.83,35.00 939.60,303.38 940.39,35.00 941.17,304.19 941.97,304.19 942.75,304.19 943.53,304.19 944.31,302.57 945.11,35.00 945.89,304.19 946.68,303.38 947.46,287.72 948.25,286.10 949.01,304.19 949.82,35.00 950.60,304.19 951.39,301.76 952.18,304.19 952.98,35.00 953.76,304.19 954.55,303.38 955.34,304.19 956.13,304.19 956.91,301.76 957.70,299.33 958.55,302.57 959.33,304.19 960.13,303.38 960.92,35.00 961.72,35.00 962.50,303.38 963.28,303.38 964.08,304.19 964.86,285.02 965.65,304.19 966.43,304.19 967.22,304.19 968.01,304.19 968.81,303.38 969.59,302.57 970.38,303.38 971.17,35.00 971.96,35.00 972.75,304.19 973.54,302.57 974.33,303.38 975.13,35.00 975.93,303.38 976.73,303.38 977.51,35.00 978.30,304.19 979.10,303.38 979.89,302.57 980.68,303.38 981.46,304.19 982.25,304.19 983.03,303.38 983.82,303.38 984.61,35.00 985.40,302.57 986.19,35.00 986.98,35.00 987.77,304.19 988.55,304.19 989.33,303.38 990.12,304.19 990.91,303.38 991.69,35.00 992.48,304.19 993.27,304.19 994.05,35.00 994.83,304.19 995.62,302.57 996.40,300.95 997.18,35.00 997.97,35.00 998.75,35.00 999.54,303.38 1000.32,303.38 1001.11,304.19 1001.89,304.19 1002.68,303.38 1003.46,302.57 1004.25,303.38 1005.02,304.19 1005.81,304.19 1006.61,304.19 1007.39,304.19 1008.17,303.38 1008.97,303.38 1009.79,303.38 1010.57,302.57 1011.36,304.19 1012.15,303.38 1012.94,304.19 1013.73,304.19 1014.52,304.19 1015.31,302.57 1016.10,304.19 1016.89,302.57 1017.67,35.00 1018.45,304.19 1019.24,303.38 1020.03,304.19 1020.82,35.00 1021.60,304.19 1022.38,303.38 1023.17,303.38 1023.95,304.19 1024.74,303.38 1025.54,35.00 1026.36,304.19 1027.15,303.38 1027.93,303.38 1028.70,303.38 1029.48,304.19 1030.29,35.00 1031.07,303.38 1031.86,303.38 1032.65,304.19 1033.43,302.57 1034.22,304.19 1035.01,304.19 1035.80,304.19 1036.59,303.38 1037.37,304.19 1038.16,303.38 1038.95,304.19 1039.74,301.76 1040.52,303.38 1041.30,304.19 1042.08,304.19 1042.87,35.00 1043.66,298.52 1044.44,303.38 1045.23,304.19 1046.02,302.57 1046.81,303.38 1047.59,304.19 1048.38,304.19 1049.17,302.57 1049.95,301.76 1050.74,35.00 1051.52,304.19 1052.32,304.19 1053.10,304.19 1053.89,304.19 1054.68,35.00 1055.46,35.00 1056.24,303.38 1057.02,35.00 1057.82,302.57 1058.59,304.19 1059.41,304.19 1060.19,304.19 1060.97,304.19 1061.76,304.19 1062.55,304.19 1063.34,302.57 1064.14,303.38 1064.94,304.19 1065.77,35.00 1066.56,304.19 1067.41,302.57 1068.20,304.19 1068.97,304.19 1069.76,302.57 1070.54,302.57 1071.33,304.19 1072.12,304.19 1072.91,303.38 1073.69,304.19 1074.48,303.38 1075.27,304.19 1076.05,303.38 1076.83,301.76 1077.62,35.00 1078.41,302.57 1079.19,303.38 1079.97,302.57 1080.75,303.38 1081.55,303.38 1082.34,303.38 1083.13,303.38 1083.91,303.38 1084.69,302.57 1085.48,304.19 1086.26,301.76 1087.06,302.57 1087.85,302.57 1088.63,302.57 1089.42,304.19 1090.21,304.19 1090.99,302.57 1091.77,35.00 1092.56,304.19 1093.34,301.76 1094.13,304.19 1094.91,303.38 1095.68,303.38 1096.47,304.19 1097.26,304.19 1098.04,303.38 1098.83,303.38 1099.62,302.57 1100.44,304.19 1101.23,304.19 1102.01,304.19 1102.79,35.00 1103.58,303.38 1104.35,302.57 1105.14,302.57 1105.93,303.38 1106.71,304.19 1107.49,303.38 1108.27,304.19 1109.06,304.19 1109.84,304.19 1110.62,302.57 1111.41,303.38 1112.19,35.00 1112.98,302.57 1113.77,35.00 1114.55,304.19 1115.33,300.14 1116.13,35.00 1116.91,304.19 1117.70,303.38 1118.49,35.00 1119.27,304.19 1120.05,304.19 1120.85,302.57 1121.64,303.38 1122.44,304.19 1123.22,304.19 1124.00,304.19 1124.79,304.19 1125.58,304.19 1126.36,35.00 1127.17,304.19 1127.96,303.38 1128.75,304.19 1129.54,303.38 1130.33,303.38 1131.11,303.38 1131.90,35.00 1132.68,304.19 1133.48,304.19 1134.27,304.19 1135.04,302.57 1135.83,304.19 1136.63,35.00 1137.42,302.57 1138.21,304.19 1139.01,287.99 1139.82,302.57 1140.65,303.38 1141.44,304.19 1142.23,304.19 1143.01,35.00 1143.79,304.19 1144.59,303.38 1145.37,303.38 1146.16,304.19 1146.95,304.19 1147.74,304.19 1148.53,286.37 1149.31,303.38 1150.09,303.38 1150.88,304.19 1151.67,303.38 1152.47,287.72 1153.27,304.19 1154.07,303.38 1154.86,304.19 1155.66,35.00 1156.48,304.19 1157.27,270.71 1158.11,304.19 1158.90,304.19 1159.69,304.19 1160.48,35.00 1161.26,303.38 1162.05,304.19 1162.84,302.57 1163.62,302.57 1164.41,304.19 1165.19,303.38 1165.98,304.19 1166.78,302.57 1167.57,302.57 1168.36,303.38 1169.16,304.19 1170.08,304.19 1170.87,304.19 1171.65,304.19 1172.43,303.38 1173.21,303.38 1173.99,302.57 1174.77,304.19 1175.50,304.19 1176.20,302.57 1178.51,35.00 1180.00,302.57"/>
<polyline fill="none" stroke="#d62728" stroke-opacity="0.65" stroke-width="2" points="70.00,35.00 70.78,304.46 71.57,304.46 72.35,302.30 73.14,304.46 73.93,303.38 74.71,304.46 75.49,304.46 76.34,35.00 77.12,304.46 77.90,304.46 78.68,303.92 79.47,303.92 80.25,304.46 81.03,304.46 82.44,303.92 83.66,304.46 84.45,35.00 85.25,303.92 86.03,302.84 86.82,304.46 87.58,303.92 88.37,302.84 89.16,35.00 89.94,303.92 90.73,35.00 91.53,35.00 92.32,35.00 93.10,303.92 93.93,35.00 94.72,303.38 95.50,303.92 96.30,304.46 97.09,35.00 97.87,35.00 98.68,304.46 99.45,35.00 100.24,304.46 101.04,35.00 101.81,304.46 102.59,303.92 103.37,35.00 104.15,304.46 104.94,304.46 105.72,293.12 106.52,35.00 107.31,304.46 108.08,304.46 108.86,304.46 109.65,35.00 110.44,304.46 111.33,304.46 112.12,304.46 112.90,35.00 113.68,35.00 114.45,304.46 115.23,304.46 116.01,303.38 116.80,303.92 117.58,304.46 118.38,35.00 119.16,304.46 119.93,304.46 120.72,35.00 121.51,304.46 122.30,303.92 123.08,304.46 123.86,304.46 124.63,35.00 125.41,303.92 126.19,303.92 126.97,304.46 127.75,303.92 128.53,303.92 129.31,35.00 130.10,303.92 130.87,304.46 131.66,304.46 132.44,303.38 133.22,35.00 134.02,304.46 134.80,303.38 135.59,304.46 136.37,35.00 137.15,304.46 137.94,304.46 138.72,303.92 139.50,303.92 140.27,303.92 141.06,304.46 141.85,303.92 142.63,304.46 143.42,303.92 144.19,35.00 144.98,303.92 145.76,303.92 146.54,304.46 147.32,304.46 148.10,303.92 148.88,303.92 149.67,35.00 150.45,35.00 151.23,303.92 152.02,35.00 152.81,304.46 153.60,304.46 154.38,304.46 155.16,304.46 155.94,303.92 156.72,304.46 157.51,303.38 158.30,304.46 159.08,303.92 159.86,35.00 160.65,304.46 161.43,303.92 162.22,303.92 163.02,303.92 163.80,304.46 164.58,35.00 165.36,304.46 166.14,304.46 166.93,35.00 167.71,303.92 168.56,304.46 169.34,303.92 170.14,304.46 170.92,304.46 171.69,303.92 172.47,303.92 173.24,304.46 174.02,304.46 174.81,304.46 175.59,303.38 176.37,304.46 177.15,35.00 177.93,303.92 178.71,35.00 179.50,304.46 180.28,35.00 181.06,35.00 181.84,303.92 182.63,303.92 183.41,304.46 184.19,304.46 184.98,304.46 185.76,303.92 186.55,304.46 187.33,304.46 188.10,303.92 188.88,35.00 189.67,304.46 190.45,35.00 191.23,303.92 192.02,304.46 192.81,304.46 193.59,35.00 194.38,35.00 195.16,35.00 195.94,304.46 196.73,303.92 197.51,304.46 198.31,303.92 199.10,303.92 199.88,304.46 200.67,304.46 201.44,304.46 202.22,304.46 203.00,304.46 203.78,304.46 204.56,304.46 205.34,282.59 206.12,304.46 206.91,303.92 207.69,304.46 208.48,304.46 209.26,304.46 210.06,303.38 210.84,304.46 211.62,304.46 212.40,303.92 213.18,304.46 214.03,303.92 214.83,304.46 215.61,304.46 216.39,304.46 217.16,304.46 217.95,304.46 218.73,303.38 219.51,304.46 220.30,304.46 221.08,304.46 221.86,303.92 222.64,35.00 223.44,304.46 224.22,303.92 225.00,303.92 225.78,303.92 226.57,35.00 227.37,304.46 228.17,304.46 228.95,35.00 229.73,303.92 230.52,35.00 231.30,35.00 232.08,304.46 232.87,304.46 233.66,35.00 234.44,35.00 235.21,304.46 236.01,304.46 236.79,303.92 237.57,303.92 238.36,304.46 239.15,304.46 239.93,304.46 240.71,303.92 241.49,304.46 242.26,304.46 243.05,303.92 243.83,303.38 244.61,304.46 245.39,35.00 246.17,304.46 246.95,35.00 247.74,35.00 248.52,303.92 249.31,303.92 250.10,304.46 250.88,304.46 251.67,304.46 252.45,303.92 253.24,297.98 254.02,35.00 254.80,304.46 255.59,303.92 256.39,304.46 257.17,303.92 257.96,35.00 258.74,303.92 259.52,304.46 260.31,35.00 261.08,303.92 261.86,304.46 262.65,304.46 263.44,35.00 264.22,303.92 265.00,303.92 265.79,35.00 266.57,303.92 267.36,303.92 268.15,35.00 268.94,303.92 269.72,304.46 270.50,303.92 271.29,304.46 272.08,303.92 272.86,35.00 273.65,304.46 274.43,35.00 275.30,35.00 276.09,303.92 276.87,303.38 277.65,303.38 278.44,303.38 279.23,35.00 280.01,304.46 280.80,304.46 281.58,304.46 282.39,35.00 283.18,304.46 283.96,304.46 284.74,304.46 285.52,35.00 286.30,304.46 287.09,304.46 287.90,293.66 288.69,303.92 289.47,304.46 290.26,303.92 291.10,304.46 291.89,35.00 292.87,304.46 294.20,304.46 295.00,304.46 295.80,304.46 296.58,35.00 297.35,304.46 298.13,304.46 298.92,303.92 299.71,35.00 300.50,304.46 301.31,35.00 302.13,303.38 302.96,304.46 303.74,304.46 304.53,35.00 305.31,35.00 306.10,304.46 306.90,35.00 307.69,304.46 308.47,304.46 309.25,304.46 310.06,35.00 310.85,303.92 311.63,35.00 312.41,304.46 313.21,304.46 314.02,297.98 314.81,304.46 315.59,35.00 316.40,293.12 317.15,35.00 317.93,303.92 318.73,35.00 319.51,304.46 320.30,304.46 321.11,303.92 321.90,304.46 322.68,304.46 323.47,303.92 324.26,303.92 325.05,304.46 325.83,303.92 326.60,35.00 327.39,304.46 328.18,304.46 328.96,304.46 329.89,304.46 330.81,303.92 331.74,304.46 332.65,304.46 333.55,303.38 334.45,303.92 335.38,303.92 336.29,304.46 337.07,35.00 337.85,35.00 338.63,304.46 339.41,304.46 340.20,303.92 340.97,304.46 341.75,303.92 342.53,35.00 343.31,304.46 344.10,304.46 344.88,304.46 345.66,304.46 346.44,293.12 347.21,304.46 348.00,35.00 348.77,303.92 349.56,303.92 350.33,304.46 351.12,304.46 351.91,35.00 352.68,303.92 353.46,304.46 354.24,304.46 355.02,304.46 355.80,35.00 356.59,297.98 357.37,303.92 358.15,303.38 358.93,304.46 359.71,35.00 360.49,302.84 361.27,303.92 362.05,35.00 362.83,35.00 363.60,303.92 364.38,302.84 365.16,304.46 365.94,303.38 366.71,35.00 367.49,304.46 368.27,304.46 369.05,304.46 369.83,303.92 370.60,304.46 371.37,35.00 372.18,304.46 373.02,303.92 373.81,35.00 374.59,303.92 375.37,303.92 376.15,304.46 376.92,304.46 377.70,304.46 378.48,303.92 379.40,304.46 380.32,304.46 381.23,303.92 382.15,304.46 383.07,303.92 383.98,303.92 384.92,304.46 385.87,303.92 386.72,303.92 387.56,303.92 388.34,35.00 389.13,35.00 389.92,35.00 390.69,303.92 391.47,304.46 392.26,304.46 393.03,304.46 393.82,304.46 394.59,304.46 395.38,35.00 396.16,304.46 396.94,303.38 397.73,35.00 398.51,35.00 399.29,303.92 399.98,282.32 400.78,282.05 401.57,304.46 402.37,35.00 403.15,303.38 403.93,304.46 404.72,35.00 405.50,35.00 406.29,35.00 407.08,303.92 407.87,304.46 408.67,304.46 409.44,303.92 410.22,35.00 411.00,303.38 411.77,303.92 412.55,304.46 413.33,303.92 414.12,304.46 414.90,304.46 415.68,304.46 416.47,304.46 417.24,304.46 418.03,303.92 418.81,303.92 419.60,303.92 420.39,304.46 421.17,304.46 421.95,35.00 422.74,35.00 423.52,304.46 424.33,304.46 425.11,304.46 425.88,303.92 426.67,35.00 427.44,303.92 428.22,35.00 429.01,303.92 429.79,304.46 430.57,35.00 431.35,304.46 432.13,35.00 432.91,304.46 433.69,303.92 434.48,304.46 435.26,302.84 436.21,303.92 437.01,303.92 437.82,304.46 438.60,304.46 439.39,303.38 440.18,303.92 440.96,299.06 441.73,35.00 442.53,304.46 443.31,303.92 444.09,304.46 444.88,35.00 445.67,303.92 446.45,303.92 447.26,304.46 448.05,303.92 448.84,35.00 449.62,304.46 450.41,35.00 451.19,303.92 451.97,35.00 452.75,303.38 453.57,304.46 454.35,304.46 455.14,35.00 455.92,304.46 456.70,304.46 457.49,304.46 458.27,303.92 459.05,35.00 459.84,303.38 460.63,304.46 461.41,304.46 462.20,35.00 462.98,304.46 463.76,35.00 464.54,304.46 465.34,304.46 466.12,291.50 466.90,303.92 467.68,304.46 468.47,304.46 469.26,303.38 470.05,303.92 470.99,303.38 471.80,303.92 472.58,35.00 473.36,35.00 474.14,304.46 474.93,303.38 475.71,304.46 476.50,35.00 477.30,303.92 478.08,304.46 478.86,35.00 479.64,303.92 480.42,35.00 481.20,304.46 481.98,304.46 482.77,35.00 483.55,304.46 484.33,304.46 485.11,35.00 485.89,304.46 486.69,304.46 487.47,304.46 488.24,303.92 489.04,35.00 489.83,304.46 490.61,304.46 491.39,35.00 492.18,304.46 492.98,303.38 493.76,35.00 494.54,304.46 495.33,304.46 496.12,303.92 496.90,304.46 497.68,304.46 498.47,304.46 499.27,304.46 500.05,304.46 500.84,304.46 501.61,303.92 502.39,304.46 503.17,303.92 503.96,304.46 504.74,35.00 505.53,304.46 506.32,304.46 507.11,303.92 507.88,35.00 508.67,304.46 509.45,304.46 510.24,304.46 511.02,304.46 511.80,303.92 512.58,304.46 513.37,304.46 514.16,35.00 514.94,304.46 515.73,303.92 516.52,35.00 517.31,35.00 518.09,303.92 518.88,281.24 519.76,304.46 520.62,304.46 521.46,35.00 522.25,303.92 523.07,303.92 523.86,304.46 524.65,304.46 525.42,303.92 526.15,293.12 526.97,303.92 527.75,292.58 528.55,294.20 529.32,293.12 530.11,303.92 530.88,304.46 531.68,303.92 532.45,303.38 533.24,304.46 534.02,304.46 534.81,304.46 535.60,303.92 536.38,35.00 537.17,35.00 537.97,35.00 538.75,35.00 539.54,304.46 540.32,35.00 541.12,304.46 541.91,303.92 542.69,304.46 543.47,303.92 544.25,303.92 545.04,304.46 545.82,303.92 546.60,304.46 547.39,304.46 548.18,35.00 548.96,304.46 549.74,304.46 550.53,35.00 551.31,303.92 552.10,35.00 552.89,303.92 553.67,35.00 554.46,304.46 555.24,35.00 556.03,304.46 556.82,304.46 557.61,303.92 558.40,304.46 559.18,35.00 559.97,303.92 560.75,304.46 561.55,304.46 562.36,304.46 563.14,304.46 563.93,303.92 564.71,302.84 565.50,304.46 566.28,304.46 567.07,304.46 567.86,304.46 568.64,303.92 569.43,304.46 570.21,303.38 571.00,35.00 571.79,35.00 572.58,303.38 573.37,35.00 574.16,304.46 574.95,303.92 575.74,304.46 576.53,303.92 577.31,304.46 578.10,35.00 578.89,35.00 579.67,35.00 580.47,303.92 581.26,303.92 582.06,303.92 582.84,304.46 583.62,303.92 584.41,304.46 585.19,304.46 585.98,304.46 586.77,304.46 587.55,304.46 588.34,304.46 589.12,35.00 589.91,304.46 590.70,35.00 591.49,304.46 592.27,304.46 593.06,304.46 593.85,304.46 594.64,303.92 595.42,292.58 596.21,304.46 596.99,304.46 597.77,303.92 598.55,304.46 599.34,304.46 600.13,304.46 600.92,303.92 601.71,35.00 602.49,304.46 603.28,304.46 604.08,304.46 604.86,303.92 605.65,304.46 606.44,293.66 607.23,292.04 608.01,293.66 608.80,293.12 609.60,294.20 610.39,293.12 611.17,293.12 611.98,292.58 612.77,293.12 613.56,293.39 614.35,293.12 615.13,293.12 615.92,293.12 616.71,293.12 617.50,293.66 618.29,292.58 619.08,292.58 619.86,293.66 620.64,293.12 621.45,292.58 622.23,293.12 623.02,294.20 623.81,293.12 624.59,293.12 625.37,292.58 626.15,294.20 626.93,293.66 627.73,281.51 628.51,271.25 629.30,293.66 630.08,293.66 630.87,293.12 631.66,293.12 632.46,293.66 633.26,293.12 634.04,293.66 634.82,293.66 635.60,293.66 636.39,293.12 637.18,293.66 637.97,293.12 638.75,292.04 639.54,293.12 640.33,293.12 641.12,293.12 641.90,292.58 642.69,293.12 643.48,293.12 644.29,292.58 645.09,292.58 645.88,293.12 646.67,293.12 647.46,293.39 648.25,293.12 649.03,293.66 649.81,293.12 650.59,292.58 651.39,293.66 652.17,292.58 652.97,293.12 653.76,293.66 654.55,294.20 655.37,293.66 656.16,293.66 656.94,293.12 657.73,293.12 658.51,292.04 659.31,293.12 660.10,293.66 660.89,293.12 661.68,294.20 662.48,293.66 663.26,294.20 664.06,293.12 664.85,293.66 665.63,282.05 666.42,293.66 667.21,293.66 667.99,293.66 668.79,293.12 669.58,293.12 670.37,293.12 671.15,293.12 671.94,293.66 672.73,293.66 673.52,293.66 674.31,292.58 675.10,293.66 675.92,294.20 676.70,293.12 677.50,293.12 678.29,294.20 679.09,292.58 679.90,294.20 680.70,293.12 681.50,293.66 682.31,294.20 683.10,294.20 683.89,293.12 684.68,293.66 685.47,293.66 686.26,293.12 687.05,292.58 687.86,293.66 688.64,293.12 689.43,293.12 690.22,283.13 691.00,292.58 691.79,293.66 692.58,293.66 693.36,292.58 694.15,282.05 694.93,293.12 695.72,293.12 696.50,293.12 697.28,292.58 698.07,293.66 698.86,294.20 699.65,293.12 700.43,293.66 701.23,304.46 702.02,303.92 702.80,35.00 703.60,303.92 704.38,304.46 705.17,303.92 705.95,304.46 706.74,304.46 707.53,35.00 708.32,304.46 709.10,303.92 709.88,303.92 710.66,303.92 711.45,304.46 712.24,304.46 713.02,303.38 713.81,304.46 714.60,304.46 715.38,303.92 716.17,304.46 716.96,303.92 717.74,35.00 718.52,304.46 719.30,304.46 720.07,35.00 720.86,304.46 721.65,304.46 722.45,304.46 723.23,303.92 724.02,35.00 724.81,304.46 725.61,304.46 726.40,303.92 727.18,304.46 727.98,35.00 728.76,35.00 729.55,304.46 730.34,304.46 731.13,303.92 731.93,304.46 732.72,303.92 733.51,35.00 734.29,35.00 735.07,35.00 735.86,303.38 736.64,293.12 737.43,293.12 738.20,304.46 738.99,304.46 739.78,258.83 740.57,303.92 741.35,304.46 742.14,35.00 742.92,35.00 743.71,304.46 744.50,303.38 745.29,35.00 746.08,303.92 746.86,304.46 747.65,303.92 748.45,303.92 749.23,304.46 750.01,304.46 750.80,304.46 751.59,304.46 752.37,304.46 753.16,35.00 753.96,297.44 754.74,35.00 755.52,303.92 756.30,35.00 757.12,304.46 757.91,304.46 758.71,304.46 759.51,304.46 760.29,304.46 761.08,303.92 761.87,303.92 762.66,303.92 763.45,35.00 764.23,304.46 765.03,304.46 765.83,303.92 766.62,304.46 767.41,35.00 768.20,304.46 768.98,35.00 769.78,304.46 770.56,302.84 771.34,35.00 772.13,303.92 772.92,304.46 773.70,304.46 774.49,303.92 775.27,304.46 776.07,304.46 776.85,35.00 777.63,303.92 778.42,304.46 779.20,303.38 779.98,304.46 780.79,304.46 781.57,303.92 782.35,304.46 783.14,303.92 783.93,303.92 784.70,304.46 785.50,35.00 786.28,303.92 787.08,304.46 787.87,35.00 788.65,304.46 789.43,304.46 790.22,303.92 791.01,35.00 791.79,35.00 792.59,303.92 793.40,304.46 794.19,35.00 795.00,35.00 795.80,35.00 796.60,303.92 797.41,304.46 798.21,303.92 799.03,303.92 799.83,304.46 800.64,303.92 801.43,35.00 802.21,304.46 803.00,304.46 803.80,304.46 804.58,303.92 805.38,35.00 806.16,304.46 806.96,304.46 807.74,303.38 808.53,35.00 809.31,304.46 810.10,303.92 810.89,304.46 811.67,35.00 812.45,303.92 813.25,304.46 814.03,304.46 814.82,304.46 815.62,293.66 816.41,293.12 817.20,293.12 817.98,293.66 818.77,303.92 819.56,304.46 820.34,304.46 821.13,304.46 821.92,304.46 822.70,303.92 823.50,304.46 824.28,304.46 825.07,304.46 825.86,304.46 826.64,303.92 827.43,35.00 828.27,35.00 829.09,303.92 829.87,302.84 830.66,303.92 831.44,303.38 832.24,304.46 833.04,303.92 833.83,303.92 834.62,304.46 835.40,303.92 836.17,304.46 836.96,304.46 837.74,303.92 838.53,303.92 839.32,304.46 840.11,304.46 840.90,304.46 841.69,303.92 842.48,35.00 843.27,35.00 844.05,304.46 844.84,303.38 845.63,304.46 846.42,304.46 847.20,304.46 847.99,304.46 848.78,35.00 849.57,303.92 850.36,35.00 851.18,35.00 851.97,303.92 852.75,304.46 853.54,303.92 854.33,304.46 855.12,304.46 855.91,304.46 856.70,304.46 857.48,303.92 858.27,303.92 859.06,304.46 859.86,35.00 860.66,303.92 861.45,303.92 862.23,303.38 863.02,304.46 863.81,35.00 864.59,304.46 865.38,304.46 866.17,304.46 866.97,303.92 867.75,303.92 868.54,303.92 869.33,304.46 870.11,304.46 870.90,304.46 871.69,304.46 872.47,304.46 873.26,304.46 874.05,303.92 874.84,304.46 875.62,304.46 876.41,35.00 877.19,304.46 877.98,304.46 878.77,304.46 879.56,304.46 880.35,35.00 881.12,303.92 881.91,303.92 882.69,303.92 883.49,35.00 884.27,303.92 885.08,303.92 885.87,35.00 886.66,304.46 887.45,248.57 888.24,259.37 889.04,269.09 889.88,293.12 890.69,282.59 891.48,270.17 892.28,282.05 893.07,35.00 893.86,304.46 894.64,304.46 895.43,303.92 896.22,304.46 897.01,304.46 897.80,304.46 898.59,303.38 899.38,304.46 900.18,304.46 900.97,304.46 901.76,304.46 902.55,304.46 903.34,304.46 904.13,303.92 904.92,303.92 905.70,35.00 906.49,303.92 907.29,304.46 908.07,303.92 908.87,35.00 909.66,35.00 910.45,35.00 911.24,303.92 912.04,304.46 912.83,304.46 913.62,35.00 914.40,35.00 915.19,35.00 915.99,35.00 916.76,35.00 917.55,304.46 918.34,304.46 919.12,304.46 919.92,304.46 920.71,304.46 921.49,303.92 922.28,35.00 923.07,35.00 923.86,304.46 924.64,304.46 925.44,304.46 926.22,303.92 927.02,304.46 927.81,35.00 928.58,304.46 929.35,303.38 930.13,304.46 930.93,304.46 931.72,303.92 932.51,304.46 933.31,304.46 934.09,303.92 934.89,303.92 935.68,304.46 936.47,303.92 937.26,303.92 938.04,304.46 938.83,304.46 939.60,35.00 940.39,303.92 941.17,303.92 941.97,304.46 942.75,35.00 943.53,304.46 944.31,303.92 945.11,293.12 945.89,304.46 946.68,304.46 947.46,35.00 948.25,286.64 949.01,259.37 949.82,248.84 950.60,35.00 951.39,35.00 952.18,303.92 952.98,302.84 953.76,304.46 954.55,304.46 955.34,303.92 956.13,304.46 956.91,35.00 957.70,304.46 958.55,303.92 959.33,304.46 960.13,303.92 960.92,304.46 961.72,304.46 962.50,35.00 963.28,303.38 964.08,304.46 964.86,304.46 965.65,304.46 966.43,302.84 967.22,298.52 968.01,35.00 968.81,303.92 969.59,304.46 970.38,303.92 971.17,35.00 971.96,304.46 972.75,304.46 973.54,304.46 974.33,304.46 975.13,303.92 975.93,304.46 976.73,304.46 977.51,304.46 978.30,304.46 979.10,303.92 979.89,303.92 980.68,304.46 981.46,35.00 982.25,303.92 983.03,303.92 983.82,303.38 984.61,303.92 985.40,303.92 986.19,303.92 986.98,35.00 987.77,304.46 988.55,304.46 989.33,304.46 990.12,303.92 990.91,304.46 991.69,304.46 992.48,304.46 993.27,304.46 994.05,35.00 994.83,304.46 995.62,304.46 996.40,35.00 997.18,35.00 997.97,303.92 998.75,304.46 999.54,304.46 1000.32,303.92 1001.11,304.46 1001.89,304.46 1002.68,35.00 1003.46,304.46 1004.25,303.92 1005.02,35.00 1005.81,304.46 1006.61,303.92 1007.39,35.00 1008.17,304.46 1008.97,304.46 1009.79,35.00 1010.57,303.92 1011.36,35.00 1012.15,35.00 1012.94,304.46 1013.73,304.46 1014.52,304.46 1015.31,304.46 1016.10,301.76 1016.89,35.00 1017.67,304.46 1018.45,35.00 1019.24,303.92 1020.03,304.46 1020.82,304.46 1021.60,293.12 1022.38,303.92 1023.17,35.00 1023.95,303.92 1024.74,304.46 1025.54,35.00 1026.36,304.46 1027.15,35.00 1027.93,304.46 1028.70,304.46 1029.48,304.46 1030.29,35.00 1031.07,304.46 1031.86,35.00 1032.65,304.46 1033.43,303.92 1034.22,304.46 1035.01,303.92 1035.80,303.92 1036.59,35.00 1037.37,304.46 1038.16,35.00 1038.95,303.92 1039.74,304.46 1040.52,303.92 1041.30,35.00 1042.08,303.92 1042.87,303.92 1043.66,303.92 1044.44,35.00 1045.23,304.46 1046.02,35.00 1046.81,304.46 1047.59,304.46 1048.38,304.46 1049.17,303.92 1049.95,304.46 1050.74,304.46 1051.52,35.00 1052.32,304.46 1053.10,35.00 1053.89,304.46 1054.68,303.92 1055.46,303.92 1056.24,303.92 1057.02,304.46 1057.82,35.00 1058.59,304.46 1059.41,35.00 1060.19,303.92 1060.97,304.46 1061.76,35.00 1062.55,304.46 1063.34,303.92 1064.14,291.50 1064.94,35.00 1065.77,304.46 1066.56,303.92 1067.41,35.00 1068.20,300.14 1068.97,303.92 1069.76,303.92 1070.54,35.00 1071.33,303.38 1072.12,304.46 1072.91,298.52 1073.69,35.00 1074.48,35.00 1075.27,35.00 1076.05,35.00 1076.83,35.00 1077.62,35.00 1078.41,35.00 1079.19,304.46 1079.97,35.00 1080.75,303.92 1081.55,303.92 1082.34,302.30 1083.13,304.46 1083.91,35.00 1084.69,303.92 1085.48,303.38 1086.26,304.46 1087.06,303.92 1087.85,303.92 1088.63,35.00 1089.42,35.00 1090.21,304.46 1090.99,304.46 1091.77,304.46 1092.56,304.46 1093.34,304.46 1094.13,303.92 1094.91,303.92 1095.68,303.92 1096.47,304.46 1097.26,304.46 1098.04,303.92 1098.83,303.92 1099.62,303.92 1100.44,304.46 1101.23,304.46 1102.01,303.38 1102.79,304.46 1103.58,304.46 1104.35,303.92 1105.14,303.92 1105.93,304.46 1106.71,303.92 1107.49,304.46 1108.27,304.46 1109.06,304.46 1109.84,304.46 1110.62,304.46 1111.41,303.92 1112.19,303.92 1112.98,304.46 1113.77,303.92 1114.55,304.46 1115.33,304.46 1116.13,292.04 1116.91,35.00 1117.70,304.46 1118.49,35.00 1119.27,303.92 1120.05,303.92 1120.85,304.46 1121.64,304.46 1122.44,303.92 1123.22,304.46 1124.00,303.92 1124.79,35.00 1125.58,35.00 1126.36,304.46 1127.17,304.46 1127.96,304.46 1128.75,303.92 1129.54,304.46 1130.33,304.46 1131.11,304.46 1131.90,304.46 1132.68,304.46 1133.48,35.00 1134.27,303.38 1135.04,304.46 1135.83,303.38 1136.63,35.00 1137.42,304.46 1138.21,304.46 1139.01,304.46 1139.82,303.92 1140.65,303.92 1141.44,304.46 1142.23,303.92 1143.01,303.92 1143.79,304.46 1144.59,303.38 1145.37,303.92 1146.16,35.00 1146.95,304.46 1147.74,304.46 1148.53,303.38 1149.31,304.46 1150.09,35.00 1150.88,304.46 1151.67,303.92 1152.47,35.00 1153.27,303.92 1154.07,304.46 1154.86,304.46 1155.66,303.92 1156.48,304.46 1157.27,35.00 1158.11,35.00 1158.90,281.51 1159.69,259.91 1160.48,282.05 1161.26,304.46 1162.05,304.46 1162.84,304.46 1163.62,35.00 1164.41,35.00 1165.19,304.46 1165.98,35.00 1166.78,35.00 1167.57,304.46 1168.36,304.46 1169.16,303.92 1170.08,304.46 1170.87,35.00 1171.65,303.92 1172.43,303.92 1173.21,303.92 1173.99,35.00 1176.20,304.46 1177.06,303.92 1177.79,293.66 1178.51,303.92 1180.00,303.92"/>
<polyline fill="none" stroke="#d62728" stroke-opacity="0.50" stroke-width="2" points="70.00,302.84 70.78,302.84 71.57,303.92 72.35,303.92 73.14,303.92 73.93,303.38 74.71,303.92 75.49,302.57 76.34,303.38 77.12,302.84 77.90,303.92 78.68,303.38 79.47,302.84 80.25,303.38 81.03,287.18 82.44,303.38 83.66,303.38 84.45,303.38 85.25,303.92 86.03,302.84 86.82,293.12 87.58,303.38 88.37,303.38 89.16,303.38 89.94,303.38 90.73,303.38 91.53,303.38 92.32,303.92 93.10,303.38 93.93,303.92 94.72,303.92 95.50,303.38 96.30,303.38 97.09,303.38 97.87,302.03 98.68,303.38 99.45,303.92 100.24,303.92 101.04,303.38 101.81,303.92 102.59,303.92 103.37,303.92 104.15,302.84 104.94,303.92 105.72,303.38 106.52,303.92 107.31,302.84 108.08,303.92 108.86,302.84 109.65,303.38 110.44,302.84 111.33,303.38 112.12,303.92 112.90,303.38 113.68,303.92 114.45,303.38 115.23,303.38 116.01,303.92 116.80,302.30 117.58,303.92 118.38,303.92 119.16,304.46 119.93,303.92 120.72,303.92 121.51,303.92 122.30,303.38 123.08,289.61 123.86,303.92 124.63,303.38 125.41,302.84 126.19,299.87 126.97,303.92 127.75,303.92 128.53,304.46 129.31,303.92 130.10,302.03 130.87,304.46 131.66,303.38 132.44,303.38 133.22,302.84 134.02,302.57 134.80,303.92 135.59,303.92 136.37,303.92 137.15,303.38 137.94,303.38 138.72,302.84 139.50,303.38 140.27,302.84 141.06,303.92 141.85,303.38 142.63,294.20 143.42,303.38 144.19,303.38 144.98,303.92 145.76,303.92 146.54,302.57 147.32,303.38 148.10,302.84 148.88,302.84 149.67,302.57 150.45,303.92 151.23,303.92 152.02,303.92 152.81,303.92 153.60,302.84 154.38,303.92 155.16,303.92 155.94,302.84 156.72,303.92 157.51,302.84 158.30,302.84 159.08,303.92 159.86,303.92 160.65,303.92 161.43,303.92 162.22,302.57 163.02,303.92 163.80,303.92 164.58,303.38 165.36,303.38 166.14,303.92 166.93,304.46 167.71,303.92 168.56,303.92 169.34,303.38 170.14,303.92 170.92,303.92 171.69,304.46 172.47,303.38 173.24,302.84 174.02,303.92 174.81,302.84 175.59,303.92 176.37,303.38 177.15,303.38 177.93,304.46 178.71,303.38 179.50,303.92 180.28,302.57 181.06,302.03 181.84,303.92 182.63,303.92 183.41,303.38 184.19,303.38 184.98,303.92 185.76,303.38 186.55,303.38 187.33,302.84 188.10,302.57 188.88,303.38 189.67,302.03 190.45,302.03 191.23,302.03 192.02,302.84 192.81,302.03 193.59,302.84 194.38,302.84 195.16,302.57 195.94,302.03 196.73,303.92 197.51,303.38 198.31,303.92 199.10,303.92 199.88,303.38 200.67,302.84 201.44,303.92 202.22,303.92 203.00,303.92 203.78,296.90 204.56,303.38 205.34,302.84 206.12,303.92 206.91,303.92 207.69,302.84 208.48,303.92 209.26,302.84 210.06,303.92 210.84,303.92 211.62,303.38 212.40,303.92 213.18,303.92 214.03,299.33 214.83,303.38 215.61,303.92 216.39,303.38 217.16,303.92 217.95,304.46 218.73,303.92 219.51,303.38 220.30,303.92 221.08,302.84 221.86,303.38 222.64,303.38 223.44,303.92 224.22,303.92 225.00,303.92 225.78,302.84 226.57,303.92 227.37,303.38 228.17,303.92 228.95,303.92 229.73,303.38 230.52,302.84 231.30,303.38 232.08,303.38 232.87,303.92 233.66,303.92 234.44,302.84 235.21,303.92 236.01,303.38 236.79,303.92 237.57,303.92 238.36,303.38 239.15,303.92 239.93,302.30 240.71,303.92 241.49,303.38 242.26,303.92 243.05,302.84 243.83,303.92 244.61,302.84 245.39,303.92 246.17,303.92 246.95,303.92 247.74,303.92 248.52,302.84 249.31,303.92 250.10,303.92 250.88,299.87 251.67,303.92 252.45,302.84 253.24,302.84 254.02,303.92 254.80,303.92 255.59,303.92 256.39,304.46 257.17,304.46 257.96,303.38 258.74,303.38 259.52,303.38 260.31,303.92 261.08,303.92 261.86,302.84 262.65,303.92 263.44,303.92 264.22,303.38 265.00,303.38 265.79,303.92 266.57,302.57 267.36,303.92 268.15,302.84 268.94,303.92 269.72,303.92 270.50,303.38 271.29,303.92 272.08,304.46 272.86,303.38 273.65,302.84 274.43,303.38 275.30,303.92 276.09,303.38 276.87,303.92 277.65,303.92 278.44,303.38 279.23,303.38 280.01,303.38 280.80,303.38 281.58,303.92 282.39,302.84 283.18,303.92 283.96,303.92 284.74,303.92 285.52,303.92 286.30,302.84 287.09,303.38 287.90,303.38 288.69,303.92 289.47,302.84 290.26,303.92 291.10,303.92 291.89,293.39 292.87,293.12 294.20,303.92 295.00,302.84 295.80,292.58 296.58,302.03 297.35,302.84 298.13,304.46 298.92,303.92 299.71,303.92 300.50,303.92 301.31,304.46 302.13,303.92 302.96,303.92 303.74,302.84 304.53,303.38 305.31,303.38 306.10,303.92 306.90,303.38 307.69,302.84 308.47,294.74 309.25,303.38 310.06,303.92 310.85,303.92 311.63,303.92 312.41,303.92 313.21,303.38 314.02,303.92 314.81,303.38 315.59,303.92 316.40,303.38 317.15,302.57 317.93,303.92 318.73,303.92 319.51,303.92 320.30,304.46 321.11,303.38 321.90,303.38 322.68,303.38 323.47,304.46 324.26,303.92 325.05,303.92 325.83,303.38 326.60,303.92 327.39,303.92 328.18,303.92 328.96,303.92 329.89,300.41 330.81,303.92 331.74,303.38 332.65,303.92 333.55,303.92 334.45,303.92 335.38,302.84 336.29,303.92 337.07,303.92 337.85,303.92 338.63,303.38 339.41,302.84 340.20,302.84 340.97,303.92 341.75,303.92 342.53,303.38 343.31,304.46 344.10,304.46 344.88,303.92 345.66,292.58 346.44,302.84 347.21,304.46 348.00,303.38 348.77,303.92 349.56,303.38 350.33,303.38 351.12,303.38 351.91,303.38 352.68,303.38 353.46,304.46 354.24,303.38 355.02,304.46 355.80,303.92 356.59,303.38 357.37,303.92 358.15,303.38 358.93,295.82 359.71,302.84 360.49,303.92 361.27,302.84 362.05,299.87 362.83,303.92 363.60,303.38 364.38,302.84 365.16,303.92 365.94,303.92 366.71,303.38 367.49,303.92 368.27,303.38 369.05,303.92 369.83,303.38 370.60,304.46 371.37,303.92 372.18,303.92 373.02,303.92 373.81,303.92 374.59,303.92 375.37,303.38 376.15,302.57 376.92,303.92 377.70,303.92 378.48,303.92 379.40,302.84 380.32,302.84 381.23,303.92 382.15,302.30 383.07,303.92 383.98,303.92 384.92,303.92 385.87,303.92 386.72,303.92 387.56,303.92 388.34,303.38 389.13,303.38 389.92,303.38 390.69,303.38 391.47,303.92 392.26,303.92 393.03,292.85 393.82,303.92 394.59,302.57 395.38,303.38 396.16,303.92 396.94,303.92 397.73,303.38 398.51,303.92 399.29,302.30 399.98,303.92 400.78,303.92 401.57,304.46 402.37,303.38 403.15,303.92 403.93,303.92 404.72,303.38 405.50,303.92 406.29,303.92 407.08,303.92 407.87,304.46 408.67,303.92 409.44,303.38 410.22,303.92 411.00,303.92 411.77,303.92 412.55,302.84 413.33,303.38 414.12,303.92 414.90,303.92 415.68,303.38 416.47,303.92 417.24,303.38 418.03,303.38 418.81,303.92 419.60,303.38 420.39,303.92 421.17,303.92 421.95,303.92 422.74,303.92 423.52,303.92 424.33,303.92 425.11,303.92 425.88,302.84 426.67,302.84 427.44,303.92 428.22,304.46 429.01,302.03 429.79,303.38 430.57,303.92 431.35,303.92 432.13,303.92 432.91,302.84 433.69,303.38 434.48,303.38 435.26,303.38 436.21,303.92 437.01,303.92 437.82,303.38 438.60,302.57 439.39,303.92 440.18,302.84 440.96,303.92 441.73,303.92 442.53,303.92 443.31,304.46 444.09,302.57 444.88,302.57 445.67,303.38 446.45,303.92 447.26,303.92 448.05,303.38 448.84,303.38 449.62,302.84 450.41,303.92 451.19,300.95 451.97,303.92 452.75,302.84 453.57,303.38 454.35,303.92 455.14,303.38 455.92,302.84 456.70,303.92 457.49,303.38 458.27,303.92 459.05,303.38 459.84,303.92 460.63,303.92 461.41,303.92 462.20,303.38 462.98,303.38 463.76,303.92 464.54,303.92 465.34,303.92 466.12,303.92 466.90,303.92 467.68,300.95 468.47,290.69 469.26,303.92 470.05,302.84 470.99,303.92 471.80,303.38 472.58,303.38 473.36,303.92 474.14,304.46 474.93,303.92 475.71,303.92 476.50,303.38 477.30,303.38 478.08,302.84 478.86,304.46 479.64,303.92 480.42,303.38 481.20,304.46 481.98,304.46 482.77,303.38 483.55,303.38 484.33,303.92 485.11,303.38 485.89,304.46 486.69,303.38 487.47,302.84 488.24,304.46 489.04,303.92 489.83,303.92 490.61,303.38 491.39,303.38 492.18,303.92 492.98,303.92 493.76,300.95 494.54,303.92 495.33,302.84 496.12,303.92 496.90,303.38 497.68,303.38 498.47,302.03 499.27,302.03 500.05,303.92 500.84,302.84 501.61,302.84 502.39,302.57 503.17,303.38 503.96,303.38 504.74,303.38 505.53,303.38 506.32,291.77 507.11,274.49 507.88,302.84 508.67,292.85 509.45,302.84 510.24,303.38 511.02,303.92 511.80,303.92 512.58,303.92 513.37,303.38 514.16,303.38 514.94,304.46 515.73,302.84 516.52,303.92 517.31,302.57 518.09,303.92 518.88,303.92 519.76,304.46 520.62,304.46 521.46,303.92 522.25,303.92 523.07,303.92 523.86,303.38 524.65,303.92 525.42,303.38 526.15,303.38 526.97,303.38 527.75,303.92 528.55,303.92 529.32,303.38 530.11,303.38 530.88,303.38 531.68,303.92 532.45,303.38 533.24,303.92 534.02,303.92 534.81,303.92 535.60,303.92 536.38,303.38 537.17,303.92 537.97,303.92 538.75,302.84 539.54,303.38 540.32,303.38 541.12,302.57 541.91,303.38 542.69,302.57 543.47,302.57 544.25,301.49 545.04,303.92 545.82,303.38 546.60,303.92 547.39,302.84 548.18,303.38 548.96,303.92 549.74,303.38 550.53,303.38 551.31,303.38 552.10,303.92 552.89,303.92 553.67,304.46 554.46,303.92 555.24,303.92 556.03,302.57 556.82,303.38 557.61,303.38 558.40,303.92 559.18,302.84 559.97,302.84 560.75,303.38 561.55,303.38 562.36,303.92 563.14,303.38 563.93,303.92 564.71,303.92 565.50,300.41 566.28,303.92 567.07,303.38 567.86,303.92 568.64,303.92 569.43,303.92 570.21,303.38 571.00,304.46 571.79,303.38 572.58,302.84 573.37,303.92 574.16,303.92 574.95,303.38 575.74,303.92 576.53,303.92 577.31,303.92 578.10,303.92 578.89,303.92 579.67,303.38 580.47,302.84 581.26,303.92 582.06,303.38 582.84,303.92 583.62,303.92 584.41,303.38 585.19,303.92 585.98,303.92 586.77,303.38 587.55,303.92 588.34,303.38 589.12,302.84 589.91,303.38 590.70,302.03 591.49,292.85 592.27,303.92 593.06,302.57 593.85,303.38 594.64,302.84 595.42,303.38 596.21,302.84 596.99,291.50 597.77,303.38 598.55,303.92 599.34,303.92 600.13,303.92 600.92,303.92 601.71,303.92 602.49,303.92 603.28,303.92 604.08,303.92 604.86,303.92 605.65,297.71 606.44,303.38 607.23,303.38 608.01,303.92 608.80,303.92 609.60,303.38 610.39,304.46 611.17,304.46 611.98,303.92 612.77,303.92 613.56,303.38 614.35,303.92 615.13,304.46 615.92,303.92 616.71,303.38 617.50,302.84 618.29,302.84 619.08,303.38 619.86,303.92 620.64,302.03 621.45,303.38 622.23,303.92 623.02,302.84 623.81,303.92 624.59,304.46 625.37,303.92 626.15,304.46 626.93,303.38 627.73,303.92 628.51,303.92 629.30,303.92 630.08,303.92 630.87,302.84 631.66,302.84 632.46,303.38 633.26,303.92 634.04,302.84 634.82,292.31 635.60,303.92 636.39,303.38 637.18,303.38 637.97,303.38 638.75,303.92 639.54,303.38 640.33,303.92 641.12,303.92 641.90,303.92 642.69,303.92 643.48,303.92 644.29,302.84 645.09,303.38 645.88,303.92 646.67,303.92 647.46,303.92 648.25,302.84 649.03,303.92 649.81,303.92 650.59,303.92 651.39,303.92 652.17,303.38 652.97,303.92 653.76,303.38 654.55,303.92 655.37,303.92 656.16,303.38 656.94,303.92 657.73,303.92 658.51,301.49 659.31,303.92 660.10,303.92 660.89,303.92 661.68,303.38 662.48,302.84 663.26,303.92 664.06,304.46 664.85,303.38 665.63,303.38 666.42,303.92 667.21,303.92 667.99,303.92 668.79,303.92 669.58,303.38 670.37,303.92 671.15,302.84 671.94,303.92 672.73,303.38 673.52,303.92 674.31,303.92 675.10,303.92 675.92,304.46 676.70,303.38 677.50,303.92 678.29,303.92 679.09,301.49 679.90,302.03 680.70,303.92 681.50,303.38 682.31,302.57 683.10,300.41 683.89,303.38 684.68,302.57 685.47,303.92 686.26,304.46 687.05,303.92 687.86,303.92 688.64,303.38 689.43,303.38 690.22,303.92 691.00,303.92 691.79,303.38 692.58,302.84 693.36,303.92 694.15,304.46 694.93,303.38 695.72,303.38 696.50,302.84 697.28,302.84 698.07,303.92 698.86,303.92 699.65,303.92 700.43,303.38 701.23,303.92 702.02,303.38 702.80,303.92 703.60,303.92 704.38,303.92 705.17,303.92 705.95,303.92 706.74,303.92 707.53,303.92 708.32,303.38 709.10,303.92 709.88,301.49 710.66,302.57 711.45,303.92 712.24,302.57 713.02,303.92 713.81,303.38 714.60,302.84 715.38,303.92 716.17,302.84 716.96,292.58 717.74,290.69 718.52,302.84 719.30,291.50 720.07,302.57 720.86,303.38 721.65,303.92 722.45,303.92 723.23,304.46 724.02,303.92 724.81,303.38 725.61,303.38 726.40,303.92 727.18,303.38 727.98,303.92 728.76,303.38 729.55,303.92 730.34,303.92 731.13,294.20 731.93,303.92 732.72,303.92 733.51,303.92 734.29,303.38 735.07,303.38 735.86,302.57 736.64,303.92 737.43,303.38 738.20,303.92 738.99,304.46 739.78,302.57 740.57,303.92 741.35,302.84 742.14,303.92 742.92,303.92 743.71,302.84 744.50,303.38 745.29,303.38 746.08,303.92 746.86,302.84 747.65,303.38 748.45,303.38 749.23,303.92 750.01,303.92 750.80,303.92 751.59,303.38 752.37,303.92 753.16,303.92 753.96,303.38 754.74,303.38 755.52,303.92 756.30,303.92 757.12,303.38 757.91,303.38 758.71,303.38 759.51,303.38 760.29,303.92 761.08,303.92 761.87,303.92 762.66,303.92 763.45,295.82 764.23,303.38 765.03,303.38 765.83,303.38 766.62,303.92 767.41,303.38 768.20,303.38 768.98,302.84 769.78,303.38 770.56,302.03 771.34,303.92 772.13,303.92 772.92,303.92 773.70,302.03 774.49,303.92 775.27,297.44 776.07,303.38 776.85,303.92 777.63,303.92 778.42,303.38 779.20,303.92 779.98,303.92 780.79,303.92 781.57,303.92 782.35,303.38 783.14,303.92 783.93,300.41 784.70,303.38 785.50,303.38 786.28,303.92 787.08,300.41 787.87,303.38 788.65,303.92 789.43,303.38 790.22,303.92 791.01,303.92 791.79,303.92 792.59,303.92 793.40,302.57 794.19,303.38 795.00,303.92 795.80,303.92 796.60,302.30 797.41,303.92 798.21,303.92 799.03,304.46 799.83,303.92 800.64,302.03 801.43,303.92 802.21,303.92 803.00,302.84 803.80,303.92 804.58,303.92 805.38,303.38 806.16,303.38 806.96,300.95 807.74,303.38 808.53,303.38 809.31,303.38 810.10,292.31 810.89,303.92 811.67,303.38 812.45,302.84 813.25,303.92 814.03,303.92 814.82,303.92 815.62,303.92 816.41,303.92 817.20,303.92 817.98,303.38 818.77,303.38 819.56,303.38 820.34,303.92 821.13,303.92 821.92,292.31 822.70,303.92 823.50,303.92 824.28,303.92 825.07,303.38 825.86,303.92 826.64,302.84 827.43,303.38 828.27,303.92 829.09,303.92 829.87,304.46 830.66,302.84 831.44,303.92 832.24,303.92 833.04,302.84 833.83,303.38 834.62,303.92 835.40,303.92 836.17,303.38 836.96,303.38 837.74,303.92 838.53,303.92 839.32,302.84 840.11,303.92 840.90,302.84 841.69,303.92 842.48,302.84 843.27,303.92 844.05,302.84 844.84,303.92 845.63,302.84 846.42,303.92 847.20,303.92 847.99,303.92 848.78,303.38 849.57,303.38 850.36,303.92 851.18,302.84 851.97,303.38 852.75,303.38 853.54,304.46 854.33,303.38 855.12,303.38 855.91,303.92 856.70,303.38 857.48,302.84 858.27,302.30 859.06,303.92 859.86,303.38 860.66,303.38 861.45,303.92 862.23,302.03 863.02,303.38 863.81,303.38 864.59,303.38 865.38,303.38 866.17,303.92 866.97,300.95 867.75,302.84 868.54,302.84 869.33,303.92 870.11,303.38 870.90,303.92 871.69,303.92 872.47,302.84 873.26,303.92 874.05,303.92 874.84,303.92 875.62,303.92 876.41,302.84 877.19,303.38 877.98,303.38 878.77,304.46 879.56,303.38 880.35,302.84 881.12,303.92 881.91,303.92 882.69,301.49 883.49,302.84 884.27,303.38 885.08,302.84 885.87,303.92 886.66,303.92 887.45,302.84 888.24,303.92 889.04,301.49 889.88,302.57 890.69,303.38 891.48,303.92 892.28,302.84 893.07,303.92 893.86,300.95 894.64,303.38 895.43,303.38 896.22,302.84 897.01,303.38 897.80,303.38 898.59,302.84 899.38,303.38 900.18,303.92 900.97,292.85 901.76,303.38 902.55,303.92 903.34,302.84 904.13,303.92 904.92,303.92 905.70,303.38 906.49,303.38 907.29,303.38 908.07,303.92 908.87,302.57 909.66,303.38 910.45,303.38 911.24,303.92 912.04,303.38 912.83,303.92 913.62,303.92 914.40,302.84 915.19,303.92 915.99,303.38 916.76,303.92 917.55,304.46 918.34,303.38 919.12,303.92 919.92,303.92 920.71,302.84 921.49,303.92 922.28,303.92 923.07,303.92 923.86,303.38 924.64,303.38 925.44,303.92 926.22,303.92 927.02,303.38 927.81,292.58 928.58,293.12 929.35,302.84 930.13,302.30 930.93,303.92 931.72,299.87 932.51,303.92 933.31,302.84 934.09,301.49 934.89,303.92 935.68,303.38 936.47,303.38 937.26,303.92 938.04,303.38 938.83,302.84 939.60,303.92 940.39,303.92 941.17,302.84 941.97,303.92 942.75,303.38 943.53,302.84 944.31,302.57 945.11,303.38 945.89,302.57 946.68,302.57 947.46,303.38 948.25,302.30 949.01,303.92 949.82,303.92 950.60,303.38 951.39,303.92 952.18,303.38 952.98,303.38 953.76,303.38 954.55,303.38 955.34,303.92 956.13,303.92 956.91,303.92 957.70,303.92 958.55,302.84 959.33,302.03 960.13,303.38 960.92,303.92 961.72,303.38 962.50,303.92 963.28,303.38 964.08,303.92 964.86,302.84 965.65,303.92 966.43,303.92 967.22,304.46 968.01,303.92 968.81,303.38 969.59,302.57 970.38,303.38 971.17,302.84 971.96,304.46 972.75,303.92 973.54,303.38 974.33,302.84 975.13,301.49 975.93,303.38 976.73,303.92 977.51,303.92 978.30,303.92 979.10,302.03 979.89,303.92 980.68,303.38 981.46,303.92 982.25,303.38 983.03,303.92 983.82,303.92 984.61,276.92 985.40,304.46 986.19,303.38 986.98,303.38 987.77,303.38 988.55,303.92 989.33,303.38 990.12,301.49 990.91,304.46 991.69,303.92 992.48,303.92 993.27,303.38 994.05,303.38 994.83,303.92 995.62,303.38 996.40,302.84 997.18,302.03 997.97,302.84 998.75,303.38 999.54,303.38 1000.32,303.38 1001.11,303.92 1001.89,303.92 1002.68,304.46 1003.46,303.92 1004.25,303.38 1005.02,303.38 1005.81,303.92 1006.61,303.38 1007.39,303.92 1008.17,303.92 1008.97,304.46 1009.79,303.38 1010.57,303.92 1011.36,302.57 1012.15,303.92 1012.94,303.92 1013.73,303.38 1014.52,303.38 1015.31,303.92 1016.10,303.38 1016.89,303.92 1017.67,304.46 1018.45,303.38 1019.24,303.92 1020.03,302.84 1020.82,303.92 1021.60,303.92 1022.38,302.57 1023.17,304.46 1023.95,303.38 1024.74,302.84 1025.54,303.92 1026.36,303.92 1027.15,303.38 1027.93,303.38 1028.70,303.38 1029.48,303.92 1030.29,303.38 1031.07,303.92 1031.86,303.38 1032.65,303.38 1033.43,303.92 1034.22,303.38 1035.01,303.38 1035.80,303.92 1036.59,303.38 1037.37,302.84 1038.16,303.92 1038.95,303.38 1039.74,303.38 1040.52,303.92 1041.30,302.84 1042.08,303.92 1042.87,303.92 1043.66,303.38 1044.44,303.92 1045.23,303.92 1046.02,303.92 1046.81,303.38 1047.59,303.38 1048.38,299.87 1049.17,303.38 1049.95,304.46 1050.74,303.38 1051.52,303.38 1052.32,303.92 1053.10,303.92 1053.89,303.92 1054.68,303.38 1055.46,304.46 1056.24,303.38 1057.02,303.38 1057.82,303.92 1058.59,303.92 1059.41,303.92 1060.19,303.38 1060.97,303.38 1061.76,302.84 1062.55,303.92 1063.34,303.92 1064.14,303.92 1064.94,303.92 1065.77,303.38 1066.56,303.92 1067.41,302.84 1068.20,302.84 1068.97,304.46 1069.76,303.38 1070.54,303.92 1071.33,303.92 1072.12,302.57 1072.91,302.84 1073.69,303.92 1074.48,303.92 1075.27,303.92 1076.05,303.38 1076.83,303.38 1077.62,303.92 1078.41,303.38 1079.19,303.92 1079.97,303.38 1080.75,303.38 1081.55,302.84 1082.34,303.38 1083.13,303.38 1083.91,303.92 1084.69,300.95 1085.48,304.46 1086.26,303.92 1087.06,303.92 1087.85,303.92 1088.63,302.84 1089.42,300.68 1090.21,303.92 1090.99,303.92 1091.77,303.92 1092.56,303.38 1093.34,303.38 1094.13,302.84 1094.91,303.38 1095.68,303.92 1096.47,303.92 1097.26,303.38 1098.04,303.92 1098.83,303.92 1099.62,303.38 1100.44,303.92 1101.23,294.20 1102.01,302.84 1102.79,303.92 1103.58,303.38 1104.35,303.38 1105.14,303.92 1105.93,303.38 1106.71,302.84 1107.49,303.92 1108.27,303.38 1109.06,303.92 1109.84,302.30 1110.62,293.66 1111.41,303.38 1112.19,303.38 1112.98,302.84 1113.77,303.38 1114.55,302.84 1115.33,303.92 1116.13,303.38 1116.91,303.38 1117.70,303.92 1118.49,303.92 1119.27,303.38 1120.05,303.92 1120.85,303.92 1121.64,303.38 1122.44,303.38 1123.22,303.92 1124.00,302.57 1124.79,304.46 1125.58,303.92 1126.36,303.92 1127.17,303.92 1127.96,303.92 1128.75,303.92 1129.54,297.71 1130.33,303.92 1131.11,303.92 1131.90,303.38 1132.68,303.92 1133.48,303.92 1134.27,303.38 1135.04,303.92 1135.83,302.84 1136.63,303.92 1137.42,303.92 1138.21,303.92 1139.01,292.31 1139.82,304.46 1140.65,303.92 1141.44,303.92 1142.23,303.38 1143.01,303.92 1143.79,303.92 1144.59,303.92 1145.37,303.38 1146.16,303.92 1146.95,303.38 1147.74,303.38 1148.53,303.92 1149.31,303.92 1150.09,303.38 1150.88,303.38 1151.67,303.92 1152.47,304.46 1153.27,303.38 1154.07,303.38 1154.86,303.92 1155.66,302.84 1156.48,303.38 1157.27,302.84 1158.11,302.57 1158.90,304.46 1159.69,303.92 1160.48,302.84 1161.26,303.92 1162.05,302.57 1162.84,303.38 1163.62,303.92 1164.41,303.38 1165.19,303.92 1165.98,303.38 1166.78,304.46 1167.57,303.92 1168.36,303.92 1169.16,303.92 1170.08,303.92 1170.87,302.84 1171.65,303.92 1172.43,303.38 1173.21,303.92 1173.99,292.58 1174.77,303.92 1175.50,303.92 1176.20,303.38 1177.06,303.92 1177.79,302.84 1178.51,303.92 1179.32,303.38 1180.00,302.84"/>
<rect x="70" y="332" width="12" height="12" fill="#d62728" fill-opacity="0.95"/>
<text x="88" y="342" font-size="11" fill="#333" font-family="Arial, Helvetica, sans-serif">nsc1.utdallas.edu</text>
<rect x="350" y="332" width="12" height="12" fill="#d62728" fill-opacity="0.80"/>
<text x="368" y="342" font-size="11" fill="#333" font-family="Arial, Helvetica, sans-serif">nsc2.utdallas.edu</text>
<rect x="630" y="332" width="12" height="12" fill="#d62728" fill-opacity="0.65"/>
<text x="648" y="342" font-size="11" fill="#333" font-family="Arial, Helvetica, sans-serif">nsc3.utdallas.edu</text>
<rect x="910" y="332" width="12" height="12" fill="#d62728" fill-opacity="0.50"/>
<text x="928" y="342" font-size="11" fill="#333" font-family="Arial, Helvetica, sans-serif">nsc4.utdallas.edu</text>
</svg>