<?xml version="1.0" encoding="UTF-8"?>
<svg xmlns="http://www.w3.org/2000/svg" width="1200" height="360" viewBox="0 0 1200 360" role="img" aria-label="CPU Utilization (%)">
<rect width="100%" height="100%" fill="#ffffff"/>
<text x="600.0" y="22" text-anchor="middle" font-size="16" font-family="Arial, Helvetica, sans-serif" font-weight="bold">CPU Utilization (%)</text>
<line x1="70" y1="35.00" x2="1180" y2="35.00" stroke="#e3e3e3" stroke-width="1"/>
<text x="62" y="39.00" text-anchor="end" font-size="11" fill="#444" font-family="Arial, Helvetica, sans-serif">100</text>
<line x1="70" y1="89.00" x2="1180" y2="89.00" stroke="#e3e3e3" stroke-width="1"/>
<text x="62" y="93.00" text-anchor="end" font-size="11" fill="#444" font-family="Arial, Helvetica, sans-serif">80</text>
<line x1="70" y1="143.00" x2="1180" y2="143.00" stroke="#e3e3e3" stroke-width="1"/>
<text x="62" y="147.00" text-anchor="end" font-size="11" fill="#444" font-family="Arial, Helvetica, sans-serif">60</text>
<line x1="70" y1="197.00" x2="1180" y2="197.00" stroke="#e3e3e3" stroke-width="1"/>
<text x="62" y="201.00" text-anchor="end" font-size="11" fill="#444" font-family="Arial, Helvetica, sans-serif">40</text>
<line x1="70" y1="251.00" x2="1180" y2="251.00" stroke="#e3e3e3" stroke-width="1"/>
<text x="62" y="255.00" text-anchor="end" font-size="11" fill="#444" font-family="Arial, Helvetica, sans-serif">20</text>
<line x1="70" y1="305.00" x2="1180" y2="305.00" stroke="#e3e3e3" stroke-width="1"/>
<text x="62" y="309.00" text-anchor="end" font-size="11" fill="#444" font-family="Arial, Helvetica, sans-serif">0</text>
<line x1="70" y1="35" x2="70" y2="305" stroke="#999"/>
<line x1="70" y1="305" x2="1180" y2="305" stroke="#999"/>
<text x="70.00" y="323" text-anchor="middle" font-size="10" fill="#444" font-family="Arial, Helvetica, sans-serif">2026-02-11 16:38</text>
<text x="347.50" y="323" text-anchor="middle" font-size="10" fill="#444" font-family="Arial, Helvetica, sans-serif">2026-02-13 03:54</text>
<text x="625.00" y="323" text-anchor="middle" font-size="10" fill="#444" font-family="Arial, Helvetica, sans-serif">2026-02-14 15:10</text>
<text x="902.50" y="323" text-anchor="middle" font-size="10" fill="#444" font-family="Arial, Helvetica, sans-serif">2026-02-16 02:26</text>
<text x="1180.00" y="323" text-anchor="middle" font-size="10" fill="#444" font-family="Arial, Helvetica, sans-serif">2026-02-17 13:42</text>
<polyline fill="none" stroke="#d62728" stroke-opacity="0.95" stroke-width="2" points="70.71,304.46 71.41,298.79 72.12,296.90 72.83,303.92 73.54,304.73 74.24,304.46 74.95,303.92 75.71,304.73 76.41,303.92 77.11,304.46 77.82,303.92 78.53,304.46 79.23,304.46 79.94,303.92 81.21,304.46 82.30,303.92 83.01,304.46 83.74,303.92 84.44,300.95 85.14,304.73 85.84,278.27 86.55,303.92 87.25,304.46 87.96,294.74 88.67,304.46 89.39,303.92 90.10,301.49 90.81,303.92 91.55,295.28 92.26,294.20 92.97,303.65 93.69,304.46 94.39,304.46 95.10,303.92 95.83,303.65 96.53,302.30 97.23,303.92 97.95,304.46 98.65,303.92 99.36,304.73 100.05,304.73 100.76,304.46 101.47,303.38 102.17,304.46 102.89,303.92 103.60,303.38 104.30,304.46 105.00,297.71 105.71,297.44 106.42,48.23 107.23,303.92 107.93,303.92 108.64,304.46 109.34,303.65 110.04,303.65 110.74,304.46 111.44,304.46 112.15,303.92 112.85,304.46 113.57,303.92 114.27,304.46 114.97,304.46 115.68,299.60 116.40,303.65 117.10,303.92 117.81,304.73 118.51,303.92 119.20,304.73 119.91,304.46 120.61,304.46 121.31,304.46 122.02,303.92 122.71,304.73 123.42,303.92 124.13,304.46 124.83,304.73 125.54,303.38 126.24,303.38 126.94,303.65 127.66,304.46 128.36,303.65 129.07,304.73 129.78,304.46 130.48,304.46 131.19,304.73 131.89,303.92 132.59,303.92 133.29,304.46 134.00,304.73 134.71,299.60 135.41,303.65 136.13,304.46 136.82,304.73 137.53,303.65 138.23,303.92 138.93,304.46 139.63,304.46 140.34,303.92 141.04,303.92 141.75,303.92 142.46,304.46 143.16,303.92 143.87,303.92 144.58,298.79 145.29,303.65 146.00,304.46 146.70,304.73 147.40,304.73 148.10,304.46 148.82,304.46 149.52,304.46 150.23,304.46 150.93,302.84 151.64,304.46 152.35,304.46 153.06,304.46 153.77,304.46 154.48,304.46 155.18,304.46 155.89,303.65 156.59,304.73 157.29,303.38 158.01,304.46 158.77,304.46 159.47,304.73 160.19,303.92 160.89,303.92 161.59,304.46 162.29,299.87 162.98,304.46 163.69,304.73 164.39,295.01 165.10,304.46 165.80,303.92 166.50,303.92 167.20,303.92 167.90,304.46 168.62,303.65 169.32,304.46 170.03,304.46 170.73,304.46 171.44,303.92 172.14,303.92 172.85,303.92 173.55,304.73 174.26,304.46 174.97,304.46 175.67,303.92 176.37,304.46 177.07,303.65 177.77,303.92 178.48,303.65 179.19,304.73 179.90,304.46 180.61,304.46 181.31,304.46 182.02,303.11 182.73,303.38 183.43,304.46 184.14,304.46 184.84,304.46 185.56,303.65 186.27,303.92 186.97,304.46 187.68,297.71 188.38,294.20 189.08,303.92 189.79,304.46 190.49,303.65 191.19,297.71 191.89,304.46 192.59,303.92 193.30,304.46 194.01,304.46 194.72,303.92 195.42,303.38 196.14,304.73 196.85,303.92 197.55,303.38 198.25,303.92 198.95,304.46 199.72,304.46 200.44,303.92 201.14,304.73 201.84,304.46 202.54,304.46 203.24,304.73 203.95,304.46 204.66,304.73 205.36,35.00 206.07,303.65 206.77,303.11 207.47,297.17 208.20,304.46 208.90,304.46 209.60,304.46 210.30,303.92 211.01,303.65 211.73,304.46 212.46,303.11 213.15,304.73 213.86,304.46 214.57,303.92 215.27,304.73 215.98,304.46 216.68,303.92 217.40,304.73 218.10,304.46 218.80,304.46 219.51,304.46 220.22,303.92 220.92,303.65 221.63,304.46 222.34,303.65 223.05,304.46 223.75,301.76 224.45,302.03 225.15,304.46 225.86,304.46 226.56,304.46 227.26,35.00 227.97,303.65 228.66,303.92 229.37,304.46 230.08,304.46 230.78,303.65 231.49,304.46 232.21,304.73 232.91,304.46 233.62,304.73 234.32,35.00 235.03,304.73 235.74,303.65 236.44,304.46 237.15,303.65 237.87,304.73 238.57,300.68 239.28,303.65 239.99,303.92 240.69,304.46 241.40,304.46 242.10,304.46 242.80,304.46 243.51,304.73 244.22,304.73 244.92,304.73 245.63,303.65 246.34,303.92 247.04,303.92 247.75,304.73 248.46,35.00 249.17,304.46 249.87,303.92 250.58,304.73 251.29,303.92 252.00,304.73 252.71,303.92 253.41,304.46 254.11,303.92 254.90,304.73 255.61,304.46 256.31,303.65 257.02,304.46 257.73,304.46 258.44,303.92 259.15,304.46 259.85,303.65 260.55,304.73 261.28,295.28 262.00,297.17 262.70,304.46 263.40,304.46 264.11,304.46 264.81,304.73 265.52,304.46 266.25,303.65 266.96,304.46 267.66,303.92 268.37,304.73 269.13,304.73 269.84,304.73 270.73,303.65 271.92,304.46 272.64,303.92 273.36,303.92 274.07,304.73 274.76,304.46 275.46,303.92 276.18,303.65 276.89,304.46 277.60,304.73 278.33,303.92 279.06,35.00 279.81,303.65 280.52,304.46 281.22,304.73 281.93,303.92 282.64,303.92 283.36,303.65 284.07,304.46 284.77,303.92 285.48,304.46 286.21,304.46 286.92,304.46 287.62,304.46 288.33,304.46 289.04,303.92 289.77,304.46 290.48,303.92 291.19,303.92 291.92,303.65 292.59,303.92 293.29,303.65 294.01,303.92 294.71,303.92 295.43,303.92 296.16,303.11 296.87,303.92 297.57,303.92 298.29,304.46 299.00,304.46 299.70,303.65 300.41,304.73 301.11,299.06 301.82,304.73 302.53,304.46 303.23,48.23 304.07,48.50 304.90,48.77 305.73,48.50 306.55,48.23 307.36,48.50 308.17,48.50 309.01,48.77 309.83,304.46 310.54,304.46 311.23,304.46 311.94,303.92 312.64,304.46 313.35,304.46 314.05,303.92 314.75,304.19 315.45,303.65 316.16,304.73 316.86,303.92 317.56,303.92 318.27,304.46 318.97,304.73 319.67,304.73 320.37,304.46 321.07,304.46 321.78,304.46 322.48,303.92 323.19,304.46 323.90,304.73 324.59,303.65 325.29,304.46 325.99,35.00 326.70,304.46 327.40,304.46 328.11,304.73 328.81,304.46 329.52,304.73 330.22,35.00 330.92,304.46 331.63,304.46 332.33,304.73 333.03,303.92 333.74,303.92 334.43,303.92 335.13,303.38 335.83,304.73 336.53,303.65 337.23,304.46 337.93,303.92 338.63,304.46 339.34,304.73 340.03,303.92 340.73,303.38 341.42,304.73 342.15,303.65 342.91,304.73 343.62,304.73 344.33,304.46 345.03,303.92 345.73,303.65 346.43,297.44 347.13,297.71 347.83,48.50 348.66,48.50 349.49,48.50 350.31,48.23 351.13,48.50 351.96,48.23 352.78,48.50 353.63,48.77 354.48,295.82 355.25,297.17 356.01,304.73 356.71,303.92 357.42,303.92 358.13,304.73 358.83,303.92 359.53,304.46 360.23,304.46 360.94,304.46 361.64,304.46 362.34,304.46 363.05,304.73 363.75,303.11 364.45,304.73 365.17,303.92 365.87,304.46 366.57,304.73 367.19,304.46 367.92,303.92 368.62,304.73 369.34,304.73 370.04,304.73 370.75,303.92 371.46,35.00 372.17,304.73 372.87,304.73 373.59,304.46 374.30,304.73 375.01,303.65 375.71,304.46 376.41,304.73 377.12,304.73 377.81,304.73 378.52,35.00 379.22,303.92 379.93,303.92 380.63,303.92 381.34,303.65 382.04,304.46 382.74,304.46 383.45,303.92 384.15,304.46 384.86,304.46 385.57,304.73 386.28,303.92 386.98,301.22 387.69,304.46 388.40,304.46 389.12,304.46 389.82,303.65 390.52,304.46 391.23,304.73 391.92,304.46 392.62,300.68 393.34,303.92 394.04,304.73 394.74,304.46 395.44,304.73 396.14,303.38 396.85,303.92 397.56,304.73 398.27,304.73 398.97,303.92 399.82,303.92 400.54,303.92 401.27,303.65 401.98,304.46 402.68,302.84 403.40,304.46 404.10,304.46 404.80,303.92 405.51,303.92 406.22,303.11 406.92,304.73 407.63,304.46 408.34,304.46 409.04,304.46 409.77,304.73 410.49,304.73 411.19,304.46 411.90,304.73 412.61,304.73 413.31,302.57 414.01,302.84 414.72,301.22 415.45,303.92 416.16,304.46 416.87,304.46 417.57,304.46 418.28,303.92 418.99,304.73 419.69,304.46 420.40,304.46 421.10,303.92 421.81,304.46 422.52,304.46 423.23,304.46 423.93,297.44 424.63,303.92 425.34,304.46 426.06,304.46 426.76,300.68 427.46,303.92 428.17,289.07 428.87,303.65 429.59,302.03 430.30,302.84 431.15,302.84 431.87,304.46 432.58,304.46 433.28,303.92 433.98,304.73 434.69,303.92 435.40,303.92 436.11,303.65 436.83,304.46 437.53,303.92 438.23,304.73 438.93,304.46 439.64,304.46 440.34,303.92 441.05,304.73 441.76,304.46 442.46,304.73 443.16,304.46 443.86,304.73 444.57,304.73 445.28,303.92 445.98,304.46 446.69,304.73 447.40,304.46 448.11,304.46 448.81,304.73 449.52,304.46 450.23,303.38 450.95,303.92 451.65,304.73 452.36,304.73 453.07,303.92 453.78,303.92 454.48,304.46 455.19,303.92 455.89,303.92 456.62,304.73 457.32,303.92 458.03,304.46 458.72,303.92 459.43,304.46 460.13,304.73 460.84,303.92 461.54,304.73 462.25,304.46 462.97,304.73 463.68,298.79 464.37,303.92 465.09,303.92 465.78,304.46 466.49,304.46 467.19,303.65 467.90,303.65 468.60,304.73 469.32,303.92 470.02,303.92 470.73,235.88 471.44,236.69 472.15,236.69 472.86,236.69 473.57,236.15 474.28,232.10 475.07,227.51 475.85,228.59 476.60,222.65 477.32,236.42 478.05,236.15 478.76,235.61 479.47,236.69 480.17,236.69 480.83,236.15 481.56,235.61 482.27,236.15 482.98,236.42 483.68,233.18 484.39,236.69 485.09,236.42 485.80,236.15 486.50,235.61 487.21,235.88 487.91,236.42 488.62,236.42 489.33,236.96 490.04,236.42 490.75,235.61 491.47,236.69 492.17,236.15 492.88,236.42 493.59,242.63 494.31,255.86 495.02,236.69 495.72,235.88 496.42,236.15 497.13,236.42 497.83,235.88 498.54,236.15 499.25,236.96 499.95,236.15 500.67,236.69 501.37,236.96 502.07,236.15 502.78,236.96 503.49,236.15 504.20,236.42 504.91,234.53 505.61,236.15 506.32,236.69 507.03,236.69 507.74,235.34 508.45,236.15 509.16,236.15 509.87,235.61 510.57,236.69 511.28,236.96 511.99,235.61 512.71,232.91 513.43,234.26 514.14,236.42 514.85,236.42 515.56,236.15 516.26,236.96 516.97,236.15 517.68,236.69 518.39,236.96 519.10,234.53 519.80,236.42 520.51,236.69 521.22,236.42 521.93,236.15 522.64,236.42 523.35,235.88 524.06,236.15 524.77,236.96 525.48,235.61 526.20,235.88 526.91,235.88 527.61,236.42 528.32,236.42 529.03,236.69 529.75,236.69 530.46,236.42 531.18,235.61 531.88,236.15 532.59,236.15 533.29,235.34 534.00,236.69 534.71,235.61 535.42,236.69 536.12,235.88 536.83,236.69 537.54,232.91 538.25,235.88 538.96,236.42 539.67,235.88 540.37,235.61 541.09,236.69 541.80,235.88 542.51,236.42 543.22,236.42 543.92,236.69 544.62,236.15 545.32,235.88 546.03,236.42 546.74,235.61 547.46,201.32 548.16,236.69 548.88,236.15 549.58,236.42 550.29,236.42 551.01,235.61 551.71,230.48 552.42,235.34 553.14,283.40 553.85,236.69 554.55,230.75 555.27,236.69 555.98,224.00 556.69,236.42 557.40,236.15 558.12,235.61 558.84,235.88 559.55,236.15 560.26,236.96 560.96,230.48 561.67,235.88 562.39,236.15 563.10,235.61 563.81,243.17 564.52,296.63 565.23,236.15 565.93,235.61 566.65,236.69 567.36,229.94 568.07,229.94 568.78,236.15 569.49,236.42 570.19,236.69 570.89,235.61 571.59,236.69 572.31,236.69 573.02,236.42 573.73,236.15 574.43,236.69 575.14,236.69 575.85,236.42 576.58,231.29 577.29,236.69 577.99,236.15 578.70,236.42 579.40,235.88 580.11,235.61 580.82,235.61 581.53,236.42 582.24,236.96 582.95,236.69 583.66,236.69 584.37,235.61 585.07,235.88 585.78,235.88 586.50,236.69 587.23,236.69 587.94,235.61 588.66,236.15 589.37,283.13 590.08,236.42 590.79,236.69 591.49,235.88 592.20,236.15 592.90,235.07 593.62,236.42 594.33,236.69 595.04,236.15 595.75,237.23 596.47,236.15 597.20,236.15 597.91,236.15 598.62,236.69 599.33,236.69 600.04,236.42 600.75,236.69 601.46,236.69 602.18,235.61 602.89,236.42 603.61,235.34 604.31,236.96 605.03,235.61 605.74,236.69 606.45,236.69 607.16,236.15 607.87,236.42 608.57,236.42 609.29,296.90 610.00,236.15 610.71,235.61 611.42,236.42 612.13,236.42 612.84,236.69 613.55,236.69 614.26,236.69 614.98,236.69 615.71,235.34 616.42,235.88 617.14,233.45 617.84,236.15 618.57,236.15 619.30,235.07 620.02,234.26 620.74,234.26 621.47,235.88 622.18,290.15 622.89,236.69 623.60,236.42 624.31,236.15 625.02,236.42 625.74,235.34 626.46,236.69 627.17,236.15 627.88,236.69 628.59,235.88 629.30,236.15 630.01,236.69 630.72,236.42 631.42,236.96 632.13,231.83 632.84,236.42 633.54,236.42 634.25,236.42 634.95,236.42 635.66,236.15 636.37,236.69 637.09,236.42 637.79,232.64 638.51,235.88 639.22,237.23 639.93,236.42 640.64,235.88 641.35,236.42 642.06,283.94 642.76,236.15 643.47,236.42 644.18,236.42 644.89,236.42 645.60,290.42 646.30,236.42 647.00,236.69 647.71,236.42 648.42,236.15 649.13,236.69 649.84,235.88 650.55,234.53 651.25,235.34 651.96,236.69 652.68,236.42 653.38,236.15 654.08,236.42 654.78,235.61 655.48,236.69 656.19,236.42 656.90,235.34 657.62,235.88 658.32,236.15 659.03,235.61 659.74,236.69 660.46,236.15 661.18,235.61 661.88,236.15 662.60,235.07 663.31,236.15 664.01,235.61 664.73,236.69 665.44,236.15 666.16,235.61 666.87,290.15 667.58,236.42 668.28,236.69 668.99,236.15 669.69,235.61 670.40,236.42 671.11,236.69 671.81,235.88 672.52,235.88 673.23,235.88 673.94,236.69 674.64,236.15 675.35,236.15 676.06,236.42 676.77,235.34 677.48,235.88 678.19,236.15 678.90,236.15 679.61,235.61 680.32,236.42 681.03,236.96 681.73,235.34 682.44,236.42 683.15,236.15 683.86,236.15 684.57,235.88 685.28,236.42 685.99,233.18 686.70,236.69 687.40,235.88 688.11,236.15 688.84,236.69 689.55,236.15 690.27,235.88 690.99,232.91 691.70,236.15 692.41,283.67 693.12,236.42 693.84,235.88 694.55,234.80 695.25,235.34 695.97,236.15 696.69,234.53 697.40,236.69 698.11,236.42 698.82,236.69 699.53,236.96 700.24,235.88 700.95,236.42 701.65,236.69 702.36,235.61 703.07,236.42 703.78,236.42 704.49,236.69 705.19,236.15 705.91,236.42 706.61,236.15 707.32,235.61 708.02,236.15 708.73,235.07 709.44,236.15 710.16,236.69 710.86,231.83 711.57,235.61 712.28,285.02 712.99,236.69 713.69,236.15 714.41,236.69 715.11,231.29 715.83,283.13 716.54,236.42 717.24,234.53 717.95,235.88 718.66,236.69 719.37,236.42 720.07,229.40 720.79,236.69 721.52,235.34 722.24,235.88 722.96,236.15 723.68,235.61 724.41,236.15 725.13,236.69 725.85,236.69 726.59,236.15 727.31,229.94 728.04,236.42 728.75,236.42 729.45,235.34 730.17,230.75 730.88,236.15 731.59,236.15 732.30,236.69 733.02,236.96 733.73,235.88 734.44,235.34 735.15,236.15 735.85,235.88 736.56,235.61 737.27,236.69 737.97,235.07 738.68,231.83 739.39,236.69 740.10,235.88 740.81,236.15 741.53,236.42 742.24,236.42 742.95,232.91 743.66,236.69 744.37,235.88 745.08,236.15 745.79,231.02 746.50,290.69 747.20,236.69 747.91,232.64 748.63,243.71 749.33,236.69 750.04,236.69 750.75,235.88 751.46,236.15 752.17,235.88 752.93,235.61 753.66,234.53 754.37,236.15 755.08,235.61 755.78,262.88 756.50,230.21 757.22,236.69 757.93,230.21 758.64,236.42 759.34,235.61 760.04,236.69 760.75,236.15 761.46,236.42 762.17,236.69 762.88,233.18 763.58,236.15 764.30,236.69 765.01,236.15 765.73,236.69 766.43,236.69 767.14,236.42 767.84,235.61 768.56,236.15 769.27,236.15 769.97,236.15 770.68,235.07 771.40,236.42 772.11,231.56 772.82,236.69 773.56,235.61 774.27,236.69 774.98,235.61 775.68,235.61 776.39,235.34 777.10,236.42 777.82,236.42 778.53,236.42 779.23,296.90 779.95,236.42 780.66,236.69 781.38,249.38 782.09,236.15 782.81,236.15 783.51,235.88 784.22,236.42 784.93,236.15 785.64,232.91 786.35,235.88 787.05,236.69 787.78,235.34 788.48,236.42 789.19,236.42 789.90,235.61 790.61,236.15 791.32,236.15 792.03,236.69 792.73,236.69 793.44,236.15 794.15,235.88 794.86,236.96 795.57,235.88 796.28,236.96 796.99,236.42 797.70,235.34 798.41,236.15 799.12,232.10 799.83,236.69 800.53,236.15 801.23,297.17 801.94,236.42 802.66,236.42 803.36,236.42 804.09,236.42 804.80,230.75 805.51,236.15 806.23,236.69 806.93,235.88 807.65,236.42 808.42,236.15 809.14,231.83 809.85,235.07 810.57,234.80 811.29,235.88 812.00,270.17 812.70,236.15 813.41,236.42 814.12,243.17 814.83,236.69 815.55,235.34 816.26,236.69 816.97,236.69 817.69,236.96 818.40,236.69 819.12,236.69 819.82,235.88 820.53,236.15 821.25,236.69 821.96,236.15 822.66,234.80 823.37,236.69 824.09,236.15 824.80,236.42 825.51,236.42 826.22,235.34 826.94,236.69 827.65,236.69 828.37,236.69 829.08,236.69 829.79,236.15 830.50,235.88 831.21,236.69 831.92,236.69 832.63,236.15 833.33,236.69 834.04,291.23 834.75,235.61 835.46,236.69 836.18,236.15 836.88,236.15 837.59,235.61 838.30,235.34 839.02,236.15 839.72,236.42 840.44,236.69 841.14,236.42 841.87,235.61 842.58,236.69 843.27,236.69 843.96,236.42 844.67,236.15 845.38,236.15 846.09,236.42 846.81,236.42 847.52,236.42 848.23,236.69 848.95,235.88 849.67,235.61 850.37,236.69 851.08,236.42 851.78,236.15 852.49,236.42 853.19,234.26 853.90,235.88 854.61,233.99 855.32,235.88 856.03,235.88 856.73,235.07 857.44,236.42 858.15,236.15 858.86,236.42 859.57,236.42 860.27,236.42 860.98,289.61 861.67,236.69 862.39,235.61 863.10,235.88 863.81,236.69 864.52,236.15 865.24,236.69 865.95,236.69 866.65,236.69 867.37,236.42 868.08,236.69 868.79,236.69 869.49,236.15 870.26,236.15 870.97,236.15 871.68,236.15 872.40,236.42 873.11,236.69 873.81,236.15 874.52,236.15 875.24,235.61 875.94,236.42 876.65,236.69 877.36,236.42 878.07,236.42 878.78,236.42 879.50,236.15 880.21,236.42 880.92,236.96 881.62,236.69 882.34,236.42 883.04,236.42 883.76,235.61 884.47,230.21 885.19,235.07 885.92,236.69 886.63,236.69 887.34,236.69 888.05,236.69 888.76,236.69 889.48,236.69 890.19,235.61 890.89,236.42 891.60,235.88 892.31,304.46 893.02,303.11 893.73,304.46 894.44,304.46 895.15,304.46 895.87,304.46 896.58,303.65 897.28,304.46 897.99,304.46 898.69,304.46 899.41,299.60 900.11,303.92 900.82,304.46 901.53,304.73 902.23,303.92 902.94,304.46 903.64,304.46 904.35,304.46 905.05,304.46 905.76,304.46 906.47,304.46 907.18,304.73 907.88,304.46 908.59,303.92 909.29,302.84 910.00,304.73 910.71,304.46 911.41,304.46 912.12,303.92 912.82,304.46 913.55,304.46 914.25,304.46 914.95,304.46 915.67,304.46 916.41,301.22 917.11,304.73 917.82,303.92 918.54,304.73 919.25,303.92 919.96,304.46 920.67,304.46 921.38,304.73 922.09,304.73 922.80,304.46 923.50,304.46 924.21,304.73 924.92,304.46 925.63,303.65 926.34,304.46 927.04,304.46 927.75,304.46 928.46,304.73 929.16,304.46 929.87,304.73 930.59,304.73 931.33,304.46 932.04,301.49 932.74,304.46 933.44,304.46 934.14,303.92 934.87,304.46 935.57,297.44 936.28,304.46 936.99,304.73 937.70,304.73 938.41,304.73 939.12,303.38 939.84,304.46 940.55,304.46 941.25,303.11 941.96,304.73 942.67,303.65 943.38,304.46 944.09,301.76 944.79,304.46 945.49,297.44 946.20,304.46 946.91,304.46 947.62,302.84 948.33,304.73 949.03,304.46 949.75,304.46 950.45,303.11 951.16,304.46 951.87,304.46 952.58,303.92 953.29,303.92 953.99,304.46 954.71,303.92 955.41,303.92 956.12,303.92 956.83,304.46 957.54,303.92 958.24,303.92 958.95,304.46 959.66,303.38 960.36,304.46 961.09,304.73 961.80,304.46 962.51,304.46 963.22,304.73 963.93,304.73 964.64,35.00 965.36,303.92 966.07,304.73 966.83,300.95 967.54,298.25 968.30,303.92 969.01,304.73 969.71,304.46 970.42,304.73 971.13,304.46 971.83,304.46 972.54,304.46 973.25,304.46 973.96,297.17 974.67,304.46 975.38,303.92 976.08,303.65 976.79,304.46 977.50,304.46 978.21,303.65 978.91,304.46 979.62,304.19 980.32,304.46 981.04,304.73 981.75,304.46 982.46,304.46 983.16,299.06 983.86,303.38 984.58,303.92 985.28,304.46 986.00,304.19 986.71,303.65 987.42,303.65 988.13,303.65 988.84,303.92 989.54,303.65 990.24,304.46 990.96,303.65 991.66,303.65 992.36,304.73 993.07,304.46 993.77,304.73 994.47,303.92 995.19,304.46 995.89,304.46 996.60,303.92 997.31,304.46 998.05,304.46 998.76,302.30 999.47,302.03 1000.17,304.46 1000.88,297.17 1001.57,303.92 1002.28,304.46 1002.99,303.92 1003.70,303.65 1004.40,303.65 1005.11,303.92 1005.81,303.92 1006.51,303.65 1007.22,303.92 1007.93,303.92 1008.63,303.92 1009.34,304.73 1010.06,303.92 1010.76,304.46 1011.46,304.73 1012.18,301.76 1012.89,304.46 1013.59,303.92 1014.30,304.46 1015.01,304.46 1015.72,304.46 1016.44,303.92 1017.14,304.46 1017.86,303.92 1018.56,304.46 1019.27,304.46 1019.98,303.92 1020.69,304.46 1021.39,304.46 1022.12,301.76 1022.83,304.46 1023.55,303.92 1024.26,304.46 1024.97,303.65 1025.68,303.38 1026.38,304.46 1027.09,304.46 1027.81,303.92 1028.52,303.65 1029.21,304.73 1029.93,304.73 1030.64,304.73 1031.35,303.92 1032.07,304.73 1032.79,304.73 1033.51,302.84 1034.26,303.92 1034.98,304.46 1035.69,304.46 1036.40,303.11 1037.10,303.65 1037.81,303.65 1038.52,304.46 1039.23,304.73 1039.94,304.46 1040.65,303.65 1041.36,303.92 1042.07,303.92 1042.77,304.73 1043.48,300.68 1044.19,304.73 1044.91,303.92 1045.63,304.46 1046.35,304.46 1047.06,304.46 1047.78,304.46 1048.52,304.46 1049.24,304.46 1049.99,303.92 1050.70,304.46 1051.41,304.46 1052.12,304.46 1052.83,304.46 1053.54,304.46 1054.25,304.46 1054.95,304.73 1055.66,304.73 1056.37,303.92 1057.08,303.38 1057.80,303.38 1058.51,304.46 1059.22,304.73 1059.95,303.92 1060.77,303.92 1061.48,304.46 1062.18,304.73 1062.89,304.73 1063.59,304.73 1064.30,303.92 1064.99,304.46 1065.65,304.46 1066.29,304.46 1067.05,296.90 1067.72,304.46 1068.36,304.46 1069.09,303.65 1069.71,304.46 1070.41,304.46 1071.12,304.46 1071.83,304.46 1072.53,303.92 1073.24,304.73 1073.95,304.46 1074.65,303.92 1075.35,302.84 1076.07,304.73 1076.77,300.95 1077.47,303.65 1078.18,303.92 1078.89,304.73 1079.59,304.46 1080.30,303.92 1081.00,303.38 1081.70,304.46 1082.40,303.92 1083.11,303.65 1083.82,304.73 1084.52,303.92 1085.23,303.92 1085.95,304.46 1086.65,304.73 1087.35,304.46 1088.06,304.46 1088.76,304.46 1089.46,303.65 1090.17,304.46 1090.87,303.92 1091.57,304.73 1092.28,303.92 1092.98,304.73 1093.69,303.92 1094.39,304.46 1095.10,304.46 1095.81,304.46 1096.51,303.92 1097.22,304.46 1097.92,304.46 1098.63,304.46 1099.34,304.73 1100.04,304.46 1100.75,302.57 1101.44,304.46 1102.15,303.11 1102.85,303.92 1103.56,304.73 1104.26,297.44 1104.96,304.73 1105.68,304.73 1106.39,304.46 1107.10,304.73 1107.80,303.65 1108.51,304.46 1109.22,304.73 1109.93,303.92 1110.63,304.46 1111.34,304.46 1112.05,304.46 1112.75,304.19 1113.46,304.73 1114.16,304.73 1114.87,303.38 1115.58,304.73 1116.28,304.73 1116.99,304.46 1117.69,304.73 1118.40,304.73 1119.11,304.46 1119.81,304.46 1120.52,304.73 1121.23,302.84 1121.93,303.65 1122.64,304.73 1123.35,303.92 1124.05,304.46 1124.83,304.46 1125.53,303.38 1126.24,303.65 1126.94,304.73 1127.65,303.92 1128.36,304.46 1129.05,303.92 1129.77,300.95 1130.76,303.92 1131.46,303.92 1132.45,303.92 1133.15,293.93 1133.86,304.73 1134.57,297.44 1135.28,303.38 1135.98,304.73 1136.68,304.73 1137.39,304.73 1138.09,303.65 1138.80,303.92 1139.50,304.73 1140.20,303.92 1140.90,304.73 1141.62,303.92 1142.33,303.65 1143.04,302.84 1143.75,304.73 1144.46,304.46 1145.16,304.46 1145.88,302.84 1146.58,303.92 1147.28,303.92 1147.99,303.92 1148.70,304.46 1149.41,303.92 1150.11,304.46 1150.83,304.46 1151.54,303.65 1152.24,303.38 1152.95,304.46 1153.66,304.73 1154.38,301.22 1155.11,304.46 1155.83,303.65 1156.56,303.65 1157.27,304.73 1157.97,304.46 1158.69,304.46 1159.40,304.46 1160.10,304.46 1160.81,303.65 1161.51,304.46 1162.22,35.00 1162.94,304.46 1163.65,304.73 1164.36,303.92 1165.07,303.92 1165.78,304.73 1166.49,304.46 1167.20,302.57 1167.91,304.46 1168.62,304.73 1169.33,304.46 1170.04,303.92 1170.75,303.65 1171.47,303.65 1172.18,304.73 1172.89,304.73 1173.60,304.73 1174.31,304.46 1175.02,304.46 1175.72,304.46 1176.45,304.73 1177.17,304.46 1177.87,304.46 1178.58,304.46 1179.29,304.46 1180.00,304.46"/>
<polyline fill="none" stroke="#d62728" stroke-opacity="0.80" stroke-width="2" points="70.00,303.38 70.71,304.19 71.41,302.57 72.12,303.38 72.83,304.19 73.54,287.72 74.24,303.38 74.95,304.19 75.71,304.19 76.41,303.38 77.11,303.38 77.82,304.19 78.53,304.19 79.23,304.19 79.94,304.19 81.21,304.19 82.30,302.57 83.01,304.19 83.74,304.19 84.44,304.19 85.14,303.38 85.84,303.38 86.55,304.19 87.25,302.57 87.96,302.57 88.67,303.38 89.39,303.38 90.10,304.19 90.81,303.38 91.55,35.00 92.26,303.38 92.97,35.00 93.69,35.00 94.39,303.38 95.10,304.19 95.83,35.00 96.53,303.38 97.23,302.57 97.95,304.19 98.65,303.38 99.36,303.38 100.05,302.57 100.76,304.19 101.47,303.38 102.17,303.38 102.89,302.57 103.60,303.38 104.30,35.00 105.00,303.38 105.71,304.19 106.42,304.19 107.23,302.57 107.93,35.00 108.64,304.19 109.34,303.38 110.04,304.19 110.74,303.38 111.44,303.38 112.15,304.19 112.85,35.00 113.57,304.19 114.27,304.19 114.97,304.19 115.68,303.38 116.40,304.19 117.10,302.57 117.81,304.19 118.51,302.57 119.20,302.57 119.91,303.38 120.61,288.80 121.31,302.57 122.02,304.19 122.71,304.19 123.42,303.38 124.13,304.19 124.83,300.14 125.54,304.19 126.24,304.19 126.94,304.19 127.66,35.00 128.36,35.00 129.07,302.57 129.78,35.00 130.48,35.00 131.19,303.38 131.89,304.19 132.59,35.00 133.29,304.19 134.00,304.19 134.71,304.19 135.41,304.19 136.13,303.38 136.82,303.38 137.53,304.19 138.23,304.19 138.93,303.38 139.63,286.91 140.34,303.38 141.04,304.19 141.75,304.19 142.46,304.19 143.16,303.38 143.87,304.19 144.58,304.19 145.29,303.38 146.00,302.57 146.70,302.57 147.40,304.19 148.10,302.57 148.82,304.19 149.52,304.19 150.23,304.19 150.93,35.00 151.64,304.19 152.35,304.19 153.06,302.57 153.77,35.00 154.48,35.00 155.18,303.38 155.89,304.19 156.59,303.38 157.29,304.19 158.01,304.19 158.77,302.57 159.47,304.19 160.19,35.00 160.89,35.00 161.59,302.57 162.29,304.19 162.98,304.19 163.69,303.38 164.39,35.00 165.10,303.38 165.80,35.00 166.50,304.19 167.20,304.19 167.90,304.19 168.62,303.38 169.32,303.38 170.03,304.19 170.73,304.19 171.44,295.28 172.14,35.00 172.85,303.38 173.55,35.00 174.26,35.00 174.97,302.57 175.67,304.19 176.37,299.33 177.07,304.19 177.77,304.19 178.48,304.19 179.19,303.38 179.90,303.38 180.61,303.38 181.31,302.57 182.02,303.38 182.73,304.19 183.43,303.38 184.14,304.19 184.84,303.38 185.56,304.19 186.27,303.38 186.97,303.38 187.68,302.57 188.38,303.38 189.08,304.19 189.79,303.38 190.49,35.00 191.19,304.19 191.89,303.38 192.59,302.57 193.30,304.19 194.01,304.19 194.72,303.38 195.42,303.38 196.14,304.19 196.85,35.00 197.55,303.38 198.25,35.00 198.95,302.57 199.72,303.38 200.44,304.19 201.14,35.00 201.84,303.38 202.54,35.00 203.24,304.19 203.95,304.19 204.66,35.00 205.36,304.19 206.07,302.57 206.77,302.57 207.47,303.38 208.20,35.00 208.90,302.57 209.60,304.19 210.30,301.76 211.01,303.38 211.73,303.38 212.46,304.19 213.15,303.38 213.86,303.38 214.57,304.19 215.27,304.19 215.98,303.38 216.68,304.19 217.40,304.19 218.10,303.38 218.80,35.00 219.51,304.19 220.22,303.38 220.92,304.19 221.63,304.19 222.34,304.19 223.05,35.00 223.75,35.00 224.45,302.57 225.15,302.57 225.86,304.19 226.56,303.38 227.26,302.57 227.97,302.57 228.66,35.00 229.37,304.19 230.08,35.00 230.78,303.38 231.49,35.00 232.21,303.38 232.91,303.38 233.62,303.38 234.32,35.00 235.03,304.19 235.74,302.57 236.44,303.38 237.15,304.19 237.87,303.38 238.57,35.00 239.28,303.38 239.99,304.19 240.69,303.38 241.40,304.19 242.10,35.00 242.80,302.57 243.51,304.19 244.22,304.19 244.92,303.38 245.63,303.38 246.34,304.19 247.04,303.38 247.75,304.19 248.46,304.19 249.17,304.19 249.87,303.38 250.58,302.57 251.29,304.19 252.00,35.00 252.71,295.28 253.41,303.38 254.11,302.57 254.90,303.38 255.61,301.76 256.31,35.00 257.02,304.19 257.73,303.38 258.44,304.19 259.15,304.19 259.85,299.33 260.55,304.19 261.28,303.38 262.00,302.57 262.70,303.38 263.40,302.57 264.11,304.19 264.81,304.19 265.52,304.19 266.25,302.57 266.96,303.38 267.66,303.38 268.37,35.00 269.13,303.38 269.84,303.38 270.73,304.19 271.92,302.57 272.64,303.38 273.36,303.38 274.07,303.38 274.76,304.19 275.46,303.38 276.18,304.19 276.89,304.19 277.60,303.38 278.33,304.19 279.06,304.19 279.81,304.19 280.52,304.19 281.22,302.57 281.93,35.00 282.64,304.19 283.36,302.57 284.07,303.38 284.77,303.38 285.48,303.38 286.21,304.19 286.92,304.19 287.62,303.38 288.33,304.19 289.04,303.38 289.77,304.19 290.48,303.38 291.19,304.19 291.92,287.18 292.59,288.53 293.29,301.76 294.01,302.57 294.71,303.38 295.43,35.00 296.16,35.00 296.87,303.38 297.57,303.38 298.29,304.19 299.00,304.19 299.70,35.00 300.41,304.19 301.11,35.00 301.82,303.38 302.53,303.38 303.23,302.57 304.07,303.38 304.90,303.38 305.73,300.95 306.55,303.38 307.36,302.57 308.17,304.19 309.01,304.19 309.83,35.00 310.54,303.38 311.23,303.38 311.94,304.19 312.64,304.19 313.35,302.57 314.05,303.38 314.75,304.19 315.45,303.38 316.16,303.38 316.86,304.19 317.56,303.38 318.27,304.19 318.97,303.38 319.67,303.38 320.37,304.19 321.07,303.38 321.78,35.00 322.48,304.19 323.19,304.19 323.90,303.38 324.59,304.19 325.29,304.19 325.99,35.00 326.70,303.38 327.40,304.19 328.11,304.19 328.81,304.19 329.52,302.57 330.22,35.00 330.92,303.38 331.63,287.72 332.33,304.19 333.03,304.19 333.74,303.38 334.43,301.76 335.13,303.38 335.83,304.19 336.53,302.57 337.23,303.38 337.93,303.38 338.63,303.38 339.34,303.38 340.03,304.19 340.73,303.38 341.42,302.57 342.15,304.19 342.91,303.38 343.62,303.38 344.33,303.38 345.03,303.38 345.73,304.19 346.43,304.19 347.13,304.19 347.83,304.19 348.66,303.38 349.49,303.38 350.31,304.19 351.13,302.57 351.96,304.19 352.78,303.38 353.63,302.57 354.48,304.19 355.25,303.38 356.01,303.38 356.71,303.38 357.42,302.57 358.13,35.00 358.83,35.00 359.53,304.19 360.23,303.38 360.94,35.00 361.64,35.00 362.34,303.38 363.05,304.19 363.75,304.19 364.45,304.19 365.17,303.38 365.87,304.19 366.57,304.19 367.19,304.19 367.92,304.19 368.62,287.72 369.34,303.38 370.04,302.57 370.75,303.38 371.46,303.38 372.17,304.19 372.87,304.19 373.59,303.38 374.30,302.57 375.01,304.19 375.71,303.38 376.41,302.57 377.12,304.19 377.81,301.76 378.52,304.19 379.22,304.19 379.93,303.38 380.63,303.38 381.34,304.19 382.04,303.38 382.74,301.76 383.45,304.19 384.15,304.19 384.86,304.19 385.57,35.00 386.28,303.38 386.98,304.19 387.69,304.19 388.40,304.19 389.12,304.19 389.82,35.00 390.52,35.00 391.23,302.57 391.92,304.19 392.62,35.00 393.34,304.19 394.04,303.38 394.74,302.57 395.44,302.57 396.14,304.19 396.85,303.38 397.56,304.19 398.27,303.38 398.97,301.76 399.82,304.19 400.54,304.19 401.27,304.19 401.98,302.57 402.68,304.19 403.40,304.19 404.10,304.19 404.80,303.38 405.51,304.19 406.22,303.38 406.92,35.00 407.63,302.57 408.34,304.19 409.04,302.57 409.77,304.19 410.49,303.38 411.19,304.19 411.90,303.38 412.61,35.00 413.31,302.57 414.01,303.38 414.72,304.19 415.45,304.19 416.16,304.19 416.87,304.19 417.57,303.38 418.28,304.19 418.99,304.19 419.69,304.19 420.40,304.19 421.10,304.19 421.81,304.19 422.52,302.57 423.23,304.19 423.93,303.38 424.63,304.19 425.34,304.19 426.06,304.19 426.76,304.19 427.46,35.00 428.17,304.19 428.87,301.76 429.59,217.79 430.30,304.19 431.15,35.00 431.87,303.38 432.58,302.57 433.28,304.19 433.98,303.38 434.69,304.19 435.40,303.38 436.11,304.19 436.83,304.19 437.53,303.38 438.23,35.00 438.93,35.00 439.64,304.19 440.34,302.57 441.05,304.19 441.76,304.19 442.46,304.19 443.16,303.38 443.86,304.19 444.57,302.57 445.28,304.19 445.98,35.00 446.69,35.00 447.40,303.38 448.11,304.19 448.81,303.38 449.52,300.95 450.23,304.19 450.95,304.19 451.65,304.19 452.36,303.38 453.07,303.38 453.78,302.57 454.48,35.00 455.19,303.38 455.89,35.00 456.62,35.00 457.32,303.38 458.03,304.19 458.72,302.57 459.43,304.19 460.13,304.19 460.84,303.38 461.54,303.38 462.25,296.09 462.97,304.19 463.68,304.19 464.37,304.19 465.09,302.57 465.78,35.00 466.49,303.38 467.19,304.19 467.90,302.57 468.60,302.57 469.32,303.38 470.02,35.00 470.73,303.38 471.44,303.38 472.15,304.19 472.86,304.19 473.57,303.38 474.28,304.19 475.07,303.38 475.85,303.38 476.60,302.57 477.32,304.19 478.05,303.38 478.76,303.38 479.47,304.19 480.17,35.00 480.83,303.38 481.56,287.18 482.27,304.19 482.98,286.37 483.68,302.57 484.39,304.19 485.09,304.19 485.80,304.19 486.50,304.19 487.21,304.19 487.91,35.00 488.62,303.38 489.33,304.19 490.04,35.00 490.75,304.19 491.47,304.19 492.17,303.38 492.88,304.19 493.59,304.19 494.31,303.38 495.02,303.38 495.72,304.19 496.42,304.19 497.13,304.19 497.83,304.19 498.54,302.57 499.25,35.00 499.95,35.00 500.67,304.19 501.37,303.38 502.07,304.19 502.78,304.19 503.49,304.19 504.20,304.19 504.91,304.19 505.61,301.76 506.32,303.38 507.03,302.57 507.74,304.19 508.45,35.00 509.16,304.19 509.87,304.19 510.57,303.38 511.28,35.00 511.99,304.19 512.71,304.19 513.43,304.19 514.14,35.00 514.85,304.19 515.56,304.19 516.26,303.38 516.97,303.38 517.68,35.00 518.39,35.00 519.10,303.38 519.80,304.19 520.51,302.57 521.22,302.57 521.93,304.19 522.64,295.28 523.35,303.38 524.06,304.19 524.77,304.19 525.48,303.38 526.20,35.00 526.91,304.19 527.61,302.57 528.32,35.00 529.03,302.57 529.75,303.38 530.46,304.19 531.18,303.38 531.88,304.19 532.59,35.00 533.29,35.00 534.00,302.57 534.71,303.38 535.42,295.28 536.12,304.19 536.83,304.19 537.54,303.38 538.25,303.38 538.96,304.19 539.67,304.19 540.37,35.00 541.09,303.38 541.80,303.38 542.51,304.19 543.22,35.00 543.92,304.19 544.62,303.38 545.32,35.00 546.03,304.19 546.74,303.38 547.46,302.57 548.16,304.19 548.88,302.57 549.58,304.19 550.29,303.38 551.01,304.19 551.71,304.19 552.42,304.19 553.14,304.19 553.85,304.19 554.55,304.19 555.27,303.38 555.98,303.38 556.69,304.19 557.40,304.19 558.12,304.19 558.84,304.19 559.55,303.38 560.26,304.19 560.96,304.19 561.67,303.38 562.39,303.38 563.10,35.00 563.81,303.38 564.52,303.38 565.23,304.19 565.93,35.00 566.65,302.57 567.36,304.19 568.07,287.18 568.78,304.19 569.49,35.00 570.19,35.00 570.89,304.19 571.59,304.19 572.31,304.19 573.02,304.19 573.73,303.38 574.43,303.38 575.14,303.38 575.85,304.19 576.58,35.00 577.29,35.00 577.99,35.00 578.70,286.37 579.40,302.57 580.11,301.76 580.82,303.38 581.53,303.38 582.24,286.37 582.95,304.19 583.66,304.19 584.37,304.19 585.07,304.19 585.78,303.38 586.50,35.00 587.23,303.38 587.94,304.19 588.66,303.38 589.37,303.38 590.08,35.00 590.79,304.19 591.49,35.00 592.20,303.38 592.90,302.57 593.62,303.38 594.33,303.38 595.04,303.38 595.75,303.38 596.47,303.38 597.20,304.19 597.91,35.00 598.62,303.38 599.33,304.19 600.04,35.00 600.75,35.00 601.46,304.19 602.18,303.38 602.89,304.19 603.61,304.19 604.31,301.76 605.03,304.19 605.74,303.38 606.45,304.19 607.16,301.76 607.87,304.19 608.57,302.57 609.29,302.57 610.00,303.38 610.71,304.19 611.42,35.00 612.13,35.00 612.84,35.00 613.55,303.38 614.26,303.38 614.98,304.19 615.71,35.00 616.42,302.57 617.14,304.19 617.84,35.00 618.57,304.19 619.30,304.19 620.02,303.38 620.74,303.38 621.47,302.57 622.18,304.19 622.89,303.38 623.60,303.38 624.31,304.19 625.02,35.00 625.74,304.19 626.46,35.00 627.17,304.19 627.88,303.38 628.59,35.00 629.30,302.57 630.01,303.38 630.72,298.52 631.42,303.38 632.13,304.19 632.84,303.38 633.54,304.19 634.25,304.19 634.95,35.00 635.66,304.19 636.37,304.19 637.09,35.00 637.79,304.19 638.51,303.38 639.22,304.19 639.93,35.00 640.64,303.38 641.35,303.38 642.06,304.19 642.76,304.19 643.47,304.19 644.18,304.19 644.89,298.52 645.60,303.38 646.30,302.57 647.00,304.19 647.71,302.57 648.42,303.38 649.13,304.19 649.84,304.19 650.55,303.38 651.25,303.38 651.96,304.19 652.68,304.19 653.38,35.00 654.08,35.00 654.78,304.19 655.48,304.19 656.19,303.38 656.90,303.38 657.62,301.76 658.32,304.19 659.03,304.19 659.74,284.75 660.46,303.38 661.18,303.38 661.88,304.19 662.60,304.19 663.31,304.19 664.01,303.38 664.73,303.38 665.44,304.19 666.16,303.38 666.87,303.38 667.58,303.38 668.28,304.19 668.99,304.19 669.69,303.38 670.40,302.57 671.11,303.38 671.81,304.19 672.52,303.38 673.23,304.19 673.94,304.19 674.64,35.00 675.35,303.38 676.06,304.19 676.77,302.57 677.48,304.19 678.19,304.19 678.90,304.19 679.61,303.38 680.32,301.76 681.03,35.00 681.73,304.19 682.44,303.38 683.15,304.19 683.86,35.00 684.57,304.19 685.28,304.19 685.99,304.19 686.70,304.19 687.40,304.19 688.11,35.00 688.84,35.00 689.55,303.38 690.27,304.19 690.99,304.19 691.70,302.57 692.41,35.00 693.12,302.57 693.84,35.00 694.55,35.00 695.25,303.38 695.97,303.38 696.69,304.19 697.40,304.19 698.11,35.00 698.82,304.19 699.53,303.38 700.24,302.57 700.95,304.19 701.65,304.19 702.36,303.38 703.07,302.57 703.78,304.19 704.49,304.19 705.19,304.19 705.91,304.19 706.61,35.00 707.32,35.00 708.02,304.19 708.73,303.38 709.44,35.00 710.16,304.19 710.86,302.57 711.57,304.19 712.28,304.19 712.99,304.19 713.69,294.47 714.41,303.38 715.11,35.00 715.83,304.19 716.54,304.19 717.24,302.57 717.95,304.19 718.66,304.19 719.37,304.19 720.07,303.38 720.79,304.19 721.52,303.38 722.24,304.19 722.96,304.19 723.68,302.57 724.41,302.57 725.13,304.19 725.85,304.19 726.59,301.76 727.31,301.76 728.04,35.00 728.75,304.19 729.45,303.38 730.17,304.19 730.88,304.19 731.59,303.38 732.30,304.19 733.02,35.00 733.73,35.00 734.44,303.38 735.15,304.19 735.85,304.19 736.56,302.57 737.27,303.38 737.97,304.19 738.68,303.38 739.39,304.19 740.10,304.19 740.81,302.57 741.53,35.00 742.24,304.19 742.95,35.00 743.66,35.00 744.37,304.19 745.08,304.19 745.79,303.38 746.50,303.38 747.20,304.19 747.91,304.19 748.63,303.38 749.33,304.19 750.04,304.19 750.75,304.19 751.46,304.19 752.17,304.19 752.93,303.38 753.66,35.00 754.37,301.76 755.08,35.00 755.78,302.57 756.50,304.19 757.22,304.19 757.93,304.19 758.64,303.38 759.34,304.19 760.04,302.57 760.75,304.19 761.46,35.00 762.17,303.38 762.88,304.19 763.58,303.38 764.30,303.38 765.01,302.57 765.73,35.00 766.43,304.19 767.14,35.00 767.84,304.19 768.56,295.28 769.27,304.19 769.97,303.38 770.68,297.71 771.40,304.19 772.11,35.00 772.82,302.57 773.56,302.57 774.27,304.19 774.98,304.19 775.68,303.38 776.39,304.19 777.10,303.38 777.82,304.19 778.53,304.19 779.23,303.38 779.95,304.19 780.66,304.19 781.38,304.19 782.09,303.38 782.81,304.19 783.51,303.38 784.22,35.00 784.93,304.19 785.64,303.38 786.35,303.38 787.05,303.38 787.78,304.19 788.48,35.00 789.19,303.38 789.90,35.00 790.61,304.19 791.32,35.00 792.03,35.00 792.73,304.19 793.44,35.00 794.15,304.19 794.86,304.19 795.57,35.00 796.28,304.19 796.99,304.19 797.70,303.38 798.41,303.38 799.12,303.38 799.83,304.19 800.53,303.38 801.23,35.00 801.94,303.38 802.66,304.19 803.36,303.38 804.09,302.57 804.80,303.38 805.51,304.19 806.23,304.19 806.93,286.91 807.65,301.76 808.42,303.38 809.14,303.38 809.85,304.19 810.57,303.38 811.29,304.19 812.00,303.38 812.70,304.19 813.41,304.19 814.12,304.19 814.83,304.19 815.55,302.57 816.26,35.00 816.97,303.38 817.69,303.38 818.40,35.00 819.12,303.38 819.82,304.19 820.53,304.19 821.25,303.38 821.96,303.38 822.66,303.38 823.37,303.38 824.09,303.38 824.80,304.19 825.51,303.38 826.22,301.76 826.94,304.19 827.65,304.19 828.37,303.38 829.08,304.19 829.79,35.00 830.50,304.19 831.21,35.00 831.92,303.38 832.63,303.38 833.33,303.38 834.04,304.19 834.75,301.76 835.46,35.00 836.18,35.00 836.88,302.57 837.59,304.19 838.30,35.00 839.02,304.19 839.72,304.19 840.44,304.19 841.14,304.19 841.87,304.19 842.58,35.00 843.27,35.00 843.96,35.00 844.67,304.19 845.38,304.19 846.09,303.38 846.81,304.19 847.52,302.57 848.23,302.57 848.95,303.38 849.67,304.19 850.37,303.38 851.08,304.19 851.78,303.38 852.49,35.00 853.19,303.38 853.90,35.00 854.61,304.19 855.32,304.19 856.03,304.19 856.73,304.19 857.44,302.57 858.15,35.00 858.86,304.19 859.57,303.38 860.27,287.72 860.98,286.10 861.67,304.19 862.39,35.00 863.10,304.19 863.81,301.76 864.52,304.19 865.24,35.00 865.95,304.19 866.65,303.38 867.37,304.19 868.08,304.19 868.79,301.76 869.49,299.33 870.26,302.57 870.97,304.19 871.68,303.38 872.40,35.00 873.11,35.00 873.81,303.38 874.52,303.38 875.24,304.19 875.94,285.02 876.65,304.19 877.36,304.19 878.07,304.19 878.78,304.19 879.50,303.38 880.21,302.57 880.92,303.38 881.62,35.00 882.34,35.00 883.04,304.19 883.76,302.57 884.47,303.38 885.19,35.00 885.92,303.38 886.63,303.38 887.34,35.00 888.05,304.19 888.76,303.38 889.48,302.57 890.19,303.38 890.89,304.19 891.60,304.19 892.31,303.38 893.02,303.38 893.73,35.00 894.44,302.57 895.15,35.00 895.87,35.00 896.58,304.19 897.28,304.19 897.99,303.38 898.69,304.19 899.41,303.38 900.11,35.00 900.82,304.19 901.53,304.19 902.23,35.00 902.94,304.19 903.64,302.57 904.35,300.95 905.05,35.00 905.76,35.00 906.47,35.00 907.18,303.38 907.88,303.38 908.59,304.19 909.29,304.19 910.00,303.38 910.71,302.57 911.41,303.38 912.12,304.19 912.82,304.19 913.55,304.19 914.25,304.19 914.95,303.38 915.67,303.38 916.41,303.38 917.11,302.57 917.82,304.19 918.54,303.38 919.25,304.19 919.96,304.19 920.67,304.19 921.38,302.57 922.09,304.19 922.80,302.57 923.50,35.00 924.21,304.19 924.92,303.38 925.63,304.19 926.34,35.00 927.04,304.19 927.75,303.38 928.46,303.38 929.16,304.19 929.87,303.38 930.59,35.00 931.33,304.19 932.04,303.38 932.74,303.38 933.44,303.38 934.14,304.19 934.87,35.00 935.57,303.38 936.28,303.38 936.99,304.19 937.70,302.57 938.41,304.19 939.12,304.19 939.84,304.19 940.55,303.38 941.25,304.19 941.96,303.38 942.67,304.19 943.38,301.76 944.09,303.38 944.79,304.19 945.49,304.19 946.20,35.00 946.91,298.52 947.62,303.38 948.33,304.19 949.03,302.57 949.75,303.38 950.45,304.19 951.16,304.19 951.87,302.57 952.58,301.76 953.29,35.00 953.99,304.19 954.71,304.19 955.41,304.19 956.12,304.19 956.83,35.00 957.54,35.00 958.24,303.38 958.95,35.00 959.66,302.57 960.36,304.19 961.09,304.19 961.80,304.19 962.51,304.19 963.22,304.19 963.93,304.19 964.64,302.57 965.36,303.38 966.07,304.19 966.83,35.00 967.54,304.19 968.30,302.57 969.01,304.19 969.71,304.19 970.42,302.57 971.13,302.57 971.83,304.19 972.54,304.19 973.25,303.38 973.96,304.19 974.67,303.38 975.38,304.19 976.08,303.38 976.79,301.76 977.50,35.00 978.21,302.57 978.91,303.38 979.62,302.57 980.32,303.38 981.04,303.38 981.75,303.38 982.46,303.38 983.16,303.38 983.86,302.57 984.58,304.19 985.28,301.76 986.00,302.57 986.71,302.57 987.42,302.57 988.13,304.19 988.84,304.19 989.54,302.57 990.24,35.00 990.96,304.19 991.66,301.76 992.36,304.19 993.07,303.38 993.77,303.38 994.47,304.19 995.19,304.19 995.89,303.38 996.60,303.38 997.31,302.57 998.05,304.19 998.76,304.19 999.47,304.19 1000.17,35.00 1000.88,303.38 1001.57,302.57 1002.28,302.57 1002.99,303.38 1003.70,304.19 1004.40,303.38 1005.11,304.19 1005.81,304.19 1006.51,304.19 1007.22,302.57 1007.93,303.38 1008.63,35.00 1009.34,302.57 1010.06,35.00 1010.76,304.19 1011.46,300.14 1012.18,35.00 1012.89,304.19 1013.59,303.38 1014.30,35.00 1015.01,304.19 1015.72,304.19 1016.44,302.57 1017.14,303.38 1017.86,304.19 1018.56,304.19 1019.27,304.19 1019.98,304.19 1020.69,304.19 1021.39,35.00 1022.12,304.19 1022.83,303.38 1023.55,304.19 1024.26,303.38 1024.97,303.38 1025.68,303.38 1026.38,35.00 1027.09,304.19 1027.81,304.19 1028.52,304.19 1029.21,302.57 1029.93,304.19 1030.64,35.00 1031.35,302.57 1032.07,304.19 1032.79,287.99 1033.51,302.57 1034.26,303.38 1034.98,304.19 1035.69,304.19 1036.40,35.00 1037.10,304.19 1037.81,303.38 1038.52,303.38 1039.23,304.19 1039.94,304.19 1040.65,304.19 1041.36,286.37 1042.07,303.38 1042.77,303.38 1043.48,304.19 1044.19,303.38 1044.91,287.72 1045.63,304.19 1046.35,303.38 1047.06,304.19 1047.78,35.00 1048.52,304.19 1049.24,270.71 1049.99,304.19 1050.70,304.19 1051.41,304.19 1052.12,35.00 1052.83,303.38 1053.54,304.19 1054.25,302.57 1054.95,302.57 1055.66,304.19 1056.37,303.38 1057.08,304.19 1057.80,302.57 1058.51,302.57 1059.22,303.38 1059.95,304.19 1060.77,304.19 1061.48,304.19 1062.18,304.19 1062.89,303.38 1063.59,303.38 1064.30,302.57 1064.99,304.19 1065.65,304.19 1066.29,302.57 1068.36,35.00 1069.71,302.57 1070.41,35.00 1071.12,302.57 1071.83,304.19 1072.53,35.00 1073.24,286.91 1073.95,303.38 1074.65,303.38 1075.35,303.38 1076.07,35.00 1076.77,303.38 1077.47,303.38 1078.18,304.19 1078.89,304.19 1079.59,304.19 1080.30,303.38 1081.00,303.38 1081.70,303.38 1082.40,304.19 1083.11,304.19 1083.82,35.00 1084.52,304.19 1085.23,35.00 1085.95,304.19 1086.65,303.38 1087.35,301.76 1088.06,303.38 1088.76,304.19 1089.46,304.19 1090.17,304.19 1090.87,304.19 1091.57,301.76 1092.28,303.38 1092.98,35.00 1093.69,35.00 1094.39,304.19 1095.10,303.38 1095.81,35.00 1096.51,303.38 1097.22,35.00 1097.92,304.19 1098.63,304.19 1099.34,35.00 1100.04,35.00 1100.75,303.38 1101.44,304.19 1102.15,303.38 1102.85,303.38 1103.56,304.19 1104.26,304.19 1104.96,303.38 1105.68,35.00 1106.39,304.19 1107.10,304.19 1107.80,304.19 1108.51,304.19 1109.22,303.38 1109.93,35.00 1110.63,35.00 1111.34,35.00 1112.05,35.00 1112.75,304.19 1113.46,304.19 1114.16,304.19 1114.87,304.19 1115.58,304.19 1116.28,304.19 1116.99,303.38 1117.69,304.19 1118.40,35.00 1119.11,303.38 1119.81,303.38 1120.52,303.38 1121.23,304.19 1121.93,302.57 1122.64,302.57 1123.35,302.57 1124.05,303.38 1124.83,304.19 1125.53,303.38 1126.24,304.19 1126.94,302.57 1127.65,304.19 1128.36,304.19 1129.05,304.19 1129.77,304.19 1130.76,303.38 1131.46,286.37 1132.45,304.19 1133.15,303.38 1133.86,303.38 1134.57,303.38 1135.28,304.19 1135.98,304.19 1136.68,304.19 1137.39,302.57 1138.09,35.00 1138.80,303.38 1139.50,303.38 1140.20,302.57 1140.90,286.37 1141.62,302.57 1142.33,35.00 1143.04,304.19 1143.75,35.00 1144.46,304.19 1145.16,299.33 1145.88,303.38 1146.58,304.19 1147.28,304.19 1147.99,304.19 1148.70,304.19 1149.41,304.19 1150.11,304.19 1150.83,304.19 1151.54,304.19 1152.24,303.38 1152.95,35.00 1153.66,304.19 1154.38,304.19 1155.11,302.57 1155.83,302.57 1156.56,304.19 1157.27,303.38 1157.97,304.19 1158.69,304.19 1159.40,287.99 1160.10,304.19 1160.81,302.57 1161.51,302.57 1162.22,35.00 1162.94,285.56 1163.65,302.57 1164.36,304.19 1165.07,304.19 1165.78,301.76 1166.49,35.00 1167.20,35.00 1167.91,304.19 1168.62,303.38 1169.33,304.19 1170.04,301.76 1170.75,301.76 1171.47,302.57 1172.18,304.19 1172.89,304.19 1173.60,303.38 1174.31,304.19 1175.02,304.19 1175.72,304.19 1176.45,303.38 1177.17,303.38 1177.87,303.38 1178.58,304.19 1179.29,304.19 1180.00,303.38"/>
<polyline fill="none" stroke="#d62728" stroke-opacity="0.65" stroke-width="2" points="70.00,35.00 70.71,304.46 71.41,304.46 72.12,302.30 72.83,304.46 73.54,303.38 74.24,304.46 74.95,304.46 75.71,35.00 76.41,304.46 77.11,304.46 77.82,303.92 78.53,303.92 79.23,304.46 79.94,304.46 81.21,303.92 82.30,304.46 83.01,35.00 83.74,303.92 84.44,302.84 85.14,304.46 85.84,303.92 86.55,302.84 87.25,35.00 87.96,303.92 88.67,35.00 89.39,35.00 90.10,35.00 90.81,303.92 91.55,35.00 92.26,303.38 92.97,303.92 93.69,304.46 94.39,35.00 95.10,35.00 95.83,304.46 96.53,35.00 97.23,304.46 97.95,35.00 98.65,304.46 99.36,303.92 100.05,35.00 100.76,304.46 101.47,304.46 102.17,293.12 102.89,35.00 103.60,304.46 104.30,304.46 105.00,304.46 105.71,35.00 106.42,304.46 107.23,304.46 107.93,304.46 108.64,35.00 109.34,35.00 110.04,304.46 110.74,304.46 111.44,303.38 112.15,303.92 112.85,304.46 113.57,35.00 114.27,304.46 114.97,304.46 115.68,35.00 116.40,304.46 117.10,303.92 117.81,304.46 118.51,304.46 119.20,35.00 119.91,303.92 120.61,303.92 121.31,304.46 122.02,303.92 122.71,303.92 123.42,35.00 124.13,303.92 124.83,304.46 125.54,304.46 126.24,303.38 126.94,35.00 127.66,304.46 128.36,303.38 129.07,304.46 129.78,35.00 130.48,304.46 131.19,304.46 131.89,303.92 132.59,303.92 133.29,303.92 134.00,304.46 134.71,303.92 135.41,304.46 136.13,303.92 136.82,35.00 137.53,303.92 138.23,303.92 138.93,304.46 139.63,304.46 140.34,303.92 141.04,303.92 141.75,35.00 142.46,35.00 143.16,303.92 143.87,35.00 144.58,304.46 145.29,304.46 146.00,304.46 146.70,304.46 147.40,303.92 148.10,304.46 148.82,303.38 149.52,304.46 150.23,303.92 150.93,35.00 151.64,304.46 152.35,303.92 153.06,303.92 153.77,303.92 154.48,304.46 155.18,35.00 155.89,304.46 156.59,304.46 157.29,35.00 158.01,303.92 158.77,304.46 159.47,303.92 160.19,304.46 160.89,304.46 161.59,303.92 162.29,303.92 162.98,304.46 163.69,304.46 164.39,304.46 165.10,303.38 165.80,304.46 166.50,35.00 167.20,303.92 167.90,35.00 168.62,304.46 169.32,35.00 170.03,35.00 170.73,303.92 171.44,303.92 172.14,304.46 172.85,304.46 173.55,304.46 174.26,303.92 174.97,304.46 175.67,304.46 176.37,303.92 177.07,35.00 177.77,304.46 178.48,35.00 179.19,303.92 179.90,304.46 180.61,304.46 181.31,35.00 182.02,35.00 182.73,35.00 183.43,304.46 184.14,303.92 184.84,304.46 185.56,303.92 186.27,303.92 186.97,304.46 187.68,304.46 188.38,304.46 189.08,304.46 189.79,304.46 190.49,304.46 191.19,304.46 191.89,282.59 192.59,304.46 193.30,303.92 194.01,304.46 194.72,304.46 195.42,304.46 196.14,303.38 196.85,304.46 197.55,304.46 198.25,303.92 198.95,304.46 199.72,303.92 200.44,304.46 201.14,304.46 201.84,304.46 202.54,304.46 203.24,304.46 203.95,303.38 204.66,304.46 205.36,304.46 206.07,304.46 206.77,303.92 207.47,35.00 208.20,304.46 208.90,303.92 209.60,303.92 210.30,303.92 211.01,35.00 211.73,304.46 212.46,304.46 213.15,35.00 213.86,303.92 214.57,35.00 215.27,35.00 215.98,304.46 216.68,304.46 217.40,35.00 218.10,35.00 218.80,304.46 219.51,304.46 220.22,303.92 220.92,303.92 221.63,304.46 222.34,304.46 223.05,304.46 223.75,303.92 224.45,304.46 225.15,304.46 225.86,303.92 226.56,303.38 227.26,304.46 227.97,35.00 228.66,304.46 229.37,35.00 230.08,35.00 230.78,303.92 231.49,303.92 232.21,304.46 232.91,304.46 233.62,304.46 234.32,303.92 235.03,297.98 235.74,35.00 236.44,304.46 237.15,303.92 237.87,304.46 238.57,303.92 239.28,35.00 239.99,303.92 240.69,304.46 241.40,35.00 242.10,303.92 242.80,304.46 243.51,304.46 244.22,35.00 244.92,303.92 245.63,303.92 246.34,35.00 247.04,303.92 247.75,303.92 248.46,35.00 249.17,303.92 249.87,304.46 250.58,303.92 251.29,304.46 252.00,303.92 252.71,35.00 253.41,304.46 254.11,35.00 254.90,35.00 255.61,303.92 256.31,303.38 257.02,303.38 257.73,303.38 258.44,35.00 259.15,304.46 259.85,304.46 260.55,304.46 261.28,35.00 262.00,304.46 262.70,304.46 263.40,304.46 264.11,35.00 264.81,304.46 265.52,304.46 266.25,293.66 266.96,303.92 267.66,304.46 268.37,303.92 269.13,304.46 269.84,35.00 270.73,304.46 271.92,304.46 272.64,304.46 273.36,304.46 274.07,35.00 274.76,304.46 275.46,304.46 276.18,303.92 276.89,35.00 277.60,304.46 278.33,35.00 279.06,303.38 279.81,304.46 280.52,304.46 281.22,35.00 281.93,35.00 282.64,304.46 283.36,35.00 284.07,304.46 284.77,304.46 285.48,304.46 286.21,35.00 286.92,303.92 287.62,35.00 288.33,304.46 289.04,304.46 289.77,297.98 290.48,304.46 291.19,35.00 291.92,293.12 292.59,35.00 293.29,303.92 294.01,35.00 294.71,304.46 295.43,304.46 296.16,303.92 296.87,304.46 297.57,304.46 298.29,303.92 299.00,303.92 299.70,304.46 300.41,303.92 301.11,35.00 301.82,304.46 302.53,304.46 303.23,304.46 304.07,304.46 304.90,303.92 305.73,304.46 306.55,304.46 307.36,303.38 308.17,303.92 309.01,303.92 309.83,304.46 310.54,35.00 311.23,35.00 311.94,304.46 312.64,304.46 313.35,303.92 314.05,304.46 314.75,303.92 315.45,35.00 316.16,304.46 316.86,304.46 317.56,304.46 318.27,304.46 318.97,293.12 319.67,304.46 320.37,35.00 321.07,303.92 321.78,303.92 322.48,304.46 323.19,304.46 323.90,35.00 324.59,303.92 325.29,304.46 325.99,304.46 326.70,304.46 327.40,35.00 328.11,297.98 328.81,303.92 329.52,303.38 330.22,304.46 330.92,35.00 331.63,302.84 332.33,303.92 333.03,35.00 333.74,35.00 334.43,303.92 335.13,302.84 335.83,304.46 336.53,303.38 337.23,35.00 337.93,304.46 338.63,304.46 339.34,304.46 340.03,303.92 340.73,304.46 341.42,35.00 342.15,304.46 342.91,303.92 343.62,35.00 344.33,303.92 345.03,303.92 345.73,304.46 346.43,304.46 347.13,304.46 347.83,303.92 348.66,304.46 349.49,304.46 350.31,303.92 351.13,304.46 351.96,303.92 352.78,303.92 353.63,304.46 354.48,303.92 355.25,303.92 356.01,303.92 356.71,35.00 357.42,35.00 358.13,35.00 358.83,303.92 359.53,304.46 360.23,304.46 360.94,304.46 361.64,304.46 362.34,304.46 363.05,35.00 363.75,304.46 364.45,303.38 365.17,35.00 365.87,35.00 366.57,303.92 367.19,282.32 367.92,282.05 368.62,304.46 369.34,35.00 370.04,303.38 370.75,304.46 371.46,35.00 372.17,35.00 372.87,35.00 373.59,303.92 374.30,304.46 375.01,304.46 375.71,303.92 376.41,35.00 377.12,303.38 377.81,303.92 378.52,304.46 379.22,303.92 379.93,304.46 380.63,304.46 381.34,304.46 382.04,304.46 382.74,304.46 383.45,303.92 384.15,303.92 384.86,303.92 385.57,304.46 386.28,304.46 386.98,35.00 387.69,35.00 388.40,304.46 389.12,304.46 389.82,304.46 390.52,303.92 391.23,35.00 391.92,303.92 392.62,35.00 393.34,303.92 394.04,304.46 394.74,35.00 395.44,304.46 396.14,35.00 396.85,304.46 397.56,303.92 398.27,304.46 398.97,302.84 399.82,303.92 400.54,303.92 401.27,304.46 401.98,304.46 402.68,303.38 403.40,303.92 404.10,299.06 404.80,35.00 405.51,304.46 406.22,303.92 406.92,304.46 407.63,35.00 408.34,303.92 409.04,303.92 409.77,304.46 410.49,303.92 411.19,35.00 411.90,304.46 412.61,35.00 413.31,303.92 414.01,35.00 414.72,303.38 415.45,304.46 416.16,304.46 416.87,35.00 417.57,304.46 418.28,304.46 418.99,304.46 419.69,303.92 420.40,35.00 421.10,303.38 421.81,304.46 422.52,304.46 423.23,35.00 423.93,304.46 424.63,35.00 425.34,304.46 426.06,304.46 426.76,291.50 427.46,303.92 428.17,304.46 428.87,304.46 429.59,303.38 430.30,303.92 431.15,303.38 431.87,303.92 432.58,35.00 433.28,35.00 433.98,304.46 434.69,303.38 435.40,304.46 436.11,35.00 436.83,303.92 437.53,304.46 438.23,35.00 438.93,303.92 439.64,35.00 440.34,304.46 441.05,304.46 441.76,35.00 442.46,304.46 443.16,304.46 443.86,35.00 444.57,304.46 445.28,304.46 445.98,304.46 446.69,303.92 447.40,35.00 448.11,304.46 448.81,304.46 449.52,35.00 450.23,304.46 450.95,303.38 451.65,35.00 452.36,304.46 453.07,304.46 453.78,303.92 454.48,304.46 455.19,304.46 455.89,304.46 456.62,304.46 457.32,304.46 458.03,304.46 458.72,303.92 459.43,304.46 460.13,303.92 460.84,304.46 461.54,35.00 462.25,304.46 462.97,304.46 463.68,303.92 464.37,35.00 465.09,304.46 465.78,304.46 466.49,304.46 467.19,304.46 467.90,303.92 468.60,304.46 469.32,304.46 470.02,35.00 470.73,304.46 471.44,303.92 472.15,35.00 472.86,35.00 473.57,303.92 474.28,281.24 475.07,304.46 475.85,304.46 476.60,35.00 477.32,303.92 478.05,303.92 478.76,304.46 479.47,304.46 480.17,303.92 480.83,293.12 481.56,303.92 482.27,292.58 482.98,294.20 483.68,293.12 484.39,303.92 485.09,304.46 485.80,303.92 486.50,303.38 487.21,304.46 487.91,304.46 488.62,304.46 489.33,303.92 490.04,35.00 490.75,35.00 491.47,35.00 492.17,35.00 492.88,304.46 493.59,35.00 494.31,304.46 495.02,303.92 495.72,304.46 496.42,303.92 497.13,303.92 497.83,304.46 498.54,303.92 499.25,304.46 499.95,304.46 500.67,35.00 501.37,304.46 502.07,304.46 502.78,35.00 503.49,303.92 504.20,35.00 504.91,303.92 505.61,35.00 506.32,304.46 507.03,35.00 507.74,304.46 508.45,304.46 509.16,303.92 509.87,304.46 510.57,35.00 511.28,303.92 511.99,304.46 512.71,304.46 513.43,304.46 514.14,304.46 514.85,303.92 515.56,302.84 516.26,304.46 516.97,304.46 517.68,304.46 518.39,304.46 519.10,303.92 519.80,304.46 520.51,303.38 521.22,35.00 521.93,35.00 522.64,303.38 523.35,35.00 524.06,304.46 524.77,303.92 525.48,304.46 526.20,303.92 526.91,304.46 527.61,35.00 528.32,35.00 529.03,35.00 529.75,303.92 530.46,303.92 531.18,303.92 531.88,304.46 532.59,303.92 533.29,304.46 534.00,304.46 534.71,304.46 535.42,304.46 536.12,304.46 536.83,304.46 537.54,35.00 538.25,304.46 538.96,35.00 539.67,304.46 540.37,304.46 541.09,304.46 541.80,304.46 542.51,303.92 543.22,292.58 543.92,304.46 544.62,304.46 545.32,303.92 546.03,304.46 546.74,304.46 547.46,304.46 548.16,303.92 548.88,35.00 549.58,304.46 550.29,304.46 551.01,304.46 551.71,303.92 552.42,304.46 553.14,293.66 553.85,292.04 554.55,293.66 555.27,293.12 555.98,294.20 556.69,293.12 557.40,293.12 558.12,292.58 558.84,293.12 559.55,293.39 560.26,293.12 560.96,293.12 561.67,293.12 562.39,293.12 563.10,293.66 563.81,292.58 564.52,292.58 565.23,293.66 565.93,293.12 566.65,292.58 567.36,293.12 568.07,294.20 568.78,293.12 569.49,293.12 570.19,292.58 570.89,294.20 571.59,293.66 572.31,281.51 573.02,271.25 573.73,293.66 574.43,293.66 575.14,293.12 575.85,293.12 576.58,293.66 577.29,293.12 577.99,293.66 578.70,293.66 579.40,293.66 580.11,293.12 580.82,293.66 581.53,293.12 582.24,292.04 582.95,293.12 583.66,293.12 584.37,293.12 585.07,292.58 585.78,293.12 586.50,293.12 587.23,292.58 587.94,292.58 588.66,293.12 589.37,293.12 590.08,293.39 590.79,293.12 591.49,293.66 592.20,293.12 592.90,292.58 593.62,293.66 594.33,292.58 595.04,293.12 595.75,293.66 596.47,294.20 597.20,293.66 597.91,293.66 598.62,293.12 599.33,293.12 600.04,292.04 600.75,293.12 601.46,293.66 602.18,293.12 602.89,294.20 603.61,293.66 604.31,294.20 605.03,293.12 605.74,293.66 606.45,282.05 607.16,293.66 607.87,293.66 608.57,293.66 609.29,293.12 610.00,293.12 610.71,293.12 611.42,293.12 612.13,293.66 612.84,293.66 613.55,293.66 614.26,292.58 614.98,293.66 615.71,294.20 616.42,293.12 617.14,293.12 617.84,294.20 618.57,292.58 619.30,294.20 620.02,293.12 620.74,293.66 621.47,294.20 622.18,294.20 622.89,293.12 623.60,293.66 624.31,293.66 625.02,293.12 625.74,292.58 626.46,293.66 627.17,293.12 627.88,293.12 628.59,283.13 629.30,292.58 630.01,293.66 630.72,293.66 631.42,292.58 632.13,282.05 632.84,293.12 633.54,293.12 634.25,293.12 634.95,292.58 635.66,293.66 636.37,294.20 637.09,293.12 637.79,293.66 638.51,304.46 639.22,303.92 639.93,35.00 640.64,303.92 641.35,304.46 642.06,303.92 642.76,304.46 643.47,304.46 644.18,35.00 644.89,304.46 645.60,303.92 646.30,303.92 647.00,303.92 647.71,304.46 648.42,304.46 649.13,303.38 649.84,304.46 650.55,304.46 651.25,303.92 651.96,304.46 652.68,303.92 653.38,35.00 654.08,304.46 654.78,304.46 655.48,35.00 656.19,304.46 656.90,304.46 657.62,304.46 658.32,303.92 659.03,35.00 659.74,304.46 660.46,304.46 661.18,303.92 661.88,304.46 662.60,35.00 663.31,35.00 664.01,304.46 664.73,304.46 665.44,303.92 666.16,304.46 666.87,303.92 667.58,35.00 668.28,35.00 668.99,35.00 669.69,303.38 670.40,293.12 671.11,293.12 671.81,304.46 672.52,304.46 673.23,258.83 673.94,303.92 674.64,304.46 675.35,35.00 676.06,35.00 676.77,304.46 677.48,303.38 678.19,35.00 678.90,303.92 679.61,304.46 680.32,303.92 681.03,303.92 681.73,304.46 682.44,304.46 683.15,304.46 683.86,304.46 684.57,304.46 685.28,35.00 685.99,297.44 686.70,35.00 687.40,303.92 688.11,35.00 688.84,304.46 689.55,304.46 690.27,304.46 690.99,304.46 691.70,304.46 692.41,303.92 693.12,303.92 693.84,303.92 694.55,35.00 695.25,304.46 695.97,304.46 696.69,303.92 697.40,304.46 698.11,35.00 698.82,304.46 699.53,35.00 700.24,304.46 700.95,302.84 701.65,35.00 702.36,303.92 703.07,304.46 703.78,304.46 704.49,303.92 705.19,304.46 705.91,304.46 706.61,35.00 707.32,303.92 708.02,304.46 708.73,303.38 709.44,304.46 710.16,304.46 710.86,303.92 711.57,304.46 712.28,303.92 712.99,303.92 713.69,304.46 714.41,35.00 715.11,303.92 715.83,304.46 716.54,35.00 717.24,304.46 717.95,304.46 718.66,303.92 719.37,35.00 720.07,35.00 720.79,303.92 721.52,304.46 722.24,35.00 722.96,35.00 723.68,35.00 724.41,303.92 725.13,304.46 725.85,303.92 726.59,303.92 727.31,304.46 728.04,303.92 728.75,35.00 729.45,304.46 730.17,304.46 730.88,304.46 731.59,303.92 732.30,35.00 733.02,304.46 733.73,304.46 734.44,303.38 735.15,35.00 735.85,304.46 736.56,303.92 737.27,304.46 737.97,35.00 738.68,303.92 739.39,304.46 740.10,304.46 740.81,304.46 741.53,293.66 742.24,293.12 742.95,293.12 743.66,293.66 744.37,303.92 745.08,304.46 745.79,304.46 746.50,304.46 747.20,304.46 747.91,303.92 748.63,304.46 749.33,304.46 750.04,304.46 750.75,304.46 751.46,303.92 752.17,35.00 752.93,35.00 753.66,303.92 754.37,302.84 755.08,303.92 755.78,303.38 756.50,304.46 757.22,303.92 757.93,303.92 758.64,304.46 759.34,303.92 760.04,304.46 760.75,304.46 761.46,303.92 762.17,303.92 762.88,304.46 763.58,304.46 764.30,304.46 765.01,303.92 765.73,35.00 766.43,35.00 767.14,304.46 767.84,303.38 768.56,304.46 769.27,304.46 769.97,304.46 770.68,304.46 771.40,35.00 772.11,303.92 772.82,35.00 773.56,35.00 774.27,303.92 774.98,304.46 775.68,303.92 776.39,304.46 777.10,304.46 777.82,304.46 778.53,304.46 779.23,303.92 779.95,303.92 780.66,304.46 781.38,35.00 782.09,303.92 782.81,303.92 783.51,303.38 784.22,304.46 784.93,35.00 785.64,304.46 786.35,304.46 787.05,304.46 787.78,303.92 788.48,303.92 789.19,303.92 789.90,304.46 790.61,304.46 791.32,304.46 792.03,304.46 792.73,304.46 793.44,304.46 794.15,303.92 794.86,304.46 795.57,304.46 796.28,35.00 796.99,304.46 797.70,304.46 798.41,304.46 799.12,304.46 799.83,35.00 800.53,303.92 801.23,303.92 801.94,303.92 802.66,35.00 803.36,303.92 804.09,303.92 804.80,35.00 805.51,304.46 806.23,248.57 806.93,259.37 807.65,269.09 808.42,293.12 809.14,282.59 809.85,270.17 810.57,282.05 811.29,35.00 812.00,304.46 812.70,304.46 813.41,303.92 814.12,304.46 814.83,304.46 815.55,304.46 816.26,303.38 816.97,304.46 817.69,304.46 818.40,304.46 819.12,304.46 819.82,304.46 820.53,304.46 821.25,303.92 821.96,303.92 822.66,35.00 823.37,303.92 824.09,304.46 824.80,303.92 825.51,35.00 826.22,35.00 826.94,35.00 827.65,303.92 828.37,304.46 829.08,304.46 829.79,35.00 830.50,35.00 831.21,35.00 831.92,35.00 832.63,35.00 833.33,304.46 834.04,304.46 834.75,304.46 835.46,304.46 836.18,304.46 836.88,303.92 837.59,35.00 838.30,35.00 839.02,304.46 839.72,304.46 840.44,304.46 841.14,303.92 841.87,304.46 842.58,35.00 843.27,304.46 843.96,303.38 844.67,304.46 845.38,304.46 846.09,303.92 846.81,304.46 847.52,304.46 848.23,303.92 848.95,303.92 849.67,304.46 850.37,303.92 851.08,303.92 851.78,304.46 852.49,304.46 853.19,35.00 853.90,303.92 854.61,303.92 855.32,304.46 856.03,35.00 856.73,304.46 857.44,303.92 858.15,293.12 858.86,304.46 859.57,304.46 860.27,35.00 860.98,286.64 861.67,259.37 862.39,248.84 863.10,35.00 863.81,35.00 864.52,303.92 865.24,302.84 865.95,304.46 866.65,304.46 867.37,303.92 868.08,304.46 868.79,35.00 869.49,304.46 870.26,303.92 870.97,304.46 871.68,303.92 872.40,304.46 873.11,304.46 873.81,35.00 874.52,303.38 875.24,304.46 875.94,304.46 876.65,304.46 877.36,302.84 878.07,298.52 878.78,35.00 879.50,303.92 880.21,304.46 880.92,303.92 881.62,35.00 882.34,304.46 883.04,304.46 883.76,304.46 884.47,304.46 885.19,303.92 885.92,304.46 886.63,304.46 887.34,304.46 888.05,304.46 888.76,303.92 889.48,303.92 890.19,304.46 890.89,35.00 891.60,303.92 892.31,303.92 893.02,303.38 893.73,303.92 894.44,303.92 895.15,303.92 895.87,35.00 896.58,304.46 897.28,304.46 897.99,304.46 898.69,303.92 899.41,304.46 900.11,304.46 900.82,304.46 901.53,304.46 902.23,35.00 902.94,304.46 903.64,304.46 904.35,35.00 905.05,35.00 905.76,303.92 906.47,304.46 907.18,304.46 907.88,303.92 908.59,304.46 909.29,304.46 910.00,35.00 910.71,304.46 911.41,303.92 912.12,35.00 912.82,304.46 913.55,303.92 914.25,35.00 914.95,304.46 915.67,304.46 916.41,35.00 917.11,303.92 917.82,35.00 918.54,35.00 919.25,304.46 919.96,304.46 920.67,304.46 921.38,304.46 922.09,301.76 922.80,35.00 923.50,304.46 924.21,35.00 924.92,303.92 925.63,304.46 926.34,304.46 927.04,293.12 927.75,303.92 928.46,35.00 929.16,303.92 929.87,304.46 930.59,35.00 931.33,304.46 932.04,35.00 932.74,304.46 933.44,304.46 934.14,304.46 934.87,35.00 935.57,304.46 936.28,35.00 936.99,304.46 937.70,303.92 938.41,304.46 939.12,303.92 939.84,303.92 940.55,35.00 941.25,304.46 941.96,35.00 942.67,303.92 943.38,304.46 944.09,303.92 944.79,35.00 945.49,303.92 946.20,303.92 946.91,303.92 947.62,35.00 948.33,304.46 949.03,35.00 949.75,304.46 950.45,304.46 951.16,304.46 951.87,303.92 952.58,304.46 953.29,304.46 953.99,35.00 954.71,304.46 955.41,35.00 956.12,304.46 956.83,303.92 957.54,303.92 958.24,303.92 958.95,304.46 959.66,35.00 960.36,304.46 961.09,35.00 961.80,303.92 962.51,304.46 963.22,35.00 963.93,304.46 964.64,303.92 965.36,291.50 966.07,35.00 966.83,304.46 967.54,303.92 968.30,35.00 969.01,300.14 969.71,303.92 970.42,303.92 971.13,35.00 971.83,303.38 972.54,304.46 973.25,298.52 973.96,35.00 974.67,35.00 975.38,35.00 976.08,35.00 976.79,35.00 977.50,35.00 978.21,35.00 978.91,304.46 979.62,35.00 980.32,303.92 981.04,303.92 981.75,302.30 982.46,304.46 983.16,35.00 983.86,303.92 984.58,303.38 985.28,304.46 986.00,303.92 986.71,303.92 987.42,35.00 988.13,35.00 988.84,304.46 989.54,304.46 990.24,304.46 990.96,304.46 991.66,304.46 992.36,303.92 993.07,303.92 993.77,303.92 994.47,304.46 995.19,304.46 995.89,303.92 996.60,303.92 997.31,303.92 998.05,304.46 998.76,304.46 999.47,303.38 1000.17,304.46 1000.88,304.46 1001.57,303.92 1002.28,303.92 1002.99,304.46 1003.70,303.92 1004.40,304.46 1005.11,304.46 1005.81,304.46 1006.51,304.46 1007.22,304.46 1007.93,303.92 1008.63,303.92 1009.34,304.46 1010.06,303.92 1010.76,304.46 1011.46,304.46 1012.18,292.04 1012.89,35.00 1013.59,304.46 1014.30,35.00 1015.01,303.92 1015.72,303.92 1016.44,304.46 1017.14,304.46 1017.86,303.92 1018.56,304.46 1019.27,303.92 1019.98,35.00 1020.69,35.00 1021.39,304.46 1022.12,304.46 1022.83,304.46 1023.55,303.92 1024.26,304.46 1024.97,304.46 1025.68,304.46 1026.38,304.46 1027.09,304.46 1027.81,35.00 1028.52,303.38 1029.21,304.46 1029.93,303.38 1030.64,35.00 1031.35,304.46 1032.07,304.46 1032.79,304.46 1033.51,303.92 1034.26,303.92 1034.98,304.46 1035.69,303.92 1036.40,303.92 1037.10,304.46 1037.81,303.38 1038.52,303.92 1039.23,35.00 1039.94,304.46 1040.65,304.46 1041.36,303.38 1042.07,304.46 1042.77,35.00 1043.48,304.46 1044.19,303.92 1044.91,35.00 1045.63,303.92 1046.35,304.46 1047.06,304.46 1047.78,303.92 1048.52,304.46 1049.24,35.00 1049.99,35.00 1050.70,281.51 1051.41,259.91 1052.12,282.05 1052.83,304.46 1053.54,304.46 1054.25,304.46 1054.95,35.00 1055.66,35.00 1056.37,304.46 1057.08,35.00 1057.80,35.00 1058.51,304.46 1059.22,304.46 1059.95,303.92 1060.77,304.46 1061.48,35.00 1062.18,303.92 1062.89,303.92 1063.59,303.92 1064.30,35.00 1066.29,304.46 1067.05,303.92 1067.72,293.66 1068.36,303.92 1069.71,303.92 1070.41,303.92 1071.12,303.92 1071.83,303.92 1072.53,303.92 1073.24,304.46 1073.95,303.38 1074.65,304.46 1075.35,304.46 1076.07,303.92 1076.77,303.92 1077.47,304.46 1078.18,304.46 1078.89,303.38 1079.59,303.92 1080.30,35.00 1081.00,304.46 1081.70,304.46 1082.40,303.38 1083.11,303.92 1083.82,304.46 1084.52,304.46 1085.23,304.46 1085.95,304.46 1086.65,35.00 1087.35,304.46 1088.06,304.46 1088.76,35.00 1089.46,304.46 1090.17,304.46 1090.87,293.12 1091.57,35.00 1092.28,35.00 1092.98,304.46 1093.69,304.46 1094.39,303.92 1095.10,304.46 1095.81,303.92 1096.51,304.46 1097.22,35.00 1097.92,303.38 1098.63,304.46 1099.34,303.92 1100.04,304.46 1100.75,304.46 1101.44,303.92 1102.15,304.46 1102.85,304.46 1103.56,303.92 1104.26,303.92 1104.96,35.00 1105.68,304.46 1106.39,304.46 1107.10,304.46 1107.80,35.00 1108.51,303.38 1109.22,303.92 1109.93,304.46 1110.63,304.46 1111.34,35.00 1112.05,304.46 1112.75,35.00 1113.46,304.46 1114.16,35.00 1114.87,303.38 1115.58,35.00 1116.28,302.84 1116.99,304.46 1117.69,304.46 1118.40,303.92 1119.11,304.46 1119.81,303.92 1120.52,303.92 1121.23,35.00 1121.93,304.46 1122.64,303.92 1123.35,303.38 1124.05,303.92 1124.83,304.46 1125.53,303.92 1126.24,35.00 1126.94,304.46 1127.65,303.38 1128.36,303.92 1129.05,303.92 1129.77,304.46 1130.76,303.92 1131.46,303.92 1132.45,304.46 1133.15,304.46 1133.86,35.00 1134.57,303.38 1135.28,303.38 1135.98,304.46 1136.68,303.38 1137.39,303.38 1138.09,304.46 1138.80,304.46 1139.50,303.92 1140.20,304.46 1140.90,304.46 1141.62,304.46 1142.33,304.46 1143.04,304.46 1143.75,304.46 1144.46,303.38 1145.16,35.00 1145.88,304.46 1146.58,304.46 1147.28,304.46 1147.99,303.92 1148.70,304.46 1149.41,303.38 1150.11,303.92 1150.83,293.66 1151.54,304.46 1152.24,304.46 1152.95,303.92 1153.66,304.46 1154.38,303.92 1155.11,303.38 1155.83,35.00 1156.56,304.46 1157.27,304.46 1157.97,304.46 1158.69,35.00 1159.40,303.92 1160.10,304.46 1160.81,304.46 1161.51,304.46 1162.22,303.92 1162.94,303.38 1163.65,293.66 1164.36,304.46 1165.07,304.46 1165.78,304.46 1166.49,304.46 1167.20,304.46 1167.91,304.46 1168.62,35.00 1169.33,304.46 1170.04,304.46 1170.75,304.46 1171.47,304.46 1172.18,293.66 1172.89,304.46 1173.60,35.00 1174.31,35.00 1175.02,35.00 1175.72,303.92 1176.45,304.46 1177.17,304.46 1177.87,304.46 1178.58,304.46 1179.29,304.46 1180.00,35.00"/>
<polyline fill="none" stroke="#d62728" stroke-opacity="0.50" stroke-width="2" points="70.00,302.84 70.71,302.84 71.41,303.92 72.12,303.92 72.83,303.92 73.54,303.38 74.24,303.92 74.95,302.57 75.71,303.38 76.41,302.84 77.11,303.92 77.82,303.38 78.53,302.84 79.23,303.38 79.94,287.18 81.21,303.38 82.30,303.38 83.01,303.38 83.74,303.92 84.44,302.84 85.14,293.12 85.84,303.38 86.55,303.38 87.25,303.38 87.96,303.38 88.67,303.38 89.39,303.38 90.10,303.92 90.81,303.38 91.55,303.92 92.26,303.92 92.97,303.38 93.69,303.38 94.39,303.38 95.10,302.03 95.83,303.38 96.53,303.92 97.23,303.92 97.95,303.38 98.65,303.92 99.36,303.92 100.05,303.92 100.76,302.84 101.47,303.92 102.17,303.38 102.89,303.92 103.60,302.84 104.30,303.92 105.00,302.84 105.71,303.38 106.42,302.84 107.23,303.38 107.93,303.92 108.64,303.38 109.34,303.92 110.04,303.38 110.74,303.38 111.44,303.92 112.15,302.30 112.85,303.92 113.57,303.92 114.27,304.46 114.97,303.92 115.68,303.92 116.40,303.92 117.10,303.38 117.81,289.61 118.51,303.92 119.20,303.38 119.91,302.84 120.61,299.87 121.31,303.92 122.02,303.92 122.71,304.46 123.42,303.92 124.13,302.03 124.83,304.46 125.54,303.38 126.24,303.38 126.94,302.84 127.66,302.57 128.36,303.92 129.07,303.92 129.78,303.92 130.48,303.38 131.19,303.38 131.89,302.84 132.59,303.38 133.29,302.84 134.00,303.92 134.71,303.38 135.41,294.20 136.13,303.38 136.82,303.38 137.53,303.92 138.23,303.92 138.93,302.57 139.63,303.38 140.34,302.84 141.04,302.84 141.75,302.57 142.46,303.92 143.16,303.92 143.87,303.92 144.58,303.92 145.29,302.84 146.00,303.92 146.70,303.92 147.40,302.84 148.10,303.92 148.82,302.84 149.52,302.84 150.23,303.92 150.93,303.92 151.64,303.92 152.35,303.92 153.06,302.57 153.77,303.92 154.48,303.92 155.18,303.38 155.89,303.38 156.59,303.92 157.29,304.46 158.01,303.92 158.77,303.92 159.47,303.38 160.19,303.92 160.89,303.92 161.59,304.46 162.29,303.38 162.98,302.84 163.69,303.92 164.39,302.84 165.10,303.92 165.80,303.38 166.50,303.38 167.20,304.46 167.90,303.38 168.62,303.92 169.32,302.57 170.03,302.03 170.73,303.92 171.44,303.92 172.14,303.38 172.85,303.38 173.55,303.92 174.26,303.38 174.97,303.38 175.67,302.84 176.37,302.57 177.07,303.38 177.77,302.03 178.48,302.03 179.19,302.03 179.90,302.84 180.61,302.03 181.31,302.84 182.02,302.84 182.73,302.57 183.43,302.03 184.14,303.92 184.84,303.38 185.56,303.92 186.27,303.92 186.97,303.38 187.68,302.84 188.38,303.92 189.08,303.92 189.79,303.92 190.49,296.90 191.19,303.38 191.89,302.84 192.59,303.92 193.30,303.92 194.01,302.84 194.72,303.92 195.42,302.84 196.14,303.92 196.85,303.92 197.55,303.38 198.25,303.92 198.95,303.92 199.72,299.33 200.44,303.38 201.14,303.92 201.84,303.38 202.54,303.92 203.24,304.46 203.95,303.92 204.66,303.38 205.36,303.92 206.07,302.84 206.77,303.38 207.47,303.38 208.20,303.92 208.90,303.92 209.60,303.92 210.30,302.84 211.01,303.92 211.73,303.38 212.46,303.92 213.15,303.92 213.86,303.38 214.57,302.84 215.27,303.38 215.98,303.38 216.68,303.92 217.40,303.92 218.10,302.84 218.80,303.92 219.51,303.38 220.22,303.92 220.92,303.92 221.63,303.38 222.34,303.92 223.05,302.30 223.75,303.92 224.45,303.38 225.15,303.92 225.86,302.84 226.56,303.92 227.26,302.84 227.97,303.92 228.66,303.92 229.37,303.92 230.08,303.92 230.78,302.84 231.49,303.92 232.21,303.92 232.91,299.87 233.62,303.92 234.32,302.84 235.03,302.84 235.74,303.92 236.44,303.92 237.15,303.92 237.87,304.46 238.57,304.46 239.28,303.38 239.99,303.38 240.69,303.38 241.40,303.92 242.10,303.92 242.80,302.84 243.51,303.92 244.22,303.92 244.92,303.38 245.63,303.38 246.34,303.92 247.04,302.57 247.75,303.92 248.46,302.84 249.17,303.92 249.87,303.92 250.58,303.38 251.29,303.92 252.00,304.46 252.71,303.38 253.41,302.84 254.11,303.38 254.90,303.92 255.61,303.38 256.31,303.92 257.02,303.92 257.73,303.38 258.44,303.38 259.15,303.38 259.85,303.38 260.55,303.92 261.28,302.84 262.00,303.92 262.70,303.92 263.40,303.92 264.11,303.92 264.81,302.84 265.52,303.38 266.25,303.38 266.96,303.92 267.66,302.84 268.37,303.92 269.13,303.92 269.84,293.39 270.73,293.12 271.92,303.92 272.64,302.84 273.36,292.58 274.07,302.03 274.76,302.84 275.46,304.46 276.18,303.92 276.89,303.92 277.60,303.92 278.33,304.46 279.06,303.92 279.81,303.92 280.52,302.84 281.22,303.38 281.93,303.38 282.64,303.92 283.36,303.38 284.07,302.84 284.77,294.74 285.48,303.38 286.21,303.92 286.92,303.92 287.62,303.92 288.33,303.92 289.04,303.38 289.77,303.92 290.48,303.38 291.19,303.92 291.92,303.38 292.59,302.57 293.29,303.92 294.01,303.92 294.71,303.92 295.43,304.46 296.16,303.38 296.87,303.38 297.57,303.38 298.29,304.46 299.00,303.92 299.70,303.92 300.41,303.38 301.11,303.92 301.82,303.92 302.53,303.92 303.23,303.92 304.07,300.41 304.90,303.92 305.73,303.38 306.55,303.92 307.36,303.92 308.17,303.92 309.01,302.84 309.83,303.92 310.54,303.92 311.23,303.92 311.94,303.38 312.64,302.84 313.35,302.84 314.05,303.92 314.75,303.92 315.45,303.38 316.16,304.46 316.86,304.46 317.56,303.92 318.27,292.58 318.97,302.84 319.67,304.46 320.37,303.38 321.07,303.92 321.78,303.38 322.48,303.38 323.19,303.38 323.90,303.38 324.59,303.38 325.29,304.46 325.99,303.38 326.70,304.46 327.40,303.92 328.11,303.38 328.81,303.92 329.52,303.38 330.22,295.82 330.92,302.84 331.63,303.92 332.33,302.84 333.03,299.87 333.74,303.92 334.43,303.38 335.13,302.84 335.83,303.92 336.53,303.92 337.23,303.38 337.93,303.92 338.63,303.38 339.34,303.92 340.03,303.38 340.73,304.46 341.42,303.92 342.15,303.92 342.91,303.92 343.62,303.92 344.33,303.92 345.03,303.38 345.73,302.57 346.43,303.92 347.13,303.92 347.83,303.92 348.66,302.84 349.49,302.84 350.31,303.92 351.13,302.30 351.96,303.92 352.78,303.92 353.63,303.92 354.48,303.92 355.25,303.92 356.01,303.92 356.71,303.38 357.42,303.38 358.13,303.38 358.83,303.38 359.53,303.92 360.23,303.92 360.94,292.85 361.64,303.92 362.34,302.57 363.05,303.38 363.75,303.92 364.45,303.92 365.17,303.38 365.87,303.92 366.57,302.30 367.19,303.92 367.92,303.92 368.62,304.46 369.34,303.38 370.04,303.92 370.75,303.92 371.46,303.38 372.17,303.92 372.87,303.92 373.59,303.92 374.30,304.46 375.01,303.92 375.71,303.38 376.41,303.92 377.12,303.92 377.81,303.92 378.52,302.84 379.22,303.38 379.93,303.92 380.63,303.92 381.34,303.38 382.04,303.92 382.74,303.38 383.45,303.38 384.15,303.92 384.86,303.38 385.57,303.92 386.28,303.92 386.98,303.92 387.69,303.92 388.40,303.92 389.12,303.92 389.82,303.92 390.52,302.84 391.23,302.84 391.92,303.92 392.62,304.46 393.34,302.03 394.04,303.38 394.74,303.92 395.44,303.92 396.14,303.92 396.85,302.84 397.56,303.38 398.27,303.38 398.97,303.38 399.82,303.92 400.54,303.92 401.27,303.38 401.98,302.57 402.68,303.92 403.40,302.84 404.10,303.92 404.80,303.92 405.51,303.92 406.22,304.46 406.92,302.57 407.63,302.57 408.34,303.38 409.04,303.92 409.77,303.92 410.49,303.38 411.19,303.38 411.90,302.84 412.61,303.92 413.31,300.95 414.01,303.92 414.72,302.84 415.45,303.38 416.16,303.92 416.87,303.38 417.57,302.84 418.28,303.92 418.99,303.38 419.69,303.92 420.40,303.38 421.10,303.92 421.81,303.92 422.52,303.92 423.23,303.38 423.93,303.38 424.63,303.92 425.34,303.92 426.06,303.92 426.76,303.92 427.46,303.92 428.17,300.95 428.87,290.69 429.59,303.92 430.30,302.84 431.15,303.92 431.87,303.38 432.58,303.38 433.28,303.92 433.98,304.46 434.69,303.92 435.40,303.92 436.11,303.38 436.83,303.38 437.53,302.84 438.23,304.46 438.93,303.92 439.64,303.38 440.34,304.46 441.05,304.46 441.76,303.38 442.46,303.38 443.16,303.92 443.86,303.38 444.57,304.46 445.28,303.38 445.98,302.84 446.69,304.46 447.40,303.92 448.11,303.92 448.81,303.38 449.52,303.38 450.23,303.92 450.95,303.92 451.65,300.95 452.36,303.92 453.07,302.84 453.78,303.92 454.48,303.38 455.19,303.38 455.89,302.03 456.62,302.03 457.32,303.92 458.03,302.84 458.72,302.84 459.43,302.57 460.13,303.38 460.84,303.38 461.54,303.38 462.25,303.38 462.97,291.77 463.68,274.49 464.37,302.84 465.09,292.85 465.78,302.84 466.49,303.38 467.19,303.92 467.90,303.92 468.60,303.92 469.32,303.38 470.02,303.38 470.73,304.46 471.44,302.84 472.15,303.92 472.86,302.57 473.57,303.92 474.28,303.92 475.07,304.46 475.85,304.46 476.60,303.92 477.32,303.92 478.05,303.92 478.76,303.38 479.47,303.92 480.17,303.38 480.83,303.38 481.56,303.38 482.27,303.92 482.98,303.92 483.68,303.38 484.39,303.38 485.09,303.38 485.80,303.92 486.50,303.38 487.21,303.92 487.91,303.92 488.62,303.92 489.33,303.92 490.04,303.38 490.75,303.92 491.47,303.92 492.17,302.84 492.88,303.38 493.59,303.38 494.31,302.57 495.02,303.38 495.72,302.57 496.42,302.57 497.13,301.49 497.83,303.92 498.54,303.38 499.25,303.92 499.95,302.84 500.67,303.38 501.37,303.92 502.07,303.38 502.78,303.38 503.49,303.38 504.20,303.92 504.91,303.92 505.61,304.46 506.32,303.92 507.03,303.92 507.74,302.57 508.45,303.38 509.16,303.38 509.87,303.92 510.57,302.84 511.28,302.84 511.99,303.38 512.71,303.38 513.43,303.92 514.14,303.38 514.85,303.92 515.56,303.92 516.26,300.41 516.97,303.92 517.68,303.38 518.39,303.92 519.10,303.92 519.80,303.92 520.51,303.38 521.22,304.46 521.93,303.38 522.64,302.84 523.35,303.92 524.06,303.92 524.77,303.38 525.48,303.92 526.20,303.92 526.91,303.92 527.61,303.92 528.32,303.92 529.03,303.38 529.75,302.84 530.46,303.92 531.18,303.38 531.88,303.92 532.59,303.92 533.29,303.38 534.00,303.92 534.71,303.92 535.42,303.38 536.12,303.92 536.83,303.38 537.54,302.84 538.25,303.38 538.96,302.03 539.67,292.85 540.37,303.92 541.09,302.57 541.80,303.38 542.51,302.84 543.22,303.38 543.92,302.84 544.62,291.50 545.32,303.38 546.03,303.92 546.74,303.92 547.46,303.92 548.16,303.92 548.88,303.92 549.58,303.92 550.29,303.92 551.01,303.92 551.71,303.92 552.42,297.71 553.14,303.38 553.85,303.38 554.55,303.92 555.27,303.92 555.98,303.38 556.69,304.46 557.40,304.46 558.12,303.92 558.84,303.92 559.55,303.38 560.26,303.92 560.96,304.46 561.67,303.92 562.39,303.38 563.10,302.84 563.81,302.84 564.52,303.38 565.23,303.92 565.93,302.03 566.65,303.38 567.36,303.92 568.07,302.84 568.78,303.92 569.49,304.46 570.19,303.92 570.89,304.46 571.59,303.38 572.31,303.92 573.02,303.92 573.73,303.92 574.43,303.92 575.14,302.84 575.85,302.84 576.58,303.38 577.29,303.92 577.99,302.84 578.70,292.31 579.40,303.92 580.11,303.38 580.82,303.38 581.53,303.38 582.24,303.92 582.95,303.38 583.66,303.92 584.37,303.92 585.07,303.92 585.78,303.92 586.50,303.92 587.23,302.84 587.94,303.38 588.66,303.92 589.37,303.92 590.08,303.92 590.79,302.84 591.49,303.92 592.20,303.92 592.90,303.92 593.62,303.92 594.33,303.38 595.04,303.92 595.75,303.38 596.47,303.92 597.20,303.92 597.91,303.38 598.62,303.92 599.33,303.92 600.04,301.49 600.75,303.92 601.46,303.92 602.18,303.92 602.89,303.38 603.61,302.84 604.31,303.92 605.03,304.46 605.74,303.38 606.45,303.38 607.16,303.92 607.87,303.92 608.57,303.92 609.29,303.92 610.00,303.38 610.71,303.92 611.42,302.84 612.13,303.92 612.84,303.38 613.55,303.92 614.26,303.92 614.98,303.92 615.71,304.46 616.42,303.38 617.14,303.92 617.84,303.92 618.57,301.49 619.30,302.03 620.02,303.92 620.74,303.38 621.47,302.57 622.18,300.41 622.89,303.38 623.60,302.57 624.31,303.92 625.02,304.46 625.74,303.92 626.46,303.92 627.17,303.38 627.88,303.38 628.59,303.92 629.30,303.92 630.01,303.38 630.72,302.84 631.42,303.92 632.13,304.46 632.84,303.38 633.54,303.38 634.25,302.84 634.95,302.84 635.66,303.92 636.37,303.92 637.09,303.92 637.79,303.38 638.51,303.92 639.22,303.38 639.93,303.92 640.64,303.92 641.35,303.92 642.06,303.92 642.76,303.92 643.47,303.92 644.18,303.92 644.89,303.38 645.60,303.92 646.30,301.49 647.00,302.57 647.71,303.92 648.42,302.57 649.13,303.92 649.84,303.38 650.55,302.84 651.25,303.92 651.96,302.84 652.68,292.58 653.38,290.69 654.08,302.84 654.78,291.50 655.48,302.57 656.19,303.38 656.90,303.92 657.62,303.92 658.32,304.46 659.03,303.92 659.74,303.38 660.46,303.38 661.18,303.92 661.88,303.38 662.60,303.92 663.31,303.38 664.01,303.92 664.73,303.92 665.44,294.20 666.16,303.92 666.87,303.92 667.58,303.92 668.28,303.38 668.99,303.38 669.69,302.57 670.40,303.92 671.11,303.38 671.81,303.92 672.52,304.46 673.23,302.57 673.94,303.92 674.64,302.84 675.35,303.92 676.06,303.92 676.77,302.84 677.48,303.38 678.19,303.38 678.90,303.92 679.61,302.84 680.32,303.38 681.03,303.38 681.73,303.92 682.44,303.92 683.15,303.92 683.86,303.38 684.57,303.92 685.28,303.92 685.99,303.38 686.70,303.38 687.40,303.92 688.11,303.92 688.84,303.38 689.55,303.38 690.27,303.38 690.99,303.38 691.70,303.92 692.41,303.92 693.12,303.92 693.84,303.92 694.55,295.82 695.25,303.38 695.97,303.38 696.69,303.38 697.40,303.92 698.11,303.38 698.82,303.38 699.53,302.84 700.24,303.38 700.95,302.03 701.65,303.92 702.36,303.92 703.07,303.92 703.78,302.03 704.49,303.92 705.19,297.44 705.91,303.38 706.61,303.92 707.32,303.92 708.02,303.38 708.73,303.92 709.44,303.92 710.16,303.92 710.86,303.92 711.57,303.38 712.28,303.92 712.99,300.41 713.69,303.38 714.41,303.38 715.11,303.92 715.83,300.41 716.54,303.38 717.24,303.92 717.95,303.38 718.66,303.92 719.37,303.92 720.07,303.92 720.79,303.92 721.52,302.57 722.24,303.38 722.96,303.92 723.68,303.92 724.41,302.30 725.13,303.92 725.85,303.92 726.59,304.46 727.31,303.92 728.04,302.03 728.75,303.92 729.45,303.92 730.17,302.84 730.88,303.92 731.59,303.92 732.30,303.38 733.02,303.38 733.73,300.95 734.44,303.38 735.15,303.38 735.85,303.38 736.56,292.31 737.27,303.92 737.97,303.38 738.68,302.84 739.39,303.92 740.10,303.92 740.81,303.92 741.53,303.92 742.24,303.92 742.95,303.92 743.66,303.38 744.37,303.38 745.08,303.38 745.79,303.92 746.50,303.92 747.20,292.31 747.91,303.92 748.63,303.92 749.33,303.92 750.04,303.38 750.75,303.92 751.46,302.84 752.17,303.38 752.93,303.92 753.66,303.92 754.37,304.46 755.08,302.84 755.78,303.92 756.50,303.92 757.22,302.84 757.93,303.38 758.64,303.92 759.34,303.92 760.04,303.38 760.75,303.38 761.46,303.92 762.17,303.92 762.88,302.84 763.58,303.92 764.30,302.84 765.01,303.92 765.73,302.84 766.43,303.92 767.14,302.84 767.84,303.92 768.56,302.84 769.27,303.92 769.97,303.92 770.68,303.92 771.40,303.38 772.11,303.38 772.82,303.92 773.56,302.84 774.27,303.38 774.98,303.38 775.68,304.46 776.39,303.38 777.10,303.38 777.82,303.92 778.53,303.38 779.23,302.84 779.95,302.30 780.66,303.92 781.38,303.38 782.09,303.38 782.81,303.92 783.51,302.03 784.22,303.38 784.93,303.38 785.64,303.38 786.35,303.38 787.05,303.92 787.78,300.95 788.48,302.84 789.19,302.84 789.90,303.92 790.61,303.38 791.32,303.92 792.03,303.92 792.73,302.84 793.44,303.92 794.15,303.92 794.86,303.92 795.57,303.92 796.28,302.84 796.99,303.38 797.70,303.38 798.41,304.46 799.12,303.38 799.83,302.84 800.53,303.92 801.23,303.92 801.94,301.49 802.66,302.84 803.36,303.38 804.09,302.84 804.80,303.92 805.51,303.92 806.23,302.84 806.93,303.92 807.65,301.49 808.42,302.57 809.14,303.38 809.85,303.92 810.57,302.84 811.29,303.92 812.00,300.95 812.70,303.38 813.41,303.38 814.12,302.84 814.83,303.38 815.55,303.38 816.26,302.84 816.97,303.38 817.69,303.92 818.40,292.85 819.12,303.38 819.82,303.92 820.53,302.84 821.25,303.92 821.96,303.92 822.66,303.38 823.37,303.38 824.09,303.38 824.80,303.92 825.51,302.57 826.22,303.38 826.94,303.38 827.65,303.92 828.37,303.38 829.08,303.92 829.79,303.92 830.50,302.84 831.21,303.92 831.92,303.38 832.63,303.92 833.33,304.46 834.04,303.38 834.75,303.92 835.46,303.92 836.18,302.84 836.88,303.92 837.59,303.92 838.30,303.92 839.02,303.38 839.72,303.38 840.44,303.92 841.14,303.92 841.87,303.38 842.58,292.58 843.27,293.12 843.96,302.84 844.67,302.30 845.38,303.92 846.09,299.87 846.81,303.92 847.52,302.84 848.23,301.49 848.95,303.92 849.67,303.38 850.37,303.38 851.08,303.92 851.78,303.38 852.49,302.84 853.19,303.92 853.90,303.92 854.61,302.84 855.32,303.92 856.03,303.38 856.73,302.84 857.44,302.57 858.15,303.38 858.86,302.57 859.57,302.57 860.27,303.38 860.98,302.30 861.67,303.92 862.39,303.92 863.10,303.38 863.81,303.92 864.52,303.38 865.24,303.38 865.95,303.38 866.65,303.38 867.37,303.92 868.08,303.92 868.79,303.92 869.49,303.92 870.26,302.84 870.97,302.03 871.68,303.38 872.40,303.92 873.11,303.38 873.81,303.92 874.52,303.38 875.24,303.92 875.94,302.84 876.65,303.92 877.36,303.92 878.07,304.46 878.78,303.92 879.50,303.38 880.21,302.57 880.92,303.38 881.62,302.84 882.34,304.46 883.04,303.92 883.76,303.38 884.47,302.84 885.19,301.49 885.92,303.38 886.63,303.92 887.34,303.92 888.05,303.92 888.76,302.03 889.48,303.92 890.19,303.38 890.89,303.92 891.60,303.38 892.31,303.92 893.02,303.92 893.73,276.92 894.44,304.46 895.15,303.38 895.87,303.38 896.58,303.38 897.28,303.92 897.99,303.38 898.69,301.49 899.41,304.46 900.11,303.92 900.82,303.92 901.53,303.38 902.23,303.38 902.94,303.92 903.64,303.38 904.35,302.84 905.05,302.03 905.76,302.84 906.47,303.38 907.18,303.38 907.88,303.38 908.59,303.92 909.29,303.92 910.00,304.46 910.71,303.92 911.41,303.38 912.12,303.38 912.82,303.92 913.55,303.38 914.25,303.92 914.95,303.92 915.67,304.46 916.41,303.38 917.11,303.92 917.82,302.57 918.54,303.92 919.25,303.92 919.96,303.38 920.67,303.38 921.38,303.92 922.09,303.38 922.80,303.92 923.50,304.46 924.21,303.38 924.92,303.92 925.63,302.84 926.34,303.92 927.04,303.92 927.75,302.57 928.46,304.46 929.16,303.38 929.87,302.84 930.59,303.92 931.33,303.92 932.04,303.38 932.74,303.38 933.44,303.38 934.14,303.92 934.87,303.38 935.57,303.92 936.28,303.38 936.99,303.38 937.70,303.92 938.41,303.38 939.12,303.38 939.84,303.92 940.55,303.38 941.25,302.84 941.96,303.92 942.67,303.38 943.38,303.38 944.09,303.92 944.79,302.84 945.49,303.92 946.20,303.92 946.91,303.38 947.62,303.92 948.33,303.92 949.03,303.92 949.75,303.38 950.45,303.38 951.16,299.87 951.87,303.38 952.58,304.46 953.29,303.38 953.99,303.38 954.71,303.92 955.41,303.92 956.12,303.92 956.83,303.38 957.54,304.46 958.24,303.38 958.95,303.38 959.66,303.92 960.36,303.92 961.09,303.92 961.80,303.38 962.51,303.38 963.22,302.84 963.93,303.92 964.64,303.92 965.36,303.92 966.07,303.92 966.83,303.38 967.54,303.92 968.30,302.84 969.01,302.84 969.71,304.46 970.42,303.38 971.13,303.92 971.83,303.92 972.54,302.57 973.25,302.84 973.96,303.92 974.67,303.92 975.38,303.92 976.08,303.38 976.79,303.38 977.50,303.92 978.21,303.38 978.91,303.92 979.62,303.38 980.32,303.38 981.04,302.84 981.75,303.38 982.46,303.38 983.16,303.92 983.86,300.95 984.58,304.46 985.28,303.92 986.00,303.92 986.71,303.92 987.42,302.84 988.13,300.68 988.84,303.92 989.54,303.92 990.24,303.92 990.96,303.38 991.66,303.38 992.36,302.84 993.07,303.38 993.77,303.92 994.47,303.92 995.19,303.38 995.89,303.92 996.60,303.92 997.31,303.38 998.05,303.92 998.76,294.20 999.47,302.84 1000.17,303.92 1000.88,303.38 1001.57,303.38 1002.28,303.92 1002.99,303.38 1003.70,302.84 1004.40,303.92 1005.11,303.38 1005.81,303.92 1006.51,302.30 1007.22,293.66 1007.93,303.38 1008.63,303.38 1009.34,302.84 1010.06,303.38 1010.76,302.84 1011.46,303.92 1012.18,303.38 1012.89,303.38 1013.59,303.92 1014.30,303.92 1015.01,303.38 1015.72,303.92 1016.44,303.92 1017.14,303.38 1017.86,303.38 1018.56,303.92 1019.27,302.57 1019.98,304.46 1020.69,303.92 1021.39,303.92 1022.12,303.92 1022.83,303.92 1023.55,303.92 1024.26,297.71 1024.97,303.92 1025.68,303.92 1026.38,303.38 1027.09,303.92 1027.81,303.92 1028.52,303.38 1029.21,303.92 1029.93,302.84 1030.64,303.92 1031.35,303.92 1032.07,303.92 1032.79,292.31 1033.51,304.46 1034.26,303.92 1034.98,303.92 1035.69,303.38 1036.40,303.92 1037.10,303.92 1037.81,303.92 1038.52,303.38 1039.23,303.92 1039.94,303.38 1040.65,303.38 1041.36,303.92 1042.07,303.92 1042.77,303.38 1043.48,303.38 1044.19,303.92 1044.91,304.46 1045.63,303.38 1046.35,303.38 1047.06,303.92 1047.78,302.84 1048.52,303.38 1049.24,302.84 1049.99,302.57 1050.70,304.46 1051.41,303.92 1052.12,302.84 1052.83,303.92 1053.54,302.57 1054.25,303.38 1054.95,303.92 1055.66,303.38 1056.37,303.92 1057.08,303.38 1057.80,304.46 1058.51,303.92 1059.22,303.92 1059.95,303.92 1060.77,303.92 1061.48,302.84 1062.18,303.92 1062.89,303.38 1063.59,303.92 1064.30,292.58 1064.99,303.92 1065.65,303.92 1066.29,303.38 1067.05,303.92 1067.72,302.84 1068.36,303.92 1069.09,303.38 1069.71,302.84 1070.41,303.38 1071.12,303.92 1071.83,292.85 1072.53,303.38 1073.24,302.84 1073.95,303.92 1074.65,302.57 1075.35,303.92 1076.07,303.92 1076.77,302.84 1077.47,303.92 1078.18,302.84 1078.89,303.92 1079.59,302.84 1080.30,303.92 1081.00,302.84 1081.70,303.38 1082.40,302.57 1083.11,302.84 1083.82,303.92 1084.52,303.92 1085.23,302.03 1085.95,304.46 1086.65,303.92 1087.35,303.38 1088.06,303.92 1088.76,302.84 1089.46,303.92 1090.17,303.92 1090.87,303.92 1091.57,303.38 1092.28,303.92 1092.98,303.92 1093.69,303.92 1094.39,303.92 1095.10,303.92 1095.81,303.92 1096.51,303.38 1097.22,303.38 1097.92,304.46 1098.63,303.92 1099.34,303.92 1100.04,303.92 1100.75,302.84 1101.44,303.92 1102.15,303.92 1102.85,303.92 1103.56,303.38 1104.26,303.92 1104.96,303.92 1105.68,302.84 1106.39,303.38 1107.10,302.84 1107.80,302.84 1108.51,303.92 1109.22,303.92 1109.93,303.92 1110.63,302.84 1111.34,303.92 1112.05,303.92 1112.75,303.38 1113.46,303.38 1114.16,302.84 1114.87,303.38 1115.58,303.38 1116.28,302.84 1116.99,303.92 1117.69,303.92 1118.40,302.84 1119.11,303.38 1119.81,303.92 1120.52,302.57 1121.23,303.92 1121.93,303.92 1122.64,303.92 1123.35,303.92 1124.05,303.92 1124.83,303.92 1125.53,303.92 1126.24,303.92 1126.94,303.38 1127.65,303.38 1128.36,303.92 1129.05,303.92 1129.77,303.38 1130.76,303.92 1131.46,303.92 1132.45,303.38 1133.15,303.38 1133.86,303.38 1134.57,303.38 1135.28,303.38 1135.98,303.92 1136.68,304.46 1137.39,303.92 1138.09,302.03 1138.80,302.84 1139.50,304.46 1140.20,303.92 1140.90,303.92 1141.62,303.92 1142.33,303.92 1143.04,303.92 1143.75,303.38 1144.46,304.46 1145.16,303.92 1145.88,303.38 1146.58,302.57 1147.28,303.92 1147.99,303.92 1148.70,303.92 1149.41,302.84 1150.11,303.38 1150.83,303.92 1151.54,303.92 1152.24,303.38 1152.95,303.92 1153.66,302.03 1154.38,303.38 1155.11,303.92 1155.83,300.95 1156.56,302.84 1157.27,303.92 1157.97,303.92 1158.69,303.92 1159.40,303.38 1160.10,303.92 1160.81,303.38 1161.51,303.38 1162.22,302.84 1162.94,303.38 1163.65,303.38 1164.36,303.92 1165.07,302.84 1165.78,303.38 1166.49,302.84 1167.20,303.92 1167.91,303.92 1168.62,303.38 1169.33,303.92 1170.04,303.38 1170.75,303.92 1171.47,303.92 1172.18,303.92 1172.89,302.57 1173.60,303.92 1174.31,302.84 1175.02,303.92 1175.72,303.38 1176.45,303.38 1177.17,302.84 1177.87,298.25 1178.58,303.92 1179.29,303.38 1180.00,303.38"/>
<rect x="70" y="332" width="12" height="12" fill="#d62728" fill-opacity="0.95"/>
<text x="88" y="342" font-size="11" fill="#333" font-family="Arial, Helvetica, sans-serif">nsc1.utdallas.edu</text>
<rect x="350" y="332" width="12" height="12" fill="#d62728" fill-opacity="0.80"/>
<text x="368" y="342" font-size="11" fill="#333" font-family="Arial, Helvetica, sans-serif">nsc2.utdallas.edu</text>
<rect x="630" y="332" width="12" height="12" fill="#d62728" fill-opacity="0.65"/>
<text x="648" y="342" font-size="11" fill="#333" font-family="Arial, Helvetica, sans-serif">nsc3.utdallas.edu</text>
<rect x="910" y="332" width="12" height="12" fill="#d62728" fill-opacity="0.50"/>
<text x="928" y="342" font-size="11" fill="#333" font-family="Arial, Helvetica, sans-serif">nsc4.utdallas.edu</text>
</svg>