<?xml version="1.0" encoding="UTF-8"?>
<svg xmlns="http://www.w3.org/2000/svg" width="1200" height="360" viewBox="0 0 1200 360" role="img" aria-label="CPU Utilization (%)">
<rect width="100%" height="100%" fill="#ffffff"/>
<text x="600.0" y="22" text-anchor="middle" font-size="16" font-family="Arial, Helvetica, sans-serif" font-weight="bold">CPU Utilization (%)</text>
<line x1="70" y1="35.00" x2="1180" y2="35.00" stroke="#e3e3e3" stroke-width="1"/>
<text x="62" y="39.00" text-anchor="end" font-size="11" fill="#444" font-family="Arial, Helvetica, sans-serif">100</text>
<line x1="70" y1="89.00" x2="1180" y2="89.00" stroke="#e3e3e3" stroke-width="1"/>
<text x="62" y="93.00" text-anchor="end" font-size="11" fill="#444" font-family="Arial, Helvetica, sans-serif">80</text>
<line x1="70" y1="143.00" x2="1180" y2="143.00" stroke="#e3e3e3" stroke-width="1"/>
<text x="62" y="147.00" text-anchor="end" font-size="11" fill="#444" font-family="Arial, Helvetica, sans-serif">60</text>
<line x1="70" y1="197.00" x2="1180" y2="197.00" stroke="#e3e3e3" stroke-width="1"/>
<text x="62" y="201.00" text-anchor="end" font-size="11" fill="#444" font-family="Arial, Helvetica, sans-serif">40</text>
<line x1="70" y1="251.00" x2="1180" y2="251.00" stroke="#e3e3e3" stroke-width="1"/>
<text x="62" y="255.00" text-anchor="end" font-size="11" fill="#444" font-family="Arial, Helvetica, sans-serif">20</text>
<line x1="70" y1="305.00" x2="1180" y2="305.00" stroke="#e3e3e3" stroke-width="1"/>
<text x="62" y="309.00" text-anchor="end" font-size="11" fill="#444" font-family="Arial, Helvetica, sans-serif">0</text>
<line x1="70" y1="35" x2="70" y2="305" stroke="#999"/>
<line x1="70" y1="305" x2="1180" y2="305" stroke="#999"/>
<text x="70.00" y="323" text-anchor="middle" font-size="10" fill="#444" font-family="Arial, Helvetica, sans-serif">2026-02-11 16:38</text>
<text x="347.50" y="323" text-anchor="middle" font-size="10" fill="#444" font-family="Arial, Helvetica, sans-serif">2026-02-12 06:58</text>
<text x="625.00" y="323" text-anchor="middle" font-size="10" fill="#444" font-family="Arial, Helvetica, sans-serif">2026-02-12 21:18</text>
<text x="902.50" y="323" text-anchor="middle" font-size="10" fill="#444" font-family="Arial, Helvetica, sans-serif">2026-02-13 11:38</text>
<text x="1180.00" y="323" text-anchor="middle" font-size="10" fill="#444" font-family="Arial, Helvetica, sans-serif">2026-02-14 01:58</text>
<polyline fill="none" stroke="#d62728" stroke-opacity="0.95" stroke-width="2" points="71.74,304.46 73.48,298.79 75.21,296.90 76.95,303.92 78.71,304.73 80.43,304.46 82.17,303.92 84.05,304.73 85.78,303.92 87.50,304.46 89.23,303.92 90.99,304.46 92.72,304.46 94.44,303.92 97.57,304.46 100.26,303.92 102.01,304.46 103.79,303.92 105.52,300.95 107.26,304.73 108.96,278.27 110.71,303.92 112.44,304.46 114.19,294.74 115.93,304.46 117.70,303.92 119.45,301.49 121.19,303.92 123.01,295.28 124.76,294.20 126.49,303.65 128.27,304.46 130.01,304.46 131.75,303.92 133.54,303.65 135.26,302.30 137.00,303.92 138.76,304.46 140.48,303.92 142.22,304.73 143.93,304.73 145.66,304.46 147.40,303.38 149.13,304.46 150.90,303.92 152.66,303.38 154.37,304.46 156.10,297.71 157.86,297.44 159.59,48.23 161.58,303.92 163.31,303.92 165.05,304.46 166.77,303.65 168.49,303.65 170.21,304.46 171.94,304.46 173.68,303.92 175.41,304.46 177.18,303.92 178.91,304.46 180.63,304.46 182.38,299.60 184.13,303.65 185.86,303.92 187.61,304.73 189.32,303.92 191.04,304.73 192.77,304.46 194.49,304.46 196.22,304.46 197.96,303.92 199.68,304.73 201.41,303.92 203.16,304.46 204.87,304.73 206.62,303.38 208.34,303.38 210.07,303.65 211.85,304.46 213.58,303.65 215.31,304.73 217.06,304.46 218.78,304.46 220.52,304.73 222.26,303.92 223.97,303.92 225.69,304.46 227.44,304.73 229.19,299.60 230.92,303.65 232.67,304.46 234.38,304.73 236.12,303.65 237.85,303.92 239.58,304.46 241.30,304.46 243.04,303.92 244.76,303.92 246.50,303.92 248.24,304.46 249.98,303.92 251.71,303.92 253.47,298.79 255.22,303.65 256.95,304.46 258.68,304.73 260.41,304.73 262.14,304.46 263.89,304.46 265.62,304.46 267.36,304.46 269.09,302.84 270.83,304.46 272.57,304.46 274.32,304.46 276.08,304.46 277.81,304.46 279.55,304.46 281.28,303.65 283.01,304.73 284.74,303.38 286.49,304.46 288.37,304.46 290.10,304.73 291.86,303.92 293.59,303.92 295.31,304.46 297.03,299.87 298.73,304.46 300.47,304.73 302.20,295.01 303.93,304.46 305.66,303.92 307.39,303.92 309.12,303.92 310.84,304.46 312.61,303.65 314.34,304.46 316.07,304.46 317.80,304.46 319.53,303.92 321.26,303.92 323.00,303.92 324.74,304.73 326.48,304.46 328.22,304.46 329.95,303.92 331.67,304.46 333.39,303.65 335.13,303.92 336.86,303.65 338.60,304.73 340.35,304.46 342.09,304.46 343.82,304.46 345.57,303.11 347.31,303.38 349.03,304.46 350.77,304.46 352.51,304.46 354.27,303.65 356.03,303.92 357.76,304.46 359.50,297.71 361.22,294.20 362.94,303.92 364.67,304.46 366.41,303.65 368.13,297.71 369.85,304.46 371.57,303.92 373.33,304.46 375.06,304.46 376.81,303.92 378.54,303.38 380.31,304.73 382.04,303.92 383.77,303.38 385.50,303.92 387.22,304.46 389.11,304.46 390.88,303.92 392.60,304.73 394.33,304.46 396.04,304.46 397.78,304.73 399.51,304.46 401.25,304.73 403.00,35.00 404.72,303.65 406.45,303.11 408.19,297.17 409.96,304.46 411.69,304.46 413.41,304.46 415.14,303.92 416.90,303.65 418.66,304.46 420.44,303.11 422.16,304.73 423.90,304.46 425.63,303.92 427.36,304.73 429.10,304.46 430.84,303.92 432.60,304.73 434.32,304.46 436.04,304.46 437.80,304.46 439.53,303.92 441.26,303.65 443.00,304.46 444.76,303.65 446.50,304.46 448.22,301.76 449.94,302.03 451.66,304.46 453.40,304.46 455.14,304.46 456.86,35.00 458.59,303.65 460.31,303.92 462.04,304.46 463.79,304.46 465.52,303.65 467.27,304.46 469.02,304.73 470.76,304.46 472.51,304.73 474.23,35.00 475.98,304.73 477.71,303.65 479.44,304.46 481.18,303.65 482.96,304.73 484.69,300.68 486.43,303.65 488.17,303.92 489.90,304.46 491.64,304.46 493.35,304.46 495.09,304.46 496.83,304.73 498.57,304.73 500.31,304.73 502.04,303.65 503.79,303.92 505.52,303.92 507.26,304.73 509.01,35.00 510.76,304.46 512.48,303.92 514.22,304.73 515.96,303.92 517.72,304.73 519.46,303.92 521.19,304.46 522.92,303.92 524.85,304.73 526.59,304.46 528.33,303.65 530.07,304.46 531.82,304.46 533.56,303.92 535.30,304.46 537.04,303.65 538.76,304.73 540.55,295.28 542.31,297.17 544.03,304.46 545.76,304.46 547.50,304.46 549.24,304.73 550.97,304.46 552.77,303.65 554.51,304.46 556.24,303.92 558.00,304.73 559.87,304.73 561.61,304.73 563.79,303.65 566.73,304.46 568.50,303.92 570.27,303.92 572.01,304.73 573.71,304.46 575.43,303.92 577.19,303.65 578.94,304.46 580.68,304.73 582.49,303.92 584.29,35.00 586.13,303.65 587.87,304.46 589.60,304.73 591.34,303.92 593.10,303.92 594.86,303.65 596.61,304.46 598.34,303.92 600.07,304.46 601.87,304.46 603.62,304.46 605.34,304.46 607.08,304.46 608.84,303.92 610.64,304.46 612.39,303.92 614.13,303.92 615.91,303.65 617.57,303.92 619.30,303.65 621.07,303.92 622.80,303.92 624.56,303.92 626.35,303.11 628.09,303.92 629.82,303.92 631.58,304.46 633.33,304.46 635.07,303.65 636.80,304.73 638.52,299.06 640.27,304.73 642.01,304.46 643.73,48.23 645.80,48.50 647.85,48.77 649.90,48.50 651.92,48.23 653.90,48.50 655.90,48.50 657.95,48.77 659.98,304.46 661.72,304.46 663.43,304.46 665.16,303.92 666.90,304.46 668.63,304.46 670.35,303.92 672.08,304.19 673.81,303.65 675.54,304.73 677.27,303.92 679.00,303.92 680.73,304.46 682.46,304.73 684.18,304.73 685.91,304.46 687.64,304.46 689.38,304.46 691.09,303.92 692.83,304.46 694.58,304.73 696.30,303.65 698.02,304.46 699.74,35.00 701.47,304.46 703.21,304.46 704.95,304.73 706.67,304.46 708.41,304.73 710.15,35.00 711.87,304.46 713.60,304.46 715.34,304.73 717.06,303.92 718.79,303.92 720.50,303.92 722.21,303.38 723.94,304.73 725.66,303.65 727.39,304.46 729.11,303.92 730.84,304.46 732.57,304.73 734.28,303.92 736.00,303.38 737.70,304.73 739.49,303.65 741.36,304.73 743.10,304.73 744.84,304.46 746.56,303.92 748.29,303.65 750.01,297.44 751.73,297.71 753.45,48.50 755.50,48.50 757.53,48.50 759.55,48.23 761.58,48.50 763.62,48.23 765.65,48.50 767.72,48.77 769.82,295.82 771.71,297.17 773.57,304.73 775.31,303.92 777.06,303.92 778.80,304.73 780.51,303.92 782.24,304.46 783.98,304.46 785.70,304.46 787.43,304.46 789.15,304.46 790.89,304.73 792.63,303.11 794.35,304.73 796.11,303.92 797.84,304.46 799.56,304.73 801.08,304.46 802.87,303.92 804.60,304.73 806.38,304.73 808.11,304.73 809.83,303.92 811.58,35.00 813.33,304.73 815.07,304.73 816.82,304.46 818.57,304.73 820.33,303.65 822.05,304.46 823.77,304.73 825.51,304.73 827.22,304.73 828.95,35.00 830.67,303.92 832.42,303.92 834.15,303.92 835.88,303.65 837.62,304.46 839.34,304.46 841.08,303.92 842.81,304.46 844.56,304.46 846.30,304.73 848.04,303.92 849.76,301.22 851.51,304.46 853.25,304.46 855.04,304.46 856.76,303.65 858.48,304.46 860.21,304.73 861.93,304.46 863.66,300.68 865.41,303.92 867.13,304.73 868.85,304.46 870.59,304.73 872.31,303.38 874.04,303.92 875.79,304.73 877.53,304.73 879.26,303.92 881.36,303.92 883.14,303.92 884.92,303.65 886.66,304.46 888.40,302.84 890.16,304.46 891.87,304.46 893.60,303.92 895.35,303.92 897.10,303.11 898.82,304.73 900.57,304.46 902.31,304.46 904.04,304.46 905.84,304.73 907.60,304.73 909.34,304.46 911.07,304.73 912.81,304.73 914.54,302.57 916.27,302.84 918.00,301.22 919.81,303.92 921.55,304.46 923.30,304.46 925.03,304.46 926.76,303.92 928.51,304.73 930.24,304.46 931.97,304.46 933.72,303.92 935.46,304.46 937.20,304.46 938.94,304.46 940.66,297.44 942.40,303.92 944.13,304.46 945.90,304.46 947.64,300.68 949.36,303.92 951.09,289.07 952.82,303.65 954.59,302.03 956.33,302.84 958.42,302.84 960.20,304.46 961.93,304.46 963.67,303.92 965.40,304.73 967.14,303.92 968.88,303.92 970.62,303.65 972.39,304.46 974.12,303.92 975.85,304.73 977.57,304.46 979.31,304.46 981.04,303.92 982.77,304.73 984.52,304.46 986.25,304.73 987.97,304.46 989.70,304.73 991.44,304.73 993.19,303.92 994.92,304.46 996.65,304.73 998.40,304.46 1000.16,304.46 1001.88,304.73 1003.61,304.46 1005.36,303.38 1007.14,303.92 1008.86,304.73 1010.60,304.73 1012.35,303.92 1014.09,303.92 1015.81,304.46 1017.56,303.92 1019.30,303.92 1021.08,304.73 1022.81,303.92 1024.54,304.46 1026.26,303.92 1027.99,304.46 1029.72,304.73 1031.46,303.92 1033.19,304.73 1034.94,304.46 1036.70,304.73 1038.45,298.79 1040.15,303.92 1041.91,303.92 1043.63,304.46 1045.37,304.46 1047.10,303.65 1048.84,303.65 1050.56,304.73 1052.32,303.92 1054.06,303.92 1055.79,235.88 1057.54,236.69 1059.30,236.69 1061.04,236.69 1062.77,236.15 1064.53,232.10 1066.48,227.51 1068.38,228.59 1070.24,222.65 1072.00,236.42 1073.81,236.15 1075.55,235.61 1077.29,236.69 1079.01,236.69 1080.63,236.15 1082.44,235.61 1084.18,236.15 1085.94,236.42 1087.65,233.18 1089.39,236.69 1091.12,236.42 1092.87,236.15 1094.59,235.61 1096.34,235.88 1098.07,236.42 1099.81,236.42 1101.55,236.96 1103.30,236.42 1105.05,235.61 1106.81,236.69 1108.55,236.15 1110.29,236.42 1112.03,242.63 1113.80,255.86 1115.54,236.69 1117.26,235.88 1118.99,236.15 1120.74,236.42 1122.47,235.88 1124.20,236.15 1125.94,236.96 1127.68,236.15 1129.44,236.69 1131.16,236.96 1132.89,236.15 1134.64,236.96 1136.38,236.15 1138.13,236.42 1139.87,234.53 1141.60,236.15 1143.34,236.69 1145.08,236.69 1146.83,235.34 1148.58,236.15 1150.33,236.15 1152.07,235.61 1153.81,236.69 1155.56,236.96 1157.29,235.61 1159.05,232.91 1160.84,234.26 1162.58,236.42 1164.33,236.42 1166.06,236.15 1167.80,236.96 1169.54,236.15 1171.28,236.69 1173.03,236.96 1174.77,234.53 1176.51,236.42 1178.25,236.69 1180.00,236.42"/>
<polyline fill="none" stroke="#d62728" stroke-opacity="0.80" stroke-width="2" points="70.00,303.38 71.74,304.19 73.48,302.57 75.21,303.38 76.95,304.19 78.71,287.72 80.43,303.38 82.17,304.19 84.05,304.19 85.78,303.38 87.50,303.38 89.23,304.19 90.99,304.19 92.72,304.19 94.44,304.19 97.57,304.19 100.26,302.57 102.01,304.19 103.79,304.19 105.52,304.19 107.26,303.38 108.96,303.38 110.71,304.19 112.44,302.57 114.19,302.57 115.93,303.38 117.70,303.38 119.45,304.19 121.19,303.38 123.01,35.00 124.76,303.38 126.49,35.00 128.27,35.00 130.01,303.38 131.75,304.19 133.54,35.00 135.26,303.38 137.00,302.57 138.76,304.19 140.48,303.38 142.22,303.38 143.93,302.57 145.66,304.19 147.40,303.38 149.13,303.38 150.90,302.57 152.66,303.38 154.37,35.00 156.10,303.38 157.86,304.19 159.59,304.19 161.58,302.57 163.31,35.00 165.05,304.19 166.77,303.38 168.49,304.19 170.21,303.38 171.94,303.38 173.68,304.19 175.41,35.00 177.18,304.19 178.91,304.19 180.63,304.19 182.38,303.38 184.13,304.19 185.86,302.57 187.61,304.19 189.32,302.57 191.04,302.57 192.77,303.38 194.49,288.80 196.22,302.57 197.96,304.19 199.68,304.19 201.41,303.38 203.16,304.19 204.87,300.14 206.62,304.19 208.34,304.19 210.07,304.19 211.85,35.00 213.58,35.00 215.31,302.57 217.06,35.00 218.78,35.00 220.52,303.38 222.26,304.19 223.97,35.00 225.69,304.19 227.44,304.19 229.19,304.19 230.92,304.19 232.67,303.38 234.38,303.38 236.12,304.19 237.85,304.19 239.58,303.38 241.30,286.91 243.04,303.38 244.76,304.19 246.50,304.19 248.24,304.19 249.98,303.38 251.71,304.19 253.47,304.19 255.22,303.38 256.95,302.57 258.68,302.57 260.41,304.19 262.14,302.57 263.89,304.19 265.62,304.19 267.36,304.19 269.09,35.00 270.83,304.19 272.57,304.19 274.32,302.57 276.08,35.00 277.81,35.00 279.55,303.38 281.28,304.19 283.01,303.38 284.74,304.19 286.49,304.19 288.37,302.57 290.10,304.19 291.86,35.00 293.59,35.00 295.31,302.57 297.03,304.19 298.73,304.19 300.47,303.38 302.20,35.00 303.93,303.38 305.66,35.00 307.39,304.19 309.12,304.19 310.84,304.19 312.61,303.38 314.34,303.38 316.07,304.19 317.80,304.19 319.53,295.28 321.26,35.00 323.00,303.38 324.74,35.00 326.48,35.00 328.22,302.57 329.95,304.19 331.67,299.33 333.39,304.19 335.13,304.19 336.86,304.19 338.60,303.38 340.35,303.38 342.09,303.38 343.82,302.57 345.57,303.38 347.31,304.19 349.03,303.38 350.77,304.19 352.51,303.38 354.27,304.19 356.03,303.38 357.76,303.38 359.50,302.57 361.22,303.38 362.94,304.19 364.67,303.38 366.41,35.00 368.13,304.19 369.85,303.38 371.57,302.57 373.33,304.19 375.06,304.19 376.81,303.38 378.54,303.38 380.31,304.19 382.04,35.00 383.77,303.38 385.50,35.00 387.22,302.57 389.11,303.38 390.88,304.19 392.60,35.00 394.33,303.38 396.04,35.00 397.78,304.19 399.51,304.19 401.25,35.00 403.00,304.19 404.72,302.57 406.45,302.57 408.19,303.38 409.96,35.00 411.69,302.57 413.41,304.19 415.14,301.76 416.90,303.38 418.66,303.38 420.44,304.19 422.16,303.38 423.90,303.38 425.63,304.19 427.36,304.19 429.10,303.38 430.84,304.19 432.60,304.19 434.32,303.38 436.04,35.00 437.80,304.19 439.53,303.38 441.26,304.19 443.00,304.19 444.76,304.19 446.50,35.00 448.22,35.00 449.94,302.57 451.66,302.57 453.40,304.19 455.14,303.38 456.86,302.57 458.59,302.57 460.31,35.00 462.04,304.19 463.79,35.00 465.52,303.38 467.27,35.00 469.02,303.38 470.76,303.38 472.51,303.38 474.23,35.00 475.98,304.19 477.71,302.57 479.44,303.38 481.18,304.19 482.96,303.38 484.69,35.00 486.43,303.38 488.17,304.19 489.90,303.38 491.64,304.19 493.35,35.00 495.09,302.57 496.83,304.19 498.57,304.19 500.31,303.38 502.04,303.38 503.79,304.19 505.52,303.38 507.26,304.19 509.01,304.19 510.76,304.19 512.48,303.38 514.22,302.57 515.96,304.19 517.72,35.00 519.46,295.28 521.19,303.38 522.92,302.57 524.85,303.38 526.59,301.76 528.33,35.00 530.07,304.19 531.82,303.38 533.56,304.19 535.30,304.19 537.04,299.33 538.76,304.19 540.55,303.38 542.31,302.57 544.03,303.38 545.76,302.57 547.50,304.19 549.24,304.19 550.97,304.19 552.77,302.57 554.51,303.38 556.24,303.38 558.00,35.00 559.87,303.38 561.61,303.38 563.79,304.19 566.73,302.57 568.50,303.38 570.27,303.38 572.01,303.38 573.71,304.19 575.43,303.38 577.19,304.19 578.94,304.19 580.68,303.38 582.49,304.19 584.29,304.19 586.13,304.19 587.87,304.19 589.60,302.57 591.34,35.00 593.10,304.19 594.86,302.57 596.61,303.38 598.34,303.38 600.07,303.38 601.87,304.19 603.62,304.19 605.34,303.38 607.08,304.19 608.84,303.38 610.64,304.19 612.39,303.38 614.13,304.19 615.91,287.18 617.57,288.53 619.30,301.76 621.07,302.57 622.80,303.38 624.56,35.00 626.35,35.00 628.09,303.38 629.82,303.38 631.58,304.19 633.33,304.19 635.07,35.00 636.80,304.19 638.52,35.00 640.27,303.38 642.01,303.38 643.73,302.57 645.80,303.38 647.85,303.38 649.90,300.95 651.92,303.38 653.90,302.57 655.90,304.19 657.95,304.19 659.98,35.00 661.72,303.38 663.43,303.38 665.16,304.19 666.90,304.19 668.63,302.57 670.35,303.38 672.08,304.19 673.81,303.38 675.54,303.38 677.27,304.19 679.00,303.38 680.73,304.19 682.46,303.38 684.18,303.38 685.91,304.19 687.64,303.38 689.38,35.00 691.09,304.19 692.83,304.19 694.58,303.38 696.30,304.19 698.02,304.19 699.74,35.00 701.47,303.38 703.21,304.19 704.95,304.19 706.67,304.19 708.41,302.57 710.15,35.00 711.87,303.38 713.60,287.72 715.34,304.19 717.06,304.19 718.79,303.38 720.50,301.76 722.21,303.38 723.94,304.19 725.66,302.57 727.39,303.38 729.11,303.38 730.84,303.38 732.57,303.38 734.28,304.19 736.00,303.38 737.70,302.57 739.49,304.19 741.36,303.38 743.10,303.38 744.84,303.38 746.56,303.38 748.29,304.19 750.01,304.19 751.73,304.19 753.45,304.19 755.50,303.38 757.53,303.38 759.55,304.19 761.58,302.57 763.62,304.19 765.65,303.38 767.72,302.57 769.82,304.19 771.71,303.38 773.57,303.38 775.31,303.38 777.06,302.57 778.80,35.00 780.51,35.00 782.24,304.19 783.98,303.38 785.70,35.00 787.43,35.00 789.15,303.38 790.89,304.19 792.63,304.19 794.35,304.19 796.11,303.38 797.84,304.19 799.56,304.19 801.08,304.19 802.87,304.19 804.60,287.72 806.38,303.38 808.11,302.57 809.83,303.38 811.58,303.38 813.33,304.19 815.07,304.19 816.82,303.38 818.57,302.57 820.33,304.19 822.05,303.38 823.77,302.57 825.51,304.19 827.22,301.76 828.95,304.19 830.67,304.19 832.42,303.38 834.15,303.38 835.88,304.19 837.62,303.38 839.34,301.76 841.08,304.19 842.81,304.19 844.56,304.19 846.30,35.00 848.04,303.38 849.76,304.19 851.51,304.19 853.25,304.19 855.04,304.19 856.76,35.00 858.48,35.00 860.21,302.57 861.93,304.19 863.66,35.00 865.41,304.19 867.13,303.38 868.85,302.57 870.59,302.57 872.31,304.19 874.04,303.38 875.79,304.19 877.53,303.38 879.26,301.76 881.36,304.19 883.14,304.19 884.92,304.19 886.66,302.57 888.40,304.19 890.16,304.19 891.87,304.19 893.60,303.38 895.35,304.19 897.10,303.38 898.82,35.00 900.57,302.57 902.31,304.19 904.04,302.57 905.84,304.19 907.60,303.38 909.34,304.19 911.07,303.38 912.81,35.00 914.54,302.57 916.27,303.38 918.00,304.19 919.81,304.19 921.55,304.19 923.30,304.19 925.03,303.38 926.76,304.19 928.51,304.19 930.24,304.19 931.97,304.19 933.72,304.19 935.46,304.19 937.20,302.57 938.94,304.19 940.66,303.38 942.40,304.19 944.13,304.19 945.90,304.19 947.64,304.19 949.36,35.00 951.09,304.19 952.82,301.76 954.59,217.79 956.33,304.19 958.42,35.00 960.20,303.38 961.93,302.57 963.67,304.19 965.40,303.38 967.14,304.19 968.88,303.38 970.62,304.19 972.39,304.19 974.12,303.38 975.85,35.00 977.57,35.00 979.31,304.19 981.04,302.57 982.77,304.19 984.52,304.19 986.25,304.19 987.97,303.38 989.70,304.19 991.44,302.57 993.19,304.19 994.92,35.00 996.65,35.00 998.40,303.38 1000.16,304.19 1001.88,303.38 1003.61,300.95 1005.36,304.19 1007.14,304.19 1008.86,304.19 1010.60,303.38 1012.35,303.38 1014.09,302.57 1015.81,35.00 1017.56,303.38 1019.30,35.00 1021.08,35.00 1022.81,303.38 1024.54,304.19 1026.26,302.57 1027.99,304.19 1029.72,304.19 1031.46,303.38 1033.19,303.38 1034.94,296.09 1036.70,304.19 1038.45,304.19 1040.15,304.19 1041.91,302.57 1043.63,35.00 1045.37,303.38 1047.10,304.19 1048.84,302.57 1050.56,302.57 1052.32,303.38 1054.06,35.00 1055.79,303.38 1057.54,303.38 1059.30,304.19 1061.04,304.19 1062.77,303.38 1064.53,304.19 1066.48,303.38 1068.38,303.38 1070.24,302.57 1072.00,304.19 1073.81,303.38 1075.55,303.38 1077.29,304.19 1079.01,35.00 1080.63,303.38 1082.44,287.18 1084.18,304.19 1085.94,286.37 1087.65,302.57 1089.39,304.19 1091.12,304.19 1092.87,304.19 1094.59,304.19 1096.34,304.19 1098.07,35.00 1099.81,303.38 1101.55,304.19 1103.30,35.00 1105.05,304.19 1106.81,304.19 1108.55,303.38 1110.29,304.19 1112.03,304.19 1113.80,303.38 1115.54,303.38 1117.26,304.19 1118.99,304.19 1120.74,304.19 1122.47,304.19 1124.20,302.57 1125.94,35.00 1127.68,35.00 1129.44,304.19 1131.16,303.38 1132.89,304.19 1134.64,304.19 1136.38,304.19 1138.13,304.19 1139.87,304.19 1141.60,301.76 1143.34,303.38 1145.08,302.57 1146.83,304.19 1148.58,35.00 1150.33,304.19 1152.07,304.19 1153.81,303.38 1155.56,35.00 1157.29,304.19 1159.05,304.19 1160.84,304.19 1162.58,35.00 1164.33,304.19 1166.06,304.19 1167.80,303.38 1169.54,303.38 1171.28,35.00 1173.03,35.00 1174.77,303.38 1176.51,304.19 1178.25,302.57 1180.00,302.57"/>
<polyline fill="none" stroke="#d62728" stroke-opacity="0.65" stroke-width="2" points="70.00,35.00 71.74,304.46 73.48,304.46 75.21,302.30 76.95,304.46 78.71,303.38 80.43,304.46 82.17,304.46 84.05,35.00 85.78,304.46 87.50,304.46 89.23,303.92 90.99,303.92 92.72,304.46 94.44,304.46 97.57,303.92 100.26,304.46 102.01,35.00 103.79,303.92 105.52,302.84 107.26,304.46 108.96,303.92 110.71,302.84 112.44,35.00 114.19,303.92 115.93,35.00 117.70,35.00 119.45,35.00 121.19,303.92 123.01,35.00 124.76,303.38 126.49,303.92 128.27,304.46 130.01,35.00 131.75,35.00 133.54,304.46 135.26,35.00 137.00,304.46 138.76,35.00 140.48,304.46 142.22,303.92 143.93,35.00 145.66,304.46 147.40,304.46 149.13,293.12 150.90,35.00 152.66,304.46 154.37,304.46 156.10,304.46 157.86,35.00 159.59,304.46 161.58,304.46 163.31,304.46 165.05,35.00 166.77,35.00 168.49,304.46 170.21,304.46 171.94,303.38 173.68,303.92 175.41,304.46 177.18,35.00 178.91,304.46 180.63,304.46 182.38,35.00 184.13,304.46 185.86,303.92 187.61,304.46 189.32,304.46 191.04,35.00 192.77,303.92 194.49,303.92 196.22,304.46 197.96,303.92 199.68,303.92 201.41,35.00 203.16,303.92 204.87,304.46 206.62,304.46 208.34,303.38 210.07,35.00 211.85,304.46 213.58,303.38 215.31,304.46 217.06,35.00 218.78,304.46 220.52,304.46 222.26,303.92 223.97,303.92 225.69,303.92 227.44,304.46 229.19,303.92 230.92,304.46 232.67,303.92 234.38,35.00 236.12,303.92 237.85,303.92 239.58,304.46 241.30,304.46 243.04,303.92 244.76,303.92 246.50,35.00 248.24,35.00 249.98,303.92 251.71,35.00 253.47,304.46 255.22,304.46 256.95,304.46 258.68,304.46 260.41,303.92 262.14,304.46 263.89,303.38 265.62,304.46 267.36,303.92 269.09,35.00 270.83,304.46 272.57,303.92 274.32,303.92 276.08,303.92 277.81,304.46 279.55,35.00 281.28,304.46 283.01,304.46 284.74,35.00 286.49,303.92 288.37,304.46 290.10,303.92 291.86,304.46 293.59,304.46 295.31,303.92 297.03,303.92 298.73,304.46 300.47,304.46 302.20,304.46 303.93,303.38 305.66,304.46 307.39,35.00 309.12,303.92 310.84,35.00 312.61,304.46 314.34,35.00 316.07,35.00 317.80,303.92 319.53,303.92 321.26,304.46 323.00,304.46 324.74,304.46 326.48,303.92 328.22,304.46 329.95,304.46 331.67,303.92 333.39,35.00 335.13,304.46 336.86,35.00 338.60,303.92 340.35,304.46 342.09,304.46 343.82,35.00 345.57,35.00 347.31,35.00 349.03,304.46 350.77,303.92 352.51,304.46 354.27,303.92 356.03,303.92 357.76,304.46 359.50,304.46 361.22,304.46 362.94,304.46 364.67,304.46 366.41,304.46 368.13,304.46 369.85,282.59 371.57,304.46 373.33,303.92 375.06,304.46 376.81,304.46 378.54,304.46 380.31,303.38 382.04,304.46 383.77,304.46 385.50,303.92 387.22,304.46 389.11,303.92 390.88,304.46 392.60,304.46 394.33,304.46 396.04,304.46 397.78,304.46 399.51,303.38 401.25,304.46 403.00,304.46 404.72,304.46 406.45,303.92 408.19,35.00 409.96,304.46 411.69,303.92 413.41,303.92 415.14,303.92 416.90,35.00 418.66,304.46 420.44,304.46 422.16,35.00 423.90,303.92 425.63,35.00 427.36,35.00 429.10,304.46 430.84,304.46 432.60,35.00 434.32,35.00 436.04,304.46 437.80,304.46 439.53,303.92 441.26,303.92 443.00,304.46 444.76,304.46 446.50,304.46 448.22,303.92 449.94,304.46 451.66,304.46 453.40,303.92 455.14,303.38 456.86,304.46 458.59,35.00 460.31,304.46 462.04,35.00 463.79,35.00 465.52,303.92 467.27,303.92 469.02,304.46 470.76,304.46 472.51,304.46 474.23,303.92 475.98,297.98 477.71,35.00 479.44,304.46 481.18,303.92 482.96,304.46 484.69,303.92 486.43,35.00 488.17,303.92 489.90,304.46 491.64,35.00 493.35,303.92 495.09,304.46 496.83,304.46 498.57,35.00 500.31,303.92 502.04,303.92 503.79,35.00 505.52,303.92 507.26,303.92 509.01,35.00 510.76,303.92 512.48,304.46 514.22,303.92 515.96,304.46 517.72,303.92 519.46,35.00 521.19,304.46 522.92,35.00 524.85,35.00 526.59,303.92 528.33,303.38 530.07,303.38 531.82,303.38 533.56,35.00 535.30,304.46 537.04,304.46 538.76,304.46 540.55,35.00 542.31,304.46 544.03,304.46 545.76,304.46 547.50,35.00 549.24,304.46 550.97,304.46 552.77,293.66 554.51,303.92 556.24,304.46 558.00,303.92 559.87,304.46 561.61,35.00 563.79,304.46 566.73,304.46 568.50,304.46 570.27,304.46 572.01,35.00 573.71,304.46 575.43,304.46 577.19,303.92 578.94,35.00 580.68,304.46 582.49,35.00 584.29,303.38 586.13,304.46 587.87,304.46 589.60,35.00 591.34,35.00 593.10,304.46 594.86,35.00 596.61,304.46 598.34,304.46 600.07,304.46 601.87,35.00 603.62,303.92 605.34,35.00 607.08,304.46 608.84,304.46 610.64,297.98 612.39,304.46 614.13,35.00 615.91,293.12 617.57,35.00 619.30,303.92 621.07,35.00 622.80,304.46 624.56,304.46 626.35,303.92 628.09,304.46 629.82,304.46 631.58,303.92 633.33,303.92 635.07,304.46 636.80,303.92 638.52,35.00 640.27,304.46 642.01,304.46 643.73,304.46 645.80,304.46 647.85,303.92 649.90,304.46 651.92,304.46 653.90,303.38 655.90,303.92 657.95,303.92 659.98,304.46 661.72,35.00 663.43,35.00 665.16,304.46 666.90,304.46 668.63,303.92 670.35,304.46 672.08,303.92 673.81,35.00 675.54,304.46 677.27,304.46 679.00,304.46 680.73,304.46 682.46,293.12 684.18,304.46 685.91,35.00 687.64,303.92 689.38,303.92 691.09,304.46 692.83,304.46 694.58,35.00 696.30,303.92 698.02,304.46 699.74,304.46 701.47,304.46 703.21,35.00 704.95,297.98 706.67,303.92 708.41,303.38 710.15,304.46 711.87,35.00 713.60,302.84 715.34,303.92 717.06,35.00 718.79,35.00 720.50,303.92 722.21,302.84 723.94,304.46 725.66,303.38 727.39,35.00 729.11,304.46 730.84,304.46 732.57,304.46 734.28,303.92 736.00,304.46 737.70,35.00 739.49,304.46 741.36,303.92 743.10,35.00 744.84,303.92 746.56,303.92 748.29,304.46 750.01,304.46 751.73,304.46 753.45,303.92 755.50,304.46 757.53,304.46 759.55,303.92 761.58,304.46 763.62,303.92 765.65,303.92 767.72,304.46 769.82,303.92 771.71,303.92 773.57,303.92 775.31,35.00 777.06,35.00 778.80,35.00 780.51,303.92 782.24,304.46 783.98,304.46 785.70,304.46 787.43,304.46 789.15,304.46 790.89,35.00 792.63,304.46 794.35,303.38 796.11,35.00 797.84,35.00 799.56,303.92 801.08,282.32 802.87,282.05 804.60,304.46 806.38,35.00 808.11,303.38 809.83,304.46 811.58,35.00 813.33,35.00 815.07,35.00 816.82,303.92 818.57,304.46 820.33,304.46 822.05,303.92 823.77,35.00 825.51,303.38 827.22,303.92 828.95,304.46 830.67,303.92 832.42,304.46 834.15,304.46 835.88,304.46 837.62,304.46 839.34,304.46 841.08,303.92 842.81,303.92 844.56,303.92 846.30,304.46 848.04,304.46 849.76,35.00 851.51,35.00 853.25,304.46 855.04,304.46 856.76,304.46 858.48,303.92 860.21,35.00 861.93,303.92 863.66,35.00 865.41,303.92 867.13,304.46 868.85,35.00 870.59,304.46 872.31,35.00 874.04,304.46 875.79,303.92 877.53,304.46 879.26,302.84 881.36,303.92 883.14,303.92 884.92,304.46 886.66,304.46 888.40,303.38 890.16,303.92 891.87,299.06 893.60,35.00 895.35,304.46 897.10,303.92 898.82,304.46 900.57,35.00 902.31,303.92 904.04,303.92 905.84,304.46 907.60,303.92 909.34,35.00 911.07,304.46 912.81,35.00 914.54,303.92 916.27,35.00 918.00,303.38 919.81,304.46 921.55,304.46 923.30,35.00 925.03,304.46 926.76,304.46 928.51,304.46 930.24,303.92 931.97,35.00 933.72,303.38 935.46,304.46 937.20,304.46 938.94,35.00 940.66,304.46 942.40,35.00 944.13,304.46 945.90,304.46 947.64,291.50 949.36,303.92 951.09,304.46 952.82,304.46 954.59,303.38 956.33,303.92 958.42,303.38 960.20,303.92 961.93,35.00 963.67,35.00 965.40,304.46 967.14,303.38 968.88,304.46 970.62,35.00 972.39,303.92 974.12,304.46 975.85,35.00 977.57,303.92 979.31,35.00 981.04,304.46 982.77,304.46 984.52,35.00 986.25,304.46 987.97,304.46 989.70,35.00 991.44,304.46 993.19,304.46 994.92,304.46 996.65,303.92 998.40,35.00 1000.16,304.46 1001.88,304.46 1003.61,35.00 1005.36,304.46 1007.14,303.38 1008.86,35.00 1010.60,304.46 1012.35,304.46 1014.09,303.92 1015.81,304.46 1017.56,304.46 1019.30,304.46 1021.08,304.46 1022.81,304.46 1024.54,304.46 1026.26,303.92 1027.99,304.46 1029.72,303.92 1031.46,304.46 1033.19,35.00 1034.94,304.46 1036.70,304.46 1038.45,303.92 1040.15,35.00 1041.91,304.46 1043.63,304.46 1045.37,304.46 1047.10,304.46 1048.84,303.92 1050.56,304.46 1052.32,304.46 1054.06,35.00 1055.79,304.46 1057.54,303.92 1059.30,35.00 1061.04,35.00 1062.77,303.92 1064.53,281.24 1066.48,304.46 1068.38,304.46 1070.24,35.00 1072.00,303.92 1073.81,303.92 1075.55,304.46 1077.29,304.46 1079.01,303.92 1080.63,293.12 1082.44,303.92 1084.18,292.58 1085.94,294.20 1087.65,293.12 1089.39,303.92 1091.12,304.46 1092.87,303.92 1094.59,303.38 1096.34,304.46 1098.07,304.46 1099.81,304.46 1101.55,303.92 1103.30,35.00 1105.05,35.00 1106.81,35.00 1108.55,35.00 1110.29,304.46 1112.03,35.00 1113.80,304.46 1115.54,303.92 1117.26,304.46 1118.99,303.92 1120.74,303.92 1122.47,304.46 1124.20,303.92 1125.94,304.46 1127.68,304.46 1129.44,35.00 1131.16,304.46 1132.89,304.46 1134.64,35.00 1136.38,303.92 1138.13,35.00 1139.87,303.92 1141.60,35.00 1143.34,304.46 1145.08,35.00 1146.83,304.46 1148.58,304.46 1150.33,303.92 1152.07,304.46 1153.81,35.00 1155.56,303.92 1157.29,304.46 1159.05,304.46 1160.84,304.46 1162.58,304.46 1164.33,303.92 1166.06,302.84 1167.80,304.46 1169.54,304.46 1171.28,304.46 1173.03,304.46 1174.77,303.92 1176.51,304.46 1178.25,303.38 1180.00,35.00"/>
<polyline fill="none" stroke="#d62728" stroke-opacity="0.50" stroke-width="2" points="70.00,302.84 71.74,302.84 73.48,303.92 75.21,303.92 76.95,303.92 78.71,303.38 80.43,303.92 82.17,302.57 84.05,303.38 85.78,302.84 87.50,303.92 89.23,303.38 90.99,302.84 92.72,303.38 94.44,287.18 97.57,303.38 100.26,303.38 102.01,303.38 103.79,303.92 105.52,302.84 107.26,293.12 108.96,303.38 110.71,303.38 112.44,303.38 114.19,303.38 115.93,303.38 117.70,303.38 119.45,303.92 121.19,303.38 123.01,303.92 124.76,303.92 126.49,303.38 128.27,303.38 130.01,303.38 131.75,302.03 133.54,303.38 135.26,303.92 137.00,303.92 138.76,303.38 140.48,303.92 142.22,303.92 143.93,303.92 145.66,302.84 147.40,303.92 149.13,303.38 150.90,303.92 152.66,302.84 154.37,303.92 156.10,302.84 157.86,303.38 159.59,302.84 161.58,303.38 163.31,303.92 165.05,303.38 166.77,303.92 168.49,303.38 170.21,303.38 171.94,303.92 173.68,302.30 175.41,303.92 177.18,303.92 178.91,304.46 180.63,303.92 182.38,303.92 184.13,303.92 185.86,303.38 187.61,289.61 189.32,303.92 191.04,303.38 192.77,302.84 194.49,299.87 196.22,303.92 197.96,303.92 199.68,304.46 201.41,303.92 203.16,302.03 204.87,304.46 206.62,303.38 208.34,303.38 210.07,302.84 211.85,302.57 213.58,303.92 215.31,303.92 217.06,303.92 218.78,303.38 220.52,303.38 222.26,302.84 223.97,303.38 225.69,302.84 227.44,303.92 229.19,303.38 230.92,294.20 232.67,303.38 234.38,303.38 236.12,303.92 237.85,303.92 239.58,302.57 241.30,303.38 243.04,302.84 244.76,302.84 246.50,302.57 248.24,303.92 249.98,303.92 251.71,303.92 253.47,303.92 255.22,302.84 256.95,303.92 258.68,303.92 260.41,302.84 262.14,303.92 263.89,302.84 265.62,302.84 267.36,303.92 269.09,303.92 270.83,303.92 272.57,303.92 274.32,302.57 276.08,303.92 277.81,303.92 279.55,303.38 281.28,303.38 283.01,303.92 284.74,304.46 286.49,303.92 288.37,303.92 290.10,303.38 291.86,303.92 293.59,303.92 295.31,304.46 297.03,303.38 298.73,302.84 300.47,303.92 302.20,302.84 303.93,303.92 305.66,303.38 307.39,303.38 309.12,304.46 310.84,303.38 312.61,303.92 314.34,302.57 316.07,302.03 317.80,303.92 319.53,303.92 321.26,303.38 323.00,303.38 324.74,303.92 326.48,303.38 328.22,303.38 329.95,302.84 331.67,302.57 333.39,303.38 335.13,302.03 336.86,302.03 338.60,302.03 340.35,302.84 342.09,302.03 343.82,302.84 345.57,302.84 347.31,302.57 349.03,302.03 350.77,303.92 352.51,303.38 354.27,303.92 356.03,303.92 357.76,303.38 359.50,302.84 361.22,303.92 362.94,303.92 364.67,303.92 366.41,296.90 368.13,303.38 369.85,302.84 371.57,303.92 373.33,303.92 375.06,302.84 376.81,303.92 378.54,302.84 380.31,303.92 382.04,303.92 383.77,303.38 385.50,303.92 387.22,303.92 389.11,299.33 390.88,303.38 392.60,303.92 394.33,303.38 396.04,303.92 397.78,304.46 399.51,303.92 401.25,303.38 403.00,303.92 404.72,302.84 406.45,303.38 408.19,303.38 409.96,303.92 411.69,303.92 413.41,303.92 415.14,302.84 416.90,303.92 418.66,303.38 420.44,303.92 422.16,303.92 423.90,303.38 425.63,302.84 427.36,303.38 429.10,303.38 430.84,303.92 432.60,303.92 434.32,302.84 436.04,303.92 437.80,303.38 439.53,303.92 441.26,303.92 443.00,303.38 444.76,303.92 446.50,302.30 448.22,303.92 449.94,303.38 451.66,303.92 453.40,302.84 455.14,303.92 456.86,302.84 458.59,303.92 460.31,303.92 462.04,303.92 463.79,303.92 465.52,302.84 467.27,303.92 469.02,303.92 470.76,299.87 472.51,303.92 474.23,302.84 475.98,302.84 477.71,303.92 479.44,303.92 481.18,303.92 482.96,304.46 484.69,304.46 486.43,303.38 488.17,303.38 489.90,303.38 491.64,303.92 493.35,303.92 495.09,302.84 496.83,303.92 498.57,303.92 500.31,303.38 502.04,303.38 503.79,303.92 505.52,302.57 507.26,303.92 509.01,302.84 510.76,303.92 512.48,303.92 514.22,303.38 515.96,303.92 517.72,304.46 519.46,303.38 521.19,302.84 522.92,303.38 524.85,303.92 526.59,303.38 528.33,303.92 530.07,303.92 531.82,303.38 533.56,303.38 535.30,303.38 537.04,303.38 538.76,303.92 540.55,302.84 542.31,303.92 544.03,303.92 545.76,303.92 547.50,303.92 549.24,302.84 550.97,303.38 552.77,303.38 554.51,303.92 556.24,302.84 558.00,303.92 559.87,303.92 561.61,293.39 563.79,293.12 566.73,303.92 568.50,302.84 570.27,292.58 572.01,302.03 573.71,302.84 575.43,304.46 577.19,303.92 578.94,303.92 580.68,303.92 582.49,304.46 584.29,303.92 586.13,303.92 587.87,302.84 589.60,303.38 591.34,303.38 593.10,303.92 594.86,303.38 596.61,302.84 598.34,294.74 600.07,303.38 601.87,303.92 603.62,303.92 605.34,303.92 607.08,303.92 608.84,303.38 610.64,303.92 612.39,303.38 614.13,303.92 615.91,303.38 617.57,302.57 619.30,303.92 621.07,303.92 622.80,303.92 624.56,304.46 626.35,303.38 628.09,303.38 629.82,303.38 631.58,304.46 633.33,303.92 635.07,303.92 636.80,303.38 638.52,303.92 640.27,303.92 642.01,303.92 643.73,303.92 645.80,300.41 647.85,303.92 649.90,303.38 651.92,303.92 653.90,303.92 655.90,303.92 657.95,302.84 659.98,303.92 661.72,303.92 663.43,303.92 665.16,303.38 666.90,302.84 668.63,302.84 670.35,303.92 672.08,303.92 673.81,303.38 675.54,304.46 677.27,304.46 679.00,303.92 680.73,292.58 682.46,302.84 684.18,304.46 685.91,303.38 687.64,303.92 689.38,303.38 691.09,303.38 692.83,303.38 694.58,303.38 696.30,303.38 698.02,304.46 699.74,303.38 701.47,304.46 703.21,303.92 704.95,303.38 706.67,303.92 708.41,303.38 710.15,295.82 711.87,302.84 713.60,303.92 715.34,302.84 717.06,299.87 718.79,303.92 720.50,303.38 722.21,302.84 723.94,303.92 725.66,303.92 727.39,303.38 729.11,303.92 730.84,303.38 732.57,303.92 734.28,303.38 736.00,304.46 737.70,303.92 739.49,303.92 741.36,303.92 743.10,303.92 744.84,303.92 746.56,303.38 748.29,302.57 750.01,303.92 751.73,303.92 753.45,303.92 755.50,302.84 757.53,302.84 759.55,303.92 761.58,302.30 763.62,303.92 765.65,303.92 767.72,303.92 769.82,303.92 771.71,303.92 773.57,303.92 775.31,303.38 777.06,303.38 778.80,303.38 780.51,303.38 782.24,303.92 783.98,303.92 785.70,292.85 787.43,303.92 789.15,302.57 790.89,303.38 792.63,303.92 794.35,303.92 796.11,303.38 797.84,303.92 799.56,302.30 801.08,303.92 802.87,303.92 804.60,304.46 806.38,303.38 808.11,303.92 809.83,303.92 811.58,303.38 813.33,303.92 815.07,303.92 816.82,303.92 818.57,304.46 820.33,303.92 822.05,303.38 823.77,303.92 825.51,303.92 827.22,303.92 828.95,302.84 830.67,303.38 832.42,303.92 834.15,303.92 835.88,303.38 837.62,303.92 839.34,303.38 841.08,303.38 842.81,303.92 844.56,303.38 846.30,303.92 848.04,303.92 849.76,303.92 851.51,303.92 853.25,303.92 855.04,303.92 856.76,303.92 858.48,302.84 860.21,302.84 861.93,303.92 863.66,304.46 865.41,302.03 867.13,303.38 868.85,303.92 870.59,303.92 872.31,303.92 874.04,302.84 875.79,303.38 877.53,303.38 879.26,303.38 881.36,303.92 883.14,303.92 884.92,303.38 886.66,302.57 888.40,303.92 890.16,302.84 891.87,303.92 893.60,303.92 895.35,303.92 897.10,304.46 898.82,302.57 900.57,302.57 902.31,303.38 904.04,303.92 905.84,303.92 907.60,303.38 909.34,303.38 911.07,302.84 912.81,303.92 914.54,300.95 916.27,303.92 918.00,302.84 919.81,303.38 921.55,303.92 923.30,303.38 925.03,302.84 926.76,303.92 928.51,303.38 930.24,303.92 931.97,303.38 933.72,303.92 935.46,303.92 937.20,303.92 938.94,303.38 940.66,303.38 942.40,303.92 944.13,303.92 945.90,303.92 947.64,303.92 949.36,303.92 951.09,300.95 952.82,290.69 954.59,303.92 956.33,302.84 958.42,303.92 960.20,303.38 961.93,303.38 963.67,303.92 965.40,304.46 967.14,303.92 968.88,303.92 970.62,303.38 972.39,303.38 974.12,302.84 975.85,304.46 977.57,303.92 979.31,303.38 981.04,304.46 982.77,304.46 984.52,303.38 986.25,303.38 987.97,303.92 989.70,303.38 991.44,304.46 993.19,303.38 994.92,302.84 996.65,304.46 998.40,303.92 1000.16,303.92 1001.88,303.38 1003.61,303.38 1005.36,303.92 1007.14,303.92 1008.86,300.95 1010.60,303.92 1012.35,302.84 1014.09,303.92 1015.81,303.38 1017.56,303.38 1019.30,302.03 1021.08,302.03 1022.81,303.92 1024.54,302.84 1026.26,302.84 1027.99,302.57 1029.72,303.38 1031.46,303.38 1033.19,303.38 1034.94,303.38 1036.70,291.77 1038.45,274.49 1040.15,302.84 1041.91,292.85 1043.63,302.84 1045.37,303.38 1047.10,303.92 1048.84,303.92 1050.56,303.92 1052.32,303.38 1054.06,303.38 1055.79,304.46 1057.54,302.84 1059.30,303.92 1061.04,302.57 1062.77,303.92 1064.53,303.92 1066.48,304.46 1068.38,304.46 1070.24,303.92 1072.00,303.92 1073.81,303.92 1075.55,303.38 1077.29,303.92 1079.01,303.38 1080.63,303.38 1082.44,303.38 1084.18,303.92 1085.94,303.92 1087.65,303.38 1089.39,303.38 1091.12,303.38 1092.87,303.92 1094.59,303.38 1096.34,303.92 1098.07,303.92 1099.81,303.92 1101.55,303.92 1103.30,303.38 1105.05,303.92 1106.81,303.92 1108.55,302.84 1110.29,303.38 1112.03,303.38 1113.80,302.57 1115.54,303.38 1117.26,302.57 1118.99,302.57 1120.74,301.49 1122.47,303.92 1124.20,303.38 1125.94,303.92 1127.68,302.84 1129.44,303.38 1131.16,303.92 1132.89,303.38 1134.64,303.38 1136.38,303.38 1138.13,303.92 1139.87,303.92 1141.60,304.46 1143.34,303.92 1145.08,303.92 1146.83,302.57 1148.58,303.38 1150.33,303.38 1152.07,303.92 1153.81,302.84 1155.56,302.84 1157.29,303.38 1159.05,303.38 1160.84,303.92 1162.58,303.38 1164.33,303.92 1166.06,303.92 1167.80,300.41 1169.54,303.92 1171.28,303.38 1173.03,303.92 1174.77,303.92 1176.51,303.92 1178.25,303.38 1180.00,304.46"/>
<rect x="70" y="332" width="12" height="12" fill="#d62728" fill-opacity="0.95"/>
<text x="88" y="342" font-size="11" fill="#333" font-family="Arial, Helvetica, sans-serif">nsc1.utdallas.edu</text>
<rect x="350" y="332" width="12" height="12" fill="#d62728" fill-opacity="0.80"/>
<text x="368" y="342" font-size="11" fill="#333" font-family="Arial, Helvetica, sans-serif">nsc2.utdallas.edu</text>
<rect x="630" y="332" width="12" height="12" fill="#d62728" fill-opacity="0.65"/>
<text x="648" y="342" font-size="11" fill="#333" font-family="Arial, Helvetica, sans-serif">nsc3.utdallas.edu</text>
<rect x="910" y="332" width="12" height="12" fill="#d62728" fill-opacity="0.50"/>
<text x="928" y="342" font-size="11" fill="#333" font-family="Arial, Helvetica, sans-serif">nsc4.utdallas.edu</text>
</svg>