<?xml version="1.0" encoding="UTF-8"?>
<svg xmlns="http://www.w3.org/2000/svg" width="1200" height="360" viewBox="0 0 1200 360" role="img" aria-label="CPU Utilization (%)">
<rect width="100%" height="100%" fill="#ffffff"/>
<text x="600.0" y="22" text-anchor="middle" font-size="16" font-family="Arial, Helvetica, sans-serif" font-weight="bold">CPU Utilization (%)</text>
<line x1="70" y1="35.00" x2="1180" y2="35.00" stroke="#e3e3e3" stroke-width="1"/>
<text x="62" y="39.00" text-anchor="end" font-size="11" fill="#444" font-family="Arial, Helvetica, sans-serif">100</text>
<line x1="70" y1="89.00" x2="1180" y2="89.00" stroke="#e3e3e3" stroke-width="1"/>
<text x="62" y="93.00" text-anchor="end" font-size="11" fill="#444" font-family="Arial, Helvetica, sans-serif">80</text>
<line x1="70" y1="143.00" x2="1180" y2="143.00" stroke="#e3e3e3" stroke-width="1"/>
<text x="62" y="147.00" text-anchor="end" font-size="11" fill="#444" font-family="Arial, Helvetica, sans-serif">60</text>
<line x1="70" y1="197.00" x2="1180" y2="197.00" stroke="#e3e3e3" stroke-width="1"/>
<text x="62" y="201.00" text-anchor="end" font-size="11" fill="#444" font-family="Arial, Helvetica, sans-serif">40</text>
<line x1="70" y1="251.00" x2="1180" y2="251.00" stroke="#e3e3e3" stroke-width="1"/>
<text x="62" y="255.00" text-anchor="end" font-size="11" fill="#444" font-family="Arial, Helvetica, sans-serif">20</text>
<line x1="70" y1="305.00" x2="1180" y2="305.00" stroke="#e3e3e3" stroke-width="1"/>
<text x="62" y="309.00" text-anchor="end" font-size="11" fill="#444" font-family="Arial, Helvetica, sans-serif">0</text>
<line x1="70" y1="35" x2="70" y2="305" stroke="#999"/>
<line x1="70" y1="305" x2="1180" y2="305" stroke="#999"/>
<text x="70.00" y="323" text-anchor="middle" font-size="10" fill="#444" font-family="Arial, Helvetica, sans-serif">2026-02-11 16:38</text>
<text x="347.50" y="323" text-anchor="middle" font-size="10" fill="#444" font-family="Arial, Helvetica, sans-serif">2026-02-13 02:30</text>
<text x="625.00" y="323" text-anchor="middle" font-size="10" fill="#444" font-family="Arial, Helvetica, sans-serif">2026-02-14 12:22</text>
<text x="902.50" y="323" text-anchor="middle" font-size="10" fill="#444" font-family="Arial, Helvetica, sans-serif">2026-02-15 22:14</text>
<text x="1180.00" y="323" text-anchor="middle" font-size="10" fill="#444" font-family="Arial, Helvetica, sans-serif">2026-02-17 08:06</text>
<polyline fill="none" stroke="#d62728" stroke-opacity="0.95" stroke-width="2" points="70.74,304.46 71.47,298.79 72.21,296.90 72.94,303.92 73.68,304.73 74.41,304.46 75.15,303.92 75.95,304.73 76.68,303.92 77.41,304.46 78.14,303.92 78.89,304.46 79.62,304.46 80.35,303.92 81.67,304.46 82.81,303.92 83.55,304.46 84.30,303.92 85.04,300.95 85.77,304.73 86.49,278.27 87.23,303.92 87.96,304.46 88.70,294.74 89.44,304.46 90.19,303.92 90.93,301.49 91.67,303.92 92.44,295.28 93.18,294.20 93.91,303.65 94.67,304.46 95.40,304.46 96.14,303.92 96.89,303.65 97.62,302.30 98.36,303.92 99.11,304.46 99.83,303.92 100.57,304.73 101.29,304.73 102.03,304.46 102.76,303.38 103.50,304.46 104.25,303.92 104.99,303.38 105.71,304.46 106.45,297.71 107.19,297.44 107.92,48.23 108.76,303.92 109.50,303.92 110.23,304.46 110.96,303.65 111.69,303.65 112.42,304.46 113.15,304.46 113.89,303.92 114.62,304.46 115.37,303.92 116.10,304.46 116.83,304.46 117.57,299.60 118.31,303.65 119.04,303.92 119.78,304.73 120.51,303.92 121.24,304.73 121.97,304.46 122.70,304.46 123.43,304.46 124.16,303.92 124.89,304.73 125.63,303.92 126.36,304.46 127.09,304.73 127.83,303.38 128.56,303.38 129.29,303.65 130.04,304.46 130.77,303.65 131.51,304.73 132.25,304.46 132.98,304.46 133.72,304.73 134.45,303.92 135.17,303.92 135.90,304.46 136.64,304.73 137.38,299.60 138.11,303.65 138.86,304.46 139.58,304.73 140.32,303.65 141.05,303.92 141.78,304.46 142.51,304.46 143.24,303.92 143.97,303.92 144.71,303.92 145.45,304.46 146.18,303.92 146.92,303.92 147.66,298.79 148.40,303.65 149.13,304.46 149.87,304.73 150.60,304.73 151.33,304.46 152.07,304.46 152.81,304.46 153.54,304.46 154.27,302.84 155.01,304.46 155.75,304.46 156.49,304.46 157.23,304.46 157.96,304.46 158.70,304.46 159.43,303.65 160.17,304.73 160.90,303.38 161.64,304.46 162.44,304.46 163.17,304.73 163.91,303.92 164.64,303.92 165.37,304.46 166.10,299.87 166.82,304.46 167.55,304.73 168.29,295.01 169.02,304.46 169.75,303.92 170.49,303.92 171.22,303.92 171.95,304.46 172.70,303.65 173.43,304.46 174.16,304.46 174.89,304.46 175.62,303.92 176.36,303.92 177.09,303.92 177.83,304.73 178.57,304.46 179.30,304.46 180.03,303.92 180.76,304.46 181.49,303.65 182.22,303.92 182.96,303.65 183.70,304.73 184.44,304.46 185.17,304.46 185.91,304.46 186.65,303.11 187.38,303.38 188.11,304.46 188.85,304.46 189.58,304.46 190.33,303.65 191.07,303.92 191.80,304.46 192.54,297.71 193.27,294.20 194.00,303.92 194.73,304.46 195.47,303.65 196.20,297.71 196.92,304.46 197.65,303.92 198.40,304.46 199.13,304.46 199.87,303.92 200.60,303.38 201.35,304.73 202.08,303.92 202.82,303.38 203.55,303.92 204.28,304.46 205.08,304.46 205.83,303.92 206.55,304.73 207.29,304.46 208.01,304.46 208.75,304.73 209.48,304.46 210.22,304.73 210.95,35.00 211.68,303.65 212.42,303.11 213.15,297.17 213.90,304.46 214.63,304.46 215.36,304.46 216.10,303.92 216.84,303.65 217.59,304.46 218.34,303.11 219.07,304.73 219.80,304.46 220.54,303.92 221.27,304.73 222.00,304.46 222.74,303.92 223.48,304.73 224.21,304.46 224.94,304.46 225.68,304.46 226.42,303.92 227.15,303.65 227.89,304.46 228.63,303.65 229.37,304.46 230.10,301.76 230.82,302.03 231.55,304.46 232.29,304.46 233.02,304.46 233.75,35.00 234.49,303.65 235.21,303.92 235.95,304.46 236.69,304.46 237.42,303.65 238.16,304.46 238.90,304.73 239.64,304.46 240.38,304.73 241.11,35.00 241.85,304.73 242.58,303.65 243.31,304.46 244.05,303.65 244.80,304.73 245.54,300.68 246.27,303.65 247.01,303.92 247.74,304.46 248.48,304.46 249.20,304.46 249.93,304.46 250.67,304.73 251.41,304.73 252.14,304.73 252.88,303.65 253.62,303.92 254.35,303.92 255.09,304.73 255.83,35.00 256.57,304.46 257.30,303.92 258.03,304.73 258.77,303.92 259.51,304.73 260.25,303.92 260.98,304.46 261.72,303.92 262.53,304.73 263.27,304.46 264.01,303.65 264.74,304.46 265.48,304.46 266.22,303.92 266.96,304.46 267.69,303.65 268.42,304.73 269.18,295.28 269.92,297.17 270.65,304.46 271.39,304.46 272.12,304.46 272.86,304.73 273.59,304.46 274.35,303.65 275.09,304.46 275.82,303.92 276.57,304.73 277.36,304.73 278.09,304.73 279.02,303.65 280.26,304.46 281.01,303.92 281.76,303.92 282.49,304.73 283.21,304.46 283.94,303.92 284.69,303.65 285.43,304.46 286.17,304.73 286.93,303.92 287.69,35.00 288.47,303.65 289.21,304.46 289.94,304.73 290.68,303.92 291.42,303.92 292.17,303.65 292.91,304.46 293.64,303.92 294.37,304.46 295.14,304.46 295.88,304.46 296.60,304.46 297.34,304.46 298.09,303.92 298.85,304.46 299.59,303.92 300.32,303.92 301.08,303.65 301.78,303.92 302.51,303.65 303.26,303.92 303.99,303.92 304.74,303.92 305.50,303.11 306.23,303.92 306.97,303.92 307.71,304.46 308.45,304.46 309.19,303.65 309.92,304.73 310.65,299.06 311.39,304.73 312.13,304.46 312.86,48.23 313.73,48.50 314.60,48.77 315.47,48.50 316.32,48.23 317.16,48.50 318.01,48.50 318.88,48.77 319.73,304.46 320.47,304.46 321.19,304.46 321.93,303.92 322.66,304.46 323.40,304.46 324.12,303.92 324.85,304.19 325.58,303.65 326.32,304.73 327.05,303.92 327.79,303.92 328.52,304.46 329.25,304.73 329.98,304.73 330.71,304.46 331.44,304.46 332.18,304.46 332.90,303.92 333.64,304.46 334.38,304.73 335.11,303.65 335.83,304.46 336.56,35.00 337.30,304.46 338.03,304.46 338.77,304.73 339.50,304.46 340.23,304.73 340.97,35.00 341.70,304.46 342.43,304.46 343.16,304.73 343.89,303.92 344.63,303.92 345.35,303.92 346.07,303.38 346.81,304.73 347.54,303.65 348.26,304.46 349.00,303.92 349.73,304.46 350.46,304.73 351.18,303.92 351.91,303.38 352.63,304.73 353.39,303.65 354.18,304.73 354.92,304.73 355.65,304.46 356.38,303.92 357.11,303.65 357.84,297.44 358.57,297.71 359.30,48.50 360.17,48.50 361.03,48.50 361.88,48.23 362.74,48.50 363.60,48.23 364.46,48.50 365.34,48.77 366.23,295.82 367.03,297.17 367.82,304.73 368.55,303.92 369.29,303.92 370.03,304.73 370.75,303.92 371.48,304.46 372.22,304.46 372.95,304.46 373.68,304.46 374.41,304.46 375.15,304.73 375.88,303.11 376.61,304.73 377.36,303.92 378.09,304.46 378.82,304.73 379.46,304.46 380.22,303.92 380.95,304.73 381.70,304.73 382.43,304.73 383.16,303.92 383.90,35.00 384.64,304.73 385.38,304.73 386.12,304.46 386.86,304.73 387.61,303.65 388.34,304.46 389.06,304.73 389.80,304.73 390.52,304.73 391.26,35.00 391.98,303.92 392.73,303.92 393.46,303.92 394.19,303.65 394.92,304.46 395.65,304.46 396.39,303.92 397.12,304.46 397.86,304.46 398.60,304.73 399.33,303.92 400.07,301.22 400.81,304.46 401.54,304.46 402.30,304.46 403.03,303.65 403.76,304.46 404.49,304.73 405.22,304.46 405.95,300.68 406.69,303.92 407.42,304.73 408.15,304.46 408.88,304.73 409.61,303.38 410.34,303.92 411.08,304.73 411.82,304.73 412.55,303.92 413.44,303.92 414.19,303.92 414.95,303.65 415.69,304.46 416.42,302.84 417.16,304.46 417.89,304.46 418.62,303.92 419.36,303.92 420.10,303.11 420.83,304.73 421.57,304.46 422.31,304.46 423.04,304.46 423.80,304.73 424.55,304.73 425.28,304.46 426.02,304.73 426.75,304.73 427.49,302.57 428.22,302.84 428.95,301.22 429.72,303.92 430.45,304.46 431.19,304.46 431.93,304.46 432.66,303.92 433.40,304.73 434.13,304.46 434.86,304.46 435.60,303.92 436.34,304.46 437.08,304.46 437.81,304.46 438.54,297.44 439.28,303.92 440.01,304.46 440.76,304.46 441.49,300.68 442.23,303.92 442.96,289.07 443.69,303.65 444.44,302.03 445.17,302.84 446.06,302.84 446.81,304.46 447.55,304.46 448.28,303.92 449.01,304.73 449.75,303.92 450.49,303.92 451.22,303.65 451.97,304.46 452.70,303.92 453.44,304.73 454.17,304.46 454.90,304.46 455.64,303.92 456.37,304.73 457.11,304.46 457.84,304.73 458.57,304.46 459.30,304.73 460.03,304.73 460.78,303.92 461.51,304.46 462.24,304.73 462.98,304.46 463.73,304.46 464.46,304.73 465.19,304.46 465.93,303.38 466.68,303.92 467.41,304.73 468.15,304.73 468.89,303.92 469.62,303.92 470.35,304.46 471.09,303.92 471.83,303.92 472.58,304.73 473.31,303.92 474.05,304.46 474.77,303.92 475.51,304.46 476.24,304.73 476.98,303.92 477.71,304.73 478.45,304.46 479.20,304.73 479.94,298.79 480.65,303.92 481.40,303.92 482.13,304.46 482.86,304.46 483.60,303.65 484.33,303.65 485.06,304.73 485.81,303.92 486.54,303.92 487.28,235.88 488.02,236.69 488.76,236.69 489.50,236.69 490.23,236.15 490.97,232.10 491.80,227.51 492.61,228.59 493.39,222.65 494.14,236.42 494.90,236.15 495.64,235.61 496.38,236.69 497.10,236.69 497.79,236.15 498.56,235.61 499.29,236.15 500.04,236.42 500.76,233.18 501.50,236.69 502.23,236.42 502.97,236.15 503.70,235.61 504.44,235.88 505.17,236.42 505.91,236.42 506.65,236.96 507.39,236.42 508.13,235.61 508.87,236.69 509.61,236.15 510.34,236.42 511.08,242.63 511.83,255.86 512.57,236.69 513.30,235.88 514.03,236.15 514.77,236.42 515.50,235.88 516.23,236.15 516.97,236.96 517.70,236.15 518.45,236.69 519.18,236.96 519.91,236.15 520.65,236.96 521.39,236.15 522.13,236.42 522.87,234.53 523.60,236.15 524.33,236.69 525.07,236.69 525.81,235.34 526.55,236.15 527.29,236.15 528.03,235.61 528.77,236.69 529.51,236.96 530.24,235.61 530.98,232.91 531.74,234.26 532.48,236.42 533.22,236.42 533.95,236.15 534.69,236.96 535.42,236.15 536.16,236.69 536.90,236.96 537.64,234.53 538.37,236.42 539.11,236.69 539.85,236.42 540.59,236.15 541.33,236.42 542.07,235.88 542.81,236.15 543.55,236.96 544.29,235.61 545.04,235.88 545.77,235.88 546.50,236.42 547.24,236.42 547.98,236.69 548.74,236.69 549.47,236.42 550.22,235.61 550.96,236.15 551.69,236.15 552.42,235.34 553.16,236.69 553.90,235.61 554.64,236.69 555.37,235.88 556.11,236.69 556.84,232.91 557.58,235.88 558.32,236.42 559.06,235.88 559.79,235.61 560.54,236.69 561.28,235.88 562.02,236.42 562.75,236.42 563.49,236.69 564.22,236.15 564.95,235.88 565.69,236.42 566.43,235.61 567.17,201.32 567.91,236.69 568.65,236.15 569.38,236.42 570.13,236.42 570.87,235.61 571.60,230.48 572.34,235.34 573.09,283.40 573.83,236.69 574.56,230.75 575.30,236.69 576.05,224.00 576.79,236.42 577.53,236.15 578.28,235.61 579.02,235.88 579.76,236.15 580.50,236.96 581.23,230.48 581.98,235.88 582.72,236.15 583.46,235.61 584.20,243.17 584.94,296.63 585.67,236.15 586.40,235.61 587.16,236.69 587.90,229.94 588.64,229.94 589.37,236.15 590.11,236.42 590.84,236.69 591.57,235.61 592.31,236.69 593.05,236.69 593.79,236.42 594.53,236.15 595.26,236.69 596.00,236.69 596.73,236.42 597.49,231.29 598.23,236.69 598.97,236.15 599.71,236.42 600.44,235.88 601.17,235.61 601.91,235.61 602.65,236.42 603.39,236.96 604.13,236.69 604.87,236.69 605.61,235.61 606.34,235.88 607.08,235.88 607.83,236.69 608.59,236.69 609.33,235.61 610.07,236.15 610.81,283.13 611.55,236.42 612.30,236.69 613.03,235.88 613.76,236.15 614.49,235.07 615.24,236.42 615.98,236.69 616.72,236.15 617.46,237.23 618.21,236.15 618.97,236.15 619.71,236.15 620.45,236.69 621.19,236.69 621.92,236.42 622.66,236.69 623.41,236.69 624.15,235.61 624.89,236.42 625.64,235.34 626.38,236.96 627.12,235.61 627.86,236.69 628.60,236.69 629.34,236.15 630.08,236.42 630.81,236.42 631.55,296.90 632.30,236.15 633.04,235.61 633.77,236.42 634.52,236.42 635.26,236.69 636.00,236.69 636.74,236.69 637.48,236.69 638.24,235.34 638.98,235.88 639.73,233.45 640.47,236.15 641.22,236.15 641.98,235.07 642.73,234.26 643.48,234.26 644.24,235.88 644.98,290.15 645.72,236.69 646.46,236.42 647.20,236.15 647.94,236.42 648.68,235.34 649.44,236.69 650.18,236.15 650.92,236.69 651.66,235.88 652.39,236.15 653.13,236.69 653.87,236.42 654.61,236.96 655.34,231.83 656.08,236.42 656.81,236.42 657.55,236.42 658.28,236.42 659.02,236.15 659.76,236.69 660.50,236.42 661.24,232.64 661.98,235.88 662.73,237.23 663.46,236.42 664.20,235.88 664.94,236.42 665.68,283.94 666.41,236.15 667.15,236.42 667.89,236.42 668.63,236.42 669.36,290.42 670.09,236.42 670.83,236.69 671.56,236.42 672.31,236.15 673.04,236.69 673.78,235.88 674.52,234.53 675.26,235.34 675.99,236.69 676.73,236.42 677.47,236.15 678.19,236.42 678.93,235.61 679.65,236.69 680.39,236.42 681.13,235.34 681.88,235.88 682.62,236.15 683.35,235.61 684.09,236.69 684.84,236.15 685.59,235.61 686.32,236.15 687.07,235.07 687.80,236.15 688.54,235.61 689.29,236.69 690.02,236.15 690.77,235.61 691.52,290.15 692.25,236.42 692.98,236.69 693.72,236.15 694.46,235.61 695.19,236.42 695.93,236.69 696.66,235.88 697.40,235.88 698.14,235.88 698.88,236.69 699.61,236.15 700.35,236.15 701.08,236.42 701.82,235.34 702.56,235.88 703.30,236.15 704.04,236.15 704.78,235.61 705.52,236.42 706.26,236.96 706.99,235.34 707.73,236.42 708.47,236.15 709.21,236.15 709.94,235.88 710.69,236.42 711.43,233.18 712.16,236.69 712.90,235.88 713.63,236.15 714.40,236.69 715.13,236.15 715.89,235.88 716.63,232.91 717.37,236.15 718.11,283.67 718.85,236.42 719.60,235.88 720.34,234.80 721.07,235.34 721.81,236.15 722.57,234.53 723.31,236.69 724.04,236.42 724.79,236.69 725.52,236.96 726.27,235.88 727.01,236.42 727.74,236.69 728.47,235.61 729.21,236.42 729.95,236.42 730.69,236.69 731.42,236.15 732.17,236.42 732.90,236.15 733.63,235.61 734.37,236.15 735.10,235.07 735.84,236.15 736.59,236.69 737.33,231.83 738.06,235.61 738.80,285.02 739.54,236.69 740.27,236.15 741.01,236.69 741.75,231.29 742.50,283.13 743.24,236.42 743.97,234.53 744.70,235.88 745.44,236.69 746.18,236.42 746.91,229.40 747.66,236.69 748.42,235.34 749.17,235.88 749.92,236.15 750.67,235.61 751.43,236.15 752.18,236.69 752.94,236.69 753.70,236.15 754.45,229.94 755.21,236.42 755.95,236.42 756.68,235.34 757.43,230.75 758.17,236.15 758.91,236.15 759.65,236.69 760.39,236.96 761.14,235.88 761.87,235.34 762.61,236.15 763.35,235.88 764.08,235.61 764.82,236.69 765.55,235.07 766.29,231.83 767.03,236.69 767.77,235.88 768.51,236.15 769.26,236.42 770.00,236.42 770.74,232.91 771.47,236.69 772.21,235.88 772.95,236.15 773.69,231.02 774.43,290.69 775.17,236.69 775.90,232.64 776.65,243.71 777.38,236.69 778.12,236.69 778.86,235.88 779.60,236.15 780.34,235.88 781.13,235.61 781.89,234.53 782.62,236.15 783.36,235.61 784.10,262.88 784.85,230.21 785.59,236.69 786.34,230.21 787.08,236.42 787.81,235.61 788.53,236.69 789.27,236.15 790.01,236.42 790.75,236.69 791.49,233.18 792.22,236.15 792.97,236.69 793.71,236.15 794.45,236.69 795.19,236.69 795.92,236.42 796.66,235.61 797.40,236.15 798.14,236.15 798.88,236.15 799.61,235.07 800.36,236.42 801.10,231.56 801.84,236.69 802.61,235.61 803.35,236.69 804.09,235.61 804.82,235.61 805.56,235.34 806.30,236.42 807.04,236.42 807.79,236.42 808.52,296.90 809.26,236.42 810.00,236.69 810.75,249.38 811.50,236.15 812.24,236.15 812.98,235.88 813.71,236.42 814.45,236.15 815.19,232.91 815.93,235.88 816.66,236.69 817.41,235.34 818.15,236.42 818.89,236.42 819.63,235.61 820.36,236.15 821.10,236.15 821.84,236.69 822.57,236.69 823.31,236.15 824.05,235.88 824.79,236.96 825.53,235.88 826.27,236.96 827.00,236.42 827.75,235.34 828.49,236.15 829.23,232.10 829.96,236.69 830.69,236.15 831.42,297.17 832.16,236.42 832.91,236.42 833.64,236.42 834.40,236.42 835.14,230.75 835.88,236.15 836.62,236.69 837.36,235.88 838.11,236.42 838.91,236.15 839.66,231.83 840.40,235.07 841.15,234.80 841.90,235.88 842.63,270.17 843.37,236.15 844.11,236.42 844.85,243.17 845.59,236.69 846.33,235.34 847.07,236.69 847.81,236.69 848.56,236.96 849.31,236.69 850.05,236.69 850.79,235.88 851.52,236.15 852.27,236.69 853.01,236.15 853.74,234.80 854.48,236.69 855.23,236.15 855.97,236.42 856.71,236.42 857.45,235.34 858.19,236.69 858.93,236.69 859.68,236.69 860.42,236.69 861.17,236.15 861.90,235.88 862.64,236.69 863.39,236.69 864.12,236.15 864.85,236.69 865.59,291.23 866.33,235.61 867.07,236.69 867.81,236.15 868.55,236.15 869.28,235.61 870.03,235.34 870.77,236.15 871.50,236.42 872.25,236.69 872.99,236.42 873.74,235.61 874.48,236.69 875.20,236.69 875.92,236.42 876.65,236.15 877.40,236.15 878.14,236.42 878.88,236.42 879.63,236.42 880.36,236.69 881.11,235.88 881.86,235.61 882.59,236.69 883.33,236.42 884.06,236.15 884.80,236.42 885.53,234.26 886.27,235.88 887.01,233.99 887.75,235.88 888.48,235.88 889.22,235.07 889.95,236.42 890.69,236.15 891.43,236.42 892.17,236.42 892.90,236.42 893.64,289.61 894.35,236.69 895.11,235.61 895.85,235.88 896.59,236.69 897.33,236.15 898.08,236.69 898.81,236.69 899.55,236.69 900.29,236.42 901.03,236.69 901.77,236.69 902.51,236.15 903.30,236.15 904.04,236.15 904.79,236.15 905.53,236.42 906.28,236.69 907.00,236.15 907.74,236.15 908.49,235.61 909.22,236.42 909.96,236.69 910.70,236.42 911.43,236.42 912.18,236.42 912.92,236.15 913.66,236.42 914.40,236.96 915.14,236.69 915.88,236.42 916.62,236.42 917.36,235.61 918.10,230.21 918.85,235.07 919.61,236.69 920.35,236.69 921.09,236.69 921.83,236.69 922.57,236.69 923.32,236.69 924.06,235.61 924.79,236.42 925.53,235.88 926.27,304.46 927.00,303.11 927.74,304.46 928.49,304.46 929.23,304.46 929.97,304.46 930.71,303.65 931.44,304.46 932.17,304.46 932.91,304.46 933.66,299.60 934.39,303.92 935.13,304.46 935.87,304.73 936.60,303.92 937.33,304.46 938.06,304.46 938.80,304.46 939.53,304.46 940.27,304.46 941.01,304.46 941.74,304.73 942.47,304.46 943.21,303.92 943.95,302.84 944.69,304.73 945.42,304.46 946.16,304.46 946.89,303.92 947.62,304.46 948.38,304.46 949.11,304.46 949.84,304.46 950.58,304.46 951.36,301.22 952.09,304.73 952.83,303.92 953.57,304.73 954.31,303.92 955.06,304.46 955.80,304.46 956.54,304.73 957.28,304.73 958.01,304.46 958.74,304.46 959.48,304.73 960.22,304.46 960.96,303.65 961.70,304.46 962.43,304.46 963.17,304.46 963.91,304.73 964.64,304.46 965.38,304.73 966.13,304.73 966.90,304.46 967.63,301.49 968.37,304.46 969.09,304.46 969.82,303.92 970.58,304.46 971.31,297.44 972.05,304.46 972.79,304.73 973.53,304.73 974.27,304.73 975.01,303.38 975.75,304.46 976.49,304.46 977.23,303.11 977.97,304.73 978.71,303.65 979.44,304.46 980.18,301.76 980.91,304.46 981.64,297.44 982.38,304.46 983.12,304.46 983.85,302.84 984.59,304.73 985.33,304.46 986.07,304.46 986.81,303.11 987.55,304.46 988.29,304.46 989.02,303.92 989.76,303.92 990.49,304.46 991.24,303.92 991.97,303.92 992.71,303.92 993.45,304.46 994.18,303.92 994.92,303.92 995.65,304.46 996.40,303.38 997.13,304.46 997.89,304.73 998.62,304.46 999.36,304.46 1000.10,304.73 1000.84,304.73 1001.58,35.00 1002.33,303.92 1003.07,304.73 1003.86,300.95 1004.60,298.25 1005.39,303.92 1006.13,304.73 1006.86,304.46 1007.59,304.73 1008.33,304.46 1009.07,304.46 1009.81,304.46 1010.55,304.46 1011.29,297.17 1012.02,304.46 1012.76,303.92 1013.50,303.65 1014.23,304.46 1014.97,304.46 1015.71,303.65 1016.44,304.46 1017.18,304.19 1017.91,304.46 1018.66,304.73 1019.39,304.46 1020.14,304.46 1020.87,299.06 1021.60,303.38 1022.34,303.92 1023.08,304.46 1023.82,304.19 1024.56,303.65 1025.30,303.65 1026.04,303.65 1026.78,303.92 1027.51,303.65 1028.24,304.46 1028.98,303.65 1029.71,303.65 1030.45,304.73 1031.18,304.46 1031.91,304.73 1032.65,303.92 1033.39,304.46 1034.12,304.46 1034.86,303.92 1035.60,304.46 1036.37,304.46 1037.11,302.30 1037.85,302.03 1038.58,304.46 1039.31,297.17 1040.04,303.92 1040.78,304.46 1041.52,303.92 1042.25,303.65 1042.99,303.65 1043.72,303.92 1044.45,303.92 1045.18,303.65 1045.92,303.92 1046.66,303.92 1047.39,303.92 1048.13,304.73 1048.87,303.92 1049.60,304.46 1050.34,304.73 1051.09,301.76 1051.82,304.46 1052.56,303.92 1053.30,304.46 1054.03,304.46 1054.77,304.46 1055.51,303.92 1056.25,304.46 1057.00,303.92 1057.73,304.46 1058.46,304.46 1059.20,303.92 1059.94,304.46 1060.68,304.46 1061.44,301.76 1062.18,304.46 1062.92,303.92 1063.66,304.46 1064.40,303.65 1065.14,303.38 1065.87,304.46 1066.61,304.46 1067.36,303.92 1068.09,303.65 1068.82,304.73 1069.56,304.73 1070.31,304.73 1071.05,303.92 1071.79,304.73 1072.54,304.73 1073.30,302.84 1074.08,303.92 1074.83,304.46 1075.56,304.46 1076.30,303.11 1077.03,303.65 1077.77,303.65 1078.51,304.46 1079.25,304.73 1079.99,304.46 1080.73,303.65 1081.47,303.92 1082.20,303.92 1082.94,304.73 1083.67,300.68 1084.41,304.73 1085.16,303.92 1085.91,304.46 1086.67,304.46 1087.41,304.46 1088.16,304.46 1088.93,304.46 1089.67,304.46 1090.45,303.92 1091.19,304.46 1091.93,304.46 1092.68,304.46 1093.41,304.46 1094.15,304.46 1094.89,304.46 1095.62,304.73 1096.36,304.73 1097.10,303.92 1097.84,303.38 1098.59,303.38 1099.33,304.46 1100.07,304.73 1100.82,303.92 1101.68,303.92 1102.42,304.46 1103.15,304.73 1103.89,304.73 1104.62,304.73 1105.35,303.92 1106.08,304.46 1106.76,304.46 1107.42,304.46 1108.22,296.90 1108.92,304.46 1109.59,304.46 1110.34,303.65 1110.98,304.46 1111.72,304.46 1112.46,304.46 1113.20,304.46 1113.93,303.92 1114.66,304.73 1115.40,304.46 1116.13,303.92 1116.86,302.84 1117.61,304.73 1118.34,300.95 1119.07,303.65 1119.81,303.92 1120.55,304.73 1121.28,304.46 1122.02,303.92 1122.75,303.38 1123.48,304.46 1124.21,303.92 1124.94,303.65 1125.68,304.73 1126.41,303.92 1127.15,303.92 1127.90,304.46 1128.63,304.73 1129.35,304.46 1130.09,304.46 1130.82,304.46 1131.56,303.65 1132.29,304.46 1133.02,303.92 1133.75,304.73 1134.49,303.92 1135.22,304.73 1135.96,303.92 1136.69,304.46 1137.43,304.46 1138.17,304.46 1138.90,303.92 1139.64,304.46 1140.37,304.46 1141.10,304.46 1141.84,304.73 1142.58,304.46 1143.31,302.57 1144.03,304.46 1144.77,303.11 1145.50,303.92 1146.23,304.73 1146.96,297.44 1147.69,304.73 1148.44,304.73 1149.19,304.46 1149.92,304.73 1150.65,303.65 1151.39,304.46 1152.13,304.73 1152.87,303.92 1153.60,304.46 1154.34,304.46 1155.08,304.46 1155.81,304.19 1156.54,304.73 1157.28,304.73 1158.01,303.38 1158.75,304.73 1159.48,304.73 1160.22,304.46 1160.95,304.73 1161.69,304.73 1162.43,304.46 1163.16,304.46 1163.90,304.73 1164.63,302.84 1165.37,303.65 1166.10,304.73 1166.84,303.92 1167.58,304.46 1168.38,304.46 1169.12,303.38 1169.85,303.65 1170.59,304.73 1171.32,303.92 1172.06,304.46 1172.78,303.92 1173.53,300.95 1174.56,303.92 1175.29,303.92 1176.32,303.92 1177.05,293.93 1177.79,304.73 1178.53,297.44 1179.26,303.38 1180.00,304.73"/>
<polyline fill="none" stroke="#d62728" stroke-opacity="0.80" stroke-width="2" points="70.00,303.38 70.74,304.19 71.47,302.57 72.21,303.38 72.94,304.19 73.68,287.72 74.41,303.38 75.15,304.19 75.95,304.19 76.68,303.38 77.41,303.38 78.14,304.19 78.89,304.19 79.62,304.19 80.35,304.19 81.67,304.19 82.81,302.57 83.55,304.19 84.30,304.19 85.04,304.19 85.77,303.38 86.49,303.38 87.23,304.19 87.96,302.57 88.70,302.57 89.44,303.38 90.19,303.38 90.93,304.19 91.67,303.38 92.44,35.00 93.18,303.38 93.91,35.00 94.67,35.00 95.40,303.38 96.14,304.19 96.89,35.00 97.62,303.38 98.36,302.57 99.11,304.19 99.83,303.38 100.57,303.38 101.29,302.57 102.03,304.19 102.76,303.38 103.50,303.38 104.25,302.57 104.99,303.38 105.71,35.00 106.45,303.38 107.19,304.19 107.92,304.19 108.76,302.57 109.50,35.00 110.23,304.19 110.96,303.38 111.69,304.19 112.42,303.38 113.15,303.38 113.89,304.19 114.62,35.00 115.37,304.19 116.10,304.19 116.83,304.19 117.57,303.38 118.31,304.19 119.04,302.57 119.78,304.19 120.51,302.57 121.24,302.57 121.97,303.38 122.70,288.80 123.43,302.57 124.16,304.19 124.89,304.19 125.63,303.38 126.36,304.19 127.09,300.14 127.83,304.19 128.56,304.19 129.29,304.19 130.04,35.00 130.77,35.00 131.51,302.57 132.25,35.00 132.98,35.00 133.72,303.38 134.45,304.19 135.17,35.00 135.90,304.19 136.64,304.19 137.38,304.19 138.11,304.19 138.86,303.38 139.58,303.38 140.32,304.19 141.05,304.19 141.78,303.38 142.51,286.91 143.24,303.38 143.97,304.19 144.71,304.19 145.45,304.19 146.18,303.38 146.92,304.19 147.66,304.19 148.40,303.38 149.13,302.57 149.87,302.57 150.60,304.19 151.33,302.57 152.07,304.19 152.81,304.19 153.54,304.19 154.27,35.00 155.01,304.19 155.75,304.19 156.49,302.57 157.23,35.00 157.96,35.00 158.70,303.38 159.43,304.19 160.17,303.38 160.90,304.19 161.64,304.19 162.44,302.57 163.17,304.19 163.91,35.00 164.64,35.00 165.37,302.57 166.10,304.19 166.82,304.19 167.55,303.38 168.29,35.00 169.02,303.38 169.75,35.00 170.49,304.19 171.22,304.19 171.95,304.19 172.70,303.38 173.43,303.38 174.16,304.19 174.89,304.19 175.62,295.28 176.36,35.00 177.09,303.38 177.83,35.00 178.57,35.00 179.30,302.57 180.03,304.19 180.76,299.33 181.49,304.19 182.22,304.19 182.96,304.19 183.70,303.38 184.44,303.38 185.17,303.38 185.91,302.57 186.65,303.38 187.38,304.19 188.11,303.38 188.85,304.19 189.58,303.38 190.33,304.19 191.07,303.38 191.80,303.38 192.54,302.57 193.27,303.38 194.00,304.19 194.73,303.38 195.47,35.00 196.20,304.19 196.92,303.38 197.65,302.57 198.40,304.19 199.13,304.19 199.87,303.38 200.60,303.38 201.35,304.19 202.08,35.00 202.82,303.38 203.55,35.00 204.28,302.57 205.08,303.38 205.83,304.19 206.55,35.00 207.29,303.38 208.01,35.00 208.75,304.19 209.48,304.19 210.22,35.00 210.95,304.19 211.68,302.57 212.42,302.57 213.15,303.38 213.90,35.00 214.63,302.57 215.36,304.19 216.10,301.76 216.84,303.38 217.59,303.38 218.34,304.19 219.07,303.38 219.80,303.38 220.54,304.19 221.27,304.19 222.00,303.38 222.74,304.19 223.48,304.19 224.21,303.38 224.94,35.00 225.68,304.19 226.42,303.38 227.15,304.19 227.89,304.19 228.63,304.19 229.37,35.00 230.10,35.00 230.82,302.57 231.55,302.57 232.29,304.19 233.02,303.38 233.75,302.57 234.49,302.57 235.21,35.00 235.95,304.19 236.69,35.00 237.42,303.38 238.16,35.00 238.90,303.38 239.64,303.38 240.38,303.38 241.11,35.00 241.85,304.19 242.58,302.57 243.31,303.38 244.05,304.19 244.80,303.38 245.54,35.00 246.27,303.38 247.01,304.19 247.74,303.38 248.48,304.19 249.20,35.00 249.93,302.57 250.67,304.19 251.41,304.19 252.14,303.38 252.88,303.38 253.62,304.19 254.35,303.38 255.09,304.19 255.83,304.19 256.57,304.19 257.30,303.38 258.03,302.57 258.77,304.19 259.51,35.00 260.25,295.28 260.98,303.38 261.72,302.57 262.53,303.38 263.27,301.76 264.01,35.00 264.74,304.19 265.48,303.38 266.22,304.19 266.96,304.19 267.69,299.33 268.42,304.19 269.18,303.38 269.92,302.57 270.65,303.38 271.39,302.57 272.12,304.19 272.86,304.19 273.59,304.19 274.35,302.57 275.09,303.38 275.82,303.38 276.57,35.00 277.36,303.38 278.09,303.38 279.02,304.19 280.26,302.57 281.01,303.38 281.76,303.38 282.49,303.38 283.21,304.19 283.94,303.38 284.69,304.19 285.43,304.19 286.17,303.38 286.93,304.19 287.69,304.19 288.47,304.19 289.21,304.19 289.94,302.57 290.68,35.00 291.42,304.19 292.17,302.57 292.91,303.38 293.64,303.38 294.37,303.38 295.14,304.19 295.88,304.19 296.60,303.38 297.34,304.19 298.09,303.38 298.85,304.19 299.59,303.38 300.32,304.19 301.08,287.18 301.78,288.53 302.51,301.76 303.26,302.57 303.99,303.38 304.74,35.00 305.50,35.00 306.23,303.38 306.97,303.38 307.71,304.19 308.45,304.19 309.19,35.00 309.92,304.19 310.65,35.00 311.39,303.38 312.13,303.38 312.86,302.57 313.73,303.38 314.60,303.38 315.47,300.95 316.32,303.38 317.16,302.57 318.01,304.19 318.88,304.19 319.73,35.00 320.47,303.38 321.19,303.38 321.93,304.19 322.66,304.19 323.40,302.57 324.12,303.38 324.85,304.19 325.58,303.38 326.32,303.38 327.05,304.19 327.79,303.38 328.52,304.19 329.25,303.38 329.98,303.38 330.71,304.19 331.44,303.38 332.18,35.00 332.90,304.19 333.64,304.19 334.38,303.38 335.11,304.19 335.83,304.19 336.56,35.00 337.30,303.38 338.03,304.19 338.77,304.19 339.50,304.19 340.23,302.57 340.97,35.00 341.70,303.38 342.43,287.72 343.16,304.19 343.89,304.19 344.63,303.38 345.35,301.76 346.07,303.38 346.81,304.19 347.54,302.57 348.26,303.38 349.00,303.38 349.73,303.38 350.46,303.38 351.18,304.19 351.91,303.38 352.63,302.57 353.39,304.19 354.18,303.38 354.92,303.38 355.65,303.38 356.38,303.38 357.11,304.19 357.84,304.19 358.57,304.19 359.30,304.19 360.17,303.38 361.03,303.38 361.88,304.19 362.74,302.57 363.60,304.19 364.46,303.38 365.34,302.57 366.23,304.19 367.03,303.38 367.82,303.38 368.55,303.38 369.29,302.57 370.03,35.00 370.75,35.00 371.48,304.19 372.22,303.38 372.95,35.00 373.68,35.00 374.41,303.38 375.15,304.19 375.88,304.19 376.61,304.19 377.36,303.38 378.09,304.19 378.82,304.19 379.46,304.19 380.22,304.19 380.95,287.72 381.70,303.38 382.43,302.57 383.16,303.38 383.90,303.38 384.64,304.19 385.38,304.19 386.12,303.38 386.86,302.57 387.61,304.19 388.34,303.38 389.06,302.57 389.80,304.19 390.52,301.76 391.26,304.19 391.98,304.19 392.73,303.38 393.46,303.38 394.19,304.19 394.92,303.38 395.65,301.76 396.39,304.19 397.12,304.19 397.86,304.19 398.60,35.00 399.33,303.38 400.07,304.19 400.81,304.19 401.54,304.19 402.30,304.19 403.03,35.00 403.76,35.00 404.49,302.57 405.22,304.19 405.95,35.00 406.69,304.19 407.42,303.38 408.15,302.57 408.88,302.57 409.61,304.19 410.34,303.38 411.08,304.19 411.82,303.38 412.55,301.76 413.44,304.19 414.19,304.19 414.95,304.19 415.69,302.57 416.42,304.19 417.16,304.19 417.89,304.19 418.62,303.38 419.36,304.19 420.10,303.38 420.83,35.00 421.57,302.57 422.31,304.19 423.04,302.57 423.80,304.19 424.55,303.38 425.28,304.19 426.02,303.38 426.75,35.00 427.49,302.57 428.22,303.38 428.95,304.19 429.72,304.19 430.45,304.19 431.19,304.19 431.93,303.38 432.66,304.19 433.40,304.19 434.13,304.19 434.86,304.19 435.60,304.19 436.34,304.19 437.08,302.57 437.81,304.19 438.54,303.38 439.28,304.19 440.01,304.19 440.76,304.19 441.49,304.19 442.23,35.00 442.96,304.19 443.69,301.76 444.44,217.79 445.17,304.19 446.06,35.00 446.81,303.38 447.55,302.57 448.28,304.19 449.01,303.38 449.75,304.19 450.49,303.38 451.22,304.19 451.97,304.19 452.70,303.38 453.44,35.00 454.17,35.00 454.90,304.19 455.64,302.57 456.37,304.19 457.11,304.19 457.84,304.19 458.57,303.38 459.30,304.19 460.03,302.57 460.78,304.19 461.51,35.00 462.24,35.00 462.98,303.38 463.73,304.19 464.46,303.38 465.19,300.95 465.93,304.19 466.68,304.19 467.41,304.19 468.15,303.38 468.89,303.38 469.62,302.57 470.35,35.00 471.09,303.38 471.83,35.00 472.58,35.00 473.31,303.38 474.05,304.19 474.77,302.57 475.51,304.19 476.24,304.19 476.98,303.38 477.71,303.38 478.45,296.09 479.20,304.19 479.94,304.19 480.65,304.19 481.40,302.57 482.13,35.00 482.86,303.38 483.60,304.19 484.33,302.57 485.06,302.57 485.81,303.38 486.54,35.00 487.28,303.38 488.02,303.38 488.76,304.19 489.50,304.19 490.23,303.38 490.97,304.19 491.80,303.38 492.61,303.38 493.39,302.57 494.14,304.19 494.90,303.38 495.64,303.38 496.38,304.19 497.10,35.00 497.79,303.38 498.56,287.18 499.29,304.19 500.04,286.37 500.76,302.57 501.50,304.19 502.23,304.19 502.97,304.19 503.70,304.19 504.44,304.19 505.17,35.00 505.91,303.38 506.65,304.19 507.39,35.00 508.13,304.19 508.87,304.19 509.61,303.38 510.34,304.19 511.08,304.19 511.83,303.38 512.57,303.38 513.30,304.19 514.03,304.19 514.77,304.19 515.50,304.19 516.23,302.57 516.97,35.00 517.70,35.00 518.45,304.19 519.18,303.38 519.91,304.19 520.65,304.19 521.39,304.19 522.13,304.19 522.87,304.19 523.60,301.76 524.33,303.38 525.07,302.57 525.81,304.19 526.55,35.00 527.29,304.19 528.03,304.19 528.77,303.38 529.51,35.00 530.24,304.19 530.98,304.19 531.74,304.19 532.48,35.00 533.22,304.19 533.95,304.19 534.69,303.38 535.42,303.38 536.16,35.00 536.90,35.00 537.64,303.38 538.37,304.19 539.11,302.57 539.85,302.57 540.59,304.19 541.33,295.28 542.07,303.38 542.81,304.19 543.55,304.19 544.29,303.38 545.04,35.00 545.77,304.19 546.50,302.57 547.24,35.00 547.98,302.57 548.74,303.38 549.47,304.19 550.22,303.38 550.96,304.19 551.69,35.00 552.42,35.00 553.16,302.57 553.90,303.38 554.64,295.28 555.37,304.19 556.11,304.19 556.84,303.38 557.58,303.38 558.32,304.19 559.06,304.19 559.79,35.00 560.54,303.38 561.28,303.38 562.02,304.19 562.75,35.00 563.49,304.19 564.22,303.38 564.95,35.00 565.69,304.19 566.43,303.38 567.17,302.57 567.91,304.19 568.65,302.57 569.38,304.19 570.13,303.38 570.87,304.19 571.60,304.19 572.34,304.19 573.09,304.19 573.83,304.19 574.56,304.19 575.30,303.38 576.05,303.38 576.79,304.19 577.53,304.19 578.28,304.19 579.02,304.19 579.76,303.38 580.50,304.19 581.23,304.19 581.98,303.38 582.72,303.38 583.46,35.00 584.20,303.38 584.94,303.38 585.67,304.19 586.40,35.00 587.16,302.57 587.90,304.19 588.64,287.18 589.37,304.19 590.11,35.00 590.84,35.00 591.57,304.19 592.31,304.19 593.05,304.19 593.79,304.19 594.53,303.38 595.26,303.38 596.00,303.38 596.73,304.19 597.49,35.00 598.23,35.00 598.97,35.00 599.71,286.37 600.44,302.57 601.17,301.76 601.91,303.38 602.65,303.38 603.39,286.37 604.13,304.19 604.87,304.19 605.61,304.19 606.34,304.19 607.08,303.38 607.83,35.00 608.59,303.38 609.33,304.19 610.07,303.38 610.81,303.38 611.55,35.00 612.30,304.19 613.03,35.00 613.76,303.38 614.49,302.57 615.24,303.38 615.98,303.38 616.72,303.38 617.46,303.38 618.21,303.38 618.97,304.19 619.71,35.00 620.45,303.38 621.19,304.19 621.92,35.00 622.66,35.00 623.41,304.19 624.15,303.38 624.89,304.19 625.64,304.19 626.38,301.76 627.12,304.19 627.86,303.38 628.60,304.19 629.34,301.76 630.08,304.19 630.81,302.57 631.55,302.57 632.30,303.38 633.04,304.19 633.77,35.00 634.52,35.00 635.26,35.00 636.00,303.38 636.74,303.38 637.48,304.19 638.24,35.00 638.98,302.57 639.73,304.19 640.47,35.00 641.22,304.19 641.98,304.19 642.73,303.38 643.48,303.38 644.24,302.57 644.98,304.19 645.72,303.38 646.46,303.38 647.20,304.19 647.94,35.00 648.68,304.19 649.44,35.00 650.18,304.19 650.92,303.38 651.66,35.00 652.39,302.57 653.13,303.38 653.87,298.52 654.61,303.38 655.34,304.19 656.08,303.38 656.81,304.19 657.55,304.19 658.28,35.00 659.02,304.19 659.76,304.19 660.50,35.00 661.24,304.19 661.98,303.38 662.73,304.19 663.46,35.00 664.20,303.38 664.94,303.38 665.68,304.19 666.41,304.19 667.15,304.19 667.89,304.19 668.63,298.52 669.36,303.38 670.09,302.57 670.83,304.19 671.56,302.57 672.31,303.38 673.04,304.19 673.78,304.19 674.52,303.38 675.26,303.38 675.99,304.19 676.73,304.19 677.47,35.00 678.19,35.00 678.93,304.19 679.65,304.19 680.39,303.38 681.13,303.38 681.88,301.76 682.62,304.19 683.35,304.19 684.09,284.75 684.84,303.38 685.59,303.38 686.32,304.19 687.07,304.19 687.80,304.19 688.54,303.38 689.29,303.38 690.02,304.19 690.77,303.38 691.52,303.38 692.25,303.38 692.98,304.19 693.72,304.19 694.46,303.38 695.19,302.57 695.93,303.38 696.66,304.19 697.40,303.38 698.14,304.19 698.88,304.19 699.61,35.00 700.35,303.38 701.08,304.19 701.82,302.57 702.56,304.19 703.30,304.19 704.04,304.19 704.78,303.38 705.52,301.76 706.26,35.00 706.99,304.19 707.73,303.38 708.47,304.19 709.21,35.00 709.94,304.19 710.69,304.19 711.43,304.19 712.16,304.19 712.90,304.19 713.63,35.00 714.40,35.00 715.13,303.38 715.89,304.19 716.63,304.19 717.37,302.57 718.11,35.00 718.85,302.57 719.60,35.00 720.34,35.00 721.07,303.38 721.81,303.38 722.57,304.19 723.31,304.19 724.04,35.00 724.79,304.19 725.52,303.38 726.27,302.57 727.01,304.19 727.74,304.19 728.47,303.38 729.21,302.57 729.95,304.19 730.69,304.19 731.42,304.19 732.17,304.19 732.90,35.00 733.63,35.00 734.37,304.19 735.10,303.38 735.84,35.00 736.59,304.19 737.33,302.57 738.06,304.19 738.80,304.19 739.54,304.19 740.27,294.47 741.01,303.38 741.75,35.00 742.50,304.19 743.24,304.19 743.97,302.57 744.70,304.19 745.44,304.19 746.18,304.19 746.91,303.38 747.66,304.19 748.42,303.38 749.17,304.19 749.92,304.19 750.67,302.57 751.43,302.57 752.18,304.19 752.94,304.19 753.70,301.76 754.45,301.76 755.21,35.00 755.95,304.19 756.68,303.38 757.43,304.19 758.17,304.19 758.91,303.38 759.65,304.19 760.39,35.00 761.14,35.00 761.87,303.38 762.61,304.19 763.35,304.19 764.08,302.57 764.82,303.38 765.55,304.19 766.29,303.38 767.03,304.19 767.77,304.19 768.51,302.57 769.26,35.00 770.00,304.19 770.74,35.00 771.47,35.00 772.21,304.19 772.95,304.19 773.69,303.38 774.43,303.38 775.17,304.19 775.90,304.19 776.65,303.38 777.38,304.19 778.12,304.19 778.86,304.19 779.60,304.19 780.34,304.19 781.13,303.38 781.89,35.00 782.62,301.76 783.36,35.00 784.10,302.57 784.85,304.19 785.59,304.19 786.34,304.19 787.08,303.38 787.81,304.19 788.53,302.57 789.27,304.19 790.01,35.00 790.75,303.38 791.49,304.19 792.22,303.38 792.97,303.38 793.71,302.57 794.45,35.00 795.19,304.19 795.92,35.00 796.66,304.19 797.40,295.28 798.14,304.19 798.88,303.38 799.61,297.71 800.36,304.19 801.10,35.00 801.84,302.57 802.61,302.57 803.35,304.19 804.09,304.19 804.82,303.38 805.56,304.19 806.30,303.38 807.04,304.19 807.79,304.19 808.52,303.38 809.26,304.19 810.00,304.19 810.75,304.19 811.50,303.38 812.24,304.19 812.98,303.38 813.71,35.00 814.45,304.19 815.19,303.38 815.93,303.38 816.66,303.38 817.41,304.19 818.15,35.00 818.89,303.38 819.63,35.00 820.36,304.19 821.10,35.00 821.84,35.00 822.57,304.19 823.31,35.00 824.05,304.19 824.79,304.19 825.53,35.00 826.27,304.19 827.00,304.19 827.75,303.38 828.49,303.38 829.23,303.38 829.96,304.19 830.69,303.38 831.42,35.00 832.16,303.38 832.91,304.19 833.64,303.38 834.40,302.57 835.14,303.38 835.88,304.19 836.62,304.19 837.36,286.91 838.11,301.76 838.91,303.38 839.66,303.38 840.40,304.19 841.15,303.38 841.90,304.19 842.63,303.38 843.37,304.19 844.11,304.19 844.85,304.19 845.59,304.19 846.33,302.57 847.07,35.00 847.81,303.38 848.56,303.38 849.31,35.00 850.05,303.38 850.79,304.19 851.52,304.19 852.27,303.38 853.01,303.38 853.74,303.38 854.48,303.38 855.23,303.38 855.97,304.19 856.71,303.38 857.45,301.76 858.19,304.19 858.93,304.19 859.68,303.38 860.42,304.19 861.17,35.00 861.90,304.19 862.64,35.00 863.39,303.38 864.12,303.38 864.85,303.38 865.59,304.19 866.33,301.76 867.07,35.00 867.81,35.00 868.55,302.57 869.28,304.19 870.03,35.00 870.77,304.19 871.50,304.19 872.25,304.19 872.99,304.19 873.74,304.19 874.48,35.00 875.20,35.00 875.92,35.00 876.65,304.19 877.40,304.19 878.14,303.38 878.88,304.19 879.63,302.57 880.36,302.57 881.11,303.38 881.86,304.19 882.59,303.38 883.33,304.19 884.06,303.38 884.80,35.00 885.53,303.38 886.27,35.00 887.01,304.19 887.75,304.19 888.48,304.19 889.22,304.19 889.95,302.57 890.69,35.00 891.43,304.19 892.17,303.38 892.90,287.72 893.64,286.10 894.35,304.19 895.11,35.00 895.85,304.19 896.59,301.76 897.33,304.19 898.08,35.00 898.81,304.19 899.55,303.38 900.29,304.19 901.03,304.19 901.77,301.76 902.51,299.33 903.30,302.57 904.04,304.19 904.79,303.38 905.53,35.00 906.28,35.00 907.00,303.38 907.74,303.38 908.49,304.19 909.22,285.02 909.96,304.19 910.70,304.19 911.43,304.19 912.18,304.19 912.92,303.38 913.66,302.57 914.40,303.38 915.14,35.00 915.88,35.00 916.62,304.19 917.36,302.57 918.10,303.38 918.85,35.00 919.61,303.38 920.35,303.38 921.09,35.00 921.83,304.19 922.57,303.38 923.32,302.57 924.06,303.38 924.79,304.19 925.53,304.19 926.27,303.38 927.00,303.38 927.74,35.00 928.49,302.57 929.23,35.00 929.97,35.00 930.71,304.19 931.44,304.19 932.17,303.38 932.91,304.19 933.66,303.38 934.39,35.00 935.13,304.19 935.87,304.19 936.60,35.00 937.33,304.19 938.06,302.57 938.80,300.95 939.53,35.00 940.27,35.00 941.01,35.00 941.74,303.38 942.47,303.38 943.21,304.19 943.95,304.19 944.69,303.38 945.42,302.57 946.16,303.38 946.89,304.19 947.62,304.19 948.38,304.19 949.11,304.19 949.84,303.38 950.58,303.38 951.36,303.38 952.09,302.57 952.83,304.19 953.57,303.38 954.31,304.19 955.06,304.19 955.80,304.19 956.54,302.57 957.28,304.19 958.01,302.57 958.74,35.00 959.48,304.19 960.22,303.38 960.96,304.19 961.70,35.00 962.43,304.19 963.17,303.38 963.91,303.38 964.64,304.19 965.38,303.38 966.13,35.00 966.90,304.19 967.63,303.38 968.37,303.38 969.09,303.38 969.82,304.19 970.58,35.00 971.31,303.38 972.05,303.38 972.79,304.19 973.53,302.57 974.27,304.19 975.01,304.19 975.75,304.19 976.49,303.38 977.23,304.19 977.97,303.38 978.71,304.19 979.44,301.76 980.18,303.38 980.91,304.19 981.64,304.19 982.38,35.00 983.12,298.52 983.85,303.38 984.59,304.19 985.33,302.57 986.07,303.38 986.81,304.19 987.55,304.19 988.29,302.57 989.02,301.76 989.76,35.00 990.49,304.19 991.24,304.19 991.97,304.19 992.71,304.19 993.45,35.00 994.18,35.00 994.92,303.38 995.65,35.00 996.40,302.57 997.13,304.19 997.89,304.19 998.62,304.19 999.36,304.19 1000.10,304.19 1000.84,304.19 1001.58,302.57 1002.33,303.38 1003.07,304.19 1003.86,35.00 1004.60,304.19 1005.39,302.57 1006.13,304.19 1006.86,304.19 1007.59,302.57 1008.33,302.57 1009.07,304.19 1009.81,304.19 1010.55,303.38 1011.29,304.19 1012.02,303.38 1012.76,304.19 1013.50,303.38 1014.23,301.76 1014.97,35.00 1015.71,302.57 1016.44,303.38 1017.18,302.57 1017.91,303.38 1018.66,303.38 1019.39,303.38 1020.14,303.38 1020.87,303.38 1021.60,302.57 1022.34,304.19 1023.08,301.76 1023.82,302.57 1024.56,302.57 1025.30,302.57 1026.04,304.19 1026.78,304.19 1027.51,302.57 1028.24,35.00 1028.98,304.19 1029.71,301.76 1030.45,304.19 1031.18,303.38 1031.91,303.38 1032.65,304.19 1033.39,304.19 1034.12,303.38 1034.86,303.38 1035.60,302.57 1036.37,304.19 1037.11,304.19 1037.85,304.19 1038.58,35.00 1039.31,303.38 1040.04,302.57 1040.78,302.57 1041.52,303.38 1042.25,304.19 1042.99,303.38 1043.72,304.19 1044.45,304.19 1045.18,304.19 1045.92,302.57 1046.66,303.38 1047.39,35.00 1048.13,302.57 1048.87,35.00 1049.60,304.19 1050.34,300.14 1051.09,35.00 1051.82,304.19 1052.56,303.38 1053.30,35.00 1054.03,304.19 1054.77,304.19 1055.51,302.57 1056.25,303.38 1057.00,304.19 1057.73,304.19 1058.46,304.19 1059.20,304.19 1059.94,304.19 1060.68,35.00 1061.44,304.19 1062.18,303.38 1062.92,304.19 1063.66,303.38 1064.40,303.38 1065.14,303.38 1065.87,35.00 1066.61,304.19 1067.36,304.19 1068.09,304.19 1068.82,302.57 1069.56,304.19 1070.31,35.00 1071.05,302.57 1071.79,304.19 1072.54,287.99 1073.30,302.57 1074.08,303.38 1074.83,304.19 1075.56,304.19 1076.30,35.00 1077.03,304.19 1077.77,303.38 1078.51,303.38 1079.25,304.19 1079.99,304.19 1080.73,304.19 1081.47,286.37 1082.20,303.38 1082.94,303.38 1083.67,304.19 1084.41,303.38 1085.16,287.72 1085.91,304.19 1086.67,303.38 1087.41,304.19 1088.16,35.00 1088.93,304.19 1089.67,270.71 1090.45,304.19 1091.19,304.19 1091.93,304.19 1092.68,35.00 1093.41,303.38 1094.15,304.19 1094.89,302.57 1095.62,302.57 1096.36,304.19 1097.10,303.38 1097.84,304.19 1098.59,302.57 1099.33,302.57 1100.07,303.38 1100.82,304.19 1101.68,304.19 1102.42,304.19 1103.15,304.19 1103.89,303.38 1104.62,303.38 1105.35,302.57 1106.08,304.19 1106.76,304.19 1107.42,302.57 1109.59,35.00 1110.98,302.57 1111.72,35.00 1112.46,302.57 1113.20,304.19 1113.93,35.00 1114.66,286.91 1115.40,303.38 1116.13,303.38 1116.86,303.38 1117.61,35.00 1118.34,303.38 1119.07,303.38 1119.81,304.19 1120.55,304.19 1121.28,304.19 1122.02,303.38 1122.75,303.38 1123.48,303.38 1124.21,304.19 1124.94,304.19 1125.68,35.00 1126.41,304.19 1127.15,35.00 1127.90,304.19 1128.63,303.38 1129.35,301.76 1130.09,303.38 1130.82,304.19 1131.56,304.19 1132.29,304.19 1133.02,304.19 1133.75,301.76 1134.49,303.38 1135.22,35.00 1135.96,35.00 1136.69,304.19 1137.43,303.38 1138.17,35.00 1138.90,303.38 1139.64,35.00 1140.37,304.19 1141.10,304.19 1141.84,35.00 1142.58,35.00 1143.31,303.38 1144.03,304.19 1144.77,303.38 1145.50,303.38 1146.23,304.19 1146.96,304.19 1147.69,303.38 1148.44,35.00 1149.19,304.19 1149.92,304.19 1150.65,304.19 1151.39,304.19 1152.13,303.38 1152.87,35.00 1153.60,35.00 1154.34,35.00 1155.08,35.00 1155.81,304.19 1156.54,304.19 1157.28,304.19 1158.01,304.19 1158.75,304.19 1159.48,304.19 1160.22,303.38 1160.95,304.19 1161.69,35.00 1162.43,303.38 1163.16,303.38 1163.90,303.38 1164.63,304.19 1165.37,302.57 1166.10,302.57 1166.84,302.57 1167.58,303.38 1168.38,304.19 1169.12,303.38 1169.85,304.19 1170.59,302.57 1171.32,304.19 1172.06,304.19 1172.78,304.19 1173.53,304.19 1174.56,303.38 1175.29,286.37 1176.32,304.19 1177.05,303.38 1177.79,303.38 1178.53,303.38 1179.26,304.19 1180.00,304.19"/>
<polyline fill="none" stroke="#d62728" stroke-opacity="0.65" stroke-width="2" points="70.00,35.00 70.74,304.46 71.47,304.46 72.21,302.30 72.94,304.46 73.68,303.38 74.41,304.46 75.15,304.46 75.95,35.00 76.68,304.46 77.41,304.46 78.14,303.92 78.89,303.92 79.62,304.46 80.35,304.46 81.67,303.92 82.81,304.46 83.55,35.00 84.30,303.92 85.04,302.84 85.77,304.46 86.49,303.92 87.23,302.84 87.96,35.00 88.70,303.92 89.44,35.00 90.19,35.00 90.93,35.00 91.67,303.92 92.44,35.00 93.18,303.38 93.91,303.92 94.67,304.46 95.40,35.00 96.14,35.00 96.89,304.46 97.62,35.00 98.36,304.46 99.11,35.00 99.83,304.46 100.57,303.92 101.29,35.00 102.03,304.46 102.76,304.46 103.50,293.12 104.25,35.00 104.99,304.46 105.71,304.46 106.45,304.46 107.19,35.00 107.92,304.46 108.76,304.46 109.50,304.46 110.23,35.00 110.96,35.00 111.69,304.46 112.42,304.46 113.15,303.38 113.89,303.92 114.62,304.46 115.37,35.00 116.10,304.46 116.83,304.46 117.57,35.00 118.31,304.46 119.04,303.92 119.78,304.46 120.51,304.46 121.24,35.00 121.97,303.92 122.70,303.92 123.43,304.46 124.16,303.92 124.89,303.92 125.63,35.00 126.36,303.92 127.09,304.46 127.83,304.46 128.56,303.38 129.29,35.00 130.04,304.46 130.77,303.38 131.51,304.46 132.25,35.00 132.98,304.46 133.72,304.46 134.45,303.92 135.17,303.92 135.90,303.92 136.64,304.46 137.38,303.92 138.11,304.46 138.86,303.92 139.58,35.00 140.32,303.92 141.05,303.92 141.78,304.46 142.51,304.46 143.24,303.92 143.97,303.92 144.71,35.00 145.45,35.00 146.18,303.92 146.92,35.00 147.66,304.46 148.40,304.46 149.13,304.46 149.87,304.46 150.60,303.92 151.33,304.46 152.07,303.38 152.81,304.46 153.54,303.92 154.27,35.00 155.01,304.46 155.75,303.92 156.49,303.92 157.23,303.92 157.96,304.46 158.70,35.00 159.43,304.46 160.17,304.46 160.90,35.00 161.64,303.92 162.44,304.46 163.17,303.92 163.91,304.46 164.64,304.46 165.37,303.92 166.10,303.92 166.82,304.46 167.55,304.46 168.29,304.46 169.02,303.38 169.75,304.46 170.49,35.00 171.22,303.92 171.95,35.00 172.70,304.46 173.43,35.00 174.16,35.00 174.89,303.92 175.62,303.92 176.36,304.46 177.09,304.46 177.83,304.46 178.57,303.92 179.30,304.46 180.03,304.46 180.76,303.92 181.49,35.00 182.22,304.46 182.96,35.00 183.70,303.92 184.44,304.46 185.17,304.46 185.91,35.00 186.65,35.00 187.38,35.00 188.11,304.46 188.85,303.92 189.58,304.46 190.33,303.92 191.07,303.92 191.80,304.46 192.54,304.46 193.27,304.46 194.00,304.46 194.73,304.46 195.47,304.46 196.20,304.46 196.92,282.59 197.65,304.46 198.40,303.92 199.13,304.46 199.87,304.46 200.60,304.46 201.35,303.38 202.08,304.46 202.82,304.46 203.55,303.92 204.28,304.46 205.08,303.92 205.83,304.46 206.55,304.46 207.29,304.46 208.01,304.46 208.75,304.46 209.48,303.38 210.22,304.46 210.95,304.46 211.68,304.46 212.42,303.92 213.15,35.00 213.90,304.46 214.63,303.92 215.36,303.92 216.10,303.92 216.84,35.00 217.59,304.46 218.34,304.46 219.07,35.00 219.80,303.92 220.54,35.00 221.27,35.00 222.00,304.46 222.74,304.46 223.48,35.00 224.21,35.00 224.94,304.46 225.68,304.46 226.42,303.92 227.15,303.92 227.89,304.46 228.63,304.46 229.37,304.46 230.10,303.92 230.82,304.46 231.55,304.46 232.29,303.92 233.02,303.38 233.75,304.46 234.49,35.00 235.21,304.46 235.95,35.00 236.69,35.00 237.42,303.92 238.16,303.92 238.90,304.46 239.64,304.46 240.38,304.46 241.11,303.92 241.85,297.98 242.58,35.00 243.31,304.46 244.05,303.92 244.80,304.46 245.54,303.92 246.27,35.00 247.01,303.92 247.74,304.46 248.48,35.00 249.20,303.92 249.93,304.46 250.67,304.46 251.41,35.00 252.14,303.92 252.88,303.92 253.62,35.00 254.35,303.92 255.09,303.92 255.83,35.00 256.57,303.92 257.30,304.46 258.03,303.92 258.77,304.46 259.51,303.92 260.25,35.00 260.98,304.46 261.72,35.00 262.53,35.00 263.27,303.92 264.01,303.38 264.74,303.38 265.48,303.38 266.22,35.00 266.96,304.46 267.69,304.46 268.42,304.46 269.18,35.00 269.92,304.46 270.65,304.46 271.39,304.46 272.12,35.00 272.86,304.46 273.59,304.46 274.35,293.66 275.09,303.92 275.82,304.46 276.57,303.92 277.36,304.46 278.09,35.00 279.02,304.46 280.26,304.46 281.01,304.46 281.76,304.46 282.49,35.00 283.21,304.46 283.94,304.46 284.69,303.92 285.43,35.00 286.17,304.46 286.93,35.00 287.69,303.38 288.47,304.46 289.21,304.46 289.94,35.00 290.68,35.00 291.42,304.46 292.17,35.00 292.91,304.46 293.64,304.46 294.37,304.46 295.14,35.00 295.88,303.92 296.60,35.00 297.34,304.46 298.09,304.46 298.85,297.98 299.59,304.46 300.32,35.00 301.08,293.12 301.78,35.00 302.51,303.92 303.26,35.00 303.99,304.46 304.74,304.46 305.50,303.92 306.23,304.46 306.97,304.46 307.71,303.92 308.45,303.92 309.19,304.46 309.92,303.92 310.65,35.00 311.39,304.46 312.13,304.46 312.86,304.46 313.73,304.46 314.60,303.92 315.47,304.46 316.32,304.46 317.16,303.38 318.01,303.92 318.88,303.92 319.73,304.46 320.47,35.00 321.19,35.00 321.93,304.46 322.66,304.46 323.40,303.92 324.12,304.46 324.85,303.92 325.58,35.00 326.32,304.46 327.05,304.46 327.79,304.46 328.52,304.46 329.25,293.12 329.98,304.46 330.71,35.00 331.44,303.92 332.18,303.92 332.90,304.46 333.64,304.46 334.38,35.00 335.11,303.92 335.83,304.46 336.56,304.46 337.30,304.46 338.03,35.00 338.77,297.98 339.50,303.92 340.23,303.38 340.97,304.46 341.70,35.00 342.43,302.84 343.16,303.92 343.89,35.00 344.63,35.00 345.35,303.92 346.07,302.84 346.81,304.46 347.54,303.38 348.26,35.00 349.00,304.46 349.73,304.46 350.46,304.46 351.18,303.92 351.91,304.46 352.63,35.00 353.39,304.46 354.18,303.92 354.92,35.00 355.65,303.92 356.38,303.92 357.11,304.46 357.84,304.46 358.57,304.46 359.30,303.92 360.17,304.46 361.03,304.46 361.88,303.92 362.74,304.46 363.60,303.92 364.46,303.92 365.34,304.46 366.23,303.92 367.03,303.92 367.82,303.92 368.55,35.00 369.29,35.00 370.03,35.00 370.75,303.92 371.48,304.46 372.22,304.46 372.95,304.46 373.68,304.46 374.41,304.46 375.15,35.00 375.88,304.46 376.61,303.38 377.36,35.00 378.09,35.00 378.82,303.92 379.46,282.32 380.22,282.05 380.95,304.46 381.70,35.00 382.43,303.38 383.16,304.46 383.90,35.00 384.64,35.00 385.38,35.00 386.12,303.92 386.86,304.46 387.61,304.46 388.34,303.92 389.06,35.00 389.80,303.38 390.52,303.92 391.26,304.46 391.98,303.92 392.73,304.46 393.46,304.46 394.19,304.46 394.92,304.46 395.65,304.46 396.39,303.92 397.12,303.92 397.86,303.92 398.60,304.46 399.33,304.46 400.07,35.00 400.81,35.00 401.54,304.46 402.30,304.46 403.03,304.46 403.76,303.92 404.49,35.00 405.22,303.92 405.95,35.00 406.69,303.92 407.42,304.46 408.15,35.00 408.88,304.46 409.61,35.00 410.34,304.46 411.08,303.92 411.82,304.46 412.55,302.84 413.44,303.92 414.19,303.92 414.95,304.46 415.69,304.46 416.42,303.38 417.16,303.92 417.89,299.06 418.62,35.00 419.36,304.46 420.10,303.92 420.83,304.46 421.57,35.00 422.31,303.92 423.04,303.92 423.80,304.46 424.55,303.92 425.28,35.00 426.02,304.46 426.75,35.00 427.49,303.92 428.22,35.00 428.95,303.38 429.72,304.46 430.45,304.46 431.19,35.00 431.93,304.46 432.66,304.46 433.40,304.46 434.13,303.92 434.86,35.00 435.60,303.38 436.34,304.46 437.08,304.46 437.81,35.00 438.54,304.46 439.28,35.00 440.01,304.46 440.76,304.46 441.49,291.50 442.23,303.92 442.96,304.46 443.69,304.46 444.44,303.38 445.17,303.92 446.06,303.38 446.81,303.92 447.55,35.00 448.28,35.00 449.01,304.46 449.75,303.38 450.49,304.46 451.22,35.00 451.97,303.92 452.70,304.46 453.44,35.00 454.17,303.92 454.90,35.00 455.64,304.46 456.37,304.46 457.11,35.00 457.84,304.46 458.57,304.46 459.30,35.00 460.03,304.46 460.78,304.46 461.51,304.46 462.24,303.92 462.98,35.00 463.73,304.46 464.46,304.46 465.19,35.00 465.93,304.46 466.68,303.38 467.41,35.00 468.15,304.46 468.89,304.46 469.62,303.92 470.35,304.46 471.09,304.46 471.83,304.46 472.58,304.46 473.31,304.46 474.05,304.46 474.77,303.92 475.51,304.46 476.24,303.92 476.98,304.46 477.71,35.00 478.45,304.46 479.20,304.46 479.94,303.92 480.65,35.00 481.40,304.46 482.13,304.46 482.86,304.46 483.60,304.46 484.33,303.92 485.06,304.46 485.81,304.46 486.54,35.00 487.28,304.46 488.02,303.92 488.76,35.00 489.50,35.00 490.23,303.92 490.97,281.24 491.80,304.46 492.61,304.46 493.39,35.00 494.14,303.92 494.90,303.92 495.64,304.46 496.38,304.46 497.10,303.92 497.79,293.12 498.56,303.92 499.29,292.58 500.04,294.20 500.76,293.12 501.50,303.92 502.23,304.46 502.97,303.92 503.70,303.38 504.44,304.46 505.17,304.46 505.91,304.46 506.65,303.92 507.39,35.00 508.13,35.00 508.87,35.00 509.61,35.00 510.34,304.46 511.08,35.00 511.83,304.46 512.57,303.92 513.30,304.46 514.03,303.92 514.77,303.92 515.50,304.46 516.23,303.92 516.97,304.46 517.70,304.46 518.45,35.00 519.18,304.46 519.91,304.46 520.65,35.00 521.39,303.92 522.13,35.00 522.87,303.92 523.60,35.00 524.33,304.46 525.07,35.00 525.81,304.46 526.55,304.46 527.29,303.92 528.03,304.46 528.77,35.00 529.51,303.92 530.24,304.46 530.98,304.46 531.74,304.46 532.48,304.46 533.22,303.92 533.95,302.84 534.69,304.46 535.42,304.46 536.16,304.46 536.90,304.46 537.64,303.92 538.37,304.46 539.11,303.38 539.85,35.00 540.59,35.00 541.33,303.38 542.07,35.00 542.81,304.46 543.55,303.92 544.29,304.46 545.04,303.92 545.77,304.46 546.50,35.00 547.24,35.00 547.98,35.00 548.74,303.92 549.47,303.92 550.22,303.92 550.96,304.46 551.69,303.92 552.42,304.46 553.16,304.46 553.90,304.46 554.64,304.46 555.37,304.46 556.11,304.46 556.84,35.00 557.58,304.46 558.32,35.00 559.06,304.46 559.79,304.46 560.54,304.46 561.28,304.46 562.02,303.92 562.75,292.58 563.49,304.46 564.22,304.46 564.95,303.92 565.69,304.46 566.43,304.46 567.17,304.46 567.91,303.92 568.65,35.00 569.38,304.46 570.13,304.46 570.87,304.46 571.60,303.92 572.34,304.46 573.09,293.66 573.83,292.04 574.56,293.66 575.30,293.12 576.05,294.20 576.79,293.12 577.53,293.12 578.28,292.58 579.02,293.12 579.76,293.39 580.50,293.12 581.23,293.12 581.98,293.12 582.72,293.12 583.46,293.66 584.20,292.58 584.94,292.58 585.67,293.66 586.40,293.12 587.16,292.58 587.90,293.12 588.64,294.20 589.37,293.12 590.11,293.12 590.84,292.58 591.57,294.20 592.31,293.66 593.05,281.51 593.79,271.25 594.53,293.66 595.26,293.66 596.00,293.12 596.73,293.12 597.49,293.66 598.23,293.12 598.97,293.66 599.71,293.66 600.44,293.66 601.17,293.12 601.91,293.66 602.65,293.12 603.39,292.04 604.13,293.12 604.87,293.12 605.61,293.12 606.34,292.58 607.08,293.12 607.83,293.12 608.59,292.58 609.33,292.58 610.07,293.12 610.81,293.12 611.55,293.39 612.30,293.12 613.03,293.66 613.76,293.12 614.49,292.58 615.24,293.66 615.98,292.58 616.72,293.12 617.46,293.66 618.21,294.20 618.97,293.66 619.71,293.66 620.45,293.12 621.19,293.12 621.92,292.04 622.66,293.12 623.41,293.66 624.15,293.12 624.89,294.20 625.64,293.66 626.38,294.20 627.12,293.12 627.86,293.66 628.60,282.05 629.34,293.66 630.08,293.66 630.81,293.66 631.55,293.12 632.30,293.12 633.04,293.12 633.77,293.12 634.52,293.66 635.26,293.66 636.00,293.66 636.74,292.58 637.48,293.66 638.24,294.20 638.98,293.12 639.73,293.12 640.47,294.20 641.22,292.58 641.98,294.20 642.73,293.12 643.48,293.66 644.24,294.20 644.98,294.20 645.72,293.12 646.46,293.66 647.20,293.66 647.94,293.12 648.68,292.58 649.44,293.66 650.18,293.12 650.92,293.12 651.66,283.13 652.39,292.58 653.13,293.66 653.87,293.66 654.61,292.58 655.34,282.05 656.08,293.12 656.81,293.12 657.55,293.12 658.28,292.58 659.02,293.66 659.76,294.20 660.50,293.12 661.24,293.66 661.98,304.46 662.73,303.92 663.46,35.00 664.20,303.92 664.94,304.46 665.68,303.92 666.41,304.46 667.15,304.46 667.89,35.00 668.63,304.46 669.36,303.92 670.09,303.92 670.83,303.92 671.56,304.46 672.31,304.46 673.04,303.38 673.78,304.46 674.52,304.46 675.26,303.92 675.99,304.46 676.73,303.92 677.47,35.00 678.19,304.46 678.93,304.46 679.65,35.00 680.39,304.46 681.13,304.46 681.88,304.46 682.62,303.92 683.35,35.00 684.09,304.46 684.84,304.46 685.59,303.92 686.32,304.46 687.07,35.00 687.80,35.00 688.54,304.46 689.29,304.46 690.02,303.92 690.77,304.46 691.52,303.92 692.25,35.00 692.98,35.00 693.72,35.00 694.46,303.38 695.19,293.12 695.93,293.12 696.66,304.46 697.40,304.46 698.14,258.83 698.88,303.92 699.61,304.46 700.35,35.00 701.08,35.00 701.82,304.46 702.56,303.38 703.30,35.00 704.04,303.92 704.78,304.46 705.52,303.92 706.26,303.92 706.99,304.46 707.73,304.46 708.47,304.46 709.21,304.46 709.94,304.46 710.69,35.00 711.43,297.44 712.16,35.00 712.90,303.92 713.63,35.00 714.40,304.46 715.13,304.46 715.89,304.46 716.63,304.46 717.37,304.46 718.11,303.92 718.85,303.92 719.60,303.92 720.34,35.00 721.07,304.46 721.81,304.46 722.57,303.92 723.31,304.46 724.04,35.00 724.79,304.46 725.52,35.00 726.27,304.46 727.01,302.84 727.74,35.00 728.47,303.92 729.21,304.46 729.95,304.46 730.69,303.92 731.42,304.46 732.17,304.46 732.90,35.00 733.63,303.92 734.37,304.46 735.10,303.38 735.84,304.46 736.59,304.46 737.33,303.92 738.06,304.46 738.80,303.92 739.54,303.92 740.27,304.46 741.01,35.00 741.75,303.92 742.50,304.46 743.24,35.00 743.97,304.46 744.70,304.46 745.44,303.92 746.18,35.00 746.91,35.00 747.66,303.92 748.42,304.46 749.17,35.00 749.92,35.00 750.67,35.00 751.43,303.92 752.18,304.46 752.94,303.92 753.70,303.92 754.45,304.46 755.21,303.92 755.95,35.00 756.68,304.46 757.43,304.46 758.17,304.46 758.91,303.92 759.65,35.00 760.39,304.46 761.14,304.46 761.87,303.38 762.61,35.00 763.35,304.46 764.08,303.92 764.82,304.46 765.55,35.00 766.29,303.92 767.03,304.46 767.77,304.46 768.51,304.46 769.26,293.66 770.00,293.12 770.74,293.12 771.47,293.66 772.21,303.92 772.95,304.46 773.69,304.46 774.43,304.46 775.17,304.46 775.90,303.92 776.65,304.46 777.38,304.46 778.12,304.46 778.86,304.46 779.60,303.92 780.34,35.00 781.13,35.00 781.89,303.92 782.62,302.84 783.36,303.92 784.10,303.38 784.85,304.46 785.59,303.92 786.34,303.92 787.08,304.46 787.81,303.92 788.53,304.46 789.27,304.46 790.01,303.92 790.75,303.92 791.49,304.46 792.22,304.46 792.97,304.46 793.71,303.92 794.45,35.00 795.19,35.00 795.92,304.46 796.66,303.38 797.40,304.46 798.14,304.46 798.88,304.46 799.61,304.46 800.36,35.00 801.10,303.92 801.84,35.00 802.61,35.00 803.35,303.92 804.09,304.46 804.82,303.92 805.56,304.46 806.30,304.46 807.04,304.46 807.79,304.46 808.52,303.92 809.26,303.92 810.00,304.46 810.75,35.00 811.50,303.92 812.24,303.92 812.98,303.38 813.71,304.46 814.45,35.00 815.19,304.46 815.93,304.46 816.66,304.46 817.41,303.92 818.15,303.92 818.89,303.92 819.63,304.46 820.36,304.46 821.10,304.46 821.84,304.46 822.57,304.46 823.31,304.46 824.05,303.92 824.79,304.46 825.53,304.46 826.27,35.00 827.00,304.46 827.75,304.46 828.49,304.46 829.23,304.46 829.96,35.00 830.69,303.92 831.42,303.92 832.16,303.92 832.91,35.00 833.64,303.92 834.40,303.92 835.14,35.00 835.88,304.46 836.62,248.57 837.36,259.37 838.11,269.09 838.91,293.12 839.66,282.59 840.40,270.17 841.15,282.05 841.90,35.00 842.63,304.46 843.37,304.46 844.11,303.92 844.85,304.46 845.59,304.46 846.33,304.46 847.07,303.38 847.81,304.46 848.56,304.46 849.31,304.46 850.05,304.46 850.79,304.46 851.52,304.46 852.27,303.92 853.01,303.92 853.74,35.00 854.48,303.92 855.23,304.46 855.97,303.92 856.71,35.00 857.45,35.00 858.19,35.00 858.93,303.92 859.68,304.46 860.42,304.46 861.17,35.00 861.90,35.00 862.64,35.00 863.39,35.00 864.12,35.00 864.85,304.46 865.59,304.46 866.33,304.46 867.07,304.46 867.81,304.46 868.55,303.92 869.28,35.00 870.03,35.00 870.77,304.46 871.50,304.46 872.25,304.46 872.99,303.92 873.74,304.46 874.48,35.00 875.20,304.46 875.92,303.38 876.65,304.46 877.40,304.46 878.14,303.92 878.88,304.46 879.63,304.46 880.36,303.92 881.11,303.92 881.86,304.46 882.59,303.92 883.33,303.92 884.06,304.46 884.80,304.46 885.53,35.00 886.27,303.92 887.01,303.92 887.75,304.46 888.48,35.00 889.22,304.46 889.95,303.92 890.69,293.12 891.43,304.46 892.17,304.46 892.90,35.00 893.64,286.64 894.35,259.37 895.11,248.84 895.85,35.00 896.59,35.00 897.33,303.92 898.08,302.84 898.81,304.46 899.55,304.46 900.29,303.92 901.03,304.46 901.77,35.00 902.51,304.46 903.30,303.92 904.04,304.46 904.79,303.92 905.53,304.46 906.28,304.46 907.00,35.00 907.74,303.38 908.49,304.46 909.22,304.46 909.96,304.46 910.70,302.84 911.43,298.52 912.18,35.00 912.92,303.92 913.66,304.46 914.40,303.92 915.14,35.00 915.88,304.46 916.62,304.46 917.36,304.46 918.10,304.46 918.85,303.92 919.61,304.46 920.35,304.46 921.09,304.46 921.83,304.46 922.57,303.92 923.32,303.92 924.06,304.46 924.79,35.00 925.53,303.92 926.27,303.92 927.00,303.38 927.74,303.92 928.49,303.92 929.23,303.92 929.97,35.00 930.71,304.46 931.44,304.46 932.17,304.46 932.91,303.92 933.66,304.46 934.39,304.46 935.13,304.46 935.87,304.46 936.60,35.00 937.33,304.46 938.06,304.46 938.80,35.00 939.53,35.00 940.27,303.92 941.01,304.46 941.74,304.46 942.47,303.92 943.21,304.46 943.95,304.46 944.69,35.00 945.42,304.46 946.16,303.92 946.89,35.00 947.62,304.46 948.38,303.92 949.11,35.00 949.84,304.46 950.58,304.46 951.36,35.00 952.09,303.92 952.83,35.00 953.57,35.00 954.31,304.46 955.06,304.46 955.80,304.46 956.54,304.46 957.28,301.76 958.01,35.00 958.74,304.46 959.48,35.00 960.22,303.92 960.96,304.46 961.70,304.46 962.43,293.12 963.17,303.92 963.91,35.00 964.64,303.92 965.38,304.46 966.13,35.00 966.90,304.46 967.63,35.00 968.37,304.46 969.09,304.46 969.82,304.46 970.58,35.00 971.31,304.46 972.05,35.00 972.79,304.46 973.53,303.92 974.27,304.46 975.01,303.92 975.75,303.92 976.49,35.00 977.23,304.46 977.97,35.00 978.71,303.92 979.44,304.46 980.18,303.92 980.91,35.00 981.64,303.92 982.38,303.92 983.12,303.92 983.85,35.00 984.59,304.46 985.33,35.00 986.07,304.46 986.81,304.46 987.55,304.46 988.29,303.92 989.02,304.46 989.76,304.46 990.49,35.00 991.24,304.46 991.97,35.00 992.71,304.46 993.45,303.92 994.18,303.92 994.92,303.92 995.65,304.46 996.40,35.00 997.13,304.46 997.89,35.00 998.62,303.92 999.36,304.46 1000.10,35.00 1000.84,304.46 1001.58,303.92 1002.33,291.50 1003.07,35.00 1003.86,304.46 1004.60,303.92 1005.39,35.00 1006.13,300.14 1006.86,303.92 1007.59,303.92 1008.33,35.00 1009.07,303.38 1009.81,304.46 1010.55,298.52 1011.29,35.00 1012.02,35.00 1012.76,35.00 1013.50,35.00 1014.23,35.00 1014.97,35.00 1015.71,35.00 1016.44,304.46 1017.18,35.00 1017.91,303.92 1018.66,303.92 1019.39,302.30 1020.14,304.46 1020.87,35.00 1021.60,303.92 1022.34,303.38 1023.08,304.46 1023.82,303.92 1024.56,303.92 1025.30,35.00 1026.04,35.00 1026.78,304.46 1027.51,304.46 1028.24,304.46 1028.98,304.46 1029.71,304.46 1030.45,303.92 1031.18,303.92 1031.91,303.92 1032.65,304.46 1033.39,304.46 1034.12,303.92 1034.86,303.92 1035.60,303.92 1036.37,304.46 1037.11,304.46 1037.85,303.38 1038.58,304.46 1039.31,304.46 1040.04,303.92 1040.78,303.92 1041.52,304.46 1042.25,303.92 1042.99,304.46 1043.72,304.46 1044.45,304.46 1045.18,304.46 1045.92,304.46 1046.66,303.92 1047.39,303.92 1048.13,304.46 1048.87,303.92 1049.60,304.46 1050.34,304.46 1051.09,292.04 1051.82,35.00 1052.56,304.46 1053.30,35.00 1054.03,303.92 1054.77,303.92 1055.51,304.46 1056.25,304.46 1057.00,303.92 1057.73,304.46 1058.46,303.92 1059.20,35.00 1059.94,35.00 1060.68,304.46 1061.44,304.46 1062.18,304.46 1062.92,303.92 1063.66,304.46 1064.40,304.46 1065.14,304.46 1065.87,304.46 1066.61,304.46 1067.36,35.00 1068.09,303.38 1068.82,304.46 1069.56,303.38 1070.31,35.00 1071.05,304.46 1071.79,304.46 1072.54,304.46 1073.30,303.92 1074.08,303.92 1074.83,304.46 1075.56,303.92 1076.30,303.92 1077.03,304.46 1077.77,303.38 1078.51,303.92 1079.25,35.00 1079.99,304.46 1080.73,304.46 1081.47,303.38 1082.20,304.46 1082.94,35.00 1083.67,304.46 1084.41,303.92 1085.16,35.00 1085.91,303.92 1086.67,304.46 1087.41,304.46 1088.16,303.92 1088.93,304.46 1089.67,35.00 1090.45,35.00 1091.19,281.51 1091.93,259.91 1092.68,282.05 1093.41,304.46 1094.15,304.46 1094.89,304.46 1095.62,35.00 1096.36,35.00 1097.10,304.46 1097.84,35.00 1098.59,35.00 1099.33,304.46 1100.07,304.46 1100.82,303.92 1101.68,304.46 1102.42,35.00 1103.15,303.92 1103.89,303.92 1104.62,303.92 1105.35,35.00 1107.42,304.46 1108.22,303.92 1108.92,293.66 1109.59,303.92 1110.98,303.92 1111.72,303.92 1112.46,303.92 1113.20,303.92 1113.93,303.92 1114.66,304.46 1115.40,303.38 1116.13,304.46 1116.86,304.46 1117.61,303.92 1118.34,303.92 1119.07,304.46 1119.81,304.46 1120.55,303.38 1121.28,303.92 1122.02,35.00 1122.75,304.46 1123.48,304.46 1124.21,303.38 1124.94,303.92 1125.68,304.46 1126.41,304.46 1127.15,304.46 1127.90,304.46 1128.63,35.00 1129.35,304.46 1130.09,304.46 1130.82,35.00 1131.56,304.46 1132.29,304.46 1133.02,293.12 1133.75,35.00 1134.49,35.00 1135.22,304.46 1135.96,304.46 1136.69,303.92 1137.43,304.46 1138.17,303.92 1138.90,304.46 1139.64,35.00 1140.37,303.38 1141.10,304.46 1141.84,303.92 1142.58,304.46 1143.31,304.46 1144.03,303.92 1144.77,304.46 1145.50,304.46 1146.23,303.92 1146.96,303.92 1147.69,35.00 1148.44,304.46 1149.19,304.46 1149.92,304.46 1150.65,35.00 1151.39,303.38 1152.13,303.92 1152.87,304.46 1153.60,304.46 1154.34,35.00 1155.08,304.46 1155.81,35.00 1156.54,304.46 1157.28,35.00 1158.01,303.38 1158.75,35.00 1159.48,302.84 1160.22,304.46 1160.95,304.46 1161.69,303.92 1162.43,304.46 1163.16,303.92 1163.90,303.92 1164.63,35.00 1165.37,304.46 1166.10,303.92 1166.84,303.38 1167.58,303.92 1168.38,304.46 1169.12,303.92 1169.85,35.00 1170.59,304.46 1171.32,303.38 1172.06,303.92 1172.78,303.92 1173.53,304.46 1174.56,303.92 1175.29,303.92 1176.32,304.46 1177.05,304.46 1177.79,35.00 1178.53,303.38 1179.26,303.38 1180.00,304.46"/>
<polyline fill="none" stroke="#d62728" stroke-opacity="0.50" stroke-width="2" points="70.00,302.84 70.74,302.84 71.47,303.92 72.21,303.92 72.94,303.92 73.68,303.38 74.41,303.92 75.15,302.57 75.95,303.38 76.68,302.84 77.41,303.92 78.14,303.38 78.89,302.84 79.62,303.38 80.35,287.18 81.67,303.38 82.81,303.38 83.55,303.38 84.30,303.92 85.04,302.84 85.77,293.12 86.49,303.38 87.23,303.38 87.96,303.38 88.70,303.38 89.44,303.38 90.19,303.38 90.93,303.92 91.67,303.38 92.44,303.92 93.18,303.92 93.91,303.38 94.67,303.38 95.40,303.38 96.14,302.03 96.89,303.38 97.62,303.92 98.36,303.92 99.11,303.38 99.83,303.92 100.57,303.92 101.29,303.92 102.03,302.84 102.76,303.92 103.50,303.38 104.25,303.92 104.99,302.84 105.71,303.92 106.45,302.84 107.19,303.38 107.92,302.84 108.76,303.38 109.50,303.92 110.23,303.38 110.96,303.92 111.69,303.38 112.42,303.38 113.15,303.92 113.89,302.30 114.62,303.92 115.37,303.92 116.10,304.46 116.83,303.92 117.57,303.92 118.31,303.92 119.04,303.38 119.78,289.61 120.51,303.92 121.24,303.38 121.97,302.84 122.70,299.87 123.43,303.92 124.16,303.92 124.89,304.46 125.63,303.92 126.36,302.03 127.09,304.46 127.83,303.38 128.56,303.38 129.29,302.84 130.04,302.57 130.77,303.92 131.51,303.92 132.25,303.92 132.98,303.38 133.72,303.38 134.45,302.84 135.17,303.38 135.90,302.84 136.64,303.92 137.38,303.38 138.11,294.20 138.86,303.38 139.58,303.38 140.32,303.92 141.05,303.92 141.78,302.57 142.51,303.38 143.24,302.84 143.97,302.84 144.71,302.57 145.45,303.92 146.18,303.92 146.92,303.92 147.66,303.92 148.40,302.84 149.13,303.92 149.87,303.92 150.60,302.84 151.33,303.92 152.07,302.84 152.81,302.84 153.54,303.92 154.27,303.92 155.01,303.92 155.75,303.92 156.49,302.57 157.23,303.92 157.96,303.92 158.70,303.38 159.43,303.38 160.17,303.92 160.90,304.46 161.64,303.92 162.44,303.92 163.17,303.38 163.91,303.92 164.64,303.92 165.37,304.46 166.10,303.38 166.82,302.84 167.55,303.92 168.29,302.84 169.02,303.92 169.75,303.38 170.49,303.38 171.22,304.46 171.95,303.38 172.70,303.92 173.43,302.57 174.16,302.03 174.89,303.92 175.62,303.92 176.36,303.38 177.09,303.38 177.83,303.92 178.57,303.38 179.30,303.38 180.03,302.84 180.76,302.57 181.49,303.38 182.22,302.03 182.96,302.03 183.70,302.03 184.44,302.84 185.17,302.03 185.91,302.84 186.65,302.84 187.38,302.57 188.11,302.03 188.85,303.92 189.58,303.38 190.33,303.92 191.07,303.92 191.80,303.38 192.54,302.84 193.27,303.92 194.00,303.92 194.73,303.92 195.47,296.90 196.20,303.38 196.92,302.84 197.65,303.92 198.40,303.92 199.13,302.84 199.87,303.92 200.60,302.84 201.35,303.92 202.08,303.92 202.82,303.38 203.55,303.92 204.28,303.92 205.08,299.33 205.83,303.38 206.55,303.92 207.29,303.38 208.01,303.92 208.75,304.46 209.48,303.92 210.22,303.38 210.95,303.92 211.68,302.84 212.42,303.38 213.15,303.38 213.90,303.92 214.63,303.92 215.36,303.92 216.10,302.84 216.84,303.92 217.59,303.38 218.34,303.92 219.07,303.92 219.80,303.38 220.54,302.84 221.27,303.38 222.00,303.38 222.74,303.92 223.48,303.92 224.21,302.84 224.94,303.92 225.68,303.38 226.42,303.92 227.15,303.92 227.89,303.38 228.63,303.92 229.37,302.30 230.10,303.92 230.82,303.38 231.55,303.92 232.29,302.84 233.02,303.92 233.75,302.84 234.49,303.92 235.21,303.92 235.95,303.92 236.69,303.92 237.42,302.84 238.16,303.92 238.90,303.92 239.64,299.87 240.38,303.92 241.11,302.84 241.85,302.84 242.58,303.92 243.31,303.92 244.05,303.92 244.80,304.46 245.54,304.46 246.27,303.38 247.01,303.38 247.74,303.38 248.48,303.92 249.20,303.92 249.93,302.84 250.67,303.92 251.41,303.92 252.14,303.38 252.88,303.38 253.62,303.92 254.35,302.57 255.09,303.92 255.83,302.84 256.57,303.92 257.30,303.92 258.03,303.38 258.77,303.92 259.51,304.46 260.25,303.38 260.98,302.84 261.72,303.38 262.53,303.92 263.27,303.38 264.01,303.92 264.74,303.92 265.48,303.38 266.22,303.38 266.96,303.38 267.69,303.38 268.42,303.92 269.18,302.84 269.92,303.92 270.65,303.92 271.39,303.92 272.12,303.92 272.86,302.84 273.59,303.38 274.35,303.38 275.09,303.92 275.82,302.84 276.57,303.92 277.36,303.92 278.09,293.39 279.02,293.12 280.26,303.92 281.01,302.84 281.76,292.58 282.49,302.03 283.21,302.84 283.94,304.46 284.69,303.92 285.43,303.92 286.17,303.92 286.93,304.46 287.69,303.92 288.47,303.92 289.21,302.84 289.94,303.38 290.68,303.38 291.42,303.92 292.17,303.38 292.91,302.84 293.64,294.74 294.37,303.38 295.14,303.92 295.88,303.92 296.60,303.92 297.34,303.92 298.09,303.38 298.85,303.92 299.59,303.38 300.32,303.92 301.08,303.38 301.78,302.57 302.51,303.92 303.26,303.92 303.99,303.92 304.74,304.46 305.50,303.38 306.23,303.38 306.97,303.38 307.71,304.46 308.45,303.92 309.19,303.92 309.92,303.38 310.65,303.92 311.39,303.92 312.13,303.92 312.86,303.92 313.73,300.41 314.60,303.92 315.47,303.38 316.32,303.92 317.16,303.92 318.01,303.92 318.88,302.84 319.73,303.92 320.47,303.92 321.19,303.92 321.93,303.38 322.66,302.84 323.40,302.84 324.12,303.92 324.85,303.92 325.58,303.38 326.32,304.46 327.05,304.46 327.79,303.92 328.52,292.58 329.25,302.84 329.98,304.46 330.71,303.38 331.44,303.92 332.18,303.38 332.90,303.38 333.64,303.38 334.38,303.38 335.11,303.38 335.83,304.46 336.56,303.38 337.30,304.46 338.03,303.92 338.77,303.38 339.50,303.92 340.23,303.38 340.97,295.82 341.70,302.84 342.43,303.92 343.16,302.84 343.89,299.87 344.63,303.92 345.35,303.38 346.07,302.84 346.81,303.92 347.54,303.92 348.26,303.38 349.00,303.92 349.73,303.38 350.46,303.92 351.18,303.38 351.91,304.46 352.63,303.92 353.39,303.92 354.18,303.92 354.92,303.92 355.65,303.92 356.38,303.38 357.11,302.57 357.84,303.92 358.57,303.92 359.30,303.92 360.17,302.84 361.03,302.84 361.88,303.92 362.74,302.30 363.60,303.92 364.46,303.92 365.34,303.92 366.23,303.92 367.03,303.92 367.82,303.92 368.55,303.38 369.29,303.38 370.03,303.38 370.75,303.38 371.48,303.92 372.22,303.92 372.95,292.85 373.68,303.92 374.41,302.57 375.15,303.38 375.88,303.92 376.61,303.92 377.36,303.38 378.09,303.92 378.82,302.30 379.46,303.92 380.22,303.92 380.95,304.46 381.70,303.38 382.43,303.92 383.16,303.92 383.90,303.38 384.64,303.92 385.38,303.92 386.12,303.92 386.86,304.46 387.61,303.92 388.34,303.38 389.06,303.92 389.80,303.92 390.52,303.92 391.26,302.84 391.98,303.38 392.73,303.92 393.46,303.92 394.19,303.38 394.92,303.92 395.65,303.38 396.39,303.38 397.12,303.92 397.86,303.38 398.60,303.92 399.33,303.92 400.07,303.92 400.81,303.92 401.54,303.92 402.30,303.92 403.03,303.92 403.76,302.84 404.49,302.84 405.22,303.92 405.95,304.46 406.69,302.03 407.42,303.38 408.15,303.92 408.88,303.92 409.61,303.92 410.34,302.84 411.08,303.38 411.82,303.38 412.55,303.38 413.44,303.92 414.19,303.92 414.95,303.38 415.69,302.57 416.42,303.92 417.16,302.84 417.89,303.92 418.62,303.92 419.36,303.92 420.10,304.46 420.83,302.57 421.57,302.57 422.31,303.38 423.04,303.92 423.80,303.92 424.55,303.38 425.28,303.38 426.02,302.84 426.75,303.92 427.49,300.95 428.22,303.92 428.95,302.84 429.72,303.38 430.45,303.92 431.19,303.38 431.93,302.84 432.66,303.92 433.40,303.38 434.13,303.92 434.86,303.38 435.60,303.92 436.34,303.92 437.08,303.92 437.81,303.38 438.54,303.38 439.28,303.92 440.01,303.92 440.76,303.92 441.49,303.92 442.23,303.92 442.96,300.95 443.69,290.69 444.44,303.92 445.17,302.84 446.06,303.92 446.81,303.38 447.55,303.38 448.28,303.92 449.01,304.46 449.75,303.92 450.49,303.92 451.22,303.38 451.97,303.38 452.70,302.84 453.44,304.46 454.17,303.92 454.90,303.38 455.64,304.46 456.37,304.46 457.11,303.38 457.84,303.38 458.57,303.92 459.30,303.38 460.03,304.46 460.78,303.38 461.51,302.84 462.24,304.46 462.98,303.92 463.73,303.92 464.46,303.38 465.19,303.38 465.93,303.92 466.68,303.92 467.41,300.95 468.15,303.92 468.89,302.84 469.62,303.92 470.35,303.38 471.09,303.38 471.83,302.03 472.58,302.03 473.31,303.92 474.05,302.84 474.77,302.84 475.51,302.57 476.24,303.38 476.98,303.38 477.71,303.38 478.45,303.38 479.20,291.77 479.94,274.49 480.65,302.84 481.40,292.85 482.13,302.84 482.86,303.38 483.60,303.92 484.33,303.92 485.06,303.92 485.81,303.38 486.54,303.38 487.28,304.46 488.02,302.84 488.76,303.92 489.50,302.57 490.23,303.92 490.97,303.92 491.80,304.46 492.61,304.46 493.39,303.92 494.14,303.92 494.90,303.92 495.64,303.38 496.38,303.92 497.10,303.38 497.79,303.38 498.56,303.38 499.29,303.92 500.04,303.92 500.76,303.38 501.50,303.38 502.23,303.38 502.97,303.92 503.70,303.38 504.44,303.92 505.17,303.92 505.91,303.92 506.65,303.92 507.39,303.38 508.13,303.92 508.87,303.92 509.61,302.84 510.34,303.38 511.08,303.38 511.83,302.57 512.57,303.38 513.30,302.57 514.03,302.57 514.77,301.49 515.50,303.92 516.23,303.38 516.97,303.92 517.70,302.84 518.45,303.38 519.18,303.92 519.91,303.38 520.65,303.38 521.39,303.38 522.13,303.92 522.87,303.92 523.60,304.46 524.33,303.92 525.07,303.92 525.81,302.57 526.55,303.38 527.29,303.38 528.03,303.92 528.77,302.84 529.51,302.84 530.24,303.38 530.98,303.38 531.74,303.92 532.48,303.38 533.22,303.92 533.95,303.92 534.69,300.41 535.42,303.92 536.16,303.38 536.90,303.92 537.64,303.92 538.37,303.92 539.11,303.38 539.85,304.46 540.59,303.38 541.33,302.84 542.07,303.92 542.81,303.92 543.55,303.38 544.29,303.92 545.04,303.92 545.77,303.92 546.50,303.92 547.24,303.92 547.98,303.38 548.74,302.84 549.47,303.92 550.22,303.38 550.96,303.92 551.69,303.92 552.42,303.38 553.16,303.92 553.90,303.92 554.64,303.38 555.37,303.92 556.11,303.38 556.84,302.84 557.58,303.38 558.32,302.03 559.06,292.85 559.79,303.92 560.54,302.57 561.28,303.38 562.02,302.84 562.75,303.38 563.49,302.84 564.22,291.50 564.95,303.38 565.69,303.92 566.43,303.92 567.17,303.92 567.91,303.92 568.65,303.92 569.38,303.92 570.13,303.92 570.87,303.92 571.60,303.92 572.34,297.71 573.09,303.38 573.83,303.38 574.56,303.92 575.30,303.92 576.05,303.38 576.79,304.46 577.53,304.46 578.28,303.92 579.02,303.92 579.76,303.38 580.50,303.92 581.23,304.46 581.98,303.92 582.72,303.38 583.46,302.84 584.20,302.84 584.94,303.38 585.67,303.92 586.40,302.03 587.16,303.38 587.90,303.92 588.64,302.84 589.37,303.92 590.11,304.46 590.84,303.92 591.57,304.46 592.31,303.38 593.05,303.92 593.79,303.92 594.53,303.92 595.26,303.92 596.00,302.84 596.73,302.84 597.49,303.38 598.23,303.92 598.97,302.84 599.71,292.31 600.44,303.92 601.17,303.38 601.91,303.38 602.65,303.38 603.39,303.92 604.13,303.38 604.87,303.92 605.61,303.92 606.34,303.92 607.08,303.92 607.83,303.92 608.59,302.84 609.33,303.38 610.07,303.92 610.81,303.92 611.55,303.92 612.30,302.84 613.03,303.92 613.76,303.92 614.49,303.92 615.24,303.92 615.98,303.38 616.72,303.92 617.46,303.38 618.21,303.92 618.97,303.92 619.71,303.38 620.45,303.92 621.19,303.92 621.92,301.49 622.66,303.92 623.41,303.92 624.15,303.92 624.89,303.38 625.64,302.84 626.38,303.92 627.12,304.46 627.86,303.38 628.60,303.38 629.34,303.92 630.08,303.92 630.81,303.92 631.55,303.92 632.30,303.38 633.04,303.92 633.77,302.84 634.52,303.92 635.26,303.38 636.00,303.92 636.74,303.92 637.48,303.92 638.24,304.46 638.98,303.38 639.73,303.92 640.47,303.92 641.22,301.49 641.98,302.03 642.73,303.92 643.48,303.38 644.24,302.57 644.98,300.41 645.72,303.38 646.46,302.57 647.20,303.92 647.94,304.46 648.68,303.92 649.44,303.92 650.18,303.38 650.92,303.38 651.66,303.92 652.39,303.92 653.13,303.38 653.87,302.84 654.61,303.92 655.34,304.46 656.08,303.38 656.81,303.38 657.55,302.84 658.28,302.84 659.02,303.92 659.76,303.92 660.50,303.92 661.24,303.38 661.98,303.92 662.73,303.38 663.46,303.92 664.20,303.92 664.94,303.92 665.68,303.92 666.41,303.92 667.15,303.92 667.89,303.92 668.63,303.38 669.36,303.92 670.09,301.49 670.83,302.57 671.56,303.92 672.31,302.57 673.04,303.92 673.78,303.38 674.52,302.84 675.26,303.92 675.99,302.84 676.73,292.58 677.47,290.69 678.19,302.84 678.93,291.50 679.65,302.57 680.39,303.38 681.13,303.92 681.88,303.92 682.62,304.46 683.35,303.92 684.09,303.38 684.84,303.38 685.59,303.92 686.32,303.38 687.07,303.92 687.80,303.38 688.54,303.92 689.29,303.92 690.02,294.20 690.77,303.92 691.52,303.92 692.25,303.92 692.98,303.38 693.72,303.38 694.46,302.57 695.19,303.92 695.93,303.38 696.66,303.92 697.40,304.46 698.14,302.57 698.88,303.92 699.61,302.84 700.35,303.92 701.08,303.92 701.82,302.84 702.56,303.38 703.30,303.38 704.04,303.92 704.78,302.84 705.52,303.38 706.26,303.38 706.99,303.92 707.73,303.92 708.47,303.92 709.21,303.38 709.94,303.92 710.69,303.92 711.43,303.38 712.16,303.38 712.90,303.92 713.63,303.92 714.40,303.38 715.13,303.38 715.89,303.38 716.63,303.38 717.37,303.92 718.11,303.92 718.85,303.92 719.60,303.92 720.34,295.82 721.07,303.38 721.81,303.38 722.57,303.38 723.31,303.92 724.04,303.38 724.79,303.38 725.52,302.84 726.27,303.38 727.01,302.03 727.74,303.92 728.47,303.92 729.21,303.92 729.95,302.03 730.69,303.92 731.42,297.44 732.17,303.38 732.90,303.92 733.63,303.92 734.37,303.38 735.10,303.92 735.84,303.92 736.59,303.92 737.33,303.92 738.06,303.38 738.80,303.92 739.54,300.41 740.27,303.38 741.01,303.38 741.75,303.92 742.50,300.41 743.24,303.38 743.97,303.92 744.70,303.38 745.44,303.92 746.18,303.92 746.91,303.92 747.66,303.92 748.42,302.57 749.17,303.38 749.92,303.92 750.67,303.92 751.43,302.30 752.18,303.92 752.94,303.92 753.70,304.46 754.45,303.92 755.21,302.03 755.95,303.92 756.68,303.92 757.43,302.84 758.17,303.92 758.91,303.92 759.65,303.38 760.39,303.38 761.14,300.95 761.87,303.38 762.61,303.38 763.35,303.38 764.08,292.31 764.82,303.92 765.55,303.38 766.29,302.84 767.03,303.92 767.77,303.92 768.51,303.92 769.26,303.92 770.00,303.92 770.74,303.92 771.47,303.38 772.21,303.38 772.95,303.38 773.69,303.92 774.43,303.92 775.17,292.31 775.90,303.92 776.65,303.92 777.38,303.92 778.12,303.38 778.86,303.92 779.60,302.84 780.34,303.38 781.13,303.92 781.89,303.92 782.62,304.46 783.36,302.84 784.10,303.92 784.85,303.92 785.59,302.84 786.34,303.38 787.08,303.92 787.81,303.92 788.53,303.38 789.27,303.38 790.01,303.92 790.75,303.92 791.49,302.84 792.22,303.92 792.97,302.84 793.71,303.92 794.45,302.84 795.19,303.92 795.92,302.84 796.66,303.92 797.40,302.84 798.14,303.92 798.88,303.92 799.61,303.92 800.36,303.38 801.10,303.38 801.84,303.92 802.61,302.84 803.35,303.38 804.09,303.38 804.82,304.46 805.56,303.38 806.30,303.38 807.04,303.92 807.79,303.38 808.52,302.84 809.26,302.30 810.00,303.92 810.75,303.38 811.50,303.38 812.24,303.92 812.98,302.03 813.71,303.38 814.45,303.38 815.19,303.38 815.93,303.38 816.66,303.92 817.41,300.95 818.15,302.84 818.89,302.84 819.63,303.92 820.36,303.38 821.10,303.92 821.84,303.92 822.57,302.84 823.31,303.92 824.05,303.92 824.79,303.92 825.53,303.92 826.27,302.84 827.00,303.38 827.75,303.38 828.49,304.46 829.23,303.38 829.96,302.84 830.69,303.92 831.42,303.92 832.16,301.49 832.91,302.84 833.64,303.38 834.40,302.84 835.14,303.92 835.88,303.92 836.62,302.84 837.36,303.92 838.11,301.49 838.91,302.57 839.66,303.38 840.40,303.92 841.15,302.84 841.90,303.92 842.63,300.95 843.37,303.38 844.11,303.38 844.85,302.84 845.59,303.38 846.33,303.38 847.07,302.84 847.81,303.38 848.56,303.92 849.31,292.85 850.05,303.38 850.79,303.92 851.52,302.84 852.27,303.92 853.01,303.92 853.74,303.38 854.48,303.38 855.23,303.38 855.97,303.92 856.71,302.57 857.45,303.38 858.19,303.38 858.93,303.92 859.68,303.38 860.42,303.92 861.17,303.92 861.90,302.84 862.64,303.92 863.39,303.38 864.12,303.92 864.85,304.46 865.59,303.38 866.33,303.92 867.07,303.92 867.81,302.84 868.55,303.92 869.28,303.92 870.03,303.92 870.77,303.38 871.50,303.38 872.25,303.92 872.99,303.92 873.74,303.38 874.48,292.58 875.20,293.12 875.92,302.84 876.65,302.30 877.40,303.92 878.14,299.87 878.88,303.92 879.63,302.84 880.36,301.49 881.11,303.92 881.86,303.38 882.59,303.38 883.33,303.92 884.06,303.38 884.80,302.84 885.53,303.92 886.27,303.92 887.01,302.84 887.75,303.92 888.48,303.38 889.22,302.84 889.95,302.57 890.69,303.38 891.43,302.57 892.17,302.57 892.90,303.38 893.64,302.30 894.35,303.92 895.11,303.92 895.85,303.38 896.59,303.92 897.33,303.38 898.08,303.38 898.81,303.38 899.55,303.38 900.29,303.92 901.03,303.92 901.77,303.92 902.51,303.92 903.30,302.84 904.04,302.03 904.79,303.38 905.53,303.92 906.28,303.38 907.00,303.92 907.74,303.38 908.49,303.92 909.22,302.84 909.96,303.92 910.70,303.92 911.43,304.46 912.18,303.92 912.92,303.38 913.66,302.57 914.40,303.38 915.14,302.84 915.88,304.46 916.62,303.92 917.36,303.38 918.10,302.84 918.85,301.49 919.61,303.38 920.35,303.92 921.09,303.92 921.83,303.92 922.57,302.03 923.32,303.92 924.06,303.38 924.79,303.92 925.53,303.38 926.27,303.92 927.00,303.92 927.74,276.92 928.49,304.46 929.23,303.38 929.97,303.38 930.71,303.38 931.44,303.92 932.17,303.38 932.91,301.49 933.66,304.46 934.39,303.92 935.13,303.92 935.87,303.38 936.60,303.38 937.33,303.92 938.06,303.38 938.80,302.84 939.53,302.03 940.27,302.84 941.01,303.38 941.74,303.38 942.47,303.38 943.21,303.92 943.95,303.92 944.69,304.46 945.42,303.92 946.16,303.38 946.89,303.38 947.62,303.92 948.38,303.38 949.11,303.92 949.84,303.92 950.58,304.46 951.36,303.38 952.09,303.92 952.83,302.57 953.57,303.92 954.31,303.92 955.06,303.38 955.80,303.38 956.54,303.92 957.28,303.38 958.01,303.92 958.74,304.46 959.48,303.38 960.22,303.92 960.96,302.84 961.70,303.92 962.43,303.92 963.17,302.57 963.91,304.46 964.64,303.38 965.38,302.84 966.13,303.92 966.90,303.92 967.63,303.38 968.37,303.38 969.09,303.38 969.82,303.92 970.58,303.38 971.31,303.92 972.05,303.38 972.79,303.38 973.53,303.92 974.27,303.38 975.01,303.38 975.75,303.92 976.49,303.38 977.23,302.84 977.97,303.92 978.71,303.38 979.44,303.38 980.18,303.92 980.91,302.84 981.64,303.92 982.38,303.92 983.12,303.38 983.85,303.92 984.59,303.92 985.33,303.92 986.07,303.38 986.81,303.38 987.55,299.87 988.29,303.38 989.02,304.46 989.76,303.38 990.49,303.38 991.24,303.92 991.97,303.92 992.71,303.92 993.45,303.38 994.18,304.46 994.92,303.38 995.65,303.38 996.40,303.92 997.13,303.92 997.89,303.92 998.62,303.38 999.36,303.38 1000.10,302.84 1000.84,303.92 1001.58,303.92 1002.33,303.92 1003.07,303.92 1003.86,303.38 1004.60,303.92 1005.39,302.84 1006.13,302.84 1006.86,304.46 1007.59,303.38 1008.33,303.92 1009.07,303.92 1009.81,302.57 1010.55,302.84 1011.29,303.92 1012.02,303.92 1012.76,303.92 1013.50,303.38 1014.23,303.38 1014.97,303.92 1015.71,303.38 1016.44,303.92 1017.18,303.38 1017.91,303.38 1018.66,302.84 1019.39,303.38 1020.14,303.38 1020.87,303.92 1021.60,300.95 1022.34,304.46 1023.08,303.92 1023.82,303.92 1024.56,303.92 1025.30,302.84 1026.04,300.68 1026.78,303.92 1027.51,303.92 1028.24,303.92 1028.98,303.38 1029.71,303.38 1030.45,302.84 1031.18,303.38 1031.91,303.92 1032.65,303.92 1033.39,303.38 1034.12,303.92 1034.86,303.92 1035.60,303.38 1036.37,303.92 1037.11,294.20 1037.85,302.84 1038.58,303.92 1039.31,303.38 1040.04,303.38 1040.78,303.92 1041.52,303.38 1042.25,302.84 1042.99,303.92 1043.72,303.38 1044.45,303.92 1045.18,302.30 1045.92,293.66 1046.66,303.38 1047.39,303.38 1048.13,302.84 1048.87,303.38 1049.60,302.84 1050.34,303.92 1051.09,303.38 1051.82,303.38 1052.56,303.92 1053.30,303.92 1054.03,303.38 1054.77,303.92 1055.51,303.92 1056.25,303.38 1057.00,303.38 1057.73,303.92 1058.46,302.57 1059.20,304.46 1059.94,303.92 1060.68,303.92 1061.44,303.92 1062.18,303.92 1062.92,303.92 1063.66,297.71 1064.40,303.92 1065.14,303.92 1065.87,303.38 1066.61,303.92 1067.36,303.92 1068.09,303.38 1068.82,303.92 1069.56,302.84 1070.31,303.92 1071.05,303.92 1071.79,303.92 1072.54,292.31 1073.30,304.46 1074.08,303.92 1074.83,303.92 1075.56,303.38 1076.30,303.92 1077.03,303.92 1077.77,303.92 1078.51,303.38 1079.25,303.92 1079.99,303.38 1080.73,303.38 1081.47,303.92 1082.20,303.92 1082.94,303.38 1083.67,303.38 1084.41,303.92 1085.16,304.46 1085.91,303.38 1086.67,303.38 1087.41,303.92 1088.16,302.84 1088.93,303.38 1089.67,302.84 1090.45,302.57 1091.19,304.46 1091.93,303.92 1092.68,302.84 1093.41,303.92 1094.15,302.57 1094.89,303.38 1095.62,303.92 1096.36,303.38 1097.10,303.92 1097.84,303.38 1098.59,304.46 1099.33,303.92 1100.07,303.92 1100.82,303.92 1101.68,303.92 1102.42,302.84 1103.15,303.92 1103.89,303.38 1104.62,303.92 1105.35,292.58 1106.08,303.92 1106.76,303.92 1107.42,303.38 1108.22,303.92 1108.92,302.84 1109.59,303.92 1110.34,303.38 1110.98,302.84 1111.72,303.38 1112.46,303.92 1113.20,292.85 1113.93,303.38 1114.66,302.84 1115.40,303.92 1116.13,302.57 1116.86,303.92 1117.61,303.92 1118.34,302.84 1119.07,303.92 1119.81,302.84 1120.55,303.92 1121.28,302.84 1122.02,303.92 1122.75,302.84 1123.48,303.38 1124.21,302.57 1124.94,302.84 1125.68,303.92 1126.41,303.92 1127.15,302.03 1127.90,304.46 1128.63,303.92 1129.35,303.38 1130.09,303.92 1130.82,302.84 1131.56,303.92 1132.29,303.92 1133.02,303.92 1133.75,303.38 1134.49,303.92 1135.22,303.92 1135.96,303.92 1136.69,303.92 1137.43,303.92 1138.17,303.92 1138.90,303.38 1139.64,303.38 1140.37,304.46 1141.10,303.92 1141.84,303.92 1142.58,303.92 1143.31,302.84 1144.03,303.92 1144.77,303.92 1145.50,303.92 1146.23,303.38 1146.96,303.92 1147.69,303.92 1148.44,302.84 1149.19,303.38 1149.92,302.84 1150.65,302.84 1151.39,303.92 1152.13,303.92 1152.87,303.92 1153.60,302.84 1154.34,303.92 1155.08,303.92 1155.81,303.38 1156.54,303.38 1157.28,302.84 1158.01,303.38 1158.75,303.38 1159.48,302.84 1160.22,303.92 1160.95,303.92 1161.69,302.84 1162.43,303.38 1163.16,303.92 1163.90,302.57 1164.63,303.92 1165.37,303.92 1166.10,303.92 1166.84,303.92 1167.58,303.92 1168.38,303.92 1169.12,303.92 1169.85,303.92 1170.59,303.38 1171.32,303.38 1172.06,303.92 1172.78,303.92 1173.53,303.38 1174.56,303.92 1175.29,303.92 1176.32,303.38 1177.05,303.38 1177.79,303.38 1178.53,303.38 1179.26,303.38 1180.00,303.92"/>
<rect x="70" y="332" width="12" height="12" fill="#d62728" fill-opacity="0.95"/>
<text x="88" y="342" font-size="11" fill="#333" font-family="Arial, Helvetica, sans-serif">nsc1.utdallas.edu</text>
<rect x="350" y="332" width="12" height="12" fill="#d62728" fill-opacity="0.80"/>
<text x="368" y="342" font-size="11" fill="#333" font-family="Arial, Helvetica, sans-serif">nsc2.utdallas.edu</text>
<rect x="630" y="332" width="12" height="12" fill="#d62728" fill-opacity="0.65"/>
<text x="648" y="342" font-size="11" fill="#333" font-family="Arial, Helvetica, sans-serif">nsc3.utdallas.edu</text>
<rect x="910" y="332" width="12" height="12" fill="#d62728" fill-opacity="0.50"/>
<text x="928" y="342" font-size="11" fill="#333" font-family="Arial, Helvetica, sans-serif">nsc4.utdallas.edu</text>
</svg>