<?xml version="1.0" encoding="UTF-8"?>
<svg xmlns="http://www.w3.org/2000/svg" width="1200" height="360" viewBox="0 0 1200 360" role="img" aria-label="CPU Utilization (%)">
<rect width="100%" height="100%" fill="#ffffff"/>
<text x="600.0" y="22" text-anchor="middle" font-size="16" font-family="Arial, Helvetica, sans-serif" font-weight="bold">CPU Utilization (%)</text>
<line x1="70" y1="35.00" x2="1180" y2="35.00" stroke="#e3e3e3" stroke-width="1"/>
<text x="62" y="39.00" text-anchor="end" font-size="11" fill="#444" font-family="Arial, Helvetica, sans-serif">100</text>
<line x1="70" y1="89.00" x2="1180" y2="89.00" stroke="#e3e3e3" stroke-width="1"/>
<text x="62" y="93.00" text-anchor="end" font-size="11" fill="#444" font-family="Arial, Helvetica, sans-serif">80</text>
<line x1="70" y1="143.00" x2="1180" y2="143.00" stroke="#e3e3e3" stroke-width="1"/>
<text x="62" y="147.00" text-anchor="end" font-size="11" fill="#444" font-family="Arial, Helvetica, sans-serif">60</text>
<line x1="70" y1="197.00" x2="1180" y2="197.00" stroke="#e3e3e3" stroke-width="1"/>
<text x="62" y="201.00" text-anchor="end" font-size="11" fill="#444" font-family="Arial, Helvetica, sans-serif">40</text>
<line x1="70" y1="251.00" x2="1180" y2="251.00" stroke="#e3e3e3" stroke-width="1"/>
<text x="62" y="255.00" text-anchor="end" font-size="11" fill="#444" font-family="Arial, Helvetica, sans-serif">20</text>
<line x1="70" y1="305.00" x2="1180" y2="305.00" stroke="#e3e3e3" stroke-width="1"/>
<text x="62" y="309.00" text-anchor="end" font-size="11" fill="#444" font-family="Arial, Helvetica, sans-serif">0</text>
<line x1="70" y1="35" x2="70" y2="305" stroke="#999"/>
<line x1="70" y1="305" x2="1180" y2="305" stroke="#999"/>
<text x="70.00" y="323" text-anchor="middle" font-size="10" fill="#444" font-family="Arial, Helvetica, sans-serif">2026-02-11 16:38</text>
<text x="347.50" y="323" text-anchor="middle" font-size="10" fill="#444" font-family="Arial, Helvetica, sans-serif">2026-02-12 12:52</text>
<text x="625.00" y="323" text-anchor="middle" font-size="10" fill="#444" font-family="Arial, Helvetica, sans-serif">2026-02-13 09:07</text>
<text x="902.50" y="323" text-anchor="middle" font-size="10" fill="#444" font-family="Arial, Helvetica, sans-serif">2026-02-14 05:22</text>
<text x="1180.00" y="323" text-anchor="middle" font-size="10" fill="#444" font-family="Arial, Helvetica, sans-serif">2026-02-15 01:37</text>
<polyline fill="none" stroke="#d62728" stroke-opacity="0.95" stroke-width="2" points="71.23,304.46 72.46,298.79 73.69,296.90 74.92,303.92 76.16,304.73 77.38,304.46 78.61,303.92 79.95,304.73 81.17,303.92 82.39,304.46 83.61,303.92 84.86,304.46 86.08,304.46 87.31,303.92 89.52,304.46 91.42,303.92 92.67,304.46 93.93,303.92 95.15,300.95 96.38,304.73 97.58,278.27 98.82,303.92 100.05,304.46 101.28,294.74 102.52,304.46 103.77,303.92 105.01,301.49 106.24,303.92 107.53,295.28 108.77,294.20 110.00,303.65 111.26,304.46 112.49,304.46 113.72,303.92 114.98,303.65 116.20,302.30 117.43,303.92 118.69,304.46 119.90,303.92 121.13,304.73 122.34,304.73 123.57,304.46 124.80,303.38 126.02,304.46 127.28,303.92 128.52,303.38 129.74,304.46 130.96,297.71 132.20,297.44 133.43,48.23 134.84,303.92 136.07,303.92 137.29,304.46 138.51,303.65 139.73,303.65 140.95,304.46 142.17,304.46 143.41,303.92 144.63,304.46 145.88,303.92 147.11,304.46 148.32,304.46 149.56,299.60 150.81,303.65 152.03,303.92 153.27,304.73 154.48,303.92 155.70,304.73 156.92,304.46 158.14,304.46 159.36,304.46 160.59,303.92 161.81,304.73 163.04,303.92 164.28,304.46 165.49,304.73 166.73,303.38 167.94,303.38 169.17,303.65 170.43,304.46 171.65,303.65 172.88,304.73 174.12,304.46 175.34,304.46 176.57,304.73 177.80,303.92 179.01,303.92 180.23,304.46 181.47,304.73 182.70,299.60 183.93,303.65 185.17,304.46 186.38,304.73 187.61,303.65 188.84,303.92 190.06,304.46 191.28,304.46 192.51,303.92 193.73,303.92 194.97,303.92 196.20,304.46 197.42,303.92 198.65,303.92 199.90,298.79 201.14,303.65 202.36,304.46 203.58,304.73 204.81,304.73 206.03,304.46 207.27,304.46 208.50,304.46 209.73,304.46 210.95,302.84 212.19,304.46 213.42,304.46 214.66,304.46 215.91,304.46 217.13,304.46 218.36,304.46 219.59,303.65 220.81,304.73 222.04,303.38 223.28,304.46 224.61,304.46 225.83,304.73 227.08,303.92 228.30,303.92 229.52,304.46 230.74,299.87 231.94,304.46 233.17,304.73 234.40,295.01 235.63,304.46 236.85,303.92 238.07,303.92 239.30,303.92 240.52,304.46 241.77,303.65 242.99,304.46 244.22,304.46 245.44,304.46 246.67,303.92 247.89,303.92 249.12,303.92 250.36,304.73 251.59,304.46 252.82,304.46 254.04,303.92 255.26,304.46 256.48,303.65 257.71,303.92 258.93,303.65 260.17,304.73 261.41,304.46 262.64,304.46 263.86,304.46 265.11,303.11 266.34,303.38 267.55,304.46 268.79,304.46 270.02,304.46 271.27,303.65 272.51,303.92 273.73,304.46 274.97,297.71 276.18,294.20 277.40,303.92 278.63,304.46 279.86,303.65 281.08,297.71 282.29,304.46 283.52,303.92 284.76,304.46 285.99,304.46 287.22,303.92 288.45,303.38 289.70,304.73 290.93,303.92 292.15,303.38 293.38,303.92 294.59,304.46 295.93,304.46 297.19,303.92 298.40,304.73 299.63,304.46 300.84,304.46 302.07,304.73 303.30,304.46 304.53,304.73 305.76,35.00 306.98,303.65 308.21,303.11 309.44,297.17 310.69,304.46 311.92,304.46 313.14,304.46 314.36,303.92 315.60,303.65 316.86,304.46 318.11,303.11 319.33,304.73 320.56,304.46 321.79,303.92 323.01,304.73 324.24,304.46 325.47,303.92 326.72,304.73 327.94,304.46 329.16,304.46 330.40,304.46 331.63,303.92 332.86,303.65 334.08,304.46 335.33,303.65 336.56,304.46 337.78,301.76 339.00,302.03 340.22,304.46 341.45,304.46 342.68,304.46 343.90,35.00 345.12,303.65 346.34,303.92 347.56,304.46 348.80,304.46 350.03,303.65 351.26,304.46 352.51,304.73 353.74,304.46 354.98,304.73 356.20,35.00 357.43,304.73 358.66,303.65 359.89,304.46 361.12,303.65 362.37,304.73 363.60,300.68 364.84,303.65 366.07,303.92 367.29,304.46 368.52,304.46 369.74,304.46 370.96,304.46 372.20,304.73 373.43,304.73 374.66,304.73 375.89,303.65 377.12,303.92 378.35,303.92 379.58,304.73 380.82,35.00 382.06,304.46 383.28,303.92 384.51,304.73 385.74,303.92 386.98,304.73 388.22,303.92 389.44,304.46 390.67,303.92 392.03,304.73 393.27,304.46 394.50,303.65 395.73,304.46 396.97,304.46 398.20,303.92 399.43,304.46 400.67,303.65 401.88,304.73 403.15,295.28 404.40,297.17 405.61,304.46 406.84,304.46 408.07,304.46 409.30,304.73 410.53,304.46 411.80,303.65 413.03,304.46 414.26,303.92 415.50,304.73 416.83,304.73 418.06,304.73 419.60,303.65 421.68,304.46 422.94,303.92 424.20,303.92 425.42,304.73 426.62,304.46 427.85,303.92 429.09,303.65 430.33,304.46 431.57,304.73 432.84,303.92 434.12,35.00 435.42,303.65 436.65,304.46 437.88,304.73 439.11,303.92 440.36,303.92 441.60,303.65 442.84,304.46 444.06,303.92 445.29,304.46 446.57,304.46 447.81,304.46 449.02,304.46 450.25,304.46 451.50,303.92 452.78,304.46 454.01,303.92 455.24,303.92 456.51,303.65 457.68,303.92 458.91,303.65 460.16,303.92 461.38,303.92 462.63,303.92 463.90,303.11 465.13,303.92 466.36,303.92 467.60,304.46 468.84,304.46 470.07,303.65 471.30,304.73 472.52,299.06 473.75,304.73 474.99,304.46 476.20,48.23 477.67,48.50 479.12,48.77 480.57,48.50 482.00,48.23 483.40,48.50 484.82,48.50 486.27,48.77 487.70,304.46 488.94,304.46 490.15,304.46 491.38,303.92 492.60,304.46 493.83,304.46 495.05,303.92 496.27,304.19 497.50,303.65 498.72,304.73 499.95,303.92 501.18,303.92 502.40,304.46 503.62,304.73 504.84,304.73 506.07,304.46 507.29,304.46 508.52,304.46 509.73,303.92 510.97,304.46 512.20,304.73 513.42,303.65 514.64,304.46 515.86,35.00 517.09,304.46 518.31,304.46 519.54,304.73 520.77,304.46 522.00,304.73 523.23,35.00 524.45,304.46 525.67,304.46 526.90,304.73 528.12,303.92 529.34,303.92 530.55,303.92 531.76,303.38 532.99,304.73 534.21,303.65 535.43,304.46 536.65,303.92 537.87,304.46 539.10,304.73 540.31,303.92 541.53,303.38 542.74,304.73 544.00,303.65 545.32,304.73 546.56,304.73 547.79,304.46 549.01,303.92 550.23,303.65 551.45,297.44 552.66,297.71 553.89,48.50 555.34,48.50 556.77,48.50 558.20,48.23 559.64,48.50 561.09,48.23 562.52,48.50 563.98,48.77 565.47,295.82 566.81,297.17 568.13,304.73 569.36,303.92 570.60,303.92 571.83,304.73 573.04,303.92 574.27,304.46 575.50,304.46 576.72,304.46 577.94,304.46 579.16,304.46 580.39,304.73 581.62,303.11 582.84,304.73 584.09,303.92 585.31,304.46 586.53,304.73 587.61,304.46 588.87,303.92 590.10,304.73 591.36,304.73 592.58,304.73 593.80,303.92 595.04,35.00 596.28,304.73 597.51,304.73 598.75,304.46 599.99,304.73 601.24,303.65 602.46,304.46 603.67,304.73 604.90,304.73 606.11,304.73 607.34,35.00 608.55,303.92 609.80,303.92 611.02,303.92 612.25,303.65 613.47,304.46 614.69,304.46 615.93,303.92 617.15,304.46 618.39,304.46 619.62,304.73 620.85,303.92 622.07,301.22 623.31,304.46 624.54,304.46 625.81,304.46 627.03,303.65 628.25,304.46 629.47,304.73 630.69,304.46 631.91,300.68 633.15,303.92 634.37,304.73 635.59,304.46 636.82,304.73 638.04,303.38 639.26,303.92 640.50,304.73 641.73,304.73 642.96,303.92 644.44,303.92 645.70,303.92 646.96,303.65 648.20,304.46 649.43,302.84 650.67,304.46 651.89,304.46 653.11,303.92 654.35,303.92 655.59,303.11 656.81,304.73 658.04,304.46 659.28,304.46 660.50,304.46 661.77,304.73 663.02,304.73 664.25,304.46 665.48,304.73 666.71,304.73 667.94,302.57 669.16,302.84 670.39,301.22 671.67,303.92 672.90,304.46 674.14,304.46 675.36,304.46 676.59,303.92 677.83,304.73 679.05,304.46 680.28,304.46 681.51,303.92 682.75,304.46 683.98,304.46 685.21,304.46 686.43,297.44 687.66,303.92 688.89,304.46 690.14,304.46 691.37,300.68 692.59,303.92 693.81,289.07 695.04,303.65 696.29,302.03 697.52,302.84 699.00,302.84 700.26,304.46 701.49,304.46 702.72,303.92 703.94,304.73 705.18,303.92 706.41,303.92 707.64,303.65 708.89,304.46 710.12,303.92 711.34,304.73 712.56,304.46 713.79,304.46 715.02,303.92 716.25,304.73 717.48,304.46 718.70,304.73 719.93,304.46 721.15,304.73 722.38,304.73 723.62,303.92 724.84,304.46 726.07,304.73 727.31,304.46 728.55,304.46 729.77,304.73 731.00,304.46 732.23,303.38 733.50,303.92 734.72,304.73 735.95,304.73 737.19,303.92 738.42,303.92 739.64,304.46 740.87,303.92 742.10,303.92 743.36,304.73 744.59,303.92 745.82,304.46 747.03,303.92 748.26,304.46 749.49,304.73 750.72,303.92 751.94,304.73 753.18,304.46 754.43,304.73 755.66,298.79 756.87,303.92 758.11,303.92 759.33,304.46 760.56,304.46 761.79,303.65 763.02,303.65 764.24,304.73 765.49,303.92 766.72,303.92 767.94,235.88 769.18,236.69 770.42,236.69 771.66,236.69 772.89,236.15 774.13,232.10 775.51,227.51 776.86,228.59 778.17,222.65 779.41,236.42 780.70,236.15 781.93,235.61 783.16,236.69 784.38,236.69 785.53,236.15 786.81,235.61 788.04,236.15 789.29,236.42 790.50,233.18 791.73,236.69 792.95,236.42 794.19,236.15 795.41,235.61 796.65,235.88 797.87,236.42 799.11,236.42 800.34,236.96 801.58,236.42 802.82,235.61 804.06,236.69 805.29,236.15 806.53,236.42 807.76,242.63 809.01,255.86 810.25,236.69 811.46,235.88 812.69,236.15 813.92,236.42 815.15,235.88 816.38,236.15 817.61,236.96 818.84,236.15 820.09,236.69 821.30,236.96 822.53,236.15 823.76,236.96 825.00,236.15 826.23,236.42 827.47,234.53 828.69,236.15 829.93,236.69 831.16,236.69 832.40,235.34 833.64,236.15 834.88,236.15 836.11,235.61 837.34,236.69 838.58,236.96 839.81,235.61 841.05,232.91 842.32,234.26 843.55,236.42 844.79,236.42 846.01,236.15 847.24,236.96 848.47,236.15 849.71,236.69 850.94,236.96 852.18,234.53 853.41,236.42 854.64,236.69 855.88,236.42 857.11,236.15 858.36,236.42 859.59,235.88 860.83,236.15 862.07,236.96 863.31,235.61 864.55,235.88 865.78,235.88 867.01,236.42 868.25,236.42 869.48,236.69 870.74,236.69 871.98,236.42 873.22,235.61 874.46,236.15 875.68,236.15 876.91,235.34 878.14,236.69 879.37,235.61 880.61,236.69 881.84,235.88 883.07,236.69 884.30,232.91 885.54,235.88 886.78,236.42 888.01,235.88 889.24,235.61 890.49,236.69 891.72,235.88 892.96,236.42 894.19,236.42 895.42,236.69 896.64,236.15 897.86,235.88 899.10,236.42 900.33,235.61 901.57,201.32 902.81,236.69 904.05,236.15 905.28,236.42 906.52,236.42 907.76,235.61 908.99,230.48 910.23,235.34 911.48,283.40 912.71,236.69 913.94,230.75 915.18,236.69 916.43,224.00 917.66,236.42 918.90,236.15 920.16,235.61 921.40,235.88 922.64,236.15 923.87,236.96 925.10,230.48 926.34,235.88 927.58,236.15 928.82,235.61 930.06,243.17 931.29,296.63 932.52,236.15 933.75,235.61 935.01,236.69 936.24,229.94 937.48,229.94 938.71,236.15 939.94,236.42 941.17,236.69 942.39,235.61 943.62,236.69 944.86,236.69 946.09,236.42 947.33,236.15 948.55,236.69 949.79,236.69 951.03,236.42 952.29,231.29 953.53,236.69 954.76,236.15 955.99,236.42 957.22,235.88 958.45,235.61 959.68,235.61 960.93,236.42 962.16,236.96 963.39,236.69 964.63,236.69 965.86,235.61 967.09,235.88 968.33,235.88 969.58,236.69 970.85,236.69 972.09,235.61 973.33,236.15 974.57,283.13 975.81,236.42 977.05,236.69 978.27,235.88 979.50,236.15 980.73,235.07 981.97,236.42 983.21,236.69 984.45,236.15 985.69,237.23 986.94,236.15 988.22,236.15 989.45,236.15 990.68,236.69 991.92,236.69 993.15,236.42 994.40,236.69 995.64,236.69 996.89,235.61 998.12,236.42 999.37,235.34 1000.60,236.96 1001.85,235.61 1003.09,236.69 1004.32,236.69 1005.55,236.15 1006.79,236.42 1008.02,236.42 1009.27,296.90 1010.51,236.15 1011.74,235.61 1012.98,236.42 1014.22,236.42 1015.46,236.69 1016.69,236.69 1017.93,236.69 1019.17,236.69 1020.45,235.34 1021.69,235.88 1022.94,233.45 1024.17,236.15 1025.43,236.15 1026.70,235.07 1027.96,234.26 1029.21,234.26 1030.48,235.88 1031.73,290.15 1032.96,236.69 1034.19,236.42 1035.43,236.15 1036.67,236.42 1037.92,235.34 1039.18,236.69 1040.41,236.15 1041.65,236.69 1042.89,235.88 1044.12,236.15 1045.35,236.69 1046.59,236.42 1047.82,236.96 1049.05,231.83 1050.28,236.42 1051.51,236.42 1052.75,236.42 1053.96,236.42 1055.20,236.15 1056.44,236.69 1057.68,236.42 1058.91,232.64 1060.16,235.88 1061.40,237.23 1062.63,236.42 1063.87,235.88 1065.11,236.42 1066.34,283.94 1067.57,236.15 1068.80,236.42 1070.04,236.42 1071.28,236.42 1072.50,290.42 1073.72,236.42 1074.96,236.69 1076.18,236.42 1077.43,236.15 1078.66,236.69 1079.89,235.88 1081.13,234.53 1082.36,235.34 1083.59,236.69 1084.83,236.42 1086.06,236.15 1087.27,236.42 1088.50,235.61 1089.71,236.69 1090.95,236.42 1092.18,235.34 1093.44,235.88 1094.67,236.15 1095.90,235.61 1097.14,236.69 1098.40,236.15 1099.64,235.61 1100.87,236.15 1102.12,235.07 1103.35,236.15 1104.58,235.61 1105.83,236.69 1107.06,236.15 1108.31,235.61 1109.56,290.15 1110.79,236.42 1112.01,236.69 1113.25,236.15 1114.47,235.61 1115.71,236.42 1116.94,236.69 1118.15,235.88 1119.39,235.88 1120.63,235.88 1121.87,236.69 1123.10,236.15 1124.33,236.15 1125.56,236.42 1126.79,235.34 1128.03,235.88 1129.27,236.15 1130.51,236.15 1131.74,235.61 1132.97,236.42 1134.22,236.96 1135.45,235.34 1136.68,236.42 1137.92,236.15 1139.15,236.15 1140.38,235.88 1141.62,236.42 1142.86,233.18 1144.09,236.69 1145.32,235.88 1146.55,236.15 1147.83,236.69 1149.06,236.15 1150.32,235.88 1151.57,232.91 1152.81,236.15 1154.05,283.67 1155.28,236.42 1156.52,235.88 1157.76,234.80 1158.99,235.34 1160.24,236.15 1161.50,234.53 1162.74,236.69 1163.97,236.42 1165.21,236.69 1166.44,236.96 1167.68,235.88 1168.92,236.42 1170.14,236.69 1171.37,235.61 1172.61,236.42 1173.84,236.42 1175.08,236.69 1176.30,236.15 1177.55,236.42 1178.77,236.15 1180.00,235.61"/>
<polyline fill="none" stroke="#d62728" stroke-opacity="0.80" stroke-width="2" points="70.00,303.38 71.23,304.19 72.46,302.57 73.69,303.38 74.92,304.19 76.16,287.72 77.38,303.38 78.61,304.19 79.95,304.19 81.17,303.38 82.39,303.38 83.61,304.19 84.86,304.19 86.08,304.19 87.31,304.19 89.52,304.19 91.42,302.57 92.67,304.19 93.93,304.19 95.15,304.19 96.38,303.38 97.58,303.38 98.82,304.19 100.05,302.57 101.28,302.57 102.52,303.38 103.77,303.38 105.01,304.19 106.24,303.38 107.53,35.00 108.77,303.38 110.00,35.00 111.26,35.00 112.49,303.38 113.72,304.19 114.98,35.00 116.20,303.38 117.43,302.57 118.69,304.19 119.90,303.38 121.13,303.38 122.34,302.57 123.57,304.19 124.80,303.38 126.02,303.38 127.28,302.57 128.52,303.38 129.74,35.00 130.96,303.38 132.20,304.19 133.43,304.19 134.84,302.57 136.07,35.00 137.29,304.19 138.51,303.38 139.73,304.19 140.95,303.38 142.17,303.38 143.41,304.19 144.63,35.00 145.88,304.19 147.11,304.19 148.32,304.19 149.56,303.38 150.81,304.19 152.03,302.57 153.27,304.19 154.48,302.57 155.70,302.57 156.92,303.38 158.14,288.80 159.36,302.57 160.59,304.19 161.81,304.19 163.04,303.38 164.28,304.19 165.49,300.14 166.73,304.19 167.94,304.19 169.17,304.19 170.43,35.00 171.65,35.00 172.88,302.57 174.12,35.00 175.34,35.00 176.57,303.38 177.80,304.19 179.01,35.00 180.23,304.19 181.47,304.19 182.70,304.19 183.93,304.19 185.17,303.38 186.38,303.38 187.61,304.19 188.84,304.19 190.06,303.38 191.28,286.91 192.51,303.38 193.73,304.19 194.97,304.19 196.20,304.19 197.42,303.38 198.65,304.19 199.90,304.19 201.14,303.38 202.36,302.57 203.58,302.57 204.81,304.19 206.03,302.57 207.27,304.19 208.50,304.19 209.73,304.19 210.95,35.00 212.19,304.19 213.42,304.19 214.66,302.57 215.91,35.00 217.13,35.00 218.36,303.38 219.59,304.19 220.81,303.38 222.04,304.19 223.28,304.19 224.61,302.57 225.83,304.19 227.08,35.00 228.30,35.00 229.52,302.57 230.74,304.19 231.94,304.19 233.17,303.38 234.40,35.00 235.63,303.38 236.85,35.00 238.07,304.19 239.30,304.19 240.52,304.19 241.77,303.38 242.99,303.38 244.22,304.19 245.44,304.19 246.67,295.28 247.89,35.00 249.12,303.38 250.36,35.00 251.59,35.00 252.82,302.57 254.04,304.19 255.26,299.33 256.48,304.19 257.71,304.19 258.93,304.19 260.17,303.38 261.41,303.38 262.64,303.38 263.86,302.57 265.11,303.38 266.34,304.19 267.55,303.38 268.79,304.19 270.02,303.38 271.27,304.19 272.51,303.38 273.73,303.38 274.97,302.57 276.18,303.38 277.40,304.19 278.63,303.38 279.86,35.00 281.08,304.19 282.29,303.38 283.52,302.57 284.76,304.19 285.99,304.19 287.22,303.38 288.45,303.38 289.70,304.19 290.93,35.00 292.15,303.38 293.38,35.00 294.59,302.57 295.93,303.38 297.19,304.19 298.40,35.00 299.63,303.38 300.84,35.00 302.07,304.19 303.30,304.19 304.53,35.00 305.76,304.19 306.98,302.57 308.21,302.57 309.44,303.38 310.69,35.00 311.92,302.57 313.14,304.19 314.36,301.76 315.60,303.38 316.86,303.38 318.11,304.19 319.33,303.38 320.56,303.38 321.79,304.19 323.01,304.19 324.24,303.38 325.47,304.19 326.72,304.19 327.94,303.38 329.16,35.00 330.40,304.19 331.63,303.38 332.86,304.19 334.08,304.19 335.33,304.19 336.56,35.00 337.78,35.00 339.00,302.57 340.22,302.57 341.45,304.19 342.68,303.38 343.90,302.57 345.12,302.57 346.34,35.00 347.56,304.19 348.80,35.00 350.03,303.38 351.26,35.00 352.51,303.38 353.74,303.38 354.98,303.38 356.20,35.00 357.43,304.19 358.66,302.57 359.89,303.38 361.12,304.19 362.37,303.38 363.60,35.00 364.84,303.38 366.07,304.19 367.29,303.38 368.52,304.19 369.74,35.00 370.96,302.57 372.20,304.19 373.43,304.19 374.66,303.38 375.89,303.38 377.12,304.19 378.35,303.38 379.58,304.19 380.82,304.19 382.06,304.19 383.28,303.38 384.51,302.57 385.74,304.19 386.98,35.00 388.22,295.28 389.44,303.38 390.67,302.57 392.03,303.38 393.27,301.76 394.50,35.00 395.73,304.19 396.97,303.38 398.20,304.19 399.43,304.19 400.67,299.33 401.88,304.19 403.15,303.38 404.40,302.57 405.61,303.38 406.84,302.57 408.07,304.19 409.30,304.19 410.53,304.19 411.80,302.57 413.03,303.38 414.26,303.38 415.50,35.00 416.83,303.38 418.06,303.38 419.60,304.19 421.68,302.57 422.94,303.38 424.20,303.38 425.42,303.38 426.62,304.19 427.85,303.38 429.09,304.19 430.33,304.19 431.57,303.38 432.84,304.19 434.12,304.19 435.42,304.19 436.65,304.19 437.88,302.57 439.11,35.00 440.36,304.19 441.60,302.57 442.84,303.38 444.06,303.38 445.29,303.38 446.57,304.19 447.81,304.19 449.02,303.38 450.25,304.19 451.50,303.38 452.78,304.19 454.01,303.38 455.24,304.19 456.51,287.18 457.68,288.53 458.91,301.76 460.16,302.57 461.38,303.38 462.63,35.00 463.90,35.00 465.13,303.38 466.36,303.38 467.60,304.19 468.84,304.19 470.07,35.00 471.30,304.19 472.52,35.00 473.75,303.38 474.99,303.38 476.20,302.57 477.67,303.38 479.12,303.38 480.57,300.95 482.00,303.38 483.40,302.57 484.82,304.19 486.27,304.19 487.70,35.00 488.94,303.38 490.15,303.38 491.38,304.19 492.60,304.19 493.83,302.57 495.05,303.38 496.27,304.19 497.50,303.38 498.72,303.38 499.95,304.19 501.18,303.38 502.40,304.19 503.62,303.38 504.84,303.38 506.07,304.19 507.29,303.38 508.52,35.00 509.73,304.19 510.97,304.19 512.20,303.38 513.42,304.19 514.64,304.19 515.86,35.00 517.09,303.38 518.31,304.19 519.54,304.19 520.77,304.19 522.00,302.57 523.23,35.00 524.45,303.38 525.67,287.72 526.90,304.19 528.12,304.19 529.34,303.38 530.55,301.76 531.76,303.38 532.99,304.19 534.21,302.57 535.43,303.38 536.65,303.38 537.87,303.38 539.10,303.38 540.31,304.19 541.53,303.38 542.74,302.57 544.00,304.19 545.32,303.38 546.56,303.38 547.79,303.38 549.01,303.38 550.23,304.19 551.45,304.19 552.66,304.19 553.89,304.19 555.34,303.38 556.77,303.38 558.20,304.19 559.64,302.57 561.09,304.19 562.52,303.38 563.98,302.57 565.47,304.19 566.81,303.38 568.13,303.38 569.36,303.38 570.60,302.57 571.83,35.00 573.04,35.00 574.27,304.19 575.50,303.38 576.72,35.00 577.94,35.00 579.16,303.38 580.39,304.19 581.62,304.19 582.84,304.19 584.09,303.38 585.31,304.19 586.53,304.19 587.61,304.19 588.87,304.19 590.10,287.72 591.36,303.38 592.58,302.57 593.80,303.38 595.04,303.38 596.28,304.19 597.51,304.19 598.75,303.38 599.99,302.57 601.24,304.19 602.46,303.38 603.67,302.57 604.90,304.19 606.11,301.76 607.34,304.19 608.55,304.19 609.80,303.38 611.02,303.38 612.25,304.19 613.47,303.38 614.69,301.76 615.93,304.19 617.15,304.19 618.39,304.19 619.62,35.00 620.85,303.38 622.07,304.19 623.31,304.19 624.54,304.19 625.81,304.19 627.03,35.00 628.25,35.00 629.47,302.57 630.69,304.19 631.91,35.00 633.15,304.19 634.37,303.38 635.59,302.57 636.82,302.57 638.04,304.19 639.26,303.38 640.50,304.19 641.73,303.38 642.96,301.76 644.44,304.19 645.70,304.19 646.96,304.19 648.20,302.57 649.43,304.19 650.67,304.19 651.89,304.19 653.11,303.38 654.35,304.19 655.59,303.38 656.81,35.00 658.04,302.57 659.28,304.19 660.50,302.57 661.77,304.19 663.02,303.38 664.25,304.19 665.48,303.38 666.71,35.00 667.94,302.57 669.16,303.38 670.39,304.19 671.67,304.19 672.90,304.19 674.14,304.19 675.36,303.38 676.59,304.19 677.83,304.19 679.05,304.19 680.28,304.19 681.51,304.19 682.75,304.19 683.98,302.57 685.21,304.19 686.43,303.38 687.66,304.19 688.89,304.19 690.14,304.19 691.37,304.19 692.59,35.00 693.81,304.19 695.04,301.76 696.29,217.79 697.52,304.19 699.00,35.00 700.26,303.38 701.49,302.57 702.72,304.19 703.94,303.38 705.18,304.19 706.41,303.38 707.64,304.19 708.89,304.19 710.12,303.38 711.34,35.00 712.56,35.00 713.79,304.19 715.02,302.57 716.25,304.19 717.48,304.19 718.70,304.19 719.93,303.38 721.15,304.19 722.38,302.57 723.62,304.19 724.84,35.00 726.07,35.00 727.31,303.38 728.55,304.19 729.77,303.38 731.00,300.95 732.23,304.19 733.50,304.19 734.72,304.19 735.95,303.38 737.19,303.38 738.42,302.57 739.64,35.00 740.87,303.38 742.10,35.00 743.36,35.00 744.59,303.38 745.82,304.19 747.03,302.57 748.26,304.19 749.49,304.19 750.72,303.38 751.94,303.38 753.18,296.09 754.43,304.19 755.66,304.19 756.87,304.19 758.11,302.57 759.33,35.00 760.56,303.38 761.79,304.19 763.02,302.57 764.24,302.57 765.49,303.38 766.72,35.00 767.94,303.38 769.18,303.38 770.42,304.19 771.66,304.19 772.89,303.38 774.13,304.19 775.51,303.38 776.86,303.38 778.17,302.57 779.41,304.19 780.70,303.38 781.93,303.38 783.16,304.19 784.38,35.00 785.53,303.38 786.81,287.18 788.04,304.19 789.29,286.37 790.50,302.57 791.73,304.19 792.95,304.19 794.19,304.19 795.41,304.19 796.65,304.19 797.87,35.00 799.11,303.38 800.34,304.19 801.58,35.00 802.82,304.19 804.06,304.19 805.29,303.38 806.53,304.19 807.76,304.19 809.01,303.38 810.25,303.38 811.46,304.19 812.69,304.19 813.92,304.19 815.15,304.19 816.38,302.57 817.61,35.00 818.84,35.00 820.09,304.19 821.30,303.38 822.53,304.19 823.76,304.19 825.00,304.19 826.23,304.19 827.47,304.19 828.69,301.76 829.93,303.38 831.16,302.57 832.40,304.19 833.64,35.00 834.88,304.19 836.11,304.19 837.34,303.38 838.58,35.00 839.81,304.19 841.05,304.19 842.32,304.19 843.55,35.00 844.79,304.19 846.01,304.19 847.24,303.38 848.47,303.38 849.71,35.00 850.94,35.00 852.18,303.38 853.41,304.19 854.64,302.57 855.88,302.57 857.11,304.19 858.36,295.28 859.59,303.38 860.83,304.19 862.07,304.19 863.31,303.38 864.55,35.00 865.78,304.19 867.01,302.57 868.25,35.00 869.48,302.57 870.74,303.38 871.98,304.19 873.22,303.38 874.46,304.19 875.68,35.00 876.91,35.00 878.14,302.57 879.37,303.38 880.61,295.28 881.84,304.19 883.07,304.19 884.30,303.38 885.54,303.38 886.78,304.19 888.01,304.19 889.24,35.00 890.49,303.38 891.72,303.38 892.96,304.19 894.19,35.00 895.42,304.19 896.64,303.38 897.86,35.00 899.10,304.19 900.33,303.38 901.57,302.57 902.81,304.19 904.05,302.57 905.28,304.19 906.52,303.38 907.76,304.19 908.99,304.19 910.23,304.19 911.48,304.19 912.71,304.19 913.94,304.19 915.18,303.38 916.43,303.38 917.66,304.19 918.90,304.19 920.16,304.19 921.40,304.19 922.64,303.38 923.87,304.19 925.10,304.19 926.34,303.38 927.58,303.38 928.82,35.00 930.06,303.38 931.29,303.38 932.52,304.19 933.75,35.00 935.01,302.57 936.24,304.19 937.48,287.18 938.71,304.19 939.94,35.00 941.17,35.00 942.39,304.19 943.62,304.19 944.86,304.19 946.09,304.19 947.33,303.38 948.55,303.38 949.79,303.38 951.03,304.19 952.29,35.00 953.53,35.00 954.76,35.00 955.99,286.37 957.22,302.57 958.45,301.76 959.68,303.38 960.93,303.38 962.16,286.37 963.39,304.19 964.63,304.19 965.86,304.19 967.09,304.19 968.33,303.38 969.58,35.00 970.85,303.38 972.09,304.19 973.33,303.38 974.57,303.38 975.81,35.00 977.05,304.19 978.27,35.00 979.50,303.38 980.73,302.57 981.97,303.38 983.21,303.38 984.45,303.38 985.69,303.38 986.94,303.38 988.22,304.19 989.45,35.00 990.68,303.38 991.92,304.19 993.15,35.00 994.40,35.00 995.64,304.19 996.89,303.38 998.12,304.19 999.37,304.19 1000.60,301.76 1001.85,304.19 1003.09,303.38 1004.32,304.19 1005.55,301.76 1006.79,304.19 1008.02,302.57 1009.27,302.57 1010.51,303.38 1011.74,304.19 1012.98,35.00 1014.22,35.00 1015.46,35.00 1016.69,303.38 1017.93,303.38 1019.17,304.19 1020.45,35.00 1021.69,302.57 1022.94,304.19 1024.17,35.00 1025.43,304.19 1026.70,304.19 1027.96,303.38 1029.21,303.38 1030.48,302.57 1031.73,304.19 1032.96,303.38 1034.19,303.38 1035.43,304.19 1036.67,35.00 1037.92,304.19 1039.18,35.00 1040.41,304.19 1041.65,303.38 1042.89,35.00 1044.12,302.57 1045.35,303.38 1046.59,298.52 1047.82,303.38 1049.05,304.19 1050.28,303.38 1051.51,304.19 1052.75,304.19 1053.96,35.00 1055.20,304.19 1056.44,304.19 1057.68,35.00 1058.91,304.19 1060.16,303.38 1061.40,304.19 1062.63,35.00 1063.87,303.38 1065.11,303.38 1066.34,304.19 1067.57,304.19 1068.80,304.19 1070.04,304.19 1071.28,298.52 1072.50,303.38 1073.72,302.57 1074.96,304.19 1076.18,302.57 1077.43,303.38 1078.66,304.19 1079.89,304.19 1081.13,303.38 1082.36,303.38 1083.59,304.19 1084.83,304.19 1086.06,35.00 1087.27,35.00 1088.50,304.19 1089.71,304.19 1090.95,303.38 1092.18,303.38 1093.44,301.76 1094.67,304.19 1095.90,304.19 1097.14,284.75 1098.40,303.38 1099.64,303.38 1100.87,304.19 1102.12,304.19 1103.35,304.19 1104.58,303.38 1105.83,303.38 1107.06,304.19 1108.31,303.38 1109.56,303.38 1110.79,303.38 1112.01,304.19 1113.25,304.19 1114.47,303.38 1115.71,302.57 1116.94,303.38 1118.15,304.19 1119.39,303.38 1120.63,304.19 1121.87,304.19 1123.10,35.00 1124.33,303.38 1125.56,304.19 1126.79,302.57 1128.03,304.19 1129.27,304.19 1130.51,304.19 1131.74,303.38 1132.97,301.76 1134.22,35.00 1135.45,304.19 1136.68,303.38 1137.92,304.19 1139.15,35.00 1140.38,304.19 1141.62,304.19 1142.86,304.19 1144.09,304.19 1145.32,304.19 1146.55,35.00 1147.83,35.00 1149.06,303.38 1150.32,304.19 1151.57,304.19 1152.81,302.57 1154.05,35.00 1155.28,302.57 1156.52,35.00 1157.76,35.00 1158.99,303.38 1160.24,303.38 1161.50,304.19 1162.74,304.19 1163.97,35.00 1165.21,304.19 1166.44,303.38 1167.68,302.57 1168.92,304.19 1170.14,304.19 1171.37,303.38 1172.61,302.57 1173.84,304.19 1175.08,304.19 1176.30,304.19 1177.55,304.19 1178.77,35.00 1180.00,35.00"/>
<polyline fill="none" stroke="#d62728" stroke-opacity="0.65" stroke-width="2" points="70.00,35.00 71.23,304.46 72.46,304.46 73.69,302.30 74.92,304.46 76.16,303.38 77.38,304.46 78.61,304.46 79.95,35.00 81.17,304.46 82.39,304.46 83.61,303.92 84.86,303.92 86.08,304.46 87.31,304.46 89.52,303.92 91.42,304.46 92.67,35.00 93.93,303.92 95.15,302.84 96.38,304.46 97.58,303.92 98.82,302.84 100.05,35.00 101.28,303.92 102.52,35.00 103.77,35.00 105.01,35.00 106.24,303.92 107.53,35.00 108.77,303.38 110.00,303.92 111.26,304.46 112.49,35.00 113.72,35.00 114.98,304.46 116.20,35.00 117.43,304.46 118.69,35.00 119.90,304.46 121.13,303.92 122.34,35.00 123.57,304.46 124.80,304.46 126.02,293.12 127.28,35.00 128.52,304.46 129.74,304.46 130.96,304.46 132.20,35.00 133.43,304.46 134.84,304.46 136.07,304.46 137.29,35.00 138.51,35.00 139.73,304.46 140.95,304.46 142.17,303.38 143.41,303.92 144.63,304.46 145.88,35.00 147.11,304.46 148.32,304.46 149.56,35.00 150.81,304.46 152.03,303.92 153.27,304.46 154.48,304.46 155.70,35.00 156.92,303.92 158.14,303.92 159.36,304.46 160.59,303.92 161.81,303.92 163.04,35.00 164.28,303.92 165.49,304.46 166.73,304.46 167.94,303.38 169.17,35.00 170.43,304.46 171.65,303.38 172.88,304.46 174.12,35.00 175.34,304.46 176.57,304.46 177.80,303.92 179.01,303.92 180.23,303.92 181.47,304.46 182.70,303.92 183.93,304.46 185.17,303.92 186.38,35.00 187.61,303.92 188.84,303.92 190.06,304.46 191.28,304.46 192.51,303.92 193.73,303.92 194.97,35.00 196.20,35.00 197.42,303.92 198.65,35.00 199.90,304.46 201.14,304.46 202.36,304.46 203.58,304.46 204.81,303.92 206.03,304.46 207.27,303.38 208.50,304.46 209.73,303.92 210.95,35.00 212.19,304.46 213.42,303.92 214.66,303.92 215.91,303.92 217.13,304.46 218.36,35.00 219.59,304.46 220.81,304.46 222.04,35.00 223.28,303.92 224.61,304.46 225.83,303.92 227.08,304.46 228.30,304.46 229.52,303.92 230.74,303.92 231.94,304.46 233.17,304.46 234.40,304.46 235.63,303.38 236.85,304.46 238.07,35.00 239.30,303.92 240.52,35.00 241.77,304.46 242.99,35.00 244.22,35.00 245.44,303.92 246.67,303.92 247.89,304.46 249.12,304.46 250.36,304.46 251.59,303.92 252.82,304.46 254.04,304.46 255.26,303.92 256.48,35.00 257.71,304.46 258.93,35.00 260.17,303.92 261.41,304.46 262.64,304.46 263.86,35.00 265.11,35.00 266.34,35.00 267.55,304.46 268.79,303.92 270.02,304.46 271.27,303.92 272.51,303.92 273.73,304.46 274.97,304.46 276.18,304.46 277.40,304.46 278.63,304.46 279.86,304.46 281.08,304.46 282.29,282.59 283.52,304.46 284.76,303.92 285.99,304.46 287.22,304.46 288.45,304.46 289.70,303.38 290.93,304.46 292.15,304.46 293.38,303.92 294.59,304.46 295.93,303.92 297.19,304.46 298.40,304.46 299.63,304.46 300.84,304.46 302.07,304.46 303.30,303.38 304.53,304.46 305.76,304.46 306.98,304.46 308.21,303.92 309.44,35.00 310.69,304.46 311.92,303.92 313.14,303.92 314.36,303.92 315.60,35.00 316.86,304.46 318.11,304.46 319.33,35.00 320.56,303.92 321.79,35.00 323.01,35.00 324.24,304.46 325.47,304.46 326.72,35.00 327.94,35.00 329.16,304.46 330.40,304.46 331.63,303.92 332.86,303.92 334.08,304.46 335.33,304.46 336.56,304.46 337.78,303.92 339.00,304.46 340.22,304.46 341.45,303.92 342.68,303.38 343.90,304.46 345.12,35.00 346.34,304.46 347.56,35.00 348.80,35.00 350.03,303.92 351.26,303.92 352.51,304.46 353.74,304.46 354.98,304.46 356.20,303.92 357.43,297.98 358.66,35.00 359.89,304.46 361.12,303.92 362.37,304.46 363.60,303.92 364.84,35.00 366.07,303.92 367.29,304.46 368.52,35.00 369.74,303.92 370.96,304.46 372.20,304.46 373.43,35.00 374.66,303.92 375.89,303.92 377.12,35.00 378.35,303.92 379.58,303.92 380.82,35.00 382.06,303.92 383.28,304.46 384.51,303.92 385.74,304.46 386.98,303.92 388.22,35.00 389.44,304.46 390.67,35.00 392.03,35.00 393.27,303.92 394.50,303.38 395.73,303.38 396.97,303.38 398.20,35.00 399.43,304.46 400.67,304.46 401.88,304.46 403.15,35.00 404.40,304.46 405.61,304.46 406.84,304.46 408.07,35.00 409.30,304.46 410.53,304.46 411.80,293.66 413.03,303.92 414.26,304.46 415.50,303.92 416.83,304.46 418.06,35.00 419.60,304.46 421.68,304.46 422.94,304.46 424.20,304.46 425.42,35.00 426.62,304.46 427.85,304.46 429.09,303.92 430.33,35.00 431.57,304.46 432.84,35.00 434.12,303.38 435.42,304.46 436.65,304.46 437.88,35.00 439.11,35.00 440.36,304.46 441.60,35.00 442.84,304.46 444.06,304.46 445.29,304.46 446.57,35.00 447.81,303.92 449.02,35.00 450.25,304.46 451.50,304.46 452.78,297.98 454.01,304.46 455.24,35.00 456.51,293.12 457.68,35.00 458.91,303.92 460.16,35.00 461.38,304.46 462.63,304.46 463.90,303.92 465.13,304.46 466.36,304.46 467.60,303.92 468.84,303.92 470.07,304.46 471.30,303.92 472.52,35.00 473.75,304.46 474.99,304.46 476.20,304.46 477.67,304.46 479.12,303.92 480.57,304.46 482.00,304.46 483.40,303.38 484.82,303.92 486.27,303.92 487.70,304.46 488.94,35.00 490.15,35.00 491.38,304.46 492.60,304.46 493.83,303.92 495.05,304.46 496.27,303.92 497.50,35.00 498.72,304.46 499.95,304.46 501.18,304.46 502.40,304.46 503.62,293.12 504.84,304.46 506.07,35.00 507.29,303.92 508.52,303.92 509.73,304.46 510.97,304.46 512.20,35.00 513.42,303.92 514.64,304.46 515.86,304.46 517.09,304.46 518.31,35.00 519.54,297.98 520.77,303.92 522.00,303.38 523.23,304.46 524.45,35.00 525.67,302.84 526.90,303.92 528.12,35.00 529.34,35.00 530.55,303.92 531.76,302.84 532.99,304.46 534.21,303.38 535.43,35.00 536.65,304.46 537.87,304.46 539.10,304.46 540.31,303.92 541.53,304.46 542.74,35.00 544.00,304.46 545.32,303.92 546.56,35.00 547.79,303.92 549.01,303.92 550.23,304.46 551.45,304.46 552.66,304.46 553.89,303.92 555.34,304.46 556.77,304.46 558.20,303.92 559.64,304.46 561.09,303.92 562.52,303.92 563.98,304.46 565.47,303.92 566.81,303.92 568.13,303.92 569.36,35.00 570.60,35.00 571.83,35.00 573.04,303.92 574.27,304.46 575.50,304.46 576.72,304.46 577.94,304.46 579.16,304.46 580.39,35.00 581.62,304.46 582.84,303.38 584.09,35.00 585.31,35.00 586.53,303.92 587.61,282.32 588.87,282.05 590.10,304.46 591.36,35.00 592.58,303.38 593.80,304.46 595.04,35.00 596.28,35.00 597.51,35.00 598.75,303.92 599.99,304.46 601.24,304.46 602.46,303.92 603.67,35.00 604.90,303.38 606.11,303.92 607.34,304.46 608.55,303.92 609.80,304.46 611.02,304.46 612.25,304.46 613.47,304.46 614.69,304.46 615.93,303.92 617.15,303.92 618.39,303.92 619.62,304.46 620.85,304.46 622.07,35.00 623.31,35.00 624.54,304.46 625.81,304.46 627.03,304.46 628.25,303.92 629.47,35.00 630.69,303.92 631.91,35.00 633.15,303.92 634.37,304.46 635.59,35.00 636.82,304.46 638.04,35.00 639.26,304.46 640.50,303.92 641.73,304.46 642.96,302.84 644.44,303.92 645.70,303.92 646.96,304.46 648.20,304.46 649.43,303.38 650.67,303.92 651.89,299.06 653.11,35.00 654.35,304.46 655.59,303.92 656.81,304.46 658.04,35.00 659.28,303.92 660.50,303.92 661.77,304.46 663.02,303.92 664.25,35.00 665.48,304.46 666.71,35.00 667.94,303.92 669.16,35.00 670.39,303.38 671.67,304.46 672.90,304.46 674.14,35.00 675.36,304.46 676.59,304.46 677.83,304.46 679.05,303.92 680.28,35.00 681.51,303.38 682.75,304.46 683.98,304.46 685.21,35.00 686.43,304.46 687.66,35.00 688.89,304.46 690.14,304.46 691.37,291.50 692.59,303.92 693.81,304.46 695.04,304.46 696.29,303.38 697.52,303.92 699.00,303.38 700.26,303.92 701.49,35.00 702.72,35.00 703.94,304.46 705.18,303.38 706.41,304.46 707.64,35.00 708.89,303.92 710.12,304.46 711.34,35.00 712.56,303.92 713.79,35.00 715.02,304.46 716.25,304.46 717.48,35.00 718.70,304.46 719.93,304.46 721.15,35.00 722.38,304.46 723.62,304.46 724.84,304.46 726.07,303.92 727.31,35.00 728.55,304.46 729.77,304.46 731.00,35.00 732.23,304.46 733.50,303.38 734.72,35.00 735.95,304.46 737.19,304.46 738.42,303.92 739.64,304.46 740.87,304.46 742.10,304.46 743.36,304.46 744.59,304.46 745.82,304.46 747.03,303.92 748.26,304.46 749.49,303.92 750.72,304.46 751.94,35.00 753.18,304.46 754.43,304.46 755.66,303.92 756.87,35.00 758.11,304.46 759.33,304.46 760.56,304.46 761.79,304.46 763.02,303.92 764.24,304.46 765.49,304.46 766.72,35.00 767.94,304.46 769.18,303.92 770.42,35.00 771.66,35.00 772.89,303.92 774.13,281.24 775.51,304.46 776.86,304.46 778.17,35.00 779.41,303.92 780.70,303.92 781.93,304.46 783.16,304.46 784.38,303.92 785.53,293.12 786.81,303.92 788.04,292.58 789.29,294.20 790.50,293.12 791.73,303.92 792.95,304.46 794.19,303.92 795.41,303.38 796.65,304.46 797.87,304.46 799.11,304.46 800.34,303.92 801.58,35.00 802.82,35.00 804.06,35.00 805.29,35.00 806.53,304.46 807.76,35.00 809.01,304.46 810.25,303.92 811.46,304.46 812.69,303.92 813.92,303.92 815.15,304.46 816.38,303.92 817.61,304.46 818.84,304.46 820.09,35.00 821.30,304.46 822.53,304.46 823.76,35.00 825.00,303.92 826.23,35.00 827.47,303.92 828.69,35.00 829.93,304.46 831.16,35.00 832.40,304.46 833.64,304.46 834.88,303.92 836.11,304.46 837.34,35.00 838.58,303.92 839.81,304.46 841.05,304.46 842.32,304.46 843.55,304.46 844.79,303.92 846.01,302.84 847.24,304.46 848.47,304.46 849.71,304.46 850.94,304.46 852.18,303.92 853.41,304.46 854.64,303.38 855.88,35.00 857.11,35.00 858.36,303.38 859.59,35.00 860.83,304.46 862.07,303.92 863.31,304.46 864.55,303.92 865.78,304.46 867.01,35.00 868.25,35.00 869.48,35.00 870.74,303.92 871.98,303.92 873.22,303.92 874.46,304.46 875.68,303.92 876.91,304.46 878.14,304.46 879.37,304.46 880.61,304.46 881.84,304.46 883.07,304.46 884.30,35.00 885.54,304.46 886.78,35.00 888.01,304.46 889.24,304.46 890.49,304.46 891.72,304.46 892.96,303.92 894.19,292.58 895.42,304.46 896.64,304.46 897.86,303.92 899.10,304.46 900.33,304.46 901.57,304.46 902.81,303.92 904.05,35.00 905.28,304.46 906.52,304.46 907.76,304.46 908.99,303.92 910.23,304.46 911.48,293.66 912.71,292.04 913.94,293.66 915.18,293.12 916.43,294.20 917.66,293.12 918.90,293.12 920.16,292.58 921.40,293.12 922.64,293.39 923.87,293.12 925.10,293.12 926.34,293.12 927.58,293.12 928.82,293.66 930.06,292.58 931.29,292.58 932.52,293.66 933.75,293.12 935.01,292.58 936.24,293.12 937.48,294.20 938.71,293.12 939.94,293.12 941.17,292.58 942.39,294.20 943.62,293.66 944.86,281.51 946.09,271.25 947.33,293.66 948.55,293.66 949.79,293.12 951.03,293.12 952.29,293.66 953.53,293.12 954.76,293.66 955.99,293.66 957.22,293.66 958.45,293.12 959.68,293.66 960.93,293.12 962.16,292.04 963.39,293.12 964.63,293.12 965.86,293.12 967.09,292.58 968.33,293.12 969.58,293.12 970.85,292.58 972.09,292.58 973.33,293.12 974.57,293.12 975.81,293.39 977.05,293.12 978.27,293.66 979.50,293.12 980.73,292.58 981.97,293.66 983.21,292.58 984.45,293.12 985.69,293.66 986.94,294.20 988.22,293.66 989.45,293.66 990.68,293.12 991.92,293.12 993.15,292.04 994.40,293.12 995.64,293.66 996.89,293.12 998.12,294.20 999.37,293.66 1000.60,294.20 1001.85,293.12 1003.09,293.66 1004.32,282.05 1005.55,293.66 1006.79,293.66 1008.02,293.66 1009.27,293.12 1010.51,293.12 1011.74,293.12 1012.98,293.12 1014.22,293.66 1015.46,293.66 1016.69,293.66 1017.93,292.58 1019.17,293.66 1020.45,294.20 1021.69,293.12 1022.94,293.12 1024.17,294.20 1025.43,292.58 1026.70,294.20 1027.96,293.12 1029.21,293.66 1030.48,294.20 1031.73,294.20 1032.96,293.12 1034.19,293.66 1035.43,293.66 1036.67,293.12 1037.92,292.58 1039.18,293.66 1040.41,293.12 1041.65,293.12 1042.89,283.13 1044.12,292.58 1045.35,293.66 1046.59,293.66 1047.82,292.58 1049.05,282.05 1050.28,293.12 1051.51,293.12 1052.75,293.12 1053.96,292.58 1055.20,293.66 1056.44,294.20 1057.68,293.12 1058.91,293.66 1060.16,304.46 1061.40,303.92 1062.63,35.00 1063.87,303.92 1065.11,304.46 1066.34,303.92 1067.57,304.46 1068.80,304.46 1070.04,35.00 1071.28,304.46 1072.50,303.92 1073.72,303.92 1074.96,303.92 1076.18,304.46 1077.43,304.46 1078.66,303.38 1079.89,304.46 1081.13,304.46 1082.36,303.92 1083.59,304.46 1084.83,303.92 1086.06,35.00 1087.27,304.46 1088.50,304.46 1089.71,35.00 1090.95,304.46 1092.18,304.46 1093.44,304.46 1094.67,303.92 1095.90,35.00 1097.14,304.46 1098.40,304.46 1099.64,303.92 1100.87,304.46 1102.12,35.00 1103.35,35.00 1104.58,304.46 1105.83,304.46 1107.06,303.92 1108.31,304.46 1109.56,303.92 1110.79,35.00 1112.01,35.00 1113.25,35.00 1114.47,303.38 1115.71,293.12 1116.94,293.12 1118.15,304.46 1119.39,304.46 1120.63,258.83 1121.87,303.92 1123.10,304.46 1124.33,35.00 1125.56,35.00 1126.79,304.46 1128.03,303.38 1129.27,35.00 1130.51,303.92 1131.74,304.46 1132.97,303.92 1134.22,303.92 1135.45,304.46 1136.68,304.46 1137.92,304.46 1139.15,304.46 1140.38,304.46 1141.62,35.00 1142.86,297.44 1144.09,35.00 1145.32,303.92 1146.55,35.00 1147.83,304.46 1149.06,304.46 1150.32,304.46 1151.57,304.46 1152.81,304.46 1154.05,303.92 1155.28,303.92 1156.52,303.92 1157.76,35.00 1158.99,304.46 1160.24,304.46 1161.50,303.92 1162.74,304.46 1163.97,35.00 1165.21,304.46 1166.44,35.00 1167.68,304.46 1168.92,302.84 1170.14,35.00 1171.37,303.92 1172.61,304.46 1173.84,304.46 1175.08,303.92 1176.30,304.46 1177.55,304.46 1178.77,35.00 1180.00,303.92"/>
<polyline fill="none" stroke="#d62728" stroke-opacity="0.50" stroke-width="2" points="70.00,302.84 71.23,302.84 72.46,303.92 73.69,303.92 74.92,303.92 76.16,303.38 77.38,303.92 78.61,302.57 79.95,303.38 81.17,302.84 82.39,303.92 83.61,303.38 84.86,302.84 86.08,303.38 87.31,287.18 89.52,303.38 91.42,303.38 92.67,303.38 93.93,303.92 95.15,302.84 96.38,293.12 97.58,303.38 98.82,303.38 100.05,303.38 101.28,303.38 102.52,303.38 103.77,303.38 105.01,303.92 106.24,303.38 107.53,303.92 108.77,303.92 110.00,303.38 111.26,303.38 112.49,303.38 113.72,302.03 114.98,303.38 116.20,303.92 117.43,303.92 118.69,303.38 119.90,303.92 121.13,303.92 122.34,303.92 123.57,302.84 124.80,303.92 126.02,303.38 127.28,303.92 128.52,302.84 129.74,303.92 130.96,302.84 132.20,303.38 133.43,302.84 134.84,303.38 136.07,303.92 137.29,303.38 138.51,303.92 139.73,303.38 140.95,303.38 142.17,303.92 143.41,302.30 144.63,303.92 145.88,303.92 147.11,304.46 148.32,303.92 149.56,303.92 150.81,303.92 152.03,303.38 153.27,289.61 154.48,303.92 155.70,303.38 156.92,302.84 158.14,299.87 159.36,303.92 160.59,303.92 161.81,304.46 163.04,303.92 164.28,302.03 165.49,304.46 166.73,303.38 167.94,303.38 169.17,302.84 170.43,302.57 171.65,303.92 172.88,303.92 174.12,303.92 175.34,303.38 176.57,303.38 177.80,302.84 179.01,303.38 180.23,302.84 181.47,303.92 182.70,303.38 183.93,294.20 185.17,303.38 186.38,303.38 187.61,303.92 188.84,303.92 190.06,302.57 191.28,303.38 192.51,302.84 193.73,302.84 194.97,302.57 196.20,303.92 197.42,303.92 198.65,303.92 199.90,303.92 201.14,302.84 202.36,303.92 203.58,303.92 204.81,302.84 206.03,303.92 207.27,302.84 208.50,302.84 209.73,303.92 210.95,303.92 212.19,303.92 213.42,303.92 214.66,302.57 215.91,303.92 217.13,303.92 218.36,303.38 219.59,303.38 220.81,303.92 222.04,304.46 223.28,303.92 224.61,303.92 225.83,303.38 227.08,303.92 228.30,303.92 229.52,304.46 230.74,303.38 231.94,302.84 233.17,303.92 234.40,302.84 235.63,303.92 236.85,303.38 238.07,303.38 239.30,304.46 240.52,303.38 241.77,303.92 242.99,302.57 244.22,302.03 245.44,303.92 246.67,303.92 247.89,303.38 249.12,303.38 250.36,303.92 251.59,303.38 252.82,303.38 254.04,302.84 255.26,302.57 256.48,303.38 257.71,302.03 258.93,302.03 260.17,302.03 261.41,302.84 262.64,302.03 263.86,302.84 265.11,302.84 266.34,302.57 267.55,302.03 268.79,303.92 270.02,303.38 271.27,303.92 272.51,303.92 273.73,303.38 274.97,302.84 276.18,303.92 277.40,303.92 278.63,303.92 279.86,296.90 281.08,303.38 282.29,302.84 283.52,303.92 284.76,303.92 285.99,302.84 287.22,303.92 288.45,302.84 289.70,303.92 290.93,303.92 292.15,303.38 293.38,303.92 294.59,303.92 295.93,299.33 297.19,303.38 298.40,303.92 299.63,303.38 300.84,303.92 302.07,304.46 303.30,303.92 304.53,303.38 305.76,303.92 306.98,302.84 308.21,303.38 309.44,303.38 310.69,303.92 311.92,303.92 313.14,303.92 314.36,302.84 315.60,303.92 316.86,303.38 318.11,303.92 319.33,303.92 320.56,303.38 321.79,302.84 323.01,303.38 324.24,303.38 325.47,303.92 326.72,303.92 327.94,302.84 329.16,303.92 330.40,303.38 331.63,303.92 332.86,303.92 334.08,303.38 335.33,303.92 336.56,302.30 337.78,303.92 339.00,303.38 340.22,303.92 341.45,302.84 342.68,303.92 343.90,302.84 345.12,303.92 346.34,303.92 347.56,303.92 348.80,303.92 350.03,302.84 351.26,303.92 352.51,303.92 353.74,299.87 354.98,303.92 356.20,302.84 357.43,302.84 358.66,303.92 359.89,303.92 361.12,303.92 362.37,304.46 363.60,304.46 364.84,303.38 366.07,303.38 367.29,303.38 368.52,303.92 369.74,303.92 370.96,302.84 372.20,303.92 373.43,303.92 374.66,303.38 375.89,303.38 377.12,303.92 378.35,302.57 379.58,303.92 380.82,302.84 382.06,303.92 383.28,303.92 384.51,303.38 385.74,303.92 386.98,304.46 388.22,303.38 389.44,302.84 390.67,303.38 392.03,303.92 393.27,303.38 394.50,303.92 395.73,303.92 396.97,303.38 398.20,303.38 399.43,303.38 400.67,303.38 401.88,303.92 403.15,302.84 404.40,303.92 405.61,303.92 406.84,303.92 408.07,303.92 409.30,302.84 410.53,303.38 411.80,303.38 413.03,303.92 414.26,302.84 415.50,303.92 416.83,303.92 418.06,293.39 419.60,293.12 421.68,303.92 422.94,302.84 424.20,292.58 425.42,302.03 426.62,302.84 427.85,304.46 429.09,303.92 430.33,303.92 431.57,303.92 432.84,304.46 434.12,303.92 435.42,303.92 436.65,302.84 437.88,303.38 439.11,303.38 440.36,303.92 441.60,303.38 442.84,302.84 444.06,294.74 445.29,303.38 446.57,303.92 447.81,303.92 449.02,303.92 450.25,303.92 451.50,303.38 452.78,303.92 454.01,303.38 455.24,303.92 456.51,303.38 457.68,302.57 458.91,303.92 460.16,303.92 461.38,303.92 462.63,304.46 463.90,303.38 465.13,303.38 466.36,303.38 467.60,304.46 468.84,303.92 470.07,303.92 471.30,303.38 472.52,303.92 473.75,303.92 474.99,303.92 476.20,303.92 477.67,300.41 479.12,303.92 480.57,303.38 482.00,303.92 483.40,303.92 484.82,303.92 486.27,302.84 487.70,303.92 488.94,303.92 490.15,303.92 491.38,303.38 492.60,302.84 493.83,302.84 495.05,303.92 496.27,303.92 497.50,303.38 498.72,304.46 499.95,304.46 501.18,303.92 502.40,292.58 503.62,302.84 504.84,304.46 506.07,303.38 507.29,303.92 508.52,303.38 509.73,303.38 510.97,303.38 512.20,303.38 513.42,303.38 514.64,304.46 515.86,303.38 517.09,304.46 518.31,303.92 519.54,303.38 520.77,303.92 522.00,303.38 523.23,295.82 524.45,302.84 525.67,303.92 526.90,302.84 528.12,299.87 529.34,303.92 530.55,303.38 531.76,302.84 532.99,303.92 534.21,303.92 535.43,303.38 536.65,303.92 537.87,303.38 539.10,303.92 540.31,303.38 541.53,304.46 542.74,303.92 544.00,303.92 545.32,303.92 546.56,303.92 547.79,303.92 549.01,303.38 550.23,302.57 551.45,303.92 552.66,303.92 553.89,303.92 555.34,302.84 556.77,302.84 558.20,303.92 559.64,302.30 561.09,303.92 562.52,303.92 563.98,303.92 565.47,303.92 566.81,303.92 568.13,303.92 569.36,303.38 570.60,303.38 571.83,303.38 573.04,303.38 574.27,303.92 575.50,303.92 576.72,292.85 577.94,303.92 579.16,302.57 580.39,303.38 581.62,303.92 582.84,303.92 584.09,303.38 585.31,303.92 586.53,302.30 587.61,303.92 588.87,303.92 590.10,304.46 591.36,303.38 592.58,303.92 593.80,303.92 595.04,303.38 596.28,303.92 597.51,303.92 598.75,303.92 599.99,304.46 601.24,303.92 602.46,303.38 603.67,303.92 604.90,303.92 606.11,303.92 607.34,302.84 608.55,303.38 609.80,303.92 611.02,303.92 612.25,303.38 613.47,303.92 614.69,303.38 615.93,303.38 617.15,303.92 618.39,303.38 619.62,303.92 620.85,303.92 622.07,303.92 623.31,303.92 624.54,303.92 625.81,303.92 627.03,303.92 628.25,302.84 629.47,302.84 630.69,303.92 631.91,304.46 633.15,302.03 634.37,303.38 635.59,303.92 636.82,303.92 638.04,303.92 639.26,302.84 640.50,303.38 641.73,303.38 642.96,303.38 644.44,303.92 645.70,303.92 646.96,303.38 648.20,302.57 649.43,303.92 650.67,302.84 651.89,303.92 653.11,303.92 654.35,303.92 655.59,304.46 656.81,302.57 658.04,302.57 659.28,303.38 660.50,303.92 661.77,303.92 663.02,303.38 664.25,303.38 665.48,302.84 666.71,303.92 667.94,300.95 669.16,303.92 670.39,302.84 671.67,303.38 672.90,303.92 674.14,303.38 675.36,302.84 676.59,303.92 677.83,303.38 679.05,303.92 680.28,303.38 681.51,303.92 682.75,303.92 683.98,303.92 685.21,303.38 686.43,303.38 687.66,303.92 688.89,303.92 690.14,303.92 691.37,303.92 692.59,303.92 693.81,300.95 695.04,290.69 696.29,303.92 697.52,302.84 699.00,303.92 700.26,303.38 701.49,303.38 702.72,303.92 703.94,304.46 705.18,303.92 706.41,303.92 707.64,303.38 708.89,303.38 710.12,302.84 711.34,304.46 712.56,303.92 713.79,303.38 715.02,304.46 716.25,304.46 717.48,303.38 718.70,303.38 719.93,303.92 721.15,303.38 722.38,304.46 723.62,303.38 724.84,302.84 726.07,304.46 727.31,303.92 728.55,303.92 729.77,303.38 731.00,303.38 732.23,303.92 733.50,303.92 734.72,300.95 735.95,303.92 737.19,302.84 738.42,303.92 739.64,303.38 740.87,303.38 742.10,302.03 743.36,302.03 744.59,303.92 745.82,302.84 747.03,302.84 748.26,302.57 749.49,303.38 750.72,303.38 751.94,303.38 753.18,303.38 754.43,291.77 755.66,274.49 756.87,302.84 758.11,292.85 759.33,302.84 760.56,303.38 761.79,303.92 763.02,303.92 764.24,303.92 765.49,303.38 766.72,303.38 767.94,304.46 769.18,302.84 770.42,303.92 771.66,302.57 772.89,303.92 774.13,303.92 775.51,304.46 776.86,304.46 778.17,303.92 779.41,303.92 780.70,303.92 781.93,303.38 783.16,303.92 784.38,303.38 785.53,303.38 786.81,303.38 788.04,303.92 789.29,303.92 790.50,303.38 791.73,303.38 792.95,303.38 794.19,303.92 795.41,303.38 796.65,303.92 797.87,303.92 799.11,303.92 800.34,303.92 801.58,303.38 802.82,303.92 804.06,303.92 805.29,302.84 806.53,303.38 807.76,303.38 809.01,302.57 810.25,303.38 811.46,302.57 812.69,302.57 813.92,301.49 815.15,303.92 816.38,303.38 817.61,303.92 818.84,302.84 820.09,303.38 821.30,303.92 822.53,303.38 823.76,303.38 825.00,303.38 826.23,303.92 827.47,303.92 828.69,304.46 829.93,303.92 831.16,303.92 832.40,302.57 833.64,303.38 834.88,303.38 836.11,303.92 837.34,302.84 838.58,302.84 839.81,303.38 841.05,303.38 842.32,303.92 843.55,303.38 844.79,303.92 846.01,303.92 847.24,300.41 848.47,303.92 849.71,303.38 850.94,303.92 852.18,303.92 853.41,303.92 854.64,303.38 855.88,304.46 857.11,303.38 858.36,302.84 859.59,303.92 860.83,303.92 862.07,303.38 863.31,303.92 864.55,303.92 865.78,303.92 867.01,303.92 868.25,303.92 869.48,303.38 870.74,302.84 871.98,303.92 873.22,303.38 874.46,303.92 875.68,303.92 876.91,303.38 878.14,303.92 879.37,303.92 880.61,303.38 881.84,303.92 883.07,303.38 884.30,302.84 885.54,303.38 886.78,302.03 888.01,292.85 889.24,303.92 890.49,302.57 891.72,303.38 892.96,302.84 894.19,303.38 895.42,302.84 896.64,291.50 897.86,303.38 899.10,303.92 900.33,303.92 901.57,303.92 902.81,303.92 904.05,303.92 905.28,303.92 906.52,303.92 907.76,303.92 908.99,303.92 910.23,297.71 911.48,303.38 912.71,303.38 913.94,303.92 915.18,303.92 916.43,303.38 917.66,304.46 918.90,304.46 920.16,303.92 921.40,303.92 922.64,303.38 923.87,303.92 925.10,304.46 926.34,303.92 927.58,303.38 928.82,302.84 930.06,302.84 931.29,303.38 932.52,303.92 933.75,302.03 935.01,303.38 936.24,303.92 937.48,302.84 938.71,303.92 939.94,304.46 941.17,303.92 942.39,304.46 943.62,303.38 944.86,303.92 946.09,303.92 947.33,303.92 948.55,303.92 949.79,302.84 951.03,302.84 952.29,303.38 953.53,303.92 954.76,302.84 955.99,292.31 957.22,303.92 958.45,303.38 959.68,303.38 960.93,303.38 962.16,303.92 963.39,303.38 964.63,303.92 965.86,303.92 967.09,303.92 968.33,303.92 969.58,303.92 970.85,302.84 972.09,303.38 973.33,303.92 974.57,303.92 975.81,303.92 977.05,302.84 978.27,303.92 979.50,303.92 980.73,303.92 981.97,303.92 983.21,303.38 984.45,303.92 985.69,303.38 986.94,303.92 988.22,303.92 989.45,303.38 990.68,303.92 991.92,303.92 993.15,301.49 994.40,303.92 995.64,303.92 996.89,303.92 998.12,303.38 999.37,302.84 1000.60,303.92 1001.85,304.46 1003.09,303.38 1004.32,303.38 1005.55,303.92 1006.79,303.92 1008.02,303.92 1009.27,303.92 1010.51,303.38 1011.74,303.92 1012.98,302.84 1014.22,303.92 1015.46,303.38 1016.69,303.92 1017.93,303.92 1019.17,303.92 1020.45,304.46 1021.69,303.38 1022.94,303.92 1024.17,303.92 1025.43,301.49 1026.70,302.03 1027.96,303.92 1029.21,303.38 1030.48,302.57 1031.73,300.41 1032.96,303.38 1034.19,302.57 1035.43,303.92 1036.67,304.46 1037.92,303.92 1039.18,303.92 1040.41,303.38 1041.65,303.38 1042.89,303.92 1044.12,303.92 1045.35,303.38 1046.59,302.84 1047.82,303.92 1049.05,304.46 1050.28,303.38 1051.51,303.38 1052.75,302.84 1053.96,302.84 1055.20,303.92 1056.44,303.92 1057.68,303.92 1058.91,303.38 1060.16,303.92 1061.40,303.38 1062.63,303.92 1063.87,303.92 1065.11,303.92 1066.34,303.92 1067.57,303.92 1068.80,303.92 1070.04,303.92 1071.28,303.38 1072.50,303.92 1073.72,301.49 1074.96,302.57 1076.18,303.92 1077.43,302.57 1078.66,303.92 1079.89,303.38 1081.13,302.84 1082.36,303.92 1083.59,302.84 1084.83,292.58 1086.06,290.69 1087.27,302.84 1088.50,291.50 1089.71,302.57 1090.95,303.38 1092.18,303.92 1093.44,303.92 1094.67,304.46 1095.90,303.92 1097.14,303.38 1098.40,303.38 1099.64,303.92 1100.87,303.38 1102.12,303.92 1103.35,303.38 1104.58,303.92 1105.83,303.92 1107.06,294.20 1108.31,303.92 1109.56,303.92 1110.79,303.92 1112.01,303.38 1113.25,303.38 1114.47,302.57 1115.71,303.92 1116.94,303.38 1118.15,303.92 1119.39,304.46 1120.63,302.57 1121.87,303.92 1123.10,302.84 1124.33,303.92 1125.56,303.92 1126.79,302.84 1128.03,303.38 1129.27,303.38 1130.51,303.92 1131.74,302.84 1132.97,303.38 1134.22,303.38 1135.45,303.92 1136.68,303.92 1137.92,303.92 1139.15,303.38 1140.38,303.92 1141.62,303.92 1142.86,303.38 1144.09,303.38 1145.32,303.92 1146.55,303.92 1147.83,303.38 1149.06,303.38 1150.32,303.38 1151.57,303.38 1152.81,303.92 1154.05,303.92 1155.28,303.92 1156.52,303.92 1157.76,295.82 1158.99,303.38 1160.24,303.38 1161.50,303.38 1162.74,303.92 1163.97,303.38 1165.21,303.38 1166.44,302.84 1167.68,303.38 1168.92,302.03 1170.14,303.92 1171.37,303.92 1172.61,303.92 1173.84,302.03 1175.08,303.92 1176.30,297.44 1177.55,303.38 1178.77,303.92 1180.00,303.92"/>
<rect x="70" y="332" width="12" height="12" fill="#d62728" fill-opacity="0.95"/>
<text x="88" y="342" font-size="11" fill="#333" font-family="Arial, Helvetica, sans-serif">nsc1.utdallas.edu</text>
<rect x="350" y="332" width="12" height="12" fill="#d62728" fill-opacity="0.80"/>
<text x="368" y="342" font-size="11" fill="#333" font-family="Arial, Helvetica, sans-serif">nsc2.utdallas.edu</text>
<rect x="630" y="332" width="12" height="12" fill="#d62728" fill-opacity="0.65"/>
<text x="648" y="342" font-size="11" fill="#333" font-family="Arial, Helvetica, sans-serif">nsc3.utdallas.edu</text>
<rect x="910" y="332" width="12" height="12" fill="#d62728" fill-opacity="0.50"/>
<text x="928" y="342" font-size="11" fill="#333" font-family="Arial, Helvetica, sans-serif">nsc4.utdallas.edu</text>
</svg>