<?xml version="1.0" encoding="UTF-8"?>
<svg xmlns="http://www.w3.org/2000/svg" width="1200" height="360" viewBox="0 0 1200 360" role="img" aria-label="CPU Utilization (%)">
<rect width="100%" height="100%" fill="#ffffff"/>
<text x="600.0" y="22" text-anchor="middle" font-size="16" font-family="Arial, Helvetica, sans-serif" font-weight="bold">CPU Utilization (%)</text>
<line x1="70" y1="35.00" x2="1180" y2="35.00" stroke="#e3e3e3" stroke-width="1"/>
<text x="62" y="39.00" text-anchor="end" font-size="11" fill="#444" font-family="Arial, Helvetica, sans-serif">100</text>
<line x1="70" y1="89.00" x2="1180" y2="89.00" stroke="#e3e3e3" stroke-width="1"/>
<text x="62" y="93.00" text-anchor="end" font-size="11" fill="#444" font-family="Arial, Helvetica, sans-serif">80</text>
<line x1="70" y1="143.00" x2="1180" y2="143.00" stroke="#e3e3e3" stroke-width="1"/>
<text x="62" y="147.00" text-anchor="end" font-size="11" fill="#444" font-family="Arial, Helvetica, sans-serif">60</text>
<line x1="70" y1="197.00" x2="1180" y2="197.00" stroke="#e3e3e3" stroke-width="1"/>
<text x="62" y="201.00" text-anchor="end" font-size="11" fill="#444" font-family="Arial, Helvetica, sans-serif">40</text>
<line x1="70" y1="251.00" x2="1180" y2="251.00" stroke="#e3e3e3" stroke-width="1"/>
<text x="62" y="255.00" text-anchor="end" font-size="11" fill="#444" font-family="Arial, Helvetica, sans-serif">20</text>
<line x1="70" y1="305.00" x2="1180" y2="305.00" stroke="#e3e3e3" stroke-width="1"/>
<text x="62" y="309.00" text-anchor="end" font-size="11" fill="#444" font-family="Arial, Helvetica, sans-serif">0</text>
<line x1="70" y1="35" x2="70" y2="305" stroke="#999"/>
<line x1="70" y1="305" x2="1180" y2="305" stroke="#999"/>
<text x="70.00" y="323" text-anchor="middle" font-size="10" fill="#444" font-family="Arial, Helvetica, sans-serif">2026-02-11 16:38</text>
<text x="347.50" y="323" text-anchor="middle" font-size="10" fill="#444" font-family="Arial, Helvetica, sans-serif">2026-02-12 21:22</text>
<text x="625.00" y="323" text-anchor="middle" font-size="10" fill="#444" font-family="Arial, Helvetica, sans-serif">2026-02-14 02:07</text>
<text x="902.50" y="323" text-anchor="middle" font-size="10" fill="#444" font-family="Arial, Helvetica, sans-serif">2026-02-15 06:51</text>
<text x="1180.00" y="323" text-anchor="middle" font-size="10" fill="#444" font-family="Arial, Helvetica, sans-serif">2026-02-16 11:36</text>
<polyline fill="none" stroke="#d62728" stroke-opacity="0.95" stroke-width="2" points="70.87,304.46 71.74,298.79 72.60,296.90 73.47,303.92 74.34,304.73 75.20,304.46 76.07,303.92 77.01,304.73 77.87,303.92 78.73,304.46 79.59,303.92 80.47,304.46 81.33,304.46 82.19,303.92 83.75,304.46 85.09,303.92 85.97,304.46 86.86,303.92 87.72,300.95 88.58,304.73 89.43,278.27 90.30,303.92 91.17,304.46 92.04,294.74 92.91,304.46 93.79,303.92 94.66,301.49 95.53,303.92 96.44,295.28 97.31,294.20 98.18,303.65 99.07,304.46 99.93,304.46 100.80,303.92 101.69,303.65 102.55,302.30 103.42,303.92 104.30,304.46 105.15,303.92 106.02,304.73 106.87,304.73 107.74,304.46 108.61,303.38 109.47,304.46 110.35,303.92 111.23,303.38 112.08,304.46 112.95,297.71 113.82,297.44 114.69,48.23 115.68,303.92 116.54,303.92 117.41,304.46 118.26,303.65 119.12,303.65 119.98,304.46 120.84,304.46 121.71,303.92 122.58,304.46 123.46,303.92 124.32,304.46 125.18,304.46 126.05,299.60 126.93,303.65 127.79,303.92 128.66,304.73 129.51,303.92 130.37,304.73 131.23,304.46 132.09,304.46 132.95,304.46 133.82,303.92 134.68,304.73 135.55,303.92 136.41,304.46 137.27,304.73 138.14,303.38 139.00,303.38 139.86,303.65 140.75,304.46 141.61,303.65 142.48,304.73 143.35,304.46 144.21,304.46 145.08,304.73 145.94,303.92 146.80,303.92 147.65,304.46 148.53,304.73 149.40,299.60 150.26,303.65 151.13,304.46 151.99,304.73 152.86,303.65 153.72,303.92 154.58,304.46 155.44,304.46 156.31,303.92 157.16,303.92 158.04,303.92 158.90,304.46 159.77,303.92 160.63,303.92 161.51,298.79 162.38,303.65 163.25,304.46 164.11,304.73 164.97,304.73 165.83,304.46 166.71,304.46 167.57,304.46 168.44,304.46 169.30,302.84 170.17,304.46 171.04,304.46 171.91,304.46 172.79,304.46 173.65,304.46 174.51,304.46 175.38,303.65 176.24,304.73 177.11,303.38 177.98,304.46 178.92,304.46 179.78,304.73 180.66,303.92 181.52,303.92 182.38,304.46 183.24,299.87 184.09,304.46 184.95,304.73 185.82,295.01 186.68,304.46 187.54,303.92 188.40,303.92 189.27,303.92 190.13,304.46 191.01,303.65 191.87,304.46 192.73,304.46 193.59,304.46 194.46,303.92 195.32,303.92 196.19,303.92 197.06,304.73 197.92,304.46 198.79,304.46 199.65,303.92 200.51,304.46 201.37,303.65 202.24,303.92 203.10,303.65 203.97,304.73 204.84,304.46 205.71,304.46 206.57,304.46 207.45,303.11 208.31,303.38 209.17,304.46 210.04,304.46 210.91,304.46 211.79,303.65 212.66,303.92 213.52,304.46 214.39,297.71 215.25,294.20 216.11,303.92 216.97,304.46 217.84,303.65 218.70,297.71 219.56,304.46 220.42,303.92 221.29,304.46 222.16,304.46 223.03,303.92 223.89,303.38 224.77,304.73 225.64,303.92 226.50,303.38 227.36,303.92 228.22,304.46 229.16,304.46 230.05,303.92 230.90,304.73 231.77,304.46 232.62,304.46 233.49,304.73 234.35,304.46 235.22,304.73 236.09,35.00 236.95,303.65 237.81,303.11 238.68,297.17 239.56,304.46 240.42,304.46 241.28,304.46 242.15,303.92 243.02,303.65 243.90,304.46 244.79,303.11 245.65,304.73 246.51,304.46 247.38,303.92 248.24,304.73 249.11,304.46 249.97,303.92 250.85,304.73 251.71,304.46 252.57,304.46 253.45,304.46 254.31,303.92 255.17,303.65 256.04,304.46 256.92,303.65 257.78,304.46 258.64,301.76 259.50,302.03 260.36,304.46 261.23,304.46 262.09,304.46 262.95,35.00 263.82,303.65 264.67,303.92 265.54,304.46 266.41,304.46 267.27,303.65 268.14,304.46 269.02,304.73 269.89,304.46 270.76,304.73 271.62,35.00 272.49,304.73 273.35,303.65 274.22,304.46 275.08,303.65 275.97,304.73 276.84,300.68 277.70,303.65 278.57,303.92 279.43,304.46 280.30,304.46 281.16,304.46 282.02,304.46 282.89,304.73 283.76,304.73 284.62,304.73 285.49,303.65 286.36,303.92 287.22,303.92 288.09,304.73 288.96,35.00 289.84,304.46 290.70,303.92 291.56,304.73 292.43,303.92 293.31,304.73 294.18,303.92 295.04,304.46 295.90,303.92 296.86,304.73 297.73,304.46 298.60,303.65 299.47,304.46 300.34,304.46 301.21,303.92 302.08,304.46 302.95,303.65 303.80,304.73 304.70,295.28 305.57,297.17 306.43,304.46 307.30,304.46 308.16,304.46 309.03,304.73 309.89,304.46 310.79,303.65 311.66,304.46 312.52,303.92 313.40,304.73 314.33,304.73 315.20,304.73 316.29,303.65 317.75,304.46 318.64,303.92 319.52,303.92 320.39,304.73 321.23,304.46 322.09,303.92 322.97,303.65 323.84,304.46 324.71,304.73 325.61,303.92 326.51,35.00 327.43,303.65 328.30,304.46 329.16,304.73 330.03,303.92 330.91,303.92 331.78,303.65 332.66,304.46 333.52,303.92 334.38,304.46 335.28,304.46 336.15,304.46 337.01,304.46 337.88,304.46 338.76,303.92 339.66,304.46 340.53,303.92 341.39,303.92 342.28,303.65 343.11,303.92 343.97,303.65 344.86,303.92 345.72,303.92 346.60,303.92 347.49,303.11 348.36,303.92 349.22,303.92 350.10,304.46 350.97,304.46 351.84,303.65 352.70,304.73 353.56,299.06 354.43,304.73 355.30,304.46 356.16,48.23 357.19,48.50 358.21,48.77 359.24,48.50 360.24,48.23 361.23,48.50 362.23,48.50 363.25,48.77 364.26,304.46 365.13,304.46 365.99,304.46 366.85,303.92 367.71,304.46 368.58,304.46 369.44,303.92 370.30,304.19 371.16,303.65 372.03,304.73 372.89,303.92 373.75,303.92 374.61,304.46 375.48,304.73 376.34,304.73 377.20,304.46 378.06,304.46 378.93,304.46 379.78,303.92 380.65,304.46 381.52,304.73 382.38,303.65 383.24,304.46 384.10,35.00 384.96,304.46 385.83,304.46 386.69,304.73 387.55,304.46 388.42,304.73 389.29,35.00 390.15,304.46 391.01,304.46 391.87,304.73 392.73,303.92 393.60,303.92 394.45,303.92 395.30,303.38 396.16,304.73 397.03,303.65 397.88,304.46 398.74,303.92 399.61,304.46 400.47,304.73 401.32,303.92 402.18,303.38 403.03,304.73 403.92,303.65 404.85,304.73 405.72,304.73 406.59,304.46 407.45,303.92 408.31,303.65 409.17,297.44 410.02,297.71 410.88,48.50 411.91,48.50 412.92,48.50 413.93,48.23 414.94,48.50 415.96,48.23 416.97,48.50 418.00,48.77 419.05,295.82 419.99,297.17 420.92,304.73 421.79,303.92 422.66,303.92 423.53,304.73 424.38,303.92 425.24,304.46 426.11,304.46 426.97,304.46 427.83,304.46 428.69,304.46 429.56,304.73 430.42,303.11 431.29,304.73 432.16,303.92 433.02,304.46 433.88,304.73 434.64,304.46 435.53,303.92 436.40,304.73 437.28,304.73 438.15,304.73 439.01,303.92 439.88,35.00 440.75,304.73 441.62,304.73 442.49,304.46 443.36,304.73 444.24,303.65 445.10,304.46 445.96,304.73 446.82,304.73 447.68,304.73 448.54,35.00 449.40,303.92 450.27,303.92 451.13,303.92 452.00,303.65 452.86,304.46 453.72,304.46 454.59,303.92 455.46,304.46 456.32,304.46 457.20,304.73 458.06,303.92 458.92,301.22 459.80,304.46 460.66,304.46 461.55,304.46 462.41,303.65 463.27,304.46 464.13,304.73 464.99,304.46 465.85,300.68 466.72,303.92 467.59,304.73 468.44,304.46 469.31,304.73 470.17,303.38 471.03,303.92 471.90,304.73 472.77,304.73 473.64,303.92 474.68,303.92 475.57,303.92 476.45,303.65 477.33,304.46 478.19,302.84 479.07,304.46 479.92,304.46 480.79,303.92 481.66,303.92 482.53,303.11 483.39,304.73 484.26,304.46 485.13,304.46 485.99,304.46 486.89,304.73 487.77,304.73 488.64,304.46 489.50,304.73 490.37,304.73 491.23,302.57 492.09,302.84 492.96,301.22 493.86,303.92 494.73,304.46 495.60,304.46 496.46,304.46 497.33,303.92 498.20,304.73 499.06,304.46 499.93,304.46 500.79,303.92 501.66,304.46 502.53,304.46 503.40,304.46 504.26,297.44 505.13,303.92 505.99,304.46 506.87,304.46 507.74,300.68 508.60,303.92 509.46,289.07 510.33,303.65 511.21,302.03 512.07,302.84 513.11,302.84 514.00,304.46 514.87,304.46 515.74,303.92 516.60,304.73 517.47,303.92 518.33,303.92 519.20,303.65 520.08,304.46 520.95,303.92 521.81,304.73 522.67,304.46 523.54,304.46 524.40,303.92 525.26,304.73 526.13,304.46 527.00,304.73 527.86,304.46 528.72,304.73 529.58,304.73 530.46,303.92 531.32,304.46 532.18,304.73 533.06,304.46 533.93,304.46 534.79,304.73 535.66,304.46 536.53,303.38 537.42,303.92 538.28,304.73 539.14,304.73 540.02,303.92 540.88,303.92 541.74,304.46 542.61,303.92 543.48,303.92 544.37,304.73 545.23,303.92 546.10,304.46 546.95,303.92 547.81,304.46 548.68,304.73 549.55,303.92 550.41,304.73 551.28,304.46 552.16,304.73 553.03,298.79 553.88,303.92 554.76,303.92 555.62,304.46 556.48,304.46 557.35,303.65 558.21,303.65 559.07,304.73 559.95,303.92 560.82,303.92 561.68,235.88 562.56,236.69 563.43,236.69 564.30,236.69 565.17,236.15 566.04,232.10 567.01,227.51 567.96,228.59 568.89,222.65 569.76,236.42 570.67,236.15 571.54,235.61 572.41,236.69 573.26,236.69 574.07,236.15 574.98,235.61 575.84,236.15 576.72,236.42 577.57,233.18 578.44,236.69 579.30,236.42 580.18,236.15 581.04,235.61 581.91,235.88 582.77,236.42 583.64,236.42 584.51,236.96 585.38,236.42 586.25,235.61 587.13,236.69 588.00,236.15 588.86,236.42 589.73,242.63 590.62,255.86 591.48,236.69 592.34,235.88 593.21,236.15 594.07,236.42 594.94,235.88 595.80,236.15 596.67,236.96 597.54,236.15 598.42,236.69 599.27,236.96 600.14,236.15 601.01,236.96 601.88,236.15 602.75,236.42 603.62,234.53 604.48,236.15 605.35,236.69 606.22,236.69 607.09,235.34 607.96,236.15 608.84,236.15 609.70,235.61 610.57,236.69 611.44,236.96 612.31,235.61 613.19,232.91 614.08,234.26 614.94,236.42 615.82,236.42 616.68,236.15 617.55,236.96 618.41,236.15 619.28,236.69 620.16,236.96 621.03,234.53 621.89,236.42 622.76,236.69 623.63,236.42 624.50,236.15 625.38,236.42 626.25,235.88 627.12,236.15 627.99,236.96 628.86,235.61 629.74,235.88 630.61,235.88 631.47,236.42 632.34,236.42 633.21,236.69 634.10,236.69 634.97,236.42 635.85,235.61 636.72,236.15 637.58,236.15 638.45,235.34 639.31,236.69 640.18,235.61 641.05,236.69 641.92,235.88 642.79,236.69 643.65,232.91 644.52,235.88 645.40,236.42 646.27,235.88 647.13,235.61 648.01,236.69 648.88,235.88 649.75,236.42 650.62,236.42 651.48,236.69 652.35,236.15 653.21,235.88 654.08,236.42 654.95,235.61 655.82,201.32 656.69,236.69 657.57,236.15 658.43,236.42 659.31,236.42 660.18,235.61 661.05,230.48 661.92,235.34 662.80,283.40 663.66,236.69 664.53,230.75 665.41,236.69 666.28,224.00 667.16,236.42 668.03,236.15 668.91,235.61 669.79,235.88 670.66,236.15 671.53,236.96 672.39,230.48 673.27,235.88 674.14,236.15 675.02,235.61 675.89,243.17 676.76,296.63 677.63,236.15 678.49,235.61 679.38,236.69 680.24,229.94 681.12,229.94 681.99,236.15 682.85,236.42 683.72,236.69 684.58,235.61 685.44,236.69 686.32,236.69 687.18,236.42 688.06,236.15 688.92,236.69 689.79,236.69 690.66,236.42 691.55,231.29 692.43,236.69 693.29,236.15 694.16,236.42 695.02,235.88 695.89,235.61 696.76,235.61 697.63,236.42 698.50,236.96 699.37,236.69 700.24,236.69 701.11,235.61 701.98,235.88 702.85,235.88 703.73,236.69 704.62,236.69 705.50,235.61 706.37,236.15 707.25,283.13 708.12,236.42 708.99,236.69 709.86,235.88 710.72,236.15 711.58,235.07 712.46,236.42 713.33,236.69 714.21,236.15 715.08,237.23 715.96,236.15 716.86,236.15 717.73,236.15 718.60,236.69 719.47,236.69 720.34,236.42 721.21,236.69 722.09,236.69 722.97,235.61 723.84,236.42 724.72,235.34 725.59,236.96 726.46,235.61 727.34,236.69 728.20,236.69 729.07,236.15 729.95,236.42 730.81,236.42 731.69,296.90 732.57,236.15 733.43,235.61 734.30,236.42 735.18,236.42 736.05,236.69 736.92,236.69 737.79,236.69 738.67,236.69 739.57,235.34 740.44,235.88 741.32,233.45 742.19,236.15 743.08,236.15 743.97,235.07 744.86,234.26 745.74,234.26 746.64,235.88 747.51,290.15 748.38,236.69 749.25,236.42 750.12,236.15 751.00,236.42 751.87,235.34 752.76,236.69 753.63,236.15 754.50,236.69 755.37,235.88 756.24,236.15 757.11,236.69 757.98,236.42 758.85,236.96 759.72,231.83 760.58,236.42 761.45,236.42 762.32,236.42 763.18,236.42 764.05,236.15 764.92,236.69 765.80,236.42 766.66,232.64 767.54,235.88 768.42,237.23 769.28,236.42 770.16,235.88 771.03,236.42 771.90,283.94 772.76,236.15 773.63,236.42 774.50,236.42 775.38,236.42 776.24,290.42 777.10,236.42 777.97,236.69 778.83,236.42 779.71,236.15 780.57,236.69 781.44,235.88 782.32,234.53 783.18,235.34 784.05,236.69 784.92,236.42 785.79,236.15 786.64,236.42 787.51,235.61 788.36,236.69 789.23,236.42 790.10,235.34 790.99,235.88 791.85,236.15 792.72,235.61 793.59,236.69 794.48,236.15 795.35,235.61 796.22,236.15 797.10,235.07 797.97,236.15 798.83,235.61 799.71,236.69 800.58,236.15 801.47,235.61 802.34,290.15 803.21,236.42 804.07,236.69 804.94,236.15 805.80,235.61 806.67,236.42 807.54,236.69 808.40,235.88 809.27,235.88 810.14,235.88 811.02,236.69 811.88,236.15 812.75,236.15 813.61,236.42 814.48,235.34 815.36,235.88 816.23,236.15 817.10,236.15 817.97,235.61 818.84,236.42 819.72,236.96 820.58,235.34 821.45,236.42 822.32,236.15 823.19,236.15 824.05,235.88 824.93,236.42 825.81,233.18 826.67,236.69 827.54,235.88 828.40,236.15 829.30,236.69 830.17,236.15 831.06,235.88 831.94,232.91 832.81,236.15 833.68,283.67 834.55,236.42 835.43,235.88 836.30,234.80 837.16,235.34 838.04,236.15 838.93,234.53 839.80,236.69 840.67,236.42 841.54,236.69 842.41,236.96 843.29,235.88 844.16,236.42 845.02,236.69 845.89,235.61 846.76,236.42 847.63,236.42 848.50,236.69 849.36,236.15 850.24,236.42 851.10,236.15 851.97,235.61 852.84,236.15 853.70,235.07 854.57,236.15 855.46,236.69 856.32,231.83 857.19,235.61 858.05,285.02 858.93,236.69 859.78,236.15 860.67,236.69 861.53,231.29 862.41,283.13 863.28,236.42 864.14,234.53 865.01,235.88 865.88,236.69 866.75,236.42 867.61,229.40 868.50,236.69 869.39,235.34 870.27,235.88 871.16,236.15 872.04,235.61 872.94,236.15 873.83,236.69 874.71,236.69 875.62,236.15 876.50,229.94 877.40,236.42 878.26,236.42 879.13,235.34 880.00,230.75 880.88,236.15 881.75,236.15 882.63,236.69 883.50,236.96 884.38,235.88 885.24,235.34 886.12,236.15 886.98,235.88 887.85,235.61 888.72,236.69 889.58,235.07 890.45,231.83 891.32,236.69 892.20,235.88 893.06,236.15 893.95,236.42 894.82,236.42 895.69,232.91 896.56,236.69 897.43,235.88 898.30,236.15 899.17,231.02 900.04,290.69 900.91,236.69 901.78,232.64 902.65,243.71 903.52,236.69 904.39,236.69 905.26,235.88 906.13,236.15 907.00,235.88 907.93,235.61 908.83,234.53 909.69,236.15 910.57,235.61 911.43,262.88 912.31,230.21 913.19,236.69 914.07,230.21 914.94,236.42 915.80,235.61 916.66,236.69 917.53,236.15 918.39,236.42 919.27,236.69 920.14,233.18 921.01,236.15 921.88,236.69 922.76,236.15 923.63,236.69 924.50,236.69 925.37,236.42 926.23,235.61 927.11,236.15 927.98,236.15 928.85,236.15 929.71,235.07 930.59,236.42 931.46,231.56 932.33,236.69 933.24,235.61 934.11,236.69 934.98,235.61 935.85,235.61 936.72,235.34 937.59,236.42 938.47,236.42 939.34,236.42 940.21,296.90 941.08,236.42 941.96,236.69 942.84,249.38 943.72,236.15 944.59,236.15 945.46,235.88 946.33,236.42 947.20,236.15 948.07,232.91 948.94,235.88 949.80,236.69 950.69,235.34 951.56,236.42 952.43,236.42 953.30,235.61 954.16,236.15 955.04,236.15 955.90,236.69 956.77,236.69 957.64,236.15 958.51,235.88 959.39,236.96 960.25,235.88 961.12,236.96 961.99,236.42 962.86,235.34 963.74,236.15 964.61,232.10 965.47,236.69 966.33,236.15 967.20,297.17 968.07,236.42 968.95,236.42 969.81,236.42 970.71,236.42 971.58,230.75 972.45,236.15 973.33,236.69 974.19,235.88 975.08,236.42 976.01,236.15 976.90,231.83 977.78,235.07 978.66,234.80 979.54,235.88 980.41,270.17 981.27,236.15 982.15,236.42 983.02,243.17 983.89,236.69 984.76,235.34 985.63,236.69 986.50,236.69 987.39,236.96 988.27,236.69 989.14,236.69 990.01,235.88 990.88,236.15 991.75,236.69 992.63,236.15 993.50,234.80 994.37,236.69 995.25,236.15 996.12,236.42 996.99,236.42 997.86,235.34 998.74,236.69 999.61,236.69 1000.49,236.69 1001.37,236.69 1002.24,236.15 1003.10,235.88 1003.98,236.69 1004.86,236.69 1005.72,236.15 1006.58,236.69 1007.46,291.23 1008.33,235.61 1009.20,236.69 1010.08,236.15 1010.94,236.15 1011.81,235.61 1012.69,235.34 1013.56,236.15 1014.42,236.42 1015.30,236.69 1016.17,236.42 1017.05,235.61 1017.93,236.69 1018.78,236.69 1019.63,236.42 1020.49,236.15 1021.37,236.15 1022.24,236.42 1023.12,236.42 1024.00,236.42 1024.86,236.69 1025.75,235.88 1026.63,235.61 1027.49,236.69 1028.36,236.42 1029.22,236.15 1030.10,236.42 1030.95,234.26 1031.82,235.88 1032.69,233.99 1033.57,235.88 1034.43,235.88 1035.30,235.07 1036.16,236.42 1037.04,236.15 1037.91,236.42 1038.78,236.42 1039.64,236.42 1040.51,289.61 1041.35,236.69 1042.24,235.61 1043.11,235.88 1043.98,236.69 1044.86,236.15 1045.74,236.69 1046.60,236.69 1047.47,236.69 1048.35,236.42 1049.22,236.69 1050.09,236.69 1050.96,236.15 1051.89,236.15 1052.76,236.15 1053.64,236.15 1054.51,236.42 1055.40,236.69 1056.25,236.15 1057.12,236.15 1058.00,235.61 1058.87,236.42 1059.74,236.69 1060.60,236.42 1061.47,236.42 1062.35,236.42 1063.23,236.15 1064.10,236.42 1064.97,236.96 1065.84,236.69 1066.71,236.42 1067.58,236.42 1068.46,235.61 1069.33,230.21 1070.21,235.07 1071.10,236.69 1071.98,236.69 1072.85,236.69 1073.72,236.69 1074.60,236.69 1075.47,236.69 1076.35,235.61 1077.21,236.42 1078.08,235.88 1078.95,304.46 1079.82,303.11 1080.69,304.46 1081.57,304.46 1082.44,304.46 1083.31,304.46 1084.18,303.65 1085.04,304.46 1085.91,304.46 1086.78,304.46 1087.66,299.60 1088.52,303.92 1089.39,304.46 1090.26,304.73 1091.12,303.92 1091.99,304.46 1092.85,304.46 1093.72,304.46 1094.59,304.46 1095.45,304.46 1096.32,304.46 1097.19,304.73 1098.05,304.46 1098.92,303.92 1099.78,302.84 1100.66,304.73 1101.53,304.46 1102.39,304.46 1103.25,303.92 1104.12,304.46 1105.00,304.46 1105.86,304.46 1106.73,304.46 1107.61,304.46 1108.51,301.22 1109.38,304.73 1110.25,303.92 1111.13,304.73 1112.00,303.92 1112.87,304.46 1113.75,304.46 1114.62,304.73 1115.49,304.73 1116.36,304.46 1117.22,304.46 1118.09,304.73 1118.96,304.46 1119.83,303.65 1120.70,304.46 1121.57,304.46 1122.43,304.46 1123.30,304.73 1124.17,304.46 1125.04,304.73 1125.92,304.73 1126.83,304.46 1127.69,301.49 1128.56,304.46 1129.42,304.46 1130.28,303.92 1131.16,304.46 1132.03,297.44 1132.90,304.46 1133.77,304.73 1134.64,304.73 1135.52,304.73 1136.39,303.38 1137.26,304.46 1138.13,304.46 1139.00,303.11 1139.87,304.73 1140.74,303.65 1141.61,304.46 1142.48,301.76 1143.34,304.46 1144.20,297.44 1145.08,304.46 1145.94,304.46 1146.81,302.84 1147.68,304.73 1148.55,304.46 1149.42,304.46 1150.29,303.11 1151.16,304.46 1152.03,304.46 1152.90,303.92 1153.76,303.92 1154.63,304.46 1155.51,303.92 1156.37,303.92 1157.25,303.92 1158.12,304.46 1158.98,303.92 1159.84,303.92 1160.71,304.46 1161.59,303.38 1162.45,304.46 1163.34,304.73 1164.21,304.46 1165.08,304.46 1165.95,304.73 1166.82,304.73 1167.69,35.00 1168.58,303.92 1169.46,304.73 1170.38,300.95 1171.25,298.25 1172.19,303.92 1173.06,304.73 1173.92,304.46 1174.78,304.73 1175.65,304.46 1176.52,304.46 1177.39,304.46 1178.26,304.46 1179.13,297.17 1180.00,304.46"/>
<polyline fill="none" stroke="#d62728" stroke-opacity="0.80" stroke-width="2" points="70.00,303.38 70.87,304.19 71.74,302.57 72.60,303.38 73.47,304.19 74.34,287.72 75.20,303.38 76.07,304.19 77.01,304.19 77.87,303.38 78.73,303.38 79.59,304.19 80.47,304.19 81.33,304.19 82.19,304.19 83.75,304.19 85.09,302.57 85.97,304.19 86.86,304.19 87.72,304.19 88.58,303.38 89.43,303.38 90.30,304.19 91.17,302.57 92.04,302.57 92.91,303.38 93.79,303.38 94.66,304.19 95.53,303.38 96.44,35.00 97.31,303.38 98.18,35.00 99.07,35.00 99.93,303.38 100.80,304.19 101.69,35.00 102.55,303.38 103.42,302.57 104.30,304.19 105.15,303.38 106.02,303.38 106.87,302.57 107.74,304.19 108.61,303.38 109.47,303.38 110.35,302.57 111.23,303.38 112.08,35.00 112.95,303.38 113.82,304.19 114.69,304.19 115.68,302.57 116.54,35.00 117.41,304.19 118.26,303.38 119.12,304.19 119.98,303.38 120.84,303.38 121.71,304.19 122.58,35.00 123.46,304.19 124.32,304.19 125.18,304.19 126.05,303.38 126.93,304.19 127.79,302.57 128.66,304.19 129.51,302.57 130.37,302.57 131.23,303.38 132.09,288.80 132.95,302.57 133.82,304.19 134.68,304.19 135.55,303.38 136.41,304.19 137.27,300.14 138.14,304.19 139.00,304.19 139.86,304.19 140.75,35.00 141.61,35.00 142.48,302.57 143.35,35.00 144.21,35.00 145.08,303.38 145.94,304.19 146.80,35.00 147.65,304.19 148.53,304.19 149.40,304.19 150.26,304.19 151.13,303.38 151.99,303.38 152.86,304.19 153.72,304.19 154.58,303.38 155.44,286.91 156.31,303.38 157.16,304.19 158.04,304.19 158.90,304.19 159.77,303.38 160.63,304.19 161.51,304.19 162.38,303.38 163.25,302.57 164.11,302.57 164.97,304.19 165.83,302.57 166.71,304.19 167.57,304.19 168.44,304.19 169.30,35.00 170.17,304.19 171.04,304.19 171.91,302.57 172.79,35.00 173.65,35.00 174.51,303.38 175.38,304.19 176.24,303.38 177.11,304.19 177.98,304.19 178.92,302.57 179.78,304.19 180.66,35.00 181.52,35.00 182.38,302.57 183.24,304.19 184.09,304.19 184.95,303.38 185.82,35.00 186.68,303.38 187.54,35.00 188.40,304.19 189.27,304.19 190.13,304.19 191.01,303.38 191.87,303.38 192.73,304.19 193.59,304.19 194.46,295.28 195.32,35.00 196.19,303.38 197.06,35.00 197.92,35.00 198.79,302.57 199.65,304.19 200.51,299.33 201.37,304.19 202.24,304.19 203.10,304.19 203.97,303.38 204.84,303.38 205.71,303.38 206.57,302.57 207.45,303.38 208.31,304.19 209.17,303.38 210.04,304.19 210.91,303.38 211.79,304.19 212.66,303.38 213.52,303.38 214.39,302.57 215.25,303.38 216.11,304.19 216.97,303.38 217.84,35.00 218.70,304.19 219.56,303.38 220.42,302.57 221.29,304.19 222.16,304.19 223.03,303.38 223.89,303.38 224.77,304.19 225.64,35.00 226.50,303.38 227.36,35.00 228.22,302.57 229.16,303.38 230.05,304.19 230.90,35.00 231.77,303.38 232.62,35.00 233.49,304.19 234.35,304.19 235.22,35.00 236.09,304.19 236.95,302.57 237.81,302.57 238.68,303.38 239.56,35.00 240.42,302.57 241.28,304.19 242.15,301.76 243.02,303.38 243.90,303.38 244.79,304.19 245.65,303.38 246.51,303.38 247.38,304.19 248.24,304.19 249.11,303.38 249.97,304.19 250.85,304.19 251.71,303.38 252.57,35.00 253.45,304.19 254.31,303.38 255.17,304.19 256.04,304.19 256.92,304.19 257.78,35.00 258.64,35.00 259.50,302.57 260.36,302.57 261.23,304.19 262.09,303.38 262.95,302.57 263.82,302.57 264.67,35.00 265.54,304.19 266.41,35.00 267.27,303.38 268.14,35.00 269.02,303.38 269.89,303.38 270.76,303.38 271.62,35.00 272.49,304.19 273.35,302.57 274.22,303.38 275.08,304.19 275.97,303.38 276.84,35.00 277.70,303.38 278.57,304.19 279.43,303.38 280.30,304.19 281.16,35.00 282.02,302.57 282.89,304.19 283.76,304.19 284.62,303.38 285.49,303.38 286.36,304.19 287.22,303.38 288.09,304.19 288.96,304.19 289.84,304.19 290.70,303.38 291.56,302.57 292.43,304.19 293.31,35.00 294.18,295.28 295.04,303.38 295.90,302.57 296.86,303.38 297.73,301.76 298.60,35.00 299.47,304.19 300.34,303.38 301.21,304.19 302.08,304.19 302.95,299.33 303.80,304.19 304.70,303.38 305.57,302.57 306.43,303.38 307.30,302.57 308.16,304.19 309.03,304.19 309.89,304.19 310.79,302.57 311.66,303.38 312.52,303.38 313.40,35.00 314.33,303.38 315.20,303.38 316.29,304.19 317.75,302.57 318.64,303.38 319.52,303.38 320.39,303.38 321.23,304.19 322.09,303.38 322.97,304.19 323.84,304.19 324.71,303.38 325.61,304.19 326.51,304.19 327.43,304.19 328.30,304.19 329.16,302.57 330.03,35.00 330.91,304.19 331.78,302.57 332.66,303.38 333.52,303.38 334.38,303.38 335.28,304.19 336.15,304.19 337.01,303.38 337.88,304.19 338.76,303.38 339.66,304.19 340.53,303.38 341.39,304.19 342.28,287.18 343.11,288.53 343.97,301.76 344.86,302.57 345.72,303.38 346.60,35.00 347.49,35.00 348.36,303.38 349.22,303.38 350.10,304.19 350.97,304.19 351.84,35.00 352.70,304.19 353.56,35.00 354.43,303.38 355.30,303.38 356.16,302.57 357.19,303.38 358.21,303.38 359.24,300.95 360.24,303.38 361.23,302.57 362.23,304.19 363.25,304.19 364.26,35.00 365.13,303.38 365.99,303.38 366.85,304.19 367.71,304.19 368.58,302.57 369.44,303.38 370.30,304.19 371.16,303.38 372.03,303.38 372.89,304.19 373.75,303.38 374.61,304.19 375.48,303.38 376.34,303.38 377.20,304.19 378.06,303.38 378.93,35.00 379.78,304.19 380.65,304.19 381.52,303.38 382.38,304.19 383.24,304.19 384.10,35.00 384.96,303.38 385.83,304.19 386.69,304.19 387.55,304.19 388.42,302.57 389.29,35.00 390.15,303.38 391.01,287.72 391.87,304.19 392.73,304.19 393.60,303.38 394.45,301.76 395.30,303.38 396.16,304.19 397.03,302.57 397.88,303.38 398.74,303.38 399.61,303.38 400.47,303.38 401.32,304.19 402.18,303.38 403.03,302.57 403.92,304.19 404.85,303.38 405.72,303.38 406.59,303.38 407.45,303.38 408.31,304.19 409.17,304.19 410.02,304.19 410.88,304.19 411.91,303.38 412.92,303.38 413.93,304.19 414.94,302.57 415.96,304.19 416.97,303.38 418.00,302.57 419.05,304.19 419.99,303.38 420.92,303.38 421.79,303.38 422.66,302.57 423.53,35.00 424.38,35.00 425.24,304.19 426.11,303.38 426.97,35.00 427.83,35.00 428.69,303.38 429.56,304.19 430.42,304.19 431.29,304.19 432.16,303.38 433.02,304.19 433.88,304.19 434.64,304.19 435.53,304.19 436.40,287.72 437.28,303.38 438.15,302.57 439.01,303.38 439.88,303.38 440.75,304.19 441.62,304.19 442.49,303.38 443.36,302.57 444.24,304.19 445.10,303.38 445.96,302.57 446.82,304.19 447.68,301.76 448.54,304.19 449.40,304.19 450.27,303.38 451.13,303.38 452.00,304.19 452.86,303.38 453.72,301.76 454.59,304.19 455.46,304.19 456.32,304.19 457.20,35.00 458.06,303.38 458.92,304.19 459.80,304.19 460.66,304.19 461.55,304.19 462.41,35.00 463.27,35.00 464.13,302.57 464.99,304.19 465.85,35.00 466.72,304.19 467.59,303.38 468.44,302.57 469.31,302.57 470.17,304.19 471.03,303.38 471.90,304.19 472.77,303.38 473.64,301.76 474.68,304.19 475.57,304.19 476.45,304.19 477.33,302.57 478.19,304.19 479.07,304.19 479.92,304.19 480.79,303.38 481.66,304.19 482.53,303.38 483.39,35.00 484.26,302.57 485.13,304.19 485.99,302.57 486.89,304.19 487.77,303.38 488.64,304.19 489.50,303.38 490.37,35.00 491.23,302.57 492.09,303.38 492.96,304.19 493.86,304.19 494.73,304.19 495.60,304.19 496.46,303.38 497.33,304.19 498.20,304.19 499.06,304.19 499.93,304.19 500.79,304.19 501.66,304.19 502.53,302.57 503.40,304.19 504.26,303.38 505.13,304.19 505.99,304.19 506.87,304.19 507.74,304.19 508.60,35.00 509.46,304.19 510.33,301.76 511.21,217.79 512.07,304.19 513.11,35.00 514.00,303.38 514.87,302.57 515.74,304.19 516.60,303.38 517.47,304.19 518.33,303.38 519.20,304.19 520.08,304.19 520.95,303.38 521.81,35.00 522.67,35.00 523.54,304.19 524.40,302.57 525.26,304.19 526.13,304.19 527.00,304.19 527.86,303.38 528.72,304.19 529.58,302.57 530.46,304.19 531.32,35.00 532.18,35.00 533.06,303.38 533.93,304.19 534.79,303.38 535.66,300.95 536.53,304.19 537.42,304.19 538.28,304.19 539.14,303.38 540.02,303.38 540.88,302.57 541.74,35.00 542.61,303.38 543.48,35.00 544.37,35.00 545.23,303.38 546.10,304.19 546.95,302.57 547.81,304.19 548.68,304.19 549.55,303.38 550.41,303.38 551.28,296.09 552.16,304.19 553.03,304.19 553.88,304.19 554.76,302.57 555.62,35.00 556.48,303.38 557.35,304.19 558.21,302.57 559.07,302.57 559.95,303.38 560.82,35.00 561.68,303.38 562.56,303.38 563.43,304.19 564.30,304.19 565.17,303.38 566.04,304.19 567.01,303.38 567.96,303.38 568.89,302.57 569.76,304.19 570.67,303.38 571.54,303.38 572.41,304.19 573.26,35.00 574.07,303.38 574.98,287.18 575.84,304.19 576.72,286.37 577.57,302.57 578.44,304.19 579.30,304.19 580.18,304.19 581.04,304.19 581.91,304.19 582.77,35.00 583.64,303.38 584.51,304.19 585.38,35.00 586.25,304.19 587.13,304.19 588.00,303.38 588.86,304.19 589.73,304.19 590.62,303.38 591.48,303.38 592.34,304.19 593.21,304.19 594.07,304.19 594.94,304.19 595.80,302.57 596.67,35.00 597.54,35.00 598.42,304.19 599.27,303.38 600.14,304.19 601.01,304.19 601.88,304.19 602.75,304.19 603.62,304.19 604.48,301.76 605.35,303.38 606.22,302.57 607.09,304.19 607.96,35.00 608.84,304.19 609.70,304.19 610.57,303.38 611.44,35.00 612.31,304.19 613.19,304.19 614.08,304.19 614.94,35.00 615.82,304.19 616.68,304.19 617.55,303.38 618.41,303.38 619.28,35.00 620.16,35.00 621.03,303.38 621.89,304.19 622.76,302.57 623.63,302.57 624.50,304.19 625.38,295.28 626.25,303.38 627.12,304.19 627.99,304.19 628.86,303.38 629.74,35.00 630.61,304.19 631.47,302.57 632.34,35.00 633.21,302.57 634.10,303.38 634.97,304.19 635.85,303.38 636.72,304.19 637.58,35.00 638.45,35.00 639.31,302.57 640.18,303.38 641.05,295.28 641.92,304.19 642.79,304.19 643.65,303.38 644.52,303.38 645.40,304.19 646.27,304.19 647.13,35.00 648.01,303.38 648.88,303.38 649.75,304.19 650.62,35.00 651.48,304.19 652.35,303.38 653.21,35.00 654.08,304.19 654.95,303.38 655.82,302.57 656.69,304.19 657.57,302.57 658.43,304.19 659.31,303.38 660.18,304.19 661.05,304.19 661.92,304.19 662.80,304.19 663.66,304.19 664.53,304.19 665.41,303.38 666.28,303.38 667.16,304.19 668.03,304.19 668.91,304.19 669.79,304.19 670.66,303.38 671.53,304.19 672.39,304.19 673.27,303.38 674.14,303.38 675.02,35.00 675.89,303.38 676.76,303.38 677.63,304.19 678.49,35.00 679.38,302.57 680.24,304.19 681.12,287.18 681.99,304.19 682.85,35.00 683.72,35.00 684.58,304.19 685.44,304.19 686.32,304.19 687.18,304.19 688.06,303.38 688.92,303.38 689.79,303.38 690.66,304.19 691.55,35.00 692.43,35.00 693.29,35.00 694.16,286.37 695.02,302.57 695.89,301.76 696.76,303.38 697.63,303.38 698.50,286.37 699.37,304.19 700.24,304.19 701.11,304.19 701.98,304.19 702.85,303.38 703.73,35.00 704.62,303.38 705.50,304.19 706.37,303.38 707.25,303.38 708.12,35.00 708.99,304.19 709.86,35.00 710.72,303.38 711.58,302.57 712.46,303.38 713.33,303.38 714.21,303.38 715.08,303.38 715.96,303.38 716.86,304.19 717.73,35.00 718.60,303.38 719.47,304.19 720.34,35.00 721.21,35.00 722.09,304.19 722.97,303.38 723.84,304.19 724.72,304.19 725.59,301.76 726.46,304.19 727.34,303.38 728.20,304.19 729.07,301.76 729.95,304.19 730.81,302.57 731.69,302.57 732.57,303.38 733.43,304.19 734.30,35.00 735.18,35.00 736.05,35.00 736.92,303.38 737.79,303.38 738.67,304.19 739.57,35.00 740.44,302.57 741.32,304.19 742.19,35.00 743.08,304.19 743.97,304.19 744.86,303.38 745.74,303.38 746.64,302.57 747.51,304.19 748.38,303.38 749.25,303.38 750.12,304.19 751.00,35.00 751.87,304.19 752.76,35.00 753.63,304.19 754.50,303.38 755.37,35.00 756.24,302.57 757.11,303.38 757.98,298.52 758.85,303.38 759.72,304.19 760.58,303.38 761.45,304.19 762.32,304.19 763.18,35.00 764.05,304.19 764.92,304.19 765.80,35.00 766.66,304.19 767.54,303.38 768.42,304.19 769.28,35.00 770.16,303.38 771.03,303.38 771.90,304.19 772.76,304.19 773.63,304.19 774.50,304.19 775.38,298.52 776.24,303.38 777.10,302.57 777.97,304.19 778.83,302.57 779.71,303.38 780.57,304.19 781.44,304.19 782.32,303.38 783.18,303.38 784.05,304.19 784.92,304.19 785.79,35.00 786.64,35.00 787.51,304.19 788.36,304.19 789.23,303.38 790.10,303.38 790.99,301.76 791.85,304.19 792.72,304.19 793.59,284.75 794.48,303.38 795.35,303.38 796.22,304.19 797.10,304.19 797.97,304.19 798.83,303.38 799.71,303.38 800.58,304.19 801.47,303.38 802.34,303.38 803.21,303.38 804.07,304.19 804.94,304.19 805.80,303.38 806.67,302.57 807.54,303.38 808.40,304.19 809.27,303.38 810.14,304.19 811.02,304.19 811.88,35.00 812.75,303.38 813.61,304.19 814.48,302.57 815.36,304.19 816.23,304.19 817.10,304.19 817.97,303.38 818.84,301.76 819.72,35.00 820.58,304.19 821.45,303.38 822.32,304.19 823.19,35.00 824.05,304.19 824.93,304.19 825.81,304.19 826.67,304.19 827.54,304.19 828.40,35.00 829.30,35.00 830.17,303.38 831.06,304.19 831.94,304.19 832.81,302.57 833.68,35.00 834.55,302.57 835.43,35.00 836.30,35.00 837.16,303.38 838.04,303.38 838.93,304.19 839.80,304.19 840.67,35.00 841.54,304.19 842.41,303.38 843.29,302.57 844.16,304.19 845.02,304.19 845.89,303.38 846.76,302.57 847.63,304.19 848.50,304.19 849.36,304.19 850.24,304.19 851.10,35.00 851.97,35.00 852.84,304.19 853.70,303.38 854.57,35.00 855.46,304.19 856.32,302.57 857.19,304.19 858.05,304.19 858.93,304.19 859.78,294.47 860.67,303.38 861.53,35.00 862.41,304.19 863.28,304.19 864.14,302.57 865.01,304.19 865.88,304.19 866.75,304.19 867.61,303.38 868.50,304.19 869.39,303.38 870.27,304.19 871.16,304.19 872.04,302.57 872.94,302.57 873.83,304.19 874.71,304.19 875.62,301.76 876.50,301.76 877.40,35.00 878.26,304.19 879.13,303.38 880.00,304.19 880.88,304.19 881.75,303.38 882.63,304.19 883.50,35.00 884.38,35.00 885.24,303.38 886.12,304.19 886.98,304.19 887.85,302.57 888.72,303.38 889.58,304.19 890.45,303.38 891.32,304.19 892.20,304.19 893.06,302.57 893.95,35.00 894.82,304.19 895.69,35.00 896.56,35.00 897.43,304.19 898.30,304.19 899.17,303.38 900.04,303.38 900.91,304.19 901.78,304.19 902.65,303.38 903.52,304.19 904.39,304.19 905.26,304.19 906.13,304.19 907.00,304.19 907.93,303.38 908.83,35.00 909.69,301.76 910.57,35.00 911.43,302.57 912.31,304.19 913.19,304.19 914.07,304.19 914.94,303.38 915.80,304.19 916.66,302.57 917.53,304.19 918.39,35.00 919.27,303.38 920.14,304.19 921.01,303.38 921.88,303.38 922.76,302.57 923.63,35.00 924.50,304.19 925.37,35.00 926.23,304.19 927.11,295.28 927.98,304.19 928.85,303.38 929.71,297.71 930.59,304.19 931.46,35.00 932.33,302.57 933.24,302.57 934.11,304.19 934.98,304.19 935.85,303.38 936.72,304.19 937.59,303.38 938.47,304.19 939.34,304.19 940.21,303.38 941.08,304.19 941.96,304.19 942.84,304.19 943.72,303.38 944.59,304.19 945.46,303.38 946.33,35.00 947.20,304.19 948.07,303.38 948.94,303.38 949.80,303.38 950.69,304.19 951.56,35.00 952.43,303.38 953.30,35.00 954.16,304.19 955.04,35.00 955.90,35.00 956.77,304.19 957.64,35.00 958.51,304.19 959.39,304.19 960.25,35.00 961.12,304.19 961.99,304.19 962.86,303.38 963.74,303.38 964.61,303.38 965.47,304.19 966.33,303.38 967.20,35.00 968.07,303.38 968.95,304.19 969.81,303.38 970.71,302.57 971.58,303.38 972.45,304.19 973.33,304.19 974.19,286.91 975.08,301.76 976.01,303.38 976.90,303.38 977.78,304.19 978.66,303.38 979.54,304.19 980.41,303.38 981.27,304.19 982.15,304.19 983.02,304.19 983.89,304.19 984.76,302.57 985.63,35.00 986.50,303.38 987.39,303.38 988.27,35.00 989.14,303.38 990.01,304.19 990.88,304.19 991.75,303.38 992.63,303.38 993.50,303.38 994.37,303.38 995.25,303.38 996.12,304.19 996.99,303.38 997.86,301.76 998.74,304.19 999.61,304.19 1000.49,303.38 1001.37,304.19 1002.24,35.00 1003.10,304.19 1003.98,35.00 1004.86,303.38 1005.72,303.38 1006.58,303.38 1007.46,304.19 1008.33,301.76 1009.20,35.00 1010.08,35.00 1010.94,302.57 1011.81,304.19 1012.69,35.00 1013.56,304.19 1014.42,304.19 1015.30,304.19 1016.17,304.19 1017.05,304.19 1017.93,35.00 1018.78,35.00 1019.63,35.00 1020.49,304.19 1021.37,304.19 1022.24,303.38 1023.12,304.19 1024.00,302.57 1024.86,302.57 1025.75,303.38 1026.63,304.19 1027.49,303.38 1028.36,304.19 1029.22,303.38 1030.10,35.00 1030.95,303.38 1031.82,35.00 1032.69,304.19 1033.57,304.19 1034.43,304.19 1035.30,304.19 1036.16,302.57 1037.04,35.00 1037.91,304.19 1038.78,303.38 1039.64,287.72 1040.51,286.10 1041.35,304.19 1042.24,35.00 1043.11,304.19 1043.98,301.76 1044.86,304.19 1045.74,35.00 1046.60,304.19 1047.47,303.38 1048.35,304.19 1049.22,304.19 1050.09,301.76 1050.96,299.33 1051.89,302.57 1052.76,304.19 1053.64,303.38 1054.51,35.00 1055.40,35.00 1056.25,303.38 1057.12,303.38 1058.00,304.19 1058.87,285.02 1059.74,304.19 1060.60,304.19 1061.47,304.19 1062.35,304.19 1063.23,303.38 1064.10,302.57 1064.97,303.38 1065.84,35.00 1066.71,35.00 1067.58,304.19 1068.46,302.57 1069.33,303.38 1070.21,35.00 1071.10,303.38 1071.98,303.38 1072.85,35.00 1073.72,304.19 1074.60,303.38 1075.47,302.57 1076.35,303.38 1077.21,304.19 1078.08,304.19 1078.95,303.38 1079.82,303.38 1080.69,35.00 1081.57,302.57 1082.44,35.00 1083.31,35.00 1084.18,304.19 1085.04,304.19 1085.91,303.38 1086.78,304.19 1087.66,303.38 1088.52,35.00 1089.39,304.19 1090.26,304.19 1091.12,35.00 1091.99,304.19 1092.85,302.57 1093.72,300.95 1094.59,35.00 1095.45,35.00 1096.32,35.00 1097.19,303.38 1098.05,303.38 1098.92,304.19 1099.78,304.19 1100.66,303.38 1101.53,302.57 1102.39,303.38 1103.25,304.19 1104.12,304.19 1105.00,304.19 1105.86,304.19 1106.73,303.38 1107.61,303.38 1108.51,303.38 1109.38,302.57 1110.25,304.19 1111.13,303.38 1112.00,304.19 1112.87,304.19 1113.75,304.19 1114.62,302.57 1115.49,304.19 1116.36,302.57 1117.22,35.00 1118.09,304.19 1118.96,303.38 1119.83,304.19 1120.70,35.00 1121.57,304.19 1122.43,303.38 1123.30,303.38 1124.17,304.19 1125.04,303.38 1125.92,35.00 1126.83,304.19 1127.69,303.38 1128.56,303.38 1129.42,303.38 1130.28,304.19 1131.16,35.00 1132.03,303.38 1132.90,303.38 1133.77,304.19 1134.64,302.57 1135.52,304.19 1136.39,304.19 1137.26,304.19 1138.13,303.38 1139.00,304.19 1139.87,303.38 1140.74,304.19 1141.61,301.76 1142.48,303.38 1143.34,304.19 1144.20,304.19 1145.08,35.00 1145.94,298.52 1146.81,303.38 1147.68,304.19 1148.55,302.57 1149.42,303.38 1150.29,304.19 1151.16,304.19 1152.03,302.57 1152.90,301.76 1153.76,35.00 1154.63,304.19 1155.51,304.19 1156.37,304.19 1157.25,304.19 1158.12,35.00 1158.98,35.00 1159.84,303.38 1160.71,35.00 1161.59,302.57 1162.45,304.19 1163.34,304.19 1164.21,304.19 1165.08,304.19 1165.95,304.19 1166.82,304.19 1167.69,302.57 1168.58,303.38 1169.46,304.19 1170.38,35.00 1171.25,304.19 1172.19,302.57 1173.06,304.19 1173.92,304.19 1174.78,302.57 1175.65,302.57 1176.52,304.19 1177.39,304.19 1178.26,303.38 1179.13,304.19 1180.00,303.38"/>
<polyline fill="none" stroke="#d62728" stroke-opacity="0.65" stroke-width="2" points="70.00,35.00 70.87,304.46 71.74,304.46 72.60,302.30 73.47,304.46 74.34,303.38 75.20,304.46 76.07,304.46 77.01,35.00 77.87,304.46 78.73,304.46 79.59,303.92 80.47,303.92 81.33,304.46 82.19,304.46 83.75,303.92 85.09,304.46 85.97,35.00 86.86,303.92 87.72,302.84 88.58,304.46 89.43,303.92 90.30,302.84 91.17,35.00 92.04,303.92 92.91,35.00 93.79,35.00 94.66,35.00 95.53,303.92 96.44,35.00 97.31,303.38 98.18,303.92 99.07,304.46 99.93,35.00 100.80,35.00 101.69,304.46 102.55,35.00 103.42,304.46 104.30,35.00 105.15,304.46 106.02,303.92 106.87,35.00 107.74,304.46 108.61,304.46 109.47,293.12 110.35,35.00 111.23,304.46 112.08,304.46 112.95,304.46 113.82,35.00 114.69,304.46 115.68,304.46 116.54,304.46 117.41,35.00 118.26,35.00 119.12,304.46 119.98,304.46 120.84,303.38 121.71,303.92 122.58,304.46 123.46,35.00 124.32,304.46 125.18,304.46 126.05,35.00 126.93,304.46 127.79,303.92 128.66,304.46 129.51,304.46 130.37,35.00 131.23,303.92 132.09,303.92 132.95,304.46 133.82,303.92 134.68,303.92 135.55,35.00 136.41,303.92 137.27,304.46 138.14,304.46 139.00,303.38 139.86,35.00 140.75,304.46 141.61,303.38 142.48,304.46 143.35,35.00 144.21,304.46 145.08,304.46 145.94,303.92 146.80,303.92 147.65,303.92 148.53,304.46 149.40,303.92 150.26,304.46 151.13,303.92 151.99,35.00 152.86,303.92 153.72,303.92 154.58,304.46 155.44,304.46 156.31,303.92 157.16,303.92 158.04,35.00 158.90,35.00 159.77,303.92 160.63,35.00 161.51,304.46 162.38,304.46 163.25,304.46 164.11,304.46 164.97,303.92 165.83,304.46 166.71,303.38 167.57,304.46 168.44,303.92 169.30,35.00 170.17,304.46 171.04,303.92 171.91,303.92 172.79,303.92 173.65,304.46 174.51,35.00 175.38,304.46 176.24,304.46 177.11,35.00 177.98,303.92 178.92,304.46 179.78,303.92 180.66,304.46 181.52,304.46 182.38,303.92 183.24,303.92 184.09,304.46 184.95,304.46 185.82,304.46 186.68,303.38 187.54,304.46 188.40,35.00 189.27,303.92 190.13,35.00 191.01,304.46 191.87,35.00 192.73,35.00 193.59,303.92 194.46,303.92 195.32,304.46 196.19,304.46 197.06,304.46 197.92,303.92 198.79,304.46 199.65,304.46 200.51,303.92 201.37,35.00 202.24,304.46 203.10,35.00 203.97,303.92 204.84,304.46 205.71,304.46 206.57,35.00 207.45,35.00 208.31,35.00 209.17,304.46 210.04,303.92 210.91,304.46 211.79,303.92 212.66,303.92 213.52,304.46 214.39,304.46 215.25,304.46 216.11,304.46 216.97,304.46 217.84,304.46 218.70,304.46 219.56,282.59 220.42,304.46 221.29,303.92 222.16,304.46 223.03,304.46 223.89,304.46 224.77,303.38 225.64,304.46 226.50,304.46 227.36,303.92 228.22,304.46 229.16,303.92 230.05,304.46 230.90,304.46 231.77,304.46 232.62,304.46 233.49,304.46 234.35,303.38 235.22,304.46 236.09,304.46 236.95,304.46 237.81,303.92 238.68,35.00 239.56,304.46 240.42,303.92 241.28,303.92 242.15,303.92 243.02,35.00 243.90,304.46 244.79,304.46 245.65,35.00 246.51,303.92 247.38,35.00 248.24,35.00 249.11,304.46 249.97,304.46 250.85,35.00 251.71,35.00 252.57,304.46 253.45,304.46 254.31,303.92 255.17,303.92 256.04,304.46 256.92,304.46 257.78,304.46 258.64,303.92 259.50,304.46 260.36,304.46 261.23,303.92 262.09,303.38 262.95,304.46 263.82,35.00 264.67,304.46 265.54,35.00 266.41,35.00 267.27,303.92 268.14,303.92 269.02,304.46 269.89,304.46 270.76,304.46 271.62,303.92 272.49,297.98 273.35,35.00 274.22,304.46 275.08,303.92 275.97,304.46 276.84,303.92 277.70,35.00 278.57,303.92 279.43,304.46 280.30,35.00 281.16,303.92 282.02,304.46 282.89,304.46 283.76,35.00 284.62,303.92 285.49,303.92 286.36,35.00 287.22,303.92 288.09,303.92 288.96,35.00 289.84,303.92 290.70,304.46 291.56,303.92 292.43,304.46 293.31,303.92 294.18,35.00 295.04,304.46 295.90,35.00 296.86,35.00 297.73,303.92 298.60,303.38 299.47,303.38 300.34,303.38 301.21,35.00 302.08,304.46 302.95,304.46 303.80,304.46 304.70,35.00 305.57,304.46 306.43,304.46 307.30,304.46 308.16,35.00 309.03,304.46 309.89,304.46 310.79,293.66 311.66,303.92 312.52,304.46 313.40,303.92 314.33,304.46 315.20,35.00 316.29,304.46 317.75,304.46 318.64,304.46 319.52,304.46 320.39,35.00 321.23,304.46 322.09,304.46 322.97,303.92 323.84,35.00 324.71,304.46 325.61,35.00 326.51,303.38 327.43,304.46 328.30,304.46 329.16,35.00 330.03,35.00 330.91,304.46 331.78,35.00 332.66,304.46 333.52,304.46 334.38,304.46 335.28,35.00 336.15,303.92 337.01,35.00 337.88,304.46 338.76,304.46 339.66,297.98 340.53,304.46 341.39,35.00 342.28,293.12 343.11,35.00 343.97,303.92 344.86,35.00 345.72,304.46 346.60,304.46 347.49,303.92 348.36,304.46 349.22,304.46 350.10,303.92 350.97,303.92 351.84,304.46 352.70,303.92 353.56,35.00 354.43,304.46 355.30,304.46 356.16,304.46 357.19,304.46 358.21,303.92 359.24,304.46 360.24,304.46 361.23,303.38 362.23,303.92 363.25,303.92 364.26,304.46 365.13,35.00 365.99,35.00 366.85,304.46 367.71,304.46 368.58,303.92 369.44,304.46 370.30,303.92 371.16,35.00 372.03,304.46 372.89,304.46 373.75,304.46 374.61,304.46 375.48,293.12 376.34,304.46 377.20,35.00 378.06,303.92 378.93,303.92 379.78,304.46 380.65,304.46 381.52,35.00 382.38,303.92 383.24,304.46 384.10,304.46 384.96,304.46 385.83,35.00 386.69,297.98 387.55,303.92 388.42,303.38 389.29,304.46 390.15,35.00 391.01,302.84 391.87,303.92 392.73,35.00 393.60,35.00 394.45,303.92 395.30,302.84 396.16,304.46 397.03,303.38 397.88,35.00 398.74,304.46 399.61,304.46 400.47,304.46 401.32,303.92 402.18,304.46 403.03,35.00 403.92,304.46 404.85,303.92 405.72,35.00 406.59,303.92 407.45,303.92 408.31,304.46 409.17,304.46 410.02,304.46 410.88,303.92 411.91,304.46 412.92,304.46 413.93,303.92 414.94,304.46 415.96,303.92 416.97,303.92 418.00,304.46 419.05,303.92 419.99,303.92 420.92,303.92 421.79,35.00 422.66,35.00 423.53,35.00 424.38,303.92 425.24,304.46 426.11,304.46 426.97,304.46 427.83,304.46 428.69,304.46 429.56,35.00 430.42,304.46 431.29,303.38 432.16,35.00 433.02,35.00 433.88,303.92 434.64,282.32 435.53,282.05 436.40,304.46 437.28,35.00 438.15,303.38 439.01,304.46 439.88,35.00 440.75,35.00 441.62,35.00 442.49,303.92 443.36,304.46 444.24,304.46 445.10,303.92 445.96,35.00 446.82,303.38 447.68,303.92 448.54,304.46 449.40,303.92 450.27,304.46 451.13,304.46 452.00,304.46 452.86,304.46 453.72,304.46 454.59,303.92 455.46,303.92 456.32,303.92 457.20,304.46 458.06,304.46 458.92,35.00 459.80,35.00 460.66,304.46 461.55,304.46 462.41,304.46 463.27,303.92 464.13,35.00 464.99,303.92 465.85,35.00 466.72,303.92 467.59,304.46 468.44,35.00 469.31,304.46 470.17,35.00 471.03,304.46 471.90,303.92 472.77,304.46 473.64,302.84 474.68,303.92 475.57,303.92 476.45,304.46 477.33,304.46 478.19,303.38 479.07,303.92 479.92,299.06 480.79,35.00 481.66,304.46 482.53,303.92 483.39,304.46 484.26,35.00 485.13,303.92 485.99,303.92 486.89,304.46 487.77,303.92 488.64,35.00 489.50,304.46 490.37,35.00 491.23,303.92 492.09,35.00 492.96,303.38 493.86,304.46 494.73,304.46 495.60,35.00 496.46,304.46 497.33,304.46 498.20,304.46 499.06,303.92 499.93,35.00 500.79,303.38 501.66,304.46 502.53,304.46 503.40,35.00 504.26,304.46 505.13,35.00 505.99,304.46 506.87,304.46 507.74,291.50 508.60,303.92 509.46,304.46 510.33,304.46 511.21,303.38 512.07,303.92 513.11,303.38 514.00,303.92 514.87,35.00 515.74,35.00 516.60,304.46 517.47,303.38 518.33,304.46 519.20,35.00 520.08,303.92 520.95,304.46 521.81,35.00 522.67,303.92 523.54,35.00 524.40,304.46 525.26,304.46 526.13,35.00 527.00,304.46 527.86,304.46 528.72,35.00 529.58,304.46 530.46,304.46 531.32,304.46 532.18,303.92 533.06,35.00 533.93,304.46 534.79,304.46 535.66,35.00 536.53,304.46 537.42,303.38 538.28,35.00 539.14,304.46 540.02,304.46 540.88,303.92 541.74,304.46 542.61,304.46 543.48,304.46 544.37,304.46 545.23,304.46 546.10,304.46 546.95,303.92 547.81,304.46 548.68,303.92 549.55,304.46 550.41,35.00 551.28,304.46 552.16,304.46 553.03,303.92 553.88,35.00 554.76,304.46 555.62,304.46 556.48,304.46 557.35,304.46 558.21,303.92 559.07,304.46 559.95,304.46 560.82,35.00 561.68,304.46 562.56,303.92 563.43,35.00 564.30,35.00 565.17,303.92 566.04,281.24 567.01,304.46 567.96,304.46 568.89,35.00 569.76,303.92 570.67,303.92 571.54,304.46 572.41,304.46 573.26,303.92 574.07,293.12 574.98,303.92 575.84,292.58 576.72,294.20 577.57,293.12 578.44,303.92 579.30,304.46 580.18,303.92 581.04,303.38 581.91,304.46 582.77,304.46 583.64,304.46 584.51,303.92 585.38,35.00 586.25,35.00 587.13,35.00 588.00,35.00 588.86,304.46 589.73,35.00 590.62,304.46 591.48,303.92 592.34,304.46 593.21,303.92 594.07,303.92 594.94,304.46 595.80,303.92 596.67,304.46 597.54,304.46 598.42,35.00 599.27,304.46 600.14,304.46 601.01,35.00 601.88,303.92 602.75,35.00 603.62,303.92 604.48,35.00 605.35,304.46 606.22,35.00 607.09,304.46 607.96,304.46 608.84,303.92 609.70,304.46 610.57,35.00 611.44,303.92 612.31,304.46 613.19,304.46 614.08,304.46 614.94,304.46 615.82,303.92 616.68,302.84 617.55,304.46 618.41,304.46 619.28,304.46 620.16,304.46 621.03,303.92 621.89,304.46 622.76,303.38 623.63,35.00 624.50,35.00 625.38,303.38 626.25,35.00 627.12,304.46 627.99,303.92 628.86,304.46 629.74,303.92 630.61,304.46 631.47,35.00 632.34,35.00 633.21,35.00 634.10,303.92 634.97,303.92 635.85,303.92 636.72,304.46 637.58,303.92 638.45,304.46 639.31,304.46 640.18,304.46 641.05,304.46 641.92,304.46 642.79,304.46 643.65,35.00 644.52,304.46 645.40,35.00 646.27,304.46 647.13,304.46 648.01,304.46 648.88,304.46 649.75,303.92 650.62,292.58 651.48,304.46 652.35,304.46 653.21,303.92 654.08,304.46 654.95,304.46 655.82,304.46 656.69,303.92 657.57,35.00 658.43,304.46 659.31,304.46 660.18,304.46 661.05,303.92 661.92,304.46 662.80,293.66 663.66,292.04 664.53,293.66 665.41,293.12 666.28,294.20 667.16,293.12 668.03,293.12 668.91,292.58 669.79,293.12 670.66,293.39 671.53,293.12 672.39,293.12 673.27,293.12 674.14,293.12 675.02,293.66 675.89,292.58 676.76,292.58 677.63,293.66 678.49,293.12 679.38,292.58 680.24,293.12 681.12,294.20 681.99,293.12 682.85,293.12 683.72,292.58 684.58,294.20 685.44,293.66 686.32,281.51 687.18,271.25 688.06,293.66 688.92,293.66 689.79,293.12 690.66,293.12 691.55,293.66 692.43,293.12 693.29,293.66 694.16,293.66 695.02,293.66 695.89,293.12 696.76,293.66 697.63,293.12 698.50,292.04 699.37,293.12 700.24,293.12 701.11,293.12 701.98,292.58 702.85,293.12 703.73,293.12 704.62,292.58 705.50,292.58 706.37,293.12 707.25,293.12 708.12,293.39 708.99,293.12 709.86,293.66 710.72,293.12 711.58,292.58 712.46,293.66 713.33,292.58 714.21,293.12 715.08,293.66 715.96,294.20 716.86,293.66 717.73,293.66 718.60,293.12 719.47,293.12 720.34,292.04 721.21,293.12 722.09,293.66 722.97,293.12 723.84,294.20 724.72,293.66 725.59,294.20 726.46,293.12 727.34,293.66 728.20,282.05 729.07,293.66 729.95,293.66 730.81,293.66 731.69,293.12 732.57,293.12 733.43,293.12 734.30,293.12 735.18,293.66 736.05,293.66 736.92,293.66 737.79,292.58 738.67,293.66 739.57,294.20 740.44,293.12 741.32,293.12 742.19,294.20 743.08,292.58 743.97,294.20 744.86,293.12 745.74,293.66 746.64,294.20 747.51,294.20 748.38,293.12 749.25,293.66 750.12,293.66 751.00,293.12 751.87,292.58 752.76,293.66 753.63,293.12 754.50,293.12 755.37,283.13 756.24,292.58 757.11,293.66 757.98,293.66 758.85,292.58 759.72,282.05 760.58,293.12 761.45,293.12 762.32,293.12 763.18,292.58 764.05,293.66 764.92,294.20 765.80,293.12 766.66,293.66 767.54,304.46 768.42,303.92 769.28,35.00 770.16,303.92 771.03,304.46 771.90,303.92 772.76,304.46 773.63,304.46 774.50,35.00 775.38,304.46 776.24,303.92 777.10,303.92 777.97,303.92 778.83,304.46 779.71,304.46 780.57,303.38 781.44,304.46 782.32,304.46 783.18,303.92 784.05,304.46 784.92,303.92 785.79,35.00 786.64,304.46 787.51,304.46 788.36,35.00 789.23,304.46 790.10,304.46 790.99,304.46 791.85,303.92 792.72,35.00 793.59,304.46 794.48,304.46 795.35,303.92 796.22,304.46 797.10,35.00 797.97,35.00 798.83,304.46 799.71,304.46 800.58,303.92 801.47,304.46 802.34,303.92 803.21,35.00 804.07,35.00 804.94,35.00 805.80,303.38 806.67,293.12 807.54,293.12 808.40,304.46 809.27,304.46 810.14,258.83 811.02,303.92 811.88,304.46 812.75,35.00 813.61,35.00 814.48,304.46 815.36,303.38 816.23,35.00 817.10,303.92 817.97,304.46 818.84,303.92 819.72,303.92 820.58,304.46 821.45,304.46 822.32,304.46 823.19,304.46 824.05,304.46 824.93,35.00 825.81,297.44 826.67,35.00 827.54,303.92 828.40,35.00 829.30,304.46 830.17,304.46 831.06,304.46 831.94,304.46 832.81,304.46 833.68,303.92 834.55,303.92 835.43,303.92 836.30,35.00 837.16,304.46 838.04,304.46 838.93,303.92 839.80,304.46 840.67,35.00 841.54,304.46 842.41,35.00 843.29,304.46 844.16,302.84 845.02,35.00 845.89,303.92 846.76,304.46 847.63,304.46 848.50,303.92 849.36,304.46 850.24,304.46 851.10,35.00 851.97,303.92 852.84,304.46 853.70,303.38 854.57,304.46 855.46,304.46 856.32,303.92 857.19,304.46 858.05,303.92 858.93,303.92 859.78,304.46 860.67,35.00 861.53,303.92 862.41,304.46 863.28,35.00 864.14,304.46 865.01,304.46 865.88,303.92 866.75,35.00 867.61,35.00 868.50,303.92 869.39,304.46 870.27,35.00 871.16,35.00 872.04,35.00 872.94,303.92 873.83,304.46 874.71,303.92 875.62,303.92 876.50,304.46 877.40,303.92 878.26,35.00 879.13,304.46 880.00,304.46 880.88,304.46 881.75,303.92 882.63,35.00 883.50,304.46 884.38,304.46 885.24,303.38 886.12,35.00 886.98,304.46 887.85,303.92 888.72,304.46 889.58,35.00 890.45,303.92 891.32,304.46 892.20,304.46 893.06,304.46 893.95,293.66 894.82,293.12 895.69,293.12 896.56,293.66 897.43,303.92 898.30,304.46 899.17,304.46 900.04,304.46 900.91,304.46 901.78,303.92 902.65,304.46 903.52,304.46 904.39,304.46 905.26,304.46 906.13,303.92 907.00,35.00 907.93,35.00 908.83,303.92 909.69,302.84 910.57,303.92 911.43,303.38 912.31,304.46 913.19,303.92 914.07,303.92 914.94,304.46 915.80,303.92 916.66,304.46 917.53,304.46 918.39,303.92 919.27,303.92 920.14,304.46 921.01,304.46 921.88,304.46 922.76,303.92 923.63,35.00 924.50,35.00 925.37,304.46 926.23,303.38 927.11,304.46 927.98,304.46 928.85,304.46 929.71,304.46 930.59,35.00 931.46,303.92 932.33,35.00 933.24,35.00 934.11,303.92 934.98,304.46 935.85,303.92 936.72,304.46 937.59,304.46 938.47,304.46 939.34,304.46 940.21,303.92 941.08,303.92 941.96,304.46 942.84,35.00 943.72,303.92 944.59,303.92 945.46,303.38 946.33,304.46 947.20,35.00 948.07,304.46 948.94,304.46 949.80,304.46 950.69,303.92 951.56,303.92 952.43,303.92 953.30,304.46 954.16,304.46 955.04,304.46 955.90,304.46 956.77,304.46 957.64,304.46 958.51,303.92 959.39,304.46 960.25,304.46 961.12,35.00 961.99,304.46 962.86,304.46 963.74,304.46 964.61,304.46 965.47,35.00 966.33,303.92 967.20,303.92 968.07,303.92 968.95,35.00 969.81,303.92 970.71,303.92 971.58,35.00 972.45,304.46 973.33,248.57 974.19,259.37 975.08,269.09 976.01,293.12 976.90,282.59 977.78,270.17 978.66,282.05 979.54,35.00 980.41,304.46 981.27,304.46 982.15,303.92 983.02,304.46 983.89,304.46 984.76,304.46 985.63,303.38 986.50,304.46 987.39,304.46 988.27,304.46 989.14,304.46 990.01,304.46 990.88,304.46 991.75,303.92 992.63,303.92 993.50,35.00 994.37,303.92 995.25,304.46 996.12,303.92 996.99,35.00 997.86,35.00 998.74,35.00 999.61,303.92 1000.49,304.46 1001.37,304.46 1002.24,35.00 1003.10,35.00 1003.98,35.00 1004.86,35.00 1005.72,35.00 1006.58,304.46 1007.46,304.46 1008.33,304.46 1009.20,304.46 1010.08,304.46 1010.94,303.92 1011.81,35.00 1012.69,35.00 1013.56,304.46 1014.42,304.46 1015.30,304.46 1016.17,303.92 1017.05,304.46 1017.93,35.00 1018.78,304.46 1019.63,303.38 1020.49,304.46 1021.37,304.46 1022.24,303.92 1023.12,304.46 1024.00,304.46 1024.86,303.92 1025.75,303.92 1026.63,304.46 1027.49,303.92 1028.36,303.92 1029.22,304.46 1030.10,304.46 1030.95,35.00 1031.82,303.92 1032.69,303.92 1033.57,304.46 1034.43,35.00 1035.30,304.46 1036.16,303.92 1037.04,293.12 1037.91,304.46 1038.78,304.46 1039.64,35.00 1040.51,286.64 1041.35,259.37 1042.24,248.84 1043.11,35.00 1043.98,35.00 1044.86,303.92 1045.74,302.84 1046.60,304.46 1047.47,304.46 1048.35,303.92 1049.22,304.46 1050.09,35.00 1050.96,304.46 1051.89,303.92 1052.76,304.46 1053.64,303.92 1054.51,304.46 1055.40,304.46 1056.25,35.00 1057.12,303.38 1058.00,304.46 1058.87,304.46 1059.74,304.46 1060.60,302.84 1061.47,298.52 1062.35,35.00 1063.23,303.92 1064.10,304.46 1064.97,303.92 1065.84,35.00 1066.71,304.46 1067.58,304.46 1068.46,304.46 1069.33,304.46 1070.21,303.92 1071.10,304.46 1071.98,304.46 1072.85,304.46 1073.72,304.46 1074.60,303.92 1075.47,303.92 1076.35,304.46 1077.21,35.00 1078.08,303.92 1078.95,303.92 1079.82,303.38 1080.69,303.92 1081.57,303.92 1082.44,303.92 1083.31,35.00 1084.18,304.46 1085.04,304.46 1085.91,304.46 1086.78,303.92 1087.66,304.46 1088.52,304.46 1089.39,304.46 1090.26,304.46 1091.12,35.00 1091.99,304.46 1092.85,304.46 1093.72,35.00 1094.59,35.00 1095.45,303.92 1096.32,304.46 1097.19,304.46 1098.05,303.92 1098.92,304.46 1099.78,304.46 1100.66,35.00 1101.53,304.46 1102.39,303.92 1103.25,35.00 1104.12,304.46 1105.00,303.92 1105.86,35.00 1106.73,304.46 1107.61,304.46 1108.51,35.00 1109.38,303.92 1110.25,35.00 1111.13,35.00 1112.00,304.46 1112.87,304.46 1113.75,304.46 1114.62,304.46 1115.49,301.76 1116.36,35.00 1117.22,304.46 1118.09,35.00 1118.96,303.92 1119.83,304.46 1120.70,304.46 1121.57,293.12 1122.43,303.92 1123.30,35.00 1124.17,303.92 1125.04,304.46 1125.92,35.00 1126.83,304.46 1127.69,35.00 1128.56,304.46 1129.42,304.46 1130.28,304.46 1131.16,35.00 1132.03,304.46 1132.90,35.00 1133.77,304.46 1134.64,303.92 1135.52,304.46 1136.39,303.92 1137.26,303.92 1138.13,35.00 1139.00,304.46 1139.87,35.00 1140.74,303.92 1141.61,304.46 1142.48,303.92 1143.34,35.00 1144.20,303.92 1145.08,303.92 1145.94,303.92 1146.81,35.00 1147.68,304.46 1148.55,35.00 1149.42,304.46 1150.29,304.46 1151.16,304.46 1152.03,303.92 1152.90,304.46 1153.76,304.46 1154.63,35.00 1155.51,304.46 1156.37,35.00 1157.25,304.46 1158.12,303.92 1158.98,303.92 1159.84,303.92 1160.71,304.46 1161.59,35.00 1162.45,304.46 1163.34,35.00 1164.21,303.92 1165.08,304.46 1165.95,35.00 1166.82,304.46 1167.69,303.92 1168.58,291.50 1169.46,35.00 1170.38,304.46 1171.25,303.92 1172.19,35.00 1173.06,300.14 1173.92,303.92 1174.78,303.92 1175.65,35.00 1176.52,303.38 1177.39,304.46 1178.26,298.52 1179.13,35.00 1180.00,35.00"/>
<polyline fill="none" stroke="#d62728" stroke-opacity="0.50" stroke-width="2" points="70.00,302.84 70.87,302.84 71.74,303.92 72.60,303.92 73.47,303.92 74.34,303.38 75.20,303.92 76.07,302.57 77.01,303.38 77.87,302.84 78.73,303.92 79.59,303.38 80.47,302.84 81.33,303.38 82.19,287.18 83.75,303.38 85.09,303.38 85.97,303.38 86.86,303.92 87.72,302.84 88.58,293.12 89.43,303.38 90.30,303.38 91.17,303.38 92.04,303.38 92.91,303.38 93.79,303.38 94.66,303.92 95.53,303.38 96.44,303.92 97.31,303.92 98.18,303.38 99.07,303.38 99.93,303.38 100.80,302.03 101.69,303.38 102.55,303.92 103.42,303.92 104.30,303.38 105.15,303.92 106.02,303.92 106.87,303.92 107.74,302.84 108.61,303.92 109.47,303.38 110.35,303.92 111.23,302.84 112.08,303.92 112.95,302.84 113.82,303.38 114.69,302.84 115.68,303.38 116.54,303.92 117.41,303.38 118.26,303.92 119.12,303.38 119.98,303.38 120.84,303.92 121.71,302.30 122.58,303.92 123.46,303.92 124.32,304.46 125.18,303.92 126.05,303.92 126.93,303.92 127.79,303.38 128.66,289.61 129.51,303.92 130.37,303.38 131.23,302.84 132.09,299.87 132.95,303.92 133.82,303.92 134.68,304.46 135.55,303.92 136.41,302.03 137.27,304.46 138.14,303.38 139.00,303.38 139.86,302.84 140.75,302.57 141.61,303.92 142.48,303.92 143.35,303.92 144.21,303.38 145.08,303.38 145.94,302.84 146.80,303.38 147.65,302.84 148.53,303.92 149.40,303.38 150.26,294.20 151.13,303.38 151.99,303.38 152.86,303.92 153.72,303.92 154.58,302.57 155.44,303.38 156.31,302.84 157.16,302.84 158.04,302.57 158.90,303.92 159.77,303.92 160.63,303.92 161.51,303.92 162.38,302.84 163.25,303.92 164.11,303.92 164.97,302.84 165.83,303.92 166.71,302.84 167.57,302.84 168.44,303.92 169.30,303.92 170.17,303.92 171.04,303.92 171.91,302.57 172.79,303.92 173.65,303.92 174.51,303.38 175.38,303.38 176.24,303.92 177.11,304.46 177.98,303.92 178.92,303.92 179.78,303.38 180.66,303.92 181.52,303.92 182.38,304.46 183.24,303.38 184.09,302.84 184.95,303.92 185.82,302.84 186.68,303.92 187.54,303.38 188.40,303.38 189.27,304.46 190.13,303.38 191.01,303.92 191.87,302.57 192.73,302.03 193.59,303.92 194.46,303.92 195.32,303.38 196.19,303.38 197.06,303.92 197.92,303.38 198.79,303.38 199.65,302.84 200.51,302.57 201.37,303.38 202.24,302.03 203.10,302.03 203.97,302.03 204.84,302.84 205.71,302.03 206.57,302.84 207.45,302.84 208.31,302.57 209.17,302.03 210.04,303.92 210.91,303.38 211.79,303.92 212.66,303.92 213.52,303.38 214.39,302.84 215.25,303.92 216.11,303.92 216.97,303.92 217.84,296.90 218.70,303.38 219.56,302.84 220.42,303.92 221.29,303.92 222.16,302.84 223.03,303.92 223.89,302.84 224.77,303.92 225.64,303.92 226.50,303.38 227.36,303.92 228.22,303.92 229.16,299.33 230.05,303.38 230.90,303.92 231.77,303.38 232.62,303.92 233.49,304.46 234.35,303.92 235.22,303.38 236.09,303.92 236.95,302.84 237.81,303.38 238.68,303.38 239.56,303.92 240.42,303.92 241.28,303.92 242.15,302.84 243.02,303.92 243.90,303.38 244.79,303.92 245.65,303.92 246.51,303.38 247.38,302.84 248.24,303.38 249.11,303.38 249.97,303.92 250.85,303.92 251.71,302.84 252.57,303.92 253.45,303.38 254.31,303.92 255.17,303.92 256.04,303.38 256.92,303.92 257.78,302.30 258.64,303.92 259.50,303.38 260.36,303.92 261.23,302.84 262.09,303.92 262.95,302.84 263.82,303.92 264.67,303.92 265.54,303.92 266.41,303.92 267.27,302.84 268.14,303.92 269.02,303.92 269.89,299.87 270.76,303.92 271.62,302.84 272.49,302.84 273.35,303.92 274.22,303.92 275.08,303.92 275.97,304.46 276.84,304.46 277.70,303.38 278.57,303.38 279.43,303.38 280.30,303.92 281.16,303.92 282.02,302.84 282.89,303.92 283.76,303.92 284.62,303.38 285.49,303.38 286.36,303.92 287.22,302.57 288.09,303.92 288.96,302.84 289.84,303.92 290.70,303.92 291.56,303.38 292.43,303.92 293.31,304.46 294.18,303.38 295.04,302.84 295.90,303.38 296.86,303.92 297.73,303.38 298.60,303.92 299.47,303.92 300.34,303.38 301.21,303.38 302.08,303.38 302.95,303.38 303.80,303.92 304.70,302.84 305.57,303.92 306.43,303.92 307.30,303.92 308.16,303.92 309.03,302.84 309.89,303.38 310.79,303.38 311.66,303.92 312.52,302.84 313.40,303.92 314.33,303.92 315.20,293.39 316.29,293.12 317.75,303.92 318.64,302.84 319.52,292.58 320.39,302.03 321.23,302.84 322.09,304.46 322.97,303.92 323.84,303.92 324.71,303.92 325.61,304.46 326.51,303.92 327.43,303.92 328.30,302.84 329.16,303.38 330.03,303.38 330.91,303.92 331.78,303.38 332.66,302.84 333.52,294.74 334.38,303.38 335.28,303.92 336.15,303.92 337.01,303.92 337.88,303.92 338.76,303.38 339.66,303.92 340.53,303.38 341.39,303.92 342.28,303.38 343.11,302.57 343.97,303.92 344.86,303.92 345.72,303.92 346.60,304.46 347.49,303.38 348.36,303.38 349.22,303.38 350.10,304.46 350.97,303.92 351.84,303.92 352.70,303.38 353.56,303.92 354.43,303.92 355.30,303.92 356.16,303.92 357.19,300.41 358.21,303.92 359.24,303.38 360.24,303.92 361.23,303.92 362.23,303.92 363.25,302.84 364.26,303.92 365.13,303.92 365.99,303.92 366.85,303.38 367.71,302.84 368.58,302.84 369.44,303.92 370.30,303.92 371.16,303.38 372.03,304.46 372.89,304.46 373.75,303.92 374.61,292.58 375.48,302.84 376.34,304.46 377.20,303.38 378.06,303.92 378.93,303.38 379.78,303.38 380.65,303.38 381.52,303.38 382.38,303.38 383.24,304.46 384.10,303.38 384.96,304.46 385.83,303.92 386.69,303.38 387.55,303.92 388.42,303.38 389.29,295.82 390.15,302.84 391.01,303.92 391.87,302.84 392.73,299.87 393.60,303.92 394.45,303.38 395.30,302.84 396.16,303.92 397.03,303.92 397.88,303.38 398.74,303.92 399.61,303.38 400.47,303.92 401.32,303.38 402.18,304.46 403.03,303.92 403.92,303.92 404.85,303.92 405.72,303.92 406.59,303.92 407.45,303.38 408.31,302.57 409.17,303.92 410.02,303.92 410.88,303.92 411.91,302.84 412.92,302.84 413.93,303.92 414.94,302.30 415.96,303.92 416.97,303.92 418.00,303.92 419.05,303.92 419.99,303.92 420.92,303.92 421.79,303.38 422.66,303.38 423.53,303.38 424.38,303.38 425.24,303.92 426.11,303.92 426.97,292.85 427.83,303.92 428.69,302.57 429.56,303.38 430.42,303.92 431.29,303.92 432.16,303.38 433.02,303.92 433.88,302.30 434.64,303.92 435.53,303.92 436.40,304.46 437.28,303.38 438.15,303.92 439.01,303.92 439.88,303.38 440.75,303.92 441.62,303.92 442.49,303.92 443.36,304.46 444.24,303.92 445.10,303.38 445.96,303.92 446.82,303.92 447.68,303.92 448.54,302.84 449.40,303.38 450.27,303.92 451.13,303.92 452.00,303.38 452.86,303.92 453.72,303.38 454.59,303.38 455.46,303.92 456.32,303.38 457.20,303.92 458.06,303.92 458.92,303.92 459.80,303.92 460.66,303.92 461.55,303.92 462.41,303.92 463.27,302.84 464.13,302.84 464.99,303.92 465.85,304.46 466.72,302.03 467.59,303.38 468.44,303.92 469.31,303.92 470.17,303.92 471.03,302.84 471.90,303.38 472.77,303.38 473.64,303.38 474.68,303.92 475.57,303.92 476.45,303.38 477.33,302.57 478.19,303.92 479.07,302.84 479.92,303.92 480.79,303.92 481.66,303.92 482.53,304.46 483.39,302.57 484.26,302.57 485.13,303.38 485.99,303.92 486.89,303.92 487.77,303.38 488.64,303.38 489.50,302.84 490.37,303.92 491.23,300.95 492.09,303.92 492.96,302.84 493.86,303.38 494.73,303.92 495.60,303.38 496.46,302.84 497.33,303.92 498.20,303.38 499.06,303.92 499.93,303.38 500.79,303.92 501.66,303.92 502.53,303.92 503.40,303.38 504.26,303.38 505.13,303.92 505.99,303.92 506.87,303.92 507.74,303.92 508.60,303.92 509.46,300.95 510.33,290.69 511.21,303.92 512.07,302.84 513.11,303.92 514.00,303.38 514.87,303.38 515.74,303.92 516.60,304.46 517.47,303.92 518.33,303.92 519.20,303.38 520.08,303.38 520.95,302.84 521.81,304.46 522.67,303.92 523.54,303.38 524.40,304.46 525.26,304.46 526.13,303.38 527.00,303.38 527.86,303.92 528.72,303.38 529.58,304.46 530.46,303.38 531.32,302.84 532.18,304.46 533.06,303.92 533.93,303.92 534.79,303.38 535.66,303.38 536.53,303.92 537.42,303.92 538.28,300.95 539.14,303.92 540.02,302.84 540.88,303.92 541.74,303.38 542.61,303.38 543.48,302.03 544.37,302.03 545.23,303.92 546.10,302.84 546.95,302.84 547.81,302.57 548.68,303.38 549.55,303.38 550.41,303.38 551.28,303.38 552.16,291.77 553.03,274.49 553.88,302.84 554.76,292.85 555.62,302.84 556.48,303.38 557.35,303.92 558.21,303.92 559.07,303.92 559.95,303.38 560.82,303.38 561.68,304.46 562.56,302.84 563.43,303.92 564.30,302.57 565.17,303.92 566.04,303.92 567.01,304.46 567.96,304.46 568.89,303.92 569.76,303.92 570.67,303.92 571.54,303.38 572.41,303.92 573.26,303.38 574.07,303.38 574.98,303.38 575.84,303.92 576.72,303.92 577.57,303.38 578.44,303.38 579.30,303.38 580.18,303.92 581.04,303.38 581.91,303.92 582.77,303.92 583.64,303.92 584.51,303.92 585.38,303.38 586.25,303.92 587.13,303.92 588.00,302.84 588.86,303.38 589.73,303.38 590.62,302.57 591.48,303.38 592.34,302.57 593.21,302.57 594.07,301.49 594.94,303.92 595.80,303.38 596.67,303.92 597.54,302.84 598.42,303.38 599.27,303.92 600.14,303.38 601.01,303.38 601.88,303.38 602.75,303.92 603.62,303.92 604.48,304.46 605.35,303.92 606.22,303.92 607.09,302.57 607.96,303.38 608.84,303.38 609.70,303.92 610.57,302.84 611.44,302.84 612.31,303.38 613.19,303.38 614.08,303.92 614.94,303.38 615.82,303.92 616.68,303.92 617.55,300.41 618.41,303.92 619.28,303.38 620.16,303.92 621.03,303.92 621.89,303.92 622.76,303.38 623.63,304.46 624.50,303.38 625.38,302.84 626.25,303.92 627.12,303.92 627.99,303.38 628.86,303.92 629.74,303.92 630.61,303.92 631.47,303.92 632.34,303.92 633.21,303.38 634.10,302.84 634.97,303.92 635.85,303.38 636.72,303.92 637.58,303.92 638.45,303.38 639.31,303.92 640.18,303.92 641.05,303.38 641.92,303.92 642.79,303.38 643.65,302.84 644.52,303.38 645.40,302.03 646.27,292.85 647.13,303.92 648.01,302.57 648.88,303.38 649.75,302.84 650.62,303.38 651.48,302.84 652.35,291.50 653.21,303.38 654.08,303.92 654.95,303.92 655.82,303.92 656.69,303.92 657.57,303.92 658.43,303.92 659.31,303.92 660.18,303.92 661.05,303.92 661.92,297.71 662.80,303.38 663.66,303.38 664.53,303.92 665.41,303.92 666.28,303.38 667.16,304.46 668.03,304.46 668.91,303.92 669.79,303.92 670.66,303.38 671.53,303.92 672.39,304.46 673.27,303.92 674.14,303.38 675.02,302.84 675.89,302.84 676.76,303.38 677.63,303.92 678.49,302.03 679.38,303.38 680.24,303.92 681.12,302.84 681.99,303.92 682.85,304.46 683.72,303.92 684.58,304.46 685.44,303.38 686.32,303.92 687.18,303.92 688.06,303.92 688.92,303.92 689.79,302.84 690.66,302.84 691.55,303.38 692.43,303.92 693.29,302.84 694.16,292.31 695.02,303.92 695.89,303.38 696.76,303.38 697.63,303.38 698.50,303.92 699.37,303.38 700.24,303.92 701.11,303.92 701.98,303.92 702.85,303.92 703.73,303.92 704.62,302.84 705.50,303.38 706.37,303.92 707.25,303.92 708.12,303.92 708.99,302.84 709.86,303.92 710.72,303.92 711.58,303.92 712.46,303.92 713.33,303.38 714.21,303.92 715.08,303.38 715.96,303.92 716.86,303.92 717.73,303.38 718.60,303.92 719.47,303.92 720.34,301.49 721.21,303.92 722.09,303.92 722.97,303.92 723.84,303.38 724.72,302.84 725.59,303.92 726.46,304.46 727.34,303.38 728.20,303.38 729.07,303.92 729.95,303.92 730.81,303.92 731.69,303.92 732.57,303.38 733.43,303.92 734.30,302.84 735.18,303.92 736.05,303.38 736.92,303.92 737.79,303.92 738.67,303.92 739.57,304.46 740.44,303.38 741.32,303.92 742.19,303.92 743.08,301.49 743.97,302.03 744.86,303.92 745.74,303.38 746.64,302.57 747.51,300.41 748.38,303.38 749.25,302.57 750.12,303.92 751.00,304.46 751.87,303.92 752.76,303.92 753.63,303.38 754.50,303.38 755.37,303.92 756.24,303.92 757.11,303.38 757.98,302.84 758.85,303.92 759.72,304.46 760.58,303.38 761.45,303.38 762.32,302.84 763.18,302.84 764.05,303.92 764.92,303.92 765.80,303.92 766.66,303.38 767.54,303.92 768.42,303.38 769.28,303.92 770.16,303.92 771.03,303.92 771.90,303.92 772.76,303.92 773.63,303.92 774.50,303.92 775.38,303.38 776.24,303.92 777.10,301.49 777.97,302.57 778.83,303.92 779.71,302.57 780.57,303.92 781.44,303.38 782.32,302.84 783.18,303.92 784.05,302.84 784.92,292.58 785.79,290.69 786.64,302.84 787.51,291.50 788.36,302.57 789.23,303.38 790.10,303.92 790.99,303.92 791.85,304.46 792.72,303.92 793.59,303.38 794.48,303.38 795.35,303.92 796.22,303.38 797.10,303.92 797.97,303.38 798.83,303.92 799.71,303.92 800.58,294.20 801.47,303.92 802.34,303.92 803.21,303.92 804.07,303.38 804.94,303.38 805.80,302.57 806.67,303.92 807.54,303.38 808.40,303.92 809.27,304.46 810.14,302.57 811.02,303.92 811.88,302.84 812.75,303.92 813.61,303.92 814.48,302.84 815.36,303.38 816.23,303.38 817.10,303.92 817.97,302.84 818.84,303.38 819.72,303.38 820.58,303.92 821.45,303.92 822.32,303.92 823.19,303.38 824.05,303.92 824.93,303.92 825.81,303.38 826.67,303.38 827.54,303.92 828.40,303.92 829.30,303.38 830.17,303.38 831.06,303.38 831.94,303.38 832.81,303.92 833.68,303.92 834.55,303.92 835.43,303.92 836.30,295.82 837.16,303.38 838.04,303.38 838.93,303.38 839.80,303.92 840.67,303.38 841.54,303.38 842.41,302.84 843.29,303.38 844.16,302.03 845.02,303.92 845.89,303.92 846.76,303.92 847.63,302.03 848.50,303.92 849.36,297.44 850.24,303.38 851.10,303.92 851.97,303.92 852.84,303.38 853.70,303.92 854.57,303.92 855.46,303.92 856.32,303.92 857.19,303.38 858.05,303.92 858.93,300.41 859.78,303.38 860.67,303.38 861.53,303.92 862.41,300.41 863.28,303.38 864.14,303.92 865.01,303.38 865.88,303.92 866.75,303.92 867.61,303.92 868.50,303.92 869.39,302.57 870.27,303.38 871.16,303.92 872.04,303.92 872.94,302.30 873.83,303.92 874.71,303.92 875.62,304.46 876.50,303.92 877.40,302.03 878.26,303.92 879.13,303.92 880.00,302.84 880.88,303.92 881.75,303.92 882.63,303.38 883.50,303.38 884.38,300.95 885.24,303.38 886.12,303.38 886.98,303.38 887.85,292.31 888.72,303.92 889.58,303.38 890.45,302.84 891.32,303.92 892.20,303.92 893.06,303.92 893.95,303.92 894.82,303.92 895.69,303.92 896.56,303.38 897.43,303.38 898.30,303.38 899.17,303.92 900.04,303.92 900.91,292.31 901.78,303.92 902.65,303.92 903.52,303.92 904.39,303.38 905.26,303.92 906.13,302.84 907.00,303.38 907.93,303.92 908.83,303.92 909.69,304.46 910.57,302.84 911.43,303.92 912.31,303.92 913.19,302.84 914.07,303.38 914.94,303.92 915.80,303.92 916.66,303.38 917.53,303.38 918.39,303.92 919.27,303.92 920.14,302.84 921.01,303.92 921.88,302.84 922.76,303.92 923.63,302.84 924.50,303.92 925.37,302.84 926.23,303.92 927.11,302.84 927.98,303.92 928.85,303.92 929.71,303.92 930.59,303.38 931.46,303.38 932.33,303.92 933.24,302.84 934.11,303.38 934.98,303.38 935.85,304.46 936.72,303.38 937.59,303.38 938.47,303.92 939.34,303.38 940.21,302.84 941.08,302.30 941.96,303.92 942.84,303.38 943.72,303.38 944.59,303.92 945.46,302.03 946.33,303.38 947.20,303.38 948.07,303.38 948.94,303.38 949.80,303.92 950.69,300.95 951.56,302.84 952.43,302.84 953.30,303.92 954.16,303.38 955.04,303.92 955.90,303.92 956.77,302.84 957.64,303.92 958.51,303.92 959.39,303.92 960.25,303.92 961.12,302.84 961.99,303.38 962.86,303.38 963.74,304.46 964.61,303.38 965.47,302.84 966.33,303.92 967.20,303.92 968.07,301.49 968.95,302.84 969.81,303.38 970.71,302.84 971.58,303.92 972.45,303.92 973.33,302.84 974.19,303.92 975.08,301.49 976.01,302.57 976.90,303.38 977.78,303.92 978.66,302.84 979.54,303.92 980.41,300.95 981.27,303.38 982.15,303.38 983.02,302.84 983.89,303.38 984.76,303.38 985.63,302.84 986.50,303.38 987.39,303.92 988.27,292.85 989.14,303.38 990.01,303.92 990.88,302.84 991.75,303.92 992.63,303.92 993.50,303.38 994.37,303.38 995.25,303.38 996.12,303.92 996.99,302.57 997.86,303.38 998.74,303.38 999.61,303.92 1000.49,303.38 1001.37,303.92 1002.24,303.92 1003.10,302.84 1003.98,303.92 1004.86,303.38 1005.72,303.92 1006.58,304.46 1007.46,303.38 1008.33,303.92 1009.20,303.92 1010.08,302.84 1010.94,303.92 1011.81,303.92 1012.69,303.92 1013.56,303.38 1014.42,303.38 1015.30,303.92 1016.17,303.92 1017.05,303.38 1017.93,292.58 1018.78,293.12 1019.63,302.84 1020.49,302.30 1021.37,303.92 1022.24,299.87 1023.12,303.92 1024.00,302.84 1024.86,301.49 1025.75,303.92 1026.63,303.38 1027.49,303.38 1028.36,303.92 1029.22,303.38 1030.10,302.84 1030.95,303.92 1031.82,303.92 1032.69,302.84 1033.57,303.92 1034.43,303.38 1035.30,302.84 1036.16,302.57 1037.04,303.38 1037.91,302.57 1038.78,302.57 1039.64,303.38 1040.51,302.30 1041.35,303.92 1042.24,303.92 1043.11,303.38 1043.98,303.92 1044.86,303.38 1045.74,303.38 1046.60,303.38 1047.47,303.38 1048.35,303.92 1049.22,303.92 1050.09,303.92 1050.96,303.92 1051.89,302.84 1052.76,302.03 1053.64,303.38 1054.51,303.92 1055.40,303.38 1056.25,303.92 1057.12,303.38 1058.00,303.92 1058.87,302.84 1059.74,303.92 1060.60,303.92 1061.47,304.46 1062.35,303.92 1063.23,303.38 1064.10,302.57 1064.97,303.38 1065.84,302.84 1066.71,304.46 1067.58,303.92 1068.46,303.38 1069.33,302.84 1070.21,301.49 1071.10,303.38 1071.98,303.92 1072.85,303.92 1073.72,303.92 1074.60,302.03 1075.47,303.92 1076.35,303.38 1077.21,303.92 1078.08,303.38 1078.95,303.92 1079.82,303.92 1080.69,276.92 1081.57,304.46 1082.44,303.38 1083.31,303.38 1084.18,303.38 1085.04,303.92 1085.91,303.38 1086.78,301.49 1087.66,304.46 1088.52,303.92 1089.39,303.92 1090.26,303.38 1091.12,303.38 1091.99,303.92 1092.85,303.38 1093.72,302.84 1094.59,302.03 1095.45,302.84 1096.32,303.38 1097.19,303.38 1098.05,303.38 1098.92,303.92 1099.78,303.92 1100.66,304.46 1101.53,303.92 1102.39,303.38 1103.25,303.38 1104.12,303.92 1105.00,303.38 1105.86,303.92 1106.73,303.92 1107.61,304.46 1108.51,303.38 1109.38,303.92 1110.25,302.57 1111.13,303.92 1112.00,303.92 1112.87,303.38 1113.75,303.38 1114.62,303.92 1115.49,303.38 1116.36,303.92 1117.22,304.46 1118.09,303.38 1118.96,303.92 1119.83,302.84 1120.70,303.92 1121.57,303.92 1122.43,302.57 1123.30,304.46 1124.17,303.38 1125.04,302.84 1125.92,303.92 1126.83,303.92 1127.69,303.38 1128.56,303.38 1129.42,303.38 1130.28,303.92 1131.16,303.38 1132.03,303.92 1132.90,303.38 1133.77,303.38 1134.64,303.92 1135.52,303.38 1136.39,303.38 1137.26,303.92 1138.13,303.38 1139.00,302.84 1139.87,303.92 1140.74,303.38 1141.61,303.38 1142.48,303.92 1143.34,302.84 1144.20,303.92 1145.08,303.92 1145.94,303.38 1146.81,303.92 1147.68,303.92 1148.55,303.92 1149.42,303.38 1150.29,303.38 1151.16,299.87 1152.03,303.38 1152.90,304.46 1153.76,303.38 1154.63,303.38 1155.51,303.92 1156.37,303.92 1157.25,303.92 1158.12,303.38 1158.98,304.46 1159.84,303.38 1160.71,303.38 1161.59,303.92 1162.45,303.92 1163.34,303.92 1164.21,303.38 1165.08,303.38 1165.95,302.84 1166.82,303.92 1167.69,303.92 1168.58,303.92 1169.46,303.92 1170.38,303.38 1171.25,303.92 1172.19,302.84 1173.06,302.84 1173.92,304.46 1174.78,303.38 1175.65,303.92 1176.52,303.92 1177.39,302.57 1178.26,302.84 1179.13,303.92 1180.00,303.92"/>
<rect x="70" y="332" width="12" height="12" fill="#d62728" fill-opacity="0.95"/>
<text x="88" y="342" font-size="11" fill="#333" font-family="Arial, Helvetica, sans-serif">nsc1.utdallas.edu</text>
<rect x="350" y="332" width="12" height="12" fill="#d62728" fill-opacity="0.80"/>
<text x="368" y="342" font-size="11" fill="#333" font-family="Arial, Helvetica, sans-serif">nsc2.utdallas.edu</text>
<rect x="630" y="332" width="12" height="12" fill="#d62728" fill-opacity="0.65"/>
<text x="648" y="342" font-size="11" fill="#333" font-family="Arial, Helvetica, sans-serif">nsc3.utdallas.edu</text>
<rect x="910" y="332" width="12" height="12" fill="#d62728" fill-opacity="0.50"/>
<text x="928" y="342" font-size="11" fill="#333" font-family="Arial, Helvetica, sans-serif">nsc4.utdallas.edu</text>
</svg>