<?xml version="1.0" encoding="UTF-8"?>
<svg xmlns="http://www.w3.org/2000/svg" width="1200" height="360" viewBox="0 0 1200 360" role="img" aria-label="CPU Utilization (%)">
<rect width="100%" height="100%" fill="#ffffff"/>
<text x="600.0" y="22" text-anchor="middle" font-size="16" font-family="Arial, Helvetica, sans-serif" font-weight="bold">CPU Utilization (%)</text>
<line x1="70" y1="35.00" x2="1180" y2="35.00" stroke="#e3e3e3" stroke-width="1"/>
<text x="62" y="39.00" text-anchor="end" font-size="11" fill="#444" font-family="Arial, Helvetica, sans-serif">100</text>
<line x1="70" y1="89.00" x2="1180" y2="89.00" stroke="#e3e3e3" stroke-width="1"/>
<text x="62" y="93.00" text-anchor="end" font-size="11" fill="#444" font-family="Arial, Helvetica, sans-serif">80</text>
<line x1="70" y1="143.00" x2="1180" y2="143.00" stroke="#e3e3e3" stroke-width="1"/>
<text x="62" y="147.00" text-anchor="end" font-size="11" fill="#444" font-family="Arial, Helvetica, sans-serif">60</text>
<line x1="70" y1="197.00" x2="1180" y2="197.00" stroke="#e3e3e3" stroke-width="1"/>
<text x="62" y="201.00" text-anchor="end" font-size="11" fill="#444" font-family="Arial, Helvetica, sans-serif">40</text>
<line x1="70" y1="251.00" x2="1180" y2="251.00" stroke="#e3e3e3" stroke-width="1"/>
<text x="62" y="255.00" text-anchor="end" font-size="11" fill="#444" font-family="Arial, Helvetica, sans-serif">20</text>
<line x1="70" y1="305.00" x2="1180" y2="305.00" stroke="#e3e3e3" stroke-width="1"/>
<text x="62" y="309.00" text-anchor="end" font-size="11" fill="#444" font-family="Arial, Helvetica, sans-serif">0</text>
<line x1="70" y1="35" x2="70" y2="305" stroke="#999"/>
<line x1="70" y1="305" x2="1180" y2="305" stroke="#999"/>
<text x="70.00" y="323" text-anchor="middle" font-size="10" fill="#444" font-family="Arial, Helvetica, sans-serif">2026-02-11 16:38</text>
<text x="347.50" y="323" text-anchor="middle" font-size="10" fill="#444" font-family="Arial, Helvetica, sans-serif">2026-02-13 01:29</text>
<text x="625.00" y="323" text-anchor="middle" font-size="10" fill="#444" font-family="Arial, Helvetica, sans-serif">2026-02-14 10:21</text>
<text x="902.50" y="323" text-anchor="middle" font-size="10" fill="#444" font-family="Arial, Helvetica, sans-serif">2026-02-15 19:12</text>
<text x="1180.00" y="323" text-anchor="middle" font-size="10" fill="#444" font-family="Arial, Helvetica, sans-serif">2026-02-17 04:04</text>
<polyline fill="none" stroke="#d62728" stroke-opacity="0.95" stroke-width="2" points="70.76,304.46 71.52,298.79 72.27,296.90 73.03,303.92 73.80,304.73 74.55,304.46 75.31,303.92 76.13,304.73 76.88,303.92 77.64,304.46 78.39,303.92 79.16,304.46 79.91,304.46 80.66,303.92 82.03,304.46 83.20,303.92 83.97,304.46 84.74,303.92 85.50,300.95 86.25,304.73 87.00,278.27 87.76,303.92 88.52,304.46 89.28,294.74 90.04,304.46 90.81,303.92 91.57,301.49 92.33,303.92 93.13,295.28 93.89,294.20 94.65,303.65 95.42,304.46 96.18,304.46 96.94,303.92 97.72,303.65 98.47,302.30 99.23,303.92 100.00,304.46 100.75,303.92 101.51,304.73 102.25,304.73 103.01,304.46 103.77,303.38 104.52,304.46 105.30,303.92 106.06,303.38 106.81,304.46 107.57,297.71 108.33,297.44 109.09,48.23 109.95,303.92 110.71,303.92 111.47,304.46 112.22,303.65 112.97,303.65 113.72,304.46 114.47,304.46 115.23,303.92 115.99,304.46 116.76,303.92 117.52,304.46 118.26,304.46 119.03,299.60 119.79,303.65 120.55,303.92 121.31,304.73 122.06,303.92 122.81,304.73 123.56,304.46 124.31,304.46 125.07,304.46 125.82,303.92 126.58,304.73 127.33,303.92 128.09,304.46 128.84,304.73 129.60,303.38 130.35,303.38 131.11,303.65 131.88,304.46 132.64,303.65 133.39,304.73 134.16,304.46 134.91,304.46 135.67,304.73 136.43,303.92 137.17,303.92 137.92,304.46 138.69,304.73 139.45,299.60 140.20,303.65 140.97,304.46 141.71,304.73 142.47,303.65 143.23,303.92 143.98,304.46 144.73,304.46 145.49,303.92 146.24,303.92 147.00,303.92 147.76,304.46 148.52,303.92 149.28,303.92 150.04,298.79 150.81,303.65 151.56,304.46 152.32,304.73 153.07,304.73 153.82,304.46 154.59,304.46 155.35,304.46 156.10,304.46 156.86,302.84 157.62,304.46 158.38,304.46 159.14,304.46 159.91,304.46 160.66,304.46 161.42,304.46 162.18,303.65 162.93,304.73 163.69,303.38 164.45,304.46 165.27,304.46 166.02,304.73 166.79,303.92 167.55,303.92 168.30,304.46 169.05,299.87 169.79,304.46 170.55,304.73 171.30,295.01 172.06,304.46 172.81,303.92 173.57,303.92 174.32,303.92 175.07,304.46 175.85,303.65 176.60,304.46 177.35,304.46 178.11,304.46 178.86,303.92 179.62,303.92 180.38,303.92 181.14,304.73 181.90,304.46 182.65,304.46 183.41,303.92 184.16,304.46 184.91,303.65 185.67,303.92 186.42,303.65 187.18,304.73 187.95,304.46 188.71,304.46 189.46,304.46 190.23,303.11 190.98,303.38 191.73,304.46 192.49,304.46 193.25,304.46 194.02,303.65 194.79,303.92 195.54,304.46 196.30,297.71 197.05,294.20 197.80,303.92 198.56,304.46 199.32,303.65 200.07,297.71 200.82,304.46 201.57,303.92 202.33,304.46 203.09,304.46 203.85,303.92 204.61,303.38 205.38,304.73 206.14,303.92 206.89,303.38 207.65,303.92 208.40,304.46 209.22,304.46 209.99,303.92 210.74,304.73 211.50,304.46 212.24,304.46 213.00,304.73 213.76,304.46 214.52,304.73 215.28,35.00 216.03,303.65 216.78,303.11 217.54,297.17 218.32,304.46 219.07,304.46 219.82,304.46 220.58,303.92 221.34,303.65 222.11,304.46 222.89,303.11 223.64,304.73 224.40,304.46 225.15,303.92 225.91,304.73 226.67,304.46 227.42,303.92 228.19,304.73 228.94,304.46 229.70,304.46 230.46,304.46 231.22,303.92 231.97,303.65 232.73,304.46 233.50,303.65 234.26,304.46 235.01,301.76 235.76,302.03 236.51,304.46 237.27,304.46 238.03,304.46 238.78,35.00 239.53,303.65 240.28,303.92 241.04,304.46 241.80,304.46 242.56,303.65 243.32,304.46 244.08,304.73 244.84,304.46 245.60,304.73 246.36,35.00 247.12,304.73 247.87,303.65 248.63,304.46 249.39,303.65 250.16,304.73 250.92,300.68 251.68,303.65 252.44,303.92 253.19,304.46 253.95,304.46 254.70,304.46 255.45,304.46 256.22,304.73 256.97,304.73 257.73,304.73 258.49,303.65 259.25,303.92 260.01,303.92 260.77,304.73 261.53,35.00 262.29,304.46 263.05,303.92 263.80,304.73 264.56,303.92 265.33,304.73 266.09,303.92 266.84,304.46 267.60,303.92 268.44,304.73 269.20,304.46 269.96,303.65 270.72,304.46 271.48,304.46 272.24,303.92 273.00,304.46 273.76,303.65 274.51,304.73 275.29,295.28 276.06,297.17 276.81,304.46 277.56,304.46 278.32,304.46 279.08,304.73 279.84,304.46 280.62,303.65 281.38,304.46 282.14,303.92 282.90,304.73 283.72,304.73 284.48,304.73 285.43,303.65 286.71,304.46 287.48,303.92 288.26,303.92 289.01,304.73 289.75,304.46 290.51,303.92 291.28,303.65 292.04,304.46 292.80,304.73 293.59,303.92 294.37,35.00 295.17,303.65 295.93,304.46 296.69,304.73 297.45,303.92 298.22,303.92 298.98,303.65 299.75,304.46 300.50,303.92 301.26,304.46 302.04,304.46 302.81,304.46 303.55,304.46 304.31,304.46 305.08,303.92 305.87,304.46 306.63,303.92 307.39,303.92 308.17,303.65 308.89,303.92 309.65,303.65 310.42,303.92 311.17,303.92 311.94,303.92 312.72,303.11 313.48,303.92 314.24,303.92 315.00,304.46 315.77,304.46 316.53,303.65 317.28,304.73 318.03,299.06 318.79,304.73 319.55,304.46 320.31,48.23 321.21,48.50 322.10,48.77 323.00,48.50 323.88,48.23 324.74,48.50 325.61,48.50 326.51,48.77 327.39,304.46 328.15,304.46 328.90,304.46 329.66,303.92 330.41,304.46 331.17,304.46 331.92,303.92 332.67,304.19 333.43,303.65 334.18,304.73 334.94,303.92 335.69,303.92 336.45,304.46 337.20,304.73 337.95,304.73 338.71,304.46 339.46,304.46 340.22,304.46 340.97,303.92 341.73,304.46 342.49,304.73 343.24,303.65 343.99,304.46 344.74,35.00 345.50,304.46 346.25,304.46 347.01,304.73 347.77,304.46 348.52,304.73 349.28,35.00 350.03,304.46 350.79,304.46 351.54,304.73 352.29,303.92 353.05,303.92 353.80,303.92 354.54,303.38 355.30,304.73 356.05,303.65 356.80,304.46 357.55,303.92 358.31,304.46 359.06,304.73 359.81,303.92 360.56,303.38 361.30,304.73 362.08,303.65 362.90,304.73 363.66,304.73 364.42,304.46 365.17,303.92 365.92,303.65 366.67,297.44 367.42,297.71 368.17,48.50 369.07,48.50 369.95,48.50 370.83,48.23 371.72,48.50 372.61,48.23 373.49,48.50 374.40,48.77 375.31,295.82 376.14,297.17 376.95,304.73 377.71,303.92 378.47,303.92 379.23,304.73 379.98,303.92 380.73,304.46 381.49,304.46 382.24,304.46 383.00,304.46 383.75,304.46 384.51,304.73 385.26,303.11 386.02,304.73 386.78,303.92 387.54,304.46 388.29,304.73 388.95,304.46 389.73,303.92 390.49,304.73 391.26,304.73 392.02,304.73 392.77,303.92 393.53,35.00 394.30,304.73 395.06,304.73 395.82,304.46 396.58,304.73 397.35,303.65 398.10,304.46 398.85,304.73 399.61,304.73 400.36,304.73 401.11,35.00 401.86,303.92 402.63,303.92 403.38,303.92 404.14,303.65 404.89,304.46 405.64,304.46 406.40,303.92 407.16,304.46 407.92,304.46 408.68,304.73 409.44,303.92 410.19,301.22 410.96,304.46 411.71,304.46 412.49,304.46 413.24,303.65 414.00,304.46 414.75,304.73 415.50,304.46 416.25,300.68 417.02,303.92 417.77,304.73 418.52,304.46 419.28,304.73 420.03,303.38 420.78,303.92 421.54,304.73 422.31,304.73 423.06,303.92 423.97,303.92 424.75,303.92 425.53,303.65 426.29,304.46 427.05,302.84 427.81,304.46 428.56,304.46 429.32,303.92 430.08,303.92 430.84,303.11 431.60,304.73 432.36,304.46 433.12,304.46 433.87,304.46 434.65,304.73 435.42,304.73 436.18,304.46 436.94,304.73 437.70,304.73 438.45,302.57 439.21,302.84 439.96,301.22 440.75,303.92 441.51,304.46 442.27,304.46 443.03,304.46 443.78,303.92 444.55,304.73 445.30,304.46 446.06,304.46 446.82,303.92 447.58,304.46 448.34,304.46 449.10,304.46 449.85,297.44 450.61,303.92 451.36,304.46 452.13,304.46 452.89,300.68 453.64,303.92 454.40,289.07 455.15,303.65 455.92,302.03 456.68,302.84 457.59,302.84 458.37,304.46 459.13,304.46 459.89,303.92 460.64,304.73 461.40,303.92 462.16,303.92 462.92,303.65 463.69,304.46 464.44,303.92 465.20,304.73 465.95,304.46 466.71,304.46 467.47,303.92 468.22,304.73 468.98,304.46 469.74,304.73 470.49,304.46 471.24,304.73 472.00,304.73 472.77,303.92 473.52,304.46 474.27,304.73 475.04,304.46 475.80,304.46 476.56,304.73 477.31,304.46 478.07,303.38 478.85,303.92 479.60,304.73 480.36,304.73 481.12,303.92 481.88,303.92 482.64,304.46 483.40,303.92 484.16,303.92 484.93,304.73 485.69,303.92 486.44,304.46 487.19,303.92 487.95,304.46 488.70,304.73 489.46,303.92 490.22,304.73 490.98,304.46 491.75,304.73 492.51,298.79 493.25,303.92 494.02,303.92 494.77,304.46 495.53,304.46 496.28,303.65 497.04,303.65 497.80,304.73 498.56,303.92 499.32,303.92 500.08,235.88 500.84,236.69 501.61,236.69 502.37,236.69 503.12,236.15 503.89,232.10 504.74,227.51 505.57,228.59 506.38,222.65 507.15,236.42 507.94,236.15 508.70,235.61 509.46,236.69 510.21,236.69 510.91,236.15 511.70,235.61 512.46,236.15 513.23,236.42 513.97,233.18 514.73,236.69 515.49,236.42 516.25,236.15 517.01,235.61 517.77,235.88 518.52,236.42 519.28,236.42 520.04,236.96 520.80,236.42 521.57,235.61 522.33,236.69 523.09,236.15 523.85,236.42 524.61,242.63 525.38,255.86 526.14,236.69 526.90,235.88 527.65,236.15 528.41,236.42 529.17,235.88 529.92,236.15 530.68,236.96 531.44,236.15 532.21,236.69 532.96,236.96 533.71,236.15 534.47,236.96 535.23,236.15 536.00,236.42 536.76,234.53 537.51,236.15 538.27,236.69 539.03,236.69 539.79,235.34 540.56,236.15 541.32,236.15 542.08,235.61 542.84,236.69 543.60,236.96 544.36,235.61 545.13,232.91 545.91,234.26 546.67,236.42 547.43,236.42 548.19,236.15 548.94,236.96 549.70,236.15 550.46,236.69 551.22,236.96 551.99,234.53 552.74,236.42 553.50,236.69 554.27,236.42 555.02,236.15 555.79,236.42 556.55,235.88 557.32,236.15 558.08,236.96 558.84,235.61 559.61,235.88 560.37,235.88 561.12,236.42 561.88,236.42 562.64,236.69 563.42,236.69 564.18,236.42 564.95,235.61 565.71,236.15 566.46,236.15 567.22,235.34 567.98,236.69 568.74,235.61 569.50,236.69 570.26,235.88 571.02,236.69 571.78,232.91 572.54,235.88 573.30,236.42 574.06,235.88 574.82,235.61 575.59,236.69 576.35,235.88 577.11,236.42 577.87,236.42 578.63,236.69 579.38,236.15 580.13,235.88 580.89,236.42 581.66,235.61 582.42,201.32 583.18,236.69 583.95,236.15 584.70,236.42 585.47,236.42 586.24,235.61 586.99,230.48 587.75,235.34 588.52,283.40 589.28,236.69 590.04,230.75 590.80,236.69 591.57,224.00 592.34,236.42 593.10,236.15 593.87,235.61 594.64,235.88 595.40,236.15 596.16,236.96 596.92,230.48 597.68,235.88 598.45,236.15 599.21,235.61 599.98,243.17 600.74,296.63 601.49,236.15 602.25,235.61 603.03,236.69 603.78,229.94 604.55,229.94 605.31,236.15 606.06,236.42 606.82,236.69 607.57,235.61 608.33,236.69 609.09,236.69 609.85,236.42 610.62,236.15 611.37,236.69 612.13,236.69 612.89,236.42 613.67,231.29 614.44,236.69 615.19,236.15 615.95,236.42 616.71,235.88 617.47,235.61 618.23,235.61 618.99,236.42 619.75,236.96 620.51,236.69 621.28,236.69 622.04,235.61 622.79,235.88 623.56,235.88 624.32,236.69 625.11,236.69 625.87,235.61 626.64,236.15 627.40,283.13 628.16,236.42 628.93,236.69 629.68,235.88 630.44,236.15 631.20,235.07 631.96,236.42 632.72,236.69 633.49,236.15 634.25,237.23 635.02,236.15 635.81,236.15 636.57,236.15 637.33,236.69 638.09,236.69 638.85,236.42 639.62,236.69 640.38,236.69 641.15,235.61 641.92,236.42 642.68,235.34 643.44,236.96 644.21,235.61 644.97,236.69 645.73,236.69 646.49,236.15 647.26,236.42 648.01,236.42 648.78,296.90 649.55,236.15 650.31,235.61 651.07,236.42 651.83,236.42 652.60,236.69 653.36,236.69 654.12,236.69 654.89,236.69 655.67,235.34 656.44,235.88 657.21,233.45 657.97,236.15 658.74,236.15 659.52,235.07 660.30,234.26 661.07,234.26 661.86,235.88 662.62,290.15 663.38,236.69 664.14,236.42 664.91,236.15 665.67,236.42 666.44,235.34 667.22,236.69 667.97,236.15 668.74,236.69 669.50,235.88 670.26,236.15 671.02,236.69 671.78,236.42 672.54,236.96 673.30,231.83 674.06,236.42 674.81,236.42 675.57,236.42 676.33,236.42 677.09,236.15 677.85,236.69 678.62,236.42 679.37,232.64 680.14,235.88 680.91,237.23 681.66,236.42 682.43,235.88 683.19,236.42 683.95,283.94 684.71,236.15 685.47,236.42 686.23,236.42 687.00,236.42 687.75,290.42 688.50,236.42 689.26,236.69 690.02,236.42 690.78,236.15 691.54,236.69 692.30,235.88 693.06,234.53 693.82,235.34 694.58,236.69 695.35,236.42 696.11,236.15 696.85,236.42 697.61,235.61 698.35,236.69 699.11,236.42 699.88,235.34 700.65,235.88 701.41,236.15 702.17,235.61 702.93,236.69 703.71,236.15 704.47,235.61 705.23,236.15 706.00,235.07 706.76,236.15 707.51,235.61 708.28,236.69 709.04,236.15 709.82,235.61 710.58,290.15 711.34,236.42 712.10,236.69 712.86,236.15 713.61,235.61 714.37,236.42 715.13,236.69 715.88,235.88 716.64,235.88 717.40,235.88 718.17,236.69 718.92,236.15 719.68,236.15 720.44,236.42 721.20,235.34 721.97,235.88 722.73,236.15 723.49,236.15 724.25,235.61 725.01,236.42 725.78,236.96 726.53,235.34 727.29,236.42 728.06,236.15 728.82,236.15 729.57,235.88 730.34,236.42 731.11,233.18 731.86,236.69 732.62,235.88 733.38,236.15 734.17,236.69 734.93,236.15 735.70,235.88 736.47,232.91 737.23,236.15 738.00,283.67 738.76,236.42 739.52,235.88 740.29,234.80 741.04,235.34 741.81,236.15 742.59,234.53 743.35,236.69 744.11,236.42 744.87,236.69 745.63,236.96 746.40,235.88 747.16,236.42 747.91,236.69 748.67,235.61 749.44,236.42 750.20,236.42 750.96,236.69 751.71,236.15 752.48,236.42 753.23,236.15 753.99,235.61 754.75,236.15 755.51,235.07 756.26,236.15 757.04,236.69 757.80,231.83 758.55,235.61 759.31,285.02 760.08,236.69 760.83,236.15 761.60,236.69 762.35,231.29 763.13,283.13 763.89,236.42 764.64,234.53 765.40,235.88 766.16,236.69 766.92,236.42 767.68,229.40 768.45,236.69 769.23,235.34 770.00,235.88 770.78,236.15 771.55,235.61 772.33,236.15 773.11,236.69 773.89,236.69 774.68,236.15 775.45,229.94 776.23,236.42 776.99,236.42 777.75,235.34 778.51,230.75 779.28,236.15 780.04,236.15 780.81,236.69 781.57,236.96 782.34,235.88 783.10,235.34 783.86,236.15 784.62,235.88 785.37,235.61 786.14,236.69 786.89,235.07 787.65,231.83 788.42,236.69 789.18,235.88 789.94,236.15 790.71,236.42 791.47,236.42 792.23,232.91 792.99,236.69 793.75,235.88 794.51,236.15 795.28,231.02 796.04,290.69 796.80,236.69 797.56,232.64 798.32,243.71 799.08,236.69 799.84,236.69 800.61,235.88 801.36,236.15 802.13,235.88 802.94,235.61 803.73,234.53 804.48,236.15 805.25,235.61 806.00,262.88 806.78,230.21 807.55,236.69 808.31,230.21 809.07,236.42 809.83,235.61 810.57,236.69 811.34,236.15 812.09,236.42 812.86,236.69 813.62,233.18 814.38,236.15 815.15,236.69 815.91,236.15 816.68,236.69 817.43,236.69 818.19,236.42 818.95,235.61 819.72,236.15 820.48,236.15 821.24,236.15 822.00,235.07 822.76,236.42 823.52,231.56 824.29,236.69 825.08,235.61 825.84,236.69 826.60,235.61 827.36,235.61 828.12,235.34 828.89,236.42 829.65,236.42 830.42,236.42 831.17,296.90 831.94,236.42 832.70,236.69 833.48,249.38 834.24,236.15 835.01,236.15 835.77,235.88 836.53,236.42 837.29,236.15 838.05,232.91 838.81,235.88 839.57,236.69 840.34,235.34 841.10,236.42 841.86,236.42 842.62,235.61 843.38,236.15 844.14,236.15 844.90,236.69 845.66,236.69 846.42,236.15 847.18,235.88 847.95,236.96 848.70,235.88 849.47,236.96 850.23,236.42 850.99,235.34 851.75,236.15 852.52,232.10 853.27,236.69 854.03,236.15 854.78,297.17 855.54,236.42 856.31,236.42 857.07,236.42 857.85,236.42 858.61,230.75 859.38,236.15 860.14,236.69 860.90,235.88 861.67,236.42 862.49,236.15 863.27,231.83 864.04,235.07 864.81,234.80 865.58,235.88 866.34,270.17 867.09,236.15 867.86,236.42 868.62,243.17 869.38,236.69 870.15,235.34 870.91,236.69 871.67,236.69 872.45,236.96 873.21,236.69 873.98,236.69 874.74,235.88 875.50,236.15 876.26,236.69 877.03,236.15 877.78,234.80 878.55,236.69 879.32,236.15 880.08,236.42 880.84,236.42 881.61,235.34 882.37,236.69 883.14,236.69 883.91,236.69 884.67,236.69 885.44,236.15 886.19,235.88 886.96,236.69 887.72,236.69 888.48,236.15 889.23,236.69 890.00,291.23 890.76,235.61 891.52,236.69 892.29,236.15 893.04,236.15 893.80,235.61 894.57,235.34 895.34,236.15 896.09,236.42 896.86,236.69 897.62,236.42 898.39,235.61 899.16,236.69 899.90,236.69 900.64,236.42 901.40,236.15 902.17,236.15 902.93,236.42 903.69,236.42 904.47,236.42 905.22,236.69 906.00,235.88 906.76,235.61 907.52,236.69 908.28,236.42 909.04,236.15 909.80,236.42 910.55,234.26 911.31,235.88 912.07,233.99 912.84,235.88 913.59,235.88 914.35,235.07 915.11,236.42 915.87,236.15 916.63,236.42 917.40,236.42 918.15,236.42 918.91,289.61 919.64,236.69 920.42,235.61 921.18,235.88 921.94,236.69 922.71,236.15 923.48,236.69 924.24,236.69 925.00,236.69 925.76,236.42 926.53,236.69 927.29,236.69 928.05,236.15 928.87,236.15 929.62,236.15 930.40,236.15 931.16,236.42 931.93,236.69 932.68,236.15 933.44,236.15 934.21,235.61 934.97,236.42 935.73,236.69 936.49,236.42 937.25,236.42 938.01,236.42 938.78,236.15 939.54,236.42 940.30,236.96 941.06,236.69 941.83,236.42 942.59,236.42 943.36,235.61 944.12,230.21 944.89,235.07 945.67,236.69 946.43,236.69 947.19,236.69 947.96,236.69 948.73,236.69 949.49,236.69 950.26,235.61 951.01,236.42 951.77,235.88 952.53,304.46 953.29,303.11 954.06,304.46 954.82,304.46 955.58,304.46 956.35,304.46 957.11,303.65 957.86,304.46 958.62,304.46 959.38,304.46 960.15,299.60 960.90,303.92 961.67,304.46 962.43,304.73 963.18,303.92 963.94,304.46 964.69,304.46 965.45,304.46 966.21,304.46 966.97,304.46 967.73,304.46 968.49,304.73 969.24,304.46 970.00,303.92 970.75,302.84 971.52,304.73 972.28,304.46 973.03,304.46 973.79,303.92 974.55,304.46 975.32,304.46 976.08,304.46 976.83,304.46 977.60,304.46 978.39,301.22 979.15,304.73 979.91,303.92 980.68,304.73 981.44,303.92 982.21,304.46 982.97,304.46 983.73,304.73 984.49,304.73 985.25,304.46 986.01,304.46 986.76,304.73 987.53,304.46 988.29,303.65 989.05,304.46 989.81,304.46 990.56,304.46 991.33,304.73 992.08,304.46 992.85,304.73 993.62,304.73 994.41,304.46 995.17,301.49 995.93,304.46 996.68,304.46 997.43,303.92 998.21,304.46 998.96,297.44 999.72,304.46 1000.49,304.73 1001.25,304.73 1002.01,304.73 1002.77,303.38 1003.54,304.46 1004.30,304.46 1005.06,303.11 1005.82,304.73 1006.58,303.65 1007.34,304.46 1008.10,301.76 1008.85,304.46 1009.61,297.44 1010.37,304.46 1011.13,304.46 1011.89,302.84 1012.65,304.73 1013.41,304.46 1014.17,304.46 1014.93,303.11 1015.70,304.46 1016.46,304.46 1017.21,303.92 1017.97,303.92 1018.73,304.46 1019.50,303.92 1020.26,303.92 1021.02,303.92 1021.78,304.46 1022.54,303.92 1023.29,303.92 1024.05,304.46 1024.82,303.38 1025.57,304.46 1026.35,304.73 1027.11,304.46 1027.87,304.46 1028.63,304.73 1029.39,304.73 1030.16,35.00 1030.93,303.92 1031.70,304.73 1032.51,300.95 1033.27,298.25 1034.09,303.92 1034.85,304.73 1035.60,304.46 1036.36,304.73 1037.12,304.46 1037.88,304.46 1038.64,304.46 1039.40,304.46 1040.16,297.17 1040.92,304.46 1041.68,303.92 1042.44,303.65 1043.20,304.46 1043.96,304.46 1044.72,303.65 1045.48,304.46 1046.23,304.19 1046.99,304.46 1047.76,304.73 1048.52,304.46 1049.28,304.46 1050.04,299.06 1050.79,303.38 1051.55,303.92 1052.31,304.46 1053.08,304.19 1053.84,303.65 1054.60,303.65 1055.37,303.65 1056.13,303.92 1056.88,303.65 1057.64,304.46 1058.40,303.65 1059.16,303.65 1059.91,304.73 1060.67,304.46 1061.42,304.73 1062.18,303.92 1062.94,304.46 1063.70,304.46 1064.46,303.92 1065.23,304.46 1066.01,304.46 1066.78,302.30 1067.54,302.03 1068.29,304.46 1069.05,297.17 1069.80,303.92 1070.56,304.46 1071.32,303.92 1072.08,303.65 1072.83,303.65 1073.59,303.92 1074.34,303.92 1075.10,303.65 1075.86,303.92 1076.62,303.92 1077.37,303.92 1078.13,304.73 1078.90,303.92 1079.65,304.46 1080.41,304.73 1081.18,301.76 1081.94,304.46 1082.70,303.92 1083.46,304.46 1084.22,304.46 1084.98,304.46 1085.75,303.92 1086.50,304.46 1087.28,303.92 1088.03,304.46 1088.79,304.46 1089.55,303.92 1090.31,304.46 1091.07,304.46 1091.85,301.76 1092.61,304.46 1093.38,303.92 1094.15,304.46 1094.90,303.65 1095.66,303.38 1096.42,304.46 1097.18,304.46 1097.95,303.92 1098.71,303.65 1099.46,304.73 1100.23,304.73 1100.99,304.73 1101.76,303.92 1102.52,304.73 1103.30,304.73 1104.08,302.84 1104.88,303.92 1105.65,304.46 1106.41,304.46 1107.17,303.11 1107.92,303.65 1108.69,303.65 1109.45,304.46 1110.21,304.73 1110.97,304.46 1111.74,303.65 1112.50,303.92 1113.26,303.92 1114.01,304.73 1114.77,300.68 1115.53,304.73 1116.30,303.92 1117.08,304.46 1117.86,304.46 1118.62,304.46 1119.39,304.46 1120.19,304.46 1120.95,304.46 1121.76,303.92 1122.52,304.46 1123.28,304.46 1124.05,304.46 1124.81,304.46 1125.57,304.46 1126.33,304.46 1127.08,304.73 1127.85,304.73 1128.60,303.92 1129.37,303.38 1130.14,303.38 1130.90,304.46 1131.67,304.73 1132.44,303.92 1133.33,303.92 1134.09,304.46 1134.85,304.73 1135.60,304.73 1136.36,304.73 1137.11,303.92 1137.86,304.46 1138.57,304.46 1139.25,304.46 1140.07,296.90 1140.79,304.46 1141.48,304.46 1142.26,303.65 1142.92,304.46 1143.67,304.46 1144.44,304.46 1145.20,304.46 1145.95,303.92 1146.71,304.73 1147.47,304.46 1148.22,303.92 1148.98,302.84 1149.74,304.73 1150.50,300.95 1151.25,303.65 1152.01,303.92 1152.78,304.73 1153.53,304.46 1154.29,303.92 1155.04,303.38 1155.80,304.46 1156.55,303.92 1157.30,303.65 1158.06,304.73 1158.82,303.92 1159.58,303.92 1160.35,304.46 1161.10,304.73 1161.85,304.46 1162.61,304.46 1163.37,304.46 1164.12,303.65 1164.88,304.46 1165.63,303.92 1166.39,304.73 1167.14,303.92 1167.90,304.73 1168.66,303.92 1169.41,304.46 1170.17,304.46 1170.93,304.46 1171.69,303.92 1172.45,304.46 1173.20,304.46 1173.96,304.46 1174.72,304.73 1175.48,304.46 1176.24,302.57 1176.98,304.46 1177.74,303.11 1178.49,303.92 1179.25,304.73 1180.00,297.44"/>
<polyline fill="none" stroke="#d62728" stroke-opacity="0.80" stroke-width="2" points="70.00,303.38 70.76,304.19 71.52,302.57 72.27,303.38 73.03,304.19 73.80,287.72 74.55,303.38 75.31,304.19 76.13,304.19 76.88,303.38 77.64,303.38 78.39,304.19 79.16,304.19 79.91,304.19 80.66,304.19 82.03,304.19 83.20,302.57 83.97,304.19 84.74,304.19 85.50,304.19 86.25,303.38 87.00,303.38 87.76,304.19 88.52,302.57 89.28,302.57 90.04,303.38 90.81,303.38 91.57,304.19 92.33,303.38 93.13,35.00 93.89,303.38 94.65,35.00 95.42,35.00 96.18,303.38 96.94,304.19 97.72,35.00 98.47,303.38 99.23,302.57 100.00,304.19 100.75,303.38 101.51,303.38 102.25,302.57 103.01,304.19 103.77,303.38 104.52,303.38 105.30,302.57 106.06,303.38 106.81,35.00 107.57,303.38 108.33,304.19 109.09,304.19 109.95,302.57 110.71,35.00 111.47,304.19 112.22,303.38 112.97,304.19 113.72,303.38 114.47,303.38 115.23,304.19 115.99,35.00 116.76,304.19 117.52,304.19 118.26,304.19 119.03,303.38 119.79,304.19 120.55,302.57 121.31,304.19 122.06,302.57 122.81,302.57 123.56,303.38 124.31,288.80 125.07,302.57 125.82,304.19 126.58,304.19 127.33,303.38 128.09,304.19 128.84,300.14 129.60,304.19 130.35,304.19 131.11,304.19 131.88,35.00 132.64,35.00 133.39,302.57 134.16,35.00 134.91,35.00 135.67,303.38 136.43,304.19 137.17,35.00 137.92,304.19 138.69,304.19 139.45,304.19 140.20,304.19 140.97,303.38 141.71,303.38 142.47,304.19 143.23,304.19 143.98,303.38 144.73,286.91 145.49,303.38 146.24,304.19 147.00,304.19 147.76,304.19 148.52,303.38 149.28,304.19 150.04,304.19 150.81,303.38 151.56,302.57 152.32,302.57 153.07,304.19 153.82,302.57 154.59,304.19 155.35,304.19 156.10,304.19 156.86,35.00 157.62,304.19 158.38,304.19 159.14,302.57 159.91,35.00 160.66,35.00 161.42,303.38 162.18,304.19 162.93,303.38 163.69,304.19 164.45,304.19 165.27,302.57 166.02,304.19 166.79,35.00 167.55,35.00 168.30,302.57 169.05,304.19 169.79,304.19 170.55,303.38 171.30,35.00 172.06,303.38 172.81,35.00 173.57,304.19 174.32,304.19 175.07,304.19 175.85,303.38 176.60,303.38 177.35,304.19 178.11,304.19 178.86,295.28 179.62,35.00 180.38,303.38 181.14,35.00 181.90,35.00 182.65,302.57 183.41,304.19 184.16,299.33 184.91,304.19 185.67,304.19 186.42,304.19 187.18,303.38 187.95,303.38 188.71,303.38 189.46,302.57 190.23,303.38 190.98,304.19 191.73,303.38 192.49,304.19 193.25,303.38 194.02,304.19 194.79,303.38 195.54,303.38 196.30,302.57 197.05,303.38 197.80,304.19 198.56,303.38 199.32,35.00 200.07,304.19 200.82,303.38 201.57,302.57 202.33,304.19 203.09,304.19 203.85,303.38 204.61,303.38 205.38,304.19 206.14,35.00 206.89,303.38 207.65,35.00 208.40,302.57 209.22,303.38 209.99,304.19 210.74,35.00 211.50,303.38 212.24,35.00 213.00,304.19 213.76,304.19 214.52,35.00 215.28,304.19 216.03,302.57 216.78,302.57 217.54,303.38 218.32,35.00 219.07,302.57 219.82,304.19 220.58,301.76 221.34,303.38 222.11,303.38 222.89,304.19 223.64,303.38 224.40,303.38 225.15,304.19 225.91,304.19 226.67,303.38 227.42,304.19 228.19,304.19 228.94,303.38 229.70,35.00 230.46,304.19 231.22,303.38 231.97,304.19 232.73,304.19 233.50,304.19 234.26,35.00 235.01,35.00 235.76,302.57 236.51,302.57 237.27,304.19 238.03,303.38 238.78,302.57 239.53,302.57 240.28,35.00 241.04,304.19 241.80,35.00 242.56,303.38 243.32,35.00 244.08,303.38 244.84,303.38 245.60,303.38 246.36,35.00 247.12,304.19 247.87,302.57 248.63,303.38 249.39,304.19 250.16,303.38 250.92,35.00 251.68,303.38 252.44,304.19 253.19,303.38 253.95,304.19 254.70,35.00 255.45,302.57 256.22,304.19 256.97,304.19 257.73,303.38 258.49,303.38 259.25,304.19 260.01,303.38 260.77,304.19 261.53,304.19 262.29,304.19 263.05,303.38 263.80,302.57 264.56,304.19 265.33,35.00 266.09,295.28 266.84,303.38 267.60,302.57 268.44,303.38 269.20,301.76 269.96,35.00 270.72,304.19 271.48,303.38 272.24,304.19 273.00,304.19 273.76,299.33 274.51,304.19 275.29,303.38 276.06,302.57 276.81,303.38 277.56,302.57 278.32,304.19 279.08,304.19 279.84,304.19 280.62,302.57 281.38,303.38 282.14,303.38 282.90,35.00 283.72,303.38 284.48,303.38 285.43,304.19 286.71,302.57 287.48,303.38 288.26,303.38 289.01,303.38 289.75,304.19 290.51,303.38 291.28,304.19 292.04,304.19 292.80,303.38 293.59,304.19 294.37,304.19 295.17,304.19 295.93,304.19 296.69,302.57 297.45,35.00 298.22,304.19 298.98,302.57 299.75,303.38 300.50,303.38 301.26,303.38 302.04,304.19 302.81,304.19 303.55,303.38 304.31,304.19 305.08,303.38 305.87,304.19 306.63,303.38 307.39,304.19 308.17,287.18 308.89,288.53 309.65,301.76 310.42,302.57 311.17,303.38 311.94,35.00 312.72,35.00 313.48,303.38 314.24,303.38 315.00,304.19 315.77,304.19 316.53,35.00 317.28,304.19 318.03,35.00 318.79,303.38 319.55,303.38 320.31,302.57 321.21,303.38 322.10,303.38 323.00,300.95 323.88,303.38 324.74,302.57 325.61,304.19 326.51,304.19 327.39,35.00 328.15,303.38 328.90,303.38 329.66,304.19 330.41,304.19 331.17,302.57 331.92,303.38 332.67,304.19 333.43,303.38 334.18,303.38 334.94,304.19 335.69,303.38 336.45,304.19 337.20,303.38 337.95,303.38 338.71,304.19 339.46,303.38 340.22,35.00 340.97,304.19 341.73,304.19 342.49,303.38 343.24,304.19 343.99,304.19 344.74,35.00 345.50,303.38 346.25,304.19 347.01,304.19 347.77,304.19 348.52,302.57 349.28,35.00 350.03,303.38 350.79,287.72 351.54,304.19 352.29,304.19 353.05,303.38 353.80,301.76 354.54,303.38 355.30,304.19 356.05,302.57 356.80,303.38 357.55,303.38 358.31,303.38 359.06,303.38 359.81,304.19 360.56,303.38 361.30,302.57 362.08,304.19 362.90,303.38 363.66,303.38 364.42,303.38 365.17,303.38 365.92,304.19 366.67,304.19 367.42,304.19 368.17,304.19 369.07,303.38 369.95,303.38 370.83,304.19 371.72,302.57 372.61,304.19 373.49,303.38 374.40,302.57 375.31,304.19 376.14,303.38 376.95,303.38 377.71,303.38 378.47,302.57 379.23,35.00 379.98,35.00 380.73,304.19 381.49,303.38 382.24,35.00 383.00,35.00 383.75,303.38 384.51,304.19 385.26,304.19 386.02,304.19 386.78,303.38 387.54,304.19 388.29,304.19 388.95,304.19 389.73,304.19 390.49,287.72 391.26,303.38 392.02,302.57 392.77,303.38 393.53,303.38 394.30,304.19 395.06,304.19 395.82,303.38 396.58,302.57 397.35,304.19 398.10,303.38 398.85,302.57 399.61,304.19 400.36,301.76 401.11,304.19 401.86,304.19 402.63,303.38 403.38,303.38 404.14,304.19 404.89,303.38 405.64,301.76 406.40,304.19 407.16,304.19 407.92,304.19 408.68,35.00 409.44,303.38 410.19,304.19 410.96,304.19 411.71,304.19 412.49,304.19 413.24,35.00 414.00,35.00 414.75,302.57 415.50,304.19 416.25,35.00 417.02,304.19 417.77,303.38 418.52,302.57 419.28,302.57 420.03,304.19 420.78,303.38 421.54,304.19 422.31,303.38 423.06,301.76 423.97,304.19 424.75,304.19 425.53,304.19 426.29,302.57 427.05,304.19 427.81,304.19 428.56,304.19 429.32,303.38 430.08,304.19 430.84,303.38 431.60,35.00 432.36,302.57 433.12,304.19 433.87,302.57 434.65,304.19 435.42,303.38 436.18,304.19 436.94,303.38 437.70,35.00 438.45,302.57 439.21,303.38 439.96,304.19 440.75,304.19 441.51,304.19 442.27,304.19 443.03,303.38 443.78,304.19 444.55,304.19 445.30,304.19 446.06,304.19 446.82,304.19 447.58,304.19 448.34,302.57 449.10,304.19 449.85,303.38 450.61,304.19 451.36,304.19 452.13,304.19 452.89,304.19 453.64,35.00 454.40,304.19 455.15,301.76 455.92,217.79 456.68,304.19 457.59,35.00 458.37,303.38 459.13,302.57 459.89,304.19 460.64,303.38 461.40,304.19 462.16,303.38 462.92,304.19 463.69,304.19 464.44,303.38 465.20,35.00 465.95,35.00 466.71,304.19 467.47,302.57 468.22,304.19 468.98,304.19 469.74,304.19 470.49,303.38 471.24,304.19 472.00,302.57 472.77,304.19 473.52,35.00 474.27,35.00 475.04,303.38 475.80,304.19 476.56,303.38 477.31,300.95 478.07,304.19 478.85,304.19 479.60,304.19 480.36,303.38 481.12,303.38 481.88,302.57 482.64,35.00 483.40,303.38 484.16,35.00 484.93,35.00 485.69,303.38 486.44,304.19 487.19,302.57 487.95,304.19 488.70,304.19 489.46,303.38 490.22,303.38 490.98,296.09 491.75,304.19 492.51,304.19 493.25,304.19 494.02,302.57 494.77,35.00 495.53,303.38 496.28,304.19 497.04,302.57 497.80,302.57 498.56,303.38 499.32,35.00 500.08,303.38 500.84,303.38 501.61,304.19 502.37,304.19 503.12,303.38 503.89,304.19 504.74,303.38 505.57,303.38 506.38,302.57 507.15,304.19 507.94,303.38 508.70,303.38 509.46,304.19 510.21,35.00 510.91,303.38 511.70,287.18 512.46,304.19 513.23,286.37 513.97,302.57 514.73,304.19 515.49,304.19 516.25,304.19 517.01,304.19 517.77,304.19 518.52,35.00 519.28,303.38 520.04,304.19 520.80,35.00 521.57,304.19 522.33,304.19 523.09,303.38 523.85,304.19 524.61,304.19 525.38,303.38 526.14,303.38 526.90,304.19 527.65,304.19 528.41,304.19 529.17,304.19 529.92,302.57 530.68,35.00 531.44,35.00 532.21,304.19 532.96,303.38 533.71,304.19 534.47,304.19 535.23,304.19 536.00,304.19 536.76,304.19 537.51,301.76 538.27,303.38 539.03,302.57 539.79,304.19 540.56,35.00 541.32,304.19 542.08,304.19 542.84,303.38 543.60,35.00 544.36,304.19 545.13,304.19 545.91,304.19 546.67,35.00 547.43,304.19 548.19,304.19 548.94,303.38 549.70,303.38 550.46,35.00 551.22,35.00 551.99,303.38 552.74,304.19 553.50,302.57 554.27,302.57 555.02,304.19 555.79,295.28 556.55,303.38 557.32,304.19 558.08,304.19 558.84,303.38 559.61,35.00 560.37,304.19 561.12,302.57 561.88,35.00 562.64,302.57 563.42,303.38 564.18,304.19 564.95,303.38 565.71,304.19 566.46,35.00 567.22,35.00 567.98,302.57 568.74,303.38 569.50,295.28 570.26,304.19 571.02,304.19 571.78,303.38 572.54,303.38 573.30,304.19 574.06,304.19 574.82,35.00 575.59,303.38 576.35,303.38 577.11,304.19 577.87,35.00 578.63,304.19 579.38,303.38 580.13,35.00 580.89,304.19 581.66,303.38 582.42,302.57 583.18,304.19 583.95,302.57 584.70,304.19 585.47,303.38 586.24,304.19 586.99,304.19 587.75,304.19 588.52,304.19 589.28,304.19 590.04,304.19 590.80,303.38 591.57,303.38 592.34,304.19 593.10,304.19 593.87,304.19 594.64,304.19 595.40,303.38 596.16,304.19 596.92,304.19 597.68,303.38 598.45,303.38 599.21,35.00 599.98,303.38 600.74,303.38 601.49,304.19 602.25,35.00 603.03,302.57 603.78,304.19 604.55,287.18 605.31,304.19 606.06,35.00 606.82,35.00 607.57,304.19 608.33,304.19 609.09,304.19 609.85,304.19 610.62,303.38 611.37,303.38 612.13,303.38 612.89,304.19 613.67,35.00 614.44,35.00 615.19,35.00 615.95,286.37 616.71,302.57 617.47,301.76 618.23,303.38 618.99,303.38 619.75,286.37 620.51,304.19 621.28,304.19 622.04,304.19 622.79,304.19 623.56,303.38 624.32,35.00 625.11,303.38 625.87,304.19 626.64,303.38 627.40,303.38 628.16,35.00 628.93,304.19 629.68,35.00 630.44,303.38 631.20,302.57 631.96,303.38 632.72,303.38 633.49,303.38 634.25,303.38 635.02,303.38 635.81,304.19 636.57,35.00 637.33,303.38 638.09,304.19 638.85,35.00 639.62,35.00 640.38,304.19 641.15,303.38 641.92,304.19 642.68,304.19 643.44,301.76 644.21,304.19 644.97,303.38 645.73,304.19 646.49,301.76 647.26,304.19 648.01,302.57 648.78,302.57 649.55,303.38 650.31,304.19 651.07,35.00 651.83,35.00 652.60,35.00 653.36,303.38 654.12,303.38 654.89,304.19 655.67,35.00 656.44,302.57 657.21,304.19 657.97,35.00 658.74,304.19 659.52,304.19 660.30,303.38 661.07,303.38 661.86,302.57 662.62,304.19 663.38,303.38 664.14,303.38 664.91,304.19 665.67,35.00 666.44,304.19 667.22,35.00 667.97,304.19 668.74,303.38 669.50,35.00 670.26,302.57 671.02,303.38 671.78,298.52 672.54,303.38 673.30,304.19 674.06,303.38 674.81,304.19 675.57,304.19 676.33,35.00 677.09,304.19 677.85,304.19 678.62,35.00 679.37,304.19 680.14,303.38 680.91,304.19 681.66,35.00 682.43,303.38 683.19,303.38 683.95,304.19 684.71,304.19 685.47,304.19 686.23,304.19 687.00,298.52 687.75,303.38 688.50,302.57 689.26,304.19 690.02,302.57 690.78,303.38 691.54,304.19 692.30,304.19 693.06,303.38 693.82,303.38 694.58,304.19 695.35,304.19 696.11,35.00 696.85,35.00 697.61,304.19 698.35,304.19 699.11,303.38 699.88,303.38 700.65,301.76 701.41,304.19 702.17,304.19 702.93,284.75 703.71,303.38 704.47,303.38 705.23,304.19 706.00,304.19 706.76,304.19 707.51,303.38 708.28,303.38 709.04,304.19 709.82,303.38 710.58,303.38 711.34,303.38 712.10,304.19 712.86,304.19 713.61,303.38 714.37,302.57 715.13,303.38 715.88,304.19 716.64,303.38 717.40,304.19 718.17,304.19 718.92,35.00 719.68,303.38 720.44,304.19 721.20,302.57 721.97,304.19 722.73,304.19 723.49,304.19 724.25,303.38 725.01,301.76 725.78,35.00 726.53,304.19 727.29,303.38 728.06,304.19 728.82,35.00 729.57,304.19 730.34,304.19 731.11,304.19 731.86,304.19 732.62,304.19 733.38,35.00 734.17,35.00 734.93,303.38 735.70,304.19 736.47,304.19 737.23,302.57 738.00,35.00 738.76,302.57 739.52,35.00 740.29,35.00 741.04,303.38 741.81,303.38 742.59,304.19 743.35,304.19 744.11,35.00 744.87,304.19 745.63,303.38 746.40,302.57 747.16,304.19 747.91,304.19 748.67,303.38 749.44,302.57 750.20,304.19 750.96,304.19 751.71,304.19 752.48,304.19 753.23,35.00 753.99,35.00 754.75,304.19 755.51,303.38 756.26,35.00 757.04,304.19 757.80,302.57 758.55,304.19 759.31,304.19 760.08,304.19 760.83,294.47 761.60,303.38 762.35,35.00 763.13,304.19 763.89,304.19 764.64,302.57 765.40,304.19 766.16,304.19 766.92,304.19 767.68,303.38 768.45,304.19 769.23,303.38 770.00,304.19 770.78,304.19 771.55,302.57 772.33,302.57 773.11,304.19 773.89,304.19 774.68,301.76 775.45,301.76 776.23,35.00 776.99,304.19 777.75,303.38 778.51,304.19 779.28,304.19 780.04,303.38 780.81,304.19 781.57,35.00 782.34,35.00 783.10,303.38 783.86,304.19 784.62,304.19 785.37,302.57 786.14,303.38 786.89,304.19 787.65,303.38 788.42,304.19 789.18,304.19 789.94,302.57 790.71,35.00 791.47,304.19 792.23,35.00 792.99,35.00 793.75,304.19 794.51,304.19 795.28,303.38 796.04,303.38 796.80,304.19 797.56,304.19 798.32,303.38 799.08,304.19 799.84,304.19 800.61,304.19 801.36,304.19 802.13,304.19 802.94,303.38 803.73,35.00 804.48,301.76 805.25,35.00 806.00,302.57 806.78,304.19 807.55,304.19 808.31,304.19 809.07,303.38 809.83,304.19 810.57,302.57 811.34,304.19 812.09,35.00 812.86,303.38 813.62,304.19 814.38,303.38 815.15,303.38 815.91,302.57 816.68,35.00 817.43,304.19 818.19,35.00 818.95,304.19 819.72,295.28 820.48,304.19 821.24,303.38 822.00,297.71 822.76,304.19 823.52,35.00 824.29,302.57 825.08,302.57 825.84,304.19 826.60,304.19 827.36,303.38 828.12,304.19 828.89,303.38 829.65,304.19 830.42,304.19 831.17,303.38 831.94,304.19 832.70,304.19 833.48,304.19 834.24,303.38 835.01,304.19 835.77,303.38 836.53,35.00 837.29,304.19 838.05,303.38 838.81,303.38 839.57,303.38 840.34,304.19 841.10,35.00 841.86,303.38 842.62,35.00 843.38,304.19 844.14,35.00 844.90,35.00 845.66,304.19 846.42,35.00 847.18,304.19 847.95,304.19 848.70,35.00 849.47,304.19 850.23,304.19 850.99,303.38 851.75,303.38 852.52,303.38 853.27,304.19 854.03,303.38 854.78,35.00 855.54,303.38 856.31,304.19 857.07,303.38 857.85,302.57 858.61,303.38 859.38,304.19 860.14,304.19 860.90,286.91 861.67,301.76 862.49,303.38 863.27,303.38 864.04,304.19 864.81,303.38 865.58,304.19 866.34,303.38 867.09,304.19 867.86,304.19 868.62,304.19 869.38,304.19 870.15,302.57 870.91,35.00 871.67,303.38 872.45,303.38 873.21,35.00 873.98,303.38 874.74,304.19 875.50,304.19 876.26,303.38 877.03,303.38 877.78,303.38 878.55,303.38 879.32,303.38 880.08,304.19 880.84,303.38 881.61,301.76 882.37,304.19 883.14,304.19 883.91,303.38 884.67,304.19 885.44,35.00 886.19,304.19 886.96,35.00 887.72,303.38 888.48,303.38 889.23,303.38 890.00,304.19 890.76,301.76 891.52,35.00 892.29,35.00 893.04,302.57 893.80,304.19 894.57,35.00 895.34,304.19 896.09,304.19 896.86,304.19 897.62,304.19 898.39,304.19 899.16,35.00 899.90,35.00 900.64,35.00 901.40,304.19 902.17,304.19 902.93,303.38 903.69,304.19 904.47,302.57 905.22,302.57 906.00,303.38 906.76,304.19 907.52,303.38 908.28,304.19 909.04,303.38 909.80,35.00 910.55,303.38 911.31,35.00 912.07,304.19 912.84,304.19 913.59,304.19 914.35,304.19 915.11,302.57 915.87,35.00 916.63,304.19 917.40,303.38 918.15,287.72 918.91,286.10 919.64,304.19 920.42,35.00 921.18,304.19 921.94,301.76 922.71,304.19 923.48,35.00 924.24,304.19 925.00,303.38 925.76,304.19 926.53,304.19 927.29,301.76 928.05,299.33 928.87,302.57 929.62,304.19 930.40,303.38 931.16,35.00 931.93,35.00 932.68,303.38 933.44,303.38 934.21,304.19 934.97,285.02 935.73,304.19 936.49,304.19 937.25,304.19 938.01,304.19 938.78,303.38 939.54,302.57 940.30,303.38 941.06,35.00 941.83,35.00 942.59,304.19 943.36,302.57 944.12,303.38 944.89,35.00 945.67,303.38 946.43,303.38 947.19,35.00 947.96,304.19 948.73,303.38 949.49,302.57 950.26,303.38 951.01,304.19 951.77,304.19 952.53,303.38 953.29,303.38 954.06,35.00 954.82,302.57 955.58,35.00 956.35,35.00 957.11,304.19 957.86,304.19 958.62,303.38 959.38,304.19 960.15,303.38 960.90,35.00 961.67,304.19 962.43,304.19 963.18,35.00 963.94,304.19 964.69,302.57 965.45,300.95 966.21,35.00 966.97,35.00 967.73,35.00 968.49,303.38 969.24,303.38 970.00,304.19 970.75,304.19 971.52,303.38 972.28,302.57 973.03,303.38 973.79,304.19 974.55,304.19 975.32,304.19 976.08,304.19 976.83,303.38 977.60,303.38 978.39,303.38 979.15,302.57 979.91,304.19 980.68,303.38 981.44,304.19 982.21,304.19 982.97,304.19 983.73,302.57 984.49,304.19 985.25,302.57 986.01,35.00 986.76,304.19 987.53,303.38 988.29,304.19 989.05,35.00 989.81,304.19 990.56,303.38 991.33,303.38 992.08,304.19 992.85,303.38 993.62,35.00 994.41,304.19 995.17,303.38 995.93,303.38 996.68,303.38 997.43,304.19 998.21,35.00 998.96,303.38 999.72,303.38 1000.49,304.19 1001.25,302.57 1002.01,304.19 1002.77,304.19 1003.54,304.19 1004.30,303.38 1005.06,304.19 1005.82,303.38 1006.58,304.19 1007.34,301.76 1008.10,303.38 1008.85,304.19 1009.61,304.19 1010.37,35.00 1011.13,298.52 1011.89,303.38 1012.65,304.19 1013.41,302.57 1014.17,303.38 1014.93,304.19 1015.70,304.19 1016.46,302.57 1017.21,301.76 1017.97,35.00 1018.73,304.19 1019.50,304.19 1020.26,304.19 1021.02,304.19 1021.78,35.00 1022.54,35.00 1023.29,303.38 1024.05,35.00 1024.82,302.57 1025.57,304.19 1026.35,304.19 1027.11,304.19 1027.87,304.19 1028.63,304.19 1029.39,304.19 1030.16,302.57 1030.93,303.38 1031.70,304.19 1032.51,35.00 1033.27,304.19 1034.09,302.57 1034.85,304.19 1035.60,304.19 1036.36,302.57 1037.12,302.57 1037.88,304.19 1038.64,304.19 1039.40,303.38 1040.16,304.19 1040.92,303.38 1041.68,304.19 1042.44,303.38 1043.20,301.76 1043.96,35.00 1044.72,302.57 1045.48,303.38 1046.23,302.57 1046.99,303.38 1047.76,303.38 1048.52,303.38 1049.28,303.38 1050.04,303.38 1050.79,302.57 1051.55,304.19 1052.31,301.76 1053.08,302.57 1053.84,302.57 1054.60,302.57 1055.37,304.19 1056.13,304.19 1056.88,302.57 1057.64,35.00 1058.40,304.19 1059.16,301.76 1059.91,304.19 1060.67,303.38 1061.42,303.38 1062.18,304.19 1062.94,304.19 1063.70,303.38 1064.46,303.38 1065.23,302.57 1066.01,304.19 1066.78,304.19 1067.54,304.19 1068.29,35.00 1069.05,303.38 1069.80,302.57 1070.56,302.57 1071.32,303.38 1072.08,304.19 1072.83,303.38 1073.59,304.19 1074.34,304.19 1075.10,304.19 1075.86,302.57 1076.62,303.38 1077.37,35.00 1078.13,302.57 1078.90,35.00 1079.65,304.19 1080.41,300.14 1081.18,35.00 1081.94,304.19 1082.70,303.38 1083.46,35.00 1084.22,304.19 1084.98,304.19 1085.75,302.57 1086.50,303.38 1087.28,304.19 1088.03,304.19 1088.79,304.19 1089.55,304.19 1090.31,304.19 1091.07,35.00 1091.85,304.19 1092.61,303.38 1093.38,304.19 1094.15,303.38 1094.90,303.38 1095.66,303.38 1096.42,35.00 1097.18,304.19 1097.95,304.19 1098.71,304.19 1099.46,302.57 1100.23,304.19 1100.99,35.00 1101.76,302.57 1102.52,304.19 1103.30,287.99 1104.08,302.57 1104.88,303.38 1105.65,304.19 1106.41,304.19 1107.17,35.00 1107.92,304.19 1108.69,303.38 1109.45,303.38 1110.21,304.19 1110.97,304.19 1111.74,304.19 1112.50,286.37 1113.26,303.38 1114.01,303.38 1114.77,304.19 1115.53,303.38 1116.30,287.72 1117.08,304.19 1117.86,303.38 1118.62,304.19 1119.39,35.00 1120.19,304.19 1120.95,270.71 1121.76,304.19 1122.52,304.19 1123.28,304.19 1124.05,35.00 1124.81,303.38 1125.57,304.19 1126.33,302.57 1127.08,302.57 1127.85,304.19 1128.60,303.38 1129.37,304.19 1130.14,302.57 1130.90,302.57 1131.67,303.38 1132.44,304.19 1133.33,304.19 1134.09,304.19 1134.85,304.19 1135.60,303.38 1136.36,303.38 1137.11,302.57 1137.86,304.19 1138.57,304.19 1139.25,302.57 1141.48,35.00 1142.92,302.57 1143.67,35.00 1144.44,302.57 1145.20,304.19 1145.95,35.00 1146.71,286.91 1147.47,303.38 1148.22,303.38 1148.98,303.38 1149.74,35.00 1150.50,303.38 1151.25,303.38 1152.01,304.19 1152.78,304.19 1153.53,304.19 1154.29,303.38 1155.04,303.38 1155.80,303.38 1156.55,304.19 1157.30,304.19 1158.06,35.00 1158.82,304.19 1159.58,35.00 1160.35,304.19 1161.10,303.38 1161.85,301.76 1162.61,303.38 1163.37,304.19 1164.12,304.19 1164.88,304.19 1165.63,304.19 1166.39,301.76 1167.14,303.38 1167.90,35.00 1168.66,35.00 1169.41,304.19 1170.17,303.38 1170.93,35.00 1171.69,303.38 1172.45,35.00 1173.20,304.19 1173.96,304.19 1174.72,35.00 1175.48,35.00 1176.24,303.38 1176.98,304.19 1177.74,303.38 1178.49,303.38 1179.25,304.19 1180.00,304.19"/>
<polyline fill="none" stroke="#d62728" stroke-opacity="0.65" stroke-width="2" points="70.00,35.00 70.76,304.46 71.52,304.46 72.27,302.30 73.03,304.46 73.80,303.38 74.55,304.46 75.31,304.46 76.13,35.00 76.88,304.46 77.64,304.46 78.39,303.92 79.16,303.92 79.91,304.46 80.66,304.46 82.03,303.92 83.20,304.46 83.97,35.00 84.74,303.92 85.50,302.84 86.25,304.46 87.00,303.92 87.76,302.84 88.52,35.00 89.28,303.92 90.04,35.00 90.81,35.00 91.57,35.00 92.33,303.92 93.13,35.00 93.89,303.38 94.65,303.92 95.42,304.46 96.18,35.00 96.94,35.00 97.72,304.46 98.47,35.00 99.23,304.46 100.00,35.00 100.75,304.46 101.51,303.92 102.25,35.00 103.01,304.46 103.77,304.46 104.52,293.12 105.30,35.00 106.06,304.46 106.81,304.46 107.57,304.46 108.33,35.00 109.09,304.46 109.95,304.46 110.71,304.46 111.47,35.00 112.22,35.00 112.97,304.46 113.72,304.46 114.47,303.38 115.23,303.92 115.99,304.46 116.76,35.00 117.52,304.46 118.26,304.46 119.03,35.00 119.79,304.46 120.55,303.92 121.31,304.46 122.06,304.46 122.81,35.00 123.56,303.92 124.31,303.92 125.07,304.46 125.82,303.92 126.58,303.92 127.33,35.00 128.09,303.92 128.84,304.46 129.60,304.46 130.35,303.38 131.11,35.00 131.88,304.46 132.64,303.38 133.39,304.46 134.16,35.00 134.91,304.46 135.67,304.46 136.43,303.92 137.17,303.92 137.92,303.92 138.69,304.46 139.45,303.92 140.20,304.46 140.97,303.92 141.71,35.00 142.47,303.92 143.23,303.92 143.98,304.46 144.73,304.46 145.49,303.92 146.24,303.92 147.00,35.00 147.76,35.00 148.52,303.92 149.28,35.00 150.04,304.46 150.81,304.46 151.56,304.46 152.32,304.46 153.07,303.92 153.82,304.46 154.59,303.38 155.35,304.46 156.10,303.92 156.86,35.00 157.62,304.46 158.38,303.92 159.14,303.92 159.91,303.92 160.66,304.46 161.42,35.00 162.18,304.46 162.93,304.46 163.69,35.00 164.45,303.92 165.27,304.46 166.02,303.92 166.79,304.46 167.55,304.46 168.30,303.92 169.05,303.92 169.79,304.46 170.55,304.46 171.30,304.46 172.06,303.38 172.81,304.46 173.57,35.00 174.32,303.92 175.07,35.00 175.85,304.46 176.60,35.00 177.35,35.00 178.11,303.92 178.86,303.92 179.62,304.46 180.38,304.46 181.14,304.46 181.90,303.92 182.65,304.46 183.41,304.46 184.16,303.92 184.91,35.00 185.67,304.46 186.42,35.00 187.18,303.92 187.95,304.46 188.71,304.46 189.46,35.00 190.23,35.00 190.98,35.00 191.73,304.46 192.49,303.92 193.25,304.46 194.02,303.92 194.79,303.92 195.54,304.46 196.30,304.46 197.05,304.46 197.80,304.46 198.56,304.46 199.32,304.46 200.07,304.46 200.82,282.59 201.57,304.46 202.33,303.92 203.09,304.46 203.85,304.46 204.61,304.46 205.38,303.38 206.14,304.46 206.89,304.46 207.65,303.92 208.40,304.46 209.22,303.92 209.99,304.46 210.74,304.46 211.50,304.46 212.24,304.46 213.00,304.46 213.76,303.38 214.52,304.46 215.28,304.46 216.03,304.46 216.78,303.92 217.54,35.00 218.32,304.46 219.07,303.92 219.82,303.92 220.58,303.92 221.34,35.00 222.11,304.46 222.89,304.46 223.64,35.00 224.40,303.92 225.15,35.00 225.91,35.00 226.67,304.46 227.42,304.46 228.19,35.00 228.94,35.00 229.70,304.46 230.46,304.46 231.22,303.92 231.97,303.92 232.73,304.46 233.50,304.46 234.26,304.46 235.01,303.92 235.76,304.46 236.51,304.46 237.27,303.92 238.03,303.38 238.78,304.46 239.53,35.00 240.28,304.46 241.04,35.00 241.80,35.00 242.56,303.92 243.32,303.92 244.08,304.46 244.84,304.46 245.60,304.46 246.36,303.92 247.12,297.98 247.87,35.00 248.63,304.46 249.39,303.92 250.16,304.46 250.92,303.92 251.68,35.00 252.44,303.92 253.19,304.46 253.95,35.00 254.70,303.92 255.45,304.46 256.22,304.46 256.97,35.00 257.73,303.92 258.49,303.92 259.25,35.00 260.01,303.92 260.77,303.92 261.53,35.00 262.29,303.92 263.05,304.46 263.80,303.92 264.56,304.46 265.33,303.92 266.09,35.00 266.84,304.46 267.60,35.00 268.44,35.00 269.20,303.92 269.96,303.38 270.72,303.38 271.48,303.38 272.24,35.00 273.00,304.46 273.76,304.46 274.51,304.46 275.29,35.00 276.06,304.46 276.81,304.46 277.56,304.46 278.32,35.00 279.08,304.46 279.84,304.46 280.62,293.66 281.38,303.92 282.14,304.46 282.90,303.92 283.72,304.46 284.48,35.00 285.43,304.46 286.71,304.46 287.48,304.46 288.26,304.46 289.01,35.00 289.75,304.46 290.51,304.46 291.28,303.92 292.04,35.00 292.80,304.46 293.59,35.00 294.37,303.38 295.17,304.46 295.93,304.46 296.69,35.00 297.45,35.00 298.22,304.46 298.98,35.00 299.75,304.46 300.50,304.46 301.26,304.46 302.04,35.00 302.81,303.92 303.55,35.00 304.31,304.46 305.08,304.46 305.87,297.98 306.63,304.46 307.39,35.00 308.17,293.12 308.89,35.00 309.65,303.92 310.42,35.00 311.17,304.46 311.94,304.46 312.72,303.92 313.48,304.46 314.24,304.46 315.00,303.92 315.77,303.92 316.53,304.46 317.28,303.92 318.03,35.00 318.79,304.46 319.55,304.46 320.31,304.46 321.21,304.46 322.10,303.92 323.00,304.46 323.88,304.46 324.74,303.38 325.61,303.92 326.51,303.92 327.39,304.46 328.15,35.00 328.90,35.00 329.66,304.46 330.41,304.46 331.17,303.92 331.92,304.46 332.67,303.92 333.43,35.00 334.18,304.46 334.94,304.46 335.69,304.46 336.45,304.46 337.20,293.12 337.95,304.46 338.71,35.00 339.46,303.92 340.22,303.92 340.97,304.46 341.73,304.46 342.49,35.00 343.24,303.92 343.99,304.46 344.74,304.46 345.50,304.46 346.25,35.00 347.01,297.98 347.77,303.92 348.52,303.38 349.28,304.46 350.03,35.00 350.79,302.84 351.54,303.92 352.29,35.00 353.05,35.00 353.80,303.92 354.54,302.84 355.30,304.46 356.05,303.38 356.80,35.00 357.55,304.46 358.31,304.46 359.06,304.46 359.81,303.92 360.56,304.46 361.30,35.00 362.08,304.46 362.90,303.92 363.66,35.00 364.42,303.92 365.17,303.92 365.92,304.46 366.67,304.46 367.42,304.46 368.17,303.92 369.07,304.46 369.95,304.46 370.83,303.92 371.72,304.46 372.61,303.92 373.49,303.92 374.40,304.46 375.31,303.92 376.14,303.92 376.95,303.92 377.71,35.00 378.47,35.00 379.23,35.00 379.98,303.92 380.73,304.46 381.49,304.46 382.24,304.46 383.00,304.46 383.75,304.46 384.51,35.00 385.26,304.46 386.02,303.38 386.78,35.00 387.54,35.00 388.29,303.92 388.95,282.32 389.73,282.05 390.49,304.46 391.26,35.00 392.02,303.38 392.77,304.46 393.53,35.00 394.30,35.00 395.06,35.00 395.82,303.92 396.58,304.46 397.35,304.46 398.10,303.92 398.85,35.00 399.61,303.38 400.36,303.92 401.11,304.46 401.86,303.92 402.63,304.46 403.38,304.46 404.14,304.46 404.89,304.46 405.64,304.46 406.40,303.92 407.16,303.92 407.92,303.92 408.68,304.46 409.44,304.46 410.19,35.00 410.96,35.00 411.71,304.46 412.49,304.46 413.24,304.46 414.00,303.92 414.75,35.00 415.50,303.92 416.25,35.00 417.02,303.92 417.77,304.46 418.52,35.00 419.28,304.46 420.03,35.00 420.78,304.46 421.54,303.92 422.31,304.46 423.06,302.84 423.97,303.92 424.75,303.92 425.53,304.46 426.29,304.46 427.05,303.38 427.81,303.92 428.56,299.06 429.32,35.00 430.08,304.46 430.84,303.92 431.60,304.46 432.36,35.00 433.12,303.92 433.87,303.92 434.65,304.46 435.42,303.92 436.18,35.00 436.94,304.46 437.70,35.00 438.45,303.92 439.21,35.00 439.96,303.38 440.75,304.46 441.51,304.46 442.27,35.00 443.03,304.46 443.78,304.46 444.55,304.46 445.30,303.92 446.06,35.00 446.82,303.38 447.58,304.46 448.34,304.46 449.10,35.00 449.85,304.46 450.61,35.00 451.36,304.46 452.13,304.46 452.89,291.50 453.64,303.92 454.40,304.46 455.15,304.46 455.92,303.38 456.68,303.92 457.59,303.38 458.37,303.92 459.13,35.00 459.89,35.00 460.64,304.46 461.40,303.38 462.16,304.46 462.92,35.00 463.69,303.92 464.44,304.46 465.20,35.00 465.95,303.92 466.71,35.00 467.47,304.46 468.22,304.46 468.98,35.00 469.74,304.46 470.49,304.46 471.24,35.00 472.00,304.46 472.77,304.46 473.52,304.46 474.27,303.92 475.04,35.00 475.80,304.46 476.56,304.46 477.31,35.00 478.07,304.46 478.85,303.38 479.60,35.00 480.36,304.46 481.12,304.46 481.88,303.92 482.64,304.46 483.40,304.46 484.16,304.46 484.93,304.46 485.69,304.46 486.44,304.46 487.19,303.92 487.95,304.46 488.70,303.92 489.46,304.46 490.22,35.00 490.98,304.46 491.75,304.46 492.51,303.92 493.25,35.00 494.02,304.46 494.77,304.46 495.53,304.46 496.28,304.46 497.04,303.92 497.80,304.46 498.56,304.46 499.32,35.00 500.08,304.46 500.84,303.92 501.61,35.00 502.37,35.00 503.12,303.92 503.89,281.24 504.74,304.46 505.57,304.46 506.38,35.00 507.15,303.92 507.94,303.92 508.70,304.46 509.46,304.46 510.21,303.92 510.91,293.12 511.70,303.92 512.46,292.58 513.23,294.20 513.97,293.12 514.73,303.92 515.49,304.46 516.25,303.92 517.01,303.38 517.77,304.46 518.52,304.46 519.28,304.46 520.04,303.92 520.80,35.00 521.57,35.00 522.33,35.00 523.09,35.00 523.85,304.46 524.61,35.00 525.38,304.46 526.14,303.92 526.90,304.46 527.65,303.92 528.41,303.92 529.17,304.46 529.92,303.92 530.68,304.46 531.44,304.46 532.21,35.00 532.96,304.46 533.71,304.46 534.47,35.00 535.23,303.92 536.00,35.00 536.76,303.92 537.51,35.00 538.27,304.46 539.03,35.00 539.79,304.46 540.56,304.46 541.32,303.92 542.08,304.46 542.84,35.00 543.60,303.92 544.36,304.46 545.13,304.46 545.91,304.46 546.67,304.46 547.43,303.92 548.19,302.84 548.94,304.46 549.70,304.46 550.46,304.46 551.22,304.46 551.99,303.92 552.74,304.46 553.50,303.38 554.27,35.00 555.02,35.00 555.79,303.38 556.55,35.00 557.32,304.46 558.08,303.92 558.84,304.46 559.61,303.92 560.37,304.46 561.12,35.00 561.88,35.00 562.64,35.00 563.42,303.92 564.18,303.92 564.95,303.92 565.71,304.46 566.46,303.92 567.22,304.46 567.98,304.46 568.74,304.46 569.50,304.46 570.26,304.46 571.02,304.46 571.78,35.00 572.54,304.46 573.30,35.00 574.06,304.46 574.82,304.46 575.59,304.46 576.35,304.46 577.11,303.92 577.87,292.58 578.63,304.46 579.38,304.46 580.13,303.92 580.89,304.46 581.66,304.46 582.42,304.46 583.18,303.92 583.95,35.00 584.70,304.46 585.47,304.46 586.24,304.46 586.99,303.92 587.75,304.46 588.52,293.66 589.28,292.04 590.04,293.66 590.80,293.12 591.57,294.20 592.34,293.12 593.10,293.12 593.87,292.58 594.64,293.12 595.40,293.39 596.16,293.12 596.92,293.12 597.68,293.12 598.45,293.12 599.21,293.66 599.98,292.58 600.74,292.58 601.49,293.66 602.25,293.12 603.03,292.58 603.78,293.12 604.55,294.20 605.31,293.12 606.06,293.12 606.82,292.58 607.57,294.20 608.33,293.66 609.09,281.51 609.85,271.25 610.62,293.66 611.37,293.66 612.13,293.12 612.89,293.12 613.67,293.66 614.44,293.12 615.19,293.66 615.95,293.66 616.71,293.66 617.47,293.12 618.23,293.66 618.99,293.12 619.75,292.04 620.51,293.12 621.28,293.12 622.04,293.12 622.79,292.58 623.56,293.12 624.32,293.12 625.11,292.58 625.87,292.58 626.64,293.12 627.40,293.12 628.16,293.39 628.93,293.12 629.68,293.66 630.44,293.12 631.20,292.58 631.96,293.66 632.72,292.58 633.49,293.12 634.25,293.66 635.02,294.20 635.81,293.66 636.57,293.66 637.33,293.12 638.09,293.12 638.85,292.04 639.62,293.12 640.38,293.66 641.15,293.12 641.92,294.20 642.68,293.66 643.44,294.20 644.21,293.12 644.97,293.66 645.73,282.05 646.49,293.66 647.26,293.66 648.01,293.66 648.78,293.12 649.55,293.12 650.31,293.12 651.07,293.12 651.83,293.66 652.60,293.66 653.36,293.66 654.12,292.58 654.89,293.66 655.67,294.20 656.44,293.12 657.21,293.12 657.97,294.20 658.74,292.58 659.52,294.20 660.30,293.12 661.07,293.66 661.86,294.20 662.62,294.20 663.38,293.12 664.14,293.66 664.91,293.66 665.67,293.12 666.44,292.58 667.22,293.66 667.97,293.12 668.74,293.12 669.50,283.13 670.26,292.58 671.02,293.66 671.78,293.66 672.54,292.58 673.30,282.05 674.06,293.12 674.81,293.12 675.57,293.12 676.33,292.58 677.09,293.66 677.85,294.20 678.62,293.12 679.37,293.66 680.14,304.46 680.91,303.92 681.66,35.00 682.43,303.92 683.19,304.46 683.95,303.92 684.71,304.46 685.47,304.46 686.23,35.00 687.00,304.46 687.75,303.92 688.50,303.92 689.26,303.92 690.02,304.46 690.78,304.46 691.54,303.38 692.30,304.46 693.06,304.46 693.82,303.92 694.58,304.46 695.35,303.92 696.11,35.00 696.85,304.46 697.61,304.46 698.35,35.00 699.11,304.46 699.88,304.46 700.65,304.46 701.41,303.92 702.17,35.00 702.93,304.46 703.71,304.46 704.47,303.92 705.23,304.46 706.00,35.00 706.76,35.00 707.51,304.46 708.28,304.46 709.04,303.92 709.82,304.46 710.58,303.92 711.34,35.00 712.10,35.00 712.86,35.00 713.61,303.38 714.37,293.12 715.13,293.12 715.88,304.46 716.64,304.46 717.40,258.83 718.17,303.92 718.92,304.46 719.68,35.00 720.44,35.00 721.20,304.46 721.97,303.38 722.73,35.00 723.49,303.92 724.25,304.46 725.01,303.92 725.78,303.92 726.53,304.46 727.29,304.46 728.06,304.46 728.82,304.46 729.57,304.46 730.34,35.00 731.11,297.44 731.86,35.00 732.62,303.92 733.38,35.00 734.17,304.46 734.93,304.46 735.70,304.46 736.47,304.46 737.23,304.46 738.00,303.92 738.76,303.92 739.52,303.92 740.29,35.00 741.04,304.46 741.81,304.46 742.59,303.92 743.35,304.46 744.11,35.00 744.87,304.46 745.63,35.00 746.40,304.46 747.16,302.84 747.91,35.00 748.67,303.92 749.44,304.46 750.20,304.46 750.96,303.92 751.71,304.46 752.48,304.46 753.23,35.00 753.99,303.92 754.75,304.46 755.51,303.38 756.26,304.46 757.04,304.46 757.80,303.92 758.55,304.46 759.31,303.92 760.08,303.92 760.83,304.46 761.60,35.00 762.35,303.92 763.13,304.46 763.89,35.00 764.64,304.46 765.40,304.46 766.16,303.92 766.92,35.00 767.68,35.00 768.45,303.92 769.23,304.46 770.00,35.00 770.78,35.00 771.55,35.00 772.33,303.92 773.11,304.46 773.89,303.92 774.68,303.92 775.45,304.46 776.23,303.92 776.99,35.00 777.75,304.46 778.51,304.46 779.28,304.46 780.04,303.92 780.81,35.00 781.57,304.46 782.34,304.46 783.10,303.38 783.86,35.00 784.62,304.46 785.37,303.92 786.14,304.46 786.89,35.00 787.65,303.92 788.42,304.46 789.18,304.46 789.94,304.46 790.71,293.66 791.47,293.12 792.23,293.12 792.99,293.66 793.75,303.92 794.51,304.46 795.28,304.46 796.04,304.46 796.80,304.46 797.56,303.92 798.32,304.46 799.08,304.46 799.84,304.46 800.61,304.46 801.36,303.92 802.13,35.00 802.94,35.00 803.73,303.92 804.48,302.84 805.25,303.92 806.00,303.38 806.78,304.46 807.55,303.92 808.31,303.92 809.07,304.46 809.83,303.92 810.57,304.46 811.34,304.46 812.09,303.92 812.86,303.92 813.62,304.46 814.38,304.46 815.15,304.46 815.91,303.92 816.68,35.00 817.43,35.00 818.19,304.46 818.95,303.38 819.72,304.46 820.48,304.46 821.24,304.46 822.00,304.46 822.76,35.00 823.52,303.92 824.29,35.00 825.08,35.00 825.84,303.92 826.60,304.46 827.36,303.92 828.12,304.46 828.89,304.46 829.65,304.46 830.42,304.46 831.17,303.92 831.94,303.92 832.70,304.46 833.48,35.00 834.24,303.92 835.01,303.92 835.77,303.38 836.53,304.46 837.29,35.00 838.05,304.46 838.81,304.46 839.57,304.46 840.34,303.92 841.10,303.92 841.86,303.92 842.62,304.46 843.38,304.46 844.14,304.46 844.90,304.46 845.66,304.46 846.42,304.46 847.18,303.92 847.95,304.46 848.70,304.46 849.47,35.00 850.23,304.46 850.99,304.46 851.75,304.46 852.52,304.46 853.27,35.00 854.03,303.92 854.78,303.92 855.54,303.92 856.31,35.00 857.07,303.92 857.85,303.92 858.61,35.00 859.38,304.46 860.14,248.57 860.90,259.37 861.67,269.09 862.49,293.12 863.27,282.59 864.04,270.17 864.81,282.05 865.58,35.00 866.34,304.46 867.09,304.46 867.86,303.92 868.62,304.46 869.38,304.46 870.15,304.46 870.91,303.38 871.67,304.46 872.45,304.46 873.21,304.46 873.98,304.46 874.74,304.46 875.50,304.46 876.26,303.92 877.03,303.92 877.78,35.00 878.55,303.92 879.32,304.46 880.08,303.92 880.84,35.00 881.61,35.00 882.37,35.00 883.14,303.92 883.91,304.46 884.67,304.46 885.44,35.00 886.19,35.00 886.96,35.00 887.72,35.00 888.48,35.00 889.23,304.46 890.00,304.46 890.76,304.46 891.52,304.46 892.29,304.46 893.04,303.92 893.80,35.00 894.57,35.00 895.34,304.46 896.09,304.46 896.86,304.46 897.62,303.92 898.39,304.46 899.16,35.00 899.90,304.46 900.64,303.38 901.40,304.46 902.17,304.46 902.93,303.92 903.69,304.46 904.47,304.46 905.22,303.92 906.00,303.92 906.76,304.46 907.52,303.92 908.28,303.92 909.04,304.46 909.80,304.46 910.55,35.00 911.31,303.92 912.07,303.92 912.84,304.46 913.59,35.00 914.35,304.46 915.11,303.92 915.87,293.12 916.63,304.46 917.40,304.46 918.15,35.00 918.91,286.64 919.64,259.37 920.42,248.84 921.18,35.00 921.94,35.00 922.71,303.92 923.48,302.84 924.24,304.46 925.00,304.46 925.76,303.92 926.53,304.46 927.29,35.00 928.05,304.46 928.87,303.92 929.62,304.46 930.40,303.92 931.16,304.46 931.93,304.46 932.68,35.00 933.44,303.38 934.21,304.46 934.97,304.46 935.73,304.46 936.49,302.84 937.25,298.52 938.01,35.00 938.78,303.92 939.54,304.46 940.30,303.92 941.06,35.00 941.83,304.46 942.59,304.46 943.36,304.46 944.12,304.46 944.89,303.92 945.67,304.46 946.43,304.46 947.19,304.46 947.96,304.46 948.73,303.92 949.49,303.92 950.26,304.46 951.01,35.00 951.77,303.92 952.53,303.92 953.29,303.38 954.06,303.92 954.82,303.92 955.58,303.92 956.35,35.00 957.11,304.46 957.86,304.46 958.62,304.46 959.38,303.92 960.15,304.46 960.90,304.46 961.67,304.46 962.43,304.46 963.18,35.00 963.94,304.46 964.69,304.46 965.45,35.00 966.21,35.00 966.97,303.92 967.73,304.46 968.49,304.46 969.24,303.92 970.00,304.46 970.75,304.46 971.52,35.00 972.28,304.46 973.03,303.92 973.79,35.00 974.55,304.46 975.32,303.92 976.08,35.00 976.83,304.46 977.60,304.46 978.39,35.00 979.15,303.92 979.91,35.00 980.68,35.00 981.44,304.46 982.21,304.46 982.97,304.46 983.73,304.46 984.49,301.76 985.25,35.00 986.01,304.46 986.76,35.00 987.53,303.92 988.29,304.46 989.05,304.46 989.81,293.12 990.56,303.92 991.33,35.00 992.08,303.92 992.85,304.46 993.62,35.00 994.41,304.46 995.17,35.00 995.93,304.46 996.68,304.46 997.43,304.46 998.21,35.00 998.96,304.46 999.72,35.00 1000.49,304.46 1001.25,303.92 1002.01,304.46 1002.77,303.92 1003.54,303.92 1004.30,35.00 1005.06,304.46 1005.82,35.00 1006.58,303.92 1007.34,304.46 1008.10,303.92 1008.85,35.00 1009.61,303.92 1010.37,303.92 1011.13,303.92 1011.89,35.00 1012.65,304.46 1013.41,35.00 1014.17,304.46 1014.93,304.46 1015.70,304.46 1016.46,303.92 1017.21,304.46 1017.97,304.46 1018.73,35.00 1019.50,304.46 1020.26,35.00 1021.02,304.46 1021.78,303.92 1022.54,303.92 1023.29,303.92 1024.05,304.46 1024.82,35.00 1025.57,304.46 1026.35,35.00 1027.11,303.92 1027.87,304.46 1028.63,35.00 1029.39,304.46 1030.16,303.92 1030.93,291.50 1031.70,35.00 1032.51,304.46 1033.27,303.92 1034.09,35.00 1034.85,300.14 1035.60,303.92 1036.36,303.92 1037.12,35.00 1037.88,303.38 1038.64,304.46 1039.40,298.52 1040.16,35.00 1040.92,35.00 1041.68,35.00 1042.44,35.00 1043.20,35.00 1043.96,35.00 1044.72,35.00 1045.48,304.46 1046.23,35.00 1046.99,303.92 1047.76,303.92 1048.52,302.30 1049.28,304.46 1050.04,35.00 1050.79,303.92 1051.55,303.38 1052.31,304.46 1053.08,303.92 1053.84,303.92 1054.60,35.00 1055.37,35.00 1056.13,304.46 1056.88,304.46 1057.64,304.46 1058.40,304.46 1059.16,304.46 1059.91,303.92 1060.67,303.92 1061.42,303.92 1062.18,304.46 1062.94,304.46 1063.70,303.92 1064.46,303.92 1065.23,303.92 1066.01,304.46 1066.78,304.46 1067.54,303.38 1068.29,304.46 1069.05,304.46 1069.80,303.92 1070.56,303.92 1071.32,304.46 1072.08,303.92 1072.83,304.46 1073.59,304.46 1074.34,304.46 1075.10,304.46 1075.86,304.46 1076.62,303.92 1077.37,303.92 1078.13,304.46 1078.90,303.92 1079.65,304.46 1080.41,304.46 1081.18,292.04 1081.94,35.00 1082.70,304.46 1083.46,35.00 1084.22,303.92 1084.98,303.92 1085.75,304.46 1086.50,304.46 1087.28,303.92 1088.03,304.46 1088.79,303.92 1089.55,35.00 1090.31,35.00 1091.07,304.46 1091.85,304.46 1092.61,304.46 1093.38,303.92 1094.15,304.46 1094.90,304.46 1095.66,304.46 1096.42,304.46 1097.18,304.46 1097.95,35.00 1098.71,303.38 1099.46,304.46 1100.23,303.38 1100.99,35.00 1101.76,304.46 1102.52,304.46 1103.30,304.46 1104.08,303.92 1104.88,303.92 1105.65,304.46 1106.41,303.92 1107.17,303.92 1107.92,304.46 1108.69,303.38 1109.45,303.92 1110.21,35.00 1110.97,304.46 1111.74,304.46 1112.50,303.38 1113.26,304.46 1114.01,35.00 1114.77,304.46 1115.53,303.92 1116.30,35.00 1117.08,303.92 1117.86,304.46 1118.62,304.46 1119.39,303.92 1120.19,304.46 1120.95,35.00 1121.76,35.00 1122.52,281.51 1123.28,259.91 1124.05,282.05 1124.81,304.46 1125.57,304.46 1126.33,304.46 1127.08,35.00 1127.85,35.00 1128.60,304.46 1129.37,35.00 1130.14,35.00 1130.90,304.46 1131.67,304.46 1132.44,303.92 1133.33,304.46 1134.09,35.00 1134.85,303.92 1135.60,303.92 1136.36,303.92 1137.11,35.00 1139.25,304.46 1140.07,303.92 1140.79,293.66 1141.48,303.92 1142.92,303.92 1143.67,303.92 1144.44,303.92 1145.20,303.92 1145.95,303.92 1146.71,304.46 1147.47,303.38 1148.22,304.46 1148.98,304.46 1149.74,303.92 1150.50,303.92 1151.25,304.46 1152.01,304.46 1152.78,303.38 1153.53,303.92 1154.29,35.00 1155.04,304.46 1155.80,304.46 1156.55,303.38 1157.30,303.92 1158.06,304.46 1158.82,304.46 1159.58,304.46 1160.35,304.46 1161.10,35.00 1161.85,304.46 1162.61,304.46 1163.37,35.00 1164.12,304.46 1164.88,304.46 1165.63,293.12 1166.39,35.00 1167.14,35.00 1167.90,304.46 1168.66,304.46 1169.41,303.92 1170.17,304.46 1170.93,303.92 1171.69,304.46 1172.45,35.00 1173.20,303.38 1173.96,304.46 1174.72,303.92 1175.48,304.46 1176.24,304.46 1176.98,303.92 1177.74,304.46 1178.49,304.46 1179.25,303.92 1180.00,303.92"/>
<polyline fill="none" stroke="#d62728" stroke-opacity="0.50" stroke-width="2" points="70.00,302.84 70.76,302.84 71.52,303.92 72.27,303.92 73.03,303.92 73.80,303.38 74.55,303.92 75.31,302.57 76.13,303.38 76.88,302.84 77.64,303.92 78.39,303.38 79.16,302.84 79.91,303.38 80.66,287.18 82.03,303.38 83.20,303.38 83.97,303.38 84.74,303.92 85.50,302.84 86.25,293.12 87.00,303.38 87.76,303.38 88.52,303.38 89.28,303.38 90.04,303.38 90.81,303.38 91.57,303.92 92.33,303.38 93.13,303.92 93.89,303.92 94.65,303.38 95.42,303.38 96.18,303.38 96.94,302.03 97.72,303.38 98.47,303.92 99.23,303.92 100.00,303.38 100.75,303.92 101.51,303.92 102.25,303.92 103.01,302.84 103.77,303.92 104.52,303.38 105.30,303.92 106.06,302.84 106.81,303.92 107.57,302.84 108.33,303.38 109.09,302.84 109.95,303.38 110.71,303.92 111.47,303.38 112.22,303.92 112.97,303.38 113.72,303.38 114.47,303.92 115.23,302.30 115.99,303.92 116.76,303.92 117.52,304.46 118.26,303.92 119.03,303.92 119.79,303.92 120.55,303.38 121.31,289.61 122.06,303.92 122.81,303.38 123.56,302.84 124.31,299.87 125.07,303.92 125.82,303.92 126.58,304.46 127.33,303.92 128.09,302.03 128.84,304.46 129.60,303.38 130.35,303.38 131.11,302.84 131.88,302.57 132.64,303.92 133.39,303.92 134.16,303.92 134.91,303.38 135.67,303.38 136.43,302.84 137.17,303.38 137.92,302.84 138.69,303.92 139.45,303.38 140.20,294.20 140.97,303.38 141.71,303.38 142.47,303.92 143.23,303.92 143.98,302.57 144.73,303.38 145.49,302.84 146.24,302.84 147.00,302.57 147.76,303.92 148.52,303.92 149.28,303.92 150.04,303.92 150.81,302.84 151.56,303.92 152.32,303.92 153.07,302.84 153.82,303.92 154.59,302.84 155.35,302.84 156.10,303.92 156.86,303.92 157.62,303.92 158.38,303.92 159.14,302.57 159.91,303.92 160.66,303.92 161.42,303.38 162.18,303.38 162.93,303.92 163.69,304.46 164.45,303.92 165.27,303.92 166.02,303.38 166.79,303.92 167.55,303.92 168.30,304.46 169.05,303.38 169.79,302.84 170.55,303.92 171.30,302.84 172.06,303.92 172.81,303.38 173.57,303.38 174.32,304.46 175.07,303.38 175.85,303.92 176.60,302.57 177.35,302.03 178.11,303.92 178.86,303.92 179.62,303.38 180.38,303.38 181.14,303.92 181.90,303.38 182.65,303.38 183.41,302.84 184.16,302.57 184.91,303.38 185.67,302.03 186.42,302.03 187.18,302.03 187.95,302.84 188.71,302.03 189.46,302.84 190.23,302.84 190.98,302.57 191.73,302.03 192.49,303.92 193.25,303.38 194.02,303.92 194.79,303.92 195.54,303.38 196.30,302.84 197.05,303.92 197.80,303.92 198.56,303.92 199.32,296.90 200.07,303.38 200.82,302.84 201.57,303.92 202.33,303.92 203.09,302.84 203.85,303.92 204.61,302.84 205.38,303.92 206.14,303.92 206.89,303.38 207.65,303.92 208.40,303.92 209.22,299.33 209.99,303.38 210.74,303.92 211.50,303.38 212.24,303.92 213.00,304.46 213.76,303.92 214.52,303.38 215.28,303.92 216.03,302.84 216.78,303.38 217.54,303.38 218.32,303.92 219.07,303.92 219.82,303.92 220.58,302.84 221.34,303.92 222.11,303.38 222.89,303.92 223.64,303.92 224.40,303.38 225.15,302.84 225.91,303.38 226.67,303.38 227.42,303.92 228.19,303.92 228.94,302.84 229.70,303.92 230.46,303.38 231.22,303.92 231.97,303.92 232.73,303.38 233.50,303.92 234.26,302.30 235.01,303.92 235.76,303.38 236.51,303.92 237.27,302.84 238.03,303.92 238.78,302.84 239.53,303.92 240.28,303.92 241.04,303.92 241.80,303.92 242.56,302.84 243.32,303.92 244.08,303.92 244.84,299.87 245.60,303.92 246.36,302.84 247.12,302.84 247.87,303.92 248.63,303.92 249.39,303.92 250.16,304.46 250.92,304.46 251.68,303.38 252.44,303.38 253.19,303.38 253.95,303.92 254.70,303.92 255.45,302.84 256.22,303.92 256.97,303.92 257.73,303.38 258.49,303.38 259.25,303.92 260.01,302.57 260.77,303.92 261.53,302.84 262.29,303.92 263.05,303.92 263.80,303.38 264.56,303.92 265.33,304.46 266.09,303.38 266.84,302.84 267.60,303.38 268.44,303.92 269.20,303.38 269.96,303.92 270.72,303.92 271.48,303.38 272.24,303.38 273.00,303.38 273.76,303.38 274.51,303.92 275.29,302.84 276.06,303.92 276.81,303.92 277.56,303.92 278.32,303.92 279.08,302.84 279.84,303.38 280.62,303.38 281.38,303.92 282.14,302.84 282.90,303.92 283.72,303.92 284.48,293.39 285.43,293.12 286.71,303.92 287.48,302.84 288.26,292.58 289.01,302.03 289.75,302.84 290.51,304.46 291.28,303.92 292.04,303.92 292.80,303.92 293.59,304.46 294.37,303.92 295.17,303.92 295.93,302.84 296.69,303.38 297.45,303.38 298.22,303.92 298.98,303.38 299.75,302.84 300.50,294.74 301.26,303.38 302.04,303.92 302.81,303.92 303.55,303.92 304.31,303.92 305.08,303.38 305.87,303.92 306.63,303.38 307.39,303.92 308.17,303.38 308.89,302.57 309.65,303.92 310.42,303.92 311.17,303.92 311.94,304.46 312.72,303.38 313.48,303.38 314.24,303.38 315.00,304.46 315.77,303.92 316.53,303.92 317.28,303.38 318.03,303.92 318.79,303.92 319.55,303.92 320.31,303.92 321.21,300.41 322.10,303.92 323.00,303.38 323.88,303.92 324.74,303.92 325.61,303.92 326.51,302.84 327.39,303.92 328.15,303.92 328.90,303.92 329.66,303.38 330.41,302.84 331.17,302.84 331.92,303.92 332.67,303.92 333.43,303.38 334.18,304.46 334.94,304.46 335.69,303.92 336.45,292.58 337.20,302.84 337.95,304.46 338.71,303.38 339.46,303.92 340.22,303.38 340.97,303.38 341.73,303.38 342.49,303.38 343.24,303.38 343.99,304.46 344.74,303.38 345.50,304.46 346.25,303.92 347.01,303.38 347.77,303.92 348.52,303.38 349.28,295.82 350.03,302.84 350.79,303.92 351.54,302.84 352.29,299.87 353.05,303.92 353.80,303.38 354.54,302.84 355.30,303.92 356.05,303.92 356.80,303.38 357.55,303.92 358.31,303.38 359.06,303.92 359.81,303.38 360.56,304.46 361.30,303.92 362.08,303.92 362.90,303.92 363.66,303.92 364.42,303.92 365.17,303.38 365.92,302.57 366.67,303.92 367.42,303.92 368.17,303.92 369.07,302.84 369.95,302.84 370.83,303.92 371.72,302.30 372.61,303.92 373.49,303.92 374.40,303.92 375.31,303.92 376.14,303.92 376.95,303.92 377.71,303.38 378.47,303.38 379.23,303.38 379.98,303.38 380.73,303.92 381.49,303.92 382.24,292.85 383.00,303.92 383.75,302.57 384.51,303.38 385.26,303.92 386.02,303.92 386.78,303.38 387.54,303.92 388.29,302.30 388.95,303.92 389.73,303.92 390.49,304.46 391.26,303.38 392.02,303.92 392.77,303.92 393.53,303.38 394.30,303.92 395.06,303.92 395.82,303.92 396.58,304.46 397.35,303.92 398.10,303.38 398.85,303.92 399.61,303.92 400.36,303.92 401.11,302.84 401.86,303.38 402.63,303.92 403.38,303.92 404.14,303.38 404.89,303.92 405.64,303.38 406.40,303.38 407.16,303.92 407.92,303.38 408.68,303.92 409.44,303.92 410.19,303.92 410.96,303.92 411.71,303.92 412.49,303.92 413.24,303.92 414.00,302.84 414.75,302.84 415.50,303.92 416.25,304.46 417.02,302.03 417.77,303.38 418.52,303.92 419.28,303.92 420.03,303.92 420.78,302.84 421.54,303.38 422.31,303.38 423.06,303.38 423.97,303.92 424.75,303.92 425.53,303.38 426.29,302.57 427.05,303.92 427.81,302.84 428.56,303.92 429.32,303.92 430.08,303.92 430.84,304.46 431.60,302.57 432.36,302.57 433.12,303.38 433.87,303.92 434.65,303.92 435.42,303.38 436.18,303.38 436.94,302.84 437.70,303.92 438.45,300.95 439.21,303.92 439.96,302.84 440.75,303.38 441.51,303.92 442.27,303.38 443.03,302.84 443.78,303.92 444.55,303.38 445.30,303.92 446.06,303.38 446.82,303.92 447.58,303.92 448.34,303.92 449.10,303.38 449.85,303.38 450.61,303.92 451.36,303.92 452.13,303.92 452.89,303.92 453.64,303.92 454.40,300.95 455.15,290.69 455.92,303.92 456.68,302.84 457.59,303.92 458.37,303.38 459.13,303.38 459.89,303.92 460.64,304.46 461.40,303.92 462.16,303.92 462.92,303.38 463.69,303.38 464.44,302.84 465.20,304.46 465.95,303.92 466.71,303.38 467.47,304.46 468.22,304.46 468.98,303.38 469.74,303.38 470.49,303.92 471.24,303.38 472.00,304.46 472.77,303.38 473.52,302.84 474.27,304.46 475.04,303.92 475.80,303.92 476.56,303.38 477.31,303.38 478.07,303.92 478.85,303.92 479.60,300.95 480.36,303.92 481.12,302.84 481.88,303.92 482.64,303.38 483.40,303.38 484.16,302.03 484.93,302.03 485.69,303.92 486.44,302.84 487.19,302.84 487.95,302.57 488.70,303.38 489.46,303.38 490.22,303.38 490.98,303.38 491.75,291.77 492.51,274.49 493.25,302.84 494.02,292.85 494.77,302.84 495.53,303.38 496.28,303.92 497.04,303.92 497.80,303.92 498.56,303.38 499.32,303.38 500.08,304.46 500.84,302.84 501.61,303.92 502.37,302.57 503.12,303.92 503.89,303.92 504.74,304.46 505.57,304.46 506.38,303.92 507.15,303.92 507.94,303.92 508.70,303.38 509.46,303.92 510.21,303.38 510.91,303.38 511.70,303.38 512.46,303.92 513.23,303.92 513.97,303.38 514.73,303.38 515.49,303.38 516.25,303.92 517.01,303.38 517.77,303.92 518.52,303.92 519.28,303.92 520.04,303.92 520.80,303.38 521.57,303.92 522.33,303.92 523.09,302.84 523.85,303.38 524.61,303.38 525.38,302.57 526.14,303.38 526.90,302.57 527.65,302.57 528.41,301.49 529.17,303.92 529.92,303.38 530.68,303.92 531.44,302.84 532.21,303.38 532.96,303.92 533.71,303.38 534.47,303.38 535.23,303.38 536.00,303.92 536.76,303.92 537.51,304.46 538.27,303.92 539.03,303.92 539.79,302.57 540.56,303.38 541.32,303.38 542.08,303.92 542.84,302.84 543.60,302.84 544.36,303.38 545.13,303.38 545.91,303.92 546.67,303.38 547.43,303.92 548.19,303.92 548.94,300.41 549.70,303.92 550.46,303.38 551.22,303.92 551.99,303.92 552.74,303.92 553.50,303.38 554.27,304.46 555.02,303.38 555.79,302.84 556.55,303.92 557.32,303.92 558.08,303.38 558.84,303.92 559.61,303.92 560.37,303.92 561.12,303.92 561.88,303.92 562.64,303.38 563.42,302.84 564.18,303.92 564.95,303.38 565.71,303.92 566.46,303.92 567.22,303.38 567.98,303.92 568.74,303.92 569.50,303.38 570.26,303.92 571.02,303.38 571.78,302.84 572.54,303.38 573.30,302.03 574.06,292.85 574.82,303.92 575.59,302.57 576.35,303.38 577.11,302.84 577.87,303.38 578.63,302.84 579.38,291.50 580.13,303.38 580.89,303.92 581.66,303.92 582.42,303.92 583.18,303.92 583.95,303.92 584.70,303.92 585.47,303.92 586.24,303.92 586.99,303.92 587.75,297.71 588.52,303.38 589.28,303.38 590.04,303.92 590.80,303.92 591.57,303.38 592.34,304.46 593.10,304.46 593.87,303.92 594.64,303.92 595.40,303.38 596.16,303.92 596.92,304.46 597.68,303.92 598.45,303.38 599.21,302.84 599.98,302.84 600.74,303.38 601.49,303.92 602.25,302.03 603.03,303.38 603.78,303.92 604.55,302.84 605.31,303.92 606.06,304.46 606.82,303.92 607.57,304.46 608.33,303.38 609.09,303.92 609.85,303.92 610.62,303.92 611.37,303.92 612.13,302.84 612.89,302.84 613.67,303.38 614.44,303.92 615.19,302.84 615.95,292.31 616.71,303.92 617.47,303.38 618.23,303.38 618.99,303.38 619.75,303.92 620.51,303.38 621.28,303.92 622.04,303.92 622.79,303.92 623.56,303.92 624.32,303.92 625.11,302.84 625.87,303.38 626.64,303.92 627.40,303.92 628.16,303.92 628.93,302.84 629.68,303.92 630.44,303.92 631.20,303.92 631.96,303.92 632.72,303.38 633.49,303.92 634.25,303.38 635.02,303.92 635.81,303.92 636.57,303.38 637.33,303.92 638.09,303.92 638.85,301.49 639.62,303.92 640.38,303.92 641.15,303.92 641.92,303.38 642.68,302.84 643.44,303.92 644.21,304.46 644.97,303.38 645.73,303.38 646.49,303.92 647.26,303.92 648.01,303.92 648.78,303.92 649.55,303.38 650.31,303.92 651.07,302.84 651.83,303.92 652.60,303.38 653.36,303.92 654.12,303.92 654.89,303.92 655.67,304.46 656.44,303.38 657.21,303.92 657.97,303.92 658.74,301.49 659.52,302.03 660.30,303.92 661.07,303.38 661.86,302.57 662.62,300.41 663.38,303.38 664.14,302.57 664.91,303.92 665.67,304.46 666.44,303.92 667.22,303.92 667.97,303.38 668.74,303.38 669.50,303.92 670.26,303.92 671.02,303.38 671.78,302.84 672.54,303.92 673.30,304.46 674.06,303.38 674.81,303.38 675.57,302.84 676.33,302.84 677.09,303.92 677.85,303.92 678.62,303.92 679.37,303.38 680.14,303.92 680.91,303.38 681.66,303.92 682.43,303.92 683.19,303.92 683.95,303.92 684.71,303.92 685.47,303.92 686.23,303.92 687.00,303.38 687.75,303.92 688.50,301.49 689.26,302.57 690.02,303.92 690.78,302.57 691.54,303.92 692.30,303.38 693.06,302.84 693.82,303.92 694.58,302.84 695.35,292.58 696.11,290.69 696.85,302.84 697.61,291.50 698.35,302.57 699.11,303.38 699.88,303.92 700.65,303.92 701.41,304.46 702.17,303.92 702.93,303.38 703.71,303.38 704.47,303.92 705.23,303.38 706.00,303.92 706.76,303.38 707.51,303.92 708.28,303.92 709.04,294.20 709.82,303.92 710.58,303.92 711.34,303.92 712.10,303.38 712.86,303.38 713.61,302.57 714.37,303.92 715.13,303.38 715.88,303.92 716.64,304.46 717.40,302.57 718.17,303.92 718.92,302.84 719.68,303.92 720.44,303.92 721.20,302.84 721.97,303.38 722.73,303.38 723.49,303.92 724.25,302.84 725.01,303.38 725.78,303.38 726.53,303.92 727.29,303.92 728.06,303.92 728.82,303.38 729.57,303.92 730.34,303.92 731.11,303.38 731.86,303.38 732.62,303.92 733.38,303.92 734.17,303.38 734.93,303.38 735.70,303.38 736.47,303.38 737.23,303.92 738.00,303.92 738.76,303.92 739.52,303.92 740.29,295.82 741.04,303.38 741.81,303.38 742.59,303.38 743.35,303.92 744.11,303.38 744.87,303.38 745.63,302.84 746.40,303.38 747.16,302.03 747.91,303.92 748.67,303.92 749.44,303.92 750.20,302.03 750.96,303.92 751.71,297.44 752.48,303.38 753.23,303.92 753.99,303.92 754.75,303.38 755.51,303.92 756.26,303.92 757.04,303.92 757.80,303.92 758.55,303.38 759.31,303.92 760.08,300.41 760.83,303.38 761.60,303.38 762.35,303.92 763.13,300.41 763.89,303.38 764.64,303.92 765.40,303.38 766.16,303.92 766.92,303.92 767.68,303.92 768.45,303.92 769.23,302.57 770.00,303.38 770.78,303.92 771.55,303.92 772.33,302.30 773.11,303.92 773.89,303.92 774.68,304.46 775.45,303.92 776.23,302.03 776.99,303.92 777.75,303.92 778.51,302.84 779.28,303.92 780.04,303.92 780.81,303.38 781.57,303.38 782.34,300.95 783.10,303.38 783.86,303.38 784.62,303.38 785.37,292.31 786.14,303.92 786.89,303.38 787.65,302.84 788.42,303.92 789.18,303.92 789.94,303.92 790.71,303.92 791.47,303.92 792.23,303.92 792.99,303.38 793.75,303.38 794.51,303.38 795.28,303.92 796.04,303.92 796.80,292.31 797.56,303.92 798.32,303.92 799.08,303.92 799.84,303.38 800.61,303.92 801.36,302.84 802.13,303.38 802.94,303.92 803.73,303.92 804.48,304.46 805.25,302.84 806.00,303.92 806.78,303.92 807.55,302.84 808.31,303.38 809.07,303.92 809.83,303.92 810.57,303.38 811.34,303.38 812.09,303.92 812.86,303.92 813.62,302.84 814.38,303.92 815.15,302.84 815.91,303.92 816.68,302.84 817.43,303.92 818.19,302.84 818.95,303.92 819.72,302.84 820.48,303.92 821.24,303.92 822.00,303.92 822.76,303.38 823.52,303.38 824.29,303.92 825.08,302.84 825.84,303.38 826.60,303.38 827.36,304.46 828.12,303.38 828.89,303.38 829.65,303.92 830.42,303.38 831.17,302.84 831.94,302.30 832.70,303.92 833.48,303.38 834.24,303.38 835.01,303.92 835.77,302.03 836.53,303.38 837.29,303.38 838.05,303.38 838.81,303.38 839.57,303.92 840.34,300.95 841.10,302.84 841.86,302.84 842.62,303.92 843.38,303.38 844.14,303.92 844.90,303.92 845.66,302.84 846.42,303.92 847.18,303.92 847.95,303.92 848.70,303.92 849.47,302.84 850.23,303.38 850.99,303.38 851.75,304.46 852.52,303.38 853.27,302.84 854.03,303.92 854.78,303.92 855.54,301.49 856.31,302.84 857.07,303.38 857.85,302.84 858.61,303.92 859.38,303.92 860.14,302.84 860.90,303.92 861.67,301.49 862.49,302.57 863.27,303.38 864.04,303.92 864.81,302.84 865.58,303.92 866.34,300.95 867.09,303.38 867.86,303.38 868.62,302.84 869.38,303.38 870.15,303.38 870.91,302.84 871.67,303.38 872.45,303.92 873.21,292.85 873.98,303.38 874.74,303.92 875.50,302.84 876.26,303.92 877.03,303.92 877.78,303.38 878.55,303.38 879.32,303.38 880.08,303.92 880.84,302.57 881.61,303.38 882.37,303.38 883.14,303.92 883.91,303.38 884.67,303.92 885.44,303.92 886.19,302.84 886.96,303.92 887.72,303.38 888.48,303.92 889.23,304.46 890.00,303.38 890.76,303.92 891.52,303.92 892.29,302.84 893.04,303.92 893.80,303.92 894.57,303.92 895.34,303.38 896.09,303.38 896.86,303.92 897.62,303.92 898.39,303.38 899.16,292.58 899.90,293.12 900.64,302.84 901.40,302.30 902.17,303.92 902.93,299.87 903.69,303.92 904.47,302.84 905.22,301.49 906.00,303.92 906.76,303.38 907.52,303.38 908.28,303.92 909.04,303.38 909.80,302.84 910.55,303.92 911.31,303.92 912.07,302.84 912.84,303.92 913.59,303.38 914.35,302.84 915.11,302.57 915.87,303.38 916.63,302.57 917.40,302.57 918.15,303.38 918.91,302.30 919.64,303.92 920.42,303.92 921.18,303.38 921.94,303.92 922.71,303.38 923.48,303.38 924.24,303.38 925.00,303.38 925.76,303.92 926.53,303.92 927.29,303.92 928.05,303.92 928.87,302.84 929.62,302.03 930.40,303.38 931.16,303.92 931.93,303.38 932.68,303.92 933.44,303.38 934.21,303.92 934.97,302.84 935.73,303.92 936.49,303.92 937.25,304.46 938.01,303.92 938.78,303.38 939.54,302.57 940.30,303.38 941.06,302.84 941.83,304.46 942.59,303.92 943.36,303.38 944.12,302.84 944.89,301.49 945.67,303.38 946.43,303.92 947.19,303.92 947.96,303.92 948.73,302.03 949.49,303.92 950.26,303.38 951.01,303.92 951.77,303.38 952.53,303.92 953.29,303.92 954.06,276.92 954.82,304.46 955.58,303.38 956.35,303.38 957.11,303.38 957.86,303.92 958.62,303.38 959.38,301.49 960.15,304.46 960.90,303.92 961.67,303.92 962.43,303.38 963.18,303.38 963.94,303.92 964.69,303.38 965.45,302.84 966.21,302.03 966.97,302.84 967.73,303.38 968.49,303.38 969.24,303.38 970.00,303.92 970.75,303.92 971.52,304.46 972.28,303.92 973.03,303.38 973.79,303.38 974.55,303.92 975.32,303.38 976.08,303.92 976.83,303.92 977.60,304.46 978.39,303.38 979.15,303.92 979.91,302.57 980.68,303.92 981.44,303.92 982.21,303.38 982.97,303.38 983.73,303.92 984.49,303.38 985.25,303.92 986.01,304.46 986.76,303.38 987.53,303.92 988.29,302.84 989.05,303.92 989.81,303.92 990.56,302.57 991.33,304.46 992.08,303.38 992.85,302.84 993.62,303.92 994.41,303.92 995.17,303.38 995.93,303.38 996.68,303.38 997.43,303.92 998.21,303.38 998.96,303.92 999.72,303.38 1000.49,303.38 1001.25,303.92 1002.01,303.38 1002.77,303.38 1003.54,303.92 1004.30,303.38 1005.06,302.84 1005.82,303.92 1006.58,303.38 1007.34,303.38 1008.10,303.92 1008.85,302.84 1009.61,303.92 1010.37,303.92 1011.13,303.38 1011.89,303.92 1012.65,303.92 1013.41,303.92 1014.17,303.38 1014.93,303.38 1015.70,299.87 1016.46,303.38 1017.21,304.46 1017.97,303.38 1018.73,303.38 1019.50,303.92 1020.26,303.92 1021.02,303.92 1021.78,303.38 1022.54,304.46 1023.29,303.38 1024.05,303.38 1024.82,303.92 1025.57,303.92 1026.35,303.92 1027.11,303.38 1027.87,303.38 1028.63,302.84 1029.39,303.92 1030.16,303.92 1030.93,303.92 1031.70,303.92 1032.51,303.38 1033.27,303.92 1034.09,302.84 1034.85,302.84 1035.60,304.46 1036.36,303.38 1037.12,303.92 1037.88,303.92 1038.64,302.57 1039.40,302.84 1040.16,303.92 1040.92,303.92 1041.68,303.92 1042.44,303.38 1043.20,303.38 1043.96,303.92 1044.72,303.38 1045.48,303.92 1046.23,303.38 1046.99,303.38 1047.76,302.84 1048.52,303.38 1049.28,303.38 1050.04,303.92 1050.79,300.95 1051.55,304.46 1052.31,303.92 1053.08,303.92 1053.84,303.92 1054.60,302.84 1055.37,300.68 1056.13,303.92 1056.88,303.92 1057.64,303.92 1058.40,303.38 1059.16,303.38 1059.91,302.84 1060.67,303.38 1061.42,303.92 1062.18,303.92 1062.94,303.38 1063.70,303.92 1064.46,303.92 1065.23,303.38 1066.01,303.92 1066.78,294.20 1067.54,302.84 1068.29,303.92 1069.05,303.38 1069.80,303.38 1070.56,303.92 1071.32,303.38 1072.08,302.84 1072.83,303.92 1073.59,303.38 1074.34,303.92 1075.10,302.30 1075.86,293.66 1076.62,303.38 1077.37,303.38 1078.13,302.84 1078.90,303.38 1079.65,302.84 1080.41,303.92 1081.18,303.38 1081.94,303.38 1082.70,303.92 1083.46,303.92 1084.22,303.38 1084.98,303.92 1085.75,303.92 1086.50,303.38 1087.28,303.38 1088.03,303.92 1088.79,302.57 1089.55,304.46 1090.31,303.92 1091.07,303.92 1091.85,303.92 1092.61,303.92 1093.38,303.92 1094.15,297.71 1094.90,303.92 1095.66,303.92 1096.42,303.38 1097.18,303.92 1097.95,303.92 1098.71,303.38 1099.46,303.92 1100.23,302.84 1100.99,303.92 1101.76,303.92 1102.52,303.92 1103.30,292.31 1104.08,304.46 1104.88,303.92 1105.65,303.92 1106.41,303.38 1107.17,303.92 1107.92,303.92 1108.69,303.92 1109.45,303.38 1110.21,303.92 1110.97,303.38 1111.74,303.38 1112.50,303.92 1113.26,303.92 1114.01,303.38 1114.77,303.38 1115.53,303.92 1116.30,304.46 1117.08,303.38 1117.86,303.38 1118.62,303.92 1119.39,302.84 1120.19,303.38 1120.95,302.84 1121.76,302.57 1122.52,304.46 1123.28,303.92 1124.05,302.84 1124.81,303.92 1125.57,302.57 1126.33,303.38 1127.08,303.92 1127.85,303.38 1128.60,303.92 1129.37,303.38 1130.14,304.46 1130.90,303.92 1131.67,303.92 1132.44,303.92 1133.33,303.92 1134.09,302.84 1134.85,303.92 1135.60,303.38 1136.36,303.92 1137.11,292.58 1137.86,303.92 1138.57,303.92 1139.25,303.38 1140.07,303.92 1140.79,302.84 1141.48,303.92 1142.26,303.38 1142.92,302.84 1143.67,303.38 1144.44,303.92 1145.20,292.85 1145.95,303.38 1146.71,302.84 1147.47,303.92 1148.22,302.57 1148.98,303.92 1149.74,303.92 1150.50,302.84 1151.25,303.92 1152.01,302.84 1152.78,303.92 1153.53,302.84 1154.29,303.92 1155.04,302.84 1155.80,303.38 1156.55,302.57 1157.30,302.84 1158.06,303.92 1158.82,303.92 1159.58,302.03 1160.35,304.46 1161.10,303.92 1161.85,303.38 1162.61,303.92 1163.37,302.84 1164.12,303.92 1164.88,303.92 1165.63,303.92 1166.39,303.38 1167.14,303.92 1167.90,303.92 1168.66,303.92 1169.41,303.92 1170.17,303.92 1170.93,303.92 1171.69,303.38 1172.45,303.38 1173.20,304.46 1173.96,303.92 1174.72,303.92 1175.48,303.92 1176.24,302.84 1176.98,303.92 1177.74,303.92 1178.49,303.92 1179.25,303.38 1180.00,303.92"/>
<rect x="70" y="332" width="12" height="12" fill="#d62728" fill-opacity="0.95"/>
<text x="88" y="342" font-size="11" fill="#333" font-family="Arial, Helvetica, sans-serif">nsc1.utdallas.edu</text>
<rect x="350" y="332" width="12" height="12" fill="#d62728" fill-opacity="0.80"/>
<text x="368" y="342" font-size="11" fill="#333" font-family="Arial, Helvetica, sans-serif">nsc2.utdallas.edu</text>
<rect x="630" y="332" width="12" height="12" fill="#d62728" fill-opacity="0.65"/>
<text x="648" y="342" font-size="11" fill="#333" font-family="Arial, Helvetica, sans-serif">nsc3.utdallas.edu</text>
<rect x="910" y="332" width="12" height="12" fill="#d62728" fill-opacity="0.50"/>
<text x="928" y="342" font-size="11" fill="#333" font-family="Arial, Helvetica, sans-serif">nsc4.utdallas.edu</text>
</svg>