<?xml version="1.0" encoding="UTF-8"?>
<svg xmlns="http://www.w3.org/2000/svg" width="1200" height="360" viewBox="0 0 1200 360" role="img" aria-label="CPU Utilization (%)">
<rect width="100%" height="100%" fill="#ffffff"/>
<text x="600.0" y="22" text-anchor="middle" font-size="16" font-family="Arial, Helvetica, sans-serif" font-weight="bold">CPU Utilization (%)</text>
<line x1="70" y1="35.00" x2="1180" y2="35.00" stroke="#e3e3e3" stroke-width="1"/>
<text x="62" y="39.00" text-anchor="end" font-size="11" fill="#444" font-family="Arial, Helvetica, sans-serif">100</text>
<line x1="70" y1="89.00" x2="1180" y2="89.00" stroke="#e3e3e3" stroke-width="1"/>
<text x="62" y="93.00" text-anchor="end" font-size="11" fill="#444" font-family="Arial, Helvetica, sans-serif">80</text>
<line x1="70" y1="143.00" x2="1180" y2="143.00" stroke="#e3e3e3" stroke-width="1"/>
<text x="62" y="147.00" text-anchor="end" font-size="11" fill="#444" font-family="Arial, Helvetica, sans-serif">60</text>
<line x1="70" y1="197.00" x2="1180" y2="197.00" stroke="#e3e3e3" stroke-width="1"/>
<text x="62" y="201.00" text-anchor="end" font-size="11" fill="#444" font-family="Arial, Helvetica, sans-serif">40</text>
<line x1="70" y1="251.00" x2="1180" y2="251.00" stroke="#e3e3e3" stroke-width="1"/>
<text x="62" y="255.00" text-anchor="end" font-size="11" fill="#444" font-family="Arial, Helvetica, sans-serif">20</text>
<line x1="70" y1="305.00" x2="1180" y2="305.00" stroke="#e3e3e3" stroke-width="1"/>
<text x="62" y="309.00" text-anchor="end" font-size="11" fill="#444" font-family="Arial, Helvetica, sans-serif">0</text>
<line x1="70" y1="35" x2="70" y2="305" stroke="#999"/>
<line x1="70" y1="305" x2="1180" y2="305" stroke="#999"/>
<text x="70.00" y="323" text-anchor="middle" font-size="10" fill="#444" font-family="Arial, Helvetica, sans-serif">2026-02-11 16:38</text>
<text x="347.50" y="323" text-anchor="middle" font-size="10" fill="#444" font-family="Arial, Helvetica, sans-serif">2026-02-13 02:10</text>
<text x="625.00" y="323" text-anchor="middle" font-size="10" fill="#444" font-family="Arial, Helvetica, sans-serif">2026-02-14 11:42</text>
<text x="902.50" y="323" text-anchor="middle" font-size="10" fill="#444" font-family="Arial, Helvetica, sans-serif">2026-02-15 21:14</text>
<text x="1180.00" y="323" text-anchor="middle" font-size="10" fill="#444" font-family="Arial, Helvetica, sans-serif">2026-02-17 06:46</text>
<polyline fill="none" stroke="#d62728" stroke-opacity="0.95" stroke-width="2" points="70.74,304.46 71.49,298.79 72.23,296.90 72.97,303.92 73.72,304.73 74.46,304.46 75.20,303.92 76.01,304.73 76.74,303.92 77.48,304.46 78.22,303.92 78.97,304.46 79.71,304.46 80.45,303.92 81.78,304.46 82.94,303.92 83.69,304.46 84.45,303.92 85.19,300.95 85.93,304.73 86.65,278.27 87.40,303.92 88.14,304.46 88.89,294.74 89.64,304.46 90.39,303.92 91.14,301.49 91.88,303.92 92.66,295.28 93.41,294.20 94.15,303.65 94.91,304.46 95.65,304.46 96.40,303.92 97.16,303.65 97.90,302.30 98.64,303.92 99.40,304.46 100.13,303.92 100.87,304.73 101.60,304.73 102.34,304.46 103.09,303.38 103.83,304.46 104.59,303.92 105.33,303.38 106.07,304.46 106.81,297.71 107.56,297.44 108.30,48.23 109.15,303.92 109.89,303.92 110.63,304.46 111.37,303.65 112.10,303.65 112.84,304.46 113.58,304.46 114.32,303.92 115.06,304.46 115.82,303.92 116.56,304.46 117.29,304.46 118.04,299.60 118.79,303.65 119.53,303.92 120.27,304.73 121.01,303.92 121.74,304.73 122.48,304.46 123.22,304.46 123.96,304.46 124.70,303.92 125.43,304.73 126.18,303.92 126.92,304.46 127.66,304.73 128.40,303.38 129.14,303.38 129.88,303.65 130.64,304.46 131.38,303.65 132.12,304.73 132.86,304.46 133.60,304.46 134.35,304.73 135.09,303.92 135.82,303.92 136.56,304.46 137.30,304.73 138.05,299.60 138.79,303.65 139.54,304.46 140.27,304.73 141.01,303.65 141.75,303.92 142.49,304.46 143.23,304.46 143.97,303.92 144.71,303.92 145.45,303.92 146.19,304.46 146.94,303.92 147.68,303.92 148.43,298.79 149.18,303.65 149.92,304.46 150.66,304.73 151.40,304.73 152.13,304.46 152.88,304.46 153.63,304.46 154.37,304.46 155.11,302.84 155.85,304.46 156.60,304.46 157.34,304.46 158.10,304.46 158.83,304.46 159.58,304.46 160.32,303.65 161.06,304.73 161.80,303.38 162.55,304.46 163.35,304.46 164.09,304.73 164.84,303.92 165.58,303.92 166.32,304.46 167.05,299.87 167.78,304.46 168.52,304.73 169.26,295.01 170.00,304.46 170.74,303.92 171.48,303.92 172.22,303.92 172.96,304.46 173.71,303.65 174.45,304.46 175.19,304.46 175.93,304.46 176.67,303.92 177.41,303.92 178.15,303.92 178.90,304.73 179.64,304.46 180.38,304.46 181.12,303.92 181.86,304.46 182.60,303.65 183.34,303.92 184.08,303.65 184.82,304.73 185.57,304.46 186.31,304.46 187.05,304.46 187.80,303.11 188.54,303.38 189.28,304.46 190.02,304.46 190.77,304.46 191.52,303.65 192.27,303.92 193.01,304.46 193.76,297.71 194.49,294.20 195.23,303.92 195.97,304.46 196.71,303.65 197.45,297.71 198.18,304.46 198.92,303.92 199.67,304.46 200.41,304.46 201.15,303.92 201.89,303.38 202.65,304.73 203.39,303.92 204.13,303.38 204.87,303.92 205.61,304.46 206.41,304.46 207.17,303.92 207.91,304.73 208.64,304.46 209.38,304.46 210.12,304.73 210.86,304.46 211.61,304.73 212.35,35.00 213.09,303.65 213.83,303.11 214.57,297.17 215.33,304.46 216.07,304.46 216.80,304.46 217.54,303.92 218.29,303.65 219.05,304.46 219.81,303.11 220.54,304.73 221.28,304.46 222.03,303.92 222.76,304.73 223.51,304.46 224.25,303.92 225.00,304.73 225.74,304.46 226.48,304.46 227.23,304.46 227.97,303.92 228.71,303.65 229.45,304.46 230.20,303.65 230.94,304.46 231.68,301.76 232.42,302.03 233.15,304.46 233.90,304.46 234.64,304.46 235.38,35.00 236.12,303.65 236.85,303.92 237.59,304.46 238.34,304.46 239.08,303.65 239.82,304.46 240.58,304.73 241.32,304.46 242.06,304.73 242.80,35.00 243.55,304.73 244.29,303.65 245.03,304.46 245.77,303.65 246.53,304.73 247.27,300.68 248.02,303.65 248.76,303.92 249.50,304.46 250.24,304.46 250.98,304.46 251.72,304.46 252.46,304.73 253.21,304.73 253.95,304.73 254.69,303.65 255.44,303.92 256.18,303.92 256.92,304.73 257.67,35.00 258.42,304.46 259.15,303.92 259.89,304.73 260.64,303.92 261.39,304.73 262.14,303.92 262.88,304.46 263.62,303.92 264.44,304.73 265.19,304.46 265.93,303.65 266.67,304.46 267.42,304.46 268.16,303.92 268.91,304.46 269.65,303.65 270.39,304.73 271.15,295.28 271.90,297.17 272.64,304.46 273.38,304.46 274.12,304.46 274.86,304.73 275.61,304.46 276.38,303.65 277.12,304.46 277.86,303.92 278.61,304.73 279.41,304.73 280.15,304.73 281.09,303.65 282.34,304.46 283.10,303.92 283.86,303.92 284.60,304.73 285.32,304.46 286.06,303.92 286.82,303.65 287.56,304.46 288.31,304.73 289.08,303.92 289.85,35.00 290.63,303.65 291.38,304.46 292.12,304.73 292.86,303.92 293.62,303.92 294.37,303.65 295.12,304.46 295.85,303.92 296.59,304.46 297.37,304.46 298.11,304.46 298.85,304.46 299.59,304.46 300.35,303.92 301.12,304.46 301.86,303.92 302.60,303.92 303.37,303.65 304.08,303.92 304.82,303.65 305.57,303.92 306.31,303.92 307.06,303.92 307.83,303.11 308.57,303.92 309.31,303.92 310.07,304.46 310.81,304.46 311.56,303.65 312.30,304.73 313.03,299.06 313.78,304.73 314.52,304.46 315.26,48.23 316.15,48.50 317.02,48.77 317.90,48.50 318.76,48.23 319.61,48.50 320.46,48.50 321.34,48.77 322.20,304.46 322.95,304.46 323.68,304.46 324.42,303.92 325.16,304.46 325.90,304.46 326.64,303.92 327.38,304.19 328.12,303.65 328.86,304.73 329.60,303.92 330.34,303.92 331.08,304.46 331.82,304.73 332.55,304.73 333.29,304.46 334.03,304.46 334.77,304.46 335.51,303.92 336.25,304.46 337.00,304.73 337.73,303.65 338.47,304.46 339.20,35.00 339.94,304.46 340.69,304.46 341.43,304.73 342.17,304.46 342.91,304.73 343.65,35.00 344.39,304.46 345.13,304.46 345.87,304.73 346.60,303.92 347.34,303.92 348.08,303.92 348.81,303.38 349.55,304.73 350.28,303.65 351.02,304.46 351.76,303.92 352.50,304.46 353.24,304.73 353.97,303.92 354.70,303.38 355.43,304.73 356.20,303.65 356.99,304.73 357.74,304.73 358.48,304.46 359.22,303.92 359.96,303.65 360.69,297.44 361.43,297.71 362.16,48.50 363.04,48.50 363.91,48.50 364.77,48.23 365.64,48.50 366.51,48.23 367.38,48.50 368.26,48.77 369.16,295.82 369.97,297.17 370.76,304.73 371.51,303.92 372.26,303.92 373.00,304.73 373.73,303.92 374.47,304.46 375.21,304.46 375.95,304.46 376.69,304.46 377.43,304.46 378.17,304.73 378.91,303.11 379.65,304.73 380.40,303.92 381.14,304.46 381.88,304.73 382.52,304.46 383.29,303.92 384.03,304.73 384.79,304.73 385.53,304.73 386.27,303.92 387.01,35.00 387.76,304.73 388.50,304.73 389.25,304.46 390.00,304.73 390.75,303.65 391.49,304.46 392.22,304.73 392.97,304.73 393.70,304.73 394.44,35.00 395.17,303.92 395.92,303.92 396.66,303.92 397.40,303.65 398.14,304.46 398.88,304.46 399.62,303.92 400.36,304.46 401.11,304.46 401.86,304.73 402.60,303.92 403.33,301.22 404.08,304.46 404.83,304.46 405.59,304.46 406.32,303.65 407.06,304.46 407.80,304.73 408.54,304.46 409.27,300.68 410.02,303.92 410.76,304.73 411.50,304.46 412.24,304.73 412.97,303.38 413.71,303.92 414.46,304.73 415.21,304.73 415.95,303.92 416.84,303.92 417.60,303.92 418.36,303.65 419.11,304.46 419.85,302.84 420.60,304.46 421.34,304.46 422.07,303.92 422.82,303.92 423.57,303.11 424.31,304.73 425.05,304.46 425.80,304.46 426.54,304.46 427.30,304.73 428.06,304.73 428.80,304.46 429.54,304.73 430.29,304.73 431.03,302.57 431.76,302.84 432.51,301.22 433.28,303.92 434.02,304.46 434.77,304.46 435.51,304.46 436.25,303.92 437.00,304.73 437.74,304.46 438.48,304.46 439.22,303.92 439.97,304.46 440.71,304.46 441.45,304.46 442.19,297.44 442.93,303.92 443.67,304.46 444.43,304.46 445.17,300.68 445.91,303.92 446.65,289.07 447.39,303.65 448.15,302.03 448.89,302.84 449.78,302.84 450.54,304.46 451.28,304.46 452.03,303.92 452.77,304.73 453.51,303.92 454.25,303.92 455.00,303.65 455.76,304.46 456.49,303.92 457.23,304.73 457.97,304.46 458.71,304.46 459.45,303.92 460.19,304.73 460.94,304.46 461.68,304.73 462.42,304.46 463.16,304.73 463.90,304.73 464.65,303.92 465.39,304.46 466.12,304.73 466.88,304.46 467.62,304.46 468.36,304.73 469.10,304.46 469.85,303.38 470.61,303.92 471.35,304.73 472.09,304.73 472.84,303.92 473.58,303.92 474.32,304.46 475.06,303.92 475.81,303.92 476.57,304.73 477.31,303.92 478.05,304.46 478.78,303.92 479.52,304.46 480.26,304.73 481.01,303.92 481.75,304.73 482.50,304.46 483.25,304.73 483.99,298.79 484.72,303.92 485.47,303.92 486.21,304.46 486.95,304.46 487.69,303.65 488.44,303.65 489.17,304.73 489.92,303.92 490.67,303.92 491.41,235.88 492.16,236.69 492.91,236.69 493.65,236.69 494.39,236.15 495.14,232.10 495.98,227.51 496.79,228.59 497.59,222.65 498.33,236.42 499.11,236.15 499.85,235.61 500.60,236.69 501.33,236.69 502.03,236.15 502.80,235.61 503.54,236.15 504.29,236.42 505.03,233.18 505.77,236.69 506.51,236.42 507.26,236.15 508.00,235.61 508.74,235.88 509.48,236.42 510.22,236.42 510.97,236.96 511.72,236.42 512.47,235.61 513.22,236.69 513.96,236.15 514.70,236.42 515.45,242.63 516.21,255.86 516.95,236.69 517.69,235.88 518.43,236.15 519.17,236.42 519.91,235.88 520.65,236.15 521.40,236.96 522.14,236.15 522.89,236.69 523.63,236.96 524.37,236.15 525.11,236.96 525.86,236.15 526.60,236.42 527.35,234.53 528.09,236.15 528.83,236.69 529.58,236.69 530.33,235.34 531.07,236.15 531.82,236.15 532.57,235.61 533.31,236.69 534.06,236.96 534.80,235.61 535.55,232.91 536.32,234.26 537.06,236.42 537.80,236.42 538.55,236.15 539.29,236.96 540.03,236.15 540.78,236.69 541.52,236.96 542.27,234.53 543.01,236.42 543.76,236.69 544.50,236.42 545.25,236.15 546.00,236.42 546.74,235.88 547.49,236.15 548.24,236.96 548.99,235.61 549.74,235.88 550.48,235.88 551.22,236.42 551.97,236.42 552.71,236.69 553.48,236.69 554.22,236.42 554.97,235.61 555.72,236.15 556.46,236.15 557.20,235.34 557.94,236.69 558.69,235.61 559.44,236.69 560.18,235.88 560.92,236.69 561.66,232.91 562.41,235.88 563.16,236.42 563.90,235.88 564.64,235.61 565.40,236.69 566.14,235.88 566.89,236.42 567.63,236.42 568.37,236.69 569.11,236.15 569.85,235.88 570.60,236.42 571.34,235.61 572.09,201.32 572.84,236.69 573.59,236.15 574.33,236.42 575.08,236.42 575.83,235.61 576.57,230.48 577.32,235.34 578.07,283.40 578.81,236.69 579.56,230.75 580.31,236.69 581.06,224.00 581.81,236.42 582.55,236.15 583.31,235.61 584.06,235.88 584.81,236.15 585.56,236.96 586.30,230.48 587.05,235.88 587.79,236.15 588.55,235.61 589.29,243.17 590.04,296.63 590.78,236.15 591.52,235.61 592.28,236.69 593.02,229.94 593.78,229.94 594.52,236.15 595.26,236.42 596.00,236.69 596.74,235.61 597.48,236.69 598.23,236.69 598.97,236.42 599.72,236.15 600.46,236.69 601.21,236.69 601.95,236.42 602.72,231.29 603.47,236.69 604.20,236.15 604.95,236.42 605.69,235.88 606.43,235.61 607.18,235.61 607.93,236.42 608.67,236.96 609.42,236.69 610.17,236.69 610.91,235.61 611.65,235.88 612.40,235.88 613.15,236.69 613.92,236.69 614.67,235.61 615.42,236.15 616.17,283.13 616.91,236.42 617.67,236.69 618.40,235.88 619.15,236.15 619.88,235.07 620.64,236.42 621.38,236.69 622.13,236.15 622.88,237.23 623.63,236.15 624.41,236.15 625.15,236.15 625.90,236.69 626.64,236.69 627.39,236.42 628.14,236.69 628.89,236.69 629.64,235.61 630.39,236.42 631.14,235.34 631.89,236.96 632.64,235.61 633.38,236.69 634.13,236.69 634.87,236.15 635.62,236.42 636.36,236.42 637.12,296.90 637.87,236.15 638.61,235.61 639.36,236.42 640.11,236.42 640.85,236.69 641.60,236.69 642.35,236.69 643.10,236.69 643.87,235.34 644.62,235.88 645.37,233.45 646.11,236.15 646.88,236.15 647.64,235.07 648.40,234.26 649.16,234.26 649.93,235.88 650.68,290.15 651.42,236.69 652.17,236.42 652.92,236.15 653.66,236.42 654.41,235.34 655.18,236.69 655.92,236.15 656.67,236.69 657.42,235.88 658.16,236.15 658.90,236.69 659.65,236.42 660.39,236.96 661.14,231.83 661.88,236.42 662.62,236.42 663.37,236.42 664.10,236.42 664.85,236.15 665.60,236.69 666.35,236.42 667.09,232.64 667.84,235.88 668.60,237.23 669.34,236.42 670.08,235.88 670.83,236.42 671.58,283.94 672.32,236.15 673.06,236.42 673.81,236.42 674.56,236.42 675.30,290.42 676.03,236.42 676.78,236.69 677.52,236.42 678.27,236.15 679.01,236.69 679.76,235.88 680.51,234.53 681.25,235.34 681.99,236.69 682.74,236.42 683.49,236.15 684.22,236.42 684.96,235.61 685.69,236.69 686.43,236.42 687.18,235.34 687.94,235.88 688.68,236.15 689.43,235.61 690.17,236.69 690.93,236.15 691.68,235.61 692.42,236.15 693.18,235.07 693.92,236.15 694.66,235.61 695.42,236.69 696.16,236.15 696.92,235.61 697.67,290.15 698.41,236.42 699.15,236.69 699.90,236.15 700.64,235.61 701.38,236.42 702.13,236.69 702.86,235.88 703.61,235.88 704.36,235.88 705.10,236.69 705.84,236.15 706.59,236.15 707.33,236.42 708.08,235.34 708.83,235.88 709.58,236.15 710.32,236.15 711.06,235.61 711.81,236.42 712.56,236.96 713.30,235.34 714.05,236.42 714.80,236.15 715.54,236.15 716.28,235.88 717.03,236.42 717.78,233.18 718.52,236.69 719.26,235.88 720.01,236.15 720.78,236.69 721.52,236.15 722.28,235.88 723.04,232.91 723.78,236.15 724.53,283.67 725.28,236.42 726.03,235.88 726.77,234.80 727.51,235.34 728.27,236.15 729.03,234.53 729.78,236.69 730.52,236.42 731.27,236.69 732.01,236.96 732.76,235.88 733.51,236.42 734.25,236.69 734.99,235.61 735.74,236.42 736.49,236.42 737.23,236.69 737.97,236.15 738.72,236.42 739.46,236.15 740.20,235.61 740.95,236.15 741.69,235.07 742.43,236.15 743.19,236.69 743.93,231.83 744.68,235.61 745.42,285.02 746.17,236.69 746.90,236.15 747.66,236.69 748.40,231.29 749.16,283.13 749.90,236.42 750.64,234.53 751.38,235.88 752.13,236.69 752.88,236.42 753.61,229.40 754.37,236.69 755.14,235.34 755.89,235.88 756.66,236.15 757.41,235.61 758.17,236.15 758.94,236.69 759.70,236.69 760.47,236.15 761.23,229.94 762.00,236.42 762.74,236.42 763.48,235.34 764.23,230.75 764.99,236.15 765.73,236.15 766.48,236.69 767.23,236.96 767.98,235.88 768.72,235.34 769.47,236.15 770.21,235.88 770.95,235.61 771.70,236.69 772.44,235.07 773.19,231.83 773.94,236.69 774.68,235.88 775.42,236.15 776.18,236.42 776.93,236.42 777.68,232.91 778.42,236.69 779.16,235.88 779.91,236.15 780.66,231.02 781.41,290.69 782.15,236.69 782.89,232.64 783.64,243.71 784.39,236.69 785.13,236.69 785.88,235.88 786.62,236.15 787.37,235.88 788.17,235.61 788.94,234.53 789.68,236.15 790.43,235.61 791.17,262.88 791.93,230.21 792.68,236.69 793.43,230.21 794.18,236.42 794.92,235.61 795.65,236.69 796.39,236.15 797.14,236.42 797.88,236.69 798.63,233.18 799.37,236.15 800.13,236.69 800.88,236.15 801.63,236.69 802.37,236.69 803.11,236.42 803.85,235.61 804.60,236.15 805.35,236.15 806.09,236.15 806.84,235.07 807.59,236.42 808.34,231.56 809.08,236.69 809.86,235.61 810.61,236.69 811.35,235.61 812.10,235.61 812.84,235.34 813.59,236.42 814.34,236.42 815.09,236.42 815.83,296.90 816.58,236.42 817.33,236.69 818.09,249.38 818.84,236.15 819.59,236.15 820.33,235.88 821.07,236.42 821.82,236.15 822.57,232.91 823.32,235.88 824.06,236.69 824.81,235.34 825.56,236.42 826.30,236.42 827.05,235.61 827.79,236.15 828.54,236.15 829.29,236.69 830.03,236.69 830.77,236.15 831.52,235.88 832.27,236.96 833.01,235.88 833.76,236.96 834.50,236.42 835.25,235.34 836.00,236.15 836.74,232.10 837.49,236.69 838.22,236.15 838.96,297.17 839.71,236.42 840.46,236.42 841.21,236.42 841.97,236.42 842.72,230.75 843.46,236.15 844.22,236.69 844.96,235.88 845.72,236.42 846.52,236.15 847.28,231.83 848.03,235.07 848.79,234.80 849.54,235.88 850.28,270.17 851.03,236.15 851.78,236.42 852.52,243.17 853.27,236.69 854.02,235.34 854.76,236.69 855.51,236.69 856.27,236.96 857.02,236.69 857.77,236.69 858.52,235.88 859.26,236.15 860.01,236.69 860.76,236.15 861.50,234.80 862.25,236.69 863.00,236.15 863.75,236.42 864.50,236.42 865.25,235.34 866.00,236.69 866.75,236.69 867.50,236.69 868.25,236.69 869.00,236.15 869.74,235.88 870.49,236.69 871.24,236.69 871.98,236.15 872.72,236.69 873.47,291.23 874.21,235.61 874.96,236.69 875.71,236.15 876.45,236.15 877.20,235.61 877.95,235.34 878.70,236.15 879.44,236.42 880.19,236.69 880.94,236.42 881.70,235.61 882.44,236.69 883.17,236.69 883.90,236.42 884.64,236.15 885.39,236.15 886.14,236.42 886.89,236.42 887.65,236.42 888.39,236.69 889.14,235.88 889.90,235.61 890.64,236.69 891.39,236.42 892.13,236.15 892.87,236.42 893.61,234.26 894.35,235.88 895.10,233.99 895.85,235.88 896.59,235.88 897.33,235.07 898.07,236.42 898.82,236.15 899.57,236.42 900.32,236.42 901.05,236.42 901.80,289.61 902.52,236.69 903.28,235.61 904.03,235.88 904.77,236.69 905.52,236.15 906.28,236.69 907.02,236.69 907.76,236.69 908.51,236.42 909.26,236.69 910.01,236.69 910.75,236.15 911.55,236.15 912.30,236.15 913.05,236.15 913.80,236.42 914.56,236.69 915.29,236.15 916.04,236.15 916.79,235.61 917.53,236.42 918.28,236.69 919.02,236.42 919.77,236.42 920.52,236.42 921.27,236.15 922.02,236.42 922.76,236.96 923.50,236.69 924.25,236.42 925.00,236.42 925.75,235.61 926.50,230.21 927.26,235.07 928.02,236.69 928.77,236.69 929.51,236.69 930.26,236.69 931.01,236.69 931.77,236.69 932.51,235.61 933.25,236.42 934.00,235.88 934.74,304.46 935.49,303.11 936.24,304.46 936.99,304.46 937.73,304.46 938.48,304.46 939.23,303.65 939.97,304.46 940.71,304.46 941.46,304.46 942.21,299.60 942.95,303.92 943.69,304.46 944.44,304.73 945.18,303.92 945.92,304.46 946.66,304.46 947.40,304.46 948.14,304.46 948.89,304.46 949.63,304.46 950.38,304.73 951.11,304.46 951.86,303.92 952.60,302.84 953.35,304.73 954.09,304.46 954.83,304.46 955.57,303.92 956.31,304.46 957.07,304.46 957.81,304.46 958.55,304.46 959.30,304.46 960.08,301.22 960.82,304.73 961.57,303.92 962.32,304.73 963.07,303.92 963.82,304.46 964.57,304.46 965.32,304.73 966.06,304.73 966.81,304.46 967.54,304.46 968.29,304.73 969.04,304.46 969.78,303.65 970.53,304.46 971.27,304.46 972.01,304.46 972.76,304.73 973.50,304.46 974.25,304.73 975.00,304.73 975.78,304.46 976.52,301.49 977.26,304.46 978.00,304.46 978.74,303.92 979.50,304.46 980.24,297.44 980.98,304.46 981.73,304.73 982.48,304.73 983.23,304.73 983.97,303.38 984.72,304.46 985.47,304.46 986.21,303.11 986.96,304.73 987.71,303.65 988.45,304.46 989.19,301.76 989.93,304.46 990.67,297.44 991.42,304.46 992.16,304.46 992.90,302.84 993.65,304.73 994.39,304.46 995.14,304.46 995.89,303.11 996.63,304.46 997.38,304.46 998.12,303.92 998.87,303.92 999.61,304.46 1000.36,303.92 1001.10,303.92 1001.85,303.92 1002.60,304.46 1003.34,303.92 1004.07,303.92 1004.82,304.46 1005.57,303.38 1006.31,304.46 1007.08,304.73 1007.82,304.46 1008.56,304.46 1009.31,304.73 1010.06,304.73 1010.80,35.00 1011.56,303.92 1012.31,304.73 1013.11,300.95 1013.85,298.25 1014.66,303.92 1015.40,304.73 1016.14,304.46 1016.88,304.73 1017.63,304.46 1018.37,304.46 1019.12,304.46 1019.86,304.46 1020.61,297.17 1021.35,304.46 1022.10,303.92 1022.84,303.65 1023.58,304.46 1024.33,304.46 1025.07,303.65 1025.82,304.46 1026.56,304.19 1027.30,304.46 1028.05,304.73 1028.79,304.46 1029.55,304.46 1030.29,299.06 1031.02,303.38 1031.77,303.92 1032.51,304.46 1033.27,304.19 1034.01,303.65 1034.76,303.65 1035.51,303.65 1036.25,303.92 1036.99,303.65 1037.73,304.46 1038.48,303.65 1039.22,303.65 1039.96,304.73 1040.70,304.46 1041.44,304.73 1042.18,303.92 1042.93,304.46 1043.67,304.46 1044.42,303.92 1045.17,304.46 1045.94,304.46 1046.69,302.30 1047.43,302.03 1048.17,304.46 1048.91,297.17 1049.65,303.92 1050.39,304.46 1051.14,303.92 1051.88,303.65 1052.62,303.65 1053.36,303.92 1054.10,303.92 1054.84,303.65 1055.58,303.92 1056.33,303.92 1057.07,303.92 1057.81,304.73 1058.57,303.92 1059.30,304.46 1060.04,304.73 1060.80,301.76 1061.54,304.46 1062.29,303.92 1063.03,304.46 1063.77,304.46 1064.52,304.46 1065.27,303.92 1066.02,304.46 1066.77,303.92 1067.51,304.46 1068.25,304.46 1069.00,303.92 1069.75,304.46 1070.49,304.46 1071.26,301.76 1072.00,304.46 1072.75,303.92 1073.50,304.46 1074.25,303.65 1074.99,303.38 1075.73,304.46 1076.48,304.46 1077.23,303.92 1077.98,303.65 1078.71,304.73 1079.46,304.73 1080.21,304.73 1080.96,303.92 1081.71,304.73 1082.47,304.73 1083.23,302.84 1084.02,303.92 1084.78,304.46 1085.52,304.46 1086.26,303.11 1087.00,303.65 1087.75,303.65 1088.49,304.46 1089.24,304.73 1089.99,304.46 1090.74,303.65 1091.49,303.92 1092.23,303.92 1092.97,304.73 1093.71,300.68 1094.46,304.73 1095.21,303.92 1095.97,304.46 1096.73,304.46 1097.48,304.46 1098.24,304.46 1099.02,304.46 1099.77,304.46 1100.56,303.92 1101.31,304.46 1102.05,304.46 1102.80,304.46 1103.55,304.46 1104.29,304.46 1105.04,304.46 1105.78,304.73 1106.52,304.73 1107.27,303.92 1108.01,303.38 1108.77,303.38 1109.52,304.46 1110.27,304.73 1111.03,303.92 1111.90,303.92 1112.65,304.46 1113.38,304.73 1114.13,304.73 1114.87,304.73 1115.60,303.92 1116.34,304.46 1117.03,304.46 1117.70,304.46 1118.50,296.90 1119.20,304.46 1119.88,304.46 1120.65,303.65 1121.29,304.46 1122.03,304.46 1122.78,304.46 1123.53,304.46 1124.27,303.92 1125.01,304.73 1125.75,304.46 1126.49,303.92 1127.23,302.84 1127.98,304.73 1128.72,300.95 1129.46,303.65 1130.21,303.92 1130.95,304.73 1131.69,304.46 1132.44,303.92 1133.17,303.38 1133.91,304.46 1134.65,303.92 1135.39,303.65 1136.13,304.73 1136.87,303.92 1137.62,303.92 1138.37,304.46 1139.11,304.73 1139.84,304.46 1140.59,304.46 1141.33,304.46 1142.07,303.65 1142.81,304.46 1143.55,303.92 1144.29,304.73 1145.03,303.92 1145.77,304.73 1146.51,303.92 1147.25,304.46 1148.00,304.46 1148.74,304.46 1149.49,303.92 1150.23,304.46 1150.97,304.46 1151.71,304.46 1152.45,304.73 1153.20,304.46 1153.94,302.57 1154.67,304.46 1155.41,303.11 1156.15,303.92 1156.89,304.73 1157.63,297.44 1158.36,304.73 1159.12,304.73 1159.87,304.46 1160.61,304.73 1161.35,303.65 1162.10,304.46 1162.84,304.73 1163.59,303.92 1164.33,304.46 1165.08,304.46 1165.82,304.46 1166.56,304.19 1167.30,304.73 1168.04,304.73 1168.79,303.38 1169.53,304.73 1170.27,304.73 1171.02,304.46 1171.76,304.73 1172.50,304.73 1173.24,304.46 1173.98,304.46 1174.73,304.73 1175.47,302.84 1176.21,303.65 1176.95,304.73 1177.70,303.92 1178.45,304.46 1179.26,304.46 1180.00,303.38"/>
<polyline fill="none" stroke="#d62728" stroke-opacity="0.80" stroke-width="2" points="70.00,303.38 70.74,304.19 71.49,302.57 72.23,303.38 72.97,304.19 73.72,287.72 74.46,303.38 75.20,304.19 76.01,304.19 76.74,303.38 77.48,303.38 78.22,304.19 78.97,304.19 79.71,304.19 80.45,304.19 81.78,304.19 82.94,302.57 83.69,304.19 84.45,304.19 85.19,304.19 85.93,303.38 86.65,303.38 87.40,304.19 88.14,302.57 88.89,302.57 89.64,303.38 90.39,303.38 91.14,304.19 91.88,303.38 92.66,35.00 93.41,303.38 94.15,35.00 94.91,35.00 95.65,303.38 96.40,304.19 97.16,35.00 97.90,303.38 98.64,302.57 99.40,304.19 100.13,303.38 100.87,303.38 101.60,302.57 102.34,304.19 103.09,303.38 103.83,303.38 104.59,302.57 105.33,303.38 106.07,35.00 106.81,303.38 107.56,304.19 108.30,304.19 109.15,302.57 109.89,35.00 110.63,304.19 111.37,303.38 112.10,304.19 112.84,303.38 113.58,303.38 114.32,304.19 115.06,35.00 115.82,304.19 116.56,304.19 117.29,304.19 118.04,303.38 118.79,304.19 119.53,302.57 120.27,304.19 121.01,302.57 121.74,302.57 122.48,303.38 123.22,288.80 123.96,302.57 124.70,304.19 125.43,304.19 126.18,303.38 126.92,304.19 127.66,300.14 128.40,304.19 129.14,304.19 129.88,304.19 130.64,35.00 131.38,35.00 132.12,302.57 132.86,35.00 133.60,35.00 134.35,303.38 135.09,304.19 135.82,35.00 136.56,304.19 137.30,304.19 138.05,304.19 138.79,304.19 139.54,303.38 140.27,303.38 141.01,304.19 141.75,304.19 142.49,303.38 143.23,286.91 143.97,303.38 144.71,304.19 145.45,304.19 146.19,304.19 146.94,303.38 147.68,304.19 148.43,304.19 149.18,303.38 149.92,302.57 150.66,302.57 151.40,304.19 152.13,302.57 152.88,304.19 153.63,304.19 154.37,304.19 155.11,35.00 155.85,304.19 156.60,304.19 157.34,302.57 158.10,35.00 158.83,35.00 159.58,303.38 160.32,304.19 161.06,303.38 161.80,304.19 162.55,304.19 163.35,302.57 164.09,304.19 164.84,35.00 165.58,35.00 166.32,302.57 167.05,304.19 167.78,304.19 168.52,303.38 169.26,35.00 170.00,303.38 170.74,35.00 171.48,304.19 172.22,304.19 172.96,304.19 173.71,303.38 174.45,303.38 175.19,304.19 175.93,304.19 176.67,295.28 177.41,35.00 178.15,303.38 178.90,35.00 179.64,35.00 180.38,302.57 181.12,304.19 181.86,299.33 182.60,304.19 183.34,304.19 184.08,304.19 184.82,303.38 185.57,303.38 186.31,303.38 187.05,302.57 187.80,303.38 188.54,304.19 189.28,303.38 190.02,304.19 190.77,303.38 191.52,304.19 192.27,303.38 193.01,303.38 193.76,302.57 194.49,303.38 195.23,304.19 195.97,303.38 196.71,35.00 197.45,304.19 198.18,303.38 198.92,302.57 199.67,304.19 200.41,304.19 201.15,303.38 201.89,303.38 202.65,304.19 203.39,35.00 204.13,303.38 204.87,35.00 205.61,302.57 206.41,303.38 207.17,304.19 207.91,35.00 208.64,303.38 209.38,35.00 210.12,304.19 210.86,304.19 211.61,35.00 212.35,304.19 213.09,302.57 213.83,302.57 214.57,303.38 215.33,35.00 216.07,302.57 216.80,304.19 217.54,301.76 218.29,303.38 219.05,303.38 219.81,304.19 220.54,303.38 221.28,303.38 222.03,304.19 222.76,304.19 223.51,303.38 224.25,304.19 225.00,304.19 225.74,303.38 226.48,35.00 227.23,304.19 227.97,303.38 228.71,304.19 229.45,304.19 230.20,304.19 230.94,35.00 231.68,35.00 232.42,302.57 233.15,302.57 233.90,304.19 234.64,303.38 235.38,302.57 236.12,302.57 236.85,35.00 237.59,304.19 238.34,35.00 239.08,303.38 239.82,35.00 240.58,303.38 241.32,303.38 242.06,303.38 242.80,35.00 243.55,304.19 244.29,302.57 245.03,303.38 245.77,304.19 246.53,303.38 247.27,35.00 248.02,303.38 248.76,304.19 249.50,303.38 250.24,304.19 250.98,35.00 251.72,302.57 252.46,304.19 253.21,304.19 253.95,303.38 254.69,303.38 255.44,304.19 256.18,303.38 256.92,304.19 257.67,304.19 258.42,304.19 259.15,303.38 259.89,302.57 260.64,304.19 261.39,35.00 262.14,295.28 262.88,303.38 263.62,302.57 264.44,303.38 265.19,301.76 265.93,35.00 266.67,304.19 267.42,303.38 268.16,304.19 268.91,304.19 269.65,299.33 270.39,304.19 271.15,303.38 271.90,302.57 272.64,303.38 273.38,302.57 274.12,304.19 274.86,304.19 275.61,304.19 276.38,302.57 277.12,303.38 277.86,303.38 278.61,35.00 279.41,303.38 280.15,303.38 281.09,304.19 282.34,302.57 283.10,303.38 283.86,303.38 284.60,303.38 285.32,304.19 286.06,303.38 286.82,304.19 287.56,304.19 288.31,303.38 289.08,304.19 289.85,304.19 290.63,304.19 291.38,304.19 292.12,302.57 292.86,35.00 293.62,304.19 294.37,302.57 295.12,303.38 295.85,303.38 296.59,303.38 297.37,304.19 298.11,304.19 298.85,303.38 299.59,304.19 300.35,303.38 301.12,304.19 301.86,303.38 302.60,304.19 303.37,287.18 304.08,288.53 304.82,301.76 305.57,302.57 306.31,303.38 307.06,35.00 307.83,35.00 308.57,303.38 309.31,303.38 310.07,304.19 310.81,304.19 311.56,35.00 312.30,304.19 313.03,35.00 313.78,303.38 314.52,303.38 315.26,302.57 316.15,303.38 317.02,303.38 317.90,300.95 318.76,303.38 319.61,302.57 320.46,304.19 321.34,304.19 322.20,35.00 322.95,303.38 323.68,303.38 324.42,304.19 325.16,304.19 325.90,302.57 326.64,303.38 327.38,304.19 328.12,303.38 328.86,303.38 329.60,304.19 330.34,303.38 331.08,304.19 331.82,303.38 332.55,303.38 333.29,304.19 334.03,303.38 334.77,35.00 335.51,304.19 336.25,304.19 337.00,303.38 337.73,304.19 338.47,304.19 339.20,35.00 339.94,303.38 340.69,304.19 341.43,304.19 342.17,304.19 342.91,302.57 343.65,35.00 344.39,303.38 345.13,287.72 345.87,304.19 346.60,304.19 347.34,303.38 348.08,301.76 348.81,303.38 349.55,304.19 350.28,302.57 351.02,303.38 351.76,303.38 352.50,303.38 353.24,303.38 353.97,304.19 354.70,303.38 355.43,302.57 356.20,304.19 356.99,303.38 357.74,303.38 358.48,303.38 359.22,303.38 359.96,304.19 360.69,304.19 361.43,304.19 362.16,304.19 363.04,303.38 363.91,303.38 364.77,304.19 365.64,302.57 366.51,304.19 367.38,303.38 368.26,302.57 369.16,304.19 369.97,303.38 370.76,303.38 371.51,303.38 372.26,302.57 373.00,35.00 373.73,35.00 374.47,304.19 375.21,303.38 375.95,35.00 376.69,35.00 377.43,303.38 378.17,304.19 378.91,304.19 379.65,304.19 380.40,303.38 381.14,304.19 381.88,304.19 382.52,304.19 383.29,304.19 384.03,287.72 384.79,303.38 385.53,302.57 386.27,303.38 387.01,303.38 387.76,304.19 388.50,304.19 389.25,303.38 390.00,302.57 390.75,304.19 391.49,303.38 392.22,302.57 392.97,304.19 393.70,301.76 394.44,304.19 395.17,304.19 395.92,303.38 396.66,303.38 397.40,304.19 398.14,303.38 398.88,301.76 399.62,304.19 400.36,304.19 401.11,304.19 401.86,35.00 402.60,303.38 403.33,304.19 404.08,304.19 404.83,304.19 405.59,304.19 406.32,35.00 407.06,35.00 407.80,302.57 408.54,304.19 409.27,35.00 410.02,304.19 410.76,303.38 411.50,302.57 412.24,302.57 412.97,304.19 413.71,303.38 414.46,304.19 415.21,303.38 415.95,301.76 416.84,304.19 417.60,304.19 418.36,304.19 419.11,302.57 419.85,304.19 420.60,304.19 421.34,304.19 422.07,303.38 422.82,304.19 423.57,303.38 424.31,35.00 425.05,302.57 425.80,304.19 426.54,302.57 427.30,304.19 428.06,303.38 428.80,304.19 429.54,303.38 430.29,35.00 431.03,302.57 431.76,303.38 432.51,304.19 433.28,304.19 434.02,304.19 434.77,304.19 435.51,303.38 436.25,304.19 437.00,304.19 437.74,304.19 438.48,304.19 439.22,304.19 439.97,304.19 440.71,302.57 441.45,304.19 442.19,303.38 442.93,304.19 443.67,304.19 444.43,304.19 445.17,304.19 445.91,35.00 446.65,304.19 447.39,301.76 448.15,217.79 448.89,304.19 449.78,35.00 450.54,303.38 451.28,302.57 452.03,304.19 452.77,303.38 453.51,304.19 454.25,303.38 455.00,304.19 455.76,304.19 456.49,303.38 457.23,35.00 457.97,35.00 458.71,304.19 459.45,302.57 460.19,304.19 460.94,304.19 461.68,304.19 462.42,303.38 463.16,304.19 463.90,302.57 464.65,304.19 465.39,35.00 466.12,35.00 466.88,303.38 467.62,304.19 468.36,303.38 469.10,300.95 469.85,304.19 470.61,304.19 471.35,304.19 472.09,303.38 472.84,303.38 473.58,302.57 474.32,35.00 475.06,303.38 475.81,35.00 476.57,35.00 477.31,303.38 478.05,304.19 478.78,302.57 479.52,304.19 480.26,304.19 481.01,303.38 481.75,303.38 482.50,296.09 483.25,304.19 483.99,304.19 484.72,304.19 485.47,302.57 486.21,35.00 486.95,303.38 487.69,304.19 488.44,302.57 489.17,302.57 489.92,303.38 490.67,35.00 491.41,303.38 492.16,303.38 492.91,304.19 493.65,304.19 494.39,303.38 495.14,304.19 495.98,303.38 496.79,303.38 497.59,302.57 498.33,304.19 499.11,303.38 499.85,303.38 500.60,304.19 501.33,35.00 502.03,303.38 502.80,287.18 503.54,304.19 504.29,286.37 505.03,302.57 505.77,304.19 506.51,304.19 507.26,304.19 508.00,304.19 508.74,304.19 509.48,35.00 510.22,303.38 510.97,304.19 511.72,35.00 512.47,304.19 513.22,304.19 513.96,303.38 514.70,304.19 515.45,304.19 516.21,303.38 516.95,303.38 517.69,304.19 518.43,304.19 519.17,304.19 519.91,304.19 520.65,302.57 521.40,35.00 522.14,35.00 522.89,304.19 523.63,303.38 524.37,304.19 525.11,304.19 525.86,304.19 526.60,304.19 527.35,304.19 528.09,301.76 528.83,303.38 529.58,302.57 530.33,304.19 531.07,35.00 531.82,304.19 532.57,304.19 533.31,303.38 534.06,35.00 534.80,304.19 535.55,304.19 536.32,304.19 537.06,35.00 537.80,304.19 538.55,304.19 539.29,303.38 540.03,303.38 540.78,35.00 541.52,35.00 542.27,303.38 543.01,304.19 543.76,302.57 544.50,302.57 545.25,304.19 546.00,295.28 546.74,303.38 547.49,304.19 548.24,304.19 548.99,303.38 549.74,35.00 550.48,304.19 551.22,302.57 551.97,35.00 552.71,302.57 553.48,303.38 554.22,304.19 554.97,303.38 555.72,304.19 556.46,35.00 557.20,35.00 557.94,302.57 558.69,303.38 559.44,295.28 560.18,304.19 560.92,304.19 561.66,303.38 562.41,303.38 563.16,304.19 563.90,304.19 564.64,35.00 565.40,303.38 566.14,303.38 566.89,304.19 567.63,35.00 568.37,304.19 569.11,303.38 569.85,35.00 570.60,304.19 571.34,303.38 572.09,302.57 572.84,304.19 573.59,302.57 574.33,304.19 575.08,303.38 575.83,304.19 576.57,304.19 577.32,304.19 578.07,304.19 578.81,304.19 579.56,304.19 580.31,303.38 581.06,303.38 581.81,304.19 582.55,304.19 583.31,304.19 584.06,304.19 584.81,303.38 585.56,304.19 586.30,304.19 587.05,303.38 587.79,303.38 588.55,35.00 589.29,303.38 590.04,303.38 590.78,304.19 591.52,35.00 592.28,302.57 593.02,304.19 593.78,287.18 594.52,304.19 595.26,35.00 596.00,35.00 596.74,304.19 597.48,304.19 598.23,304.19 598.97,304.19 599.72,303.38 600.46,303.38 601.21,303.38 601.95,304.19 602.72,35.00 603.47,35.00 604.20,35.00 604.95,286.37 605.69,302.57 606.43,301.76 607.18,303.38 607.93,303.38 608.67,286.37 609.42,304.19 610.17,304.19 610.91,304.19 611.65,304.19 612.40,303.38 613.15,35.00 613.92,303.38 614.67,304.19 615.42,303.38 616.17,303.38 616.91,35.00 617.67,304.19 618.40,35.00 619.15,303.38 619.88,302.57 620.64,303.38 621.38,303.38 622.13,303.38 622.88,303.38 623.63,303.38 624.41,304.19 625.15,35.00 625.90,303.38 626.64,304.19 627.39,35.00 628.14,35.00 628.89,304.19 629.64,303.38 630.39,304.19 631.14,304.19 631.89,301.76 632.64,304.19 633.38,303.38 634.13,304.19 634.87,301.76 635.62,304.19 636.36,302.57 637.12,302.57 637.87,303.38 638.61,304.19 639.36,35.00 640.11,35.00 640.85,35.00 641.60,303.38 642.35,303.38 643.10,304.19 643.87,35.00 644.62,302.57 645.37,304.19 646.11,35.00 646.88,304.19 647.64,304.19 648.40,303.38 649.16,303.38 649.93,302.57 650.68,304.19 651.42,303.38 652.17,303.38 652.92,304.19 653.66,35.00 654.41,304.19 655.18,35.00 655.92,304.19 656.67,303.38 657.42,35.00 658.16,302.57 658.90,303.38 659.65,298.52 660.39,303.38 661.14,304.19 661.88,303.38 662.62,304.19 663.37,304.19 664.10,35.00 664.85,304.19 665.60,304.19 666.35,35.00 667.09,304.19 667.84,303.38 668.60,304.19 669.34,35.00 670.08,303.38 670.83,303.38 671.58,304.19 672.32,304.19 673.06,304.19 673.81,304.19 674.56,298.52 675.30,303.38 676.03,302.57 676.78,304.19 677.52,302.57 678.27,303.38 679.01,304.19 679.76,304.19 680.51,303.38 681.25,303.38 681.99,304.19 682.74,304.19 683.49,35.00 684.22,35.00 684.96,304.19 685.69,304.19 686.43,303.38 687.18,303.38 687.94,301.76 688.68,304.19 689.43,304.19 690.17,284.75 690.93,303.38 691.68,303.38 692.42,304.19 693.18,304.19 693.92,304.19 694.66,303.38 695.42,303.38 696.16,304.19 696.92,303.38 697.67,303.38 698.41,303.38 699.15,304.19 699.90,304.19 700.64,303.38 701.38,302.57 702.13,303.38 702.86,304.19 703.61,303.38 704.36,304.19 705.10,304.19 705.84,35.00 706.59,303.38 707.33,304.19 708.08,302.57 708.83,304.19 709.58,304.19 710.32,304.19 711.06,303.38 711.81,301.76 712.56,35.00 713.30,304.19 714.05,303.38 714.80,304.19 715.54,35.00 716.28,304.19 717.03,304.19 717.78,304.19 718.52,304.19 719.26,304.19 720.01,35.00 720.78,35.00 721.52,303.38 722.28,304.19 723.04,304.19 723.78,302.57 724.53,35.00 725.28,302.57 726.03,35.00 726.77,35.00 727.51,303.38 728.27,303.38 729.03,304.19 729.78,304.19 730.52,35.00 731.27,304.19 732.01,303.38 732.76,302.57 733.51,304.19 734.25,304.19 734.99,303.38 735.74,302.57 736.49,304.19 737.23,304.19 737.97,304.19 738.72,304.19 739.46,35.00 740.20,35.00 740.95,304.19 741.69,303.38 742.43,35.00 743.19,304.19 743.93,302.57 744.68,304.19 745.42,304.19 746.17,304.19 746.90,294.47 747.66,303.38 748.40,35.00 749.16,304.19 749.90,304.19 750.64,302.57 751.38,304.19 752.13,304.19 752.88,304.19 753.61,303.38 754.37,304.19 755.14,303.38 755.89,304.19 756.66,304.19 757.41,302.57 758.17,302.57 758.94,304.19 759.70,304.19 760.47,301.76 761.23,301.76 762.00,35.00 762.74,304.19 763.48,303.38 764.23,304.19 764.99,304.19 765.73,303.38 766.48,304.19 767.23,35.00 767.98,35.00 768.72,303.38 769.47,304.19 770.21,304.19 770.95,302.57 771.70,303.38 772.44,304.19 773.19,303.38 773.94,304.19 774.68,304.19 775.42,302.57 776.18,35.00 776.93,304.19 777.68,35.00 778.42,35.00 779.16,304.19 779.91,304.19 780.66,303.38 781.41,303.38 782.15,304.19 782.89,304.19 783.64,303.38 784.39,304.19 785.13,304.19 785.88,304.19 786.62,304.19 787.37,304.19 788.17,303.38 788.94,35.00 789.68,301.76 790.43,35.00 791.17,302.57 791.93,304.19 792.68,304.19 793.43,304.19 794.18,303.38 794.92,304.19 795.65,302.57 796.39,304.19 797.14,35.00 797.88,303.38 798.63,304.19 799.37,303.38 800.13,303.38 800.88,302.57 801.63,35.00 802.37,304.19 803.11,35.00 803.85,304.19 804.60,295.28 805.35,304.19 806.09,303.38 806.84,297.71 807.59,304.19 808.34,35.00 809.08,302.57 809.86,302.57 810.61,304.19 811.35,304.19 812.10,303.38 812.84,304.19 813.59,303.38 814.34,304.19 815.09,304.19 815.83,303.38 816.58,304.19 817.33,304.19 818.09,304.19 818.84,303.38 819.59,304.19 820.33,303.38 821.07,35.00 821.82,304.19 822.57,303.38 823.32,303.38 824.06,303.38 824.81,304.19 825.56,35.00 826.30,303.38 827.05,35.00 827.79,304.19 828.54,35.00 829.29,35.00 830.03,304.19 830.77,35.00 831.52,304.19 832.27,304.19 833.01,35.00 833.76,304.19 834.50,304.19 835.25,303.38 836.00,303.38 836.74,303.38 837.49,304.19 838.22,303.38 838.96,35.00 839.71,303.38 840.46,304.19 841.21,303.38 841.97,302.57 842.72,303.38 843.46,304.19 844.22,304.19 844.96,286.91 845.72,301.76 846.52,303.38 847.28,303.38 848.03,304.19 848.79,303.38 849.54,304.19 850.28,303.38 851.03,304.19 851.78,304.19 852.52,304.19 853.27,304.19 854.02,302.57 854.76,35.00 855.51,303.38 856.27,303.38 857.02,35.00 857.77,303.38 858.52,304.19 859.26,304.19 860.01,303.38 860.76,303.38 861.50,303.38 862.25,303.38 863.00,303.38 863.75,304.19 864.50,303.38 865.25,301.76 866.00,304.19 866.75,304.19 867.50,303.38 868.25,304.19 869.00,35.00 869.74,304.19 870.49,35.00 871.24,303.38 871.98,303.38 872.72,303.38 873.47,304.19 874.21,301.76 874.96,35.00 875.71,35.00 876.45,302.57 877.20,304.19 877.95,35.00 878.70,304.19 879.44,304.19 880.19,304.19 880.94,304.19 881.70,304.19 882.44,35.00 883.17,35.00 883.90,35.00 884.64,304.19 885.39,304.19 886.14,303.38 886.89,304.19 887.65,302.57 888.39,302.57 889.14,303.38 889.90,304.19 890.64,303.38 891.39,304.19 892.13,303.38 892.87,35.00 893.61,303.38 894.35,35.00 895.10,304.19 895.85,304.19 896.59,304.19 897.33,304.19 898.07,302.57 898.82,35.00 899.57,304.19 900.32,303.38 901.05,287.72 901.80,286.10 902.52,304.19 903.28,35.00 904.03,304.19 904.77,301.76 905.52,304.19 906.28,35.00 907.02,304.19 907.76,303.38 908.51,304.19 909.26,304.19 910.01,301.76 910.75,299.33 911.55,302.57 912.30,304.19 913.05,303.38 913.80,35.00 914.56,35.00 915.29,303.38 916.04,303.38 916.79,304.19 917.53,285.02 918.28,304.19 919.02,304.19 919.77,304.19 920.52,304.19 921.27,303.38 922.02,302.57 922.76,303.38 923.50,35.00 924.25,35.00 925.00,304.19 925.75,302.57 926.50,303.38 927.26,35.00 928.02,303.38 928.77,303.38 929.51,35.00 930.26,304.19 931.01,303.38 931.77,302.57 932.51,303.38 933.25,304.19 934.00,304.19 934.74,303.38 935.49,303.38 936.24,35.00 936.99,302.57 937.73,35.00 938.48,35.00 939.23,304.19 939.97,304.19 940.71,303.38 941.46,304.19 942.21,303.38 942.95,35.00 943.69,304.19 944.44,304.19 945.18,35.00 945.92,304.19 946.66,302.57 947.40,300.95 948.14,35.00 948.89,35.00 949.63,35.00 950.38,303.38 951.11,303.38 951.86,304.19 952.60,304.19 953.35,303.38 954.09,302.57 954.83,303.38 955.57,304.19 956.31,304.19 957.07,304.19 957.81,304.19 958.55,303.38 959.30,303.38 960.08,303.38 960.82,302.57 961.57,304.19 962.32,303.38 963.07,304.19 963.82,304.19 964.57,304.19 965.32,302.57 966.06,304.19 966.81,302.57 967.54,35.00 968.29,304.19 969.04,303.38 969.78,304.19 970.53,35.00 971.27,304.19 972.01,303.38 972.76,303.38 973.50,304.19 974.25,303.38 975.00,35.00 975.78,304.19 976.52,303.38 977.26,303.38 978.00,303.38 978.74,304.19 979.50,35.00 980.24,303.38 980.98,303.38 981.73,304.19 982.48,302.57 983.23,304.19 983.97,304.19 984.72,304.19 985.47,303.38 986.21,304.19 986.96,303.38 987.71,304.19 988.45,301.76 989.19,303.38 989.93,304.19 990.67,304.19 991.42,35.00 992.16,298.52 992.90,303.38 993.65,304.19 994.39,302.57 995.14,303.38 995.89,304.19 996.63,304.19 997.38,302.57 998.12,301.76 998.87,35.00 999.61,304.19 1000.36,304.19 1001.10,304.19 1001.85,304.19 1002.60,35.00 1003.34,35.00 1004.07,303.38 1004.82,35.00 1005.57,302.57 1006.31,304.19 1007.08,304.19 1007.82,304.19 1008.56,304.19 1009.31,304.19 1010.06,304.19 1010.80,302.57 1011.56,303.38 1012.31,304.19 1013.11,35.00 1013.85,304.19 1014.66,302.57 1015.40,304.19 1016.14,304.19 1016.88,302.57 1017.63,302.57 1018.37,304.19 1019.12,304.19 1019.86,303.38 1020.61,304.19 1021.35,303.38 1022.10,304.19 1022.84,303.38 1023.58,301.76 1024.33,35.00 1025.07,302.57 1025.82,303.38 1026.56,302.57 1027.30,303.38 1028.05,303.38 1028.79,303.38 1029.55,303.38 1030.29,303.38 1031.02,302.57 1031.77,304.19 1032.51,301.76 1033.27,302.57 1034.01,302.57 1034.76,302.57 1035.51,304.19 1036.25,304.19 1036.99,302.57 1037.73,35.00 1038.48,304.19 1039.22,301.76 1039.96,304.19 1040.70,303.38 1041.44,303.38 1042.18,304.19 1042.93,304.19 1043.67,303.38 1044.42,303.38 1045.17,302.57 1045.94,304.19 1046.69,304.19 1047.43,304.19 1048.17,35.00 1048.91,303.38 1049.65,302.57 1050.39,302.57 1051.14,303.38 1051.88,304.19 1052.62,303.38 1053.36,304.19 1054.10,304.19 1054.84,304.19 1055.58,302.57 1056.33,303.38 1057.07,35.00 1057.81,302.57 1058.57,35.00 1059.30,304.19 1060.04,300.14 1060.80,35.00 1061.54,304.19 1062.29,303.38 1063.03,35.00 1063.77,304.19 1064.52,304.19 1065.27,302.57 1066.02,303.38 1066.77,304.19 1067.51,304.19 1068.25,304.19 1069.00,304.19 1069.75,304.19 1070.49,35.00 1071.26,304.19 1072.00,303.38 1072.75,304.19 1073.50,303.38 1074.25,303.38 1074.99,303.38 1075.73,35.00 1076.48,304.19 1077.23,304.19 1077.98,304.19 1078.71,302.57 1079.46,304.19 1080.21,35.00 1080.96,302.57 1081.71,304.19 1082.47,287.99 1083.23,302.57 1084.02,303.38 1084.78,304.19 1085.52,304.19 1086.26,35.00 1087.00,304.19 1087.75,303.38 1088.49,303.38 1089.24,304.19 1089.99,304.19 1090.74,304.19 1091.49,286.37 1092.23,303.38 1092.97,303.38 1093.71,304.19 1094.46,303.38 1095.21,287.72 1095.97,304.19 1096.73,303.38 1097.48,304.19 1098.24,35.00 1099.02,304.19 1099.77,270.71 1100.56,304.19 1101.31,304.19 1102.05,304.19 1102.80,35.00 1103.55,303.38 1104.29,304.19 1105.04,302.57 1105.78,302.57 1106.52,304.19 1107.27,303.38 1108.01,304.19 1108.77,302.57 1109.52,302.57 1110.27,303.38 1111.03,304.19 1111.90,304.19 1112.65,304.19 1113.38,304.19 1114.13,303.38 1114.87,303.38 1115.60,302.57 1116.34,304.19 1117.03,304.19 1117.70,302.57 1119.88,35.00 1121.29,302.57 1122.03,35.00 1122.78,302.57 1123.53,304.19 1124.27,35.00 1125.01,286.91 1125.75,303.38 1126.49,303.38 1127.23,303.38 1127.98,35.00 1128.72,303.38 1129.46,303.38 1130.21,304.19 1130.95,304.19 1131.69,304.19 1132.44,303.38 1133.17,303.38 1133.91,303.38 1134.65,304.19 1135.39,304.19 1136.13,35.00 1136.87,304.19 1137.62,35.00 1138.37,304.19 1139.11,303.38 1139.84,301.76 1140.59,303.38 1141.33,304.19 1142.07,304.19 1142.81,304.19 1143.55,304.19 1144.29,301.76 1145.03,303.38 1145.77,35.00 1146.51,35.00 1147.25,304.19 1148.00,303.38 1148.74,35.00 1149.49,303.38 1150.23,35.00 1150.97,304.19 1151.71,304.19 1152.45,35.00 1153.20,35.00 1153.94,303.38 1154.67,304.19 1155.41,303.38 1156.15,303.38 1156.89,304.19 1157.63,304.19 1158.36,303.38 1159.12,35.00 1159.87,304.19 1160.61,304.19 1161.35,304.19 1162.10,304.19 1162.84,303.38 1163.59,35.00 1164.33,35.00 1165.08,35.00 1165.82,35.00 1166.56,304.19 1167.30,304.19 1168.04,304.19 1168.79,304.19 1169.53,304.19 1170.27,304.19 1171.02,303.38 1171.76,304.19 1172.50,35.00 1173.24,303.38 1173.98,303.38 1174.73,303.38 1175.47,304.19 1176.21,302.57 1176.95,302.57 1177.70,302.57 1178.45,303.38 1179.26,304.19 1180.00,303.38"/>
<polyline fill="none" stroke="#d62728" stroke-opacity="0.65" stroke-width="2" points="70.00,35.00 70.74,304.46 71.49,304.46 72.23,302.30 72.97,304.46 73.72,303.38 74.46,304.46 75.20,304.46 76.01,35.00 76.74,304.46 77.48,304.46 78.22,303.92 78.97,303.92 79.71,304.46 80.45,304.46 81.78,303.92 82.94,304.46 83.69,35.00 84.45,303.92 85.19,302.84 85.93,304.46 86.65,303.92 87.40,302.84 88.14,35.00 88.89,303.92 89.64,35.00 90.39,35.00 91.14,35.00 91.88,303.92 92.66,35.00 93.41,303.38 94.15,303.92 94.91,304.46 95.65,35.00 96.40,35.00 97.16,304.46 97.90,35.00 98.64,304.46 99.40,35.00 100.13,304.46 100.87,303.92 101.60,35.00 102.34,304.46 103.09,304.46 103.83,293.12 104.59,35.00 105.33,304.46 106.07,304.46 106.81,304.46 107.56,35.00 108.30,304.46 109.15,304.46 109.89,304.46 110.63,35.00 111.37,35.00 112.10,304.46 112.84,304.46 113.58,303.38 114.32,303.92 115.06,304.46 115.82,35.00 116.56,304.46 117.29,304.46 118.04,35.00 118.79,304.46 119.53,303.92 120.27,304.46 121.01,304.46 121.74,35.00 122.48,303.92 123.22,303.92 123.96,304.46 124.70,303.92 125.43,303.92 126.18,35.00 126.92,303.92 127.66,304.46 128.40,304.46 129.14,303.38 129.88,35.00 130.64,304.46 131.38,303.38 132.12,304.46 132.86,35.00 133.60,304.46 134.35,304.46 135.09,303.92 135.82,303.92 136.56,303.92 137.30,304.46 138.05,303.92 138.79,304.46 139.54,303.92 140.27,35.00 141.01,303.92 141.75,303.92 142.49,304.46 143.23,304.46 143.97,303.92 144.71,303.92 145.45,35.00 146.19,35.00 146.94,303.92 147.68,35.00 148.43,304.46 149.18,304.46 149.92,304.46 150.66,304.46 151.40,303.92 152.13,304.46 152.88,303.38 153.63,304.46 154.37,303.92 155.11,35.00 155.85,304.46 156.60,303.92 157.34,303.92 158.10,303.92 158.83,304.46 159.58,35.00 160.32,304.46 161.06,304.46 161.80,35.00 162.55,303.92 163.35,304.46 164.09,303.92 164.84,304.46 165.58,304.46 166.32,303.92 167.05,303.92 167.78,304.46 168.52,304.46 169.26,304.46 170.00,303.38 170.74,304.46 171.48,35.00 172.22,303.92 172.96,35.00 173.71,304.46 174.45,35.00 175.19,35.00 175.93,303.92 176.67,303.92 177.41,304.46 178.15,304.46 178.90,304.46 179.64,303.92 180.38,304.46 181.12,304.46 181.86,303.92 182.60,35.00 183.34,304.46 184.08,35.00 184.82,303.92 185.57,304.46 186.31,304.46 187.05,35.00 187.80,35.00 188.54,35.00 189.28,304.46 190.02,303.92 190.77,304.46 191.52,303.92 192.27,303.92 193.01,304.46 193.76,304.46 194.49,304.46 195.23,304.46 195.97,304.46 196.71,304.46 197.45,304.46 198.18,282.59 198.92,304.46 199.67,303.92 200.41,304.46 201.15,304.46 201.89,304.46 202.65,303.38 203.39,304.46 204.13,304.46 204.87,303.92 205.61,304.46 206.41,303.92 207.17,304.46 207.91,304.46 208.64,304.46 209.38,304.46 210.12,304.46 210.86,303.38 211.61,304.46 212.35,304.46 213.09,304.46 213.83,303.92 214.57,35.00 215.33,304.46 216.07,303.92 216.80,303.92 217.54,303.92 218.29,35.00 219.05,304.46 219.81,304.46 220.54,35.00 221.28,303.92 222.03,35.00 222.76,35.00 223.51,304.46 224.25,304.46 225.00,35.00 225.74,35.00 226.48,304.46 227.23,304.46 227.97,303.92 228.71,303.92 229.45,304.46 230.20,304.46 230.94,304.46 231.68,303.92 232.42,304.46 233.15,304.46 233.90,303.92 234.64,303.38 235.38,304.46 236.12,35.00 236.85,304.46 237.59,35.00 238.34,35.00 239.08,303.92 239.82,303.92 240.58,304.46 241.32,304.46 242.06,304.46 242.80,303.92 243.55,297.98 244.29,35.00 245.03,304.46 245.77,303.92 246.53,304.46 247.27,303.92 248.02,35.00 248.76,303.92 249.50,304.46 250.24,35.00 250.98,303.92 251.72,304.46 252.46,304.46 253.21,35.00 253.95,303.92 254.69,303.92 255.44,35.00 256.18,303.92 256.92,303.92 257.67,35.00 258.42,303.92 259.15,304.46 259.89,303.92 260.64,304.46 261.39,303.92 262.14,35.00 262.88,304.46 263.62,35.00 264.44,35.00 265.19,303.92 265.93,303.38 266.67,303.38 267.42,303.38 268.16,35.00 268.91,304.46 269.65,304.46 270.39,304.46 271.15,35.00 271.90,304.46 272.64,304.46 273.38,304.46 274.12,35.00 274.86,304.46 275.61,304.46 276.38,293.66 277.12,303.92 277.86,304.46 278.61,303.92 279.41,304.46 280.15,35.00 281.09,304.46 282.34,304.46 283.10,304.46 283.86,304.46 284.60,35.00 285.32,304.46 286.06,304.46 286.82,303.92 287.56,35.00 288.31,304.46 289.08,35.00 289.85,303.38 290.63,304.46 291.38,304.46 292.12,35.00 292.86,35.00 293.62,304.46 294.37,35.00 295.12,304.46 295.85,304.46 296.59,304.46 297.37,35.00 298.11,303.92 298.85,35.00 299.59,304.46 300.35,304.46 301.12,297.98 301.86,304.46 302.60,35.00 303.37,293.12 304.08,35.00 304.82,303.92 305.57,35.00 306.31,304.46 307.06,304.46 307.83,303.92 308.57,304.46 309.31,304.46 310.07,303.92 310.81,303.92 311.56,304.46 312.30,303.92 313.03,35.00 313.78,304.46 314.52,304.46 315.26,304.46 316.15,304.46 317.02,303.92 317.90,304.46 318.76,304.46 319.61,303.38 320.46,303.92 321.34,303.92 322.20,304.46 322.95,35.00 323.68,35.00 324.42,304.46 325.16,304.46 325.90,303.92 326.64,304.46 327.38,303.92 328.12,35.00 328.86,304.46 329.60,304.46 330.34,304.46 331.08,304.46 331.82,293.12 332.55,304.46 333.29,35.00 334.03,303.92 334.77,303.92 335.51,304.46 336.25,304.46 337.00,35.00 337.73,303.92 338.47,304.46 339.20,304.46 339.94,304.46 340.69,35.00 341.43,297.98 342.17,303.92 342.91,303.38 343.65,304.46 344.39,35.00 345.13,302.84 345.87,303.92 346.60,35.00 347.34,35.00 348.08,303.92 348.81,302.84 349.55,304.46 350.28,303.38 351.02,35.00 351.76,304.46 352.50,304.46 353.24,304.46 353.97,303.92 354.70,304.46 355.43,35.00 356.20,304.46 356.99,303.92 357.74,35.00 358.48,303.92 359.22,303.92 359.96,304.46 360.69,304.46 361.43,304.46 362.16,303.92 363.04,304.46 363.91,304.46 364.77,303.92 365.64,304.46 366.51,303.92 367.38,303.92 368.26,304.46 369.16,303.92 369.97,303.92 370.76,303.92 371.51,35.00 372.26,35.00 373.00,35.00 373.73,303.92 374.47,304.46 375.21,304.46 375.95,304.46 376.69,304.46 377.43,304.46 378.17,35.00 378.91,304.46 379.65,303.38 380.40,35.00 381.14,35.00 381.88,303.92 382.52,282.32 383.29,282.05 384.03,304.46 384.79,35.00 385.53,303.38 386.27,304.46 387.01,35.00 387.76,35.00 388.50,35.00 389.25,303.92 390.00,304.46 390.75,304.46 391.49,303.92 392.22,35.00 392.97,303.38 393.70,303.92 394.44,304.46 395.17,303.92 395.92,304.46 396.66,304.46 397.40,304.46 398.14,304.46 398.88,304.46 399.62,303.92 400.36,303.92 401.11,303.92 401.86,304.46 402.60,304.46 403.33,35.00 404.08,35.00 404.83,304.46 405.59,304.46 406.32,304.46 407.06,303.92 407.80,35.00 408.54,303.92 409.27,35.00 410.02,303.92 410.76,304.46 411.50,35.00 412.24,304.46 412.97,35.00 413.71,304.46 414.46,303.92 415.21,304.46 415.95,302.84 416.84,303.92 417.60,303.92 418.36,304.46 419.11,304.46 419.85,303.38 420.60,303.92 421.34,299.06 422.07,35.00 422.82,304.46 423.57,303.92 424.31,304.46 425.05,35.00 425.80,303.92 426.54,303.92 427.30,304.46 428.06,303.92 428.80,35.00 429.54,304.46 430.29,35.00 431.03,303.92 431.76,35.00 432.51,303.38 433.28,304.46 434.02,304.46 434.77,35.00 435.51,304.46 436.25,304.46 437.00,304.46 437.74,303.92 438.48,35.00 439.22,303.38 439.97,304.46 440.71,304.46 441.45,35.00 442.19,304.46 442.93,35.00 443.67,304.46 444.43,304.46 445.17,291.50 445.91,303.92 446.65,304.46 447.39,304.46 448.15,303.38 448.89,303.92 449.78,303.38 450.54,303.92 451.28,35.00 452.03,35.00 452.77,304.46 453.51,303.38 454.25,304.46 455.00,35.00 455.76,303.92 456.49,304.46 457.23,35.00 457.97,303.92 458.71,35.00 459.45,304.46 460.19,304.46 460.94,35.00 461.68,304.46 462.42,304.46 463.16,35.00 463.90,304.46 464.65,304.46 465.39,304.46 466.12,303.92 466.88,35.00 467.62,304.46 468.36,304.46 469.10,35.00 469.85,304.46 470.61,303.38 471.35,35.00 472.09,304.46 472.84,304.46 473.58,303.92 474.32,304.46 475.06,304.46 475.81,304.46 476.57,304.46 477.31,304.46 478.05,304.46 478.78,303.92 479.52,304.46 480.26,303.92 481.01,304.46 481.75,35.00 482.50,304.46 483.25,304.46 483.99,303.92 484.72,35.00 485.47,304.46 486.21,304.46 486.95,304.46 487.69,304.46 488.44,303.92 489.17,304.46 489.92,304.46 490.67,35.00 491.41,304.46 492.16,303.92 492.91,35.00 493.65,35.00 494.39,303.92 495.14,281.24 495.98,304.46 496.79,304.46 497.59,35.00 498.33,303.92 499.11,303.92 499.85,304.46 500.60,304.46 501.33,303.92 502.03,293.12 502.80,303.92 503.54,292.58 504.29,294.20 505.03,293.12 505.77,303.92 506.51,304.46 507.26,303.92 508.00,303.38 508.74,304.46 509.48,304.46 510.22,304.46 510.97,303.92 511.72,35.00 512.47,35.00 513.22,35.00 513.96,35.00 514.70,304.46 515.45,35.00 516.21,304.46 516.95,303.92 517.69,304.46 518.43,303.92 519.17,303.92 519.91,304.46 520.65,303.92 521.40,304.46 522.14,304.46 522.89,35.00 523.63,304.46 524.37,304.46 525.11,35.00 525.86,303.92 526.60,35.00 527.35,303.92 528.09,35.00 528.83,304.46 529.58,35.00 530.33,304.46 531.07,304.46 531.82,303.92 532.57,304.46 533.31,35.00 534.06,303.92 534.80,304.46 535.55,304.46 536.32,304.46 537.06,304.46 537.80,303.92 538.55,302.84 539.29,304.46 540.03,304.46 540.78,304.46 541.52,304.46 542.27,303.92 543.01,304.46 543.76,303.38 544.50,35.00 545.25,35.00 546.00,303.38 546.74,35.00 547.49,304.46 548.24,303.92 548.99,304.46 549.74,303.92 550.48,304.46 551.22,35.00 551.97,35.00 552.71,35.00 553.48,303.92 554.22,303.92 554.97,303.92 555.72,304.46 556.46,303.92 557.20,304.46 557.94,304.46 558.69,304.46 559.44,304.46 560.18,304.46 560.92,304.46 561.66,35.00 562.41,304.46 563.16,35.00 563.90,304.46 564.64,304.46 565.40,304.46 566.14,304.46 566.89,303.92 567.63,292.58 568.37,304.46 569.11,304.46 569.85,303.92 570.60,304.46 571.34,304.46 572.09,304.46 572.84,303.92 573.59,35.00 574.33,304.46 575.08,304.46 575.83,304.46 576.57,303.92 577.32,304.46 578.07,293.66 578.81,292.04 579.56,293.66 580.31,293.12 581.06,294.20 581.81,293.12 582.55,293.12 583.31,292.58 584.06,293.12 584.81,293.39 585.56,293.12 586.30,293.12 587.05,293.12 587.79,293.12 588.55,293.66 589.29,292.58 590.04,292.58 590.78,293.66 591.52,293.12 592.28,292.58 593.02,293.12 593.78,294.20 594.52,293.12 595.26,293.12 596.00,292.58 596.74,294.20 597.48,293.66 598.23,281.51 598.97,271.25 599.72,293.66 600.46,293.66 601.21,293.12 601.95,293.12 602.72,293.66 603.47,293.12 604.20,293.66 604.95,293.66 605.69,293.66 606.43,293.12 607.18,293.66 607.93,293.12 608.67,292.04 609.42,293.12 610.17,293.12 610.91,293.12 611.65,292.58 612.40,293.12 613.15,293.12 613.92,292.58 614.67,292.58 615.42,293.12 616.17,293.12 616.91,293.39 617.67,293.12 618.40,293.66 619.15,293.12 619.88,292.58 620.64,293.66 621.38,292.58 622.13,293.12 622.88,293.66 623.63,294.20 624.41,293.66 625.15,293.66 625.90,293.12 626.64,293.12 627.39,292.04 628.14,293.12 628.89,293.66 629.64,293.12 630.39,294.20 631.14,293.66 631.89,294.20 632.64,293.12 633.38,293.66 634.13,282.05 634.87,293.66 635.62,293.66 636.36,293.66 637.12,293.12 637.87,293.12 638.61,293.12 639.36,293.12 640.11,293.66 640.85,293.66 641.60,293.66 642.35,292.58 643.10,293.66 643.87,294.20 644.62,293.12 645.37,293.12 646.11,294.20 646.88,292.58 647.64,294.20 648.40,293.12 649.16,293.66 649.93,294.20 650.68,294.20 651.42,293.12 652.17,293.66 652.92,293.66 653.66,293.12 654.41,292.58 655.18,293.66 655.92,293.12 656.67,293.12 657.42,283.13 658.16,292.58 658.90,293.66 659.65,293.66 660.39,292.58 661.14,282.05 661.88,293.12 662.62,293.12 663.37,293.12 664.10,292.58 664.85,293.66 665.60,294.20 666.35,293.12 667.09,293.66 667.84,304.46 668.60,303.92 669.34,35.00 670.08,303.92 670.83,304.46 671.58,303.92 672.32,304.46 673.06,304.46 673.81,35.00 674.56,304.46 675.30,303.92 676.03,303.92 676.78,303.92 677.52,304.46 678.27,304.46 679.01,303.38 679.76,304.46 680.51,304.46 681.25,303.92 681.99,304.46 682.74,303.92 683.49,35.00 684.22,304.46 684.96,304.46 685.69,35.00 686.43,304.46 687.18,304.46 687.94,304.46 688.68,303.92 689.43,35.00 690.17,304.46 690.93,304.46 691.68,303.92 692.42,304.46 693.18,35.00 693.92,35.00 694.66,304.46 695.42,304.46 696.16,303.92 696.92,304.46 697.67,303.92 698.41,35.00 699.15,35.00 699.90,35.00 700.64,303.38 701.38,293.12 702.13,293.12 702.86,304.46 703.61,304.46 704.36,258.83 705.10,303.92 705.84,304.46 706.59,35.00 707.33,35.00 708.08,304.46 708.83,303.38 709.58,35.00 710.32,303.92 711.06,304.46 711.81,303.92 712.56,303.92 713.30,304.46 714.05,304.46 714.80,304.46 715.54,304.46 716.28,304.46 717.03,35.00 717.78,297.44 718.52,35.00 719.26,303.92 720.01,35.00 720.78,304.46 721.52,304.46 722.28,304.46 723.04,304.46 723.78,304.46 724.53,303.92 725.28,303.92 726.03,303.92 726.77,35.00 727.51,304.46 728.27,304.46 729.03,303.92 729.78,304.46 730.52,35.00 731.27,304.46 732.01,35.00 732.76,304.46 733.51,302.84 734.25,35.00 734.99,303.92 735.74,304.46 736.49,304.46 737.23,303.92 737.97,304.46 738.72,304.46 739.46,35.00 740.20,303.92 740.95,304.46 741.69,303.38 742.43,304.46 743.19,304.46 743.93,303.92 744.68,304.46 745.42,303.92 746.17,303.92 746.90,304.46 747.66,35.00 748.40,303.92 749.16,304.46 749.90,35.00 750.64,304.46 751.38,304.46 752.13,303.92 752.88,35.00 753.61,35.00 754.37,303.92 755.14,304.46 755.89,35.00 756.66,35.00 757.41,35.00 758.17,303.92 758.94,304.46 759.70,303.92 760.47,303.92 761.23,304.46 762.00,303.92 762.74,35.00 763.48,304.46 764.23,304.46 764.99,304.46 765.73,303.92 766.48,35.00 767.23,304.46 767.98,304.46 768.72,303.38 769.47,35.00 770.21,304.46 770.95,303.92 771.70,304.46 772.44,35.00 773.19,303.92 773.94,304.46 774.68,304.46 775.42,304.46 776.18,293.66 776.93,293.12 777.68,293.12 778.42,293.66 779.16,303.92 779.91,304.46 780.66,304.46 781.41,304.46 782.15,304.46 782.89,303.92 783.64,304.46 784.39,304.46 785.13,304.46 785.88,304.46 786.62,303.92 787.37,35.00 788.17,35.00 788.94,303.92 789.68,302.84 790.43,303.92 791.17,303.38 791.93,304.46 792.68,303.92 793.43,303.92 794.18,304.46 794.92,303.92 795.65,304.46 796.39,304.46 797.14,303.92 797.88,303.92 798.63,304.46 799.37,304.46 800.13,304.46 800.88,303.92 801.63,35.00 802.37,35.00 803.11,304.46 803.85,303.38 804.60,304.46 805.35,304.46 806.09,304.46 806.84,304.46 807.59,35.00 808.34,303.92 809.08,35.00 809.86,35.00 810.61,303.92 811.35,304.46 812.10,303.92 812.84,304.46 813.59,304.46 814.34,304.46 815.09,304.46 815.83,303.92 816.58,303.92 817.33,304.46 818.09,35.00 818.84,303.92 819.59,303.92 820.33,303.38 821.07,304.46 821.82,35.00 822.57,304.46 823.32,304.46 824.06,304.46 824.81,303.92 825.56,303.92 826.30,303.92 827.05,304.46 827.79,304.46 828.54,304.46 829.29,304.46 830.03,304.46 830.77,304.46 831.52,303.92 832.27,304.46 833.01,304.46 833.76,35.00 834.50,304.46 835.25,304.46 836.00,304.46 836.74,304.46 837.49,35.00 838.22,303.92 838.96,303.92 839.71,303.92 840.46,35.00 841.21,303.92 841.97,303.92 842.72,35.00 843.46,304.46 844.22,248.57 844.96,259.37 845.72,269.09 846.52,293.12 847.28,282.59 848.03,270.17 848.79,282.05 849.54,35.00 850.28,304.46 851.03,304.46 851.78,303.92 852.52,304.46 853.27,304.46 854.02,304.46 854.76,303.38 855.51,304.46 856.27,304.46 857.02,304.46 857.77,304.46 858.52,304.46 859.26,304.46 860.01,303.92 860.76,303.92 861.50,35.00 862.25,303.92 863.00,304.46 863.75,303.92 864.50,35.00 865.25,35.00 866.00,35.00 866.75,303.92 867.50,304.46 868.25,304.46 869.00,35.00 869.74,35.00 870.49,35.00 871.24,35.00 871.98,35.00 872.72,304.46 873.47,304.46 874.21,304.46 874.96,304.46 875.71,304.46 876.45,303.92 877.20,35.00 877.95,35.00 878.70,304.46 879.44,304.46 880.19,304.46 880.94,303.92 881.70,304.46 882.44,35.00 883.17,304.46 883.90,303.38 884.64,304.46 885.39,304.46 886.14,303.92 886.89,304.46 887.65,304.46 888.39,303.92 889.14,303.92 889.90,304.46 890.64,303.92 891.39,303.92 892.13,304.46 892.87,304.46 893.61,35.00 894.35,303.92 895.10,303.92 895.85,304.46 896.59,35.00 897.33,304.46 898.07,303.92 898.82,293.12 899.57,304.46 900.32,304.46 901.05,35.00 901.80,286.64 902.52,259.37 903.28,248.84 904.03,35.00 904.77,35.00 905.52,303.92 906.28,302.84 907.02,304.46 907.76,304.46 908.51,303.92 909.26,304.46 910.01,35.00 910.75,304.46 911.55,303.92 912.30,304.46 913.05,303.92 913.80,304.46 914.56,304.46 915.29,35.00 916.04,303.38 916.79,304.46 917.53,304.46 918.28,304.46 919.02,302.84 919.77,298.52 920.52,35.00 921.27,303.92 922.02,304.46 922.76,303.92 923.50,35.00 924.25,304.46 925.00,304.46 925.75,304.46 926.50,304.46 927.26,303.92 928.02,304.46 928.77,304.46 929.51,304.46 930.26,304.46 931.01,303.92 931.77,303.92 932.51,304.46 933.25,35.00 934.00,303.92 934.74,303.92 935.49,303.38 936.24,303.92 936.99,303.92 937.73,303.92 938.48,35.00 939.23,304.46 939.97,304.46 940.71,304.46 941.46,303.92 942.21,304.46 942.95,304.46 943.69,304.46 944.44,304.46 945.18,35.00 945.92,304.46 946.66,304.46 947.40,35.00 948.14,35.00 948.89,303.92 949.63,304.46 950.38,304.46 951.11,303.92 951.86,304.46 952.60,304.46 953.35,35.00 954.09,304.46 954.83,303.92 955.57,35.00 956.31,304.46 957.07,303.92 957.81,35.00 958.55,304.46 959.30,304.46 960.08,35.00 960.82,303.92 961.57,35.00 962.32,35.00 963.07,304.46 963.82,304.46 964.57,304.46 965.32,304.46 966.06,301.76 966.81,35.00 967.54,304.46 968.29,35.00 969.04,303.92 969.78,304.46 970.53,304.46 971.27,293.12 972.01,303.92 972.76,35.00 973.50,303.92 974.25,304.46 975.00,35.00 975.78,304.46 976.52,35.00 977.26,304.46 978.00,304.46 978.74,304.46 979.50,35.00 980.24,304.46 980.98,35.00 981.73,304.46 982.48,303.92 983.23,304.46 983.97,303.92 984.72,303.92 985.47,35.00 986.21,304.46 986.96,35.00 987.71,303.92 988.45,304.46 989.19,303.92 989.93,35.00 990.67,303.92 991.42,303.92 992.16,303.92 992.90,35.00 993.65,304.46 994.39,35.00 995.14,304.46 995.89,304.46 996.63,304.46 997.38,303.92 998.12,304.46 998.87,304.46 999.61,35.00 1000.36,304.46 1001.10,35.00 1001.85,304.46 1002.60,303.92 1003.34,303.92 1004.07,303.92 1004.82,304.46 1005.57,35.00 1006.31,304.46 1007.08,35.00 1007.82,303.92 1008.56,304.46 1009.31,35.00 1010.06,304.46 1010.80,303.92 1011.56,291.50 1012.31,35.00 1013.11,304.46 1013.85,303.92 1014.66,35.00 1015.40,300.14 1016.14,303.92 1016.88,303.92 1017.63,35.00 1018.37,303.38 1019.12,304.46 1019.86,298.52 1020.61,35.00 1021.35,35.00 1022.10,35.00 1022.84,35.00 1023.58,35.00 1024.33,35.00 1025.07,35.00 1025.82,304.46 1026.56,35.00 1027.30,303.92 1028.05,303.92 1028.79,302.30 1029.55,304.46 1030.29,35.00 1031.02,303.92 1031.77,303.38 1032.51,304.46 1033.27,303.92 1034.01,303.92 1034.76,35.00 1035.51,35.00 1036.25,304.46 1036.99,304.46 1037.73,304.46 1038.48,304.46 1039.22,304.46 1039.96,303.92 1040.70,303.92 1041.44,303.92 1042.18,304.46 1042.93,304.46 1043.67,303.92 1044.42,303.92 1045.17,303.92 1045.94,304.46 1046.69,304.46 1047.43,303.38 1048.17,304.46 1048.91,304.46 1049.65,303.92 1050.39,303.92 1051.14,304.46 1051.88,303.92 1052.62,304.46 1053.36,304.46 1054.10,304.46 1054.84,304.46 1055.58,304.46 1056.33,303.92 1057.07,303.92 1057.81,304.46 1058.57,303.92 1059.30,304.46 1060.04,304.46 1060.80,292.04 1061.54,35.00 1062.29,304.46 1063.03,35.00 1063.77,303.92 1064.52,303.92 1065.27,304.46 1066.02,304.46 1066.77,303.92 1067.51,304.46 1068.25,303.92 1069.00,35.00 1069.75,35.00 1070.49,304.46 1071.26,304.46 1072.00,304.46 1072.75,303.92 1073.50,304.46 1074.25,304.46 1074.99,304.46 1075.73,304.46 1076.48,304.46 1077.23,35.00 1077.98,303.38 1078.71,304.46 1079.46,303.38 1080.21,35.00 1080.96,304.46 1081.71,304.46 1082.47,304.46 1083.23,303.92 1084.02,303.92 1084.78,304.46 1085.52,303.92 1086.26,303.92 1087.00,304.46 1087.75,303.38 1088.49,303.92 1089.24,35.00 1089.99,304.46 1090.74,304.46 1091.49,303.38 1092.23,304.46 1092.97,35.00 1093.71,304.46 1094.46,303.92 1095.21,35.00 1095.97,303.92 1096.73,304.46 1097.48,304.46 1098.24,303.92 1099.02,304.46 1099.77,35.00 1100.56,35.00 1101.31,281.51 1102.05,259.91 1102.80,282.05 1103.55,304.46 1104.29,304.46 1105.04,304.46 1105.78,35.00 1106.52,35.00 1107.27,304.46 1108.01,35.00 1108.77,35.00 1109.52,304.46 1110.27,304.46 1111.03,303.92 1111.90,304.46 1112.65,35.00 1113.38,303.92 1114.13,303.92 1114.87,303.92 1115.60,35.00 1117.70,304.46 1118.50,303.92 1119.20,293.66 1119.88,303.92 1121.29,303.92 1122.03,303.92 1122.78,303.92 1123.53,303.92 1124.27,303.92 1125.01,304.46 1125.75,303.38 1126.49,304.46 1127.23,304.46 1127.98,303.92 1128.72,303.92 1129.46,304.46 1130.21,304.46 1130.95,303.38 1131.69,303.92 1132.44,35.00 1133.17,304.46 1133.91,304.46 1134.65,303.38 1135.39,303.92 1136.13,304.46 1136.87,304.46 1137.62,304.46 1138.37,304.46 1139.11,35.00 1139.84,304.46 1140.59,304.46 1141.33,35.00 1142.07,304.46 1142.81,304.46 1143.55,293.12 1144.29,35.00 1145.03,35.00 1145.77,304.46 1146.51,304.46 1147.25,303.92 1148.00,304.46 1148.74,303.92 1149.49,304.46 1150.23,35.00 1150.97,303.38 1151.71,304.46 1152.45,303.92 1153.20,304.46 1153.94,304.46 1154.67,303.92 1155.41,304.46 1156.15,304.46 1156.89,303.92 1157.63,303.92 1158.36,35.00 1159.12,304.46 1159.87,304.46 1160.61,304.46 1161.35,35.00 1162.10,303.38 1162.84,303.92 1163.59,304.46 1164.33,304.46 1165.08,35.00 1165.82,304.46 1166.56,35.00 1167.30,304.46 1168.04,35.00 1168.79,303.38 1169.53,35.00 1170.27,302.84 1171.02,304.46 1171.76,304.46 1172.50,303.92 1173.24,304.46 1173.98,303.92 1174.73,303.92 1175.47,35.00 1176.21,304.46 1176.95,303.92 1177.70,303.38 1178.45,303.92 1179.26,304.46 1180.00,303.92"/>
<polyline fill="none" stroke="#d62728" stroke-opacity="0.50" stroke-width="2" points="70.00,302.84 70.74,302.84 71.49,303.92 72.23,303.92 72.97,303.92 73.72,303.38 74.46,303.92 75.20,302.57 76.01,303.38 76.74,302.84 77.48,303.92 78.22,303.38 78.97,302.84 79.71,303.38 80.45,287.18 81.78,303.38 82.94,303.38 83.69,303.38 84.45,303.92 85.19,302.84 85.93,293.12 86.65,303.38 87.40,303.38 88.14,303.38 88.89,303.38 89.64,303.38 90.39,303.38 91.14,303.92 91.88,303.38 92.66,303.92 93.41,303.92 94.15,303.38 94.91,303.38 95.65,303.38 96.40,302.03 97.16,303.38 97.90,303.92 98.64,303.92 99.40,303.38 100.13,303.92 100.87,303.92 101.60,303.92 102.34,302.84 103.09,303.92 103.83,303.38 104.59,303.92 105.33,302.84 106.07,303.92 106.81,302.84 107.56,303.38 108.30,302.84 109.15,303.38 109.89,303.92 110.63,303.38 111.37,303.92 112.10,303.38 112.84,303.38 113.58,303.92 114.32,302.30 115.06,303.92 115.82,303.92 116.56,304.46 117.29,303.92 118.04,303.92 118.79,303.92 119.53,303.38 120.27,289.61 121.01,303.92 121.74,303.38 122.48,302.84 123.22,299.87 123.96,303.92 124.70,303.92 125.43,304.46 126.18,303.92 126.92,302.03 127.66,304.46 128.40,303.38 129.14,303.38 129.88,302.84 130.64,302.57 131.38,303.92 132.12,303.92 132.86,303.92 133.60,303.38 134.35,303.38 135.09,302.84 135.82,303.38 136.56,302.84 137.30,303.92 138.05,303.38 138.79,294.20 139.54,303.38 140.27,303.38 141.01,303.92 141.75,303.92 142.49,302.57 143.23,303.38 143.97,302.84 144.71,302.84 145.45,302.57 146.19,303.92 146.94,303.92 147.68,303.92 148.43,303.92 149.18,302.84 149.92,303.92 150.66,303.92 151.40,302.84 152.13,303.92 152.88,302.84 153.63,302.84 154.37,303.92 155.11,303.92 155.85,303.92 156.60,303.92 157.34,302.57 158.10,303.92 158.83,303.92 159.58,303.38 160.32,303.38 161.06,303.92 161.80,304.46 162.55,303.92 163.35,303.92 164.09,303.38 164.84,303.92 165.58,303.92 166.32,304.46 167.05,303.38 167.78,302.84 168.52,303.92 169.26,302.84 170.00,303.92 170.74,303.38 171.48,303.38 172.22,304.46 172.96,303.38 173.71,303.92 174.45,302.57 175.19,302.03 175.93,303.92 176.67,303.92 177.41,303.38 178.15,303.38 178.90,303.92 179.64,303.38 180.38,303.38 181.12,302.84 181.86,302.57 182.60,303.38 183.34,302.03 184.08,302.03 184.82,302.03 185.57,302.84 186.31,302.03 187.05,302.84 187.80,302.84 188.54,302.57 189.28,302.03 190.02,303.92 190.77,303.38 191.52,303.92 192.27,303.92 193.01,303.38 193.76,302.84 194.49,303.92 195.23,303.92 195.97,303.92 196.71,296.90 197.45,303.38 198.18,302.84 198.92,303.92 199.67,303.92 200.41,302.84 201.15,303.92 201.89,302.84 202.65,303.92 203.39,303.92 204.13,303.38 204.87,303.92 205.61,303.92 206.41,299.33 207.17,303.38 207.91,303.92 208.64,303.38 209.38,303.92 210.12,304.46 210.86,303.92 211.61,303.38 212.35,303.92 213.09,302.84 213.83,303.38 214.57,303.38 215.33,303.92 216.07,303.92 216.80,303.92 217.54,302.84 218.29,303.92 219.05,303.38 219.81,303.92 220.54,303.92 221.28,303.38 222.03,302.84 222.76,303.38 223.51,303.38 224.25,303.92 225.00,303.92 225.74,302.84 226.48,303.92 227.23,303.38 227.97,303.92 228.71,303.92 229.45,303.38 230.20,303.92 230.94,302.30 231.68,303.92 232.42,303.38 233.15,303.92 233.90,302.84 234.64,303.92 235.38,302.84 236.12,303.92 236.85,303.92 237.59,303.92 238.34,303.92 239.08,302.84 239.82,303.92 240.58,303.92 241.32,299.87 242.06,303.92 242.80,302.84 243.55,302.84 244.29,303.92 245.03,303.92 245.77,303.92 246.53,304.46 247.27,304.46 248.02,303.38 248.76,303.38 249.50,303.38 250.24,303.92 250.98,303.92 251.72,302.84 252.46,303.92 253.21,303.92 253.95,303.38 254.69,303.38 255.44,303.92 256.18,302.57 256.92,303.92 257.67,302.84 258.42,303.92 259.15,303.92 259.89,303.38 260.64,303.92 261.39,304.46 262.14,303.38 262.88,302.84 263.62,303.38 264.44,303.92 265.19,303.38 265.93,303.92 266.67,303.92 267.42,303.38 268.16,303.38 268.91,303.38 269.65,303.38 270.39,303.92 271.15,302.84 271.90,303.92 272.64,303.92 273.38,303.92 274.12,303.92 274.86,302.84 275.61,303.38 276.38,303.38 277.12,303.92 277.86,302.84 278.61,303.92 279.41,303.92 280.15,293.39 281.09,293.12 282.34,303.92 283.10,302.84 283.86,292.58 284.60,302.03 285.32,302.84 286.06,304.46 286.82,303.92 287.56,303.92 288.31,303.92 289.08,304.46 289.85,303.92 290.63,303.92 291.38,302.84 292.12,303.38 292.86,303.38 293.62,303.92 294.37,303.38 295.12,302.84 295.85,294.74 296.59,303.38 297.37,303.92 298.11,303.92 298.85,303.92 299.59,303.92 300.35,303.38 301.12,303.92 301.86,303.38 302.60,303.92 303.37,303.38 304.08,302.57 304.82,303.92 305.57,303.92 306.31,303.92 307.06,304.46 307.83,303.38 308.57,303.38 309.31,303.38 310.07,304.46 310.81,303.92 311.56,303.92 312.30,303.38 313.03,303.92 313.78,303.92 314.52,303.92 315.26,303.92 316.15,300.41 317.02,303.92 317.90,303.38 318.76,303.92 319.61,303.92 320.46,303.92 321.34,302.84 322.20,303.92 322.95,303.92 323.68,303.92 324.42,303.38 325.16,302.84 325.90,302.84 326.64,303.92 327.38,303.92 328.12,303.38 328.86,304.46 329.60,304.46 330.34,303.92 331.08,292.58 331.82,302.84 332.55,304.46 333.29,303.38 334.03,303.92 334.77,303.38 335.51,303.38 336.25,303.38 337.00,303.38 337.73,303.38 338.47,304.46 339.20,303.38 339.94,304.46 340.69,303.92 341.43,303.38 342.17,303.92 342.91,303.38 343.65,295.82 344.39,302.84 345.13,303.92 345.87,302.84 346.60,299.87 347.34,303.92 348.08,303.38 348.81,302.84 349.55,303.92 350.28,303.92 351.02,303.38 351.76,303.92 352.50,303.38 353.24,303.92 353.97,303.38 354.70,304.46 355.43,303.92 356.20,303.92 356.99,303.92 357.74,303.92 358.48,303.92 359.22,303.38 359.96,302.57 360.69,303.92 361.43,303.92 362.16,303.92 363.04,302.84 363.91,302.84 364.77,303.92 365.64,302.30 366.51,303.92 367.38,303.92 368.26,303.92 369.16,303.92 369.97,303.92 370.76,303.92 371.51,303.38 372.26,303.38 373.00,303.38 373.73,303.38 374.47,303.92 375.21,303.92 375.95,292.85 376.69,303.92 377.43,302.57 378.17,303.38 378.91,303.92 379.65,303.92 380.40,303.38 381.14,303.92 381.88,302.30 382.52,303.92 383.29,303.92 384.03,304.46 384.79,303.38 385.53,303.92 386.27,303.92 387.01,303.38 387.76,303.92 388.50,303.92 389.25,303.92 390.00,304.46 390.75,303.92 391.49,303.38 392.22,303.92 392.97,303.92 393.70,303.92 394.44,302.84 395.17,303.38 395.92,303.92 396.66,303.92 397.40,303.38 398.14,303.92 398.88,303.38 399.62,303.38 400.36,303.92 401.11,303.38 401.86,303.92 402.60,303.92 403.33,303.92 404.08,303.92 404.83,303.92 405.59,303.92 406.32,303.92 407.06,302.84 407.80,302.84 408.54,303.92 409.27,304.46 410.02,302.03 410.76,303.38 411.50,303.92 412.24,303.92 412.97,303.92 413.71,302.84 414.46,303.38 415.21,303.38 415.95,303.38 416.84,303.92 417.60,303.92 418.36,303.38 419.11,302.57 419.85,303.92 420.60,302.84 421.34,303.92 422.07,303.92 422.82,303.92 423.57,304.46 424.31,302.57 425.05,302.57 425.80,303.38 426.54,303.92 427.30,303.92 428.06,303.38 428.80,303.38 429.54,302.84 430.29,303.92 431.03,300.95 431.76,303.92 432.51,302.84 433.28,303.38 434.02,303.92 434.77,303.38 435.51,302.84 436.25,303.92 437.00,303.38 437.74,303.92 438.48,303.38 439.22,303.92 439.97,303.92 440.71,303.92 441.45,303.38 442.19,303.38 442.93,303.92 443.67,303.92 444.43,303.92 445.17,303.92 445.91,303.92 446.65,300.95 447.39,290.69 448.15,303.92 448.89,302.84 449.78,303.92 450.54,303.38 451.28,303.38 452.03,303.92 452.77,304.46 453.51,303.92 454.25,303.92 455.00,303.38 455.76,303.38 456.49,302.84 457.23,304.46 457.97,303.92 458.71,303.38 459.45,304.46 460.19,304.46 460.94,303.38 461.68,303.38 462.42,303.92 463.16,303.38 463.90,304.46 464.65,303.38 465.39,302.84 466.12,304.46 466.88,303.92 467.62,303.92 468.36,303.38 469.10,303.38 469.85,303.92 470.61,303.92 471.35,300.95 472.09,303.92 472.84,302.84 473.58,303.92 474.32,303.38 475.06,303.38 475.81,302.03 476.57,302.03 477.31,303.92 478.05,302.84 478.78,302.84 479.52,302.57 480.26,303.38 481.01,303.38 481.75,303.38 482.50,303.38 483.25,291.77 483.99,274.49 484.72,302.84 485.47,292.85 486.21,302.84 486.95,303.38 487.69,303.92 488.44,303.92 489.17,303.92 489.92,303.38 490.67,303.38 491.41,304.46 492.16,302.84 492.91,303.92 493.65,302.57 494.39,303.92 495.14,303.92 495.98,304.46 496.79,304.46 497.59,303.92 498.33,303.92 499.11,303.92 499.85,303.38 500.60,303.92 501.33,303.38 502.03,303.38 502.80,303.38 503.54,303.92 504.29,303.92 505.03,303.38 505.77,303.38 506.51,303.38 507.26,303.92 508.00,303.38 508.74,303.92 509.48,303.92 510.22,303.92 510.97,303.92 511.72,303.38 512.47,303.92 513.22,303.92 513.96,302.84 514.70,303.38 515.45,303.38 516.21,302.57 516.95,303.38 517.69,302.57 518.43,302.57 519.17,301.49 519.91,303.92 520.65,303.38 521.40,303.92 522.14,302.84 522.89,303.38 523.63,303.92 524.37,303.38 525.11,303.38 525.86,303.38 526.60,303.92 527.35,303.92 528.09,304.46 528.83,303.92 529.58,303.92 530.33,302.57 531.07,303.38 531.82,303.38 532.57,303.92 533.31,302.84 534.06,302.84 534.80,303.38 535.55,303.38 536.32,303.92 537.06,303.38 537.80,303.92 538.55,303.92 539.29,300.41 540.03,303.92 540.78,303.38 541.52,303.92 542.27,303.92 543.01,303.92 543.76,303.38 544.50,304.46 545.25,303.38 546.00,302.84 546.74,303.92 547.49,303.92 548.24,303.38 548.99,303.92 549.74,303.92 550.48,303.92 551.22,303.92 551.97,303.92 552.71,303.38 553.48,302.84 554.22,303.92 554.97,303.38 555.72,303.92 556.46,303.92 557.20,303.38 557.94,303.92 558.69,303.92 559.44,303.38 560.18,303.92 560.92,303.38 561.66,302.84 562.41,303.38 563.16,302.03 563.90,292.85 564.64,303.92 565.40,302.57 566.14,303.38 566.89,302.84 567.63,303.38 568.37,302.84 569.11,291.50 569.85,303.38 570.60,303.92 571.34,303.92 572.09,303.92 572.84,303.92 573.59,303.92 574.33,303.92 575.08,303.92 575.83,303.92 576.57,303.92 577.32,297.71 578.07,303.38 578.81,303.38 579.56,303.92 580.31,303.92 581.06,303.38 581.81,304.46 582.55,304.46 583.31,303.92 584.06,303.92 584.81,303.38 585.56,303.92 586.30,304.46 587.05,303.92 587.79,303.38 588.55,302.84 589.29,302.84 590.04,303.38 590.78,303.92 591.52,302.03 592.28,303.38 593.02,303.92 593.78,302.84 594.52,303.92 595.26,304.46 596.00,303.92 596.74,304.46 597.48,303.38 598.23,303.92 598.97,303.92 599.72,303.92 600.46,303.92 601.21,302.84 601.95,302.84 602.72,303.38 603.47,303.92 604.20,302.84 604.95,292.31 605.69,303.92 606.43,303.38 607.18,303.38 607.93,303.38 608.67,303.92 609.42,303.38 610.17,303.92 610.91,303.92 611.65,303.92 612.40,303.92 613.15,303.92 613.92,302.84 614.67,303.38 615.42,303.92 616.17,303.92 616.91,303.92 617.67,302.84 618.40,303.92 619.15,303.92 619.88,303.92 620.64,303.92 621.38,303.38 622.13,303.92 622.88,303.38 623.63,303.92 624.41,303.92 625.15,303.38 625.90,303.92 626.64,303.92 627.39,301.49 628.14,303.92 628.89,303.92 629.64,303.92 630.39,303.38 631.14,302.84 631.89,303.92 632.64,304.46 633.38,303.38 634.13,303.38 634.87,303.92 635.62,303.92 636.36,303.92 637.12,303.92 637.87,303.38 638.61,303.92 639.36,302.84 640.11,303.92 640.85,303.38 641.60,303.92 642.35,303.92 643.10,303.92 643.87,304.46 644.62,303.38 645.37,303.92 646.11,303.92 646.88,301.49 647.64,302.03 648.40,303.92 649.16,303.38 649.93,302.57 650.68,300.41 651.42,303.38 652.17,302.57 652.92,303.92 653.66,304.46 654.41,303.92 655.18,303.92 655.92,303.38 656.67,303.38 657.42,303.92 658.16,303.92 658.90,303.38 659.65,302.84 660.39,303.92 661.14,304.46 661.88,303.38 662.62,303.38 663.37,302.84 664.10,302.84 664.85,303.92 665.60,303.92 666.35,303.92 667.09,303.38 667.84,303.92 668.60,303.38 669.34,303.92 670.08,303.92 670.83,303.92 671.58,303.92 672.32,303.92 673.06,303.92 673.81,303.92 674.56,303.38 675.30,303.92 676.03,301.49 676.78,302.57 677.52,303.92 678.27,302.57 679.01,303.92 679.76,303.38 680.51,302.84 681.25,303.92 681.99,302.84 682.74,292.58 683.49,290.69 684.22,302.84 684.96,291.50 685.69,302.57 686.43,303.38 687.18,303.92 687.94,303.92 688.68,304.46 689.43,303.92 690.17,303.38 690.93,303.38 691.68,303.92 692.42,303.38 693.18,303.92 693.92,303.38 694.66,303.92 695.42,303.92 696.16,294.20 696.92,303.92 697.67,303.92 698.41,303.92 699.15,303.38 699.90,303.38 700.64,302.57 701.38,303.92 702.13,303.38 702.86,303.92 703.61,304.46 704.36,302.57 705.10,303.92 705.84,302.84 706.59,303.92 707.33,303.92 708.08,302.84 708.83,303.38 709.58,303.38 710.32,303.92 711.06,302.84 711.81,303.38 712.56,303.38 713.30,303.92 714.05,303.92 714.80,303.92 715.54,303.38 716.28,303.92 717.03,303.92 717.78,303.38 718.52,303.38 719.26,303.92 720.01,303.92 720.78,303.38 721.52,303.38 722.28,303.38 723.04,303.38 723.78,303.92 724.53,303.92 725.28,303.92 726.03,303.92 726.77,295.82 727.51,303.38 728.27,303.38 729.03,303.38 729.78,303.92 730.52,303.38 731.27,303.38 732.01,302.84 732.76,303.38 733.51,302.03 734.25,303.92 734.99,303.92 735.74,303.92 736.49,302.03 737.23,303.92 737.97,297.44 738.72,303.38 739.46,303.92 740.20,303.92 740.95,303.38 741.69,303.92 742.43,303.92 743.19,303.92 743.93,303.92 744.68,303.38 745.42,303.92 746.17,300.41 746.90,303.38 747.66,303.38 748.40,303.92 749.16,300.41 749.90,303.38 750.64,303.92 751.38,303.38 752.13,303.92 752.88,303.92 753.61,303.92 754.37,303.92 755.14,302.57 755.89,303.38 756.66,303.92 757.41,303.92 758.17,302.30 758.94,303.92 759.70,303.92 760.47,304.46 761.23,303.92 762.00,302.03 762.74,303.92 763.48,303.92 764.23,302.84 764.99,303.92 765.73,303.92 766.48,303.38 767.23,303.38 767.98,300.95 768.72,303.38 769.47,303.38 770.21,303.38 770.95,292.31 771.70,303.92 772.44,303.38 773.19,302.84 773.94,303.92 774.68,303.92 775.42,303.92 776.18,303.92 776.93,303.92 777.68,303.92 778.42,303.38 779.16,303.38 779.91,303.38 780.66,303.92 781.41,303.92 782.15,292.31 782.89,303.92 783.64,303.92 784.39,303.92 785.13,303.38 785.88,303.92 786.62,302.84 787.37,303.38 788.17,303.92 788.94,303.92 789.68,304.46 790.43,302.84 791.17,303.92 791.93,303.92 792.68,302.84 793.43,303.38 794.18,303.92 794.92,303.92 795.65,303.38 796.39,303.38 797.14,303.92 797.88,303.92 798.63,302.84 799.37,303.92 800.13,302.84 800.88,303.92 801.63,302.84 802.37,303.92 803.11,302.84 803.85,303.92 804.60,302.84 805.35,303.92 806.09,303.92 806.84,303.92 807.59,303.38 808.34,303.38 809.08,303.92 809.86,302.84 810.61,303.38 811.35,303.38 812.10,304.46 812.84,303.38 813.59,303.38 814.34,303.92 815.09,303.38 815.83,302.84 816.58,302.30 817.33,303.92 818.09,303.38 818.84,303.38 819.59,303.92 820.33,302.03 821.07,303.38 821.82,303.38 822.57,303.38 823.32,303.38 824.06,303.92 824.81,300.95 825.56,302.84 826.30,302.84 827.05,303.92 827.79,303.38 828.54,303.92 829.29,303.92 830.03,302.84 830.77,303.92 831.52,303.92 832.27,303.92 833.01,303.92 833.76,302.84 834.50,303.38 835.25,303.38 836.00,304.46 836.74,303.38 837.49,302.84 838.22,303.92 838.96,303.92 839.71,301.49 840.46,302.84 841.21,303.38 841.97,302.84 842.72,303.92 843.46,303.92 844.22,302.84 844.96,303.92 845.72,301.49 846.52,302.57 847.28,303.38 848.03,303.92 848.79,302.84 849.54,303.92 850.28,300.95 851.03,303.38 851.78,303.38 852.52,302.84 853.27,303.38 854.02,303.38 854.76,302.84 855.51,303.38 856.27,303.92 857.02,292.85 857.77,303.38 858.52,303.92 859.26,302.84 860.01,303.92 860.76,303.92 861.50,303.38 862.25,303.38 863.00,303.38 863.75,303.92 864.50,302.57 865.25,303.38 866.00,303.38 866.75,303.92 867.50,303.38 868.25,303.92 869.00,303.92 869.74,302.84 870.49,303.92 871.24,303.38 871.98,303.92 872.72,304.46 873.47,303.38 874.21,303.92 874.96,303.92 875.71,302.84 876.45,303.92 877.20,303.92 877.95,303.92 878.70,303.38 879.44,303.38 880.19,303.92 880.94,303.92 881.70,303.38 882.44,292.58 883.17,293.12 883.90,302.84 884.64,302.30 885.39,303.92 886.14,299.87 886.89,303.92 887.65,302.84 888.39,301.49 889.14,303.92 889.90,303.38 890.64,303.38 891.39,303.92 892.13,303.38 892.87,302.84 893.61,303.92 894.35,303.92 895.10,302.84 895.85,303.92 896.59,303.38 897.33,302.84 898.07,302.57 898.82,303.38 899.57,302.57 900.32,302.57 901.05,303.38 901.80,302.30 902.52,303.92 903.28,303.92 904.03,303.38 904.77,303.92 905.52,303.38 906.28,303.38 907.02,303.38 907.76,303.38 908.51,303.92 909.26,303.92 910.01,303.92 910.75,303.92 911.55,302.84 912.30,302.03 913.05,303.38 913.80,303.92 914.56,303.38 915.29,303.92 916.04,303.38 916.79,303.92 917.53,302.84 918.28,303.92 919.02,303.92 919.77,304.46 920.52,303.92 921.27,303.38 922.02,302.57 922.76,303.38 923.50,302.84 924.25,304.46 925.00,303.92 925.75,303.38 926.50,302.84 927.26,301.49 928.02,303.38 928.77,303.92 929.51,303.92 930.26,303.92 931.01,302.03 931.77,303.92 932.51,303.38 933.25,303.92 934.00,303.38 934.74,303.92 935.49,303.92 936.24,276.92 936.99,304.46 937.73,303.38 938.48,303.38 939.23,303.38 939.97,303.92 940.71,303.38 941.46,301.49 942.21,304.46 942.95,303.92 943.69,303.92 944.44,303.38 945.18,303.38 945.92,303.92 946.66,303.38 947.40,302.84 948.14,302.03 948.89,302.84 949.63,303.38 950.38,303.38 951.11,303.38 951.86,303.92 952.60,303.92 953.35,304.46 954.09,303.92 954.83,303.38 955.57,303.38 956.31,303.92 957.07,303.38 957.81,303.92 958.55,303.92 959.30,304.46 960.08,303.38 960.82,303.92 961.57,302.57 962.32,303.92 963.07,303.92 963.82,303.38 964.57,303.38 965.32,303.92 966.06,303.38 966.81,303.92 967.54,304.46 968.29,303.38 969.04,303.92 969.78,302.84 970.53,303.92 971.27,303.92 972.01,302.57 972.76,304.46 973.50,303.38 974.25,302.84 975.00,303.92 975.78,303.92 976.52,303.38 977.26,303.38 978.00,303.38 978.74,303.92 979.50,303.38 980.24,303.92 980.98,303.38 981.73,303.38 982.48,303.92 983.23,303.38 983.97,303.38 984.72,303.92 985.47,303.38 986.21,302.84 986.96,303.92 987.71,303.38 988.45,303.38 989.19,303.92 989.93,302.84 990.67,303.92 991.42,303.92 992.16,303.38 992.90,303.92 993.65,303.92 994.39,303.92 995.14,303.38 995.89,303.38 996.63,299.87 997.38,303.38 998.12,304.46 998.87,303.38 999.61,303.38 1000.36,303.92 1001.10,303.92 1001.85,303.92 1002.60,303.38 1003.34,304.46 1004.07,303.38 1004.82,303.38 1005.57,303.92 1006.31,303.92 1007.08,303.92 1007.82,303.38 1008.56,303.38 1009.31,302.84 1010.06,303.92 1010.80,303.92 1011.56,303.92 1012.31,303.92 1013.11,303.38 1013.85,303.92 1014.66,302.84 1015.40,302.84 1016.14,304.46 1016.88,303.38 1017.63,303.92 1018.37,303.92 1019.12,302.57 1019.86,302.84 1020.61,303.92 1021.35,303.92 1022.10,303.92 1022.84,303.38 1023.58,303.38 1024.33,303.92 1025.07,303.38 1025.82,303.92 1026.56,303.38 1027.30,303.38 1028.05,302.84 1028.79,303.38 1029.55,303.38 1030.29,303.92 1031.02,300.95 1031.77,304.46 1032.51,303.92 1033.27,303.92 1034.01,303.92 1034.76,302.84 1035.51,300.68 1036.25,303.92 1036.99,303.92 1037.73,303.92 1038.48,303.38 1039.22,303.38 1039.96,302.84 1040.70,303.38 1041.44,303.92 1042.18,303.92 1042.93,303.38 1043.67,303.92 1044.42,303.92 1045.17,303.38 1045.94,303.92 1046.69,294.20 1047.43,302.84 1048.17,303.92 1048.91,303.38 1049.65,303.38 1050.39,303.92 1051.14,303.38 1051.88,302.84 1052.62,303.92 1053.36,303.38 1054.10,303.92 1054.84,302.30 1055.58,293.66 1056.33,303.38 1057.07,303.38 1057.81,302.84 1058.57,303.38 1059.30,302.84 1060.04,303.92 1060.80,303.38 1061.54,303.38 1062.29,303.92 1063.03,303.92 1063.77,303.38 1064.52,303.92 1065.27,303.92 1066.02,303.38 1066.77,303.38 1067.51,303.92 1068.25,302.57 1069.00,304.46 1069.75,303.92 1070.49,303.92 1071.26,303.92 1072.00,303.92 1072.75,303.92 1073.50,297.71 1074.25,303.92 1074.99,303.92 1075.73,303.38 1076.48,303.92 1077.23,303.92 1077.98,303.38 1078.71,303.92 1079.46,302.84 1080.21,303.92 1080.96,303.92 1081.71,303.92 1082.47,292.31 1083.23,304.46 1084.02,303.92 1084.78,303.92 1085.52,303.38 1086.26,303.92 1087.00,303.92 1087.75,303.92 1088.49,303.38 1089.24,303.92 1089.99,303.38 1090.74,303.38 1091.49,303.92 1092.23,303.92 1092.97,303.38 1093.71,303.38 1094.46,303.92 1095.21,304.46 1095.97,303.38 1096.73,303.38 1097.48,303.92 1098.24,302.84 1099.02,303.38 1099.77,302.84 1100.56,302.57 1101.31,304.46 1102.05,303.92 1102.80,302.84 1103.55,303.92 1104.29,302.57 1105.04,303.38 1105.78,303.92 1106.52,303.38 1107.27,303.92 1108.01,303.38 1108.77,304.46 1109.52,303.92 1110.27,303.92 1111.03,303.92 1111.90,303.92 1112.65,302.84 1113.38,303.92 1114.13,303.38 1114.87,303.92 1115.60,292.58 1116.34,303.92 1117.03,303.92 1117.70,303.38 1118.50,303.92 1119.20,302.84 1119.88,303.92 1120.65,303.38 1121.29,302.84 1122.03,303.38 1122.78,303.92 1123.53,292.85 1124.27,303.38 1125.01,302.84 1125.75,303.92 1126.49,302.57 1127.23,303.92 1127.98,303.92 1128.72,302.84 1129.46,303.92 1130.21,302.84 1130.95,303.92 1131.69,302.84 1132.44,303.92 1133.17,302.84 1133.91,303.38 1134.65,302.57 1135.39,302.84 1136.13,303.92 1136.87,303.92 1137.62,302.03 1138.37,304.46 1139.11,303.92 1139.84,303.38 1140.59,303.92 1141.33,302.84 1142.07,303.92 1142.81,303.92 1143.55,303.92 1144.29,303.38 1145.03,303.92 1145.77,303.92 1146.51,303.92 1147.25,303.92 1148.00,303.92 1148.74,303.92 1149.49,303.38 1150.23,303.38 1150.97,304.46 1151.71,303.92 1152.45,303.92 1153.20,303.92 1153.94,302.84 1154.67,303.92 1155.41,303.92 1156.15,303.92 1156.89,303.38 1157.63,303.92 1158.36,303.92 1159.12,302.84 1159.87,303.38 1160.61,302.84 1161.35,302.84 1162.10,303.92 1162.84,303.92 1163.59,303.92 1164.33,302.84 1165.08,303.92 1165.82,303.92 1166.56,303.38 1167.30,303.38 1168.04,302.84 1168.79,303.38 1169.53,303.38 1170.27,302.84 1171.02,303.92 1171.76,303.92 1172.50,302.84 1173.24,303.38 1173.98,303.92 1174.73,302.57 1175.47,303.92 1176.21,303.92 1176.95,303.92 1177.70,303.92 1178.45,303.92 1179.26,303.92 1180.00,303.92"/>
<rect x="70" y="332" width="12" height="12" fill="#d62728" fill-opacity="0.95"/>
<text x="88" y="342" font-size="11" fill="#333" font-family="Arial, Helvetica, sans-serif">nsc1.utdallas.edu</text>
<rect x="350" y="332" width="12" height="12" fill="#d62728" fill-opacity="0.80"/>
<text x="368" y="342" font-size="11" fill="#333" font-family="Arial, Helvetica, sans-serif">nsc2.utdallas.edu</text>
<rect x="630" y="332" width="12" height="12" fill="#d62728" fill-opacity="0.65"/>
<text x="648" y="342" font-size="11" fill="#333" font-family="Arial, Helvetica, sans-serif">nsc3.utdallas.edu</text>
<rect x="910" y="332" width="12" height="12" fill="#d62728" fill-opacity="0.50"/>
<text x="928" y="342" font-size="11" fill="#333" font-family="Arial, Helvetica, sans-serif">nsc4.utdallas.edu</text>
</svg>