<?xml version="1.0" encoding="UTF-8"?>
<svg xmlns="http://www.w3.org/2000/svg" width="1200" height="360" viewBox="0 0 1200 360" role="img" aria-label="CPU Utilization (%)">
<rect width="100%" height="100%" fill="#ffffff"/>
<text x="600.0" y="22" text-anchor="middle" font-size="16" font-family="Arial, Helvetica, sans-serif" font-weight="bold">CPU Utilization (%)</text>
<line x1="70" y1="35.00" x2="1180" y2="35.00" stroke="#e3e3e3" stroke-width="1"/>
<text x="62" y="39.00" text-anchor="end" font-size="11" fill="#444" font-family="Arial, Helvetica, sans-serif">100</text>
<line x1="70" y1="89.00" x2="1180" y2="89.00" stroke="#e3e3e3" stroke-width="1"/>
<text x="62" y="93.00" text-anchor="end" font-size="11" fill="#444" font-family="Arial, Helvetica, sans-serif">80</text>
<line x1="70" y1="143.00" x2="1180" y2="143.00" stroke="#e3e3e3" stroke-width="1"/>
<text x="62" y="147.00" text-anchor="end" font-size="11" fill="#444" font-family="Arial, Helvetica, sans-serif">60</text>
<line x1="70" y1="197.00" x2="1180" y2="197.00" stroke="#e3e3e3" stroke-width="1"/>
<text x="62" y="201.00" text-anchor="end" font-size="11" fill="#444" font-family="Arial, Helvetica, sans-serif">40</text>
<line x1="70" y1="251.00" x2="1180" y2="251.00" stroke="#e3e3e3" stroke-width="1"/>
<text x="62" y="255.00" text-anchor="end" font-size="11" fill="#444" font-family="Arial, Helvetica, sans-serif">20</text>
<line x1="70" y1="305.00" x2="1180" y2="305.00" stroke="#e3e3e3" stroke-width="1"/>
<text x="62" y="309.00" text-anchor="end" font-size="11" fill="#444" font-family="Arial, Helvetica, sans-serif">0</text>
<line x1="70" y1="35" x2="70" y2="305" stroke="#999"/>
<line x1="70" y1="305" x2="1180" y2="305" stroke="#999"/>
<text x="70.00" y="323" text-anchor="middle" font-size="10" fill="#444" font-family="Arial, Helvetica, sans-serif">2026-02-11 16:38</text>
<text x="347.50" y="323" text-anchor="middle" font-size="10" fill="#444" font-family="Arial, Helvetica, sans-serif">2026-02-13 00:54</text>
<text x="625.00" y="323" text-anchor="middle" font-size="10" fill="#444" font-family="Arial, Helvetica, sans-serif">2026-02-14 09:11</text>
<text x="902.50" y="323" text-anchor="middle" font-size="10" fill="#444" font-family="Arial, Helvetica, sans-serif">2026-02-15 17:28</text>
<text x="1180.00" y="323" text-anchor="middle" font-size="10" fill="#444" font-family="Arial, Helvetica, sans-serif">2026-02-17 01:44</text>
<polyline fill="none" stroke="#d62728" stroke-opacity="0.95" stroke-width="2" points="70.77,304.46 71.55,298.79 72.31,296.90 73.09,303.92 73.87,304.73 74.63,304.46 75.40,303.92 76.24,304.73 77.01,303.92 77.77,304.46 78.54,303.92 79.32,304.46 80.09,304.46 80.86,303.92 82.24,304.46 83.44,303.92 84.22,304.46 85.01,303.92 85.78,300.95 86.55,304.73 87.30,278.27 88.08,303.92 88.85,304.46 89.62,294.74 90.40,304.46 91.19,303.92 91.96,301.49 92.73,303.92 93.54,295.28 94.32,294.20 95.09,303.65 95.88,304.46 96.65,304.46 97.42,303.92 98.22,303.65 98.98,302.30 99.76,303.92 100.54,304.46 101.30,303.92 102.07,304.73 102.84,304.73 103.60,304.46 104.38,303.38 105.14,304.46 105.93,303.92 106.71,303.38 107.47,304.46 108.24,297.71 109.02,297.44 109.79,48.23 110.67,303.92 111.44,303.92 112.21,304.46 112.98,303.65 113.74,303.65 114.51,304.46 115.27,304.46 116.05,303.92 116.82,304.46 117.60,303.92 118.37,304.46 119.13,304.46 119.91,299.60 120.69,303.65 121.46,303.92 122.23,304.73 123.00,303.92 123.76,304.73 124.53,304.46 125.29,304.46 126.06,304.46 126.83,303.92 127.59,304.73 128.37,303.92 129.14,304.46 129.90,304.73 130.68,303.38 131.44,303.38 132.21,303.65 133.00,304.46 133.77,303.65 134.54,304.73 135.31,304.46 136.08,304.46 136.85,304.73 137.62,303.92 138.38,303.92 139.15,304.46 139.92,304.73 140.70,299.60 141.47,303.65 142.25,304.46 143.01,304.73 143.78,303.65 144.55,303.92 145.32,304.46 146.08,304.46 146.85,303.92 147.62,303.92 148.39,303.92 149.16,304.46 149.94,303.92 150.71,303.92 151.49,298.79 152.26,303.65 153.03,304.46 153.80,304.73 154.57,304.73 155.33,304.46 156.11,304.46 156.88,304.46 157.65,304.46 158.42,302.84 159.20,304.46 159.97,304.46 160.75,304.46 161.53,304.46 162.30,304.46 163.07,304.46 163.84,303.65 164.61,304.73 165.38,303.38 166.15,304.46 166.99,304.46 167.75,304.73 168.54,303.92 169.30,303.92 170.07,304.46 170.83,299.87 171.59,304.46 172.36,304.73 173.13,295.01 173.90,304.46 174.67,303.92 175.43,303.92 176.20,303.92 176.97,304.46 177.75,303.65 178.52,304.46 179.29,304.46 180.06,304.46 180.83,303.92 181.59,303.92 182.37,303.92 183.14,304.73 183.91,304.46 184.68,304.46 185.45,303.92 186.22,304.46 186.98,303.65 187.75,303.92 188.52,303.65 189.29,304.73 190.07,304.46 190.84,304.46 191.61,304.46 192.39,303.11 193.16,303.38 193.93,304.46 194.70,304.46 195.47,304.46 196.26,303.65 197.04,303.92 197.80,304.46 198.58,297.71 199.34,294.20 200.11,303.92 200.87,304.46 201.65,303.65 202.41,297.71 203.17,304.46 203.94,303.92 204.72,304.46 205.49,304.46 206.26,303.92 207.03,303.38 207.82,304.73 208.59,303.92 209.36,303.38 210.13,303.92 210.89,304.46 211.73,304.46 212.52,303.92 213.28,304.73 214.05,304.46 214.81,304.46 215.58,304.73 216.35,304.46 217.12,304.73 217.90,35.00 218.66,303.65 219.43,303.11 220.20,297.17 220.99,304.46 221.76,304.46 222.52,304.46 223.29,303.92 224.07,303.65 224.86,304.46 225.64,303.11 226.41,304.73 227.18,304.46 227.95,303.92 228.72,304.73 229.49,304.46 230.26,303.92 231.04,304.73 231.81,304.46 232.57,304.46 233.35,304.46 234.12,303.92 234.89,303.65 235.66,304.46 236.44,303.65 237.22,304.46 237.98,301.76 238.74,302.03 239.51,304.46 240.28,304.46 241.05,304.46 241.82,35.00 242.59,303.65 243.35,303.92 244.12,304.46 244.90,304.46 245.67,303.65 246.44,304.46 247.22,304.73 247.99,304.46 248.77,304.73 249.54,35.00 250.31,304.73 251.08,303.65 251.85,304.46 252.62,303.65 253.41,304.73 254.18,300.68 254.95,303.65 255.73,303.92 256.49,304.46 257.27,304.46 258.03,304.46 258.80,304.46 259.57,304.73 260.34,304.73 261.12,304.73 261.89,303.65 262.66,303.92 263.43,303.92 264.20,304.73 264.98,35.00 265.76,304.46 266.52,303.92 267.29,304.73 268.07,303.92 268.85,304.73 269.62,303.92 270.39,304.46 271.16,303.92 272.01,304.73 272.79,304.46 273.56,303.65 274.33,304.46 275.11,304.46 275.89,303.92 276.66,304.46 277.43,303.65 278.19,304.73 278.99,295.28 279.77,297.17 280.53,304.46 281.30,304.46 282.08,304.46 282.85,304.73 283.62,304.46 284.42,303.65 285.19,304.46 285.96,303.92 286.74,304.73 287.57,304.73 288.34,304.73 289.31,303.65 290.61,304.46 291.40,303.92 292.19,303.92 292.96,304.73 293.71,304.46 294.48,303.92 295.26,303.65 296.04,304.46 296.81,304.73 297.62,303.92 298.41,35.00 299.23,303.65 300.00,304.46 300.78,304.73 301.55,303.92 302.33,303.92 303.11,303.65 303.89,304.46 304.65,303.92 305.42,304.46 306.23,304.46 307.00,304.46 307.76,304.46 308.54,304.46 309.32,303.92 310.12,304.46 310.90,303.92 311.67,303.92 312.46,303.65 313.20,303.92 313.97,303.65 314.75,303.92 315.52,303.92 316.30,303.92 317.10,303.11 317.87,303.92 318.64,303.92 319.42,304.46 320.20,304.46 320.97,303.65 321.74,304.73 322.50,299.06 323.28,304.73 324.05,304.46 324.82,48.23 325.74,48.50 326.64,48.77 327.56,48.50 328.45,48.23 329.33,48.50 330.22,48.50 331.13,48.77 332.03,304.46 332.80,304.46 333.57,304.46 334.34,303.92 335.10,304.46 335.88,304.46 336.64,303.92 337.41,304.19 338.17,303.65 338.94,304.73 339.71,303.92 340.48,303.92 341.25,304.46 342.02,304.73 342.78,304.73 343.55,304.46 344.32,304.46 345.09,304.46 345.85,303.92 346.62,304.46 347.40,304.73 348.16,303.65 348.93,304.46 349.69,35.00 350.46,304.46 351.23,304.46 352.00,304.73 352.77,304.46 353.54,304.73 354.31,35.00 355.08,304.46 355.85,304.46 356.62,304.73 357.38,303.92 358.15,303.92 358.91,303.92 359.67,303.38 360.44,304.73 361.21,303.65 361.97,304.46 362.74,303.92 363.50,304.46 364.27,304.73 365.03,303.92 365.80,303.38 366.55,304.73 367.35,303.65 368.18,304.73 368.95,304.73 369.72,304.46 370.49,303.92 371.25,303.65 372.02,297.44 372.78,297.71 373.55,48.50 374.46,48.50 375.36,48.50 376.26,48.23 377.16,48.50 378.07,48.23 378.96,48.50 379.88,48.77 380.82,295.82 381.66,297.17 382.48,304.73 383.25,303.92 384.03,303.92 384.80,304.73 385.57,303.92 386.33,304.46 387.10,304.46 387.87,304.46 388.64,304.46 389.40,304.46 390.17,304.73 390.95,303.11 391.71,304.73 392.49,303.92 393.26,304.46 394.03,304.73 394.70,304.46 395.50,303.92 396.26,304.73 397.05,304.73 397.82,304.73 398.59,303.92 399.36,35.00 400.14,304.73 400.91,304.73 401.69,304.46 402.47,304.73 403.25,303.65 404.02,304.46 404.78,304.73 405.55,304.73 406.31,304.73 407.08,35.00 407.84,303.92 408.62,303.92 409.39,303.92 410.16,303.65 410.93,304.46 411.69,304.46 412.47,303.92 413.24,304.46 414.01,304.46 414.79,304.73 415.56,303.92 416.32,301.22 417.10,304.46 417.87,304.46 418.67,304.46 419.43,303.65 420.20,304.46 420.96,304.73 421.73,304.46 422.49,300.68 423.27,303.92 424.04,304.73 424.80,304.46 425.57,304.73 426.34,303.38 427.11,303.92 427.88,304.73 428.66,304.73 429.42,303.92 430.35,303.92 431.14,303.92 431.93,303.65 432.71,304.46 433.48,302.84 434.26,304.46 435.02,304.46 435.79,303.92 436.57,303.92 437.35,303.11 438.11,304.73 438.89,304.46 439.66,304.46 440.43,304.46 441.23,304.73 442.01,304.73 442.78,304.46 443.55,304.73 444.32,304.73 445.09,302.57 445.86,302.84 446.63,301.22 447.43,303.92 448.21,304.46 448.98,304.46 449.75,304.46 450.52,303.92 451.30,304.73 452.06,304.46 452.83,304.46 453.61,303.92 454.38,304.46 455.16,304.46 455.93,304.46 456.69,297.44 457.47,303.92 458.23,304.46 459.02,304.46 459.79,300.68 460.56,303.92 461.32,289.07 462.10,303.65 462.88,302.03 463.65,302.84 464.58,302.84 465.37,304.46 466.14,304.46 466.91,303.92 467.68,304.73 468.46,303.92 469.23,303.92 470.00,303.65 470.79,304.46 471.55,303.92 472.32,304.73 473.09,304.46 473.86,304.46 474.63,303.92 475.40,304.73 476.17,304.46 476.94,304.73 477.71,304.46 478.48,304.73 479.24,304.73 480.03,303.92 480.79,304.46 481.56,304.73 482.34,304.46 483.12,304.46 483.88,304.73 484.65,304.46 485.43,303.38 486.22,303.92 486.98,304.73 487.76,304.73 488.53,303.92 489.31,303.92 490.07,304.46 490.85,303.92 491.62,303.92 492.41,304.73 493.18,303.92 493.95,304.46 494.71,303.92 495.48,304.46 496.25,304.73 497.02,303.92 497.79,304.73 498.57,304.46 499.35,304.73 500.13,298.79 500.88,303.92 501.66,303.92 502.43,304.46 503.20,304.46 503.97,303.65 504.74,303.65 505.51,304.73 506.29,303.92 507.06,303.92 507.83,235.88 508.61,236.69 509.38,236.69 510.16,236.69 510.93,236.15 511.71,232.10 512.57,227.51 513.42,228.59 514.25,222.65 515.02,236.42 515.83,236.15 516.60,235.61 517.38,236.69 518.14,236.69 518.86,236.15 519.66,235.61 520.44,236.15 521.22,236.42 521.98,233.18 522.75,236.69 523.52,236.42 524.29,236.15 525.06,235.61 525.84,235.88 526.60,236.42 527.38,236.42 528.15,236.96 528.93,236.42 529.71,235.61 530.48,236.69 531.26,236.15 532.03,236.42 532.80,242.63 533.59,255.86 534.37,236.69 535.13,235.88 535.90,236.15 536.67,236.42 537.44,235.88 538.21,236.15 538.98,236.96 539.76,236.15 540.54,236.69 541.30,236.96 542.07,236.15 542.85,236.96 543.62,236.15 544.40,236.42 545.17,234.53 545.94,236.15 546.71,236.69 547.49,236.69 548.26,235.34 549.04,236.15 549.82,236.15 550.59,235.61 551.36,236.69 552.14,236.96 552.91,235.61 553.69,232.91 554.48,234.26 555.26,236.42 556.03,236.42 556.80,236.15 557.57,236.96 558.35,236.15 559.12,236.69 559.90,236.96 560.67,234.53 561.44,236.42 562.22,236.69 562.99,236.42 563.76,236.15 564.55,236.42 565.32,235.88 566.10,236.15 566.87,236.96 567.65,235.61 568.43,235.88 569.20,235.88 569.97,236.42 570.75,236.42 571.52,236.69 572.31,236.69 573.09,236.42 573.87,235.61 574.64,236.15 575.41,236.15 576.18,235.34 576.95,236.69 577.73,235.61 578.51,236.69 579.28,235.88 580.05,236.69 580.82,232.91 581.60,235.88 582.37,236.42 583.15,235.88 583.92,235.61 584.70,236.69 585.47,235.88 586.25,236.42 587.02,236.42 587.79,236.69 588.56,236.15 589.33,235.88 590.10,236.42 590.88,235.61 591.66,201.32 592.43,236.69 593.21,236.15 593.98,236.42 594.76,236.42 595.54,235.61 596.31,230.48 597.08,235.34 597.87,283.40 598.64,236.69 599.41,230.75 600.19,236.69 600.97,224.00 601.75,236.42 602.52,236.15 603.31,235.61 604.09,235.88 604.87,236.15 605.64,236.96 606.41,230.48 607.19,235.88 607.97,236.15 608.75,235.61 609.53,243.17 610.30,296.63 611.07,236.15 611.84,235.61 612.63,236.69 613.40,229.94 614.18,229.94 614.95,236.15 615.73,236.42 616.49,236.69 617.26,235.61 618.03,236.69 618.81,236.69 619.58,236.42 620.36,236.15 621.13,236.69 621.90,236.69 622.68,236.42 623.47,231.29 624.25,236.69 625.02,236.15 625.79,236.42 626.56,235.88 627.33,235.61 628.11,235.61 628.89,236.42 629.66,236.96 630.43,236.69 631.21,236.69 631.99,235.61 632.76,235.88 633.53,235.88 634.31,236.69 635.11,236.69 635.89,235.61 636.67,236.15 637.45,283.13 638.22,236.42 639.00,236.69 639.77,235.88 640.54,236.15 641.31,235.07 642.09,236.42 642.87,236.69 643.65,236.15 644.42,237.23 645.21,236.15 646.01,236.15 646.78,236.15 647.56,236.69 648.33,236.69 649.11,236.42 649.88,236.69 650.66,236.69 651.45,235.61 652.22,236.42 653.01,235.34 653.78,236.96 654.56,235.61 655.34,236.69 656.11,236.69 656.88,236.15 657.66,236.42 658.43,236.42 659.21,296.90 659.99,236.15 660.77,235.61 661.54,236.42 662.32,236.42 663.10,236.69 663.87,236.69 664.65,236.69 665.43,236.69 666.23,235.34 667.00,235.88 667.79,233.45 668.56,236.15 669.35,236.15 670.15,235.07 670.94,234.26 671.72,234.26 672.52,235.88 673.30,290.15 674.08,236.69 674.85,236.42 675.63,236.15 676.41,236.42 677.18,235.34 677.98,236.69 678.75,236.15 679.53,236.69 680.30,235.88 681.07,236.15 681.85,236.69 682.63,236.42 683.40,236.96 684.17,231.83 684.94,236.42 685.71,236.42 686.49,236.42 687.25,236.42 688.03,236.15 688.81,236.69 689.59,236.42 690.35,232.64 691.14,235.88 691.92,237.23 692.69,236.42 693.47,235.88 694.24,236.42 695.02,283.94 695.79,236.15 696.56,236.42 697.34,236.42 698.12,236.42 698.88,290.42 699.65,236.42 700.42,236.69 701.19,236.42 701.97,236.15 702.74,236.69 703.52,235.88 704.29,234.53 705.07,235.34 705.84,236.69 706.62,236.42 707.39,236.15 708.15,236.42 708.92,235.61 709.68,236.69 710.45,236.42 711.23,235.34 712.02,235.88 712.79,236.15 713.56,235.61 714.34,236.69 715.13,236.15 715.90,235.61 716.68,236.15 717.46,235.07 718.23,236.15 719.00,235.61 719.79,236.69 720.56,236.15 721.35,235.61 722.13,290.15 722.90,236.42 723.67,236.69 724.44,236.15 725.21,235.61 725.98,236.42 726.76,236.69 727.52,235.88 728.30,235.88 729.07,235.88 729.85,236.69 730.62,236.15 731.39,236.15 732.16,236.42 732.94,235.34 733.72,235.88 734.50,236.15 735.27,236.15 736.04,235.61 736.82,236.42 737.60,236.96 738.37,235.34 739.14,236.42 739.92,236.15 740.69,236.15 741.46,235.88 742.24,236.42 743.02,233.18 743.79,236.69 744.56,235.88 745.33,236.15 746.13,236.69 746.91,236.15 747.70,235.88 748.48,232.91 749.26,236.15 750.03,283.67 750.81,236.42 751.59,235.88 752.37,234.80 753.13,235.34 753.92,236.15 754.71,234.53 755.49,236.69 756.26,236.42 757.04,236.69 757.81,236.96 758.59,235.88 759.36,236.42 760.13,236.69 760.90,235.61 761.68,236.42 762.45,236.42 763.23,236.69 764.00,236.15 764.78,236.42 765.54,236.15 766.32,235.61 767.09,236.15 767.86,235.07 768.63,236.15 769.42,236.69 770.19,231.83 770.96,235.61 771.74,285.02 772.51,236.69 773.28,236.15 774.06,236.69 774.83,231.29 775.62,283.13 776.39,236.42 777.16,234.53 777.93,235.88 778.71,236.69 779.48,236.42 780.25,229.40 781.04,236.69 781.83,235.34 782.62,235.88 783.41,236.15 784.20,235.61 784.99,236.15 785.78,236.69 786.57,236.69 787.38,236.15 788.16,229.94 788.96,236.42 789.73,236.42 790.50,235.34 791.28,230.75 792.07,236.15 792.84,236.15 793.62,236.69 794.39,236.96 795.18,235.88 795.95,235.34 796.73,236.15 797.49,235.88 798.27,235.61 799.04,236.69 799.81,235.07 800.58,231.83 801.36,236.69 802.14,235.88 802.91,236.15 803.70,236.42 804.48,236.42 805.25,232.91 806.02,236.69 806.80,235.88 807.57,236.15 808.35,231.02 809.12,290.69 809.90,236.69 810.67,232.64 811.45,243.71 812.22,236.69 813.00,236.69 813.77,235.88 814.55,236.15 815.32,235.88 816.15,235.61 816.95,234.53 817.72,236.15 818.50,235.61 819.27,262.88 820.05,230.21 820.84,236.69 821.62,230.21 822.39,236.42 823.16,235.61 823.92,236.69 824.70,236.15 825.47,236.42 826.24,236.69 827.02,233.18 827.79,236.15 828.58,236.69 829.36,236.15 830.13,236.69 830.90,236.69 831.68,236.42 832.45,235.61 833.23,236.15 834.00,236.15 834.77,236.15 835.55,235.07 836.33,236.42 837.11,231.56 837.88,236.69 838.69,235.61 839.47,236.69 840.24,235.61 841.01,235.61 841.79,235.34 842.56,236.42 843.35,236.42 844.12,236.42 844.89,296.90 845.67,236.42 846.45,236.69 847.24,249.38 848.02,236.15 848.80,236.15 849.57,235.88 850.34,236.42 851.12,236.15 851.89,232.91 852.67,235.88 853.44,236.69 854.23,235.34 855.00,236.42 855.77,236.42 856.55,235.61 857.32,236.15 858.10,236.15 858.87,236.69 859.64,236.69 860.41,236.15 861.19,235.88 861.97,236.96 862.74,235.88 863.51,236.96 864.29,236.42 865.07,235.34 865.84,236.15 866.62,232.10 867.39,236.69 868.16,236.15 868.93,297.17 869.70,236.42 870.48,236.42 871.25,236.42 872.05,236.42 872.83,230.75 873.60,236.15 874.38,236.69 875.15,235.88 875.94,236.42 876.78,236.15 877.57,231.83 878.35,235.07 879.13,234.80 879.91,235.88 880.69,270.17 881.46,236.15 882.24,236.42 883.01,243.17 883.79,236.69 884.57,235.34 885.34,236.69 886.12,236.69 886.91,236.96 887.69,236.69 888.47,236.69 889.24,235.88 890.01,236.15 890.79,236.69 891.57,236.15 892.34,234.80 893.12,236.69 893.90,236.15 894.68,236.42 895.45,236.42 896.23,235.34 897.01,236.69 897.79,236.69 898.58,236.69 899.35,236.69 900.13,236.15 900.90,235.88 901.68,236.69 902.46,236.69 903.23,236.15 904.00,236.69 904.78,291.23 905.55,235.61 906.33,236.69 907.11,236.15 907.87,236.15 908.65,235.61 909.43,235.34 910.21,236.15 910.98,236.42 911.76,236.69 912.53,236.42 913.32,235.61 914.10,236.69 914.86,236.69 915.61,236.42 916.38,236.15 917.16,236.15 917.94,236.42 918.72,236.42 919.50,236.42 920.28,236.69 921.06,235.88 921.84,235.61 922.61,236.69 923.39,236.42 924.16,236.15 924.94,236.42 925.70,234.26 926.47,235.88 927.25,233.99 928.03,235.88 928.80,235.88 929.57,235.07 930.34,236.42 931.12,236.15 931.89,236.42 932.67,236.42 933.43,236.42 934.21,289.61 934.96,236.69 935.75,235.61 936.52,235.88 937.30,236.69 938.08,236.15 938.86,236.69 939.63,236.69 940.40,236.69 941.19,236.42 941.96,236.69 942.74,236.69 943.51,236.15 944.35,236.15 945.12,236.15 945.90,236.15 946.68,236.42 947.46,236.69 948.23,236.15 949.00,236.15 949.79,235.61 950.56,236.42 951.33,236.69 952.10,236.42 952.88,236.42 953.66,236.42 954.44,236.15 955.21,236.42 955.99,236.96 956.76,236.69 957.54,236.42 958.31,236.42 959.10,235.61 959.87,230.21 960.66,235.07 961.45,236.69 962.23,236.69 963.00,236.69 963.78,236.69 964.56,236.69 965.34,236.69 966.12,235.61 966.89,236.42 967.66,235.88 968.44,304.46 969.21,303.11 969.99,304.46 970.77,304.46 971.55,304.46 972.32,304.46 973.10,303.65 973.86,304.46 974.64,304.46 975.41,304.46 976.19,299.60 976.96,303.92 977.73,304.46 978.51,304.73 979.28,303.92 980.05,304.46 980.82,304.46 981.59,304.46 982.36,304.46 983.13,304.46 983.91,304.46 984.68,304.73 985.44,304.46 986.22,303.92 986.99,302.84 987.77,304.73 988.54,304.46 989.31,304.46 990.08,303.92 990.85,304.46 991.64,304.46 992.40,304.46 993.18,304.46 993.95,304.46 994.76,301.22 995.53,304.73 996.31,303.92 997.09,304.73 997.87,303.92 998.65,304.46 999.42,304.46 1000.20,304.73 1000.98,304.73 1001.75,304.46 1002.52,304.46 1003.29,304.73 1004.07,304.46 1004.84,303.65 1005.62,304.46 1006.39,304.46 1007.16,304.46 1007.93,304.73 1008.70,304.46 1009.48,304.73 1010.26,304.73 1011.07,304.46 1011.84,301.49 1012.61,304.46 1013.38,304.46 1014.14,303.92 1014.93,304.46 1015.70,297.44 1016.48,304.46 1017.26,304.73 1018.03,304.73 1018.81,304.73 1019.58,303.38 1020.36,304.46 1021.14,304.46 1021.91,303.11 1022.69,304.73 1023.46,303.65 1024.23,304.46 1025.01,301.76 1025.78,304.46 1026.54,297.44 1027.32,304.46 1028.09,304.46 1028.86,302.84 1029.64,304.73 1030.41,304.46 1031.19,304.46 1031.96,303.11 1032.74,304.46 1033.51,304.46 1034.28,303.92 1035.06,303.92 1035.83,304.46 1036.61,303.92 1037.38,303.92 1038.16,303.92 1038.93,304.46 1039.70,303.92 1040.47,303.92 1041.24,304.46 1042.02,303.38 1042.79,304.46 1043.59,304.73 1044.36,304.46 1045.13,304.46 1045.91,304.73 1046.68,304.73 1047.46,35.00 1048.25,303.92 1049.03,304.73 1049.85,300.95 1050.63,298.25 1051.46,303.92 1052.24,304.73 1053.00,304.46 1053.77,304.73 1054.55,304.46 1055.32,304.46 1056.10,304.46 1056.87,304.46 1057.65,297.17 1058.42,304.46 1059.20,303.92 1059.97,303.65 1060.74,304.46 1061.51,304.46 1062.29,303.65 1063.06,304.46 1063.83,304.19 1064.60,304.46 1065.38,304.73 1066.15,304.46 1066.93,304.46 1067.70,299.06 1068.47,303.38 1069.24,303.92 1070.02,304.46 1070.80,304.19 1071.58,303.65 1072.35,303.65 1073.13,303.65 1073.90,303.92 1074.67,303.65 1075.44,304.46 1076.22,303.65 1076.98,303.65 1077.75,304.73 1078.52,304.46 1079.29,304.73 1080.06,303.92 1080.84,304.46 1081.61,304.46 1082.38,303.92 1083.16,304.46 1083.96,304.46 1084.74,302.30 1085.51,302.03 1086.28,304.46 1087.05,297.17 1087.82,303.92 1088.59,304.46 1089.37,303.92 1090.14,303.65 1090.91,303.65 1091.68,303.92 1092.44,303.92 1093.21,303.65 1093.98,303.92 1094.76,303.92 1095.53,303.92 1096.30,304.73 1097.08,303.92 1097.85,304.46 1098.62,304.73 1099.41,301.76 1100.17,304.46 1100.95,303.92 1101.72,304.46 1102.50,304.46 1103.27,304.46 1104.05,303.92 1104.82,304.46 1105.61,303.92 1106.38,304.46 1107.15,304.46 1107.92,303.92 1108.70,304.46 1109.47,304.46 1110.27,301.76 1111.04,304.46 1111.82,303.92 1112.60,304.46 1113.38,303.65 1114.15,303.38 1114.92,304.46 1115.69,304.46 1116.48,303.92 1117.25,303.65 1118.02,304.73 1118.79,304.73 1119.58,304.73 1120.35,303.92 1121.13,304.73 1121.92,304.73 1122.71,302.84 1123.53,303.92 1124.32,304.46 1125.09,304.46 1125.86,303.11 1126.63,303.65 1127.41,303.65 1128.18,304.46 1128.95,304.73 1129.73,304.46 1130.51,303.65 1131.29,303.92 1132.06,303.92 1132.82,304.73 1133.60,300.68 1134.38,304.73 1135.16,303.92 1135.95,304.46 1136.74,304.46 1137.52,304.46 1138.30,304.46 1139.11,304.46 1139.89,304.46 1140.71,303.92 1141.49,304.46 1142.27,304.46 1143.04,304.46 1143.82,304.46 1144.59,304.46 1145.37,304.46 1146.14,304.73 1146.91,304.73 1147.68,303.92 1148.46,303.38 1149.25,303.38 1150.02,304.46 1150.80,304.73 1151.59,303.92 1152.49,303.92 1153.27,304.46 1154.04,304.73 1154.81,304.73 1155.58,304.73 1156.34,303.92 1157.11,304.46 1157.82,304.46 1158.52,304.46 1159.36,296.90 1160.08,304.46 1160.79,304.46 1161.58,303.65 1162.25,304.46 1163.02,304.46 1163.80,304.46 1164.58,304.46 1165.34,303.92 1166.11,304.73 1166.89,304.46 1167.66,303.92 1168.42,302.84 1169.20,304.73 1169.97,300.95 1170.74,303.65 1171.52,303.92 1172.29,304.73 1173.06,304.46 1173.83,303.92 1174.60,303.38 1175.36,304.46 1176.13,303.92 1176.90,303.65 1177.67,304.73 1178.44,303.92 1179.22,303.92 1180.00,304.46"/>
<polyline fill="none" stroke="#d62728" stroke-opacity="0.80" stroke-width="2" points="70.00,303.38 70.77,304.19 71.55,302.57 72.31,303.38 73.09,304.19 73.87,287.72 74.63,303.38 75.40,304.19 76.24,304.19 77.01,303.38 77.77,303.38 78.54,304.19 79.32,304.19 80.09,304.19 80.86,304.19 82.24,304.19 83.44,302.57 84.22,304.19 85.01,304.19 85.78,304.19 86.55,303.38 87.30,303.38 88.08,304.19 88.85,302.57 89.62,302.57 90.40,303.38 91.19,303.38 91.96,304.19 92.73,303.38 93.54,35.00 94.32,303.38 95.09,35.00 95.88,35.00 96.65,303.38 97.42,304.19 98.22,35.00 98.98,303.38 99.76,302.57 100.54,304.19 101.30,303.38 102.07,303.38 102.84,302.57 103.60,304.19 104.38,303.38 105.14,303.38 105.93,302.57 106.71,303.38 107.47,35.00 108.24,303.38 109.02,304.19 109.79,304.19 110.67,302.57 111.44,35.00 112.21,304.19 112.98,303.38 113.74,304.19 114.51,303.38 115.27,303.38 116.05,304.19 116.82,35.00 117.60,304.19 118.37,304.19 119.13,304.19 119.91,303.38 120.69,304.19 121.46,302.57 122.23,304.19 123.00,302.57 123.76,302.57 124.53,303.38 125.29,288.80 126.06,302.57 126.83,304.19 127.59,304.19 128.37,303.38 129.14,304.19 129.90,300.14 130.68,304.19 131.44,304.19 132.21,304.19 133.00,35.00 133.77,35.00 134.54,302.57 135.31,35.00 136.08,35.00 136.85,303.38 137.62,304.19 138.38,35.00 139.15,304.19 139.92,304.19 140.70,304.19 141.47,304.19 142.25,303.38 143.01,303.38 143.78,304.19 144.55,304.19 145.32,303.38 146.08,286.91 146.85,303.38 147.62,304.19 148.39,304.19 149.16,304.19 149.94,303.38 150.71,304.19 151.49,304.19 152.26,303.38 153.03,302.57 153.80,302.57 154.57,304.19 155.33,302.57 156.11,304.19 156.88,304.19 157.65,304.19 158.42,35.00 159.20,304.19 159.97,304.19 160.75,302.57 161.53,35.00 162.30,35.00 163.07,303.38 163.84,304.19 164.61,303.38 165.38,304.19 166.15,304.19 166.99,302.57 167.75,304.19 168.54,35.00 169.30,35.00 170.07,302.57 170.83,304.19 171.59,304.19 172.36,303.38 173.13,35.00 173.90,303.38 174.67,35.00 175.43,304.19 176.20,304.19 176.97,304.19 177.75,303.38 178.52,303.38 179.29,304.19 180.06,304.19 180.83,295.28 181.59,35.00 182.37,303.38 183.14,35.00 183.91,35.00 184.68,302.57 185.45,304.19 186.22,299.33 186.98,304.19 187.75,304.19 188.52,304.19 189.29,303.38 190.07,303.38 190.84,303.38 191.61,302.57 192.39,303.38 193.16,304.19 193.93,303.38 194.70,304.19 195.47,303.38 196.26,304.19 197.04,303.38 197.80,303.38 198.58,302.57 199.34,303.38 200.11,304.19 200.87,303.38 201.65,35.00 202.41,304.19 203.17,303.38 203.94,302.57 204.72,304.19 205.49,304.19 206.26,303.38 207.03,303.38 207.82,304.19 208.59,35.00 209.36,303.38 210.13,35.00 210.89,302.57 211.73,303.38 212.52,304.19 213.28,35.00 214.05,303.38 214.81,35.00 215.58,304.19 216.35,304.19 217.12,35.00 217.90,304.19 218.66,302.57 219.43,302.57 220.20,303.38 220.99,35.00 221.76,302.57 222.52,304.19 223.29,301.76 224.07,303.38 224.86,303.38 225.64,304.19 226.41,303.38 227.18,303.38 227.95,304.19 228.72,304.19 229.49,303.38 230.26,304.19 231.04,304.19 231.81,303.38 232.57,35.00 233.35,304.19 234.12,303.38 234.89,304.19 235.66,304.19 236.44,304.19 237.22,35.00 237.98,35.00 238.74,302.57 239.51,302.57 240.28,304.19 241.05,303.38 241.82,302.57 242.59,302.57 243.35,35.00 244.12,304.19 244.90,35.00 245.67,303.38 246.44,35.00 247.22,303.38 247.99,303.38 248.77,303.38 249.54,35.00 250.31,304.19 251.08,302.57 251.85,303.38 252.62,304.19 253.41,303.38 254.18,35.00 254.95,303.38 255.73,304.19 256.49,303.38 257.27,304.19 258.03,35.00 258.80,302.57 259.57,304.19 260.34,304.19 261.12,303.38 261.89,303.38 262.66,304.19 263.43,303.38 264.20,304.19 264.98,304.19 265.76,304.19 266.52,303.38 267.29,302.57 268.07,304.19 268.85,35.00 269.62,295.28 270.39,303.38 271.16,302.57 272.01,303.38 272.79,301.76 273.56,35.00 274.33,304.19 275.11,303.38 275.89,304.19 276.66,304.19 277.43,299.33 278.19,304.19 278.99,303.38 279.77,302.57 280.53,303.38 281.30,302.57 282.08,304.19 282.85,304.19 283.62,304.19 284.42,302.57 285.19,303.38 285.96,303.38 286.74,35.00 287.57,303.38 288.34,303.38 289.31,304.19 290.61,302.57 291.40,303.38 292.19,303.38 292.96,303.38 293.71,304.19 294.48,303.38 295.26,304.19 296.04,304.19 296.81,303.38 297.62,304.19 298.41,304.19 299.23,304.19 300.00,304.19 300.78,302.57 301.55,35.00 302.33,304.19 303.11,302.57 303.89,303.38 304.65,303.38 305.42,303.38 306.23,304.19 307.00,304.19 307.76,303.38 308.54,304.19 309.32,303.38 310.12,304.19 310.90,303.38 311.67,304.19 312.46,287.18 313.20,288.53 313.97,301.76 314.75,302.57 315.52,303.38 316.30,35.00 317.10,35.00 317.87,303.38 318.64,303.38 319.42,304.19 320.20,304.19 320.97,35.00 321.74,304.19 322.50,35.00 323.28,303.38 324.05,303.38 324.82,302.57 325.74,303.38 326.64,303.38 327.56,300.95 328.45,303.38 329.33,302.57 330.22,304.19 331.13,304.19 332.03,35.00 332.80,303.38 333.57,303.38 334.34,304.19 335.10,304.19 335.88,302.57 336.64,303.38 337.41,304.19 338.17,303.38 338.94,303.38 339.71,304.19 340.48,303.38 341.25,304.19 342.02,303.38 342.78,303.38 343.55,304.19 344.32,303.38 345.09,35.00 345.85,304.19 346.62,304.19 347.40,303.38 348.16,304.19 348.93,304.19 349.69,35.00 350.46,303.38 351.23,304.19 352.00,304.19 352.77,304.19 353.54,302.57 354.31,35.00 355.08,303.38 355.85,287.72 356.62,304.19 357.38,304.19 358.15,303.38 358.91,301.76 359.67,303.38 360.44,304.19 361.21,302.57 361.97,303.38 362.74,303.38 363.50,303.38 364.27,303.38 365.03,304.19 365.80,303.38 366.55,302.57 367.35,304.19 368.18,303.38 368.95,303.38 369.72,303.38 370.49,303.38 371.25,304.19 372.02,304.19 372.78,304.19 373.55,304.19 374.46,303.38 375.36,303.38 376.26,304.19 377.16,302.57 378.07,304.19 378.96,303.38 379.88,302.57 380.82,304.19 381.66,303.38 382.48,303.38 383.25,303.38 384.03,302.57 384.80,35.00 385.57,35.00 386.33,304.19 387.10,303.38 387.87,35.00 388.64,35.00 389.40,303.38 390.17,304.19 390.95,304.19 391.71,304.19 392.49,303.38 393.26,304.19 394.03,304.19 394.70,304.19 395.50,304.19 396.26,287.72 397.05,303.38 397.82,302.57 398.59,303.38 399.36,303.38 400.14,304.19 400.91,304.19 401.69,303.38 402.47,302.57 403.25,304.19 404.02,303.38 404.78,302.57 405.55,304.19 406.31,301.76 407.08,304.19 407.84,304.19 408.62,303.38 409.39,303.38 410.16,304.19 410.93,303.38 411.69,301.76 412.47,304.19 413.24,304.19 414.01,304.19 414.79,35.00 415.56,303.38 416.32,304.19 417.10,304.19 417.87,304.19 418.67,304.19 419.43,35.00 420.20,35.00 420.96,302.57 421.73,304.19 422.49,35.00 423.27,304.19 424.04,303.38 424.80,302.57 425.57,302.57 426.34,304.19 427.11,303.38 427.88,304.19 428.66,303.38 429.42,301.76 430.35,304.19 431.14,304.19 431.93,304.19 432.71,302.57 433.48,304.19 434.26,304.19 435.02,304.19 435.79,303.38 436.57,304.19 437.35,303.38 438.11,35.00 438.89,302.57 439.66,304.19 440.43,302.57 441.23,304.19 442.01,303.38 442.78,304.19 443.55,303.38 444.32,35.00 445.09,302.57 445.86,303.38 446.63,304.19 447.43,304.19 448.21,304.19 448.98,304.19 449.75,303.38 450.52,304.19 451.30,304.19 452.06,304.19 452.83,304.19 453.61,304.19 454.38,304.19 455.16,302.57 455.93,304.19 456.69,303.38 457.47,304.19 458.23,304.19 459.02,304.19 459.79,304.19 460.56,35.00 461.32,304.19 462.10,301.76 462.88,217.79 463.65,304.19 464.58,35.00 465.37,303.38 466.14,302.57 466.91,304.19 467.68,303.38 468.46,304.19 469.23,303.38 470.00,304.19 470.79,304.19 471.55,303.38 472.32,35.00 473.09,35.00 473.86,304.19 474.63,302.57 475.40,304.19 476.17,304.19 476.94,304.19 477.71,303.38 478.48,304.19 479.24,302.57 480.03,304.19 480.79,35.00 481.56,35.00 482.34,303.38 483.12,304.19 483.88,303.38 484.65,300.95 485.43,304.19 486.22,304.19 486.98,304.19 487.76,303.38 488.53,303.38 489.31,302.57 490.07,35.00 490.85,303.38 491.62,35.00 492.41,35.00 493.18,303.38 493.95,304.19 494.71,302.57 495.48,304.19 496.25,304.19 497.02,303.38 497.79,303.38 498.57,296.09 499.35,304.19 500.13,304.19 500.88,304.19 501.66,302.57 502.43,35.00 503.20,303.38 503.97,304.19 504.74,302.57 505.51,302.57 506.29,303.38 507.06,35.00 507.83,303.38 508.61,303.38 509.38,304.19 510.16,304.19 510.93,303.38 511.71,304.19 512.57,303.38 513.42,303.38 514.25,302.57 515.02,304.19 515.83,303.38 516.60,303.38 517.38,304.19 518.14,35.00 518.86,303.38 519.66,287.18 520.44,304.19 521.22,286.37 521.98,302.57 522.75,304.19 523.52,304.19 524.29,304.19 525.06,304.19 525.84,304.19 526.60,35.00 527.38,303.38 528.15,304.19 528.93,35.00 529.71,304.19 530.48,304.19 531.26,303.38 532.03,304.19 532.80,304.19 533.59,303.38 534.37,303.38 535.13,304.19 535.90,304.19 536.67,304.19 537.44,304.19 538.21,302.57 538.98,35.00 539.76,35.00 540.54,304.19 541.30,303.38 542.07,304.19 542.85,304.19 543.62,304.19 544.40,304.19 545.17,304.19 545.94,301.76 546.71,303.38 547.49,302.57 548.26,304.19 549.04,35.00 549.82,304.19 550.59,304.19 551.36,303.38 552.14,35.00 552.91,304.19 553.69,304.19 554.48,304.19 555.26,35.00 556.03,304.19 556.80,304.19 557.57,303.38 558.35,303.38 559.12,35.00 559.90,35.00 560.67,303.38 561.44,304.19 562.22,302.57 562.99,302.57 563.76,304.19 564.55,295.28 565.32,303.38 566.10,304.19 566.87,304.19 567.65,303.38 568.43,35.00 569.20,304.19 569.97,302.57 570.75,35.00 571.52,302.57 572.31,303.38 573.09,304.19 573.87,303.38 574.64,304.19 575.41,35.00 576.18,35.00 576.95,302.57 577.73,303.38 578.51,295.28 579.28,304.19 580.05,304.19 580.82,303.38 581.60,303.38 582.37,304.19 583.15,304.19 583.92,35.00 584.70,303.38 585.47,303.38 586.25,304.19 587.02,35.00 587.79,304.19 588.56,303.38 589.33,35.00 590.10,304.19 590.88,303.38 591.66,302.57 592.43,304.19 593.21,302.57 593.98,304.19 594.76,303.38 595.54,304.19 596.31,304.19 597.08,304.19 597.87,304.19 598.64,304.19 599.41,304.19 600.19,303.38 600.97,303.38 601.75,304.19 602.52,304.19 603.31,304.19 604.09,304.19 604.87,303.38 605.64,304.19 606.41,304.19 607.19,303.38 607.97,303.38 608.75,35.00 609.53,303.38 610.30,303.38 611.07,304.19 611.84,35.00 612.63,302.57 613.40,304.19 614.18,287.18 614.95,304.19 615.73,35.00 616.49,35.00 617.26,304.19 618.03,304.19 618.81,304.19 619.58,304.19 620.36,303.38 621.13,303.38 621.90,303.38 622.68,304.19 623.47,35.00 624.25,35.00 625.02,35.00 625.79,286.37 626.56,302.57 627.33,301.76 628.11,303.38 628.89,303.38 629.66,286.37 630.43,304.19 631.21,304.19 631.99,304.19 632.76,304.19 633.53,303.38 634.31,35.00 635.11,303.38 635.89,304.19 636.67,303.38 637.45,303.38 638.22,35.00 639.00,304.19 639.77,35.00 640.54,303.38 641.31,302.57 642.09,303.38 642.87,303.38 643.65,303.38 644.42,303.38 645.21,303.38 646.01,304.19 646.78,35.00 647.56,303.38 648.33,304.19 649.11,35.00 649.88,35.00 650.66,304.19 651.45,303.38 652.22,304.19 653.01,304.19 653.78,301.76 654.56,304.19 655.34,303.38 656.11,304.19 656.88,301.76 657.66,304.19 658.43,302.57 659.21,302.57 659.99,303.38 660.77,304.19 661.54,35.00 662.32,35.00 663.10,35.00 663.87,303.38 664.65,303.38 665.43,304.19 666.23,35.00 667.00,302.57 667.79,304.19 668.56,35.00 669.35,304.19 670.15,304.19 670.94,303.38 671.72,303.38 672.52,302.57 673.30,304.19 674.08,303.38 674.85,303.38 675.63,304.19 676.41,35.00 677.18,304.19 677.98,35.00 678.75,304.19 679.53,303.38 680.30,35.00 681.07,302.57 681.85,303.38 682.63,298.52 683.40,303.38 684.17,304.19 684.94,303.38 685.71,304.19 686.49,304.19 687.25,35.00 688.03,304.19 688.81,304.19 689.59,35.00 690.35,304.19 691.14,303.38 691.92,304.19 692.69,35.00 693.47,303.38 694.24,303.38 695.02,304.19 695.79,304.19 696.56,304.19 697.34,304.19 698.12,298.52 698.88,303.38 699.65,302.57 700.42,304.19 701.19,302.57 701.97,303.38 702.74,304.19 703.52,304.19 704.29,303.38 705.07,303.38 705.84,304.19 706.62,304.19 707.39,35.00 708.15,35.00 708.92,304.19 709.68,304.19 710.45,303.38 711.23,303.38 712.02,301.76 712.79,304.19 713.56,304.19 714.34,284.75 715.13,303.38 715.90,303.38 716.68,304.19 717.46,304.19 718.23,304.19 719.00,303.38 719.79,303.38 720.56,304.19 721.35,303.38 722.13,303.38 722.90,303.38 723.67,304.19 724.44,304.19 725.21,303.38 725.98,302.57 726.76,303.38 727.52,304.19 728.30,303.38 729.07,304.19 729.85,304.19 730.62,35.00 731.39,303.38 732.16,304.19 732.94,302.57 733.72,304.19 734.50,304.19 735.27,304.19 736.04,303.38 736.82,301.76 737.60,35.00 738.37,304.19 739.14,303.38 739.92,304.19 740.69,35.00 741.46,304.19 742.24,304.19 743.02,304.19 743.79,304.19 744.56,304.19 745.33,35.00 746.13,35.00 746.91,303.38 747.70,304.19 748.48,304.19 749.26,302.57 750.03,35.00 750.81,302.57 751.59,35.00 752.37,35.00 753.13,303.38 753.92,303.38 754.71,304.19 755.49,304.19 756.26,35.00 757.04,304.19 757.81,303.38 758.59,302.57 759.36,304.19 760.13,304.19 760.90,303.38 761.68,302.57 762.45,304.19 763.23,304.19 764.00,304.19 764.78,304.19 765.54,35.00 766.32,35.00 767.09,304.19 767.86,303.38 768.63,35.00 769.42,304.19 770.19,302.57 770.96,304.19 771.74,304.19 772.51,304.19 773.28,294.47 774.06,303.38 774.83,35.00 775.62,304.19 776.39,304.19 777.16,302.57 777.93,304.19 778.71,304.19 779.48,304.19 780.25,303.38 781.04,304.19 781.83,303.38 782.62,304.19 783.41,304.19 784.20,302.57 784.99,302.57 785.78,304.19 786.57,304.19 787.38,301.76 788.16,301.76 788.96,35.00 789.73,304.19 790.50,303.38 791.28,304.19 792.07,304.19 792.84,303.38 793.62,304.19 794.39,35.00 795.18,35.00 795.95,303.38 796.73,304.19 797.49,304.19 798.27,302.57 799.04,303.38 799.81,304.19 800.58,303.38 801.36,304.19 802.14,304.19 802.91,302.57 803.70,35.00 804.48,304.19 805.25,35.00 806.02,35.00 806.80,304.19 807.57,304.19 808.35,303.38 809.12,303.38 809.90,304.19 810.67,304.19 811.45,303.38 812.22,304.19 813.00,304.19 813.77,304.19 814.55,304.19 815.32,304.19 816.15,303.38 816.95,35.00 817.72,301.76 818.50,35.00 819.27,302.57 820.05,304.19 820.84,304.19 821.62,304.19 822.39,303.38 823.16,304.19 823.92,302.57 824.70,304.19 825.47,35.00 826.24,303.38 827.02,304.19 827.79,303.38 828.58,303.38 829.36,302.57 830.13,35.00 830.90,304.19 831.68,35.00 832.45,304.19 833.23,295.28 834.00,304.19 834.77,303.38 835.55,297.71 836.33,304.19 837.11,35.00 837.88,302.57 838.69,302.57 839.47,304.19 840.24,304.19 841.01,303.38 841.79,304.19 842.56,303.38 843.35,304.19 844.12,304.19 844.89,303.38 845.67,304.19 846.45,304.19 847.24,304.19 848.02,303.38 848.80,304.19 849.57,303.38 850.34,35.00 851.12,304.19 851.89,303.38 852.67,303.38 853.44,303.38 854.23,304.19 855.00,35.00 855.77,303.38 856.55,35.00 857.32,304.19 858.10,35.00 858.87,35.00 859.64,304.19 860.41,35.00 861.19,304.19 861.97,304.19 862.74,35.00 863.51,304.19 864.29,304.19 865.07,303.38 865.84,303.38 866.62,303.38 867.39,304.19 868.16,303.38 868.93,35.00 869.70,303.38 870.48,304.19 871.25,303.38 872.05,302.57 872.83,303.38 873.60,304.19 874.38,304.19 875.15,286.91 875.94,301.76 876.78,303.38 877.57,303.38 878.35,304.19 879.13,303.38 879.91,304.19 880.69,303.38 881.46,304.19 882.24,304.19 883.01,304.19 883.79,304.19 884.57,302.57 885.34,35.00 886.12,303.38 886.91,303.38 887.69,35.00 888.47,303.38 889.24,304.19 890.01,304.19 890.79,303.38 891.57,303.38 892.34,303.38 893.12,303.38 893.90,303.38 894.68,304.19 895.45,303.38 896.23,301.76 897.01,304.19 897.79,304.19 898.58,303.38 899.35,304.19 900.13,35.00 900.90,304.19 901.68,35.00 902.46,303.38 903.23,303.38 904.00,303.38 904.78,304.19 905.55,301.76 906.33,35.00 907.11,35.00 907.87,302.57 908.65,304.19 909.43,35.00 910.21,304.19 910.98,304.19 911.76,304.19 912.53,304.19 913.32,304.19 914.10,35.00 914.86,35.00 915.61,35.00 916.38,304.19 917.16,304.19 917.94,303.38 918.72,304.19 919.50,302.57 920.28,302.57 921.06,303.38 921.84,304.19 922.61,303.38 923.39,304.19 924.16,303.38 924.94,35.00 925.70,303.38 926.47,35.00 927.25,304.19 928.03,304.19 928.80,304.19 929.57,304.19 930.34,302.57 931.12,35.00 931.89,304.19 932.67,303.38 933.43,287.72 934.21,286.10 934.96,304.19 935.75,35.00 936.52,304.19 937.30,301.76 938.08,304.19 938.86,35.00 939.63,304.19 940.40,303.38 941.19,304.19 941.96,304.19 942.74,301.76 943.51,299.33 944.35,302.57 945.12,304.19 945.90,303.38 946.68,35.00 947.46,35.00 948.23,303.38 949.00,303.38 949.79,304.19 950.56,285.02 951.33,304.19 952.10,304.19 952.88,304.19 953.66,304.19 954.44,303.38 955.21,302.57 955.99,303.38 956.76,35.00 957.54,35.00 958.31,304.19 959.10,302.57 959.87,303.38 960.66,35.00 961.45,303.38 962.23,303.38 963.00,35.00 963.78,304.19 964.56,303.38 965.34,302.57 966.12,303.38 966.89,304.19 967.66,304.19 968.44,303.38 969.21,303.38 969.99,35.00 970.77,302.57 971.55,35.00 972.32,35.00 973.10,304.19 973.86,304.19 974.64,303.38 975.41,304.19 976.19,303.38 976.96,35.00 977.73,304.19 978.51,304.19 979.28,35.00 980.05,304.19 980.82,302.57 981.59,300.95 982.36,35.00 983.13,35.00 983.91,35.00 984.68,303.38 985.44,303.38 986.22,304.19 986.99,304.19 987.77,303.38 988.54,302.57 989.31,303.38 990.08,304.19 990.85,304.19 991.64,304.19 992.40,304.19 993.18,303.38 993.95,303.38 994.76,303.38 995.53,302.57 996.31,304.19 997.09,303.38 997.87,304.19 998.65,304.19 999.42,304.19 1000.20,302.57 1000.98,304.19 1001.75,302.57 1002.52,35.00 1003.29,304.19 1004.07,303.38 1004.84,304.19 1005.62,35.00 1006.39,304.19 1007.16,303.38 1007.93,303.38 1008.70,304.19 1009.48,303.38 1010.26,35.00 1011.07,304.19 1011.84,303.38 1012.61,303.38 1013.38,303.38 1014.14,304.19 1014.93,35.00 1015.70,303.38 1016.48,303.38 1017.26,304.19 1018.03,302.57 1018.81,304.19 1019.58,304.19 1020.36,304.19 1021.14,303.38 1021.91,304.19 1022.69,303.38 1023.46,304.19 1024.23,301.76 1025.01,303.38 1025.78,304.19 1026.54,304.19 1027.32,35.00 1028.09,298.52 1028.86,303.38 1029.64,304.19 1030.41,302.57 1031.19,303.38 1031.96,304.19 1032.74,304.19 1033.51,302.57 1034.28,301.76 1035.06,35.00 1035.83,304.19 1036.61,304.19 1037.38,304.19 1038.16,304.19 1038.93,35.00 1039.70,35.00 1040.47,303.38 1041.24,35.00 1042.02,302.57 1042.79,304.19 1043.59,304.19 1044.36,304.19 1045.13,304.19 1045.91,304.19 1046.68,304.19 1047.46,302.57 1048.25,303.38 1049.03,304.19 1049.85,35.00 1050.63,304.19 1051.46,302.57 1052.24,304.19 1053.00,304.19 1053.77,302.57 1054.55,302.57 1055.32,304.19 1056.10,304.19 1056.87,303.38 1057.65,304.19 1058.42,303.38 1059.20,304.19 1059.97,303.38 1060.74,301.76 1061.51,35.00 1062.29,302.57 1063.06,303.38 1063.83,302.57 1064.60,303.38 1065.38,303.38 1066.15,303.38 1066.93,303.38 1067.70,303.38 1068.47,302.57 1069.24,304.19 1070.02,301.76 1070.80,302.57 1071.58,302.57 1072.35,302.57 1073.13,304.19 1073.90,304.19 1074.67,302.57 1075.44,35.00 1076.22,304.19 1076.98,301.76 1077.75,304.19 1078.52,303.38 1079.29,303.38 1080.06,304.19 1080.84,304.19 1081.61,303.38 1082.38,303.38 1083.16,302.57 1083.96,304.19 1084.74,304.19 1085.51,304.19 1086.28,35.00 1087.05,303.38 1087.82,302.57 1088.59,302.57 1089.37,303.38 1090.14,304.19 1090.91,303.38 1091.68,304.19 1092.44,304.19 1093.21,304.19 1093.98,302.57 1094.76,303.38 1095.53,35.00 1096.30,302.57 1097.08,35.00 1097.85,304.19 1098.62,300.14 1099.41,35.00 1100.17,304.19 1100.95,303.38 1101.72,35.00 1102.50,304.19 1103.27,304.19 1104.05,302.57 1104.82,303.38 1105.61,304.19 1106.38,304.19 1107.15,304.19 1107.92,304.19 1108.70,304.19 1109.47,35.00 1110.27,304.19 1111.04,303.38 1111.82,304.19 1112.60,303.38 1113.38,303.38 1114.15,303.38 1114.92,35.00 1115.69,304.19 1116.48,304.19 1117.25,304.19 1118.02,302.57 1118.79,304.19 1119.58,35.00 1120.35,302.57 1121.13,304.19 1121.92,287.99 1122.71,302.57 1123.53,303.38 1124.32,304.19 1125.09,304.19 1125.86,35.00 1126.63,304.19 1127.41,303.38 1128.18,303.38 1128.95,304.19 1129.73,304.19 1130.51,304.19 1131.29,286.37 1132.06,303.38 1132.82,303.38 1133.60,304.19 1134.38,303.38 1135.16,287.72 1135.95,304.19 1136.74,303.38 1137.52,304.19 1138.30,35.00 1139.11,304.19 1139.89,270.71 1140.71,304.19 1141.49,304.19 1142.27,304.19 1143.04,35.00 1143.82,303.38 1144.59,304.19 1145.37,302.57 1146.14,302.57 1146.91,304.19 1147.68,303.38 1148.46,304.19 1149.25,302.57 1150.02,302.57 1150.80,303.38 1151.59,304.19 1152.49,304.19 1153.27,304.19 1154.04,304.19 1154.81,303.38 1155.58,303.38 1156.34,302.57 1157.11,304.19 1157.82,304.19 1158.52,302.57 1160.79,35.00 1162.25,302.57 1163.02,35.00 1163.80,302.57 1164.58,304.19 1165.34,35.00 1166.11,286.91 1166.89,303.38 1167.66,303.38 1168.42,303.38 1169.20,35.00 1169.97,303.38 1170.74,303.38 1171.52,304.19 1172.29,304.19 1173.06,304.19 1173.83,303.38 1174.60,303.38 1175.36,303.38 1176.13,304.19 1176.90,304.19 1177.67,35.00 1178.44,304.19 1179.22,35.00 1180.00,304.19"/>
<polyline fill="none" stroke="#d62728" stroke-opacity="0.65" stroke-width="2" points="70.00,35.00 70.77,304.46 71.55,304.46 72.31,302.30 73.09,304.46 73.87,303.38 74.63,304.46 75.40,304.46 76.24,35.00 77.01,304.46 77.77,304.46 78.54,303.92 79.32,303.92 80.09,304.46 80.86,304.46 82.24,303.92 83.44,304.46 84.22,35.00 85.01,303.92 85.78,302.84 86.55,304.46 87.30,303.92 88.08,302.84 88.85,35.00 89.62,303.92 90.40,35.00 91.19,35.00 91.96,35.00 92.73,303.92 93.54,35.00 94.32,303.38 95.09,303.92 95.88,304.46 96.65,35.00 97.42,35.00 98.22,304.46 98.98,35.00 99.76,304.46 100.54,35.00 101.30,304.46 102.07,303.92 102.84,35.00 103.60,304.46 104.38,304.46 105.14,293.12 105.93,35.00 106.71,304.46 107.47,304.46 108.24,304.46 109.02,35.00 109.79,304.46 110.67,304.46 111.44,304.46 112.21,35.00 112.98,35.00 113.74,304.46 114.51,304.46 115.27,303.38 116.05,303.92 116.82,304.46 117.60,35.00 118.37,304.46 119.13,304.46 119.91,35.00 120.69,304.46 121.46,303.92 122.23,304.46 123.00,304.46 123.76,35.00 124.53,303.92 125.29,303.92 126.06,304.46 126.83,303.92 127.59,303.92 128.37,35.00 129.14,303.92 129.90,304.46 130.68,304.46 131.44,303.38 132.21,35.00 133.00,304.46 133.77,303.38 134.54,304.46 135.31,35.00 136.08,304.46 136.85,304.46 137.62,303.92 138.38,303.92 139.15,303.92 139.92,304.46 140.70,303.92 141.47,304.46 142.25,303.92 143.01,35.00 143.78,303.92 144.55,303.92 145.32,304.46 146.08,304.46 146.85,303.92 147.62,303.92 148.39,35.00 149.16,35.00 149.94,303.92 150.71,35.00 151.49,304.46 152.26,304.46 153.03,304.46 153.80,304.46 154.57,303.92 155.33,304.46 156.11,303.38 156.88,304.46 157.65,303.92 158.42,35.00 159.20,304.46 159.97,303.92 160.75,303.92 161.53,303.92 162.30,304.46 163.07,35.00 163.84,304.46 164.61,304.46 165.38,35.00 166.15,303.92 166.99,304.46 167.75,303.92 168.54,304.46 169.30,304.46 170.07,303.92 170.83,303.92 171.59,304.46 172.36,304.46 173.13,304.46 173.90,303.38 174.67,304.46 175.43,35.00 176.20,303.92 176.97,35.00 177.75,304.46 178.52,35.00 179.29,35.00 180.06,303.92 180.83,303.92 181.59,304.46 182.37,304.46 183.14,304.46 183.91,303.92 184.68,304.46 185.45,304.46 186.22,303.92 186.98,35.00 187.75,304.46 188.52,35.00 189.29,303.92 190.07,304.46 190.84,304.46 191.61,35.00 192.39,35.00 193.16,35.00 193.93,304.46 194.70,303.92 195.47,304.46 196.26,303.92 197.04,303.92 197.80,304.46 198.58,304.46 199.34,304.46 200.11,304.46 200.87,304.46 201.65,304.46 202.41,304.46 203.17,282.59 203.94,304.46 204.72,303.92 205.49,304.46 206.26,304.46 207.03,304.46 207.82,303.38 208.59,304.46 209.36,304.46 210.13,303.92 210.89,304.46 211.73,303.92 212.52,304.46 213.28,304.46 214.05,304.46 214.81,304.46 215.58,304.46 216.35,303.38 217.12,304.46 217.90,304.46 218.66,304.46 219.43,303.92 220.20,35.00 220.99,304.46 221.76,303.92 222.52,303.92 223.29,303.92 224.07,35.00 224.86,304.46 225.64,304.46 226.41,35.00 227.18,303.92 227.95,35.00 228.72,35.00 229.49,304.46 230.26,304.46 231.04,35.00 231.81,35.00 232.57,304.46 233.35,304.46 234.12,303.92 234.89,303.92 235.66,304.46 236.44,304.46 237.22,304.46 237.98,303.92 238.74,304.46 239.51,304.46 240.28,303.92 241.05,303.38 241.82,304.46 242.59,35.00 243.35,304.46 244.12,35.00 244.90,35.00 245.67,303.92 246.44,303.92 247.22,304.46 247.99,304.46 248.77,304.46 249.54,303.92 250.31,297.98 251.08,35.00 251.85,304.46 252.62,303.92 253.41,304.46 254.18,303.92 254.95,35.00 255.73,303.92 256.49,304.46 257.27,35.00 258.03,303.92 258.80,304.46 259.57,304.46 260.34,35.00 261.12,303.92 261.89,303.92 262.66,35.00 263.43,303.92 264.20,303.92 264.98,35.00 265.76,303.92 266.52,304.46 267.29,303.92 268.07,304.46 268.85,303.92 269.62,35.00 270.39,304.46 271.16,35.00 272.01,35.00 272.79,303.92 273.56,303.38 274.33,303.38 275.11,303.38 275.89,35.00 276.66,304.46 277.43,304.46 278.19,304.46 278.99,35.00 279.77,304.46 280.53,304.46 281.30,304.46 282.08,35.00 282.85,304.46 283.62,304.46 284.42,293.66 285.19,303.92 285.96,304.46 286.74,303.92 287.57,304.46 288.34,35.00 289.31,304.46 290.61,304.46 291.40,304.46 292.19,304.46 292.96,35.00 293.71,304.46 294.48,304.46 295.26,303.92 296.04,35.00 296.81,304.46 297.62,35.00 298.41,303.38 299.23,304.46 300.00,304.46 300.78,35.00 301.55,35.00 302.33,304.46 303.11,35.00 303.89,304.46 304.65,304.46 305.42,304.46 306.23,35.00 307.00,303.92 307.76,35.00 308.54,304.46 309.32,304.46 310.12,297.98 310.90,304.46 311.67,35.00 312.46,293.12 313.20,35.00 313.97,303.92 314.75,35.00 315.52,304.46 316.30,304.46 317.10,303.92 317.87,304.46 318.64,304.46 319.42,303.92 320.20,303.92 320.97,304.46 321.74,303.92 322.50,35.00 323.28,304.46 324.05,304.46 324.82,304.46 325.74,304.46 326.64,303.92 327.56,304.46 328.45,304.46 329.33,303.38 330.22,303.92 331.13,303.92 332.03,304.46 332.80,35.00 333.57,35.00 334.34,304.46 335.10,304.46 335.88,303.92 336.64,304.46 337.41,303.92 338.17,35.00 338.94,304.46 339.71,304.46 340.48,304.46 341.25,304.46 342.02,293.12 342.78,304.46 343.55,35.00 344.32,303.92 345.09,303.92 345.85,304.46 346.62,304.46 347.40,35.00 348.16,303.92 348.93,304.46 349.69,304.46 350.46,304.46 351.23,35.00 352.00,297.98 352.77,303.92 353.54,303.38 354.31,304.46 355.08,35.00 355.85,302.84 356.62,303.92 357.38,35.00 358.15,35.00 358.91,303.92 359.67,302.84 360.44,304.46 361.21,303.38 361.97,35.00 362.74,304.46 363.50,304.46 364.27,304.46 365.03,303.92 365.80,304.46 366.55,35.00 367.35,304.46 368.18,303.92 368.95,35.00 369.72,303.92 370.49,303.92 371.25,304.46 372.02,304.46 372.78,304.46 373.55,303.92 374.46,304.46 375.36,304.46 376.26,303.92 377.16,304.46 378.07,303.92 378.96,303.92 379.88,304.46 380.82,303.92 381.66,303.92 382.48,303.92 383.25,35.00 384.03,35.00 384.80,35.00 385.57,303.92 386.33,304.46 387.10,304.46 387.87,304.46 388.64,304.46 389.40,304.46 390.17,35.00 390.95,304.46 391.71,303.38 392.49,35.00 393.26,35.00 394.03,303.92 394.70,282.32 395.50,282.05 396.26,304.46 397.05,35.00 397.82,303.38 398.59,304.46 399.36,35.00 400.14,35.00 400.91,35.00 401.69,303.92 402.47,304.46 403.25,304.46 404.02,303.92 404.78,35.00 405.55,303.38 406.31,303.92 407.08,304.46 407.84,303.92 408.62,304.46 409.39,304.46 410.16,304.46 410.93,304.46 411.69,304.46 412.47,303.92 413.24,303.92 414.01,303.92 414.79,304.46 415.56,304.46 416.32,35.00 417.10,35.00 417.87,304.46 418.67,304.46 419.43,304.46 420.20,303.92 420.96,35.00 421.73,303.92 422.49,35.00 423.27,303.92 424.04,304.46 424.80,35.00 425.57,304.46 426.34,35.00 427.11,304.46 427.88,303.92 428.66,304.46 429.42,302.84 430.35,303.92 431.14,303.92 431.93,304.46 432.71,304.46 433.48,303.38 434.26,303.92 435.02,299.06 435.79,35.00 436.57,304.46 437.35,303.92 438.11,304.46 438.89,35.00 439.66,303.92 440.43,303.92 441.23,304.46 442.01,303.92 442.78,35.00 443.55,304.46 444.32,35.00 445.09,303.92 445.86,35.00 446.63,303.38 447.43,304.46 448.21,304.46 448.98,35.00 449.75,304.46 450.52,304.46 451.30,304.46 452.06,303.92 452.83,35.00 453.61,303.38 454.38,304.46 455.16,304.46 455.93,35.00 456.69,304.46 457.47,35.00 458.23,304.46 459.02,304.46 459.79,291.50 460.56,303.92 461.32,304.46 462.10,304.46 462.88,303.38 463.65,303.92 464.58,303.38 465.37,303.92 466.14,35.00 466.91,35.00 467.68,304.46 468.46,303.38 469.23,304.46 470.00,35.00 470.79,303.92 471.55,304.46 472.32,35.00 473.09,303.92 473.86,35.00 474.63,304.46 475.40,304.46 476.17,35.00 476.94,304.46 477.71,304.46 478.48,35.00 479.24,304.46 480.03,304.46 480.79,304.46 481.56,303.92 482.34,35.00 483.12,304.46 483.88,304.46 484.65,35.00 485.43,304.46 486.22,303.38 486.98,35.00 487.76,304.46 488.53,304.46 489.31,303.92 490.07,304.46 490.85,304.46 491.62,304.46 492.41,304.46 493.18,304.46 493.95,304.46 494.71,303.92 495.48,304.46 496.25,303.92 497.02,304.46 497.79,35.00 498.57,304.46 499.35,304.46 500.13,303.92 500.88,35.00 501.66,304.46 502.43,304.46 503.20,304.46 503.97,304.46 504.74,303.92 505.51,304.46 506.29,304.46 507.06,35.00 507.83,304.46 508.61,303.92 509.38,35.00 510.16,35.00 510.93,303.92 511.71,281.24 512.57,304.46 513.42,304.46 514.25,35.00 515.02,303.92 515.83,303.92 516.60,304.46 517.38,304.46 518.14,303.92 518.86,293.12 519.66,303.92 520.44,292.58 521.22,294.20 521.98,293.12 522.75,303.92 523.52,304.46 524.29,303.92 525.06,303.38 525.84,304.46 526.60,304.46 527.38,304.46 528.15,303.92 528.93,35.00 529.71,35.00 530.48,35.00 531.26,35.00 532.03,304.46 532.80,35.00 533.59,304.46 534.37,303.92 535.13,304.46 535.90,303.92 536.67,303.92 537.44,304.46 538.21,303.92 538.98,304.46 539.76,304.46 540.54,35.00 541.30,304.46 542.07,304.46 542.85,35.00 543.62,303.92 544.40,35.00 545.17,303.92 545.94,35.00 546.71,304.46 547.49,35.00 548.26,304.46 549.04,304.46 549.82,303.92 550.59,304.46 551.36,35.00 552.14,303.92 552.91,304.46 553.69,304.46 554.48,304.46 555.26,304.46 556.03,303.92 556.80,302.84 557.57,304.46 558.35,304.46 559.12,304.46 559.90,304.46 560.67,303.92 561.44,304.46 562.22,303.38 562.99,35.00 563.76,35.00 564.55,303.38 565.32,35.00 566.10,304.46 566.87,303.92 567.65,304.46 568.43,303.92 569.20,304.46 569.97,35.00 570.75,35.00 571.52,35.00 572.31,303.92 573.09,303.92 573.87,303.92 574.64,304.46 575.41,303.92 576.18,304.46 576.95,304.46 577.73,304.46 578.51,304.46 579.28,304.46 580.05,304.46 580.82,35.00 581.60,304.46 582.37,35.00 583.15,304.46 583.92,304.46 584.70,304.46 585.47,304.46 586.25,303.92 587.02,292.58 587.79,304.46 588.56,304.46 589.33,303.92 590.10,304.46 590.88,304.46 591.66,304.46 592.43,303.92 593.21,35.00 593.98,304.46 594.76,304.46 595.54,304.46 596.31,303.92 597.08,304.46 597.87,293.66 598.64,292.04 599.41,293.66 600.19,293.12 600.97,294.20 601.75,293.12 602.52,293.12 603.31,292.58 604.09,293.12 604.87,293.39 605.64,293.12 606.41,293.12 607.19,293.12 607.97,293.12 608.75,293.66 609.53,292.58 610.30,292.58 611.07,293.66 611.84,293.12 612.63,292.58 613.40,293.12 614.18,294.20 614.95,293.12 615.73,293.12 616.49,292.58 617.26,294.20 618.03,293.66 618.81,281.51 619.58,271.25 620.36,293.66 621.13,293.66 621.90,293.12 622.68,293.12 623.47,293.66 624.25,293.12 625.02,293.66 625.79,293.66 626.56,293.66 627.33,293.12 628.11,293.66 628.89,293.12 629.66,292.04 630.43,293.12 631.21,293.12 631.99,293.12 632.76,292.58 633.53,293.12 634.31,293.12 635.11,292.58 635.89,292.58 636.67,293.12 637.45,293.12 638.22,293.39 639.00,293.12 639.77,293.66 640.54,293.12 641.31,292.58 642.09,293.66 642.87,292.58 643.65,293.12 644.42,293.66 645.21,294.20 646.01,293.66 646.78,293.66 647.56,293.12 648.33,293.12 649.11,292.04 649.88,293.12 650.66,293.66 651.45,293.12 652.22,294.20 653.01,293.66 653.78,294.20 654.56,293.12 655.34,293.66 656.11,282.05 656.88,293.66 657.66,293.66 658.43,293.66 659.21,293.12 659.99,293.12 660.77,293.12 661.54,293.12 662.32,293.66 663.10,293.66 663.87,293.66 664.65,292.58 665.43,293.66 666.23,294.20 667.00,293.12 667.79,293.12 668.56,294.20 669.35,292.58 670.15,294.20 670.94,293.12 671.72,293.66 672.52,294.20 673.30,294.20 674.08,293.12 674.85,293.66 675.63,293.66 676.41,293.12 677.18,292.58 677.98,293.66 678.75,293.12 679.53,293.12 680.30,283.13 681.07,292.58 681.85,293.66 682.63,293.66 683.40,292.58 684.17,282.05 684.94,293.12 685.71,293.12 686.49,293.12 687.25,292.58 688.03,293.66 688.81,294.20 689.59,293.12 690.35,293.66 691.14,304.46 691.92,303.92 692.69,35.00 693.47,303.92 694.24,304.46 695.02,303.92 695.79,304.46 696.56,304.46 697.34,35.00 698.12,304.46 698.88,303.92 699.65,303.92 700.42,303.92 701.19,304.46 701.97,304.46 702.74,303.38 703.52,304.46 704.29,304.46 705.07,303.92 705.84,304.46 706.62,303.92 707.39,35.00 708.15,304.46 708.92,304.46 709.68,35.00 710.45,304.46 711.23,304.46 712.02,304.46 712.79,303.92 713.56,35.00 714.34,304.46 715.13,304.46 715.90,303.92 716.68,304.46 717.46,35.00 718.23,35.00 719.00,304.46 719.79,304.46 720.56,303.92 721.35,304.46 722.13,303.92 722.90,35.00 723.67,35.00 724.44,35.00 725.21,303.38 725.98,293.12 726.76,293.12 727.52,304.46 728.30,304.46 729.07,258.83 729.85,303.92 730.62,304.46 731.39,35.00 732.16,35.00 732.94,304.46 733.72,303.38 734.50,35.00 735.27,303.92 736.04,304.46 736.82,303.92 737.60,303.92 738.37,304.46 739.14,304.46 739.92,304.46 740.69,304.46 741.46,304.46 742.24,35.00 743.02,297.44 743.79,35.00 744.56,303.92 745.33,35.00 746.13,304.46 746.91,304.46 747.70,304.46 748.48,304.46 749.26,304.46 750.03,303.92 750.81,303.92 751.59,303.92 752.37,35.00 753.13,304.46 753.92,304.46 754.71,303.92 755.49,304.46 756.26,35.00 757.04,304.46 757.81,35.00 758.59,304.46 759.36,302.84 760.13,35.00 760.90,303.92 761.68,304.46 762.45,304.46 763.23,303.92 764.00,304.46 764.78,304.46 765.54,35.00 766.32,303.92 767.09,304.46 767.86,303.38 768.63,304.46 769.42,304.46 770.19,303.92 770.96,304.46 771.74,303.92 772.51,303.92 773.28,304.46 774.06,35.00 774.83,303.92 775.62,304.46 776.39,35.00 777.16,304.46 777.93,304.46 778.71,303.92 779.48,35.00 780.25,35.00 781.04,303.92 781.83,304.46 782.62,35.00 783.41,35.00 784.20,35.00 784.99,303.92 785.78,304.46 786.57,303.92 787.38,303.92 788.16,304.46 788.96,303.92 789.73,35.00 790.50,304.46 791.28,304.46 792.07,304.46 792.84,303.92 793.62,35.00 794.39,304.46 795.18,304.46 795.95,303.38 796.73,35.00 797.49,304.46 798.27,303.92 799.04,304.46 799.81,35.00 800.58,303.92 801.36,304.46 802.14,304.46 802.91,304.46 803.70,293.66 804.48,293.12 805.25,293.12 806.02,293.66 806.80,303.92 807.57,304.46 808.35,304.46 809.12,304.46 809.90,304.46 810.67,303.92 811.45,304.46 812.22,304.46 813.00,304.46 813.77,304.46 814.55,303.92 815.32,35.00 816.15,35.00 816.95,303.92 817.72,302.84 818.50,303.92 819.27,303.38 820.05,304.46 820.84,303.92 821.62,303.92 822.39,304.46 823.16,303.92 823.92,304.46 824.70,304.46 825.47,303.92 826.24,303.92 827.02,304.46 827.79,304.46 828.58,304.46 829.36,303.92 830.13,35.00 830.90,35.00 831.68,304.46 832.45,303.38 833.23,304.46 834.00,304.46 834.77,304.46 835.55,304.46 836.33,35.00 837.11,303.92 837.88,35.00 838.69,35.00 839.47,303.92 840.24,304.46 841.01,303.92 841.79,304.46 842.56,304.46 843.35,304.46 844.12,304.46 844.89,303.92 845.67,303.92 846.45,304.46 847.24,35.00 848.02,303.92 848.80,303.92 849.57,303.38 850.34,304.46 851.12,35.00 851.89,304.46 852.67,304.46 853.44,304.46 854.23,303.92 855.00,303.92 855.77,303.92 856.55,304.46 857.32,304.46 858.10,304.46 858.87,304.46 859.64,304.46 860.41,304.46 861.19,303.92 861.97,304.46 862.74,304.46 863.51,35.00 864.29,304.46 865.07,304.46 865.84,304.46 866.62,304.46 867.39,35.00 868.16,303.92 868.93,303.92 869.70,303.92 870.48,35.00 871.25,303.92 872.05,303.92 872.83,35.00 873.60,304.46 874.38,248.57 875.15,259.37 875.94,269.09 876.78,293.12 877.57,282.59 878.35,270.17 879.13,282.05 879.91,35.00 880.69,304.46 881.46,304.46 882.24,303.92 883.01,304.46 883.79,304.46 884.57,304.46 885.34,303.38 886.12,304.46 886.91,304.46 887.69,304.46 888.47,304.46 889.24,304.46 890.01,304.46 890.79,303.92 891.57,303.92 892.34,35.00 893.12,303.92 893.90,304.46 894.68,303.92 895.45,35.00 896.23,35.00 897.01,35.00 897.79,303.92 898.58,304.46 899.35,304.46 900.13,35.00 900.90,35.00 901.68,35.00 902.46,35.00 903.23,35.00 904.00,304.46 904.78,304.46 905.55,304.46 906.33,304.46 907.11,304.46 907.87,303.92 908.65,35.00 909.43,35.00 910.21,304.46 910.98,304.46 911.76,304.46 912.53,303.92 913.32,304.46 914.10,35.00 914.86,304.46 915.61,303.38 916.38,304.46 917.16,304.46 917.94,303.92 918.72,304.46 919.50,304.46 920.28,303.92 921.06,303.92 921.84,304.46 922.61,303.92 923.39,303.92 924.16,304.46 924.94,304.46 925.70,35.00 926.47,303.92 927.25,303.92 928.03,304.46 928.80,35.00 929.57,304.46 930.34,303.92 931.12,293.12 931.89,304.46 932.67,304.46 933.43,35.00 934.21,286.64 934.96,259.37 935.75,248.84 936.52,35.00 937.30,35.00 938.08,303.92 938.86,302.84 939.63,304.46 940.40,304.46 941.19,303.92 941.96,304.46 942.74,35.00 943.51,304.46 944.35,303.92 945.12,304.46 945.90,303.92 946.68,304.46 947.46,304.46 948.23,35.00 949.00,303.38 949.79,304.46 950.56,304.46 951.33,304.46 952.10,302.84 952.88,298.52 953.66,35.00 954.44,303.92 955.21,304.46 955.99,303.92 956.76,35.00 957.54,304.46 958.31,304.46 959.10,304.46 959.87,304.46 960.66,303.92 961.45,304.46 962.23,304.46 963.00,304.46 963.78,304.46 964.56,303.92 965.34,303.92 966.12,304.46 966.89,35.00 967.66,303.92 968.44,303.92 969.21,303.38 969.99,303.92 970.77,303.92 971.55,303.92 972.32,35.00 973.10,304.46 973.86,304.46 974.64,304.46 975.41,303.92 976.19,304.46 976.96,304.46 977.73,304.46 978.51,304.46 979.28,35.00 980.05,304.46 980.82,304.46 981.59,35.00 982.36,35.00 983.13,303.92 983.91,304.46 984.68,304.46 985.44,303.92 986.22,304.46 986.99,304.46 987.77,35.00 988.54,304.46 989.31,303.92 990.08,35.00 990.85,304.46 991.64,303.92 992.40,35.00 993.18,304.46 993.95,304.46 994.76,35.00 995.53,303.92 996.31,35.00 997.09,35.00 997.87,304.46 998.65,304.46 999.42,304.46 1000.20,304.46 1000.98,301.76 1001.75,35.00 1002.52,304.46 1003.29,35.00 1004.07,303.92 1004.84,304.46 1005.62,304.46 1006.39,293.12 1007.16,303.92 1007.93,35.00 1008.70,303.92 1009.48,304.46 1010.26,35.00 1011.07,304.46 1011.84,35.00 1012.61,304.46 1013.38,304.46 1014.14,304.46 1014.93,35.00 1015.70,304.46 1016.48,35.00 1017.26,304.46 1018.03,303.92 1018.81,304.46 1019.58,303.92 1020.36,303.92 1021.14,35.00 1021.91,304.46 1022.69,35.00 1023.46,303.92 1024.23,304.46 1025.01,303.92 1025.78,35.00 1026.54,303.92 1027.32,303.92 1028.09,303.92 1028.86,35.00 1029.64,304.46 1030.41,35.00 1031.19,304.46 1031.96,304.46 1032.74,304.46 1033.51,303.92 1034.28,304.46 1035.06,304.46 1035.83,35.00 1036.61,304.46 1037.38,35.00 1038.16,304.46 1038.93,303.92 1039.70,303.92 1040.47,303.92 1041.24,304.46 1042.02,35.00 1042.79,304.46 1043.59,35.00 1044.36,303.92 1045.13,304.46 1045.91,35.00 1046.68,304.46 1047.46,303.92 1048.25,291.50 1049.03,35.00 1049.85,304.46 1050.63,303.92 1051.46,35.00 1052.24,300.14 1053.00,303.92 1053.77,303.92 1054.55,35.00 1055.32,303.38 1056.10,304.46 1056.87,298.52 1057.65,35.00 1058.42,35.00 1059.20,35.00 1059.97,35.00 1060.74,35.00 1061.51,35.00 1062.29,35.00 1063.06,304.46 1063.83,35.00 1064.60,303.92 1065.38,303.92 1066.15,302.30 1066.93,304.46 1067.70,35.00 1068.47,303.92 1069.24,303.38 1070.02,304.46 1070.80,303.92 1071.58,303.92 1072.35,35.00 1073.13,35.00 1073.90,304.46 1074.67,304.46 1075.44,304.46 1076.22,304.46 1076.98,304.46 1077.75,303.92 1078.52,303.92 1079.29,303.92 1080.06,304.46 1080.84,304.46 1081.61,303.92 1082.38,303.92 1083.16,303.92 1083.96,304.46 1084.74,304.46 1085.51,303.38 1086.28,304.46 1087.05,304.46 1087.82,303.92 1088.59,303.92 1089.37,304.46 1090.14,303.92 1090.91,304.46 1091.68,304.46 1092.44,304.46 1093.21,304.46 1093.98,304.46 1094.76,303.92 1095.53,303.92 1096.30,304.46 1097.08,303.92 1097.85,304.46 1098.62,304.46 1099.41,292.04 1100.17,35.00 1100.95,304.46 1101.72,35.00 1102.50,303.92 1103.27,303.92 1104.05,304.46 1104.82,304.46 1105.61,303.92 1106.38,304.46 1107.15,303.92 1107.92,35.00 1108.70,35.00 1109.47,304.46 1110.27,304.46 1111.04,304.46 1111.82,303.92 1112.60,304.46 1113.38,304.46 1114.15,304.46 1114.92,304.46 1115.69,304.46 1116.48,35.00 1117.25,303.38 1118.02,304.46 1118.79,303.38 1119.58,35.00 1120.35,304.46 1121.13,304.46 1121.92,304.46 1122.71,303.92 1123.53,303.92 1124.32,304.46 1125.09,303.92 1125.86,303.92 1126.63,304.46 1127.41,303.38 1128.18,303.92 1128.95,35.00 1129.73,304.46 1130.51,304.46 1131.29,303.38 1132.06,304.46 1132.82,35.00 1133.60,304.46 1134.38,303.92 1135.16,35.00 1135.95,303.92 1136.74,304.46 1137.52,304.46 1138.30,303.92 1139.11,304.46 1139.89,35.00 1140.71,35.00 1141.49,281.51 1142.27,259.91 1143.04,282.05 1143.82,304.46 1144.59,304.46 1145.37,304.46 1146.14,35.00 1146.91,35.00 1147.68,304.46 1148.46,35.00 1149.25,35.00 1150.02,304.46 1150.80,304.46 1151.59,303.92 1152.49,304.46 1153.27,35.00 1154.04,303.92 1154.81,303.92 1155.58,303.92 1156.34,35.00 1158.52,304.46 1159.36,303.92 1160.08,293.66 1160.79,303.92 1162.25,303.92 1163.02,303.92 1163.80,303.92 1164.58,303.92 1165.34,303.92 1166.11,304.46 1166.89,303.38 1167.66,304.46 1168.42,304.46 1169.20,303.92 1169.97,303.92 1170.74,304.46 1171.52,304.46 1172.29,303.38 1173.06,303.92 1173.83,35.00 1174.60,304.46 1175.36,304.46 1176.13,303.38 1176.90,303.92 1177.67,304.46 1178.44,304.46 1179.22,304.46 1180.00,304.46"/>
<polyline fill="none" stroke="#d62728" stroke-opacity="0.50" stroke-width="2" points="70.00,302.84 70.77,302.84 71.55,303.92 72.31,303.92 73.09,303.92 73.87,303.38 74.63,303.92 75.40,302.57 76.24,303.38 77.01,302.84 77.77,303.92 78.54,303.38 79.32,302.84 80.09,303.38 80.86,287.18 82.24,303.38 83.44,303.38 84.22,303.38 85.01,303.92 85.78,302.84 86.55,293.12 87.30,303.38 88.08,303.38 88.85,303.38 89.62,303.38 90.40,303.38 91.19,303.38 91.96,303.92 92.73,303.38 93.54,303.92 94.32,303.92 95.09,303.38 95.88,303.38 96.65,303.38 97.42,302.03 98.22,303.38 98.98,303.92 99.76,303.92 100.54,303.38 101.30,303.92 102.07,303.92 102.84,303.92 103.60,302.84 104.38,303.92 105.14,303.38 105.93,303.92 106.71,302.84 107.47,303.92 108.24,302.84 109.02,303.38 109.79,302.84 110.67,303.38 111.44,303.92 112.21,303.38 112.98,303.92 113.74,303.38 114.51,303.38 115.27,303.92 116.05,302.30 116.82,303.92 117.60,303.92 118.37,304.46 119.13,303.92 119.91,303.92 120.69,303.92 121.46,303.38 122.23,289.61 123.00,303.92 123.76,303.38 124.53,302.84 125.29,299.87 126.06,303.92 126.83,303.92 127.59,304.46 128.37,303.92 129.14,302.03 129.90,304.46 130.68,303.38 131.44,303.38 132.21,302.84 133.00,302.57 133.77,303.92 134.54,303.92 135.31,303.92 136.08,303.38 136.85,303.38 137.62,302.84 138.38,303.38 139.15,302.84 139.92,303.92 140.70,303.38 141.47,294.20 142.25,303.38 143.01,303.38 143.78,303.92 144.55,303.92 145.32,302.57 146.08,303.38 146.85,302.84 147.62,302.84 148.39,302.57 149.16,303.92 149.94,303.92 150.71,303.92 151.49,303.92 152.26,302.84 153.03,303.92 153.80,303.92 154.57,302.84 155.33,303.92 156.11,302.84 156.88,302.84 157.65,303.92 158.42,303.92 159.20,303.92 159.97,303.92 160.75,302.57 161.53,303.92 162.30,303.92 163.07,303.38 163.84,303.38 164.61,303.92 165.38,304.46 166.15,303.92 166.99,303.92 167.75,303.38 168.54,303.92 169.30,303.92 170.07,304.46 170.83,303.38 171.59,302.84 172.36,303.92 173.13,302.84 173.90,303.92 174.67,303.38 175.43,303.38 176.20,304.46 176.97,303.38 177.75,303.92 178.52,302.57 179.29,302.03 180.06,303.92 180.83,303.92 181.59,303.38 182.37,303.38 183.14,303.92 183.91,303.38 184.68,303.38 185.45,302.84 186.22,302.57 186.98,303.38 187.75,302.03 188.52,302.03 189.29,302.03 190.07,302.84 190.84,302.03 191.61,302.84 192.39,302.84 193.16,302.57 193.93,302.03 194.70,303.92 195.47,303.38 196.26,303.92 197.04,303.92 197.80,303.38 198.58,302.84 199.34,303.92 200.11,303.92 200.87,303.92 201.65,296.90 202.41,303.38 203.17,302.84 203.94,303.92 204.72,303.92 205.49,302.84 206.26,303.92 207.03,302.84 207.82,303.92 208.59,303.92 209.36,303.38 210.13,303.92 210.89,303.92 211.73,299.33 212.52,303.38 213.28,303.92 214.05,303.38 214.81,303.92 215.58,304.46 216.35,303.92 217.12,303.38 217.90,303.92 218.66,302.84 219.43,303.38 220.20,303.38 220.99,303.92 221.76,303.92 222.52,303.92 223.29,302.84 224.07,303.92 224.86,303.38 225.64,303.92 226.41,303.92 227.18,303.38 227.95,302.84 228.72,303.38 229.49,303.38 230.26,303.92 231.04,303.92 231.81,302.84 232.57,303.92 233.35,303.38 234.12,303.92 234.89,303.92 235.66,303.38 236.44,303.92 237.22,302.30 237.98,303.92 238.74,303.38 239.51,303.92 240.28,302.84 241.05,303.92 241.82,302.84 242.59,303.92 243.35,303.92 244.12,303.92 244.90,303.92 245.67,302.84 246.44,303.92 247.22,303.92 247.99,299.87 248.77,303.92 249.54,302.84 250.31,302.84 251.08,303.92 251.85,303.92 252.62,303.92 253.41,304.46 254.18,304.46 254.95,303.38 255.73,303.38 256.49,303.38 257.27,303.92 258.03,303.92 258.80,302.84 259.57,303.92 260.34,303.92 261.12,303.38 261.89,303.38 262.66,303.92 263.43,302.57 264.20,303.92 264.98,302.84 265.76,303.92 266.52,303.92 267.29,303.38 268.07,303.92 268.85,304.46 269.62,303.38 270.39,302.84 271.16,303.38 272.01,303.92 272.79,303.38 273.56,303.92 274.33,303.92 275.11,303.38 275.89,303.38 276.66,303.38 277.43,303.38 278.19,303.92 278.99,302.84 279.77,303.92 280.53,303.92 281.30,303.92 282.08,303.92 282.85,302.84 283.62,303.38 284.42,303.38 285.19,303.92 285.96,302.84 286.74,303.92 287.57,303.92 288.34,293.39 289.31,293.12 290.61,303.92 291.40,302.84 292.19,292.58 292.96,302.03 293.71,302.84 294.48,304.46 295.26,303.92 296.04,303.92 296.81,303.92 297.62,304.46 298.41,303.92 299.23,303.92 300.00,302.84 300.78,303.38 301.55,303.38 302.33,303.92 303.11,303.38 303.89,302.84 304.65,294.74 305.42,303.38 306.23,303.92 307.00,303.92 307.76,303.92 308.54,303.92 309.32,303.38 310.12,303.92 310.90,303.38 311.67,303.92 312.46,303.38 313.20,302.57 313.97,303.92 314.75,303.92 315.52,303.92 316.30,304.46 317.10,303.38 317.87,303.38 318.64,303.38 319.42,304.46 320.20,303.92 320.97,303.92 321.74,303.38 322.50,303.92 323.28,303.92 324.05,303.92 324.82,303.92 325.74,300.41 326.64,303.92 327.56,303.38 328.45,303.92 329.33,303.92 330.22,303.92 331.13,302.84 332.03,303.92 332.80,303.92 333.57,303.92 334.34,303.38 335.10,302.84 335.88,302.84 336.64,303.92 337.41,303.92 338.17,303.38 338.94,304.46 339.71,304.46 340.48,303.92 341.25,292.58 342.02,302.84 342.78,304.46 343.55,303.38 344.32,303.92 345.09,303.38 345.85,303.38 346.62,303.38 347.40,303.38 348.16,303.38 348.93,304.46 349.69,303.38 350.46,304.46 351.23,303.92 352.00,303.38 352.77,303.92 353.54,303.38 354.31,295.82 355.08,302.84 355.85,303.92 356.62,302.84 357.38,299.87 358.15,303.92 358.91,303.38 359.67,302.84 360.44,303.92 361.21,303.92 361.97,303.38 362.74,303.92 363.50,303.38 364.27,303.92 365.03,303.38 365.80,304.46 366.55,303.92 367.35,303.92 368.18,303.92 368.95,303.92 369.72,303.92 370.49,303.38 371.25,302.57 372.02,303.92 372.78,303.92 373.55,303.92 374.46,302.84 375.36,302.84 376.26,303.92 377.16,302.30 378.07,303.92 378.96,303.92 379.88,303.92 380.82,303.92 381.66,303.92 382.48,303.92 383.25,303.38 384.03,303.38 384.80,303.38 385.57,303.38 386.33,303.92 387.10,303.92 387.87,292.85 388.64,303.92 389.40,302.57 390.17,303.38 390.95,303.92 391.71,303.92 392.49,303.38 393.26,303.92 394.03,302.30 394.70,303.92 395.50,303.92 396.26,304.46 397.05,303.38 397.82,303.92 398.59,303.92 399.36,303.38 400.14,303.92 400.91,303.92 401.69,303.92 402.47,304.46 403.25,303.92 404.02,303.38 404.78,303.92 405.55,303.92 406.31,303.92 407.08,302.84 407.84,303.38 408.62,303.92 409.39,303.92 410.16,303.38 410.93,303.92 411.69,303.38 412.47,303.38 413.24,303.92 414.01,303.38 414.79,303.92 415.56,303.92 416.32,303.92 417.10,303.92 417.87,303.92 418.67,303.92 419.43,303.92 420.20,302.84 420.96,302.84 421.73,303.92 422.49,304.46 423.27,302.03 424.04,303.38 424.80,303.92 425.57,303.92 426.34,303.92 427.11,302.84 427.88,303.38 428.66,303.38 429.42,303.38 430.35,303.92 431.14,303.92 431.93,303.38 432.71,302.57 433.48,303.92 434.26,302.84 435.02,303.92 435.79,303.92 436.57,303.92 437.35,304.46 438.11,302.57 438.89,302.57 439.66,303.38 440.43,303.92 441.23,303.92 442.01,303.38 442.78,303.38 443.55,302.84 444.32,303.92 445.09,300.95 445.86,303.92 446.63,302.84 447.43,303.38 448.21,303.92 448.98,303.38 449.75,302.84 450.52,303.92 451.30,303.38 452.06,303.92 452.83,303.38 453.61,303.92 454.38,303.92 455.16,303.92 455.93,303.38 456.69,303.38 457.47,303.92 458.23,303.92 459.02,303.92 459.79,303.92 460.56,303.92 461.32,300.95 462.10,290.69 462.88,303.92 463.65,302.84 464.58,303.92 465.37,303.38 466.14,303.38 466.91,303.92 467.68,304.46 468.46,303.92 469.23,303.92 470.00,303.38 470.79,303.38 471.55,302.84 472.32,304.46 473.09,303.92 473.86,303.38 474.63,304.46 475.40,304.46 476.17,303.38 476.94,303.38 477.71,303.92 478.48,303.38 479.24,304.46 480.03,303.38 480.79,302.84 481.56,304.46 482.34,303.92 483.12,303.92 483.88,303.38 484.65,303.38 485.43,303.92 486.22,303.92 486.98,300.95 487.76,303.92 488.53,302.84 489.31,303.92 490.07,303.38 490.85,303.38 491.62,302.03 492.41,302.03 493.18,303.92 493.95,302.84 494.71,302.84 495.48,302.57 496.25,303.38 497.02,303.38 497.79,303.38 498.57,303.38 499.35,291.77 500.13,274.49 500.88,302.84 501.66,292.85 502.43,302.84 503.20,303.38 503.97,303.92 504.74,303.92 505.51,303.92 506.29,303.38 507.06,303.38 507.83,304.46 508.61,302.84 509.38,303.92 510.16,302.57 510.93,303.92 511.71,303.92 512.57,304.46 513.42,304.46 514.25,303.92 515.02,303.92 515.83,303.92 516.60,303.38 517.38,303.92 518.14,303.38 518.86,303.38 519.66,303.38 520.44,303.92 521.22,303.92 521.98,303.38 522.75,303.38 523.52,303.38 524.29,303.92 525.06,303.38 525.84,303.92 526.60,303.92 527.38,303.92 528.15,303.92 528.93,303.38 529.71,303.92 530.48,303.92 531.26,302.84 532.03,303.38 532.80,303.38 533.59,302.57 534.37,303.38 535.13,302.57 535.90,302.57 536.67,301.49 537.44,303.92 538.21,303.38 538.98,303.92 539.76,302.84 540.54,303.38 541.30,303.92 542.07,303.38 542.85,303.38 543.62,303.38 544.40,303.92 545.17,303.92 545.94,304.46 546.71,303.92 547.49,303.92 548.26,302.57 549.04,303.38 549.82,303.38 550.59,303.92 551.36,302.84 552.14,302.84 552.91,303.38 553.69,303.38 554.48,303.92 555.26,303.38 556.03,303.92 556.80,303.92 557.57,300.41 558.35,303.92 559.12,303.38 559.90,303.92 560.67,303.92 561.44,303.92 562.22,303.38 562.99,304.46 563.76,303.38 564.55,302.84 565.32,303.92 566.10,303.92 566.87,303.38 567.65,303.92 568.43,303.92 569.20,303.92 569.97,303.92 570.75,303.92 571.52,303.38 572.31,302.84 573.09,303.92 573.87,303.38 574.64,303.92 575.41,303.92 576.18,303.38 576.95,303.92 577.73,303.92 578.51,303.38 579.28,303.92 580.05,303.38 580.82,302.84 581.60,303.38 582.37,302.03 583.15,292.85 583.92,303.92 584.70,302.57 585.47,303.38 586.25,302.84 587.02,303.38 587.79,302.84 588.56,291.50 589.33,303.38 590.10,303.92 590.88,303.92 591.66,303.92 592.43,303.92 593.21,303.92 593.98,303.92 594.76,303.92 595.54,303.92 596.31,303.92 597.08,297.71 597.87,303.38 598.64,303.38 599.41,303.92 600.19,303.92 600.97,303.38 601.75,304.46 602.52,304.46 603.31,303.92 604.09,303.92 604.87,303.38 605.64,303.92 606.41,304.46 607.19,303.92 607.97,303.38 608.75,302.84 609.53,302.84 610.30,303.38 611.07,303.92 611.84,302.03 612.63,303.38 613.40,303.92 614.18,302.84 614.95,303.92 615.73,304.46 616.49,303.92 617.26,304.46 618.03,303.38 618.81,303.92 619.58,303.92 620.36,303.92 621.13,303.92 621.90,302.84 622.68,302.84 623.47,303.38 624.25,303.92 625.02,302.84 625.79,292.31 626.56,303.92 627.33,303.38 628.11,303.38 628.89,303.38 629.66,303.92 630.43,303.38 631.21,303.92 631.99,303.92 632.76,303.92 633.53,303.92 634.31,303.92 635.11,302.84 635.89,303.38 636.67,303.92 637.45,303.92 638.22,303.92 639.00,302.84 639.77,303.92 640.54,303.92 641.31,303.92 642.09,303.92 642.87,303.38 643.65,303.92 644.42,303.38 645.21,303.92 646.01,303.92 646.78,303.38 647.56,303.92 648.33,303.92 649.11,301.49 649.88,303.92 650.66,303.92 651.45,303.92 652.22,303.38 653.01,302.84 653.78,303.92 654.56,304.46 655.34,303.38 656.11,303.38 656.88,303.92 657.66,303.92 658.43,303.92 659.21,303.92 659.99,303.38 660.77,303.92 661.54,302.84 662.32,303.92 663.10,303.38 663.87,303.92 664.65,303.92 665.43,303.92 666.23,304.46 667.00,303.38 667.79,303.92 668.56,303.92 669.35,301.49 670.15,302.03 670.94,303.92 671.72,303.38 672.52,302.57 673.30,300.41 674.08,303.38 674.85,302.57 675.63,303.92 676.41,304.46 677.18,303.92 677.98,303.92 678.75,303.38 679.53,303.38 680.30,303.92 681.07,303.92 681.85,303.38 682.63,302.84 683.40,303.92 684.17,304.46 684.94,303.38 685.71,303.38 686.49,302.84 687.25,302.84 688.03,303.92 688.81,303.92 689.59,303.92 690.35,303.38 691.14,303.92 691.92,303.38 692.69,303.92 693.47,303.92 694.24,303.92 695.02,303.92 695.79,303.92 696.56,303.92 697.34,303.92 698.12,303.38 698.88,303.92 699.65,301.49 700.42,302.57 701.19,303.92 701.97,302.57 702.74,303.92 703.52,303.38 704.29,302.84 705.07,303.92 705.84,302.84 706.62,292.58 707.39,290.69 708.15,302.84 708.92,291.50 709.68,302.57 710.45,303.38 711.23,303.92 712.02,303.92 712.79,304.46 713.56,303.92 714.34,303.38 715.13,303.38 715.90,303.92 716.68,303.38 717.46,303.92 718.23,303.38 719.00,303.92 719.79,303.92 720.56,294.20 721.35,303.92 722.13,303.92 722.90,303.92 723.67,303.38 724.44,303.38 725.21,302.57 725.98,303.92 726.76,303.38 727.52,303.92 728.30,304.46 729.07,302.57 729.85,303.92 730.62,302.84 731.39,303.92 732.16,303.92 732.94,302.84 733.72,303.38 734.50,303.38 735.27,303.92 736.04,302.84 736.82,303.38 737.60,303.38 738.37,303.92 739.14,303.92 739.92,303.92 740.69,303.38 741.46,303.92 742.24,303.92 743.02,303.38 743.79,303.38 744.56,303.92 745.33,303.92 746.13,303.38 746.91,303.38 747.70,303.38 748.48,303.38 749.26,303.92 750.03,303.92 750.81,303.92 751.59,303.92 752.37,295.82 753.13,303.38 753.92,303.38 754.71,303.38 755.49,303.92 756.26,303.38 757.04,303.38 757.81,302.84 758.59,303.38 759.36,302.03 760.13,303.92 760.90,303.92 761.68,303.92 762.45,302.03 763.23,303.92 764.00,297.44 764.78,303.38 765.54,303.92 766.32,303.92 767.09,303.38 767.86,303.92 768.63,303.92 769.42,303.92 770.19,303.92 770.96,303.38 771.74,303.92 772.51,300.41 773.28,303.38 774.06,303.38 774.83,303.92 775.62,300.41 776.39,303.38 777.16,303.92 777.93,303.38 778.71,303.92 779.48,303.92 780.25,303.92 781.04,303.92 781.83,302.57 782.62,303.38 783.41,303.92 784.20,303.92 784.99,302.30 785.78,303.92 786.57,303.92 787.38,304.46 788.16,303.92 788.96,302.03 789.73,303.92 790.50,303.92 791.28,302.84 792.07,303.92 792.84,303.92 793.62,303.38 794.39,303.38 795.18,300.95 795.95,303.38 796.73,303.38 797.49,303.38 798.27,292.31 799.04,303.92 799.81,303.38 800.58,302.84 801.36,303.92 802.14,303.92 802.91,303.92 803.70,303.92 804.48,303.92 805.25,303.92 806.02,303.38 806.80,303.38 807.57,303.38 808.35,303.92 809.12,303.92 809.90,292.31 810.67,303.92 811.45,303.92 812.22,303.92 813.00,303.38 813.77,303.92 814.55,302.84 815.32,303.38 816.15,303.92 816.95,303.92 817.72,304.46 818.50,302.84 819.27,303.92 820.05,303.92 820.84,302.84 821.62,303.38 822.39,303.92 823.16,303.92 823.92,303.38 824.70,303.38 825.47,303.92 826.24,303.92 827.02,302.84 827.79,303.92 828.58,302.84 829.36,303.92 830.13,302.84 830.90,303.92 831.68,302.84 832.45,303.92 833.23,302.84 834.00,303.92 834.77,303.92 835.55,303.92 836.33,303.38 837.11,303.38 837.88,303.92 838.69,302.84 839.47,303.38 840.24,303.38 841.01,304.46 841.79,303.38 842.56,303.38 843.35,303.92 844.12,303.38 844.89,302.84 845.67,302.30 846.45,303.92 847.24,303.38 848.02,303.38 848.80,303.92 849.57,302.03 850.34,303.38 851.12,303.38 851.89,303.38 852.67,303.38 853.44,303.92 854.23,300.95 855.00,302.84 855.77,302.84 856.55,303.92 857.32,303.38 858.10,303.92 858.87,303.92 859.64,302.84 860.41,303.92 861.19,303.92 861.97,303.92 862.74,303.92 863.51,302.84 864.29,303.38 865.07,303.38 865.84,304.46 866.62,303.38 867.39,302.84 868.16,303.92 868.93,303.92 869.70,301.49 870.48,302.84 871.25,303.38 872.05,302.84 872.83,303.92 873.60,303.92 874.38,302.84 875.15,303.92 875.94,301.49 876.78,302.57 877.57,303.38 878.35,303.92 879.13,302.84 879.91,303.92 880.69,300.95 881.46,303.38 882.24,303.38 883.01,302.84 883.79,303.38 884.57,303.38 885.34,302.84 886.12,303.38 886.91,303.92 887.69,292.85 888.47,303.38 889.24,303.92 890.01,302.84 890.79,303.92 891.57,303.92 892.34,303.38 893.12,303.38 893.90,303.38 894.68,303.92 895.45,302.57 896.23,303.38 897.01,303.38 897.79,303.92 898.58,303.38 899.35,303.92 900.13,303.92 900.90,302.84 901.68,303.92 902.46,303.38 903.23,303.92 904.00,304.46 904.78,303.38 905.55,303.92 906.33,303.92 907.11,302.84 907.87,303.92 908.65,303.92 909.43,303.92 910.21,303.38 910.98,303.38 911.76,303.92 912.53,303.92 913.32,303.38 914.10,292.58 914.86,293.12 915.61,302.84 916.38,302.30 917.16,303.92 917.94,299.87 918.72,303.92 919.50,302.84 920.28,301.49 921.06,303.92 921.84,303.38 922.61,303.38 923.39,303.92 924.16,303.38 924.94,302.84 925.70,303.92 926.47,303.92 927.25,302.84 928.03,303.92 928.80,303.38 929.57,302.84 930.34,302.57 931.12,303.38 931.89,302.57 932.67,302.57 933.43,303.38 934.21,302.30 934.96,303.92 935.75,303.92 936.52,303.38 937.30,303.92 938.08,303.38 938.86,303.38 939.63,303.38 940.40,303.38 941.19,303.92 941.96,303.92 942.74,303.92 943.51,303.92 944.35,302.84 945.12,302.03 945.90,303.38 946.68,303.92 947.46,303.38 948.23,303.92 949.00,303.38 949.79,303.92 950.56,302.84 951.33,303.92 952.10,303.92 952.88,304.46 953.66,303.92 954.44,303.38 955.21,302.57 955.99,303.38 956.76,302.84 957.54,304.46 958.31,303.92 959.10,303.38 959.87,302.84 960.66,301.49 961.45,303.38 962.23,303.92 963.00,303.92 963.78,303.92 964.56,302.03 965.34,303.92 966.12,303.38 966.89,303.92 967.66,303.38 968.44,303.92 969.21,303.92 969.99,276.92 970.77,304.46 971.55,303.38 972.32,303.38 973.10,303.38 973.86,303.92 974.64,303.38 975.41,301.49 976.19,304.46 976.96,303.92 977.73,303.92 978.51,303.38 979.28,303.38 980.05,303.92 980.82,303.38 981.59,302.84 982.36,302.03 983.13,302.84 983.91,303.38 984.68,303.38 985.44,303.38 986.22,303.92 986.99,303.92 987.77,304.46 988.54,303.92 989.31,303.38 990.08,303.38 990.85,303.92 991.64,303.38 992.40,303.92 993.18,303.92 993.95,304.46 994.76,303.38 995.53,303.92 996.31,302.57 997.09,303.92 997.87,303.92 998.65,303.38 999.42,303.38 1000.20,303.92 1000.98,303.38 1001.75,303.92 1002.52,304.46 1003.29,303.38 1004.07,303.92 1004.84,302.84 1005.62,303.92 1006.39,303.92 1007.16,302.57 1007.93,304.46 1008.70,303.38 1009.48,302.84 1010.26,303.92 1011.07,303.92 1011.84,303.38 1012.61,303.38 1013.38,303.38 1014.14,303.92 1014.93,303.38 1015.70,303.92 1016.48,303.38 1017.26,303.38 1018.03,303.92 1018.81,303.38 1019.58,303.38 1020.36,303.92 1021.14,303.38 1021.91,302.84 1022.69,303.92 1023.46,303.38 1024.23,303.38 1025.01,303.92 1025.78,302.84 1026.54,303.92 1027.32,303.92 1028.09,303.38 1028.86,303.92 1029.64,303.92 1030.41,303.92 1031.19,303.38 1031.96,303.38 1032.74,299.87 1033.51,303.38 1034.28,304.46 1035.06,303.38 1035.83,303.38 1036.61,303.92 1037.38,303.92 1038.16,303.92 1038.93,303.38 1039.70,304.46 1040.47,303.38 1041.24,303.38 1042.02,303.92 1042.79,303.92 1043.59,303.92 1044.36,303.38 1045.13,303.38 1045.91,302.84 1046.68,303.92 1047.46,303.92 1048.25,303.92 1049.03,303.92 1049.85,303.38 1050.63,303.92 1051.46,302.84 1052.24,302.84 1053.00,304.46 1053.77,303.38 1054.55,303.92 1055.32,303.92 1056.10,302.57 1056.87,302.84 1057.65,303.92 1058.42,303.92 1059.20,303.92 1059.97,303.38 1060.74,303.38 1061.51,303.92 1062.29,303.38 1063.06,303.92 1063.83,303.38 1064.60,303.38 1065.38,302.84 1066.15,303.38 1066.93,303.38 1067.70,303.92 1068.47,300.95 1069.24,304.46 1070.02,303.92 1070.80,303.92 1071.58,303.92 1072.35,302.84 1073.13,300.68 1073.90,303.92 1074.67,303.92 1075.44,303.92 1076.22,303.38 1076.98,303.38 1077.75,302.84 1078.52,303.38 1079.29,303.92 1080.06,303.92 1080.84,303.38 1081.61,303.92 1082.38,303.92 1083.16,303.38 1083.96,303.92 1084.74,294.20 1085.51,302.84 1086.28,303.92 1087.05,303.38 1087.82,303.38 1088.59,303.92 1089.37,303.38 1090.14,302.84 1090.91,303.92 1091.68,303.38 1092.44,303.92 1093.21,302.30 1093.98,293.66 1094.76,303.38 1095.53,303.38 1096.30,302.84 1097.08,303.38 1097.85,302.84 1098.62,303.92 1099.41,303.38 1100.17,303.38 1100.95,303.92 1101.72,303.92 1102.50,303.38 1103.27,303.92 1104.05,303.92 1104.82,303.38 1105.61,303.38 1106.38,303.92 1107.15,302.57 1107.92,304.46 1108.70,303.92 1109.47,303.92 1110.27,303.92 1111.04,303.92 1111.82,303.92 1112.60,297.71 1113.38,303.92 1114.15,303.92 1114.92,303.38 1115.69,303.92 1116.48,303.92 1117.25,303.38 1118.02,303.92 1118.79,302.84 1119.58,303.92 1120.35,303.92 1121.13,303.92 1121.92,292.31 1122.71,304.46 1123.53,303.92 1124.32,303.92 1125.09,303.38 1125.86,303.92 1126.63,303.92 1127.41,303.92 1128.18,303.38 1128.95,303.92 1129.73,303.38 1130.51,303.38 1131.29,303.92 1132.06,303.92 1132.82,303.38 1133.60,303.38 1134.38,303.92 1135.16,304.46 1135.95,303.38 1136.74,303.38 1137.52,303.92 1138.30,302.84 1139.11,303.38 1139.89,302.84 1140.71,302.57 1141.49,304.46 1142.27,303.92 1143.04,302.84 1143.82,303.92 1144.59,302.57 1145.37,303.38 1146.14,303.92 1146.91,303.38 1147.68,303.92 1148.46,303.38 1149.25,304.46 1150.02,303.92 1150.80,303.92 1151.59,303.92 1152.49,303.92 1153.27,302.84 1154.04,303.92 1154.81,303.38 1155.58,303.92 1156.34,292.58 1157.11,303.92 1157.82,303.92 1158.52,303.38 1159.36,303.92 1160.08,302.84 1160.79,303.92 1161.58,303.38 1162.25,302.84 1163.02,303.38 1163.80,303.92 1164.58,292.85 1165.34,303.38 1166.11,302.84 1166.89,303.92 1167.66,302.57 1168.42,303.92 1169.20,303.92 1169.97,302.84 1170.74,303.92 1171.52,302.84 1172.29,303.92 1173.06,302.84 1173.83,303.92 1174.60,302.84 1175.36,303.38 1176.13,302.57 1176.90,302.84 1177.67,303.92 1178.44,303.92 1179.22,302.03 1180.00,304.46"/>
<rect x="70" y="332" width="12" height="12" fill="#d62728" fill-opacity="0.95"/>
<text x="88" y="342" font-size="11" fill="#333" font-family="Arial, Helvetica, sans-serif">nsc1.utdallas.edu</text>
<rect x="350" y="332" width="12" height="12" fill="#d62728" fill-opacity="0.80"/>
<text x="368" y="342" font-size="11" fill="#333" font-family="Arial, Helvetica, sans-serif">nsc2.utdallas.edu</text>
<rect x="630" y="332" width="12" height="12" fill="#d62728" fill-opacity="0.65"/>
<text x="648" y="342" font-size="11" fill="#333" font-family="Arial, Helvetica, sans-serif">nsc3.utdallas.edu</text>
<rect x="910" y="332" width="12" height="12" fill="#d62728" fill-opacity="0.50"/>
<text x="928" y="342" font-size="11" fill="#333" font-family="Arial, Helvetica, sans-serif">nsc4.utdallas.edu</text>
</svg>