<?xml version="1.0" encoding="UTF-8"?>
<svg xmlns="http://www.w3.org/2000/svg" width="1200" height="360" viewBox="0 0 1200 360" role="img" aria-label="CPU Utilization (%)">
<rect width="100%" height="100%" fill="#ffffff"/>
<text x="600.0" y="22" text-anchor="middle" font-size="16" font-family="Arial, Helvetica, sans-serif" font-weight="bold">CPU Utilization (%)</text>
<line x1="70" y1="35.00" x2="1180" y2="35.00" stroke="#e3e3e3" stroke-width="1"/>
<text x="62" y="39.00" text-anchor="end" font-size="11" fill="#444" font-family="Arial, Helvetica, sans-serif">100</text>
<line x1="70" y1="89.00" x2="1180" y2="89.00" stroke="#e3e3e3" stroke-width="1"/>
<text x="62" y="93.00" text-anchor="end" font-size="11" fill="#444" font-family="Arial, Helvetica, sans-serif">80</text>
<line x1="70" y1="143.00" x2="1180" y2="143.00" stroke="#e3e3e3" stroke-width="1"/>
<text x="62" y="147.00" text-anchor="end" font-size="11" fill="#444" font-family="Arial, Helvetica, sans-serif">60</text>
<line x1="70" y1="197.00" x2="1180" y2="197.00" stroke="#e3e3e3" stroke-width="1"/>
<text x="62" y="201.00" text-anchor="end" font-size="11" fill="#444" font-family="Arial, Helvetica, sans-serif">40</text>
<line x1="70" y1="251.00" x2="1180" y2="251.00" stroke="#e3e3e3" stroke-width="1"/>
<text x="62" y="255.00" text-anchor="end" font-size="11" fill="#444" font-family="Arial, Helvetica, sans-serif">20</text>
<line x1="70" y1="305.00" x2="1180" y2="305.00" stroke="#e3e3e3" stroke-width="1"/>
<text x="62" y="309.00" text-anchor="end" font-size="11" fill="#444" font-family="Arial, Helvetica, sans-serif">0</text>
<line x1="70" y1="35" x2="70" y2="305" stroke="#999"/>
<line x1="70" y1="305" x2="1180" y2="305" stroke="#999"/>
<text x="70.00" y="323" text-anchor="middle" font-size="10" fill="#444" font-family="Arial, Helvetica, sans-serif">2026-02-11 16:38</text>
<text x="347.50" y="323" text-anchor="middle" font-size="10" fill="#444" font-family="Arial, Helvetica, sans-serif">2026-02-12 19:34</text>
<text x="625.00" y="323" text-anchor="middle" font-size="10" fill="#444" font-family="Arial, Helvetica, sans-serif">2026-02-13 22:30</text>
<text x="902.50" y="323" text-anchor="middle" font-size="10" fill="#444" font-family="Arial, Helvetica, sans-serif">2026-02-15 01:26</text>
<text x="1180.00" y="323" text-anchor="middle" font-size="10" fill="#444" font-family="Arial, Helvetica, sans-serif">2026-02-16 04:22</text>
<polyline fill="none" stroke="#d62728" stroke-opacity="0.95" stroke-width="2" points="70.92,304.46 71.85,298.79 72.77,296.90 73.70,303.92 74.63,304.73 75.55,304.46 76.48,303.92 77.48,304.73 78.40,303.92 79.31,304.46 80.23,303.92 81.17,304.46 82.09,304.46 83.01,303.92 84.67,304.46 86.11,303.92 87.04,304.46 87.99,303.92 88.91,300.95 89.83,304.73 90.73,278.27 91.67,303.92 92.59,304.46 93.52,294.74 94.45,304.46 95.39,303.92 96.32,301.49 97.24,303.92 98.21,295.28 99.15,294.20 100.07,303.65 101.01,304.46 101.94,304.46 102.86,303.92 103.82,303.65 104.73,302.30 105.66,303.92 106.60,304.46 107.51,303.92 108.43,304.73 109.35,304.73 110.27,304.46 111.20,303.38 112.11,304.46 113.06,303.92 113.99,303.38 114.90,304.46 115.83,297.71 116.76,297.44 117.68,48.23 118.74,303.92 119.66,303.92 120.58,304.46 121.50,303.65 122.42,303.65 123.33,304.46 124.25,304.46 125.18,303.92 126.10,304.46 127.04,303.92 127.96,304.46 128.88,304.46 129.81,299.60 130.74,303.65 131.66,303.92 132.59,304.73 133.50,303.92 134.42,304.73 135.34,304.46 136.25,304.46 137.18,304.46 138.10,303.92 139.02,304.73 139.94,303.92 140.87,304.46 141.78,304.73 142.71,303.38 143.63,303.38 144.54,303.65 145.49,304.46 146.41,303.65 147.33,304.73 148.26,304.46 149.18,304.46 150.11,304.73 151.03,303.92 151.94,303.92 152.86,304.46 153.79,304.73 154.72,299.60 155.64,303.65 156.58,304.46 157.49,304.73 158.41,303.65 159.33,303.92 160.25,304.46 161.17,304.46 162.09,303.92 163.01,303.92 163.94,303.92 164.86,304.46 165.79,303.92 166.71,303.92 167.65,298.79 168.58,303.65 169.50,304.46 170.42,304.73 171.34,304.73 172.26,304.46 173.19,304.46 174.11,304.46 175.04,304.46 175.96,302.84 176.88,304.46 177.81,304.46 178.74,304.46 179.68,304.46 180.60,304.46 181.52,304.46 182.45,303.65 183.37,304.73 184.29,303.38 185.22,304.46 186.22,304.46 187.14,304.73 188.08,303.92 189.00,303.92 189.91,304.46 190.83,299.87 191.74,304.46 192.66,304.73 193.58,295.01 194.50,304.46 195.42,303.92 196.34,303.92 197.26,303.92 198.18,304.46 199.12,303.65 200.04,304.46 200.96,304.46 201.88,304.46 202.80,303.92 203.72,303.92 204.65,303.92 205.58,304.73 206.50,304.46 207.43,304.46 208.35,303.92 209.26,304.46 210.18,303.65 211.10,303.92 212.02,303.65 212.95,304.73 213.88,304.46 214.81,304.46 215.73,304.46 216.66,303.11 217.59,303.38 218.50,304.46 219.43,304.46 220.35,304.46 221.29,303.65 222.23,303.92 223.15,304.46 224.07,297.71 224.99,294.20 225.91,303.92 226.83,304.46 227.75,303.65 228.67,297.71 229.58,304.46 230.50,303.92 231.43,304.46 232.36,304.46 233.29,303.92 234.21,303.38 235.15,304.73 236.07,303.92 236.99,303.38 237.91,303.92 238.83,304.46 239.83,304.46 240.78,303.92 241.69,304.73 242.61,304.46 243.52,304.46 244.45,304.73 245.37,304.46 246.30,304.73 247.23,35.00 248.14,303.65 249.06,303.11 249.99,297.17 250.93,304.46 251.85,304.46 252.77,304.46 253.69,303.92 254.62,303.65 255.56,304.46 256.51,303.11 257.42,304.73 258.35,304.46 259.27,303.92 260.19,304.73 261.12,304.46 262.04,303.92 262.98,304.73 263.90,304.46 264.81,304.46 265.75,304.46 266.67,303.92 267.59,303.65 268.52,304.46 269.45,303.65 270.38,304.46 271.29,301.76 272.21,302.03 273.13,304.46 274.05,304.46 274.97,304.46 275.89,35.00 276.81,303.65 277.73,303.92 278.65,304.46 279.58,304.46 280.50,303.65 281.43,304.46 282.37,304.73 283.29,304.46 284.22,304.73 285.14,35.00 286.07,304.73 286.99,303.65 287.91,304.46 288.84,303.65 289.78,304.73 290.70,300.68 291.63,303.65 292.56,303.92 293.47,304.46 294.40,304.46 295.31,304.46 296.24,304.46 297.17,304.73 298.09,304.73 299.01,304.73 299.94,303.65 300.87,303.92 301.79,303.92 302.71,304.73 303.64,35.00 304.58,304.46 305.50,303.92 306.42,304.73 307.35,303.92 308.28,304.73 309.21,303.92 310.13,304.46 311.05,303.92 312.07,304.73 313.00,304.46 313.93,303.65 314.85,304.46 315.79,304.46 316.71,303.92 317.64,304.46 318.56,303.65 319.48,304.73 320.43,295.28 321.37,297.17 322.28,304.46 323.21,304.46 324.13,304.46 325.05,304.73 325.98,304.46 326.94,303.65 327.86,304.46 328.78,303.92 329.72,304.73 330.72,304.73 331.64,304.73 332.80,303.65 334.36,304.46 335.31,303.92 336.25,303.92 337.17,304.73 338.08,304.46 339.00,303.92 339.94,303.65 340.86,304.46 341.79,304.73 342.75,303.92 343.71,35.00 344.69,303.65 345.62,304.46 346.54,304.73 347.46,303.92 348.40,303.92 349.34,303.65 350.27,304.46 351.19,303.92 352.11,304.46 353.07,304.46 354.00,304.46 354.91,304.46 355.84,304.46 356.78,303.92 357.74,304.46 358.67,303.92 359.59,303.92 360.54,303.65 361.43,303.92 362.34,303.65 363.29,303.92 364.20,303.92 365.14,303.92 366.10,303.11 367.02,303.92 367.94,303.92 368.88,304.46 369.81,304.46 370.74,303.65 371.66,304.73 372.57,299.06 373.50,304.73 374.43,304.46 375.35,48.23 376.45,48.50 377.54,48.77 378.63,48.50 379.70,48.23 380.76,48.50 381.82,48.50 382.92,48.77 383.99,304.46 384.92,304.46 385.83,304.46 386.75,303.92 387.68,304.46 388.60,304.46 389.52,303.92 390.43,304.19 391.35,303.65 392.28,304.73 393.20,303.92 394.12,303.92 395.04,304.46 395.96,304.73 396.88,304.73 397.80,304.46 398.72,304.46 399.64,304.46 400.55,303.92 401.48,304.46 402.41,304.73 403.32,303.65 404.24,304.46 405.16,35.00 406.08,304.46 407.00,304.46 407.93,304.73 408.85,304.46 409.77,304.73 410.69,35.00 411.61,304.46 412.53,304.46 413.46,304.73 414.37,303.92 415.29,303.92 416.20,303.92 417.11,303.38 418.03,304.73 418.95,303.65 419.87,304.46 420.79,303.92 421.71,304.46 422.63,304.73 423.54,303.92 424.45,303.38 425.36,304.73 426.31,303.65 427.31,304.73 428.23,304.73 429.16,304.46 430.08,303.92 430.99,303.65 431.91,297.44 432.82,297.71 433.74,48.50 434.83,48.50 435.91,48.50 436.99,48.23 438.07,48.50 439.16,48.23 440.23,48.50 441.33,48.77 442.45,295.82 443.46,297.17 444.45,304.73 445.37,303.92 446.31,303.92 447.23,304.73 448.14,303.92 449.06,304.46 449.99,304.46 450.91,304.46 451.83,304.46 452.74,304.46 453.67,304.73 454.59,303.11 455.51,304.73 456.45,303.92 457.36,304.46 458.28,304.73 459.09,304.46 460.04,303.92 460.96,304.73 461.91,304.73 462.83,304.73 463.75,303.92 464.68,35.00 465.61,304.73 466.54,304.73 467.47,304.46 468.40,304.73 469.34,303.65 470.25,304.46 471.17,304.73 472.09,304.73 473.00,304.73 473.92,35.00 474.84,303.92 475.77,303.92 476.69,303.92 477.61,303.65 478.53,304.46 479.45,304.46 480.38,303.92 481.30,304.46 482.23,304.46 483.16,304.73 484.08,303.92 485.00,301.22 485.93,304.46 486.86,304.46 487.81,304.46 488.72,303.65 489.64,304.46 490.56,304.73 491.47,304.46 492.39,300.68 493.33,303.92 494.24,304.73 495.16,304.46 496.08,304.73 497.00,303.38 497.92,303.92 498.85,304.73 499.78,304.73 500.70,303.92 501.81,303.92 502.76,303.92 503.71,303.65 504.64,304.46 505.56,302.84 506.50,304.46 507.41,304.46 508.33,303.92 509.26,303.92 510.19,303.11 511.11,304.73 512.04,304.46 512.97,304.46 513.89,304.46 514.84,304.73 515.78,304.73 516.71,304.46 517.63,304.73 518.55,304.73 519.48,302.57 520.39,302.84 521.32,301.22 522.28,303.92 523.21,304.46 524.14,304.46 525.06,304.46 525.98,303.92 526.91,304.73 527.83,304.46 528.75,304.46 529.68,303.92 530.61,304.46 531.53,304.46 532.46,304.46 533.38,297.44 534.30,303.92 535.22,304.46 536.16,304.46 537.09,300.68 538.01,303.92 538.93,289.07 539.85,303.65 540.79,302.03 541.72,302.84 542.83,302.84 543.78,304.46 544.70,304.46 545.62,303.92 546.54,304.73 547.47,303.92 548.39,303.92 549.32,303.65 550.26,304.46 551.18,303.92 552.10,304.73 553.02,304.46 553.95,304.46 554.87,303.92 555.79,304.73 556.72,304.46 557.64,304.73 558.56,304.46 559.48,304.73 560.40,304.73 561.33,303.92 562.25,304.46 563.17,304.73 564.11,304.46 565.04,304.46 565.96,304.73 566.88,304.46 567.81,303.38 568.76,303.92 569.67,304.73 570.60,304.73 571.53,303.92 572.46,303.92 573.37,304.46 574.30,303.92 575.23,303.92 576.18,304.73 577.10,303.92 578.02,304.46 578.93,303.92 579.85,304.46 580.78,304.73 581.70,303.92 582.62,304.73 583.56,304.46 584.49,304.73 585.42,298.79 586.33,303.92 587.26,303.92 588.18,304.46 589.10,304.46 590.02,303.65 590.95,303.65 591.87,304.73 592.80,303.92 593.73,303.92 594.65,235.88 595.58,236.69 596.52,236.69 597.44,236.69 598.37,236.15 599.30,232.10 600.34,227.51 601.35,228.59 602.34,222.65 603.27,236.42 604.24,236.15 605.17,235.61 606.09,236.69 607.01,236.69 607.87,236.15 608.83,235.61 609.76,236.15 610.69,236.42 611.60,233.18 612.53,236.69 613.45,236.42 614.38,236.15 615.30,235.61 616.23,235.88 617.15,236.42 618.08,236.42 619.00,236.96 619.93,236.42 620.87,235.61 621.80,236.69 622.73,236.15 623.66,236.42 624.58,242.63 625.52,255.86 626.45,236.69 627.37,235.88 628.29,236.15 629.22,236.42 630.14,235.88 631.06,236.15 631.99,236.96 632.91,236.15 633.85,236.69 634.76,236.96 635.69,236.15 636.61,236.96 637.54,236.15 638.47,236.42 639.40,234.53 640.32,236.15 641.25,236.69 642.17,236.69 643.10,235.34 644.03,236.15 644.97,236.15 645.89,235.61 646.82,236.69 647.75,236.96 648.67,235.61 649.61,232.91 650.56,234.26 651.48,236.42 652.41,236.42 653.34,236.15 654.26,236.96 655.19,236.15 656.11,236.69 657.04,236.96 657.97,234.53 658.90,236.42 659.83,236.69 660.76,236.42 661.68,236.15 662.62,236.42 663.54,235.88 664.48,236.15 665.41,236.96 666.34,235.61 667.27,235.88 668.20,235.88 669.12,236.42 670.05,236.42 670.98,236.69 671.92,236.69 672.85,236.42 673.79,235.61 674.72,236.15 675.64,236.15 676.56,235.34 677.48,236.69 678.41,235.61 679.34,236.69 680.27,235.88 681.19,236.69 682.12,232.91 683.05,235.88 683.98,236.42 684.91,235.88 685.83,235.61 686.77,236.69 687.69,235.88 688.62,236.42 689.55,236.42 690.47,236.69 691.39,236.15 692.31,235.88 693.24,236.42 694.17,235.61 695.10,201.32 696.03,236.69 696.96,236.15 697.89,236.42 698.82,236.42 699.76,235.61 700.68,230.48 701.61,235.34 702.55,283.40 703.47,236.69 704.40,230.75 705.33,236.69 706.27,224.00 707.20,236.42 708.12,236.15 709.07,235.61 710.00,235.88 710.94,236.15 711.86,236.96 712.79,230.48 713.72,235.88 714.65,236.15 715.59,235.61 716.52,243.17 717.44,296.63 718.37,236.15 719.29,235.61 720.24,236.69 721.16,229.94 722.10,229.94 723.02,236.15 723.95,236.42 724.87,236.69 725.79,235.61 726.71,236.69 727.64,236.69 728.57,236.42 729.50,236.15 730.42,236.69 731.35,236.69 732.28,236.42 733.23,231.29 734.16,236.69 735.08,236.15 736.01,236.42 736.93,235.88 737.86,235.61 738.78,235.61 739.72,236.42 740.64,236.96 741.57,236.69 742.50,236.69 743.43,235.61 744.35,235.88 745.28,235.88 746.22,236.69 747.18,236.69 748.11,235.61 749.04,236.15 749.98,283.13 750.90,236.42 751.84,236.69 752.76,235.88 753.68,236.15 754.60,235.07 755.54,236.42 756.47,236.69 757.40,236.15 758.33,237.23 759.27,236.15 760.24,236.15 761.16,236.15 762.09,236.69 763.02,236.69 763.95,236.42 764.88,236.69 765.81,236.69 766.75,235.61 767.68,236.42 768.62,235.34 769.55,236.96 770.48,235.61 771.41,236.69 772.34,236.69 773.27,236.15 774.20,236.42 775.12,236.42 776.06,296.90 776.99,236.15 777.92,235.61 778.85,236.42 779.78,236.42 780.71,236.69 781.64,236.69 782.57,236.69 783.50,236.69 784.46,235.34 785.39,235.88 786.33,233.45 787.26,236.15 788.21,236.15 789.16,235.07 790.11,234.26 791.05,234.26 792.01,235.88 792.94,290.15 793.87,236.69 794.79,236.42 795.73,236.15 796.66,236.42 797.59,235.34 798.54,236.69 799.47,236.15 800.40,236.69 801.33,235.88 802.25,236.15 803.18,236.69 804.11,236.42 805.04,236.96 805.97,231.83 806.89,236.42 807.81,236.42 808.74,236.42 809.66,236.42 810.58,236.15 811.52,236.69 812.45,236.42 813.37,232.64 814.31,235.88 815.25,237.23 816.17,236.42 817.10,235.88 818.03,236.42 818.96,283.94 819.88,236.15 820.81,236.42 821.74,236.42 822.67,236.42 823.59,290.42 824.51,236.42 825.44,236.69 826.36,236.42 827.29,236.15 828.22,236.69 829.15,235.88 830.08,234.53 831.00,235.34 831.93,236.69 832.86,236.42 833.79,236.15 834.70,236.42 835.62,235.61 836.53,236.69 837.46,236.42 838.39,235.34 839.33,235.88 840.26,236.15 841.18,235.61 842.11,236.69 843.06,236.15 843.99,235.61 844.91,236.15 845.85,235.07 846.78,236.15 847.70,235.61 848.64,236.69 849.57,236.15 850.51,235.61 851.45,290.15 852.37,236.42 853.29,236.69 854.22,236.15 855.14,235.61 856.07,236.42 857.00,236.69 857.91,235.88 858.84,235.88 859.77,235.88 860.70,236.69 861.62,236.15 862.55,236.15 863.47,236.42 864.40,235.34 865.33,235.88 866.27,236.15 867.19,236.15 868.12,235.61 869.05,236.42 869.99,236.96 870.91,235.34 871.83,236.42 872.77,236.15 873.69,236.15 874.62,235.88 875.55,236.42 876.48,233.18 877.41,236.69 878.33,235.88 879.25,236.15 880.22,236.69 881.14,236.15 882.09,235.88 883.03,232.91 883.96,236.15 884.89,283.67 885.82,236.42 886.75,235.88 887.68,234.80 888.60,235.34 889.54,236.15 890.49,234.53 891.42,236.69 892.35,236.42 893.28,236.69 894.20,236.96 895.14,235.88 896.07,236.42 896.99,236.69 897.91,235.61 898.84,236.42 899.77,236.42 900.70,236.69 901.62,236.15 902.56,236.42 903.47,236.15 904.40,235.61 905.33,236.15 906.25,235.07 907.17,236.15 908.12,236.69 909.04,231.83 909.97,235.61 910.89,285.02 911.82,236.69 912.74,236.15 913.68,236.69 914.60,231.29 915.55,283.13 916.47,236.42 917.39,234.53 918.32,235.88 919.25,236.69 920.18,236.42 921.10,229.40 922.04,236.69 922.99,235.34 923.93,235.88 924.88,236.15 925.82,235.61 926.77,236.15 927.73,236.69 928.67,236.69 929.64,236.15 930.58,229.94 931.53,236.42 932.46,236.42 933.38,235.34 934.32,230.75 935.26,236.15 936.18,236.15 937.12,236.69 938.05,236.96 938.98,235.88 939.91,235.34 940.84,236.15 941.76,235.88 942.68,235.61 943.61,236.69 944.54,235.07 945.46,231.83 946.40,236.69 947.33,235.88 948.25,236.15 949.19,236.42 950.13,236.42 951.05,232.91 951.98,236.69 952.91,235.88 953.84,236.15 954.77,231.02 955.70,290.69 956.62,236.69 957.55,232.64 958.48,243.71 959.41,236.69 960.33,236.69 961.27,235.88 962.19,236.15 963.12,235.88 964.12,235.61 965.08,234.53 966.00,236.15 966.93,235.61 967.85,262.88 968.79,230.21 969.73,236.69 970.67,230.21 971.60,236.42 972.52,235.61 973.43,236.69 974.36,236.15 975.28,236.42 976.21,236.69 977.14,233.18 978.07,236.15 979.00,236.69 979.94,236.15 980.87,236.69 981.79,236.69 982.72,236.42 983.65,235.61 984.58,236.15 985.51,236.15 986.43,236.15 987.36,235.07 988.30,236.42 989.23,231.56 990.16,236.69 991.12,235.61 992.06,236.69 992.98,235.61 993.91,235.61 994.84,235.34 995.77,236.42 996.70,236.42 997.64,236.42 998.56,296.90 999.49,236.42 1000.42,236.69 1001.36,249.38 1002.30,236.15 1003.24,236.15 1004.16,235.88 1005.08,236.42 1006.02,236.15 1006.94,232.91 1007.87,235.88 1008.80,236.69 1009.74,235.34 1010.67,236.42 1011.59,236.42 1012.52,235.61 1013.45,236.15 1014.38,236.15 1015.31,236.69 1016.23,236.69 1017.16,236.15 1018.09,235.88 1019.02,236.96 1019.94,235.88 1020.87,236.96 1021.80,236.42 1022.73,235.34 1023.66,236.15 1024.59,232.10 1025.52,236.69 1026.43,236.15 1027.36,297.17 1028.28,236.42 1029.22,236.42 1030.15,236.42 1031.10,236.42 1032.03,230.75 1032.96,236.15 1033.89,236.69 1034.82,235.88 1035.76,236.42 1036.76,236.15 1037.71,231.83 1038.65,235.07 1039.58,234.80 1040.52,235.88 1041.45,270.17 1042.37,236.15 1043.31,236.42 1044.24,243.17 1045.16,236.69 1046.10,235.34 1047.03,236.69 1047.96,236.69 1048.91,236.96 1049.84,236.69 1050.77,236.69 1051.70,235.88 1052.63,236.15 1053.56,236.69 1054.49,236.15 1055.42,234.80 1056.35,236.69 1057.29,236.15 1058.21,236.42 1059.15,236.42 1060.08,235.34 1061.01,236.69 1061.94,236.69 1062.89,236.69 1063.82,236.69 1064.75,236.15 1065.67,235.88 1066.61,236.69 1067.54,236.69 1068.46,236.15 1069.38,236.69 1070.32,291.23 1071.24,235.61 1072.17,236.69 1073.11,236.15 1074.03,236.15 1074.96,235.61 1075.89,235.34 1076.83,236.15 1077.75,236.42 1078.68,236.69 1079.61,236.42 1080.56,235.61 1081.49,236.69 1082.39,236.69 1083.30,236.42 1084.22,236.15 1085.16,236.15 1086.09,236.42 1087.02,236.42 1087.97,236.42 1088.89,236.69 1089.83,235.88 1090.77,235.61 1091.69,236.69 1092.62,236.42 1093.54,236.15 1094.47,236.42 1095.39,234.26 1096.31,235.88 1097.24,233.99 1098.18,235.88 1099.10,235.88 1100.02,235.07 1100.95,236.42 1101.88,236.15 1102.81,236.42 1103.74,236.42 1104.66,236.42 1105.58,289.61 1106.48,236.69 1107.43,235.61 1108.36,235.88 1109.29,236.69 1110.22,236.15 1111.16,236.69 1112.09,236.69 1113.01,236.69 1113.95,236.42 1114.88,236.69 1115.80,236.69 1116.73,236.15 1117.73,236.15 1118.66,236.15 1119.60,236.15 1120.53,236.42 1121.47,236.69 1122.38,236.15 1123.31,236.15 1124.25,235.61 1125.17,236.42 1126.10,236.69 1127.03,236.42 1127.95,236.42 1128.89,236.42 1129.83,236.15 1130.75,236.42 1131.68,236.96 1132.61,236.69 1133.54,236.42 1134.47,236.42 1135.41,235.61 1136.34,230.21 1137.28,235.07 1138.23,236.69 1139.16,236.69 1140.09,236.69 1141.02,236.69 1141.96,236.69 1142.89,236.69 1143.82,235.61 1144.75,236.42 1145.67,235.88 1146.60,304.46 1147.53,303.11 1148.46,304.46 1149.40,304.46 1150.33,304.46 1151.26,304.46 1152.19,303.65 1153.10,304.46 1154.03,304.46 1154.96,304.46 1155.89,299.60 1156.81,303.92 1157.74,304.46 1158.67,304.73 1159.59,303.92 1160.51,304.46 1161.44,304.46 1162.36,304.46 1163.29,304.46 1164.21,304.46 1165.14,304.46 1166.06,304.73 1166.98,304.46 1167.91,303.92 1168.83,302.84 1169.77,304.73 1170.69,304.46 1171.61,304.46 1172.53,303.92 1173.46,304.46 1174.40,304.46 1175.32,304.46 1176.25,304.46 1177.18,304.46 1178.15,301.22 1179.07,304.73 1180.00,303.92"/>
<polyline fill="none" stroke="#d62728" stroke-opacity="0.80" stroke-width="2" points="70.00,303.38 70.92,304.19 71.85,302.57 72.77,303.38 73.70,304.19 74.63,287.72 75.55,303.38 76.48,304.19 77.48,304.19 78.40,303.38 79.31,303.38 80.23,304.19 81.17,304.19 82.09,304.19 83.01,304.19 84.67,304.19 86.11,302.57 87.04,304.19 87.99,304.19 88.91,304.19 89.83,303.38 90.73,303.38 91.67,304.19 92.59,302.57 93.52,302.57 94.45,303.38 95.39,303.38 96.32,304.19 97.24,303.38 98.21,35.00 99.15,303.38 100.07,35.00 101.01,35.00 101.94,303.38 102.86,304.19 103.82,35.00 104.73,303.38 105.66,302.57 106.60,304.19 107.51,303.38 108.43,303.38 109.35,302.57 110.27,304.19 111.20,303.38 112.11,303.38 113.06,302.57 113.99,303.38 114.90,35.00 115.83,303.38 116.76,304.19 117.68,304.19 118.74,302.57 119.66,35.00 120.58,304.19 121.50,303.38 122.42,304.19 123.33,303.38 124.25,303.38 125.18,304.19 126.10,35.00 127.04,304.19 127.96,304.19 128.88,304.19 129.81,303.38 130.74,304.19 131.66,302.57 132.59,304.19 133.50,302.57 134.42,302.57 135.34,303.38 136.25,288.80 137.18,302.57 138.10,304.19 139.02,304.19 139.94,303.38 140.87,304.19 141.78,300.14 142.71,304.19 143.63,304.19 144.54,304.19 145.49,35.00 146.41,35.00 147.33,302.57 148.26,35.00 149.18,35.00 150.11,303.38 151.03,304.19 151.94,35.00 152.86,304.19 153.79,304.19 154.72,304.19 155.64,304.19 156.58,303.38 157.49,303.38 158.41,304.19 159.33,304.19 160.25,303.38 161.17,286.91 162.09,303.38 163.01,304.19 163.94,304.19 164.86,304.19 165.79,303.38 166.71,304.19 167.65,304.19 168.58,303.38 169.50,302.57 170.42,302.57 171.34,304.19 172.26,302.57 173.19,304.19 174.11,304.19 175.04,304.19 175.96,35.00 176.88,304.19 177.81,304.19 178.74,302.57 179.68,35.00 180.60,35.00 181.52,303.38 182.45,304.19 183.37,303.38 184.29,304.19 185.22,304.19 186.22,302.57 187.14,304.19 188.08,35.00 189.00,35.00 189.91,302.57 190.83,304.19 191.74,304.19 192.66,303.38 193.58,35.00 194.50,303.38 195.42,35.00 196.34,304.19 197.26,304.19 198.18,304.19 199.12,303.38 200.04,303.38 200.96,304.19 201.88,304.19 202.80,295.28 203.72,35.00 204.65,303.38 205.58,35.00 206.50,35.00 207.43,302.57 208.35,304.19 209.26,299.33 210.18,304.19 211.10,304.19 212.02,304.19 212.95,303.38 213.88,303.38 214.81,303.38 215.73,302.57 216.66,303.38 217.59,304.19 218.50,303.38 219.43,304.19 220.35,303.38 221.29,304.19 222.23,303.38 223.15,303.38 224.07,302.57 224.99,303.38 225.91,304.19 226.83,303.38 227.75,35.00 228.67,304.19 229.58,303.38 230.50,302.57 231.43,304.19 232.36,304.19 233.29,303.38 234.21,303.38 235.15,304.19 236.07,35.00 236.99,303.38 237.91,35.00 238.83,302.57 239.83,303.38 240.78,304.19 241.69,35.00 242.61,303.38 243.52,35.00 244.45,304.19 245.37,304.19 246.30,35.00 247.23,304.19 248.14,302.57 249.06,302.57 249.99,303.38 250.93,35.00 251.85,302.57 252.77,304.19 253.69,301.76 254.62,303.38 255.56,303.38 256.51,304.19 257.42,303.38 258.35,303.38 259.27,304.19 260.19,304.19 261.12,303.38 262.04,304.19 262.98,304.19 263.90,303.38 264.81,35.00 265.75,304.19 266.67,303.38 267.59,304.19 268.52,304.19 269.45,304.19 270.38,35.00 271.29,35.00 272.21,302.57 273.13,302.57 274.05,304.19 274.97,303.38 275.89,302.57 276.81,302.57 277.73,35.00 278.65,304.19 279.58,35.00 280.50,303.38 281.43,35.00 282.37,303.38 283.29,303.38 284.22,303.38 285.14,35.00 286.07,304.19 286.99,302.57 287.91,303.38 288.84,304.19 289.78,303.38 290.70,35.00 291.63,303.38 292.56,304.19 293.47,303.38 294.40,304.19 295.31,35.00 296.24,302.57 297.17,304.19 298.09,304.19 299.01,303.38 299.94,303.38 300.87,304.19 301.79,303.38 302.71,304.19 303.64,304.19 304.58,304.19 305.50,303.38 306.42,302.57 307.35,304.19 308.28,35.00 309.21,295.28 310.13,303.38 311.05,302.57 312.07,303.38 313.00,301.76 313.93,35.00 314.85,304.19 315.79,303.38 316.71,304.19 317.64,304.19 318.56,299.33 319.48,304.19 320.43,303.38 321.37,302.57 322.28,303.38 323.21,302.57 324.13,304.19 325.05,304.19 325.98,304.19 326.94,302.57 327.86,303.38 328.78,303.38 329.72,35.00 330.72,303.38 331.64,303.38 332.80,304.19 334.36,302.57 335.31,303.38 336.25,303.38 337.17,303.38 338.08,304.19 339.00,303.38 339.94,304.19 340.86,304.19 341.79,303.38 342.75,304.19 343.71,304.19 344.69,304.19 345.62,304.19 346.54,302.57 347.46,35.00 348.40,304.19 349.34,302.57 350.27,303.38 351.19,303.38 352.11,303.38 353.07,304.19 354.00,304.19 354.91,303.38 355.84,304.19 356.78,303.38 357.74,304.19 358.67,303.38 359.59,304.19 360.54,287.18 361.43,288.53 362.34,301.76 363.29,302.57 364.20,303.38 365.14,35.00 366.10,35.00 367.02,303.38 367.94,303.38 368.88,304.19 369.81,304.19 370.74,35.00 371.66,304.19 372.57,35.00 373.50,303.38 374.43,303.38 375.35,302.57 376.45,303.38 377.54,303.38 378.63,300.95 379.70,303.38 380.76,302.57 381.82,304.19 382.92,304.19 383.99,35.00 384.92,303.38 385.83,303.38 386.75,304.19 387.68,304.19 388.60,302.57 389.52,303.38 390.43,304.19 391.35,303.38 392.28,303.38 393.20,304.19 394.12,303.38 395.04,304.19 395.96,303.38 396.88,303.38 397.80,304.19 398.72,303.38 399.64,35.00 400.55,304.19 401.48,304.19 402.41,303.38 403.32,304.19 404.24,304.19 405.16,35.00 406.08,303.38 407.00,304.19 407.93,304.19 408.85,304.19 409.77,302.57 410.69,35.00 411.61,303.38 412.53,287.72 413.46,304.19 414.37,304.19 415.29,303.38 416.20,301.76 417.11,303.38 418.03,304.19 418.95,302.57 419.87,303.38 420.79,303.38 421.71,303.38 422.63,303.38 423.54,304.19 424.45,303.38 425.36,302.57 426.31,304.19 427.31,303.38 428.23,303.38 429.16,303.38 430.08,303.38 430.99,304.19 431.91,304.19 432.82,304.19 433.74,304.19 434.83,303.38 435.91,303.38 436.99,304.19 438.07,302.57 439.16,304.19 440.23,303.38 441.33,302.57 442.45,304.19 443.46,303.38 444.45,303.38 445.37,303.38 446.31,302.57 447.23,35.00 448.14,35.00 449.06,304.19 449.99,303.38 450.91,35.00 451.83,35.00 452.74,303.38 453.67,304.19 454.59,304.19 455.51,304.19 456.45,303.38 457.36,304.19 458.28,304.19 459.09,304.19 460.04,304.19 460.96,287.72 461.91,303.38 462.83,302.57 463.75,303.38 464.68,303.38 465.61,304.19 466.54,304.19 467.47,303.38 468.40,302.57 469.34,304.19 470.25,303.38 471.17,302.57 472.09,304.19 473.00,301.76 473.92,304.19 474.84,304.19 475.77,303.38 476.69,303.38 477.61,304.19 478.53,303.38 479.45,301.76 480.38,304.19 481.30,304.19 482.23,304.19 483.16,35.00 484.08,303.38 485.00,304.19 485.93,304.19 486.86,304.19 487.81,304.19 488.72,35.00 489.64,35.00 490.56,302.57 491.47,304.19 492.39,35.00 493.33,304.19 494.24,303.38 495.16,302.57 496.08,302.57 497.00,304.19 497.92,303.38 498.85,304.19 499.78,303.38 500.70,301.76 501.81,304.19 502.76,304.19 503.71,304.19 504.64,302.57 505.56,304.19 506.50,304.19 507.41,304.19 508.33,303.38 509.26,304.19 510.19,303.38 511.11,35.00 512.04,302.57 512.97,304.19 513.89,302.57 514.84,304.19 515.78,303.38 516.71,304.19 517.63,303.38 518.55,35.00 519.48,302.57 520.39,303.38 521.32,304.19 522.28,304.19 523.21,304.19 524.14,304.19 525.06,303.38 525.98,304.19 526.91,304.19 527.83,304.19 528.75,304.19 529.68,304.19 530.61,304.19 531.53,302.57 532.46,304.19 533.38,303.38 534.30,304.19 535.22,304.19 536.16,304.19 537.09,304.19 538.01,35.00 538.93,304.19 539.85,301.76 540.79,217.79 541.72,304.19 542.83,35.00 543.78,303.38 544.70,302.57 545.62,304.19 546.54,303.38 547.47,304.19 548.39,303.38 549.32,304.19 550.26,304.19 551.18,303.38 552.10,35.00 553.02,35.00 553.95,304.19 554.87,302.57 555.79,304.19 556.72,304.19 557.64,304.19 558.56,303.38 559.48,304.19 560.40,302.57 561.33,304.19 562.25,35.00 563.17,35.00 564.11,303.38 565.04,304.19 565.96,303.38 566.88,300.95 567.81,304.19 568.76,304.19 569.67,304.19 570.60,303.38 571.53,303.38 572.46,302.57 573.37,35.00 574.30,303.38 575.23,35.00 576.18,35.00 577.10,303.38 578.02,304.19 578.93,302.57 579.85,304.19 580.78,304.19 581.70,303.38 582.62,303.38 583.56,296.09 584.49,304.19 585.42,304.19 586.33,304.19 587.26,302.57 588.18,35.00 589.10,303.38 590.02,304.19 590.95,302.57 591.87,302.57 592.80,303.38 593.73,35.00 594.65,303.38 595.58,303.38 596.52,304.19 597.44,304.19 598.37,303.38 599.30,304.19 600.34,303.38 601.35,303.38 602.34,302.57 603.27,304.19 604.24,303.38 605.17,303.38 606.09,304.19 607.01,35.00 607.87,303.38 608.83,287.18 609.76,304.19 610.69,286.37 611.60,302.57 612.53,304.19 613.45,304.19 614.38,304.19 615.30,304.19 616.23,304.19 617.15,35.00 618.08,303.38 619.00,304.19 619.93,35.00 620.87,304.19 621.80,304.19 622.73,303.38 623.66,304.19 624.58,304.19 625.52,303.38 626.45,303.38 627.37,304.19 628.29,304.19 629.22,304.19 630.14,304.19 631.06,302.57 631.99,35.00 632.91,35.00 633.85,304.19 634.76,303.38 635.69,304.19 636.61,304.19 637.54,304.19 638.47,304.19 639.40,304.19 640.32,301.76 641.25,303.38 642.17,302.57 643.10,304.19 644.03,35.00 644.97,304.19 645.89,304.19 646.82,303.38 647.75,35.00 648.67,304.19 649.61,304.19 650.56,304.19 651.48,35.00 652.41,304.19 653.34,304.19 654.26,303.38 655.19,303.38 656.11,35.00 657.04,35.00 657.97,303.38 658.90,304.19 659.83,302.57 660.76,302.57 661.68,304.19 662.62,295.28 663.54,303.38 664.48,304.19 665.41,304.19 666.34,303.38 667.27,35.00 668.20,304.19 669.12,302.57 670.05,35.00 670.98,302.57 671.92,303.38 672.85,304.19 673.79,303.38 674.72,304.19 675.64,35.00 676.56,35.00 677.48,302.57 678.41,303.38 679.34,295.28 680.27,304.19 681.19,304.19 682.12,303.38 683.05,303.38 683.98,304.19 684.91,304.19 685.83,35.00 686.77,303.38 687.69,303.38 688.62,304.19 689.55,35.00 690.47,304.19 691.39,303.38 692.31,35.00 693.24,304.19 694.17,303.38 695.10,302.57 696.03,304.19 696.96,302.57 697.89,304.19 698.82,303.38 699.76,304.19 700.68,304.19 701.61,304.19 702.55,304.19 703.47,304.19 704.40,304.19 705.33,303.38 706.27,303.38 707.20,304.19 708.12,304.19 709.07,304.19 710.00,304.19 710.94,303.38 711.86,304.19 712.79,304.19 713.72,303.38 714.65,303.38 715.59,35.00 716.52,303.38 717.44,303.38 718.37,304.19 719.29,35.00 720.24,302.57 721.16,304.19 722.10,287.18 723.02,304.19 723.95,35.00 724.87,35.00 725.79,304.19 726.71,304.19 727.64,304.19 728.57,304.19 729.50,303.38 730.42,303.38 731.35,303.38 732.28,304.19 733.23,35.00 734.16,35.00 735.08,35.00 736.01,286.37 736.93,302.57 737.86,301.76 738.78,303.38 739.72,303.38 740.64,286.37 741.57,304.19 742.50,304.19 743.43,304.19 744.35,304.19 745.28,303.38 746.22,35.00 747.18,303.38 748.11,304.19 749.04,303.38 749.98,303.38 750.90,35.00 751.84,304.19 752.76,35.00 753.68,303.38 754.60,302.57 755.54,303.38 756.47,303.38 757.40,303.38 758.33,303.38 759.27,303.38 760.24,304.19 761.16,35.00 762.09,303.38 763.02,304.19 763.95,35.00 764.88,35.00 765.81,304.19 766.75,303.38 767.68,304.19 768.62,304.19 769.55,301.76 770.48,304.19 771.41,303.38 772.34,304.19 773.27,301.76 774.20,304.19 775.12,302.57 776.06,302.57 776.99,303.38 777.92,304.19 778.85,35.00 779.78,35.00 780.71,35.00 781.64,303.38 782.57,303.38 783.50,304.19 784.46,35.00 785.39,302.57 786.33,304.19 787.26,35.00 788.21,304.19 789.16,304.19 790.11,303.38 791.05,303.38 792.01,302.57 792.94,304.19 793.87,303.38 794.79,303.38 795.73,304.19 796.66,35.00 797.59,304.19 798.54,35.00 799.47,304.19 800.40,303.38 801.33,35.00 802.25,302.57 803.18,303.38 804.11,298.52 805.04,303.38 805.97,304.19 806.89,303.38 807.81,304.19 808.74,304.19 809.66,35.00 810.58,304.19 811.52,304.19 812.45,35.00 813.37,304.19 814.31,303.38 815.25,304.19 816.17,35.00 817.10,303.38 818.03,303.38 818.96,304.19 819.88,304.19 820.81,304.19 821.74,304.19 822.67,298.52 823.59,303.38 824.51,302.57 825.44,304.19 826.36,302.57 827.29,303.38 828.22,304.19 829.15,304.19 830.08,303.38 831.00,303.38 831.93,304.19 832.86,304.19 833.79,35.00 834.70,35.00 835.62,304.19 836.53,304.19 837.46,303.38 838.39,303.38 839.33,301.76 840.26,304.19 841.18,304.19 842.11,284.75 843.06,303.38 843.99,303.38 844.91,304.19 845.85,304.19 846.78,304.19 847.70,303.38 848.64,303.38 849.57,304.19 850.51,303.38 851.45,303.38 852.37,303.38 853.29,304.19 854.22,304.19 855.14,303.38 856.07,302.57 857.00,303.38 857.91,304.19 858.84,303.38 859.77,304.19 860.70,304.19 861.62,35.00 862.55,303.38 863.47,304.19 864.40,302.57 865.33,304.19 866.27,304.19 867.19,304.19 868.12,303.38 869.05,301.76 869.99,35.00 870.91,304.19 871.83,303.38 872.77,304.19 873.69,35.00 874.62,304.19 875.55,304.19 876.48,304.19 877.41,304.19 878.33,304.19 879.25,35.00 880.22,35.00 881.14,303.38 882.09,304.19 883.03,304.19 883.96,302.57 884.89,35.00 885.82,302.57 886.75,35.00 887.68,35.00 888.60,303.38 889.54,303.38 890.49,304.19 891.42,304.19 892.35,35.00 893.28,304.19 894.20,303.38 895.14,302.57 896.07,304.19 896.99,304.19 897.91,303.38 898.84,302.57 899.77,304.19 900.70,304.19 901.62,304.19 902.56,304.19 903.47,35.00 904.40,35.00 905.33,304.19 906.25,303.38 907.17,35.00 908.12,304.19 909.04,302.57 909.97,304.19 910.89,304.19 911.82,304.19 912.74,294.47 913.68,303.38 914.60,35.00 915.55,304.19 916.47,304.19 917.39,302.57 918.32,304.19 919.25,304.19 920.18,304.19 921.10,303.38 922.04,304.19 922.99,303.38 923.93,304.19 924.88,304.19 925.82,302.57 926.77,302.57 927.73,304.19 928.67,304.19 929.64,301.76 930.58,301.76 931.53,35.00 932.46,304.19 933.38,303.38 934.32,304.19 935.26,304.19 936.18,303.38 937.12,304.19 938.05,35.00 938.98,35.00 939.91,303.38 940.84,304.19 941.76,304.19 942.68,302.57 943.61,303.38 944.54,304.19 945.46,303.38 946.40,304.19 947.33,304.19 948.25,302.57 949.19,35.00 950.13,304.19 951.05,35.00 951.98,35.00 952.91,304.19 953.84,304.19 954.77,303.38 955.70,303.38 956.62,304.19 957.55,304.19 958.48,303.38 959.41,304.19 960.33,304.19 961.27,304.19 962.19,304.19 963.12,304.19 964.12,303.38 965.08,35.00 966.00,301.76 966.93,35.00 967.85,302.57 968.79,304.19 969.73,304.19 970.67,304.19 971.60,303.38 972.52,304.19 973.43,302.57 974.36,304.19 975.28,35.00 976.21,303.38 977.14,304.19 978.07,303.38 979.00,303.38 979.94,302.57 980.87,35.00 981.79,304.19 982.72,35.00 983.65,304.19 984.58,295.28 985.51,304.19 986.43,303.38 987.36,297.71 988.30,304.19 989.23,35.00 990.16,302.57 991.12,302.57 992.06,304.19 992.98,304.19 993.91,303.38 994.84,304.19 995.77,303.38 996.70,304.19 997.64,304.19 998.56,303.38 999.49,304.19 1000.42,304.19 1001.36,304.19 1002.30,303.38 1003.24,304.19 1004.16,303.38 1005.08,35.00 1006.02,304.19 1006.94,303.38 1007.87,303.38 1008.80,303.38 1009.74,304.19 1010.67,35.00 1011.59,303.38 1012.52,35.00 1013.45,304.19 1014.38,35.00 1015.31,35.00 1016.23,304.19 1017.16,35.00 1018.09,304.19 1019.02,304.19 1019.94,35.00 1020.87,304.19 1021.80,304.19 1022.73,303.38 1023.66,303.38 1024.59,303.38 1025.52,304.19 1026.43,303.38 1027.36,35.00 1028.28,303.38 1029.22,304.19 1030.15,303.38 1031.10,302.57 1032.03,303.38 1032.96,304.19 1033.89,304.19 1034.82,286.91 1035.76,301.76 1036.76,303.38 1037.71,303.38 1038.65,304.19 1039.58,303.38 1040.52,304.19 1041.45,303.38 1042.37,304.19 1043.31,304.19 1044.24,304.19 1045.16,304.19 1046.10,302.57 1047.03,35.00 1047.96,303.38 1048.91,303.38 1049.84,35.00 1050.77,303.38 1051.70,304.19 1052.63,304.19 1053.56,303.38 1054.49,303.38 1055.42,303.38 1056.35,303.38 1057.29,303.38 1058.21,304.19 1059.15,303.38 1060.08,301.76 1061.01,304.19 1061.94,304.19 1062.89,303.38 1063.82,304.19 1064.75,35.00 1065.67,304.19 1066.61,35.00 1067.54,303.38 1068.46,303.38 1069.38,303.38 1070.32,304.19 1071.24,301.76 1072.17,35.00 1073.11,35.00 1074.03,302.57 1074.96,304.19 1075.89,35.00 1076.83,304.19 1077.75,304.19 1078.68,304.19 1079.61,304.19 1080.56,304.19 1081.49,35.00 1082.39,35.00 1083.30,35.00 1084.22,304.19 1085.16,304.19 1086.09,303.38 1087.02,304.19 1087.97,302.57 1088.89,302.57 1089.83,303.38 1090.77,304.19 1091.69,303.38 1092.62,304.19 1093.54,303.38 1094.47,35.00 1095.39,303.38 1096.31,35.00 1097.24,304.19 1098.18,304.19 1099.10,304.19 1100.02,304.19 1100.95,302.57 1101.88,35.00 1102.81,304.19 1103.74,303.38 1104.66,287.72 1105.58,286.10 1106.48,304.19 1107.43,35.00 1108.36,304.19 1109.29,301.76 1110.22,304.19 1111.16,35.00 1112.09,304.19 1113.01,303.38 1113.95,304.19 1114.88,304.19 1115.80,301.76 1116.73,299.33 1117.73,302.57 1118.66,304.19 1119.60,303.38 1120.53,35.00 1121.47,35.00 1122.38,303.38 1123.31,303.38 1124.25,304.19 1125.17,285.02 1126.10,304.19 1127.03,304.19 1127.95,304.19 1128.89,304.19 1129.83,303.38 1130.75,302.57 1131.68,303.38 1132.61,35.00 1133.54,35.00 1134.47,304.19 1135.41,302.57 1136.34,303.38 1137.28,35.00 1138.23,303.38 1139.16,303.38 1140.09,35.00 1141.02,304.19 1141.96,303.38 1142.89,302.57 1143.82,303.38 1144.75,304.19 1145.67,304.19 1146.60,303.38 1147.53,303.38 1148.46,35.00 1149.40,302.57 1150.33,35.00 1151.26,35.00 1152.19,304.19 1153.10,304.19 1154.03,303.38 1154.96,304.19 1155.89,303.38 1156.81,35.00 1157.74,304.19 1158.67,304.19 1159.59,35.00 1160.51,304.19 1161.44,302.57 1162.36,300.95 1163.29,35.00 1164.21,35.00 1165.14,35.00 1166.06,303.38 1166.98,303.38 1167.91,304.19 1168.83,304.19 1169.77,303.38 1170.69,302.57 1171.61,303.38 1172.53,304.19 1173.46,304.19 1174.40,304.19 1175.32,304.19 1176.25,303.38 1177.18,303.38 1178.15,303.38 1179.07,302.57 1180.00,304.19"/>
<polyline fill="none" stroke="#d62728" stroke-opacity="0.65" stroke-width="2" points="70.00,35.00 70.92,304.46 71.85,304.46 72.77,302.30 73.70,304.46 74.63,303.38 75.55,304.46 76.48,304.46 77.48,35.00 78.40,304.46 79.31,304.46 80.23,303.92 81.17,303.92 82.09,304.46 83.01,304.46 84.67,303.92 86.11,304.46 87.04,35.00 87.99,303.92 88.91,302.84 89.83,304.46 90.73,303.92 91.67,302.84 92.59,35.00 93.52,303.92 94.45,35.00 95.39,35.00 96.32,35.00 97.24,303.92 98.21,35.00 99.15,303.38 100.07,303.92 101.01,304.46 101.94,35.00 102.86,35.00 103.82,304.46 104.73,35.00 105.66,304.46 106.60,35.00 107.51,304.46 108.43,303.92 109.35,35.00 110.27,304.46 111.20,304.46 112.11,293.12 113.06,35.00 113.99,304.46 114.90,304.46 115.83,304.46 116.76,35.00 117.68,304.46 118.74,304.46 119.66,304.46 120.58,35.00 121.50,35.00 122.42,304.46 123.33,304.46 124.25,303.38 125.18,303.92 126.10,304.46 127.04,35.00 127.96,304.46 128.88,304.46 129.81,35.00 130.74,304.46 131.66,303.92 132.59,304.46 133.50,304.46 134.42,35.00 135.34,303.92 136.25,303.92 137.18,304.46 138.10,303.92 139.02,303.92 139.94,35.00 140.87,303.92 141.78,304.46 142.71,304.46 143.63,303.38 144.54,35.00 145.49,304.46 146.41,303.38 147.33,304.46 148.26,35.00 149.18,304.46 150.11,304.46 151.03,303.92 151.94,303.92 152.86,303.92 153.79,304.46 154.72,303.92 155.64,304.46 156.58,303.92 157.49,35.00 158.41,303.92 159.33,303.92 160.25,304.46 161.17,304.46 162.09,303.92 163.01,303.92 163.94,35.00 164.86,35.00 165.79,303.92 166.71,35.00 167.65,304.46 168.58,304.46 169.50,304.46 170.42,304.46 171.34,303.92 172.26,304.46 173.19,303.38 174.11,304.46 175.04,303.92 175.96,35.00 176.88,304.46 177.81,303.92 178.74,303.92 179.68,303.92 180.60,304.46 181.52,35.00 182.45,304.46 183.37,304.46 184.29,35.00 185.22,303.92 186.22,304.46 187.14,303.92 188.08,304.46 189.00,304.46 189.91,303.92 190.83,303.92 191.74,304.46 192.66,304.46 193.58,304.46 194.50,303.38 195.42,304.46 196.34,35.00 197.26,303.92 198.18,35.00 199.12,304.46 200.04,35.00 200.96,35.00 201.88,303.92 202.80,303.92 203.72,304.46 204.65,304.46 205.58,304.46 206.50,303.92 207.43,304.46 208.35,304.46 209.26,303.92 210.18,35.00 211.10,304.46 212.02,35.00 212.95,303.92 213.88,304.46 214.81,304.46 215.73,35.00 216.66,35.00 217.59,35.00 218.50,304.46 219.43,303.92 220.35,304.46 221.29,303.92 222.23,303.92 223.15,304.46 224.07,304.46 224.99,304.46 225.91,304.46 226.83,304.46 227.75,304.46 228.67,304.46 229.58,282.59 230.50,304.46 231.43,303.92 232.36,304.46 233.29,304.46 234.21,304.46 235.15,303.38 236.07,304.46 236.99,304.46 237.91,303.92 238.83,304.46 239.83,303.92 240.78,304.46 241.69,304.46 242.61,304.46 243.52,304.46 244.45,304.46 245.37,303.38 246.30,304.46 247.23,304.46 248.14,304.46 249.06,303.92 249.99,35.00 250.93,304.46 251.85,303.92 252.77,303.92 253.69,303.92 254.62,35.00 255.56,304.46 256.51,304.46 257.42,35.00 258.35,303.92 259.27,35.00 260.19,35.00 261.12,304.46 262.04,304.46 262.98,35.00 263.90,35.00 264.81,304.46 265.75,304.46 266.67,303.92 267.59,303.92 268.52,304.46 269.45,304.46 270.38,304.46 271.29,303.92 272.21,304.46 273.13,304.46 274.05,303.92 274.97,303.38 275.89,304.46 276.81,35.00 277.73,304.46 278.65,35.00 279.58,35.00 280.50,303.92 281.43,303.92 282.37,304.46 283.29,304.46 284.22,304.46 285.14,303.92 286.07,297.98 286.99,35.00 287.91,304.46 288.84,303.92 289.78,304.46 290.70,303.92 291.63,35.00 292.56,303.92 293.47,304.46 294.40,35.00 295.31,303.92 296.24,304.46 297.17,304.46 298.09,35.00 299.01,303.92 299.94,303.92 300.87,35.00 301.79,303.92 302.71,303.92 303.64,35.00 304.58,303.92 305.50,304.46 306.42,303.92 307.35,304.46 308.28,303.92 309.21,35.00 310.13,304.46 311.05,35.00 312.07,35.00 313.00,303.92 313.93,303.38 314.85,303.38 315.79,303.38 316.71,35.00 317.64,304.46 318.56,304.46 319.48,304.46 320.43,35.00 321.37,304.46 322.28,304.46 323.21,304.46 324.13,35.00 325.05,304.46 325.98,304.46 326.94,293.66 327.86,303.92 328.78,304.46 329.72,303.92 330.72,304.46 331.64,35.00 332.80,304.46 334.36,304.46 335.31,304.46 336.25,304.46 337.17,35.00 338.08,304.46 339.00,304.46 339.94,303.92 340.86,35.00 341.79,304.46 342.75,35.00 343.71,303.38 344.69,304.46 345.62,304.46 346.54,35.00 347.46,35.00 348.40,304.46 349.34,35.00 350.27,304.46 351.19,304.46 352.11,304.46 353.07,35.00 354.00,303.92 354.91,35.00 355.84,304.46 356.78,304.46 357.74,297.98 358.67,304.46 359.59,35.00 360.54,293.12 361.43,35.00 362.34,303.92 363.29,35.00 364.20,304.46 365.14,304.46 366.10,303.92 367.02,304.46 367.94,304.46 368.88,303.92 369.81,303.92 370.74,304.46 371.66,303.92 372.57,35.00 373.50,304.46 374.43,304.46 375.35,304.46 376.45,304.46 377.54,303.92 378.63,304.46 379.70,304.46 380.76,303.38 381.82,303.92 382.92,303.92 383.99,304.46 384.92,35.00 385.83,35.00 386.75,304.46 387.68,304.46 388.60,303.92 389.52,304.46 390.43,303.92 391.35,35.00 392.28,304.46 393.20,304.46 394.12,304.46 395.04,304.46 395.96,293.12 396.88,304.46 397.80,35.00 398.72,303.92 399.64,303.92 400.55,304.46 401.48,304.46 402.41,35.00 403.32,303.92 404.24,304.46 405.16,304.46 406.08,304.46 407.00,35.00 407.93,297.98 408.85,303.92 409.77,303.38 410.69,304.46 411.61,35.00 412.53,302.84 413.46,303.92 414.37,35.00 415.29,35.00 416.20,303.92 417.11,302.84 418.03,304.46 418.95,303.38 419.87,35.00 420.79,304.46 421.71,304.46 422.63,304.46 423.54,303.92 424.45,304.46 425.36,35.00 426.31,304.46 427.31,303.92 428.23,35.00 429.16,303.92 430.08,303.92 430.99,304.46 431.91,304.46 432.82,304.46 433.74,303.92 434.83,304.46 435.91,304.46 436.99,303.92 438.07,304.46 439.16,303.92 440.23,303.92 441.33,304.46 442.45,303.92 443.46,303.92 444.45,303.92 445.37,35.00 446.31,35.00 447.23,35.00 448.14,303.92 449.06,304.46 449.99,304.46 450.91,304.46 451.83,304.46 452.74,304.46 453.67,35.00 454.59,304.46 455.51,303.38 456.45,35.00 457.36,35.00 458.28,303.92 459.09,282.32 460.04,282.05 460.96,304.46 461.91,35.00 462.83,303.38 463.75,304.46 464.68,35.00 465.61,35.00 466.54,35.00 467.47,303.92 468.40,304.46 469.34,304.46 470.25,303.92 471.17,35.00 472.09,303.38 473.00,303.92 473.92,304.46 474.84,303.92 475.77,304.46 476.69,304.46 477.61,304.46 478.53,304.46 479.45,304.46 480.38,303.92 481.30,303.92 482.23,303.92 483.16,304.46 484.08,304.46 485.00,35.00 485.93,35.00 486.86,304.46 487.81,304.46 488.72,304.46 489.64,303.92 490.56,35.00 491.47,303.92 492.39,35.00 493.33,303.92 494.24,304.46 495.16,35.00 496.08,304.46 497.00,35.00 497.92,304.46 498.85,303.92 499.78,304.46 500.70,302.84 501.81,303.92 502.76,303.92 503.71,304.46 504.64,304.46 505.56,303.38 506.50,303.92 507.41,299.06 508.33,35.00 509.26,304.46 510.19,303.92 511.11,304.46 512.04,35.00 512.97,303.92 513.89,303.92 514.84,304.46 515.78,303.92 516.71,35.00 517.63,304.46 518.55,35.00 519.48,303.92 520.39,35.00 521.32,303.38 522.28,304.46 523.21,304.46 524.14,35.00 525.06,304.46 525.98,304.46 526.91,304.46 527.83,303.92 528.75,35.00 529.68,303.38 530.61,304.46 531.53,304.46 532.46,35.00 533.38,304.46 534.30,35.00 535.22,304.46 536.16,304.46 537.09,291.50 538.01,303.92 538.93,304.46 539.85,304.46 540.79,303.38 541.72,303.92 542.83,303.38 543.78,303.92 544.70,35.00 545.62,35.00 546.54,304.46 547.47,303.38 548.39,304.46 549.32,35.00 550.26,303.92 551.18,304.46 552.10,35.00 553.02,303.92 553.95,35.00 554.87,304.46 555.79,304.46 556.72,35.00 557.64,304.46 558.56,304.46 559.48,35.00 560.40,304.46 561.33,304.46 562.25,304.46 563.17,303.92 564.11,35.00 565.04,304.46 565.96,304.46 566.88,35.00 567.81,304.46 568.76,303.38 569.67,35.00 570.60,304.46 571.53,304.46 572.46,303.92 573.37,304.46 574.30,304.46 575.23,304.46 576.18,304.46 577.10,304.46 578.02,304.46 578.93,303.92 579.85,304.46 580.78,303.92 581.70,304.46 582.62,35.00 583.56,304.46 584.49,304.46 585.42,303.92 586.33,35.00 587.26,304.46 588.18,304.46 589.10,304.46 590.02,304.46 590.95,303.92 591.87,304.46 592.80,304.46 593.73,35.00 594.65,304.46 595.58,303.92 596.52,35.00 597.44,35.00 598.37,303.92 599.30,281.24 600.34,304.46 601.35,304.46 602.34,35.00 603.27,303.92 604.24,303.92 605.17,304.46 606.09,304.46 607.01,303.92 607.87,293.12 608.83,303.92 609.76,292.58 610.69,294.20 611.60,293.12 612.53,303.92 613.45,304.46 614.38,303.92 615.30,303.38 616.23,304.46 617.15,304.46 618.08,304.46 619.00,303.92 619.93,35.00 620.87,35.00 621.80,35.00 622.73,35.00 623.66,304.46 624.58,35.00 625.52,304.46 626.45,303.92 627.37,304.46 628.29,303.92 629.22,303.92 630.14,304.46 631.06,303.92 631.99,304.46 632.91,304.46 633.85,35.00 634.76,304.46 635.69,304.46 636.61,35.00 637.54,303.92 638.47,35.00 639.40,303.92 640.32,35.00 641.25,304.46 642.17,35.00 643.10,304.46 644.03,304.46 644.97,303.92 645.89,304.46 646.82,35.00 647.75,303.92 648.67,304.46 649.61,304.46 650.56,304.46 651.48,304.46 652.41,303.92 653.34,302.84 654.26,304.46 655.19,304.46 656.11,304.46 657.04,304.46 657.97,303.92 658.90,304.46 659.83,303.38 660.76,35.00 661.68,35.00 662.62,303.38 663.54,35.00 664.48,304.46 665.41,303.92 666.34,304.46 667.27,303.92 668.20,304.46 669.12,35.00 670.05,35.00 670.98,35.00 671.92,303.92 672.85,303.92 673.79,303.92 674.72,304.46 675.64,303.92 676.56,304.46 677.48,304.46 678.41,304.46 679.34,304.46 680.27,304.46 681.19,304.46 682.12,35.00 683.05,304.46 683.98,35.00 684.91,304.46 685.83,304.46 686.77,304.46 687.69,304.46 688.62,303.92 689.55,292.58 690.47,304.46 691.39,304.46 692.31,303.92 693.24,304.46 694.17,304.46 695.10,304.46 696.03,303.92 696.96,35.00 697.89,304.46 698.82,304.46 699.76,304.46 700.68,303.92 701.61,304.46 702.55,293.66 703.47,292.04 704.40,293.66 705.33,293.12 706.27,294.20 707.20,293.12 708.12,293.12 709.07,292.58 710.00,293.12 710.94,293.39 711.86,293.12 712.79,293.12 713.72,293.12 714.65,293.12 715.59,293.66 716.52,292.58 717.44,292.58 718.37,293.66 719.29,293.12 720.24,292.58 721.16,293.12 722.10,294.20 723.02,293.12 723.95,293.12 724.87,292.58 725.79,294.20 726.71,293.66 727.64,281.51 728.57,271.25 729.50,293.66 730.42,293.66 731.35,293.12 732.28,293.12 733.23,293.66 734.16,293.12 735.08,293.66 736.01,293.66 736.93,293.66 737.86,293.12 738.78,293.66 739.72,293.12 740.64,292.04 741.57,293.12 742.50,293.12 743.43,293.12 744.35,292.58 745.28,293.12 746.22,293.12 747.18,292.58 748.11,292.58 749.04,293.12 749.98,293.12 750.90,293.39 751.84,293.12 752.76,293.66 753.68,293.12 754.60,292.58 755.54,293.66 756.47,292.58 757.40,293.12 758.33,293.66 759.27,294.20 760.24,293.66 761.16,293.66 762.09,293.12 763.02,293.12 763.95,292.04 764.88,293.12 765.81,293.66 766.75,293.12 767.68,294.20 768.62,293.66 769.55,294.20 770.48,293.12 771.41,293.66 772.34,282.05 773.27,293.66 774.20,293.66 775.12,293.66 776.06,293.12 776.99,293.12 777.92,293.12 778.85,293.12 779.78,293.66 780.71,293.66 781.64,293.66 782.57,292.58 783.50,293.66 784.46,294.20 785.39,293.12 786.33,293.12 787.26,294.20 788.21,292.58 789.16,294.20 790.11,293.12 791.05,293.66 792.01,294.20 792.94,294.20 793.87,293.12 794.79,293.66 795.73,293.66 796.66,293.12 797.59,292.58 798.54,293.66 799.47,293.12 800.40,293.12 801.33,283.13 802.25,292.58 803.18,293.66 804.11,293.66 805.04,292.58 805.97,282.05 806.89,293.12 807.81,293.12 808.74,293.12 809.66,292.58 810.58,293.66 811.52,294.20 812.45,293.12 813.37,293.66 814.31,304.46 815.25,303.92 816.17,35.00 817.10,303.92 818.03,304.46 818.96,303.92 819.88,304.46 820.81,304.46 821.74,35.00 822.67,304.46 823.59,303.92 824.51,303.92 825.44,303.92 826.36,304.46 827.29,304.46 828.22,303.38 829.15,304.46 830.08,304.46 831.00,303.92 831.93,304.46 832.86,303.92 833.79,35.00 834.70,304.46 835.62,304.46 836.53,35.00 837.46,304.46 838.39,304.46 839.33,304.46 840.26,303.92 841.18,35.00 842.11,304.46 843.06,304.46 843.99,303.92 844.91,304.46 845.85,35.00 846.78,35.00 847.70,304.46 848.64,304.46 849.57,303.92 850.51,304.46 851.45,303.92 852.37,35.00 853.29,35.00 854.22,35.00 855.14,303.38 856.07,293.12 857.00,293.12 857.91,304.46 858.84,304.46 859.77,258.83 860.70,303.92 861.62,304.46 862.55,35.00 863.47,35.00 864.40,304.46 865.33,303.38 866.27,35.00 867.19,303.92 868.12,304.46 869.05,303.92 869.99,303.92 870.91,304.46 871.83,304.46 872.77,304.46 873.69,304.46 874.62,304.46 875.55,35.00 876.48,297.44 877.41,35.00 878.33,303.92 879.25,35.00 880.22,304.46 881.14,304.46 882.09,304.46 883.03,304.46 883.96,304.46 884.89,303.92 885.82,303.92 886.75,303.92 887.68,35.00 888.60,304.46 889.54,304.46 890.49,303.92 891.42,304.46 892.35,35.00 893.28,304.46 894.20,35.00 895.14,304.46 896.07,302.84 896.99,35.00 897.91,303.92 898.84,304.46 899.77,304.46 900.70,303.92 901.62,304.46 902.56,304.46 903.47,35.00 904.40,303.92 905.33,304.46 906.25,303.38 907.17,304.46 908.12,304.46 909.04,303.92 909.97,304.46 910.89,303.92 911.82,303.92 912.74,304.46 913.68,35.00 914.60,303.92 915.55,304.46 916.47,35.00 917.39,304.46 918.32,304.46 919.25,303.92 920.18,35.00 921.10,35.00 922.04,303.92 922.99,304.46 923.93,35.00 924.88,35.00 925.82,35.00 926.77,303.92 927.73,304.46 928.67,303.92 929.64,303.92 930.58,304.46 931.53,303.92 932.46,35.00 933.38,304.46 934.32,304.46 935.26,304.46 936.18,303.92 937.12,35.00 938.05,304.46 938.98,304.46 939.91,303.38 940.84,35.00 941.76,304.46 942.68,303.92 943.61,304.46 944.54,35.00 945.46,303.92 946.40,304.46 947.33,304.46 948.25,304.46 949.19,293.66 950.13,293.12 951.05,293.12 951.98,293.66 952.91,303.92 953.84,304.46 954.77,304.46 955.70,304.46 956.62,304.46 957.55,303.92 958.48,304.46 959.41,304.46 960.33,304.46 961.27,304.46 962.19,303.92 963.12,35.00 964.12,35.00 965.08,303.92 966.00,302.84 966.93,303.92 967.85,303.38 968.79,304.46 969.73,303.92 970.67,303.92 971.60,304.46 972.52,303.92 973.43,304.46 974.36,304.46 975.28,303.92 976.21,303.92 977.14,304.46 978.07,304.46 979.00,304.46 979.94,303.92 980.87,35.00 981.79,35.00 982.72,304.46 983.65,303.38 984.58,304.46 985.51,304.46 986.43,304.46 987.36,304.46 988.30,35.00 989.23,303.92 990.16,35.00 991.12,35.00 992.06,303.92 992.98,304.46 993.91,303.92 994.84,304.46 995.77,304.46 996.70,304.46 997.64,304.46 998.56,303.92 999.49,303.92 1000.42,304.46 1001.36,35.00 1002.30,303.92 1003.24,303.92 1004.16,303.38 1005.08,304.46 1006.02,35.00 1006.94,304.46 1007.87,304.46 1008.80,304.46 1009.74,303.92 1010.67,303.92 1011.59,303.92 1012.52,304.46 1013.45,304.46 1014.38,304.46 1015.31,304.46 1016.23,304.46 1017.16,304.46 1018.09,303.92 1019.02,304.46 1019.94,304.46 1020.87,35.00 1021.80,304.46 1022.73,304.46 1023.66,304.46 1024.59,304.46 1025.52,35.00 1026.43,303.92 1027.36,303.92 1028.28,303.92 1029.22,35.00 1030.15,303.92 1031.10,303.92 1032.03,35.00 1032.96,304.46 1033.89,248.57 1034.82,259.37 1035.76,269.09 1036.76,293.12 1037.71,282.59 1038.65,270.17 1039.58,282.05 1040.52,35.00 1041.45,304.46 1042.37,304.46 1043.31,303.92 1044.24,304.46 1045.16,304.46 1046.10,304.46 1047.03,303.38 1047.96,304.46 1048.91,304.46 1049.84,304.46 1050.77,304.46 1051.70,304.46 1052.63,304.46 1053.56,303.92 1054.49,303.92 1055.42,35.00 1056.35,303.92 1057.29,304.46 1058.21,303.92 1059.15,35.00 1060.08,35.00 1061.01,35.00 1061.94,303.92 1062.89,304.46 1063.82,304.46 1064.75,35.00 1065.67,35.00 1066.61,35.00 1067.54,35.00 1068.46,35.00 1069.38,304.46 1070.32,304.46 1071.24,304.46 1072.17,304.46 1073.11,304.46 1074.03,303.92 1074.96,35.00 1075.89,35.00 1076.83,304.46 1077.75,304.46 1078.68,304.46 1079.61,303.92 1080.56,304.46 1081.49,35.00 1082.39,304.46 1083.30,303.38 1084.22,304.46 1085.16,304.46 1086.09,303.92 1087.02,304.46 1087.97,304.46 1088.89,303.92 1089.83,303.92 1090.77,304.46 1091.69,303.92 1092.62,303.92 1093.54,304.46 1094.47,304.46 1095.39,35.00 1096.31,303.92 1097.24,303.92 1098.18,304.46 1099.10,35.00 1100.02,304.46 1100.95,303.92 1101.88,293.12 1102.81,304.46 1103.74,304.46 1104.66,35.00 1105.58,286.64 1106.48,259.37 1107.43,248.84 1108.36,35.00 1109.29,35.00 1110.22,303.92 1111.16,302.84 1112.09,304.46 1113.01,304.46 1113.95,303.92 1114.88,304.46 1115.80,35.00 1116.73,304.46 1117.73,303.92 1118.66,304.46 1119.60,303.92 1120.53,304.46 1121.47,304.46 1122.38,35.00 1123.31,303.38 1124.25,304.46 1125.17,304.46 1126.10,304.46 1127.03,302.84 1127.95,298.52 1128.89,35.00 1129.83,303.92 1130.75,304.46 1131.68,303.92 1132.61,35.00 1133.54,304.46 1134.47,304.46 1135.41,304.46 1136.34,304.46 1137.28,303.92 1138.23,304.46 1139.16,304.46 1140.09,304.46 1141.02,304.46 1141.96,303.92 1142.89,303.92 1143.82,304.46 1144.75,35.00 1145.67,303.92 1146.60,303.92 1147.53,303.38 1148.46,303.92 1149.40,303.92 1150.33,303.92 1151.26,35.00 1152.19,304.46 1153.10,304.46 1154.03,304.46 1154.96,303.92 1155.89,304.46 1156.81,304.46 1157.74,304.46 1158.67,304.46 1159.59,35.00 1160.51,304.46 1161.44,304.46 1162.36,35.00 1163.29,35.00 1164.21,303.92 1165.14,304.46 1166.06,304.46 1166.98,303.92 1167.91,304.46 1168.83,304.46 1169.77,35.00 1170.69,304.46 1171.61,303.92 1172.53,35.00 1173.46,304.46 1174.40,303.92 1175.32,35.00 1176.25,304.46 1177.18,304.46 1178.15,35.00 1179.07,303.92 1180.00,35.00"/>
<polyline fill="none" stroke="#d62728" stroke-opacity="0.50" stroke-width="2" points="70.00,302.84 70.92,302.84 71.85,303.92 72.77,303.92 73.70,303.92 74.63,303.38 75.55,303.92 76.48,302.57 77.48,303.38 78.40,302.84 79.31,303.92 80.23,303.38 81.17,302.84 82.09,303.38 83.01,287.18 84.67,303.38 86.11,303.38 87.04,303.38 87.99,303.92 88.91,302.84 89.83,293.12 90.73,303.38 91.67,303.38 92.59,303.38 93.52,303.38 94.45,303.38 95.39,303.38 96.32,303.92 97.24,303.38 98.21,303.92 99.15,303.92 100.07,303.38 101.01,303.38 101.94,303.38 102.86,302.03 103.82,303.38 104.73,303.92 105.66,303.92 106.60,303.38 107.51,303.92 108.43,303.92 109.35,303.92 110.27,302.84 111.20,303.92 112.11,303.38 113.06,303.92 113.99,302.84 114.90,303.92 115.83,302.84 116.76,303.38 117.68,302.84 118.74,303.38 119.66,303.92 120.58,303.38 121.50,303.92 122.42,303.38 123.33,303.38 124.25,303.92 125.18,302.30 126.10,303.92 127.04,303.92 127.96,304.46 128.88,303.92 129.81,303.92 130.74,303.92 131.66,303.38 132.59,289.61 133.50,303.92 134.42,303.38 135.34,302.84 136.25,299.87 137.18,303.92 138.10,303.92 139.02,304.46 139.94,303.92 140.87,302.03 141.78,304.46 142.71,303.38 143.63,303.38 144.54,302.84 145.49,302.57 146.41,303.92 147.33,303.92 148.26,303.92 149.18,303.38 150.11,303.38 151.03,302.84 151.94,303.38 152.86,302.84 153.79,303.92 154.72,303.38 155.64,294.20 156.58,303.38 157.49,303.38 158.41,303.92 159.33,303.92 160.25,302.57 161.17,303.38 162.09,302.84 163.01,302.84 163.94,302.57 164.86,303.92 165.79,303.92 166.71,303.92 167.65,303.92 168.58,302.84 169.50,303.92 170.42,303.92 171.34,302.84 172.26,303.92 173.19,302.84 174.11,302.84 175.04,303.92 175.96,303.92 176.88,303.92 177.81,303.92 178.74,302.57 179.68,303.92 180.60,303.92 181.52,303.38 182.45,303.38 183.37,303.92 184.29,304.46 185.22,303.92 186.22,303.92 187.14,303.38 188.08,303.92 189.00,303.92 189.91,304.46 190.83,303.38 191.74,302.84 192.66,303.92 193.58,302.84 194.50,303.92 195.42,303.38 196.34,303.38 197.26,304.46 198.18,303.38 199.12,303.92 200.04,302.57 200.96,302.03 201.88,303.92 202.80,303.92 203.72,303.38 204.65,303.38 205.58,303.92 206.50,303.38 207.43,303.38 208.35,302.84 209.26,302.57 210.18,303.38 211.10,302.03 212.02,302.03 212.95,302.03 213.88,302.84 214.81,302.03 215.73,302.84 216.66,302.84 217.59,302.57 218.50,302.03 219.43,303.92 220.35,303.38 221.29,303.92 222.23,303.92 223.15,303.38 224.07,302.84 224.99,303.92 225.91,303.92 226.83,303.92 227.75,296.90 228.67,303.38 229.58,302.84 230.50,303.92 231.43,303.92 232.36,302.84 233.29,303.92 234.21,302.84 235.15,303.92 236.07,303.92 236.99,303.38 237.91,303.92 238.83,303.92 239.83,299.33 240.78,303.38 241.69,303.92 242.61,303.38 243.52,303.92 244.45,304.46 245.37,303.92 246.30,303.38 247.23,303.92 248.14,302.84 249.06,303.38 249.99,303.38 250.93,303.92 251.85,303.92 252.77,303.92 253.69,302.84 254.62,303.92 255.56,303.38 256.51,303.92 257.42,303.92 258.35,303.38 259.27,302.84 260.19,303.38 261.12,303.38 262.04,303.92 262.98,303.92 263.90,302.84 264.81,303.92 265.75,303.38 266.67,303.92 267.59,303.92 268.52,303.38 269.45,303.92 270.38,302.30 271.29,303.92 272.21,303.38 273.13,303.92 274.05,302.84 274.97,303.92 275.89,302.84 276.81,303.92 277.73,303.92 278.65,303.92 279.58,303.92 280.50,302.84 281.43,303.92 282.37,303.92 283.29,299.87 284.22,303.92 285.14,302.84 286.07,302.84 286.99,303.92 287.91,303.92 288.84,303.92 289.78,304.46 290.70,304.46 291.63,303.38 292.56,303.38 293.47,303.38 294.40,303.92 295.31,303.92 296.24,302.84 297.17,303.92 298.09,303.92 299.01,303.38 299.94,303.38 300.87,303.92 301.79,302.57 302.71,303.92 303.64,302.84 304.58,303.92 305.50,303.92 306.42,303.38 307.35,303.92 308.28,304.46 309.21,303.38 310.13,302.84 311.05,303.38 312.07,303.92 313.00,303.38 313.93,303.92 314.85,303.92 315.79,303.38 316.71,303.38 317.64,303.38 318.56,303.38 319.48,303.92 320.43,302.84 321.37,303.92 322.28,303.92 323.21,303.92 324.13,303.92 325.05,302.84 325.98,303.38 326.94,303.38 327.86,303.92 328.78,302.84 329.72,303.92 330.72,303.92 331.64,293.39 332.80,293.12 334.36,303.92 335.31,302.84 336.25,292.58 337.17,302.03 338.08,302.84 339.00,304.46 339.94,303.92 340.86,303.92 341.79,303.92 342.75,304.46 343.71,303.92 344.69,303.92 345.62,302.84 346.54,303.38 347.46,303.38 348.40,303.92 349.34,303.38 350.27,302.84 351.19,294.74 352.11,303.38 353.07,303.92 354.00,303.92 354.91,303.92 355.84,303.92 356.78,303.38 357.74,303.92 358.67,303.38 359.59,303.92 360.54,303.38 361.43,302.57 362.34,303.92 363.29,303.92 364.20,303.92 365.14,304.46 366.10,303.38 367.02,303.38 367.94,303.38 368.88,304.46 369.81,303.92 370.74,303.92 371.66,303.38 372.57,303.92 373.50,303.92 374.43,303.92 375.35,303.92 376.45,300.41 377.54,303.92 378.63,303.38 379.70,303.92 380.76,303.92 381.82,303.92 382.92,302.84 383.99,303.92 384.92,303.92 385.83,303.92 386.75,303.38 387.68,302.84 388.60,302.84 389.52,303.92 390.43,303.92 391.35,303.38 392.28,304.46 393.20,304.46 394.12,303.92 395.04,292.58 395.96,302.84 396.88,304.46 397.80,303.38 398.72,303.92 399.64,303.38 400.55,303.38 401.48,303.38 402.41,303.38 403.32,303.38 404.24,304.46 405.16,303.38 406.08,304.46 407.00,303.92 407.93,303.38 408.85,303.92 409.77,303.38 410.69,295.82 411.61,302.84 412.53,303.92 413.46,302.84 414.37,299.87 415.29,303.92 416.20,303.38 417.11,302.84 418.03,303.92 418.95,303.92 419.87,303.38 420.79,303.92 421.71,303.38 422.63,303.92 423.54,303.38 424.45,304.46 425.36,303.92 426.31,303.92 427.31,303.92 428.23,303.92 429.16,303.92 430.08,303.38 430.99,302.57 431.91,303.92 432.82,303.92 433.74,303.92 434.83,302.84 435.91,302.84 436.99,303.92 438.07,302.30 439.16,303.92 440.23,303.92 441.33,303.92 442.45,303.92 443.46,303.92 444.45,303.92 445.37,303.38 446.31,303.38 447.23,303.38 448.14,303.38 449.06,303.92 449.99,303.92 450.91,292.85 451.83,303.92 452.74,302.57 453.67,303.38 454.59,303.92 455.51,303.92 456.45,303.38 457.36,303.92 458.28,302.30 459.09,303.92 460.04,303.92 460.96,304.46 461.91,303.38 462.83,303.92 463.75,303.92 464.68,303.38 465.61,303.92 466.54,303.92 467.47,303.92 468.40,304.46 469.34,303.92 470.25,303.38 471.17,303.92 472.09,303.92 473.00,303.92 473.92,302.84 474.84,303.38 475.77,303.92 476.69,303.92 477.61,303.38 478.53,303.92 479.45,303.38 480.38,303.38 481.30,303.92 482.23,303.38 483.16,303.92 484.08,303.92 485.00,303.92 485.93,303.92 486.86,303.92 487.81,303.92 488.72,303.92 489.64,302.84 490.56,302.84 491.47,303.92 492.39,304.46 493.33,302.03 494.24,303.38 495.16,303.92 496.08,303.92 497.00,303.92 497.92,302.84 498.85,303.38 499.78,303.38 500.70,303.38 501.81,303.92 502.76,303.92 503.71,303.38 504.64,302.57 505.56,303.92 506.50,302.84 507.41,303.92 508.33,303.92 509.26,303.92 510.19,304.46 511.11,302.57 512.04,302.57 512.97,303.38 513.89,303.92 514.84,303.92 515.78,303.38 516.71,303.38 517.63,302.84 518.55,303.92 519.48,300.95 520.39,303.92 521.32,302.84 522.28,303.38 523.21,303.92 524.14,303.38 525.06,302.84 525.98,303.92 526.91,303.38 527.83,303.92 528.75,303.38 529.68,303.92 530.61,303.92 531.53,303.92 532.46,303.38 533.38,303.38 534.30,303.92 535.22,303.92 536.16,303.92 537.09,303.92 538.01,303.92 538.93,300.95 539.85,290.69 540.79,303.92 541.72,302.84 542.83,303.92 543.78,303.38 544.70,303.38 545.62,303.92 546.54,304.46 547.47,303.92 548.39,303.92 549.32,303.38 550.26,303.38 551.18,302.84 552.10,304.46 553.02,303.92 553.95,303.38 554.87,304.46 555.79,304.46 556.72,303.38 557.64,303.38 558.56,303.92 559.48,303.38 560.40,304.46 561.33,303.38 562.25,302.84 563.17,304.46 564.11,303.92 565.04,303.92 565.96,303.38 566.88,303.38 567.81,303.92 568.76,303.92 569.67,300.95 570.60,303.92 571.53,302.84 572.46,303.92 573.37,303.38 574.30,303.38 575.23,302.03 576.18,302.03 577.10,303.92 578.02,302.84 578.93,302.84 579.85,302.57 580.78,303.38 581.70,303.38 582.62,303.38 583.56,303.38 584.49,291.77 585.42,274.49 586.33,302.84 587.26,292.85 588.18,302.84 589.10,303.38 590.02,303.92 590.95,303.92 591.87,303.92 592.80,303.38 593.73,303.38 594.65,304.46 595.58,302.84 596.52,303.92 597.44,302.57 598.37,303.92 599.30,303.92 600.34,304.46 601.35,304.46 602.34,303.92 603.27,303.92 604.24,303.92 605.17,303.38 606.09,303.92 607.01,303.38 607.87,303.38 608.83,303.38 609.76,303.92 610.69,303.92 611.60,303.38 612.53,303.38 613.45,303.38 614.38,303.92 615.30,303.38 616.23,303.92 617.15,303.92 618.08,303.92 619.00,303.92 619.93,303.38 620.87,303.92 621.80,303.92 622.73,302.84 623.66,303.38 624.58,303.38 625.52,302.57 626.45,303.38 627.37,302.57 628.29,302.57 629.22,301.49 630.14,303.92 631.06,303.38 631.99,303.92 632.91,302.84 633.85,303.38 634.76,303.92 635.69,303.38 636.61,303.38 637.54,303.38 638.47,303.92 639.40,303.92 640.32,304.46 641.25,303.92 642.17,303.92 643.10,302.57 644.03,303.38 644.97,303.38 645.89,303.92 646.82,302.84 647.75,302.84 648.67,303.38 649.61,303.38 650.56,303.92 651.48,303.38 652.41,303.92 653.34,303.92 654.26,300.41 655.19,303.92 656.11,303.38 657.04,303.92 657.97,303.92 658.90,303.92 659.83,303.38 660.76,304.46 661.68,303.38 662.62,302.84 663.54,303.92 664.48,303.92 665.41,303.38 666.34,303.92 667.27,303.92 668.20,303.92 669.12,303.92 670.05,303.92 670.98,303.38 671.92,302.84 672.85,303.92 673.79,303.38 674.72,303.92 675.64,303.92 676.56,303.38 677.48,303.92 678.41,303.92 679.34,303.38 680.27,303.92 681.19,303.38 682.12,302.84 683.05,303.38 683.98,302.03 684.91,292.85 685.83,303.92 686.77,302.57 687.69,303.38 688.62,302.84 689.55,303.38 690.47,302.84 691.39,291.50 692.31,303.38 693.24,303.92 694.17,303.92 695.10,303.92 696.03,303.92 696.96,303.92 697.89,303.92 698.82,303.92 699.76,303.92 700.68,303.92 701.61,297.71 702.55,303.38 703.47,303.38 704.40,303.92 705.33,303.92 706.27,303.38 707.20,304.46 708.12,304.46 709.07,303.92 710.00,303.92 710.94,303.38 711.86,303.92 712.79,304.46 713.72,303.92 714.65,303.38 715.59,302.84 716.52,302.84 717.44,303.38 718.37,303.92 719.29,302.03 720.24,303.38 721.16,303.92 722.10,302.84 723.02,303.92 723.95,304.46 724.87,303.92 725.79,304.46 726.71,303.38 727.64,303.92 728.57,303.92 729.50,303.92 730.42,303.92 731.35,302.84 732.28,302.84 733.23,303.38 734.16,303.92 735.08,302.84 736.01,292.31 736.93,303.92 737.86,303.38 738.78,303.38 739.72,303.38 740.64,303.92 741.57,303.38 742.50,303.92 743.43,303.92 744.35,303.92 745.28,303.92 746.22,303.92 747.18,302.84 748.11,303.38 749.04,303.92 749.98,303.92 750.90,303.92 751.84,302.84 752.76,303.92 753.68,303.92 754.60,303.92 755.54,303.92 756.47,303.38 757.40,303.92 758.33,303.38 759.27,303.92 760.24,303.92 761.16,303.38 762.09,303.92 763.02,303.92 763.95,301.49 764.88,303.92 765.81,303.92 766.75,303.92 767.68,303.38 768.62,302.84 769.55,303.92 770.48,304.46 771.41,303.38 772.34,303.38 773.27,303.92 774.20,303.92 775.12,303.92 776.06,303.92 776.99,303.38 777.92,303.92 778.85,302.84 779.78,303.92 780.71,303.38 781.64,303.92 782.57,303.92 783.50,303.92 784.46,304.46 785.39,303.38 786.33,303.92 787.26,303.92 788.21,301.49 789.16,302.03 790.11,303.92 791.05,303.38 792.01,302.57 792.94,300.41 793.87,303.38 794.79,302.57 795.73,303.92 796.66,304.46 797.59,303.92 798.54,303.92 799.47,303.38 800.40,303.38 801.33,303.92 802.25,303.92 803.18,303.38 804.11,302.84 805.04,303.92 805.97,304.46 806.89,303.38 807.81,303.38 808.74,302.84 809.66,302.84 810.58,303.92 811.52,303.92 812.45,303.92 813.37,303.38 814.31,303.92 815.25,303.38 816.17,303.92 817.10,303.92 818.03,303.92 818.96,303.92 819.88,303.92 820.81,303.92 821.74,303.92 822.67,303.38 823.59,303.92 824.51,301.49 825.44,302.57 826.36,303.92 827.29,302.57 828.22,303.92 829.15,303.38 830.08,302.84 831.00,303.92 831.93,302.84 832.86,292.58 833.79,290.69 834.70,302.84 835.62,291.50 836.53,302.57 837.46,303.38 838.39,303.92 839.33,303.92 840.26,304.46 841.18,303.92 842.11,303.38 843.06,303.38 843.99,303.92 844.91,303.38 845.85,303.92 846.78,303.38 847.70,303.92 848.64,303.92 849.57,294.20 850.51,303.92 851.45,303.92 852.37,303.92 853.29,303.38 854.22,303.38 855.14,302.57 856.07,303.92 857.00,303.38 857.91,303.92 858.84,304.46 859.77,302.57 860.70,303.92 861.62,302.84 862.55,303.92 863.47,303.92 864.40,302.84 865.33,303.38 866.27,303.38 867.19,303.92 868.12,302.84 869.05,303.38 869.99,303.38 870.91,303.92 871.83,303.92 872.77,303.92 873.69,303.38 874.62,303.92 875.55,303.92 876.48,303.38 877.41,303.38 878.33,303.92 879.25,303.92 880.22,303.38 881.14,303.38 882.09,303.38 883.03,303.38 883.96,303.92 884.89,303.92 885.82,303.92 886.75,303.92 887.68,295.82 888.60,303.38 889.54,303.38 890.49,303.38 891.42,303.92 892.35,303.38 893.28,303.38 894.20,302.84 895.14,303.38 896.07,302.03 896.99,303.92 897.91,303.92 898.84,303.92 899.77,302.03 900.70,303.92 901.62,297.44 902.56,303.38 903.47,303.92 904.40,303.92 905.33,303.38 906.25,303.92 907.17,303.92 908.12,303.92 909.04,303.92 909.97,303.38 910.89,303.92 911.82,300.41 912.74,303.38 913.68,303.38 914.60,303.92 915.55,300.41 916.47,303.38 917.39,303.92 918.32,303.38 919.25,303.92 920.18,303.92 921.10,303.92 922.04,303.92 922.99,302.57 923.93,303.38 924.88,303.92 925.82,303.92 926.77,302.30 927.73,303.92 928.67,303.92 929.64,304.46 930.58,303.92 931.53,302.03 932.46,303.92 933.38,303.92 934.32,302.84 935.26,303.92 936.18,303.92 937.12,303.38 938.05,303.38 938.98,300.95 939.91,303.38 940.84,303.38 941.76,303.38 942.68,292.31 943.61,303.92 944.54,303.38 945.46,302.84 946.40,303.92 947.33,303.92 948.25,303.92 949.19,303.92 950.13,303.92 951.05,303.92 951.98,303.38 952.91,303.38 953.84,303.38 954.77,303.92 955.70,303.92 956.62,292.31 957.55,303.92 958.48,303.92 959.41,303.92 960.33,303.38 961.27,303.92 962.19,302.84 963.12,303.38 964.12,303.92 965.08,303.92 966.00,304.46 966.93,302.84 967.85,303.92 968.79,303.92 969.73,302.84 970.67,303.38 971.60,303.92 972.52,303.92 973.43,303.38 974.36,303.38 975.28,303.92 976.21,303.92 977.14,302.84 978.07,303.92 979.00,302.84 979.94,303.92 980.87,302.84 981.79,303.92 982.72,302.84 983.65,303.92 984.58,302.84 985.51,303.92 986.43,303.92 987.36,303.92 988.30,303.38 989.23,303.38 990.16,303.92 991.12,302.84 992.06,303.38 992.98,303.38 993.91,304.46 994.84,303.38 995.77,303.38 996.70,303.92 997.64,303.38 998.56,302.84 999.49,302.30 1000.42,303.92 1001.36,303.38 1002.30,303.38 1003.24,303.92 1004.16,302.03 1005.08,303.38 1006.02,303.38 1006.94,303.38 1007.87,303.38 1008.80,303.92 1009.74,300.95 1010.67,302.84 1011.59,302.84 1012.52,303.92 1013.45,303.38 1014.38,303.92 1015.31,303.92 1016.23,302.84 1017.16,303.92 1018.09,303.92 1019.02,303.92 1019.94,303.92 1020.87,302.84 1021.80,303.38 1022.73,303.38 1023.66,304.46 1024.59,303.38 1025.52,302.84 1026.43,303.92 1027.36,303.92 1028.28,301.49 1029.22,302.84 1030.15,303.38 1031.10,302.84 1032.03,303.92 1032.96,303.92 1033.89,302.84 1034.82,303.92 1035.76,301.49 1036.76,302.57 1037.71,303.38 1038.65,303.92 1039.58,302.84 1040.52,303.92 1041.45,300.95 1042.37,303.38 1043.31,303.38 1044.24,302.84 1045.16,303.38 1046.10,303.38 1047.03,302.84 1047.96,303.38 1048.91,303.92 1049.84,292.85 1050.77,303.38 1051.70,303.92 1052.63,302.84 1053.56,303.92 1054.49,303.92 1055.42,303.38 1056.35,303.38 1057.29,303.38 1058.21,303.92 1059.15,302.57 1060.08,303.38 1061.01,303.38 1061.94,303.92 1062.89,303.38 1063.82,303.92 1064.75,303.92 1065.67,302.84 1066.61,303.92 1067.54,303.38 1068.46,303.92 1069.38,304.46 1070.32,303.38 1071.24,303.92 1072.17,303.92 1073.11,302.84 1074.03,303.92 1074.96,303.92 1075.89,303.92 1076.83,303.38 1077.75,303.38 1078.68,303.92 1079.61,303.92 1080.56,303.38 1081.49,292.58 1082.39,293.12 1083.30,302.84 1084.22,302.30 1085.16,303.92 1086.09,299.87 1087.02,303.92 1087.97,302.84 1088.89,301.49 1089.83,303.92 1090.77,303.38 1091.69,303.38 1092.62,303.92 1093.54,303.38 1094.47,302.84 1095.39,303.92 1096.31,303.92 1097.24,302.84 1098.18,303.92 1099.10,303.38 1100.02,302.84 1100.95,302.57 1101.88,303.38 1102.81,302.57 1103.74,302.57 1104.66,303.38 1105.58,302.30 1106.48,303.92 1107.43,303.92 1108.36,303.38 1109.29,303.92 1110.22,303.38 1111.16,303.38 1112.09,303.38 1113.01,303.38 1113.95,303.92 1114.88,303.92 1115.80,303.92 1116.73,303.92 1117.73,302.84 1118.66,302.03 1119.60,303.38 1120.53,303.92 1121.47,303.38 1122.38,303.92 1123.31,303.38 1124.25,303.92 1125.17,302.84 1126.10,303.92 1127.03,303.92 1127.95,304.46 1128.89,303.92 1129.83,303.38 1130.75,302.57 1131.68,303.38 1132.61,302.84 1133.54,304.46 1134.47,303.92 1135.41,303.38 1136.34,302.84 1137.28,301.49 1138.23,303.38 1139.16,303.92 1140.09,303.92 1141.02,303.92 1141.96,302.03 1142.89,303.92 1143.82,303.38 1144.75,303.92 1145.67,303.38 1146.60,303.92 1147.53,303.92 1148.46,276.92 1149.40,304.46 1150.33,303.38 1151.26,303.38 1152.19,303.38 1153.10,303.92 1154.03,303.38 1154.96,301.49 1155.89,304.46 1156.81,303.92 1157.74,303.92 1158.67,303.38 1159.59,303.38 1160.51,303.92 1161.44,303.38 1162.36,302.84 1163.29,302.03 1164.21,302.84 1165.14,303.38 1166.06,303.38 1166.98,303.38 1167.91,303.92 1168.83,303.92 1169.77,304.46 1170.69,303.92 1171.61,303.38 1172.53,303.38 1173.46,303.92 1174.40,303.38 1175.32,303.92 1176.25,303.92 1177.18,304.46 1178.15,303.38 1179.07,303.92 1180.00,302.57"/>
<rect x="70" y="332" width="12" height="12" fill="#d62728" fill-opacity="0.95"/>
<text x="88" y="342" font-size="11" fill="#333" font-family="Arial, Helvetica, sans-serif">nsc1.utdallas.edu</text>
<rect x="350" y="332" width="12" height="12" fill="#d62728" fill-opacity="0.80"/>
<text x="368" y="342" font-size="11" fill="#333" font-family="Arial, Helvetica, sans-serif">nsc2.utdallas.edu</text>
<rect x="630" y="332" width="12" height="12" fill="#d62728" fill-opacity="0.65"/>
<text x="648" y="342" font-size="11" fill="#333" font-family="Arial, Helvetica, sans-serif">nsc3.utdallas.edu</text>
<rect x="910" y="332" width="12" height="12" fill="#d62728" fill-opacity="0.50"/>
<text x="928" y="342" font-size="11" fill="#333" font-family="Arial, Helvetica, sans-serif">nsc4.utdallas.edu</text>
</svg>