<?xml version="1.0" encoding="UTF-8"?>
<svg xmlns="http://www.w3.org/2000/svg" width="1200" height="360" viewBox="0 0 1200 360" role="img" aria-label="CPU Utilization (%)">
<rect width="100%" height="100%" fill="#ffffff"/>
<text x="600.0" y="22" text-anchor="middle" font-size="16" font-family="Arial, Helvetica, sans-serif" font-weight="bold">CPU Utilization (%)</text>
<line x1="70" y1="35.00" x2="1180" y2="35.00" stroke="#e3e3e3" stroke-width="1"/>
<text x="62" y="39.00" text-anchor="end" font-size="11" fill="#444" font-family="Arial, Helvetica, sans-serif">100</text>
<line x1="70" y1="89.00" x2="1180" y2="89.00" stroke="#e3e3e3" stroke-width="1"/>
<text x="62" y="93.00" text-anchor="end" font-size="11" fill="#444" font-family="Arial, Helvetica, sans-serif">80</text>
<line x1="70" y1="143.00" x2="1180" y2="143.00" stroke="#e3e3e3" stroke-width="1"/>
<text x="62" y="147.00" text-anchor="end" font-size="11" fill="#444" font-family="Arial, Helvetica, sans-serif">60</text>
<line x1="70" y1="197.00" x2="1180" y2="197.00" stroke="#e3e3e3" stroke-width="1"/>
<text x="62" y="201.00" text-anchor="end" font-size="11" fill="#444" font-family="Arial, Helvetica, sans-serif">40</text>
<line x1="70" y1="251.00" x2="1180" y2="251.00" stroke="#e3e3e3" stroke-width="1"/>
<text x="62" y="255.00" text-anchor="end" font-size="11" fill="#444" font-family="Arial, Helvetica, sans-serif">20</text>
<line x1="70" y1="305.00" x2="1180" y2="305.00" stroke="#e3e3e3" stroke-width="1"/>
<text x="62" y="309.00" text-anchor="end" font-size="11" fill="#444" font-family="Arial, Helvetica, sans-serif">0</text>
<line x1="70" y1="35" x2="70" y2="305" stroke="#999"/>
<line x1="70" y1="305" x2="1180" y2="305" stroke="#999"/>
<text x="70.00" y="323" text-anchor="middle" font-size="10" fill="#444" font-family="Arial, Helvetica, sans-serif">2026-02-11 16:38</text>
<text x="347.50" y="323" text-anchor="middle" font-size="10" fill="#444" font-family="Arial, Helvetica, sans-serif">2026-02-12 20:43</text>
<text x="625.00" y="323" text-anchor="middle" font-size="10" fill="#444" font-family="Arial, Helvetica, sans-serif">2026-02-14 00:48</text>
<text x="902.50" y="323" text-anchor="middle" font-size="10" fill="#444" font-family="Arial, Helvetica, sans-serif">2026-02-15 04:53</text>
<text x="1180.00" y="323" text-anchor="middle" font-size="10" fill="#444" font-family="Arial, Helvetica, sans-serif">2026-02-16 08:58</text>
<polyline fill="none" stroke="#d62728" stroke-opacity="0.95" stroke-width="2" points="70.89,304.46 71.78,298.79 72.66,296.90 73.55,303.92 74.44,304.73 75.32,304.46 76.21,303.92 77.17,304.73 78.05,303.92 78.93,304.46 79.81,303.92 80.71,304.46 81.60,304.46 82.48,303.92 84.07,304.46 85.45,303.92 86.34,304.46 87.25,303.92 88.13,300.95 89.02,304.73 89.88,278.27 90.78,303.92 91.66,304.46 92.55,294.74 93.45,304.46 94.35,303.92 95.24,301.49 96.13,303.92 97.06,295.28 97.95,294.20 98.84,303.65 99.75,304.46 100.63,304.46 101.52,303.92 102.43,303.65 103.31,302.30 104.20,303.92 105.10,304.46 105.98,303.92 106.86,304.73 107.74,304.73 108.62,304.46 109.51,303.38 110.39,304.46 111.30,303.92 112.19,303.38 113.07,304.46 113.95,297.71 114.85,297.44 115.73,48.23 116.74,303.92 117.63,303.92 118.51,304.46 119.39,303.65 120.27,303.65 121.15,304.46 122.03,304.46 122.92,303.92 123.81,304.46 124.71,303.92 125.59,304.46 126.47,304.46 127.36,299.60 128.26,303.65 129.14,303.92 130.03,304.73 130.91,303.92 131.78,304.73 132.67,304.46 133.54,304.46 134.43,304.46 135.31,303.92 136.19,304.73 137.08,303.92 137.97,304.46 138.84,304.73 139.74,303.38 140.61,303.38 141.49,303.65 142.40,304.46 143.29,303.65 144.17,304.73 145.06,304.46 145.94,304.46 146.83,304.73 147.72,303.92 148.59,303.92 149.47,304.46 150.36,304.73 151.25,299.60 152.14,303.65 153.03,304.46 153.91,304.73 154.79,303.65 155.68,303.92 156.56,304.46 157.44,304.46 158.32,303.92 159.20,303.92 160.09,303.92 160.98,304.46 161.87,303.92 162.75,303.92 163.65,298.79 164.54,303.65 165.43,304.46 166.31,304.73 167.19,304.73 168.07,304.46 168.97,304.46 169.85,304.46 170.74,304.46 171.62,302.84 172.51,304.46 173.40,304.46 174.29,304.46 175.19,304.46 176.07,304.46 176.96,304.46 177.85,303.65 178.73,304.73 179.61,303.38 180.51,304.46 181.47,304.46 182.35,304.73 183.24,303.92 184.13,303.92 185.01,304.46 185.88,299.87 186.75,304.46 187.64,304.73 188.52,295.01 189.41,304.46 190.29,303.92 191.17,303.92 192.06,303.92 192.94,304.46 193.84,303.65 194.72,304.46 195.60,304.46 196.48,304.46 197.37,303.92 198.25,303.92 199.14,303.92 200.03,304.73 200.92,304.46 201.80,304.46 202.69,303.92 203.56,304.46 204.45,303.65 205.33,303.92 206.21,303.65 207.10,304.73 208.00,304.46 208.88,304.46 209.77,304.46 210.66,303.11 211.55,303.38 212.43,304.46 213.32,304.46 214.20,304.46 215.10,303.65 216.00,303.92 216.88,304.46 217.77,297.71 218.65,294.20 219.53,303.92 220.41,304.46 221.30,303.65 222.18,297.71 223.05,304.46 223.93,303.92 224.83,304.46 225.72,304.46 226.60,303.92 227.49,303.38 228.39,304.73 229.28,303.92 230.16,303.38 231.04,303.92 231.92,304.46 232.88,304.46 233.79,303.92 234.67,304.73 235.55,304.46 236.42,304.46 237.31,304.73 238.19,304.46 239.08,304.73 239.97,35.00 240.85,303.65 241.74,303.11 242.62,297.17 243.53,304.46 244.41,304.46 245.29,304.46 246.17,303.92 247.07,303.65 247.97,304.46 248.88,303.11 249.75,304.73 250.64,304.46 251.53,303.92 252.41,304.73 253.30,304.46 254.18,303.92 255.08,304.73 255.96,304.46 256.84,304.46 257.74,304.46 258.62,303.92 259.51,303.65 260.39,304.46 261.29,303.65 262.18,304.46 263.06,301.76 263.93,302.03 264.81,304.46 265.70,304.46 266.59,304.46 267.47,35.00 268.35,303.65 269.23,303.92 270.11,304.46 271.00,304.46 271.89,303.65 272.78,304.46 273.68,304.73 274.56,304.46 275.45,304.73 276.34,35.00 277.22,304.73 278.11,303.65 278.99,304.46 279.88,303.65 280.79,304.73 281.67,300.68 282.56,303.65 283.45,303.92 284.33,304.46 285.22,304.46 286.09,304.46 286.98,304.46 287.87,304.73 288.76,304.73 289.64,304.73 290.53,303.65 291.42,303.92 292.31,303.92 293.19,304.73 294.08,35.00 294.98,304.46 295.86,303.92 296.74,304.73 297.64,303.92 298.53,304.73 299.42,303.92 300.30,304.46 301.19,303.92 302.17,304.73 303.06,304.46 303.95,303.65 304.83,304.46 305.73,304.46 306.62,303.92 307.50,304.46 308.39,303.65 309.27,304.73 310.19,295.28 311.08,297.17 311.96,304.46 312.85,304.46 313.73,304.46 314.62,304.73 315.51,304.46 316.42,303.65 317.31,304.46 318.19,303.92 319.09,304.73 320.05,304.73 320.93,304.73 322.05,303.65 323.55,304.46 324.45,303.92 325.36,303.92 326.24,304.73 327.11,304.46 327.99,303.92 328.89,303.65 329.78,304.46 330.67,304.73 331.59,303.92 332.51,35.00 333.45,303.65 334.34,304.46 335.22,304.73 336.11,303.92 337.01,303.92 337.91,303.65 338.80,304.46 339.68,303.92 340.57,304.46 341.49,304.46 342.38,304.46 343.25,304.46 344.14,304.46 345.04,303.92 345.96,304.46 346.86,303.92 347.74,303.92 348.65,303.65 349.50,303.92 350.38,303.65 351.29,303.92 352.17,303.92 353.07,303.92 353.98,303.11 354.87,303.92 355.75,303.92 356.65,304.46 357.55,304.46 358.43,303.65 359.32,304.73 360.19,299.06 361.09,304.73 361.98,304.46 362.85,48.23 363.91,48.50 364.95,48.77 366.00,48.50 367.03,48.23 368.04,48.50 369.06,48.50 370.11,48.77 371.14,304.46 372.03,304.46 372.91,304.46 373.79,303.92 374.68,304.46 375.56,304.46 376.44,303.92 377.32,304.19 378.20,303.65 379.09,304.73 379.97,303.92 380.86,303.92 381.74,304.46 382.62,304.73 383.50,304.73 384.38,304.46 385.27,304.46 386.15,304.46 387.03,303.92 387.92,304.46 388.81,304.73 389.68,303.65 390.56,304.46 391.44,35.00 392.33,304.46 393.21,304.46 394.10,304.73 394.98,304.46 395.87,304.73 396.75,35.00 397.63,304.46 398.52,304.46 399.40,304.73 400.28,303.92 401.16,303.92 402.04,303.92 402.91,303.38 403.79,304.73 404.67,303.65 405.55,304.46 406.43,303.92 407.31,304.46 408.20,304.73 409.07,303.92 409.95,303.38 410.82,304.73 411.73,303.65 412.69,304.73 413.57,304.73 414.46,304.46 415.34,303.92 416.22,303.65 417.10,297.44 417.98,297.71 418.86,48.50 419.90,48.50 420.94,48.50 421.97,48.23 423.01,48.50 424.05,48.23 425.08,48.50 426.14,48.77 427.21,295.82 428.18,297.17 429.13,304.73 430.01,303.92 430.91,303.92 431.80,304.73 432.67,303.92 433.55,304.46 434.44,304.46 435.32,304.46 436.20,304.46 437.08,304.46 437.97,304.73 438.85,303.11 439.74,304.73 440.63,303.92 441.51,304.46 442.40,304.73 443.17,304.46 444.08,303.92 444.97,304.73 445.87,304.73 446.76,304.73 447.64,303.92 448.53,35.00 449.42,304.73 450.31,304.73 451.20,304.46 452.09,304.73 453.00,303.65 453.88,304.46 454.75,304.73 455.64,304.73 456.51,304.73 457.39,35.00 458.27,303.92 459.17,303.92 460.05,303.92 460.93,303.65 461.82,304.46 462.70,304.46 463.59,303.92 464.47,304.46 465.36,304.46 466.25,304.73 467.14,303.92 468.02,301.22 468.91,304.46 469.80,304.46 470.71,304.46 471.59,303.65 472.47,304.46 473.35,304.73 474.23,304.46 475.11,300.68 476.00,303.92 476.89,304.73 477.76,304.46 478.65,304.73 479.53,303.38 480.41,303.92 481.30,304.73 482.19,304.73 483.08,303.92 484.14,303.92 485.05,303.92 485.96,303.65 486.85,304.46 487.74,302.84 488.64,304.46 489.51,304.46 490.39,303.92 491.29,303.92 492.18,303.11 493.06,304.73 493.95,304.46 494.84,304.46 495.72,304.46 496.64,304.73 497.54,304.73 498.43,304.46 499.31,304.73 500.20,304.73 501.08,302.57 501.96,302.84 502.85,301.22 503.77,303.92 504.66,304.46 505.55,304.46 506.44,304.46 507.32,303.92 508.21,304.73 509.10,304.46 509.98,304.46 510.87,303.92 511.76,304.46 512.65,304.46 513.54,304.46 514.42,297.44 515.30,303.92 516.19,304.46 517.09,304.46 517.98,300.68 518.86,303.92 519.74,289.07 520.62,303.65 521.52,302.03 522.41,302.84 523.48,302.84 524.39,304.46 525.27,304.46 526.16,303.92 527.04,304.73 527.93,303.92 528.82,303.92 529.71,303.65 530.61,304.46 531.49,303.92 532.38,304.73 533.26,304.46 534.14,304.46 535.03,303.92 535.91,304.73 536.80,304.46 537.68,304.73 538.57,304.46 539.45,304.73 540.33,304.73 541.23,303.92 542.11,304.46 542.99,304.73 543.89,304.46 544.78,304.46 545.67,304.73 546.55,304.46 547.44,303.38 548.35,303.92 549.23,304.73 550.12,304.73 551.01,303.92 551.90,303.92 552.78,304.46 553.67,303.92 554.56,303.92 555.46,304.73 556.35,303.92 557.23,304.46 558.11,303.92 558.99,304.46 559.88,304.73 560.76,303.92 561.65,304.73 562.54,304.46 563.44,304.73 564.33,298.79 565.20,303.92 566.10,303.92 566.97,304.46 567.86,304.46 568.74,303.65 569.63,303.65 570.51,304.73 571.41,303.92 572.30,303.92 573.18,235.88 574.08,236.69 574.97,236.69 575.86,236.69 576.75,236.15 577.64,232.10 578.64,227.51 579.61,228.59 580.56,222.65 581.45,236.42 582.38,236.15 583.27,235.61 584.16,236.69 585.03,236.69 585.86,236.15 586.79,235.61 587.67,236.15 588.57,236.42 589.44,233.18 590.33,236.69 591.21,236.42 592.11,236.15 592.99,235.61 593.88,235.88 594.76,236.42 595.65,236.42 596.54,236.96 597.43,236.42 598.33,235.61 599.22,236.69 600.11,236.15 601.00,236.42 601.89,242.63 602.79,255.86 603.68,236.69 604.56,235.88 605.44,236.15 606.33,236.42 607.22,235.88 608.10,236.15 608.99,236.96 609.88,236.15 610.78,236.69 611.65,236.96 612.54,236.15 613.43,236.96 614.32,236.15 615.21,236.42 616.10,234.53 616.98,236.15 617.87,236.69 618.76,236.69 619.65,235.34 620.54,236.15 621.44,236.15 622.33,235.61 623.21,236.69 624.11,236.96 624.99,235.61 625.89,232.91 626.80,234.26 627.69,236.42 628.58,236.42 629.47,236.15 630.36,236.96 631.24,236.15 632.13,236.69 633.02,236.96 633.92,234.53 634.80,236.42 635.69,236.69 636.58,236.42 637.47,236.15 638.37,236.42 639.26,235.88 640.15,236.15 641.04,236.96 641.94,235.61 642.84,235.88 643.72,235.88 644.61,236.42 645.50,236.42 646.39,236.69 647.30,236.69 648.19,236.42 649.08,235.61 649.97,236.15 650.85,236.15 651.74,235.34 652.63,236.69 653.52,235.61 654.41,236.69 655.30,235.88 656.18,236.69 657.07,232.91 657.96,235.88 658.86,236.42 659.75,235.88 660.63,235.61 661.53,236.69 662.42,235.88 663.31,236.42 664.20,236.42 665.09,236.69 665.97,236.15 666.85,235.88 667.74,236.42 668.63,235.61 669.53,201.32 670.41,236.69 671.31,236.15 672.19,236.42 673.09,236.42 673.99,235.61 674.87,230.48 675.76,235.34 676.66,283.40 677.55,236.69 678.44,230.75 679.33,236.69 680.23,224.00 681.12,236.42 682.01,236.15 682.92,235.61 683.82,235.88 684.71,236.15 685.60,236.96 686.48,230.48 687.38,235.88 688.27,236.15 689.17,235.61 690.06,243.17 690.95,296.63 691.84,236.15 692.72,235.61 693.63,236.69 694.52,229.94 695.41,229.94 696.30,236.15 697.19,236.42 698.07,236.69 698.95,235.61 699.84,236.69 700.73,236.69 701.62,236.42 702.51,236.15 703.40,236.69 704.29,236.69 705.18,236.42 706.09,231.29 706.99,236.69 707.87,236.15 708.76,236.42 709.64,235.88 710.53,235.61 711.42,235.61 712.32,236.42 713.20,236.96 714.09,236.69 714.99,236.69 715.88,235.61 716.76,235.88 717.65,235.88 718.55,236.69 719.47,236.69 720.37,235.61 721.26,236.15 722.15,283.13 723.04,236.42 723.94,236.69 724.82,235.88 725.71,236.15 726.59,235.07 727.49,236.42 728.38,236.69 729.28,236.15 730.17,237.23 731.07,236.15 731.99,236.15 732.88,236.15 733.77,236.69 734.66,236.69 735.55,236.42 736.45,236.69 737.34,236.69 738.24,235.61 739.13,236.42 740.03,235.34 740.92,236.96 741.82,235.61 742.71,236.69 743.60,236.69 744.49,236.15 745.38,236.42 746.27,236.42 747.17,296.90 748.06,236.15 748.95,235.61 749.84,236.42 750.74,236.42 751.63,236.69 752.52,236.69 753.41,236.69 754.31,236.69 755.23,235.34 756.12,235.88 757.02,233.45 757.91,236.15 758.82,236.15 759.73,235.07 760.64,234.26 761.54,234.26 762.46,235.88 763.36,290.15 764.25,236.69 765.14,236.42 766.03,236.15 766.93,236.42 767.82,235.34 768.73,236.69 769.62,236.15 770.52,236.69 771.40,235.88 772.29,236.15 773.18,236.69 774.08,236.42 774.96,236.96 775.85,231.83 776.74,236.42 777.62,236.42 778.51,236.42 779.39,236.42 780.28,236.15 781.18,236.69 782.07,236.42 782.96,232.64 783.86,235.88 784.75,237.23 785.64,236.42 786.53,235.88 787.42,236.42 788.31,283.94 789.20,236.15 790.09,236.42 790.98,236.42 791.88,236.42 792.76,290.42 793.64,236.42 794.52,236.69 795.41,236.42 796.31,236.15 797.20,236.69 798.08,235.88 798.98,234.53 799.86,235.34 800.75,236.69 801.65,236.42 802.53,236.15 803.41,236.42 804.29,235.61 805.16,236.69 806.05,236.42 806.95,235.34 807.85,235.88 808.74,236.15 809.63,235.61 810.52,236.69 811.43,236.15 812.32,235.61 813.21,236.15 814.11,235.07 815.00,236.15 815.88,235.61 816.78,236.69 817.67,236.15 818.57,235.61 819.47,290.15 820.36,236.42 821.24,236.69 822.13,236.15 823.02,235.61 823.90,236.42 824.79,236.69 825.67,235.88 826.56,235.88 827.45,235.88 828.35,236.69 829.23,236.15 830.12,236.15 831.01,236.42 831.90,235.34 832.79,235.88 833.69,236.15 834.58,236.15 835.46,235.61 836.35,236.42 837.25,236.96 838.13,235.34 839.02,236.42 839.92,236.15 840.81,236.15 841.69,235.88 842.59,236.42 843.48,233.18 844.37,236.69 845.25,235.88 846.14,236.15 847.06,236.69 847.95,236.15 848.86,235.88 849.76,232.91 850.65,236.15 851.54,283.67 852.44,236.42 853.33,235.88 854.22,234.80 855.11,235.34 856.01,236.15 856.92,234.53 857.81,236.69 858.70,236.42 859.59,236.69 860.48,236.96 861.38,235.88 862.27,236.42 863.15,236.69 864.04,235.61 864.93,236.42 865.82,236.42 866.71,236.69 867.59,236.15 868.49,236.42 869.37,236.15 870.26,235.61 871.15,236.15 872.03,235.07 872.92,236.15 873.83,236.69 874.71,231.83 875.60,235.61 876.49,285.02 877.38,236.69 878.26,236.15 879.16,236.69 880.04,231.29 880.95,283.13 881.84,236.42 882.72,234.53 883.61,235.88 884.50,236.69 885.39,236.42 886.27,229.40 887.18,236.69 888.09,235.34 888.99,235.88 889.90,236.15 890.80,235.61 891.72,236.15 892.63,236.69 893.54,236.69 894.46,236.15 895.37,229.94 896.28,236.42 897.17,236.42 898.05,235.34 898.95,230.75 899.85,236.15 900.74,236.15 901.63,236.69 902.53,236.96 903.42,235.88 904.31,235.34 905.21,236.15 906.09,235.88 906.98,235.61 907.87,236.69 908.75,235.07 909.64,231.83 910.54,236.69 911.43,235.88 912.31,236.15 913.22,236.42 914.11,236.42 915.00,232.91 915.89,236.69 916.78,235.88 917.67,236.15 918.56,231.02 919.45,290.69 920.34,236.69 921.23,232.64 922.13,243.71 923.01,236.69 923.90,236.69 924.80,235.88 925.68,236.15 926.58,235.88 927.53,235.61 928.45,234.53 929.34,236.15 930.23,235.61 931.11,262.88 932.02,230.21 932.92,236.69 933.81,230.21 934.71,236.42 935.59,235.61 936.46,236.69 937.35,236.15 938.24,236.42 939.13,236.69 940.03,233.18 940.91,236.15 941.81,236.69 942.71,236.15 943.60,236.69 944.48,236.69 945.37,236.42 946.26,235.61 947.16,236.15 948.05,236.15 948.93,236.15 949.82,235.07 950.72,236.42 951.61,231.56 952.50,236.69 953.43,235.61 954.33,236.69 955.22,235.61 956.10,235.61 956.99,235.34 957.89,236.42 958.78,236.42 959.68,236.42 960.56,296.90 961.46,236.42 962.35,236.69 963.25,249.38 964.15,236.15 965.05,236.15 965.94,235.88 966.82,236.42 967.72,236.15 968.60,232.91 969.50,235.88 970.38,236.69 971.29,235.34 972.18,236.42 973.07,236.42 973.96,235.61 974.84,236.15 975.74,236.15 976.63,236.69 977.51,236.69 978.40,236.15 979.29,235.88 980.19,236.96 981.07,235.88 981.96,236.96 982.85,236.42 983.75,235.34 984.64,236.15 985.53,232.10 986.42,236.69 987.30,236.15 988.18,297.17 989.07,236.42 989.97,236.42 990.86,236.42 991.77,236.42 992.66,230.75 993.56,236.15 994.45,236.69 995.34,235.88 996.25,236.42 997.20,236.15 998.11,231.83 999.01,235.07 999.91,234.80 1000.81,235.88 1001.70,270.17 1002.59,236.15 1003.48,236.42 1004.37,243.17 1005.26,236.69 1006.16,235.34 1007.05,236.69 1007.94,236.69 1008.85,236.96 1009.75,236.69 1010.64,236.69 1011.53,235.88 1012.42,236.15 1013.31,236.69 1014.21,236.15 1015.10,234.80 1015.99,236.69 1016.89,236.15 1017.78,236.42 1018.67,236.42 1019.57,235.34 1020.46,236.69 1021.36,236.69 1022.26,236.69 1023.15,236.69 1024.05,236.15 1024.93,235.88 1025.83,236.69 1026.72,236.69 1027.61,236.15 1028.49,236.69 1029.39,291.23 1030.27,235.61 1031.17,236.69 1032.07,236.15 1032.95,236.15 1033.84,235.61 1034.74,235.34 1035.63,236.15 1036.51,236.42 1037.41,236.69 1038.30,236.42 1039.21,235.61 1040.10,236.69 1040.97,236.69 1041.84,236.42 1042.72,236.15 1043.62,236.15 1044.51,236.42 1045.41,236.42 1046.31,236.42 1047.20,236.69 1048.10,235.88 1049.00,235.61 1049.89,236.69 1050.78,236.42 1051.66,236.15 1052.55,236.42 1053.43,234.26 1054.32,235.88 1055.21,233.99 1056.10,235.88 1056.99,235.88 1057.87,235.07 1058.76,236.42 1059.66,236.15 1060.55,236.42 1061.44,236.42 1062.32,236.42 1063.21,289.61 1064.07,236.69 1064.98,235.61 1065.87,235.88 1066.76,236.69 1067.66,236.15 1068.56,236.69 1069.45,236.69 1070.33,236.69 1071.23,236.42 1072.12,236.69 1073.01,236.69 1073.90,236.15 1074.86,236.15 1075.75,236.15 1076.65,236.15 1077.54,236.42 1078.44,236.69 1079.32,236.15 1080.21,236.15 1081.11,235.61 1082.00,236.42 1082.89,236.69 1083.77,236.42 1084.66,236.42 1085.56,236.42 1086.46,236.15 1087.35,236.42 1088.24,236.96 1089.13,236.69 1090.02,236.42 1090.91,236.42 1091.81,235.61 1092.71,230.21 1093.61,235.07 1094.52,236.69 1095.41,236.69 1096.30,236.69 1097.20,236.69 1098.10,236.69 1098.99,236.69 1099.88,235.61 1100.77,236.42 1101.66,235.88 1102.55,304.46 1103.44,303.11 1104.33,304.46 1105.23,304.46 1106.12,304.46 1107.01,304.46 1107.90,303.65 1108.79,304.46 1109.67,304.46 1110.56,304.46 1111.46,299.60 1112.34,303.92 1113.23,304.46 1114.13,304.73 1115.01,303.92 1115.89,304.46 1116.78,304.46 1117.67,304.46 1118.55,304.46 1119.44,304.46 1120.33,304.46 1121.22,304.73 1122.09,304.46 1122.99,303.92 1123.87,302.84 1124.77,304.73 1125.65,304.46 1126.54,304.46 1127.42,303.92 1128.30,304.46 1129.21,304.46 1130.09,304.46 1130.98,304.46 1131.87,304.46 1132.81,301.22 1133.69,304.73 1134.58,303.92 1135.48,304.73 1136.37,303.92 1137.27,304.46 1138.16,304.46 1139.05,304.73 1139.94,304.73 1140.83,304.46 1141.71,304.46 1142.60,304.73 1143.50,304.46 1144.39,303.65 1145.28,304.46 1146.16,304.46 1147.05,304.46 1147.94,304.73 1148.82,304.46 1149.72,304.73 1150.62,304.73 1151.55,304.46 1152.43,301.49 1153.32,304.46 1154.20,304.46 1155.08,303.92 1155.99,304.46 1156.87,297.44 1157.76,304.46 1158.66,304.73 1159.55,304.73 1160.44,304.73 1161.33,303.38 1162.22,304.46 1163.12,304.46 1164.00,303.11 1164.89,304.73 1165.79,303.65 1166.68,304.46 1167.56,301.76 1168.45,304.46 1169.33,297.44 1170.22,304.46 1171.11,304.46 1171.99,302.84 1172.89,304.73 1173.78,304.46 1174.67,304.46 1175.56,303.11 1176.45,304.46 1177.34,304.46 1178.22,303.92 1179.11,303.92 1180.00,304.46"/>
<polyline fill="none" stroke="#d62728" stroke-opacity="0.80" stroke-width="2" points="70.00,303.38 70.89,304.19 71.78,302.57 72.66,303.38 73.55,304.19 74.44,287.72 75.32,303.38 76.21,304.19 77.17,304.19 78.05,303.38 78.93,303.38 79.81,304.19 80.71,304.19 81.60,304.19 82.48,304.19 84.07,304.19 85.45,302.57 86.34,304.19 87.25,304.19 88.13,304.19 89.02,303.38 89.88,303.38 90.78,304.19 91.66,302.57 92.55,302.57 93.45,303.38 94.35,303.38 95.24,304.19 96.13,303.38 97.06,35.00 97.95,303.38 98.84,35.00 99.75,35.00 100.63,303.38 101.52,304.19 102.43,35.00 103.31,303.38 104.20,302.57 105.10,304.19 105.98,303.38 106.86,303.38 107.74,302.57 108.62,304.19 109.51,303.38 110.39,303.38 111.30,302.57 112.19,303.38 113.07,35.00 113.95,303.38 114.85,304.19 115.73,304.19 116.74,302.57 117.63,35.00 118.51,304.19 119.39,303.38 120.27,304.19 121.15,303.38 122.03,303.38 122.92,304.19 123.81,35.00 124.71,304.19 125.59,304.19 126.47,304.19 127.36,303.38 128.26,304.19 129.14,302.57 130.03,304.19 130.91,302.57 131.78,302.57 132.67,303.38 133.54,288.80 134.43,302.57 135.31,304.19 136.19,304.19 137.08,303.38 137.97,304.19 138.84,300.14 139.74,304.19 140.61,304.19 141.49,304.19 142.40,35.00 143.29,35.00 144.17,302.57 145.06,35.00 145.94,35.00 146.83,303.38 147.72,304.19 148.59,35.00 149.47,304.19 150.36,304.19 151.25,304.19 152.14,304.19 153.03,303.38 153.91,303.38 154.79,304.19 155.68,304.19 156.56,303.38 157.44,286.91 158.32,303.38 159.20,304.19 160.09,304.19 160.98,304.19 161.87,303.38 162.75,304.19 163.65,304.19 164.54,303.38 165.43,302.57 166.31,302.57 167.19,304.19 168.07,302.57 168.97,304.19 169.85,304.19 170.74,304.19 171.62,35.00 172.51,304.19 173.40,304.19 174.29,302.57 175.19,35.00 176.07,35.00 176.96,303.38 177.85,304.19 178.73,303.38 179.61,304.19 180.51,304.19 181.47,302.57 182.35,304.19 183.24,35.00 184.13,35.00 185.01,302.57 185.88,304.19 186.75,304.19 187.64,303.38 188.52,35.00 189.41,303.38 190.29,35.00 191.17,304.19 192.06,304.19 192.94,304.19 193.84,303.38 194.72,303.38 195.60,304.19 196.48,304.19 197.37,295.28 198.25,35.00 199.14,303.38 200.03,35.00 200.92,35.00 201.80,302.57 202.69,304.19 203.56,299.33 204.45,304.19 205.33,304.19 206.21,304.19 207.10,303.38 208.00,303.38 208.88,303.38 209.77,302.57 210.66,303.38 211.55,304.19 212.43,303.38 213.32,304.19 214.20,303.38 215.10,304.19 216.00,303.38 216.88,303.38 217.77,302.57 218.65,303.38 219.53,304.19 220.41,303.38 221.30,35.00 222.18,304.19 223.05,303.38 223.93,302.57 224.83,304.19 225.72,304.19 226.60,303.38 227.49,303.38 228.39,304.19 229.28,35.00 230.16,303.38 231.04,35.00 231.92,302.57 232.88,303.38 233.79,304.19 234.67,35.00 235.55,303.38 236.42,35.00 237.31,304.19 238.19,304.19 239.08,35.00 239.97,304.19 240.85,302.57 241.74,302.57 242.62,303.38 243.53,35.00 244.41,302.57 245.29,304.19 246.17,301.76 247.07,303.38 247.97,303.38 248.88,304.19 249.75,303.38 250.64,303.38 251.53,304.19 252.41,304.19 253.30,303.38 254.18,304.19 255.08,304.19 255.96,303.38 256.84,35.00 257.74,304.19 258.62,303.38 259.51,304.19 260.39,304.19 261.29,304.19 262.18,35.00 263.06,35.00 263.93,302.57 264.81,302.57 265.70,304.19 266.59,303.38 267.47,302.57 268.35,302.57 269.23,35.00 270.11,304.19 271.00,35.00 271.89,303.38 272.78,35.00 273.68,303.38 274.56,303.38 275.45,303.38 276.34,35.00 277.22,304.19 278.11,302.57 278.99,303.38 279.88,304.19 280.79,303.38 281.67,35.00 282.56,303.38 283.45,304.19 284.33,303.38 285.22,304.19 286.09,35.00 286.98,302.57 287.87,304.19 288.76,304.19 289.64,303.38 290.53,303.38 291.42,304.19 292.31,303.38 293.19,304.19 294.08,304.19 294.98,304.19 295.86,303.38 296.74,302.57 297.64,304.19 298.53,35.00 299.42,295.28 300.30,303.38 301.19,302.57 302.17,303.38 303.06,301.76 303.95,35.00 304.83,304.19 305.73,303.38 306.62,304.19 307.50,304.19 308.39,299.33 309.27,304.19 310.19,303.38 311.08,302.57 311.96,303.38 312.85,302.57 313.73,304.19 314.62,304.19 315.51,304.19 316.42,302.57 317.31,303.38 318.19,303.38 319.09,35.00 320.05,303.38 320.93,303.38 322.05,304.19 323.55,302.57 324.45,303.38 325.36,303.38 326.24,303.38 327.11,304.19 327.99,303.38 328.89,304.19 329.78,304.19 330.67,303.38 331.59,304.19 332.51,304.19 333.45,304.19 334.34,304.19 335.22,302.57 336.11,35.00 337.01,304.19 337.91,302.57 338.80,303.38 339.68,303.38 340.57,303.38 341.49,304.19 342.38,304.19 343.25,303.38 344.14,304.19 345.04,303.38 345.96,304.19 346.86,303.38 347.74,304.19 348.65,287.18 349.50,288.53 350.38,301.76 351.29,302.57 352.17,303.38 353.07,35.00 353.98,35.00 354.87,303.38 355.75,303.38 356.65,304.19 357.55,304.19 358.43,35.00 359.32,304.19 360.19,35.00 361.09,303.38 361.98,303.38 362.85,302.57 363.91,303.38 364.95,303.38 366.00,300.95 367.03,303.38 368.04,302.57 369.06,304.19 370.11,304.19 371.14,35.00 372.03,303.38 372.91,303.38 373.79,304.19 374.68,304.19 375.56,302.57 376.44,303.38 377.32,304.19 378.20,303.38 379.09,303.38 379.97,304.19 380.86,303.38 381.74,304.19 382.62,303.38 383.50,303.38 384.38,304.19 385.27,303.38 386.15,35.00 387.03,304.19 387.92,304.19 388.81,303.38 389.68,304.19 390.56,304.19 391.44,35.00 392.33,303.38 393.21,304.19 394.10,304.19 394.98,304.19 395.87,302.57 396.75,35.00 397.63,303.38 398.52,287.72 399.40,304.19 400.28,304.19 401.16,303.38 402.04,301.76 402.91,303.38 403.79,304.19 404.67,302.57 405.55,303.38 406.43,303.38 407.31,303.38 408.20,303.38 409.07,304.19 409.95,303.38 410.82,302.57 411.73,304.19 412.69,303.38 413.57,303.38 414.46,303.38 415.34,303.38 416.22,304.19 417.10,304.19 417.98,304.19 418.86,304.19 419.90,303.38 420.94,303.38 421.97,304.19 423.01,302.57 424.05,304.19 425.08,303.38 426.14,302.57 427.21,304.19 428.18,303.38 429.13,303.38 430.01,303.38 430.91,302.57 431.80,35.00 432.67,35.00 433.55,304.19 434.44,303.38 435.32,35.00 436.20,35.00 437.08,303.38 437.97,304.19 438.85,304.19 439.74,304.19 440.63,303.38 441.51,304.19 442.40,304.19 443.17,304.19 444.08,304.19 444.97,287.72 445.87,303.38 446.76,302.57 447.64,303.38 448.53,303.38 449.42,304.19 450.31,304.19 451.20,303.38 452.09,302.57 453.00,304.19 453.88,303.38 454.75,302.57 455.64,304.19 456.51,301.76 457.39,304.19 458.27,304.19 459.17,303.38 460.05,303.38 460.93,304.19 461.82,303.38 462.70,301.76 463.59,304.19 464.47,304.19 465.36,304.19 466.25,35.00 467.14,303.38 468.02,304.19 468.91,304.19 469.80,304.19 470.71,304.19 471.59,35.00 472.47,35.00 473.35,302.57 474.23,304.19 475.11,35.00 476.00,304.19 476.89,303.38 477.76,302.57 478.65,302.57 479.53,304.19 480.41,303.38 481.30,304.19 482.19,303.38 483.08,301.76 484.14,304.19 485.05,304.19 485.96,304.19 486.85,302.57 487.74,304.19 488.64,304.19 489.51,304.19 490.39,303.38 491.29,304.19 492.18,303.38 493.06,35.00 493.95,302.57 494.84,304.19 495.72,302.57 496.64,304.19 497.54,303.38 498.43,304.19 499.31,303.38 500.20,35.00 501.08,302.57 501.96,303.38 502.85,304.19 503.77,304.19 504.66,304.19 505.55,304.19 506.44,303.38 507.32,304.19 508.21,304.19 509.10,304.19 509.98,304.19 510.87,304.19 511.76,304.19 512.65,302.57 513.54,304.19 514.42,303.38 515.30,304.19 516.19,304.19 517.09,304.19 517.98,304.19 518.86,35.00 519.74,304.19 520.62,301.76 521.52,217.79 522.41,304.19 523.48,35.00 524.39,303.38 525.27,302.57 526.16,304.19 527.04,303.38 527.93,304.19 528.82,303.38 529.71,304.19 530.61,304.19 531.49,303.38 532.38,35.00 533.26,35.00 534.14,304.19 535.03,302.57 535.91,304.19 536.80,304.19 537.68,304.19 538.57,303.38 539.45,304.19 540.33,302.57 541.23,304.19 542.11,35.00 542.99,35.00 543.89,303.38 544.78,304.19 545.67,303.38 546.55,300.95 547.44,304.19 548.35,304.19 549.23,304.19 550.12,303.38 551.01,303.38 551.90,302.57 552.78,35.00 553.67,303.38 554.56,35.00 555.46,35.00 556.35,303.38 557.23,304.19 558.11,302.57 558.99,304.19 559.88,304.19 560.76,303.38 561.65,303.38 562.54,296.09 563.44,304.19 564.33,304.19 565.20,304.19 566.10,302.57 566.97,35.00 567.86,303.38 568.74,304.19 569.63,302.57 570.51,302.57 571.41,303.38 572.30,35.00 573.18,303.38 574.08,303.38 574.97,304.19 575.86,304.19 576.75,303.38 577.64,304.19 578.64,303.38 579.61,303.38 580.56,302.57 581.45,304.19 582.38,303.38 583.27,303.38 584.16,304.19 585.03,35.00 585.86,303.38 586.79,287.18 587.67,304.19 588.57,286.37 589.44,302.57 590.33,304.19 591.21,304.19 592.11,304.19 592.99,304.19 593.88,304.19 594.76,35.00 595.65,303.38 596.54,304.19 597.43,35.00 598.33,304.19 599.22,304.19 600.11,303.38 601.00,304.19 601.89,304.19 602.79,303.38 603.68,303.38 604.56,304.19 605.44,304.19 606.33,304.19 607.22,304.19 608.10,302.57 608.99,35.00 609.88,35.00 610.78,304.19 611.65,303.38 612.54,304.19 613.43,304.19 614.32,304.19 615.21,304.19 616.10,304.19 616.98,301.76 617.87,303.38 618.76,302.57 619.65,304.19 620.54,35.00 621.44,304.19 622.33,304.19 623.21,303.38 624.11,35.00 624.99,304.19 625.89,304.19 626.80,304.19 627.69,35.00 628.58,304.19 629.47,304.19 630.36,303.38 631.24,303.38 632.13,35.00 633.02,35.00 633.92,303.38 634.80,304.19 635.69,302.57 636.58,302.57 637.47,304.19 638.37,295.28 639.26,303.38 640.15,304.19 641.04,304.19 641.94,303.38 642.84,35.00 643.72,304.19 644.61,302.57 645.50,35.00 646.39,302.57 647.30,303.38 648.19,304.19 649.08,303.38 649.97,304.19 650.85,35.00 651.74,35.00 652.63,302.57 653.52,303.38 654.41,295.28 655.30,304.19 656.18,304.19 657.07,303.38 657.96,303.38 658.86,304.19 659.75,304.19 660.63,35.00 661.53,303.38 662.42,303.38 663.31,304.19 664.20,35.00 665.09,304.19 665.97,303.38 666.85,35.00 667.74,304.19 668.63,303.38 669.53,302.57 670.41,304.19 671.31,302.57 672.19,304.19 673.09,303.38 673.99,304.19 674.87,304.19 675.76,304.19 676.66,304.19 677.55,304.19 678.44,304.19 679.33,303.38 680.23,303.38 681.12,304.19 682.01,304.19 682.92,304.19 683.82,304.19 684.71,303.38 685.60,304.19 686.48,304.19 687.38,303.38 688.27,303.38 689.17,35.00 690.06,303.38 690.95,303.38 691.84,304.19 692.72,35.00 693.63,302.57 694.52,304.19 695.41,287.18 696.30,304.19 697.19,35.00 698.07,35.00 698.95,304.19 699.84,304.19 700.73,304.19 701.62,304.19 702.51,303.38 703.40,303.38 704.29,303.38 705.18,304.19 706.09,35.00 706.99,35.00 707.87,35.00 708.76,286.37 709.64,302.57 710.53,301.76 711.42,303.38 712.32,303.38 713.20,286.37 714.09,304.19 714.99,304.19 715.88,304.19 716.76,304.19 717.65,303.38 718.55,35.00 719.47,303.38 720.37,304.19 721.26,303.38 722.15,303.38 723.04,35.00 723.94,304.19 724.82,35.00 725.71,303.38 726.59,302.57 727.49,303.38 728.38,303.38 729.28,303.38 730.17,303.38 731.07,303.38 731.99,304.19 732.88,35.00 733.77,303.38 734.66,304.19 735.55,35.00 736.45,35.00 737.34,304.19 738.24,303.38 739.13,304.19 740.03,304.19 740.92,301.76 741.82,304.19 742.71,303.38 743.60,304.19 744.49,301.76 745.38,304.19 746.27,302.57 747.17,302.57 748.06,303.38 748.95,304.19 749.84,35.00 750.74,35.00 751.63,35.00 752.52,303.38 753.41,303.38 754.31,304.19 755.23,35.00 756.12,302.57 757.02,304.19 757.91,35.00 758.82,304.19 759.73,304.19 760.64,303.38 761.54,303.38 762.46,302.57 763.36,304.19 764.25,303.38 765.14,303.38 766.03,304.19 766.93,35.00 767.82,304.19 768.73,35.00 769.62,304.19 770.52,303.38 771.40,35.00 772.29,302.57 773.18,303.38 774.08,298.52 774.96,303.38 775.85,304.19 776.74,303.38 777.62,304.19 778.51,304.19 779.39,35.00 780.28,304.19 781.18,304.19 782.07,35.00 782.96,304.19 783.86,303.38 784.75,304.19 785.64,35.00 786.53,303.38 787.42,303.38 788.31,304.19 789.20,304.19 790.09,304.19 790.98,304.19 791.88,298.52 792.76,303.38 793.64,302.57 794.52,304.19 795.41,302.57 796.31,303.38 797.20,304.19 798.08,304.19 798.98,303.38 799.86,303.38 800.75,304.19 801.65,304.19 802.53,35.00 803.41,35.00 804.29,304.19 805.16,304.19 806.05,303.38 806.95,303.38 807.85,301.76 808.74,304.19 809.63,304.19 810.52,284.75 811.43,303.38 812.32,303.38 813.21,304.19 814.11,304.19 815.00,304.19 815.88,303.38 816.78,303.38 817.67,304.19 818.57,303.38 819.47,303.38 820.36,303.38 821.24,304.19 822.13,304.19 823.02,303.38 823.90,302.57 824.79,303.38 825.67,304.19 826.56,303.38 827.45,304.19 828.35,304.19 829.23,35.00 830.12,303.38 831.01,304.19 831.90,302.57 832.79,304.19 833.69,304.19 834.58,304.19 835.46,303.38 836.35,301.76 837.25,35.00 838.13,304.19 839.02,303.38 839.92,304.19 840.81,35.00 841.69,304.19 842.59,304.19 843.48,304.19 844.37,304.19 845.25,304.19 846.14,35.00 847.06,35.00 847.95,303.38 848.86,304.19 849.76,304.19 850.65,302.57 851.54,35.00 852.44,302.57 853.33,35.00 854.22,35.00 855.11,303.38 856.01,303.38 856.92,304.19 857.81,304.19 858.70,35.00 859.59,304.19 860.48,303.38 861.38,302.57 862.27,304.19 863.15,304.19 864.04,303.38 864.93,302.57 865.82,304.19 866.71,304.19 867.59,304.19 868.49,304.19 869.37,35.00 870.26,35.00 871.15,304.19 872.03,303.38 872.92,35.00 873.83,304.19 874.71,302.57 875.60,304.19 876.49,304.19 877.38,304.19 878.26,294.47 879.16,303.38 880.04,35.00 880.95,304.19 881.84,304.19 882.72,302.57 883.61,304.19 884.50,304.19 885.39,304.19 886.27,303.38 887.18,304.19 888.09,303.38 888.99,304.19 889.90,304.19 890.80,302.57 891.72,302.57 892.63,304.19 893.54,304.19 894.46,301.76 895.37,301.76 896.28,35.00 897.17,304.19 898.05,303.38 898.95,304.19 899.85,304.19 900.74,303.38 901.63,304.19 902.53,35.00 903.42,35.00 904.31,303.38 905.21,304.19 906.09,304.19 906.98,302.57 907.87,303.38 908.75,304.19 909.64,303.38 910.54,304.19 911.43,304.19 912.31,302.57 913.22,35.00 914.11,304.19 915.00,35.00 915.89,35.00 916.78,304.19 917.67,304.19 918.56,303.38 919.45,303.38 920.34,304.19 921.23,304.19 922.13,303.38 923.01,304.19 923.90,304.19 924.80,304.19 925.68,304.19 926.58,304.19 927.53,303.38 928.45,35.00 929.34,301.76 930.23,35.00 931.11,302.57 932.02,304.19 932.92,304.19 933.81,304.19 934.71,303.38 935.59,304.19 936.46,302.57 937.35,304.19 938.24,35.00 939.13,303.38 940.03,304.19 940.91,303.38 941.81,303.38 942.71,302.57 943.60,35.00 944.48,304.19 945.37,35.00 946.26,304.19 947.16,295.28 948.05,304.19 948.93,303.38 949.82,297.71 950.72,304.19 951.61,35.00 952.50,302.57 953.43,302.57 954.33,304.19 955.22,304.19 956.10,303.38 956.99,304.19 957.89,303.38 958.78,304.19 959.68,304.19 960.56,303.38 961.46,304.19 962.35,304.19 963.25,304.19 964.15,303.38 965.05,304.19 965.94,303.38 966.82,35.00 967.72,304.19 968.60,303.38 969.50,303.38 970.38,303.38 971.29,304.19 972.18,35.00 973.07,303.38 973.96,35.00 974.84,304.19 975.74,35.00 976.63,35.00 977.51,304.19 978.40,35.00 979.29,304.19 980.19,304.19 981.07,35.00 981.96,304.19 982.85,304.19 983.75,303.38 984.64,303.38 985.53,303.38 986.42,304.19 987.30,303.38 988.18,35.00 989.07,303.38 989.97,304.19 990.86,303.38 991.77,302.57 992.66,303.38 993.56,304.19 994.45,304.19 995.34,286.91 996.25,301.76 997.20,303.38 998.11,303.38 999.01,304.19 999.91,303.38 1000.81,304.19 1001.70,303.38 1002.59,304.19 1003.48,304.19 1004.37,304.19 1005.26,304.19 1006.16,302.57 1007.05,35.00 1007.94,303.38 1008.85,303.38 1009.75,35.00 1010.64,303.38 1011.53,304.19 1012.42,304.19 1013.31,303.38 1014.21,303.38 1015.10,303.38 1015.99,303.38 1016.89,303.38 1017.78,304.19 1018.67,303.38 1019.57,301.76 1020.46,304.19 1021.36,304.19 1022.26,303.38 1023.15,304.19 1024.05,35.00 1024.93,304.19 1025.83,35.00 1026.72,303.38 1027.61,303.38 1028.49,303.38 1029.39,304.19 1030.27,301.76 1031.17,35.00 1032.07,35.00 1032.95,302.57 1033.84,304.19 1034.74,35.00 1035.63,304.19 1036.51,304.19 1037.41,304.19 1038.30,304.19 1039.21,304.19 1040.10,35.00 1040.97,35.00 1041.84,35.00 1042.72,304.19 1043.62,304.19 1044.51,303.38 1045.41,304.19 1046.31,302.57 1047.20,302.57 1048.10,303.38 1049.00,304.19 1049.89,303.38 1050.78,304.19 1051.66,303.38 1052.55,35.00 1053.43,303.38 1054.32,35.00 1055.21,304.19 1056.10,304.19 1056.99,304.19 1057.87,304.19 1058.76,302.57 1059.66,35.00 1060.55,304.19 1061.44,303.38 1062.32,287.72 1063.21,286.10 1064.07,304.19 1064.98,35.00 1065.87,304.19 1066.76,301.76 1067.66,304.19 1068.56,35.00 1069.45,304.19 1070.33,303.38 1071.23,304.19 1072.12,304.19 1073.01,301.76 1073.90,299.33 1074.86,302.57 1075.75,304.19 1076.65,303.38 1077.54,35.00 1078.44,35.00 1079.32,303.38 1080.21,303.38 1081.11,304.19 1082.00,285.02 1082.89,304.19 1083.77,304.19 1084.66,304.19 1085.56,304.19 1086.46,303.38 1087.35,302.57 1088.24,303.38 1089.13,35.00 1090.02,35.00 1090.91,304.19 1091.81,302.57 1092.71,303.38 1093.61,35.00 1094.52,303.38 1095.41,303.38 1096.30,35.00 1097.20,304.19 1098.10,303.38 1098.99,302.57 1099.88,303.38 1100.77,304.19 1101.66,304.19 1102.55,303.38 1103.44,303.38 1104.33,35.00 1105.23,302.57 1106.12,35.00 1107.01,35.00 1107.90,304.19 1108.79,304.19 1109.67,303.38 1110.56,304.19 1111.46,303.38 1112.34,35.00 1113.23,304.19 1114.13,304.19 1115.01,35.00 1115.89,304.19 1116.78,302.57 1117.67,300.95 1118.55,35.00 1119.44,35.00 1120.33,35.00 1121.22,303.38 1122.09,303.38 1122.99,304.19 1123.87,304.19 1124.77,303.38 1125.65,302.57 1126.54,303.38 1127.42,304.19 1128.30,304.19 1129.21,304.19 1130.09,304.19 1130.98,303.38 1131.87,303.38 1132.81,303.38 1133.69,302.57 1134.58,304.19 1135.48,303.38 1136.37,304.19 1137.27,304.19 1138.16,304.19 1139.05,302.57 1139.94,304.19 1140.83,302.57 1141.71,35.00 1142.60,304.19 1143.50,303.38 1144.39,304.19 1145.28,35.00 1146.16,304.19 1147.05,303.38 1147.94,303.38 1148.82,304.19 1149.72,303.38 1150.62,35.00 1151.55,304.19 1152.43,303.38 1153.32,303.38 1154.20,303.38 1155.08,304.19 1155.99,35.00 1156.87,303.38 1157.76,303.38 1158.66,304.19 1159.55,302.57 1160.44,304.19 1161.33,304.19 1162.22,304.19 1163.12,303.38 1164.00,304.19 1164.89,303.38 1165.79,304.19 1166.68,301.76 1167.56,303.38 1168.45,304.19 1169.33,304.19 1170.22,35.00 1171.11,298.52 1171.99,303.38 1172.89,304.19 1173.78,302.57 1174.67,303.38 1175.56,304.19 1176.45,304.19 1177.34,302.57 1178.22,301.76 1179.11,35.00 1180.00,304.19"/>
<polyline fill="none" stroke="#d62728" stroke-opacity="0.65" stroke-width="2" points="70.00,35.00 70.89,304.46 71.78,304.46 72.66,302.30 73.55,304.46 74.44,303.38 75.32,304.46 76.21,304.46 77.17,35.00 78.05,304.46 78.93,304.46 79.81,303.92 80.71,303.92 81.60,304.46 82.48,304.46 84.07,303.92 85.45,304.46 86.34,35.00 87.25,303.92 88.13,302.84 89.02,304.46 89.88,303.92 90.78,302.84 91.66,35.00 92.55,303.92 93.45,35.00 94.35,35.00 95.24,35.00 96.13,303.92 97.06,35.00 97.95,303.38 98.84,303.92 99.75,304.46 100.63,35.00 101.52,35.00 102.43,304.46 103.31,35.00 104.20,304.46 105.10,35.00 105.98,304.46 106.86,303.92 107.74,35.00 108.62,304.46 109.51,304.46 110.39,293.12 111.30,35.00 112.19,304.46 113.07,304.46 113.95,304.46 114.85,35.00 115.73,304.46 116.74,304.46 117.63,304.46 118.51,35.00 119.39,35.00 120.27,304.46 121.15,304.46 122.03,303.38 122.92,303.92 123.81,304.46 124.71,35.00 125.59,304.46 126.47,304.46 127.36,35.00 128.26,304.46 129.14,303.92 130.03,304.46 130.91,304.46 131.78,35.00 132.67,303.92 133.54,303.92 134.43,304.46 135.31,303.92 136.19,303.92 137.08,35.00 137.97,303.92 138.84,304.46 139.74,304.46 140.61,303.38 141.49,35.00 142.40,304.46 143.29,303.38 144.17,304.46 145.06,35.00 145.94,304.46 146.83,304.46 147.72,303.92 148.59,303.92 149.47,303.92 150.36,304.46 151.25,303.92 152.14,304.46 153.03,303.92 153.91,35.00 154.79,303.92 155.68,303.92 156.56,304.46 157.44,304.46 158.32,303.92 159.20,303.92 160.09,35.00 160.98,35.00 161.87,303.92 162.75,35.00 163.65,304.46 164.54,304.46 165.43,304.46 166.31,304.46 167.19,303.92 168.07,304.46 168.97,303.38 169.85,304.46 170.74,303.92 171.62,35.00 172.51,304.46 173.40,303.92 174.29,303.92 175.19,303.92 176.07,304.46 176.96,35.00 177.85,304.46 178.73,304.46 179.61,35.00 180.51,303.92 181.47,304.46 182.35,303.92 183.24,304.46 184.13,304.46 185.01,303.92 185.88,303.92 186.75,304.46 187.64,304.46 188.52,304.46 189.41,303.38 190.29,304.46 191.17,35.00 192.06,303.92 192.94,35.00 193.84,304.46 194.72,35.00 195.60,35.00 196.48,303.92 197.37,303.92 198.25,304.46 199.14,304.46 200.03,304.46 200.92,303.92 201.80,304.46 202.69,304.46 203.56,303.92 204.45,35.00 205.33,304.46 206.21,35.00 207.10,303.92 208.00,304.46 208.88,304.46 209.77,35.00 210.66,35.00 211.55,35.00 212.43,304.46 213.32,303.92 214.20,304.46 215.10,303.92 216.00,303.92 216.88,304.46 217.77,304.46 218.65,304.46 219.53,304.46 220.41,304.46 221.30,304.46 222.18,304.46 223.05,282.59 223.93,304.46 224.83,303.92 225.72,304.46 226.60,304.46 227.49,304.46 228.39,303.38 229.28,304.46 230.16,304.46 231.04,303.92 231.92,304.46 232.88,303.92 233.79,304.46 234.67,304.46 235.55,304.46 236.42,304.46 237.31,304.46 238.19,303.38 239.08,304.46 239.97,304.46 240.85,304.46 241.74,303.92 242.62,35.00 243.53,304.46 244.41,303.92 245.29,303.92 246.17,303.92 247.07,35.00 247.97,304.46 248.88,304.46 249.75,35.00 250.64,303.92 251.53,35.00 252.41,35.00 253.30,304.46 254.18,304.46 255.08,35.00 255.96,35.00 256.84,304.46 257.74,304.46 258.62,303.92 259.51,303.92 260.39,304.46 261.29,304.46 262.18,304.46 263.06,303.92 263.93,304.46 264.81,304.46 265.70,303.92 266.59,303.38 267.47,304.46 268.35,35.00 269.23,304.46 270.11,35.00 271.00,35.00 271.89,303.92 272.78,303.92 273.68,304.46 274.56,304.46 275.45,304.46 276.34,303.92 277.22,297.98 278.11,35.00 278.99,304.46 279.88,303.92 280.79,304.46 281.67,303.92 282.56,35.00 283.45,303.92 284.33,304.46 285.22,35.00 286.09,303.92 286.98,304.46 287.87,304.46 288.76,35.00 289.64,303.92 290.53,303.92 291.42,35.00 292.31,303.92 293.19,303.92 294.08,35.00 294.98,303.92 295.86,304.46 296.74,303.92 297.64,304.46 298.53,303.92 299.42,35.00 300.30,304.46 301.19,35.00 302.17,35.00 303.06,303.92 303.95,303.38 304.83,303.38 305.73,303.38 306.62,35.00 307.50,304.46 308.39,304.46 309.27,304.46 310.19,35.00 311.08,304.46 311.96,304.46 312.85,304.46 313.73,35.00 314.62,304.46 315.51,304.46 316.42,293.66 317.31,303.92 318.19,304.46 319.09,303.92 320.05,304.46 320.93,35.00 322.05,304.46 323.55,304.46 324.45,304.46 325.36,304.46 326.24,35.00 327.11,304.46 327.99,304.46 328.89,303.92 329.78,35.00 330.67,304.46 331.59,35.00 332.51,303.38 333.45,304.46 334.34,304.46 335.22,35.00 336.11,35.00 337.01,304.46 337.91,35.00 338.80,304.46 339.68,304.46 340.57,304.46 341.49,35.00 342.38,303.92 343.25,35.00 344.14,304.46 345.04,304.46 345.96,297.98 346.86,304.46 347.74,35.00 348.65,293.12 349.50,35.00 350.38,303.92 351.29,35.00 352.17,304.46 353.07,304.46 353.98,303.92 354.87,304.46 355.75,304.46 356.65,303.92 357.55,303.92 358.43,304.46 359.32,303.92 360.19,35.00 361.09,304.46 361.98,304.46 362.85,304.46 363.91,304.46 364.95,303.92 366.00,304.46 367.03,304.46 368.04,303.38 369.06,303.92 370.11,303.92 371.14,304.46 372.03,35.00 372.91,35.00 373.79,304.46 374.68,304.46 375.56,303.92 376.44,304.46 377.32,303.92 378.20,35.00 379.09,304.46 379.97,304.46 380.86,304.46 381.74,304.46 382.62,293.12 383.50,304.46 384.38,35.00 385.27,303.92 386.15,303.92 387.03,304.46 387.92,304.46 388.81,35.00 389.68,303.92 390.56,304.46 391.44,304.46 392.33,304.46 393.21,35.00 394.10,297.98 394.98,303.92 395.87,303.38 396.75,304.46 397.63,35.00 398.52,302.84 399.40,303.92 400.28,35.00 401.16,35.00 402.04,303.92 402.91,302.84 403.79,304.46 404.67,303.38 405.55,35.00 406.43,304.46 407.31,304.46 408.20,304.46 409.07,303.92 409.95,304.46 410.82,35.00 411.73,304.46 412.69,303.92 413.57,35.00 414.46,303.92 415.34,303.92 416.22,304.46 417.10,304.46 417.98,304.46 418.86,303.92 419.90,304.46 420.94,304.46 421.97,303.92 423.01,304.46 424.05,303.92 425.08,303.92 426.14,304.46 427.21,303.92 428.18,303.92 429.13,303.92 430.01,35.00 430.91,35.00 431.80,35.00 432.67,303.92 433.55,304.46 434.44,304.46 435.32,304.46 436.20,304.46 437.08,304.46 437.97,35.00 438.85,304.46 439.74,303.38 440.63,35.00 441.51,35.00 442.40,303.92 443.17,282.32 444.08,282.05 444.97,304.46 445.87,35.00 446.76,303.38 447.64,304.46 448.53,35.00 449.42,35.00 450.31,35.00 451.20,303.92 452.09,304.46 453.00,304.46 453.88,303.92 454.75,35.00 455.64,303.38 456.51,303.92 457.39,304.46 458.27,303.92 459.17,304.46 460.05,304.46 460.93,304.46 461.82,304.46 462.70,304.46 463.59,303.92 464.47,303.92 465.36,303.92 466.25,304.46 467.14,304.46 468.02,35.00 468.91,35.00 469.80,304.46 470.71,304.46 471.59,304.46 472.47,303.92 473.35,35.00 474.23,303.92 475.11,35.00 476.00,303.92 476.89,304.46 477.76,35.00 478.65,304.46 479.53,35.00 480.41,304.46 481.30,303.92 482.19,304.46 483.08,302.84 484.14,303.92 485.05,303.92 485.96,304.46 486.85,304.46 487.74,303.38 488.64,303.92 489.51,299.06 490.39,35.00 491.29,304.46 492.18,303.92 493.06,304.46 493.95,35.00 494.84,303.92 495.72,303.92 496.64,304.46 497.54,303.92 498.43,35.00 499.31,304.46 500.20,35.00 501.08,303.92 501.96,35.00 502.85,303.38 503.77,304.46 504.66,304.46 505.55,35.00 506.44,304.46 507.32,304.46 508.21,304.46 509.10,303.92 509.98,35.00 510.87,303.38 511.76,304.46 512.65,304.46 513.54,35.00 514.42,304.46 515.30,35.00 516.19,304.46 517.09,304.46 517.98,291.50 518.86,303.92 519.74,304.46 520.62,304.46 521.52,303.38 522.41,303.92 523.48,303.38 524.39,303.92 525.27,35.00 526.16,35.00 527.04,304.46 527.93,303.38 528.82,304.46 529.71,35.00 530.61,303.92 531.49,304.46 532.38,35.00 533.26,303.92 534.14,35.00 535.03,304.46 535.91,304.46 536.80,35.00 537.68,304.46 538.57,304.46 539.45,35.00 540.33,304.46 541.23,304.46 542.11,304.46 542.99,303.92 543.89,35.00 544.78,304.46 545.67,304.46 546.55,35.00 547.44,304.46 548.35,303.38 549.23,35.00 550.12,304.46 551.01,304.46 551.90,303.92 552.78,304.46 553.67,304.46 554.56,304.46 555.46,304.46 556.35,304.46 557.23,304.46 558.11,303.92 558.99,304.46 559.88,303.92 560.76,304.46 561.65,35.00 562.54,304.46 563.44,304.46 564.33,303.92 565.20,35.00 566.10,304.46 566.97,304.46 567.86,304.46 568.74,304.46 569.63,303.92 570.51,304.46 571.41,304.46 572.30,35.00 573.18,304.46 574.08,303.92 574.97,35.00 575.86,35.00 576.75,303.92 577.64,281.24 578.64,304.46 579.61,304.46 580.56,35.00 581.45,303.92 582.38,303.92 583.27,304.46 584.16,304.46 585.03,303.92 585.86,293.12 586.79,303.92 587.67,292.58 588.57,294.20 589.44,293.12 590.33,303.92 591.21,304.46 592.11,303.92 592.99,303.38 593.88,304.46 594.76,304.46 595.65,304.46 596.54,303.92 597.43,35.00 598.33,35.00 599.22,35.00 600.11,35.00 601.00,304.46 601.89,35.00 602.79,304.46 603.68,303.92 604.56,304.46 605.44,303.92 606.33,303.92 607.22,304.46 608.10,303.92 608.99,304.46 609.88,304.46 610.78,35.00 611.65,304.46 612.54,304.46 613.43,35.00 614.32,303.92 615.21,35.00 616.10,303.92 616.98,35.00 617.87,304.46 618.76,35.00 619.65,304.46 620.54,304.46 621.44,303.92 622.33,304.46 623.21,35.00 624.11,303.92 624.99,304.46 625.89,304.46 626.80,304.46 627.69,304.46 628.58,303.92 629.47,302.84 630.36,304.46 631.24,304.46 632.13,304.46 633.02,304.46 633.92,303.92 634.80,304.46 635.69,303.38 636.58,35.00 637.47,35.00 638.37,303.38 639.26,35.00 640.15,304.46 641.04,303.92 641.94,304.46 642.84,303.92 643.72,304.46 644.61,35.00 645.50,35.00 646.39,35.00 647.30,303.92 648.19,303.92 649.08,303.92 649.97,304.46 650.85,303.92 651.74,304.46 652.63,304.46 653.52,304.46 654.41,304.46 655.30,304.46 656.18,304.46 657.07,35.00 657.96,304.46 658.86,35.00 659.75,304.46 660.63,304.46 661.53,304.46 662.42,304.46 663.31,303.92 664.20,292.58 665.09,304.46 665.97,304.46 666.85,303.92 667.74,304.46 668.63,304.46 669.53,304.46 670.41,303.92 671.31,35.00 672.19,304.46 673.09,304.46 673.99,304.46 674.87,303.92 675.76,304.46 676.66,293.66 677.55,292.04 678.44,293.66 679.33,293.12 680.23,294.20 681.12,293.12 682.01,293.12 682.92,292.58 683.82,293.12 684.71,293.39 685.60,293.12 686.48,293.12 687.38,293.12 688.27,293.12 689.17,293.66 690.06,292.58 690.95,292.58 691.84,293.66 692.72,293.12 693.63,292.58 694.52,293.12 695.41,294.20 696.30,293.12 697.19,293.12 698.07,292.58 698.95,294.20 699.84,293.66 700.73,281.51 701.62,271.25 702.51,293.66 703.40,293.66 704.29,293.12 705.18,293.12 706.09,293.66 706.99,293.12 707.87,293.66 708.76,293.66 709.64,293.66 710.53,293.12 711.42,293.66 712.32,293.12 713.20,292.04 714.09,293.12 714.99,293.12 715.88,293.12 716.76,292.58 717.65,293.12 718.55,293.12 719.47,292.58 720.37,292.58 721.26,293.12 722.15,293.12 723.04,293.39 723.94,293.12 724.82,293.66 725.71,293.12 726.59,292.58 727.49,293.66 728.38,292.58 729.28,293.12 730.17,293.66 731.07,294.20 731.99,293.66 732.88,293.66 733.77,293.12 734.66,293.12 735.55,292.04 736.45,293.12 737.34,293.66 738.24,293.12 739.13,294.20 740.03,293.66 740.92,294.20 741.82,293.12 742.71,293.66 743.60,282.05 744.49,293.66 745.38,293.66 746.27,293.66 747.17,293.12 748.06,293.12 748.95,293.12 749.84,293.12 750.74,293.66 751.63,293.66 752.52,293.66 753.41,292.58 754.31,293.66 755.23,294.20 756.12,293.12 757.02,293.12 757.91,294.20 758.82,292.58 759.73,294.20 760.64,293.12 761.54,293.66 762.46,294.20 763.36,294.20 764.25,293.12 765.14,293.66 766.03,293.66 766.93,293.12 767.82,292.58 768.73,293.66 769.62,293.12 770.52,293.12 771.40,283.13 772.29,292.58 773.18,293.66 774.08,293.66 774.96,292.58 775.85,282.05 776.74,293.12 777.62,293.12 778.51,293.12 779.39,292.58 780.28,293.66 781.18,294.20 782.07,293.12 782.96,293.66 783.86,304.46 784.75,303.92 785.64,35.00 786.53,303.92 787.42,304.46 788.31,303.92 789.20,304.46 790.09,304.46 790.98,35.00 791.88,304.46 792.76,303.92 793.64,303.92 794.52,303.92 795.41,304.46 796.31,304.46 797.20,303.38 798.08,304.46 798.98,304.46 799.86,303.92 800.75,304.46 801.65,303.92 802.53,35.00 803.41,304.46 804.29,304.46 805.16,35.00 806.05,304.46 806.95,304.46 807.85,304.46 808.74,303.92 809.63,35.00 810.52,304.46 811.43,304.46 812.32,303.92 813.21,304.46 814.11,35.00 815.00,35.00 815.88,304.46 816.78,304.46 817.67,303.92 818.57,304.46 819.47,303.92 820.36,35.00 821.24,35.00 822.13,35.00 823.02,303.38 823.90,293.12 824.79,293.12 825.67,304.46 826.56,304.46 827.45,258.83 828.35,303.92 829.23,304.46 830.12,35.00 831.01,35.00 831.90,304.46 832.79,303.38 833.69,35.00 834.58,303.92 835.46,304.46 836.35,303.92 837.25,303.92 838.13,304.46 839.02,304.46 839.92,304.46 840.81,304.46 841.69,304.46 842.59,35.00 843.48,297.44 844.37,35.00 845.25,303.92 846.14,35.00 847.06,304.46 847.95,304.46 848.86,304.46 849.76,304.46 850.65,304.46 851.54,303.92 852.44,303.92 853.33,303.92 854.22,35.00 855.11,304.46 856.01,304.46 856.92,303.92 857.81,304.46 858.70,35.00 859.59,304.46 860.48,35.00 861.38,304.46 862.27,302.84 863.15,35.00 864.04,303.92 864.93,304.46 865.82,304.46 866.71,303.92 867.59,304.46 868.49,304.46 869.37,35.00 870.26,303.92 871.15,304.46 872.03,303.38 872.92,304.46 873.83,304.46 874.71,303.92 875.60,304.46 876.49,303.92 877.38,303.92 878.26,304.46 879.16,35.00 880.04,303.92 880.95,304.46 881.84,35.00 882.72,304.46 883.61,304.46 884.50,303.92 885.39,35.00 886.27,35.00 887.18,303.92 888.09,304.46 888.99,35.00 889.90,35.00 890.80,35.00 891.72,303.92 892.63,304.46 893.54,303.92 894.46,303.92 895.37,304.46 896.28,303.92 897.17,35.00 898.05,304.46 898.95,304.46 899.85,304.46 900.74,303.92 901.63,35.00 902.53,304.46 903.42,304.46 904.31,303.38 905.21,35.00 906.09,304.46 906.98,303.92 907.87,304.46 908.75,35.00 909.64,303.92 910.54,304.46 911.43,304.46 912.31,304.46 913.22,293.66 914.11,293.12 915.00,293.12 915.89,293.66 916.78,303.92 917.67,304.46 918.56,304.46 919.45,304.46 920.34,304.46 921.23,303.92 922.13,304.46 923.01,304.46 923.90,304.46 924.80,304.46 925.68,303.92 926.58,35.00 927.53,35.00 928.45,303.92 929.34,302.84 930.23,303.92 931.11,303.38 932.02,304.46 932.92,303.92 933.81,303.92 934.71,304.46 935.59,303.92 936.46,304.46 937.35,304.46 938.24,303.92 939.13,303.92 940.03,304.46 940.91,304.46 941.81,304.46 942.71,303.92 943.60,35.00 944.48,35.00 945.37,304.46 946.26,303.38 947.16,304.46 948.05,304.46 948.93,304.46 949.82,304.46 950.72,35.00 951.61,303.92 952.50,35.00 953.43,35.00 954.33,303.92 955.22,304.46 956.10,303.92 956.99,304.46 957.89,304.46 958.78,304.46 959.68,304.46 960.56,303.92 961.46,303.92 962.35,304.46 963.25,35.00 964.15,303.92 965.05,303.92 965.94,303.38 966.82,304.46 967.72,35.00 968.60,304.46 969.50,304.46 970.38,304.46 971.29,303.92 972.18,303.92 973.07,303.92 973.96,304.46 974.84,304.46 975.74,304.46 976.63,304.46 977.51,304.46 978.40,304.46 979.29,303.92 980.19,304.46 981.07,304.46 981.96,35.00 982.85,304.46 983.75,304.46 984.64,304.46 985.53,304.46 986.42,35.00 987.30,303.92 988.18,303.92 989.07,303.92 989.97,35.00 990.86,303.92 991.77,303.92 992.66,35.00 993.56,304.46 994.45,248.57 995.34,259.37 996.25,269.09 997.20,293.12 998.11,282.59 999.01,270.17 999.91,282.05 1000.81,35.00 1001.70,304.46 1002.59,304.46 1003.48,303.92 1004.37,304.46 1005.26,304.46 1006.16,304.46 1007.05,303.38 1007.94,304.46 1008.85,304.46 1009.75,304.46 1010.64,304.46 1011.53,304.46 1012.42,304.46 1013.31,303.92 1014.21,303.92 1015.10,35.00 1015.99,303.92 1016.89,304.46 1017.78,303.92 1018.67,35.00 1019.57,35.00 1020.46,35.00 1021.36,303.92 1022.26,304.46 1023.15,304.46 1024.05,35.00 1024.93,35.00 1025.83,35.00 1026.72,35.00 1027.61,35.00 1028.49,304.46 1029.39,304.46 1030.27,304.46 1031.17,304.46 1032.07,304.46 1032.95,303.92 1033.84,35.00 1034.74,35.00 1035.63,304.46 1036.51,304.46 1037.41,304.46 1038.30,303.92 1039.21,304.46 1040.10,35.00 1040.97,304.46 1041.84,303.38 1042.72,304.46 1043.62,304.46 1044.51,303.92 1045.41,304.46 1046.31,304.46 1047.20,303.92 1048.10,303.92 1049.00,304.46 1049.89,303.92 1050.78,303.92 1051.66,304.46 1052.55,304.46 1053.43,35.00 1054.32,303.92 1055.21,303.92 1056.10,304.46 1056.99,35.00 1057.87,304.46 1058.76,303.92 1059.66,293.12 1060.55,304.46 1061.44,304.46 1062.32,35.00 1063.21,286.64 1064.07,259.37 1064.98,248.84 1065.87,35.00 1066.76,35.00 1067.66,303.92 1068.56,302.84 1069.45,304.46 1070.33,304.46 1071.23,303.92 1072.12,304.46 1073.01,35.00 1073.90,304.46 1074.86,303.92 1075.75,304.46 1076.65,303.92 1077.54,304.46 1078.44,304.46 1079.32,35.00 1080.21,303.38 1081.11,304.46 1082.00,304.46 1082.89,304.46 1083.77,302.84 1084.66,298.52 1085.56,35.00 1086.46,303.92 1087.35,304.46 1088.24,303.92 1089.13,35.00 1090.02,304.46 1090.91,304.46 1091.81,304.46 1092.71,304.46 1093.61,303.92 1094.52,304.46 1095.41,304.46 1096.30,304.46 1097.20,304.46 1098.10,303.92 1098.99,303.92 1099.88,304.46 1100.77,35.00 1101.66,303.92 1102.55,303.92 1103.44,303.38 1104.33,303.92 1105.23,303.92 1106.12,303.92 1107.01,35.00 1107.90,304.46 1108.79,304.46 1109.67,304.46 1110.56,303.92 1111.46,304.46 1112.34,304.46 1113.23,304.46 1114.13,304.46 1115.01,35.00 1115.89,304.46 1116.78,304.46 1117.67,35.00 1118.55,35.00 1119.44,303.92 1120.33,304.46 1121.22,304.46 1122.09,303.92 1122.99,304.46 1123.87,304.46 1124.77,35.00 1125.65,304.46 1126.54,303.92 1127.42,35.00 1128.30,304.46 1129.21,303.92 1130.09,35.00 1130.98,304.46 1131.87,304.46 1132.81,35.00 1133.69,303.92 1134.58,35.00 1135.48,35.00 1136.37,304.46 1137.27,304.46 1138.16,304.46 1139.05,304.46 1139.94,301.76 1140.83,35.00 1141.71,304.46 1142.60,35.00 1143.50,303.92 1144.39,304.46 1145.28,304.46 1146.16,293.12 1147.05,303.92 1147.94,35.00 1148.82,303.92 1149.72,304.46 1150.62,35.00 1151.55,304.46 1152.43,35.00 1153.32,304.46 1154.20,304.46 1155.08,304.46 1155.99,35.00 1156.87,304.46 1157.76,35.00 1158.66,304.46 1159.55,303.92 1160.44,304.46 1161.33,303.92 1162.22,303.92 1163.12,35.00 1164.00,304.46 1164.89,35.00 1165.79,303.92 1166.68,304.46 1167.56,303.92 1168.45,35.00 1169.33,303.92 1170.22,303.92 1171.11,303.92 1171.99,35.00 1172.89,304.46 1173.78,35.00 1174.67,304.46 1175.56,304.46 1176.45,304.46 1177.34,303.92 1178.22,304.46 1179.11,304.46 1180.00,35.00"/>
<polyline fill="none" stroke="#d62728" stroke-opacity="0.50" stroke-width="2" points="70.00,302.84 70.89,302.84 71.78,303.92 72.66,303.92 73.55,303.92 74.44,303.38 75.32,303.92 76.21,302.57 77.17,303.38 78.05,302.84 78.93,303.92 79.81,303.38 80.71,302.84 81.60,303.38 82.48,287.18 84.07,303.38 85.45,303.38 86.34,303.38 87.25,303.92 88.13,302.84 89.02,293.12 89.88,303.38 90.78,303.38 91.66,303.38 92.55,303.38 93.45,303.38 94.35,303.38 95.24,303.92 96.13,303.38 97.06,303.92 97.95,303.92 98.84,303.38 99.75,303.38 100.63,303.38 101.52,302.03 102.43,303.38 103.31,303.92 104.20,303.92 105.10,303.38 105.98,303.92 106.86,303.92 107.74,303.92 108.62,302.84 109.51,303.92 110.39,303.38 111.30,303.92 112.19,302.84 113.07,303.92 113.95,302.84 114.85,303.38 115.73,302.84 116.74,303.38 117.63,303.92 118.51,303.38 119.39,303.92 120.27,303.38 121.15,303.38 122.03,303.92 122.92,302.30 123.81,303.92 124.71,303.92 125.59,304.46 126.47,303.92 127.36,303.92 128.26,303.92 129.14,303.38 130.03,289.61 130.91,303.92 131.78,303.38 132.67,302.84 133.54,299.87 134.43,303.92 135.31,303.92 136.19,304.46 137.08,303.92 137.97,302.03 138.84,304.46 139.74,303.38 140.61,303.38 141.49,302.84 142.40,302.57 143.29,303.92 144.17,303.92 145.06,303.92 145.94,303.38 146.83,303.38 147.72,302.84 148.59,303.38 149.47,302.84 150.36,303.92 151.25,303.38 152.14,294.20 153.03,303.38 153.91,303.38 154.79,303.92 155.68,303.92 156.56,302.57 157.44,303.38 158.32,302.84 159.20,302.84 160.09,302.57 160.98,303.92 161.87,303.92 162.75,303.92 163.65,303.92 164.54,302.84 165.43,303.92 166.31,303.92 167.19,302.84 168.07,303.92 168.97,302.84 169.85,302.84 170.74,303.92 171.62,303.92 172.51,303.92 173.40,303.92 174.29,302.57 175.19,303.92 176.07,303.92 176.96,303.38 177.85,303.38 178.73,303.92 179.61,304.46 180.51,303.92 181.47,303.92 182.35,303.38 183.24,303.92 184.13,303.92 185.01,304.46 185.88,303.38 186.75,302.84 187.64,303.92 188.52,302.84 189.41,303.92 190.29,303.38 191.17,303.38 192.06,304.46 192.94,303.38 193.84,303.92 194.72,302.57 195.60,302.03 196.48,303.92 197.37,303.92 198.25,303.38 199.14,303.38 200.03,303.92 200.92,303.38 201.80,303.38 202.69,302.84 203.56,302.57 204.45,303.38 205.33,302.03 206.21,302.03 207.10,302.03 208.00,302.84 208.88,302.03 209.77,302.84 210.66,302.84 211.55,302.57 212.43,302.03 213.32,303.92 214.20,303.38 215.10,303.92 216.00,303.92 216.88,303.38 217.77,302.84 218.65,303.92 219.53,303.92 220.41,303.92 221.30,296.90 222.18,303.38 223.05,302.84 223.93,303.92 224.83,303.92 225.72,302.84 226.60,303.92 227.49,302.84 228.39,303.92 229.28,303.92 230.16,303.38 231.04,303.92 231.92,303.92 232.88,299.33 233.79,303.38 234.67,303.92 235.55,303.38 236.42,303.92 237.31,304.46 238.19,303.92 239.08,303.38 239.97,303.92 240.85,302.84 241.74,303.38 242.62,303.38 243.53,303.92 244.41,303.92 245.29,303.92 246.17,302.84 247.07,303.92 247.97,303.38 248.88,303.92 249.75,303.92 250.64,303.38 251.53,302.84 252.41,303.38 253.30,303.38 254.18,303.92 255.08,303.92 255.96,302.84 256.84,303.92 257.74,303.38 258.62,303.92 259.51,303.92 260.39,303.38 261.29,303.92 262.18,302.30 263.06,303.92 263.93,303.38 264.81,303.92 265.70,302.84 266.59,303.92 267.47,302.84 268.35,303.92 269.23,303.92 270.11,303.92 271.00,303.92 271.89,302.84 272.78,303.92 273.68,303.92 274.56,299.87 275.45,303.92 276.34,302.84 277.22,302.84 278.11,303.92 278.99,303.92 279.88,303.92 280.79,304.46 281.67,304.46 282.56,303.38 283.45,303.38 284.33,303.38 285.22,303.92 286.09,303.92 286.98,302.84 287.87,303.92 288.76,303.92 289.64,303.38 290.53,303.38 291.42,303.92 292.31,302.57 293.19,303.92 294.08,302.84 294.98,303.92 295.86,303.92 296.74,303.38 297.64,303.92 298.53,304.46 299.42,303.38 300.30,302.84 301.19,303.38 302.17,303.92 303.06,303.38 303.95,303.92 304.83,303.92 305.73,303.38 306.62,303.38 307.50,303.38 308.39,303.38 309.27,303.92 310.19,302.84 311.08,303.92 311.96,303.92 312.85,303.92 313.73,303.92 314.62,302.84 315.51,303.38 316.42,303.38 317.31,303.92 318.19,302.84 319.09,303.92 320.05,303.92 320.93,293.39 322.05,293.12 323.55,303.92 324.45,302.84 325.36,292.58 326.24,302.03 327.11,302.84 327.99,304.46 328.89,303.92 329.78,303.92 330.67,303.92 331.59,304.46 332.51,303.92 333.45,303.92 334.34,302.84 335.22,303.38 336.11,303.38 337.01,303.92 337.91,303.38 338.80,302.84 339.68,294.74 340.57,303.38 341.49,303.92 342.38,303.92 343.25,303.92 344.14,303.92 345.04,303.38 345.96,303.92 346.86,303.38 347.74,303.92 348.65,303.38 349.50,302.57 350.38,303.92 351.29,303.92 352.17,303.92 353.07,304.46 353.98,303.38 354.87,303.38 355.75,303.38 356.65,304.46 357.55,303.92 358.43,303.92 359.32,303.38 360.19,303.92 361.09,303.92 361.98,303.92 362.85,303.92 363.91,300.41 364.95,303.92 366.00,303.38 367.03,303.92 368.04,303.92 369.06,303.92 370.11,302.84 371.14,303.92 372.03,303.92 372.91,303.92 373.79,303.38 374.68,302.84 375.56,302.84 376.44,303.92 377.32,303.92 378.20,303.38 379.09,304.46 379.97,304.46 380.86,303.92 381.74,292.58 382.62,302.84 383.50,304.46 384.38,303.38 385.27,303.92 386.15,303.38 387.03,303.38 387.92,303.38 388.81,303.38 389.68,303.38 390.56,304.46 391.44,303.38 392.33,304.46 393.21,303.92 394.10,303.38 394.98,303.92 395.87,303.38 396.75,295.82 397.63,302.84 398.52,303.92 399.40,302.84 400.28,299.87 401.16,303.92 402.04,303.38 402.91,302.84 403.79,303.92 404.67,303.92 405.55,303.38 406.43,303.92 407.31,303.38 408.20,303.92 409.07,303.38 409.95,304.46 410.82,303.92 411.73,303.92 412.69,303.92 413.57,303.92 414.46,303.92 415.34,303.38 416.22,302.57 417.10,303.92 417.98,303.92 418.86,303.92 419.90,302.84 420.94,302.84 421.97,303.92 423.01,302.30 424.05,303.92 425.08,303.92 426.14,303.92 427.21,303.92 428.18,303.92 429.13,303.92 430.01,303.38 430.91,303.38 431.80,303.38 432.67,303.38 433.55,303.92 434.44,303.92 435.32,292.85 436.20,303.92 437.08,302.57 437.97,303.38 438.85,303.92 439.74,303.92 440.63,303.38 441.51,303.92 442.40,302.30 443.17,303.92 444.08,303.92 444.97,304.46 445.87,303.38 446.76,303.92 447.64,303.92 448.53,303.38 449.42,303.92 450.31,303.92 451.20,303.92 452.09,304.46 453.00,303.92 453.88,303.38 454.75,303.92 455.64,303.92 456.51,303.92 457.39,302.84 458.27,303.38 459.17,303.92 460.05,303.92 460.93,303.38 461.82,303.92 462.70,303.38 463.59,303.38 464.47,303.92 465.36,303.38 466.25,303.92 467.14,303.92 468.02,303.92 468.91,303.92 469.80,303.92 470.71,303.92 471.59,303.92 472.47,302.84 473.35,302.84 474.23,303.92 475.11,304.46 476.00,302.03 476.89,303.38 477.76,303.92 478.65,303.92 479.53,303.92 480.41,302.84 481.30,303.38 482.19,303.38 483.08,303.38 484.14,303.92 485.05,303.92 485.96,303.38 486.85,302.57 487.74,303.92 488.64,302.84 489.51,303.92 490.39,303.92 491.29,303.92 492.18,304.46 493.06,302.57 493.95,302.57 494.84,303.38 495.72,303.92 496.64,303.92 497.54,303.38 498.43,303.38 499.31,302.84 500.20,303.92 501.08,300.95 501.96,303.92 502.85,302.84 503.77,303.38 504.66,303.92 505.55,303.38 506.44,302.84 507.32,303.92 508.21,303.38 509.10,303.92 509.98,303.38 510.87,303.92 511.76,303.92 512.65,303.92 513.54,303.38 514.42,303.38 515.30,303.92 516.19,303.92 517.09,303.92 517.98,303.92 518.86,303.92 519.74,300.95 520.62,290.69 521.52,303.92 522.41,302.84 523.48,303.92 524.39,303.38 525.27,303.38 526.16,303.92 527.04,304.46 527.93,303.92 528.82,303.92 529.71,303.38 530.61,303.38 531.49,302.84 532.38,304.46 533.26,303.92 534.14,303.38 535.03,304.46 535.91,304.46 536.80,303.38 537.68,303.38 538.57,303.92 539.45,303.38 540.33,304.46 541.23,303.38 542.11,302.84 542.99,304.46 543.89,303.92 544.78,303.92 545.67,303.38 546.55,303.38 547.44,303.92 548.35,303.92 549.23,300.95 550.12,303.92 551.01,302.84 551.90,303.92 552.78,303.38 553.67,303.38 554.56,302.03 555.46,302.03 556.35,303.92 557.23,302.84 558.11,302.84 558.99,302.57 559.88,303.38 560.76,303.38 561.65,303.38 562.54,303.38 563.44,291.77 564.33,274.49 565.20,302.84 566.10,292.85 566.97,302.84 567.86,303.38 568.74,303.92 569.63,303.92 570.51,303.92 571.41,303.38 572.30,303.38 573.18,304.46 574.08,302.84 574.97,303.92 575.86,302.57 576.75,303.92 577.64,303.92 578.64,304.46 579.61,304.46 580.56,303.92 581.45,303.92 582.38,303.92 583.27,303.38 584.16,303.92 585.03,303.38 585.86,303.38 586.79,303.38 587.67,303.92 588.57,303.92 589.44,303.38 590.33,303.38 591.21,303.38 592.11,303.92 592.99,303.38 593.88,303.92 594.76,303.92 595.65,303.92 596.54,303.92 597.43,303.38 598.33,303.92 599.22,303.92 600.11,302.84 601.00,303.38 601.89,303.38 602.79,302.57 603.68,303.38 604.56,302.57 605.44,302.57 606.33,301.49 607.22,303.92 608.10,303.38 608.99,303.92 609.88,302.84 610.78,303.38 611.65,303.92 612.54,303.38 613.43,303.38 614.32,303.38 615.21,303.92 616.10,303.92 616.98,304.46 617.87,303.92 618.76,303.92 619.65,302.57 620.54,303.38 621.44,303.38 622.33,303.92 623.21,302.84 624.11,302.84 624.99,303.38 625.89,303.38 626.80,303.92 627.69,303.38 628.58,303.92 629.47,303.92 630.36,300.41 631.24,303.92 632.13,303.38 633.02,303.92 633.92,303.92 634.80,303.92 635.69,303.38 636.58,304.46 637.47,303.38 638.37,302.84 639.26,303.92 640.15,303.92 641.04,303.38 641.94,303.92 642.84,303.92 643.72,303.92 644.61,303.92 645.50,303.92 646.39,303.38 647.30,302.84 648.19,303.92 649.08,303.38 649.97,303.92 650.85,303.92 651.74,303.38 652.63,303.92 653.52,303.92 654.41,303.38 655.30,303.92 656.18,303.38 657.07,302.84 657.96,303.38 658.86,302.03 659.75,292.85 660.63,303.92 661.53,302.57 662.42,303.38 663.31,302.84 664.20,303.38 665.09,302.84 665.97,291.50 666.85,303.38 667.74,303.92 668.63,303.92 669.53,303.92 670.41,303.92 671.31,303.92 672.19,303.92 673.09,303.92 673.99,303.92 674.87,303.92 675.76,297.71 676.66,303.38 677.55,303.38 678.44,303.92 679.33,303.92 680.23,303.38 681.12,304.46 682.01,304.46 682.92,303.92 683.82,303.92 684.71,303.38 685.60,303.92 686.48,304.46 687.38,303.92 688.27,303.38 689.17,302.84 690.06,302.84 690.95,303.38 691.84,303.92 692.72,302.03 693.63,303.38 694.52,303.92 695.41,302.84 696.30,303.92 697.19,304.46 698.07,303.92 698.95,304.46 699.84,303.38 700.73,303.92 701.62,303.92 702.51,303.92 703.40,303.92 704.29,302.84 705.18,302.84 706.09,303.38 706.99,303.92 707.87,302.84 708.76,292.31 709.64,303.92 710.53,303.38 711.42,303.38 712.32,303.38 713.20,303.92 714.09,303.38 714.99,303.92 715.88,303.92 716.76,303.92 717.65,303.92 718.55,303.92 719.47,302.84 720.37,303.38 721.26,303.92 722.15,303.92 723.04,303.92 723.94,302.84 724.82,303.92 725.71,303.92 726.59,303.92 727.49,303.92 728.38,303.38 729.28,303.92 730.17,303.38 731.07,303.92 731.99,303.92 732.88,303.38 733.77,303.92 734.66,303.92 735.55,301.49 736.45,303.92 737.34,303.92 738.24,303.92 739.13,303.38 740.03,302.84 740.92,303.92 741.82,304.46 742.71,303.38 743.60,303.38 744.49,303.92 745.38,303.92 746.27,303.92 747.17,303.92 748.06,303.38 748.95,303.92 749.84,302.84 750.74,303.92 751.63,303.38 752.52,303.92 753.41,303.92 754.31,303.92 755.23,304.46 756.12,303.38 757.02,303.92 757.91,303.92 758.82,301.49 759.73,302.03 760.64,303.92 761.54,303.38 762.46,302.57 763.36,300.41 764.25,303.38 765.14,302.57 766.03,303.92 766.93,304.46 767.82,303.92 768.73,303.92 769.62,303.38 770.52,303.38 771.40,303.92 772.29,303.92 773.18,303.38 774.08,302.84 774.96,303.92 775.85,304.46 776.74,303.38 777.62,303.38 778.51,302.84 779.39,302.84 780.28,303.92 781.18,303.92 782.07,303.92 782.96,303.38 783.86,303.92 784.75,303.38 785.64,303.92 786.53,303.92 787.42,303.92 788.31,303.92 789.20,303.92 790.09,303.92 790.98,303.92 791.88,303.38 792.76,303.92 793.64,301.49 794.52,302.57 795.41,303.92 796.31,302.57 797.20,303.92 798.08,303.38 798.98,302.84 799.86,303.92 800.75,302.84 801.65,292.58 802.53,290.69 803.41,302.84 804.29,291.50 805.16,302.57 806.05,303.38 806.95,303.92 807.85,303.92 808.74,304.46 809.63,303.92 810.52,303.38 811.43,303.38 812.32,303.92 813.21,303.38 814.11,303.92 815.00,303.38 815.88,303.92 816.78,303.92 817.67,294.20 818.57,303.92 819.47,303.92 820.36,303.92 821.24,303.38 822.13,303.38 823.02,302.57 823.90,303.92 824.79,303.38 825.67,303.92 826.56,304.46 827.45,302.57 828.35,303.92 829.23,302.84 830.12,303.92 831.01,303.92 831.90,302.84 832.79,303.38 833.69,303.38 834.58,303.92 835.46,302.84 836.35,303.38 837.25,303.38 838.13,303.92 839.02,303.92 839.92,303.92 840.81,303.38 841.69,303.92 842.59,303.92 843.48,303.38 844.37,303.38 845.25,303.92 846.14,303.92 847.06,303.38 847.95,303.38 848.86,303.38 849.76,303.38 850.65,303.92 851.54,303.92 852.44,303.92 853.33,303.92 854.22,295.82 855.11,303.38 856.01,303.38 856.92,303.38 857.81,303.92 858.70,303.38 859.59,303.38 860.48,302.84 861.38,303.38 862.27,302.03 863.15,303.92 864.04,303.92 864.93,303.92 865.82,302.03 866.71,303.92 867.59,297.44 868.49,303.38 869.37,303.92 870.26,303.92 871.15,303.38 872.03,303.92 872.92,303.92 873.83,303.92 874.71,303.92 875.60,303.38 876.49,303.92 877.38,300.41 878.26,303.38 879.16,303.38 880.04,303.92 880.95,300.41 881.84,303.38 882.72,303.92 883.61,303.38 884.50,303.92 885.39,303.92 886.27,303.92 887.18,303.92 888.09,302.57 888.99,303.38 889.90,303.92 890.80,303.92 891.72,302.30 892.63,303.92 893.54,303.92 894.46,304.46 895.37,303.92 896.28,302.03 897.17,303.92 898.05,303.92 898.95,302.84 899.85,303.92 900.74,303.92 901.63,303.38 902.53,303.38 903.42,300.95 904.31,303.38 905.21,303.38 906.09,303.38 906.98,292.31 907.87,303.92 908.75,303.38 909.64,302.84 910.54,303.92 911.43,303.92 912.31,303.92 913.22,303.92 914.11,303.92 915.00,303.92 915.89,303.38 916.78,303.38 917.67,303.38 918.56,303.92 919.45,303.92 920.34,292.31 921.23,303.92 922.13,303.92 923.01,303.92 923.90,303.38 924.80,303.92 925.68,302.84 926.58,303.38 927.53,303.92 928.45,303.92 929.34,304.46 930.23,302.84 931.11,303.92 932.02,303.92 932.92,302.84 933.81,303.38 934.71,303.92 935.59,303.92 936.46,303.38 937.35,303.38 938.24,303.92 939.13,303.92 940.03,302.84 940.91,303.92 941.81,302.84 942.71,303.92 943.60,302.84 944.48,303.92 945.37,302.84 946.26,303.92 947.16,302.84 948.05,303.92 948.93,303.92 949.82,303.92 950.72,303.38 951.61,303.38 952.50,303.92 953.43,302.84 954.33,303.38 955.22,303.38 956.10,304.46 956.99,303.38 957.89,303.38 958.78,303.92 959.68,303.38 960.56,302.84 961.46,302.30 962.35,303.92 963.25,303.38 964.15,303.38 965.05,303.92 965.94,302.03 966.82,303.38 967.72,303.38 968.60,303.38 969.50,303.38 970.38,303.92 971.29,300.95 972.18,302.84 973.07,302.84 973.96,303.92 974.84,303.38 975.74,303.92 976.63,303.92 977.51,302.84 978.40,303.92 979.29,303.92 980.19,303.92 981.07,303.92 981.96,302.84 982.85,303.38 983.75,303.38 984.64,304.46 985.53,303.38 986.42,302.84 987.30,303.92 988.18,303.92 989.07,301.49 989.97,302.84 990.86,303.38 991.77,302.84 992.66,303.92 993.56,303.92 994.45,302.84 995.34,303.92 996.25,301.49 997.20,302.57 998.11,303.38 999.01,303.92 999.91,302.84 1000.81,303.92 1001.70,300.95 1002.59,303.38 1003.48,303.38 1004.37,302.84 1005.26,303.38 1006.16,303.38 1007.05,302.84 1007.94,303.38 1008.85,303.92 1009.75,292.85 1010.64,303.38 1011.53,303.92 1012.42,302.84 1013.31,303.92 1014.21,303.92 1015.10,303.38 1015.99,303.38 1016.89,303.38 1017.78,303.92 1018.67,302.57 1019.57,303.38 1020.46,303.38 1021.36,303.92 1022.26,303.38 1023.15,303.92 1024.05,303.92 1024.93,302.84 1025.83,303.92 1026.72,303.38 1027.61,303.92 1028.49,304.46 1029.39,303.38 1030.27,303.92 1031.17,303.92 1032.07,302.84 1032.95,303.92 1033.84,303.92 1034.74,303.92 1035.63,303.38 1036.51,303.38 1037.41,303.92 1038.30,303.92 1039.21,303.38 1040.10,292.58 1040.97,293.12 1041.84,302.84 1042.72,302.30 1043.62,303.92 1044.51,299.87 1045.41,303.92 1046.31,302.84 1047.20,301.49 1048.10,303.92 1049.00,303.38 1049.89,303.38 1050.78,303.92 1051.66,303.38 1052.55,302.84 1053.43,303.92 1054.32,303.92 1055.21,302.84 1056.10,303.92 1056.99,303.38 1057.87,302.84 1058.76,302.57 1059.66,303.38 1060.55,302.57 1061.44,302.57 1062.32,303.38 1063.21,302.30 1064.07,303.92 1064.98,303.92 1065.87,303.38 1066.76,303.92 1067.66,303.38 1068.56,303.38 1069.45,303.38 1070.33,303.38 1071.23,303.92 1072.12,303.92 1073.01,303.92 1073.90,303.92 1074.86,302.84 1075.75,302.03 1076.65,303.38 1077.54,303.92 1078.44,303.38 1079.32,303.92 1080.21,303.38 1081.11,303.92 1082.00,302.84 1082.89,303.92 1083.77,303.92 1084.66,304.46 1085.56,303.92 1086.46,303.38 1087.35,302.57 1088.24,303.38 1089.13,302.84 1090.02,304.46 1090.91,303.92 1091.81,303.38 1092.71,302.84 1093.61,301.49 1094.52,303.38 1095.41,303.92 1096.30,303.92 1097.20,303.92 1098.10,302.03 1098.99,303.92 1099.88,303.38 1100.77,303.92 1101.66,303.38 1102.55,303.92 1103.44,303.92 1104.33,276.92 1105.23,304.46 1106.12,303.38 1107.01,303.38 1107.90,303.38 1108.79,303.92 1109.67,303.38 1110.56,301.49 1111.46,304.46 1112.34,303.92 1113.23,303.92 1114.13,303.38 1115.01,303.38 1115.89,303.92 1116.78,303.38 1117.67,302.84 1118.55,302.03 1119.44,302.84 1120.33,303.38 1121.22,303.38 1122.09,303.38 1122.99,303.92 1123.87,303.92 1124.77,304.46 1125.65,303.92 1126.54,303.38 1127.42,303.38 1128.30,303.92 1129.21,303.38 1130.09,303.92 1130.98,303.92 1131.87,304.46 1132.81,303.38 1133.69,303.92 1134.58,302.57 1135.48,303.92 1136.37,303.92 1137.27,303.38 1138.16,303.38 1139.05,303.92 1139.94,303.38 1140.83,303.92 1141.71,304.46 1142.60,303.38 1143.50,303.92 1144.39,302.84 1145.28,303.92 1146.16,303.92 1147.05,302.57 1147.94,304.46 1148.82,303.38 1149.72,302.84 1150.62,303.92 1151.55,303.92 1152.43,303.38 1153.32,303.38 1154.20,303.38 1155.08,303.92 1155.99,303.38 1156.87,303.92 1157.76,303.38 1158.66,303.38 1159.55,303.92 1160.44,303.38 1161.33,303.38 1162.22,303.92 1163.12,303.38 1164.00,302.84 1164.89,303.92 1165.79,303.38 1166.68,303.38 1167.56,303.92 1168.45,302.84 1169.33,303.92 1170.22,303.92 1171.11,303.38 1171.99,303.92 1172.89,303.92 1173.78,303.92 1174.67,303.38 1175.56,303.38 1176.45,299.87 1177.34,303.38 1178.22,304.46 1179.11,303.38 1180.00,303.38"/>
<rect x="70" y="332" width="12" height="12" fill="#d62728" fill-opacity="0.95"/>
<text x="88" y="342" font-size="11" fill="#333" font-family="Arial, Helvetica, sans-serif">nsc1.utdallas.edu</text>
<rect x="350" y="332" width="12" height="12" fill="#d62728" fill-opacity="0.80"/>
<text x="368" y="342" font-size="11" fill="#333" font-family="Arial, Helvetica, sans-serif">nsc2.utdallas.edu</text>
<rect x="630" y="332" width="12" height="12" fill="#d62728" fill-opacity="0.65"/>
<text x="648" y="342" font-size="11" fill="#333" font-family="Arial, Helvetica, sans-serif">nsc3.utdallas.edu</text>
<rect x="910" y="332" width="12" height="12" fill="#d62728" fill-opacity="0.50"/>
<text x="928" y="342" font-size="11" fill="#333" font-family="Arial, Helvetica, sans-serif">nsc4.utdallas.edu</text>
</svg>