<?xml version="1.0" encoding="UTF-8"?>
<svg xmlns="http://www.w3.org/2000/svg" width="1200" height="360" viewBox="0 0 1200 360" role="img" aria-label="CPU Utilization (%)">
<rect width="100%" height="100%" fill="#ffffff"/>
<text x="600.0" y="22" text-anchor="middle" font-size="16" font-family="Arial, Helvetica, sans-serif" font-weight="bold">CPU Utilization (%)</text>
<line x1="70" y1="35.00" x2="1180" y2="35.00" stroke="#e3e3e3" stroke-width="1"/>
<text x="62" y="39.00" text-anchor="end" font-size="11" fill="#444" font-family="Arial, Helvetica, sans-serif">100</text>
<line x1="70" y1="89.00" x2="1180" y2="89.00" stroke="#e3e3e3" stroke-width="1"/>
<text x="62" y="93.00" text-anchor="end" font-size="11" fill="#444" font-family="Arial, Helvetica, sans-serif">80</text>
<line x1="70" y1="143.00" x2="1180" y2="143.00" stroke="#e3e3e3" stroke-width="1"/>
<text x="62" y="147.00" text-anchor="end" font-size="11" fill="#444" font-family="Arial, Helvetica, sans-serif">60</text>
<line x1="70" y1="197.00" x2="1180" y2="197.00" stroke="#e3e3e3" stroke-width="1"/>
<text x="62" y="201.00" text-anchor="end" font-size="11" fill="#444" font-family="Arial, Helvetica, sans-serif">40</text>
<line x1="70" y1="251.00" x2="1180" y2="251.00" stroke="#e3e3e3" stroke-width="1"/>
<text x="62" y="255.00" text-anchor="end" font-size="11" fill="#444" font-family="Arial, Helvetica, sans-serif">20</text>
<line x1="70" y1="305.00" x2="1180" y2="305.00" stroke="#e3e3e3" stroke-width="1"/>
<text x="62" y="309.00" text-anchor="end" font-size="11" fill="#444" font-family="Arial, Helvetica, sans-serif">0</text>
<line x1="70" y1="35" x2="70" y2="305" stroke="#999"/>
<line x1="70" y1="305" x2="1180" y2="305" stroke="#999"/>
<text x="70.00" y="323" text-anchor="middle" font-size="10" fill="#444" font-family="Arial, Helvetica, sans-serif">2026-02-11 16:38</text>
<text x="347.50" y="323" text-anchor="middle" font-size="10" fill="#444" font-family="Arial, Helvetica, sans-serif">2026-02-12 10:12</text>
<text x="625.00" y="323" text-anchor="middle" font-size="10" fill="#444" font-family="Arial, Helvetica, sans-serif">2026-02-13 03:46</text>
<text x="902.50" y="323" text-anchor="middle" font-size="10" fill="#444" font-family="Arial, Helvetica, sans-serif">2026-02-13 21:20</text>
<text x="1180.00" y="323" text-anchor="middle" font-size="10" fill="#444" font-family="Arial, Helvetica, sans-serif">2026-02-14 14:54</text>
<polyline fill="none" stroke="#d62728" stroke-opacity="0.95" stroke-width="2" points="71.42,304.46 72.84,298.79 74.25,296.90 75.67,303.92 77.10,304.73 78.51,304.46 79.93,303.92 81.47,304.73 82.87,303.92 84.28,304.46 85.69,303.92 87.13,304.46 88.54,304.46 89.95,303.92 92.50,304.46 94.70,303.92 96.13,304.46 97.58,303.92 98.99,300.95 100.41,304.73 101.79,278.27 103.22,303.92 104.64,304.46 106.06,294.74 107.49,304.46 108.93,303.92 110.35,301.49 111.77,303.92 113.26,295.28 114.69,294.20 116.11,303.65 117.56,304.46 118.98,304.46 120.39,303.92 121.85,303.65 123.26,302.30 124.68,303.92 126.12,304.46 127.52,303.92 128.94,304.73 130.34,304.73 131.75,304.46 133.17,303.38 134.58,304.46 136.03,303.92 137.46,303.38 138.86,304.46 140.27,297.71 141.70,297.44 143.12,48.23 144.74,303.92 146.16,303.92 147.57,304.46 148.97,303.65 150.38,303.65 151.79,304.46 153.19,304.46 154.62,303.92 156.03,304.46 157.47,303.92 158.88,304.46 160.28,304.46 161.71,299.60 163.15,303.65 164.56,303.92 165.98,304.73 167.38,303.92 168.78,304.73 170.19,304.46 171.60,304.46 173.01,304.46 174.43,303.92 175.83,304.73 177.25,303.92 178.67,304.46 180.07,304.73 181.50,303.38 182.90,303.38 184.31,303.65 185.76,304.46 187.17,303.65 188.59,304.73 190.01,304.46 191.42,304.46 192.84,304.73 194.26,303.92 195.66,303.92 197.06,304.46 198.49,304.73 199.91,299.60 201.33,303.65 202.76,304.46 204.15,304.73 205.57,303.65 206.98,303.92 208.40,304.46 209.80,304.46 211.22,303.92 212.62,303.92 214.05,303.92 215.46,304.46 216.88,303.92 218.30,303.92 219.73,298.79 221.16,303.65 222.57,304.46 223.98,304.73 225.40,304.73 226.80,304.46 228.23,304.46 229.65,304.46 231.06,304.46 232.48,302.84 233.90,304.46 235.32,304.46 236.75,304.46 238.19,304.46 239.59,304.46 241.01,304.46 242.43,303.65 243.84,304.73 245.26,303.38 246.68,304.46 248.22,304.46 249.63,304.73 251.06,303.92 252.47,303.92 253.88,304.46 255.28,299.87 256.67,304.46 258.09,304.73 259.50,295.01 260.92,304.46 262.33,303.92 263.74,303.92 265.15,303.92 266.56,304.46 268.00,303.65 269.41,304.46 270.82,304.46 272.23,304.46 273.65,303.92 275.05,303.92 276.48,303.92 277.90,304.73 279.32,304.46 280.73,304.46 282.15,303.92 283.55,304.46 284.96,303.65 286.37,303.92 287.78,303.65 289.21,304.73 290.64,304.46 292.05,304.46 293.47,304.46 294.90,303.11 296.32,303.38 297.72,304.46 299.14,304.46 300.56,304.46 302.00,303.65 303.43,303.92 304.84,304.46 306.26,297.71 307.67,294.20 309.07,303.92 310.48,304.46 311.90,303.65 313.31,297.71 314.71,304.46 316.12,303.92 317.55,304.46 318.97,304.46 320.39,303.92 321.80,303.38 323.25,304.73 324.66,303.92 326.08,303.38 327.48,303.92 328.89,304.46 330.43,304.46 331.88,303.92 333.28,304.73 334.69,304.46 336.08,304.46 337.51,304.73 338.92,304.46 340.34,304.73 341.76,35.00 343.17,303.65 344.58,303.11 346.00,297.17 347.45,304.46 348.86,304.46 350.26,304.46 351.68,303.92 353.11,303.65 354.55,304.46 356.00,303.11 357.40,304.73 358.82,304.46 360.24,303.92 361.64,304.73 363.07,304.46 364.48,303.92 365.92,304.73 367.33,304.46 368.73,304.46 370.16,304.46 371.58,303.92 372.99,303.65 374.41,304.46 375.84,303.65 377.26,304.46 378.67,301.76 380.07,302.03 381.48,304.46 382.90,304.46 384.31,304.46 385.72,35.00 387.14,303.65 388.54,303.92 389.95,304.46 391.37,304.46 392.79,303.65 394.21,304.46 395.65,304.73 397.07,304.46 398.49,304.73 399.90,35.00 401.32,304.73 402.73,303.65 404.15,304.46 405.57,303.65 407.02,304.73 408.44,300.68 409.86,303.65 411.27,303.92 412.68,304.46 414.10,304.46 415.50,304.46 416.92,304.46 418.34,304.73 419.76,304.73 421.18,304.73 422.60,303.65 424.02,303.92 425.43,303.92 426.85,304.73 428.28,35.00 429.71,304.46 431.12,303.92 432.53,304.73 433.96,303.92 435.39,304.73 436.81,303.92 438.22,304.46 439.63,303.92 441.21,304.73 442.63,304.46 444.05,303.65 445.47,304.46 446.90,304.46 448.32,303.92 449.74,304.46 451.16,303.65 452.56,304.73 454.02,295.28 455.46,297.17 456.86,304.46 458.27,304.46 459.69,304.46 461.11,304.73 462.53,304.46 464.00,303.65 465.41,304.46 466.83,303.92 468.26,304.73 469.79,304.73 471.21,304.73 472.99,303.65 475.38,304.46 476.83,303.92 478.28,303.92 479.69,304.73 481.08,304.46 482.49,303.92 483.93,303.65 485.35,304.46 486.78,304.73 488.25,303.92 489.72,35.00 491.22,303.65 492.64,304.46 494.06,304.73 495.47,303.92 496.91,303.92 498.34,303.65 499.77,304.46 501.18,303.92 502.59,304.46 504.07,304.46 505.50,304.46 506.89,304.46 508.32,304.46 509.76,303.92 511.23,304.46 512.65,303.92 514.07,303.92 515.53,303.65 516.88,303.92 518.29,303.65 519.73,303.92 521.14,303.92 522.58,303.92 524.04,303.11 525.47,303.92 526.88,303.92 528.31,304.46 529.74,304.46 531.16,303.65 532.57,304.73 533.98,299.06 535.40,304.73 536.83,304.46 538.23,48.23 539.92,48.50 541.59,48.77 543.26,48.50 544.91,48.23 546.53,48.50 548.16,48.50 549.84,48.77 551.49,304.46 552.91,304.46 554.31,304.46 555.72,303.92 557.13,304.46 558.55,304.46 559.96,303.92 561.36,304.19 562.77,303.65 564.19,304.73 565.60,303.92 567.02,303.92 568.42,304.46 569.84,304.73 571.24,304.73 572.65,304.46 574.06,304.46 575.48,304.46 576.88,303.92 578.30,304.46 579.73,304.73 581.13,303.65 582.53,304.46 583.94,35.00 585.35,304.46 586.77,304.46 588.19,304.73 589.60,304.46 591.01,304.73 592.43,35.00 593.84,304.46 595.25,304.46 596.67,304.73 598.07,303.92 599.48,303.92 600.88,303.92 602.27,303.38 603.69,304.73 605.10,303.65 606.50,304.46 607.91,303.92 609.32,304.46 610.73,304.73 612.13,303.92 613.53,303.38 614.92,304.73 616.38,303.65 617.90,304.73 619.33,304.73 620.74,304.46 622.15,303.92 623.56,303.65 624.96,297.44 626.36,297.71 627.77,48.50 629.45,48.50 631.10,48.50 632.75,48.23 634.41,48.50 636.08,48.23 637.73,48.50 639.41,48.77 641.13,295.82 642.68,297.17 644.19,304.73 645.61,303.92 647.04,303.92 648.46,304.73 649.86,303.92 651.27,304.46 652.68,304.46 654.09,304.46 655.51,304.46 656.91,304.46 658.33,304.73 659.74,303.11 661.15,304.73 662.59,303.92 664.00,304.46 665.41,304.73 666.64,304.46 668.10,303.92 669.52,304.73 670.97,304.73 672.38,304.73 673.79,303.92 675.21,35.00 676.64,304.73 678.06,304.73 679.49,304.46 680.91,304.73 682.36,303.65 683.76,304.46 685.16,304.73 686.58,304.73 687.98,304.73 689.39,35.00 690.79,303.92 692.22,303.92 693.63,303.92 695.05,303.65 696.46,304.46 697.86,304.46 699.29,303.92 700.70,304.46 702.12,304.46 703.55,304.73 704.96,303.92 706.37,301.22 707.80,304.46 709.22,304.46 710.68,304.46 712.08,303.65 713.49,304.46 714.90,304.73 716.30,304.46 717.71,300.68 719.14,303.92 720.55,304.73 721.95,304.46 723.37,304.73 724.78,303.38 726.19,303.92 727.61,304.73 729.04,304.73 730.45,303.92 732.16,303.92 733.61,303.92 735.06,303.65 736.49,304.46 737.91,302.84 739.34,304.46 740.74,304.46 742.15,303.92 743.58,303.92 745.01,303.11 746.41,304.73 747.84,304.46 749.26,304.46 750.67,304.46 752.14,304.73 753.58,304.73 754.99,304.46 756.41,304.73 757.83,304.73 759.24,302.57 760.65,302.84 762.07,301.22 763.54,303.92 764.96,304.46 766.39,304.46 767.80,304.46 769.21,303.92 770.64,304.73 772.05,304.46 773.47,304.46 774.89,303.92 776.31,304.46 777.73,304.46 779.15,304.46 780.56,297.44 781.97,303.92 783.39,304.46 784.83,304.46 786.25,300.68 787.66,303.92 789.07,289.07 790.48,303.65 791.92,302.03 793.34,302.84 795.05,302.84 796.50,304.46 797.92,304.46 799.34,303.92 800.74,304.73 802.17,303.92 803.59,303.92 805.01,303.65 806.45,304.46 807.86,303.92 809.27,304.73 810.68,304.46 812.10,304.46 813.51,303.92 814.92,304.73 816.35,304.46 817.76,304.73 819.17,304.46 820.58,304.73 821.99,304.73 823.43,303.92 824.84,304.46 826.25,304.73 827.68,304.46 829.11,304.46 830.52,304.73 831.93,304.46 833.35,303.38 834.81,303.92 836.22,304.73 837.64,304.73 839.06,303.92 840.48,303.92 841.89,304.46 843.31,303.92 844.73,303.92 846.19,304.73 847.60,303.92 849.01,304.46 850.41,303.92 851.82,304.46 853.24,304.73 854.66,303.92 856.07,304.73 857.50,304.46 858.94,304.73 860.36,298.79 861.75,303.92 863.18,303.92 864.59,304.46 866.01,304.46 867.42,303.65 868.84,303.65 870.25,304.73 871.68,303.92 873.10,303.92 874.52,235.88 875.95,236.69 877.38,236.69 878.80,236.69 880.22,236.15 881.65,232.10 883.24,227.51 884.79,228.59 886.31,222.65 887.74,236.42 889.22,236.15 890.64,235.61 892.06,236.69 893.46,236.69 894.79,236.15 896.27,235.61 897.68,236.15 899.12,236.42 900.51,233.18 901.94,236.69 903.34,236.42 904.78,236.15 906.18,235.61 907.61,235.88 909.02,236.42 910.44,236.42 911.86,236.96 913.29,236.42 914.72,235.61 916.15,236.69 917.57,236.15 918.99,236.42 920.41,242.63 921.86,255.86 923.28,236.69 924.68,235.88 926.10,236.15 927.52,236.42 928.93,235.88 930.34,236.15 931.77,236.96 933.18,236.15 934.62,236.69 936.03,236.96 937.44,236.15 938.86,236.96 940.28,236.15 941.71,236.42 943.14,234.53 944.54,236.15 945.97,236.69 947.39,236.69 948.81,235.34 950.24,236.15 951.67,236.15 953.09,235.61 954.51,236.69 955.94,236.96 957.35,235.61 958.79,232.91 960.25,234.26 961.67,236.42 963.09,236.42 964.51,236.15 965.93,236.96 967.34,236.15 968.77,236.69 970.19,236.96 971.62,234.53 973.03,236.42 974.46,236.69 975.88,236.42 977.30,236.15 978.74,236.42 980.16,235.88 981.59,236.15 983.01,236.96 984.44,235.61 985.88,235.88 987.30,235.88 988.71,236.42 990.14,236.42 991.56,236.69 993.01,236.69 994.44,236.42 995.87,235.61 997.29,236.15 998.70,236.15 1000.12,235.34 1001.54,236.69 1002.96,235.61 1004.39,236.69 1005.81,235.88 1007.22,236.69 1008.64,232.91 1010.07,235.88 1011.50,236.42 1012.92,235.88 1014.33,235.61 1015.77,236.69 1017.19,235.88 1018.62,236.42 1020.04,236.42 1021.45,236.69 1022.87,236.15 1024.28,235.88 1025.70,236.42 1027.12,235.61 1028.55,201.32 1029.98,236.69 1031.41,236.15 1032.82,236.42 1034.25,236.42 1035.69,235.61 1037.10,230.48 1038.53,235.34 1039.97,283.40 1041.38,236.69 1042.81,230.75 1044.23,236.69 1045.67,224.00 1047.10,236.42 1048.52,236.15 1049.97,235.61 1051.40,235.88 1052.83,236.15 1054.26,236.96 1055.67,230.48 1057.10,235.88 1058.53,236.15 1059.96,235.61 1061.39,243.17 1062.81,296.63 1064.23,236.15 1065.64,235.61 1067.10,236.69 1068.51,229.94 1069.95,229.94 1071.36,236.15 1072.78,236.42 1074.19,236.69 1075.60,235.61 1077.02,236.69 1078.45,236.69 1079.87,236.42 1081.29,236.15 1082.71,236.69 1084.13,236.69 1085.56,236.42 1087.02,231.29 1088.45,236.69 1089.86,236.15 1091.28,236.42 1092.69,235.88 1094.11,235.61 1095.53,235.61 1096.97,236.42 1098.39,236.96 1099.81,236.69 1101.24,236.69 1102.66,235.61 1104.08,235.88 1105.50,235.88 1106.94,236.69 1108.40,236.69 1109.84,235.61 1111.27,236.15 1112.70,283.13 1114.12,236.42 1115.56,236.69 1116.97,235.88 1118.38,236.15 1119.79,235.07 1121.23,236.42 1122.65,236.69 1124.09,236.15 1125.51,237.23 1126.95,236.15 1128.43,236.15 1129.85,236.15 1131.27,236.69 1132.70,236.69 1134.12,236.42 1135.55,236.69 1136.98,236.69 1138.42,235.61 1139.84,236.42 1141.28,235.34 1142.71,236.96 1144.14,235.61 1145.57,236.69 1146.99,236.69 1148.41,236.15 1149.84,236.42 1151.25,236.42 1152.69,296.90 1154.12,236.15 1155.55,235.61 1156.97,236.42 1158.40,236.42 1159.83,236.69 1161.25,236.69 1162.68,236.69 1164.11,236.69 1165.58,235.34 1167.01,235.88 1168.45,233.45 1169.87,236.15 1171.32,236.15 1172.78,235.07 1174.23,234.26 1175.68,234.26 1177.15,235.88 1178.58,290.15 1180.00,236.69"/>
<polyline fill="none" stroke="#d62728" stroke-opacity="0.80" stroke-width="2" points="70.00,303.38 71.42,304.19 72.84,302.57 74.25,303.38 75.67,304.19 77.10,287.72 78.51,303.38 79.93,304.19 81.47,304.19 82.87,303.38 84.28,303.38 85.69,304.19 87.13,304.19 88.54,304.19 89.95,304.19 92.50,304.19 94.70,302.57 96.13,304.19 97.58,304.19 98.99,304.19 100.41,303.38 101.79,303.38 103.22,304.19 104.64,302.57 106.06,302.57 107.49,303.38 108.93,303.38 110.35,304.19 111.77,303.38 113.26,35.00 114.69,303.38 116.11,35.00 117.56,35.00 118.98,303.38 120.39,304.19 121.85,35.00 123.26,303.38 124.68,302.57 126.12,304.19 127.52,303.38 128.94,303.38 130.34,302.57 131.75,304.19 133.17,303.38 134.58,303.38 136.03,302.57 137.46,303.38 138.86,35.00 140.27,303.38 141.70,304.19 143.12,304.19 144.74,302.57 146.16,35.00 147.57,304.19 148.97,303.38 150.38,304.19 151.79,303.38 153.19,303.38 154.62,304.19 156.03,35.00 157.47,304.19 158.88,304.19 160.28,304.19 161.71,303.38 163.15,304.19 164.56,302.57 165.98,304.19 167.38,302.57 168.78,302.57 170.19,303.38 171.60,288.80 173.01,302.57 174.43,304.19 175.83,304.19 177.25,303.38 178.67,304.19 180.07,300.14 181.50,304.19 182.90,304.19 184.31,304.19 185.76,35.00 187.17,35.00 188.59,302.57 190.01,35.00 191.42,35.00 192.84,303.38 194.26,304.19 195.66,35.00 197.06,304.19 198.49,304.19 199.91,304.19 201.33,304.19 202.76,303.38 204.15,303.38 205.57,304.19 206.98,304.19 208.40,303.38 209.80,286.91 211.22,303.38 212.62,304.19 214.05,304.19 215.46,304.19 216.88,303.38 218.30,304.19 219.73,304.19 221.16,303.38 222.57,302.57 223.98,302.57 225.40,304.19 226.80,302.57 228.23,304.19 229.65,304.19 231.06,304.19 232.48,35.00 233.90,304.19 235.32,304.19 236.75,302.57 238.19,35.00 239.59,35.00 241.01,303.38 242.43,304.19 243.84,303.38 245.26,304.19 246.68,304.19 248.22,302.57 249.63,304.19 251.06,35.00 252.47,35.00 253.88,302.57 255.28,304.19 256.67,304.19 258.09,303.38 259.50,35.00 260.92,303.38 262.33,35.00 263.74,304.19 265.15,304.19 266.56,304.19 268.00,303.38 269.41,303.38 270.82,304.19 272.23,304.19 273.65,295.28 275.05,35.00 276.48,303.38 277.90,35.00 279.32,35.00 280.73,302.57 282.15,304.19 283.55,299.33 284.96,304.19 286.37,304.19 287.78,304.19 289.21,303.38 290.64,303.38 292.05,303.38 293.47,302.57 294.90,303.38 296.32,304.19 297.72,303.38 299.14,304.19 300.56,303.38 302.00,304.19 303.43,303.38 304.84,303.38 306.26,302.57 307.67,303.38 309.07,304.19 310.48,303.38 311.90,35.00 313.31,304.19 314.71,303.38 316.12,302.57 317.55,304.19 318.97,304.19 320.39,303.38 321.80,303.38 323.25,304.19 324.66,35.00 326.08,303.38 327.48,35.00 328.89,302.57 330.43,303.38 331.88,304.19 333.28,35.00 334.69,303.38 336.08,35.00 337.51,304.19 338.92,304.19 340.34,35.00 341.76,304.19 343.17,302.57 344.58,302.57 346.00,303.38 347.45,35.00 348.86,302.57 350.26,304.19 351.68,301.76 353.11,303.38 354.55,303.38 356.00,304.19 357.40,303.38 358.82,303.38 360.24,304.19 361.64,304.19 363.07,303.38 364.48,304.19 365.92,304.19 367.33,303.38 368.73,35.00 370.16,304.19 371.58,303.38 372.99,304.19 374.41,304.19 375.84,304.19 377.26,35.00 378.67,35.00 380.07,302.57 381.48,302.57 382.90,304.19 384.31,303.38 385.72,302.57 387.14,302.57 388.54,35.00 389.95,304.19 391.37,35.00 392.79,303.38 394.21,35.00 395.65,303.38 397.07,303.38 398.49,303.38 399.90,35.00 401.32,304.19 402.73,302.57 404.15,303.38 405.57,304.19 407.02,303.38 408.44,35.00 409.86,303.38 411.27,304.19 412.68,303.38 414.10,304.19 415.50,35.00 416.92,302.57 418.34,304.19 419.76,304.19 421.18,303.38 422.60,303.38 424.02,304.19 425.43,303.38 426.85,304.19 428.28,304.19 429.71,304.19 431.12,303.38 432.53,302.57 433.96,304.19 435.39,35.00 436.81,295.28 438.22,303.38 439.63,302.57 441.21,303.38 442.63,301.76 444.05,35.00 445.47,304.19 446.90,303.38 448.32,304.19 449.74,304.19 451.16,299.33 452.56,304.19 454.02,303.38 455.46,302.57 456.86,303.38 458.27,302.57 459.69,304.19 461.11,304.19 462.53,304.19 464.00,302.57 465.41,303.38 466.83,303.38 468.26,35.00 469.79,303.38 471.21,303.38 472.99,304.19 475.38,302.57 476.83,303.38 478.28,303.38 479.69,303.38 481.08,304.19 482.49,303.38 483.93,304.19 485.35,304.19 486.78,303.38 488.25,304.19 489.72,304.19 491.22,304.19 492.64,304.19 494.06,302.57 495.47,35.00 496.91,304.19 498.34,302.57 499.77,303.38 501.18,303.38 502.59,303.38 504.07,304.19 505.50,304.19 506.89,303.38 508.32,304.19 509.76,303.38 511.23,304.19 512.65,303.38 514.07,304.19 515.53,287.18 516.88,288.53 518.29,301.76 519.73,302.57 521.14,303.38 522.58,35.00 524.04,35.00 525.47,303.38 526.88,303.38 528.31,304.19 529.74,304.19 531.16,35.00 532.57,304.19 533.98,35.00 535.40,303.38 536.83,303.38 538.23,302.57 539.92,303.38 541.59,303.38 543.26,300.95 544.91,303.38 546.53,302.57 548.16,304.19 549.84,304.19 551.49,35.00 552.91,303.38 554.31,303.38 555.72,304.19 557.13,304.19 558.55,302.57 559.96,303.38 561.36,304.19 562.77,303.38 564.19,303.38 565.60,304.19 567.02,303.38 568.42,304.19 569.84,303.38 571.24,303.38 572.65,304.19 574.06,303.38 575.48,35.00 576.88,304.19 578.30,304.19 579.73,303.38 581.13,304.19 582.53,304.19 583.94,35.00 585.35,303.38 586.77,304.19 588.19,304.19 589.60,304.19 591.01,302.57 592.43,35.00 593.84,303.38 595.25,287.72 596.67,304.19 598.07,304.19 599.48,303.38 600.88,301.76 602.27,303.38 603.69,304.19 605.10,302.57 606.50,303.38 607.91,303.38 609.32,303.38 610.73,303.38 612.13,304.19 613.53,303.38 614.92,302.57 616.38,304.19 617.90,303.38 619.33,303.38 620.74,303.38 622.15,303.38 623.56,304.19 624.96,304.19 626.36,304.19 627.77,304.19 629.45,303.38 631.10,303.38 632.75,304.19 634.41,302.57 636.08,304.19 637.73,303.38 639.41,302.57 641.13,304.19 642.68,303.38 644.19,303.38 645.61,303.38 647.04,302.57 648.46,35.00 649.86,35.00 651.27,304.19 652.68,303.38 654.09,35.00 655.51,35.00 656.91,303.38 658.33,304.19 659.74,304.19 661.15,304.19 662.59,303.38 664.00,304.19 665.41,304.19 666.64,304.19 668.10,304.19 669.52,287.72 670.97,303.38 672.38,302.57 673.79,303.38 675.21,303.38 676.64,304.19 678.06,304.19 679.49,303.38 680.91,302.57 682.36,304.19 683.76,303.38 685.16,302.57 686.58,304.19 687.98,301.76 689.39,304.19 690.79,304.19 692.22,303.38 693.63,303.38 695.05,304.19 696.46,303.38 697.86,301.76 699.29,304.19 700.70,304.19 702.12,304.19 703.55,35.00 704.96,303.38 706.37,304.19 707.80,304.19 709.22,304.19 710.68,304.19 712.08,35.00 713.49,35.00 714.90,302.57 716.30,304.19 717.71,35.00 719.14,304.19 720.55,303.38 721.95,302.57 723.37,302.57 724.78,304.19 726.19,303.38 727.61,304.19 729.04,303.38 730.45,301.76 732.16,304.19 733.61,304.19 735.06,304.19 736.49,302.57 737.91,304.19 739.34,304.19 740.74,304.19 742.15,303.38 743.58,304.19 745.01,303.38 746.41,35.00 747.84,302.57 749.26,304.19 750.67,302.57 752.14,304.19 753.58,303.38 754.99,304.19 756.41,303.38 757.83,35.00 759.24,302.57 760.65,303.38 762.07,304.19 763.54,304.19 764.96,304.19 766.39,304.19 767.80,303.38 769.21,304.19 770.64,304.19 772.05,304.19 773.47,304.19 774.89,304.19 776.31,304.19 777.73,302.57 779.15,304.19 780.56,303.38 781.97,304.19 783.39,304.19 784.83,304.19 786.25,304.19 787.66,35.00 789.07,304.19 790.48,301.76 791.92,217.79 793.34,304.19 795.05,35.00 796.50,303.38 797.92,302.57 799.34,304.19 800.74,303.38 802.17,304.19 803.59,303.38 805.01,304.19 806.45,304.19 807.86,303.38 809.27,35.00 810.68,35.00 812.10,304.19 813.51,302.57 814.92,304.19 816.35,304.19 817.76,304.19 819.17,303.38 820.58,304.19 821.99,302.57 823.43,304.19 824.84,35.00 826.25,35.00 827.68,303.38 829.11,304.19 830.52,303.38 831.93,300.95 833.35,304.19 834.81,304.19 836.22,304.19 837.64,303.38 839.06,303.38 840.48,302.57 841.89,35.00 843.31,303.38 844.73,35.00 846.19,35.00 847.60,303.38 849.01,304.19 850.41,302.57 851.82,304.19 853.24,304.19 854.66,303.38 856.07,303.38 857.50,296.09 858.94,304.19 860.36,304.19 861.75,304.19 863.18,302.57 864.59,35.00 866.01,303.38 867.42,304.19 868.84,302.57 870.25,302.57 871.68,303.38 873.10,35.00 874.52,303.38 875.95,303.38 877.38,304.19 878.80,304.19 880.22,303.38 881.65,304.19 883.24,303.38 884.79,303.38 886.31,302.57 887.74,304.19 889.22,303.38 890.64,303.38 892.06,304.19 893.46,35.00 894.79,303.38 896.27,287.18 897.68,304.19 899.12,286.37 900.51,302.57 901.94,304.19 903.34,304.19 904.78,304.19 906.18,304.19 907.61,304.19 909.02,35.00 910.44,303.38 911.86,304.19 913.29,35.00 914.72,304.19 916.15,304.19 917.57,303.38 918.99,304.19 920.41,304.19 921.86,303.38 923.28,303.38 924.68,304.19 926.10,304.19 927.52,304.19 928.93,304.19 930.34,302.57 931.77,35.00 933.18,35.00 934.62,304.19 936.03,303.38 937.44,304.19 938.86,304.19 940.28,304.19 941.71,304.19 943.14,304.19 944.54,301.76 945.97,303.38 947.39,302.57 948.81,304.19 950.24,35.00 951.67,304.19 953.09,304.19 954.51,303.38 955.94,35.00 957.35,304.19 958.79,304.19 960.25,304.19 961.67,35.00 963.09,304.19 964.51,304.19 965.93,303.38 967.34,303.38 968.77,35.00 970.19,35.00 971.62,303.38 973.03,304.19 974.46,302.57 975.88,302.57 977.30,304.19 978.74,295.28 980.16,303.38 981.59,304.19 983.01,304.19 984.44,303.38 985.88,35.00 987.30,304.19 988.71,302.57 990.14,35.00 991.56,302.57 993.01,303.38 994.44,304.19 995.87,303.38 997.29,304.19 998.70,35.00 1000.12,35.00 1001.54,302.57 1002.96,303.38 1004.39,295.28 1005.81,304.19 1007.22,304.19 1008.64,303.38 1010.07,303.38 1011.50,304.19 1012.92,304.19 1014.33,35.00 1015.77,303.38 1017.19,303.38 1018.62,304.19 1020.04,35.00 1021.45,304.19 1022.87,303.38 1024.28,35.00 1025.70,304.19 1027.12,303.38 1028.55,302.57 1029.98,304.19 1031.41,302.57 1032.82,304.19 1034.25,303.38 1035.69,304.19 1037.10,304.19 1038.53,304.19 1039.97,304.19 1041.38,304.19 1042.81,304.19 1044.23,303.38 1045.67,303.38 1047.10,304.19 1048.52,304.19 1049.97,304.19 1051.40,304.19 1052.83,303.38 1054.26,304.19 1055.67,304.19 1057.10,303.38 1058.53,303.38 1059.96,35.00 1061.39,303.38 1062.81,303.38 1064.23,304.19 1065.64,35.00 1067.10,302.57 1068.51,304.19 1069.95,287.18 1071.36,304.19 1072.78,35.00 1074.19,35.00 1075.60,304.19 1077.02,304.19 1078.45,304.19 1079.87,304.19 1081.29,303.38 1082.71,303.38 1084.13,303.38 1085.56,304.19 1087.02,35.00 1088.45,35.00 1089.86,35.00 1091.28,286.37 1092.69,302.57 1094.11,301.76 1095.53,303.38 1096.97,303.38 1098.39,286.37 1099.81,304.19 1101.24,304.19 1102.66,304.19 1104.08,304.19 1105.50,303.38 1106.94,35.00 1108.40,303.38 1109.84,304.19 1111.27,303.38 1112.70,303.38 1114.12,35.00 1115.56,304.19 1116.97,35.00 1118.38,303.38 1119.79,302.57 1121.23,303.38 1122.65,303.38 1124.09,303.38 1125.51,303.38 1126.95,303.38 1128.43,304.19 1129.85,35.00 1131.27,303.38 1132.70,304.19 1134.12,35.00 1135.55,35.00 1136.98,304.19 1138.42,303.38 1139.84,304.19 1141.28,304.19 1142.71,301.76 1144.14,304.19 1145.57,303.38 1146.99,304.19 1148.41,301.76 1149.84,304.19 1151.25,302.57 1152.69,302.57 1154.12,303.38 1155.55,304.19 1156.97,35.00 1158.40,35.00 1159.83,35.00 1161.25,303.38 1162.68,303.38 1164.11,304.19 1165.58,35.00 1167.01,302.57 1168.45,304.19 1169.87,35.00 1171.32,304.19 1172.78,304.19 1174.23,303.38 1175.68,303.38 1177.15,302.57 1178.58,304.19 1180.00,303.38"/>
<polyline fill="none" stroke="#d62728" stroke-opacity="0.65" stroke-width="2" points="70.00,35.00 71.42,304.46 72.84,304.46 74.25,302.30 75.67,304.46 77.10,303.38 78.51,304.46 79.93,304.46 81.47,35.00 82.87,304.46 84.28,304.46 85.69,303.92 87.13,303.92 88.54,304.46 89.95,304.46 92.50,303.92 94.70,304.46 96.13,35.00 97.58,303.92 98.99,302.84 100.41,304.46 101.79,303.92 103.22,302.84 104.64,35.00 106.06,303.92 107.49,35.00 108.93,35.00 110.35,35.00 111.77,303.92 113.26,35.00 114.69,303.38 116.11,303.92 117.56,304.46 118.98,35.00 120.39,35.00 121.85,304.46 123.26,35.00 124.68,304.46 126.12,35.00 127.52,304.46 128.94,303.92 130.34,35.00 131.75,304.46 133.17,304.46 134.58,293.12 136.03,35.00 137.46,304.46 138.86,304.46 140.27,304.46 141.70,35.00 143.12,304.46 144.74,304.46 146.16,304.46 147.57,35.00 148.97,35.00 150.38,304.46 151.79,304.46 153.19,303.38 154.62,303.92 156.03,304.46 157.47,35.00 158.88,304.46 160.28,304.46 161.71,35.00 163.15,304.46 164.56,303.92 165.98,304.46 167.38,304.46 168.78,35.00 170.19,303.92 171.60,303.92 173.01,304.46 174.43,303.92 175.83,303.92 177.25,35.00 178.67,303.92 180.07,304.46 181.50,304.46 182.90,303.38 184.31,35.00 185.76,304.46 187.17,303.38 188.59,304.46 190.01,35.00 191.42,304.46 192.84,304.46 194.26,303.92 195.66,303.92 197.06,303.92 198.49,304.46 199.91,303.92 201.33,304.46 202.76,303.92 204.15,35.00 205.57,303.92 206.98,303.92 208.40,304.46 209.80,304.46 211.22,303.92 212.62,303.92 214.05,35.00 215.46,35.00 216.88,303.92 218.30,35.00 219.73,304.46 221.16,304.46 222.57,304.46 223.98,304.46 225.40,303.92 226.80,304.46 228.23,303.38 229.65,304.46 231.06,303.92 232.48,35.00 233.90,304.46 235.32,303.92 236.75,303.92 238.19,303.92 239.59,304.46 241.01,35.00 242.43,304.46 243.84,304.46 245.26,35.00 246.68,303.92 248.22,304.46 249.63,303.92 251.06,304.46 252.47,304.46 253.88,303.92 255.28,303.92 256.67,304.46 258.09,304.46 259.50,304.46 260.92,303.38 262.33,304.46 263.74,35.00 265.15,303.92 266.56,35.00 268.00,304.46 269.41,35.00 270.82,35.00 272.23,303.92 273.65,303.92 275.05,304.46 276.48,304.46 277.90,304.46 279.32,303.92 280.73,304.46 282.15,304.46 283.55,303.92 284.96,35.00 286.37,304.46 287.78,35.00 289.21,303.92 290.64,304.46 292.05,304.46 293.47,35.00 294.90,35.00 296.32,35.00 297.72,304.46 299.14,303.92 300.56,304.46 302.00,303.92 303.43,303.92 304.84,304.46 306.26,304.46 307.67,304.46 309.07,304.46 310.48,304.46 311.90,304.46 313.31,304.46 314.71,282.59 316.12,304.46 317.55,303.92 318.97,304.46 320.39,304.46 321.80,304.46 323.25,303.38 324.66,304.46 326.08,304.46 327.48,303.92 328.89,304.46 330.43,303.92 331.88,304.46 333.28,304.46 334.69,304.46 336.08,304.46 337.51,304.46 338.92,303.38 340.34,304.46 341.76,304.46 343.17,304.46 344.58,303.92 346.00,35.00 347.45,304.46 348.86,303.92 350.26,303.92 351.68,303.92 353.11,35.00 354.55,304.46 356.00,304.46 357.40,35.00 358.82,303.92 360.24,35.00 361.64,35.00 363.07,304.46 364.48,304.46 365.92,35.00 367.33,35.00 368.73,304.46 370.16,304.46 371.58,303.92 372.99,303.92 374.41,304.46 375.84,304.46 377.26,304.46 378.67,303.92 380.07,304.46 381.48,304.46 382.90,303.92 384.31,303.38 385.72,304.46 387.14,35.00 388.54,304.46 389.95,35.00 391.37,35.00 392.79,303.92 394.21,303.92 395.65,304.46 397.07,304.46 398.49,304.46 399.90,303.92 401.32,297.98 402.73,35.00 404.15,304.46 405.57,303.92 407.02,304.46 408.44,303.92 409.86,35.00 411.27,303.92 412.68,304.46 414.10,35.00 415.50,303.92 416.92,304.46 418.34,304.46 419.76,35.00 421.18,303.92 422.60,303.92 424.02,35.00 425.43,303.92 426.85,303.92 428.28,35.00 429.71,303.92 431.12,304.46 432.53,303.92 433.96,304.46 435.39,303.92 436.81,35.00 438.22,304.46 439.63,35.00 441.21,35.00 442.63,303.92 444.05,303.38 445.47,303.38 446.90,303.38 448.32,35.00 449.74,304.46 451.16,304.46 452.56,304.46 454.02,35.00 455.46,304.46 456.86,304.46 458.27,304.46 459.69,35.00 461.11,304.46 462.53,304.46 464.00,293.66 465.41,303.92 466.83,304.46 468.26,303.92 469.79,304.46 471.21,35.00 472.99,304.46 475.38,304.46 476.83,304.46 478.28,304.46 479.69,35.00 481.08,304.46 482.49,304.46 483.93,303.92 485.35,35.00 486.78,304.46 488.25,35.00 489.72,303.38 491.22,304.46 492.64,304.46 494.06,35.00 495.47,35.00 496.91,304.46 498.34,35.00 499.77,304.46 501.18,304.46 502.59,304.46 504.07,35.00 505.50,303.92 506.89,35.00 508.32,304.46 509.76,304.46 511.23,297.98 512.65,304.46 514.07,35.00 515.53,293.12 516.88,35.00 518.29,303.92 519.73,35.00 521.14,304.46 522.58,304.46 524.04,303.92 525.47,304.46 526.88,304.46 528.31,303.92 529.74,303.92 531.16,304.46 532.57,303.92 533.98,35.00 535.40,304.46 536.83,304.46 538.23,304.46 539.92,304.46 541.59,303.92 543.26,304.46 544.91,304.46 546.53,303.38 548.16,303.92 549.84,303.92 551.49,304.46 552.91,35.00 554.31,35.00 555.72,304.46 557.13,304.46 558.55,303.92 559.96,304.46 561.36,303.92 562.77,35.00 564.19,304.46 565.60,304.46 567.02,304.46 568.42,304.46 569.84,293.12 571.24,304.46 572.65,35.00 574.06,303.92 575.48,303.92 576.88,304.46 578.30,304.46 579.73,35.00 581.13,303.92 582.53,304.46 583.94,304.46 585.35,304.46 586.77,35.00 588.19,297.98 589.60,303.92 591.01,303.38 592.43,304.46 593.84,35.00 595.25,302.84 596.67,303.92 598.07,35.00 599.48,35.00 600.88,303.92 602.27,302.84 603.69,304.46 605.10,303.38 606.50,35.00 607.91,304.46 609.32,304.46 610.73,304.46 612.13,303.92 613.53,304.46 614.92,35.00 616.38,304.46 617.90,303.92 619.33,35.00 620.74,303.92 622.15,303.92 623.56,304.46 624.96,304.46 626.36,304.46 627.77,303.92 629.45,304.46 631.10,304.46 632.75,303.92 634.41,304.46 636.08,303.92 637.73,303.92 639.41,304.46 641.13,303.92 642.68,303.92 644.19,303.92 645.61,35.00 647.04,35.00 648.46,35.00 649.86,303.92 651.27,304.46 652.68,304.46 654.09,304.46 655.51,304.46 656.91,304.46 658.33,35.00 659.74,304.46 661.15,303.38 662.59,35.00 664.00,35.00 665.41,303.92 666.64,282.32 668.10,282.05 669.52,304.46 670.97,35.00 672.38,303.38 673.79,304.46 675.21,35.00 676.64,35.00 678.06,35.00 679.49,303.92 680.91,304.46 682.36,304.46 683.76,303.92 685.16,35.00 686.58,303.38 687.98,303.92 689.39,304.46 690.79,303.92 692.22,304.46 693.63,304.46 695.05,304.46 696.46,304.46 697.86,304.46 699.29,303.92 700.70,303.92 702.12,303.92 703.55,304.46 704.96,304.46 706.37,35.00 707.80,35.00 709.22,304.46 710.68,304.46 712.08,304.46 713.49,303.92 714.90,35.00 716.30,303.92 717.71,35.00 719.14,303.92 720.55,304.46 721.95,35.00 723.37,304.46 724.78,35.00 726.19,304.46 727.61,303.92 729.04,304.46 730.45,302.84 732.16,303.92 733.61,303.92 735.06,304.46 736.49,304.46 737.91,303.38 739.34,303.92 740.74,299.06 742.15,35.00 743.58,304.46 745.01,303.92 746.41,304.46 747.84,35.00 749.26,303.92 750.67,303.92 752.14,304.46 753.58,303.92 754.99,35.00 756.41,304.46 757.83,35.00 759.24,303.92 760.65,35.00 762.07,303.38 763.54,304.46 764.96,304.46 766.39,35.00 767.80,304.46 769.21,304.46 770.64,304.46 772.05,303.92 773.47,35.00 774.89,303.38 776.31,304.46 777.73,304.46 779.15,35.00 780.56,304.46 781.97,35.00 783.39,304.46 784.83,304.46 786.25,291.50 787.66,303.92 789.07,304.46 790.48,304.46 791.92,303.38 793.34,303.92 795.05,303.38 796.50,303.92 797.92,35.00 799.34,35.00 800.74,304.46 802.17,303.38 803.59,304.46 805.01,35.00 806.45,303.92 807.86,304.46 809.27,35.00 810.68,303.92 812.10,35.00 813.51,304.46 814.92,304.46 816.35,35.00 817.76,304.46 819.17,304.46 820.58,35.00 821.99,304.46 823.43,304.46 824.84,304.46 826.25,303.92 827.68,35.00 829.11,304.46 830.52,304.46 831.93,35.00 833.35,304.46 834.81,303.38 836.22,35.00 837.64,304.46 839.06,304.46 840.48,303.92 841.89,304.46 843.31,304.46 844.73,304.46 846.19,304.46 847.60,304.46 849.01,304.46 850.41,303.92 851.82,304.46 853.24,303.92 854.66,304.46 856.07,35.00 857.50,304.46 858.94,304.46 860.36,303.92 861.75,35.00 863.18,304.46 864.59,304.46 866.01,304.46 867.42,304.46 868.84,303.92 870.25,304.46 871.68,304.46 873.10,35.00 874.52,304.46 875.95,303.92 877.38,35.00 878.80,35.00 880.22,303.92 881.65,281.24 883.24,304.46 884.79,304.46 886.31,35.00 887.74,303.92 889.22,303.92 890.64,304.46 892.06,304.46 893.46,303.92 894.79,293.12 896.27,303.92 897.68,292.58 899.12,294.20 900.51,293.12 901.94,303.92 903.34,304.46 904.78,303.92 906.18,303.38 907.61,304.46 909.02,304.46 910.44,304.46 911.86,303.92 913.29,35.00 914.72,35.00 916.15,35.00 917.57,35.00 918.99,304.46 920.41,35.00 921.86,304.46 923.28,303.92 924.68,304.46 926.10,303.92 927.52,303.92 928.93,304.46 930.34,303.92 931.77,304.46 933.18,304.46 934.62,35.00 936.03,304.46 937.44,304.46 938.86,35.00 940.28,303.92 941.71,35.00 943.14,303.92 944.54,35.00 945.97,304.46 947.39,35.00 948.81,304.46 950.24,304.46 951.67,303.92 953.09,304.46 954.51,35.00 955.94,303.92 957.35,304.46 958.79,304.46 960.25,304.46 961.67,304.46 963.09,303.92 964.51,302.84 965.93,304.46 967.34,304.46 968.77,304.46 970.19,304.46 971.62,303.92 973.03,304.46 974.46,303.38 975.88,35.00 977.30,35.00 978.74,303.38 980.16,35.00 981.59,304.46 983.01,303.92 984.44,304.46 985.88,303.92 987.30,304.46 988.71,35.00 990.14,35.00 991.56,35.00 993.01,303.92 994.44,303.92 995.87,303.92 997.29,304.46 998.70,303.92 1000.12,304.46 1001.54,304.46 1002.96,304.46 1004.39,304.46 1005.81,304.46 1007.22,304.46 1008.64,35.00 1010.07,304.46 1011.50,35.00 1012.92,304.46 1014.33,304.46 1015.77,304.46 1017.19,304.46 1018.62,303.92 1020.04,292.58 1021.45,304.46 1022.87,304.46 1024.28,303.92 1025.70,304.46 1027.12,304.46 1028.55,304.46 1029.98,303.92 1031.41,35.00 1032.82,304.46 1034.25,304.46 1035.69,304.46 1037.10,303.92 1038.53,304.46 1039.97,293.66 1041.38,292.04 1042.81,293.66 1044.23,293.12 1045.67,294.20 1047.10,293.12 1048.52,293.12 1049.97,292.58 1051.40,293.12 1052.83,293.39 1054.26,293.12 1055.67,293.12 1057.10,293.12 1058.53,293.12 1059.96,293.66 1061.39,292.58 1062.81,292.58 1064.23,293.66 1065.64,293.12 1067.10,292.58 1068.51,293.12 1069.95,294.20 1071.36,293.12 1072.78,293.12 1074.19,292.58 1075.60,294.20 1077.02,293.66 1078.45,281.51 1079.87,271.25 1081.29,293.66 1082.71,293.66 1084.13,293.12 1085.56,293.12 1087.02,293.66 1088.45,293.12 1089.86,293.66 1091.28,293.66 1092.69,293.66 1094.11,293.12 1095.53,293.66 1096.97,293.12 1098.39,292.04 1099.81,293.12 1101.24,293.12 1102.66,293.12 1104.08,292.58 1105.50,293.12 1106.94,293.12 1108.40,292.58 1109.84,292.58 1111.27,293.12 1112.70,293.12 1114.12,293.39 1115.56,293.12 1116.97,293.66 1118.38,293.12 1119.79,292.58 1121.23,293.66 1122.65,292.58 1124.09,293.12 1125.51,293.66 1126.95,294.20 1128.43,293.66 1129.85,293.66 1131.27,293.12 1132.70,293.12 1134.12,292.04 1135.55,293.12 1136.98,293.66 1138.42,293.12 1139.84,294.20 1141.28,293.66 1142.71,294.20 1144.14,293.12 1145.57,293.66 1146.99,282.05 1148.41,293.66 1149.84,293.66 1151.25,293.66 1152.69,293.12 1154.12,293.12 1155.55,293.12 1156.97,293.12 1158.40,293.66 1159.83,293.66 1161.25,293.66 1162.68,292.58 1164.11,293.66 1165.58,294.20 1167.01,293.12 1168.45,293.12 1169.87,294.20 1171.32,292.58 1172.78,294.20 1174.23,293.12 1175.68,293.66 1177.15,294.20 1178.58,294.20 1180.00,293.12"/>
<polyline fill="none" stroke="#d62728" stroke-opacity="0.50" stroke-width="2" points="70.00,302.84 71.42,302.84 72.84,303.92 74.25,303.92 75.67,303.92 77.10,303.38 78.51,303.92 79.93,302.57 81.47,303.38 82.87,302.84 84.28,303.92 85.69,303.38 87.13,302.84 88.54,303.38 89.95,287.18 92.50,303.38 94.70,303.38 96.13,303.38 97.58,303.92 98.99,302.84 100.41,293.12 101.79,303.38 103.22,303.38 104.64,303.38 106.06,303.38 107.49,303.38 108.93,303.38 110.35,303.92 111.77,303.38 113.26,303.92 114.69,303.92 116.11,303.38 117.56,303.38 118.98,303.38 120.39,302.03 121.85,303.38 123.26,303.92 124.68,303.92 126.12,303.38 127.52,303.92 128.94,303.92 130.34,303.92 131.75,302.84 133.17,303.92 134.58,303.38 136.03,303.92 137.46,302.84 138.86,303.92 140.27,302.84 141.70,303.38 143.12,302.84 144.74,303.38 146.16,303.92 147.57,303.38 148.97,303.92 150.38,303.38 151.79,303.38 153.19,303.92 154.62,302.30 156.03,303.92 157.47,303.92 158.88,304.46 160.28,303.92 161.71,303.92 163.15,303.92 164.56,303.38 165.98,289.61 167.38,303.92 168.78,303.38 170.19,302.84 171.60,299.87 173.01,303.92 174.43,303.92 175.83,304.46 177.25,303.92 178.67,302.03 180.07,304.46 181.50,303.38 182.90,303.38 184.31,302.84 185.76,302.57 187.17,303.92 188.59,303.92 190.01,303.92 191.42,303.38 192.84,303.38 194.26,302.84 195.66,303.38 197.06,302.84 198.49,303.92 199.91,303.38 201.33,294.20 202.76,303.38 204.15,303.38 205.57,303.92 206.98,303.92 208.40,302.57 209.80,303.38 211.22,302.84 212.62,302.84 214.05,302.57 215.46,303.92 216.88,303.92 218.30,303.92 219.73,303.92 221.16,302.84 222.57,303.92 223.98,303.92 225.40,302.84 226.80,303.92 228.23,302.84 229.65,302.84 231.06,303.92 232.48,303.92 233.90,303.92 235.32,303.92 236.75,302.57 238.19,303.92 239.59,303.92 241.01,303.38 242.43,303.38 243.84,303.92 245.26,304.46 246.68,303.92 248.22,303.92 249.63,303.38 251.06,303.92 252.47,303.92 253.88,304.46 255.28,303.38 256.67,302.84 258.09,303.92 259.50,302.84 260.92,303.92 262.33,303.38 263.74,303.38 265.15,304.46 266.56,303.38 268.00,303.92 269.41,302.57 270.82,302.03 272.23,303.92 273.65,303.92 275.05,303.38 276.48,303.38 277.90,303.92 279.32,303.38 280.73,303.38 282.15,302.84 283.55,302.57 284.96,303.38 286.37,302.03 287.78,302.03 289.21,302.03 290.64,302.84 292.05,302.03 293.47,302.84 294.90,302.84 296.32,302.57 297.72,302.03 299.14,303.92 300.56,303.38 302.00,303.92 303.43,303.92 304.84,303.38 306.26,302.84 307.67,303.92 309.07,303.92 310.48,303.92 311.90,296.90 313.31,303.38 314.71,302.84 316.12,303.92 317.55,303.92 318.97,302.84 320.39,303.92 321.80,302.84 323.25,303.92 324.66,303.92 326.08,303.38 327.48,303.92 328.89,303.92 330.43,299.33 331.88,303.38 333.28,303.92 334.69,303.38 336.08,303.92 337.51,304.46 338.92,303.92 340.34,303.38 341.76,303.92 343.17,302.84 344.58,303.38 346.00,303.38 347.45,303.92 348.86,303.92 350.26,303.92 351.68,302.84 353.11,303.92 354.55,303.38 356.00,303.92 357.40,303.92 358.82,303.38 360.24,302.84 361.64,303.38 363.07,303.38 364.48,303.92 365.92,303.92 367.33,302.84 368.73,303.92 370.16,303.38 371.58,303.92 372.99,303.92 374.41,303.38 375.84,303.92 377.26,302.30 378.67,303.92 380.07,303.38 381.48,303.92 382.90,302.84 384.31,303.92 385.72,302.84 387.14,303.92 388.54,303.92 389.95,303.92 391.37,303.92 392.79,302.84 394.21,303.92 395.65,303.92 397.07,299.87 398.49,303.92 399.90,302.84 401.32,302.84 402.73,303.92 404.15,303.92 405.57,303.92 407.02,304.46 408.44,304.46 409.86,303.38 411.27,303.38 412.68,303.38 414.10,303.92 415.50,303.92 416.92,302.84 418.34,303.92 419.76,303.92 421.18,303.38 422.60,303.38 424.02,303.92 425.43,302.57 426.85,303.92 428.28,302.84 429.71,303.92 431.12,303.92 432.53,303.38 433.96,303.92 435.39,304.46 436.81,303.38 438.22,302.84 439.63,303.38 441.21,303.92 442.63,303.38 444.05,303.92 445.47,303.92 446.90,303.38 448.32,303.38 449.74,303.38 451.16,303.38 452.56,303.92 454.02,302.84 455.46,303.92 456.86,303.92 458.27,303.92 459.69,303.92 461.11,302.84 462.53,303.38 464.00,303.38 465.41,303.92 466.83,302.84 468.26,303.92 469.79,303.92 471.21,293.39 472.99,293.12 475.38,303.92 476.83,302.84 478.28,292.58 479.69,302.03 481.08,302.84 482.49,304.46 483.93,303.92 485.35,303.92 486.78,303.92 488.25,304.46 489.72,303.92 491.22,303.92 492.64,302.84 494.06,303.38 495.47,303.38 496.91,303.92 498.34,303.38 499.77,302.84 501.18,294.74 502.59,303.38 504.07,303.92 505.50,303.92 506.89,303.92 508.32,303.92 509.76,303.38 511.23,303.92 512.65,303.38 514.07,303.92 515.53,303.38 516.88,302.57 518.29,303.92 519.73,303.92 521.14,303.92 522.58,304.46 524.04,303.38 525.47,303.38 526.88,303.38 528.31,304.46 529.74,303.92 531.16,303.92 532.57,303.38 533.98,303.92 535.40,303.92 536.83,303.92 538.23,303.92 539.92,300.41 541.59,303.92 543.26,303.38 544.91,303.92 546.53,303.92 548.16,303.92 549.84,302.84 551.49,303.92 552.91,303.92 554.31,303.92 555.72,303.38 557.13,302.84 558.55,302.84 559.96,303.92 561.36,303.92 562.77,303.38 564.19,304.46 565.60,304.46 567.02,303.92 568.42,292.58 569.84,302.84 571.24,304.46 572.65,303.38 574.06,303.92 575.48,303.38 576.88,303.38 578.30,303.38 579.73,303.38 581.13,303.38 582.53,304.46 583.94,303.38 585.35,304.46 586.77,303.92 588.19,303.38 589.60,303.92 591.01,303.38 592.43,295.82 593.84,302.84 595.25,303.92 596.67,302.84 598.07,299.87 599.48,303.92 600.88,303.38 602.27,302.84 603.69,303.92 605.10,303.92 606.50,303.38 607.91,303.92 609.32,303.38 610.73,303.92 612.13,303.38 613.53,304.46 614.92,303.92 616.38,303.92 617.90,303.92 619.33,303.92 620.74,303.92 622.15,303.38 623.56,302.57 624.96,303.92 626.36,303.92 627.77,303.92 629.45,302.84 631.10,302.84 632.75,303.92 634.41,302.30 636.08,303.92 637.73,303.92 639.41,303.92 641.13,303.92 642.68,303.92 644.19,303.92 645.61,303.38 647.04,303.38 648.46,303.38 649.86,303.38 651.27,303.92 652.68,303.92 654.09,292.85 655.51,303.92 656.91,302.57 658.33,303.38 659.74,303.92 661.15,303.92 662.59,303.38 664.00,303.92 665.41,302.30 666.64,303.92 668.10,303.92 669.52,304.46 670.97,303.38 672.38,303.92 673.79,303.92 675.21,303.38 676.64,303.92 678.06,303.92 679.49,303.92 680.91,304.46 682.36,303.92 683.76,303.38 685.16,303.92 686.58,303.92 687.98,303.92 689.39,302.84 690.79,303.38 692.22,303.92 693.63,303.92 695.05,303.38 696.46,303.92 697.86,303.38 699.29,303.38 700.70,303.92 702.12,303.38 703.55,303.92 704.96,303.92 706.37,303.92 707.80,303.92 709.22,303.92 710.68,303.92 712.08,303.92 713.49,302.84 714.90,302.84 716.30,303.92 717.71,304.46 719.14,302.03 720.55,303.38 721.95,303.92 723.37,303.92 724.78,303.92 726.19,302.84 727.61,303.38 729.04,303.38 730.45,303.38 732.16,303.92 733.61,303.92 735.06,303.38 736.49,302.57 737.91,303.92 739.34,302.84 740.74,303.92 742.15,303.92 743.58,303.92 745.01,304.46 746.41,302.57 747.84,302.57 749.26,303.38 750.67,303.92 752.14,303.92 753.58,303.38 754.99,303.38 756.41,302.84 757.83,303.92 759.24,300.95 760.65,303.92 762.07,302.84 763.54,303.38 764.96,303.92 766.39,303.38 767.80,302.84 769.21,303.92 770.64,303.38 772.05,303.92 773.47,303.38 774.89,303.92 776.31,303.92 777.73,303.92 779.15,303.38 780.56,303.38 781.97,303.92 783.39,303.92 784.83,303.92 786.25,303.92 787.66,303.92 789.07,300.95 790.48,290.69 791.92,303.92 793.34,302.84 795.05,303.92 796.50,303.38 797.92,303.38 799.34,303.92 800.74,304.46 802.17,303.92 803.59,303.92 805.01,303.38 806.45,303.38 807.86,302.84 809.27,304.46 810.68,303.92 812.10,303.38 813.51,304.46 814.92,304.46 816.35,303.38 817.76,303.38 819.17,303.92 820.58,303.38 821.99,304.46 823.43,303.38 824.84,302.84 826.25,304.46 827.68,303.92 829.11,303.92 830.52,303.38 831.93,303.38 833.35,303.92 834.81,303.92 836.22,300.95 837.64,303.92 839.06,302.84 840.48,303.92 841.89,303.38 843.31,303.38 844.73,302.03 846.19,302.03 847.60,303.92 849.01,302.84 850.41,302.84 851.82,302.57 853.24,303.38 854.66,303.38 856.07,303.38 857.50,303.38 858.94,291.77 860.36,274.49 861.75,302.84 863.18,292.85 864.59,302.84 866.01,303.38 867.42,303.92 868.84,303.92 870.25,303.92 871.68,303.38 873.10,303.38 874.52,304.46 875.95,302.84 877.38,303.92 878.80,302.57 880.22,303.92 881.65,303.92 883.24,304.46 884.79,304.46 886.31,303.92 887.74,303.92 889.22,303.92 890.64,303.38 892.06,303.92 893.46,303.38 894.79,303.38 896.27,303.38 897.68,303.92 899.12,303.92 900.51,303.38 901.94,303.38 903.34,303.38 904.78,303.92 906.18,303.38 907.61,303.92 909.02,303.92 910.44,303.92 911.86,303.92 913.29,303.38 914.72,303.92 916.15,303.92 917.57,302.84 918.99,303.38 920.41,303.38 921.86,302.57 923.28,303.38 924.68,302.57 926.10,302.57 927.52,301.49 928.93,303.92 930.34,303.38 931.77,303.92 933.18,302.84 934.62,303.38 936.03,303.92 937.44,303.38 938.86,303.38 940.28,303.38 941.71,303.92 943.14,303.92 944.54,304.46 945.97,303.92 947.39,303.92 948.81,302.57 950.24,303.38 951.67,303.38 953.09,303.92 954.51,302.84 955.94,302.84 957.35,303.38 958.79,303.38 960.25,303.92 961.67,303.38 963.09,303.92 964.51,303.92 965.93,300.41 967.34,303.92 968.77,303.38 970.19,303.92 971.62,303.92 973.03,303.92 974.46,303.38 975.88,304.46 977.30,303.38 978.74,302.84 980.16,303.92 981.59,303.92 983.01,303.38 984.44,303.92 985.88,303.92 987.30,303.92 988.71,303.92 990.14,303.92 991.56,303.38 993.01,302.84 994.44,303.92 995.87,303.38 997.29,303.92 998.70,303.92 1000.12,303.38 1001.54,303.92 1002.96,303.92 1004.39,303.38 1005.81,303.92 1007.22,303.38 1008.64,302.84 1010.07,303.38 1011.50,302.03 1012.92,292.85 1014.33,303.92 1015.77,302.57 1017.19,303.38 1018.62,302.84 1020.04,303.38 1021.45,302.84 1022.87,291.50 1024.28,303.38 1025.70,303.92 1027.12,303.92 1028.55,303.92 1029.98,303.92 1031.41,303.92 1032.82,303.92 1034.25,303.92 1035.69,303.92 1037.10,303.92 1038.53,297.71 1039.97,303.38 1041.38,303.38 1042.81,303.92 1044.23,303.92 1045.67,303.38 1047.10,304.46 1048.52,304.46 1049.97,303.92 1051.40,303.92 1052.83,303.38 1054.26,303.92 1055.67,304.46 1057.10,303.92 1058.53,303.38 1059.96,302.84 1061.39,302.84 1062.81,303.38 1064.23,303.92 1065.64,302.03 1067.10,303.38 1068.51,303.92 1069.95,302.84 1071.36,303.92 1072.78,304.46 1074.19,303.92 1075.60,304.46 1077.02,303.38 1078.45,303.92 1079.87,303.92 1081.29,303.92 1082.71,303.92 1084.13,302.84 1085.56,302.84 1087.02,303.38 1088.45,303.92 1089.86,302.84 1091.28,292.31 1092.69,303.92 1094.11,303.38 1095.53,303.38 1096.97,303.38 1098.39,303.92 1099.81,303.38 1101.24,303.92 1102.66,303.92 1104.08,303.92 1105.50,303.92 1106.94,303.92 1108.40,302.84 1109.84,303.38 1111.27,303.92 1112.70,303.92 1114.12,303.92 1115.56,302.84 1116.97,303.92 1118.38,303.92 1119.79,303.92 1121.23,303.92 1122.65,303.38 1124.09,303.92 1125.51,303.38 1126.95,303.92 1128.43,303.92 1129.85,303.38 1131.27,303.92 1132.70,303.92 1134.12,301.49 1135.55,303.92 1136.98,303.92 1138.42,303.92 1139.84,303.38 1141.28,302.84 1142.71,303.92 1144.14,304.46 1145.57,303.38 1146.99,303.38 1148.41,303.92 1149.84,303.92 1151.25,303.92 1152.69,303.92 1154.12,303.38 1155.55,303.92 1156.97,302.84 1158.40,303.92 1159.83,303.38 1161.25,303.92 1162.68,303.92 1164.11,303.92 1165.58,304.46 1167.01,303.38 1168.45,303.92 1169.87,303.92 1171.32,301.49 1172.78,302.03 1174.23,303.92 1175.68,303.38 1177.15,302.57 1178.58,300.41 1180.00,303.38"/>
<rect x="70" y="332" width="12" height="12" fill="#d62728" fill-opacity="0.95"/>
<text x="88" y="342" font-size="11" fill="#333" font-family="Arial, Helvetica, sans-serif">nsc1.utdallas.edu</text>
<rect x="350" y="332" width="12" height="12" fill="#d62728" fill-opacity="0.80"/>
<text x="368" y="342" font-size="11" fill="#333" font-family="Arial, Helvetica, sans-serif">nsc2.utdallas.edu</text>
<rect x="630" y="332" width="12" height="12" fill="#d62728" fill-opacity="0.65"/>
<text x="648" y="342" font-size="11" fill="#333" font-family="Arial, Helvetica, sans-serif">nsc3.utdallas.edu</text>
<rect x="910" y="332" width="12" height="12" fill="#d62728" fill-opacity="0.50"/>
<text x="928" y="342" font-size="11" fill="#333" font-family="Arial, Helvetica, sans-serif">nsc4.utdallas.edu</text>
</svg>