<?xml version="1.0" encoding="UTF-8"?>
<svg xmlns="http://www.w3.org/2000/svg" width="1200" height="360" viewBox="0 0 1200 360" role="img" aria-label="CPU Utilization (%)">
<rect width="100%" height="100%" fill="#ffffff"/>
<text x="600.0" y="22" text-anchor="middle" font-size="16" font-family="Arial, Helvetica, sans-serif" font-weight="bold">CPU Utilization (%)</text>
<line x1="70" y1="35.00" x2="1180" y2="35.00" stroke="#e3e3e3" stroke-width="1"/>
<text x="62" y="39.00" text-anchor="end" font-size="11" fill="#444" font-family="Arial, Helvetica, sans-serif">100</text>
<line x1="70" y1="89.00" x2="1180" y2="89.00" stroke="#e3e3e3" stroke-width="1"/>
<text x="62" y="93.00" text-anchor="end" font-size="11" fill="#444" font-family="Arial, Helvetica, sans-serif">80</text>
<line x1="70" y1="143.00" x2="1180" y2="143.00" stroke="#e3e3e3" stroke-width="1"/>
<text x="62" y="147.00" text-anchor="end" font-size="11" fill="#444" font-family="Arial, Helvetica, sans-serif">60</text>
<line x1="70" y1="197.00" x2="1180" y2="197.00" stroke="#e3e3e3" stroke-width="1"/>
<text x="62" y="201.00" text-anchor="end" font-size="11" fill="#444" font-family="Arial, Helvetica, sans-serif">40</text>
<line x1="70" y1="251.00" x2="1180" y2="251.00" stroke="#e3e3e3" stroke-width="1"/>
<text x="62" y="255.00" text-anchor="end" font-size="11" fill="#444" font-family="Arial, Helvetica, sans-serif">20</text>
<line x1="70" y1="305.00" x2="1180" y2="305.00" stroke="#e3e3e3" stroke-width="1"/>
<text x="62" y="309.00" text-anchor="end" font-size="11" fill="#444" font-family="Arial, Helvetica, sans-serif">0</text>
<line x1="70" y1="35" x2="70" y2="305" stroke="#999"/>
<line x1="70" y1="305" x2="1180" y2="305" stroke="#999"/>
<text x="70.00" y="323" text-anchor="middle" font-size="10" fill="#444" font-family="Arial, Helvetica, sans-serif">2026-02-11 16:38</text>
<text x="347.50" y="323" text-anchor="middle" font-size="10" fill="#444" font-family="Arial, Helvetica, sans-serif">2026-02-12 23:28</text>
<text x="625.00" y="323" text-anchor="middle" font-size="10" fill="#444" font-family="Arial, Helvetica, sans-serif">2026-02-14 06:18</text>
<text x="902.50" y="323" text-anchor="middle" font-size="10" fill="#444" font-family="Arial, Helvetica, sans-serif">2026-02-15 13:09</text>
<text x="1180.00" y="323" text-anchor="middle" font-size="10" fill="#444" font-family="Arial, Helvetica, sans-serif">2026-02-16 19:59</text>
<polyline fill="none" stroke="#d62728" stroke-opacity="0.95" stroke-width="2" points="70.81,304.46 71.62,298.79 72.42,296.90 73.23,303.92 74.05,304.73 74.85,304.46 75.66,303.92 76.53,304.73 77.33,303.92 78.14,304.46 78.94,303.92 79.76,304.46 80.56,304.46 81.36,303.92 82.81,304.46 84.07,303.92 84.88,304.46 85.71,303.92 86.51,300.95 87.32,304.73 88.11,278.27 88.92,303.92 89.73,304.46 90.54,294.74 91.35,304.46 92.18,303.92 92.99,301.49 93.80,303.92 94.64,295.28 95.46,294.20 96.26,303.65 97.09,304.46 97.90,304.46 98.70,303.92 99.54,303.65 100.34,302.30 101.14,303.92 101.97,304.46 102.76,303.92 103.57,304.73 104.37,304.73 105.17,304.46 105.98,303.38 106.78,304.46 107.61,303.92 108.42,303.38 109.22,304.46 110.03,297.71 110.84,297.44 111.65,48.23 112.57,303.92 113.38,303.92 114.18,304.46 114.98,303.65 115.79,303.65 116.59,304.46 117.39,304.46 118.20,303.92 119.00,304.46 119.82,303.92 120.63,304.46 121.43,304.46 122.24,299.60 123.06,303.65 123.86,303.92 124.67,304.73 125.47,303.92 126.27,304.73 127.07,304.46 127.87,304.46 128.68,304.46 129.48,303.92 130.28,304.73 131.09,303.92 131.90,304.46 132.70,304.73 133.51,303.38 134.31,303.38 135.11,303.65 135.94,304.46 136.74,303.65 137.55,304.73 138.36,304.46 139.16,304.46 139.97,304.73 140.78,303.92 141.58,303.92 142.38,304.46 143.19,304.73 144.00,299.60 144.80,303.65 145.62,304.46 146.41,304.73 147.22,303.65 148.03,303.92 148.83,304.46 149.63,304.46 150.44,303.92 151.24,303.92 152.05,303.92 152.86,304.46 153.67,303.92 154.47,303.92 155.29,298.79 156.10,303.65 156.91,304.46 157.71,304.73 158.51,304.73 159.32,304.46 160.13,304.46 160.94,304.46 161.74,304.46 162.55,302.84 163.36,304.46 164.17,304.46 164.98,304.46 165.80,304.46 166.60,304.46 167.41,304.46 168.22,303.65 169.02,304.73 169.83,303.38 170.64,304.46 171.51,304.46 172.32,304.73 173.13,303.92 173.94,303.92 174.74,304.46 175.54,299.87 176.33,304.46 177.14,304.73 177.94,295.01 178.75,304.46 179.55,303.92 180.35,303.92 181.16,303.92 181.96,304.46 182.78,303.65 183.58,304.46 184.39,304.46 185.19,304.46 186.00,303.92 186.80,303.92 187.61,303.92 188.42,304.73 189.23,304.46 190.04,304.46 190.84,303.92 191.64,304.46 192.44,303.65 193.25,303.92 194.05,303.65 194.86,304.73 195.68,304.46 196.48,304.46 197.29,304.46 198.10,303.11 198.91,303.38 199.71,304.46 200.52,304.46 201.33,304.46 202.15,303.65 202.97,303.92 203.77,304.46 204.58,297.71 205.38,294.20 206.18,303.92 206.98,304.46 207.79,303.65 208.59,297.71 209.39,304.46 210.19,303.92 211.01,304.46 211.81,304.46 212.62,303.92 213.43,303.38 214.25,304.73 215.06,303.92 215.86,303.38 216.66,303.92 217.46,304.46 218.34,304.46 219.17,303.92 219.97,304.73 220.77,304.46 221.56,304.46 222.37,304.73 223.18,304.46 223.99,304.73 224.80,35.00 225.60,303.65 226.40,303.11 227.21,297.17 228.04,304.46 228.84,304.46 229.64,304.46 230.44,303.92 231.26,303.65 232.08,304.46 232.91,303.11 233.71,304.73 234.51,304.46 235.32,303.92 236.12,304.73 236.93,304.46 237.74,303.92 238.56,304.73 239.36,304.46 240.16,304.46 240.97,304.46 241.78,303.92 242.59,303.65 243.39,304.46 244.21,303.65 245.02,304.46 245.82,301.76 246.62,302.03 247.42,304.46 248.23,304.46 249.04,304.46 249.84,35.00 250.64,303.65 251.44,303.92 252.25,304.46 253.06,304.46 253.86,303.65 254.67,304.46 255.49,304.73 256.30,304.46 257.11,304.73 257.91,35.00 258.72,304.73 259.53,303.65 260.34,304.46 261.14,303.65 261.97,304.73 262.78,300.68 263.59,303.65 264.39,303.92 265.19,304.46 266.00,304.46 266.80,304.46 267.61,304.46 268.42,304.73 269.23,304.73 270.03,304.73 270.84,303.65 271.65,303.92 272.46,303.92 273.27,304.73 274.08,35.00 274.89,304.46 275.70,303.92 276.50,304.73 277.31,303.92 278.13,304.73 278.94,303.92 279.74,304.46 280.55,303.92 281.44,304.73 282.25,304.46 283.06,303.65 283.87,304.46 284.68,304.46 285.49,303.92 286.30,304.46 287.11,303.65 287.91,304.73 288.74,295.28 289.56,297.17 290.36,304.46 291.16,304.46 291.97,304.46 292.78,304.73 293.59,304.46 294.42,303.65 295.23,304.46 296.04,303.92 296.85,304.73 297.72,304.73 298.53,304.73 299.55,303.65 300.91,304.46 301.74,303.92 302.56,303.92 303.36,304.73 304.15,304.46 304.96,303.92 305.78,303.65 306.59,304.46 307.40,304.73 308.24,303.92 309.07,35.00 309.93,303.65 310.74,304.46 311.55,304.73 312.35,303.92 313.17,303.92 313.99,303.65 314.80,304.46 315.60,303.92 316.41,304.46 317.25,304.46 318.06,304.46 318.86,304.46 319.67,304.46 320.49,303.92 321.33,304.46 322.14,303.92 322.95,303.92 323.78,303.65 324.55,303.92 325.35,303.65 326.17,303.92 326.97,303.92 327.79,303.92 328.63,303.11 329.44,303.92 330.24,303.92 331.06,304.46 331.87,304.46 332.68,303.65 333.49,304.73 334.29,299.06 335.10,304.73 335.91,304.46 336.71,48.23 337.67,48.50 338.62,48.77 339.57,48.50 340.51,48.23 341.43,48.50 342.36,48.50 343.32,48.77 344.26,304.46 345.07,304.46 345.87,304.46 346.67,303.92 347.48,304.46 348.28,304.46 349.08,303.92 349.89,304.19 350.69,303.65 351.49,304.73 352.30,303.92 353.10,303.92 353.91,304.46 354.71,304.73 355.51,304.73 356.32,304.46 357.12,304.46 357.93,304.46 358.72,303.92 359.53,304.46 360.35,304.73 361.14,303.65 361.94,304.46 362.75,35.00 363.55,304.46 364.36,304.46 365.16,304.73 365.97,304.46 366.77,304.73 367.58,35.00 368.38,304.46 369.19,304.46 369.99,304.73 370.79,303.92 371.60,303.92 372.39,303.92 373.19,303.38 373.99,304.73 374.80,303.65 375.59,304.46 376.40,303.92 377.20,304.46 378.00,304.73 378.80,303.92 379.60,303.38 380.39,304.73 381.22,303.65 382.09,304.73 382.90,304.73 383.71,304.46 384.51,303.92 385.31,303.65 386.11,297.44 386.91,297.71 387.71,48.50 388.66,48.50 389.61,48.50 390.55,48.23 391.49,48.50 392.44,48.23 393.38,48.50 394.34,48.77 395.32,295.82 396.20,297.17 397.07,304.73 397.87,303.92 398.69,303.92 399.49,304.73 400.29,303.92 401.09,304.46 401.90,304.46 402.70,304.46 403.51,304.46 404.31,304.46 405.12,304.73 405.92,303.11 406.73,304.73 407.54,303.92 408.35,304.46 409.15,304.73 409.85,304.46 410.69,303.92 411.49,304.73 412.31,304.73 413.12,304.73 413.92,303.92 414.73,35.00 415.55,304.73 416.36,304.73 417.17,304.46 417.98,304.73 418.80,303.65 419.60,304.46 420.40,304.73 421.21,304.73 422.01,304.73 422.81,35.00 423.61,303.92 424.42,303.92 425.22,303.92 426.03,303.65 426.84,304.46 427.64,304.46 428.45,303.92 429.25,304.46 430.06,304.46 430.88,304.73 431.68,303.92 432.48,301.22 433.30,304.46 434.11,304.46 434.94,304.46 435.74,303.65 436.54,304.46 437.34,304.73 438.14,304.46 438.94,300.68 439.76,303.92 440.56,304.73 441.36,304.46 442.17,304.73 442.97,303.38 443.77,303.92 444.58,304.73 445.39,304.73 446.20,303.92 447.17,303.92 448.00,303.92 448.82,303.65 449.64,304.46 450.44,302.84 451.26,304.46 452.06,304.46 452.86,303.92 453.68,303.92 454.49,303.11 455.29,304.73 456.10,304.46 456.91,304.46 457.72,304.46 458.55,304.73 459.37,304.73 460.18,304.46 460.98,304.73 461.79,304.73 462.60,302.57 463.40,302.84 464.21,301.22 465.05,303.92 465.86,304.46 466.67,304.46 467.47,304.46 468.28,303.92 469.09,304.73 469.89,304.46 470.70,304.46 471.51,303.92 472.32,304.46 473.13,304.46 473.94,304.46 474.74,297.44 475.55,303.92 476.35,304.46 477.17,304.46 477.98,300.68 478.78,303.92 479.59,289.07 480.39,303.65 481.21,302.03 482.02,302.84 482.99,302.84 483.82,304.46 484.63,304.46 485.44,303.92 486.24,304.73 487.05,303.92 487.86,303.92 488.67,303.65 489.49,304.46 490.29,303.92 491.10,304.73 491.90,304.46 492.71,304.46 493.51,303.92 494.32,304.73 495.13,304.46 495.93,304.73 496.73,304.46 497.54,304.73 498.34,304.73 499.16,303.92 499.96,304.46 500.76,304.73 501.58,304.46 502.40,304.46 503.20,304.73 504.00,304.46 504.81,303.38 505.64,303.92 506.44,304.73 507.25,304.73 508.07,303.92 508.87,303.92 509.67,304.46 510.48,303.92 511.29,303.92 512.12,304.73 512.93,303.92 513.73,304.46 514.53,303.92 515.33,304.46 516.14,304.73 516.95,303.92 517.75,304.73 518.57,304.46 519.39,304.73 520.20,298.79 520.99,303.92 521.80,303.92 522.60,304.46 523.41,304.46 524.22,303.65 525.03,303.65 525.83,304.73 526.65,303.92 527.45,303.92 528.26,235.88 529.07,236.69 529.89,236.69 530.70,236.69 531.51,236.15 532.32,232.10 533.23,227.51 534.11,228.59 534.98,222.65 535.79,236.42 536.63,236.15 537.44,235.61 538.25,236.69 539.05,236.69 539.81,236.15 540.65,235.61 541.46,236.15 542.27,236.42 543.07,233.18 543.88,236.69 544.68,236.42 545.50,236.15 546.30,235.61 547.11,235.88 547.91,236.42 548.72,236.42 549.53,236.96 550.34,236.42 551.16,235.61 551.97,236.69 552.78,236.15 553.59,236.42 554.40,242.63 555.23,255.86 556.04,236.69 556.84,235.88 557.64,236.15 558.45,236.42 559.25,235.88 560.06,236.15 560.87,236.96 561.68,236.15 562.50,236.69 563.30,236.96 564.10,236.15 564.91,236.96 565.72,236.15 566.53,236.42 567.35,234.53 568.15,236.15 568.96,236.69 569.77,236.69 570.58,235.34 571.39,236.15 572.21,236.15 573.02,235.61 573.82,236.69 574.64,236.96 575.44,235.61 576.26,232.91 577.09,234.26 577.90,236.42 578.71,236.42 579.52,236.15 580.33,236.96 581.14,236.15 581.95,236.69 582.76,236.96 583.57,234.53 584.37,236.42 585.19,236.69 586.00,236.42 586.81,236.15 587.62,236.42 588.43,235.88 589.25,236.15 590.06,236.96 590.87,235.61 591.69,235.88 592.50,235.88 593.31,236.42 594.12,236.42 594.93,236.69 595.75,236.69 596.57,236.42 597.38,235.61 598.19,236.15 599.00,236.15 599.80,235.34 600.61,236.69 601.42,235.61 602.24,236.69 603.04,235.88 603.85,236.69 604.66,232.91 605.47,235.88 606.29,236.42 607.09,235.88 607.90,235.61 608.72,236.69 609.53,235.88 610.34,236.42 611.15,236.42 611.96,236.69 612.76,236.15 613.56,235.88 614.37,236.42 615.19,235.61 616.00,201.32 616.81,236.69 617.63,236.15 618.43,236.42 619.25,236.42 620.06,235.61 620.87,230.48 621.68,235.34 622.50,283.40 623.31,236.69 624.12,230.75 624.93,236.69 625.75,224.00 626.56,236.42 627.37,236.15 628.20,235.61 629.02,235.88 629.83,236.15 630.64,236.96 631.44,230.48 632.26,235.88 633.07,236.15 633.89,235.61 634.70,243.17 635.51,296.63 636.32,236.15 637.12,235.61 637.96,236.69 638.76,229.94 639.58,229.94 640.39,236.15 641.19,236.42 642.00,236.69 642.80,235.61 643.60,236.69 644.42,236.69 645.23,236.42 646.04,236.15 646.85,236.69 647.66,236.69 648.47,236.42 649.30,231.29 650.12,236.69 650.92,236.15 651.73,236.42 652.53,235.88 653.34,235.61 654.15,235.61 654.97,236.42 655.78,236.96 656.59,236.69 657.40,236.69 658.21,235.61 659.02,235.88 659.83,235.88 660.65,236.69 661.48,236.69 662.30,235.61 663.12,236.15 663.93,283.13 664.74,236.42 665.56,236.69 666.36,235.88 667.17,236.15 667.97,235.07 668.79,236.42 669.60,236.69 670.42,236.15 671.23,237.23 672.05,236.15 672.89,236.15 673.70,236.15 674.51,236.69 675.32,236.69 676.13,236.42 676.95,236.69 677.76,236.69 678.58,235.61 679.39,236.42 680.21,235.34 681.02,236.96 681.84,235.61 682.65,236.69 683.46,236.69 684.27,236.15 685.08,236.42 685.89,236.42 686.71,296.90 687.53,236.15 688.34,235.61 689.15,236.42 689.96,236.42 690.78,236.69 691.59,236.69 692.40,236.69 693.21,236.69 694.05,235.34 694.86,235.88 695.68,233.45 696.49,236.15 697.32,236.15 698.15,235.07 698.98,234.26 699.80,234.26 700.64,235.88 701.46,290.15 702.27,236.69 703.08,236.42 703.89,236.15 704.70,236.42 705.52,235.34 706.35,236.69 707.16,236.15 707.97,236.69 708.78,235.88 709.59,236.15 710.40,236.69 711.22,236.42 712.02,236.96 712.83,231.83 713.64,236.42 714.45,236.42 715.26,236.42 716.06,236.42 716.87,236.15 717.68,236.69 718.50,236.42 719.30,232.64 720.12,235.88 720.94,237.23 721.75,236.42 722.56,235.88 723.37,236.42 724.18,283.94 724.99,236.15 725.80,236.42 726.61,236.42 727.43,236.42 728.23,290.42 729.03,236.42 729.84,236.69 730.65,236.42 731.46,236.15 732.27,236.69 733.08,235.88 733.89,234.53 734.70,235.34 735.51,236.69 736.33,236.42 737.13,236.15 737.93,236.42 738.73,235.61 739.53,236.69 740.34,236.42 741.15,235.34 741.98,235.88 742.78,236.15 743.59,235.61 744.41,236.69 745.23,236.15 746.05,235.61 746.85,236.15 747.67,235.07 748.48,236.15 749.29,235.61 750.11,236.69 750.92,236.15 751.74,235.61 752.56,290.15 753.37,236.42 754.17,236.69 754.98,236.15 755.79,235.61 756.60,236.42 757.41,236.69 758.20,235.88 759.02,235.88 759.83,235.88 760.64,236.69 761.45,236.15 762.26,236.15 763.07,236.42 763.88,235.34 764.69,235.88 765.50,236.15 766.31,236.15 767.12,235.61 767.93,236.42 768.75,236.96 769.56,235.34 770.37,236.42 771.18,236.15 771.99,236.15 772.80,235.88 773.61,236.42 774.43,233.18 775.24,236.69 776.04,235.88 776.85,236.15 777.69,236.69 778.50,236.15 779.32,235.88 780.14,232.91 780.96,236.15 781.77,283.67 782.58,236.42 783.40,235.88 784.21,234.80 785.01,235.34 785.83,236.15 786.66,234.53 787.48,236.69 788.28,236.42 789.10,236.69 789.90,236.96 790.72,235.88 791.53,236.42 792.34,236.69 793.15,235.61 793.96,236.42 794.77,236.42 795.58,236.69 796.38,236.15 797.20,236.42 798.00,236.15 798.81,235.61 799.62,236.15 800.43,235.07 801.24,236.15 802.06,236.69 802.87,231.83 803.67,235.61 804.48,285.02 805.30,236.69 806.10,236.15 806.92,236.69 807.72,231.29 808.55,283.13 809.36,236.42 810.16,234.53 810.97,235.88 811.78,236.69 812.59,236.42 813.40,229.40 814.22,236.69 815.05,235.34 815.87,235.88 816.70,236.15 817.52,235.61 818.35,236.15 819.19,236.69 820.01,236.69 820.85,236.15 821.68,229.94 822.51,236.42 823.32,236.42 824.13,235.34 824.94,230.75 825.76,236.15 826.57,236.15 827.39,236.69 828.20,236.96 829.02,235.88 829.83,235.34 830.64,236.15 831.44,235.88 832.25,235.61 833.06,236.69 833.87,235.07 834.68,231.83 835.49,236.69 836.31,235.88 837.11,236.15 837.94,236.42 838.75,236.42 839.56,232.91 840.37,236.69 841.18,235.88 841.99,236.15 842.80,231.02 843.62,290.69 844.43,236.69 845.23,232.64 846.05,243.71 846.86,236.69 847.67,236.69 848.48,235.88 849.29,236.15 850.11,235.88 850.97,235.61 851.81,234.53 852.61,236.15 853.43,235.61 854.23,262.88 855.06,230.21 855.88,236.69 856.69,230.21 857.51,236.42 858.31,235.61 859.10,236.69 859.92,236.15 860.72,236.42 861.54,236.69 862.35,233.18 863.16,236.15 863.97,236.69 864.79,236.15 865.61,236.69 866.41,236.69 867.22,236.42 868.03,235.61 868.84,236.15 869.66,236.15 870.46,236.15 871.27,235.07 872.09,236.42 872.90,231.56 873.72,236.69 874.56,235.61 875.37,236.69 876.18,235.61 876.99,235.61 877.80,235.34 878.62,236.42 879.43,236.42 880.25,236.42 881.05,296.90 881.87,236.42 882.68,236.69 883.51,249.38 884.32,236.15 885.14,236.15 885.95,235.88 886.76,236.42 887.57,236.15 888.38,232.91 889.19,235.88 890.00,236.69 890.82,235.34 891.63,236.42 892.44,236.42 893.25,235.61 894.06,236.15 894.87,236.15 895.68,236.69 896.49,236.69 897.30,236.15 898.11,235.88 898.93,236.96 899.73,235.88 900.54,236.96 901.35,236.42 902.17,235.34 902.98,236.15 903.79,232.10 904.60,236.69 905.40,236.15 906.21,297.17 907.02,236.42 907.84,236.42 908.65,236.42 909.48,236.42 910.29,230.75 911.10,236.15 911.92,236.69 912.73,235.88 913.55,236.42 914.42,236.15 915.25,231.83 916.07,235.07 916.89,234.80 917.71,235.88 918.52,270.17 919.33,236.15 920.14,236.42 920.95,243.17 921.76,236.69 922.58,235.34 923.39,236.69 924.20,236.69 925.03,236.96 925.85,236.69 926.66,236.69 927.47,235.88 928.28,236.15 929.10,236.69 929.91,236.15 930.72,234.80 931.53,236.69 932.35,236.15 933.16,236.42 933.98,236.42 934.79,235.34 935.61,236.69 936.42,236.69 937.24,236.69 938.05,236.69 938.87,236.15 939.67,235.88 940.49,236.69 941.31,236.69 942.11,236.15 942.92,236.69 943.73,291.23 944.54,235.61 945.36,236.69 946.17,236.15 946.98,236.15 947.79,235.61 948.60,235.34 949.42,236.15 950.22,236.42 951.04,236.69 951.85,236.42 952.68,235.61 953.49,236.69 954.28,236.69 955.08,236.42 955.88,236.15 956.70,236.15 957.51,236.42 958.33,236.42 959.15,236.42 959.96,236.69 960.78,235.88 961.60,235.61 962.40,236.69 963.22,236.42 964.02,236.15 964.83,236.42 965.63,234.26 966.44,235.88 967.25,233.99 968.07,235.88 968.87,235.88 969.68,235.07 970.49,236.42 971.30,236.15 972.11,236.42 972.92,236.42 973.73,236.42 974.53,289.61 975.32,236.69 976.15,235.61 976.96,235.88 977.77,236.69 978.59,236.15 979.41,236.69 980.22,236.69 981.02,236.69 981.84,236.42 982.65,236.69 983.46,236.69 984.27,236.15 985.15,236.15 985.95,236.15 986.78,236.15 987.59,236.42 988.41,236.69 989.21,236.15 990.02,236.15 990.84,235.61 991.65,236.42 992.46,236.69 993.27,236.42 994.08,236.42 994.89,236.42 995.71,236.15 996.52,236.42 997.33,236.96 998.14,236.69 998.96,236.42 999.77,236.42 1000.59,235.61 1001.40,230.21 1002.22,235.07 1003.05,236.69 1003.87,236.69 1004.68,236.69 1005.49,236.69 1006.31,236.69 1007.13,236.69 1007.94,235.61 1008.74,236.42 1009.55,235.88 1010.36,304.46 1011.17,303.11 1011.99,304.46 1012.80,304.46 1013.62,304.46 1014.43,304.46 1015.24,303.65 1016.04,304.46 1016.85,304.46 1017.66,304.46 1018.48,299.60 1019.28,303.92 1020.10,304.46 1020.91,304.73 1021.71,303.92 1022.51,304.46 1023.32,304.46 1024.13,304.46 1024.94,304.46 1025.74,304.46 1026.55,304.46 1027.36,304.73 1028.16,304.46 1028.98,303.92 1029.78,302.84 1030.60,304.73 1031.41,304.46 1032.21,304.46 1033.01,303.92 1033.82,304.46 1034.65,304.46 1035.45,304.46 1036.26,304.46 1037.07,304.46 1037.92,301.22 1038.72,304.73 1039.54,303.92 1040.36,304.73 1041.17,303.92 1041.98,304.46 1042.80,304.46 1043.61,304.73 1044.42,304.73 1045.23,304.46 1046.03,304.46 1046.84,304.73 1047.65,304.46 1048.47,303.65 1049.28,304.46 1050.08,304.46 1050.89,304.46 1051.70,304.73 1052.51,304.46 1053.32,304.73 1054.14,304.73 1054.99,304.46 1055.80,301.49 1056.60,304.46 1057.40,304.46 1058.20,303.92 1059.03,304.46 1059.83,297.44 1060.65,304.46 1061.46,304.73 1062.27,304.73 1063.09,304.73 1063.90,303.38 1064.71,304.46 1065.52,304.46 1066.33,303.11 1067.14,304.73 1067.96,303.65 1068.77,304.46 1069.57,301.76 1070.38,304.46 1071.18,297.44 1071.99,304.46 1072.80,304.46 1073.61,302.84 1074.42,304.73 1075.23,304.46 1076.04,304.46 1076.85,303.11 1077.67,304.46 1078.48,304.46 1079.28,303.92 1080.09,303.92 1080.90,304.46 1081.72,303.92 1082.52,303.92 1083.34,303.92 1084.15,304.46 1084.95,303.92 1085.76,303.92 1086.57,304.46 1087.38,303.38 1088.19,304.46 1089.02,304.73 1089.83,304.46 1090.64,304.46 1091.45,304.73 1092.26,304.73 1093.08,35.00 1093.90,303.92 1094.72,304.73 1095.58,300.95 1096.39,298.25 1097.26,303.92 1098.07,304.73 1098.88,304.46 1099.68,304.73 1100.49,304.46 1101.30,304.46 1102.12,304.46 1102.93,304.46 1103.74,297.17 1104.55,304.46 1105.36,303.92 1106.17,303.65 1106.97,304.46 1107.78,304.46 1108.59,303.65 1109.40,304.46 1110.20,304.19 1111.01,304.46 1111.83,304.73 1112.64,304.46 1113.46,304.46 1114.26,299.06 1115.06,303.38 1115.88,303.92 1116.68,304.46 1117.51,304.19 1118.32,303.65 1119.12,303.65 1119.94,303.65 1120.75,303.92 1121.55,303.65 1122.36,304.46 1123.17,303.65 1123.97,303.65 1124.78,304.73 1125.59,304.46 1126.39,304.73 1127.19,303.92 1128.01,304.46 1128.81,304.46 1129.63,303.92 1130.44,304.46 1131.28,304.46 1132.10,302.30 1132.90,302.03 1133.71,304.46 1134.52,297.17 1135.31,303.92 1136.12,304.46 1136.94,303.92 1137.74,303.65 1138.55,303.65 1139.35,303.92 1140.16,303.92 1140.96,303.65 1141.77,303.92 1142.58,303.92 1143.39,303.92 1144.19,304.73 1145.01,303.92 1145.81,304.46 1146.62,304.73 1147.44,301.76 1148.25,304.46 1149.06,303.92 1149.87,304.46 1150.68,304.46 1151.49,304.46 1152.31,303.92 1153.12,304.46 1153.94,303.92 1154.74,304.46 1155.55,304.46 1156.36,303.92 1157.17,304.46 1157.98,304.46 1158.81,301.76 1159.62,304.46 1160.44,303.92 1161.26,304.46 1162.07,303.65 1162.88,303.38 1163.68,304.46 1164.49,304.46 1165.31,303.92 1166.12,303.65 1166.92,304.73 1167.74,304.73 1168.55,304.73 1169.37,303.92 1170.18,304.73 1171.01,304.73 1171.84,302.84 1172.70,303.92 1173.52,304.46 1174.33,304.46 1175.13,303.11 1175.94,303.65 1176.75,303.65 1177.56,304.46 1178.37,304.73 1179.19,304.46 1180.00,303.65"/>
<polyline fill="none" stroke="#d62728" stroke-opacity="0.80" stroke-width="2" points="70.00,303.38 70.81,304.19 71.62,302.57 72.42,303.38 73.23,304.19 74.05,287.72 74.85,303.38 75.66,304.19 76.53,304.19 77.33,303.38 78.14,303.38 78.94,304.19 79.76,304.19 80.56,304.19 81.36,304.19 82.81,304.19 84.07,302.57 84.88,304.19 85.71,304.19 86.51,304.19 87.32,303.38 88.11,303.38 88.92,304.19 89.73,302.57 90.54,302.57 91.35,303.38 92.18,303.38 92.99,304.19 93.80,303.38 94.64,35.00 95.46,303.38 96.26,35.00 97.09,35.00 97.90,303.38 98.70,304.19 99.54,35.00 100.34,303.38 101.14,302.57 101.97,304.19 102.76,303.38 103.57,303.38 104.37,302.57 105.17,304.19 105.98,303.38 106.78,303.38 107.61,302.57 108.42,303.38 109.22,35.00 110.03,303.38 110.84,304.19 111.65,304.19 112.57,302.57 113.38,35.00 114.18,304.19 114.98,303.38 115.79,304.19 116.59,303.38 117.39,303.38 118.20,304.19 119.00,35.00 119.82,304.19 120.63,304.19 121.43,304.19 122.24,303.38 123.06,304.19 123.86,302.57 124.67,304.19 125.47,302.57 126.27,302.57 127.07,303.38 127.87,288.80 128.68,302.57 129.48,304.19 130.28,304.19 131.09,303.38 131.90,304.19 132.70,300.14 133.51,304.19 134.31,304.19 135.11,304.19 135.94,35.00 136.74,35.00 137.55,302.57 138.36,35.00 139.16,35.00 139.97,303.38 140.78,304.19 141.58,35.00 142.38,304.19 143.19,304.19 144.00,304.19 144.80,304.19 145.62,303.38 146.41,303.38 147.22,304.19 148.03,304.19 148.83,303.38 149.63,286.91 150.44,303.38 151.24,304.19 152.05,304.19 152.86,304.19 153.67,303.38 154.47,304.19 155.29,304.19 156.10,303.38 156.91,302.57 157.71,302.57 158.51,304.19 159.32,302.57 160.13,304.19 160.94,304.19 161.74,304.19 162.55,35.00 163.36,304.19 164.17,304.19 164.98,302.57 165.80,35.00 166.60,35.00 167.41,303.38 168.22,304.19 169.02,303.38 169.83,304.19 170.64,304.19 171.51,302.57 172.32,304.19 173.13,35.00 173.94,35.00 174.74,302.57 175.54,304.19 176.33,304.19 177.14,303.38 177.94,35.00 178.75,303.38 179.55,35.00 180.35,304.19 181.16,304.19 181.96,304.19 182.78,303.38 183.58,303.38 184.39,304.19 185.19,304.19 186.00,295.28 186.80,35.00 187.61,303.38 188.42,35.00 189.23,35.00 190.04,302.57 190.84,304.19 191.64,299.33 192.44,304.19 193.25,304.19 194.05,304.19 194.86,303.38 195.68,303.38 196.48,303.38 197.29,302.57 198.10,303.38 198.91,304.19 199.71,303.38 200.52,304.19 201.33,303.38 202.15,304.19 202.97,303.38 203.77,303.38 204.58,302.57 205.38,303.38 206.18,304.19 206.98,303.38 207.79,35.00 208.59,304.19 209.39,303.38 210.19,302.57 211.01,304.19 211.81,304.19 212.62,303.38 213.43,303.38 214.25,304.19 215.06,35.00 215.86,303.38 216.66,35.00 217.46,302.57 218.34,303.38 219.17,304.19 219.97,35.00 220.77,303.38 221.56,35.00 222.37,304.19 223.18,304.19 223.99,35.00 224.80,304.19 225.60,302.57 226.40,302.57 227.21,303.38 228.04,35.00 228.84,302.57 229.64,304.19 230.44,301.76 231.26,303.38 232.08,303.38 232.91,304.19 233.71,303.38 234.51,303.38 235.32,304.19 236.12,304.19 236.93,303.38 237.74,304.19 238.56,304.19 239.36,303.38 240.16,35.00 240.97,304.19 241.78,303.38 242.59,304.19 243.39,304.19 244.21,304.19 245.02,35.00 245.82,35.00 246.62,302.57 247.42,302.57 248.23,304.19 249.04,303.38 249.84,302.57 250.64,302.57 251.44,35.00 252.25,304.19 253.06,35.00 253.86,303.38 254.67,35.00 255.49,303.38 256.30,303.38 257.11,303.38 257.91,35.00 258.72,304.19 259.53,302.57 260.34,303.38 261.14,304.19 261.97,303.38 262.78,35.00 263.59,303.38 264.39,304.19 265.19,303.38 266.00,304.19 266.80,35.00 267.61,302.57 268.42,304.19 269.23,304.19 270.03,303.38 270.84,303.38 271.65,304.19 272.46,303.38 273.27,304.19 274.08,304.19 274.89,304.19 275.70,303.38 276.50,302.57 277.31,304.19 278.13,35.00 278.94,295.28 279.74,303.38 280.55,302.57 281.44,303.38 282.25,301.76 283.06,35.00 283.87,304.19 284.68,303.38 285.49,304.19 286.30,304.19 287.11,299.33 287.91,304.19 288.74,303.38 289.56,302.57 290.36,303.38 291.16,302.57 291.97,304.19 292.78,304.19 293.59,304.19 294.42,302.57 295.23,303.38 296.04,303.38 296.85,35.00 297.72,303.38 298.53,303.38 299.55,304.19 300.91,302.57 301.74,303.38 302.56,303.38 303.36,303.38 304.15,304.19 304.96,303.38 305.78,304.19 306.59,304.19 307.40,303.38 308.24,304.19 309.07,304.19 309.93,304.19 310.74,304.19 311.55,302.57 312.35,35.00 313.17,304.19 313.99,302.57 314.80,303.38 315.60,303.38 316.41,303.38 317.25,304.19 318.06,304.19 318.86,303.38 319.67,304.19 320.49,303.38 321.33,304.19 322.14,303.38 322.95,304.19 323.78,287.18 324.55,288.53 325.35,301.76 326.17,302.57 326.97,303.38 327.79,35.00 328.63,35.00 329.44,303.38 330.24,303.38 331.06,304.19 331.87,304.19 332.68,35.00 333.49,304.19 334.29,35.00 335.10,303.38 335.91,303.38 336.71,302.57 337.67,303.38 338.62,303.38 339.57,300.95 340.51,303.38 341.43,302.57 342.36,304.19 343.32,304.19 344.26,35.00 345.07,303.38 345.87,303.38 346.67,304.19 347.48,304.19 348.28,302.57 349.08,303.38 349.89,304.19 350.69,303.38 351.49,303.38 352.30,304.19 353.10,303.38 353.91,304.19 354.71,303.38 355.51,303.38 356.32,304.19 357.12,303.38 357.93,35.00 358.72,304.19 359.53,304.19 360.35,303.38 361.14,304.19 361.94,304.19 362.75,35.00 363.55,303.38 364.36,304.19 365.16,304.19 365.97,304.19 366.77,302.57 367.58,35.00 368.38,303.38 369.19,287.72 369.99,304.19 370.79,304.19 371.60,303.38 372.39,301.76 373.19,303.38 373.99,304.19 374.80,302.57 375.59,303.38 376.40,303.38 377.20,303.38 378.00,303.38 378.80,304.19 379.60,303.38 380.39,302.57 381.22,304.19 382.09,303.38 382.90,303.38 383.71,303.38 384.51,303.38 385.31,304.19 386.11,304.19 386.91,304.19 387.71,304.19 388.66,303.38 389.61,303.38 390.55,304.19 391.49,302.57 392.44,304.19 393.38,303.38 394.34,302.57 395.32,304.19 396.20,303.38 397.07,303.38 397.87,303.38 398.69,302.57 399.49,35.00 400.29,35.00 401.09,304.19 401.90,303.38 402.70,35.00 403.51,35.00 404.31,303.38 405.12,304.19 405.92,304.19 406.73,304.19 407.54,303.38 408.35,304.19 409.15,304.19 409.85,304.19 410.69,304.19 411.49,287.72 412.31,303.38 413.12,302.57 413.92,303.38 414.73,303.38 415.55,304.19 416.36,304.19 417.17,303.38 417.98,302.57 418.80,304.19 419.60,303.38 420.40,302.57 421.21,304.19 422.01,301.76 422.81,304.19 423.61,304.19 424.42,303.38 425.22,303.38 426.03,304.19 426.84,303.38 427.64,301.76 428.45,304.19 429.25,304.19 430.06,304.19 430.88,35.00 431.68,303.38 432.48,304.19 433.30,304.19 434.11,304.19 434.94,304.19 435.74,35.00 436.54,35.00 437.34,302.57 438.14,304.19 438.94,35.00 439.76,304.19 440.56,303.38 441.36,302.57 442.17,302.57 442.97,304.19 443.77,303.38 444.58,304.19 445.39,303.38 446.20,301.76 447.17,304.19 448.00,304.19 448.82,304.19 449.64,302.57 450.44,304.19 451.26,304.19 452.06,304.19 452.86,303.38 453.68,304.19 454.49,303.38 455.29,35.00 456.10,302.57 456.91,304.19 457.72,302.57 458.55,304.19 459.37,303.38 460.18,304.19 460.98,303.38 461.79,35.00 462.60,302.57 463.40,303.38 464.21,304.19 465.05,304.19 465.86,304.19 466.67,304.19 467.47,303.38 468.28,304.19 469.09,304.19 469.89,304.19 470.70,304.19 471.51,304.19 472.32,304.19 473.13,302.57 473.94,304.19 474.74,303.38 475.55,304.19 476.35,304.19 477.17,304.19 477.98,304.19 478.78,35.00 479.59,304.19 480.39,301.76 481.21,217.79 482.02,304.19 482.99,35.00 483.82,303.38 484.63,302.57 485.44,304.19 486.24,303.38 487.05,304.19 487.86,303.38 488.67,304.19 489.49,304.19 490.29,303.38 491.10,35.00 491.90,35.00 492.71,304.19 493.51,302.57 494.32,304.19 495.13,304.19 495.93,304.19 496.73,303.38 497.54,304.19 498.34,302.57 499.16,304.19 499.96,35.00 500.76,35.00 501.58,303.38 502.40,304.19 503.20,303.38 504.00,300.95 504.81,304.19 505.64,304.19 506.44,304.19 507.25,303.38 508.07,303.38 508.87,302.57 509.67,35.00 510.48,303.38 511.29,35.00 512.12,35.00 512.93,303.38 513.73,304.19 514.53,302.57 515.33,304.19 516.14,304.19 516.95,303.38 517.75,303.38 518.57,296.09 519.39,304.19 520.20,304.19 520.99,304.19 521.80,302.57 522.60,35.00 523.41,303.38 524.22,304.19 525.03,302.57 525.83,302.57 526.65,303.38 527.45,35.00 528.26,303.38 529.07,303.38 529.89,304.19 530.70,304.19 531.51,303.38 532.32,304.19 533.23,303.38 534.11,303.38 534.98,302.57 535.79,304.19 536.63,303.38 537.44,303.38 538.25,304.19 539.05,35.00 539.81,303.38 540.65,287.18 541.46,304.19 542.27,286.37 543.07,302.57 543.88,304.19 544.68,304.19 545.50,304.19 546.30,304.19 547.11,304.19 547.91,35.00 548.72,303.38 549.53,304.19 550.34,35.00 551.16,304.19 551.97,304.19 552.78,303.38 553.59,304.19 554.40,304.19 555.23,303.38 556.04,303.38 556.84,304.19 557.64,304.19 558.45,304.19 559.25,304.19 560.06,302.57 560.87,35.00 561.68,35.00 562.50,304.19 563.30,303.38 564.10,304.19 564.91,304.19 565.72,304.19 566.53,304.19 567.35,304.19 568.15,301.76 568.96,303.38 569.77,302.57 570.58,304.19 571.39,35.00 572.21,304.19 573.02,304.19 573.82,303.38 574.64,35.00 575.44,304.19 576.26,304.19 577.09,304.19 577.90,35.00 578.71,304.19 579.52,304.19 580.33,303.38 581.14,303.38 581.95,35.00 582.76,35.00 583.57,303.38 584.37,304.19 585.19,302.57 586.00,302.57 586.81,304.19 587.62,295.28 588.43,303.38 589.25,304.19 590.06,304.19 590.87,303.38 591.69,35.00 592.50,304.19 593.31,302.57 594.12,35.00 594.93,302.57 595.75,303.38 596.57,304.19 597.38,303.38 598.19,304.19 599.00,35.00 599.80,35.00 600.61,302.57 601.42,303.38 602.24,295.28 603.04,304.19 603.85,304.19 604.66,303.38 605.47,303.38 606.29,304.19 607.09,304.19 607.90,35.00 608.72,303.38 609.53,303.38 610.34,304.19 611.15,35.00 611.96,304.19 612.76,303.38 613.56,35.00 614.37,304.19 615.19,303.38 616.00,302.57 616.81,304.19 617.63,302.57 618.43,304.19 619.25,303.38 620.06,304.19 620.87,304.19 621.68,304.19 622.50,304.19 623.31,304.19 624.12,304.19 624.93,303.38 625.75,303.38 626.56,304.19 627.37,304.19 628.20,304.19 629.02,304.19 629.83,303.38 630.64,304.19 631.44,304.19 632.26,303.38 633.07,303.38 633.89,35.00 634.70,303.38 635.51,303.38 636.32,304.19 637.12,35.00 637.96,302.57 638.76,304.19 639.58,287.18 640.39,304.19 641.19,35.00 642.00,35.00 642.80,304.19 643.60,304.19 644.42,304.19 645.23,304.19 646.04,303.38 646.85,303.38 647.66,303.38 648.47,304.19 649.30,35.00 650.12,35.00 650.92,35.00 651.73,286.37 652.53,302.57 653.34,301.76 654.15,303.38 654.97,303.38 655.78,286.37 656.59,304.19 657.40,304.19 658.21,304.19 659.02,304.19 659.83,303.38 660.65,35.00 661.48,303.38 662.30,304.19 663.12,303.38 663.93,303.38 664.74,35.00 665.56,304.19 666.36,35.00 667.17,303.38 667.97,302.57 668.79,303.38 669.60,303.38 670.42,303.38 671.23,303.38 672.05,303.38 672.89,304.19 673.70,35.00 674.51,303.38 675.32,304.19 676.13,35.00 676.95,35.00 677.76,304.19 678.58,303.38 679.39,304.19 680.21,304.19 681.02,301.76 681.84,304.19 682.65,303.38 683.46,304.19 684.27,301.76 685.08,304.19 685.89,302.57 686.71,302.57 687.53,303.38 688.34,304.19 689.15,35.00 689.96,35.00 690.78,35.00 691.59,303.38 692.40,303.38 693.21,304.19 694.05,35.00 694.86,302.57 695.68,304.19 696.49,35.00 697.32,304.19 698.15,304.19 698.98,303.38 699.80,303.38 700.64,302.57 701.46,304.19 702.27,303.38 703.08,303.38 703.89,304.19 704.70,35.00 705.52,304.19 706.35,35.00 707.16,304.19 707.97,303.38 708.78,35.00 709.59,302.57 710.40,303.38 711.22,298.52 712.02,303.38 712.83,304.19 713.64,303.38 714.45,304.19 715.26,304.19 716.06,35.00 716.87,304.19 717.68,304.19 718.50,35.00 719.30,304.19 720.12,303.38 720.94,304.19 721.75,35.00 722.56,303.38 723.37,303.38 724.18,304.19 724.99,304.19 725.80,304.19 726.61,304.19 727.43,298.52 728.23,303.38 729.03,302.57 729.84,304.19 730.65,302.57 731.46,303.38 732.27,304.19 733.08,304.19 733.89,303.38 734.70,303.38 735.51,304.19 736.33,304.19 737.13,35.00 737.93,35.00 738.73,304.19 739.53,304.19 740.34,303.38 741.15,303.38 741.98,301.76 742.78,304.19 743.59,304.19 744.41,284.75 745.23,303.38 746.05,303.38 746.85,304.19 747.67,304.19 748.48,304.19 749.29,303.38 750.11,303.38 750.92,304.19 751.74,303.38 752.56,303.38 753.37,303.38 754.17,304.19 754.98,304.19 755.79,303.38 756.60,302.57 757.41,303.38 758.20,304.19 759.02,303.38 759.83,304.19 760.64,304.19 761.45,35.00 762.26,303.38 763.07,304.19 763.88,302.57 764.69,304.19 765.50,304.19 766.31,304.19 767.12,303.38 767.93,301.76 768.75,35.00 769.56,304.19 770.37,303.38 771.18,304.19 771.99,35.00 772.80,304.19 773.61,304.19 774.43,304.19 775.24,304.19 776.04,304.19 776.85,35.00 777.69,35.00 778.50,303.38 779.32,304.19 780.14,304.19 780.96,302.57 781.77,35.00 782.58,302.57 783.40,35.00 784.21,35.00 785.01,303.38 785.83,303.38 786.66,304.19 787.48,304.19 788.28,35.00 789.10,304.19 789.90,303.38 790.72,302.57 791.53,304.19 792.34,304.19 793.15,303.38 793.96,302.57 794.77,304.19 795.58,304.19 796.38,304.19 797.20,304.19 798.00,35.00 798.81,35.00 799.62,304.19 800.43,303.38 801.24,35.00 802.06,304.19 802.87,302.57 803.67,304.19 804.48,304.19 805.30,304.19 806.10,294.47 806.92,303.38 807.72,35.00 808.55,304.19 809.36,304.19 810.16,302.57 810.97,304.19 811.78,304.19 812.59,304.19 813.40,303.38 814.22,304.19 815.05,303.38 815.87,304.19 816.70,304.19 817.52,302.57 818.35,302.57 819.19,304.19 820.01,304.19 820.85,301.76 821.68,301.76 822.51,35.00 823.32,304.19 824.13,303.38 824.94,304.19 825.76,304.19 826.57,303.38 827.39,304.19 828.20,35.00 829.02,35.00 829.83,303.38 830.64,304.19 831.44,304.19 832.25,302.57 833.06,303.38 833.87,304.19 834.68,303.38 835.49,304.19 836.31,304.19 837.11,302.57 837.94,35.00 838.75,304.19 839.56,35.00 840.37,35.00 841.18,304.19 841.99,304.19 842.80,303.38 843.62,303.38 844.43,304.19 845.23,304.19 846.05,303.38 846.86,304.19 847.67,304.19 848.48,304.19 849.29,304.19 850.11,304.19 850.97,303.38 851.81,35.00 852.61,301.76 853.43,35.00 854.23,302.57 855.06,304.19 855.88,304.19 856.69,304.19 857.51,303.38 858.31,304.19 859.10,302.57 859.92,304.19 860.72,35.00 861.54,303.38 862.35,304.19 863.16,303.38 863.97,303.38 864.79,302.57 865.61,35.00 866.41,304.19 867.22,35.00 868.03,304.19 868.84,295.28 869.66,304.19 870.46,303.38 871.27,297.71 872.09,304.19 872.90,35.00 873.72,302.57 874.56,302.57 875.37,304.19 876.18,304.19 876.99,303.38 877.80,304.19 878.62,303.38 879.43,304.19 880.25,304.19 881.05,303.38 881.87,304.19 882.68,304.19 883.51,304.19 884.32,303.38 885.14,304.19 885.95,303.38 886.76,35.00 887.57,304.19 888.38,303.38 889.19,303.38 890.00,303.38 890.82,304.19 891.63,35.00 892.44,303.38 893.25,35.00 894.06,304.19 894.87,35.00 895.68,35.00 896.49,304.19 897.30,35.00 898.11,304.19 898.93,304.19 899.73,35.00 900.54,304.19 901.35,304.19 902.17,303.38 902.98,303.38 903.79,303.38 904.60,304.19 905.40,303.38 906.21,35.00 907.02,303.38 907.84,304.19 908.65,303.38 909.48,302.57 910.29,303.38 911.10,304.19 911.92,304.19 912.73,286.91 913.55,301.76 914.42,303.38 915.25,303.38 916.07,304.19 916.89,303.38 917.71,304.19 918.52,303.38 919.33,304.19 920.14,304.19 920.95,304.19 921.76,304.19 922.58,302.57 923.39,35.00 924.20,303.38 925.03,303.38 925.85,35.00 926.66,303.38 927.47,304.19 928.28,304.19 929.10,303.38 929.91,303.38 930.72,303.38 931.53,303.38 932.35,303.38 933.16,304.19 933.98,303.38 934.79,301.76 935.61,304.19 936.42,304.19 937.24,303.38 938.05,304.19 938.87,35.00 939.67,304.19 940.49,35.00 941.31,303.38 942.11,303.38 942.92,303.38 943.73,304.19 944.54,301.76 945.36,35.00 946.17,35.00 946.98,302.57 947.79,304.19 948.60,35.00 949.42,304.19 950.22,304.19 951.04,304.19 951.85,304.19 952.68,304.19 953.49,35.00 954.28,35.00 955.08,35.00 955.88,304.19 956.70,304.19 957.51,303.38 958.33,304.19 959.15,302.57 959.96,302.57 960.78,303.38 961.60,304.19 962.40,303.38 963.22,304.19 964.02,303.38 964.83,35.00 965.63,303.38 966.44,35.00 967.25,304.19 968.07,304.19 968.87,304.19 969.68,304.19 970.49,302.57 971.30,35.00 972.11,304.19 972.92,303.38 973.73,287.72 974.53,286.10 975.32,304.19 976.15,35.00 976.96,304.19 977.77,301.76 978.59,304.19 979.41,35.00 980.22,304.19 981.02,303.38 981.84,304.19 982.65,304.19 983.46,301.76 984.27,299.33 985.15,302.57 985.95,304.19 986.78,303.38 987.59,35.00 988.41,35.00 989.21,303.38 990.02,303.38 990.84,304.19 991.65,285.02 992.46,304.19 993.27,304.19 994.08,304.19 994.89,304.19 995.71,303.38 996.52,302.57 997.33,303.38 998.14,35.00 998.96,35.00 999.77,304.19 1000.59,302.57 1001.40,303.38 1002.22,35.00 1003.05,303.38 1003.87,303.38 1004.68,35.00 1005.49,304.19 1006.31,303.38 1007.13,302.57 1007.94,303.38 1008.74,304.19 1009.55,304.19 1010.36,303.38 1011.17,303.38 1011.99,35.00 1012.80,302.57 1013.62,35.00 1014.43,35.00 1015.24,304.19 1016.04,304.19 1016.85,303.38 1017.66,304.19 1018.48,303.38 1019.28,35.00 1020.10,304.19 1020.91,304.19 1021.71,35.00 1022.51,304.19 1023.32,302.57 1024.13,300.95 1024.94,35.00 1025.74,35.00 1026.55,35.00 1027.36,303.38 1028.16,303.38 1028.98,304.19 1029.78,304.19 1030.60,303.38 1031.41,302.57 1032.21,303.38 1033.01,304.19 1033.82,304.19 1034.65,304.19 1035.45,304.19 1036.26,303.38 1037.07,303.38 1037.92,303.38 1038.72,302.57 1039.54,304.19 1040.36,303.38 1041.17,304.19 1041.98,304.19 1042.80,304.19 1043.61,302.57 1044.42,304.19 1045.23,302.57 1046.03,35.00 1046.84,304.19 1047.65,303.38 1048.47,304.19 1049.28,35.00 1050.08,304.19 1050.89,303.38 1051.70,303.38 1052.51,304.19 1053.32,303.38 1054.14,35.00 1054.99,304.19 1055.80,303.38 1056.60,303.38 1057.40,303.38 1058.20,304.19 1059.03,35.00 1059.83,303.38 1060.65,303.38 1061.46,304.19 1062.27,302.57 1063.09,304.19 1063.90,304.19 1064.71,304.19 1065.52,303.38 1066.33,304.19 1067.14,303.38 1067.96,304.19 1068.77,301.76 1069.57,303.38 1070.38,304.19 1071.18,304.19 1071.99,35.00 1072.80,298.52 1073.61,303.38 1074.42,304.19 1075.23,302.57 1076.04,303.38 1076.85,304.19 1077.67,304.19 1078.48,302.57 1079.28,301.76 1080.09,35.00 1080.90,304.19 1081.72,304.19 1082.52,304.19 1083.34,304.19 1084.15,35.00 1084.95,35.00 1085.76,303.38 1086.57,35.00 1087.38,302.57 1088.19,304.19 1089.02,304.19 1089.83,304.19 1090.64,304.19 1091.45,304.19 1092.26,304.19 1093.08,302.57 1093.90,303.38 1094.72,304.19 1095.58,35.00 1096.39,304.19 1097.26,302.57 1098.07,304.19 1098.88,304.19 1099.68,302.57 1100.49,302.57 1101.30,304.19 1102.12,304.19 1102.93,303.38 1103.74,304.19 1104.55,303.38 1105.36,304.19 1106.17,303.38 1106.97,301.76 1107.78,35.00 1108.59,302.57 1109.40,303.38 1110.20,302.57 1111.01,303.38 1111.83,303.38 1112.64,303.38 1113.46,303.38 1114.26,303.38 1115.06,302.57 1115.88,304.19 1116.68,301.76 1117.51,302.57 1118.32,302.57 1119.12,302.57 1119.94,304.19 1120.75,304.19 1121.55,302.57 1122.36,35.00 1123.17,304.19 1123.97,301.76 1124.78,304.19 1125.59,303.38 1126.39,303.38 1127.19,304.19 1128.01,304.19 1128.81,303.38 1129.63,303.38 1130.44,302.57 1131.28,304.19 1132.10,304.19 1132.90,304.19 1133.71,35.00 1134.52,303.38 1135.31,302.57 1136.12,302.57 1136.94,303.38 1137.74,304.19 1138.55,303.38 1139.35,304.19 1140.16,304.19 1140.96,304.19 1141.77,302.57 1142.58,303.38 1143.39,35.00 1144.19,302.57 1145.01,35.00 1145.81,304.19 1146.62,300.14 1147.44,35.00 1148.25,304.19 1149.06,303.38 1149.87,35.00 1150.68,304.19 1151.49,304.19 1152.31,302.57 1153.12,303.38 1153.94,304.19 1154.74,304.19 1155.55,304.19 1156.36,304.19 1157.17,304.19 1157.98,35.00 1158.81,304.19 1159.62,303.38 1160.44,304.19 1161.26,303.38 1162.07,303.38 1162.88,303.38 1163.68,35.00 1164.49,304.19 1165.31,304.19 1166.12,304.19 1166.92,302.57 1167.74,304.19 1168.55,35.00 1169.37,302.57 1170.18,304.19 1171.01,287.99 1171.84,302.57 1172.70,303.38 1173.52,304.19 1174.33,304.19 1175.13,35.00 1175.94,304.19 1176.75,303.38 1177.56,303.38 1178.37,304.19 1179.19,304.19 1180.00,304.19"/>
<polyline fill="none" stroke="#d62728" stroke-opacity="0.65" stroke-width="2" points="70.00,35.00 70.81,304.46 71.62,304.46 72.42,302.30 73.23,304.46 74.05,303.38 74.85,304.46 75.66,304.46 76.53,35.00 77.33,304.46 78.14,304.46 78.94,303.92 79.76,303.92 80.56,304.46 81.36,304.46 82.81,303.92 84.07,304.46 84.88,35.00 85.71,303.92 86.51,302.84 87.32,304.46 88.11,303.92 88.92,302.84 89.73,35.00 90.54,303.92 91.35,35.00 92.18,35.00 92.99,35.00 93.80,303.92 94.64,35.00 95.46,303.38 96.26,303.92 97.09,304.46 97.90,35.00 98.70,35.00 99.54,304.46 100.34,35.00 101.14,304.46 101.97,35.00 102.76,304.46 103.57,303.92 104.37,35.00 105.17,304.46 105.98,304.46 106.78,293.12 107.61,35.00 108.42,304.46 109.22,304.46 110.03,304.46 110.84,35.00 111.65,304.46 112.57,304.46 113.38,304.46 114.18,35.00 114.98,35.00 115.79,304.46 116.59,304.46 117.39,303.38 118.20,303.92 119.00,304.46 119.82,35.00 120.63,304.46 121.43,304.46 122.24,35.00 123.06,304.46 123.86,303.92 124.67,304.46 125.47,304.46 126.27,35.00 127.07,303.92 127.87,303.92 128.68,304.46 129.48,303.92 130.28,303.92 131.09,35.00 131.90,303.92 132.70,304.46 133.51,304.46 134.31,303.38 135.11,35.00 135.94,304.46 136.74,303.38 137.55,304.46 138.36,35.00 139.16,304.46 139.97,304.46 140.78,303.92 141.58,303.92 142.38,303.92 143.19,304.46 144.00,303.92 144.80,304.46 145.62,303.92 146.41,35.00 147.22,303.92 148.03,303.92 148.83,304.46 149.63,304.46 150.44,303.92 151.24,303.92 152.05,35.00 152.86,35.00 153.67,303.92 154.47,35.00 155.29,304.46 156.10,304.46 156.91,304.46 157.71,304.46 158.51,303.92 159.32,304.46 160.13,303.38 160.94,304.46 161.74,303.92 162.55,35.00 163.36,304.46 164.17,303.92 164.98,303.92 165.80,303.92 166.60,304.46 167.41,35.00 168.22,304.46 169.02,304.46 169.83,35.00 170.64,303.92 171.51,304.46 172.32,303.92 173.13,304.46 173.94,304.46 174.74,303.92 175.54,303.92 176.33,304.46 177.14,304.46 177.94,304.46 178.75,303.38 179.55,304.46 180.35,35.00 181.16,303.92 181.96,35.00 182.78,304.46 183.58,35.00 184.39,35.00 185.19,303.92 186.00,303.92 186.80,304.46 187.61,304.46 188.42,304.46 189.23,303.92 190.04,304.46 190.84,304.46 191.64,303.92 192.44,35.00 193.25,304.46 194.05,35.00 194.86,303.92 195.68,304.46 196.48,304.46 197.29,35.00 198.10,35.00 198.91,35.00 199.71,304.46 200.52,303.92 201.33,304.46 202.15,303.92 202.97,303.92 203.77,304.46 204.58,304.46 205.38,304.46 206.18,304.46 206.98,304.46 207.79,304.46 208.59,304.46 209.39,282.59 210.19,304.46 211.01,303.92 211.81,304.46 212.62,304.46 213.43,304.46 214.25,303.38 215.06,304.46 215.86,304.46 216.66,303.92 217.46,304.46 218.34,303.92 219.17,304.46 219.97,304.46 220.77,304.46 221.56,304.46 222.37,304.46 223.18,303.38 223.99,304.46 224.80,304.46 225.60,304.46 226.40,303.92 227.21,35.00 228.04,304.46 228.84,303.92 229.64,303.92 230.44,303.92 231.26,35.00 232.08,304.46 232.91,304.46 233.71,35.00 234.51,303.92 235.32,35.00 236.12,35.00 236.93,304.46 237.74,304.46 238.56,35.00 239.36,35.00 240.16,304.46 240.97,304.46 241.78,303.92 242.59,303.92 243.39,304.46 244.21,304.46 245.02,304.46 245.82,303.92 246.62,304.46 247.42,304.46 248.23,303.92 249.04,303.38 249.84,304.46 250.64,35.00 251.44,304.46 252.25,35.00 253.06,35.00 253.86,303.92 254.67,303.92 255.49,304.46 256.30,304.46 257.11,304.46 257.91,303.92 258.72,297.98 259.53,35.00 260.34,304.46 261.14,303.92 261.97,304.46 262.78,303.92 263.59,35.00 264.39,303.92 265.19,304.46 266.00,35.00 266.80,303.92 267.61,304.46 268.42,304.46 269.23,35.00 270.03,303.92 270.84,303.92 271.65,35.00 272.46,303.92 273.27,303.92 274.08,35.00 274.89,303.92 275.70,304.46 276.50,303.92 277.31,304.46 278.13,303.92 278.94,35.00 279.74,304.46 280.55,35.00 281.44,35.00 282.25,303.92 283.06,303.38 283.87,303.38 284.68,303.38 285.49,35.00 286.30,304.46 287.11,304.46 287.91,304.46 288.74,35.00 289.56,304.46 290.36,304.46 291.16,304.46 291.97,35.00 292.78,304.46 293.59,304.46 294.42,293.66 295.23,303.92 296.04,304.46 296.85,303.92 297.72,304.46 298.53,35.00 299.55,304.46 300.91,304.46 301.74,304.46 302.56,304.46 303.36,35.00 304.15,304.46 304.96,304.46 305.78,303.92 306.59,35.00 307.40,304.46 308.24,35.00 309.07,303.38 309.93,304.46 310.74,304.46 311.55,35.00 312.35,35.00 313.17,304.46 313.99,35.00 314.80,304.46 315.60,304.46 316.41,304.46 317.25,35.00 318.06,303.92 318.86,35.00 319.67,304.46 320.49,304.46 321.33,297.98 322.14,304.46 322.95,35.00 323.78,293.12 324.55,35.00 325.35,303.92 326.17,35.00 326.97,304.46 327.79,304.46 328.63,303.92 329.44,304.46 330.24,304.46 331.06,303.92 331.87,303.92 332.68,304.46 333.49,303.92 334.29,35.00 335.10,304.46 335.91,304.46 336.71,304.46 337.67,304.46 338.62,303.92 339.57,304.46 340.51,304.46 341.43,303.38 342.36,303.92 343.32,303.92 344.26,304.46 345.07,35.00 345.87,35.00 346.67,304.46 347.48,304.46 348.28,303.92 349.08,304.46 349.89,303.92 350.69,35.00 351.49,304.46 352.30,304.46 353.10,304.46 353.91,304.46 354.71,293.12 355.51,304.46 356.32,35.00 357.12,303.92 357.93,303.92 358.72,304.46 359.53,304.46 360.35,35.00 361.14,303.92 361.94,304.46 362.75,304.46 363.55,304.46 364.36,35.00 365.16,297.98 365.97,303.92 366.77,303.38 367.58,304.46 368.38,35.00 369.19,302.84 369.99,303.92 370.79,35.00 371.60,35.00 372.39,303.92 373.19,302.84 373.99,304.46 374.80,303.38 375.59,35.00 376.40,304.46 377.20,304.46 378.00,304.46 378.80,303.92 379.60,304.46 380.39,35.00 381.22,304.46 382.09,303.92 382.90,35.00 383.71,303.92 384.51,303.92 385.31,304.46 386.11,304.46 386.91,304.46 387.71,303.92 388.66,304.46 389.61,304.46 390.55,303.92 391.49,304.46 392.44,303.92 393.38,303.92 394.34,304.46 395.32,303.92 396.20,303.92 397.07,303.92 397.87,35.00 398.69,35.00 399.49,35.00 400.29,303.92 401.09,304.46 401.90,304.46 402.70,304.46 403.51,304.46 404.31,304.46 405.12,35.00 405.92,304.46 406.73,303.38 407.54,35.00 408.35,35.00 409.15,303.92 409.85,282.32 410.69,282.05 411.49,304.46 412.31,35.00 413.12,303.38 413.92,304.46 414.73,35.00 415.55,35.00 416.36,35.00 417.17,303.92 417.98,304.46 418.80,304.46 419.60,303.92 420.40,35.00 421.21,303.38 422.01,303.92 422.81,304.46 423.61,303.92 424.42,304.46 425.22,304.46 426.03,304.46 426.84,304.46 427.64,304.46 428.45,303.92 429.25,303.92 430.06,303.92 430.88,304.46 431.68,304.46 432.48,35.00 433.30,35.00 434.11,304.46 434.94,304.46 435.74,304.46 436.54,303.92 437.34,35.00 438.14,303.92 438.94,35.00 439.76,303.92 440.56,304.46 441.36,35.00 442.17,304.46 442.97,35.00 443.77,304.46 444.58,303.92 445.39,304.46 446.20,302.84 447.17,303.92 448.00,303.92 448.82,304.46 449.64,304.46 450.44,303.38 451.26,303.92 452.06,299.06 452.86,35.00 453.68,304.46 454.49,303.92 455.29,304.46 456.10,35.00 456.91,303.92 457.72,303.92 458.55,304.46 459.37,303.92 460.18,35.00 460.98,304.46 461.79,35.00 462.60,303.92 463.40,35.00 464.21,303.38 465.05,304.46 465.86,304.46 466.67,35.00 467.47,304.46 468.28,304.46 469.09,304.46 469.89,303.92 470.70,35.00 471.51,303.38 472.32,304.46 473.13,304.46 473.94,35.00 474.74,304.46 475.55,35.00 476.35,304.46 477.17,304.46 477.98,291.50 478.78,303.92 479.59,304.46 480.39,304.46 481.21,303.38 482.02,303.92 482.99,303.38 483.82,303.92 484.63,35.00 485.44,35.00 486.24,304.46 487.05,303.38 487.86,304.46 488.67,35.00 489.49,303.92 490.29,304.46 491.10,35.00 491.90,303.92 492.71,35.00 493.51,304.46 494.32,304.46 495.13,35.00 495.93,304.46 496.73,304.46 497.54,35.00 498.34,304.46 499.16,304.46 499.96,304.46 500.76,303.92 501.58,35.00 502.40,304.46 503.20,304.46 504.00,35.00 504.81,304.46 505.64,303.38 506.44,35.00 507.25,304.46 508.07,304.46 508.87,303.92 509.67,304.46 510.48,304.46 511.29,304.46 512.12,304.46 512.93,304.46 513.73,304.46 514.53,303.92 515.33,304.46 516.14,303.92 516.95,304.46 517.75,35.00 518.57,304.46 519.39,304.46 520.20,303.92 520.99,35.00 521.80,304.46 522.60,304.46 523.41,304.46 524.22,304.46 525.03,303.92 525.83,304.46 526.65,304.46 527.45,35.00 528.26,304.46 529.07,303.92 529.89,35.00 530.70,35.00 531.51,303.92 532.32,281.24 533.23,304.46 534.11,304.46 534.98,35.00 535.79,303.92 536.63,303.92 537.44,304.46 538.25,304.46 539.05,303.92 539.81,293.12 540.65,303.92 541.46,292.58 542.27,294.20 543.07,293.12 543.88,303.92 544.68,304.46 545.50,303.92 546.30,303.38 547.11,304.46 547.91,304.46 548.72,304.46 549.53,303.92 550.34,35.00 551.16,35.00 551.97,35.00 552.78,35.00 553.59,304.46 554.40,35.00 555.23,304.46 556.04,303.92 556.84,304.46 557.64,303.92 558.45,303.92 559.25,304.46 560.06,303.92 560.87,304.46 561.68,304.46 562.50,35.00 563.30,304.46 564.10,304.46 564.91,35.00 565.72,303.92 566.53,35.00 567.35,303.92 568.15,35.00 568.96,304.46 569.77,35.00 570.58,304.46 571.39,304.46 572.21,303.92 573.02,304.46 573.82,35.00 574.64,303.92 575.44,304.46 576.26,304.46 577.09,304.46 577.90,304.46 578.71,303.92 579.52,302.84 580.33,304.46 581.14,304.46 581.95,304.46 582.76,304.46 583.57,303.92 584.37,304.46 585.19,303.38 586.00,35.00 586.81,35.00 587.62,303.38 588.43,35.00 589.25,304.46 590.06,303.92 590.87,304.46 591.69,303.92 592.50,304.46 593.31,35.00 594.12,35.00 594.93,35.00 595.75,303.92 596.57,303.92 597.38,303.92 598.19,304.46 599.00,303.92 599.80,304.46 600.61,304.46 601.42,304.46 602.24,304.46 603.04,304.46 603.85,304.46 604.66,35.00 605.47,304.46 606.29,35.00 607.09,304.46 607.90,304.46 608.72,304.46 609.53,304.46 610.34,303.92 611.15,292.58 611.96,304.46 612.76,304.46 613.56,303.92 614.37,304.46 615.19,304.46 616.00,304.46 616.81,303.92 617.63,35.00 618.43,304.46 619.25,304.46 620.06,304.46 620.87,303.92 621.68,304.46 622.50,293.66 623.31,292.04 624.12,293.66 624.93,293.12 625.75,294.20 626.56,293.12 627.37,293.12 628.20,292.58 629.02,293.12 629.83,293.39 630.64,293.12 631.44,293.12 632.26,293.12 633.07,293.12 633.89,293.66 634.70,292.58 635.51,292.58 636.32,293.66 637.12,293.12 637.96,292.58 638.76,293.12 639.58,294.20 640.39,293.12 641.19,293.12 642.00,292.58 642.80,294.20 643.60,293.66 644.42,281.51 645.23,271.25 646.04,293.66 646.85,293.66 647.66,293.12 648.47,293.12 649.30,293.66 650.12,293.12 650.92,293.66 651.73,293.66 652.53,293.66 653.34,293.12 654.15,293.66 654.97,293.12 655.78,292.04 656.59,293.12 657.40,293.12 658.21,293.12 659.02,292.58 659.83,293.12 660.65,293.12 661.48,292.58 662.30,292.58 663.12,293.12 663.93,293.12 664.74,293.39 665.56,293.12 666.36,293.66 667.17,293.12 667.97,292.58 668.79,293.66 669.60,292.58 670.42,293.12 671.23,293.66 672.05,294.20 672.89,293.66 673.70,293.66 674.51,293.12 675.32,293.12 676.13,292.04 676.95,293.12 677.76,293.66 678.58,293.12 679.39,294.20 680.21,293.66 681.02,294.20 681.84,293.12 682.65,293.66 683.46,282.05 684.27,293.66 685.08,293.66 685.89,293.66 686.71,293.12 687.53,293.12 688.34,293.12 689.15,293.12 689.96,293.66 690.78,293.66 691.59,293.66 692.40,292.58 693.21,293.66 694.05,294.20 694.86,293.12 695.68,293.12 696.49,294.20 697.32,292.58 698.15,294.20 698.98,293.12 699.80,293.66 700.64,294.20 701.46,294.20 702.27,293.12 703.08,293.66 703.89,293.66 704.70,293.12 705.52,292.58 706.35,293.66 707.16,293.12 707.97,293.12 708.78,283.13 709.59,292.58 710.40,293.66 711.22,293.66 712.02,292.58 712.83,282.05 713.64,293.12 714.45,293.12 715.26,293.12 716.06,292.58 716.87,293.66 717.68,294.20 718.50,293.12 719.30,293.66 720.12,304.46 720.94,303.92 721.75,35.00 722.56,303.92 723.37,304.46 724.18,303.92 724.99,304.46 725.80,304.46 726.61,35.00 727.43,304.46 728.23,303.92 729.03,303.92 729.84,303.92 730.65,304.46 731.46,304.46 732.27,303.38 733.08,304.46 733.89,304.46 734.70,303.92 735.51,304.46 736.33,303.92 737.13,35.00 737.93,304.46 738.73,304.46 739.53,35.00 740.34,304.46 741.15,304.46 741.98,304.46 742.78,303.92 743.59,35.00 744.41,304.46 745.23,304.46 746.05,303.92 746.85,304.46 747.67,35.00 748.48,35.00 749.29,304.46 750.11,304.46 750.92,303.92 751.74,304.46 752.56,303.92 753.37,35.00 754.17,35.00 754.98,35.00 755.79,303.38 756.60,293.12 757.41,293.12 758.20,304.46 759.02,304.46 759.83,258.83 760.64,303.92 761.45,304.46 762.26,35.00 763.07,35.00 763.88,304.46 764.69,303.38 765.50,35.00 766.31,303.92 767.12,304.46 767.93,303.92 768.75,303.92 769.56,304.46 770.37,304.46 771.18,304.46 771.99,304.46 772.80,304.46 773.61,35.00 774.43,297.44 775.24,35.00 776.04,303.92 776.85,35.00 777.69,304.46 778.50,304.46 779.32,304.46 780.14,304.46 780.96,304.46 781.77,303.92 782.58,303.92 783.40,303.92 784.21,35.00 785.01,304.46 785.83,304.46 786.66,303.92 787.48,304.46 788.28,35.00 789.10,304.46 789.90,35.00 790.72,304.46 791.53,302.84 792.34,35.00 793.15,303.92 793.96,304.46 794.77,304.46 795.58,303.92 796.38,304.46 797.20,304.46 798.00,35.00 798.81,303.92 799.62,304.46 800.43,303.38 801.24,304.46 802.06,304.46 802.87,303.92 803.67,304.46 804.48,303.92 805.30,303.92 806.10,304.46 806.92,35.00 807.72,303.92 808.55,304.46 809.36,35.00 810.16,304.46 810.97,304.46 811.78,303.92 812.59,35.00 813.40,35.00 814.22,303.92 815.05,304.46 815.87,35.00 816.70,35.00 817.52,35.00 818.35,303.92 819.19,304.46 820.01,303.92 820.85,303.92 821.68,304.46 822.51,303.92 823.32,35.00 824.13,304.46 824.94,304.46 825.76,304.46 826.57,303.92 827.39,35.00 828.20,304.46 829.02,304.46 829.83,303.38 830.64,35.00 831.44,304.46 832.25,303.92 833.06,304.46 833.87,35.00 834.68,303.92 835.49,304.46 836.31,304.46 837.11,304.46 837.94,293.66 838.75,293.12 839.56,293.12 840.37,293.66 841.18,303.92 841.99,304.46 842.80,304.46 843.62,304.46 844.43,304.46 845.23,303.92 846.05,304.46 846.86,304.46 847.67,304.46 848.48,304.46 849.29,303.92 850.11,35.00 850.97,35.00 851.81,303.92 852.61,302.84 853.43,303.92 854.23,303.38 855.06,304.46 855.88,303.92 856.69,303.92 857.51,304.46 858.31,303.92 859.10,304.46 859.92,304.46 860.72,303.92 861.54,303.92 862.35,304.46 863.16,304.46 863.97,304.46 864.79,303.92 865.61,35.00 866.41,35.00 867.22,304.46 868.03,303.38 868.84,304.46 869.66,304.46 870.46,304.46 871.27,304.46 872.09,35.00 872.90,303.92 873.72,35.00 874.56,35.00 875.37,303.92 876.18,304.46 876.99,303.92 877.80,304.46 878.62,304.46 879.43,304.46 880.25,304.46 881.05,303.92 881.87,303.92 882.68,304.46 883.51,35.00 884.32,303.92 885.14,303.92 885.95,303.38 886.76,304.46 887.57,35.00 888.38,304.46 889.19,304.46 890.00,304.46 890.82,303.92 891.63,303.92 892.44,303.92 893.25,304.46 894.06,304.46 894.87,304.46 895.68,304.46 896.49,304.46 897.30,304.46 898.11,303.92 898.93,304.46 899.73,304.46 900.54,35.00 901.35,304.46 902.17,304.46 902.98,304.46 903.79,304.46 904.60,35.00 905.40,303.92 906.21,303.92 907.02,303.92 907.84,35.00 908.65,303.92 909.48,303.92 910.29,35.00 911.10,304.46 911.92,248.57 912.73,259.37 913.55,269.09 914.42,293.12 915.25,282.59 916.07,270.17 916.89,282.05 917.71,35.00 918.52,304.46 919.33,304.46 920.14,303.92 920.95,304.46 921.76,304.46 922.58,304.46 923.39,303.38 924.20,304.46 925.03,304.46 925.85,304.46 926.66,304.46 927.47,304.46 928.28,304.46 929.10,303.92 929.91,303.92 930.72,35.00 931.53,303.92 932.35,304.46 933.16,303.92 933.98,35.00 934.79,35.00 935.61,35.00 936.42,303.92 937.24,304.46 938.05,304.46 938.87,35.00 939.67,35.00 940.49,35.00 941.31,35.00 942.11,35.00 942.92,304.46 943.73,304.46 944.54,304.46 945.36,304.46 946.17,304.46 946.98,303.92 947.79,35.00 948.60,35.00 949.42,304.46 950.22,304.46 951.04,304.46 951.85,303.92 952.68,304.46 953.49,35.00 954.28,304.46 955.08,303.38 955.88,304.46 956.70,304.46 957.51,303.92 958.33,304.46 959.15,304.46 959.96,303.92 960.78,303.92 961.60,304.46 962.40,303.92 963.22,303.92 964.02,304.46 964.83,304.46 965.63,35.00 966.44,303.92 967.25,303.92 968.07,304.46 968.87,35.00 969.68,304.46 970.49,303.92 971.30,293.12 972.11,304.46 972.92,304.46 973.73,35.00 974.53,286.64 975.32,259.37 976.15,248.84 976.96,35.00 977.77,35.00 978.59,303.92 979.41,302.84 980.22,304.46 981.02,304.46 981.84,303.92 982.65,304.46 983.46,35.00 984.27,304.46 985.15,303.92 985.95,304.46 986.78,303.92 987.59,304.46 988.41,304.46 989.21,35.00 990.02,303.38 990.84,304.46 991.65,304.46 992.46,304.46 993.27,302.84 994.08,298.52 994.89,35.00 995.71,303.92 996.52,304.46 997.33,303.92 998.14,35.00 998.96,304.46 999.77,304.46 1000.59,304.46 1001.40,304.46 1002.22,303.92 1003.05,304.46 1003.87,304.46 1004.68,304.46 1005.49,304.46 1006.31,303.92 1007.13,303.92 1007.94,304.46 1008.74,35.00 1009.55,303.92 1010.36,303.92 1011.17,303.38 1011.99,303.92 1012.80,303.92 1013.62,303.92 1014.43,35.00 1015.24,304.46 1016.04,304.46 1016.85,304.46 1017.66,303.92 1018.48,304.46 1019.28,304.46 1020.10,304.46 1020.91,304.46 1021.71,35.00 1022.51,304.46 1023.32,304.46 1024.13,35.00 1024.94,35.00 1025.74,303.92 1026.55,304.46 1027.36,304.46 1028.16,303.92 1028.98,304.46 1029.78,304.46 1030.60,35.00 1031.41,304.46 1032.21,303.92 1033.01,35.00 1033.82,304.46 1034.65,303.92 1035.45,35.00 1036.26,304.46 1037.07,304.46 1037.92,35.00 1038.72,303.92 1039.54,35.00 1040.36,35.00 1041.17,304.46 1041.98,304.46 1042.80,304.46 1043.61,304.46 1044.42,301.76 1045.23,35.00 1046.03,304.46 1046.84,35.00 1047.65,303.92 1048.47,304.46 1049.28,304.46 1050.08,293.12 1050.89,303.92 1051.70,35.00 1052.51,303.92 1053.32,304.46 1054.14,35.00 1054.99,304.46 1055.80,35.00 1056.60,304.46 1057.40,304.46 1058.20,304.46 1059.03,35.00 1059.83,304.46 1060.65,35.00 1061.46,304.46 1062.27,303.92 1063.09,304.46 1063.90,303.92 1064.71,303.92 1065.52,35.00 1066.33,304.46 1067.14,35.00 1067.96,303.92 1068.77,304.46 1069.57,303.92 1070.38,35.00 1071.18,303.92 1071.99,303.92 1072.80,303.92 1073.61,35.00 1074.42,304.46 1075.23,35.00 1076.04,304.46 1076.85,304.46 1077.67,304.46 1078.48,303.92 1079.28,304.46 1080.09,304.46 1080.90,35.00 1081.72,304.46 1082.52,35.00 1083.34,304.46 1084.15,303.92 1084.95,303.92 1085.76,303.92 1086.57,304.46 1087.38,35.00 1088.19,304.46 1089.02,35.00 1089.83,303.92 1090.64,304.46 1091.45,35.00 1092.26,304.46 1093.08,303.92 1093.90,291.50 1094.72,35.00 1095.58,304.46 1096.39,303.92 1097.26,35.00 1098.07,300.14 1098.88,303.92 1099.68,303.92 1100.49,35.00 1101.30,303.38 1102.12,304.46 1102.93,298.52 1103.74,35.00 1104.55,35.00 1105.36,35.00 1106.17,35.00 1106.97,35.00 1107.78,35.00 1108.59,35.00 1109.40,304.46 1110.20,35.00 1111.01,303.92 1111.83,303.92 1112.64,302.30 1113.46,304.46 1114.26,35.00 1115.06,303.92 1115.88,303.38 1116.68,304.46 1117.51,303.92 1118.32,303.92 1119.12,35.00 1119.94,35.00 1120.75,304.46 1121.55,304.46 1122.36,304.46 1123.17,304.46 1123.97,304.46 1124.78,303.92 1125.59,303.92 1126.39,303.92 1127.19,304.46 1128.01,304.46 1128.81,303.92 1129.63,303.92 1130.44,303.92 1131.28,304.46 1132.10,304.46 1132.90,303.38 1133.71,304.46 1134.52,304.46 1135.31,303.92 1136.12,303.92 1136.94,304.46 1137.74,303.92 1138.55,304.46 1139.35,304.46 1140.16,304.46 1140.96,304.46 1141.77,304.46 1142.58,303.92 1143.39,303.92 1144.19,304.46 1145.01,303.92 1145.81,304.46 1146.62,304.46 1147.44,292.04 1148.25,35.00 1149.06,304.46 1149.87,35.00 1150.68,303.92 1151.49,303.92 1152.31,304.46 1153.12,304.46 1153.94,303.92 1154.74,304.46 1155.55,303.92 1156.36,35.00 1157.17,35.00 1157.98,304.46 1158.81,304.46 1159.62,304.46 1160.44,303.92 1161.26,304.46 1162.07,304.46 1162.88,304.46 1163.68,304.46 1164.49,304.46 1165.31,35.00 1166.12,303.38 1166.92,304.46 1167.74,303.38 1168.55,35.00 1169.37,304.46 1170.18,304.46 1171.01,304.46 1171.84,303.92 1172.70,303.92 1173.52,304.46 1174.33,303.92 1175.13,303.92 1175.94,304.46 1176.75,303.38 1177.56,303.92 1178.37,35.00 1179.19,304.46 1180.00,304.46"/>
<polyline fill="none" stroke="#d62728" stroke-opacity="0.50" stroke-width="2" points="70.00,302.84 70.81,302.84 71.62,303.92 72.42,303.92 73.23,303.92 74.05,303.38 74.85,303.92 75.66,302.57 76.53,303.38 77.33,302.84 78.14,303.92 78.94,303.38 79.76,302.84 80.56,303.38 81.36,287.18 82.81,303.38 84.07,303.38 84.88,303.38 85.71,303.92 86.51,302.84 87.32,293.12 88.11,303.38 88.92,303.38 89.73,303.38 90.54,303.38 91.35,303.38 92.18,303.38 92.99,303.92 93.80,303.38 94.64,303.92 95.46,303.92 96.26,303.38 97.09,303.38 97.90,303.38 98.70,302.03 99.54,303.38 100.34,303.92 101.14,303.92 101.97,303.38 102.76,303.92 103.57,303.92 104.37,303.92 105.17,302.84 105.98,303.92 106.78,303.38 107.61,303.92 108.42,302.84 109.22,303.92 110.03,302.84 110.84,303.38 111.65,302.84 112.57,303.38 113.38,303.92 114.18,303.38 114.98,303.92 115.79,303.38 116.59,303.38 117.39,303.92 118.20,302.30 119.00,303.92 119.82,303.92 120.63,304.46 121.43,303.92 122.24,303.92 123.06,303.92 123.86,303.38 124.67,289.61 125.47,303.92 126.27,303.38 127.07,302.84 127.87,299.87 128.68,303.92 129.48,303.92 130.28,304.46 131.09,303.92 131.90,302.03 132.70,304.46 133.51,303.38 134.31,303.38 135.11,302.84 135.94,302.57 136.74,303.92 137.55,303.92 138.36,303.92 139.16,303.38 139.97,303.38 140.78,302.84 141.58,303.38 142.38,302.84 143.19,303.92 144.00,303.38 144.80,294.20 145.62,303.38 146.41,303.38 147.22,303.92 148.03,303.92 148.83,302.57 149.63,303.38 150.44,302.84 151.24,302.84 152.05,302.57 152.86,303.92 153.67,303.92 154.47,303.92 155.29,303.92 156.10,302.84 156.91,303.92 157.71,303.92 158.51,302.84 159.32,303.92 160.13,302.84 160.94,302.84 161.74,303.92 162.55,303.92 163.36,303.92 164.17,303.92 164.98,302.57 165.80,303.92 166.60,303.92 167.41,303.38 168.22,303.38 169.02,303.92 169.83,304.46 170.64,303.92 171.51,303.92 172.32,303.38 173.13,303.92 173.94,303.92 174.74,304.46 175.54,303.38 176.33,302.84 177.14,303.92 177.94,302.84 178.75,303.92 179.55,303.38 180.35,303.38 181.16,304.46 181.96,303.38 182.78,303.92 183.58,302.57 184.39,302.03 185.19,303.92 186.00,303.92 186.80,303.38 187.61,303.38 188.42,303.92 189.23,303.38 190.04,303.38 190.84,302.84 191.64,302.57 192.44,303.38 193.25,302.03 194.05,302.03 194.86,302.03 195.68,302.84 196.48,302.03 197.29,302.84 198.10,302.84 198.91,302.57 199.71,302.03 200.52,303.92 201.33,303.38 202.15,303.92 202.97,303.92 203.77,303.38 204.58,302.84 205.38,303.92 206.18,303.92 206.98,303.92 207.79,296.90 208.59,303.38 209.39,302.84 210.19,303.92 211.01,303.92 211.81,302.84 212.62,303.92 213.43,302.84 214.25,303.92 215.06,303.92 215.86,303.38 216.66,303.92 217.46,303.92 218.34,299.33 219.17,303.38 219.97,303.92 220.77,303.38 221.56,303.92 222.37,304.46 223.18,303.92 223.99,303.38 224.80,303.92 225.60,302.84 226.40,303.38 227.21,303.38 228.04,303.92 228.84,303.92 229.64,303.92 230.44,302.84 231.26,303.92 232.08,303.38 232.91,303.92 233.71,303.92 234.51,303.38 235.32,302.84 236.12,303.38 236.93,303.38 237.74,303.92 238.56,303.92 239.36,302.84 240.16,303.92 240.97,303.38 241.78,303.92 242.59,303.92 243.39,303.38 244.21,303.92 245.02,302.30 245.82,303.92 246.62,303.38 247.42,303.92 248.23,302.84 249.04,303.92 249.84,302.84 250.64,303.92 251.44,303.92 252.25,303.92 253.06,303.92 253.86,302.84 254.67,303.92 255.49,303.92 256.30,299.87 257.11,303.92 257.91,302.84 258.72,302.84 259.53,303.92 260.34,303.92 261.14,303.92 261.97,304.46 262.78,304.46 263.59,303.38 264.39,303.38 265.19,303.38 266.00,303.92 266.80,303.92 267.61,302.84 268.42,303.92 269.23,303.92 270.03,303.38 270.84,303.38 271.65,303.92 272.46,302.57 273.27,303.92 274.08,302.84 274.89,303.92 275.70,303.92 276.50,303.38 277.31,303.92 278.13,304.46 278.94,303.38 279.74,302.84 280.55,303.38 281.44,303.92 282.25,303.38 283.06,303.92 283.87,303.92 284.68,303.38 285.49,303.38 286.30,303.38 287.11,303.38 287.91,303.92 288.74,302.84 289.56,303.92 290.36,303.92 291.16,303.92 291.97,303.92 292.78,302.84 293.59,303.38 294.42,303.38 295.23,303.92 296.04,302.84 296.85,303.92 297.72,303.92 298.53,293.39 299.55,293.12 300.91,303.92 301.74,302.84 302.56,292.58 303.36,302.03 304.15,302.84 304.96,304.46 305.78,303.92 306.59,303.92 307.40,303.92 308.24,304.46 309.07,303.92 309.93,303.92 310.74,302.84 311.55,303.38 312.35,303.38 313.17,303.92 313.99,303.38 314.80,302.84 315.60,294.74 316.41,303.38 317.25,303.92 318.06,303.92 318.86,303.92 319.67,303.92 320.49,303.38 321.33,303.92 322.14,303.38 322.95,303.92 323.78,303.38 324.55,302.57 325.35,303.92 326.17,303.92 326.97,303.92 327.79,304.46 328.63,303.38 329.44,303.38 330.24,303.38 331.06,304.46 331.87,303.92 332.68,303.92 333.49,303.38 334.29,303.92 335.10,303.92 335.91,303.92 336.71,303.92 337.67,300.41 338.62,303.92 339.57,303.38 340.51,303.92 341.43,303.92 342.36,303.92 343.32,302.84 344.26,303.92 345.07,303.92 345.87,303.92 346.67,303.38 347.48,302.84 348.28,302.84 349.08,303.92 349.89,303.92 350.69,303.38 351.49,304.46 352.30,304.46 353.10,303.92 353.91,292.58 354.71,302.84 355.51,304.46 356.32,303.38 357.12,303.92 357.93,303.38 358.72,303.38 359.53,303.38 360.35,303.38 361.14,303.38 361.94,304.46 362.75,303.38 363.55,304.46 364.36,303.92 365.16,303.38 365.97,303.92 366.77,303.38 367.58,295.82 368.38,302.84 369.19,303.92 369.99,302.84 370.79,299.87 371.60,303.92 372.39,303.38 373.19,302.84 373.99,303.92 374.80,303.92 375.59,303.38 376.40,303.92 377.20,303.38 378.00,303.92 378.80,303.38 379.60,304.46 380.39,303.92 381.22,303.92 382.09,303.92 382.90,303.92 383.71,303.92 384.51,303.38 385.31,302.57 386.11,303.92 386.91,303.92 387.71,303.92 388.66,302.84 389.61,302.84 390.55,303.92 391.49,302.30 392.44,303.92 393.38,303.92 394.34,303.92 395.32,303.92 396.20,303.92 397.07,303.92 397.87,303.38 398.69,303.38 399.49,303.38 400.29,303.38 401.09,303.92 401.90,303.92 402.70,292.85 403.51,303.92 404.31,302.57 405.12,303.38 405.92,303.92 406.73,303.92 407.54,303.38 408.35,303.92 409.15,302.30 409.85,303.92 410.69,303.92 411.49,304.46 412.31,303.38 413.12,303.92 413.92,303.92 414.73,303.38 415.55,303.92 416.36,303.92 417.17,303.92 417.98,304.46 418.80,303.92 419.60,303.38 420.40,303.92 421.21,303.92 422.01,303.92 422.81,302.84 423.61,303.38 424.42,303.92 425.22,303.92 426.03,303.38 426.84,303.92 427.64,303.38 428.45,303.38 429.25,303.92 430.06,303.38 430.88,303.92 431.68,303.92 432.48,303.92 433.30,303.92 434.11,303.92 434.94,303.92 435.74,303.92 436.54,302.84 437.34,302.84 438.14,303.92 438.94,304.46 439.76,302.03 440.56,303.38 441.36,303.92 442.17,303.92 442.97,303.92 443.77,302.84 444.58,303.38 445.39,303.38 446.20,303.38 447.17,303.92 448.00,303.92 448.82,303.38 449.64,302.57 450.44,303.92 451.26,302.84 452.06,303.92 452.86,303.92 453.68,303.92 454.49,304.46 455.29,302.57 456.10,302.57 456.91,303.38 457.72,303.92 458.55,303.92 459.37,303.38 460.18,303.38 460.98,302.84 461.79,303.92 462.60,300.95 463.40,303.92 464.21,302.84 465.05,303.38 465.86,303.92 466.67,303.38 467.47,302.84 468.28,303.92 469.09,303.38 469.89,303.92 470.70,303.38 471.51,303.92 472.32,303.92 473.13,303.92 473.94,303.38 474.74,303.38 475.55,303.92 476.35,303.92 477.17,303.92 477.98,303.92 478.78,303.92 479.59,300.95 480.39,290.69 481.21,303.92 482.02,302.84 482.99,303.92 483.82,303.38 484.63,303.38 485.44,303.92 486.24,304.46 487.05,303.92 487.86,303.92 488.67,303.38 489.49,303.38 490.29,302.84 491.10,304.46 491.90,303.92 492.71,303.38 493.51,304.46 494.32,304.46 495.13,303.38 495.93,303.38 496.73,303.92 497.54,303.38 498.34,304.46 499.16,303.38 499.96,302.84 500.76,304.46 501.58,303.92 502.40,303.92 503.20,303.38 504.00,303.38 504.81,303.92 505.64,303.92 506.44,300.95 507.25,303.92 508.07,302.84 508.87,303.92 509.67,303.38 510.48,303.38 511.29,302.03 512.12,302.03 512.93,303.92 513.73,302.84 514.53,302.84 515.33,302.57 516.14,303.38 516.95,303.38 517.75,303.38 518.57,303.38 519.39,291.77 520.20,274.49 520.99,302.84 521.80,292.85 522.60,302.84 523.41,303.38 524.22,303.92 525.03,303.92 525.83,303.92 526.65,303.38 527.45,303.38 528.26,304.46 529.07,302.84 529.89,303.92 530.70,302.57 531.51,303.92 532.32,303.92 533.23,304.46 534.11,304.46 534.98,303.92 535.79,303.92 536.63,303.92 537.44,303.38 538.25,303.92 539.05,303.38 539.81,303.38 540.65,303.38 541.46,303.92 542.27,303.92 543.07,303.38 543.88,303.38 544.68,303.38 545.50,303.92 546.30,303.38 547.11,303.92 547.91,303.92 548.72,303.92 549.53,303.92 550.34,303.38 551.16,303.92 551.97,303.92 552.78,302.84 553.59,303.38 554.40,303.38 555.23,302.57 556.04,303.38 556.84,302.57 557.64,302.57 558.45,301.49 559.25,303.92 560.06,303.38 560.87,303.92 561.68,302.84 562.50,303.38 563.30,303.92 564.10,303.38 564.91,303.38 565.72,303.38 566.53,303.92 567.35,303.92 568.15,304.46 568.96,303.92 569.77,303.92 570.58,302.57 571.39,303.38 572.21,303.38 573.02,303.92 573.82,302.84 574.64,302.84 575.44,303.38 576.26,303.38 577.09,303.92 577.90,303.38 578.71,303.92 579.52,303.92 580.33,300.41 581.14,303.92 581.95,303.38 582.76,303.92 583.57,303.92 584.37,303.92 585.19,303.38 586.00,304.46 586.81,303.38 587.62,302.84 588.43,303.92 589.25,303.92 590.06,303.38 590.87,303.92 591.69,303.92 592.50,303.92 593.31,303.92 594.12,303.92 594.93,303.38 595.75,302.84 596.57,303.92 597.38,303.38 598.19,303.92 599.00,303.92 599.80,303.38 600.61,303.92 601.42,303.92 602.24,303.38 603.04,303.92 603.85,303.38 604.66,302.84 605.47,303.38 606.29,302.03 607.09,292.85 607.90,303.92 608.72,302.57 609.53,303.38 610.34,302.84 611.15,303.38 611.96,302.84 612.76,291.50 613.56,303.38 614.37,303.92 615.19,303.92 616.00,303.92 616.81,303.92 617.63,303.92 618.43,303.92 619.25,303.92 620.06,303.92 620.87,303.92 621.68,297.71 622.50,303.38 623.31,303.38 624.12,303.92 624.93,303.92 625.75,303.38 626.56,304.46 627.37,304.46 628.20,303.92 629.02,303.92 629.83,303.38 630.64,303.92 631.44,304.46 632.26,303.92 633.07,303.38 633.89,302.84 634.70,302.84 635.51,303.38 636.32,303.92 637.12,302.03 637.96,303.38 638.76,303.92 639.58,302.84 640.39,303.92 641.19,304.46 642.00,303.92 642.80,304.46 643.60,303.38 644.42,303.92 645.23,303.92 646.04,303.92 646.85,303.92 647.66,302.84 648.47,302.84 649.30,303.38 650.12,303.92 650.92,302.84 651.73,292.31 652.53,303.92 653.34,303.38 654.15,303.38 654.97,303.38 655.78,303.92 656.59,303.38 657.40,303.92 658.21,303.92 659.02,303.92 659.83,303.92 660.65,303.92 661.48,302.84 662.30,303.38 663.12,303.92 663.93,303.92 664.74,303.92 665.56,302.84 666.36,303.92 667.17,303.92 667.97,303.92 668.79,303.92 669.60,303.38 670.42,303.92 671.23,303.38 672.05,303.92 672.89,303.92 673.70,303.38 674.51,303.92 675.32,303.92 676.13,301.49 676.95,303.92 677.76,303.92 678.58,303.92 679.39,303.38 680.21,302.84 681.02,303.92 681.84,304.46 682.65,303.38 683.46,303.38 684.27,303.92 685.08,303.92 685.89,303.92 686.71,303.92 687.53,303.38 688.34,303.92 689.15,302.84 689.96,303.92 690.78,303.38 691.59,303.92 692.40,303.92 693.21,303.92 694.05,304.46 694.86,303.38 695.68,303.92 696.49,303.92 697.32,301.49 698.15,302.03 698.98,303.92 699.80,303.38 700.64,302.57 701.46,300.41 702.27,303.38 703.08,302.57 703.89,303.92 704.70,304.46 705.52,303.92 706.35,303.92 707.16,303.38 707.97,303.38 708.78,303.92 709.59,303.92 710.40,303.38 711.22,302.84 712.02,303.92 712.83,304.46 713.64,303.38 714.45,303.38 715.26,302.84 716.06,302.84 716.87,303.92 717.68,303.92 718.50,303.92 719.30,303.38 720.12,303.92 720.94,303.38 721.75,303.92 722.56,303.92 723.37,303.92 724.18,303.92 724.99,303.92 725.80,303.92 726.61,303.92 727.43,303.38 728.23,303.92 729.03,301.49 729.84,302.57 730.65,303.92 731.46,302.57 732.27,303.92 733.08,303.38 733.89,302.84 734.70,303.92 735.51,302.84 736.33,292.58 737.13,290.69 737.93,302.84 738.73,291.50 739.53,302.57 740.34,303.38 741.15,303.92 741.98,303.92 742.78,304.46 743.59,303.92 744.41,303.38 745.23,303.38 746.05,303.92 746.85,303.38 747.67,303.92 748.48,303.38 749.29,303.92 750.11,303.92 750.92,294.20 751.74,303.92 752.56,303.92 753.37,303.92 754.17,303.38 754.98,303.38 755.79,302.57 756.60,303.92 757.41,303.38 758.20,303.92 759.02,304.46 759.83,302.57 760.64,303.92 761.45,302.84 762.26,303.92 763.07,303.92 763.88,302.84 764.69,303.38 765.50,303.38 766.31,303.92 767.12,302.84 767.93,303.38 768.75,303.38 769.56,303.92 770.37,303.92 771.18,303.92 771.99,303.38 772.80,303.92 773.61,303.92 774.43,303.38 775.24,303.38 776.04,303.92 776.85,303.92 777.69,303.38 778.50,303.38 779.32,303.38 780.14,303.38 780.96,303.92 781.77,303.92 782.58,303.92 783.40,303.92 784.21,295.82 785.01,303.38 785.83,303.38 786.66,303.38 787.48,303.92 788.28,303.38 789.10,303.38 789.90,302.84 790.72,303.38 791.53,302.03 792.34,303.92 793.15,303.92 793.96,303.92 794.77,302.03 795.58,303.92 796.38,297.44 797.20,303.38 798.00,303.92 798.81,303.92 799.62,303.38 800.43,303.92 801.24,303.92 802.06,303.92 802.87,303.92 803.67,303.38 804.48,303.92 805.30,300.41 806.10,303.38 806.92,303.38 807.72,303.92 808.55,300.41 809.36,303.38 810.16,303.92 810.97,303.38 811.78,303.92 812.59,303.92 813.40,303.92 814.22,303.92 815.05,302.57 815.87,303.38 816.70,303.92 817.52,303.92 818.35,302.30 819.19,303.92 820.01,303.92 820.85,304.46 821.68,303.92 822.51,302.03 823.32,303.92 824.13,303.92 824.94,302.84 825.76,303.92 826.57,303.92 827.39,303.38 828.20,303.38 829.02,300.95 829.83,303.38 830.64,303.38 831.44,303.38 832.25,292.31 833.06,303.92 833.87,303.38 834.68,302.84 835.49,303.92 836.31,303.92 837.11,303.92 837.94,303.92 838.75,303.92 839.56,303.92 840.37,303.38 841.18,303.38 841.99,303.38 842.80,303.92 843.62,303.92 844.43,292.31 845.23,303.92 846.05,303.92 846.86,303.92 847.67,303.38 848.48,303.92 849.29,302.84 850.11,303.38 850.97,303.92 851.81,303.92 852.61,304.46 853.43,302.84 854.23,303.92 855.06,303.92 855.88,302.84 856.69,303.38 857.51,303.92 858.31,303.92 859.10,303.38 859.92,303.38 860.72,303.92 861.54,303.92 862.35,302.84 863.16,303.92 863.97,302.84 864.79,303.92 865.61,302.84 866.41,303.92 867.22,302.84 868.03,303.92 868.84,302.84 869.66,303.92 870.46,303.92 871.27,303.92 872.09,303.38 872.90,303.38 873.72,303.92 874.56,302.84 875.37,303.38 876.18,303.38 876.99,304.46 877.80,303.38 878.62,303.38 879.43,303.92 880.25,303.38 881.05,302.84 881.87,302.30 882.68,303.92 883.51,303.38 884.32,303.38 885.14,303.92 885.95,302.03 886.76,303.38 887.57,303.38 888.38,303.38 889.19,303.38 890.00,303.92 890.82,300.95 891.63,302.84 892.44,302.84 893.25,303.92 894.06,303.38 894.87,303.92 895.68,303.92 896.49,302.84 897.30,303.92 898.11,303.92 898.93,303.92 899.73,303.92 900.54,302.84 901.35,303.38 902.17,303.38 902.98,304.46 903.79,303.38 904.60,302.84 905.40,303.92 906.21,303.92 907.02,301.49 907.84,302.84 908.65,303.38 909.48,302.84 910.29,303.92 911.10,303.92 911.92,302.84 912.73,303.92 913.55,301.49 914.42,302.57 915.25,303.38 916.07,303.92 916.89,302.84 917.71,303.92 918.52,300.95 919.33,303.38 920.14,303.38 920.95,302.84 921.76,303.38 922.58,303.38 923.39,302.84 924.20,303.38 925.03,303.92 925.85,292.85 926.66,303.38 927.47,303.92 928.28,302.84 929.10,303.92 929.91,303.92 930.72,303.38 931.53,303.38 932.35,303.38 933.16,303.92 933.98,302.57 934.79,303.38 935.61,303.38 936.42,303.92 937.24,303.38 938.05,303.92 938.87,303.92 939.67,302.84 940.49,303.92 941.31,303.38 942.11,303.92 942.92,304.46 943.73,303.38 944.54,303.92 945.36,303.92 946.17,302.84 946.98,303.92 947.79,303.92 948.60,303.92 949.42,303.38 950.22,303.38 951.04,303.92 951.85,303.92 952.68,303.38 953.49,292.58 954.28,293.12 955.08,302.84 955.88,302.30 956.70,303.92 957.51,299.87 958.33,303.92 959.15,302.84 959.96,301.49 960.78,303.92 961.60,303.38 962.40,303.38 963.22,303.92 964.02,303.38 964.83,302.84 965.63,303.92 966.44,303.92 967.25,302.84 968.07,303.92 968.87,303.38 969.68,302.84 970.49,302.57 971.30,303.38 972.11,302.57 972.92,302.57 973.73,303.38 974.53,302.30 975.32,303.92 976.15,303.92 976.96,303.38 977.77,303.92 978.59,303.38 979.41,303.38 980.22,303.38 981.02,303.38 981.84,303.92 982.65,303.92 983.46,303.92 984.27,303.92 985.15,302.84 985.95,302.03 986.78,303.38 987.59,303.92 988.41,303.38 989.21,303.92 990.02,303.38 990.84,303.92 991.65,302.84 992.46,303.92 993.27,303.92 994.08,304.46 994.89,303.92 995.71,303.38 996.52,302.57 997.33,303.38 998.14,302.84 998.96,304.46 999.77,303.92 1000.59,303.38 1001.40,302.84 1002.22,301.49 1003.05,303.38 1003.87,303.92 1004.68,303.92 1005.49,303.92 1006.31,302.03 1007.13,303.92 1007.94,303.38 1008.74,303.92 1009.55,303.38 1010.36,303.92 1011.17,303.92 1011.99,276.92 1012.80,304.46 1013.62,303.38 1014.43,303.38 1015.24,303.38 1016.04,303.92 1016.85,303.38 1017.66,301.49 1018.48,304.46 1019.28,303.92 1020.10,303.92 1020.91,303.38 1021.71,303.38 1022.51,303.92 1023.32,303.38 1024.13,302.84 1024.94,302.03 1025.74,302.84 1026.55,303.38 1027.36,303.38 1028.16,303.38 1028.98,303.92 1029.78,303.92 1030.60,304.46 1031.41,303.92 1032.21,303.38 1033.01,303.38 1033.82,303.92 1034.65,303.38 1035.45,303.92 1036.26,303.92 1037.07,304.46 1037.92,303.38 1038.72,303.92 1039.54,302.57 1040.36,303.92 1041.17,303.92 1041.98,303.38 1042.80,303.38 1043.61,303.92 1044.42,303.38 1045.23,303.92 1046.03,304.46 1046.84,303.38 1047.65,303.92 1048.47,302.84 1049.28,303.92 1050.08,303.92 1050.89,302.57 1051.70,304.46 1052.51,303.38 1053.32,302.84 1054.14,303.92 1054.99,303.92 1055.80,303.38 1056.60,303.38 1057.40,303.38 1058.20,303.92 1059.03,303.38 1059.83,303.92 1060.65,303.38 1061.46,303.38 1062.27,303.92 1063.09,303.38 1063.90,303.38 1064.71,303.92 1065.52,303.38 1066.33,302.84 1067.14,303.92 1067.96,303.38 1068.77,303.38 1069.57,303.92 1070.38,302.84 1071.18,303.92 1071.99,303.92 1072.80,303.38 1073.61,303.92 1074.42,303.92 1075.23,303.92 1076.04,303.38 1076.85,303.38 1077.67,299.87 1078.48,303.38 1079.28,304.46 1080.09,303.38 1080.90,303.38 1081.72,303.92 1082.52,303.92 1083.34,303.92 1084.15,303.38 1084.95,304.46 1085.76,303.38 1086.57,303.38 1087.38,303.92 1088.19,303.92 1089.02,303.92 1089.83,303.38 1090.64,303.38 1091.45,302.84 1092.26,303.92 1093.08,303.92 1093.90,303.92 1094.72,303.92 1095.58,303.38 1096.39,303.92 1097.26,302.84 1098.07,302.84 1098.88,304.46 1099.68,303.38 1100.49,303.92 1101.30,303.92 1102.12,302.57 1102.93,302.84 1103.74,303.92 1104.55,303.92 1105.36,303.92 1106.17,303.38 1106.97,303.38 1107.78,303.92 1108.59,303.38 1109.40,303.92 1110.20,303.38 1111.01,303.38 1111.83,302.84 1112.64,303.38 1113.46,303.38 1114.26,303.92 1115.06,300.95 1115.88,304.46 1116.68,303.92 1117.51,303.92 1118.32,303.92 1119.12,302.84 1119.94,300.68 1120.75,303.92 1121.55,303.92 1122.36,303.92 1123.17,303.38 1123.97,303.38 1124.78,302.84 1125.59,303.38 1126.39,303.92 1127.19,303.92 1128.01,303.38 1128.81,303.92 1129.63,303.92 1130.44,303.38 1131.28,303.92 1132.10,294.20 1132.90,302.84 1133.71,303.92 1134.52,303.38 1135.31,303.38 1136.12,303.92 1136.94,303.38 1137.74,302.84 1138.55,303.92 1139.35,303.38 1140.16,303.92 1140.96,302.30 1141.77,293.66 1142.58,303.38 1143.39,303.38 1144.19,302.84 1145.01,303.38 1145.81,302.84 1146.62,303.92 1147.44,303.38 1148.25,303.38 1149.06,303.92 1149.87,303.92 1150.68,303.38 1151.49,303.92 1152.31,303.92 1153.12,303.38 1153.94,303.38 1154.74,303.92 1155.55,302.57 1156.36,304.46 1157.17,303.92 1157.98,303.92 1158.81,303.92 1159.62,303.92 1160.44,303.92 1161.26,297.71 1162.07,303.92 1162.88,303.92 1163.68,303.38 1164.49,303.92 1165.31,303.92 1166.12,303.38 1166.92,303.92 1167.74,302.84 1168.55,303.92 1169.37,303.92 1170.18,303.92 1171.01,292.31 1171.84,304.46 1172.70,303.92 1173.52,303.92 1174.33,303.38 1175.13,303.92 1175.94,303.92 1176.75,303.92 1177.56,303.38 1178.37,303.92 1179.19,303.38 1180.00,303.38"/>
<rect x="70" y="332" width="12" height="12" fill="#d62728" fill-opacity="0.95"/>
<text x="88" y="342" font-size="11" fill="#333" font-family="Arial, Helvetica, sans-serif">nsc1.utdallas.edu</text>
<rect x="350" y="332" width="12" height="12" fill="#d62728" fill-opacity="0.80"/>
<text x="368" y="342" font-size="11" fill="#333" font-family="Arial, Helvetica, sans-serif">nsc2.utdallas.edu</text>
<rect x="630" y="332" width="12" height="12" fill="#d62728" fill-opacity="0.65"/>
<text x="648" y="342" font-size="11" fill="#333" font-family="Arial, Helvetica, sans-serif">nsc3.utdallas.edu</text>
<rect x="910" y="332" width="12" height="12" fill="#d62728" fill-opacity="0.50"/>
<text x="928" y="342" font-size="11" fill="#333" font-family="Arial, Helvetica, sans-serif">nsc4.utdallas.edu</text>
</svg>