<?xml version="1.0" encoding="UTF-8"?>
<svg xmlns="http://www.w3.org/2000/svg" width="1200" height="360" viewBox="0 0 1200 360" role="img" aria-label="CPU Utilization (%)">
<rect width="100%" height="100%" fill="#ffffff"/>
<text x="600.0" y="22" text-anchor="middle" font-size="16" font-family="Arial, Helvetica, sans-serif" font-weight="bold">CPU Utilization (%)</text>
<line x1="70" y1="35.00" x2="1180" y2="35.00" stroke="#e3e3e3" stroke-width="1"/>
<text x="62" y="39.00" text-anchor="end" font-size="11" fill="#444" font-family="Arial, Helvetica, sans-serif">100</text>
<line x1="70" y1="89.00" x2="1180" y2="89.00" stroke="#e3e3e3" stroke-width="1"/>
<text x="62" y="93.00" text-anchor="end" font-size="11" fill="#444" font-family="Arial, Helvetica, sans-serif">80</text>
<line x1="70" y1="143.00" x2="1180" y2="143.00" stroke="#e3e3e3" stroke-width="1"/>
<text x="62" y="147.00" text-anchor="end" font-size="11" fill="#444" font-family="Arial, Helvetica, sans-serif">60</text>
<line x1="70" y1="197.00" x2="1180" y2="197.00" stroke="#e3e3e3" stroke-width="1"/>
<text x="62" y="201.00" text-anchor="end" font-size="11" fill="#444" font-family="Arial, Helvetica, sans-serif">40</text>
<line x1="70" y1="251.00" x2="1180" y2="251.00" stroke="#e3e3e3" stroke-width="1"/>
<text x="62" y="255.00" text-anchor="end" font-size="11" fill="#444" font-family="Arial, Helvetica, sans-serif">20</text>
<line x1="70" y1="305.00" x2="1180" y2="305.00" stroke="#e3e3e3" stroke-width="1"/>
<text x="62" y="309.00" text-anchor="end" font-size="11" fill="#444" font-family="Arial, Helvetica, sans-serif">0</text>
<line x1="70" y1="35" x2="70" y2="305" stroke="#999"/>
<line x1="70" y1="305" x2="1180" y2="305" stroke="#999"/>
<text x="70.00" y="323" text-anchor="middle" font-size="10" fill="#444" font-family="Arial, Helvetica, sans-serif">2026-02-11 16:38</text>
<text x="347.50" y="323" text-anchor="middle" font-size="10" fill="#444" font-family="Arial, Helvetica, sans-serif">2026-02-11 22:24</text>
<text x="625.00" y="323" text-anchor="middle" font-size="10" fill="#444" font-family="Arial, Helvetica, sans-serif">2026-02-12 04:11</text>
<text x="902.50" y="323" text-anchor="middle" font-size="10" fill="#444" font-family="Arial, Helvetica, sans-serif">2026-02-12 09:58</text>
<text x="1180.00" y="323" text-anchor="middle" font-size="10" fill="#444" font-family="Arial, Helvetica, sans-serif">2026-02-12 15:45</text>
<polyline fill="none" stroke="#d62728" stroke-opacity="0.95" stroke-width="2" points="74.31,304.46 78.62,298.79 82.92,296.90 87.24,303.92 91.58,304.73 95.85,304.46 100.17,303.92 104.83,304.73 109.11,303.92 113.39,304.46 117.67,303.92 122.04,304.46 126.32,304.46 130.60,303.92 138.35,304.46 145.02,303.92 149.37,304.46 153.78,303.92 158.07,300.95 162.37,304.73 166.58,278.27 170.92,303.92 175.22,304.46 179.55,294.74 183.88,304.46 188.27,303.92 192.59,301.49 196.91,303.92 201.42,295.28 205.77,294.20 210.06,303.65 214.48,304.46 218.78,304.46 223.09,303.92 227.53,303.65 231.79,302.30 236.10,303.92 240.48,304.46 244.74,303.92 249.04,304.73 253.29,304.73 257.59,304.46 261.91,303.38 266.18,304.46 270.58,303.92 274.93,303.38 279.18,304.46 283.47,297.71 287.82,297.44 292.13,48.23 297.04,303.92 301.35,303.92 305.64,304.46 309.91,303.65 314.19,303.65 318.45,304.46 322.73,304.46 327.05,303.92 331.34,304.46 335.73,303.92 340.02,304.46 344.27,304.46 348.61,299.60 352.97,303.65 357.26,303.92 361.58,304.73 365.83,303.92 370.10,304.73 374.37,304.46 378.64,304.46 382.93,304.46 387.24,303.92 391.50,304.73 395.81,303.92 400.13,304.46 404.38,304.73 408.71,303.38 412.98,303.38 417.26,303.65 421.67,304.46 425.96,303.65 430.26,304.73 434.59,304.46 438.87,304.46 443.19,304.73 447.48,303.92 451.73,303.92 456.00,304.46 460.33,304.73 464.66,299.60 468.95,303.65 473.30,304.46 477.54,304.73 481.86,303.65 486.14,303.92 490.43,304.46 494.69,304.46 499.00,303.92 503.27,303.92 507.60,303.92 511.90,304.46 516.21,303.92 520.52,303.92 524.87,298.79 529.21,303.65 533.50,304.46 537.78,304.73 542.07,304.73 546.35,304.46 550.70,304.46 555.00,304.46 559.29,304.46 563.59,302.84 567.91,304.46 572.22,304.46 576.56,304.46 580.93,304.46 585.21,304.46 589.51,304.46 593.82,303.65 598.11,304.73 602.40,303.38 606.74,304.46 611.40,304.46 615.68,304.73 620.04,303.92 624.33,303.92 628.60,304.46 632.86,299.87 637.09,304.46 641.38,304.73 645.69,295.01 649.98,304.46 654.26,303.92 658.55,303.92 662.85,303.92 667.11,304.46 671.50,303.65 675.78,304.46 680.07,304.46 684.35,304.46 688.65,303.92 692.93,303.92 697.25,303.92 701.57,304.73 705.88,304.46 710.18,304.46 714.47,303.92 718.74,304.46 723.02,303.65 727.31,303.92 731.60,303.65 735.92,304.73 740.27,304.46 744.57,304.46 748.87,304.46 753.21,303.11 757.52,303.38 761.78,304.46 766.10,304.46 770.41,304.46 774.78,303.65 779.14,303.92 783.42,304.46 787.74,297.71 792.00,294.20 796.27,303.92 800.56,304.46 804.87,303.65 809.15,297.71 813.40,304.46 817.68,303.92 822.02,304.46 826.33,304.46 830.65,303.92 834.94,303.38 839.34,304.73 843.63,303.92 847.93,303.38 852.20,303.92 856.47,304.46 861.15,304.46 865.55,303.92 869.81,304.73 874.09,304.46 878.33,304.46 882.65,304.73 886.94,304.46 891.26,304.73 895.58,35.00 899.86,303.65 904.14,303.11 908.45,297.17 912.84,304.46 917.14,304.46 921.40,304.46 925.69,303.92 930.04,303.65 934.43,304.46 938.83,303.11 943.09,304.73 947.40,304.46 951.70,303.92 955.98,304.73 960.30,304.46 964.61,303.92 968.97,304.73 973.24,304.46 977.51,304.46 981.86,304.46 986.16,303.92 990.45,303.65 994.76,304.46 999.12,303.65 1003.42,304.46 1007.70,301.76 1011.96,302.03 1016.24,304.46 1020.55,304.46 1024.85,304.46 1029.13,35.00 1033.42,303.65 1037.67,303.92 1041.96,304.46 1046.30,304.46 1050.60,303.65 1054.92,304.46 1059.28,304.73 1063.59,304.46 1067.92,304.73 1072.20,35.00 1076.52,304.73 1080.81,303.65 1085.11,304.46 1089.42,303.65 1093.82,304.73 1098.12,300.68 1102.44,303.65 1106.75,303.92 1111.03,304.46 1115.35,304.46 1119.60,304.46 1123.89,304.46 1128.22,304.73 1132.53,304.73 1136.84,304.73 1141.14,303.65 1145.47,303.92 1149.77,303.92 1154.07,304.73 1158.40,35.00 1162.75,304.46 1167.03,303.92 1171.32,304.73 1175.65,303.92 1180.00,304.73"/>
<polyline fill="none" stroke="#d62728" stroke-opacity="0.80" stroke-width="2" points="70.00,303.38 74.31,304.19 78.62,302.57 82.92,303.38 87.24,304.19 91.58,287.72 95.85,303.38 100.17,304.19 104.83,304.19 109.11,303.38 113.39,303.38 117.67,304.19 122.04,304.19 126.32,304.19 130.60,304.19 138.35,304.19 145.02,302.57 149.37,304.19 153.78,304.19 158.07,304.19 162.37,303.38 166.58,303.38 170.92,304.19 175.22,302.57 179.55,302.57 183.88,303.38 188.27,303.38 192.59,304.19 196.91,303.38 201.42,35.00 205.77,303.38 210.06,35.00 214.48,35.00 218.78,303.38 223.09,304.19 227.53,35.00 231.79,303.38 236.10,302.57 240.48,304.19 244.74,303.38 249.04,303.38 253.29,302.57 257.59,304.19 261.91,303.38 266.18,303.38 270.58,302.57 274.93,303.38 279.18,35.00 283.47,303.38 287.82,304.19 292.13,304.19 297.04,302.57 301.35,35.00 305.64,304.19 309.91,303.38 314.19,304.19 318.45,303.38 322.73,303.38 327.05,304.19 331.34,35.00 335.73,304.19 340.02,304.19 344.27,304.19 348.61,303.38 352.97,304.19 357.26,302.57 361.58,304.19 365.83,302.57 370.10,302.57 374.37,303.38 378.64,288.80 382.93,302.57 387.24,304.19 391.50,304.19 395.81,303.38 400.13,304.19 404.38,300.14 408.71,304.19 412.98,304.19 417.26,304.19 421.67,35.00 425.96,35.00 430.26,302.57 434.59,35.00 438.87,35.00 443.19,303.38 447.48,304.19 451.73,35.00 456.00,304.19 460.33,304.19 464.66,304.19 468.95,304.19 473.30,303.38 477.54,303.38 481.86,304.19 486.14,304.19 490.43,303.38 494.69,286.91 499.00,303.38 503.27,304.19 507.60,304.19 511.90,304.19 516.21,303.38 520.52,304.19 524.87,304.19 529.21,303.38 533.50,302.57 537.78,302.57 542.07,304.19 546.35,302.57 550.70,304.19 555.00,304.19 559.29,304.19 563.59,35.00 567.91,304.19 572.22,304.19 576.56,302.57 580.93,35.00 585.21,35.00 589.51,303.38 593.82,304.19 598.11,303.38 602.40,304.19 606.74,304.19 611.40,302.57 615.68,304.19 620.04,35.00 624.33,35.00 628.60,302.57 632.86,304.19 637.09,304.19 641.38,303.38 645.69,35.00 649.98,303.38 654.26,35.00 658.55,304.19 662.85,304.19 667.11,304.19 671.50,303.38 675.78,303.38 680.07,304.19 684.35,304.19 688.65,295.28 692.93,35.00 697.25,303.38 701.57,35.00 705.88,35.00 710.18,302.57 714.47,304.19 718.74,299.33 723.02,304.19 727.31,304.19 731.60,304.19 735.92,303.38 740.27,303.38 744.57,303.38 748.87,302.57 753.21,303.38 757.52,304.19 761.78,303.38 766.10,304.19 770.41,303.38 774.78,304.19 779.14,303.38 783.42,303.38 787.74,302.57 792.00,303.38 796.27,304.19 800.56,303.38 804.87,35.00 809.15,304.19 813.40,303.38 817.68,302.57 822.02,304.19 826.33,304.19 830.65,303.38 834.94,303.38 839.34,304.19 843.63,35.00 847.93,303.38 852.20,35.00 856.47,302.57 861.15,303.38 865.55,304.19 869.81,35.00 874.09,303.38 878.33,35.00 882.65,304.19 886.94,304.19 891.26,35.00 895.58,304.19 899.86,302.57 904.14,302.57 908.45,303.38 912.84,35.00 917.14,302.57 921.40,304.19 925.69,301.76 930.04,303.38 934.43,303.38 938.83,304.19 943.09,303.38 947.40,303.38 951.70,304.19 955.98,304.19 960.30,303.38 964.61,304.19 968.97,304.19 973.24,303.38 977.51,35.00 981.86,304.19 986.16,303.38 990.45,304.19 994.76,304.19 999.12,304.19 1003.42,35.00 1007.70,35.00 1011.96,302.57 1016.24,302.57 1020.55,304.19 1024.85,303.38 1029.13,302.57 1033.42,302.57 1037.67,35.00 1041.96,304.19 1046.30,35.00 1050.60,303.38 1054.92,35.00 1059.28,303.38 1063.59,303.38 1067.92,303.38 1072.20,35.00 1076.52,304.19 1080.81,302.57 1085.11,303.38 1089.42,304.19 1093.82,303.38 1098.12,35.00 1102.44,303.38 1106.75,304.19 1111.03,303.38 1115.35,304.19 1119.60,35.00 1123.89,302.57 1128.22,304.19 1132.53,304.19 1136.84,303.38 1141.14,303.38 1145.47,304.19 1149.77,303.38 1154.07,304.19 1158.40,304.19 1162.75,304.19 1167.03,303.38 1171.32,302.57 1175.65,304.19 1180.00,35.00"/>
<polyline fill="none" stroke="#d62728" stroke-opacity="0.65" stroke-width="2" points="70.00,35.00 74.31,304.46 78.62,304.46 82.92,302.30 87.24,304.46 91.58,303.38 95.85,304.46 100.17,304.46 104.83,35.00 109.11,304.46 113.39,304.46 117.67,303.92 122.04,303.92 126.32,304.46 130.60,304.46 138.35,303.92 145.02,304.46 149.37,35.00 153.78,303.92 158.07,302.84 162.37,304.46 166.58,303.92 170.92,302.84 175.22,35.00 179.55,303.92 183.88,35.00 188.27,35.00 192.59,35.00 196.91,303.92 201.42,35.00 205.77,303.38 210.06,303.92 214.48,304.46 218.78,35.00 223.09,35.00 227.53,304.46 231.79,35.00 236.10,304.46 240.48,35.00 244.74,304.46 249.04,303.92 253.29,35.00 257.59,304.46 261.91,304.46 266.18,293.12 270.58,35.00 274.93,304.46 279.18,304.46 283.47,304.46 287.82,35.00 292.13,304.46 297.04,304.46 301.35,304.46 305.64,35.00 309.91,35.00 314.19,304.46 318.45,304.46 322.73,303.38 327.05,303.92 331.34,304.46 335.73,35.00 340.02,304.46 344.27,304.46 348.61,35.00 352.97,304.46 357.26,303.92 361.58,304.46 365.83,304.46 370.10,35.00 374.37,303.92 378.64,303.92 382.93,304.46 387.24,303.92 391.50,303.92 395.81,35.00 400.13,303.92 404.38,304.46 408.71,304.46 412.98,303.38 417.26,35.00 421.67,304.46 425.96,303.38 430.26,304.46 434.59,35.00 438.87,304.46 443.19,304.46 447.48,303.92 451.73,303.92 456.00,303.92 460.33,304.46 464.66,303.92 468.95,304.46 473.30,303.92 477.54,35.00 481.86,303.92 486.14,303.92 490.43,304.46 494.69,304.46 499.00,303.92 503.27,303.92 507.60,35.00 511.90,35.00 516.21,303.92 520.52,35.00 524.87,304.46 529.21,304.46 533.50,304.46 537.78,304.46 542.07,303.92 546.35,304.46 550.70,303.38 555.00,304.46 559.29,303.92 563.59,35.00 567.91,304.46 572.22,303.92 576.56,303.92 580.93,303.92 585.21,304.46 589.51,35.00 593.82,304.46 598.11,304.46 602.40,35.00 606.74,303.92 611.40,304.46 615.68,303.92 620.04,304.46 624.33,304.46 628.60,303.92 632.86,303.92 637.09,304.46 641.38,304.46 645.69,304.46 649.98,303.38 654.26,304.46 658.55,35.00 662.85,303.92 667.11,35.00 671.50,304.46 675.78,35.00 680.07,35.00 684.35,303.92 688.65,303.92 692.93,304.46 697.25,304.46 701.57,304.46 705.88,303.92 710.18,304.46 714.47,304.46 718.74,303.92 723.02,35.00 727.31,304.46 731.60,35.00 735.92,303.92 740.27,304.46 744.57,304.46 748.87,35.00 753.21,35.00 757.52,35.00 761.78,304.46 766.10,303.92 770.41,304.46 774.78,303.92 779.14,303.92 783.42,304.46 787.74,304.46 792.00,304.46 796.27,304.46 800.56,304.46 804.87,304.46 809.15,304.46 813.40,282.59 817.68,304.46 822.02,303.92 826.33,304.46 830.65,304.46 834.94,304.46 839.34,303.38 843.63,304.46 847.93,304.46 852.20,303.92 856.47,304.46 861.15,303.92 865.55,304.46 869.81,304.46 874.09,304.46 878.33,304.46 882.65,304.46 886.94,303.38 891.26,304.46 895.58,304.46 899.86,304.46 904.14,303.92 908.45,35.00 912.84,304.46 917.14,303.92 921.40,303.92 925.69,303.92 930.04,35.00 934.43,304.46 938.83,304.46 943.09,35.00 947.40,303.92 951.70,35.00 955.98,35.00 960.30,304.46 964.61,304.46 968.97,35.00 973.24,35.00 977.51,304.46 981.86,304.46 986.16,303.92 990.45,303.92 994.76,304.46 999.12,304.46 1003.42,304.46 1007.70,303.92 1011.96,304.46 1016.24,304.46 1020.55,303.92 1024.85,303.38 1029.13,304.46 1033.42,35.00 1037.67,304.46 1041.96,35.00 1046.30,35.00 1050.60,303.92 1054.92,303.92 1059.28,304.46 1063.59,304.46 1067.92,304.46 1072.20,303.92 1076.52,297.98 1080.81,35.00 1085.11,304.46 1089.42,303.92 1093.82,304.46 1098.12,303.92 1102.44,35.00 1106.75,303.92 1111.03,304.46 1115.35,35.00 1119.60,303.92 1123.89,304.46 1128.22,304.46 1132.53,35.00 1136.84,303.92 1141.14,303.92 1145.47,35.00 1149.77,303.92 1154.07,303.92 1158.40,35.00 1162.75,303.92 1167.03,304.46 1171.32,303.92 1175.65,304.46 1180.00,303.92"/>
<polyline fill="none" stroke="#d62728" stroke-opacity="0.50" stroke-width="2" points="70.00,302.84 74.31,302.84 78.62,303.92 82.92,303.92 87.24,303.92 91.58,303.38 95.85,303.92 100.17,302.57 104.83,303.38 109.11,302.84 113.39,303.92 117.67,303.38 122.04,302.84 126.32,303.38 130.60,287.18 138.35,303.38 145.02,303.38 149.37,303.38 153.78,303.92 158.07,302.84 162.37,293.12 166.58,303.38 170.92,303.38 175.22,303.38 179.55,303.38 183.88,303.38 188.27,303.38 192.59,303.92 196.91,303.38 201.42,303.92 205.77,303.92 210.06,303.38 214.48,303.38 218.78,303.38 223.09,302.03 227.53,303.38 231.79,303.92 236.10,303.92 240.48,303.38 244.74,303.92 249.04,303.92 253.29,303.92 257.59,302.84 261.91,303.92 266.18,303.38 270.58,303.92 274.93,302.84 279.18,303.92 283.47,302.84 287.82,303.38 292.13,302.84 297.04,303.38 301.35,303.92 305.64,303.38 309.91,303.92 314.19,303.38 318.45,303.38 322.73,303.92 327.05,302.30 331.34,303.92 335.73,303.92 340.02,304.46 344.27,303.92 348.61,303.92 352.97,303.92 357.26,303.38 361.58,289.61 365.83,303.92 370.10,303.38 374.37,302.84 378.64,299.87 382.93,303.92 387.24,303.92 391.50,304.46 395.81,303.92 400.13,302.03 404.38,304.46 408.71,303.38 412.98,303.38 417.26,302.84 421.67,302.57 425.96,303.92 430.26,303.92 434.59,303.92 438.87,303.38 443.19,303.38 447.48,302.84 451.73,303.38 456.00,302.84 460.33,303.92 464.66,303.38 468.95,294.20 473.30,303.38 477.54,303.38 481.86,303.92 486.14,303.92 490.43,302.57 494.69,303.38 499.00,302.84 503.27,302.84 507.60,302.57 511.90,303.92 516.21,303.92 520.52,303.92 524.87,303.92 529.21,302.84 533.50,303.92 537.78,303.92 542.07,302.84 546.35,303.92 550.70,302.84 555.00,302.84 559.29,303.92 563.59,303.92 567.91,303.92 572.22,303.92 576.56,302.57 580.93,303.92 585.21,303.92 589.51,303.38 593.82,303.38 598.11,303.92 602.40,304.46 606.74,303.92 611.40,303.92 615.68,303.38 620.04,303.92 624.33,303.92 628.60,304.46 632.86,303.38 637.09,302.84 641.38,303.92 645.69,302.84 649.98,303.92 654.26,303.38 658.55,303.38 662.85,304.46 667.11,303.38 671.50,303.92 675.78,302.57 680.07,302.03 684.35,303.92 688.65,303.92 692.93,303.38 697.25,303.38 701.57,303.92 705.88,303.38 710.18,303.38 714.47,302.84 718.74,302.57 723.02,303.38 727.31,302.03 731.60,302.03 735.92,302.03 740.27,302.84 744.57,302.03 748.87,302.84 753.21,302.84 757.52,302.57 761.78,302.03 766.10,303.92 770.41,303.38 774.78,303.92 779.14,303.92 783.42,303.38 787.74,302.84 792.00,303.92 796.27,303.92 800.56,303.92 804.87,296.90 809.15,303.38 813.40,302.84 817.68,303.92 822.02,303.92 826.33,302.84 830.65,303.92 834.94,302.84 839.34,303.92 843.63,303.92 847.93,303.38 852.20,303.92 856.47,303.92 861.15,299.33 865.55,303.38 869.81,303.92 874.09,303.38 878.33,303.92 882.65,304.46 886.94,303.92 891.26,303.38 895.58,303.92 899.86,302.84 904.14,303.38 908.45,303.38 912.84,303.92 917.14,303.92 921.40,303.92 925.69,302.84 930.04,303.92 934.43,303.38 938.83,303.92 943.09,303.92 947.40,303.38 951.70,302.84 955.98,303.38 960.30,303.38 964.61,303.92 968.97,303.92 973.24,302.84 977.51,303.92 981.86,303.38 986.16,303.92 990.45,303.92 994.76,303.38 999.12,303.92 1003.42,302.30 1007.70,303.92 1011.96,303.38 1016.24,303.92 1020.55,302.84 1024.85,303.92 1029.13,302.84 1033.42,303.92 1037.67,303.92 1041.96,303.92 1046.30,303.92 1050.60,302.84 1054.92,303.92 1059.28,303.92 1063.59,299.87 1067.92,303.92 1072.20,302.84 1076.52,302.84 1080.81,303.92 1085.11,303.92 1089.42,303.92 1093.82,304.46 1098.12,304.46 1102.44,303.38 1106.75,303.38 1111.03,303.38 1115.35,303.92 1119.60,303.92 1123.89,302.84 1128.22,303.92 1132.53,303.92 1136.84,303.38 1141.14,303.38 1145.47,303.92 1149.77,302.57 1154.07,303.92 1158.40,302.84 1162.75,303.92 1167.03,303.92 1171.32,303.38 1175.65,303.92 1180.00,304.46"/>
<rect x="70" y="332" width="12" height="12" fill="#d62728" fill-opacity="0.95"/>
<text x="88" y="342" font-size="11" fill="#333" font-family="Arial, Helvetica, sans-serif">nsc1.utdallas.edu</text>
<rect x="350" y="332" width="12" height="12" fill="#d62728" fill-opacity="0.80"/>
<text x="368" y="342" font-size="11" fill="#333" font-family="Arial, Helvetica, sans-serif">nsc2.utdallas.edu</text>
<rect x="630" y="332" width="12" height="12" fill="#d62728" fill-opacity="0.65"/>
<text x="648" y="342" font-size="11" fill="#333" font-family="Arial, Helvetica, sans-serif">nsc3.utdallas.edu</text>
<rect x="910" y="332" width="12" height="12" fill="#d62728" fill-opacity="0.50"/>
<text x="928" y="342" font-size="11" fill="#333" font-family="Arial, Helvetica, sans-serif">nsc4.utdallas.edu</text>
</svg>