<?xml version="1.0" encoding="UTF-8"?>
<svg xmlns="http://www.w3.org/2000/svg" width="1200" height="360" viewBox="0 0 1200 360" role="img" aria-label="CPU Utilization (%)">
<rect width="100%" height="100%" fill="#ffffff"/>
<text x="600.0" y="22" text-anchor="middle" font-size="16" font-family="Arial, Helvetica, sans-serif" font-weight="bold">CPU Utilization (%)</text>
<line x1="70" y1="35.00" x2="1180" y2="35.00" stroke="#e3e3e3" stroke-width="1"/>
<text x="62" y="39.00" text-anchor="end" font-size="11" fill="#444" font-family="Arial, Helvetica, sans-serif">100</text>
<line x1="70" y1="89.00" x2="1180" y2="89.00" stroke="#e3e3e3" stroke-width="1"/>
<text x="62" y="93.00" text-anchor="end" font-size="11" fill="#444" font-family="Arial, Helvetica, sans-serif">80</text>
<line x1="70" y1="143.00" x2="1180" y2="143.00" stroke="#e3e3e3" stroke-width="1"/>
<text x="62" y="147.00" text-anchor="end" font-size="11" fill="#444" font-family="Arial, Helvetica, sans-serif">60</text>
<line x1="70" y1="197.00" x2="1180" y2="197.00" stroke="#e3e3e3" stroke-width="1"/>
<text x="62" y="201.00" text-anchor="end" font-size="11" fill="#444" font-family="Arial, Helvetica, sans-serif">40</text>
<line x1="70" y1="251.00" x2="1180" y2="251.00" stroke="#e3e3e3" stroke-width="1"/>
<text x="62" y="255.00" text-anchor="end" font-size="11" fill="#444" font-family="Arial, Helvetica, sans-serif">20</text>
<line x1="70" y1="305.00" x2="1180" y2="305.00" stroke="#e3e3e3" stroke-width="1"/>
<text x="62" y="309.00" text-anchor="end" font-size="11" fill="#444" font-family="Arial, Helvetica, sans-serif">0</text>
<line x1="70" y1="35" x2="70" y2="305" stroke="#999"/>
<line x1="70" y1="305" x2="1180" y2="305" stroke="#999"/>
<text x="70.00" y="323" text-anchor="middle" font-size="10" fill="#444" font-family="Arial, Helvetica, sans-serif">2026-02-11 16:38</text>
<text x="347.50" y="323" text-anchor="middle" font-size="10" fill="#444" font-family="Arial, Helvetica, sans-serif">2026-02-12 10:36</text>
<text x="625.00" y="323" text-anchor="middle" font-size="10" fill="#444" font-family="Arial, Helvetica, sans-serif">2026-02-13 04:34</text>
<text x="902.50" y="323" text-anchor="middle" font-size="10" fill="#444" font-family="Arial, Helvetica, sans-serif">2026-02-13 22:33</text>
<text x="1180.00" y="323" text-anchor="middle" font-size="10" fill="#444" font-family="Arial, Helvetica, sans-serif">2026-02-14 16:31</text>
<polyline fill="none" stroke="#d62728" stroke-opacity="0.95" stroke-width="2" points="71.39,304.46 72.78,298.79 74.16,296.90 75.55,303.92 76.94,304.73 78.32,304.46 79.71,303.92 81.21,304.73 82.58,303.92 83.96,304.46 85.34,303.92 86.74,304.46 88.12,304.46 89.50,303.92 91.99,304.46 94.14,303.92 95.54,304.46 96.96,303.92 98.34,300.95 99.72,304.73 101.07,278.27 102.47,303.92 103.85,304.46 105.25,294.74 106.64,304.46 108.05,303.92 109.44,301.49 110.83,303.92 112.29,295.28 113.68,294.20 115.06,303.65 116.48,304.46 117.87,304.46 119.26,303.92 120.68,303.65 122.06,302.30 123.44,303.92 124.85,304.46 126.22,303.92 127.61,304.73 128.97,304.73 130.36,304.46 131.74,303.38 133.12,304.46 134.54,303.92 135.94,303.38 137.30,304.46 138.68,297.71 140.08,297.44 141.47,48.23 143.05,303.92 144.44,303.92 145.82,304.46 147.19,303.65 148.57,303.65 149.94,304.46 151.32,304.46 152.71,303.92 154.09,304.46 155.50,303.92 156.88,304.46 158.25,304.46 159.64,299.60 161.04,303.65 162.42,303.92 163.81,304.73 165.18,303.92 166.55,304.73 167.93,304.46 169.30,304.46 170.68,304.46 172.07,303.92 173.44,304.73 174.83,303.92 176.22,304.46 177.59,304.73 178.98,303.38 180.35,303.38 181.73,303.65 183.15,304.46 184.53,303.65 185.91,304.73 187.30,304.46 188.68,304.46 190.07,304.73 191.45,303.92 192.82,303.92 194.19,304.46 195.59,304.73 196.98,299.60 198.36,303.65 199.76,304.46 201.12,304.73 202.51,303.65 203.89,303.92 205.27,304.46 206.64,304.46 208.03,303.92 209.40,303.92 210.80,303.92 212.18,304.46 213.57,303.92 214.95,303.92 216.35,298.79 217.75,303.65 219.13,304.46 220.51,304.73 221.89,304.73 223.26,304.46 224.66,304.46 226.05,304.46 227.43,304.46 228.81,302.84 230.20,304.46 231.59,304.46 232.98,304.46 234.39,304.46 235.77,304.46 237.15,304.46 238.54,303.65 239.92,304.73 241.30,303.38 242.69,304.46 244.19,304.46 245.57,304.73 246.97,303.92 248.35,303.92 249.73,304.46 251.10,299.87 252.46,304.46 253.84,304.73 255.23,295.01 256.61,304.46 257.98,303.92 259.36,303.92 260.75,303.92 262.12,304.46 263.53,303.65 264.91,304.46 266.29,304.46 267.66,304.46 269.05,303.92 270.43,303.92 271.82,303.92 273.21,304.73 274.59,304.46 275.98,304.46 277.36,303.92 278.73,304.46 280.11,303.65 281.49,303.92 282.87,303.65 284.26,304.73 285.66,304.46 287.04,304.46 288.42,304.46 289.82,303.11 291.21,303.38 292.58,304.46 293.97,304.46 295.35,304.46 296.76,303.65 298.16,303.92 299.54,304.46 300.93,297.71 302.30,294.20 303.67,303.92 305.06,304.46 306.44,303.65 307.82,297.71 309.19,304.46 310.56,303.92 311.96,304.46 313.35,304.46 314.74,303.92 316.12,303.38 317.53,304.73 318.91,303.92 320.29,303.38 321.67,303.92 323.04,304.46 324.55,304.46 325.96,303.92 327.34,304.73 328.71,304.46 330.08,304.46 331.47,304.73 332.85,304.46 334.24,304.73 335.63,35.00 337.00,303.65 338.38,303.11 339.77,297.17 341.18,304.46 342.56,304.46 343.94,304.46 345.32,303.92 346.72,303.65 348.13,304.46 349.54,303.11 350.91,304.73 352.30,304.46 353.68,303.92 355.06,304.73 356.45,304.46 357.84,303.92 359.24,304.73 360.62,304.46 361.99,304.46 363.39,304.46 364.77,303.92 366.15,303.65 367.54,304.46 368.94,303.65 370.33,304.46 371.70,301.76 373.07,302.03 374.45,304.46 375.84,304.46 377.22,304.46 378.60,35.00 379.98,303.65 381.34,303.92 382.73,304.46 384.12,304.46 385.51,303.65 386.89,304.46 388.30,304.73 389.68,304.46 391.08,304.73 392.45,35.00 393.84,304.73 395.22,303.65 396.61,304.46 397.99,303.65 399.41,304.73 400.80,300.68 402.19,303.65 403.57,303.92 404.95,304.46 406.34,304.46 407.71,304.46 409.09,304.46 410.48,304.73 411.87,304.73 413.25,304.73 414.64,303.65 416.03,303.92 417.41,303.92 418.80,304.73 420.19,35.00 421.59,304.46 422.97,303.92 424.35,304.73 425.74,303.92 427.14,304.73 428.53,303.92 429.91,304.46 431.29,303.92 432.83,304.73 434.22,304.46 435.61,303.65 436.99,304.46 438.39,304.46 439.78,303.92 441.16,304.46 442.55,303.65 443.93,304.73 445.35,295.28 446.76,297.17 448.13,304.46 449.51,304.46 450.90,304.46 452.28,304.73 453.67,304.46 455.10,303.65 456.49,304.46 457.87,303.92 459.27,304.73 460.76,304.73 462.15,304.73 463.89,303.65 466.23,304.46 467.65,303.92 469.06,303.92 470.44,304.73 471.80,304.46 473.18,303.92 474.58,303.65 475.97,304.46 477.37,304.73 478.81,303.92 480.24,35.00 481.71,303.65 483.10,304.46 484.48,304.73 485.87,303.92 487.27,303.92 488.67,303.65 490.07,304.46 491.45,303.92 492.83,304.46 494.27,304.46 495.66,304.46 497.03,304.46 498.42,304.46 499.83,303.92 501.27,304.46 502.66,303.92 504.05,303.92 505.47,303.65 506.79,303.92 508.17,303.65 509.58,303.92 510.96,303.92 512.37,303.92 513.79,303.11 515.18,303.92 516.56,303.92 517.97,304.46 519.37,304.46 520.75,303.65 522.13,304.73 523.50,299.06 524.90,304.73 526.29,304.46 527.66,48.23 529.31,48.50 530.94,48.77 532.58,48.50 534.19,48.23 535.77,48.50 537.37,48.50 539.01,48.77 540.62,304.46 542.01,304.46 543.38,304.46 544.76,303.92 546.14,304.46 547.52,304.46 548.90,303.92 550.27,304.19 551.65,303.65 553.03,304.73 554.42,303.92 555.80,303.92 557.17,304.46 558.55,304.73 559.93,304.73 561.31,304.46 562.68,304.46 564.07,304.46 565.44,303.92 566.83,304.46 568.22,304.73 569.59,303.65 570.96,304.46 572.34,35.00 573.72,304.46 575.11,304.46 576.49,304.73 577.87,304.46 579.25,304.73 580.64,35.00 582.02,304.46 583.40,304.46 584.78,304.73 586.15,303.92 587.53,303.92 588.89,303.92 590.26,303.38 591.64,304.73 593.02,303.65 594.39,304.46 595.77,303.92 597.14,304.46 598.52,304.73 599.89,303.92 601.26,303.38 602.62,304.73 604.05,303.65 605.54,304.73 606.93,304.73 608.31,304.46 609.69,303.92 611.06,303.65 612.43,297.44 613.81,297.71 615.18,48.50 616.82,48.50 618.44,48.50 620.05,48.23 621.67,48.50 623.30,48.23 624.91,48.50 626.56,48.77 628.24,295.82 629.75,297.17 631.23,304.73 632.62,303.92 634.02,303.92 635.40,304.73 636.77,303.92 638.15,304.46 639.53,304.46 640.91,304.46 642.29,304.46 643.66,304.46 645.05,304.73 646.43,303.11 647.81,304.73 649.21,303.92 650.59,304.46 651.97,304.73 653.17,304.46 654.60,303.92 655.98,304.73 657.40,304.73 658.78,304.73 660.16,303.92 661.55,35.00 662.95,304.73 664.33,304.73 665.73,304.46 667.12,304.73 668.53,303.65 669.91,304.46 671.27,304.73 672.66,304.73 674.03,304.73 675.40,35.00 676.78,303.92 678.18,303.92 679.55,303.92 680.94,303.65 682.32,304.46 683.69,304.46 685.08,303.92 686.47,304.46 687.86,304.46 689.25,304.73 690.63,303.92 692.01,301.22 693.41,304.46 694.79,304.46 696.22,304.46 697.59,303.65 698.96,304.46 700.35,304.73 701.71,304.46 703.09,300.68 704.49,303.92 705.87,304.73 707.24,304.46 708.62,304.73 710.00,303.38 711.38,303.92 712.77,304.73 714.16,304.73 715.54,303.92 717.21,303.92 718.63,303.92 720.05,303.65 721.44,304.46 722.83,302.84 724.23,304.46 725.60,304.46 726.98,303.92 728.37,303.92 729.77,303.11 731.14,304.73 732.53,304.46 733.92,304.46 735.31,304.46 736.74,304.73 738.14,304.73 739.53,304.46 740.92,304.73 742.30,304.73 743.68,302.57 745.06,302.84 746.44,301.22 747.88,303.92 749.27,304.46 750.67,304.46 752.05,304.46 753.43,303.92 754.82,304.73 756.20,304.46 757.59,304.46 758.98,303.92 760.37,304.46 761.76,304.46 763.14,304.46 764.52,297.44 765.90,303.92 767.28,304.46 768.70,304.46 770.08,300.68 771.46,303.92 772.83,289.07 774.22,303.65 775.63,302.03 777.02,302.84 778.68,302.84 780.10,304.46 781.49,304.46 782.87,303.92 784.25,304.73 785.64,303.92 787.03,303.92 788.42,303.65 789.83,304.46 791.20,303.92 792.59,304.73 793.96,304.46 795.35,304.46 796.73,303.92 798.11,304.73 799.50,304.46 800.88,304.73 802.26,304.46 803.64,304.73 805.02,304.73 806.42,303.92 807.80,304.46 809.18,304.73 810.58,304.46 811.98,304.46 813.35,304.73 814.73,304.46 816.12,303.38 817.55,303.92 818.92,304.73 820.31,304.73 821.70,303.92 823.09,303.92 824.47,304.46 825.86,303.92 827.24,303.92 828.66,304.73 830.05,303.92 831.43,304.46 832.79,303.92 834.18,304.46 835.56,304.73 836.95,303.92 838.33,304.73 839.73,304.46 841.13,304.73 842.52,298.79 843.88,303.92 845.28,303.92 846.65,304.46 848.04,304.46 849.42,303.65 850.81,303.65 852.19,304.73 853.59,303.92 854.97,303.92 856.35,235.88 857.75,236.69 859.15,236.69 860.54,236.69 861.93,236.15 863.32,232.10 864.88,227.51 866.40,228.59 867.88,222.65 869.28,236.42 870.73,236.15 872.12,235.61 873.51,236.69 874.87,236.69 876.17,236.15 877.62,235.61 879.00,236.15 880.40,236.42 881.77,233.18 883.16,236.69 884.53,236.42 885.93,236.15 887.31,235.61 888.70,235.88 890.08,236.42 891.47,236.42 892.86,236.96 894.25,236.42 895.65,235.61 897.05,236.69 898.44,236.15 899.83,236.42 901.21,242.63 902.63,255.86 904.02,236.69 905.39,235.88 906.77,236.15 908.16,236.42 909.54,235.88 910.92,236.15 912.31,236.96 913.70,236.15 915.11,236.69 916.48,236.96 917.86,236.15 919.25,236.96 920.64,236.15 922.03,236.42 923.43,234.53 924.80,236.15 926.19,236.69 927.58,236.69 928.98,235.34 930.37,236.15 931.77,236.15 933.16,235.61 934.54,236.69 935.94,236.96 937.32,235.61 938.73,232.91 940.15,234.26 941.54,236.42 942.93,236.42 944.32,236.15 945.70,236.96 947.09,236.15 948.48,236.69 949.87,236.96 951.27,234.53 952.65,236.42 954.04,236.69 955.44,236.42 956.82,236.15 958.22,236.42 959.61,235.88 961.01,236.15 962.40,236.96 963.80,235.61 965.21,235.88 966.59,235.88 967.97,236.42 969.37,236.42 970.76,236.69 972.18,236.69 973.57,236.42 974.97,235.61 976.36,236.15 977.74,236.15 979.12,235.34 980.51,236.69 981.90,235.61 983.30,236.69 984.68,235.88 986.07,236.69 987.45,232.91 988.85,235.88 990.24,236.42 991.63,235.88 993.02,235.61 994.42,236.69 995.81,235.88 997.21,236.42 998.60,236.42 999.98,236.69 1001.36,236.15 1002.73,235.88 1004.12,236.42 1005.52,235.61 1006.92,201.32 1008.31,236.69 1009.70,236.15 1011.09,236.42 1012.49,236.42 1013.89,235.61 1015.27,230.48 1016.67,235.34 1018.07,283.40 1019.46,236.69 1020.85,230.75 1022.24,236.69 1023.65,224.00 1025.04,236.42 1026.43,236.15 1027.85,235.61 1029.25,235.88 1030.65,236.15 1032.04,236.96 1033.42,230.48 1034.82,235.88 1036.21,236.15 1037.62,235.61 1039.01,243.17 1040.40,296.63 1041.79,236.15 1043.16,235.61 1044.59,236.69 1045.97,229.94 1047.37,229.94 1048.76,236.15 1050.15,236.42 1051.53,236.69 1052.90,235.61 1054.28,236.69 1055.68,236.69 1057.07,236.42 1058.47,236.15 1059.85,236.69 1061.24,236.69 1062.63,236.42 1064.06,231.29 1065.46,236.69 1066.83,236.15 1068.23,236.42 1069.60,235.88 1070.99,235.61 1072.38,235.61 1073.79,236.42 1075.17,236.96 1076.56,236.69 1077.96,236.69 1079.35,235.61 1080.73,235.88 1082.13,235.88 1083.53,236.69 1084.96,236.69 1086.37,235.61 1087.76,236.15 1089.16,283.13 1090.55,236.42 1091.95,236.69 1093.33,235.88 1094.72,236.15 1096.09,235.07 1097.50,236.42 1098.89,236.69 1100.29,236.15 1101.69,237.23 1103.09,236.15 1104.54,236.15 1105.93,236.15 1107.31,236.69 1108.71,236.69 1110.10,236.42 1111.50,236.69 1112.89,236.69 1114.30,235.61 1115.69,236.42 1117.10,235.34 1118.49,236.96 1119.89,235.61 1121.29,236.69 1122.68,236.69 1124.07,236.15 1125.46,236.42 1126.85,236.42 1128.25,296.90 1129.65,236.15 1131.04,235.61 1132.43,236.42 1133.83,236.42 1135.23,236.69 1136.62,236.69 1138.01,236.69 1139.41,236.69 1140.85,235.34 1142.24,235.88 1143.65,233.45 1145.04,236.15 1146.46,236.15 1147.89,235.07 1149.31,234.26 1150.72,234.26 1152.16,235.88 1153.55,290.15 1154.94,236.69 1156.33,236.42 1157.73,236.15 1159.13,236.42 1160.53,235.34 1161.96,236.69 1163.34,236.15 1164.74,236.69 1166.13,235.88 1167.51,236.15 1168.90,236.69 1170.30,236.42 1171.69,236.96 1173.08,231.83 1174.46,236.42 1175.85,236.42 1177.24,236.42 1178.61,236.42 1180.00,236.15"/>
<polyline fill="none" stroke="#d62728" stroke-opacity="0.80" stroke-width="2" points="70.00,303.38 71.39,304.19 72.78,302.57 74.16,303.38 75.55,304.19 76.94,287.72 78.32,303.38 79.71,304.19 81.21,304.19 82.58,303.38 83.96,303.38 85.34,304.19 86.74,304.19 88.12,304.19 89.50,304.19 91.99,304.19 94.14,302.57 95.54,304.19 96.96,304.19 98.34,304.19 99.72,303.38 101.07,303.38 102.47,304.19 103.85,302.57 105.25,302.57 106.64,303.38 108.05,303.38 109.44,304.19 110.83,303.38 112.29,35.00 113.68,303.38 115.06,35.00 116.48,35.00 117.87,303.38 119.26,304.19 120.68,35.00 122.06,303.38 123.44,302.57 124.85,304.19 126.22,303.38 127.61,303.38 128.97,302.57 130.36,304.19 131.74,303.38 133.12,303.38 134.54,302.57 135.94,303.38 137.30,35.00 138.68,303.38 140.08,304.19 141.47,304.19 143.05,302.57 144.44,35.00 145.82,304.19 147.19,303.38 148.57,304.19 149.94,303.38 151.32,303.38 152.71,304.19 154.09,35.00 155.50,304.19 156.88,304.19 158.25,304.19 159.64,303.38 161.04,304.19 162.42,302.57 163.81,304.19 165.18,302.57 166.55,302.57 167.93,303.38 169.30,288.80 170.68,302.57 172.07,304.19 173.44,304.19 174.83,303.38 176.22,304.19 177.59,300.14 178.98,304.19 180.35,304.19 181.73,304.19 183.15,35.00 184.53,35.00 185.91,302.57 187.30,35.00 188.68,35.00 190.07,303.38 191.45,304.19 192.82,35.00 194.19,304.19 195.59,304.19 196.98,304.19 198.36,304.19 199.76,303.38 201.12,303.38 202.51,304.19 203.89,304.19 205.27,303.38 206.64,286.91 208.03,303.38 209.40,304.19 210.80,304.19 212.18,304.19 213.57,303.38 214.95,304.19 216.35,304.19 217.75,303.38 219.13,302.57 220.51,302.57 221.89,304.19 223.26,302.57 224.66,304.19 226.05,304.19 227.43,304.19 228.81,35.00 230.20,304.19 231.59,304.19 232.98,302.57 234.39,35.00 235.77,35.00 237.15,303.38 238.54,304.19 239.92,303.38 241.30,304.19 242.69,304.19 244.19,302.57 245.57,304.19 246.97,35.00 248.35,35.00 249.73,302.57 251.10,304.19 252.46,304.19 253.84,303.38 255.23,35.00 256.61,303.38 257.98,35.00 259.36,304.19 260.75,304.19 262.12,304.19 263.53,303.38 264.91,303.38 266.29,304.19 267.66,304.19 269.05,295.28 270.43,35.00 271.82,303.38 273.21,35.00 274.59,35.00 275.98,302.57 277.36,304.19 278.73,299.33 280.11,304.19 281.49,304.19 282.87,304.19 284.26,303.38 285.66,303.38 287.04,303.38 288.42,302.57 289.82,303.38 291.21,304.19 292.58,303.38 293.97,304.19 295.35,303.38 296.76,304.19 298.16,303.38 299.54,303.38 300.93,302.57 302.30,303.38 303.67,304.19 305.06,303.38 306.44,35.00 307.82,304.19 309.19,303.38 310.56,302.57 311.96,304.19 313.35,304.19 314.74,303.38 316.12,303.38 317.53,304.19 318.91,35.00 320.29,303.38 321.67,35.00 323.04,302.57 324.55,303.38 325.96,304.19 327.34,35.00 328.71,303.38 330.08,35.00 331.47,304.19 332.85,304.19 334.24,35.00 335.63,304.19 337.00,302.57 338.38,302.57 339.77,303.38 341.18,35.00 342.56,302.57 343.94,304.19 345.32,301.76 346.72,303.38 348.13,303.38 349.54,304.19 350.91,303.38 352.30,303.38 353.68,304.19 355.06,304.19 356.45,303.38 357.84,304.19 359.24,304.19 360.62,303.38 361.99,35.00 363.39,304.19 364.77,303.38 366.15,304.19 367.54,304.19 368.94,304.19 370.33,35.00 371.70,35.00 373.07,302.57 374.45,302.57 375.84,304.19 377.22,303.38 378.60,302.57 379.98,302.57 381.34,35.00 382.73,304.19 384.12,35.00 385.51,303.38 386.89,35.00 388.30,303.38 389.68,303.38 391.08,303.38 392.45,35.00 393.84,304.19 395.22,302.57 396.61,303.38 397.99,304.19 399.41,303.38 400.80,35.00 402.19,303.38 403.57,304.19 404.95,303.38 406.34,304.19 407.71,35.00 409.09,302.57 410.48,304.19 411.87,304.19 413.25,303.38 414.64,303.38 416.03,304.19 417.41,303.38 418.80,304.19 420.19,304.19 421.59,304.19 422.97,303.38 424.35,302.57 425.74,304.19 427.14,35.00 428.53,295.28 429.91,303.38 431.29,302.57 432.83,303.38 434.22,301.76 435.61,35.00 436.99,304.19 438.39,303.38 439.78,304.19 441.16,304.19 442.55,299.33 443.93,304.19 445.35,303.38 446.76,302.57 448.13,303.38 449.51,302.57 450.90,304.19 452.28,304.19 453.67,304.19 455.10,302.57 456.49,303.38 457.87,303.38 459.27,35.00 460.76,303.38 462.15,303.38 463.89,304.19 466.23,302.57 467.65,303.38 469.06,303.38 470.44,303.38 471.80,304.19 473.18,303.38 474.58,304.19 475.97,304.19 477.37,303.38 478.81,304.19 480.24,304.19 481.71,304.19 483.10,304.19 484.48,302.57 485.87,35.00 487.27,304.19 488.67,302.57 490.07,303.38 491.45,303.38 492.83,303.38 494.27,304.19 495.66,304.19 497.03,303.38 498.42,304.19 499.83,303.38 501.27,304.19 502.66,303.38 504.05,304.19 505.47,287.18 506.79,288.53 508.17,301.76 509.58,302.57 510.96,303.38 512.37,35.00 513.79,35.00 515.18,303.38 516.56,303.38 517.97,304.19 519.37,304.19 520.75,35.00 522.13,304.19 523.50,35.00 524.90,303.38 526.29,303.38 527.66,302.57 529.31,303.38 530.94,303.38 532.58,300.95 534.19,303.38 535.77,302.57 537.37,304.19 539.01,304.19 540.62,35.00 542.01,303.38 543.38,303.38 544.76,304.19 546.14,304.19 547.52,302.57 548.90,303.38 550.27,304.19 551.65,303.38 553.03,303.38 554.42,304.19 555.80,303.38 557.17,304.19 558.55,303.38 559.93,303.38 561.31,304.19 562.68,303.38 564.07,35.00 565.44,304.19 566.83,304.19 568.22,303.38 569.59,304.19 570.96,304.19 572.34,35.00 573.72,303.38 575.11,304.19 576.49,304.19 577.87,304.19 579.25,302.57 580.64,35.00 582.02,303.38 583.40,287.72 584.78,304.19 586.15,304.19 587.53,303.38 588.89,301.76 590.26,303.38 591.64,304.19 593.02,302.57 594.39,303.38 595.77,303.38 597.14,303.38 598.52,303.38 599.89,304.19 601.26,303.38 602.62,302.57 604.05,304.19 605.54,303.38 606.93,303.38 608.31,303.38 609.69,303.38 611.06,304.19 612.43,304.19 613.81,304.19 615.18,304.19 616.82,303.38 618.44,303.38 620.05,304.19 621.67,302.57 623.30,304.19 624.91,303.38 626.56,302.57 628.24,304.19 629.75,303.38 631.23,303.38 632.62,303.38 634.02,302.57 635.40,35.00 636.77,35.00 638.15,304.19 639.53,303.38 640.91,35.00 642.29,35.00 643.66,303.38 645.05,304.19 646.43,304.19 647.81,304.19 649.21,303.38 650.59,304.19 651.97,304.19 653.17,304.19 654.60,304.19 655.98,287.72 657.40,303.38 658.78,302.57 660.16,303.38 661.55,303.38 662.95,304.19 664.33,304.19 665.73,303.38 667.12,302.57 668.53,304.19 669.91,303.38 671.27,302.57 672.66,304.19 674.03,301.76 675.40,304.19 676.78,304.19 678.18,303.38 679.55,303.38 680.94,304.19 682.32,303.38 683.69,301.76 685.08,304.19 686.47,304.19 687.86,304.19 689.25,35.00 690.63,303.38 692.01,304.19 693.41,304.19 694.79,304.19 696.22,304.19 697.59,35.00 698.96,35.00 700.35,302.57 701.71,304.19 703.09,35.00 704.49,304.19 705.87,303.38 707.24,302.57 708.62,302.57 710.00,304.19 711.38,303.38 712.77,304.19 714.16,303.38 715.54,301.76 717.21,304.19 718.63,304.19 720.05,304.19 721.44,302.57 722.83,304.19 724.23,304.19 725.60,304.19 726.98,303.38 728.37,304.19 729.77,303.38 731.14,35.00 732.53,302.57 733.92,304.19 735.31,302.57 736.74,304.19 738.14,303.38 739.53,304.19 740.92,303.38 742.30,35.00 743.68,302.57 745.06,303.38 746.44,304.19 747.88,304.19 749.27,304.19 750.67,304.19 752.05,303.38 753.43,304.19 754.82,304.19 756.20,304.19 757.59,304.19 758.98,304.19 760.37,304.19 761.76,302.57 763.14,304.19 764.52,303.38 765.90,304.19 767.28,304.19 768.70,304.19 770.08,304.19 771.46,35.00 772.83,304.19 774.22,301.76 775.63,217.79 777.02,304.19 778.68,35.00 780.10,303.38 781.49,302.57 782.87,304.19 784.25,303.38 785.64,304.19 787.03,303.38 788.42,304.19 789.83,304.19 791.20,303.38 792.59,35.00 793.96,35.00 795.35,304.19 796.73,302.57 798.11,304.19 799.50,304.19 800.88,304.19 802.26,303.38 803.64,304.19 805.02,302.57 806.42,304.19 807.80,35.00 809.18,35.00 810.58,303.38 811.98,304.19 813.35,303.38 814.73,300.95 816.12,304.19 817.55,304.19 818.92,304.19 820.31,303.38 821.70,303.38 823.09,302.57 824.47,35.00 825.86,303.38 827.24,35.00 828.66,35.00 830.05,303.38 831.43,304.19 832.79,302.57 834.18,304.19 835.56,304.19 836.95,303.38 838.33,303.38 839.73,296.09 841.13,304.19 842.52,304.19 843.88,304.19 845.28,302.57 846.65,35.00 848.04,303.38 849.42,304.19 850.81,302.57 852.19,302.57 853.59,303.38 854.97,35.00 856.35,303.38 857.75,303.38 859.15,304.19 860.54,304.19 861.93,303.38 863.32,304.19 864.88,303.38 866.40,303.38 867.88,302.57 869.28,304.19 870.73,303.38 872.12,303.38 873.51,304.19 874.87,35.00 876.17,303.38 877.62,287.18 879.00,304.19 880.40,286.37 881.77,302.57 883.16,304.19 884.53,304.19 885.93,304.19 887.31,304.19 888.70,304.19 890.08,35.00 891.47,303.38 892.86,304.19 894.25,35.00 895.65,304.19 897.05,304.19 898.44,303.38 899.83,304.19 901.21,304.19 902.63,303.38 904.02,303.38 905.39,304.19 906.77,304.19 908.16,304.19 909.54,304.19 910.92,302.57 912.31,35.00 913.70,35.00 915.11,304.19 916.48,303.38 917.86,304.19 919.25,304.19 920.64,304.19 922.03,304.19 923.43,304.19 924.80,301.76 926.19,303.38 927.58,302.57 928.98,304.19 930.37,35.00 931.77,304.19 933.16,304.19 934.54,303.38 935.94,35.00 937.32,304.19 938.73,304.19 940.15,304.19 941.54,35.00 942.93,304.19 944.32,304.19 945.70,303.38 947.09,303.38 948.48,35.00 949.87,35.00 951.27,303.38 952.65,304.19 954.04,302.57 955.44,302.57 956.82,304.19 958.22,295.28 959.61,303.38 961.01,304.19 962.40,304.19 963.80,303.38 965.21,35.00 966.59,304.19 967.97,302.57 969.37,35.00 970.76,302.57 972.18,303.38 973.57,304.19 974.97,303.38 976.36,304.19 977.74,35.00 979.12,35.00 980.51,302.57 981.90,303.38 983.30,295.28 984.68,304.19 986.07,304.19 987.45,303.38 988.85,303.38 990.24,304.19 991.63,304.19 993.02,35.00 994.42,303.38 995.81,303.38 997.21,304.19 998.60,35.00 999.98,304.19 1001.36,303.38 1002.73,35.00 1004.12,304.19 1005.52,303.38 1006.92,302.57 1008.31,304.19 1009.70,302.57 1011.09,304.19 1012.49,303.38 1013.89,304.19 1015.27,304.19 1016.67,304.19 1018.07,304.19 1019.46,304.19 1020.85,304.19 1022.24,303.38 1023.65,303.38 1025.04,304.19 1026.43,304.19 1027.85,304.19 1029.25,304.19 1030.65,303.38 1032.04,304.19 1033.42,304.19 1034.82,303.38 1036.21,303.38 1037.62,35.00 1039.01,303.38 1040.40,303.38 1041.79,304.19 1043.16,35.00 1044.59,302.57 1045.97,304.19 1047.37,287.18 1048.76,304.19 1050.15,35.00 1051.53,35.00 1052.90,304.19 1054.28,304.19 1055.68,304.19 1057.07,304.19 1058.47,303.38 1059.85,303.38 1061.24,303.38 1062.63,304.19 1064.06,35.00 1065.46,35.00 1066.83,35.00 1068.23,286.37 1069.60,302.57 1070.99,301.76 1072.38,303.38 1073.79,303.38 1075.17,286.37 1076.56,304.19 1077.96,304.19 1079.35,304.19 1080.73,304.19 1082.13,303.38 1083.53,35.00 1084.96,303.38 1086.37,304.19 1087.76,303.38 1089.16,303.38 1090.55,35.00 1091.95,304.19 1093.33,35.00 1094.72,303.38 1096.09,302.57 1097.50,303.38 1098.89,303.38 1100.29,303.38 1101.69,303.38 1103.09,303.38 1104.54,304.19 1105.93,35.00 1107.31,303.38 1108.71,304.19 1110.10,35.00 1111.50,35.00 1112.89,304.19 1114.30,303.38 1115.69,304.19 1117.10,304.19 1118.49,301.76 1119.89,304.19 1121.29,303.38 1122.68,304.19 1124.07,301.76 1125.46,304.19 1126.85,302.57 1128.25,302.57 1129.65,303.38 1131.04,304.19 1132.43,35.00 1133.83,35.00 1135.23,35.00 1136.62,303.38 1138.01,303.38 1139.41,304.19 1140.85,35.00 1142.24,302.57 1143.65,304.19 1145.04,35.00 1146.46,304.19 1147.89,304.19 1149.31,303.38 1150.72,303.38 1152.16,302.57 1153.55,304.19 1154.94,303.38 1156.33,303.38 1157.73,304.19 1159.13,35.00 1160.53,304.19 1161.96,35.00 1163.34,304.19 1164.74,303.38 1166.13,35.00 1167.51,302.57 1168.90,303.38 1170.30,298.52 1171.69,303.38 1173.08,304.19 1174.46,303.38 1175.85,304.19 1177.24,304.19 1178.61,35.00 1180.00,304.19"/>
<polyline fill="none" stroke="#d62728" stroke-opacity="0.65" stroke-width="2" points="70.00,35.00 71.39,304.46 72.78,304.46 74.16,302.30 75.55,304.46 76.94,303.38 78.32,304.46 79.71,304.46 81.21,35.00 82.58,304.46 83.96,304.46 85.34,303.92 86.74,303.92 88.12,304.46 89.50,304.46 91.99,303.92 94.14,304.46 95.54,35.00 96.96,303.92 98.34,302.84 99.72,304.46 101.07,303.92 102.47,302.84 103.85,35.00 105.25,303.92 106.64,35.00 108.05,35.00 109.44,35.00 110.83,303.92 112.29,35.00 113.68,303.38 115.06,303.92 116.48,304.46 117.87,35.00 119.26,35.00 120.68,304.46 122.06,35.00 123.44,304.46 124.85,35.00 126.22,304.46 127.61,303.92 128.97,35.00 130.36,304.46 131.74,304.46 133.12,293.12 134.54,35.00 135.94,304.46 137.30,304.46 138.68,304.46 140.08,35.00 141.47,304.46 143.05,304.46 144.44,304.46 145.82,35.00 147.19,35.00 148.57,304.46 149.94,304.46 151.32,303.38 152.71,303.92 154.09,304.46 155.50,35.00 156.88,304.46 158.25,304.46 159.64,35.00 161.04,304.46 162.42,303.92 163.81,304.46 165.18,304.46 166.55,35.00 167.93,303.92 169.30,303.92 170.68,304.46 172.07,303.92 173.44,303.92 174.83,35.00 176.22,303.92 177.59,304.46 178.98,304.46 180.35,303.38 181.73,35.00 183.15,304.46 184.53,303.38 185.91,304.46 187.30,35.00 188.68,304.46 190.07,304.46 191.45,303.92 192.82,303.92 194.19,303.92 195.59,304.46 196.98,303.92 198.36,304.46 199.76,303.92 201.12,35.00 202.51,303.92 203.89,303.92 205.27,304.46 206.64,304.46 208.03,303.92 209.40,303.92 210.80,35.00 212.18,35.00 213.57,303.92 214.95,35.00 216.35,304.46 217.75,304.46 219.13,304.46 220.51,304.46 221.89,303.92 223.26,304.46 224.66,303.38 226.05,304.46 227.43,303.92 228.81,35.00 230.20,304.46 231.59,303.92 232.98,303.92 234.39,303.92 235.77,304.46 237.15,35.00 238.54,304.46 239.92,304.46 241.30,35.00 242.69,303.92 244.19,304.46 245.57,303.92 246.97,304.46 248.35,304.46 249.73,303.92 251.10,303.92 252.46,304.46 253.84,304.46 255.23,304.46 256.61,303.38 257.98,304.46 259.36,35.00 260.75,303.92 262.12,35.00 263.53,304.46 264.91,35.00 266.29,35.00 267.66,303.92 269.05,303.92 270.43,304.46 271.82,304.46 273.21,304.46 274.59,303.92 275.98,304.46 277.36,304.46 278.73,303.92 280.11,35.00 281.49,304.46 282.87,35.00 284.26,303.92 285.66,304.46 287.04,304.46 288.42,35.00 289.82,35.00 291.21,35.00 292.58,304.46 293.97,303.92 295.35,304.46 296.76,303.92 298.16,303.92 299.54,304.46 300.93,304.46 302.30,304.46 303.67,304.46 305.06,304.46 306.44,304.46 307.82,304.46 309.19,282.59 310.56,304.46 311.96,303.92 313.35,304.46 314.74,304.46 316.12,304.46 317.53,303.38 318.91,304.46 320.29,304.46 321.67,303.92 323.04,304.46 324.55,303.92 325.96,304.46 327.34,304.46 328.71,304.46 330.08,304.46 331.47,304.46 332.85,303.38 334.24,304.46 335.63,304.46 337.00,304.46 338.38,303.92 339.77,35.00 341.18,304.46 342.56,303.92 343.94,303.92 345.32,303.92 346.72,35.00 348.13,304.46 349.54,304.46 350.91,35.00 352.30,303.92 353.68,35.00 355.06,35.00 356.45,304.46 357.84,304.46 359.24,35.00 360.62,35.00 361.99,304.46 363.39,304.46 364.77,303.92 366.15,303.92 367.54,304.46 368.94,304.46 370.33,304.46 371.70,303.92 373.07,304.46 374.45,304.46 375.84,303.92 377.22,303.38 378.60,304.46 379.98,35.00 381.34,304.46 382.73,35.00 384.12,35.00 385.51,303.92 386.89,303.92 388.30,304.46 389.68,304.46 391.08,304.46 392.45,303.92 393.84,297.98 395.22,35.00 396.61,304.46 397.99,303.92 399.41,304.46 400.80,303.92 402.19,35.00 403.57,303.92 404.95,304.46 406.34,35.00 407.71,303.92 409.09,304.46 410.48,304.46 411.87,35.00 413.25,303.92 414.64,303.92 416.03,35.00 417.41,303.92 418.80,303.92 420.19,35.00 421.59,303.92 422.97,304.46 424.35,303.92 425.74,304.46 427.14,303.92 428.53,35.00 429.91,304.46 431.29,35.00 432.83,35.00 434.22,303.92 435.61,303.38 436.99,303.38 438.39,303.38 439.78,35.00 441.16,304.46 442.55,304.46 443.93,304.46 445.35,35.00 446.76,304.46 448.13,304.46 449.51,304.46 450.90,35.00 452.28,304.46 453.67,304.46 455.10,293.66 456.49,303.92 457.87,304.46 459.27,303.92 460.76,304.46 462.15,35.00 463.89,304.46 466.23,304.46 467.65,304.46 469.06,304.46 470.44,35.00 471.80,304.46 473.18,304.46 474.58,303.92 475.97,35.00 477.37,304.46 478.81,35.00 480.24,303.38 481.71,304.46 483.10,304.46 484.48,35.00 485.87,35.00 487.27,304.46 488.67,35.00 490.07,304.46 491.45,304.46 492.83,304.46 494.27,35.00 495.66,303.92 497.03,35.00 498.42,304.46 499.83,304.46 501.27,297.98 502.66,304.46 504.05,35.00 505.47,293.12 506.79,35.00 508.17,303.92 509.58,35.00 510.96,304.46 512.37,304.46 513.79,303.92 515.18,304.46 516.56,304.46 517.97,303.92 519.37,303.92 520.75,304.46 522.13,303.92 523.50,35.00 524.90,304.46 526.29,304.46 527.66,304.46 529.31,304.46 530.94,303.92 532.58,304.46 534.19,304.46 535.77,303.38 537.37,303.92 539.01,303.92 540.62,304.46 542.01,35.00 543.38,35.00 544.76,304.46 546.14,304.46 547.52,303.92 548.90,304.46 550.27,303.92 551.65,35.00 553.03,304.46 554.42,304.46 555.80,304.46 557.17,304.46 558.55,293.12 559.93,304.46 561.31,35.00 562.68,303.92 564.07,303.92 565.44,304.46 566.83,304.46 568.22,35.00 569.59,303.92 570.96,304.46 572.34,304.46 573.72,304.46 575.11,35.00 576.49,297.98 577.87,303.92 579.25,303.38 580.64,304.46 582.02,35.00 583.40,302.84 584.78,303.92 586.15,35.00 587.53,35.00 588.89,303.92 590.26,302.84 591.64,304.46 593.02,303.38 594.39,35.00 595.77,304.46 597.14,304.46 598.52,304.46 599.89,303.92 601.26,304.46 602.62,35.00 604.05,304.46 605.54,303.92 606.93,35.00 608.31,303.92 609.69,303.92 611.06,304.46 612.43,304.46 613.81,304.46 615.18,303.92 616.82,304.46 618.44,304.46 620.05,303.92 621.67,304.46 623.30,303.92 624.91,303.92 626.56,304.46 628.24,303.92 629.75,303.92 631.23,303.92 632.62,35.00 634.02,35.00 635.40,35.00 636.77,303.92 638.15,304.46 639.53,304.46 640.91,304.46 642.29,304.46 643.66,304.46 645.05,35.00 646.43,304.46 647.81,303.38 649.21,35.00 650.59,35.00 651.97,303.92 653.17,282.32 654.60,282.05 655.98,304.46 657.40,35.00 658.78,303.38 660.16,304.46 661.55,35.00 662.95,35.00 664.33,35.00 665.73,303.92 667.12,304.46 668.53,304.46 669.91,303.92 671.27,35.00 672.66,303.38 674.03,303.92 675.40,304.46 676.78,303.92 678.18,304.46 679.55,304.46 680.94,304.46 682.32,304.46 683.69,304.46 685.08,303.92 686.47,303.92 687.86,303.92 689.25,304.46 690.63,304.46 692.01,35.00 693.41,35.00 694.79,304.46 696.22,304.46 697.59,304.46 698.96,303.92 700.35,35.00 701.71,303.92 703.09,35.00 704.49,303.92 705.87,304.46 707.24,35.00 708.62,304.46 710.00,35.00 711.38,304.46 712.77,303.92 714.16,304.46 715.54,302.84 717.21,303.92 718.63,303.92 720.05,304.46 721.44,304.46 722.83,303.38 724.23,303.92 725.60,299.06 726.98,35.00 728.37,304.46 729.77,303.92 731.14,304.46 732.53,35.00 733.92,303.92 735.31,303.92 736.74,304.46 738.14,303.92 739.53,35.00 740.92,304.46 742.30,35.00 743.68,303.92 745.06,35.00 746.44,303.38 747.88,304.46 749.27,304.46 750.67,35.00 752.05,304.46 753.43,304.46 754.82,304.46 756.20,303.92 757.59,35.00 758.98,303.38 760.37,304.46 761.76,304.46 763.14,35.00 764.52,304.46 765.90,35.00 767.28,304.46 768.70,304.46 770.08,291.50 771.46,303.92 772.83,304.46 774.22,304.46 775.63,303.38 777.02,303.92 778.68,303.38 780.10,303.92 781.49,35.00 782.87,35.00 784.25,304.46 785.64,303.38 787.03,304.46 788.42,35.00 789.83,303.92 791.20,304.46 792.59,35.00 793.96,303.92 795.35,35.00 796.73,304.46 798.11,304.46 799.50,35.00 800.88,304.46 802.26,304.46 803.64,35.00 805.02,304.46 806.42,304.46 807.80,304.46 809.18,303.92 810.58,35.00 811.98,304.46 813.35,304.46 814.73,35.00 816.12,304.46 817.55,303.38 818.92,35.00 820.31,304.46 821.70,304.46 823.09,303.92 824.47,304.46 825.86,304.46 827.24,304.46 828.66,304.46 830.05,304.46 831.43,304.46 832.79,303.92 834.18,304.46 835.56,303.92 836.95,304.46 838.33,35.00 839.73,304.46 841.13,304.46 842.52,303.92 843.88,35.00 845.28,304.46 846.65,304.46 848.04,304.46 849.42,304.46 850.81,303.92 852.19,304.46 853.59,304.46 854.97,35.00 856.35,304.46 857.75,303.92 859.15,35.00 860.54,35.00 861.93,303.92 863.32,281.24 864.88,304.46 866.40,304.46 867.88,35.00 869.28,303.92 870.73,303.92 872.12,304.46 873.51,304.46 874.87,303.92 876.17,293.12 877.62,303.92 879.00,292.58 880.40,294.20 881.77,293.12 883.16,303.92 884.53,304.46 885.93,303.92 887.31,303.38 888.70,304.46 890.08,304.46 891.47,304.46 892.86,303.92 894.25,35.00 895.65,35.00 897.05,35.00 898.44,35.00 899.83,304.46 901.21,35.00 902.63,304.46 904.02,303.92 905.39,304.46 906.77,303.92 908.16,303.92 909.54,304.46 910.92,303.92 912.31,304.46 913.70,304.46 915.11,35.00 916.48,304.46 917.86,304.46 919.25,35.00 920.64,303.92 922.03,35.00 923.43,303.92 924.80,35.00 926.19,304.46 927.58,35.00 928.98,304.46 930.37,304.46 931.77,303.92 933.16,304.46 934.54,35.00 935.94,303.92 937.32,304.46 938.73,304.46 940.15,304.46 941.54,304.46 942.93,303.92 944.32,302.84 945.70,304.46 947.09,304.46 948.48,304.46 949.87,304.46 951.27,303.92 952.65,304.46 954.04,303.38 955.44,35.00 956.82,35.00 958.22,303.38 959.61,35.00 961.01,304.46 962.40,303.92 963.80,304.46 965.21,303.92 966.59,304.46 967.97,35.00 969.37,35.00 970.76,35.00 972.18,303.92 973.57,303.92 974.97,303.92 976.36,304.46 977.74,303.92 979.12,304.46 980.51,304.46 981.90,304.46 983.30,304.46 984.68,304.46 986.07,304.46 987.45,35.00 988.85,304.46 990.24,35.00 991.63,304.46 993.02,304.46 994.42,304.46 995.81,304.46 997.21,303.92 998.60,292.58 999.98,304.46 1001.36,304.46 1002.73,303.92 1004.12,304.46 1005.52,304.46 1006.92,304.46 1008.31,303.92 1009.70,35.00 1011.09,304.46 1012.49,304.46 1013.89,304.46 1015.27,303.92 1016.67,304.46 1018.07,293.66 1019.46,292.04 1020.85,293.66 1022.24,293.12 1023.65,294.20 1025.04,293.12 1026.43,293.12 1027.85,292.58 1029.25,293.12 1030.65,293.39 1032.04,293.12 1033.42,293.12 1034.82,293.12 1036.21,293.12 1037.62,293.66 1039.01,292.58 1040.40,292.58 1041.79,293.66 1043.16,293.12 1044.59,292.58 1045.97,293.12 1047.37,294.20 1048.76,293.12 1050.15,293.12 1051.53,292.58 1052.90,294.20 1054.28,293.66 1055.68,281.51 1057.07,271.25 1058.47,293.66 1059.85,293.66 1061.24,293.12 1062.63,293.12 1064.06,293.66 1065.46,293.12 1066.83,293.66 1068.23,293.66 1069.60,293.66 1070.99,293.12 1072.38,293.66 1073.79,293.12 1075.17,292.04 1076.56,293.12 1077.96,293.12 1079.35,293.12 1080.73,292.58 1082.13,293.12 1083.53,293.12 1084.96,292.58 1086.37,292.58 1087.76,293.12 1089.16,293.12 1090.55,293.39 1091.95,293.12 1093.33,293.66 1094.72,293.12 1096.09,292.58 1097.50,293.66 1098.89,292.58 1100.29,293.12 1101.69,293.66 1103.09,294.20 1104.54,293.66 1105.93,293.66 1107.31,293.12 1108.71,293.12 1110.10,292.04 1111.50,293.12 1112.89,293.66 1114.30,293.12 1115.69,294.20 1117.10,293.66 1118.49,294.20 1119.89,293.12 1121.29,293.66 1122.68,282.05 1124.07,293.66 1125.46,293.66 1126.85,293.66 1128.25,293.12 1129.65,293.12 1131.04,293.12 1132.43,293.12 1133.83,293.66 1135.23,293.66 1136.62,293.66 1138.01,292.58 1139.41,293.66 1140.85,294.20 1142.24,293.12 1143.65,293.12 1145.04,294.20 1146.46,292.58 1147.89,294.20 1149.31,293.12 1150.72,293.66 1152.16,294.20 1153.55,294.20 1154.94,293.12 1156.33,293.66 1157.73,293.66 1159.13,293.12 1160.53,292.58 1161.96,293.66 1163.34,293.12 1164.74,293.12 1166.13,283.13 1167.51,292.58 1168.90,293.66 1170.30,293.66 1171.69,292.58 1173.08,282.05 1174.46,293.12 1175.85,293.12 1177.24,293.12 1178.61,292.58 1180.00,293.66"/>
<polyline fill="none" stroke="#d62728" stroke-opacity="0.50" stroke-width="2" points="70.00,302.84 71.39,302.84 72.78,303.92 74.16,303.92 75.55,303.92 76.94,303.38 78.32,303.92 79.71,302.57 81.21,303.38 82.58,302.84 83.96,303.92 85.34,303.38 86.74,302.84 88.12,303.38 89.50,287.18 91.99,303.38 94.14,303.38 95.54,303.38 96.96,303.92 98.34,302.84 99.72,293.12 101.07,303.38 102.47,303.38 103.85,303.38 105.25,303.38 106.64,303.38 108.05,303.38 109.44,303.92 110.83,303.38 112.29,303.92 113.68,303.92 115.06,303.38 116.48,303.38 117.87,303.38 119.26,302.03 120.68,303.38 122.06,303.92 123.44,303.92 124.85,303.38 126.22,303.92 127.61,303.92 128.97,303.92 130.36,302.84 131.74,303.92 133.12,303.38 134.54,303.92 135.94,302.84 137.30,303.92 138.68,302.84 140.08,303.38 141.47,302.84 143.05,303.38 144.44,303.92 145.82,303.38 147.19,303.92 148.57,303.38 149.94,303.38 151.32,303.92 152.71,302.30 154.09,303.92 155.50,303.92 156.88,304.46 158.25,303.92 159.64,303.92 161.04,303.92 162.42,303.38 163.81,289.61 165.18,303.92 166.55,303.38 167.93,302.84 169.30,299.87 170.68,303.92 172.07,303.92 173.44,304.46 174.83,303.92 176.22,302.03 177.59,304.46 178.98,303.38 180.35,303.38 181.73,302.84 183.15,302.57 184.53,303.92 185.91,303.92 187.30,303.92 188.68,303.38 190.07,303.38 191.45,302.84 192.82,303.38 194.19,302.84 195.59,303.92 196.98,303.38 198.36,294.20 199.76,303.38 201.12,303.38 202.51,303.92 203.89,303.92 205.27,302.57 206.64,303.38 208.03,302.84 209.40,302.84 210.80,302.57 212.18,303.92 213.57,303.92 214.95,303.92 216.35,303.92 217.75,302.84 219.13,303.92 220.51,303.92 221.89,302.84 223.26,303.92 224.66,302.84 226.05,302.84 227.43,303.92 228.81,303.92 230.20,303.92 231.59,303.92 232.98,302.57 234.39,303.92 235.77,303.92 237.15,303.38 238.54,303.38 239.92,303.92 241.30,304.46 242.69,303.92 244.19,303.92 245.57,303.38 246.97,303.92 248.35,303.92 249.73,304.46 251.10,303.38 252.46,302.84 253.84,303.92 255.23,302.84 256.61,303.92 257.98,303.38 259.36,303.38 260.75,304.46 262.12,303.38 263.53,303.92 264.91,302.57 266.29,302.03 267.66,303.92 269.05,303.92 270.43,303.38 271.82,303.38 273.21,303.92 274.59,303.38 275.98,303.38 277.36,302.84 278.73,302.57 280.11,303.38 281.49,302.03 282.87,302.03 284.26,302.03 285.66,302.84 287.04,302.03 288.42,302.84 289.82,302.84 291.21,302.57 292.58,302.03 293.97,303.92 295.35,303.38 296.76,303.92 298.16,303.92 299.54,303.38 300.93,302.84 302.30,303.92 303.67,303.92 305.06,303.92 306.44,296.90 307.82,303.38 309.19,302.84 310.56,303.92 311.96,303.92 313.35,302.84 314.74,303.92 316.12,302.84 317.53,303.92 318.91,303.92 320.29,303.38 321.67,303.92 323.04,303.92 324.55,299.33 325.96,303.38 327.34,303.92 328.71,303.38 330.08,303.92 331.47,304.46 332.85,303.92 334.24,303.38 335.63,303.92 337.00,302.84 338.38,303.38 339.77,303.38 341.18,303.92 342.56,303.92 343.94,303.92 345.32,302.84 346.72,303.92 348.13,303.38 349.54,303.92 350.91,303.92 352.30,303.38 353.68,302.84 355.06,303.38 356.45,303.38 357.84,303.92 359.24,303.92 360.62,302.84 361.99,303.92 363.39,303.38 364.77,303.92 366.15,303.92 367.54,303.38 368.94,303.92 370.33,302.30 371.70,303.92 373.07,303.38 374.45,303.92 375.84,302.84 377.22,303.92 378.60,302.84 379.98,303.92 381.34,303.92 382.73,303.92 384.12,303.92 385.51,302.84 386.89,303.92 388.30,303.92 389.68,299.87 391.08,303.92 392.45,302.84 393.84,302.84 395.22,303.92 396.61,303.92 397.99,303.92 399.41,304.46 400.80,304.46 402.19,303.38 403.57,303.38 404.95,303.38 406.34,303.92 407.71,303.92 409.09,302.84 410.48,303.92 411.87,303.92 413.25,303.38 414.64,303.38 416.03,303.92 417.41,302.57 418.80,303.92 420.19,302.84 421.59,303.92 422.97,303.92 424.35,303.38 425.74,303.92 427.14,304.46 428.53,303.38 429.91,302.84 431.29,303.38 432.83,303.92 434.22,303.38 435.61,303.92 436.99,303.92 438.39,303.38 439.78,303.38 441.16,303.38 442.55,303.38 443.93,303.92 445.35,302.84 446.76,303.92 448.13,303.92 449.51,303.92 450.90,303.92 452.28,302.84 453.67,303.38 455.10,303.38 456.49,303.92 457.87,302.84 459.27,303.92 460.76,303.92 462.15,293.39 463.89,293.12 466.23,303.92 467.65,302.84 469.06,292.58 470.44,302.03 471.80,302.84 473.18,304.46 474.58,303.92 475.97,303.92 477.37,303.92 478.81,304.46 480.24,303.92 481.71,303.92 483.10,302.84 484.48,303.38 485.87,303.38 487.27,303.92 488.67,303.38 490.07,302.84 491.45,294.74 492.83,303.38 494.27,303.92 495.66,303.92 497.03,303.92 498.42,303.92 499.83,303.38 501.27,303.92 502.66,303.38 504.05,303.92 505.47,303.38 506.79,302.57 508.17,303.92 509.58,303.92 510.96,303.92 512.37,304.46 513.79,303.38 515.18,303.38 516.56,303.38 517.97,304.46 519.37,303.92 520.75,303.92 522.13,303.38 523.50,303.92 524.90,303.92 526.29,303.92 527.66,303.92 529.31,300.41 530.94,303.92 532.58,303.38 534.19,303.92 535.77,303.92 537.37,303.92 539.01,302.84 540.62,303.92 542.01,303.92 543.38,303.92 544.76,303.38 546.14,302.84 547.52,302.84 548.90,303.92 550.27,303.92 551.65,303.38 553.03,304.46 554.42,304.46 555.80,303.92 557.17,292.58 558.55,302.84 559.93,304.46 561.31,303.38 562.68,303.92 564.07,303.38 565.44,303.38 566.83,303.38 568.22,303.38 569.59,303.38 570.96,304.46 572.34,303.38 573.72,304.46 575.11,303.92 576.49,303.38 577.87,303.92 579.25,303.38 580.64,295.82 582.02,302.84 583.40,303.92 584.78,302.84 586.15,299.87 587.53,303.92 588.89,303.38 590.26,302.84 591.64,303.92 593.02,303.92 594.39,303.38 595.77,303.92 597.14,303.38 598.52,303.92 599.89,303.38 601.26,304.46 602.62,303.92 604.05,303.92 605.54,303.92 606.93,303.92 608.31,303.92 609.69,303.38 611.06,302.57 612.43,303.92 613.81,303.92 615.18,303.92 616.82,302.84 618.44,302.84 620.05,303.92 621.67,302.30 623.30,303.92 624.91,303.92 626.56,303.92 628.24,303.92 629.75,303.92 631.23,303.92 632.62,303.38 634.02,303.38 635.40,303.38 636.77,303.38 638.15,303.92 639.53,303.92 640.91,292.85 642.29,303.92 643.66,302.57 645.05,303.38 646.43,303.92 647.81,303.92 649.21,303.38 650.59,303.92 651.97,302.30 653.17,303.92 654.60,303.92 655.98,304.46 657.40,303.38 658.78,303.92 660.16,303.92 661.55,303.38 662.95,303.92 664.33,303.92 665.73,303.92 667.12,304.46 668.53,303.92 669.91,303.38 671.27,303.92 672.66,303.92 674.03,303.92 675.40,302.84 676.78,303.38 678.18,303.92 679.55,303.92 680.94,303.38 682.32,303.92 683.69,303.38 685.08,303.38 686.47,303.92 687.86,303.38 689.25,303.92 690.63,303.92 692.01,303.92 693.41,303.92 694.79,303.92 696.22,303.92 697.59,303.92 698.96,302.84 700.35,302.84 701.71,303.92 703.09,304.46 704.49,302.03 705.87,303.38 707.24,303.92 708.62,303.92 710.00,303.92 711.38,302.84 712.77,303.38 714.16,303.38 715.54,303.38 717.21,303.92 718.63,303.92 720.05,303.38 721.44,302.57 722.83,303.92 724.23,302.84 725.60,303.92 726.98,303.92 728.37,303.92 729.77,304.46 731.14,302.57 732.53,302.57 733.92,303.38 735.31,303.92 736.74,303.92 738.14,303.38 739.53,303.38 740.92,302.84 742.30,303.92 743.68,300.95 745.06,303.92 746.44,302.84 747.88,303.38 749.27,303.92 750.67,303.38 752.05,302.84 753.43,303.92 754.82,303.38 756.20,303.92 757.59,303.38 758.98,303.92 760.37,303.92 761.76,303.92 763.14,303.38 764.52,303.38 765.90,303.92 767.28,303.92 768.70,303.92 770.08,303.92 771.46,303.92 772.83,300.95 774.22,290.69 775.63,303.92 777.02,302.84 778.68,303.92 780.10,303.38 781.49,303.38 782.87,303.92 784.25,304.46 785.64,303.92 787.03,303.92 788.42,303.38 789.83,303.38 791.20,302.84 792.59,304.46 793.96,303.92 795.35,303.38 796.73,304.46 798.11,304.46 799.50,303.38 800.88,303.38 802.26,303.92 803.64,303.38 805.02,304.46 806.42,303.38 807.80,302.84 809.18,304.46 810.58,303.92 811.98,303.92 813.35,303.38 814.73,303.38 816.12,303.92 817.55,303.92 818.92,300.95 820.31,303.92 821.70,302.84 823.09,303.92 824.47,303.38 825.86,303.38 827.24,302.03 828.66,302.03 830.05,303.92 831.43,302.84 832.79,302.84 834.18,302.57 835.56,303.38 836.95,303.38 838.33,303.38 839.73,303.38 841.13,291.77 842.52,274.49 843.88,302.84 845.28,292.85 846.65,302.84 848.04,303.38 849.42,303.92 850.81,303.92 852.19,303.92 853.59,303.38 854.97,303.38 856.35,304.46 857.75,302.84 859.15,303.92 860.54,302.57 861.93,303.92 863.32,303.92 864.88,304.46 866.40,304.46 867.88,303.92 869.28,303.92 870.73,303.92 872.12,303.38 873.51,303.92 874.87,303.38 876.17,303.38 877.62,303.38 879.00,303.92 880.40,303.92 881.77,303.38 883.16,303.38 884.53,303.38 885.93,303.92 887.31,303.38 888.70,303.92 890.08,303.92 891.47,303.92 892.86,303.92 894.25,303.38 895.65,303.92 897.05,303.92 898.44,302.84 899.83,303.38 901.21,303.38 902.63,302.57 904.02,303.38 905.39,302.57 906.77,302.57 908.16,301.49 909.54,303.92 910.92,303.38 912.31,303.92 913.70,302.84 915.11,303.38 916.48,303.92 917.86,303.38 919.25,303.38 920.64,303.38 922.03,303.92 923.43,303.92 924.80,304.46 926.19,303.92 927.58,303.92 928.98,302.57 930.37,303.38 931.77,303.38 933.16,303.92 934.54,302.84 935.94,302.84 937.32,303.38 938.73,303.38 940.15,303.92 941.54,303.38 942.93,303.92 944.32,303.92 945.70,300.41 947.09,303.92 948.48,303.38 949.87,303.92 951.27,303.92 952.65,303.92 954.04,303.38 955.44,304.46 956.82,303.38 958.22,302.84 959.61,303.92 961.01,303.92 962.40,303.38 963.80,303.92 965.21,303.92 966.59,303.92 967.97,303.92 969.37,303.92 970.76,303.38 972.18,302.84 973.57,303.92 974.97,303.38 976.36,303.92 977.74,303.92 979.12,303.38 980.51,303.92 981.90,303.92 983.30,303.38 984.68,303.92 986.07,303.38 987.45,302.84 988.85,303.38 990.24,302.03 991.63,292.85 993.02,303.92 994.42,302.57 995.81,303.38 997.21,302.84 998.60,303.38 999.98,302.84 1001.36,291.50 1002.73,303.38 1004.12,303.92 1005.52,303.92 1006.92,303.92 1008.31,303.92 1009.70,303.92 1011.09,303.92 1012.49,303.92 1013.89,303.92 1015.27,303.92 1016.67,297.71 1018.07,303.38 1019.46,303.38 1020.85,303.92 1022.24,303.92 1023.65,303.38 1025.04,304.46 1026.43,304.46 1027.85,303.92 1029.25,303.92 1030.65,303.38 1032.04,303.92 1033.42,304.46 1034.82,303.92 1036.21,303.38 1037.62,302.84 1039.01,302.84 1040.40,303.38 1041.79,303.92 1043.16,302.03 1044.59,303.38 1045.97,303.92 1047.37,302.84 1048.76,303.92 1050.15,304.46 1051.53,303.92 1052.90,304.46 1054.28,303.38 1055.68,303.92 1057.07,303.92 1058.47,303.92 1059.85,303.92 1061.24,302.84 1062.63,302.84 1064.06,303.38 1065.46,303.92 1066.83,302.84 1068.23,292.31 1069.60,303.92 1070.99,303.38 1072.38,303.38 1073.79,303.38 1075.17,303.92 1076.56,303.38 1077.96,303.92 1079.35,303.92 1080.73,303.92 1082.13,303.92 1083.53,303.92 1084.96,302.84 1086.37,303.38 1087.76,303.92 1089.16,303.92 1090.55,303.92 1091.95,302.84 1093.33,303.92 1094.72,303.92 1096.09,303.92 1097.50,303.92 1098.89,303.38 1100.29,303.92 1101.69,303.38 1103.09,303.92 1104.54,303.92 1105.93,303.38 1107.31,303.92 1108.71,303.92 1110.10,301.49 1111.50,303.92 1112.89,303.92 1114.30,303.92 1115.69,303.38 1117.10,302.84 1118.49,303.92 1119.89,304.46 1121.29,303.38 1122.68,303.38 1124.07,303.92 1125.46,303.92 1126.85,303.92 1128.25,303.92 1129.65,303.38 1131.04,303.92 1132.43,302.84 1133.83,303.92 1135.23,303.38 1136.62,303.92 1138.01,303.92 1139.41,303.92 1140.85,304.46 1142.24,303.38 1143.65,303.92 1145.04,303.92 1146.46,301.49 1147.89,302.03 1149.31,303.92 1150.72,303.38 1152.16,302.57 1153.55,300.41 1154.94,303.38 1156.33,302.57 1157.73,303.92 1159.13,304.46 1160.53,303.92 1161.96,303.92 1163.34,303.38 1164.74,303.38 1166.13,303.92 1167.51,303.92 1168.90,303.38 1170.30,302.84 1171.69,303.92 1173.08,304.46 1174.46,303.38 1175.85,303.38 1177.24,302.84 1178.61,302.84 1180.00,303.92"/>
<rect x="70" y="332" width="12" height="12" fill="#d62728" fill-opacity="0.95"/>
<text x="88" y="342" font-size="11" fill="#333" font-family="Arial, Helvetica, sans-serif">nsc1.utdallas.edu</text>
<rect x="350" y="332" width="12" height="12" fill="#d62728" fill-opacity="0.80"/>
<text x="368" y="342" font-size="11" fill="#333" font-family="Arial, Helvetica, sans-serif">nsc2.utdallas.edu</text>
<rect x="630" y="332" width="12" height="12" fill="#d62728" fill-opacity="0.65"/>
<text x="648" y="342" font-size="11" fill="#333" font-family="Arial, Helvetica, sans-serif">nsc3.utdallas.edu</text>
<rect x="910" y="332" width="12" height="12" fill="#d62728" fill-opacity="0.50"/>
<text x="928" y="342" font-size="11" fill="#333" font-family="Arial, Helvetica, sans-serif">nsc4.utdallas.edu</text>
</svg>