<?xml version="1.0" encoding="UTF-8"?>
<svg xmlns="http://www.w3.org/2000/svg" width="1200" height="360" viewBox="0 0 1200 360" role="img" aria-label="CPU Utilization (%)">
<rect width="100%" height="100%" fill="#ffffff"/>
<text x="600.0" y="22" text-anchor="middle" font-size="16" font-family="Arial, Helvetica, sans-serif" font-weight="bold">CPU Utilization (%)</text>
<line x1="70" y1="35.00" x2="1180" y2="35.00" stroke="#e3e3e3" stroke-width="1"/>
<text x="62" y="39.00" text-anchor="end" font-size="11" fill="#444" font-family="Arial, Helvetica, sans-serif">100</text>
<line x1="70" y1="89.00" x2="1180" y2="89.00" stroke="#e3e3e3" stroke-width="1"/>
<text x="62" y="93.00" text-anchor="end" font-size="11" fill="#444" font-family="Arial, Helvetica, sans-serif">80</text>
<line x1="70" y1="143.00" x2="1180" y2="143.00" stroke="#e3e3e3" stroke-width="1"/>
<text x="62" y="147.00" text-anchor="end" font-size="11" fill="#444" font-family="Arial, Helvetica, sans-serif">60</text>
<line x1="70" y1="197.00" x2="1180" y2="197.00" stroke="#e3e3e3" stroke-width="1"/>
<text x="62" y="201.00" text-anchor="end" font-size="11" fill="#444" font-family="Arial, Helvetica, sans-serif">40</text>
<line x1="70" y1="251.00" x2="1180" y2="251.00" stroke="#e3e3e3" stroke-width="1"/>
<text x="62" y="255.00" text-anchor="end" font-size="11" fill="#444" font-family="Arial, Helvetica, sans-serif">20</text>
<line x1="70" y1="305.00" x2="1180" y2="305.00" stroke="#e3e3e3" stroke-width="1"/>
<text x="62" y="309.00" text-anchor="end" font-size="11" fill="#444" font-family="Arial, Helvetica, sans-serif">0</text>
<line x1="70" y1="35" x2="70" y2="305" stroke="#999"/>
<line x1="70" y1="305" x2="1180" y2="305" stroke="#999"/>
<text x="70.00" y="323" text-anchor="middle" font-size="10" fill="#444" font-family="Arial, Helvetica, sans-serif">2026-02-11 16:38</text>
<text x="347.50" y="323" text-anchor="middle" font-size="10" fill="#444" font-family="Arial, Helvetica, sans-serif">2026-02-12 08:13</text>
<text x="625.00" y="323" text-anchor="middle" font-size="10" fill="#444" font-family="Arial, Helvetica, sans-serif">2026-02-12 23:49</text>
<text x="902.50" y="323" text-anchor="middle" font-size="10" fill="#444" font-family="Arial, Helvetica, sans-serif">2026-02-13 15:25</text>
<text x="1180.00" y="323" text-anchor="middle" font-size="10" fill="#444" font-family="Arial, Helvetica, sans-serif">2026-02-14 07:01</text>
<polyline fill="none" stroke="#d62728" stroke-opacity="0.95" stroke-width="2" points="71.60,304.46 73.20,298.79 74.79,296.90 76.39,303.92 78.00,304.73 79.58,304.46 81.18,303.92 82.91,304.73 84.50,303.92 86.08,304.46 87.67,303.92 89.29,304.46 90.88,304.46 92.46,303.92 95.34,304.46 97.81,303.92 99.42,304.46 101.06,303.92 102.65,300.95 104.24,304.73 105.80,278.27 107.41,303.92 109.00,304.46 110.61,294.74 112.22,304.46 113.84,303.92 115.44,301.49 117.04,303.92 118.72,295.28 120.33,294.20 121.92,303.65 123.56,304.46 125.15,304.46 126.75,303.92 128.39,303.65 129.98,302.30 131.57,303.92 133.20,304.46 134.77,303.92 136.37,304.73 137.95,304.73 139.54,304.46 141.14,303.38 142.73,304.46 144.36,303.92 145.97,303.38 147.54,304.46 149.13,297.71 150.75,297.44 152.34,48.23 154.17,303.92 155.76,303.92 157.35,304.46 158.93,303.65 160.52,303.65 162.10,304.46 163.69,304.46 165.29,303.92 166.88,304.46 168.51,303.92 170.10,304.46 171.67,304.46 173.28,299.60 174.90,303.65 176.49,303.92 178.09,304.73 179.66,303.92 181.25,304.73 182.83,304.46 184.41,304.46 186.00,304.46 187.60,303.92 189.18,304.73 190.78,303.92 192.38,304.46 193.95,304.73 195.56,303.38 197.14,303.38 198.73,303.65 200.36,304.46 201.96,303.65 203.55,304.73 205.15,304.46 206.74,304.46 208.34,304.73 209.93,303.92 211.51,303.92 213.09,304.46 214.69,304.73 216.30,299.60 217.89,303.65 219.50,304.46 221.07,304.73 222.68,303.65 224.26,303.92 225.85,304.46 227.43,304.46 229.03,303.92 230.61,303.92 232.22,303.92 233.81,304.46 235.41,303.92 237.01,303.92 238.62,298.79 240.23,303.65 241.82,304.46 243.41,304.73 245.00,304.73 246.58,304.46 248.19,304.46 249.79,304.46 251.38,304.46 252.97,302.84 254.57,304.46 256.17,304.46 257.78,304.46 259.40,304.46 260.99,304.46 262.58,304.46 264.18,303.65 265.77,304.73 267.36,303.38 268.97,304.46 270.70,304.46 272.28,304.73 273.90,303.92 275.49,303.92 277.07,304.46 278.65,299.87 280.22,304.46 281.81,304.73 283.41,295.01 285.00,304.46 286.59,303.92 288.18,303.92 289.77,303.92 291.35,304.46 292.97,303.65 294.56,304.46 296.15,304.46 297.74,304.46 299.33,303.92 300.92,303.92 302.52,303.92 304.12,304.73 305.72,304.46 307.31,304.46 308.91,303.92 310.49,304.46 312.07,303.65 313.66,303.92 315.26,303.65 316.86,304.73 318.47,304.46 320.06,304.46 321.66,304.46 323.27,303.11 324.86,303.38 326.44,304.46 328.04,304.46 329.64,304.46 331.26,303.65 332.88,303.92 334.46,304.46 336.07,297.71 337.65,294.20 339.23,303.92 340.82,304.46 342.42,303.65 344.00,297.71 345.58,304.46 347.16,303.92 348.77,304.46 350.37,304.46 351.97,303.92 353.56,303.38 355.19,304.73 356.79,303.92 358.38,303.38 359.96,303.92 361.54,304.46 363.28,304.46 364.91,303.92 366.49,304.73 368.08,304.46 369.65,304.46 371.25,304.73 372.84,304.46 374.44,304.73 376.04,35.00 377.63,303.65 379.22,303.11 380.81,297.17 382.44,304.46 384.03,304.46 385.61,304.46 387.21,303.92 388.82,303.65 390.44,304.46 392.07,303.11 393.65,304.73 395.25,304.46 396.85,303.92 398.43,304.73 400.03,304.46 401.63,303.92 403.25,304.73 404.83,304.46 406.41,304.46 408.02,304.46 409.62,303.92 411.21,303.65 412.81,304.46 414.42,303.65 416.02,304.46 417.61,301.76 419.18,302.03 420.77,304.46 422.37,304.46 423.96,304.46 425.55,35.00 427.14,303.65 428.72,303.92 430.31,304.46 431.91,304.46 433.51,303.65 435.11,304.46 436.73,304.73 438.32,304.46 439.93,304.73 441.51,35.00 443.11,304.73 444.71,303.65 446.30,304.46 447.90,303.65 449.53,304.73 451.13,300.68 452.73,303.65 454.32,303.92 455.91,304.46 457.51,304.46 459.09,304.46 460.68,304.46 462.28,304.73 463.88,304.73 465.48,304.73 467.07,303.65 468.68,303.92 470.27,303.92 471.87,304.73 473.47,35.00 475.08,304.46 476.67,303.92 478.26,304.73 479.87,303.92 481.48,304.73 483.08,303.92 484.67,304.46 486.26,303.92 488.03,304.73 489.63,304.46 491.23,303.65 492.83,304.46 494.44,304.46 496.04,303.92 497.64,304.46 499.24,303.65 500.82,304.73 502.46,295.28 504.08,297.17 505.66,304.46 507.25,304.46 508.85,304.46 510.44,304.73 512.04,304.46 513.70,303.65 515.29,304.46 516.88,303.92 518.50,304.73 520.22,304.73 521.81,304.73 523.82,303.65 526.52,304.46 528.15,303.92 529.78,303.92 531.37,304.73 532.93,304.46 534.52,303.92 536.14,303.65 537.74,304.46 539.35,304.73 541.01,303.92 542.66,35.00 544.35,303.65 545.95,304.46 547.55,304.73 549.14,303.92 550.76,303.92 552.37,303.65 553.98,304.46 555.57,303.92 557.16,304.46 558.82,304.46 560.43,304.46 562.00,304.46 563.61,304.46 565.23,303.92 566.88,304.46 568.49,303.92 570.08,303.92 571.72,303.65 573.25,303.92 574.84,303.65 576.46,303.92 578.05,303.92 579.67,303.92 581.32,303.11 582.92,303.92 584.51,303.92 586.12,304.46 587.74,304.46 589.33,303.65 590.92,304.73 592.50,299.06 594.11,304.73 595.71,304.46 597.29,48.23 599.20,48.50 601.07,48.77 602.96,48.50 604.81,48.23 606.64,48.50 608.48,48.50 610.36,48.77 612.22,304.46 613.82,304.46 615.40,304.46 616.99,303.92 618.58,304.46 620.18,304.46 621.76,303.92 623.34,304.19 624.93,303.65 626.53,304.73 628.12,303.92 629.71,303.92 631.30,304.46 632.89,304.73 634.47,304.73 636.06,304.46 637.65,304.46 639.24,304.46 640.82,303.92 642.42,304.46 644.03,304.73 645.60,303.65 647.18,304.46 648.77,35.00 650.36,304.46 651.96,304.46 653.55,304.73 655.14,304.46 656.73,304.73 658.33,35.00 659.92,304.46 661.51,304.46 663.10,304.73 664.68,303.92 666.27,303.92 667.84,303.92 669.42,303.38 671.01,304.73 672.59,303.65 674.17,304.46 675.76,303.92 677.35,304.46 678.94,304.73 680.51,303.92 682.09,303.38 683.66,304.73 685.30,303.65 687.02,304.73 688.62,304.73 690.21,304.46 691.80,303.92 693.39,303.65 694.96,297.44 696.54,297.71 698.13,48.50 700.01,48.50 701.88,48.50 703.73,48.23 705.60,48.50 707.48,48.23 709.34,48.50 711.24,48.77 713.17,295.82 714.91,297.17 716.62,304.73 718.22,303.92 719.83,303.92 721.43,304.73 723.00,303.92 724.59,304.46 726.18,304.46 727.77,304.46 729.36,304.46 730.94,304.46 732.54,304.73 734.14,303.11 735.72,304.73 737.34,303.92 738.92,304.46 740.51,304.73 741.90,304.46 743.55,303.92 745.14,304.73 746.77,304.73 748.36,304.73 749.95,303.92 751.55,35.00 753.16,304.73 754.76,304.73 756.37,304.46 757.97,304.73 759.60,303.65 761.18,304.46 762.76,304.73 764.35,304.73 765.93,304.73 767.52,35.00 769.10,303.92 770.71,303.92 772.29,303.92 773.89,303.65 775.48,304.46 777.06,304.46 778.67,303.92 780.26,304.46 781.86,304.46 783.47,304.73 785.06,303.92 786.64,301.22 788.26,304.46 789.85,304.46 791.50,304.46 793.07,303.65 794.66,304.46 796.25,304.73 797.83,304.46 799.41,300.68 801.02,303.92 802.61,304.73 804.19,304.46 805.79,304.73 807.37,303.38 808.96,303.92 810.56,304.73 812.17,304.73 813.76,303.92 815.68,303.92 817.32,303.92 818.95,303.65 820.56,304.46 822.15,302.84 823.77,304.46 825.35,304.46 826.93,303.92 828.54,303.92 830.15,303.11 831.74,304.73 833.34,304.46 834.94,304.46 836.53,304.46 838.18,304.73 839.80,304.73 841.40,304.46 842.99,304.73 844.59,304.73 846.18,302.57 847.77,302.84 849.36,301.22 851.02,303.92 852.62,304.46 854.23,304.46 855.82,304.46 857.41,303.92 859.02,304.73 860.61,304.46 862.20,304.46 863.80,303.92 865.40,304.46 867.00,304.46 868.60,304.46 870.19,297.44 871.78,303.92 873.37,304.46 875.00,304.46 876.60,300.68 878.18,303.92 879.77,289.07 881.36,303.65 882.99,302.03 884.59,302.84 886.50,302.84 888.14,304.46 889.74,304.46 891.34,303.92 892.92,304.73 894.52,303.92 896.12,303.92 897.72,303.65 899.35,304.46 900.93,303.92 902.52,304.73 904.11,304.46 905.71,304.46 907.30,303.92 908.89,304.73 910.50,304.46 912.08,304.73 913.67,304.46 915.26,304.73 916.85,304.73 918.47,303.92 920.05,304.46 921.64,304.73 923.25,304.46 924.87,304.46 926.45,304.73 928.04,304.46 929.64,303.38 931.28,303.92 932.87,304.73 934.47,304.73 936.07,303.92 937.67,303.92 939.26,304.46 940.86,303.92 942.46,303.92 944.09,304.73 945.68,303.92 947.28,304.46 948.85,303.92 950.44,304.46 952.04,304.73 953.64,303.92 955.23,304.73 956.84,304.46 958.45,304.73 960.06,298.79 961.62,303.92 963.24,303.92 964.82,304.46 966.42,304.46 968.01,303.65 969.61,303.65 971.19,304.73 972.81,303.92 974.41,303.92 976.00,235.88 977.61,236.69 979.22,236.69 980.82,236.69 982.42,236.15 984.03,232.10 985.82,227.51 987.57,228.59 989.28,222.65 990.89,236.42 992.56,236.15 994.16,235.61 995.76,236.69 997.33,236.69 998.83,236.15 1000.49,235.61 1002.09,236.15 1003.70,236.42 1005.28,233.18 1006.88,236.69 1008.46,236.42 1010.07,236.15 1011.66,235.61 1013.26,235.88 1014.85,236.42 1016.45,236.42 1018.05,236.96 1019.66,236.42 1021.27,235.61 1022.88,236.69 1024.48,236.15 1026.08,236.42 1027.68,242.63 1029.31,255.86 1030.91,236.69 1032.49,235.88 1034.08,236.15 1035.69,236.42 1037.28,235.88 1038.87,236.15 1040.47,236.96 1042.07,236.15 1043.69,236.69 1045.27,236.96 1046.86,236.15 1048.46,236.96 1050.06,236.15 1051.67,236.42 1053.27,234.53 1054.86,236.15 1056.46,236.69 1058.06,236.69 1059.67,235.34 1061.27,236.15 1062.88,236.15 1064.49,235.61 1066.08,236.69 1067.69,236.96 1069.28,235.61 1070.90,232.91 1072.55,234.26 1074.14,236.42 1075.75,236.42 1077.34,236.15 1078.94,236.96 1080.54,236.15 1082.14,236.69 1083.74,236.96 1085.35,234.53 1086.94,236.42 1088.55,236.69 1090.15,236.42 1091.75,236.15 1093.36,236.42 1094.97,235.88 1096.58,236.15 1098.18,236.96 1099.79,235.61 1101.41,235.88 1103.01,235.88 1104.60,236.42 1106.20,236.42 1107.80,236.69 1109.44,236.69 1111.05,236.42 1112.66,235.61 1114.26,236.15 1115.85,236.15 1117.44,235.34 1119.04,236.69 1120.65,235.61 1122.25,236.69 1123.85,235.88 1125.44,236.69 1127.04,232.91 1128.65,235.88 1130.26,236.42 1131.86,235.88 1133.45,235.61 1135.07,236.69 1136.67,235.88 1138.28,236.42 1139.88,236.42 1141.47,236.69 1143.06,236.15 1144.65,235.88 1146.25,236.42 1147.85,235.61 1149.47,201.32 1151.07,236.69 1152.68,236.15 1154.27,236.42 1155.89,236.42 1157.50,235.61 1159.09,230.48 1160.70,235.34 1162.32,283.40 1163.92,236.69 1165.52,230.75 1167.12,236.69 1168.74,224.00 1170.35,236.42 1171.95,236.15 1173.59,235.61 1175.20,235.88 1176.81,236.15 1178.41,236.96 1180.00,230.48"/>
<polyline fill="none" stroke="#d62728" stroke-opacity="0.80" stroke-width="2" points="70.00,303.38 71.60,304.19 73.20,302.57 74.79,303.38 76.39,304.19 78.00,287.72 79.58,303.38 81.18,304.19 82.91,304.19 84.50,303.38 86.08,303.38 87.67,304.19 89.29,304.19 90.88,304.19 92.46,304.19 95.34,304.19 97.81,302.57 99.42,304.19 101.06,304.19 102.65,304.19 104.24,303.38 105.80,303.38 107.41,304.19 109.00,302.57 110.61,302.57 112.22,303.38 113.84,303.38 115.44,304.19 117.04,303.38 118.72,35.00 120.33,303.38 121.92,35.00 123.56,35.00 125.15,303.38 126.75,304.19 128.39,35.00 129.98,303.38 131.57,302.57 133.20,304.19 134.77,303.38 136.37,303.38 137.95,302.57 139.54,304.19 141.14,303.38 142.73,303.38 144.36,302.57 145.97,303.38 147.54,35.00 149.13,303.38 150.75,304.19 152.34,304.19 154.17,302.57 155.76,35.00 157.35,304.19 158.93,303.38 160.52,304.19 162.10,303.38 163.69,303.38 165.29,304.19 166.88,35.00 168.51,304.19 170.10,304.19 171.67,304.19 173.28,303.38 174.90,304.19 176.49,302.57 178.09,304.19 179.66,302.57 181.25,302.57 182.83,303.38 184.41,288.80 186.00,302.57 187.60,304.19 189.18,304.19 190.78,303.38 192.38,304.19 193.95,300.14 195.56,304.19 197.14,304.19 198.73,304.19 200.36,35.00 201.96,35.00 203.55,302.57 205.15,35.00 206.74,35.00 208.34,303.38 209.93,304.19 211.51,35.00 213.09,304.19 214.69,304.19 216.30,304.19 217.89,304.19 219.50,303.38 221.07,303.38 222.68,304.19 224.26,304.19 225.85,303.38 227.43,286.91 229.03,303.38 230.61,304.19 232.22,304.19 233.81,304.19 235.41,303.38 237.01,304.19 238.62,304.19 240.23,303.38 241.82,302.57 243.41,302.57 245.00,304.19 246.58,302.57 248.19,304.19 249.79,304.19 251.38,304.19 252.97,35.00 254.57,304.19 256.17,304.19 257.78,302.57 259.40,35.00 260.99,35.00 262.58,303.38 264.18,304.19 265.77,303.38 267.36,304.19 268.97,304.19 270.70,302.57 272.28,304.19 273.90,35.00 275.49,35.00 277.07,302.57 278.65,304.19 280.22,304.19 281.81,303.38 283.41,35.00 285.00,303.38 286.59,35.00 288.18,304.19 289.77,304.19 291.35,304.19 292.97,303.38 294.56,303.38 296.15,304.19 297.74,304.19 299.33,295.28 300.92,35.00 302.52,303.38 304.12,35.00 305.72,35.00 307.31,302.57 308.91,304.19 310.49,299.33 312.07,304.19 313.66,304.19 315.26,304.19 316.86,303.38 318.47,303.38 320.06,303.38 321.66,302.57 323.27,303.38 324.86,304.19 326.44,303.38 328.04,304.19 329.64,303.38 331.26,304.19 332.88,303.38 334.46,303.38 336.07,302.57 337.65,303.38 339.23,304.19 340.82,303.38 342.42,35.00 344.00,304.19 345.58,303.38 347.16,302.57 348.77,304.19 350.37,304.19 351.97,303.38 353.56,303.38 355.19,304.19 356.79,35.00 358.38,303.38 359.96,35.00 361.54,302.57 363.28,303.38 364.91,304.19 366.49,35.00 368.08,303.38 369.65,35.00 371.25,304.19 372.84,304.19 374.44,35.00 376.04,304.19 377.63,302.57 379.22,302.57 380.81,303.38 382.44,35.00 384.03,302.57 385.61,304.19 387.21,301.76 388.82,303.38 390.44,303.38 392.07,304.19 393.65,303.38 395.25,303.38 396.85,304.19 398.43,304.19 400.03,303.38 401.63,304.19 403.25,304.19 404.83,303.38 406.41,35.00 408.02,304.19 409.62,303.38 411.21,304.19 412.81,304.19 414.42,304.19 416.02,35.00 417.61,35.00 419.18,302.57 420.77,302.57 422.37,304.19 423.96,303.38 425.55,302.57 427.14,302.57 428.72,35.00 430.31,304.19 431.91,35.00 433.51,303.38 435.11,35.00 436.73,303.38 438.32,303.38 439.93,303.38 441.51,35.00 443.11,304.19 444.71,302.57 446.30,303.38 447.90,304.19 449.53,303.38 451.13,35.00 452.73,303.38 454.32,304.19 455.91,303.38 457.51,304.19 459.09,35.00 460.68,302.57 462.28,304.19 463.88,304.19 465.48,303.38 467.07,303.38 468.68,304.19 470.27,303.38 471.87,304.19 473.47,304.19 475.08,304.19 476.67,303.38 478.26,302.57 479.87,304.19 481.48,35.00 483.08,295.28 484.67,303.38 486.26,302.57 488.03,303.38 489.63,301.76 491.23,35.00 492.83,304.19 494.44,303.38 496.04,304.19 497.64,304.19 499.24,299.33 500.82,304.19 502.46,303.38 504.08,302.57 505.66,303.38 507.25,302.57 508.85,304.19 510.44,304.19 512.04,304.19 513.70,302.57 515.29,303.38 516.88,303.38 518.50,35.00 520.22,303.38 521.81,303.38 523.82,304.19 526.52,302.57 528.15,303.38 529.78,303.38 531.37,303.38 532.93,304.19 534.52,303.38 536.14,304.19 537.74,304.19 539.35,303.38 541.01,304.19 542.66,304.19 544.35,304.19 545.95,304.19 547.55,302.57 549.14,35.00 550.76,304.19 552.37,302.57 553.98,303.38 555.57,303.38 557.16,303.38 558.82,304.19 560.43,304.19 562.00,303.38 563.61,304.19 565.23,303.38 566.88,304.19 568.49,303.38 570.08,304.19 571.72,287.18 573.25,288.53 574.84,301.76 576.46,302.57 578.05,303.38 579.67,35.00 581.32,35.00 582.92,303.38 584.51,303.38 586.12,304.19 587.74,304.19 589.33,35.00 590.92,304.19 592.50,35.00 594.11,303.38 595.71,303.38 597.29,302.57 599.20,303.38 601.07,303.38 602.96,300.95 604.81,303.38 606.64,302.57 608.48,304.19 610.36,304.19 612.22,35.00 613.82,303.38 615.40,303.38 616.99,304.19 618.58,304.19 620.18,302.57 621.76,303.38 623.34,304.19 624.93,303.38 626.53,303.38 628.12,304.19 629.71,303.38 631.30,304.19 632.89,303.38 634.47,303.38 636.06,304.19 637.65,303.38 639.24,35.00 640.82,304.19 642.42,304.19 644.03,303.38 645.60,304.19 647.18,304.19 648.77,35.00 650.36,303.38 651.96,304.19 653.55,304.19 655.14,304.19 656.73,302.57 658.33,35.00 659.92,303.38 661.51,287.72 663.10,304.19 664.68,304.19 666.27,303.38 667.84,301.76 669.42,303.38 671.01,304.19 672.59,302.57 674.17,303.38 675.76,303.38 677.35,303.38 678.94,303.38 680.51,304.19 682.09,303.38 683.66,302.57 685.30,304.19 687.02,303.38 688.62,303.38 690.21,303.38 691.80,303.38 693.39,304.19 694.96,304.19 696.54,304.19 698.13,304.19 700.01,303.38 701.88,303.38 703.73,304.19 705.60,302.57 707.48,304.19 709.34,303.38 711.24,302.57 713.17,304.19 714.91,303.38 716.62,303.38 718.22,303.38 719.83,302.57 721.43,35.00 723.00,35.00 724.59,304.19 726.18,303.38 727.77,35.00 729.36,35.00 730.94,303.38 732.54,304.19 734.14,304.19 735.72,304.19 737.34,303.38 738.92,304.19 740.51,304.19 741.90,304.19 743.55,304.19 745.14,287.72 746.77,303.38 748.36,302.57 749.95,303.38 751.55,303.38 753.16,304.19 754.76,304.19 756.37,303.38 757.97,302.57 759.60,304.19 761.18,303.38 762.76,302.57 764.35,304.19 765.93,301.76 767.52,304.19 769.10,304.19 770.71,303.38 772.29,303.38 773.89,304.19 775.48,303.38 777.06,301.76 778.67,304.19 780.26,304.19 781.86,304.19 783.47,35.00 785.06,303.38 786.64,304.19 788.26,304.19 789.85,304.19 791.50,304.19 793.07,35.00 794.66,35.00 796.25,302.57 797.83,304.19 799.41,35.00 801.02,304.19 802.61,303.38 804.19,302.57 805.79,302.57 807.37,304.19 808.96,303.38 810.56,304.19 812.17,303.38 813.76,301.76 815.68,304.19 817.32,304.19 818.95,304.19 820.56,302.57 822.15,304.19 823.77,304.19 825.35,304.19 826.93,303.38 828.54,304.19 830.15,303.38 831.74,35.00 833.34,302.57 834.94,304.19 836.53,302.57 838.18,304.19 839.80,303.38 841.40,304.19 842.99,303.38 844.59,35.00 846.18,302.57 847.77,303.38 849.36,304.19 851.02,304.19 852.62,304.19 854.23,304.19 855.82,303.38 857.41,304.19 859.02,304.19 860.61,304.19 862.20,304.19 863.80,304.19 865.40,304.19 867.00,302.57 868.60,304.19 870.19,303.38 871.78,304.19 873.37,304.19 875.00,304.19 876.60,304.19 878.18,35.00 879.77,304.19 881.36,301.76 882.99,217.79 884.59,304.19 886.50,35.00 888.14,303.38 889.74,302.57 891.34,304.19 892.92,303.38 894.52,304.19 896.12,303.38 897.72,304.19 899.35,304.19 900.93,303.38 902.52,35.00 904.11,35.00 905.71,304.19 907.30,302.57 908.89,304.19 910.50,304.19 912.08,304.19 913.67,303.38 915.26,304.19 916.85,302.57 918.47,304.19 920.05,35.00 921.64,35.00 923.25,303.38 924.87,304.19 926.45,303.38 928.04,300.95 929.64,304.19 931.28,304.19 932.87,304.19 934.47,303.38 936.07,303.38 937.67,302.57 939.26,35.00 940.86,303.38 942.46,35.00 944.09,35.00 945.68,303.38 947.28,304.19 948.85,302.57 950.44,304.19 952.04,304.19 953.64,303.38 955.23,303.38 956.84,296.09 958.45,304.19 960.06,304.19 961.62,304.19 963.24,302.57 964.82,35.00 966.42,303.38 968.01,304.19 969.61,302.57 971.19,302.57 972.81,303.38 974.41,35.00 976.00,303.38 977.61,303.38 979.22,304.19 980.82,304.19 982.42,303.38 984.03,304.19 985.82,303.38 987.57,303.38 989.28,302.57 990.89,304.19 992.56,303.38 994.16,303.38 995.76,304.19 997.33,35.00 998.83,303.38 1000.49,287.18 1002.09,304.19 1003.70,286.37 1005.28,302.57 1006.88,304.19 1008.46,304.19 1010.07,304.19 1011.66,304.19 1013.26,304.19 1014.85,35.00 1016.45,303.38 1018.05,304.19 1019.66,35.00 1021.27,304.19 1022.88,304.19 1024.48,303.38 1026.08,304.19 1027.68,304.19 1029.31,303.38 1030.91,303.38 1032.49,304.19 1034.08,304.19 1035.69,304.19 1037.28,304.19 1038.87,302.57 1040.47,35.00 1042.07,35.00 1043.69,304.19 1045.27,303.38 1046.86,304.19 1048.46,304.19 1050.06,304.19 1051.67,304.19 1053.27,304.19 1054.86,301.76 1056.46,303.38 1058.06,302.57 1059.67,304.19 1061.27,35.00 1062.88,304.19 1064.49,304.19 1066.08,303.38 1067.69,35.00 1069.28,304.19 1070.90,304.19 1072.55,304.19 1074.14,35.00 1075.75,304.19 1077.34,304.19 1078.94,303.38 1080.54,303.38 1082.14,35.00 1083.74,35.00 1085.35,303.38 1086.94,304.19 1088.55,302.57 1090.15,302.57 1091.75,304.19 1093.36,295.28 1094.97,303.38 1096.58,304.19 1098.18,304.19 1099.79,303.38 1101.41,35.00 1103.01,304.19 1104.60,302.57 1106.20,35.00 1107.80,302.57 1109.44,303.38 1111.05,304.19 1112.66,303.38 1114.26,304.19 1115.85,35.00 1117.44,35.00 1119.04,302.57 1120.65,303.38 1122.25,295.28 1123.85,304.19 1125.44,304.19 1127.04,303.38 1128.65,303.38 1130.26,304.19 1131.86,304.19 1133.45,35.00 1135.07,303.38 1136.67,303.38 1138.28,304.19 1139.88,35.00 1141.47,304.19 1143.06,303.38 1144.65,35.00 1146.25,304.19 1147.85,303.38 1149.47,302.57 1151.07,304.19 1152.68,302.57 1154.27,304.19 1155.89,303.38 1157.50,304.19 1159.09,304.19 1160.70,304.19 1162.32,304.19 1163.92,304.19 1165.52,304.19 1167.12,303.38 1168.74,303.38 1170.35,304.19 1171.95,304.19 1173.59,304.19 1175.20,304.19 1176.81,303.38 1178.41,304.19 1180.00,304.19"/>
<polyline fill="none" stroke="#d62728" stroke-opacity="0.65" stroke-width="2" points="70.00,35.00 71.60,304.46 73.20,304.46 74.79,302.30 76.39,304.46 78.00,303.38 79.58,304.46 81.18,304.46 82.91,35.00 84.50,304.46 86.08,304.46 87.67,303.92 89.29,303.92 90.88,304.46 92.46,304.46 95.34,303.92 97.81,304.46 99.42,35.00 101.06,303.92 102.65,302.84 104.24,304.46 105.80,303.92 107.41,302.84 109.00,35.00 110.61,303.92 112.22,35.00 113.84,35.00 115.44,35.00 117.04,303.92 118.72,35.00 120.33,303.38 121.92,303.92 123.56,304.46 125.15,35.00 126.75,35.00 128.39,304.46 129.98,35.00 131.57,304.46 133.20,35.00 134.77,304.46 136.37,303.92 137.95,35.00 139.54,304.46 141.14,304.46 142.73,293.12 144.36,35.00 145.97,304.46 147.54,304.46 149.13,304.46 150.75,35.00 152.34,304.46 154.17,304.46 155.76,304.46 157.35,35.00 158.93,35.00 160.52,304.46 162.10,304.46 163.69,303.38 165.29,303.92 166.88,304.46 168.51,35.00 170.10,304.46 171.67,304.46 173.28,35.00 174.90,304.46 176.49,303.92 178.09,304.46 179.66,304.46 181.25,35.00 182.83,303.92 184.41,303.92 186.00,304.46 187.60,303.92 189.18,303.92 190.78,35.00 192.38,303.92 193.95,304.46 195.56,304.46 197.14,303.38 198.73,35.00 200.36,304.46 201.96,303.38 203.55,304.46 205.15,35.00 206.74,304.46 208.34,304.46 209.93,303.92 211.51,303.92 213.09,303.92 214.69,304.46 216.30,303.92 217.89,304.46 219.50,303.92 221.07,35.00 222.68,303.92 224.26,303.92 225.85,304.46 227.43,304.46 229.03,303.92 230.61,303.92 232.22,35.00 233.81,35.00 235.41,303.92 237.01,35.00 238.62,304.46 240.23,304.46 241.82,304.46 243.41,304.46 245.00,303.92 246.58,304.46 248.19,303.38 249.79,304.46 251.38,303.92 252.97,35.00 254.57,304.46 256.17,303.92 257.78,303.92 259.40,303.92 260.99,304.46 262.58,35.00 264.18,304.46 265.77,304.46 267.36,35.00 268.97,303.92 270.70,304.46 272.28,303.92 273.90,304.46 275.49,304.46 277.07,303.92 278.65,303.92 280.22,304.46 281.81,304.46 283.41,304.46 285.00,303.38 286.59,304.46 288.18,35.00 289.77,303.92 291.35,35.00 292.97,304.46 294.56,35.00 296.15,35.00 297.74,303.92 299.33,303.92 300.92,304.46 302.52,304.46 304.12,304.46 305.72,303.92 307.31,304.46 308.91,304.46 310.49,303.92 312.07,35.00 313.66,304.46 315.26,35.00 316.86,303.92 318.47,304.46 320.06,304.46 321.66,35.00 323.27,35.00 324.86,35.00 326.44,304.46 328.04,303.92 329.64,304.46 331.26,303.92 332.88,303.92 334.46,304.46 336.07,304.46 337.65,304.46 339.23,304.46 340.82,304.46 342.42,304.46 344.00,304.46 345.58,282.59 347.16,304.46 348.77,303.92 350.37,304.46 351.97,304.46 353.56,304.46 355.19,303.38 356.79,304.46 358.38,304.46 359.96,303.92 361.54,304.46 363.28,303.92 364.91,304.46 366.49,304.46 368.08,304.46 369.65,304.46 371.25,304.46 372.84,303.38 374.44,304.46 376.04,304.46 377.63,304.46 379.22,303.92 380.81,35.00 382.44,304.46 384.03,303.92 385.61,303.92 387.21,303.92 388.82,35.00 390.44,304.46 392.07,304.46 393.65,35.00 395.25,303.92 396.85,35.00 398.43,35.00 400.03,304.46 401.63,304.46 403.25,35.00 404.83,35.00 406.41,304.46 408.02,304.46 409.62,303.92 411.21,303.92 412.81,304.46 414.42,304.46 416.02,304.46 417.61,303.92 419.18,304.46 420.77,304.46 422.37,303.92 423.96,303.38 425.55,304.46 427.14,35.00 428.72,304.46 430.31,35.00 431.91,35.00 433.51,303.92 435.11,303.92 436.73,304.46 438.32,304.46 439.93,304.46 441.51,303.92 443.11,297.98 444.71,35.00 446.30,304.46 447.90,303.92 449.53,304.46 451.13,303.92 452.73,35.00 454.32,303.92 455.91,304.46 457.51,35.00 459.09,303.92 460.68,304.46 462.28,304.46 463.88,35.00 465.48,303.92 467.07,303.92 468.68,35.00 470.27,303.92 471.87,303.92 473.47,35.00 475.08,303.92 476.67,304.46 478.26,303.92 479.87,304.46 481.48,303.92 483.08,35.00 484.67,304.46 486.26,35.00 488.03,35.00 489.63,303.92 491.23,303.38 492.83,303.38 494.44,303.38 496.04,35.00 497.64,304.46 499.24,304.46 500.82,304.46 502.46,35.00 504.08,304.46 505.66,304.46 507.25,304.46 508.85,35.00 510.44,304.46 512.04,304.46 513.70,293.66 515.29,303.92 516.88,304.46 518.50,303.92 520.22,304.46 521.81,35.00 523.82,304.46 526.52,304.46 528.15,304.46 529.78,304.46 531.37,35.00 532.93,304.46 534.52,304.46 536.14,303.92 537.74,35.00 539.35,304.46 541.01,35.00 542.66,303.38 544.35,304.46 545.95,304.46 547.55,35.00 549.14,35.00 550.76,304.46 552.37,35.00 553.98,304.46 555.57,304.46 557.16,304.46 558.82,35.00 560.43,303.92 562.00,35.00 563.61,304.46 565.23,304.46 566.88,297.98 568.49,304.46 570.08,35.00 571.72,293.12 573.25,35.00 574.84,303.92 576.46,35.00 578.05,304.46 579.67,304.46 581.32,303.92 582.92,304.46 584.51,304.46 586.12,303.92 587.74,303.92 589.33,304.46 590.92,303.92 592.50,35.00 594.11,304.46 595.71,304.46 597.29,304.46 599.20,304.46 601.07,303.92 602.96,304.46 604.81,304.46 606.64,303.38 608.48,303.92 610.36,303.92 612.22,304.46 613.82,35.00 615.40,35.00 616.99,304.46 618.58,304.46 620.18,303.92 621.76,304.46 623.34,303.92 624.93,35.00 626.53,304.46 628.12,304.46 629.71,304.46 631.30,304.46 632.89,293.12 634.47,304.46 636.06,35.00 637.65,303.92 639.24,303.92 640.82,304.46 642.42,304.46 644.03,35.00 645.60,303.92 647.18,304.46 648.77,304.46 650.36,304.46 651.96,35.00 653.55,297.98 655.14,303.92 656.73,303.38 658.33,304.46 659.92,35.00 661.51,302.84 663.10,303.92 664.68,35.00 666.27,35.00 667.84,303.92 669.42,302.84 671.01,304.46 672.59,303.38 674.17,35.00 675.76,304.46 677.35,304.46 678.94,304.46 680.51,303.92 682.09,304.46 683.66,35.00 685.30,304.46 687.02,303.92 688.62,35.00 690.21,303.92 691.80,303.92 693.39,304.46 694.96,304.46 696.54,304.46 698.13,303.92 700.01,304.46 701.88,304.46 703.73,303.92 705.60,304.46 707.48,303.92 709.34,303.92 711.24,304.46 713.17,303.92 714.91,303.92 716.62,303.92 718.22,35.00 719.83,35.00 721.43,35.00 723.00,303.92 724.59,304.46 726.18,304.46 727.77,304.46 729.36,304.46 730.94,304.46 732.54,35.00 734.14,304.46 735.72,303.38 737.34,35.00 738.92,35.00 740.51,303.92 741.90,282.32 743.55,282.05 745.14,304.46 746.77,35.00 748.36,303.38 749.95,304.46 751.55,35.00 753.16,35.00 754.76,35.00 756.37,303.92 757.97,304.46 759.60,304.46 761.18,303.92 762.76,35.00 764.35,303.38 765.93,303.92 767.52,304.46 769.10,303.92 770.71,304.46 772.29,304.46 773.89,304.46 775.48,304.46 777.06,304.46 778.67,303.92 780.26,303.92 781.86,303.92 783.47,304.46 785.06,304.46 786.64,35.00 788.26,35.00 789.85,304.46 791.50,304.46 793.07,304.46 794.66,303.92 796.25,35.00 797.83,303.92 799.41,35.00 801.02,303.92 802.61,304.46 804.19,35.00 805.79,304.46 807.37,35.00 808.96,304.46 810.56,303.92 812.17,304.46 813.76,302.84 815.68,303.92 817.32,303.92 818.95,304.46 820.56,304.46 822.15,303.38 823.77,303.92 825.35,299.06 826.93,35.00 828.54,304.46 830.15,303.92 831.74,304.46 833.34,35.00 834.94,303.92 836.53,303.92 838.18,304.46 839.80,303.92 841.40,35.00 842.99,304.46 844.59,35.00 846.18,303.92 847.77,35.00 849.36,303.38 851.02,304.46 852.62,304.46 854.23,35.00 855.82,304.46 857.41,304.46 859.02,304.46 860.61,303.92 862.20,35.00 863.80,303.38 865.40,304.46 867.00,304.46 868.60,35.00 870.19,304.46 871.78,35.00 873.37,304.46 875.00,304.46 876.60,291.50 878.18,303.92 879.77,304.46 881.36,304.46 882.99,303.38 884.59,303.92 886.50,303.38 888.14,303.92 889.74,35.00 891.34,35.00 892.92,304.46 894.52,303.38 896.12,304.46 897.72,35.00 899.35,303.92 900.93,304.46 902.52,35.00 904.11,303.92 905.71,35.00 907.30,304.46 908.89,304.46 910.50,35.00 912.08,304.46 913.67,304.46 915.26,35.00 916.85,304.46 918.47,304.46 920.05,304.46 921.64,303.92 923.25,35.00 924.87,304.46 926.45,304.46 928.04,35.00 929.64,304.46 931.28,303.38 932.87,35.00 934.47,304.46 936.07,304.46 937.67,303.92 939.26,304.46 940.86,304.46 942.46,304.46 944.09,304.46 945.68,304.46 947.28,304.46 948.85,303.92 950.44,304.46 952.04,303.92 953.64,304.46 955.23,35.00 956.84,304.46 958.45,304.46 960.06,303.92 961.62,35.00 963.24,304.46 964.82,304.46 966.42,304.46 968.01,304.46 969.61,303.92 971.19,304.46 972.81,304.46 974.41,35.00 976.00,304.46 977.61,303.92 979.22,35.00 980.82,35.00 982.42,303.92 984.03,281.24 985.82,304.46 987.57,304.46 989.28,35.00 990.89,303.92 992.56,303.92 994.16,304.46 995.76,304.46 997.33,303.92 998.83,293.12 1000.49,303.92 1002.09,292.58 1003.70,294.20 1005.28,293.12 1006.88,303.92 1008.46,304.46 1010.07,303.92 1011.66,303.38 1013.26,304.46 1014.85,304.46 1016.45,304.46 1018.05,303.92 1019.66,35.00 1021.27,35.00 1022.88,35.00 1024.48,35.00 1026.08,304.46 1027.68,35.00 1029.31,304.46 1030.91,303.92 1032.49,304.46 1034.08,303.92 1035.69,303.92 1037.28,304.46 1038.87,303.92 1040.47,304.46 1042.07,304.46 1043.69,35.00 1045.27,304.46 1046.86,304.46 1048.46,35.00 1050.06,303.92 1051.67,35.00 1053.27,303.92 1054.86,35.00 1056.46,304.46 1058.06,35.00 1059.67,304.46 1061.27,304.46 1062.88,303.92 1064.49,304.46 1066.08,35.00 1067.69,303.92 1069.28,304.46 1070.90,304.46 1072.55,304.46 1074.14,304.46 1075.75,303.92 1077.34,302.84 1078.94,304.46 1080.54,304.46 1082.14,304.46 1083.74,304.46 1085.35,303.92 1086.94,304.46 1088.55,303.38 1090.15,35.00 1091.75,35.00 1093.36,303.38 1094.97,35.00 1096.58,304.46 1098.18,303.92 1099.79,304.46 1101.41,303.92 1103.01,304.46 1104.60,35.00 1106.20,35.00 1107.80,35.00 1109.44,303.92 1111.05,303.92 1112.66,303.92 1114.26,304.46 1115.85,303.92 1117.44,304.46 1119.04,304.46 1120.65,304.46 1122.25,304.46 1123.85,304.46 1125.44,304.46 1127.04,35.00 1128.65,304.46 1130.26,35.00 1131.86,304.46 1133.45,304.46 1135.07,304.46 1136.67,304.46 1138.28,303.92 1139.88,292.58 1141.47,304.46 1143.06,304.46 1144.65,303.92 1146.25,304.46 1147.85,304.46 1149.47,304.46 1151.07,303.92 1152.68,35.00 1154.27,304.46 1155.89,304.46 1157.50,304.46 1159.09,303.92 1160.70,304.46 1162.32,293.66 1163.92,292.04 1165.52,293.66 1167.12,293.12 1168.74,294.20 1170.35,293.12 1171.95,293.12 1173.59,292.58 1175.20,293.12 1176.81,293.39 1178.41,293.12 1180.00,293.12"/>
<polyline fill="none" stroke="#d62728" stroke-opacity="0.50" stroke-width="2" points="70.00,302.84 71.60,302.84 73.20,303.92 74.79,303.92 76.39,303.92 78.00,303.38 79.58,303.92 81.18,302.57 82.91,303.38 84.50,302.84 86.08,303.92 87.67,303.38 89.29,302.84 90.88,303.38 92.46,287.18 95.34,303.38 97.81,303.38 99.42,303.38 101.06,303.92 102.65,302.84 104.24,293.12 105.80,303.38 107.41,303.38 109.00,303.38 110.61,303.38 112.22,303.38 113.84,303.38 115.44,303.92 117.04,303.38 118.72,303.92 120.33,303.92 121.92,303.38 123.56,303.38 125.15,303.38 126.75,302.03 128.39,303.38 129.98,303.92 131.57,303.92 133.20,303.38 134.77,303.92 136.37,303.92 137.95,303.92 139.54,302.84 141.14,303.92 142.73,303.38 144.36,303.92 145.97,302.84 147.54,303.92 149.13,302.84 150.75,303.38 152.34,302.84 154.17,303.38 155.76,303.92 157.35,303.38 158.93,303.92 160.52,303.38 162.10,303.38 163.69,303.92 165.29,302.30 166.88,303.92 168.51,303.92 170.10,304.46 171.67,303.92 173.28,303.92 174.90,303.92 176.49,303.38 178.09,289.61 179.66,303.92 181.25,303.38 182.83,302.84 184.41,299.87 186.00,303.92 187.60,303.92 189.18,304.46 190.78,303.92 192.38,302.03 193.95,304.46 195.56,303.38 197.14,303.38 198.73,302.84 200.36,302.57 201.96,303.92 203.55,303.92 205.15,303.92 206.74,303.38 208.34,303.38 209.93,302.84 211.51,303.38 213.09,302.84 214.69,303.92 216.30,303.38 217.89,294.20 219.50,303.38 221.07,303.38 222.68,303.92 224.26,303.92 225.85,302.57 227.43,303.38 229.03,302.84 230.61,302.84 232.22,302.57 233.81,303.92 235.41,303.92 237.01,303.92 238.62,303.92 240.23,302.84 241.82,303.92 243.41,303.92 245.00,302.84 246.58,303.92 248.19,302.84 249.79,302.84 251.38,303.92 252.97,303.92 254.57,303.92 256.17,303.92 257.78,302.57 259.40,303.92 260.99,303.92 262.58,303.38 264.18,303.38 265.77,303.92 267.36,304.46 268.97,303.92 270.70,303.92 272.28,303.38 273.90,303.92 275.49,303.92 277.07,304.46 278.65,303.38 280.22,302.84 281.81,303.92 283.41,302.84 285.00,303.92 286.59,303.38 288.18,303.38 289.77,304.46 291.35,303.38 292.97,303.92 294.56,302.57 296.15,302.03 297.74,303.92 299.33,303.92 300.92,303.38 302.52,303.38 304.12,303.92 305.72,303.38 307.31,303.38 308.91,302.84 310.49,302.57 312.07,303.38 313.66,302.03 315.26,302.03 316.86,302.03 318.47,302.84 320.06,302.03 321.66,302.84 323.27,302.84 324.86,302.57 326.44,302.03 328.04,303.92 329.64,303.38 331.26,303.92 332.88,303.92 334.46,303.38 336.07,302.84 337.65,303.92 339.23,303.92 340.82,303.92 342.42,296.90 344.00,303.38 345.58,302.84 347.16,303.92 348.77,303.92 350.37,302.84 351.97,303.92 353.56,302.84 355.19,303.92 356.79,303.92 358.38,303.38 359.96,303.92 361.54,303.92 363.28,299.33 364.91,303.38 366.49,303.92 368.08,303.38 369.65,303.92 371.25,304.46 372.84,303.92 374.44,303.38 376.04,303.92 377.63,302.84 379.22,303.38 380.81,303.38 382.44,303.92 384.03,303.92 385.61,303.92 387.21,302.84 388.82,303.92 390.44,303.38 392.07,303.92 393.65,303.92 395.25,303.38 396.85,302.84 398.43,303.38 400.03,303.38 401.63,303.92 403.25,303.92 404.83,302.84 406.41,303.92 408.02,303.38 409.62,303.92 411.21,303.92 412.81,303.38 414.42,303.92 416.02,302.30 417.61,303.92 419.18,303.38 420.77,303.92 422.37,302.84 423.96,303.92 425.55,302.84 427.14,303.92 428.72,303.92 430.31,303.92 431.91,303.92 433.51,302.84 435.11,303.92 436.73,303.92 438.32,299.87 439.93,303.92 441.51,302.84 443.11,302.84 444.71,303.92 446.30,303.92 447.90,303.92 449.53,304.46 451.13,304.46 452.73,303.38 454.32,303.38 455.91,303.38 457.51,303.92 459.09,303.92 460.68,302.84 462.28,303.92 463.88,303.92 465.48,303.38 467.07,303.38 468.68,303.92 470.27,302.57 471.87,303.92 473.47,302.84 475.08,303.92 476.67,303.92 478.26,303.38 479.87,303.92 481.48,304.46 483.08,303.38 484.67,302.84 486.26,303.38 488.03,303.92 489.63,303.38 491.23,303.92 492.83,303.92 494.44,303.38 496.04,303.38 497.64,303.38 499.24,303.38 500.82,303.92 502.46,302.84 504.08,303.92 505.66,303.92 507.25,303.92 508.85,303.92 510.44,302.84 512.04,303.38 513.70,303.38 515.29,303.92 516.88,302.84 518.50,303.92 520.22,303.92 521.81,293.39 523.82,293.12 526.52,303.92 528.15,302.84 529.78,292.58 531.37,302.03 532.93,302.84 534.52,304.46 536.14,303.92 537.74,303.92 539.35,303.92 541.01,304.46 542.66,303.92 544.35,303.92 545.95,302.84 547.55,303.38 549.14,303.38 550.76,303.92 552.37,303.38 553.98,302.84 555.57,294.74 557.16,303.38 558.82,303.92 560.43,303.92 562.00,303.92 563.61,303.92 565.23,303.38 566.88,303.92 568.49,303.38 570.08,303.92 571.72,303.38 573.25,302.57 574.84,303.92 576.46,303.92 578.05,303.92 579.67,304.46 581.32,303.38 582.92,303.38 584.51,303.38 586.12,304.46 587.74,303.92 589.33,303.92 590.92,303.38 592.50,303.92 594.11,303.92 595.71,303.92 597.29,303.92 599.20,300.41 601.07,303.92 602.96,303.38 604.81,303.92 606.64,303.92 608.48,303.92 610.36,302.84 612.22,303.92 613.82,303.92 615.40,303.92 616.99,303.38 618.58,302.84 620.18,302.84 621.76,303.92 623.34,303.92 624.93,303.38 626.53,304.46 628.12,304.46 629.71,303.92 631.30,292.58 632.89,302.84 634.47,304.46 636.06,303.38 637.65,303.92 639.24,303.38 640.82,303.38 642.42,303.38 644.03,303.38 645.60,303.38 647.18,304.46 648.77,303.38 650.36,304.46 651.96,303.92 653.55,303.38 655.14,303.92 656.73,303.38 658.33,295.82 659.92,302.84 661.51,303.92 663.10,302.84 664.68,299.87 666.27,303.92 667.84,303.38 669.42,302.84 671.01,303.92 672.59,303.92 674.17,303.38 675.76,303.92 677.35,303.38 678.94,303.92 680.51,303.38 682.09,304.46 683.66,303.92 685.30,303.92 687.02,303.92 688.62,303.92 690.21,303.92 691.80,303.38 693.39,302.57 694.96,303.92 696.54,303.92 698.13,303.92 700.01,302.84 701.88,302.84 703.73,303.92 705.60,302.30 707.48,303.92 709.34,303.92 711.24,303.92 713.17,303.92 714.91,303.92 716.62,303.92 718.22,303.38 719.83,303.38 721.43,303.38 723.00,303.38 724.59,303.92 726.18,303.92 727.77,292.85 729.36,303.92 730.94,302.57 732.54,303.38 734.14,303.92 735.72,303.92 737.34,303.38 738.92,303.92 740.51,302.30 741.90,303.92 743.55,303.92 745.14,304.46 746.77,303.38 748.36,303.92 749.95,303.92 751.55,303.38 753.16,303.92 754.76,303.92 756.37,303.92 757.97,304.46 759.60,303.92 761.18,303.38 762.76,303.92 764.35,303.92 765.93,303.92 767.52,302.84 769.10,303.38 770.71,303.92 772.29,303.92 773.89,303.38 775.48,303.92 777.06,303.38 778.67,303.38 780.26,303.92 781.86,303.38 783.47,303.92 785.06,303.92 786.64,303.92 788.26,303.92 789.85,303.92 791.50,303.92 793.07,303.92 794.66,302.84 796.25,302.84 797.83,303.92 799.41,304.46 801.02,302.03 802.61,303.38 804.19,303.92 805.79,303.92 807.37,303.92 808.96,302.84 810.56,303.38 812.17,303.38 813.76,303.38 815.68,303.92 817.32,303.92 818.95,303.38 820.56,302.57 822.15,303.92 823.77,302.84 825.35,303.92 826.93,303.92 828.54,303.92 830.15,304.46 831.74,302.57 833.34,302.57 834.94,303.38 836.53,303.92 838.18,303.92 839.80,303.38 841.40,303.38 842.99,302.84 844.59,303.92 846.18,300.95 847.77,303.92 849.36,302.84 851.02,303.38 852.62,303.92 854.23,303.38 855.82,302.84 857.41,303.92 859.02,303.38 860.61,303.92 862.20,303.38 863.80,303.92 865.40,303.92 867.00,303.92 868.60,303.38 870.19,303.38 871.78,303.92 873.37,303.92 875.00,303.92 876.60,303.92 878.18,303.92 879.77,300.95 881.36,290.69 882.99,303.92 884.59,302.84 886.50,303.92 888.14,303.38 889.74,303.38 891.34,303.92 892.92,304.46 894.52,303.92 896.12,303.92 897.72,303.38 899.35,303.38 900.93,302.84 902.52,304.46 904.11,303.92 905.71,303.38 907.30,304.46 908.89,304.46 910.50,303.38 912.08,303.38 913.67,303.92 915.26,303.38 916.85,304.46 918.47,303.38 920.05,302.84 921.64,304.46 923.25,303.92 924.87,303.92 926.45,303.38 928.04,303.38 929.64,303.92 931.28,303.92 932.87,300.95 934.47,303.92 936.07,302.84 937.67,303.92 939.26,303.38 940.86,303.38 942.46,302.03 944.09,302.03 945.68,303.92 947.28,302.84 948.85,302.84 950.44,302.57 952.04,303.38 953.64,303.38 955.23,303.38 956.84,303.38 958.45,291.77 960.06,274.49 961.62,302.84 963.24,292.85 964.82,302.84 966.42,303.38 968.01,303.92 969.61,303.92 971.19,303.92 972.81,303.38 974.41,303.38 976.00,304.46 977.61,302.84 979.22,303.92 980.82,302.57 982.42,303.92 984.03,303.92 985.82,304.46 987.57,304.46 989.28,303.92 990.89,303.92 992.56,303.92 994.16,303.38 995.76,303.92 997.33,303.38 998.83,303.38 1000.49,303.38 1002.09,303.92 1003.70,303.92 1005.28,303.38 1006.88,303.38 1008.46,303.38 1010.07,303.92 1011.66,303.38 1013.26,303.92 1014.85,303.92 1016.45,303.92 1018.05,303.92 1019.66,303.38 1021.27,303.92 1022.88,303.92 1024.48,302.84 1026.08,303.38 1027.68,303.38 1029.31,302.57 1030.91,303.38 1032.49,302.57 1034.08,302.57 1035.69,301.49 1037.28,303.92 1038.87,303.38 1040.47,303.92 1042.07,302.84 1043.69,303.38 1045.27,303.92 1046.86,303.38 1048.46,303.38 1050.06,303.38 1051.67,303.92 1053.27,303.92 1054.86,304.46 1056.46,303.92 1058.06,303.92 1059.67,302.57 1061.27,303.38 1062.88,303.38 1064.49,303.92 1066.08,302.84 1067.69,302.84 1069.28,303.38 1070.90,303.38 1072.55,303.92 1074.14,303.38 1075.75,303.92 1077.34,303.92 1078.94,300.41 1080.54,303.92 1082.14,303.38 1083.74,303.92 1085.35,303.92 1086.94,303.92 1088.55,303.38 1090.15,304.46 1091.75,303.38 1093.36,302.84 1094.97,303.92 1096.58,303.92 1098.18,303.38 1099.79,303.92 1101.41,303.92 1103.01,303.92 1104.60,303.92 1106.20,303.92 1107.80,303.38 1109.44,302.84 1111.05,303.92 1112.66,303.38 1114.26,303.92 1115.85,303.92 1117.44,303.38 1119.04,303.92 1120.65,303.92 1122.25,303.38 1123.85,303.92 1125.44,303.38 1127.04,302.84 1128.65,303.38 1130.26,302.03 1131.86,292.85 1133.45,303.92 1135.07,302.57 1136.67,303.38 1138.28,302.84 1139.88,303.38 1141.47,302.84 1143.06,291.50 1144.65,303.38 1146.25,303.92 1147.85,303.92 1149.47,303.92 1151.07,303.92 1152.68,303.92 1154.27,303.92 1155.89,303.92 1157.50,303.92 1159.09,303.92 1160.70,297.71 1162.32,303.38 1163.92,303.38 1165.52,303.92 1167.12,303.92 1168.74,303.38 1170.35,304.46 1171.95,304.46 1173.59,303.92 1175.20,303.92 1176.81,303.38 1178.41,303.92 1180.00,304.46"/>
<rect x="70" y="332" width="12" height="12" fill="#d62728" fill-opacity="0.95"/>
<text x="88" y="342" font-size="11" fill="#333" font-family="Arial, Helvetica, sans-serif">nsc1.utdallas.edu</text>
<rect x="350" y="332" width="12" height="12" fill="#d62728" fill-opacity="0.80"/>
<text x="368" y="342" font-size="11" fill="#333" font-family="Arial, Helvetica, sans-serif">nsc2.utdallas.edu</text>
<rect x="630" y="332" width="12" height="12" fill="#d62728" fill-opacity="0.65"/>
<text x="648" y="342" font-size="11" fill="#333" font-family="Arial, Helvetica, sans-serif">nsc3.utdallas.edu</text>
<rect x="910" y="332" width="12" height="12" fill="#d62728" fill-opacity="0.50"/>
<text x="928" y="342" font-size="11" fill="#333" font-family="Arial, Helvetica, sans-serif">nsc4.utdallas.edu</text>
</svg>