<?xml version="1.0" encoding="UTF-8"?>
<svg xmlns="http://www.w3.org/2000/svg" width="1200" height="360" viewBox="0 0 1200 360" role="img" aria-label="CUDA Health (%)">
<rect width="100%" height="100%" fill="#ffffff"/>
<text x="600.0" y="22" text-anchor="middle" font-size="16" font-family="Arial, Helvetica, sans-serif" font-weight="bold">CUDA Health (%)</text>
<line x1="70" y1="35.00" x2="1180" y2="35.00" stroke="#e3e3e3" stroke-width="1"/>
<text x="62" y="39.00" text-anchor="end" font-size="11" fill="#444" font-family="Arial, Helvetica, sans-serif">100</text>
<line x1="70" y1="89.00" x2="1180" y2="89.00" stroke="#e3e3e3" stroke-width="1"/>
<text x="62" y="93.00" text-anchor="end" font-size="11" fill="#444" font-family="Arial, Helvetica, sans-serif">80</text>
<line x1="70" y1="143.00" x2="1180" y2="143.00" stroke="#e3e3e3" stroke-width="1"/>
<text x="62" y="147.00" text-anchor="end" font-size="11" fill="#444" font-family="Arial, Helvetica, sans-serif">60</text>
<line x1="70" y1="197.00" x2="1180" y2="197.00" stroke="#e3e3e3" stroke-width="1"/>
<text x="62" y="201.00" text-anchor="end" font-size="11" fill="#444" font-family="Arial, Helvetica, sans-serif">40</text>
<line x1="70" y1="251.00" x2="1180" y2="251.00" stroke="#e3e3e3" stroke-width="1"/>
<text x="62" y="255.00" text-anchor="end" font-size="11" fill="#444" font-family="Arial, Helvetica, sans-serif">20</text>
<line x1="70" y1="305.00" x2="1180" y2="305.00" stroke="#e3e3e3" stroke-width="1"/>
<text x="62" y="309.00" text-anchor="end" font-size="11" fill="#444" font-family="Arial, Helvetica, sans-serif">0</text>
<line x1="70" y1="35" x2="70" y2="305" stroke="#999"/>
<line x1="70" y1="305" x2="1180" y2="305" stroke="#999"/>
<text x="70.00" y="323" text-anchor="middle" font-size="10" fill="#444" font-family="Arial, Helvetica, sans-serif">2026-02-11 16:38</text>
<text x="347.50" y="323" text-anchor="middle" font-size="10" fill="#444" font-family="Arial, Helvetica, sans-serif">2026-02-12 03:33</text>
<text x="625.00" y="323" text-anchor="middle" font-size="10" fill="#444" font-family="Arial, Helvetica, sans-serif">2026-02-12 14:29</text>
<text x="902.50" y="323" text-anchor="middle" font-size="10" fill="#444" font-family="Arial, Helvetica, sans-serif">2026-02-13 01:25</text>
<text x="1180.00" y="323" text-anchor="middle" font-size="10" fill="#444" font-family="Arial, Helvetica, sans-serif">2026-02-13 12:21</text>
<polyline fill="none" stroke="#ff7f0e" stroke-opacity="0.95" stroke-width="2" points="72.28,35.00 74.56,35.00 76.83,35.00 79.12,35.00 81.42,35.00 83.67,35.00 85.96,35.00 88.43,35.00 90.69,35.00 92.96,35.00 95.22,35.00 97.53,35.00 99.80,35.00 102.06,35.00 106.16,35.00 109.69,35.00 111.99,35.00 114.32,35.00 116.60,35.00 118.87,35.00 121.10,35.00 123.39,35.00 125.67,35.00 127.96,35.00 130.25,35.00 132.57,35.00 134.85,35.00 137.14,35.00 139.53,35.00 141.83,35.00 144.10,35.00 146.43,35.00 148.71,35.00 150.99,35.00 153.34,35.00 155.60,35.00 157.87,35.00 160.19,35.00 162.44,35.00 164.72,35.00 166.97,35.00 169.24,35.00 171.53,35.00 173.79,35.00 176.12,35.00 178.42,35.00 180.67,35.00 182.94,35.00 185.24,35.00 187.52,35.00 190.12,35.00 192.40,35.00 194.67,35.00 196.92,35.00 199.19,35.00 201.44,35.00 203.71,35.00 205.99,35.00 208.26,35.00 210.58,35.00 212.85,35.00 215.10,35.00 217.40,35.00 219.70,35.00 221.97,35.00 224.26,35.00 226.51,35.00 228.76,35.00 231.03,35.00 233.29,35.00 235.56,35.00 237.83,35.00 240.09,35.00 242.37,35.00 244.65,35.00 246.90,35.00 249.20,35.00 251.45,35.00 253.72,35.00 256.05,35.00 258.32,35.00 260.59,35.00 262.88,35.00 265.15,35.00 267.43,35.00 269.70,35.00 271.95,35.00 274.21,35.00 276.50,35.00 278.79,35.00 281.07,35.00 283.36,35.00 285.61,35.00 287.89,35.00 290.16,35.00 292.43,35.00 294.68,35.00 296.96,35.00 299.22,35.00 301.51,35.00 303.79,35.00 306.07,35.00 308.34,35.00 310.65,35.00 312.94,35.00 315.21,35.00 317.48,35.00 319.75,35.00 322.01,35.00 324.31,35.00 326.59,35.00 328.86,35.00 331.13,35.00 333.42,35.00 335.70,35.00 337.99,35.00 340.31,35.00 342.57,35.00 344.85,35.00 347.13,35.00 349.40,35.00 351.67,35.00 353.96,35.00 356.43,35.00 358.69,35.00 361.00,35.00 363.27,35.00 365.53,35.00 367.78,35.00 370.02,35.00 372.29,35.00 374.57,35.00 376.84,35.00 379.10,35.00 381.37,35.00 383.64,35.00 385.90,35.00 388.22,35.00 390.48,35.00 392.76,35.00 395.02,35.00 397.30,35.00 399.56,35.00 401.85,35.00 404.13,35.00 406.41,35.00 408.69,35.00 410.96,35.00 413.21,35.00 415.48,35.00 417.75,35.00 420.02,35.00 422.31,35.00 424.60,35.00 426.88,35.00 429.15,35.00 431.45,35.00 433.73,35.00 435.99,35.00 438.27,35.00 440.55,35.00 442.86,35.00 445.17,35.00 447.43,35.00 449.72,35.00 451.98,35.00 454.23,35.00 456.50,35.00 458.78,35.00 461.04,35.00 463.29,35.00 465.56,35.00 467.86,35.00 470.14,35.00 472.42,35.00 474.69,35.00 477.02,35.00 479.29,35.00 481.56,35.00 483.82,35.00 486.08,35.00 488.56,35.00 490.88,35.00 493.14,35.00 495.40,35.00 497.65,35.00 499.93,35.00 502.20,35.00 504.49,35.00 506.77,35.00 509.04,35.00 511.30,35.00 513.58,35.00 515.91,35.00 518.18,35.00 520.43,35.00 522.70,35.00 525.00,35.00 527.32,35.00 529.65,35.00 531.91,35.00 534.19,35.00 536.46,35.00 538.73,35.00 541.01,35.00 543.29,35.00 545.60,35.00 547.86,35.00 550.12,35.00 552.42,35.00 554.69,35.00 556.96,35.00 559.24,35.00 561.55,35.00 563.83,35.00 566.09,35.00 568.34,35.00 570.60,35.00 572.89,35.00 575.16,35.00 577.42,35.00 579.70,35.00 581.94,35.00 584.22,35.00 586.51,35.00 588.79,35.00 591.07,35.00 593.38,35.00 595.65,35.00 597.95,35.00 600.21,35.00 602.50,35.00 604.77,35.00 607.04,35.00 609.32,35.00 611.65,35.00 613.93,35.00 616.21,35.00 618.49,35.00 620.75,35.00 623.04,35.00 625.29,35.00 627.56,35.00 629.85,35.00 632.13,35.00 634.41,35.00 636.69,35.00 638.98,35.00 641.25,35.00 643.53,35.00 645.82,35.00 648.12,35.00 650.38,35.00 652.65,35.00 654.94,35.00 657.24,35.00 659.53,35.00 661.80,35.00 664.07,35.00 666.60,35.00 668.89,35.00 671.17,35.00 673.44,35.00 675.74,35.00 678.03,35.00 680.31,35.00 682.59,35.00 684.85,35.00 687.20,35.00 689.50,35.00 691.76,35.00 694.03,35.00 696.31,35.00 698.59,35.00 700.86,35.00 703.23,35.00 705.50,35.00 707.77,35.00 710.08,35.00 712.54,35.00 714.81,35.00 717.68,35.00 721.53,35.00 723.85,35.00 726.18,35.00 728.45,35.00 730.68,35.00 732.94,35.00 735.26,35.00 737.54,35.00 739.84,35.00 742.20,35.00 744.56,35.00 746.97,35.00 749.26,35.00 751.54,35.00 753.81,35.00 756.12,35.00 758.43,35.00 760.72,35.00 762.99,35.00 765.26,35.00 767.63,35.00 769.92,35.00 772.17,35.00 774.46,35.00 776.77,35.00 779.13,35.00 781.42,35.00 783.70,35.00 786.04,35.00 788.22,35.00 790.49,35.00 792.81,35.00 795.07,35.00 797.38,35.00 799.73,35.00 802.02,35.00 804.29,35.00 806.59,35.00 808.89,35.00 811.17,35.00 813.44,35.00 815.70,35.00 817.99,35.00 820.28,35.00 822.53,35.00 825.25,35.00 827.93,35.00 830.62,35.00 833.27,35.00 835.87,35.00 838.49,35.00 841.19,35.00 843.84,35.00 846.12,35.00 848.37,35.00 850.64,35.00 852.91,35.00 855.19,35.00 857.45,35.00 859.71,35.00 861.98,35.00 864.25,35.00 866.53,35.00 868.80,35.00 871.06,35.00 873.33,35.00 875.59,35.00 877.86,35.00 880.12,35.00 882.40,35.00 884.65,35.00 886.94,35.00 889.23,35.00 891.48,35.00 893.73,35.00 896.00,35.00 898.27,35.00 900.55,35.00 902.82,35.00 905.09,35.00 907.37,35.00 909.64,35.00 911.91,35.00 914.18,35.00 916.45,35.00 918.71,35.00 920.98,35.00 923.22,35.00 925.46,35.00 927.73,35.00 930.00,35.00 932.25,35.00 934.52,35.00 936.78,35.00 939.05,35.00 941.30,35.00 943.55,35.00 945.79,35.00 948.14,35.00 950.58,35.00 952.87,35.00 955.15,35.00 957.41,35.00 959.67,35.00 961.92,35.00 964.18,35.00 966.44,35.00 969.13,35.00 971.80,35.00 974.44,35.00 977.11,35.00 979.79,35.00 982.44,35.00 985.15,35.00 987.91,35.00 990.39,35.00 992.83,35.00 995.11,35.00 997.41,35.00 999.69,35.00 1001.94,35.00 1004.20,35.00 1006.48,35.00 1008.75,35.00 1011.02,35.00 1013.27,35.00 1015.55,35.00 1017.83,35.00 1020.09,35.00 1022.40,35.00 1024.66,35.00 1026.93,35.00 1028.92,35.00 1031.26,35.00 1033.53,35.00 1035.86,35.00 1038.13,35.00 1040.40,35.00 1042.69,35.00 1044.98,35.00 1047.27,35.00 1049.56,35.00 1051.85,35.00 1054.17,35.00 1056.43,35.00 1058.68,35.00 1060.95,35.00 1063.20,35.00 1065.47,35.00 1067.72,35.00 1070.02,35.00 1072.29,35.00 1074.57,35.00 1076.84,35.00 1079.09,35.00 1081.39,35.00 1083.66,35.00 1085.94,35.00 1088.23,35.00 1090.50,35.00 1092.77,35.00 1095.07,35.00 1097.35,35.00 1099.69,35.00 1101.94,35.00 1104.21,35.00 1106.48,35.00 1108.73,35.00 1110.99,35.00 1113.29,35.00 1115.55,35.00 1117.81,35.00 1120.09,35.00 1122.35,35.00 1124.62,35.00 1126.90,35.00 1129.19,35.00 1131.47,35.00 1134.21,35.00 1136.54,35.00 1138.88,35.00 1141.17,35.00 1143.45,35.00 1145.75,35.00 1148.00,35.00 1150.27,35.00 1152.57,35.00 1154.86,35.00 1157.12,35.00 1159.41,35.00 1161.69,35.00 1163.96,35.00 1166.32,35.00 1168.63,35.00 1170.91,35.00 1173.19,35.00 1175.47,35.00 1177.74,35.00 1180.00,35.00"/>
<polyline fill="none" stroke="#ff7f0e" stroke-opacity="0.80" stroke-width="2" points="70.00,35.00 72.28,35.00 74.56,35.00 76.83,35.00 79.12,35.00 81.42,35.00 83.67,35.00 85.96,35.00 88.43,35.00 90.69,35.00 92.96,35.00 95.22,35.00 97.53,35.00 99.80,35.00 102.06,35.00 106.16,35.00 109.69,35.00 111.99,35.00 114.32,35.00 116.60,35.00 118.87,35.00 121.10,35.00 123.39,35.00 125.67,35.00 127.96,35.00 130.25,35.00 132.57,35.00 134.85,35.00 137.14,35.00 139.53,35.00 141.83,35.00 144.10,35.00 146.43,35.00 148.71,35.00 150.99,35.00 153.34,35.00 155.60,35.00 157.87,35.00 160.19,35.00 162.44,35.00 164.72,35.00 166.97,35.00 169.24,35.00 171.53,35.00 173.79,35.00 176.12,35.00 178.42,35.00 180.67,35.00 182.94,35.00 185.24,35.00 187.52,35.00 190.12,35.00 192.40,35.00 194.67,35.00 196.92,35.00 199.19,35.00 201.44,35.00 203.71,35.00 205.99,35.00 208.26,35.00 210.58,35.00 212.85,35.00 215.10,35.00 217.40,35.00 219.70,35.00 221.97,35.00 224.26,35.00 226.51,35.00 228.76,35.00 231.03,35.00 233.29,35.00 235.56,35.00 237.83,35.00 240.09,35.00 242.37,35.00 244.65,35.00 246.90,35.00 249.20,35.00 251.45,35.00 253.72,35.00 256.05,35.00 258.32,35.00 260.59,35.00 262.88,35.00 265.15,35.00 267.43,35.00 269.70,35.00 271.95,35.00 274.21,35.00 276.50,35.00 278.79,35.00 281.07,35.00 283.36,35.00 285.61,35.00 287.89,35.00 290.16,35.00 292.43,35.00 294.68,35.00 296.96,35.00 299.22,35.00 301.51,35.00 303.79,35.00 306.07,35.00 308.34,35.00 310.65,35.00 312.94,35.00 315.21,35.00 317.48,35.00 319.75,35.00 322.01,35.00 324.31,35.00 326.59,35.00 328.86,35.00 331.13,35.00 333.42,35.00 335.70,35.00 337.99,35.00 340.31,35.00 342.57,35.00 344.85,35.00 347.13,35.00 349.40,35.00 351.67,35.00 353.96,35.00 356.43,35.00 358.69,35.00 361.00,35.00 363.27,35.00 365.53,35.00 367.78,35.00 370.02,35.00 372.29,35.00 374.57,35.00 376.84,35.00 379.10,35.00 381.37,35.00 383.64,35.00 385.90,35.00 388.22,35.00 390.48,35.00 392.76,35.00 395.02,35.00 397.30,35.00 399.56,35.00 401.85,35.00 404.13,35.00 406.41,35.00 408.69,35.00 410.96,35.00 413.21,35.00 415.48,35.00 417.75,35.00 420.02,35.00 422.31,35.00 424.60,35.00 426.88,35.00 429.15,35.00 431.45,35.00 433.73,35.00 435.99,35.00 438.27,35.00 440.55,35.00 442.86,35.00 445.17,35.00 447.43,35.00 449.72,35.00 451.98,35.00 454.23,35.00 456.50,35.00 458.78,35.00 461.04,35.00 463.29,35.00 465.56,35.00 467.86,35.00 470.14,35.00 472.42,35.00 474.69,35.00 477.02,35.00 479.29,35.00 481.56,35.00 483.82,35.00 486.08,35.00 488.56,35.00 490.88,35.00 493.14,35.00 495.40,35.00 497.65,35.00 499.93,35.00 502.20,35.00 504.49,35.00 506.77,35.00 509.04,35.00 511.30,35.00 513.58,35.00 515.91,35.00 518.18,35.00 520.43,35.00 522.70,35.00 525.00,35.00 527.32,35.00 529.65,35.00 531.91,35.00 534.19,35.00 536.46,35.00 538.73,35.00 541.01,35.00 543.29,35.00 545.60,35.00 547.86,35.00 550.12,35.00 552.42,35.00 554.69,35.00 556.96,35.00 559.24,35.00 561.55,35.00 563.83,35.00 566.09,35.00 568.34,35.00 570.60,35.00 572.89,35.00 575.16,35.00 577.42,35.00 579.70,35.00 581.94,35.00 584.22,35.00 586.51,35.00 588.79,35.00 591.07,35.00 593.38,35.00 595.65,35.00 597.95,35.00 600.21,35.00 602.50,35.00 604.77,35.00 607.04,35.00 609.32,35.00 611.65,35.00 613.93,35.00 616.21,35.00 618.49,35.00 620.75,35.00 623.04,35.00 625.29,35.00 627.56,35.00 629.85,35.00 632.13,35.00 634.41,35.00 636.69,35.00 638.98,35.00 641.25,35.00 643.53,35.00 645.82,35.00 648.12,35.00 650.38,35.00 652.65,35.00 654.94,35.00 657.24,35.00 659.53,35.00 661.80,35.00 664.07,35.00 666.60,35.00 668.89,35.00 671.17,35.00 673.44,35.00 675.74,35.00 678.03,35.00 680.31,35.00 682.59,35.00 684.85,35.00 687.20,35.00 689.50,35.00 691.76,35.00 694.03,35.00 696.31,35.00 698.59,35.00 700.86,35.00 703.23,35.00 705.50,35.00 707.77,35.00 710.08,35.00 712.54,35.00 714.81,35.00 717.68,35.00 721.53,35.00 723.85,35.00 726.18,35.00 728.45,35.00 730.68,35.00 732.94,35.00 735.26,35.00 737.54,35.00 739.84,35.00 742.20,35.00 744.56,35.00 746.97,35.00 749.26,35.00 751.54,35.00 753.81,35.00 756.12,35.00 758.43,35.00 760.72,35.00 762.99,35.00 765.26,35.00 767.63,35.00 769.92,35.00 772.17,35.00 774.46,35.00 776.77,35.00 779.13,35.00 781.42,35.00 783.70,35.00 786.04,35.00 788.22,35.00 790.49,35.00 792.81,35.00 795.07,35.00 797.38,35.00 799.73,35.00 802.02,35.00 804.29,35.00 806.59,35.00 808.89,35.00 811.17,35.00 813.44,35.00 815.70,35.00 817.99,35.00 820.28,35.00 822.53,35.00 825.25,35.00 827.93,35.00 830.62,35.00 833.27,35.00 835.87,35.00 838.49,35.00 841.19,35.00 843.84,35.00 846.12,35.00 848.37,35.00 850.64,35.00 852.91,35.00 855.19,35.00 857.45,35.00 859.71,35.00 861.98,35.00 864.25,35.00 866.53,35.00 868.80,35.00 871.06,35.00 873.33,35.00 875.59,35.00 877.86,35.00 880.12,35.00 882.40,35.00 884.65,35.00 886.94,35.00 889.23,35.00 891.48,35.00 893.73,35.00 896.00,35.00 898.27,35.00 900.55,35.00 902.82,35.00 905.09,35.00 907.37,35.00 909.64,35.00 911.91,35.00 914.18,35.00 916.45,35.00 918.71,35.00 920.98,35.00 923.22,35.00 925.46,35.00 927.73,35.00 930.00,35.00 932.25,35.00 934.52,35.00 936.78,35.00 939.05,35.00 941.30,35.00 943.55,35.00 945.79,35.00 948.14,35.00 950.58,35.00 952.87,35.00 955.15,35.00 957.41,35.00 959.67,35.00 961.92,35.00 964.18,35.00 966.44,35.00 969.13,35.00 971.80,35.00 974.44,35.00 977.11,35.00 979.79,35.00 982.44,35.00 985.15,35.00 987.91,35.00 990.39,35.00 992.83,35.00 995.11,35.00 997.41,35.00 999.69,35.00 1001.94,35.00 1004.20,35.00 1006.48,35.00 1008.75,35.00 1011.02,35.00 1013.27,35.00 1015.55,35.00 1017.83,35.00 1020.09,35.00 1022.40,35.00 1024.66,35.00 1026.93,35.00 1028.92,35.00 1031.26,35.00 1033.53,35.00 1035.86,35.00 1038.13,35.00 1040.40,35.00 1042.69,35.00 1044.98,35.00 1047.27,35.00 1049.56,35.00 1051.85,35.00 1054.17,35.00 1056.43,35.00 1058.68,35.00 1060.95,35.00 1063.20,35.00 1065.47,35.00 1067.72,35.00 1070.02,35.00 1072.29,35.00 1074.57,35.00 1076.84,35.00 1079.09,35.00 1081.39,35.00 1083.66,35.00 1085.94,35.00 1088.23,35.00 1090.50,35.00 1092.77,35.00 1095.07,35.00 1097.35,35.00 1099.69,35.00 1101.94,35.00 1104.21,35.00 1106.48,35.00 1108.73,35.00 1110.99,35.00 1113.29,35.00 1115.55,35.00 1117.81,35.00 1120.09,35.00 1122.35,35.00 1124.62,35.00 1126.90,35.00 1129.19,35.00 1131.47,35.00 1134.21,35.00 1136.54,35.00 1138.88,35.00 1141.17,35.00 1143.45,35.00 1145.75,35.00 1148.00,35.00 1150.27,35.00 1152.57,35.00 1154.86,35.00 1157.12,35.00 1159.41,35.00 1161.69,35.00 1163.96,35.00 1166.32,35.00 1168.63,35.00 1170.91,35.00 1173.19,35.00 1175.47,35.00 1177.74,35.00 1180.00,35.00"/>
<polyline fill="none" stroke="#ff7f0e" stroke-opacity="0.65" stroke-width="2" points="70.00,305.00 72.28,305.00 74.56,305.00 76.83,305.00 79.12,305.00 81.42,305.00 83.67,305.00 85.96,305.00 88.43,305.00 90.69,305.00 92.96,305.00 95.22,305.00 97.53,305.00 99.80,305.00 102.06,305.00 106.16,305.00 109.69,305.00 111.99,305.00 114.32,305.00 116.60,305.00 118.87,305.00 121.10,305.00 123.39,305.00 125.67,305.00 127.96,305.00 130.25,305.00 132.57,305.00 134.85,305.00 137.14,305.00 139.53,305.00 141.83,305.00 144.10,305.00 146.43,305.00 148.71,305.00 150.99,305.00 153.34,305.00 155.60,305.00 157.87,305.00 160.19,305.00 162.44,305.00 164.72,305.00 166.97,305.00 169.24,305.00 171.53,305.00 173.79,305.00 176.12,305.00 178.42,305.00 180.67,305.00 182.94,305.00 185.24,305.00 187.52,305.00 190.12,305.00 192.40,305.00 194.67,305.00 196.92,305.00 199.19,305.00 201.44,305.00 203.71,305.00 205.99,305.00 208.26,305.00 210.58,305.00 212.85,305.00 215.10,305.00 217.40,305.00 219.70,305.00 221.97,305.00 224.26,305.00 226.51,305.00 228.76,305.00 231.03,305.00 233.29,305.00 235.56,305.00 237.83,305.00 240.09,305.00 242.37,305.00 244.65,305.00 246.90,305.00 249.20,305.00 251.45,305.00 253.72,305.00 256.05,305.00 258.32,305.00 260.59,305.00 262.88,305.00 265.15,305.00 267.43,305.00 269.70,305.00 271.95,305.00 274.21,305.00 276.50,305.00 278.79,305.00 281.07,305.00 283.36,305.00 285.61,305.00 287.89,305.00 290.16,305.00 292.43,305.00 294.68,305.00 296.96,305.00 299.22,305.00 301.51,305.00 303.79,305.00 306.07,305.00 308.34,305.00 310.65,305.00 312.94,305.00 315.21,305.00 317.48,305.00 319.75,305.00 322.01,305.00 324.31,305.00 326.59,305.00 328.86,305.00 331.13,305.00 333.42,305.00 335.70,305.00 337.99,305.00 340.31,305.00 342.57,305.00 344.85,305.00 347.13,305.00 349.40,305.00 351.67,305.00 353.96,305.00 356.43,305.00 358.69,305.00 361.00,305.00 363.27,305.00 365.53,305.00 367.78,305.00 370.02,305.00 372.29,305.00 374.57,305.00 376.84,305.00 379.10,305.00 381.37,305.00 383.64,305.00 385.90,305.00 388.22,305.00 390.48,305.00 392.76,305.00 395.02,305.00 397.30,305.00 399.56,305.00 401.85,305.00 404.13,305.00 406.41,305.00 408.69,305.00 410.96,305.00 413.21,305.00 415.48,305.00 417.75,305.00 420.02,305.00 422.31,305.00 424.60,305.00 426.88,305.00 429.15,305.00 431.45,305.00 433.73,305.00 435.99,305.00 438.27,305.00 440.55,305.00 442.86,305.00 445.17,305.00 447.43,305.00 449.72,305.00 451.98,305.00 454.23,305.00 456.50,305.00 458.78,305.00 461.04,305.00 463.29,305.00 465.56,305.00 467.86,305.00 470.14,305.00 472.42,305.00 474.69,305.00 477.02,305.00 479.29,305.00 481.56,305.00 483.82,305.00 486.08,305.00 488.56,305.00 490.88,305.00 493.14,305.00 495.40,305.00 497.65,305.00 499.93,305.00 502.20,305.00 504.49,305.00 506.77,305.00 509.04,305.00 511.30,305.00 513.58,305.00 515.91,305.00 518.18,305.00 520.43,305.00 522.70,305.00 525.00,305.00 527.32,305.00 529.65,305.00 531.91,305.00 534.19,305.00 536.46,305.00 538.73,305.00 541.01,305.00 543.29,305.00 545.60,305.00 547.86,305.00 550.12,305.00 552.42,305.00 554.69,305.00 556.96,305.00 559.24,305.00 561.55,305.00 563.83,305.00 566.09,305.00 568.34,305.00 570.60,305.00 572.89,305.00 575.16,305.00 577.42,305.00 579.70,305.00 581.94,305.00 584.22,305.00 586.51,305.00 588.79,305.00 591.07,305.00 593.38,305.00 595.65,305.00 597.95,305.00 600.21,305.00 602.50,305.00 604.77,305.00 607.04,305.00 609.32,305.00 611.65,305.00 613.93,305.00 616.21,305.00 618.49,305.00 620.75,305.00 623.04,305.00 625.29,305.00 627.56,305.00 629.85,305.00 632.13,305.00 634.41,305.00 636.69,305.00 638.98,305.00 641.25,305.00 643.53,305.00 645.82,305.00 648.12,305.00 650.38,305.00 652.65,305.00 654.94,305.00 657.24,305.00 659.53,305.00 661.80,305.00 664.07,305.00 666.60,305.00 668.89,305.00 671.17,305.00 673.44,305.00 675.74,305.00 678.03,305.00 680.31,305.00 682.59,305.00 684.85,305.00 687.20,305.00 689.50,305.00 691.76,305.00 694.03,305.00 696.31,305.00 698.59,305.00 700.86,305.00 703.23,305.00 705.50,305.00 707.77,305.00 710.08,305.00 712.54,305.00 714.81,305.00 717.68,305.00 721.53,305.00 723.85,305.00 726.18,305.00 728.45,305.00 730.68,305.00 732.94,305.00 735.26,305.00 737.54,305.00 739.84,305.00 742.20,305.00 744.56,305.00 746.97,305.00 749.26,305.00 751.54,305.00 753.81,305.00 756.12,305.00 758.43,305.00 760.72,305.00 762.99,305.00 765.26,305.00 767.63,305.00 769.92,305.00 772.17,305.00 774.46,305.00 776.77,305.00 779.13,305.00 781.42,305.00 783.70,305.00 786.04,305.00 788.22,305.00 790.49,305.00 792.81,305.00 795.07,305.00 797.38,305.00 799.73,305.00 802.02,305.00 804.29,305.00 806.59,305.00 808.89,305.00 811.17,305.00 813.44,305.00 815.70,305.00 817.99,305.00 820.28,305.00 822.53,305.00 825.25,305.00 827.93,305.00 830.62,305.00 833.27,305.00 835.87,305.00 838.49,305.00 841.19,305.00 843.84,305.00 846.12,305.00 848.37,305.00 850.64,305.00 852.91,305.00 855.19,305.00 857.45,305.00 859.71,305.00 861.98,305.00 864.25,305.00 866.53,305.00 868.80,305.00 871.06,305.00 873.33,305.00 875.59,305.00 877.86,305.00 880.12,305.00 882.40,305.00 884.65,305.00 886.94,305.00 889.23,305.00 891.48,305.00 893.73,305.00 896.00,305.00 898.27,305.00 900.55,305.00 902.82,305.00 905.09,305.00 907.37,305.00 909.64,305.00 911.91,305.00 914.18,305.00 916.45,305.00 918.71,305.00 920.98,305.00 923.22,305.00 925.46,305.00 927.73,305.00 930.00,305.00 932.25,305.00 934.52,305.00 936.78,305.00 939.05,305.00 941.30,305.00 943.55,305.00 945.79,305.00 948.14,305.00 950.58,305.00 952.87,305.00 955.15,305.00 957.41,305.00 959.67,305.00 961.92,305.00 964.18,305.00 966.44,305.00 969.13,305.00 971.80,305.00 974.44,305.00 977.11,305.00 979.79,305.00 982.44,305.00 985.15,305.00 987.91,305.00 990.39,305.00 992.83,305.00 995.11,305.00 997.41,305.00 999.69,305.00 1001.94,305.00 1004.20,305.00 1006.48,305.00 1008.75,305.00 1011.02,305.00 1013.27,305.00 1015.55,305.00 1017.83,305.00 1020.09,305.00 1022.40,305.00 1024.66,305.00 1026.93,305.00 1028.92,35.00 1031.26,35.00 1033.53,35.00 1035.86,35.00 1038.13,35.00 1040.40,35.00 1042.69,35.00 1044.98,35.00 1047.27,35.00 1049.56,35.00 1051.85,35.00 1054.17,35.00 1056.43,35.00 1058.68,35.00 1060.95,35.00 1063.20,35.00 1065.47,35.00 1067.72,35.00 1070.02,35.00 1072.29,35.00 1074.57,35.00 1076.84,35.00 1079.09,35.00 1081.39,35.00 1083.66,35.00 1085.94,35.00 1088.23,35.00 1090.50,35.00 1092.77,35.00 1095.07,35.00 1097.35,35.00 1099.69,35.00 1101.94,35.00 1104.21,35.00 1106.48,35.00 1108.73,35.00 1110.99,35.00 1113.29,35.00 1115.55,35.00 1117.81,35.00 1120.09,35.00 1122.35,35.00 1124.62,35.00 1126.90,35.00 1129.19,35.00 1131.47,35.00 1134.21,35.00 1136.54,35.00 1138.88,35.00 1141.17,35.00 1143.45,35.00 1145.75,35.00 1148.00,35.00 1150.27,35.00 1152.57,35.00 1154.86,35.00 1157.12,35.00 1159.41,35.00 1161.69,35.00 1163.96,35.00 1166.32,35.00 1168.63,35.00 1170.91,35.00 1173.19,35.00 1175.47,35.00 1177.74,35.00 1180.00,35.00"/>
<polyline fill="none" stroke="#ff7f0e" stroke-opacity="0.50" stroke-width="2" points="70.00,35.00 72.28,35.00 74.56,35.00 76.83,35.00 79.12,35.00 81.42,35.00 83.67,35.00 85.96,35.00 88.43,35.00 90.69,35.00 92.96,35.00 95.22,35.00 97.53,35.00 99.80,35.00 102.06,35.00 106.16,35.00 109.69,35.00 111.99,35.00 114.32,35.00 116.60,35.00 118.87,35.00 121.10,35.00 123.39,35.00 125.67,35.00 127.96,35.00 130.25,35.00 132.57,35.00 134.85,35.00 137.14,35.00 139.53,35.00 141.83,35.00 144.10,35.00 146.43,35.00 148.71,35.00 150.99,35.00 153.34,35.00 155.60,35.00 157.87,35.00 160.19,35.00 162.44,35.00 164.72,35.00 166.97,35.00 169.24,35.00 171.53,35.00 173.79,35.00 176.12,35.00 178.42,35.00 180.67,35.00 182.94,35.00 185.24,35.00 187.52,35.00 190.12,35.00 192.40,35.00 194.67,35.00 196.92,35.00 199.19,35.00 201.44,35.00 203.71,35.00 205.99,35.00 208.26,35.00 210.58,35.00 212.85,35.00 215.10,35.00 217.40,35.00 219.70,35.00 221.97,35.00 224.26,35.00 226.51,35.00 228.76,35.00 231.03,35.00 233.29,35.00 235.56,35.00 237.83,35.00 240.09,35.00 242.37,35.00 244.65,35.00 246.90,35.00 249.20,35.00 251.45,35.00 253.72,35.00 256.05,35.00 258.32,35.00 260.59,35.00 262.88,35.00 265.15,35.00 267.43,35.00 269.70,35.00 271.95,35.00 274.21,35.00 276.50,35.00 278.79,35.00 281.07,35.00 283.36,35.00 285.61,35.00 287.89,35.00 290.16,35.00 292.43,35.00 294.68,35.00 296.96,35.00 299.22,35.00 301.51,35.00 303.79,35.00 306.07,35.00 308.34,35.00 310.65,35.00 312.94,35.00 315.21,35.00 317.48,35.00 319.75,35.00 322.01,35.00 324.31,35.00 326.59,35.00 328.86,35.00 331.13,35.00 333.42,35.00 335.70,35.00 337.99,35.00 340.31,35.00 342.57,35.00 344.85,35.00 347.13,35.00 349.40,35.00 351.67,35.00 353.96,35.00 356.43,35.00 358.69,35.00 361.00,35.00 363.27,35.00 365.53,35.00 367.78,35.00 370.02,35.00 372.29,35.00 374.57,35.00 376.84,35.00 379.10,35.00 381.37,35.00 383.64,35.00 385.90,35.00 388.22,35.00 390.48,35.00 392.76,35.00 395.02,35.00 397.30,35.00 399.56,35.00 401.85,35.00 404.13,35.00 406.41,35.00 408.69,35.00 410.96,35.00 413.21,35.00 415.48,35.00 417.75,35.00 420.02,35.00 422.31,35.00 424.60,35.00 426.88,35.00 429.15,35.00 431.45,35.00 433.73,35.00 435.99,35.00 438.27,35.00 440.55,35.00 442.86,35.00 445.17,35.00 447.43,35.00 449.72,35.00 451.98,35.00 454.23,35.00 456.50,35.00 458.78,35.00 461.04,35.00 463.29,35.00 465.56,35.00 467.86,35.00 470.14,35.00 472.42,35.00 474.69,35.00 477.02,35.00 479.29,35.00 481.56,35.00 483.82,35.00 486.08,35.00 488.56,35.00 490.88,35.00 493.14,35.00 495.40,35.00 497.65,35.00 499.93,35.00 502.20,35.00 504.49,35.00 506.77,35.00 509.04,35.00 511.30,35.00 513.58,35.00 515.91,35.00 518.18,35.00 520.43,35.00 522.70,35.00 525.00,35.00 527.32,35.00 529.65,35.00 531.91,35.00 534.19,35.00 536.46,35.00 538.73,35.00 541.01,35.00 543.29,35.00 545.60,35.00 547.86,35.00 550.12,35.00 552.42,35.00 554.69,35.00 556.96,35.00 559.24,35.00 561.55,35.00 563.83,35.00 566.09,35.00 568.34,35.00 570.60,35.00 572.89,35.00 575.16,35.00 577.42,35.00 579.70,35.00 581.94,35.00 584.22,35.00 586.51,35.00 588.79,35.00 591.07,35.00 593.38,35.00 595.65,35.00 597.95,35.00 600.21,35.00 602.50,35.00 604.77,35.00 607.04,35.00 609.32,35.00 611.65,35.00 613.93,35.00 616.21,35.00 618.49,35.00 620.75,35.00 623.04,35.00 625.29,35.00 627.56,35.00 629.85,35.00 632.13,35.00 634.41,35.00 636.69,35.00 638.98,35.00 641.25,35.00 643.53,35.00 645.82,35.00 648.12,35.00 650.38,35.00 652.65,35.00 654.94,35.00 657.24,35.00 659.53,35.00 661.80,35.00 664.07,35.00 666.60,35.00 668.89,35.00 671.17,35.00 673.44,35.00 675.74,35.00 678.03,35.00 680.31,35.00 682.59,35.00 684.85,35.00 687.20,35.00 689.50,35.00 691.76,35.00 694.03,35.00 696.31,35.00 698.59,35.00 700.86,35.00 703.23,35.00 705.50,35.00 707.77,35.00 710.08,35.00 712.54,35.00 714.81,35.00 717.68,35.00 721.53,35.00 723.85,35.00 726.18,35.00 728.45,35.00 730.68,35.00 732.94,35.00 735.26,35.00 737.54,35.00 739.84,35.00 742.20,35.00 744.56,35.00 746.97,35.00 749.26,35.00 751.54,35.00 753.81,35.00 756.12,35.00 758.43,35.00 760.72,35.00 762.99,35.00 765.26,35.00 767.63,35.00 769.92,35.00 772.17,35.00 774.46,35.00 776.77,35.00 779.13,35.00 781.42,35.00 783.70,35.00 786.04,35.00 788.22,35.00 790.49,35.00 792.81,35.00 795.07,35.00 797.38,35.00 799.73,35.00 802.02,35.00 804.29,35.00 806.59,35.00 808.89,35.00 811.17,35.00 813.44,35.00 815.70,35.00 817.99,35.00 820.28,35.00 822.53,35.00 825.25,35.00 827.93,35.00 830.62,35.00 833.27,35.00 835.87,35.00 838.49,35.00 841.19,35.00 843.84,35.00 846.12,35.00 848.37,35.00 850.64,35.00 852.91,35.00 855.19,35.00 857.45,35.00 859.71,35.00 861.98,35.00 864.25,35.00 866.53,35.00 868.80,35.00 871.06,35.00 873.33,35.00 875.59,35.00 877.86,35.00 880.12,35.00 882.40,35.00 884.65,35.00 886.94,35.00 889.23,35.00 891.48,35.00 893.73,35.00 896.00,35.00 898.27,35.00 900.55,35.00 902.82,35.00 905.09,35.00 907.37,35.00 909.64,35.00 911.91,35.00 914.18,35.00 916.45,35.00 918.71,35.00 920.98,35.00 923.22,35.00 925.46,35.00 927.73,35.00 930.00,35.00 932.25,35.00 934.52,35.00 936.78,35.00 939.05,35.00 941.30,35.00 943.55,35.00 945.79,35.00 948.14,35.00 950.58,35.00 952.87,35.00 955.15,35.00 957.41,35.00 959.67,35.00 961.92,35.00 964.18,35.00 966.44,35.00 969.13,35.00 971.80,35.00 974.44,35.00 977.11,35.00 979.79,35.00 982.44,35.00 985.15,35.00 987.91,35.00 990.39,35.00 992.83,35.00 995.11,35.00 997.41,35.00 999.69,35.00 1001.94,35.00 1004.20,35.00 1006.48,35.00 1008.75,35.00 1011.02,35.00 1013.27,35.00 1015.55,35.00 1017.83,35.00 1020.09,35.00 1022.40,35.00 1024.66,35.00 1026.93,35.00 1028.92,35.00 1031.26,35.00 1033.53,35.00 1035.86,35.00 1038.13,35.00 1040.40,35.00 1042.69,35.00 1044.98,35.00 1047.27,35.00 1049.56,35.00 1051.85,35.00 1054.17,35.00 1056.43,35.00 1058.68,35.00 1060.95,35.00 1063.20,35.00 1065.47,35.00 1067.72,35.00 1070.02,35.00 1072.29,35.00 1074.57,35.00 1076.84,35.00 1079.09,35.00 1081.39,35.00 1083.66,35.00 1085.94,35.00 1088.23,35.00 1090.50,35.00 1092.77,35.00 1095.07,35.00 1097.35,35.00 1099.69,35.00 1101.94,35.00 1104.21,35.00 1106.48,35.00 1108.73,35.00 1110.99,35.00 1113.29,35.00 1115.55,35.00 1117.81,35.00 1120.09,35.00 1122.35,35.00 1124.62,35.00 1126.90,35.00 1129.19,35.00 1131.47,35.00 1134.21,35.00 1136.54,35.00 1138.88,35.00 1141.17,35.00 1143.45,35.00 1145.75,35.00 1148.00,35.00 1150.27,35.00 1152.57,35.00 1154.86,35.00 1157.12,35.00 1159.41,35.00 1161.69,35.00 1163.96,35.00 1166.32,35.00 1168.63,35.00 1170.91,35.00 1173.19,35.00 1175.47,35.00 1177.74,35.00 1180.00,35.00"/>
<rect x="70" y="332" width="12" height="12" fill="#ff7f0e" fill-opacity="0.95"/>
<text x="88" y="342" font-size="11" fill="#333" font-family="Arial, Helvetica, sans-serif">nsc1.utdallas.edu</text>
<rect x="350" y="332" width="12" height="12" fill="#ff7f0e" fill-opacity="0.80"/>
<text x="368" y="342" font-size="11" fill="#333" font-family="Arial, Helvetica, sans-serif">nsc2.utdallas.edu</text>
<rect x="630" y="332" width="12" height="12" fill="#ff7f0e" fill-opacity="0.65"/>
<text x="648" y="342" font-size="11" fill="#333" font-family="Arial, Helvetica, sans-serif">nsc3.utdallas.edu</text>
<rect x="910" y="332" width="12" height="12" fill="#ff7f0e" fill-opacity="0.50"/>
<text x="928" y="342" font-size="11" fill="#333" font-family="Arial, Helvetica, sans-serif">nsc4.utdallas.edu</text>
</svg>