<?xml version="1.0" encoding="UTF-8"?>
<svg xmlns="http://www.w3.org/2000/svg" width="1200" height="360" viewBox="0 0 1200 360" role="img" aria-label="CUDA Health (%)">
<rect width="100%" height="100%" fill="#ffffff"/>
<text x="600.0" y="22" text-anchor="middle" font-size="16" font-family="Arial, Helvetica, sans-serif" font-weight="bold">CUDA Health (%)</text>
<line x1="70" y1="35.00" x2="1180" y2="35.00" stroke="#e3e3e3" stroke-width="1"/>
<text x="62" y="39.00" text-anchor="end" font-size="11" fill="#444" font-family="Arial, Helvetica, sans-serif">100</text>
<line x1="70" y1="89.00" x2="1180" y2="89.00" stroke="#e3e3e3" stroke-width="1"/>
<text x="62" y="93.00" text-anchor="end" font-size="11" fill="#444" font-family="Arial, Helvetica, sans-serif">80</text>
<line x1="70" y1="143.00" x2="1180" y2="143.00" stroke="#e3e3e3" stroke-width="1"/>
<text x="62" y="147.00" text-anchor="end" font-size="11" fill="#444" font-family="Arial, Helvetica, sans-serif">60</text>
<line x1="70" y1="197.00" x2="1180" y2="197.00" stroke="#e3e3e3" stroke-width="1"/>
<text x="62" y="201.00" text-anchor="end" font-size="11" fill="#444" font-family="Arial, Helvetica, sans-serif">40</text>
<line x1="70" y1="251.00" x2="1180" y2="251.00" stroke="#e3e3e3" stroke-width="1"/>
<text x="62" y="255.00" text-anchor="end" font-size="11" fill="#444" font-family="Arial, Helvetica, sans-serif">20</text>
<line x1="70" y1="305.00" x2="1180" y2="305.00" stroke="#e3e3e3" stroke-width="1"/>
<text x="62" y="309.00" text-anchor="end" font-size="11" fill="#444" font-family="Arial, Helvetica, sans-serif">0</text>
<line x1="70" y1="35" x2="70" y2="305" stroke="#999"/>
<line x1="70" y1="305" x2="1180" y2="305" stroke="#999"/>
<text x="70.00" y="323" text-anchor="middle" font-size="10" fill="#444" font-family="Arial, Helvetica, sans-serif">2026-02-11 16:38</text>
<text x="347.50" y="323" text-anchor="middle" font-size="10" fill="#444" font-family="Arial, Helvetica, sans-serif">2026-02-12 08:45</text>
<text x="625.00" y="323" text-anchor="middle" font-size="10" fill="#444" font-family="Arial, Helvetica, sans-serif">2026-02-13 00:52</text>
<text x="902.50" y="323" text-anchor="middle" font-size="10" fill="#444" font-family="Arial, Helvetica, sans-serif">2026-02-13 16:59</text>
<text x="1180.00" y="323" text-anchor="middle" font-size="10" fill="#444" font-family="Arial, Helvetica, sans-serif">2026-02-14 09:06</text>
<polyline fill="none" stroke="#ff7f0e" stroke-opacity="0.95" stroke-width="2" points="71.54,35.00 73.09,35.00 74.63,35.00 76.18,35.00 77.74,35.00 79.27,35.00 80.82,35.00 82.50,35.00 84.03,35.00 85.57,35.00 87.10,35.00 88.67,35.00 90.21,35.00 91.74,35.00 94.52,35.00 96.92,35.00 98.48,35.00 100.06,35.00 101.60,35.00 103.14,35.00 104.65,35.00 106.21,35.00 107.75,35.00 109.30,35.00 110.86,35.00 112.43,35.00 113.98,35.00 115.53,35.00 117.15,35.00 118.71,35.00 120.25,35.00 121.83,35.00 123.38,35.00 124.92,35.00 126.52,35.00 128.05,35.00 129.59,35.00 131.16,35.00 132.69,35.00 134.23,35.00 135.76,35.00 137.30,35.00 138.85,35.00 140.38,35.00 141.96,35.00 143.52,35.00 145.05,35.00 146.59,35.00 148.15,35.00 149.69,35.00 151.46,35.00 153.00,35.00 154.54,35.00 156.07,35.00 157.61,35.00 159.14,35.00 160.67,35.00 162.22,35.00 163.76,35.00 165.34,35.00 166.88,35.00 168.40,35.00 169.96,35.00 171.52,35.00 173.06,35.00 174.61,35.00 176.13,35.00 177.66,35.00 179.20,35.00 180.73,35.00 182.27,35.00 183.82,35.00 185.35,35.00 186.89,35.00 188.44,35.00 189.97,35.00 191.52,35.00 193.05,35.00 194.59,35.00 196.17,35.00 197.71,35.00 199.25,35.00 200.80,35.00 202.34,35.00 203.89,35.00 205.43,35.00 206.95,35.00 208.48,35.00 210.04,35.00 211.59,35.00 213.13,35.00 214.69,35.00 216.21,35.00 217.76,35.00 219.30,35.00 220.84,35.00 222.37,35.00 223.91,35.00 225.44,35.00 227.00,35.00 228.54,35.00 230.09,35.00 231.63,35.00 233.19,35.00 234.75,35.00 236.29,35.00 237.82,35.00 239.36,35.00 240.90,35.00 242.46,35.00 244.00,35.00 245.54,35.00 247.08,35.00 248.63,35.00 250.18,35.00 251.74,35.00 253.31,35.00 254.84,35.00 256.39,35.00 257.93,35.00 259.47,35.00 261.01,35.00 262.56,35.00 264.24,35.00 265.77,35.00 267.34,35.00 268.88,35.00 270.41,35.00 271.94,35.00 273.45,35.00 274.99,35.00 276.54,35.00 278.08,35.00 279.61,35.00 281.15,35.00 282.69,35.00 284.22,35.00 285.80,35.00 287.33,35.00 288.87,35.00 290.41,35.00 291.95,35.00 293.49,35.00 295.04,35.00 296.59,35.00 298.13,35.00 299.68,35.00 301.22,35.00 302.75,35.00 304.28,35.00 305.82,35.00 307.36,35.00 308.91,35.00 310.47,35.00 312.02,35.00 313.56,35.00 315.11,35.00 316.66,35.00 318.19,35.00 319.74,35.00 321.28,35.00 322.85,35.00 324.42,35.00 325.95,35.00 327.50,35.00 329.03,35.00 330.56,35.00 332.10,35.00 333.65,35.00 335.18,35.00 336.71,35.00 338.24,35.00 339.80,35.00 341.35,35.00 342.90,35.00 344.44,35.00 346.02,35.00 347.55,35.00 349.09,35.00 350.63,35.00 352.16,35.00 353.84,35.00 355.42,35.00 356.95,35.00 358.48,35.00 360.00,35.00 361.55,35.00 363.09,35.00 364.64,35.00 366.19,35.00 367.73,35.00 369.26,35.00 370.81,35.00 372.39,35.00 373.93,35.00 375.46,35.00 377.00,35.00 378.56,35.00 380.13,35.00 381.71,35.00 383.24,35.00 384.78,35.00 386.33,35.00 387.86,35.00 389.41,35.00 390.96,35.00 392.52,35.00 394.06,35.00 395.59,35.00 397.15,35.00 398.69,35.00 400.23,35.00 401.77,35.00 403.34,35.00 404.88,35.00 406.42,35.00 407.94,35.00 409.48,35.00 411.03,35.00 412.57,35.00 414.10,35.00 415.64,35.00 417.17,35.00 418.71,35.00 420.26,35.00 421.81,35.00 423.36,35.00 424.92,35.00 426.47,35.00 428.02,35.00 429.56,35.00 431.11,35.00 432.65,35.00 434.19,35.00 435.74,35.00 437.31,35.00 438.86,35.00 440.41,35.00 441.95,35.00 443.49,35.00 445.04,35.00 446.56,35.00 448.10,35.00 449.66,35.00 451.20,35.00 452.75,35.00 454.29,35.00 455.85,35.00 457.39,35.00 458.93,35.00 460.49,35.00 462.04,35.00 463.58,35.00 465.12,35.00 466.67,35.00 468.23,35.00 469.78,35.00 471.32,35.00 472.86,35.00 474.57,35.00 476.13,35.00 477.67,35.00 479.22,35.00 480.78,35.00 482.33,35.00 483.87,35.00 485.42,35.00 486.95,35.00 488.54,35.00 490.11,35.00 491.64,35.00 493.18,35.00 494.72,35.00 496.27,35.00 497.81,35.00 499.42,35.00 500.96,35.00 502.50,35.00 504.06,35.00 505.73,35.00 507.27,35.00 509.21,35.00 511.83,35.00 513.40,35.00 514.98,35.00 516.52,35.00 518.03,35.00 519.57,35.00 521.14,35.00 522.69,35.00 524.24,35.00 525.85,35.00 527.45,35.00 529.08,35.00 530.63,35.00 532.18,35.00 533.72,35.00 535.28,35.00 536.85,35.00 538.41,35.00 539.94,35.00 541.48,35.00 543.09,35.00 544.64,35.00 546.17,35.00 547.72,35.00 549.29,35.00 550.89,35.00 552.44,35.00 553.99,35.00 555.58,35.00 557.05,35.00 558.59,35.00 560.16,35.00 561.70,35.00 563.27,35.00 564.86,35.00 566.41,35.00 567.95,35.00 569.51,35.00 571.07,35.00 572.62,35.00 574.16,35.00 575.69,35.00 577.24,35.00 578.79,35.00 580.32,35.00 582.16,35.00 583.98,35.00 585.81,35.00 587.60,35.00 589.37,35.00 591.14,35.00 592.97,35.00 594.77,35.00 596.32,35.00 597.84,35.00 599.38,35.00 600.92,35.00 602.47,35.00 604.00,35.00 605.54,35.00 607.07,35.00 608.62,35.00 610.15,35.00 611.69,35.00 613.23,35.00 614.77,35.00 616.30,35.00 617.84,35.00 619.38,35.00 620.92,35.00 622.45,35.00 624.00,35.00 625.55,35.00 627.08,35.00 628.61,35.00 630.14,35.00 631.68,35.00 633.23,35.00 634.77,35.00 636.31,35.00 637.85,35.00 639.40,35.00 640.93,35.00 642.47,35.00 644.01,35.00 645.54,35.00 647.08,35.00 648.60,35.00 650.12,35.00 651.66,35.00 653.20,35.00 654.73,35.00 656.26,35.00 657.80,35.00 659.34,35.00 660.86,35.00 662.39,35.00 663.91,35.00 665.50,35.00 667.16,35.00 668.71,35.00 670.25,35.00 671.79,35.00 673.32,35.00 674.85,35.00 676.38,35.00 677.91,35.00 679.74,35.00 681.54,35.00 683.34,35.00 685.15,35.00 686.96,35.00 688.76,35.00 690.60,35.00 692.47,35.00 694.16,35.00 695.81,35.00 697.36,35.00 698.91,35.00 700.46,35.00 701.98,35.00 703.52,35.00 705.06,35.00 706.60,35.00 708.14,35.00 709.67,35.00 711.21,35.00 712.76,35.00 714.29,35.00 715.86,35.00 717.39,35.00 718.93,35.00 720.28,35.00 721.87,35.00 723.41,35.00 724.99,35.00 726.53,35.00 728.06,35.00 729.62,35.00 731.17,35.00 732.72,35.00 734.28,35.00 735.83,35.00 737.40,35.00 738.93,35.00 740.46,35.00 742.00,35.00 743.53,35.00 745.07,35.00 746.60,35.00 748.16,35.00 749.69,35.00 751.24,35.00 752.78,35.00 754.31,35.00 755.86,35.00 757.40,35.00 758.95,35.00 760.50,35.00 762.04,35.00 763.58,35.00 765.14,35.00 766.68,35.00 768.28,35.00 769.80,35.00 771.34,35.00 772.88,35.00 774.40,35.00 775.94,35.00 777.50,35.00 779.03,35.00 780.56,35.00 782.11,35.00 783.64,35.00 785.18,35.00 786.73,35.00 788.28,35.00 789.82,35.00 791.68,35.00 793.26,35.00 794.85,35.00 796.40,35.00 797.95,35.00 799.51,35.00 801.04,35.00 802.57,35.00 804.13,35.00 805.68,35.00 807.22,35.00 808.77,35.00 810.32,35.00 811.86,35.00 813.46,35.00 815.02,35.00 816.57,35.00 818.11,35.00 819.66,35.00 821.20,35.00 822.73,35.00 824.28,35.00 825.89,35.00 827.44,35.00 828.99,35.00 830.53,35.00 832.07,35.00 833.62,35.00 835.16,35.00 836.70,35.00 838.25,35.00 839.80,35.00 841.35,35.00 842.90,35.00 844.43,35.00 845.98,35.00 847.52,35.00 849.09,35.00 850.64,35.00 852.17,35.00 853.71,35.00 855.25,35.00 856.82,35.00 858.37,35.00 860.22,35.00 861.81,35.00 863.35,35.00 864.90,35.00 866.43,35.00 867.99,35.00 869.53,35.00 871.08,35.00 872.65,35.00 874.19,35.00 875.73,35.00 877.26,35.00 878.81,35.00 880.35,35.00 881.89,35.00 883.44,35.00 884.98,35.00 886.51,35.00 888.05,35.00 889.59,35.00 891.16,35.00 892.69,35.00 894.23,35.00 895.79,35.00 897.35,35.00 898.89,35.00 900.43,35.00 901.98,35.00 903.56,35.00 905.09,35.00 906.64,35.00 908.20,35.00 909.74,35.00 911.28,35.00 912.83,35.00 914.38,35.00 915.96,35.00 917.50,35.00 919.04,35.00 920.57,35.00 922.11,35.00 923.65,35.00 925.20,35.00 926.74,35.00 928.29,35.00 929.86,35.00 931.41,35.00 932.92,35.00 934.49,35.00 936.02,35.00 937.57,35.00 939.10,35.00 940.65,35.00 942.19,35.00 943.75,35.00 945.30,35.00 946.84,35.00 948.40,35.00 949.95,35.00 951.50,35.00 953.05,35.00 954.61,35.00 956.34,35.00 958.04,35.00 959.69,35.00 961.25,35.00 962.86,35.00 964.41,35.00 965.96,35.00 967.49,35.00 968.93,35.00 970.54,35.00 972.09,35.00 973.65,35.00 975.17,35.00 976.72,35.00 978.26,35.00 979.82,35.00 981.35,35.00 982.90,35.00 984.44,35.00 985.99,35.00 987.54,35.00 989.10,35.00 990.65,35.00 992.21,35.00 993.76,35.00 995.31,35.00 996.86,35.00 998.44,35.00 999.99,35.00 1001.52,35.00 1003.06,35.00 1004.60,35.00 1006.14,35.00 1007.68,35.00 1009.23,35.00 1010.78,35.00 1012.35,35.00 1013.88,35.00 1015.42,35.00 1016.97,35.00 1018.52,35.00 1020.07,35.00 1021.63,35.00 1023.16,35.00 1024.71,35.00 1026.26,35.00 1027.81,35.00 1029.37,35.00 1030.93,35.00 1032.48,35.00 1034.02,35.00 1035.58,35.00 1037.12,35.00 1038.69,35.00 1040.28,35.00 1041.82,35.00 1043.38,35.00 1044.92,35.00 1046.47,35.00 1048.01,35.00 1049.56,35.00 1051.12,35.00 1052.67,35.00 1054.21,35.00 1055.76,35.00 1057.32,35.00 1058.86,35.00 1060.43,35.00 1061.98,35.00 1063.54,35.00 1065.09,35.00 1066.64,35.00 1068.21,35.00 1069.76,35.00 1071.30,35.00 1072.85,35.00 1074.40,35.00 1075.98,35.00 1077.54,35.00 1079.10,35.00 1080.65,35.00 1082.19,35.00 1083.73,35.00 1085.28,35.00 1086.83,35.00 1088.39,35.00 1089.93,35.00 1091.48,35.00 1093.02,35.00 1094.57,35.00 1096.13,35.00 1097.68,35.00 1099.22,35.00 1100.79,35.00 1102.34,35.00 1103.90,35.00 1105.44,35.00 1106.98,35.00 1108.52,35.00 1110.06,35.00 1111.61,35.00 1113.16,35.00 1114.72,35.00 1116.27,35.00 1117.83,35.00 1119.37,35.00 1120.94,35.00 1122.50,35.00 1124.04,35.00 1125.59,35.00 1127.16,35.00 1128.71,35.00 1130.26,35.00 1131.81,35.00 1133.38,35.00 1134.93,35.00 1136.48,35.00 1138.07,35.00 1139.63,35.00 1141.18,35.00 1142.73,35.00 1144.27,35.00 1145.83,35.00 1147.39,35.00 1148.96,35.00 1150.51,35.00 1152.06,35.00 1153.61,35.00 1155.14,35.00 1156.73,35.00 1158.27,35.00 1159.84,35.00 1161.38,35.00 1162.93,35.00 1164.47,35.00 1166.00,35.00 1167.54,35.00 1169.10,35.00 1170.65,35.00 1172.20,35.00 1173.74,35.00 1175.30,35.00 1176.85,35.00 1178.44,35.00 1180.00,35.00"/>
<polyline fill="none" stroke="#ff7f0e" stroke-opacity="0.80" stroke-width="2" points="70.00,35.00 71.54,35.00 73.09,35.00 74.63,35.00 76.18,35.00 77.74,35.00 79.27,35.00 80.82,35.00 82.50,35.00 84.03,35.00 85.57,35.00 87.10,35.00 88.67,35.00 90.21,35.00 91.74,35.00 94.52,35.00 96.92,35.00 98.48,35.00 100.06,35.00 101.60,35.00 103.14,35.00 104.65,35.00 106.21,35.00 107.75,35.00 109.30,35.00 110.86,35.00 112.43,35.00 113.98,35.00 115.53,35.00 117.15,35.00 118.71,35.00 120.25,35.00 121.83,35.00 123.38,35.00 124.92,35.00 126.52,35.00 128.05,35.00 129.59,35.00 131.16,35.00 132.69,35.00 134.23,35.00 135.76,35.00 137.30,35.00 138.85,35.00 140.38,35.00 141.96,35.00 143.52,35.00 145.05,35.00 146.59,35.00 148.15,35.00 149.69,35.00 151.46,35.00 153.00,35.00 154.54,35.00 156.07,35.00 157.61,35.00 159.14,35.00 160.67,35.00 162.22,35.00 163.76,35.00 165.34,35.00 166.88,35.00 168.40,35.00 169.96,35.00 171.52,35.00 173.06,35.00 174.61,35.00 176.13,35.00 177.66,35.00 179.20,35.00 180.73,35.00 182.27,35.00 183.82,35.00 185.35,35.00 186.89,35.00 188.44,35.00 189.97,35.00 191.52,35.00 193.05,35.00 194.59,35.00 196.17,35.00 197.71,35.00 199.25,35.00 200.80,35.00 202.34,35.00 203.89,35.00 205.43,35.00 206.95,35.00 208.48,35.00 210.04,35.00 211.59,35.00 213.13,35.00 214.69,35.00 216.21,35.00 217.76,35.00 219.30,35.00 220.84,35.00 222.37,35.00 223.91,35.00 225.44,35.00 227.00,35.00 228.54,35.00 230.09,35.00 231.63,35.00 233.19,35.00 234.75,35.00 236.29,35.00 237.82,35.00 239.36,35.00 240.90,35.00 242.46,35.00 244.00,35.00 245.54,35.00 247.08,35.00 248.63,35.00 250.18,35.00 251.74,35.00 253.31,35.00 254.84,35.00 256.39,35.00 257.93,35.00 259.47,35.00 261.01,35.00 262.56,35.00 264.24,35.00 265.77,35.00 267.34,35.00 268.88,35.00 270.41,35.00 271.94,35.00 273.45,35.00 274.99,35.00 276.54,35.00 278.08,35.00 279.61,35.00 281.15,35.00 282.69,35.00 284.22,35.00 285.80,35.00 287.33,35.00 288.87,35.00 290.41,35.00 291.95,35.00 293.49,35.00 295.04,35.00 296.59,35.00 298.13,35.00 299.68,35.00 301.22,35.00 302.75,35.00 304.28,35.00 305.82,35.00 307.36,35.00 308.91,35.00 310.47,35.00 312.02,35.00 313.56,35.00 315.11,35.00 316.66,35.00 318.19,35.00 319.74,35.00 321.28,35.00 322.85,35.00 324.42,35.00 325.95,35.00 327.50,35.00 329.03,35.00 330.56,35.00 332.10,35.00 333.65,35.00 335.18,35.00 336.71,35.00 338.24,35.00 339.80,35.00 341.35,35.00 342.90,35.00 344.44,35.00 346.02,35.00 347.55,35.00 349.09,35.00 350.63,35.00 352.16,35.00 353.84,35.00 355.42,35.00 356.95,35.00 358.48,35.00 360.00,35.00 361.55,35.00 363.09,35.00 364.64,35.00 366.19,35.00 367.73,35.00 369.26,35.00 370.81,35.00 372.39,35.00 373.93,35.00 375.46,35.00 377.00,35.00 378.56,35.00 380.13,35.00 381.71,35.00 383.24,35.00 384.78,35.00 386.33,35.00 387.86,35.00 389.41,35.00 390.96,35.00 392.52,35.00 394.06,35.00 395.59,35.00 397.15,35.00 398.69,35.00 400.23,35.00 401.77,35.00 403.34,35.00 404.88,35.00 406.42,35.00 407.94,35.00 409.48,35.00 411.03,35.00 412.57,35.00 414.10,35.00 415.64,35.00 417.17,35.00 418.71,35.00 420.26,35.00 421.81,35.00 423.36,35.00 424.92,35.00 426.47,35.00 428.02,35.00 429.56,35.00 431.11,35.00 432.65,35.00 434.19,35.00 435.74,35.00 437.31,35.00 438.86,35.00 440.41,35.00 441.95,35.00 443.49,35.00 445.04,35.00 446.56,35.00 448.10,35.00 449.66,35.00 451.20,35.00 452.75,35.00 454.29,35.00 455.85,35.00 457.39,35.00 458.93,35.00 460.49,35.00 462.04,35.00 463.58,35.00 465.12,35.00 466.67,35.00 468.23,35.00 469.78,35.00 471.32,35.00 472.86,35.00 474.57,35.00 476.13,35.00 477.67,35.00 479.22,35.00 480.78,35.00 482.33,35.00 483.87,35.00 485.42,35.00 486.95,35.00 488.54,35.00 490.11,35.00 491.64,35.00 493.18,35.00 494.72,35.00 496.27,35.00 497.81,35.00 499.42,35.00 500.96,35.00 502.50,35.00 504.06,35.00 505.73,35.00 507.27,35.00 509.21,35.00 511.83,35.00 513.40,35.00 514.98,35.00 516.52,35.00 518.03,35.00 519.57,35.00 521.14,35.00 522.69,35.00 524.24,35.00 525.85,35.00 527.45,35.00 529.08,35.00 530.63,35.00 532.18,35.00 533.72,35.00 535.28,35.00 536.85,35.00 538.41,35.00 539.94,35.00 541.48,35.00 543.09,35.00 544.64,35.00 546.17,35.00 547.72,35.00 549.29,35.00 550.89,35.00 552.44,35.00 553.99,35.00 555.58,35.00 557.05,35.00 558.59,35.00 560.16,35.00 561.70,35.00 563.27,35.00 564.86,35.00 566.41,35.00 567.95,35.00 569.51,35.00 571.07,35.00 572.62,35.00 574.16,35.00 575.69,35.00 577.24,35.00 578.79,35.00 580.32,35.00 582.16,35.00 583.98,35.00 585.81,35.00 587.60,35.00 589.37,35.00 591.14,35.00 592.97,35.00 594.77,35.00 596.32,35.00 597.84,35.00 599.38,35.00 600.92,35.00 602.47,35.00 604.00,35.00 605.54,35.00 607.07,35.00 608.62,35.00 610.15,35.00 611.69,35.00 613.23,35.00 614.77,35.00 616.30,35.00 617.84,35.00 619.38,35.00 620.92,35.00 622.45,35.00 624.00,35.00 625.55,35.00 627.08,35.00 628.61,35.00 630.14,35.00 631.68,35.00 633.23,35.00 634.77,35.00 636.31,35.00 637.85,35.00 639.40,35.00 640.93,35.00 642.47,35.00 644.01,35.00 645.54,35.00 647.08,35.00 648.60,35.00 650.12,35.00 651.66,35.00 653.20,35.00 654.73,35.00 656.26,35.00 657.80,35.00 659.34,35.00 660.86,35.00 662.39,35.00 663.91,35.00 665.50,35.00 667.16,35.00 668.71,35.00 670.25,35.00 671.79,35.00 673.32,35.00 674.85,35.00 676.38,35.00 677.91,35.00 679.74,35.00 681.54,35.00 683.34,35.00 685.15,35.00 686.96,35.00 688.76,35.00 690.60,35.00 692.47,35.00 694.16,35.00 695.81,35.00 697.36,35.00 698.91,35.00 700.46,35.00 701.98,35.00 703.52,35.00 705.06,35.00 706.60,35.00 708.14,35.00 709.67,35.00 711.21,35.00 712.76,35.00 714.29,35.00 715.86,35.00 717.39,35.00 718.93,35.00 720.28,35.00 721.87,35.00 723.41,35.00 724.99,35.00 726.53,35.00 728.06,35.00 729.62,35.00 731.17,35.00 732.72,35.00 734.28,35.00 735.83,35.00 737.40,35.00 738.93,35.00 740.46,35.00 742.00,35.00 743.53,35.00 745.07,35.00 746.60,35.00 748.16,35.00 749.69,35.00 751.24,35.00 752.78,35.00 754.31,35.00 755.86,35.00 757.40,35.00 758.95,35.00 760.50,35.00 762.04,35.00 763.58,35.00 765.14,35.00 766.68,35.00 768.28,35.00 769.80,35.00 771.34,35.00 772.88,35.00 774.40,35.00 775.94,35.00 777.50,35.00 779.03,35.00 780.56,35.00 782.11,35.00 783.64,35.00 785.18,35.00 786.73,35.00 788.28,35.00 789.82,35.00 791.68,35.00 793.26,35.00 794.85,35.00 796.40,35.00 797.95,35.00 799.51,35.00 801.04,35.00 802.57,35.00 804.13,35.00 805.68,35.00 807.22,35.00 808.77,35.00 810.32,35.00 811.86,35.00 813.46,35.00 815.02,35.00 816.57,35.00 818.11,35.00 819.66,35.00 821.20,35.00 822.73,35.00 824.28,35.00 825.89,35.00 827.44,35.00 828.99,35.00 830.53,35.00 832.07,35.00 833.62,35.00 835.16,35.00 836.70,35.00 838.25,35.00 839.80,35.00 841.35,35.00 842.90,35.00 844.43,35.00 845.98,35.00 847.52,35.00 849.09,35.00 850.64,35.00 852.17,35.00 853.71,35.00 855.25,35.00 856.82,35.00 858.37,35.00 860.22,35.00 861.81,35.00 863.35,35.00 864.90,35.00 866.43,35.00 867.99,35.00 869.53,35.00 871.08,35.00 872.65,35.00 874.19,35.00 875.73,35.00 877.26,35.00 878.81,35.00 880.35,35.00 881.89,35.00 883.44,35.00 884.98,35.00 886.51,35.00 888.05,35.00 889.59,35.00 891.16,35.00 892.69,35.00 894.23,35.00 895.79,35.00 897.35,35.00 898.89,35.00 900.43,35.00 901.98,35.00 903.56,35.00 905.09,35.00 906.64,35.00 908.20,35.00 909.74,35.00 911.28,35.00 912.83,35.00 914.38,35.00 915.96,35.00 917.50,35.00 919.04,35.00 920.57,35.00 922.11,35.00 923.65,35.00 925.20,35.00 926.74,35.00 928.29,35.00 929.86,35.00 931.41,35.00 932.92,35.00 934.49,35.00 936.02,35.00 937.57,35.00 939.10,35.00 940.65,35.00 942.19,35.00 943.75,35.00 945.30,35.00 946.84,35.00 948.40,35.00 949.95,35.00 951.50,35.00 953.05,35.00 954.61,35.00 956.34,35.00 958.04,35.00 959.69,35.00 961.25,35.00 962.86,35.00 964.41,35.00 965.96,35.00 967.49,35.00 968.93,35.00 970.54,35.00 972.09,35.00 973.65,35.00 975.17,35.00 976.72,35.00 978.26,35.00 979.82,35.00 981.35,35.00 982.90,35.00 984.44,35.00 985.99,35.00 987.54,35.00 989.10,35.00 990.65,35.00 992.21,35.00 993.76,35.00 995.31,35.00 996.86,35.00 998.44,35.00 999.99,35.00 1001.52,35.00 1003.06,35.00 1004.60,35.00 1006.14,35.00 1007.68,35.00 1009.23,35.00 1010.78,35.00 1012.35,35.00 1013.88,35.00 1015.42,35.00 1016.97,35.00 1018.52,35.00 1020.07,35.00 1021.63,35.00 1023.16,35.00 1024.71,35.00 1026.26,35.00 1027.81,35.00 1029.37,35.00 1030.93,35.00 1032.48,35.00 1034.02,35.00 1035.58,35.00 1037.12,35.00 1038.69,35.00 1040.28,35.00 1041.82,35.00 1043.38,35.00 1044.92,35.00 1046.47,35.00 1048.01,35.00 1049.56,35.00 1051.12,35.00 1052.67,35.00 1054.21,35.00 1055.76,35.00 1057.32,35.00 1058.86,35.00 1060.43,35.00 1061.98,35.00 1063.54,35.00 1065.09,35.00 1066.64,35.00 1068.21,35.00 1069.76,35.00 1071.30,35.00 1072.85,35.00 1074.40,35.00 1075.98,35.00 1077.54,35.00 1079.10,35.00 1080.65,35.00 1082.19,35.00 1083.73,35.00 1085.28,35.00 1086.83,35.00 1088.39,35.00 1089.93,35.00 1091.48,35.00 1093.02,35.00 1094.57,35.00 1096.13,35.00 1097.68,35.00 1099.22,35.00 1100.79,35.00 1102.34,35.00 1103.90,35.00 1105.44,35.00 1106.98,35.00 1108.52,35.00 1110.06,35.00 1111.61,35.00 1113.16,35.00 1114.72,35.00 1116.27,35.00 1117.83,35.00 1119.37,35.00 1120.94,35.00 1122.50,35.00 1124.04,35.00 1125.59,35.00 1127.16,35.00 1128.71,35.00 1130.26,35.00 1131.81,35.00 1133.38,35.00 1134.93,35.00 1136.48,35.00 1138.07,35.00 1139.63,35.00 1141.18,35.00 1142.73,35.00 1144.27,35.00 1145.83,35.00 1147.39,35.00 1148.96,35.00 1150.51,35.00 1152.06,35.00 1153.61,35.00 1155.14,35.00 1156.73,35.00 1158.27,35.00 1159.84,35.00 1161.38,35.00 1162.93,35.00 1164.47,35.00 1166.00,35.00 1167.54,35.00 1169.10,35.00 1170.65,35.00 1172.20,35.00 1173.74,35.00 1175.30,35.00 1176.85,35.00 1178.44,35.00 1180.00,35.00"/>
<polyline fill="none" stroke="#ff7f0e" stroke-opacity="0.65" stroke-width="2" points="70.00,305.00 71.54,305.00 73.09,305.00 74.63,305.00 76.18,305.00 77.74,305.00 79.27,305.00 80.82,305.00 82.50,305.00 84.03,305.00 85.57,305.00 87.10,305.00 88.67,305.00 90.21,305.00 91.74,305.00 94.52,305.00 96.92,305.00 98.48,305.00 100.06,305.00 101.60,305.00 103.14,305.00 104.65,305.00 106.21,305.00 107.75,305.00 109.30,305.00 110.86,305.00 112.43,305.00 113.98,305.00 115.53,305.00 117.15,305.00 118.71,305.00 120.25,305.00 121.83,305.00 123.38,305.00 124.92,305.00 126.52,305.00 128.05,305.00 129.59,305.00 131.16,305.00 132.69,305.00 134.23,305.00 135.76,305.00 137.30,305.00 138.85,305.00 140.38,305.00 141.96,305.00 143.52,305.00 145.05,305.00 146.59,305.00 148.15,305.00 149.69,305.00 151.46,305.00 153.00,305.00 154.54,305.00 156.07,305.00 157.61,305.00 159.14,305.00 160.67,305.00 162.22,305.00 163.76,305.00 165.34,305.00 166.88,305.00 168.40,305.00 169.96,305.00 171.52,305.00 173.06,305.00 174.61,305.00 176.13,305.00 177.66,305.00 179.20,305.00 180.73,305.00 182.27,305.00 183.82,305.00 185.35,305.00 186.89,305.00 188.44,305.00 189.97,305.00 191.52,305.00 193.05,305.00 194.59,305.00 196.17,305.00 197.71,305.00 199.25,305.00 200.80,305.00 202.34,305.00 203.89,305.00 205.43,305.00 206.95,305.00 208.48,305.00 210.04,305.00 211.59,305.00 213.13,305.00 214.69,305.00 216.21,305.00 217.76,305.00 219.30,305.00 220.84,305.00 222.37,305.00 223.91,305.00 225.44,305.00 227.00,305.00 228.54,305.00 230.09,305.00 231.63,305.00 233.19,305.00 234.75,305.00 236.29,305.00 237.82,305.00 239.36,305.00 240.90,305.00 242.46,305.00 244.00,305.00 245.54,305.00 247.08,305.00 248.63,305.00 250.18,305.00 251.74,305.00 253.31,305.00 254.84,305.00 256.39,305.00 257.93,305.00 259.47,305.00 261.01,305.00 262.56,305.00 264.24,305.00 265.77,305.00 267.34,305.00 268.88,305.00 270.41,305.00 271.94,305.00 273.45,305.00 274.99,305.00 276.54,305.00 278.08,305.00 279.61,305.00 281.15,305.00 282.69,305.00 284.22,305.00 285.80,305.00 287.33,305.00 288.87,305.00 290.41,305.00 291.95,305.00 293.49,305.00 295.04,305.00 296.59,305.00 298.13,305.00 299.68,305.00 301.22,305.00 302.75,305.00 304.28,305.00 305.82,305.00 307.36,305.00 308.91,305.00 310.47,305.00 312.02,305.00 313.56,305.00 315.11,305.00 316.66,305.00 318.19,305.00 319.74,305.00 321.28,305.00 322.85,305.00 324.42,305.00 325.95,305.00 327.50,305.00 329.03,305.00 330.56,305.00 332.10,305.00 333.65,305.00 335.18,305.00 336.71,305.00 338.24,305.00 339.80,305.00 341.35,305.00 342.90,305.00 344.44,305.00 346.02,305.00 347.55,305.00 349.09,305.00 350.63,305.00 352.16,305.00 353.84,305.00 355.42,305.00 356.95,305.00 358.48,305.00 360.00,305.00 361.55,305.00 363.09,305.00 364.64,305.00 366.19,305.00 367.73,305.00 369.26,305.00 370.81,305.00 372.39,305.00 373.93,305.00 375.46,305.00 377.00,305.00 378.56,305.00 380.13,305.00 381.71,305.00 383.24,305.00 384.78,305.00 386.33,305.00 387.86,305.00 389.41,305.00 390.96,305.00 392.52,305.00 394.06,305.00 395.59,305.00 397.15,305.00 398.69,305.00 400.23,305.00 401.77,305.00 403.34,305.00 404.88,305.00 406.42,305.00 407.94,305.00 409.48,305.00 411.03,305.00 412.57,305.00 414.10,305.00 415.64,305.00 417.17,305.00 418.71,305.00 420.26,305.00 421.81,305.00 423.36,305.00 424.92,305.00 426.47,305.00 428.02,305.00 429.56,305.00 431.11,305.00 432.65,305.00 434.19,305.00 435.74,305.00 437.31,305.00 438.86,305.00 440.41,305.00 441.95,305.00 443.49,305.00 445.04,305.00 446.56,305.00 448.10,305.00 449.66,305.00 451.20,305.00 452.75,305.00 454.29,305.00 455.85,305.00 457.39,305.00 458.93,305.00 460.49,305.00 462.04,305.00 463.58,305.00 465.12,305.00 466.67,305.00 468.23,305.00 469.78,305.00 471.32,305.00 472.86,305.00 474.57,305.00 476.13,305.00 477.67,305.00 479.22,305.00 480.78,305.00 482.33,305.00 483.87,305.00 485.42,305.00 486.95,305.00 488.54,305.00 490.11,305.00 491.64,305.00 493.18,305.00 494.72,305.00 496.27,305.00 497.81,305.00 499.42,305.00 500.96,305.00 502.50,305.00 504.06,305.00 505.73,305.00 507.27,305.00 509.21,305.00 511.83,305.00 513.40,305.00 514.98,305.00 516.52,305.00 518.03,305.00 519.57,305.00 521.14,305.00 522.69,305.00 524.24,305.00 525.85,305.00 527.45,305.00 529.08,305.00 530.63,305.00 532.18,305.00 533.72,305.00 535.28,305.00 536.85,305.00 538.41,305.00 539.94,305.00 541.48,305.00 543.09,305.00 544.64,305.00 546.17,305.00 547.72,305.00 549.29,305.00 550.89,305.00 552.44,305.00 553.99,305.00 555.58,305.00 557.05,305.00 558.59,305.00 560.16,305.00 561.70,305.00 563.27,305.00 564.86,305.00 566.41,305.00 567.95,305.00 569.51,305.00 571.07,305.00 572.62,305.00 574.16,305.00 575.69,305.00 577.24,305.00 578.79,305.00 580.32,305.00 582.16,305.00 583.98,305.00 585.81,305.00 587.60,305.00 589.37,305.00 591.14,305.00 592.97,305.00 594.77,305.00 596.32,305.00 597.84,305.00 599.38,305.00 600.92,305.00 602.47,305.00 604.00,305.00 605.54,305.00 607.07,305.00 608.62,305.00 610.15,305.00 611.69,305.00 613.23,305.00 614.77,305.00 616.30,305.00 617.84,305.00 619.38,305.00 620.92,305.00 622.45,305.00 624.00,305.00 625.55,305.00 627.08,305.00 628.61,305.00 630.14,305.00 631.68,305.00 633.23,305.00 634.77,305.00 636.31,305.00 637.85,305.00 639.40,305.00 640.93,305.00 642.47,305.00 644.01,305.00 645.54,305.00 647.08,305.00 648.60,305.00 650.12,305.00 651.66,305.00 653.20,305.00 654.73,305.00 656.26,305.00 657.80,305.00 659.34,305.00 660.86,305.00 662.39,305.00 663.91,305.00 665.50,305.00 667.16,305.00 668.71,305.00 670.25,305.00 671.79,305.00 673.32,305.00 674.85,305.00 676.38,305.00 677.91,305.00 679.74,305.00 681.54,305.00 683.34,305.00 685.15,305.00 686.96,305.00 688.76,305.00 690.60,305.00 692.47,305.00 694.16,305.00 695.81,305.00 697.36,305.00 698.91,305.00 700.46,305.00 701.98,305.00 703.52,305.00 705.06,305.00 706.60,305.00 708.14,305.00 709.67,305.00 711.21,305.00 712.76,305.00 714.29,305.00 715.86,305.00 717.39,305.00 718.93,305.00 720.28,35.00 721.87,35.00 723.41,35.00 724.99,35.00 726.53,35.00 728.06,35.00 729.62,35.00 731.17,35.00 732.72,35.00 734.28,35.00 735.83,35.00 737.40,35.00 738.93,35.00 740.46,35.00 742.00,35.00 743.53,35.00 745.07,35.00 746.60,35.00 748.16,35.00 749.69,35.00 751.24,35.00 752.78,35.00 754.31,35.00 755.86,35.00 757.40,35.00 758.95,35.00 760.50,35.00 762.04,35.00 763.58,35.00 765.14,35.00 766.68,35.00 768.28,35.00 769.80,35.00 771.34,35.00 772.88,35.00 774.40,35.00 775.94,35.00 777.50,35.00 779.03,35.00 780.56,35.00 782.11,35.00 783.64,35.00 785.18,35.00 786.73,35.00 788.28,35.00 789.82,35.00 791.68,35.00 793.26,35.00 794.85,35.00 796.40,35.00 797.95,35.00 799.51,35.00 801.04,35.00 802.57,35.00 804.13,35.00 805.68,35.00 807.22,35.00 808.77,35.00 810.32,35.00 811.86,35.00 813.46,35.00 815.02,35.00 816.57,35.00 818.11,35.00 819.66,35.00 821.20,35.00 822.73,35.00 824.28,35.00 825.89,35.00 827.44,35.00 828.99,35.00 830.53,35.00 832.07,35.00 833.62,35.00 835.16,35.00 836.70,35.00 838.25,35.00 839.80,35.00 841.35,35.00 842.90,35.00 844.43,35.00 845.98,35.00 847.52,35.00 849.09,35.00 850.64,35.00 852.17,35.00 853.71,35.00 855.25,35.00 856.82,35.00 858.37,35.00 860.22,35.00 861.81,35.00 863.35,35.00 864.90,35.00 866.43,35.00 867.99,35.00 869.53,35.00 871.08,35.00 872.65,35.00 874.19,35.00 875.73,35.00 877.26,35.00 878.81,35.00 880.35,35.00 881.89,35.00 883.44,35.00 884.98,35.00 886.51,35.00 888.05,35.00 889.59,35.00 891.16,35.00 892.69,35.00 894.23,35.00 895.79,35.00 897.35,35.00 898.89,35.00 900.43,35.00 901.98,35.00 903.56,35.00 905.09,35.00 906.64,35.00 908.20,35.00 909.74,35.00 911.28,35.00 912.83,35.00 914.38,35.00 915.96,35.00 917.50,35.00 919.04,35.00 920.57,35.00 922.11,35.00 923.65,35.00 925.20,35.00 926.74,35.00 928.29,35.00 929.86,35.00 931.41,35.00 932.92,35.00 934.49,35.00 936.02,35.00 937.57,35.00 939.10,35.00 940.65,35.00 942.19,35.00 943.75,35.00 945.30,35.00 946.84,35.00 948.40,35.00 949.95,35.00 951.50,35.00 953.05,35.00 954.61,35.00 956.34,35.00 958.04,35.00 959.69,35.00 961.25,35.00 962.86,35.00 964.41,35.00 965.96,35.00 967.49,35.00 968.93,35.00 970.54,35.00 972.09,35.00 973.65,35.00 975.17,35.00 976.72,35.00 978.26,35.00 979.82,35.00 981.35,35.00 982.90,35.00 984.44,35.00 985.99,35.00 987.54,35.00 989.10,35.00 990.65,35.00 992.21,35.00 993.76,35.00 995.31,35.00 996.86,35.00 998.44,35.00 999.99,35.00 1001.52,35.00 1003.06,35.00 1004.60,35.00 1006.14,35.00 1007.68,35.00 1009.23,35.00 1010.78,35.00 1012.35,35.00 1013.88,35.00 1015.42,35.00 1016.97,35.00 1018.52,35.00 1020.07,35.00 1021.63,35.00 1023.16,35.00 1024.71,35.00 1026.26,35.00 1027.81,35.00 1029.37,35.00 1030.93,35.00 1032.48,35.00 1034.02,35.00 1035.58,35.00 1037.12,35.00 1038.69,35.00 1040.28,35.00 1041.82,35.00 1043.38,35.00 1044.92,35.00 1046.47,35.00 1048.01,35.00 1049.56,35.00 1051.12,35.00 1052.67,35.00 1054.21,35.00 1055.76,35.00 1057.32,35.00 1058.86,35.00 1060.43,35.00 1061.98,35.00 1063.54,35.00 1065.09,35.00 1066.64,35.00 1068.21,35.00 1069.76,35.00 1071.30,35.00 1072.85,35.00 1074.40,35.00 1075.98,35.00 1077.54,35.00 1079.10,35.00 1080.65,35.00 1082.19,35.00 1083.73,35.00 1085.28,35.00 1086.83,35.00 1088.39,35.00 1089.93,35.00 1091.48,35.00 1093.02,35.00 1094.57,35.00 1096.13,35.00 1097.68,35.00 1099.22,35.00 1100.79,35.00 1102.34,35.00 1103.90,35.00 1105.44,35.00 1106.98,35.00 1108.52,35.00 1110.06,35.00 1111.61,35.00 1113.16,35.00 1114.72,35.00 1116.27,35.00 1117.83,35.00 1119.37,35.00 1120.94,35.00 1122.50,35.00 1124.04,35.00 1125.59,35.00 1127.16,35.00 1128.71,35.00 1130.26,35.00 1131.81,35.00 1133.38,35.00 1134.93,35.00 1136.48,35.00 1138.07,35.00 1139.63,35.00 1141.18,35.00 1142.73,35.00 1144.27,35.00 1145.83,35.00 1147.39,35.00 1148.96,35.00 1150.51,35.00 1152.06,35.00 1153.61,35.00 1155.14,35.00 1156.73,35.00 1158.27,35.00 1159.84,35.00 1161.38,35.00 1162.93,35.00 1164.47,35.00 1166.00,35.00 1167.54,35.00 1169.10,35.00 1170.65,35.00 1172.20,35.00 1173.74,35.00 1175.30,35.00 1176.85,35.00 1178.44,35.00 1180.00,35.00"/>
<polyline fill="none" stroke="#ff7f0e" stroke-opacity="0.50" stroke-width="2" points="70.00,35.00 71.54,35.00 73.09,35.00 74.63,35.00 76.18,35.00 77.74,35.00 79.27,35.00 80.82,35.00 82.50,35.00 84.03,35.00 85.57,35.00 87.10,35.00 88.67,35.00 90.21,35.00 91.74,35.00 94.52,35.00 96.92,35.00 98.48,35.00 100.06,35.00 101.60,35.00 103.14,35.00 104.65,35.00 106.21,35.00 107.75,35.00 109.30,35.00 110.86,35.00 112.43,35.00 113.98,35.00 115.53,35.00 117.15,35.00 118.71,35.00 120.25,35.00 121.83,35.00 123.38,35.00 124.92,35.00 126.52,35.00 128.05,35.00 129.59,35.00 131.16,35.00 132.69,35.00 134.23,35.00 135.76,35.00 137.30,35.00 138.85,35.00 140.38,35.00 141.96,35.00 143.52,35.00 145.05,35.00 146.59,35.00 148.15,35.00 149.69,35.00 151.46,35.00 153.00,35.00 154.54,35.00 156.07,35.00 157.61,35.00 159.14,35.00 160.67,35.00 162.22,35.00 163.76,35.00 165.34,35.00 166.88,35.00 168.40,35.00 169.96,35.00 171.52,35.00 173.06,35.00 174.61,35.00 176.13,35.00 177.66,35.00 179.20,35.00 180.73,35.00 182.27,35.00 183.82,35.00 185.35,35.00 186.89,35.00 188.44,35.00 189.97,35.00 191.52,35.00 193.05,35.00 194.59,35.00 196.17,35.00 197.71,35.00 199.25,35.00 200.80,35.00 202.34,35.00 203.89,35.00 205.43,35.00 206.95,35.00 208.48,35.00 210.04,35.00 211.59,35.00 213.13,35.00 214.69,35.00 216.21,35.00 217.76,35.00 219.30,35.00 220.84,35.00 222.37,35.00 223.91,35.00 225.44,35.00 227.00,35.00 228.54,35.00 230.09,35.00 231.63,35.00 233.19,35.00 234.75,35.00 236.29,35.00 237.82,35.00 239.36,35.00 240.90,35.00 242.46,35.00 244.00,35.00 245.54,35.00 247.08,35.00 248.63,35.00 250.18,35.00 251.74,35.00 253.31,35.00 254.84,35.00 256.39,35.00 257.93,35.00 259.47,35.00 261.01,35.00 262.56,35.00 264.24,35.00 265.77,35.00 267.34,35.00 268.88,35.00 270.41,35.00 271.94,35.00 273.45,35.00 274.99,35.00 276.54,35.00 278.08,35.00 279.61,35.00 281.15,35.00 282.69,35.00 284.22,35.00 285.80,35.00 287.33,35.00 288.87,35.00 290.41,35.00 291.95,35.00 293.49,35.00 295.04,35.00 296.59,35.00 298.13,35.00 299.68,35.00 301.22,35.00 302.75,35.00 304.28,35.00 305.82,35.00 307.36,35.00 308.91,35.00 310.47,35.00 312.02,35.00 313.56,35.00 315.11,35.00 316.66,35.00 318.19,35.00 319.74,35.00 321.28,35.00 322.85,35.00 324.42,35.00 325.95,35.00 327.50,35.00 329.03,35.00 330.56,35.00 332.10,35.00 333.65,35.00 335.18,35.00 336.71,35.00 338.24,35.00 339.80,35.00 341.35,35.00 342.90,35.00 344.44,35.00 346.02,35.00 347.55,35.00 349.09,35.00 350.63,35.00 352.16,35.00 353.84,35.00 355.42,35.00 356.95,35.00 358.48,35.00 360.00,35.00 361.55,35.00 363.09,35.00 364.64,35.00 366.19,35.00 367.73,35.00 369.26,35.00 370.81,35.00 372.39,35.00 373.93,35.00 375.46,35.00 377.00,35.00 378.56,35.00 380.13,35.00 381.71,35.00 383.24,35.00 384.78,35.00 386.33,35.00 387.86,35.00 389.41,35.00 390.96,35.00 392.52,35.00 394.06,35.00 395.59,35.00 397.15,35.00 398.69,35.00 400.23,35.00 401.77,35.00 403.34,35.00 404.88,35.00 406.42,35.00 407.94,35.00 409.48,35.00 411.03,35.00 412.57,35.00 414.10,35.00 415.64,35.00 417.17,35.00 418.71,35.00 420.26,35.00 421.81,35.00 423.36,35.00 424.92,35.00 426.47,35.00 428.02,35.00 429.56,35.00 431.11,35.00 432.65,35.00 434.19,35.00 435.74,35.00 437.31,35.00 438.86,35.00 440.41,35.00 441.95,35.00 443.49,35.00 445.04,35.00 446.56,35.00 448.10,35.00 449.66,35.00 451.20,35.00 452.75,35.00 454.29,35.00 455.85,35.00 457.39,35.00 458.93,35.00 460.49,35.00 462.04,35.00 463.58,35.00 465.12,35.00 466.67,35.00 468.23,35.00 469.78,35.00 471.32,35.00 472.86,35.00 474.57,35.00 476.13,35.00 477.67,35.00 479.22,35.00 480.78,35.00 482.33,35.00 483.87,35.00 485.42,35.00 486.95,35.00 488.54,35.00 490.11,35.00 491.64,35.00 493.18,35.00 494.72,35.00 496.27,35.00 497.81,35.00 499.42,35.00 500.96,35.00 502.50,35.00 504.06,35.00 505.73,35.00 507.27,35.00 509.21,35.00 511.83,35.00 513.40,35.00 514.98,35.00 516.52,35.00 518.03,35.00 519.57,35.00 521.14,35.00 522.69,35.00 524.24,35.00 525.85,35.00 527.45,35.00 529.08,35.00 530.63,35.00 532.18,35.00 533.72,35.00 535.28,35.00 536.85,35.00 538.41,35.00 539.94,35.00 541.48,35.00 543.09,35.00 544.64,35.00 546.17,35.00 547.72,35.00 549.29,35.00 550.89,35.00 552.44,35.00 553.99,35.00 555.58,35.00 557.05,35.00 558.59,35.00 560.16,35.00 561.70,35.00 563.27,35.00 564.86,35.00 566.41,35.00 567.95,35.00 569.51,35.00 571.07,35.00 572.62,35.00 574.16,35.00 575.69,35.00 577.24,35.00 578.79,35.00 580.32,35.00 582.16,35.00 583.98,35.00 585.81,35.00 587.60,35.00 589.37,35.00 591.14,35.00 592.97,35.00 594.77,35.00 596.32,35.00 597.84,35.00 599.38,35.00 600.92,35.00 602.47,35.00 604.00,35.00 605.54,35.00 607.07,35.00 608.62,35.00 610.15,35.00 611.69,35.00 613.23,35.00 614.77,35.00 616.30,35.00 617.84,35.00 619.38,35.00 620.92,35.00 622.45,35.00 624.00,35.00 625.55,35.00 627.08,35.00 628.61,35.00 630.14,35.00 631.68,35.00 633.23,35.00 634.77,35.00 636.31,35.00 637.85,35.00 639.40,35.00 640.93,35.00 642.47,35.00 644.01,35.00 645.54,35.00 647.08,35.00 648.60,35.00 650.12,35.00 651.66,35.00 653.20,35.00 654.73,35.00 656.26,35.00 657.80,35.00 659.34,35.00 660.86,35.00 662.39,35.00 663.91,35.00 665.50,35.00 667.16,35.00 668.71,35.00 670.25,35.00 671.79,35.00 673.32,35.00 674.85,35.00 676.38,35.00 677.91,35.00 679.74,35.00 681.54,35.00 683.34,35.00 685.15,35.00 686.96,35.00 688.76,35.00 690.60,35.00 692.47,35.00 694.16,35.00 695.81,35.00 697.36,35.00 698.91,35.00 700.46,35.00 701.98,35.00 703.52,35.00 705.06,35.00 706.60,35.00 708.14,35.00 709.67,35.00 711.21,35.00 712.76,35.00 714.29,35.00 715.86,35.00 717.39,35.00 718.93,35.00 720.28,35.00 721.87,35.00 723.41,35.00 724.99,35.00 726.53,35.00 728.06,35.00 729.62,35.00 731.17,35.00 732.72,35.00 734.28,35.00 735.83,35.00 737.40,35.00 738.93,35.00 740.46,35.00 742.00,35.00 743.53,35.00 745.07,35.00 746.60,35.00 748.16,35.00 749.69,35.00 751.24,35.00 752.78,35.00 754.31,35.00 755.86,35.00 757.40,35.00 758.95,35.00 760.50,35.00 762.04,35.00 763.58,35.00 765.14,35.00 766.68,35.00 768.28,35.00 769.80,35.00 771.34,35.00 772.88,35.00 774.40,35.00 775.94,35.00 777.50,35.00 779.03,35.00 780.56,35.00 782.11,35.00 783.64,35.00 785.18,35.00 786.73,35.00 788.28,35.00 789.82,35.00 791.68,35.00 793.26,35.00 794.85,35.00 796.40,35.00 797.95,35.00 799.51,35.00 801.04,35.00 802.57,35.00 804.13,35.00 805.68,35.00 807.22,35.00 808.77,35.00 810.32,35.00 811.86,35.00 813.46,35.00 815.02,35.00 816.57,35.00 818.11,35.00 819.66,35.00 821.20,35.00 822.73,35.00 824.28,35.00 825.89,35.00 827.44,35.00 828.99,35.00 830.53,35.00 832.07,35.00 833.62,35.00 835.16,35.00 836.70,35.00 838.25,35.00 839.80,35.00 841.35,35.00 842.90,35.00 844.43,35.00 845.98,35.00 847.52,35.00 849.09,35.00 850.64,35.00 852.17,35.00 853.71,35.00 855.25,35.00 856.82,35.00 858.37,35.00 860.22,35.00 861.81,35.00 863.35,35.00 864.90,35.00 866.43,35.00 867.99,35.00 869.53,35.00 871.08,35.00 872.65,35.00 874.19,35.00 875.73,35.00 877.26,35.00 878.81,35.00 880.35,35.00 881.89,35.00 883.44,35.00 884.98,35.00 886.51,35.00 888.05,35.00 889.59,35.00 891.16,35.00 892.69,35.00 894.23,35.00 895.79,35.00 897.35,35.00 898.89,35.00 900.43,35.00 901.98,35.00 903.56,35.00 905.09,35.00 906.64,35.00 908.20,35.00 909.74,35.00 911.28,35.00 912.83,35.00 914.38,35.00 915.96,35.00 917.50,35.00 919.04,35.00 920.57,35.00 922.11,35.00 923.65,35.00 925.20,35.00 926.74,35.00 928.29,35.00 929.86,35.00 931.41,35.00 932.92,35.00 934.49,35.00 936.02,35.00 937.57,35.00 939.10,35.00 940.65,35.00 942.19,35.00 943.75,35.00 945.30,35.00 946.84,35.00 948.40,35.00 949.95,35.00 951.50,35.00 953.05,35.00 954.61,35.00 956.34,35.00 958.04,35.00 959.69,35.00 961.25,35.00 962.86,35.00 964.41,35.00 965.96,35.00 967.49,35.00 968.93,35.00 970.54,35.00 972.09,35.00 973.65,35.00 975.17,35.00 976.72,35.00 978.26,35.00 979.82,35.00 981.35,35.00 982.90,35.00 984.44,35.00 985.99,35.00 987.54,35.00 989.10,35.00 990.65,35.00 992.21,35.00 993.76,35.00 995.31,35.00 996.86,35.00 998.44,35.00 999.99,35.00 1001.52,35.00 1003.06,35.00 1004.60,35.00 1006.14,35.00 1007.68,35.00 1009.23,35.00 1010.78,35.00 1012.35,35.00 1013.88,35.00 1015.42,35.00 1016.97,35.00 1018.52,35.00 1020.07,35.00 1021.63,35.00 1023.16,35.00 1024.71,35.00 1026.26,35.00 1027.81,35.00 1029.37,35.00 1030.93,35.00 1032.48,35.00 1034.02,35.00 1035.58,35.00 1037.12,35.00 1038.69,35.00 1040.28,35.00 1041.82,35.00 1043.38,35.00 1044.92,35.00 1046.47,35.00 1048.01,35.00 1049.56,35.00 1051.12,35.00 1052.67,35.00 1054.21,35.00 1055.76,35.00 1057.32,35.00 1058.86,35.00 1060.43,35.00 1061.98,35.00 1063.54,35.00 1065.09,35.00 1066.64,35.00 1068.21,35.00 1069.76,35.00 1071.30,35.00 1072.85,35.00 1074.40,35.00 1075.98,35.00 1077.54,35.00 1079.10,35.00 1080.65,35.00 1082.19,35.00 1083.73,35.00 1085.28,35.00 1086.83,35.00 1088.39,35.00 1089.93,35.00 1091.48,35.00 1093.02,35.00 1094.57,35.00 1096.13,35.00 1097.68,35.00 1099.22,35.00 1100.79,35.00 1102.34,35.00 1103.90,35.00 1105.44,35.00 1106.98,35.00 1108.52,35.00 1110.06,35.00 1111.61,35.00 1113.16,35.00 1114.72,35.00 1116.27,35.00 1117.83,35.00 1119.37,35.00 1120.94,35.00 1122.50,35.00 1124.04,35.00 1125.59,35.00 1127.16,35.00 1128.71,35.00 1130.26,35.00 1131.81,35.00 1133.38,35.00 1134.93,35.00 1136.48,35.00 1138.07,35.00 1139.63,35.00 1141.18,35.00 1142.73,35.00 1144.27,35.00 1145.83,35.00 1147.39,35.00 1148.96,35.00 1150.51,35.00 1152.06,35.00 1153.61,35.00 1155.14,35.00 1156.73,35.00 1158.27,35.00 1159.84,35.00 1161.38,35.00 1162.93,35.00 1164.47,35.00 1166.00,35.00 1167.54,35.00 1169.10,35.00 1170.65,35.00 1172.20,35.00 1173.74,35.00 1175.30,35.00 1176.85,35.00 1178.44,35.00 1180.00,35.00"/>
<rect x="70" y="332" width="12" height="12" fill="#ff7f0e" fill-opacity="0.95"/>
<text x="88" y="342" font-size="11" fill="#333" font-family="Arial, Helvetica, sans-serif">nsc1.utdallas.edu</text>
<rect x="350" y="332" width="12" height="12" fill="#ff7f0e" fill-opacity="0.80"/>
<text x="368" y="342" font-size="11" fill="#333" font-family="Arial, Helvetica, sans-serif">nsc2.utdallas.edu</text>
<rect x="630" y="332" width="12" height="12" fill="#ff7f0e" fill-opacity="0.65"/>
<text x="648" y="342" font-size="11" fill="#333" font-family="Arial, Helvetica, sans-serif">nsc3.utdallas.edu</text>
<rect x="910" y="332" width="12" height="12" fill="#ff7f0e" fill-opacity="0.50"/>
<text x="928" y="342" font-size="11" fill="#333" font-family="Arial, Helvetica, sans-serif">nsc4.utdallas.edu</text>
</svg>