<?xml version="1.0" encoding="UTF-8"?>
<svg xmlns="http://www.w3.org/2000/svg" width="1200" height="360" viewBox="0 0 1200 360" role="img" aria-label="CUDA Health (%)">
<rect width="100%" height="100%" fill="#ffffff"/>
<text x="600.0" y="22" text-anchor="middle" font-size="16" font-family="Arial, Helvetica, sans-serif" font-weight="bold">CUDA Health (%)</text>
<line x1="70" y1="35.00" x2="1180" y2="35.00" stroke="#e3e3e3" stroke-width="1"/>
<text x="62" y="39.00" text-anchor="end" font-size="11" fill="#444" font-family="Arial, Helvetica, sans-serif">100</text>
<line x1="70" y1="89.00" x2="1180" y2="89.00" stroke="#e3e3e3" stroke-width="1"/>
<text x="62" y="93.00" text-anchor="end" font-size="11" fill="#444" font-family="Arial, Helvetica, sans-serif">80</text>
<line x1="70" y1="143.00" x2="1180" y2="143.00" stroke="#e3e3e3" stroke-width="1"/>
<text x="62" y="147.00" text-anchor="end" font-size="11" fill="#444" font-family="Arial, Helvetica, sans-serif">60</text>
<line x1="70" y1="197.00" x2="1180" y2="197.00" stroke="#e3e3e3" stroke-width="1"/>
<text x="62" y="201.00" text-anchor="end" font-size="11" fill="#444" font-family="Arial, Helvetica, sans-serif">40</text>
<line x1="70" y1="251.00" x2="1180" y2="251.00" stroke="#e3e3e3" stroke-width="1"/>
<text x="62" y="255.00" text-anchor="end" font-size="11" fill="#444" font-family="Arial, Helvetica, sans-serif">20</text>
<line x1="70" y1="305.00" x2="1180" y2="305.00" stroke="#e3e3e3" stroke-width="1"/>
<text x="62" y="309.00" text-anchor="end" font-size="11" fill="#444" font-family="Arial, Helvetica, sans-serif">0</text>
<line x1="70" y1="35" x2="70" y2="305" stroke="#999"/>
<line x1="70" y1="305" x2="1180" y2="305" stroke="#999"/>
<text x="70.00" y="323" text-anchor="middle" font-size="10" fill="#444" font-family="Arial, Helvetica, sans-serif">2026-02-11 16:38</text>
<text x="347.50" y="323" text-anchor="middle" font-size="10" fill="#444" font-family="Arial, Helvetica, sans-serif">2026-02-13 00:58</text>
<text x="625.00" y="323" text-anchor="middle" font-size="10" fill="#444" font-family="Arial, Helvetica, sans-serif">2026-02-14 09:19</text>
<text x="902.50" y="323" text-anchor="middle" font-size="10" fill="#444" font-family="Arial, Helvetica, sans-serif">2026-02-15 17:40</text>
<text x="1180.00" y="323" text-anchor="middle" font-size="10" fill="#444" font-family="Arial, Helvetica, sans-serif">2026-02-17 02:01</text>
<polyline fill="none" stroke="#ff7f0e" stroke-opacity="0.95" stroke-width="2" points="70.77,35.00 71.54,35.00 72.31,35.00 73.08,35.00 73.86,35.00 74.62,35.00 75.39,35.00 76.23,35.00 76.99,35.00 77.76,35.00 78.52,35.00 79.30,35.00 80.07,35.00 80.83,35.00 82.22,35.00 83.41,35.00 84.19,35.00 84.98,35.00 85.75,35.00 86.51,35.00 87.27,35.00 88.04,35.00 88.81,35.00 89.58,35.00 90.36,35.00 91.14,35.00 91.91,35.00 92.69,35.00 93.49,35.00 94.27,35.00 95.04,35.00 95.83,35.00 96.60,35.00 97.37,35.00 98.16,35.00 98.92,35.00 99.69,35.00 100.48,35.00 101.24,35.00 102.01,35.00 102.77,35.00 103.53,35.00 104.31,35.00 105.07,35.00 105.86,35.00 106.64,35.00 107.40,35.00 108.16,35.00 108.94,35.00 109.71,35.00 110.59,35.00 111.36,35.00 112.13,35.00 112.89,35.00 113.65,35.00 114.42,35.00 115.18,35.00 115.95,35.00 116.72,35.00 117.50,35.00 118.27,35.00 119.03,35.00 119.81,35.00 120.59,35.00 121.35,35.00 122.13,35.00 122.89,35.00 123.65,35.00 124.41,35.00 125.18,35.00 125.94,35.00 126.71,35.00 127.48,35.00 128.25,35.00 129.02,35.00 129.78,35.00 130.55,35.00 131.31,35.00 132.08,35.00 132.87,35.00 133.64,35.00 134.40,35.00 135.18,35.00 135.94,35.00 136.71,35.00 137.48,35.00 138.24,35.00 139.01,35.00 139.78,35.00 140.55,35.00 141.32,35.00 142.10,35.00 142.86,35.00 143.63,35.00 144.39,35.00 145.16,35.00 145.92,35.00 146.69,35.00 147.46,35.00 148.23,35.00 149.00,35.00 149.77,35.00 150.54,35.00 151.32,35.00 152.09,35.00 152.86,35.00 153.63,35.00 154.39,35.00 155.16,35.00 155.93,35.00 156.70,35.00 157.47,35.00 158.24,35.00 159.01,35.00 159.78,35.00 160.56,35.00 161.34,35.00 162.10,35.00 162.87,35.00 163.64,35.00 164.41,35.00 165.18,35.00 165.95,35.00 166.79,35.00 167.55,35.00 168.33,35.00 169.10,35.00 169.86,35.00 170.62,35.00 171.38,35.00 172.15,35.00 172.92,35.00 173.68,35.00 174.45,35.00 175.22,35.00 175.98,35.00 176.75,35.00 177.53,35.00 178.30,35.00 179.06,35.00 179.83,35.00 180.60,35.00 181.36,35.00 182.13,35.00 182.91,35.00 183.68,35.00 184.45,35.00 185.21,35.00 185.98,35.00 186.74,35.00 187.51,35.00 188.28,35.00 189.05,35.00 189.82,35.00 190.59,35.00 191.36,35.00 192.14,35.00 192.91,35.00 193.67,35.00 194.44,35.00 195.21,35.00 195.99,35.00 196.77,35.00 197.54,35.00 198.31,35.00 199.07,35.00 199.84,35.00 200.60,35.00 201.37,35.00 202.14,35.00 202.90,35.00 203.66,35.00 204.44,35.00 205.21,35.00 205.98,35.00 206.75,35.00 207.54,35.00 208.30,35.00 209.07,35.00 209.84,35.00 210.60,35.00 211.43,35.00 212.22,35.00 212.98,35.00 213.75,35.00 214.51,35.00 215.28,35.00 216.05,35.00 216.82,35.00 217.59,35.00 218.36,35.00 219.12,35.00 219.89,35.00 220.68,35.00 221.44,35.00 222.21,35.00 222.97,35.00 223.75,35.00 224.53,35.00 225.32,35.00 226.08,35.00 226.85,35.00 227.62,35.00 228.39,35.00 229.16,35.00 229.93,35.00 230.71,35.00 231.47,35.00 232.24,35.00 233.01,35.00 233.78,35.00 234.55,35.00 235.32,35.00 236.10,35.00 236.87,35.00 237.63,35.00 238.39,35.00 239.16,35.00 239.93,35.00 240.70,35.00 241.46,35.00 242.23,35.00 242.99,35.00 243.76,35.00 244.53,35.00 245.30,35.00 246.08,35.00 246.85,35.00 247.62,35.00 248.40,35.00 249.16,35.00 249.94,35.00 250.70,35.00 251.47,35.00 252.24,35.00 253.03,35.00 253.80,35.00 254.57,35.00 255.34,35.00 256.11,35.00 256.88,35.00 257.64,35.00 258.41,35.00 259.18,35.00 259.95,35.00 260.72,35.00 261.49,35.00 262.26,35.00 263.03,35.00 263.80,35.00 264.58,35.00 265.35,35.00 266.12,35.00 266.88,35.00 267.66,35.00 268.44,35.00 269.21,35.00 269.98,35.00 270.74,35.00 271.60,35.00 272.37,35.00 273.14,35.00 273.91,35.00 274.69,35.00 275.46,35.00 276.23,35.00 277.00,35.00 277.76,35.00 278.56,35.00 279.34,35.00 280.10,35.00 280.87,35.00 281.64,35.00 282.41,35.00 283.18,35.00 283.97,35.00 284.74,35.00 285.51,35.00 286.29,35.00 287.12,35.00 287.89,35.00 288.86,35.00 290.16,35.00 290.94,35.00 291.73,35.00 292.50,35.00 293.25,35.00 294.02,35.00 294.80,35.00 295.57,35.00 296.34,35.00 297.15,35.00 297.94,35.00 298.76,35.00 299.53,35.00 300.30,35.00 301.07,35.00 301.85,35.00 302.63,35.00 303.40,35.00 304.17,35.00 304.94,35.00 305.74,35.00 306.51,35.00 307.27,35.00 308.04,35.00 308.82,35.00 309.62,35.00 310.40,35.00 311.17,35.00 311.96,35.00 312.69,35.00 313.46,35.00 314.24,35.00 315.01,35.00 315.79,35.00 316.58,35.00 317.36,35.00 318.12,35.00 318.90,35.00 319.68,35.00 320.45,35.00 321.22,35.00 321.98,35.00 322.75,35.00 323.53,35.00 324.29,35.00 325.21,35.00 326.11,35.00 327.02,35.00 327.92,35.00 328.80,35.00 329.68,35.00 330.59,35.00 331.49,35.00 332.26,35.00 333.02,35.00 333.79,35.00 334.56,35.00 335.32,35.00 336.09,35.00 336.85,35.00 337.62,35.00 338.39,35.00 339.15,35.00 339.92,35.00 340.69,35.00 341.45,35.00 342.22,35.00 342.98,35.00 343.75,35.00 344.52,35.00 345.28,35.00 346.05,35.00 346.83,35.00 347.59,35.00 348.35,35.00 349.11,35.00 349.88,35.00 350.65,35.00 351.42,35.00 352.19,35.00 352.95,35.00 353.72,35.00 354.49,35.00 355.26,35.00 356.02,35.00 356.79,35.00 357.55,35.00 358.31,35.00 359.07,35.00 359.84,35.00 360.60,35.00 361.36,35.00 362.13,35.00 362.89,35.00 363.66,35.00 364.42,35.00 365.18,35.00 365.94,35.00 366.73,35.00 367.56,35.00 368.33,35.00 369.10,35.00 369.87,35.00 370.63,35.00 371.39,35.00 372.15,35.00 372.92,35.00 373.83,35.00 374.73,35.00 375.62,35.00 376.52,35.00 377.43,35.00 378.32,35.00 379.24,35.00 380.17,35.00 381.01,35.00 381.84,35.00 382.61,35.00 383.38,35.00 384.15,35.00 384.91,35.00 385.68,35.00 386.45,35.00 387.21,35.00 387.98,35.00 388.74,35.00 389.51,35.00 390.28,35.00 391.05,35.00 391.83,35.00 392.59,35.00 393.36,35.00 394.03,35.00 394.82,35.00 395.59,35.00 396.37,35.00 397.14,35.00 397.91,35.00 398.68,35.00 399.46,35.00 400.23,35.00 401.01,35.00 401.78,35.00 402.56,35.00 403.32,35.00 404.08,35.00 404.85,35.00 405.61,35.00 406.38,35.00 407.14,35.00 407.92,35.00 408.68,35.00 409.45,35.00 410.22,35.00 410.98,35.00 411.76,35.00 412.53,35.00 413.30,35.00 414.07,35.00 414.84,35.00 415.60,35.00 416.38,35.00 417.15,35.00 417.94,35.00 418.70,35.00 419.47,35.00 420.24,35.00 421.00,35.00 421.76,35.00 422.54,35.00 423.30,35.00 424.07,35.00 424.84,35.00 425.60,35.00 426.37,35.00 427.14,35.00 427.91,35.00 428.68,35.00 429.61,35.00 430.40,35.00 431.18,35.00 431.96,35.00 432.73,35.00 433.51,35.00 434.27,35.00 435.03,35.00 435.81,35.00 436.59,35.00 437.35,35.00 438.12,35.00 438.89,35.00 439.66,35.00 440.46,35.00 441.24,35.00 442.01,35.00 442.78,35.00 443.55,35.00 444.32,35.00 445.08,35.00 445.85,35.00 446.65,35.00 447.42,35.00 448.20,35.00 448.97,35.00 449.73,35.00 450.51,35.00 451.27,35.00 452.04,35.00 452.81,35.00 453.59,35.00 454.36,35.00 455.13,35.00 455.89,35.00 456.66,35.00 457.43,35.00 458.21,35.00 458.98,35.00 459.75,35.00 460.51,35.00 461.28,35.00 462.07,35.00 462.84,35.00 463.76,35.00 464.55,35.00 465.32,35.00 466.09,35.00 466.86,35.00 467.63,35.00 468.40,35.00 469.17,35.00 469.96,35.00 470.72,35.00 471.49,35.00 472.25,35.00 473.02,35.00 473.79,35.00 474.56,35.00 475.33,35.00 476.10,35.00 476.86,35.00 477.63,35.00 478.40,35.00 479.18,35.00 479.94,35.00 480.71,35.00 481.48,35.00 482.26,35.00 483.03,35.00 483.79,35.00 484.57,35.00 485.36,35.00 486.12,35.00 486.89,35.00 487.67,35.00 488.44,35.00 489.20,35.00 489.97,35.00 490.75,35.00 491.53,35.00 492.30,35.00 493.07,35.00 493.83,35.00 494.60,35.00 495.37,35.00 496.14,35.00 496.90,35.00 497.68,35.00 498.46,35.00 499.23,35.00 499.99,35.00 500.77,35.00 501.53,35.00 502.30,35.00 503.07,35.00 503.84,35.00 504.60,35.00 505.38,35.00 506.15,35.00 506.92,35.00 507.70,35.00 508.47,35.00 509.25,35.00 510.02,35.00 510.79,35.00 511.66,35.00 512.50,35.00 513.33,35.00 514.10,35.00 514.91,35.00 515.68,35.00 516.45,35.00 517.21,35.00 517.93,35.00 518.73,35.00 519.50,35.00 520.28,35.00 521.04,35.00 521.81,35.00 522.58,35.00 523.35,35.00 524.12,35.00 524.89,35.00 525.66,35.00 526.43,35.00 527.20,35.00 527.98,35.00 528.75,35.00 529.53,35.00 530.30,35.00 531.07,35.00 531.84,35.00 532.63,35.00 533.40,35.00 534.17,35.00 534.93,35.00 535.71,35.00 536.47,35.00 537.24,35.00 538.01,35.00 538.78,35.00 539.56,35.00 540.33,35.00 541.09,35.00 541.87,35.00 542.64,35.00 543.41,35.00 544.19,35.00 544.95,35.00 545.72,35.00 546.50,35.00 547.27,35.00 548.04,35.00 548.82,35.00 549.59,35.00 550.36,35.00 551.14,35.00 551.91,35.00 552.69,35.00 553.48,35.00 554.25,35.00 555.03,35.00 555.79,35.00 556.56,35.00 557.33,35.00 558.11,35.00 558.88,35.00 559.66,35.00 560.42,35.00 561.20,35.00 561.97,35.00 562.74,35.00 563.52,35.00 564.29,35.00 565.07,35.00 565.84,35.00 566.62,35.00 567.40,35.00 568.17,35.00 568.94,35.00 569.71,35.00 570.48,35.00 571.27,35.00 572.05,35.00 572.83,35.00 573.60,35.00 574.36,35.00 575.13,35.00 575.90,35.00 576.68,35.00 577.45,35.00 578.22,35.00 578.99,35.00 579.76,35.00 580.54,35.00 581.31,35.00 582.09,35.00 582.85,35.00 583.63,35.00 584.41,35.00 585.18,35.00 585.95,35.00 586.72,35.00 587.49,35.00 588.25,35.00 589.02,35.00 589.80,35.00 590.58,35.00 591.35,35.00 592.13,35.00 592.89,35.00 593.67,35.00 594.45,35.00 595.22,35.00 595.99,35.00 596.77,35.00 597.54,35.00 598.32,35.00 599.09,35.00 599.87,35.00 600.65,35.00 601.42,35.00 602.21,35.00 602.98,35.00 603.76,35.00 604.53,35.00 605.30,35.00 606.08,35.00 606.86,35.00 607.63,35.00 608.41,35.00 609.18,35.00 609.95,35.00 610.72,35.00 611.51,35.00 612.28,35.00 613.06,35.00 613.83,35.00 614.60,35.00 615.36,35.00 616.13,35.00 616.90,35.00 617.67,35.00 618.44,35.00 619.22,35.00 619.99,35.00 620.76,35.00 621.53,35.00 622.33,35.00 623.10,35.00 623.87,35.00 624.64,35.00 625.41,35.00 626.18,35.00 626.95,35.00 627.73,35.00 628.50,35.00 629.27,35.00 630.05,35.00 630.82,35.00 631.59,35.00 632.37,35.00 633.15,35.00 633.94,35.00 634.72,35.00 635.50,35.00 636.27,35.00 637.05,35.00 637.83,35.00 638.59,35.00 639.36,35.00 640.13,35.00 640.91,35.00 641.68,35.00 642.46,35.00 643.23,35.00 644.01,35.00 644.82,35.00 645.59,35.00 646.36,35.00 647.13,35.00 647.91,35.00 648.68,35.00 649.46,35.00 650.24,35.00 651.02,35.00 651.80,35.00 652.57,35.00 653.35,35.00 654.12,35.00 654.90,35.00 655.67,35.00 656.44,35.00 657.21,35.00 657.99,35.00 658.77,35.00 659.54,35.00 660.32,35.00 661.09,35.00 661.87,35.00 662.64,35.00 663.42,35.00 664.19,35.00 664.99,35.00 665.77,35.00 666.55,35.00 667.32,35.00 668.11,35.00 668.90,35.00 669.69,35.00 670.48,35.00 671.28,35.00 672.05,35.00 672.82,35.00 673.60,35.00 674.37,35.00 675.15,35.00 675.93,35.00 676.72,35.00 677.49,35.00 678.27,35.00 679.04,35.00 679.81,35.00 680.58,35.00 681.36,35.00 682.13,35.00 682.90,35.00 683.67,35.00 684.44,35.00 685.21,35.00 685.97,35.00 686.75,35.00 687.52,35.00 688.30,35.00 689.07,35.00 689.85,35.00 690.63,35.00 691.40,35.00 692.17,35.00 692.95,35.00 693.72,35.00 694.49,35.00 695.26,35.00 696.04,35.00 696.81,35.00 697.58,35.00 698.34,35.00 699.11,35.00 699.88,35.00 700.66,35.00 701.43,35.00 702.21,35.00 702.98,35.00 703.75,35.00 704.52,35.00 705.30,35.00 706.07,35.00 706.83,35.00 707.59,35.00 708.35,35.00 709.13,35.00 709.90,35.00 710.69,35.00 711.46,35.00 712.23,35.00 713.00,35.00 713.79,35.00 714.57,35.00 715.34,35.00 716.12,35.00 716.89,35.00 717.66,35.00 718.44,35.00 719.21,35.00 720.00,35.00 720.78,35.00 721.55,35.00 722.31,35.00 723.09,35.00 723.85,35.00 724.63,35.00 725.40,35.00 726.16,35.00 726.93,35.00 727.71,35.00 728.48,35.00 729.25,35.00 730.02,35.00 730.79,35.00 731.57,35.00 732.34,35.00 733.12,35.00 733.89,35.00 734.66,35.00 735.44,35.00 736.22,35.00 736.98,35.00 737.75,35.00 738.53,35.00 739.30,35.00 740.07,35.00 740.85,35.00 741.63,35.00 742.40,35.00 743.16,35.00 743.93,35.00 744.73,35.00 745.51,35.00 746.29,35.00 747.08,35.00 747.85,35.00 748.63,35.00 749.40,35.00 750.18,35.00 750.95,35.00 751.72,35.00 752.50,35.00 753.29,35.00 754.07,35.00 754.84,35.00 755.61,35.00 756.38,35.00 757.16,35.00 757.94,35.00 758.70,35.00 759.47,35.00 760.25,35.00 761.02,35.00 761.79,35.00 762.56,35.00 763.34,35.00 764.10,35.00 764.87,35.00 765.65,35.00 766.42,35.00 767.19,35.00 767.97,35.00 768.74,35.00 769.51,35.00 770.28,35.00 771.06,35.00 771.82,35.00 772.60,35.00 773.37,35.00 774.16,35.00 774.93,35.00 775.70,35.00 776.47,35.00 777.24,35.00 778.01,35.00 778.78,35.00 779.57,35.00 780.36,35.00 781.14,35.00 781.93,35.00 782.72,35.00 783.51,35.00 784.30,35.00 785.09,35.00 785.89,35.00 786.68,35.00 787.47,35.00 788.24,35.00 789.01,35.00 789.79,35.00 790.57,35.00 791.34,35.00 792.12,35.00 792.89,35.00 793.67,35.00 794.45,35.00 795.22,35.00 795.99,35.00 796.76,35.00 797.53,35.00 798.30,35.00 799.07,35.00 799.85,35.00 800.62,35.00 801.39,35.00 802.18,35.00 802.96,35.00 803.73,35.00 804.50,35.00 805.27,35.00 806.04,35.00 806.82,35.00 807.59,35.00 808.37,35.00 809.13,35.00 809.91,35.00 810.68,35.00 811.46,35.00 812.23,35.00 813.00,35.00 813.78,35.00 814.61,35.00 815.40,35.00 816.17,35.00 816.95,35.00 817.71,35.00 818.50,35.00 819.28,35.00 820.06,35.00 820.84,35.00 821.60,35.00 822.36,35.00 823.13,35.00 823.90,35.00 824.68,35.00 825.45,35.00 826.22,35.00 827.00,35.00 827.78,35.00 828.56,35.00 829.33,35.00 830.10,35.00 830.87,35.00 831.65,35.00 832.42,35.00 833.19,35.00 833.96,35.00 834.74,35.00 835.52,35.00 836.29,35.00 837.10,35.00 837.87,35.00 838.64,35.00 839.41,35.00 840.19,35.00 840.96,35.00 841.74,35.00 842.52,35.00 843.29,35.00 844.06,35.00 844.84,35.00 845.62,35.00 846.40,35.00 847.18,35.00 847.95,35.00 848.72,35.00 849.50,35.00 850.27,35.00 851.05,35.00 851.81,35.00 852.60,35.00 853.37,35.00 854.14,35.00 854.92,35.00 855.69,35.00 856.46,35.00 857.24,35.00 858.00,35.00 858.78,35.00 859.55,35.00 860.33,35.00 861.10,35.00 861.87,35.00 862.64,35.00 863.42,35.00 864.19,35.00 864.97,35.00 865.74,35.00 866.50,35.00 867.27,35.00 868.04,35.00 868.82,35.00 869.59,35.00 870.39,35.00 871.16,35.00 871.94,35.00 872.72,35.00 873.49,35.00 874.27,35.00 875.10,35.00 875.89,35.00 876.67,35.00 877.45,35.00 878.24,35.00 879.01,35.00 879.78,35.00 880.55,35.00 881.33,35.00 882.10,35.00 882.88,35.00 883.65,35.00 884.43,35.00 885.22,35.00 885.99,35.00 886.77,35.00 887.54,35.00 888.32,35.00 889.09,35.00 889.87,35.00 890.64,35.00 891.41,35.00 892.20,35.00 892.97,35.00 893.74,35.00 894.52,35.00 895.30,35.00 896.08,35.00 896.86,35.00 897.63,35.00 898.41,35.00 899.18,35.00 899.96,35.00 900.74,35.00 901.50,35.00 902.27,35.00 903.05,35.00 903.82,35.00 904.59,35.00 905.37,35.00 906.14,35.00 906.91,35.00 907.69,35.00 908.47,35.00 909.24,35.00 910.02,35.00 910.79,35.00 911.57,35.00 912.35,35.00 913.10,35.00 913.86,35.00 914.63,35.00 915.41,35.00 916.18,35.00 916.96,35.00 917.74,35.00 918.51,35.00 919.30,35.00 920.08,35.00 920.85,35.00 921.62,35.00 922.39,35.00 923.16,35.00 923.93,35.00 924.70,35.00 925.47,35.00 926.25,35.00 927.02,35.00 927.78,35.00 928.55,35.00 929.33,35.00 930.11,35.00 930.88,35.00 931.65,35.00 932.42,35.00 933.16,35.00 933.96,35.00 934.73,35.00 935.50,35.00 936.28,35.00 937.06,35.00 937.83,35.00 938.60,35.00 939.38,35.00 940.16,35.00 940.93,35.00 941.70,35.00 942.53,35.00 943.30,35.00 944.09,35.00 944.86,35.00 945.65,35.00 946.41,35.00 947.18,35.00 947.96,35.00 948.73,35.00 949.50,35.00 950.27,35.00 951.05,35.00 951.83,35.00 952.61,35.00 953.38,35.00 954.15,35.00 954.92,35.00 955.70,35.00 956.47,35.00 957.25,35.00 958.03,35.00 958.81,35.00 959.60,35.00 960.38,35.00 961.15,35.00 961.93,35.00 962.71,35.00 963.49,35.00 964.26,35.00 965.03,35.00 965.80,35.00 966.58,35.00 967.35,35.00 968.13,35.00 968.90,35.00 969.68,35.00 970.45,35.00 971.23,35.00 971.99,35.00 972.76,35.00 973.54,35.00 974.31,35.00 975.08,35.00 975.85,35.00 976.63,35.00 977.39,35.00 978.16,35.00 978.93,35.00 979.70,35.00 980.47,35.00 981.24,35.00 982.01,35.00 982.78,35.00 983.55,35.00 984.32,35.00 985.09,35.00 985.87,35.00 986.64,35.00 987.41,35.00 988.17,35.00 988.94,35.00 989.73,35.00 990.49,35.00 991.26,35.00 992.04,35.00 992.85,35.00 993.61,35.00 994.39,35.00 995.17,35.00 995.95,35.00 996.72,35.00 997.50,35.00 998.27,35.00 999.05,35.00 999.82,35.00 1000.58,35.00 1001.35,35.00 1002.13,35.00 1002.90,35.00 1003.68,35.00 1004.45,35.00 1005.21,35.00 1005.99,35.00 1006.76,35.00 1007.53,35.00 1008.31,35.00 1009.12,35.00 1009.89,35.00 1010.66,35.00 1011.42,35.00 1012.19,35.00 1012.98,35.00 1013.74,35.00 1014.52,35.00 1015.29,35.00 1016.07,35.00 1016.84,35.00 1017.62,35.00 1018.39,35.00 1019.17,35.00 1019.94,35.00 1020.71,35.00 1021.49,35.00 1022.26,35.00 1023.03,35.00 1023.79,35.00 1024.56,35.00 1025.34,35.00 1026.11,35.00 1026.88,35.00 1027.65,35.00 1028.42,35.00 1029.20,35.00 1029.97,35.00 1030.74,35.00 1031.52,35.00 1032.29,35.00 1033.06,35.00 1033.83,35.00 1034.61,35.00 1035.38,35.00 1036.15,35.00 1036.93,35.00 1037.69,35.00 1038.46,35.00 1039.23,35.00 1040.01,35.00 1040.77,35.00 1041.57,35.00 1042.34,35.00 1043.11,35.00 1043.88,35.00 1044.66,35.00 1045.44,35.00 1046.22,35.00 1047.00,305.00 1047.82,35.00 1048.60,35.00 1049.43,35.00 1050.20,35.00 1050.97,35.00 1051.73,35.00 1052.51,35.00 1053.28,35.00 1054.06,35.00 1054.83,35.00 1055.60,35.00 1056.37,35.00 1057.15,35.00 1057.92,35.00 1058.69,35.00 1059.46,35.00 1060.23,35.00 1061.00,35.00 1061.77,35.00 1062.53,35.00 1063.32,35.00 1064.09,35.00 1064.87,35.00 1065.64,35.00 1066.40,35.00 1067.17,35.00 1067.94,35.00 1068.73,35.00 1069.50,35.00 1070.27,35.00 1071.05,35.00 1071.82,35.00 1072.58,35.00 1073.35,35.00 1074.13,35.00 1074.90,35.00 1075.67,35.00 1076.43,35.00 1077.20,35.00 1077.97,35.00 1078.74,35.00 1079.51,35.00 1080.29,35.00 1081.06,35.00 1081.86,35.00 1082.64,35.00 1083.41,35.00 1084.18,35.00 1084.95,35.00 1085.71,35.00 1086.48,35.00 1087.25,35.00 1088.02,35.00 1088.79,35.00 1089.56,35.00 1090.33,35.00 1091.09,35.00 1091.86,35.00 1092.64,35.00 1093.40,35.00 1094.18,35.00 1094.96,35.00 1095.72,35.00 1096.49,35.00 1097.27,35.00 1098.04,35.00 1098.81,35.00 1099.59,35.00 1100.36,35.00 1101.13,35.00 1101.91,35.00 1102.68,35.00 1103.47,35.00 1104.23,35.00 1105.00,35.00 1105.77,35.00 1106.55,35.00 1107.32,35.00 1108.11,35.00 1108.89,35.00 1109.67,35.00 1110.44,35.00 1111.21,35.00 1111.99,35.00 1112.76,35.00 1113.53,35.00 1114.31,35.00 1115.08,35.00 1115.84,35.00 1116.62,35.00 1117.40,35.00 1118.18,35.00 1118.95,35.00 1119.74,35.00 1120.53,35.00 1121.35,35.00 1122.13,35.00 1122.90,35.00 1123.67,35.00 1124.44,35.00 1125.22,35.00 1125.99,35.00 1126.76,35.00 1127.54,35.00 1128.31,35.00 1129.09,35.00 1129.86,35.00 1130.62,35.00 1131.40,35.00 1132.17,35.00 1132.95,35.00 1133.74,35.00 1134.53,35.00 1135.30,35.00 1136.09,35.00 1136.90,35.00 1137.67,35.00 1138.50,35.00 1139.27,35.00 1140.04,35.00 1140.82,35.00 1141.59,35.00 1142.37,35.00 1143.14,35.00 1143.91,35.00 1144.68,35.00 1145.45,35.00 1146.22,35.00 1147.01,35.00 1147.79,35.00 1148.56,35.00 1149.35,35.00 1150.25,35.00 1151.03,35.00 1151.79,35.00 1152.56,35.00 1153.33,35.00 1154.09,35.00 1154.86,35.00 1155.57,35.00 1156.26,35.00 1157.10,35.00 1157.83,35.00 1158.53,35.00 1159.32,35.00 1159.99,35.00 1160.76,35.00 1161.53,35.00 1162.31,35.00 1163.08,35.00 1163.84,35.00 1164.61,35.00 1165.38,35.00 1166.15,35.00 1166.93,35.00 1167.70,35.00 1168.46,35.00 1169.23,35.00 1170.01,35.00 1170.77,35.00 1171.54,35.00 1172.31,35.00 1173.07,35.00 1173.84,35.00 1174.61,35.00 1175.38,35.00 1176.15,35.00 1176.92,35.00 1177.70,35.00 1178.47,35.00 1179.23,35.00 1180.00,35.00"/>
<polyline fill="none" stroke="#ff7f0e" stroke-opacity="0.80" stroke-width="2" points="70.00,35.00 70.77,35.00 71.54,35.00 72.31,35.00 73.08,35.00 73.86,35.00 74.62,35.00 75.39,35.00 76.23,35.00 76.99,35.00 77.76,35.00 78.52,35.00 79.30,35.00 80.07,35.00 80.83,35.00 82.22,35.00 83.41,35.00 84.19,35.00 84.98,35.00 85.75,35.00 86.51,35.00 87.27,35.00 88.04,35.00 88.81,35.00 89.58,35.00 90.36,35.00 91.14,35.00 91.91,35.00 92.69,35.00 93.49,35.00 94.27,35.00 95.04,35.00 95.83,35.00 96.60,35.00 97.37,35.00 98.16,35.00 98.92,35.00 99.69,35.00 100.48,35.00 101.24,35.00 102.01,35.00 102.77,35.00 103.53,35.00 104.31,35.00 105.07,35.00 105.86,35.00 106.64,35.00 107.40,35.00 108.16,35.00 108.94,35.00 109.71,35.00 110.59,35.00 111.36,35.00 112.13,35.00 112.89,35.00 113.65,35.00 114.42,35.00 115.18,35.00 115.95,35.00 116.72,35.00 117.50,35.00 118.27,35.00 119.03,35.00 119.81,35.00 120.59,35.00 121.35,35.00 122.13,35.00 122.89,35.00 123.65,35.00 124.41,35.00 125.18,35.00 125.94,35.00 126.71,35.00 127.48,35.00 128.25,35.00 129.02,35.00 129.78,35.00 130.55,35.00 131.31,35.00 132.08,35.00 132.87,35.00 133.64,35.00 134.40,35.00 135.18,35.00 135.94,35.00 136.71,35.00 137.48,35.00 138.24,35.00 139.01,35.00 139.78,35.00 140.55,35.00 141.32,35.00 142.10,35.00 142.86,35.00 143.63,35.00 144.39,35.00 145.16,35.00 145.92,35.00 146.69,35.00 147.46,35.00 148.23,35.00 149.00,35.00 149.77,35.00 150.54,35.00 151.32,35.00 152.09,35.00 152.86,35.00 153.63,35.00 154.39,35.00 155.16,35.00 155.93,35.00 156.70,35.00 157.47,35.00 158.24,35.00 159.01,35.00 159.78,35.00 160.56,35.00 161.34,35.00 162.10,35.00 162.87,35.00 163.64,35.00 164.41,35.00 165.18,35.00 165.95,35.00 166.79,35.00 167.55,35.00 168.33,35.00 169.10,35.00 169.86,35.00 170.62,35.00 171.38,35.00 172.15,35.00 172.92,35.00 173.68,35.00 174.45,35.00 175.22,35.00 175.98,35.00 176.75,35.00 177.53,35.00 178.30,35.00 179.06,35.00 179.83,35.00 180.60,35.00 181.36,35.00 182.13,35.00 182.91,35.00 183.68,35.00 184.45,35.00 185.21,35.00 185.98,35.00 186.74,35.00 187.51,35.00 188.28,35.00 189.05,35.00 189.82,35.00 190.59,35.00 191.36,35.00 192.14,35.00 192.91,35.00 193.67,35.00 194.44,35.00 195.21,35.00 195.99,35.00 196.77,35.00 197.54,35.00 198.31,35.00 199.07,35.00 199.84,35.00 200.60,35.00 201.37,35.00 202.14,35.00 202.90,35.00 203.66,35.00 204.44,35.00 205.21,35.00 205.98,35.00 206.75,35.00 207.54,35.00 208.30,35.00 209.07,35.00 209.84,35.00 210.60,35.00 211.43,35.00 212.22,35.00 212.98,35.00 213.75,35.00 214.51,35.00 215.28,35.00 216.05,35.00 216.82,35.00 217.59,35.00 218.36,35.00 219.12,35.00 219.89,35.00 220.68,35.00 221.44,35.00 222.21,35.00 222.97,35.00 223.75,35.00 224.53,35.00 225.32,35.00 226.08,35.00 226.85,35.00 227.62,35.00 228.39,35.00 229.16,35.00 229.93,35.00 230.71,35.00 231.47,35.00 232.24,35.00 233.01,35.00 233.78,35.00 234.55,35.00 235.32,35.00 236.10,35.00 236.87,35.00 237.63,35.00 238.39,35.00 239.16,35.00 239.93,35.00 240.70,35.00 241.46,35.00 242.23,35.00 242.99,35.00 243.76,35.00 244.53,35.00 245.30,35.00 246.08,35.00 246.85,35.00 247.62,35.00 248.40,35.00 249.16,35.00 249.94,35.00 250.70,35.00 251.47,35.00 252.24,35.00 253.03,35.00 253.80,35.00 254.57,35.00 255.34,35.00 256.11,35.00 256.88,35.00 257.64,35.00 258.41,35.00 259.18,35.00 259.95,35.00 260.72,35.00 261.49,35.00 262.26,35.00 263.03,35.00 263.80,35.00 264.58,35.00 265.35,35.00 266.12,35.00 266.88,35.00 267.66,35.00 268.44,35.00 269.21,35.00 269.98,35.00 270.74,35.00 271.60,35.00 272.37,35.00 273.14,35.00 273.91,35.00 274.69,35.00 275.46,35.00 276.23,35.00 277.00,35.00 277.76,35.00 278.56,35.00 279.34,35.00 280.10,35.00 280.87,35.00 281.64,35.00 282.41,35.00 283.18,35.00 283.97,35.00 284.74,35.00 285.51,35.00 286.29,35.00 287.12,35.00 287.89,35.00 288.86,35.00 290.16,35.00 290.94,35.00 291.73,35.00 292.50,35.00 293.25,35.00 294.02,35.00 294.80,35.00 295.57,35.00 296.34,35.00 297.15,35.00 297.94,35.00 298.76,35.00 299.53,35.00 300.30,35.00 301.07,35.00 301.85,35.00 302.63,35.00 303.40,35.00 304.17,35.00 304.94,35.00 305.74,35.00 306.51,35.00 307.27,35.00 308.04,35.00 308.82,35.00 309.62,35.00 310.40,35.00 311.17,35.00 311.96,35.00 312.69,35.00 313.46,35.00 314.24,35.00 315.01,35.00 315.79,35.00 316.58,35.00 317.36,35.00 318.12,35.00 318.90,35.00 319.68,35.00 320.45,35.00 321.22,35.00 321.98,35.00 322.75,35.00 323.53,35.00 324.29,35.00 325.21,35.00 326.11,35.00 327.02,35.00 327.92,35.00 328.80,35.00 329.68,35.00 330.59,35.00 331.49,35.00 332.26,35.00 333.02,35.00 333.79,35.00 334.56,35.00 335.32,35.00 336.09,35.00 336.85,35.00 337.62,35.00 338.39,35.00 339.15,35.00 339.92,35.00 340.69,35.00 341.45,35.00 342.22,35.00 342.98,35.00 343.75,35.00 344.52,35.00 345.28,35.00 346.05,35.00 346.83,35.00 347.59,35.00 348.35,35.00 349.11,35.00 349.88,35.00 350.65,35.00 351.42,35.00 352.19,35.00 352.95,35.00 353.72,35.00 354.49,35.00 355.26,35.00 356.02,35.00 356.79,35.00 357.55,35.00 358.31,35.00 359.07,35.00 359.84,35.00 360.60,35.00 361.36,35.00 362.13,35.00 362.89,35.00 363.66,35.00 364.42,35.00 365.18,35.00 365.94,35.00 366.73,35.00 367.56,35.00 368.33,35.00 369.10,35.00 369.87,35.00 370.63,35.00 371.39,35.00 372.15,35.00 372.92,35.00 373.83,35.00 374.73,35.00 375.62,35.00 376.52,35.00 377.43,35.00 378.32,35.00 379.24,35.00 380.17,35.00 381.01,35.00 381.84,35.00 382.61,35.00 383.38,35.00 384.15,35.00 384.91,35.00 385.68,35.00 386.45,35.00 387.21,35.00 387.98,35.00 388.74,35.00 389.51,35.00 390.28,35.00 391.05,35.00 391.83,35.00 392.59,35.00 393.36,35.00 394.03,35.00 394.82,35.00 395.59,35.00 396.37,35.00 397.14,35.00 397.91,35.00 398.68,35.00 399.46,35.00 400.23,35.00 401.01,35.00 401.78,35.00 402.56,35.00 403.32,35.00 404.08,35.00 404.85,35.00 405.61,35.00 406.38,35.00 407.14,35.00 407.92,35.00 408.68,35.00 409.45,35.00 410.22,35.00 410.98,35.00 411.76,35.00 412.53,35.00 413.30,35.00 414.07,35.00 414.84,35.00 415.60,35.00 416.38,35.00 417.15,35.00 417.94,35.00 418.70,35.00 419.47,35.00 420.24,35.00 421.00,35.00 421.76,35.00 422.54,35.00 423.30,35.00 424.07,35.00 424.84,35.00 425.60,35.00 426.37,35.00 427.14,35.00 427.91,35.00 428.68,35.00 429.61,35.00 430.40,35.00 431.18,35.00 431.96,35.00 432.73,35.00 433.51,35.00 434.27,35.00 435.03,35.00 435.81,35.00 436.59,35.00 437.35,35.00 438.12,35.00 438.89,35.00 439.66,35.00 440.46,35.00 441.24,35.00 442.01,35.00 442.78,35.00 443.55,35.00 444.32,35.00 445.08,35.00 445.85,35.00 446.65,35.00 447.42,35.00 448.20,35.00 448.97,35.00 449.73,35.00 450.51,35.00 451.27,35.00 452.04,35.00 452.81,35.00 453.59,35.00 454.36,35.00 455.13,35.00 455.89,35.00 456.66,35.00 457.43,35.00 458.21,35.00 458.98,35.00 459.75,35.00 460.51,35.00 461.28,35.00 462.07,35.00 462.84,35.00 463.76,35.00 464.55,35.00 465.32,35.00 466.09,35.00 466.86,35.00 467.63,35.00 468.40,35.00 469.17,35.00 469.96,35.00 470.72,35.00 471.49,35.00 472.25,35.00 473.02,35.00 473.79,35.00 474.56,35.00 475.33,35.00 476.10,35.00 476.86,35.00 477.63,35.00 478.40,35.00 479.18,35.00 479.94,35.00 480.71,35.00 481.48,35.00 482.26,35.00 483.03,35.00 483.79,35.00 484.57,35.00 485.36,35.00 486.12,35.00 486.89,35.00 487.67,35.00 488.44,35.00 489.20,35.00 489.97,35.00 490.75,35.00 491.53,35.00 492.30,35.00 493.07,35.00 493.83,35.00 494.60,35.00 495.37,35.00 496.14,35.00 496.90,35.00 497.68,35.00 498.46,35.00 499.23,35.00 499.99,35.00 500.77,35.00 501.53,35.00 502.30,35.00 503.07,35.00 503.84,35.00 504.60,35.00 505.38,35.00 506.15,35.00 506.92,35.00 507.70,35.00 508.47,35.00 509.25,35.00 510.02,35.00 510.79,35.00 511.66,35.00 512.50,35.00 513.33,35.00 514.10,35.00 514.91,35.00 515.68,35.00 516.45,35.00 517.21,35.00 517.93,35.00 518.73,35.00 519.50,35.00 520.28,35.00 521.04,35.00 521.81,35.00 522.58,35.00 523.35,35.00 524.12,35.00 524.89,35.00 525.66,35.00 526.43,35.00 527.20,35.00 527.98,35.00 528.75,35.00 529.53,35.00 530.30,35.00 531.07,35.00 531.84,35.00 532.63,35.00 533.40,35.00 534.17,35.00 534.93,35.00 535.71,35.00 536.47,35.00 537.24,35.00 538.01,35.00 538.78,35.00 539.56,35.00 540.33,35.00 541.09,35.00 541.87,35.00 542.64,35.00 543.41,35.00 544.19,35.00 544.95,35.00 545.72,35.00 546.50,35.00 547.27,35.00 548.04,35.00 548.82,35.00 549.59,35.00 550.36,35.00 551.14,35.00 551.91,35.00 552.69,35.00 553.48,35.00 554.25,35.00 555.03,35.00 555.79,35.00 556.56,35.00 557.33,35.00 558.11,35.00 558.88,35.00 559.66,35.00 560.42,35.00 561.20,35.00 561.97,35.00 562.74,35.00 563.52,35.00 564.29,35.00 565.07,35.00 565.84,35.00 566.62,35.00 567.40,35.00 568.17,35.00 568.94,35.00 569.71,35.00 570.48,35.00 571.27,35.00 572.05,35.00 572.83,35.00 573.60,35.00 574.36,35.00 575.13,35.00 575.90,35.00 576.68,35.00 577.45,35.00 578.22,35.00 578.99,35.00 579.76,35.00 580.54,35.00 581.31,35.00 582.09,35.00 582.85,35.00 583.63,35.00 584.41,35.00 585.18,35.00 585.95,35.00 586.72,35.00 587.49,35.00 588.25,35.00 589.02,35.00 589.80,35.00 590.58,35.00 591.35,35.00 592.13,35.00 592.89,35.00 593.67,35.00 594.45,35.00 595.22,35.00 595.99,35.00 596.77,35.00 597.54,35.00 598.32,35.00 599.09,35.00 599.87,35.00 600.65,35.00 601.42,35.00 602.21,35.00 602.98,35.00 603.76,35.00 604.53,35.00 605.30,35.00 606.08,35.00 606.86,35.00 607.63,35.00 608.41,35.00 609.18,35.00 609.95,35.00 610.72,35.00 611.51,35.00 612.28,35.00 613.06,35.00 613.83,35.00 614.60,35.00 615.36,35.00 616.13,35.00 616.90,35.00 617.67,35.00 618.44,35.00 619.22,35.00 619.99,35.00 620.76,35.00 621.53,35.00 622.33,35.00 623.10,35.00 623.87,35.00 624.64,35.00 625.41,35.00 626.18,35.00 626.95,35.00 627.73,35.00 628.50,35.00 629.27,35.00 630.05,35.00 630.82,35.00 631.59,35.00 632.37,35.00 633.15,35.00 633.94,35.00 634.72,35.00 635.50,35.00 636.27,35.00 637.05,35.00 637.83,35.00 638.59,35.00 639.36,35.00 640.13,35.00 640.91,35.00 641.68,35.00 642.46,35.00 643.23,35.00 644.01,35.00 644.82,35.00 645.59,35.00 646.36,35.00 647.13,35.00 647.91,35.00 648.68,35.00 649.46,35.00 650.24,35.00 651.02,35.00 651.80,35.00 652.57,35.00 653.35,35.00 654.12,35.00 654.90,35.00 655.67,35.00 656.44,35.00 657.21,35.00 657.99,35.00 658.77,35.00 659.54,35.00 660.32,35.00 661.09,35.00 661.87,35.00 662.64,35.00 663.42,35.00 664.19,35.00 664.99,35.00 665.77,35.00 666.55,35.00 667.32,35.00 668.11,35.00 668.90,35.00 669.69,35.00 670.48,35.00 671.28,35.00 672.05,35.00 672.82,35.00 673.60,35.00 674.37,35.00 675.15,35.00 675.93,35.00 676.72,35.00 677.49,35.00 678.27,35.00 679.04,35.00 679.81,35.00 680.58,35.00 681.36,35.00 682.13,35.00 682.90,35.00 683.67,35.00 684.44,35.00 685.21,35.00 685.97,35.00 686.75,35.00 687.52,35.00 688.30,35.00 689.07,35.00 689.85,35.00 690.63,35.00 691.40,35.00 692.17,35.00 692.95,35.00 693.72,35.00 694.49,35.00 695.26,35.00 696.04,35.00 696.81,35.00 697.58,35.00 698.34,35.00 699.11,35.00 699.88,35.00 700.66,35.00 701.43,35.00 702.21,35.00 702.98,35.00 703.75,35.00 704.52,35.00 705.30,35.00 706.07,35.00 706.83,35.00 707.59,35.00 708.35,35.00 709.13,35.00 709.90,35.00 710.69,35.00 711.46,35.00 712.23,35.00 713.00,35.00 713.79,35.00 714.57,35.00 715.34,35.00 716.12,35.00 716.89,35.00 717.66,35.00 718.44,35.00 719.21,35.00 720.00,35.00 720.78,35.00 721.55,35.00 722.31,35.00 723.09,35.00 723.85,35.00 724.63,35.00 725.40,35.00 726.16,35.00 726.93,35.00 727.71,35.00 728.48,35.00 729.25,35.00 730.02,35.00 730.79,35.00 731.57,35.00 732.34,35.00 733.12,35.00 733.89,35.00 734.66,35.00 735.44,35.00 736.22,35.00 736.98,35.00 737.75,35.00 738.53,35.00 739.30,35.00 740.07,35.00 740.85,35.00 741.63,35.00 742.40,35.00 743.16,35.00 743.93,35.00 744.73,35.00 745.51,35.00 746.29,35.00 747.08,35.00 747.85,35.00 748.63,35.00 749.40,35.00 750.18,35.00 750.95,35.00 751.72,35.00 752.50,35.00 753.29,35.00 754.07,35.00 754.84,35.00 755.61,35.00 756.38,35.00 757.16,35.00 757.94,35.00 758.70,35.00 759.47,35.00 760.25,35.00 761.02,35.00 761.79,35.00 762.56,35.00 763.34,35.00 764.10,35.00 764.87,35.00 765.65,35.00 766.42,35.00 767.19,35.00 767.97,35.00 768.74,35.00 769.51,35.00 770.28,35.00 771.06,35.00 771.82,35.00 772.60,35.00 773.37,35.00 774.16,35.00 774.93,35.00 775.70,35.00 776.47,35.00 777.24,35.00 778.01,35.00 778.78,35.00 779.57,35.00 780.36,35.00 781.14,35.00 781.93,35.00 782.72,35.00 783.51,35.00 784.30,35.00 785.09,35.00 785.89,35.00 786.68,35.00 787.47,35.00 788.24,35.00 789.01,35.00 789.79,35.00 790.57,35.00 791.34,35.00 792.12,35.00 792.89,35.00 793.67,35.00 794.45,35.00 795.22,35.00 795.99,35.00 796.76,35.00 797.53,35.00 798.30,35.00 799.07,35.00 799.85,35.00 800.62,35.00 801.39,35.00 802.18,35.00 802.96,35.00 803.73,35.00 804.50,35.00 805.27,35.00 806.04,35.00 806.82,35.00 807.59,35.00 808.37,35.00 809.13,35.00 809.91,35.00 810.68,35.00 811.46,35.00 812.23,35.00 813.00,35.00 813.78,35.00 814.61,35.00 815.40,35.00 816.17,35.00 816.95,35.00 817.71,35.00 818.50,35.00 819.28,35.00 820.06,35.00 820.84,35.00 821.60,35.00 822.36,35.00 823.13,35.00 823.90,35.00 824.68,35.00 825.45,35.00 826.22,35.00 827.00,35.00 827.78,35.00 828.56,35.00 829.33,35.00 830.10,35.00 830.87,35.00 831.65,35.00 832.42,35.00 833.19,35.00 833.96,35.00 834.74,35.00 835.52,35.00 836.29,35.00 837.10,35.00 837.87,35.00 838.64,35.00 839.41,35.00 840.19,35.00 840.96,35.00 841.74,35.00 842.52,35.00 843.29,35.00 844.06,35.00 844.84,35.00 845.62,35.00 846.40,35.00 847.18,35.00 847.95,35.00 848.72,35.00 849.50,35.00 850.27,35.00 851.05,35.00 851.81,35.00 852.60,35.00 853.37,35.00 854.14,35.00 854.92,35.00 855.69,35.00 856.46,35.00 857.24,35.00 858.00,35.00 858.78,35.00 859.55,35.00 860.33,35.00 861.10,35.00 861.87,35.00 862.64,35.00 863.42,35.00 864.19,35.00 864.97,35.00 865.74,35.00 866.50,35.00 867.27,35.00 868.04,35.00 868.82,35.00 869.59,35.00 870.39,35.00 871.16,35.00 871.94,35.00 872.72,35.00 873.49,35.00 874.27,35.00 875.10,35.00 875.89,35.00 876.67,35.00 877.45,35.00 878.24,35.00 879.01,35.00 879.78,35.00 880.55,35.00 881.33,35.00 882.10,35.00 882.88,35.00 883.65,35.00 884.43,35.00 885.22,35.00 885.99,35.00 886.77,35.00 887.54,35.00 888.32,35.00 889.09,35.00 889.87,35.00 890.64,35.00 891.41,35.00 892.20,35.00 892.97,35.00 893.74,35.00 894.52,35.00 895.30,35.00 896.08,35.00 896.86,35.00 897.63,35.00 898.41,35.00 899.18,35.00 899.96,35.00 900.74,35.00 901.50,35.00 902.27,35.00 903.05,35.00 903.82,35.00 904.59,35.00 905.37,35.00 906.14,35.00 906.91,35.00 907.69,35.00 908.47,35.00 909.24,35.00 910.02,35.00 910.79,35.00 911.57,35.00 912.35,35.00 913.10,35.00 913.86,35.00 914.63,35.00 915.41,35.00 916.18,35.00 916.96,35.00 917.74,35.00 918.51,35.00 919.30,35.00 920.08,35.00 920.85,35.00 921.62,35.00 922.39,35.00 923.16,35.00 923.93,35.00 924.70,35.00 925.47,35.00 926.25,35.00 927.02,35.00 927.78,35.00 928.55,35.00 929.33,35.00 930.11,35.00 930.88,35.00 931.65,35.00 932.42,35.00 933.16,35.00 933.96,35.00 934.73,35.00 935.50,35.00 936.28,35.00 937.06,35.00 937.83,35.00 938.60,35.00 939.38,35.00 940.16,35.00 940.93,35.00 941.70,35.00 942.53,35.00 943.30,35.00 944.09,35.00 944.86,35.00 945.65,35.00 946.41,35.00 947.18,35.00 947.96,35.00 948.73,35.00 949.50,35.00 950.27,35.00 951.05,35.00 951.83,35.00 952.61,35.00 953.38,35.00 954.15,35.00 954.92,35.00 955.70,35.00 956.47,35.00 957.25,35.00 958.03,35.00 958.81,35.00 959.60,35.00 960.38,35.00 961.15,35.00 961.93,35.00 962.71,35.00 963.49,35.00 964.26,35.00 965.03,35.00 965.80,35.00 966.58,35.00 967.35,35.00 968.13,35.00 968.90,35.00 969.68,35.00 970.45,35.00 971.23,35.00 971.99,35.00 972.76,35.00 973.54,35.00 974.31,35.00 975.08,35.00 975.85,35.00 976.63,35.00 977.39,35.00 978.16,35.00 978.93,35.00 979.70,35.00 980.47,35.00 981.24,35.00 982.01,35.00 982.78,35.00 983.55,35.00 984.32,35.00 985.09,35.00 985.87,35.00 986.64,35.00 987.41,35.00 988.17,35.00 988.94,35.00 989.73,35.00 990.49,35.00 991.26,35.00 992.04,35.00 992.85,35.00 993.61,35.00 994.39,35.00 995.17,35.00 995.95,35.00 996.72,35.00 997.50,35.00 998.27,35.00 999.05,35.00 999.82,35.00 1000.58,35.00 1001.35,35.00 1002.13,35.00 1002.90,35.00 1003.68,35.00 1004.45,35.00 1005.21,35.00 1005.99,35.00 1006.76,35.00 1007.53,35.00 1008.31,35.00 1009.12,35.00 1009.89,35.00 1010.66,35.00 1011.42,35.00 1012.19,35.00 1012.98,35.00 1013.74,35.00 1014.52,35.00 1015.29,35.00 1016.07,35.00 1016.84,35.00 1017.62,35.00 1018.39,35.00 1019.17,35.00 1019.94,35.00 1020.71,35.00 1021.49,35.00 1022.26,35.00 1023.03,35.00 1023.79,35.00 1024.56,35.00 1025.34,35.00 1026.11,35.00 1026.88,35.00 1027.65,35.00 1028.42,35.00 1029.20,35.00 1029.97,35.00 1030.74,35.00 1031.52,35.00 1032.29,35.00 1033.06,35.00 1033.83,35.00 1034.61,35.00 1035.38,35.00 1036.15,35.00 1036.93,35.00 1037.69,35.00 1038.46,35.00 1039.23,35.00 1040.01,35.00 1040.77,35.00 1041.57,35.00 1042.34,35.00 1043.11,35.00 1043.88,35.00 1044.66,35.00 1045.44,35.00 1046.22,35.00 1047.00,35.00 1047.82,35.00 1048.60,35.00 1049.43,35.00 1050.20,35.00 1050.97,35.00 1051.73,35.00 1052.51,35.00 1053.28,35.00 1054.06,35.00 1054.83,35.00 1055.60,35.00 1056.37,35.00 1057.15,35.00 1057.92,35.00 1058.69,35.00 1059.46,35.00 1060.23,35.00 1061.00,35.00 1061.77,35.00 1062.53,35.00 1063.32,35.00 1064.09,35.00 1064.87,35.00 1065.64,35.00 1066.40,35.00 1067.17,35.00 1067.94,35.00 1068.73,35.00 1069.50,35.00 1070.27,35.00 1071.05,35.00 1071.82,35.00 1072.58,35.00 1073.35,35.00 1074.13,35.00 1074.90,35.00 1075.67,35.00 1076.43,35.00 1077.20,35.00 1077.97,35.00 1078.74,35.00 1079.51,35.00 1080.29,35.00 1081.06,35.00 1081.86,35.00 1082.64,35.00 1083.41,35.00 1084.18,35.00 1084.95,35.00 1085.71,35.00 1086.48,35.00 1087.25,35.00 1088.02,35.00 1088.79,35.00 1089.56,35.00 1090.33,35.00 1091.09,35.00 1091.86,35.00 1092.64,35.00 1093.40,35.00 1094.18,35.00 1094.96,35.00 1095.72,35.00 1096.49,35.00 1097.27,35.00 1098.04,35.00 1098.81,35.00 1099.59,35.00 1100.36,35.00 1101.13,35.00 1101.91,35.00 1102.68,35.00 1103.47,35.00 1104.23,35.00 1105.00,35.00 1105.77,35.00 1106.55,35.00 1107.32,35.00 1108.11,35.00 1108.89,35.00 1109.67,35.00 1110.44,35.00 1111.21,35.00 1111.99,35.00 1112.76,35.00 1113.53,35.00 1114.31,35.00 1115.08,35.00 1115.84,35.00 1116.62,35.00 1117.40,35.00 1118.18,35.00 1118.95,35.00 1119.74,35.00 1120.53,35.00 1121.35,35.00 1122.13,35.00 1122.90,35.00 1123.67,35.00 1124.44,35.00 1125.22,35.00 1125.99,35.00 1126.76,35.00 1127.54,35.00 1128.31,35.00 1129.09,35.00 1129.86,35.00 1130.62,35.00 1131.40,35.00 1132.17,35.00 1132.95,35.00 1133.74,35.00 1134.53,35.00 1135.30,35.00 1136.09,35.00 1136.90,35.00 1137.67,35.00 1138.50,35.00 1139.27,35.00 1140.04,35.00 1140.82,35.00 1141.59,35.00 1142.37,35.00 1143.14,35.00 1143.91,35.00 1144.68,35.00 1145.45,35.00 1146.22,35.00 1147.01,35.00 1147.79,35.00 1148.56,35.00 1149.35,35.00 1150.25,35.00 1151.03,35.00 1151.79,35.00 1152.56,35.00 1153.33,35.00 1154.09,35.00 1154.86,35.00 1155.57,35.00 1156.26,35.00 1157.10,305.00 1157.83,305.00 1158.53,35.00 1159.32,305.00 1159.99,35.00 1160.76,35.00 1161.53,35.00 1162.31,35.00 1163.08,35.00 1163.84,35.00 1164.61,35.00 1165.38,35.00 1166.15,35.00 1166.93,35.00 1167.70,35.00 1168.46,35.00 1169.23,35.00 1170.01,35.00 1170.77,35.00 1171.54,35.00 1172.31,35.00 1173.07,35.00 1173.84,35.00 1174.61,35.00 1175.38,35.00 1176.15,35.00 1176.92,35.00 1177.70,35.00 1178.47,35.00 1179.23,35.00 1180.00,35.00"/>
<polyline fill="none" stroke="#ff7f0e" stroke-opacity="0.65" stroke-width="2" points="70.00,305.00 70.77,305.00 71.54,305.00 72.31,305.00 73.08,305.00 73.86,305.00 74.62,305.00 75.39,305.00 76.23,305.00 76.99,305.00 77.76,305.00 78.52,305.00 79.30,305.00 80.07,305.00 80.83,305.00 82.22,305.00 83.41,305.00 84.19,305.00 84.98,305.00 85.75,305.00 86.51,305.00 87.27,305.00 88.04,305.00 88.81,305.00 89.58,305.00 90.36,305.00 91.14,305.00 91.91,305.00 92.69,305.00 93.49,305.00 94.27,305.00 95.04,305.00 95.83,305.00 96.60,305.00 97.37,305.00 98.16,305.00 98.92,305.00 99.69,305.00 100.48,305.00 101.24,305.00 102.01,305.00 102.77,305.00 103.53,305.00 104.31,305.00 105.07,305.00 105.86,305.00 106.64,305.00 107.40,305.00 108.16,305.00 108.94,305.00 109.71,305.00 110.59,305.00 111.36,305.00 112.13,305.00 112.89,305.00 113.65,305.00 114.42,305.00 115.18,305.00 115.95,305.00 116.72,305.00 117.50,305.00 118.27,305.00 119.03,305.00 119.81,305.00 120.59,305.00 121.35,305.00 122.13,305.00 122.89,305.00 123.65,305.00 124.41,305.00 125.18,305.00 125.94,305.00 126.71,305.00 127.48,305.00 128.25,305.00 129.02,305.00 129.78,305.00 130.55,305.00 131.31,305.00 132.08,305.00 132.87,305.00 133.64,305.00 134.40,305.00 135.18,305.00 135.94,305.00 136.71,305.00 137.48,305.00 138.24,305.00 139.01,305.00 139.78,305.00 140.55,305.00 141.32,305.00 142.10,305.00 142.86,305.00 143.63,305.00 144.39,305.00 145.16,305.00 145.92,305.00 146.69,305.00 147.46,305.00 148.23,305.00 149.00,305.00 149.77,305.00 150.54,305.00 151.32,305.00 152.09,305.00 152.86,305.00 153.63,305.00 154.39,305.00 155.16,305.00 155.93,305.00 156.70,305.00 157.47,305.00 158.24,305.00 159.01,305.00 159.78,305.00 160.56,305.00 161.34,305.00 162.10,305.00 162.87,305.00 163.64,305.00 164.41,305.00 165.18,305.00 165.95,305.00 166.79,305.00 167.55,305.00 168.33,305.00 169.10,305.00 169.86,305.00 170.62,305.00 171.38,305.00 172.15,305.00 172.92,305.00 173.68,305.00 174.45,305.00 175.22,305.00 175.98,305.00 176.75,305.00 177.53,305.00 178.30,305.00 179.06,305.00 179.83,305.00 180.60,305.00 181.36,305.00 182.13,305.00 182.91,305.00 183.68,305.00 184.45,305.00 185.21,305.00 185.98,305.00 186.74,305.00 187.51,305.00 188.28,305.00 189.05,305.00 189.82,305.00 190.59,305.00 191.36,305.00 192.14,305.00 192.91,305.00 193.67,305.00 194.44,305.00 195.21,305.00 195.99,305.00 196.77,305.00 197.54,305.00 198.31,305.00 199.07,305.00 199.84,305.00 200.60,305.00 201.37,305.00 202.14,305.00 202.90,305.00 203.66,305.00 204.44,305.00 205.21,305.00 205.98,305.00 206.75,305.00 207.54,305.00 208.30,305.00 209.07,305.00 209.84,305.00 210.60,305.00 211.43,305.00 212.22,305.00 212.98,305.00 213.75,305.00 214.51,305.00 215.28,305.00 216.05,305.00 216.82,305.00 217.59,305.00 218.36,305.00 219.12,305.00 219.89,305.00 220.68,305.00 221.44,305.00 222.21,305.00 222.97,305.00 223.75,305.00 224.53,305.00 225.32,305.00 226.08,305.00 226.85,305.00 227.62,305.00 228.39,305.00 229.16,305.00 229.93,305.00 230.71,305.00 231.47,305.00 232.24,305.00 233.01,305.00 233.78,305.00 234.55,305.00 235.32,305.00 236.10,305.00 236.87,305.00 237.63,305.00 238.39,305.00 239.16,305.00 239.93,305.00 240.70,305.00 241.46,305.00 242.23,305.00 242.99,305.00 243.76,305.00 244.53,305.00 245.30,305.00 246.08,305.00 246.85,305.00 247.62,305.00 248.40,305.00 249.16,305.00 249.94,305.00 250.70,305.00 251.47,305.00 252.24,305.00 253.03,305.00 253.80,305.00 254.57,305.00 255.34,305.00 256.11,305.00 256.88,305.00 257.64,305.00 258.41,305.00 259.18,305.00 259.95,305.00 260.72,305.00 261.49,305.00 262.26,305.00 263.03,305.00 263.80,305.00 264.58,305.00 265.35,305.00 266.12,305.00 266.88,305.00 267.66,305.00 268.44,305.00 269.21,305.00 269.98,305.00 270.74,305.00 271.60,305.00 272.37,305.00 273.14,305.00 273.91,305.00 274.69,305.00 275.46,305.00 276.23,305.00 277.00,305.00 277.76,305.00 278.56,305.00 279.34,305.00 280.10,305.00 280.87,305.00 281.64,305.00 282.41,305.00 283.18,305.00 283.97,305.00 284.74,305.00 285.51,305.00 286.29,305.00 287.12,305.00 287.89,305.00 288.86,305.00 290.16,305.00 290.94,305.00 291.73,305.00 292.50,305.00 293.25,305.00 294.02,305.00 294.80,305.00 295.57,305.00 296.34,305.00 297.15,305.00 297.94,305.00 298.76,305.00 299.53,305.00 300.30,305.00 301.07,305.00 301.85,305.00 302.63,305.00 303.40,305.00 304.17,305.00 304.94,305.00 305.74,305.00 306.51,305.00 307.27,305.00 308.04,305.00 308.82,305.00 309.62,305.00 310.40,305.00 311.17,305.00 311.96,305.00 312.69,305.00 313.46,305.00 314.24,305.00 315.01,305.00 315.79,305.00 316.58,305.00 317.36,305.00 318.12,305.00 318.90,305.00 319.68,305.00 320.45,305.00 321.22,305.00 321.98,305.00 322.75,305.00 323.53,305.00 324.29,305.00 325.21,305.00 326.11,305.00 327.02,305.00 327.92,305.00 328.80,305.00 329.68,305.00 330.59,305.00 331.49,305.00 332.26,305.00 333.02,305.00 333.79,305.00 334.56,305.00 335.32,305.00 336.09,305.00 336.85,305.00 337.62,305.00 338.39,305.00 339.15,305.00 339.92,305.00 340.69,305.00 341.45,305.00 342.22,305.00 342.98,305.00 343.75,305.00 344.52,305.00 345.28,305.00 346.05,305.00 346.83,305.00 347.59,305.00 348.35,305.00 349.11,305.00 349.88,305.00 350.65,305.00 351.42,305.00 352.19,305.00 352.95,305.00 353.72,305.00 354.49,305.00 355.26,305.00 356.02,305.00 356.79,305.00 357.55,305.00 358.31,305.00 359.07,305.00 359.84,305.00 360.60,305.00 361.36,305.00 362.13,305.00 362.89,305.00 363.66,305.00 364.42,305.00 365.18,305.00 365.94,305.00 366.73,305.00 367.56,305.00 368.33,305.00 369.10,305.00 369.87,305.00 370.63,305.00 371.39,305.00 372.15,305.00 372.92,305.00 373.83,305.00 374.73,305.00 375.62,305.00 376.52,305.00 377.43,305.00 378.32,305.00 379.24,305.00 380.17,305.00 381.01,305.00 381.84,305.00 382.61,305.00 383.38,305.00 384.15,305.00 384.91,305.00 385.68,305.00 386.45,305.00 387.21,305.00 387.98,305.00 388.74,305.00 389.51,305.00 390.28,305.00 391.05,305.00 391.83,305.00 392.59,305.00 393.36,305.00 394.03,35.00 394.82,35.00 395.59,35.00 396.37,35.00 397.14,35.00 397.91,35.00 398.68,35.00 399.46,35.00 400.23,35.00 401.01,35.00 401.78,35.00 402.56,35.00 403.32,35.00 404.08,35.00 404.85,35.00 405.61,35.00 406.38,35.00 407.14,35.00 407.92,35.00 408.68,35.00 409.45,35.00 410.22,35.00 410.98,35.00 411.76,35.00 412.53,35.00 413.30,35.00 414.07,35.00 414.84,35.00 415.60,35.00 416.38,35.00 417.15,35.00 417.94,35.00 418.70,35.00 419.47,35.00 420.24,35.00 421.00,35.00 421.76,35.00 422.54,35.00 423.30,35.00 424.07,35.00 424.84,35.00 425.60,35.00 426.37,35.00 427.14,35.00 427.91,35.00 428.68,35.00 429.61,35.00 430.40,35.00 431.18,35.00 431.96,35.00 432.73,35.00 433.51,35.00 434.27,35.00 435.03,35.00 435.81,35.00 436.59,35.00 437.35,35.00 438.12,35.00 438.89,35.00 439.66,35.00 440.46,35.00 441.24,35.00 442.01,35.00 442.78,35.00 443.55,35.00 444.32,35.00 445.08,35.00 445.85,35.00 446.65,35.00 447.42,35.00 448.20,35.00 448.97,35.00 449.73,35.00 450.51,35.00 451.27,35.00 452.04,35.00 452.81,35.00 453.59,35.00 454.36,35.00 455.13,35.00 455.89,35.00 456.66,35.00 457.43,35.00 458.21,35.00 458.98,35.00 459.75,35.00 460.51,35.00 461.28,35.00 462.07,35.00 462.84,35.00 463.76,35.00 464.55,35.00 465.32,35.00 466.09,35.00 466.86,35.00 467.63,35.00 468.40,35.00 469.17,35.00 469.96,35.00 470.72,35.00 471.49,35.00 472.25,35.00 473.02,35.00 473.79,35.00 474.56,35.00 475.33,35.00 476.10,35.00 476.86,35.00 477.63,35.00 478.40,35.00 479.18,35.00 479.94,35.00 480.71,35.00 481.48,35.00 482.26,35.00 483.03,35.00 483.79,35.00 484.57,35.00 485.36,35.00 486.12,35.00 486.89,35.00 487.67,35.00 488.44,35.00 489.20,35.00 489.97,35.00 490.75,35.00 491.53,35.00 492.30,35.00 493.07,35.00 493.83,35.00 494.60,35.00 495.37,35.00 496.14,35.00 496.90,35.00 497.68,35.00 498.46,35.00 499.23,35.00 499.99,35.00 500.77,35.00 501.53,35.00 502.30,35.00 503.07,35.00 503.84,35.00 504.60,35.00 505.38,35.00 506.15,35.00 506.92,35.00 507.70,35.00 508.47,35.00 509.25,35.00 510.02,35.00 510.79,35.00 511.66,35.00 512.50,35.00 513.33,35.00 514.10,35.00 514.91,35.00 515.68,35.00 516.45,35.00 517.21,35.00 517.93,35.00 518.73,35.00 519.50,35.00 520.28,35.00 521.04,35.00 521.81,35.00 522.58,35.00 523.35,35.00 524.12,35.00 524.89,35.00 525.66,35.00 526.43,35.00 527.20,35.00 527.98,35.00 528.75,35.00 529.53,35.00 530.30,35.00 531.07,35.00 531.84,35.00 532.63,35.00 533.40,35.00 534.17,35.00 534.93,35.00 535.71,35.00 536.47,35.00 537.24,35.00 538.01,35.00 538.78,35.00 539.56,35.00 540.33,35.00 541.09,35.00 541.87,35.00 542.64,35.00 543.41,35.00 544.19,35.00 544.95,35.00 545.72,35.00 546.50,35.00 547.27,35.00 548.04,35.00 548.82,35.00 549.59,35.00 550.36,35.00 551.14,35.00 551.91,35.00 552.69,35.00 553.48,35.00 554.25,35.00 555.03,35.00 555.79,35.00 556.56,35.00 557.33,35.00 558.11,35.00 558.88,35.00 559.66,35.00 560.42,35.00 561.20,35.00 561.97,35.00 562.74,35.00 563.52,35.00 564.29,35.00 565.07,35.00 565.84,35.00 566.62,35.00 567.40,35.00 568.17,35.00 568.94,35.00 569.71,35.00 570.48,35.00 571.27,35.00 572.05,35.00 572.83,35.00 573.60,35.00 574.36,35.00 575.13,35.00 575.90,35.00 576.68,35.00 577.45,35.00 578.22,35.00 578.99,35.00 579.76,35.00 580.54,35.00 581.31,35.00 582.09,35.00 582.85,35.00 583.63,35.00 584.41,35.00 585.18,35.00 585.95,35.00 586.72,35.00 587.49,35.00 588.25,35.00 589.02,35.00 589.80,35.00 590.58,35.00 591.35,35.00 592.13,35.00 592.89,35.00 593.67,35.00 594.45,35.00 595.22,35.00 595.99,35.00 596.77,35.00 597.54,35.00 598.32,35.00 599.09,35.00 599.87,35.00 600.65,35.00 601.42,35.00 602.21,35.00 602.98,35.00 603.76,35.00 604.53,35.00 605.30,35.00 606.08,35.00 606.86,35.00 607.63,35.00 608.41,35.00 609.18,35.00 609.95,35.00 610.72,35.00 611.51,35.00 612.28,35.00 613.06,35.00 613.83,35.00 614.60,35.00 615.36,35.00 616.13,35.00 616.90,35.00 617.67,35.00 618.44,35.00 619.22,35.00 619.99,35.00 620.76,35.00 621.53,35.00 622.33,35.00 623.10,35.00 623.87,35.00 624.64,35.00 625.41,35.00 626.18,35.00 626.95,35.00 627.73,35.00 628.50,35.00 629.27,35.00 630.05,35.00 630.82,35.00 631.59,35.00 632.37,35.00 633.15,35.00 633.94,35.00 634.72,35.00 635.50,35.00 636.27,35.00 637.05,35.00 637.83,35.00 638.59,35.00 639.36,35.00 640.13,35.00 640.91,35.00 641.68,35.00 642.46,35.00 643.23,35.00 644.01,35.00 644.82,35.00 645.59,35.00 646.36,35.00 647.13,35.00 647.91,35.00 648.68,35.00 649.46,35.00 650.24,35.00 651.02,35.00 651.80,35.00 652.57,35.00 653.35,35.00 654.12,35.00 654.90,35.00 655.67,35.00 656.44,35.00 657.21,35.00 657.99,35.00 658.77,35.00 659.54,35.00 660.32,35.00 661.09,35.00 661.87,35.00 662.64,35.00 663.42,35.00 664.19,35.00 664.99,35.00 665.77,35.00 666.55,35.00 667.32,35.00 668.11,35.00 668.90,35.00 669.69,35.00 670.48,35.00 671.28,35.00 672.05,35.00 672.82,35.00 673.60,35.00 674.37,35.00 675.15,35.00 675.93,35.00 676.72,35.00 677.49,35.00 678.27,35.00 679.04,35.00 679.81,35.00 680.58,35.00 681.36,35.00 682.13,35.00 682.90,35.00 683.67,35.00 684.44,35.00 685.21,35.00 685.97,35.00 686.75,35.00 687.52,35.00 688.30,35.00 689.07,35.00 689.85,35.00 690.63,35.00 691.40,35.00 692.17,35.00 692.95,35.00 693.72,35.00 694.49,35.00 695.26,35.00 696.04,35.00 696.81,35.00 697.58,35.00 698.34,35.00 699.11,35.00 699.88,35.00 700.66,35.00 701.43,35.00 702.21,35.00 702.98,35.00 703.75,35.00 704.52,35.00 705.30,35.00 706.07,35.00 706.83,35.00 707.59,35.00 708.35,35.00 709.13,35.00 709.90,35.00 710.69,35.00 711.46,35.00 712.23,35.00 713.00,35.00 713.79,35.00 714.57,35.00 715.34,35.00 716.12,35.00 716.89,35.00 717.66,35.00 718.44,35.00 719.21,35.00 720.00,35.00 720.78,35.00 721.55,35.00 722.31,35.00 723.09,35.00 723.85,35.00 724.63,35.00 725.40,35.00 726.16,35.00 726.93,35.00 727.71,35.00 728.48,35.00 729.25,35.00 730.02,35.00 730.79,35.00 731.57,35.00 732.34,35.00 733.12,35.00 733.89,35.00 734.66,35.00 735.44,35.00 736.22,35.00 736.98,35.00 737.75,35.00 738.53,35.00 739.30,35.00 740.07,35.00 740.85,35.00 741.63,35.00 742.40,35.00 743.16,35.00 743.93,35.00 744.73,35.00 745.51,35.00 746.29,35.00 747.08,35.00 747.85,35.00 748.63,35.00 749.40,35.00 750.18,35.00 750.95,35.00 751.72,35.00 752.50,35.00 753.29,35.00 754.07,35.00 754.84,35.00 755.61,35.00 756.38,35.00 757.16,35.00 757.94,35.00 758.70,35.00 759.47,35.00 760.25,35.00 761.02,35.00 761.79,35.00 762.56,35.00 763.34,35.00 764.10,35.00 764.87,35.00 765.65,35.00 766.42,35.00 767.19,35.00 767.97,35.00 768.74,35.00 769.51,35.00 770.28,35.00 771.06,35.00 771.82,35.00 772.60,35.00 773.37,35.00 774.16,35.00 774.93,35.00 775.70,35.00 776.47,35.00 777.24,35.00 778.01,35.00 778.78,35.00 779.57,35.00 780.36,35.00 781.14,35.00 781.93,35.00 782.72,35.00 783.51,35.00 784.30,35.00 785.09,35.00 785.89,35.00 786.68,35.00 787.47,35.00 788.24,35.00 789.01,35.00 789.79,35.00 790.57,35.00 791.34,35.00 792.12,35.00 792.89,35.00 793.67,35.00 794.45,35.00 795.22,35.00 795.99,35.00 796.76,35.00 797.53,35.00 798.30,35.00 799.07,35.00 799.85,35.00 800.62,35.00 801.39,35.00 802.18,35.00 802.96,35.00 803.73,35.00 804.50,35.00 805.27,35.00 806.04,35.00 806.82,35.00 807.59,35.00 808.37,35.00 809.13,35.00 809.91,35.00 810.68,35.00 811.46,35.00 812.23,35.00 813.00,35.00 813.78,35.00 814.61,35.00 815.40,35.00 816.17,35.00 816.95,35.00 817.71,35.00 818.50,35.00 819.28,35.00 820.06,35.00 820.84,35.00 821.60,35.00 822.36,35.00 823.13,35.00 823.90,35.00 824.68,35.00 825.45,35.00 826.22,35.00 827.00,35.00 827.78,35.00 828.56,35.00 829.33,35.00 830.10,35.00 830.87,35.00 831.65,35.00 832.42,35.00 833.19,35.00 833.96,35.00 834.74,35.00 835.52,35.00 836.29,35.00 837.10,35.00 837.87,35.00 838.64,35.00 839.41,35.00 840.19,35.00 840.96,35.00 841.74,35.00 842.52,35.00 843.29,35.00 844.06,35.00 844.84,35.00 845.62,35.00 846.40,35.00 847.18,35.00 847.95,35.00 848.72,35.00 849.50,35.00 850.27,35.00 851.05,35.00 851.81,35.00 852.60,35.00 853.37,35.00 854.14,35.00 854.92,35.00 855.69,35.00 856.46,35.00 857.24,35.00 858.00,35.00 858.78,35.00 859.55,35.00 860.33,35.00 861.10,35.00 861.87,35.00 862.64,35.00 863.42,35.00 864.19,35.00 864.97,35.00 865.74,35.00 866.50,35.00 867.27,35.00 868.04,35.00 868.82,35.00 869.59,35.00 870.39,35.00 871.16,35.00 871.94,35.00 872.72,35.00 873.49,35.00 874.27,35.00 875.10,35.00 875.89,35.00 876.67,35.00 877.45,35.00 878.24,35.00 879.01,35.00 879.78,35.00 880.55,35.00 881.33,35.00 882.10,35.00 882.88,35.00 883.65,35.00 884.43,35.00 885.22,35.00 885.99,35.00 886.77,35.00 887.54,35.00 888.32,35.00 889.09,35.00 889.87,35.00 890.64,35.00 891.41,35.00 892.20,35.00 892.97,35.00 893.74,35.00 894.52,35.00 895.30,35.00 896.08,35.00 896.86,35.00 897.63,35.00 898.41,35.00 899.18,35.00 899.96,35.00 900.74,35.00 901.50,35.00 902.27,35.00 903.05,35.00 903.82,35.00 904.59,35.00 905.37,35.00 906.14,35.00 906.91,35.00 907.69,35.00 908.47,35.00 909.24,35.00 910.02,35.00 910.79,35.00 911.57,35.00 912.35,35.00 913.10,35.00 913.86,35.00 914.63,35.00 915.41,35.00 916.18,35.00 916.96,35.00 917.74,35.00 918.51,35.00 919.30,35.00 920.08,35.00 920.85,35.00 921.62,35.00 922.39,35.00 923.16,35.00 923.93,35.00 924.70,35.00 925.47,35.00 926.25,35.00 927.02,35.00 927.78,35.00 928.55,35.00 929.33,35.00 930.11,35.00 930.88,35.00 931.65,35.00 932.42,35.00 933.16,35.00 933.96,35.00 934.73,35.00 935.50,35.00 936.28,35.00 937.06,35.00 937.83,35.00 938.60,35.00 939.38,35.00 940.16,35.00 940.93,35.00 941.70,35.00 942.53,35.00 943.30,35.00 944.09,35.00 944.86,35.00 945.65,35.00 946.41,35.00 947.18,35.00 947.96,35.00 948.73,35.00 949.50,35.00 950.27,35.00 951.05,35.00 951.83,35.00 952.61,35.00 953.38,35.00 954.15,35.00 954.92,35.00 955.70,35.00 956.47,35.00 957.25,35.00 958.03,35.00 958.81,35.00 959.60,35.00 960.38,35.00 961.15,35.00 961.93,35.00 962.71,35.00 963.49,35.00 964.26,35.00 965.03,35.00 965.80,35.00 966.58,35.00 967.35,35.00 968.13,35.00 968.90,35.00 969.68,35.00 970.45,35.00 971.23,35.00 971.99,35.00 972.76,35.00 973.54,35.00 974.31,35.00 975.08,35.00 975.85,35.00 976.63,35.00 977.39,35.00 978.16,35.00 978.93,35.00 979.70,35.00 980.47,35.00 981.24,35.00 982.01,35.00 982.78,35.00 983.55,35.00 984.32,35.00 985.09,35.00 985.87,35.00 986.64,35.00 987.41,35.00 988.17,35.00 988.94,35.00 989.73,35.00 990.49,35.00 991.26,35.00 992.04,35.00 992.85,35.00 993.61,35.00 994.39,35.00 995.17,35.00 995.95,35.00 996.72,35.00 997.50,35.00 998.27,35.00 999.05,35.00 999.82,35.00 1000.58,35.00 1001.35,35.00 1002.13,35.00 1002.90,35.00 1003.68,35.00 1004.45,35.00 1005.21,35.00 1005.99,35.00 1006.76,35.00 1007.53,35.00 1008.31,35.00 1009.12,35.00 1009.89,35.00 1010.66,35.00 1011.42,35.00 1012.19,35.00 1012.98,35.00 1013.74,35.00 1014.52,35.00 1015.29,35.00 1016.07,35.00 1016.84,35.00 1017.62,35.00 1018.39,35.00 1019.17,35.00 1019.94,35.00 1020.71,35.00 1021.49,35.00 1022.26,35.00 1023.03,35.00 1023.79,35.00 1024.56,35.00 1025.34,35.00 1026.11,35.00 1026.88,35.00 1027.65,35.00 1028.42,35.00 1029.20,35.00 1029.97,35.00 1030.74,35.00 1031.52,35.00 1032.29,35.00 1033.06,35.00 1033.83,35.00 1034.61,35.00 1035.38,35.00 1036.15,35.00 1036.93,35.00 1037.69,35.00 1038.46,35.00 1039.23,35.00 1040.01,35.00 1040.77,35.00 1041.57,35.00 1042.34,35.00 1043.11,35.00 1043.88,35.00 1044.66,35.00 1045.44,35.00 1046.22,35.00 1047.00,35.00 1047.82,35.00 1048.60,35.00 1049.43,35.00 1050.20,35.00 1050.97,35.00 1051.73,35.00 1052.51,35.00 1053.28,35.00 1054.06,35.00 1054.83,35.00 1055.60,35.00 1056.37,35.00 1057.15,35.00 1057.92,35.00 1058.69,35.00 1059.46,35.00 1060.23,35.00 1061.00,35.00 1061.77,35.00 1062.53,35.00 1063.32,35.00 1064.09,35.00 1064.87,35.00 1065.64,35.00 1066.40,35.00 1067.17,35.00 1067.94,35.00 1068.73,35.00 1069.50,35.00 1070.27,35.00 1071.05,35.00 1071.82,35.00 1072.58,35.00 1073.35,35.00 1074.13,35.00 1074.90,35.00 1075.67,35.00 1076.43,35.00 1077.20,35.00 1077.97,35.00 1078.74,35.00 1079.51,35.00 1080.29,35.00 1081.06,35.00 1081.86,35.00 1082.64,35.00 1083.41,35.00 1084.18,35.00 1084.95,35.00 1085.71,35.00 1086.48,35.00 1087.25,35.00 1088.02,35.00 1088.79,35.00 1089.56,35.00 1090.33,35.00 1091.09,35.00 1091.86,35.00 1092.64,35.00 1093.40,35.00 1094.18,35.00 1094.96,35.00 1095.72,35.00 1096.49,35.00 1097.27,35.00 1098.04,35.00 1098.81,35.00 1099.59,35.00 1100.36,35.00 1101.13,35.00 1101.91,35.00 1102.68,35.00 1103.47,35.00 1104.23,35.00 1105.00,35.00 1105.77,35.00 1106.55,35.00 1107.32,35.00 1108.11,35.00 1108.89,35.00 1109.67,35.00 1110.44,35.00 1111.21,35.00 1111.99,35.00 1112.76,35.00 1113.53,35.00 1114.31,35.00 1115.08,35.00 1115.84,35.00 1116.62,35.00 1117.40,35.00 1118.18,35.00 1118.95,35.00 1119.74,35.00 1120.53,35.00 1121.35,35.00 1122.13,35.00 1122.90,35.00 1123.67,35.00 1124.44,35.00 1125.22,35.00 1125.99,35.00 1126.76,35.00 1127.54,35.00 1128.31,35.00 1129.09,35.00 1129.86,35.00 1130.62,35.00 1131.40,35.00 1132.17,35.00 1132.95,35.00 1133.74,35.00 1134.53,35.00 1135.30,35.00 1136.09,35.00 1136.90,35.00 1137.67,35.00 1138.50,35.00 1139.27,35.00 1140.04,35.00 1140.82,35.00 1141.59,35.00 1142.37,35.00 1143.14,35.00 1143.91,35.00 1144.68,35.00 1145.45,35.00 1146.22,35.00 1147.01,35.00 1147.79,35.00 1148.56,35.00 1149.35,35.00 1150.25,35.00 1151.03,35.00 1151.79,35.00 1152.56,35.00 1153.33,35.00 1154.09,35.00 1154.86,305.00 1155.57,305.00 1156.26,35.00 1157.10,35.00 1157.83,35.00 1158.53,35.00 1159.32,305.00 1159.99,35.00 1160.76,35.00 1161.53,35.00 1162.31,35.00 1163.08,35.00 1163.84,35.00 1164.61,35.00 1165.38,35.00 1166.15,35.00 1166.93,35.00 1167.70,35.00 1168.46,35.00 1169.23,35.00 1170.01,35.00 1170.77,35.00 1171.54,35.00 1172.31,35.00 1173.07,35.00 1173.84,35.00 1174.61,35.00 1175.38,35.00 1176.15,35.00 1176.92,35.00 1177.70,35.00 1178.47,35.00 1179.23,35.00 1180.00,35.00"/>
<polyline fill="none" stroke="#ff7f0e" stroke-opacity="0.50" stroke-width="2" points="70.00,35.00 70.77,35.00 71.54,35.00 72.31,35.00 73.08,35.00 73.86,35.00 74.62,35.00 75.39,35.00 76.23,35.00 76.99,35.00 77.76,35.00 78.52,35.00 79.30,35.00 80.07,35.00 80.83,35.00 82.22,35.00 83.41,35.00 84.19,35.00 84.98,35.00 85.75,35.00 86.51,35.00 87.27,35.00 88.04,35.00 88.81,35.00 89.58,35.00 90.36,35.00 91.14,35.00 91.91,35.00 92.69,35.00 93.49,35.00 94.27,35.00 95.04,35.00 95.83,35.00 96.60,35.00 97.37,35.00 98.16,35.00 98.92,35.00 99.69,35.00 100.48,35.00 101.24,35.00 102.01,35.00 102.77,35.00 103.53,35.00 104.31,35.00 105.07,35.00 105.86,35.00 106.64,35.00 107.40,35.00 108.16,35.00 108.94,35.00 109.71,35.00 110.59,35.00 111.36,35.00 112.13,35.00 112.89,35.00 113.65,35.00 114.42,35.00 115.18,35.00 115.95,35.00 116.72,35.00 117.50,35.00 118.27,35.00 119.03,35.00 119.81,35.00 120.59,35.00 121.35,35.00 122.13,35.00 122.89,35.00 123.65,35.00 124.41,35.00 125.18,35.00 125.94,35.00 126.71,35.00 127.48,35.00 128.25,35.00 129.02,35.00 129.78,35.00 130.55,35.00 131.31,35.00 132.08,35.00 132.87,35.00 133.64,35.00 134.40,35.00 135.18,35.00 135.94,35.00 136.71,35.00 137.48,35.00 138.24,35.00 139.01,35.00 139.78,35.00 140.55,35.00 141.32,35.00 142.10,35.00 142.86,35.00 143.63,35.00 144.39,35.00 145.16,35.00 145.92,35.00 146.69,35.00 147.46,35.00 148.23,35.00 149.00,35.00 149.77,35.00 150.54,35.00 151.32,35.00 152.09,35.00 152.86,35.00 153.63,35.00 154.39,35.00 155.16,35.00 155.93,35.00 156.70,35.00 157.47,35.00 158.24,35.00 159.01,35.00 159.78,35.00 160.56,35.00 161.34,35.00 162.10,35.00 162.87,35.00 163.64,35.00 164.41,35.00 165.18,35.00 165.95,35.00 166.79,35.00 167.55,35.00 168.33,35.00 169.10,35.00 169.86,35.00 170.62,35.00 171.38,35.00 172.15,35.00 172.92,35.00 173.68,35.00 174.45,35.00 175.22,35.00 175.98,35.00 176.75,35.00 177.53,35.00 178.30,35.00 179.06,35.00 179.83,35.00 180.60,35.00 181.36,35.00 182.13,35.00 182.91,35.00 183.68,35.00 184.45,35.00 185.21,35.00 185.98,35.00 186.74,35.00 187.51,35.00 188.28,35.00 189.05,35.00 189.82,35.00 190.59,35.00 191.36,35.00 192.14,35.00 192.91,35.00 193.67,35.00 194.44,35.00 195.21,35.00 195.99,35.00 196.77,35.00 197.54,35.00 198.31,35.00 199.07,35.00 199.84,35.00 200.60,35.00 201.37,35.00 202.14,35.00 202.90,35.00 203.66,35.00 204.44,35.00 205.21,35.00 205.98,35.00 206.75,35.00 207.54,35.00 208.30,35.00 209.07,35.00 209.84,35.00 210.60,35.00 211.43,35.00 212.22,35.00 212.98,35.00 213.75,35.00 214.51,35.00 215.28,35.00 216.05,35.00 216.82,35.00 217.59,35.00 218.36,35.00 219.12,35.00 219.89,35.00 220.68,35.00 221.44,35.00 222.21,35.00 222.97,35.00 223.75,35.00 224.53,35.00 225.32,35.00 226.08,35.00 226.85,35.00 227.62,35.00 228.39,35.00 229.16,35.00 229.93,35.00 230.71,35.00 231.47,35.00 232.24,35.00 233.01,35.00 233.78,35.00 234.55,35.00 235.32,35.00 236.10,35.00 236.87,35.00 237.63,35.00 238.39,35.00 239.16,35.00 239.93,35.00 240.70,35.00 241.46,35.00 242.23,35.00 242.99,35.00 243.76,35.00 244.53,35.00 245.30,35.00 246.08,35.00 246.85,35.00 247.62,35.00 248.40,35.00 249.16,35.00 249.94,35.00 250.70,35.00 251.47,35.00 252.24,35.00 253.03,35.00 253.80,35.00 254.57,35.00 255.34,35.00 256.11,35.00 256.88,35.00 257.64,35.00 258.41,35.00 259.18,35.00 259.95,35.00 260.72,35.00 261.49,35.00 262.26,35.00 263.03,35.00 263.80,35.00 264.58,35.00 265.35,35.00 266.12,35.00 266.88,35.00 267.66,35.00 268.44,35.00 269.21,35.00 269.98,35.00 270.74,35.00 271.60,35.00 272.37,35.00 273.14,35.00 273.91,35.00 274.69,35.00 275.46,35.00 276.23,35.00 277.00,35.00 277.76,35.00 278.56,35.00 279.34,35.00 280.10,35.00 280.87,35.00 281.64,35.00 282.41,35.00 283.18,35.00 283.97,35.00 284.74,35.00 285.51,35.00 286.29,35.00 287.12,35.00 287.89,35.00 288.86,35.00 290.16,35.00 290.94,35.00 291.73,35.00 292.50,35.00 293.25,35.00 294.02,35.00 294.80,35.00 295.57,35.00 296.34,35.00 297.15,35.00 297.94,35.00 298.76,35.00 299.53,35.00 300.30,35.00 301.07,35.00 301.85,35.00 302.63,35.00 303.40,35.00 304.17,35.00 304.94,35.00 305.74,35.00 306.51,35.00 307.27,35.00 308.04,35.00 308.82,35.00 309.62,35.00 310.40,35.00 311.17,35.00 311.96,35.00 312.69,35.00 313.46,35.00 314.24,35.00 315.01,35.00 315.79,35.00 316.58,35.00 317.36,35.00 318.12,35.00 318.90,35.00 319.68,35.00 320.45,35.00 321.22,35.00 321.98,35.00 322.75,35.00 323.53,35.00 324.29,35.00 325.21,35.00 326.11,35.00 327.02,35.00 327.92,35.00 328.80,35.00 329.68,35.00 330.59,35.00 331.49,35.00 332.26,35.00 333.02,35.00 333.79,35.00 334.56,35.00 335.32,35.00 336.09,35.00 336.85,35.00 337.62,35.00 338.39,35.00 339.15,35.00 339.92,35.00 340.69,35.00 341.45,35.00 342.22,35.00 342.98,35.00 343.75,35.00 344.52,35.00 345.28,35.00 346.05,35.00 346.83,35.00 347.59,35.00 348.35,35.00 349.11,35.00 349.88,35.00 350.65,35.00 351.42,35.00 352.19,35.00 352.95,35.00 353.72,35.00 354.49,35.00 355.26,35.00 356.02,35.00 356.79,35.00 357.55,35.00 358.31,35.00 359.07,35.00 359.84,35.00 360.60,35.00 361.36,35.00 362.13,35.00 362.89,35.00 363.66,35.00 364.42,35.00 365.18,35.00 365.94,35.00 366.73,35.00 367.56,35.00 368.33,35.00 369.10,35.00 369.87,35.00 370.63,35.00 371.39,35.00 372.15,35.00 372.92,35.00 373.83,35.00 374.73,35.00 375.62,35.00 376.52,35.00 377.43,35.00 378.32,35.00 379.24,35.00 380.17,35.00 381.01,35.00 381.84,35.00 382.61,35.00 383.38,35.00 384.15,35.00 384.91,35.00 385.68,35.00 386.45,35.00 387.21,35.00 387.98,35.00 388.74,35.00 389.51,35.00 390.28,35.00 391.05,35.00 391.83,35.00 392.59,35.00 393.36,35.00 394.03,35.00 394.82,35.00 395.59,35.00 396.37,35.00 397.14,35.00 397.91,35.00 398.68,35.00 399.46,35.00 400.23,35.00 401.01,35.00 401.78,35.00 402.56,35.00 403.32,35.00 404.08,35.00 404.85,35.00 405.61,35.00 406.38,35.00 407.14,35.00 407.92,35.00 408.68,35.00 409.45,35.00 410.22,35.00 410.98,35.00 411.76,35.00 412.53,35.00 413.30,35.00 414.07,35.00 414.84,35.00 415.60,35.00 416.38,35.00 417.15,35.00 417.94,35.00 418.70,35.00 419.47,35.00 420.24,35.00 421.00,35.00 421.76,35.00 422.54,35.00 423.30,35.00 424.07,35.00 424.84,35.00 425.60,35.00 426.37,35.00 427.14,35.00 427.91,35.00 428.68,35.00 429.61,35.00 430.40,35.00 431.18,35.00 431.96,35.00 432.73,35.00 433.51,35.00 434.27,35.00 435.03,35.00 435.81,35.00 436.59,35.00 437.35,35.00 438.12,35.00 438.89,35.00 439.66,35.00 440.46,35.00 441.24,35.00 442.01,35.00 442.78,35.00 443.55,35.00 444.32,35.00 445.08,35.00 445.85,35.00 446.65,35.00 447.42,35.00 448.20,35.00 448.97,35.00 449.73,35.00 450.51,35.00 451.27,35.00 452.04,35.00 452.81,35.00 453.59,35.00 454.36,35.00 455.13,35.00 455.89,35.00 456.66,35.00 457.43,35.00 458.21,35.00 458.98,35.00 459.75,35.00 460.51,35.00 461.28,35.00 462.07,35.00 462.84,35.00 463.76,35.00 464.55,35.00 465.32,35.00 466.09,35.00 466.86,35.00 467.63,35.00 468.40,35.00 469.17,35.00 469.96,35.00 470.72,35.00 471.49,35.00 472.25,35.00 473.02,35.00 473.79,35.00 474.56,35.00 475.33,35.00 476.10,35.00 476.86,35.00 477.63,35.00 478.40,35.00 479.18,35.00 479.94,35.00 480.71,35.00 481.48,35.00 482.26,35.00 483.03,35.00 483.79,35.00 484.57,35.00 485.36,35.00 486.12,35.00 486.89,35.00 487.67,35.00 488.44,35.00 489.20,35.00 489.97,35.00 490.75,35.00 491.53,35.00 492.30,35.00 493.07,35.00 493.83,35.00 494.60,35.00 495.37,35.00 496.14,35.00 496.90,35.00 497.68,35.00 498.46,35.00 499.23,35.00 499.99,35.00 500.77,35.00 501.53,35.00 502.30,35.00 503.07,35.00 503.84,35.00 504.60,35.00 505.38,35.00 506.15,35.00 506.92,35.00 507.70,35.00 508.47,35.00 509.25,35.00 510.02,35.00 510.79,35.00 511.66,35.00 512.50,35.00 513.33,35.00 514.10,35.00 514.91,35.00 515.68,35.00 516.45,35.00 517.21,35.00 517.93,35.00 518.73,35.00 519.50,35.00 520.28,35.00 521.04,35.00 521.81,35.00 522.58,35.00 523.35,35.00 524.12,35.00 524.89,35.00 525.66,35.00 526.43,35.00 527.20,35.00 527.98,35.00 528.75,35.00 529.53,35.00 530.30,35.00 531.07,35.00 531.84,35.00 532.63,35.00 533.40,35.00 534.17,35.00 534.93,35.00 535.71,35.00 536.47,35.00 537.24,35.00 538.01,35.00 538.78,35.00 539.56,35.00 540.33,35.00 541.09,35.00 541.87,35.00 542.64,35.00 543.41,35.00 544.19,35.00 544.95,35.00 545.72,35.00 546.50,35.00 547.27,35.00 548.04,35.00 548.82,35.00 549.59,35.00 550.36,35.00 551.14,35.00 551.91,35.00 552.69,35.00 553.48,35.00 554.25,35.00 555.03,35.00 555.79,35.00 556.56,35.00 557.33,35.00 558.11,35.00 558.88,35.00 559.66,35.00 560.42,35.00 561.20,35.00 561.97,35.00 562.74,35.00 563.52,35.00 564.29,35.00 565.07,35.00 565.84,35.00 566.62,35.00 567.40,35.00 568.17,35.00 568.94,35.00 569.71,35.00 570.48,35.00 571.27,35.00 572.05,35.00 572.83,35.00 573.60,35.00 574.36,35.00 575.13,35.00 575.90,35.00 576.68,35.00 577.45,35.00 578.22,35.00 578.99,35.00 579.76,35.00 580.54,35.00 581.31,35.00 582.09,35.00 582.85,35.00 583.63,35.00 584.41,35.00 585.18,35.00 585.95,35.00 586.72,35.00 587.49,35.00 588.25,35.00 589.02,35.00 589.80,35.00 590.58,35.00 591.35,35.00 592.13,35.00 592.89,35.00 593.67,35.00 594.45,35.00 595.22,35.00 595.99,35.00 596.77,35.00 597.54,35.00 598.32,35.00 599.09,35.00 599.87,35.00 600.65,35.00 601.42,35.00 602.21,35.00 602.98,35.00 603.76,35.00 604.53,35.00 605.30,35.00 606.08,35.00 606.86,35.00 607.63,35.00 608.41,35.00 609.18,35.00 609.95,35.00 610.72,35.00 611.51,35.00 612.28,35.00 613.06,35.00 613.83,35.00 614.60,35.00 615.36,35.00 616.13,35.00 616.90,35.00 617.67,35.00 618.44,35.00 619.22,35.00 619.99,35.00 620.76,35.00 621.53,35.00 622.33,35.00 623.10,35.00 623.87,35.00 624.64,35.00 625.41,35.00 626.18,35.00 626.95,35.00 627.73,35.00 628.50,35.00 629.27,35.00 630.05,35.00 630.82,35.00 631.59,35.00 632.37,35.00 633.15,35.00 633.94,35.00 634.72,35.00 635.50,35.00 636.27,35.00 637.05,35.00 637.83,35.00 638.59,35.00 639.36,35.00 640.13,35.00 640.91,35.00 641.68,35.00 642.46,35.00 643.23,35.00 644.01,35.00 644.82,35.00 645.59,35.00 646.36,35.00 647.13,35.00 647.91,35.00 648.68,35.00 649.46,35.00 650.24,35.00 651.02,35.00 651.80,35.00 652.57,35.00 653.35,35.00 654.12,35.00 654.90,35.00 655.67,35.00 656.44,35.00 657.21,35.00 657.99,35.00 658.77,35.00 659.54,35.00 660.32,35.00 661.09,35.00 661.87,35.00 662.64,35.00 663.42,35.00 664.19,35.00 664.99,35.00 665.77,35.00 666.55,35.00 667.32,35.00 668.11,35.00 668.90,35.00 669.69,35.00 670.48,35.00 671.28,35.00 672.05,35.00 672.82,35.00 673.60,35.00 674.37,35.00 675.15,35.00 675.93,35.00 676.72,35.00 677.49,35.00 678.27,35.00 679.04,35.00 679.81,35.00 680.58,35.00 681.36,35.00 682.13,35.00 682.90,35.00 683.67,35.00 684.44,35.00 685.21,35.00 685.97,35.00 686.75,35.00 687.52,35.00 688.30,35.00 689.07,35.00 689.85,35.00 690.63,35.00 691.40,35.00 692.17,35.00 692.95,35.00 693.72,35.00 694.49,35.00 695.26,35.00 696.04,35.00 696.81,35.00 697.58,35.00 698.34,35.00 699.11,35.00 699.88,35.00 700.66,35.00 701.43,35.00 702.21,35.00 702.98,35.00 703.75,35.00 704.52,35.00 705.30,35.00 706.07,35.00 706.83,35.00 707.59,35.00 708.35,35.00 709.13,35.00 709.90,35.00 710.69,35.00 711.46,35.00 712.23,35.00 713.00,35.00 713.79,35.00 714.57,35.00 715.34,35.00 716.12,35.00 716.89,35.00 717.66,35.00 718.44,35.00 719.21,35.00 720.00,35.00 720.78,35.00 721.55,35.00 722.31,35.00 723.09,35.00 723.85,35.00 724.63,35.00 725.40,35.00 726.16,35.00 726.93,35.00 727.71,35.00 728.48,35.00 729.25,35.00 730.02,35.00 730.79,35.00 731.57,35.00 732.34,35.00 733.12,35.00 733.89,35.00 734.66,35.00 735.44,35.00 736.22,35.00 736.98,35.00 737.75,35.00 738.53,35.00 739.30,35.00 740.07,35.00 740.85,35.00 741.63,35.00 742.40,35.00 743.16,35.00 743.93,35.00 744.73,35.00 745.51,35.00 746.29,35.00 747.08,35.00 747.85,35.00 748.63,35.00 749.40,35.00 750.18,35.00 750.95,35.00 751.72,35.00 752.50,35.00 753.29,35.00 754.07,35.00 754.84,35.00 755.61,35.00 756.38,35.00 757.16,35.00 757.94,35.00 758.70,35.00 759.47,35.00 760.25,35.00 761.02,35.00 761.79,35.00 762.56,35.00 763.34,35.00 764.10,35.00 764.87,35.00 765.65,35.00 766.42,35.00 767.19,35.00 767.97,35.00 768.74,35.00 769.51,35.00 770.28,35.00 771.06,35.00 771.82,35.00 772.60,35.00 773.37,35.00 774.16,35.00 774.93,35.00 775.70,35.00 776.47,35.00 777.24,35.00 778.01,35.00 778.78,35.00 779.57,35.00 780.36,35.00 781.14,35.00 781.93,35.00 782.72,35.00 783.51,35.00 784.30,35.00 785.09,35.00 785.89,35.00 786.68,35.00 787.47,35.00 788.24,35.00 789.01,35.00 789.79,35.00 790.57,35.00 791.34,35.00 792.12,35.00 792.89,35.00 793.67,35.00 794.45,35.00 795.22,35.00 795.99,35.00 796.76,35.00 797.53,35.00 798.30,35.00 799.07,35.00 799.85,35.00 800.62,35.00 801.39,35.00 802.18,35.00 802.96,35.00 803.73,35.00 804.50,35.00 805.27,35.00 806.04,35.00 806.82,35.00 807.59,35.00 808.37,35.00 809.13,35.00 809.91,35.00 810.68,35.00 811.46,35.00 812.23,35.00 813.00,35.00 813.78,35.00 814.61,35.00 815.40,35.00 816.17,35.00 816.95,35.00 817.71,35.00 818.50,35.00 819.28,35.00 820.06,35.00 820.84,35.00 821.60,35.00 822.36,35.00 823.13,35.00 823.90,35.00 824.68,35.00 825.45,35.00 826.22,35.00 827.00,35.00 827.78,35.00 828.56,35.00 829.33,35.00 830.10,35.00 830.87,35.00 831.65,35.00 832.42,35.00 833.19,35.00 833.96,35.00 834.74,35.00 835.52,35.00 836.29,35.00 837.10,35.00 837.87,35.00 838.64,35.00 839.41,35.00 840.19,35.00 840.96,35.00 841.74,35.00 842.52,35.00 843.29,35.00 844.06,35.00 844.84,35.00 845.62,35.00 846.40,35.00 847.18,35.00 847.95,35.00 848.72,35.00 849.50,35.00 850.27,35.00 851.05,35.00 851.81,35.00 852.60,35.00 853.37,35.00 854.14,35.00 854.92,35.00 855.69,35.00 856.46,35.00 857.24,35.00 858.00,35.00 858.78,35.00 859.55,35.00 860.33,35.00 861.10,35.00 861.87,35.00 862.64,35.00 863.42,35.00 864.19,35.00 864.97,35.00 865.74,35.00 866.50,35.00 867.27,35.00 868.04,35.00 868.82,35.00 869.59,35.00 870.39,35.00 871.16,35.00 871.94,35.00 872.72,35.00 873.49,35.00 874.27,35.00 875.10,35.00 875.89,35.00 876.67,35.00 877.45,35.00 878.24,35.00 879.01,35.00 879.78,35.00 880.55,35.00 881.33,35.00 882.10,35.00 882.88,35.00 883.65,35.00 884.43,35.00 885.22,35.00 885.99,35.00 886.77,35.00 887.54,35.00 888.32,35.00 889.09,35.00 889.87,35.00 890.64,35.00 891.41,35.00 892.20,35.00 892.97,35.00 893.74,35.00 894.52,35.00 895.30,35.00 896.08,35.00 896.86,35.00 897.63,35.00 898.41,35.00 899.18,35.00 899.96,35.00 900.74,35.00 901.50,35.00 902.27,35.00 903.05,35.00 903.82,35.00 904.59,35.00 905.37,35.00 906.14,35.00 906.91,35.00 907.69,35.00 908.47,35.00 909.24,35.00 910.02,35.00 910.79,35.00 911.57,35.00 912.35,35.00 913.10,35.00 913.86,35.00 914.63,35.00 915.41,35.00 916.18,35.00 916.96,35.00 917.74,35.00 918.51,35.00 919.30,35.00 920.08,35.00 920.85,35.00 921.62,35.00 922.39,35.00 923.16,35.00 923.93,35.00 924.70,35.00 925.47,35.00 926.25,35.00 927.02,35.00 927.78,35.00 928.55,35.00 929.33,35.00 930.11,35.00 930.88,35.00 931.65,35.00 932.42,35.00 933.16,35.00 933.96,35.00 934.73,35.00 935.50,35.00 936.28,35.00 937.06,35.00 937.83,35.00 938.60,35.00 939.38,35.00 940.16,35.00 940.93,35.00 941.70,35.00 942.53,35.00 943.30,35.00 944.09,35.00 944.86,35.00 945.65,35.00 946.41,35.00 947.18,35.00 947.96,35.00 948.73,35.00 949.50,35.00 950.27,35.00 951.05,35.00 951.83,35.00 952.61,35.00 953.38,35.00 954.15,35.00 954.92,35.00 955.70,35.00 956.47,35.00 957.25,35.00 958.03,35.00 958.81,35.00 959.60,35.00 960.38,35.00 961.15,35.00 961.93,35.00 962.71,35.00 963.49,35.00 964.26,35.00 965.03,35.00 965.80,35.00 966.58,35.00 967.35,35.00 968.13,35.00 968.90,35.00 969.68,35.00 970.45,35.00 971.23,35.00 971.99,35.00 972.76,35.00 973.54,35.00 974.31,35.00 975.08,35.00 975.85,35.00 976.63,35.00 977.39,35.00 978.16,35.00 978.93,35.00 979.70,35.00 980.47,35.00 981.24,35.00 982.01,35.00 982.78,35.00 983.55,35.00 984.32,35.00 985.09,35.00 985.87,35.00 986.64,35.00 987.41,35.00 988.17,35.00 988.94,35.00 989.73,35.00 990.49,35.00 991.26,35.00 992.04,35.00 992.85,35.00 993.61,35.00 994.39,35.00 995.17,35.00 995.95,35.00 996.72,35.00 997.50,35.00 998.27,35.00 999.05,35.00 999.82,35.00 1000.58,35.00 1001.35,35.00 1002.13,35.00 1002.90,35.00 1003.68,35.00 1004.45,35.00 1005.21,35.00 1005.99,35.00 1006.76,35.00 1007.53,35.00 1008.31,35.00 1009.12,35.00 1009.89,35.00 1010.66,35.00 1011.42,35.00 1012.19,35.00 1012.98,35.00 1013.74,35.00 1014.52,35.00 1015.29,35.00 1016.07,35.00 1016.84,35.00 1017.62,35.00 1018.39,35.00 1019.17,35.00 1019.94,35.00 1020.71,35.00 1021.49,35.00 1022.26,35.00 1023.03,35.00 1023.79,35.00 1024.56,35.00 1025.34,35.00 1026.11,35.00 1026.88,35.00 1027.65,35.00 1028.42,35.00 1029.20,35.00 1029.97,35.00 1030.74,35.00 1031.52,35.00 1032.29,35.00 1033.06,35.00 1033.83,35.00 1034.61,35.00 1035.38,35.00 1036.15,35.00 1036.93,35.00 1037.69,35.00 1038.46,35.00 1039.23,35.00 1040.01,35.00 1040.77,35.00 1041.57,35.00 1042.34,35.00 1043.11,35.00 1043.88,35.00 1044.66,35.00 1045.44,35.00 1046.22,35.00 1047.00,35.00 1047.82,35.00 1048.60,35.00 1049.43,35.00 1050.20,35.00 1050.97,35.00 1051.73,35.00 1052.51,35.00 1053.28,35.00 1054.06,35.00 1054.83,35.00 1055.60,35.00 1056.37,35.00 1057.15,35.00 1057.92,35.00 1058.69,35.00 1059.46,35.00 1060.23,35.00 1061.00,35.00 1061.77,35.00 1062.53,35.00 1063.32,35.00 1064.09,35.00 1064.87,35.00 1065.64,35.00 1066.40,35.00 1067.17,35.00 1067.94,35.00 1068.73,35.00 1069.50,35.00 1070.27,35.00 1071.05,35.00 1071.82,35.00 1072.58,35.00 1073.35,35.00 1074.13,35.00 1074.90,35.00 1075.67,35.00 1076.43,35.00 1077.20,35.00 1077.97,35.00 1078.74,35.00 1079.51,35.00 1080.29,35.00 1081.06,35.00 1081.86,35.00 1082.64,35.00 1083.41,35.00 1084.18,35.00 1084.95,35.00 1085.71,35.00 1086.48,35.00 1087.25,35.00 1088.02,35.00 1088.79,35.00 1089.56,35.00 1090.33,35.00 1091.09,35.00 1091.86,35.00 1092.64,35.00 1093.40,35.00 1094.18,35.00 1094.96,35.00 1095.72,35.00 1096.49,35.00 1097.27,35.00 1098.04,35.00 1098.81,35.00 1099.59,35.00 1100.36,35.00 1101.13,35.00 1101.91,35.00 1102.68,35.00 1103.47,35.00 1104.23,35.00 1105.00,35.00 1105.77,35.00 1106.55,35.00 1107.32,35.00 1108.11,35.00 1108.89,35.00 1109.67,35.00 1110.44,35.00 1111.21,35.00 1111.99,35.00 1112.76,35.00 1113.53,35.00 1114.31,35.00 1115.08,35.00 1115.84,35.00 1116.62,35.00 1117.40,35.00 1118.18,35.00 1118.95,35.00 1119.74,35.00 1120.53,35.00 1121.35,35.00 1122.13,35.00 1122.90,35.00 1123.67,35.00 1124.44,35.00 1125.22,35.00 1125.99,35.00 1126.76,35.00 1127.54,35.00 1128.31,35.00 1129.09,35.00 1129.86,35.00 1130.62,35.00 1131.40,35.00 1132.17,35.00 1132.95,35.00 1133.74,35.00 1134.53,35.00 1135.30,35.00 1136.09,35.00 1136.90,35.00 1137.67,35.00 1138.50,35.00 1139.27,35.00 1140.04,35.00 1140.82,35.00 1141.59,35.00 1142.37,35.00 1143.14,35.00 1143.91,35.00 1144.68,35.00 1145.45,35.00 1146.22,35.00 1147.01,35.00 1147.79,35.00 1148.56,35.00 1149.35,35.00 1150.25,35.00 1151.03,35.00 1151.79,35.00 1152.56,35.00 1153.33,35.00 1154.09,35.00 1154.86,35.00 1155.57,35.00 1156.26,35.00 1157.10,35.00 1157.83,35.00 1158.53,35.00 1159.32,35.00 1159.99,35.00 1160.76,35.00 1161.53,35.00 1162.31,35.00 1163.08,35.00 1163.84,35.00 1164.61,35.00 1165.38,35.00 1166.15,35.00 1166.93,35.00 1167.70,35.00 1168.46,35.00 1169.23,35.00 1170.01,35.00 1170.77,35.00 1171.54,35.00 1172.31,35.00 1173.07,35.00 1173.84,35.00 1174.61,35.00 1175.38,35.00 1176.15,35.00 1176.92,35.00 1177.70,35.00 1178.47,35.00 1179.23,35.00 1180.00,35.00"/>
<rect x="70" y="332" width="12" height="12" fill="#ff7f0e" fill-opacity="0.95"/>
<text x="88" y="342" font-size="11" fill="#333" font-family="Arial, Helvetica, sans-serif">nsc1.utdallas.edu</text>
<rect x="350" y="332" width="12" height="12" fill="#ff7f0e" fill-opacity="0.80"/>
<text x="368" y="342" font-size="11" fill="#333" font-family="Arial, Helvetica, sans-serif">nsc2.utdallas.edu</text>
<rect x="630" y="332" width="12" height="12" fill="#ff7f0e" fill-opacity="0.65"/>
<text x="648" y="342" font-size="11" fill="#333" font-family="Arial, Helvetica, sans-serif">nsc3.utdallas.edu</text>
<rect x="910" y="332" width="12" height="12" fill="#ff7f0e" fill-opacity="0.50"/>
<text x="928" y="342" font-size="11" fill="#333" font-family="Arial, Helvetica, sans-serif">nsc4.utdallas.edu</text>
</svg>