<?xml version="1.0" encoding="UTF-8"?>
<svg xmlns="http://www.w3.org/2000/svg" width="1200" height="360" viewBox="0 0 1200 360" role="img" aria-label="CUDA Health (%)">
<rect width="100%" height="100%" fill="#ffffff"/>
<text x="600.0" y="22" text-anchor="middle" font-size="16" font-family="Arial, Helvetica, sans-serif" font-weight="bold">CUDA Health (%)</text>
<line x1="70" y1="35.00" x2="1180" y2="35.00" stroke="#e3e3e3" stroke-width="1"/>
<text x="62" y="39.00" text-anchor="end" font-size="11" fill="#444" font-family="Arial, Helvetica, sans-serif">100</text>
<line x1="70" y1="89.00" x2="1180" y2="89.00" stroke="#e3e3e3" stroke-width="1"/>
<text x="62" y="93.00" text-anchor="end" font-size="11" fill="#444" font-family="Arial, Helvetica, sans-serif">80</text>
<line x1="70" y1="143.00" x2="1180" y2="143.00" stroke="#e3e3e3" stroke-width="1"/>
<text x="62" y="147.00" text-anchor="end" font-size="11" fill="#444" font-family="Arial, Helvetica, sans-serif">60</text>
<line x1="70" y1="197.00" x2="1180" y2="197.00" stroke="#e3e3e3" stroke-width="1"/>
<text x="62" y="201.00" text-anchor="end" font-size="11" fill="#444" font-family="Arial, Helvetica, sans-serif">40</text>
<line x1="70" y1="251.00" x2="1180" y2="251.00" stroke="#e3e3e3" stroke-width="1"/>
<text x="62" y="255.00" text-anchor="end" font-size="11" fill="#444" font-family="Arial, Helvetica, sans-serif">20</text>
<line x1="70" y1="305.00" x2="1180" y2="305.00" stroke="#e3e3e3" stroke-width="1"/>
<text x="62" y="309.00" text-anchor="end" font-size="11" fill="#444" font-family="Arial, Helvetica, sans-serif">0</text>
<line x1="70" y1="35" x2="70" y2="305" stroke="#999"/>
<line x1="70" y1="305" x2="1180" y2="305" stroke="#999"/>
<text x="70.00" y="323" text-anchor="middle" font-size="10" fill="#444" font-family="Arial, Helvetica, sans-serif">2026-02-11 16:38</text>
<text x="347.50" y="323" text-anchor="middle" font-size="10" fill="#444" font-family="Arial, Helvetica, sans-serif">2026-02-12 21:42</text>
<text x="625.00" y="323" text-anchor="middle" font-size="10" fill="#444" font-family="Arial, Helvetica, sans-serif">2026-02-14 02:47</text>
<text x="902.50" y="323" text-anchor="middle" font-size="10" fill="#444" font-family="Arial, Helvetica, sans-serif">2026-02-15 07:52</text>
<text x="1180.00" y="323" text-anchor="middle" font-size="10" fill="#444" font-family="Arial, Helvetica, sans-serif">2026-02-16 12:57</text>
<polyline fill="none" stroke="#ff7f0e" stroke-opacity="0.95" stroke-width="2" points="70.86,35.00 71.71,35.00 72.57,35.00 73.43,35.00 74.29,35.00 75.14,35.00 76.00,35.00 76.93,35.00 77.78,35.00 78.63,35.00 79.48,35.00 80.35,35.00 81.20,35.00 82.05,35.00 83.59,35.00 84.92,35.00 85.78,35.00 86.66,35.00 87.51,35.00 88.37,35.00 89.20,35.00 90.07,35.00 90.92,35.00 91.78,35.00 92.64,35.00 93.52,35.00 94.38,35.00 95.23,35.00 96.13,35.00 97.00,35.00 97.85,35.00 98.73,35.00 99.58,35.00 100.44,35.00 101.32,35.00 102.17,35.00 103.03,35.00 103.90,35.00 104.75,35.00 105.60,35.00 106.45,35.00 107.30,35.00 108.16,35.00 109.01,35.00 109.88,35.00 110.75,35.00 111.59,35.00 112.45,35.00 113.31,35.00 114.17,35.00 115.15,35.00 116.00,35.00 116.86,35.00 117.70,35.00 118.56,35.00 119.40,35.00 120.25,35.00 121.11,35.00 121.97,35.00 122.84,35.00 123.69,35.00 124.54,35.00 125.40,35.00 126.27,35.00 127.12,35.00 127.98,35.00 128.82,35.00 129.67,35.00 130.52,35.00 131.37,35.00 132.22,35.00 133.08,35.00 133.93,35.00 134.79,35.00 135.64,35.00 136.49,35.00 137.35,35.00 138.20,35.00 139.05,35.00 139.93,35.00 140.78,35.00 141.63,35.00 142.50,35.00 143.35,35.00 144.21,35.00 145.06,35.00 145.91,35.00 146.75,35.00 147.61,35.00 148.48,35.00 149.33,35.00 150.19,35.00 151.04,35.00 151.90,35.00 152.75,35.00 153.60,35.00 154.45,35.00 155.30,35.00 156.15,35.00 157.01,35.00 157.87,35.00 158.73,35.00 159.58,35.00 160.45,35.00 161.31,35.00 162.16,35.00 163.02,35.00 163.87,35.00 164.72,35.00 165.58,35.00 166.44,35.00 167.29,35.00 168.15,35.00 169.01,35.00 169.86,35.00 170.73,35.00 171.60,35.00 172.45,35.00 173.30,35.00 174.16,35.00 175.01,35.00 175.87,35.00 176.73,35.00 177.66,35.00 178.51,35.00 179.37,35.00 180.23,35.00 181.07,35.00 181.92,35.00 182.76,35.00 183.62,35.00 184.47,35.00 185.33,35.00 186.18,35.00 187.03,35.00 187.88,35.00 188.73,35.00 189.60,35.00 190.46,35.00 191.31,35.00 192.16,35.00 193.02,35.00 193.87,35.00 194.73,35.00 195.58,35.00 196.44,35.00 197.30,35.00 198.15,35.00 199.00,35.00 199.85,35.00 200.70,35.00 201.56,35.00 202.42,35.00 203.28,35.00 204.14,35.00 204.99,35.00 205.85,35.00 206.71,35.00 207.56,35.00 208.42,35.00 209.27,35.00 210.14,35.00 211.01,35.00 211.86,35.00 212.72,35.00 213.57,35.00 214.41,35.00 215.27,35.00 216.12,35.00 216.98,35.00 217.82,35.00 218.67,35.00 219.54,35.00 220.39,35.00 221.25,35.00 222.10,35.00 222.98,35.00 223.83,35.00 224.69,35.00 225.54,35.00 226.39,35.00 227.32,35.00 228.19,35.00 229.04,35.00 229.89,35.00 230.73,35.00 231.59,35.00 232.44,35.00 233.30,35.00 234.16,35.00 235.01,35.00 235.86,35.00 236.72,35.00 237.60,35.00 238.45,35.00 239.30,35.00 240.15,35.00 241.01,35.00 241.89,35.00 242.76,35.00 243.61,35.00 244.47,35.00 245.32,35.00 246.17,35.00 247.03,35.00 247.89,35.00 248.75,35.00 249.61,35.00 250.45,35.00 251.32,35.00 252.17,35.00 253.03,35.00 253.88,35.00 254.75,35.00 255.61,35.00 256.46,35.00 257.30,35.00 258.15,35.00 259.01,35.00 259.87,35.00 260.72,35.00 261.57,35.00 262.42,35.00 263.27,35.00 264.13,35.00 264.99,35.00 265.85,35.00 266.71,35.00 267.57,35.00 268.43,35.00 269.28,35.00 270.14,35.00 270.99,35.00 271.85,35.00 272.71,35.00 273.58,35.00 274.44,35.00 275.30,35.00 276.15,35.00 277.00,35.00 277.86,35.00 278.71,35.00 279.56,35.00 280.42,35.00 281.28,35.00 282.13,35.00 282.99,35.00 283.85,35.00 284.71,35.00 285.56,35.00 286.42,35.00 287.29,35.00 288.14,35.00 288.99,35.00 289.85,35.00 290.72,35.00 291.58,35.00 292.43,35.00 293.28,35.00 294.23,35.00 295.09,35.00 295.95,35.00 296.81,35.00 297.67,35.00 298.53,35.00 299.39,35.00 300.24,35.00 301.09,35.00 301.98,35.00 302.84,35.00 303.69,35.00 304.54,35.00 305.40,35.00 306.26,35.00 307.11,35.00 308.00,35.00 308.86,35.00 309.71,35.00 310.58,35.00 311.50,35.00 312.36,35.00 313.43,35.00 314.88,35.00 315.75,35.00 316.63,35.00 317.48,35.00 318.32,35.00 319.17,35.00 320.04,35.00 320.90,35.00 321.76,35.00 322.65,35.00 323.54,35.00 324.44,35.00 325.30,35.00 326.16,35.00 327.01,35.00 327.88,35.00 328.75,35.00 329.61,35.00 330.46,35.00 331.32,35.00 332.21,35.00 333.07,35.00 333.91,35.00 334.77,35.00 335.64,35.00 336.53,35.00 337.39,35.00 338.25,35.00 339.13,35.00 339.95,35.00 340.80,35.00 341.67,35.00 342.52,35.00 343.39,35.00 344.27,35.00 345.13,35.00 345.98,35.00 346.85,35.00 347.72,35.00 348.57,35.00 349.43,35.00 350.27,35.00 351.13,35.00 351.99,35.00 352.84,35.00 353.86,35.00 354.87,35.00 355.88,35.00 356.88,35.00 357.85,35.00 358.84,35.00 359.85,35.00 360.85,35.00 361.71,35.00 362.55,35.00 363.41,35.00 364.26,35.00 365.12,35.00 365.97,35.00 366.82,35.00 367.67,35.00 368.52,35.00 369.38,35.00 370.23,35.00 371.08,35.00 371.93,35.00 372.78,35.00 373.64,35.00 374.49,35.00 375.34,35.00 376.19,35.00 377.05,35.00 377.91,35.00 378.75,35.00 379.60,35.00 380.45,35.00 381.31,35.00 382.16,35.00 383.02,35.00 383.87,35.00 384.73,35.00 385.58,35.00 386.43,35.00 387.29,35.00 388.14,35.00 388.99,35.00 389.84,35.00 390.69,35.00 391.53,35.00 392.38,35.00 393.23,35.00 394.08,35.00 394.93,35.00 395.78,35.00 396.64,35.00 397.48,35.00 398.33,35.00 399.17,35.00 400.05,35.00 400.97,35.00 401.83,35.00 402.69,35.00 403.54,35.00 404.39,35.00 405.23,35.00 406.08,35.00 406.93,35.00 407.94,35.00 408.94,35.00 409.94,35.00 410.94,35.00 411.95,35.00 412.94,35.00 413.96,35.00 415.00,35.00 415.93,35.00 416.85,35.00 417.71,35.00 418.57,35.00 419.43,35.00 420.27,35.00 421.12,35.00 421.98,35.00 422.83,35.00 423.68,35.00 424.53,35.00 425.39,35.00 426.24,35.00 427.10,35.00 427.96,35.00 428.81,35.00 429.66,35.00 430.41,35.00 431.29,35.00 432.15,35.00 433.02,35.00 433.88,35.00 434.73,35.00 435.59,35.00 436.45,35.00 437.31,35.00 438.17,35.00 439.03,35.00 439.90,35.00 440.75,35.00 441.60,35.00 442.45,35.00 443.30,35.00 444.15,35.00 445.00,35.00 445.86,35.00 446.71,35.00 447.57,35.00 448.42,35.00 449.27,35.00 450.13,35.00 450.99,35.00 451.85,35.00 452.71,35.00 453.56,35.00 454.41,35.00 455.28,35.00 456.13,35.00 457.01,35.00 457.86,35.00 458.71,35.00 459.56,35.00 460.41,35.00 461.26,35.00 462.12,35.00 462.98,35.00 463.82,35.00 464.68,35.00 465.53,35.00 466.38,35.00 467.24,35.00 468.10,35.00 468.96,35.00 469.99,35.00 470.86,35.00 471.74,35.00 472.60,35.00 473.46,35.00 474.33,35.00 475.17,35.00 476.02,35.00 476.89,35.00 477.75,35.00 478.60,35.00 479.46,35.00 480.32,35.00 481.17,35.00 482.05,35.00 482.92,35.00 483.78,35.00 484.64,35.00 485.49,35.00 486.35,35.00 487.20,35.00 488.05,35.00 488.94,35.00 489.80,35.00 490.66,35.00 491.52,35.00 492.37,35.00 493.23,35.00 494.08,35.00 494.94,35.00 495.80,35.00 496.66,35.00 497.52,35.00 498.37,35.00 499.22,35.00 500.08,35.00 500.93,35.00 501.81,35.00 502.66,35.00 503.51,35.00 504.36,35.00 505.22,35.00 506.09,35.00 506.95,35.00 507.98,35.00 508.86,35.00 509.71,35.00 510.57,35.00 511.42,35.00 512.28,35.00 513.13,35.00 513.99,35.00 514.87,35.00 515.72,35.00 516.57,35.00 517.42,35.00 518.28,35.00 519.13,35.00 519.98,35.00 520.85,35.00 521.70,35.00 522.55,35.00 523.40,35.00 524.25,35.00 525.12,35.00 525.97,35.00 526.82,35.00 527.69,35.00 528.55,35.00 529.40,35.00 530.26,35.00 531.12,35.00 532.00,35.00 532.84,35.00 533.70,35.00 534.57,35.00 535.42,35.00 536.27,35.00 537.13,35.00 537.99,35.00 538.87,35.00 539.72,35.00 540.57,35.00 541.42,35.00 542.27,35.00 543.13,35.00 543.99,35.00 544.84,35.00 545.70,35.00 546.57,35.00 547.43,35.00 548.27,35.00 549.14,35.00 549.98,35.00 550.84,35.00 551.69,35.00 552.55,35.00 553.40,35.00 554.27,35.00 555.13,35.00 555.98,35.00 556.84,35.00 557.71,35.00 558.57,35.00 559.42,35.00 560.29,35.00 561.25,35.00 562.19,35.00 563.11,35.00 563.97,35.00 564.86,35.00 565.72,35.00 566.58,35.00 567.43,35.00 568.23,35.00 569.12,35.00 569.98,35.00 570.84,35.00 571.69,35.00 572.54,35.00 573.40,35.00 574.26,35.00 575.11,35.00 575.97,35.00 576.82,35.00 577.68,35.00 578.54,35.00 579.40,35.00 580.27,35.00 581.13,35.00 581.99,35.00 582.85,35.00 583.70,35.00 584.58,35.00 585.44,35.00 586.29,35.00 587.14,35.00 588.00,35.00 588.85,35.00 589.70,35.00 590.56,35.00 591.42,35.00 592.29,35.00 593.14,35.00 593.99,35.00 594.85,35.00 595.71,35.00 596.57,35.00 597.43,35.00 598.28,35.00 599.14,35.00 600.00,35.00 600.86,35.00 601.72,35.00 602.59,35.00 603.45,35.00 604.30,35.00 605.16,35.00 606.02,35.00 606.89,35.00 607.77,35.00 608.63,35.00 609.49,35.00 610.34,35.00 611.20,35.00 612.06,35.00 612.91,35.00 613.78,35.00 614.64,35.00 615.49,35.00 616.35,35.00 617.21,35.00 618.07,35.00 618.94,35.00 619.80,35.00 620.66,35.00 621.52,35.00 622.38,35.00 623.25,35.00 624.11,35.00 624.96,35.00 625.82,35.00 626.68,35.00 627.56,35.00 628.42,35.00 629.29,35.00 630.15,35.00 631.00,35.00 631.85,35.00 632.71,35.00 633.57,35.00 634.43,35.00 635.29,35.00 636.14,35.00 637.00,35.00 637.86,35.00 638.73,35.00 639.59,35.00 640.44,35.00 641.31,35.00 642.17,35.00 643.03,35.00 643.89,35.00 644.74,35.00 645.59,35.00 646.45,35.00 647.30,35.00 648.17,35.00 649.03,35.00 649.89,35.00 650.75,35.00 651.61,35.00 652.47,35.00 653.34,35.00 654.19,35.00 655.05,35.00 655.92,35.00 656.78,35.00 657.64,35.00 658.50,35.00 659.37,35.00 660.23,35.00 661.09,35.00 661.97,35.00 662.83,35.00 663.70,35.00 664.55,35.00 665.41,35.00 666.27,35.00 667.14,35.00 668.00,35.00 668.86,35.00 669.72,35.00 670.58,35.00 671.43,35.00 672.31,35.00 673.17,35.00 674.03,35.00 674.89,35.00 675.75,35.00 676.60,35.00 677.45,35.00 678.30,35.00 679.17,35.00 680.03,35.00 680.89,35.00 681.74,35.00 682.60,35.00 683.46,35.00 684.34,35.00 685.21,35.00 686.06,35.00 686.92,35.00 687.77,35.00 688.63,35.00 689.49,35.00 690.36,35.00 691.21,35.00 692.07,35.00 692.94,35.00 693.79,35.00 694.65,35.00 695.51,35.00 696.38,35.00 697.26,35.00 698.13,35.00 699.00,35.00 699.86,35.00 700.72,35.00 701.59,35.00 702.44,35.00 703.29,35.00 704.14,35.00 705.01,35.00 705.87,35.00 706.74,35.00 707.60,35.00 708.47,35.00 709.36,35.00 710.22,35.00 711.08,35.00 711.94,35.00 712.80,35.00 713.66,35.00 714.53,35.00 715.40,35.00 716.26,35.00 717.13,35.00 717.98,35.00 718.85,35.00 719.71,35.00 720.57,35.00 721.43,35.00 722.29,35.00 723.15,35.00 724.02,35.00 724.88,35.00 725.74,35.00 726.60,35.00 727.46,35.00 728.33,35.00 729.19,35.00 730.05,35.00 730.91,35.00 731.80,35.00 732.66,35.00 733.53,35.00 734.39,35.00 735.27,35.00 736.15,35.00 737.03,35.00 737.90,35.00 738.79,35.00 739.65,35.00 740.51,35.00 741.37,35.00 742.24,35.00 743.10,35.00 743.96,35.00 744.85,35.00 745.70,35.00 746.57,35.00 747.43,35.00 748.28,35.00 749.14,35.00 750.01,35.00 750.86,35.00 751.72,35.00 752.58,35.00 753.43,35.00 754.29,35.00 755.14,35.00 756.00,35.00 756.86,35.00 757.73,35.00 758.58,35.00 759.45,35.00 760.32,35.00 761.17,35.00 762.04,35.00 762.90,35.00 763.76,35.00 764.61,35.00 765.47,35.00 766.33,35.00 767.20,35.00 768.05,35.00 768.90,35.00 769.76,35.00 770.61,35.00 771.48,35.00 772.33,35.00 773.19,35.00 774.05,35.00 774.91,35.00 775.77,35.00 776.63,35.00 777.49,35.00 778.33,35.00 779.19,35.00 780.03,35.00 780.89,35.00 781.75,35.00 782.63,35.00 783.48,35.00 784.34,35.00 785.20,35.00 786.08,35.00 786.94,35.00 787.80,35.00 788.67,35.00 789.53,35.00 790.38,35.00 791.25,35.00 792.11,35.00 792.98,35.00 793.85,35.00 794.71,35.00 795.56,35.00 796.42,35.00 797.27,35.00 798.13,35.00 798.99,35.00 799.84,35.00 800.70,35.00 801.56,35.00 802.42,35.00 803.28,35.00 804.13,35.00 804.99,35.00 805.85,35.00 806.71,35.00 807.58,35.00 808.44,35.00 809.30,35.00 810.15,35.00 811.02,35.00 811.87,35.00 812.73,35.00 813.60,35.00 814.45,35.00 815.31,35.00 816.18,35.00 817.04,35.00 817.90,35.00 818.75,35.00 819.61,35.00 820.50,35.00 821.36,35.00 822.23,35.00 823.10,35.00 823.96,35.00 824.83,35.00 825.69,35.00 826.55,35.00 827.41,35.00 828.27,35.00 829.14,35.00 830.01,35.00 830.88,35.00 831.73,35.00 832.60,35.00 833.45,35.00 834.32,35.00 835.18,35.00 836.03,35.00 836.89,35.00 837.75,35.00 838.61,35.00 839.47,35.00 840.32,35.00 841.19,35.00 842.04,35.00 842.90,35.00 843.76,35.00 844.61,35.00 845.47,35.00 846.35,35.00 847.20,35.00 848.06,35.00 848.92,35.00 849.78,35.00 850.63,35.00 851.50,35.00 852.35,35.00 853.23,35.00 854.08,35.00 854.94,35.00 855.79,35.00 856.66,35.00 857.51,35.00 858.37,35.00 859.24,35.00 860.12,35.00 860.99,35.00 861.87,35.00 862.74,35.00 863.62,35.00 864.51,35.00 865.38,35.00 866.28,35.00 867.15,35.00 868.03,35.00 868.89,35.00 869.74,35.00 870.61,35.00 871.48,35.00 872.34,35.00 873.20,35.00 874.07,35.00 874.93,35.00 875.79,35.00 876.65,35.00 877.51,35.00 878.36,35.00 879.22,35.00 880.08,35.00 880.94,35.00 881.80,35.00 882.66,35.00 883.52,35.00 884.39,35.00 885.26,35.00 886.12,35.00 886.97,35.00 887.83,35.00 888.69,35.00 889.55,35.00 890.41,35.00 891.27,35.00 892.13,35.00 893.00,35.00 893.85,35.00 894.71,35.00 895.58,35.00 896.43,35.00 897.30,35.00 898.22,35.00 899.10,35.00 899.96,35.00 900.82,35.00 901.67,35.00 902.55,35.00 903.42,35.00 904.28,35.00 905.14,35.00 906.00,35.00 906.84,35.00 907.70,35.00 908.56,35.00 909.42,35.00 910.28,35.00 911.14,35.00 912.00,35.00 912.87,35.00 913.74,35.00 914.59,35.00 915.45,35.00 916.30,35.00 917.17,35.00 918.03,35.00 918.89,35.00 919.74,35.00 920.61,35.00 921.47,35.00 922.33,35.00 923.23,35.00 924.09,35.00 924.95,35.00 925.81,35.00 926.67,35.00 927.53,35.00 928.40,35.00 929.26,35.00 930.12,35.00 930.98,35.00 931.85,35.00 932.72,35.00 933.58,35.00 934.45,35.00 935.31,35.00 936.16,35.00 937.03,35.00 937.88,35.00 938.75,35.00 939.60,35.00 940.48,35.00 941.33,35.00 942.19,35.00 943.05,35.00 943.91,35.00 944.77,35.00 945.63,35.00 946.48,35.00 947.35,35.00 948.21,35.00 949.07,35.00 949.93,35.00 950.79,35.00 951.65,35.00 952.51,35.00 953.37,35.00 954.23,35.00 955.09,35.00 955.94,35.00 956.79,35.00 957.65,35.00 958.52,35.00 959.38,35.00 960.26,35.00 961.12,35.00 961.98,35.00 962.85,35.00 963.71,35.00 964.58,35.00 965.51,35.00 966.38,35.00 967.25,35.00 968.12,35.00 968.99,35.00 969.85,35.00 970.70,35.00 971.57,35.00 972.43,35.00 973.29,35.00 974.16,35.00 975.01,35.00 975.88,35.00 976.76,35.00 977.62,35.00 978.48,35.00 979.34,35.00 980.20,35.00 981.07,35.00 981.93,35.00 982.79,35.00 983.65,35.00 984.52,35.00 985.38,35.00 986.24,35.00 987.10,35.00 987.97,35.00 988.83,35.00 989.70,35.00 990.57,35.00 991.43,35.00 992.28,35.00 993.15,35.00 994.02,35.00 994.87,35.00 995.72,35.00 996.59,35.00 997.44,35.00 998.31,35.00 999.18,35.00 1000.03,35.00 1000.89,35.00 1001.75,35.00 1002.62,35.00 1003.47,35.00 1004.34,35.00 1005.20,35.00 1006.07,35.00 1006.94,35.00 1007.77,35.00 1008.62,35.00 1009.47,35.00 1010.34,35.00 1011.20,35.00 1012.06,35.00 1012.94,35.00 1013.79,35.00 1014.66,35.00 1015.53,35.00 1016.39,35.00 1017.25,35.00 1018.10,35.00 1018.96,35.00 1019.81,35.00 1020.67,35.00 1021.53,35.00 1022.39,35.00 1023.25,35.00 1024.10,35.00 1024.96,35.00 1025.82,35.00 1026.68,35.00 1027.55,35.00 1028.40,35.00 1029.25,35.00 1030.08,35.00 1030.97,35.00 1031.82,35.00 1032.69,35.00 1033.55,35.00 1034.42,35.00 1035.28,35.00 1036.13,35.00 1037.00,35.00 1037.86,35.00 1038.72,35.00 1039.58,35.00 1040.51,35.00 1041.36,35.00 1042.24,35.00 1043.10,35.00 1043.97,35.00 1044.82,35.00 1045.68,35.00 1046.55,35.00 1047.40,35.00 1048.26,35.00 1049.12,35.00 1049.98,35.00 1050.84,35.00 1051.71,35.00 1052.57,35.00 1053.43,35.00 1054.29,35.00 1055.15,35.00 1056.01,35.00 1056.88,35.00 1057.74,35.00 1058.61,35.00 1059.49,35.00 1060.36,35.00 1061.22,35.00 1062.08,35.00 1062.95,35.00 1063.81,35.00 1064.68,35.00 1065.53,35.00 1066.39,35.00 1067.25,35.00 1068.11,35.00 1068.97,35.00 1069.84,35.00 1070.70,35.00 1071.56,35.00 1072.42,35.00 1073.27,35.00 1074.13,35.00 1074.99,35.00 1075.86,35.00 1076.71,35.00 1077.57,35.00 1078.43,35.00 1079.28,35.00 1080.14,35.00 1080.99,35.00 1081.85,35.00 1082.70,35.00 1083.56,35.00 1084.42,35.00 1085.28,35.00 1086.13,35.00 1086.99,35.00 1087.84,35.00 1088.71,35.00 1089.56,35.00 1090.42,35.00 1091.27,35.00 1092.12,35.00 1093.00,35.00 1093.85,35.00 1094.71,35.00 1095.57,35.00 1096.47,35.00 1097.32,35.00 1098.19,35.00 1099.06,35.00 1099.92,35.00 1100.78,35.00 1101.64,35.00 1102.51,35.00 1103.37,35.00 1104.22,35.00 1105.08,35.00 1105.93,35.00 1106.80,35.00 1107.66,35.00 1108.52,35.00 1109.37,35.00 1110.23,35.00 1111.09,35.00 1111.94,35.00 1112.81,35.00 1113.67,35.00 1114.57,35.00 1115.43,35.00 1116.28,35.00 1117.13,35.00 1117.98,35.00 1118.86,35.00 1119.71,35.00 1120.57,35.00 1121.44,35.00 1122.30,35.00 1123.16,35.00 1124.02,35.00 1124.88,35.00 1125.75,35.00 1126.60,35.00 1127.46,35.00 1128.33,35.00 1129.18,35.00 1130.04,35.00 1130.89,35.00 1131.75,35.00 1132.61,35.00 1133.46,35.00 1134.32,35.00 1135.18,35.00 1136.04,35.00 1136.90,35.00 1137.76,35.00 1138.62,35.00 1139.48,35.00 1140.34,35.00 1141.20,35.00 1142.05,35.00 1142.92,35.00 1143.78,35.00 1144.64,35.00 1145.50,35.00 1146.35,35.00 1147.20,35.00 1148.06,35.00 1148.93,35.00 1149.78,35.00 1150.66,35.00 1151.52,35.00 1152.38,35.00 1153.24,35.00 1154.10,35.00 1154.96,35.00 1155.84,35.00 1156.71,305.00 1157.62,35.00 1158.48,35.00 1159.41,35.00 1160.27,35.00 1161.12,35.00 1161.97,35.00 1162.83,35.00 1163.69,35.00 1164.55,35.00 1165.41,35.00 1166.27,35.00 1167.13,35.00 1167.99,35.00 1168.85,35.00 1169.70,35.00 1170.56,35.00 1171.42,35.00 1172.28,35.00 1173.13,35.00 1173.98,35.00 1174.85,35.00 1175.71,35.00 1176.58,35.00 1177.43,35.00 1178.28,35.00 1179.14,35.00 1180.00,35.00"/>
<polyline fill="none" stroke="#ff7f0e" stroke-opacity="0.80" stroke-width="2" points="70.00,35.00 70.86,35.00 71.71,35.00 72.57,35.00 73.43,35.00 74.29,35.00 75.14,35.00 76.00,35.00 76.93,35.00 77.78,35.00 78.63,35.00 79.48,35.00 80.35,35.00 81.20,35.00 82.05,35.00 83.59,35.00 84.92,35.00 85.78,35.00 86.66,35.00 87.51,35.00 88.37,35.00 89.20,35.00 90.07,35.00 90.92,35.00 91.78,35.00 92.64,35.00 93.52,35.00 94.38,35.00 95.23,35.00 96.13,35.00 97.00,35.00 97.85,35.00 98.73,35.00 99.58,35.00 100.44,35.00 101.32,35.00 102.17,35.00 103.03,35.00 103.90,35.00 104.75,35.00 105.60,35.00 106.45,35.00 107.30,35.00 108.16,35.00 109.01,35.00 109.88,35.00 110.75,35.00 111.59,35.00 112.45,35.00 113.31,35.00 114.17,35.00 115.15,35.00 116.00,35.00 116.86,35.00 117.70,35.00 118.56,35.00 119.40,35.00 120.25,35.00 121.11,35.00 121.97,35.00 122.84,35.00 123.69,35.00 124.54,35.00 125.40,35.00 126.27,35.00 127.12,35.00 127.98,35.00 128.82,35.00 129.67,35.00 130.52,35.00 131.37,35.00 132.22,35.00 133.08,35.00 133.93,35.00 134.79,35.00 135.64,35.00 136.49,35.00 137.35,35.00 138.20,35.00 139.05,35.00 139.93,35.00 140.78,35.00 141.63,35.00 142.50,35.00 143.35,35.00 144.21,35.00 145.06,35.00 145.91,35.00 146.75,35.00 147.61,35.00 148.48,35.00 149.33,35.00 150.19,35.00 151.04,35.00 151.90,35.00 152.75,35.00 153.60,35.00 154.45,35.00 155.30,35.00 156.15,35.00 157.01,35.00 157.87,35.00 158.73,35.00 159.58,35.00 160.45,35.00 161.31,35.00 162.16,35.00 163.02,35.00 163.87,35.00 164.72,35.00 165.58,35.00 166.44,35.00 167.29,35.00 168.15,35.00 169.01,35.00 169.86,35.00 170.73,35.00 171.60,35.00 172.45,35.00 173.30,35.00 174.16,35.00 175.01,35.00 175.87,35.00 176.73,35.00 177.66,35.00 178.51,35.00 179.37,35.00 180.23,35.00 181.07,35.00 181.92,35.00 182.76,35.00 183.62,35.00 184.47,35.00 185.33,35.00 186.18,35.00 187.03,35.00 187.88,35.00 188.73,35.00 189.60,35.00 190.46,35.00 191.31,35.00 192.16,35.00 193.02,35.00 193.87,35.00 194.73,35.00 195.58,35.00 196.44,35.00 197.30,35.00 198.15,35.00 199.00,35.00 199.85,35.00 200.70,35.00 201.56,35.00 202.42,35.00 203.28,35.00 204.14,35.00 204.99,35.00 205.85,35.00 206.71,35.00 207.56,35.00 208.42,35.00 209.27,35.00 210.14,35.00 211.01,35.00 211.86,35.00 212.72,35.00 213.57,35.00 214.41,35.00 215.27,35.00 216.12,35.00 216.98,35.00 217.82,35.00 218.67,35.00 219.54,35.00 220.39,35.00 221.25,35.00 222.10,35.00 222.98,35.00 223.83,35.00 224.69,35.00 225.54,35.00 226.39,35.00 227.32,35.00 228.19,35.00 229.04,35.00 229.89,35.00 230.73,35.00 231.59,35.00 232.44,35.00 233.30,35.00 234.16,35.00 235.01,35.00 235.86,35.00 236.72,35.00 237.60,35.00 238.45,35.00 239.30,35.00 240.15,35.00 241.01,35.00 241.89,35.00 242.76,35.00 243.61,35.00 244.47,35.00 245.32,35.00 246.17,35.00 247.03,35.00 247.89,35.00 248.75,35.00 249.61,35.00 250.45,35.00 251.32,35.00 252.17,35.00 253.03,35.00 253.88,35.00 254.75,35.00 255.61,35.00 256.46,35.00 257.30,35.00 258.15,35.00 259.01,35.00 259.87,35.00 260.72,35.00 261.57,35.00 262.42,35.00 263.27,35.00 264.13,35.00 264.99,35.00 265.85,35.00 266.71,35.00 267.57,35.00 268.43,35.00 269.28,35.00 270.14,35.00 270.99,35.00 271.85,35.00 272.71,35.00 273.58,35.00 274.44,35.00 275.30,35.00 276.15,35.00 277.00,35.00 277.86,35.00 278.71,35.00 279.56,35.00 280.42,35.00 281.28,35.00 282.13,35.00 282.99,35.00 283.85,35.00 284.71,35.00 285.56,35.00 286.42,35.00 287.29,35.00 288.14,35.00 288.99,35.00 289.85,35.00 290.72,35.00 291.58,35.00 292.43,35.00 293.28,35.00 294.23,35.00 295.09,35.00 295.95,35.00 296.81,35.00 297.67,35.00 298.53,35.00 299.39,35.00 300.24,35.00 301.09,35.00 301.98,35.00 302.84,35.00 303.69,35.00 304.54,35.00 305.40,35.00 306.26,35.00 307.11,35.00 308.00,35.00 308.86,35.00 309.71,35.00 310.58,35.00 311.50,35.00 312.36,35.00 313.43,35.00 314.88,35.00 315.75,35.00 316.63,35.00 317.48,35.00 318.32,35.00 319.17,35.00 320.04,35.00 320.90,35.00 321.76,35.00 322.65,35.00 323.54,35.00 324.44,35.00 325.30,35.00 326.16,35.00 327.01,35.00 327.88,35.00 328.75,35.00 329.61,35.00 330.46,35.00 331.32,35.00 332.21,35.00 333.07,35.00 333.91,35.00 334.77,35.00 335.64,35.00 336.53,35.00 337.39,35.00 338.25,35.00 339.13,35.00 339.95,35.00 340.80,35.00 341.67,35.00 342.52,35.00 343.39,35.00 344.27,35.00 345.13,35.00 345.98,35.00 346.85,35.00 347.72,35.00 348.57,35.00 349.43,35.00 350.27,35.00 351.13,35.00 351.99,35.00 352.84,35.00 353.86,35.00 354.87,35.00 355.88,35.00 356.88,35.00 357.85,35.00 358.84,35.00 359.85,35.00 360.85,35.00 361.71,35.00 362.55,35.00 363.41,35.00 364.26,35.00 365.12,35.00 365.97,35.00 366.82,35.00 367.67,35.00 368.52,35.00 369.38,35.00 370.23,35.00 371.08,35.00 371.93,35.00 372.78,35.00 373.64,35.00 374.49,35.00 375.34,35.00 376.19,35.00 377.05,35.00 377.91,35.00 378.75,35.00 379.60,35.00 380.45,35.00 381.31,35.00 382.16,35.00 383.02,35.00 383.87,35.00 384.73,35.00 385.58,35.00 386.43,35.00 387.29,35.00 388.14,35.00 388.99,35.00 389.84,35.00 390.69,35.00 391.53,35.00 392.38,35.00 393.23,35.00 394.08,35.00 394.93,35.00 395.78,35.00 396.64,35.00 397.48,35.00 398.33,35.00 399.17,35.00 400.05,35.00 400.97,35.00 401.83,35.00 402.69,35.00 403.54,35.00 404.39,35.00 405.23,35.00 406.08,35.00 406.93,35.00 407.94,35.00 408.94,35.00 409.94,35.00 410.94,35.00 411.95,35.00 412.94,35.00 413.96,35.00 415.00,35.00 415.93,35.00 416.85,35.00 417.71,35.00 418.57,35.00 419.43,35.00 420.27,35.00 421.12,35.00 421.98,35.00 422.83,35.00 423.68,35.00 424.53,35.00 425.39,35.00 426.24,35.00 427.10,35.00 427.96,35.00 428.81,35.00 429.66,35.00 430.41,35.00 431.29,35.00 432.15,35.00 433.02,35.00 433.88,35.00 434.73,35.00 435.59,35.00 436.45,35.00 437.31,35.00 438.17,35.00 439.03,35.00 439.90,35.00 440.75,35.00 441.60,35.00 442.45,35.00 443.30,35.00 444.15,35.00 445.00,35.00 445.86,35.00 446.71,35.00 447.57,35.00 448.42,35.00 449.27,35.00 450.13,35.00 450.99,35.00 451.85,35.00 452.71,35.00 453.56,35.00 454.41,35.00 455.28,35.00 456.13,35.00 457.01,35.00 457.86,35.00 458.71,35.00 459.56,35.00 460.41,35.00 461.26,35.00 462.12,35.00 462.98,35.00 463.82,35.00 464.68,35.00 465.53,35.00 466.38,35.00 467.24,35.00 468.10,35.00 468.96,35.00 469.99,35.00 470.86,35.00 471.74,35.00 472.60,35.00 473.46,35.00 474.33,35.00 475.17,35.00 476.02,35.00 476.89,35.00 477.75,35.00 478.60,35.00 479.46,35.00 480.32,35.00 481.17,35.00 482.05,35.00 482.92,35.00 483.78,35.00 484.64,35.00 485.49,35.00 486.35,35.00 487.20,35.00 488.05,35.00 488.94,35.00 489.80,35.00 490.66,35.00 491.52,35.00 492.37,35.00 493.23,35.00 494.08,35.00 494.94,35.00 495.80,35.00 496.66,35.00 497.52,35.00 498.37,35.00 499.22,35.00 500.08,35.00 500.93,35.00 501.81,35.00 502.66,35.00 503.51,35.00 504.36,35.00 505.22,35.00 506.09,35.00 506.95,35.00 507.98,35.00 508.86,35.00 509.71,35.00 510.57,35.00 511.42,35.00 512.28,35.00 513.13,35.00 513.99,35.00 514.87,35.00 515.72,35.00 516.57,35.00 517.42,35.00 518.28,35.00 519.13,35.00 519.98,35.00 520.85,35.00 521.70,35.00 522.55,35.00 523.40,35.00 524.25,35.00 525.12,35.00 525.97,35.00 526.82,35.00 527.69,35.00 528.55,35.00 529.40,35.00 530.26,35.00 531.12,35.00 532.00,35.00 532.84,35.00 533.70,35.00 534.57,35.00 535.42,35.00 536.27,35.00 537.13,35.00 537.99,35.00 538.87,35.00 539.72,35.00 540.57,35.00 541.42,35.00 542.27,35.00 543.13,35.00 543.99,35.00 544.84,35.00 545.70,35.00 546.57,35.00 547.43,35.00 548.27,35.00 549.14,35.00 549.98,35.00 550.84,35.00 551.69,35.00 552.55,35.00 553.40,35.00 554.27,35.00 555.13,35.00 555.98,35.00 556.84,35.00 557.71,35.00 558.57,35.00 559.42,35.00 560.29,35.00 561.25,35.00 562.19,35.00 563.11,35.00 563.97,35.00 564.86,35.00 565.72,35.00 566.58,35.00 567.43,35.00 568.23,35.00 569.12,35.00 569.98,35.00 570.84,35.00 571.69,35.00 572.54,35.00 573.40,35.00 574.26,35.00 575.11,35.00 575.97,35.00 576.82,35.00 577.68,35.00 578.54,35.00 579.40,35.00 580.27,35.00 581.13,35.00 581.99,35.00 582.85,35.00 583.70,35.00 584.58,35.00 585.44,35.00 586.29,35.00 587.14,35.00 588.00,35.00 588.85,35.00 589.70,35.00 590.56,35.00 591.42,35.00 592.29,35.00 593.14,35.00 593.99,35.00 594.85,35.00 595.71,35.00 596.57,35.00 597.43,35.00 598.28,35.00 599.14,35.00 600.00,35.00 600.86,35.00 601.72,35.00 602.59,35.00 603.45,35.00 604.30,35.00 605.16,35.00 606.02,35.00 606.89,35.00 607.77,35.00 608.63,35.00 609.49,35.00 610.34,35.00 611.20,35.00 612.06,35.00 612.91,35.00 613.78,35.00 614.64,35.00 615.49,35.00 616.35,35.00 617.21,35.00 618.07,35.00 618.94,35.00 619.80,35.00 620.66,35.00 621.52,35.00 622.38,35.00 623.25,35.00 624.11,35.00 624.96,35.00 625.82,35.00 626.68,35.00 627.56,35.00 628.42,35.00 629.29,35.00 630.15,35.00 631.00,35.00 631.85,35.00 632.71,35.00 633.57,35.00 634.43,35.00 635.29,35.00 636.14,35.00 637.00,35.00 637.86,35.00 638.73,35.00 639.59,35.00 640.44,35.00 641.31,35.00 642.17,35.00 643.03,35.00 643.89,35.00 644.74,35.00 645.59,35.00 646.45,35.00 647.30,35.00 648.17,35.00 649.03,35.00 649.89,35.00 650.75,35.00 651.61,35.00 652.47,35.00 653.34,35.00 654.19,35.00 655.05,35.00 655.92,35.00 656.78,35.00 657.64,35.00 658.50,35.00 659.37,35.00 660.23,35.00 661.09,35.00 661.97,35.00 662.83,35.00 663.70,35.00 664.55,35.00 665.41,35.00 666.27,35.00 667.14,35.00 668.00,35.00 668.86,35.00 669.72,35.00 670.58,35.00 671.43,35.00 672.31,35.00 673.17,35.00 674.03,35.00 674.89,35.00 675.75,35.00 676.60,35.00 677.45,35.00 678.30,35.00 679.17,35.00 680.03,35.00 680.89,35.00 681.74,35.00 682.60,35.00 683.46,35.00 684.34,35.00 685.21,35.00 686.06,35.00 686.92,35.00 687.77,35.00 688.63,35.00 689.49,35.00 690.36,35.00 691.21,35.00 692.07,35.00 692.94,35.00 693.79,35.00 694.65,35.00 695.51,35.00 696.38,35.00 697.26,35.00 698.13,35.00 699.00,35.00 699.86,35.00 700.72,35.00 701.59,35.00 702.44,35.00 703.29,35.00 704.14,35.00 705.01,35.00 705.87,35.00 706.74,35.00 707.60,35.00 708.47,35.00 709.36,35.00 710.22,35.00 711.08,35.00 711.94,35.00 712.80,35.00 713.66,35.00 714.53,35.00 715.40,35.00 716.26,35.00 717.13,35.00 717.98,35.00 718.85,35.00 719.71,35.00 720.57,35.00 721.43,35.00 722.29,35.00 723.15,35.00 724.02,35.00 724.88,35.00 725.74,35.00 726.60,35.00 727.46,35.00 728.33,35.00 729.19,35.00 730.05,35.00 730.91,35.00 731.80,35.00 732.66,35.00 733.53,35.00 734.39,35.00 735.27,35.00 736.15,35.00 737.03,35.00 737.90,35.00 738.79,35.00 739.65,35.00 740.51,35.00 741.37,35.00 742.24,35.00 743.10,35.00 743.96,35.00 744.85,35.00 745.70,35.00 746.57,35.00 747.43,35.00 748.28,35.00 749.14,35.00 750.01,35.00 750.86,35.00 751.72,35.00 752.58,35.00 753.43,35.00 754.29,35.00 755.14,35.00 756.00,35.00 756.86,35.00 757.73,35.00 758.58,35.00 759.45,35.00 760.32,35.00 761.17,35.00 762.04,35.00 762.90,35.00 763.76,35.00 764.61,35.00 765.47,35.00 766.33,35.00 767.20,35.00 768.05,35.00 768.90,35.00 769.76,35.00 770.61,35.00 771.48,35.00 772.33,35.00 773.19,35.00 774.05,35.00 774.91,35.00 775.77,35.00 776.63,35.00 777.49,35.00 778.33,35.00 779.19,35.00 780.03,35.00 780.89,35.00 781.75,35.00 782.63,35.00 783.48,35.00 784.34,35.00 785.20,35.00 786.08,35.00 786.94,35.00 787.80,35.00 788.67,35.00 789.53,35.00 790.38,35.00 791.25,35.00 792.11,35.00 792.98,35.00 793.85,35.00 794.71,35.00 795.56,35.00 796.42,35.00 797.27,35.00 798.13,35.00 798.99,35.00 799.84,35.00 800.70,35.00 801.56,35.00 802.42,35.00 803.28,35.00 804.13,35.00 804.99,35.00 805.85,35.00 806.71,35.00 807.58,35.00 808.44,35.00 809.30,35.00 810.15,35.00 811.02,35.00 811.87,35.00 812.73,35.00 813.60,35.00 814.45,35.00 815.31,35.00 816.18,35.00 817.04,35.00 817.90,35.00 818.75,35.00 819.61,35.00 820.50,35.00 821.36,35.00 822.23,35.00 823.10,35.00 823.96,35.00 824.83,35.00 825.69,35.00 826.55,35.00 827.41,35.00 828.27,35.00 829.14,35.00 830.01,35.00 830.88,35.00 831.73,35.00 832.60,35.00 833.45,35.00 834.32,35.00 835.18,35.00 836.03,35.00 836.89,35.00 837.75,35.00 838.61,35.00 839.47,35.00 840.32,35.00 841.19,35.00 842.04,35.00 842.90,35.00 843.76,35.00 844.61,35.00 845.47,35.00 846.35,35.00 847.20,35.00 848.06,35.00 848.92,35.00 849.78,35.00 850.63,35.00 851.50,35.00 852.35,35.00 853.23,35.00 854.08,35.00 854.94,35.00 855.79,35.00 856.66,35.00 857.51,35.00 858.37,35.00 859.24,35.00 860.12,35.00 860.99,35.00 861.87,35.00 862.74,35.00 863.62,35.00 864.51,35.00 865.38,35.00 866.28,35.00 867.15,35.00 868.03,35.00 868.89,35.00 869.74,35.00 870.61,35.00 871.48,35.00 872.34,35.00 873.20,35.00 874.07,35.00 874.93,35.00 875.79,35.00 876.65,35.00 877.51,35.00 878.36,35.00 879.22,35.00 880.08,35.00 880.94,35.00 881.80,35.00 882.66,35.00 883.52,35.00 884.39,35.00 885.26,35.00 886.12,35.00 886.97,35.00 887.83,35.00 888.69,35.00 889.55,35.00 890.41,35.00 891.27,35.00 892.13,35.00 893.00,35.00 893.85,35.00 894.71,35.00 895.58,35.00 896.43,35.00 897.30,35.00 898.22,35.00 899.10,35.00 899.96,35.00 900.82,35.00 901.67,35.00 902.55,35.00 903.42,35.00 904.28,35.00 905.14,35.00 906.00,35.00 906.84,35.00 907.70,35.00 908.56,35.00 909.42,35.00 910.28,35.00 911.14,35.00 912.00,35.00 912.87,35.00 913.74,35.00 914.59,35.00 915.45,35.00 916.30,35.00 917.17,35.00 918.03,35.00 918.89,35.00 919.74,35.00 920.61,35.00 921.47,35.00 922.33,35.00 923.23,35.00 924.09,35.00 924.95,35.00 925.81,35.00 926.67,35.00 927.53,35.00 928.40,35.00 929.26,35.00 930.12,35.00 930.98,35.00 931.85,35.00 932.72,35.00 933.58,35.00 934.45,35.00 935.31,35.00 936.16,35.00 937.03,35.00 937.88,35.00 938.75,35.00 939.60,35.00 940.48,35.00 941.33,35.00 942.19,35.00 943.05,35.00 943.91,35.00 944.77,35.00 945.63,35.00 946.48,35.00 947.35,35.00 948.21,35.00 949.07,35.00 949.93,35.00 950.79,35.00 951.65,35.00 952.51,35.00 953.37,35.00 954.23,35.00 955.09,35.00 955.94,35.00 956.79,35.00 957.65,35.00 958.52,35.00 959.38,35.00 960.26,35.00 961.12,35.00 961.98,35.00 962.85,35.00 963.71,35.00 964.58,35.00 965.51,35.00 966.38,35.00 967.25,35.00 968.12,35.00 968.99,35.00 969.85,35.00 970.70,35.00 971.57,35.00 972.43,35.00 973.29,35.00 974.16,35.00 975.01,35.00 975.88,35.00 976.76,35.00 977.62,35.00 978.48,35.00 979.34,35.00 980.20,35.00 981.07,35.00 981.93,35.00 982.79,35.00 983.65,35.00 984.52,35.00 985.38,35.00 986.24,35.00 987.10,35.00 987.97,35.00 988.83,35.00 989.70,35.00 990.57,35.00 991.43,35.00 992.28,35.00 993.15,35.00 994.02,35.00 994.87,35.00 995.72,35.00 996.59,35.00 997.44,35.00 998.31,35.00 999.18,35.00 1000.03,35.00 1000.89,35.00 1001.75,35.00 1002.62,35.00 1003.47,35.00 1004.34,35.00 1005.20,35.00 1006.07,35.00 1006.94,35.00 1007.77,35.00 1008.62,35.00 1009.47,35.00 1010.34,35.00 1011.20,35.00 1012.06,35.00 1012.94,35.00 1013.79,35.00 1014.66,35.00 1015.53,35.00 1016.39,35.00 1017.25,35.00 1018.10,35.00 1018.96,35.00 1019.81,35.00 1020.67,35.00 1021.53,35.00 1022.39,35.00 1023.25,35.00 1024.10,35.00 1024.96,35.00 1025.82,35.00 1026.68,35.00 1027.55,35.00 1028.40,35.00 1029.25,35.00 1030.08,35.00 1030.97,35.00 1031.82,35.00 1032.69,35.00 1033.55,35.00 1034.42,35.00 1035.28,35.00 1036.13,35.00 1037.00,35.00 1037.86,35.00 1038.72,35.00 1039.58,35.00 1040.51,35.00 1041.36,35.00 1042.24,35.00 1043.10,35.00 1043.97,35.00 1044.82,35.00 1045.68,35.00 1046.55,35.00 1047.40,35.00 1048.26,35.00 1049.12,35.00 1049.98,35.00 1050.84,35.00 1051.71,35.00 1052.57,35.00 1053.43,35.00 1054.29,35.00 1055.15,35.00 1056.01,35.00 1056.88,35.00 1057.74,35.00 1058.61,35.00 1059.49,35.00 1060.36,35.00 1061.22,35.00 1062.08,35.00 1062.95,35.00 1063.81,35.00 1064.68,35.00 1065.53,35.00 1066.39,35.00 1067.25,35.00 1068.11,35.00 1068.97,35.00 1069.84,35.00 1070.70,35.00 1071.56,35.00 1072.42,35.00 1073.27,35.00 1074.13,35.00 1074.99,35.00 1075.86,35.00 1076.71,35.00 1077.57,35.00 1078.43,35.00 1079.28,35.00 1080.14,35.00 1080.99,35.00 1081.85,35.00 1082.70,35.00 1083.56,35.00 1084.42,35.00 1085.28,35.00 1086.13,35.00 1086.99,35.00 1087.84,35.00 1088.71,35.00 1089.56,35.00 1090.42,35.00 1091.27,35.00 1092.12,35.00 1093.00,35.00 1093.85,35.00 1094.71,35.00 1095.57,35.00 1096.47,35.00 1097.32,35.00 1098.19,35.00 1099.06,35.00 1099.92,35.00 1100.78,35.00 1101.64,35.00 1102.51,35.00 1103.37,35.00 1104.22,35.00 1105.08,35.00 1105.93,35.00 1106.80,35.00 1107.66,35.00 1108.52,35.00 1109.37,35.00 1110.23,35.00 1111.09,35.00 1111.94,35.00 1112.81,35.00 1113.67,35.00 1114.57,35.00 1115.43,35.00 1116.28,35.00 1117.13,35.00 1117.98,35.00 1118.86,35.00 1119.71,35.00 1120.57,35.00 1121.44,35.00 1122.30,35.00 1123.16,35.00 1124.02,35.00 1124.88,35.00 1125.75,35.00 1126.60,35.00 1127.46,35.00 1128.33,35.00 1129.18,35.00 1130.04,35.00 1130.89,35.00 1131.75,35.00 1132.61,35.00 1133.46,35.00 1134.32,35.00 1135.18,35.00 1136.04,35.00 1136.90,35.00 1137.76,35.00 1138.62,35.00 1139.48,35.00 1140.34,35.00 1141.20,35.00 1142.05,35.00 1142.92,35.00 1143.78,35.00 1144.64,35.00 1145.50,35.00 1146.35,35.00 1147.20,35.00 1148.06,35.00 1148.93,35.00 1149.78,35.00 1150.66,35.00 1151.52,35.00 1152.38,35.00 1153.24,35.00 1154.10,35.00 1154.96,35.00 1155.84,35.00 1156.71,35.00 1157.62,35.00 1158.48,35.00 1159.41,35.00 1160.27,35.00 1161.12,35.00 1161.97,35.00 1162.83,35.00 1163.69,35.00 1164.55,35.00 1165.41,35.00 1166.27,35.00 1167.13,35.00 1167.99,35.00 1168.85,35.00 1169.70,35.00 1170.56,35.00 1171.42,35.00 1172.28,35.00 1173.13,35.00 1173.98,35.00 1174.85,35.00 1175.71,35.00 1176.58,35.00 1177.43,35.00 1178.28,35.00 1179.14,35.00 1180.00,35.00"/>
<polyline fill="none" stroke="#ff7f0e" stroke-opacity="0.65" stroke-width="2" points="70.00,305.00 70.86,305.00 71.71,305.00 72.57,305.00 73.43,305.00 74.29,305.00 75.14,305.00 76.00,305.00 76.93,305.00 77.78,305.00 78.63,305.00 79.48,305.00 80.35,305.00 81.20,305.00 82.05,305.00 83.59,305.00 84.92,305.00 85.78,305.00 86.66,305.00 87.51,305.00 88.37,305.00 89.20,305.00 90.07,305.00 90.92,305.00 91.78,305.00 92.64,305.00 93.52,305.00 94.38,305.00 95.23,305.00 96.13,305.00 97.00,305.00 97.85,305.00 98.73,305.00 99.58,305.00 100.44,305.00 101.32,305.00 102.17,305.00 103.03,305.00 103.90,305.00 104.75,305.00 105.60,305.00 106.45,305.00 107.30,305.00 108.16,305.00 109.01,305.00 109.88,305.00 110.75,305.00 111.59,305.00 112.45,305.00 113.31,305.00 114.17,305.00 115.15,305.00 116.00,305.00 116.86,305.00 117.70,305.00 118.56,305.00 119.40,305.00 120.25,305.00 121.11,305.00 121.97,305.00 122.84,305.00 123.69,305.00 124.54,305.00 125.40,305.00 126.27,305.00 127.12,305.00 127.98,305.00 128.82,305.00 129.67,305.00 130.52,305.00 131.37,305.00 132.22,305.00 133.08,305.00 133.93,305.00 134.79,305.00 135.64,305.00 136.49,305.00 137.35,305.00 138.20,305.00 139.05,305.00 139.93,305.00 140.78,305.00 141.63,305.00 142.50,305.00 143.35,305.00 144.21,305.00 145.06,305.00 145.91,305.00 146.75,305.00 147.61,305.00 148.48,305.00 149.33,305.00 150.19,305.00 151.04,305.00 151.90,305.00 152.75,305.00 153.60,305.00 154.45,305.00 155.30,305.00 156.15,305.00 157.01,305.00 157.87,305.00 158.73,305.00 159.58,305.00 160.45,305.00 161.31,305.00 162.16,305.00 163.02,305.00 163.87,305.00 164.72,305.00 165.58,305.00 166.44,305.00 167.29,305.00 168.15,305.00 169.01,305.00 169.86,305.00 170.73,305.00 171.60,305.00 172.45,305.00 173.30,305.00 174.16,305.00 175.01,305.00 175.87,305.00 176.73,305.00 177.66,305.00 178.51,305.00 179.37,305.00 180.23,305.00 181.07,305.00 181.92,305.00 182.76,305.00 183.62,305.00 184.47,305.00 185.33,305.00 186.18,305.00 187.03,305.00 187.88,305.00 188.73,305.00 189.60,305.00 190.46,305.00 191.31,305.00 192.16,305.00 193.02,305.00 193.87,305.00 194.73,305.00 195.58,305.00 196.44,305.00 197.30,305.00 198.15,305.00 199.00,305.00 199.85,305.00 200.70,305.00 201.56,305.00 202.42,305.00 203.28,305.00 204.14,305.00 204.99,305.00 205.85,305.00 206.71,305.00 207.56,305.00 208.42,305.00 209.27,305.00 210.14,305.00 211.01,305.00 211.86,305.00 212.72,305.00 213.57,305.00 214.41,305.00 215.27,305.00 216.12,305.00 216.98,305.00 217.82,305.00 218.67,305.00 219.54,305.00 220.39,305.00 221.25,305.00 222.10,305.00 222.98,305.00 223.83,305.00 224.69,305.00 225.54,305.00 226.39,305.00 227.32,305.00 228.19,305.00 229.04,305.00 229.89,305.00 230.73,305.00 231.59,305.00 232.44,305.00 233.30,305.00 234.16,305.00 235.01,305.00 235.86,305.00 236.72,305.00 237.60,305.00 238.45,305.00 239.30,305.00 240.15,305.00 241.01,305.00 241.89,305.00 242.76,305.00 243.61,305.00 244.47,305.00 245.32,305.00 246.17,305.00 247.03,305.00 247.89,305.00 248.75,305.00 249.61,305.00 250.45,305.00 251.32,305.00 252.17,305.00 253.03,305.00 253.88,305.00 254.75,305.00 255.61,305.00 256.46,305.00 257.30,305.00 258.15,305.00 259.01,305.00 259.87,305.00 260.72,305.00 261.57,305.00 262.42,305.00 263.27,305.00 264.13,305.00 264.99,305.00 265.85,305.00 266.71,305.00 267.57,305.00 268.43,305.00 269.28,305.00 270.14,305.00 270.99,305.00 271.85,305.00 272.71,305.00 273.58,305.00 274.44,305.00 275.30,305.00 276.15,305.00 277.00,305.00 277.86,305.00 278.71,305.00 279.56,305.00 280.42,305.00 281.28,305.00 282.13,305.00 282.99,305.00 283.85,305.00 284.71,305.00 285.56,305.00 286.42,305.00 287.29,305.00 288.14,305.00 288.99,305.00 289.85,305.00 290.72,305.00 291.58,305.00 292.43,305.00 293.28,305.00 294.23,305.00 295.09,305.00 295.95,305.00 296.81,305.00 297.67,305.00 298.53,305.00 299.39,305.00 300.24,305.00 301.09,305.00 301.98,305.00 302.84,305.00 303.69,305.00 304.54,305.00 305.40,305.00 306.26,305.00 307.11,305.00 308.00,305.00 308.86,305.00 309.71,305.00 310.58,305.00 311.50,305.00 312.36,305.00 313.43,305.00 314.88,305.00 315.75,305.00 316.63,305.00 317.48,305.00 318.32,305.00 319.17,305.00 320.04,305.00 320.90,305.00 321.76,305.00 322.65,305.00 323.54,305.00 324.44,305.00 325.30,305.00 326.16,305.00 327.01,305.00 327.88,305.00 328.75,305.00 329.61,305.00 330.46,305.00 331.32,305.00 332.21,305.00 333.07,305.00 333.91,305.00 334.77,305.00 335.64,305.00 336.53,305.00 337.39,305.00 338.25,305.00 339.13,305.00 339.95,305.00 340.80,305.00 341.67,305.00 342.52,305.00 343.39,305.00 344.27,305.00 345.13,305.00 345.98,305.00 346.85,305.00 347.72,305.00 348.57,305.00 349.43,305.00 350.27,305.00 351.13,305.00 351.99,305.00 352.84,305.00 353.86,305.00 354.87,305.00 355.88,305.00 356.88,305.00 357.85,305.00 358.84,305.00 359.85,305.00 360.85,305.00 361.71,305.00 362.55,305.00 363.41,305.00 364.26,305.00 365.12,305.00 365.97,305.00 366.82,305.00 367.67,305.00 368.52,305.00 369.38,305.00 370.23,305.00 371.08,305.00 371.93,305.00 372.78,305.00 373.64,305.00 374.49,305.00 375.34,305.00 376.19,305.00 377.05,305.00 377.91,305.00 378.75,305.00 379.60,305.00 380.45,305.00 381.31,305.00 382.16,305.00 383.02,305.00 383.87,305.00 384.73,305.00 385.58,305.00 386.43,305.00 387.29,305.00 388.14,305.00 388.99,305.00 389.84,305.00 390.69,305.00 391.53,305.00 392.38,305.00 393.23,305.00 394.08,305.00 394.93,305.00 395.78,305.00 396.64,305.00 397.48,305.00 398.33,305.00 399.17,305.00 400.05,305.00 400.97,305.00 401.83,305.00 402.69,305.00 403.54,305.00 404.39,305.00 405.23,305.00 406.08,305.00 406.93,305.00 407.94,305.00 408.94,305.00 409.94,305.00 410.94,305.00 411.95,305.00 412.94,305.00 413.96,305.00 415.00,305.00 415.93,305.00 416.85,305.00 417.71,305.00 418.57,305.00 419.43,305.00 420.27,305.00 421.12,305.00 421.98,305.00 422.83,305.00 423.68,305.00 424.53,305.00 425.39,305.00 426.24,305.00 427.10,305.00 427.96,305.00 428.81,305.00 429.66,305.00 430.41,35.00 431.29,35.00 432.15,35.00 433.02,35.00 433.88,35.00 434.73,35.00 435.59,35.00 436.45,35.00 437.31,35.00 438.17,35.00 439.03,35.00 439.90,35.00 440.75,35.00 441.60,35.00 442.45,35.00 443.30,35.00 444.15,35.00 445.00,35.00 445.86,35.00 446.71,35.00 447.57,35.00 448.42,35.00 449.27,35.00 450.13,35.00 450.99,35.00 451.85,35.00 452.71,35.00 453.56,35.00 454.41,35.00 455.28,35.00 456.13,35.00 457.01,35.00 457.86,35.00 458.71,35.00 459.56,35.00 460.41,35.00 461.26,35.00 462.12,35.00 462.98,35.00 463.82,35.00 464.68,35.00 465.53,35.00 466.38,35.00 467.24,35.00 468.10,35.00 468.96,35.00 469.99,35.00 470.86,35.00 471.74,35.00 472.60,35.00 473.46,35.00 474.33,35.00 475.17,35.00 476.02,35.00 476.89,35.00 477.75,35.00 478.60,35.00 479.46,35.00 480.32,35.00 481.17,35.00 482.05,35.00 482.92,35.00 483.78,35.00 484.64,35.00 485.49,35.00 486.35,35.00 487.20,35.00 488.05,35.00 488.94,35.00 489.80,35.00 490.66,35.00 491.52,35.00 492.37,35.00 493.23,35.00 494.08,35.00 494.94,35.00 495.80,35.00 496.66,35.00 497.52,35.00 498.37,35.00 499.22,35.00 500.08,35.00 500.93,35.00 501.81,35.00 502.66,35.00 503.51,35.00 504.36,35.00 505.22,35.00 506.09,35.00 506.95,35.00 507.98,35.00 508.86,35.00 509.71,35.00 510.57,35.00 511.42,35.00 512.28,35.00 513.13,35.00 513.99,35.00 514.87,35.00 515.72,35.00 516.57,35.00 517.42,35.00 518.28,35.00 519.13,35.00 519.98,35.00 520.85,35.00 521.70,35.00 522.55,35.00 523.40,35.00 524.25,35.00 525.12,35.00 525.97,35.00 526.82,35.00 527.69,35.00 528.55,35.00 529.40,35.00 530.26,35.00 531.12,35.00 532.00,35.00 532.84,35.00 533.70,35.00 534.57,35.00 535.42,35.00 536.27,35.00 537.13,35.00 537.99,35.00 538.87,35.00 539.72,35.00 540.57,35.00 541.42,35.00 542.27,35.00 543.13,35.00 543.99,35.00 544.84,35.00 545.70,35.00 546.57,35.00 547.43,35.00 548.27,35.00 549.14,35.00 549.98,35.00 550.84,35.00 551.69,35.00 552.55,35.00 553.40,35.00 554.27,35.00 555.13,35.00 555.98,35.00 556.84,35.00 557.71,35.00 558.57,35.00 559.42,35.00 560.29,35.00 561.25,35.00 562.19,35.00 563.11,35.00 563.97,35.00 564.86,35.00 565.72,35.00 566.58,35.00 567.43,35.00 568.23,35.00 569.12,35.00 569.98,35.00 570.84,35.00 571.69,35.00 572.54,35.00 573.40,35.00 574.26,35.00 575.11,35.00 575.97,35.00 576.82,35.00 577.68,35.00 578.54,35.00 579.40,35.00 580.27,35.00 581.13,35.00 581.99,35.00 582.85,35.00 583.70,35.00 584.58,35.00 585.44,35.00 586.29,35.00 587.14,35.00 588.00,35.00 588.85,35.00 589.70,35.00 590.56,35.00 591.42,35.00 592.29,35.00 593.14,35.00 593.99,35.00 594.85,35.00 595.71,35.00 596.57,35.00 597.43,35.00 598.28,35.00 599.14,35.00 600.00,35.00 600.86,35.00 601.72,35.00 602.59,35.00 603.45,35.00 604.30,35.00 605.16,35.00 606.02,35.00 606.89,35.00 607.77,35.00 608.63,35.00 609.49,35.00 610.34,35.00 611.20,35.00 612.06,35.00 612.91,35.00 613.78,35.00 614.64,35.00 615.49,35.00 616.35,35.00 617.21,35.00 618.07,35.00 618.94,35.00 619.80,35.00 620.66,35.00 621.52,35.00 622.38,35.00 623.25,35.00 624.11,35.00 624.96,35.00 625.82,35.00 626.68,35.00 627.56,35.00 628.42,35.00 629.29,35.00 630.15,35.00 631.00,35.00 631.85,35.00 632.71,35.00 633.57,35.00 634.43,35.00 635.29,35.00 636.14,35.00 637.00,35.00 637.86,35.00 638.73,35.00 639.59,35.00 640.44,35.00 641.31,35.00 642.17,35.00 643.03,35.00 643.89,35.00 644.74,35.00 645.59,35.00 646.45,35.00 647.30,35.00 648.17,35.00 649.03,35.00 649.89,35.00 650.75,35.00 651.61,35.00 652.47,35.00 653.34,35.00 654.19,35.00 655.05,35.00 655.92,35.00 656.78,35.00 657.64,35.00 658.50,35.00 659.37,35.00 660.23,35.00 661.09,35.00 661.97,35.00 662.83,35.00 663.70,35.00 664.55,35.00 665.41,35.00 666.27,35.00 667.14,35.00 668.00,35.00 668.86,35.00 669.72,35.00 670.58,35.00 671.43,35.00 672.31,35.00 673.17,35.00 674.03,35.00 674.89,35.00 675.75,35.00 676.60,35.00 677.45,35.00 678.30,35.00 679.17,35.00 680.03,35.00 680.89,35.00 681.74,35.00 682.60,35.00 683.46,35.00 684.34,35.00 685.21,35.00 686.06,35.00 686.92,35.00 687.77,35.00 688.63,35.00 689.49,35.00 690.36,35.00 691.21,35.00 692.07,35.00 692.94,35.00 693.79,35.00 694.65,35.00 695.51,35.00 696.38,35.00 697.26,35.00 698.13,35.00 699.00,35.00 699.86,35.00 700.72,35.00 701.59,35.00 702.44,35.00 703.29,35.00 704.14,35.00 705.01,35.00 705.87,35.00 706.74,35.00 707.60,35.00 708.47,35.00 709.36,35.00 710.22,35.00 711.08,35.00 711.94,35.00 712.80,35.00 713.66,35.00 714.53,35.00 715.40,35.00 716.26,35.00 717.13,35.00 717.98,35.00 718.85,35.00 719.71,35.00 720.57,35.00 721.43,35.00 722.29,35.00 723.15,35.00 724.02,35.00 724.88,35.00 725.74,35.00 726.60,35.00 727.46,35.00 728.33,35.00 729.19,35.00 730.05,35.00 730.91,35.00 731.80,35.00 732.66,35.00 733.53,35.00 734.39,35.00 735.27,35.00 736.15,35.00 737.03,35.00 737.90,35.00 738.79,35.00 739.65,35.00 740.51,35.00 741.37,35.00 742.24,35.00 743.10,35.00 743.96,35.00 744.85,35.00 745.70,35.00 746.57,35.00 747.43,35.00 748.28,35.00 749.14,35.00 750.01,35.00 750.86,35.00 751.72,35.00 752.58,35.00 753.43,35.00 754.29,35.00 755.14,35.00 756.00,35.00 756.86,35.00 757.73,35.00 758.58,35.00 759.45,35.00 760.32,35.00 761.17,35.00 762.04,35.00 762.90,35.00 763.76,35.00 764.61,35.00 765.47,35.00 766.33,35.00 767.20,35.00 768.05,35.00 768.90,35.00 769.76,35.00 770.61,35.00 771.48,35.00 772.33,35.00 773.19,35.00 774.05,35.00 774.91,35.00 775.77,35.00 776.63,35.00 777.49,35.00 778.33,35.00 779.19,35.00 780.03,35.00 780.89,35.00 781.75,35.00 782.63,35.00 783.48,35.00 784.34,35.00 785.20,35.00 786.08,35.00 786.94,35.00 787.80,35.00 788.67,35.00 789.53,35.00 790.38,35.00 791.25,35.00 792.11,35.00 792.98,35.00 793.85,35.00 794.71,35.00 795.56,35.00 796.42,35.00 797.27,35.00 798.13,35.00 798.99,35.00 799.84,35.00 800.70,35.00 801.56,35.00 802.42,35.00 803.28,35.00 804.13,35.00 804.99,35.00 805.85,35.00 806.71,35.00 807.58,35.00 808.44,35.00 809.30,35.00 810.15,35.00 811.02,35.00 811.87,35.00 812.73,35.00 813.60,35.00 814.45,35.00 815.31,35.00 816.18,35.00 817.04,35.00 817.90,35.00 818.75,35.00 819.61,35.00 820.50,35.00 821.36,35.00 822.23,35.00 823.10,35.00 823.96,35.00 824.83,35.00 825.69,35.00 826.55,35.00 827.41,35.00 828.27,35.00 829.14,35.00 830.01,35.00 830.88,35.00 831.73,35.00 832.60,35.00 833.45,35.00 834.32,35.00 835.18,35.00 836.03,35.00 836.89,35.00 837.75,35.00 838.61,35.00 839.47,35.00 840.32,35.00 841.19,35.00 842.04,35.00 842.90,35.00 843.76,35.00 844.61,35.00 845.47,35.00 846.35,35.00 847.20,35.00 848.06,35.00 848.92,35.00 849.78,35.00 850.63,35.00 851.50,35.00 852.35,35.00 853.23,35.00 854.08,35.00 854.94,35.00 855.79,35.00 856.66,35.00 857.51,35.00 858.37,35.00 859.24,35.00 860.12,35.00 860.99,35.00 861.87,35.00 862.74,35.00 863.62,35.00 864.51,35.00 865.38,35.00 866.28,35.00 867.15,35.00 868.03,35.00 868.89,35.00 869.74,35.00 870.61,35.00 871.48,35.00 872.34,35.00 873.20,35.00 874.07,35.00 874.93,35.00 875.79,35.00 876.65,35.00 877.51,35.00 878.36,35.00 879.22,35.00 880.08,35.00 880.94,35.00 881.80,35.00 882.66,35.00 883.52,35.00 884.39,35.00 885.26,35.00 886.12,35.00 886.97,35.00 887.83,35.00 888.69,35.00 889.55,35.00 890.41,35.00 891.27,35.00 892.13,35.00 893.00,35.00 893.85,35.00 894.71,35.00 895.58,35.00 896.43,35.00 897.30,35.00 898.22,35.00 899.10,35.00 899.96,35.00 900.82,35.00 901.67,35.00 902.55,35.00 903.42,35.00 904.28,35.00 905.14,35.00 906.00,35.00 906.84,35.00 907.70,35.00 908.56,35.00 909.42,35.00 910.28,35.00 911.14,35.00 912.00,35.00 912.87,35.00 913.74,35.00 914.59,35.00 915.45,35.00 916.30,35.00 917.17,35.00 918.03,35.00 918.89,35.00 919.74,35.00 920.61,35.00 921.47,35.00 922.33,35.00 923.23,35.00 924.09,35.00 924.95,35.00 925.81,35.00 926.67,35.00 927.53,35.00 928.40,35.00 929.26,35.00 930.12,35.00 930.98,35.00 931.85,35.00 932.72,35.00 933.58,35.00 934.45,35.00 935.31,35.00 936.16,35.00 937.03,35.00 937.88,35.00 938.75,35.00 939.60,35.00 940.48,35.00 941.33,35.00 942.19,35.00 943.05,35.00 943.91,35.00 944.77,35.00 945.63,35.00 946.48,35.00 947.35,35.00 948.21,35.00 949.07,35.00 949.93,35.00 950.79,35.00 951.65,35.00 952.51,35.00 953.37,35.00 954.23,35.00 955.09,35.00 955.94,35.00 956.79,35.00 957.65,35.00 958.52,35.00 959.38,35.00 960.26,35.00 961.12,35.00 961.98,35.00 962.85,35.00 963.71,35.00 964.58,35.00 965.51,35.00 966.38,35.00 967.25,35.00 968.12,35.00 968.99,35.00 969.85,35.00 970.70,35.00 971.57,35.00 972.43,35.00 973.29,35.00 974.16,35.00 975.01,35.00 975.88,35.00 976.76,35.00 977.62,35.00 978.48,35.00 979.34,35.00 980.20,35.00 981.07,35.00 981.93,35.00 982.79,35.00 983.65,35.00 984.52,35.00 985.38,35.00 986.24,35.00 987.10,35.00 987.97,35.00 988.83,35.00 989.70,35.00 990.57,35.00 991.43,35.00 992.28,35.00 993.15,35.00 994.02,35.00 994.87,35.00 995.72,35.00 996.59,35.00 997.44,35.00 998.31,35.00 999.18,35.00 1000.03,35.00 1000.89,35.00 1001.75,35.00 1002.62,35.00 1003.47,35.00 1004.34,35.00 1005.20,35.00 1006.07,35.00 1006.94,35.00 1007.77,35.00 1008.62,35.00 1009.47,35.00 1010.34,35.00 1011.20,35.00 1012.06,35.00 1012.94,35.00 1013.79,35.00 1014.66,35.00 1015.53,35.00 1016.39,35.00 1017.25,35.00 1018.10,35.00 1018.96,35.00 1019.81,35.00 1020.67,35.00 1021.53,35.00 1022.39,35.00 1023.25,35.00 1024.10,35.00 1024.96,35.00 1025.82,35.00 1026.68,35.00 1027.55,35.00 1028.40,35.00 1029.25,35.00 1030.08,35.00 1030.97,35.00 1031.82,35.00 1032.69,35.00 1033.55,35.00 1034.42,35.00 1035.28,35.00 1036.13,35.00 1037.00,35.00 1037.86,35.00 1038.72,35.00 1039.58,35.00 1040.51,35.00 1041.36,35.00 1042.24,35.00 1043.10,35.00 1043.97,35.00 1044.82,35.00 1045.68,35.00 1046.55,35.00 1047.40,35.00 1048.26,35.00 1049.12,35.00 1049.98,35.00 1050.84,35.00 1051.71,35.00 1052.57,35.00 1053.43,35.00 1054.29,35.00 1055.15,35.00 1056.01,35.00 1056.88,35.00 1057.74,35.00 1058.61,35.00 1059.49,35.00 1060.36,35.00 1061.22,35.00 1062.08,35.00 1062.95,35.00 1063.81,35.00 1064.68,35.00 1065.53,35.00 1066.39,35.00 1067.25,35.00 1068.11,35.00 1068.97,35.00 1069.84,35.00 1070.70,35.00 1071.56,35.00 1072.42,35.00 1073.27,35.00 1074.13,35.00 1074.99,35.00 1075.86,35.00 1076.71,35.00 1077.57,35.00 1078.43,35.00 1079.28,35.00 1080.14,35.00 1080.99,35.00 1081.85,35.00 1082.70,35.00 1083.56,35.00 1084.42,35.00 1085.28,35.00 1086.13,35.00 1086.99,35.00 1087.84,35.00 1088.71,35.00 1089.56,35.00 1090.42,35.00 1091.27,35.00 1092.12,35.00 1093.00,35.00 1093.85,35.00 1094.71,35.00 1095.57,35.00 1096.47,35.00 1097.32,35.00 1098.19,35.00 1099.06,35.00 1099.92,35.00 1100.78,35.00 1101.64,35.00 1102.51,35.00 1103.37,35.00 1104.22,35.00 1105.08,35.00 1105.93,35.00 1106.80,35.00 1107.66,35.00 1108.52,35.00 1109.37,35.00 1110.23,35.00 1111.09,35.00 1111.94,35.00 1112.81,35.00 1113.67,35.00 1114.57,35.00 1115.43,35.00 1116.28,35.00 1117.13,35.00 1117.98,35.00 1118.86,35.00 1119.71,35.00 1120.57,35.00 1121.44,35.00 1122.30,35.00 1123.16,35.00 1124.02,35.00 1124.88,35.00 1125.75,35.00 1126.60,35.00 1127.46,35.00 1128.33,35.00 1129.18,35.00 1130.04,35.00 1130.89,35.00 1131.75,35.00 1132.61,35.00 1133.46,35.00 1134.32,35.00 1135.18,35.00 1136.04,35.00 1136.90,35.00 1137.76,35.00 1138.62,35.00 1139.48,35.00 1140.34,35.00 1141.20,35.00 1142.05,35.00 1142.92,35.00 1143.78,35.00 1144.64,35.00 1145.50,35.00 1146.35,35.00 1147.20,35.00 1148.06,35.00 1148.93,35.00 1149.78,35.00 1150.66,35.00 1151.52,35.00 1152.38,35.00 1153.24,35.00 1154.10,35.00 1154.96,35.00 1155.84,35.00 1156.71,35.00 1157.62,35.00 1158.48,35.00 1159.41,35.00 1160.27,35.00 1161.12,35.00 1161.97,35.00 1162.83,35.00 1163.69,35.00 1164.55,35.00 1165.41,35.00 1166.27,35.00 1167.13,35.00 1167.99,35.00 1168.85,35.00 1169.70,35.00 1170.56,35.00 1171.42,35.00 1172.28,35.00 1173.13,35.00 1173.98,35.00 1174.85,35.00 1175.71,35.00 1176.58,35.00 1177.43,35.00 1178.28,35.00 1179.14,35.00 1180.00,35.00"/>
<polyline fill="none" stroke="#ff7f0e" stroke-opacity="0.50" stroke-width="2" points="70.00,35.00 70.86,35.00 71.71,35.00 72.57,35.00 73.43,35.00 74.29,35.00 75.14,35.00 76.00,35.00 76.93,35.00 77.78,35.00 78.63,35.00 79.48,35.00 80.35,35.00 81.20,35.00 82.05,35.00 83.59,35.00 84.92,35.00 85.78,35.00 86.66,35.00 87.51,35.00 88.37,35.00 89.20,35.00 90.07,35.00 90.92,35.00 91.78,35.00 92.64,35.00 93.52,35.00 94.38,35.00 95.23,35.00 96.13,35.00 97.00,35.00 97.85,35.00 98.73,35.00 99.58,35.00 100.44,35.00 101.32,35.00 102.17,35.00 103.03,35.00 103.90,35.00 104.75,35.00 105.60,35.00 106.45,35.00 107.30,35.00 108.16,35.00 109.01,35.00 109.88,35.00 110.75,35.00 111.59,35.00 112.45,35.00 113.31,35.00 114.17,35.00 115.15,35.00 116.00,35.00 116.86,35.00 117.70,35.00 118.56,35.00 119.40,35.00 120.25,35.00 121.11,35.00 121.97,35.00 122.84,35.00 123.69,35.00 124.54,35.00 125.40,35.00 126.27,35.00 127.12,35.00 127.98,35.00 128.82,35.00 129.67,35.00 130.52,35.00 131.37,35.00 132.22,35.00 133.08,35.00 133.93,35.00 134.79,35.00 135.64,35.00 136.49,35.00 137.35,35.00 138.20,35.00 139.05,35.00 139.93,35.00 140.78,35.00 141.63,35.00 142.50,35.00 143.35,35.00 144.21,35.00 145.06,35.00 145.91,35.00 146.75,35.00 147.61,35.00 148.48,35.00 149.33,35.00 150.19,35.00 151.04,35.00 151.90,35.00 152.75,35.00 153.60,35.00 154.45,35.00 155.30,35.00 156.15,35.00 157.01,35.00 157.87,35.00 158.73,35.00 159.58,35.00 160.45,35.00 161.31,35.00 162.16,35.00 163.02,35.00 163.87,35.00 164.72,35.00 165.58,35.00 166.44,35.00 167.29,35.00 168.15,35.00 169.01,35.00 169.86,35.00 170.73,35.00 171.60,35.00 172.45,35.00 173.30,35.00 174.16,35.00 175.01,35.00 175.87,35.00 176.73,35.00 177.66,35.00 178.51,35.00 179.37,35.00 180.23,35.00 181.07,35.00 181.92,35.00 182.76,35.00 183.62,35.00 184.47,35.00 185.33,35.00 186.18,35.00 187.03,35.00 187.88,35.00 188.73,35.00 189.60,35.00 190.46,35.00 191.31,35.00 192.16,35.00 193.02,35.00 193.87,35.00 194.73,35.00 195.58,35.00 196.44,35.00 197.30,35.00 198.15,35.00 199.00,35.00 199.85,35.00 200.70,35.00 201.56,35.00 202.42,35.00 203.28,35.00 204.14,35.00 204.99,35.00 205.85,35.00 206.71,35.00 207.56,35.00 208.42,35.00 209.27,35.00 210.14,35.00 211.01,35.00 211.86,35.00 212.72,35.00 213.57,35.00 214.41,35.00 215.27,35.00 216.12,35.00 216.98,35.00 217.82,35.00 218.67,35.00 219.54,35.00 220.39,35.00 221.25,35.00 222.10,35.00 222.98,35.00 223.83,35.00 224.69,35.00 225.54,35.00 226.39,35.00 227.32,35.00 228.19,35.00 229.04,35.00 229.89,35.00 230.73,35.00 231.59,35.00 232.44,35.00 233.30,35.00 234.16,35.00 235.01,35.00 235.86,35.00 236.72,35.00 237.60,35.00 238.45,35.00 239.30,35.00 240.15,35.00 241.01,35.00 241.89,35.00 242.76,35.00 243.61,35.00 244.47,35.00 245.32,35.00 246.17,35.00 247.03,35.00 247.89,35.00 248.75,35.00 249.61,35.00 250.45,35.00 251.32,35.00 252.17,35.00 253.03,35.00 253.88,35.00 254.75,35.00 255.61,35.00 256.46,35.00 257.30,35.00 258.15,35.00 259.01,35.00 259.87,35.00 260.72,35.00 261.57,35.00 262.42,35.00 263.27,35.00 264.13,35.00 264.99,35.00 265.85,35.00 266.71,35.00 267.57,35.00 268.43,35.00 269.28,35.00 270.14,35.00 270.99,35.00 271.85,35.00 272.71,35.00 273.58,35.00 274.44,35.00 275.30,35.00 276.15,35.00 277.00,35.00 277.86,35.00 278.71,35.00 279.56,35.00 280.42,35.00 281.28,35.00 282.13,35.00 282.99,35.00 283.85,35.00 284.71,35.00 285.56,35.00 286.42,35.00 287.29,35.00 288.14,35.00 288.99,35.00 289.85,35.00 290.72,35.00 291.58,35.00 292.43,35.00 293.28,35.00 294.23,35.00 295.09,35.00 295.95,35.00 296.81,35.00 297.67,35.00 298.53,35.00 299.39,35.00 300.24,35.00 301.09,35.00 301.98,35.00 302.84,35.00 303.69,35.00 304.54,35.00 305.40,35.00 306.26,35.00 307.11,35.00 308.00,35.00 308.86,35.00 309.71,35.00 310.58,35.00 311.50,35.00 312.36,35.00 313.43,35.00 314.88,35.00 315.75,35.00 316.63,35.00 317.48,35.00 318.32,35.00 319.17,35.00 320.04,35.00 320.90,35.00 321.76,35.00 322.65,35.00 323.54,35.00 324.44,35.00 325.30,35.00 326.16,35.00 327.01,35.00 327.88,35.00 328.75,35.00 329.61,35.00 330.46,35.00 331.32,35.00 332.21,35.00 333.07,35.00 333.91,35.00 334.77,35.00 335.64,35.00 336.53,35.00 337.39,35.00 338.25,35.00 339.13,35.00 339.95,35.00 340.80,35.00 341.67,35.00 342.52,35.00 343.39,35.00 344.27,35.00 345.13,35.00 345.98,35.00 346.85,35.00 347.72,35.00 348.57,35.00 349.43,35.00 350.27,35.00 351.13,35.00 351.99,35.00 352.84,35.00 353.86,35.00 354.87,35.00 355.88,35.00 356.88,35.00 357.85,35.00 358.84,35.00 359.85,35.00 360.85,35.00 361.71,35.00 362.55,35.00 363.41,35.00 364.26,35.00 365.12,35.00 365.97,35.00 366.82,35.00 367.67,35.00 368.52,35.00 369.38,35.00 370.23,35.00 371.08,35.00 371.93,35.00 372.78,35.00 373.64,35.00 374.49,35.00 375.34,35.00 376.19,35.00 377.05,35.00 377.91,35.00 378.75,35.00 379.60,35.00 380.45,35.00 381.31,35.00 382.16,35.00 383.02,35.00 383.87,35.00 384.73,35.00 385.58,35.00 386.43,35.00 387.29,35.00 388.14,35.00 388.99,35.00 389.84,35.00 390.69,35.00 391.53,35.00 392.38,35.00 393.23,35.00 394.08,35.00 394.93,35.00 395.78,35.00 396.64,35.00 397.48,35.00 398.33,35.00 399.17,35.00 400.05,35.00 400.97,35.00 401.83,35.00 402.69,35.00 403.54,35.00 404.39,35.00 405.23,35.00 406.08,35.00 406.93,35.00 407.94,35.00 408.94,35.00 409.94,35.00 410.94,35.00 411.95,35.00 412.94,35.00 413.96,35.00 415.00,35.00 415.93,35.00 416.85,35.00 417.71,35.00 418.57,35.00 419.43,35.00 420.27,35.00 421.12,35.00 421.98,35.00 422.83,35.00 423.68,35.00 424.53,35.00 425.39,35.00 426.24,35.00 427.10,35.00 427.96,35.00 428.81,35.00 429.66,35.00 430.41,35.00 431.29,35.00 432.15,35.00 433.02,35.00 433.88,35.00 434.73,35.00 435.59,35.00 436.45,35.00 437.31,35.00 438.17,35.00 439.03,35.00 439.90,35.00 440.75,35.00 441.60,35.00 442.45,35.00 443.30,35.00 444.15,35.00 445.00,35.00 445.86,35.00 446.71,35.00 447.57,35.00 448.42,35.00 449.27,35.00 450.13,35.00 450.99,35.00 451.85,35.00 452.71,35.00 453.56,35.00 454.41,35.00 455.28,35.00 456.13,35.00 457.01,35.00 457.86,35.00 458.71,35.00 459.56,35.00 460.41,35.00 461.26,35.00 462.12,35.00 462.98,35.00 463.82,35.00 464.68,35.00 465.53,35.00 466.38,35.00 467.24,35.00 468.10,35.00 468.96,35.00 469.99,35.00 470.86,35.00 471.74,35.00 472.60,35.00 473.46,35.00 474.33,35.00 475.17,35.00 476.02,35.00 476.89,35.00 477.75,35.00 478.60,35.00 479.46,35.00 480.32,35.00 481.17,35.00 482.05,35.00 482.92,35.00 483.78,35.00 484.64,35.00 485.49,35.00 486.35,35.00 487.20,35.00 488.05,35.00 488.94,35.00 489.80,35.00 490.66,35.00 491.52,35.00 492.37,35.00 493.23,35.00 494.08,35.00 494.94,35.00 495.80,35.00 496.66,35.00 497.52,35.00 498.37,35.00 499.22,35.00 500.08,35.00 500.93,35.00 501.81,35.00 502.66,35.00 503.51,35.00 504.36,35.00 505.22,35.00 506.09,35.00 506.95,35.00 507.98,35.00 508.86,35.00 509.71,35.00 510.57,35.00 511.42,35.00 512.28,35.00 513.13,35.00 513.99,35.00 514.87,35.00 515.72,35.00 516.57,35.00 517.42,35.00 518.28,35.00 519.13,35.00 519.98,35.00 520.85,35.00 521.70,35.00 522.55,35.00 523.40,35.00 524.25,35.00 525.12,35.00 525.97,35.00 526.82,35.00 527.69,35.00 528.55,35.00 529.40,35.00 530.26,35.00 531.12,35.00 532.00,35.00 532.84,35.00 533.70,35.00 534.57,35.00 535.42,35.00 536.27,35.00 537.13,35.00 537.99,35.00 538.87,35.00 539.72,35.00 540.57,35.00 541.42,35.00 542.27,35.00 543.13,35.00 543.99,35.00 544.84,35.00 545.70,35.00 546.57,35.00 547.43,35.00 548.27,35.00 549.14,35.00 549.98,35.00 550.84,35.00 551.69,35.00 552.55,35.00 553.40,35.00 554.27,35.00 555.13,35.00 555.98,35.00 556.84,35.00 557.71,35.00 558.57,35.00 559.42,35.00 560.29,35.00 561.25,35.00 562.19,35.00 563.11,35.00 563.97,35.00 564.86,35.00 565.72,35.00 566.58,35.00 567.43,35.00 568.23,35.00 569.12,35.00 569.98,35.00 570.84,35.00 571.69,35.00 572.54,35.00 573.40,35.00 574.26,35.00 575.11,35.00 575.97,35.00 576.82,35.00 577.68,35.00 578.54,35.00 579.40,35.00 580.27,35.00 581.13,35.00 581.99,35.00 582.85,35.00 583.70,35.00 584.58,35.00 585.44,35.00 586.29,35.00 587.14,35.00 588.00,35.00 588.85,35.00 589.70,35.00 590.56,35.00 591.42,35.00 592.29,35.00 593.14,35.00 593.99,35.00 594.85,35.00 595.71,35.00 596.57,35.00 597.43,35.00 598.28,35.00 599.14,35.00 600.00,35.00 600.86,35.00 601.72,35.00 602.59,35.00 603.45,35.00 604.30,35.00 605.16,35.00 606.02,35.00 606.89,35.00 607.77,35.00 608.63,35.00 609.49,35.00 610.34,35.00 611.20,35.00 612.06,35.00 612.91,35.00 613.78,35.00 614.64,35.00 615.49,35.00 616.35,35.00 617.21,35.00 618.07,35.00 618.94,35.00 619.80,35.00 620.66,35.00 621.52,35.00 622.38,35.00 623.25,35.00 624.11,35.00 624.96,35.00 625.82,35.00 626.68,35.00 627.56,35.00 628.42,35.00 629.29,35.00 630.15,35.00 631.00,35.00 631.85,35.00 632.71,35.00 633.57,35.00 634.43,35.00 635.29,35.00 636.14,35.00 637.00,35.00 637.86,35.00 638.73,35.00 639.59,35.00 640.44,35.00 641.31,35.00 642.17,35.00 643.03,35.00 643.89,35.00 644.74,35.00 645.59,35.00 646.45,35.00 647.30,35.00 648.17,35.00 649.03,35.00 649.89,35.00 650.75,35.00 651.61,35.00 652.47,35.00 653.34,35.00 654.19,35.00 655.05,35.00 655.92,35.00 656.78,35.00 657.64,35.00 658.50,35.00 659.37,35.00 660.23,35.00 661.09,35.00 661.97,35.00 662.83,35.00 663.70,35.00 664.55,35.00 665.41,35.00 666.27,35.00 667.14,35.00 668.00,35.00 668.86,35.00 669.72,35.00 670.58,35.00 671.43,35.00 672.31,35.00 673.17,35.00 674.03,35.00 674.89,35.00 675.75,35.00 676.60,35.00 677.45,35.00 678.30,35.00 679.17,35.00 680.03,35.00 680.89,35.00 681.74,35.00 682.60,35.00 683.46,35.00 684.34,35.00 685.21,35.00 686.06,35.00 686.92,35.00 687.77,35.00 688.63,35.00 689.49,35.00 690.36,35.00 691.21,35.00 692.07,35.00 692.94,35.00 693.79,35.00 694.65,35.00 695.51,35.00 696.38,35.00 697.26,35.00 698.13,35.00 699.00,35.00 699.86,35.00 700.72,35.00 701.59,35.00 702.44,35.00 703.29,35.00 704.14,35.00 705.01,35.00 705.87,35.00 706.74,35.00 707.60,35.00 708.47,35.00 709.36,35.00 710.22,35.00 711.08,35.00 711.94,35.00 712.80,35.00 713.66,35.00 714.53,35.00 715.40,35.00 716.26,35.00 717.13,35.00 717.98,35.00 718.85,35.00 719.71,35.00 720.57,35.00 721.43,35.00 722.29,35.00 723.15,35.00 724.02,35.00 724.88,35.00 725.74,35.00 726.60,35.00 727.46,35.00 728.33,35.00 729.19,35.00 730.05,35.00 730.91,35.00 731.80,35.00 732.66,35.00 733.53,35.00 734.39,35.00 735.27,35.00 736.15,35.00 737.03,35.00 737.90,35.00 738.79,35.00 739.65,35.00 740.51,35.00 741.37,35.00 742.24,35.00 743.10,35.00 743.96,35.00 744.85,35.00 745.70,35.00 746.57,35.00 747.43,35.00 748.28,35.00 749.14,35.00 750.01,35.00 750.86,35.00 751.72,35.00 752.58,35.00 753.43,35.00 754.29,35.00 755.14,35.00 756.00,35.00 756.86,35.00 757.73,35.00 758.58,35.00 759.45,35.00 760.32,35.00 761.17,35.00 762.04,35.00 762.90,35.00 763.76,35.00 764.61,35.00 765.47,35.00 766.33,35.00 767.20,35.00 768.05,35.00 768.90,35.00 769.76,35.00 770.61,35.00 771.48,35.00 772.33,35.00 773.19,35.00 774.05,35.00 774.91,35.00 775.77,35.00 776.63,35.00 777.49,35.00 778.33,35.00 779.19,35.00 780.03,35.00 780.89,35.00 781.75,35.00 782.63,35.00 783.48,35.00 784.34,35.00 785.20,35.00 786.08,35.00 786.94,35.00 787.80,35.00 788.67,35.00 789.53,35.00 790.38,35.00 791.25,35.00 792.11,35.00 792.98,35.00 793.85,35.00 794.71,35.00 795.56,35.00 796.42,35.00 797.27,35.00 798.13,35.00 798.99,35.00 799.84,35.00 800.70,35.00 801.56,35.00 802.42,35.00 803.28,35.00 804.13,35.00 804.99,35.00 805.85,35.00 806.71,35.00 807.58,35.00 808.44,35.00 809.30,35.00 810.15,35.00 811.02,35.00 811.87,35.00 812.73,35.00 813.60,35.00 814.45,35.00 815.31,35.00 816.18,35.00 817.04,35.00 817.90,35.00 818.75,35.00 819.61,35.00 820.50,35.00 821.36,35.00 822.23,35.00 823.10,35.00 823.96,35.00 824.83,35.00 825.69,35.00 826.55,35.00 827.41,35.00 828.27,35.00 829.14,35.00 830.01,35.00 830.88,35.00 831.73,35.00 832.60,35.00 833.45,35.00 834.32,35.00 835.18,35.00 836.03,35.00 836.89,35.00 837.75,35.00 838.61,35.00 839.47,35.00 840.32,35.00 841.19,35.00 842.04,35.00 842.90,35.00 843.76,35.00 844.61,35.00 845.47,35.00 846.35,35.00 847.20,35.00 848.06,35.00 848.92,35.00 849.78,35.00 850.63,35.00 851.50,35.00 852.35,35.00 853.23,35.00 854.08,35.00 854.94,35.00 855.79,35.00 856.66,35.00 857.51,35.00 858.37,35.00 859.24,35.00 860.12,35.00 860.99,35.00 861.87,35.00 862.74,35.00 863.62,35.00 864.51,35.00 865.38,35.00 866.28,35.00 867.15,35.00 868.03,35.00 868.89,35.00 869.74,35.00 870.61,35.00 871.48,35.00 872.34,35.00 873.20,35.00 874.07,35.00 874.93,35.00 875.79,35.00 876.65,35.00 877.51,35.00 878.36,35.00 879.22,35.00 880.08,35.00 880.94,35.00 881.80,35.00 882.66,35.00 883.52,35.00 884.39,35.00 885.26,35.00 886.12,35.00 886.97,35.00 887.83,35.00 888.69,35.00 889.55,35.00 890.41,35.00 891.27,35.00 892.13,35.00 893.00,35.00 893.85,35.00 894.71,35.00 895.58,35.00 896.43,35.00 897.30,35.00 898.22,35.00 899.10,35.00 899.96,35.00 900.82,35.00 901.67,35.00 902.55,35.00 903.42,35.00 904.28,35.00 905.14,35.00 906.00,35.00 906.84,35.00 907.70,35.00 908.56,35.00 909.42,35.00 910.28,35.00 911.14,35.00 912.00,35.00 912.87,35.00 913.74,35.00 914.59,35.00 915.45,35.00 916.30,35.00 917.17,35.00 918.03,35.00 918.89,35.00 919.74,35.00 920.61,35.00 921.47,35.00 922.33,35.00 923.23,35.00 924.09,35.00 924.95,35.00 925.81,35.00 926.67,35.00 927.53,35.00 928.40,35.00 929.26,35.00 930.12,35.00 930.98,35.00 931.85,35.00 932.72,35.00 933.58,35.00 934.45,35.00 935.31,35.00 936.16,35.00 937.03,35.00 937.88,35.00 938.75,35.00 939.60,35.00 940.48,35.00 941.33,35.00 942.19,35.00 943.05,35.00 943.91,35.00 944.77,35.00 945.63,35.00 946.48,35.00 947.35,35.00 948.21,35.00 949.07,35.00 949.93,35.00 950.79,35.00 951.65,35.00 952.51,35.00 953.37,35.00 954.23,35.00 955.09,35.00 955.94,35.00 956.79,35.00 957.65,35.00 958.52,35.00 959.38,35.00 960.26,35.00 961.12,35.00 961.98,35.00 962.85,35.00 963.71,35.00 964.58,35.00 965.51,35.00 966.38,35.00 967.25,35.00 968.12,35.00 968.99,35.00 969.85,35.00 970.70,35.00 971.57,35.00 972.43,35.00 973.29,35.00 974.16,35.00 975.01,35.00 975.88,35.00 976.76,35.00 977.62,35.00 978.48,35.00 979.34,35.00 980.20,35.00 981.07,35.00 981.93,35.00 982.79,35.00 983.65,35.00 984.52,35.00 985.38,35.00 986.24,35.00 987.10,35.00 987.97,35.00 988.83,35.00 989.70,35.00 990.57,35.00 991.43,35.00 992.28,35.00 993.15,35.00 994.02,35.00 994.87,35.00 995.72,35.00 996.59,35.00 997.44,35.00 998.31,35.00 999.18,35.00 1000.03,35.00 1000.89,35.00 1001.75,35.00 1002.62,35.00 1003.47,35.00 1004.34,35.00 1005.20,35.00 1006.07,35.00 1006.94,35.00 1007.77,35.00 1008.62,35.00 1009.47,35.00 1010.34,35.00 1011.20,35.00 1012.06,35.00 1012.94,35.00 1013.79,35.00 1014.66,35.00 1015.53,35.00 1016.39,35.00 1017.25,35.00 1018.10,35.00 1018.96,35.00 1019.81,35.00 1020.67,35.00 1021.53,35.00 1022.39,35.00 1023.25,35.00 1024.10,35.00 1024.96,35.00 1025.82,35.00 1026.68,35.00 1027.55,35.00 1028.40,35.00 1029.25,35.00 1030.08,35.00 1030.97,35.00 1031.82,35.00 1032.69,35.00 1033.55,35.00 1034.42,35.00 1035.28,35.00 1036.13,35.00 1037.00,35.00 1037.86,35.00 1038.72,35.00 1039.58,35.00 1040.51,35.00 1041.36,35.00 1042.24,35.00 1043.10,35.00 1043.97,35.00 1044.82,35.00 1045.68,35.00 1046.55,35.00 1047.40,35.00 1048.26,35.00 1049.12,35.00 1049.98,35.00 1050.84,35.00 1051.71,35.00 1052.57,35.00 1053.43,35.00 1054.29,35.00 1055.15,35.00 1056.01,35.00 1056.88,35.00 1057.74,35.00 1058.61,35.00 1059.49,35.00 1060.36,35.00 1061.22,35.00 1062.08,35.00 1062.95,35.00 1063.81,35.00 1064.68,35.00 1065.53,35.00 1066.39,35.00 1067.25,35.00 1068.11,35.00 1068.97,35.00 1069.84,35.00 1070.70,35.00 1071.56,35.00 1072.42,35.00 1073.27,35.00 1074.13,35.00 1074.99,35.00 1075.86,35.00 1076.71,35.00 1077.57,35.00 1078.43,35.00 1079.28,35.00 1080.14,35.00 1080.99,35.00 1081.85,35.00 1082.70,35.00 1083.56,35.00 1084.42,35.00 1085.28,35.00 1086.13,35.00 1086.99,35.00 1087.84,35.00 1088.71,35.00 1089.56,35.00 1090.42,35.00 1091.27,35.00 1092.12,35.00 1093.00,35.00 1093.85,35.00 1094.71,35.00 1095.57,35.00 1096.47,35.00 1097.32,35.00 1098.19,35.00 1099.06,35.00 1099.92,35.00 1100.78,35.00 1101.64,35.00 1102.51,35.00 1103.37,35.00 1104.22,35.00 1105.08,35.00 1105.93,35.00 1106.80,35.00 1107.66,35.00 1108.52,35.00 1109.37,35.00 1110.23,35.00 1111.09,35.00 1111.94,35.00 1112.81,35.00 1113.67,35.00 1114.57,35.00 1115.43,35.00 1116.28,35.00 1117.13,35.00 1117.98,35.00 1118.86,35.00 1119.71,35.00 1120.57,35.00 1121.44,35.00 1122.30,35.00 1123.16,35.00 1124.02,35.00 1124.88,35.00 1125.75,35.00 1126.60,35.00 1127.46,35.00 1128.33,35.00 1129.18,35.00 1130.04,35.00 1130.89,35.00 1131.75,35.00 1132.61,35.00 1133.46,35.00 1134.32,35.00 1135.18,35.00 1136.04,35.00 1136.90,35.00 1137.76,35.00 1138.62,35.00 1139.48,35.00 1140.34,35.00 1141.20,35.00 1142.05,35.00 1142.92,35.00 1143.78,35.00 1144.64,35.00 1145.50,35.00 1146.35,35.00 1147.20,35.00 1148.06,35.00 1148.93,35.00 1149.78,35.00 1150.66,35.00 1151.52,35.00 1152.38,35.00 1153.24,35.00 1154.10,35.00 1154.96,35.00 1155.84,35.00 1156.71,35.00 1157.62,35.00 1158.48,35.00 1159.41,35.00 1160.27,35.00 1161.12,35.00 1161.97,35.00 1162.83,35.00 1163.69,35.00 1164.55,35.00 1165.41,35.00 1166.27,35.00 1167.13,35.00 1167.99,35.00 1168.85,35.00 1169.70,35.00 1170.56,35.00 1171.42,35.00 1172.28,35.00 1173.13,35.00 1173.98,35.00 1174.85,35.00 1175.71,35.00 1176.58,35.00 1177.43,35.00 1178.28,35.00 1179.14,35.00 1180.00,35.00"/>
<rect x="70" y="332" width="12" height="12" fill="#ff7f0e" fill-opacity="0.95"/>
<text x="88" y="342" font-size="11" fill="#333" font-family="Arial, Helvetica, sans-serif">nsc1.utdallas.edu</text>
<rect x="350" y="332" width="12" height="12" fill="#ff7f0e" fill-opacity="0.80"/>
<text x="368" y="342" font-size="11" fill="#333" font-family="Arial, Helvetica, sans-serif">nsc2.utdallas.edu</text>
<rect x="630" y="332" width="12" height="12" fill="#ff7f0e" fill-opacity="0.65"/>
<text x="648" y="342" font-size="11" fill="#333" font-family="Arial, Helvetica, sans-serif">nsc3.utdallas.edu</text>
<rect x="910" y="332" width="12" height="12" fill="#ff7f0e" fill-opacity="0.50"/>
<text x="928" y="342" font-size="11" fill="#333" font-family="Arial, Helvetica, sans-serif">nsc4.utdallas.edu</text>
</svg>