<?xml version="1.0" encoding="UTF-8"?>
<svg xmlns="http://www.w3.org/2000/svg" width="1200" height="360" viewBox="0 0 1200 360" role="img" aria-label="CUDA Health (%)">
<rect width="100%" height="100%" fill="#ffffff"/>
<text x="600.0" y="22" text-anchor="middle" font-size="16" font-family="Arial, Helvetica, sans-serif" font-weight="bold">CUDA Health (%)</text>
<line x1="70" y1="35.00" x2="1180" y2="35.00" stroke="#e3e3e3" stroke-width="1"/>
<text x="62" y="39.00" text-anchor="end" font-size="11" fill="#444" font-family="Arial, Helvetica, sans-serif">100</text>
<line x1="70" y1="89.00" x2="1180" y2="89.00" stroke="#e3e3e3" stroke-width="1"/>
<text x="62" y="93.00" text-anchor="end" font-size="11" fill="#444" font-family="Arial, Helvetica, sans-serif">80</text>
<line x1="70" y1="143.00" x2="1180" y2="143.00" stroke="#e3e3e3" stroke-width="1"/>
<text x="62" y="147.00" text-anchor="end" font-size="11" fill="#444" font-family="Arial, Helvetica, sans-serif">60</text>
<line x1="70" y1="197.00" x2="1180" y2="197.00" stroke="#e3e3e3" stroke-width="1"/>
<text x="62" y="201.00" text-anchor="end" font-size="11" fill="#444" font-family="Arial, Helvetica, sans-serif">40</text>
<line x1="70" y1="251.00" x2="1180" y2="251.00" stroke="#e3e3e3" stroke-width="1"/>
<text x="62" y="255.00" text-anchor="end" font-size="11" fill="#444" font-family="Arial, Helvetica, sans-serif">20</text>
<line x1="70" y1="305.00" x2="1180" y2="305.00" stroke="#e3e3e3" stroke-width="1"/>
<text x="62" y="309.00" text-anchor="end" font-size="11" fill="#444" font-family="Arial, Helvetica, sans-serif">0</text>
<line x1="70" y1="35" x2="70" y2="305" stroke="#999"/>
<line x1="70" y1="305" x2="1180" y2="305" stroke="#999"/>
<text x="70.00" y="323" text-anchor="middle" font-size="10" fill="#444" font-family="Arial, Helvetica, sans-serif">2026-02-11 16:38</text>
<text x="347.50" y="323" text-anchor="middle" font-size="10" fill="#444" font-family="Arial, Helvetica, sans-serif">2026-02-12 10:29</text>
<text x="625.00" y="323" text-anchor="middle" font-size="10" fill="#444" font-family="Arial, Helvetica, sans-serif">2026-02-13 04:21</text>
<text x="902.50" y="323" text-anchor="middle" font-size="10" fill="#444" font-family="Arial, Helvetica, sans-serif">2026-02-13 22:12</text>
<text x="1180.00" y="323" text-anchor="middle" font-size="10" fill="#444" font-family="Arial, Helvetica, sans-serif">2026-02-14 16:04</text>
<polyline fill="none" stroke="#ff7f0e" stroke-opacity="0.95" stroke-width="2" points="71.39,35.00 72.79,35.00 74.18,35.00 75.58,35.00 76.99,35.00 78.37,35.00 79.77,35.00 81.28,35.00 82.66,35.00 84.05,35.00 85.43,35.00 86.85,35.00 88.23,35.00 89.62,35.00 92.13,35.00 94.29,35.00 95.70,35.00 97.13,35.00 98.52,35.00 99.91,35.00 101.27,35.00 102.68,35.00 104.07,35.00 105.47,35.00 106.87,35.00 108.29,35.00 109.69,35.00 111.09,35.00 112.55,35.00 113.96,35.00 115.35,35.00 116.78,35.00 118.17,35.00 119.56,35.00 121.00,35.00 122.38,35.00 123.78,35.00 125.20,35.00 126.57,35.00 127.97,35.00 129.34,35.00 130.73,35.00 132.13,35.00 133.52,35.00 134.94,35.00 136.35,35.00 137.73,35.00 139.12,35.00 140.52,35.00 141.92,35.00 143.51,35.00 144.90,35.00 146.29,35.00 147.67,35.00 149.06,35.00 150.44,35.00 151.83,35.00 153.22,35.00 154.61,35.00 156.03,35.00 157.42,35.00 158.80,35.00 160.20,35.00 161.61,35.00 163.00,35.00 164.40,35.00 165.78,35.00 167.16,35.00 168.55,35.00 169.93,35.00 171.32,35.00 172.71,35.00 174.09,35.00 175.49,35.00 176.88,35.00 178.26,35.00 179.66,35.00 181.04,35.00 182.43,35.00 183.86,35.00 185.25,35.00 186.64,35.00 188.04,35.00 189.43,35.00 190.82,35.00 192.21,35.00 193.59,35.00 194.97,35.00 196.38,35.00 197.78,35.00 199.17,35.00 200.57,35.00 201.95,35.00 203.35,35.00 204.73,35.00 206.12,35.00 207.50,35.00 208.90,35.00 210.28,35.00 211.68,35.00 213.07,35.00 214.47,35.00 215.86,35.00 217.27,35.00 218.68,35.00 220.07,35.00 221.45,35.00 222.84,35.00 224.23,35.00 225.63,35.00 227.03,35.00 228.42,35.00 229.81,35.00 231.20,35.00 232.60,35.00 234.01,35.00 235.42,35.00 236.81,35.00 238.20,35.00 239.59,35.00 240.98,35.00 242.37,35.00 243.78,35.00 245.29,35.00 246.67,35.00 248.08,35.00 249.47,35.00 250.86,35.00 252.24,35.00 253.60,35.00 254.99,35.00 256.39,35.00 257.78,35.00 259.16,35.00 260.55,35.00 261.94,35.00 263.32,35.00 264.74,35.00 266.13,35.00 267.52,35.00 268.90,35.00 270.30,35.00 271.68,35.00 273.08,35.00 274.48,35.00 275.87,35.00 277.27,35.00 278.66,35.00 280.04,35.00 281.43,35.00 282.81,35.00 284.20,35.00 285.60,35.00 287.01,35.00 288.40,35.00 289.79,35.00 291.20,35.00 292.59,35.00 293.98,35.00 295.37,35.00 296.77,35.00 298.18,35.00 299.60,35.00 300.98,35.00 302.38,35.00 303.76,35.00 305.14,35.00 306.53,35.00 307.92,35.00 309.31,35.00 310.69,35.00 312.07,35.00 313.48,35.00 314.87,35.00 316.27,35.00 317.66,35.00 319.09,35.00 320.48,35.00 321.87,35.00 323.25,35.00 324.63,35.00 326.15,35.00 327.57,35.00 328.95,35.00 330.34,35.00 331.71,35.00 333.11,35.00 334.50,35.00 335.90,35.00 337.29,35.00 338.68,35.00 340.07,35.00 341.46,35.00 342.88,35.00 344.27,35.00 345.65,35.00 347.04,35.00 348.45,35.00 349.87,35.00 351.30,35.00 352.68,35.00 354.07,35.00 355.47,35.00 356.85,35.00 358.25,35.00 359.64,35.00 361.05,35.00 362.44,35.00 363.82,35.00 365.23,35.00 366.62,35.00 368.01,35.00 369.41,35.00 370.82,35.00 372.21,35.00 373.60,35.00 374.97,35.00 376.36,35.00 377.76,35.00 379.15,35.00 380.53,35.00 381.92,35.00 383.30,35.00 384.69,35.00 386.09,35.00 387.49,35.00 388.88,35.00 390.29,35.00 391.69,35.00 393.09,35.00 394.48,35.00 395.88,35.00 397.26,35.00 398.66,35.00 400.05,35.00 401.48,35.00 402.87,35.00 404.27,35.00 405.66,35.00 407.05,35.00 408.45,35.00 409.82,35.00 411.21,35.00 412.62,35.00 414.01,35.00 415.40,35.00 416.80,35.00 418.20,35.00 419.59,35.00 420.99,35.00 422.39,35.00 423.80,35.00 425.18,35.00 426.57,35.00 427.97,35.00 429.38,35.00 430.78,35.00 432.17,35.00 433.56,35.00 435.10,35.00 436.51,35.00 437.90,35.00 439.29,35.00 440.70,35.00 442.10,35.00 443.49,35.00 444.89,35.00 446.27,35.00 447.71,35.00 449.12,35.00 450.50,35.00 451.89,35.00 453.29,35.00 454.68,35.00 456.07,35.00 457.52,35.00 458.91,35.00 460.30,35.00 461.71,35.00 463.22,35.00 464.61,35.00 466.36,35.00 468.72,35.00 470.14,35.00 471.57,35.00 472.96,35.00 474.32,35.00 475.71,35.00 477.12,35.00 478.52,35.00 479.92,35.00 481.37,35.00 482.82,35.00 484.29,35.00 485.69,35.00 487.08,35.00 488.48,35.00 489.89,35.00 491.30,35.00 492.71,35.00 494.09,35.00 495.48,35.00 496.93,35.00 498.34,35.00 499.71,35.00 501.11,35.00 502.53,35.00 503.97,35.00 505.38,35.00 506.77,35.00 508.20,35.00 509.54,35.00 510.92,35.00 512.34,35.00 513.73,35.00 515.14,35.00 516.58,35.00 517.98,35.00 519.37,35.00 520.78,35.00 522.19,35.00 523.58,35.00 524.97,35.00 526.35,35.00 527.75,35.00 529.15,35.00 530.53,35.00 532.19,35.00 533.83,35.00 535.48,35.00 537.10,35.00 538.69,35.00 540.30,35.00 541.95,35.00 543.57,35.00 544.97,35.00 546.35,35.00 547.74,35.00 549.13,35.00 550.52,35.00 551.90,35.00 553.29,35.00 554.67,35.00 556.07,35.00 557.46,35.00 558.85,35.00 560.23,35.00 561.62,35.00 563.00,35.00 564.39,35.00 565.78,35.00 567.17,35.00 568.55,35.00 569.95,35.00 571.35,35.00 572.73,35.00 574.11,35.00 575.49,35.00 576.88,35.00 578.28,35.00 579.67,35.00 581.06,35.00 582.45,35.00 583.84,35.00 585.23,35.00 586.62,35.00 588.01,35.00 589.39,35.00 590.78,35.00 592.15,35.00 593.52,35.00 594.91,35.00 596.30,35.00 597.68,35.00 599.07,35.00 600.45,35.00 601.84,35.00 603.22,35.00 604.59,35.00 605.96,35.00 607.40,35.00 608.90,35.00 610.30,35.00 611.69,35.00 613.08,35.00 614.46,35.00 615.84,35.00 617.22,35.00 618.60,35.00 620.25,35.00 621.88,35.00 623.50,35.00 625.13,35.00 626.77,35.00 628.39,35.00 630.05,35.00 631.74,35.00 633.26,35.00 634.75,35.00 636.15,35.00 637.56,35.00 638.95,35.00 640.33,35.00 641.71,35.00 643.11,35.00 644.49,35.00 645.88,35.00 647.26,35.00 648.66,35.00 650.05,35.00 651.44,35.00 652.85,35.00 654.23,35.00 655.62,35.00 656.83,35.00 658.27,35.00 659.66,35.00 661.09,35.00 662.48,35.00 663.86,35.00 665.26,35.00 666.67,35.00 668.06,35.00 669.47,35.00 670.87,35.00 672.29,35.00 673.67,35.00 675.05,35.00 676.44,35.00 677.82,35.00 679.20,35.00 680.59,35.00 681.99,35.00 683.38,35.00 684.77,35.00 686.16,35.00 687.54,35.00 688.95,35.00 690.33,35.00 691.73,35.00 693.14,35.00 694.53,35.00 695.91,35.00 697.32,35.00 698.71,35.00 700.15,35.00 701.53,35.00 702.91,35.00 704.30,35.00 705.68,35.00 707.06,35.00 708.47,35.00 709.86,35.00 711.24,35.00 712.63,35.00 714.01,35.00 715.40,35.00 716.80,35.00 718.20,35.00 719.59,35.00 721.27,35.00 722.70,35.00 724.13,35.00 725.53,35.00 726.93,35.00 728.34,35.00 729.71,35.00 731.10,35.00 732.51,35.00 733.91,35.00 735.29,35.00 736.69,35.00 738.09,35.00 739.48,35.00 740.92,35.00 742.34,35.00 743.73,35.00 745.13,35.00 746.52,35.00 747.91,35.00 749.29,35.00 750.69,35.00 752.14,35.00 753.54,35.00 754.94,35.00 756.33,35.00 757.72,35.00 759.12,35.00 760.51,35.00 761.90,35.00 763.30,35.00 764.70,35.00 766.10,35.00 767.49,35.00 768.88,35.00 770.27,35.00 771.66,35.00 773.08,35.00 774.47,35.00 775.86,35.00 777.24,35.00 778.64,35.00 780.05,35.00 781.45,35.00 783.13,35.00 784.56,35.00 785.95,35.00 787.35,35.00 788.73,35.00 790.13,35.00 791.53,35.00 792.92,35.00 794.34,35.00 795.73,35.00 797.12,35.00 798.51,35.00 799.90,35.00 801.29,35.00 802.68,35.00 804.08,35.00 805.47,35.00 806.85,35.00 808.24,35.00 809.63,35.00 811.04,35.00 812.43,35.00 813.81,35.00 815.23,35.00 816.63,35.00 818.02,35.00 819.41,35.00 820.81,35.00 822.24,35.00 823.62,35.00 825.02,35.00 826.42,35.00 827.81,35.00 829.20,35.00 830.60,35.00 832.00,35.00 833.43,35.00 834.82,35.00 836.20,35.00 837.58,35.00 838.97,35.00 840.37,35.00 841.76,35.00 843.15,35.00 844.56,35.00 845.97,35.00 847.37,35.00 848.73,35.00 850.15,35.00 851.53,35.00 852.92,35.00 854.31,35.00 855.71,35.00 857.09,35.00 858.51,35.00 859.90,35.00 861.29,35.00 862.70,35.00 864.10,35.00 865.50,35.00 866.90,35.00 868.30,35.00 869.87,35.00 871.40,35.00 872.89,35.00 874.30,35.00 875.75,35.00 877.15,35.00 878.55,35.00 879.93,35.00 881.23,35.00 882.68,35.00 884.08,35.00 885.49,35.00 886.86,35.00 888.26,35.00 889.64,35.00 891.05,35.00 892.44,35.00 893.84,35.00 895.23,35.00 896.62,35.00 898.02,35.00 899.42,35.00 900.83,35.00 902.24,35.00 903.64,35.00 905.04,35.00 906.43,35.00 907.85,35.00 909.25,35.00 910.63,35.00 912.02,35.00 913.42,35.00 914.81,35.00 916.20,35.00 917.60,35.00 918.99,35.00 920.41,35.00 921.79,35.00 923.18,35.00 924.58,35.00 925.98,35.00 927.38,35.00 928.78,35.00 930.17,35.00 931.57,35.00 932.96,35.00 934.37,35.00 935.77,35.00 937.18,35.00 938.57,35.00 939.97,35.00 941.37,35.00 942.77,35.00 944.18,35.00 945.61,35.00 947.01,35.00 948.41,35.00 949.80,35.00 951.20,35.00 952.59,35.00 953.99,35.00 955.39,35.00 956.80,35.00 958.19,35.00 959.59,35.00 960.99,35.00 962.39,35.00 963.80,35.00 965.20,35.00 966.60,35.00 968.01,35.00 969.41,35.00 970.82,35.00 972.22,35.00 973.61,35.00 975.01,35.00 976.41,35.00 977.84,35.00 979.24,35.00 980.65,35.00 982.05,35.00 983.43,35.00 984.83,35.00 986.22,35.00 987.63,35.00 989.03,35.00 990.42,35.00 991.82,35.00 993.21,35.00 994.61,35.00 996.02,35.00 997.42,35.00 998.81,35.00 1000.22,35.00 1001.62,35.00 1003.02,35.00 1004.42,35.00 1005.81,35.00 1007.20,35.00 1008.59,35.00 1009.99,35.00 1011.39,35.00 1012.80,35.00 1014.19,35.00 1015.60,35.00 1016.99,35.00 1018.40,35.00 1019.81,35.00 1021.20,35.00 1022.61,35.00 1024.02,35.00 1025.42,35.00 1026.81,35.00 1028.22,35.00 1029.63,35.00 1031.04,35.00 1032.43,35.00 1033.86,35.00 1035.27,35.00 1036.68,35.00 1038.07,35.00 1039.46,35.00 1040.87,35.00 1042.28,35.00 1043.69,35.00 1045.09,35.00 1046.49,35.00 1047.88,35.00 1049.27,35.00 1050.71,35.00 1052.10,35.00 1053.51,35.00 1054.90,35.00 1056.30,35.00 1057.69,35.00 1059.07,35.00 1060.46,35.00 1061.87,35.00 1063.27,35.00 1064.67,35.00 1066.06,35.00 1067.46,35.00 1068.86,35.00 1070.30,35.00 1071.70,35.00 1073.09,35.00 1074.49,35.00 1075.88,35.00 1077.28,35.00 1078.67,35.00 1080.09,35.00 1081.48,35.00 1082.88,35.00 1084.29,35.00 1085.68,35.00 1087.08,35.00 1088.48,35.00 1089.89,35.00 1091.33,35.00 1092.74,35.00 1094.15,35.00 1095.56,35.00 1096.96,35.00 1098.37,35.00 1099.75,35.00 1101.15,35.00 1102.53,35.00 1103.95,35.00 1105.35,35.00 1106.76,35.00 1108.16,35.00 1109.58,35.00 1111.03,35.00 1112.43,35.00 1113.82,35.00 1115.23,35.00 1116.62,35.00 1118.03,35.00 1119.44,35.00 1120.85,35.00 1122.26,35.00 1123.67,35.00 1125.07,35.00 1126.48,35.00 1127.88,35.00 1129.28,35.00 1130.68,35.00 1132.08,35.00 1133.48,35.00 1134.89,35.00 1136.30,35.00 1137.70,35.00 1139.10,35.00 1140.50,35.00 1141.91,35.00 1143.31,35.00 1144.72,35.00 1146.12,35.00 1147.57,35.00 1148.97,35.00 1150.39,35.00 1151.79,35.00 1153.22,35.00 1154.65,35.00 1156.08,35.00 1157.50,35.00 1158.95,35.00 1160.35,35.00 1161.75,35.00 1163.15,35.00 1164.56,35.00 1165.96,35.00 1167.37,35.00 1168.81,35.00 1170.20,35.00 1171.61,35.00 1173.01,35.00 1174.40,35.00 1175.80,35.00 1177.21,35.00 1178.60,35.00 1180.00,35.00"/>
<polyline fill="none" stroke="#ff7f0e" stroke-opacity="0.80" stroke-width="2" points="70.00,35.00 71.39,35.00 72.79,35.00 74.18,35.00 75.58,35.00 76.99,35.00 78.37,35.00 79.77,35.00 81.28,35.00 82.66,35.00 84.05,35.00 85.43,35.00 86.85,35.00 88.23,35.00 89.62,35.00 92.13,35.00 94.29,35.00 95.70,35.00 97.13,35.00 98.52,35.00 99.91,35.00 101.27,35.00 102.68,35.00 104.07,35.00 105.47,35.00 106.87,35.00 108.29,35.00 109.69,35.00 111.09,35.00 112.55,35.00 113.96,35.00 115.35,35.00 116.78,35.00 118.17,35.00 119.56,35.00 121.00,35.00 122.38,35.00 123.78,35.00 125.20,35.00 126.57,35.00 127.97,35.00 129.34,35.00 130.73,35.00 132.13,35.00 133.52,35.00 134.94,35.00 136.35,35.00 137.73,35.00 139.12,35.00 140.52,35.00 141.92,35.00 143.51,35.00 144.90,35.00 146.29,35.00 147.67,35.00 149.06,35.00 150.44,35.00 151.83,35.00 153.22,35.00 154.61,35.00 156.03,35.00 157.42,35.00 158.80,35.00 160.20,35.00 161.61,35.00 163.00,35.00 164.40,35.00 165.78,35.00 167.16,35.00 168.55,35.00 169.93,35.00 171.32,35.00 172.71,35.00 174.09,35.00 175.49,35.00 176.88,35.00 178.26,35.00 179.66,35.00 181.04,35.00 182.43,35.00 183.86,35.00 185.25,35.00 186.64,35.00 188.04,35.00 189.43,35.00 190.82,35.00 192.21,35.00 193.59,35.00 194.97,35.00 196.38,35.00 197.78,35.00 199.17,35.00 200.57,35.00 201.95,35.00 203.35,35.00 204.73,35.00 206.12,35.00 207.50,35.00 208.90,35.00 210.28,35.00 211.68,35.00 213.07,35.00 214.47,35.00 215.86,35.00 217.27,35.00 218.68,35.00 220.07,35.00 221.45,35.00 222.84,35.00 224.23,35.00 225.63,35.00 227.03,35.00 228.42,35.00 229.81,35.00 231.20,35.00 232.60,35.00 234.01,35.00 235.42,35.00 236.81,35.00 238.20,35.00 239.59,35.00 240.98,35.00 242.37,35.00 243.78,35.00 245.29,35.00 246.67,35.00 248.08,35.00 249.47,35.00 250.86,35.00 252.24,35.00 253.60,35.00 254.99,35.00 256.39,35.00 257.78,35.00 259.16,35.00 260.55,35.00 261.94,35.00 263.32,35.00 264.74,35.00 266.13,35.00 267.52,35.00 268.90,35.00 270.30,35.00 271.68,35.00 273.08,35.00 274.48,35.00 275.87,35.00 277.27,35.00 278.66,35.00 280.04,35.00 281.43,35.00 282.81,35.00 284.20,35.00 285.60,35.00 287.01,35.00 288.40,35.00 289.79,35.00 291.20,35.00 292.59,35.00 293.98,35.00 295.37,35.00 296.77,35.00 298.18,35.00 299.60,35.00 300.98,35.00 302.38,35.00 303.76,35.00 305.14,35.00 306.53,35.00 307.92,35.00 309.31,35.00 310.69,35.00 312.07,35.00 313.48,35.00 314.87,35.00 316.27,35.00 317.66,35.00 319.09,35.00 320.48,35.00 321.87,35.00 323.25,35.00 324.63,35.00 326.15,35.00 327.57,35.00 328.95,35.00 330.34,35.00 331.71,35.00 333.11,35.00 334.50,35.00 335.90,35.00 337.29,35.00 338.68,35.00 340.07,35.00 341.46,35.00 342.88,35.00 344.27,35.00 345.65,35.00 347.04,35.00 348.45,35.00 349.87,35.00 351.30,35.00 352.68,35.00 354.07,35.00 355.47,35.00 356.85,35.00 358.25,35.00 359.64,35.00 361.05,35.00 362.44,35.00 363.82,35.00 365.23,35.00 366.62,35.00 368.01,35.00 369.41,35.00 370.82,35.00 372.21,35.00 373.60,35.00 374.97,35.00 376.36,35.00 377.76,35.00 379.15,35.00 380.53,35.00 381.92,35.00 383.30,35.00 384.69,35.00 386.09,35.00 387.49,35.00 388.88,35.00 390.29,35.00 391.69,35.00 393.09,35.00 394.48,35.00 395.88,35.00 397.26,35.00 398.66,35.00 400.05,35.00 401.48,35.00 402.87,35.00 404.27,35.00 405.66,35.00 407.05,35.00 408.45,35.00 409.82,35.00 411.21,35.00 412.62,35.00 414.01,35.00 415.40,35.00 416.80,35.00 418.20,35.00 419.59,35.00 420.99,35.00 422.39,35.00 423.80,35.00 425.18,35.00 426.57,35.00 427.97,35.00 429.38,35.00 430.78,35.00 432.17,35.00 433.56,35.00 435.10,35.00 436.51,35.00 437.90,35.00 439.29,35.00 440.70,35.00 442.10,35.00 443.49,35.00 444.89,35.00 446.27,35.00 447.71,35.00 449.12,35.00 450.50,35.00 451.89,35.00 453.29,35.00 454.68,35.00 456.07,35.00 457.52,35.00 458.91,35.00 460.30,35.00 461.71,35.00 463.22,35.00 464.61,35.00 466.36,35.00 468.72,35.00 470.14,35.00 471.57,35.00 472.96,35.00 474.32,35.00 475.71,35.00 477.12,35.00 478.52,35.00 479.92,35.00 481.37,35.00 482.82,35.00 484.29,35.00 485.69,35.00 487.08,35.00 488.48,35.00 489.89,35.00 491.30,35.00 492.71,35.00 494.09,35.00 495.48,35.00 496.93,35.00 498.34,35.00 499.71,35.00 501.11,35.00 502.53,35.00 503.97,35.00 505.38,35.00 506.77,35.00 508.20,35.00 509.54,35.00 510.92,35.00 512.34,35.00 513.73,35.00 515.14,35.00 516.58,35.00 517.98,35.00 519.37,35.00 520.78,35.00 522.19,35.00 523.58,35.00 524.97,35.00 526.35,35.00 527.75,35.00 529.15,35.00 530.53,35.00 532.19,35.00 533.83,35.00 535.48,35.00 537.10,35.00 538.69,35.00 540.30,35.00 541.95,35.00 543.57,35.00 544.97,35.00 546.35,35.00 547.74,35.00 549.13,35.00 550.52,35.00 551.90,35.00 553.29,35.00 554.67,35.00 556.07,35.00 557.46,35.00 558.85,35.00 560.23,35.00 561.62,35.00 563.00,35.00 564.39,35.00 565.78,35.00 567.17,35.00 568.55,35.00 569.95,35.00 571.35,35.00 572.73,35.00 574.11,35.00 575.49,35.00 576.88,35.00 578.28,35.00 579.67,35.00 581.06,35.00 582.45,35.00 583.84,35.00 585.23,35.00 586.62,35.00 588.01,35.00 589.39,35.00 590.78,35.00 592.15,35.00 593.52,35.00 594.91,35.00 596.30,35.00 597.68,35.00 599.07,35.00 600.45,35.00 601.84,35.00 603.22,35.00 604.59,35.00 605.96,35.00 607.40,35.00 608.90,35.00 610.30,35.00 611.69,35.00 613.08,35.00 614.46,35.00 615.84,35.00 617.22,35.00 618.60,35.00 620.25,35.00 621.88,35.00 623.50,35.00 625.13,35.00 626.77,35.00 628.39,35.00 630.05,35.00 631.74,35.00 633.26,35.00 634.75,35.00 636.15,35.00 637.56,35.00 638.95,35.00 640.33,35.00 641.71,35.00 643.11,35.00 644.49,35.00 645.88,35.00 647.26,35.00 648.66,35.00 650.05,35.00 651.44,35.00 652.85,35.00 654.23,35.00 655.62,35.00 656.83,35.00 658.27,35.00 659.66,35.00 661.09,35.00 662.48,35.00 663.86,35.00 665.26,35.00 666.67,35.00 668.06,35.00 669.47,35.00 670.87,35.00 672.29,35.00 673.67,35.00 675.05,35.00 676.44,35.00 677.82,35.00 679.20,35.00 680.59,35.00 681.99,35.00 683.38,35.00 684.77,35.00 686.16,35.00 687.54,35.00 688.95,35.00 690.33,35.00 691.73,35.00 693.14,35.00 694.53,35.00 695.91,35.00 697.32,35.00 698.71,35.00 700.15,35.00 701.53,35.00 702.91,35.00 704.30,35.00 705.68,35.00 707.06,35.00 708.47,35.00 709.86,35.00 711.24,35.00 712.63,35.00 714.01,35.00 715.40,35.00 716.80,35.00 718.20,35.00 719.59,35.00 721.27,35.00 722.70,35.00 724.13,35.00 725.53,35.00 726.93,35.00 728.34,35.00 729.71,35.00 731.10,35.00 732.51,35.00 733.91,35.00 735.29,35.00 736.69,35.00 738.09,35.00 739.48,35.00 740.92,35.00 742.34,35.00 743.73,35.00 745.13,35.00 746.52,35.00 747.91,35.00 749.29,35.00 750.69,35.00 752.14,35.00 753.54,35.00 754.94,35.00 756.33,35.00 757.72,35.00 759.12,35.00 760.51,35.00 761.90,35.00 763.30,35.00 764.70,35.00 766.10,35.00 767.49,35.00 768.88,35.00 770.27,35.00 771.66,35.00 773.08,35.00 774.47,35.00 775.86,35.00 777.24,35.00 778.64,35.00 780.05,35.00 781.45,35.00 783.13,35.00 784.56,35.00 785.95,35.00 787.35,35.00 788.73,35.00 790.13,35.00 791.53,35.00 792.92,35.00 794.34,35.00 795.73,35.00 797.12,35.00 798.51,35.00 799.90,35.00 801.29,35.00 802.68,35.00 804.08,35.00 805.47,35.00 806.85,35.00 808.24,35.00 809.63,35.00 811.04,35.00 812.43,35.00 813.81,35.00 815.23,35.00 816.63,35.00 818.02,35.00 819.41,35.00 820.81,35.00 822.24,35.00 823.62,35.00 825.02,35.00 826.42,35.00 827.81,35.00 829.20,35.00 830.60,35.00 832.00,35.00 833.43,35.00 834.82,35.00 836.20,35.00 837.58,35.00 838.97,35.00 840.37,35.00 841.76,35.00 843.15,35.00 844.56,35.00 845.97,35.00 847.37,35.00 848.73,35.00 850.15,35.00 851.53,35.00 852.92,35.00 854.31,35.00 855.71,35.00 857.09,35.00 858.51,35.00 859.90,35.00 861.29,35.00 862.70,35.00 864.10,35.00 865.50,35.00 866.90,35.00 868.30,35.00 869.87,35.00 871.40,35.00 872.89,35.00 874.30,35.00 875.75,35.00 877.15,35.00 878.55,35.00 879.93,35.00 881.23,35.00 882.68,35.00 884.08,35.00 885.49,35.00 886.86,35.00 888.26,35.00 889.64,35.00 891.05,35.00 892.44,35.00 893.84,35.00 895.23,35.00 896.62,35.00 898.02,35.00 899.42,35.00 900.83,35.00 902.24,35.00 903.64,35.00 905.04,35.00 906.43,35.00 907.85,35.00 909.25,35.00 910.63,35.00 912.02,35.00 913.42,35.00 914.81,35.00 916.20,35.00 917.60,35.00 918.99,35.00 920.41,35.00 921.79,35.00 923.18,35.00 924.58,35.00 925.98,35.00 927.38,35.00 928.78,35.00 930.17,35.00 931.57,35.00 932.96,35.00 934.37,35.00 935.77,35.00 937.18,35.00 938.57,35.00 939.97,35.00 941.37,35.00 942.77,35.00 944.18,35.00 945.61,35.00 947.01,35.00 948.41,35.00 949.80,35.00 951.20,35.00 952.59,35.00 953.99,35.00 955.39,35.00 956.80,35.00 958.19,35.00 959.59,35.00 960.99,35.00 962.39,35.00 963.80,35.00 965.20,35.00 966.60,35.00 968.01,35.00 969.41,35.00 970.82,35.00 972.22,35.00 973.61,35.00 975.01,35.00 976.41,35.00 977.84,35.00 979.24,35.00 980.65,35.00 982.05,35.00 983.43,35.00 984.83,35.00 986.22,35.00 987.63,35.00 989.03,35.00 990.42,35.00 991.82,35.00 993.21,35.00 994.61,35.00 996.02,35.00 997.42,35.00 998.81,35.00 1000.22,35.00 1001.62,35.00 1003.02,35.00 1004.42,35.00 1005.81,35.00 1007.20,35.00 1008.59,35.00 1009.99,35.00 1011.39,35.00 1012.80,35.00 1014.19,35.00 1015.60,35.00 1016.99,35.00 1018.40,35.00 1019.81,35.00 1021.20,35.00 1022.61,35.00 1024.02,35.00 1025.42,35.00 1026.81,35.00 1028.22,35.00 1029.63,35.00 1031.04,35.00 1032.43,35.00 1033.86,35.00 1035.27,35.00 1036.68,35.00 1038.07,35.00 1039.46,35.00 1040.87,35.00 1042.28,35.00 1043.69,35.00 1045.09,35.00 1046.49,35.00 1047.88,35.00 1049.27,35.00 1050.71,35.00 1052.10,35.00 1053.51,35.00 1054.90,35.00 1056.30,35.00 1057.69,35.00 1059.07,35.00 1060.46,35.00 1061.87,35.00 1063.27,35.00 1064.67,35.00 1066.06,35.00 1067.46,35.00 1068.86,35.00 1070.30,35.00 1071.70,35.00 1073.09,35.00 1074.49,35.00 1075.88,35.00 1077.28,35.00 1078.67,35.00 1080.09,35.00 1081.48,35.00 1082.88,35.00 1084.29,35.00 1085.68,35.00 1087.08,35.00 1088.48,35.00 1089.89,35.00 1091.33,35.00 1092.74,35.00 1094.15,35.00 1095.56,35.00 1096.96,35.00 1098.37,35.00 1099.75,35.00 1101.15,35.00 1102.53,35.00 1103.95,35.00 1105.35,35.00 1106.76,35.00 1108.16,35.00 1109.58,35.00 1111.03,35.00 1112.43,35.00 1113.82,35.00 1115.23,35.00 1116.62,35.00 1118.03,35.00 1119.44,35.00 1120.85,35.00 1122.26,35.00 1123.67,35.00 1125.07,35.00 1126.48,35.00 1127.88,35.00 1129.28,35.00 1130.68,35.00 1132.08,35.00 1133.48,35.00 1134.89,35.00 1136.30,35.00 1137.70,35.00 1139.10,35.00 1140.50,35.00 1141.91,35.00 1143.31,35.00 1144.72,35.00 1146.12,35.00 1147.57,35.00 1148.97,35.00 1150.39,35.00 1151.79,35.00 1153.22,35.00 1154.65,35.00 1156.08,35.00 1157.50,35.00 1158.95,35.00 1160.35,35.00 1161.75,35.00 1163.15,35.00 1164.56,35.00 1165.96,35.00 1167.37,35.00 1168.81,35.00 1170.20,35.00 1171.61,35.00 1173.01,35.00 1174.40,35.00 1175.80,35.00 1177.21,35.00 1178.60,35.00 1180.00,35.00"/>
<polyline fill="none" stroke="#ff7f0e" stroke-opacity="0.65" stroke-width="2" points="70.00,305.00 71.39,305.00 72.79,305.00 74.18,305.00 75.58,305.00 76.99,305.00 78.37,305.00 79.77,305.00 81.28,305.00 82.66,305.00 84.05,305.00 85.43,305.00 86.85,305.00 88.23,305.00 89.62,305.00 92.13,305.00 94.29,305.00 95.70,305.00 97.13,305.00 98.52,305.00 99.91,305.00 101.27,305.00 102.68,305.00 104.07,305.00 105.47,305.00 106.87,305.00 108.29,305.00 109.69,305.00 111.09,305.00 112.55,305.00 113.96,305.00 115.35,305.00 116.78,305.00 118.17,305.00 119.56,305.00 121.00,305.00 122.38,305.00 123.78,305.00 125.20,305.00 126.57,305.00 127.97,305.00 129.34,305.00 130.73,305.00 132.13,305.00 133.52,305.00 134.94,305.00 136.35,305.00 137.73,305.00 139.12,305.00 140.52,305.00 141.92,305.00 143.51,305.00 144.90,305.00 146.29,305.00 147.67,305.00 149.06,305.00 150.44,305.00 151.83,305.00 153.22,305.00 154.61,305.00 156.03,305.00 157.42,305.00 158.80,305.00 160.20,305.00 161.61,305.00 163.00,305.00 164.40,305.00 165.78,305.00 167.16,305.00 168.55,305.00 169.93,305.00 171.32,305.00 172.71,305.00 174.09,305.00 175.49,305.00 176.88,305.00 178.26,305.00 179.66,305.00 181.04,305.00 182.43,305.00 183.86,305.00 185.25,305.00 186.64,305.00 188.04,305.00 189.43,305.00 190.82,305.00 192.21,305.00 193.59,305.00 194.97,305.00 196.38,305.00 197.78,305.00 199.17,305.00 200.57,305.00 201.95,305.00 203.35,305.00 204.73,305.00 206.12,305.00 207.50,305.00 208.90,305.00 210.28,305.00 211.68,305.00 213.07,305.00 214.47,305.00 215.86,305.00 217.27,305.00 218.68,305.00 220.07,305.00 221.45,305.00 222.84,305.00 224.23,305.00 225.63,305.00 227.03,305.00 228.42,305.00 229.81,305.00 231.20,305.00 232.60,305.00 234.01,305.00 235.42,305.00 236.81,305.00 238.20,305.00 239.59,305.00 240.98,305.00 242.37,305.00 243.78,305.00 245.29,305.00 246.67,305.00 248.08,305.00 249.47,305.00 250.86,305.00 252.24,305.00 253.60,305.00 254.99,305.00 256.39,305.00 257.78,305.00 259.16,305.00 260.55,305.00 261.94,305.00 263.32,305.00 264.74,305.00 266.13,305.00 267.52,305.00 268.90,305.00 270.30,305.00 271.68,305.00 273.08,305.00 274.48,305.00 275.87,305.00 277.27,305.00 278.66,305.00 280.04,305.00 281.43,305.00 282.81,305.00 284.20,305.00 285.60,305.00 287.01,305.00 288.40,305.00 289.79,305.00 291.20,305.00 292.59,305.00 293.98,305.00 295.37,305.00 296.77,305.00 298.18,305.00 299.60,305.00 300.98,305.00 302.38,305.00 303.76,305.00 305.14,305.00 306.53,305.00 307.92,305.00 309.31,305.00 310.69,305.00 312.07,305.00 313.48,305.00 314.87,305.00 316.27,305.00 317.66,305.00 319.09,305.00 320.48,305.00 321.87,305.00 323.25,305.00 324.63,305.00 326.15,305.00 327.57,305.00 328.95,305.00 330.34,305.00 331.71,305.00 333.11,305.00 334.50,305.00 335.90,305.00 337.29,305.00 338.68,305.00 340.07,305.00 341.46,305.00 342.88,305.00 344.27,305.00 345.65,305.00 347.04,305.00 348.45,305.00 349.87,305.00 351.30,305.00 352.68,305.00 354.07,305.00 355.47,305.00 356.85,305.00 358.25,305.00 359.64,305.00 361.05,305.00 362.44,305.00 363.82,305.00 365.23,305.00 366.62,305.00 368.01,305.00 369.41,305.00 370.82,305.00 372.21,305.00 373.60,305.00 374.97,305.00 376.36,305.00 377.76,305.00 379.15,305.00 380.53,305.00 381.92,305.00 383.30,305.00 384.69,305.00 386.09,305.00 387.49,305.00 388.88,305.00 390.29,305.00 391.69,305.00 393.09,305.00 394.48,305.00 395.88,305.00 397.26,305.00 398.66,305.00 400.05,305.00 401.48,305.00 402.87,305.00 404.27,305.00 405.66,305.00 407.05,305.00 408.45,305.00 409.82,305.00 411.21,305.00 412.62,305.00 414.01,305.00 415.40,305.00 416.80,305.00 418.20,305.00 419.59,305.00 420.99,305.00 422.39,305.00 423.80,305.00 425.18,305.00 426.57,305.00 427.97,305.00 429.38,305.00 430.78,305.00 432.17,305.00 433.56,305.00 435.10,305.00 436.51,305.00 437.90,305.00 439.29,305.00 440.70,305.00 442.10,305.00 443.49,305.00 444.89,305.00 446.27,305.00 447.71,305.00 449.12,305.00 450.50,305.00 451.89,305.00 453.29,305.00 454.68,305.00 456.07,305.00 457.52,305.00 458.91,305.00 460.30,305.00 461.71,305.00 463.22,305.00 464.61,305.00 466.36,305.00 468.72,305.00 470.14,305.00 471.57,305.00 472.96,305.00 474.32,305.00 475.71,305.00 477.12,305.00 478.52,305.00 479.92,305.00 481.37,305.00 482.82,305.00 484.29,305.00 485.69,305.00 487.08,305.00 488.48,305.00 489.89,305.00 491.30,305.00 492.71,305.00 494.09,305.00 495.48,305.00 496.93,305.00 498.34,305.00 499.71,305.00 501.11,305.00 502.53,305.00 503.97,305.00 505.38,305.00 506.77,305.00 508.20,305.00 509.54,305.00 510.92,305.00 512.34,305.00 513.73,305.00 515.14,305.00 516.58,305.00 517.98,305.00 519.37,305.00 520.78,305.00 522.19,305.00 523.58,305.00 524.97,305.00 526.35,305.00 527.75,305.00 529.15,305.00 530.53,305.00 532.19,305.00 533.83,305.00 535.48,305.00 537.10,305.00 538.69,305.00 540.30,305.00 541.95,305.00 543.57,305.00 544.97,305.00 546.35,305.00 547.74,305.00 549.13,305.00 550.52,305.00 551.90,305.00 553.29,305.00 554.67,305.00 556.07,305.00 557.46,305.00 558.85,305.00 560.23,305.00 561.62,305.00 563.00,305.00 564.39,305.00 565.78,305.00 567.17,305.00 568.55,305.00 569.95,305.00 571.35,305.00 572.73,305.00 574.11,305.00 575.49,305.00 576.88,305.00 578.28,305.00 579.67,305.00 581.06,305.00 582.45,305.00 583.84,305.00 585.23,305.00 586.62,305.00 588.01,305.00 589.39,305.00 590.78,305.00 592.15,305.00 593.52,305.00 594.91,305.00 596.30,305.00 597.68,305.00 599.07,305.00 600.45,305.00 601.84,305.00 603.22,305.00 604.59,305.00 605.96,305.00 607.40,305.00 608.90,305.00 610.30,305.00 611.69,305.00 613.08,305.00 614.46,305.00 615.84,305.00 617.22,305.00 618.60,305.00 620.25,305.00 621.88,305.00 623.50,305.00 625.13,305.00 626.77,305.00 628.39,305.00 630.05,305.00 631.74,305.00 633.26,305.00 634.75,305.00 636.15,305.00 637.56,305.00 638.95,305.00 640.33,305.00 641.71,305.00 643.11,305.00 644.49,305.00 645.88,305.00 647.26,305.00 648.66,305.00 650.05,305.00 651.44,305.00 652.85,305.00 654.23,305.00 655.62,305.00 656.83,35.00 658.27,35.00 659.66,35.00 661.09,35.00 662.48,35.00 663.86,35.00 665.26,35.00 666.67,35.00 668.06,35.00 669.47,35.00 670.87,35.00 672.29,35.00 673.67,35.00 675.05,35.00 676.44,35.00 677.82,35.00 679.20,35.00 680.59,35.00 681.99,35.00 683.38,35.00 684.77,35.00 686.16,35.00 687.54,35.00 688.95,35.00 690.33,35.00 691.73,35.00 693.14,35.00 694.53,35.00 695.91,35.00 697.32,35.00 698.71,35.00 700.15,35.00 701.53,35.00 702.91,35.00 704.30,35.00 705.68,35.00 707.06,35.00 708.47,35.00 709.86,35.00 711.24,35.00 712.63,35.00 714.01,35.00 715.40,35.00 716.80,35.00 718.20,35.00 719.59,35.00 721.27,35.00 722.70,35.00 724.13,35.00 725.53,35.00 726.93,35.00 728.34,35.00 729.71,35.00 731.10,35.00 732.51,35.00 733.91,35.00 735.29,35.00 736.69,35.00 738.09,35.00 739.48,35.00 740.92,35.00 742.34,35.00 743.73,35.00 745.13,35.00 746.52,35.00 747.91,35.00 749.29,35.00 750.69,35.00 752.14,35.00 753.54,35.00 754.94,35.00 756.33,35.00 757.72,35.00 759.12,35.00 760.51,35.00 761.90,35.00 763.30,35.00 764.70,35.00 766.10,35.00 767.49,35.00 768.88,35.00 770.27,35.00 771.66,35.00 773.08,35.00 774.47,35.00 775.86,35.00 777.24,35.00 778.64,35.00 780.05,35.00 781.45,35.00 783.13,35.00 784.56,35.00 785.95,35.00 787.35,35.00 788.73,35.00 790.13,35.00 791.53,35.00 792.92,35.00 794.34,35.00 795.73,35.00 797.12,35.00 798.51,35.00 799.90,35.00 801.29,35.00 802.68,35.00 804.08,35.00 805.47,35.00 806.85,35.00 808.24,35.00 809.63,35.00 811.04,35.00 812.43,35.00 813.81,35.00 815.23,35.00 816.63,35.00 818.02,35.00 819.41,35.00 820.81,35.00 822.24,35.00 823.62,35.00 825.02,35.00 826.42,35.00 827.81,35.00 829.20,35.00 830.60,35.00 832.00,35.00 833.43,35.00 834.82,35.00 836.20,35.00 837.58,35.00 838.97,35.00 840.37,35.00 841.76,35.00 843.15,35.00 844.56,35.00 845.97,35.00 847.37,35.00 848.73,35.00 850.15,35.00 851.53,35.00 852.92,35.00 854.31,35.00 855.71,35.00 857.09,35.00 858.51,35.00 859.90,35.00 861.29,35.00 862.70,35.00 864.10,35.00 865.50,35.00 866.90,35.00 868.30,35.00 869.87,35.00 871.40,35.00 872.89,35.00 874.30,35.00 875.75,35.00 877.15,35.00 878.55,35.00 879.93,35.00 881.23,35.00 882.68,35.00 884.08,35.00 885.49,35.00 886.86,35.00 888.26,35.00 889.64,35.00 891.05,35.00 892.44,35.00 893.84,35.00 895.23,35.00 896.62,35.00 898.02,35.00 899.42,35.00 900.83,35.00 902.24,35.00 903.64,35.00 905.04,35.00 906.43,35.00 907.85,35.00 909.25,35.00 910.63,35.00 912.02,35.00 913.42,35.00 914.81,35.00 916.20,35.00 917.60,35.00 918.99,35.00 920.41,35.00 921.79,35.00 923.18,35.00 924.58,35.00 925.98,35.00 927.38,35.00 928.78,35.00 930.17,35.00 931.57,35.00 932.96,35.00 934.37,35.00 935.77,35.00 937.18,35.00 938.57,35.00 939.97,35.00 941.37,35.00 942.77,35.00 944.18,35.00 945.61,35.00 947.01,35.00 948.41,35.00 949.80,35.00 951.20,35.00 952.59,35.00 953.99,35.00 955.39,35.00 956.80,35.00 958.19,35.00 959.59,35.00 960.99,35.00 962.39,35.00 963.80,35.00 965.20,35.00 966.60,35.00 968.01,35.00 969.41,35.00 970.82,35.00 972.22,35.00 973.61,35.00 975.01,35.00 976.41,35.00 977.84,35.00 979.24,35.00 980.65,35.00 982.05,35.00 983.43,35.00 984.83,35.00 986.22,35.00 987.63,35.00 989.03,35.00 990.42,35.00 991.82,35.00 993.21,35.00 994.61,35.00 996.02,35.00 997.42,35.00 998.81,35.00 1000.22,35.00 1001.62,35.00 1003.02,35.00 1004.42,35.00 1005.81,35.00 1007.20,35.00 1008.59,35.00 1009.99,35.00 1011.39,35.00 1012.80,35.00 1014.19,35.00 1015.60,35.00 1016.99,35.00 1018.40,35.00 1019.81,35.00 1021.20,35.00 1022.61,35.00 1024.02,35.00 1025.42,35.00 1026.81,35.00 1028.22,35.00 1029.63,35.00 1031.04,35.00 1032.43,35.00 1033.86,35.00 1035.27,35.00 1036.68,35.00 1038.07,35.00 1039.46,35.00 1040.87,35.00 1042.28,35.00 1043.69,35.00 1045.09,35.00 1046.49,35.00 1047.88,35.00 1049.27,35.00 1050.71,35.00 1052.10,35.00 1053.51,35.00 1054.90,35.00 1056.30,35.00 1057.69,35.00 1059.07,35.00 1060.46,35.00 1061.87,35.00 1063.27,35.00 1064.67,35.00 1066.06,35.00 1067.46,35.00 1068.86,35.00 1070.30,35.00 1071.70,35.00 1073.09,35.00 1074.49,35.00 1075.88,35.00 1077.28,35.00 1078.67,35.00 1080.09,35.00 1081.48,35.00 1082.88,35.00 1084.29,35.00 1085.68,35.00 1087.08,35.00 1088.48,35.00 1089.89,35.00 1091.33,35.00 1092.74,35.00 1094.15,35.00 1095.56,35.00 1096.96,35.00 1098.37,35.00 1099.75,35.00 1101.15,35.00 1102.53,35.00 1103.95,35.00 1105.35,35.00 1106.76,35.00 1108.16,35.00 1109.58,35.00 1111.03,35.00 1112.43,35.00 1113.82,35.00 1115.23,35.00 1116.62,35.00 1118.03,35.00 1119.44,35.00 1120.85,35.00 1122.26,35.00 1123.67,35.00 1125.07,35.00 1126.48,35.00 1127.88,35.00 1129.28,35.00 1130.68,35.00 1132.08,35.00 1133.48,35.00 1134.89,35.00 1136.30,35.00 1137.70,35.00 1139.10,35.00 1140.50,35.00 1141.91,35.00 1143.31,35.00 1144.72,35.00 1146.12,35.00 1147.57,35.00 1148.97,35.00 1150.39,35.00 1151.79,35.00 1153.22,35.00 1154.65,35.00 1156.08,35.00 1157.50,35.00 1158.95,35.00 1160.35,35.00 1161.75,35.00 1163.15,35.00 1164.56,35.00 1165.96,35.00 1167.37,35.00 1168.81,35.00 1170.20,35.00 1171.61,35.00 1173.01,35.00 1174.40,35.00 1175.80,35.00 1177.21,35.00 1178.60,35.00 1180.00,35.00"/>
<polyline fill="none" stroke="#ff7f0e" stroke-opacity="0.50" stroke-width="2" points="70.00,35.00 71.39,35.00 72.79,35.00 74.18,35.00 75.58,35.00 76.99,35.00 78.37,35.00 79.77,35.00 81.28,35.00 82.66,35.00 84.05,35.00 85.43,35.00 86.85,35.00 88.23,35.00 89.62,35.00 92.13,35.00 94.29,35.00 95.70,35.00 97.13,35.00 98.52,35.00 99.91,35.00 101.27,35.00 102.68,35.00 104.07,35.00 105.47,35.00 106.87,35.00 108.29,35.00 109.69,35.00 111.09,35.00 112.55,35.00 113.96,35.00 115.35,35.00 116.78,35.00 118.17,35.00 119.56,35.00 121.00,35.00 122.38,35.00 123.78,35.00 125.20,35.00 126.57,35.00 127.97,35.00 129.34,35.00 130.73,35.00 132.13,35.00 133.52,35.00 134.94,35.00 136.35,35.00 137.73,35.00 139.12,35.00 140.52,35.00 141.92,35.00 143.51,35.00 144.90,35.00 146.29,35.00 147.67,35.00 149.06,35.00 150.44,35.00 151.83,35.00 153.22,35.00 154.61,35.00 156.03,35.00 157.42,35.00 158.80,35.00 160.20,35.00 161.61,35.00 163.00,35.00 164.40,35.00 165.78,35.00 167.16,35.00 168.55,35.00 169.93,35.00 171.32,35.00 172.71,35.00 174.09,35.00 175.49,35.00 176.88,35.00 178.26,35.00 179.66,35.00 181.04,35.00 182.43,35.00 183.86,35.00 185.25,35.00 186.64,35.00 188.04,35.00 189.43,35.00 190.82,35.00 192.21,35.00 193.59,35.00 194.97,35.00 196.38,35.00 197.78,35.00 199.17,35.00 200.57,35.00 201.95,35.00 203.35,35.00 204.73,35.00 206.12,35.00 207.50,35.00 208.90,35.00 210.28,35.00 211.68,35.00 213.07,35.00 214.47,35.00 215.86,35.00 217.27,35.00 218.68,35.00 220.07,35.00 221.45,35.00 222.84,35.00 224.23,35.00 225.63,35.00 227.03,35.00 228.42,35.00 229.81,35.00 231.20,35.00 232.60,35.00 234.01,35.00 235.42,35.00 236.81,35.00 238.20,35.00 239.59,35.00 240.98,35.00 242.37,35.00 243.78,35.00 245.29,35.00 246.67,35.00 248.08,35.00 249.47,35.00 250.86,35.00 252.24,35.00 253.60,35.00 254.99,35.00 256.39,35.00 257.78,35.00 259.16,35.00 260.55,35.00 261.94,35.00 263.32,35.00 264.74,35.00 266.13,35.00 267.52,35.00 268.90,35.00 270.30,35.00 271.68,35.00 273.08,35.00 274.48,35.00 275.87,35.00 277.27,35.00 278.66,35.00 280.04,35.00 281.43,35.00 282.81,35.00 284.20,35.00 285.60,35.00 287.01,35.00 288.40,35.00 289.79,35.00 291.20,35.00 292.59,35.00 293.98,35.00 295.37,35.00 296.77,35.00 298.18,35.00 299.60,35.00 300.98,35.00 302.38,35.00 303.76,35.00 305.14,35.00 306.53,35.00 307.92,35.00 309.31,35.00 310.69,35.00 312.07,35.00 313.48,35.00 314.87,35.00 316.27,35.00 317.66,35.00 319.09,35.00 320.48,35.00 321.87,35.00 323.25,35.00 324.63,35.00 326.15,35.00 327.57,35.00 328.95,35.00 330.34,35.00 331.71,35.00 333.11,35.00 334.50,35.00 335.90,35.00 337.29,35.00 338.68,35.00 340.07,35.00 341.46,35.00 342.88,35.00 344.27,35.00 345.65,35.00 347.04,35.00 348.45,35.00 349.87,35.00 351.30,35.00 352.68,35.00 354.07,35.00 355.47,35.00 356.85,35.00 358.25,35.00 359.64,35.00 361.05,35.00 362.44,35.00 363.82,35.00 365.23,35.00 366.62,35.00 368.01,35.00 369.41,35.00 370.82,35.00 372.21,35.00 373.60,35.00 374.97,35.00 376.36,35.00 377.76,35.00 379.15,35.00 380.53,35.00 381.92,35.00 383.30,35.00 384.69,35.00 386.09,35.00 387.49,35.00 388.88,35.00 390.29,35.00 391.69,35.00 393.09,35.00 394.48,35.00 395.88,35.00 397.26,35.00 398.66,35.00 400.05,35.00 401.48,35.00 402.87,35.00 404.27,35.00 405.66,35.00 407.05,35.00 408.45,35.00 409.82,35.00 411.21,35.00 412.62,35.00 414.01,35.00 415.40,35.00 416.80,35.00 418.20,35.00 419.59,35.00 420.99,35.00 422.39,35.00 423.80,35.00 425.18,35.00 426.57,35.00 427.97,35.00 429.38,35.00 430.78,35.00 432.17,35.00 433.56,35.00 435.10,35.00 436.51,35.00 437.90,35.00 439.29,35.00 440.70,35.00 442.10,35.00 443.49,35.00 444.89,35.00 446.27,35.00 447.71,35.00 449.12,35.00 450.50,35.00 451.89,35.00 453.29,35.00 454.68,35.00 456.07,35.00 457.52,35.00 458.91,35.00 460.30,35.00 461.71,35.00 463.22,35.00 464.61,35.00 466.36,35.00 468.72,35.00 470.14,35.00 471.57,35.00 472.96,35.00 474.32,35.00 475.71,35.00 477.12,35.00 478.52,35.00 479.92,35.00 481.37,35.00 482.82,35.00 484.29,35.00 485.69,35.00 487.08,35.00 488.48,35.00 489.89,35.00 491.30,35.00 492.71,35.00 494.09,35.00 495.48,35.00 496.93,35.00 498.34,35.00 499.71,35.00 501.11,35.00 502.53,35.00 503.97,35.00 505.38,35.00 506.77,35.00 508.20,35.00 509.54,35.00 510.92,35.00 512.34,35.00 513.73,35.00 515.14,35.00 516.58,35.00 517.98,35.00 519.37,35.00 520.78,35.00 522.19,35.00 523.58,35.00 524.97,35.00 526.35,35.00 527.75,35.00 529.15,35.00 530.53,35.00 532.19,35.00 533.83,35.00 535.48,35.00 537.10,35.00 538.69,35.00 540.30,35.00 541.95,35.00 543.57,35.00 544.97,35.00 546.35,35.00 547.74,35.00 549.13,35.00 550.52,35.00 551.90,35.00 553.29,35.00 554.67,35.00 556.07,35.00 557.46,35.00 558.85,35.00 560.23,35.00 561.62,35.00 563.00,35.00 564.39,35.00 565.78,35.00 567.17,35.00 568.55,35.00 569.95,35.00 571.35,35.00 572.73,35.00 574.11,35.00 575.49,35.00 576.88,35.00 578.28,35.00 579.67,35.00 581.06,35.00 582.45,35.00 583.84,35.00 585.23,35.00 586.62,35.00 588.01,35.00 589.39,35.00 590.78,35.00 592.15,35.00 593.52,35.00 594.91,35.00 596.30,35.00 597.68,35.00 599.07,35.00 600.45,35.00 601.84,35.00 603.22,35.00 604.59,35.00 605.96,35.00 607.40,35.00 608.90,35.00 610.30,35.00 611.69,35.00 613.08,35.00 614.46,35.00 615.84,35.00 617.22,35.00 618.60,35.00 620.25,35.00 621.88,35.00 623.50,35.00 625.13,35.00 626.77,35.00 628.39,35.00 630.05,35.00 631.74,35.00 633.26,35.00 634.75,35.00 636.15,35.00 637.56,35.00 638.95,35.00 640.33,35.00 641.71,35.00 643.11,35.00 644.49,35.00 645.88,35.00 647.26,35.00 648.66,35.00 650.05,35.00 651.44,35.00 652.85,35.00 654.23,35.00 655.62,35.00 656.83,35.00 658.27,35.00 659.66,35.00 661.09,35.00 662.48,35.00 663.86,35.00 665.26,35.00 666.67,35.00 668.06,35.00 669.47,35.00 670.87,35.00 672.29,35.00 673.67,35.00 675.05,35.00 676.44,35.00 677.82,35.00 679.20,35.00 680.59,35.00 681.99,35.00 683.38,35.00 684.77,35.00 686.16,35.00 687.54,35.00 688.95,35.00 690.33,35.00 691.73,35.00 693.14,35.00 694.53,35.00 695.91,35.00 697.32,35.00 698.71,35.00 700.15,35.00 701.53,35.00 702.91,35.00 704.30,35.00 705.68,35.00 707.06,35.00 708.47,35.00 709.86,35.00 711.24,35.00 712.63,35.00 714.01,35.00 715.40,35.00 716.80,35.00 718.20,35.00 719.59,35.00 721.27,35.00 722.70,35.00 724.13,35.00 725.53,35.00 726.93,35.00 728.34,35.00 729.71,35.00 731.10,35.00 732.51,35.00 733.91,35.00 735.29,35.00 736.69,35.00 738.09,35.00 739.48,35.00 740.92,35.00 742.34,35.00 743.73,35.00 745.13,35.00 746.52,35.00 747.91,35.00 749.29,35.00 750.69,35.00 752.14,35.00 753.54,35.00 754.94,35.00 756.33,35.00 757.72,35.00 759.12,35.00 760.51,35.00 761.90,35.00 763.30,35.00 764.70,35.00 766.10,35.00 767.49,35.00 768.88,35.00 770.27,35.00 771.66,35.00 773.08,35.00 774.47,35.00 775.86,35.00 777.24,35.00 778.64,35.00 780.05,35.00 781.45,35.00 783.13,35.00 784.56,35.00 785.95,35.00 787.35,35.00 788.73,35.00 790.13,35.00 791.53,35.00 792.92,35.00 794.34,35.00 795.73,35.00 797.12,35.00 798.51,35.00 799.90,35.00 801.29,35.00 802.68,35.00 804.08,35.00 805.47,35.00 806.85,35.00 808.24,35.00 809.63,35.00 811.04,35.00 812.43,35.00 813.81,35.00 815.23,35.00 816.63,35.00 818.02,35.00 819.41,35.00 820.81,35.00 822.24,35.00 823.62,35.00 825.02,35.00 826.42,35.00 827.81,35.00 829.20,35.00 830.60,35.00 832.00,35.00 833.43,35.00 834.82,35.00 836.20,35.00 837.58,35.00 838.97,35.00 840.37,35.00 841.76,35.00 843.15,35.00 844.56,35.00 845.97,35.00 847.37,35.00 848.73,35.00 850.15,35.00 851.53,35.00 852.92,35.00 854.31,35.00 855.71,35.00 857.09,35.00 858.51,35.00 859.90,35.00 861.29,35.00 862.70,35.00 864.10,35.00 865.50,35.00 866.90,35.00 868.30,35.00 869.87,35.00 871.40,35.00 872.89,35.00 874.30,35.00 875.75,35.00 877.15,35.00 878.55,35.00 879.93,35.00 881.23,35.00 882.68,35.00 884.08,35.00 885.49,35.00 886.86,35.00 888.26,35.00 889.64,35.00 891.05,35.00 892.44,35.00 893.84,35.00 895.23,35.00 896.62,35.00 898.02,35.00 899.42,35.00 900.83,35.00 902.24,35.00 903.64,35.00 905.04,35.00 906.43,35.00 907.85,35.00 909.25,35.00 910.63,35.00 912.02,35.00 913.42,35.00 914.81,35.00 916.20,35.00 917.60,35.00 918.99,35.00 920.41,35.00 921.79,35.00 923.18,35.00 924.58,35.00 925.98,35.00 927.38,35.00 928.78,35.00 930.17,35.00 931.57,35.00 932.96,35.00 934.37,35.00 935.77,35.00 937.18,35.00 938.57,35.00 939.97,35.00 941.37,35.00 942.77,35.00 944.18,35.00 945.61,35.00 947.01,35.00 948.41,35.00 949.80,35.00 951.20,35.00 952.59,35.00 953.99,35.00 955.39,35.00 956.80,35.00 958.19,35.00 959.59,35.00 960.99,35.00 962.39,35.00 963.80,35.00 965.20,35.00 966.60,35.00 968.01,35.00 969.41,35.00 970.82,35.00 972.22,35.00 973.61,35.00 975.01,35.00 976.41,35.00 977.84,35.00 979.24,35.00 980.65,35.00 982.05,35.00 983.43,35.00 984.83,35.00 986.22,35.00 987.63,35.00 989.03,35.00 990.42,35.00 991.82,35.00 993.21,35.00 994.61,35.00 996.02,35.00 997.42,35.00 998.81,35.00 1000.22,35.00 1001.62,35.00 1003.02,35.00 1004.42,35.00 1005.81,35.00 1007.20,35.00 1008.59,35.00 1009.99,35.00 1011.39,35.00 1012.80,35.00 1014.19,35.00 1015.60,35.00 1016.99,35.00 1018.40,35.00 1019.81,35.00 1021.20,35.00 1022.61,35.00 1024.02,35.00 1025.42,35.00 1026.81,35.00 1028.22,35.00 1029.63,35.00 1031.04,35.00 1032.43,35.00 1033.86,35.00 1035.27,35.00 1036.68,35.00 1038.07,35.00 1039.46,35.00 1040.87,35.00 1042.28,35.00 1043.69,35.00 1045.09,35.00 1046.49,35.00 1047.88,35.00 1049.27,35.00 1050.71,35.00 1052.10,35.00 1053.51,35.00 1054.90,35.00 1056.30,35.00 1057.69,35.00 1059.07,35.00 1060.46,35.00 1061.87,35.00 1063.27,35.00 1064.67,35.00 1066.06,35.00 1067.46,35.00 1068.86,35.00 1070.30,35.00 1071.70,35.00 1073.09,35.00 1074.49,35.00 1075.88,35.00 1077.28,35.00 1078.67,35.00 1080.09,35.00 1081.48,35.00 1082.88,35.00 1084.29,35.00 1085.68,35.00 1087.08,35.00 1088.48,35.00 1089.89,35.00 1091.33,35.00 1092.74,35.00 1094.15,35.00 1095.56,35.00 1096.96,35.00 1098.37,35.00 1099.75,35.00 1101.15,35.00 1102.53,35.00 1103.95,35.00 1105.35,35.00 1106.76,35.00 1108.16,35.00 1109.58,35.00 1111.03,35.00 1112.43,35.00 1113.82,35.00 1115.23,35.00 1116.62,35.00 1118.03,35.00 1119.44,35.00 1120.85,35.00 1122.26,35.00 1123.67,35.00 1125.07,35.00 1126.48,35.00 1127.88,35.00 1129.28,35.00 1130.68,35.00 1132.08,35.00 1133.48,35.00 1134.89,35.00 1136.30,35.00 1137.70,35.00 1139.10,35.00 1140.50,35.00 1141.91,35.00 1143.31,35.00 1144.72,35.00 1146.12,35.00 1147.57,35.00 1148.97,35.00 1150.39,35.00 1151.79,35.00 1153.22,35.00 1154.65,35.00 1156.08,35.00 1157.50,35.00 1158.95,35.00 1160.35,35.00 1161.75,35.00 1163.15,35.00 1164.56,35.00 1165.96,35.00 1167.37,35.00 1168.81,35.00 1170.20,35.00 1171.61,35.00 1173.01,35.00 1174.40,35.00 1175.80,35.00 1177.21,35.00 1178.60,35.00 1180.00,35.00"/>
<rect x="70" y="332" width="12" height="12" fill="#ff7f0e" fill-opacity="0.95"/>
<text x="88" y="342" font-size="11" fill="#333" font-family="Arial, Helvetica, sans-serif">nsc1.utdallas.edu</text>
<rect x="350" y="332" width="12" height="12" fill="#ff7f0e" fill-opacity="0.80"/>
<text x="368" y="342" font-size="11" fill="#333" font-family="Arial, Helvetica, sans-serif">nsc2.utdallas.edu</text>
<rect x="630" y="332" width="12" height="12" fill="#ff7f0e" fill-opacity="0.65"/>
<text x="648" y="342" font-size="11" fill="#333" font-family="Arial, Helvetica, sans-serif">nsc3.utdallas.edu</text>
<rect x="910" y="332" width="12" height="12" fill="#ff7f0e" fill-opacity="0.50"/>
<text x="928" y="342" font-size="11" fill="#333" font-family="Arial, Helvetica, sans-serif">nsc4.utdallas.edu</text>
</svg>