<?xml version="1.0" encoding="UTF-8"?>
<svg xmlns="http://www.w3.org/2000/svg" width="1200" height="360" viewBox="0 0 1200 360" role="img" aria-label="CUDA Health (%)">
<rect width="100%" height="100%" fill="#ffffff"/>
<text x="600.0" y="22" text-anchor="middle" font-size="16" font-family="Arial, Helvetica, sans-serif" font-weight="bold">CUDA Health (%)</text>
<line x1="70" y1="35.00" x2="1180" y2="35.00" stroke="#e3e3e3" stroke-width="1"/>
<text x="62" y="39.00" text-anchor="end" font-size="11" fill="#444" font-family="Arial, Helvetica, sans-serif">100</text>
<line x1="70" y1="89.00" x2="1180" y2="89.00" stroke="#e3e3e3" stroke-width="1"/>
<text x="62" y="93.00" text-anchor="end" font-size="11" fill="#444" font-family="Arial, Helvetica, sans-serif">80</text>
<line x1="70" y1="143.00" x2="1180" y2="143.00" stroke="#e3e3e3" stroke-width="1"/>
<text x="62" y="147.00" text-anchor="end" font-size="11" fill="#444" font-family="Arial, Helvetica, sans-serif">60</text>
<line x1="70" y1="197.00" x2="1180" y2="197.00" stroke="#e3e3e3" stroke-width="1"/>
<text x="62" y="201.00" text-anchor="end" font-size="11" fill="#444" font-family="Arial, Helvetica, sans-serif">40</text>
<line x1="70" y1="251.00" x2="1180" y2="251.00" stroke="#e3e3e3" stroke-width="1"/>
<text x="62" y="255.00" text-anchor="end" font-size="11" fill="#444" font-family="Arial, Helvetica, sans-serif">20</text>
<line x1="70" y1="305.00" x2="1180" y2="305.00" stroke="#e3e3e3" stroke-width="1"/>
<text x="62" y="309.00" text-anchor="end" font-size="11" fill="#444" font-family="Arial, Helvetica, sans-serif">0</text>
<line x1="70" y1="35" x2="70" y2="305" stroke="#999"/>
<line x1="70" y1="305" x2="1180" y2="305" stroke="#999"/>
<text x="70.00" y="323" text-anchor="middle" font-size="10" fill="#444" font-family="Arial, Helvetica, sans-serif">2026-02-11 16:38</text>
<text x="347.50" y="323" text-anchor="middle" font-size="10" fill="#444" font-family="Arial, Helvetica, sans-serif">2026-02-12 12:54</text>
<text x="625.00" y="323" text-anchor="middle" font-size="10" fill="#444" font-family="Arial, Helvetica, sans-serif">2026-02-13 09:10</text>
<text x="902.50" y="323" text-anchor="middle" font-size="10" fill="#444" font-family="Arial, Helvetica, sans-serif">2026-02-14 05:26</text>
<text x="1180.00" y="323" text-anchor="middle" font-size="10" fill="#444" font-family="Arial, Helvetica, sans-serif">2026-02-15 01:43</text>
<polyline fill="none" stroke="#ff7f0e" stroke-opacity="0.95" stroke-width="2" points="71.23,35.00 72.46,35.00 73.68,35.00 74.92,35.00 76.16,35.00 77.37,35.00 78.61,35.00 79.94,35.00 81.16,35.00 82.38,35.00 83.60,35.00 84.85,35.00 86.07,35.00 87.29,35.00 89.50,35.00 91.40,35.00 92.64,35.00 93.90,35.00 95.12,35.00 96.35,35.00 97.55,35.00 98.79,35.00 100.01,35.00 101.25,35.00 102.49,35.00 103.74,35.00 104.97,35.00 106.20,35.00 107.49,35.00 108.73,35.00 109.95,35.00 111.21,35.00 112.44,35.00 113.67,35.00 114.93,35.00 116.15,35.00 117.38,35.00 118.63,35.00 119.84,35.00 121.07,35.00 122.29,35.00 123.51,35.00 124.74,35.00 125.96,35.00 127.22,35.00 128.46,35.00 129.67,35.00 130.89,35.00 132.13,35.00 133.36,35.00 134.77,35.00 135.99,35.00 137.22,35.00 138.43,35.00 139.66,35.00 140.87,35.00 142.09,35.00 143.32,35.00 144.55,35.00 145.80,35.00 147.02,35.00 148.24,35.00 149.47,35.00 150.72,35.00 151.94,35.00 153.17,35.00 154.39,35.00 155.60,35.00 156.82,35.00 158.04,35.00 159.27,35.00 160.49,35.00 161.71,35.00 162.94,35.00 164.17,35.00 165.38,35.00 166.62,35.00 167.84,35.00 169.06,35.00 170.32,35.00 171.54,35.00 172.76,35.00 174.00,35.00 175.22,35.00 176.45,35.00 177.68,35.00 178.89,35.00 180.11,35.00 181.34,35.00 182.58,35.00 183.80,35.00 185.04,35.00 186.25,35.00 187.48,35.00 188.70,35.00 189.93,35.00 191.15,35.00 192.37,35.00 193.59,35.00 194.83,35.00 196.06,35.00 197.28,35.00 198.51,35.00 199.76,35.00 200.99,35.00 202.22,35.00 203.44,35.00 204.66,35.00 205.88,35.00 207.12,35.00 208.35,35.00 209.57,35.00 210.80,35.00 212.03,35.00 213.26,35.00 214.50,35.00 215.74,35.00 216.97,35.00 218.19,35.00 219.42,35.00 220.65,35.00 221.87,35.00 223.11,35.00 224.44,35.00 225.66,35.00 226.90,35.00 228.13,35.00 229.34,35.00 230.56,35.00 231.77,35.00 232.99,35.00 234.22,35.00 235.44,35.00 236.66,35.00 237.89,35.00 239.11,35.00 240.33,35.00 241.58,35.00 242.80,35.00 244.02,35.00 245.25,35.00 246.47,35.00 247.69,35.00 248.93,35.00 250.16,35.00 251.39,35.00 252.61,35.00 253.84,35.00 255.06,35.00 256.28,35.00 257.50,35.00 258.73,35.00 259.96,35.00 261.20,35.00 262.43,35.00 263.65,35.00 264.89,35.00 266.12,35.00 267.33,35.00 268.57,35.00 269.79,35.00 271.04,35.00 272.29,35.00 273.51,35.00 274.74,35.00 275.95,35.00 277.17,35.00 278.40,35.00 279.62,35.00 280.84,35.00 282.06,35.00 283.28,35.00 284.52,35.00 285.75,35.00 286.98,35.00 288.20,35.00 289.46,35.00 290.68,35.00 291.91,35.00 293.13,35.00 294.34,35.00 295.68,35.00 296.93,35.00 298.15,35.00 299.37,35.00 300.58,35.00 301.81,35.00 303.04,35.00 304.27,35.00 305.50,35.00 306.72,35.00 307.94,35.00 309.17,35.00 310.42,35.00 311.65,35.00 312.87,35.00 314.09,35.00 315.33,35.00 316.58,35.00 317.84,35.00 319.05,35.00 320.28,35.00 321.51,35.00 322.73,35.00 323.96,35.00 325.19,35.00 326.43,35.00 327.65,35.00 328.87,35.00 330.11,35.00 331.34,35.00 332.56,35.00 333.79,35.00 335.04,35.00 336.26,35.00 337.48,35.00 338.70,35.00 339.92,35.00 341.15,35.00 342.37,35.00 343.59,35.00 344.82,35.00 346.03,35.00 347.26,35.00 348.49,35.00 349.72,35.00 350.95,35.00 352.20,35.00 353.42,35.00 354.66,35.00 355.88,35.00 357.11,35.00 358.34,35.00 359.57,35.00 360.79,35.00 362.05,35.00 363.28,35.00 364.51,35.00 365.74,35.00 366.96,35.00 368.19,35.00 369.40,35.00 370.63,35.00 371.86,35.00 373.09,35.00 374.32,35.00 375.55,35.00 376.78,35.00 378.01,35.00 379.24,35.00 380.47,35.00 381.71,35.00 382.93,35.00 384.16,35.00 385.39,35.00 386.63,35.00 387.86,35.00 389.09,35.00 390.31,35.00 391.67,35.00 392.91,35.00 394.14,35.00 395.37,35.00 396.61,35.00 397.84,35.00 399.07,35.00 400.30,35.00 401.52,35.00 402.78,35.00 404.03,35.00 405.24,35.00 406.47,35.00 407.69,35.00 408.92,35.00 410.15,35.00 411.42,35.00 412.65,35.00 413.88,35.00 415.12,35.00 416.44,35.00 417.67,35.00 419.22,35.00 421.29,35.00 422.55,35.00 423.80,35.00 425.03,35.00 426.23,35.00 427.45,35.00 428.70,35.00 429.93,35.00 431.16,35.00 432.44,35.00 433.71,35.00 435.01,35.00 436.24,35.00 437.47,35.00 438.70,35.00 439.94,35.00 441.19,35.00 442.43,35.00 443.65,35.00 444.87,35.00 446.15,35.00 447.39,35.00 448.60,35.00 449.83,35.00 451.08,35.00 452.35,35.00 453.59,35.00 454.82,35.00 456.08,35.00 457.25,35.00 458.47,35.00 459.73,35.00 460.95,35.00 462.19,35.00 463.46,35.00 464.69,35.00 465.92,35.00 467.16,35.00 468.40,35.00 469.63,35.00 470.85,35.00 472.07,35.00 473.30,35.00 474.54,35.00 475.75,35.00 477.22,35.00 478.66,35.00 480.11,35.00 481.54,35.00 482.94,35.00 484.36,35.00 485.81,35.00 487.24,35.00 488.47,35.00 489.69,35.00 490.91,35.00 492.13,35.00 493.36,35.00 494.58,35.00 495.80,35.00 497.02,35.00 498.25,35.00 499.47,35.00 500.70,35.00 501.92,35.00 503.14,35.00 504.36,35.00 505.58,35.00 506.80,35.00 508.03,35.00 509.25,35.00 510.48,35.00 511.71,35.00 512.93,35.00 514.14,35.00 515.36,35.00 516.59,35.00 517.82,35.00 519.05,35.00 520.27,35.00 521.49,35.00 522.72,35.00 523.94,35.00 525.17,35.00 526.39,35.00 527.61,35.00 528.83,35.00 530.04,35.00 531.25,35.00 532.48,35.00 533.70,35.00 534.91,35.00 536.13,35.00 537.35,35.00 538.58,35.00 539.79,35.00 541.01,35.00 542.21,35.00 543.48,35.00 544.80,35.00 546.03,35.00 547.26,35.00 548.48,35.00 549.70,35.00 550.91,35.00 552.13,35.00 553.35,35.00 554.80,35.00 556.23,35.00 557.66,35.00 559.10,35.00 560.54,35.00 561.97,35.00 563.44,35.00 564.92,35.00 566.26,35.00 567.58,35.00 568.81,35.00 570.05,35.00 571.27,35.00 572.49,35.00 573.71,35.00 574.94,35.00 576.16,35.00 577.38,35.00 578.60,35.00 579.83,35.00 581.05,35.00 582.27,35.00 583.52,35.00 584.74,35.00 585.96,35.00 587.03,35.00 588.30,35.00 589.52,35.00 590.78,35.00 592.00,35.00 593.22,35.00 594.46,35.00 595.69,35.00 596.93,35.00 598.17,35.00 599.40,35.00 600.65,35.00 601.87,35.00 603.08,35.00 604.31,35.00 605.52,35.00 606.74,35.00 607.96,35.00 609.20,35.00 610.42,35.00 611.65,35.00 612.87,35.00 614.09,35.00 615.32,35.00 616.55,35.00 617.78,35.00 619.01,35.00 620.24,35.00 621.46,35.00 622.70,35.00 623.93,35.00 625.19,35.00 626.41,35.00 627.63,35.00 628.85,35.00 630.07,35.00 631.29,35.00 632.53,35.00 633.75,35.00 634.96,35.00 636.19,35.00 637.41,35.00 638.63,35.00 639.86,35.00 641.10,35.00 642.32,35.00 643.80,35.00 645.06,35.00 646.32,35.00 647.56,35.00 648.79,35.00 650.03,35.00 651.24,35.00 652.46,35.00 653.70,35.00 654.94,35.00 656.16,35.00 657.39,35.00 658.62,35.00 659.85,35.00 661.12,35.00 662.36,35.00 663.59,35.00 664.82,35.00 666.05,35.00 667.27,35.00 668.49,35.00 669.72,35.00 671.00,35.00 672.23,35.00 673.47,35.00 674.69,35.00 675.92,35.00 677.15,35.00 678.37,35.00 679.60,35.00 680.83,35.00 682.07,35.00 683.30,35.00 684.53,35.00 685.75,35.00 686.97,35.00 688.20,35.00 689.45,35.00 690.68,35.00 691.90,35.00 693.12,35.00 694.35,35.00 695.59,35.00 696.83,35.00 698.30,35.00 699.56,35.00 700.79,35.00 702.02,35.00 703.24,35.00 704.47,35.00 705.70,35.00 706.93,35.00 708.18,35.00 709.41,35.00 710.63,35.00 711.85,35.00 713.08,35.00 714.30,35.00 715.53,35.00 716.76,35.00 717.98,35.00 719.20,35.00 720.43,35.00 721.65,35.00 722.90,35.00 724.12,35.00 725.34,35.00 726.58,35.00 727.82,35.00 729.04,35.00 730.27,35.00 731.50,35.00 732.76,35.00 733.98,35.00 735.21,35.00 736.45,35.00 737.67,35.00 738.89,35.00 740.13,35.00 741.36,35.00 742.62,35.00 743.84,35.00 745.07,35.00 746.28,35.00 747.50,35.00 748.73,35.00 749.96,35.00 751.18,35.00 752.42,35.00 753.67,35.00 754.90,35.00 756.10,35.00 757.35,35.00 758.57,35.00 759.80,35.00 761.02,35.00 762.25,35.00 763.47,35.00 764.71,35.00 765.94,35.00 767.17,35.00 768.41,35.00 769.65,35.00 770.88,35.00 772.11,35.00 773.35,35.00 774.73,35.00 776.07,35.00 777.39,35.00 778.63,35.00 779.91,35.00 781.14,35.00 782.37,35.00 783.59,35.00 784.73,35.00 786.02,35.00 787.24,35.00 788.49,35.00 789.70,35.00 790.93,35.00 792.15,35.00 793.39,35.00 794.61,35.00 795.84,35.00 797.07,35.00 798.30,35.00 799.53,35.00 800.77,35.00 802.01,35.00 803.25,35.00 804.48,35.00 805.71,35.00 806.94,35.00 808.19,35.00 809.42,35.00 810.64,35.00 811.87,35.00 813.10,35.00 814.32,35.00 815.55,35.00 816.78,35.00 818.01,35.00 819.25,35.00 820.47,35.00 821.70,35.00 822.93,35.00 824.16,35.00 825.40,35.00 826.63,35.00 827.85,35.00 829.08,35.00 830.32,35.00 831.55,35.00 832.79,35.00 834.03,35.00 835.26,35.00 836.49,35.00 837.72,35.00 838.95,35.00 840.19,35.00 841.46,35.00 842.69,35.00 843.93,35.00 845.15,35.00 846.38,35.00 847.61,35.00 848.84,35.00 850.08,35.00 851.31,35.00 852.54,35.00 853.77,35.00 855.01,35.00 856.24,35.00 857.48,35.00 858.71,35.00 859.95,35.00 861.19,35.00 862.42,35.00 863.67,35.00 864.90,35.00 866.12,35.00 867.36,35.00 868.59,35.00 869.85,35.00 871.09,35.00 872.33,35.00 873.56,35.00 874.78,35.00 876.01,35.00 877.24,35.00 878.48,35.00 879.71,35.00 880.94,35.00 882.17,35.00 883.40,35.00 884.63,35.00 885.87,35.00 887.10,35.00 888.33,35.00 889.58,35.00 890.81,35.00 892.04,35.00 893.27,35.00 894.50,35.00 895.72,35.00 896.94,35.00 898.18,35.00 899.41,35.00 900.65,35.00 901.88,35.00 903.12,35.00 904.35,35.00 905.59,35.00 906.83,35.00 908.06,35.00 909.30,35.00 910.54,35.00 911.77,35.00 913.00,35.00 914.24,35.00 915.49,35.00 916.72,35.00 917.95,35.00 919.21,35.00 920.45,35.00 921.69,35.00 922.92,35.00 924.15,35.00 925.39,35.00 926.63,35.00 927.87,35.00 929.11,35.00 930.34,35.00 931.57,35.00 932.79,35.00 934.05,35.00 935.28,35.00 936.52,35.00 937.75,35.00 938.98,35.00 940.20,35.00 941.42,35.00 942.65,35.00 943.89,35.00 945.12,35.00 946.36,35.00 947.58,35.00 948.82,35.00 950.05,35.00 951.31,35.00 952.55,35.00 953.77,35.00 955.01,35.00 956.23,35.00 957.46,35.00 958.69,35.00 959.94,35.00 961.17,35.00 962.40,35.00 963.64,35.00 964.87,35.00 966.10,35.00 967.33,35.00 968.58,35.00 969.85,35.00 971.09,35.00 972.33,35.00 973.57,35.00 974.80,35.00 976.05,35.00 977.27,35.00 978.49,35.00 979.71,35.00 980.96,35.00 982.19,35.00 983.44,35.00 984.67,35.00 985.92,35.00 987.20,35.00 988.43,35.00 989.66,35.00 990.90,35.00 992.13,35.00 993.37,35.00 994.61,35.00 995.86,35.00 997.09,35.00 998.34,35.00 999.57,35.00 1000.81,35.00 1002.05,35.00 1003.28,35.00 1004.52,35.00 1005.75,35.00 1006.98,35.00 1008.22,35.00 1009.47,35.00 1010.70,35.00 1011.93,35.00 1013.17,35.00 1014.41,35.00 1015.64,35.00 1016.88,35.00 1018.12,35.00 1019.39,35.00 1020.63,35.00 1021.88,35.00 1023.11,35.00 1024.37,35.00 1025.63,35.00 1026.89,35.00 1028.14,35.00 1029.42,35.00 1030.66,35.00 1031.89,35.00 1033.12,35.00 1034.36,35.00 1035.60,35.00 1036.84,35.00 1038.11,35.00 1039.34,35.00 1040.58,35.00 1041.81,35.00 1043.04,35.00 1044.27,35.00 1045.51,35.00 1046.74,35.00 1047.97,35.00 1049.20,35.00 1050.42,35.00 1051.66,35.00 1052.87,35.00 1054.10,35.00 1055.34,35.00 1056.59,35.00 1057.81,35.00 1059.06,35.00 1060.30,35.00 1061.53,35.00 1062.77,35.00 1064.00,35.00 1065.23,35.00 1066.46,35.00 1067.69,35.00 1068.93,35.00 1070.17,35.00 1071.39,35.00 1072.61,35.00 1073.84,35.00 1075.07,35.00 1076.31,35.00 1077.54,35.00 1078.77,35.00 1080.01,35.00 1081.24,35.00 1082.46,35.00 1083.71,35.00 1084.94,35.00 1086.15,35.00 1087.37,35.00 1088.58,35.00 1089.81,35.00 1091.05,35.00 1092.31,35.00 1093.53,35.00 1094.77,35.00 1096.00,35.00 1097.26,35.00 1098.50,35.00 1099.72,35.00 1100.97,35.00 1102.20,35.00 1103.43,35.00 1104.68,35.00 1105.91,35.00 1107.16,35.00 1108.41,35.00 1109.63,35.00 1110.86,35.00 1112.09,35.00 1113.31,35.00 1114.55,35.00 1115.78,35.00 1116.99,35.00 1118.23,35.00 1119.46,35.00 1120.70,35.00 1121.93,35.00 1123.16,35.00 1124.39,35.00 1125.62,35.00 1126.86,35.00 1128.10,35.00 1129.33,35.00 1130.56,35.00 1131.79,35.00 1133.04,35.00 1134.26,35.00 1135.49,35.00 1136.73,35.00 1137.96,35.00 1139.19,35.00 1140.43,35.00 1141.67,35.00 1142.90,35.00 1144.13,35.00 1145.35,35.00 1146.63,35.00 1147.86,35.00 1149.12,35.00 1150.37,35.00 1151.61,35.00 1152.84,35.00 1154.08,35.00 1155.32,35.00 1156.55,35.00 1157.78,35.00 1159.03,35.00 1160.28,35.00 1161.52,35.00 1162.75,35.00 1163.99,35.00 1165.22,35.00 1166.46,35.00 1167.70,35.00 1168.92,35.00 1170.15,35.00 1171.39,35.00 1172.62,35.00 1173.85,35.00 1175.08,35.00 1176.32,35.00 1177.54,35.00 1178.77,35.00 1180.00,35.00"/>
<polyline fill="none" stroke="#ff7f0e" stroke-opacity="0.80" stroke-width="2" points="70.00,35.00 71.23,35.00 72.46,35.00 73.68,35.00 74.92,35.00 76.16,35.00 77.37,35.00 78.61,35.00 79.94,35.00 81.16,35.00 82.38,35.00 83.60,35.00 84.85,35.00 86.07,35.00 87.29,35.00 89.50,35.00 91.40,35.00 92.64,35.00 93.90,35.00 95.12,35.00 96.35,35.00 97.55,35.00 98.79,35.00 100.01,35.00 101.25,35.00 102.49,35.00 103.74,35.00 104.97,35.00 106.20,35.00 107.49,35.00 108.73,35.00 109.95,35.00 111.21,35.00 112.44,35.00 113.67,35.00 114.93,35.00 116.15,35.00 117.38,35.00 118.63,35.00 119.84,35.00 121.07,35.00 122.29,35.00 123.51,35.00 124.74,35.00 125.96,35.00 127.22,35.00 128.46,35.00 129.67,35.00 130.89,35.00 132.13,35.00 133.36,35.00 134.77,35.00 135.99,35.00 137.22,35.00 138.43,35.00 139.66,35.00 140.87,35.00 142.09,35.00 143.32,35.00 144.55,35.00 145.80,35.00 147.02,35.00 148.24,35.00 149.47,35.00 150.72,35.00 151.94,35.00 153.17,35.00 154.39,35.00 155.60,35.00 156.82,35.00 158.04,35.00 159.27,35.00 160.49,35.00 161.71,35.00 162.94,35.00 164.17,35.00 165.38,35.00 166.62,35.00 167.84,35.00 169.06,35.00 170.32,35.00 171.54,35.00 172.76,35.00 174.00,35.00 175.22,35.00 176.45,35.00 177.68,35.00 178.89,35.00 180.11,35.00 181.34,35.00 182.58,35.00 183.80,35.00 185.04,35.00 186.25,35.00 187.48,35.00 188.70,35.00 189.93,35.00 191.15,35.00 192.37,35.00 193.59,35.00 194.83,35.00 196.06,35.00 197.28,35.00 198.51,35.00 199.76,35.00 200.99,35.00 202.22,35.00 203.44,35.00 204.66,35.00 205.88,35.00 207.12,35.00 208.35,35.00 209.57,35.00 210.80,35.00 212.03,35.00 213.26,35.00 214.50,35.00 215.74,35.00 216.97,35.00 218.19,35.00 219.42,35.00 220.65,35.00 221.87,35.00 223.11,35.00 224.44,35.00 225.66,35.00 226.90,35.00 228.13,35.00 229.34,35.00 230.56,35.00 231.77,35.00 232.99,35.00 234.22,35.00 235.44,35.00 236.66,35.00 237.89,35.00 239.11,35.00 240.33,35.00 241.58,35.00 242.80,35.00 244.02,35.00 245.25,35.00 246.47,35.00 247.69,35.00 248.93,35.00 250.16,35.00 251.39,35.00 252.61,35.00 253.84,35.00 255.06,35.00 256.28,35.00 257.50,35.00 258.73,35.00 259.96,35.00 261.20,35.00 262.43,35.00 263.65,35.00 264.89,35.00 266.12,35.00 267.33,35.00 268.57,35.00 269.79,35.00 271.04,35.00 272.29,35.00 273.51,35.00 274.74,35.00 275.95,35.00 277.17,35.00 278.40,35.00 279.62,35.00 280.84,35.00 282.06,35.00 283.28,35.00 284.52,35.00 285.75,35.00 286.98,35.00 288.20,35.00 289.46,35.00 290.68,35.00 291.91,35.00 293.13,35.00 294.34,35.00 295.68,35.00 296.93,35.00 298.15,35.00 299.37,35.00 300.58,35.00 301.81,35.00 303.04,35.00 304.27,35.00 305.50,35.00 306.72,35.00 307.94,35.00 309.17,35.00 310.42,35.00 311.65,35.00 312.87,35.00 314.09,35.00 315.33,35.00 316.58,35.00 317.84,35.00 319.05,35.00 320.28,35.00 321.51,35.00 322.73,35.00 323.96,35.00 325.19,35.00 326.43,35.00 327.65,35.00 328.87,35.00 330.11,35.00 331.34,35.00 332.56,35.00 333.79,35.00 335.04,35.00 336.26,35.00 337.48,35.00 338.70,35.00 339.92,35.00 341.15,35.00 342.37,35.00 343.59,35.00 344.82,35.00 346.03,35.00 347.26,35.00 348.49,35.00 349.72,35.00 350.95,35.00 352.20,35.00 353.42,35.00 354.66,35.00 355.88,35.00 357.11,35.00 358.34,35.00 359.57,35.00 360.79,35.00 362.05,35.00 363.28,35.00 364.51,35.00 365.74,35.00 366.96,35.00 368.19,35.00 369.40,35.00 370.63,35.00 371.86,35.00 373.09,35.00 374.32,35.00 375.55,35.00 376.78,35.00 378.01,35.00 379.24,35.00 380.47,35.00 381.71,35.00 382.93,35.00 384.16,35.00 385.39,35.00 386.63,35.00 387.86,35.00 389.09,35.00 390.31,35.00 391.67,35.00 392.91,35.00 394.14,35.00 395.37,35.00 396.61,35.00 397.84,35.00 399.07,35.00 400.30,35.00 401.52,35.00 402.78,35.00 404.03,35.00 405.24,35.00 406.47,35.00 407.69,35.00 408.92,35.00 410.15,35.00 411.42,35.00 412.65,35.00 413.88,35.00 415.12,35.00 416.44,35.00 417.67,35.00 419.22,35.00 421.29,35.00 422.55,35.00 423.80,35.00 425.03,35.00 426.23,35.00 427.45,35.00 428.70,35.00 429.93,35.00 431.16,35.00 432.44,35.00 433.71,35.00 435.01,35.00 436.24,35.00 437.47,35.00 438.70,35.00 439.94,35.00 441.19,35.00 442.43,35.00 443.65,35.00 444.87,35.00 446.15,35.00 447.39,35.00 448.60,35.00 449.83,35.00 451.08,35.00 452.35,35.00 453.59,35.00 454.82,35.00 456.08,35.00 457.25,35.00 458.47,35.00 459.73,35.00 460.95,35.00 462.19,35.00 463.46,35.00 464.69,35.00 465.92,35.00 467.16,35.00 468.40,35.00 469.63,35.00 470.85,35.00 472.07,35.00 473.30,35.00 474.54,35.00 475.75,35.00 477.22,35.00 478.66,35.00 480.11,35.00 481.54,35.00 482.94,35.00 484.36,35.00 485.81,35.00 487.24,35.00 488.47,35.00 489.69,35.00 490.91,35.00 492.13,35.00 493.36,35.00 494.58,35.00 495.80,35.00 497.02,35.00 498.25,35.00 499.47,35.00 500.70,35.00 501.92,35.00 503.14,35.00 504.36,35.00 505.58,35.00 506.80,35.00 508.03,35.00 509.25,35.00 510.48,35.00 511.71,35.00 512.93,35.00 514.14,35.00 515.36,35.00 516.59,35.00 517.82,35.00 519.05,35.00 520.27,35.00 521.49,35.00 522.72,35.00 523.94,35.00 525.17,35.00 526.39,35.00 527.61,35.00 528.83,35.00 530.04,35.00 531.25,35.00 532.48,35.00 533.70,35.00 534.91,35.00 536.13,35.00 537.35,35.00 538.58,35.00 539.79,35.00 541.01,35.00 542.21,35.00 543.48,35.00 544.80,35.00 546.03,35.00 547.26,35.00 548.48,35.00 549.70,35.00 550.91,35.00 552.13,35.00 553.35,35.00 554.80,35.00 556.23,35.00 557.66,35.00 559.10,35.00 560.54,35.00 561.97,35.00 563.44,35.00 564.92,35.00 566.26,35.00 567.58,35.00 568.81,35.00 570.05,35.00 571.27,35.00 572.49,35.00 573.71,35.00 574.94,35.00 576.16,35.00 577.38,35.00 578.60,35.00 579.83,35.00 581.05,35.00 582.27,35.00 583.52,35.00 584.74,35.00 585.96,35.00 587.03,35.00 588.30,35.00 589.52,35.00 590.78,35.00 592.00,35.00 593.22,35.00 594.46,35.00 595.69,35.00 596.93,35.00 598.17,35.00 599.40,35.00 600.65,35.00 601.87,35.00 603.08,35.00 604.31,35.00 605.52,35.00 606.74,35.00 607.96,35.00 609.20,35.00 610.42,35.00 611.65,35.00 612.87,35.00 614.09,35.00 615.32,35.00 616.55,35.00 617.78,35.00 619.01,35.00 620.24,35.00 621.46,35.00 622.70,35.00 623.93,35.00 625.19,35.00 626.41,35.00 627.63,35.00 628.85,35.00 630.07,35.00 631.29,35.00 632.53,35.00 633.75,35.00 634.96,35.00 636.19,35.00 637.41,35.00 638.63,35.00 639.86,35.00 641.10,35.00 642.32,35.00 643.80,35.00 645.06,35.00 646.32,35.00 647.56,35.00 648.79,35.00 650.03,35.00 651.24,35.00 652.46,35.00 653.70,35.00 654.94,35.00 656.16,35.00 657.39,35.00 658.62,35.00 659.85,35.00 661.12,35.00 662.36,35.00 663.59,35.00 664.82,35.00 666.05,35.00 667.27,35.00 668.49,35.00 669.72,35.00 671.00,35.00 672.23,35.00 673.47,35.00 674.69,35.00 675.92,35.00 677.15,35.00 678.37,35.00 679.60,35.00 680.83,35.00 682.07,35.00 683.30,35.00 684.53,35.00 685.75,35.00 686.97,35.00 688.20,35.00 689.45,35.00 690.68,35.00 691.90,35.00 693.12,35.00 694.35,35.00 695.59,35.00 696.83,35.00 698.30,35.00 699.56,35.00 700.79,35.00 702.02,35.00 703.24,35.00 704.47,35.00 705.70,35.00 706.93,35.00 708.18,35.00 709.41,35.00 710.63,35.00 711.85,35.00 713.08,35.00 714.30,35.00 715.53,35.00 716.76,35.00 717.98,35.00 719.20,35.00 720.43,35.00 721.65,35.00 722.90,35.00 724.12,35.00 725.34,35.00 726.58,35.00 727.82,35.00 729.04,35.00 730.27,35.00 731.50,35.00 732.76,35.00 733.98,35.00 735.21,35.00 736.45,35.00 737.67,35.00 738.89,35.00 740.13,35.00 741.36,35.00 742.62,35.00 743.84,35.00 745.07,35.00 746.28,35.00 747.50,35.00 748.73,35.00 749.96,35.00 751.18,35.00 752.42,35.00 753.67,35.00 754.90,35.00 756.10,35.00 757.35,35.00 758.57,35.00 759.80,35.00 761.02,35.00 762.25,35.00 763.47,35.00 764.71,35.00 765.94,35.00 767.17,35.00 768.41,35.00 769.65,35.00 770.88,35.00 772.11,35.00 773.35,35.00 774.73,35.00 776.07,35.00 777.39,35.00 778.63,35.00 779.91,35.00 781.14,35.00 782.37,35.00 783.59,35.00 784.73,35.00 786.02,35.00 787.24,35.00 788.49,35.00 789.70,35.00 790.93,35.00 792.15,35.00 793.39,35.00 794.61,35.00 795.84,35.00 797.07,35.00 798.30,35.00 799.53,35.00 800.77,35.00 802.01,35.00 803.25,35.00 804.48,35.00 805.71,35.00 806.94,35.00 808.19,35.00 809.42,35.00 810.64,35.00 811.87,35.00 813.10,35.00 814.32,35.00 815.55,35.00 816.78,35.00 818.01,35.00 819.25,35.00 820.47,35.00 821.70,35.00 822.93,35.00 824.16,35.00 825.40,35.00 826.63,35.00 827.85,35.00 829.08,35.00 830.32,35.00 831.55,35.00 832.79,35.00 834.03,35.00 835.26,35.00 836.49,35.00 837.72,35.00 838.95,35.00 840.19,35.00 841.46,35.00 842.69,35.00 843.93,35.00 845.15,35.00 846.38,35.00 847.61,35.00 848.84,35.00 850.08,35.00 851.31,35.00 852.54,35.00 853.77,35.00 855.01,35.00 856.24,35.00 857.48,35.00 858.71,35.00 859.95,35.00 861.19,35.00 862.42,35.00 863.67,35.00 864.90,35.00 866.12,35.00 867.36,35.00 868.59,35.00 869.85,35.00 871.09,35.00 872.33,35.00 873.56,35.00 874.78,35.00 876.01,35.00 877.24,35.00 878.48,35.00 879.71,35.00 880.94,35.00 882.17,35.00 883.40,35.00 884.63,35.00 885.87,35.00 887.10,35.00 888.33,35.00 889.58,35.00 890.81,35.00 892.04,35.00 893.27,35.00 894.50,35.00 895.72,35.00 896.94,35.00 898.18,35.00 899.41,35.00 900.65,35.00 901.88,35.00 903.12,35.00 904.35,35.00 905.59,35.00 906.83,35.00 908.06,35.00 909.30,35.00 910.54,35.00 911.77,35.00 913.00,35.00 914.24,35.00 915.49,35.00 916.72,35.00 917.95,35.00 919.21,35.00 920.45,35.00 921.69,35.00 922.92,35.00 924.15,35.00 925.39,35.00 926.63,35.00 927.87,35.00 929.11,35.00 930.34,35.00 931.57,35.00 932.79,35.00 934.05,35.00 935.28,35.00 936.52,35.00 937.75,35.00 938.98,35.00 940.20,35.00 941.42,35.00 942.65,35.00 943.89,35.00 945.12,35.00 946.36,35.00 947.58,35.00 948.82,35.00 950.05,35.00 951.31,35.00 952.55,35.00 953.77,35.00 955.01,35.00 956.23,35.00 957.46,35.00 958.69,35.00 959.94,35.00 961.17,35.00 962.40,35.00 963.64,35.00 964.87,35.00 966.10,35.00 967.33,35.00 968.58,35.00 969.85,35.00 971.09,35.00 972.33,35.00 973.57,35.00 974.80,35.00 976.05,35.00 977.27,35.00 978.49,35.00 979.71,35.00 980.96,35.00 982.19,35.00 983.44,35.00 984.67,35.00 985.92,35.00 987.20,35.00 988.43,35.00 989.66,35.00 990.90,35.00 992.13,35.00 993.37,35.00 994.61,35.00 995.86,35.00 997.09,35.00 998.34,35.00 999.57,35.00 1000.81,35.00 1002.05,35.00 1003.28,35.00 1004.52,35.00 1005.75,35.00 1006.98,35.00 1008.22,35.00 1009.47,35.00 1010.70,35.00 1011.93,35.00 1013.17,35.00 1014.41,35.00 1015.64,35.00 1016.88,35.00 1018.12,35.00 1019.39,35.00 1020.63,35.00 1021.88,35.00 1023.11,35.00 1024.37,35.00 1025.63,35.00 1026.89,35.00 1028.14,35.00 1029.42,35.00 1030.66,35.00 1031.89,35.00 1033.12,35.00 1034.36,35.00 1035.60,35.00 1036.84,35.00 1038.11,35.00 1039.34,35.00 1040.58,35.00 1041.81,35.00 1043.04,35.00 1044.27,35.00 1045.51,35.00 1046.74,35.00 1047.97,35.00 1049.20,35.00 1050.42,35.00 1051.66,35.00 1052.87,35.00 1054.10,35.00 1055.34,35.00 1056.59,35.00 1057.81,35.00 1059.06,35.00 1060.30,35.00 1061.53,35.00 1062.77,35.00 1064.00,35.00 1065.23,35.00 1066.46,35.00 1067.69,35.00 1068.93,35.00 1070.17,35.00 1071.39,35.00 1072.61,35.00 1073.84,35.00 1075.07,35.00 1076.31,35.00 1077.54,35.00 1078.77,35.00 1080.01,35.00 1081.24,35.00 1082.46,35.00 1083.71,35.00 1084.94,35.00 1086.15,35.00 1087.37,35.00 1088.58,35.00 1089.81,35.00 1091.05,35.00 1092.31,35.00 1093.53,35.00 1094.77,35.00 1096.00,35.00 1097.26,35.00 1098.50,35.00 1099.72,35.00 1100.97,35.00 1102.20,35.00 1103.43,35.00 1104.68,35.00 1105.91,35.00 1107.16,35.00 1108.41,35.00 1109.63,35.00 1110.86,35.00 1112.09,35.00 1113.31,35.00 1114.55,35.00 1115.78,35.00 1116.99,35.00 1118.23,35.00 1119.46,35.00 1120.70,35.00 1121.93,35.00 1123.16,35.00 1124.39,35.00 1125.62,35.00 1126.86,35.00 1128.10,35.00 1129.33,35.00 1130.56,35.00 1131.79,35.00 1133.04,35.00 1134.26,35.00 1135.49,35.00 1136.73,35.00 1137.96,35.00 1139.19,35.00 1140.43,35.00 1141.67,35.00 1142.90,35.00 1144.13,35.00 1145.35,35.00 1146.63,35.00 1147.86,35.00 1149.12,35.00 1150.37,35.00 1151.61,35.00 1152.84,35.00 1154.08,35.00 1155.32,35.00 1156.55,35.00 1157.78,35.00 1159.03,35.00 1160.28,35.00 1161.52,35.00 1162.75,35.00 1163.99,35.00 1165.22,35.00 1166.46,35.00 1167.70,35.00 1168.92,35.00 1170.15,35.00 1171.39,35.00 1172.62,35.00 1173.85,35.00 1175.08,35.00 1176.32,35.00 1177.54,35.00 1178.77,35.00 1180.00,35.00"/>
<polyline fill="none" stroke="#ff7f0e" stroke-opacity="0.65" stroke-width="2" points="70.00,305.00 71.23,305.00 72.46,305.00 73.68,305.00 74.92,305.00 76.16,305.00 77.37,305.00 78.61,305.00 79.94,305.00 81.16,305.00 82.38,305.00 83.60,305.00 84.85,305.00 86.07,305.00 87.29,305.00 89.50,305.00 91.40,305.00 92.64,305.00 93.90,305.00 95.12,305.00 96.35,305.00 97.55,305.00 98.79,305.00 100.01,305.00 101.25,305.00 102.49,305.00 103.74,305.00 104.97,305.00 106.20,305.00 107.49,305.00 108.73,305.00 109.95,305.00 111.21,305.00 112.44,305.00 113.67,305.00 114.93,305.00 116.15,305.00 117.38,305.00 118.63,305.00 119.84,305.00 121.07,305.00 122.29,305.00 123.51,305.00 124.74,305.00 125.96,305.00 127.22,305.00 128.46,305.00 129.67,305.00 130.89,305.00 132.13,305.00 133.36,305.00 134.77,305.00 135.99,305.00 137.22,305.00 138.43,305.00 139.66,305.00 140.87,305.00 142.09,305.00 143.32,305.00 144.55,305.00 145.80,305.00 147.02,305.00 148.24,305.00 149.47,305.00 150.72,305.00 151.94,305.00 153.17,305.00 154.39,305.00 155.60,305.00 156.82,305.00 158.04,305.00 159.27,305.00 160.49,305.00 161.71,305.00 162.94,305.00 164.17,305.00 165.38,305.00 166.62,305.00 167.84,305.00 169.06,305.00 170.32,305.00 171.54,305.00 172.76,305.00 174.00,305.00 175.22,305.00 176.45,305.00 177.68,305.00 178.89,305.00 180.11,305.00 181.34,305.00 182.58,305.00 183.80,305.00 185.04,305.00 186.25,305.00 187.48,305.00 188.70,305.00 189.93,305.00 191.15,305.00 192.37,305.00 193.59,305.00 194.83,305.00 196.06,305.00 197.28,305.00 198.51,305.00 199.76,305.00 200.99,305.00 202.22,305.00 203.44,305.00 204.66,305.00 205.88,305.00 207.12,305.00 208.35,305.00 209.57,305.00 210.80,305.00 212.03,305.00 213.26,305.00 214.50,305.00 215.74,305.00 216.97,305.00 218.19,305.00 219.42,305.00 220.65,305.00 221.87,305.00 223.11,305.00 224.44,305.00 225.66,305.00 226.90,305.00 228.13,305.00 229.34,305.00 230.56,305.00 231.77,305.00 232.99,305.00 234.22,305.00 235.44,305.00 236.66,305.00 237.89,305.00 239.11,305.00 240.33,305.00 241.58,305.00 242.80,305.00 244.02,305.00 245.25,305.00 246.47,305.00 247.69,305.00 248.93,305.00 250.16,305.00 251.39,305.00 252.61,305.00 253.84,305.00 255.06,305.00 256.28,305.00 257.50,305.00 258.73,305.00 259.96,305.00 261.20,305.00 262.43,305.00 263.65,305.00 264.89,305.00 266.12,305.00 267.33,305.00 268.57,305.00 269.79,305.00 271.04,305.00 272.29,305.00 273.51,305.00 274.74,305.00 275.95,305.00 277.17,305.00 278.40,305.00 279.62,305.00 280.84,305.00 282.06,305.00 283.28,305.00 284.52,305.00 285.75,305.00 286.98,305.00 288.20,305.00 289.46,305.00 290.68,305.00 291.91,305.00 293.13,305.00 294.34,305.00 295.68,305.00 296.93,305.00 298.15,305.00 299.37,305.00 300.58,305.00 301.81,305.00 303.04,305.00 304.27,305.00 305.50,305.00 306.72,305.00 307.94,305.00 309.17,305.00 310.42,305.00 311.65,305.00 312.87,305.00 314.09,305.00 315.33,305.00 316.58,305.00 317.84,305.00 319.05,305.00 320.28,305.00 321.51,305.00 322.73,305.00 323.96,305.00 325.19,305.00 326.43,305.00 327.65,305.00 328.87,305.00 330.11,305.00 331.34,305.00 332.56,305.00 333.79,305.00 335.04,305.00 336.26,305.00 337.48,305.00 338.70,305.00 339.92,305.00 341.15,305.00 342.37,305.00 343.59,305.00 344.82,305.00 346.03,305.00 347.26,305.00 348.49,305.00 349.72,305.00 350.95,305.00 352.20,305.00 353.42,305.00 354.66,305.00 355.88,305.00 357.11,305.00 358.34,305.00 359.57,305.00 360.79,305.00 362.05,305.00 363.28,305.00 364.51,305.00 365.74,305.00 366.96,305.00 368.19,305.00 369.40,305.00 370.63,305.00 371.86,305.00 373.09,305.00 374.32,305.00 375.55,305.00 376.78,305.00 378.01,305.00 379.24,305.00 380.47,305.00 381.71,305.00 382.93,305.00 384.16,305.00 385.39,305.00 386.63,305.00 387.86,305.00 389.09,305.00 390.31,305.00 391.67,305.00 392.91,305.00 394.14,305.00 395.37,305.00 396.61,305.00 397.84,305.00 399.07,305.00 400.30,305.00 401.52,305.00 402.78,305.00 404.03,305.00 405.24,305.00 406.47,305.00 407.69,305.00 408.92,305.00 410.15,305.00 411.42,305.00 412.65,305.00 413.88,305.00 415.12,305.00 416.44,305.00 417.67,305.00 419.22,305.00 421.29,305.00 422.55,305.00 423.80,305.00 425.03,305.00 426.23,305.00 427.45,305.00 428.70,305.00 429.93,305.00 431.16,305.00 432.44,305.00 433.71,305.00 435.01,305.00 436.24,305.00 437.47,305.00 438.70,305.00 439.94,305.00 441.19,305.00 442.43,305.00 443.65,305.00 444.87,305.00 446.15,305.00 447.39,305.00 448.60,305.00 449.83,305.00 451.08,305.00 452.35,305.00 453.59,305.00 454.82,305.00 456.08,305.00 457.25,305.00 458.47,305.00 459.73,305.00 460.95,305.00 462.19,305.00 463.46,305.00 464.69,305.00 465.92,305.00 467.16,305.00 468.40,305.00 469.63,305.00 470.85,305.00 472.07,305.00 473.30,305.00 474.54,305.00 475.75,305.00 477.22,305.00 478.66,305.00 480.11,305.00 481.54,305.00 482.94,305.00 484.36,305.00 485.81,305.00 487.24,305.00 488.47,305.00 489.69,305.00 490.91,305.00 492.13,305.00 493.36,305.00 494.58,305.00 495.80,305.00 497.02,305.00 498.25,305.00 499.47,305.00 500.70,305.00 501.92,305.00 503.14,305.00 504.36,305.00 505.58,305.00 506.80,305.00 508.03,305.00 509.25,305.00 510.48,305.00 511.71,305.00 512.93,305.00 514.14,305.00 515.36,305.00 516.59,305.00 517.82,305.00 519.05,305.00 520.27,305.00 521.49,305.00 522.72,305.00 523.94,305.00 525.17,305.00 526.39,305.00 527.61,305.00 528.83,305.00 530.04,305.00 531.25,305.00 532.48,305.00 533.70,305.00 534.91,305.00 536.13,305.00 537.35,305.00 538.58,305.00 539.79,305.00 541.01,305.00 542.21,305.00 543.48,305.00 544.80,305.00 546.03,305.00 547.26,305.00 548.48,305.00 549.70,305.00 550.91,305.00 552.13,305.00 553.35,305.00 554.80,305.00 556.23,305.00 557.66,305.00 559.10,305.00 560.54,305.00 561.97,305.00 563.44,305.00 564.92,305.00 566.26,305.00 567.58,305.00 568.81,305.00 570.05,305.00 571.27,305.00 572.49,305.00 573.71,305.00 574.94,305.00 576.16,305.00 577.38,305.00 578.60,305.00 579.83,305.00 581.05,305.00 582.27,305.00 583.52,305.00 584.74,305.00 585.96,305.00 587.03,35.00 588.30,35.00 589.52,35.00 590.78,35.00 592.00,35.00 593.22,35.00 594.46,35.00 595.69,35.00 596.93,35.00 598.17,35.00 599.40,35.00 600.65,35.00 601.87,35.00 603.08,35.00 604.31,35.00 605.52,35.00 606.74,35.00 607.96,35.00 609.20,35.00 610.42,35.00 611.65,35.00 612.87,35.00 614.09,35.00 615.32,35.00 616.55,35.00 617.78,35.00 619.01,35.00 620.24,35.00 621.46,35.00 622.70,35.00 623.93,35.00 625.19,35.00 626.41,35.00 627.63,35.00 628.85,35.00 630.07,35.00 631.29,35.00 632.53,35.00 633.75,35.00 634.96,35.00 636.19,35.00 637.41,35.00 638.63,35.00 639.86,35.00 641.10,35.00 642.32,35.00 643.80,35.00 645.06,35.00 646.32,35.00 647.56,35.00 648.79,35.00 650.03,35.00 651.24,35.00 652.46,35.00 653.70,35.00 654.94,35.00 656.16,35.00 657.39,35.00 658.62,35.00 659.85,35.00 661.12,35.00 662.36,35.00 663.59,35.00 664.82,35.00 666.05,35.00 667.27,35.00 668.49,35.00 669.72,35.00 671.00,35.00 672.23,35.00 673.47,35.00 674.69,35.00 675.92,35.00 677.15,35.00 678.37,35.00 679.60,35.00 680.83,35.00 682.07,35.00 683.30,35.00 684.53,35.00 685.75,35.00 686.97,35.00 688.20,35.00 689.45,35.00 690.68,35.00 691.90,35.00 693.12,35.00 694.35,35.00 695.59,35.00 696.83,35.00 698.30,35.00 699.56,35.00 700.79,35.00 702.02,35.00 703.24,35.00 704.47,35.00 705.70,35.00 706.93,35.00 708.18,35.00 709.41,35.00 710.63,35.00 711.85,35.00 713.08,35.00 714.30,35.00 715.53,35.00 716.76,35.00 717.98,35.00 719.20,35.00 720.43,35.00 721.65,35.00 722.90,35.00 724.12,35.00 725.34,35.00 726.58,35.00 727.82,35.00 729.04,35.00 730.27,35.00 731.50,35.00 732.76,35.00 733.98,35.00 735.21,35.00 736.45,35.00 737.67,35.00 738.89,35.00 740.13,35.00 741.36,35.00 742.62,35.00 743.84,35.00 745.07,35.00 746.28,35.00 747.50,35.00 748.73,35.00 749.96,35.00 751.18,35.00 752.42,35.00 753.67,35.00 754.90,35.00 756.10,35.00 757.35,35.00 758.57,35.00 759.80,35.00 761.02,35.00 762.25,35.00 763.47,35.00 764.71,35.00 765.94,35.00 767.17,35.00 768.41,35.00 769.65,35.00 770.88,35.00 772.11,35.00 773.35,35.00 774.73,35.00 776.07,35.00 777.39,35.00 778.63,35.00 779.91,35.00 781.14,35.00 782.37,35.00 783.59,35.00 784.73,35.00 786.02,35.00 787.24,35.00 788.49,35.00 789.70,35.00 790.93,35.00 792.15,35.00 793.39,35.00 794.61,35.00 795.84,35.00 797.07,35.00 798.30,35.00 799.53,35.00 800.77,35.00 802.01,35.00 803.25,35.00 804.48,35.00 805.71,35.00 806.94,35.00 808.19,35.00 809.42,35.00 810.64,35.00 811.87,35.00 813.10,35.00 814.32,35.00 815.55,35.00 816.78,35.00 818.01,35.00 819.25,35.00 820.47,35.00 821.70,35.00 822.93,35.00 824.16,35.00 825.40,35.00 826.63,35.00 827.85,35.00 829.08,35.00 830.32,35.00 831.55,35.00 832.79,35.00 834.03,35.00 835.26,35.00 836.49,35.00 837.72,35.00 838.95,35.00 840.19,35.00 841.46,35.00 842.69,35.00 843.93,35.00 845.15,35.00 846.38,35.00 847.61,35.00 848.84,35.00 850.08,35.00 851.31,35.00 852.54,35.00 853.77,35.00 855.01,35.00 856.24,35.00 857.48,35.00 858.71,35.00 859.95,35.00 861.19,35.00 862.42,35.00 863.67,35.00 864.90,35.00 866.12,35.00 867.36,35.00 868.59,35.00 869.85,35.00 871.09,35.00 872.33,35.00 873.56,35.00 874.78,35.00 876.01,35.00 877.24,35.00 878.48,35.00 879.71,35.00 880.94,35.00 882.17,35.00 883.40,35.00 884.63,35.00 885.87,35.00 887.10,35.00 888.33,35.00 889.58,35.00 890.81,35.00 892.04,35.00 893.27,35.00 894.50,35.00 895.72,35.00 896.94,35.00 898.18,35.00 899.41,35.00 900.65,35.00 901.88,35.00 903.12,35.00 904.35,35.00 905.59,35.00 906.83,35.00 908.06,35.00 909.30,35.00 910.54,35.00 911.77,35.00 913.00,35.00 914.24,35.00 915.49,35.00 916.72,35.00 917.95,35.00 919.21,35.00 920.45,35.00 921.69,35.00 922.92,35.00 924.15,35.00 925.39,35.00 926.63,35.00 927.87,35.00 929.11,35.00 930.34,35.00 931.57,35.00 932.79,35.00 934.05,35.00 935.28,35.00 936.52,35.00 937.75,35.00 938.98,35.00 940.20,35.00 941.42,35.00 942.65,35.00 943.89,35.00 945.12,35.00 946.36,35.00 947.58,35.00 948.82,35.00 950.05,35.00 951.31,35.00 952.55,35.00 953.77,35.00 955.01,35.00 956.23,35.00 957.46,35.00 958.69,35.00 959.94,35.00 961.17,35.00 962.40,35.00 963.64,35.00 964.87,35.00 966.10,35.00 967.33,35.00 968.58,35.00 969.85,35.00 971.09,35.00 972.33,35.00 973.57,35.00 974.80,35.00 976.05,35.00 977.27,35.00 978.49,35.00 979.71,35.00 980.96,35.00 982.19,35.00 983.44,35.00 984.67,35.00 985.92,35.00 987.20,35.00 988.43,35.00 989.66,35.00 990.90,35.00 992.13,35.00 993.37,35.00 994.61,35.00 995.86,35.00 997.09,35.00 998.34,35.00 999.57,35.00 1000.81,35.00 1002.05,35.00 1003.28,35.00 1004.52,35.00 1005.75,35.00 1006.98,35.00 1008.22,35.00 1009.47,35.00 1010.70,35.00 1011.93,35.00 1013.17,35.00 1014.41,35.00 1015.64,35.00 1016.88,35.00 1018.12,35.00 1019.39,35.00 1020.63,35.00 1021.88,35.00 1023.11,35.00 1024.37,35.00 1025.63,35.00 1026.89,35.00 1028.14,35.00 1029.42,35.00 1030.66,35.00 1031.89,35.00 1033.12,35.00 1034.36,35.00 1035.60,35.00 1036.84,35.00 1038.11,35.00 1039.34,35.00 1040.58,35.00 1041.81,35.00 1043.04,35.00 1044.27,35.00 1045.51,35.00 1046.74,35.00 1047.97,35.00 1049.20,35.00 1050.42,35.00 1051.66,35.00 1052.87,35.00 1054.10,35.00 1055.34,35.00 1056.59,35.00 1057.81,35.00 1059.06,35.00 1060.30,35.00 1061.53,35.00 1062.77,35.00 1064.00,35.00 1065.23,35.00 1066.46,35.00 1067.69,35.00 1068.93,35.00 1070.17,35.00 1071.39,35.00 1072.61,35.00 1073.84,35.00 1075.07,35.00 1076.31,35.00 1077.54,35.00 1078.77,35.00 1080.01,35.00 1081.24,35.00 1082.46,35.00 1083.71,35.00 1084.94,35.00 1086.15,35.00 1087.37,35.00 1088.58,35.00 1089.81,35.00 1091.05,35.00 1092.31,35.00 1093.53,35.00 1094.77,35.00 1096.00,35.00 1097.26,35.00 1098.50,35.00 1099.72,35.00 1100.97,35.00 1102.20,35.00 1103.43,35.00 1104.68,35.00 1105.91,35.00 1107.16,35.00 1108.41,35.00 1109.63,35.00 1110.86,35.00 1112.09,35.00 1113.31,35.00 1114.55,35.00 1115.78,35.00 1116.99,35.00 1118.23,35.00 1119.46,35.00 1120.70,35.00 1121.93,35.00 1123.16,35.00 1124.39,35.00 1125.62,35.00 1126.86,35.00 1128.10,35.00 1129.33,35.00 1130.56,35.00 1131.79,35.00 1133.04,35.00 1134.26,35.00 1135.49,35.00 1136.73,35.00 1137.96,35.00 1139.19,35.00 1140.43,35.00 1141.67,35.00 1142.90,35.00 1144.13,35.00 1145.35,35.00 1146.63,35.00 1147.86,35.00 1149.12,35.00 1150.37,35.00 1151.61,35.00 1152.84,35.00 1154.08,35.00 1155.32,35.00 1156.55,35.00 1157.78,35.00 1159.03,35.00 1160.28,35.00 1161.52,35.00 1162.75,35.00 1163.99,35.00 1165.22,35.00 1166.46,35.00 1167.70,35.00 1168.92,35.00 1170.15,35.00 1171.39,35.00 1172.62,35.00 1173.85,35.00 1175.08,35.00 1176.32,35.00 1177.54,35.00 1178.77,35.00 1180.00,35.00"/>
<polyline fill="none" stroke="#ff7f0e" stroke-opacity="0.50" stroke-width="2" points="70.00,35.00 71.23,35.00 72.46,35.00 73.68,35.00 74.92,35.00 76.16,35.00 77.37,35.00 78.61,35.00 79.94,35.00 81.16,35.00 82.38,35.00 83.60,35.00 84.85,35.00 86.07,35.00 87.29,35.00 89.50,35.00 91.40,35.00 92.64,35.00 93.90,35.00 95.12,35.00 96.35,35.00 97.55,35.00 98.79,35.00 100.01,35.00 101.25,35.00 102.49,35.00 103.74,35.00 104.97,35.00 106.20,35.00 107.49,35.00 108.73,35.00 109.95,35.00 111.21,35.00 112.44,35.00 113.67,35.00 114.93,35.00 116.15,35.00 117.38,35.00 118.63,35.00 119.84,35.00 121.07,35.00 122.29,35.00 123.51,35.00 124.74,35.00 125.96,35.00 127.22,35.00 128.46,35.00 129.67,35.00 130.89,35.00 132.13,35.00 133.36,35.00 134.77,35.00 135.99,35.00 137.22,35.00 138.43,35.00 139.66,35.00 140.87,35.00 142.09,35.00 143.32,35.00 144.55,35.00 145.80,35.00 147.02,35.00 148.24,35.00 149.47,35.00 150.72,35.00 151.94,35.00 153.17,35.00 154.39,35.00 155.60,35.00 156.82,35.00 158.04,35.00 159.27,35.00 160.49,35.00 161.71,35.00 162.94,35.00 164.17,35.00 165.38,35.00 166.62,35.00 167.84,35.00 169.06,35.00 170.32,35.00 171.54,35.00 172.76,35.00 174.00,35.00 175.22,35.00 176.45,35.00 177.68,35.00 178.89,35.00 180.11,35.00 181.34,35.00 182.58,35.00 183.80,35.00 185.04,35.00 186.25,35.00 187.48,35.00 188.70,35.00 189.93,35.00 191.15,35.00 192.37,35.00 193.59,35.00 194.83,35.00 196.06,35.00 197.28,35.00 198.51,35.00 199.76,35.00 200.99,35.00 202.22,35.00 203.44,35.00 204.66,35.00 205.88,35.00 207.12,35.00 208.35,35.00 209.57,35.00 210.80,35.00 212.03,35.00 213.26,35.00 214.50,35.00 215.74,35.00 216.97,35.00 218.19,35.00 219.42,35.00 220.65,35.00 221.87,35.00 223.11,35.00 224.44,35.00 225.66,35.00 226.90,35.00 228.13,35.00 229.34,35.00 230.56,35.00 231.77,35.00 232.99,35.00 234.22,35.00 235.44,35.00 236.66,35.00 237.89,35.00 239.11,35.00 240.33,35.00 241.58,35.00 242.80,35.00 244.02,35.00 245.25,35.00 246.47,35.00 247.69,35.00 248.93,35.00 250.16,35.00 251.39,35.00 252.61,35.00 253.84,35.00 255.06,35.00 256.28,35.00 257.50,35.00 258.73,35.00 259.96,35.00 261.20,35.00 262.43,35.00 263.65,35.00 264.89,35.00 266.12,35.00 267.33,35.00 268.57,35.00 269.79,35.00 271.04,35.00 272.29,35.00 273.51,35.00 274.74,35.00 275.95,35.00 277.17,35.00 278.40,35.00 279.62,35.00 280.84,35.00 282.06,35.00 283.28,35.00 284.52,35.00 285.75,35.00 286.98,35.00 288.20,35.00 289.46,35.00 290.68,35.00 291.91,35.00 293.13,35.00 294.34,35.00 295.68,35.00 296.93,35.00 298.15,35.00 299.37,35.00 300.58,35.00 301.81,35.00 303.04,35.00 304.27,35.00 305.50,35.00 306.72,35.00 307.94,35.00 309.17,35.00 310.42,35.00 311.65,35.00 312.87,35.00 314.09,35.00 315.33,35.00 316.58,35.00 317.84,35.00 319.05,35.00 320.28,35.00 321.51,35.00 322.73,35.00 323.96,35.00 325.19,35.00 326.43,35.00 327.65,35.00 328.87,35.00 330.11,35.00 331.34,35.00 332.56,35.00 333.79,35.00 335.04,35.00 336.26,35.00 337.48,35.00 338.70,35.00 339.92,35.00 341.15,35.00 342.37,35.00 343.59,35.00 344.82,35.00 346.03,35.00 347.26,35.00 348.49,35.00 349.72,35.00 350.95,35.00 352.20,35.00 353.42,35.00 354.66,35.00 355.88,35.00 357.11,35.00 358.34,35.00 359.57,35.00 360.79,35.00 362.05,35.00 363.28,35.00 364.51,35.00 365.74,35.00 366.96,35.00 368.19,35.00 369.40,35.00 370.63,35.00 371.86,35.00 373.09,35.00 374.32,35.00 375.55,35.00 376.78,35.00 378.01,35.00 379.24,35.00 380.47,35.00 381.71,35.00 382.93,35.00 384.16,35.00 385.39,35.00 386.63,35.00 387.86,35.00 389.09,35.00 390.31,35.00 391.67,35.00 392.91,35.00 394.14,35.00 395.37,35.00 396.61,35.00 397.84,35.00 399.07,35.00 400.30,35.00 401.52,35.00 402.78,35.00 404.03,35.00 405.24,35.00 406.47,35.00 407.69,35.00 408.92,35.00 410.15,35.00 411.42,35.00 412.65,35.00 413.88,35.00 415.12,35.00 416.44,35.00 417.67,35.00 419.22,35.00 421.29,35.00 422.55,35.00 423.80,35.00 425.03,35.00 426.23,35.00 427.45,35.00 428.70,35.00 429.93,35.00 431.16,35.00 432.44,35.00 433.71,35.00 435.01,35.00 436.24,35.00 437.47,35.00 438.70,35.00 439.94,35.00 441.19,35.00 442.43,35.00 443.65,35.00 444.87,35.00 446.15,35.00 447.39,35.00 448.60,35.00 449.83,35.00 451.08,35.00 452.35,35.00 453.59,35.00 454.82,35.00 456.08,35.00 457.25,35.00 458.47,35.00 459.73,35.00 460.95,35.00 462.19,35.00 463.46,35.00 464.69,35.00 465.92,35.00 467.16,35.00 468.40,35.00 469.63,35.00 470.85,35.00 472.07,35.00 473.30,35.00 474.54,35.00 475.75,35.00 477.22,35.00 478.66,35.00 480.11,35.00 481.54,35.00 482.94,35.00 484.36,35.00 485.81,35.00 487.24,35.00 488.47,35.00 489.69,35.00 490.91,35.00 492.13,35.00 493.36,35.00 494.58,35.00 495.80,35.00 497.02,35.00 498.25,35.00 499.47,35.00 500.70,35.00 501.92,35.00 503.14,35.00 504.36,35.00 505.58,35.00 506.80,35.00 508.03,35.00 509.25,35.00 510.48,35.00 511.71,35.00 512.93,35.00 514.14,35.00 515.36,35.00 516.59,35.00 517.82,35.00 519.05,35.00 520.27,35.00 521.49,35.00 522.72,35.00 523.94,35.00 525.17,35.00 526.39,35.00 527.61,35.00 528.83,35.00 530.04,35.00 531.25,35.00 532.48,35.00 533.70,35.00 534.91,35.00 536.13,35.00 537.35,35.00 538.58,35.00 539.79,35.00 541.01,35.00 542.21,35.00 543.48,35.00 544.80,35.00 546.03,35.00 547.26,35.00 548.48,35.00 549.70,35.00 550.91,35.00 552.13,35.00 553.35,35.00 554.80,35.00 556.23,35.00 557.66,35.00 559.10,35.00 560.54,35.00 561.97,35.00 563.44,35.00 564.92,35.00 566.26,35.00 567.58,35.00 568.81,35.00 570.05,35.00 571.27,35.00 572.49,35.00 573.71,35.00 574.94,35.00 576.16,35.00 577.38,35.00 578.60,35.00 579.83,35.00 581.05,35.00 582.27,35.00 583.52,35.00 584.74,35.00 585.96,35.00 587.03,35.00 588.30,35.00 589.52,35.00 590.78,35.00 592.00,35.00 593.22,35.00 594.46,35.00 595.69,35.00 596.93,35.00 598.17,35.00 599.40,35.00 600.65,35.00 601.87,35.00 603.08,35.00 604.31,35.00 605.52,35.00 606.74,35.00 607.96,35.00 609.20,35.00 610.42,35.00 611.65,35.00 612.87,35.00 614.09,35.00 615.32,35.00 616.55,35.00 617.78,35.00 619.01,35.00 620.24,35.00 621.46,35.00 622.70,35.00 623.93,35.00 625.19,35.00 626.41,35.00 627.63,35.00 628.85,35.00 630.07,35.00 631.29,35.00 632.53,35.00 633.75,35.00 634.96,35.00 636.19,35.00 637.41,35.00 638.63,35.00 639.86,35.00 641.10,35.00 642.32,35.00 643.80,35.00 645.06,35.00 646.32,35.00 647.56,35.00 648.79,35.00 650.03,35.00 651.24,35.00 652.46,35.00 653.70,35.00 654.94,35.00 656.16,35.00 657.39,35.00 658.62,35.00 659.85,35.00 661.12,35.00 662.36,35.00 663.59,35.00 664.82,35.00 666.05,35.00 667.27,35.00 668.49,35.00 669.72,35.00 671.00,35.00 672.23,35.00 673.47,35.00 674.69,35.00 675.92,35.00 677.15,35.00 678.37,35.00 679.60,35.00 680.83,35.00 682.07,35.00 683.30,35.00 684.53,35.00 685.75,35.00 686.97,35.00 688.20,35.00 689.45,35.00 690.68,35.00 691.90,35.00 693.12,35.00 694.35,35.00 695.59,35.00 696.83,35.00 698.30,35.00 699.56,35.00 700.79,35.00 702.02,35.00 703.24,35.00 704.47,35.00 705.70,35.00 706.93,35.00 708.18,35.00 709.41,35.00 710.63,35.00 711.85,35.00 713.08,35.00 714.30,35.00 715.53,35.00 716.76,35.00 717.98,35.00 719.20,35.00 720.43,35.00 721.65,35.00 722.90,35.00 724.12,35.00 725.34,35.00 726.58,35.00 727.82,35.00 729.04,35.00 730.27,35.00 731.50,35.00 732.76,35.00 733.98,35.00 735.21,35.00 736.45,35.00 737.67,35.00 738.89,35.00 740.13,35.00 741.36,35.00 742.62,35.00 743.84,35.00 745.07,35.00 746.28,35.00 747.50,35.00 748.73,35.00 749.96,35.00 751.18,35.00 752.42,35.00 753.67,35.00 754.90,35.00 756.10,35.00 757.35,35.00 758.57,35.00 759.80,35.00 761.02,35.00 762.25,35.00 763.47,35.00 764.71,35.00 765.94,35.00 767.17,35.00 768.41,35.00 769.65,35.00 770.88,35.00 772.11,35.00 773.35,35.00 774.73,35.00 776.07,35.00 777.39,35.00 778.63,35.00 779.91,35.00 781.14,35.00 782.37,35.00 783.59,35.00 784.73,35.00 786.02,35.00 787.24,35.00 788.49,35.00 789.70,35.00 790.93,35.00 792.15,35.00 793.39,35.00 794.61,35.00 795.84,35.00 797.07,35.00 798.30,35.00 799.53,35.00 800.77,35.00 802.01,35.00 803.25,35.00 804.48,35.00 805.71,35.00 806.94,35.00 808.19,35.00 809.42,35.00 810.64,35.00 811.87,35.00 813.10,35.00 814.32,35.00 815.55,35.00 816.78,35.00 818.01,35.00 819.25,35.00 820.47,35.00 821.70,35.00 822.93,35.00 824.16,35.00 825.40,35.00 826.63,35.00 827.85,35.00 829.08,35.00 830.32,35.00 831.55,35.00 832.79,35.00 834.03,35.00 835.26,35.00 836.49,35.00 837.72,35.00 838.95,35.00 840.19,35.00 841.46,35.00 842.69,35.00 843.93,35.00 845.15,35.00 846.38,35.00 847.61,35.00 848.84,35.00 850.08,35.00 851.31,35.00 852.54,35.00 853.77,35.00 855.01,35.00 856.24,35.00 857.48,35.00 858.71,35.00 859.95,35.00 861.19,35.00 862.42,35.00 863.67,35.00 864.90,35.00 866.12,35.00 867.36,35.00 868.59,35.00 869.85,35.00 871.09,35.00 872.33,35.00 873.56,35.00 874.78,35.00 876.01,35.00 877.24,35.00 878.48,35.00 879.71,35.00 880.94,35.00 882.17,35.00 883.40,35.00 884.63,35.00 885.87,35.00 887.10,35.00 888.33,35.00 889.58,35.00 890.81,35.00 892.04,35.00 893.27,35.00 894.50,35.00 895.72,35.00 896.94,35.00 898.18,35.00 899.41,35.00 900.65,35.00 901.88,35.00 903.12,35.00 904.35,35.00 905.59,35.00 906.83,35.00 908.06,35.00 909.30,35.00 910.54,35.00 911.77,35.00 913.00,35.00 914.24,35.00 915.49,35.00 916.72,35.00 917.95,35.00 919.21,35.00 920.45,35.00 921.69,35.00 922.92,35.00 924.15,35.00 925.39,35.00 926.63,35.00 927.87,35.00 929.11,35.00 930.34,35.00 931.57,35.00 932.79,35.00 934.05,35.00 935.28,35.00 936.52,35.00 937.75,35.00 938.98,35.00 940.20,35.00 941.42,35.00 942.65,35.00 943.89,35.00 945.12,35.00 946.36,35.00 947.58,35.00 948.82,35.00 950.05,35.00 951.31,35.00 952.55,35.00 953.77,35.00 955.01,35.00 956.23,35.00 957.46,35.00 958.69,35.00 959.94,35.00 961.17,35.00 962.40,35.00 963.64,35.00 964.87,35.00 966.10,35.00 967.33,35.00 968.58,35.00 969.85,35.00 971.09,35.00 972.33,35.00 973.57,35.00 974.80,35.00 976.05,35.00 977.27,35.00 978.49,35.00 979.71,35.00 980.96,35.00 982.19,35.00 983.44,35.00 984.67,35.00 985.92,35.00 987.20,35.00 988.43,35.00 989.66,35.00 990.90,35.00 992.13,35.00 993.37,35.00 994.61,35.00 995.86,35.00 997.09,35.00 998.34,35.00 999.57,35.00 1000.81,35.00 1002.05,35.00 1003.28,35.00 1004.52,35.00 1005.75,35.00 1006.98,35.00 1008.22,35.00 1009.47,35.00 1010.70,35.00 1011.93,35.00 1013.17,35.00 1014.41,35.00 1015.64,35.00 1016.88,35.00 1018.12,35.00 1019.39,35.00 1020.63,35.00 1021.88,35.00 1023.11,35.00 1024.37,35.00 1025.63,35.00 1026.89,35.00 1028.14,35.00 1029.42,35.00 1030.66,35.00 1031.89,35.00 1033.12,35.00 1034.36,35.00 1035.60,35.00 1036.84,35.00 1038.11,35.00 1039.34,35.00 1040.58,35.00 1041.81,35.00 1043.04,35.00 1044.27,35.00 1045.51,35.00 1046.74,35.00 1047.97,35.00 1049.20,35.00 1050.42,35.00 1051.66,35.00 1052.87,35.00 1054.10,35.00 1055.34,35.00 1056.59,35.00 1057.81,35.00 1059.06,35.00 1060.30,35.00 1061.53,35.00 1062.77,35.00 1064.00,35.00 1065.23,35.00 1066.46,35.00 1067.69,35.00 1068.93,35.00 1070.17,35.00 1071.39,35.00 1072.61,35.00 1073.84,35.00 1075.07,35.00 1076.31,35.00 1077.54,35.00 1078.77,35.00 1080.01,35.00 1081.24,35.00 1082.46,35.00 1083.71,35.00 1084.94,35.00 1086.15,35.00 1087.37,35.00 1088.58,35.00 1089.81,35.00 1091.05,35.00 1092.31,35.00 1093.53,35.00 1094.77,35.00 1096.00,35.00 1097.26,35.00 1098.50,35.00 1099.72,35.00 1100.97,35.00 1102.20,35.00 1103.43,35.00 1104.68,35.00 1105.91,35.00 1107.16,35.00 1108.41,35.00 1109.63,35.00 1110.86,35.00 1112.09,35.00 1113.31,35.00 1114.55,35.00 1115.78,35.00 1116.99,35.00 1118.23,35.00 1119.46,35.00 1120.70,35.00 1121.93,35.00 1123.16,35.00 1124.39,35.00 1125.62,35.00 1126.86,35.00 1128.10,35.00 1129.33,35.00 1130.56,35.00 1131.79,35.00 1133.04,35.00 1134.26,35.00 1135.49,35.00 1136.73,35.00 1137.96,35.00 1139.19,35.00 1140.43,35.00 1141.67,35.00 1142.90,35.00 1144.13,35.00 1145.35,35.00 1146.63,35.00 1147.86,35.00 1149.12,35.00 1150.37,35.00 1151.61,35.00 1152.84,35.00 1154.08,35.00 1155.32,35.00 1156.55,35.00 1157.78,35.00 1159.03,35.00 1160.28,35.00 1161.52,35.00 1162.75,35.00 1163.99,35.00 1165.22,35.00 1166.46,35.00 1167.70,35.00 1168.92,35.00 1170.15,35.00 1171.39,35.00 1172.62,35.00 1173.85,35.00 1175.08,35.00 1176.32,35.00 1177.54,35.00 1178.77,35.00 1180.00,35.00"/>
<rect x="70" y="332" width="12" height="12" fill="#ff7f0e" fill-opacity="0.95"/>
<text x="88" y="342" font-size="11" fill="#333" font-family="Arial, Helvetica, sans-serif">nsc1.utdallas.edu</text>
<rect x="350" y="332" width="12" height="12" fill="#ff7f0e" fill-opacity="0.80"/>
<text x="368" y="342" font-size="11" fill="#333" font-family="Arial, Helvetica, sans-serif">nsc2.utdallas.edu</text>
<rect x="630" y="332" width="12" height="12" fill="#ff7f0e" fill-opacity="0.65"/>
<text x="648" y="342" font-size="11" fill="#333" font-family="Arial, Helvetica, sans-serif">nsc3.utdallas.edu</text>
<rect x="910" y="332" width="12" height="12" fill="#ff7f0e" fill-opacity="0.50"/>
<text x="928" y="342" font-size="11" fill="#333" font-family="Arial, Helvetica, sans-serif">nsc4.utdallas.edu</text>
</svg>