<?xml version="1.0" encoding="UTF-8"?>
<svg xmlns="http://www.w3.org/2000/svg" width="1200" height="360" viewBox="0 0 1200 360" role="img" aria-label="CUDA Health (%)">
<rect width="100%" height="100%" fill="#ffffff"/>
<text x="600.0" y="22" text-anchor="middle" font-size="16" font-family="Arial, Helvetica, sans-serif" font-weight="bold">CUDA Health (%)</text>
<line x1="70" y1="35.00" x2="1180" y2="35.00" stroke="#e3e3e3" stroke-width="1"/>
<text x="62" y="39.00" text-anchor="end" font-size="11" fill="#444" font-family="Arial, Helvetica, sans-serif">100</text>
<line x1="70" y1="89.00" x2="1180" y2="89.00" stroke="#e3e3e3" stroke-width="1"/>
<text x="62" y="93.00" text-anchor="end" font-size="11" fill="#444" font-family="Arial, Helvetica, sans-serif">80</text>
<line x1="70" y1="143.00" x2="1180" y2="143.00" stroke="#e3e3e3" stroke-width="1"/>
<text x="62" y="147.00" text-anchor="end" font-size="11" fill="#444" font-family="Arial, Helvetica, sans-serif">60</text>
<line x1="70" y1="197.00" x2="1180" y2="197.00" stroke="#e3e3e3" stroke-width="1"/>
<text x="62" y="201.00" text-anchor="end" font-size="11" fill="#444" font-family="Arial, Helvetica, sans-serif">40</text>
<line x1="70" y1="251.00" x2="1180" y2="251.00" stroke="#e3e3e3" stroke-width="1"/>
<text x="62" y="255.00" text-anchor="end" font-size="11" fill="#444" font-family="Arial, Helvetica, sans-serif">20</text>
<line x1="70" y1="305.00" x2="1180" y2="305.00" stroke="#e3e3e3" stroke-width="1"/>
<text x="62" y="309.00" text-anchor="end" font-size="11" fill="#444" font-family="Arial, Helvetica, sans-serif">0</text>
<line x1="70" y1="35" x2="70" y2="305" stroke="#999"/>
<line x1="70" y1="305" x2="1180" y2="305" stroke="#999"/>
<text x="70.00" y="323" text-anchor="middle" font-size="10" fill="#444" font-family="Arial, Helvetica, sans-serif">2026-02-11 16:38</text>
<text x="347.50" y="323" text-anchor="middle" font-size="10" fill="#444" font-family="Arial, Helvetica, sans-serif">2026-02-12 13:26</text>
<text x="625.00" y="323" text-anchor="middle" font-size="10" fill="#444" font-family="Arial, Helvetica, sans-serif">2026-02-13 10:15</text>
<text x="902.50" y="323" text-anchor="middle" font-size="10" fill="#444" font-family="Arial, Helvetica, sans-serif">2026-02-14 07:04</text>
<text x="1180.00" y="323" text-anchor="middle" font-size="10" fill="#444" font-family="Arial, Helvetica, sans-serif">2026-02-15 03:53</text>
<polyline fill="none" stroke="#ff7f0e" stroke-opacity="0.95" stroke-width="2" points="71.20,35.00 72.40,35.00 73.59,35.00 74.79,35.00 76.00,35.00 77.18,35.00 78.38,35.00 79.68,35.00 80.87,35.00 82.05,35.00 83.24,35.00 84.46,35.00 85.65,35.00 86.84,35.00 88.99,35.00 90.84,35.00 92.05,35.00 93.27,35.00 94.47,35.00 95.66,35.00 96.83,35.00 98.04,35.00 99.23,35.00 100.43,35.00 101.64,35.00 102.86,35.00 104.06,35.00 105.26,35.00 106.51,35.00 107.72,35.00 108.91,35.00 110.14,35.00 111.33,35.00 112.53,35.00 113.76,35.00 114.95,35.00 116.14,35.00 117.36,35.00 118.54,35.00 119.74,35.00 120.92,35.00 122.11,35.00 123.31,35.00 124.50,35.00 125.72,35.00 126.93,35.00 128.11,35.00 129.30,35.00 130.51,35.00 131.71,35.00 133.07,35.00 134.27,35.00 135.46,35.00 136.65,35.00 137.84,35.00 139.02,35.00 140.21,35.00 141.41,35.00 142.60,35.00 143.82,35.00 145.01,35.00 146.19,35.00 147.40,35.00 148.61,35.00 149.80,35.00 151.00,35.00 152.18,35.00 153.37,35.00 154.56,35.00 155.74,35.00 156.93,35.00 158.13,35.00 159.32,35.00 160.51,35.00 161.71,35.00 162.89,35.00 164.10,35.00 165.28,35.00 166.47,35.00 167.70,35.00 168.89,35.00 170.08,35.00 171.28,35.00 172.47,35.00 173.67,35.00 174.87,35.00 176.05,35.00 177.23,35.00 178.44,35.00 179.64,35.00 180.83,35.00 182.04,35.00 183.22,35.00 184.42,35.00 185.60,35.00 186.80,35.00 187.98,35.00 189.18,35.00 190.36,35.00 191.57,35.00 192.76,35.00 193.96,35.00 195.16,35.00 196.37,35.00 197.57,35.00 198.76,35.00 199.95,35.00 201.14,35.00 202.33,35.00 203.54,35.00 204.74,35.00 205.93,35.00 207.12,35.00 208.32,35.00 209.52,35.00 210.72,35.00 211.94,35.00 213.13,35.00 214.32,35.00 215.52,35.00 216.71,35.00 217.90,35.00 219.11,35.00 220.40,35.00 221.59,35.00 222.80,35.00 224.00,35.00 225.18,35.00 226.37,35.00 227.54,35.00 228.73,35.00 229.93,35.00 231.12,35.00 232.31,35.00 233.50,35.00 234.70,35.00 235.88,35.00 237.10,35.00 238.29,35.00 239.48,35.00 240.67,35.00 241.86,35.00 243.05,35.00 244.25,35.00 245.45,35.00 246.65,35.00 247.85,35.00 249.04,35.00 250.22,35.00 251.41,35.00 252.60,35.00 253.80,35.00 255.00,35.00 256.20,35.00 257.40,35.00 258.59,35.00 259.80,35.00 261.00,35.00 262.18,35.00 263.38,35.00 264.58,35.00 265.79,35.00 267.00,35.00 268.19,35.00 269.39,35.00 270.58,35.00 271.76,35.00 272.95,35.00 274.15,35.00 275.34,35.00 276.52,35.00 277.71,35.00 278.92,35.00 280.11,35.00 281.31,35.00 282.50,35.00 283.73,35.00 284.92,35.00 286.11,35.00 287.30,35.00 288.48,35.00 289.78,35.00 291.01,35.00 292.19,35.00 293.38,35.00 294.56,35.00 295.76,35.00 296.95,35.00 298.15,35.00 299.35,35.00 300.54,35.00 301.73,35.00 302.92,35.00 304.15,35.00 305.34,35.00 306.52,35.00 307.72,35.00 308.92,35.00 310.14,35.00 311.36,35.00 312.55,35.00 313.74,35.00 314.94,35.00 316.13,35.00 317.33,35.00 318.53,35.00 319.74,35.00 320.93,35.00 322.11,35.00 323.32,35.00 324.51,35.00 325.71,35.00 326.90,35.00 328.11,35.00 329.31,35.00 330.50,35.00 331.68,35.00 332.87,35.00 334.07,35.00 335.26,35.00 336.45,35.00 337.64,35.00 338.82,35.00 340.02,35.00 341.22,35.00 342.42,35.00 343.62,35.00 344.83,35.00 346.02,35.00 347.23,35.00 348.41,35.00 349.61,35.00 350.81,35.00 352.00,35.00 353.20,35.00 354.42,35.00 355.62,35.00 356.82,35.00 358.01,35.00 359.20,35.00 360.40,35.00 361.58,35.00 362.78,35.00 363.98,35.00 365.18,35.00 366.37,35.00 367.57,35.00 368.77,35.00 369.96,35.00 371.16,35.00 372.36,35.00 373.57,35.00 374.76,35.00 375.95,35.00 377.16,35.00 378.36,35.00 379.56,35.00 380.76,35.00 381.95,35.00 383.27,35.00 384.48,35.00 385.67,35.00 386.87,35.00 388.08,35.00 389.28,35.00 390.47,35.00 391.67,35.00 392.86,35.00 394.09,35.00 395.30,35.00 396.49,35.00 397.68,35.00 398.88,35.00 400.07,35.00 401.27,35.00 402.51,35.00 403.70,35.00 404.90,35.00 406.11,35.00 407.40,35.00 408.59,35.00 410.10,35.00 412.12,35.00 413.34,35.00 414.56,35.00 415.75,35.00 416.92,35.00 418.11,35.00 419.33,35.00 420.53,35.00 421.73,35.00 422.98,35.00 424.21,35.00 425.48,35.00 426.68,35.00 427.88,35.00 429.07,35.00 430.28,35.00 431.49,35.00 432.70,35.00 433.89,35.00 435.08,35.00 436.33,35.00 437.53,35.00 438.71,35.00 439.91,35.00 441.13,35.00 442.37,35.00 443.57,35.00 444.77,35.00 446.00,35.00 447.14,35.00 448.33,35.00 449.55,35.00 450.74,35.00 451.95,35.00 453.18,35.00 454.38,35.00 455.58,35.00 456.79,35.00 457.99,35.00 459.19,35.00 460.38,35.00 461.57,35.00 462.77,35.00 463.97,35.00 465.16,35.00 466.58,35.00 467.99,35.00 469.40,35.00 470.79,35.00 472.16,35.00 473.54,35.00 474.95,35.00 476.34,35.00 477.54,35.00 478.72,35.00 479.92,35.00 481.11,35.00 482.31,35.00 483.49,35.00 484.68,35.00 485.87,35.00 487.06,35.00 488.26,35.00 489.45,35.00 490.64,35.00 491.83,35.00 493.02,35.00 494.21,35.00 495.40,35.00 496.59,35.00 497.77,35.00 498.97,35.00 500.18,35.00 501.36,35.00 502.54,35.00 503.73,35.00 504.93,35.00 506.12,35.00 507.32,35.00 508.51,35.00 509.70,35.00 510.90,35.00 512.09,35.00 513.28,35.00 514.47,35.00 515.66,35.00 516.85,35.00 518.03,35.00 519.21,35.00 520.40,35.00 521.59,35.00 522.77,35.00 523.96,35.00 525.15,35.00 526.34,35.00 527.52,35.00 528.70,35.00 529.88,35.00 531.11,35.00 532.40,35.00 533.60,35.00 534.79,35.00 535.98,35.00 537.17,35.00 538.35,35.00 539.54,35.00 540.72,35.00 542.14,35.00 543.54,35.00 544.92,35.00 546.32,35.00 547.73,35.00 549.12,35.00 550.55,35.00 552.00,35.00 553.30,35.00 554.58,35.00 555.78,35.00 556.99,35.00 558.18,35.00 559.36,35.00 560.55,35.00 561.75,35.00 562.94,35.00 564.13,35.00 565.31,35.00 566.51,35.00 567.71,35.00 568.90,35.00 570.11,35.00 571.30,35.00 572.48,35.00 573.53,35.00 574.76,35.00 575.95,35.00 577.18,35.00 578.37,35.00 579.56,35.00 580.76,35.00 581.96,35.00 583.16,35.00 584.37,35.00 585.57,35.00 586.79,35.00 587.97,35.00 589.16,35.00 590.35,35.00 591.53,35.00 592.72,35.00 593.91,35.00 595.11,35.00 596.30,35.00 597.50,35.00 598.69,35.00 599.88,35.00 601.08,35.00 602.27,35.00 603.47,35.00 604.68,35.00 605.87,35.00 607.06,35.00 608.26,35.00 609.46,35.00 610.69,35.00 611.88,35.00 613.06,35.00 614.26,35.00 615.44,35.00 616.63,35.00 617.83,35.00 619.02,35.00 620.21,35.00 621.40,35.00 622.59,35.00 623.78,35.00 624.98,35.00 626.19,35.00 627.38,35.00 628.82,35.00 630.04,35.00 631.27,35.00 632.47,35.00 633.67,35.00 634.88,35.00 636.06,35.00 637.25,35.00 638.46,35.00 639.66,35.00 640.85,35.00 642.05,35.00 643.25,35.00 644.44,35.00 645.68,35.00 646.89,35.00 648.09,35.00 649.29,35.00 650.48,35.00 651.67,35.00 652.86,35.00 654.06,35.00 655.30,35.00 656.50,35.00 657.71,35.00 658.90,35.00 660.09,35.00 661.30,35.00 662.48,35.00 663.68,35.00 664.88,35.00 666.08,35.00 667.28,35.00 668.48,35.00 669.67,35.00 670.86,35.00 672.05,35.00 673.27,35.00 674.47,35.00 675.66,35.00 676.85,35.00 678.04,35.00 679.26,35.00 680.46,35.00 681.89,35.00 683.12,35.00 684.32,35.00 685.51,35.00 686.70,35.00 687.90,35.00 689.10,35.00 690.30,35.00 691.52,35.00 692.71,35.00 693.90,35.00 695.09,35.00 696.28,35.00 697.48,35.00 698.67,35.00 699.87,35.00 701.06,35.00 702.25,35.00 703.44,35.00 704.63,35.00 705.85,35.00 707.03,35.00 708.22,35.00 709.43,35.00 710.64,35.00 711.83,35.00 713.02,35.00 714.22,35.00 715.45,35.00 716.64,35.00 717.84,35.00 719.04,35.00 720.24,35.00 721.43,35.00 722.63,35.00 723.83,35.00 725.05,35.00 726.24,35.00 727.44,35.00 728.62,35.00 729.81,35.00 731.01,35.00 732.20,35.00 733.39,35.00 734.60,35.00 735.81,35.00 737.02,35.00 738.19,35.00 739.40,35.00 740.58,35.00 741.78,35.00 742.97,35.00 744.17,35.00 745.36,35.00 746.57,35.00 747.77,35.00 748.96,35.00 750.17,35.00 751.37,35.00 752.57,35.00 753.77,35.00 754.98,35.00 756.32,35.00 757.63,35.00 758.91,35.00 760.12,35.00 761.37,35.00 762.57,35.00 763.77,35.00 764.95,35.00 766.07,35.00 767.32,35.00 768.51,35.00 769.72,35.00 770.90,35.00 772.10,35.00 773.29,35.00 774.50,35.00 775.69,35.00 776.89,35.00 778.08,35.00 779.28,35.00 780.48,35.00 781.68,35.00 782.89,35.00 784.10,35.00 785.30,35.00 786.50,35.00 787.69,35.00 788.91,35.00 790.11,35.00 791.30,35.00 792.49,35.00 793.69,35.00 794.88,35.00 796.08,35.00 797.28,35.00 798.47,35.00 799.69,35.00 800.87,35.00 802.06,35.00 803.26,35.00 804.46,35.00 805.67,35.00 806.87,35.00 808.06,35.00 809.26,35.00 810.46,35.00 811.66,35.00 812.87,35.00 814.07,35.00 815.27,35.00 816.47,35.00 817.67,35.00 818.87,35.00 820.08,35.00 821.31,35.00 822.51,35.00 823.71,35.00 824.91,35.00 826.11,35.00 827.30,35.00 828.50,35.00 829.71,35.00 830.91,35.00 832.10,35.00 833.30,35.00 834.51,35.00 835.70,35.00 836.92,35.00 838.12,35.00 839.32,35.00 840.53,35.00 841.73,35.00 842.94,35.00 844.14,35.00 845.33,35.00 846.54,35.00 847.74,35.00 848.96,35.00 850.17,35.00 851.38,35.00 852.58,35.00 853.77,35.00 854.96,35.00 856.16,35.00 857.36,35.00 858.56,35.00 859.76,35.00 860.96,35.00 862.15,35.00 863.36,35.00 864.56,35.00 865.76,35.00 866.96,35.00 868.17,35.00 869.37,35.00 870.57,35.00 871.77,35.00 872.97,35.00 874.16,35.00 875.35,35.00 876.55,35.00 877.75,35.00 878.96,35.00 880.16,35.00 881.37,35.00 882.56,35.00 883.77,35.00 884.98,35.00 886.17,35.00 887.38,35.00 888.59,35.00 889.79,35.00 890.99,35.00 892.19,35.00 893.40,35.00 894.61,35.00 895.81,35.00 897.03,35.00 898.24,35.00 899.45,35.00 900.65,35.00 901.84,35.00 903.05,35.00 904.26,35.00 905.47,35.00 906.67,35.00 907.87,35.00 909.07,35.00 910.25,35.00 911.49,35.00 912.68,35.00 913.89,35.00 915.09,35.00 916.28,35.00 917.48,35.00 918.66,35.00 919.86,35.00 921.06,35.00 922.26,35.00 923.47,35.00 924.66,35.00 925.86,35.00 927.06,35.00 928.30,35.00 929.50,35.00 930.69,35.00 931.90,35.00 933.09,35.00 934.29,35.00 935.48,35.00 936.70,35.00 937.89,35.00 939.09,35.00 940.30,35.00 941.50,35.00 942.70,35.00 943.90,35.00 945.11,35.00 946.35,35.00 947.56,35.00 948.76,35.00 949.97,35.00 951.17,35.00 952.38,35.00 953.57,35.00 954.77,35.00 955.96,35.00 957.17,35.00 958.37,35.00 959.58,35.00 960.79,35.00 962.00,35.00 963.25,35.00 964.45,35.00 965.64,35.00 966.85,35.00 968.05,35.00 969.25,35.00 970.46,35.00 971.68,35.00 972.88,35.00 974.10,35.00 975.29,35.00 976.50,35.00 977.71,35.00 978.91,35.00 980.11,35.00 981.31,35.00 982.51,35.00 983.72,35.00 984.93,35.00 986.13,35.00 987.33,35.00 988.54,35.00 989.75,35.00 990.94,35.00 992.15,35.00 993.36,35.00 994.60,35.00 995.80,35.00 997.02,35.00 998.22,35.00 999.45,35.00 1000.68,35.00 1001.90,35.00 1003.12,35.00 1004.36,35.00 1005.57,35.00 1006.77,35.00 1007.97,35.00 1009.18,35.00 1010.38,35.00 1011.59,35.00 1012.82,35.00 1014.02,35.00 1015.23,35.00 1016.43,35.00 1017.62,35.00 1018.82,35.00 1020.03,35.00 1021.23,35.00 1022.43,35.00 1023.62,35.00 1024.82,35.00 1026.02,35.00 1027.20,35.00 1028.40,35.00 1029.61,35.00 1030.82,35.00 1032.01,35.00 1033.23,35.00 1034.44,35.00 1035.63,35.00 1036.84,35.00 1038.04,35.00 1039.24,35.00 1040.44,35.00 1041.64,35.00 1042.84,35.00 1044.05,35.00 1045.24,35.00 1046.42,35.00 1047.62,35.00 1048.82,35.00 1050.03,35.00 1051.23,35.00 1052.43,35.00 1053.63,35.00 1054.83,35.00 1056.02,35.00 1057.23,35.00 1058.43,35.00 1059.61,35.00 1060.80,35.00 1061.98,35.00 1063.18,35.00 1064.38,35.00 1065.61,35.00 1066.80,35.00 1068.00,35.00 1069.21,35.00 1070.43,35.00 1071.64,35.00 1072.83,35.00 1074.05,35.00 1075.25,35.00 1076.44,35.00 1077.66,35.00 1078.86,35.00 1080.07,35.00 1081.29,35.00 1082.48,35.00 1083.67,35.00 1084.87,35.00 1086.07,35.00 1087.27,35.00 1088.47,35.00 1089.65,35.00 1090.85,35.00 1092.06,35.00 1093.26,35.00 1094.45,35.00 1095.65,35.00 1096.85,35.00 1098.05,35.00 1099.26,35.00 1100.47,35.00 1101.66,35.00 1102.86,35.00 1104.06,35.00 1105.28,35.00 1106.47,35.00 1107.67,35.00 1108.88,35.00 1110.07,35.00 1111.27,35.00 1112.48,35.00 1113.69,35.00 1114.88,35.00 1116.07,35.00 1117.27,35.00 1118.51,35.00 1119.71,35.00 1120.94,35.00 1122.16,35.00 1123.36,35.00 1124.56,35.00 1125.77,35.00 1126.97,35.00 1128.18,35.00 1129.37,35.00 1130.58,35.00 1131.81,35.00 1133.02,35.00 1134.21,35.00 1135.42,35.00 1136.62,35.00 1137.83,35.00 1139.03,35.00 1140.22,35.00 1141.42,35.00 1142.62,35.00 1143.82,35.00 1145.02,35.00 1146.22,35.00 1147.43,35.00 1148.61,35.00 1149.81,35.00 1151.01,35.00 1152.21,35.00 1153.40,35.00 1154.63,35.00 1155.82,35.00 1157.02,35.00 1158.22,35.00 1159.42,35.00 1160.61,35.00 1161.82,35.00 1163.02,35.00 1164.24,35.00 1165.44,35.00 1166.63,35.00 1167.82,35.00 1169.03,35.00 1170.23,35.00 1171.42,35.00 1172.64,35.00 1173.87,35.00 1175.09,35.00 1176.32,35.00 1177.54,35.00 1178.77,35.00 1180.00,35.00"/>
<polyline fill="none" stroke="#ff7f0e" stroke-opacity="0.80" stroke-width="2" points="70.00,35.00 71.20,35.00 72.40,35.00 73.59,35.00 74.79,35.00 76.00,35.00 77.18,35.00 78.38,35.00 79.68,35.00 80.87,35.00 82.05,35.00 83.24,35.00 84.46,35.00 85.65,35.00 86.84,35.00 88.99,35.00 90.84,35.00 92.05,35.00 93.27,35.00 94.47,35.00 95.66,35.00 96.83,35.00 98.04,35.00 99.23,35.00 100.43,35.00 101.64,35.00 102.86,35.00 104.06,35.00 105.26,35.00 106.51,35.00 107.72,35.00 108.91,35.00 110.14,35.00 111.33,35.00 112.53,35.00 113.76,35.00 114.95,35.00 116.14,35.00 117.36,35.00 118.54,35.00 119.74,35.00 120.92,35.00 122.11,35.00 123.31,35.00 124.50,35.00 125.72,35.00 126.93,35.00 128.11,35.00 129.30,35.00 130.51,35.00 131.71,35.00 133.07,35.00 134.27,35.00 135.46,35.00 136.65,35.00 137.84,35.00 139.02,35.00 140.21,35.00 141.41,35.00 142.60,35.00 143.82,35.00 145.01,35.00 146.19,35.00 147.40,35.00 148.61,35.00 149.80,35.00 151.00,35.00 152.18,35.00 153.37,35.00 154.56,35.00 155.74,35.00 156.93,35.00 158.13,35.00 159.32,35.00 160.51,35.00 161.71,35.00 162.89,35.00 164.10,35.00 165.28,35.00 166.47,35.00 167.70,35.00 168.89,35.00 170.08,35.00 171.28,35.00 172.47,35.00 173.67,35.00 174.87,35.00 176.05,35.00 177.23,35.00 178.44,35.00 179.64,35.00 180.83,35.00 182.04,35.00 183.22,35.00 184.42,35.00 185.60,35.00 186.80,35.00 187.98,35.00 189.18,35.00 190.36,35.00 191.57,35.00 192.76,35.00 193.96,35.00 195.16,35.00 196.37,35.00 197.57,35.00 198.76,35.00 199.95,35.00 201.14,35.00 202.33,35.00 203.54,35.00 204.74,35.00 205.93,35.00 207.12,35.00 208.32,35.00 209.52,35.00 210.72,35.00 211.94,35.00 213.13,35.00 214.32,35.00 215.52,35.00 216.71,35.00 217.90,35.00 219.11,35.00 220.40,35.00 221.59,35.00 222.80,35.00 224.00,35.00 225.18,35.00 226.37,35.00 227.54,35.00 228.73,35.00 229.93,35.00 231.12,35.00 232.31,35.00 233.50,35.00 234.70,35.00 235.88,35.00 237.10,35.00 238.29,35.00 239.48,35.00 240.67,35.00 241.86,35.00 243.05,35.00 244.25,35.00 245.45,35.00 246.65,35.00 247.85,35.00 249.04,35.00 250.22,35.00 251.41,35.00 252.60,35.00 253.80,35.00 255.00,35.00 256.20,35.00 257.40,35.00 258.59,35.00 259.80,35.00 261.00,35.00 262.18,35.00 263.38,35.00 264.58,35.00 265.79,35.00 267.00,35.00 268.19,35.00 269.39,35.00 270.58,35.00 271.76,35.00 272.95,35.00 274.15,35.00 275.34,35.00 276.52,35.00 277.71,35.00 278.92,35.00 280.11,35.00 281.31,35.00 282.50,35.00 283.73,35.00 284.92,35.00 286.11,35.00 287.30,35.00 288.48,35.00 289.78,35.00 291.01,35.00 292.19,35.00 293.38,35.00 294.56,35.00 295.76,35.00 296.95,35.00 298.15,35.00 299.35,35.00 300.54,35.00 301.73,35.00 302.92,35.00 304.15,35.00 305.34,35.00 306.52,35.00 307.72,35.00 308.92,35.00 310.14,35.00 311.36,35.00 312.55,35.00 313.74,35.00 314.94,35.00 316.13,35.00 317.33,35.00 318.53,35.00 319.74,35.00 320.93,35.00 322.11,35.00 323.32,35.00 324.51,35.00 325.71,35.00 326.90,35.00 328.11,35.00 329.31,35.00 330.50,35.00 331.68,35.00 332.87,35.00 334.07,35.00 335.26,35.00 336.45,35.00 337.64,35.00 338.82,35.00 340.02,35.00 341.22,35.00 342.42,35.00 343.62,35.00 344.83,35.00 346.02,35.00 347.23,35.00 348.41,35.00 349.61,35.00 350.81,35.00 352.00,35.00 353.20,35.00 354.42,35.00 355.62,35.00 356.82,35.00 358.01,35.00 359.20,35.00 360.40,35.00 361.58,35.00 362.78,35.00 363.98,35.00 365.18,35.00 366.37,35.00 367.57,35.00 368.77,35.00 369.96,35.00 371.16,35.00 372.36,35.00 373.57,35.00 374.76,35.00 375.95,35.00 377.16,35.00 378.36,35.00 379.56,35.00 380.76,35.00 381.95,35.00 383.27,35.00 384.48,35.00 385.67,35.00 386.87,35.00 388.08,35.00 389.28,35.00 390.47,35.00 391.67,35.00 392.86,35.00 394.09,35.00 395.30,35.00 396.49,35.00 397.68,35.00 398.88,35.00 400.07,35.00 401.27,35.00 402.51,35.00 403.70,35.00 404.90,35.00 406.11,35.00 407.40,35.00 408.59,35.00 410.10,35.00 412.12,35.00 413.34,35.00 414.56,35.00 415.75,35.00 416.92,35.00 418.11,35.00 419.33,35.00 420.53,35.00 421.73,35.00 422.98,35.00 424.21,35.00 425.48,35.00 426.68,35.00 427.88,35.00 429.07,35.00 430.28,35.00 431.49,35.00 432.70,35.00 433.89,35.00 435.08,35.00 436.33,35.00 437.53,35.00 438.71,35.00 439.91,35.00 441.13,35.00 442.37,35.00 443.57,35.00 444.77,35.00 446.00,35.00 447.14,35.00 448.33,35.00 449.55,35.00 450.74,35.00 451.95,35.00 453.18,35.00 454.38,35.00 455.58,35.00 456.79,35.00 457.99,35.00 459.19,35.00 460.38,35.00 461.57,35.00 462.77,35.00 463.97,35.00 465.16,35.00 466.58,35.00 467.99,35.00 469.40,35.00 470.79,35.00 472.16,35.00 473.54,35.00 474.95,35.00 476.34,35.00 477.54,35.00 478.72,35.00 479.92,35.00 481.11,35.00 482.31,35.00 483.49,35.00 484.68,35.00 485.87,35.00 487.06,35.00 488.26,35.00 489.45,35.00 490.64,35.00 491.83,35.00 493.02,35.00 494.21,35.00 495.40,35.00 496.59,35.00 497.77,35.00 498.97,35.00 500.18,35.00 501.36,35.00 502.54,35.00 503.73,35.00 504.93,35.00 506.12,35.00 507.32,35.00 508.51,35.00 509.70,35.00 510.90,35.00 512.09,35.00 513.28,35.00 514.47,35.00 515.66,35.00 516.85,35.00 518.03,35.00 519.21,35.00 520.40,35.00 521.59,35.00 522.77,35.00 523.96,35.00 525.15,35.00 526.34,35.00 527.52,35.00 528.70,35.00 529.88,35.00 531.11,35.00 532.40,35.00 533.60,35.00 534.79,35.00 535.98,35.00 537.17,35.00 538.35,35.00 539.54,35.00 540.72,35.00 542.14,35.00 543.54,35.00 544.92,35.00 546.32,35.00 547.73,35.00 549.12,35.00 550.55,35.00 552.00,35.00 553.30,35.00 554.58,35.00 555.78,35.00 556.99,35.00 558.18,35.00 559.36,35.00 560.55,35.00 561.75,35.00 562.94,35.00 564.13,35.00 565.31,35.00 566.51,35.00 567.71,35.00 568.90,35.00 570.11,35.00 571.30,35.00 572.48,35.00 573.53,35.00 574.76,35.00 575.95,35.00 577.18,35.00 578.37,35.00 579.56,35.00 580.76,35.00 581.96,35.00 583.16,35.00 584.37,35.00 585.57,35.00 586.79,35.00 587.97,35.00 589.16,35.00 590.35,35.00 591.53,35.00 592.72,35.00 593.91,35.00 595.11,35.00 596.30,35.00 597.50,35.00 598.69,35.00 599.88,35.00 601.08,35.00 602.27,35.00 603.47,35.00 604.68,35.00 605.87,35.00 607.06,35.00 608.26,35.00 609.46,35.00 610.69,35.00 611.88,35.00 613.06,35.00 614.26,35.00 615.44,35.00 616.63,35.00 617.83,35.00 619.02,35.00 620.21,35.00 621.40,35.00 622.59,35.00 623.78,35.00 624.98,35.00 626.19,35.00 627.38,35.00 628.82,35.00 630.04,35.00 631.27,35.00 632.47,35.00 633.67,35.00 634.88,35.00 636.06,35.00 637.25,35.00 638.46,35.00 639.66,35.00 640.85,35.00 642.05,35.00 643.25,35.00 644.44,35.00 645.68,35.00 646.89,35.00 648.09,35.00 649.29,35.00 650.48,35.00 651.67,35.00 652.86,35.00 654.06,35.00 655.30,35.00 656.50,35.00 657.71,35.00 658.90,35.00 660.09,35.00 661.30,35.00 662.48,35.00 663.68,35.00 664.88,35.00 666.08,35.00 667.28,35.00 668.48,35.00 669.67,35.00 670.86,35.00 672.05,35.00 673.27,35.00 674.47,35.00 675.66,35.00 676.85,35.00 678.04,35.00 679.26,35.00 680.46,35.00 681.89,35.00 683.12,35.00 684.32,35.00 685.51,35.00 686.70,35.00 687.90,35.00 689.10,35.00 690.30,35.00 691.52,35.00 692.71,35.00 693.90,35.00 695.09,35.00 696.28,35.00 697.48,35.00 698.67,35.00 699.87,35.00 701.06,35.00 702.25,35.00 703.44,35.00 704.63,35.00 705.85,35.00 707.03,35.00 708.22,35.00 709.43,35.00 710.64,35.00 711.83,35.00 713.02,35.00 714.22,35.00 715.45,35.00 716.64,35.00 717.84,35.00 719.04,35.00 720.24,35.00 721.43,35.00 722.63,35.00 723.83,35.00 725.05,35.00 726.24,35.00 727.44,35.00 728.62,35.00 729.81,35.00 731.01,35.00 732.20,35.00 733.39,35.00 734.60,35.00 735.81,35.00 737.02,35.00 738.19,35.00 739.40,35.00 740.58,35.00 741.78,35.00 742.97,35.00 744.17,35.00 745.36,35.00 746.57,35.00 747.77,35.00 748.96,35.00 750.17,35.00 751.37,35.00 752.57,35.00 753.77,35.00 754.98,35.00 756.32,35.00 757.63,35.00 758.91,35.00 760.12,35.00 761.37,35.00 762.57,35.00 763.77,35.00 764.95,35.00 766.07,35.00 767.32,35.00 768.51,35.00 769.72,35.00 770.90,35.00 772.10,35.00 773.29,35.00 774.50,35.00 775.69,35.00 776.89,35.00 778.08,35.00 779.28,35.00 780.48,35.00 781.68,35.00 782.89,35.00 784.10,35.00 785.30,35.00 786.50,35.00 787.69,35.00 788.91,35.00 790.11,35.00 791.30,35.00 792.49,35.00 793.69,35.00 794.88,35.00 796.08,35.00 797.28,35.00 798.47,35.00 799.69,35.00 800.87,35.00 802.06,35.00 803.26,35.00 804.46,35.00 805.67,35.00 806.87,35.00 808.06,35.00 809.26,35.00 810.46,35.00 811.66,35.00 812.87,35.00 814.07,35.00 815.27,35.00 816.47,35.00 817.67,35.00 818.87,35.00 820.08,35.00 821.31,35.00 822.51,35.00 823.71,35.00 824.91,35.00 826.11,35.00 827.30,35.00 828.50,35.00 829.71,35.00 830.91,35.00 832.10,35.00 833.30,35.00 834.51,35.00 835.70,35.00 836.92,35.00 838.12,35.00 839.32,35.00 840.53,35.00 841.73,35.00 842.94,35.00 844.14,35.00 845.33,35.00 846.54,35.00 847.74,35.00 848.96,35.00 850.17,35.00 851.38,35.00 852.58,35.00 853.77,35.00 854.96,35.00 856.16,35.00 857.36,35.00 858.56,35.00 859.76,35.00 860.96,35.00 862.15,35.00 863.36,35.00 864.56,35.00 865.76,35.00 866.96,35.00 868.17,35.00 869.37,35.00 870.57,35.00 871.77,35.00 872.97,35.00 874.16,35.00 875.35,35.00 876.55,35.00 877.75,35.00 878.96,35.00 880.16,35.00 881.37,35.00 882.56,35.00 883.77,35.00 884.98,35.00 886.17,35.00 887.38,35.00 888.59,35.00 889.79,35.00 890.99,35.00 892.19,35.00 893.40,35.00 894.61,35.00 895.81,35.00 897.03,35.00 898.24,35.00 899.45,35.00 900.65,35.00 901.84,35.00 903.05,35.00 904.26,35.00 905.47,35.00 906.67,35.00 907.87,35.00 909.07,35.00 910.25,35.00 911.49,35.00 912.68,35.00 913.89,35.00 915.09,35.00 916.28,35.00 917.48,35.00 918.66,35.00 919.86,35.00 921.06,35.00 922.26,35.00 923.47,35.00 924.66,35.00 925.86,35.00 927.06,35.00 928.30,35.00 929.50,35.00 930.69,35.00 931.90,35.00 933.09,35.00 934.29,35.00 935.48,35.00 936.70,35.00 937.89,35.00 939.09,35.00 940.30,35.00 941.50,35.00 942.70,35.00 943.90,35.00 945.11,35.00 946.35,35.00 947.56,35.00 948.76,35.00 949.97,35.00 951.17,35.00 952.38,35.00 953.57,35.00 954.77,35.00 955.96,35.00 957.17,35.00 958.37,35.00 959.58,35.00 960.79,35.00 962.00,35.00 963.25,35.00 964.45,35.00 965.64,35.00 966.85,35.00 968.05,35.00 969.25,35.00 970.46,35.00 971.68,35.00 972.88,35.00 974.10,35.00 975.29,35.00 976.50,35.00 977.71,35.00 978.91,35.00 980.11,35.00 981.31,35.00 982.51,35.00 983.72,35.00 984.93,35.00 986.13,35.00 987.33,35.00 988.54,35.00 989.75,35.00 990.94,35.00 992.15,35.00 993.36,35.00 994.60,35.00 995.80,35.00 997.02,35.00 998.22,35.00 999.45,35.00 1000.68,35.00 1001.90,35.00 1003.12,35.00 1004.36,35.00 1005.57,35.00 1006.77,35.00 1007.97,35.00 1009.18,35.00 1010.38,35.00 1011.59,35.00 1012.82,35.00 1014.02,35.00 1015.23,35.00 1016.43,35.00 1017.62,35.00 1018.82,35.00 1020.03,35.00 1021.23,35.00 1022.43,35.00 1023.62,35.00 1024.82,35.00 1026.02,35.00 1027.20,35.00 1028.40,35.00 1029.61,35.00 1030.82,35.00 1032.01,35.00 1033.23,35.00 1034.44,35.00 1035.63,35.00 1036.84,35.00 1038.04,35.00 1039.24,35.00 1040.44,35.00 1041.64,35.00 1042.84,35.00 1044.05,35.00 1045.24,35.00 1046.42,35.00 1047.62,35.00 1048.82,35.00 1050.03,35.00 1051.23,35.00 1052.43,35.00 1053.63,35.00 1054.83,35.00 1056.02,35.00 1057.23,35.00 1058.43,35.00 1059.61,35.00 1060.80,35.00 1061.98,35.00 1063.18,35.00 1064.38,35.00 1065.61,35.00 1066.80,35.00 1068.00,35.00 1069.21,35.00 1070.43,35.00 1071.64,35.00 1072.83,35.00 1074.05,35.00 1075.25,35.00 1076.44,35.00 1077.66,35.00 1078.86,35.00 1080.07,35.00 1081.29,35.00 1082.48,35.00 1083.67,35.00 1084.87,35.00 1086.07,35.00 1087.27,35.00 1088.47,35.00 1089.65,35.00 1090.85,35.00 1092.06,35.00 1093.26,35.00 1094.45,35.00 1095.65,35.00 1096.85,35.00 1098.05,35.00 1099.26,35.00 1100.47,35.00 1101.66,35.00 1102.86,35.00 1104.06,35.00 1105.28,35.00 1106.47,35.00 1107.67,35.00 1108.88,35.00 1110.07,35.00 1111.27,35.00 1112.48,35.00 1113.69,35.00 1114.88,35.00 1116.07,35.00 1117.27,35.00 1118.51,35.00 1119.71,35.00 1120.94,35.00 1122.16,35.00 1123.36,35.00 1124.56,35.00 1125.77,35.00 1126.97,35.00 1128.18,35.00 1129.37,35.00 1130.58,35.00 1131.81,35.00 1133.02,35.00 1134.21,35.00 1135.42,35.00 1136.62,35.00 1137.83,35.00 1139.03,35.00 1140.22,35.00 1141.42,35.00 1142.62,35.00 1143.82,35.00 1145.02,35.00 1146.22,35.00 1147.43,35.00 1148.61,35.00 1149.81,35.00 1151.01,35.00 1152.21,35.00 1153.40,35.00 1154.63,35.00 1155.82,35.00 1157.02,35.00 1158.22,35.00 1159.42,35.00 1160.61,35.00 1161.82,35.00 1163.02,35.00 1164.24,35.00 1165.44,35.00 1166.63,35.00 1167.82,35.00 1169.03,35.00 1170.23,35.00 1171.42,35.00 1172.64,35.00 1173.87,35.00 1175.09,35.00 1176.32,35.00 1177.54,35.00 1178.77,35.00 1180.00,35.00"/>
<polyline fill="none" stroke="#ff7f0e" stroke-opacity="0.65" stroke-width="2" points="70.00,305.00 71.20,305.00 72.40,305.00 73.59,305.00 74.79,305.00 76.00,305.00 77.18,305.00 78.38,305.00 79.68,305.00 80.87,305.00 82.05,305.00 83.24,305.00 84.46,305.00 85.65,305.00 86.84,305.00 88.99,305.00 90.84,305.00 92.05,305.00 93.27,305.00 94.47,305.00 95.66,305.00 96.83,305.00 98.04,305.00 99.23,305.00 100.43,305.00 101.64,305.00 102.86,305.00 104.06,305.00 105.26,305.00 106.51,305.00 107.72,305.00 108.91,305.00 110.14,305.00 111.33,305.00 112.53,305.00 113.76,305.00 114.95,305.00 116.14,305.00 117.36,305.00 118.54,305.00 119.74,305.00 120.92,305.00 122.11,305.00 123.31,305.00 124.50,305.00 125.72,305.00 126.93,305.00 128.11,305.00 129.30,305.00 130.51,305.00 131.71,305.00 133.07,305.00 134.27,305.00 135.46,305.00 136.65,305.00 137.84,305.00 139.02,305.00 140.21,305.00 141.41,305.00 142.60,305.00 143.82,305.00 145.01,305.00 146.19,305.00 147.40,305.00 148.61,305.00 149.80,305.00 151.00,305.00 152.18,305.00 153.37,305.00 154.56,305.00 155.74,305.00 156.93,305.00 158.13,305.00 159.32,305.00 160.51,305.00 161.71,305.00 162.89,305.00 164.10,305.00 165.28,305.00 166.47,305.00 167.70,305.00 168.89,305.00 170.08,305.00 171.28,305.00 172.47,305.00 173.67,305.00 174.87,305.00 176.05,305.00 177.23,305.00 178.44,305.00 179.64,305.00 180.83,305.00 182.04,305.00 183.22,305.00 184.42,305.00 185.60,305.00 186.80,305.00 187.98,305.00 189.18,305.00 190.36,305.00 191.57,305.00 192.76,305.00 193.96,305.00 195.16,305.00 196.37,305.00 197.57,305.00 198.76,305.00 199.95,305.00 201.14,305.00 202.33,305.00 203.54,305.00 204.74,305.00 205.93,305.00 207.12,305.00 208.32,305.00 209.52,305.00 210.72,305.00 211.94,305.00 213.13,305.00 214.32,305.00 215.52,305.00 216.71,305.00 217.90,305.00 219.11,305.00 220.40,305.00 221.59,305.00 222.80,305.00 224.00,305.00 225.18,305.00 226.37,305.00 227.54,305.00 228.73,305.00 229.93,305.00 231.12,305.00 232.31,305.00 233.50,305.00 234.70,305.00 235.88,305.00 237.10,305.00 238.29,305.00 239.48,305.00 240.67,305.00 241.86,305.00 243.05,305.00 244.25,305.00 245.45,305.00 246.65,305.00 247.85,305.00 249.04,305.00 250.22,305.00 251.41,305.00 252.60,305.00 253.80,305.00 255.00,305.00 256.20,305.00 257.40,305.00 258.59,305.00 259.80,305.00 261.00,305.00 262.18,305.00 263.38,305.00 264.58,305.00 265.79,305.00 267.00,305.00 268.19,305.00 269.39,305.00 270.58,305.00 271.76,305.00 272.95,305.00 274.15,305.00 275.34,305.00 276.52,305.00 277.71,305.00 278.92,305.00 280.11,305.00 281.31,305.00 282.50,305.00 283.73,305.00 284.92,305.00 286.11,305.00 287.30,305.00 288.48,305.00 289.78,305.00 291.01,305.00 292.19,305.00 293.38,305.00 294.56,305.00 295.76,305.00 296.95,305.00 298.15,305.00 299.35,305.00 300.54,305.00 301.73,305.00 302.92,305.00 304.15,305.00 305.34,305.00 306.52,305.00 307.72,305.00 308.92,305.00 310.14,305.00 311.36,305.00 312.55,305.00 313.74,305.00 314.94,305.00 316.13,305.00 317.33,305.00 318.53,305.00 319.74,305.00 320.93,305.00 322.11,305.00 323.32,305.00 324.51,305.00 325.71,305.00 326.90,305.00 328.11,305.00 329.31,305.00 330.50,305.00 331.68,305.00 332.87,305.00 334.07,305.00 335.26,305.00 336.45,305.00 337.64,305.00 338.82,305.00 340.02,305.00 341.22,305.00 342.42,305.00 343.62,305.00 344.83,305.00 346.02,305.00 347.23,305.00 348.41,305.00 349.61,305.00 350.81,305.00 352.00,305.00 353.20,305.00 354.42,305.00 355.62,305.00 356.82,305.00 358.01,305.00 359.20,305.00 360.40,305.00 361.58,305.00 362.78,305.00 363.98,305.00 365.18,305.00 366.37,305.00 367.57,305.00 368.77,305.00 369.96,305.00 371.16,305.00 372.36,305.00 373.57,305.00 374.76,305.00 375.95,305.00 377.16,305.00 378.36,305.00 379.56,305.00 380.76,305.00 381.95,305.00 383.27,305.00 384.48,305.00 385.67,305.00 386.87,305.00 388.08,305.00 389.28,305.00 390.47,305.00 391.67,305.00 392.86,305.00 394.09,305.00 395.30,305.00 396.49,305.00 397.68,305.00 398.88,305.00 400.07,305.00 401.27,305.00 402.51,305.00 403.70,305.00 404.90,305.00 406.11,305.00 407.40,305.00 408.59,305.00 410.10,305.00 412.12,305.00 413.34,305.00 414.56,305.00 415.75,305.00 416.92,305.00 418.11,305.00 419.33,305.00 420.53,305.00 421.73,305.00 422.98,305.00 424.21,305.00 425.48,305.00 426.68,305.00 427.88,305.00 429.07,305.00 430.28,305.00 431.49,305.00 432.70,305.00 433.89,305.00 435.08,305.00 436.33,305.00 437.53,305.00 438.71,305.00 439.91,305.00 441.13,305.00 442.37,305.00 443.57,305.00 444.77,305.00 446.00,305.00 447.14,305.00 448.33,305.00 449.55,305.00 450.74,305.00 451.95,305.00 453.18,305.00 454.38,305.00 455.58,305.00 456.79,305.00 457.99,305.00 459.19,305.00 460.38,305.00 461.57,305.00 462.77,305.00 463.97,305.00 465.16,305.00 466.58,305.00 467.99,305.00 469.40,305.00 470.79,305.00 472.16,305.00 473.54,305.00 474.95,305.00 476.34,305.00 477.54,305.00 478.72,305.00 479.92,305.00 481.11,305.00 482.31,305.00 483.49,305.00 484.68,305.00 485.87,305.00 487.06,305.00 488.26,305.00 489.45,305.00 490.64,305.00 491.83,305.00 493.02,305.00 494.21,305.00 495.40,305.00 496.59,305.00 497.77,305.00 498.97,305.00 500.18,305.00 501.36,305.00 502.54,305.00 503.73,305.00 504.93,305.00 506.12,305.00 507.32,305.00 508.51,305.00 509.70,305.00 510.90,305.00 512.09,305.00 513.28,305.00 514.47,305.00 515.66,305.00 516.85,305.00 518.03,305.00 519.21,305.00 520.40,305.00 521.59,305.00 522.77,305.00 523.96,305.00 525.15,305.00 526.34,305.00 527.52,305.00 528.70,305.00 529.88,305.00 531.11,305.00 532.40,305.00 533.60,305.00 534.79,305.00 535.98,305.00 537.17,305.00 538.35,305.00 539.54,305.00 540.72,305.00 542.14,305.00 543.54,305.00 544.92,305.00 546.32,305.00 547.73,305.00 549.12,305.00 550.55,305.00 552.00,305.00 553.30,305.00 554.58,305.00 555.78,305.00 556.99,305.00 558.18,305.00 559.36,305.00 560.55,305.00 561.75,305.00 562.94,305.00 564.13,305.00 565.31,305.00 566.51,305.00 567.71,305.00 568.90,305.00 570.11,305.00 571.30,305.00 572.48,305.00 573.53,35.00 574.76,35.00 575.95,35.00 577.18,35.00 578.37,35.00 579.56,35.00 580.76,35.00 581.96,35.00 583.16,35.00 584.37,35.00 585.57,35.00 586.79,35.00 587.97,35.00 589.16,35.00 590.35,35.00 591.53,35.00 592.72,35.00 593.91,35.00 595.11,35.00 596.30,35.00 597.50,35.00 598.69,35.00 599.88,35.00 601.08,35.00 602.27,35.00 603.47,35.00 604.68,35.00 605.87,35.00 607.06,35.00 608.26,35.00 609.46,35.00 610.69,35.00 611.88,35.00 613.06,35.00 614.26,35.00 615.44,35.00 616.63,35.00 617.83,35.00 619.02,35.00 620.21,35.00 621.40,35.00 622.59,35.00 623.78,35.00 624.98,35.00 626.19,35.00 627.38,35.00 628.82,35.00 630.04,35.00 631.27,35.00 632.47,35.00 633.67,35.00 634.88,35.00 636.06,35.00 637.25,35.00 638.46,35.00 639.66,35.00 640.85,35.00 642.05,35.00 643.25,35.00 644.44,35.00 645.68,35.00 646.89,35.00 648.09,35.00 649.29,35.00 650.48,35.00 651.67,35.00 652.86,35.00 654.06,35.00 655.30,35.00 656.50,35.00 657.71,35.00 658.90,35.00 660.09,35.00 661.30,35.00 662.48,35.00 663.68,35.00 664.88,35.00 666.08,35.00 667.28,35.00 668.48,35.00 669.67,35.00 670.86,35.00 672.05,35.00 673.27,35.00 674.47,35.00 675.66,35.00 676.85,35.00 678.04,35.00 679.26,35.00 680.46,35.00 681.89,35.00 683.12,35.00 684.32,35.00 685.51,35.00 686.70,35.00 687.90,35.00 689.10,35.00 690.30,35.00 691.52,35.00 692.71,35.00 693.90,35.00 695.09,35.00 696.28,35.00 697.48,35.00 698.67,35.00 699.87,35.00 701.06,35.00 702.25,35.00 703.44,35.00 704.63,35.00 705.85,35.00 707.03,35.00 708.22,35.00 709.43,35.00 710.64,35.00 711.83,35.00 713.02,35.00 714.22,35.00 715.45,35.00 716.64,35.00 717.84,35.00 719.04,35.00 720.24,35.00 721.43,35.00 722.63,35.00 723.83,35.00 725.05,35.00 726.24,35.00 727.44,35.00 728.62,35.00 729.81,35.00 731.01,35.00 732.20,35.00 733.39,35.00 734.60,35.00 735.81,35.00 737.02,35.00 738.19,35.00 739.40,35.00 740.58,35.00 741.78,35.00 742.97,35.00 744.17,35.00 745.36,35.00 746.57,35.00 747.77,35.00 748.96,35.00 750.17,35.00 751.37,35.00 752.57,35.00 753.77,35.00 754.98,35.00 756.32,35.00 757.63,35.00 758.91,35.00 760.12,35.00 761.37,35.00 762.57,35.00 763.77,35.00 764.95,35.00 766.07,35.00 767.32,35.00 768.51,35.00 769.72,35.00 770.90,35.00 772.10,35.00 773.29,35.00 774.50,35.00 775.69,35.00 776.89,35.00 778.08,35.00 779.28,35.00 780.48,35.00 781.68,35.00 782.89,35.00 784.10,35.00 785.30,35.00 786.50,35.00 787.69,35.00 788.91,35.00 790.11,35.00 791.30,35.00 792.49,35.00 793.69,35.00 794.88,35.00 796.08,35.00 797.28,35.00 798.47,35.00 799.69,35.00 800.87,35.00 802.06,35.00 803.26,35.00 804.46,35.00 805.67,35.00 806.87,35.00 808.06,35.00 809.26,35.00 810.46,35.00 811.66,35.00 812.87,35.00 814.07,35.00 815.27,35.00 816.47,35.00 817.67,35.00 818.87,35.00 820.08,35.00 821.31,35.00 822.51,35.00 823.71,35.00 824.91,35.00 826.11,35.00 827.30,35.00 828.50,35.00 829.71,35.00 830.91,35.00 832.10,35.00 833.30,35.00 834.51,35.00 835.70,35.00 836.92,35.00 838.12,35.00 839.32,35.00 840.53,35.00 841.73,35.00 842.94,35.00 844.14,35.00 845.33,35.00 846.54,35.00 847.74,35.00 848.96,35.00 850.17,35.00 851.38,35.00 852.58,35.00 853.77,35.00 854.96,35.00 856.16,35.00 857.36,35.00 858.56,35.00 859.76,35.00 860.96,35.00 862.15,35.00 863.36,35.00 864.56,35.00 865.76,35.00 866.96,35.00 868.17,35.00 869.37,35.00 870.57,35.00 871.77,35.00 872.97,35.00 874.16,35.00 875.35,35.00 876.55,35.00 877.75,35.00 878.96,35.00 880.16,35.00 881.37,35.00 882.56,35.00 883.77,35.00 884.98,35.00 886.17,35.00 887.38,35.00 888.59,35.00 889.79,35.00 890.99,35.00 892.19,35.00 893.40,35.00 894.61,35.00 895.81,35.00 897.03,35.00 898.24,35.00 899.45,35.00 900.65,35.00 901.84,35.00 903.05,35.00 904.26,35.00 905.47,35.00 906.67,35.00 907.87,35.00 909.07,35.00 910.25,35.00 911.49,35.00 912.68,35.00 913.89,35.00 915.09,35.00 916.28,35.00 917.48,35.00 918.66,35.00 919.86,35.00 921.06,35.00 922.26,35.00 923.47,35.00 924.66,35.00 925.86,35.00 927.06,35.00 928.30,35.00 929.50,35.00 930.69,35.00 931.90,35.00 933.09,35.00 934.29,35.00 935.48,35.00 936.70,35.00 937.89,35.00 939.09,35.00 940.30,35.00 941.50,35.00 942.70,35.00 943.90,35.00 945.11,35.00 946.35,35.00 947.56,35.00 948.76,35.00 949.97,35.00 951.17,35.00 952.38,35.00 953.57,35.00 954.77,35.00 955.96,35.00 957.17,35.00 958.37,35.00 959.58,35.00 960.79,35.00 962.00,35.00 963.25,35.00 964.45,35.00 965.64,35.00 966.85,35.00 968.05,35.00 969.25,35.00 970.46,35.00 971.68,35.00 972.88,35.00 974.10,35.00 975.29,35.00 976.50,35.00 977.71,35.00 978.91,35.00 980.11,35.00 981.31,35.00 982.51,35.00 983.72,35.00 984.93,35.00 986.13,35.00 987.33,35.00 988.54,35.00 989.75,35.00 990.94,35.00 992.15,35.00 993.36,35.00 994.60,35.00 995.80,35.00 997.02,35.00 998.22,35.00 999.45,35.00 1000.68,35.00 1001.90,35.00 1003.12,35.00 1004.36,35.00 1005.57,35.00 1006.77,35.00 1007.97,35.00 1009.18,35.00 1010.38,35.00 1011.59,35.00 1012.82,35.00 1014.02,35.00 1015.23,35.00 1016.43,35.00 1017.62,35.00 1018.82,35.00 1020.03,35.00 1021.23,35.00 1022.43,35.00 1023.62,35.00 1024.82,35.00 1026.02,35.00 1027.20,35.00 1028.40,35.00 1029.61,35.00 1030.82,35.00 1032.01,35.00 1033.23,35.00 1034.44,35.00 1035.63,35.00 1036.84,35.00 1038.04,35.00 1039.24,35.00 1040.44,35.00 1041.64,35.00 1042.84,35.00 1044.05,35.00 1045.24,35.00 1046.42,35.00 1047.62,35.00 1048.82,35.00 1050.03,35.00 1051.23,35.00 1052.43,35.00 1053.63,35.00 1054.83,35.00 1056.02,35.00 1057.23,35.00 1058.43,35.00 1059.61,35.00 1060.80,35.00 1061.98,35.00 1063.18,35.00 1064.38,35.00 1065.61,35.00 1066.80,35.00 1068.00,35.00 1069.21,35.00 1070.43,35.00 1071.64,35.00 1072.83,35.00 1074.05,35.00 1075.25,35.00 1076.44,35.00 1077.66,35.00 1078.86,35.00 1080.07,35.00 1081.29,35.00 1082.48,35.00 1083.67,35.00 1084.87,35.00 1086.07,35.00 1087.27,35.00 1088.47,35.00 1089.65,35.00 1090.85,35.00 1092.06,35.00 1093.26,35.00 1094.45,35.00 1095.65,35.00 1096.85,35.00 1098.05,35.00 1099.26,35.00 1100.47,35.00 1101.66,35.00 1102.86,35.00 1104.06,35.00 1105.28,35.00 1106.47,35.00 1107.67,35.00 1108.88,35.00 1110.07,35.00 1111.27,35.00 1112.48,35.00 1113.69,35.00 1114.88,35.00 1116.07,35.00 1117.27,35.00 1118.51,35.00 1119.71,35.00 1120.94,35.00 1122.16,35.00 1123.36,35.00 1124.56,35.00 1125.77,35.00 1126.97,35.00 1128.18,35.00 1129.37,35.00 1130.58,35.00 1131.81,35.00 1133.02,35.00 1134.21,35.00 1135.42,35.00 1136.62,35.00 1137.83,35.00 1139.03,35.00 1140.22,35.00 1141.42,35.00 1142.62,35.00 1143.82,35.00 1145.02,35.00 1146.22,35.00 1147.43,35.00 1148.61,35.00 1149.81,35.00 1151.01,35.00 1152.21,35.00 1153.40,35.00 1154.63,35.00 1155.82,35.00 1157.02,35.00 1158.22,35.00 1159.42,35.00 1160.61,35.00 1161.82,35.00 1163.02,35.00 1164.24,35.00 1165.44,35.00 1166.63,35.00 1167.82,35.00 1169.03,35.00 1170.23,35.00 1171.42,35.00 1172.64,35.00 1173.87,35.00 1175.09,35.00 1176.32,35.00 1177.54,35.00 1178.77,35.00 1180.00,35.00"/>
<polyline fill="none" stroke="#ff7f0e" stroke-opacity="0.50" stroke-width="2" points="70.00,35.00 71.20,35.00 72.40,35.00 73.59,35.00 74.79,35.00 76.00,35.00 77.18,35.00 78.38,35.00 79.68,35.00 80.87,35.00 82.05,35.00 83.24,35.00 84.46,35.00 85.65,35.00 86.84,35.00 88.99,35.00 90.84,35.00 92.05,35.00 93.27,35.00 94.47,35.00 95.66,35.00 96.83,35.00 98.04,35.00 99.23,35.00 100.43,35.00 101.64,35.00 102.86,35.00 104.06,35.00 105.26,35.00 106.51,35.00 107.72,35.00 108.91,35.00 110.14,35.00 111.33,35.00 112.53,35.00 113.76,35.00 114.95,35.00 116.14,35.00 117.36,35.00 118.54,35.00 119.74,35.00 120.92,35.00 122.11,35.00 123.31,35.00 124.50,35.00 125.72,35.00 126.93,35.00 128.11,35.00 129.30,35.00 130.51,35.00 131.71,35.00 133.07,35.00 134.27,35.00 135.46,35.00 136.65,35.00 137.84,35.00 139.02,35.00 140.21,35.00 141.41,35.00 142.60,35.00 143.82,35.00 145.01,35.00 146.19,35.00 147.40,35.00 148.61,35.00 149.80,35.00 151.00,35.00 152.18,35.00 153.37,35.00 154.56,35.00 155.74,35.00 156.93,35.00 158.13,35.00 159.32,35.00 160.51,35.00 161.71,35.00 162.89,35.00 164.10,35.00 165.28,35.00 166.47,35.00 167.70,35.00 168.89,35.00 170.08,35.00 171.28,35.00 172.47,35.00 173.67,35.00 174.87,35.00 176.05,35.00 177.23,35.00 178.44,35.00 179.64,35.00 180.83,35.00 182.04,35.00 183.22,35.00 184.42,35.00 185.60,35.00 186.80,35.00 187.98,35.00 189.18,35.00 190.36,35.00 191.57,35.00 192.76,35.00 193.96,35.00 195.16,35.00 196.37,35.00 197.57,35.00 198.76,35.00 199.95,35.00 201.14,35.00 202.33,35.00 203.54,35.00 204.74,35.00 205.93,35.00 207.12,35.00 208.32,35.00 209.52,35.00 210.72,35.00 211.94,35.00 213.13,35.00 214.32,35.00 215.52,35.00 216.71,35.00 217.90,35.00 219.11,35.00 220.40,35.00 221.59,35.00 222.80,35.00 224.00,35.00 225.18,35.00 226.37,35.00 227.54,35.00 228.73,35.00 229.93,35.00 231.12,35.00 232.31,35.00 233.50,35.00 234.70,35.00 235.88,35.00 237.10,35.00 238.29,35.00 239.48,35.00 240.67,35.00 241.86,35.00 243.05,35.00 244.25,35.00 245.45,35.00 246.65,35.00 247.85,35.00 249.04,35.00 250.22,35.00 251.41,35.00 252.60,35.00 253.80,35.00 255.00,35.00 256.20,35.00 257.40,35.00 258.59,35.00 259.80,35.00 261.00,35.00 262.18,35.00 263.38,35.00 264.58,35.00 265.79,35.00 267.00,35.00 268.19,35.00 269.39,35.00 270.58,35.00 271.76,35.00 272.95,35.00 274.15,35.00 275.34,35.00 276.52,35.00 277.71,35.00 278.92,35.00 280.11,35.00 281.31,35.00 282.50,35.00 283.73,35.00 284.92,35.00 286.11,35.00 287.30,35.00 288.48,35.00 289.78,35.00 291.01,35.00 292.19,35.00 293.38,35.00 294.56,35.00 295.76,35.00 296.95,35.00 298.15,35.00 299.35,35.00 300.54,35.00 301.73,35.00 302.92,35.00 304.15,35.00 305.34,35.00 306.52,35.00 307.72,35.00 308.92,35.00 310.14,35.00 311.36,35.00 312.55,35.00 313.74,35.00 314.94,35.00 316.13,35.00 317.33,35.00 318.53,35.00 319.74,35.00 320.93,35.00 322.11,35.00 323.32,35.00 324.51,35.00 325.71,35.00 326.90,35.00 328.11,35.00 329.31,35.00 330.50,35.00 331.68,35.00 332.87,35.00 334.07,35.00 335.26,35.00 336.45,35.00 337.64,35.00 338.82,35.00 340.02,35.00 341.22,35.00 342.42,35.00 343.62,35.00 344.83,35.00 346.02,35.00 347.23,35.00 348.41,35.00 349.61,35.00 350.81,35.00 352.00,35.00 353.20,35.00 354.42,35.00 355.62,35.00 356.82,35.00 358.01,35.00 359.20,35.00 360.40,35.00 361.58,35.00 362.78,35.00 363.98,35.00 365.18,35.00 366.37,35.00 367.57,35.00 368.77,35.00 369.96,35.00 371.16,35.00 372.36,35.00 373.57,35.00 374.76,35.00 375.95,35.00 377.16,35.00 378.36,35.00 379.56,35.00 380.76,35.00 381.95,35.00 383.27,35.00 384.48,35.00 385.67,35.00 386.87,35.00 388.08,35.00 389.28,35.00 390.47,35.00 391.67,35.00 392.86,35.00 394.09,35.00 395.30,35.00 396.49,35.00 397.68,35.00 398.88,35.00 400.07,35.00 401.27,35.00 402.51,35.00 403.70,35.00 404.90,35.00 406.11,35.00 407.40,35.00 408.59,35.00 410.10,35.00 412.12,35.00 413.34,35.00 414.56,35.00 415.75,35.00 416.92,35.00 418.11,35.00 419.33,35.00 420.53,35.00 421.73,35.00 422.98,35.00 424.21,35.00 425.48,35.00 426.68,35.00 427.88,35.00 429.07,35.00 430.28,35.00 431.49,35.00 432.70,35.00 433.89,35.00 435.08,35.00 436.33,35.00 437.53,35.00 438.71,35.00 439.91,35.00 441.13,35.00 442.37,35.00 443.57,35.00 444.77,35.00 446.00,35.00 447.14,35.00 448.33,35.00 449.55,35.00 450.74,35.00 451.95,35.00 453.18,35.00 454.38,35.00 455.58,35.00 456.79,35.00 457.99,35.00 459.19,35.00 460.38,35.00 461.57,35.00 462.77,35.00 463.97,35.00 465.16,35.00 466.58,35.00 467.99,35.00 469.40,35.00 470.79,35.00 472.16,35.00 473.54,35.00 474.95,35.00 476.34,35.00 477.54,35.00 478.72,35.00 479.92,35.00 481.11,35.00 482.31,35.00 483.49,35.00 484.68,35.00 485.87,35.00 487.06,35.00 488.26,35.00 489.45,35.00 490.64,35.00 491.83,35.00 493.02,35.00 494.21,35.00 495.40,35.00 496.59,35.00 497.77,35.00 498.97,35.00 500.18,35.00 501.36,35.00 502.54,35.00 503.73,35.00 504.93,35.00 506.12,35.00 507.32,35.00 508.51,35.00 509.70,35.00 510.90,35.00 512.09,35.00 513.28,35.00 514.47,35.00 515.66,35.00 516.85,35.00 518.03,35.00 519.21,35.00 520.40,35.00 521.59,35.00 522.77,35.00 523.96,35.00 525.15,35.00 526.34,35.00 527.52,35.00 528.70,35.00 529.88,35.00 531.11,35.00 532.40,35.00 533.60,35.00 534.79,35.00 535.98,35.00 537.17,35.00 538.35,35.00 539.54,35.00 540.72,35.00 542.14,35.00 543.54,35.00 544.92,35.00 546.32,35.00 547.73,35.00 549.12,35.00 550.55,35.00 552.00,35.00 553.30,35.00 554.58,35.00 555.78,35.00 556.99,35.00 558.18,35.00 559.36,35.00 560.55,35.00 561.75,35.00 562.94,35.00 564.13,35.00 565.31,35.00 566.51,35.00 567.71,35.00 568.90,35.00 570.11,35.00 571.30,35.00 572.48,35.00 573.53,35.00 574.76,35.00 575.95,35.00 577.18,35.00 578.37,35.00 579.56,35.00 580.76,35.00 581.96,35.00 583.16,35.00 584.37,35.00 585.57,35.00 586.79,35.00 587.97,35.00 589.16,35.00 590.35,35.00 591.53,35.00 592.72,35.00 593.91,35.00 595.11,35.00 596.30,35.00 597.50,35.00 598.69,35.00 599.88,35.00 601.08,35.00 602.27,35.00 603.47,35.00 604.68,35.00 605.87,35.00 607.06,35.00 608.26,35.00 609.46,35.00 610.69,35.00 611.88,35.00 613.06,35.00 614.26,35.00 615.44,35.00 616.63,35.00 617.83,35.00 619.02,35.00 620.21,35.00 621.40,35.00 622.59,35.00 623.78,35.00 624.98,35.00 626.19,35.00 627.38,35.00 628.82,35.00 630.04,35.00 631.27,35.00 632.47,35.00 633.67,35.00 634.88,35.00 636.06,35.00 637.25,35.00 638.46,35.00 639.66,35.00 640.85,35.00 642.05,35.00 643.25,35.00 644.44,35.00 645.68,35.00 646.89,35.00 648.09,35.00 649.29,35.00 650.48,35.00 651.67,35.00 652.86,35.00 654.06,35.00 655.30,35.00 656.50,35.00 657.71,35.00 658.90,35.00 660.09,35.00 661.30,35.00 662.48,35.00 663.68,35.00 664.88,35.00 666.08,35.00 667.28,35.00 668.48,35.00 669.67,35.00 670.86,35.00 672.05,35.00 673.27,35.00 674.47,35.00 675.66,35.00 676.85,35.00 678.04,35.00 679.26,35.00 680.46,35.00 681.89,35.00 683.12,35.00 684.32,35.00 685.51,35.00 686.70,35.00 687.90,35.00 689.10,35.00 690.30,35.00 691.52,35.00 692.71,35.00 693.90,35.00 695.09,35.00 696.28,35.00 697.48,35.00 698.67,35.00 699.87,35.00 701.06,35.00 702.25,35.00 703.44,35.00 704.63,35.00 705.85,35.00 707.03,35.00 708.22,35.00 709.43,35.00 710.64,35.00 711.83,35.00 713.02,35.00 714.22,35.00 715.45,35.00 716.64,35.00 717.84,35.00 719.04,35.00 720.24,35.00 721.43,35.00 722.63,35.00 723.83,35.00 725.05,35.00 726.24,35.00 727.44,35.00 728.62,35.00 729.81,35.00 731.01,35.00 732.20,35.00 733.39,35.00 734.60,35.00 735.81,35.00 737.02,35.00 738.19,35.00 739.40,35.00 740.58,35.00 741.78,35.00 742.97,35.00 744.17,35.00 745.36,35.00 746.57,35.00 747.77,35.00 748.96,35.00 750.17,35.00 751.37,35.00 752.57,35.00 753.77,35.00 754.98,35.00 756.32,35.00 757.63,35.00 758.91,35.00 760.12,35.00 761.37,35.00 762.57,35.00 763.77,35.00 764.95,35.00 766.07,35.00 767.32,35.00 768.51,35.00 769.72,35.00 770.90,35.00 772.10,35.00 773.29,35.00 774.50,35.00 775.69,35.00 776.89,35.00 778.08,35.00 779.28,35.00 780.48,35.00 781.68,35.00 782.89,35.00 784.10,35.00 785.30,35.00 786.50,35.00 787.69,35.00 788.91,35.00 790.11,35.00 791.30,35.00 792.49,35.00 793.69,35.00 794.88,35.00 796.08,35.00 797.28,35.00 798.47,35.00 799.69,35.00 800.87,35.00 802.06,35.00 803.26,35.00 804.46,35.00 805.67,35.00 806.87,35.00 808.06,35.00 809.26,35.00 810.46,35.00 811.66,35.00 812.87,35.00 814.07,35.00 815.27,35.00 816.47,35.00 817.67,35.00 818.87,35.00 820.08,35.00 821.31,35.00 822.51,35.00 823.71,35.00 824.91,35.00 826.11,35.00 827.30,35.00 828.50,35.00 829.71,35.00 830.91,35.00 832.10,35.00 833.30,35.00 834.51,35.00 835.70,35.00 836.92,35.00 838.12,35.00 839.32,35.00 840.53,35.00 841.73,35.00 842.94,35.00 844.14,35.00 845.33,35.00 846.54,35.00 847.74,35.00 848.96,35.00 850.17,35.00 851.38,35.00 852.58,35.00 853.77,35.00 854.96,35.00 856.16,35.00 857.36,35.00 858.56,35.00 859.76,35.00 860.96,35.00 862.15,35.00 863.36,35.00 864.56,35.00 865.76,35.00 866.96,35.00 868.17,35.00 869.37,35.00 870.57,35.00 871.77,35.00 872.97,35.00 874.16,35.00 875.35,35.00 876.55,35.00 877.75,35.00 878.96,35.00 880.16,35.00 881.37,35.00 882.56,35.00 883.77,35.00 884.98,35.00 886.17,35.00 887.38,35.00 888.59,35.00 889.79,35.00 890.99,35.00 892.19,35.00 893.40,35.00 894.61,35.00 895.81,35.00 897.03,35.00 898.24,35.00 899.45,35.00 900.65,35.00 901.84,35.00 903.05,35.00 904.26,35.00 905.47,35.00 906.67,35.00 907.87,35.00 909.07,35.00 910.25,35.00 911.49,35.00 912.68,35.00 913.89,35.00 915.09,35.00 916.28,35.00 917.48,35.00 918.66,35.00 919.86,35.00 921.06,35.00 922.26,35.00 923.47,35.00 924.66,35.00 925.86,35.00 927.06,35.00 928.30,35.00 929.50,35.00 930.69,35.00 931.90,35.00 933.09,35.00 934.29,35.00 935.48,35.00 936.70,35.00 937.89,35.00 939.09,35.00 940.30,35.00 941.50,35.00 942.70,35.00 943.90,35.00 945.11,35.00 946.35,35.00 947.56,35.00 948.76,35.00 949.97,35.00 951.17,35.00 952.38,35.00 953.57,35.00 954.77,35.00 955.96,35.00 957.17,35.00 958.37,35.00 959.58,35.00 960.79,35.00 962.00,35.00 963.25,35.00 964.45,35.00 965.64,35.00 966.85,35.00 968.05,35.00 969.25,35.00 970.46,35.00 971.68,35.00 972.88,35.00 974.10,35.00 975.29,35.00 976.50,35.00 977.71,35.00 978.91,35.00 980.11,35.00 981.31,35.00 982.51,35.00 983.72,35.00 984.93,35.00 986.13,35.00 987.33,35.00 988.54,35.00 989.75,35.00 990.94,35.00 992.15,35.00 993.36,35.00 994.60,35.00 995.80,35.00 997.02,35.00 998.22,35.00 999.45,35.00 1000.68,35.00 1001.90,35.00 1003.12,35.00 1004.36,35.00 1005.57,35.00 1006.77,35.00 1007.97,35.00 1009.18,35.00 1010.38,35.00 1011.59,35.00 1012.82,35.00 1014.02,35.00 1015.23,35.00 1016.43,35.00 1017.62,35.00 1018.82,35.00 1020.03,35.00 1021.23,35.00 1022.43,35.00 1023.62,35.00 1024.82,35.00 1026.02,35.00 1027.20,35.00 1028.40,35.00 1029.61,35.00 1030.82,35.00 1032.01,35.00 1033.23,35.00 1034.44,35.00 1035.63,35.00 1036.84,35.00 1038.04,35.00 1039.24,35.00 1040.44,35.00 1041.64,35.00 1042.84,35.00 1044.05,35.00 1045.24,35.00 1046.42,35.00 1047.62,35.00 1048.82,35.00 1050.03,35.00 1051.23,35.00 1052.43,35.00 1053.63,35.00 1054.83,35.00 1056.02,35.00 1057.23,35.00 1058.43,35.00 1059.61,35.00 1060.80,35.00 1061.98,35.00 1063.18,35.00 1064.38,35.00 1065.61,35.00 1066.80,35.00 1068.00,35.00 1069.21,35.00 1070.43,35.00 1071.64,35.00 1072.83,35.00 1074.05,35.00 1075.25,35.00 1076.44,35.00 1077.66,35.00 1078.86,35.00 1080.07,35.00 1081.29,35.00 1082.48,35.00 1083.67,35.00 1084.87,35.00 1086.07,35.00 1087.27,35.00 1088.47,35.00 1089.65,35.00 1090.85,35.00 1092.06,35.00 1093.26,35.00 1094.45,35.00 1095.65,35.00 1096.85,35.00 1098.05,35.00 1099.26,35.00 1100.47,35.00 1101.66,35.00 1102.86,35.00 1104.06,35.00 1105.28,35.00 1106.47,35.00 1107.67,35.00 1108.88,35.00 1110.07,35.00 1111.27,35.00 1112.48,35.00 1113.69,35.00 1114.88,35.00 1116.07,35.00 1117.27,35.00 1118.51,35.00 1119.71,35.00 1120.94,35.00 1122.16,35.00 1123.36,35.00 1124.56,35.00 1125.77,35.00 1126.97,35.00 1128.18,35.00 1129.37,35.00 1130.58,35.00 1131.81,35.00 1133.02,35.00 1134.21,35.00 1135.42,35.00 1136.62,35.00 1137.83,35.00 1139.03,35.00 1140.22,35.00 1141.42,35.00 1142.62,35.00 1143.82,35.00 1145.02,35.00 1146.22,35.00 1147.43,35.00 1148.61,35.00 1149.81,35.00 1151.01,35.00 1152.21,35.00 1153.40,35.00 1154.63,35.00 1155.82,35.00 1157.02,35.00 1158.22,35.00 1159.42,35.00 1160.61,35.00 1161.82,35.00 1163.02,35.00 1164.24,35.00 1165.44,35.00 1166.63,35.00 1167.82,35.00 1169.03,35.00 1170.23,35.00 1171.42,35.00 1172.64,35.00 1173.87,35.00 1175.09,35.00 1176.32,35.00 1177.54,35.00 1178.77,35.00 1180.00,35.00"/>
<rect x="70" y="332" width="12" height="12" fill="#ff7f0e" fill-opacity="0.95"/>
<text x="88" y="342" font-size="11" fill="#333" font-family="Arial, Helvetica, sans-serif">nsc1.utdallas.edu</text>
<rect x="350" y="332" width="12" height="12" fill="#ff7f0e" fill-opacity="0.80"/>
<text x="368" y="342" font-size="11" fill="#333" font-family="Arial, Helvetica, sans-serif">nsc2.utdallas.edu</text>
<rect x="630" y="332" width="12" height="12" fill="#ff7f0e" fill-opacity="0.65"/>
<text x="648" y="342" font-size="11" fill="#333" font-family="Arial, Helvetica, sans-serif">nsc3.utdallas.edu</text>
<rect x="910" y="332" width="12" height="12" fill="#ff7f0e" fill-opacity="0.50"/>
<text x="928" y="342" font-size="11" fill="#333" font-family="Arial, Helvetica, sans-serif">nsc4.utdallas.edu</text>
</svg>