<?xml version="1.0" encoding="UTF-8"?>
<svg xmlns="http://www.w3.org/2000/svg" width="1200" height="360" viewBox="0 0 1200 360" role="img" aria-label="CUDA Health (%)">
<rect width="100%" height="100%" fill="#ffffff"/>
<text x="600.0" y="22" text-anchor="middle" font-size="16" font-family="Arial, Helvetica, sans-serif" font-weight="bold">CUDA Health (%)</text>
<line x1="70" y1="35.00" x2="1180" y2="35.00" stroke="#e3e3e3" stroke-width="1"/>
<text x="62" y="39.00" text-anchor="end" font-size="11" fill="#444" font-family="Arial, Helvetica, sans-serif">100</text>
<line x1="70" y1="89.00" x2="1180" y2="89.00" stroke="#e3e3e3" stroke-width="1"/>
<text x="62" y="93.00" text-anchor="end" font-size="11" fill="#444" font-family="Arial, Helvetica, sans-serif">80</text>
<line x1="70" y1="143.00" x2="1180" y2="143.00" stroke="#e3e3e3" stroke-width="1"/>
<text x="62" y="147.00" text-anchor="end" font-size="11" fill="#444" font-family="Arial, Helvetica, sans-serif">60</text>
<line x1="70" y1="197.00" x2="1180" y2="197.00" stroke="#e3e3e3" stroke-width="1"/>
<text x="62" y="201.00" text-anchor="end" font-size="11" fill="#444" font-family="Arial, Helvetica, sans-serif">40</text>
<line x1="70" y1="251.00" x2="1180" y2="251.00" stroke="#e3e3e3" stroke-width="1"/>
<text x="62" y="255.00" text-anchor="end" font-size="11" fill="#444" font-family="Arial, Helvetica, sans-serif">20</text>
<line x1="70" y1="305.00" x2="1180" y2="305.00" stroke="#e3e3e3" stroke-width="1"/>
<text x="62" y="309.00" text-anchor="end" font-size="11" fill="#444" font-family="Arial, Helvetica, sans-serif">0</text>
<line x1="70" y1="35" x2="70" y2="305" stroke="#999"/>
<line x1="70" y1="305" x2="1180" y2="305" stroke="#999"/>
<text x="70.00" y="323" text-anchor="middle" font-size="10" fill="#444" font-family="Arial, Helvetica, sans-serif">2026-02-11 16:38</text>
<text x="347.50" y="323" text-anchor="middle" font-size="10" fill="#444" font-family="Arial, Helvetica, sans-serif">2026-02-11 17:32</text>
<text x="625.00" y="323" text-anchor="middle" font-size="10" fill="#444" font-family="Arial, Helvetica, sans-serif">2026-02-11 18:27</text>
<text x="902.50" y="323" text-anchor="middle" font-size="10" fill="#444" font-family="Arial, Helvetica, sans-serif">2026-02-11 19:21</text>
<text x="1180.00" y="323" text-anchor="middle" font-size="10" fill="#444" font-family="Arial, Helvetica, sans-serif">2026-02-11 20:16</text>
<polyline fill="none" stroke="#ff7f0e" stroke-opacity="0.95" stroke-width="2" points="97.35,35.00 124.79,35.00 152.06,35.00 179.49,35.00 207.10,35.00 234.20,35.00 261.63,35.00 291.27,35.00 318.45,35.00 345.64,35.00 372.82,35.00 400.60,35.00 427.78,35.00 454.96,35.00 504.16,35.00 546.59,35.00 574.19,35.00 602.22,35.00 629.49,35.00 656.76,35.00 683.51,35.00 711.12,35.00 738.39,35.00 765.91,35.00 793.43,35.00 821.29,35.00 848.73,35.00 876.16,35.00 904.87,35.00 932.48,35.00 959.74,35.00 987.77,35.00 1015.13,35.00 1042.48,35.00 1070.68,35.00 1097.77,35.00 1125.13,35.00 1152.99,35.00 1180.00,35.00"/>
<polyline fill="none" stroke="#ff7f0e" stroke-opacity="0.80" stroke-width="2" points="70.00,35.00 97.35,35.00 124.79,35.00 152.06,35.00 179.49,35.00 207.10,35.00 234.20,35.00 261.63,35.00 291.27,35.00 318.45,35.00 345.64,35.00 372.82,35.00 400.60,35.00 427.78,35.00 454.96,35.00 504.16,35.00 546.59,35.00 574.19,35.00 602.22,35.00 629.49,35.00 656.76,35.00 683.51,35.00 711.12,35.00 738.39,35.00 765.91,35.00 793.43,35.00 821.29,35.00 848.73,35.00 876.16,35.00 904.87,35.00 932.48,35.00 959.74,35.00 987.77,35.00 1015.13,35.00 1042.48,35.00 1070.68,35.00 1097.77,35.00 1125.13,35.00 1152.99,35.00 1180.00,35.00"/>
<polyline fill="none" stroke="#ff7f0e" stroke-opacity="0.65" stroke-width="2" points="70.00,305.00 97.35,305.00 124.79,305.00 152.06,305.00 179.49,305.00 207.10,305.00 234.20,305.00 261.63,305.00 291.27,305.00 318.45,305.00 345.64,305.00 372.82,305.00 400.60,305.00 427.78,305.00 454.96,305.00 504.16,305.00 546.59,305.00 574.19,305.00 602.22,305.00 629.49,305.00 656.76,305.00 683.51,305.00 711.12,305.00 738.39,305.00 765.91,305.00 793.43,305.00 821.29,305.00 848.73,305.00 876.16,305.00 904.87,305.00 932.48,305.00 959.74,305.00 987.77,305.00 1015.13,305.00 1042.48,305.00 1070.68,305.00 1097.77,305.00 1125.13,305.00 1152.99,305.00 1180.00,305.00"/>
<polyline fill="none" stroke="#ff7f0e" stroke-opacity="0.50" stroke-width="2" points="70.00,35.00 97.35,35.00 124.79,35.00 152.06,35.00 179.49,35.00 207.10,35.00 234.20,35.00 261.63,35.00 291.27,35.00 318.45,35.00 345.64,35.00 372.82,35.00 400.60,35.00 427.78,35.00 454.96,35.00 504.16,35.00 546.59,35.00 574.19,35.00 602.22,35.00 629.49,35.00 656.76,35.00 683.51,35.00 711.12,35.00 738.39,35.00 765.91,35.00 793.43,35.00 821.29,35.00 848.73,35.00 876.16,35.00 904.87,35.00 932.48,35.00 959.74,35.00 987.77,35.00 1015.13,35.00 1042.48,35.00 1070.68,35.00 1097.77,35.00 1125.13,35.00 1152.99,35.00 1180.00,35.00"/>
<rect x="70" y="332" width="12" height="12" fill="#ff7f0e" fill-opacity="0.95"/>
<text x="88" y="342" font-size="11" fill="#333" font-family="Arial, Helvetica, sans-serif">nsc1.utdallas.edu</text>
<rect x="350" y="332" width="12" height="12" fill="#ff7f0e" fill-opacity="0.80"/>
<text x="368" y="342" font-size="11" fill="#333" font-family="Arial, Helvetica, sans-serif">nsc2.utdallas.edu</text>
<rect x="630" y="332" width="12" height="12" fill="#ff7f0e" fill-opacity="0.65"/>
<text x="648" y="342" font-size="11" fill="#333" font-family="Arial, Helvetica, sans-serif">nsc3.utdallas.edu</text>
<rect x="910" y="332" width="12" height="12" fill="#ff7f0e" fill-opacity="0.50"/>
<text x="928" y="342" font-size="11" fill="#333" font-family="Arial, Helvetica, sans-serif">nsc4.utdallas.edu</text>
</svg>