<?xml version="1.0" encoding="UTF-8"?>
<svg xmlns="http://www.w3.org/2000/svg" width="1200" height="360" viewBox="0 0 1200 360" role="img" aria-label="GPU Utilization (%)">
<rect width="100%" height="100%" fill="#ffffff"/>
<text x="600.0" y="22" text-anchor="middle" font-size="16" font-family="Arial, Helvetica, sans-serif" font-weight="bold">GPU Utilization (%)</text>
<line x1="70" y1="35.00" x2="1180" y2="35.00" stroke="#e3e3e3" stroke-width="1"/>
<text x="62" y="39.00" text-anchor="end" font-size="11" fill="#444" font-family="Arial, Helvetica, sans-serif">100</text>
<line x1="70" y1="89.00" x2="1180" y2="89.00" stroke="#e3e3e3" stroke-width="1"/>
<text x="62" y="93.00" text-anchor="end" font-size="11" fill="#444" font-family="Arial, Helvetica, sans-serif">80</text>
<line x1="70" y1="143.00" x2="1180" y2="143.00" stroke="#e3e3e3" stroke-width="1"/>
<text x="62" y="147.00" text-anchor="end" font-size="11" fill="#444" font-family="Arial, Helvetica, sans-serif">60</text>
<line x1="70" y1="197.00" x2="1180" y2="197.00" stroke="#e3e3e3" stroke-width="1"/>
<text x="62" y="201.00" text-anchor="end" font-size="11" fill="#444" font-family="Arial, Helvetica, sans-serif">40</text>
<line x1="70" y1="251.00" x2="1180" y2="251.00" stroke="#e3e3e3" stroke-width="1"/>
<text x="62" y="255.00" text-anchor="end" font-size="11" fill="#444" font-family="Arial, Helvetica, sans-serif">20</text>
<line x1="70" y1="305.00" x2="1180" y2="305.00" stroke="#e3e3e3" stroke-width="1"/>
<text x="62" y="309.00" text-anchor="end" font-size="11" fill="#444" font-family="Arial, Helvetica, sans-serif">0</text>
<line x1="70" y1="35" x2="70" y2="305" stroke="#999"/>
<line x1="70" y1="305" x2="1180" y2="305" stroke="#999"/>
<text x="70.00" y="323" text-anchor="middle" font-size="10" fill="#444" font-family="Arial, Helvetica, sans-serif">2026-02-11 16:38</text>
<text x="347.50" y="323" text-anchor="middle" font-size="10" fill="#444" font-family="Arial, Helvetica, sans-serif">2026-02-13 08:38</text>
<text x="625.00" y="323" text-anchor="middle" font-size="10" fill="#444" font-family="Arial, Helvetica, sans-serif">2026-02-15 00:38</text>
<text x="902.50" y="323" text-anchor="middle" font-size="10" fill="#444" font-family="Arial, Helvetica, sans-serif">2026-02-16 16:39</text>
<text x="1180.00" y="323" text-anchor="middle" font-size="10" fill="#444" font-family="Arial, Helvetica, sans-serif">2026-02-18 08:39</text>
<polyline fill="none" stroke="#9467bd" stroke-opacity="0.95" stroke-width="2" points="70.62,305.00 71.25,305.00 71.87,305.00 72.49,305.00 73.12,305.00 73.74,305.00 74.36,305.00 75.03,305.00 75.65,305.00 76.27,305.00 76.89,305.00 77.52,305.00 78.14,305.00 78.76,305.00 79.88,305.00 80.84,305.00 81.47,305.00 82.11,305.00 82.73,305.00 83.35,305.00 83.96,305.00 84.59,305.00 85.21,305.00 85.83,305.00 86.46,305.00 87.09,305.00 87.72,305.00 88.34,305.00 89.00,305.00 89.62,305.00 90.24,305.00 90.88,305.00 91.50,305.00 92.13,305.00 92.77,305.00 93.38,305.00 94.01,305.00 94.64,305.00 95.26,305.00 95.88,305.00 96.49,305.00 97.11,305.00 97.74,305.00 98.36,305.00 98.99,305.00 99.62,305.00 100.23,305.00 100.85,305.00 101.48,305.00 102.10,305.00 102.82,305.00 103.44,305.00 104.06,305.00 104.67,305.00 105.29,305.00 105.91,305.00 106.53,305.00 107.15,305.00 107.77,305.00 108.41,305.00 109.03,305.00 109.64,305.00 110.27,305.00 110.90,305.00 111.52,305.00 112.14,305.00 112.76,305.00 113.37,305.00 113.99,305.00 114.61,305.00 115.23,305.00 115.85,305.00 116.47,305.00 117.09,305.00 117.71,305.00 118.33,305.00 118.96,305.00 119.57,305.00 120.19,305.00 120.83,305.00 121.45,305.00 122.07,305.00 122.70,305.00 123.31,305.00 123.94,305.00 124.56,305.00 125.17,305.00 125.79,305.00 126.42,305.00 127.04,305.00 127.66,305.00 128.29,305.00 128.90,305.00 129.53,305.00 130.15,305.00 130.77,305.00 131.38,305.00 132.01,305.00 132.62,305.00 133.25,305.00 133.87,305.00 134.49,305.00 135.11,305.00 135.74,305.00 136.37,305.00 136.99,305.00 137.61,305.00 138.23,305.00 138.85,305.00 139.48,305.00 140.10,305.00 140.72,305.00 141.34,305.00 141.96,305.00 142.59,305.00 143.21,305.00 143.85,305.00 144.47,305.00 145.09,305.00 145.71,305.00 146.33,305.00 146.95,305.00 147.58,305.00 148.25,305.00 148.87,305.00 149.50,305.00 150.12,305.00 150.74,305.00 151.35,305.00 151.96,305.00 152.58,305.00 153.21,305.00 153.83,305.00 154.45,305.00 155.07,305.00 155.69,305.00 156.30,305.00 156.94,305.00 157.56,305.00 158.18,305.00 158.79,305.00 159.42,305.00 160.03,305.00 160.66,305.00 161.28,305.00 161.91,305.00 162.53,305.00 163.15,305.00 163.77,305.00 164.38,305.00 165.00,305.00 165.62,305.00 166.25,305.00 166.88,305.00 167.50,305.00 168.12,305.00 168.75,305.00 169.37,305.00 169.99,305.00 170.61,305.00 171.23,305.00 171.86,305.00 172.49,305.00 173.11,305.00 173.74,305.00 174.35,305.00 174.97,305.00 175.59,305.00 176.21,305.00 176.83,305.00 177.45,305.00 178.07,305.00 178.69,305.00 179.32,305.00 179.94,305.00 180.56,305.00 181.20,305.00 181.82,305.00 182.44,305.00 183.06,305.00 183.67,305.00 184.35,305.00 184.98,305.00 185.60,305.00 186.22,305.00 186.83,305.00 187.46,305.00 188.08,305.00 188.70,305.00 189.32,305.00 189.94,305.00 190.56,305.00 191.18,305.00 191.82,305.00 192.44,305.00 193.06,305.00 193.68,305.00 194.31,305.00 194.94,305.00 195.57,305.00 196.19,305.00 196.81,305.00 197.44,305.00 198.05,305.00 198.68,305.00 199.30,305.00 199.93,305.00 200.55,305.00 201.17,305.00 201.79,305.00 202.42,305.00 203.04,305.00 203.66,305.00 204.29,305.00 204.91,305.00 205.53,305.00 206.14,305.00 206.76,305.00 207.39,305.00 208.01,305.00 208.63,305.00 209.25,305.00 209.86,305.00 210.48,305.00 211.11,305.00 211.73,305.00 212.35,305.00 212.98,305.00 213.61,305.00 214.23,305.00 214.85,305.00 215.48,305.00 216.10,305.00 216.72,305.00 217.34,305.00 217.98,305.00 218.60,305.00 219.22,305.00 219.85,305.00 220.46,305.00 221.09,305.00 221.70,305.00 222.32,305.00 222.95,305.00 223.57,305.00 224.19,305.00 224.82,305.00 225.44,305.00 226.06,305.00 226.69,305.00 227.31,305.00 227.94,305.00 228.56,305.00 229.18,305.00 229.80,305.00 230.43,305.00 231.06,305.00 231.68,305.00 232.30,305.00 232.99,305.00 233.61,305.00 234.24,305.00 234.86,305.00 235.49,305.00 236.11,305.00 236.73,305.00 237.36,305.00 237.97,305.00 238.62,80.90 239.25,72.80 239.86,305.00 240.48,305.00 241.10,305.00 241.73,305.00 242.35,305.00 243.00,305.00 243.62,305.00 244.24,305.00 244.87,305.00 245.54,305.00 246.16,305.00 246.94,305.00 247.99,305.00 248.63,305.00 249.27,305.00 249.89,305.00 250.50,305.00 251.11,305.00 251.75,305.00 252.37,305.00 253.00,305.00 253.64,305.00 254.29,305.00 254.95,305.00 255.57,305.00 256.19,305.00 256.82,305.00 257.45,305.00 258.08,305.00 258.70,305.00 259.32,305.00 259.94,305.00 260.59,305.00 261.22,305.00 261.83,305.00 262.45,305.00 263.09,305.00 263.73,305.00 264.36,305.00 264.98,305.00 265.62,305.00 266.22,305.00 266.83,305.00 267.47,305.00 268.09,305.00 268.72,305.00 269.36,305.00 269.98,305.00 270.60,305.00 271.23,305.00 271.86,305.00 272.49,305.00 273.11,305.00 273.72,305.00 274.35,305.00 274.97,305.00 275.59,305.00 276.33,305.00 277.06,305.00 277.80,305.00 278.52,305.00 279.23,305.00 279.95,305.00 280.69,305.00 281.41,305.00 282.03,305.00 282.65,305.00 283.27,305.00 283.89,305.00 284.51,305.00 285.13,305.00 285.75,305.00 286.37,305.00 286.99,305.00 287.61,305.00 288.23,305.00 288.85,305.00 289.47,305.00 290.08,305.00 290.70,305.00 291.32,305.00 291.94,305.00 292.56,305.00 293.18,305.00 293.81,305.00 294.42,305.00 295.04,305.00 295.66,305.00 296.28,305.00 296.90,305.00 297.52,305.00 298.14,305.00 298.77,305.00 299.39,305.00 300.01,305.00 300.63,305.00 301.25,305.00 301.86,305.00 302.48,305.00 303.10,305.00 303.71,305.00 304.33,305.00 304.95,305.00 305.56,305.00 306.18,305.00 306.80,305.00 307.42,305.00 308.04,305.00 308.65,305.00 309.26,305.00 309.90,305.00 310.57,305.00 311.20,305.00 311.82,305.00 312.44,305.00 313.06,305.00 313.67,305.00 314.29,305.00 314.91,305.00 315.64,305.00 316.37,305.00 317.09,305.00 317.82,305.00 318.55,305.00 319.28,305.00 320.02,305.00 320.77,305.00 321.45,305.00 322.12,305.00 322.74,305.00 323.37,305.00 323.99,305.00 324.60,305.00 325.22,305.00 325.84,305.00 326.46,305.00 327.08,305.00 327.70,305.00 328.32,305.00 328.94,305.00 329.56,305.00 330.19,305.00 330.81,305.00 331.43,305.00 331.97,305.00 332.61,305.00 333.23,305.00 333.87,305.00 334.49,305.00 335.11,305.00 335.74,305.00 336.36,305.00 336.99,305.00 337.61,305.00 338.24,305.00 338.87,305.00 339.49,305.00 340.10,305.00 340.73,305.00 341.34,305.00 341.96,305.00 342.57,305.00 343.20,305.00 343.82,305.00 344.44,305.00 345.06,305.00 345.68,305.00 346.31,305.00 346.93,305.00 347.55,305.00 348.18,305.00 348.80,305.00 349.42,305.00 350.04,305.00 350.67,305.00 351.31,305.00 351.92,305.00 352.54,305.00 353.16,305.00 353.78,305.00 354.40,305.00 355.02,305.00 355.64,305.00 356.26,305.00 356.88,305.00 357.50,305.00 358.12,305.00 358.74,305.00 359.37,305.00 359.99,305.00 360.74,305.00 361.38,305.00 362.01,305.00 362.64,305.00 363.26,305.00 363.89,305.00 364.51,305.00 365.13,305.00 365.75,305.00 366.38,305.00 367.00,305.00 367.62,305.00 368.25,305.00 368.87,305.00 369.51,305.00 370.14,305.00 370.76,305.00 371.39,305.00 372.01,305.00 372.63,305.00 373.25,305.00 373.87,305.00 374.52,305.00 375.14,305.00 375.77,305.00 376.39,305.00 377.01,305.00 377.64,305.00 378.25,305.00 378.88,305.00 379.50,305.00 380.12,305.00 380.75,305.00 381.37,305.00 381.99,305.00 382.61,305.00 383.23,305.00 383.87,305.00 384.49,305.00 385.11,305.00 385.73,305.00 386.35,305.00 386.98,305.00 387.60,305.00 388.35,305.00 388.99,305.00 389.61,305.00 390.24,305.00 390.85,305.00 391.48,305.00 392.10,305.00 392.73,305.00 393.36,305.00 393.98,305.00 394.60,305.00 395.22,305.00 395.84,305.00 396.46,305.00 397.08,305.00 397.71,305.00 398.32,305.00 398.94,305.00 399.56,305.00 400.18,305.00 400.81,305.00 401.43,305.00 402.05,305.00 402.68,305.00 403.31,305.00 403.93,305.00 404.55,305.00 405.17,305.00 405.81,305.00 406.43,305.00 407.05,305.00 407.68,305.00 408.30,305.00 408.92,305.00 409.54,305.00 410.17,305.00 410.81,305.00 411.43,305.00 412.05,305.00 412.66,305.00 413.28,305.00 413.90,305.00 414.53,305.00 415.15,305.00 415.77,305.00 416.40,305.00 417.03,305.00 417.64,305.00 418.27,305.00 418.89,305.00 419.51,305.00 420.13,305.00 420.75,305.00 421.37,305.00 422.00,305.00 422.62,305.00 423.24,305.00 423.87,305.00 424.50,305.00 425.12,305.00 425.75,305.00 426.37,305.00 427.07,305.00 427.76,305.00 428.42,305.00 429.05,305.00 429.70,305.00 430.32,305.00 430.95,305.00 431.56,305.00 432.15,305.00 432.79,305.00 433.42,305.00 434.05,305.00 434.66,305.00 435.28,305.00 435.90,305.00 436.53,305.00 437.15,305.00 437.77,305.00 438.39,305.00 439.02,305.00 439.64,305.00 440.27,305.00 440.90,305.00 441.52,305.00 442.15,305.00 442.77,305.00 443.40,305.00 444.03,305.00 444.66,305.00 445.27,305.00 445.89,305.00 446.52,305.00 447.14,305.00 447.76,305.00 448.38,305.00 449.00,305.00 449.64,305.00 450.25,305.00 450.87,305.00 451.50,305.00 452.12,305.00 452.75,305.00 453.37,305.00 453.99,305.00 454.62,305.00 455.24,305.00 455.87,305.00 456.49,305.00 457.12,305.00 457.75,305.00 458.37,305.00 458.99,305.00 459.62,305.00 460.25,305.00 460.89,305.00 461.51,305.00 462.14,305.00 462.76,305.00 463.38,305.00 464.00,305.00 464.63,305.00 465.25,305.00 465.88,305.00 466.50,305.00 467.13,305.00 467.75,305.00 468.38,305.00 469.01,305.00 469.63,305.00 470.26,305.00 470.88,305.00 471.51,305.00 472.14,305.00 472.76,305.00 473.38,305.00 474.01,305.00 474.64,305.00 475.27,305.00 475.90,305.00 476.53,305.00 477.15,305.00 477.77,305.00 478.39,305.00 479.02,305.00 479.64,305.00 480.27,305.00 480.89,305.00 481.51,305.00 482.14,305.00 482.76,305.00 483.39,305.00 484.01,305.00 484.63,305.00 485.27,305.00 485.89,305.00 486.52,305.00 487.14,305.00 487.76,305.00 488.38,305.00 489.00,305.00 489.62,305.00 490.25,305.00 490.88,305.00 491.50,305.00 492.13,305.00 492.75,305.00 493.38,305.00 494.01,305.00 494.63,305.00 495.26,305.00 495.89,305.00 496.51,305.00 497.14,305.00 497.76,305.00 498.40,305.00 499.02,305.00 499.65,305.00 500.28,305.00 500.91,305.00 501.54,305.00 502.16,305.00 502.78,305.00 503.41,305.00 504.04,305.00 504.67,305.00 505.30,305.00 505.92,305.00 506.54,305.00 507.16,305.00 507.80,305.00 508.42,305.00 509.05,305.00 509.68,305.00 510.30,305.00 510.92,305.00 511.54,305.00 512.16,305.00 512.79,305.00 513.41,305.00 514.04,305.00 514.66,305.00 515.28,305.00 515.91,305.00 516.55,305.00 517.18,305.00 517.80,305.00 518.42,305.00 519.04,305.00 519.66,305.00 520.29,305.00 520.92,305.00 521.54,305.00 522.16,305.00 522.79,305.00 523.42,305.00 524.04,305.00 524.67,305.00 525.30,305.00 525.94,305.00 526.57,305.00 527.20,305.00 527.83,305.00 528.45,305.00 529.08,305.00 529.70,305.00 530.32,305.00 530.94,305.00 531.57,305.00 532.20,305.00 532.83,305.00 533.45,305.00 534.08,305.00 534.73,305.00 535.36,305.00 535.98,305.00 536.61,305.00 537.23,305.00 537.86,305.00 538.49,305.00 539.12,305.00 539.74,305.00 540.38,305.00 541.00,305.00 541.63,305.00 542.26,305.00 542.88,305.00 543.51,305.00 544.13,305.00 544.75,305.00 545.38,305.00 546.01,305.00 546.64,305.00 547.26,305.00 547.89,305.00 548.52,305.00 549.14,305.00 549.77,305.00 550.40,305.00 551.04,305.00 551.67,305.00 552.30,305.00 552.93,305.00 553.57,305.00 554.21,305.00 554.84,305.00 555.48,305.00 556.12,305.00 556.75,305.00 557.38,305.00 558.00,305.00 558.63,305.00 559.26,305.00 559.88,305.00 560.53,305.00 561.15,305.00 561.78,305.00 562.40,305.00 563.02,305.00 563.65,305.00 564.28,305.00 564.90,305.00 565.52,305.00 566.14,305.00 566.77,305.00 567.39,305.00 568.01,305.00 568.63,305.00 569.26,305.00 569.89,305.00 570.51,305.00 571.14,305.00 571.77,305.00 572.39,305.00 573.02,305.00 573.65,305.00 574.27,305.00 574.89,305.00 575.52,305.00 576.14,305.00 576.77,305.00 577.39,305.00 578.01,305.00 578.63,305.00 579.25,305.00 579.88,305.00 580.51,305.00 581.13,305.00 581.76,305.00 582.38,305.00 583.00,305.00 583.63,305.00 584.25,305.00 584.87,305.00 585.49,305.00 586.10,305.00 586.73,305.00 587.35,305.00 587.99,305.00 588.61,305.00 589.23,305.00 589.86,305.00 590.50,305.00 591.12,305.00 591.75,305.00 592.38,305.00 593.00,305.00 593.62,305.00 594.26,305.00 594.88,305.00 595.51,305.00 596.14,305.00 596.77,305.00 597.39,305.00 598.01,305.00 598.63,305.00 599.26,305.00 599.88,305.00 600.50,305.00 601.12,305.00 601.75,305.00 602.38,305.00 603.00,305.00 603.62,305.00 604.24,305.00 604.87,305.00 605.49,305.00 606.12,305.00 606.75,305.00 607.37,305.00 608.00,305.00 608.63,305.00 609.25,305.00 609.87,305.00 610.50,305.00 611.12,305.00 611.74,305.00 612.37,305.00 613.00,305.00 613.62,305.00 614.24,305.00 614.87,305.00 615.51,305.00 616.14,305.00 616.77,305.00 617.41,305.00 618.03,305.00 618.66,305.00 619.29,305.00 619.91,305.00 620.54,305.00 621.16,305.00 621.79,305.00 622.43,305.00 623.06,305.00 623.68,305.00 624.31,305.00 624.93,305.00 625.56,305.00 626.19,305.00 626.81,305.00 627.43,305.00 628.06,305.00 628.68,305.00 629.31,305.00 629.93,305.00 630.56,305.00 631.17,305.00 631.80,305.00 632.42,305.00 633.04,305.00 633.67,305.00 634.30,305.00 634.92,305.00 635.55,305.00 636.17,305.00 636.80,305.00 637.41,305.00 638.05,305.00 638.67,305.00 639.30,305.00 639.93,305.00 640.55,305.00 641.17,305.00 641.80,305.00 642.42,305.00 643.04,305.00 643.67,305.00 644.31,305.00 644.95,305.00 645.59,305.00 646.22,305.00 646.86,305.00 647.50,305.00 648.14,305.00 648.79,305.00 649.42,305.00 650.07,305.00 650.69,305.00 651.31,305.00 651.94,305.00 652.57,305.00 653.20,305.00 653.82,305.00 654.45,305.00 655.08,305.00 655.70,305.00 656.33,305.00 656.95,305.00 657.57,305.00 658.20,305.00 658.82,305.00 659.44,305.00 660.07,305.00 660.70,305.00 661.32,305.00 661.96,305.00 662.59,305.00 663.21,305.00 663.83,305.00 664.46,305.00 665.08,305.00 665.71,305.00 666.33,305.00 666.96,305.00 667.58,305.00 668.21,305.00 668.83,305.00 669.46,305.00 670.09,305.00 670.71,305.00 671.34,305.00 672.00,305.00 672.65,305.00 673.27,305.00 673.90,305.00 674.52,305.00 675.15,305.00 675.79,305.00 676.42,305.00 677.04,305.00 677.66,305.00 678.27,305.00 678.90,305.00 679.52,305.00 680.15,305.00 680.78,305.00 681.40,305.00 682.03,305.00 682.66,305.00 683.29,305.00 683.91,305.00 684.53,305.00 685.15,305.00 685.78,305.00 686.41,305.00 687.03,305.00 687.65,305.00 688.29,305.00 688.91,305.00 689.54,305.00 690.19,305.00 690.82,305.00 691.44,305.00 692.06,305.00 692.69,305.00 693.31,305.00 693.94,305.00 694.57,305.00 695.19,305.00 695.82,305.00 696.45,305.00 697.08,305.00 697.71,305.00 698.34,305.00 698.97,305.00 699.59,305.00 700.22,305.00 700.84,305.00 701.47,305.00 702.09,305.00 702.72,305.00 703.35,305.00 703.97,305.00 704.60,305.00 705.22,305.00 705.85,305.00 706.47,305.00 707.09,305.00 707.72,305.00 708.34,305.00 708.97,305.00 709.59,305.00 710.22,305.00 710.84,305.00 711.47,305.00 712.10,305.00 712.72,305.00 713.34,305.00 713.96,305.00 714.58,305.00 715.21,305.00 715.84,305.00 716.46,305.00 717.10,305.00 717.73,305.00 718.36,305.00 718.99,305.00 719.61,305.00 720.24,305.00 720.92,305.00 721.55,305.00 722.18,305.00 722.82,305.00 723.45,305.00 724.07,305.00 724.69,305.00 725.32,305.00 725.95,305.00 726.57,305.00 727.20,305.00 727.83,305.00 728.45,305.00 729.09,305.00 729.72,305.00 730.35,305.00 730.97,305.00 731.60,305.00 732.23,305.00 732.85,305.00 733.48,305.00 734.10,305.00 734.73,305.00 735.36,305.00 735.99,305.00 736.62,305.00 737.24,305.00 737.87,305.00 738.51,305.00 739.13,305.00 739.76,305.00 740.38,305.00 741.01,305.00 741.64,305.00 742.26,305.00 742.88,305.00 743.51,305.00 744.13,305.00 744.76,305.00 745.39,305.00 746.01,305.00 746.63,305.00 747.26,305.00 747.89,305.00 748.51,305.00 749.14,305.00 749.77,305.00 750.40,305.00 751.03,305.00 751.64,305.00 752.25,305.00 752.87,305.00 753.50,305.00 754.13,305.00 754.76,305.00 755.39,305.00 756.01,305.00 756.65,305.00 757.28,305.00 757.90,305.00 758.53,305.00 759.15,305.00 759.77,305.00 760.39,305.00 761.01,305.00 761.64,305.00 762.27,305.00 762.89,305.00 763.51,305.00 764.13,305.00 764.76,305.00 765.38,305.00 766.01,305.00 766.63,305.00 767.25,305.00 767.86,305.00 768.50,305.00 769.12,305.00 769.75,305.00 770.38,305.00 771.01,305.00 771.63,305.00 772.25,305.00 772.88,305.00 773.51,305.00 774.13,305.00 774.76,305.00 775.43,305.00 776.05,305.00 776.69,305.00 777.31,305.00 777.95,305.00 778.57,305.00 779.19,305.00 779.82,305.00 780.44,305.00 781.07,305.00 781.69,305.00 782.31,305.00 782.94,305.00 783.58,305.00 784.20,305.00 784.83,305.00 785.45,305.00 786.08,305.00 786.70,305.00 787.33,305.00 787.96,305.00 788.59,305.00 789.23,305.00 789.86,305.00 790.49,305.00 791.11,305.00 791.74,305.00 792.37,305.00 793.00,305.00 793.62,305.00 794.24,305.00 794.87,305.00 795.50,305.00 796.12,305.00 796.75,305.00 797.38,305.00 798.00,305.00 798.63,305.00 799.25,305.00 799.87,305.00 800.50,305.00 801.13,305.00 801.75,305.00 802.37,305.00 803.00,305.00 803.62,305.00 804.24,305.00 804.86,305.00 805.48,305.00 806.10,305.00 806.73,305.00 807.35,305.00 807.97,305.00 808.59,305.00 809.22,305.00 809.84,305.00 810.47,305.00 811.09,305.00 811.71,305.00 812.33,305.00 812.95,305.00 813.59,305.00 814.21,305.00 814.83,305.00 815.46,305.00 816.11,305.00 816.73,305.00 817.36,305.00 817.99,305.00 818.62,305.00 819.24,305.00 819.87,305.00 820.50,305.00 821.12,305.00 821.75,305.00 822.36,305.00 822.99,305.00 823.62,305.00 824.24,305.00 824.87,305.00 825.49,305.00 826.11,305.00 826.73,305.00 827.36,305.00 827.98,305.00 828.62,305.00 829.27,305.00 829.89,305.00 830.51,305.00 831.13,305.00 831.75,305.00 832.38,305.00 833.00,305.00 833.63,305.00 834.26,305.00 834.88,305.00 835.51,305.00 836.14,305.00 836.76,305.00 837.39,305.00 838.01,305.00 838.64,305.00 839.27,305.00 839.89,305.00 840.51,305.00 841.13,305.00 841.75,305.00 842.38,305.00 843.00,305.00 843.62,305.00 844.25,305.00 844.87,305.00 845.50,305.00 846.12,305.00 846.75,305.00 847.37,305.00 848.00,305.00 848.62,305.00 849.24,305.00 849.88,305.00 850.49,305.00 851.12,305.00 851.75,305.00 852.37,305.00 852.99,305.00 853.61,305.00 854.24,305.00 854.86,305.00 855.50,305.00 856.12,305.00 856.75,305.00 857.37,305.00 858.00,305.00 858.63,305.00 859.27,305.00 860.56,305.00 861.18,305.00 861.86,305.00 862.48,305.00 863.10,305.00 863.72,305.00 864.35,305.00 864.97,305.00 865.60,305.00 866.22,305.00 866.84,305.00 867.47,305.00 868.10,305.00 868.72,305.00 869.34,305.00 869.96,305.00 870.59,305.00 871.21,305.00 871.83,305.00 872.45,305.00 873.08,305.00 873.71,305.00 874.34,305.00 874.96,305.00 875.57,305.00 876.20,305.00 876.83,305.00 877.46,305.00 878.08,305.00 878.71,305.00 879.33,305.00 879.96,305.00 880.58,305.00 881.20,305.00 881.83,305.00 882.45,305.00 883.07,305.00 883.69,305.00 884.30,305.00 884.93,305.00 885.56,305.00 886.18,305.00 886.80,305.00 887.43,305.00 888.08,305.00 888.71,305.00 889.33,305.00 889.95,305.00 890.57,305.00 891.19,305.00 891.81,305.00 892.44,305.00 893.06,305.00 893.68,305.00 894.30,305.00 894.92,305.00 895.54,305.00 896.16,305.00 896.79,305.00 897.41,305.00 898.03,305.00 898.66,305.00 899.28,305.00 899.90,305.00 900.54,305.00 901.16,305.00 901.78,305.00 902.41,305.00 903.03,305.00 903.65,305.00 904.29,305.00 904.91,305.00 905.54,305.00 906.16,305.00 906.78,305.00 907.41,305.00 908.04,305.00 908.66,305.00 909.30,305.00 909.93,305.00 910.56,305.00 911.19,305.00 911.81,305.00 912.43,305.00 913.05,305.00 913.68,305.00 914.31,305.00 914.94,305.00 915.55,305.00 916.18,305.00 916.81,305.00 917.44,305.00 918.06,305.00 918.70,305.00 919.34,305.00 920.00,305.00 920.63,305.00 921.26,305.00 921.88,305.00 922.50,305.00 923.13,305.00 923.75,305.00 924.38,305.00 925.01,305.00 925.63,305.00 926.26,305.00 926.88,305.00 927.50,305.00 928.13,305.00 928.75,305.00 929.38,305.00 930.02,305.00 930.66,305.00 931.29,305.00 931.92,305.00 932.57,305.00 933.20,305.00 933.87,305.00 934.49,305.00 935.12,305.00 935.75,305.00 936.37,305.00 936.99,305.00 937.62,305.00 938.24,305.00 938.87,305.00 939.49,305.00 940.11,305.00 940.75,305.00 941.38,305.00 942.00,305.00 942.64,305.00 943.37,305.00 944.00,305.00 944.61,305.00 945.24,305.00 945.86,305.00 946.48,305.00 947.09,305.00 947.67,305.00 948.23,305.00 948.91,305.00 949.49,305.00 950.06,305.00 950.70,305.00 951.24,305.00 951.86,305.00 952.49,305.00 953.12,305.00 953.74,305.00 954.36,305.00 954.98,305.00 955.60,305.00 956.22,305.00 956.85,305.00 957.47,305.00 958.09,305.00 958.72,305.00 959.34,305.00 959.96,305.00 960.58,305.00 961.20,305.00 961.82,305.00 962.44,305.00 963.06,305.00 963.68,305.00 964.31,305.00 964.93,305.00 965.56,305.00 966.18,305.00 966.79,305.00 967.42,305.00 968.04,305.00 968.66,305.00 969.28,305.00 969.90,305.00 970.52,305.00 971.14,305.00 971.76,305.00 972.39,305.00 973.01,305.00 973.63,305.00 974.25,305.00 974.88,305.00 975.50,305.00 976.12,305.00 976.74,305.00 977.37,305.00 977.99,305.00 978.61,305.00 979.22,305.00 979.84,305.00 980.46,305.00 981.09,305.00 981.70,305.00 982.32,305.00 982.96,305.00 983.58,305.00 984.21,305.00 984.83,305.00 985.45,305.00 986.08,305.00 986.70,305.00 987.32,305.00 987.95,305.00 988.57,305.00 989.19,305.00 989.81,305.00 990.43,305.00 991.06,305.00 991.68,305.00 992.30,305.00 992.92,305.00 993.55,305.00 994.17,305.00 994.79,305.00 995.41,305.00 996.04,305.00 996.66,305.00 997.28,305.00 997.90,305.00 998.53,305.00 999.15,305.00 999.83,305.00 1000.46,305.00 1001.08,305.00 1001.70,305.00 1002.32,305.00 1002.95,305.00 1003.56,305.00 1004.19,305.00 1005.06,305.00 1005.69,305.00 1006.55,305.00 1007.17,305.00 1007.80,305.00 1008.42,305.00 1009.05,305.00 1009.67,305.00 1010.29,305.00 1010.90,305.00 1011.53,305.00 1012.15,305.00 1012.77,305.00 1013.39,305.00 1014.01,305.00 1014.64,305.00 1015.27,305.00 1015.89,305.00 1016.51,305.00 1017.14,305.00 1017.76,305.00 1018.39,305.00 1019.01,305.00 1019.63,305.00 1020.26,305.00 1020.88,305.00 1021.50,305.00 1022.12,305.00 1022.75,305.00 1023.38,305.00 1024.00,305.00 1024.62,305.00 1025.25,305.00 1025.89,305.00 1026.53,305.00 1027.16,305.00 1027.81,305.00 1028.43,305.00 1029.05,305.00 1029.68,305.00 1030.31,305.00 1030.93,305.00 1031.55,305.00 1032.17,305.00 1032.79,305.00 1033.43,305.00 1034.05,305.00 1034.68,305.00 1035.31,305.00 1035.94,305.00 1036.56,305.00 1037.19,305.00 1037.81,305.00 1038.44,305.00 1039.06,305.00 1039.69,305.00 1040.32,305.00 1040.95,305.00 1041.58,305.00 1042.20,305.00 1042.83,305.00 1043.45,305.00 1044.08,305.00 1044.70,305.00 1045.34,305.00 1045.97,305.00 1046.59,305.00 1047.22,305.00 1047.84,305.00 1048.47,305.00 1049.09,305.00 1049.72,305.00 1050.34,305.00 1050.96,305.00 1051.59,305.00 1052.21,305.00 1052.83,305.00 1053.45,305.00 1054.10,305.00 1054.73,305.00 1055.36,305.00 1055.98,305.00 1056.60,305.00 1057.23,305.00 1057.85,305.00 1058.47,305.00 1059.10,305.00 1059.72,305.00 1060.35,305.00 1060.97,305.00 1061.60,305.00 1062.23,305.00 1062.85,305.00 1063.47,305.00 1064.10,305.00 1064.72,305.00 1065.35,305.00 1065.98,305.00 1066.61,305.00 1067.23,305.00 1067.86,305.00 1068.49,305.00 1069.11,305.00 1069.74,305.00 1070.37,305.00 1070.99,305.00 1071.63,305.00 1072.26,305.00 1072.88,305.00 1073.50,305.00 1074.12,305.00 1074.75,305.00 1075.38,305.00 1076.01,305.00 1076.64,305.00 1077.28,305.00 1077.91,305.00 1078.53,305.00 1079.16,305.00 1079.79,305.00 1080.41,305.00 1081.04,305.00 1081.66,305.00 1082.30,305.00 1082.92,305.00 1083.54,305.00 1084.17,305.00 1084.79,305.00 1085.42,305.00 1086.05,305.00 1086.67,305.00 1087.31,305.00 1087.94,305.00 1088.57,305.00 1089.20,305.00 1089.83,305.00 1090.45,305.00 1091.08,305.00 1091.70,305.00 1092.33,305.00 1092.98,305.00 1093.60,305.00 1094.23,305.00 1094.86,305.00 1095.49,305.00 1096.11,305.00 1096.75,305.00 1097.38,305.00 1098.02,305.00 1098.64,305.00 1099.28,305.00 1099.91,305.00 1100.57,305.00 1101.19,305.00 1101.83,305.00 1102.45,305.00 1103.07,305.00 1103.70,305.00 1104.32,305.00 1104.95,305.00 1105.59,305.00 1106.21,305.00 1106.85,305.00 1107.48,305.00 1108.10,305.00 1108.73,305.00 1109.36,305.00 1109.98,305.00 1110.63,305.00 1111.25,305.00 1111.87,305.00 1112.50,305.00 1113.13,305.00 1113.75,305.00 1114.39,305.00 1115.02,305.00 1115.64,305.00 1116.26,305.00 1116.88,305.00 1117.50,305.00 1118.13,305.00 1118.75,305.00 1119.39,305.00 1120.01,305.00 1120.64,305.00 1121.27,305.00 1121.89,305.00 1122.50,305.00 1123.13,305.00 1123.76,305.00 1124.39,305.00 1125.01,305.00 1125.63,305.00 1126.25,305.00 1126.88,305.00 1127.51,305.00 1128.15,305.00 1128.78,305.00 1129.41,305.00 1130.03,305.00 1130.65,305.00 1131.27,305.00 1131.89,305.00 1132.52,305.00 1133.15,305.00 1133.80,305.00 1134.43,305.00 1135.06,305.00 1135.68,305.00 1136.30,305.00 1136.92,305.00 1137.54,305.00 1138.16,305.00 1138.79,305.00 1139.41,305.00 1140.03,305.00 1140.65,305.00 1141.27,305.00 1141.90,305.00 1142.52,305.00 1143.14,305.00 1143.76,305.00 1144.39,305.00 1145.01,305.00 1145.65,305.00 1146.28,305.00 1146.90,305.00 1147.53,305.00 1148.15,305.00 1148.78,305.00 1149.41,305.00 1150.03,305.00 1150.65,305.00 1151.27,305.00 1151.89,305.00 1152.52,305.00 1153.14,305.00 1153.77,305.00 1154.39,305.00 1155.00,305.00 1155.63,305.00 1156.25,305.00 1156.87,305.00 1157.49,305.00 1158.11,305.00 1158.73,305.00 1159.36,305.00 1159.99,305.00 1160.61,305.00 1161.24,305.00 1161.86,305.00 1162.49,305.00 1163.11,305.00 1163.73,305.00 1164.35,305.00 1164.98,305.00 1165.61,305.00 1166.23,305.00 1166.86,305.00 1167.48,305.00 1168.10,305.00 1168.73,305.00 1169.36,305.00 1169.99,305.00 1170.62,305.00 1171.25,305.00 1171.88,305.00 1172.50,305.00 1173.12,305.00 1173.74,305.00 1174.36,305.00 1174.99,305.00 1175.61,305.00 1176.24,305.00 1176.85,305.00 1177.48,305.00 1178.13,305.00 1178.75,305.00 1179.38,305.00 1180.00,305.00"/>
<polyline fill="none" stroke="#9467bd" stroke-opacity="0.80" stroke-width="2" points="70.00,305.00 70.62,305.00 71.25,305.00 71.87,305.00 72.49,305.00 73.12,305.00 73.74,305.00 74.36,305.00 75.03,305.00 75.65,305.00 76.27,305.00 76.89,305.00 77.52,305.00 78.14,305.00 78.76,305.00 79.88,305.00 80.84,305.00 81.47,305.00 82.11,305.00 82.73,305.00 83.35,305.00 83.96,305.00 84.59,305.00 85.21,305.00 85.83,305.00 86.46,305.00 87.09,305.00 87.72,305.00 88.34,305.00 89.00,305.00 89.62,305.00 90.24,305.00 90.88,305.00 91.50,305.00 92.13,305.00 92.77,305.00 93.38,305.00 94.01,305.00 94.64,305.00 95.26,305.00 95.88,305.00 96.49,305.00 97.11,305.00 97.74,305.00 98.36,305.00 98.99,305.00 99.62,305.00 100.23,305.00 100.85,305.00 101.48,305.00 102.10,305.00 102.82,305.00 103.44,305.00 104.06,305.00 104.67,305.00 105.29,305.00 105.91,305.00 106.53,305.00 107.15,305.00 107.77,305.00 108.41,305.00 109.03,305.00 109.64,305.00 110.27,305.00 110.90,305.00 111.52,305.00 112.14,305.00 112.76,305.00 113.37,305.00 113.99,305.00 114.61,305.00 115.23,305.00 115.85,305.00 116.47,305.00 117.09,305.00 117.71,305.00 118.33,305.00 118.96,305.00 119.57,305.00 120.19,305.00 120.83,305.00 121.45,305.00 122.07,305.00 122.70,305.00 123.31,305.00 123.94,305.00 124.56,305.00 125.17,305.00 125.79,305.00 126.42,305.00 127.04,305.00 127.66,305.00 128.29,305.00 128.90,305.00 129.53,305.00 130.15,305.00 130.77,305.00 131.38,305.00 132.01,305.00 132.62,305.00 133.25,305.00 133.87,305.00 134.49,305.00 135.11,305.00 135.74,305.00 136.37,305.00 136.99,305.00 137.61,305.00 138.23,305.00 138.85,305.00 139.48,305.00 140.10,305.00 140.72,305.00 141.34,305.00 141.96,305.00 142.59,305.00 143.21,305.00 143.85,305.00 144.47,305.00 145.09,305.00 145.71,305.00 146.33,305.00 146.95,305.00 147.58,305.00 148.25,305.00 148.87,305.00 149.50,305.00 150.12,305.00 150.74,305.00 151.35,305.00 151.96,305.00 152.58,305.00 153.21,305.00 153.83,305.00 154.45,305.00 155.07,305.00 155.69,305.00 156.30,305.00 156.94,305.00 157.56,305.00 158.18,305.00 158.79,305.00 159.42,305.00 160.03,305.00 160.66,305.00 161.28,305.00 161.91,305.00 162.53,305.00 163.15,305.00 163.77,305.00 164.38,305.00 165.00,305.00 165.62,305.00 166.25,305.00 166.88,305.00 167.50,305.00 168.12,305.00 168.75,305.00 169.37,305.00 169.99,305.00 170.61,305.00 171.23,305.00 171.86,305.00 172.49,305.00 173.11,305.00 173.74,305.00 174.35,305.00 174.97,305.00 175.59,305.00 176.21,305.00 176.83,305.00 177.45,305.00 178.07,305.00 178.69,305.00 179.32,305.00 179.94,305.00 180.56,305.00 181.20,305.00 181.82,305.00 182.44,305.00 183.06,305.00 183.67,305.00 184.35,305.00 184.98,305.00 185.60,305.00 186.22,305.00 186.83,305.00 187.46,305.00 188.08,305.00 188.70,305.00 189.32,305.00 189.94,305.00 190.56,305.00 191.18,305.00 191.82,305.00 192.44,305.00 193.06,305.00 193.68,305.00 194.31,305.00 194.94,305.00 195.57,305.00 196.19,305.00 196.81,305.00 197.44,305.00 198.05,305.00 198.68,305.00 199.30,305.00 199.93,305.00 200.55,305.00 201.17,305.00 201.79,305.00 202.42,305.00 203.04,305.00 203.66,305.00 204.29,305.00 204.91,305.00 205.53,305.00 206.14,305.00 206.76,305.00 207.39,305.00 208.01,305.00 208.63,305.00 209.25,305.00 209.86,305.00 210.48,305.00 211.11,305.00 211.73,305.00 212.35,305.00 212.98,305.00 213.61,305.00 214.23,305.00 214.85,305.00 215.48,305.00 216.10,305.00 216.72,305.00 217.34,305.00 217.98,305.00 218.60,305.00 219.22,305.00 219.85,305.00 220.46,305.00 221.09,305.00 221.70,305.00 222.32,305.00 222.95,305.00 223.57,305.00 224.19,305.00 224.82,305.00 225.44,305.00 226.06,305.00 226.69,305.00 227.31,305.00 227.94,305.00 228.56,305.00 229.18,305.00 229.80,305.00 230.43,305.00 231.06,305.00 231.68,305.00 232.30,305.00 232.99,305.00 233.61,305.00 234.24,305.00 234.86,305.00 235.49,305.00 236.11,305.00 236.73,305.00 237.36,305.00 237.97,305.00 238.62,305.00 239.25,305.00 239.86,305.00 240.48,305.00 241.10,305.00 241.73,305.00 242.35,305.00 243.00,305.00 243.62,305.00 244.24,305.00 244.87,305.00 245.54,305.00 246.16,305.00 246.94,305.00 247.99,305.00 248.63,305.00 249.27,305.00 249.89,305.00 250.50,305.00 251.11,305.00 251.75,305.00 252.37,305.00 253.00,305.00 253.64,305.00 254.29,305.00 254.95,305.00 255.57,305.00 256.19,305.00 256.82,305.00 257.45,305.00 258.08,305.00 258.70,305.00 259.32,305.00 259.94,305.00 260.59,305.00 261.22,305.00 261.83,305.00 262.45,305.00 263.09,305.00 263.73,305.00 264.36,305.00 264.98,305.00 265.62,305.00 266.22,305.00 266.83,305.00 267.47,305.00 268.09,305.00 268.72,305.00 269.36,305.00 269.98,305.00 270.60,305.00 271.23,305.00 271.86,305.00 272.49,305.00 273.11,305.00 273.72,305.00 274.35,305.00 274.97,305.00 275.59,305.00 276.33,305.00 277.06,305.00 277.80,305.00 278.52,305.00 279.23,305.00 279.95,305.00 280.69,305.00 281.41,305.00 282.03,305.00 282.65,305.00 283.27,305.00 283.89,305.00 284.51,305.00 285.13,305.00 285.75,305.00 286.37,305.00 286.99,305.00 287.61,305.00 288.23,305.00 288.85,305.00 289.47,305.00 290.08,305.00 290.70,305.00 291.32,305.00 291.94,305.00 292.56,305.00 293.18,305.00 293.81,305.00 294.42,305.00 295.04,305.00 295.66,305.00 296.28,305.00 296.90,305.00 297.52,305.00 298.14,305.00 298.77,305.00 299.39,305.00 300.01,305.00 300.63,305.00 301.25,305.00 301.86,305.00 302.48,305.00 303.10,305.00 303.71,305.00 304.33,305.00 304.95,305.00 305.56,305.00 306.18,305.00 306.80,305.00 307.42,305.00 308.04,305.00 308.65,305.00 309.26,305.00 309.90,305.00 310.57,305.00 311.20,305.00 311.82,305.00 312.44,305.00 313.06,305.00 313.67,305.00 314.29,305.00 314.91,305.00 315.64,305.00 316.37,305.00 317.09,305.00 317.82,305.00 318.55,305.00 319.28,305.00 320.02,305.00 320.77,305.00 321.45,305.00 322.12,305.00 322.74,305.00 323.37,305.00 323.99,305.00 324.60,305.00 325.22,305.00 325.84,305.00 326.46,305.00 327.08,305.00 327.70,305.00 328.32,305.00 328.94,305.00 329.56,305.00 330.19,305.00 330.81,305.00 331.43,305.00 331.97,305.00 332.61,305.00 333.23,305.00 333.87,305.00 334.49,305.00 335.11,305.00 335.74,305.00 336.36,305.00 336.99,305.00 337.61,305.00 338.24,305.00 338.87,305.00 339.49,305.00 340.10,305.00 340.73,305.00 341.34,305.00 341.96,305.00 342.57,305.00 343.20,305.00 343.82,305.00 344.44,305.00 345.06,305.00 345.68,305.00 346.31,305.00 346.93,305.00 347.55,305.00 348.18,305.00 348.80,305.00 349.42,305.00 350.04,305.00 350.67,305.00 351.31,305.00 351.92,305.00 352.54,305.00 353.16,305.00 353.78,305.00 354.40,305.00 355.02,305.00 355.64,305.00 356.26,305.00 356.88,305.00 357.50,305.00 358.12,305.00 358.74,305.00 359.37,305.00 359.99,305.00 360.74,305.00 361.38,305.00 362.01,305.00 362.64,305.00 363.26,305.00 363.89,305.00 364.51,305.00 365.13,305.00 365.75,305.00 366.38,305.00 367.00,305.00 367.62,305.00 368.25,305.00 368.87,305.00 369.51,305.00 370.14,305.00 370.76,305.00 371.39,305.00 372.01,305.00 372.63,305.00 373.25,305.00 373.87,305.00 374.52,305.00 375.14,305.00 375.77,305.00 376.39,305.00 377.01,305.00 377.64,305.00 378.25,305.00 378.88,305.00 379.50,305.00 380.12,305.00 380.75,305.00 381.37,305.00 381.99,305.00 382.61,305.00 383.23,305.00 383.87,305.00 384.49,305.00 385.11,305.00 385.73,305.00 386.35,305.00 386.98,305.00 387.60,305.00 388.35,305.00 388.99,305.00 389.61,305.00 390.24,305.00 390.85,305.00 391.48,305.00 392.10,305.00 392.73,305.00 393.36,305.00 393.98,305.00 394.60,305.00 395.22,305.00 395.84,305.00 396.46,305.00 397.08,305.00 397.71,305.00 398.32,305.00 398.94,305.00 399.56,305.00 400.18,305.00 400.81,305.00 401.43,305.00 402.05,305.00 402.68,305.00 403.31,305.00 403.93,305.00 404.55,305.00 405.17,305.00 405.81,305.00 406.43,305.00 407.05,305.00 407.68,305.00 408.30,305.00 408.92,305.00 409.54,305.00 410.17,305.00 410.81,305.00 411.43,305.00 412.05,305.00 412.66,305.00 413.28,305.00 413.90,305.00 414.53,305.00 415.15,305.00 415.77,305.00 416.40,305.00 417.03,305.00 417.64,305.00 418.27,305.00 418.89,305.00 419.51,305.00 420.13,305.00 420.75,305.00 421.37,305.00 422.00,305.00 422.62,305.00 423.24,305.00 423.87,305.00 424.50,305.00 425.12,305.00 425.75,305.00 426.37,305.00 427.07,305.00 427.76,305.00 428.42,305.00 429.05,305.00 429.70,305.00 430.32,305.00 430.95,305.00 431.56,305.00 432.15,305.00 432.79,305.00 433.42,305.00 434.05,305.00 434.66,305.00 435.28,305.00 435.90,305.00 436.53,305.00 437.15,305.00 437.77,305.00 438.39,305.00 439.02,305.00 439.64,305.00 440.27,305.00 440.90,305.00 441.52,305.00 442.15,305.00 442.77,305.00 443.40,305.00 444.03,305.00 444.66,305.00 445.27,305.00 445.89,305.00 446.52,305.00 447.14,305.00 447.76,305.00 448.38,305.00 449.00,305.00 449.64,305.00 450.25,305.00 450.87,305.00 451.50,305.00 452.12,305.00 452.75,305.00 453.37,305.00 453.99,305.00 454.62,305.00 455.24,305.00 455.87,305.00 456.49,305.00 457.12,305.00 457.75,305.00 458.37,305.00 458.99,305.00 459.62,305.00 460.25,305.00 460.89,305.00 461.51,305.00 462.14,305.00 462.76,305.00 463.38,305.00 464.00,305.00 464.63,305.00 465.25,305.00 465.88,305.00 466.50,305.00 467.13,305.00 467.75,305.00 468.38,305.00 469.01,305.00 469.63,305.00 470.26,305.00 470.88,305.00 471.51,305.00 472.14,305.00 472.76,305.00 473.38,305.00 474.01,305.00 474.64,305.00 475.27,305.00 475.90,305.00 476.53,305.00 477.15,305.00 477.77,305.00 478.39,305.00 479.02,305.00 479.64,305.00 480.27,305.00 480.89,305.00 481.51,305.00 482.14,305.00 482.76,305.00 483.39,305.00 484.01,305.00 484.63,305.00 485.27,305.00 485.89,305.00 486.52,305.00 487.14,305.00 487.76,305.00 488.38,305.00 489.00,305.00 489.62,305.00 490.25,305.00 490.88,305.00 491.50,305.00 492.13,305.00 492.75,305.00 493.38,305.00 494.01,305.00 494.63,305.00 495.26,305.00 495.89,305.00 496.51,305.00 497.14,305.00 497.76,305.00 498.40,305.00 499.02,305.00 499.65,305.00 500.28,305.00 500.91,305.00 501.54,305.00 502.16,305.00 502.78,305.00 503.41,305.00 504.04,305.00 504.67,305.00 505.30,305.00 505.92,305.00 506.54,305.00 507.16,305.00 507.80,305.00 508.42,305.00 509.05,305.00 509.68,305.00 510.30,305.00 510.92,305.00 511.54,305.00 512.16,305.00 512.79,305.00 513.41,305.00 514.04,305.00 514.66,305.00 515.28,305.00 515.91,305.00 516.55,305.00 517.18,305.00 517.80,305.00 518.42,305.00 519.04,305.00 519.66,305.00 520.29,305.00 520.92,305.00 521.54,305.00 522.16,305.00 522.79,305.00 523.42,305.00 524.04,305.00 524.67,305.00 525.30,305.00 525.94,305.00 526.57,305.00 527.20,305.00 527.83,305.00 528.45,305.00 529.08,305.00 529.70,305.00 530.32,305.00 530.94,305.00 531.57,305.00 532.20,305.00 532.83,305.00 533.45,305.00 534.08,305.00 534.73,305.00 535.36,305.00 535.98,305.00 536.61,305.00 537.23,305.00 537.86,305.00 538.49,305.00 539.12,305.00 539.74,305.00 540.38,305.00 541.00,305.00 541.63,305.00 542.26,305.00 542.88,305.00 543.51,305.00 544.13,305.00 544.75,305.00 545.38,305.00 546.01,305.00 546.64,305.00 547.26,305.00 547.89,305.00 548.52,305.00 549.14,305.00 549.77,305.00 550.40,305.00 551.04,305.00 551.67,305.00 552.30,305.00 552.93,305.00 553.57,305.00 554.21,305.00 554.84,305.00 555.48,305.00 556.12,305.00 556.75,305.00 557.38,305.00 558.00,305.00 558.63,305.00 559.26,305.00 559.88,305.00 560.53,305.00 561.15,305.00 561.78,305.00 562.40,305.00 563.02,305.00 563.65,305.00 564.28,305.00 564.90,305.00 565.52,305.00 566.14,305.00 566.77,305.00 567.39,305.00 568.01,305.00 568.63,305.00 569.26,305.00 569.89,305.00 570.51,305.00 571.14,305.00 571.77,305.00 572.39,305.00 573.02,305.00 573.65,305.00 574.27,305.00 574.89,305.00 575.52,305.00 576.14,305.00 576.77,305.00 577.39,305.00 578.01,305.00 578.63,305.00 579.25,305.00 579.88,305.00 580.51,305.00 581.13,305.00 581.76,305.00 582.38,305.00 583.00,305.00 583.63,305.00 584.25,305.00 584.87,305.00 585.49,305.00 586.10,305.00 586.73,305.00 587.35,305.00 587.99,305.00 588.61,305.00 589.23,305.00 589.86,305.00 590.50,305.00 591.12,305.00 591.75,305.00 592.38,305.00 593.00,305.00 593.62,305.00 594.26,305.00 594.88,305.00 595.51,305.00 596.14,305.00 596.77,305.00 597.39,305.00 598.01,305.00 598.63,305.00 599.26,305.00 599.88,305.00 600.50,305.00 601.12,305.00 601.75,305.00 602.38,305.00 603.00,305.00 603.62,305.00 604.24,305.00 604.87,305.00 605.49,305.00 606.12,305.00 606.75,305.00 607.37,305.00 608.00,305.00 608.63,305.00 609.25,305.00 609.87,305.00 610.50,305.00 611.12,305.00 611.74,305.00 612.37,305.00 613.00,305.00 613.62,305.00 614.24,305.00 614.87,305.00 615.51,305.00 616.14,305.00 616.77,305.00 617.41,305.00 618.03,305.00 618.66,305.00 619.29,305.00 619.91,305.00 620.54,305.00 621.16,305.00 621.79,305.00 622.43,305.00 623.06,305.00 623.68,305.00 624.31,305.00 624.93,305.00 625.56,305.00 626.19,305.00 626.81,305.00 627.43,305.00 628.06,305.00 628.68,305.00 629.31,305.00 629.93,305.00 630.56,305.00 631.17,305.00 631.80,305.00 632.42,305.00 633.04,305.00 633.67,305.00 634.30,305.00 634.92,305.00 635.55,305.00 636.17,305.00 636.80,305.00 637.41,305.00 638.05,305.00 638.67,305.00 639.30,305.00 639.93,305.00 640.55,305.00 641.17,305.00 641.80,305.00 642.42,305.00 643.04,305.00 643.67,305.00 644.31,305.00 644.95,305.00 645.59,305.00 646.22,305.00 646.86,305.00 647.50,305.00 648.14,305.00 648.79,305.00 649.42,305.00 650.07,305.00 650.69,305.00 651.31,305.00 651.94,305.00 652.57,305.00 653.20,305.00 653.82,305.00 654.45,305.00 655.08,305.00 655.70,305.00 656.33,305.00 656.95,305.00 657.57,305.00 658.20,305.00 658.82,305.00 659.44,305.00 660.07,305.00 660.70,305.00 661.32,305.00 661.96,305.00 662.59,305.00 663.21,305.00 663.83,305.00 664.46,305.00 665.08,305.00 665.71,305.00 666.33,305.00 666.96,305.00 667.58,305.00 668.21,305.00 668.83,305.00 669.46,305.00 670.09,305.00 670.71,305.00 671.34,305.00 672.00,305.00 672.65,305.00 673.27,305.00 673.90,305.00 674.52,305.00 675.15,305.00 675.79,305.00 676.42,305.00 677.04,305.00 677.66,305.00 678.27,305.00 678.90,305.00 679.52,305.00 680.15,305.00 680.78,305.00 681.40,305.00 682.03,305.00 682.66,305.00 683.29,305.00 683.91,305.00 684.53,305.00 685.15,305.00 685.78,305.00 686.41,305.00 687.03,305.00 687.65,305.00 688.29,305.00 688.91,305.00 689.54,305.00 690.19,305.00 690.82,305.00 691.44,305.00 692.06,305.00 692.69,305.00 693.31,305.00 693.94,305.00 694.57,305.00 695.19,305.00 695.82,305.00 696.45,305.00 697.08,305.00 697.71,305.00 698.34,305.00 698.97,305.00 699.59,305.00 700.22,305.00 700.84,305.00 701.47,305.00 702.09,305.00 702.72,305.00 703.35,305.00 703.97,305.00 704.60,305.00 705.22,305.00 705.85,305.00 706.47,305.00 707.09,305.00 707.72,305.00 708.34,305.00 708.97,305.00 709.59,305.00 710.22,305.00 710.84,305.00 711.47,305.00 712.10,305.00 712.72,305.00 713.34,305.00 713.96,305.00 714.58,305.00 715.21,305.00 715.84,305.00 716.46,305.00 717.10,305.00 717.73,305.00 718.36,305.00 718.99,305.00 719.61,305.00 720.24,305.00 720.92,305.00 721.55,305.00 722.18,305.00 722.82,305.00 723.45,305.00 724.07,305.00 724.69,305.00 725.32,305.00 725.95,305.00 726.57,305.00 727.20,305.00 727.83,305.00 728.45,305.00 729.09,305.00 729.72,305.00 730.35,305.00 730.97,305.00 731.60,305.00 732.23,305.00 732.85,305.00 733.48,305.00 734.10,305.00 734.73,305.00 735.36,305.00 735.99,305.00 736.62,305.00 737.24,305.00 737.87,305.00 738.51,305.00 739.13,305.00 739.76,305.00 740.38,305.00 741.01,305.00 741.64,305.00 742.26,305.00 742.88,305.00 743.51,305.00 744.13,305.00 744.76,305.00 745.39,305.00 746.01,305.00 746.63,305.00 747.26,305.00 747.89,305.00 748.51,305.00 749.14,305.00 749.77,305.00 750.40,305.00 751.03,305.00 751.64,305.00 752.25,305.00 752.87,305.00 753.50,305.00 754.13,305.00 754.76,305.00 755.39,305.00 756.01,305.00 756.65,305.00 757.28,305.00 757.90,305.00 758.53,305.00 759.15,305.00 759.77,305.00 760.39,305.00 761.01,305.00 761.64,305.00 762.27,305.00 762.89,305.00 763.51,305.00 764.13,305.00 764.76,305.00 765.38,305.00 766.01,305.00 766.63,305.00 767.25,305.00 767.86,305.00 768.50,305.00 769.12,305.00 769.75,305.00 770.38,305.00 771.01,305.00 771.63,305.00 772.25,305.00 772.88,305.00 773.51,305.00 774.13,305.00 774.76,305.00 775.43,305.00 776.05,305.00 776.69,305.00 777.31,305.00 777.95,305.00 778.57,305.00 779.19,305.00 779.82,305.00 780.44,305.00 781.07,305.00 781.69,305.00 782.31,305.00 782.94,305.00 783.58,305.00 784.20,305.00 784.83,305.00 785.45,305.00 786.08,305.00 786.70,305.00 787.33,305.00 787.96,305.00 788.59,305.00 789.23,305.00 789.86,305.00 790.49,305.00 791.11,305.00 791.74,305.00 792.37,305.00 793.00,305.00 793.62,305.00 794.24,305.00 794.87,305.00 795.50,305.00 796.12,305.00 796.75,305.00 797.38,305.00 798.00,305.00 798.63,305.00 799.25,305.00 799.87,305.00 800.50,305.00 801.13,305.00 801.75,305.00 802.37,305.00 803.00,305.00 803.62,305.00 804.24,305.00 804.86,305.00 805.48,305.00 806.10,305.00 806.73,305.00 807.35,305.00 807.97,305.00 808.59,305.00 809.22,305.00 809.84,305.00 810.47,305.00 811.09,305.00 811.71,305.00 812.33,305.00 812.95,305.00 813.59,305.00 814.21,305.00 814.83,305.00 815.46,305.00 816.11,305.00 816.73,305.00 817.36,305.00 817.99,305.00 818.62,305.00 819.24,305.00 819.87,305.00 820.50,305.00 821.12,305.00 821.75,305.00 822.36,305.00 822.99,305.00 823.62,305.00 824.24,305.00 824.87,305.00 825.49,305.00 826.11,305.00 826.73,305.00 827.36,305.00 827.98,305.00 828.62,305.00 829.27,305.00 829.89,305.00 830.51,305.00 831.13,305.00 831.75,305.00 832.38,305.00 833.00,305.00 833.63,305.00 834.26,305.00 834.88,305.00 835.51,305.00 836.14,305.00 836.76,305.00 837.39,305.00 838.01,305.00 838.64,305.00 839.27,305.00 839.89,305.00 840.51,305.00 841.13,305.00 841.75,305.00 842.38,305.00 843.00,305.00 843.62,305.00 844.25,305.00 844.87,305.00 845.50,305.00 846.12,305.00 846.75,305.00 847.37,305.00 848.00,305.00 848.62,305.00 849.24,305.00 849.88,305.00 850.49,305.00 851.12,305.00 851.75,305.00 852.37,305.00 852.99,305.00 853.61,305.00 854.24,305.00 854.86,305.00 855.50,305.00 856.12,305.00 856.75,305.00 857.37,305.00 858.00,305.00 858.63,305.00 859.27,305.00 859.89,305.00 860.56,305.00 861.18,305.00 861.86,305.00 862.48,305.00 863.10,305.00 863.72,305.00 864.35,305.00 864.97,305.00 865.60,305.00 866.22,305.00 866.84,305.00 867.47,305.00 868.10,305.00 868.72,305.00 869.34,305.00 869.96,305.00 870.59,305.00 871.21,305.00 871.83,305.00 872.45,305.00 873.08,305.00 873.71,305.00 874.34,305.00 874.96,305.00 875.57,305.00 876.20,305.00 876.83,305.00 877.46,305.00 878.08,305.00 878.71,305.00 879.33,305.00 879.96,305.00 880.58,305.00 881.20,305.00 881.83,305.00 882.45,305.00 883.07,305.00 883.69,305.00 884.30,305.00 884.93,305.00 885.56,305.00 886.18,305.00 886.80,305.00 887.43,305.00 888.08,305.00 888.71,305.00 889.33,305.00 889.95,305.00 890.57,305.00 891.19,305.00 891.81,305.00 892.44,305.00 893.06,305.00 893.68,305.00 894.30,305.00 894.92,305.00 895.54,305.00 896.16,305.00 896.79,305.00 897.41,305.00 898.03,305.00 898.66,305.00 899.28,305.00 899.90,305.00 900.54,305.00 901.16,305.00 901.78,305.00 902.41,305.00 903.03,305.00 903.65,305.00 904.29,305.00 904.91,305.00 905.54,305.00 906.16,305.00 906.78,305.00 907.41,305.00 908.04,305.00 908.66,305.00 909.30,305.00 909.93,305.00 910.56,305.00 911.19,305.00 911.81,305.00 912.43,305.00 913.05,305.00 913.68,305.00 914.31,305.00 914.94,305.00 915.55,305.00 916.18,305.00 916.81,305.00 917.44,305.00 918.06,305.00 918.70,305.00 919.34,305.00 920.00,305.00 920.63,305.00 921.26,305.00 921.88,305.00 922.50,305.00 923.13,305.00 923.75,305.00 924.38,305.00 925.01,305.00 925.63,305.00 926.26,305.00 926.88,305.00 927.50,305.00 928.13,305.00 928.75,305.00 929.38,305.00 930.02,305.00 930.66,305.00 931.29,305.00 931.92,305.00 932.57,305.00 933.20,305.00 933.87,305.00 934.49,305.00 935.12,305.00 935.75,305.00 936.37,305.00 936.99,305.00 937.62,305.00 938.24,305.00 938.87,305.00 939.49,305.00 940.11,305.00 940.75,305.00 941.38,305.00 942.00,305.00 942.64,305.00 943.37,305.00 944.00,305.00 944.61,305.00 945.24,305.00 945.86,305.00 946.48,305.00 947.09,305.00 947.67,305.00 948.23,305.00 950.06,305.00 951.24,305.00 951.86,305.00 952.49,305.00 953.12,305.00 953.74,305.00 954.36,305.00 954.98,305.00 955.60,305.00 956.22,305.00 956.85,305.00 957.47,305.00 958.09,305.00 958.72,305.00 959.34,305.00 959.96,305.00 960.58,305.00 961.20,305.00 961.82,305.00 962.44,305.00 963.06,305.00 963.68,305.00 964.31,305.00 964.93,305.00 965.56,305.00 966.18,305.00 966.79,305.00 967.42,305.00 968.04,305.00 968.66,305.00 969.28,305.00 969.90,305.00 970.52,305.00 971.14,305.00 971.76,305.00 972.39,305.00 973.01,305.00 973.63,305.00 974.25,305.00 974.88,305.00 975.50,305.00 976.12,305.00 976.74,305.00 977.37,305.00 977.99,305.00 978.61,305.00 979.22,305.00 979.84,305.00 980.46,305.00 981.09,305.00 981.70,305.00 982.32,305.00 982.96,305.00 983.58,305.00 984.21,305.00 984.83,305.00 985.45,305.00 986.08,305.00 986.70,305.00 987.32,305.00 987.95,305.00 988.57,305.00 989.19,305.00 989.81,305.00 990.43,305.00 991.06,305.00 991.68,305.00 992.30,305.00 992.92,305.00 993.55,305.00 994.17,305.00 994.79,305.00 995.41,305.00 996.04,305.00 996.66,305.00 997.28,305.00 997.90,305.00 998.53,305.00 999.15,305.00 999.83,305.00 1000.46,305.00 1001.08,305.00 1001.70,305.00 1002.32,305.00 1002.95,305.00 1003.56,305.00 1004.19,305.00 1005.06,305.00 1005.69,305.00 1006.55,305.00 1007.17,305.00 1007.80,305.00 1008.42,305.00 1009.05,305.00 1009.67,305.00 1010.29,305.00 1010.90,305.00 1011.53,305.00 1012.15,305.00 1012.77,305.00 1013.39,305.00 1014.01,305.00 1014.64,305.00 1015.27,305.00 1015.89,305.00 1016.51,305.00 1017.14,305.00 1017.76,305.00 1018.39,305.00 1019.01,305.00 1019.63,305.00 1020.26,305.00 1020.88,305.00 1021.50,305.00 1022.12,305.00 1022.75,305.00 1023.38,305.00 1024.00,305.00 1024.62,305.00 1025.25,305.00 1025.89,305.00 1026.53,305.00 1027.16,305.00 1027.81,305.00 1028.43,305.00 1029.05,305.00 1029.68,305.00 1030.31,305.00 1030.93,305.00 1031.55,305.00 1032.17,305.00 1032.79,305.00 1033.43,305.00 1034.05,305.00 1034.68,305.00 1035.31,305.00 1035.94,305.00 1036.56,305.00 1037.19,305.00 1037.81,305.00 1038.44,305.00 1039.06,305.00 1039.69,305.00 1040.32,305.00 1040.95,305.00 1041.58,305.00 1042.20,305.00 1042.83,305.00 1043.45,305.00 1044.08,305.00 1044.70,305.00 1045.34,305.00 1045.97,305.00 1046.59,305.00 1047.22,305.00 1047.84,305.00 1048.47,305.00 1049.09,305.00 1049.72,305.00 1050.34,305.00 1050.96,305.00 1051.59,305.00 1052.21,305.00 1052.83,305.00 1053.45,305.00 1054.10,305.00 1054.73,305.00 1055.36,305.00 1055.98,305.00 1056.60,305.00 1057.23,305.00 1057.85,305.00 1058.47,305.00 1059.10,305.00 1059.72,305.00 1060.35,305.00 1060.97,305.00 1061.60,305.00 1062.23,305.00 1062.85,305.00 1063.47,305.00 1064.10,305.00 1064.72,305.00 1065.35,305.00 1065.98,305.00 1066.61,305.00 1067.23,305.00 1067.86,305.00 1068.49,305.00 1069.11,305.00 1069.74,305.00 1070.37,305.00 1070.99,305.00 1071.63,305.00 1072.26,305.00 1072.88,305.00 1073.50,305.00 1074.12,305.00 1074.75,305.00 1075.38,305.00 1076.01,305.00 1076.64,305.00 1077.28,305.00 1077.91,305.00 1078.53,305.00 1079.16,305.00 1079.79,305.00 1080.41,305.00 1081.04,305.00 1081.66,305.00 1082.30,305.00 1082.92,305.00 1083.54,305.00 1084.17,305.00 1084.79,305.00 1085.42,305.00 1086.05,305.00 1086.67,305.00 1087.31,305.00 1087.94,305.00 1088.57,305.00 1089.20,305.00 1089.83,305.00 1090.45,305.00 1091.08,305.00 1091.70,305.00 1092.33,305.00 1092.98,305.00 1093.60,305.00 1094.23,305.00 1094.86,305.00 1095.49,305.00 1096.11,305.00 1096.75,305.00 1097.38,305.00 1098.02,305.00 1098.64,305.00 1099.28,305.00 1099.91,305.00 1100.57,305.00 1101.19,305.00 1101.83,305.00 1102.45,305.00 1103.07,305.00 1103.70,305.00 1104.32,305.00 1104.95,305.00 1105.59,305.00 1106.21,305.00 1106.85,305.00 1107.48,305.00 1108.10,305.00 1108.73,305.00 1109.36,305.00 1109.98,305.00 1110.63,305.00 1111.25,305.00 1111.87,305.00 1112.50,305.00 1113.13,305.00 1113.75,305.00 1114.39,305.00 1115.02,305.00 1115.64,305.00 1116.26,305.00 1116.88,305.00 1117.50,305.00 1118.13,305.00 1118.75,305.00 1119.39,305.00 1120.01,305.00 1120.64,305.00 1121.27,305.00 1121.89,305.00 1122.50,305.00 1123.13,305.00 1123.76,305.00 1124.39,305.00 1125.01,305.00 1125.63,305.00 1126.25,305.00 1126.88,305.00 1127.51,305.00 1128.15,305.00 1128.78,305.00 1129.41,305.00 1130.03,305.00 1130.65,305.00 1131.27,305.00 1131.89,305.00 1132.52,305.00 1133.15,305.00 1133.80,305.00 1134.43,305.00 1135.06,305.00 1135.68,305.00 1136.30,305.00 1136.92,305.00 1137.54,305.00 1138.16,305.00 1138.79,305.00 1139.41,305.00 1140.03,305.00 1140.65,305.00 1141.27,305.00 1141.90,305.00 1142.52,305.00 1143.14,305.00 1143.76,305.00 1144.39,305.00 1145.01,305.00 1145.65,305.00 1146.28,305.00 1146.90,305.00 1147.53,305.00 1148.15,305.00 1148.78,305.00 1149.41,305.00 1150.03,305.00 1150.65,305.00 1151.27,305.00 1151.89,305.00 1152.52,305.00 1153.14,305.00 1153.77,305.00 1154.39,305.00 1155.00,305.00 1155.63,305.00 1156.25,305.00 1156.87,305.00 1157.49,305.00 1158.11,305.00 1158.73,305.00 1159.36,305.00 1159.99,305.00 1160.61,305.00 1161.24,305.00 1161.86,305.00 1162.49,305.00 1163.11,305.00 1163.73,305.00 1164.35,305.00 1164.98,305.00 1165.61,305.00 1166.23,305.00 1166.86,305.00 1167.48,305.00 1168.10,305.00 1168.73,305.00 1169.36,305.00 1169.99,305.00 1170.62,305.00 1171.25,305.00 1171.88,305.00 1172.50,305.00 1173.12,305.00 1173.74,305.00 1174.36,305.00 1174.99,305.00 1175.61,305.00 1176.24,305.00 1176.85,305.00 1177.48,305.00 1178.13,305.00 1178.75,305.00 1179.38,305.00 1180.00,305.00"/>
<polyline fill="none" stroke="#9467bd" stroke-opacity="0.65" stroke-width="2" points="331.97,305.00 332.61,305.00 333.23,305.00 333.87,305.00 334.49,305.00 335.11,305.00 335.74,305.00 336.36,305.00 336.99,305.00 337.61,305.00 338.24,305.00 338.87,305.00 339.49,305.00 340.10,305.00 340.73,305.00 341.34,305.00 341.96,305.00 342.57,305.00 343.20,305.00 343.82,305.00 344.44,305.00 345.06,305.00 345.68,305.00 346.31,305.00 346.93,305.00 347.55,305.00 348.18,305.00 348.80,305.00 349.42,305.00 350.04,305.00 350.67,305.00 351.31,305.00 351.92,305.00 352.54,305.00 353.16,305.00 353.78,305.00 354.40,305.00 355.02,305.00 355.64,305.00 356.26,305.00 356.88,305.00 357.50,305.00 358.12,305.00 358.74,305.00 359.37,305.00 359.99,305.00 360.74,305.00 361.38,305.00 362.01,305.00 362.64,305.00 363.26,305.00 363.89,305.00 364.51,305.00 365.13,305.00 365.75,305.00 366.38,305.00 367.00,305.00 367.62,305.00 368.25,305.00 368.87,305.00 369.51,305.00 370.14,305.00 370.76,305.00 371.39,305.00 372.01,305.00 372.63,305.00 373.25,305.00 373.87,305.00 374.52,305.00 375.14,305.00 375.77,305.00 376.39,305.00 377.01,305.00 377.64,305.00 378.25,305.00 378.88,305.00 379.50,305.00 380.12,305.00 380.75,305.00 381.37,305.00 381.99,305.00 382.61,305.00 383.23,305.00 383.87,305.00 384.49,305.00 385.11,305.00 385.73,305.00 386.35,305.00 386.98,305.00 387.60,305.00 388.35,305.00 388.99,305.00 389.61,305.00 390.24,305.00 390.85,305.00 391.48,305.00 392.10,305.00 392.73,305.00 393.36,305.00 393.98,305.00 394.60,305.00 395.22,305.00 395.84,305.00 396.46,305.00 397.08,305.00 397.71,305.00 398.32,305.00 398.94,305.00 399.56,305.00 400.18,305.00 400.81,305.00 401.43,305.00 402.05,305.00 402.68,305.00 403.31,305.00 403.93,305.00 404.55,305.00 405.17,305.00 405.81,305.00 406.43,305.00 407.05,305.00 407.68,305.00 408.30,305.00 408.92,305.00 409.54,305.00 410.17,305.00 410.81,305.00 411.43,305.00 412.05,305.00 412.66,305.00 413.28,305.00 413.90,305.00 414.53,305.00 415.15,305.00 415.77,305.00 416.40,305.00 417.03,305.00 417.64,305.00 418.27,305.00 418.89,305.00 419.51,305.00 420.13,305.00 420.75,305.00 421.37,305.00 422.00,305.00 422.62,305.00 423.24,305.00 423.87,305.00 424.50,305.00 425.12,305.00 425.75,305.00 426.37,305.00 427.07,305.00 427.76,305.00 428.42,305.00 429.05,305.00 429.70,305.00 430.32,305.00 430.95,305.00 431.56,305.00 432.15,305.00 432.79,305.00 433.42,305.00 434.05,305.00 434.66,305.00 435.28,305.00 435.90,305.00 436.53,305.00 437.15,305.00 437.77,305.00 438.39,305.00 439.02,305.00 439.64,305.00 440.27,305.00 440.90,305.00 441.52,305.00 442.15,305.00 442.77,305.00 443.40,305.00 444.03,305.00 444.66,305.00 445.27,305.00 445.89,305.00 446.52,305.00 447.14,305.00 447.76,305.00 448.38,305.00 449.00,305.00 449.64,305.00 450.25,305.00 450.87,305.00 451.50,305.00 452.12,305.00 452.75,305.00 453.37,305.00 453.99,305.00 454.62,305.00 455.24,305.00 455.87,305.00 456.49,305.00 457.12,305.00 457.75,305.00 458.37,305.00 458.99,305.00 459.62,305.00 460.25,305.00 460.89,305.00 461.51,305.00 462.14,305.00 462.76,305.00 463.38,305.00 464.00,305.00 464.63,305.00 465.25,305.00 465.88,305.00 466.50,305.00 467.13,305.00 467.75,305.00 468.38,305.00 469.01,305.00 469.63,305.00 470.26,305.00 470.88,305.00 471.51,305.00 472.14,305.00 472.76,305.00 473.38,305.00 474.01,305.00 474.64,305.00 475.27,305.00 475.90,305.00 476.53,305.00 477.15,305.00 477.77,305.00 478.39,305.00 479.02,305.00 479.64,305.00 480.27,305.00 480.89,305.00 481.51,305.00 482.14,305.00 482.76,305.00 483.39,305.00 484.01,305.00 484.63,305.00 485.27,305.00 485.89,305.00 486.52,305.00 487.14,305.00 487.76,305.00 488.38,305.00 489.00,305.00 489.62,305.00 490.25,305.00 490.88,305.00 491.50,305.00 492.13,305.00 492.75,305.00 493.38,305.00 494.01,305.00 494.63,305.00 495.26,305.00 495.89,305.00 496.51,305.00 497.14,305.00 497.76,305.00 498.40,305.00 499.02,305.00 499.65,305.00 500.28,305.00 500.91,305.00 501.54,305.00 502.16,305.00 502.78,305.00 503.41,305.00 504.04,305.00 504.67,305.00 505.30,305.00 505.92,305.00 506.54,305.00 507.16,305.00 507.80,305.00 508.42,305.00 509.05,305.00 509.68,305.00 510.30,305.00 510.92,305.00 511.54,305.00 512.16,305.00 512.79,305.00 513.41,305.00 514.04,305.00 514.66,305.00 515.28,305.00 515.91,305.00 516.55,305.00 517.18,305.00 517.80,305.00 518.42,305.00 519.04,305.00 519.66,305.00 520.29,305.00 520.92,305.00 521.54,305.00 522.16,305.00 522.79,305.00 523.42,305.00 524.04,305.00 524.67,305.00 525.30,305.00 525.94,305.00 526.57,305.00 527.20,305.00 527.83,305.00 528.45,305.00 529.08,305.00 529.70,305.00 530.32,305.00 530.94,305.00 531.57,305.00 532.20,305.00 532.83,305.00 533.45,305.00 534.08,305.00 534.73,305.00 535.36,305.00 535.98,305.00 536.61,305.00 537.23,305.00 537.86,305.00 538.49,305.00 539.12,305.00 539.74,305.00 540.38,305.00 541.00,305.00 541.63,305.00 542.26,305.00 542.88,305.00 543.51,305.00 544.13,305.00 544.75,305.00 545.38,305.00 546.01,305.00 546.64,305.00 547.26,305.00 547.89,305.00 548.52,305.00 549.14,305.00 549.77,305.00 550.40,305.00 551.04,305.00 551.67,305.00 552.30,305.00 552.93,305.00 553.57,305.00 554.21,305.00 554.84,305.00 555.48,305.00 556.12,305.00 556.75,305.00 557.38,305.00 558.00,305.00 558.63,305.00 559.26,305.00 559.88,305.00 560.53,305.00 561.15,305.00 561.78,305.00 562.40,305.00 563.02,305.00 563.65,305.00 564.28,305.00 564.90,305.00 565.52,305.00 566.14,305.00 566.77,305.00 567.39,305.00 568.01,305.00 568.63,305.00 569.26,305.00 569.89,305.00 570.51,305.00 571.14,305.00 571.77,305.00 572.39,305.00 573.02,305.00 573.65,305.00 574.27,305.00 574.89,305.00 575.52,305.00 576.14,305.00 576.77,305.00 577.39,305.00 578.01,305.00 578.63,305.00 579.25,305.00 579.88,305.00 580.51,305.00 581.13,305.00 581.76,305.00 582.38,305.00 583.00,305.00 583.63,305.00 584.25,305.00 584.87,305.00 585.49,305.00 586.10,305.00 586.73,305.00 587.35,305.00 587.99,305.00 588.61,305.00 589.23,305.00 589.86,305.00 590.50,305.00 591.12,305.00 591.75,305.00 592.38,305.00 593.00,305.00 593.62,305.00 594.26,305.00 594.88,305.00 595.51,305.00 596.14,305.00 596.77,305.00 597.39,305.00 598.01,305.00 598.63,305.00 599.26,305.00 599.88,305.00 600.50,305.00 601.12,305.00 601.75,305.00 602.38,305.00 603.00,305.00 603.62,305.00 604.24,305.00 604.87,305.00 605.49,305.00 606.12,305.00 606.75,305.00 607.37,305.00 608.00,305.00 608.63,305.00 609.25,305.00 609.87,305.00 610.50,305.00 611.12,305.00 611.74,305.00 612.37,305.00 613.00,305.00 613.62,305.00 614.24,305.00 614.87,305.00 615.51,305.00 616.14,305.00 616.77,305.00 617.41,305.00 618.03,305.00 618.66,305.00 619.29,305.00 619.91,305.00 620.54,305.00 621.16,305.00 621.79,305.00 622.43,305.00 623.06,305.00 623.68,305.00 624.31,305.00 624.93,305.00 625.56,305.00 626.19,305.00 626.81,305.00 627.43,305.00 628.06,305.00 628.68,305.00 629.31,305.00 629.93,305.00 630.56,305.00 631.17,305.00 631.80,305.00 632.42,305.00 633.04,305.00 633.67,305.00 634.30,305.00 634.92,305.00 635.55,305.00 636.17,305.00 636.80,305.00 637.41,305.00 638.05,305.00 638.67,305.00 639.30,305.00 639.93,305.00 640.55,305.00 641.17,305.00 641.80,305.00 642.42,305.00 643.04,305.00 643.67,305.00 644.31,305.00 644.95,305.00 645.59,305.00 646.22,305.00 646.86,305.00 647.50,305.00 648.14,305.00 648.79,305.00 649.42,305.00 650.07,305.00 650.69,305.00 651.31,305.00 651.94,305.00 652.57,305.00 653.20,305.00 653.82,305.00 654.45,305.00 655.08,305.00 655.70,305.00 656.33,305.00 656.95,305.00 657.57,305.00 658.20,305.00 658.82,305.00 659.44,305.00 660.07,305.00 660.70,305.00 661.32,305.00 661.96,305.00 662.59,305.00 663.21,305.00 663.83,305.00 664.46,305.00 665.08,305.00 665.71,305.00 666.33,305.00 666.96,305.00 667.58,305.00 668.21,305.00 668.83,305.00 669.46,305.00 670.09,305.00 670.71,305.00 671.34,305.00 672.00,305.00 672.65,305.00 673.27,305.00 673.90,305.00 674.52,305.00 675.15,305.00 675.79,305.00 676.42,305.00 677.04,305.00 677.66,305.00 678.27,305.00 678.90,305.00 679.52,305.00 680.15,305.00 680.78,305.00 681.40,305.00 682.03,305.00 682.66,305.00 683.29,305.00 683.91,305.00 684.53,305.00 685.15,305.00 685.78,305.00 686.41,305.00 687.03,305.00 687.65,305.00 688.29,305.00 688.91,305.00 689.54,305.00 690.19,305.00 690.82,305.00 691.44,305.00 692.06,305.00 692.69,305.00 693.31,305.00 693.94,305.00 694.57,305.00 695.19,305.00 695.82,305.00 696.45,305.00 697.08,305.00 697.71,305.00 698.34,305.00 698.97,305.00 699.59,305.00 700.22,305.00 700.84,305.00 701.47,305.00 702.09,305.00 702.72,305.00 703.35,305.00 703.97,305.00 704.60,305.00 705.22,305.00 705.85,305.00 706.47,305.00 707.09,305.00 707.72,305.00 708.34,305.00 708.97,305.00 709.59,305.00 710.22,305.00 710.84,305.00 711.47,305.00 712.10,305.00 712.72,305.00 713.34,305.00 713.96,305.00 714.58,305.00 715.21,305.00 715.84,305.00 716.46,305.00 717.10,305.00 717.73,305.00 718.36,305.00 718.99,305.00 719.61,305.00 720.24,305.00 720.92,305.00 721.55,305.00 722.18,305.00 722.82,305.00 723.45,305.00 724.07,305.00 724.69,305.00 725.32,305.00 725.95,305.00 726.57,305.00 727.20,305.00 727.83,305.00 728.45,305.00 729.09,305.00 729.72,305.00 730.35,305.00 730.97,305.00 731.60,305.00 732.23,305.00 732.85,305.00 733.48,305.00 734.10,305.00 734.73,305.00 735.36,305.00 735.99,305.00 736.62,305.00 737.24,305.00 737.87,305.00 738.51,305.00 739.13,305.00 739.76,305.00 740.38,305.00 741.01,305.00 741.64,305.00 742.26,305.00 742.88,305.00 743.51,305.00 744.13,305.00 744.76,305.00 745.39,305.00 746.01,305.00 746.63,305.00 747.26,305.00 747.89,305.00 748.51,305.00 749.14,305.00 749.77,305.00 750.40,305.00 751.03,305.00 751.64,305.00 752.25,305.00 752.87,305.00 753.50,305.00 754.13,305.00 754.76,305.00 755.39,305.00 756.01,305.00 756.65,305.00 757.28,305.00 757.90,305.00 758.53,305.00 759.15,305.00 759.77,305.00 760.39,305.00 761.01,305.00 761.64,305.00 762.27,305.00 762.89,305.00 763.51,305.00 764.13,305.00 764.76,305.00 765.38,305.00 766.01,305.00 766.63,305.00 767.25,305.00 767.86,305.00 768.50,305.00 769.12,305.00 769.75,305.00 770.38,305.00 771.01,305.00 771.63,305.00 772.25,305.00 772.88,305.00 773.51,305.00 774.13,305.00 774.76,305.00 775.43,305.00 776.05,305.00 776.69,305.00 777.31,305.00 777.95,305.00 778.57,305.00 779.19,305.00 779.82,305.00 780.44,305.00 781.07,305.00 781.69,305.00 782.31,305.00 782.94,305.00 783.58,305.00 784.20,305.00 784.83,305.00 785.45,305.00 786.08,305.00 786.70,305.00 787.33,305.00 787.96,305.00 788.59,305.00 789.23,305.00 789.86,305.00 790.49,305.00 791.11,305.00 791.74,305.00 792.37,305.00 793.00,305.00 793.62,305.00 794.24,305.00 794.87,305.00 795.50,305.00 796.12,305.00 796.75,305.00 797.38,305.00 798.00,305.00 798.63,305.00 799.25,305.00 799.87,305.00 800.50,305.00 801.13,305.00 801.75,305.00 802.37,305.00 803.00,305.00 803.62,305.00 804.24,305.00 804.86,305.00 805.48,305.00 806.10,305.00 806.73,305.00 807.35,305.00 807.97,305.00 808.59,305.00 809.22,305.00 809.84,305.00 810.47,305.00 811.09,305.00 811.71,305.00 812.33,305.00 812.95,305.00 813.59,305.00 814.21,305.00 814.83,305.00 815.46,305.00 816.11,305.00 816.73,305.00 817.36,305.00 817.99,305.00 818.62,305.00 819.24,305.00 819.87,305.00 820.50,305.00 821.12,305.00 821.75,305.00 822.36,305.00 822.99,305.00 823.62,305.00 824.24,305.00 824.87,305.00 825.49,305.00 826.11,305.00 826.73,305.00 827.36,305.00 827.98,305.00 828.62,305.00 829.27,305.00 829.89,305.00 830.51,305.00 831.13,305.00 831.75,305.00 832.38,305.00 833.00,305.00 833.63,305.00 834.26,305.00 834.88,305.00 835.51,305.00 836.14,305.00 836.76,305.00 837.39,305.00 838.01,305.00 838.64,305.00 839.27,305.00 839.89,305.00 840.51,305.00 841.13,305.00 841.75,305.00 842.38,305.00 843.00,305.00 843.62,305.00 844.25,305.00 844.87,305.00 845.50,305.00 846.12,305.00 846.75,305.00 847.37,305.00 848.00,305.00 848.62,305.00 849.24,305.00 849.88,305.00 850.49,305.00 851.12,305.00 851.75,305.00 852.37,305.00 852.99,305.00 853.61,305.00 854.24,305.00 854.86,305.00 855.50,305.00 856.12,305.00 856.75,305.00 857.37,305.00 858.00,305.00 858.63,305.00 859.27,305.00 859.89,305.00 860.56,305.00 861.18,305.00 861.86,305.00 862.48,305.00 863.10,305.00 863.72,305.00 864.35,305.00 864.97,305.00 865.60,305.00 866.22,305.00 866.84,305.00 867.47,305.00 868.10,305.00 868.72,305.00 869.34,305.00 869.96,305.00 870.59,305.00 871.21,305.00 871.83,305.00 872.45,305.00 873.08,305.00 873.71,305.00 874.34,305.00 874.96,305.00 875.57,305.00 876.20,305.00 876.83,305.00 877.46,305.00 878.08,305.00 878.71,305.00 879.33,305.00 879.96,305.00 880.58,305.00 881.20,305.00 881.83,305.00 882.45,305.00 883.07,305.00 883.69,305.00 884.30,305.00 884.93,305.00 885.56,305.00 886.18,305.00 886.80,305.00 887.43,305.00 888.08,305.00 888.71,305.00 889.33,305.00 889.95,305.00 890.57,305.00 891.19,305.00 891.81,305.00 892.44,305.00 893.06,305.00 893.68,305.00 894.30,305.00 894.92,305.00 895.54,305.00 896.16,305.00 896.79,305.00 897.41,305.00 898.03,305.00 898.66,305.00 899.28,305.00 899.90,305.00 900.54,305.00 901.16,305.00 901.78,305.00 902.41,305.00 903.03,305.00 903.65,305.00 904.29,305.00 904.91,305.00 905.54,305.00 906.16,305.00 906.78,305.00 907.41,305.00 908.04,305.00 908.66,305.00 909.30,305.00 909.93,305.00 910.56,305.00 911.19,305.00 911.81,305.00 912.43,305.00 913.05,305.00 913.68,305.00 914.31,305.00 914.94,305.00 915.55,305.00 916.18,305.00 916.81,305.00 917.44,305.00 918.06,305.00 918.70,305.00 919.34,305.00 920.00,305.00 920.63,305.00 921.26,305.00 921.88,305.00 922.50,305.00 923.13,305.00 923.75,305.00 924.38,305.00 925.01,305.00 925.63,305.00 926.26,305.00 926.88,305.00 927.50,305.00 928.13,305.00 928.75,305.00 929.38,305.00 930.02,305.00 930.66,305.00 931.29,305.00 931.92,305.00 932.57,305.00 933.20,305.00 933.87,305.00 934.49,305.00 935.12,305.00 935.75,305.00 936.37,305.00 936.99,305.00 937.62,305.00 938.24,305.00 938.87,305.00 939.49,305.00 940.11,305.00 940.75,305.00 941.38,305.00 942.00,305.00 942.64,305.00 943.37,305.00 944.00,305.00 944.61,305.00 945.24,305.00 945.86,305.00 946.48,305.00 948.23,305.00 948.91,305.00 949.49,305.00 950.06,305.00 951.24,305.00 951.86,305.00 952.49,305.00 953.12,305.00 953.74,305.00 954.36,305.00 954.98,305.00 955.60,305.00 956.22,305.00 956.85,305.00 957.47,305.00 958.09,305.00 958.72,305.00 959.34,305.00 959.96,305.00 960.58,305.00 961.20,305.00 961.82,305.00 962.44,305.00 963.06,305.00 963.68,305.00 964.31,305.00 964.93,305.00 965.56,305.00 966.18,305.00 966.79,305.00 967.42,305.00 968.04,305.00 968.66,305.00 969.28,305.00 969.90,305.00 970.52,305.00 971.14,305.00 971.76,305.00 972.39,305.00 973.01,305.00 973.63,305.00 974.25,305.00 974.88,305.00 975.50,305.00 976.12,305.00 976.74,305.00 977.37,305.00 977.99,305.00 978.61,305.00 979.22,305.00 979.84,305.00 980.46,305.00 981.09,305.00 981.70,305.00 982.32,305.00 982.96,305.00 983.58,305.00 984.21,305.00 984.83,305.00 985.45,305.00 986.08,305.00 986.70,305.00 987.32,305.00 987.95,305.00 988.57,305.00 989.19,305.00 989.81,305.00 990.43,305.00 991.06,305.00 991.68,305.00 992.30,305.00 992.92,305.00 993.55,305.00 994.17,305.00 994.79,305.00 995.41,305.00 996.04,305.00 996.66,305.00 997.28,305.00 997.90,305.00 998.53,305.00 999.15,305.00 999.83,305.00 1000.46,305.00 1001.08,305.00 1001.70,305.00 1002.32,305.00 1002.95,305.00 1003.56,305.00 1004.19,305.00 1005.06,305.00 1005.69,305.00 1006.55,305.00 1007.17,305.00 1007.80,305.00 1008.42,305.00 1009.05,305.00 1009.67,305.00 1010.29,305.00 1010.90,305.00 1011.53,305.00 1012.15,305.00 1012.77,305.00 1013.39,305.00 1014.01,305.00 1014.64,305.00 1015.27,305.00 1015.89,305.00 1016.51,305.00 1017.14,305.00 1017.76,305.00 1018.39,305.00 1019.01,305.00 1019.63,305.00 1020.26,305.00 1020.88,305.00 1021.50,305.00 1022.12,305.00 1022.75,305.00 1023.38,305.00 1024.00,305.00 1024.62,305.00 1025.25,305.00 1025.89,305.00 1026.53,305.00 1027.16,305.00 1027.81,305.00 1028.43,305.00 1029.05,305.00 1029.68,305.00 1030.31,305.00 1030.93,305.00 1031.55,305.00 1032.17,305.00 1032.79,305.00 1033.43,305.00 1034.05,305.00 1034.68,305.00 1035.31,305.00 1035.94,305.00 1036.56,305.00 1037.19,305.00 1037.81,305.00 1038.44,305.00 1039.06,305.00 1039.69,305.00 1040.32,305.00 1040.95,305.00 1041.58,305.00 1042.20,305.00 1042.83,305.00 1043.45,305.00 1044.08,305.00 1044.70,305.00 1045.34,305.00 1045.97,305.00 1046.59,305.00 1047.22,305.00 1047.84,305.00 1048.47,305.00 1049.09,305.00 1049.72,305.00 1050.34,305.00 1050.96,305.00 1051.59,305.00 1052.21,305.00 1052.83,305.00 1053.45,305.00 1054.10,305.00 1054.73,305.00 1055.36,305.00 1055.98,305.00 1056.60,305.00 1057.23,305.00 1057.85,305.00 1058.47,305.00 1059.10,305.00 1059.72,305.00 1060.35,305.00 1060.97,305.00 1061.60,305.00 1062.23,305.00 1062.85,305.00 1063.47,305.00 1064.10,305.00 1064.72,305.00 1065.35,305.00 1065.98,305.00 1066.61,305.00 1067.23,305.00 1067.86,305.00 1068.49,305.00 1069.11,305.00 1069.74,305.00 1070.37,305.00 1070.99,305.00 1071.63,305.00 1072.26,305.00 1072.88,305.00 1073.50,305.00 1074.12,305.00 1074.75,305.00 1075.38,305.00 1076.01,305.00 1076.64,305.00 1077.28,305.00 1077.91,305.00 1078.53,305.00 1079.16,305.00 1079.79,305.00 1080.41,305.00 1081.04,305.00 1081.66,305.00 1082.30,305.00 1082.92,305.00 1083.54,305.00 1084.17,305.00 1084.79,305.00 1085.42,305.00 1086.05,305.00 1086.67,305.00 1087.31,305.00 1087.94,305.00 1088.57,305.00 1089.20,305.00 1089.83,305.00 1090.45,305.00 1091.08,305.00 1091.70,305.00 1092.33,305.00 1092.98,305.00 1093.60,305.00 1094.23,305.00 1094.86,305.00 1095.49,305.00 1096.11,305.00 1096.75,305.00 1097.38,305.00 1098.02,305.00 1098.64,305.00 1099.28,305.00 1099.91,305.00 1100.57,305.00 1101.19,305.00 1101.83,305.00 1102.45,305.00 1103.07,305.00 1103.70,305.00 1104.32,305.00 1104.95,305.00 1105.59,305.00 1106.21,305.00 1106.85,305.00 1107.48,305.00 1108.10,305.00 1108.73,305.00 1109.36,305.00 1109.98,305.00 1110.63,305.00 1111.25,305.00 1111.87,305.00 1112.50,305.00 1113.13,305.00 1113.75,305.00 1114.39,305.00 1115.02,305.00 1115.64,305.00 1116.26,305.00 1116.88,305.00 1117.50,305.00 1118.13,305.00 1118.75,305.00 1119.39,305.00 1120.01,305.00 1120.64,305.00 1121.27,305.00 1121.89,305.00 1122.50,305.00 1123.13,305.00 1123.76,305.00 1124.39,305.00 1125.01,305.00 1125.63,305.00 1126.25,305.00 1126.88,305.00 1127.51,305.00 1128.15,305.00 1128.78,305.00 1129.41,305.00 1130.03,305.00 1130.65,305.00 1131.27,305.00 1131.89,305.00 1132.52,305.00 1133.15,305.00 1133.80,305.00 1134.43,305.00 1135.06,305.00 1135.68,305.00 1136.30,305.00 1136.92,305.00 1137.54,305.00 1138.16,305.00 1138.79,305.00 1139.41,305.00 1140.03,305.00 1140.65,305.00 1141.27,305.00 1141.90,305.00 1142.52,305.00 1143.14,305.00 1143.76,305.00 1144.39,305.00 1145.01,305.00 1145.65,305.00 1146.28,305.00 1146.90,305.00 1147.53,305.00 1148.15,305.00 1148.78,305.00 1149.41,305.00 1150.03,305.00 1150.65,305.00 1151.27,305.00 1151.89,305.00 1152.52,305.00 1153.14,305.00 1153.77,305.00 1154.39,305.00 1155.00,305.00 1155.63,305.00 1156.25,305.00 1156.87,305.00 1157.49,305.00 1158.11,305.00 1158.73,305.00 1159.36,305.00 1159.99,305.00 1160.61,305.00 1161.24,305.00 1161.86,305.00 1162.49,305.00 1163.11,305.00 1163.73,305.00 1164.35,305.00 1164.98,305.00 1165.61,305.00 1166.23,305.00 1166.86,305.00 1167.48,305.00 1168.10,305.00 1168.73,305.00 1169.36,305.00 1169.99,305.00 1170.62,305.00 1171.25,305.00 1171.88,305.00 1172.50,305.00 1173.12,305.00 1173.74,305.00 1174.36,305.00 1174.99,305.00 1175.61,305.00 1176.24,305.00 1176.85,305.00 1177.48,305.00 1178.13,305.00 1178.75,305.00 1179.38,305.00 1180.00,305.00"/>
<polyline fill="none" stroke="#9467bd" stroke-opacity="0.50" stroke-width="2" points="70.00,305.00 70.62,305.00 71.25,305.00 71.87,305.00 72.49,305.00 73.12,305.00 73.74,305.00 74.36,305.00 75.03,305.00 75.65,305.00 76.27,305.00 76.89,305.00 77.52,305.00 78.14,305.00 78.76,305.00 79.88,305.00 80.84,305.00 81.47,305.00 82.11,305.00 82.73,305.00 83.35,305.00 83.96,305.00 84.59,305.00 85.21,305.00 85.83,305.00 86.46,305.00 87.09,305.00 87.72,305.00 88.34,305.00 89.00,305.00 89.62,305.00 90.24,305.00 90.88,305.00 91.50,305.00 92.13,305.00 92.77,305.00 93.38,305.00 94.01,305.00 94.64,305.00 95.26,305.00 95.88,305.00 96.49,305.00 97.11,305.00 97.74,305.00 98.36,305.00 98.99,305.00 99.62,305.00 100.23,305.00 100.85,305.00 101.48,305.00 102.10,305.00 102.82,305.00 103.44,305.00 104.06,305.00 104.67,305.00 105.29,305.00 105.91,305.00 106.53,305.00 107.15,305.00 107.77,305.00 108.41,305.00 109.03,305.00 109.64,305.00 110.27,305.00 110.90,305.00 111.52,305.00 112.14,305.00 112.76,305.00 113.37,305.00 113.99,305.00 114.61,305.00 115.23,305.00 115.85,305.00 116.47,305.00 117.09,305.00 117.71,305.00 118.33,305.00 118.96,305.00 119.57,305.00 120.19,305.00 120.83,305.00 121.45,305.00 122.07,305.00 122.70,305.00 123.31,305.00 123.94,305.00 124.56,305.00 125.17,305.00 125.79,305.00 126.42,305.00 127.04,305.00 127.66,305.00 128.29,305.00 128.90,305.00 129.53,305.00 130.15,305.00 130.77,305.00 131.38,305.00 132.01,305.00 132.62,305.00 133.25,305.00 133.87,305.00 134.49,305.00 135.11,305.00 135.74,305.00 136.37,305.00 136.99,305.00 137.61,305.00 138.23,305.00 138.85,305.00 139.48,305.00 140.10,305.00 140.72,305.00 141.34,305.00 141.96,305.00 142.59,305.00 143.21,305.00 143.85,305.00 144.47,305.00 145.09,305.00 145.71,305.00 146.33,305.00 146.95,305.00 147.58,305.00 148.25,305.00 148.87,305.00 149.50,305.00 150.12,305.00 150.74,305.00 151.35,305.00 151.96,305.00 152.58,305.00 153.21,305.00 153.83,305.00 154.45,305.00 155.07,305.00 155.69,305.00 156.30,305.00 156.94,305.00 157.56,305.00 158.18,305.00 158.79,305.00 159.42,305.00 160.03,305.00 160.66,305.00 161.28,305.00 161.91,305.00 162.53,305.00 163.15,305.00 163.77,305.00 164.38,305.00 165.00,305.00 165.62,305.00 166.25,305.00 166.88,305.00 167.50,305.00 168.12,305.00 168.75,305.00 169.37,305.00 169.99,305.00 170.61,305.00 171.23,305.00 171.86,305.00 172.49,305.00 173.11,305.00 173.74,305.00 174.35,305.00 174.97,305.00 175.59,305.00 176.21,305.00 176.83,305.00 177.45,305.00 178.07,305.00 178.69,305.00 179.32,305.00 179.94,305.00 180.56,305.00 181.20,305.00 181.82,305.00 182.44,305.00 183.06,305.00 183.67,305.00 184.35,305.00 184.98,305.00 185.60,305.00 186.22,305.00 186.83,305.00 187.46,305.00 188.08,305.00 188.70,305.00 189.32,305.00 189.94,305.00 190.56,305.00 191.18,305.00 191.82,305.00 192.44,305.00 193.06,305.00 193.68,305.00 194.31,305.00 194.94,305.00 195.57,305.00 196.19,305.00 196.81,305.00 197.44,305.00 198.05,305.00 198.68,305.00 199.30,305.00 199.93,305.00 200.55,305.00 201.17,305.00 201.79,305.00 202.42,305.00 203.04,305.00 203.66,305.00 204.29,305.00 204.91,305.00 205.53,305.00 206.14,305.00 206.76,305.00 207.39,305.00 208.01,305.00 208.63,305.00 209.25,305.00 209.86,305.00 210.48,305.00 211.11,305.00 211.73,305.00 212.35,305.00 212.98,305.00 213.61,305.00 214.23,305.00 214.85,305.00 215.48,305.00 216.10,305.00 216.72,305.00 217.34,305.00 217.98,305.00 218.60,305.00 219.22,305.00 219.85,305.00 220.46,305.00 221.09,305.00 221.70,305.00 222.32,305.00 222.95,305.00 223.57,305.00 224.19,305.00 224.82,305.00 225.44,305.00 226.06,305.00 226.69,305.00 227.31,305.00 227.94,305.00 228.56,305.00 229.18,305.00 229.80,305.00 230.43,305.00 231.06,305.00 231.68,305.00 232.30,305.00 232.99,305.00 233.61,305.00 234.24,305.00 234.86,305.00 235.49,305.00 236.11,305.00 236.73,305.00 237.36,305.00 237.97,305.00 238.62,305.00 239.25,305.00 239.86,305.00 240.48,305.00 241.10,305.00 241.73,305.00 242.35,305.00 243.00,305.00 243.62,305.00 244.24,305.00 244.87,305.00 245.54,305.00 246.16,305.00 246.94,305.00 247.99,305.00 248.63,305.00 249.27,305.00 249.89,305.00 250.50,305.00 251.11,305.00 251.75,305.00 252.37,305.00 253.00,305.00 253.64,305.00 254.29,305.00 254.95,305.00 255.57,305.00 256.19,305.00 256.82,305.00 257.45,305.00 258.08,305.00 258.70,305.00 259.32,305.00 259.94,305.00 260.59,305.00 261.22,305.00 261.83,305.00 262.45,305.00 263.09,305.00 263.73,305.00 264.36,305.00 264.98,305.00 265.62,305.00 266.22,305.00 266.83,305.00 267.47,305.00 268.09,305.00 268.72,305.00 269.36,305.00 269.98,305.00 270.60,305.00 271.23,305.00 271.86,305.00 272.49,305.00 273.11,305.00 273.72,305.00 274.35,305.00 274.97,305.00 275.59,305.00 276.33,305.00 277.06,305.00 277.80,305.00 278.52,305.00 279.23,305.00 279.95,305.00 280.69,305.00 281.41,305.00 282.03,305.00 282.65,305.00 283.27,305.00 283.89,305.00 284.51,305.00 285.13,305.00 285.75,305.00 286.37,305.00 286.99,305.00 287.61,305.00 288.23,305.00 288.85,305.00 289.47,305.00 290.08,305.00 290.70,305.00 291.32,305.00 291.94,305.00 292.56,305.00 293.18,305.00 293.81,305.00 294.42,305.00 295.04,305.00 295.66,305.00 296.28,305.00 296.90,305.00 297.52,305.00 298.14,305.00 298.77,305.00 299.39,305.00 300.01,305.00 300.63,305.00 301.25,305.00 301.86,305.00 302.48,305.00 303.10,305.00 303.71,305.00 304.33,305.00 304.95,305.00 305.56,305.00 306.18,305.00 306.80,305.00 307.42,305.00 308.04,305.00 308.65,305.00 309.26,305.00 309.90,305.00 310.57,305.00 311.20,305.00 311.82,305.00 312.44,305.00 313.06,305.00 313.67,305.00 314.29,305.00 314.91,305.00 315.64,305.00 316.37,305.00 317.09,305.00 317.82,305.00 318.55,305.00 319.28,305.00 320.02,305.00 320.77,305.00 321.45,305.00 322.12,305.00 322.74,305.00 323.37,305.00 323.99,305.00 324.60,305.00 325.22,305.00 325.84,305.00 326.46,305.00 327.08,305.00 327.70,305.00 328.32,305.00 328.94,305.00 329.56,305.00 330.19,305.00 330.81,305.00 331.43,305.00 331.97,305.00 332.61,305.00 333.23,305.00 333.87,305.00 334.49,305.00 335.11,305.00 335.74,305.00 336.36,305.00 336.99,305.00 337.61,305.00 338.24,305.00 338.87,305.00 339.49,305.00 340.10,305.00 340.73,305.00 341.34,305.00 341.96,305.00 342.57,305.00 343.20,305.00 343.82,305.00 344.44,305.00 345.06,305.00 345.68,305.00 346.31,305.00 346.93,305.00 347.55,305.00 348.18,305.00 348.80,305.00 349.42,305.00 350.04,305.00 350.67,305.00 351.31,305.00 351.92,305.00 352.54,305.00 353.16,305.00 353.78,305.00 354.40,305.00 355.02,305.00 355.64,305.00 356.26,305.00 356.88,305.00 357.50,305.00 358.12,305.00 358.74,305.00 359.37,305.00 359.99,305.00 360.74,305.00 361.38,305.00 362.01,305.00 362.64,305.00 363.26,305.00 363.89,305.00 364.51,305.00 365.13,305.00 365.75,305.00 366.38,305.00 367.00,305.00 367.62,305.00 368.25,305.00 368.87,305.00 369.51,305.00 370.14,305.00 370.76,305.00 371.39,305.00 372.01,305.00 372.63,305.00 373.25,305.00 373.87,305.00 374.52,305.00 375.14,305.00 375.77,305.00 376.39,305.00 377.01,305.00 377.64,305.00 378.25,305.00 378.88,305.00 379.50,305.00 380.12,305.00 380.75,305.00 381.37,305.00 381.99,305.00 382.61,305.00 383.23,305.00 383.87,305.00 384.49,305.00 385.11,305.00 385.73,305.00 386.35,305.00 386.98,305.00 387.60,305.00 388.35,305.00 388.99,305.00 389.61,305.00 390.24,305.00 390.85,305.00 391.48,305.00 392.10,305.00 392.73,305.00 393.36,305.00 393.98,305.00 394.60,305.00 395.22,305.00 395.84,305.00 396.46,305.00 397.08,305.00 397.71,305.00 398.32,305.00 398.94,305.00 399.56,305.00 400.18,305.00 400.81,305.00 401.43,305.00 402.05,305.00 402.68,305.00 403.31,305.00 403.93,305.00 404.55,305.00 405.17,305.00 405.81,305.00 406.43,305.00 407.05,305.00 407.68,305.00 408.30,305.00 408.92,305.00 409.54,305.00 410.17,305.00 410.81,305.00 411.43,305.00 412.05,305.00 412.66,305.00 413.28,305.00 413.90,305.00 414.53,305.00 415.15,305.00 415.77,305.00 416.40,305.00 417.03,305.00 417.64,305.00 418.27,305.00 418.89,305.00 419.51,305.00 420.13,305.00 420.75,305.00 421.37,305.00 422.00,305.00 422.62,305.00 423.24,305.00 423.87,305.00 424.50,305.00 425.12,305.00 425.75,305.00 426.37,305.00 427.07,305.00 427.76,305.00 428.42,305.00 429.05,305.00 429.70,305.00 430.32,305.00 430.95,305.00 431.56,305.00 432.15,305.00 432.79,305.00 433.42,305.00 434.05,305.00 434.66,305.00 435.28,305.00 435.90,305.00 436.53,305.00 437.15,305.00 437.77,305.00 438.39,305.00 439.02,305.00 439.64,305.00 440.27,305.00 440.90,305.00 441.52,305.00 442.15,305.00 442.77,305.00 443.40,305.00 444.03,305.00 444.66,305.00 445.27,305.00 445.89,305.00 446.52,305.00 447.14,305.00 447.76,305.00 448.38,305.00 449.00,305.00 449.64,305.00 450.25,305.00 450.87,305.00 451.50,305.00 452.12,305.00 452.75,305.00 453.37,305.00 453.99,305.00 454.62,305.00 455.24,305.00 455.87,305.00 456.49,305.00 457.12,305.00 457.75,305.00 458.37,305.00 458.99,305.00 459.62,305.00 460.25,305.00 460.89,305.00 461.51,305.00 462.14,305.00 462.76,305.00 463.38,305.00 464.00,305.00 464.63,305.00 465.25,305.00 465.88,305.00 466.50,305.00 467.13,305.00 467.75,305.00 468.38,305.00 469.01,305.00 469.63,305.00 470.26,305.00 470.88,305.00 471.51,305.00 472.14,305.00 472.76,305.00 473.38,305.00 474.01,305.00 474.64,305.00 475.27,305.00 475.90,305.00 476.53,305.00 477.15,305.00 477.77,305.00 478.39,305.00 479.02,305.00 479.64,305.00 480.27,305.00 480.89,305.00 481.51,305.00 482.14,305.00 482.76,305.00 483.39,305.00 484.01,305.00 484.63,305.00 485.27,305.00 485.89,305.00 486.52,305.00 487.14,305.00 487.76,305.00 488.38,305.00 489.00,305.00 489.62,305.00 490.25,305.00 490.88,305.00 491.50,305.00 492.13,305.00 492.75,305.00 493.38,305.00 494.01,305.00 494.63,305.00 495.26,305.00 495.89,305.00 496.51,305.00 497.14,305.00 497.76,305.00 498.40,305.00 499.02,305.00 499.65,305.00 500.28,305.00 500.91,305.00 501.54,305.00 502.16,305.00 502.78,305.00 503.41,305.00 504.04,305.00 504.67,305.00 505.30,305.00 505.92,305.00 506.54,305.00 507.16,305.00 507.80,305.00 508.42,305.00 509.05,305.00 509.68,305.00 510.30,305.00 510.92,305.00 511.54,305.00 512.16,305.00 512.79,305.00 513.41,305.00 514.04,305.00 514.66,305.00 515.28,305.00 515.91,305.00 516.55,305.00 517.18,305.00 517.80,305.00 518.42,305.00 519.04,305.00 519.66,305.00 520.29,305.00 520.92,305.00 521.54,305.00 522.16,305.00 522.79,305.00 523.42,305.00 524.04,305.00 524.67,305.00 525.30,305.00 525.94,305.00 526.57,305.00 527.20,305.00 527.83,305.00 528.45,305.00 529.08,305.00 529.70,305.00 530.32,305.00 530.94,305.00 531.57,305.00 532.20,305.00 532.83,305.00 533.45,305.00 534.08,305.00 534.73,305.00 535.36,305.00 535.98,305.00 536.61,305.00 537.23,305.00 537.86,305.00 538.49,305.00 539.12,305.00 539.74,305.00 540.38,305.00 541.00,305.00 541.63,305.00 542.26,305.00 542.88,305.00 543.51,305.00 544.13,305.00 544.75,305.00 545.38,305.00 546.01,305.00 546.64,305.00 547.26,305.00 547.89,305.00 548.52,305.00 549.14,305.00 549.77,305.00 550.40,305.00 551.04,305.00 551.67,305.00 552.30,305.00 552.93,305.00 553.57,305.00 554.21,305.00 554.84,305.00 555.48,305.00 556.12,305.00 556.75,305.00 557.38,305.00 558.00,305.00 558.63,305.00 559.26,305.00 559.88,305.00 560.53,305.00 561.15,305.00 561.78,305.00 562.40,305.00 563.02,305.00 563.65,305.00 564.28,305.00 564.90,305.00 565.52,305.00 566.14,305.00 566.77,305.00 567.39,305.00 568.01,305.00 568.63,305.00 569.26,305.00 569.89,305.00 570.51,305.00 571.14,305.00 571.77,305.00 572.39,305.00 573.02,305.00 573.65,305.00 574.27,305.00 574.89,305.00 575.52,305.00 576.14,305.00 576.77,305.00 577.39,305.00 578.01,305.00 578.63,305.00 579.25,305.00 579.88,305.00 580.51,305.00 581.13,305.00 581.76,305.00 582.38,305.00 583.00,305.00 583.63,305.00 584.25,305.00 584.87,305.00 585.49,305.00 586.10,305.00 586.73,305.00 587.35,305.00 587.99,305.00 588.61,305.00 589.23,305.00 589.86,305.00 590.50,305.00 591.12,305.00 591.75,305.00 592.38,305.00 593.00,305.00 593.62,305.00 594.26,305.00 594.88,305.00 595.51,305.00 596.14,305.00 596.77,305.00 597.39,305.00 598.01,305.00 598.63,305.00 599.26,305.00 599.88,305.00 600.50,305.00 601.12,305.00 601.75,305.00 602.38,305.00 603.00,305.00 603.62,305.00 604.24,305.00 604.87,305.00 605.49,305.00 606.12,305.00 606.75,305.00 607.37,305.00 608.00,305.00 608.63,305.00 609.25,305.00 609.87,305.00 610.50,305.00 611.12,305.00 611.74,305.00 612.37,305.00 613.00,305.00 613.62,305.00 614.24,305.00 614.87,305.00 615.51,305.00 616.14,305.00 616.77,305.00 617.41,305.00 618.03,305.00 618.66,305.00 619.29,305.00 619.91,305.00 620.54,305.00 621.16,305.00 621.79,305.00 622.43,305.00 623.06,305.00 623.68,305.00 624.31,305.00 624.93,305.00 625.56,305.00 626.19,305.00 626.81,305.00 627.43,305.00 628.06,305.00 628.68,305.00 629.31,305.00 629.93,305.00 630.56,305.00 631.17,305.00 631.80,305.00 632.42,305.00 633.04,305.00 633.67,305.00 634.30,305.00 634.92,305.00 635.55,305.00 636.17,305.00 636.80,305.00 637.41,305.00 638.05,305.00 638.67,305.00 639.30,305.00 639.93,305.00 640.55,305.00 641.17,305.00 641.80,305.00 642.42,305.00 643.04,305.00 643.67,305.00 644.31,305.00 644.95,305.00 645.59,305.00 646.22,305.00 646.86,305.00 647.50,305.00 648.14,305.00 648.79,305.00 649.42,305.00 650.07,305.00 650.69,305.00 651.31,305.00 651.94,305.00 652.57,305.00 653.20,305.00 653.82,305.00 654.45,305.00 655.08,305.00 655.70,305.00 656.33,305.00 656.95,305.00 657.57,305.00 658.20,305.00 658.82,305.00 659.44,305.00 660.07,305.00 660.70,305.00 661.32,305.00 661.96,305.00 662.59,305.00 663.21,305.00 663.83,305.00 664.46,305.00 665.08,305.00 665.71,305.00 666.33,305.00 666.96,305.00 667.58,305.00 668.21,305.00 668.83,305.00 669.46,305.00 670.09,305.00 670.71,305.00 671.34,305.00 672.00,305.00 672.65,305.00 673.27,305.00 673.90,305.00 674.52,305.00 675.15,305.00 675.79,305.00 676.42,305.00 677.04,305.00 677.66,305.00 678.27,305.00 678.90,305.00 679.52,305.00 680.15,305.00 680.78,305.00 681.40,305.00 682.03,305.00 682.66,305.00 683.29,305.00 683.91,305.00 684.53,305.00 685.15,305.00 685.78,305.00 686.41,305.00 687.03,305.00 687.65,305.00 688.29,305.00 688.91,305.00 689.54,305.00 690.19,305.00 690.82,305.00 691.44,305.00 692.06,305.00 692.69,305.00 693.31,305.00 693.94,305.00 694.57,305.00 695.19,305.00 695.82,305.00 696.45,305.00 697.08,305.00 697.71,305.00 698.34,305.00 698.97,305.00 699.59,305.00 700.22,305.00 700.84,305.00 701.47,305.00 702.09,305.00 702.72,305.00 703.35,305.00 703.97,305.00 704.60,305.00 705.22,305.00 705.85,305.00 706.47,305.00 707.09,305.00 707.72,305.00 708.34,305.00 708.97,305.00 709.59,305.00 710.22,305.00 710.84,305.00 711.47,305.00 712.10,305.00 712.72,305.00 713.34,305.00 713.96,305.00 714.58,305.00 715.21,305.00 715.84,305.00 716.46,305.00 717.10,305.00 717.73,305.00 718.36,305.00 718.99,305.00 719.61,305.00 720.24,305.00 720.92,305.00 721.55,305.00 722.18,305.00 722.82,305.00 723.45,305.00 724.07,305.00 724.69,305.00 725.32,305.00 725.95,305.00 726.57,305.00 727.20,305.00 727.83,305.00 728.45,305.00 729.09,305.00 729.72,305.00 730.35,305.00 730.97,305.00 731.60,305.00 732.23,305.00 732.85,305.00 733.48,305.00 734.10,305.00 734.73,305.00 735.36,305.00 735.99,305.00 736.62,305.00 737.24,305.00 737.87,305.00 738.51,305.00 739.13,305.00 739.76,305.00 740.38,305.00 741.01,305.00 741.64,305.00 742.26,305.00 742.88,305.00 743.51,305.00 744.13,305.00 744.76,305.00 745.39,305.00 746.01,305.00 746.63,305.00 747.26,305.00 747.89,305.00 748.51,305.00 749.14,305.00 749.77,305.00 750.40,305.00 751.03,305.00 751.64,305.00 752.25,305.00 752.87,305.00 753.50,305.00 754.13,305.00 754.76,305.00 755.39,305.00 756.01,305.00 756.65,305.00 757.28,305.00 757.90,305.00 758.53,305.00 759.15,305.00 759.77,305.00 760.39,305.00 761.01,305.00 761.64,305.00 762.27,305.00 762.89,305.00 763.51,305.00 764.13,305.00 764.76,305.00 765.38,305.00 766.01,305.00 766.63,305.00 767.25,305.00 767.86,305.00 768.50,305.00 769.12,305.00 769.75,305.00 770.38,305.00 771.01,305.00 771.63,305.00 772.25,305.00 772.88,305.00 773.51,305.00 774.13,305.00 774.76,305.00 775.43,305.00 776.05,305.00 776.69,305.00 777.31,305.00 777.95,305.00 778.57,305.00 779.19,305.00 779.82,305.00 780.44,305.00 781.07,305.00 781.69,305.00 782.31,305.00 782.94,305.00 783.58,305.00 784.20,305.00 784.83,305.00 785.45,305.00 786.08,305.00 786.70,305.00 787.33,305.00 787.96,305.00 788.59,305.00 789.23,305.00 789.86,305.00 790.49,305.00 791.11,305.00 791.74,305.00 792.37,305.00 793.00,305.00 793.62,305.00 794.24,305.00 794.87,305.00 795.50,305.00 796.12,305.00 796.75,305.00 797.38,305.00 798.00,305.00 798.63,305.00 799.25,305.00 799.87,305.00 800.50,305.00 801.13,305.00 801.75,305.00 802.37,305.00 803.00,305.00 803.62,305.00 804.24,305.00 804.86,305.00 805.48,305.00 806.10,305.00 806.73,305.00 807.35,305.00 807.97,305.00 808.59,305.00 809.22,305.00 809.84,305.00 810.47,305.00 811.09,305.00 811.71,305.00 812.33,305.00 812.95,305.00 813.59,305.00 814.21,305.00 814.83,305.00 815.46,305.00 816.11,305.00 816.73,305.00 817.36,305.00 817.99,305.00 818.62,305.00 819.24,305.00 819.87,305.00 820.50,305.00 821.12,305.00 821.75,305.00 822.36,305.00 822.99,305.00 823.62,305.00 824.24,305.00 824.87,305.00 825.49,305.00 826.11,305.00 826.73,305.00 827.36,305.00 827.98,305.00 828.62,305.00 829.27,305.00 829.89,305.00 830.51,305.00 831.13,305.00 831.75,305.00 832.38,305.00 833.00,305.00 833.63,305.00 834.26,305.00 834.88,305.00 835.51,305.00 836.14,305.00 836.76,305.00 837.39,305.00 838.01,305.00 838.64,305.00 839.27,305.00 839.89,305.00 840.51,305.00 841.13,305.00 841.75,305.00 842.38,305.00 843.00,305.00 843.62,305.00 844.25,305.00 844.87,305.00 845.50,305.00 846.12,305.00 846.75,305.00 847.37,305.00 848.00,305.00 848.62,305.00 849.24,305.00 849.88,305.00 850.49,305.00 851.12,305.00 851.75,305.00 852.37,305.00 852.99,305.00 853.61,305.00 854.24,305.00 854.86,305.00 855.50,305.00 856.12,305.00 856.75,305.00 857.37,305.00 858.00,305.00 858.63,305.00 859.27,305.00 859.89,305.00 860.56,305.00 861.18,305.00 861.86,305.00 862.48,305.00 863.10,305.00 863.72,305.00 864.35,305.00 864.97,305.00 865.60,305.00 866.22,305.00 866.84,305.00 867.47,305.00 868.10,305.00 868.72,305.00 869.34,305.00 869.96,305.00 870.59,305.00 871.21,305.00 871.83,305.00 872.45,305.00 873.08,305.00 873.71,305.00 874.34,305.00 874.96,305.00 875.57,305.00 876.20,305.00 876.83,305.00 877.46,305.00 878.08,305.00 878.71,305.00 879.33,305.00 879.96,305.00 880.58,305.00 881.20,305.00 881.83,305.00 882.45,305.00 883.07,305.00 883.69,305.00 884.30,305.00 884.93,305.00 885.56,305.00 886.18,305.00 886.80,305.00 887.43,305.00 888.08,305.00 888.71,305.00 889.33,305.00 889.95,305.00 890.57,305.00 891.19,305.00 891.81,305.00 892.44,305.00 893.06,305.00 893.68,305.00 894.30,305.00 894.92,305.00 895.54,305.00 896.16,305.00 896.79,305.00 897.41,305.00 898.03,305.00 898.66,305.00 899.28,305.00 899.90,305.00 900.54,305.00 901.16,305.00 901.78,305.00 902.41,305.00 903.03,305.00 903.65,305.00 904.29,305.00 904.91,305.00 905.54,305.00 906.16,305.00 906.78,305.00 907.41,305.00 908.04,305.00 908.66,305.00 909.30,305.00 909.93,305.00 910.56,305.00 911.19,305.00 911.81,305.00 912.43,305.00 913.05,305.00 913.68,305.00 914.31,305.00 914.94,305.00 915.55,305.00 916.18,305.00 916.81,305.00 917.44,305.00 918.06,305.00 918.70,305.00 919.34,305.00 920.00,305.00 920.63,305.00 921.26,305.00 921.88,305.00 922.50,305.00 923.13,305.00 923.75,305.00 924.38,305.00 925.01,305.00 925.63,305.00 926.26,305.00 926.88,305.00 927.50,305.00 928.13,305.00 928.75,305.00 929.38,305.00 930.02,305.00 930.66,305.00 931.29,305.00 931.92,305.00 932.57,305.00 933.20,305.00 933.87,305.00 934.49,305.00 935.12,305.00 935.75,305.00 936.37,305.00 936.99,305.00 937.62,305.00 938.24,305.00 938.87,305.00 939.49,305.00 940.11,305.00 940.75,305.00 941.38,305.00 942.00,305.00 942.64,305.00 943.37,305.00 944.00,305.00 944.61,305.00 945.24,305.00 945.86,305.00 946.48,305.00 947.09,305.00 947.67,305.00 948.23,305.00 948.91,305.00 949.49,305.00 950.06,305.00 950.70,305.00 951.24,305.00 951.86,305.00 952.49,305.00 953.12,305.00 953.74,305.00 954.36,305.00 954.98,305.00 955.60,305.00 956.22,305.00 956.85,305.00 957.47,305.00 958.09,305.00 958.72,305.00 959.34,305.00 959.96,305.00 960.58,305.00 961.20,305.00 961.82,305.00 962.44,305.00 963.06,305.00 963.68,305.00 964.31,305.00 964.93,305.00 965.56,305.00 966.18,305.00 966.79,305.00 967.42,305.00 968.04,305.00 968.66,305.00 969.28,305.00 969.90,305.00 970.52,305.00 971.14,305.00 971.76,305.00 972.39,305.00 973.01,305.00 973.63,305.00 974.25,305.00 974.88,305.00 975.50,305.00 976.12,305.00 976.74,305.00 977.37,305.00 977.99,305.00 978.61,305.00 979.22,305.00 979.84,305.00 980.46,305.00 981.09,305.00 981.70,305.00 982.32,305.00 982.96,305.00 983.58,305.00 984.21,305.00 984.83,305.00 985.45,305.00 986.08,305.00 986.70,305.00 987.32,305.00 987.95,305.00 988.57,305.00 989.19,305.00 989.81,305.00 990.43,305.00 991.06,305.00 991.68,305.00 992.30,305.00 992.92,305.00 993.55,305.00 994.17,305.00 994.79,305.00 995.41,305.00 996.04,305.00 996.66,305.00 997.28,305.00 997.90,305.00 998.53,305.00 999.15,305.00 999.83,305.00 1000.46,305.00 1001.08,305.00 1001.70,305.00 1002.32,305.00 1002.95,305.00 1003.56,305.00 1004.19,305.00 1005.06,305.00 1005.69,305.00 1006.55,305.00 1007.17,305.00 1007.80,305.00 1008.42,305.00 1009.05,305.00 1009.67,305.00 1010.29,305.00 1010.90,305.00 1011.53,305.00 1012.15,305.00 1012.77,305.00 1013.39,305.00 1014.01,305.00 1014.64,305.00 1015.27,305.00 1015.89,305.00 1016.51,305.00 1017.14,305.00 1017.76,305.00 1018.39,305.00 1019.01,305.00 1019.63,305.00 1020.26,305.00 1020.88,305.00 1021.50,305.00 1022.12,305.00 1022.75,305.00 1023.38,305.00 1024.00,305.00 1024.62,305.00 1025.25,305.00 1025.89,305.00 1026.53,305.00 1027.16,305.00 1027.81,305.00 1028.43,305.00 1029.05,305.00 1029.68,305.00 1030.31,305.00 1030.93,305.00 1031.55,305.00 1032.17,305.00 1032.79,305.00 1033.43,305.00 1034.05,305.00 1034.68,305.00 1035.31,305.00 1035.94,305.00 1036.56,305.00 1037.19,305.00 1037.81,305.00 1038.44,305.00 1039.06,305.00 1039.69,305.00 1040.32,305.00 1040.95,305.00 1041.58,305.00 1042.20,305.00 1042.83,305.00 1043.45,305.00 1044.08,305.00 1044.70,305.00 1045.34,305.00 1045.97,305.00 1046.59,305.00 1047.22,305.00 1047.84,305.00 1048.47,305.00 1049.09,305.00 1049.72,305.00 1050.34,305.00 1050.96,305.00 1051.59,305.00 1052.21,305.00 1052.83,305.00 1053.45,305.00 1054.10,305.00 1054.73,305.00 1055.36,305.00 1055.98,305.00 1056.60,305.00 1057.23,305.00 1057.85,305.00 1058.47,305.00 1059.10,305.00 1059.72,305.00 1060.35,305.00 1060.97,305.00 1061.60,305.00 1062.23,305.00 1062.85,305.00 1063.47,305.00 1064.10,305.00 1064.72,305.00 1065.35,305.00 1065.98,305.00 1066.61,305.00 1067.23,305.00 1067.86,305.00 1068.49,305.00 1069.11,305.00 1069.74,305.00 1070.37,305.00 1070.99,305.00 1071.63,305.00 1072.26,305.00 1072.88,305.00 1073.50,305.00 1074.12,305.00 1074.75,305.00 1075.38,305.00 1076.01,305.00 1076.64,305.00 1077.28,305.00 1077.91,305.00 1078.53,305.00 1079.16,305.00 1079.79,305.00 1080.41,305.00 1081.04,305.00 1081.66,305.00 1082.30,305.00 1082.92,305.00 1083.54,305.00 1084.17,305.00 1084.79,305.00 1085.42,305.00 1086.05,305.00 1086.67,305.00 1087.31,305.00 1087.94,305.00 1088.57,305.00 1089.20,305.00 1089.83,305.00 1090.45,305.00 1091.08,305.00 1091.70,305.00 1092.33,305.00 1092.98,305.00 1093.60,305.00 1094.23,305.00 1094.86,305.00 1095.49,305.00 1096.11,305.00 1096.75,305.00 1097.38,305.00 1098.02,305.00 1098.64,305.00 1099.28,305.00 1099.91,305.00 1100.57,305.00 1101.19,305.00 1101.83,305.00 1102.45,305.00 1103.07,305.00 1103.70,305.00 1104.32,305.00 1104.95,305.00 1105.59,305.00 1106.21,305.00 1106.85,305.00 1107.48,305.00 1108.10,305.00 1108.73,305.00 1109.36,305.00 1109.98,305.00 1110.63,305.00 1111.25,305.00 1111.87,305.00 1112.50,305.00 1113.13,305.00 1113.75,305.00 1114.39,305.00 1115.02,305.00 1115.64,305.00 1116.26,305.00 1116.88,305.00 1117.50,305.00 1118.13,305.00 1118.75,305.00 1119.39,305.00 1120.01,305.00 1120.64,305.00 1121.27,305.00 1121.89,305.00 1122.50,305.00 1123.13,305.00 1123.76,305.00 1124.39,305.00 1125.01,305.00 1125.63,305.00 1126.25,305.00 1126.88,305.00 1127.51,305.00 1128.15,305.00 1128.78,305.00 1129.41,305.00 1130.03,305.00 1130.65,305.00 1131.27,305.00 1131.89,305.00 1132.52,305.00 1133.15,305.00 1133.80,305.00 1134.43,305.00 1135.06,305.00 1135.68,305.00 1136.30,305.00 1136.92,305.00 1137.54,305.00 1138.16,305.00 1138.79,305.00 1139.41,305.00 1140.03,305.00 1140.65,305.00 1141.27,305.00 1141.90,305.00 1142.52,305.00 1143.14,305.00 1143.76,305.00 1144.39,305.00 1145.01,305.00 1145.65,305.00 1146.28,305.00 1146.90,305.00 1147.53,305.00 1148.15,305.00 1148.78,305.00 1149.41,305.00 1150.03,305.00 1150.65,305.00 1151.27,305.00 1151.89,305.00 1152.52,305.00 1153.14,305.00 1153.77,305.00 1154.39,305.00 1155.00,305.00 1155.63,305.00 1156.25,305.00 1156.87,305.00 1157.49,305.00 1158.11,305.00 1158.73,305.00 1159.36,305.00 1159.99,305.00 1160.61,305.00 1161.24,305.00 1161.86,305.00 1162.49,305.00 1163.11,305.00 1163.73,305.00 1164.35,305.00 1164.98,305.00 1165.61,305.00 1166.23,305.00 1166.86,305.00 1167.48,305.00 1168.10,305.00 1168.73,305.00 1169.36,305.00 1169.99,305.00 1170.62,305.00 1171.25,305.00 1171.88,305.00 1172.50,305.00 1173.12,305.00 1173.74,305.00 1174.36,305.00 1174.99,305.00 1175.61,305.00 1176.24,305.00 1176.85,305.00 1177.48,305.00 1178.13,305.00 1178.75,305.00 1179.38,305.00 1180.00,305.00"/>
<rect x="70" y="332" width="12" height="12" fill="#9467bd" fill-opacity="0.95"/>
<text x="88" y="342" font-size="11" fill="#333" font-family="Arial, Helvetica, sans-serif">nsc1.utdallas.edu</text>
<rect x="350" y="332" width="12" height="12" fill="#9467bd" fill-opacity="0.80"/>
<text x="368" y="342" font-size="11" fill="#333" font-family="Arial, Helvetica, sans-serif">nsc2.utdallas.edu</text>
<rect x="630" y="332" width="12" height="12" fill="#9467bd" fill-opacity="0.65"/>
<text x="648" y="342" font-size="11" fill="#333" font-family="Arial, Helvetica, sans-serif">nsc3.utdallas.edu</text>
<rect x="910" y="332" width="12" height="12" fill="#9467bd" fill-opacity="0.50"/>
<text x="928" y="342" font-size="11" fill="#333" font-family="Arial, Helvetica, sans-serif">nsc4.utdallas.edu</text>
</svg>