<?xml version="1.0" encoding="UTF-8"?>
<svg xmlns="http://www.w3.org/2000/svg" width="1200" height="360" viewBox="0 0 1200 360" role="img" aria-label="GPU Utilization (%)">
<rect width="100%" height="100%" fill="#ffffff"/>
<text x="600.0" y="22" text-anchor="middle" font-size="16" font-family="Arial, Helvetica, sans-serif" font-weight="bold">GPU Utilization (%)</text>
<line x1="70" y1="35.00" x2="1180" y2="35.00" stroke="#e3e3e3" stroke-width="1"/>
<text x="62" y="39.00" text-anchor="end" font-size="11" fill="#444" font-family="Arial, Helvetica, sans-serif">100</text>
<line x1="70" y1="89.00" x2="1180" y2="89.00" stroke="#e3e3e3" stroke-width="1"/>
<text x="62" y="93.00" text-anchor="end" font-size="11" fill="#444" font-family="Arial, Helvetica, sans-serif">80</text>
<line x1="70" y1="143.00" x2="1180" y2="143.00" stroke="#e3e3e3" stroke-width="1"/>
<text x="62" y="147.00" text-anchor="end" font-size="11" fill="#444" font-family="Arial, Helvetica, sans-serif">60</text>
<line x1="70" y1="197.00" x2="1180" y2="197.00" stroke="#e3e3e3" stroke-width="1"/>
<text x="62" y="201.00" text-anchor="end" font-size="11" fill="#444" font-family="Arial, Helvetica, sans-serif">40</text>
<line x1="70" y1="251.00" x2="1180" y2="251.00" stroke="#e3e3e3" stroke-width="1"/>
<text x="62" y="255.00" text-anchor="end" font-size="11" fill="#444" font-family="Arial, Helvetica, sans-serif">20</text>
<line x1="70" y1="305.00" x2="1180" y2="305.00" stroke="#e3e3e3" stroke-width="1"/>
<text x="62" y="309.00" text-anchor="end" font-size="11" fill="#444" font-family="Arial, Helvetica, sans-serif">0</text>
<line x1="70" y1="35" x2="70" y2="305" stroke="#999"/>
<line x1="70" y1="305" x2="1180" y2="305" stroke="#999"/>
<text x="70.00" y="323" text-anchor="middle" font-size="10" fill="#444" font-family="Arial, Helvetica, sans-serif">2026-02-11 16:38</text>
<text x="347.50" y="323" text-anchor="middle" font-size="10" fill="#444" font-family="Arial, Helvetica, sans-serif">2026-02-13 08:45</text>
<text x="625.00" y="323" text-anchor="middle" font-size="10" fill="#444" font-family="Arial, Helvetica, sans-serif">2026-02-15 00:52</text>
<text x="902.50" y="323" text-anchor="middle" font-size="10" fill="#444" font-family="Arial, Helvetica, sans-serif">2026-02-16 17:00</text>
<text x="1180.00" y="323" text-anchor="middle" font-size="10" fill="#444" font-family="Arial, Helvetica, sans-serif">2026-02-18 09:07</text>
<polyline fill="none" stroke="#9467bd" stroke-opacity="0.95" stroke-width="2" points="70.62,305.00 71.24,305.00 71.86,305.00 72.48,305.00 73.11,305.00 73.73,305.00 74.35,305.00 75.02,305.00 75.64,305.00 76.25,305.00 76.87,305.00 77.50,305.00 78.12,305.00 78.73,305.00 79.85,305.00 80.81,305.00 81.44,305.00 82.07,305.00 82.69,305.00 83.31,305.00 83.92,305.00 84.55,305.00 85.16,305.00 85.79,305.00 86.41,305.00 87.05,305.00 87.67,305.00 88.29,305.00 88.94,305.00 89.57,305.00 90.19,305.00 90.82,305.00 91.44,305.00 92.06,305.00 92.70,305.00 93.32,305.00 93.94,305.00 94.57,305.00 95.18,305.00 95.80,305.00 96.42,305.00 97.04,305.00 97.66,305.00 98.27,305.00 98.91,305.00 99.53,305.00 100.15,305.00 100.77,305.00 101.39,305.00 102.01,305.00 102.72,305.00 103.34,305.00 103.96,305.00 104.58,305.00 105.19,305.00 105.81,305.00 106.42,305.00 107.05,305.00 107.67,305.00 108.30,305.00 108.92,305.00 109.53,305.00 110.15,305.00 110.78,305.00 111.40,305.00 112.02,305.00 112.64,305.00 113.25,305.00 113.87,305.00 114.48,305.00 115.10,305.00 115.72,305.00 116.34,305.00 116.96,305.00 117.58,305.00 118.19,305.00 118.82,305.00 119.43,305.00 120.05,305.00 120.68,305.00 121.30,305.00 121.92,305.00 122.55,305.00 123.16,305.00 123.78,305.00 124.40,305.00 125.02,305.00 125.63,305.00 126.26,305.00 126.88,305.00 127.50,305.00 128.12,305.00 128.74,305.00 129.36,305.00 129.97,305.00 130.59,305.00 131.21,305.00 131.83,305.00 132.44,305.00 133.07,305.00 133.69,305.00 134.31,305.00 134.93,305.00 135.56,305.00 136.18,305.00 136.80,305.00 137.42,305.00 138.04,305.00 138.65,305.00 139.28,305.00 139.90,305.00 140.52,305.00 141.14,305.00 141.76,305.00 142.38,305.00 143.01,305.00 143.64,305.00 144.25,305.00 144.87,305.00 145.49,305.00 146.11,305.00 146.73,305.00 147.36,305.00 148.03,305.00 148.64,305.00 149.27,305.00 149.89,305.00 150.51,305.00 151.12,305.00 151.73,305.00 152.35,305.00 152.97,305.00 153.59,305.00 154.20,305.00 154.82,305.00 155.44,305.00 156.06,305.00 156.69,305.00 157.31,305.00 157.92,305.00 158.54,305.00 159.16,305.00 159.78,305.00 160.40,305.00 161.02,305.00 161.64,305.00 162.26,305.00 162.88,305.00 163.50,305.00 164.11,305.00 164.73,305.00 165.35,305.00 165.97,305.00 166.60,305.00 167.22,305.00 167.84,305.00 168.47,305.00 169.09,305.00 169.70,305.00 170.32,305.00 170.94,305.00 171.57,305.00 172.20,305.00 172.82,305.00 173.44,305.00 174.06,305.00 174.67,305.00 175.29,305.00 175.91,305.00 176.53,305.00 177.14,305.00 177.76,305.00 178.38,305.00 179.00,305.00 179.63,305.00 180.24,305.00 180.88,305.00 181.50,305.00 182.12,305.00 182.73,305.00 183.35,305.00 184.02,305.00 184.66,305.00 185.27,305.00 185.89,305.00 186.50,305.00 187.12,305.00 187.74,305.00 188.36,305.00 188.98,305.00 189.60,305.00 190.22,305.00 190.84,305.00 191.47,305.00 192.09,305.00 192.71,305.00 193.32,305.00 193.95,305.00 194.58,305.00 195.22,305.00 195.83,305.00 196.45,305.00 197.07,305.00 197.69,305.00 198.31,305.00 198.93,305.00 199.56,305.00 200.18,305.00 200.79,305.00 201.42,305.00 202.04,305.00 202.66,305.00 203.28,305.00 203.91,305.00 204.53,305.00 205.14,305.00 205.76,305.00 206.37,305.00 207.00,305.00 207.61,305.00 208.23,305.00 208.85,305.00 209.46,305.00 210.08,305.00 210.71,305.00 211.33,305.00 211.95,305.00 212.58,305.00 213.20,305.00 213.82,305.00 214.44,305.00 215.06,305.00 215.68,305.00 216.30,305.00 216.92,305.00 217.55,305.00 218.18,305.00 218.80,305.00 219.42,305.00 220.04,305.00 220.66,305.00 221.27,305.00 221.89,305.00 222.51,305.00 223.13,305.00 223.75,305.00 224.38,305.00 225.00,305.00 225.62,305.00 226.24,305.00 226.86,305.00 227.49,305.00 228.11,305.00 228.72,305.00 229.35,305.00 229.98,305.00 230.60,305.00 231.22,305.00 231.84,305.00 232.52,305.00 233.15,305.00 233.77,305.00 234.39,305.00 235.01,305.00 235.64,305.00 236.26,305.00 236.88,305.00 237.50,305.00 238.13,80.90 238.76,72.80 239.38,305.00 240.00,305.00 240.62,305.00 241.24,305.00 241.86,305.00 242.50,305.00 243.12,305.00 243.74,305.00 244.37,305.00 245.04,305.00 245.66,305.00 246.44,305.00 247.49,305.00 248.12,305.00 248.76,305.00 249.37,305.00 249.98,305.00 250.60,305.00 251.23,305.00 251.85,305.00 252.47,305.00 253.12,305.00 253.76,305.00 254.42,305.00 255.04,305.00 255.66,305.00 256.28,305.00 256.91,305.00 257.54,305.00 258.17,305.00 258.78,305.00 259.40,305.00 260.05,305.00 260.67,305.00 261.28,305.00 261.91,305.00 262.54,305.00 263.18,305.00 263.80,305.00 264.42,305.00 265.06,305.00 265.66,305.00 266.27,305.00 266.91,305.00 267.52,305.00 268.15,305.00 268.79,305.00 269.41,305.00 270.03,305.00 270.66,305.00 271.29,305.00 271.91,305.00 272.53,305.00 273.14,305.00 273.77,305.00 274.39,305.00 275.00,305.00 275.74,305.00 276.47,305.00 277.21,305.00 277.93,305.00 278.64,305.00 279.35,305.00 280.08,305.00 280.81,305.00 281.43,305.00 282.04,305.00 282.66,305.00 283.28,305.00 283.90,305.00 284.51,305.00 285.13,305.00 285.75,305.00 286.37,305.00 286.99,305.00 287.61,305.00 288.22,305.00 288.84,305.00 289.46,305.00 290.07,305.00 290.69,305.00 291.31,305.00 291.93,305.00 292.55,305.00 293.17,305.00 293.78,305.00 294.40,305.00 295.02,305.00 295.63,305.00 296.26,305.00 296.88,305.00 297.49,305.00 298.11,305.00 298.73,305.00 299.35,305.00 299.97,305.00 300.59,305.00 301.20,305.00 301.82,305.00 302.43,305.00 303.04,305.00 303.66,305.00 304.28,305.00 304.89,305.00 305.51,305.00 306.13,305.00 306.75,305.00 307.36,305.00 307.97,305.00 308.58,305.00 309.22,305.00 309.89,305.00 310.51,305.00 311.13,305.00 311.75,305.00 312.36,305.00 312.98,305.00 313.59,305.00 314.21,305.00 314.94,305.00 315.67,305.00 316.39,305.00 317.11,305.00 317.84,305.00 318.56,305.00 319.30,305.00 320.06,305.00 320.73,305.00 321.40,305.00 322.02,305.00 322.64,305.00 323.26,305.00 323.88,305.00 324.49,305.00 325.11,305.00 325.73,305.00 326.35,305.00 326.96,305.00 327.58,305.00 328.21,305.00 328.82,305.00 329.45,305.00 330.07,305.00 330.68,305.00 331.23,305.00 331.87,305.00 332.48,305.00 333.12,305.00 333.74,305.00 334.35,305.00 334.98,305.00 335.60,305.00 336.22,305.00 336.85,305.00 337.47,305.00 338.11,305.00 338.72,305.00 339.33,305.00 339.95,305.00 340.57,305.00 341.18,305.00 341.80,305.00 342.42,305.00 343.04,305.00 343.66,305.00 344.28,305.00 344.89,305.00 345.52,305.00 346.14,305.00 346.76,305.00 347.38,305.00 348.00,305.00 348.62,305.00 349.25,305.00 349.87,305.00 350.51,305.00 351.12,305.00 351.74,305.00 352.35,305.00 352.97,305.00 353.58,305.00 354.21,305.00 354.83,305.00 355.44,305.00 356.06,305.00 356.68,305.00 357.30,305.00 357.92,305.00 358.54,305.00 359.16,305.00 359.91,305.00 360.55,305.00 361.18,305.00 361.81,305.00 362.43,305.00 363.05,305.00 363.67,305.00 364.28,305.00 364.91,305.00 365.53,305.00 366.15,305.00 366.77,305.00 367.40,305.00 368.01,305.00 368.66,305.00 369.29,305.00 369.91,305.00 370.53,305.00 371.15,305.00 371.77,305.00 372.38,305.00 373.00,305.00 373.65,305.00 374.27,305.00 374.90,305.00 375.52,305.00 376.13,305.00 376.76,305.00 377.37,305.00 378.00,305.00 378.62,305.00 379.24,305.00 379.86,305.00 380.48,305.00 381.10,305.00 381.72,305.00 382.34,305.00 382.97,305.00 383.59,305.00 384.21,305.00 384.83,305.00 385.45,305.00 386.08,305.00 386.70,305.00 387.44,305.00 388.08,305.00 388.70,305.00 389.32,305.00 389.94,305.00 390.56,305.00 391.18,305.00 391.81,305.00 392.44,305.00 393.05,305.00 393.67,305.00 394.29,305.00 394.91,305.00 395.53,305.00 396.15,305.00 396.77,305.00 397.39,305.00 398.00,305.00 398.62,305.00 399.24,305.00 399.87,305.00 400.49,305.00 401.10,305.00 401.73,305.00 402.36,305.00 402.98,305.00 403.59,305.00 404.22,305.00 404.85,305.00 405.47,305.00 406.09,305.00 406.72,305.00 407.34,305.00 407.95,305.00 408.58,305.00 409.20,305.00 409.83,305.00 410.45,305.00 411.07,305.00 411.68,305.00 412.30,305.00 412.92,305.00 413.54,305.00 414.16,305.00 414.79,305.00 415.42,305.00 416.04,305.00 416.65,305.00 417.28,305.00 417.89,305.00 418.51,305.00 419.13,305.00 419.75,305.00 420.37,305.00 421.00,305.00 421.62,305.00 422.24,305.00 422.86,305.00 423.49,305.00 424.11,305.00 424.73,305.00 425.36,305.00 426.06,305.00 426.74,305.00 427.40,305.00 428.03,305.00 428.68,305.00 429.30,305.00 429.92,305.00 430.53,305.00 431.11,305.00 431.76,305.00 432.38,305.00 433.01,305.00 433.62,305.00 434.24,305.00 434.86,305.00 435.49,305.00 436.10,305.00 436.72,305.00 437.34,305.00 437.97,305.00 438.59,305.00 439.21,305.00 439.84,305.00 440.47,305.00 441.09,305.00 441.71,305.00 442.33,305.00 442.97,305.00 443.59,305.00 444.20,305.00 444.82,305.00 445.44,305.00 446.06,305.00 446.68,305.00 447.30,305.00 447.92,305.00 448.55,305.00 449.17,305.00 449.79,305.00 450.41,305.00 451.03,305.00 451.66,305.00 452.28,305.00 452.90,305.00 453.52,305.00 454.14,305.00 454.77,305.00 455.39,305.00 456.02,305.00 456.64,305.00 457.26,305.00 457.89,305.00 458.51,305.00 459.13,305.00 459.77,305.00 460.39,305.00 461.02,305.00 461.64,305.00 462.26,305.00 462.88,305.00 463.50,305.00 464.13,305.00 464.75,305.00 465.37,305.00 465.99,305.00 466.62,305.00 467.24,305.00 467.87,305.00 468.49,305.00 469.12,305.00 469.74,305.00 470.37,305.00 471.00,305.00 471.62,305.00 472.23,305.00 472.86,305.00 473.48,305.00 474.12,305.00 474.74,305.00 475.37,305.00 475.99,305.00 476.61,305.00 477.23,305.00 477.85,305.00 478.47,305.00 479.10,305.00 479.72,305.00 480.34,305.00 480.96,305.00 481.59,305.00 482.21,305.00 482.83,305.00 483.45,305.00 484.08,305.00 484.71,305.00 485.33,305.00 485.95,305.00 486.57,305.00 487.19,305.00 487.81,305.00 488.43,305.00 489.05,305.00 489.68,305.00 490.30,305.00 490.93,305.00 491.55,305.00 492.18,305.00 492.80,305.00 493.42,305.00 494.05,305.00 494.68,305.00 495.30,305.00 495.92,305.00 496.54,305.00 497.17,305.00 497.80,305.00 498.42,305.00 499.06,305.00 499.68,305.00 500.31,305.00 500.93,305.00 501.55,305.00 502.18,305.00 502.80,305.00 503.43,305.00 504.06,305.00 504.68,305.00 505.30,305.00 505.92,305.00 506.56,305.00 507.17,305.00 507.80,305.00 508.42,305.00 509.04,305.00 509.66,305.00 510.28,305.00 510.90,305.00 511.52,305.00 512.15,305.00 512.77,305.00 513.39,305.00 514.01,305.00 514.64,305.00 515.28,305.00 515.90,305.00 516.52,305.00 517.14,305.00 517.76,305.00 518.38,305.00 519.00,305.00 519.63,305.00 520.25,305.00 520.88,305.00 521.50,305.00 522.12,305.00 522.75,305.00 523.37,305.00 524.00,305.00 524.64,305.00 525.27,305.00 525.89,305.00 526.52,305.00 527.14,305.00 527.77,305.00 528.39,305.00 529.01,305.00 529.63,305.00 530.26,305.00 530.88,305.00 531.51,305.00 532.13,305.00 532.76,305.00 533.41,305.00 534.03,305.00 534.65,305.00 535.28,305.00 535.90,305.00 536.52,305.00 537.15,305.00 537.78,305.00 538.41,305.00 539.04,305.00 539.66,305.00 540.28,305.00 540.91,305.00 541.53,305.00 542.16,305.00 542.78,305.00 543.40,305.00 544.03,305.00 544.66,305.00 545.28,305.00 545.90,305.00 546.53,305.00 547.15,305.00 547.78,305.00 548.40,305.00 549.03,305.00 549.67,305.00 550.30,305.00 550.93,305.00 551.55,305.00 552.19,305.00 552.83,305.00 553.46,305.00 554.09,305.00 554.74,305.00 555.36,305.00 555.99,305.00 556.61,305.00 557.23,305.00 557.86,305.00 558.49,305.00 559.13,305.00 559.75,305.00 560.37,305.00 561.00,305.00 561.62,305.00 562.24,305.00 562.87,305.00 563.49,305.00 564.11,305.00 564.73,305.00 565.35,305.00 565.97,305.00 566.59,305.00 567.21,305.00 567.84,305.00 568.46,305.00 569.08,305.00 569.71,305.00 570.34,305.00 570.96,305.00 571.59,305.00 572.21,305.00 572.83,305.00 573.45,305.00 574.07,305.00 574.70,305.00 575.33,305.00 575.94,305.00 576.56,305.00 577.18,305.00 577.80,305.00 578.43,305.00 579.05,305.00 579.67,305.00 580.30,305.00 580.92,305.00 581.54,305.00 582.17,305.00 582.79,305.00 583.40,305.00 584.02,305.00 584.63,305.00 585.25,305.00 585.88,305.00 586.51,305.00 587.13,305.00 587.75,305.00 588.38,305.00 589.01,305.00 589.64,305.00 590.26,305.00 590.89,305.00 591.51,305.00 592.13,305.00 592.76,305.00 593.38,305.00 594.02,305.00 594.64,305.00 595.27,305.00 595.88,305.00 596.51,305.00 597.13,305.00 597.75,305.00 598.37,305.00 598.98,305.00 599.61,305.00 600.23,305.00 600.86,305.00 601.48,305.00 602.10,305.00 602.72,305.00 603.34,305.00 603.97,305.00 604.59,305.00 605.22,305.00 605.84,305.00 606.46,305.00 607.09,305.00 607.71,305.00 608.33,305.00 608.96,305.00 609.58,305.00 610.20,305.00 610.83,305.00 611.45,305.00 612.07,305.00 612.69,305.00 613.31,305.00 613.96,305.00 614.58,305.00 615.22,305.00 615.85,305.00 616.47,305.00 617.10,305.00 617.72,305.00 618.35,305.00 618.97,305.00 619.59,305.00 620.22,305.00 620.86,305.00 621.48,305.00 622.10,305.00 622.73,305.00 623.35,305.00 623.98,305.00 624.60,305.00 625.22,305.00 625.84,305.00 626.47,305.00 627.09,305.00 627.71,305.00 628.33,305.00 628.96,305.00 629.57,305.00 630.19,305.00 630.82,305.00 631.44,305.00 632.06,305.00 632.69,305.00 633.31,305.00 633.93,305.00 634.56,305.00 635.18,305.00 635.80,305.00 636.43,305.00 637.05,305.00 637.68,305.00 638.30,305.00 638.92,305.00 639.54,305.00 640.17,305.00 640.79,305.00 641.41,305.00 642.04,305.00 642.68,305.00 643.31,305.00 643.95,305.00 644.58,305.00 645.22,305.00 645.86,305.00 646.49,305.00 647.14,305.00 647.77,305.00 648.41,305.00 649.03,305.00 649.65,305.00 650.28,305.00 650.91,305.00 651.53,305.00 652.16,305.00 652.78,305.00 653.41,305.00 654.04,305.00 654.66,305.00 655.28,305.00 655.90,305.00 656.52,305.00 657.14,305.00 657.76,305.00 658.39,305.00 659.02,305.00 659.64,305.00 660.27,305.00 660.90,305.00 661.52,305.00 662.14,305.00 662.76,305.00 663.39,305.00 664.01,305.00 664.63,305.00 665.26,305.00 665.88,305.00 666.51,305.00 667.13,305.00 667.75,305.00 668.38,305.00 669.00,305.00 669.62,305.00 670.29,305.00 670.93,305.00 671.55,305.00 672.18,305.00 672.79,305.00 673.43,305.00 674.06,305.00 674.69,305.00 675.31,305.00 675.93,305.00 676.54,305.00 677.16,305.00 677.78,305.00 678.41,305.00 679.03,305.00 679.65,305.00 680.28,305.00 680.91,305.00 681.54,305.00 682.16,305.00 682.78,305.00 683.40,305.00 684.03,305.00 684.65,305.00 685.27,305.00 685.89,305.00 686.52,305.00 687.15,305.00 687.77,305.00 688.42,305.00 689.05,305.00 689.67,305.00 690.29,305.00 690.91,305.00 691.54,305.00 692.17,305.00 692.79,305.00 693.41,305.00 694.04,305.00 694.66,305.00 695.30,305.00 695.92,305.00 696.55,305.00 697.17,305.00 697.79,305.00 698.42,305.00 699.04,305.00 699.67,305.00 700.28,305.00 700.92,305.00 701.54,305.00 702.16,305.00 702.79,305.00 703.41,305.00 704.03,305.00 704.66,305.00 705.27,305.00 705.90,305.00 706.52,305.00 707.15,305.00 707.77,305.00 708.39,305.00 709.01,305.00 709.64,305.00 710.27,305.00 710.89,305.00 711.51,305.00 712.13,305.00 712.75,305.00 713.37,305.00 714.00,305.00 714.62,305.00 715.26,305.00 715.88,305.00 716.51,305.00 717.14,305.00 717.76,305.00 718.39,305.00 719.06,305.00 719.70,305.00 720.32,305.00 720.95,305.00 721.59,305.00 722.21,305.00 722.83,305.00 723.45,305.00 724.08,305.00 724.70,305.00 725.33,305.00 725.95,305.00 726.58,305.00 727.21,305.00 727.84,305.00 728.47,305.00 729.09,305.00 729.71,305.00 730.34,305.00 730.96,305.00 731.59,305.00 732.21,305.00 732.84,305.00 733.46,305.00 734.09,305.00 734.71,305.00 735.34,305.00 735.97,305.00 736.60,305.00 737.22,305.00 737.85,305.00 738.47,305.00 739.10,305.00 739.73,305.00 740.34,305.00 740.96,305.00 741.59,305.00 742.21,305.00 742.84,305.00 743.46,305.00 744.08,305.00 744.71,305.00 745.33,305.00 745.96,305.00 746.58,305.00 747.21,305.00 747.83,305.00 748.46,305.00 749.09,305.00 749.70,305.00 750.31,305.00 750.93,305.00 751.55,305.00 752.18,305.00 752.80,305.00 753.44,305.00 754.06,305.00 754.69,305.00 755.32,305.00 755.94,305.00 756.56,305.00 757.18,305.00 757.81,305.00 758.42,305.00 759.04,305.00 759.67,305.00 760.29,305.00 760.91,305.00 761.53,305.00 762.15,305.00 762.78,305.00 763.40,305.00 764.03,305.00 764.64,305.00 765.26,305.00 765.87,305.00 766.51,305.00 767.13,305.00 767.75,305.00 768.38,305.00 769.01,305.00 769.63,305.00 770.25,305.00 770.88,305.00 771.50,305.00 772.13,305.00 772.75,305.00 773.42,305.00 774.04,305.00 774.67,305.00 775.30,305.00 775.93,305.00 776.55,305.00 777.17,305.00 777.80,305.00 778.42,305.00 779.04,305.00 779.66,305.00 780.28,305.00 780.91,305.00 781.54,305.00 782.16,305.00 782.79,305.00 783.41,305.00 784.04,305.00 784.66,305.00 785.29,305.00 785.91,305.00 786.55,305.00 787.18,305.00 787.81,305.00 788.43,305.00 789.06,305.00 789.69,305.00 790.31,305.00 790.94,305.00 791.56,305.00 792.18,305.00 792.80,305.00 793.43,305.00 794.05,305.00 794.68,305.00 795.30,305.00 795.93,305.00 796.55,305.00 797.17,305.00 797.79,305.00 798.41,305.00 799.04,305.00 799.66,305.00 800.28,305.00 800.91,305.00 801.52,305.00 802.14,305.00 802.76,305.00 803.39,305.00 804.01,305.00 804.63,305.00 805.25,305.00 805.87,305.00 806.49,305.00 807.11,305.00 807.73,305.00 808.36,305.00 808.98,305.00 809.60,305.00 810.21,305.00 810.83,305.00 811.47,305.00 812.09,305.00 812.71,305.00 813.33,305.00 813.98,305.00 814.60,305.00 815.23,305.00 815.86,305.00 816.48,305.00 817.11,305.00 817.73,305.00 818.36,305.00 818.98,305.00 819.60,305.00 820.22,305.00 820.84,305.00 821.47,305.00 822.09,305.00 822.72,305.00 823.33,305.00 823.95,305.00 824.58,305.00 825.20,305.00 825.82,305.00 826.45,305.00 827.10,305.00 827.72,305.00 828.34,305.00 828.96,305.00 829.57,305.00 830.21,305.00 830.83,305.00 831.45,305.00 832.08,305.00 832.70,305.00 833.33,305.00 833.95,305.00 834.58,305.00 835.20,305.00 835.82,305.00 836.45,305.00 837.07,305.00 837.69,305.00 838.31,305.00 838.93,305.00 839.55,305.00 840.18,305.00 840.80,305.00 841.42,305.00 842.04,305.00 842.66,305.00 843.29,305.00 843.91,305.00 844.54,305.00 845.16,305.00 845.78,305.00 846.40,305.00 847.02,305.00 847.65,305.00 848.27,305.00 848.89,305.00 849.52,305.00 850.14,305.00 850.75,305.00 851.38,305.00 852.00,305.00 852.62,305.00 853.26,305.00 853.88,305.00 854.50,305.00 855.13,305.00 855.75,305.00 856.38,305.00 857.02,305.00 858.30,305.00 858.93,305.00 859.60,305.00 860.22,305.00 860.84,305.00 861.46,305.00 862.08,305.00 862.70,305.00 863.33,305.00 863.95,305.00 864.57,305.00 865.20,305.00 865.82,305.00 866.44,305.00 867.06,305.00 867.68,305.00 868.31,305.00 868.93,305.00 869.55,305.00 870.16,305.00 870.79,305.00 871.42,305.00 872.04,305.00 872.66,305.00 873.28,305.00 873.90,305.00 874.53,305.00 875.16,305.00 875.78,305.00 876.40,305.00 877.03,305.00 877.65,305.00 878.27,305.00 878.89,305.00 879.51,305.00 880.13,305.00 880.75,305.00 881.37,305.00 881.98,305.00 882.60,305.00 883.23,305.00 883.85,305.00 884.48,305.00 885.10,305.00 885.75,305.00 886.37,305.00 886.99,305.00 887.61,305.00 888.23,305.00 888.85,305.00 889.47,305.00 890.09,305.00 890.71,305.00 891.33,305.00 891.95,305.00 892.57,305.00 893.19,305.00 893.81,305.00 894.43,305.00 895.05,305.00 895.67,305.00 896.30,305.00 896.92,305.00 897.54,305.00 898.17,305.00 898.79,305.00 899.41,305.00 900.04,305.00 900.66,305.00 901.28,305.00 901.91,305.00 902.53,305.00 903.16,305.00 903.78,305.00 904.40,305.00 905.02,305.00 905.65,305.00 906.27,305.00 906.91,305.00 907.53,305.00 908.16,305.00 908.79,305.00 909.41,305.00 910.03,305.00 910.65,305.00 911.27,305.00 911.90,305.00 912.53,305.00 913.14,305.00 913.77,305.00 914.40,305.00 915.02,305.00 915.65,305.00 916.28,305.00 916.92,305.00 917.58,305.00 918.21,305.00 918.83,305.00 919.45,305.00 920.07,305.00 920.70,305.00 921.32,305.00 921.94,305.00 922.57,305.00 923.19,305.00 923.82,305.00 924.44,305.00 925.06,305.00 925.68,305.00 926.30,305.00 926.93,305.00 927.57,305.00 928.21,305.00 928.83,305.00 929.46,305.00 930.11,305.00 930.74,305.00 931.40,305.00 932.03,305.00 932.65,305.00 933.28,305.00 933.90,305.00 934.52,305.00 935.15,305.00 935.76,305.00 936.39,305.00 937.01,305.00 937.63,305.00 938.27,305.00 938.89,305.00 939.52,305.00 940.15,305.00 940.88,305.00 941.50,305.00 942.12,305.00 942.74,305.00 943.36,305.00 943.98,305.00 944.59,305.00 945.17,305.00 945.73,305.00 946.40,305.00 946.99,305.00 947.55,305.00 948.19,305.00 948.73,305.00 949.35,305.00 949.98,305.00 950.60,305.00 951.22,305.00 951.84,305.00 952.46,305.00 953.08,305.00 953.69,305.00 954.32,305.00 954.94,305.00 955.56,305.00 956.18,305.00 956.81,305.00 957.42,305.00 958.05,305.00 958.66,305.00 959.28,305.00 959.89,305.00 960.51,305.00 961.14,305.00 961.76,305.00 962.38,305.00 963.01,305.00 963.63,305.00 964.24,305.00 964.86,305.00 965.48,305.00 966.10,305.00 966.72,305.00 967.33,305.00 967.95,305.00 968.57,305.00 969.19,305.00 969.81,305.00 970.43,305.00 971.05,305.00 971.68,305.00 972.30,305.00 972.92,305.00 973.53,305.00 974.16,305.00 974.78,305.00 975.40,305.00 976.02,305.00 976.63,305.00 977.25,305.00 977.87,305.00 978.49,305.00 979.10,305.00 979.72,305.00 980.35,305.00 980.98,305.00 981.60,305.00 982.22,305.00 982.84,305.00 983.46,305.00 984.09,305.00 984.71,305.00 985.33,305.00 985.95,305.00 986.57,305.00 987.19,305.00 987.81,305.00 988.43,305.00 989.05,305.00 989.67,305.00 990.29,305.00 990.91,305.00 991.53,305.00 992.16,305.00 992.77,305.00 993.40,305.00 994.02,305.00 994.64,305.00 995.26,305.00 995.88,305.00 996.50,305.00 997.18,305.00 997.80,305.00 998.42,305.00 999.04,305.00 999.66,305.00 1000.29,305.00 1000.90,305.00 1001.53,305.00 1002.40,305.00 1003.02,305.00 1003.88,305.00 1004.50,305.00 1005.13,305.00 1005.75,305.00 1006.37,305.00 1006.99,305.00 1007.61,305.00 1008.22,305.00 1008.84,305.00 1009.46,305.00 1010.08,305.00 1010.70,305.00 1011.32,305.00 1011.95,305.00 1012.57,305.00 1013.19,305.00 1013.81,305.00 1014.44,305.00 1015.05,305.00 1015.69,305.00 1016.31,305.00 1016.92,305.00 1017.55,305.00 1018.17,305.00 1018.79,305.00 1019.41,305.00 1020.04,305.00 1020.66,305.00 1021.28,305.00 1021.90,305.00 1022.53,305.00 1023.16,305.00 1023.80,305.00 1024.43,305.00 1025.08,305.00 1025.70,305.00 1026.32,305.00 1026.95,305.00 1027.57,305.00 1028.19,305.00 1028.81,305.00 1029.43,305.00 1030.05,305.00 1030.68,305.00 1031.31,305.00 1031.93,305.00 1032.56,305.00 1033.18,305.00 1033.81,305.00 1034.43,305.00 1035.05,305.00 1035.68,305.00 1036.30,305.00 1036.93,305.00 1037.55,305.00 1038.18,305.00 1038.81,305.00 1039.43,305.00 1040.05,305.00 1040.68,305.00 1041.30,305.00 1041.92,305.00 1042.56,305.00 1043.19,305.00 1043.81,305.00 1044.43,305.00 1045.06,305.00 1045.68,305.00 1046.30,305.00 1046.93,305.00 1047.55,305.00 1048.17,305.00 1048.79,305.00 1049.41,305.00 1050.03,305.00 1050.65,305.00 1051.29,305.00 1051.92,305.00 1052.55,305.00 1053.17,305.00 1053.79,305.00 1054.41,305.00 1055.03,305.00 1055.66,305.00 1056.28,305.00 1056.90,305.00 1057.52,305.00 1058.15,305.00 1058.77,305.00 1059.40,305.00 1060.02,305.00 1060.64,305.00 1061.26,305.00 1061.89,305.00 1062.51,305.00 1063.14,305.00 1063.77,305.00 1064.39,305.00 1065.01,305.00 1065.64,305.00 1066.27,305.00 1066.89,305.00 1067.52,305.00 1068.14,305.00 1068.77,305.00 1069.40,305.00 1070.02,305.00 1070.64,305.00 1071.26,305.00 1071.88,305.00 1072.52,305.00 1073.14,305.00 1073.77,305.00 1074.41,305.00 1075.04,305.00 1075.66,305.00 1076.28,305.00 1076.91,305.00 1077.53,305.00 1078.16,305.00 1078.78,305.00 1079.41,305.00 1080.03,305.00 1080.65,305.00 1081.28,305.00 1081.90,305.00 1082.53,305.00 1083.15,305.00 1083.77,305.00 1084.41,305.00 1085.04,305.00 1085.67,305.00 1086.29,305.00 1086.92,305.00 1087.55,305.00 1088.17,305.00 1088.79,305.00 1089.41,305.00 1090.06,305.00 1090.69,305.00 1091.31,305.00 1091.94,305.00 1092.56,305.00 1093.18,305.00 1093.83,305.00 1094.45,305.00 1095.09,305.00 1095.71,305.00 1096.34,305.00 1096.97,305.00 1097.63,305.00 1098.25,305.00 1098.88,305.00 1099.51,305.00 1100.13,305.00 1100.75,305.00 1101.37,305.00 1102.00,305.00 1102.63,305.00 1103.25,305.00 1103.90,305.00 1104.52,305.00 1105.14,305.00 1105.77,305.00 1106.40,305.00 1107.02,305.00 1107.66,305.00 1108.28,305.00 1108.90,305.00 1109.53,305.00 1110.15,305.00 1110.77,305.00 1111.41,305.00 1112.04,305.00 1112.66,305.00 1113.27,305.00 1113.89,305.00 1114.52,305.00 1115.14,305.00 1115.76,305.00 1116.40,305.00 1117.02,305.00 1117.64,305.00 1118.27,305.00 1118.89,305.00 1119.50,305.00 1120.13,305.00 1120.75,305.00 1121.38,305.00 1122.01,305.00 1122.62,305.00 1123.24,305.00 1123.87,305.00 1124.49,305.00 1125.14,305.00 1125.76,305.00 1126.39,305.00 1127.01,305.00 1127.63,305.00 1128.25,305.00 1128.86,305.00 1129.49,305.00 1130.12,305.00 1130.77,305.00 1131.39,305.00 1132.02,305.00 1132.64,305.00 1133.26,305.00 1133.88,305.00 1134.49,305.00 1135.11,305.00 1135.74,305.00 1136.36,305.00 1136.98,305.00 1137.60,305.00 1138.22,305.00 1138.84,305.00 1139.47,305.00 1140.08,305.00 1140.70,305.00 1141.33,305.00 1141.95,305.00 1142.58,305.00 1143.21,305.00 1143.84,305.00 1144.45,305.00 1145.07,305.00 1145.70,305.00 1146.33,305.00 1146.95,305.00 1147.57,305.00 1148.19,305.00 1148.81,305.00 1149.43,305.00 1150.06,305.00 1150.68,305.00 1151.30,305.00 1151.91,305.00 1152.54,305.00 1153.16,305.00 1153.77,305.00 1154.39,305.00 1155.01,305.00 1155.63,305.00 1156.26,305.00 1156.88,305.00 1157.50,305.00 1158.13,305.00 1158.75,305.00 1159.37,305.00 1159.99,305.00 1160.61,305.00 1161.23,305.00 1161.86,305.00 1162.48,305.00 1163.10,305.00 1163.73,305.00 1164.35,305.00 1164.97,305.00 1165.60,305.00 1166.23,305.00 1166.85,305.00 1167.48,305.00 1168.11,305.00 1168.74,305.00 1169.36,305.00 1169.98,305.00 1170.60,305.00 1171.22,305.00 1171.84,305.00 1172.46,305.00 1173.08,305.00 1173.70,305.00 1174.32,305.00 1174.97,305.00 1175.59,305.00 1176.22,305.00 1176.84,305.00 1177.46,305.00 1178.10,305.00 1178.73,305.00 1179.39,305.00 1180.00,305.00"/>
<polyline fill="none" stroke="#9467bd" stroke-opacity="0.80" stroke-width="2" points="70.00,305.00 70.62,305.00 71.24,305.00 71.86,305.00 72.48,305.00 73.11,305.00 73.73,305.00 74.35,305.00 75.02,305.00 75.64,305.00 76.25,305.00 76.87,305.00 77.50,305.00 78.12,305.00 78.73,305.00 79.85,305.00 80.81,305.00 81.44,305.00 82.07,305.00 82.69,305.00 83.31,305.00 83.92,305.00 84.55,305.00 85.16,305.00 85.79,305.00 86.41,305.00 87.05,305.00 87.67,305.00 88.29,305.00 88.94,305.00 89.57,305.00 90.19,305.00 90.82,305.00 91.44,305.00 92.06,305.00 92.70,305.00 93.32,305.00 93.94,305.00 94.57,305.00 95.18,305.00 95.80,305.00 96.42,305.00 97.04,305.00 97.66,305.00 98.27,305.00 98.91,305.00 99.53,305.00 100.15,305.00 100.77,305.00 101.39,305.00 102.01,305.00 102.72,305.00 103.34,305.00 103.96,305.00 104.58,305.00 105.19,305.00 105.81,305.00 106.42,305.00 107.05,305.00 107.67,305.00 108.30,305.00 108.92,305.00 109.53,305.00 110.15,305.00 110.78,305.00 111.40,305.00 112.02,305.00 112.64,305.00 113.25,305.00 113.87,305.00 114.48,305.00 115.10,305.00 115.72,305.00 116.34,305.00 116.96,305.00 117.58,305.00 118.19,305.00 118.82,305.00 119.43,305.00 120.05,305.00 120.68,305.00 121.30,305.00 121.92,305.00 122.55,305.00 123.16,305.00 123.78,305.00 124.40,305.00 125.02,305.00 125.63,305.00 126.26,305.00 126.88,305.00 127.50,305.00 128.12,305.00 128.74,305.00 129.36,305.00 129.97,305.00 130.59,305.00 131.21,305.00 131.83,305.00 132.44,305.00 133.07,305.00 133.69,305.00 134.31,305.00 134.93,305.00 135.56,305.00 136.18,305.00 136.80,305.00 137.42,305.00 138.04,305.00 138.65,305.00 139.28,305.00 139.90,305.00 140.52,305.00 141.14,305.00 141.76,305.00 142.38,305.00 143.01,305.00 143.64,305.00 144.25,305.00 144.87,305.00 145.49,305.00 146.11,305.00 146.73,305.00 147.36,305.00 148.03,305.00 148.64,305.00 149.27,305.00 149.89,305.00 150.51,305.00 151.12,305.00 151.73,305.00 152.35,305.00 152.97,305.00 153.59,305.00 154.20,305.00 154.82,305.00 155.44,305.00 156.06,305.00 156.69,305.00 157.31,305.00 157.92,305.00 158.54,305.00 159.16,305.00 159.78,305.00 160.40,305.00 161.02,305.00 161.64,305.00 162.26,305.00 162.88,305.00 163.50,305.00 164.11,305.00 164.73,305.00 165.35,305.00 165.97,305.00 166.60,305.00 167.22,305.00 167.84,305.00 168.47,305.00 169.09,305.00 169.70,305.00 170.32,305.00 170.94,305.00 171.57,305.00 172.20,305.00 172.82,305.00 173.44,305.00 174.06,305.00 174.67,305.00 175.29,305.00 175.91,305.00 176.53,305.00 177.14,305.00 177.76,305.00 178.38,305.00 179.00,305.00 179.63,305.00 180.24,305.00 180.88,305.00 181.50,305.00 182.12,305.00 182.73,305.00 183.35,305.00 184.02,305.00 184.66,305.00 185.27,305.00 185.89,305.00 186.50,305.00 187.12,305.00 187.74,305.00 188.36,305.00 188.98,305.00 189.60,305.00 190.22,305.00 190.84,305.00 191.47,305.00 192.09,305.00 192.71,305.00 193.32,305.00 193.95,305.00 194.58,305.00 195.22,305.00 195.83,305.00 196.45,305.00 197.07,305.00 197.69,305.00 198.31,305.00 198.93,305.00 199.56,305.00 200.18,305.00 200.79,305.00 201.42,305.00 202.04,305.00 202.66,305.00 203.28,305.00 203.91,305.00 204.53,305.00 205.14,305.00 205.76,305.00 206.37,305.00 207.00,305.00 207.61,305.00 208.23,305.00 208.85,305.00 209.46,305.00 210.08,305.00 210.71,305.00 211.33,305.00 211.95,305.00 212.58,305.00 213.20,305.00 213.82,305.00 214.44,305.00 215.06,305.00 215.68,305.00 216.30,305.00 216.92,305.00 217.55,305.00 218.18,305.00 218.80,305.00 219.42,305.00 220.04,305.00 220.66,305.00 221.27,305.00 221.89,305.00 222.51,305.00 223.13,305.00 223.75,305.00 224.38,305.00 225.00,305.00 225.62,305.00 226.24,305.00 226.86,305.00 227.49,305.00 228.11,305.00 228.72,305.00 229.35,305.00 229.98,305.00 230.60,305.00 231.22,305.00 231.84,305.00 232.52,305.00 233.15,305.00 233.77,305.00 234.39,305.00 235.01,305.00 235.64,305.00 236.26,305.00 236.88,305.00 237.50,305.00 238.13,305.00 238.76,305.00 239.38,305.00 240.00,305.00 240.62,305.00 241.24,305.00 241.86,305.00 242.50,305.00 243.12,305.00 243.74,305.00 244.37,305.00 245.04,305.00 245.66,305.00 246.44,305.00 247.49,305.00 248.12,305.00 248.76,305.00 249.37,305.00 249.98,305.00 250.60,305.00 251.23,305.00 251.85,305.00 252.47,305.00 253.12,305.00 253.76,305.00 254.42,305.00 255.04,305.00 255.66,305.00 256.28,305.00 256.91,305.00 257.54,305.00 258.17,305.00 258.78,305.00 259.40,305.00 260.05,305.00 260.67,305.00 261.28,305.00 261.91,305.00 262.54,305.00 263.18,305.00 263.80,305.00 264.42,305.00 265.06,305.00 265.66,305.00 266.27,305.00 266.91,305.00 267.52,305.00 268.15,305.00 268.79,305.00 269.41,305.00 270.03,305.00 270.66,305.00 271.29,305.00 271.91,305.00 272.53,305.00 273.14,305.00 273.77,305.00 274.39,305.00 275.00,305.00 275.74,305.00 276.47,305.00 277.21,305.00 277.93,305.00 278.64,305.00 279.35,305.00 280.08,305.00 280.81,305.00 281.43,305.00 282.04,305.00 282.66,305.00 283.28,305.00 283.90,305.00 284.51,305.00 285.13,305.00 285.75,305.00 286.37,305.00 286.99,305.00 287.61,305.00 288.22,305.00 288.84,305.00 289.46,305.00 290.07,305.00 290.69,305.00 291.31,305.00 291.93,305.00 292.55,305.00 293.17,305.00 293.78,305.00 294.40,305.00 295.02,305.00 295.63,305.00 296.26,305.00 296.88,305.00 297.49,305.00 298.11,305.00 298.73,305.00 299.35,305.00 299.97,305.00 300.59,305.00 301.20,305.00 301.82,305.00 302.43,305.00 303.04,305.00 303.66,305.00 304.28,305.00 304.89,305.00 305.51,305.00 306.13,305.00 306.75,305.00 307.36,305.00 307.97,305.00 308.58,305.00 309.22,305.00 309.89,305.00 310.51,305.00 311.13,305.00 311.75,305.00 312.36,305.00 312.98,305.00 313.59,305.00 314.21,305.00 314.94,305.00 315.67,305.00 316.39,305.00 317.11,305.00 317.84,305.00 318.56,305.00 319.30,305.00 320.06,305.00 320.73,305.00 321.40,305.00 322.02,305.00 322.64,305.00 323.26,305.00 323.88,305.00 324.49,305.00 325.11,305.00 325.73,305.00 326.35,305.00 326.96,305.00 327.58,305.00 328.21,305.00 328.82,305.00 329.45,305.00 330.07,305.00 330.68,305.00 331.23,305.00 331.87,305.00 332.48,305.00 333.12,305.00 333.74,305.00 334.35,305.00 334.98,305.00 335.60,305.00 336.22,305.00 336.85,305.00 337.47,305.00 338.11,305.00 338.72,305.00 339.33,305.00 339.95,305.00 340.57,305.00 341.18,305.00 341.80,305.00 342.42,305.00 343.04,305.00 343.66,305.00 344.28,305.00 344.89,305.00 345.52,305.00 346.14,305.00 346.76,305.00 347.38,305.00 348.00,305.00 348.62,305.00 349.25,305.00 349.87,305.00 350.51,305.00 351.12,305.00 351.74,305.00 352.35,305.00 352.97,305.00 353.58,305.00 354.21,305.00 354.83,305.00 355.44,305.00 356.06,305.00 356.68,305.00 357.30,305.00 357.92,305.00 358.54,305.00 359.16,305.00 359.91,305.00 360.55,305.00 361.18,305.00 361.81,305.00 362.43,305.00 363.05,305.00 363.67,305.00 364.28,305.00 364.91,305.00 365.53,305.00 366.15,305.00 366.77,305.00 367.40,305.00 368.01,305.00 368.66,305.00 369.29,305.00 369.91,305.00 370.53,305.00 371.15,305.00 371.77,305.00 372.38,305.00 373.00,305.00 373.65,305.00 374.27,305.00 374.90,305.00 375.52,305.00 376.13,305.00 376.76,305.00 377.37,305.00 378.00,305.00 378.62,305.00 379.24,305.00 379.86,305.00 380.48,305.00 381.10,305.00 381.72,305.00 382.34,305.00 382.97,305.00 383.59,305.00 384.21,305.00 384.83,305.00 385.45,305.00 386.08,305.00 386.70,305.00 387.44,305.00 388.08,305.00 388.70,305.00 389.32,305.00 389.94,305.00 390.56,305.00 391.18,305.00 391.81,305.00 392.44,305.00 393.05,305.00 393.67,305.00 394.29,305.00 394.91,305.00 395.53,305.00 396.15,305.00 396.77,305.00 397.39,305.00 398.00,305.00 398.62,305.00 399.24,305.00 399.87,305.00 400.49,305.00 401.10,305.00 401.73,305.00 402.36,305.00 402.98,305.00 403.59,305.00 404.22,305.00 404.85,305.00 405.47,305.00 406.09,305.00 406.72,305.00 407.34,305.00 407.95,305.00 408.58,305.00 409.20,305.00 409.83,305.00 410.45,305.00 411.07,305.00 411.68,305.00 412.30,305.00 412.92,305.00 413.54,305.00 414.16,305.00 414.79,305.00 415.42,305.00 416.04,305.00 416.65,305.00 417.28,305.00 417.89,305.00 418.51,305.00 419.13,305.00 419.75,305.00 420.37,305.00 421.00,305.00 421.62,305.00 422.24,305.00 422.86,305.00 423.49,305.00 424.11,305.00 424.73,305.00 425.36,305.00 426.06,305.00 426.74,305.00 427.40,305.00 428.03,305.00 428.68,305.00 429.30,305.00 429.92,305.00 430.53,305.00 431.11,305.00 431.76,305.00 432.38,305.00 433.01,305.00 433.62,305.00 434.24,305.00 434.86,305.00 435.49,305.00 436.10,305.00 436.72,305.00 437.34,305.00 437.97,305.00 438.59,305.00 439.21,305.00 439.84,305.00 440.47,305.00 441.09,305.00 441.71,305.00 442.33,305.00 442.97,305.00 443.59,305.00 444.20,305.00 444.82,305.00 445.44,305.00 446.06,305.00 446.68,305.00 447.30,305.00 447.92,305.00 448.55,305.00 449.17,305.00 449.79,305.00 450.41,305.00 451.03,305.00 451.66,305.00 452.28,305.00 452.90,305.00 453.52,305.00 454.14,305.00 454.77,305.00 455.39,305.00 456.02,305.00 456.64,305.00 457.26,305.00 457.89,305.00 458.51,305.00 459.13,305.00 459.77,305.00 460.39,305.00 461.02,305.00 461.64,305.00 462.26,305.00 462.88,305.00 463.50,305.00 464.13,305.00 464.75,305.00 465.37,305.00 465.99,305.00 466.62,305.00 467.24,305.00 467.87,305.00 468.49,305.00 469.12,305.00 469.74,305.00 470.37,305.00 471.00,305.00 471.62,305.00 472.23,305.00 472.86,305.00 473.48,305.00 474.12,305.00 474.74,305.00 475.37,305.00 475.99,305.00 476.61,305.00 477.23,305.00 477.85,305.00 478.47,305.00 479.10,305.00 479.72,305.00 480.34,305.00 480.96,305.00 481.59,305.00 482.21,305.00 482.83,305.00 483.45,305.00 484.08,305.00 484.71,305.00 485.33,305.00 485.95,305.00 486.57,305.00 487.19,305.00 487.81,305.00 488.43,305.00 489.05,305.00 489.68,305.00 490.30,305.00 490.93,305.00 491.55,305.00 492.18,305.00 492.80,305.00 493.42,305.00 494.05,305.00 494.68,305.00 495.30,305.00 495.92,305.00 496.54,305.00 497.17,305.00 497.80,305.00 498.42,305.00 499.06,305.00 499.68,305.00 500.31,305.00 500.93,305.00 501.55,305.00 502.18,305.00 502.80,305.00 503.43,305.00 504.06,305.00 504.68,305.00 505.30,305.00 505.92,305.00 506.56,305.00 507.17,305.00 507.80,305.00 508.42,305.00 509.04,305.00 509.66,305.00 510.28,305.00 510.90,305.00 511.52,305.00 512.15,305.00 512.77,305.00 513.39,305.00 514.01,305.00 514.64,305.00 515.28,305.00 515.90,305.00 516.52,305.00 517.14,305.00 517.76,305.00 518.38,305.00 519.00,305.00 519.63,305.00 520.25,305.00 520.88,305.00 521.50,305.00 522.12,305.00 522.75,305.00 523.37,305.00 524.00,305.00 524.64,305.00 525.27,305.00 525.89,305.00 526.52,305.00 527.14,305.00 527.77,305.00 528.39,305.00 529.01,305.00 529.63,305.00 530.26,305.00 530.88,305.00 531.51,305.00 532.13,305.00 532.76,305.00 533.41,305.00 534.03,305.00 534.65,305.00 535.28,305.00 535.90,305.00 536.52,305.00 537.15,305.00 537.78,305.00 538.41,305.00 539.04,305.00 539.66,305.00 540.28,305.00 540.91,305.00 541.53,305.00 542.16,305.00 542.78,305.00 543.40,305.00 544.03,305.00 544.66,305.00 545.28,305.00 545.90,305.00 546.53,305.00 547.15,305.00 547.78,305.00 548.40,305.00 549.03,305.00 549.67,305.00 550.30,305.00 550.93,305.00 551.55,305.00 552.19,305.00 552.83,305.00 553.46,305.00 554.09,305.00 554.74,305.00 555.36,305.00 555.99,305.00 556.61,305.00 557.23,305.00 557.86,305.00 558.49,305.00 559.13,305.00 559.75,305.00 560.37,305.00 561.00,305.00 561.62,305.00 562.24,305.00 562.87,305.00 563.49,305.00 564.11,305.00 564.73,305.00 565.35,305.00 565.97,305.00 566.59,305.00 567.21,305.00 567.84,305.00 568.46,305.00 569.08,305.00 569.71,305.00 570.34,305.00 570.96,305.00 571.59,305.00 572.21,305.00 572.83,305.00 573.45,305.00 574.07,305.00 574.70,305.00 575.33,305.00 575.94,305.00 576.56,305.00 577.18,305.00 577.80,305.00 578.43,305.00 579.05,305.00 579.67,305.00 580.30,305.00 580.92,305.00 581.54,305.00 582.17,305.00 582.79,305.00 583.40,305.00 584.02,305.00 584.63,305.00 585.25,305.00 585.88,305.00 586.51,305.00 587.13,305.00 587.75,305.00 588.38,305.00 589.01,305.00 589.64,305.00 590.26,305.00 590.89,305.00 591.51,305.00 592.13,305.00 592.76,305.00 593.38,305.00 594.02,305.00 594.64,305.00 595.27,305.00 595.88,305.00 596.51,305.00 597.13,305.00 597.75,305.00 598.37,305.00 598.98,305.00 599.61,305.00 600.23,305.00 600.86,305.00 601.48,305.00 602.10,305.00 602.72,305.00 603.34,305.00 603.97,305.00 604.59,305.00 605.22,305.00 605.84,305.00 606.46,305.00 607.09,305.00 607.71,305.00 608.33,305.00 608.96,305.00 609.58,305.00 610.20,305.00 610.83,305.00 611.45,305.00 612.07,305.00 612.69,305.00 613.31,305.00 613.96,305.00 614.58,305.00 615.22,305.00 615.85,305.00 616.47,305.00 617.10,305.00 617.72,305.00 618.35,305.00 618.97,305.00 619.59,305.00 620.22,305.00 620.86,305.00 621.48,305.00 622.10,305.00 622.73,305.00 623.35,305.00 623.98,305.00 624.60,305.00 625.22,305.00 625.84,305.00 626.47,305.00 627.09,305.00 627.71,305.00 628.33,305.00 628.96,305.00 629.57,305.00 630.19,305.00 630.82,305.00 631.44,305.00 632.06,305.00 632.69,305.00 633.31,305.00 633.93,305.00 634.56,305.00 635.18,305.00 635.80,305.00 636.43,305.00 637.05,305.00 637.68,305.00 638.30,305.00 638.92,305.00 639.54,305.00 640.17,305.00 640.79,305.00 641.41,305.00 642.04,305.00 642.68,305.00 643.31,305.00 643.95,305.00 644.58,305.00 645.22,305.00 645.86,305.00 646.49,305.00 647.14,305.00 647.77,305.00 648.41,305.00 649.03,305.00 649.65,305.00 650.28,305.00 650.91,305.00 651.53,305.00 652.16,305.00 652.78,305.00 653.41,305.00 654.04,305.00 654.66,305.00 655.28,305.00 655.90,305.00 656.52,305.00 657.14,305.00 657.76,305.00 658.39,305.00 659.02,305.00 659.64,305.00 660.27,305.00 660.90,305.00 661.52,305.00 662.14,305.00 662.76,305.00 663.39,305.00 664.01,305.00 664.63,305.00 665.26,305.00 665.88,305.00 666.51,305.00 667.13,305.00 667.75,305.00 668.38,305.00 669.00,305.00 669.62,305.00 670.29,305.00 670.93,305.00 671.55,305.00 672.18,305.00 672.79,305.00 673.43,305.00 674.06,305.00 674.69,305.00 675.31,305.00 675.93,305.00 676.54,305.00 677.16,305.00 677.78,305.00 678.41,305.00 679.03,305.00 679.65,305.00 680.28,305.00 680.91,305.00 681.54,305.00 682.16,305.00 682.78,305.00 683.40,305.00 684.03,305.00 684.65,305.00 685.27,305.00 685.89,305.00 686.52,305.00 687.15,305.00 687.77,305.00 688.42,305.00 689.05,305.00 689.67,305.00 690.29,305.00 690.91,305.00 691.54,305.00 692.17,305.00 692.79,305.00 693.41,305.00 694.04,305.00 694.66,305.00 695.30,305.00 695.92,305.00 696.55,305.00 697.17,305.00 697.79,305.00 698.42,305.00 699.04,305.00 699.67,305.00 700.28,305.00 700.92,305.00 701.54,305.00 702.16,305.00 702.79,305.00 703.41,305.00 704.03,305.00 704.66,305.00 705.27,305.00 705.90,305.00 706.52,305.00 707.15,305.00 707.77,305.00 708.39,305.00 709.01,305.00 709.64,305.00 710.27,305.00 710.89,305.00 711.51,305.00 712.13,305.00 712.75,305.00 713.37,305.00 714.00,305.00 714.62,305.00 715.26,305.00 715.88,305.00 716.51,305.00 717.14,305.00 717.76,305.00 718.39,305.00 719.06,305.00 719.70,305.00 720.32,305.00 720.95,305.00 721.59,305.00 722.21,305.00 722.83,305.00 723.45,305.00 724.08,305.00 724.70,305.00 725.33,305.00 725.95,305.00 726.58,305.00 727.21,305.00 727.84,305.00 728.47,305.00 729.09,305.00 729.71,305.00 730.34,305.00 730.96,305.00 731.59,305.00 732.21,305.00 732.84,305.00 733.46,305.00 734.09,305.00 734.71,305.00 735.34,305.00 735.97,305.00 736.60,305.00 737.22,305.00 737.85,305.00 738.47,305.00 739.10,305.00 739.73,305.00 740.34,305.00 740.96,305.00 741.59,305.00 742.21,305.00 742.84,305.00 743.46,305.00 744.08,305.00 744.71,305.00 745.33,305.00 745.96,305.00 746.58,305.00 747.21,305.00 747.83,305.00 748.46,305.00 749.09,305.00 749.70,305.00 750.31,305.00 750.93,305.00 751.55,305.00 752.18,305.00 752.80,305.00 753.44,305.00 754.06,305.00 754.69,305.00 755.32,305.00 755.94,305.00 756.56,305.00 757.18,305.00 757.81,305.00 758.42,305.00 759.04,305.00 759.67,305.00 760.29,305.00 760.91,305.00 761.53,305.00 762.15,305.00 762.78,305.00 763.40,305.00 764.03,305.00 764.64,305.00 765.26,305.00 765.87,305.00 766.51,305.00 767.13,305.00 767.75,305.00 768.38,305.00 769.01,305.00 769.63,305.00 770.25,305.00 770.88,305.00 771.50,305.00 772.13,305.00 772.75,305.00 773.42,305.00 774.04,305.00 774.67,305.00 775.30,305.00 775.93,305.00 776.55,305.00 777.17,305.00 777.80,305.00 778.42,305.00 779.04,305.00 779.66,305.00 780.28,305.00 780.91,305.00 781.54,305.00 782.16,305.00 782.79,305.00 783.41,305.00 784.04,305.00 784.66,305.00 785.29,305.00 785.91,305.00 786.55,305.00 787.18,305.00 787.81,305.00 788.43,305.00 789.06,305.00 789.69,305.00 790.31,305.00 790.94,305.00 791.56,305.00 792.18,305.00 792.80,305.00 793.43,305.00 794.05,305.00 794.68,305.00 795.30,305.00 795.93,305.00 796.55,305.00 797.17,305.00 797.79,305.00 798.41,305.00 799.04,305.00 799.66,305.00 800.28,305.00 800.91,305.00 801.52,305.00 802.14,305.00 802.76,305.00 803.39,305.00 804.01,305.00 804.63,305.00 805.25,305.00 805.87,305.00 806.49,305.00 807.11,305.00 807.73,305.00 808.36,305.00 808.98,305.00 809.60,305.00 810.21,305.00 810.83,305.00 811.47,305.00 812.09,305.00 812.71,305.00 813.33,305.00 813.98,305.00 814.60,305.00 815.23,305.00 815.86,305.00 816.48,305.00 817.11,305.00 817.73,305.00 818.36,305.00 818.98,305.00 819.60,305.00 820.22,305.00 820.84,305.00 821.47,305.00 822.09,305.00 822.72,305.00 823.33,305.00 823.95,305.00 824.58,305.00 825.20,305.00 825.82,305.00 826.45,305.00 827.10,305.00 827.72,305.00 828.34,305.00 828.96,305.00 829.57,305.00 830.21,305.00 830.83,305.00 831.45,305.00 832.08,305.00 832.70,305.00 833.33,305.00 833.95,305.00 834.58,305.00 835.20,305.00 835.82,305.00 836.45,305.00 837.07,305.00 837.69,305.00 838.31,305.00 838.93,305.00 839.55,305.00 840.18,305.00 840.80,305.00 841.42,305.00 842.04,305.00 842.66,305.00 843.29,305.00 843.91,305.00 844.54,305.00 845.16,305.00 845.78,305.00 846.40,305.00 847.02,305.00 847.65,305.00 848.27,305.00 848.89,305.00 849.52,305.00 850.14,305.00 850.75,305.00 851.38,305.00 852.00,305.00 852.62,305.00 853.26,305.00 853.88,305.00 854.50,305.00 855.13,305.00 855.75,305.00 856.38,305.00 857.02,305.00 857.64,305.00 858.30,305.00 858.93,305.00 859.60,305.00 860.22,305.00 860.84,305.00 861.46,305.00 862.08,305.00 862.70,305.00 863.33,305.00 863.95,305.00 864.57,305.00 865.20,305.00 865.82,305.00 866.44,305.00 867.06,305.00 867.68,305.00 868.31,305.00 868.93,305.00 869.55,305.00 870.16,305.00 870.79,305.00 871.42,305.00 872.04,305.00 872.66,305.00 873.28,305.00 873.90,305.00 874.53,305.00 875.16,305.00 875.78,305.00 876.40,305.00 877.03,305.00 877.65,305.00 878.27,305.00 878.89,305.00 879.51,305.00 880.13,305.00 880.75,305.00 881.37,305.00 881.98,305.00 882.60,305.00 883.23,305.00 883.85,305.00 884.48,305.00 885.10,305.00 885.75,305.00 886.37,305.00 886.99,305.00 887.61,305.00 888.23,305.00 888.85,305.00 889.47,305.00 890.09,305.00 890.71,305.00 891.33,305.00 891.95,305.00 892.57,305.00 893.19,305.00 893.81,305.00 894.43,305.00 895.05,305.00 895.67,305.00 896.30,305.00 896.92,305.00 897.54,305.00 898.17,305.00 898.79,305.00 899.41,305.00 900.04,305.00 900.66,305.00 901.28,305.00 901.91,305.00 902.53,305.00 903.16,305.00 903.78,305.00 904.40,305.00 905.02,305.00 905.65,305.00 906.27,305.00 906.91,305.00 907.53,305.00 908.16,305.00 908.79,305.00 909.41,305.00 910.03,305.00 910.65,305.00 911.27,305.00 911.90,305.00 912.53,305.00 913.14,305.00 913.77,305.00 914.40,305.00 915.02,305.00 915.65,305.00 916.28,305.00 916.92,305.00 917.58,305.00 918.21,305.00 918.83,305.00 919.45,305.00 920.07,305.00 920.70,305.00 921.32,305.00 921.94,305.00 922.57,305.00 923.19,305.00 923.82,305.00 924.44,305.00 925.06,305.00 925.68,305.00 926.30,305.00 926.93,305.00 927.57,305.00 928.21,305.00 928.83,305.00 929.46,305.00 930.11,305.00 930.74,305.00 931.40,305.00 932.03,305.00 932.65,305.00 933.28,305.00 933.90,305.00 934.52,305.00 935.15,305.00 935.76,305.00 936.39,305.00 937.01,305.00 937.63,305.00 938.27,305.00 938.89,305.00 939.52,305.00 940.15,305.00 940.88,305.00 941.50,305.00 942.12,305.00 942.74,305.00 943.36,305.00 943.98,305.00 944.59,305.00 945.17,305.00 945.73,305.00 947.55,305.00 948.73,305.00 949.35,305.00 949.98,305.00 950.60,305.00 951.22,305.00 951.84,305.00 952.46,305.00 953.08,305.00 953.69,305.00 954.32,305.00 954.94,305.00 955.56,305.00 956.18,305.00 956.81,305.00 957.42,305.00 958.05,305.00 958.66,305.00 959.28,305.00 959.89,305.00 960.51,305.00 961.14,305.00 961.76,305.00 962.38,305.00 963.01,305.00 963.63,305.00 964.24,305.00 964.86,305.00 965.48,305.00 966.10,305.00 966.72,305.00 967.33,305.00 967.95,305.00 968.57,305.00 969.19,305.00 969.81,305.00 970.43,305.00 971.05,305.00 971.68,305.00 972.30,305.00 972.92,305.00 973.53,305.00 974.16,305.00 974.78,305.00 975.40,305.00 976.02,305.00 976.63,305.00 977.25,305.00 977.87,305.00 978.49,305.00 979.10,305.00 979.72,305.00 980.35,305.00 980.98,305.00 981.60,305.00 982.22,305.00 982.84,305.00 983.46,305.00 984.09,305.00 984.71,305.00 985.33,305.00 985.95,305.00 986.57,305.00 987.19,305.00 987.81,305.00 988.43,305.00 989.05,305.00 989.67,305.00 990.29,305.00 990.91,305.00 991.53,305.00 992.16,305.00 992.77,305.00 993.40,305.00 994.02,305.00 994.64,305.00 995.26,305.00 995.88,305.00 996.50,305.00 997.18,305.00 997.80,305.00 998.42,305.00 999.04,305.00 999.66,305.00 1000.29,305.00 1000.90,305.00 1001.53,305.00 1002.40,305.00 1003.02,305.00 1003.88,305.00 1004.50,305.00 1005.13,305.00 1005.75,305.00 1006.37,305.00 1006.99,305.00 1007.61,305.00 1008.22,305.00 1008.84,305.00 1009.46,305.00 1010.08,305.00 1010.70,305.00 1011.32,305.00 1011.95,305.00 1012.57,305.00 1013.19,305.00 1013.81,305.00 1014.44,305.00 1015.05,305.00 1015.69,305.00 1016.31,305.00 1016.92,305.00 1017.55,305.00 1018.17,305.00 1018.79,305.00 1019.41,305.00 1020.04,305.00 1020.66,305.00 1021.28,305.00 1021.90,305.00 1022.53,305.00 1023.16,305.00 1023.80,305.00 1024.43,305.00 1025.08,305.00 1025.70,305.00 1026.32,305.00 1026.95,305.00 1027.57,305.00 1028.19,305.00 1028.81,305.00 1029.43,305.00 1030.05,305.00 1030.68,305.00 1031.31,305.00 1031.93,305.00 1032.56,305.00 1033.18,305.00 1033.81,305.00 1034.43,305.00 1035.05,305.00 1035.68,305.00 1036.30,305.00 1036.93,305.00 1037.55,305.00 1038.18,305.00 1038.81,305.00 1039.43,305.00 1040.05,305.00 1040.68,305.00 1041.30,305.00 1041.92,305.00 1042.56,305.00 1043.19,305.00 1043.81,305.00 1044.43,305.00 1045.06,305.00 1045.68,305.00 1046.30,305.00 1046.93,305.00 1047.55,305.00 1048.17,305.00 1048.79,305.00 1049.41,305.00 1050.03,305.00 1050.65,305.00 1051.29,305.00 1051.92,305.00 1052.55,305.00 1053.17,305.00 1053.79,305.00 1054.41,305.00 1055.03,305.00 1055.66,305.00 1056.28,305.00 1056.90,305.00 1057.52,305.00 1058.15,305.00 1058.77,305.00 1059.40,305.00 1060.02,305.00 1060.64,305.00 1061.26,305.00 1061.89,305.00 1062.51,305.00 1063.14,305.00 1063.77,305.00 1064.39,305.00 1065.01,305.00 1065.64,305.00 1066.27,305.00 1066.89,305.00 1067.52,305.00 1068.14,305.00 1068.77,305.00 1069.40,305.00 1070.02,305.00 1070.64,305.00 1071.26,305.00 1071.88,305.00 1072.52,305.00 1073.14,305.00 1073.77,305.00 1074.41,305.00 1075.04,305.00 1075.66,305.00 1076.28,305.00 1076.91,305.00 1077.53,305.00 1078.16,305.00 1078.78,305.00 1079.41,305.00 1080.03,305.00 1080.65,305.00 1081.28,305.00 1081.90,305.00 1082.53,305.00 1083.15,305.00 1083.77,305.00 1084.41,305.00 1085.04,305.00 1085.67,305.00 1086.29,305.00 1086.92,305.00 1087.55,305.00 1088.17,305.00 1088.79,305.00 1089.41,305.00 1090.06,305.00 1090.69,305.00 1091.31,305.00 1091.94,305.00 1092.56,305.00 1093.18,305.00 1093.83,305.00 1094.45,305.00 1095.09,305.00 1095.71,305.00 1096.34,305.00 1096.97,305.00 1097.63,305.00 1098.25,305.00 1098.88,305.00 1099.51,305.00 1100.13,305.00 1100.75,305.00 1101.37,305.00 1102.00,305.00 1102.63,305.00 1103.25,305.00 1103.90,305.00 1104.52,305.00 1105.14,305.00 1105.77,305.00 1106.40,305.00 1107.02,305.00 1107.66,305.00 1108.28,305.00 1108.90,305.00 1109.53,305.00 1110.15,305.00 1110.77,305.00 1111.41,305.00 1112.04,305.00 1112.66,305.00 1113.27,305.00 1113.89,305.00 1114.52,305.00 1115.14,305.00 1115.76,305.00 1116.40,305.00 1117.02,305.00 1117.64,305.00 1118.27,305.00 1118.89,305.00 1119.50,305.00 1120.13,305.00 1120.75,305.00 1121.38,305.00 1122.01,305.00 1122.62,305.00 1123.24,305.00 1123.87,305.00 1124.49,305.00 1125.14,305.00 1125.76,305.00 1126.39,305.00 1127.01,305.00 1127.63,305.00 1128.25,305.00 1128.86,305.00 1129.49,305.00 1130.12,305.00 1130.77,305.00 1131.39,305.00 1132.02,305.00 1132.64,305.00 1133.26,305.00 1133.88,305.00 1134.49,305.00 1135.11,305.00 1135.74,305.00 1136.36,305.00 1136.98,305.00 1137.60,305.00 1138.22,305.00 1138.84,305.00 1139.47,305.00 1140.08,305.00 1140.70,305.00 1141.33,305.00 1141.95,305.00 1142.58,305.00 1143.21,305.00 1143.84,305.00 1144.45,305.00 1145.07,305.00 1145.70,305.00 1146.33,305.00 1146.95,305.00 1147.57,305.00 1148.19,305.00 1148.81,305.00 1149.43,305.00 1150.06,305.00 1150.68,305.00 1151.30,305.00 1151.91,305.00 1152.54,305.00 1153.16,305.00 1153.77,305.00 1154.39,305.00 1155.01,305.00 1155.63,305.00 1156.26,305.00 1156.88,305.00 1157.50,305.00 1158.13,305.00 1158.75,305.00 1159.37,305.00 1159.99,305.00 1160.61,305.00 1161.23,305.00 1161.86,305.00 1162.48,305.00 1163.10,305.00 1163.73,305.00 1164.35,305.00 1164.97,305.00 1165.60,305.00 1166.23,305.00 1166.85,305.00 1167.48,305.00 1168.11,305.00 1168.74,305.00 1169.36,305.00 1169.98,305.00 1170.60,305.00 1171.22,305.00 1171.84,305.00 1172.46,305.00 1173.08,305.00 1173.70,305.00 1174.32,305.00 1174.97,305.00 1175.59,305.00 1176.22,305.00 1176.84,305.00 1177.46,305.00 1178.10,305.00 1178.73,305.00 1179.39,305.00 1180.00,305.00"/>
<polyline fill="none" stroke="#9467bd" stroke-opacity="0.65" stroke-width="2" points="331.23,305.00 331.87,305.00 332.48,305.00 333.12,305.00 333.74,305.00 334.35,305.00 334.98,305.00 335.60,305.00 336.22,305.00 336.85,305.00 337.47,305.00 338.11,305.00 338.72,305.00 339.33,305.00 339.95,305.00 340.57,305.00 341.18,305.00 341.80,305.00 342.42,305.00 343.04,305.00 343.66,305.00 344.28,305.00 344.89,305.00 345.52,305.00 346.14,305.00 346.76,305.00 347.38,305.00 348.00,305.00 348.62,305.00 349.25,305.00 349.87,305.00 350.51,305.00 351.12,305.00 351.74,305.00 352.35,305.00 352.97,305.00 353.58,305.00 354.21,305.00 354.83,305.00 355.44,305.00 356.06,305.00 356.68,305.00 357.30,305.00 357.92,305.00 358.54,305.00 359.16,305.00 359.91,305.00 360.55,305.00 361.18,305.00 361.81,305.00 362.43,305.00 363.05,305.00 363.67,305.00 364.28,305.00 364.91,305.00 365.53,305.00 366.15,305.00 366.77,305.00 367.40,305.00 368.01,305.00 368.66,305.00 369.29,305.00 369.91,305.00 370.53,305.00 371.15,305.00 371.77,305.00 372.38,305.00 373.00,305.00 373.65,305.00 374.27,305.00 374.90,305.00 375.52,305.00 376.13,305.00 376.76,305.00 377.37,305.00 378.00,305.00 378.62,305.00 379.24,305.00 379.86,305.00 380.48,305.00 381.10,305.00 381.72,305.00 382.34,305.00 382.97,305.00 383.59,305.00 384.21,305.00 384.83,305.00 385.45,305.00 386.08,305.00 386.70,305.00 387.44,305.00 388.08,305.00 388.70,305.00 389.32,305.00 389.94,305.00 390.56,305.00 391.18,305.00 391.81,305.00 392.44,305.00 393.05,305.00 393.67,305.00 394.29,305.00 394.91,305.00 395.53,305.00 396.15,305.00 396.77,305.00 397.39,305.00 398.00,305.00 398.62,305.00 399.24,305.00 399.87,305.00 400.49,305.00 401.10,305.00 401.73,305.00 402.36,305.00 402.98,305.00 403.59,305.00 404.22,305.00 404.85,305.00 405.47,305.00 406.09,305.00 406.72,305.00 407.34,305.00 407.95,305.00 408.58,305.00 409.20,305.00 409.83,305.00 410.45,305.00 411.07,305.00 411.68,305.00 412.30,305.00 412.92,305.00 413.54,305.00 414.16,305.00 414.79,305.00 415.42,305.00 416.04,305.00 416.65,305.00 417.28,305.00 417.89,305.00 418.51,305.00 419.13,305.00 419.75,305.00 420.37,305.00 421.00,305.00 421.62,305.00 422.24,305.00 422.86,305.00 423.49,305.00 424.11,305.00 424.73,305.00 425.36,305.00 426.06,305.00 426.74,305.00 427.40,305.00 428.03,305.00 428.68,305.00 429.30,305.00 429.92,305.00 430.53,305.00 431.11,305.00 431.76,305.00 432.38,305.00 433.01,305.00 433.62,305.00 434.24,305.00 434.86,305.00 435.49,305.00 436.10,305.00 436.72,305.00 437.34,305.00 437.97,305.00 438.59,305.00 439.21,305.00 439.84,305.00 440.47,305.00 441.09,305.00 441.71,305.00 442.33,305.00 442.97,305.00 443.59,305.00 444.20,305.00 444.82,305.00 445.44,305.00 446.06,305.00 446.68,305.00 447.30,305.00 447.92,305.00 448.55,305.00 449.17,305.00 449.79,305.00 450.41,305.00 451.03,305.00 451.66,305.00 452.28,305.00 452.90,305.00 453.52,305.00 454.14,305.00 454.77,305.00 455.39,305.00 456.02,305.00 456.64,305.00 457.26,305.00 457.89,305.00 458.51,305.00 459.13,305.00 459.77,305.00 460.39,305.00 461.02,305.00 461.64,305.00 462.26,305.00 462.88,305.00 463.50,305.00 464.13,305.00 464.75,305.00 465.37,305.00 465.99,305.00 466.62,305.00 467.24,305.00 467.87,305.00 468.49,305.00 469.12,305.00 469.74,305.00 470.37,305.00 471.00,305.00 471.62,305.00 472.23,305.00 472.86,305.00 473.48,305.00 474.12,305.00 474.74,305.00 475.37,305.00 475.99,305.00 476.61,305.00 477.23,305.00 477.85,305.00 478.47,305.00 479.10,305.00 479.72,305.00 480.34,305.00 480.96,305.00 481.59,305.00 482.21,305.00 482.83,305.00 483.45,305.00 484.08,305.00 484.71,305.00 485.33,305.00 485.95,305.00 486.57,305.00 487.19,305.00 487.81,305.00 488.43,305.00 489.05,305.00 489.68,305.00 490.30,305.00 490.93,305.00 491.55,305.00 492.18,305.00 492.80,305.00 493.42,305.00 494.05,305.00 494.68,305.00 495.30,305.00 495.92,305.00 496.54,305.00 497.17,305.00 497.80,305.00 498.42,305.00 499.06,305.00 499.68,305.00 500.31,305.00 500.93,305.00 501.55,305.00 502.18,305.00 502.80,305.00 503.43,305.00 504.06,305.00 504.68,305.00 505.30,305.00 505.92,305.00 506.56,305.00 507.17,305.00 507.80,305.00 508.42,305.00 509.04,305.00 509.66,305.00 510.28,305.00 510.90,305.00 511.52,305.00 512.15,305.00 512.77,305.00 513.39,305.00 514.01,305.00 514.64,305.00 515.28,305.00 515.90,305.00 516.52,305.00 517.14,305.00 517.76,305.00 518.38,305.00 519.00,305.00 519.63,305.00 520.25,305.00 520.88,305.00 521.50,305.00 522.12,305.00 522.75,305.00 523.37,305.00 524.00,305.00 524.64,305.00 525.27,305.00 525.89,305.00 526.52,305.00 527.14,305.00 527.77,305.00 528.39,305.00 529.01,305.00 529.63,305.00 530.26,305.00 530.88,305.00 531.51,305.00 532.13,305.00 532.76,305.00 533.41,305.00 534.03,305.00 534.65,305.00 535.28,305.00 535.90,305.00 536.52,305.00 537.15,305.00 537.78,305.00 538.41,305.00 539.04,305.00 539.66,305.00 540.28,305.00 540.91,305.00 541.53,305.00 542.16,305.00 542.78,305.00 543.40,305.00 544.03,305.00 544.66,305.00 545.28,305.00 545.90,305.00 546.53,305.00 547.15,305.00 547.78,305.00 548.40,305.00 549.03,305.00 549.67,305.00 550.30,305.00 550.93,305.00 551.55,305.00 552.19,305.00 552.83,305.00 553.46,305.00 554.09,305.00 554.74,305.00 555.36,305.00 555.99,305.00 556.61,305.00 557.23,305.00 557.86,305.00 558.49,305.00 559.13,305.00 559.75,305.00 560.37,305.00 561.00,305.00 561.62,305.00 562.24,305.00 562.87,305.00 563.49,305.00 564.11,305.00 564.73,305.00 565.35,305.00 565.97,305.00 566.59,305.00 567.21,305.00 567.84,305.00 568.46,305.00 569.08,305.00 569.71,305.00 570.34,305.00 570.96,305.00 571.59,305.00 572.21,305.00 572.83,305.00 573.45,305.00 574.07,305.00 574.70,305.00 575.33,305.00 575.94,305.00 576.56,305.00 577.18,305.00 577.80,305.00 578.43,305.00 579.05,305.00 579.67,305.00 580.30,305.00 580.92,305.00 581.54,305.00 582.17,305.00 582.79,305.00 583.40,305.00 584.02,305.00 584.63,305.00 585.25,305.00 585.88,305.00 586.51,305.00 587.13,305.00 587.75,305.00 588.38,305.00 589.01,305.00 589.64,305.00 590.26,305.00 590.89,305.00 591.51,305.00 592.13,305.00 592.76,305.00 593.38,305.00 594.02,305.00 594.64,305.00 595.27,305.00 595.88,305.00 596.51,305.00 597.13,305.00 597.75,305.00 598.37,305.00 598.98,305.00 599.61,305.00 600.23,305.00 600.86,305.00 601.48,305.00 602.10,305.00 602.72,305.00 603.34,305.00 603.97,305.00 604.59,305.00 605.22,305.00 605.84,305.00 606.46,305.00 607.09,305.00 607.71,305.00 608.33,305.00 608.96,305.00 609.58,305.00 610.20,305.00 610.83,305.00 611.45,305.00 612.07,305.00 612.69,305.00 613.31,305.00 613.96,305.00 614.58,305.00 615.22,305.00 615.85,305.00 616.47,305.00 617.10,305.00 617.72,305.00 618.35,305.00 618.97,305.00 619.59,305.00 620.22,305.00 620.86,305.00 621.48,305.00 622.10,305.00 622.73,305.00 623.35,305.00 623.98,305.00 624.60,305.00 625.22,305.00 625.84,305.00 626.47,305.00 627.09,305.00 627.71,305.00 628.33,305.00 628.96,305.00 629.57,305.00 630.19,305.00 630.82,305.00 631.44,305.00 632.06,305.00 632.69,305.00 633.31,305.00 633.93,305.00 634.56,305.00 635.18,305.00 635.80,305.00 636.43,305.00 637.05,305.00 637.68,305.00 638.30,305.00 638.92,305.00 639.54,305.00 640.17,305.00 640.79,305.00 641.41,305.00 642.04,305.00 642.68,305.00 643.31,305.00 643.95,305.00 644.58,305.00 645.22,305.00 645.86,305.00 646.49,305.00 647.14,305.00 647.77,305.00 648.41,305.00 649.03,305.00 649.65,305.00 650.28,305.00 650.91,305.00 651.53,305.00 652.16,305.00 652.78,305.00 653.41,305.00 654.04,305.00 654.66,305.00 655.28,305.00 655.90,305.00 656.52,305.00 657.14,305.00 657.76,305.00 658.39,305.00 659.02,305.00 659.64,305.00 660.27,305.00 660.90,305.00 661.52,305.00 662.14,305.00 662.76,305.00 663.39,305.00 664.01,305.00 664.63,305.00 665.26,305.00 665.88,305.00 666.51,305.00 667.13,305.00 667.75,305.00 668.38,305.00 669.00,305.00 669.62,305.00 670.29,305.00 670.93,305.00 671.55,305.00 672.18,305.00 672.79,305.00 673.43,305.00 674.06,305.00 674.69,305.00 675.31,305.00 675.93,305.00 676.54,305.00 677.16,305.00 677.78,305.00 678.41,305.00 679.03,305.00 679.65,305.00 680.28,305.00 680.91,305.00 681.54,305.00 682.16,305.00 682.78,305.00 683.40,305.00 684.03,305.00 684.65,305.00 685.27,305.00 685.89,305.00 686.52,305.00 687.15,305.00 687.77,305.00 688.42,305.00 689.05,305.00 689.67,305.00 690.29,305.00 690.91,305.00 691.54,305.00 692.17,305.00 692.79,305.00 693.41,305.00 694.04,305.00 694.66,305.00 695.30,305.00 695.92,305.00 696.55,305.00 697.17,305.00 697.79,305.00 698.42,305.00 699.04,305.00 699.67,305.00 700.28,305.00 700.92,305.00 701.54,305.00 702.16,305.00 702.79,305.00 703.41,305.00 704.03,305.00 704.66,305.00 705.27,305.00 705.90,305.00 706.52,305.00 707.15,305.00 707.77,305.00 708.39,305.00 709.01,305.00 709.64,305.00 710.27,305.00 710.89,305.00 711.51,305.00 712.13,305.00 712.75,305.00 713.37,305.00 714.00,305.00 714.62,305.00 715.26,305.00 715.88,305.00 716.51,305.00 717.14,305.00 717.76,305.00 718.39,305.00 719.06,305.00 719.70,305.00 720.32,305.00 720.95,305.00 721.59,305.00 722.21,305.00 722.83,305.00 723.45,305.00 724.08,305.00 724.70,305.00 725.33,305.00 725.95,305.00 726.58,305.00 727.21,305.00 727.84,305.00 728.47,305.00 729.09,305.00 729.71,305.00 730.34,305.00 730.96,305.00 731.59,305.00 732.21,305.00 732.84,305.00 733.46,305.00 734.09,305.00 734.71,305.00 735.34,305.00 735.97,305.00 736.60,305.00 737.22,305.00 737.85,305.00 738.47,305.00 739.10,305.00 739.73,305.00 740.34,305.00 740.96,305.00 741.59,305.00 742.21,305.00 742.84,305.00 743.46,305.00 744.08,305.00 744.71,305.00 745.33,305.00 745.96,305.00 746.58,305.00 747.21,305.00 747.83,305.00 748.46,305.00 749.09,305.00 749.70,305.00 750.31,305.00 750.93,305.00 751.55,305.00 752.18,305.00 752.80,305.00 753.44,305.00 754.06,305.00 754.69,305.00 755.32,305.00 755.94,305.00 756.56,305.00 757.18,305.00 757.81,305.00 758.42,305.00 759.04,305.00 759.67,305.00 760.29,305.00 760.91,305.00 761.53,305.00 762.15,305.00 762.78,305.00 763.40,305.00 764.03,305.00 764.64,305.00 765.26,305.00 765.87,305.00 766.51,305.00 767.13,305.00 767.75,305.00 768.38,305.00 769.01,305.00 769.63,305.00 770.25,305.00 770.88,305.00 771.50,305.00 772.13,305.00 772.75,305.00 773.42,305.00 774.04,305.00 774.67,305.00 775.30,305.00 775.93,305.00 776.55,305.00 777.17,305.00 777.80,305.00 778.42,305.00 779.04,305.00 779.66,305.00 780.28,305.00 780.91,305.00 781.54,305.00 782.16,305.00 782.79,305.00 783.41,305.00 784.04,305.00 784.66,305.00 785.29,305.00 785.91,305.00 786.55,305.00 787.18,305.00 787.81,305.00 788.43,305.00 789.06,305.00 789.69,305.00 790.31,305.00 790.94,305.00 791.56,305.00 792.18,305.00 792.80,305.00 793.43,305.00 794.05,305.00 794.68,305.00 795.30,305.00 795.93,305.00 796.55,305.00 797.17,305.00 797.79,305.00 798.41,305.00 799.04,305.00 799.66,305.00 800.28,305.00 800.91,305.00 801.52,305.00 802.14,305.00 802.76,305.00 803.39,305.00 804.01,305.00 804.63,305.00 805.25,305.00 805.87,305.00 806.49,305.00 807.11,305.00 807.73,305.00 808.36,305.00 808.98,305.00 809.60,305.00 810.21,305.00 810.83,305.00 811.47,305.00 812.09,305.00 812.71,305.00 813.33,305.00 813.98,305.00 814.60,305.00 815.23,305.00 815.86,305.00 816.48,305.00 817.11,305.00 817.73,305.00 818.36,305.00 818.98,305.00 819.60,305.00 820.22,305.00 820.84,305.00 821.47,305.00 822.09,305.00 822.72,305.00 823.33,305.00 823.95,305.00 824.58,305.00 825.20,305.00 825.82,305.00 826.45,305.00 827.10,305.00 827.72,305.00 828.34,305.00 828.96,305.00 829.57,305.00 830.21,305.00 830.83,305.00 831.45,305.00 832.08,305.00 832.70,305.00 833.33,305.00 833.95,305.00 834.58,305.00 835.20,305.00 835.82,305.00 836.45,305.00 837.07,305.00 837.69,305.00 838.31,305.00 838.93,305.00 839.55,305.00 840.18,305.00 840.80,305.00 841.42,305.00 842.04,305.00 842.66,305.00 843.29,305.00 843.91,305.00 844.54,305.00 845.16,305.00 845.78,305.00 846.40,305.00 847.02,305.00 847.65,305.00 848.27,305.00 848.89,305.00 849.52,305.00 850.14,305.00 850.75,305.00 851.38,305.00 852.00,305.00 852.62,305.00 853.26,305.00 853.88,305.00 854.50,305.00 855.13,305.00 855.75,305.00 856.38,305.00 857.02,305.00 857.64,305.00 858.30,305.00 858.93,305.00 859.60,305.00 860.22,305.00 860.84,305.00 861.46,305.00 862.08,305.00 862.70,305.00 863.33,305.00 863.95,305.00 864.57,305.00 865.20,305.00 865.82,305.00 866.44,305.00 867.06,305.00 867.68,305.00 868.31,305.00 868.93,305.00 869.55,305.00 870.16,305.00 870.79,305.00 871.42,305.00 872.04,305.00 872.66,305.00 873.28,305.00 873.90,305.00 874.53,305.00 875.16,305.00 875.78,305.00 876.40,305.00 877.03,305.00 877.65,305.00 878.27,305.00 878.89,305.00 879.51,305.00 880.13,305.00 880.75,305.00 881.37,305.00 881.98,305.00 882.60,305.00 883.23,305.00 883.85,305.00 884.48,305.00 885.10,305.00 885.75,305.00 886.37,305.00 886.99,305.00 887.61,305.00 888.23,305.00 888.85,305.00 889.47,305.00 890.09,305.00 890.71,305.00 891.33,305.00 891.95,305.00 892.57,305.00 893.19,305.00 893.81,305.00 894.43,305.00 895.05,305.00 895.67,305.00 896.30,305.00 896.92,305.00 897.54,305.00 898.17,305.00 898.79,305.00 899.41,305.00 900.04,305.00 900.66,305.00 901.28,305.00 901.91,305.00 902.53,305.00 903.16,305.00 903.78,305.00 904.40,305.00 905.02,305.00 905.65,305.00 906.27,305.00 906.91,305.00 907.53,305.00 908.16,305.00 908.79,305.00 909.41,305.00 910.03,305.00 910.65,305.00 911.27,305.00 911.90,305.00 912.53,305.00 913.14,305.00 913.77,305.00 914.40,305.00 915.02,305.00 915.65,305.00 916.28,305.00 916.92,305.00 917.58,305.00 918.21,305.00 918.83,305.00 919.45,305.00 920.07,305.00 920.70,305.00 921.32,305.00 921.94,305.00 922.57,305.00 923.19,305.00 923.82,305.00 924.44,305.00 925.06,305.00 925.68,305.00 926.30,305.00 926.93,305.00 927.57,305.00 928.21,305.00 928.83,305.00 929.46,305.00 930.11,305.00 930.74,305.00 931.40,305.00 932.03,305.00 932.65,305.00 933.28,305.00 933.90,305.00 934.52,305.00 935.15,305.00 935.76,305.00 936.39,305.00 937.01,305.00 937.63,305.00 938.27,305.00 938.89,305.00 939.52,305.00 940.15,305.00 940.88,305.00 941.50,305.00 942.12,305.00 942.74,305.00 943.36,305.00 943.98,305.00 945.73,305.00 946.40,305.00 946.99,305.00 947.55,305.00 948.73,305.00 949.35,305.00 949.98,305.00 950.60,305.00 951.22,305.00 951.84,305.00 952.46,305.00 953.08,305.00 953.69,305.00 954.32,305.00 954.94,305.00 955.56,305.00 956.18,305.00 956.81,305.00 957.42,305.00 958.05,305.00 958.66,305.00 959.28,305.00 959.89,305.00 960.51,305.00 961.14,305.00 961.76,305.00 962.38,305.00 963.01,305.00 963.63,305.00 964.24,305.00 964.86,305.00 965.48,305.00 966.10,305.00 966.72,305.00 967.33,305.00 967.95,305.00 968.57,305.00 969.19,305.00 969.81,305.00 970.43,305.00 971.05,305.00 971.68,305.00 972.30,305.00 972.92,305.00 973.53,305.00 974.16,305.00 974.78,305.00 975.40,305.00 976.02,305.00 976.63,305.00 977.25,305.00 977.87,305.00 978.49,305.00 979.10,305.00 979.72,305.00 980.35,305.00 980.98,305.00 981.60,305.00 982.22,305.00 982.84,305.00 983.46,305.00 984.09,305.00 984.71,305.00 985.33,305.00 985.95,305.00 986.57,305.00 987.19,305.00 987.81,305.00 988.43,305.00 989.05,305.00 989.67,305.00 990.29,305.00 990.91,305.00 991.53,305.00 992.16,305.00 992.77,305.00 993.40,305.00 994.02,305.00 994.64,305.00 995.26,305.00 995.88,305.00 996.50,305.00 997.18,305.00 997.80,305.00 998.42,305.00 999.04,305.00 999.66,305.00 1000.29,305.00 1000.90,305.00 1001.53,305.00 1002.40,305.00 1003.02,305.00 1003.88,305.00 1004.50,305.00 1005.13,305.00 1005.75,305.00 1006.37,305.00 1006.99,305.00 1007.61,305.00 1008.22,305.00 1008.84,305.00 1009.46,305.00 1010.08,305.00 1010.70,305.00 1011.32,305.00 1011.95,305.00 1012.57,305.00 1013.19,305.00 1013.81,305.00 1014.44,305.00 1015.05,305.00 1015.69,305.00 1016.31,305.00 1016.92,305.00 1017.55,305.00 1018.17,305.00 1018.79,305.00 1019.41,305.00 1020.04,305.00 1020.66,305.00 1021.28,305.00 1021.90,305.00 1022.53,305.00 1023.16,305.00 1023.80,305.00 1024.43,305.00 1025.08,305.00 1025.70,305.00 1026.32,305.00 1026.95,305.00 1027.57,305.00 1028.19,305.00 1028.81,305.00 1029.43,305.00 1030.05,305.00 1030.68,305.00 1031.31,305.00 1031.93,305.00 1032.56,305.00 1033.18,305.00 1033.81,305.00 1034.43,305.00 1035.05,305.00 1035.68,305.00 1036.30,305.00 1036.93,305.00 1037.55,305.00 1038.18,305.00 1038.81,305.00 1039.43,305.00 1040.05,305.00 1040.68,305.00 1041.30,305.00 1041.92,305.00 1042.56,305.00 1043.19,305.00 1043.81,305.00 1044.43,305.00 1045.06,305.00 1045.68,305.00 1046.30,305.00 1046.93,305.00 1047.55,305.00 1048.17,305.00 1048.79,305.00 1049.41,305.00 1050.03,305.00 1050.65,305.00 1051.29,305.00 1051.92,305.00 1052.55,305.00 1053.17,305.00 1053.79,305.00 1054.41,305.00 1055.03,305.00 1055.66,305.00 1056.28,305.00 1056.90,305.00 1057.52,305.00 1058.15,305.00 1058.77,305.00 1059.40,305.00 1060.02,305.00 1060.64,305.00 1061.26,305.00 1061.89,305.00 1062.51,305.00 1063.14,305.00 1063.77,305.00 1064.39,305.00 1065.01,305.00 1065.64,305.00 1066.27,305.00 1066.89,305.00 1067.52,305.00 1068.14,305.00 1068.77,305.00 1069.40,305.00 1070.02,305.00 1070.64,305.00 1071.26,305.00 1071.88,305.00 1072.52,305.00 1073.14,305.00 1073.77,305.00 1074.41,305.00 1075.04,305.00 1075.66,305.00 1076.28,305.00 1076.91,305.00 1077.53,305.00 1078.16,305.00 1078.78,305.00 1079.41,305.00 1080.03,305.00 1080.65,305.00 1081.28,305.00 1081.90,305.00 1082.53,305.00 1083.15,305.00 1083.77,305.00 1084.41,305.00 1085.04,305.00 1085.67,305.00 1086.29,305.00 1086.92,305.00 1087.55,305.00 1088.17,305.00 1088.79,305.00 1089.41,305.00 1090.06,305.00 1090.69,305.00 1091.31,305.00 1091.94,305.00 1092.56,305.00 1093.18,305.00 1093.83,305.00 1094.45,305.00 1095.09,305.00 1095.71,305.00 1096.34,305.00 1096.97,305.00 1097.63,305.00 1098.25,305.00 1098.88,305.00 1099.51,305.00 1100.13,305.00 1100.75,305.00 1101.37,305.00 1102.00,305.00 1102.63,305.00 1103.25,305.00 1103.90,305.00 1104.52,305.00 1105.14,305.00 1105.77,305.00 1106.40,305.00 1107.02,305.00 1107.66,305.00 1108.28,305.00 1108.90,305.00 1109.53,305.00 1110.15,305.00 1110.77,305.00 1111.41,305.00 1112.04,305.00 1112.66,305.00 1113.27,305.00 1113.89,305.00 1114.52,305.00 1115.14,305.00 1115.76,305.00 1116.40,305.00 1117.02,305.00 1117.64,305.00 1118.27,305.00 1118.89,305.00 1119.50,305.00 1120.13,305.00 1120.75,305.00 1121.38,305.00 1122.01,305.00 1122.62,305.00 1123.24,305.00 1123.87,305.00 1124.49,305.00 1125.14,305.00 1125.76,305.00 1126.39,305.00 1127.01,305.00 1127.63,305.00 1128.25,305.00 1128.86,305.00 1129.49,305.00 1130.12,305.00 1130.77,305.00 1131.39,305.00 1132.02,305.00 1132.64,305.00 1133.26,305.00 1133.88,305.00 1134.49,305.00 1135.11,305.00 1135.74,305.00 1136.36,305.00 1136.98,305.00 1137.60,305.00 1138.22,305.00 1138.84,305.00 1139.47,305.00 1140.08,305.00 1140.70,305.00 1141.33,305.00 1141.95,305.00 1142.58,305.00 1143.21,305.00 1143.84,305.00 1144.45,305.00 1145.07,305.00 1145.70,305.00 1146.33,305.00 1146.95,305.00 1147.57,305.00 1148.19,305.00 1148.81,305.00 1149.43,305.00 1150.06,305.00 1150.68,305.00 1151.30,305.00 1151.91,305.00 1152.54,305.00 1153.16,305.00 1153.77,305.00 1154.39,305.00 1155.01,305.00 1155.63,305.00 1156.26,305.00 1156.88,305.00 1157.50,305.00 1158.13,305.00 1158.75,305.00 1159.37,305.00 1159.99,305.00 1160.61,305.00 1161.23,305.00 1161.86,305.00 1162.48,305.00 1163.10,305.00 1163.73,305.00 1164.35,305.00 1164.97,305.00 1165.60,305.00 1166.23,305.00 1166.85,305.00 1167.48,305.00 1168.11,305.00 1168.74,305.00 1169.36,305.00 1169.98,305.00 1170.60,305.00 1171.22,305.00 1171.84,305.00 1172.46,305.00 1173.08,305.00 1173.70,305.00 1174.32,305.00 1174.97,305.00 1175.59,305.00 1176.22,305.00 1176.84,305.00 1177.46,305.00 1178.10,305.00 1178.73,305.00 1179.39,305.00 1180.00,305.00"/>
<polyline fill="none" stroke="#9467bd" stroke-opacity="0.50" stroke-width="2" points="70.00,305.00 70.62,305.00 71.24,305.00 71.86,305.00 72.48,305.00 73.11,305.00 73.73,305.00 74.35,305.00 75.02,305.00 75.64,305.00 76.25,305.00 76.87,305.00 77.50,305.00 78.12,305.00 78.73,305.00 79.85,305.00 80.81,305.00 81.44,305.00 82.07,305.00 82.69,305.00 83.31,305.00 83.92,305.00 84.55,305.00 85.16,305.00 85.79,305.00 86.41,305.00 87.05,305.00 87.67,305.00 88.29,305.00 88.94,305.00 89.57,305.00 90.19,305.00 90.82,305.00 91.44,305.00 92.06,305.00 92.70,305.00 93.32,305.00 93.94,305.00 94.57,305.00 95.18,305.00 95.80,305.00 96.42,305.00 97.04,305.00 97.66,305.00 98.27,305.00 98.91,305.00 99.53,305.00 100.15,305.00 100.77,305.00 101.39,305.00 102.01,305.00 102.72,305.00 103.34,305.00 103.96,305.00 104.58,305.00 105.19,305.00 105.81,305.00 106.42,305.00 107.05,305.00 107.67,305.00 108.30,305.00 108.92,305.00 109.53,305.00 110.15,305.00 110.78,305.00 111.40,305.00 112.02,305.00 112.64,305.00 113.25,305.00 113.87,305.00 114.48,305.00 115.10,305.00 115.72,305.00 116.34,305.00 116.96,305.00 117.58,305.00 118.19,305.00 118.82,305.00 119.43,305.00 120.05,305.00 120.68,305.00 121.30,305.00 121.92,305.00 122.55,305.00 123.16,305.00 123.78,305.00 124.40,305.00 125.02,305.00 125.63,305.00 126.26,305.00 126.88,305.00 127.50,305.00 128.12,305.00 128.74,305.00 129.36,305.00 129.97,305.00 130.59,305.00 131.21,305.00 131.83,305.00 132.44,305.00 133.07,305.00 133.69,305.00 134.31,305.00 134.93,305.00 135.56,305.00 136.18,305.00 136.80,305.00 137.42,305.00 138.04,305.00 138.65,305.00 139.28,305.00 139.90,305.00 140.52,305.00 141.14,305.00 141.76,305.00 142.38,305.00 143.01,305.00 143.64,305.00 144.25,305.00 144.87,305.00 145.49,305.00 146.11,305.00 146.73,305.00 147.36,305.00 148.03,305.00 148.64,305.00 149.27,305.00 149.89,305.00 150.51,305.00 151.12,305.00 151.73,305.00 152.35,305.00 152.97,305.00 153.59,305.00 154.20,305.00 154.82,305.00 155.44,305.00 156.06,305.00 156.69,305.00 157.31,305.00 157.92,305.00 158.54,305.00 159.16,305.00 159.78,305.00 160.40,305.00 161.02,305.00 161.64,305.00 162.26,305.00 162.88,305.00 163.50,305.00 164.11,305.00 164.73,305.00 165.35,305.00 165.97,305.00 166.60,305.00 167.22,305.00 167.84,305.00 168.47,305.00 169.09,305.00 169.70,305.00 170.32,305.00 170.94,305.00 171.57,305.00 172.20,305.00 172.82,305.00 173.44,305.00 174.06,305.00 174.67,305.00 175.29,305.00 175.91,305.00 176.53,305.00 177.14,305.00 177.76,305.00 178.38,305.00 179.00,305.00 179.63,305.00 180.24,305.00 180.88,305.00 181.50,305.00 182.12,305.00 182.73,305.00 183.35,305.00 184.02,305.00 184.66,305.00 185.27,305.00 185.89,305.00 186.50,305.00 187.12,305.00 187.74,305.00 188.36,305.00 188.98,305.00 189.60,305.00 190.22,305.00 190.84,305.00 191.47,305.00 192.09,305.00 192.71,305.00 193.32,305.00 193.95,305.00 194.58,305.00 195.22,305.00 195.83,305.00 196.45,305.00 197.07,305.00 197.69,305.00 198.31,305.00 198.93,305.00 199.56,305.00 200.18,305.00 200.79,305.00 201.42,305.00 202.04,305.00 202.66,305.00 203.28,305.00 203.91,305.00 204.53,305.00 205.14,305.00 205.76,305.00 206.37,305.00 207.00,305.00 207.61,305.00 208.23,305.00 208.85,305.00 209.46,305.00 210.08,305.00 210.71,305.00 211.33,305.00 211.95,305.00 212.58,305.00 213.20,305.00 213.82,305.00 214.44,305.00 215.06,305.00 215.68,305.00 216.30,305.00 216.92,305.00 217.55,305.00 218.18,305.00 218.80,305.00 219.42,305.00 220.04,305.00 220.66,305.00 221.27,305.00 221.89,305.00 222.51,305.00 223.13,305.00 223.75,305.00 224.38,305.00 225.00,305.00 225.62,305.00 226.24,305.00 226.86,305.00 227.49,305.00 228.11,305.00 228.72,305.00 229.35,305.00 229.98,305.00 230.60,305.00 231.22,305.00 231.84,305.00 232.52,305.00 233.15,305.00 233.77,305.00 234.39,305.00 235.01,305.00 235.64,305.00 236.26,305.00 236.88,305.00 237.50,305.00 238.13,305.00 238.76,305.00 239.38,305.00 240.00,305.00 240.62,305.00 241.24,305.00 241.86,305.00 242.50,305.00 243.12,305.00 243.74,305.00 244.37,305.00 245.04,305.00 245.66,305.00 246.44,305.00 247.49,305.00 248.12,305.00 248.76,305.00 249.37,305.00 249.98,305.00 250.60,305.00 251.23,305.00 251.85,305.00 252.47,305.00 253.12,305.00 253.76,305.00 254.42,305.00 255.04,305.00 255.66,305.00 256.28,305.00 256.91,305.00 257.54,305.00 258.17,305.00 258.78,305.00 259.40,305.00 260.05,305.00 260.67,305.00 261.28,305.00 261.91,305.00 262.54,305.00 263.18,305.00 263.80,305.00 264.42,305.00 265.06,305.00 265.66,305.00 266.27,305.00 266.91,305.00 267.52,305.00 268.15,305.00 268.79,305.00 269.41,305.00 270.03,305.00 270.66,305.00 271.29,305.00 271.91,305.00 272.53,305.00 273.14,305.00 273.77,305.00 274.39,305.00 275.00,305.00 275.74,305.00 276.47,305.00 277.21,305.00 277.93,305.00 278.64,305.00 279.35,305.00 280.08,305.00 280.81,305.00 281.43,305.00 282.04,305.00 282.66,305.00 283.28,305.00 283.90,305.00 284.51,305.00 285.13,305.00 285.75,305.00 286.37,305.00 286.99,305.00 287.61,305.00 288.22,305.00 288.84,305.00 289.46,305.00 290.07,305.00 290.69,305.00 291.31,305.00 291.93,305.00 292.55,305.00 293.17,305.00 293.78,305.00 294.40,305.00 295.02,305.00 295.63,305.00 296.26,305.00 296.88,305.00 297.49,305.00 298.11,305.00 298.73,305.00 299.35,305.00 299.97,305.00 300.59,305.00 301.20,305.00 301.82,305.00 302.43,305.00 303.04,305.00 303.66,305.00 304.28,305.00 304.89,305.00 305.51,305.00 306.13,305.00 306.75,305.00 307.36,305.00 307.97,305.00 308.58,305.00 309.22,305.00 309.89,305.00 310.51,305.00 311.13,305.00 311.75,305.00 312.36,305.00 312.98,305.00 313.59,305.00 314.21,305.00 314.94,305.00 315.67,305.00 316.39,305.00 317.11,305.00 317.84,305.00 318.56,305.00 319.30,305.00 320.06,305.00 320.73,305.00 321.40,305.00 322.02,305.00 322.64,305.00 323.26,305.00 323.88,305.00 324.49,305.00 325.11,305.00 325.73,305.00 326.35,305.00 326.96,305.00 327.58,305.00 328.21,305.00 328.82,305.00 329.45,305.00 330.07,305.00 330.68,305.00 331.23,305.00 331.87,305.00 332.48,305.00 333.12,305.00 333.74,305.00 334.35,305.00 334.98,305.00 335.60,305.00 336.22,305.00 336.85,305.00 337.47,305.00 338.11,305.00 338.72,305.00 339.33,305.00 339.95,305.00 340.57,305.00 341.18,305.00 341.80,305.00 342.42,305.00 343.04,305.00 343.66,305.00 344.28,305.00 344.89,305.00 345.52,305.00 346.14,305.00 346.76,305.00 347.38,305.00 348.00,305.00 348.62,305.00 349.25,305.00 349.87,305.00 350.51,305.00 351.12,305.00 351.74,305.00 352.35,305.00 352.97,305.00 353.58,305.00 354.21,305.00 354.83,305.00 355.44,305.00 356.06,305.00 356.68,305.00 357.30,305.00 357.92,305.00 358.54,305.00 359.16,305.00 359.91,305.00 360.55,305.00 361.18,305.00 361.81,305.00 362.43,305.00 363.05,305.00 363.67,305.00 364.28,305.00 364.91,305.00 365.53,305.00 366.15,305.00 366.77,305.00 367.40,305.00 368.01,305.00 368.66,305.00 369.29,305.00 369.91,305.00 370.53,305.00 371.15,305.00 371.77,305.00 372.38,305.00 373.00,305.00 373.65,305.00 374.27,305.00 374.90,305.00 375.52,305.00 376.13,305.00 376.76,305.00 377.37,305.00 378.00,305.00 378.62,305.00 379.24,305.00 379.86,305.00 380.48,305.00 381.10,305.00 381.72,305.00 382.34,305.00 382.97,305.00 383.59,305.00 384.21,305.00 384.83,305.00 385.45,305.00 386.08,305.00 386.70,305.00 387.44,305.00 388.08,305.00 388.70,305.00 389.32,305.00 389.94,305.00 390.56,305.00 391.18,305.00 391.81,305.00 392.44,305.00 393.05,305.00 393.67,305.00 394.29,305.00 394.91,305.00 395.53,305.00 396.15,305.00 396.77,305.00 397.39,305.00 398.00,305.00 398.62,305.00 399.24,305.00 399.87,305.00 400.49,305.00 401.10,305.00 401.73,305.00 402.36,305.00 402.98,305.00 403.59,305.00 404.22,305.00 404.85,305.00 405.47,305.00 406.09,305.00 406.72,305.00 407.34,305.00 407.95,305.00 408.58,305.00 409.20,305.00 409.83,305.00 410.45,305.00 411.07,305.00 411.68,305.00 412.30,305.00 412.92,305.00 413.54,305.00 414.16,305.00 414.79,305.00 415.42,305.00 416.04,305.00 416.65,305.00 417.28,305.00 417.89,305.00 418.51,305.00 419.13,305.00 419.75,305.00 420.37,305.00 421.00,305.00 421.62,305.00 422.24,305.00 422.86,305.00 423.49,305.00 424.11,305.00 424.73,305.00 425.36,305.00 426.06,305.00 426.74,305.00 427.40,305.00 428.03,305.00 428.68,305.00 429.30,305.00 429.92,305.00 430.53,305.00 431.11,305.00 431.76,305.00 432.38,305.00 433.01,305.00 433.62,305.00 434.24,305.00 434.86,305.00 435.49,305.00 436.10,305.00 436.72,305.00 437.34,305.00 437.97,305.00 438.59,305.00 439.21,305.00 439.84,305.00 440.47,305.00 441.09,305.00 441.71,305.00 442.33,305.00 442.97,305.00 443.59,305.00 444.20,305.00 444.82,305.00 445.44,305.00 446.06,305.00 446.68,305.00 447.30,305.00 447.92,305.00 448.55,305.00 449.17,305.00 449.79,305.00 450.41,305.00 451.03,305.00 451.66,305.00 452.28,305.00 452.90,305.00 453.52,305.00 454.14,305.00 454.77,305.00 455.39,305.00 456.02,305.00 456.64,305.00 457.26,305.00 457.89,305.00 458.51,305.00 459.13,305.00 459.77,305.00 460.39,305.00 461.02,305.00 461.64,305.00 462.26,305.00 462.88,305.00 463.50,305.00 464.13,305.00 464.75,305.00 465.37,305.00 465.99,305.00 466.62,305.00 467.24,305.00 467.87,305.00 468.49,305.00 469.12,305.00 469.74,305.00 470.37,305.00 471.00,305.00 471.62,305.00 472.23,305.00 472.86,305.00 473.48,305.00 474.12,305.00 474.74,305.00 475.37,305.00 475.99,305.00 476.61,305.00 477.23,305.00 477.85,305.00 478.47,305.00 479.10,305.00 479.72,305.00 480.34,305.00 480.96,305.00 481.59,305.00 482.21,305.00 482.83,305.00 483.45,305.00 484.08,305.00 484.71,305.00 485.33,305.00 485.95,305.00 486.57,305.00 487.19,305.00 487.81,305.00 488.43,305.00 489.05,305.00 489.68,305.00 490.30,305.00 490.93,305.00 491.55,305.00 492.18,305.00 492.80,305.00 493.42,305.00 494.05,305.00 494.68,305.00 495.30,305.00 495.92,305.00 496.54,305.00 497.17,305.00 497.80,305.00 498.42,305.00 499.06,305.00 499.68,305.00 500.31,305.00 500.93,305.00 501.55,305.00 502.18,305.00 502.80,305.00 503.43,305.00 504.06,305.00 504.68,305.00 505.30,305.00 505.92,305.00 506.56,305.00 507.17,305.00 507.80,305.00 508.42,305.00 509.04,305.00 509.66,305.00 510.28,305.00 510.90,305.00 511.52,305.00 512.15,305.00 512.77,305.00 513.39,305.00 514.01,305.00 514.64,305.00 515.28,305.00 515.90,305.00 516.52,305.00 517.14,305.00 517.76,305.00 518.38,305.00 519.00,305.00 519.63,305.00 520.25,305.00 520.88,305.00 521.50,305.00 522.12,305.00 522.75,305.00 523.37,305.00 524.00,305.00 524.64,305.00 525.27,305.00 525.89,305.00 526.52,305.00 527.14,305.00 527.77,305.00 528.39,305.00 529.01,305.00 529.63,305.00 530.26,305.00 530.88,305.00 531.51,305.00 532.13,305.00 532.76,305.00 533.41,305.00 534.03,305.00 534.65,305.00 535.28,305.00 535.90,305.00 536.52,305.00 537.15,305.00 537.78,305.00 538.41,305.00 539.04,305.00 539.66,305.00 540.28,305.00 540.91,305.00 541.53,305.00 542.16,305.00 542.78,305.00 543.40,305.00 544.03,305.00 544.66,305.00 545.28,305.00 545.90,305.00 546.53,305.00 547.15,305.00 547.78,305.00 548.40,305.00 549.03,305.00 549.67,305.00 550.30,305.00 550.93,305.00 551.55,305.00 552.19,305.00 552.83,305.00 553.46,305.00 554.09,305.00 554.74,305.00 555.36,305.00 555.99,305.00 556.61,305.00 557.23,305.00 557.86,305.00 558.49,305.00 559.13,305.00 559.75,305.00 560.37,305.00 561.00,305.00 561.62,305.00 562.24,305.00 562.87,305.00 563.49,305.00 564.11,305.00 564.73,305.00 565.35,305.00 565.97,305.00 566.59,305.00 567.21,305.00 567.84,305.00 568.46,305.00 569.08,305.00 569.71,305.00 570.34,305.00 570.96,305.00 571.59,305.00 572.21,305.00 572.83,305.00 573.45,305.00 574.07,305.00 574.70,305.00 575.33,305.00 575.94,305.00 576.56,305.00 577.18,305.00 577.80,305.00 578.43,305.00 579.05,305.00 579.67,305.00 580.30,305.00 580.92,305.00 581.54,305.00 582.17,305.00 582.79,305.00 583.40,305.00 584.02,305.00 584.63,305.00 585.25,305.00 585.88,305.00 586.51,305.00 587.13,305.00 587.75,305.00 588.38,305.00 589.01,305.00 589.64,305.00 590.26,305.00 590.89,305.00 591.51,305.00 592.13,305.00 592.76,305.00 593.38,305.00 594.02,305.00 594.64,305.00 595.27,305.00 595.88,305.00 596.51,305.00 597.13,305.00 597.75,305.00 598.37,305.00 598.98,305.00 599.61,305.00 600.23,305.00 600.86,305.00 601.48,305.00 602.10,305.00 602.72,305.00 603.34,305.00 603.97,305.00 604.59,305.00 605.22,305.00 605.84,305.00 606.46,305.00 607.09,305.00 607.71,305.00 608.33,305.00 608.96,305.00 609.58,305.00 610.20,305.00 610.83,305.00 611.45,305.00 612.07,305.00 612.69,305.00 613.31,305.00 613.96,305.00 614.58,305.00 615.22,305.00 615.85,305.00 616.47,305.00 617.10,305.00 617.72,305.00 618.35,305.00 618.97,305.00 619.59,305.00 620.22,305.00 620.86,305.00 621.48,305.00 622.10,305.00 622.73,305.00 623.35,305.00 623.98,305.00 624.60,305.00 625.22,305.00 625.84,305.00 626.47,305.00 627.09,305.00 627.71,305.00 628.33,305.00 628.96,305.00 629.57,305.00 630.19,305.00 630.82,305.00 631.44,305.00 632.06,305.00 632.69,305.00 633.31,305.00 633.93,305.00 634.56,305.00 635.18,305.00 635.80,305.00 636.43,305.00 637.05,305.00 637.68,305.00 638.30,305.00 638.92,305.00 639.54,305.00 640.17,305.00 640.79,305.00 641.41,305.00 642.04,305.00 642.68,305.00 643.31,305.00 643.95,305.00 644.58,305.00 645.22,305.00 645.86,305.00 646.49,305.00 647.14,305.00 647.77,305.00 648.41,305.00 649.03,305.00 649.65,305.00 650.28,305.00 650.91,305.00 651.53,305.00 652.16,305.00 652.78,305.00 653.41,305.00 654.04,305.00 654.66,305.00 655.28,305.00 655.90,305.00 656.52,305.00 657.14,305.00 657.76,305.00 658.39,305.00 659.02,305.00 659.64,305.00 660.27,305.00 660.90,305.00 661.52,305.00 662.14,305.00 662.76,305.00 663.39,305.00 664.01,305.00 664.63,305.00 665.26,305.00 665.88,305.00 666.51,305.00 667.13,305.00 667.75,305.00 668.38,305.00 669.00,305.00 669.62,305.00 670.29,305.00 670.93,305.00 671.55,305.00 672.18,305.00 672.79,305.00 673.43,305.00 674.06,305.00 674.69,305.00 675.31,305.00 675.93,305.00 676.54,305.00 677.16,305.00 677.78,305.00 678.41,305.00 679.03,305.00 679.65,305.00 680.28,305.00 680.91,305.00 681.54,305.00 682.16,305.00 682.78,305.00 683.40,305.00 684.03,305.00 684.65,305.00 685.27,305.00 685.89,305.00 686.52,305.00 687.15,305.00 687.77,305.00 688.42,305.00 689.05,305.00 689.67,305.00 690.29,305.00 690.91,305.00 691.54,305.00 692.17,305.00 692.79,305.00 693.41,305.00 694.04,305.00 694.66,305.00 695.30,305.00 695.92,305.00 696.55,305.00 697.17,305.00 697.79,305.00 698.42,305.00 699.04,305.00 699.67,305.00 700.28,305.00 700.92,305.00 701.54,305.00 702.16,305.00 702.79,305.00 703.41,305.00 704.03,305.00 704.66,305.00 705.27,305.00 705.90,305.00 706.52,305.00 707.15,305.00 707.77,305.00 708.39,305.00 709.01,305.00 709.64,305.00 710.27,305.00 710.89,305.00 711.51,305.00 712.13,305.00 712.75,305.00 713.37,305.00 714.00,305.00 714.62,305.00 715.26,305.00 715.88,305.00 716.51,305.00 717.14,305.00 717.76,305.00 718.39,305.00 719.06,305.00 719.70,305.00 720.32,305.00 720.95,305.00 721.59,305.00 722.21,305.00 722.83,305.00 723.45,305.00 724.08,305.00 724.70,305.00 725.33,305.00 725.95,305.00 726.58,305.00 727.21,305.00 727.84,305.00 728.47,305.00 729.09,305.00 729.71,305.00 730.34,305.00 730.96,305.00 731.59,305.00 732.21,305.00 732.84,305.00 733.46,305.00 734.09,305.00 734.71,305.00 735.34,305.00 735.97,305.00 736.60,305.00 737.22,305.00 737.85,305.00 738.47,305.00 739.10,305.00 739.73,305.00 740.34,305.00 740.96,305.00 741.59,305.00 742.21,305.00 742.84,305.00 743.46,305.00 744.08,305.00 744.71,305.00 745.33,305.00 745.96,305.00 746.58,305.00 747.21,305.00 747.83,305.00 748.46,305.00 749.09,305.00 749.70,305.00 750.31,305.00 750.93,305.00 751.55,305.00 752.18,305.00 752.80,305.00 753.44,305.00 754.06,305.00 754.69,305.00 755.32,305.00 755.94,305.00 756.56,305.00 757.18,305.00 757.81,305.00 758.42,305.00 759.04,305.00 759.67,305.00 760.29,305.00 760.91,305.00 761.53,305.00 762.15,305.00 762.78,305.00 763.40,305.00 764.03,305.00 764.64,305.00 765.26,305.00 765.87,305.00 766.51,305.00 767.13,305.00 767.75,305.00 768.38,305.00 769.01,305.00 769.63,305.00 770.25,305.00 770.88,305.00 771.50,305.00 772.13,305.00 772.75,305.00 773.42,305.00 774.04,305.00 774.67,305.00 775.30,305.00 775.93,305.00 776.55,305.00 777.17,305.00 777.80,305.00 778.42,305.00 779.04,305.00 779.66,305.00 780.28,305.00 780.91,305.00 781.54,305.00 782.16,305.00 782.79,305.00 783.41,305.00 784.04,305.00 784.66,305.00 785.29,305.00 785.91,305.00 786.55,305.00 787.18,305.00 787.81,305.00 788.43,305.00 789.06,305.00 789.69,305.00 790.31,305.00 790.94,305.00 791.56,305.00 792.18,305.00 792.80,305.00 793.43,305.00 794.05,305.00 794.68,305.00 795.30,305.00 795.93,305.00 796.55,305.00 797.17,305.00 797.79,305.00 798.41,305.00 799.04,305.00 799.66,305.00 800.28,305.00 800.91,305.00 801.52,305.00 802.14,305.00 802.76,305.00 803.39,305.00 804.01,305.00 804.63,305.00 805.25,305.00 805.87,305.00 806.49,305.00 807.11,305.00 807.73,305.00 808.36,305.00 808.98,305.00 809.60,305.00 810.21,305.00 810.83,305.00 811.47,305.00 812.09,305.00 812.71,305.00 813.33,305.00 813.98,305.00 814.60,305.00 815.23,305.00 815.86,305.00 816.48,305.00 817.11,305.00 817.73,305.00 818.36,305.00 818.98,305.00 819.60,305.00 820.22,305.00 820.84,305.00 821.47,305.00 822.09,305.00 822.72,305.00 823.33,305.00 823.95,305.00 824.58,305.00 825.20,305.00 825.82,305.00 826.45,305.00 827.10,305.00 827.72,305.00 828.34,305.00 828.96,305.00 829.57,305.00 830.21,305.00 830.83,305.00 831.45,305.00 832.08,305.00 832.70,305.00 833.33,305.00 833.95,305.00 834.58,305.00 835.20,305.00 835.82,305.00 836.45,305.00 837.07,305.00 837.69,305.00 838.31,305.00 838.93,305.00 839.55,305.00 840.18,305.00 840.80,305.00 841.42,305.00 842.04,305.00 842.66,305.00 843.29,305.00 843.91,305.00 844.54,305.00 845.16,305.00 845.78,305.00 846.40,305.00 847.02,305.00 847.65,305.00 848.27,305.00 848.89,305.00 849.52,305.00 850.14,305.00 850.75,305.00 851.38,305.00 852.00,305.00 852.62,305.00 853.26,305.00 853.88,305.00 854.50,305.00 855.13,305.00 855.75,305.00 856.38,305.00 857.02,305.00 857.64,305.00 858.30,305.00 858.93,305.00 859.60,305.00 860.22,305.00 860.84,305.00 861.46,305.00 862.08,305.00 862.70,305.00 863.33,305.00 863.95,305.00 864.57,305.00 865.20,305.00 865.82,305.00 866.44,305.00 867.06,305.00 867.68,305.00 868.31,305.00 868.93,305.00 869.55,305.00 870.16,305.00 870.79,305.00 871.42,305.00 872.04,305.00 872.66,305.00 873.28,305.00 873.90,305.00 874.53,305.00 875.16,305.00 875.78,305.00 876.40,305.00 877.03,305.00 877.65,305.00 878.27,305.00 878.89,305.00 879.51,305.00 880.13,305.00 880.75,305.00 881.37,305.00 881.98,305.00 882.60,305.00 883.23,305.00 883.85,305.00 884.48,305.00 885.10,305.00 885.75,305.00 886.37,305.00 886.99,305.00 887.61,305.00 888.23,305.00 888.85,305.00 889.47,305.00 890.09,305.00 890.71,305.00 891.33,305.00 891.95,305.00 892.57,305.00 893.19,305.00 893.81,305.00 894.43,305.00 895.05,305.00 895.67,305.00 896.30,305.00 896.92,305.00 897.54,305.00 898.17,305.00 898.79,305.00 899.41,305.00 900.04,305.00 900.66,305.00 901.28,305.00 901.91,305.00 902.53,305.00 903.16,305.00 903.78,305.00 904.40,305.00 905.02,305.00 905.65,305.00 906.27,305.00 906.91,305.00 907.53,305.00 908.16,305.00 908.79,305.00 909.41,305.00 910.03,305.00 910.65,305.00 911.27,305.00 911.90,305.00 912.53,305.00 913.14,305.00 913.77,305.00 914.40,305.00 915.02,305.00 915.65,305.00 916.28,305.00 916.92,305.00 917.58,305.00 918.21,305.00 918.83,305.00 919.45,305.00 920.07,305.00 920.70,305.00 921.32,305.00 921.94,305.00 922.57,305.00 923.19,305.00 923.82,305.00 924.44,305.00 925.06,305.00 925.68,305.00 926.30,305.00 926.93,305.00 927.57,305.00 928.21,305.00 928.83,305.00 929.46,305.00 930.11,305.00 930.74,305.00 931.40,305.00 932.03,305.00 932.65,305.00 933.28,305.00 933.90,305.00 934.52,305.00 935.15,305.00 935.76,305.00 936.39,305.00 937.01,305.00 937.63,305.00 938.27,305.00 938.89,305.00 939.52,305.00 940.15,305.00 940.88,305.00 941.50,305.00 942.12,305.00 942.74,305.00 943.36,305.00 943.98,305.00 944.59,305.00 945.17,305.00 945.73,305.00 946.40,305.00 946.99,305.00 947.55,305.00 948.19,305.00 948.73,305.00 949.35,305.00 949.98,305.00 950.60,305.00 951.22,305.00 951.84,305.00 952.46,305.00 953.08,305.00 953.69,305.00 954.32,305.00 954.94,305.00 955.56,305.00 956.18,305.00 956.81,305.00 957.42,305.00 958.05,305.00 958.66,305.00 959.28,305.00 959.89,305.00 960.51,305.00 961.14,305.00 961.76,305.00 962.38,305.00 963.01,305.00 963.63,305.00 964.24,305.00 964.86,305.00 965.48,305.00 966.10,305.00 966.72,305.00 967.33,305.00 967.95,305.00 968.57,305.00 969.19,305.00 969.81,305.00 970.43,305.00 971.05,305.00 971.68,305.00 972.30,305.00 972.92,305.00 973.53,305.00 974.16,305.00 974.78,305.00 975.40,305.00 976.02,305.00 976.63,305.00 977.25,305.00 977.87,305.00 978.49,305.00 979.10,305.00 979.72,305.00 980.35,305.00 980.98,305.00 981.60,305.00 982.22,305.00 982.84,305.00 983.46,305.00 984.09,305.00 984.71,305.00 985.33,305.00 985.95,305.00 986.57,305.00 987.19,305.00 987.81,305.00 988.43,305.00 989.05,305.00 989.67,305.00 990.29,305.00 990.91,305.00 991.53,305.00 992.16,305.00 992.77,305.00 993.40,305.00 994.02,305.00 994.64,305.00 995.26,305.00 995.88,305.00 996.50,305.00 997.18,305.00 997.80,305.00 998.42,305.00 999.04,305.00 999.66,305.00 1000.29,305.00 1000.90,305.00 1001.53,305.00 1002.40,305.00 1003.02,305.00 1003.88,305.00 1004.50,305.00 1005.13,305.00 1005.75,305.00 1006.37,305.00 1006.99,305.00 1007.61,305.00 1008.22,305.00 1008.84,305.00 1009.46,305.00 1010.08,305.00 1010.70,305.00 1011.32,305.00 1011.95,305.00 1012.57,305.00 1013.19,305.00 1013.81,305.00 1014.44,305.00 1015.05,305.00 1015.69,305.00 1016.31,305.00 1016.92,305.00 1017.55,305.00 1018.17,305.00 1018.79,305.00 1019.41,305.00 1020.04,305.00 1020.66,305.00 1021.28,305.00 1021.90,305.00 1022.53,305.00 1023.16,305.00 1023.80,305.00 1024.43,305.00 1025.08,305.00 1025.70,305.00 1026.32,305.00 1026.95,305.00 1027.57,305.00 1028.19,305.00 1028.81,305.00 1029.43,305.00 1030.05,305.00 1030.68,305.00 1031.31,305.00 1031.93,305.00 1032.56,305.00 1033.18,305.00 1033.81,305.00 1034.43,305.00 1035.05,305.00 1035.68,305.00 1036.30,305.00 1036.93,305.00 1037.55,305.00 1038.18,305.00 1038.81,305.00 1039.43,305.00 1040.05,305.00 1040.68,305.00 1041.30,305.00 1041.92,305.00 1042.56,305.00 1043.19,305.00 1043.81,305.00 1044.43,305.00 1045.06,305.00 1045.68,305.00 1046.30,305.00 1046.93,305.00 1047.55,305.00 1048.17,305.00 1048.79,305.00 1049.41,305.00 1050.03,305.00 1050.65,305.00 1051.29,305.00 1051.92,305.00 1052.55,305.00 1053.17,305.00 1053.79,305.00 1054.41,305.00 1055.03,305.00 1055.66,305.00 1056.28,305.00 1056.90,305.00 1057.52,305.00 1058.15,305.00 1058.77,305.00 1059.40,305.00 1060.02,305.00 1060.64,305.00 1061.26,305.00 1061.89,305.00 1062.51,305.00 1063.14,305.00 1063.77,305.00 1064.39,305.00 1065.01,305.00 1065.64,305.00 1066.27,305.00 1066.89,305.00 1067.52,305.00 1068.14,305.00 1068.77,305.00 1069.40,305.00 1070.02,305.00 1070.64,305.00 1071.26,305.00 1071.88,305.00 1072.52,305.00 1073.14,305.00 1073.77,305.00 1074.41,305.00 1075.04,305.00 1075.66,305.00 1076.28,305.00 1076.91,305.00 1077.53,305.00 1078.16,305.00 1078.78,305.00 1079.41,305.00 1080.03,305.00 1080.65,305.00 1081.28,305.00 1081.90,305.00 1082.53,305.00 1083.15,305.00 1083.77,305.00 1084.41,305.00 1085.04,305.00 1085.67,305.00 1086.29,305.00 1086.92,305.00 1087.55,305.00 1088.17,305.00 1088.79,305.00 1089.41,305.00 1090.06,305.00 1090.69,305.00 1091.31,305.00 1091.94,305.00 1092.56,305.00 1093.18,305.00 1093.83,305.00 1094.45,305.00 1095.09,305.00 1095.71,305.00 1096.34,305.00 1096.97,305.00 1097.63,305.00 1098.25,305.00 1098.88,305.00 1099.51,305.00 1100.13,305.00 1100.75,305.00 1101.37,305.00 1102.00,305.00 1102.63,305.00 1103.25,305.00 1103.90,305.00 1104.52,305.00 1105.14,305.00 1105.77,305.00 1106.40,305.00 1107.02,305.00 1107.66,305.00 1108.28,305.00 1108.90,305.00 1109.53,305.00 1110.15,305.00 1110.77,305.00 1111.41,305.00 1112.04,305.00 1112.66,305.00 1113.27,305.00 1113.89,305.00 1114.52,305.00 1115.14,305.00 1115.76,305.00 1116.40,305.00 1117.02,305.00 1117.64,305.00 1118.27,305.00 1118.89,305.00 1119.50,305.00 1120.13,305.00 1120.75,305.00 1121.38,305.00 1122.01,305.00 1122.62,305.00 1123.24,305.00 1123.87,305.00 1124.49,305.00 1125.14,305.00 1125.76,305.00 1126.39,305.00 1127.01,305.00 1127.63,305.00 1128.25,305.00 1128.86,305.00 1129.49,305.00 1130.12,305.00 1130.77,305.00 1131.39,305.00 1132.02,305.00 1132.64,305.00 1133.26,305.00 1133.88,305.00 1134.49,305.00 1135.11,305.00 1135.74,305.00 1136.36,305.00 1136.98,305.00 1137.60,305.00 1138.22,305.00 1138.84,305.00 1139.47,305.00 1140.08,305.00 1140.70,305.00 1141.33,305.00 1141.95,305.00 1142.58,305.00 1143.21,305.00 1143.84,305.00 1144.45,305.00 1145.07,305.00 1145.70,305.00 1146.33,305.00 1146.95,305.00 1147.57,305.00 1148.19,305.00 1148.81,305.00 1149.43,305.00 1150.06,305.00 1150.68,305.00 1151.30,305.00 1151.91,305.00 1152.54,305.00 1153.16,305.00 1153.77,305.00 1154.39,305.00 1155.01,305.00 1155.63,305.00 1156.26,305.00 1156.88,305.00 1157.50,305.00 1158.13,305.00 1158.75,305.00 1159.37,305.00 1159.99,305.00 1160.61,305.00 1161.23,305.00 1161.86,305.00 1162.48,305.00 1163.10,305.00 1163.73,305.00 1164.35,305.00 1164.97,305.00 1165.60,305.00 1166.23,305.00 1166.85,305.00 1167.48,305.00 1168.11,305.00 1168.74,305.00 1169.36,305.00 1169.98,305.00 1170.60,305.00 1171.22,305.00 1171.84,305.00 1172.46,305.00 1173.08,305.00 1173.70,305.00 1174.32,305.00 1174.97,305.00 1175.59,305.00 1176.22,305.00 1176.84,305.00 1177.46,305.00 1178.10,305.00 1178.73,305.00 1179.39,305.00 1180.00,305.00"/>
<rect x="70" y="332" width="12" height="12" fill="#9467bd" fill-opacity="0.95"/>
<text x="88" y="342" font-size="11" fill="#333" font-family="Arial, Helvetica, sans-serif">nsc1.utdallas.edu</text>
<rect x="350" y="332" width="12" height="12" fill="#9467bd" fill-opacity="0.80"/>
<text x="368" y="342" font-size="11" fill="#333" font-family="Arial, Helvetica, sans-serif">nsc2.utdallas.edu</text>
<rect x="630" y="332" width="12" height="12" fill="#9467bd" fill-opacity="0.65"/>
<text x="648" y="342" font-size="11" fill="#333" font-family="Arial, Helvetica, sans-serif">nsc3.utdallas.edu</text>
<rect x="910" y="332" width="12" height="12" fill="#9467bd" fill-opacity="0.50"/>
<text x="928" y="342" font-size="11" fill="#333" font-family="Arial, Helvetica, sans-serif">nsc4.utdallas.edu</text>
</svg>