<?xml version="1.0" encoding="UTF-8"?>
<svg xmlns="http://www.w3.org/2000/svg" width="1200" height="360" viewBox="0 0 1200 360" role="img" aria-label="GPU Utilization (%)">
<rect width="100%" height="100%" fill="#ffffff"/>
<text x="600.0" y="22" text-anchor="middle" font-size="16" font-family="Arial, Helvetica, sans-serif" font-weight="bold">GPU Utilization (%)</text>
<line x1="70" y1="35.00" x2="1180" y2="35.00" stroke="#e3e3e3" stroke-width="1"/>
<text x="62" y="39.00" text-anchor="end" font-size="11" fill="#444" font-family="Arial, Helvetica, sans-serif">100</text>
<line x1="70" y1="89.00" x2="1180" y2="89.00" stroke="#e3e3e3" stroke-width="1"/>
<text x="62" y="93.00" text-anchor="end" font-size="11" fill="#444" font-family="Arial, Helvetica, sans-serif">80</text>
<line x1="70" y1="143.00" x2="1180" y2="143.00" stroke="#e3e3e3" stroke-width="1"/>
<text x="62" y="147.00" text-anchor="end" font-size="11" fill="#444" font-family="Arial, Helvetica, sans-serif">60</text>
<line x1="70" y1="197.00" x2="1180" y2="197.00" stroke="#e3e3e3" stroke-width="1"/>
<text x="62" y="201.00" text-anchor="end" font-size="11" fill="#444" font-family="Arial, Helvetica, sans-serif">40</text>
<line x1="70" y1="251.00" x2="1180" y2="251.00" stroke="#e3e3e3" stroke-width="1"/>
<text x="62" y="255.00" text-anchor="end" font-size="11" fill="#444" font-family="Arial, Helvetica, sans-serif">20</text>
<line x1="70" y1="305.00" x2="1180" y2="305.00" stroke="#e3e3e3" stroke-width="1"/>
<text x="62" y="309.00" text-anchor="end" font-size="11" fill="#444" font-family="Arial, Helvetica, sans-serif">0</text>
<line x1="70" y1="35" x2="70" y2="305" stroke="#999"/>
<line x1="70" y1="305" x2="1180" y2="305" stroke="#999"/>
<text x="70.00" y="323" text-anchor="middle" font-size="10" fill="#444" font-family="Arial, Helvetica, sans-serif">2026-02-11 16:38</text>
<text x="347.50" y="323" text-anchor="middle" font-size="10" fill="#444" font-family="Arial, Helvetica, sans-serif">2026-02-11 18:06</text>
<text x="625.00" y="323" text-anchor="middle" font-size="10" fill="#444" font-family="Arial, Helvetica, sans-serif">2026-02-11 19:34</text>
<text x="902.50" y="323" text-anchor="middle" font-size="10" fill="#444" font-family="Arial, Helvetica, sans-serif">2026-02-11 21:03</text>
<text x="1180.00" y="323" text-anchor="middle" font-size="10" fill="#444" font-family="Arial, Helvetica, sans-serif">2026-02-11 22:31</text>
<polyline fill="none" stroke="#9467bd" stroke-opacity="0.95" stroke-width="2" points="86.89,305.00 103.83,305.00 120.67,305.00 137.61,305.00 154.66,305.00 171.39,305.00 188.34,305.00 206.64,305.00 223.42,305.00 240.21,305.00 257.00,305.00 274.15,305.00 290.93,305.00 307.72,305.00 338.10,305.00 364.30,305.00 381.35,305.00 398.65,305.00 415.49,305.00 432.33,305.00 448.85,305.00 465.90,305.00 482.74,305.00 499.73,305.00 516.73,305.00 533.93,305.00 550.88,305.00 567.82,305.00 585.55,305.00 602.59,305.00 619.43,305.00 636.74,305.00 653.63,305.00 670.52,305.00 687.93,305.00 704.67,305.00 721.56,305.00 738.76,305.00 755.44,305.00 772.33,305.00 789.01,305.00 805.85,305.00 822.79,305.00 839.58,305.00 856.84,305.00 873.88,305.00 890.56,305.00 907.40,305.00 924.45,305.00 941.34,305.00 960.64,305.00 977.53,305.00 994.36,305.00 1011.10,305.00 1027.88,305.00 1044.62,305.00 1061.40,305.00 1078.34,305.00 1095.18,305.00 1112.39,305.00 1129.22,305.00 1145.91,305.00 1162.90,305.00 1180.00,305.00"/>
<polyline fill="none" stroke="#9467bd" stroke-opacity="0.80" stroke-width="2" points="70.00,305.00 86.89,305.00 103.83,305.00 120.67,305.00 137.61,305.00 154.66,305.00 171.39,305.00 188.34,305.00 206.64,305.00 223.42,305.00 240.21,305.00 257.00,305.00 274.15,305.00 290.93,305.00 307.72,305.00 338.10,305.00 364.30,305.00 381.35,305.00 398.65,305.00 415.49,305.00 432.33,305.00 448.85,305.00 465.90,305.00 482.74,305.00 499.73,305.00 516.73,305.00 533.93,305.00 550.88,305.00 567.82,305.00 585.55,305.00 602.59,305.00 619.43,305.00 636.74,305.00 653.63,305.00 670.52,305.00 687.93,305.00 704.67,305.00 721.56,305.00 738.76,305.00 755.44,305.00 772.33,305.00 789.01,305.00 805.85,305.00 822.79,305.00 839.58,305.00 856.84,305.00 873.88,305.00 890.56,305.00 907.40,305.00 924.45,305.00 941.34,305.00 960.64,305.00 977.53,305.00 994.36,305.00 1011.10,305.00 1027.88,305.00 1044.62,305.00 1061.40,305.00 1078.34,305.00 1095.18,305.00 1112.39,305.00 1129.22,305.00 1145.91,305.00 1162.90,305.00 1180.00,305.00"/>
<polyline fill="none" stroke="#9467bd" stroke-opacity="0.65" stroke-width="2" points="70.00,305.00 86.89,305.00 103.83,305.00 120.67,305.00 137.61,305.00 154.66,305.00 171.39,305.00 188.34,305.00 206.64,305.00 223.42,305.00 240.21,305.00 257.00,305.00 274.15,305.00 290.93,305.00 307.72,305.00 338.10,305.00 364.30,305.00 381.35,305.00 398.65,305.00 415.49,305.00 432.33,305.00 448.85,305.00 465.90,305.00 482.74,305.00 499.73,305.00 516.73,305.00 533.93,305.00 550.88,305.00 567.82,305.00 585.55,305.00 602.59,305.00 619.43,305.00 636.74,305.00 653.63,305.00 670.52,305.00 687.93,305.00 704.67,305.00 721.56,305.00 738.76,305.00 755.44,305.00 772.33,305.00 789.01,305.00 805.85,305.00 822.79,305.00 839.58,305.00 856.84,305.00 873.88,305.00 890.56,305.00 907.40,305.00 924.45,305.00 941.34,305.00 960.64,305.00 977.53,305.00 994.36,305.00 1011.10,305.00 1027.88,305.00 1044.62,305.00 1061.40,305.00 1078.34,305.00 1095.18,305.00 1112.39,305.00 1129.22,305.00 1145.91,305.00 1162.90,305.00 1180.00,305.00"/>
<rect x="70" y="332" width="12" height="12" fill="#9467bd" fill-opacity="0.95"/>
<text x="88" y="342" font-size="11" fill="#333" font-family="Arial, Helvetica, sans-serif">nsc1.utdallas.edu</text>
<rect x="350" y="332" width="12" height="12" fill="#9467bd" fill-opacity="0.80"/>
<text x="368" y="342" font-size="11" fill="#333" font-family="Arial, Helvetica, sans-serif">nsc2.utdallas.edu</text>
<rect x="630" y="332" width="12" height="12" fill="#9467bd" fill-opacity="0.65"/>
<text x="648" y="342" font-size="11" fill="#333" font-family="Arial, Helvetica, sans-serif">nsc4.utdallas.edu</text>
</svg>