<?xml version="1.0" encoding="UTF-8"?>
<svg xmlns="http://www.w3.org/2000/svg" width="1200" height="360" viewBox="0 0 1200 360" role="img" aria-label="GPU Utilization (%)">
<rect width="100%" height="100%" fill="#ffffff"/>
<text x="600.0" y="22" text-anchor="middle" font-size="16" font-family="Arial, Helvetica, sans-serif" font-weight="bold">GPU Utilization (%)</text>
<line x1="70" y1="35.00" x2="1180" y2="35.00" stroke="#e3e3e3" stroke-width="1"/>
<text x="62" y="39.00" text-anchor="end" font-size="11" fill="#444" font-family="Arial, Helvetica, sans-serif">100</text>
<line x1="70" y1="89.00" x2="1180" y2="89.00" stroke="#e3e3e3" stroke-width="1"/>
<text x="62" y="93.00" text-anchor="end" font-size="11" fill="#444" font-family="Arial, Helvetica, sans-serif">80</text>
<line x1="70" y1="143.00" x2="1180" y2="143.00" stroke="#e3e3e3" stroke-width="1"/>
<text x="62" y="147.00" text-anchor="end" font-size="11" fill="#444" font-family="Arial, Helvetica, sans-serif">60</text>
<line x1="70" y1="197.00" x2="1180" y2="197.00" stroke="#e3e3e3" stroke-width="1"/>
<text x="62" y="201.00" text-anchor="end" font-size="11" fill="#444" font-family="Arial, Helvetica, sans-serif">40</text>
<line x1="70" y1="251.00" x2="1180" y2="251.00" stroke="#e3e3e3" stroke-width="1"/>
<text x="62" y="255.00" text-anchor="end" font-size="11" fill="#444" font-family="Arial, Helvetica, sans-serif">20</text>
<line x1="70" y1="305.00" x2="1180" y2="305.00" stroke="#e3e3e3" stroke-width="1"/>
<text x="62" y="309.00" text-anchor="end" font-size="11" fill="#444" font-family="Arial, Helvetica, sans-serif">0</text>
<line x1="70" y1="35" x2="70" y2="305" stroke="#999"/>
<line x1="70" y1="305" x2="1180" y2="305" stroke="#999"/>
<text x="70.00" y="323" text-anchor="middle" font-size="10" fill="#444" font-family="Arial, Helvetica, sans-serif">2026-02-11 16:38</text>
<text x="347.50" y="323" text-anchor="middle" font-size="10" fill="#444" font-family="Arial, Helvetica, sans-serif">2026-02-13 07:49</text>
<text x="625.00" y="323" text-anchor="middle" font-size="10" fill="#444" font-family="Arial, Helvetica, sans-serif">2026-02-14 23:01</text>
<text x="902.50" y="323" text-anchor="middle" font-size="10" fill="#444" font-family="Arial, Helvetica, sans-serif">2026-02-16 14:13</text>
<text x="1180.00" y="323" text-anchor="middle" font-size="10" fill="#444" font-family="Arial, Helvetica, sans-serif">2026-02-18 05:25</text>
<polyline fill="none" stroke="#9467bd" stroke-opacity="0.95" stroke-width="2" points="70.64,305.00 71.27,305.00 71.91,305.00 72.54,305.00 73.18,305.00 73.81,305.00 74.45,305.00 75.14,305.00 75.77,305.00 76.40,305.00 77.03,305.00 77.68,305.00 78.31,305.00 78.94,305.00 80.08,305.00 81.07,305.00 81.71,305.00 82.36,305.00 82.99,305.00 83.63,305.00 84.25,305.00 84.89,305.00 85.52,305.00 86.16,305.00 86.80,305.00 87.45,305.00 88.08,305.00 88.72,305.00 89.39,305.00 90.03,305.00 90.66,305.00 91.31,305.00 91.95,305.00 92.58,305.00 93.24,305.00 93.87,305.00 94.50,305.00 95.15,305.00 95.78,305.00 96.41,305.00 97.04,305.00 97.67,305.00 98.31,305.00 98.94,305.00 99.59,305.00 100.23,305.00 100.86,305.00 101.49,305.00 102.13,305.00 102.77,305.00 103.49,305.00 104.13,305.00 104.76,305.00 105.39,305.00 106.02,305.00 106.65,305.00 107.28,305.00 107.92,305.00 108.55,305.00 109.20,305.00 109.84,305.00 110.46,305.00 111.10,305.00 111.74,305.00 112.38,305.00 113.02,305.00 113.64,305.00 114.27,305.00 114.90,305.00 115.53,305.00 116.17,305.00 116.80,305.00 117.43,305.00 118.07,305.00 118.70,305.00 119.33,305.00 119.97,305.00 120.60,305.00 121.23,305.00 121.88,305.00 122.51,305.00 123.15,305.00 123.79,305.00 124.42,305.00 125.05,305.00 125.69,305.00 126.32,305.00 126.94,305.00 127.58,305.00 128.22,305.00 128.86,305.00 129.50,305.00 130.12,305.00 130.76,305.00 131.39,305.00 132.02,305.00 132.65,305.00 133.29,305.00 133.92,305.00 134.56,305.00 135.19,305.00 135.83,305.00 136.46,305.00 137.11,305.00 137.74,305.00 138.38,305.00 139.01,305.00 139.64,305.00 140.27,305.00 140.91,305.00 141.55,305.00 142.18,305.00 142.82,305.00 143.45,305.00 144.09,305.00 144.73,305.00 145.38,305.00 146.01,305.00 146.64,305.00 147.28,305.00 147.91,305.00 148.54,305.00 149.18,305.00 149.87,305.00 150.50,305.00 151.15,305.00 151.78,305.00 152.41,305.00 153.04,305.00 153.66,305.00 154.29,305.00 154.93,305.00 155.56,305.00 156.19,305.00 156.83,305.00 157.46,305.00 158.09,305.00 158.74,305.00 159.37,305.00 160.00,305.00 160.63,305.00 161.27,305.00 161.90,305.00 162.54,305.00 163.17,305.00 163.81,305.00 164.44,305.00 165.08,305.00 165.71,305.00 166.34,305.00 166.97,305.00 167.60,305.00 168.24,305.00 168.88,305.00 169.52,305.00 170.15,305.00 170.79,305.00 171.43,305.00 172.06,305.00 172.69,305.00 173.33,305.00 173.97,305.00 174.62,305.00 175.25,305.00 175.88,305.00 176.51,305.00 177.14,305.00 177.78,305.00 178.41,305.00 179.04,305.00 179.67,305.00 180.30,305.00 180.94,305.00 181.58,305.00 182.22,305.00 182.85,305.00 183.50,305.00 184.13,305.00 184.76,305.00 185.40,305.00 186.02,305.00 186.71,305.00 187.36,305.00 187.99,305.00 188.62,305.00 189.25,305.00 189.89,305.00 190.52,305.00 191.16,305.00 191.79,305.00 192.43,305.00 193.06,305.00 193.69,305.00 194.34,305.00 194.97,305.00 195.60,305.00 196.24,305.00 196.88,305.00 197.52,305.00 198.17,305.00 198.80,305.00 199.44,305.00 200.07,305.00 200.70,305.00 201.34,305.00 201.98,305.00 202.62,305.00 203.25,305.00 203.88,305.00 204.52,305.00 205.16,305.00 205.79,305.00 206.43,305.00 207.07,305.00 207.70,305.00 208.34,305.00 208.96,305.00 209.59,305.00 210.23,305.00 210.86,305.00 211.50,305.00 212.13,305.00 212.76,305.00 213.39,305.00 214.03,305.00 214.66,305.00 215.30,305.00 215.94,305.00 216.58,305.00 217.22,305.00 217.85,305.00 218.49,305.00 219.12,305.00 219.76,305.00 220.39,305.00 221.04,305.00 221.67,305.00 222.31,305.00 222.95,305.00 223.58,305.00 224.22,305.00 224.84,305.00 225.48,305.00 226.12,305.00 226.75,305.00 227.39,305.00 228.02,305.00 228.66,305.00 229.29,305.00 229.93,305.00 230.57,305.00 231.21,305.00 231.84,305.00 232.47,305.00 233.11,305.00 233.75,305.00 234.39,305.00 235.02,305.00 235.66,305.00 236.36,305.00 237.00,305.00 237.64,305.00 238.27,305.00 238.91,305.00 239.55,305.00 240.18,305.00 240.82,305.00 241.45,305.00 242.11,80.90 242.75,72.80 243.38,305.00 244.01,305.00 244.65,305.00 245.28,305.00 245.92,305.00 246.58,305.00 247.21,305.00 247.84,305.00 248.49,305.00 249.17,305.00 249.81,305.00 250.61,305.00 251.68,305.00 252.33,305.00 252.98,305.00 253.61,305.00 254.23,305.00 254.86,305.00 255.51,305.00 256.14,305.00 256.78,305.00 257.44,305.00 258.10,305.00 258.77,305.00 259.41,305.00 260.05,305.00 260.68,305.00 261.32,305.00 261.97,305.00 262.61,305.00 263.24,305.00 263.87,305.00 264.53,305.00 265.17,305.00 265.80,305.00 266.44,305.00 267.08,305.00 267.74,305.00 268.38,305.00 269.02,305.00 269.67,305.00 270.28,305.00 270.91,305.00 271.56,305.00 272.19,305.00 272.83,305.00 273.49,305.00 274.12,305.00 274.76,305.00 275.40,305.00 276.04,305.00 276.68,305.00 277.31,305.00 277.94,305.00 278.58,305.00 279.21,305.00 279.84,305.00 280.60,305.00 281.35,305.00 282.10,305.00 282.84,305.00 283.56,305.00 284.29,305.00 285.05,305.00 285.79,305.00 286.42,305.00 287.05,305.00 287.68,305.00 288.32,305.00 288.95,305.00 289.58,305.00 290.21,305.00 290.84,305.00 291.48,305.00 292.11,305.00 292.74,305.00 293.38,305.00 294.01,305.00 294.64,305.00 295.27,305.00 295.90,305.00 296.54,305.00 297.17,305.00 297.80,305.00 298.44,305.00 299.07,305.00 299.70,305.00 300.33,305.00 300.96,305.00 301.60,305.00 302.23,305.00 302.86,305.00 303.50,305.00 304.14,305.00 304.77,305.00 305.40,305.00 306.03,305.00 306.66,305.00 307.30,305.00 307.92,305.00 308.55,305.00 309.18,305.00 309.81,305.00 310.44,305.00 311.07,305.00 311.70,305.00 312.34,305.00 312.96,305.00 313.59,305.00 314.21,305.00 314.87,305.00 315.55,305.00 316.19,305.00 316.82,305.00 317.46,305.00 318.09,305.00 318.71,305.00 319.34,305.00 319.97,305.00 320.72,305.00 321.47,305.00 322.20,305.00 322.95,305.00 323.70,305.00 324.43,305.00 325.19,305.00 325.96,305.00 326.65,305.00 327.33,305.00 327.97,305.00 328.61,305.00 329.24,305.00 329.87,305.00 330.50,305.00 331.14,305.00 331.77,305.00 332.40,305.00 333.03,305.00 333.67,305.00 334.30,305.00 334.93,305.00 335.58,305.00 336.21,305.00 336.84,305.00 337.39,305.00 338.05,305.00 338.68,305.00 339.33,305.00 339.96,305.00 340.60,305.00 341.23,305.00 341.87,305.00 342.51,305.00 343.15,305.00 343.79,305.00 344.44,305.00 345.07,305.00 345.69,305.00 346.33,305.00 346.96,305.00 347.59,305.00 348.22,305.00 348.86,305.00 349.49,305.00 350.12,305.00 350.76,305.00 351.39,305.00 352.03,305.00 352.66,305.00 353.30,305.00 353.94,305.00 354.57,305.00 355.20,305.00 355.84,305.00 356.48,305.00 357.13,305.00 357.76,305.00 358.39,305.00 359.02,305.00 359.65,305.00 360.28,305.00 360.92,305.00 361.55,305.00 362.18,305.00 362.82,305.00 363.45,305.00 364.08,305.00 364.72,305.00 365.36,305.00 365.99,305.00 366.76,305.00 367.41,305.00 368.06,305.00 368.70,305.00 369.33,305.00 369.97,305.00 370.60,305.00 371.23,305.00 371.87,305.00 372.51,305.00 373.14,305.00 373.78,305.00 374.42,305.00 375.05,305.00 375.71,305.00 376.35,305.00 376.99,305.00 377.62,305.00 378.26,305.00 378.89,305.00 379.52,305.00 380.16,305.00 380.82,305.00 381.46,305.00 382.10,305.00 382.73,305.00 383.36,305.00 384.00,305.00 384.63,305.00 385.27,305.00 385.91,305.00 386.54,305.00 387.18,305.00 387.82,305.00 388.45,305.00 389.08,305.00 389.72,305.00 390.36,305.00 391.00,305.00 391.63,305.00 392.26,305.00 392.90,305.00 393.54,305.00 394.18,305.00 394.94,305.00 395.59,305.00 396.23,305.00 396.86,305.00 397.49,305.00 398.13,305.00 398.77,305.00 399.40,305.00 400.05,305.00 400.68,305.00 401.32,305.00 401.95,305.00 402.58,305.00 403.22,305.00 403.85,305.00 404.49,305.00 405.12,305.00 405.75,305.00 406.38,305.00 407.02,305.00 407.66,305.00 408.29,305.00 408.92,305.00 409.57,305.00 410.21,305.00 410.84,305.00 411.47,305.00 412.11,305.00 412.76,305.00 413.39,305.00 414.03,305.00 414.67,305.00 415.30,305.00 415.93,305.00 416.57,305.00 417.21,305.00 417.86,305.00 418.49,305.00 419.13,305.00 419.75,305.00 420.39,305.00 421.02,305.00 421.66,305.00 422.29,305.00 422.93,305.00 423.57,305.00 424.21,305.00 424.83,305.00 425.48,305.00 426.11,305.00 426.74,305.00 427.38,305.00 428.01,305.00 428.64,305.00 429.29,305.00 429.92,305.00 430.56,305.00 431.20,305.00 431.84,305.00 432.47,305.00 433.11,305.00 433.75,305.00 434.46,305.00 435.16,305.00 435.84,305.00 436.48,305.00 437.15,305.00 437.78,305.00 438.42,305.00 439.05,305.00 439.64,305.00 440.30,305.00 440.94,305.00 441.58,305.00 442.21,305.00 442.84,305.00 443.48,305.00 444.12,305.00 444.75,305.00 445.39,305.00 446.02,305.00 446.66,305.00 447.29,305.00 447.93,305.00 448.57,305.00 449.21,305.00 449.85,305.00 450.49,305.00 451.12,305.00 451.77,305.00 452.41,305.00 453.04,305.00 453.67,305.00 454.31,305.00 454.94,305.00 455.58,305.00 456.21,305.00 456.85,305.00 457.49,305.00 458.12,305.00 458.76,305.00 459.39,305.00 460.03,305.00 460.67,305.00 461.31,305.00 461.94,305.00 462.58,305.00 463.21,305.00 463.85,305.00 464.49,305.00 465.13,305.00 465.77,305.00 466.41,305.00 467.05,305.00 467.68,305.00 468.32,305.00 468.98,305.00 469.61,305.00 470.25,305.00 470.89,305.00 471.52,305.00 472.16,305.00 472.80,305.00 473.43,305.00 474.07,305.00 474.71,305.00 475.35,305.00 475.99,305.00 476.62,305.00 477.26,305.00 477.90,305.00 478.54,305.00 479.18,305.00 479.82,305.00 480.47,305.00 481.10,305.00 481.73,305.00 482.37,305.00 483.01,305.00 483.66,305.00 484.30,305.00 484.94,305.00 485.58,305.00 486.21,305.00 486.85,305.00 487.48,305.00 488.12,305.00 488.76,305.00 489.40,305.00 490.03,305.00 490.67,305.00 491.30,305.00 491.95,305.00 492.58,305.00 493.22,305.00 493.86,305.00 494.50,305.00 495.14,305.00 495.77,305.00 496.41,305.00 497.04,305.00 497.67,305.00 498.31,305.00 498.95,305.00 499.59,305.00 500.23,305.00 500.87,305.00 501.50,305.00 502.14,305.00 502.79,305.00 503.42,305.00 504.06,305.00 504.71,305.00 505.34,305.00 505.98,305.00 506.62,305.00 507.26,305.00 507.90,305.00 508.54,305.00 509.19,305.00 509.83,305.00 510.47,305.00 511.11,305.00 511.74,305.00 512.38,305.00 513.02,305.00 513.67,305.00 514.31,305.00 514.94,305.00 515.58,305.00 516.21,305.00 516.86,305.00 517.50,305.00 518.14,305.00 518.78,305.00 519.41,305.00 520.04,305.00 520.68,305.00 521.31,305.00 521.95,305.00 522.59,305.00 523.23,305.00 523.86,305.00 524.50,305.00 525.14,305.00 525.79,305.00 526.43,305.00 527.06,305.00 527.70,305.00 528.33,305.00 528.97,305.00 529.61,305.00 530.25,305.00 530.89,305.00 531.52,305.00 532.16,305.00 532.80,305.00 533.44,305.00 534.08,305.00 534.72,305.00 535.38,305.00 536.02,305.00 536.66,305.00 537.30,305.00 537.94,305.00 538.58,305.00 539.21,305.00 539.85,305.00 540.48,305.00 541.12,305.00 541.76,305.00 542.40,305.00 543.04,305.00 543.69,305.00 544.35,305.00 544.99,305.00 545.62,305.00 546.26,305.00 546.90,305.00 547.54,305.00 548.18,305.00 548.83,305.00 549.47,305.00 550.11,305.00 550.75,305.00 551.39,305.00 552.03,305.00 552.67,305.00 553.31,305.00 553.94,305.00 554.58,305.00 555.22,305.00 555.87,305.00 556.50,305.00 557.14,305.00 557.78,305.00 558.42,305.00 559.06,305.00 559.70,305.00 560.34,305.00 561.00,305.00 561.64,305.00 562.28,305.00 562.92,305.00 563.57,305.00 564.23,305.00 564.88,305.00 565.53,305.00 566.18,305.00 566.83,305.00 567.46,305.00 568.10,305.00 568.74,305.00 569.38,305.00 570.02,305.00 570.68,305.00 571.31,305.00 571.95,305.00 572.59,305.00 573.23,305.00 573.86,305.00 574.51,305.00 575.14,305.00 575.78,305.00 576.41,305.00 577.05,305.00 577.69,305.00 578.31,305.00 578.95,305.00 579.59,305.00 580.24,305.00 580.87,305.00 581.51,305.00 582.16,305.00 582.79,305.00 583.43,305.00 584.07,305.00 584.71,305.00 585.34,305.00 585.98,305.00 586.62,305.00 587.26,305.00 587.89,305.00 588.52,305.00 589.16,305.00 589.79,305.00 590.43,305.00 591.07,305.00 591.71,305.00 592.35,305.00 592.98,305.00 593.62,305.00 594.26,305.00 594.90,305.00 595.52,305.00 596.16,305.00 596.78,305.00 597.42,305.00 598.06,305.00 598.71,305.00 599.34,305.00 599.98,305.00 600.62,305.00 601.27,305.00 601.91,305.00 602.54,305.00 603.19,305.00 603.83,305.00 604.46,305.00 605.11,305.00 605.74,305.00 606.39,305.00 607.03,305.00 607.67,305.00 608.30,305.00 608.94,305.00 609.57,305.00 610.21,305.00 610.85,305.00 611.47,305.00 612.11,305.00 612.75,305.00 613.39,305.00 614.03,305.00 614.66,305.00 615.30,305.00 615.94,305.00 616.58,305.00 617.22,305.00 617.86,305.00 618.49,305.00 619.13,305.00 619.78,305.00 620.41,305.00 621.04,305.00 621.69,305.00 622.32,305.00 622.96,305.00 623.60,305.00 624.24,305.00 624.88,305.00 625.51,305.00 626.14,305.00 626.80,305.00 627.44,305.00 628.09,305.00 628.74,305.00 629.38,305.00 630.02,305.00 630.65,305.00 631.30,305.00 631.94,305.00 632.57,305.00 633.21,305.00 633.86,305.00 634.51,305.00 635.14,305.00 635.78,305.00 636.42,305.00 637.06,305.00 637.70,305.00 638.33,305.00 638.97,305.00 639.61,305.00 640.24,305.00 640.88,305.00 641.51,305.00 642.16,305.00 642.79,305.00 643.42,305.00 644.06,305.00 644.70,305.00 645.33,305.00 645.98,305.00 646.62,305.00 647.25,305.00 647.89,305.00 648.53,305.00 649.16,305.00 649.80,305.00 650.44,305.00 651.09,305.00 651.72,305.00 652.35,305.00 652.99,305.00 653.63,305.00 654.27,305.00 654.90,305.00 655.55,305.00 656.20,305.00 656.85,305.00 657.50,305.00 658.15,305.00 658.80,305.00 659.46,305.00 660.10,305.00 660.77,305.00 661.42,305.00 662.07,305.00 662.71,305.00 663.34,305.00 663.98,305.00 664.63,305.00 665.27,305.00 665.91,305.00 666.55,305.00 667.19,305.00 667.83,305.00 668.47,305.00 669.10,305.00 669.73,305.00 670.37,305.00 671.01,305.00 671.64,305.00 672.29,305.00 672.92,305.00 673.56,305.00 674.21,305.00 674.85,305.00 675.49,305.00 676.12,305.00 676.76,305.00 677.40,305.00 678.04,305.00 678.68,305.00 679.31,305.00 679.95,305.00 680.59,305.00 681.23,305.00 681.86,305.00 682.51,305.00 683.14,305.00 683.78,305.00 684.46,305.00 685.12,305.00 685.76,305.00 686.40,305.00 687.03,305.00 687.68,305.00 688.32,305.00 688.97,305.00 689.61,305.00 690.24,305.00 690.86,305.00 691.50,305.00 692.14,305.00 692.78,305.00 693.42,305.00 694.05,305.00 694.69,305.00 695.34,305.00 695.98,305.00 696.61,305.00 697.25,305.00 697.88,305.00 698.53,305.00 699.16,305.00 699.80,305.00 700.44,305.00 701.08,305.00 701.72,305.00 702.36,305.00 703.02,305.00 703.66,305.00 704.30,305.00 704.94,305.00 705.58,305.00 706.21,305.00 706.86,305.00 707.50,305.00 708.13,305.00 708.77,305.00 709.41,305.00 710.06,305.00 710.70,305.00 711.35,305.00 711.98,305.00 712.62,305.00 713.26,305.00 713.89,305.00 714.54,305.00 715.17,305.00 715.82,305.00 716.45,305.00 717.09,305.00 717.73,305.00 718.36,305.00 719.01,305.00 719.64,305.00 720.28,305.00 720.92,305.00 721.55,305.00 722.20,305.00 722.83,305.00 723.47,305.00 724.10,305.00 724.75,305.00 725.39,305.00 726.02,305.00 726.66,305.00 727.29,305.00 727.92,305.00 728.56,305.00 729.21,305.00 729.84,305.00 730.50,305.00 731.14,305.00 731.77,305.00 732.42,305.00 733.05,305.00 733.70,305.00 734.39,305.00 735.04,305.00 735.68,305.00 736.33,305.00 736.97,305.00 737.61,305.00 738.24,305.00 738.89,305.00 739.52,305.00 740.16,305.00 740.81,305.00 741.44,305.00 742.08,305.00 742.73,305.00 743.38,305.00 744.02,305.00 744.65,305.00 745.29,305.00 745.93,305.00 746.57,305.00 747.21,305.00 747.85,305.00 748.49,305.00 749.13,305.00 749.77,305.00 750.41,305.00 751.05,305.00 751.69,305.00 752.34,305.00 752.98,305.00 753.62,305.00 754.25,305.00 754.90,305.00 755.54,305.00 756.17,305.00 756.81,305.00 757.45,305.00 758.08,305.00 758.72,305.00 759.37,305.00 760.00,305.00 760.64,305.00 761.28,305.00 761.92,305.00 762.56,305.00 763.20,305.00 763.84,305.00 764.48,305.00 765.13,305.00 765.75,305.00 766.37,305.00 767.01,305.00 767.65,305.00 768.29,305.00 768.93,305.00 769.58,305.00 770.21,305.00 770.86,305.00 771.50,305.00 772.14,305.00 772.78,305.00 773.41,305.00 774.05,305.00 774.68,305.00 775.31,305.00 775.95,305.00 776.59,305.00 777.23,305.00 777.86,305.00 778.50,305.00 779.14,305.00 779.78,305.00 780.42,305.00 781.05,305.00 781.68,305.00 782.30,305.00 782.95,305.00 783.59,305.00 784.23,305.00 784.87,305.00 785.52,305.00 786.15,305.00 786.79,305.00 787.43,305.00 788.07,305.00 788.71,305.00 789.34,305.00 790.03,305.00 790.67,305.00 791.31,305.00 791.95,305.00 792.60,305.00 793.23,305.00 793.87,305.00 794.51,305.00 795.15,305.00 795.78,305.00 796.42,305.00 797.06,305.00 797.70,305.00 798.35,305.00 798.98,305.00 799.62,305.00 800.26,305.00 800.90,305.00 801.54,305.00 802.18,305.00 802.82,305.00 803.47,305.00 804.12,305.00 804.76,305.00 805.40,305.00 806.04,305.00 806.68,305.00 807.32,305.00 807.96,305.00 808.60,305.00 809.23,305.00 809.87,305.00 810.51,305.00 811.15,305.00 811.79,305.00 812.43,305.00 813.07,305.00 813.71,305.00 814.34,305.00 814.98,305.00 815.62,305.00 816.26,305.00 816.89,305.00 817.53,305.00 818.17,305.00 818.80,305.00 819.43,305.00 820.07,305.00 820.71,305.00 821.34,305.00 821.97,305.00 822.61,305.00 823.25,305.00 823.88,305.00 824.52,305.00 825.15,305.00 825.79,305.00 826.43,305.00 827.06,305.00 827.69,305.00 828.33,305.00 828.98,305.00 829.61,305.00 830.25,305.00 830.89,305.00 831.55,305.00 832.18,305.00 832.83,305.00 833.47,305.00 834.11,305.00 834.75,305.00 835.39,305.00 836.03,305.00 836.67,305.00 837.31,305.00 837.94,305.00 838.57,305.00 839.21,305.00 839.85,305.00 840.49,305.00 841.12,305.00 841.76,305.00 842.40,305.00 843.03,305.00 843.67,305.00 844.32,305.00 844.98,305.00 845.62,305.00 846.25,305.00 846.88,305.00 847.51,305.00 848.16,305.00 848.80,305.00 849.44,305.00 850.08,305.00 850.71,305.00 851.35,305.00 851.99,305.00 852.63,305.00 853.27,305.00 853.91,305.00 854.55,305.00 855.19,305.00 855.82,305.00 856.46,305.00 857.09,305.00 857.72,305.00 858.36,305.00 859.00,305.00 859.63,305.00 860.27,305.00 860.91,305.00 861.55,305.00 862.19,305.00 862.83,305.00 863.46,305.00 864.10,305.00 864.74,305.00 865.37,305.00 866.02,305.00 866.65,305.00 867.29,305.00 867.93,305.00 868.56,305.00 869.19,305.00 869.83,305.00 870.47,305.00 871.10,305.00 871.76,305.00 872.40,305.00 873.03,305.00 873.67,305.00 874.31,305.00 874.95,305.00 875.60,305.00 876.92,305.00 877.56,305.00 878.25,305.00 878.88,305.00 879.51,305.00 880.15,305.00 880.79,305.00 881.42,305.00 882.06,305.00 882.70,305.00 883.34,305.00 883.97,305.00 884.61,305.00 885.25,305.00 885.88,305.00 886.52,305.00 887.16,305.00 887.79,305.00 888.43,305.00 889.06,305.00 889.70,305.00 890.34,305.00 890.99,305.00 891.62,305.00 892.25,305.00 892.89,305.00 893.52,305.00 894.17,305.00 894.81,305.00 895.44,305.00 896.08,305.00 896.72,305.00 897.35,305.00 897.99,305.00 898.63,305.00 899.26,305.00 899.90,305.00 900.53,305.00 901.16,305.00 901.79,305.00 902.43,305.00 903.07,305.00 903.71,305.00 904.35,305.00 905.01,305.00 905.65,305.00 906.29,305.00 906.92,305.00 907.56,305.00 908.18,305.00 908.82,305.00 909.46,305.00 910.09,305.00 910.73,305.00 911.36,305.00 911.99,305.00 912.63,305.00 913.26,305.00 913.90,305.00 914.53,305.00 915.17,305.00 915.82,305.00 916.44,305.00 917.08,305.00 917.73,305.00 918.36,305.00 919.00,305.00 919.64,305.00 920.27,305.00 920.91,305.00 921.55,305.00 922.19,305.00 922.84,305.00 923.47,305.00 924.10,305.00 924.74,305.00 925.38,305.00 926.01,305.00 926.67,305.00 927.31,305.00 927.95,305.00 928.60,305.00 929.23,305.00 929.87,305.00 930.50,305.00 931.14,305.00 931.79,305.00 932.42,305.00 933.05,305.00 933.69,305.00 934.34,305.00 934.98,305.00 935.62,305.00 936.27,305.00 936.92,305.00 937.60,305.00 938.24,305.00 938.88,305.00 939.51,305.00 940.14,305.00 940.79,305.00 941.42,305.00 942.06,305.00 942.70,305.00 943.34,305.00 943.98,305.00 944.62,305.00 945.25,305.00 945.89,305.00 946.53,305.00 947.17,305.00 947.82,305.00 948.47,305.00 949.11,305.00 949.76,305.00 950.43,305.00 951.07,305.00 951.74,305.00 952.38,305.00 953.02,305.00 953.66,305.00 954.30,305.00 954.94,305.00 955.58,305.00 956.21,305.00 956.85,305.00 957.48,305.00 958.12,305.00 958.77,305.00 959.41,305.00 960.05,305.00 960.70,305.00 961.45,305.00 962.08,305.00 962.72,305.00 963.35,305.00 963.98,305.00 964.62,305.00 965.25,305.00 965.84,305.00 966.41,305.00 967.10,305.00 967.70,305.00 968.28,305.00 968.93,305.00 969.48,305.00 970.12,305.00 970.76,305.00 971.39,305.00 972.03,305.00 972.66,305.00 973.30,305.00 973.93,305.00 974.56,305.00 975.21,305.00 975.84,305.00 976.47,305.00 977.11,305.00 977.75,305.00 978.38,305.00 979.02,305.00 979.65,305.00 980.28,305.00 980.91,305.00 981.54,305.00 982.18,305.00 982.81,305.00 983.45,305.00 984.10,305.00 984.73,305.00 985.36,305.00 985.99,305.00 986.63,305.00 987.26,305.00 987.89,305.00 988.52,305.00 989.16,305.00 989.79,305.00 990.43,305.00 991.06,305.00 991.70,305.00 992.33,305.00 992.97,305.00 993.61,305.00 994.24,305.00 994.87,305.00 995.51,305.00 996.15,305.00 996.78,305.00 997.41,305.00 998.04,305.00 998.67,305.00 999.31,305.00 999.94,305.00 1000.57,305.00 1001.20,305.00 1001.85,305.00 1002.49,305.00 1003.13,305.00 1003.76,305.00 1004.40,305.00 1005.04,305.00 1005.67,305.00 1006.31,305.00 1006.95,305.00 1007.58,305.00 1008.22,305.00 1008.85,305.00 1009.48,305.00 1010.12,305.00 1010.76,305.00 1011.39,305.00 1012.03,305.00 1012.66,305.00 1013.29,305.00 1013.93,305.00 1014.57,305.00 1015.20,305.00 1015.84,305.00 1016.47,305.00 1017.11,305.00 1017.75,305.00 1018.38,305.00 1019.08,305.00 1019.71,305.00 1020.35,305.00 1020.98,305.00 1021.62,305.00 1022.25,305.00 1022.88,305.00 1023.53,305.00 1024.42,305.00 1025.05,305.00 1025.94,305.00 1026.57,305.00 1027.21,305.00 1027.85,305.00 1028.48,305.00 1029.12,305.00 1029.75,305.00 1030.38,305.00 1031.01,305.00 1031.65,305.00 1032.28,305.00 1032.91,305.00 1033.54,305.00 1034.19,305.00 1034.83,305.00 1035.47,305.00 1036.10,305.00 1036.74,305.00 1037.37,305.00 1038.02,305.00 1038.65,305.00 1039.29,305.00 1039.92,305.00 1040.56,305.00 1041.19,305.00 1041.83,305.00 1042.47,305.00 1043.11,305.00 1043.74,305.00 1044.38,305.00 1045.02,305.00 1045.67,305.00 1046.33,305.00 1046.97,305.00 1047.63,305.00 1048.27,305.00 1048.90,305.00 1049.54,305.00 1050.18,305.00 1050.82,305.00 1051.45,305.00 1052.09,305.00 1052.72,305.00 1053.37,305.00 1054.01,305.00 1054.65,305.00 1055.29,305.00 1055.93,305.00 1056.57,305.00 1057.20,305.00 1057.84,305.00 1058.48,305.00 1059.12,305.00 1059.76,305.00 1060.40,305.00 1061.04,305.00 1061.69,305.00 1062.33,305.00 1062.96,305.00 1063.60,305.00 1064.24,305.00 1064.87,305.00 1065.52,305.00 1066.17,305.00 1066.81,305.00 1067.44,305.00 1068.08,305.00 1068.72,305.00 1069.36,305.00 1070.00,305.00 1070.63,305.00 1071.27,305.00 1071.90,305.00 1072.54,305.00 1073.17,305.00 1073.81,305.00 1074.47,305.00 1075.11,305.00 1075.75,305.00 1076.39,305.00 1077.02,305.00 1077.66,305.00 1078.29,305.00 1078.93,305.00 1079.57,305.00 1080.20,305.00 1080.84,305.00 1081.48,305.00 1082.12,305.00 1082.77,305.00 1083.40,305.00 1084.04,305.00 1084.67,305.00 1085.31,305.00 1085.95,305.00 1086.60,305.00 1087.24,305.00 1087.87,305.00 1088.51,305.00 1089.16,305.00 1089.79,305.00 1090.43,305.00 1091.08,305.00 1091.71,305.00 1092.36,305.00 1093.00,305.00 1093.64,305.00 1094.27,305.00 1094.90,305.00 1095.54,305.00 1096.19,305.00 1096.83,305.00 1097.48,305.00 1098.13,305.00 1098.77,305.00 1099.41,305.00 1100.05,305.00 1100.69,305.00 1101.32,305.00 1101.96,305.00 1102.60,305.00 1103.25,305.00 1103.88,305.00 1104.52,305.00 1105.16,305.00 1105.80,305.00 1106.44,305.00 1107.08,305.00 1107.71,305.00 1108.36,305.00 1109.01,305.00 1109.66,305.00 1110.29,305.00 1110.94,305.00 1111.57,305.00 1112.21,305.00 1112.85,305.00 1113.49,305.00 1114.15,305.00 1114.79,305.00 1115.42,305.00 1116.07,305.00 1116.71,305.00 1117.34,305.00 1118.00,305.00 1118.64,305.00 1119.30,305.00 1119.93,305.00 1120.58,305.00 1121.22,305.00 1121.90,305.00 1122.53,305.00 1123.18,305.00 1123.82,305.00 1124.46,305.00 1125.09,305.00 1125.73,305.00 1126.37,305.00 1127.02,305.00 1127.65,305.00 1128.31,305.00 1128.95,305.00 1129.59,305.00 1130.23,305.00 1130.87,305.00 1131.51,305.00 1132.16,305.00 1132.80,305.00 1133.44,305.00 1134.08,305.00 1134.72,305.00 1135.35,305.00 1136.01,305.00 1136.65,305.00 1137.28,305.00 1137.91,305.00 1138.54,305.00 1139.18,305.00 1139.82,305.00 1140.45,305.00 1141.11,305.00 1141.75,305.00 1142.38,305.00 1143.02,305.00 1143.66,305.00 1144.29,305.00 1144.93,305.00 1145.57,305.00 1146.21,305.00 1146.85,305.00 1147.48,305.00 1148.11,305.00 1148.76,305.00 1149.39,305.00 1150.05,305.00 1150.69,305.00 1151.34,305.00 1151.97,305.00 1152.61,305.00 1153.24,305.00 1153.87,305.00 1154.51,305.00 1155.15,305.00 1155.82,305.00 1156.46,305.00 1157.10,305.00 1157.73,305.00 1158.37,305.00 1159.00,305.00 1159.63,305.00 1160.26,305.00 1160.91,305.00 1161.55,305.00 1162.18,305.00 1162.81,305.00 1163.44,305.00 1164.08,305.00 1164.72,305.00 1165.35,305.00 1165.99,305.00 1166.63,305.00 1167.26,305.00 1167.91,305.00 1168.56,305.00 1169.19,305.00 1169.83,305.00 1170.46,305.00 1171.10,305.00 1171.75,305.00 1172.38,305.00 1173.01,305.00 1173.65,305.00 1174.28,305.00 1174.92,305.00 1175.56,305.00 1176.20,305.00 1176.83,305.00 1177.46,305.00 1178.10,305.00 1178.74,305.00 1179.37,305.00 1180.00,305.00"/>
<polyline fill="none" stroke="#9467bd" stroke-opacity="0.80" stroke-width="2" points="70.00,305.00 70.64,305.00 71.27,305.00 71.91,305.00 72.54,305.00 73.18,305.00 73.81,305.00 74.45,305.00 75.14,305.00 75.77,305.00 76.40,305.00 77.03,305.00 77.68,305.00 78.31,305.00 78.94,305.00 80.08,305.00 81.07,305.00 81.71,305.00 82.36,305.00 82.99,305.00 83.63,305.00 84.25,305.00 84.89,305.00 85.52,305.00 86.16,305.00 86.80,305.00 87.45,305.00 88.08,305.00 88.72,305.00 89.39,305.00 90.03,305.00 90.66,305.00 91.31,305.00 91.95,305.00 92.58,305.00 93.24,305.00 93.87,305.00 94.50,305.00 95.15,305.00 95.78,305.00 96.41,305.00 97.04,305.00 97.67,305.00 98.31,305.00 98.94,305.00 99.59,305.00 100.23,305.00 100.86,305.00 101.49,305.00 102.13,305.00 102.77,305.00 103.49,305.00 104.13,305.00 104.76,305.00 105.39,305.00 106.02,305.00 106.65,305.00 107.28,305.00 107.92,305.00 108.55,305.00 109.20,305.00 109.84,305.00 110.46,305.00 111.10,305.00 111.74,305.00 112.38,305.00 113.02,305.00 113.64,305.00 114.27,305.00 114.90,305.00 115.53,305.00 116.17,305.00 116.80,305.00 117.43,305.00 118.07,305.00 118.70,305.00 119.33,305.00 119.97,305.00 120.60,305.00 121.23,305.00 121.88,305.00 122.51,305.00 123.15,305.00 123.79,305.00 124.42,305.00 125.05,305.00 125.69,305.00 126.32,305.00 126.94,305.00 127.58,305.00 128.22,305.00 128.86,305.00 129.50,305.00 130.12,305.00 130.76,305.00 131.39,305.00 132.02,305.00 132.65,305.00 133.29,305.00 133.92,305.00 134.56,305.00 135.19,305.00 135.83,305.00 136.46,305.00 137.11,305.00 137.74,305.00 138.38,305.00 139.01,305.00 139.64,305.00 140.27,305.00 140.91,305.00 141.55,305.00 142.18,305.00 142.82,305.00 143.45,305.00 144.09,305.00 144.73,305.00 145.38,305.00 146.01,305.00 146.64,305.00 147.28,305.00 147.91,305.00 148.54,305.00 149.18,305.00 149.87,305.00 150.50,305.00 151.15,305.00 151.78,305.00 152.41,305.00 153.04,305.00 153.66,305.00 154.29,305.00 154.93,305.00 155.56,305.00 156.19,305.00 156.83,305.00 157.46,305.00 158.09,305.00 158.74,305.00 159.37,305.00 160.00,305.00 160.63,305.00 161.27,305.00 161.90,305.00 162.54,305.00 163.17,305.00 163.81,305.00 164.44,305.00 165.08,305.00 165.71,305.00 166.34,305.00 166.97,305.00 167.60,305.00 168.24,305.00 168.88,305.00 169.52,305.00 170.15,305.00 170.79,305.00 171.43,305.00 172.06,305.00 172.69,305.00 173.33,305.00 173.97,305.00 174.62,305.00 175.25,305.00 175.88,305.00 176.51,305.00 177.14,305.00 177.78,305.00 178.41,305.00 179.04,305.00 179.67,305.00 180.30,305.00 180.94,305.00 181.58,305.00 182.22,305.00 182.85,305.00 183.50,305.00 184.13,305.00 184.76,305.00 185.40,305.00 186.02,305.00 186.71,305.00 187.36,305.00 187.99,305.00 188.62,305.00 189.25,305.00 189.89,305.00 190.52,305.00 191.16,305.00 191.79,305.00 192.43,305.00 193.06,305.00 193.69,305.00 194.34,305.00 194.97,305.00 195.60,305.00 196.24,305.00 196.88,305.00 197.52,305.00 198.17,305.00 198.80,305.00 199.44,305.00 200.07,305.00 200.70,305.00 201.34,305.00 201.98,305.00 202.62,305.00 203.25,305.00 203.88,305.00 204.52,305.00 205.16,305.00 205.79,305.00 206.43,305.00 207.07,305.00 207.70,305.00 208.34,305.00 208.96,305.00 209.59,305.00 210.23,305.00 210.86,305.00 211.50,305.00 212.13,305.00 212.76,305.00 213.39,305.00 214.03,305.00 214.66,305.00 215.30,305.00 215.94,305.00 216.58,305.00 217.22,305.00 217.85,305.00 218.49,305.00 219.12,305.00 219.76,305.00 220.39,305.00 221.04,305.00 221.67,305.00 222.31,305.00 222.95,305.00 223.58,305.00 224.22,305.00 224.84,305.00 225.48,305.00 226.12,305.00 226.75,305.00 227.39,305.00 228.02,305.00 228.66,305.00 229.29,305.00 229.93,305.00 230.57,305.00 231.21,305.00 231.84,305.00 232.47,305.00 233.11,305.00 233.75,305.00 234.39,305.00 235.02,305.00 235.66,305.00 236.36,305.00 237.00,305.00 237.64,305.00 238.27,305.00 238.91,305.00 239.55,305.00 240.18,305.00 240.82,305.00 241.45,305.00 242.11,305.00 242.75,305.00 243.38,305.00 244.01,305.00 244.65,305.00 245.28,305.00 245.92,305.00 246.58,305.00 247.21,305.00 247.84,305.00 248.49,305.00 249.17,305.00 249.81,305.00 250.61,305.00 251.68,305.00 252.33,305.00 252.98,305.00 253.61,305.00 254.23,305.00 254.86,305.00 255.51,305.00 256.14,305.00 256.78,305.00 257.44,305.00 258.10,305.00 258.77,305.00 259.41,305.00 260.05,305.00 260.68,305.00 261.32,305.00 261.97,305.00 262.61,305.00 263.24,305.00 263.87,305.00 264.53,305.00 265.17,305.00 265.80,305.00 266.44,305.00 267.08,305.00 267.74,305.00 268.38,305.00 269.02,305.00 269.67,305.00 270.28,305.00 270.91,305.00 271.56,305.00 272.19,305.00 272.83,305.00 273.49,305.00 274.12,305.00 274.76,305.00 275.40,305.00 276.04,305.00 276.68,305.00 277.31,305.00 277.94,305.00 278.58,305.00 279.21,305.00 279.84,305.00 280.60,305.00 281.35,305.00 282.10,305.00 282.84,305.00 283.56,305.00 284.29,305.00 285.05,305.00 285.79,305.00 286.42,305.00 287.05,305.00 287.68,305.00 288.32,305.00 288.95,305.00 289.58,305.00 290.21,305.00 290.84,305.00 291.48,305.00 292.11,305.00 292.74,305.00 293.38,305.00 294.01,305.00 294.64,305.00 295.27,305.00 295.90,305.00 296.54,305.00 297.17,305.00 297.80,305.00 298.44,305.00 299.07,305.00 299.70,305.00 300.33,305.00 300.96,305.00 301.60,305.00 302.23,305.00 302.86,305.00 303.50,305.00 304.14,305.00 304.77,305.00 305.40,305.00 306.03,305.00 306.66,305.00 307.30,305.00 307.92,305.00 308.55,305.00 309.18,305.00 309.81,305.00 310.44,305.00 311.07,305.00 311.70,305.00 312.34,305.00 312.96,305.00 313.59,305.00 314.21,305.00 314.87,305.00 315.55,305.00 316.19,305.00 316.82,305.00 317.46,305.00 318.09,305.00 318.71,305.00 319.34,305.00 319.97,305.00 320.72,305.00 321.47,305.00 322.20,305.00 322.95,305.00 323.70,305.00 324.43,305.00 325.19,305.00 325.96,305.00 326.65,305.00 327.33,305.00 327.97,305.00 328.61,305.00 329.24,305.00 329.87,305.00 330.50,305.00 331.14,305.00 331.77,305.00 332.40,305.00 333.03,305.00 333.67,305.00 334.30,305.00 334.93,305.00 335.58,305.00 336.21,305.00 336.84,305.00 337.39,305.00 338.05,305.00 338.68,305.00 339.33,305.00 339.96,305.00 340.60,305.00 341.23,305.00 341.87,305.00 342.51,305.00 343.15,305.00 343.79,305.00 344.44,305.00 345.07,305.00 345.69,305.00 346.33,305.00 346.96,305.00 347.59,305.00 348.22,305.00 348.86,305.00 349.49,305.00 350.12,305.00 350.76,305.00 351.39,305.00 352.03,305.00 352.66,305.00 353.30,305.00 353.94,305.00 354.57,305.00 355.20,305.00 355.84,305.00 356.48,305.00 357.13,305.00 357.76,305.00 358.39,305.00 359.02,305.00 359.65,305.00 360.28,305.00 360.92,305.00 361.55,305.00 362.18,305.00 362.82,305.00 363.45,305.00 364.08,305.00 364.72,305.00 365.36,305.00 365.99,305.00 366.76,305.00 367.41,305.00 368.06,305.00 368.70,305.00 369.33,305.00 369.97,305.00 370.60,305.00 371.23,305.00 371.87,305.00 372.51,305.00 373.14,305.00 373.78,305.00 374.42,305.00 375.05,305.00 375.71,305.00 376.35,305.00 376.99,305.00 377.62,305.00 378.26,305.00 378.89,305.00 379.52,305.00 380.16,305.00 380.82,305.00 381.46,305.00 382.10,305.00 382.73,305.00 383.36,305.00 384.00,305.00 384.63,305.00 385.27,305.00 385.91,305.00 386.54,305.00 387.18,305.00 387.82,305.00 388.45,305.00 389.08,305.00 389.72,305.00 390.36,305.00 391.00,305.00 391.63,305.00 392.26,305.00 392.90,305.00 393.54,305.00 394.18,305.00 394.94,305.00 395.59,305.00 396.23,305.00 396.86,305.00 397.49,305.00 398.13,305.00 398.77,305.00 399.40,305.00 400.05,305.00 400.68,305.00 401.32,305.00 401.95,305.00 402.58,305.00 403.22,305.00 403.85,305.00 404.49,305.00 405.12,305.00 405.75,305.00 406.38,305.00 407.02,305.00 407.66,305.00 408.29,305.00 408.92,305.00 409.57,305.00 410.21,305.00 410.84,305.00 411.47,305.00 412.11,305.00 412.76,305.00 413.39,305.00 414.03,305.00 414.67,305.00 415.30,305.00 415.93,305.00 416.57,305.00 417.21,305.00 417.86,305.00 418.49,305.00 419.13,305.00 419.75,305.00 420.39,305.00 421.02,305.00 421.66,305.00 422.29,305.00 422.93,305.00 423.57,305.00 424.21,305.00 424.83,305.00 425.48,305.00 426.11,305.00 426.74,305.00 427.38,305.00 428.01,305.00 428.64,305.00 429.29,305.00 429.92,305.00 430.56,305.00 431.20,305.00 431.84,305.00 432.47,305.00 433.11,305.00 433.75,305.00 434.46,305.00 435.16,305.00 435.84,305.00 436.48,305.00 437.15,305.00 437.78,305.00 438.42,305.00 439.05,305.00 439.64,305.00 440.30,305.00 440.94,305.00 441.58,305.00 442.21,305.00 442.84,305.00 443.48,305.00 444.12,305.00 444.75,305.00 445.39,305.00 446.02,305.00 446.66,305.00 447.29,305.00 447.93,305.00 448.57,305.00 449.21,305.00 449.85,305.00 450.49,305.00 451.12,305.00 451.77,305.00 452.41,305.00 453.04,305.00 453.67,305.00 454.31,305.00 454.94,305.00 455.58,305.00 456.21,305.00 456.85,305.00 457.49,305.00 458.12,305.00 458.76,305.00 459.39,305.00 460.03,305.00 460.67,305.00 461.31,305.00 461.94,305.00 462.58,305.00 463.21,305.00 463.85,305.00 464.49,305.00 465.13,305.00 465.77,305.00 466.41,305.00 467.05,305.00 467.68,305.00 468.32,305.00 468.98,305.00 469.61,305.00 470.25,305.00 470.89,305.00 471.52,305.00 472.16,305.00 472.80,305.00 473.43,305.00 474.07,305.00 474.71,305.00 475.35,305.00 475.99,305.00 476.62,305.00 477.26,305.00 477.90,305.00 478.54,305.00 479.18,305.00 479.82,305.00 480.47,305.00 481.10,305.00 481.73,305.00 482.37,305.00 483.01,305.00 483.66,305.00 484.30,305.00 484.94,305.00 485.58,305.00 486.21,305.00 486.85,305.00 487.48,305.00 488.12,305.00 488.76,305.00 489.40,305.00 490.03,305.00 490.67,305.00 491.30,305.00 491.95,305.00 492.58,305.00 493.22,305.00 493.86,305.00 494.50,305.00 495.14,305.00 495.77,305.00 496.41,305.00 497.04,305.00 497.67,305.00 498.31,305.00 498.95,305.00 499.59,305.00 500.23,305.00 500.87,305.00 501.50,305.00 502.14,305.00 502.79,305.00 503.42,305.00 504.06,305.00 504.71,305.00 505.34,305.00 505.98,305.00 506.62,305.00 507.26,305.00 507.90,305.00 508.54,305.00 509.19,305.00 509.83,305.00 510.47,305.00 511.11,305.00 511.74,305.00 512.38,305.00 513.02,305.00 513.67,305.00 514.31,305.00 514.94,305.00 515.58,305.00 516.21,305.00 516.86,305.00 517.50,305.00 518.14,305.00 518.78,305.00 519.41,305.00 520.04,305.00 520.68,305.00 521.31,305.00 521.95,305.00 522.59,305.00 523.23,305.00 523.86,305.00 524.50,305.00 525.14,305.00 525.79,305.00 526.43,305.00 527.06,305.00 527.70,305.00 528.33,305.00 528.97,305.00 529.61,305.00 530.25,305.00 530.89,305.00 531.52,305.00 532.16,305.00 532.80,305.00 533.44,305.00 534.08,305.00 534.72,305.00 535.38,305.00 536.02,305.00 536.66,305.00 537.30,305.00 537.94,305.00 538.58,305.00 539.21,305.00 539.85,305.00 540.48,305.00 541.12,305.00 541.76,305.00 542.40,305.00 543.04,305.00 543.69,305.00 544.35,305.00 544.99,305.00 545.62,305.00 546.26,305.00 546.90,305.00 547.54,305.00 548.18,305.00 548.83,305.00 549.47,305.00 550.11,305.00 550.75,305.00 551.39,305.00 552.03,305.00 552.67,305.00 553.31,305.00 553.94,305.00 554.58,305.00 555.22,305.00 555.87,305.00 556.50,305.00 557.14,305.00 557.78,305.00 558.42,305.00 559.06,305.00 559.70,305.00 560.34,305.00 561.00,305.00 561.64,305.00 562.28,305.00 562.92,305.00 563.57,305.00 564.23,305.00 564.88,305.00 565.53,305.00 566.18,305.00 566.83,305.00 567.46,305.00 568.10,305.00 568.74,305.00 569.38,305.00 570.02,305.00 570.68,305.00 571.31,305.00 571.95,305.00 572.59,305.00 573.23,305.00 573.86,305.00 574.51,305.00 575.14,305.00 575.78,305.00 576.41,305.00 577.05,305.00 577.69,305.00 578.31,305.00 578.95,305.00 579.59,305.00 580.24,305.00 580.87,305.00 581.51,305.00 582.16,305.00 582.79,305.00 583.43,305.00 584.07,305.00 584.71,305.00 585.34,305.00 585.98,305.00 586.62,305.00 587.26,305.00 587.89,305.00 588.52,305.00 589.16,305.00 589.79,305.00 590.43,305.00 591.07,305.00 591.71,305.00 592.35,305.00 592.98,305.00 593.62,305.00 594.26,305.00 594.90,305.00 595.52,305.00 596.16,305.00 596.78,305.00 597.42,305.00 598.06,305.00 598.71,305.00 599.34,305.00 599.98,305.00 600.62,305.00 601.27,305.00 601.91,305.00 602.54,305.00 603.19,305.00 603.83,305.00 604.46,305.00 605.11,305.00 605.74,305.00 606.39,305.00 607.03,305.00 607.67,305.00 608.30,305.00 608.94,305.00 609.57,305.00 610.21,305.00 610.85,305.00 611.47,305.00 612.11,305.00 612.75,305.00 613.39,305.00 614.03,305.00 614.66,305.00 615.30,305.00 615.94,305.00 616.58,305.00 617.22,305.00 617.86,305.00 618.49,305.00 619.13,305.00 619.78,305.00 620.41,305.00 621.04,305.00 621.69,305.00 622.32,305.00 622.96,305.00 623.60,305.00 624.24,305.00 624.88,305.00 625.51,305.00 626.14,305.00 626.80,305.00 627.44,305.00 628.09,305.00 628.74,305.00 629.38,305.00 630.02,305.00 630.65,305.00 631.30,305.00 631.94,305.00 632.57,305.00 633.21,305.00 633.86,305.00 634.51,305.00 635.14,305.00 635.78,305.00 636.42,305.00 637.06,305.00 637.70,305.00 638.33,305.00 638.97,305.00 639.61,305.00 640.24,305.00 640.88,305.00 641.51,305.00 642.16,305.00 642.79,305.00 643.42,305.00 644.06,305.00 644.70,305.00 645.33,305.00 645.98,305.00 646.62,305.00 647.25,305.00 647.89,305.00 648.53,305.00 649.16,305.00 649.80,305.00 650.44,305.00 651.09,305.00 651.72,305.00 652.35,305.00 652.99,305.00 653.63,305.00 654.27,305.00 654.90,305.00 655.55,305.00 656.20,305.00 656.85,305.00 657.50,305.00 658.15,305.00 658.80,305.00 659.46,305.00 660.10,305.00 660.77,305.00 661.42,305.00 662.07,305.00 662.71,305.00 663.34,305.00 663.98,305.00 664.63,305.00 665.27,305.00 665.91,305.00 666.55,305.00 667.19,305.00 667.83,305.00 668.47,305.00 669.10,305.00 669.73,305.00 670.37,305.00 671.01,305.00 671.64,305.00 672.29,305.00 672.92,305.00 673.56,305.00 674.21,305.00 674.85,305.00 675.49,305.00 676.12,305.00 676.76,305.00 677.40,305.00 678.04,305.00 678.68,305.00 679.31,305.00 679.95,305.00 680.59,305.00 681.23,305.00 681.86,305.00 682.51,305.00 683.14,305.00 683.78,305.00 684.46,305.00 685.12,305.00 685.76,305.00 686.40,305.00 687.03,305.00 687.68,305.00 688.32,305.00 688.97,305.00 689.61,305.00 690.24,305.00 690.86,305.00 691.50,305.00 692.14,305.00 692.78,305.00 693.42,305.00 694.05,305.00 694.69,305.00 695.34,305.00 695.98,305.00 696.61,305.00 697.25,305.00 697.88,305.00 698.53,305.00 699.16,305.00 699.80,305.00 700.44,305.00 701.08,305.00 701.72,305.00 702.36,305.00 703.02,305.00 703.66,305.00 704.30,305.00 704.94,305.00 705.58,305.00 706.21,305.00 706.86,305.00 707.50,305.00 708.13,305.00 708.77,305.00 709.41,305.00 710.06,305.00 710.70,305.00 711.35,305.00 711.98,305.00 712.62,305.00 713.26,305.00 713.89,305.00 714.54,305.00 715.17,305.00 715.82,305.00 716.45,305.00 717.09,305.00 717.73,305.00 718.36,305.00 719.01,305.00 719.64,305.00 720.28,305.00 720.92,305.00 721.55,305.00 722.20,305.00 722.83,305.00 723.47,305.00 724.10,305.00 724.75,305.00 725.39,305.00 726.02,305.00 726.66,305.00 727.29,305.00 727.92,305.00 728.56,305.00 729.21,305.00 729.84,305.00 730.50,305.00 731.14,305.00 731.77,305.00 732.42,305.00 733.05,305.00 733.70,305.00 734.39,305.00 735.04,305.00 735.68,305.00 736.33,305.00 736.97,305.00 737.61,305.00 738.24,305.00 738.89,305.00 739.52,305.00 740.16,305.00 740.81,305.00 741.44,305.00 742.08,305.00 742.73,305.00 743.38,305.00 744.02,305.00 744.65,305.00 745.29,305.00 745.93,305.00 746.57,305.00 747.21,305.00 747.85,305.00 748.49,305.00 749.13,305.00 749.77,305.00 750.41,305.00 751.05,305.00 751.69,305.00 752.34,305.00 752.98,305.00 753.62,305.00 754.25,305.00 754.90,305.00 755.54,305.00 756.17,305.00 756.81,305.00 757.45,305.00 758.08,305.00 758.72,305.00 759.37,305.00 760.00,305.00 760.64,305.00 761.28,305.00 761.92,305.00 762.56,305.00 763.20,305.00 763.84,305.00 764.48,305.00 765.13,305.00 765.75,305.00 766.37,305.00 767.01,305.00 767.65,305.00 768.29,305.00 768.93,305.00 769.58,305.00 770.21,305.00 770.86,305.00 771.50,305.00 772.14,305.00 772.78,305.00 773.41,305.00 774.05,305.00 774.68,305.00 775.31,305.00 775.95,305.00 776.59,305.00 777.23,305.00 777.86,305.00 778.50,305.00 779.14,305.00 779.78,305.00 780.42,305.00 781.05,305.00 781.68,305.00 782.30,305.00 782.95,305.00 783.59,305.00 784.23,305.00 784.87,305.00 785.52,305.00 786.15,305.00 786.79,305.00 787.43,305.00 788.07,305.00 788.71,305.00 789.34,305.00 790.03,305.00 790.67,305.00 791.31,305.00 791.95,305.00 792.60,305.00 793.23,305.00 793.87,305.00 794.51,305.00 795.15,305.00 795.78,305.00 796.42,305.00 797.06,305.00 797.70,305.00 798.35,305.00 798.98,305.00 799.62,305.00 800.26,305.00 800.90,305.00 801.54,305.00 802.18,305.00 802.82,305.00 803.47,305.00 804.12,305.00 804.76,305.00 805.40,305.00 806.04,305.00 806.68,305.00 807.32,305.00 807.96,305.00 808.60,305.00 809.23,305.00 809.87,305.00 810.51,305.00 811.15,305.00 811.79,305.00 812.43,305.00 813.07,305.00 813.71,305.00 814.34,305.00 814.98,305.00 815.62,305.00 816.26,305.00 816.89,305.00 817.53,305.00 818.17,305.00 818.80,305.00 819.43,305.00 820.07,305.00 820.71,305.00 821.34,305.00 821.97,305.00 822.61,305.00 823.25,305.00 823.88,305.00 824.52,305.00 825.15,305.00 825.79,305.00 826.43,305.00 827.06,305.00 827.69,305.00 828.33,305.00 828.98,305.00 829.61,305.00 830.25,305.00 830.89,305.00 831.55,305.00 832.18,305.00 832.83,305.00 833.47,305.00 834.11,305.00 834.75,305.00 835.39,305.00 836.03,305.00 836.67,305.00 837.31,305.00 837.94,305.00 838.57,305.00 839.21,305.00 839.85,305.00 840.49,305.00 841.12,305.00 841.76,305.00 842.40,305.00 843.03,305.00 843.67,305.00 844.32,305.00 844.98,305.00 845.62,305.00 846.25,305.00 846.88,305.00 847.51,305.00 848.16,305.00 848.80,305.00 849.44,305.00 850.08,305.00 850.71,305.00 851.35,305.00 851.99,305.00 852.63,305.00 853.27,305.00 853.91,305.00 854.55,305.00 855.19,305.00 855.82,305.00 856.46,305.00 857.09,305.00 857.72,305.00 858.36,305.00 859.00,305.00 859.63,305.00 860.27,305.00 860.91,305.00 861.55,305.00 862.19,305.00 862.83,305.00 863.46,305.00 864.10,305.00 864.74,305.00 865.37,305.00 866.02,305.00 866.65,305.00 867.29,305.00 867.93,305.00 868.56,305.00 869.19,305.00 869.83,305.00 870.47,305.00 871.10,305.00 871.76,305.00 872.40,305.00 873.03,305.00 873.67,305.00 874.31,305.00 874.95,305.00 875.60,305.00 876.24,305.00 876.92,305.00 877.56,305.00 878.25,305.00 878.88,305.00 879.51,305.00 880.15,305.00 880.79,305.00 881.42,305.00 882.06,305.00 882.70,305.00 883.34,305.00 883.97,305.00 884.61,305.00 885.25,305.00 885.88,305.00 886.52,305.00 887.16,305.00 887.79,305.00 888.43,305.00 889.06,305.00 889.70,305.00 890.34,305.00 890.99,305.00 891.62,305.00 892.25,305.00 892.89,305.00 893.52,305.00 894.17,305.00 894.81,305.00 895.44,305.00 896.08,305.00 896.72,305.00 897.35,305.00 897.99,305.00 898.63,305.00 899.26,305.00 899.90,305.00 900.53,305.00 901.16,305.00 901.79,305.00 902.43,305.00 903.07,305.00 903.71,305.00 904.35,305.00 905.01,305.00 905.65,305.00 906.29,305.00 906.92,305.00 907.56,305.00 908.18,305.00 908.82,305.00 909.46,305.00 910.09,305.00 910.73,305.00 911.36,305.00 911.99,305.00 912.63,305.00 913.26,305.00 913.90,305.00 914.53,305.00 915.17,305.00 915.82,305.00 916.44,305.00 917.08,305.00 917.73,305.00 918.36,305.00 919.00,305.00 919.64,305.00 920.27,305.00 920.91,305.00 921.55,305.00 922.19,305.00 922.84,305.00 923.47,305.00 924.10,305.00 924.74,305.00 925.38,305.00 926.01,305.00 926.67,305.00 927.31,305.00 927.95,305.00 928.60,305.00 929.23,305.00 929.87,305.00 930.50,305.00 931.14,305.00 931.79,305.00 932.42,305.00 933.05,305.00 933.69,305.00 934.34,305.00 934.98,305.00 935.62,305.00 936.27,305.00 936.92,305.00 937.60,305.00 938.24,305.00 938.88,305.00 939.51,305.00 940.14,305.00 940.79,305.00 941.42,305.00 942.06,305.00 942.70,305.00 943.34,305.00 943.98,305.00 944.62,305.00 945.25,305.00 945.89,305.00 946.53,305.00 947.17,305.00 947.82,305.00 948.47,305.00 949.11,305.00 949.76,305.00 950.43,305.00 951.07,305.00 951.74,305.00 952.38,305.00 953.02,305.00 953.66,305.00 954.30,305.00 954.94,305.00 955.58,305.00 956.21,305.00 956.85,305.00 957.48,305.00 958.12,305.00 958.77,305.00 959.41,305.00 960.05,305.00 960.70,305.00 961.45,305.00 962.08,305.00 962.72,305.00 963.35,305.00 963.98,305.00 964.62,305.00 965.25,305.00 965.84,305.00 966.41,305.00 968.28,305.00 969.48,305.00 970.12,305.00 970.76,305.00 971.39,305.00 972.03,305.00 972.66,305.00 973.30,305.00 973.93,305.00 974.56,305.00 975.21,305.00 975.84,305.00 976.47,305.00 977.11,305.00 977.75,305.00 978.38,305.00 979.02,305.00 979.65,305.00 980.28,305.00 980.91,305.00 981.54,305.00 982.18,305.00 982.81,305.00 983.45,305.00 984.10,305.00 984.73,305.00 985.36,305.00 985.99,305.00 986.63,305.00 987.26,305.00 987.89,305.00 988.52,305.00 989.16,305.00 989.79,305.00 990.43,305.00 991.06,305.00 991.70,305.00 992.33,305.00 992.97,305.00 993.61,305.00 994.24,305.00 994.87,305.00 995.51,305.00 996.15,305.00 996.78,305.00 997.41,305.00 998.04,305.00 998.67,305.00 999.31,305.00 999.94,305.00 1000.57,305.00 1001.20,305.00 1001.85,305.00 1002.49,305.00 1003.13,305.00 1003.76,305.00 1004.40,305.00 1005.04,305.00 1005.67,305.00 1006.31,305.00 1006.95,305.00 1007.58,305.00 1008.22,305.00 1008.85,305.00 1009.48,305.00 1010.12,305.00 1010.76,305.00 1011.39,305.00 1012.03,305.00 1012.66,305.00 1013.29,305.00 1013.93,305.00 1014.57,305.00 1015.20,305.00 1015.84,305.00 1016.47,305.00 1017.11,305.00 1017.75,305.00 1018.38,305.00 1019.08,305.00 1019.71,305.00 1020.35,305.00 1020.98,305.00 1021.62,305.00 1022.25,305.00 1022.88,305.00 1023.53,305.00 1024.42,305.00 1025.05,305.00 1025.94,305.00 1026.57,305.00 1027.21,305.00 1027.85,305.00 1028.48,305.00 1029.12,305.00 1029.75,305.00 1030.38,305.00 1031.01,305.00 1031.65,305.00 1032.28,305.00 1032.91,305.00 1033.54,305.00 1034.19,305.00 1034.83,305.00 1035.47,305.00 1036.10,305.00 1036.74,305.00 1037.37,305.00 1038.02,305.00 1038.65,305.00 1039.29,305.00 1039.92,305.00 1040.56,305.00 1041.19,305.00 1041.83,305.00 1042.47,305.00 1043.11,305.00 1043.74,305.00 1044.38,305.00 1045.02,305.00 1045.67,305.00 1046.33,305.00 1046.97,305.00 1047.63,305.00 1048.27,305.00 1048.90,305.00 1049.54,305.00 1050.18,305.00 1050.82,305.00 1051.45,305.00 1052.09,305.00 1052.72,305.00 1053.37,305.00 1054.01,305.00 1054.65,305.00 1055.29,305.00 1055.93,305.00 1056.57,305.00 1057.20,305.00 1057.84,305.00 1058.48,305.00 1059.12,305.00 1059.76,305.00 1060.40,305.00 1061.04,305.00 1061.69,305.00 1062.33,305.00 1062.96,305.00 1063.60,305.00 1064.24,305.00 1064.87,305.00 1065.52,305.00 1066.17,305.00 1066.81,305.00 1067.44,305.00 1068.08,305.00 1068.72,305.00 1069.36,305.00 1070.00,305.00 1070.63,305.00 1071.27,305.00 1071.90,305.00 1072.54,305.00 1073.17,305.00 1073.81,305.00 1074.47,305.00 1075.11,305.00 1075.75,305.00 1076.39,305.00 1077.02,305.00 1077.66,305.00 1078.29,305.00 1078.93,305.00 1079.57,305.00 1080.20,305.00 1080.84,305.00 1081.48,305.00 1082.12,305.00 1082.77,305.00 1083.40,305.00 1084.04,305.00 1084.67,305.00 1085.31,305.00 1085.95,305.00 1086.60,305.00 1087.24,305.00 1087.87,305.00 1088.51,305.00 1089.16,305.00 1089.79,305.00 1090.43,305.00 1091.08,305.00 1091.71,305.00 1092.36,305.00 1093.00,305.00 1093.64,305.00 1094.27,305.00 1094.90,305.00 1095.54,305.00 1096.19,305.00 1096.83,305.00 1097.48,305.00 1098.13,305.00 1098.77,305.00 1099.41,305.00 1100.05,305.00 1100.69,305.00 1101.32,305.00 1101.96,305.00 1102.60,305.00 1103.25,305.00 1103.88,305.00 1104.52,305.00 1105.16,305.00 1105.80,305.00 1106.44,305.00 1107.08,305.00 1107.71,305.00 1108.36,305.00 1109.01,305.00 1109.66,305.00 1110.29,305.00 1110.94,305.00 1111.57,305.00 1112.21,305.00 1112.85,305.00 1113.49,305.00 1114.15,305.00 1114.79,305.00 1115.42,305.00 1116.07,305.00 1116.71,305.00 1117.34,305.00 1118.00,305.00 1118.64,305.00 1119.30,305.00 1119.93,305.00 1120.58,305.00 1121.22,305.00 1121.90,305.00 1122.53,305.00 1123.18,305.00 1123.82,305.00 1124.46,305.00 1125.09,305.00 1125.73,305.00 1126.37,305.00 1127.02,305.00 1127.65,305.00 1128.31,305.00 1128.95,305.00 1129.59,305.00 1130.23,305.00 1130.87,305.00 1131.51,305.00 1132.16,305.00 1132.80,305.00 1133.44,305.00 1134.08,305.00 1134.72,305.00 1135.35,305.00 1136.01,305.00 1136.65,305.00 1137.28,305.00 1137.91,305.00 1138.54,305.00 1139.18,305.00 1139.82,305.00 1140.45,305.00 1141.11,305.00 1141.75,305.00 1142.38,305.00 1143.02,305.00 1143.66,305.00 1144.29,305.00 1144.93,305.00 1145.57,305.00 1146.21,305.00 1146.85,305.00 1147.48,305.00 1148.11,305.00 1148.76,305.00 1149.39,305.00 1150.05,305.00 1150.69,305.00 1151.34,305.00 1151.97,305.00 1152.61,305.00 1153.24,305.00 1153.87,305.00 1154.51,305.00 1155.15,305.00 1155.82,305.00 1156.46,305.00 1157.10,305.00 1157.73,305.00 1158.37,305.00 1159.00,305.00 1159.63,305.00 1160.26,305.00 1160.91,305.00 1161.55,305.00 1162.18,305.00 1162.81,305.00 1163.44,305.00 1164.08,305.00 1164.72,305.00 1165.35,305.00 1165.99,305.00 1166.63,305.00 1167.26,305.00 1167.91,305.00 1168.56,305.00 1169.19,305.00 1169.83,305.00 1170.46,305.00 1171.10,305.00 1171.75,305.00 1172.38,305.00 1173.01,305.00 1173.65,305.00 1174.28,305.00 1174.92,305.00 1175.56,305.00 1176.20,305.00 1176.83,305.00 1177.46,305.00 1178.10,305.00 1178.74,305.00 1179.37,305.00 1180.00,305.00"/>
<polyline fill="none" stroke="#9467bd" stroke-opacity="0.65" stroke-width="2" points="337.39,305.00 338.05,305.00 338.68,305.00 339.33,305.00 339.96,305.00 340.60,305.00 341.23,305.00 341.87,305.00 342.51,305.00 343.15,305.00 343.79,305.00 344.44,305.00 345.07,305.00 345.69,305.00 346.33,305.00 346.96,305.00 347.59,305.00 348.22,305.00 348.86,305.00 349.49,305.00 350.12,305.00 350.76,305.00 351.39,305.00 352.03,305.00 352.66,305.00 353.30,305.00 353.94,305.00 354.57,305.00 355.20,305.00 355.84,305.00 356.48,305.00 357.13,305.00 357.76,305.00 358.39,305.00 359.02,305.00 359.65,305.00 360.28,305.00 360.92,305.00 361.55,305.00 362.18,305.00 362.82,305.00 363.45,305.00 364.08,305.00 364.72,305.00 365.36,305.00 365.99,305.00 366.76,305.00 367.41,305.00 368.06,305.00 368.70,305.00 369.33,305.00 369.97,305.00 370.60,305.00 371.23,305.00 371.87,305.00 372.51,305.00 373.14,305.00 373.78,305.00 374.42,305.00 375.05,305.00 375.71,305.00 376.35,305.00 376.99,305.00 377.62,305.00 378.26,305.00 378.89,305.00 379.52,305.00 380.16,305.00 380.82,305.00 381.46,305.00 382.10,305.00 382.73,305.00 383.36,305.00 384.00,305.00 384.63,305.00 385.27,305.00 385.91,305.00 386.54,305.00 387.18,305.00 387.82,305.00 388.45,305.00 389.08,305.00 389.72,305.00 390.36,305.00 391.00,305.00 391.63,305.00 392.26,305.00 392.90,305.00 393.54,305.00 394.18,305.00 394.94,305.00 395.59,305.00 396.23,305.00 396.86,305.00 397.49,305.00 398.13,305.00 398.77,305.00 399.40,305.00 400.05,305.00 400.68,305.00 401.32,305.00 401.95,305.00 402.58,305.00 403.22,305.00 403.85,305.00 404.49,305.00 405.12,305.00 405.75,305.00 406.38,305.00 407.02,305.00 407.66,305.00 408.29,305.00 408.92,305.00 409.57,305.00 410.21,305.00 410.84,305.00 411.47,305.00 412.11,305.00 412.76,305.00 413.39,305.00 414.03,305.00 414.67,305.00 415.30,305.00 415.93,305.00 416.57,305.00 417.21,305.00 417.86,305.00 418.49,305.00 419.13,305.00 419.75,305.00 420.39,305.00 421.02,305.00 421.66,305.00 422.29,305.00 422.93,305.00 423.57,305.00 424.21,305.00 424.83,305.00 425.48,305.00 426.11,305.00 426.74,305.00 427.38,305.00 428.01,305.00 428.64,305.00 429.29,305.00 429.92,305.00 430.56,305.00 431.20,305.00 431.84,305.00 432.47,305.00 433.11,305.00 433.75,305.00 434.46,305.00 435.16,305.00 435.84,305.00 436.48,305.00 437.15,305.00 437.78,305.00 438.42,305.00 439.05,305.00 439.64,305.00 440.30,305.00 440.94,305.00 441.58,305.00 442.21,305.00 442.84,305.00 443.48,305.00 444.12,305.00 444.75,305.00 445.39,305.00 446.02,305.00 446.66,305.00 447.29,305.00 447.93,305.00 448.57,305.00 449.21,305.00 449.85,305.00 450.49,305.00 451.12,305.00 451.77,305.00 452.41,305.00 453.04,305.00 453.67,305.00 454.31,305.00 454.94,305.00 455.58,305.00 456.21,305.00 456.85,305.00 457.49,305.00 458.12,305.00 458.76,305.00 459.39,305.00 460.03,305.00 460.67,305.00 461.31,305.00 461.94,305.00 462.58,305.00 463.21,305.00 463.85,305.00 464.49,305.00 465.13,305.00 465.77,305.00 466.41,305.00 467.05,305.00 467.68,305.00 468.32,305.00 468.98,305.00 469.61,305.00 470.25,305.00 470.89,305.00 471.52,305.00 472.16,305.00 472.80,305.00 473.43,305.00 474.07,305.00 474.71,305.00 475.35,305.00 475.99,305.00 476.62,305.00 477.26,305.00 477.90,305.00 478.54,305.00 479.18,305.00 479.82,305.00 480.47,305.00 481.10,305.00 481.73,305.00 482.37,305.00 483.01,305.00 483.66,305.00 484.30,305.00 484.94,305.00 485.58,305.00 486.21,305.00 486.85,305.00 487.48,305.00 488.12,305.00 488.76,305.00 489.40,305.00 490.03,305.00 490.67,305.00 491.30,305.00 491.95,305.00 492.58,305.00 493.22,305.00 493.86,305.00 494.50,305.00 495.14,305.00 495.77,305.00 496.41,305.00 497.04,305.00 497.67,305.00 498.31,305.00 498.95,305.00 499.59,305.00 500.23,305.00 500.87,305.00 501.50,305.00 502.14,305.00 502.79,305.00 503.42,305.00 504.06,305.00 504.71,305.00 505.34,305.00 505.98,305.00 506.62,305.00 507.26,305.00 507.90,305.00 508.54,305.00 509.19,305.00 509.83,305.00 510.47,305.00 511.11,305.00 511.74,305.00 512.38,305.00 513.02,305.00 513.67,305.00 514.31,305.00 514.94,305.00 515.58,305.00 516.21,305.00 516.86,305.00 517.50,305.00 518.14,305.00 518.78,305.00 519.41,305.00 520.04,305.00 520.68,305.00 521.31,305.00 521.95,305.00 522.59,305.00 523.23,305.00 523.86,305.00 524.50,305.00 525.14,305.00 525.79,305.00 526.43,305.00 527.06,305.00 527.70,305.00 528.33,305.00 528.97,305.00 529.61,305.00 530.25,305.00 530.89,305.00 531.52,305.00 532.16,305.00 532.80,305.00 533.44,305.00 534.08,305.00 534.72,305.00 535.38,305.00 536.02,305.00 536.66,305.00 537.30,305.00 537.94,305.00 538.58,305.00 539.21,305.00 539.85,305.00 540.48,305.00 541.12,305.00 541.76,305.00 542.40,305.00 543.04,305.00 543.69,305.00 544.35,305.00 544.99,305.00 545.62,305.00 546.26,305.00 546.90,305.00 547.54,305.00 548.18,305.00 548.83,305.00 549.47,305.00 550.11,305.00 550.75,305.00 551.39,305.00 552.03,305.00 552.67,305.00 553.31,305.00 553.94,305.00 554.58,305.00 555.22,305.00 555.87,305.00 556.50,305.00 557.14,305.00 557.78,305.00 558.42,305.00 559.06,305.00 559.70,305.00 560.34,305.00 561.00,305.00 561.64,305.00 562.28,305.00 562.92,305.00 563.57,305.00 564.23,305.00 564.88,305.00 565.53,305.00 566.18,305.00 566.83,305.00 567.46,305.00 568.10,305.00 568.74,305.00 569.38,305.00 570.02,305.00 570.68,305.00 571.31,305.00 571.95,305.00 572.59,305.00 573.23,305.00 573.86,305.00 574.51,305.00 575.14,305.00 575.78,305.00 576.41,305.00 577.05,305.00 577.69,305.00 578.31,305.00 578.95,305.00 579.59,305.00 580.24,305.00 580.87,305.00 581.51,305.00 582.16,305.00 582.79,305.00 583.43,305.00 584.07,305.00 584.71,305.00 585.34,305.00 585.98,305.00 586.62,305.00 587.26,305.00 587.89,305.00 588.52,305.00 589.16,305.00 589.79,305.00 590.43,305.00 591.07,305.00 591.71,305.00 592.35,305.00 592.98,305.00 593.62,305.00 594.26,305.00 594.90,305.00 595.52,305.00 596.16,305.00 596.78,305.00 597.42,305.00 598.06,305.00 598.71,305.00 599.34,305.00 599.98,305.00 600.62,305.00 601.27,305.00 601.91,305.00 602.54,305.00 603.19,305.00 603.83,305.00 604.46,305.00 605.11,305.00 605.74,305.00 606.39,305.00 607.03,305.00 607.67,305.00 608.30,305.00 608.94,305.00 609.57,305.00 610.21,305.00 610.85,305.00 611.47,305.00 612.11,305.00 612.75,305.00 613.39,305.00 614.03,305.00 614.66,305.00 615.30,305.00 615.94,305.00 616.58,305.00 617.22,305.00 617.86,305.00 618.49,305.00 619.13,305.00 619.78,305.00 620.41,305.00 621.04,305.00 621.69,305.00 622.32,305.00 622.96,305.00 623.60,305.00 624.24,305.00 624.88,305.00 625.51,305.00 626.14,305.00 626.80,305.00 627.44,305.00 628.09,305.00 628.74,305.00 629.38,305.00 630.02,305.00 630.65,305.00 631.30,305.00 631.94,305.00 632.57,305.00 633.21,305.00 633.86,305.00 634.51,305.00 635.14,305.00 635.78,305.00 636.42,305.00 637.06,305.00 637.70,305.00 638.33,305.00 638.97,305.00 639.61,305.00 640.24,305.00 640.88,305.00 641.51,305.00 642.16,305.00 642.79,305.00 643.42,305.00 644.06,305.00 644.70,305.00 645.33,305.00 645.98,305.00 646.62,305.00 647.25,305.00 647.89,305.00 648.53,305.00 649.16,305.00 649.80,305.00 650.44,305.00 651.09,305.00 651.72,305.00 652.35,305.00 652.99,305.00 653.63,305.00 654.27,305.00 654.90,305.00 655.55,305.00 656.20,305.00 656.85,305.00 657.50,305.00 658.15,305.00 658.80,305.00 659.46,305.00 660.10,305.00 660.77,305.00 661.42,305.00 662.07,305.00 662.71,305.00 663.34,305.00 663.98,305.00 664.63,305.00 665.27,305.00 665.91,305.00 666.55,305.00 667.19,305.00 667.83,305.00 668.47,305.00 669.10,305.00 669.73,305.00 670.37,305.00 671.01,305.00 671.64,305.00 672.29,305.00 672.92,305.00 673.56,305.00 674.21,305.00 674.85,305.00 675.49,305.00 676.12,305.00 676.76,305.00 677.40,305.00 678.04,305.00 678.68,305.00 679.31,305.00 679.95,305.00 680.59,305.00 681.23,305.00 681.86,305.00 682.51,305.00 683.14,305.00 683.78,305.00 684.46,305.00 685.12,305.00 685.76,305.00 686.40,305.00 687.03,305.00 687.68,305.00 688.32,305.00 688.97,305.00 689.61,305.00 690.24,305.00 690.86,305.00 691.50,305.00 692.14,305.00 692.78,305.00 693.42,305.00 694.05,305.00 694.69,305.00 695.34,305.00 695.98,305.00 696.61,305.00 697.25,305.00 697.88,305.00 698.53,305.00 699.16,305.00 699.80,305.00 700.44,305.00 701.08,305.00 701.72,305.00 702.36,305.00 703.02,305.00 703.66,305.00 704.30,305.00 704.94,305.00 705.58,305.00 706.21,305.00 706.86,305.00 707.50,305.00 708.13,305.00 708.77,305.00 709.41,305.00 710.06,305.00 710.70,305.00 711.35,305.00 711.98,305.00 712.62,305.00 713.26,305.00 713.89,305.00 714.54,305.00 715.17,305.00 715.82,305.00 716.45,305.00 717.09,305.00 717.73,305.00 718.36,305.00 719.01,305.00 719.64,305.00 720.28,305.00 720.92,305.00 721.55,305.00 722.20,305.00 722.83,305.00 723.47,305.00 724.10,305.00 724.75,305.00 725.39,305.00 726.02,305.00 726.66,305.00 727.29,305.00 727.92,305.00 728.56,305.00 729.21,305.00 729.84,305.00 730.50,305.00 731.14,305.00 731.77,305.00 732.42,305.00 733.05,305.00 733.70,305.00 734.39,305.00 735.04,305.00 735.68,305.00 736.33,305.00 736.97,305.00 737.61,305.00 738.24,305.00 738.89,305.00 739.52,305.00 740.16,305.00 740.81,305.00 741.44,305.00 742.08,305.00 742.73,305.00 743.38,305.00 744.02,305.00 744.65,305.00 745.29,305.00 745.93,305.00 746.57,305.00 747.21,305.00 747.85,305.00 748.49,305.00 749.13,305.00 749.77,305.00 750.41,305.00 751.05,305.00 751.69,305.00 752.34,305.00 752.98,305.00 753.62,305.00 754.25,305.00 754.90,305.00 755.54,305.00 756.17,305.00 756.81,305.00 757.45,305.00 758.08,305.00 758.72,305.00 759.37,305.00 760.00,305.00 760.64,305.00 761.28,305.00 761.92,305.00 762.56,305.00 763.20,305.00 763.84,305.00 764.48,305.00 765.13,305.00 765.75,305.00 766.37,305.00 767.01,305.00 767.65,305.00 768.29,305.00 768.93,305.00 769.58,305.00 770.21,305.00 770.86,305.00 771.50,305.00 772.14,305.00 772.78,305.00 773.41,305.00 774.05,305.00 774.68,305.00 775.31,305.00 775.95,305.00 776.59,305.00 777.23,305.00 777.86,305.00 778.50,305.00 779.14,305.00 779.78,305.00 780.42,305.00 781.05,305.00 781.68,305.00 782.30,305.00 782.95,305.00 783.59,305.00 784.23,305.00 784.87,305.00 785.52,305.00 786.15,305.00 786.79,305.00 787.43,305.00 788.07,305.00 788.71,305.00 789.34,305.00 790.03,305.00 790.67,305.00 791.31,305.00 791.95,305.00 792.60,305.00 793.23,305.00 793.87,305.00 794.51,305.00 795.15,305.00 795.78,305.00 796.42,305.00 797.06,305.00 797.70,305.00 798.35,305.00 798.98,305.00 799.62,305.00 800.26,305.00 800.90,305.00 801.54,305.00 802.18,305.00 802.82,305.00 803.47,305.00 804.12,305.00 804.76,305.00 805.40,305.00 806.04,305.00 806.68,305.00 807.32,305.00 807.96,305.00 808.60,305.00 809.23,305.00 809.87,305.00 810.51,305.00 811.15,305.00 811.79,305.00 812.43,305.00 813.07,305.00 813.71,305.00 814.34,305.00 814.98,305.00 815.62,305.00 816.26,305.00 816.89,305.00 817.53,305.00 818.17,305.00 818.80,305.00 819.43,305.00 820.07,305.00 820.71,305.00 821.34,305.00 821.97,305.00 822.61,305.00 823.25,305.00 823.88,305.00 824.52,305.00 825.15,305.00 825.79,305.00 826.43,305.00 827.06,305.00 827.69,305.00 828.33,305.00 828.98,305.00 829.61,305.00 830.25,305.00 830.89,305.00 831.55,305.00 832.18,305.00 832.83,305.00 833.47,305.00 834.11,305.00 834.75,305.00 835.39,305.00 836.03,305.00 836.67,305.00 837.31,305.00 837.94,305.00 838.57,305.00 839.21,305.00 839.85,305.00 840.49,305.00 841.12,305.00 841.76,305.00 842.40,305.00 843.03,305.00 843.67,305.00 844.32,305.00 844.98,305.00 845.62,305.00 846.25,305.00 846.88,305.00 847.51,305.00 848.16,305.00 848.80,305.00 849.44,305.00 850.08,305.00 850.71,305.00 851.35,305.00 851.99,305.00 852.63,305.00 853.27,305.00 853.91,305.00 854.55,305.00 855.19,305.00 855.82,305.00 856.46,305.00 857.09,305.00 857.72,305.00 858.36,305.00 859.00,305.00 859.63,305.00 860.27,305.00 860.91,305.00 861.55,305.00 862.19,305.00 862.83,305.00 863.46,305.00 864.10,305.00 864.74,305.00 865.37,305.00 866.02,305.00 866.65,305.00 867.29,305.00 867.93,305.00 868.56,305.00 869.19,305.00 869.83,305.00 870.47,305.00 871.10,305.00 871.76,305.00 872.40,305.00 873.03,305.00 873.67,305.00 874.31,305.00 874.95,305.00 875.60,305.00 876.24,305.00 876.92,305.00 877.56,305.00 878.25,305.00 878.88,305.00 879.51,305.00 880.15,305.00 880.79,305.00 881.42,305.00 882.06,305.00 882.70,305.00 883.34,305.00 883.97,305.00 884.61,305.00 885.25,305.00 885.88,305.00 886.52,305.00 887.16,305.00 887.79,305.00 888.43,305.00 889.06,305.00 889.70,305.00 890.34,305.00 890.99,305.00 891.62,305.00 892.25,305.00 892.89,305.00 893.52,305.00 894.17,305.00 894.81,305.00 895.44,305.00 896.08,305.00 896.72,305.00 897.35,305.00 897.99,305.00 898.63,305.00 899.26,305.00 899.90,305.00 900.53,305.00 901.16,305.00 901.79,305.00 902.43,305.00 903.07,305.00 903.71,305.00 904.35,305.00 905.01,305.00 905.65,305.00 906.29,305.00 906.92,305.00 907.56,305.00 908.18,305.00 908.82,305.00 909.46,305.00 910.09,305.00 910.73,305.00 911.36,305.00 911.99,305.00 912.63,305.00 913.26,305.00 913.90,305.00 914.53,305.00 915.17,305.00 915.82,305.00 916.44,305.00 917.08,305.00 917.73,305.00 918.36,305.00 919.00,305.00 919.64,305.00 920.27,305.00 920.91,305.00 921.55,305.00 922.19,305.00 922.84,305.00 923.47,305.00 924.10,305.00 924.74,305.00 925.38,305.00 926.01,305.00 926.67,305.00 927.31,305.00 927.95,305.00 928.60,305.00 929.23,305.00 929.87,305.00 930.50,305.00 931.14,305.00 931.79,305.00 932.42,305.00 933.05,305.00 933.69,305.00 934.34,305.00 934.98,305.00 935.62,305.00 936.27,305.00 936.92,305.00 937.60,305.00 938.24,305.00 938.88,305.00 939.51,305.00 940.14,305.00 940.79,305.00 941.42,305.00 942.06,305.00 942.70,305.00 943.34,305.00 943.98,305.00 944.62,305.00 945.25,305.00 945.89,305.00 946.53,305.00 947.17,305.00 947.82,305.00 948.47,305.00 949.11,305.00 949.76,305.00 950.43,305.00 951.07,305.00 951.74,305.00 952.38,305.00 953.02,305.00 953.66,305.00 954.30,305.00 954.94,305.00 955.58,305.00 956.21,305.00 956.85,305.00 957.48,305.00 958.12,305.00 958.77,305.00 959.41,305.00 960.05,305.00 960.70,305.00 961.45,305.00 962.08,305.00 962.72,305.00 963.35,305.00 963.98,305.00 964.62,305.00 966.41,305.00 967.10,305.00 967.70,305.00 968.28,305.00 969.48,305.00 970.12,305.00 970.76,305.00 971.39,305.00 972.03,305.00 972.66,305.00 973.30,305.00 973.93,305.00 974.56,305.00 975.21,305.00 975.84,305.00 976.47,305.00 977.11,305.00 977.75,305.00 978.38,305.00 979.02,305.00 979.65,305.00 980.28,305.00 980.91,305.00 981.54,305.00 982.18,305.00 982.81,305.00 983.45,305.00 984.10,305.00 984.73,305.00 985.36,305.00 985.99,305.00 986.63,305.00 987.26,305.00 987.89,305.00 988.52,305.00 989.16,305.00 989.79,305.00 990.43,305.00 991.06,305.00 991.70,305.00 992.33,305.00 992.97,305.00 993.61,305.00 994.24,305.00 994.87,305.00 995.51,305.00 996.15,305.00 996.78,305.00 997.41,305.00 998.04,305.00 998.67,305.00 999.31,305.00 999.94,305.00 1000.57,305.00 1001.20,305.00 1001.85,305.00 1002.49,305.00 1003.13,305.00 1003.76,305.00 1004.40,305.00 1005.04,305.00 1005.67,305.00 1006.31,305.00 1006.95,305.00 1007.58,305.00 1008.22,305.00 1008.85,305.00 1009.48,305.00 1010.12,305.00 1010.76,305.00 1011.39,305.00 1012.03,305.00 1012.66,305.00 1013.29,305.00 1013.93,305.00 1014.57,305.00 1015.20,305.00 1015.84,305.00 1016.47,305.00 1017.11,305.00 1017.75,305.00 1018.38,305.00 1019.08,305.00 1019.71,305.00 1020.35,305.00 1020.98,305.00 1021.62,305.00 1022.25,305.00 1022.88,305.00 1023.53,305.00 1024.42,305.00 1025.05,305.00 1025.94,305.00 1026.57,305.00 1027.21,305.00 1027.85,305.00 1028.48,305.00 1029.12,305.00 1029.75,305.00 1030.38,305.00 1031.01,305.00 1031.65,305.00 1032.28,305.00 1032.91,305.00 1033.54,305.00 1034.19,305.00 1034.83,305.00 1035.47,305.00 1036.10,305.00 1036.74,305.00 1037.37,305.00 1038.02,305.00 1038.65,305.00 1039.29,305.00 1039.92,305.00 1040.56,305.00 1041.19,305.00 1041.83,305.00 1042.47,305.00 1043.11,305.00 1043.74,305.00 1044.38,305.00 1045.02,305.00 1045.67,305.00 1046.33,305.00 1046.97,305.00 1047.63,305.00 1048.27,305.00 1048.90,305.00 1049.54,305.00 1050.18,305.00 1050.82,305.00 1051.45,305.00 1052.09,305.00 1052.72,305.00 1053.37,305.00 1054.01,305.00 1054.65,305.00 1055.29,305.00 1055.93,305.00 1056.57,305.00 1057.20,305.00 1057.84,305.00 1058.48,305.00 1059.12,305.00 1059.76,305.00 1060.40,305.00 1061.04,305.00 1061.69,305.00 1062.33,305.00 1062.96,305.00 1063.60,305.00 1064.24,305.00 1064.87,305.00 1065.52,305.00 1066.17,305.00 1066.81,305.00 1067.44,305.00 1068.08,305.00 1068.72,305.00 1069.36,305.00 1070.00,305.00 1070.63,305.00 1071.27,305.00 1071.90,305.00 1072.54,305.00 1073.17,305.00 1073.81,305.00 1074.47,305.00 1075.11,305.00 1075.75,305.00 1076.39,305.00 1077.02,305.00 1077.66,305.00 1078.29,305.00 1078.93,305.00 1079.57,305.00 1080.20,305.00 1080.84,305.00 1081.48,305.00 1082.12,305.00 1082.77,305.00 1083.40,305.00 1084.04,305.00 1084.67,305.00 1085.31,305.00 1085.95,305.00 1086.60,305.00 1087.24,305.00 1087.87,305.00 1088.51,305.00 1089.16,305.00 1089.79,305.00 1090.43,305.00 1091.08,305.00 1091.71,305.00 1092.36,305.00 1093.00,305.00 1093.64,305.00 1094.27,305.00 1094.90,305.00 1095.54,305.00 1096.19,305.00 1096.83,305.00 1097.48,305.00 1098.13,305.00 1098.77,305.00 1099.41,305.00 1100.05,305.00 1100.69,305.00 1101.32,305.00 1101.96,305.00 1102.60,305.00 1103.25,305.00 1103.88,305.00 1104.52,305.00 1105.16,305.00 1105.80,305.00 1106.44,305.00 1107.08,305.00 1107.71,305.00 1108.36,305.00 1109.01,305.00 1109.66,305.00 1110.29,305.00 1110.94,305.00 1111.57,305.00 1112.21,305.00 1112.85,305.00 1113.49,305.00 1114.15,305.00 1114.79,305.00 1115.42,305.00 1116.07,305.00 1116.71,305.00 1117.34,305.00 1118.00,305.00 1118.64,305.00 1119.30,305.00 1119.93,305.00 1120.58,305.00 1121.22,305.00 1121.90,305.00 1122.53,305.00 1123.18,305.00 1123.82,305.00 1124.46,305.00 1125.09,305.00 1125.73,305.00 1126.37,305.00 1127.02,305.00 1127.65,305.00 1128.31,305.00 1128.95,305.00 1129.59,305.00 1130.23,305.00 1130.87,305.00 1131.51,305.00 1132.16,305.00 1132.80,305.00 1133.44,305.00 1134.08,305.00 1134.72,305.00 1135.35,305.00 1136.01,305.00 1136.65,305.00 1137.28,305.00 1137.91,305.00 1138.54,305.00 1139.18,305.00 1139.82,305.00 1140.45,305.00 1141.11,305.00 1141.75,305.00 1142.38,305.00 1143.02,305.00 1143.66,305.00 1144.29,305.00 1144.93,305.00 1145.57,305.00 1146.21,305.00 1146.85,305.00 1147.48,305.00 1148.11,305.00 1148.76,305.00 1149.39,305.00 1150.05,305.00 1150.69,305.00 1151.34,305.00 1151.97,305.00 1152.61,305.00 1153.24,305.00 1153.87,305.00 1154.51,305.00 1155.15,305.00 1155.82,305.00 1156.46,305.00 1157.10,305.00 1157.73,305.00 1158.37,305.00 1159.00,305.00 1159.63,305.00 1160.26,305.00 1160.91,305.00 1161.55,305.00 1162.18,305.00 1162.81,305.00 1163.44,305.00 1164.08,305.00 1164.72,305.00 1165.35,305.00 1165.99,305.00 1166.63,305.00 1167.26,305.00 1167.91,305.00 1168.56,305.00 1169.19,305.00 1169.83,305.00 1170.46,305.00 1171.10,305.00 1171.75,305.00 1172.38,305.00 1173.01,305.00 1173.65,305.00 1174.28,305.00 1174.92,305.00 1175.56,305.00 1176.20,305.00 1176.83,305.00 1177.46,305.00 1178.10,305.00 1178.74,305.00 1179.37,305.00 1180.00,305.00"/>
<polyline fill="none" stroke="#9467bd" stroke-opacity="0.50" stroke-width="2" points="70.00,305.00 70.64,305.00 71.27,305.00 71.91,305.00 72.54,305.00 73.18,305.00 73.81,305.00 74.45,305.00 75.14,305.00 75.77,305.00 76.40,305.00 77.03,305.00 77.68,305.00 78.31,305.00 78.94,305.00 80.08,305.00 81.07,305.00 81.71,305.00 82.36,305.00 82.99,305.00 83.63,305.00 84.25,305.00 84.89,305.00 85.52,305.00 86.16,305.00 86.80,305.00 87.45,305.00 88.08,305.00 88.72,305.00 89.39,305.00 90.03,305.00 90.66,305.00 91.31,305.00 91.95,305.00 92.58,305.00 93.24,305.00 93.87,305.00 94.50,305.00 95.15,305.00 95.78,305.00 96.41,305.00 97.04,305.00 97.67,305.00 98.31,305.00 98.94,305.00 99.59,305.00 100.23,305.00 100.86,305.00 101.49,305.00 102.13,305.00 102.77,305.00 103.49,305.00 104.13,305.00 104.76,305.00 105.39,305.00 106.02,305.00 106.65,305.00 107.28,305.00 107.92,305.00 108.55,305.00 109.20,305.00 109.84,305.00 110.46,305.00 111.10,305.00 111.74,305.00 112.38,305.00 113.02,305.00 113.64,305.00 114.27,305.00 114.90,305.00 115.53,305.00 116.17,305.00 116.80,305.00 117.43,305.00 118.07,305.00 118.70,305.00 119.33,305.00 119.97,305.00 120.60,305.00 121.23,305.00 121.88,305.00 122.51,305.00 123.15,305.00 123.79,305.00 124.42,305.00 125.05,305.00 125.69,305.00 126.32,305.00 126.94,305.00 127.58,305.00 128.22,305.00 128.86,305.00 129.50,305.00 130.12,305.00 130.76,305.00 131.39,305.00 132.02,305.00 132.65,305.00 133.29,305.00 133.92,305.00 134.56,305.00 135.19,305.00 135.83,305.00 136.46,305.00 137.11,305.00 137.74,305.00 138.38,305.00 139.01,305.00 139.64,305.00 140.27,305.00 140.91,305.00 141.55,305.00 142.18,305.00 142.82,305.00 143.45,305.00 144.09,305.00 144.73,305.00 145.38,305.00 146.01,305.00 146.64,305.00 147.28,305.00 147.91,305.00 148.54,305.00 149.18,305.00 149.87,305.00 150.50,305.00 151.15,305.00 151.78,305.00 152.41,305.00 153.04,305.00 153.66,305.00 154.29,305.00 154.93,305.00 155.56,305.00 156.19,305.00 156.83,305.00 157.46,305.00 158.09,305.00 158.74,305.00 159.37,305.00 160.00,305.00 160.63,305.00 161.27,305.00 161.90,305.00 162.54,305.00 163.17,305.00 163.81,305.00 164.44,305.00 165.08,305.00 165.71,305.00 166.34,305.00 166.97,305.00 167.60,305.00 168.24,305.00 168.88,305.00 169.52,305.00 170.15,305.00 170.79,305.00 171.43,305.00 172.06,305.00 172.69,305.00 173.33,305.00 173.97,305.00 174.62,305.00 175.25,305.00 175.88,305.00 176.51,305.00 177.14,305.00 177.78,305.00 178.41,305.00 179.04,305.00 179.67,305.00 180.30,305.00 180.94,305.00 181.58,305.00 182.22,305.00 182.85,305.00 183.50,305.00 184.13,305.00 184.76,305.00 185.40,305.00 186.02,305.00 186.71,305.00 187.36,305.00 187.99,305.00 188.62,305.00 189.25,305.00 189.89,305.00 190.52,305.00 191.16,305.00 191.79,305.00 192.43,305.00 193.06,305.00 193.69,305.00 194.34,305.00 194.97,305.00 195.60,305.00 196.24,305.00 196.88,305.00 197.52,305.00 198.17,305.00 198.80,305.00 199.44,305.00 200.07,305.00 200.70,305.00 201.34,305.00 201.98,305.00 202.62,305.00 203.25,305.00 203.88,305.00 204.52,305.00 205.16,305.00 205.79,305.00 206.43,305.00 207.07,305.00 207.70,305.00 208.34,305.00 208.96,305.00 209.59,305.00 210.23,305.00 210.86,305.00 211.50,305.00 212.13,305.00 212.76,305.00 213.39,305.00 214.03,305.00 214.66,305.00 215.30,305.00 215.94,305.00 216.58,305.00 217.22,305.00 217.85,305.00 218.49,305.00 219.12,305.00 219.76,305.00 220.39,305.00 221.04,305.00 221.67,305.00 222.31,305.00 222.95,305.00 223.58,305.00 224.22,305.00 224.84,305.00 225.48,305.00 226.12,305.00 226.75,305.00 227.39,305.00 228.02,305.00 228.66,305.00 229.29,305.00 229.93,305.00 230.57,305.00 231.21,305.00 231.84,305.00 232.47,305.00 233.11,305.00 233.75,305.00 234.39,305.00 235.02,305.00 235.66,305.00 236.36,305.00 237.00,305.00 237.64,305.00 238.27,305.00 238.91,305.00 239.55,305.00 240.18,305.00 240.82,305.00 241.45,305.00 242.11,305.00 242.75,305.00 243.38,305.00 244.01,305.00 244.65,305.00 245.28,305.00 245.92,305.00 246.58,305.00 247.21,305.00 247.84,305.00 248.49,305.00 249.17,305.00 249.81,305.00 250.61,305.00 251.68,305.00 252.33,305.00 252.98,305.00 253.61,305.00 254.23,305.00 254.86,305.00 255.51,305.00 256.14,305.00 256.78,305.00 257.44,305.00 258.10,305.00 258.77,305.00 259.41,305.00 260.05,305.00 260.68,305.00 261.32,305.00 261.97,305.00 262.61,305.00 263.24,305.00 263.87,305.00 264.53,305.00 265.17,305.00 265.80,305.00 266.44,305.00 267.08,305.00 267.74,305.00 268.38,305.00 269.02,305.00 269.67,305.00 270.28,305.00 270.91,305.00 271.56,305.00 272.19,305.00 272.83,305.00 273.49,305.00 274.12,305.00 274.76,305.00 275.40,305.00 276.04,305.00 276.68,305.00 277.31,305.00 277.94,305.00 278.58,305.00 279.21,305.00 279.84,305.00 280.60,305.00 281.35,305.00 282.10,305.00 282.84,305.00 283.56,305.00 284.29,305.00 285.05,305.00 285.79,305.00 286.42,305.00 287.05,305.00 287.68,305.00 288.32,305.00 288.95,305.00 289.58,305.00 290.21,305.00 290.84,305.00 291.48,305.00 292.11,305.00 292.74,305.00 293.38,305.00 294.01,305.00 294.64,305.00 295.27,305.00 295.90,305.00 296.54,305.00 297.17,305.00 297.80,305.00 298.44,305.00 299.07,305.00 299.70,305.00 300.33,305.00 300.96,305.00 301.60,305.00 302.23,305.00 302.86,305.00 303.50,305.00 304.14,305.00 304.77,305.00 305.40,305.00 306.03,305.00 306.66,305.00 307.30,305.00 307.92,305.00 308.55,305.00 309.18,305.00 309.81,305.00 310.44,305.00 311.07,305.00 311.70,305.00 312.34,305.00 312.96,305.00 313.59,305.00 314.21,305.00 314.87,305.00 315.55,305.00 316.19,305.00 316.82,305.00 317.46,305.00 318.09,305.00 318.71,305.00 319.34,305.00 319.97,305.00 320.72,305.00 321.47,305.00 322.20,305.00 322.95,305.00 323.70,305.00 324.43,305.00 325.19,305.00 325.96,305.00 326.65,305.00 327.33,305.00 327.97,305.00 328.61,305.00 329.24,305.00 329.87,305.00 330.50,305.00 331.14,305.00 331.77,305.00 332.40,305.00 333.03,305.00 333.67,305.00 334.30,305.00 334.93,305.00 335.58,305.00 336.21,305.00 336.84,305.00 337.39,305.00 338.05,305.00 338.68,305.00 339.33,305.00 339.96,305.00 340.60,305.00 341.23,305.00 341.87,305.00 342.51,305.00 343.15,305.00 343.79,305.00 344.44,305.00 345.07,305.00 345.69,305.00 346.33,305.00 346.96,305.00 347.59,305.00 348.22,305.00 348.86,305.00 349.49,305.00 350.12,305.00 350.76,305.00 351.39,305.00 352.03,305.00 352.66,305.00 353.30,305.00 353.94,305.00 354.57,305.00 355.20,305.00 355.84,305.00 356.48,305.00 357.13,305.00 357.76,305.00 358.39,305.00 359.02,305.00 359.65,305.00 360.28,305.00 360.92,305.00 361.55,305.00 362.18,305.00 362.82,305.00 363.45,305.00 364.08,305.00 364.72,305.00 365.36,305.00 365.99,305.00 366.76,305.00 367.41,305.00 368.06,305.00 368.70,305.00 369.33,305.00 369.97,305.00 370.60,305.00 371.23,305.00 371.87,305.00 372.51,305.00 373.14,305.00 373.78,305.00 374.42,305.00 375.05,305.00 375.71,305.00 376.35,305.00 376.99,305.00 377.62,305.00 378.26,305.00 378.89,305.00 379.52,305.00 380.16,305.00 380.82,305.00 381.46,305.00 382.10,305.00 382.73,305.00 383.36,305.00 384.00,305.00 384.63,305.00 385.27,305.00 385.91,305.00 386.54,305.00 387.18,305.00 387.82,305.00 388.45,305.00 389.08,305.00 389.72,305.00 390.36,305.00 391.00,305.00 391.63,305.00 392.26,305.00 392.90,305.00 393.54,305.00 394.18,305.00 394.94,305.00 395.59,305.00 396.23,305.00 396.86,305.00 397.49,305.00 398.13,305.00 398.77,305.00 399.40,305.00 400.05,305.00 400.68,305.00 401.32,305.00 401.95,305.00 402.58,305.00 403.22,305.00 403.85,305.00 404.49,305.00 405.12,305.00 405.75,305.00 406.38,305.00 407.02,305.00 407.66,305.00 408.29,305.00 408.92,305.00 409.57,305.00 410.21,305.00 410.84,305.00 411.47,305.00 412.11,305.00 412.76,305.00 413.39,305.00 414.03,305.00 414.67,305.00 415.30,305.00 415.93,305.00 416.57,305.00 417.21,305.00 417.86,305.00 418.49,305.00 419.13,305.00 419.75,305.00 420.39,305.00 421.02,305.00 421.66,305.00 422.29,305.00 422.93,305.00 423.57,305.00 424.21,305.00 424.83,305.00 425.48,305.00 426.11,305.00 426.74,305.00 427.38,305.00 428.01,305.00 428.64,305.00 429.29,305.00 429.92,305.00 430.56,305.00 431.20,305.00 431.84,305.00 432.47,305.00 433.11,305.00 433.75,305.00 434.46,305.00 435.16,305.00 435.84,305.00 436.48,305.00 437.15,305.00 437.78,305.00 438.42,305.00 439.05,305.00 439.64,305.00 440.30,305.00 440.94,305.00 441.58,305.00 442.21,305.00 442.84,305.00 443.48,305.00 444.12,305.00 444.75,305.00 445.39,305.00 446.02,305.00 446.66,305.00 447.29,305.00 447.93,305.00 448.57,305.00 449.21,305.00 449.85,305.00 450.49,305.00 451.12,305.00 451.77,305.00 452.41,305.00 453.04,305.00 453.67,305.00 454.31,305.00 454.94,305.00 455.58,305.00 456.21,305.00 456.85,305.00 457.49,305.00 458.12,305.00 458.76,305.00 459.39,305.00 460.03,305.00 460.67,305.00 461.31,305.00 461.94,305.00 462.58,305.00 463.21,305.00 463.85,305.00 464.49,305.00 465.13,305.00 465.77,305.00 466.41,305.00 467.05,305.00 467.68,305.00 468.32,305.00 468.98,305.00 469.61,305.00 470.25,305.00 470.89,305.00 471.52,305.00 472.16,305.00 472.80,305.00 473.43,305.00 474.07,305.00 474.71,305.00 475.35,305.00 475.99,305.00 476.62,305.00 477.26,305.00 477.90,305.00 478.54,305.00 479.18,305.00 479.82,305.00 480.47,305.00 481.10,305.00 481.73,305.00 482.37,305.00 483.01,305.00 483.66,305.00 484.30,305.00 484.94,305.00 485.58,305.00 486.21,305.00 486.85,305.00 487.48,305.00 488.12,305.00 488.76,305.00 489.40,305.00 490.03,305.00 490.67,305.00 491.30,305.00 491.95,305.00 492.58,305.00 493.22,305.00 493.86,305.00 494.50,305.00 495.14,305.00 495.77,305.00 496.41,305.00 497.04,305.00 497.67,305.00 498.31,305.00 498.95,305.00 499.59,305.00 500.23,305.00 500.87,305.00 501.50,305.00 502.14,305.00 502.79,305.00 503.42,305.00 504.06,305.00 504.71,305.00 505.34,305.00 505.98,305.00 506.62,305.00 507.26,305.00 507.90,305.00 508.54,305.00 509.19,305.00 509.83,305.00 510.47,305.00 511.11,305.00 511.74,305.00 512.38,305.00 513.02,305.00 513.67,305.00 514.31,305.00 514.94,305.00 515.58,305.00 516.21,305.00 516.86,305.00 517.50,305.00 518.14,305.00 518.78,305.00 519.41,305.00 520.04,305.00 520.68,305.00 521.31,305.00 521.95,305.00 522.59,305.00 523.23,305.00 523.86,305.00 524.50,305.00 525.14,305.00 525.79,305.00 526.43,305.00 527.06,305.00 527.70,305.00 528.33,305.00 528.97,305.00 529.61,305.00 530.25,305.00 530.89,305.00 531.52,305.00 532.16,305.00 532.80,305.00 533.44,305.00 534.08,305.00 534.72,305.00 535.38,305.00 536.02,305.00 536.66,305.00 537.30,305.00 537.94,305.00 538.58,305.00 539.21,305.00 539.85,305.00 540.48,305.00 541.12,305.00 541.76,305.00 542.40,305.00 543.04,305.00 543.69,305.00 544.35,305.00 544.99,305.00 545.62,305.00 546.26,305.00 546.90,305.00 547.54,305.00 548.18,305.00 548.83,305.00 549.47,305.00 550.11,305.00 550.75,305.00 551.39,305.00 552.03,305.00 552.67,305.00 553.31,305.00 553.94,305.00 554.58,305.00 555.22,305.00 555.87,305.00 556.50,305.00 557.14,305.00 557.78,305.00 558.42,305.00 559.06,305.00 559.70,305.00 560.34,305.00 561.00,305.00 561.64,305.00 562.28,305.00 562.92,305.00 563.57,305.00 564.23,305.00 564.88,305.00 565.53,305.00 566.18,305.00 566.83,305.00 567.46,305.00 568.10,305.00 568.74,305.00 569.38,305.00 570.02,305.00 570.68,305.00 571.31,305.00 571.95,305.00 572.59,305.00 573.23,305.00 573.86,305.00 574.51,305.00 575.14,305.00 575.78,305.00 576.41,305.00 577.05,305.00 577.69,305.00 578.31,305.00 578.95,305.00 579.59,305.00 580.24,305.00 580.87,305.00 581.51,305.00 582.16,305.00 582.79,305.00 583.43,305.00 584.07,305.00 584.71,305.00 585.34,305.00 585.98,305.00 586.62,305.00 587.26,305.00 587.89,305.00 588.52,305.00 589.16,305.00 589.79,305.00 590.43,305.00 591.07,305.00 591.71,305.00 592.35,305.00 592.98,305.00 593.62,305.00 594.26,305.00 594.90,305.00 595.52,305.00 596.16,305.00 596.78,305.00 597.42,305.00 598.06,305.00 598.71,305.00 599.34,305.00 599.98,305.00 600.62,305.00 601.27,305.00 601.91,305.00 602.54,305.00 603.19,305.00 603.83,305.00 604.46,305.00 605.11,305.00 605.74,305.00 606.39,305.00 607.03,305.00 607.67,305.00 608.30,305.00 608.94,305.00 609.57,305.00 610.21,305.00 610.85,305.00 611.47,305.00 612.11,305.00 612.75,305.00 613.39,305.00 614.03,305.00 614.66,305.00 615.30,305.00 615.94,305.00 616.58,305.00 617.22,305.00 617.86,305.00 618.49,305.00 619.13,305.00 619.78,305.00 620.41,305.00 621.04,305.00 621.69,305.00 622.32,305.00 622.96,305.00 623.60,305.00 624.24,305.00 624.88,305.00 625.51,305.00 626.14,305.00 626.80,305.00 627.44,305.00 628.09,305.00 628.74,305.00 629.38,305.00 630.02,305.00 630.65,305.00 631.30,305.00 631.94,305.00 632.57,305.00 633.21,305.00 633.86,305.00 634.51,305.00 635.14,305.00 635.78,305.00 636.42,305.00 637.06,305.00 637.70,305.00 638.33,305.00 638.97,305.00 639.61,305.00 640.24,305.00 640.88,305.00 641.51,305.00 642.16,305.00 642.79,305.00 643.42,305.00 644.06,305.00 644.70,305.00 645.33,305.00 645.98,305.00 646.62,305.00 647.25,305.00 647.89,305.00 648.53,305.00 649.16,305.00 649.80,305.00 650.44,305.00 651.09,305.00 651.72,305.00 652.35,305.00 652.99,305.00 653.63,305.00 654.27,305.00 654.90,305.00 655.55,305.00 656.20,305.00 656.85,305.00 657.50,305.00 658.15,305.00 658.80,305.00 659.46,305.00 660.10,305.00 660.77,305.00 661.42,305.00 662.07,305.00 662.71,305.00 663.34,305.00 663.98,305.00 664.63,305.00 665.27,305.00 665.91,305.00 666.55,305.00 667.19,305.00 667.83,305.00 668.47,305.00 669.10,305.00 669.73,305.00 670.37,305.00 671.01,305.00 671.64,305.00 672.29,305.00 672.92,305.00 673.56,305.00 674.21,305.00 674.85,305.00 675.49,305.00 676.12,305.00 676.76,305.00 677.40,305.00 678.04,305.00 678.68,305.00 679.31,305.00 679.95,305.00 680.59,305.00 681.23,305.00 681.86,305.00 682.51,305.00 683.14,305.00 683.78,305.00 684.46,305.00 685.12,305.00 685.76,305.00 686.40,305.00 687.03,305.00 687.68,305.00 688.32,305.00 688.97,305.00 689.61,305.00 690.24,305.00 690.86,305.00 691.50,305.00 692.14,305.00 692.78,305.00 693.42,305.00 694.05,305.00 694.69,305.00 695.34,305.00 695.98,305.00 696.61,305.00 697.25,305.00 697.88,305.00 698.53,305.00 699.16,305.00 699.80,305.00 700.44,305.00 701.08,305.00 701.72,305.00 702.36,305.00 703.02,305.00 703.66,305.00 704.30,305.00 704.94,305.00 705.58,305.00 706.21,305.00 706.86,305.00 707.50,305.00 708.13,305.00 708.77,305.00 709.41,305.00 710.06,305.00 710.70,305.00 711.35,305.00 711.98,305.00 712.62,305.00 713.26,305.00 713.89,305.00 714.54,305.00 715.17,305.00 715.82,305.00 716.45,305.00 717.09,305.00 717.73,305.00 718.36,305.00 719.01,305.00 719.64,305.00 720.28,305.00 720.92,305.00 721.55,305.00 722.20,305.00 722.83,305.00 723.47,305.00 724.10,305.00 724.75,305.00 725.39,305.00 726.02,305.00 726.66,305.00 727.29,305.00 727.92,305.00 728.56,305.00 729.21,305.00 729.84,305.00 730.50,305.00 731.14,305.00 731.77,305.00 732.42,305.00 733.05,305.00 733.70,305.00 734.39,305.00 735.04,305.00 735.68,305.00 736.33,305.00 736.97,305.00 737.61,305.00 738.24,305.00 738.89,305.00 739.52,305.00 740.16,305.00 740.81,305.00 741.44,305.00 742.08,305.00 742.73,305.00 743.38,305.00 744.02,305.00 744.65,305.00 745.29,305.00 745.93,305.00 746.57,305.00 747.21,305.00 747.85,305.00 748.49,305.00 749.13,305.00 749.77,305.00 750.41,305.00 751.05,305.00 751.69,305.00 752.34,305.00 752.98,305.00 753.62,305.00 754.25,305.00 754.90,305.00 755.54,305.00 756.17,305.00 756.81,305.00 757.45,305.00 758.08,305.00 758.72,305.00 759.37,305.00 760.00,305.00 760.64,305.00 761.28,305.00 761.92,305.00 762.56,305.00 763.20,305.00 763.84,305.00 764.48,305.00 765.13,305.00 765.75,305.00 766.37,305.00 767.01,305.00 767.65,305.00 768.29,305.00 768.93,305.00 769.58,305.00 770.21,305.00 770.86,305.00 771.50,305.00 772.14,305.00 772.78,305.00 773.41,305.00 774.05,305.00 774.68,305.00 775.31,305.00 775.95,305.00 776.59,305.00 777.23,305.00 777.86,305.00 778.50,305.00 779.14,305.00 779.78,305.00 780.42,305.00 781.05,305.00 781.68,305.00 782.30,305.00 782.95,305.00 783.59,305.00 784.23,305.00 784.87,305.00 785.52,305.00 786.15,305.00 786.79,305.00 787.43,305.00 788.07,305.00 788.71,305.00 789.34,305.00 790.03,305.00 790.67,305.00 791.31,305.00 791.95,305.00 792.60,305.00 793.23,305.00 793.87,305.00 794.51,305.00 795.15,305.00 795.78,305.00 796.42,305.00 797.06,305.00 797.70,305.00 798.35,305.00 798.98,305.00 799.62,305.00 800.26,305.00 800.90,305.00 801.54,305.00 802.18,305.00 802.82,305.00 803.47,305.00 804.12,305.00 804.76,305.00 805.40,305.00 806.04,305.00 806.68,305.00 807.32,305.00 807.96,305.00 808.60,305.00 809.23,305.00 809.87,305.00 810.51,305.00 811.15,305.00 811.79,305.00 812.43,305.00 813.07,305.00 813.71,305.00 814.34,305.00 814.98,305.00 815.62,305.00 816.26,305.00 816.89,305.00 817.53,305.00 818.17,305.00 818.80,305.00 819.43,305.00 820.07,305.00 820.71,305.00 821.34,305.00 821.97,305.00 822.61,305.00 823.25,305.00 823.88,305.00 824.52,305.00 825.15,305.00 825.79,305.00 826.43,305.00 827.06,305.00 827.69,305.00 828.33,305.00 828.98,305.00 829.61,305.00 830.25,305.00 830.89,305.00 831.55,305.00 832.18,305.00 832.83,305.00 833.47,305.00 834.11,305.00 834.75,305.00 835.39,305.00 836.03,305.00 836.67,305.00 837.31,305.00 837.94,305.00 838.57,305.00 839.21,305.00 839.85,305.00 840.49,305.00 841.12,305.00 841.76,305.00 842.40,305.00 843.03,305.00 843.67,305.00 844.32,305.00 844.98,305.00 845.62,305.00 846.25,305.00 846.88,305.00 847.51,305.00 848.16,305.00 848.80,305.00 849.44,305.00 850.08,305.00 850.71,305.00 851.35,305.00 851.99,305.00 852.63,305.00 853.27,305.00 853.91,305.00 854.55,305.00 855.19,305.00 855.82,305.00 856.46,305.00 857.09,305.00 857.72,305.00 858.36,305.00 859.00,305.00 859.63,305.00 860.27,305.00 860.91,305.00 861.55,305.00 862.19,305.00 862.83,305.00 863.46,305.00 864.10,305.00 864.74,305.00 865.37,305.00 866.02,305.00 866.65,305.00 867.29,305.00 867.93,305.00 868.56,305.00 869.19,305.00 869.83,305.00 870.47,305.00 871.10,305.00 871.76,305.00 872.40,305.00 873.03,305.00 873.67,305.00 874.31,305.00 874.95,305.00 875.60,305.00 876.24,305.00 876.92,305.00 877.56,305.00 878.25,305.00 878.88,305.00 879.51,305.00 880.15,305.00 880.79,305.00 881.42,305.00 882.06,305.00 882.70,305.00 883.34,305.00 883.97,305.00 884.61,305.00 885.25,305.00 885.88,305.00 886.52,305.00 887.16,305.00 887.79,305.00 888.43,305.00 889.06,305.00 889.70,305.00 890.34,305.00 890.99,305.00 891.62,305.00 892.25,305.00 892.89,305.00 893.52,305.00 894.17,305.00 894.81,305.00 895.44,305.00 896.08,305.00 896.72,305.00 897.35,305.00 897.99,305.00 898.63,305.00 899.26,305.00 899.90,305.00 900.53,305.00 901.16,305.00 901.79,305.00 902.43,305.00 903.07,305.00 903.71,305.00 904.35,305.00 905.01,305.00 905.65,305.00 906.29,305.00 906.92,305.00 907.56,305.00 908.18,305.00 908.82,305.00 909.46,305.00 910.09,305.00 910.73,305.00 911.36,305.00 911.99,305.00 912.63,305.00 913.26,305.00 913.90,305.00 914.53,305.00 915.17,305.00 915.82,305.00 916.44,305.00 917.08,305.00 917.73,305.00 918.36,305.00 919.00,305.00 919.64,305.00 920.27,305.00 920.91,305.00 921.55,305.00 922.19,305.00 922.84,305.00 923.47,305.00 924.10,305.00 924.74,305.00 925.38,305.00 926.01,305.00 926.67,305.00 927.31,305.00 927.95,305.00 928.60,305.00 929.23,305.00 929.87,305.00 930.50,305.00 931.14,305.00 931.79,305.00 932.42,305.00 933.05,305.00 933.69,305.00 934.34,305.00 934.98,305.00 935.62,305.00 936.27,305.00 936.92,305.00 937.60,305.00 938.24,305.00 938.88,305.00 939.51,305.00 940.14,305.00 940.79,305.00 941.42,305.00 942.06,305.00 942.70,305.00 943.34,305.00 943.98,305.00 944.62,305.00 945.25,305.00 945.89,305.00 946.53,305.00 947.17,305.00 947.82,305.00 948.47,305.00 949.11,305.00 949.76,305.00 950.43,305.00 951.07,305.00 951.74,305.00 952.38,305.00 953.02,305.00 953.66,305.00 954.30,305.00 954.94,305.00 955.58,305.00 956.21,305.00 956.85,305.00 957.48,305.00 958.12,305.00 958.77,305.00 959.41,305.00 960.05,305.00 960.70,305.00 961.45,305.00 962.08,305.00 962.72,305.00 963.35,305.00 963.98,305.00 964.62,305.00 965.25,305.00 965.84,305.00 966.41,305.00 967.10,305.00 967.70,305.00 968.28,305.00 968.93,305.00 969.48,305.00 970.12,305.00 970.76,305.00 971.39,305.00 972.03,305.00 972.66,305.00 973.30,305.00 973.93,305.00 974.56,305.00 975.21,305.00 975.84,305.00 976.47,305.00 977.11,305.00 977.75,305.00 978.38,305.00 979.02,305.00 979.65,305.00 980.28,305.00 980.91,305.00 981.54,305.00 982.18,305.00 982.81,305.00 983.45,305.00 984.10,305.00 984.73,305.00 985.36,305.00 985.99,305.00 986.63,305.00 987.26,305.00 987.89,305.00 988.52,305.00 989.16,305.00 989.79,305.00 990.43,305.00 991.06,305.00 991.70,305.00 992.33,305.00 992.97,305.00 993.61,305.00 994.24,305.00 994.87,305.00 995.51,305.00 996.15,305.00 996.78,305.00 997.41,305.00 998.04,305.00 998.67,305.00 999.31,305.00 999.94,305.00 1000.57,305.00 1001.20,305.00 1001.85,305.00 1002.49,305.00 1003.13,305.00 1003.76,305.00 1004.40,305.00 1005.04,305.00 1005.67,305.00 1006.31,305.00 1006.95,305.00 1007.58,305.00 1008.22,305.00 1008.85,305.00 1009.48,305.00 1010.12,305.00 1010.76,305.00 1011.39,305.00 1012.03,305.00 1012.66,305.00 1013.29,305.00 1013.93,305.00 1014.57,305.00 1015.20,305.00 1015.84,305.00 1016.47,305.00 1017.11,305.00 1017.75,305.00 1018.38,305.00 1019.08,305.00 1019.71,305.00 1020.35,305.00 1020.98,305.00 1021.62,305.00 1022.25,305.00 1022.88,305.00 1023.53,305.00 1024.42,305.00 1025.05,305.00 1025.94,305.00 1026.57,305.00 1027.21,305.00 1027.85,305.00 1028.48,305.00 1029.12,305.00 1029.75,305.00 1030.38,305.00 1031.01,305.00 1031.65,305.00 1032.28,305.00 1032.91,305.00 1033.54,305.00 1034.19,305.00 1034.83,305.00 1035.47,305.00 1036.10,305.00 1036.74,305.00 1037.37,305.00 1038.02,305.00 1038.65,305.00 1039.29,305.00 1039.92,305.00 1040.56,305.00 1041.19,305.00 1041.83,305.00 1042.47,305.00 1043.11,305.00 1043.74,305.00 1044.38,305.00 1045.02,305.00 1045.67,305.00 1046.33,305.00 1046.97,305.00 1047.63,305.00 1048.27,305.00 1048.90,305.00 1049.54,305.00 1050.18,305.00 1050.82,305.00 1051.45,305.00 1052.09,305.00 1052.72,305.00 1053.37,305.00 1054.01,305.00 1054.65,305.00 1055.29,305.00 1055.93,305.00 1056.57,305.00 1057.20,305.00 1057.84,305.00 1058.48,305.00 1059.12,305.00 1059.76,305.00 1060.40,305.00 1061.04,305.00 1061.69,305.00 1062.33,305.00 1062.96,305.00 1063.60,305.00 1064.24,305.00 1064.87,305.00 1065.52,305.00 1066.17,305.00 1066.81,305.00 1067.44,305.00 1068.08,305.00 1068.72,305.00 1069.36,305.00 1070.00,305.00 1070.63,305.00 1071.27,305.00 1071.90,305.00 1072.54,305.00 1073.17,305.00 1073.81,305.00 1074.47,305.00 1075.11,305.00 1075.75,305.00 1076.39,305.00 1077.02,305.00 1077.66,305.00 1078.29,305.00 1078.93,305.00 1079.57,305.00 1080.20,305.00 1080.84,305.00 1081.48,305.00 1082.12,305.00 1082.77,305.00 1083.40,305.00 1084.04,305.00 1084.67,305.00 1085.31,305.00 1085.95,305.00 1086.60,305.00 1087.24,305.00 1087.87,305.00 1088.51,305.00 1089.16,305.00 1089.79,305.00 1090.43,305.00 1091.08,305.00 1091.71,305.00 1092.36,305.00 1093.00,305.00 1093.64,305.00 1094.27,305.00 1094.90,305.00 1095.54,305.00 1096.19,305.00 1096.83,305.00 1097.48,305.00 1098.13,305.00 1098.77,305.00 1099.41,305.00 1100.05,305.00 1100.69,305.00 1101.32,305.00 1101.96,305.00 1102.60,305.00 1103.25,305.00 1103.88,305.00 1104.52,305.00 1105.16,305.00 1105.80,305.00 1106.44,305.00 1107.08,305.00 1107.71,305.00 1108.36,305.00 1109.01,305.00 1109.66,305.00 1110.29,305.00 1110.94,305.00 1111.57,305.00 1112.21,305.00 1112.85,305.00 1113.49,305.00 1114.15,305.00 1114.79,305.00 1115.42,305.00 1116.07,305.00 1116.71,305.00 1117.34,305.00 1118.00,305.00 1118.64,305.00 1119.30,305.00 1119.93,305.00 1120.58,305.00 1121.22,305.00 1121.90,305.00 1122.53,305.00 1123.18,305.00 1123.82,305.00 1124.46,305.00 1125.09,305.00 1125.73,305.00 1126.37,305.00 1127.02,305.00 1127.65,305.00 1128.31,305.00 1128.95,305.00 1129.59,305.00 1130.23,305.00 1130.87,305.00 1131.51,305.00 1132.16,305.00 1132.80,305.00 1133.44,305.00 1134.08,305.00 1134.72,305.00 1135.35,305.00 1136.01,305.00 1136.65,305.00 1137.28,305.00 1137.91,305.00 1138.54,305.00 1139.18,305.00 1139.82,305.00 1140.45,305.00 1141.11,305.00 1141.75,305.00 1142.38,305.00 1143.02,305.00 1143.66,305.00 1144.29,305.00 1144.93,305.00 1145.57,305.00 1146.21,305.00 1146.85,305.00 1147.48,305.00 1148.11,305.00 1148.76,305.00 1149.39,305.00 1150.05,305.00 1150.69,305.00 1151.34,305.00 1151.97,305.00 1152.61,305.00 1153.24,305.00 1153.87,305.00 1154.51,305.00 1155.15,305.00 1155.82,305.00 1156.46,305.00 1157.10,305.00 1157.73,305.00 1158.37,305.00 1159.00,305.00 1159.63,305.00 1160.26,305.00 1160.91,305.00 1161.55,305.00 1162.18,305.00 1162.81,305.00 1163.44,305.00 1164.08,305.00 1164.72,305.00 1165.35,305.00 1165.99,305.00 1166.63,305.00 1167.26,305.00 1167.91,305.00 1168.56,305.00 1169.19,305.00 1169.83,305.00 1170.46,305.00 1171.10,305.00 1171.75,305.00 1172.38,305.00 1173.01,305.00 1173.65,305.00 1174.28,305.00 1174.92,305.00 1175.56,305.00 1176.20,305.00 1176.83,305.00 1177.46,305.00 1178.10,305.00 1178.74,305.00 1179.37,305.00 1180.00,305.00"/>
<rect x="70" y="332" width="12" height="12" fill="#9467bd" fill-opacity="0.95"/>
<text x="88" y="342" font-size="11" fill="#333" font-family="Arial, Helvetica, sans-serif">nsc1.utdallas.edu</text>
<rect x="350" y="332" width="12" height="12" fill="#9467bd" fill-opacity="0.80"/>
<text x="368" y="342" font-size="11" fill="#333" font-family="Arial, Helvetica, sans-serif">nsc2.utdallas.edu</text>
<rect x="630" y="332" width="12" height="12" fill="#9467bd" fill-opacity="0.65"/>
<text x="648" y="342" font-size="11" fill="#333" font-family="Arial, Helvetica, sans-serif">nsc3.utdallas.edu</text>
<rect x="910" y="332" width="12" height="12" fill="#9467bd" fill-opacity="0.50"/>
<text x="928" y="342" font-size="11" fill="#333" font-family="Arial, Helvetica, sans-serif">nsc4.utdallas.edu</text>
</svg>