<?xml version="1.0" encoding="UTF-8"?>
<svg xmlns="http://www.w3.org/2000/svg" width="1200" height="360" viewBox="0 0 1200 360" role="img" aria-label="GPU Utilization (%)">
<rect width="100%" height="100%" fill="#ffffff"/>
<text x="600.0" y="22" text-anchor="middle" font-size="16" font-family="Arial, Helvetica, sans-serif" font-weight="bold">GPU Utilization (%)</text>
<line x1="70" y1="35.00" x2="1180" y2="35.00" stroke="#e3e3e3" stroke-width="1"/>
<text x="62" y="39.00" text-anchor="end" font-size="11" fill="#444" font-family="Arial, Helvetica, sans-serif">100</text>
<line x1="70" y1="89.00" x2="1180" y2="89.00" stroke="#e3e3e3" stroke-width="1"/>
<text x="62" y="93.00" text-anchor="end" font-size="11" fill="#444" font-family="Arial, Helvetica, sans-serif">80</text>
<line x1="70" y1="143.00" x2="1180" y2="143.00" stroke="#e3e3e3" stroke-width="1"/>
<text x="62" y="147.00" text-anchor="end" font-size="11" fill="#444" font-family="Arial, Helvetica, sans-serif">60</text>
<line x1="70" y1="197.00" x2="1180" y2="197.00" stroke="#e3e3e3" stroke-width="1"/>
<text x="62" y="201.00" text-anchor="end" font-size="11" fill="#444" font-family="Arial, Helvetica, sans-serif">40</text>
<line x1="70" y1="251.00" x2="1180" y2="251.00" stroke="#e3e3e3" stroke-width="1"/>
<text x="62" y="255.00" text-anchor="end" font-size="11" fill="#444" font-family="Arial, Helvetica, sans-serif">20</text>
<line x1="70" y1="305.00" x2="1180" y2="305.00" stroke="#e3e3e3" stroke-width="1"/>
<text x="62" y="309.00" text-anchor="end" font-size="11" fill="#444" font-family="Arial, Helvetica, sans-serif">0</text>
<line x1="70" y1="35" x2="70" y2="305" stroke="#999"/>
<line x1="70" y1="305" x2="1180" y2="305" stroke="#999"/>
<text x="70.00" y="323" text-anchor="middle" font-size="10" fill="#444" font-family="Arial, Helvetica, sans-serif">2026-02-11 16:38</text>
<text x="347.50" y="323" text-anchor="middle" font-size="10" fill="#444" font-family="Arial, Helvetica, sans-serif">2026-02-11 19:24</text>
<text x="625.00" y="323" text-anchor="middle" font-size="10" fill="#444" font-family="Arial, Helvetica, sans-serif">2026-02-11 22:10</text>
<text x="902.50" y="323" text-anchor="middle" font-size="10" fill="#444" font-family="Arial, Helvetica, sans-serif">2026-02-12 00:57</text>
<text x="1180.00" y="323" text-anchor="middle" font-size="10" fill="#444" font-family="Arial, Helvetica, sans-serif">2026-02-12 03:43</text>
<polyline fill="none" stroke="#9467bd" stroke-opacity="0.95" stroke-width="2" points="78.98,305.00 87.98,305.00 96.93,305.00 105.94,305.00 115.00,305.00 123.89,305.00 132.89,305.00 142.62,305.00 151.54,305.00 160.46,305.00 169.39,305.00 178.50,305.00 187.42,305.00 196.34,305.00 212.49,305.00 226.42,305.00 235.48,305.00 244.68,305.00 253.62,305.00 262.57,305.00 271.36,305.00 280.42,305.00 289.37,305.00 298.40,305.00 307.43,305.00 316.57,305.00 325.58,305.00 334.58,305.00 344.01,305.00 353.07,305.00 362.01,305.00 371.21,305.00 380.19,305.00 389.17,305.00 398.42,305.00 407.32,305.00 416.29,305.00 425.44,305.00 434.30,305.00 443.28,305.00 452.15,305.00 461.09,305.00 470.10,305.00 479.02,305.00 488.19,305.00 497.25,305.00 506.12,305.00 515.07,305.00 524.13,305.00 533.10,305.00 543.36,305.00 552.34,305.00 561.29,305.00 570.18,305.00 579.10,305.00 587.99,305.00 596.92,305.00 605.92,305.00 614.87,305.00 624.01,305.00 632.96,305.00 641.83,305.00 650.86,305.00 659.95,305.00 668.90,305.00 677.90,305.00 686.77,305.00 695.66,305.00 704.58,305.00 713.48,305.00 722.43,305.00 731.40,305.00 740.30,305.00 749.27,305.00 758.28,305.00 767.14,305.00 776.18,305.00 785.07,305.00 793.99,305.00 803.19,305.00 812.14,305.00 821.09,305.00 830.12,305.00 839.04,305.00 848.05,305.00 857.00,305.00 865.86,305.00 874.76,305.00 883.79,305.00 892.82,305.00 901.77,305.00 910.83,305.00 919.67,305.00 928.67,305.00 937.59,305.00 946.54,305.00 955.44,305.00 964.41,305.00 973.31,305.00 982.34,305.00 991.32,305.00 1000.29,305.00 1009.27,305.00 1018.36,305.00 1027.39,305.00 1036.34,305.00 1045.26,305.00 1054.21,305.00 1063.13,305.00 1072.19,305.00 1081.17,305.00 1090.12,305.00 1099.07,305.00 1108.07,305.00 1117.08,305.00 1126.11,305.00 1135.23,305.00 1144.15,305.00 1153.12,305.00 1162.10,305.00 1171.05,305.00 1180.00,305.00"/>
<polyline fill="none" stroke="#9467bd" stroke-opacity="0.80" stroke-width="2" points="70.00,305.00 78.98,305.00 87.98,305.00 96.93,305.00 105.94,305.00 115.00,305.00 123.89,305.00 132.89,305.00 142.62,305.00 151.54,305.00 160.46,305.00 169.39,305.00 178.50,305.00 187.42,305.00 196.34,305.00 212.49,305.00 226.42,305.00 235.48,305.00 244.68,305.00 253.62,305.00 262.57,305.00 271.36,305.00 280.42,305.00 289.37,305.00 298.40,305.00 307.43,305.00 316.57,305.00 325.58,305.00 334.58,305.00 344.01,305.00 353.07,305.00 362.01,305.00 371.21,305.00 380.19,305.00 389.17,305.00 398.42,305.00 407.32,305.00 416.29,305.00 425.44,305.00 434.30,305.00 443.28,305.00 452.15,305.00 461.09,305.00 470.10,305.00 479.02,305.00 488.19,305.00 497.25,305.00 506.12,305.00 515.07,305.00 524.13,305.00 533.10,305.00 543.36,305.00 552.34,305.00 561.29,305.00 570.18,305.00 579.10,305.00 587.99,305.00 596.92,305.00 605.92,305.00 614.87,305.00 624.01,305.00 632.96,305.00 641.83,305.00 650.86,305.00 659.95,305.00 668.90,305.00 677.90,305.00 686.77,305.00 695.66,305.00 704.58,305.00 713.48,305.00 722.43,305.00 731.40,305.00 740.30,305.00 749.27,305.00 758.28,305.00 767.14,305.00 776.18,305.00 785.07,305.00 793.99,305.00 803.19,305.00 812.14,305.00 821.09,305.00 830.12,305.00 839.04,305.00 848.05,305.00 857.00,305.00 865.86,305.00 874.76,305.00 883.79,305.00 892.82,305.00 901.77,305.00 910.83,305.00 919.67,305.00 928.67,305.00 937.59,305.00 946.54,305.00 955.44,305.00 964.41,305.00 973.31,305.00 982.34,305.00 991.32,305.00 1000.29,305.00 1009.27,305.00 1018.36,305.00 1027.39,305.00 1036.34,305.00 1045.26,305.00 1054.21,305.00 1063.13,305.00 1072.19,305.00 1081.17,305.00 1090.12,305.00 1099.07,305.00 1108.07,305.00 1117.08,305.00 1126.11,305.00 1135.23,305.00 1144.15,305.00 1153.12,305.00 1162.10,305.00 1171.05,305.00 1180.00,305.00"/>
<polyline fill="none" stroke="#9467bd" stroke-opacity="0.65" stroke-width="2" points="70.00,305.00 78.98,305.00 87.98,305.00 96.93,305.00 105.94,305.00 115.00,305.00 123.89,305.00 132.89,305.00 142.62,305.00 151.54,305.00 160.46,305.00 169.39,305.00 178.50,305.00 187.42,305.00 196.34,305.00 212.49,305.00 226.42,305.00 235.48,305.00 244.68,305.00 253.62,305.00 262.57,305.00 271.36,305.00 280.42,305.00 289.37,305.00 298.40,305.00 307.43,305.00 316.57,305.00 325.58,305.00 334.58,305.00 344.01,305.00 353.07,305.00 362.01,305.00 371.21,305.00 380.19,305.00 389.17,305.00 398.42,305.00 407.32,305.00 416.29,305.00 425.44,305.00 434.30,305.00 443.28,305.00 452.15,305.00 461.09,305.00 470.10,305.00 479.02,305.00 488.19,305.00 497.25,305.00 506.12,305.00 515.07,305.00 524.13,305.00 533.10,305.00 543.36,305.00 552.34,305.00 561.29,305.00 570.18,305.00 579.10,305.00 587.99,305.00 596.92,305.00 605.92,305.00 614.87,305.00 624.01,305.00 632.96,305.00 641.83,305.00 650.86,305.00 659.95,305.00 668.90,305.00 677.90,305.00 686.77,305.00 695.66,305.00 704.58,305.00 713.48,305.00 722.43,305.00 731.40,305.00 740.30,305.00 749.27,305.00 758.28,305.00 767.14,305.00 776.18,305.00 785.07,305.00 793.99,305.00 803.19,305.00 812.14,305.00 821.09,305.00 830.12,305.00 839.04,305.00 848.05,305.00 857.00,305.00 865.86,305.00 874.76,305.00 883.79,305.00 892.82,305.00 901.77,305.00 910.83,305.00 919.67,305.00 928.67,305.00 937.59,305.00 946.54,305.00 955.44,305.00 964.41,305.00 973.31,305.00 982.34,305.00 991.32,305.00 1000.29,305.00 1009.27,305.00 1018.36,305.00 1027.39,305.00 1036.34,305.00 1045.26,305.00 1054.21,305.00 1063.13,305.00 1072.19,305.00 1081.17,305.00 1090.12,305.00 1099.07,305.00 1108.07,305.00 1117.08,305.00 1126.11,305.00 1135.23,305.00 1144.15,305.00 1153.12,305.00 1162.10,305.00 1171.05,305.00 1180.00,305.00"/>
<rect x="70" y="332" width="12" height="12" fill="#9467bd" fill-opacity="0.95"/>
<text x="88" y="342" font-size="11" fill="#333" font-family="Arial, Helvetica, sans-serif">nsc1.utdallas.edu</text>
<rect x="350" y="332" width="12" height="12" fill="#9467bd" fill-opacity="0.80"/>
<text x="368" y="342" font-size="11" fill="#333" font-family="Arial, Helvetica, sans-serif">nsc2.utdallas.edu</text>
<rect x="630" y="332" width="12" height="12" fill="#9467bd" fill-opacity="0.65"/>
<text x="648" y="342" font-size="11" fill="#333" font-family="Arial, Helvetica, sans-serif">nsc4.utdallas.edu</text>
</svg>