<?xml version="1.0" encoding="UTF-8"?>
<svg xmlns="http://www.w3.org/2000/svg" width="1200" height="360" viewBox="0 0 1200 360" role="img" aria-label="GPU Utilization (%)">
<rect width="100%" height="100%" fill="#ffffff"/>
<text x="600.0" y="22" text-anchor="middle" font-size="16" font-family="Arial, Helvetica, sans-serif" font-weight="bold">GPU Utilization (%)</text>
<line x1="70" y1="35.00" x2="1180" y2="35.00" stroke="#e3e3e3" stroke-width="1"/>
<text x="62" y="39.00" text-anchor="end" font-size="11" fill="#444" font-family="Arial, Helvetica, sans-serif">100</text>
<line x1="70" y1="89.00" x2="1180" y2="89.00" stroke="#e3e3e3" stroke-width="1"/>
<text x="62" y="93.00" text-anchor="end" font-size="11" fill="#444" font-family="Arial, Helvetica, sans-serif">80</text>
<line x1="70" y1="143.00" x2="1180" y2="143.00" stroke="#e3e3e3" stroke-width="1"/>
<text x="62" y="147.00" text-anchor="end" font-size="11" fill="#444" font-family="Arial, Helvetica, sans-serif">60</text>
<line x1="70" y1="197.00" x2="1180" y2="197.00" stroke="#e3e3e3" stroke-width="1"/>
<text x="62" y="201.00" text-anchor="end" font-size="11" fill="#444" font-family="Arial, Helvetica, sans-serif">40</text>
<line x1="70" y1="251.00" x2="1180" y2="251.00" stroke="#e3e3e3" stroke-width="1"/>
<text x="62" y="255.00" text-anchor="end" font-size="11" fill="#444" font-family="Arial, Helvetica, sans-serif">20</text>
<line x1="70" y1="305.00" x2="1180" y2="305.00" stroke="#e3e3e3" stroke-width="1"/>
<text x="62" y="309.00" text-anchor="end" font-size="11" fill="#444" font-family="Arial, Helvetica, sans-serif">0</text>
<line x1="70" y1="35" x2="70" y2="305" stroke="#999"/>
<line x1="70" y1="305" x2="1180" y2="305" stroke="#999"/>
<text x="70.00" y="323" text-anchor="middle" font-size="10" fill="#444" font-family="Arial, Helvetica, sans-serif">2026-02-11 16:38</text>
<text x="347.50" y="323" text-anchor="middle" font-size="10" fill="#444" font-family="Arial, Helvetica, sans-serif">2026-02-11 19:01</text>
<text x="625.00" y="323" text-anchor="middle" font-size="10" fill="#444" font-family="Arial, Helvetica, sans-serif">2026-02-11 21:25</text>
<text x="902.50" y="323" text-anchor="middle" font-size="10" fill="#444" font-family="Arial, Helvetica, sans-serif">2026-02-11 23:48</text>
<text x="1180.00" y="323" text-anchor="middle" font-size="10" fill="#444" font-family="Arial, Helvetica, sans-serif">2026-02-12 02:12</text>
<polyline fill="none" stroke="#9467bd" stroke-opacity="0.95" stroke-width="2" points="80.41,305.00 90.85,305.00 101.22,305.00 111.66,305.00 122.17,305.00 132.48,305.00 142.92,305.00 154.20,305.00 164.54,305.00 174.88,305.00 185.23,305.00 195.80,305.00 206.14,305.00 216.48,305.00 235.20,305.00 251.35,305.00 261.85,305.00 272.52,305.00 282.89,305.00 293.27,305.00 303.45,305.00 313.96,305.00 324.33,305.00 334.80,305.00 345.28,305.00 355.88,305.00 366.32,305.00 376.76,305.00 387.68,305.00 398.19,305.00 408.56,305.00 419.23,305.00 429.64,305.00 440.04,305.00 450.77,305.00 461.08,305.00 471.49,305.00 482.09,305.00 492.37,305.00 502.78,305.00 513.06,305.00 523.43,305.00 533.87,305.00 544.22,305.00 554.85,305.00 565.36,305.00 575.64,305.00 586.01,305.00 596.52,305.00 606.92,305.00 618.81,305.00 629.22,305.00 639.60,305.00 649.91,305.00 660.25,305.00 670.56,305.00 680.91,305.00 691.35,305.00 701.72,305.00 712.32,305.00 722.70,305.00 732.98,305.00 743.45,305.00 753.99,305.00 764.36,305.00 774.80,305.00 785.08,305.00 795.39,305.00 805.74,305.00 816.05,305.00 826.42,305.00 836.83,305.00 847.14,305.00 857.55,305.00 867.99,305.00 878.27,305.00 888.74,305.00 899.05,305.00 909.40,305.00 920.06,305.00 930.44,305.00 940.81,305.00 951.28,305.00 961.63,305.00 972.07,305.00 982.44,305.00 992.72,305.00 1003.03,305.00 1013.51,305.00 1023.98,305.00 1034.35,305.00 1044.86,305.00 1055.11,305.00 1065.55,305.00 1075.89,305.00 1086.26,305.00 1096.58,305.00 1106.98,305.00 1117.30,305.00 1127.77,305.00 1138.18,305.00 1148.58,305.00 1158.99,305.00 1169.53,305.00 1180.00,305.00"/>
<polyline fill="none" stroke="#9467bd" stroke-opacity="0.80" stroke-width="2" points="70.00,305.00 80.41,305.00 90.85,305.00 101.22,305.00 111.66,305.00 122.17,305.00 132.48,305.00 142.92,305.00 154.20,305.00 164.54,305.00 174.88,305.00 185.23,305.00 195.80,305.00 206.14,305.00 216.48,305.00 235.20,305.00 251.35,305.00 261.85,305.00 272.52,305.00 282.89,305.00 293.27,305.00 303.45,305.00 313.96,305.00 324.33,305.00 334.80,305.00 345.28,305.00 355.88,305.00 366.32,305.00 376.76,305.00 387.68,305.00 398.19,305.00 408.56,305.00 419.23,305.00 429.64,305.00 440.04,305.00 450.77,305.00 461.08,305.00 471.49,305.00 482.09,305.00 492.37,305.00 502.78,305.00 513.06,305.00 523.43,305.00 533.87,305.00 544.22,305.00 554.85,305.00 565.36,305.00 575.64,305.00 586.01,305.00 596.52,305.00 606.92,305.00 618.81,305.00 629.22,305.00 639.60,305.00 649.91,305.00 660.25,305.00 670.56,305.00 680.91,305.00 691.35,305.00 701.72,305.00 712.32,305.00 722.70,305.00 732.98,305.00 743.45,305.00 753.99,305.00 764.36,305.00 774.80,305.00 785.08,305.00 795.39,305.00 805.74,305.00 816.05,305.00 826.42,305.00 836.83,305.00 847.14,305.00 857.55,305.00 867.99,305.00 878.27,305.00 888.74,305.00 899.05,305.00 909.40,305.00 920.06,305.00 930.44,305.00 940.81,305.00 951.28,305.00 961.63,305.00 972.07,305.00 982.44,305.00 992.72,305.00 1003.03,305.00 1013.51,305.00 1023.98,305.00 1034.35,305.00 1044.86,305.00 1055.11,305.00 1065.55,305.00 1075.89,305.00 1086.26,305.00 1096.58,305.00 1106.98,305.00 1117.30,305.00 1127.77,305.00 1138.18,305.00 1148.58,305.00 1158.99,305.00 1169.53,305.00 1180.00,305.00"/>
<polyline fill="none" stroke="#9467bd" stroke-opacity="0.65" stroke-width="2" points="70.00,305.00 80.41,305.00 90.85,305.00 101.22,305.00 111.66,305.00 122.17,305.00 132.48,305.00 142.92,305.00 154.20,305.00 164.54,305.00 174.88,305.00 185.23,305.00 195.80,305.00 206.14,305.00 216.48,305.00 235.20,305.00 251.35,305.00 261.85,305.00 272.52,305.00 282.89,305.00 293.27,305.00 303.45,305.00 313.96,305.00 324.33,305.00 334.80,305.00 345.28,305.00 355.88,305.00 366.32,305.00 376.76,305.00 387.68,305.00 398.19,305.00 408.56,305.00 419.23,305.00 429.64,305.00 440.04,305.00 450.77,305.00 461.08,305.00 471.49,305.00 482.09,305.00 492.37,305.00 502.78,305.00 513.06,305.00 523.43,305.00 533.87,305.00 544.22,305.00 554.85,305.00 565.36,305.00 575.64,305.00 586.01,305.00 596.52,305.00 606.92,305.00 618.81,305.00 629.22,305.00 639.60,305.00 649.91,305.00 660.25,305.00 670.56,305.00 680.91,305.00 691.35,305.00 701.72,305.00 712.32,305.00 722.70,305.00 732.98,305.00 743.45,305.00 753.99,305.00 764.36,305.00 774.80,305.00 785.08,305.00 795.39,305.00 805.74,305.00 816.05,305.00 826.42,305.00 836.83,305.00 847.14,305.00 857.55,305.00 867.99,305.00 878.27,305.00 888.74,305.00 899.05,305.00 909.40,305.00 920.06,305.00 930.44,305.00 940.81,305.00 951.28,305.00 961.63,305.00 972.07,305.00 982.44,305.00 992.72,305.00 1003.03,305.00 1013.51,305.00 1023.98,305.00 1034.35,305.00 1044.86,305.00 1055.11,305.00 1065.55,305.00 1075.89,305.00 1086.26,305.00 1096.58,305.00 1106.98,305.00 1117.30,305.00 1127.77,305.00 1138.18,305.00 1148.58,305.00 1158.99,305.00 1169.53,305.00 1180.00,305.00"/>
<rect x="70" y="332" width="12" height="12" fill="#9467bd" fill-opacity="0.95"/>
<text x="88" y="342" font-size="11" fill="#333" font-family="Arial, Helvetica, sans-serif">nsc1.utdallas.edu</text>
<rect x="350" y="332" width="12" height="12" fill="#9467bd" fill-opacity="0.80"/>
<text x="368" y="342" font-size="11" fill="#333" font-family="Arial, Helvetica, sans-serif">nsc2.utdallas.edu</text>
<rect x="630" y="332" width="12" height="12" fill="#9467bd" fill-opacity="0.65"/>
<text x="648" y="342" font-size="11" fill="#333" font-family="Arial, Helvetica, sans-serif">nsc4.utdallas.edu</text>
</svg>