<?xml version="1.0" encoding="UTF-8"?>
<svg xmlns="http://www.w3.org/2000/svg" width="1200" height="360" viewBox="0 0 1200 360" role="img" aria-label="GPU Utilization (%)">
<rect width="100%" height="100%" fill="#ffffff"/>
<text x="600.0" y="22" text-anchor="middle" font-size="16" font-family="Arial, Helvetica, sans-serif" font-weight="bold">GPU Utilization (%)</text>
<line x1="70" y1="35.00" x2="1180" y2="35.00" stroke="#e3e3e3" stroke-width="1"/>
<text x="62" y="39.00" text-anchor="end" font-size="11" fill="#444" font-family="Arial, Helvetica, sans-serif">100</text>
<line x1="70" y1="89.00" x2="1180" y2="89.00" stroke="#e3e3e3" stroke-width="1"/>
<text x="62" y="93.00" text-anchor="end" font-size="11" fill="#444" font-family="Arial, Helvetica, sans-serif">80</text>
<line x1="70" y1="143.00" x2="1180" y2="143.00" stroke="#e3e3e3" stroke-width="1"/>
<text x="62" y="147.00" text-anchor="end" font-size="11" fill="#444" font-family="Arial, Helvetica, sans-serif">60</text>
<line x1="70" y1="197.00" x2="1180" y2="197.00" stroke="#e3e3e3" stroke-width="1"/>
<text x="62" y="201.00" text-anchor="end" font-size="11" fill="#444" font-family="Arial, Helvetica, sans-serif">40</text>
<line x1="70" y1="251.00" x2="1180" y2="251.00" stroke="#e3e3e3" stroke-width="1"/>
<text x="62" y="255.00" text-anchor="end" font-size="11" fill="#444" font-family="Arial, Helvetica, sans-serif">20</text>
<line x1="70" y1="305.00" x2="1180" y2="305.00" stroke="#e3e3e3" stroke-width="1"/>
<text x="62" y="309.00" text-anchor="end" font-size="11" fill="#444" font-family="Arial, Helvetica, sans-serif">0</text>
<line x1="70" y1="35" x2="70" y2="305" stroke="#999"/>
<line x1="70" y1="305" x2="1180" y2="305" stroke="#999"/>
<text x="70.00" y="323" text-anchor="middle" font-size="10" fill="#444" font-family="Arial, Helvetica, sans-serif">2026-02-11 16:38</text>
<text x="347.50" y="323" text-anchor="middle" font-size="10" fill="#444" font-family="Arial, Helvetica, sans-serif">2026-02-12 10:40</text>
<text x="625.00" y="323" text-anchor="middle" font-size="10" fill="#444" font-family="Arial, Helvetica, sans-serif">2026-02-13 04:42</text>
<text x="902.50" y="323" text-anchor="middle" font-size="10" fill="#444" font-family="Arial, Helvetica, sans-serif">2026-02-13 22:45</text>
<text x="1180.00" y="323" text-anchor="middle" font-size="10" fill="#444" font-family="Arial, Helvetica, sans-serif">2026-02-14 16:47</text>
<polyline fill="none" stroke="#9467bd" stroke-opacity="0.95" stroke-width="2" points="71.38,305.00 72.76,305.00 74.14,305.00 75.52,305.00 76.92,305.00 78.29,305.00 79.67,305.00 81.17,305.00 82.54,305.00 83.91,305.00 85.28,305.00 86.68,305.00 88.05,305.00 89.42,305.00 91.91,305.00 94.05,305.00 95.44,305.00 96.86,305.00 98.23,305.00 99.61,305.00 100.96,305.00 102.35,305.00 103.73,305.00 105.11,305.00 106.50,305.00 107.91,305.00 109.29,305.00 110.68,305.00 112.13,305.00 113.52,305.00 114.90,305.00 116.31,305.00 117.69,305.00 119.07,305.00 120.49,305.00 121.86,305.00 123.24,305.00 124.65,305.00 126.01,305.00 127.39,305.00 128.75,305.00 130.13,305.00 131.51,305.00 132.88,305.00 134.29,305.00 135.69,305.00 137.05,305.00 138.43,305.00 139.82,305.00 141.20,305.00 142.78,305.00 144.16,305.00 145.53,305.00 146.90,305.00 148.27,305.00 149.64,305.00 151.01,305.00 152.39,305.00 153.77,305.00 155.18,305.00 156.55,305.00 157.92,305.00 159.30,305.00 160.70,305.00 162.08,305.00 163.46,305.00 164.82,305.00 166.19,305.00 167.56,305.00 168.93,305.00 170.31,305.00 171.69,305.00 173.05,305.00 174.43,305.00 175.82,305.00 177.18,305.00 178.57,305.00 179.94,305.00 181.31,305.00 182.72,305.00 184.10,305.00 185.48,305.00 186.86,305.00 188.24,305.00 189.62,305.00 191.00,305.00 192.36,305.00 193.73,305.00 195.12,305.00 196.50,305.00 197.88,305.00 199.27,305.00 200.63,305.00 202.02,305.00 203.39,305.00 204.76,305.00 206.13,305.00 207.51,305.00 208.88,305.00 210.27,305.00 211.65,305.00 213.03,305.00 214.41,305.00 215.81,305.00 217.19,305.00 218.57,305.00 219.94,305.00 221.32,305.00 222.69,305.00 224.08,305.00 225.46,305.00 226.84,305.00 228.21,305.00 229.60,305.00 230.98,305.00 232.37,305.00 233.77,305.00 235.14,305.00 236.52,305.00 237.90,305.00 239.28,305.00 240.66,305.00 242.05,305.00 243.54,305.00 244.91,305.00 246.31,305.00 247.69,305.00 249.05,305.00 250.42,305.00 251.77,305.00 253.15,305.00 254.53,305.00 255.91,305.00 257.28,305.00 258.65,305.00 260.03,305.00 261.40,305.00 262.80,305.00 264.17,305.00 265.55,305.00 266.92,305.00 268.30,305.00 269.67,305.00 271.06,305.00 272.44,305.00 273.82,305.00 275.20,305.00 276.58,305.00 277.95,305.00 279.32,305.00 280.69,305.00 282.07,305.00 283.45,305.00 284.85,305.00 286.23,305.00 287.60,305.00 289.00,305.00 290.38,305.00 291.74,305.00 293.13,305.00 294.51,305.00 295.91,305.00 297.31,305.00 298.68,305.00 300.06,305.00 301.43,305.00 302.80,305.00 304.17,305.00 305.55,305.00 306.93,305.00 308.29,305.00 309.66,305.00 311.05,305.00 312.43,305.00 313.82,305.00 315.19,305.00 316.60,305.00 317.98,305.00 319.36,305.00 320.73,305.00 322.09,305.00 323.59,305.00 325.00,305.00 326.37,305.00 327.74,305.00 329.10,305.00 330.49,305.00 331.86,305.00 333.25,305.00 334.63,305.00 336.00,305.00 337.37,305.00 338.75,305.00 340.16,305.00 341.54,305.00 342.91,305.00 344.28,305.00 345.68,305.00 347.08,305.00 348.49,305.00 349.86,305.00 351.24,305.00 352.62,305.00 353.99,305.00 355.38,305.00 356.76,305.00 358.15,305.00 359.53,305.00 360.89,305.00 362.29,305.00 363.67,305.00 365.04,305.00 366.42,305.00 367.82,305.00 369.20,305.00 370.57,305.00 371.93,305.00 373.31,305.00 374.69,305.00 376.07,305.00 377.44,305.00 378.81,305.00 380.18,305.00 381.55,305.00 382.94,305.00 384.32,305.00 385.71,305.00 387.10,305.00 388.48,305.00 389.87,305.00 391.24,305.00 392.63,305.00 394.00,305.00 395.38,305.00 396.76,305.00 398.17,305.00 399.55,305.00 400.94,305.00 402.32,305.00 403.69,305.00 405.07,305.00 406.44,305.00 407.81,305.00 409.20,305.00 410.58,305.00 411.96,305.00 413.34,305.00 414.73,305.00 416.11,305.00 417.49,305.00 418.88,305.00 420.27,305.00 421.64,305.00 423.02,305.00 424.41,305.00 425.80,305.00 427.18,305.00 428.56,305.00 429.93,305.00 431.46,305.00 432.85,305.00 434.23,305.00 435.61,305.00 437.01,305.00 438.39,305.00 439.77,305.00 441.16,305.00 442.52,305.00 443.95,80.90 445.34,72.80 446.71,305.00 448.09,305.00 449.47,305.00 450.85,305.00 452.23,305.00 453.66,305.00 455.04,305.00 456.41,305.00 457.81,305.00 459.30,305.00 460.68,305.00 462.41,305.00 464.75,305.00 466.16,305.00 467.57,305.00 468.94,305.00 470.29,305.00 471.66,305.00 473.07,305.00 474.45,305.00 475.84,305.00 477.27,305.00 478.70,305.00 480.16,305.00 481.55,305.00 482.93,305.00 484.31,305.00 485.70,305.00 487.10,305.00 488.49,305.00 489.87,305.00 491.24,305.00 492.68,305.00 494.07,305.00 495.43,305.00 496.81,305.00 498.22,305.00 499.65,305.00 501.04,305.00 502.42,305.00 503.83,305.00 505.16,305.00 506.53,305.00 507.93,305.00 509.30,305.00 510.71,305.00 512.13,305.00 513.51,305.00 514.89,305.00 516.29,305.00 517.68,305.00 519.06,305.00 520.44,305.00 521.80,305.00 523.19,305.00 524.58,305.00 525.94,305.00 527.59,305.00 529.21,305.00 530.84,305.00 532.45,305.00 534.02,305.00 535.61,305.00 537.24,305.00 538.85,305.00 540.24,305.00 541.60,305.00 542.97,305.00 544.35,305.00 545.73,305.00 547.10,305.00 548.47,305.00 549.84,305.00 551.22,305.00 552.60,305.00 553.97,305.00 555.34,305.00 556.72,305.00 558.09,305.00 559.46,305.00 560.84,305.00 562.22,305.00 563.58,305.00 564.96,305.00 566.35,305.00 567.71,305.00 569.08,305.00 570.45,305.00 571.83,305.00 573.21,305.00 574.59,305.00 575.96,305.00 577.34,305.00 578.72,305.00 580.09,305.00 581.47,305.00 582.85,305.00 584.21,305.00 585.59,305.00 586.95,305.00 588.31,305.00 589.68,305.00 591.05,305.00 592.42,305.00 593.79,305.00 595.16,305.00 596.54,305.00 597.90,305.00 599.27,305.00 600.62,305.00 602.04,305.00 603.53,305.00 604.91,305.00 606.29,305.00 607.66,305.00 609.03,305.00 610.40,305.00 611.76,305.00 613.14,305.00 614.76,305.00 616.38,305.00 617.98,305.00 619.60,305.00 621.22,305.00 622.83,305.00 624.47,305.00 626.14,305.00 627.65,305.00 629.13,305.00 630.51,305.00 631.90,305.00 633.28,305.00 634.64,305.00 636.01,305.00 637.39,305.00 638.77,305.00 640.14,305.00 641.51,305.00 642.89,305.00 644.27,305.00 645.64,305.00 647.04,305.00 648.41,305.00 649.78,305.00 650.99,305.00 652.41,305.00 653.78,305.00 655.19,305.00 656.57,305.00 657.94,305.00 659.33,305.00 660.72,305.00 662.10,305.00 663.50,305.00 664.88,305.00 666.29,305.00 667.65,305.00 669.02,305.00 670.40,305.00 671.76,305.00 673.13,305.00 674.50,305.00 675.89,305.00 677.26,305.00 678.64,305.00 680.02,305.00 681.39,305.00 682.78,305.00 684.15,305.00 685.54,305.00 686.93,305.00 688.30,305.00 689.67,305.00 691.07,305.00 692.45,305.00 693.87,305.00 695.23,305.00 696.60,305.00 697.98,305.00 699.34,305.00 700.71,305.00 702.11,305.00 703.48,305.00 704.85,305.00 706.23,305.00 707.59,305.00 708.97,305.00 710.35,305.00 711.74,305.00 713.12,305.00 714.78,305.00 716.19,305.00 717.61,305.00 719.00,305.00 720.38,305.00 721.78,305.00 723.14,305.00 724.51,305.00 725.90,305.00 727.29,305.00 728.66,305.00 730.05,305.00 731.43,305.00 732.81,305.00 734.24,305.00 735.64,305.00 737.02,305.00 738.40,305.00 739.78,305.00 741.15,305.00 742.52,305.00 743.90,305.00 745.34,305.00 746.73,305.00 748.11,305.00 749.49,305.00 750.87,305.00 752.25,305.00 753.63,305.00 755.01,305.00 756.39,305.00 757.77,305.00 759.16,305.00 760.54,305.00 761.91,305.00 763.29,305.00 764.67,305.00 766.07,305.00 767.45,305.00 768.82,305.00 770.20,305.00 771.58,305.00 772.98,305.00 774.36,305.00 776.02,305.00 777.44,305.00 778.81,305.00 780.20,305.00 781.57,305.00 782.96,305.00 784.34,305.00 785.72,305.00 787.13,305.00 788.50,305.00 789.87,305.00 791.24,305.00 792.62,305.00 794.00,305.00 795.38,305.00 796.77,305.00 798.14,305.00 799.51,305.00 800.88,305.00 802.26,305.00 803.66,305.00 805.03,305.00 806.40,305.00 807.80,305.00 809.19,305.00 810.56,305.00 811.94,305.00 813.32,305.00 814.74,305.00 816.11,305.00 817.49,305.00 818.88,305.00 820.26,305.00 821.63,305.00 823.02,305.00 824.40,305.00 825.82,305.00 827.19,305.00 828.57,305.00 829.93,305.00 831.31,305.00 832.69,305.00 834.07,305.00 835.44,305.00 836.84,305.00 838.23,305.00 839.62,305.00 840.97,305.00 842.37,305.00 843.74,305.00 845.12,305.00 846.49,305.00 847.88,305.00 849.25,305.00 850.65,305.00 852.03,305.00 853.40,305.00 854.80,305.00 856.19,305.00 857.57,305.00 858.95,305.00 860.35,305.00 861.90,305.00 863.41,305.00 864.89,305.00 866.28,305.00 867.72,305.00 869.11,305.00 870.49,305.00 871.85,305.00 873.14,305.00 874.58,305.00 875.96,305.00 877.36,305.00 878.72,305.00 880.10,305.00 881.48,305.00 882.87,305.00 884.24,305.00 885.63,305.00 887.00,305.00 888.39,305.00 889.77,305.00 891.16,305.00 892.55,305.00 893.94,305.00 895.33,305.00 896.71,305.00 898.09,305.00 899.50,305.00 900.89,305.00 902.26,305.00 903.63,305.00 905.02,305.00 906.39,305.00 907.77,305.00 909.15,305.00 910.53,305.00 911.93,305.00 913.30,305.00 914.68,305.00 916.06,305.00 917.45,305.00 918.83,305.00 920.22,305.00 921.59,305.00 922.98,305.00 924.36,305.00 925.75,305.00 927.14,305.00 928.53,305.00 929.92,305.00 931.30,305.00 932.69,305.00 934.07,305.00 935.46,305.00 936.89,305.00 938.27,305.00 939.66,305.00 941.04,305.00 942.42,305.00 943.80,305.00 945.18,305.00 946.57,305.00 947.96,305.00 949.33,305.00 950.72,305.00 952.11,305.00 953.49,305.00 954.89,305.00 956.27,305.00 957.67,305.00 959.06,305.00 960.44,305.00 961.85,305.00 963.23,305.00 964.60,305.00 965.99,305.00 967.37,305.00 968.79,305.00 970.18,305.00 971.58,305.00 972.96,305.00 974.33,305.00 975.71,305.00 977.09,305.00 978.48,305.00 979.87,305.00 981.25,305.00 982.63,305.00 984.01,305.00 985.40,305.00 986.79,305.00 988.18,305.00 989.55,305.00 990.95,305.00 992.34,305.00 993.73,305.00 995.11,305.00 996.49,305.00 997.86,305.00 999.23,305.00 1000.62,305.00 1002.01,305.00 1003.40,305.00 1004.78,305.00 1006.18,305.00 1007.55,305.00 1008.95,305.00 1010.35,305.00 1011.72,305.00 1013.11,305.00 1014.51,305.00 1015.89,305.00 1017.28,305.00 1018.67,305.00 1020.07,305.00 1021.46,305.00 1022.84,305.00 1024.26,305.00 1025.65,305.00 1027.04,305.00 1028.43,305.00 1029.80,305.00 1031.20,305.00 1032.59,305.00 1033.99,305.00 1035.37,305.00 1036.76,305.00 1038.14,305.00 1039.51,305.00 1040.93,305.00 1042.31,305.00 1043.71,305.00 1045.09,305.00 1046.47,305.00 1047.84,305.00 1049.21,305.00 1050.59,305.00 1051.98,305.00 1053.37,305.00 1054.76,305.00 1056.13,305.00 1057.52,305.00 1058.91,305.00 1060.33,305.00 1061.72,305.00 1063.09,305.00 1064.48,305.00 1065.85,305.00 1067.24,305.00 1068.62,305.00 1070.02,305.00 1071.40,305.00 1072.78,305.00 1074.18,305.00 1075.56,305.00 1076.94,305.00 1078.33,305.00 1079.73,305.00 1081.15,305.00 1082.55,305.00 1083.94,305.00 1085.34,305.00 1086.72,305.00 1088.12,305.00 1089.49,305.00 1090.87,305.00 1092.24,305.00 1093.64,305.00 1095.03,305.00 1096.43,305.00 1097.81,305.00 1099.22,305.00 1100.66,305.00 1102.04,305.00 1103.42,305.00 1104.81,305.00 1106.19,305.00 1107.59,305.00 1108.98,305.00 1110.38,305.00 1111.77,305.00 1113.17,305.00 1114.56,305.00 1115.95,305.00 1117.34,305.00 1118.73,305.00 1120.11,305.00 1121.50,305.00 1122.88,305.00 1124.28,305.00 1125.67,305.00 1127.06,305.00 1128.44,305.00 1129.84,305.00 1131.23,305.00 1132.61,305.00 1134.01,305.00 1135.40,305.00 1136.83,305.00 1138.22,305.00 1139.62,305.00 1141.01,305.00 1142.42,305.00 1143.84,305.00 1145.26,305.00 1146.66,305.00 1148.09,305.00 1149.49,305.00 1150.87,305.00 1152.26,305.00 1153.65,305.00 1155.04,305.00 1156.43,305.00 1157.86,305.00 1159.24,305.00 1160.63,305.00 1162.02,305.00 1163.40,305.00 1164.78,305.00 1166.17,305.00 1167.55,305.00 1168.94,305.00 1170.32,305.00 1171.70,305.00 1173.08,305.00 1174.45,305.00 1175.83,305.00 1177.23,305.00 1178.62,305.00 1180.00,305.00"/>
<polyline fill="none" stroke="#9467bd" stroke-opacity="0.80" stroke-width="2" points="70.00,305.00 71.38,305.00 72.76,305.00 74.14,305.00 75.52,305.00 76.92,305.00 78.29,305.00 79.67,305.00 81.17,305.00 82.54,305.00 83.91,305.00 85.28,305.00 86.68,305.00 88.05,305.00 89.42,305.00 91.91,305.00 94.05,305.00 95.44,305.00 96.86,305.00 98.23,305.00 99.61,305.00 100.96,305.00 102.35,305.00 103.73,305.00 105.11,305.00 106.50,305.00 107.91,305.00 109.29,305.00 110.68,305.00 112.13,305.00 113.52,305.00 114.90,305.00 116.31,305.00 117.69,305.00 119.07,305.00 120.49,305.00 121.86,305.00 123.24,305.00 124.65,305.00 126.01,305.00 127.39,305.00 128.75,305.00 130.13,305.00 131.51,305.00 132.88,305.00 134.29,305.00 135.69,305.00 137.05,305.00 138.43,305.00 139.82,305.00 141.20,305.00 142.78,305.00 144.16,305.00 145.53,305.00 146.90,305.00 148.27,305.00 149.64,305.00 151.01,305.00 152.39,305.00 153.77,305.00 155.18,305.00 156.55,305.00 157.92,305.00 159.30,305.00 160.70,305.00 162.08,305.00 163.46,305.00 164.82,305.00 166.19,305.00 167.56,305.00 168.93,305.00 170.31,305.00 171.69,305.00 173.05,305.00 174.43,305.00 175.82,305.00 177.18,305.00 178.57,305.00 179.94,305.00 181.31,305.00 182.72,305.00 184.10,305.00 185.48,305.00 186.86,305.00 188.24,305.00 189.62,305.00 191.00,305.00 192.36,305.00 193.73,305.00 195.12,305.00 196.50,305.00 197.88,305.00 199.27,305.00 200.63,305.00 202.02,305.00 203.39,305.00 204.76,305.00 206.13,305.00 207.51,305.00 208.88,305.00 210.27,305.00 211.65,305.00 213.03,305.00 214.41,305.00 215.81,305.00 217.19,305.00 218.57,305.00 219.94,305.00 221.32,305.00 222.69,305.00 224.08,305.00 225.46,305.00 226.84,305.00 228.21,305.00 229.60,305.00 230.98,305.00 232.37,305.00 233.77,305.00 235.14,305.00 236.52,305.00 237.90,305.00 239.28,305.00 240.66,305.00 242.05,305.00 243.54,305.00 244.91,305.00 246.31,305.00 247.69,305.00 249.05,305.00 250.42,305.00 251.77,305.00 253.15,305.00 254.53,305.00 255.91,305.00 257.28,305.00 258.65,305.00 260.03,305.00 261.40,305.00 262.80,305.00 264.17,305.00 265.55,305.00 266.92,305.00 268.30,305.00 269.67,305.00 271.06,305.00 272.44,305.00 273.82,305.00 275.20,305.00 276.58,305.00 277.95,305.00 279.32,305.00 280.69,305.00 282.07,305.00 283.45,305.00 284.85,305.00 286.23,305.00 287.60,305.00 289.00,305.00 290.38,305.00 291.74,305.00 293.13,305.00 294.51,305.00 295.91,305.00 297.31,305.00 298.68,305.00 300.06,305.00 301.43,305.00 302.80,305.00 304.17,305.00 305.55,305.00 306.93,305.00 308.29,305.00 309.66,305.00 311.05,305.00 312.43,305.00 313.82,305.00 315.19,305.00 316.60,305.00 317.98,305.00 319.36,305.00 320.73,305.00 322.09,305.00 323.59,305.00 325.00,305.00 326.37,305.00 327.74,305.00 329.10,305.00 330.49,305.00 331.86,305.00 333.25,305.00 334.63,305.00 336.00,305.00 337.37,305.00 338.75,305.00 340.16,305.00 341.54,305.00 342.91,305.00 344.28,305.00 345.68,305.00 347.08,305.00 348.49,305.00 349.86,305.00 351.24,305.00 352.62,305.00 353.99,305.00 355.38,305.00 356.76,305.00 358.15,305.00 359.53,305.00 360.89,305.00 362.29,305.00 363.67,305.00 365.04,305.00 366.42,305.00 367.82,305.00 369.20,305.00 370.57,305.00 371.93,305.00 373.31,305.00 374.69,305.00 376.07,305.00 377.44,305.00 378.81,305.00 380.18,305.00 381.55,305.00 382.94,305.00 384.32,305.00 385.71,305.00 387.10,305.00 388.48,305.00 389.87,305.00 391.24,305.00 392.63,305.00 394.00,305.00 395.38,305.00 396.76,305.00 398.17,305.00 399.55,305.00 400.94,305.00 402.32,305.00 403.69,305.00 405.07,305.00 406.44,305.00 407.81,305.00 409.20,305.00 410.58,305.00 411.96,305.00 413.34,305.00 414.73,305.00 416.11,305.00 417.49,305.00 418.88,305.00 420.27,305.00 421.64,305.00 423.02,305.00 424.41,305.00 425.80,305.00 427.18,305.00 428.56,305.00 429.93,305.00 431.46,305.00 432.85,305.00 434.23,305.00 435.61,305.00 437.01,305.00 438.39,305.00 439.77,305.00 441.16,305.00 442.52,305.00 443.95,305.00 445.34,305.00 446.71,305.00 448.09,305.00 449.47,305.00 450.85,305.00 452.23,305.00 453.66,305.00 455.04,305.00 456.41,305.00 457.81,305.00 459.30,305.00 460.68,305.00 462.41,305.00 464.75,305.00 466.16,305.00 467.57,305.00 468.94,305.00 470.29,305.00 471.66,305.00 473.07,305.00 474.45,305.00 475.84,305.00 477.27,305.00 478.70,305.00 480.16,305.00 481.55,305.00 482.93,305.00 484.31,305.00 485.70,305.00 487.10,305.00 488.49,305.00 489.87,305.00 491.24,305.00 492.68,305.00 494.07,305.00 495.43,305.00 496.81,305.00 498.22,305.00 499.65,305.00 501.04,305.00 502.42,305.00 503.83,305.00 505.16,305.00 506.53,305.00 507.93,305.00 509.30,305.00 510.71,305.00 512.13,305.00 513.51,305.00 514.89,305.00 516.29,305.00 517.68,305.00 519.06,305.00 520.44,305.00 521.80,305.00 523.19,305.00 524.58,305.00 525.94,305.00 527.59,305.00 529.21,305.00 530.84,305.00 532.45,305.00 534.02,305.00 535.61,305.00 537.24,305.00 538.85,305.00 540.24,305.00 541.60,305.00 542.97,305.00 544.35,305.00 545.73,305.00 547.10,305.00 548.47,305.00 549.84,305.00 551.22,305.00 552.60,305.00 553.97,305.00 555.34,305.00 556.72,305.00 558.09,305.00 559.46,305.00 560.84,305.00 562.22,305.00 563.58,305.00 564.96,305.00 566.35,305.00 567.71,305.00 569.08,305.00 570.45,305.00 571.83,305.00 573.21,305.00 574.59,305.00 575.96,305.00 577.34,305.00 578.72,305.00 580.09,305.00 581.47,305.00 582.85,305.00 584.21,305.00 585.59,305.00 586.95,305.00 588.31,305.00 589.68,305.00 591.05,305.00 592.42,305.00 593.79,305.00 595.16,305.00 596.54,305.00 597.90,305.00 599.27,305.00 600.62,305.00 602.04,305.00 603.53,305.00 604.91,305.00 606.29,305.00 607.66,305.00 609.03,305.00 610.40,305.00 611.76,305.00 613.14,305.00 614.76,305.00 616.38,305.00 617.98,305.00 619.60,305.00 621.22,305.00 622.83,305.00 624.47,305.00 626.14,305.00 627.65,305.00 629.13,305.00 630.51,305.00 631.90,305.00 633.28,305.00 634.64,305.00 636.01,305.00 637.39,305.00 638.77,305.00 640.14,305.00 641.51,305.00 642.89,305.00 644.27,305.00 645.64,305.00 647.04,305.00 648.41,305.00 649.78,305.00 650.99,305.00 652.41,305.00 653.78,305.00 655.19,305.00 656.57,305.00 657.94,305.00 659.33,305.00 660.72,305.00 662.10,305.00 663.50,305.00 664.88,305.00 666.29,305.00 667.65,305.00 669.02,305.00 670.40,305.00 671.76,305.00 673.13,305.00 674.50,305.00 675.89,305.00 677.26,305.00 678.64,305.00 680.02,305.00 681.39,305.00 682.78,305.00 684.15,305.00 685.54,305.00 686.93,305.00 688.30,305.00 689.67,305.00 691.07,305.00 692.45,305.00 693.87,305.00 695.23,305.00 696.60,305.00 697.98,305.00 699.34,305.00 700.71,305.00 702.11,305.00 703.48,305.00 704.85,305.00 706.23,305.00 707.59,305.00 708.97,305.00 710.35,305.00 711.74,305.00 713.12,305.00 714.78,305.00 716.19,305.00 717.61,305.00 719.00,305.00 720.38,305.00 721.78,305.00 723.14,305.00 724.51,305.00 725.90,305.00 727.29,305.00 728.66,305.00 730.05,305.00 731.43,305.00 732.81,305.00 734.24,305.00 735.64,305.00 737.02,305.00 738.40,305.00 739.78,305.00 741.15,305.00 742.52,305.00 743.90,305.00 745.34,305.00 746.73,305.00 748.11,305.00 749.49,305.00 750.87,305.00 752.25,305.00 753.63,305.00 755.01,305.00 756.39,305.00 757.77,305.00 759.16,305.00 760.54,305.00 761.91,305.00 763.29,305.00 764.67,305.00 766.07,305.00 767.45,305.00 768.82,305.00 770.20,305.00 771.58,305.00 772.98,305.00 774.36,305.00 776.02,305.00 777.44,305.00 778.81,305.00 780.20,305.00 781.57,305.00 782.96,305.00 784.34,305.00 785.72,305.00 787.13,305.00 788.50,305.00 789.87,305.00 791.24,305.00 792.62,305.00 794.00,305.00 795.38,305.00 796.77,305.00 798.14,305.00 799.51,305.00 800.88,305.00 802.26,305.00 803.66,305.00 805.03,305.00 806.40,305.00 807.80,305.00 809.19,305.00 810.56,305.00 811.94,305.00 813.32,305.00 814.74,305.00 816.11,305.00 817.49,305.00 818.88,305.00 820.26,305.00 821.63,305.00 823.02,305.00 824.40,305.00 825.82,305.00 827.19,305.00 828.57,305.00 829.93,305.00 831.31,305.00 832.69,305.00 834.07,305.00 835.44,305.00 836.84,305.00 838.23,305.00 839.62,305.00 840.97,305.00 842.37,305.00 843.74,305.00 845.12,305.00 846.49,305.00 847.88,305.00 849.25,305.00 850.65,305.00 852.03,305.00 853.40,305.00 854.80,305.00 856.19,305.00 857.57,305.00 858.95,305.00 860.35,305.00 861.90,305.00 863.41,305.00 864.89,305.00 866.28,305.00 867.72,305.00 869.11,305.00 870.49,305.00 871.85,305.00 873.14,305.00 874.58,305.00 875.96,305.00 877.36,305.00 878.72,305.00 880.10,305.00 881.48,305.00 882.87,305.00 884.24,305.00 885.63,305.00 887.00,305.00 888.39,305.00 889.77,305.00 891.16,305.00 892.55,305.00 893.94,305.00 895.33,305.00 896.71,305.00 898.09,305.00 899.50,305.00 900.89,305.00 902.26,305.00 903.63,305.00 905.02,305.00 906.39,305.00 907.77,305.00 909.15,305.00 910.53,305.00 911.93,305.00 913.30,305.00 914.68,305.00 916.06,305.00 917.45,305.00 918.83,305.00 920.22,305.00 921.59,305.00 922.98,305.00 924.36,305.00 925.75,305.00 927.14,305.00 928.53,305.00 929.92,305.00 931.30,305.00 932.69,305.00 934.07,305.00 935.46,305.00 936.89,305.00 938.27,305.00 939.66,305.00 941.04,305.00 942.42,305.00 943.80,305.00 945.18,305.00 946.57,305.00 947.96,305.00 949.33,305.00 950.72,305.00 952.11,305.00 953.49,305.00 954.89,305.00 956.27,305.00 957.67,305.00 959.06,305.00 960.44,305.00 961.85,305.00 963.23,305.00 964.60,305.00 965.99,305.00 967.37,305.00 968.79,305.00 970.18,305.00 971.58,305.00 972.96,305.00 974.33,305.00 975.71,305.00 977.09,305.00 978.48,305.00 979.87,305.00 981.25,305.00 982.63,305.00 984.01,305.00 985.40,305.00 986.79,305.00 988.18,305.00 989.55,305.00 990.95,305.00 992.34,305.00 993.73,305.00 995.11,305.00 996.49,305.00 997.86,305.00 999.23,305.00 1000.62,305.00 1002.01,305.00 1003.40,305.00 1004.78,305.00 1006.18,305.00 1007.55,305.00 1008.95,305.00 1010.35,305.00 1011.72,305.00 1013.11,305.00 1014.51,305.00 1015.89,305.00 1017.28,305.00 1018.67,305.00 1020.07,305.00 1021.46,305.00 1022.84,305.00 1024.26,305.00 1025.65,305.00 1027.04,305.00 1028.43,305.00 1029.80,305.00 1031.20,305.00 1032.59,305.00 1033.99,305.00 1035.37,305.00 1036.76,305.00 1038.14,305.00 1039.51,305.00 1040.93,305.00 1042.31,305.00 1043.71,305.00 1045.09,305.00 1046.47,305.00 1047.84,305.00 1049.21,305.00 1050.59,305.00 1051.98,305.00 1053.37,305.00 1054.76,305.00 1056.13,305.00 1057.52,305.00 1058.91,305.00 1060.33,305.00 1061.72,305.00 1063.09,305.00 1064.48,305.00 1065.85,305.00 1067.24,305.00 1068.62,305.00 1070.02,305.00 1071.40,305.00 1072.78,305.00 1074.18,305.00 1075.56,305.00 1076.94,305.00 1078.33,305.00 1079.73,305.00 1081.15,305.00 1082.55,305.00 1083.94,305.00 1085.34,305.00 1086.72,305.00 1088.12,305.00 1089.49,305.00 1090.87,305.00 1092.24,305.00 1093.64,305.00 1095.03,305.00 1096.43,305.00 1097.81,305.00 1099.22,305.00 1100.66,305.00 1102.04,305.00 1103.42,305.00 1104.81,305.00 1106.19,305.00 1107.59,305.00 1108.98,305.00 1110.38,305.00 1111.77,305.00 1113.17,305.00 1114.56,305.00 1115.95,305.00 1117.34,305.00 1118.73,305.00 1120.11,305.00 1121.50,305.00 1122.88,305.00 1124.28,305.00 1125.67,305.00 1127.06,305.00 1128.44,305.00 1129.84,305.00 1131.23,305.00 1132.61,305.00 1134.01,305.00 1135.40,305.00 1136.83,305.00 1138.22,305.00 1139.62,305.00 1141.01,305.00 1142.42,305.00 1143.84,305.00 1145.26,305.00 1146.66,305.00 1148.09,305.00 1149.49,305.00 1150.87,305.00 1152.26,305.00 1153.65,305.00 1155.04,305.00 1156.43,305.00 1157.86,305.00 1159.24,305.00 1160.63,305.00 1162.02,305.00 1163.40,305.00 1164.78,305.00 1166.17,305.00 1167.55,305.00 1168.94,305.00 1170.32,305.00 1171.70,305.00 1173.08,305.00 1174.45,305.00 1175.83,305.00 1177.23,305.00 1178.62,305.00 1180.00,305.00"/>
<polyline fill="none" stroke="#9467bd" stroke-opacity="0.65" stroke-width="2" points="650.99,305.00 652.41,305.00 653.78,305.00 655.19,305.00 656.57,305.00 657.94,305.00 659.33,305.00 660.72,305.00 662.10,305.00 663.50,305.00 664.88,305.00 666.29,305.00 667.65,305.00 669.02,305.00 670.40,305.00 671.76,305.00 673.13,305.00 674.50,305.00 675.89,305.00 677.26,305.00 678.64,305.00 680.02,305.00 681.39,305.00 682.78,305.00 684.15,305.00 685.54,305.00 686.93,305.00 688.30,305.00 689.67,305.00 691.07,305.00 692.45,305.00 693.87,305.00 695.23,305.00 696.60,305.00 697.98,305.00 699.34,305.00 700.71,305.00 702.11,305.00 703.48,305.00 704.85,305.00 706.23,305.00 707.59,305.00 708.97,305.00 710.35,305.00 711.74,305.00 713.12,305.00 714.78,305.00 716.19,305.00 717.61,305.00 719.00,305.00 720.38,305.00 721.78,305.00 723.14,305.00 724.51,305.00 725.90,305.00 727.29,305.00 728.66,305.00 730.05,305.00 731.43,305.00 732.81,305.00 734.24,305.00 735.64,305.00 737.02,305.00 738.40,305.00 739.78,305.00 741.15,305.00 742.52,305.00 743.90,305.00 745.34,305.00 746.73,305.00 748.11,305.00 749.49,305.00 750.87,305.00 752.25,305.00 753.63,305.00 755.01,305.00 756.39,305.00 757.77,305.00 759.16,305.00 760.54,305.00 761.91,305.00 763.29,305.00 764.67,305.00 766.07,305.00 767.45,305.00 768.82,305.00 770.20,305.00 771.58,305.00 772.98,305.00 774.36,305.00 776.02,305.00 777.44,305.00 778.81,305.00 780.20,305.00 781.57,305.00 782.96,305.00 784.34,305.00 785.72,305.00 787.13,305.00 788.50,305.00 789.87,305.00 791.24,305.00 792.62,305.00 794.00,305.00 795.38,305.00 796.77,305.00 798.14,305.00 799.51,305.00 800.88,305.00 802.26,305.00 803.66,305.00 805.03,305.00 806.40,305.00 807.80,305.00 809.19,305.00 810.56,305.00 811.94,305.00 813.32,305.00 814.74,305.00 816.11,305.00 817.49,305.00 818.88,305.00 820.26,305.00 821.63,305.00 823.02,305.00 824.40,305.00 825.82,305.00 827.19,305.00 828.57,305.00 829.93,305.00 831.31,305.00 832.69,305.00 834.07,305.00 835.44,305.00 836.84,305.00 838.23,305.00 839.62,305.00 840.97,305.00 842.37,305.00 843.74,305.00 845.12,305.00 846.49,305.00 847.88,305.00 849.25,305.00 850.65,305.00 852.03,305.00 853.40,305.00 854.80,305.00 856.19,305.00 857.57,305.00 858.95,305.00 860.35,305.00 861.90,305.00 863.41,305.00 864.89,305.00 866.28,305.00 867.72,305.00 869.11,305.00 870.49,305.00 871.85,305.00 873.14,305.00 874.58,305.00 875.96,305.00 877.36,305.00 878.72,305.00 880.10,305.00 881.48,305.00 882.87,305.00 884.24,305.00 885.63,305.00 887.00,305.00 888.39,305.00 889.77,305.00 891.16,305.00 892.55,305.00 893.94,305.00 895.33,305.00 896.71,305.00 898.09,305.00 899.50,305.00 900.89,305.00 902.26,305.00 903.63,305.00 905.02,305.00 906.39,305.00 907.77,305.00 909.15,305.00 910.53,305.00 911.93,305.00 913.30,305.00 914.68,305.00 916.06,305.00 917.45,305.00 918.83,305.00 920.22,305.00 921.59,305.00 922.98,305.00 924.36,305.00 925.75,305.00 927.14,305.00 928.53,305.00 929.92,305.00 931.30,305.00 932.69,305.00 934.07,305.00 935.46,305.00 936.89,305.00 938.27,305.00 939.66,305.00 941.04,305.00 942.42,305.00 943.80,305.00 945.18,305.00 946.57,305.00 947.96,305.00 949.33,305.00 950.72,305.00 952.11,305.00 953.49,305.00 954.89,305.00 956.27,305.00 957.67,305.00 959.06,305.00 960.44,305.00 961.85,305.00 963.23,305.00 964.60,305.00 965.99,305.00 967.37,305.00 968.79,305.00 970.18,305.00 971.58,305.00 972.96,305.00 974.33,305.00 975.71,305.00 977.09,305.00 978.48,305.00 979.87,305.00 981.25,305.00 982.63,305.00 984.01,305.00 985.40,305.00 986.79,305.00 988.18,305.00 989.55,305.00 990.95,305.00 992.34,305.00 993.73,305.00 995.11,305.00 996.49,305.00 997.86,305.00 999.23,305.00 1000.62,305.00 1002.01,305.00 1003.40,305.00 1004.78,305.00 1006.18,305.00 1007.55,305.00 1008.95,305.00 1010.35,305.00 1011.72,305.00 1013.11,305.00 1014.51,305.00 1015.89,305.00 1017.28,305.00 1018.67,305.00 1020.07,305.00 1021.46,305.00 1022.84,305.00 1024.26,305.00 1025.65,305.00 1027.04,305.00 1028.43,305.00 1029.80,305.00 1031.20,305.00 1032.59,305.00 1033.99,305.00 1035.37,305.00 1036.76,305.00 1038.14,305.00 1039.51,305.00 1040.93,305.00 1042.31,305.00 1043.71,305.00 1045.09,305.00 1046.47,305.00 1047.84,305.00 1049.21,305.00 1050.59,305.00 1051.98,305.00 1053.37,305.00 1054.76,305.00 1056.13,305.00 1057.52,305.00 1058.91,305.00 1060.33,305.00 1061.72,305.00 1063.09,305.00 1064.48,305.00 1065.85,305.00 1067.24,305.00 1068.62,305.00 1070.02,305.00 1071.40,305.00 1072.78,305.00 1074.18,305.00 1075.56,305.00 1076.94,305.00 1078.33,305.00 1079.73,305.00 1081.15,305.00 1082.55,305.00 1083.94,305.00 1085.34,305.00 1086.72,305.00 1088.12,305.00 1089.49,305.00 1090.87,305.00 1092.24,305.00 1093.64,305.00 1095.03,305.00 1096.43,305.00 1097.81,305.00 1099.22,305.00 1100.66,305.00 1102.04,305.00 1103.42,305.00 1104.81,305.00 1106.19,305.00 1107.59,305.00 1108.98,305.00 1110.38,305.00 1111.77,305.00 1113.17,305.00 1114.56,305.00 1115.95,305.00 1117.34,305.00 1118.73,305.00 1120.11,305.00 1121.50,305.00 1122.88,305.00 1124.28,305.00 1125.67,305.00 1127.06,305.00 1128.44,305.00 1129.84,305.00 1131.23,305.00 1132.61,305.00 1134.01,305.00 1135.40,305.00 1136.83,305.00 1138.22,305.00 1139.62,305.00 1141.01,305.00 1142.42,305.00 1143.84,305.00 1145.26,305.00 1146.66,305.00 1148.09,305.00 1149.49,305.00 1150.87,305.00 1152.26,305.00 1153.65,305.00 1155.04,305.00 1156.43,305.00 1157.86,305.00 1159.24,305.00 1160.63,305.00 1162.02,305.00 1163.40,305.00 1164.78,305.00 1166.17,305.00 1167.55,305.00 1168.94,305.00 1170.32,305.00 1171.70,305.00 1173.08,305.00 1174.45,305.00 1175.83,305.00 1177.23,305.00 1178.62,305.00 1180.00,305.00"/>
<polyline fill="none" stroke="#9467bd" stroke-opacity="0.50" stroke-width="2" points="70.00,305.00 71.38,305.00 72.76,305.00 74.14,305.00 75.52,305.00 76.92,305.00 78.29,305.00 79.67,305.00 81.17,305.00 82.54,305.00 83.91,305.00 85.28,305.00 86.68,305.00 88.05,305.00 89.42,305.00 91.91,305.00 94.05,305.00 95.44,305.00 96.86,305.00 98.23,305.00 99.61,305.00 100.96,305.00 102.35,305.00 103.73,305.00 105.11,305.00 106.50,305.00 107.91,305.00 109.29,305.00 110.68,305.00 112.13,305.00 113.52,305.00 114.90,305.00 116.31,305.00 117.69,305.00 119.07,305.00 120.49,305.00 121.86,305.00 123.24,305.00 124.65,305.00 126.01,305.00 127.39,305.00 128.75,305.00 130.13,305.00 131.51,305.00 132.88,305.00 134.29,305.00 135.69,305.00 137.05,305.00 138.43,305.00 139.82,305.00 141.20,305.00 142.78,305.00 144.16,305.00 145.53,305.00 146.90,305.00 148.27,305.00 149.64,305.00 151.01,305.00 152.39,305.00 153.77,305.00 155.18,305.00 156.55,305.00 157.92,305.00 159.30,305.00 160.70,305.00 162.08,305.00 163.46,305.00 164.82,305.00 166.19,305.00 167.56,305.00 168.93,305.00 170.31,305.00 171.69,305.00 173.05,305.00 174.43,305.00 175.82,305.00 177.18,305.00 178.57,305.00 179.94,305.00 181.31,305.00 182.72,305.00 184.10,305.00 185.48,305.00 186.86,305.00 188.24,305.00 189.62,305.00 191.00,305.00 192.36,305.00 193.73,305.00 195.12,305.00 196.50,305.00 197.88,305.00 199.27,305.00 200.63,305.00 202.02,305.00 203.39,305.00 204.76,305.00 206.13,305.00 207.51,305.00 208.88,305.00 210.27,305.00 211.65,305.00 213.03,305.00 214.41,305.00 215.81,305.00 217.19,305.00 218.57,305.00 219.94,305.00 221.32,305.00 222.69,305.00 224.08,305.00 225.46,305.00 226.84,305.00 228.21,305.00 229.60,305.00 230.98,305.00 232.37,305.00 233.77,305.00 235.14,305.00 236.52,305.00 237.90,305.00 239.28,305.00 240.66,305.00 242.05,305.00 243.54,305.00 244.91,305.00 246.31,305.00 247.69,305.00 249.05,305.00 250.42,305.00 251.77,305.00 253.15,305.00 254.53,305.00 255.91,305.00 257.28,305.00 258.65,305.00 260.03,305.00 261.40,305.00 262.80,305.00 264.17,305.00 265.55,305.00 266.92,305.00 268.30,305.00 269.67,305.00 271.06,305.00 272.44,305.00 273.82,305.00 275.20,305.00 276.58,305.00 277.95,305.00 279.32,305.00 280.69,305.00 282.07,305.00 283.45,305.00 284.85,305.00 286.23,305.00 287.60,305.00 289.00,305.00 290.38,305.00 291.74,305.00 293.13,305.00 294.51,305.00 295.91,305.00 297.31,305.00 298.68,305.00 300.06,305.00 301.43,305.00 302.80,305.00 304.17,305.00 305.55,305.00 306.93,305.00 308.29,305.00 309.66,305.00 311.05,305.00 312.43,305.00 313.82,305.00 315.19,305.00 316.60,305.00 317.98,305.00 319.36,305.00 320.73,305.00 322.09,305.00 323.59,305.00 325.00,305.00 326.37,305.00 327.74,305.00 329.10,305.00 330.49,305.00 331.86,305.00 333.25,305.00 334.63,305.00 336.00,305.00 337.37,305.00 338.75,305.00 340.16,305.00 341.54,305.00 342.91,305.00 344.28,305.00 345.68,305.00 347.08,305.00 348.49,305.00 349.86,305.00 351.24,305.00 352.62,305.00 353.99,305.00 355.38,305.00 356.76,305.00 358.15,305.00 359.53,305.00 360.89,305.00 362.29,305.00 363.67,305.00 365.04,305.00 366.42,305.00 367.82,305.00 369.20,305.00 370.57,305.00 371.93,305.00 373.31,305.00 374.69,305.00 376.07,305.00 377.44,305.00 378.81,305.00 380.18,305.00 381.55,305.00 382.94,305.00 384.32,305.00 385.71,305.00 387.10,305.00 388.48,305.00 389.87,305.00 391.24,305.00 392.63,305.00 394.00,305.00 395.38,305.00 396.76,305.00 398.17,305.00 399.55,305.00 400.94,305.00 402.32,305.00 403.69,305.00 405.07,305.00 406.44,305.00 407.81,305.00 409.20,305.00 410.58,305.00 411.96,305.00 413.34,305.00 414.73,305.00 416.11,305.00 417.49,305.00 418.88,305.00 420.27,305.00 421.64,305.00 423.02,305.00 424.41,305.00 425.80,305.00 427.18,305.00 428.56,305.00 429.93,305.00 431.46,305.00 432.85,305.00 434.23,305.00 435.61,305.00 437.01,305.00 438.39,305.00 439.77,305.00 441.16,305.00 442.52,305.00 443.95,305.00 445.34,305.00 446.71,305.00 448.09,305.00 449.47,305.00 450.85,305.00 452.23,305.00 453.66,305.00 455.04,305.00 456.41,305.00 457.81,305.00 459.30,305.00 460.68,305.00 462.41,305.00 464.75,305.00 466.16,305.00 467.57,305.00 468.94,305.00 470.29,305.00 471.66,305.00 473.07,305.00 474.45,305.00 475.84,305.00 477.27,305.00 478.70,305.00 480.16,305.00 481.55,305.00 482.93,305.00 484.31,305.00 485.70,305.00 487.10,305.00 488.49,305.00 489.87,305.00 491.24,305.00 492.68,305.00 494.07,305.00 495.43,305.00 496.81,305.00 498.22,305.00 499.65,305.00 501.04,305.00 502.42,305.00 503.83,305.00 505.16,305.00 506.53,305.00 507.93,305.00 509.30,305.00 510.71,305.00 512.13,305.00 513.51,305.00 514.89,305.00 516.29,305.00 517.68,305.00 519.06,305.00 520.44,305.00 521.80,305.00 523.19,305.00 524.58,305.00 525.94,305.00 527.59,305.00 529.21,305.00 530.84,305.00 532.45,305.00 534.02,305.00 535.61,305.00 537.24,305.00 538.85,305.00 540.24,305.00 541.60,305.00 542.97,305.00 544.35,305.00 545.73,305.00 547.10,305.00 548.47,305.00 549.84,305.00 551.22,305.00 552.60,305.00 553.97,305.00 555.34,305.00 556.72,305.00 558.09,305.00 559.46,305.00 560.84,305.00 562.22,305.00 563.58,305.00 564.96,305.00 566.35,305.00 567.71,305.00 569.08,305.00 570.45,305.00 571.83,305.00 573.21,305.00 574.59,305.00 575.96,305.00 577.34,305.00 578.72,305.00 580.09,305.00 581.47,305.00 582.85,305.00 584.21,305.00 585.59,305.00 586.95,305.00 588.31,305.00 589.68,305.00 591.05,305.00 592.42,305.00 593.79,305.00 595.16,305.00 596.54,305.00 597.90,305.00 599.27,305.00 600.62,305.00 602.04,305.00 603.53,305.00 604.91,305.00 606.29,305.00 607.66,305.00 609.03,305.00 610.40,305.00 611.76,305.00 613.14,305.00 614.76,305.00 616.38,305.00 617.98,305.00 619.60,305.00 621.22,305.00 622.83,305.00 624.47,305.00 626.14,305.00 627.65,305.00 629.13,305.00 630.51,305.00 631.90,305.00 633.28,305.00 634.64,305.00 636.01,305.00 637.39,305.00 638.77,305.00 640.14,305.00 641.51,305.00 642.89,305.00 644.27,305.00 645.64,305.00 647.04,305.00 648.41,305.00 649.78,305.00 650.99,305.00 652.41,305.00 653.78,305.00 655.19,305.00 656.57,305.00 657.94,305.00 659.33,305.00 660.72,305.00 662.10,305.00 663.50,305.00 664.88,305.00 666.29,305.00 667.65,305.00 669.02,305.00 670.40,305.00 671.76,305.00 673.13,305.00 674.50,305.00 675.89,305.00 677.26,305.00 678.64,305.00 680.02,305.00 681.39,305.00 682.78,305.00 684.15,305.00 685.54,305.00 686.93,305.00 688.30,305.00 689.67,305.00 691.07,305.00 692.45,305.00 693.87,305.00 695.23,305.00 696.60,305.00 697.98,305.00 699.34,305.00 700.71,305.00 702.11,305.00 703.48,305.00 704.85,305.00 706.23,305.00 707.59,305.00 708.97,305.00 710.35,305.00 711.74,305.00 713.12,305.00 714.78,305.00 716.19,305.00 717.61,305.00 719.00,305.00 720.38,305.00 721.78,305.00 723.14,305.00 724.51,305.00 725.90,305.00 727.29,305.00 728.66,305.00 730.05,305.00 731.43,305.00 732.81,305.00 734.24,305.00 735.64,305.00 737.02,305.00 738.40,305.00 739.78,305.00 741.15,305.00 742.52,305.00 743.90,305.00 745.34,305.00 746.73,305.00 748.11,305.00 749.49,305.00 750.87,305.00 752.25,305.00 753.63,305.00 755.01,305.00 756.39,305.00 757.77,305.00 759.16,305.00 760.54,305.00 761.91,305.00 763.29,305.00 764.67,305.00 766.07,305.00 767.45,305.00 768.82,305.00 770.20,305.00 771.58,305.00 772.98,305.00 774.36,305.00 776.02,305.00 777.44,305.00 778.81,305.00 780.20,305.00 781.57,305.00 782.96,305.00 784.34,305.00 785.72,305.00 787.13,305.00 788.50,305.00 789.87,305.00 791.24,305.00 792.62,305.00 794.00,305.00 795.38,305.00 796.77,305.00 798.14,305.00 799.51,305.00 800.88,305.00 802.26,305.00 803.66,305.00 805.03,305.00 806.40,305.00 807.80,305.00 809.19,305.00 810.56,305.00 811.94,305.00 813.32,305.00 814.74,305.00 816.11,305.00 817.49,305.00 818.88,305.00 820.26,305.00 821.63,305.00 823.02,305.00 824.40,305.00 825.82,305.00 827.19,305.00 828.57,305.00 829.93,305.00 831.31,305.00 832.69,305.00 834.07,305.00 835.44,305.00 836.84,305.00 838.23,305.00 839.62,305.00 840.97,305.00 842.37,305.00 843.74,305.00 845.12,305.00 846.49,305.00 847.88,305.00 849.25,305.00 850.65,305.00 852.03,305.00 853.40,305.00 854.80,305.00 856.19,305.00 857.57,305.00 858.95,305.00 860.35,305.00 861.90,305.00 863.41,305.00 864.89,305.00 866.28,305.00 867.72,305.00 869.11,305.00 870.49,305.00 871.85,305.00 873.14,305.00 874.58,305.00 875.96,305.00 877.36,305.00 878.72,305.00 880.10,305.00 881.48,305.00 882.87,305.00 884.24,305.00 885.63,305.00 887.00,305.00 888.39,305.00 889.77,305.00 891.16,305.00 892.55,305.00 893.94,305.00 895.33,305.00 896.71,305.00 898.09,305.00 899.50,305.00 900.89,305.00 902.26,305.00 903.63,305.00 905.02,305.00 906.39,305.00 907.77,305.00 909.15,305.00 910.53,305.00 911.93,305.00 913.30,305.00 914.68,305.00 916.06,305.00 917.45,305.00 918.83,305.00 920.22,305.00 921.59,305.00 922.98,305.00 924.36,305.00 925.75,305.00 927.14,305.00 928.53,305.00 929.92,305.00 931.30,305.00 932.69,305.00 934.07,305.00 935.46,305.00 936.89,305.00 938.27,305.00 939.66,305.00 941.04,305.00 942.42,305.00 943.80,305.00 945.18,305.00 946.57,305.00 947.96,305.00 949.33,305.00 950.72,305.00 952.11,305.00 953.49,305.00 954.89,305.00 956.27,305.00 957.67,305.00 959.06,305.00 960.44,305.00 961.85,305.00 963.23,305.00 964.60,305.00 965.99,305.00 967.37,305.00 968.79,305.00 970.18,305.00 971.58,305.00 972.96,305.00 974.33,305.00 975.71,305.00 977.09,305.00 978.48,305.00 979.87,305.00 981.25,305.00 982.63,305.00 984.01,305.00 985.40,305.00 986.79,305.00 988.18,305.00 989.55,305.00 990.95,305.00 992.34,305.00 993.73,305.00 995.11,305.00 996.49,305.00 997.86,305.00 999.23,305.00 1000.62,305.00 1002.01,305.00 1003.40,305.00 1004.78,305.00 1006.18,305.00 1007.55,305.00 1008.95,305.00 1010.35,305.00 1011.72,305.00 1013.11,305.00 1014.51,305.00 1015.89,305.00 1017.28,305.00 1018.67,305.00 1020.07,305.00 1021.46,305.00 1022.84,305.00 1024.26,305.00 1025.65,305.00 1027.04,305.00 1028.43,305.00 1029.80,305.00 1031.20,305.00 1032.59,305.00 1033.99,305.00 1035.37,305.00 1036.76,305.00 1038.14,305.00 1039.51,305.00 1040.93,305.00 1042.31,305.00 1043.71,305.00 1045.09,305.00 1046.47,305.00 1047.84,305.00 1049.21,305.00 1050.59,305.00 1051.98,305.00 1053.37,305.00 1054.76,305.00 1056.13,305.00 1057.52,305.00 1058.91,305.00 1060.33,305.00 1061.72,305.00 1063.09,305.00 1064.48,305.00 1065.85,305.00 1067.24,305.00 1068.62,305.00 1070.02,305.00 1071.40,305.00 1072.78,305.00 1074.18,305.00 1075.56,305.00 1076.94,305.00 1078.33,305.00 1079.73,305.00 1081.15,305.00 1082.55,305.00 1083.94,305.00 1085.34,305.00 1086.72,305.00 1088.12,305.00 1089.49,305.00 1090.87,305.00 1092.24,305.00 1093.64,305.00 1095.03,305.00 1096.43,305.00 1097.81,305.00 1099.22,305.00 1100.66,305.00 1102.04,305.00 1103.42,305.00 1104.81,305.00 1106.19,305.00 1107.59,305.00 1108.98,305.00 1110.38,305.00 1111.77,305.00 1113.17,305.00 1114.56,305.00 1115.95,305.00 1117.34,305.00 1118.73,305.00 1120.11,305.00 1121.50,305.00 1122.88,305.00 1124.28,305.00 1125.67,305.00 1127.06,305.00 1128.44,305.00 1129.84,305.00 1131.23,305.00 1132.61,305.00 1134.01,305.00 1135.40,305.00 1136.83,305.00 1138.22,305.00 1139.62,305.00 1141.01,305.00 1142.42,305.00 1143.84,305.00 1145.26,305.00 1146.66,305.00 1148.09,305.00 1149.49,305.00 1150.87,305.00 1152.26,305.00 1153.65,305.00 1155.04,305.00 1156.43,305.00 1157.86,305.00 1159.24,305.00 1160.63,305.00 1162.02,305.00 1163.40,305.00 1164.78,305.00 1166.17,305.00 1167.55,305.00 1168.94,305.00 1170.32,305.00 1171.70,305.00 1173.08,305.00 1174.45,305.00 1175.83,305.00 1177.23,305.00 1178.62,305.00 1180.00,305.00"/>
<rect x="70" y="332" width="12" height="12" fill="#9467bd" fill-opacity="0.95"/>
<text x="88" y="342" font-size="11" fill="#333" font-family="Arial, Helvetica, sans-serif">nsc1.utdallas.edu</text>
<rect x="350" y="332" width="12" height="12" fill="#9467bd" fill-opacity="0.80"/>
<text x="368" y="342" font-size="11" fill="#333" font-family="Arial, Helvetica, sans-serif">nsc2.utdallas.edu</text>
<rect x="630" y="332" width="12" height="12" fill="#9467bd" fill-opacity="0.65"/>
<text x="648" y="342" font-size="11" fill="#333" font-family="Arial, Helvetica, sans-serif">nsc3.utdallas.edu</text>
<rect x="910" y="332" width="12" height="12" fill="#9467bd" fill-opacity="0.50"/>
<text x="928" y="342" font-size="11" fill="#333" font-family="Arial, Helvetica, sans-serif">nsc4.utdallas.edu</text>
</svg>