<?xml version="1.0" encoding="UTF-8"?>
<svg xmlns="http://www.w3.org/2000/svg" width="1200" height="360" viewBox="0 0 1200 360" role="img" aria-label="GPU Utilization (%)">
<rect width="100%" height="100%" fill="#ffffff"/>
<text x="600.0" y="22" text-anchor="middle" font-size="16" font-family="Arial, Helvetica, sans-serif" font-weight="bold">GPU Utilization (%)</text>
<line x1="70" y1="35.00" x2="1180" y2="35.00" stroke="#e3e3e3" stroke-width="1"/>
<text x="62" y="39.00" text-anchor="end" font-size="11" fill="#444" font-family="Arial, Helvetica, sans-serif">100</text>
<line x1="70" y1="89.00" x2="1180" y2="89.00" stroke="#e3e3e3" stroke-width="1"/>
<text x="62" y="93.00" text-anchor="end" font-size="11" fill="#444" font-family="Arial, Helvetica, sans-serif">80</text>
<line x1="70" y1="143.00" x2="1180" y2="143.00" stroke="#e3e3e3" stroke-width="1"/>
<text x="62" y="147.00" text-anchor="end" font-size="11" fill="#444" font-family="Arial, Helvetica, sans-serif">60</text>
<line x1="70" y1="197.00" x2="1180" y2="197.00" stroke="#e3e3e3" stroke-width="1"/>
<text x="62" y="201.00" text-anchor="end" font-size="11" fill="#444" font-family="Arial, Helvetica, sans-serif">40</text>
<line x1="70" y1="251.00" x2="1180" y2="251.00" stroke="#e3e3e3" stroke-width="1"/>
<text x="62" y="255.00" text-anchor="end" font-size="11" fill="#444" font-family="Arial, Helvetica, sans-serif">20</text>
<line x1="70" y1="305.00" x2="1180" y2="305.00" stroke="#e3e3e3" stroke-width="1"/>
<text x="62" y="309.00" text-anchor="end" font-size="11" fill="#444" font-family="Arial, Helvetica, sans-serif">0</text>
<line x1="70" y1="35" x2="70" y2="305" stroke="#999"/>
<line x1="70" y1="305" x2="1180" y2="305" stroke="#999"/>
<text x="70.00" y="323" text-anchor="middle" font-size="10" fill="#444" font-family="Arial, Helvetica, sans-serif">2026-02-11 16:38</text>
<text x="347.50" y="323" text-anchor="middle" font-size="10" fill="#444" font-family="Arial, Helvetica, sans-serif">2026-02-12 02:34</text>
<text x="625.00" y="323" text-anchor="middle" font-size="10" fill="#444" font-family="Arial, Helvetica, sans-serif">2026-02-12 12:30</text>
<text x="902.50" y="323" text-anchor="middle" font-size="10" fill="#444" font-family="Arial, Helvetica, sans-serif">2026-02-12 22:26</text>
<text x="1180.00" y="323" text-anchor="middle" font-size="10" fill="#444" font-family="Arial, Helvetica, sans-serif">2026-02-13 08:22</text>
<polyline fill="none" stroke="#9467bd" stroke-opacity="0.95" stroke-width="2" points="72.51,305.00 75.02,305.00 77.52,305.00 80.03,305.00 82.56,305.00 85.04,305.00 87.56,305.00 90.27,305.00 92.76,305.00 95.25,305.00 97.74,305.00 100.29,305.00 102.78,305.00 105.27,305.00 109.77,305.00 113.66,305.00 116.19,305.00 118.76,305.00 121.25,305.00 123.75,305.00 126.20,305.00 128.73,305.00 131.23,305.00 133.75,305.00 136.27,305.00 138.83,305.00 141.34,305.00 143.85,305.00 146.48,305.00 149.01,305.00 151.51,305.00 154.08,305.00 156.58,305.00 159.09,305.00 161.67,305.00 164.15,305.00 166.66,305.00 169.21,305.00 171.69,305.00 174.19,305.00 176.67,305.00 179.17,305.00 181.68,305.00 184.17,305.00 186.73,305.00 189.26,305.00 191.73,305.00 194.23,305.00 196.76,305.00 199.27,305.00 202.13,305.00 204.63,305.00 207.13,305.00 209.61,305.00 212.11,305.00 214.59,305.00 217.08,305.00 219.59,305.00 222.09,305.00 224.64,305.00 227.14,305.00 229.61,305.00 232.14,305.00 234.67,305.00 237.17,305.00 239.68,305.00 242.16,305.00 244.64,305.00 247.13,305.00 249.61,305.00 252.11,305.00 254.62,305.00 257.10,305.00 259.61,305.00 262.12,305.00 264.59,305.00 267.11,305.00 269.60,305.00 272.09,305.00 274.66,305.00 277.15,305.00 279.65,305.00 282.17,305.00 284.66,305.00 287.18,305.00 289.67,305.00 292.15,305.00 294.63,305.00 297.15,305.00 299.67,305.00 302.17,305.00 304.70,305.00 307.17,305.00 309.68,305.00 312.17,305.00 314.67,305.00 317.15,305.00 319.66,305.00 322.14,305.00 324.66,305.00 327.17,305.00 329.67,305.00 332.18,305.00 334.72,305.00 337.24,305.00 339.73,305.00 342.22,305.00 344.72,305.00 347.21,305.00 349.74,305.00 352.25,305.00 354.75,305.00 357.24,305.00 359.76,305.00 362.27,305.00 364.79,305.00 367.34,305.00 369.83,305.00 372.33,305.00 374.84,305.00 377.34,305.00 379.83,305.00 382.36,305.00 385.07,305.00 387.56,305.00 390.10,305.00 392.60,305.00 395.08,305.00 397.56,305.00 400.02,305.00 402.52,305.00 405.02,305.00 407.52,305.00 410.01,305.00 412.51,305.00 415.01,305.00 417.49,305.00 420.04,305.00 422.53,305.00 425.03,305.00 427.52,305.00 430.03,305.00 432.52,305.00 435.03,305.00 437.54,305.00 440.05,305.00 442.55,305.00 445.05,305.00 447.54,305.00 450.03,305.00 452.52,305.00 455.02,305.00 457.53,305.00 460.06,305.00 462.57,305.00 465.07,305.00 467.60,305.00 470.10,305.00 472.58,305.00 475.10,305.00 477.60,305.00 480.15,305.00 482.69,305.00 485.18,305.00 487.69,305.00 490.17,305.00 492.65,305.00 495.15,305.00 497.66,305.00 500.15,305.00 502.62,305.00 505.11,305.00 507.64,305.00 510.15,305.00 512.66,305.00 515.16,305.00 517.72,305.00 520.22,305.00 522.71,305.00 525.21,305.00 527.69,305.00 530.41,305.00 532.97,305.00 535.45,305.00 537.94,305.00 540.41,305.00 542.92,305.00 545.42,305.00 547.94,305.00 550.45,305.00 552.94,305.00 555.43,305.00 557.93,305.00 560.49,305.00 562.99,305.00 565.48,305.00 567.97,305.00 570.50,305.00 573.05,305.00 575.61,305.00 578.10,305.00 580.60,305.00 583.11,305.00 585.60,305.00 588.11,305.00 590.62,305.00 593.15,305.00 595.64,305.00 598.13,305.00 600.66,305.00 603.16,305.00 605.66,305.00 608.17,305.00 610.70,305.00 613.21,305.00 615.70,305.00 618.17,305.00 620.66,305.00 623.18,305.00 625.67,305.00 628.17,305.00 630.66,305.00 633.14,305.00 635.64,305.00 638.16,305.00 640.66,305.00 643.18,305.00 645.71,305.00 648.22,305.00 650.74,305.00 653.23,305.00 655.74,305.00 658.24,305.00 660.75,305.00 663.25,305.00 665.81,305.00 668.32,305.00 670.83,305.00 673.34,305.00 675.83,305.00 678.34,305.00 680.82,305.00 683.31,305.00 685.84,305.00 688.34,305.00 690.85,305.00 693.35,305.00 695.87,305.00 698.37,305.00 700.88,305.00 703.40,305.00 705.93,305.00 708.42,305.00 710.92,305.00 713.44,305.00 715.97,305.00 718.48,305.00 720.98,305.00 723.48,305.00 726.25,305.00 728.77,305.00 731.28,305.00 733.79,305.00 736.31,305.00 738.83,305.00 741.33,305.00 743.85,305.00 746.33,305.00 748.91,80.90 751.45,72.80 753.93,305.00 756.43,305.00 758.94,305.00 761.44,305.00 763.95,305.00 766.55,305.00 769.05,305.00 771.55,305.00 774.09,305.00 776.79,305.00 779.29,305.00 782.44,305.00 786.68,305.00 789.24,305.00 791.80,305.00 794.30,305.00 796.75,305.00 799.24,305.00 801.78,305.00 804.30,305.00 806.82,305.00 809.42,305.00 812.01,305.00 814.67,305.00 817.18,305.00 819.69,305.00 822.19,305.00 824.73,305.00 827.27,305.00 829.80,305.00 832.29,305.00 834.78,305.00 837.39,305.00 839.91,305.00 842.39,305.00 844.90,305.00 847.44,305.00 850.04,305.00 852.56,305.00 855.07,305.00 857.65,305.00 860.04,305.00 862.53,305.00 865.08,305.00 867.57,305.00 870.12,305.00 872.70,305.00 875.22,305.00 877.71,305.00 880.25,305.00 882.78,305.00 885.29,305.00 887.78,305.00 890.27,305.00 892.79,305.00 895.30,305.00 897.78,305.00 900.77,305.00 903.72,305.00 906.68,305.00 909.59,305.00 912.45,305.00 915.34,305.00 918.30,305.00 921.22,305.00 923.73,305.00 926.21,305.00 928.71,305.00 931.20,305.00 933.71,305.00 936.19,305.00 938.68,305.00 941.17,305.00 943.68,305.00 946.18,305.00 948.67,305.00 951.16,305.00 953.66,305.00 956.14,305.00 958.64,305.00 961.13,305.00 963.64,305.00 966.11,305.00 968.63,305.00 971.15,305.00 973.62,305.00 976.10,305.00 978.60,305.00 981.09,305.00 983.60,305.00 986.10,305.00 988.59,305.00 991.10,305.00 993.61,305.00 996.10,305.00 998.59,305.00 1001.09,305.00 1003.57,305.00 1006.07,305.00 1008.54,305.00 1011.01,305.00 1013.50,305.00 1015.99,305.00 1018.48,305.00 1020.97,305.00 1023.46,305.00 1025.96,305.00 1028.43,305.00 1030.91,305.00 1033.36,305.00 1035.95,305.00 1038.64,305.00 1041.15,305.00 1043.66,305.00 1046.15,305.00 1048.64,305.00 1051.11,305.00 1053.60,305.00 1056.09,305.00 1059.04,305.00 1061.97,305.00 1064.88,305.00 1067.82,305.00 1070.76,305.00 1073.68,305.00 1076.67,305.00 1079.70,305.00 1082.43,305.00 1085.12,305.00 1087.62,305.00 1090.15,305.00 1092.66,305.00 1095.13,305.00 1097.62,305.00 1100.13,305.00 1102.62,305.00 1105.12,305.00 1107.60,305.00 1110.10,305.00 1112.61,305.00 1115.10,305.00 1117.64,305.00 1120.13,305.00 1122.62,305.00 1124.80,305.00 1127.39,305.00 1129.89,305.00 1132.45,305.00 1134.94,305.00 1137.43,305.00 1139.95,305.00 1142.48,305.00 1144.99,305.00 1147.52,305.00 1150.03,305.00 1152.58,305.00 1155.07,305.00 1157.54,305.00 1160.05,305.00 1162.52,305.00 1165.01,305.00 1167.49,305.00 1170.02,305.00 1172.51,305.00 1175.02,305.00 1177.52,305.00 1180.00,305.00"/>
<polyline fill="none" stroke="#9467bd" stroke-opacity="0.80" stroke-width="2" points="70.00,305.00 72.51,305.00 75.02,305.00 77.52,305.00 80.03,305.00 82.56,305.00 85.04,305.00 87.56,305.00 90.27,305.00 92.76,305.00 95.25,305.00 97.74,305.00 100.29,305.00 102.78,305.00 105.27,305.00 109.77,305.00 113.66,305.00 116.19,305.00 118.76,305.00 121.25,305.00 123.75,305.00 126.20,305.00 128.73,305.00 131.23,305.00 133.75,305.00 136.27,305.00 138.83,305.00 141.34,305.00 143.85,305.00 146.48,305.00 149.01,305.00 151.51,305.00 154.08,305.00 156.58,305.00 159.09,305.00 161.67,305.00 164.15,305.00 166.66,305.00 169.21,305.00 171.69,305.00 174.19,305.00 176.67,305.00 179.17,305.00 181.68,305.00 184.17,305.00 186.73,305.00 189.26,305.00 191.73,305.00 194.23,305.00 196.76,305.00 199.27,305.00 202.13,305.00 204.63,305.00 207.13,305.00 209.61,305.00 212.11,305.00 214.59,305.00 217.08,305.00 219.59,305.00 222.09,305.00 224.64,305.00 227.14,305.00 229.61,305.00 232.14,305.00 234.67,305.00 237.17,305.00 239.68,305.00 242.16,305.00 244.64,305.00 247.13,305.00 249.61,305.00 252.11,305.00 254.62,305.00 257.10,305.00 259.61,305.00 262.12,305.00 264.59,305.00 267.11,305.00 269.60,305.00 272.09,305.00 274.66,305.00 277.15,305.00 279.65,305.00 282.17,305.00 284.66,305.00 287.18,305.00 289.67,305.00 292.15,305.00 294.63,305.00 297.15,305.00 299.67,305.00 302.17,305.00 304.70,305.00 307.17,305.00 309.68,305.00 312.17,305.00 314.67,305.00 317.15,305.00 319.66,305.00 322.14,305.00 324.66,305.00 327.17,305.00 329.67,305.00 332.18,305.00 334.72,305.00 337.24,305.00 339.73,305.00 342.22,305.00 344.72,305.00 347.21,305.00 349.74,305.00 352.25,305.00 354.75,305.00 357.24,305.00 359.76,305.00 362.27,305.00 364.79,305.00 367.34,305.00 369.83,305.00 372.33,305.00 374.84,305.00 377.34,305.00 379.83,305.00 382.36,305.00 385.07,305.00 387.56,305.00 390.10,305.00 392.60,305.00 395.08,305.00 397.56,305.00 400.02,305.00 402.52,305.00 405.02,305.00 407.52,305.00 410.01,305.00 412.51,305.00 415.01,305.00 417.49,305.00 420.04,305.00 422.53,305.00 425.03,305.00 427.52,305.00 430.03,305.00 432.52,305.00 435.03,305.00 437.54,305.00 440.05,305.00 442.55,305.00 445.05,305.00 447.54,305.00 450.03,305.00 452.52,305.00 455.02,305.00 457.53,305.00 460.06,305.00 462.57,305.00 465.07,305.00 467.60,305.00 470.10,305.00 472.58,305.00 475.10,305.00 477.60,305.00 480.15,305.00 482.69,305.00 485.18,305.00 487.69,305.00 490.17,305.00 492.65,305.00 495.15,305.00 497.66,305.00 500.15,305.00 502.62,305.00 505.11,305.00 507.64,305.00 510.15,305.00 512.66,305.00 515.16,305.00 517.72,305.00 520.22,305.00 522.71,305.00 525.21,305.00 527.69,305.00 530.41,305.00 532.97,305.00 535.45,305.00 537.94,305.00 540.41,305.00 542.92,305.00 545.42,305.00 547.94,305.00 550.45,305.00 552.94,305.00 555.43,305.00 557.93,305.00 560.49,305.00 562.99,305.00 565.48,305.00 567.97,305.00 570.50,305.00 573.05,305.00 575.61,305.00 578.10,305.00 580.60,305.00 583.11,305.00 585.60,305.00 588.11,305.00 590.62,305.00 593.15,305.00 595.64,305.00 598.13,305.00 600.66,305.00 603.16,305.00 605.66,305.00 608.17,305.00 610.70,305.00 613.21,305.00 615.70,305.00 618.17,305.00 620.66,305.00 623.18,305.00 625.67,305.00 628.17,305.00 630.66,305.00 633.14,305.00 635.64,305.00 638.16,305.00 640.66,305.00 643.18,305.00 645.71,305.00 648.22,305.00 650.74,305.00 653.23,305.00 655.74,305.00 658.24,305.00 660.75,305.00 663.25,305.00 665.81,305.00 668.32,305.00 670.83,305.00 673.34,305.00 675.83,305.00 678.34,305.00 680.82,305.00 683.31,305.00 685.84,305.00 688.34,305.00 690.85,305.00 693.35,305.00 695.87,305.00 698.37,305.00 700.88,305.00 703.40,305.00 705.93,305.00 708.42,305.00 710.92,305.00 713.44,305.00 715.97,305.00 718.48,305.00 720.98,305.00 723.48,305.00 726.25,305.00 728.77,305.00 731.28,305.00 733.79,305.00 736.31,305.00 738.83,305.00 741.33,305.00 743.85,305.00 746.33,305.00 748.91,305.00 751.45,305.00 753.93,305.00 756.43,305.00 758.94,305.00 761.44,305.00 763.95,305.00 766.55,305.00 769.05,305.00 771.55,305.00 774.09,305.00 776.79,305.00 779.29,305.00 782.44,305.00 786.68,305.00 789.24,305.00 791.80,305.00 794.30,305.00 796.75,305.00 799.24,305.00 801.78,305.00 804.30,305.00 806.82,305.00 809.42,305.00 812.01,305.00 814.67,305.00 817.18,305.00 819.69,305.00 822.19,305.00 824.73,305.00 827.27,305.00 829.80,305.00 832.29,305.00 834.78,305.00 837.39,305.00 839.91,305.00 842.39,305.00 844.90,305.00 847.44,305.00 850.04,305.00 852.56,305.00 855.07,305.00 857.65,305.00 860.04,305.00 862.53,305.00 865.08,305.00 867.57,305.00 870.12,305.00 872.70,305.00 875.22,305.00 877.71,305.00 880.25,305.00 882.78,305.00 885.29,305.00 887.78,305.00 890.27,305.00 892.79,305.00 895.30,305.00 897.78,305.00 900.77,305.00 903.72,305.00 906.68,305.00 909.59,305.00 912.45,305.00 915.34,305.00 918.30,305.00 921.22,305.00 923.73,305.00 926.21,305.00 928.71,305.00 931.20,305.00 933.71,305.00 936.19,305.00 938.68,305.00 941.17,305.00 943.68,305.00 946.18,305.00 948.67,305.00 951.16,305.00 953.66,305.00 956.14,305.00 958.64,305.00 961.13,305.00 963.64,305.00 966.11,305.00 968.63,305.00 971.15,305.00 973.62,305.00 976.10,305.00 978.60,305.00 981.09,305.00 983.60,305.00 986.10,305.00 988.59,305.00 991.10,305.00 993.61,305.00 996.10,305.00 998.59,305.00 1001.09,305.00 1003.57,305.00 1006.07,305.00 1008.54,305.00 1011.01,305.00 1013.50,305.00 1015.99,305.00 1018.48,305.00 1020.97,305.00 1023.46,305.00 1025.96,305.00 1028.43,305.00 1030.91,305.00 1033.36,305.00 1035.95,305.00 1038.64,305.00 1041.15,305.00 1043.66,305.00 1046.15,305.00 1048.64,305.00 1051.11,305.00 1053.60,305.00 1056.09,305.00 1059.04,305.00 1061.97,305.00 1064.88,305.00 1067.82,305.00 1070.76,305.00 1073.68,305.00 1076.67,305.00 1079.70,305.00 1082.43,305.00 1085.12,305.00 1087.62,305.00 1090.15,305.00 1092.66,305.00 1095.13,305.00 1097.62,305.00 1100.13,305.00 1102.62,305.00 1105.12,305.00 1107.60,305.00 1110.10,305.00 1112.61,305.00 1115.10,305.00 1117.64,305.00 1120.13,305.00 1122.62,305.00 1124.80,305.00 1127.39,305.00 1129.89,305.00 1132.45,305.00 1134.94,305.00 1137.43,305.00 1139.95,305.00 1142.48,305.00 1144.99,305.00 1147.52,305.00 1150.03,305.00 1152.58,305.00 1155.07,305.00 1157.54,305.00 1160.05,305.00 1162.52,305.00 1165.01,305.00 1167.49,305.00 1170.02,305.00 1172.51,305.00 1175.02,305.00 1177.52,305.00 1180.00,305.00"/>
<polyline fill="none" stroke="#9467bd" stroke-opacity="0.65" stroke-width="2" points="1124.80,305.00 1127.39,305.00 1129.89,305.00 1132.45,305.00 1134.94,305.00 1137.43,305.00 1139.95,305.00 1142.48,305.00 1144.99,305.00 1147.52,305.00 1150.03,305.00 1152.58,305.00 1155.07,305.00 1157.54,305.00 1160.05,305.00 1162.52,305.00 1165.01,305.00 1167.49,305.00 1170.02,305.00 1172.51,305.00 1175.02,305.00 1177.52,305.00 1180.00,305.00"/>
<polyline fill="none" stroke="#9467bd" stroke-opacity="0.50" stroke-width="2" points="70.00,305.00 72.51,305.00 75.02,305.00 77.52,305.00 80.03,305.00 82.56,305.00 85.04,305.00 87.56,305.00 90.27,305.00 92.76,305.00 95.25,305.00 97.74,305.00 100.29,305.00 102.78,305.00 105.27,305.00 109.77,305.00 113.66,305.00 116.19,305.00 118.76,305.00 121.25,305.00 123.75,305.00 126.20,305.00 128.73,305.00 131.23,305.00 133.75,305.00 136.27,305.00 138.83,305.00 141.34,305.00 143.85,305.00 146.48,305.00 149.01,305.00 151.51,305.00 154.08,305.00 156.58,305.00 159.09,305.00 161.67,305.00 164.15,305.00 166.66,305.00 169.21,305.00 171.69,305.00 174.19,305.00 176.67,305.00 179.17,305.00 181.68,305.00 184.17,305.00 186.73,305.00 189.26,305.00 191.73,305.00 194.23,305.00 196.76,305.00 199.27,305.00 202.13,305.00 204.63,305.00 207.13,305.00 209.61,305.00 212.11,305.00 214.59,305.00 217.08,305.00 219.59,305.00 222.09,305.00 224.64,305.00 227.14,305.00 229.61,305.00 232.14,305.00 234.67,305.00 237.17,305.00 239.68,305.00 242.16,305.00 244.64,305.00 247.13,305.00 249.61,305.00 252.11,305.00 254.62,305.00 257.10,305.00 259.61,305.00 262.12,305.00 264.59,305.00 267.11,305.00 269.60,305.00 272.09,305.00 274.66,305.00 277.15,305.00 279.65,305.00 282.17,305.00 284.66,305.00 287.18,305.00 289.67,305.00 292.15,305.00 294.63,305.00 297.15,305.00 299.67,305.00 302.17,305.00 304.70,305.00 307.17,305.00 309.68,305.00 312.17,305.00 314.67,305.00 317.15,305.00 319.66,305.00 322.14,305.00 324.66,305.00 327.17,305.00 329.67,305.00 332.18,305.00 334.72,305.00 337.24,305.00 339.73,305.00 342.22,305.00 344.72,305.00 347.21,305.00 349.74,305.00 352.25,305.00 354.75,305.00 357.24,305.00 359.76,305.00 362.27,305.00 364.79,305.00 367.34,305.00 369.83,305.00 372.33,305.00 374.84,305.00 377.34,305.00 379.83,305.00 382.36,305.00 385.07,305.00 387.56,305.00 390.10,305.00 392.60,305.00 395.08,305.00 397.56,305.00 400.02,305.00 402.52,305.00 405.02,305.00 407.52,305.00 410.01,305.00 412.51,305.00 415.01,305.00 417.49,305.00 420.04,305.00 422.53,305.00 425.03,305.00 427.52,305.00 430.03,305.00 432.52,305.00 435.03,305.00 437.54,305.00 440.05,305.00 442.55,305.00 445.05,305.00 447.54,305.00 450.03,305.00 452.52,305.00 455.02,305.00 457.53,305.00 460.06,305.00 462.57,305.00 465.07,305.00 467.60,305.00 470.10,305.00 472.58,305.00 475.10,305.00 477.60,305.00 480.15,305.00 482.69,305.00 485.18,305.00 487.69,305.00 490.17,305.00 492.65,305.00 495.15,305.00 497.66,305.00 500.15,305.00 502.62,305.00 505.11,305.00 507.64,305.00 510.15,305.00 512.66,305.00 515.16,305.00 517.72,305.00 520.22,305.00 522.71,305.00 525.21,305.00 527.69,305.00 530.41,305.00 532.97,305.00 535.45,305.00 537.94,305.00 540.41,305.00 542.92,305.00 545.42,305.00 547.94,305.00 550.45,305.00 552.94,305.00 555.43,305.00 557.93,305.00 560.49,305.00 562.99,305.00 565.48,305.00 567.97,305.00 570.50,305.00 573.05,305.00 575.61,305.00 578.10,305.00 580.60,305.00 583.11,305.00 585.60,305.00 588.11,305.00 590.62,305.00 593.15,305.00 595.64,305.00 598.13,305.00 600.66,305.00 603.16,305.00 605.66,305.00 608.17,305.00 610.70,305.00 613.21,305.00 615.70,305.00 618.17,305.00 620.66,305.00 623.18,305.00 625.67,305.00 628.17,305.00 630.66,305.00 633.14,305.00 635.64,305.00 638.16,305.00 640.66,305.00 643.18,305.00 645.71,305.00 648.22,305.00 650.74,305.00 653.23,305.00 655.74,305.00 658.24,305.00 660.75,305.00 663.25,305.00 665.81,305.00 668.32,305.00 670.83,305.00 673.34,305.00 675.83,305.00 678.34,305.00 680.82,305.00 683.31,305.00 685.84,305.00 688.34,305.00 690.85,305.00 693.35,305.00 695.87,305.00 698.37,305.00 700.88,305.00 703.40,305.00 705.93,305.00 708.42,305.00 710.92,305.00 713.44,305.00 715.97,305.00 718.48,305.00 720.98,305.00 723.48,305.00 726.25,305.00 728.77,305.00 731.28,305.00 733.79,305.00 736.31,305.00 738.83,305.00 741.33,305.00 743.85,305.00 746.33,305.00 748.91,305.00 751.45,305.00 753.93,305.00 756.43,305.00 758.94,305.00 761.44,305.00 763.95,305.00 766.55,305.00 769.05,305.00 771.55,305.00 774.09,305.00 776.79,305.00 779.29,305.00 782.44,305.00 786.68,305.00 789.24,305.00 791.80,305.00 794.30,305.00 796.75,305.00 799.24,305.00 801.78,305.00 804.30,305.00 806.82,305.00 809.42,305.00 812.01,305.00 814.67,305.00 817.18,305.00 819.69,305.00 822.19,305.00 824.73,305.00 827.27,305.00 829.80,305.00 832.29,305.00 834.78,305.00 837.39,305.00 839.91,305.00 842.39,305.00 844.90,305.00 847.44,305.00 850.04,305.00 852.56,305.00 855.07,305.00 857.65,305.00 860.04,305.00 862.53,305.00 865.08,305.00 867.57,305.00 870.12,305.00 872.70,305.00 875.22,305.00 877.71,305.00 880.25,305.00 882.78,305.00 885.29,305.00 887.78,305.00 890.27,305.00 892.79,305.00 895.30,305.00 897.78,305.00 900.77,305.00 903.72,305.00 906.68,305.00 909.59,305.00 912.45,305.00 915.34,305.00 918.30,305.00 921.22,305.00 923.73,305.00 926.21,305.00 928.71,305.00 931.20,305.00 933.71,305.00 936.19,305.00 938.68,305.00 941.17,305.00 943.68,305.00 946.18,305.00 948.67,305.00 951.16,305.00 953.66,305.00 956.14,305.00 958.64,305.00 961.13,305.00 963.64,305.00 966.11,305.00 968.63,305.00 971.15,305.00 973.62,305.00 976.10,305.00 978.60,305.00 981.09,305.00 983.60,305.00 986.10,305.00 988.59,305.00 991.10,305.00 993.61,305.00 996.10,305.00 998.59,305.00 1001.09,305.00 1003.57,305.00 1006.07,305.00 1008.54,305.00 1011.01,305.00 1013.50,305.00 1015.99,305.00 1018.48,305.00 1020.97,305.00 1023.46,305.00 1025.96,305.00 1028.43,305.00 1030.91,305.00 1033.36,305.00 1035.95,305.00 1038.64,305.00 1041.15,305.00 1043.66,305.00 1046.15,305.00 1048.64,305.00 1051.11,305.00 1053.60,305.00 1056.09,305.00 1059.04,305.00 1061.97,305.00 1064.88,305.00 1067.82,305.00 1070.76,305.00 1073.68,305.00 1076.67,305.00 1079.70,305.00 1082.43,305.00 1085.12,305.00 1087.62,305.00 1090.15,305.00 1092.66,305.00 1095.13,305.00 1097.62,305.00 1100.13,305.00 1102.62,305.00 1105.12,305.00 1107.60,305.00 1110.10,305.00 1112.61,305.00 1115.10,305.00 1117.64,305.00 1120.13,305.00 1122.62,305.00 1124.80,305.00 1127.39,305.00 1129.89,305.00 1132.45,305.00 1134.94,305.00 1137.43,305.00 1139.95,305.00 1142.48,305.00 1144.99,305.00 1147.52,305.00 1150.03,305.00 1152.58,305.00 1155.07,305.00 1157.54,305.00 1160.05,305.00 1162.52,305.00 1165.01,305.00 1167.49,305.00 1170.02,305.00 1172.51,305.00 1175.02,305.00 1177.52,305.00 1180.00,305.00"/>
<rect x="70" y="332" width="12" height="12" fill="#9467bd" fill-opacity="0.95"/>
<text x="88" y="342" font-size="11" fill="#333" font-family="Arial, Helvetica, sans-serif">nsc1.utdallas.edu</text>
<rect x="350" y="332" width="12" height="12" fill="#9467bd" fill-opacity="0.80"/>
<text x="368" y="342" font-size="11" fill="#333" font-family="Arial, Helvetica, sans-serif">nsc2.utdallas.edu</text>
<rect x="630" y="332" width="12" height="12" fill="#9467bd" fill-opacity="0.65"/>
<text x="648" y="342" font-size="11" fill="#333" font-family="Arial, Helvetica, sans-serif">nsc3.utdallas.edu</text>
<rect x="910" y="332" width="12" height="12" fill="#9467bd" fill-opacity="0.50"/>
<text x="928" y="342" font-size="11" fill="#333" font-family="Arial, Helvetica, sans-serif">nsc4.utdallas.edu</text>
</svg>