<?xml version="1.0" encoding="UTF-8"?>
<svg xmlns="http://www.w3.org/2000/svg" width="1200" height="360" viewBox="0 0 1200 360" role="img" aria-label="GPU Utilization (%)">
<rect width="100%" height="100%" fill="#ffffff"/>
<text x="600.0" y="22" text-anchor="middle" font-size="16" font-family="Arial, Helvetica, sans-serif" font-weight="bold">GPU Utilization (%)</text>
<line x1="70" y1="35.00" x2="1180" y2="35.00" stroke="#e3e3e3" stroke-width="1"/>
<text x="62" y="39.00" text-anchor="end" font-size="11" fill="#444" font-family="Arial, Helvetica, sans-serif">100</text>
<line x1="70" y1="89.00" x2="1180" y2="89.00" stroke="#e3e3e3" stroke-width="1"/>
<text x="62" y="93.00" text-anchor="end" font-size="11" fill="#444" font-family="Arial, Helvetica, sans-serif">80</text>
<line x1="70" y1="143.00" x2="1180" y2="143.00" stroke="#e3e3e3" stroke-width="1"/>
<text x="62" y="147.00" text-anchor="end" font-size="11" fill="#444" font-family="Arial, Helvetica, sans-serif">60</text>
<line x1="70" y1="197.00" x2="1180" y2="197.00" stroke="#e3e3e3" stroke-width="1"/>
<text x="62" y="201.00" text-anchor="end" font-size="11" fill="#444" font-family="Arial, Helvetica, sans-serif">40</text>
<line x1="70" y1="251.00" x2="1180" y2="251.00" stroke="#e3e3e3" stroke-width="1"/>
<text x="62" y="255.00" text-anchor="end" font-size="11" fill="#444" font-family="Arial, Helvetica, sans-serif">20</text>
<line x1="70" y1="305.00" x2="1180" y2="305.00" stroke="#e3e3e3" stroke-width="1"/>
<text x="62" y="309.00" text-anchor="end" font-size="11" fill="#444" font-family="Arial, Helvetica, sans-serif">0</text>
<line x1="70" y1="35" x2="70" y2="305" stroke="#999"/>
<line x1="70" y1="305" x2="1180" y2="305" stroke="#999"/>
<text x="70.00" y="323" text-anchor="middle" font-size="10" fill="#444" font-family="Arial, Helvetica, sans-serif">2026-02-11 16:38</text>
<text x="347.50" y="323" text-anchor="middle" font-size="10" fill="#444" font-family="Arial, Helvetica, sans-serif">2026-02-12 12:58</text>
<text x="625.00" y="323" text-anchor="middle" font-size="10" fill="#444" font-family="Arial, Helvetica, sans-serif">2026-02-13 09:18</text>
<text x="902.50" y="323" text-anchor="middle" font-size="10" fill="#444" font-family="Arial, Helvetica, sans-serif">2026-02-14 05:39</text>
<text x="1180.00" y="323" text-anchor="middle" font-size="10" fill="#444" font-family="Arial, Helvetica, sans-serif">2026-02-15 01:59</text>
<polyline fill="none" stroke="#9467bd" stroke-opacity="0.95" stroke-width="2" points="71.22,305.00 72.45,305.00 73.67,305.00 74.90,305.00 76.14,305.00 77.35,305.00 78.58,305.00 79.90,305.00 81.12,305.00 82.34,305.00 83.55,305.00 84.80,305.00 86.01,305.00 87.23,305.00 89.43,305.00 91.33,305.00 92.56,305.00 93.82,305.00 95.04,305.00 96.26,305.00 97.46,305.00 98.69,305.00 99.91,305.00 101.15,305.00 102.38,305.00 103.62,305.00 104.85,305.00 106.08,305.00 107.36,305.00 108.60,305.00 109.82,305.00 111.07,305.00 112.30,305.00 113.52,305.00 114.79,305.00 116.00,305.00 117.22,305.00 118.47,305.00 119.68,305.00 120.90,305.00 122.11,305.00 123.33,305.00 124.56,305.00 125.78,305.00 127.03,305.00 128.26,305.00 129.47,305.00 130.69,305.00 131.93,305.00 133.15,305.00 134.55,305.00 135.77,305.00 136.99,305.00 138.21,305.00 139.42,305.00 140.64,305.00 141.85,305.00 143.08,305.00 144.30,305.00 145.55,305.00 146.77,305.00 147.98,305.00 149.21,305.00 150.45,305.00 151.67,305.00 152.90,305.00 154.11,305.00 155.32,305.00 156.53,305.00 157.75,305.00 158.97,305.00 160.19,305.00 161.40,305.00 162.63,305.00 163.86,305.00 165.07,305.00 166.30,305.00 167.51,305.00 168.73,305.00 169.98,305.00 171.20,305.00 172.42,305.00 173.65,305.00 174.87,305.00 176.10,305.00 177.32,305.00 178.53,305.00 179.74,305.00 180.97,305.00 182.20,305.00 183.42,305.00 184.66,305.00 185.86,305.00 187.09,305.00 188.31,305.00 189.53,305.00 190.74,305.00 191.97,305.00 193.18,305.00 194.41,305.00 195.63,305.00 196.86,305.00 198.08,305.00 199.32,305.00 200.55,305.00 201.77,305.00 202.99,305.00 204.21,305.00 205.43,305.00 206.66,305.00 207.89,305.00 209.11,305.00 210.33,305.00 211.56,305.00 212.78,305.00 214.02,305.00 215.26,305.00 216.48,305.00 217.70,305.00 218.92,305.00 220.14,305.00 221.36,305.00 222.60,305.00 223.92,305.00 225.14,305.00 226.38,305.00 227.60,305.00 228.81,305.00 230.02,305.00 231.23,305.00 232.45,305.00 233.67,305.00 234.89,305.00 236.11,305.00 237.33,305.00 238.55,305.00 239.76,305.00 241.01,305.00 242.22,305.00 243.44,305.00 244.66,305.00 245.88,305.00 247.10,305.00 248.33,305.00 249.56,305.00 250.78,305.00 252.01,305.00 253.23,305.00 254.44,305.00 255.66,305.00 256.88,305.00 258.10,305.00 259.32,305.00 260.56,305.00 261.78,305.00 263.00,305.00 264.24,305.00 265.46,305.00 266.68,305.00 267.90,305.00 269.13,305.00 270.37,305.00 271.61,305.00 272.83,305.00 274.05,305.00 275.27,305.00 276.48,305.00 277.70,305.00 278.92,305.00 280.14,305.00 281.35,305.00 282.57,305.00 283.80,305.00 285.03,305.00 286.25,305.00 287.47,305.00 288.73,305.00 289.95,305.00 291.17,305.00 292.38,305.00 293.60,305.00 294.93,305.00 296.18,305.00 297.39,305.00 298.61,305.00 299.81,305.00 301.04,305.00 302.26,305.00 303.49,305.00 304.72,305.00 305.93,305.00 307.15,305.00 308.37,305.00 309.62,305.00 310.84,305.00 312.06,305.00 313.28,305.00 314.51,305.00 315.76,305.00 317.01,305.00 318.22,305.00 319.45,305.00 320.67,305.00 321.89,305.00 323.11,305.00 324.34,305.00 325.58,305.00 326.79,305.00 328.01,305.00 329.24,305.00 330.47,305.00 331.69,305.00 332.91,305.00 334.15,305.00 335.38,305.00 336.59,305.00 337.80,305.00 339.02,305.00 340.25,305.00 341.47,305.00 342.68,305.00 343.90,305.00 345.11,305.00 346.33,305.00 347.56,305.00 348.79,305.00 350.02,305.00 351.25,305.00 352.48,305.00 353.71,305.00 354.93,305.00 356.16,305.00 357.38,305.00 358.60,305.00 359.82,305.00 361.07,305.00 362.30,305.00 363.53,305.00 364.75,305.00 365.97,305.00 367.20,305.00 368.40,305.00 369.62,305.00 370.86,305.00 372.08,305.00 373.30,305.00 374.53,305.00 375.76,305.00 376.98,305.00 378.20,305.00 379.44,305.00 380.67,305.00 381.89,305.00 383.11,305.00 384.34,305.00 385.58,305.00 386.80,305.00 388.02,305.00 389.24,305.00 390.60,305.00 391.83,305.00 393.06,305.00 394.28,305.00 395.52,305.00 396.74,305.00 397.97,305.00 399.20,305.00 400.41,305.00 401.67,80.90 402.91,72.80 404.12,305.00 405.34,305.00 406.57,305.00 407.79,305.00 409.02,305.00 410.29,305.00 411.51,305.00 412.73,305.00 413.97,305.00 415.29,305.00 416.51,305.00 418.05,305.00 420.12,305.00 421.37,305.00 422.62,305.00 423.84,305.00 425.04,305.00 426.26,305.00 427.50,305.00 428.73,305.00 429.96,305.00 431.23,305.00 432.50,305.00 433.79,305.00 435.02,305.00 436.25,305.00 437.47,305.00 438.71,305.00 439.95,305.00 441.18,305.00 442.40,305.00 443.62,305.00 444.90,305.00 446.13,305.00 447.34,305.00 448.56,305.00 449.81,305.00 451.08,305.00 452.31,305.00 453.53,305.00 454.79,305.00 455.96,305.00 457.18,305.00 458.43,305.00 459.64,305.00 460.88,305.00 462.15,305.00 463.37,305.00 464.60,305.00 465.83,305.00 467.07,305.00 468.29,305.00 469.51,305.00 470.73,305.00 471.96,305.00 473.19,305.00 474.40,305.00 475.86,305.00 477.30,305.00 478.75,305.00 480.17,305.00 481.57,305.00 482.98,305.00 484.42,305.00 485.85,305.00 487.08,305.00 488.29,305.00 489.51,305.00 490.73,305.00 491.95,305.00 493.16,305.00 494.38,305.00 495.60,305.00 496.82,305.00 498.04,305.00 499.26,305.00 500.48,305.00 501.70,305.00 502.91,305.00 504.13,305.00 505.35,305.00 506.57,305.00 507.78,305.00 509.01,305.00 510.24,305.00 511.45,305.00 512.66,305.00 513.88,305.00 515.10,305.00 516.32,305.00 517.55,305.00 518.76,305.00 519.99,305.00 521.21,305.00 522.43,305.00 523.65,305.00 524.87,305.00 526.08,305.00 527.30,305.00 528.51,305.00 529.71,305.00 530.93,305.00 532.15,305.00 533.36,305.00 534.58,305.00 535.80,305.00 537.02,305.00 538.22,305.00 539.43,305.00 540.64,305.00 541.90,305.00 543.21,305.00 544.44,305.00 545.66,305.00 546.88,305.00 548.10,305.00 549.31,305.00 550.52,305.00 551.74,305.00 553.18,305.00 554.61,305.00 556.03,305.00 557.47,305.00 558.91,305.00 560.33,305.00 561.79,305.00 563.27,305.00 564.61,305.00 565.92,305.00 567.14,305.00 568.38,305.00 569.60,305.00 570.81,305.00 572.03,305.00 573.25,305.00 574.47,305.00 575.69,305.00 576.90,305.00 578.12,305.00 579.35,305.00 580.57,305.00 581.80,305.00 583.02,305.00 584.24,305.00 585.31,305.00 586.57,305.00 587.79,305.00 589.04,305.00 590.26,305.00 591.48,305.00 592.71,305.00 593.94,305.00 595.17,305.00 596.40,305.00 597.63,305.00 598.88,305.00 600.09,305.00 601.30,305.00 602.52,305.00 603.73,305.00 604.95,305.00 606.16,305.00 607.40,305.00 608.61,305.00 609.84,305.00 611.06,305.00 612.27,305.00 613.50,305.00 614.72,305.00 615.95,305.00 617.18,305.00 618.40,305.00 619.62,305.00 620.86,305.00 622.08,305.00 623.34,305.00 624.55,305.00 625.77,305.00 626.99,305.00 628.20,305.00 629.41,305.00 630.65,305.00 631.87,305.00 633.08,305.00 634.30,305.00 635.52,305.00 636.74,305.00 637.96,305.00 639.20,305.00 640.42,305.00 641.89,305.00 643.14,305.00 644.40,305.00 645.63,305.00 646.85,305.00 648.09,305.00 649.30,305.00 650.52,305.00 651.75,305.00 652.99,305.00 654.20,305.00 655.43,305.00 656.66,305.00 657.88,305.00 659.14,305.00 660.39,305.00 661.61,305.00 662.84,305.00 664.06,305.00 665.28,305.00 666.50,305.00 667.72,305.00 668.99,305.00 670.22,305.00 671.45,305.00 672.67,305.00 673.90,305.00 675.13,305.00 676.34,305.00 677.57,305.00 678.80,305.00 680.02,305.00 681.25,305.00 682.48,305.00 683.69,305.00 684.92,305.00 686.14,305.00 687.38,305.00 688.61,305.00 689.82,305.00 691.04,305.00 692.26,305.00 693.51,305.00 694.74,305.00 696.21,305.00 697.46,305.00 698.68,305.00 699.91,305.00 701.13,305.00 702.36,305.00 703.58,305.00 704.81,305.00 706.06,305.00 707.27,305.00 708.49,305.00 709.71,305.00 710.93,305.00 712.15,305.00 713.37,305.00 714.61,305.00 715.82,305.00 717.04,305.00 718.26,305.00 719.48,305.00 720.72,305.00 721.94,305.00 723.15,305.00 724.39,305.00 725.63,305.00 726.84,305.00 728.06,305.00 729.29,305.00 730.55,305.00 731.76,305.00 732.99,305.00 734.22,305.00 735.45,305.00 736.66,305.00 737.89,305.00 739.12,305.00 740.37,305.00 741.59,305.00 742.81,305.00 744.02,305.00 745.24,305.00 746.47,305.00 747.69,305.00 748.91,305.00 750.15,305.00 751.39,305.00 752.62,305.00 753.82,305.00 755.06,305.00 756.27,305.00 757.50,305.00 758.71,305.00 759.94,305.00 761.16,305.00 762.40,305.00 763.62,305.00 764.84,305.00 766.08,305.00 767.31,305.00 768.54,305.00 769.76,305.00 771.00,305.00 772.38,305.00 773.72,305.00 775.03,305.00 776.26,305.00 777.54,305.00 778.77,305.00 780.00,305.00 781.21,305.00 782.35,305.00 783.63,305.00 784.85,305.00 786.09,305.00 787.30,305.00 788.52,305.00 789.74,305.00 790.98,305.00 792.19,305.00 793.42,305.00 794.64,305.00 795.87,305.00 797.10,305.00 798.33,305.00 799.56,305.00 800.80,305.00 802.03,305.00 803.26,305.00 804.48,305.00 805.73,305.00 806.96,305.00 808.17,305.00 809.39,305.00 810.62,305.00 811.84,305.00 813.06,305.00 814.29,305.00 815.51,305.00 816.75,305.00 817.97,305.00 819.19,305.00 820.42,305.00 821.64,305.00 822.88,305.00 824.11,305.00 825.32,305.00 826.55,305.00 827.78,305.00 829.01,305.00 830.24,305.00 831.48,305.00 832.71,305.00 833.93,305.00 835.16,305.00 836.39,305.00 837.63,305.00 838.89,305.00 840.11,305.00 841.34,305.00 842.57,305.00 843.79,305.00 845.02,305.00 846.24,305.00 847.48,305.00 848.71,305.00 849.93,305.00 851.16,305.00 852.39,305.00 853.62,305.00 854.85,305.00 856.08,305.00 857.32,305.00 858.55,305.00 859.78,305.00 861.02,305.00 862.25,305.00 863.47,305.00 864.70,305.00 865.93,305.00 867.18,305.00 868.41,305.00 869.65,305.00 870.88,305.00 872.10,305.00 873.32,305.00 874.55,305.00 875.78,305.00 877.01,305.00 878.23,305.00 879.46,305.00 880.68,305.00 881.91,305.00 883.15,305.00 884.38,305.00 885.60,305.00 886.84,305.00 888.07,305.00 889.30,305.00 890.53,305.00 891.75,305.00 892.97,305.00 894.19,305.00 895.41,305.00 896.65,305.00 897.88,305.00 899.11,305.00 900.34,305.00 901.56,305.00 902.80,305.00 904.04,305.00 905.26,305.00 906.50,305.00 907.74,305.00 908.96,305.00 910.19,305.00 911.42,305.00 912.67,305.00 913.90,305.00 915.13,305.00 916.38,305.00 917.62,305.00 918.85,305.00 920.08,305.00 921.30,305.00 922.53,305.00 923.77,305.00 925.01,305.00 926.24,305.00 927.47,305.00 928.69,305.00 929.91,305.00 931.17,305.00 932.39,305.00 933.63,305.00 934.86,305.00 936.08,305.00 937.30,305.00 938.52,305.00 939.74,305.00 940.97,305.00 942.20,305.00 943.43,305.00 944.65,305.00 945.88,305.00 947.11,305.00 948.37,305.00 949.61,305.00 950.83,305.00 952.06,305.00 953.27,305.00 954.50,305.00 955.73,305.00 956.97,305.00 958.19,305.00 959.42,305.00 960.66,305.00 961.88,305.00 963.11,305.00 964.34,305.00 965.58,305.00 966.85,305.00 968.08,305.00 969.32,305.00 970.56,305.00 971.78,305.00 973.02,305.00 974.24,305.00 975.46,305.00 976.68,305.00 977.92,305.00 979.15,305.00 980.39,305.00 981.62,305.00 982.87,305.00 984.14,305.00 985.37,305.00 986.59,305.00 987.83,305.00 989.05,305.00 990.29,305.00 991.53,305.00 992.77,305.00 994.00,305.00 995.24,305.00 996.47,305.00 997.71,305.00 998.94,305.00 1000.17,305.00 1001.40,305.00 1002.63,305.00 1003.85,305.00 1005.09,305.00 1006.33,305.00 1007.56,305.00 1008.79,305.00 1010.02,305.00 1011.26,305.00 1012.49,305.00 1013.72,305.00 1014.96,305.00 1016.23,305.00 1017.46,305.00 1018.70,305.00 1019.93,305.00 1021.19,305.00 1022.45,305.00 1023.70,305.00 1024.95,305.00 1026.22,305.00 1027.45,305.00 1028.68,305.00 1029.91,305.00 1031.14,305.00 1032.38,305.00 1033.62,305.00 1034.88,305.00 1036.10,305.00 1037.34,305.00 1038.57,305.00 1039.79,305.00 1041.02,305.00 1042.25,305.00 1043.48,305.00 1044.70,305.00 1045.93,305.00 1047.15,305.00 1048.38,305.00 1049.59,305.00 1050.82,305.00 1052.06,305.00 1053.30,305.00 1054.52,305.00 1055.76,305.00 1057.00,305.00 1058.22,305.00 1059.46,305.00 1060.69,305.00 1061.91,305.00 1063.14,305.00 1064.36,305.00 1065.60,305.00 1066.83,305.00 1068.05,305.00 1069.26,305.00 1070.49,305.00 1071.72,305.00 1072.95,305.00 1074.18,305.00 1075.41,305.00 1076.64,305.00 1077.86,305.00 1079.09,305.00 1080.33,305.00 1081.55,305.00 1082.76,305.00 1083.98,305.00 1085.18,305.00 1086.41,305.00 1087.64,305.00 1088.90,305.00 1090.12,305.00 1091.35,305.00 1092.58,305.00 1093.83,305.00 1095.06,305.00 1096.29,305.00 1097.53,305.00 1098.76,305.00 1099.98,305.00 1101.23,305.00 1102.46,305.00 1103.70,305.00 1104.94,305.00 1106.17,305.00 1107.39,305.00 1108.61,305.00 1109.83,305.00 1111.06,305.00 1112.29,305.00 1113.50,305.00 1114.73,305.00 1115.96,305.00 1117.20,305.00 1118.42,305.00 1119.64,305.00 1120.87,305.00 1122.10,305.00 1123.33,305.00 1124.57,305.00 1125.80,305.00 1127.03,305.00 1128.25,305.00 1129.50,305.00 1130.71,305.00 1131.94,305.00 1133.18,305.00 1134.40,305.00 1135.62,305.00 1136.86,305.00 1138.10,305.00 1139.32,305.00 1140.54,305.00 1141.77,305.00 1143.04,305.00 1144.27,305.00 1145.52,305.00 1146.77,305.00 1148.00,305.00 1149.23,305.00 1150.46,305.00 1151.70,305.00 1152.93,305.00 1154.15,305.00 1155.39,305.00 1156.65,305.00 1157.88,305.00 1159.11,305.00 1160.34,305.00 1161.57,305.00 1162.81,305.00 1164.04,305.00 1165.25,305.00 1166.48,305.00 1167.71,305.00 1168.94,305.00 1170.17,305.00 1171.39,305.00 1172.63,305.00 1173.85,305.00 1175.07,305.00 1176.30,305.00 1177.52,305.00 1178.75,305.00 1180.00,305.00"/>
<polyline fill="none" stroke="#9467bd" stroke-opacity="0.80" stroke-width="2" points="70.00,305.00 71.22,305.00 72.45,305.00 73.67,305.00 74.90,305.00 76.14,305.00 77.35,305.00 78.58,305.00 79.90,305.00 81.12,305.00 82.34,305.00 83.55,305.00 84.80,305.00 86.01,305.00 87.23,305.00 89.43,305.00 91.33,305.00 92.56,305.00 93.82,305.00 95.04,305.00 96.26,305.00 97.46,305.00 98.69,305.00 99.91,305.00 101.15,305.00 102.38,305.00 103.62,305.00 104.85,305.00 106.08,305.00 107.36,305.00 108.60,305.00 109.82,305.00 111.07,305.00 112.30,305.00 113.52,305.00 114.79,305.00 116.00,305.00 117.22,305.00 118.47,305.00 119.68,305.00 120.90,305.00 122.11,305.00 123.33,305.00 124.56,305.00 125.78,305.00 127.03,305.00 128.26,305.00 129.47,305.00 130.69,305.00 131.93,305.00 133.15,305.00 134.55,305.00 135.77,305.00 136.99,305.00 138.21,305.00 139.42,305.00 140.64,305.00 141.85,305.00 143.08,305.00 144.30,305.00 145.55,305.00 146.77,305.00 147.98,305.00 149.21,305.00 150.45,305.00 151.67,305.00 152.90,305.00 154.11,305.00 155.32,305.00 156.53,305.00 157.75,305.00 158.97,305.00 160.19,305.00 161.40,305.00 162.63,305.00 163.86,305.00 165.07,305.00 166.30,305.00 167.51,305.00 168.73,305.00 169.98,305.00 171.20,305.00 172.42,305.00 173.65,305.00 174.87,305.00 176.10,305.00 177.32,305.00 178.53,305.00 179.74,305.00 180.97,305.00 182.20,305.00 183.42,305.00 184.66,305.00 185.86,305.00 187.09,305.00 188.31,305.00 189.53,305.00 190.74,305.00 191.97,305.00 193.18,305.00 194.41,305.00 195.63,305.00 196.86,305.00 198.08,305.00 199.32,305.00 200.55,305.00 201.77,305.00 202.99,305.00 204.21,305.00 205.43,305.00 206.66,305.00 207.89,305.00 209.11,305.00 210.33,305.00 211.56,305.00 212.78,305.00 214.02,305.00 215.26,305.00 216.48,305.00 217.70,305.00 218.92,305.00 220.14,305.00 221.36,305.00 222.60,305.00 223.92,305.00 225.14,305.00 226.38,305.00 227.60,305.00 228.81,305.00 230.02,305.00 231.23,305.00 232.45,305.00 233.67,305.00 234.89,305.00 236.11,305.00 237.33,305.00 238.55,305.00 239.76,305.00 241.01,305.00 242.22,305.00 243.44,305.00 244.66,305.00 245.88,305.00 247.10,305.00 248.33,305.00 249.56,305.00 250.78,305.00 252.01,305.00 253.23,305.00 254.44,305.00 255.66,305.00 256.88,305.00 258.10,305.00 259.32,305.00 260.56,305.00 261.78,305.00 263.00,305.00 264.24,305.00 265.46,305.00 266.68,305.00 267.90,305.00 269.13,305.00 270.37,305.00 271.61,305.00 272.83,305.00 274.05,305.00 275.27,305.00 276.48,305.00 277.70,305.00 278.92,305.00 280.14,305.00 281.35,305.00 282.57,305.00 283.80,305.00 285.03,305.00 286.25,305.00 287.47,305.00 288.73,305.00 289.95,305.00 291.17,305.00 292.38,305.00 293.60,305.00 294.93,305.00 296.18,305.00 297.39,305.00 298.61,305.00 299.81,305.00 301.04,305.00 302.26,305.00 303.49,305.00 304.72,305.00 305.93,305.00 307.15,305.00 308.37,305.00 309.62,305.00 310.84,305.00 312.06,305.00 313.28,305.00 314.51,305.00 315.76,305.00 317.01,305.00 318.22,305.00 319.45,305.00 320.67,305.00 321.89,305.00 323.11,305.00 324.34,305.00 325.58,305.00 326.79,305.00 328.01,305.00 329.24,305.00 330.47,305.00 331.69,305.00 332.91,305.00 334.15,305.00 335.38,305.00 336.59,305.00 337.80,305.00 339.02,305.00 340.25,305.00 341.47,305.00 342.68,305.00 343.90,305.00 345.11,305.00 346.33,305.00 347.56,305.00 348.79,305.00 350.02,305.00 351.25,305.00 352.48,305.00 353.71,305.00 354.93,305.00 356.16,305.00 357.38,305.00 358.60,305.00 359.82,305.00 361.07,305.00 362.30,305.00 363.53,305.00 364.75,305.00 365.97,305.00 367.20,305.00 368.40,305.00 369.62,305.00 370.86,305.00 372.08,305.00 373.30,305.00 374.53,305.00 375.76,305.00 376.98,305.00 378.20,305.00 379.44,305.00 380.67,305.00 381.89,305.00 383.11,305.00 384.34,305.00 385.58,305.00 386.80,305.00 388.02,305.00 389.24,305.00 390.60,305.00 391.83,305.00 393.06,305.00 394.28,305.00 395.52,305.00 396.74,305.00 397.97,305.00 399.20,305.00 400.41,305.00 401.67,305.00 402.91,305.00 404.12,305.00 405.34,305.00 406.57,305.00 407.79,305.00 409.02,305.00 410.29,305.00 411.51,305.00 412.73,305.00 413.97,305.00 415.29,305.00 416.51,305.00 418.05,305.00 420.12,305.00 421.37,305.00 422.62,305.00 423.84,305.00 425.04,305.00 426.26,305.00 427.50,305.00 428.73,305.00 429.96,305.00 431.23,305.00 432.50,305.00 433.79,305.00 435.02,305.00 436.25,305.00 437.47,305.00 438.71,305.00 439.95,305.00 441.18,305.00 442.40,305.00 443.62,305.00 444.90,305.00 446.13,305.00 447.34,305.00 448.56,305.00 449.81,305.00 451.08,305.00 452.31,305.00 453.53,305.00 454.79,305.00 455.96,305.00 457.18,305.00 458.43,305.00 459.64,305.00 460.88,305.00 462.15,305.00 463.37,305.00 464.60,305.00 465.83,305.00 467.07,305.00 468.29,305.00 469.51,305.00 470.73,305.00 471.96,305.00 473.19,305.00 474.40,305.00 475.86,305.00 477.30,305.00 478.75,305.00 480.17,305.00 481.57,305.00 482.98,305.00 484.42,305.00 485.85,305.00 487.08,305.00 488.29,305.00 489.51,305.00 490.73,305.00 491.95,305.00 493.16,305.00 494.38,305.00 495.60,305.00 496.82,305.00 498.04,305.00 499.26,305.00 500.48,305.00 501.70,305.00 502.91,305.00 504.13,305.00 505.35,305.00 506.57,305.00 507.78,305.00 509.01,305.00 510.24,305.00 511.45,305.00 512.66,305.00 513.88,305.00 515.10,305.00 516.32,305.00 517.55,305.00 518.76,305.00 519.99,305.00 521.21,305.00 522.43,305.00 523.65,305.00 524.87,305.00 526.08,305.00 527.30,305.00 528.51,305.00 529.71,305.00 530.93,305.00 532.15,305.00 533.36,305.00 534.58,305.00 535.80,305.00 537.02,305.00 538.22,305.00 539.43,305.00 540.64,305.00 541.90,305.00 543.21,305.00 544.44,305.00 545.66,305.00 546.88,305.00 548.10,305.00 549.31,305.00 550.52,305.00 551.74,305.00 553.18,305.00 554.61,305.00 556.03,305.00 557.47,305.00 558.91,305.00 560.33,305.00 561.79,305.00 563.27,305.00 564.61,305.00 565.92,305.00 567.14,305.00 568.38,305.00 569.60,305.00 570.81,305.00 572.03,305.00 573.25,305.00 574.47,305.00 575.69,305.00 576.90,305.00 578.12,305.00 579.35,305.00 580.57,305.00 581.80,305.00 583.02,305.00 584.24,305.00 585.31,305.00 586.57,305.00 587.79,305.00 589.04,305.00 590.26,305.00 591.48,305.00 592.71,305.00 593.94,305.00 595.17,305.00 596.40,305.00 597.63,305.00 598.88,305.00 600.09,305.00 601.30,305.00 602.52,305.00 603.73,305.00 604.95,305.00 606.16,305.00 607.40,305.00 608.61,305.00 609.84,305.00 611.06,305.00 612.27,305.00 613.50,305.00 614.72,305.00 615.95,305.00 617.18,305.00 618.40,305.00 619.62,305.00 620.86,305.00 622.08,305.00 623.34,305.00 624.55,305.00 625.77,305.00 626.99,305.00 628.20,305.00 629.41,305.00 630.65,305.00 631.87,305.00 633.08,305.00 634.30,305.00 635.52,305.00 636.74,305.00 637.96,305.00 639.20,305.00 640.42,305.00 641.89,305.00 643.14,305.00 644.40,305.00 645.63,305.00 646.85,305.00 648.09,305.00 649.30,305.00 650.52,305.00 651.75,305.00 652.99,305.00 654.20,305.00 655.43,305.00 656.66,305.00 657.88,305.00 659.14,305.00 660.39,305.00 661.61,305.00 662.84,305.00 664.06,305.00 665.28,305.00 666.50,305.00 667.72,305.00 668.99,305.00 670.22,305.00 671.45,305.00 672.67,305.00 673.90,305.00 675.13,305.00 676.34,305.00 677.57,305.00 678.80,305.00 680.02,305.00 681.25,305.00 682.48,305.00 683.69,305.00 684.92,305.00 686.14,305.00 687.38,305.00 688.61,305.00 689.82,305.00 691.04,305.00 692.26,305.00 693.51,305.00 694.74,305.00 696.21,305.00 697.46,305.00 698.68,305.00 699.91,305.00 701.13,305.00 702.36,305.00 703.58,305.00 704.81,305.00 706.06,305.00 707.27,305.00 708.49,305.00 709.71,305.00 710.93,305.00 712.15,305.00 713.37,305.00 714.61,305.00 715.82,305.00 717.04,305.00 718.26,305.00 719.48,305.00 720.72,305.00 721.94,305.00 723.15,305.00 724.39,305.00 725.63,305.00 726.84,305.00 728.06,305.00 729.29,305.00 730.55,305.00 731.76,305.00 732.99,305.00 734.22,305.00 735.45,305.00 736.66,305.00 737.89,305.00 739.12,305.00 740.37,305.00 741.59,305.00 742.81,305.00 744.02,305.00 745.24,305.00 746.47,305.00 747.69,305.00 748.91,305.00 750.15,305.00 751.39,305.00 752.62,305.00 753.82,305.00 755.06,305.00 756.27,305.00 757.50,305.00 758.71,305.00 759.94,305.00 761.16,305.00 762.40,305.00 763.62,305.00 764.84,305.00 766.08,305.00 767.31,305.00 768.54,305.00 769.76,305.00 771.00,305.00 772.38,305.00 773.72,305.00 775.03,305.00 776.26,305.00 777.54,305.00 778.77,305.00 780.00,305.00 781.21,305.00 782.35,305.00 783.63,305.00 784.85,305.00 786.09,305.00 787.30,305.00 788.52,305.00 789.74,305.00 790.98,305.00 792.19,305.00 793.42,305.00 794.64,305.00 795.87,305.00 797.10,305.00 798.33,305.00 799.56,305.00 800.80,305.00 802.03,305.00 803.26,305.00 804.48,305.00 805.73,305.00 806.96,305.00 808.17,305.00 809.39,305.00 810.62,305.00 811.84,305.00 813.06,305.00 814.29,305.00 815.51,305.00 816.75,305.00 817.97,305.00 819.19,305.00 820.42,305.00 821.64,305.00 822.88,305.00 824.11,305.00 825.32,305.00 826.55,305.00 827.78,305.00 829.01,305.00 830.24,305.00 831.48,305.00 832.71,305.00 833.93,305.00 835.16,305.00 836.39,305.00 837.63,305.00 838.89,305.00 840.11,305.00 841.34,305.00 842.57,305.00 843.79,305.00 845.02,305.00 846.24,305.00 847.48,305.00 848.71,305.00 849.93,305.00 851.16,305.00 852.39,305.00 853.62,305.00 854.85,305.00 856.08,305.00 857.32,305.00 858.55,305.00 859.78,305.00 861.02,305.00 862.25,305.00 863.47,305.00 864.70,305.00 865.93,305.00 867.18,305.00 868.41,305.00 869.65,305.00 870.88,305.00 872.10,305.00 873.32,305.00 874.55,305.00 875.78,305.00 877.01,305.00 878.23,305.00 879.46,305.00 880.68,305.00 881.91,305.00 883.15,305.00 884.38,305.00 885.60,305.00 886.84,305.00 888.07,305.00 889.30,305.00 890.53,305.00 891.75,305.00 892.97,305.00 894.19,305.00 895.41,305.00 896.65,305.00 897.88,305.00 899.11,305.00 900.34,305.00 901.56,305.00 902.80,305.00 904.04,305.00 905.26,305.00 906.50,305.00 907.74,305.00 908.96,305.00 910.19,305.00 911.42,305.00 912.67,305.00 913.90,305.00 915.13,305.00 916.38,305.00 917.62,305.00 918.85,305.00 920.08,305.00 921.30,305.00 922.53,305.00 923.77,305.00 925.01,305.00 926.24,305.00 927.47,305.00 928.69,305.00 929.91,305.00 931.17,305.00 932.39,305.00 933.63,305.00 934.86,305.00 936.08,305.00 937.30,305.00 938.52,305.00 939.74,305.00 940.97,305.00 942.20,305.00 943.43,305.00 944.65,305.00 945.88,305.00 947.11,305.00 948.37,305.00 949.61,305.00 950.83,305.00 952.06,305.00 953.27,305.00 954.50,305.00 955.73,305.00 956.97,305.00 958.19,305.00 959.42,305.00 960.66,305.00 961.88,305.00 963.11,305.00 964.34,305.00 965.58,305.00 966.85,305.00 968.08,305.00 969.32,305.00 970.56,305.00 971.78,305.00 973.02,305.00 974.24,305.00 975.46,305.00 976.68,305.00 977.92,305.00 979.15,305.00 980.39,305.00 981.62,305.00 982.87,305.00 984.14,305.00 985.37,305.00 986.59,305.00 987.83,305.00 989.05,305.00 990.29,305.00 991.53,305.00 992.77,305.00 994.00,305.00 995.24,305.00 996.47,305.00 997.71,305.00 998.94,305.00 1000.17,305.00 1001.40,305.00 1002.63,305.00 1003.85,305.00 1005.09,305.00 1006.33,305.00 1007.56,305.00 1008.79,305.00 1010.02,305.00 1011.26,305.00 1012.49,305.00 1013.72,305.00 1014.96,305.00 1016.23,305.00 1017.46,305.00 1018.70,305.00 1019.93,305.00 1021.19,305.00 1022.45,305.00 1023.70,305.00 1024.95,305.00 1026.22,305.00 1027.45,305.00 1028.68,305.00 1029.91,305.00 1031.14,305.00 1032.38,305.00 1033.62,305.00 1034.88,305.00 1036.10,305.00 1037.34,305.00 1038.57,305.00 1039.79,305.00 1041.02,305.00 1042.25,305.00 1043.48,305.00 1044.70,305.00 1045.93,305.00 1047.15,305.00 1048.38,305.00 1049.59,305.00 1050.82,305.00 1052.06,305.00 1053.30,305.00 1054.52,305.00 1055.76,305.00 1057.00,305.00 1058.22,305.00 1059.46,305.00 1060.69,305.00 1061.91,305.00 1063.14,305.00 1064.36,305.00 1065.60,305.00 1066.83,305.00 1068.05,305.00 1069.26,305.00 1070.49,305.00 1071.72,305.00 1072.95,305.00 1074.18,305.00 1075.41,305.00 1076.64,305.00 1077.86,305.00 1079.09,305.00 1080.33,305.00 1081.55,305.00 1082.76,305.00 1083.98,305.00 1085.18,305.00 1086.41,305.00 1087.64,305.00 1088.90,305.00 1090.12,305.00 1091.35,305.00 1092.58,305.00 1093.83,305.00 1095.06,305.00 1096.29,305.00 1097.53,305.00 1098.76,305.00 1099.98,305.00 1101.23,305.00 1102.46,305.00 1103.70,305.00 1104.94,305.00 1106.17,305.00 1107.39,305.00 1108.61,305.00 1109.83,305.00 1111.06,305.00 1112.29,305.00 1113.50,305.00 1114.73,305.00 1115.96,305.00 1117.20,305.00 1118.42,305.00 1119.64,305.00 1120.87,305.00 1122.10,305.00 1123.33,305.00 1124.57,305.00 1125.80,305.00 1127.03,305.00 1128.25,305.00 1129.50,305.00 1130.71,305.00 1131.94,305.00 1133.18,305.00 1134.40,305.00 1135.62,305.00 1136.86,305.00 1138.10,305.00 1139.32,305.00 1140.54,305.00 1141.77,305.00 1143.04,305.00 1144.27,305.00 1145.52,305.00 1146.77,305.00 1148.00,305.00 1149.23,305.00 1150.46,305.00 1151.70,305.00 1152.93,305.00 1154.15,305.00 1155.39,305.00 1156.65,305.00 1157.88,305.00 1159.11,305.00 1160.34,305.00 1161.57,305.00 1162.81,305.00 1164.04,305.00 1165.25,305.00 1166.48,305.00 1167.71,305.00 1168.94,305.00 1170.17,305.00 1171.39,305.00 1172.63,305.00 1173.85,305.00 1175.07,305.00 1176.30,305.00 1177.52,305.00 1178.75,305.00 1180.00,305.00"/>
<polyline fill="none" stroke="#9467bd" stroke-opacity="0.65" stroke-width="2" points="585.31,305.00 586.57,305.00 587.79,305.00 589.04,305.00 590.26,305.00 591.48,305.00 592.71,305.00 593.94,305.00 595.17,305.00 596.40,305.00 597.63,305.00 598.88,305.00 600.09,305.00 601.30,305.00 602.52,305.00 603.73,305.00 604.95,305.00 606.16,305.00 607.40,305.00 608.61,305.00 609.84,305.00 611.06,305.00 612.27,305.00 613.50,305.00 614.72,305.00 615.95,305.00 617.18,305.00 618.40,305.00 619.62,305.00 620.86,305.00 622.08,305.00 623.34,305.00 624.55,305.00 625.77,305.00 626.99,305.00 628.20,305.00 629.41,305.00 630.65,305.00 631.87,305.00 633.08,305.00 634.30,305.00 635.52,305.00 636.74,305.00 637.96,305.00 639.20,305.00 640.42,305.00 641.89,305.00 643.14,305.00 644.40,305.00 645.63,305.00 646.85,305.00 648.09,305.00 649.30,305.00 650.52,305.00 651.75,305.00 652.99,305.00 654.20,305.00 655.43,305.00 656.66,305.00 657.88,305.00 659.14,305.00 660.39,305.00 661.61,305.00 662.84,305.00 664.06,305.00 665.28,305.00 666.50,305.00 667.72,305.00 668.99,305.00 670.22,305.00 671.45,305.00 672.67,305.00 673.90,305.00 675.13,305.00 676.34,305.00 677.57,305.00 678.80,305.00 680.02,305.00 681.25,305.00 682.48,305.00 683.69,305.00 684.92,305.00 686.14,305.00 687.38,305.00 688.61,305.00 689.82,305.00 691.04,305.00 692.26,305.00 693.51,305.00 694.74,305.00 696.21,305.00 697.46,305.00 698.68,305.00 699.91,305.00 701.13,305.00 702.36,305.00 703.58,305.00 704.81,305.00 706.06,305.00 707.27,305.00 708.49,305.00 709.71,305.00 710.93,305.00 712.15,305.00 713.37,305.00 714.61,305.00 715.82,305.00 717.04,305.00 718.26,305.00 719.48,305.00 720.72,305.00 721.94,305.00 723.15,305.00 724.39,305.00 725.63,305.00 726.84,305.00 728.06,305.00 729.29,305.00 730.55,305.00 731.76,305.00 732.99,305.00 734.22,305.00 735.45,305.00 736.66,305.00 737.89,305.00 739.12,305.00 740.37,305.00 741.59,305.00 742.81,305.00 744.02,305.00 745.24,305.00 746.47,305.00 747.69,305.00 748.91,305.00 750.15,305.00 751.39,305.00 752.62,305.00 753.82,305.00 755.06,305.00 756.27,305.00 757.50,305.00 758.71,305.00 759.94,305.00 761.16,305.00 762.40,305.00 763.62,305.00 764.84,305.00 766.08,305.00 767.31,305.00 768.54,305.00 769.76,305.00 771.00,305.00 772.38,305.00 773.72,305.00 775.03,305.00 776.26,305.00 777.54,305.00 778.77,305.00 780.00,305.00 781.21,305.00 782.35,305.00 783.63,305.00 784.85,305.00 786.09,305.00 787.30,305.00 788.52,305.00 789.74,305.00 790.98,305.00 792.19,305.00 793.42,305.00 794.64,305.00 795.87,305.00 797.10,305.00 798.33,305.00 799.56,305.00 800.80,305.00 802.03,305.00 803.26,305.00 804.48,305.00 805.73,305.00 806.96,305.00 808.17,305.00 809.39,305.00 810.62,305.00 811.84,305.00 813.06,305.00 814.29,305.00 815.51,305.00 816.75,305.00 817.97,305.00 819.19,305.00 820.42,305.00 821.64,305.00 822.88,305.00 824.11,305.00 825.32,305.00 826.55,305.00 827.78,305.00 829.01,305.00 830.24,305.00 831.48,305.00 832.71,305.00 833.93,305.00 835.16,305.00 836.39,305.00 837.63,305.00 838.89,305.00 840.11,305.00 841.34,305.00 842.57,305.00 843.79,305.00 845.02,305.00 846.24,305.00 847.48,305.00 848.71,305.00 849.93,305.00 851.16,305.00 852.39,305.00 853.62,305.00 854.85,305.00 856.08,305.00 857.32,305.00 858.55,305.00 859.78,305.00 861.02,305.00 862.25,305.00 863.47,305.00 864.70,305.00 865.93,305.00 867.18,305.00 868.41,305.00 869.65,305.00 870.88,305.00 872.10,305.00 873.32,305.00 874.55,305.00 875.78,305.00 877.01,305.00 878.23,305.00 879.46,305.00 880.68,305.00 881.91,305.00 883.15,305.00 884.38,305.00 885.60,305.00 886.84,305.00 888.07,305.00 889.30,305.00 890.53,305.00 891.75,305.00 892.97,305.00 894.19,305.00 895.41,305.00 896.65,305.00 897.88,305.00 899.11,305.00 900.34,305.00 901.56,305.00 902.80,305.00 904.04,305.00 905.26,305.00 906.50,305.00 907.74,305.00 908.96,305.00 910.19,305.00 911.42,305.00 912.67,305.00 913.90,305.00 915.13,305.00 916.38,305.00 917.62,305.00 918.85,305.00 920.08,305.00 921.30,305.00 922.53,305.00 923.77,305.00 925.01,305.00 926.24,305.00 927.47,305.00 928.69,305.00 929.91,305.00 931.17,305.00 932.39,305.00 933.63,305.00 934.86,305.00 936.08,305.00 937.30,305.00 938.52,305.00 939.74,305.00 940.97,305.00 942.20,305.00 943.43,305.00 944.65,305.00 945.88,305.00 947.11,305.00 948.37,305.00 949.61,305.00 950.83,305.00 952.06,305.00 953.27,305.00 954.50,305.00 955.73,305.00 956.97,305.00 958.19,305.00 959.42,305.00 960.66,305.00 961.88,305.00 963.11,305.00 964.34,305.00 965.58,305.00 966.85,305.00 968.08,305.00 969.32,305.00 970.56,305.00 971.78,305.00 973.02,305.00 974.24,305.00 975.46,305.00 976.68,305.00 977.92,305.00 979.15,305.00 980.39,305.00 981.62,305.00 982.87,305.00 984.14,305.00 985.37,305.00 986.59,305.00 987.83,305.00 989.05,305.00 990.29,305.00 991.53,305.00 992.77,305.00 994.00,305.00 995.24,305.00 996.47,305.00 997.71,305.00 998.94,305.00 1000.17,305.00 1001.40,305.00 1002.63,305.00 1003.85,305.00 1005.09,305.00 1006.33,305.00 1007.56,305.00 1008.79,305.00 1010.02,305.00 1011.26,305.00 1012.49,305.00 1013.72,305.00 1014.96,305.00 1016.23,305.00 1017.46,305.00 1018.70,305.00 1019.93,305.00 1021.19,305.00 1022.45,305.00 1023.70,305.00 1024.95,305.00 1026.22,305.00 1027.45,305.00 1028.68,305.00 1029.91,305.00 1031.14,305.00 1032.38,305.00 1033.62,305.00 1034.88,305.00 1036.10,305.00 1037.34,305.00 1038.57,305.00 1039.79,305.00 1041.02,305.00 1042.25,305.00 1043.48,305.00 1044.70,305.00 1045.93,305.00 1047.15,305.00 1048.38,305.00 1049.59,305.00 1050.82,305.00 1052.06,305.00 1053.30,305.00 1054.52,305.00 1055.76,305.00 1057.00,305.00 1058.22,305.00 1059.46,305.00 1060.69,305.00 1061.91,305.00 1063.14,305.00 1064.36,305.00 1065.60,305.00 1066.83,305.00 1068.05,305.00 1069.26,305.00 1070.49,305.00 1071.72,305.00 1072.95,305.00 1074.18,305.00 1075.41,305.00 1076.64,305.00 1077.86,305.00 1079.09,305.00 1080.33,305.00 1081.55,305.00 1082.76,305.00 1083.98,305.00 1085.18,305.00 1086.41,305.00 1087.64,305.00 1088.90,305.00 1090.12,305.00 1091.35,305.00 1092.58,305.00 1093.83,305.00 1095.06,305.00 1096.29,305.00 1097.53,305.00 1098.76,305.00 1099.98,305.00 1101.23,305.00 1102.46,305.00 1103.70,305.00 1104.94,305.00 1106.17,305.00 1107.39,305.00 1108.61,305.00 1109.83,305.00 1111.06,305.00 1112.29,305.00 1113.50,305.00 1114.73,305.00 1115.96,305.00 1117.20,305.00 1118.42,305.00 1119.64,305.00 1120.87,305.00 1122.10,305.00 1123.33,305.00 1124.57,305.00 1125.80,305.00 1127.03,305.00 1128.25,305.00 1129.50,305.00 1130.71,305.00 1131.94,305.00 1133.18,305.00 1134.40,305.00 1135.62,305.00 1136.86,305.00 1138.10,305.00 1139.32,305.00 1140.54,305.00 1141.77,305.00 1143.04,305.00 1144.27,305.00 1145.52,305.00 1146.77,305.00 1148.00,305.00 1149.23,305.00 1150.46,305.00 1151.70,305.00 1152.93,305.00 1154.15,305.00 1155.39,305.00 1156.65,305.00 1157.88,305.00 1159.11,305.00 1160.34,305.00 1161.57,305.00 1162.81,305.00 1164.04,305.00 1165.25,305.00 1166.48,305.00 1167.71,305.00 1168.94,305.00 1170.17,305.00 1171.39,305.00 1172.63,305.00 1173.85,305.00 1175.07,305.00 1176.30,305.00 1177.52,305.00 1178.75,305.00 1180.00,305.00"/>
<polyline fill="none" stroke="#9467bd" stroke-opacity="0.50" stroke-width="2" points="70.00,305.00 71.22,305.00 72.45,305.00 73.67,305.00 74.90,305.00 76.14,305.00 77.35,305.00 78.58,305.00 79.90,305.00 81.12,305.00 82.34,305.00 83.55,305.00 84.80,305.00 86.01,305.00 87.23,305.00 89.43,305.00 91.33,305.00 92.56,305.00 93.82,305.00 95.04,305.00 96.26,305.00 97.46,305.00 98.69,305.00 99.91,305.00 101.15,305.00 102.38,305.00 103.62,305.00 104.85,305.00 106.08,305.00 107.36,305.00 108.60,305.00 109.82,305.00 111.07,305.00 112.30,305.00 113.52,305.00 114.79,305.00 116.00,305.00 117.22,305.00 118.47,305.00 119.68,305.00 120.90,305.00 122.11,305.00 123.33,305.00 124.56,305.00 125.78,305.00 127.03,305.00 128.26,305.00 129.47,305.00 130.69,305.00 131.93,305.00 133.15,305.00 134.55,305.00 135.77,305.00 136.99,305.00 138.21,305.00 139.42,305.00 140.64,305.00 141.85,305.00 143.08,305.00 144.30,305.00 145.55,305.00 146.77,305.00 147.98,305.00 149.21,305.00 150.45,305.00 151.67,305.00 152.90,305.00 154.11,305.00 155.32,305.00 156.53,305.00 157.75,305.00 158.97,305.00 160.19,305.00 161.40,305.00 162.63,305.00 163.86,305.00 165.07,305.00 166.30,305.00 167.51,305.00 168.73,305.00 169.98,305.00 171.20,305.00 172.42,305.00 173.65,305.00 174.87,305.00 176.10,305.00 177.32,305.00 178.53,305.00 179.74,305.00 180.97,305.00 182.20,305.00 183.42,305.00 184.66,305.00 185.86,305.00 187.09,305.00 188.31,305.00 189.53,305.00 190.74,305.00 191.97,305.00 193.18,305.00 194.41,305.00 195.63,305.00 196.86,305.00 198.08,305.00 199.32,305.00 200.55,305.00 201.77,305.00 202.99,305.00 204.21,305.00 205.43,305.00 206.66,305.00 207.89,305.00 209.11,305.00 210.33,305.00 211.56,305.00 212.78,305.00 214.02,305.00 215.26,305.00 216.48,305.00 217.70,305.00 218.92,305.00 220.14,305.00 221.36,305.00 222.60,305.00 223.92,305.00 225.14,305.00 226.38,305.00 227.60,305.00 228.81,305.00 230.02,305.00 231.23,305.00 232.45,305.00 233.67,305.00 234.89,305.00 236.11,305.00 237.33,305.00 238.55,305.00 239.76,305.00 241.01,305.00 242.22,305.00 243.44,305.00 244.66,305.00 245.88,305.00 247.10,305.00 248.33,305.00 249.56,305.00 250.78,305.00 252.01,305.00 253.23,305.00 254.44,305.00 255.66,305.00 256.88,305.00 258.10,305.00 259.32,305.00 260.56,305.00 261.78,305.00 263.00,305.00 264.24,305.00 265.46,305.00 266.68,305.00 267.90,305.00 269.13,305.00 270.37,305.00 271.61,305.00 272.83,305.00 274.05,305.00 275.27,305.00 276.48,305.00 277.70,305.00 278.92,305.00 280.14,305.00 281.35,305.00 282.57,305.00 283.80,305.00 285.03,305.00 286.25,305.00 287.47,305.00 288.73,305.00 289.95,305.00 291.17,305.00 292.38,305.00 293.60,305.00 294.93,305.00 296.18,305.00 297.39,305.00 298.61,305.00 299.81,305.00 301.04,305.00 302.26,305.00 303.49,305.00 304.72,305.00 305.93,305.00 307.15,305.00 308.37,305.00 309.62,305.00 310.84,305.00 312.06,305.00 313.28,305.00 314.51,305.00 315.76,305.00 317.01,305.00 318.22,305.00 319.45,305.00 320.67,305.00 321.89,305.00 323.11,305.00 324.34,305.00 325.58,305.00 326.79,305.00 328.01,305.00 329.24,305.00 330.47,305.00 331.69,305.00 332.91,305.00 334.15,305.00 335.38,305.00 336.59,305.00 337.80,305.00 339.02,305.00 340.25,305.00 341.47,305.00 342.68,305.00 343.90,305.00 345.11,305.00 346.33,305.00 347.56,305.00 348.79,305.00 350.02,305.00 351.25,305.00 352.48,305.00 353.71,305.00 354.93,305.00 356.16,305.00 357.38,305.00 358.60,305.00 359.82,305.00 361.07,305.00 362.30,305.00 363.53,305.00 364.75,305.00 365.97,305.00 367.20,305.00 368.40,305.00 369.62,305.00 370.86,305.00 372.08,305.00 373.30,305.00 374.53,305.00 375.76,305.00 376.98,305.00 378.20,305.00 379.44,305.00 380.67,305.00 381.89,305.00 383.11,305.00 384.34,305.00 385.58,305.00 386.80,305.00 388.02,305.00 389.24,305.00 390.60,305.00 391.83,305.00 393.06,305.00 394.28,305.00 395.52,305.00 396.74,305.00 397.97,305.00 399.20,305.00 400.41,305.00 401.67,305.00 402.91,305.00 404.12,305.00 405.34,305.00 406.57,305.00 407.79,305.00 409.02,305.00 410.29,305.00 411.51,305.00 412.73,305.00 413.97,305.00 415.29,305.00 416.51,305.00 418.05,305.00 420.12,305.00 421.37,305.00 422.62,305.00 423.84,305.00 425.04,305.00 426.26,305.00 427.50,305.00 428.73,305.00 429.96,305.00 431.23,305.00 432.50,305.00 433.79,305.00 435.02,305.00 436.25,305.00 437.47,305.00 438.71,305.00 439.95,305.00 441.18,305.00 442.40,305.00 443.62,305.00 444.90,305.00 446.13,305.00 447.34,305.00 448.56,305.00 449.81,305.00 451.08,305.00 452.31,305.00 453.53,305.00 454.79,305.00 455.96,305.00 457.18,305.00 458.43,305.00 459.64,305.00 460.88,305.00 462.15,305.00 463.37,305.00 464.60,305.00 465.83,305.00 467.07,305.00 468.29,305.00 469.51,305.00 470.73,305.00 471.96,305.00 473.19,305.00 474.40,305.00 475.86,305.00 477.30,305.00 478.75,305.00 480.17,305.00 481.57,305.00 482.98,305.00 484.42,305.00 485.85,305.00 487.08,305.00 488.29,305.00 489.51,305.00 490.73,305.00 491.95,305.00 493.16,305.00 494.38,305.00 495.60,305.00 496.82,305.00 498.04,305.00 499.26,305.00 500.48,305.00 501.70,305.00 502.91,305.00 504.13,305.00 505.35,305.00 506.57,305.00 507.78,305.00 509.01,305.00 510.24,305.00 511.45,305.00 512.66,305.00 513.88,305.00 515.10,305.00 516.32,305.00 517.55,305.00 518.76,305.00 519.99,305.00 521.21,305.00 522.43,305.00 523.65,305.00 524.87,305.00 526.08,305.00 527.30,305.00 528.51,305.00 529.71,305.00 530.93,305.00 532.15,305.00 533.36,305.00 534.58,305.00 535.80,305.00 537.02,305.00 538.22,305.00 539.43,305.00 540.64,305.00 541.90,305.00 543.21,305.00 544.44,305.00 545.66,305.00 546.88,305.00 548.10,305.00 549.31,305.00 550.52,305.00 551.74,305.00 553.18,305.00 554.61,305.00 556.03,305.00 557.47,305.00 558.91,305.00 560.33,305.00 561.79,305.00 563.27,305.00 564.61,305.00 565.92,305.00 567.14,305.00 568.38,305.00 569.60,305.00 570.81,305.00 572.03,305.00 573.25,305.00 574.47,305.00 575.69,305.00 576.90,305.00 578.12,305.00 579.35,305.00 580.57,305.00 581.80,305.00 583.02,305.00 584.24,305.00 585.31,305.00 586.57,305.00 587.79,305.00 589.04,305.00 590.26,305.00 591.48,305.00 592.71,305.00 593.94,305.00 595.17,305.00 596.40,305.00 597.63,305.00 598.88,305.00 600.09,305.00 601.30,305.00 602.52,305.00 603.73,305.00 604.95,305.00 606.16,305.00 607.40,305.00 608.61,305.00 609.84,305.00 611.06,305.00 612.27,305.00 613.50,305.00 614.72,305.00 615.95,305.00 617.18,305.00 618.40,305.00 619.62,305.00 620.86,305.00 622.08,305.00 623.34,305.00 624.55,305.00 625.77,305.00 626.99,305.00 628.20,305.00 629.41,305.00 630.65,305.00 631.87,305.00 633.08,305.00 634.30,305.00 635.52,305.00 636.74,305.00 637.96,305.00 639.20,305.00 640.42,305.00 641.89,305.00 643.14,305.00 644.40,305.00 645.63,305.00 646.85,305.00 648.09,305.00 649.30,305.00 650.52,305.00 651.75,305.00 652.99,305.00 654.20,305.00 655.43,305.00 656.66,305.00 657.88,305.00 659.14,305.00 660.39,305.00 661.61,305.00 662.84,305.00 664.06,305.00 665.28,305.00 666.50,305.00 667.72,305.00 668.99,305.00 670.22,305.00 671.45,305.00 672.67,305.00 673.90,305.00 675.13,305.00 676.34,305.00 677.57,305.00 678.80,305.00 680.02,305.00 681.25,305.00 682.48,305.00 683.69,305.00 684.92,305.00 686.14,305.00 687.38,305.00 688.61,305.00 689.82,305.00 691.04,305.00 692.26,305.00 693.51,305.00 694.74,305.00 696.21,305.00 697.46,305.00 698.68,305.00 699.91,305.00 701.13,305.00 702.36,305.00 703.58,305.00 704.81,305.00 706.06,305.00 707.27,305.00 708.49,305.00 709.71,305.00 710.93,305.00 712.15,305.00 713.37,305.00 714.61,305.00 715.82,305.00 717.04,305.00 718.26,305.00 719.48,305.00 720.72,305.00 721.94,305.00 723.15,305.00 724.39,305.00 725.63,305.00 726.84,305.00 728.06,305.00 729.29,305.00 730.55,305.00 731.76,305.00 732.99,305.00 734.22,305.00 735.45,305.00 736.66,305.00 737.89,305.00 739.12,305.00 740.37,305.00 741.59,305.00 742.81,305.00 744.02,305.00 745.24,305.00 746.47,305.00 747.69,305.00 748.91,305.00 750.15,305.00 751.39,305.00 752.62,305.00 753.82,305.00 755.06,305.00 756.27,305.00 757.50,305.00 758.71,305.00 759.94,305.00 761.16,305.00 762.40,305.00 763.62,305.00 764.84,305.00 766.08,305.00 767.31,305.00 768.54,305.00 769.76,305.00 771.00,305.00 772.38,305.00 773.72,305.00 775.03,305.00 776.26,305.00 777.54,305.00 778.77,305.00 780.00,305.00 781.21,305.00 782.35,305.00 783.63,305.00 784.85,305.00 786.09,305.00 787.30,305.00 788.52,305.00 789.74,305.00 790.98,305.00 792.19,305.00 793.42,305.00 794.64,305.00 795.87,305.00 797.10,305.00 798.33,305.00 799.56,305.00 800.80,305.00 802.03,305.00 803.26,305.00 804.48,305.00 805.73,305.00 806.96,305.00 808.17,305.00 809.39,305.00 810.62,305.00 811.84,305.00 813.06,305.00 814.29,305.00 815.51,305.00 816.75,305.00 817.97,305.00 819.19,305.00 820.42,305.00 821.64,305.00 822.88,305.00 824.11,305.00 825.32,305.00 826.55,305.00 827.78,305.00 829.01,305.00 830.24,305.00 831.48,305.00 832.71,305.00 833.93,305.00 835.16,305.00 836.39,305.00 837.63,305.00 838.89,305.00 840.11,305.00 841.34,305.00 842.57,305.00 843.79,305.00 845.02,305.00 846.24,305.00 847.48,305.00 848.71,305.00 849.93,305.00 851.16,305.00 852.39,305.00 853.62,305.00 854.85,305.00 856.08,305.00 857.32,305.00 858.55,305.00 859.78,305.00 861.02,305.00 862.25,305.00 863.47,305.00 864.70,305.00 865.93,305.00 867.18,305.00 868.41,305.00 869.65,305.00 870.88,305.00 872.10,305.00 873.32,305.00 874.55,305.00 875.78,305.00 877.01,305.00 878.23,305.00 879.46,305.00 880.68,305.00 881.91,305.00 883.15,305.00 884.38,305.00 885.60,305.00 886.84,305.00 888.07,305.00 889.30,305.00 890.53,305.00 891.75,305.00 892.97,305.00 894.19,305.00 895.41,305.00 896.65,305.00 897.88,305.00 899.11,305.00 900.34,305.00 901.56,305.00 902.80,305.00 904.04,305.00 905.26,305.00 906.50,305.00 907.74,305.00 908.96,305.00 910.19,305.00 911.42,305.00 912.67,305.00 913.90,305.00 915.13,305.00 916.38,305.00 917.62,305.00 918.85,305.00 920.08,305.00 921.30,305.00 922.53,305.00 923.77,305.00 925.01,305.00 926.24,305.00 927.47,305.00 928.69,305.00 929.91,305.00 931.17,305.00 932.39,305.00 933.63,305.00 934.86,305.00 936.08,305.00 937.30,305.00 938.52,305.00 939.74,305.00 940.97,305.00 942.20,305.00 943.43,305.00 944.65,305.00 945.88,305.00 947.11,305.00 948.37,305.00 949.61,305.00 950.83,305.00 952.06,305.00 953.27,305.00 954.50,305.00 955.73,305.00 956.97,305.00 958.19,305.00 959.42,305.00 960.66,305.00 961.88,305.00 963.11,305.00 964.34,305.00 965.58,305.00 966.85,305.00 968.08,305.00 969.32,305.00 970.56,305.00 971.78,305.00 973.02,305.00 974.24,305.00 975.46,305.00 976.68,305.00 977.92,305.00 979.15,305.00 980.39,305.00 981.62,305.00 982.87,305.00 984.14,305.00 985.37,305.00 986.59,305.00 987.83,305.00 989.05,305.00 990.29,305.00 991.53,305.00 992.77,305.00 994.00,305.00 995.24,305.00 996.47,305.00 997.71,305.00 998.94,305.00 1000.17,305.00 1001.40,305.00 1002.63,305.00 1003.85,305.00 1005.09,305.00 1006.33,305.00 1007.56,305.00 1008.79,305.00 1010.02,305.00 1011.26,305.00 1012.49,305.00 1013.72,305.00 1014.96,305.00 1016.23,305.00 1017.46,305.00 1018.70,305.00 1019.93,305.00 1021.19,305.00 1022.45,305.00 1023.70,305.00 1024.95,305.00 1026.22,305.00 1027.45,305.00 1028.68,305.00 1029.91,305.00 1031.14,305.00 1032.38,305.00 1033.62,305.00 1034.88,305.00 1036.10,305.00 1037.34,305.00 1038.57,305.00 1039.79,305.00 1041.02,305.00 1042.25,305.00 1043.48,305.00 1044.70,305.00 1045.93,305.00 1047.15,305.00 1048.38,305.00 1049.59,305.00 1050.82,305.00 1052.06,305.00 1053.30,305.00 1054.52,305.00 1055.76,305.00 1057.00,305.00 1058.22,305.00 1059.46,305.00 1060.69,305.00 1061.91,305.00 1063.14,305.00 1064.36,305.00 1065.60,305.00 1066.83,305.00 1068.05,305.00 1069.26,305.00 1070.49,305.00 1071.72,305.00 1072.95,305.00 1074.18,305.00 1075.41,305.00 1076.64,305.00 1077.86,305.00 1079.09,305.00 1080.33,305.00 1081.55,305.00 1082.76,305.00 1083.98,305.00 1085.18,305.00 1086.41,305.00 1087.64,305.00 1088.90,305.00 1090.12,305.00 1091.35,305.00 1092.58,305.00 1093.83,305.00 1095.06,305.00 1096.29,305.00 1097.53,305.00 1098.76,305.00 1099.98,305.00 1101.23,305.00 1102.46,305.00 1103.70,305.00 1104.94,305.00 1106.17,305.00 1107.39,305.00 1108.61,305.00 1109.83,305.00 1111.06,305.00 1112.29,305.00 1113.50,305.00 1114.73,305.00 1115.96,305.00 1117.20,305.00 1118.42,305.00 1119.64,305.00 1120.87,305.00 1122.10,305.00 1123.33,305.00 1124.57,305.00 1125.80,305.00 1127.03,305.00 1128.25,305.00 1129.50,305.00 1130.71,305.00 1131.94,305.00 1133.18,305.00 1134.40,305.00 1135.62,305.00 1136.86,305.00 1138.10,305.00 1139.32,305.00 1140.54,305.00 1141.77,305.00 1143.04,305.00 1144.27,305.00 1145.52,305.00 1146.77,305.00 1148.00,305.00 1149.23,305.00 1150.46,305.00 1151.70,305.00 1152.93,305.00 1154.15,305.00 1155.39,305.00 1156.65,305.00 1157.88,305.00 1159.11,305.00 1160.34,305.00 1161.57,305.00 1162.81,305.00 1164.04,305.00 1165.25,305.00 1166.48,305.00 1167.71,305.00 1168.94,305.00 1170.17,305.00 1171.39,305.00 1172.63,305.00 1173.85,305.00 1175.07,305.00 1176.30,305.00 1177.52,305.00 1178.75,305.00 1180.00,305.00"/>
<rect x="70" y="332" width="12" height="12" fill="#9467bd" fill-opacity="0.95"/>
<text x="88" y="342" font-size="11" fill="#333" font-family="Arial, Helvetica, sans-serif">nsc1.utdallas.edu</text>
<rect x="350" y="332" width="12" height="12" fill="#9467bd" fill-opacity="0.80"/>
<text x="368" y="342" font-size="11" fill="#333" font-family="Arial, Helvetica, sans-serif">nsc2.utdallas.edu</text>
<rect x="630" y="332" width="12" height="12" fill="#9467bd" fill-opacity="0.65"/>
<text x="648" y="342" font-size="11" fill="#333" font-family="Arial, Helvetica, sans-serif">nsc3.utdallas.edu</text>
<rect x="910" y="332" width="12" height="12" fill="#9467bd" fill-opacity="0.50"/>
<text x="928" y="342" font-size="11" fill="#333" font-family="Arial, Helvetica, sans-serif">nsc4.utdallas.edu</text>
</svg>