<?xml version="1.0" encoding="UTF-8"?>
<svg xmlns="http://www.w3.org/2000/svg" width="1200" height="360" viewBox="0 0 1200 360" role="img" aria-label="GPU Utilization (%)">
<rect width="100%" height="100%" fill="#ffffff"/>
<text x="600.0" y="22" text-anchor="middle" font-size="16" font-family="Arial, Helvetica, sans-serif" font-weight="bold">GPU Utilization (%)</text>
<line x1="70" y1="35.00" x2="1180" y2="35.00" stroke="#e3e3e3" stroke-width="1"/>
<text x="62" y="39.00" text-anchor="end" font-size="11" fill="#444" font-family="Arial, Helvetica, sans-serif">100</text>
<line x1="70" y1="89.00" x2="1180" y2="89.00" stroke="#e3e3e3" stroke-width="1"/>
<text x="62" y="93.00" text-anchor="end" font-size="11" fill="#444" font-family="Arial, Helvetica, sans-serif">80</text>
<line x1="70" y1="143.00" x2="1180" y2="143.00" stroke="#e3e3e3" stroke-width="1"/>
<text x="62" y="147.00" text-anchor="end" font-size="11" fill="#444" font-family="Arial, Helvetica, sans-serif">60</text>
<line x1="70" y1="197.00" x2="1180" y2="197.00" stroke="#e3e3e3" stroke-width="1"/>
<text x="62" y="201.00" text-anchor="end" font-size="11" fill="#444" font-family="Arial, Helvetica, sans-serif">40</text>
<line x1="70" y1="251.00" x2="1180" y2="251.00" stroke="#e3e3e3" stroke-width="1"/>
<text x="62" y="255.00" text-anchor="end" font-size="11" fill="#444" font-family="Arial, Helvetica, sans-serif">20</text>
<line x1="70" y1="305.00" x2="1180" y2="305.00" stroke="#e3e3e3" stroke-width="1"/>
<text x="62" y="309.00" text-anchor="end" font-size="11" fill="#444" font-family="Arial, Helvetica, sans-serif">0</text>
<line x1="70" y1="35" x2="70" y2="305" stroke="#999"/>
<line x1="70" y1="305" x2="1180" y2="305" stroke="#999"/>
<text x="70.00" y="323" text-anchor="middle" font-size="10" fill="#444" font-family="Arial, Helvetica, sans-serif">2026-02-11 16:38</text>
<text x="347.50" y="323" text-anchor="middle" font-size="10" fill="#444" font-family="Arial, Helvetica, sans-serif">2026-02-13 00:48</text>
<text x="625.00" y="323" text-anchor="middle" font-size="10" fill="#444" font-family="Arial, Helvetica, sans-serif">2026-02-14 08:57</text>
<text x="902.50" y="323" text-anchor="middle" font-size="10" fill="#444" font-family="Arial, Helvetica, sans-serif">2026-02-15 17:07</text>
<text x="1180.00" y="323" text-anchor="middle" font-size="10" fill="#444" font-family="Arial, Helvetica, sans-serif">2026-02-17 01:17</text>
<polyline fill="none" stroke="#9467bd" stroke-opacity="0.95" stroke-width="2" points="70.77,305.00 71.55,305.00 72.32,305.00 73.10,305.00 73.88,305.00 74.65,305.00 75.42,305.00 76.26,305.00 77.03,305.00 77.80,305.00 78.57,305.00 79.36,305.00 80.12,305.00 80.89,305.00 82.29,305.00 83.49,305.00 84.27,305.00 85.06,305.00 85.83,305.00 86.60,305.00 87.36,305.00 88.14,305.00 88.91,305.00 89.69,305.00 90.47,305.00 91.26,305.00 92.04,305.00 92.81,305.00 93.63,305.00 94.41,305.00 95.18,305.00 95.97,305.00 96.75,305.00 97.52,305.00 98.32,305.00 99.09,305.00 99.86,305.00 100.65,305.00 101.41,305.00 102.19,305.00 102.95,305.00 103.72,305.00 104.50,305.00 105.27,305.00 106.06,305.00 106.84,305.00 107.60,305.00 108.38,305.00 109.16,305.00 109.93,305.00 110.82,305.00 111.59,305.00 112.36,305.00 113.13,305.00 113.90,305.00 114.66,305.00 115.43,305.00 116.21,305.00 116.98,305.00 117.77,305.00 118.54,305.00 119.31,305.00 120.08,305.00 120.87,305.00 121.64,305.00 122.42,305.00 123.18,305.00 123.95,305.00 124.72,305.00 125.48,305.00 126.26,305.00 127.03,305.00 127.80,305.00 128.57,305.00 129.35,305.00 130.11,305.00 130.89,305.00 131.66,305.00 132.43,305.00 133.22,305.00 133.99,305.00 134.76,305.00 135.54,305.00 136.31,305.00 137.09,305.00 137.86,305.00 138.62,305.00 139.39,305.00 140.17,305.00 140.95,305.00 141.72,305.00 142.50,305.00 143.26,305.00 144.04,305.00 144.81,305.00 145.58,305.00 146.35,305.00 147.12,305.00 147.89,305.00 148.67,305.00 149.44,305.00 150.21,305.00 150.99,305.00 151.77,305.00 152.55,305.00 153.32,305.00 154.09,305.00 154.86,305.00 155.63,305.00 156.41,305.00 157.19,305.00 157.96,305.00 158.73,305.00 159.51,305.00 160.28,305.00 161.06,305.00 161.85,305.00 162.62,305.00 163.39,305.00 164.17,305.00 164.94,305.00 165.71,305.00 166.49,305.00 167.33,305.00 168.10,305.00 168.88,305.00 169.65,305.00 170.42,305.00 171.19,305.00 171.95,305.00 172.72,305.00 173.49,305.00 174.26,305.00 175.03,305.00 175.80,305.00 176.58,305.00 177.34,305.00 178.13,305.00 178.90,305.00 179.67,305.00 180.44,305.00 181.21,305.00 181.98,305.00 182.76,305.00 183.54,305.00 184.31,305.00 185.08,305.00 185.86,305.00 186.62,305.00 187.39,305.00 188.16,305.00 188.94,305.00 189.71,305.00 190.49,305.00 191.27,305.00 192.04,305.00 192.82,305.00 193.59,305.00 194.36,305.00 195.14,305.00 195.91,305.00 196.70,305.00 197.48,305.00 198.25,305.00 199.03,305.00 199.79,305.00 200.56,305.00 201.33,305.00 202.11,305.00 202.88,305.00 203.64,305.00 204.41,305.00 205.19,305.00 205.96,305.00 206.74,305.00 207.51,305.00 208.30,305.00 209.08,305.00 209.85,305.00 210.62,305.00 211.38,305.00 212.22,305.00 213.02,305.00 213.78,305.00 214.55,305.00 215.31,305.00 216.09,305.00 216.86,305.00 217.64,305.00 218.41,305.00 219.18,305.00 219.95,305.00 220.73,305.00 221.52,305.00 222.29,305.00 223.06,305.00 223.83,305.00 224.61,305.00 225.40,305.00 226.19,305.00 226.95,305.00 227.73,305.00 228.50,305.00 229.27,305.00 230.05,305.00 230.82,305.00 231.61,305.00 232.38,305.00 233.14,305.00 233.92,305.00 234.70,305.00 235.47,305.00 236.24,305.00 237.03,305.00 237.80,305.00 238.57,305.00 239.33,305.00 240.10,305.00 240.88,305.00 241.65,305.00 242.42,305.00 243.19,305.00 243.96,305.00 244.73,305.00 245.51,305.00 246.28,305.00 247.06,305.00 247.84,305.00 248.62,305.00 249.39,305.00 250.16,305.00 250.94,305.00 251.71,305.00 252.49,305.00 253.26,305.00 254.05,305.00 254.83,305.00 255.60,305.00 256.38,305.00 257.14,305.00 257.92,305.00 258.69,305.00 259.46,305.00 260.24,305.00 261.01,305.00 261.78,305.00 262.56,305.00 263.34,305.00 264.11,305.00 264.88,305.00 265.66,305.00 266.44,305.00 267.21,305.00 267.98,305.00 268.76,305.00 269.54,305.00 270.32,305.00 271.09,305.00 271.86,305.00 272.72,305.00 273.50,305.00 274.27,305.00 275.05,305.00 275.83,305.00 276.61,305.00 277.38,305.00 278.16,305.00 278.92,305.00 279.72,80.90 280.50,72.80 281.27,305.00 282.04,305.00 282.82,305.00 283.59,305.00 284.37,305.00 285.17,305.00 285.94,305.00 286.71,305.00 287.50,305.00 288.33,305.00 289.11,305.00 290.08,305.00 291.39,305.00 292.18,305.00 292.97,305.00 293.74,305.00 294.50,305.00 295.27,305.00 296.05,305.00 296.83,305.00 297.61,305.00 298.41,305.00 299.21,305.00 300.03,305.00 300.81,305.00 301.58,305.00 302.36,305.00 303.14,305.00 303.92,305.00 304.71,305.00 305.48,305.00 306.25,305.00 307.05,305.00 307.83,305.00 308.60,305.00 309.37,305.00 310.16,305.00 310.96,305.00 311.74,305.00 312.51,305.00 313.31,305.00 314.05,305.00 314.82,305.00 315.61,305.00 316.38,305.00 317.16,305.00 317.96,305.00 318.74,305.00 319.51,305.00 320.29,305.00 321.07,305.00 321.85,305.00 322.62,305.00 323.39,305.00 324.17,305.00 324.94,305.00 325.71,305.00 326.63,305.00 327.54,305.00 328.46,305.00 329.36,305.00 330.24,305.00 331.13,305.00 332.05,305.00 332.95,305.00 333.72,305.00 334.49,305.00 335.26,305.00 336.03,305.00 336.81,305.00 337.57,305.00 338.34,305.00 339.11,305.00 339.89,305.00 340.66,305.00 341.43,305.00 342.20,305.00 342.97,305.00 343.74,305.00 344.51,305.00 345.28,305.00 346.05,305.00 346.82,305.00 347.59,305.00 348.37,305.00 349.14,305.00 349.90,305.00 350.67,305.00 351.44,305.00 352.22,305.00 352.99,305.00 353.76,305.00 354.53,305.00 355.31,305.00 356.08,305.00 356.85,305.00 357.62,305.00 358.39,305.00 359.16,305.00 359.92,305.00 360.68,305.00 361.46,305.00 362.22,305.00 362.99,305.00 363.76,305.00 364.53,305.00 365.30,305.00 366.07,305.00 366.83,305.00 367.59,305.00 368.39,305.00 369.22,305.00 370.00,305.00 370.77,305.00 371.54,305.00 372.31,305.00 373.07,305.00 373.84,305.00 374.61,305.00 375.52,305.00 376.43,305.00 377.33,305.00 378.23,305.00 379.14,305.00 380.04,305.00 380.97,305.00 381.90,305.00 382.75,305.00 383.58,305.00 384.35,305.00 385.13,305.00 385.91,305.00 386.67,305.00 387.44,305.00 388.21,305.00 388.98,305.00 389.75,305.00 390.52,305.00 391.30,305.00 392.07,305.00 392.84,305.00 393.62,305.00 394.39,305.00 395.16,305.00 395.84,305.00 396.63,305.00 397.41,305.00 398.20,305.00 398.97,305.00 399.74,305.00 400.52,305.00 401.30,305.00 402.07,305.00 402.85,305.00 403.63,305.00 404.42,305.00 405.19,305.00 405.95,305.00 406.72,305.00 407.49,305.00 408.26,305.00 409.02,305.00 409.81,305.00 410.57,305.00 411.35,305.00 412.12,305.00 412.89,305.00 413.67,305.00 414.44,305.00 415.21,305.00 415.99,305.00 416.76,305.00 417.53,305.00 418.31,305.00 419.09,305.00 419.89,305.00 420.65,305.00 421.42,305.00 422.19,305.00 422.96,305.00 423.73,305.00 424.51,305.00 425.28,305.00 426.04,305.00 426.82,305.00 427.58,305.00 428.36,305.00 429.13,305.00 429.91,305.00 430.68,305.00 431.61,305.00 432.41,305.00 433.20,305.00 433.98,305.00 434.75,305.00 435.54,305.00 436.30,305.00 437.07,305.00 437.85,305.00 438.63,305.00 439.40,305.00 440.18,305.00 440.95,305.00 441.73,305.00 442.53,305.00 443.31,305.00 444.09,305.00 444.86,305.00 445.63,305.00 446.41,305.00 447.17,305.00 447.95,305.00 448.75,305.00 449.53,305.00 450.31,305.00 451.08,305.00 451.85,305.00 452.63,305.00 453.40,305.00 454.17,305.00 454.95,305.00 455.73,305.00 456.50,305.00 457.28,305.00 458.05,305.00 458.82,305.00 459.59,305.00 460.38,305.00 461.16,305.00 461.92,305.00 462.69,305.00 463.47,305.00 464.25,305.00 465.03,305.00 465.96,305.00 466.76,305.00 467.53,305.00 468.30,305.00 469.07,305.00 469.85,305.00 470.62,305.00 471.40,305.00 472.19,305.00 472.96,305.00 473.73,305.00 474.50,305.00 475.27,305.00 476.04,305.00 476.82,305.00 477.59,305.00 478.36,305.00 479.13,305.00 479.90,305.00 480.68,305.00 481.46,305.00 482.23,305.00 483.00,305.00 483.78,305.00 484.56,305.00 485.33,305.00 486.10,305.00 486.88,305.00 487.68,305.00 488.44,305.00 489.22,305.00 490.00,305.00 490.77,305.00 491.54,305.00 492.32,305.00 493.09,305.00 493.89,305.00 494.66,305.00 495.43,305.00 496.20,305.00 496.97,305.00 497.74,305.00 498.52,305.00 499.29,305.00 500.07,305.00 500.85,305.00 501.63,305.00 502.39,305.00 503.17,305.00 503.94,305.00 504.71,305.00 505.48,305.00 506.26,305.00 507.03,305.00 507.81,305.00 508.59,305.00 509.36,305.00 510.14,305.00 510.92,305.00 511.70,305.00 512.47,305.00 513.25,305.00 514.12,305.00 514.97,305.00 515.80,305.00 516.58,305.00 517.39,305.00 518.17,305.00 518.94,305.00 519.71,305.00 520.43,305.00 521.24,305.00 522.01,305.00 522.80,305.00 523.56,305.00 524.33,305.00 525.10,305.00 525.88,305.00 526.65,305.00 527.43,305.00 528.20,305.00 528.98,305.00 529.75,305.00 530.53,305.00 531.31,305.00 532.10,305.00 532.87,305.00 533.65,305.00 534.42,305.00 535.21,305.00 535.99,305.00 536.76,305.00 537.53,305.00 538.31,305.00 539.08,305.00 539.85,305.00 540.63,305.00 541.40,305.00 542.19,305.00 542.95,305.00 543.72,305.00 544.50,305.00 545.28,305.00 546.06,305.00 546.83,305.00 547.60,305.00 548.38,305.00 549.16,305.00 549.94,305.00 550.71,305.00 551.50,305.00 552.27,305.00 553.05,305.00 553.82,305.00 554.60,305.00 555.38,305.00 556.18,305.00 556.95,305.00 557.73,305.00 558.51,305.00 559.28,305.00 560.06,305.00 560.83,305.00 561.61,305.00 562.39,305.00 563.16,305.00 563.94,305.00 564.72,305.00 565.49,305.00 566.28,305.00 567.05,305.00 567.83,305.00 568.61,305.00 569.39,305.00 570.18,305.00 570.95,305.00 571.72,305.00 572.50,305.00 573.28,305.00 574.07,305.00 574.85,305.00 575.63,305.00 576.41,305.00 577.18,305.00 577.95,305.00 578.73,305.00 579.51,305.00 580.29,305.00 581.06,305.00 581.83,305.00 582.61,305.00 583.39,305.00 584.17,305.00 584.94,305.00 585.72,305.00 586.50,305.00 587.28,305.00 588.06,305.00 588.83,305.00 589.61,305.00 590.38,305.00 591.15,305.00 591.92,305.00 592.70,305.00 593.48,305.00 594.26,305.00 595.04,305.00 595.81,305.00 596.60,305.00 597.38,305.00 598.15,305.00 598.93,305.00 599.72,305.00 600.49,305.00 601.27,305.00 602.04,305.00 602.83,305.00 603.61,305.00 604.39,305.00 605.18,305.00 605.96,305.00 606.74,305.00 607.52,305.00 608.29,305.00 609.07,305.00 609.85,305.00 610.64,305.00 611.41,305.00 612.19,305.00 612.97,305.00 613.73,305.00 614.53,305.00 615.30,305.00 616.09,305.00 616.86,305.00 617.64,305.00 618.41,305.00 619.18,305.00 619.95,305.00 620.73,305.00 621.51,305.00 622.28,305.00 623.06,305.00 623.84,305.00 624.61,305.00 625.41,305.00 626.19,305.00 626.96,305.00 627.74,305.00 628.51,305.00 629.28,305.00 630.06,305.00 630.84,305.00 631.62,305.00 632.40,305.00 633.18,305.00 633.95,305.00 634.73,305.00 635.51,305.00 636.29,305.00 637.09,305.00 637.87,305.00 638.65,305.00 639.44,305.00 640.21,305.00 641.00,305.00 641.77,305.00 642.54,305.00 643.31,305.00 644.09,305.00 644.87,305.00 645.65,305.00 646.43,305.00 647.22,305.00 648.03,305.00 648.80,305.00 649.58,305.00 650.36,305.00 651.13,305.00 651.91,305.00 652.70,305.00 653.48,305.00 654.26,305.00 655.05,305.00 655.82,305.00 656.60,305.00 657.39,305.00 658.16,305.00 658.94,305.00 659.72,305.00 660.49,305.00 661.27,305.00 662.06,305.00 662.83,305.00 663.61,305.00 664.39,305.00 665.17,305.00 665.95,305.00 666.73,305.00 667.51,305.00 668.32,305.00 669.09,305.00 669.88,305.00 670.66,305.00 671.45,305.00 672.25,305.00 673.04,305.00 673.83,305.00 674.63,305.00 675.41,305.00 676.19,305.00 676.97,305.00 677.75,305.00 678.53,305.00 679.31,305.00 680.11,305.00 680.88,305.00 681.66,305.00 682.44,305.00 683.21,305.00 683.99,305.00 684.77,305.00 685.55,305.00 686.32,305.00 687.10,305.00 687.87,305.00 688.65,305.00 689.41,305.00 690.19,305.00 690.97,305.00 691.75,305.00 692.53,305.00 693.31,305.00 694.10,305.00 694.87,305.00 695.65,305.00 696.43,305.00 697.20,305.00 697.98,305.00 698.75,305.00 699.53,305.00 700.31,305.00 701.08,305.00 701.85,305.00 702.63,305.00 703.40,305.00 704.18,305.00 704.96,305.00 705.73,305.00 706.51,305.00 707.29,305.00 708.06,305.00 708.85,305.00 709.62,305.00 710.38,305.00 711.15,305.00 711.92,305.00 712.69,305.00 713.47,305.00 714.27,305.00 715.04,305.00 715.81,305.00 716.59,305.00 717.38,305.00 718.17,305.00 718.94,305.00 719.73,305.00 720.50,305.00 721.27,305.00 722.06,305.00 722.84,305.00 723.63,305.00 724.41,305.00 725.18,305.00 725.96,305.00 726.73,305.00 727.50,305.00 728.28,305.00 729.06,305.00 729.82,305.00 730.60,305.00 731.38,305.00 732.16,305.00 732.93,305.00 733.71,305.00 734.48,305.00 735.26,305.00 736.04,305.00 736.82,305.00 737.60,305.00 738.37,305.00 739.15,305.00 739.94,305.00 740.71,305.00 741.48,305.00 742.26,305.00 743.04,305.00 743.81,305.00 744.59,305.00 745.38,305.00 746.15,305.00 746.92,305.00 747.70,305.00 748.50,305.00 749.28,305.00 750.07,305.00 750.86,305.00 751.64,305.00 752.41,305.00 753.19,305.00 753.97,305.00 754.75,305.00 755.52,305.00 756.31,305.00 757.10,305.00 757.89,305.00 758.66,305.00 759.44,305.00 760.21,305.00 761.00,305.00 761.78,305.00 762.55,305.00 763.32,305.00 764.10,305.00 764.88,305.00 765.65,305.00 766.43,305.00 767.21,305.00 767.98,305.00 768.75,305.00 769.53,305.00 770.30,305.00 771.08,305.00 771.87,305.00 772.64,305.00 773.42,305.00 774.19,305.00 774.97,305.00 775.74,305.00 776.53,305.00 777.30,305.00 778.09,305.00 778.87,305.00 779.64,305.00 780.41,305.00 781.19,305.00 781.97,305.00 782.74,305.00 783.53,305.00 784.32,305.00 785.11,305.00 785.91,305.00 786.69,305.00 787.49,305.00 788.29,305.00 789.08,305.00 789.89,305.00 790.68,305.00 791.48,305.00 792.25,305.00 793.02,305.00 793.81,305.00 794.59,305.00 795.37,305.00 796.15,305.00 796.93,305.00 797.71,305.00 798.49,305.00 799.27,305.00 800.04,305.00 800.81,305.00 801.59,305.00 802.37,305.00 803.14,305.00 803.92,305.00 804.70,305.00 805.48,305.00 806.27,305.00 807.05,305.00 807.82,305.00 808.60,305.00 809.37,305.00 810.15,305.00 810.93,305.00 811.71,305.00 812.49,305.00 813.26,305.00 814.05,305.00 814.82,305.00 815.60,305.00 816.38,305.00 817.15,305.00 817.93,305.00 818.76,305.00 819.57,305.00 820.34,305.00 821.12,305.00 821.89,305.00 822.68,305.00 823.47,305.00 824.25,305.00 825.03,305.00 825.80,305.00 826.56,305.00 827.34,305.00 828.11,305.00 828.89,305.00 829.67,305.00 830.45,305.00 831.23,305.00 832.01,305.00 832.79,305.00 833.57,305.00 834.34,305.00 835.12,305.00 835.90,305.00 836.68,305.00 837.45,305.00 838.23,305.00 839.01,305.00 839.79,305.00 840.57,305.00 841.38,305.00 842.16,305.00 842.94,305.00 843.71,305.00 844.49,305.00 845.27,305.00 846.05,305.00 846.83,305.00 847.60,305.00 848.39,305.00 849.17,305.00 849.96,305.00 850.74,305.00 851.52,305.00 852.30,305.00 853.07,305.00 853.85,305.00 854.63,305.00 855.41,305.00 856.18,305.00 856.97,305.00 857.75,305.00 858.52,305.00 859.30,305.00 860.07,305.00 860.85,305.00 861.63,305.00 862.40,305.00 863.18,305.00 863.96,305.00 864.74,305.00 865.51,305.00 866.29,305.00 867.07,305.00 867.85,305.00 868.63,305.00 869.41,305.00 870.18,305.00 870.95,305.00 871.72,305.00 872.50,305.00 873.28,305.00 874.06,305.00 874.86,305.00 875.64,305.00 876.41,305.00 877.20,305.00 877.97,305.00 878.76,305.00 879.60,305.00 880.39,305.00 881.18,305.00 881.96,305.00 882.75,305.00 883.52,305.00 884.30,305.00 885.08,305.00 885.86,305.00 886.63,305.00 887.42,305.00 888.19,305.00 888.97,305.00 889.77,305.00 890.55,305.00 891.33,305.00 892.11,305.00 892.88,305.00 893.67,305.00 894.45,305.00 895.22,305.00 896.00,305.00 896.79,305.00 897.56,305.00 898.34,305.00 899.12,305.00 899.91,305.00 900.69,305.00 901.48,305.00 902.25,305.00 903.04,305.00 903.81,305.00 904.59,305.00 905.37,305.00 906.14,305.00 906.92,305.00 907.70,305.00 908.47,305.00 909.25,305.00 910.04,305.00 910.81,305.00 911.59,305.00 912.37,305.00 913.15,305.00 913.92,305.00 914.71,305.00 915.48,305.00 916.27,305.00 917.05,305.00 917.81,305.00 918.57,305.00 919.35,305.00 920.13,305.00 920.91,305.00 921.69,305.00 922.48,305.00 923.25,305.00 924.04,305.00 924.83,305.00 925.60,305.00 926.38,305.00 927.15,305.00 927.93,305.00 928.69,305.00 929.47,305.00 930.25,305.00 931.03,305.00 931.80,305.00 932.57,305.00 933.35,305.00 934.13,305.00 934.91,305.00 935.69,305.00 936.46,305.00 937.23,305.00 937.98,305.00 938.78,305.00 939.55,305.00 940.33,305.00 941.12,305.00 941.91,305.00 942.68,305.00 943.45,305.00 944.23,305.00 945.01,305.00 945.79,305.00 946.57,305.00 947.41,305.00 948.18,305.00 948.97,305.00 949.75,305.00 950.53,305.00 951.30,305.00 952.08,305.00 952.86,305.00 953.64,305.00 954.41,305.00 955.19,305.00 955.96,305.00 956.75,305.00 957.53,305.00 958.31,305.00 959.09,305.00 959.86,305.00 960.65,305.00 961.42,305.00 962.21,305.00 962.99,305.00 963.77,305.00 964.57,305.00 965.35,305.00 966.13,305.00 966.91,305.00 967.69,305.00 968.48,305.00 969.26,305.00 970.03,305.00 970.80,305.00 971.58,305.00 972.36,305.00 973.14,305.00 973.92,305.00 974.70,305.00 975.48,305.00 976.26,305.00 977.03,305.00 977.80,305.00 978.58,305.00 979.36,305.00 980.13,305.00 980.91,305.00 981.69,305.00 982.46,305.00 983.23,305.00 984.01,305.00 984.78,305.00 985.55,305.00 986.33,305.00 987.10,305.00 987.88,305.00 988.65,305.00 989.43,305.00 990.20,305.00 990.98,305.00 991.76,305.00 992.53,305.00 993.30,305.00 994.07,305.00 994.86,305.00 995.63,305.00 996.41,305.00 997.19,305.00 998.00,305.00 998.77,305.00 999.55,305.00 1000.34,305.00 1001.12,305.00 1001.90,305.00 1002.68,305.00 1003.46,305.00 1004.23,305.00 1005.01,305.00 1005.78,305.00 1006.55,305.00 1007.33,305.00 1008.11,305.00 1008.89,305.00 1009.66,305.00 1010.44,305.00 1011.21,305.00 1011.99,305.00 1012.77,305.00 1013.55,305.00 1014.37,305.00 1015.14,305.00 1015.91,305.00 1016.68,305.00 1017.45,305.00 1018.24,305.00 1019.01,305.00 1019.79,305.00 1020.57,305.00 1021.35,305.00 1022.13,305.00 1022.91,305.00 1023.69,305.00 1024.47,305.00 1025.24,305.00 1026.02,305.00 1026.80,305.00 1027.57,305.00 1028.35,305.00 1029.12,305.00 1029.89,305.00 1030.67,305.00 1031.44,305.00 1032.22,305.00 1033.00,305.00 1033.77,305.00 1034.55,305.00 1035.33,305.00 1036.11,305.00 1036.88,305.00 1037.66,305.00 1038.43,305.00 1039.21,305.00 1040.00,305.00 1040.77,305.00 1041.55,305.00 1042.32,305.00 1043.10,305.00 1043.87,305.00 1044.64,305.00 1045.43,305.00 1046.19,305.00 1046.99,305.00 1047.77,305.00 1048.54,305.00 1049.32,305.00 1050.10,305.00 1050.88,305.00 1051.67,305.00 1053.28,305.00 1054.06,305.00 1054.90,305.00 1055.67,305.00 1056.44,305.00 1057.22,305.00 1057.99,305.00 1058.77,305.00 1059.55,305.00 1060.33,305.00 1061.10,305.00 1061.88,305.00 1062.66,305.00 1063.43,305.00 1064.21,305.00 1064.98,305.00 1065.76,305.00 1066.53,305.00 1067.30,305.00 1068.08,305.00 1068.86,305.00 1069.64,305.00 1070.42,305.00 1071.19,305.00 1071.96,305.00 1072.74,305.00 1073.52,305.00 1074.30,305.00 1075.08,305.00 1075.85,305.00 1076.64,305.00 1077.41,305.00 1078.18,305.00 1078.96,305.00 1079.74,305.00 1080.51,305.00 1081.28,305.00 1082.05,305.00 1082.82,305.00 1083.59,305.00 1084.37,305.00 1085.15,305.00 1085.93,305.00 1086.71,305.00 1087.51,305.00 1088.29,305.00 1089.07,305.00 1089.84,305.00 1090.61,305.00 1091.38,305.00 1092.15,305.00 1092.93,305.00 1093.71,305.00 1094.48,305.00 1095.25,305.00 1096.02,305.00 1096.79,305.00 1097.57,305.00 1098.34,305.00 1099.12,305.00 1099.89,305.00 1100.68,305.00 1101.45,305.00 1102.22,305.00 1103.01,305.00 1103.78,305.00 1104.56,305.00 1105.34,305.00 1106.11,305.00 1106.88,305.00 1107.67,305.00 1108.45,305.00 1109.24,305.00 1110.01,305.00 1110.78,305.00 1111.56,305.00 1112.34,305.00 1113.11,305.00 1113.91,305.00 1114.69,305.00 1115.47,305.00 1116.25,305.00 1117.03,305.00 1117.80,305.00 1118.58,305.00 1119.35,305.00 1120.14,305.00 1120.92,305.00 1121.68,305.00 1122.46,305.00 1123.25,305.00 1124.03,305.00 1124.81,305.00 1125.60,305.00 1126.40,305.00 1127.22,305.00 1128.01,305.00 1128.78,305.00 1129.56,305.00 1130.32,305.00 1131.11,305.00 1131.88,305.00 1132.66,305.00 1133.44,305.00 1134.22,305.00 1135.00,305.00 1135.77,305.00 1136.54,305.00 1137.32,305.00 1138.10,305.00 1138.89,305.00 1139.68,305.00 1140.47,305.00 1141.25,305.00 1142.04,305.00 1142.85,305.00 1143.63,305.00 1144.46,305.00 1145.24,305.00 1146.02,305.00 1146.80,305.00 1147.58,305.00 1148.35,305.00 1149.13,305.00 1149.90,305.00 1150.68,305.00 1151.45,305.00 1152.23,305.00 1153.03,305.00 1153.80,305.00 1154.58,305.00 1155.38,305.00 1156.28,305.00 1157.06,305.00 1157.83,305.00 1158.60,305.00 1159.38,305.00 1160.15,305.00 1160.91,305.00 1161.63,305.00 1162.33,305.00 1163.17,305.00 1163.90,305.00 1164.61,305.00 1165.40,305.00 1166.08,305.00 1166.85,305.00 1167.63,305.00 1168.41,305.00 1169.18,305.00 1169.95,305.00 1170.73,305.00 1171.50,305.00 1172.27,305.00 1173.05,305.00 1173.82,305.00 1174.59,305.00 1175.37,305.00 1176.15,305.00 1176.92,305.00 1177.69,305.00 1178.46,305.00 1179.23,305.00 1180.00,305.00"/>
<polyline fill="none" stroke="#9467bd" stroke-opacity="0.80" stroke-width="2" points="70.00,305.00 70.77,305.00 71.55,305.00 72.32,305.00 73.10,305.00 73.88,305.00 74.65,305.00 75.42,305.00 76.26,305.00 77.03,305.00 77.80,305.00 78.57,305.00 79.36,305.00 80.12,305.00 80.89,305.00 82.29,305.00 83.49,305.00 84.27,305.00 85.06,305.00 85.83,305.00 86.60,305.00 87.36,305.00 88.14,305.00 88.91,305.00 89.69,305.00 90.47,305.00 91.26,305.00 92.04,305.00 92.81,305.00 93.63,305.00 94.41,305.00 95.18,305.00 95.97,305.00 96.75,305.00 97.52,305.00 98.32,305.00 99.09,305.00 99.86,305.00 100.65,305.00 101.41,305.00 102.19,305.00 102.95,305.00 103.72,305.00 104.50,305.00 105.27,305.00 106.06,305.00 106.84,305.00 107.60,305.00 108.38,305.00 109.16,305.00 109.93,305.00 110.82,305.00 111.59,305.00 112.36,305.00 113.13,305.00 113.90,305.00 114.66,305.00 115.43,305.00 116.21,305.00 116.98,305.00 117.77,305.00 118.54,305.00 119.31,305.00 120.08,305.00 120.87,305.00 121.64,305.00 122.42,305.00 123.18,305.00 123.95,305.00 124.72,305.00 125.48,305.00 126.26,305.00 127.03,305.00 127.80,305.00 128.57,305.00 129.35,305.00 130.11,305.00 130.89,305.00 131.66,305.00 132.43,305.00 133.22,305.00 133.99,305.00 134.76,305.00 135.54,305.00 136.31,305.00 137.09,305.00 137.86,305.00 138.62,305.00 139.39,305.00 140.17,305.00 140.95,305.00 141.72,305.00 142.50,305.00 143.26,305.00 144.04,305.00 144.81,305.00 145.58,305.00 146.35,305.00 147.12,305.00 147.89,305.00 148.67,305.00 149.44,305.00 150.21,305.00 150.99,305.00 151.77,305.00 152.55,305.00 153.32,305.00 154.09,305.00 154.86,305.00 155.63,305.00 156.41,305.00 157.19,305.00 157.96,305.00 158.73,305.00 159.51,305.00 160.28,305.00 161.06,305.00 161.85,305.00 162.62,305.00 163.39,305.00 164.17,305.00 164.94,305.00 165.71,305.00 166.49,305.00 167.33,305.00 168.10,305.00 168.88,305.00 169.65,305.00 170.42,305.00 171.19,305.00 171.95,305.00 172.72,305.00 173.49,305.00 174.26,305.00 175.03,305.00 175.80,305.00 176.58,305.00 177.34,305.00 178.13,305.00 178.90,305.00 179.67,305.00 180.44,305.00 181.21,305.00 181.98,305.00 182.76,305.00 183.54,305.00 184.31,305.00 185.08,305.00 185.86,305.00 186.62,305.00 187.39,305.00 188.16,305.00 188.94,305.00 189.71,305.00 190.49,305.00 191.27,305.00 192.04,305.00 192.82,305.00 193.59,305.00 194.36,305.00 195.14,305.00 195.91,305.00 196.70,305.00 197.48,305.00 198.25,305.00 199.03,305.00 199.79,305.00 200.56,305.00 201.33,305.00 202.11,305.00 202.88,305.00 203.64,305.00 204.41,305.00 205.19,305.00 205.96,305.00 206.74,305.00 207.51,305.00 208.30,305.00 209.08,305.00 209.85,305.00 210.62,305.00 211.38,305.00 212.22,305.00 213.02,305.00 213.78,305.00 214.55,305.00 215.31,305.00 216.09,305.00 216.86,305.00 217.64,305.00 218.41,305.00 219.18,305.00 219.95,305.00 220.73,305.00 221.52,305.00 222.29,305.00 223.06,305.00 223.83,305.00 224.61,305.00 225.40,305.00 226.19,305.00 226.95,305.00 227.73,305.00 228.50,305.00 229.27,305.00 230.05,305.00 230.82,305.00 231.61,305.00 232.38,305.00 233.14,305.00 233.92,305.00 234.70,305.00 235.47,305.00 236.24,305.00 237.03,305.00 237.80,305.00 238.57,305.00 239.33,305.00 240.10,305.00 240.88,305.00 241.65,305.00 242.42,305.00 243.19,305.00 243.96,305.00 244.73,305.00 245.51,305.00 246.28,305.00 247.06,305.00 247.84,305.00 248.62,305.00 249.39,305.00 250.16,305.00 250.94,305.00 251.71,305.00 252.49,305.00 253.26,305.00 254.05,305.00 254.83,305.00 255.60,305.00 256.38,305.00 257.14,305.00 257.92,305.00 258.69,305.00 259.46,305.00 260.24,305.00 261.01,305.00 261.78,305.00 262.56,305.00 263.34,305.00 264.11,305.00 264.88,305.00 265.66,305.00 266.44,305.00 267.21,305.00 267.98,305.00 268.76,305.00 269.54,305.00 270.32,305.00 271.09,305.00 271.86,305.00 272.72,305.00 273.50,305.00 274.27,305.00 275.05,305.00 275.83,305.00 276.61,305.00 277.38,305.00 278.16,305.00 278.92,305.00 279.72,305.00 280.50,305.00 281.27,305.00 282.04,305.00 282.82,305.00 283.59,305.00 284.37,305.00 285.17,305.00 285.94,305.00 286.71,305.00 287.50,305.00 288.33,305.00 289.11,305.00 290.08,305.00 291.39,305.00 292.18,305.00 292.97,305.00 293.74,305.00 294.50,305.00 295.27,305.00 296.05,305.00 296.83,305.00 297.61,305.00 298.41,305.00 299.21,305.00 300.03,305.00 300.81,305.00 301.58,305.00 302.36,305.00 303.14,305.00 303.92,305.00 304.71,305.00 305.48,305.00 306.25,305.00 307.05,305.00 307.83,305.00 308.60,305.00 309.37,305.00 310.16,305.00 310.96,305.00 311.74,305.00 312.51,305.00 313.31,305.00 314.05,305.00 314.82,305.00 315.61,305.00 316.38,305.00 317.16,305.00 317.96,305.00 318.74,305.00 319.51,305.00 320.29,305.00 321.07,305.00 321.85,305.00 322.62,305.00 323.39,305.00 324.17,305.00 324.94,305.00 325.71,305.00 326.63,305.00 327.54,305.00 328.46,305.00 329.36,305.00 330.24,305.00 331.13,305.00 332.05,305.00 332.95,305.00 333.72,305.00 334.49,305.00 335.26,305.00 336.03,305.00 336.81,305.00 337.57,305.00 338.34,305.00 339.11,305.00 339.89,305.00 340.66,305.00 341.43,305.00 342.20,305.00 342.97,305.00 343.74,305.00 344.51,305.00 345.28,305.00 346.05,305.00 346.82,305.00 347.59,305.00 348.37,305.00 349.14,305.00 349.90,305.00 350.67,305.00 351.44,305.00 352.22,305.00 352.99,305.00 353.76,305.00 354.53,305.00 355.31,305.00 356.08,305.00 356.85,305.00 357.62,305.00 358.39,305.00 359.16,305.00 359.92,305.00 360.68,305.00 361.46,305.00 362.22,305.00 362.99,305.00 363.76,305.00 364.53,305.00 365.30,305.00 366.07,305.00 366.83,305.00 367.59,305.00 368.39,305.00 369.22,305.00 370.00,305.00 370.77,305.00 371.54,305.00 372.31,305.00 373.07,305.00 373.84,305.00 374.61,305.00 375.52,305.00 376.43,305.00 377.33,305.00 378.23,305.00 379.14,305.00 380.04,305.00 380.97,305.00 381.90,305.00 382.75,305.00 383.58,305.00 384.35,305.00 385.13,305.00 385.91,305.00 386.67,305.00 387.44,305.00 388.21,305.00 388.98,305.00 389.75,305.00 390.52,305.00 391.30,305.00 392.07,305.00 392.84,305.00 393.62,305.00 394.39,305.00 395.16,305.00 395.84,305.00 396.63,305.00 397.41,305.00 398.20,305.00 398.97,305.00 399.74,305.00 400.52,305.00 401.30,305.00 402.07,305.00 402.85,305.00 403.63,305.00 404.42,305.00 405.19,305.00 405.95,305.00 406.72,305.00 407.49,305.00 408.26,305.00 409.02,305.00 409.81,305.00 410.57,305.00 411.35,305.00 412.12,305.00 412.89,305.00 413.67,305.00 414.44,305.00 415.21,305.00 415.99,305.00 416.76,305.00 417.53,305.00 418.31,305.00 419.09,305.00 419.89,305.00 420.65,305.00 421.42,305.00 422.19,305.00 422.96,305.00 423.73,305.00 424.51,305.00 425.28,305.00 426.04,305.00 426.82,305.00 427.58,305.00 428.36,305.00 429.13,305.00 429.91,305.00 430.68,305.00 431.61,305.00 432.41,305.00 433.20,305.00 433.98,305.00 434.75,305.00 435.54,305.00 436.30,305.00 437.07,305.00 437.85,305.00 438.63,305.00 439.40,305.00 440.18,305.00 440.95,305.00 441.73,305.00 442.53,305.00 443.31,305.00 444.09,305.00 444.86,305.00 445.63,305.00 446.41,305.00 447.17,305.00 447.95,305.00 448.75,305.00 449.53,305.00 450.31,305.00 451.08,305.00 451.85,305.00 452.63,305.00 453.40,305.00 454.17,305.00 454.95,305.00 455.73,305.00 456.50,305.00 457.28,305.00 458.05,305.00 458.82,305.00 459.59,305.00 460.38,305.00 461.16,305.00 461.92,305.00 462.69,305.00 463.47,305.00 464.25,305.00 465.03,305.00 465.96,305.00 466.76,305.00 467.53,305.00 468.30,305.00 469.07,305.00 469.85,305.00 470.62,305.00 471.40,305.00 472.19,305.00 472.96,305.00 473.73,305.00 474.50,305.00 475.27,305.00 476.04,305.00 476.82,305.00 477.59,305.00 478.36,305.00 479.13,305.00 479.90,305.00 480.68,305.00 481.46,305.00 482.23,305.00 483.00,305.00 483.78,305.00 484.56,305.00 485.33,305.00 486.10,305.00 486.88,305.00 487.68,305.00 488.44,305.00 489.22,305.00 490.00,305.00 490.77,305.00 491.54,305.00 492.32,305.00 493.09,305.00 493.89,305.00 494.66,305.00 495.43,305.00 496.20,305.00 496.97,305.00 497.74,305.00 498.52,305.00 499.29,305.00 500.07,305.00 500.85,305.00 501.63,305.00 502.39,305.00 503.17,305.00 503.94,305.00 504.71,305.00 505.48,305.00 506.26,305.00 507.03,305.00 507.81,305.00 508.59,305.00 509.36,305.00 510.14,305.00 510.92,305.00 511.70,305.00 512.47,305.00 513.25,305.00 514.12,305.00 514.97,305.00 515.80,305.00 516.58,305.00 517.39,305.00 518.17,305.00 518.94,305.00 519.71,305.00 520.43,305.00 521.24,305.00 522.01,305.00 522.80,305.00 523.56,305.00 524.33,305.00 525.10,305.00 525.88,305.00 526.65,305.00 527.43,305.00 528.20,305.00 528.98,305.00 529.75,305.00 530.53,305.00 531.31,305.00 532.10,305.00 532.87,305.00 533.65,305.00 534.42,305.00 535.21,305.00 535.99,305.00 536.76,305.00 537.53,305.00 538.31,305.00 539.08,305.00 539.85,305.00 540.63,305.00 541.40,305.00 542.19,305.00 542.95,305.00 543.72,305.00 544.50,305.00 545.28,305.00 546.06,305.00 546.83,305.00 547.60,305.00 548.38,305.00 549.16,305.00 549.94,305.00 550.71,305.00 551.50,305.00 552.27,305.00 553.05,305.00 553.82,305.00 554.60,305.00 555.38,305.00 556.18,305.00 556.95,305.00 557.73,305.00 558.51,305.00 559.28,305.00 560.06,305.00 560.83,305.00 561.61,305.00 562.39,305.00 563.16,305.00 563.94,305.00 564.72,305.00 565.49,305.00 566.28,305.00 567.05,305.00 567.83,305.00 568.61,305.00 569.39,305.00 570.18,305.00 570.95,305.00 571.72,305.00 572.50,305.00 573.28,305.00 574.07,305.00 574.85,305.00 575.63,305.00 576.41,305.00 577.18,305.00 577.95,305.00 578.73,305.00 579.51,305.00 580.29,305.00 581.06,305.00 581.83,305.00 582.61,305.00 583.39,305.00 584.17,305.00 584.94,305.00 585.72,305.00 586.50,305.00 587.28,305.00 588.06,305.00 588.83,305.00 589.61,305.00 590.38,305.00 591.15,305.00 591.92,305.00 592.70,305.00 593.48,305.00 594.26,305.00 595.04,305.00 595.81,305.00 596.60,305.00 597.38,305.00 598.15,305.00 598.93,305.00 599.72,305.00 600.49,305.00 601.27,305.00 602.04,305.00 602.83,305.00 603.61,305.00 604.39,305.00 605.18,305.00 605.96,305.00 606.74,305.00 607.52,305.00 608.29,305.00 609.07,305.00 609.85,305.00 610.64,305.00 611.41,305.00 612.19,305.00 612.97,305.00 613.73,305.00 614.53,305.00 615.30,305.00 616.09,305.00 616.86,305.00 617.64,305.00 618.41,305.00 619.18,305.00 619.95,305.00 620.73,305.00 621.51,305.00 622.28,305.00 623.06,305.00 623.84,305.00 624.61,305.00 625.41,305.00 626.19,305.00 626.96,305.00 627.74,305.00 628.51,305.00 629.28,305.00 630.06,305.00 630.84,305.00 631.62,305.00 632.40,305.00 633.18,305.00 633.95,305.00 634.73,305.00 635.51,305.00 636.29,305.00 637.09,305.00 637.87,305.00 638.65,305.00 639.44,305.00 640.21,305.00 641.00,305.00 641.77,305.00 642.54,305.00 643.31,305.00 644.09,305.00 644.87,305.00 645.65,305.00 646.43,305.00 647.22,305.00 648.03,305.00 648.80,305.00 649.58,305.00 650.36,305.00 651.13,305.00 651.91,305.00 652.70,305.00 653.48,305.00 654.26,305.00 655.05,305.00 655.82,305.00 656.60,305.00 657.39,305.00 658.16,305.00 658.94,305.00 659.72,305.00 660.49,305.00 661.27,305.00 662.06,305.00 662.83,305.00 663.61,305.00 664.39,305.00 665.17,305.00 665.95,305.00 666.73,305.00 667.51,305.00 668.32,305.00 669.09,305.00 669.88,305.00 670.66,305.00 671.45,305.00 672.25,305.00 673.04,305.00 673.83,305.00 674.63,305.00 675.41,305.00 676.19,305.00 676.97,305.00 677.75,305.00 678.53,305.00 679.31,305.00 680.11,305.00 680.88,305.00 681.66,305.00 682.44,305.00 683.21,305.00 683.99,305.00 684.77,305.00 685.55,305.00 686.32,305.00 687.10,305.00 687.87,305.00 688.65,305.00 689.41,305.00 690.19,305.00 690.97,305.00 691.75,305.00 692.53,305.00 693.31,305.00 694.10,305.00 694.87,305.00 695.65,305.00 696.43,305.00 697.20,305.00 697.98,305.00 698.75,305.00 699.53,305.00 700.31,305.00 701.08,305.00 701.85,305.00 702.63,305.00 703.40,305.00 704.18,305.00 704.96,305.00 705.73,305.00 706.51,305.00 707.29,305.00 708.06,305.00 708.85,305.00 709.62,305.00 710.38,305.00 711.15,305.00 711.92,305.00 712.69,305.00 713.47,305.00 714.27,305.00 715.04,305.00 715.81,305.00 716.59,305.00 717.38,305.00 718.17,305.00 718.94,305.00 719.73,305.00 720.50,305.00 721.27,305.00 722.06,305.00 722.84,305.00 723.63,305.00 724.41,305.00 725.18,305.00 725.96,305.00 726.73,305.00 727.50,305.00 728.28,305.00 729.06,305.00 729.82,305.00 730.60,305.00 731.38,305.00 732.16,305.00 732.93,305.00 733.71,305.00 734.48,305.00 735.26,305.00 736.04,305.00 736.82,305.00 737.60,305.00 738.37,305.00 739.15,305.00 739.94,305.00 740.71,305.00 741.48,305.00 742.26,305.00 743.04,305.00 743.81,305.00 744.59,305.00 745.38,305.00 746.15,305.00 746.92,305.00 747.70,305.00 748.50,305.00 749.28,305.00 750.07,305.00 750.86,305.00 751.64,305.00 752.41,305.00 753.19,305.00 753.97,305.00 754.75,305.00 755.52,305.00 756.31,305.00 757.10,305.00 757.89,305.00 758.66,305.00 759.44,305.00 760.21,305.00 761.00,305.00 761.78,305.00 762.55,305.00 763.32,305.00 764.10,305.00 764.88,305.00 765.65,305.00 766.43,305.00 767.21,305.00 767.98,305.00 768.75,305.00 769.53,305.00 770.30,305.00 771.08,305.00 771.87,305.00 772.64,305.00 773.42,305.00 774.19,305.00 774.97,305.00 775.74,305.00 776.53,305.00 777.30,305.00 778.09,305.00 778.87,305.00 779.64,305.00 780.41,305.00 781.19,305.00 781.97,305.00 782.74,305.00 783.53,305.00 784.32,305.00 785.11,305.00 785.91,305.00 786.69,305.00 787.49,305.00 788.29,305.00 789.08,305.00 789.89,305.00 790.68,305.00 791.48,305.00 792.25,305.00 793.02,305.00 793.81,305.00 794.59,305.00 795.37,305.00 796.15,305.00 796.93,305.00 797.71,305.00 798.49,305.00 799.27,305.00 800.04,305.00 800.81,305.00 801.59,305.00 802.37,305.00 803.14,305.00 803.92,305.00 804.70,305.00 805.48,305.00 806.27,305.00 807.05,305.00 807.82,305.00 808.60,305.00 809.37,305.00 810.15,305.00 810.93,305.00 811.71,305.00 812.49,305.00 813.26,305.00 814.05,305.00 814.82,305.00 815.60,305.00 816.38,305.00 817.15,305.00 817.93,305.00 818.76,305.00 819.57,305.00 820.34,305.00 821.12,305.00 821.89,305.00 822.68,305.00 823.47,305.00 824.25,305.00 825.03,305.00 825.80,305.00 826.56,305.00 827.34,305.00 828.11,305.00 828.89,305.00 829.67,305.00 830.45,305.00 831.23,305.00 832.01,305.00 832.79,305.00 833.57,305.00 834.34,305.00 835.12,305.00 835.90,305.00 836.68,305.00 837.45,305.00 838.23,305.00 839.01,305.00 839.79,305.00 840.57,305.00 841.38,305.00 842.16,305.00 842.94,305.00 843.71,305.00 844.49,305.00 845.27,305.00 846.05,305.00 846.83,305.00 847.60,305.00 848.39,305.00 849.17,305.00 849.96,305.00 850.74,305.00 851.52,305.00 852.30,305.00 853.07,305.00 853.85,305.00 854.63,305.00 855.41,305.00 856.18,305.00 856.97,305.00 857.75,305.00 858.52,305.00 859.30,305.00 860.07,305.00 860.85,305.00 861.63,305.00 862.40,305.00 863.18,305.00 863.96,305.00 864.74,305.00 865.51,305.00 866.29,305.00 867.07,305.00 867.85,305.00 868.63,305.00 869.41,305.00 870.18,305.00 870.95,305.00 871.72,305.00 872.50,305.00 873.28,305.00 874.06,305.00 874.86,305.00 875.64,305.00 876.41,305.00 877.20,305.00 877.97,305.00 878.76,305.00 879.60,305.00 880.39,305.00 881.18,305.00 881.96,305.00 882.75,305.00 883.52,305.00 884.30,305.00 885.08,305.00 885.86,305.00 886.63,305.00 887.42,305.00 888.19,305.00 888.97,305.00 889.77,305.00 890.55,305.00 891.33,305.00 892.11,305.00 892.88,305.00 893.67,305.00 894.45,305.00 895.22,305.00 896.00,305.00 896.79,305.00 897.56,305.00 898.34,305.00 899.12,305.00 899.91,305.00 900.69,305.00 901.48,305.00 902.25,305.00 903.04,305.00 903.81,305.00 904.59,305.00 905.37,305.00 906.14,305.00 906.92,305.00 907.70,305.00 908.47,305.00 909.25,305.00 910.04,305.00 910.81,305.00 911.59,305.00 912.37,305.00 913.15,305.00 913.92,305.00 914.71,305.00 915.48,305.00 916.27,305.00 917.05,305.00 917.81,305.00 918.57,305.00 919.35,305.00 920.13,305.00 920.91,305.00 921.69,305.00 922.48,305.00 923.25,305.00 924.04,305.00 924.83,305.00 925.60,305.00 926.38,305.00 927.15,305.00 927.93,305.00 928.69,305.00 929.47,305.00 930.25,305.00 931.03,305.00 931.80,305.00 932.57,305.00 933.35,305.00 934.13,305.00 934.91,305.00 935.69,305.00 936.46,305.00 937.23,305.00 937.98,305.00 938.78,305.00 939.55,305.00 940.33,305.00 941.12,305.00 941.91,305.00 942.68,305.00 943.45,305.00 944.23,305.00 945.01,305.00 945.79,305.00 946.57,305.00 947.41,305.00 948.18,305.00 948.97,305.00 949.75,305.00 950.53,305.00 951.30,305.00 952.08,305.00 952.86,305.00 953.64,305.00 954.41,305.00 955.19,305.00 955.96,305.00 956.75,305.00 957.53,305.00 958.31,305.00 959.09,305.00 959.86,305.00 960.65,305.00 961.42,305.00 962.21,305.00 962.99,305.00 963.77,305.00 964.57,305.00 965.35,305.00 966.13,305.00 966.91,305.00 967.69,305.00 968.48,305.00 969.26,305.00 970.03,305.00 970.80,305.00 971.58,305.00 972.36,305.00 973.14,305.00 973.92,305.00 974.70,305.00 975.48,305.00 976.26,305.00 977.03,305.00 977.80,305.00 978.58,305.00 979.36,305.00 980.13,305.00 980.91,305.00 981.69,305.00 982.46,305.00 983.23,305.00 984.01,305.00 984.78,305.00 985.55,305.00 986.33,305.00 987.10,305.00 987.88,305.00 988.65,305.00 989.43,305.00 990.20,305.00 990.98,305.00 991.76,305.00 992.53,305.00 993.30,305.00 994.07,305.00 994.86,305.00 995.63,305.00 996.41,305.00 997.19,305.00 998.00,305.00 998.77,305.00 999.55,305.00 1000.34,305.00 1001.12,305.00 1001.90,305.00 1002.68,305.00 1003.46,305.00 1004.23,305.00 1005.01,305.00 1005.78,305.00 1006.55,305.00 1007.33,305.00 1008.11,305.00 1008.89,305.00 1009.66,305.00 1010.44,305.00 1011.21,305.00 1011.99,305.00 1012.77,305.00 1013.55,305.00 1014.37,305.00 1015.14,305.00 1015.91,305.00 1016.68,305.00 1017.45,305.00 1018.24,305.00 1019.01,305.00 1019.79,305.00 1020.57,305.00 1021.35,305.00 1022.13,305.00 1022.91,305.00 1023.69,305.00 1024.47,305.00 1025.24,305.00 1026.02,305.00 1026.80,305.00 1027.57,305.00 1028.35,305.00 1029.12,305.00 1029.89,305.00 1030.67,305.00 1031.44,305.00 1032.22,305.00 1033.00,305.00 1033.77,305.00 1034.55,305.00 1035.33,305.00 1036.11,305.00 1036.88,305.00 1037.66,305.00 1038.43,305.00 1039.21,305.00 1040.00,305.00 1040.77,305.00 1041.55,305.00 1042.32,305.00 1043.10,305.00 1043.87,305.00 1044.64,305.00 1045.43,305.00 1046.19,305.00 1046.99,305.00 1047.77,305.00 1048.54,305.00 1049.32,305.00 1050.10,305.00 1050.88,305.00 1051.67,305.00 1052.46,305.00 1053.28,305.00 1054.06,305.00 1054.90,305.00 1055.67,305.00 1056.44,305.00 1057.22,305.00 1057.99,305.00 1058.77,305.00 1059.55,305.00 1060.33,305.00 1061.10,305.00 1061.88,305.00 1062.66,305.00 1063.43,305.00 1064.21,305.00 1064.98,305.00 1065.76,305.00 1066.53,305.00 1067.30,305.00 1068.08,305.00 1068.86,305.00 1069.64,305.00 1070.42,305.00 1071.19,305.00 1071.96,305.00 1072.74,305.00 1073.52,305.00 1074.30,305.00 1075.08,305.00 1075.85,305.00 1076.64,305.00 1077.41,305.00 1078.18,305.00 1078.96,305.00 1079.74,305.00 1080.51,305.00 1081.28,305.00 1082.05,305.00 1082.82,305.00 1083.59,305.00 1084.37,305.00 1085.15,305.00 1085.93,305.00 1086.71,305.00 1087.51,305.00 1088.29,305.00 1089.07,305.00 1089.84,305.00 1090.61,305.00 1091.38,305.00 1092.15,305.00 1092.93,305.00 1093.71,305.00 1094.48,305.00 1095.25,305.00 1096.02,305.00 1096.79,305.00 1097.57,305.00 1098.34,305.00 1099.12,305.00 1099.89,305.00 1100.68,305.00 1101.45,305.00 1102.22,305.00 1103.01,305.00 1103.78,305.00 1104.56,305.00 1105.34,305.00 1106.11,305.00 1106.88,305.00 1107.67,305.00 1108.45,305.00 1109.24,305.00 1110.01,305.00 1110.78,305.00 1111.56,305.00 1112.34,305.00 1113.11,305.00 1113.91,305.00 1114.69,305.00 1115.47,305.00 1116.25,305.00 1117.03,305.00 1117.80,305.00 1118.58,305.00 1119.35,305.00 1120.14,305.00 1120.92,305.00 1121.68,305.00 1122.46,305.00 1123.25,305.00 1124.03,305.00 1124.81,305.00 1125.60,305.00 1126.40,305.00 1127.22,305.00 1128.01,305.00 1128.78,305.00 1129.56,305.00 1130.32,305.00 1131.11,305.00 1131.88,305.00 1132.66,305.00 1133.44,305.00 1134.22,305.00 1135.00,305.00 1135.77,305.00 1136.54,305.00 1137.32,305.00 1138.10,305.00 1138.89,305.00 1139.68,305.00 1140.47,305.00 1141.25,305.00 1142.04,305.00 1142.85,305.00 1143.63,305.00 1144.46,305.00 1145.24,305.00 1146.02,305.00 1146.80,305.00 1147.58,305.00 1148.35,305.00 1149.13,305.00 1149.90,305.00 1150.68,305.00 1151.45,305.00 1152.23,305.00 1153.03,305.00 1153.80,305.00 1154.58,305.00 1155.38,305.00 1156.28,305.00 1157.06,305.00 1157.83,305.00 1158.60,305.00 1159.38,305.00 1160.15,305.00 1160.91,305.00 1161.63,305.00 1162.33,305.00 1164.61,305.00 1166.08,305.00 1166.85,305.00 1167.63,305.00 1168.41,305.00 1169.18,305.00 1169.95,305.00 1170.73,305.00 1171.50,305.00 1172.27,305.00 1173.05,305.00 1173.82,305.00 1174.59,305.00 1175.37,305.00 1176.15,305.00 1176.92,305.00 1177.69,305.00 1178.46,305.00 1179.23,305.00 1180.00,305.00"/>
<polyline fill="none" stroke="#9467bd" stroke-opacity="0.65" stroke-width="2" points="395.84,305.00 396.63,305.00 397.41,305.00 398.20,305.00 398.97,305.00 399.74,305.00 400.52,305.00 401.30,305.00 402.07,305.00 402.85,305.00 403.63,305.00 404.42,305.00 405.19,305.00 405.95,305.00 406.72,305.00 407.49,305.00 408.26,305.00 409.02,305.00 409.81,305.00 410.57,305.00 411.35,305.00 412.12,305.00 412.89,305.00 413.67,305.00 414.44,305.00 415.21,305.00 415.99,305.00 416.76,305.00 417.53,305.00 418.31,305.00 419.09,305.00 419.89,305.00 420.65,305.00 421.42,305.00 422.19,305.00 422.96,305.00 423.73,305.00 424.51,305.00 425.28,305.00 426.04,305.00 426.82,305.00 427.58,305.00 428.36,305.00 429.13,305.00 429.91,305.00 430.68,305.00 431.61,305.00 432.41,305.00 433.20,305.00 433.98,305.00 434.75,305.00 435.54,305.00 436.30,305.00 437.07,305.00 437.85,305.00 438.63,305.00 439.40,305.00 440.18,305.00 440.95,305.00 441.73,305.00 442.53,305.00 443.31,305.00 444.09,305.00 444.86,305.00 445.63,305.00 446.41,305.00 447.17,305.00 447.95,305.00 448.75,305.00 449.53,305.00 450.31,305.00 451.08,305.00 451.85,305.00 452.63,305.00 453.40,305.00 454.17,305.00 454.95,305.00 455.73,305.00 456.50,305.00 457.28,305.00 458.05,305.00 458.82,305.00 459.59,305.00 460.38,305.00 461.16,305.00 461.92,305.00 462.69,305.00 463.47,305.00 464.25,305.00 465.03,305.00 465.96,305.00 466.76,305.00 467.53,305.00 468.30,305.00 469.07,305.00 469.85,305.00 470.62,305.00 471.40,305.00 472.19,305.00 472.96,305.00 473.73,305.00 474.50,305.00 475.27,305.00 476.04,305.00 476.82,305.00 477.59,305.00 478.36,305.00 479.13,305.00 479.90,305.00 480.68,305.00 481.46,305.00 482.23,305.00 483.00,305.00 483.78,305.00 484.56,305.00 485.33,305.00 486.10,305.00 486.88,305.00 487.68,305.00 488.44,305.00 489.22,305.00 490.00,305.00 490.77,305.00 491.54,305.00 492.32,305.00 493.09,305.00 493.89,305.00 494.66,305.00 495.43,305.00 496.20,305.00 496.97,305.00 497.74,305.00 498.52,305.00 499.29,305.00 500.07,305.00 500.85,305.00 501.63,305.00 502.39,305.00 503.17,305.00 503.94,305.00 504.71,305.00 505.48,305.00 506.26,305.00 507.03,305.00 507.81,305.00 508.59,305.00 509.36,305.00 510.14,305.00 510.92,305.00 511.70,305.00 512.47,305.00 513.25,305.00 514.12,305.00 514.97,305.00 515.80,305.00 516.58,305.00 517.39,305.00 518.17,305.00 518.94,305.00 519.71,305.00 520.43,305.00 521.24,305.00 522.01,305.00 522.80,305.00 523.56,305.00 524.33,305.00 525.10,305.00 525.88,305.00 526.65,305.00 527.43,305.00 528.20,305.00 528.98,305.00 529.75,305.00 530.53,305.00 531.31,305.00 532.10,305.00 532.87,305.00 533.65,305.00 534.42,305.00 535.21,305.00 535.99,305.00 536.76,305.00 537.53,305.00 538.31,305.00 539.08,305.00 539.85,305.00 540.63,305.00 541.40,305.00 542.19,305.00 542.95,305.00 543.72,305.00 544.50,305.00 545.28,305.00 546.06,305.00 546.83,305.00 547.60,305.00 548.38,305.00 549.16,305.00 549.94,305.00 550.71,305.00 551.50,305.00 552.27,305.00 553.05,305.00 553.82,305.00 554.60,305.00 555.38,305.00 556.18,305.00 556.95,305.00 557.73,305.00 558.51,305.00 559.28,305.00 560.06,305.00 560.83,305.00 561.61,305.00 562.39,305.00 563.16,305.00 563.94,305.00 564.72,305.00 565.49,305.00 566.28,305.00 567.05,305.00 567.83,305.00 568.61,305.00 569.39,305.00 570.18,305.00 570.95,305.00 571.72,305.00 572.50,305.00 573.28,305.00 574.07,305.00 574.85,305.00 575.63,305.00 576.41,305.00 577.18,305.00 577.95,305.00 578.73,305.00 579.51,305.00 580.29,305.00 581.06,305.00 581.83,305.00 582.61,305.00 583.39,305.00 584.17,305.00 584.94,305.00 585.72,305.00 586.50,305.00 587.28,305.00 588.06,305.00 588.83,305.00 589.61,305.00 590.38,305.00 591.15,305.00 591.92,305.00 592.70,305.00 593.48,305.00 594.26,305.00 595.04,305.00 595.81,305.00 596.60,305.00 597.38,305.00 598.15,305.00 598.93,305.00 599.72,305.00 600.49,305.00 601.27,305.00 602.04,305.00 602.83,305.00 603.61,305.00 604.39,305.00 605.18,305.00 605.96,305.00 606.74,305.00 607.52,305.00 608.29,305.00 609.07,305.00 609.85,305.00 610.64,305.00 611.41,305.00 612.19,305.00 612.97,305.00 613.73,305.00 614.53,305.00 615.30,305.00 616.09,305.00 616.86,305.00 617.64,305.00 618.41,305.00 619.18,305.00 619.95,305.00 620.73,305.00 621.51,305.00 622.28,305.00 623.06,305.00 623.84,305.00 624.61,305.00 625.41,305.00 626.19,305.00 626.96,305.00 627.74,305.00 628.51,305.00 629.28,305.00 630.06,305.00 630.84,305.00 631.62,305.00 632.40,305.00 633.18,305.00 633.95,305.00 634.73,305.00 635.51,305.00 636.29,305.00 637.09,305.00 637.87,305.00 638.65,305.00 639.44,305.00 640.21,305.00 641.00,305.00 641.77,305.00 642.54,305.00 643.31,305.00 644.09,305.00 644.87,305.00 645.65,305.00 646.43,305.00 647.22,305.00 648.03,305.00 648.80,305.00 649.58,305.00 650.36,305.00 651.13,305.00 651.91,305.00 652.70,305.00 653.48,305.00 654.26,305.00 655.05,305.00 655.82,305.00 656.60,305.00 657.39,305.00 658.16,305.00 658.94,305.00 659.72,305.00 660.49,305.00 661.27,305.00 662.06,305.00 662.83,305.00 663.61,305.00 664.39,305.00 665.17,305.00 665.95,305.00 666.73,305.00 667.51,305.00 668.32,305.00 669.09,305.00 669.88,305.00 670.66,305.00 671.45,305.00 672.25,305.00 673.04,305.00 673.83,305.00 674.63,305.00 675.41,305.00 676.19,305.00 676.97,305.00 677.75,305.00 678.53,305.00 679.31,305.00 680.11,305.00 680.88,305.00 681.66,305.00 682.44,305.00 683.21,305.00 683.99,305.00 684.77,305.00 685.55,305.00 686.32,305.00 687.10,305.00 687.87,305.00 688.65,305.00 689.41,305.00 690.19,305.00 690.97,305.00 691.75,305.00 692.53,305.00 693.31,305.00 694.10,305.00 694.87,305.00 695.65,305.00 696.43,305.00 697.20,305.00 697.98,305.00 698.75,305.00 699.53,305.00 700.31,305.00 701.08,305.00 701.85,305.00 702.63,305.00 703.40,305.00 704.18,305.00 704.96,305.00 705.73,305.00 706.51,305.00 707.29,305.00 708.06,305.00 708.85,305.00 709.62,305.00 710.38,305.00 711.15,305.00 711.92,305.00 712.69,305.00 713.47,305.00 714.27,305.00 715.04,305.00 715.81,305.00 716.59,305.00 717.38,305.00 718.17,305.00 718.94,305.00 719.73,305.00 720.50,305.00 721.27,305.00 722.06,305.00 722.84,305.00 723.63,305.00 724.41,305.00 725.18,305.00 725.96,305.00 726.73,305.00 727.50,305.00 728.28,305.00 729.06,305.00 729.82,305.00 730.60,305.00 731.38,305.00 732.16,305.00 732.93,305.00 733.71,305.00 734.48,305.00 735.26,305.00 736.04,305.00 736.82,305.00 737.60,305.00 738.37,305.00 739.15,305.00 739.94,305.00 740.71,305.00 741.48,305.00 742.26,305.00 743.04,305.00 743.81,305.00 744.59,305.00 745.38,305.00 746.15,305.00 746.92,305.00 747.70,305.00 748.50,305.00 749.28,305.00 750.07,305.00 750.86,305.00 751.64,305.00 752.41,305.00 753.19,305.00 753.97,305.00 754.75,305.00 755.52,305.00 756.31,305.00 757.10,305.00 757.89,305.00 758.66,305.00 759.44,305.00 760.21,305.00 761.00,305.00 761.78,305.00 762.55,305.00 763.32,305.00 764.10,305.00 764.88,305.00 765.65,305.00 766.43,305.00 767.21,305.00 767.98,305.00 768.75,305.00 769.53,305.00 770.30,305.00 771.08,305.00 771.87,305.00 772.64,305.00 773.42,305.00 774.19,305.00 774.97,305.00 775.74,305.00 776.53,305.00 777.30,305.00 778.09,305.00 778.87,305.00 779.64,305.00 780.41,305.00 781.19,305.00 781.97,305.00 782.74,305.00 783.53,305.00 784.32,305.00 785.11,305.00 785.91,305.00 786.69,305.00 787.49,305.00 788.29,305.00 789.08,305.00 789.89,305.00 790.68,305.00 791.48,305.00 792.25,305.00 793.02,305.00 793.81,305.00 794.59,305.00 795.37,305.00 796.15,305.00 796.93,305.00 797.71,305.00 798.49,305.00 799.27,305.00 800.04,305.00 800.81,305.00 801.59,305.00 802.37,305.00 803.14,305.00 803.92,305.00 804.70,305.00 805.48,305.00 806.27,305.00 807.05,305.00 807.82,305.00 808.60,305.00 809.37,305.00 810.15,305.00 810.93,305.00 811.71,305.00 812.49,305.00 813.26,305.00 814.05,305.00 814.82,305.00 815.60,305.00 816.38,305.00 817.15,305.00 817.93,305.00 818.76,305.00 819.57,305.00 820.34,305.00 821.12,305.00 821.89,305.00 822.68,305.00 823.47,305.00 824.25,305.00 825.03,305.00 825.80,305.00 826.56,305.00 827.34,305.00 828.11,305.00 828.89,305.00 829.67,305.00 830.45,305.00 831.23,305.00 832.01,305.00 832.79,305.00 833.57,305.00 834.34,305.00 835.12,305.00 835.90,305.00 836.68,305.00 837.45,305.00 838.23,305.00 839.01,305.00 839.79,305.00 840.57,305.00 841.38,305.00 842.16,305.00 842.94,305.00 843.71,305.00 844.49,305.00 845.27,305.00 846.05,305.00 846.83,305.00 847.60,305.00 848.39,305.00 849.17,305.00 849.96,305.00 850.74,305.00 851.52,305.00 852.30,305.00 853.07,305.00 853.85,305.00 854.63,305.00 855.41,305.00 856.18,305.00 856.97,305.00 857.75,305.00 858.52,305.00 859.30,305.00 860.07,305.00 860.85,305.00 861.63,305.00 862.40,305.00 863.18,305.00 863.96,305.00 864.74,305.00 865.51,305.00 866.29,305.00 867.07,305.00 867.85,305.00 868.63,305.00 869.41,305.00 870.18,305.00 870.95,305.00 871.72,305.00 872.50,305.00 873.28,305.00 874.06,305.00 874.86,305.00 875.64,305.00 876.41,305.00 877.20,305.00 877.97,305.00 878.76,305.00 879.60,305.00 880.39,305.00 881.18,305.00 881.96,305.00 882.75,305.00 883.52,305.00 884.30,305.00 885.08,305.00 885.86,305.00 886.63,305.00 887.42,305.00 888.19,305.00 888.97,305.00 889.77,305.00 890.55,305.00 891.33,305.00 892.11,305.00 892.88,305.00 893.67,305.00 894.45,305.00 895.22,305.00 896.00,305.00 896.79,305.00 897.56,305.00 898.34,305.00 899.12,305.00 899.91,305.00 900.69,305.00 901.48,305.00 902.25,305.00 903.04,305.00 903.81,305.00 904.59,305.00 905.37,305.00 906.14,305.00 906.92,305.00 907.70,305.00 908.47,305.00 909.25,305.00 910.04,305.00 910.81,305.00 911.59,305.00 912.37,305.00 913.15,305.00 913.92,305.00 914.71,305.00 915.48,305.00 916.27,305.00 917.05,305.00 917.81,305.00 918.57,305.00 919.35,305.00 920.13,305.00 920.91,305.00 921.69,305.00 922.48,305.00 923.25,305.00 924.04,305.00 924.83,305.00 925.60,305.00 926.38,305.00 927.15,305.00 927.93,305.00 928.69,305.00 929.47,305.00 930.25,305.00 931.03,305.00 931.80,305.00 932.57,305.00 933.35,305.00 934.13,305.00 934.91,305.00 935.69,305.00 936.46,305.00 937.23,305.00 937.98,305.00 938.78,305.00 939.55,305.00 940.33,305.00 941.12,305.00 941.91,305.00 942.68,305.00 943.45,305.00 944.23,305.00 945.01,305.00 945.79,305.00 946.57,305.00 947.41,305.00 948.18,305.00 948.97,305.00 949.75,305.00 950.53,305.00 951.30,305.00 952.08,305.00 952.86,305.00 953.64,305.00 954.41,305.00 955.19,305.00 955.96,305.00 956.75,305.00 957.53,305.00 958.31,305.00 959.09,305.00 959.86,305.00 960.65,305.00 961.42,305.00 962.21,305.00 962.99,305.00 963.77,305.00 964.57,305.00 965.35,305.00 966.13,305.00 966.91,305.00 967.69,305.00 968.48,305.00 969.26,305.00 970.03,305.00 970.80,305.00 971.58,305.00 972.36,305.00 973.14,305.00 973.92,305.00 974.70,305.00 975.48,305.00 976.26,305.00 977.03,305.00 977.80,305.00 978.58,305.00 979.36,305.00 980.13,305.00 980.91,305.00 981.69,305.00 982.46,305.00 983.23,305.00 984.01,305.00 984.78,305.00 985.55,305.00 986.33,305.00 987.10,305.00 987.88,305.00 988.65,305.00 989.43,305.00 990.20,305.00 990.98,305.00 991.76,305.00 992.53,305.00 993.30,305.00 994.07,305.00 994.86,305.00 995.63,305.00 996.41,305.00 997.19,305.00 998.00,305.00 998.77,305.00 999.55,305.00 1000.34,305.00 1001.12,305.00 1001.90,305.00 1002.68,305.00 1003.46,305.00 1004.23,305.00 1005.01,305.00 1005.78,305.00 1006.55,305.00 1007.33,305.00 1008.11,305.00 1008.89,305.00 1009.66,305.00 1010.44,305.00 1011.21,305.00 1011.99,305.00 1012.77,305.00 1013.55,305.00 1014.37,305.00 1015.14,305.00 1015.91,305.00 1016.68,305.00 1017.45,305.00 1018.24,305.00 1019.01,305.00 1019.79,305.00 1020.57,305.00 1021.35,305.00 1022.13,305.00 1022.91,305.00 1023.69,305.00 1024.47,305.00 1025.24,305.00 1026.02,305.00 1026.80,305.00 1027.57,305.00 1028.35,305.00 1029.12,305.00 1029.89,305.00 1030.67,305.00 1031.44,305.00 1032.22,305.00 1033.00,305.00 1033.77,305.00 1034.55,305.00 1035.33,305.00 1036.11,305.00 1036.88,305.00 1037.66,305.00 1038.43,305.00 1039.21,305.00 1040.00,305.00 1040.77,305.00 1041.55,305.00 1042.32,305.00 1043.10,305.00 1043.87,305.00 1044.64,305.00 1045.43,305.00 1046.19,305.00 1046.99,305.00 1047.77,305.00 1048.54,305.00 1049.32,305.00 1050.10,305.00 1050.88,305.00 1051.67,305.00 1052.46,305.00 1053.28,305.00 1054.06,305.00 1054.90,305.00 1055.67,305.00 1056.44,305.00 1057.22,305.00 1057.99,305.00 1058.77,305.00 1059.55,305.00 1060.33,305.00 1061.10,305.00 1061.88,305.00 1062.66,305.00 1063.43,305.00 1064.21,305.00 1064.98,305.00 1065.76,305.00 1066.53,305.00 1067.30,305.00 1068.08,305.00 1068.86,305.00 1069.64,305.00 1070.42,305.00 1071.19,305.00 1071.96,305.00 1072.74,305.00 1073.52,305.00 1074.30,305.00 1075.08,305.00 1075.85,305.00 1076.64,305.00 1077.41,305.00 1078.18,305.00 1078.96,305.00 1079.74,305.00 1080.51,305.00 1081.28,305.00 1082.05,305.00 1082.82,305.00 1083.59,305.00 1084.37,305.00 1085.15,305.00 1085.93,305.00 1086.71,305.00 1087.51,305.00 1088.29,305.00 1089.07,305.00 1089.84,305.00 1090.61,305.00 1091.38,305.00 1092.15,305.00 1092.93,305.00 1093.71,305.00 1094.48,305.00 1095.25,305.00 1096.02,305.00 1096.79,305.00 1097.57,305.00 1098.34,305.00 1099.12,305.00 1099.89,305.00 1100.68,305.00 1101.45,305.00 1102.22,305.00 1103.01,305.00 1103.78,305.00 1104.56,305.00 1105.34,305.00 1106.11,305.00 1106.88,305.00 1107.67,305.00 1108.45,305.00 1109.24,305.00 1110.01,305.00 1110.78,305.00 1111.56,305.00 1112.34,305.00 1113.11,305.00 1113.91,305.00 1114.69,305.00 1115.47,305.00 1116.25,305.00 1117.03,305.00 1117.80,305.00 1118.58,305.00 1119.35,305.00 1120.14,305.00 1120.92,305.00 1121.68,305.00 1122.46,305.00 1123.25,305.00 1124.03,305.00 1124.81,305.00 1125.60,305.00 1126.40,305.00 1127.22,305.00 1128.01,305.00 1128.78,305.00 1129.56,305.00 1130.32,305.00 1131.11,305.00 1131.88,305.00 1132.66,305.00 1133.44,305.00 1134.22,305.00 1135.00,305.00 1135.77,305.00 1136.54,305.00 1137.32,305.00 1138.10,305.00 1138.89,305.00 1139.68,305.00 1140.47,305.00 1141.25,305.00 1142.04,305.00 1142.85,305.00 1143.63,305.00 1144.46,305.00 1145.24,305.00 1146.02,305.00 1146.80,305.00 1147.58,305.00 1148.35,305.00 1149.13,305.00 1149.90,305.00 1150.68,305.00 1151.45,305.00 1152.23,305.00 1153.03,305.00 1153.80,305.00 1154.58,305.00 1155.38,305.00 1156.28,305.00 1157.06,305.00 1157.83,305.00 1158.60,305.00 1159.38,305.00 1160.15,305.00 1162.33,305.00 1163.17,305.00 1163.90,305.00 1164.61,305.00 1166.08,305.00 1166.85,305.00 1167.63,305.00 1168.41,305.00 1169.18,305.00 1169.95,305.00 1170.73,305.00 1171.50,305.00 1172.27,305.00 1173.05,305.00 1173.82,305.00 1174.59,305.00 1175.37,305.00 1176.15,305.00 1176.92,305.00 1177.69,305.00 1178.46,305.00 1179.23,305.00 1180.00,305.00"/>
<polyline fill="none" stroke="#9467bd" stroke-opacity="0.50" stroke-width="2" points="70.00,305.00 70.77,305.00 71.55,305.00 72.32,305.00 73.10,305.00 73.88,305.00 74.65,305.00 75.42,305.00 76.26,305.00 77.03,305.00 77.80,305.00 78.57,305.00 79.36,305.00 80.12,305.00 80.89,305.00 82.29,305.00 83.49,305.00 84.27,305.00 85.06,305.00 85.83,305.00 86.60,305.00 87.36,305.00 88.14,305.00 88.91,305.00 89.69,305.00 90.47,305.00 91.26,305.00 92.04,305.00 92.81,305.00 93.63,305.00 94.41,305.00 95.18,305.00 95.97,305.00 96.75,305.00 97.52,305.00 98.32,305.00 99.09,305.00 99.86,305.00 100.65,305.00 101.41,305.00 102.19,305.00 102.95,305.00 103.72,305.00 104.50,305.00 105.27,305.00 106.06,305.00 106.84,305.00 107.60,305.00 108.38,305.00 109.16,305.00 109.93,305.00 110.82,305.00 111.59,305.00 112.36,305.00 113.13,305.00 113.90,305.00 114.66,305.00 115.43,305.00 116.21,305.00 116.98,305.00 117.77,305.00 118.54,305.00 119.31,305.00 120.08,305.00 120.87,305.00 121.64,305.00 122.42,305.00 123.18,305.00 123.95,305.00 124.72,305.00 125.48,305.00 126.26,305.00 127.03,305.00 127.80,305.00 128.57,305.00 129.35,305.00 130.11,305.00 130.89,305.00 131.66,305.00 132.43,305.00 133.22,305.00 133.99,305.00 134.76,305.00 135.54,305.00 136.31,305.00 137.09,305.00 137.86,305.00 138.62,305.00 139.39,305.00 140.17,305.00 140.95,305.00 141.72,305.00 142.50,305.00 143.26,305.00 144.04,305.00 144.81,305.00 145.58,305.00 146.35,305.00 147.12,305.00 147.89,305.00 148.67,305.00 149.44,305.00 150.21,305.00 150.99,305.00 151.77,305.00 152.55,305.00 153.32,305.00 154.09,305.00 154.86,305.00 155.63,305.00 156.41,305.00 157.19,305.00 157.96,305.00 158.73,305.00 159.51,305.00 160.28,305.00 161.06,305.00 161.85,305.00 162.62,305.00 163.39,305.00 164.17,305.00 164.94,305.00 165.71,305.00 166.49,305.00 167.33,305.00 168.10,305.00 168.88,305.00 169.65,305.00 170.42,305.00 171.19,305.00 171.95,305.00 172.72,305.00 173.49,305.00 174.26,305.00 175.03,305.00 175.80,305.00 176.58,305.00 177.34,305.00 178.13,305.00 178.90,305.00 179.67,305.00 180.44,305.00 181.21,305.00 181.98,305.00 182.76,305.00 183.54,305.00 184.31,305.00 185.08,305.00 185.86,305.00 186.62,305.00 187.39,305.00 188.16,305.00 188.94,305.00 189.71,305.00 190.49,305.00 191.27,305.00 192.04,305.00 192.82,305.00 193.59,305.00 194.36,305.00 195.14,305.00 195.91,305.00 196.70,305.00 197.48,305.00 198.25,305.00 199.03,305.00 199.79,305.00 200.56,305.00 201.33,305.00 202.11,305.00 202.88,305.00 203.64,305.00 204.41,305.00 205.19,305.00 205.96,305.00 206.74,305.00 207.51,305.00 208.30,305.00 209.08,305.00 209.85,305.00 210.62,305.00 211.38,305.00 212.22,305.00 213.02,305.00 213.78,305.00 214.55,305.00 215.31,305.00 216.09,305.00 216.86,305.00 217.64,305.00 218.41,305.00 219.18,305.00 219.95,305.00 220.73,305.00 221.52,305.00 222.29,305.00 223.06,305.00 223.83,305.00 224.61,305.00 225.40,305.00 226.19,305.00 226.95,305.00 227.73,305.00 228.50,305.00 229.27,305.00 230.05,305.00 230.82,305.00 231.61,305.00 232.38,305.00 233.14,305.00 233.92,305.00 234.70,305.00 235.47,305.00 236.24,305.00 237.03,305.00 237.80,305.00 238.57,305.00 239.33,305.00 240.10,305.00 240.88,305.00 241.65,305.00 242.42,305.00 243.19,305.00 243.96,305.00 244.73,305.00 245.51,305.00 246.28,305.00 247.06,305.00 247.84,305.00 248.62,305.00 249.39,305.00 250.16,305.00 250.94,305.00 251.71,305.00 252.49,305.00 253.26,305.00 254.05,305.00 254.83,305.00 255.60,305.00 256.38,305.00 257.14,305.00 257.92,305.00 258.69,305.00 259.46,305.00 260.24,305.00 261.01,305.00 261.78,305.00 262.56,305.00 263.34,305.00 264.11,305.00 264.88,305.00 265.66,305.00 266.44,305.00 267.21,305.00 267.98,305.00 268.76,305.00 269.54,305.00 270.32,305.00 271.09,305.00 271.86,305.00 272.72,305.00 273.50,305.00 274.27,305.00 275.05,305.00 275.83,305.00 276.61,305.00 277.38,305.00 278.16,305.00 278.92,305.00 279.72,305.00 280.50,305.00 281.27,305.00 282.04,305.00 282.82,305.00 283.59,305.00 284.37,305.00 285.17,305.00 285.94,305.00 286.71,305.00 287.50,305.00 288.33,305.00 289.11,305.00 290.08,305.00 291.39,305.00 292.18,305.00 292.97,305.00 293.74,305.00 294.50,305.00 295.27,305.00 296.05,305.00 296.83,305.00 297.61,305.00 298.41,305.00 299.21,305.00 300.03,305.00 300.81,305.00 301.58,305.00 302.36,305.00 303.14,305.00 303.92,305.00 304.71,305.00 305.48,305.00 306.25,305.00 307.05,305.00 307.83,305.00 308.60,305.00 309.37,305.00 310.16,305.00 310.96,305.00 311.74,305.00 312.51,305.00 313.31,305.00 314.05,305.00 314.82,305.00 315.61,305.00 316.38,305.00 317.16,305.00 317.96,305.00 318.74,305.00 319.51,305.00 320.29,305.00 321.07,305.00 321.85,305.00 322.62,305.00 323.39,305.00 324.17,305.00 324.94,305.00 325.71,305.00 326.63,305.00 327.54,305.00 328.46,305.00 329.36,305.00 330.24,305.00 331.13,305.00 332.05,305.00 332.95,305.00 333.72,305.00 334.49,305.00 335.26,305.00 336.03,305.00 336.81,305.00 337.57,305.00 338.34,305.00 339.11,305.00 339.89,305.00 340.66,305.00 341.43,305.00 342.20,305.00 342.97,305.00 343.74,305.00 344.51,305.00 345.28,305.00 346.05,305.00 346.82,305.00 347.59,305.00 348.37,305.00 349.14,305.00 349.90,305.00 350.67,305.00 351.44,305.00 352.22,305.00 352.99,305.00 353.76,305.00 354.53,305.00 355.31,305.00 356.08,305.00 356.85,305.00 357.62,305.00 358.39,305.00 359.16,305.00 359.92,305.00 360.68,305.00 361.46,305.00 362.22,305.00 362.99,305.00 363.76,305.00 364.53,305.00 365.30,305.00 366.07,305.00 366.83,305.00 367.59,305.00 368.39,305.00 369.22,305.00 370.00,305.00 370.77,305.00 371.54,305.00 372.31,305.00 373.07,305.00 373.84,305.00 374.61,305.00 375.52,305.00 376.43,305.00 377.33,305.00 378.23,305.00 379.14,305.00 380.04,305.00 380.97,305.00 381.90,305.00 382.75,305.00 383.58,305.00 384.35,305.00 385.13,305.00 385.91,305.00 386.67,305.00 387.44,305.00 388.21,305.00 388.98,305.00 389.75,305.00 390.52,305.00 391.30,305.00 392.07,305.00 392.84,305.00 393.62,305.00 394.39,305.00 395.16,305.00 395.84,305.00 396.63,305.00 397.41,305.00 398.20,305.00 398.97,305.00 399.74,305.00 400.52,305.00 401.30,305.00 402.07,305.00 402.85,305.00 403.63,305.00 404.42,305.00 405.19,305.00 405.95,305.00 406.72,305.00 407.49,305.00 408.26,305.00 409.02,305.00 409.81,305.00 410.57,305.00 411.35,305.00 412.12,305.00 412.89,305.00 413.67,305.00 414.44,305.00 415.21,305.00 415.99,305.00 416.76,305.00 417.53,305.00 418.31,305.00 419.09,305.00 419.89,305.00 420.65,305.00 421.42,305.00 422.19,305.00 422.96,305.00 423.73,305.00 424.51,305.00 425.28,305.00 426.04,305.00 426.82,305.00 427.58,305.00 428.36,305.00 429.13,305.00 429.91,305.00 430.68,305.00 431.61,305.00 432.41,305.00 433.20,305.00 433.98,305.00 434.75,305.00 435.54,305.00 436.30,305.00 437.07,305.00 437.85,305.00 438.63,305.00 439.40,305.00 440.18,305.00 440.95,305.00 441.73,305.00 442.53,305.00 443.31,305.00 444.09,305.00 444.86,305.00 445.63,305.00 446.41,305.00 447.17,305.00 447.95,305.00 448.75,305.00 449.53,305.00 450.31,305.00 451.08,305.00 451.85,305.00 452.63,305.00 453.40,305.00 454.17,305.00 454.95,305.00 455.73,305.00 456.50,305.00 457.28,305.00 458.05,305.00 458.82,305.00 459.59,305.00 460.38,305.00 461.16,305.00 461.92,305.00 462.69,305.00 463.47,305.00 464.25,305.00 465.03,305.00 465.96,305.00 466.76,305.00 467.53,305.00 468.30,305.00 469.07,305.00 469.85,305.00 470.62,305.00 471.40,305.00 472.19,305.00 472.96,305.00 473.73,305.00 474.50,305.00 475.27,305.00 476.04,305.00 476.82,305.00 477.59,305.00 478.36,305.00 479.13,305.00 479.90,305.00 480.68,305.00 481.46,305.00 482.23,305.00 483.00,305.00 483.78,305.00 484.56,305.00 485.33,305.00 486.10,305.00 486.88,305.00 487.68,305.00 488.44,305.00 489.22,305.00 490.00,305.00 490.77,305.00 491.54,305.00 492.32,305.00 493.09,305.00 493.89,305.00 494.66,305.00 495.43,305.00 496.20,305.00 496.97,305.00 497.74,305.00 498.52,305.00 499.29,305.00 500.07,305.00 500.85,305.00 501.63,305.00 502.39,305.00 503.17,305.00 503.94,305.00 504.71,305.00 505.48,305.00 506.26,305.00 507.03,305.00 507.81,305.00 508.59,305.00 509.36,305.00 510.14,305.00 510.92,305.00 511.70,305.00 512.47,305.00 513.25,305.00 514.12,305.00 514.97,305.00 515.80,305.00 516.58,305.00 517.39,305.00 518.17,305.00 518.94,305.00 519.71,305.00 520.43,305.00 521.24,305.00 522.01,305.00 522.80,305.00 523.56,305.00 524.33,305.00 525.10,305.00 525.88,305.00 526.65,305.00 527.43,305.00 528.20,305.00 528.98,305.00 529.75,305.00 530.53,305.00 531.31,305.00 532.10,305.00 532.87,305.00 533.65,305.00 534.42,305.00 535.21,305.00 535.99,305.00 536.76,305.00 537.53,305.00 538.31,305.00 539.08,305.00 539.85,305.00 540.63,305.00 541.40,305.00 542.19,305.00 542.95,305.00 543.72,305.00 544.50,305.00 545.28,305.00 546.06,305.00 546.83,305.00 547.60,305.00 548.38,305.00 549.16,305.00 549.94,305.00 550.71,305.00 551.50,305.00 552.27,305.00 553.05,305.00 553.82,305.00 554.60,305.00 555.38,305.00 556.18,305.00 556.95,305.00 557.73,305.00 558.51,305.00 559.28,305.00 560.06,305.00 560.83,305.00 561.61,305.00 562.39,305.00 563.16,305.00 563.94,305.00 564.72,305.00 565.49,305.00 566.28,305.00 567.05,305.00 567.83,305.00 568.61,305.00 569.39,305.00 570.18,305.00 570.95,305.00 571.72,305.00 572.50,305.00 573.28,305.00 574.07,305.00 574.85,305.00 575.63,305.00 576.41,305.00 577.18,305.00 577.95,305.00 578.73,305.00 579.51,305.00 580.29,305.00 581.06,305.00 581.83,305.00 582.61,305.00 583.39,305.00 584.17,305.00 584.94,305.00 585.72,305.00 586.50,305.00 587.28,305.00 588.06,305.00 588.83,305.00 589.61,305.00 590.38,305.00 591.15,305.00 591.92,305.00 592.70,305.00 593.48,305.00 594.26,305.00 595.04,305.00 595.81,305.00 596.60,305.00 597.38,305.00 598.15,305.00 598.93,305.00 599.72,305.00 600.49,305.00 601.27,305.00 602.04,305.00 602.83,305.00 603.61,305.00 604.39,305.00 605.18,305.00 605.96,305.00 606.74,305.00 607.52,305.00 608.29,305.00 609.07,305.00 609.85,305.00 610.64,305.00 611.41,305.00 612.19,305.00 612.97,305.00 613.73,305.00 614.53,305.00 615.30,305.00 616.09,305.00 616.86,305.00 617.64,305.00 618.41,305.00 619.18,305.00 619.95,305.00 620.73,305.00 621.51,305.00 622.28,305.00 623.06,305.00 623.84,305.00 624.61,305.00 625.41,305.00 626.19,305.00 626.96,305.00 627.74,305.00 628.51,305.00 629.28,305.00 630.06,305.00 630.84,305.00 631.62,305.00 632.40,305.00 633.18,305.00 633.95,305.00 634.73,305.00 635.51,305.00 636.29,305.00 637.09,305.00 637.87,305.00 638.65,305.00 639.44,305.00 640.21,305.00 641.00,305.00 641.77,305.00 642.54,305.00 643.31,305.00 644.09,305.00 644.87,305.00 645.65,305.00 646.43,305.00 647.22,305.00 648.03,305.00 648.80,305.00 649.58,305.00 650.36,305.00 651.13,305.00 651.91,305.00 652.70,305.00 653.48,305.00 654.26,305.00 655.05,305.00 655.82,305.00 656.60,305.00 657.39,305.00 658.16,305.00 658.94,305.00 659.72,305.00 660.49,305.00 661.27,305.00 662.06,305.00 662.83,305.00 663.61,305.00 664.39,305.00 665.17,305.00 665.95,305.00 666.73,305.00 667.51,305.00 668.32,305.00 669.09,305.00 669.88,305.00 670.66,305.00 671.45,305.00 672.25,305.00 673.04,305.00 673.83,305.00 674.63,305.00 675.41,305.00 676.19,305.00 676.97,305.00 677.75,305.00 678.53,305.00 679.31,305.00 680.11,305.00 680.88,305.00 681.66,305.00 682.44,305.00 683.21,305.00 683.99,305.00 684.77,305.00 685.55,305.00 686.32,305.00 687.10,305.00 687.87,305.00 688.65,305.00 689.41,305.00 690.19,305.00 690.97,305.00 691.75,305.00 692.53,305.00 693.31,305.00 694.10,305.00 694.87,305.00 695.65,305.00 696.43,305.00 697.20,305.00 697.98,305.00 698.75,305.00 699.53,305.00 700.31,305.00 701.08,305.00 701.85,305.00 702.63,305.00 703.40,305.00 704.18,305.00 704.96,305.00 705.73,305.00 706.51,305.00 707.29,305.00 708.06,305.00 708.85,305.00 709.62,305.00 710.38,305.00 711.15,305.00 711.92,305.00 712.69,305.00 713.47,305.00 714.27,305.00 715.04,305.00 715.81,305.00 716.59,305.00 717.38,305.00 718.17,305.00 718.94,305.00 719.73,305.00 720.50,305.00 721.27,305.00 722.06,305.00 722.84,305.00 723.63,305.00 724.41,305.00 725.18,305.00 725.96,305.00 726.73,305.00 727.50,305.00 728.28,305.00 729.06,305.00 729.82,305.00 730.60,305.00 731.38,305.00 732.16,305.00 732.93,305.00 733.71,305.00 734.48,305.00 735.26,305.00 736.04,305.00 736.82,305.00 737.60,305.00 738.37,305.00 739.15,305.00 739.94,305.00 740.71,305.00 741.48,305.00 742.26,305.00 743.04,305.00 743.81,305.00 744.59,305.00 745.38,305.00 746.15,305.00 746.92,305.00 747.70,305.00 748.50,305.00 749.28,305.00 750.07,305.00 750.86,305.00 751.64,305.00 752.41,305.00 753.19,305.00 753.97,305.00 754.75,305.00 755.52,305.00 756.31,305.00 757.10,305.00 757.89,305.00 758.66,305.00 759.44,305.00 760.21,305.00 761.00,305.00 761.78,305.00 762.55,305.00 763.32,305.00 764.10,305.00 764.88,305.00 765.65,305.00 766.43,305.00 767.21,305.00 767.98,305.00 768.75,305.00 769.53,305.00 770.30,305.00 771.08,305.00 771.87,305.00 772.64,305.00 773.42,305.00 774.19,305.00 774.97,305.00 775.74,305.00 776.53,305.00 777.30,305.00 778.09,305.00 778.87,305.00 779.64,305.00 780.41,305.00 781.19,305.00 781.97,305.00 782.74,305.00 783.53,305.00 784.32,305.00 785.11,305.00 785.91,305.00 786.69,305.00 787.49,305.00 788.29,305.00 789.08,305.00 789.89,305.00 790.68,305.00 791.48,305.00 792.25,305.00 793.02,305.00 793.81,305.00 794.59,305.00 795.37,305.00 796.15,305.00 796.93,305.00 797.71,305.00 798.49,305.00 799.27,305.00 800.04,305.00 800.81,305.00 801.59,305.00 802.37,305.00 803.14,305.00 803.92,305.00 804.70,305.00 805.48,305.00 806.27,305.00 807.05,305.00 807.82,305.00 808.60,305.00 809.37,305.00 810.15,305.00 810.93,305.00 811.71,305.00 812.49,305.00 813.26,305.00 814.05,305.00 814.82,305.00 815.60,305.00 816.38,305.00 817.15,305.00 817.93,305.00 818.76,305.00 819.57,305.00 820.34,305.00 821.12,305.00 821.89,305.00 822.68,305.00 823.47,305.00 824.25,305.00 825.03,305.00 825.80,305.00 826.56,305.00 827.34,305.00 828.11,305.00 828.89,305.00 829.67,305.00 830.45,305.00 831.23,305.00 832.01,305.00 832.79,305.00 833.57,305.00 834.34,305.00 835.12,305.00 835.90,305.00 836.68,305.00 837.45,305.00 838.23,305.00 839.01,305.00 839.79,305.00 840.57,305.00 841.38,305.00 842.16,305.00 842.94,305.00 843.71,305.00 844.49,305.00 845.27,305.00 846.05,305.00 846.83,305.00 847.60,305.00 848.39,305.00 849.17,305.00 849.96,305.00 850.74,305.00 851.52,305.00 852.30,305.00 853.07,305.00 853.85,305.00 854.63,305.00 855.41,305.00 856.18,305.00 856.97,305.00 857.75,305.00 858.52,305.00 859.30,305.00 860.07,305.00 860.85,305.00 861.63,305.00 862.40,305.00 863.18,305.00 863.96,305.00 864.74,305.00 865.51,305.00 866.29,305.00 867.07,305.00 867.85,305.00 868.63,305.00 869.41,305.00 870.18,305.00 870.95,305.00 871.72,305.00 872.50,305.00 873.28,305.00 874.06,305.00 874.86,305.00 875.64,305.00 876.41,305.00 877.20,305.00 877.97,305.00 878.76,305.00 879.60,305.00 880.39,305.00 881.18,305.00 881.96,305.00 882.75,305.00 883.52,305.00 884.30,305.00 885.08,305.00 885.86,305.00 886.63,305.00 887.42,305.00 888.19,305.00 888.97,305.00 889.77,305.00 890.55,305.00 891.33,305.00 892.11,305.00 892.88,305.00 893.67,305.00 894.45,305.00 895.22,305.00 896.00,305.00 896.79,305.00 897.56,305.00 898.34,305.00 899.12,305.00 899.91,305.00 900.69,305.00 901.48,305.00 902.25,305.00 903.04,305.00 903.81,305.00 904.59,305.00 905.37,305.00 906.14,305.00 906.92,305.00 907.70,305.00 908.47,305.00 909.25,305.00 910.04,305.00 910.81,305.00 911.59,305.00 912.37,305.00 913.15,305.00 913.92,305.00 914.71,305.00 915.48,305.00 916.27,305.00 917.05,305.00 917.81,305.00 918.57,305.00 919.35,305.00 920.13,305.00 920.91,305.00 921.69,305.00 922.48,305.00 923.25,305.00 924.04,305.00 924.83,305.00 925.60,305.00 926.38,305.00 927.15,305.00 927.93,305.00 928.69,305.00 929.47,305.00 930.25,305.00 931.03,305.00 931.80,305.00 932.57,305.00 933.35,305.00 934.13,305.00 934.91,305.00 935.69,305.00 936.46,305.00 937.23,305.00 937.98,305.00 938.78,305.00 939.55,305.00 940.33,305.00 941.12,305.00 941.91,305.00 942.68,305.00 943.45,305.00 944.23,305.00 945.01,305.00 945.79,305.00 946.57,305.00 947.41,305.00 948.18,305.00 948.97,305.00 949.75,305.00 950.53,305.00 951.30,305.00 952.08,305.00 952.86,305.00 953.64,305.00 954.41,305.00 955.19,305.00 955.96,305.00 956.75,305.00 957.53,305.00 958.31,305.00 959.09,305.00 959.86,305.00 960.65,305.00 961.42,305.00 962.21,305.00 962.99,305.00 963.77,305.00 964.57,305.00 965.35,305.00 966.13,305.00 966.91,305.00 967.69,305.00 968.48,305.00 969.26,305.00 970.03,305.00 970.80,305.00 971.58,305.00 972.36,305.00 973.14,305.00 973.92,305.00 974.70,305.00 975.48,305.00 976.26,305.00 977.03,305.00 977.80,305.00 978.58,305.00 979.36,305.00 980.13,305.00 980.91,305.00 981.69,305.00 982.46,305.00 983.23,305.00 984.01,305.00 984.78,305.00 985.55,305.00 986.33,305.00 987.10,305.00 987.88,305.00 988.65,305.00 989.43,305.00 990.20,305.00 990.98,305.00 991.76,305.00 992.53,305.00 993.30,305.00 994.07,305.00 994.86,305.00 995.63,305.00 996.41,305.00 997.19,305.00 998.00,305.00 998.77,305.00 999.55,305.00 1000.34,305.00 1001.12,305.00 1001.90,305.00 1002.68,305.00 1003.46,305.00 1004.23,305.00 1005.01,305.00 1005.78,305.00 1006.55,305.00 1007.33,305.00 1008.11,305.00 1008.89,305.00 1009.66,305.00 1010.44,305.00 1011.21,305.00 1011.99,305.00 1012.77,305.00 1013.55,305.00 1014.37,305.00 1015.14,305.00 1015.91,305.00 1016.68,305.00 1017.45,305.00 1018.24,305.00 1019.01,305.00 1019.79,305.00 1020.57,305.00 1021.35,305.00 1022.13,305.00 1022.91,305.00 1023.69,305.00 1024.47,305.00 1025.24,305.00 1026.02,305.00 1026.80,305.00 1027.57,305.00 1028.35,305.00 1029.12,305.00 1029.89,305.00 1030.67,305.00 1031.44,305.00 1032.22,305.00 1033.00,305.00 1033.77,305.00 1034.55,305.00 1035.33,305.00 1036.11,305.00 1036.88,305.00 1037.66,305.00 1038.43,305.00 1039.21,305.00 1040.00,305.00 1040.77,305.00 1041.55,305.00 1042.32,305.00 1043.10,305.00 1043.87,305.00 1044.64,305.00 1045.43,305.00 1046.19,305.00 1046.99,305.00 1047.77,305.00 1048.54,305.00 1049.32,305.00 1050.10,305.00 1050.88,305.00 1051.67,305.00 1052.46,305.00 1053.28,305.00 1054.06,305.00 1054.90,305.00 1055.67,305.00 1056.44,305.00 1057.22,305.00 1057.99,305.00 1058.77,305.00 1059.55,305.00 1060.33,305.00 1061.10,305.00 1061.88,305.00 1062.66,305.00 1063.43,305.00 1064.21,305.00 1064.98,305.00 1065.76,305.00 1066.53,305.00 1067.30,305.00 1068.08,305.00 1068.86,305.00 1069.64,305.00 1070.42,305.00 1071.19,305.00 1071.96,305.00 1072.74,305.00 1073.52,305.00 1074.30,305.00 1075.08,305.00 1075.85,305.00 1076.64,305.00 1077.41,305.00 1078.18,305.00 1078.96,305.00 1079.74,305.00 1080.51,305.00 1081.28,305.00 1082.05,305.00 1082.82,305.00 1083.59,305.00 1084.37,305.00 1085.15,305.00 1085.93,305.00 1086.71,305.00 1087.51,305.00 1088.29,305.00 1089.07,305.00 1089.84,305.00 1090.61,305.00 1091.38,305.00 1092.15,305.00 1092.93,305.00 1093.71,305.00 1094.48,305.00 1095.25,305.00 1096.02,305.00 1096.79,305.00 1097.57,305.00 1098.34,305.00 1099.12,305.00 1099.89,305.00 1100.68,305.00 1101.45,305.00 1102.22,305.00 1103.01,305.00 1103.78,305.00 1104.56,305.00 1105.34,305.00 1106.11,305.00 1106.88,305.00 1107.67,305.00 1108.45,305.00 1109.24,305.00 1110.01,305.00 1110.78,305.00 1111.56,305.00 1112.34,305.00 1113.11,305.00 1113.91,305.00 1114.69,305.00 1115.47,305.00 1116.25,305.00 1117.03,305.00 1117.80,305.00 1118.58,305.00 1119.35,305.00 1120.14,305.00 1120.92,305.00 1121.68,305.00 1122.46,305.00 1123.25,305.00 1124.03,305.00 1124.81,305.00 1125.60,305.00 1126.40,305.00 1127.22,305.00 1128.01,305.00 1128.78,305.00 1129.56,305.00 1130.32,305.00 1131.11,305.00 1131.88,305.00 1132.66,305.00 1133.44,305.00 1134.22,305.00 1135.00,305.00 1135.77,305.00 1136.54,305.00 1137.32,305.00 1138.10,305.00 1138.89,305.00 1139.68,305.00 1140.47,305.00 1141.25,305.00 1142.04,305.00 1142.85,305.00 1143.63,305.00 1144.46,305.00 1145.24,305.00 1146.02,305.00 1146.80,305.00 1147.58,305.00 1148.35,305.00 1149.13,305.00 1149.90,305.00 1150.68,305.00 1151.45,305.00 1152.23,305.00 1153.03,305.00 1153.80,305.00 1154.58,305.00 1155.38,305.00 1156.28,305.00 1157.06,305.00 1157.83,305.00 1158.60,305.00 1159.38,305.00 1160.15,305.00 1160.91,305.00 1161.63,305.00 1162.33,305.00 1163.17,305.00 1163.90,305.00 1164.61,305.00 1165.40,305.00 1166.08,305.00 1166.85,305.00 1167.63,305.00 1168.41,305.00 1169.18,305.00 1169.95,305.00 1170.73,305.00 1171.50,305.00 1172.27,305.00 1173.05,305.00 1173.82,305.00 1174.59,305.00 1175.37,305.00 1176.15,305.00 1176.92,305.00 1177.69,305.00 1178.46,305.00 1179.23,305.00 1180.00,305.00"/>
<rect x="70" y="332" width="12" height="12" fill="#9467bd" fill-opacity="0.95"/>
<text x="88" y="342" font-size="11" fill="#333" font-family="Arial, Helvetica, sans-serif">nsc1.utdallas.edu</text>
<rect x="350" y="332" width="12" height="12" fill="#9467bd" fill-opacity="0.80"/>
<text x="368" y="342" font-size="11" fill="#333" font-family="Arial, Helvetica, sans-serif">nsc2.utdallas.edu</text>
<rect x="630" y="332" width="12" height="12" fill="#9467bd" fill-opacity="0.65"/>
<text x="648" y="342" font-size="11" fill="#333" font-family="Arial, Helvetica, sans-serif">nsc3.utdallas.edu</text>
<rect x="910" y="332" width="12" height="12" fill="#9467bd" fill-opacity="0.50"/>
<text x="928" y="342" font-size="11" fill="#333" font-family="Arial, Helvetica, sans-serif">nsc4.utdallas.edu</text>
</svg>