<?xml version="1.0" encoding="UTF-8"?>
<svg xmlns="http://www.w3.org/2000/svg" width="1200" height="360" viewBox="0 0 1200 360" role="img" aria-label="GPU Utilization (%)">
<rect width="100%" height="100%" fill="#ffffff"/>
<text x="600.0" y="22" text-anchor="middle" font-size="16" font-family="Arial, Helvetica, sans-serif" font-weight="bold">GPU Utilization (%)</text>
<line x1="70" y1="35.00" x2="1180" y2="35.00" stroke="#e3e3e3" stroke-width="1"/>
<text x="62" y="39.00" text-anchor="end" font-size="11" fill="#444" font-family="Arial, Helvetica, sans-serif">100</text>
<line x1="70" y1="89.00" x2="1180" y2="89.00" stroke="#e3e3e3" stroke-width="1"/>
<text x="62" y="93.00" text-anchor="end" font-size="11" fill="#444" font-family="Arial, Helvetica, sans-serif">80</text>
<line x1="70" y1="143.00" x2="1180" y2="143.00" stroke="#e3e3e3" stroke-width="1"/>
<text x="62" y="147.00" text-anchor="end" font-size="11" fill="#444" font-family="Arial, Helvetica, sans-serif">60</text>
<line x1="70" y1="197.00" x2="1180" y2="197.00" stroke="#e3e3e3" stroke-width="1"/>
<text x="62" y="201.00" text-anchor="end" font-size="11" fill="#444" font-family="Arial, Helvetica, sans-serif">40</text>
<line x1="70" y1="251.00" x2="1180" y2="251.00" stroke="#e3e3e3" stroke-width="1"/>
<text x="62" y="255.00" text-anchor="end" font-size="11" fill="#444" font-family="Arial, Helvetica, sans-serif">20</text>
<line x1="70" y1="305.00" x2="1180" y2="305.00" stroke="#e3e3e3" stroke-width="1"/>
<text x="62" y="309.00" text-anchor="end" font-size="11" fill="#444" font-family="Arial, Helvetica, sans-serif">0</text>
<line x1="70" y1="35" x2="70" y2="305" stroke="#999"/>
<line x1="70" y1="305" x2="1180" y2="305" stroke="#999"/>
<text x="70.00" y="323" text-anchor="middle" font-size="10" fill="#444" font-family="Arial, Helvetica, sans-serif">2026-02-11 16:38</text>
<text x="347.50" y="323" text-anchor="middle" font-size="10" fill="#444" font-family="Arial, Helvetica, sans-serif">2026-02-11 23:22</text>
<text x="625.00" y="323" text-anchor="middle" font-size="10" fill="#444" font-family="Arial, Helvetica, sans-serif">2026-02-12 06:06</text>
<text x="902.50" y="323" text-anchor="middle" font-size="10" fill="#444" font-family="Arial, Helvetica, sans-serif">2026-02-12 12:50</text>
<text x="1180.00" y="323" text-anchor="middle" font-size="10" fill="#444" font-family="Arial, Helvetica, sans-serif">2026-02-12 19:34</text>
<polyline fill="none" stroke="#9467bd" stroke-opacity="0.95" stroke-width="2" points="73.70,305.00 77.41,305.00 81.09,305.00 84.80,305.00 88.53,305.00 92.20,305.00 95.91,305.00 99.91,305.00 103.59,305.00 107.26,305.00 110.94,305.00 114.69,305.00 118.37,305.00 122.04,305.00 128.69,305.00 134.43,305.00 138.16,305.00 141.95,305.00 145.64,305.00 149.32,305.00 152.94,305.00 156.67,305.00 160.36,305.00 164.08,305.00 167.80,305.00 171.57,305.00 175.27,305.00 178.98,305.00 182.86,305.00 186.60,305.00 190.28,305.00 194.07,305.00 197.77,305.00 201.47,305.00 205.28,305.00 208.94,305.00 212.64,305.00 216.41,305.00 220.06,305.00 223.76,305.00 227.41,305.00 231.09,305.00 234.80,305.00 238.48,305.00 242.26,305.00 245.99,305.00 249.64,305.00 253.33,305.00 257.06,305.00 260.76,305.00 264.98,305.00 268.68,305.00 272.36,305.00 276.03,305.00 279.70,305.00 283.37,305.00 287.04,305.00 290.75,305.00 294.44,305.00 298.20,305.00 301.89,305.00 305.54,305.00 309.26,305.00 313.00,305.00 316.69,305.00 320.40,305.00 324.05,305.00 327.72,305.00 331.39,305.00 335.05,305.00 338.74,305.00 342.44,305.00 346.10,305.00 349.80,305.00 353.51,305.00 357.16,305.00 360.88,305.00 364.54,305.00 368.22,305.00 372.01,305.00 375.69,305.00 379.38,305.00 383.10,305.00 386.77,305.00 390.48,305.00 394.17,305.00 397.82,305.00 401.49,305.00 405.21,305.00 408.93,305.00 412.61,305.00 416.34,305.00 419.99,305.00 423.69,305.00 427.37,305.00 431.06,305.00 434.72,305.00 438.42,305.00 442.08,305.00 445.80,305.00 449.50,305.00 453.20,305.00 456.89,305.00 460.64,305.00 464.36,305.00 468.04,305.00 471.72,305.00 475.40,305.00 479.08,305.00 482.81,305.00 486.51,305.00 490.20,305.00 493.88,305.00 497.59,305.00 501.30,305.00 505.02,305.00 508.78,305.00 512.45,305.00 516.15,305.00 519.85,305.00 523.53,305.00 527.22,305.00 530.94,305.00 534.95,305.00 538.62,305.00 542.36,305.00 546.05,305.00 549.71,305.00 553.38,305.00 557.01,305.00 560.69,305.00 564.39,305.00 568.08,305.00 571.75,305.00 575.44,305.00 579.12,305.00 582.79,305.00 586.55,305.00 590.23,305.00 593.91,305.00 597.59,305.00 601.29,305.00 604.96,305.00 608.67,305.00 612.38,305.00 616.08,305.00 619.77,305.00 623.46,305.00 627.12,305.00 630.80,305.00 634.48,305.00 638.17,305.00 641.88,305.00 645.61,305.00 649.31,305.00 653.00,305.00 656.73,305.00 660.43,305.00 664.09,305.00 667.80,305.00 671.50,305.00 675.25,305.00 678.99,305.00 682.67,305.00 686.38,305.00 690.04,305.00 693.70,305.00 697.39,305.00 701.09,305.00 704.76,305.00 708.42,305.00 712.09,305.00 715.82,305.00 719.52,305.00 723.23,305.00 726.91,305.00 730.69,305.00 734.38,305.00 738.07,305.00 741.74,305.00 745.40,305.00 749.42,305.00 753.20,305.00 756.86,305.00 760.54,305.00 764.18,305.00 767.89,305.00 771.57,305.00 775.28,305.00 778.99,305.00 782.67,305.00 786.34,305.00 790.04,305.00 793.82,305.00 797.50,305.00 801.17,305.00 804.85,305.00 808.58,305.00 812.35,305.00 816.13,305.00 819.79,305.00 823.49,305.00 827.19,305.00 830.86,305.00 834.57,305.00 838.27,305.00 842.01,305.00 845.69,305.00 849.35,305.00 853.08,305.00 856.78,305.00 860.47,305.00 864.16,305.00 867.91,305.00 871.60,305.00 875.28,305.00 878.93,305.00 882.61,305.00 886.32,305.00 890.00,305.00 893.68,305.00 897.36,305.00 901.01,305.00 904.70,305.00 908.42,305.00 912.12,305.00 915.83,305.00 919.57,305.00 923.27,305.00 926.99,305.00 930.66,305.00 934.37,305.00 938.06,305.00 941.76,305.00 945.46,305.00 949.23,305.00 952.93,305.00 956.64,305.00 960.34,305.00 964.01,305.00 967.72,305.00 971.37,305.00 975.06,305.00 978.78,305.00 982.48,305.00 986.18,305.00 989.87,305.00 993.59,305.00 997.28,305.00 1000.98,305.00 1004.70,305.00 1008.43,305.00 1012.11,305.00 1015.79,305.00 1019.51,305.00 1023.24,305.00 1026.95,305.00 1030.64,305.00 1034.33,305.00 1038.42,305.00 1042.14,305.00 1045.84,305.00 1049.54,305.00 1053.27,305.00 1056.98,305.00 1060.68,305.00 1064.39,305.00 1068.05,305.00 1071.86,80.90 1075.61,72.80 1079.27,305.00 1082.96,305.00 1086.65,305.00 1090.35,305.00 1094.05,305.00 1097.88,305.00 1101.58,305.00 1105.27,305.00 1109.01,305.00 1113.00,305.00 1116.69,305.00 1121.34,305.00 1127.59,305.00 1131.37,305.00 1135.15,305.00 1138.83,305.00 1142.45,305.00 1146.13,305.00 1149.88,305.00 1153.59,305.00 1157.31,305.00 1161.16,305.00 1164.98,305.00 1168.90,305.00 1172.60,305.00 1176.30,305.00 1180.00,305.00"/>
<polyline fill="none" stroke="#9467bd" stroke-opacity="0.80" stroke-width="2" points="70.00,305.00 73.70,305.00 77.41,305.00 81.09,305.00 84.80,305.00 88.53,305.00 92.20,305.00 95.91,305.00 99.91,305.00 103.59,305.00 107.26,305.00 110.94,305.00 114.69,305.00 118.37,305.00 122.04,305.00 128.69,305.00 134.43,305.00 138.16,305.00 141.95,305.00 145.64,305.00 149.32,305.00 152.94,305.00 156.67,305.00 160.36,305.00 164.08,305.00 167.80,305.00 171.57,305.00 175.27,305.00 178.98,305.00 182.86,305.00 186.60,305.00 190.28,305.00 194.07,305.00 197.77,305.00 201.47,305.00 205.28,305.00 208.94,305.00 212.64,305.00 216.41,305.00 220.06,305.00 223.76,305.00 227.41,305.00 231.09,305.00 234.80,305.00 238.48,305.00 242.26,305.00 245.99,305.00 249.64,305.00 253.33,305.00 257.06,305.00 260.76,305.00 264.98,305.00 268.68,305.00 272.36,305.00 276.03,305.00 279.70,305.00 283.37,305.00 287.04,305.00 290.75,305.00 294.44,305.00 298.20,305.00 301.89,305.00 305.54,305.00 309.26,305.00 313.00,305.00 316.69,305.00 320.40,305.00 324.05,305.00 327.72,305.00 331.39,305.00 335.05,305.00 338.74,305.00 342.44,305.00 346.10,305.00 349.80,305.00 353.51,305.00 357.16,305.00 360.88,305.00 364.54,305.00 368.22,305.00 372.01,305.00 375.69,305.00 379.38,305.00 383.10,305.00 386.77,305.00 390.48,305.00 394.17,305.00 397.82,305.00 401.49,305.00 405.21,305.00 408.93,305.00 412.61,305.00 416.34,305.00 419.99,305.00 423.69,305.00 427.37,305.00 431.06,305.00 434.72,305.00 438.42,305.00 442.08,305.00 445.80,305.00 449.50,305.00 453.20,305.00 456.89,305.00 460.64,305.00 464.36,305.00 468.04,305.00 471.72,305.00 475.40,305.00 479.08,305.00 482.81,305.00 486.51,305.00 490.20,305.00 493.88,305.00 497.59,305.00 501.30,305.00 505.02,305.00 508.78,305.00 512.45,305.00 516.15,305.00 519.85,305.00 523.53,305.00 527.22,305.00 530.94,305.00 534.95,305.00 538.62,305.00 542.36,305.00 546.05,305.00 549.71,305.00 553.38,305.00 557.01,305.00 560.69,305.00 564.39,305.00 568.08,305.00 571.75,305.00 575.44,305.00 579.12,305.00 582.79,305.00 586.55,305.00 590.23,305.00 593.91,305.00 597.59,305.00 601.29,305.00 604.96,305.00 608.67,305.00 612.38,305.00 616.08,305.00 619.77,305.00 623.46,305.00 627.12,305.00 630.80,305.00 634.48,305.00 638.17,305.00 641.88,305.00 645.61,305.00 649.31,305.00 653.00,305.00 656.73,305.00 660.43,305.00 664.09,305.00 667.80,305.00 671.50,305.00 675.25,305.00 678.99,305.00 682.67,305.00 686.38,305.00 690.04,305.00 693.70,305.00 697.39,305.00 701.09,305.00 704.76,305.00 708.42,305.00 712.09,305.00 715.82,305.00 719.52,305.00 723.23,305.00 726.91,305.00 730.69,305.00 734.38,305.00 738.07,305.00 741.74,305.00 745.40,305.00 749.42,305.00 753.20,305.00 756.86,305.00 760.54,305.00 764.18,305.00 767.89,305.00 771.57,305.00 775.28,305.00 778.99,305.00 782.67,305.00 786.34,305.00 790.04,305.00 793.82,305.00 797.50,305.00 801.17,305.00 804.85,305.00 808.58,305.00 812.35,305.00 816.13,305.00 819.79,305.00 823.49,305.00 827.19,305.00 830.86,305.00 834.57,305.00 838.27,305.00 842.01,305.00 845.69,305.00 849.35,305.00 853.08,305.00 856.78,305.00 860.47,305.00 864.16,305.00 867.91,305.00 871.60,305.00 875.28,305.00 878.93,305.00 882.61,305.00 886.32,305.00 890.00,305.00 893.68,305.00 897.36,305.00 901.01,305.00 904.70,305.00 908.42,305.00 912.12,305.00 915.83,305.00 919.57,305.00 923.27,305.00 926.99,305.00 930.66,305.00 934.37,305.00 938.06,305.00 941.76,305.00 945.46,305.00 949.23,305.00 952.93,305.00 956.64,305.00 960.34,305.00 964.01,305.00 967.72,305.00 971.37,305.00 975.06,305.00 978.78,305.00 982.48,305.00 986.18,305.00 989.87,305.00 993.59,305.00 997.28,305.00 1000.98,305.00 1004.70,305.00 1008.43,305.00 1012.11,305.00 1015.79,305.00 1019.51,305.00 1023.24,305.00 1026.95,305.00 1030.64,305.00 1034.33,305.00 1038.42,305.00 1042.14,305.00 1045.84,305.00 1049.54,305.00 1053.27,305.00 1056.98,305.00 1060.68,305.00 1064.39,305.00 1068.05,305.00 1071.86,305.00 1075.61,305.00 1079.27,305.00 1082.96,305.00 1086.65,305.00 1090.35,305.00 1094.05,305.00 1097.88,305.00 1101.58,305.00 1105.27,305.00 1109.01,305.00 1113.00,305.00 1116.69,305.00 1121.34,305.00 1127.59,305.00 1131.37,305.00 1135.15,305.00 1138.83,305.00 1142.45,305.00 1146.13,305.00 1149.88,305.00 1153.59,305.00 1157.31,305.00 1161.16,305.00 1164.98,305.00 1168.90,305.00 1172.60,305.00 1176.30,305.00 1180.00,305.00"/>
<polyline fill="none" stroke="#9467bd" stroke-opacity="0.65" stroke-width="2" points="70.00,305.00 73.70,305.00 77.41,305.00 81.09,305.00 84.80,305.00 88.53,305.00 92.20,305.00 95.91,305.00 99.91,305.00 103.59,305.00 107.26,305.00 110.94,305.00 114.69,305.00 118.37,305.00 122.04,305.00 128.69,305.00 134.43,305.00 138.16,305.00 141.95,305.00 145.64,305.00 149.32,305.00 152.94,305.00 156.67,305.00 160.36,305.00 164.08,305.00 167.80,305.00 171.57,305.00 175.27,305.00 178.98,305.00 182.86,305.00 186.60,305.00 190.28,305.00 194.07,305.00 197.77,305.00 201.47,305.00 205.28,305.00 208.94,305.00 212.64,305.00 216.41,305.00 220.06,305.00 223.76,305.00 227.41,305.00 231.09,305.00 234.80,305.00 238.48,305.00 242.26,305.00 245.99,305.00 249.64,305.00 253.33,305.00 257.06,305.00 260.76,305.00 264.98,305.00 268.68,305.00 272.36,305.00 276.03,305.00 279.70,305.00 283.37,305.00 287.04,305.00 290.75,305.00 294.44,305.00 298.20,305.00 301.89,305.00 305.54,305.00 309.26,305.00 313.00,305.00 316.69,305.00 320.40,305.00 324.05,305.00 327.72,305.00 331.39,305.00 335.05,305.00 338.74,305.00 342.44,305.00 346.10,305.00 349.80,305.00 353.51,305.00 357.16,305.00 360.88,305.00 364.54,305.00 368.22,305.00 372.01,305.00 375.69,305.00 379.38,305.00 383.10,305.00 386.77,305.00 390.48,305.00 394.17,305.00 397.82,305.00 401.49,305.00 405.21,305.00 408.93,305.00 412.61,305.00 416.34,305.00 419.99,305.00 423.69,305.00 427.37,305.00 431.06,305.00 434.72,305.00 438.42,305.00 442.08,305.00 445.80,305.00 449.50,305.00 453.20,305.00 456.89,305.00 460.64,305.00 464.36,305.00 468.04,305.00 471.72,305.00 475.40,305.00 479.08,305.00 482.81,305.00 486.51,305.00 490.20,305.00 493.88,305.00 497.59,305.00 501.30,305.00 505.02,305.00 508.78,305.00 512.45,305.00 516.15,305.00 519.85,305.00 523.53,305.00 527.22,305.00 530.94,305.00 534.95,305.00 538.62,305.00 542.36,305.00 546.05,305.00 549.71,305.00 553.38,305.00 557.01,305.00 560.69,305.00 564.39,305.00 568.08,305.00 571.75,305.00 575.44,305.00 579.12,305.00 582.79,305.00 586.55,305.00 590.23,305.00 593.91,305.00 597.59,305.00 601.29,305.00 604.96,305.00 608.67,305.00 612.38,305.00 616.08,305.00 619.77,305.00 623.46,305.00 627.12,305.00 630.80,305.00 634.48,305.00 638.17,305.00 641.88,305.00 645.61,305.00 649.31,305.00 653.00,305.00 656.73,305.00 660.43,305.00 664.09,305.00 667.80,305.00 671.50,305.00 675.25,305.00 678.99,305.00 682.67,305.00 686.38,305.00 690.04,305.00 693.70,305.00 697.39,305.00 701.09,305.00 704.76,305.00 708.42,305.00 712.09,305.00 715.82,305.00 719.52,305.00 723.23,305.00 726.91,305.00 730.69,305.00 734.38,305.00 738.07,305.00 741.74,305.00 745.40,305.00 749.42,305.00 753.20,305.00 756.86,305.00 760.54,305.00 764.18,305.00 767.89,305.00 771.57,305.00 775.28,305.00 778.99,305.00 782.67,305.00 786.34,305.00 790.04,305.00 793.82,305.00 797.50,305.00 801.17,305.00 804.85,305.00 808.58,305.00 812.35,305.00 816.13,305.00 819.79,305.00 823.49,305.00 827.19,305.00 830.86,305.00 834.57,305.00 838.27,305.00 842.01,305.00 845.69,305.00 849.35,305.00 853.08,305.00 856.78,305.00 860.47,305.00 864.16,305.00 867.91,305.00 871.60,305.00 875.28,305.00 878.93,305.00 882.61,305.00 886.32,305.00 890.00,305.00 893.68,305.00 897.36,305.00 901.01,305.00 904.70,305.00 908.42,305.00 912.12,305.00 915.83,305.00 919.57,305.00 923.27,305.00 926.99,305.00 930.66,305.00 934.37,305.00 938.06,305.00 941.76,305.00 945.46,305.00 949.23,305.00 952.93,305.00 956.64,305.00 960.34,305.00 964.01,305.00 967.72,305.00 971.37,305.00 975.06,305.00 978.78,305.00 982.48,305.00 986.18,305.00 989.87,305.00 993.59,305.00 997.28,305.00 1000.98,305.00 1004.70,305.00 1008.43,305.00 1012.11,305.00 1015.79,305.00 1019.51,305.00 1023.24,305.00 1026.95,305.00 1030.64,305.00 1034.33,305.00 1038.42,305.00 1042.14,305.00 1045.84,305.00 1049.54,305.00 1053.27,305.00 1056.98,305.00 1060.68,305.00 1064.39,305.00 1068.05,305.00 1071.86,305.00 1075.61,305.00 1079.27,305.00 1082.96,305.00 1086.65,305.00 1090.35,305.00 1094.05,305.00 1097.88,305.00 1101.58,305.00 1105.27,305.00 1109.01,305.00 1113.00,305.00 1116.69,305.00 1121.34,305.00 1127.59,305.00 1131.37,305.00 1135.15,305.00 1138.83,305.00 1142.45,305.00 1146.13,305.00 1149.88,305.00 1153.59,305.00 1157.31,305.00 1161.16,305.00 1164.98,305.00 1168.90,305.00 1172.60,305.00 1176.30,305.00 1180.00,305.00"/>
<rect x="70" y="332" width="12" height="12" fill="#9467bd" fill-opacity="0.95"/>
<text x="88" y="342" font-size="11" fill="#333" font-family="Arial, Helvetica, sans-serif">nsc1.utdallas.edu</text>
<rect x="350" y="332" width="12" height="12" fill="#9467bd" fill-opacity="0.80"/>
<text x="368" y="342" font-size="11" fill="#333" font-family="Arial, Helvetica, sans-serif">nsc2.utdallas.edu</text>
<rect x="630" y="332" width="12" height="12" fill="#9467bd" fill-opacity="0.65"/>
<text x="648" y="342" font-size="11" fill="#333" font-family="Arial, Helvetica, sans-serif">nsc4.utdallas.edu</text>
</svg>