<?xml version="1.0" encoding="UTF-8"?>
<svg xmlns="http://www.w3.org/2000/svg" width="1200" height="360" viewBox="0 0 1200 360" role="img" aria-label="GPU Utilization (%)">
<rect width="100%" height="100%" fill="#ffffff"/>
<text x="600.0" y="22" text-anchor="middle" font-size="16" font-family="Arial, Helvetica, sans-serif" font-weight="bold">GPU Utilization (%)</text>
<line x1="70" y1="35.00" x2="1180" y2="35.00" stroke="#e3e3e3" stroke-width="1"/>
<text x="62" y="39.00" text-anchor="end" font-size="11" fill="#444" font-family="Arial, Helvetica, sans-serif">100</text>
<line x1="70" y1="89.00" x2="1180" y2="89.00" stroke="#e3e3e3" stroke-width="1"/>
<text x="62" y="93.00" text-anchor="end" font-size="11" fill="#444" font-family="Arial, Helvetica, sans-serif">80</text>
<line x1="70" y1="143.00" x2="1180" y2="143.00" stroke="#e3e3e3" stroke-width="1"/>
<text x="62" y="147.00" text-anchor="end" font-size="11" fill="#444" font-family="Arial, Helvetica, sans-serif">60</text>
<line x1="70" y1="197.00" x2="1180" y2="197.00" stroke="#e3e3e3" stroke-width="1"/>
<text x="62" y="201.00" text-anchor="end" font-size="11" fill="#444" font-family="Arial, Helvetica, sans-serif">40</text>
<line x1="70" y1="251.00" x2="1180" y2="251.00" stroke="#e3e3e3" stroke-width="1"/>
<text x="62" y="255.00" text-anchor="end" font-size="11" fill="#444" font-family="Arial, Helvetica, sans-serif">20</text>
<line x1="70" y1="305.00" x2="1180" y2="305.00" stroke="#e3e3e3" stroke-width="1"/>
<text x="62" y="309.00" text-anchor="end" font-size="11" fill="#444" font-family="Arial, Helvetica, sans-serif">0</text>
<line x1="70" y1="35" x2="70" y2="305" stroke="#999"/>
<line x1="70" y1="305" x2="1180" y2="305" stroke="#999"/>
<text x="70.00" y="323" text-anchor="middle" font-size="10" fill="#444" font-family="Arial, Helvetica, sans-serif">2026-02-11 16:38</text>
<text x="347.50" y="323" text-anchor="middle" font-size="10" fill="#444" font-family="Arial, Helvetica, sans-serif">2026-02-13 09:13</text>
<text x="625.00" y="323" text-anchor="middle" font-size="10" fill="#444" font-family="Arial, Helvetica, sans-serif">2026-02-15 01:49</text>
<text x="902.50" y="323" text-anchor="middle" font-size="10" fill="#444" font-family="Arial, Helvetica, sans-serif">2026-02-16 18:25</text>
<text x="1180.00" y="323" text-anchor="middle" font-size="10" fill="#444" font-family="Arial, Helvetica, sans-serif">2026-02-18 11:00</text>
<polyline fill="none" stroke="#9467bd" stroke-opacity="0.95" stroke-width="2" points="70.61,305.00 71.23,305.00 71.84,305.00 72.46,305.00 73.07,305.00 73.68,305.00 74.30,305.00 74.96,305.00 75.57,305.00 76.18,305.00 76.79,305.00 77.41,305.00 78.02,305.00 78.63,305.00 79.74,305.00 80.69,305.00 81.31,305.00 81.93,305.00 82.55,305.00 83.16,305.00 83.76,305.00 84.38,305.00 84.99,305.00 85.60,305.00 86.22,305.00 86.85,305.00 87.46,305.00 88.08,305.00 88.72,305.00 89.34,305.00 89.95,305.00 90.58,305.00 91.19,305.00 91.81,305.00 92.44,305.00 93.05,305.00 93.66,305.00 94.28,305.00 94.89,305.00 95.50,305.00 96.11,305.00 96.72,305.00 97.34,305.00 97.95,305.00 98.57,305.00 99.19,305.00 99.80,305.00 100.41,305.00 101.03,305.00 101.64,305.00 102.34,305.00 102.95,305.00 103.57,305.00 104.17,305.00 104.78,305.00 105.39,305.00 106.00,305.00 106.62,305.00 107.23,305.00 107.85,305.00 108.46,305.00 109.07,305.00 109.69,305.00 110.31,305.00 110.92,305.00 111.53,305.00 112.14,305.00 112.75,305.00 113.36,305.00 113.96,305.00 114.58,305.00 115.19,305.00 115.80,305.00 116.41,305.00 117.02,305.00 117.63,305.00 118.25,305.00 118.86,305.00 119.46,305.00 120.09,305.00 120.70,305.00 121.32,305.00 121.93,305.00 122.54,305.00 123.16,305.00 123.77,305.00 124.38,305.00 124.98,305.00 125.60,305.00 126.22,305.00 126.83,305.00 127.45,305.00 128.05,305.00 128.67,305.00 129.28,305.00 129.89,305.00 130.50,305.00 131.11,305.00 131.72,305.00 132.33,305.00 132.95,305.00 133.56,305.00 134.17,305.00 134.79,305.00 135.41,305.00 136.02,305.00 136.63,305.00 137.24,305.00 137.85,305.00 138.47,305.00 139.09,305.00 139.70,305.00 140.31,305.00 140.92,305.00 141.54,305.00 142.16,305.00 142.78,305.00 143.39,305.00 144.00,305.00 144.61,305.00 145.23,305.00 145.84,305.00 146.45,305.00 147.12,305.00 147.73,305.00 148.35,305.00 148.96,305.00 149.57,305.00 150.18,305.00 150.78,305.00 151.39,305.00 152.00,305.00 152.61,305.00 153.22,305.00 153.84,305.00 154.45,305.00 155.05,305.00 155.68,305.00 156.29,305.00 156.90,305.00 157.51,305.00 158.12,305.00 158.73,305.00 159.35,305.00 159.96,305.00 160.58,305.00 161.19,305.00 161.80,305.00 162.41,305.00 163.02,305.00 163.63,305.00 164.24,305.00 164.86,305.00 165.48,305.00 166.09,305.00 166.70,305.00 167.32,305.00 167.93,305.00 168.54,305.00 169.16,305.00 169.77,305.00 170.39,305.00 171.01,305.00 171.62,305.00 172.24,305.00 172.84,305.00 173.45,305.00 174.06,305.00 174.68,305.00 175.29,305.00 175.89,305.00 176.50,305.00 177.12,305.00 177.73,305.00 178.35,305.00 178.96,305.00 179.59,305.00 180.20,305.00 180.81,305.00 181.42,305.00 182.03,305.00 182.69,305.00 183.32,305.00 183.93,305.00 184.54,305.00 185.14,305.00 185.76,305.00 186.37,305.00 186.98,305.00 187.60,305.00 188.21,305.00 188.82,305.00 189.43,305.00 190.06,305.00 190.67,305.00 191.28,305.00 191.89,305.00 192.51,305.00 193.13,305.00 193.76,305.00 194.37,305.00 194.98,305.00 195.59,305.00 196.20,305.00 196.82,305.00 197.43,305.00 198.05,305.00 198.66,305.00 199.27,305.00 199.89,305.00 200.50,305.00 201.11,305.00 201.73,305.00 202.35,305.00 202.96,305.00 203.57,305.00 204.18,305.00 204.79,305.00 205.40,305.00 206.01,305.00 206.62,305.00 207.23,305.00 207.84,305.00 208.45,305.00 209.07,305.00 209.68,305.00 210.30,305.00 210.92,305.00 211.53,305.00 212.15,305.00 212.76,305.00 213.37,305.00 213.98,305.00 214.60,305.00 215.21,305.00 215.84,305.00 216.45,305.00 217.07,305.00 217.68,305.00 218.29,305.00 218.90,305.00 219.51,305.00 220.12,305.00 220.74,305.00 221.35,305.00 221.96,305.00 222.58,305.00 223.19,305.00 223.81,305.00 224.42,305.00 225.04,305.00 225.66,305.00 226.26,305.00 226.88,305.00 227.49,305.00 228.11,305.00 228.73,305.00 229.34,305.00 229.95,305.00 230.63,305.00 231.25,305.00 231.86,305.00 232.47,305.00 233.09,305.00 233.71,305.00 234.32,305.00 234.94,305.00 235.54,305.00 236.18,80.90 236.80,72.80 237.41,305.00 238.02,305.00 238.63,305.00 239.24,305.00 239.86,305.00 240.49,305.00 241.11,305.00 241.72,305.00 242.34,305.00 243.00,305.00 243.61,305.00 244.38,305.00 245.42,305.00 246.05,305.00 246.67,305.00 247.29,305.00 247.89,305.00 248.49,305.00 249.12,305.00 249.73,305.00 250.35,305.00 250.99,305.00 251.62,305.00 252.27,305.00 252.89,305.00 253.50,305.00 254.11,305.00 254.73,305.00 255.36,305.00 255.97,305.00 256.58,305.00 257.20,305.00 257.83,305.00 258.45,305.00 259.06,305.00 259.67,305.00 260.29,305.00 260.93,305.00 261.55,305.00 262.16,305.00 262.79,305.00 263.38,305.00 263.99,305.00 264.61,305.00 265.22,305.00 265.84,305.00 266.48,305.00 267.09,305.00 267.70,305.00 268.32,305.00 268.94,305.00 269.56,305.00 270.17,305.00 270.78,305.00 271.39,305.00 272.01,305.00 272.62,305.00 273.35,305.00 274.07,305.00 274.79,305.00 275.51,305.00 276.21,305.00 276.91,305.00 277.64,305.00 278.35,305.00 278.97,305.00 279.57,305.00 280.18,305.00 280.80,305.00 281.41,305.00 282.02,305.00 282.63,305.00 283.24,305.00 283.85,305.00 284.46,305.00 285.07,305.00 285.68,305.00 286.29,305.00 286.90,305.00 287.51,305.00 288.12,305.00 288.73,305.00 289.34,305.00 289.96,305.00 290.57,305.00 291.18,305.00 291.79,305.00 292.40,305.00 293.01,305.00 293.62,305.00 294.23,305.00 294.84,305.00 295.46,305.00 296.07,305.00 296.68,305.00 297.29,305.00 297.90,305.00 298.51,305.00 299.12,305.00 299.73,305.00 300.33,305.00 300.94,305.00 301.55,305.00 302.16,305.00 302.77,305.00 303.38,305.00 303.99,305.00 304.59,305.00 305.20,305.00 305.80,305.00 306.43,305.00 307.09,305.00 307.71,305.00 308.32,305.00 308.93,305.00 309.54,305.00 310.15,305.00 310.75,305.00 311.36,305.00 312.09,305.00 312.80,305.00 313.52,305.00 314.23,305.00 314.96,305.00 315.67,305.00 316.40,305.00 317.14,305.00 317.81,305.00 318.47,305.00 319.08,305.00 319.70,305.00 320.31,305.00 320.92,305.00 321.53,305.00 322.14,305.00 322.75,305.00 323.36,305.00 323.97,305.00 324.58,305.00 325.20,305.00 325.81,305.00 326.43,305.00 327.04,305.00 327.65,305.00 328.18,305.00 328.82,305.00 329.43,305.00 330.05,305.00 330.66,305.00 331.27,305.00 331.89,305.00 332.51,305.00 333.12,305.00 333.74,305.00 334.36,305.00 334.98,305.00 335.59,305.00 336.20,305.00 336.81,305.00 337.42,305.00 338.02,305.00 338.63,305.00 339.25,305.00 339.86,305.00 340.47,305.00 341.09,305.00 341.69,305.00 342.31,305.00 342.92,305.00 343.54,305.00 344.15,305.00 344.77,305.00 345.38,305.00 345.99,305.00 346.61,305.00 347.24,305.00 347.85,305.00 348.46,305.00 349.07,305.00 349.67,305.00 350.28,305.00 350.90,305.00 351.51,305.00 352.12,305.00 352.73,305.00 353.34,305.00 353.95,305.00 354.57,305.00 355.18,305.00 355.79,305.00 356.53,305.00 357.16,305.00 357.79,305.00 358.41,305.00 359.02,305.00 359.64,305.00 360.25,305.00 360.86,305.00 361.48,305.00 362.09,305.00 362.70,305.00 363.32,305.00 363.93,305.00 364.54,305.00 365.18,305.00 365.80,305.00 366.41,305.00 367.03,305.00 367.64,305.00 368.25,305.00 368.86,305.00 369.48,305.00 370.11,305.00 370.73,305.00 371.35,305.00 371.96,305.00 372.57,305.00 373.19,305.00 373.80,305.00 374.41,305.00 375.02,305.00 375.64,305.00 376.25,305.00 376.87,305.00 377.48,305.00 378.09,305.00 378.70,305.00 379.33,305.00 379.94,305.00 380.55,305.00 381.16,305.00 381.77,305.00 382.39,305.00 383.01,305.00 383.75,305.00 384.38,305.00 384.99,305.00 385.60,305.00 386.21,305.00 386.83,305.00 387.44,305.00 388.06,305.00 388.68,305.00 389.29,305.00 389.90,305.00 390.51,305.00 391.13,305.00 391.74,305.00 392.35,305.00 392.97,305.00 393.58,305.00 394.18,305.00 394.80,305.00 395.41,305.00 396.03,305.00 396.64,305.00 397.25,305.00 397.87,305.00 398.49,305.00 399.10,305.00 399.71,305.00 400.32,305.00 400.95,305.00 401.56,305.00 402.18,305.00 402.79,305.00 403.41,305.00 404.02,305.00 404.63,305.00 405.25,305.00 405.88,305.00 406.49,305.00 407.10,305.00 407.70,305.00 408.32,305.00 408.93,305.00 409.54,305.00 410.15,305.00 410.77,305.00 411.39,305.00 412.01,305.00 412.61,305.00 413.23,305.00 413.84,305.00 414.45,305.00 415.06,305.00 415.68,305.00 416.29,305.00 416.91,305.00 417.52,305.00 418.13,305.00 418.75,305.00 419.37,305.00 419.99,305.00 420.60,305.00 421.22,305.00 421.91,305.00 422.58,305.00 423.24,305.00 423.86,305.00 424.50,305.00 425.11,305.00 425.73,305.00 426.33,305.00 426.91,305.00 427.55,305.00 428.16,305.00 428.78,305.00 429.39,305.00 430.00,305.00 430.61,305.00 431.23,305.00 431.84,305.00 432.45,305.00 433.07,305.00 433.68,305.00 434.30,305.00 434.91,305.00 435.53,305.00 436.15,305.00 436.77,305.00 437.38,305.00 437.99,305.00 438.62,305.00 439.24,305.00 439.84,305.00 440.46,305.00 441.07,305.00 441.68,305.00 442.29,305.00 442.91,305.00 443.52,305.00 444.15,305.00 444.75,305.00 445.36,305.00 445.98,305.00 446.59,305.00 447.21,305.00 447.83,305.00 448.44,305.00 449.05,305.00 449.67,305.00 450.29,305.00 450.90,305.00 451.52,305.00 452.14,305.00 452.75,305.00 453.37,305.00 453.98,305.00 454.60,305.00 455.23,305.00 455.85,305.00 456.46,305.00 457.08,305.00 457.69,305.00 458.30,305.00 458.92,305.00 459.54,305.00 460.15,305.00 460.77,305.00 461.38,305.00 462.00,305.00 462.61,305.00 463.23,305.00 463.85,305.00 464.47,305.00 465.09,305.00 465.70,305.00 466.33,305.00 466.94,305.00 467.55,305.00 468.17,305.00 468.78,305.00 469.41,305.00 470.03,305.00 470.65,305.00 471.26,305.00 471.87,305.00 472.49,305.00 473.10,305.00 473.72,305.00 474.33,305.00 474.95,305.00 475.56,305.00 476.17,305.00 476.79,305.00 477.41,305.00 478.03,305.00 478.64,305.00 479.26,305.00 479.88,305.00 480.49,305.00 481.11,305.00 481.72,305.00 482.33,305.00 482.94,305.00 483.56,305.00 484.17,305.00 484.79,305.00 485.41,305.00 486.03,305.00 486.64,305.00 487.26,305.00 487.88,305.00 488.49,305.00 489.11,305.00 489.73,305.00 490.34,305.00 490.96,305.00 491.58,305.00 492.20,305.00 492.82,305.00 493.43,305.00 494.06,305.00 494.68,305.00 495.30,305.00 495.91,305.00 496.52,305.00 497.14,305.00 497.76,305.00 498.38,305.00 499.00,305.00 499.62,305.00 500.23,305.00 500.84,305.00 501.47,305.00 502.08,305.00 502.70,305.00 503.32,305.00 503.93,305.00 504.54,305.00 505.15,305.00 505.76,305.00 506.38,305.00 507.00,305.00 507.61,305.00 508.23,305.00 508.84,305.00 509.46,305.00 510.09,305.00 510.71,305.00 511.32,305.00 511.94,305.00 512.55,305.00 513.16,305.00 513.78,305.00 514.40,305.00 515.01,305.00 515.63,305.00 516.24,305.00 516.86,305.00 517.47,305.00 518.09,305.00 518.71,305.00 519.34,305.00 519.97,305.00 520.58,305.00 521.20,305.00 521.82,305.00 522.44,305.00 523.05,305.00 523.66,305.00 524.27,305.00 524.90,305.00 525.51,305.00 526.13,305.00 526.75,305.00 527.37,305.00 528.01,305.00 528.63,305.00 529.24,305.00 529.86,305.00 530.47,305.00 531.09,305.00 531.71,305.00 532.33,305.00 532.95,305.00 533.57,305.00 534.19,305.00 534.81,305.00 535.43,305.00 536.04,305.00 536.66,305.00 537.27,305.00 537.89,305.00 538.51,305.00 539.13,305.00 539.74,305.00 540.36,305.00 540.98,305.00 541.60,305.00 542.21,305.00 542.83,305.00 543.45,305.00 544.09,305.00 544.70,305.00 545.33,305.00 545.94,305.00 546.57,305.00 547.20,305.00 547.83,305.00 548.46,305.00 549.09,305.00 549.71,305.00 550.33,305.00 550.94,305.00 551.56,305.00 552.18,305.00 552.80,305.00 553.43,305.00 554.04,305.00 554.66,305.00 555.28,305.00 555.89,305.00 556.51,305.00 557.13,305.00 557.74,305.00 558.35,305.00 558.97,305.00 559.58,305.00 560.20,305.00 560.80,305.00 561.42,305.00 562.04,305.00 562.66,305.00 563.27,305.00 563.89,305.00 564.51,305.00 565.13,305.00 565.74,305.00 566.36,305.00 566.98,305.00 567.59,305.00 568.20,305.00 568.82,305.00 569.44,305.00 570.05,305.00 570.66,305.00 571.27,305.00 571.89,305.00 572.51,305.00 573.12,305.00 573.74,305.00 574.35,305.00 574.97,305.00 575.58,305.00 576.20,305.00 576.82,305.00 577.42,305.00 578.03,305.00 578.63,305.00 579.25,305.00 579.87,305.00 580.50,305.00 581.11,305.00 581.72,305.00 582.34,305.00 582.97,305.00 583.59,305.00 584.20,305.00 584.82,305.00 585.44,305.00 586.05,305.00 586.67,305.00 587.29,305.00 587.91,305.00 588.53,305.00 589.15,305.00 589.76,305.00 590.37,305.00 590.99,305.00 591.60,305.00 592.22,305.00 592.82,305.00 593.44,305.00 594.06,305.00 594.68,305.00 595.29,305.00 595.90,305.00 596.52,305.00 597.13,305.00 597.75,305.00 598.37,305.00 598.98,305.00 599.60,305.00 600.21,305.00 600.84,305.00 601.45,305.00 602.06,305.00 602.68,305.00 603.29,305.00 603.91,305.00 604.53,305.00 605.15,305.00 605.76,305.00 606.37,305.00 606.99,305.00 607.62,305.00 608.24,305.00 608.87,305.00 609.49,305.00 610.11,305.00 610.72,305.00 611.34,305.00 611.96,305.00 612.58,305.00 613.19,305.00 613.81,305.00 614.44,305.00 615.06,305.00 615.67,305.00 616.29,305.00 616.91,305.00 617.53,305.00 618.14,305.00 618.75,305.00 619.37,305.00 619.99,305.00 620.60,305.00 621.22,305.00 621.83,305.00 622.45,305.00 623.06,305.00 623.67,305.00 624.29,305.00 624.90,305.00 625.51,305.00 626.14,305.00 626.75,305.00 627.37,305.00 627.98,305.00 628.60,305.00 629.21,305.00 629.83,305.00 630.44,305.00 631.07,305.00 631.68,305.00 632.29,305.00 632.91,305.00 633.53,305.00 634.14,305.00 634.75,305.00 635.38,305.00 636.01,305.00 636.63,305.00 637.26,305.00 637.89,305.00 638.52,305.00 639.15,305.00 639.78,305.00 640.42,305.00 641.04,305.00 641.68,305.00 642.29,305.00 642.90,305.00 643.52,305.00 644.15,305.00 644.76,305.00 645.38,305.00 646.00,305.00 646.62,305.00 647.23,305.00 647.85,305.00 648.46,305.00 649.08,305.00 649.69,305.00 650.30,305.00 650.92,305.00 651.54,305.00 652.16,305.00 652.77,305.00 653.40,305.00 654.01,305.00 654.63,305.00 655.24,305.00 655.86,305.00 656.48,305.00 657.09,305.00 657.71,305.00 658.32,305.00 658.94,305.00 659.56,305.00 660.17,305.00 660.79,305.00 661.41,305.00 662.02,305.00 662.64,305.00 663.30,305.00 663.93,305.00 664.55,305.00 665.16,305.00 665.77,305.00 666.40,305.00 667.02,305.00 667.64,305.00 668.26,305.00 668.87,305.00 669.47,305.00 670.09,305.00 670.71,305.00 671.32,305.00 671.94,305.00 672.55,305.00 673.18,305.00 673.80,305.00 674.42,305.00 675.03,305.00 675.64,305.00 676.26,305.00 676.87,305.00 677.49,305.00 678.10,305.00 678.72,305.00 679.34,305.00 679.96,305.00 680.58,305.00 681.22,305.00 681.84,305.00 682.45,305.00 683.06,305.00 683.68,305.00 684.30,305.00 684.92,305.00 685.54,305.00 686.15,305.00 686.77,305.00 687.39,305.00 688.01,305.00 688.63,305.00 689.25,305.00 689.87,305.00 690.48,305.00 691.10,305.00 691.71,305.00 692.33,305.00 692.94,305.00 693.57,305.00 694.19,305.00 694.80,305.00 695.42,305.00 696.03,305.00 696.65,305.00 697.26,305.00 697.88,305.00 698.49,305.00 699.11,305.00 699.73,305.00 700.34,305.00 700.96,305.00 701.57,305.00 702.19,305.00 702.81,305.00 703.43,305.00 704.04,305.00 704.65,305.00 705.26,305.00 705.88,305.00 706.50,305.00 707.11,305.00 707.74,305.00 708.36,305.00 708.98,305.00 709.60,305.00 710.21,305.00 710.84,305.00 711.50,305.00 712.13,305.00 712.75,305.00 713.37,305.00 714.00,305.00 714.61,305.00 715.23,305.00 715.84,305.00 716.46,305.00 717.08,305.00 717.70,305.00 718.31,305.00 718.93,305.00 719.56,305.00 720.18,305.00 720.80,305.00 721.41,305.00 722.03,305.00 722.65,305.00 723.27,305.00 723.88,305.00 724.50,305.00 725.12,305.00 725.74,305.00 726.35,305.00 726.97,305.00 727.59,305.00 728.21,305.00 728.84,305.00 729.45,305.00 730.07,305.00 730.68,305.00 731.30,305.00 731.93,305.00 732.54,305.00 733.15,305.00 733.77,305.00 734.38,305.00 735.00,305.00 735.62,305.00 736.23,305.00 736.85,305.00 737.47,305.00 738.09,305.00 738.70,305.00 739.32,305.00 739.93,305.00 740.56,305.00 741.18,305.00 741.78,305.00 742.38,305.00 743.00,305.00 743.62,305.00 744.23,305.00 744.85,305.00 745.48,305.00 746.09,305.00 746.72,305.00 747.34,305.00 747.95,305.00 748.57,305.00 749.18,305.00 749.80,305.00 750.40,305.00 751.02,305.00 751.63,305.00 752.25,305.00 752.87,305.00 753.48,305.00 754.09,305.00 754.71,305.00 755.33,305.00 755.94,305.00 756.55,305.00 757.17,305.00 757.76,305.00 758.40,305.00 759.01,305.00 759.63,305.00 760.25,305.00 760.87,305.00 761.48,305.00 762.10,305.00 762.72,305.00 763.33,305.00 763.95,305.00 764.56,305.00 765.23,305.00 765.84,305.00 766.47,305.00 767.08,305.00 767.71,305.00 768.32,305.00 768.93,305.00 769.55,305.00 770.17,305.00 770.78,305.00 771.40,305.00 772.01,305.00 772.63,305.00 773.26,305.00 773.87,305.00 774.49,305.00 775.10,305.00 775.72,305.00 776.34,305.00 776.96,305.00 777.58,305.00 778.20,305.00 778.83,305.00 779.45,305.00 780.06,305.00 780.68,305.00 781.30,305.00 781.93,305.00 782.54,305.00 783.15,305.00 783.77,305.00 784.39,305.00 785.00,305.00 785.62,305.00 786.24,305.00 786.86,305.00 787.47,305.00 788.09,305.00 788.70,305.00 789.32,305.00 789.93,305.00 790.55,305.00 791.16,305.00 791.78,305.00 792.40,305.00 793.01,305.00 793.62,305.00 794.23,305.00 794.85,305.00 795.46,305.00 796.07,305.00 796.69,305.00 797.30,305.00 797.91,305.00 798.53,305.00 799.14,305.00 799.76,305.00 800.37,305.00 800.98,305.00 801.59,305.00 802.21,305.00 802.83,305.00 803.44,305.00 804.06,305.00 804.68,305.00 805.32,305.00 805.93,305.00 806.55,305.00 807.17,305.00 807.79,305.00 808.41,305.00 809.02,305.00 809.64,305.00 810.26,305.00 810.87,305.00 811.48,305.00 812.10,305.00 812.72,305.00 813.33,305.00 813.95,305.00 814.56,305.00 815.17,305.00 815.79,305.00 816.40,305.00 817.02,305.00 817.64,305.00 818.29,305.00 818.90,305.00 819.51,305.00 820.12,305.00 820.73,305.00 821.36,305.00 821.97,305.00 822.59,305.00 823.20,305.00 823.82,305.00 824.44,305.00 825.05,305.00 825.67,305.00 826.29,305.00 826.90,305.00 827.52,305.00 828.14,305.00 828.75,305.00 829.37,305.00 829.98,305.00 830.59,305.00 831.21,305.00 831.82,305.00 832.43,305.00 833.05,305.00 833.67,305.00 834.28,305.00 834.90,305.00 835.51,305.00 836.13,305.00 836.74,305.00 837.36,305.00 837.97,305.00 838.60,305.00 839.21,305.00 839.82,305.00 840.44,305.00 841.05,305.00 841.66,305.00 842.28,305.00 842.90,305.00 843.51,305.00 844.14,305.00 844.75,305.00 845.37,305.00 845.98,305.00 846.60,305.00 847.22,305.00 847.85,305.00 849.12,305.00 849.74,305.00 850.40,305.00 851.02,305.00 851.63,305.00 852.24,305.00 852.86,305.00 853.47,305.00 854.09,305.00 854.70,305.00 855.32,305.00 855.93,305.00 856.55,305.00 857.17,305.00 857.78,305.00 858.39,305.00 859.01,305.00 859.62,305.00 860.23,305.00 860.85,305.00 861.47,305.00 862.08,305.00 862.70,305.00 863.32,305.00 863.92,305.00 864.54,305.00 865.16,305.00 865.78,305.00 866.40,305.00 867.01,305.00 867.63,305.00 868.24,305.00 868.85,305.00 869.47,305.00 870.08,305.00 870.69,305.00 871.31,305.00 871.92,305.00 872.53,305.00 873.14,305.00 873.76,305.00 874.37,305.00 874.99,305.00 875.61,305.00 876.25,305.00 876.87,305.00 877.48,305.00 878.09,305.00 878.70,305.00 879.31,305.00 879.92,305.00 880.54,305.00 881.16,305.00 881.77,305.00 882.38,305.00 882.99,305.00 883.60,305.00 884.21,305.00 884.83,305.00 885.44,305.00 886.06,305.00 886.68,305.00 887.29,305.00 887.90,305.00 888.52,305.00 889.14,305.00 889.75,305.00 890.37,305.00 890.98,305.00 891.59,305.00 892.22,305.00 892.83,305.00 893.46,305.00 894.07,305.00 894.68,305.00 895.30,305.00 895.91,305.00 896.53,305.00 897.16,305.00 897.78,305.00 898.40,305.00 899.02,305.00 899.63,305.00 900.25,305.00 900.86,305.00 901.48,305.00 902.10,305.00 902.71,305.00 903.32,305.00 903.94,305.00 904.56,305.00 905.18,305.00 905.80,305.00 906.42,305.00 907.06,305.00 907.71,305.00 908.33,305.00 908.95,305.00 909.56,305.00 910.17,305.00 910.79,305.00 911.40,305.00 912.02,305.00 912.64,305.00 913.26,305.00 913.88,305.00 914.49,305.00 915.10,305.00 915.71,305.00 916.33,305.00 916.95,305.00 917.58,305.00 918.21,305.00 918.83,305.00 919.45,305.00 920.10,305.00 920.72,305.00 921.37,305.00 921.99,305.00 922.60,305.00 923.22,305.00 923.84,305.00 924.45,305.00 925.07,305.00 925.68,305.00 926.30,305.00 926.91,305.00 927.53,305.00 928.16,305.00 928.77,305.00 929.39,305.00 930.02,305.00 930.74,305.00 931.35,305.00 931.96,305.00 932.58,305.00 933.19,305.00 933.80,305.00 934.41,305.00 934.98,305.00 935.53,305.00 936.19,305.00 936.77,305.00 937.33,305.00 937.96,305.00 938.50,305.00 939.11,305.00 939.73,305.00 940.34,305.00 940.96,305.00 941.57,305.00 942.18,305.00 942.79,305.00 943.40,305.00 944.02,305.00 944.64,305.00 945.25,305.00 945.86,305.00 946.48,305.00 947.09,305.00 947.70,305.00 948.31,305.00 948.92,305.00 949.53,305.00 950.14,305.00 950.76,305.00 951.37,305.00 951.99,305.00 952.61,305.00 953.22,305.00 953.82,305.00 954.44,305.00 955.05,305.00 955.66,305.00 956.27,305.00 956.88,305.00 957.49,305.00 958.11,305.00 958.72,305.00 959.33,305.00 959.95,305.00 960.56,305.00 961.18,305.00 961.79,305.00 962.40,305.00 963.01,305.00 963.63,305.00 964.24,305.00 964.86,305.00 965.47,305.00 966.07,305.00 966.68,305.00 967.29,305.00 967.91,305.00 968.52,305.00 969.12,305.00 969.75,305.00 970.37,305.00 970.98,305.00 971.59,305.00 972.21,305.00 972.83,305.00 973.44,305.00 974.06,305.00 974.67,305.00 975.29,305.00 975.90,305.00 976.51,305.00 977.12,305.00 977.73,305.00 978.35,305.00 978.96,305.00 979.58,305.00 980.19,305.00 980.80,305.00 981.42,305.00 982.03,305.00 982.64,305.00 983.26,305.00 983.87,305.00 984.48,305.00 985.10,305.00 985.71,305.00 986.38,305.00 987.00,305.00 987.61,305.00 988.22,305.00 988.84,305.00 989.45,305.00 990.06,305.00 990.68,305.00 991.54,305.00 992.15,305.00 993.01,305.00 993.62,305.00 994.23,305.00 994.85,305.00 995.47,305.00 996.08,305.00 996.69,305.00 997.30,305.00 997.91,305.00 998.52,305.00 999.13,305.00 999.74,305.00 1000.35,305.00 1000.98,305.00 1001.59,305.00 1002.21,305.00 1002.82,305.00 1003.44,305.00 1004.05,305.00 1004.67,305.00 1005.29,305.00 1005.90,305.00 1006.51,305.00 1007.12,305.00 1007.74,305.00 1008.35,305.00 1008.97,305.00 1009.59,305.00 1010.20,305.00 1010.81,305.00 1011.43,305.00 1012.06,305.00 1012.70,305.00 1013.32,305.00 1013.95,305.00 1014.57,305.00 1015.18,305.00 1015.80,305.00 1016.42,305.00 1017.03,305.00 1017.65,305.00 1018.26,305.00 1018.87,305.00 1019.50,305.00 1020.11,305.00 1020.73,305.00 1021.35,305.00 1021.97,305.00 1022.58,305.00 1023.20,305.00 1023.81,305.00 1024.43,305.00 1025.05,305.00 1025.67,305.00 1026.29,305.00 1026.90,305.00 1027.53,305.00 1028.14,305.00 1028.76,305.00 1029.37,305.00 1029.99,305.00 1030.60,305.00 1031.23,305.00 1031.85,305.00 1032.47,305.00 1033.08,305.00 1033.70,305.00 1034.32,305.00 1034.93,305.00 1035.55,305.00 1036.16,305.00 1036.78,305.00 1037.39,305.00 1038.00,305.00 1038.61,305.00 1039.23,305.00 1039.86,305.00 1040.49,305.00 1041.11,305.00 1041.72,305.00 1042.33,305.00 1042.95,305.00 1043.56,305.00 1044.18,305.00 1044.79,305.00 1045.40,305.00 1046.02,305.00 1046.64,305.00 1047.26,305.00 1047.88,305.00 1048.49,305.00 1049.11,305.00 1049.72,305.00 1050.34,305.00 1050.95,305.00 1051.58,305.00 1052.19,305.00 1052.81,305.00 1053.43,305.00 1054.05,305.00 1054.66,305.00 1055.28,305.00 1055.90,305.00 1056.52,305.00 1057.14,305.00 1057.76,305.00 1058.38,305.00 1058.99,305.00 1059.60,305.00 1060.21,305.00 1060.84,305.00 1061.46,305.00 1062.08,305.00 1062.71,305.00 1063.33,305.00 1063.94,305.00 1064.56,305.00 1065.18,305.00 1065.79,305.00 1066.42,305.00 1067.03,305.00 1067.66,305.00 1068.27,305.00 1068.88,305.00 1069.50,305.00 1070.12,305.00 1070.74,305.00 1071.35,305.00 1071.97,305.00 1072.59,305.00 1073.22,305.00 1073.84,305.00 1074.45,305.00 1075.08,305.00 1075.69,305.00 1076.31,305.00 1076.92,305.00 1077.54,305.00 1078.18,305.00 1078.80,305.00 1079.41,305.00 1080.04,305.00 1080.65,305.00 1081.27,305.00 1081.90,305.00 1082.52,305.00 1083.15,305.00 1083.77,305.00 1084.39,305.00 1085.01,305.00 1085.67,305.00 1086.27,305.00 1086.90,305.00 1087.52,305.00 1088.13,305.00 1088.75,305.00 1089.36,305.00 1089.98,305.00 1090.61,305.00 1091.22,305.00 1091.86,305.00 1092.47,305.00 1093.09,305.00 1093.71,305.00 1094.33,305.00 1094.94,305.00 1095.58,305.00 1096.19,305.00 1096.80,305.00 1097.43,305.00 1098.04,305.00 1098.65,305.00 1099.29,305.00 1099.90,305.00 1100.51,305.00 1101.12,305.00 1101.73,305.00 1102.35,305.00 1102.97,305.00 1103.58,305.00 1104.22,305.00 1104.83,305.00 1105.44,305.00 1106.06,305.00 1106.67,305.00 1107.28,305.00 1107.90,305.00 1108.52,305.00 1109.14,305.00 1109.75,305.00 1110.37,305.00 1110.98,305.00 1111.60,305.00 1112.21,305.00 1112.85,305.00 1113.46,305.00 1114.09,305.00 1114.70,305.00 1115.31,305.00 1115.92,305.00 1116.53,305.00 1117.15,305.00 1117.77,305.00 1118.42,305.00 1119.03,305.00 1119.65,305.00 1120.26,305.00 1120.87,305.00 1121.49,305.00 1122.09,305.00 1122.71,305.00 1123.33,305.00 1123.94,305.00 1124.55,305.00 1125.16,305.00 1125.77,305.00 1126.40,305.00 1127.01,305.00 1127.62,305.00 1128.23,305.00 1128.85,305.00 1129.47,305.00 1130.09,305.00 1130.71,305.00 1131.33,305.00 1131.94,305.00 1132.55,305.00 1133.17,305.00 1133.80,305.00 1134.41,305.00 1135.02,305.00 1135.63,305.00 1136.24,305.00 1136.86,305.00 1137.48,305.00 1138.09,305.00 1138.70,305.00 1139.31,305.00 1139.93,305.00 1140.54,305.00 1141.15,305.00 1141.76,305.00 1142.37,305.00 1142.98,305.00 1143.60,305.00 1144.22,305.00 1144.83,305.00 1145.45,305.00 1146.07,305.00 1146.69,305.00 1147.30,305.00 1147.91,305.00 1148.52,305.00 1149.14,305.00 1149.76,305.00 1150.37,305.00 1150.99,305.00 1151.61,305.00 1152.22,305.00 1152.84,305.00 1153.46,305.00 1154.08,305.00 1154.70,305.00 1155.32,305.00 1155.94,305.00 1156.56,305.00 1157.17,305.00 1157.78,305.00 1158.39,305.00 1159.00,305.00 1159.62,305.00 1160.23,305.00 1160.84,305.00 1161.46,305.00 1162.10,305.00 1162.71,305.00 1163.33,305.00 1163.95,305.00 1164.56,305.00 1165.19,305.00 1165.82,305.00 1166.47,305.00 1167.07,305.00 1167.68,305.00 1168.29,305.00 1168.90,305.00 1169.51,305.00 1170.13,305.00 1170.75,305.00 1171.37,305.00 1171.98,305.00 1172.59,305.00 1173.22,305.00 1173.83,305.00 1174.44,305.00 1175.06,305.00 1175.68,305.00 1176.32,305.00 1176.94,305.00 1177.55,305.00 1178.16,305.00 1178.78,305.00 1179.39,305.00 1180.00,305.00"/>
<polyline fill="none" stroke="#9467bd" stroke-opacity="0.80" stroke-width="2" points="70.00,305.00 70.61,305.00 71.23,305.00 71.84,305.00 72.46,305.00 73.07,305.00 73.68,305.00 74.30,305.00 74.96,305.00 75.57,305.00 76.18,305.00 76.79,305.00 77.41,305.00 78.02,305.00 78.63,305.00 79.74,305.00 80.69,305.00 81.31,305.00 81.93,305.00 82.55,305.00 83.16,305.00 83.76,305.00 84.38,305.00 84.99,305.00 85.60,305.00 86.22,305.00 86.85,305.00 87.46,305.00 88.08,305.00 88.72,305.00 89.34,305.00 89.95,305.00 90.58,305.00 91.19,305.00 91.81,305.00 92.44,305.00 93.05,305.00 93.66,305.00 94.28,305.00 94.89,305.00 95.50,305.00 96.11,305.00 96.72,305.00 97.34,305.00 97.95,305.00 98.57,305.00 99.19,305.00 99.80,305.00 100.41,305.00 101.03,305.00 101.64,305.00 102.34,305.00 102.95,305.00 103.57,305.00 104.17,305.00 104.78,305.00 105.39,305.00 106.00,305.00 106.62,305.00 107.23,305.00 107.85,305.00 108.46,305.00 109.07,305.00 109.69,305.00 110.31,305.00 110.92,305.00 111.53,305.00 112.14,305.00 112.75,305.00 113.36,305.00 113.96,305.00 114.58,305.00 115.19,305.00 115.80,305.00 116.41,305.00 117.02,305.00 117.63,305.00 118.25,305.00 118.86,305.00 119.46,305.00 120.09,305.00 120.70,305.00 121.32,305.00 121.93,305.00 122.54,305.00 123.16,305.00 123.77,305.00 124.38,305.00 124.98,305.00 125.60,305.00 126.22,305.00 126.83,305.00 127.45,305.00 128.05,305.00 128.67,305.00 129.28,305.00 129.89,305.00 130.50,305.00 131.11,305.00 131.72,305.00 132.33,305.00 132.95,305.00 133.56,305.00 134.17,305.00 134.79,305.00 135.41,305.00 136.02,305.00 136.63,305.00 137.24,305.00 137.85,305.00 138.47,305.00 139.09,305.00 139.70,305.00 140.31,305.00 140.92,305.00 141.54,305.00 142.16,305.00 142.78,305.00 143.39,305.00 144.00,305.00 144.61,305.00 145.23,305.00 145.84,305.00 146.45,305.00 147.12,305.00 147.73,305.00 148.35,305.00 148.96,305.00 149.57,305.00 150.18,305.00 150.78,305.00 151.39,305.00 152.00,305.00 152.61,305.00 153.22,305.00 153.84,305.00 154.45,305.00 155.05,305.00 155.68,305.00 156.29,305.00 156.90,305.00 157.51,305.00 158.12,305.00 158.73,305.00 159.35,305.00 159.96,305.00 160.58,305.00 161.19,305.00 161.80,305.00 162.41,305.00 163.02,305.00 163.63,305.00 164.24,305.00 164.86,305.00 165.48,305.00 166.09,305.00 166.70,305.00 167.32,305.00 167.93,305.00 168.54,305.00 169.16,305.00 169.77,305.00 170.39,305.00 171.01,305.00 171.62,305.00 172.24,305.00 172.84,305.00 173.45,305.00 174.06,305.00 174.68,305.00 175.29,305.00 175.89,305.00 176.50,305.00 177.12,305.00 177.73,305.00 178.35,305.00 178.96,305.00 179.59,305.00 180.20,305.00 180.81,305.00 181.42,305.00 182.03,305.00 182.69,305.00 183.32,305.00 183.93,305.00 184.54,305.00 185.14,305.00 185.76,305.00 186.37,305.00 186.98,305.00 187.60,305.00 188.21,305.00 188.82,305.00 189.43,305.00 190.06,305.00 190.67,305.00 191.28,305.00 191.89,305.00 192.51,305.00 193.13,305.00 193.76,305.00 194.37,305.00 194.98,305.00 195.59,305.00 196.20,305.00 196.82,305.00 197.43,305.00 198.05,305.00 198.66,305.00 199.27,305.00 199.89,305.00 200.50,305.00 201.11,305.00 201.73,305.00 202.35,305.00 202.96,305.00 203.57,305.00 204.18,305.00 204.79,305.00 205.40,305.00 206.01,305.00 206.62,305.00 207.23,305.00 207.84,305.00 208.45,305.00 209.07,305.00 209.68,305.00 210.30,305.00 210.92,305.00 211.53,305.00 212.15,305.00 212.76,305.00 213.37,305.00 213.98,305.00 214.60,305.00 215.21,305.00 215.84,305.00 216.45,305.00 217.07,305.00 217.68,305.00 218.29,305.00 218.90,305.00 219.51,305.00 220.12,305.00 220.74,305.00 221.35,305.00 221.96,305.00 222.58,305.00 223.19,305.00 223.81,305.00 224.42,305.00 225.04,305.00 225.66,305.00 226.26,305.00 226.88,305.00 227.49,305.00 228.11,305.00 228.73,305.00 229.34,305.00 229.95,305.00 230.63,305.00 231.25,305.00 231.86,305.00 232.47,305.00 233.09,305.00 233.71,305.00 234.32,305.00 234.94,305.00 235.54,305.00 236.18,305.00 236.80,305.00 237.41,305.00 238.02,305.00 238.63,305.00 239.24,305.00 239.86,305.00 240.49,305.00 241.11,305.00 241.72,305.00 242.34,305.00 243.00,305.00 243.61,305.00 244.38,305.00 245.42,305.00 246.05,305.00 246.67,305.00 247.29,305.00 247.89,305.00 248.49,305.00 249.12,305.00 249.73,305.00 250.35,305.00 250.99,305.00 251.62,305.00 252.27,305.00 252.89,305.00 253.50,305.00 254.11,305.00 254.73,305.00 255.36,305.00 255.97,305.00 256.58,305.00 257.20,305.00 257.83,305.00 258.45,305.00 259.06,305.00 259.67,305.00 260.29,305.00 260.93,305.00 261.55,305.00 262.16,305.00 262.79,305.00 263.38,305.00 263.99,305.00 264.61,305.00 265.22,305.00 265.84,305.00 266.48,305.00 267.09,305.00 267.70,305.00 268.32,305.00 268.94,305.00 269.56,305.00 270.17,305.00 270.78,305.00 271.39,305.00 272.01,305.00 272.62,305.00 273.35,305.00 274.07,305.00 274.79,305.00 275.51,305.00 276.21,305.00 276.91,305.00 277.64,305.00 278.35,305.00 278.97,305.00 279.57,305.00 280.18,305.00 280.80,305.00 281.41,305.00 282.02,305.00 282.63,305.00 283.24,305.00 283.85,305.00 284.46,305.00 285.07,305.00 285.68,305.00 286.29,305.00 286.90,305.00 287.51,305.00 288.12,305.00 288.73,305.00 289.34,305.00 289.96,305.00 290.57,305.00 291.18,305.00 291.79,305.00 292.40,305.00 293.01,305.00 293.62,305.00 294.23,305.00 294.84,305.00 295.46,305.00 296.07,305.00 296.68,305.00 297.29,305.00 297.90,305.00 298.51,305.00 299.12,305.00 299.73,305.00 300.33,305.00 300.94,305.00 301.55,305.00 302.16,305.00 302.77,305.00 303.38,305.00 303.99,305.00 304.59,305.00 305.20,305.00 305.80,305.00 306.43,305.00 307.09,305.00 307.71,305.00 308.32,305.00 308.93,305.00 309.54,305.00 310.15,305.00 310.75,305.00 311.36,305.00 312.09,305.00 312.80,305.00 313.52,305.00 314.23,305.00 314.96,305.00 315.67,305.00 316.40,305.00 317.14,305.00 317.81,305.00 318.47,305.00 319.08,305.00 319.70,305.00 320.31,305.00 320.92,305.00 321.53,305.00 322.14,305.00 322.75,305.00 323.36,305.00 323.97,305.00 324.58,305.00 325.20,305.00 325.81,305.00 326.43,305.00 327.04,305.00 327.65,305.00 328.18,305.00 328.82,305.00 329.43,305.00 330.05,305.00 330.66,305.00 331.27,305.00 331.89,305.00 332.51,305.00 333.12,305.00 333.74,305.00 334.36,305.00 334.98,305.00 335.59,305.00 336.20,305.00 336.81,305.00 337.42,305.00 338.02,305.00 338.63,305.00 339.25,305.00 339.86,305.00 340.47,305.00 341.09,305.00 341.69,305.00 342.31,305.00 342.92,305.00 343.54,305.00 344.15,305.00 344.77,305.00 345.38,305.00 345.99,305.00 346.61,305.00 347.24,305.00 347.85,305.00 348.46,305.00 349.07,305.00 349.67,305.00 350.28,305.00 350.90,305.00 351.51,305.00 352.12,305.00 352.73,305.00 353.34,305.00 353.95,305.00 354.57,305.00 355.18,305.00 355.79,305.00 356.53,305.00 357.16,305.00 357.79,305.00 358.41,305.00 359.02,305.00 359.64,305.00 360.25,305.00 360.86,305.00 361.48,305.00 362.09,305.00 362.70,305.00 363.32,305.00 363.93,305.00 364.54,305.00 365.18,305.00 365.80,305.00 366.41,305.00 367.03,305.00 367.64,305.00 368.25,305.00 368.86,305.00 369.48,305.00 370.11,305.00 370.73,305.00 371.35,305.00 371.96,305.00 372.57,305.00 373.19,305.00 373.80,305.00 374.41,305.00 375.02,305.00 375.64,305.00 376.25,305.00 376.87,305.00 377.48,305.00 378.09,305.00 378.70,305.00 379.33,305.00 379.94,305.00 380.55,305.00 381.16,305.00 381.77,305.00 382.39,305.00 383.01,305.00 383.75,305.00 384.38,305.00 384.99,305.00 385.60,305.00 386.21,305.00 386.83,305.00 387.44,305.00 388.06,305.00 388.68,305.00 389.29,305.00 389.90,305.00 390.51,305.00 391.13,305.00 391.74,305.00 392.35,305.00 392.97,305.00 393.58,305.00 394.18,305.00 394.80,305.00 395.41,305.00 396.03,305.00 396.64,305.00 397.25,305.00 397.87,305.00 398.49,305.00 399.10,305.00 399.71,305.00 400.32,305.00 400.95,305.00 401.56,305.00 402.18,305.00 402.79,305.00 403.41,305.00 404.02,305.00 404.63,305.00 405.25,305.00 405.88,305.00 406.49,305.00 407.10,305.00 407.70,305.00 408.32,305.00 408.93,305.00 409.54,305.00 410.15,305.00 410.77,305.00 411.39,305.00 412.01,305.00 412.61,305.00 413.23,305.00 413.84,305.00 414.45,305.00 415.06,305.00 415.68,305.00 416.29,305.00 416.91,305.00 417.52,305.00 418.13,305.00 418.75,305.00 419.37,305.00 419.99,305.00 420.60,305.00 421.22,305.00 421.91,305.00 422.58,305.00 423.24,305.00 423.86,305.00 424.50,305.00 425.11,305.00 425.73,305.00 426.33,305.00 426.91,305.00 427.55,305.00 428.16,305.00 428.78,305.00 429.39,305.00 430.00,305.00 430.61,305.00 431.23,305.00 431.84,305.00 432.45,305.00 433.07,305.00 433.68,305.00 434.30,305.00 434.91,305.00 435.53,305.00 436.15,305.00 436.77,305.00 437.38,305.00 437.99,305.00 438.62,305.00 439.24,305.00 439.84,305.00 440.46,305.00 441.07,305.00 441.68,305.00 442.29,305.00 442.91,305.00 443.52,305.00 444.15,305.00 444.75,305.00 445.36,305.00 445.98,305.00 446.59,305.00 447.21,305.00 447.83,305.00 448.44,305.00 449.05,305.00 449.67,305.00 450.29,305.00 450.90,305.00 451.52,305.00 452.14,305.00 452.75,305.00 453.37,305.00 453.98,305.00 454.60,305.00 455.23,305.00 455.85,305.00 456.46,305.00 457.08,305.00 457.69,305.00 458.30,305.00 458.92,305.00 459.54,305.00 460.15,305.00 460.77,305.00 461.38,305.00 462.00,305.00 462.61,305.00 463.23,305.00 463.85,305.00 464.47,305.00 465.09,305.00 465.70,305.00 466.33,305.00 466.94,305.00 467.55,305.00 468.17,305.00 468.78,305.00 469.41,305.00 470.03,305.00 470.65,305.00 471.26,305.00 471.87,305.00 472.49,305.00 473.10,305.00 473.72,305.00 474.33,305.00 474.95,305.00 475.56,305.00 476.17,305.00 476.79,305.00 477.41,305.00 478.03,305.00 478.64,305.00 479.26,305.00 479.88,305.00 480.49,305.00 481.11,305.00 481.72,305.00 482.33,305.00 482.94,305.00 483.56,305.00 484.17,305.00 484.79,305.00 485.41,305.00 486.03,305.00 486.64,305.00 487.26,305.00 487.88,305.00 488.49,305.00 489.11,305.00 489.73,305.00 490.34,305.00 490.96,305.00 491.58,305.00 492.20,305.00 492.82,305.00 493.43,305.00 494.06,305.00 494.68,305.00 495.30,305.00 495.91,305.00 496.52,305.00 497.14,305.00 497.76,305.00 498.38,305.00 499.00,305.00 499.62,305.00 500.23,305.00 500.84,305.00 501.47,305.00 502.08,305.00 502.70,305.00 503.32,305.00 503.93,305.00 504.54,305.00 505.15,305.00 505.76,305.00 506.38,305.00 507.00,305.00 507.61,305.00 508.23,305.00 508.84,305.00 509.46,305.00 510.09,305.00 510.71,305.00 511.32,305.00 511.94,305.00 512.55,305.00 513.16,305.00 513.78,305.00 514.40,305.00 515.01,305.00 515.63,305.00 516.24,305.00 516.86,305.00 517.47,305.00 518.09,305.00 518.71,305.00 519.34,305.00 519.97,305.00 520.58,305.00 521.20,305.00 521.82,305.00 522.44,305.00 523.05,305.00 523.66,305.00 524.27,305.00 524.90,305.00 525.51,305.00 526.13,305.00 526.75,305.00 527.37,305.00 528.01,305.00 528.63,305.00 529.24,305.00 529.86,305.00 530.47,305.00 531.09,305.00 531.71,305.00 532.33,305.00 532.95,305.00 533.57,305.00 534.19,305.00 534.81,305.00 535.43,305.00 536.04,305.00 536.66,305.00 537.27,305.00 537.89,305.00 538.51,305.00 539.13,305.00 539.74,305.00 540.36,305.00 540.98,305.00 541.60,305.00 542.21,305.00 542.83,305.00 543.45,305.00 544.09,305.00 544.70,305.00 545.33,305.00 545.94,305.00 546.57,305.00 547.20,305.00 547.83,305.00 548.46,305.00 549.09,305.00 549.71,305.00 550.33,305.00 550.94,305.00 551.56,305.00 552.18,305.00 552.80,305.00 553.43,305.00 554.04,305.00 554.66,305.00 555.28,305.00 555.89,305.00 556.51,305.00 557.13,305.00 557.74,305.00 558.35,305.00 558.97,305.00 559.58,305.00 560.20,305.00 560.80,305.00 561.42,305.00 562.04,305.00 562.66,305.00 563.27,305.00 563.89,305.00 564.51,305.00 565.13,305.00 565.74,305.00 566.36,305.00 566.98,305.00 567.59,305.00 568.20,305.00 568.82,305.00 569.44,305.00 570.05,305.00 570.66,305.00 571.27,305.00 571.89,305.00 572.51,305.00 573.12,305.00 573.74,305.00 574.35,305.00 574.97,305.00 575.58,305.00 576.20,305.00 576.82,305.00 577.42,305.00 578.03,305.00 578.63,305.00 579.25,305.00 579.87,305.00 580.50,305.00 581.11,305.00 581.72,305.00 582.34,305.00 582.97,305.00 583.59,305.00 584.20,305.00 584.82,305.00 585.44,305.00 586.05,305.00 586.67,305.00 587.29,305.00 587.91,305.00 588.53,305.00 589.15,305.00 589.76,305.00 590.37,305.00 590.99,305.00 591.60,305.00 592.22,305.00 592.82,305.00 593.44,305.00 594.06,305.00 594.68,305.00 595.29,305.00 595.90,305.00 596.52,305.00 597.13,305.00 597.75,305.00 598.37,305.00 598.98,305.00 599.60,305.00 600.21,305.00 600.84,305.00 601.45,305.00 602.06,305.00 602.68,305.00 603.29,305.00 603.91,305.00 604.53,305.00 605.15,305.00 605.76,305.00 606.37,305.00 606.99,305.00 607.62,305.00 608.24,305.00 608.87,305.00 609.49,305.00 610.11,305.00 610.72,305.00 611.34,305.00 611.96,305.00 612.58,305.00 613.19,305.00 613.81,305.00 614.44,305.00 615.06,305.00 615.67,305.00 616.29,305.00 616.91,305.00 617.53,305.00 618.14,305.00 618.75,305.00 619.37,305.00 619.99,305.00 620.60,305.00 621.22,305.00 621.83,305.00 622.45,305.00 623.06,305.00 623.67,305.00 624.29,305.00 624.90,305.00 625.51,305.00 626.14,305.00 626.75,305.00 627.37,305.00 627.98,305.00 628.60,305.00 629.21,305.00 629.83,305.00 630.44,305.00 631.07,305.00 631.68,305.00 632.29,305.00 632.91,305.00 633.53,305.00 634.14,305.00 634.75,305.00 635.38,305.00 636.01,305.00 636.63,305.00 637.26,305.00 637.89,305.00 638.52,305.00 639.15,305.00 639.78,305.00 640.42,305.00 641.04,305.00 641.68,305.00 642.29,305.00 642.90,305.00 643.52,305.00 644.15,305.00 644.76,305.00 645.38,305.00 646.00,305.00 646.62,305.00 647.23,305.00 647.85,305.00 648.46,305.00 649.08,305.00 649.69,305.00 650.30,305.00 650.92,305.00 651.54,305.00 652.16,305.00 652.77,305.00 653.40,305.00 654.01,305.00 654.63,305.00 655.24,305.00 655.86,305.00 656.48,305.00 657.09,305.00 657.71,305.00 658.32,305.00 658.94,305.00 659.56,305.00 660.17,305.00 660.79,305.00 661.41,305.00 662.02,305.00 662.64,305.00 663.30,305.00 663.93,305.00 664.55,305.00 665.16,305.00 665.77,305.00 666.40,305.00 667.02,305.00 667.64,305.00 668.26,305.00 668.87,305.00 669.47,305.00 670.09,305.00 670.71,305.00 671.32,305.00 671.94,305.00 672.55,305.00 673.18,305.00 673.80,305.00 674.42,305.00 675.03,305.00 675.64,305.00 676.26,305.00 676.87,305.00 677.49,305.00 678.10,305.00 678.72,305.00 679.34,305.00 679.96,305.00 680.58,305.00 681.22,305.00 681.84,305.00 682.45,305.00 683.06,305.00 683.68,305.00 684.30,305.00 684.92,305.00 685.54,305.00 686.15,305.00 686.77,305.00 687.39,305.00 688.01,305.00 688.63,305.00 689.25,305.00 689.87,305.00 690.48,305.00 691.10,305.00 691.71,305.00 692.33,305.00 692.94,305.00 693.57,305.00 694.19,305.00 694.80,305.00 695.42,305.00 696.03,305.00 696.65,305.00 697.26,305.00 697.88,305.00 698.49,305.00 699.11,305.00 699.73,305.00 700.34,305.00 700.96,305.00 701.57,305.00 702.19,305.00 702.81,305.00 703.43,305.00 704.04,305.00 704.65,305.00 705.26,305.00 705.88,305.00 706.50,305.00 707.11,305.00 707.74,305.00 708.36,305.00 708.98,305.00 709.60,305.00 710.21,305.00 710.84,305.00 711.50,305.00 712.13,305.00 712.75,305.00 713.37,305.00 714.00,305.00 714.61,305.00 715.23,305.00 715.84,305.00 716.46,305.00 717.08,305.00 717.70,305.00 718.31,305.00 718.93,305.00 719.56,305.00 720.18,305.00 720.80,305.00 721.41,305.00 722.03,305.00 722.65,305.00 723.27,305.00 723.88,305.00 724.50,305.00 725.12,305.00 725.74,305.00 726.35,305.00 726.97,305.00 727.59,305.00 728.21,305.00 728.84,305.00 729.45,305.00 730.07,305.00 730.68,305.00 731.30,305.00 731.93,305.00 732.54,305.00 733.15,305.00 733.77,305.00 734.38,305.00 735.00,305.00 735.62,305.00 736.23,305.00 736.85,305.00 737.47,305.00 738.09,305.00 738.70,305.00 739.32,305.00 739.93,305.00 740.56,305.00 741.18,305.00 741.78,305.00 742.38,305.00 743.00,305.00 743.62,305.00 744.23,305.00 744.85,305.00 745.48,305.00 746.09,305.00 746.72,305.00 747.34,305.00 747.95,305.00 748.57,305.00 749.18,305.00 749.80,305.00 750.40,305.00 751.02,305.00 751.63,305.00 752.25,305.00 752.87,305.00 753.48,305.00 754.09,305.00 754.71,305.00 755.33,305.00 755.94,305.00 756.55,305.00 757.17,305.00 757.76,305.00 758.40,305.00 759.01,305.00 759.63,305.00 760.25,305.00 760.87,305.00 761.48,305.00 762.10,305.00 762.72,305.00 763.33,305.00 763.95,305.00 764.56,305.00 765.23,305.00 765.84,305.00 766.47,305.00 767.08,305.00 767.71,305.00 768.32,305.00 768.93,305.00 769.55,305.00 770.17,305.00 770.78,305.00 771.40,305.00 772.01,305.00 772.63,305.00 773.26,305.00 773.87,305.00 774.49,305.00 775.10,305.00 775.72,305.00 776.34,305.00 776.96,305.00 777.58,305.00 778.20,305.00 778.83,305.00 779.45,305.00 780.06,305.00 780.68,305.00 781.30,305.00 781.93,305.00 782.54,305.00 783.15,305.00 783.77,305.00 784.39,305.00 785.00,305.00 785.62,305.00 786.24,305.00 786.86,305.00 787.47,305.00 788.09,305.00 788.70,305.00 789.32,305.00 789.93,305.00 790.55,305.00 791.16,305.00 791.78,305.00 792.40,305.00 793.01,305.00 793.62,305.00 794.23,305.00 794.85,305.00 795.46,305.00 796.07,305.00 796.69,305.00 797.30,305.00 797.91,305.00 798.53,305.00 799.14,305.00 799.76,305.00 800.37,305.00 800.98,305.00 801.59,305.00 802.21,305.00 802.83,305.00 803.44,305.00 804.06,305.00 804.68,305.00 805.32,305.00 805.93,305.00 806.55,305.00 807.17,305.00 807.79,305.00 808.41,305.00 809.02,305.00 809.64,305.00 810.26,305.00 810.87,305.00 811.48,305.00 812.10,305.00 812.72,305.00 813.33,305.00 813.95,305.00 814.56,305.00 815.17,305.00 815.79,305.00 816.40,305.00 817.02,305.00 817.64,305.00 818.29,305.00 818.90,305.00 819.51,305.00 820.12,305.00 820.73,305.00 821.36,305.00 821.97,305.00 822.59,305.00 823.20,305.00 823.82,305.00 824.44,305.00 825.05,305.00 825.67,305.00 826.29,305.00 826.90,305.00 827.52,305.00 828.14,305.00 828.75,305.00 829.37,305.00 829.98,305.00 830.59,305.00 831.21,305.00 831.82,305.00 832.43,305.00 833.05,305.00 833.67,305.00 834.28,305.00 834.90,305.00 835.51,305.00 836.13,305.00 836.74,305.00 837.36,305.00 837.97,305.00 838.60,305.00 839.21,305.00 839.82,305.00 840.44,305.00 841.05,305.00 841.66,305.00 842.28,305.00 842.90,305.00 843.51,305.00 844.14,305.00 844.75,305.00 845.37,305.00 845.98,305.00 846.60,305.00 847.22,305.00 847.85,305.00 848.47,305.00 849.12,305.00 849.74,305.00 850.40,305.00 851.02,305.00 851.63,305.00 852.24,305.00 852.86,305.00 853.47,305.00 854.09,305.00 854.70,305.00 855.32,305.00 855.93,305.00 856.55,305.00 857.17,305.00 857.78,305.00 858.39,305.00 859.01,305.00 859.62,305.00 860.23,305.00 860.85,305.00 861.47,305.00 862.08,305.00 862.70,305.00 863.32,305.00 863.92,305.00 864.54,305.00 865.16,305.00 865.78,305.00 866.40,305.00 867.01,305.00 867.63,305.00 868.24,305.00 868.85,305.00 869.47,305.00 870.08,305.00 870.69,305.00 871.31,305.00 871.92,305.00 872.53,305.00 873.14,305.00 873.76,305.00 874.37,305.00 874.99,305.00 875.61,305.00 876.25,305.00 876.87,305.00 877.48,305.00 878.09,305.00 878.70,305.00 879.31,305.00 879.92,305.00 880.54,305.00 881.16,305.00 881.77,305.00 882.38,305.00 882.99,305.00 883.60,305.00 884.21,305.00 884.83,305.00 885.44,305.00 886.06,305.00 886.68,305.00 887.29,305.00 887.90,305.00 888.52,305.00 889.14,305.00 889.75,305.00 890.37,305.00 890.98,305.00 891.59,305.00 892.22,305.00 892.83,305.00 893.46,305.00 894.07,305.00 894.68,305.00 895.30,305.00 895.91,305.00 896.53,305.00 897.16,305.00 897.78,305.00 898.40,305.00 899.02,305.00 899.63,305.00 900.25,305.00 900.86,305.00 901.48,305.00 902.10,305.00 902.71,305.00 903.32,305.00 903.94,305.00 904.56,305.00 905.18,305.00 905.80,305.00 906.42,305.00 907.06,305.00 907.71,305.00 908.33,305.00 908.95,305.00 909.56,305.00 910.17,305.00 910.79,305.00 911.40,305.00 912.02,305.00 912.64,305.00 913.26,305.00 913.88,305.00 914.49,305.00 915.10,305.00 915.71,305.00 916.33,305.00 916.95,305.00 917.58,305.00 918.21,305.00 918.83,305.00 919.45,305.00 920.10,305.00 920.72,305.00 921.37,305.00 921.99,305.00 922.60,305.00 923.22,305.00 923.84,305.00 924.45,305.00 925.07,305.00 925.68,305.00 926.30,305.00 926.91,305.00 927.53,305.00 928.16,305.00 928.77,305.00 929.39,305.00 930.02,305.00 930.74,305.00 931.35,305.00 931.96,305.00 932.58,305.00 933.19,305.00 933.80,305.00 934.41,305.00 934.98,305.00 935.53,305.00 937.33,305.00 938.50,305.00 939.11,305.00 939.73,305.00 940.34,305.00 940.96,305.00 941.57,305.00 942.18,305.00 942.79,305.00 943.40,305.00 944.02,305.00 944.64,305.00 945.25,305.00 945.86,305.00 946.48,305.00 947.09,305.00 947.70,305.00 948.31,305.00 948.92,305.00 949.53,305.00 950.14,305.00 950.76,305.00 951.37,305.00 951.99,305.00 952.61,305.00 953.22,305.00 953.82,305.00 954.44,305.00 955.05,305.00 955.66,305.00 956.27,305.00 956.88,305.00 957.49,305.00 958.11,305.00 958.72,305.00 959.33,305.00 959.95,305.00 960.56,305.00 961.18,305.00 961.79,305.00 962.40,305.00 963.01,305.00 963.63,305.00 964.24,305.00 964.86,305.00 965.47,305.00 966.07,305.00 966.68,305.00 967.29,305.00 967.91,305.00 968.52,305.00 969.12,305.00 969.75,305.00 970.37,305.00 970.98,305.00 971.59,305.00 972.21,305.00 972.83,305.00 973.44,305.00 974.06,305.00 974.67,305.00 975.29,305.00 975.90,305.00 976.51,305.00 977.12,305.00 977.73,305.00 978.35,305.00 978.96,305.00 979.58,305.00 980.19,305.00 980.80,305.00 981.42,305.00 982.03,305.00 982.64,305.00 983.26,305.00 983.87,305.00 984.48,305.00 985.10,305.00 985.71,305.00 986.38,305.00 987.00,305.00 987.61,305.00 988.22,305.00 988.84,305.00 989.45,305.00 990.06,305.00 990.68,305.00 991.54,305.00 992.15,305.00 993.01,305.00 993.62,305.00 994.23,305.00 994.85,305.00 995.47,305.00 996.08,305.00 996.69,305.00 997.30,305.00 997.91,305.00 998.52,305.00 999.13,305.00 999.74,305.00 1000.35,305.00 1000.98,305.00 1001.59,305.00 1002.21,305.00 1002.82,305.00 1003.44,305.00 1004.05,305.00 1004.67,305.00 1005.29,305.00 1005.90,305.00 1006.51,305.00 1007.12,305.00 1007.74,305.00 1008.35,305.00 1008.97,305.00 1009.59,305.00 1010.20,305.00 1010.81,305.00 1011.43,305.00 1012.06,305.00 1012.70,305.00 1013.32,305.00 1013.95,305.00 1014.57,305.00 1015.18,305.00 1015.80,305.00 1016.42,305.00 1017.03,305.00 1017.65,305.00 1018.26,305.00 1018.87,305.00 1019.50,305.00 1020.11,305.00 1020.73,305.00 1021.35,305.00 1021.97,305.00 1022.58,305.00 1023.20,305.00 1023.81,305.00 1024.43,305.00 1025.05,305.00 1025.67,305.00 1026.29,305.00 1026.90,305.00 1027.53,305.00 1028.14,305.00 1028.76,305.00 1029.37,305.00 1029.99,305.00 1030.60,305.00 1031.23,305.00 1031.85,305.00 1032.47,305.00 1033.08,305.00 1033.70,305.00 1034.32,305.00 1034.93,305.00 1035.55,305.00 1036.16,305.00 1036.78,305.00 1037.39,305.00 1038.00,305.00 1038.61,305.00 1039.23,305.00 1039.86,305.00 1040.49,305.00 1041.11,305.00 1041.72,305.00 1042.33,305.00 1042.95,305.00 1043.56,305.00 1044.18,305.00 1044.79,305.00 1045.40,305.00 1046.02,305.00 1046.64,305.00 1047.26,305.00 1047.88,305.00 1048.49,305.00 1049.11,305.00 1049.72,305.00 1050.34,305.00 1050.95,305.00 1051.58,305.00 1052.19,305.00 1052.81,305.00 1053.43,305.00 1054.05,305.00 1054.66,305.00 1055.28,305.00 1055.90,305.00 1056.52,305.00 1057.14,305.00 1057.76,305.00 1058.38,305.00 1058.99,305.00 1059.60,305.00 1060.21,305.00 1060.84,305.00 1061.46,305.00 1062.08,305.00 1062.71,305.00 1063.33,305.00 1063.94,305.00 1064.56,305.00 1065.18,305.00 1065.79,305.00 1066.42,305.00 1067.03,305.00 1067.66,305.00 1068.27,305.00 1068.88,305.00 1069.50,305.00 1070.12,305.00 1070.74,305.00 1071.35,305.00 1071.97,305.00 1072.59,305.00 1073.22,305.00 1073.84,305.00 1074.45,305.00 1075.08,305.00 1075.69,305.00 1076.31,305.00 1076.92,305.00 1077.54,305.00 1078.18,305.00 1078.80,305.00 1079.41,305.00 1080.04,305.00 1080.65,305.00 1081.27,305.00 1081.90,305.00 1082.52,305.00 1083.15,305.00 1083.77,305.00 1084.39,305.00 1085.01,305.00 1085.67,305.00 1086.27,305.00 1086.90,305.00 1087.52,305.00 1088.13,305.00 1088.75,305.00 1089.36,305.00 1089.98,305.00 1090.61,305.00 1091.22,305.00 1091.86,305.00 1092.47,305.00 1093.09,305.00 1093.71,305.00 1094.33,305.00 1094.94,305.00 1095.58,305.00 1096.19,305.00 1096.80,305.00 1097.43,305.00 1098.04,305.00 1098.65,305.00 1099.29,305.00 1099.90,305.00 1100.51,305.00 1101.12,305.00 1101.73,305.00 1102.35,305.00 1102.97,305.00 1103.58,305.00 1104.22,305.00 1104.83,305.00 1105.44,305.00 1106.06,305.00 1106.67,305.00 1107.28,305.00 1107.90,305.00 1108.52,305.00 1109.14,305.00 1109.75,305.00 1110.37,305.00 1110.98,305.00 1111.60,305.00 1112.21,305.00 1112.85,305.00 1113.46,305.00 1114.09,305.00 1114.70,305.00 1115.31,305.00 1115.92,305.00 1116.53,305.00 1117.15,305.00 1117.77,305.00 1118.42,305.00 1119.03,305.00 1119.65,305.00 1120.26,305.00 1120.87,305.00 1121.49,305.00 1122.09,305.00 1122.71,305.00 1123.33,305.00 1123.94,305.00 1124.55,305.00 1125.16,305.00 1125.77,305.00 1126.40,305.00 1127.01,305.00 1127.62,305.00 1128.23,305.00 1128.85,305.00 1129.47,305.00 1130.09,305.00 1130.71,305.00 1131.33,305.00 1131.94,305.00 1132.55,305.00 1133.17,305.00 1133.80,305.00 1134.41,305.00 1135.02,305.00 1135.63,305.00 1136.24,305.00 1136.86,305.00 1137.48,305.00 1138.09,305.00 1138.70,305.00 1139.31,305.00 1139.93,305.00 1140.54,305.00 1141.15,305.00 1141.76,305.00 1142.37,305.00 1142.98,305.00 1143.60,305.00 1144.22,305.00 1144.83,305.00 1145.45,305.00 1146.07,305.00 1146.69,305.00 1147.30,305.00 1147.91,305.00 1148.52,305.00 1149.14,305.00 1149.76,305.00 1150.37,305.00 1150.99,305.00 1151.61,305.00 1152.22,305.00 1152.84,305.00 1153.46,305.00 1154.08,305.00 1154.70,305.00 1155.32,305.00 1155.94,305.00 1156.56,305.00 1157.17,305.00 1157.78,305.00 1158.39,305.00 1159.00,305.00 1159.62,305.00 1160.23,305.00 1160.84,305.00 1161.46,305.00 1162.10,305.00 1162.71,305.00 1163.33,305.00 1163.95,305.00 1164.56,305.00 1165.19,305.00 1165.82,305.00 1166.47,305.00 1167.07,305.00 1167.68,305.00 1168.29,305.00 1168.90,305.00 1169.51,305.00 1170.13,305.00 1170.75,305.00 1171.37,305.00 1171.98,305.00 1172.59,305.00 1173.22,305.00 1173.83,305.00 1174.44,305.00 1175.06,305.00 1175.68,305.00 1176.32,305.00 1176.94,305.00 1177.55,305.00 1178.16,305.00 1178.78,305.00 1179.39,305.00 1180.00,305.00"/>
<polyline fill="none" stroke="#9467bd" stroke-opacity="0.65" stroke-width="2" points="328.18,305.00 328.82,305.00 329.43,305.00 330.05,305.00 330.66,305.00 331.27,305.00 331.89,305.00 332.51,305.00 333.12,305.00 333.74,305.00 334.36,305.00 334.98,305.00 335.59,305.00 336.20,305.00 336.81,305.00 337.42,305.00 338.02,305.00 338.63,305.00 339.25,305.00 339.86,305.00 340.47,305.00 341.09,305.00 341.69,305.00 342.31,305.00 342.92,305.00 343.54,305.00 344.15,305.00 344.77,305.00 345.38,305.00 345.99,305.00 346.61,305.00 347.24,305.00 347.85,305.00 348.46,305.00 349.07,305.00 349.67,305.00 350.28,305.00 350.90,305.00 351.51,305.00 352.12,305.00 352.73,305.00 353.34,305.00 353.95,305.00 354.57,305.00 355.18,305.00 355.79,305.00 356.53,305.00 357.16,305.00 357.79,305.00 358.41,305.00 359.02,305.00 359.64,305.00 360.25,305.00 360.86,305.00 361.48,305.00 362.09,305.00 362.70,305.00 363.32,305.00 363.93,305.00 364.54,305.00 365.18,305.00 365.80,305.00 366.41,305.00 367.03,305.00 367.64,305.00 368.25,305.00 368.86,305.00 369.48,305.00 370.11,305.00 370.73,305.00 371.35,305.00 371.96,305.00 372.57,305.00 373.19,305.00 373.80,305.00 374.41,305.00 375.02,305.00 375.64,305.00 376.25,305.00 376.87,305.00 377.48,305.00 378.09,305.00 378.70,305.00 379.33,305.00 379.94,305.00 380.55,305.00 381.16,305.00 381.77,305.00 382.39,305.00 383.01,305.00 383.75,305.00 384.38,305.00 384.99,305.00 385.60,305.00 386.21,305.00 386.83,305.00 387.44,305.00 388.06,305.00 388.68,305.00 389.29,305.00 389.90,305.00 390.51,305.00 391.13,305.00 391.74,305.00 392.35,305.00 392.97,305.00 393.58,305.00 394.18,305.00 394.80,305.00 395.41,305.00 396.03,305.00 396.64,305.00 397.25,305.00 397.87,305.00 398.49,305.00 399.10,305.00 399.71,305.00 400.32,305.00 400.95,305.00 401.56,305.00 402.18,305.00 402.79,305.00 403.41,305.00 404.02,305.00 404.63,305.00 405.25,305.00 405.88,305.00 406.49,305.00 407.10,305.00 407.70,305.00 408.32,305.00 408.93,305.00 409.54,305.00 410.15,305.00 410.77,305.00 411.39,305.00 412.01,305.00 412.61,305.00 413.23,305.00 413.84,305.00 414.45,305.00 415.06,305.00 415.68,305.00 416.29,305.00 416.91,305.00 417.52,305.00 418.13,305.00 418.75,305.00 419.37,305.00 419.99,305.00 420.60,305.00 421.22,305.00 421.91,305.00 422.58,305.00 423.24,305.00 423.86,305.00 424.50,305.00 425.11,305.00 425.73,305.00 426.33,305.00 426.91,305.00 427.55,305.00 428.16,305.00 428.78,305.00 429.39,305.00 430.00,305.00 430.61,305.00 431.23,305.00 431.84,305.00 432.45,305.00 433.07,305.00 433.68,305.00 434.30,305.00 434.91,305.00 435.53,305.00 436.15,305.00 436.77,305.00 437.38,305.00 437.99,305.00 438.62,305.00 439.24,305.00 439.84,305.00 440.46,305.00 441.07,305.00 441.68,305.00 442.29,305.00 442.91,305.00 443.52,305.00 444.15,305.00 444.75,305.00 445.36,305.00 445.98,305.00 446.59,305.00 447.21,305.00 447.83,305.00 448.44,305.00 449.05,305.00 449.67,305.00 450.29,305.00 450.90,305.00 451.52,305.00 452.14,305.00 452.75,305.00 453.37,305.00 453.98,305.00 454.60,305.00 455.23,305.00 455.85,305.00 456.46,305.00 457.08,305.00 457.69,305.00 458.30,305.00 458.92,305.00 459.54,305.00 460.15,305.00 460.77,305.00 461.38,305.00 462.00,305.00 462.61,305.00 463.23,305.00 463.85,305.00 464.47,305.00 465.09,305.00 465.70,305.00 466.33,305.00 466.94,305.00 467.55,305.00 468.17,305.00 468.78,305.00 469.41,305.00 470.03,305.00 470.65,305.00 471.26,305.00 471.87,305.00 472.49,305.00 473.10,305.00 473.72,305.00 474.33,305.00 474.95,305.00 475.56,305.00 476.17,305.00 476.79,305.00 477.41,305.00 478.03,305.00 478.64,305.00 479.26,305.00 479.88,305.00 480.49,305.00 481.11,305.00 481.72,305.00 482.33,305.00 482.94,305.00 483.56,305.00 484.17,305.00 484.79,305.00 485.41,305.00 486.03,305.00 486.64,305.00 487.26,305.00 487.88,305.00 488.49,305.00 489.11,305.00 489.73,305.00 490.34,305.00 490.96,305.00 491.58,305.00 492.20,305.00 492.82,305.00 493.43,305.00 494.06,305.00 494.68,305.00 495.30,305.00 495.91,305.00 496.52,305.00 497.14,305.00 497.76,305.00 498.38,305.00 499.00,305.00 499.62,305.00 500.23,305.00 500.84,305.00 501.47,305.00 502.08,305.00 502.70,305.00 503.32,305.00 503.93,305.00 504.54,305.00 505.15,305.00 505.76,305.00 506.38,305.00 507.00,305.00 507.61,305.00 508.23,305.00 508.84,305.00 509.46,305.00 510.09,305.00 510.71,305.00 511.32,305.00 511.94,305.00 512.55,305.00 513.16,305.00 513.78,305.00 514.40,305.00 515.01,305.00 515.63,305.00 516.24,305.00 516.86,305.00 517.47,305.00 518.09,305.00 518.71,305.00 519.34,305.00 519.97,305.00 520.58,305.00 521.20,305.00 521.82,305.00 522.44,305.00 523.05,305.00 523.66,305.00 524.27,305.00 524.90,305.00 525.51,305.00 526.13,305.00 526.75,305.00 527.37,305.00 528.01,305.00 528.63,305.00 529.24,305.00 529.86,305.00 530.47,305.00 531.09,305.00 531.71,305.00 532.33,305.00 532.95,305.00 533.57,305.00 534.19,305.00 534.81,305.00 535.43,305.00 536.04,305.00 536.66,305.00 537.27,305.00 537.89,305.00 538.51,305.00 539.13,305.00 539.74,305.00 540.36,305.00 540.98,305.00 541.60,305.00 542.21,305.00 542.83,305.00 543.45,305.00 544.09,305.00 544.70,305.00 545.33,305.00 545.94,305.00 546.57,305.00 547.20,305.00 547.83,305.00 548.46,305.00 549.09,305.00 549.71,305.00 550.33,305.00 550.94,305.00 551.56,305.00 552.18,305.00 552.80,305.00 553.43,305.00 554.04,305.00 554.66,305.00 555.28,305.00 555.89,305.00 556.51,305.00 557.13,305.00 557.74,305.00 558.35,305.00 558.97,305.00 559.58,305.00 560.20,305.00 560.80,305.00 561.42,305.00 562.04,305.00 562.66,305.00 563.27,305.00 563.89,305.00 564.51,305.00 565.13,305.00 565.74,305.00 566.36,305.00 566.98,305.00 567.59,305.00 568.20,305.00 568.82,305.00 569.44,305.00 570.05,305.00 570.66,305.00 571.27,305.00 571.89,305.00 572.51,305.00 573.12,305.00 573.74,305.00 574.35,305.00 574.97,305.00 575.58,305.00 576.20,305.00 576.82,305.00 577.42,305.00 578.03,305.00 578.63,305.00 579.25,305.00 579.87,305.00 580.50,305.00 581.11,305.00 581.72,305.00 582.34,305.00 582.97,305.00 583.59,305.00 584.20,305.00 584.82,305.00 585.44,305.00 586.05,305.00 586.67,305.00 587.29,305.00 587.91,305.00 588.53,305.00 589.15,305.00 589.76,305.00 590.37,305.00 590.99,305.00 591.60,305.00 592.22,305.00 592.82,305.00 593.44,305.00 594.06,305.00 594.68,305.00 595.29,305.00 595.90,305.00 596.52,305.00 597.13,305.00 597.75,305.00 598.37,305.00 598.98,305.00 599.60,305.00 600.21,305.00 600.84,305.00 601.45,305.00 602.06,305.00 602.68,305.00 603.29,305.00 603.91,305.00 604.53,305.00 605.15,305.00 605.76,305.00 606.37,305.00 606.99,305.00 607.62,305.00 608.24,305.00 608.87,305.00 609.49,305.00 610.11,305.00 610.72,305.00 611.34,305.00 611.96,305.00 612.58,305.00 613.19,305.00 613.81,305.00 614.44,305.00 615.06,305.00 615.67,305.00 616.29,305.00 616.91,305.00 617.53,305.00 618.14,305.00 618.75,305.00 619.37,305.00 619.99,305.00 620.60,305.00 621.22,305.00 621.83,305.00 622.45,305.00 623.06,305.00 623.67,305.00 624.29,305.00 624.90,305.00 625.51,305.00 626.14,305.00 626.75,305.00 627.37,305.00 627.98,305.00 628.60,305.00 629.21,305.00 629.83,305.00 630.44,305.00 631.07,305.00 631.68,305.00 632.29,305.00 632.91,305.00 633.53,305.00 634.14,305.00 634.75,305.00 635.38,305.00 636.01,305.00 636.63,305.00 637.26,305.00 637.89,305.00 638.52,305.00 639.15,305.00 639.78,305.00 640.42,305.00 641.04,305.00 641.68,305.00 642.29,305.00 642.90,305.00 643.52,305.00 644.15,305.00 644.76,305.00 645.38,305.00 646.00,305.00 646.62,305.00 647.23,305.00 647.85,305.00 648.46,305.00 649.08,305.00 649.69,305.00 650.30,305.00 650.92,305.00 651.54,305.00 652.16,305.00 652.77,305.00 653.40,305.00 654.01,305.00 654.63,305.00 655.24,305.00 655.86,305.00 656.48,305.00 657.09,305.00 657.71,305.00 658.32,305.00 658.94,305.00 659.56,305.00 660.17,305.00 660.79,305.00 661.41,305.00 662.02,305.00 662.64,305.00 663.30,305.00 663.93,305.00 664.55,305.00 665.16,305.00 665.77,305.00 666.40,305.00 667.02,305.00 667.64,305.00 668.26,305.00 668.87,305.00 669.47,305.00 670.09,305.00 670.71,305.00 671.32,305.00 671.94,305.00 672.55,305.00 673.18,305.00 673.80,305.00 674.42,305.00 675.03,305.00 675.64,305.00 676.26,305.00 676.87,305.00 677.49,305.00 678.10,305.00 678.72,305.00 679.34,305.00 679.96,305.00 680.58,305.00 681.22,305.00 681.84,305.00 682.45,305.00 683.06,305.00 683.68,305.00 684.30,305.00 684.92,305.00 685.54,305.00 686.15,305.00 686.77,305.00 687.39,305.00 688.01,305.00 688.63,305.00 689.25,305.00 689.87,305.00 690.48,305.00 691.10,305.00 691.71,305.00 692.33,305.00 692.94,305.00 693.57,305.00 694.19,305.00 694.80,305.00 695.42,305.00 696.03,305.00 696.65,305.00 697.26,305.00 697.88,305.00 698.49,305.00 699.11,305.00 699.73,305.00 700.34,305.00 700.96,305.00 701.57,305.00 702.19,305.00 702.81,305.00 703.43,305.00 704.04,305.00 704.65,305.00 705.26,305.00 705.88,305.00 706.50,305.00 707.11,305.00 707.74,305.00 708.36,305.00 708.98,305.00 709.60,305.00 710.21,305.00 710.84,305.00 711.50,305.00 712.13,305.00 712.75,305.00 713.37,305.00 714.00,305.00 714.61,305.00 715.23,305.00 715.84,305.00 716.46,305.00 717.08,305.00 717.70,305.00 718.31,305.00 718.93,305.00 719.56,305.00 720.18,305.00 720.80,305.00 721.41,305.00 722.03,305.00 722.65,305.00 723.27,305.00 723.88,305.00 724.50,305.00 725.12,305.00 725.74,305.00 726.35,305.00 726.97,305.00 727.59,305.00 728.21,305.00 728.84,305.00 729.45,305.00 730.07,305.00 730.68,305.00 731.30,305.00 731.93,305.00 732.54,305.00 733.15,305.00 733.77,305.00 734.38,305.00 735.00,305.00 735.62,305.00 736.23,305.00 736.85,305.00 737.47,305.00 738.09,305.00 738.70,305.00 739.32,305.00 739.93,305.00 740.56,305.00 741.18,305.00 741.78,305.00 742.38,305.00 743.00,305.00 743.62,305.00 744.23,305.00 744.85,305.00 745.48,305.00 746.09,305.00 746.72,305.00 747.34,305.00 747.95,305.00 748.57,305.00 749.18,305.00 749.80,305.00 750.40,305.00 751.02,305.00 751.63,305.00 752.25,305.00 752.87,305.00 753.48,305.00 754.09,305.00 754.71,305.00 755.33,305.00 755.94,305.00 756.55,305.00 757.17,305.00 757.76,305.00 758.40,305.00 759.01,305.00 759.63,305.00 760.25,305.00 760.87,305.00 761.48,305.00 762.10,305.00 762.72,305.00 763.33,305.00 763.95,305.00 764.56,305.00 765.23,305.00 765.84,305.00 766.47,305.00 767.08,305.00 767.71,305.00 768.32,305.00 768.93,305.00 769.55,305.00 770.17,305.00 770.78,305.00 771.40,305.00 772.01,305.00 772.63,305.00 773.26,305.00 773.87,305.00 774.49,305.00 775.10,305.00 775.72,305.00 776.34,305.00 776.96,305.00 777.58,305.00 778.20,305.00 778.83,305.00 779.45,305.00 780.06,305.00 780.68,305.00 781.30,305.00 781.93,305.00 782.54,305.00 783.15,305.00 783.77,305.00 784.39,305.00 785.00,305.00 785.62,305.00 786.24,305.00 786.86,305.00 787.47,305.00 788.09,305.00 788.70,305.00 789.32,305.00 789.93,305.00 790.55,305.00 791.16,305.00 791.78,305.00 792.40,305.00 793.01,305.00 793.62,305.00 794.23,305.00 794.85,305.00 795.46,305.00 796.07,305.00 796.69,305.00 797.30,305.00 797.91,305.00 798.53,305.00 799.14,305.00 799.76,305.00 800.37,305.00 800.98,305.00 801.59,305.00 802.21,305.00 802.83,305.00 803.44,305.00 804.06,305.00 804.68,305.00 805.32,305.00 805.93,305.00 806.55,305.00 807.17,305.00 807.79,305.00 808.41,305.00 809.02,305.00 809.64,305.00 810.26,305.00 810.87,305.00 811.48,305.00 812.10,305.00 812.72,305.00 813.33,305.00 813.95,305.00 814.56,305.00 815.17,305.00 815.79,305.00 816.40,305.00 817.02,305.00 817.64,305.00 818.29,305.00 818.90,305.00 819.51,305.00 820.12,305.00 820.73,305.00 821.36,305.00 821.97,305.00 822.59,305.00 823.20,305.00 823.82,305.00 824.44,305.00 825.05,305.00 825.67,305.00 826.29,305.00 826.90,305.00 827.52,305.00 828.14,305.00 828.75,305.00 829.37,305.00 829.98,305.00 830.59,305.00 831.21,305.00 831.82,305.00 832.43,305.00 833.05,305.00 833.67,305.00 834.28,305.00 834.90,305.00 835.51,305.00 836.13,305.00 836.74,305.00 837.36,305.00 837.97,305.00 838.60,305.00 839.21,305.00 839.82,305.00 840.44,305.00 841.05,305.00 841.66,305.00 842.28,305.00 842.90,305.00 843.51,305.00 844.14,305.00 844.75,305.00 845.37,305.00 845.98,305.00 846.60,305.00 847.22,305.00 847.85,305.00 848.47,305.00 849.12,305.00 849.74,305.00 850.40,305.00 851.02,305.00 851.63,305.00 852.24,305.00 852.86,305.00 853.47,305.00 854.09,305.00 854.70,305.00 855.32,305.00 855.93,305.00 856.55,305.00 857.17,305.00 857.78,305.00 858.39,305.00 859.01,305.00 859.62,305.00 860.23,305.00 860.85,305.00 861.47,305.00 862.08,305.00 862.70,305.00 863.32,305.00 863.92,305.00 864.54,305.00 865.16,305.00 865.78,305.00 866.40,305.00 867.01,305.00 867.63,305.00 868.24,305.00 868.85,305.00 869.47,305.00 870.08,305.00 870.69,305.00 871.31,305.00 871.92,305.00 872.53,305.00 873.14,305.00 873.76,305.00 874.37,305.00 874.99,305.00 875.61,305.00 876.25,305.00 876.87,305.00 877.48,305.00 878.09,305.00 878.70,305.00 879.31,305.00 879.92,305.00 880.54,305.00 881.16,305.00 881.77,305.00 882.38,305.00 882.99,305.00 883.60,305.00 884.21,305.00 884.83,305.00 885.44,305.00 886.06,305.00 886.68,305.00 887.29,305.00 887.90,305.00 888.52,305.00 889.14,305.00 889.75,305.00 890.37,305.00 890.98,305.00 891.59,305.00 892.22,305.00 892.83,305.00 893.46,305.00 894.07,305.00 894.68,305.00 895.30,305.00 895.91,305.00 896.53,305.00 897.16,305.00 897.78,305.00 898.40,305.00 899.02,305.00 899.63,305.00 900.25,305.00 900.86,305.00 901.48,305.00 902.10,305.00 902.71,305.00 903.32,305.00 903.94,305.00 904.56,305.00 905.18,305.00 905.80,305.00 906.42,305.00 907.06,305.00 907.71,305.00 908.33,305.00 908.95,305.00 909.56,305.00 910.17,305.00 910.79,305.00 911.40,305.00 912.02,305.00 912.64,305.00 913.26,305.00 913.88,305.00 914.49,305.00 915.10,305.00 915.71,305.00 916.33,305.00 916.95,305.00 917.58,305.00 918.21,305.00 918.83,305.00 919.45,305.00 920.10,305.00 920.72,305.00 921.37,305.00 921.99,305.00 922.60,305.00 923.22,305.00 923.84,305.00 924.45,305.00 925.07,305.00 925.68,305.00 926.30,305.00 926.91,305.00 927.53,305.00 928.16,305.00 928.77,305.00 929.39,305.00 930.02,305.00 930.74,305.00 931.35,305.00 931.96,305.00 932.58,305.00 933.19,305.00 933.80,305.00 935.53,305.00 936.19,305.00 936.77,305.00 937.33,305.00 938.50,305.00 939.11,305.00 939.73,305.00 940.34,305.00 940.96,305.00 941.57,305.00 942.18,305.00 942.79,305.00 943.40,305.00 944.02,305.00 944.64,305.00 945.25,305.00 945.86,305.00 946.48,305.00 947.09,305.00 947.70,305.00 948.31,305.00 948.92,305.00 949.53,305.00 950.14,305.00 950.76,305.00 951.37,305.00 951.99,305.00 952.61,305.00 953.22,305.00 953.82,305.00 954.44,305.00 955.05,305.00 955.66,305.00 956.27,305.00 956.88,305.00 957.49,305.00 958.11,305.00 958.72,305.00 959.33,305.00 959.95,305.00 960.56,305.00 961.18,305.00 961.79,305.00 962.40,305.00 963.01,305.00 963.63,305.00 964.24,305.00 964.86,305.00 965.47,305.00 966.07,305.00 966.68,305.00 967.29,305.00 967.91,305.00 968.52,305.00 969.12,305.00 969.75,305.00 970.37,305.00 970.98,305.00 971.59,305.00 972.21,305.00 972.83,305.00 973.44,305.00 974.06,305.00 974.67,305.00 975.29,305.00 975.90,305.00 976.51,305.00 977.12,305.00 977.73,305.00 978.35,305.00 978.96,305.00 979.58,305.00 980.19,305.00 980.80,305.00 981.42,305.00 982.03,305.00 982.64,305.00 983.26,305.00 983.87,305.00 984.48,305.00 985.10,305.00 985.71,305.00 986.38,305.00 987.00,305.00 987.61,305.00 988.22,305.00 988.84,305.00 989.45,305.00 990.06,305.00 990.68,305.00 991.54,305.00 992.15,305.00 993.01,305.00 993.62,305.00 994.23,305.00 994.85,305.00 995.47,305.00 996.08,305.00 996.69,305.00 997.30,305.00 997.91,305.00 998.52,305.00 999.13,305.00 999.74,305.00 1000.35,305.00 1000.98,305.00 1001.59,305.00 1002.21,305.00 1002.82,305.00 1003.44,305.00 1004.05,305.00 1004.67,305.00 1005.29,305.00 1005.90,305.00 1006.51,305.00 1007.12,305.00 1007.74,305.00 1008.35,305.00 1008.97,305.00 1009.59,305.00 1010.20,305.00 1010.81,305.00 1011.43,305.00 1012.06,305.00 1012.70,305.00 1013.32,305.00 1013.95,305.00 1014.57,305.00 1015.18,305.00 1015.80,305.00 1016.42,305.00 1017.03,305.00 1017.65,305.00 1018.26,305.00 1018.87,305.00 1019.50,305.00 1020.11,305.00 1020.73,305.00 1021.35,305.00 1021.97,305.00 1022.58,305.00 1023.20,305.00 1023.81,305.00 1024.43,305.00 1025.05,305.00 1025.67,305.00 1026.29,305.00 1026.90,305.00 1027.53,305.00 1028.14,305.00 1028.76,305.00 1029.37,305.00 1029.99,305.00 1030.60,305.00 1031.23,305.00 1031.85,305.00 1032.47,305.00 1033.08,305.00 1033.70,305.00 1034.32,305.00 1034.93,305.00 1035.55,305.00 1036.16,305.00 1036.78,305.00 1037.39,305.00 1038.00,305.00 1038.61,305.00 1039.23,305.00 1039.86,305.00 1040.49,305.00 1041.11,305.00 1041.72,305.00 1042.33,305.00 1042.95,305.00 1043.56,305.00 1044.18,305.00 1044.79,305.00 1045.40,305.00 1046.02,305.00 1046.64,305.00 1047.26,305.00 1047.88,305.00 1048.49,305.00 1049.11,305.00 1049.72,305.00 1050.34,305.00 1050.95,305.00 1051.58,305.00 1052.19,305.00 1052.81,305.00 1053.43,305.00 1054.05,305.00 1054.66,305.00 1055.28,305.00 1055.90,305.00 1056.52,305.00 1057.14,305.00 1057.76,305.00 1058.38,305.00 1058.99,305.00 1059.60,305.00 1060.21,305.00 1060.84,305.00 1061.46,305.00 1062.08,305.00 1062.71,305.00 1063.33,305.00 1063.94,305.00 1064.56,305.00 1065.18,305.00 1065.79,305.00 1066.42,305.00 1067.03,305.00 1067.66,305.00 1068.27,305.00 1068.88,305.00 1069.50,305.00 1070.12,305.00 1070.74,305.00 1071.35,305.00 1071.97,305.00 1072.59,305.00 1073.22,305.00 1073.84,305.00 1074.45,305.00 1075.08,305.00 1075.69,305.00 1076.31,305.00 1076.92,305.00 1077.54,305.00 1078.18,305.00 1078.80,305.00 1079.41,305.00 1080.04,305.00 1080.65,305.00 1081.27,305.00 1081.90,305.00 1082.52,305.00 1083.15,305.00 1083.77,305.00 1084.39,305.00 1085.01,305.00 1085.67,305.00 1086.27,305.00 1086.90,305.00 1087.52,305.00 1088.13,305.00 1088.75,305.00 1089.36,305.00 1089.98,305.00 1090.61,305.00 1091.22,305.00 1091.86,305.00 1092.47,305.00 1093.09,305.00 1093.71,305.00 1094.33,305.00 1094.94,305.00 1095.58,305.00 1096.19,305.00 1096.80,305.00 1097.43,305.00 1098.04,305.00 1098.65,305.00 1099.29,305.00 1099.90,305.00 1100.51,305.00 1101.12,305.00 1101.73,305.00 1102.35,305.00 1102.97,305.00 1103.58,305.00 1104.22,305.00 1104.83,305.00 1105.44,305.00 1106.06,305.00 1106.67,305.00 1107.28,305.00 1107.90,305.00 1108.52,305.00 1109.14,305.00 1109.75,305.00 1110.37,305.00 1110.98,305.00 1111.60,305.00 1112.21,305.00 1112.85,305.00 1113.46,305.00 1114.09,305.00 1114.70,305.00 1115.31,305.00 1115.92,305.00 1116.53,305.00 1117.15,305.00 1117.77,305.00 1118.42,305.00 1119.03,305.00 1119.65,305.00 1120.26,305.00 1120.87,305.00 1121.49,305.00 1122.09,305.00 1122.71,305.00 1123.33,305.00 1123.94,305.00 1124.55,305.00 1125.16,305.00 1125.77,305.00 1126.40,305.00 1127.01,305.00 1127.62,305.00 1128.23,305.00 1128.85,305.00 1129.47,305.00 1130.09,305.00 1130.71,305.00 1131.33,305.00 1131.94,305.00 1132.55,305.00 1133.17,305.00 1133.80,305.00 1134.41,305.00 1135.02,305.00 1135.63,305.00 1136.24,305.00 1136.86,305.00 1137.48,305.00 1138.09,305.00 1138.70,305.00 1139.31,305.00 1139.93,305.00 1140.54,305.00 1141.15,305.00 1141.76,305.00 1142.37,305.00 1142.98,305.00 1143.60,305.00 1144.22,305.00 1144.83,305.00 1145.45,305.00 1146.07,305.00 1146.69,305.00 1147.30,305.00 1147.91,305.00 1148.52,305.00 1149.14,305.00 1149.76,305.00 1150.37,305.00 1150.99,305.00 1151.61,305.00 1152.22,305.00 1152.84,305.00 1153.46,305.00 1154.08,305.00 1154.70,305.00 1155.32,305.00 1155.94,305.00 1156.56,305.00 1157.17,305.00 1157.78,305.00 1158.39,305.00 1159.00,305.00 1159.62,305.00 1160.23,305.00 1160.84,305.00 1161.46,305.00 1162.10,305.00 1162.71,305.00 1163.33,305.00 1163.95,305.00 1164.56,305.00 1165.19,305.00 1165.82,305.00 1166.47,305.00 1167.07,305.00 1167.68,305.00 1168.29,305.00 1168.90,305.00 1169.51,305.00 1170.13,305.00 1170.75,305.00 1171.37,305.00 1171.98,305.00 1172.59,305.00 1173.22,305.00 1173.83,305.00 1174.44,305.00 1175.06,305.00 1175.68,305.00 1176.32,305.00 1176.94,305.00 1177.55,305.00 1178.16,305.00 1178.78,305.00 1179.39,305.00 1180.00,305.00"/>
<polyline fill="none" stroke="#9467bd" stroke-opacity="0.50" stroke-width="2" points="70.00,305.00 70.61,305.00 71.23,305.00 71.84,305.00 72.46,305.00 73.07,305.00 73.68,305.00 74.30,305.00 74.96,305.00 75.57,305.00 76.18,305.00 76.79,305.00 77.41,305.00 78.02,305.00 78.63,305.00 79.74,305.00 80.69,305.00 81.31,305.00 81.93,305.00 82.55,305.00 83.16,305.00 83.76,305.00 84.38,305.00 84.99,305.00 85.60,305.00 86.22,305.00 86.85,305.00 87.46,305.00 88.08,305.00 88.72,305.00 89.34,305.00 89.95,305.00 90.58,305.00 91.19,305.00 91.81,305.00 92.44,305.00 93.05,305.00 93.66,305.00 94.28,305.00 94.89,305.00 95.50,305.00 96.11,305.00 96.72,305.00 97.34,305.00 97.95,305.00 98.57,305.00 99.19,305.00 99.80,305.00 100.41,305.00 101.03,305.00 101.64,305.00 102.34,305.00 102.95,305.00 103.57,305.00 104.17,305.00 104.78,305.00 105.39,305.00 106.00,305.00 106.62,305.00 107.23,305.00 107.85,305.00 108.46,305.00 109.07,305.00 109.69,305.00 110.31,305.00 110.92,305.00 111.53,305.00 112.14,305.00 112.75,305.00 113.36,305.00 113.96,305.00 114.58,305.00 115.19,305.00 115.80,305.00 116.41,305.00 117.02,305.00 117.63,305.00 118.25,305.00 118.86,305.00 119.46,305.00 120.09,305.00 120.70,305.00 121.32,305.00 121.93,305.00 122.54,305.00 123.16,305.00 123.77,305.00 124.38,305.00 124.98,305.00 125.60,305.00 126.22,305.00 126.83,305.00 127.45,305.00 128.05,305.00 128.67,305.00 129.28,305.00 129.89,305.00 130.50,305.00 131.11,305.00 131.72,305.00 132.33,305.00 132.95,305.00 133.56,305.00 134.17,305.00 134.79,305.00 135.41,305.00 136.02,305.00 136.63,305.00 137.24,305.00 137.85,305.00 138.47,305.00 139.09,305.00 139.70,305.00 140.31,305.00 140.92,305.00 141.54,305.00 142.16,305.00 142.78,305.00 143.39,305.00 144.00,305.00 144.61,305.00 145.23,305.00 145.84,305.00 146.45,305.00 147.12,305.00 147.73,305.00 148.35,305.00 148.96,305.00 149.57,305.00 150.18,305.00 150.78,305.00 151.39,305.00 152.00,305.00 152.61,305.00 153.22,305.00 153.84,305.00 154.45,305.00 155.05,305.00 155.68,305.00 156.29,305.00 156.90,305.00 157.51,305.00 158.12,305.00 158.73,305.00 159.35,305.00 159.96,305.00 160.58,305.00 161.19,305.00 161.80,305.00 162.41,305.00 163.02,305.00 163.63,305.00 164.24,305.00 164.86,305.00 165.48,305.00 166.09,305.00 166.70,305.00 167.32,305.00 167.93,305.00 168.54,305.00 169.16,305.00 169.77,305.00 170.39,305.00 171.01,305.00 171.62,305.00 172.24,305.00 172.84,305.00 173.45,305.00 174.06,305.00 174.68,305.00 175.29,305.00 175.89,305.00 176.50,305.00 177.12,305.00 177.73,305.00 178.35,305.00 178.96,305.00 179.59,305.00 180.20,305.00 180.81,305.00 181.42,305.00 182.03,305.00 182.69,305.00 183.32,305.00 183.93,305.00 184.54,305.00 185.14,305.00 185.76,305.00 186.37,305.00 186.98,305.00 187.60,305.00 188.21,305.00 188.82,305.00 189.43,305.00 190.06,305.00 190.67,305.00 191.28,305.00 191.89,305.00 192.51,305.00 193.13,305.00 193.76,305.00 194.37,305.00 194.98,305.00 195.59,305.00 196.20,305.00 196.82,305.00 197.43,305.00 198.05,305.00 198.66,305.00 199.27,305.00 199.89,305.00 200.50,305.00 201.11,305.00 201.73,305.00 202.35,305.00 202.96,305.00 203.57,305.00 204.18,305.00 204.79,305.00 205.40,305.00 206.01,305.00 206.62,305.00 207.23,305.00 207.84,305.00 208.45,305.00 209.07,305.00 209.68,305.00 210.30,305.00 210.92,305.00 211.53,305.00 212.15,305.00 212.76,305.00 213.37,305.00 213.98,305.00 214.60,305.00 215.21,305.00 215.84,305.00 216.45,305.00 217.07,305.00 217.68,305.00 218.29,305.00 218.90,305.00 219.51,305.00 220.12,305.00 220.74,305.00 221.35,305.00 221.96,305.00 222.58,305.00 223.19,305.00 223.81,305.00 224.42,305.00 225.04,305.00 225.66,305.00 226.26,305.00 226.88,305.00 227.49,305.00 228.11,305.00 228.73,305.00 229.34,305.00 229.95,305.00 230.63,305.00 231.25,305.00 231.86,305.00 232.47,305.00 233.09,305.00 233.71,305.00 234.32,305.00 234.94,305.00 235.54,305.00 236.18,305.00 236.80,305.00 237.41,305.00 238.02,305.00 238.63,305.00 239.24,305.00 239.86,305.00 240.49,305.00 241.11,305.00 241.72,305.00 242.34,305.00 243.00,305.00 243.61,305.00 244.38,305.00 245.42,305.00 246.05,305.00 246.67,305.00 247.29,305.00 247.89,305.00 248.49,305.00 249.12,305.00 249.73,305.00 250.35,305.00 250.99,305.00 251.62,305.00 252.27,305.00 252.89,305.00 253.50,305.00 254.11,305.00 254.73,305.00 255.36,305.00 255.97,305.00 256.58,305.00 257.20,305.00 257.83,305.00 258.45,305.00 259.06,305.00 259.67,305.00 260.29,305.00 260.93,305.00 261.55,305.00 262.16,305.00 262.79,305.00 263.38,305.00 263.99,305.00 264.61,305.00 265.22,305.00 265.84,305.00 266.48,305.00 267.09,305.00 267.70,305.00 268.32,305.00 268.94,305.00 269.56,305.00 270.17,305.00 270.78,305.00 271.39,305.00 272.01,305.00 272.62,305.00 273.35,305.00 274.07,305.00 274.79,305.00 275.51,305.00 276.21,305.00 276.91,305.00 277.64,305.00 278.35,305.00 278.97,305.00 279.57,305.00 280.18,305.00 280.80,305.00 281.41,305.00 282.02,305.00 282.63,305.00 283.24,305.00 283.85,305.00 284.46,305.00 285.07,305.00 285.68,305.00 286.29,305.00 286.90,305.00 287.51,305.00 288.12,305.00 288.73,305.00 289.34,305.00 289.96,305.00 290.57,305.00 291.18,305.00 291.79,305.00 292.40,305.00 293.01,305.00 293.62,305.00 294.23,305.00 294.84,305.00 295.46,305.00 296.07,305.00 296.68,305.00 297.29,305.00 297.90,305.00 298.51,305.00 299.12,305.00 299.73,305.00 300.33,305.00 300.94,305.00 301.55,305.00 302.16,305.00 302.77,305.00 303.38,305.00 303.99,305.00 304.59,305.00 305.20,305.00 305.80,305.00 306.43,305.00 307.09,305.00 307.71,305.00 308.32,305.00 308.93,305.00 309.54,305.00 310.15,305.00 310.75,305.00 311.36,305.00 312.09,305.00 312.80,305.00 313.52,305.00 314.23,305.00 314.96,305.00 315.67,305.00 316.40,305.00 317.14,305.00 317.81,305.00 318.47,305.00 319.08,305.00 319.70,305.00 320.31,305.00 320.92,305.00 321.53,305.00 322.14,305.00 322.75,305.00 323.36,305.00 323.97,305.00 324.58,305.00 325.20,305.00 325.81,305.00 326.43,305.00 327.04,305.00 327.65,305.00 328.18,305.00 328.82,305.00 329.43,305.00 330.05,305.00 330.66,305.00 331.27,305.00 331.89,305.00 332.51,305.00 333.12,305.00 333.74,305.00 334.36,305.00 334.98,305.00 335.59,305.00 336.20,305.00 336.81,305.00 337.42,305.00 338.02,305.00 338.63,305.00 339.25,305.00 339.86,305.00 340.47,305.00 341.09,305.00 341.69,305.00 342.31,305.00 342.92,305.00 343.54,305.00 344.15,305.00 344.77,305.00 345.38,305.00 345.99,305.00 346.61,305.00 347.24,305.00 347.85,305.00 348.46,305.00 349.07,305.00 349.67,305.00 350.28,305.00 350.90,305.00 351.51,305.00 352.12,305.00 352.73,305.00 353.34,305.00 353.95,305.00 354.57,305.00 355.18,305.00 355.79,305.00 356.53,305.00 357.16,305.00 357.79,305.00 358.41,305.00 359.02,305.00 359.64,305.00 360.25,305.00 360.86,305.00 361.48,305.00 362.09,305.00 362.70,305.00 363.32,305.00 363.93,305.00 364.54,305.00 365.18,305.00 365.80,305.00 366.41,305.00 367.03,305.00 367.64,305.00 368.25,305.00 368.86,305.00 369.48,305.00 370.11,305.00 370.73,305.00 371.35,305.00 371.96,305.00 372.57,305.00 373.19,305.00 373.80,305.00 374.41,305.00 375.02,305.00 375.64,305.00 376.25,305.00 376.87,305.00 377.48,305.00 378.09,305.00 378.70,305.00 379.33,305.00 379.94,305.00 380.55,305.00 381.16,305.00 381.77,305.00 382.39,305.00 383.01,305.00 383.75,305.00 384.38,305.00 384.99,305.00 385.60,305.00 386.21,305.00 386.83,305.00 387.44,305.00 388.06,305.00 388.68,305.00 389.29,305.00 389.90,305.00 390.51,305.00 391.13,305.00 391.74,305.00 392.35,305.00 392.97,305.00 393.58,305.00 394.18,305.00 394.80,305.00 395.41,305.00 396.03,305.00 396.64,305.00 397.25,305.00 397.87,305.00 398.49,305.00 399.10,305.00 399.71,305.00 400.32,305.00 400.95,305.00 401.56,305.00 402.18,305.00 402.79,305.00 403.41,305.00 404.02,305.00 404.63,305.00 405.25,305.00 405.88,305.00 406.49,305.00 407.10,305.00 407.70,305.00 408.32,305.00 408.93,305.00 409.54,305.00 410.15,305.00 410.77,305.00 411.39,305.00 412.01,305.00 412.61,305.00 413.23,305.00 413.84,305.00 414.45,305.00 415.06,305.00 415.68,305.00 416.29,305.00 416.91,305.00 417.52,305.00 418.13,305.00 418.75,305.00 419.37,305.00 419.99,305.00 420.60,305.00 421.22,305.00 421.91,305.00 422.58,305.00 423.24,305.00 423.86,305.00 424.50,305.00 425.11,305.00 425.73,305.00 426.33,305.00 426.91,305.00 427.55,305.00 428.16,305.00 428.78,305.00 429.39,305.00 430.00,305.00 430.61,305.00 431.23,305.00 431.84,305.00 432.45,305.00 433.07,305.00 433.68,305.00 434.30,305.00 434.91,305.00 435.53,305.00 436.15,305.00 436.77,305.00 437.38,305.00 437.99,305.00 438.62,305.00 439.24,305.00 439.84,305.00 440.46,305.00 441.07,305.00 441.68,305.00 442.29,305.00 442.91,305.00 443.52,305.00 444.15,305.00 444.75,305.00 445.36,305.00 445.98,305.00 446.59,305.00 447.21,305.00 447.83,305.00 448.44,305.00 449.05,305.00 449.67,305.00 450.29,305.00 450.90,305.00 451.52,305.00 452.14,305.00 452.75,305.00 453.37,305.00 453.98,305.00 454.60,305.00 455.23,305.00 455.85,305.00 456.46,305.00 457.08,305.00 457.69,305.00 458.30,305.00 458.92,305.00 459.54,305.00 460.15,305.00 460.77,305.00 461.38,305.00 462.00,305.00 462.61,305.00 463.23,305.00 463.85,305.00 464.47,305.00 465.09,305.00 465.70,305.00 466.33,305.00 466.94,305.00 467.55,305.00 468.17,305.00 468.78,305.00 469.41,305.00 470.03,305.00 470.65,305.00 471.26,305.00 471.87,305.00 472.49,305.00 473.10,305.00 473.72,305.00 474.33,305.00 474.95,305.00 475.56,305.00 476.17,305.00 476.79,305.00 477.41,305.00 478.03,305.00 478.64,305.00 479.26,305.00 479.88,305.00 480.49,305.00 481.11,305.00 481.72,305.00 482.33,305.00 482.94,305.00 483.56,305.00 484.17,305.00 484.79,305.00 485.41,305.00 486.03,305.00 486.64,305.00 487.26,305.00 487.88,305.00 488.49,305.00 489.11,305.00 489.73,305.00 490.34,305.00 490.96,305.00 491.58,305.00 492.20,305.00 492.82,305.00 493.43,305.00 494.06,305.00 494.68,305.00 495.30,305.00 495.91,305.00 496.52,305.00 497.14,305.00 497.76,305.00 498.38,305.00 499.00,305.00 499.62,305.00 500.23,305.00 500.84,305.00 501.47,305.00 502.08,305.00 502.70,305.00 503.32,305.00 503.93,305.00 504.54,305.00 505.15,305.00 505.76,305.00 506.38,305.00 507.00,305.00 507.61,305.00 508.23,305.00 508.84,305.00 509.46,305.00 510.09,305.00 510.71,305.00 511.32,305.00 511.94,305.00 512.55,305.00 513.16,305.00 513.78,305.00 514.40,305.00 515.01,305.00 515.63,305.00 516.24,305.00 516.86,305.00 517.47,305.00 518.09,305.00 518.71,305.00 519.34,305.00 519.97,305.00 520.58,305.00 521.20,305.00 521.82,305.00 522.44,305.00 523.05,305.00 523.66,305.00 524.27,305.00 524.90,305.00 525.51,305.00 526.13,305.00 526.75,305.00 527.37,305.00 528.01,305.00 528.63,305.00 529.24,305.00 529.86,305.00 530.47,305.00 531.09,305.00 531.71,305.00 532.33,305.00 532.95,305.00 533.57,305.00 534.19,305.00 534.81,305.00 535.43,305.00 536.04,305.00 536.66,305.00 537.27,305.00 537.89,305.00 538.51,305.00 539.13,305.00 539.74,305.00 540.36,305.00 540.98,305.00 541.60,305.00 542.21,305.00 542.83,305.00 543.45,305.00 544.09,305.00 544.70,305.00 545.33,305.00 545.94,305.00 546.57,305.00 547.20,305.00 547.83,305.00 548.46,305.00 549.09,305.00 549.71,305.00 550.33,305.00 550.94,305.00 551.56,305.00 552.18,305.00 552.80,305.00 553.43,305.00 554.04,305.00 554.66,305.00 555.28,305.00 555.89,305.00 556.51,305.00 557.13,305.00 557.74,305.00 558.35,305.00 558.97,305.00 559.58,305.00 560.20,305.00 560.80,305.00 561.42,305.00 562.04,305.00 562.66,305.00 563.27,305.00 563.89,305.00 564.51,305.00 565.13,305.00 565.74,305.00 566.36,305.00 566.98,305.00 567.59,305.00 568.20,305.00 568.82,305.00 569.44,305.00 570.05,305.00 570.66,305.00 571.27,305.00 571.89,305.00 572.51,305.00 573.12,305.00 573.74,305.00 574.35,305.00 574.97,305.00 575.58,305.00 576.20,305.00 576.82,305.00 577.42,305.00 578.03,305.00 578.63,305.00 579.25,305.00 579.87,305.00 580.50,305.00 581.11,305.00 581.72,305.00 582.34,305.00 582.97,305.00 583.59,305.00 584.20,305.00 584.82,305.00 585.44,305.00 586.05,305.00 586.67,305.00 587.29,305.00 587.91,305.00 588.53,305.00 589.15,305.00 589.76,305.00 590.37,305.00 590.99,305.00 591.60,305.00 592.22,305.00 592.82,305.00 593.44,305.00 594.06,305.00 594.68,305.00 595.29,305.00 595.90,305.00 596.52,305.00 597.13,305.00 597.75,305.00 598.37,305.00 598.98,305.00 599.60,305.00 600.21,305.00 600.84,305.00 601.45,305.00 602.06,305.00 602.68,305.00 603.29,305.00 603.91,305.00 604.53,305.00 605.15,305.00 605.76,305.00 606.37,305.00 606.99,305.00 607.62,305.00 608.24,305.00 608.87,305.00 609.49,305.00 610.11,305.00 610.72,305.00 611.34,305.00 611.96,305.00 612.58,305.00 613.19,305.00 613.81,305.00 614.44,305.00 615.06,305.00 615.67,305.00 616.29,305.00 616.91,305.00 617.53,305.00 618.14,305.00 618.75,305.00 619.37,305.00 619.99,305.00 620.60,305.00 621.22,305.00 621.83,305.00 622.45,305.00 623.06,305.00 623.67,305.00 624.29,305.00 624.90,305.00 625.51,305.00 626.14,305.00 626.75,305.00 627.37,305.00 627.98,305.00 628.60,305.00 629.21,305.00 629.83,305.00 630.44,305.00 631.07,305.00 631.68,305.00 632.29,305.00 632.91,305.00 633.53,305.00 634.14,305.00 634.75,305.00 635.38,305.00 636.01,305.00 636.63,305.00 637.26,305.00 637.89,305.00 638.52,305.00 639.15,305.00 639.78,305.00 640.42,305.00 641.04,305.00 641.68,305.00 642.29,305.00 642.90,305.00 643.52,305.00 644.15,305.00 644.76,305.00 645.38,305.00 646.00,305.00 646.62,305.00 647.23,305.00 647.85,305.00 648.46,305.00 649.08,305.00 649.69,305.00 650.30,305.00 650.92,305.00 651.54,305.00 652.16,305.00 652.77,305.00 653.40,305.00 654.01,305.00 654.63,305.00 655.24,305.00 655.86,305.00 656.48,305.00 657.09,305.00 657.71,305.00 658.32,305.00 658.94,305.00 659.56,305.00 660.17,305.00 660.79,305.00 661.41,305.00 662.02,305.00 662.64,305.00 663.30,305.00 663.93,305.00 664.55,305.00 665.16,305.00 665.77,305.00 666.40,305.00 667.02,305.00 667.64,305.00 668.26,305.00 668.87,305.00 669.47,305.00 670.09,305.00 670.71,305.00 671.32,305.00 671.94,305.00 672.55,305.00 673.18,305.00 673.80,305.00 674.42,305.00 675.03,305.00 675.64,305.00 676.26,305.00 676.87,305.00 677.49,305.00 678.10,305.00 678.72,305.00 679.34,305.00 679.96,305.00 680.58,305.00 681.22,305.00 681.84,305.00 682.45,305.00 683.06,305.00 683.68,305.00 684.30,305.00 684.92,305.00 685.54,305.00 686.15,305.00 686.77,305.00 687.39,305.00 688.01,305.00 688.63,305.00 689.25,305.00 689.87,305.00 690.48,305.00 691.10,305.00 691.71,305.00 692.33,305.00 692.94,305.00 693.57,305.00 694.19,305.00 694.80,305.00 695.42,305.00 696.03,305.00 696.65,305.00 697.26,305.00 697.88,305.00 698.49,305.00 699.11,305.00 699.73,305.00 700.34,305.00 700.96,305.00 701.57,305.00 702.19,305.00 702.81,305.00 703.43,305.00 704.04,305.00 704.65,305.00 705.26,305.00 705.88,305.00 706.50,305.00 707.11,305.00 707.74,305.00 708.36,305.00 708.98,305.00 709.60,305.00 710.21,305.00 710.84,305.00 711.50,305.00 712.13,305.00 712.75,305.00 713.37,305.00 714.00,305.00 714.61,305.00 715.23,305.00 715.84,305.00 716.46,305.00 717.08,305.00 717.70,305.00 718.31,305.00 718.93,305.00 719.56,305.00 720.18,305.00 720.80,305.00 721.41,305.00 722.03,305.00 722.65,305.00 723.27,305.00 723.88,305.00 724.50,305.00 725.12,305.00 725.74,305.00 726.35,305.00 726.97,305.00 727.59,305.00 728.21,305.00 728.84,305.00 729.45,305.00 730.07,305.00 730.68,305.00 731.30,305.00 731.93,305.00 732.54,305.00 733.15,305.00 733.77,305.00 734.38,305.00 735.00,305.00 735.62,305.00 736.23,305.00 736.85,305.00 737.47,305.00 738.09,305.00 738.70,305.00 739.32,305.00 739.93,305.00 740.56,305.00 741.18,305.00 741.78,305.00 742.38,305.00 743.00,305.00 743.62,305.00 744.23,305.00 744.85,305.00 745.48,305.00 746.09,305.00 746.72,305.00 747.34,305.00 747.95,305.00 748.57,305.00 749.18,305.00 749.80,305.00 750.40,305.00 751.02,305.00 751.63,305.00 752.25,305.00 752.87,305.00 753.48,305.00 754.09,305.00 754.71,305.00 755.33,305.00 755.94,305.00 756.55,305.00 757.17,305.00 757.76,305.00 758.40,305.00 759.01,305.00 759.63,305.00 760.25,305.00 760.87,305.00 761.48,305.00 762.10,305.00 762.72,305.00 763.33,305.00 763.95,305.00 764.56,305.00 765.23,305.00 765.84,305.00 766.47,305.00 767.08,305.00 767.71,305.00 768.32,305.00 768.93,305.00 769.55,305.00 770.17,305.00 770.78,305.00 771.40,305.00 772.01,305.00 772.63,305.00 773.26,305.00 773.87,305.00 774.49,305.00 775.10,305.00 775.72,305.00 776.34,305.00 776.96,305.00 777.58,305.00 778.20,305.00 778.83,305.00 779.45,305.00 780.06,305.00 780.68,305.00 781.30,305.00 781.93,305.00 782.54,305.00 783.15,305.00 783.77,305.00 784.39,305.00 785.00,305.00 785.62,305.00 786.24,305.00 786.86,305.00 787.47,305.00 788.09,305.00 788.70,305.00 789.32,305.00 789.93,305.00 790.55,305.00 791.16,305.00 791.78,305.00 792.40,305.00 793.01,305.00 793.62,305.00 794.23,305.00 794.85,305.00 795.46,305.00 796.07,305.00 796.69,305.00 797.30,305.00 797.91,305.00 798.53,305.00 799.14,305.00 799.76,305.00 800.37,305.00 800.98,305.00 801.59,305.00 802.21,305.00 802.83,305.00 803.44,305.00 804.06,305.00 804.68,305.00 805.32,305.00 805.93,305.00 806.55,305.00 807.17,305.00 807.79,305.00 808.41,305.00 809.02,305.00 809.64,305.00 810.26,305.00 810.87,305.00 811.48,305.00 812.10,305.00 812.72,305.00 813.33,305.00 813.95,305.00 814.56,305.00 815.17,305.00 815.79,305.00 816.40,305.00 817.02,305.00 817.64,305.00 818.29,305.00 818.90,305.00 819.51,305.00 820.12,305.00 820.73,305.00 821.36,305.00 821.97,305.00 822.59,305.00 823.20,305.00 823.82,305.00 824.44,305.00 825.05,305.00 825.67,305.00 826.29,305.00 826.90,305.00 827.52,305.00 828.14,305.00 828.75,305.00 829.37,305.00 829.98,305.00 830.59,305.00 831.21,305.00 831.82,305.00 832.43,305.00 833.05,305.00 833.67,305.00 834.28,305.00 834.90,305.00 835.51,305.00 836.13,305.00 836.74,305.00 837.36,305.00 837.97,305.00 838.60,305.00 839.21,305.00 839.82,305.00 840.44,305.00 841.05,305.00 841.66,305.00 842.28,305.00 842.90,305.00 843.51,305.00 844.14,305.00 844.75,305.00 845.37,305.00 845.98,305.00 846.60,305.00 847.22,305.00 847.85,305.00 848.47,305.00 849.12,305.00 849.74,305.00 850.40,305.00 851.02,305.00 851.63,305.00 852.24,305.00 852.86,305.00 853.47,305.00 854.09,305.00 854.70,305.00 855.32,305.00 855.93,305.00 856.55,305.00 857.17,305.00 857.78,305.00 858.39,305.00 859.01,305.00 859.62,305.00 860.23,305.00 860.85,305.00 861.47,305.00 862.08,305.00 862.70,305.00 863.32,305.00 863.92,305.00 864.54,305.00 865.16,305.00 865.78,305.00 866.40,305.00 867.01,305.00 867.63,305.00 868.24,305.00 868.85,305.00 869.47,305.00 870.08,305.00 870.69,305.00 871.31,305.00 871.92,305.00 872.53,305.00 873.14,305.00 873.76,305.00 874.37,305.00 874.99,305.00 875.61,305.00 876.25,305.00 876.87,305.00 877.48,305.00 878.09,305.00 878.70,305.00 879.31,305.00 879.92,305.00 880.54,305.00 881.16,305.00 881.77,305.00 882.38,305.00 882.99,305.00 883.60,305.00 884.21,305.00 884.83,305.00 885.44,305.00 886.06,305.00 886.68,305.00 887.29,305.00 887.90,305.00 888.52,305.00 889.14,305.00 889.75,305.00 890.37,305.00 890.98,305.00 891.59,305.00 892.22,305.00 892.83,305.00 893.46,305.00 894.07,305.00 894.68,305.00 895.30,305.00 895.91,305.00 896.53,305.00 897.16,305.00 897.78,305.00 898.40,305.00 899.02,305.00 899.63,305.00 900.25,305.00 900.86,305.00 901.48,305.00 902.10,305.00 902.71,305.00 903.32,305.00 903.94,305.00 904.56,305.00 905.18,305.00 905.80,305.00 906.42,305.00 907.06,305.00 907.71,305.00 908.33,305.00 908.95,305.00 909.56,305.00 910.17,305.00 910.79,305.00 911.40,305.00 912.02,305.00 912.64,305.00 913.26,305.00 913.88,305.00 914.49,305.00 915.10,305.00 915.71,305.00 916.33,305.00 916.95,305.00 917.58,305.00 918.21,305.00 918.83,305.00 919.45,305.00 920.10,305.00 920.72,305.00 921.37,305.00 921.99,305.00 922.60,305.00 923.22,305.00 923.84,305.00 924.45,305.00 925.07,305.00 925.68,305.00 926.30,305.00 926.91,305.00 927.53,305.00 928.16,305.00 928.77,305.00 929.39,305.00 930.02,305.00 930.74,305.00 931.35,305.00 931.96,305.00 932.58,305.00 933.19,305.00 933.80,305.00 934.41,305.00 934.98,305.00 935.53,305.00 936.19,305.00 936.77,305.00 937.33,305.00 937.96,305.00 938.50,305.00 939.11,305.00 939.73,305.00 940.34,305.00 940.96,305.00 941.57,305.00 942.18,305.00 942.79,305.00 943.40,305.00 944.02,305.00 944.64,305.00 945.25,305.00 945.86,305.00 946.48,305.00 947.09,305.00 947.70,305.00 948.31,305.00 948.92,305.00 949.53,305.00 950.14,305.00 950.76,305.00 951.37,305.00 951.99,305.00 952.61,305.00 953.22,305.00 953.82,305.00 954.44,305.00 955.05,305.00 955.66,305.00 956.27,305.00 956.88,305.00 957.49,305.00 958.11,305.00 958.72,305.00 959.33,305.00 959.95,305.00 960.56,305.00 961.18,305.00 961.79,305.00 962.40,305.00 963.01,305.00 963.63,305.00 964.24,305.00 964.86,305.00 965.47,305.00 966.07,305.00 966.68,305.00 967.29,305.00 967.91,305.00 968.52,305.00 969.12,305.00 969.75,305.00 970.37,305.00 970.98,305.00 971.59,305.00 972.21,305.00 972.83,305.00 973.44,305.00 974.06,305.00 974.67,305.00 975.29,305.00 975.90,305.00 976.51,305.00 977.12,305.00 977.73,305.00 978.35,305.00 978.96,305.00 979.58,305.00 980.19,305.00 980.80,305.00 981.42,305.00 982.03,305.00 982.64,305.00 983.26,305.00 983.87,305.00 984.48,305.00 985.10,305.00 985.71,305.00 986.38,305.00 987.00,305.00 987.61,305.00 988.22,305.00 988.84,305.00 989.45,305.00 990.06,305.00 990.68,305.00 991.54,305.00 992.15,305.00 993.01,305.00 993.62,305.00 994.23,305.00 994.85,305.00 995.47,305.00 996.08,305.00 996.69,305.00 997.30,305.00 997.91,305.00 998.52,305.00 999.13,305.00 999.74,305.00 1000.35,305.00 1000.98,305.00 1001.59,305.00 1002.21,305.00 1002.82,305.00 1003.44,305.00 1004.05,305.00 1004.67,305.00 1005.29,305.00 1005.90,305.00 1006.51,305.00 1007.12,305.00 1007.74,305.00 1008.35,305.00 1008.97,305.00 1009.59,305.00 1010.20,305.00 1010.81,305.00 1011.43,305.00 1012.06,305.00 1012.70,305.00 1013.32,305.00 1013.95,305.00 1014.57,305.00 1015.18,305.00 1015.80,305.00 1016.42,305.00 1017.03,305.00 1017.65,305.00 1018.26,305.00 1018.87,305.00 1019.50,305.00 1020.11,305.00 1020.73,305.00 1021.35,305.00 1021.97,305.00 1022.58,305.00 1023.20,305.00 1023.81,305.00 1024.43,305.00 1025.05,305.00 1025.67,305.00 1026.29,305.00 1026.90,305.00 1027.53,305.00 1028.14,305.00 1028.76,305.00 1029.37,305.00 1029.99,305.00 1030.60,305.00 1031.23,305.00 1031.85,305.00 1032.47,305.00 1033.08,305.00 1033.70,305.00 1034.32,305.00 1034.93,305.00 1035.55,305.00 1036.16,305.00 1036.78,305.00 1037.39,305.00 1038.00,305.00 1038.61,305.00 1039.23,305.00 1039.86,305.00 1040.49,305.00 1041.11,305.00 1041.72,305.00 1042.33,305.00 1042.95,305.00 1043.56,305.00 1044.18,305.00 1044.79,305.00 1045.40,305.00 1046.02,305.00 1046.64,305.00 1047.26,305.00 1047.88,305.00 1048.49,305.00 1049.11,305.00 1049.72,305.00 1050.34,305.00 1050.95,305.00 1051.58,305.00 1052.19,305.00 1052.81,305.00 1053.43,305.00 1054.05,305.00 1054.66,305.00 1055.28,305.00 1055.90,305.00 1056.52,305.00 1057.14,305.00 1057.76,305.00 1058.38,305.00 1058.99,305.00 1059.60,305.00 1060.21,305.00 1060.84,305.00 1061.46,305.00 1062.08,305.00 1062.71,305.00 1063.33,305.00 1063.94,305.00 1064.56,305.00 1065.18,305.00 1065.79,305.00 1066.42,305.00 1067.03,305.00 1067.66,305.00 1068.27,305.00 1068.88,305.00 1069.50,305.00 1070.12,305.00 1070.74,305.00 1071.35,305.00 1071.97,305.00 1072.59,305.00 1073.22,305.00 1073.84,305.00 1074.45,305.00 1075.08,305.00 1075.69,305.00 1076.31,305.00 1076.92,305.00 1077.54,305.00 1078.18,305.00 1078.80,305.00 1079.41,305.00 1080.04,305.00 1080.65,305.00 1081.27,305.00 1081.90,305.00 1082.52,305.00 1083.15,305.00 1083.77,305.00 1084.39,305.00 1085.01,305.00 1085.67,305.00 1086.27,305.00 1086.90,305.00 1087.52,305.00 1088.13,305.00 1088.75,305.00 1089.36,305.00 1089.98,305.00 1090.61,305.00 1091.22,305.00 1091.86,305.00 1092.47,305.00 1093.09,305.00 1093.71,305.00 1094.33,305.00 1094.94,305.00 1095.58,305.00 1096.19,305.00 1096.80,305.00 1097.43,305.00 1098.04,305.00 1098.65,305.00 1099.29,305.00 1099.90,305.00 1100.51,305.00 1101.12,305.00 1101.73,305.00 1102.35,305.00 1102.97,305.00 1103.58,305.00 1104.22,305.00 1104.83,305.00 1105.44,305.00 1106.06,305.00 1106.67,305.00 1107.28,305.00 1107.90,305.00 1108.52,305.00 1109.14,305.00 1109.75,305.00 1110.37,305.00 1110.98,305.00 1111.60,305.00 1112.21,305.00 1112.85,305.00 1113.46,305.00 1114.09,305.00 1114.70,305.00 1115.31,305.00 1115.92,305.00 1116.53,305.00 1117.15,305.00 1117.77,305.00 1118.42,305.00 1119.03,305.00 1119.65,305.00 1120.26,305.00 1120.87,305.00 1121.49,305.00 1122.09,305.00 1122.71,305.00 1123.33,305.00 1123.94,305.00 1124.55,305.00 1125.16,305.00 1125.77,305.00 1126.40,305.00 1127.01,305.00 1127.62,305.00 1128.23,305.00 1128.85,305.00 1129.47,305.00 1130.09,305.00 1130.71,305.00 1131.33,305.00 1131.94,305.00 1132.55,305.00 1133.17,305.00 1133.80,305.00 1134.41,305.00 1135.02,305.00 1135.63,305.00 1136.24,305.00 1136.86,305.00 1137.48,305.00 1138.09,305.00 1138.70,305.00 1139.31,305.00 1139.93,305.00 1140.54,305.00 1141.15,305.00 1141.76,305.00 1142.37,305.00 1142.98,305.00 1143.60,305.00 1144.22,305.00 1144.83,305.00 1145.45,305.00 1146.07,305.00 1146.69,305.00 1147.30,305.00 1147.91,305.00 1148.52,305.00 1149.14,305.00 1149.76,305.00 1150.37,305.00 1150.99,305.00 1151.61,305.00 1152.22,305.00 1152.84,305.00 1153.46,305.00 1154.08,305.00 1154.70,305.00 1155.32,305.00 1155.94,305.00 1156.56,305.00 1157.17,305.00 1157.78,305.00 1158.39,305.00 1159.00,305.00 1159.62,305.00 1160.23,305.00 1160.84,305.00 1161.46,305.00 1162.10,305.00 1162.71,305.00 1163.33,305.00 1163.95,305.00 1164.56,305.00 1165.19,305.00 1165.82,305.00 1166.47,305.00 1167.07,305.00 1167.68,305.00 1168.29,305.00 1168.90,305.00 1169.51,305.00 1170.13,305.00 1170.75,305.00 1171.37,305.00 1171.98,305.00 1172.59,305.00 1173.22,305.00 1173.83,305.00 1174.44,305.00 1175.06,305.00 1175.68,305.00 1176.32,305.00 1176.94,305.00 1177.55,305.00 1178.16,305.00 1178.78,305.00 1179.39,305.00 1180.00,305.00"/>
<rect x="70" y="332" width="12" height="12" fill="#9467bd" fill-opacity="0.95"/>
<text x="88" y="342" font-size="11" fill="#333" font-family="Arial, Helvetica, sans-serif">nsc1.utdallas.edu</text>
<rect x="350" y="332" width="12" height="12" fill="#9467bd" fill-opacity="0.80"/>
<text x="368" y="342" font-size="11" fill="#333" font-family="Arial, Helvetica, sans-serif">nsc2.utdallas.edu</text>
<rect x="630" y="332" width="12" height="12" fill="#9467bd" fill-opacity="0.65"/>
<text x="648" y="342" font-size="11" fill="#333" font-family="Arial, Helvetica, sans-serif">nsc3.utdallas.edu</text>
<rect x="910" y="332" width="12" height="12" fill="#9467bd" fill-opacity="0.50"/>
<text x="928" y="342" font-size="11" fill="#333" font-family="Arial, Helvetica, sans-serif">nsc4.utdallas.edu</text>
</svg>