<?xml version="1.0" encoding="UTF-8"?>
<svg xmlns="http://www.w3.org/2000/svg" width="1200" height="360" viewBox="0 0 1200 360" role="img" aria-label="GPU Utilization (%)">
<rect width="100%" height="100%" fill="#ffffff"/>
<text x="600.0" y="22" text-anchor="middle" font-size="16" font-family="Arial, Helvetica, sans-serif" font-weight="bold">GPU Utilization (%)</text>
<line x1="70" y1="35.00" x2="1180" y2="35.00" stroke="#e3e3e3" stroke-width="1"/>
<text x="62" y="39.00" text-anchor="end" font-size="11" fill="#444" font-family="Arial, Helvetica, sans-serif">100</text>
<line x1="70" y1="89.00" x2="1180" y2="89.00" stroke="#e3e3e3" stroke-width="1"/>
<text x="62" y="93.00" text-anchor="end" font-size="11" fill="#444" font-family="Arial, Helvetica, sans-serif">80</text>
<line x1="70" y1="143.00" x2="1180" y2="143.00" stroke="#e3e3e3" stroke-width="1"/>
<text x="62" y="147.00" text-anchor="end" font-size="11" fill="#444" font-family="Arial, Helvetica, sans-serif">60</text>
<line x1="70" y1="197.00" x2="1180" y2="197.00" stroke="#e3e3e3" stroke-width="1"/>
<text x="62" y="201.00" text-anchor="end" font-size="11" fill="#444" font-family="Arial, Helvetica, sans-serif">40</text>
<line x1="70" y1="251.00" x2="1180" y2="251.00" stroke="#e3e3e3" stroke-width="1"/>
<text x="62" y="255.00" text-anchor="end" font-size="11" fill="#444" font-family="Arial, Helvetica, sans-serif">20</text>
<line x1="70" y1="305.00" x2="1180" y2="305.00" stroke="#e3e3e3" stroke-width="1"/>
<text x="62" y="309.00" text-anchor="end" font-size="11" fill="#444" font-family="Arial, Helvetica, sans-serif">0</text>
<line x1="70" y1="35" x2="70" y2="305" stroke="#999"/>
<line x1="70" y1="305" x2="1180" y2="305" stroke="#999"/>
<text x="70.00" y="323" text-anchor="middle" font-size="10" fill="#444" font-family="Arial, Helvetica, sans-serif">2026-02-11 16:38</text>
<text x="347.50" y="323" text-anchor="middle" font-size="10" fill="#444" font-family="Arial, Helvetica, sans-serif">2026-02-13 00:06</text>
<text x="625.00" y="323" text-anchor="middle" font-size="10" fill="#444" font-family="Arial, Helvetica, sans-serif">2026-02-14 07:35</text>
<text x="902.50" y="323" text-anchor="middle" font-size="10" fill="#444" font-family="Arial, Helvetica, sans-serif">2026-02-15 15:04</text>
<text x="1180.00" y="323" text-anchor="middle" font-size="10" fill="#444" font-family="Arial, Helvetica, sans-serif">2026-02-16 22:32</text>
<polyline fill="none" stroke="#9467bd" stroke-opacity="0.95" stroke-width="2" points="70.79,305.00 71.58,305.00 72.37,305.00 73.17,305.00 73.96,305.00 74.75,305.00 75.54,305.00 76.40,305.00 77.18,305.00 77.97,305.00 78.76,305.00 79.56,305.00 80.35,305.00 81.13,305.00 82.55,305.00 83.78,305.00 84.58,305.00 85.39,305.00 86.18,305.00 86.97,305.00 87.74,305.00 88.54,305.00 89.33,305.00 90.12,305.00 90.92,305.00 91.73,305.00 92.52,305.00 93.31,305.00 94.14,305.00 94.94,305.00 95.73,305.00 96.54,305.00 97.33,305.00 98.12,305.00 98.94,305.00 99.72,305.00 100.51,305.00 101.32,305.00 102.10,305.00 102.89,305.00 103.67,305.00 104.46,305.00 105.25,305.00 106.04,305.00 106.85,305.00 107.64,305.00 108.43,305.00 109.21,305.00 110.01,305.00 110.80,305.00 111.71,305.00 112.50,305.00 113.29,305.00 114.07,305.00 114.86,305.00 115.64,305.00 116.43,305.00 117.22,305.00 118.01,305.00 118.81,305.00 119.60,305.00 120.38,305.00 121.18,305.00 121.98,305.00 122.77,305.00 123.56,305.00 124.34,305.00 125.13,305.00 125.91,305.00 126.70,305.00 127.48,305.00 128.27,305.00 129.06,305.00 129.85,305.00 130.64,305.00 131.42,305.00 132.22,305.00 133.00,305.00 133.79,305.00 134.60,305.00 135.39,305.00 136.18,305.00 136.97,305.00 137.76,305.00 138.55,305.00 139.34,305.00 140.12,305.00 140.91,305.00 141.70,305.00 142.50,305.00 143.29,305.00 144.08,305.00 144.86,305.00 145.66,305.00 146.44,305.00 147.23,305.00 148.01,305.00 148.80,305.00 149.59,305.00 150.38,305.00 151.18,305.00 151.97,305.00 152.76,305.00 153.56,305.00 154.35,305.00 155.14,305.00 155.93,305.00 156.72,305.00 157.50,305.00 158.30,305.00 159.09,305.00 159.88,305.00 160.67,305.00 161.46,305.00 162.26,305.00 163.05,305.00 163.85,305.00 164.64,305.00 165.43,305.00 166.22,305.00 167.01,305.00 167.80,305.00 168.60,305.00 169.45,305.00 170.24,305.00 171.04,305.00 171.83,305.00 172.61,305.00 173.39,305.00 174.17,305.00 174.96,305.00 175.75,305.00 176.54,305.00 177.33,305.00 178.11,305.00 178.90,305.00 179.69,305.00 180.49,305.00 181.28,305.00 182.07,305.00 182.85,305.00 183.64,305.00 184.43,305.00 185.22,305.00 186.02,305.00 186.81,305.00 187.60,305.00 188.39,305.00 189.17,305.00 189.96,305.00 190.74,305.00 191.53,305.00 192.33,305.00 193.12,305.00 193.92,305.00 194.70,305.00 195.50,305.00 196.29,305.00 197.08,305.00 197.87,305.00 198.66,305.00 199.46,305.00 200.26,305.00 201.05,305.00 201.84,305.00 202.63,305.00 203.41,305.00 204.20,305.00 204.99,305.00 205.78,305.00 206.56,305.00 207.34,305.00 208.14,305.00 208.93,305.00 209.73,305.00 210.52,305.00 211.32,305.00 212.11,305.00 212.90,305.00 213.69,305.00 214.47,305.00 215.33,305.00 216.14,305.00 216.92,305.00 217.71,305.00 218.49,305.00 219.28,305.00 220.07,305.00 220.86,305.00 221.65,305.00 222.44,305.00 223.23,305.00 224.02,305.00 224.83,305.00 225.61,305.00 226.40,305.00 227.19,305.00 227.98,305.00 228.79,305.00 229.60,305.00 230.38,305.00 231.17,305.00 231.96,305.00 232.75,305.00 233.54,305.00 234.33,305.00 235.13,305.00 235.92,305.00 236.70,305.00 237.50,305.00 238.29,305.00 239.08,305.00 239.87,305.00 240.67,305.00 241.46,305.00 242.25,305.00 243.03,305.00 243.82,305.00 244.61,305.00 245.40,305.00 246.19,305.00 246.97,305.00 247.76,305.00 248.54,305.00 249.34,305.00 250.13,305.00 250.92,305.00 251.72,305.00 252.52,305.00 253.31,305.00 254.10,305.00 254.89,305.00 255.68,305.00 256.47,305.00 257.26,305.00 258.07,305.00 258.86,305.00 259.65,305.00 260.44,305.00 261.23,305.00 262.02,305.00 262.81,305.00 263.59,305.00 264.39,305.00 265.18,305.00 265.97,305.00 266.76,305.00 267.56,305.00 268.35,305.00 269.14,305.00 269.93,305.00 270.73,305.00 271.52,305.00 272.31,305.00 273.10,305.00 273.90,305.00 274.69,305.00 275.48,305.00 276.27,305.00 277.15,305.00 277.94,305.00 278.73,305.00 279.53,305.00 280.32,305.00 281.12,305.00 281.91,305.00 282.70,305.00 283.48,305.00 284.30,80.90 285.10,72.80 285.88,305.00 286.67,305.00 287.46,305.00 288.25,305.00 289.05,305.00 289.87,305.00 290.66,305.00 291.45,305.00 292.25,305.00 293.10,305.00 293.89,305.00 294.88,305.00 296.22,305.00 297.03,305.00 297.84,305.00 298.63,305.00 299.40,305.00 300.19,305.00 300.99,305.00 301.78,305.00 302.58,305.00 303.40,305.00 304.22,305.00 305.06,305.00 305.85,305.00 306.64,305.00 307.43,305.00 308.23,305.00 309.03,305.00 309.83,305.00 310.62,305.00 311.41,305.00 312.23,305.00 313.02,305.00 313.80,305.00 314.60,305.00 315.40,305.00 316.22,305.00 317.02,305.00 317.81,305.00 318.62,305.00 319.38,305.00 320.16,305.00 320.97,305.00 321.76,305.00 322.56,305.00 323.37,305.00 324.17,305.00 324.96,305.00 325.76,305.00 326.56,305.00 327.35,305.00 328.13,305.00 328.92,305.00 329.71,305.00 330.51,305.00 331.29,305.00 332.23,305.00 333.16,305.00 334.10,305.00 335.02,305.00 335.92,305.00 336.83,305.00 337.77,305.00 338.69,305.00 339.48,305.00 340.26,305.00 341.05,305.00 341.84,305.00 342.63,305.00 343.41,305.00 344.20,305.00 344.99,305.00 345.78,305.00 346.57,305.00 347.35,305.00 348.14,305.00 348.93,305.00 349.71,305.00 350.50,305.00 351.29,305.00 352.08,305.00 352.86,305.00 353.65,305.00 354.45,305.00 355.23,305.00 356.01,305.00 356.80,305.00 357.59,305.00 358.38,305.00 359.17,305.00 359.96,305.00 360.75,305.00 361.54,305.00 362.32,305.00 363.11,305.00 363.90,305.00 364.68,305.00 365.47,305.00 366.25,305.00 367.03,305.00 367.82,305.00 368.60,305.00 369.39,305.00 370.17,305.00 370.96,305.00 371.75,305.00 372.53,305.00 373.31,305.00 374.09,305.00 374.90,305.00 375.75,305.00 376.55,305.00 377.34,305.00 378.12,305.00 378.91,305.00 379.69,305.00 380.47,305.00 381.26,305.00 382.19,305.00 383.12,305.00 384.04,305.00 384.96,305.00 385.89,305.00 386.81,305.00 387.76,305.00 388.71,305.00 389.58,305.00 390.42,305.00 391.21,305.00 392.01,305.00 392.80,305.00 393.58,305.00 394.37,305.00 395.16,305.00 395.95,305.00 396.74,305.00 397.52,305.00 398.31,305.00 399.10,305.00 399.89,305.00 400.69,305.00 401.47,305.00 402.26,305.00 402.95,305.00 403.77,305.00 404.55,305.00 405.36,305.00 406.15,305.00 406.94,305.00 407.73,305.00 408.53,305.00 409.32,305.00 410.12,305.00 410.91,305.00 411.72,305.00 412.50,305.00 413.28,305.00 414.08,305.00 414.86,305.00 415.64,305.00 416.43,305.00 417.22,305.00 418.01,305.00 418.80,305.00 419.59,305.00 420.37,305.00 421.17,305.00 421.96,305.00 422.75,305.00 423.55,305.00 424.34,305.00 425.12,305.00 425.92,305.00 426.71,305.00 427.53,305.00 428.31,305.00 429.09,305.00 429.88,305.00 430.66,305.00 431.45,305.00 432.25,305.00 433.03,305.00 433.82,305.00 434.61,305.00 435.39,305.00 436.18,305.00 436.97,305.00 437.77,305.00 438.56,305.00 439.51,305.00 440.32,305.00 441.13,305.00 441.93,305.00 442.72,305.00 443.52,305.00 444.30,305.00 445.09,305.00 445.88,305.00 446.68,305.00 447.47,305.00 448.26,305.00 449.05,305.00 449.84,305.00 450.66,305.00 451.46,305.00 452.25,305.00 453.04,305.00 453.84,305.00 454.62,305.00 455.41,305.00 456.20,305.00 457.02,305.00 457.82,305.00 458.61,305.00 459.40,305.00 460.19,305.00 460.99,305.00 461.77,305.00 462.56,305.00 463.36,305.00 464.15,305.00 464.94,305.00 465.73,305.00 466.52,305.00 467.31,305.00 468.10,305.00 468.90,305.00 469.70,305.00 470.48,305.00 471.27,305.00 472.06,305.00 472.86,305.00 473.66,305.00 474.61,305.00 475.42,305.00 476.21,305.00 477.00,305.00 477.78,305.00 478.58,305.00 479.37,305.00 480.16,305.00 480.97,305.00 481.76,305.00 482.54,305.00 483.33,305.00 484.12,305.00 484.91,305.00 485.70,305.00 486.49,305.00 487.28,305.00 488.07,305.00 488.85,305.00 489.64,305.00 490.44,305.00 491.23,305.00 492.02,305.00 492.82,305.00 493.61,305.00 494.40,305.00 495.19,305.00 495.98,305.00 496.80,305.00 497.58,305.00 498.37,305.00 499.17,305.00 499.96,305.00 500.75,305.00 501.54,305.00 502.33,305.00 503.14,305.00 503.93,305.00 504.72,305.00 505.50,305.00 506.29,305.00 507.08,305.00 507.87,305.00 508.66,305.00 509.46,305.00 510.26,305.00 511.05,305.00 511.83,305.00 512.63,305.00 513.41,305.00 514.21,305.00 514.99,305.00 515.79,305.00 516.57,305.00 517.37,305.00 518.16,305.00 518.95,305.00 519.75,305.00 520.55,305.00 521.34,305.00 522.13,305.00 522.93,305.00 523.82,305.00 524.69,305.00 525.53,305.00 526.33,305.00 527.16,305.00 527.95,305.00 528.74,305.00 529.53,305.00 530.26,305.00 531.09,305.00 531.88,305.00 532.68,305.00 533.46,305.00 534.25,305.00 535.04,305.00 535.84,305.00 536.62,305.00 537.42,305.00 538.21,305.00 539.00,305.00 539.79,305.00 540.59,305.00 541.39,305.00 542.19,305.00 542.98,305.00 543.77,305.00 544.56,305.00 545.37,305.00 546.16,305.00 546.95,305.00 547.74,305.00 548.53,305.00 549.32,305.00 550.11,305.00 550.90,305.00 551.69,305.00 552.49,305.00 553.28,305.00 554.07,305.00 554.86,305.00 555.65,305.00 556.45,305.00 557.24,305.00 558.03,305.00 558.82,305.00 559.62,305.00 560.41,305.00 561.21,305.00 562.01,305.00 562.80,305.00 563.59,305.00 564.39,305.00 565.18,305.00 565.98,305.00 566.80,305.00 567.59,305.00 568.38,305.00 569.17,305.00 569.96,305.00 570.75,305.00 571.55,305.00 572.34,305.00 573.14,305.00 573.93,305.00 574.72,305.00 575.52,305.00 576.31,305.00 577.11,305.00 577.90,305.00 578.70,305.00 579.50,305.00 580.29,305.00 581.10,305.00 581.89,305.00 582.68,305.00 583.47,305.00 584.27,305.00 585.08,305.00 585.87,305.00 586.67,305.00 587.47,305.00 588.25,305.00 589.04,305.00 589.84,305.00 590.63,305.00 591.43,305.00 592.22,305.00 593.01,305.00 593.80,305.00 594.60,305.00 595.39,305.00 596.19,305.00 596.98,305.00 597.78,305.00 598.57,305.00 599.37,305.00 600.16,305.00 600.95,305.00 601.74,305.00 602.52,305.00 603.32,305.00 604.11,305.00 604.91,305.00 605.71,305.00 606.50,305.00 607.29,305.00 608.09,305.00 608.89,305.00 609.68,305.00 610.48,305.00 611.28,305.00 612.07,305.00 612.87,305.00 613.66,305.00 614.46,305.00 615.26,305.00 616.05,305.00 616.86,305.00 617.66,305.00 618.46,305.00 619.25,305.00 620.04,305.00 620.84,305.00 621.64,305.00 622.44,305.00 623.24,305.00 624.03,305.00 624.82,305.00 625.61,305.00 626.42,305.00 627.21,305.00 628.01,305.00 628.80,305.00 629.59,305.00 630.38,305.00 631.17,305.00 631.96,305.00 632.75,305.00 633.55,305.00 634.34,305.00 635.13,305.00 635.93,305.00 636.72,305.00 637.54,305.00 638.33,305.00 639.12,305.00 639.92,305.00 640.70,305.00 641.50,305.00 642.29,305.00 643.09,305.00 643.88,305.00 644.67,305.00 645.47,305.00 646.27,305.00 647.06,305.00 647.85,305.00 648.65,305.00 649.47,305.00 650.27,305.00 651.07,305.00 651.87,305.00 652.66,305.00 653.46,305.00 654.25,305.00 655.04,305.00 655.83,305.00 656.63,305.00 657.42,305.00 658.22,305.00 659.02,305.00 659.82,305.00 660.65,305.00 661.44,305.00 662.23,305.00 663.03,305.00 663.82,305.00 664.62,305.00 665.42,305.00 666.22,305.00 667.02,305.00 667.82,305.00 668.61,305.00 669.41,305.00 670.21,305.00 671.00,305.00 671.80,305.00 672.59,305.00 673.38,305.00 674.18,305.00 674.98,305.00 675.78,305.00 676.57,305.00 677.37,305.00 678.17,305.00 678.96,305.00 679.76,305.00 680.56,305.00 681.38,305.00 682.17,305.00 682.98,305.00 683.77,305.00 684.58,305.00 685.40,305.00 686.21,305.00 687.01,305.00 687.83,305.00 688.63,305.00 689.42,305.00 690.22,305.00 691.02,305.00 691.81,305.00 692.61,305.00 693.43,305.00 694.22,305.00 695.02,305.00 695.81,305.00 696.60,305.00 697.40,305.00 698.19,305.00 698.98,305.00 699.78,305.00 700.57,305.00 701.36,305.00 702.15,305.00 702.94,305.00 703.73,305.00 704.53,305.00 705.33,305.00 706.12,305.00 706.92,305.00 707.72,305.00 708.51,305.00 709.31,305.00 710.10,305.00 710.90,305.00 711.69,305.00 712.48,305.00 713.28,305.00 714.08,305.00 714.86,305.00 715.65,305.00 716.44,305.00 717.23,305.00 718.03,305.00 718.82,305.00 719.62,305.00 720.41,305.00 721.20,305.00 721.99,305.00 722.79,305.00 723.58,305.00 724.36,305.00 725.15,305.00 725.93,305.00 726.73,305.00 727.52,305.00 728.33,305.00 729.12,305.00 729.91,305.00 730.71,305.00 731.52,305.00 732.32,305.00 733.11,305.00 733.91,305.00 734.70,305.00 735.49,305.00 736.30,305.00 737.09,305.00 737.90,305.00 738.70,305.00 739.49,305.00 740.28,305.00 741.07,305.00 741.86,305.00 742.65,305.00 743.45,305.00 744.23,305.00 745.02,305.00 745.82,305.00 746.62,305.00 747.41,305.00 748.20,305.00 748.99,305.00 749.78,305.00 750.58,305.00 751.38,305.00 752.17,305.00 752.97,305.00 753.76,305.00 754.56,305.00 755.35,305.00 756.14,305.00 756.94,305.00 757.73,305.00 758.52,305.00 759.32,305.00 760.12,305.00 760.91,305.00 761.70,305.00 762.49,305.00 763.32,305.00 764.11,305.00 764.92,305.00 765.72,305.00 766.52,305.00 767.31,305.00 768.11,305.00 768.91,305.00 769.70,305.00 770.49,305.00 771.30,305.00 772.11,305.00 772.90,305.00 773.70,305.00 774.49,305.00 775.28,305.00 776.09,305.00 776.88,305.00 777.67,305.00 778.46,305.00 779.26,305.00 780.05,305.00 780.84,305.00 781.63,305.00 782.43,305.00 783.22,305.00 784.01,305.00 784.80,305.00 785.59,305.00 786.38,305.00 787.20,305.00 787.98,305.00 788.77,305.00 789.57,305.00 790.36,305.00 791.15,305.00 791.95,305.00 792.74,305.00 793.55,305.00 794.34,305.00 795.13,305.00 795.92,305.00 796.72,305.00 797.51,305.00 798.30,305.00 799.11,305.00 799.92,305.00 800.72,305.00 801.54,305.00 802.34,305.00 803.16,305.00 803.97,305.00 804.78,305.00 805.60,305.00 806.41,305.00 807.23,305.00 808.02,305.00 808.81,305.00 809.61,305.00 810.41,305.00 811.21,305.00 812.01,305.00 812.80,305.00 813.60,305.00 814.40,305.00 815.19,305.00 815.98,305.00 816.77,305.00 817.57,305.00 818.36,305.00 819.15,305.00 819.95,305.00 820.74,305.00 821.53,305.00 822.34,305.00 823.14,305.00 823.93,305.00 824.72,305.00 825.52,305.00 826.31,305.00 827.11,305.00 827.91,305.00 828.70,305.00 829.49,305.00 830.29,305.00 831.08,305.00 831.87,305.00 832.67,305.00 833.46,305.00 834.26,305.00 835.11,305.00 835.93,305.00 836.72,305.00 837.52,305.00 838.30,305.00 839.11,305.00 839.92,305.00 840.72,305.00 841.51,305.00 842.30,305.00 843.08,305.00 843.87,305.00 844.66,305.00 845.46,305.00 846.26,305.00 847.05,305.00 847.85,305.00 848.65,305.00 849.45,305.00 850.24,305.00 851.03,305.00 851.82,305.00 852.62,305.00 853.42,305.00 854.21,305.00 855.00,305.00 855.80,305.00 856.60,305.00 857.39,305.00 858.22,305.00 859.02,305.00 859.81,305.00 860.60,305.00 861.40,305.00 862.19,305.00 863.00,305.00 863.79,305.00 864.58,305.00 865.38,305.00 866.18,305.00 866.98,305.00 867.79,305.00 868.59,305.00 869.38,305.00 870.17,305.00 870.97,305.00 871.76,305.00 872.56,305.00 873.34,305.00 874.15,305.00 874.95,305.00 875.74,305.00 876.53,305.00 877.32,305.00 878.12,305.00 878.91,305.00 879.70,305.00 880.50,305.00 881.29,305.00 882.09,305.00 882.88,305.00 883.68,305.00 884.47,305.00 885.27,305.00 886.06,305.00 886.86,305.00 887.65,305.00 888.44,305.00 889.23,305.00 890.02,305.00 890.82,305.00 891.61,305.00 892.43,305.00 893.22,305.00 894.02,305.00 894.82,305.00 895.61,305.00 896.42,305.00 897.28,305.00 898.09,305.00 898.89,305.00 899.69,305.00 900.49,305.00 901.29,305.00 902.08,305.00 902.88,305.00 903.67,305.00 904.46,305.00 905.27,305.00 906.06,305.00 906.85,305.00 907.67,305.00 908.47,305.00 909.26,305.00 910.06,305.00 910.85,305.00 911.65,305.00 912.45,305.00 913.24,305.00 914.03,305.00 914.84,305.00 915.63,305.00 916.43,305.00 917.23,305.00 918.03,305.00 918.82,305.00 919.63,305.00 920.43,305.00 921.23,305.00 922.01,305.00 922.81,305.00 923.61,305.00 924.40,305.00 925.19,305.00 925.99,305.00 926.78,305.00 927.58,305.00 928.38,305.00 929.16,305.00 929.96,305.00 930.76,305.00 931.56,305.00 932.35,305.00 933.15,305.00 933.94,305.00 934.75,305.00 935.55,305.00 936.32,305.00 937.10,305.00 937.89,305.00 938.69,305.00 939.49,305.00 940.28,305.00 941.09,305.00 941.88,305.00 942.69,305.00 943.49,305.00 944.28,305.00 945.08,305.00 945.86,305.00 946.66,305.00 947.44,305.00 948.23,305.00 949.03,305.00 949.83,305.00 950.62,305.00 951.41,305.00 952.20,305.00 953.00,305.00 953.79,305.00 954.59,305.00 955.37,305.00 956.16,305.00 956.93,305.00 957.75,305.00 958.54,305.00 959.34,305.00 960.14,305.00 960.94,305.00 961.73,305.00 962.52,305.00 963.32,305.00 964.12,305.00 964.91,305.00 965.70,305.00 966.56,305.00 967.35,305.00 968.16,305.00 968.95,305.00 969.76,305.00 970.54,305.00 971.34,305.00 972.14,305.00 972.93,305.00 973.72,305.00 974.52,305.00 975.31,305.00 976.11,305.00 976.91,305.00 977.71,305.00 978.50,305.00 979.29,305.00 980.09,305.00 980.88,305.00 981.69,305.00 982.48,305.00 983.29,305.00 984.10,305.00 984.90,305.00 985.69,305.00 986.49,305.00 987.29,305.00 988.09,305.00 988.89,305.00 989.68,305.00 990.47,305.00 991.27,305.00 992.06,305.00 992.86,305.00 993.66,305.00 994.45,305.00 995.25,305.00 996.04,305.00 996.83,305.00 997.62,305.00 998.42,305.00 999.22,305.00 1000.00,305.00 1000.80,305.00 1001.60,305.00 1002.38,305.00 1003.17,305.00 1003.96,305.00 1004.75,305.00 1005.54,305.00 1006.33,305.00 1007.13,305.00 1007.92,305.00 1008.70,305.00 1009.50,305.00 1010.29,305.00 1011.09,305.00 1011.88,305.00 1012.67,305.00 1013.45,305.00 1014.25,305.00 1015.06,305.00 1015.84,305.00 1016.63,305.00 1017.43,305.00 1018.26,305.00 1019.05,305.00 1019.85,305.00 1020.65,305.00 1021.45,305.00 1022.24,305.00 1023.04,305.00 1023.84,305.00 1024.63,305.00 1025.42,305.00 1026.21,305.00 1027.00,305.00 1027.80,305.00 1028.60,305.00 1029.39,305.00 1030.18,305.00 1030.97,305.00 1031.76,305.00 1032.55,305.00 1033.35,305.00 1034.15,305.00 1034.98,305.00 1035.77,305.00 1036.56,305.00 1037.35,305.00 1038.13,305.00 1038.94,305.00 1039.73,305.00 1040.53,305.00 1041.33,305.00 1042.12,305.00 1042.92,305.00 1043.71,305.00 1044.51,305.00 1045.31,305.00 1046.10,305.00 1046.89,305.00 1047.69,305.00 1048.48,305.00 1049.27,305.00 1050.06,305.00 1050.85,305.00 1051.65,305.00 1052.44,305.00 1053.23,305.00 1054.02,305.00 1054.82,305.00 1055.61,305.00 1056.41,305.00 1057.20,305.00 1057.99,305.00 1058.79,305.00 1059.58,305.00 1060.37,305.00 1061.18,305.00 1061.96,305.00 1062.76,305.00 1063.55,305.00 1064.34,305.00 1065.13,305.00 1065.92,305.00 1066.72,305.00 1067.51,305.00 1068.33,305.00 1069.12,305.00 1069.91,305.00 1070.70,305.00 1071.50,305.00 1072.30,305.00 1073.11,305.00 1074.75,305.00 1075.55,305.00 1076.40,305.00 1077.20,305.00 1077.98,305.00 1078.77,305.00 1079.57,305.00 1080.36,305.00 1081.15,305.00 1081.95,305.00 1082.74,305.00 1083.53,305.00 1084.33,305.00 1085.12,305.00 1085.91,305.00 1086.70,305.00 1087.50,305.00 1088.29,305.00 1089.08,305.00 1089.87,305.00 1090.67,305.00 1091.46,305.00 1092.26,305.00 1093.05,305.00 1093.84,305.00 1094.63,305.00 1095.43,305.00 1096.23,305.00 1097.02,305.00 1097.82,305.00 1098.61,305.00 1099.41,305.00 1100.19,305.00 1100.98,305.00 1101.78,305.00 1102.57,305.00 1103.36,305.00 1104.15,305.00 1104.93,305.00 1105.72,305.00 1106.52,305.00 1107.31,305.00 1108.11,305.00 1108.91,305.00 1109.73,305.00 1110.53,305.00 1111.32,305.00 1112.11,305.00 1112.90,305.00 1113.68,305.00 1114.47,305.00 1115.27,305.00 1116.06,305.00 1116.85,305.00 1117.64,305.00 1118.42,305.00 1119.21,305.00 1120.00,305.00 1120.80,305.00 1121.59,305.00 1122.38,305.00 1123.18,305.00 1123.97,305.00 1124.76,305.00 1125.56,305.00 1126.35,305.00 1127.14,305.00 1127.94,305.00 1128.73,305.00 1129.52,305.00 1130.33,305.00 1131.12,305.00 1131.93,305.00 1132.71,305.00 1133.50,305.00 1134.30,305.00 1135.09,305.00 1135.88,305.00 1136.70,305.00 1137.50,305.00 1138.30,305.00 1139.10,305.00 1139.89,305.00 1140.68,305.00 1141.47,305.00 1142.27,305.00 1143.07,305.00 1143.86,305.00 1144.65,305.00 1145.44,305.00 1146.24,305.00 1147.04,305.00 1147.84,305.00 1148.65,305.00 1149.46,305.00 1150.30,305.00 1151.11,305.00 1151.90,305.00 1152.69,305.00 1153.48,305.00 1154.28,305.00 1155.07,305.00 1155.86,305.00 1156.66,305.00 1157.46,305.00 1158.26,305.00 1159.04,305.00 1159.83,305.00 1160.63,305.00 1161.42,305.00 1162.22,305.00 1163.04,305.00 1163.85,305.00 1164.64,305.00 1165.45,305.00 1166.28,305.00 1167.08,305.00 1167.92,305.00 1168.72,305.00 1169.51,305.00 1170.31,305.00 1171.10,305.00 1171.90,305.00 1172.69,305.00 1173.48,305.00 1174.27,305.00 1175.07,305.00 1175.86,305.00 1176.67,305.00 1177.47,305.00 1178.26,305.00 1179.07,305.00 1180.00,305.00"/>
<polyline fill="none" stroke="#9467bd" stroke-opacity="0.80" stroke-width="2" points="70.00,305.00 70.79,305.00 71.58,305.00 72.37,305.00 73.17,305.00 73.96,305.00 74.75,305.00 75.54,305.00 76.40,305.00 77.18,305.00 77.97,305.00 78.76,305.00 79.56,305.00 80.35,305.00 81.13,305.00 82.55,305.00 83.78,305.00 84.58,305.00 85.39,305.00 86.18,305.00 86.97,305.00 87.74,305.00 88.54,305.00 89.33,305.00 90.12,305.00 90.92,305.00 91.73,305.00 92.52,305.00 93.31,305.00 94.14,305.00 94.94,305.00 95.73,305.00 96.54,305.00 97.33,305.00 98.12,305.00 98.94,305.00 99.72,305.00 100.51,305.00 101.32,305.00 102.10,305.00 102.89,305.00 103.67,305.00 104.46,305.00 105.25,305.00 106.04,305.00 106.85,305.00 107.64,305.00 108.43,305.00 109.21,305.00 110.01,305.00 110.80,305.00 111.71,305.00 112.50,305.00 113.29,305.00 114.07,305.00 114.86,305.00 115.64,305.00 116.43,305.00 117.22,305.00 118.01,305.00 118.81,305.00 119.60,305.00 120.38,305.00 121.18,305.00 121.98,305.00 122.77,305.00 123.56,305.00 124.34,305.00 125.13,305.00 125.91,305.00 126.70,305.00 127.48,305.00 128.27,305.00 129.06,305.00 129.85,305.00 130.64,305.00 131.42,305.00 132.22,305.00 133.00,305.00 133.79,305.00 134.60,305.00 135.39,305.00 136.18,305.00 136.97,305.00 137.76,305.00 138.55,305.00 139.34,305.00 140.12,305.00 140.91,305.00 141.70,305.00 142.50,305.00 143.29,305.00 144.08,305.00 144.86,305.00 145.66,305.00 146.44,305.00 147.23,305.00 148.01,305.00 148.80,305.00 149.59,305.00 150.38,305.00 151.18,305.00 151.97,305.00 152.76,305.00 153.56,305.00 154.35,305.00 155.14,305.00 155.93,305.00 156.72,305.00 157.50,305.00 158.30,305.00 159.09,305.00 159.88,305.00 160.67,305.00 161.46,305.00 162.26,305.00 163.05,305.00 163.85,305.00 164.64,305.00 165.43,305.00 166.22,305.00 167.01,305.00 167.80,305.00 168.60,305.00 169.45,305.00 170.24,305.00 171.04,305.00 171.83,305.00 172.61,305.00 173.39,305.00 174.17,305.00 174.96,305.00 175.75,305.00 176.54,305.00 177.33,305.00 178.11,305.00 178.90,305.00 179.69,305.00 180.49,305.00 181.28,305.00 182.07,305.00 182.85,305.00 183.64,305.00 184.43,305.00 185.22,305.00 186.02,305.00 186.81,305.00 187.60,305.00 188.39,305.00 189.17,305.00 189.96,305.00 190.74,305.00 191.53,305.00 192.33,305.00 193.12,305.00 193.92,305.00 194.70,305.00 195.50,305.00 196.29,305.00 197.08,305.00 197.87,305.00 198.66,305.00 199.46,305.00 200.26,305.00 201.05,305.00 201.84,305.00 202.63,305.00 203.41,305.00 204.20,305.00 204.99,305.00 205.78,305.00 206.56,305.00 207.34,305.00 208.14,305.00 208.93,305.00 209.73,305.00 210.52,305.00 211.32,305.00 212.11,305.00 212.90,305.00 213.69,305.00 214.47,305.00 215.33,305.00 216.14,305.00 216.92,305.00 217.71,305.00 218.49,305.00 219.28,305.00 220.07,305.00 220.86,305.00 221.65,305.00 222.44,305.00 223.23,305.00 224.02,305.00 224.83,305.00 225.61,305.00 226.40,305.00 227.19,305.00 227.98,305.00 228.79,305.00 229.60,305.00 230.38,305.00 231.17,305.00 231.96,305.00 232.75,305.00 233.54,305.00 234.33,305.00 235.13,305.00 235.92,305.00 236.70,305.00 237.50,305.00 238.29,305.00 239.08,305.00 239.87,305.00 240.67,305.00 241.46,305.00 242.25,305.00 243.03,305.00 243.82,305.00 244.61,305.00 245.40,305.00 246.19,305.00 246.97,305.00 247.76,305.00 248.54,305.00 249.34,305.00 250.13,305.00 250.92,305.00 251.72,305.00 252.52,305.00 253.31,305.00 254.10,305.00 254.89,305.00 255.68,305.00 256.47,305.00 257.26,305.00 258.07,305.00 258.86,305.00 259.65,305.00 260.44,305.00 261.23,305.00 262.02,305.00 262.81,305.00 263.59,305.00 264.39,305.00 265.18,305.00 265.97,305.00 266.76,305.00 267.56,305.00 268.35,305.00 269.14,305.00 269.93,305.00 270.73,305.00 271.52,305.00 272.31,305.00 273.10,305.00 273.90,305.00 274.69,305.00 275.48,305.00 276.27,305.00 277.15,305.00 277.94,305.00 278.73,305.00 279.53,305.00 280.32,305.00 281.12,305.00 281.91,305.00 282.70,305.00 283.48,305.00 284.30,305.00 285.10,305.00 285.88,305.00 286.67,305.00 287.46,305.00 288.25,305.00 289.05,305.00 289.87,305.00 290.66,305.00 291.45,305.00 292.25,305.00 293.10,305.00 293.89,305.00 294.88,305.00 296.22,305.00 297.03,305.00 297.84,305.00 298.63,305.00 299.40,305.00 300.19,305.00 300.99,305.00 301.78,305.00 302.58,305.00 303.40,305.00 304.22,305.00 305.06,305.00 305.85,305.00 306.64,305.00 307.43,305.00 308.23,305.00 309.03,305.00 309.83,305.00 310.62,305.00 311.41,305.00 312.23,305.00 313.02,305.00 313.80,305.00 314.60,305.00 315.40,305.00 316.22,305.00 317.02,305.00 317.81,305.00 318.62,305.00 319.38,305.00 320.16,305.00 320.97,305.00 321.76,305.00 322.56,305.00 323.37,305.00 324.17,305.00 324.96,305.00 325.76,305.00 326.56,305.00 327.35,305.00 328.13,305.00 328.92,305.00 329.71,305.00 330.51,305.00 331.29,305.00 332.23,305.00 333.16,305.00 334.10,305.00 335.02,305.00 335.92,305.00 336.83,305.00 337.77,305.00 338.69,305.00 339.48,305.00 340.26,305.00 341.05,305.00 341.84,305.00 342.63,305.00 343.41,305.00 344.20,305.00 344.99,305.00 345.78,305.00 346.57,305.00 347.35,305.00 348.14,305.00 348.93,305.00 349.71,305.00 350.50,305.00 351.29,305.00 352.08,305.00 352.86,305.00 353.65,305.00 354.45,305.00 355.23,305.00 356.01,305.00 356.80,305.00 357.59,305.00 358.38,305.00 359.17,305.00 359.96,305.00 360.75,305.00 361.54,305.00 362.32,305.00 363.11,305.00 363.90,305.00 364.68,305.00 365.47,305.00 366.25,305.00 367.03,305.00 367.82,305.00 368.60,305.00 369.39,305.00 370.17,305.00 370.96,305.00 371.75,305.00 372.53,305.00 373.31,305.00 374.09,305.00 374.90,305.00 375.75,305.00 376.55,305.00 377.34,305.00 378.12,305.00 378.91,305.00 379.69,305.00 380.47,305.00 381.26,305.00 382.19,305.00 383.12,305.00 384.04,305.00 384.96,305.00 385.89,305.00 386.81,305.00 387.76,305.00 388.71,305.00 389.58,305.00 390.42,305.00 391.21,305.00 392.01,305.00 392.80,305.00 393.58,305.00 394.37,305.00 395.16,305.00 395.95,305.00 396.74,305.00 397.52,305.00 398.31,305.00 399.10,305.00 399.89,305.00 400.69,305.00 401.47,305.00 402.26,305.00 402.95,305.00 403.77,305.00 404.55,305.00 405.36,305.00 406.15,305.00 406.94,305.00 407.73,305.00 408.53,305.00 409.32,305.00 410.12,305.00 410.91,305.00 411.72,305.00 412.50,305.00 413.28,305.00 414.08,305.00 414.86,305.00 415.64,305.00 416.43,305.00 417.22,305.00 418.01,305.00 418.80,305.00 419.59,305.00 420.37,305.00 421.17,305.00 421.96,305.00 422.75,305.00 423.55,305.00 424.34,305.00 425.12,305.00 425.92,305.00 426.71,305.00 427.53,305.00 428.31,305.00 429.09,305.00 429.88,305.00 430.66,305.00 431.45,305.00 432.25,305.00 433.03,305.00 433.82,305.00 434.61,305.00 435.39,305.00 436.18,305.00 436.97,305.00 437.77,305.00 438.56,305.00 439.51,305.00 440.32,305.00 441.13,305.00 441.93,305.00 442.72,305.00 443.52,305.00 444.30,305.00 445.09,305.00 445.88,305.00 446.68,305.00 447.47,305.00 448.26,305.00 449.05,305.00 449.84,305.00 450.66,305.00 451.46,305.00 452.25,305.00 453.04,305.00 453.84,305.00 454.62,305.00 455.41,305.00 456.20,305.00 457.02,305.00 457.82,305.00 458.61,305.00 459.40,305.00 460.19,305.00 460.99,305.00 461.77,305.00 462.56,305.00 463.36,305.00 464.15,305.00 464.94,305.00 465.73,305.00 466.52,305.00 467.31,305.00 468.10,305.00 468.90,305.00 469.70,305.00 470.48,305.00 471.27,305.00 472.06,305.00 472.86,305.00 473.66,305.00 474.61,305.00 475.42,305.00 476.21,305.00 477.00,305.00 477.78,305.00 478.58,305.00 479.37,305.00 480.16,305.00 480.97,305.00 481.76,305.00 482.54,305.00 483.33,305.00 484.12,305.00 484.91,305.00 485.70,305.00 486.49,305.00 487.28,305.00 488.07,305.00 488.85,305.00 489.64,305.00 490.44,305.00 491.23,305.00 492.02,305.00 492.82,305.00 493.61,305.00 494.40,305.00 495.19,305.00 495.98,305.00 496.80,305.00 497.58,305.00 498.37,305.00 499.17,305.00 499.96,305.00 500.75,305.00 501.54,305.00 502.33,305.00 503.14,305.00 503.93,305.00 504.72,305.00 505.50,305.00 506.29,305.00 507.08,305.00 507.87,305.00 508.66,305.00 509.46,305.00 510.26,305.00 511.05,305.00 511.83,305.00 512.63,305.00 513.41,305.00 514.21,305.00 514.99,305.00 515.79,305.00 516.57,305.00 517.37,305.00 518.16,305.00 518.95,305.00 519.75,305.00 520.55,305.00 521.34,305.00 522.13,305.00 522.93,305.00 523.82,305.00 524.69,305.00 525.53,305.00 526.33,305.00 527.16,305.00 527.95,305.00 528.74,305.00 529.53,305.00 530.26,305.00 531.09,305.00 531.88,305.00 532.68,305.00 533.46,305.00 534.25,305.00 535.04,305.00 535.84,305.00 536.62,305.00 537.42,305.00 538.21,305.00 539.00,305.00 539.79,305.00 540.59,305.00 541.39,305.00 542.19,305.00 542.98,305.00 543.77,305.00 544.56,305.00 545.37,305.00 546.16,305.00 546.95,305.00 547.74,305.00 548.53,305.00 549.32,305.00 550.11,305.00 550.90,305.00 551.69,305.00 552.49,305.00 553.28,305.00 554.07,305.00 554.86,305.00 555.65,305.00 556.45,305.00 557.24,305.00 558.03,305.00 558.82,305.00 559.62,305.00 560.41,305.00 561.21,305.00 562.01,305.00 562.80,305.00 563.59,305.00 564.39,305.00 565.18,305.00 565.98,305.00 566.80,305.00 567.59,305.00 568.38,305.00 569.17,305.00 569.96,305.00 570.75,305.00 571.55,305.00 572.34,305.00 573.14,305.00 573.93,305.00 574.72,305.00 575.52,305.00 576.31,305.00 577.11,305.00 577.90,305.00 578.70,305.00 579.50,305.00 580.29,305.00 581.10,305.00 581.89,305.00 582.68,305.00 583.47,305.00 584.27,305.00 585.08,305.00 585.87,305.00 586.67,305.00 587.47,305.00 588.25,305.00 589.04,305.00 589.84,305.00 590.63,305.00 591.43,305.00 592.22,305.00 593.01,305.00 593.80,305.00 594.60,305.00 595.39,305.00 596.19,305.00 596.98,305.00 597.78,305.00 598.57,305.00 599.37,305.00 600.16,305.00 600.95,305.00 601.74,305.00 602.52,305.00 603.32,305.00 604.11,305.00 604.91,305.00 605.71,305.00 606.50,305.00 607.29,305.00 608.09,305.00 608.89,305.00 609.68,305.00 610.48,305.00 611.28,305.00 612.07,305.00 612.87,305.00 613.66,305.00 614.46,305.00 615.26,305.00 616.05,305.00 616.86,305.00 617.66,305.00 618.46,305.00 619.25,305.00 620.04,305.00 620.84,305.00 621.64,305.00 622.44,305.00 623.24,305.00 624.03,305.00 624.82,305.00 625.61,305.00 626.42,305.00 627.21,305.00 628.01,305.00 628.80,305.00 629.59,305.00 630.38,305.00 631.17,305.00 631.96,305.00 632.75,305.00 633.55,305.00 634.34,305.00 635.13,305.00 635.93,305.00 636.72,305.00 637.54,305.00 638.33,305.00 639.12,305.00 639.92,305.00 640.70,305.00 641.50,305.00 642.29,305.00 643.09,305.00 643.88,305.00 644.67,305.00 645.47,305.00 646.27,305.00 647.06,305.00 647.85,305.00 648.65,305.00 649.47,305.00 650.27,305.00 651.07,305.00 651.87,305.00 652.66,305.00 653.46,305.00 654.25,305.00 655.04,305.00 655.83,305.00 656.63,305.00 657.42,305.00 658.22,305.00 659.02,305.00 659.82,305.00 660.65,305.00 661.44,305.00 662.23,305.00 663.03,305.00 663.82,305.00 664.62,305.00 665.42,305.00 666.22,305.00 667.02,305.00 667.82,305.00 668.61,305.00 669.41,305.00 670.21,305.00 671.00,305.00 671.80,305.00 672.59,305.00 673.38,305.00 674.18,305.00 674.98,305.00 675.78,305.00 676.57,305.00 677.37,305.00 678.17,305.00 678.96,305.00 679.76,305.00 680.56,305.00 681.38,305.00 682.17,305.00 682.98,305.00 683.77,305.00 684.58,305.00 685.40,305.00 686.21,305.00 687.01,305.00 687.83,305.00 688.63,305.00 689.42,305.00 690.22,305.00 691.02,305.00 691.81,305.00 692.61,305.00 693.43,305.00 694.22,305.00 695.02,305.00 695.81,305.00 696.60,305.00 697.40,305.00 698.19,305.00 698.98,305.00 699.78,305.00 700.57,305.00 701.36,305.00 702.15,305.00 702.94,305.00 703.73,305.00 704.53,305.00 705.33,305.00 706.12,305.00 706.92,305.00 707.72,305.00 708.51,305.00 709.31,305.00 710.10,305.00 710.90,305.00 711.69,305.00 712.48,305.00 713.28,305.00 714.08,305.00 714.86,305.00 715.65,305.00 716.44,305.00 717.23,305.00 718.03,305.00 718.82,305.00 719.62,305.00 720.41,305.00 721.20,305.00 721.99,305.00 722.79,305.00 723.58,305.00 724.36,305.00 725.15,305.00 725.93,305.00 726.73,305.00 727.52,305.00 728.33,305.00 729.12,305.00 729.91,305.00 730.71,305.00 731.52,305.00 732.32,305.00 733.11,305.00 733.91,305.00 734.70,305.00 735.49,305.00 736.30,305.00 737.09,305.00 737.90,305.00 738.70,305.00 739.49,305.00 740.28,305.00 741.07,305.00 741.86,305.00 742.65,305.00 743.45,305.00 744.23,305.00 745.02,305.00 745.82,305.00 746.62,305.00 747.41,305.00 748.20,305.00 748.99,305.00 749.78,305.00 750.58,305.00 751.38,305.00 752.17,305.00 752.97,305.00 753.76,305.00 754.56,305.00 755.35,305.00 756.14,305.00 756.94,305.00 757.73,305.00 758.52,305.00 759.32,305.00 760.12,305.00 760.91,305.00 761.70,305.00 762.49,305.00 763.32,305.00 764.11,305.00 764.92,305.00 765.72,305.00 766.52,305.00 767.31,305.00 768.11,305.00 768.91,305.00 769.70,305.00 770.49,305.00 771.30,305.00 772.11,305.00 772.90,305.00 773.70,305.00 774.49,305.00 775.28,305.00 776.09,305.00 776.88,305.00 777.67,305.00 778.46,305.00 779.26,305.00 780.05,305.00 780.84,305.00 781.63,305.00 782.43,305.00 783.22,305.00 784.01,305.00 784.80,305.00 785.59,305.00 786.38,305.00 787.20,305.00 787.98,305.00 788.77,305.00 789.57,305.00 790.36,305.00 791.15,305.00 791.95,305.00 792.74,305.00 793.55,305.00 794.34,305.00 795.13,305.00 795.92,305.00 796.72,305.00 797.51,305.00 798.30,305.00 799.11,305.00 799.92,305.00 800.72,305.00 801.54,305.00 802.34,305.00 803.16,305.00 803.97,305.00 804.78,305.00 805.60,305.00 806.41,305.00 807.23,305.00 808.02,305.00 808.81,305.00 809.61,305.00 810.41,305.00 811.21,305.00 812.01,305.00 812.80,305.00 813.60,305.00 814.40,305.00 815.19,305.00 815.98,305.00 816.77,305.00 817.57,305.00 818.36,305.00 819.15,305.00 819.95,305.00 820.74,305.00 821.53,305.00 822.34,305.00 823.14,305.00 823.93,305.00 824.72,305.00 825.52,305.00 826.31,305.00 827.11,305.00 827.91,305.00 828.70,305.00 829.49,305.00 830.29,305.00 831.08,305.00 831.87,305.00 832.67,305.00 833.46,305.00 834.26,305.00 835.11,305.00 835.93,305.00 836.72,305.00 837.52,305.00 838.30,305.00 839.11,305.00 839.92,305.00 840.72,305.00 841.51,305.00 842.30,305.00 843.08,305.00 843.87,305.00 844.66,305.00 845.46,305.00 846.26,305.00 847.05,305.00 847.85,305.00 848.65,305.00 849.45,305.00 850.24,305.00 851.03,305.00 851.82,305.00 852.62,305.00 853.42,305.00 854.21,305.00 855.00,305.00 855.80,305.00 856.60,305.00 857.39,305.00 858.22,305.00 859.02,305.00 859.81,305.00 860.60,305.00 861.40,305.00 862.19,305.00 863.00,305.00 863.79,305.00 864.58,305.00 865.38,305.00 866.18,305.00 866.98,305.00 867.79,305.00 868.59,305.00 869.38,305.00 870.17,305.00 870.97,305.00 871.76,305.00 872.56,305.00 873.34,305.00 874.15,305.00 874.95,305.00 875.74,305.00 876.53,305.00 877.32,305.00 878.12,305.00 878.91,305.00 879.70,305.00 880.50,305.00 881.29,305.00 882.09,305.00 882.88,305.00 883.68,305.00 884.47,305.00 885.27,305.00 886.06,305.00 886.86,305.00 887.65,305.00 888.44,305.00 889.23,305.00 890.02,305.00 890.82,305.00 891.61,305.00 892.43,305.00 893.22,305.00 894.02,305.00 894.82,305.00 895.61,305.00 896.42,305.00 897.28,305.00 898.09,305.00 898.89,305.00 899.69,305.00 900.49,305.00 901.29,305.00 902.08,305.00 902.88,305.00 903.67,305.00 904.46,305.00 905.27,305.00 906.06,305.00 906.85,305.00 907.67,305.00 908.47,305.00 909.26,305.00 910.06,305.00 910.85,305.00 911.65,305.00 912.45,305.00 913.24,305.00 914.03,305.00 914.84,305.00 915.63,305.00 916.43,305.00 917.23,305.00 918.03,305.00 918.82,305.00 919.63,305.00 920.43,305.00 921.23,305.00 922.01,305.00 922.81,305.00 923.61,305.00 924.40,305.00 925.19,305.00 925.99,305.00 926.78,305.00 927.58,305.00 928.38,305.00 929.16,305.00 929.96,305.00 930.76,305.00 931.56,305.00 932.35,305.00 933.15,305.00 933.94,305.00 934.75,305.00 935.55,305.00 936.32,305.00 937.10,305.00 937.89,305.00 938.69,305.00 939.49,305.00 940.28,305.00 941.09,305.00 941.88,305.00 942.69,305.00 943.49,305.00 944.28,305.00 945.08,305.00 945.86,305.00 946.66,305.00 947.44,305.00 948.23,305.00 949.03,305.00 949.83,305.00 950.62,305.00 951.41,305.00 952.20,305.00 953.00,305.00 953.79,305.00 954.59,305.00 955.37,305.00 956.16,305.00 956.93,305.00 957.75,305.00 958.54,305.00 959.34,305.00 960.14,305.00 960.94,305.00 961.73,305.00 962.52,305.00 963.32,305.00 964.12,305.00 964.91,305.00 965.70,305.00 966.56,305.00 967.35,305.00 968.16,305.00 968.95,305.00 969.76,305.00 970.54,305.00 971.34,305.00 972.14,305.00 972.93,305.00 973.72,305.00 974.52,305.00 975.31,305.00 976.11,305.00 976.91,305.00 977.71,305.00 978.50,305.00 979.29,305.00 980.09,305.00 980.88,305.00 981.69,305.00 982.48,305.00 983.29,305.00 984.10,305.00 984.90,305.00 985.69,305.00 986.49,305.00 987.29,305.00 988.09,305.00 988.89,305.00 989.68,305.00 990.47,305.00 991.27,305.00 992.06,305.00 992.86,305.00 993.66,305.00 994.45,305.00 995.25,305.00 996.04,305.00 996.83,305.00 997.62,305.00 998.42,305.00 999.22,305.00 1000.00,305.00 1000.80,305.00 1001.60,305.00 1002.38,305.00 1003.17,305.00 1003.96,305.00 1004.75,305.00 1005.54,305.00 1006.33,305.00 1007.13,305.00 1007.92,305.00 1008.70,305.00 1009.50,305.00 1010.29,305.00 1011.09,305.00 1011.88,305.00 1012.67,305.00 1013.45,305.00 1014.25,305.00 1015.06,305.00 1015.84,305.00 1016.63,305.00 1017.43,305.00 1018.26,305.00 1019.05,305.00 1019.85,305.00 1020.65,305.00 1021.45,305.00 1022.24,305.00 1023.04,305.00 1023.84,305.00 1024.63,305.00 1025.42,305.00 1026.21,305.00 1027.00,305.00 1027.80,305.00 1028.60,305.00 1029.39,305.00 1030.18,305.00 1030.97,305.00 1031.76,305.00 1032.55,305.00 1033.35,305.00 1034.15,305.00 1034.98,305.00 1035.77,305.00 1036.56,305.00 1037.35,305.00 1038.13,305.00 1038.94,305.00 1039.73,305.00 1040.53,305.00 1041.33,305.00 1042.12,305.00 1042.92,305.00 1043.71,305.00 1044.51,305.00 1045.31,305.00 1046.10,305.00 1046.89,305.00 1047.69,305.00 1048.48,305.00 1049.27,305.00 1050.06,305.00 1050.85,305.00 1051.65,305.00 1052.44,305.00 1053.23,305.00 1054.02,305.00 1054.82,305.00 1055.61,305.00 1056.41,305.00 1057.20,305.00 1057.99,305.00 1058.79,305.00 1059.58,305.00 1060.37,305.00 1061.18,305.00 1061.96,305.00 1062.76,305.00 1063.55,305.00 1064.34,305.00 1065.13,305.00 1065.92,305.00 1066.72,305.00 1067.51,305.00 1068.33,305.00 1069.12,305.00 1069.91,305.00 1070.70,305.00 1071.50,305.00 1072.30,305.00 1073.11,305.00 1073.91,305.00 1074.75,305.00 1075.55,305.00 1076.40,305.00 1077.20,305.00 1077.98,305.00 1078.77,305.00 1079.57,305.00 1080.36,305.00 1081.15,305.00 1081.95,305.00 1082.74,305.00 1083.53,305.00 1084.33,305.00 1085.12,305.00 1085.91,305.00 1086.70,305.00 1087.50,305.00 1088.29,305.00 1089.08,305.00 1089.87,305.00 1090.67,305.00 1091.46,305.00 1092.26,305.00 1093.05,305.00 1093.84,305.00 1094.63,305.00 1095.43,305.00 1096.23,305.00 1097.02,305.00 1097.82,305.00 1098.61,305.00 1099.41,305.00 1100.19,305.00 1100.98,305.00 1101.78,305.00 1102.57,305.00 1103.36,305.00 1104.15,305.00 1104.93,305.00 1105.72,305.00 1106.52,305.00 1107.31,305.00 1108.11,305.00 1108.91,305.00 1109.73,305.00 1110.53,305.00 1111.32,305.00 1112.11,305.00 1112.90,305.00 1113.68,305.00 1114.47,305.00 1115.27,305.00 1116.06,305.00 1116.85,305.00 1117.64,305.00 1118.42,305.00 1119.21,305.00 1120.00,305.00 1120.80,305.00 1121.59,305.00 1122.38,305.00 1123.18,305.00 1123.97,305.00 1124.76,305.00 1125.56,305.00 1126.35,305.00 1127.14,305.00 1127.94,305.00 1128.73,305.00 1129.52,305.00 1130.33,305.00 1131.12,305.00 1131.93,305.00 1132.71,305.00 1133.50,305.00 1134.30,305.00 1135.09,305.00 1135.88,305.00 1136.70,305.00 1137.50,305.00 1138.30,305.00 1139.10,305.00 1139.89,305.00 1140.68,305.00 1141.47,305.00 1142.27,305.00 1143.07,305.00 1143.86,305.00 1144.65,305.00 1145.44,305.00 1146.24,305.00 1147.04,305.00 1147.84,305.00 1148.65,305.00 1149.46,305.00 1150.30,305.00 1151.11,305.00 1151.90,305.00 1152.69,305.00 1153.48,305.00 1154.28,305.00 1155.07,305.00 1155.86,305.00 1156.66,305.00 1157.46,305.00 1158.26,305.00 1159.04,305.00 1159.83,305.00 1160.63,305.00 1161.42,305.00 1162.22,305.00 1163.04,305.00 1163.85,305.00 1164.64,305.00 1165.45,305.00 1166.28,305.00 1167.08,305.00 1167.92,305.00 1168.72,305.00 1169.51,305.00 1170.31,305.00 1171.10,305.00 1171.90,305.00 1172.69,305.00 1173.48,305.00 1174.27,305.00 1175.07,305.00 1175.86,305.00 1176.67,305.00 1177.47,305.00 1178.26,305.00 1179.07,305.00 1180.00,305.00"/>
<polyline fill="none" stroke="#9467bd" stroke-opacity="0.65" stroke-width="2" points="402.95,305.00 403.77,305.00 404.55,305.00 405.36,305.00 406.15,305.00 406.94,305.00 407.73,305.00 408.53,305.00 409.32,305.00 410.12,305.00 410.91,305.00 411.72,305.00 412.50,305.00 413.28,305.00 414.08,305.00 414.86,305.00 415.64,305.00 416.43,305.00 417.22,305.00 418.01,305.00 418.80,305.00 419.59,305.00 420.37,305.00 421.17,305.00 421.96,305.00 422.75,305.00 423.55,305.00 424.34,305.00 425.12,305.00 425.92,305.00 426.71,305.00 427.53,305.00 428.31,305.00 429.09,305.00 429.88,305.00 430.66,305.00 431.45,305.00 432.25,305.00 433.03,305.00 433.82,305.00 434.61,305.00 435.39,305.00 436.18,305.00 436.97,305.00 437.77,305.00 438.56,305.00 439.51,305.00 440.32,305.00 441.13,305.00 441.93,305.00 442.72,305.00 443.52,305.00 444.30,305.00 445.09,305.00 445.88,305.00 446.68,305.00 447.47,305.00 448.26,305.00 449.05,305.00 449.84,305.00 450.66,305.00 451.46,305.00 452.25,305.00 453.04,305.00 453.84,305.00 454.62,305.00 455.41,305.00 456.20,305.00 457.02,305.00 457.82,305.00 458.61,305.00 459.40,305.00 460.19,305.00 460.99,305.00 461.77,305.00 462.56,305.00 463.36,305.00 464.15,305.00 464.94,305.00 465.73,305.00 466.52,305.00 467.31,305.00 468.10,305.00 468.90,305.00 469.70,305.00 470.48,305.00 471.27,305.00 472.06,305.00 472.86,305.00 473.66,305.00 474.61,305.00 475.42,305.00 476.21,305.00 477.00,305.00 477.78,305.00 478.58,305.00 479.37,305.00 480.16,305.00 480.97,305.00 481.76,305.00 482.54,305.00 483.33,305.00 484.12,305.00 484.91,305.00 485.70,305.00 486.49,305.00 487.28,305.00 488.07,305.00 488.85,305.00 489.64,305.00 490.44,305.00 491.23,305.00 492.02,305.00 492.82,305.00 493.61,305.00 494.40,305.00 495.19,305.00 495.98,305.00 496.80,305.00 497.58,305.00 498.37,305.00 499.17,305.00 499.96,305.00 500.75,305.00 501.54,305.00 502.33,305.00 503.14,305.00 503.93,305.00 504.72,305.00 505.50,305.00 506.29,305.00 507.08,305.00 507.87,305.00 508.66,305.00 509.46,305.00 510.26,305.00 511.05,305.00 511.83,305.00 512.63,305.00 513.41,305.00 514.21,305.00 514.99,305.00 515.79,305.00 516.57,305.00 517.37,305.00 518.16,305.00 518.95,305.00 519.75,305.00 520.55,305.00 521.34,305.00 522.13,305.00 522.93,305.00 523.82,305.00 524.69,305.00 525.53,305.00 526.33,305.00 527.16,305.00 527.95,305.00 528.74,305.00 529.53,305.00 530.26,305.00 531.09,305.00 531.88,305.00 532.68,305.00 533.46,305.00 534.25,305.00 535.04,305.00 535.84,305.00 536.62,305.00 537.42,305.00 538.21,305.00 539.00,305.00 539.79,305.00 540.59,305.00 541.39,305.00 542.19,305.00 542.98,305.00 543.77,305.00 544.56,305.00 545.37,305.00 546.16,305.00 546.95,305.00 547.74,305.00 548.53,305.00 549.32,305.00 550.11,305.00 550.90,305.00 551.69,305.00 552.49,305.00 553.28,305.00 554.07,305.00 554.86,305.00 555.65,305.00 556.45,305.00 557.24,305.00 558.03,305.00 558.82,305.00 559.62,305.00 560.41,305.00 561.21,305.00 562.01,305.00 562.80,305.00 563.59,305.00 564.39,305.00 565.18,305.00 565.98,305.00 566.80,305.00 567.59,305.00 568.38,305.00 569.17,305.00 569.96,305.00 570.75,305.00 571.55,305.00 572.34,305.00 573.14,305.00 573.93,305.00 574.72,305.00 575.52,305.00 576.31,305.00 577.11,305.00 577.90,305.00 578.70,305.00 579.50,305.00 580.29,305.00 581.10,305.00 581.89,305.00 582.68,305.00 583.47,305.00 584.27,305.00 585.08,305.00 585.87,305.00 586.67,305.00 587.47,305.00 588.25,305.00 589.04,305.00 589.84,305.00 590.63,305.00 591.43,305.00 592.22,305.00 593.01,305.00 593.80,305.00 594.60,305.00 595.39,305.00 596.19,305.00 596.98,305.00 597.78,305.00 598.57,305.00 599.37,305.00 600.16,305.00 600.95,305.00 601.74,305.00 602.52,305.00 603.32,305.00 604.11,305.00 604.91,305.00 605.71,305.00 606.50,305.00 607.29,305.00 608.09,305.00 608.89,305.00 609.68,305.00 610.48,305.00 611.28,305.00 612.07,305.00 612.87,305.00 613.66,305.00 614.46,305.00 615.26,305.00 616.05,305.00 616.86,305.00 617.66,305.00 618.46,305.00 619.25,305.00 620.04,305.00 620.84,305.00 621.64,305.00 622.44,305.00 623.24,305.00 624.03,305.00 624.82,305.00 625.61,305.00 626.42,305.00 627.21,305.00 628.01,305.00 628.80,305.00 629.59,305.00 630.38,305.00 631.17,305.00 631.96,305.00 632.75,305.00 633.55,305.00 634.34,305.00 635.13,305.00 635.93,305.00 636.72,305.00 637.54,305.00 638.33,305.00 639.12,305.00 639.92,305.00 640.70,305.00 641.50,305.00 642.29,305.00 643.09,305.00 643.88,305.00 644.67,305.00 645.47,305.00 646.27,305.00 647.06,305.00 647.85,305.00 648.65,305.00 649.47,305.00 650.27,305.00 651.07,305.00 651.87,305.00 652.66,305.00 653.46,305.00 654.25,305.00 655.04,305.00 655.83,305.00 656.63,305.00 657.42,305.00 658.22,305.00 659.02,305.00 659.82,305.00 660.65,305.00 661.44,305.00 662.23,305.00 663.03,305.00 663.82,305.00 664.62,305.00 665.42,305.00 666.22,305.00 667.02,305.00 667.82,305.00 668.61,305.00 669.41,305.00 670.21,305.00 671.00,305.00 671.80,305.00 672.59,305.00 673.38,305.00 674.18,305.00 674.98,305.00 675.78,305.00 676.57,305.00 677.37,305.00 678.17,305.00 678.96,305.00 679.76,305.00 680.56,305.00 681.38,305.00 682.17,305.00 682.98,305.00 683.77,305.00 684.58,305.00 685.40,305.00 686.21,305.00 687.01,305.00 687.83,305.00 688.63,305.00 689.42,305.00 690.22,305.00 691.02,305.00 691.81,305.00 692.61,305.00 693.43,305.00 694.22,305.00 695.02,305.00 695.81,305.00 696.60,305.00 697.40,305.00 698.19,305.00 698.98,305.00 699.78,305.00 700.57,305.00 701.36,305.00 702.15,305.00 702.94,305.00 703.73,305.00 704.53,305.00 705.33,305.00 706.12,305.00 706.92,305.00 707.72,305.00 708.51,305.00 709.31,305.00 710.10,305.00 710.90,305.00 711.69,305.00 712.48,305.00 713.28,305.00 714.08,305.00 714.86,305.00 715.65,305.00 716.44,305.00 717.23,305.00 718.03,305.00 718.82,305.00 719.62,305.00 720.41,305.00 721.20,305.00 721.99,305.00 722.79,305.00 723.58,305.00 724.36,305.00 725.15,305.00 725.93,305.00 726.73,305.00 727.52,305.00 728.33,305.00 729.12,305.00 729.91,305.00 730.71,305.00 731.52,305.00 732.32,305.00 733.11,305.00 733.91,305.00 734.70,305.00 735.49,305.00 736.30,305.00 737.09,305.00 737.90,305.00 738.70,305.00 739.49,305.00 740.28,305.00 741.07,305.00 741.86,305.00 742.65,305.00 743.45,305.00 744.23,305.00 745.02,305.00 745.82,305.00 746.62,305.00 747.41,305.00 748.20,305.00 748.99,305.00 749.78,305.00 750.58,305.00 751.38,305.00 752.17,305.00 752.97,305.00 753.76,305.00 754.56,305.00 755.35,305.00 756.14,305.00 756.94,305.00 757.73,305.00 758.52,305.00 759.32,305.00 760.12,305.00 760.91,305.00 761.70,305.00 762.49,305.00 763.32,305.00 764.11,305.00 764.92,305.00 765.72,305.00 766.52,305.00 767.31,305.00 768.11,305.00 768.91,305.00 769.70,305.00 770.49,305.00 771.30,305.00 772.11,305.00 772.90,305.00 773.70,305.00 774.49,305.00 775.28,305.00 776.09,305.00 776.88,305.00 777.67,305.00 778.46,305.00 779.26,305.00 780.05,305.00 780.84,305.00 781.63,305.00 782.43,305.00 783.22,305.00 784.01,305.00 784.80,305.00 785.59,305.00 786.38,305.00 787.20,305.00 787.98,305.00 788.77,305.00 789.57,305.00 790.36,305.00 791.15,305.00 791.95,305.00 792.74,305.00 793.55,305.00 794.34,305.00 795.13,305.00 795.92,305.00 796.72,305.00 797.51,305.00 798.30,305.00 799.11,305.00 799.92,305.00 800.72,305.00 801.54,305.00 802.34,305.00 803.16,305.00 803.97,305.00 804.78,305.00 805.60,305.00 806.41,305.00 807.23,305.00 808.02,305.00 808.81,305.00 809.61,305.00 810.41,305.00 811.21,305.00 812.01,305.00 812.80,305.00 813.60,305.00 814.40,305.00 815.19,305.00 815.98,305.00 816.77,305.00 817.57,305.00 818.36,305.00 819.15,305.00 819.95,305.00 820.74,305.00 821.53,305.00 822.34,305.00 823.14,305.00 823.93,305.00 824.72,305.00 825.52,305.00 826.31,305.00 827.11,305.00 827.91,305.00 828.70,305.00 829.49,305.00 830.29,305.00 831.08,305.00 831.87,305.00 832.67,305.00 833.46,305.00 834.26,305.00 835.11,305.00 835.93,305.00 836.72,305.00 837.52,305.00 838.30,305.00 839.11,305.00 839.92,305.00 840.72,305.00 841.51,305.00 842.30,305.00 843.08,305.00 843.87,305.00 844.66,305.00 845.46,305.00 846.26,305.00 847.05,305.00 847.85,305.00 848.65,305.00 849.45,305.00 850.24,305.00 851.03,305.00 851.82,305.00 852.62,305.00 853.42,305.00 854.21,305.00 855.00,305.00 855.80,305.00 856.60,305.00 857.39,305.00 858.22,305.00 859.02,305.00 859.81,305.00 860.60,305.00 861.40,305.00 862.19,305.00 863.00,305.00 863.79,305.00 864.58,305.00 865.38,305.00 866.18,305.00 866.98,305.00 867.79,305.00 868.59,305.00 869.38,305.00 870.17,305.00 870.97,305.00 871.76,305.00 872.56,305.00 873.34,305.00 874.15,305.00 874.95,305.00 875.74,305.00 876.53,305.00 877.32,305.00 878.12,305.00 878.91,305.00 879.70,305.00 880.50,305.00 881.29,305.00 882.09,305.00 882.88,305.00 883.68,305.00 884.47,305.00 885.27,305.00 886.06,305.00 886.86,305.00 887.65,305.00 888.44,305.00 889.23,305.00 890.02,305.00 890.82,305.00 891.61,305.00 892.43,305.00 893.22,305.00 894.02,305.00 894.82,305.00 895.61,305.00 896.42,305.00 897.28,305.00 898.09,305.00 898.89,305.00 899.69,305.00 900.49,305.00 901.29,305.00 902.08,305.00 902.88,305.00 903.67,305.00 904.46,305.00 905.27,305.00 906.06,305.00 906.85,305.00 907.67,305.00 908.47,305.00 909.26,305.00 910.06,305.00 910.85,305.00 911.65,305.00 912.45,305.00 913.24,305.00 914.03,305.00 914.84,305.00 915.63,305.00 916.43,305.00 917.23,305.00 918.03,305.00 918.82,305.00 919.63,305.00 920.43,305.00 921.23,305.00 922.01,305.00 922.81,305.00 923.61,305.00 924.40,305.00 925.19,305.00 925.99,305.00 926.78,305.00 927.58,305.00 928.38,305.00 929.16,305.00 929.96,305.00 930.76,305.00 931.56,305.00 932.35,305.00 933.15,305.00 933.94,305.00 934.75,305.00 935.55,305.00 936.32,305.00 937.10,305.00 937.89,305.00 938.69,305.00 939.49,305.00 940.28,305.00 941.09,305.00 941.88,305.00 942.69,305.00 943.49,305.00 944.28,305.00 945.08,305.00 945.86,305.00 946.66,305.00 947.44,305.00 948.23,305.00 949.03,305.00 949.83,305.00 950.62,305.00 951.41,305.00 952.20,305.00 953.00,305.00 953.79,305.00 954.59,305.00 955.37,305.00 956.16,305.00 956.93,305.00 957.75,305.00 958.54,305.00 959.34,305.00 960.14,305.00 960.94,305.00 961.73,305.00 962.52,305.00 963.32,305.00 964.12,305.00 964.91,305.00 965.70,305.00 966.56,305.00 967.35,305.00 968.16,305.00 968.95,305.00 969.76,305.00 970.54,305.00 971.34,305.00 972.14,305.00 972.93,305.00 973.72,305.00 974.52,305.00 975.31,305.00 976.11,305.00 976.91,305.00 977.71,305.00 978.50,305.00 979.29,305.00 980.09,305.00 980.88,305.00 981.69,305.00 982.48,305.00 983.29,305.00 984.10,305.00 984.90,305.00 985.69,305.00 986.49,305.00 987.29,305.00 988.09,305.00 988.89,305.00 989.68,305.00 990.47,305.00 991.27,305.00 992.06,305.00 992.86,305.00 993.66,305.00 994.45,305.00 995.25,305.00 996.04,305.00 996.83,305.00 997.62,305.00 998.42,305.00 999.22,305.00 1000.00,305.00 1000.80,305.00 1001.60,305.00 1002.38,305.00 1003.17,305.00 1003.96,305.00 1004.75,305.00 1005.54,305.00 1006.33,305.00 1007.13,305.00 1007.92,305.00 1008.70,305.00 1009.50,305.00 1010.29,305.00 1011.09,305.00 1011.88,305.00 1012.67,305.00 1013.45,305.00 1014.25,305.00 1015.06,305.00 1015.84,305.00 1016.63,305.00 1017.43,305.00 1018.26,305.00 1019.05,305.00 1019.85,305.00 1020.65,305.00 1021.45,305.00 1022.24,305.00 1023.04,305.00 1023.84,305.00 1024.63,305.00 1025.42,305.00 1026.21,305.00 1027.00,305.00 1027.80,305.00 1028.60,305.00 1029.39,305.00 1030.18,305.00 1030.97,305.00 1031.76,305.00 1032.55,305.00 1033.35,305.00 1034.15,305.00 1034.98,305.00 1035.77,305.00 1036.56,305.00 1037.35,305.00 1038.13,305.00 1038.94,305.00 1039.73,305.00 1040.53,305.00 1041.33,305.00 1042.12,305.00 1042.92,305.00 1043.71,305.00 1044.51,305.00 1045.31,305.00 1046.10,305.00 1046.89,305.00 1047.69,305.00 1048.48,305.00 1049.27,305.00 1050.06,305.00 1050.85,305.00 1051.65,305.00 1052.44,305.00 1053.23,305.00 1054.02,305.00 1054.82,305.00 1055.61,305.00 1056.41,305.00 1057.20,305.00 1057.99,305.00 1058.79,305.00 1059.58,305.00 1060.37,305.00 1061.18,305.00 1061.96,305.00 1062.76,305.00 1063.55,305.00 1064.34,305.00 1065.13,305.00 1065.92,305.00 1066.72,305.00 1067.51,305.00 1068.33,305.00 1069.12,305.00 1069.91,305.00 1070.70,305.00 1071.50,305.00 1072.30,305.00 1073.11,305.00 1073.91,305.00 1074.75,305.00 1075.55,305.00 1076.40,305.00 1077.20,305.00 1077.98,305.00 1078.77,305.00 1079.57,305.00 1080.36,305.00 1081.15,305.00 1081.95,305.00 1082.74,305.00 1083.53,305.00 1084.33,305.00 1085.12,305.00 1085.91,305.00 1086.70,305.00 1087.50,305.00 1088.29,305.00 1089.08,305.00 1089.87,305.00 1090.67,305.00 1091.46,305.00 1092.26,305.00 1093.05,305.00 1093.84,305.00 1094.63,305.00 1095.43,305.00 1096.23,305.00 1097.02,305.00 1097.82,305.00 1098.61,305.00 1099.41,305.00 1100.19,305.00 1100.98,305.00 1101.78,305.00 1102.57,305.00 1103.36,305.00 1104.15,305.00 1104.93,305.00 1105.72,305.00 1106.52,305.00 1107.31,305.00 1108.11,305.00 1108.91,305.00 1109.73,305.00 1110.53,305.00 1111.32,305.00 1112.11,305.00 1112.90,305.00 1113.68,305.00 1114.47,305.00 1115.27,305.00 1116.06,305.00 1116.85,305.00 1117.64,305.00 1118.42,305.00 1119.21,305.00 1120.00,305.00 1120.80,305.00 1121.59,305.00 1122.38,305.00 1123.18,305.00 1123.97,305.00 1124.76,305.00 1125.56,305.00 1126.35,305.00 1127.14,305.00 1127.94,305.00 1128.73,305.00 1129.52,305.00 1130.33,305.00 1131.12,305.00 1131.93,305.00 1132.71,305.00 1133.50,305.00 1134.30,305.00 1135.09,305.00 1135.88,305.00 1136.70,305.00 1137.50,305.00 1138.30,305.00 1139.10,305.00 1139.89,305.00 1140.68,305.00 1141.47,305.00 1142.27,305.00 1143.07,305.00 1143.86,305.00 1144.65,305.00 1145.44,305.00 1146.24,305.00 1147.04,305.00 1147.84,305.00 1148.65,305.00 1149.46,305.00 1150.30,305.00 1151.11,305.00 1151.90,305.00 1152.69,305.00 1153.48,305.00 1154.28,305.00 1155.07,305.00 1155.86,305.00 1156.66,305.00 1157.46,305.00 1158.26,305.00 1159.04,305.00 1159.83,305.00 1160.63,305.00 1161.42,305.00 1162.22,305.00 1163.04,305.00 1163.85,305.00 1164.64,305.00 1165.45,305.00 1166.28,305.00 1167.08,305.00 1167.92,305.00 1168.72,305.00 1169.51,305.00 1170.31,305.00 1171.10,305.00 1171.90,305.00 1172.69,305.00 1173.48,305.00 1174.27,305.00 1175.07,305.00 1175.86,305.00 1176.67,305.00 1177.47,305.00 1178.26,305.00 1179.07,305.00 1180.00,305.00"/>
<polyline fill="none" stroke="#9467bd" stroke-opacity="0.50" stroke-width="2" points="70.00,305.00 70.79,305.00 71.58,305.00 72.37,305.00 73.17,305.00 73.96,305.00 74.75,305.00 75.54,305.00 76.40,305.00 77.18,305.00 77.97,305.00 78.76,305.00 79.56,305.00 80.35,305.00 81.13,305.00 82.55,305.00 83.78,305.00 84.58,305.00 85.39,305.00 86.18,305.00 86.97,305.00 87.74,305.00 88.54,305.00 89.33,305.00 90.12,305.00 90.92,305.00 91.73,305.00 92.52,305.00 93.31,305.00 94.14,305.00 94.94,305.00 95.73,305.00 96.54,305.00 97.33,305.00 98.12,305.00 98.94,305.00 99.72,305.00 100.51,305.00 101.32,305.00 102.10,305.00 102.89,305.00 103.67,305.00 104.46,305.00 105.25,305.00 106.04,305.00 106.85,305.00 107.64,305.00 108.43,305.00 109.21,305.00 110.01,305.00 110.80,305.00 111.71,305.00 112.50,305.00 113.29,305.00 114.07,305.00 114.86,305.00 115.64,305.00 116.43,305.00 117.22,305.00 118.01,305.00 118.81,305.00 119.60,305.00 120.38,305.00 121.18,305.00 121.98,305.00 122.77,305.00 123.56,305.00 124.34,305.00 125.13,305.00 125.91,305.00 126.70,305.00 127.48,305.00 128.27,305.00 129.06,305.00 129.85,305.00 130.64,305.00 131.42,305.00 132.22,305.00 133.00,305.00 133.79,305.00 134.60,305.00 135.39,305.00 136.18,305.00 136.97,305.00 137.76,305.00 138.55,305.00 139.34,305.00 140.12,305.00 140.91,305.00 141.70,305.00 142.50,305.00 143.29,305.00 144.08,305.00 144.86,305.00 145.66,305.00 146.44,305.00 147.23,305.00 148.01,305.00 148.80,305.00 149.59,305.00 150.38,305.00 151.18,305.00 151.97,305.00 152.76,305.00 153.56,305.00 154.35,305.00 155.14,305.00 155.93,305.00 156.72,305.00 157.50,305.00 158.30,305.00 159.09,305.00 159.88,305.00 160.67,305.00 161.46,305.00 162.26,305.00 163.05,305.00 163.85,305.00 164.64,305.00 165.43,305.00 166.22,305.00 167.01,305.00 167.80,305.00 168.60,305.00 169.45,305.00 170.24,305.00 171.04,305.00 171.83,305.00 172.61,305.00 173.39,305.00 174.17,305.00 174.96,305.00 175.75,305.00 176.54,305.00 177.33,305.00 178.11,305.00 178.90,305.00 179.69,305.00 180.49,305.00 181.28,305.00 182.07,305.00 182.85,305.00 183.64,305.00 184.43,305.00 185.22,305.00 186.02,305.00 186.81,305.00 187.60,305.00 188.39,305.00 189.17,305.00 189.96,305.00 190.74,305.00 191.53,305.00 192.33,305.00 193.12,305.00 193.92,305.00 194.70,305.00 195.50,305.00 196.29,305.00 197.08,305.00 197.87,305.00 198.66,305.00 199.46,305.00 200.26,305.00 201.05,305.00 201.84,305.00 202.63,305.00 203.41,305.00 204.20,305.00 204.99,305.00 205.78,305.00 206.56,305.00 207.34,305.00 208.14,305.00 208.93,305.00 209.73,305.00 210.52,305.00 211.32,305.00 212.11,305.00 212.90,305.00 213.69,305.00 214.47,305.00 215.33,305.00 216.14,305.00 216.92,305.00 217.71,305.00 218.49,305.00 219.28,305.00 220.07,305.00 220.86,305.00 221.65,305.00 222.44,305.00 223.23,305.00 224.02,305.00 224.83,305.00 225.61,305.00 226.40,305.00 227.19,305.00 227.98,305.00 228.79,305.00 229.60,305.00 230.38,305.00 231.17,305.00 231.96,305.00 232.75,305.00 233.54,305.00 234.33,305.00 235.13,305.00 235.92,305.00 236.70,305.00 237.50,305.00 238.29,305.00 239.08,305.00 239.87,305.00 240.67,305.00 241.46,305.00 242.25,305.00 243.03,305.00 243.82,305.00 244.61,305.00 245.40,305.00 246.19,305.00 246.97,305.00 247.76,305.00 248.54,305.00 249.34,305.00 250.13,305.00 250.92,305.00 251.72,305.00 252.52,305.00 253.31,305.00 254.10,305.00 254.89,305.00 255.68,305.00 256.47,305.00 257.26,305.00 258.07,305.00 258.86,305.00 259.65,305.00 260.44,305.00 261.23,305.00 262.02,305.00 262.81,305.00 263.59,305.00 264.39,305.00 265.18,305.00 265.97,305.00 266.76,305.00 267.56,305.00 268.35,305.00 269.14,305.00 269.93,305.00 270.73,305.00 271.52,305.00 272.31,305.00 273.10,305.00 273.90,305.00 274.69,305.00 275.48,305.00 276.27,305.00 277.15,305.00 277.94,305.00 278.73,305.00 279.53,305.00 280.32,305.00 281.12,305.00 281.91,305.00 282.70,305.00 283.48,305.00 284.30,305.00 285.10,305.00 285.88,305.00 286.67,305.00 287.46,305.00 288.25,305.00 289.05,305.00 289.87,305.00 290.66,305.00 291.45,305.00 292.25,305.00 293.10,305.00 293.89,305.00 294.88,305.00 296.22,305.00 297.03,305.00 297.84,305.00 298.63,305.00 299.40,305.00 300.19,305.00 300.99,305.00 301.78,305.00 302.58,305.00 303.40,305.00 304.22,305.00 305.06,305.00 305.85,305.00 306.64,305.00 307.43,305.00 308.23,305.00 309.03,305.00 309.83,305.00 310.62,305.00 311.41,305.00 312.23,305.00 313.02,305.00 313.80,305.00 314.60,305.00 315.40,305.00 316.22,305.00 317.02,305.00 317.81,305.00 318.62,305.00 319.38,305.00 320.16,305.00 320.97,305.00 321.76,305.00 322.56,305.00 323.37,305.00 324.17,305.00 324.96,305.00 325.76,305.00 326.56,305.00 327.35,305.00 328.13,305.00 328.92,305.00 329.71,305.00 330.51,305.00 331.29,305.00 332.23,305.00 333.16,305.00 334.10,305.00 335.02,305.00 335.92,305.00 336.83,305.00 337.77,305.00 338.69,305.00 339.48,305.00 340.26,305.00 341.05,305.00 341.84,305.00 342.63,305.00 343.41,305.00 344.20,305.00 344.99,305.00 345.78,305.00 346.57,305.00 347.35,305.00 348.14,305.00 348.93,305.00 349.71,305.00 350.50,305.00 351.29,305.00 352.08,305.00 352.86,305.00 353.65,305.00 354.45,305.00 355.23,305.00 356.01,305.00 356.80,305.00 357.59,305.00 358.38,305.00 359.17,305.00 359.96,305.00 360.75,305.00 361.54,305.00 362.32,305.00 363.11,305.00 363.90,305.00 364.68,305.00 365.47,305.00 366.25,305.00 367.03,305.00 367.82,305.00 368.60,305.00 369.39,305.00 370.17,305.00 370.96,305.00 371.75,305.00 372.53,305.00 373.31,305.00 374.09,305.00 374.90,305.00 375.75,305.00 376.55,305.00 377.34,305.00 378.12,305.00 378.91,305.00 379.69,305.00 380.47,305.00 381.26,305.00 382.19,305.00 383.12,305.00 384.04,305.00 384.96,305.00 385.89,305.00 386.81,305.00 387.76,305.00 388.71,305.00 389.58,305.00 390.42,305.00 391.21,305.00 392.01,305.00 392.80,305.00 393.58,305.00 394.37,305.00 395.16,305.00 395.95,305.00 396.74,305.00 397.52,305.00 398.31,305.00 399.10,305.00 399.89,305.00 400.69,305.00 401.47,305.00 402.26,305.00 402.95,305.00 403.77,305.00 404.55,305.00 405.36,305.00 406.15,305.00 406.94,305.00 407.73,305.00 408.53,305.00 409.32,305.00 410.12,305.00 410.91,305.00 411.72,305.00 412.50,305.00 413.28,305.00 414.08,305.00 414.86,305.00 415.64,305.00 416.43,305.00 417.22,305.00 418.01,305.00 418.80,305.00 419.59,305.00 420.37,305.00 421.17,305.00 421.96,305.00 422.75,305.00 423.55,305.00 424.34,305.00 425.12,305.00 425.92,305.00 426.71,305.00 427.53,305.00 428.31,305.00 429.09,305.00 429.88,305.00 430.66,305.00 431.45,305.00 432.25,305.00 433.03,305.00 433.82,305.00 434.61,305.00 435.39,305.00 436.18,305.00 436.97,305.00 437.77,305.00 438.56,305.00 439.51,305.00 440.32,305.00 441.13,305.00 441.93,305.00 442.72,305.00 443.52,305.00 444.30,305.00 445.09,305.00 445.88,305.00 446.68,305.00 447.47,305.00 448.26,305.00 449.05,305.00 449.84,305.00 450.66,305.00 451.46,305.00 452.25,305.00 453.04,305.00 453.84,305.00 454.62,305.00 455.41,305.00 456.20,305.00 457.02,305.00 457.82,305.00 458.61,305.00 459.40,305.00 460.19,305.00 460.99,305.00 461.77,305.00 462.56,305.00 463.36,305.00 464.15,305.00 464.94,305.00 465.73,305.00 466.52,305.00 467.31,305.00 468.10,305.00 468.90,305.00 469.70,305.00 470.48,305.00 471.27,305.00 472.06,305.00 472.86,305.00 473.66,305.00 474.61,305.00 475.42,305.00 476.21,305.00 477.00,305.00 477.78,305.00 478.58,305.00 479.37,305.00 480.16,305.00 480.97,305.00 481.76,305.00 482.54,305.00 483.33,305.00 484.12,305.00 484.91,305.00 485.70,305.00 486.49,305.00 487.28,305.00 488.07,305.00 488.85,305.00 489.64,305.00 490.44,305.00 491.23,305.00 492.02,305.00 492.82,305.00 493.61,305.00 494.40,305.00 495.19,305.00 495.98,305.00 496.80,305.00 497.58,305.00 498.37,305.00 499.17,305.00 499.96,305.00 500.75,305.00 501.54,305.00 502.33,305.00 503.14,305.00 503.93,305.00 504.72,305.00 505.50,305.00 506.29,305.00 507.08,305.00 507.87,305.00 508.66,305.00 509.46,305.00 510.26,305.00 511.05,305.00 511.83,305.00 512.63,305.00 513.41,305.00 514.21,305.00 514.99,305.00 515.79,305.00 516.57,305.00 517.37,305.00 518.16,305.00 518.95,305.00 519.75,305.00 520.55,305.00 521.34,305.00 522.13,305.00 522.93,305.00 523.82,305.00 524.69,305.00 525.53,305.00 526.33,305.00 527.16,305.00 527.95,305.00 528.74,305.00 529.53,305.00 530.26,305.00 531.09,305.00 531.88,305.00 532.68,305.00 533.46,305.00 534.25,305.00 535.04,305.00 535.84,305.00 536.62,305.00 537.42,305.00 538.21,305.00 539.00,305.00 539.79,305.00 540.59,305.00 541.39,305.00 542.19,305.00 542.98,305.00 543.77,305.00 544.56,305.00 545.37,305.00 546.16,305.00 546.95,305.00 547.74,305.00 548.53,305.00 549.32,305.00 550.11,305.00 550.90,305.00 551.69,305.00 552.49,305.00 553.28,305.00 554.07,305.00 554.86,305.00 555.65,305.00 556.45,305.00 557.24,305.00 558.03,305.00 558.82,305.00 559.62,305.00 560.41,305.00 561.21,305.00 562.01,305.00 562.80,305.00 563.59,305.00 564.39,305.00 565.18,305.00 565.98,305.00 566.80,305.00 567.59,305.00 568.38,305.00 569.17,305.00 569.96,305.00 570.75,305.00 571.55,305.00 572.34,305.00 573.14,305.00 573.93,305.00 574.72,305.00 575.52,305.00 576.31,305.00 577.11,305.00 577.90,305.00 578.70,305.00 579.50,305.00 580.29,305.00 581.10,305.00 581.89,305.00 582.68,305.00 583.47,305.00 584.27,305.00 585.08,305.00 585.87,305.00 586.67,305.00 587.47,305.00 588.25,305.00 589.04,305.00 589.84,305.00 590.63,305.00 591.43,305.00 592.22,305.00 593.01,305.00 593.80,305.00 594.60,305.00 595.39,305.00 596.19,305.00 596.98,305.00 597.78,305.00 598.57,305.00 599.37,305.00 600.16,305.00 600.95,305.00 601.74,305.00 602.52,305.00 603.32,305.00 604.11,305.00 604.91,305.00 605.71,305.00 606.50,305.00 607.29,305.00 608.09,305.00 608.89,305.00 609.68,305.00 610.48,305.00 611.28,305.00 612.07,305.00 612.87,305.00 613.66,305.00 614.46,305.00 615.26,305.00 616.05,305.00 616.86,305.00 617.66,305.00 618.46,305.00 619.25,305.00 620.04,305.00 620.84,305.00 621.64,305.00 622.44,305.00 623.24,305.00 624.03,305.00 624.82,305.00 625.61,305.00 626.42,305.00 627.21,305.00 628.01,305.00 628.80,305.00 629.59,305.00 630.38,305.00 631.17,305.00 631.96,305.00 632.75,305.00 633.55,305.00 634.34,305.00 635.13,305.00 635.93,305.00 636.72,305.00 637.54,305.00 638.33,305.00 639.12,305.00 639.92,305.00 640.70,305.00 641.50,305.00 642.29,305.00 643.09,305.00 643.88,305.00 644.67,305.00 645.47,305.00 646.27,305.00 647.06,305.00 647.85,305.00 648.65,305.00 649.47,305.00 650.27,305.00 651.07,305.00 651.87,305.00 652.66,305.00 653.46,305.00 654.25,305.00 655.04,305.00 655.83,305.00 656.63,305.00 657.42,305.00 658.22,305.00 659.02,305.00 659.82,305.00 660.65,305.00 661.44,305.00 662.23,305.00 663.03,305.00 663.82,305.00 664.62,305.00 665.42,305.00 666.22,305.00 667.02,305.00 667.82,305.00 668.61,305.00 669.41,305.00 670.21,305.00 671.00,305.00 671.80,305.00 672.59,305.00 673.38,305.00 674.18,305.00 674.98,305.00 675.78,305.00 676.57,305.00 677.37,305.00 678.17,305.00 678.96,305.00 679.76,305.00 680.56,305.00 681.38,305.00 682.17,305.00 682.98,305.00 683.77,305.00 684.58,305.00 685.40,305.00 686.21,305.00 687.01,305.00 687.83,305.00 688.63,305.00 689.42,305.00 690.22,305.00 691.02,305.00 691.81,305.00 692.61,305.00 693.43,305.00 694.22,305.00 695.02,305.00 695.81,305.00 696.60,305.00 697.40,305.00 698.19,305.00 698.98,305.00 699.78,305.00 700.57,305.00 701.36,305.00 702.15,305.00 702.94,305.00 703.73,305.00 704.53,305.00 705.33,305.00 706.12,305.00 706.92,305.00 707.72,305.00 708.51,305.00 709.31,305.00 710.10,305.00 710.90,305.00 711.69,305.00 712.48,305.00 713.28,305.00 714.08,305.00 714.86,305.00 715.65,305.00 716.44,305.00 717.23,305.00 718.03,305.00 718.82,305.00 719.62,305.00 720.41,305.00 721.20,305.00 721.99,305.00 722.79,305.00 723.58,305.00 724.36,305.00 725.15,305.00 725.93,305.00 726.73,305.00 727.52,305.00 728.33,305.00 729.12,305.00 729.91,305.00 730.71,305.00 731.52,305.00 732.32,305.00 733.11,305.00 733.91,305.00 734.70,305.00 735.49,305.00 736.30,305.00 737.09,305.00 737.90,305.00 738.70,305.00 739.49,305.00 740.28,305.00 741.07,305.00 741.86,305.00 742.65,305.00 743.45,305.00 744.23,305.00 745.02,305.00 745.82,305.00 746.62,305.00 747.41,305.00 748.20,305.00 748.99,305.00 749.78,305.00 750.58,305.00 751.38,305.00 752.17,305.00 752.97,305.00 753.76,305.00 754.56,305.00 755.35,305.00 756.14,305.00 756.94,305.00 757.73,305.00 758.52,305.00 759.32,305.00 760.12,305.00 760.91,305.00 761.70,305.00 762.49,305.00 763.32,305.00 764.11,305.00 764.92,305.00 765.72,305.00 766.52,305.00 767.31,305.00 768.11,305.00 768.91,305.00 769.70,305.00 770.49,305.00 771.30,305.00 772.11,305.00 772.90,305.00 773.70,305.00 774.49,305.00 775.28,305.00 776.09,305.00 776.88,305.00 777.67,305.00 778.46,305.00 779.26,305.00 780.05,305.00 780.84,305.00 781.63,305.00 782.43,305.00 783.22,305.00 784.01,305.00 784.80,305.00 785.59,305.00 786.38,305.00 787.20,305.00 787.98,305.00 788.77,305.00 789.57,305.00 790.36,305.00 791.15,305.00 791.95,305.00 792.74,305.00 793.55,305.00 794.34,305.00 795.13,305.00 795.92,305.00 796.72,305.00 797.51,305.00 798.30,305.00 799.11,305.00 799.92,305.00 800.72,305.00 801.54,305.00 802.34,305.00 803.16,305.00 803.97,305.00 804.78,305.00 805.60,305.00 806.41,305.00 807.23,305.00 808.02,305.00 808.81,305.00 809.61,305.00 810.41,305.00 811.21,305.00 812.01,305.00 812.80,305.00 813.60,305.00 814.40,305.00 815.19,305.00 815.98,305.00 816.77,305.00 817.57,305.00 818.36,305.00 819.15,305.00 819.95,305.00 820.74,305.00 821.53,305.00 822.34,305.00 823.14,305.00 823.93,305.00 824.72,305.00 825.52,305.00 826.31,305.00 827.11,305.00 827.91,305.00 828.70,305.00 829.49,305.00 830.29,305.00 831.08,305.00 831.87,305.00 832.67,305.00 833.46,305.00 834.26,305.00 835.11,305.00 835.93,305.00 836.72,305.00 837.52,305.00 838.30,305.00 839.11,305.00 839.92,305.00 840.72,305.00 841.51,305.00 842.30,305.00 843.08,305.00 843.87,305.00 844.66,305.00 845.46,305.00 846.26,305.00 847.05,305.00 847.85,305.00 848.65,305.00 849.45,305.00 850.24,305.00 851.03,305.00 851.82,305.00 852.62,305.00 853.42,305.00 854.21,305.00 855.00,305.00 855.80,305.00 856.60,305.00 857.39,305.00 858.22,305.00 859.02,305.00 859.81,305.00 860.60,305.00 861.40,305.00 862.19,305.00 863.00,305.00 863.79,305.00 864.58,305.00 865.38,305.00 866.18,305.00 866.98,305.00 867.79,305.00 868.59,305.00 869.38,305.00 870.17,305.00 870.97,305.00 871.76,305.00 872.56,305.00 873.34,305.00 874.15,305.00 874.95,305.00 875.74,305.00 876.53,305.00 877.32,305.00 878.12,305.00 878.91,305.00 879.70,305.00 880.50,305.00 881.29,305.00 882.09,305.00 882.88,305.00 883.68,305.00 884.47,305.00 885.27,305.00 886.06,305.00 886.86,305.00 887.65,305.00 888.44,305.00 889.23,305.00 890.02,305.00 890.82,305.00 891.61,305.00 892.43,305.00 893.22,305.00 894.02,305.00 894.82,305.00 895.61,305.00 896.42,305.00 897.28,305.00 898.09,305.00 898.89,305.00 899.69,305.00 900.49,305.00 901.29,305.00 902.08,305.00 902.88,305.00 903.67,305.00 904.46,305.00 905.27,305.00 906.06,305.00 906.85,305.00 907.67,305.00 908.47,305.00 909.26,305.00 910.06,305.00 910.85,305.00 911.65,305.00 912.45,305.00 913.24,305.00 914.03,305.00 914.84,305.00 915.63,305.00 916.43,305.00 917.23,305.00 918.03,305.00 918.82,305.00 919.63,305.00 920.43,305.00 921.23,305.00 922.01,305.00 922.81,305.00 923.61,305.00 924.40,305.00 925.19,305.00 925.99,305.00 926.78,305.00 927.58,305.00 928.38,305.00 929.16,305.00 929.96,305.00 930.76,305.00 931.56,305.00 932.35,305.00 933.15,305.00 933.94,305.00 934.75,305.00 935.55,305.00 936.32,305.00 937.10,305.00 937.89,305.00 938.69,305.00 939.49,305.00 940.28,305.00 941.09,305.00 941.88,305.00 942.69,305.00 943.49,305.00 944.28,305.00 945.08,305.00 945.86,305.00 946.66,305.00 947.44,305.00 948.23,305.00 949.03,305.00 949.83,305.00 950.62,305.00 951.41,305.00 952.20,305.00 953.00,305.00 953.79,305.00 954.59,305.00 955.37,305.00 956.16,305.00 956.93,305.00 957.75,305.00 958.54,305.00 959.34,305.00 960.14,305.00 960.94,305.00 961.73,305.00 962.52,305.00 963.32,305.00 964.12,305.00 964.91,305.00 965.70,305.00 966.56,305.00 967.35,305.00 968.16,305.00 968.95,305.00 969.76,305.00 970.54,305.00 971.34,305.00 972.14,305.00 972.93,305.00 973.72,305.00 974.52,305.00 975.31,305.00 976.11,305.00 976.91,305.00 977.71,305.00 978.50,305.00 979.29,305.00 980.09,305.00 980.88,305.00 981.69,305.00 982.48,305.00 983.29,305.00 984.10,305.00 984.90,305.00 985.69,305.00 986.49,305.00 987.29,305.00 988.09,305.00 988.89,305.00 989.68,305.00 990.47,305.00 991.27,305.00 992.06,305.00 992.86,305.00 993.66,305.00 994.45,305.00 995.25,305.00 996.04,305.00 996.83,305.00 997.62,305.00 998.42,305.00 999.22,305.00 1000.00,305.00 1000.80,305.00 1001.60,305.00 1002.38,305.00 1003.17,305.00 1003.96,305.00 1004.75,305.00 1005.54,305.00 1006.33,305.00 1007.13,305.00 1007.92,305.00 1008.70,305.00 1009.50,305.00 1010.29,305.00 1011.09,305.00 1011.88,305.00 1012.67,305.00 1013.45,305.00 1014.25,305.00 1015.06,305.00 1015.84,305.00 1016.63,305.00 1017.43,305.00 1018.26,305.00 1019.05,305.00 1019.85,305.00 1020.65,305.00 1021.45,305.00 1022.24,305.00 1023.04,305.00 1023.84,305.00 1024.63,305.00 1025.42,305.00 1026.21,305.00 1027.00,305.00 1027.80,305.00 1028.60,305.00 1029.39,305.00 1030.18,305.00 1030.97,305.00 1031.76,305.00 1032.55,305.00 1033.35,305.00 1034.15,305.00 1034.98,305.00 1035.77,305.00 1036.56,305.00 1037.35,305.00 1038.13,305.00 1038.94,305.00 1039.73,305.00 1040.53,305.00 1041.33,305.00 1042.12,305.00 1042.92,305.00 1043.71,305.00 1044.51,305.00 1045.31,305.00 1046.10,305.00 1046.89,305.00 1047.69,305.00 1048.48,305.00 1049.27,305.00 1050.06,305.00 1050.85,305.00 1051.65,305.00 1052.44,305.00 1053.23,305.00 1054.02,305.00 1054.82,305.00 1055.61,305.00 1056.41,305.00 1057.20,305.00 1057.99,305.00 1058.79,305.00 1059.58,305.00 1060.37,305.00 1061.18,305.00 1061.96,305.00 1062.76,305.00 1063.55,305.00 1064.34,305.00 1065.13,305.00 1065.92,305.00 1066.72,305.00 1067.51,305.00 1068.33,305.00 1069.12,305.00 1069.91,305.00 1070.70,305.00 1071.50,305.00 1072.30,305.00 1073.11,305.00 1073.91,305.00 1074.75,305.00 1075.55,305.00 1076.40,305.00 1077.20,305.00 1077.98,305.00 1078.77,305.00 1079.57,305.00 1080.36,305.00 1081.15,305.00 1081.95,305.00 1082.74,305.00 1083.53,305.00 1084.33,305.00 1085.12,305.00 1085.91,305.00 1086.70,305.00 1087.50,305.00 1088.29,305.00 1089.08,305.00 1089.87,305.00 1090.67,305.00 1091.46,305.00 1092.26,305.00 1093.05,305.00 1093.84,305.00 1094.63,305.00 1095.43,305.00 1096.23,305.00 1097.02,305.00 1097.82,305.00 1098.61,305.00 1099.41,305.00 1100.19,305.00 1100.98,305.00 1101.78,305.00 1102.57,305.00 1103.36,305.00 1104.15,305.00 1104.93,305.00 1105.72,305.00 1106.52,305.00 1107.31,305.00 1108.11,305.00 1108.91,305.00 1109.73,305.00 1110.53,305.00 1111.32,305.00 1112.11,305.00 1112.90,305.00 1113.68,305.00 1114.47,305.00 1115.27,305.00 1116.06,305.00 1116.85,305.00 1117.64,305.00 1118.42,305.00 1119.21,305.00 1120.00,305.00 1120.80,305.00 1121.59,305.00 1122.38,305.00 1123.18,305.00 1123.97,305.00 1124.76,305.00 1125.56,305.00 1126.35,305.00 1127.14,305.00 1127.94,305.00 1128.73,305.00 1129.52,305.00 1130.33,305.00 1131.12,305.00 1131.93,305.00 1132.71,305.00 1133.50,305.00 1134.30,305.00 1135.09,305.00 1135.88,305.00 1136.70,305.00 1137.50,305.00 1138.30,305.00 1139.10,305.00 1139.89,305.00 1140.68,305.00 1141.47,305.00 1142.27,305.00 1143.07,305.00 1143.86,305.00 1144.65,305.00 1145.44,305.00 1146.24,305.00 1147.04,305.00 1147.84,305.00 1148.65,305.00 1149.46,305.00 1150.30,305.00 1151.11,305.00 1151.90,305.00 1152.69,305.00 1153.48,305.00 1154.28,305.00 1155.07,305.00 1155.86,305.00 1156.66,305.00 1157.46,305.00 1158.26,305.00 1159.04,305.00 1159.83,305.00 1160.63,305.00 1161.42,305.00 1162.22,305.00 1163.04,305.00 1163.85,305.00 1164.64,305.00 1165.45,305.00 1166.28,305.00 1167.08,305.00 1167.92,305.00 1168.72,305.00 1169.51,305.00 1170.31,305.00 1171.10,305.00 1171.90,305.00 1172.69,305.00 1173.48,305.00 1174.27,305.00 1175.07,305.00 1175.86,305.00 1176.67,305.00 1177.47,305.00 1178.26,305.00 1179.07,305.00 1180.00,305.00"/>
<rect x="70" y="332" width="12" height="12" fill="#9467bd" fill-opacity="0.95"/>
<text x="88" y="342" font-size="11" fill="#333" font-family="Arial, Helvetica, sans-serif">nsc1.utdallas.edu</text>
<rect x="350" y="332" width="12" height="12" fill="#9467bd" fill-opacity="0.80"/>
<text x="368" y="342" font-size="11" fill="#333" font-family="Arial, Helvetica, sans-serif">nsc2.utdallas.edu</text>
<rect x="630" y="332" width="12" height="12" fill="#9467bd" fill-opacity="0.65"/>
<text x="648" y="342" font-size="11" fill="#333" font-family="Arial, Helvetica, sans-serif">nsc3.utdallas.edu</text>
<rect x="910" y="332" width="12" height="12" fill="#9467bd" fill-opacity="0.50"/>
<text x="928" y="342" font-size="11" fill="#333" font-family="Arial, Helvetica, sans-serif">nsc4.utdallas.edu</text>
</svg>