<?xml version="1.0" encoding="UTF-8"?>
<svg xmlns="http://www.w3.org/2000/svg" width="1200" height="360" viewBox="0 0 1200 360" role="img" aria-label="GPU Utilization (%)">
<rect width="100%" height="100%" fill="#ffffff"/>
<text x="600.0" y="22" text-anchor="middle" font-size="16" font-family="Arial, Helvetica, sans-serif" font-weight="bold">GPU Utilization (%)</text>
<line x1="70" y1="35.00" x2="1180" y2="35.00" stroke="#e3e3e3" stroke-width="1"/>
<text x="62" y="39.00" text-anchor="end" font-size="11" fill="#444" font-family="Arial, Helvetica, sans-serif">100</text>
<line x1="70" y1="89.00" x2="1180" y2="89.00" stroke="#e3e3e3" stroke-width="1"/>
<text x="62" y="93.00" text-anchor="end" font-size="11" fill="#444" font-family="Arial, Helvetica, sans-serif">80</text>
<line x1="70" y1="143.00" x2="1180" y2="143.00" stroke="#e3e3e3" stroke-width="1"/>
<text x="62" y="147.00" text-anchor="end" font-size="11" fill="#444" font-family="Arial, Helvetica, sans-serif">60</text>
<line x1="70" y1="197.00" x2="1180" y2="197.00" stroke="#e3e3e3" stroke-width="1"/>
<text x="62" y="201.00" text-anchor="end" font-size="11" fill="#444" font-family="Arial, Helvetica, sans-serif">40</text>
<line x1="70" y1="251.00" x2="1180" y2="251.00" stroke="#e3e3e3" stroke-width="1"/>
<text x="62" y="255.00" text-anchor="end" font-size="11" fill="#444" font-family="Arial, Helvetica, sans-serif">20</text>
<line x1="70" y1="305.00" x2="1180" y2="305.00" stroke="#e3e3e3" stroke-width="1"/>
<text x="62" y="309.00" text-anchor="end" font-size="11" fill="#444" font-family="Arial, Helvetica, sans-serif">0</text>
<line x1="70" y1="35" x2="70" y2="305" stroke="#999"/>
<line x1="70" y1="305" x2="1180" y2="305" stroke="#999"/>
<text x="70.00" y="323" text-anchor="middle" font-size="10" fill="#444" font-family="Arial, Helvetica, sans-serif">2026-02-11 16:38</text>
<text x="347.50" y="323" text-anchor="middle" font-size="10" fill="#444" font-family="Arial, Helvetica, sans-serif">2026-02-12 16:19</text>
<text x="625.00" y="323" text-anchor="middle" font-size="10" fill="#444" font-family="Arial, Helvetica, sans-serif">2026-02-13 16:00</text>
<text x="902.50" y="323" text-anchor="middle" font-size="10" fill="#444" font-family="Arial, Helvetica, sans-serif">2026-02-14 15:41</text>
<text x="1180.00" y="323" text-anchor="middle" font-size="10" fill="#444" font-family="Arial, Helvetica, sans-serif">2026-02-15 15:23</text>
<polyline fill="none" stroke="#9467bd" stroke-opacity="0.95" stroke-width="2" points="71.05,305.00 72.11,305.00 73.15,305.00 74.21,305.00 75.27,305.00 76.31,305.00 77.36,305.00 78.50,305.00 79.55,305.00 80.59,305.00 81.64,305.00 82.70,305.00 83.75,305.00 84.79,305.00 86.68,305.00 88.31,305.00 89.38,305.00 90.45,305.00 91.50,305.00 92.55,305.00 93.58,305.00 94.64,305.00 95.69,305.00 96.74,305.00 97.80,305.00 98.87,305.00 99.93,305.00 100.98,305.00 102.08,305.00 103.14,305.00 104.19,305.00 105.27,305.00 106.32,305.00 107.37,305.00 108.45,305.00 109.50,305.00 110.55,305.00 111.62,305.00 112.66,305.00 113.71,305.00 114.74,305.00 115.79,305.00 116.85,305.00 117.89,305.00 118.97,305.00 120.03,305.00 121.06,305.00 122.11,305.00 123.17,305.00 124.22,305.00 125.42,305.00 126.48,305.00 127.52,305.00 128.57,305.00 129.61,305.00 130.65,305.00 131.70,305.00 132.75,305.00 133.80,305.00 134.87,305.00 135.92,305.00 136.95,305.00 138.01,305.00 139.08,305.00 140.12,305.00 141.18,305.00 142.22,305.00 143.26,305.00 144.30,305.00 145.34,305.00 146.39,305.00 147.44,305.00 148.48,305.00 149.53,305.00 150.59,305.00 151.63,305.00 152.68,305.00 153.73,305.00 154.77,305.00 155.85,305.00 156.90,305.00 157.94,305.00 159.00,305.00 160.05,305.00 161.10,305.00 162.15,305.00 163.19,305.00 164.23,305.00 165.29,305.00 166.34,305.00 167.39,305.00 168.45,305.00 169.49,305.00 170.54,305.00 171.59,305.00 172.63,305.00 173.67,305.00 174.73,305.00 175.77,305.00 176.82,305.00 177.88,305.00 178.93,305.00 179.98,305.00 181.04,305.00 182.10,305.00 183.15,305.00 184.19,305.00 185.24,305.00 186.28,305.00 187.34,305.00 188.40,305.00 189.44,305.00 190.49,305.00 191.55,305.00 192.60,305.00 193.66,305.00 194.73,305.00 195.77,305.00 196.82,305.00 197.87,305.00 198.92,305.00 199.97,305.00 201.03,305.00 202.16,305.00 203.21,305.00 204.27,305.00 205.32,305.00 206.36,305.00 207.40,305.00 208.44,305.00 209.48,305.00 210.53,305.00 211.58,305.00 212.63,305.00 213.67,305.00 214.72,305.00 215.76,305.00 216.83,305.00 217.88,305.00 218.93,305.00 219.97,305.00 221.02,305.00 222.07,305.00 223.12,305.00 224.18,305.00 225.23,305.00 226.28,305.00 227.33,305.00 228.37,305.00 229.41,305.00 230.46,305.00 231.51,305.00 232.56,305.00 233.62,305.00 234.67,305.00 235.72,305.00 236.78,305.00 237.83,305.00 238.87,305.00 239.93,305.00 240.98,305.00 242.05,305.00 243.11,305.00 244.16,305.00 245.21,305.00 246.25,305.00 247.29,305.00 248.34,305.00 249.39,305.00 250.44,305.00 251.47,305.00 252.52,305.00 253.58,305.00 254.63,305.00 255.69,305.00 256.73,305.00 257.81,305.00 258.86,305.00 259.90,305.00 260.95,305.00 261.99,305.00 263.13,305.00 264.20,305.00 265.25,305.00 266.29,305.00 267.33,305.00 268.38,305.00 269.43,305.00 270.48,305.00 271.54,305.00 272.58,305.00 273.63,305.00 274.68,305.00 275.75,305.00 276.80,305.00 277.84,305.00 278.89,305.00 279.95,305.00 281.02,305.00 282.09,305.00 283.13,305.00 284.19,305.00 285.24,305.00 286.28,305.00 287.34,305.00 288.39,305.00 289.45,305.00 290.50,305.00 291.54,305.00 292.60,305.00 293.65,305.00 294.70,305.00 295.75,305.00 296.81,305.00 297.86,305.00 298.91,305.00 299.95,305.00 300.99,305.00 302.04,305.00 303.09,305.00 304.14,305.00 305.18,305.00 306.22,305.00 307.27,305.00 308.33,305.00 309.38,305.00 310.43,305.00 311.50,305.00 312.55,305.00 313.61,305.00 314.65,305.00 315.71,305.00 316.75,305.00 317.80,305.00 318.86,305.00 319.93,305.00 320.98,305.00 322.03,305.00 323.09,305.00 324.13,305.00 325.18,305.00 326.22,305.00 327.27,305.00 328.33,305.00 329.38,305.00 330.43,305.00 331.48,305.00 332.54,305.00 333.59,305.00 334.64,305.00 335.70,305.00 336.76,305.00 337.80,305.00 338.85,305.00 339.91,305.00 340.97,305.00 342.02,305.00 343.07,305.00 344.12,305.00 345.28,305.00 346.34,305.00 347.39,305.00 348.44,305.00 349.50,305.00 350.56,305.00 351.61,305.00 352.66,305.00 353.70,305.00 354.79,80.90 355.85,72.80 356.89,305.00 357.94,305.00 358.99,305.00 360.04,305.00 361.09,305.00 362.18,305.00 363.24,305.00 364.28,305.00 365.35,305.00 366.48,305.00 367.53,305.00 368.85,305.00 370.63,305.00 371.70,305.00 372.78,305.00 373.82,305.00 374.85,305.00 375.90,305.00 376.96,305.00 378.02,305.00 379.08,305.00 380.17,305.00 381.26,305.00 382.37,305.00 383.42,305.00 384.48,305.00 385.53,305.00 386.59,305.00 387.65,305.00 388.72,305.00 389.76,305.00 390.81,305.00 391.90,305.00 392.96,305.00 394.00,305.00 395.05,305.00 396.12,305.00 397.21,305.00 398.27,305.00 399.32,305.00 400.40,305.00 401.40,305.00 402.45,305.00 403.52,305.00 404.56,305.00 405.63,305.00 406.71,305.00 407.77,305.00 408.82,305.00 409.88,305.00 410.94,305.00 411.99,305.00 413.04,305.00 414.08,305.00 415.14,305.00 416.19,305.00 417.23,305.00 418.49,305.00 419.72,305.00 420.97,305.00 422.19,305.00 423.39,305.00 424.60,305.00 425.84,305.00 427.07,305.00 428.12,305.00 429.16,305.00 430.21,305.00 431.25,305.00 432.30,305.00 433.35,305.00 434.39,305.00 435.44,305.00 436.49,305.00 437.53,305.00 438.58,305.00 439.63,305.00 440.67,305.00 441.72,305.00 442.76,305.00 443.81,305.00 444.86,305.00 445.90,305.00 446.95,305.00 448.01,305.00 449.05,305.00 450.09,305.00 451.13,305.00 452.18,305.00 453.23,305.00 454.28,305.00 455.33,305.00 456.38,305.00 457.43,305.00 458.47,305.00 459.52,305.00 460.57,305.00 461.61,305.00 462.66,305.00 463.69,305.00 464.73,305.00 465.78,305.00 466.82,305.00 467.86,305.00 468.91,305.00 469.95,305.00 471.00,305.00 472.04,305.00 473.08,305.00 474.11,305.00 475.19,305.00 476.32,305.00 477.38,305.00 478.43,305.00 479.47,305.00 480.52,305.00 481.55,305.00 482.59,305.00 483.64,305.00 484.88,305.00 486.11,305.00 487.33,305.00 488.56,305.00 489.80,305.00 491.02,305.00 492.27,305.00 493.55,305.00 494.69,305.00 495.82,305.00 496.87,305.00 497.93,305.00 498.98,305.00 500.02,305.00 501.06,305.00 502.11,305.00 503.16,305.00 504.21,305.00 505.25,305.00 506.30,305.00 507.35,305.00 508.39,305.00 509.46,305.00 510.50,305.00 511.55,305.00 512.46,305.00 513.55,305.00 514.60,305.00 515.67,305.00 516.72,305.00 517.76,305.00 518.82,305.00 519.88,305.00 520.93,305.00 521.99,305.00 523.05,305.00 524.12,305.00 525.16,305.00 526.20,305.00 527.25,305.00 528.29,305.00 529.33,305.00 530.37,305.00 531.43,305.00 532.48,305.00 533.53,305.00 534.58,305.00 535.62,305.00 536.68,305.00 537.72,305.00 538.78,305.00 539.84,305.00 540.88,305.00 541.93,305.00 542.99,305.00 544.04,305.00 545.12,305.00 546.16,305.00 547.21,305.00 548.25,305.00 549.29,305.00 550.34,305.00 551.40,305.00 552.44,305.00 553.48,305.00 554.53,305.00 555.58,305.00 556.62,305.00 557.68,305.00 558.74,305.00 559.78,305.00 561.05,305.00 562.13,305.00 563.20,305.00 564.26,305.00 565.31,305.00 566.38,305.00 567.41,305.00 568.46,305.00 569.52,305.00 570.58,305.00 571.62,305.00 572.68,305.00 573.73,305.00 574.78,305.00 575.87,305.00 576.93,305.00 577.98,305.00 579.04,305.00 580.09,305.00 581.13,305.00 582.18,305.00 583.23,305.00 584.32,305.00 585.38,305.00 586.43,305.00 587.48,305.00 588.53,305.00 589.59,305.00 590.63,305.00 591.68,305.00 592.74,305.00 593.79,305.00 594.85,305.00 595.90,305.00 596.94,305.00 597.99,305.00 599.04,305.00 600.11,305.00 601.16,305.00 602.21,305.00 603.25,305.00 604.30,305.00 605.37,305.00 606.43,305.00 607.69,305.00 608.77,305.00 609.82,305.00 610.87,305.00 611.91,305.00 612.97,305.00 614.02,305.00 615.07,305.00 616.15,305.00 617.19,305.00 618.24,305.00 619.28,305.00 620.33,305.00 621.38,305.00 622.43,305.00 623.49,305.00 624.53,305.00 625.58,305.00 626.62,305.00 627.67,305.00 628.74,305.00 629.78,305.00 630.82,305.00 631.89,305.00 632.95,305.00 633.99,305.00 635.04,305.00 636.10,305.00 637.18,305.00 638.22,305.00 639.27,305.00 640.33,305.00 641.38,305.00 642.43,305.00 643.48,305.00 644.53,305.00 645.61,305.00 646.66,305.00 647.71,305.00 648.75,305.00 649.79,305.00 650.84,305.00 651.90,305.00 652.94,305.00 654.00,305.00 655.07,305.00 656.13,305.00 657.15,305.00 658.22,305.00 659.26,305.00 660.31,305.00 661.36,305.00 662.41,305.00 663.46,305.00 664.52,305.00 665.57,305.00 666.62,305.00 667.68,305.00 668.74,305.00 669.80,305.00 670.85,305.00 671.91,305.00 673.09,305.00 674.24,305.00 675.37,305.00 676.43,305.00 677.53,305.00 678.58,305.00 679.63,305.00 680.67,305.00 681.65,305.00 682.75,305.00 683.80,305.00 684.87,305.00 685.90,305.00 686.96,305.00 688.00,305.00 689.06,305.00 690.11,305.00 691.16,305.00 692.21,305.00 693.26,305.00 694.32,305.00 695.37,305.00 696.44,305.00 697.50,305.00 698.55,305.00 699.60,305.00 700.66,305.00 701.73,305.00 702.78,305.00 703.83,305.00 704.87,305.00 705.93,305.00 706.98,305.00 708.02,305.00 709.08,305.00 710.13,305.00 711.20,305.00 712.24,305.00 713.29,305.00 714.34,305.00 715.39,305.00 716.45,305.00 717.51,305.00 718.55,305.00 719.61,305.00 720.66,305.00 721.72,305.00 722.78,305.00 723.84,305.00 724.89,305.00 725.94,305.00 727.00,305.00 728.05,305.00 729.12,305.00 730.20,305.00 731.25,305.00 732.31,305.00 733.36,305.00 734.41,305.00 735.46,305.00 736.52,305.00 737.57,305.00 738.63,305.00 739.68,305.00 740.74,305.00 741.80,305.00 742.85,305.00 743.91,305.00 744.96,305.00 746.03,305.00 747.08,305.00 748.14,305.00 749.21,305.00 750.26,305.00 751.31,305.00 752.36,305.00 753.42,305.00 754.50,305.00 755.55,305.00 756.62,305.00 757.67,305.00 758.72,305.00 759.77,305.00 760.82,305.00 761.88,305.00 762.93,305.00 763.99,305.00 765.04,305.00 766.09,305.00 767.14,305.00 768.21,305.00 769.26,305.00 770.31,305.00 771.38,305.00 772.43,305.00 773.49,305.00 774.54,305.00 775.59,305.00 776.64,305.00 777.68,305.00 778.74,305.00 779.79,305.00 780.85,305.00 781.91,305.00 782.97,305.00 784.02,305.00 785.08,305.00 786.15,305.00 787.19,305.00 788.25,305.00 789.32,305.00 790.37,305.00 791.42,305.00 792.48,305.00 793.55,305.00 794.61,305.00 795.66,305.00 796.74,305.00 797.80,305.00 798.86,305.00 799.91,305.00 800.96,305.00 802.02,305.00 803.08,305.00 804.15,305.00 805.21,305.00 806.26,305.00 807.31,305.00 808.36,305.00 809.44,305.00 810.49,305.00 811.55,305.00 812.60,305.00 813.65,305.00 814.70,305.00 815.75,305.00 816.79,305.00 817.85,305.00 818.91,305.00 819.97,305.00 821.01,305.00 822.07,305.00 823.13,305.00 824.21,305.00 825.27,305.00 826.32,305.00 827.37,305.00 828.42,305.00 829.47,305.00 830.53,305.00 831.59,305.00 832.64,305.00 833.70,305.00 834.76,305.00 835.81,305.00 836.86,305.00 837.92,305.00 838.98,305.00 840.07,305.00 841.13,305.00 842.20,305.00 843.26,305.00 844.31,305.00 845.37,305.00 846.42,305.00 847.47,305.00 848.52,305.00 849.58,305.00 850.64,305.00 851.70,305.00 852.76,305.00 853.83,305.00 854.92,305.00 855.98,305.00 857.03,305.00 858.09,305.00 859.14,305.00 860.20,305.00 861.26,305.00 862.33,305.00 863.39,305.00 864.45,305.00 865.51,305.00 866.57,305.00 867.63,305.00 868.68,305.00 869.74,305.00 870.80,305.00 871.85,305.00 872.91,305.00 873.98,305.00 875.03,305.00 876.08,305.00 877.15,305.00 878.21,305.00 879.26,305.00 880.32,305.00 881.38,305.00 882.47,305.00 883.53,305.00 884.60,305.00 885.65,305.00 886.73,305.00 887.81,305.00 888.89,305.00 889.96,305.00 891.05,305.00 892.11,305.00 893.17,305.00 894.22,305.00 895.28,305.00 896.34,305.00 897.40,305.00 898.49,305.00 899.54,305.00 900.60,305.00 901.65,305.00 902.70,305.00 903.76,305.00 904.82,305.00 905.87,305.00 906.92,305.00 907.98,305.00 909.03,305.00 910.08,305.00 911.12,305.00 912.18,305.00 913.24,305.00 914.30,305.00 915.35,305.00 916.42,305.00 917.48,305.00 918.53,305.00 919.59,305.00 920.65,305.00 921.70,305.00 922.75,305.00 923.80,305.00 924.86,305.00 925.93,305.00 926.97,305.00 928.01,305.00 929.07,305.00 930.12,305.00 931.18,305.00 932.23,305.00 933.29,305.00 934.34,305.00 935.39,305.00 936.45,305.00 937.51,305.00 938.56,305.00 939.60,305.00 940.64,305.00 941.68,305.00 942.74,305.00 943.79,305.00 944.87,305.00 945.92,305.00 946.97,305.00 948.03,305.00 949.10,305.00 950.17,305.00 951.22,305.00 952.28,305.00 953.34,305.00 954.39,305.00 955.46,305.00 956.51,305.00 957.58,305.00 958.65,305.00 959.70,305.00 960.74,305.00 961.80,305.00 962.85,305.00 963.90,305.00 964.96,305.00 965.99,305.00 967.05,305.00 968.11,305.00 969.17,305.00 970.22,305.00 971.27,305.00 972.32,305.00 973.38,305.00 974.44,305.00 975.50,305.00 976.55,305.00 977.61,305.00 978.66,305.00 979.73,305.00 980.77,305.00 981.83,305.00 982.89,305.00 983.94,305.00 984.99,305.00 986.06,305.00 987.12,305.00 988.17,305.00 989.22,305.00 990.27,305.00 991.36,305.00 992.41,305.00 993.49,305.00 994.56,305.00 995.62,305.00 996.67,305.00 997.73,305.00 998.79,305.00 999.85,305.00 1000.90,305.00 1001.96,305.00 1003.04,305.00 1004.10,305.00 1005.15,305.00 1006.21,305.00 1007.27,305.00 1008.33,305.00 1009.39,305.00 1010.43,305.00 1011.49,305.00 1012.54,305.00 1013.60,305.00 1014.65,305.00 1015.70,305.00 1016.76,305.00 1017.81,305.00 1018.86,305.00 1019.91,305.00 1020.97,305.00 1022.02,305.00 1023.09,305.00 1024.14,305.00 1025.19,305.00 1026.25,305.00 1027.31,305.00 1028.35,305.00 1029.42,305.00 1030.46,305.00 1031.54,305.00 1032.59,305.00 1033.64,305.00 1034.69,305.00 1035.75,305.00 1036.80,305.00 1037.85,305.00 1038.92,305.00 1040.00,305.00 1041.07,305.00 1042.15,305.00 1043.22,305.00 1044.30,305.00 1045.39,305.00 1046.46,305.00 1047.56,305.00 1048.63,305.00 1049.72,305.00 1050.77,305.00 1051.82,305.00 1052.88,305.00 1053.95,305.00 1055.00,305.00 1056.07,305.00 1057.12,305.00 1058.19,305.00 1059.24,305.00 1060.30,305.00 1061.35,305.00 1062.40,305.00 1063.46,305.00 1064.50,305.00 1065.56,305.00 1066.62,305.00 1067.68,305.00 1068.73,305.00 1069.80,305.00 1070.86,305.00 1071.92,305.00 1072.97,305.00 1074.02,305.00 1075.08,305.00 1076.14,305.00 1077.19,305.00 1078.25,305.00 1079.30,305.00 1080.36,305.00 1081.42,305.00 1082.47,305.00 1083.53,305.00 1084.58,305.00 1085.64,305.00 1086.77,305.00 1087.86,305.00 1088.91,305.00 1089.97,305.00 1091.02,305.00 1092.09,305.00 1093.16,305.00 1094.22,305.00 1095.28,305.00 1096.32,305.00 1097.36,305.00 1098.41,305.00 1099.47,305.00 1100.52,305.00 1101.58,305.00 1102.64,305.00 1103.70,305.00 1104.76,305.00 1105.82,305.00 1106.87,305.00 1107.93,305.00 1108.98,305.00 1110.04,305.00 1111.10,305.00 1112.15,305.00 1113.20,305.00 1114.27,305.00 1115.32,305.00 1116.38,305.00 1117.48,305.00 1118.54,305.00 1119.60,305.00 1120.65,305.00 1121.71,305.00 1122.76,305.00 1123.83,305.00 1124.89,305.00 1125.94,305.00 1127.00,305.00 1128.06,305.00 1129.13,305.00 1130.19,305.00 1131.26,305.00 1132.31,305.00 1133.36,305.00 1134.42,305.00 1135.47,305.00 1136.53,305.00 1137.58,305.00 1138.65,305.00 1139.71,305.00 1140.76,305.00 1141.82,305.00 1142.87,305.00 1143.93,305.00 1144.98,305.00 1146.03,305.00 1147.09,305.00 1148.15,305.00 1149.21,305.00 1150.25,305.00 1151.31,305.00 1152.37,305.00 1153.43,305.00 1154.48,305.00 1155.54,305.00 1156.59,305.00 1157.64,305.00 1158.69,305.00 1159.74,305.00 1160.81,305.00 1161.86,305.00 1162.94,305.00 1164.00,305.00 1165.06,305.00 1166.12,305.00 1167.17,305.00 1168.25,305.00 1169.38,305.00 1170.46,305.00 1171.52,305.00 1172.59,305.00 1173.66,305.00 1174.71,305.00 1175.76,305.00 1176.82,305.00 1177.88,305.00 1178.94,305.00 1180.00,305.00"/>
<polyline fill="none" stroke="#9467bd" stroke-opacity="0.80" stroke-width="2" points="70.00,305.00 71.05,305.00 72.11,305.00 73.15,305.00 74.21,305.00 75.27,305.00 76.31,305.00 77.36,305.00 78.50,305.00 79.55,305.00 80.59,305.00 81.64,305.00 82.70,305.00 83.75,305.00 84.79,305.00 86.68,305.00 88.31,305.00 89.38,305.00 90.45,305.00 91.50,305.00 92.55,305.00 93.58,305.00 94.64,305.00 95.69,305.00 96.74,305.00 97.80,305.00 98.87,305.00 99.93,305.00 100.98,305.00 102.08,305.00 103.14,305.00 104.19,305.00 105.27,305.00 106.32,305.00 107.37,305.00 108.45,305.00 109.50,305.00 110.55,305.00 111.62,305.00 112.66,305.00 113.71,305.00 114.74,305.00 115.79,305.00 116.85,305.00 117.89,305.00 118.97,305.00 120.03,305.00 121.06,305.00 122.11,305.00 123.17,305.00 124.22,305.00 125.42,305.00 126.48,305.00 127.52,305.00 128.57,305.00 129.61,305.00 130.65,305.00 131.70,305.00 132.75,305.00 133.80,305.00 134.87,305.00 135.92,305.00 136.95,305.00 138.01,305.00 139.08,305.00 140.12,305.00 141.18,305.00 142.22,305.00 143.26,305.00 144.30,305.00 145.34,305.00 146.39,305.00 147.44,305.00 148.48,305.00 149.53,305.00 150.59,305.00 151.63,305.00 152.68,305.00 153.73,305.00 154.77,305.00 155.85,305.00 156.90,305.00 157.94,305.00 159.00,305.00 160.05,305.00 161.10,305.00 162.15,305.00 163.19,305.00 164.23,305.00 165.29,305.00 166.34,305.00 167.39,305.00 168.45,305.00 169.49,305.00 170.54,305.00 171.59,305.00 172.63,305.00 173.67,305.00 174.73,305.00 175.77,305.00 176.82,305.00 177.88,305.00 178.93,305.00 179.98,305.00 181.04,305.00 182.10,305.00 183.15,305.00 184.19,305.00 185.24,305.00 186.28,305.00 187.34,305.00 188.40,305.00 189.44,305.00 190.49,305.00 191.55,305.00 192.60,305.00 193.66,305.00 194.73,305.00 195.77,305.00 196.82,305.00 197.87,305.00 198.92,305.00 199.97,305.00 201.03,305.00 202.16,305.00 203.21,305.00 204.27,305.00 205.32,305.00 206.36,305.00 207.40,305.00 208.44,305.00 209.48,305.00 210.53,305.00 211.58,305.00 212.63,305.00 213.67,305.00 214.72,305.00 215.76,305.00 216.83,305.00 217.88,305.00 218.93,305.00 219.97,305.00 221.02,305.00 222.07,305.00 223.12,305.00 224.18,305.00 225.23,305.00 226.28,305.00 227.33,305.00 228.37,305.00 229.41,305.00 230.46,305.00 231.51,305.00 232.56,305.00 233.62,305.00 234.67,305.00 235.72,305.00 236.78,305.00 237.83,305.00 238.87,305.00 239.93,305.00 240.98,305.00 242.05,305.00 243.11,305.00 244.16,305.00 245.21,305.00 246.25,305.00 247.29,305.00 248.34,305.00 249.39,305.00 250.44,305.00 251.47,305.00 252.52,305.00 253.58,305.00 254.63,305.00 255.69,305.00 256.73,305.00 257.81,305.00 258.86,305.00 259.90,305.00 260.95,305.00 261.99,305.00 263.13,305.00 264.20,305.00 265.25,305.00 266.29,305.00 267.33,305.00 268.38,305.00 269.43,305.00 270.48,305.00 271.54,305.00 272.58,305.00 273.63,305.00 274.68,305.00 275.75,305.00 276.80,305.00 277.84,305.00 278.89,305.00 279.95,305.00 281.02,305.00 282.09,305.00 283.13,305.00 284.19,305.00 285.24,305.00 286.28,305.00 287.34,305.00 288.39,305.00 289.45,305.00 290.50,305.00 291.54,305.00 292.60,305.00 293.65,305.00 294.70,305.00 295.75,305.00 296.81,305.00 297.86,305.00 298.91,305.00 299.95,305.00 300.99,305.00 302.04,305.00 303.09,305.00 304.14,305.00 305.18,305.00 306.22,305.00 307.27,305.00 308.33,305.00 309.38,305.00 310.43,305.00 311.50,305.00 312.55,305.00 313.61,305.00 314.65,305.00 315.71,305.00 316.75,305.00 317.80,305.00 318.86,305.00 319.93,305.00 320.98,305.00 322.03,305.00 323.09,305.00 324.13,305.00 325.18,305.00 326.22,305.00 327.27,305.00 328.33,305.00 329.38,305.00 330.43,305.00 331.48,305.00 332.54,305.00 333.59,305.00 334.64,305.00 335.70,305.00 336.76,305.00 337.80,305.00 338.85,305.00 339.91,305.00 340.97,305.00 342.02,305.00 343.07,305.00 344.12,305.00 345.28,305.00 346.34,305.00 347.39,305.00 348.44,305.00 349.50,305.00 350.56,305.00 351.61,305.00 352.66,305.00 353.70,305.00 354.79,305.00 355.85,305.00 356.89,305.00 357.94,305.00 358.99,305.00 360.04,305.00 361.09,305.00 362.18,305.00 363.24,305.00 364.28,305.00 365.35,305.00 366.48,305.00 367.53,305.00 368.85,305.00 370.63,305.00 371.70,305.00 372.78,305.00 373.82,305.00 374.85,305.00 375.90,305.00 376.96,305.00 378.02,305.00 379.08,305.00 380.17,305.00 381.26,305.00 382.37,305.00 383.42,305.00 384.48,305.00 385.53,305.00 386.59,305.00 387.65,305.00 388.72,305.00 389.76,305.00 390.81,305.00 391.90,305.00 392.96,305.00 394.00,305.00 395.05,305.00 396.12,305.00 397.21,305.00 398.27,305.00 399.32,305.00 400.40,305.00 401.40,305.00 402.45,305.00 403.52,305.00 404.56,305.00 405.63,305.00 406.71,305.00 407.77,305.00 408.82,305.00 409.88,305.00 410.94,305.00 411.99,305.00 413.04,305.00 414.08,305.00 415.14,305.00 416.19,305.00 417.23,305.00 418.49,305.00 419.72,305.00 420.97,305.00 422.19,305.00 423.39,305.00 424.60,305.00 425.84,305.00 427.07,305.00 428.12,305.00 429.16,305.00 430.21,305.00 431.25,305.00 432.30,305.00 433.35,305.00 434.39,305.00 435.44,305.00 436.49,305.00 437.53,305.00 438.58,305.00 439.63,305.00 440.67,305.00 441.72,305.00 442.76,305.00 443.81,305.00 444.86,305.00 445.90,305.00 446.95,305.00 448.01,305.00 449.05,305.00 450.09,305.00 451.13,305.00 452.18,305.00 453.23,305.00 454.28,305.00 455.33,305.00 456.38,305.00 457.43,305.00 458.47,305.00 459.52,305.00 460.57,305.00 461.61,305.00 462.66,305.00 463.69,305.00 464.73,305.00 465.78,305.00 466.82,305.00 467.86,305.00 468.91,305.00 469.95,305.00 471.00,305.00 472.04,305.00 473.08,305.00 474.11,305.00 475.19,305.00 476.32,305.00 477.38,305.00 478.43,305.00 479.47,305.00 480.52,305.00 481.55,305.00 482.59,305.00 483.64,305.00 484.88,305.00 486.11,305.00 487.33,305.00 488.56,305.00 489.80,305.00 491.02,305.00 492.27,305.00 493.55,305.00 494.69,305.00 495.82,305.00 496.87,305.00 497.93,305.00 498.98,305.00 500.02,305.00 501.06,305.00 502.11,305.00 503.16,305.00 504.21,305.00 505.25,305.00 506.30,305.00 507.35,305.00 508.39,305.00 509.46,305.00 510.50,305.00 511.55,305.00 512.46,305.00 513.55,305.00 514.60,305.00 515.67,305.00 516.72,305.00 517.76,305.00 518.82,305.00 519.88,305.00 520.93,305.00 521.99,305.00 523.05,305.00 524.12,305.00 525.16,305.00 526.20,305.00 527.25,305.00 528.29,305.00 529.33,305.00 530.37,305.00 531.43,305.00 532.48,305.00 533.53,305.00 534.58,305.00 535.62,305.00 536.68,305.00 537.72,305.00 538.78,305.00 539.84,305.00 540.88,305.00 541.93,305.00 542.99,305.00 544.04,305.00 545.12,305.00 546.16,305.00 547.21,305.00 548.25,305.00 549.29,305.00 550.34,305.00 551.40,305.00 552.44,305.00 553.48,305.00 554.53,305.00 555.58,305.00 556.62,305.00 557.68,305.00 558.74,305.00 559.78,305.00 561.05,305.00 562.13,305.00 563.20,305.00 564.26,305.00 565.31,305.00 566.38,305.00 567.41,305.00 568.46,305.00 569.52,305.00 570.58,305.00 571.62,305.00 572.68,305.00 573.73,305.00 574.78,305.00 575.87,305.00 576.93,305.00 577.98,305.00 579.04,305.00 580.09,305.00 581.13,305.00 582.18,305.00 583.23,305.00 584.32,305.00 585.38,305.00 586.43,305.00 587.48,305.00 588.53,305.00 589.59,305.00 590.63,305.00 591.68,305.00 592.74,305.00 593.79,305.00 594.85,305.00 595.90,305.00 596.94,305.00 597.99,305.00 599.04,305.00 600.11,305.00 601.16,305.00 602.21,305.00 603.25,305.00 604.30,305.00 605.37,305.00 606.43,305.00 607.69,305.00 608.77,305.00 609.82,305.00 610.87,305.00 611.91,305.00 612.97,305.00 614.02,305.00 615.07,305.00 616.15,305.00 617.19,305.00 618.24,305.00 619.28,305.00 620.33,305.00 621.38,305.00 622.43,305.00 623.49,305.00 624.53,305.00 625.58,305.00 626.62,305.00 627.67,305.00 628.74,305.00 629.78,305.00 630.82,305.00 631.89,305.00 632.95,305.00 633.99,305.00 635.04,305.00 636.10,305.00 637.18,305.00 638.22,305.00 639.27,305.00 640.33,305.00 641.38,305.00 642.43,305.00 643.48,305.00 644.53,305.00 645.61,305.00 646.66,305.00 647.71,305.00 648.75,305.00 649.79,305.00 650.84,305.00 651.90,305.00 652.94,305.00 654.00,305.00 655.07,305.00 656.13,305.00 657.15,305.00 658.22,305.00 659.26,305.00 660.31,305.00 661.36,305.00 662.41,305.00 663.46,305.00 664.52,305.00 665.57,305.00 666.62,305.00 667.68,305.00 668.74,305.00 669.80,305.00 670.85,305.00 671.91,305.00 673.09,305.00 674.24,305.00 675.37,305.00 676.43,305.00 677.53,305.00 678.58,305.00 679.63,305.00 680.67,305.00 681.65,305.00 682.75,305.00 683.80,305.00 684.87,305.00 685.90,305.00 686.96,305.00 688.00,305.00 689.06,305.00 690.11,305.00 691.16,305.00 692.21,305.00 693.26,305.00 694.32,305.00 695.37,305.00 696.44,305.00 697.50,305.00 698.55,305.00 699.60,305.00 700.66,305.00 701.73,305.00 702.78,305.00 703.83,305.00 704.87,305.00 705.93,305.00 706.98,305.00 708.02,305.00 709.08,305.00 710.13,305.00 711.20,305.00 712.24,305.00 713.29,305.00 714.34,305.00 715.39,305.00 716.45,305.00 717.51,305.00 718.55,305.00 719.61,305.00 720.66,305.00 721.72,305.00 722.78,305.00 723.84,305.00 724.89,305.00 725.94,305.00 727.00,305.00 728.05,305.00 729.12,305.00 730.20,305.00 731.25,305.00 732.31,305.00 733.36,305.00 734.41,305.00 735.46,305.00 736.52,305.00 737.57,305.00 738.63,305.00 739.68,305.00 740.74,305.00 741.80,305.00 742.85,305.00 743.91,305.00 744.96,305.00 746.03,305.00 747.08,305.00 748.14,305.00 749.21,305.00 750.26,305.00 751.31,305.00 752.36,305.00 753.42,305.00 754.50,305.00 755.55,305.00 756.62,305.00 757.67,305.00 758.72,305.00 759.77,305.00 760.82,305.00 761.88,305.00 762.93,305.00 763.99,305.00 765.04,305.00 766.09,305.00 767.14,305.00 768.21,305.00 769.26,305.00 770.31,305.00 771.38,305.00 772.43,305.00 773.49,305.00 774.54,305.00 775.59,305.00 776.64,305.00 777.68,305.00 778.74,305.00 779.79,305.00 780.85,305.00 781.91,305.00 782.97,305.00 784.02,305.00 785.08,305.00 786.15,305.00 787.19,305.00 788.25,305.00 789.32,305.00 790.37,305.00 791.42,305.00 792.48,305.00 793.55,305.00 794.61,305.00 795.66,305.00 796.74,305.00 797.80,305.00 798.86,305.00 799.91,305.00 800.96,305.00 802.02,305.00 803.08,305.00 804.15,305.00 805.21,305.00 806.26,305.00 807.31,305.00 808.36,305.00 809.44,305.00 810.49,305.00 811.55,305.00 812.60,305.00 813.65,305.00 814.70,305.00 815.75,305.00 816.79,305.00 817.85,305.00 818.91,305.00 819.97,305.00 821.01,305.00 822.07,305.00 823.13,305.00 824.21,305.00 825.27,305.00 826.32,305.00 827.37,305.00 828.42,305.00 829.47,305.00 830.53,305.00 831.59,305.00 832.64,305.00 833.70,305.00 834.76,305.00 835.81,305.00 836.86,305.00 837.92,305.00 838.98,305.00 840.07,305.00 841.13,305.00 842.20,305.00 843.26,305.00 844.31,305.00 845.37,305.00 846.42,305.00 847.47,305.00 848.52,305.00 849.58,305.00 850.64,305.00 851.70,305.00 852.76,305.00 853.83,305.00 854.92,305.00 855.98,305.00 857.03,305.00 858.09,305.00 859.14,305.00 860.20,305.00 861.26,305.00 862.33,305.00 863.39,305.00 864.45,305.00 865.51,305.00 866.57,305.00 867.63,305.00 868.68,305.00 869.74,305.00 870.80,305.00 871.85,305.00 872.91,305.00 873.98,305.00 875.03,305.00 876.08,305.00 877.15,305.00 878.21,305.00 879.26,305.00 880.32,305.00 881.38,305.00 882.47,305.00 883.53,305.00 884.60,305.00 885.65,305.00 886.73,305.00 887.81,305.00 888.89,305.00 889.96,305.00 891.05,305.00 892.11,305.00 893.17,305.00 894.22,305.00 895.28,305.00 896.34,305.00 897.40,305.00 898.49,305.00 899.54,305.00 900.60,305.00 901.65,305.00 902.70,305.00 903.76,305.00 904.82,305.00 905.87,305.00 906.92,305.00 907.98,305.00 909.03,305.00 910.08,305.00 911.12,305.00 912.18,305.00 913.24,305.00 914.30,305.00 915.35,305.00 916.42,305.00 917.48,305.00 918.53,305.00 919.59,305.00 920.65,305.00 921.70,305.00 922.75,305.00 923.80,305.00 924.86,305.00 925.93,305.00 926.97,305.00 928.01,305.00 929.07,305.00 930.12,305.00 931.18,305.00 932.23,305.00 933.29,305.00 934.34,305.00 935.39,305.00 936.45,305.00 937.51,305.00 938.56,305.00 939.60,305.00 940.64,305.00 941.68,305.00 942.74,305.00 943.79,305.00 944.87,305.00 945.92,305.00 946.97,305.00 948.03,305.00 949.10,305.00 950.17,305.00 951.22,305.00 952.28,305.00 953.34,305.00 954.39,305.00 955.46,305.00 956.51,305.00 957.58,305.00 958.65,305.00 959.70,305.00 960.74,305.00 961.80,305.00 962.85,305.00 963.90,305.00 964.96,305.00 965.99,305.00 967.05,305.00 968.11,305.00 969.17,305.00 970.22,305.00 971.27,305.00 972.32,305.00 973.38,305.00 974.44,305.00 975.50,305.00 976.55,305.00 977.61,305.00 978.66,305.00 979.73,305.00 980.77,305.00 981.83,305.00 982.89,305.00 983.94,305.00 984.99,305.00 986.06,305.00 987.12,305.00 988.17,305.00 989.22,305.00 990.27,305.00 991.36,305.00 992.41,305.00 993.49,305.00 994.56,305.00 995.62,305.00 996.67,305.00 997.73,305.00 998.79,305.00 999.85,305.00 1000.90,305.00 1001.96,305.00 1003.04,305.00 1004.10,305.00 1005.15,305.00 1006.21,305.00 1007.27,305.00 1008.33,305.00 1009.39,305.00 1010.43,305.00 1011.49,305.00 1012.54,305.00 1013.60,305.00 1014.65,305.00 1015.70,305.00 1016.76,305.00 1017.81,305.00 1018.86,305.00 1019.91,305.00 1020.97,305.00 1022.02,305.00 1023.09,305.00 1024.14,305.00 1025.19,305.00 1026.25,305.00 1027.31,305.00 1028.35,305.00 1029.42,305.00 1030.46,305.00 1031.54,305.00 1032.59,305.00 1033.64,305.00 1034.69,305.00 1035.75,305.00 1036.80,305.00 1037.85,305.00 1038.92,305.00 1040.00,305.00 1041.07,305.00 1042.15,305.00 1043.22,305.00 1044.30,305.00 1045.39,305.00 1046.46,305.00 1047.56,305.00 1048.63,305.00 1049.72,305.00 1050.77,305.00 1051.82,305.00 1052.88,305.00 1053.95,305.00 1055.00,305.00 1056.07,305.00 1057.12,305.00 1058.19,305.00 1059.24,305.00 1060.30,305.00 1061.35,305.00 1062.40,305.00 1063.46,305.00 1064.50,305.00 1065.56,305.00 1066.62,305.00 1067.68,305.00 1068.73,305.00 1069.80,305.00 1070.86,305.00 1071.92,305.00 1072.97,305.00 1074.02,305.00 1075.08,305.00 1076.14,305.00 1077.19,305.00 1078.25,305.00 1079.30,305.00 1080.36,305.00 1081.42,305.00 1082.47,305.00 1083.53,305.00 1084.58,305.00 1085.64,305.00 1086.77,305.00 1087.86,305.00 1088.91,305.00 1089.97,305.00 1091.02,305.00 1092.09,305.00 1093.16,305.00 1094.22,305.00 1095.28,305.00 1096.32,305.00 1097.36,305.00 1098.41,305.00 1099.47,305.00 1100.52,305.00 1101.58,305.00 1102.64,305.00 1103.70,305.00 1104.76,305.00 1105.82,305.00 1106.87,305.00 1107.93,305.00 1108.98,305.00 1110.04,305.00 1111.10,305.00 1112.15,305.00 1113.20,305.00 1114.27,305.00 1115.32,305.00 1116.38,305.00 1117.48,305.00 1118.54,305.00 1119.60,305.00 1120.65,305.00 1121.71,305.00 1122.76,305.00 1123.83,305.00 1124.89,305.00 1125.94,305.00 1127.00,305.00 1128.06,305.00 1129.13,305.00 1130.19,305.00 1131.26,305.00 1132.31,305.00 1133.36,305.00 1134.42,305.00 1135.47,305.00 1136.53,305.00 1137.58,305.00 1138.65,305.00 1139.71,305.00 1140.76,305.00 1141.82,305.00 1142.87,305.00 1143.93,305.00 1144.98,305.00 1146.03,305.00 1147.09,305.00 1148.15,305.00 1149.21,305.00 1150.25,305.00 1151.31,305.00 1152.37,305.00 1153.43,305.00 1154.48,305.00 1155.54,305.00 1156.59,305.00 1157.64,305.00 1158.69,305.00 1159.74,305.00 1160.81,305.00 1161.86,305.00 1162.94,305.00 1164.00,305.00 1165.06,305.00 1166.12,305.00 1167.17,305.00 1168.25,305.00 1169.38,305.00 1170.46,305.00 1171.52,305.00 1172.59,305.00 1173.66,305.00 1174.71,305.00 1175.76,305.00 1176.82,305.00 1177.88,305.00 1178.94,305.00 1180.00,305.00"/>
<polyline fill="none" stroke="#9467bd" stroke-opacity="0.65" stroke-width="2" points="512.46,305.00 513.55,305.00 514.60,305.00 515.67,305.00 516.72,305.00 517.76,305.00 518.82,305.00 519.88,305.00 520.93,305.00 521.99,305.00 523.05,305.00 524.12,305.00 525.16,305.00 526.20,305.00 527.25,305.00 528.29,305.00 529.33,305.00 530.37,305.00 531.43,305.00 532.48,305.00 533.53,305.00 534.58,305.00 535.62,305.00 536.68,305.00 537.72,305.00 538.78,305.00 539.84,305.00 540.88,305.00 541.93,305.00 542.99,305.00 544.04,305.00 545.12,305.00 546.16,305.00 547.21,305.00 548.25,305.00 549.29,305.00 550.34,305.00 551.40,305.00 552.44,305.00 553.48,305.00 554.53,305.00 555.58,305.00 556.62,305.00 557.68,305.00 558.74,305.00 559.78,305.00 561.05,305.00 562.13,305.00 563.20,305.00 564.26,305.00 565.31,305.00 566.38,305.00 567.41,305.00 568.46,305.00 569.52,305.00 570.58,305.00 571.62,305.00 572.68,305.00 573.73,305.00 574.78,305.00 575.87,305.00 576.93,305.00 577.98,305.00 579.04,305.00 580.09,305.00 581.13,305.00 582.18,305.00 583.23,305.00 584.32,305.00 585.38,305.00 586.43,305.00 587.48,305.00 588.53,305.00 589.59,305.00 590.63,305.00 591.68,305.00 592.74,305.00 593.79,305.00 594.85,305.00 595.90,305.00 596.94,305.00 597.99,305.00 599.04,305.00 600.11,305.00 601.16,305.00 602.21,305.00 603.25,305.00 604.30,305.00 605.37,305.00 606.43,305.00 607.69,305.00 608.77,305.00 609.82,305.00 610.87,305.00 611.91,305.00 612.97,305.00 614.02,305.00 615.07,305.00 616.15,305.00 617.19,305.00 618.24,305.00 619.28,305.00 620.33,305.00 621.38,305.00 622.43,305.00 623.49,305.00 624.53,305.00 625.58,305.00 626.62,305.00 627.67,305.00 628.74,305.00 629.78,305.00 630.82,305.00 631.89,305.00 632.95,305.00 633.99,305.00 635.04,305.00 636.10,305.00 637.18,305.00 638.22,305.00 639.27,305.00 640.33,305.00 641.38,305.00 642.43,305.00 643.48,305.00 644.53,305.00 645.61,305.00 646.66,305.00 647.71,305.00 648.75,305.00 649.79,305.00 650.84,305.00 651.90,305.00 652.94,305.00 654.00,305.00 655.07,305.00 656.13,305.00 657.15,305.00 658.22,305.00 659.26,305.00 660.31,305.00 661.36,305.00 662.41,305.00 663.46,305.00 664.52,305.00 665.57,305.00 666.62,305.00 667.68,305.00 668.74,305.00 669.80,305.00 670.85,305.00 671.91,305.00 673.09,305.00 674.24,305.00 675.37,305.00 676.43,305.00 677.53,305.00 678.58,305.00 679.63,305.00 680.67,305.00 681.65,305.00 682.75,305.00 683.80,305.00 684.87,305.00 685.90,305.00 686.96,305.00 688.00,305.00 689.06,305.00 690.11,305.00 691.16,305.00 692.21,305.00 693.26,305.00 694.32,305.00 695.37,305.00 696.44,305.00 697.50,305.00 698.55,305.00 699.60,305.00 700.66,305.00 701.73,305.00 702.78,305.00 703.83,305.00 704.87,305.00 705.93,305.00 706.98,305.00 708.02,305.00 709.08,305.00 710.13,305.00 711.20,305.00 712.24,305.00 713.29,305.00 714.34,305.00 715.39,305.00 716.45,305.00 717.51,305.00 718.55,305.00 719.61,305.00 720.66,305.00 721.72,305.00 722.78,305.00 723.84,305.00 724.89,305.00 725.94,305.00 727.00,305.00 728.05,305.00 729.12,305.00 730.20,305.00 731.25,305.00 732.31,305.00 733.36,305.00 734.41,305.00 735.46,305.00 736.52,305.00 737.57,305.00 738.63,305.00 739.68,305.00 740.74,305.00 741.80,305.00 742.85,305.00 743.91,305.00 744.96,305.00 746.03,305.00 747.08,305.00 748.14,305.00 749.21,305.00 750.26,305.00 751.31,305.00 752.36,305.00 753.42,305.00 754.50,305.00 755.55,305.00 756.62,305.00 757.67,305.00 758.72,305.00 759.77,305.00 760.82,305.00 761.88,305.00 762.93,305.00 763.99,305.00 765.04,305.00 766.09,305.00 767.14,305.00 768.21,305.00 769.26,305.00 770.31,305.00 771.38,305.00 772.43,305.00 773.49,305.00 774.54,305.00 775.59,305.00 776.64,305.00 777.68,305.00 778.74,305.00 779.79,305.00 780.85,305.00 781.91,305.00 782.97,305.00 784.02,305.00 785.08,305.00 786.15,305.00 787.19,305.00 788.25,305.00 789.32,305.00 790.37,305.00 791.42,305.00 792.48,305.00 793.55,305.00 794.61,305.00 795.66,305.00 796.74,305.00 797.80,305.00 798.86,305.00 799.91,305.00 800.96,305.00 802.02,305.00 803.08,305.00 804.15,305.00 805.21,305.00 806.26,305.00 807.31,305.00 808.36,305.00 809.44,305.00 810.49,305.00 811.55,305.00 812.60,305.00 813.65,305.00 814.70,305.00 815.75,305.00 816.79,305.00 817.85,305.00 818.91,305.00 819.97,305.00 821.01,305.00 822.07,305.00 823.13,305.00 824.21,305.00 825.27,305.00 826.32,305.00 827.37,305.00 828.42,305.00 829.47,305.00 830.53,305.00 831.59,305.00 832.64,305.00 833.70,305.00 834.76,305.00 835.81,305.00 836.86,305.00 837.92,305.00 838.98,305.00 840.07,305.00 841.13,305.00 842.20,305.00 843.26,305.00 844.31,305.00 845.37,305.00 846.42,305.00 847.47,305.00 848.52,305.00 849.58,305.00 850.64,305.00 851.70,305.00 852.76,305.00 853.83,305.00 854.92,305.00 855.98,305.00 857.03,305.00 858.09,305.00 859.14,305.00 860.20,305.00 861.26,305.00 862.33,305.00 863.39,305.00 864.45,305.00 865.51,305.00 866.57,305.00 867.63,305.00 868.68,305.00 869.74,305.00 870.80,305.00 871.85,305.00 872.91,305.00 873.98,305.00 875.03,305.00 876.08,305.00 877.15,305.00 878.21,305.00 879.26,305.00 880.32,305.00 881.38,305.00 882.47,305.00 883.53,305.00 884.60,305.00 885.65,305.00 886.73,305.00 887.81,305.00 888.89,305.00 889.96,305.00 891.05,305.00 892.11,305.00 893.17,305.00 894.22,305.00 895.28,305.00 896.34,305.00 897.40,305.00 898.49,305.00 899.54,305.00 900.60,305.00 901.65,305.00 902.70,305.00 903.76,305.00 904.82,305.00 905.87,305.00 906.92,305.00 907.98,305.00 909.03,305.00 910.08,305.00 911.12,305.00 912.18,305.00 913.24,305.00 914.30,305.00 915.35,305.00 916.42,305.00 917.48,305.00 918.53,305.00 919.59,305.00 920.65,305.00 921.70,305.00 922.75,305.00 923.80,305.00 924.86,305.00 925.93,305.00 926.97,305.00 928.01,305.00 929.07,305.00 930.12,305.00 931.18,305.00 932.23,305.00 933.29,305.00 934.34,305.00 935.39,305.00 936.45,305.00 937.51,305.00 938.56,305.00 939.60,305.00 940.64,305.00 941.68,305.00 942.74,305.00 943.79,305.00 944.87,305.00 945.92,305.00 946.97,305.00 948.03,305.00 949.10,305.00 950.17,305.00 951.22,305.00 952.28,305.00 953.34,305.00 954.39,305.00 955.46,305.00 956.51,305.00 957.58,305.00 958.65,305.00 959.70,305.00 960.74,305.00 961.80,305.00 962.85,305.00 963.90,305.00 964.96,305.00 965.99,305.00 967.05,305.00 968.11,305.00 969.17,305.00 970.22,305.00 971.27,305.00 972.32,305.00 973.38,305.00 974.44,305.00 975.50,305.00 976.55,305.00 977.61,305.00 978.66,305.00 979.73,305.00 980.77,305.00 981.83,305.00 982.89,305.00 983.94,305.00 984.99,305.00 986.06,305.00 987.12,305.00 988.17,305.00 989.22,305.00 990.27,305.00 991.36,305.00 992.41,305.00 993.49,305.00 994.56,305.00 995.62,305.00 996.67,305.00 997.73,305.00 998.79,305.00 999.85,305.00 1000.90,305.00 1001.96,305.00 1003.04,305.00 1004.10,305.00 1005.15,305.00 1006.21,305.00 1007.27,305.00 1008.33,305.00 1009.39,305.00 1010.43,305.00 1011.49,305.00 1012.54,305.00 1013.60,305.00 1014.65,305.00 1015.70,305.00 1016.76,305.00 1017.81,305.00 1018.86,305.00 1019.91,305.00 1020.97,305.00 1022.02,305.00 1023.09,305.00 1024.14,305.00 1025.19,305.00 1026.25,305.00 1027.31,305.00 1028.35,305.00 1029.42,305.00 1030.46,305.00 1031.54,305.00 1032.59,305.00 1033.64,305.00 1034.69,305.00 1035.75,305.00 1036.80,305.00 1037.85,305.00 1038.92,305.00 1040.00,305.00 1041.07,305.00 1042.15,305.00 1043.22,305.00 1044.30,305.00 1045.39,305.00 1046.46,305.00 1047.56,305.00 1048.63,305.00 1049.72,305.00 1050.77,305.00 1051.82,305.00 1052.88,305.00 1053.95,305.00 1055.00,305.00 1056.07,305.00 1057.12,305.00 1058.19,305.00 1059.24,305.00 1060.30,305.00 1061.35,305.00 1062.40,305.00 1063.46,305.00 1064.50,305.00 1065.56,305.00 1066.62,305.00 1067.68,305.00 1068.73,305.00 1069.80,305.00 1070.86,305.00 1071.92,305.00 1072.97,305.00 1074.02,305.00 1075.08,305.00 1076.14,305.00 1077.19,305.00 1078.25,305.00 1079.30,305.00 1080.36,305.00 1081.42,305.00 1082.47,305.00 1083.53,305.00 1084.58,305.00 1085.64,305.00 1086.77,305.00 1087.86,305.00 1088.91,305.00 1089.97,305.00 1091.02,305.00 1092.09,305.00 1093.16,305.00 1094.22,305.00 1095.28,305.00 1096.32,305.00 1097.36,305.00 1098.41,305.00 1099.47,305.00 1100.52,305.00 1101.58,305.00 1102.64,305.00 1103.70,305.00 1104.76,305.00 1105.82,305.00 1106.87,305.00 1107.93,305.00 1108.98,305.00 1110.04,305.00 1111.10,305.00 1112.15,305.00 1113.20,305.00 1114.27,305.00 1115.32,305.00 1116.38,305.00 1117.48,305.00 1118.54,305.00 1119.60,305.00 1120.65,305.00 1121.71,305.00 1122.76,305.00 1123.83,305.00 1124.89,305.00 1125.94,305.00 1127.00,305.00 1128.06,305.00 1129.13,305.00 1130.19,305.00 1131.26,305.00 1132.31,305.00 1133.36,305.00 1134.42,305.00 1135.47,305.00 1136.53,305.00 1137.58,305.00 1138.65,305.00 1139.71,305.00 1140.76,305.00 1141.82,305.00 1142.87,305.00 1143.93,305.00 1144.98,305.00 1146.03,305.00 1147.09,305.00 1148.15,305.00 1149.21,305.00 1150.25,305.00 1151.31,305.00 1152.37,305.00 1153.43,305.00 1154.48,305.00 1155.54,305.00 1156.59,305.00 1157.64,305.00 1158.69,305.00 1159.74,305.00 1160.81,305.00 1161.86,305.00 1162.94,305.00 1164.00,305.00 1165.06,305.00 1166.12,305.00 1167.17,305.00 1168.25,305.00 1169.38,305.00 1170.46,305.00 1171.52,305.00 1172.59,305.00 1173.66,305.00 1174.71,305.00 1175.76,305.00 1176.82,305.00 1177.88,305.00 1178.94,305.00 1180.00,305.00"/>
<polyline fill="none" stroke="#9467bd" stroke-opacity="0.50" stroke-width="2" points="70.00,305.00 71.05,305.00 72.11,305.00 73.15,305.00 74.21,305.00 75.27,305.00 76.31,305.00 77.36,305.00 78.50,305.00 79.55,305.00 80.59,305.00 81.64,305.00 82.70,305.00 83.75,305.00 84.79,305.00 86.68,305.00 88.31,305.00 89.38,305.00 90.45,305.00 91.50,305.00 92.55,305.00 93.58,305.00 94.64,305.00 95.69,305.00 96.74,305.00 97.80,305.00 98.87,305.00 99.93,305.00 100.98,305.00 102.08,305.00 103.14,305.00 104.19,305.00 105.27,305.00 106.32,305.00 107.37,305.00 108.45,305.00 109.50,305.00 110.55,305.00 111.62,305.00 112.66,305.00 113.71,305.00 114.74,305.00 115.79,305.00 116.85,305.00 117.89,305.00 118.97,305.00 120.03,305.00 121.06,305.00 122.11,305.00 123.17,305.00 124.22,305.00 125.42,305.00 126.48,305.00 127.52,305.00 128.57,305.00 129.61,305.00 130.65,305.00 131.70,305.00 132.75,305.00 133.80,305.00 134.87,305.00 135.92,305.00 136.95,305.00 138.01,305.00 139.08,305.00 140.12,305.00 141.18,305.00 142.22,305.00 143.26,305.00 144.30,305.00 145.34,305.00 146.39,305.00 147.44,305.00 148.48,305.00 149.53,305.00 150.59,305.00 151.63,305.00 152.68,305.00 153.73,305.00 154.77,305.00 155.85,305.00 156.90,305.00 157.94,305.00 159.00,305.00 160.05,305.00 161.10,305.00 162.15,305.00 163.19,305.00 164.23,305.00 165.29,305.00 166.34,305.00 167.39,305.00 168.45,305.00 169.49,305.00 170.54,305.00 171.59,305.00 172.63,305.00 173.67,305.00 174.73,305.00 175.77,305.00 176.82,305.00 177.88,305.00 178.93,305.00 179.98,305.00 181.04,305.00 182.10,305.00 183.15,305.00 184.19,305.00 185.24,305.00 186.28,305.00 187.34,305.00 188.40,305.00 189.44,305.00 190.49,305.00 191.55,305.00 192.60,305.00 193.66,305.00 194.73,305.00 195.77,305.00 196.82,305.00 197.87,305.00 198.92,305.00 199.97,305.00 201.03,305.00 202.16,305.00 203.21,305.00 204.27,305.00 205.32,305.00 206.36,305.00 207.40,305.00 208.44,305.00 209.48,305.00 210.53,305.00 211.58,305.00 212.63,305.00 213.67,305.00 214.72,305.00 215.76,305.00 216.83,305.00 217.88,305.00 218.93,305.00 219.97,305.00 221.02,305.00 222.07,305.00 223.12,305.00 224.18,305.00 225.23,305.00 226.28,305.00 227.33,305.00 228.37,305.00 229.41,305.00 230.46,305.00 231.51,305.00 232.56,305.00 233.62,305.00 234.67,305.00 235.72,305.00 236.78,305.00 237.83,305.00 238.87,305.00 239.93,305.00 240.98,305.00 242.05,305.00 243.11,305.00 244.16,305.00 245.21,305.00 246.25,305.00 247.29,305.00 248.34,305.00 249.39,305.00 250.44,305.00 251.47,305.00 252.52,305.00 253.58,305.00 254.63,305.00 255.69,305.00 256.73,305.00 257.81,305.00 258.86,305.00 259.90,305.00 260.95,305.00 261.99,305.00 263.13,305.00 264.20,305.00 265.25,305.00 266.29,305.00 267.33,305.00 268.38,305.00 269.43,305.00 270.48,305.00 271.54,305.00 272.58,305.00 273.63,305.00 274.68,305.00 275.75,305.00 276.80,305.00 277.84,305.00 278.89,305.00 279.95,305.00 281.02,305.00 282.09,305.00 283.13,305.00 284.19,305.00 285.24,305.00 286.28,305.00 287.34,305.00 288.39,305.00 289.45,305.00 290.50,305.00 291.54,305.00 292.60,305.00 293.65,305.00 294.70,305.00 295.75,305.00 296.81,305.00 297.86,305.00 298.91,305.00 299.95,305.00 300.99,305.00 302.04,305.00 303.09,305.00 304.14,305.00 305.18,305.00 306.22,305.00 307.27,305.00 308.33,305.00 309.38,305.00 310.43,305.00 311.50,305.00 312.55,305.00 313.61,305.00 314.65,305.00 315.71,305.00 316.75,305.00 317.80,305.00 318.86,305.00 319.93,305.00 320.98,305.00 322.03,305.00 323.09,305.00 324.13,305.00 325.18,305.00 326.22,305.00 327.27,305.00 328.33,305.00 329.38,305.00 330.43,305.00 331.48,305.00 332.54,305.00 333.59,305.00 334.64,305.00 335.70,305.00 336.76,305.00 337.80,305.00 338.85,305.00 339.91,305.00 340.97,305.00 342.02,305.00 343.07,305.00 344.12,305.00 345.28,305.00 346.34,305.00 347.39,305.00 348.44,305.00 349.50,305.00 350.56,305.00 351.61,305.00 352.66,305.00 353.70,305.00 354.79,305.00 355.85,305.00 356.89,305.00 357.94,305.00 358.99,305.00 360.04,305.00 361.09,305.00 362.18,305.00 363.24,305.00 364.28,305.00 365.35,305.00 366.48,305.00 367.53,305.00 368.85,305.00 370.63,305.00 371.70,305.00 372.78,305.00 373.82,305.00 374.85,305.00 375.90,305.00 376.96,305.00 378.02,305.00 379.08,305.00 380.17,305.00 381.26,305.00 382.37,305.00 383.42,305.00 384.48,305.00 385.53,305.00 386.59,305.00 387.65,305.00 388.72,305.00 389.76,305.00 390.81,305.00 391.90,305.00 392.96,305.00 394.00,305.00 395.05,305.00 396.12,305.00 397.21,305.00 398.27,305.00 399.32,305.00 400.40,305.00 401.40,305.00 402.45,305.00 403.52,305.00 404.56,305.00 405.63,305.00 406.71,305.00 407.77,305.00 408.82,305.00 409.88,305.00 410.94,305.00 411.99,305.00 413.04,305.00 414.08,305.00 415.14,305.00 416.19,305.00 417.23,305.00 418.49,305.00 419.72,305.00 420.97,305.00 422.19,305.00 423.39,305.00 424.60,305.00 425.84,305.00 427.07,305.00 428.12,305.00 429.16,305.00 430.21,305.00 431.25,305.00 432.30,305.00 433.35,305.00 434.39,305.00 435.44,305.00 436.49,305.00 437.53,305.00 438.58,305.00 439.63,305.00 440.67,305.00 441.72,305.00 442.76,305.00 443.81,305.00 444.86,305.00 445.90,305.00 446.95,305.00 448.01,305.00 449.05,305.00 450.09,305.00 451.13,305.00 452.18,305.00 453.23,305.00 454.28,305.00 455.33,305.00 456.38,305.00 457.43,305.00 458.47,305.00 459.52,305.00 460.57,305.00 461.61,305.00 462.66,305.00 463.69,305.00 464.73,305.00 465.78,305.00 466.82,305.00 467.86,305.00 468.91,305.00 469.95,305.00 471.00,305.00 472.04,305.00 473.08,305.00 474.11,305.00 475.19,305.00 476.32,305.00 477.38,305.00 478.43,305.00 479.47,305.00 480.52,305.00 481.55,305.00 482.59,305.00 483.64,305.00 484.88,305.00 486.11,305.00 487.33,305.00 488.56,305.00 489.80,305.00 491.02,305.00 492.27,305.00 493.55,305.00 494.69,305.00 495.82,305.00 496.87,305.00 497.93,305.00 498.98,305.00 500.02,305.00 501.06,305.00 502.11,305.00 503.16,305.00 504.21,305.00 505.25,305.00 506.30,305.00 507.35,305.00 508.39,305.00 509.46,305.00 510.50,305.00 511.55,305.00 512.46,305.00 513.55,305.00 514.60,305.00 515.67,305.00 516.72,305.00 517.76,305.00 518.82,305.00 519.88,305.00 520.93,305.00 521.99,305.00 523.05,305.00 524.12,305.00 525.16,305.00 526.20,305.00 527.25,305.00 528.29,305.00 529.33,305.00 530.37,305.00 531.43,305.00 532.48,305.00 533.53,305.00 534.58,305.00 535.62,305.00 536.68,305.00 537.72,305.00 538.78,305.00 539.84,305.00 540.88,305.00 541.93,305.00 542.99,305.00 544.04,305.00 545.12,305.00 546.16,305.00 547.21,305.00 548.25,305.00 549.29,305.00 550.34,305.00 551.40,305.00 552.44,305.00 553.48,305.00 554.53,305.00 555.58,305.00 556.62,305.00 557.68,305.00 558.74,305.00 559.78,305.00 561.05,305.00 562.13,305.00 563.20,305.00 564.26,305.00 565.31,305.00 566.38,305.00 567.41,305.00 568.46,305.00 569.52,305.00 570.58,305.00 571.62,305.00 572.68,305.00 573.73,305.00 574.78,305.00 575.87,305.00 576.93,305.00 577.98,305.00 579.04,305.00 580.09,305.00 581.13,305.00 582.18,305.00 583.23,305.00 584.32,305.00 585.38,305.00 586.43,305.00 587.48,305.00 588.53,305.00 589.59,305.00 590.63,305.00 591.68,305.00 592.74,305.00 593.79,305.00 594.85,305.00 595.90,305.00 596.94,305.00 597.99,305.00 599.04,305.00 600.11,305.00 601.16,305.00 602.21,305.00 603.25,305.00 604.30,305.00 605.37,305.00 606.43,305.00 607.69,305.00 608.77,305.00 609.82,305.00 610.87,305.00 611.91,305.00 612.97,305.00 614.02,305.00 615.07,305.00 616.15,305.00 617.19,305.00 618.24,305.00 619.28,305.00 620.33,305.00 621.38,305.00 622.43,305.00 623.49,305.00 624.53,305.00 625.58,305.00 626.62,305.00 627.67,305.00 628.74,305.00 629.78,305.00 630.82,305.00 631.89,305.00 632.95,305.00 633.99,305.00 635.04,305.00 636.10,305.00 637.18,305.00 638.22,305.00 639.27,305.00 640.33,305.00 641.38,305.00 642.43,305.00 643.48,305.00 644.53,305.00 645.61,305.00 646.66,305.00 647.71,305.00 648.75,305.00 649.79,305.00 650.84,305.00 651.90,305.00 652.94,305.00 654.00,305.00 655.07,305.00 656.13,305.00 657.15,305.00 658.22,305.00 659.26,305.00 660.31,305.00 661.36,305.00 662.41,305.00 663.46,305.00 664.52,305.00 665.57,305.00 666.62,305.00 667.68,305.00 668.74,305.00 669.80,305.00 670.85,305.00 671.91,305.00 673.09,305.00 674.24,305.00 675.37,305.00 676.43,305.00 677.53,305.00 678.58,305.00 679.63,305.00 680.67,305.00 681.65,305.00 682.75,305.00 683.80,305.00 684.87,305.00 685.90,305.00 686.96,305.00 688.00,305.00 689.06,305.00 690.11,305.00 691.16,305.00 692.21,305.00 693.26,305.00 694.32,305.00 695.37,305.00 696.44,305.00 697.50,305.00 698.55,305.00 699.60,305.00 700.66,305.00 701.73,305.00 702.78,305.00 703.83,305.00 704.87,305.00 705.93,305.00 706.98,305.00 708.02,305.00 709.08,305.00 710.13,305.00 711.20,305.00 712.24,305.00 713.29,305.00 714.34,305.00 715.39,305.00 716.45,305.00 717.51,305.00 718.55,305.00 719.61,305.00 720.66,305.00 721.72,305.00 722.78,305.00 723.84,305.00 724.89,305.00 725.94,305.00 727.00,305.00 728.05,305.00 729.12,305.00 730.20,305.00 731.25,305.00 732.31,305.00 733.36,305.00 734.41,305.00 735.46,305.00 736.52,305.00 737.57,305.00 738.63,305.00 739.68,305.00 740.74,305.00 741.80,305.00 742.85,305.00 743.91,305.00 744.96,305.00 746.03,305.00 747.08,305.00 748.14,305.00 749.21,305.00 750.26,305.00 751.31,305.00 752.36,305.00 753.42,305.00 754.50,305.00 755.55,305.00 756.62,305.00 757.67,305.00 758.72,305.00 759.77,305.00 760.82,305.00 761.88,305.00 762.93,305.00 763.99,305.00 765.04,305.00 766.09,305.00 767.14,305.00 768.21,305.00 769.26,305.00 770.31,305.00 771.38,305.00 772.43,305.00 773.49,305.00 774.54,305.00 775.59,305.00 776.64,305.00 777.68,305.00 778.74,305.00 779.79,305.00 780.85,305.00 781.91,305.00 782.97,305.00 784.02,305.00 785.08,305.00 786.15,305.00 787.19,305.00 788.25,305.00 789.32,305.00 790.37,305.00 791.42,305.00 792.48,305.00 793.55,305.00 794.61,305.00 795.66,305.00 796.74,305.00 797.80,305.00 798.86,305.00 799.91,305.00 800.96,305.00 802.02,305.00 803.08,305.00 804.15,305.00 805.21,305.00 806.26,305.00 807.31,305.00 808.36,305.00 809.44,305.00 810.49,305.00 811.55,305.00 812.60,305.00 813.65,305.00 814.70,305.00 815.75,305.00 816.79,305.00 817.85,305.00 818.91,305.00 819.97,305.00 821.01,305.00 822.07,305.00 823.13,305.00 824.21,305.00 825.27,305.00 826.32,305.00 827.37,305.00 828.42,305.00 829.47,305.00 830.53,305.00 831.59,305.00 832.64,305.00 833.70,305.00 834.76,305.00 835.81,305.00 836.86,305.00 837.92,305.00 838.98,305.00 840.07,305.00 841.13,305.00 842.20,305.00 843.26,305.00 844.31,305.00 845.37,305.00 846.42,305.00 847.47,305.00 848.52,305.00 849.58,305.00 850.64,305.00 851.70,305.00 852.76,305.00 853.83,305.00 854.92,305.00 855.98,305.00 857.03,305.00 858.09,305.00 859.14,305.00 860.20,305.00 861.26,305.00 862.33,305.00 863.39,305.00 864.45,305.00 865.51,305.00 866.57,305.00 867.63,305.00 868.68,305.00 869.74,305.00 870.80,305.00 871.85,305.00 872.91,305.00 873.98,305.00 875.03,305.00 876.08,305.00 877.15,305.00 878.21,305.00 879.26,305.00 880.32,305.00 881.38,305.00 882.47,305.00 883.53,305.00 884.60,305.00 885.65,305.00 886.73,305.00 887.81,305.00 888.89,305.00 889.96,305.00 891.05,305.00 892.11,305.00 893.17,305.00 894.22,305.00 895.28,305.00 896.34,305.00 897.40,305.00 898.49,305.00 899.54,305.00 900.60,305.00 901.65,305.00 902.70,305.00 903.76,305.00 904.82,305.00 905.87,305.00 906.92,305.00 907.98,305.00 909.03,305.00 910.08,305.00 911.12,305.00 912.18,305.00 913.24,305.00 914.30,305.00 915.35,305.00 916.42,305.00 917.48,305.00 918.53,305.00 919.59,305.00 920.65,305.00 921.70,305.00 922.75,305.00 923.80,305.00 924.86,305.00 925.93,305.00 926.97,305.00 928.01,305.00 929.07,305.00 930.12,305.00 931.18,305.00 932.23,305.00 933.29,305.00 934.34,305.00 935.39,305.00 936.45,305.00 937.51,305.00 938.56,305.00 939.60,305.00 940.64,305.00 941.68,305.00 942.74,305.00 943.79,305.00 944.87,305.00 945.92,305.00 946.97,305.00 948.03,305.00 949.10,305.00 950.17,305.00 951.22,305.00 952.28,305.00 953.34,305.00 954.39,305.00 955.46,305.00 956.51,305.00 957.58,305.00 958.65,305.00 959.70,305.00 960.74,305.00 961.80,305.00 962.85,305.00 963.90,305.00 964.96,305.00 965.99,305.00 967.05,305.00 968.11,305.00 969.17,305.00 970.22,305.00 971.27,305.00 972.32,305.00 973.38,305.00 974.44,305.00 975.50,305.00 976.55,305.00 977.61,305.00 978.66,305.00 979.73,305.00 980.77,305.00 981.83,305.00 982.89,305.00 983.94,305.00 984.99,305.00 986.06,305.00 987.12,305.00 988.17,305.00 989.22,305.00 990.27,305.00 991.36,305.00 992.41,305.00 993.49,305.00 994.56,305.00 995.62,305.00 996.67,305.00 997.73,305.00 998.79,305.00 999.85,305.00 1000.90,305.00 1001.96,305.00 1003.04,305.00 1004.10,305.00 1005.15,305.00 1006.21,305.00 1007.27,305.00 1008.33,305.00 1009.39,305.00 1010.43,305.00 1011.49,305.00 1012.54,305.00 1013.60,305.00 1014.65,305.00 1015.70,305.00 1016.76,305.00 1017.81,305.00 1018.86,305.00 1019.91,305.00 1020.97,305.00 1022.02,305.00 1023.09,305.00 1024.14,305.00 1025.19,305.00 1026.25,305.00 1027.31,305.00 1028.35,305.00 1029.42,305.00 1030.46,305.00 1031.54,305.00 1032.59,305.00 1033.64,305.00 1034.69,305.00 1035.75,305.00 1036.80,305.00 1037.85,305.00 1038.92,305.00 1040.00,305.00 1041.07,305.00 1042.15,305.00 1043.22,305.00 1044.30,305.00 1045.39,305.00 1046.46,305.00 1047.56,305.00 1048.63,305.00 1049.72,305.00 1050.77,305.00 1051.82,305.00 1052.88,305.00 1053.95,305.00 1055.00,305.00 1056.07,305.00 1057.12,305.00 1058.19,305.00 1059.24,305.00 1060.30,305.00 1061.35,305.00 1062.40,305.00 1063.46,305.00 1064.50,305.00 1065.56,305.00 1066.62,305.00 1067.68,305.00 1068.73,305.00 1069.80,305.00 1070.86,305.00 1071.92,305.00 1072.97,305.00 1074.02,305.00 1075.08,305.00 1076.14,305.00 1077.19,305.00 1078.25,305.00 1079.30,305.00 1080.36,305.00 1081.42,305.00 1082.47,305.00 1083.53,305.00 1084.58,305.00 1085.64,305.00 1086.77,305.00 1087.86,305.00 1088.91,305.00 1089.97,305.00 1091.02,305.00 1092.09,305.00 1093.16,305.00 1094.22,305.00 1095.28,305.00 1096.32,305.00 1097.36,305.00 1098.41,305.00 1099.47,305.00 1100.52,305.00 1101.58,305.00 1102.64,305.00 1103.70,305.00 1104.76,305.00 1105.82,305.00 1106.87,305.00 1107.93,305.00 1108.98,305.00 1110.04,305.00 1111.10,305.00 1112.15,305.00 1113.20,305.00 1114.27,305.00 1115.32,305.00 1116.38,305.00 1117.48,305.00 1118.54,305.00 1119.60,305.00 1120.65,305.00 1121.71,305.00 1122.76,305.00 1123.83,305.00 1124.89,305.00 1125.94,305.00 1127.00,305.00 1128.06,305.00 1129.13,305.00 1130.19,305.00 1131.26,305.00 1132.31,305.00 1133.36,305.00 1134.42,305.00 1135.47,305.00 1136.53,305.00 1137.58,305.00 1138.65,305.00 1139.71,305.00 1140.76,305.00 1141.82,305.00 1142.87,305.00 1143.93,305.00 1144.98,305.00 1146.03,305.00 1147.09,305.00 1148.15,305.00 1149.21,305.00 1150.25,305.00 1151.31,305.00 1152.37,305.00 1153.43,305.00 1154.48,305.00 1155.54,305.00 1156.59,305.00 1157.64,305.00 1158.69,305.00 1159.74,305.00 1160.81,305.00 1161.86,305.00 1162.94,305.00 1164.00,305.00 1165.06,305.00 1166.12,305.00 1167.17,305.00 1168.25,305.00 1169.38,305.00 1170.46,305.00 1171.52,305.00 1172.59,305.00 1173.66,305.00 1174.71,305.00 1175.76,305.00 1176.82,305.00 1177.88,305.00 1178.94,305.00 1180.00,305.00"/>
<rect x="70" y="332" width="12" height="12" fill="#9467bd" fill-opacity="0.95"/>
<text x="88" y="342" font-size="11" fill="#333" font-family="Arial, Helvetica, sans-serif">nsc1.utdallas.edu</text>
<rect x="350" y="332" width="12" height="12" fill="#9467bd" fill-opacity="0.80"/>
<text x="368" y="342" font-size="11" fill="#333" font-family="Arial, Helvetica, sans-serif">nsc2.utdallas.edu</text>
<rect x="630" y="332" width="12" height="12" fill="#9467bd" fill-opacity="0.65"/>
<text x="648" y="342" font-size="11" fill="#333" font-family="Arial, Helvetica, sans-serif">nsc3.utdallas.edu</text>
<rect x="910" y="332" width="12" height="12" fill="#9467bd" fill-opacity="0.50"/>
<text x="928" y="342" font-size="11" fill="#333" font-family="Arial, Helvetica, sans-serif">nsc4.utdallas.edu</text>
</svg>