<?xml version="1.0" encoding="UTF-8"?>
<svg xmlns="http://www.w3.org/2000/svg" width="1200" height="360" viewBox="0 0 1200 360" role="img" aria-label="GPU Utilization (%)">
<rect width="100%" height="100%" fill="#ffffff"/>
<text x="600.0" y="22" text-anchor="middle" font-size="16" font-family="Arial, Helvetica, sans-serif" font-weight="bold">GPU Utilization (%)</text>
<line x1="70" y1="35.00" x2="1180" y2="35.00" stroke="#e3e3e3" stroke-width="1"/>
<text x="62" y="39.00" text-anchor="end" font-size="11" fill="#444" font-family="Arial, Helvetica, sans-serif">100</text>
<line x1="70" y1="89.00" x2="1180" y2="89.00" stroke="#e3e3e3" stroke-width="1"/>
<text x="62" y="93.00" text-anchor="end" font-size="11" fill="#444" font-family="Arial, Helvetica, sans-serif">80</text>
<line x1="70" y1="143.00" x2="1180" y2="143.00" stroke="#e3e3e3" stroke-width="1"/>
<text x="62" y="147.00" text-anchor="end" font-size="11" fill="#444" font-family="Arial, Helvetica, sans-serif">60</text>
<line x1="70" y1="197.00" x2="1180" y2="197.00" stroke="#e3e3e3" stroke-width="1"/>
<text x="62" y="201.00" text-anchor="end" font-size="11" fill="#444" font-family="Arial, Helvetica, sans-serif">40</text>
<line x1="70" y1="251.00" x2="1180" y2="251.00" stroke="#e3e3e3" stroke-width="1"/>
<text x="62" y="255.00" text-anchor="end" font-size="11" fill="#444" font-family="Arial, Helvetica, sans-serif">20</text>
<line x1="70" y1="305.00" x2="1180" y2="305.00" stroke="#e3e3e3" stroke-width="1"/>
<text x="62" y="309.00" text-anchor="end" font-size="11" fill="#444" font-family="Arial, Helvetica, sans-serif">0</text>
<line x1="70" y1="35" x2="70" y2="305" stroke="#999"/>
<line x1="70" y1="305" x2="1180" y2="305" stroke="#999"/>
<text x="70.00" y="323" text-anchor="middle" font-size="10" fill="#444" font-family="Arial, Helvetica, sans-serif">2026-02-11 16:38</text>
<text x="347.50" y="323" text-anchor="middle" font-size="10" fill="#444" font-family="Arial, Helvetica, sans-serif">2026-02-12 22:11</text>
<text x="625.00" y="323" text-anchor="middle" font-size="10" fill="#444" font-family="Arial, Helvetica, sans-serif">2026-02-14 03:44</text>
<text x="902.50" y="323" text-anchor="middle" font-size="10" fill="#444" font-family="Arial, Helvetica, sans-serif">2026-02-15 09:17</text>
<text x="1180.00" y="323" text-anchor="middle" font-size="10" fill="#444" font-family="Arial, Helvetica, sans-serif">2026-02-16 14:50</text>
<polyline fill="none" stroke="#9467bd" stroke-opacity="0.95" stroke-width="2" points="70.84,305.00 71.69,305.00 72.53,305.00 73.37,305.00 74.22,305.00 75.06,305.00 75.90,305.00 76.82,305.00 77.65,305.00 78.49,305.00 79.33,305.00 80.18,305.00 81.02,305.00 81.86,305.00 83.37,305.00 84.68,305.00 85.53,305.00 86.39,305.00 87.23,305.00 88.07,305.00 88.90,305.00 89.75,305.00 90.59,305.00 91.43,305.00 92.28,305.00 93.14,305.00 93.99,305.00 94.83,305.00 95.71,305.00 96.57,305.00 97.40,305.00 98.27,305.00 99.11,305.00 99.95,305.00 100.82,305.00 101.66,305.00 102.50,305.00 103.36,305.00 104.19,305.00 105.03,305.00 105.86,305.00 106.70,305.00 107.55,305.00 108.39,305.00 109.25,305.00 110.10,305.00 110.93,305.00 111.77,305.00 112.62,305.00 113.46,305.00 114.42,305.00 115.27,305.00 116.11,305.00 116.94,305.00 117.78,305.00 118.61,305.00 119.45,305.00 120.30,305.00 121.13,305.00 121.99,305.00 122.83,305.00 123.66,305.00 124.51,305.00 125.37,305.00 126.21,305.00 127.05,305.00 127.88,305.00 128.72,305.00 129.55,305.00 130.39,305.00 131.23,305.00 132.07,305.00 132.91,305.00 133.75,305.00 134.59,305.00 135.43,305.00 136.27,305.00 137.11,305.00 137.95,305.00 138.81,305.00 139.65,305.00 140.49,305.00 141.34,305.00 142.17,305.00 143.02,305.00 143.86,305.00 144.69,305.00 145.52,305.00 146.37,305.00 147.22,305.00 148.06,305.00 148.91,305.00 149.74,305.00 150.58,305.00 151.42,305.00 152.26,305.00 153.10,305.00 153.94,305.00 154.77,305.00 155.62,305.00 156.46,305.00 157.31,305.00 158.15,305.00 159.00,305.00 159.85,305.00 160.69,305.00 161.53,305.00 162.37,305.00 163.20,305.00 164.05,305.00 164.90,305.00 165.74,305.00 166.58,305.00 167.42,305.00 168.27,305.00 169.11,305.00 169.97,305.00 170.81,305.00 171.65,305.00 172.49,305.00 173.33,305.00 174.17,305.00 175.02,305.00 175.93,305.00 176.77,305.00 177.62,305.00 178.46,305.00 179.30,305.00 180.13,305.00 180.96,305.00 181.80,305.00 182.64,305.00 183.48,305.00 184.32,305.00 185.16,305.00 186.00,305.00 186.83,305.00 187.69,305.00 188.53,305.00 189.37,305.00 190.20,305.00 191.05,305.00 191.88,305.00 192.73,305.00 193.57,305.00 194.42,305.00 195.26,305.00 196.10,305.00 196.93,305.00 197.77,305.00 198.61,305.00 199.45,305.00 200.30,305.00 201.15,305.00 201.99,305.00 202.83,305.00 203.68,305.00 204.52,305.00 205.36,305.00 206.20,305.00 207.04,305.00 207.90,305.00 208.75,305.00 209.59,305.00 210.43,305.00 211.27,305.00 212.10,305.00 212.94,305.00 213.79,305.00 214.62,305.00 215.45,305.00 216.29,305.00 217.14,305.00 217.98,305.00 218.83,305.00 219.67,305.00 220.53,305.00 221.37,305.00 222.21,305.00 223.05,305.00 223.88,305.00 224.80,305.00 225.66,305.00 226.49,305.00 227.33,305.00 228.16,305.00 229.00,305.00 229.84,305.00 230.69,305.00 231.53,305.00 232.37,305.00 233.21,305.00 234.05,305.00 234.91,305.00 235.75,305.00 236.59,305.00 237.43,305.00 238.28,305.00 239.14,305.00 240.00,305.00 240.83,305.00 241.67,305.00 242.52,305.00 243.35,305.00 244.20,305.00 245.04,305.00 245.89,305.00 246.73,305.00 247.57,305.00 248.42,305.00 249.26,305.00 250.10,305.00 250.94,305.00 251.79,305.00 252.64,305.00 253.47,305.00 254.30,305.00 255.14,305.00 255.99,305.00 256.83,305.00 257.66,305.00 258.50,305.00 259.34,305.00 260.18,305.00 261.02,305.00 261.87,305.00 262.71,305.00 263.56,305.00 264.41,305.00 265.25,305.00 266.09,305.00 266.94,305.00 267.78,305.00 268.62,305.00 269.46,305.00 270.32,305.00 271.16,305.00 272.01,305.00 272.85,305.00 273.69,305.00 274.53,305.00 275.37,305.00 276.21,305.00 277.05,305.00 277.90,305.00 278.74,305.00 279.58,305.00 280.43,305.00 281.27,305.00 282.11,305.00 282.96,305.00 283.81,305.00 284.65,305.00 285.49,305.00 286.33,305.00 287.18,305.00 288.03,305.00 288.87,305.00 289.71,305.00 290.64,305.00 291.49,305.00 292.33,305.00 293.18,305.00 294.03,305.00 294.87,305.00 295.71,305.00 296.56,305.00 297.39,305.00 298.26,80.90 299.11,72.80 299.95,305.00 300.79,305.00 301.63,305.00 302.47,305.00 303.32,305.00 304.19,305.00 305.03,305.00 305.87,305.00 306.73,305.00 307.63,305.00 308.48,305.00 309.53,305.00 310.96,305.00 311.82,305.00 312.68,305.00 313.52,305.00 314.34,305.00 315.18,305.00 316.04,305.00 316.88,305.00 317.73,305.00 318.61,305.00 319.48,305.00 320.37,305.00 321.21,305.00 322.06,305.00 322.90,305.00 323.75,305.00 324.61,305.00 325.46,305.00 326.29,305.00 327.13,305.00 328.01,305.00 328.86,305.00 329.69,305.00 330.53,305.00 331.39,305.00 332.26,305.00 333.11,305.00 333.95,305.00 334.82,305.00 335.63,305.00 336.46,305.00 337.32,305.00 338.16,305.00 339.01,305.00 339.88,305.00 340.73,305.00 341.57,305.00 342.42,305.00 343.27,305.00 344.11,305.00 344.95,305.00 345.79,305.00 346.63,305.00 347.48,305.00 348.31,305.00 349.32,305.00 350.31,305.00 351.31,305.00 352.28,305.00 353.25,305.00 354.22,305.00 355.21,305.00 356.19,305.00 357.04,305.00 357.87,305.00 358.71,305.00 359.55,305.00 360.39,305.00 361.23,305.00 362.07,305.00 362.90,305.00 363.74,305.00 364.58,305.00 365.42,305.00 366.26,305.00 367.10,305.00 367.94,305.00 368.78,305.00 369.61,305.00 370.46,305.00 371.29,305.00 372.13,305.00 372.98,305.00 373.81,305.00 374.65,305.00 375.48,305.00 376.32,305.00 377.17,305.00 378.01,305.00 378.85,305.00 379.69,305.00 380.53,305.00 381.37,305.00 382.21,305.00 383.05,305.00 383.88,305.00 384.72,305.00 385.55,305.00 386.38,305.00 387.22,305.00 388.06,305.00 388.89,305.00 389.73,305.00 390.57,305.00 391.41,305.00 392.24,305.00 393.07,305.00 393.90,305.00 394.77,305.00 395.67,305.00 396.52,305.00 397.36,305.00 398.20,305.00 399.03,305.00 399.87,305.00 400.70,305.00 401.54,305.00 402.53,305.00 403.52,305.00 404.50,305.00 405.48,305.00 406.47,305.00 407.45,305.00 408.46,305.00 409.48,305.00 410.40,305.00 411.30,305.00 412.14,305.00 412.99,305.00 413.83,305.00 414.67,305.00 415.50,305.00 416.35,305.00 417.18,305.00 418.02,305.00 418.86,305.00 419.70,305.00 420.54,305.00 421.38,305.00 422.23,305.00 423.07,305.00 423.91,305.00 424.64,305.00 425.51,305.00 426.35,305.00 427.21,305.00 428.05,305.00 428.89,305.00 429.74,305.00 430.58,305.00 431.43,305.00 432.28,305.00 433.12,305.00 433.98,305.00 434.82,305.00 435.65,305.00 436.49,305.00 437.32,305.00 438.16,305.00 439.00,305.00 439.85,305.00 440.68,305.00 441.53,305.00 442.37,305.00 443.20,305.00 444.05,305.00 444.89,305.00 445.73,305.00 446.58,305.00 447.42,305.00 448.26,305.00 449.11,305.00 449.95,305.00 450.82,305.00 451.65,305.00 452.49,305.00 453.33,305.00 454.16,305.00 455.00,305.00 455.85,305.00 456.69,305.00 457.52,305.00 458.36,305.00 459.20,305.00 460.04,305.00 460.88,305.00 461.73,305.00 462.57,305.00 463.58,305.00 464.45,305.00 465.31,305.00 466.16,305.00 467.00,305.00 467.85,305.00 468.69,305.00 469.52,305.00 470.37,305.00 471.22,305.00 472.06,305.00 472.90,305.00 473.75,305.00 474.59,305.00 475.46,305.00 476.31,305.00 477.16,305.00 478.00,305.00 478.84,305.00 479.68,305.00 480.52,305.00 481.36,305.00 482.24,305.00 483.08,305.00 483.93,305.00 484.77,305.00 485.61,305.00 486.46,305.00 487.30,305.00 488.14,305.00 488.98,305.00 489.83,305.00 490.67,305.00 491.52,305.00 492.35,305.00 493.20,305.00 494.04,305.00 494.89,305.00 495.74,305.00 496.57,305.00 497.41,305.00 498.25,305.00 499.11,305.00 499.95,305.00 500.97,305.00 501.83,305.00 502.67,305.00 503.52,305.00 504.35,305.00 505.20,305.00 506.04,305.00 506.89,305.00 507.74,305.00 508.58,305.00 509.42,305.00 510.26,305.00 511.10,305.00 511.94,305.00 512.78,305.00 513.63,305.00 514.47,305.00 515.30,305.00 516.14,305.00 516.98,305.00 517.84,305.00 518.67,305.00 519.51,305.00 520.36,305.00 521.21,305.00 522.05,305.00 522.89,305.00 523.74,305.00 524.60,305.00 525.44,305.00 526.28,305.00 527.13,305.00 527.97,305.00 528.81,305.00 529.65,305.00 530.50,305.00 531.36,305.00 532.20,305.00 533.04,305.00 533.87,305.00 534.71,305.00 535.56,305.00 536.40,305.00 537.24,305.00 538.09,305.00 538.94,305.00 539.79,305.00 540.61,305.00 541.47,305.00 542.30,305.00 543.15,305.00 543.98,305.00 544.83,305.00 545.67,305.00 546.52,305.00 547.36,305.00 548.20,305.00 549.05,305.00 549.90,305.00 550.75,305.00 551.59,305.00 552.44,305.00 553.39,305.00 554.31,305.00 555.21,305.00 556.06,305.00 556.94,305.00 557.79,305.00 558.63,305.00 559.46,305.00 560.25,305.00 561.13,305.00 561.97,305.00 562.83,305.00 563.66,305.00 564.50,305.00 565.34,305.00 566.19,305.00 567.02,305.00 567.87,305.00 568.71,305.00 569.55,305.00 570.40,305.00 571.25,305.00 572.10,305.00 572.95,305.00 573.79,305.00 574.64,305.00 575.48,305.00 576.34,305.00 577.19,305.00 578.02,305.00 578.86,305.00 579.71,305.00 580.55,305.00 581.39,305.00 582.23,305.00 583.07,305.00 583.93,305.00 584.76,305.00 585.60,305.00 586.45,305.00 587.29,305.00 588.14,305.00 588.99,305.00 589.83,305.00 590.67,305.00 591.52,305.00 592.36,305.00 593.21,305.00 594.06,305.00 594.91,305.00 595.75,305.00 596.60,305.00 597.44,305.00 598.29,305.00 599.16,305.00 600.00,305.00 600.85,305.00 601.69,305.00 602.54,305.00 603.38,305.00 604.22,305.00 605.07,305.00 605.92,305.00 606.76,305.00 607.61,305.00 608.45,305.00 609.30,305.00 610.15,305.00 610.99,305.00 611.85,305.00 612.69,305.00 613.54,305.00 614.40,305.00 615.24,305.00 616.08,305.00 616.93,305.00 617.77,305.00 618.63,305.00 619.48,305.00 620.34,305.00 621.18,305.00 622.02,305.00 622.86,305.00 623.70,305.00 624.55,305.00 625.40,305.00 626.24,305.00 627.08,305.00 627.93,305.00 628.77,305.00 629.62,305.00 630.47,305.00 631.31,305.00 632.16,305.00 633.01,305.00 633.86,305.00 634.70,305.00 635.54,305.00 636.38,305.00 637.22,305.00 638.06,305.00 638.91,305.00 639.76,305.00 640.61,305.00 641.46,305.00 642.30,305.00 643.15,305.00 644.00,305.00 644.84,305.00 645.69,305.00 646.55,305.00 647.39,305.00 648.23,305.00 649.08,305.00 649.94,305.00 650.78,305.00 651.63,305.00 652.49,305.00 653.34,305.00 654.19,305.00 655.04,305.00 655.88,305.00 656.73,305.00 657.58,305.00 658.43,305.00 659.28,305.00 660.12,305.00 660.97,305.00 661.80,305.00 662.67,305.00 663.51,305.00 664.37,305.00 665.21,305.00 666.05,305.00 666.89,305.00 667.73,305.00 668.57,305.00 669.42,305.00 670.26,305.00 671.11,305.00 671.95,305.00 672.80,305.00 673.64,305.00 674.51,305.00 675.36,305.00 676.20,305.00 677.05,305.00 677.88,305.00 678.73,305.00 679.57,305.00 680.43,305.00 681.27,305.00 682.11,305.00 682.96,305.00 683.81,305.00 684.65,305.00 685.50,305.00 686.35,305.00 687.22,305.00 688.08,305.00 688.93,305.00 689.78,305.00 690.62,305.00 691.48,305.00 692.31,305.00 693.16,305.00 693.99,305.00 694.85,305.00 695.69,305.00 696.55,305.00 697.39,305.00 698.25,305.00 699.13,305.00 699.97,305.00 700.82,305.00 701.66,305.00 702.51,305.00 703.36,305.00 704.21,305.00 705.06,305.00 705.91,305.00 706.77,305.00 707.61,305.00 708.46,305.00 709.31,305.00 710.16,305.00 711.00,305.00 711.85,305.00 712.69,305.00 713.55,305.00 714.40,305.00 715.24,305.00 716.09,305.00 716.94,305.00 717.79,305.00 718.64,305.00 719.49,305.00 720.34,305.00 721.21,305.00 722.06,305.00 722.91,305.00 723.76,305.00 724.62,305.00 725.49,305.00 726.35,305.00 727.21,305.00 728.08,305.00 728.94,305.00 729.78,305.00 730.63,305.00 731.48,305.00 732.33,305.00 733.18,305.00 734.04,305.00 734.89,305.00 735.74,305.00 736.58,305.00 737.43,305.00 738.27,305.00 739.12,305.00 739.96,305.00 740.81,305.00 741.65,305.00 742.49,305.00 743.34,305.00 744.17,305.00 745.02,305.00 745.87,305.00 746.72,305.00 747.56,305.00 748.42,305.00 749.27,305.00 750.11,305.00 750.96,305.00 751.81,305.00 752.65,305.00 753.49,305.00 754.34,305.00 755.19,305.00 756.04,305.00 756.87,305.00 757.71,305.00 758.55,305.00 759.40,305.00 760.25,305.00 761.09,305.00 761.94,305.00 762.79,305.00 763.63,305.00 764.47,305.00 765.32,305.00 766.17,305.00 767.00,305.00 767.83,305.00 768.66,305.00 769.51,305.00 770.36,305.00 771.22,305.00 772.06,305.00 772.91,305.00 773.76,305.00 774.62,305.00 775.47,305.00 776.31,305.00 777.16,305.00 778.01,305.00 778.85,305.00 779.71,305.00 780.55,305.00 781.41,305.00 782.26,305.00 783.11,305.00 783.95,305.00 784.79,305.00 785.63,305.00 786.48,305.00 787.32,305.00 788.15,305.00 789.00,305.00 789.85,305.00 790.70,305.00 791.54,305.00 792.38,305.00 793.23,305.00 794.07,305.00 794.92,305.00 795.77,305.00 796.62,305.00 797.46,305.00 798.31,305.00 799.16,305.00 800.00,305.00 800.85,305.00 801.70,305.00 802.54,305.00 803.38,305.00 804.23,305.00 805.08,305.00 805.93,305.00 806.77,305.00 807.61,305.00 808.48,305.00 809.33,305.00 810.19,305.00 811.05,305.00 811.90,305.00 812.74,305.00 813.59,305.00 814.44,305.00 815.29,305.00 816.13,305.00 816.98,305.00 817.85,305.00 818.70,305.00 819.54,305.00 820.39,305.00 821.23,305.00 822.09,305.00 822.93,305.00 823.77,305.00 824.62,305.00 825.46,305.00 826.31,305.00 827.15,305.00 827.99,305.00 828.85,305.00 829.68,305.00 830.53,305.00 831.37,305.00 832.21,305.00 833.06,305.00 833.92,305.00 834.76,305.00 835.60,305.00 836.45,305.00 837.30,305.00 838.13,305.00 838.99,305.00 839.83,305.00 840.69,305.00 841.53,305.00 842.37,305.00 843.21,305.00 844.06,305.00 844.91,305.00 845.75,305.00 846.61,305.00 847.47,305.00 848.33,305.00 849.20,305.00 850.06,305.00 850.92,305.00 851.79,305.00 852.65,305.00 853.53,305.00 854.39,305.00 855.26,305.00 856.10,305.00 856.94,305.00 857.80,305.00 858.65,305.00 859.50,305.00 860.35,305.00 861.19,305.00 862.05,305.00 862.89,305.00 863.74,305.00 864.58,305.00 865.42,305.00 866.27,305.00 867.11,305.00 867.96,305.00 868.81,305.00 869.65,305.00 870.50,305.00 871.36,305.00 872.21,305.00 873.05,305.00 873.89,305.00 874.74,305.00 875.59,305.00 876.44,305.00 877.28,305.00 878.13,305.00 878.97,305.00 879.82,305.00 880.67,305.00 881.51,305.00 882.36,305.00 883.20,305.00 884.05,305.00 884.96,305.00 885.83,305.00 886.67,305.00 887.52,305.00 888.36,305.00 889.22,305.00 890.08,305.00 890.93,305.00 891.78,305.00 892.61,305.00 893.44,305.00 894.29,305.00 895.13,305.00 895.98,305.00 896.83,305.00 897.67,305.00 898.53,305.00 899.38,305.00 900.23,305.00 901.07,305.00 901.92,305.00 902.76,305.00 903.61,305.00 904.46,305.00 905.30,305.00 906.14,305.00 907.00,305.00 907.84,305.00 908.69,305.00 909.57,305.00 910.42,305.00 911.27,305.00 912.11,305.00 912.96,305.00 913.81,305.00 914.66,305.00 915.51,305.00 916.35,305.00 917.20,305.00 918.05,305.00 918.91,305.00 919.76,305.00 920.61,305.00 921.46,305.00 922.30,305.00 923.15,305.00 923.99,305.00 924.84,305.00 925.68,305.00 926.54,305.00 927.39,305.00 928.23,305.00 929.08,305.00 929.92,305.00 930.77,305.00 931.62,305.00 932.46,305.00 933.30,305.00 934.15,305.00 935.00,305.00 935.84,305.00 936.69,305.00 937.53,305.00 938.38,305.00 939.23,305.00 940.08,305.00 940.92,305.00 941.76,305.00 942.60,305.00 943.44,305.00 944.30,305.00 945.14,305.00 946.01,305.00 946.86,305.00 947.71,305.00 948.56,305.00 949.40,305.00 950.26,305.00 951.17,305.00 952.04,305.00 952.89,305.00 953.74,305.00 954.60,305.00 955.44,305.00 956.29,305.00 957.14,305.00 957.98,305.00 958.83,305.00 959.68,305.00 960.53,305.00 961.38,305.00 962.24,305.00 963.09,305.00 963.94,305.00 964.79,305.00 965.63,305.00 966.48,305.00 967.33,305.00 968.18,305.00 969.02,305.00 969.88,305.00 970.72,305.00 971.57,305.00 972.42,305.00 973.27,305.00 974.12,305.00 974.98,305.00 975.83,305.00 976.68,305.00 977.52,305.00 978.37,305.00 979.23,305.00 980.06,305.00 980.91,305.00 981.76,305.00 982.60,305.00 983.45,305.00 984.30,305.00 985.14,305.00 985.99,305.00 986.84,305.00 987.69,305.00 988.53,305.00 989.38,305.00 990.23,305.00 991.09,305.00 991.94,305.00 992.76,305.00 993.59,305.00 994.43,305.00 995.29,305.00 996.13,305.00 996.98,305.00 997.84,305.00 998.68,305.00 999.54,305.00 1000.40,305.00 1001.24,305.00 1002.09,305.00 1002.93,305.00 1003.77,305.00 1004.61,305.00 1005.45,305.00 1006.30,305.00 1007.15,305.00 1007.99,305.00 1008.83,305.00 1009.67,305.00 1010.52,305.00 1011.37,305.00 1012.22,305.00 1013.06,305.00 1013.90,305.00 1014.72,305.00 1015.59,305.00 1016.43,305.00 1017.28,305.00 1018.13,305.00 1018.99,305.00 1019.83,305.00 1020.67,305.00 1021.52,305.00 1022.37,305.00 1023.21,305.00 1024.06,305.00 1024.97,305.00 1025.82,305.00 1026.67,305.00 1027.52,305.00 1028.38,305.00 1029.21,305.00 1030.06,305.00 1030.91,305.00 1031.76,305.00 1032.60,305.00 1033.44,305.00 1034.29,305.00 1035.14,305.00 1036.00,305.00 1036.84,305.00 1037.69,305.00 1038.53,305.00 1039.38,305.00 1040.23,305.00 1041.08,305.00 1041.93,305.00 1042.79,305.00 1043.66,305.00 1044.51,305.00 1045.35,305.00 1046.20,305.00 1047.05,305.00 1047.91,305.00 1048.75,305.00 1049.59,305.00 1050.44,305.00 1051.29,305.00 1052.13,305.00 1052.98,305.00 1053.83,305.00 1054.68,305.00 1055.53,305.00 1056.38,305.00 1057.21,305.00 1058.06,305.00 1058.90,305.00 1059.76,305.00 1060.59,305.00 1061.44,305.00 1062.29,305.00 1063.13,305.00 1063.97,305.00 1064.81,305.00 1065.65,305.00 1066.49,305.00 1067.34,305.00 1068.18,305.00 1069.03,305.00 1069.86,305.00 1070.71,305.00 1071.55,305.00 1072.40,305.00 1073.24,305.00 1074.08,305.00 1074.92,305.00 1075.76,305.00 1076.63,305.00 1077.46,305.00 1078.31,305.00 1079.16,305.00 1080.04,305.00 1080.88,305.00 1081.73,305.00 1082.58,305.00 1083.43,305.00 1084.28,305.00 1085.13,305.00 1085.98,305.00 1086.83,305.00 1087.67,305.00 1088.51,305.00 1089.35,305.00 1090.20,305.00 1091.05,305.00 1091.90,305.00 1092.74,305.00 1093.58,305.00 1094.42,305.00 1095.26,305.00 1096.11,305.00 1096.97,305.00 1097.85,305.00 1098.70,305.00 1099.54,305.00 1100.37,305.00 1101.21,305.00 1102.07,305.00 1102.91,305.00 1103.76,305.00 1104.61,305.00 1105.45,305.00 1106.30,305.00 1107.15,305.00 1108.00,305.00 1108.85,305.00 1109.69,305.00 1110.54,305.00 1111.39,305.00 1112.23,305.00 1113.07,305.00 1113.91,305.00 1114.75,305.00 1115.60,305.00 1116.44,305.00 1117.28,305.00 1118.13,305.00 1118.98,305.00 1119.82,305.00 1120.67,305.00 1121.52,305.00 1122.36,305.00 1123.21,305.00 1124.05,305.00 1124.89,305.00 1125.75,305.00 1126.59,305.00 1127.44,305.00 1128.28,305.00 1129.12,305.00 1129.96,305.00 1130.81,305.00 1131.66,305.00 1132.50,305.00 1133.37,305.00 1134.21,305.00 1135.05,305.00 1135.90,305.00 1136.75,305.00 1137.60,305.00 1138.46,305.00 1140.21,305.00 1141.06,305.00 1141.97,305.00 1142.81,305.00 1143.65,305.00 1144.49,305.00 1145.34,305.00 1146.18,305.00 1147.03,305.00 1147.88,305.00 1148.72,305.00 1149.57,305.00 1150.41,305.00 1151.26,305.00 1152.10,305.00 1152.94,305.00 1153.79,305.00 1154.63,305.00 1155.47,305.00 1156.31,305.00 1157.17,305.00 1158.01,305.00 1158.87,305.00 1159.71,305.00 1160.54,305.00 1161.39,305.00 1162.23,305.00 1163.09,305.00 1163.94,305.00 1164.78,305.00 1165.63,305.00 1166.47,305.00 1167.31,305.00 1168.15,305.00 1169.00,305.00 1169.84,305.00 1170.68,305.00 1171.52,305.00 1172.36,305.00 1173.20,305.00 1174.05,305.00 1174.89,305.00 1175.74,305.00 1176.59,305.00 1177.47,305.00 1178.32,305.00 1179.16,305.00 1180.00,305.00"/>
<polyline fill="none" stroke="#9467bd" stroke-opacity="0.80" stroke-width="2" points="70.00,305.00 70.84,305.00 71.69,305.00 72.53,305.00 73.37,305.00 74.22,305.00 75.06,305.00 75.90,305.00 76.82,305.00 77.65,305.00 78.49,305.00 79.33,305.00 80.18,305.00 81.02,305.00 81.86,305.00 83.37,305.00 84.68,305.00 85.53,305.00 86.39,305.00 87.23,305.00 88.07,305.00 88.90,305.00 89.75,305.00 90.59,305.00 91.43,305.00 92.28,305.00 93.14,305.00 93.99,305.00 94.83,305.00 95.71,305.00 96.57,305.00 97.40,305.00 98.27,305.00 99.11,305.00 99.95,305.00 100.82,305.00 101.66,305.00 102.50,305.00 103.36,305.00 104.19,305.00 105.03,305.00 105.86,305.00 106.70,305.00 107.55,305.00 108.39,305.00 109.25,305.00 110.10,305.00 110.93,305.00 111.77,305.00 112.62,305.00 113.46,305.00 114.42,305.00 115.27,305.00 116.11,305.00 116.94,305.00 117.78,305.00 118.61,305.00 119.45,305.00 120.30,305.00 121.13,305.00 121.99,305.00 122.83,305.00 123.66,305.00 124.51,305.00 125.37,305.00 126.21,305.00 127.05,305.00 127.88,305.00 128.72,305.00 129.55,305.00 130.39,305.00 131.23,305.00 132.07,305.00 132.91,305.00 133.75,305.00 134.59,305.00 135.43,305.00 136.27,305.00 137.11,305.00 137.95,305.00 138.81,305.00 139.65,305.00 140.49,305.00 141.34,305.00 142.17,305.00 143.02,305.00 143.86,305.00 144.69,305.00 145.52,305.00 146.37,305.00 147.22,305.00 148.06,305.00 148.91,305.00 149.74,305.00 150.58,305.00 151.42,305.00 152.26,305.00 153.10,305.00 153.94,305.00 154.77,305.00 155.62,305.00 156.46,305.00 157.31,305.00 158.15,305.00 159.00,305.00 159.85,305.00 160.69,305.00 161.53,305.00 162.37,305.00 163.20,305.00 164.05,305.00 164.90,305.00 165.74,305.00 166.58,305.00 167.42,305.00 168.27,305.00 169.11,305.00 169.97,305.00 170.81,305.00 171.65,305.00 172.49,305.00 173.33,305.00 174.17,305.00 175.02,305.00 175.93,305.00 176.77,305.00 177.62,305.00 178.46,305.00 179.30,305.00 180.13,305.00 180.96,305.00 181.80,305.00 182.64,305.00 183.48,305.00 184.32,305.00 185.16,305.00 186.00,305.00 186.83,305.00 187.69,305.00 188.53,305.00 189.37,305.00 190.20,305.00 191.05,305.00 191.88,305.00 192.73,305.00 193.57,305.00 194.42,305.00 195.26,305.00 196.10,305.00 196.93,305.00 197.77,305.00 198.61,305.00 199.45,305.00 200.30,305.00 201.15,305.00 201.99,305.00 202.83,305.00 203.68,305.00 204.52,305.00 205.36,305.00 206.20,305.00 207.04,305.00 207.90,305.00 208.75,305.00 209.59,305.00 210.43,305.00 211.27,305.00 212.10,305.00 212.94,305.00 213.79,305.00 214.62,305.00 215.45,305.00 216.29,305.00 217.14,305.00 217.98,305.00 218.83,305.00 219.67,305.00 220.53,305.00 221.37,305.00 222.21,305.00 223.05,305.00 223.88,305.00 224.80,305.00 225.66,305.00 226.49,305.00 227.33,305.00 228.16,305.00 229.00,305.00 229.84,305.00 230.69,305.00 231.53,305.00 232.37,305.00 233.21,305.00 234.05,305.00 234.91,305.00 235.75,305.00 236.59,305.00 237.43,305.00 238.28,305.00 239.14,305.00 240.00,305.00 240.83,305.00 241.67,305.00 242.52,305.00 243.35,305.00 244.20,305.00 245.04,305.00 245.89,305.00 246.73,305.00 247.57,305.00 248.42,305.00 249.26,305.00 250.10,305.00 250.94,305.00 251.79,305.00 252.64,305.00 253.47,305.00 254.30,305.00 255.14,305.00 255.99,305.00 256.83,305.00 257.66,305.00 258.50,305.00 259.34,305.00 260.18,305.00 261.02,305.00 261.87,305.00 262.71,305.00 263.56,305.00 264.41,305.00 265.25,305.00 266.09,305.00 266.94,305.00 267.78,305.00 268.62,305.00 269.46,305.00 270.32,305.00 271.16,305.00 272.01,305.00 272.85,305.00 273.69,305.00 274.53,305.00 275.37,305.00 276.21,305.00 277.05,305.00 277.90,305.00 278.74,305.00 279.58,305.00 280.43,305.00 281.27,305.00 282.11,305.00 282.96,305.00 283.81,305.00 284.65,305.00 285.49,305.00 286.33,305.00 287.18,305.00 288.03,305.00 288.87,305.00 289.71,305.00 290.64,305.00 291.49,305.00 292.33,305.00 293.18,305.00 294.03,305.00 294.87,305.00 295.71,305.00 296.56,305.00 297.39,305.00 298.26,305.00 299.11,305.00 299.95,305.00 300.79,305.00 301.63,305.00 302.47,305.00 303.32,305.00 304.19,305.00 305.03,305.00 305.87,305.00 306.73,305.00 307.63,305.00 308.48,305.00 309.53,305.00 310.96,305.00 311.82,305.00 312.68,305.00 313.52,305.00 314.34,305.00 315.18,305.00 316.04,305.00 316.88,305.00 317.73,305.00 318.61,305.00 319.48,305.00 320.37,305.00 321.21,305.00 322.06,305.00 322.90,305.00 323.75,305.00 324.61,305.00 325.46,305.00 326.29,305.00 327.13,305.00 328.01,305.00 328.86,305.00 329.69,305.00 330.53,305.00 331.39,305.00 332.26,305.00 333.11,305.00 333.95,305.00 334.82,305.00 335.63,305.00 336.46,305.00 337.32,305.00 338.16,305.00 339.01,305.00 339.88,305.00 340.73,305.00 341.57,305.00 342.42,305.00 343.27,305.00 344.11,305.00 344.95,305.00 345.79,305.00 346.63,305.00 347.48,305.00 348.31,305.00 349.32,305.00 350.31,305.00 351.31,305.00 352.28,305.00 353.25,305.00 354.22,305.00 355.21,305.00 356.19,305.00 357.04,305.00 357.87,305.00 358.71,305.00 359.55,305.00 360.39,305.00 361.23,305.00 362.07,305.00 362.90,305.00 363.74,305.00 364.58,305.00 365.42,305.00 366.26,305.00 367.10,305.00 367.94,305.00 368.78,305.00 369.61,305.00 370.46,305.00 371.29,305.00 372.13,305.00 372.98,305.00 373.81,305.00 374.65,305.00 375.48,305.00 376.32,305.00 377.17,305.00 378.01,305.00 378.85,305.00 379.69,305.00 380.53,305.00 381.37,305.00 382.21,305.00 383.05,305.00 383.88,305.00 384.72,305.00 385.55,305.00 386.38,305.00 387.22,305.00 388.06,305.00 388.89,305.00 389.73,305.00 390.57,305.00 391.41,305.00 392.24,305.00 393.07,305.00 393.90,305.00 394.77,305.00 395.67,305.00 396.52,305.00 397.36,305.00 398.20,305.00 399.03,305.00 399.87,305.00 400.70,305.00 401.54,305.00 402.53,305.00 403.52,305.00 404.50,305.00 405.48,305.00 406.47,305.00 407.45,305.00 408.46,305.00 409.48,305.00 410.40,305.00 411.30,305.00 412.14,305.00 412.99,305.00 413.83,305.00 414.67,305.00 415.50,305.00 416.35,305.00 417.18,305.00 418.02,305.00 418.86,305.00 419.70,305.00 420.54,305.00 421.38,305.00 422.23,305.00 423.07,305.00 423.91,305.00 424.64,305.00 425.51,305.00 426.35,305.00 427.21,305.00 428.05,305.00 428.89,305.00 429.74,305.00 430.58,305.00 431.43,305.00 432.28,305.00 433.12,305.00 433.98,305.00 434.82,305.00 435.65,305.00 436.49,305.00 437.32,305.00 438.16,305.00 439.00,305.00 439.85,305.00 440.68,305.00 441.53,305.00 442.37,305.00 443.20,305.00 444.05,305.00 444.89,305.00 445.73,305.00 446.58,305.00 447.42,305.00 448.26,305.00 449.11,305.00 449.95,305.00 450.82,305.00 451.65,305.00 452.49,305.00 453.33,305.00 454.16,305.00 455.00,305.00 455.85,305.00 456.69,305.00 457.52,305.00 458.36,305.00 459.20,305.00 460.04,305.00 460.88,305.00 461.73,305.00 462.57,305.00 463.58,305.00 464.45,305.00 465.31,305.00 466.16,305.00 467.00,305.00 467.85,305.00 468.69,305.00 469.52,305.00 470.37,305.00 471.22,305.00 472.06,305.00 472.90,305.00 473.75,305.00 474.59,305.00 475.46,305.00 476.31,305.00 477.16,305.00 478.00,305.00 478.84,305.00 479.68,305.00 480.52,305.00 481.36,305.00 482.24,305.00 483.08,305.00 483.93,305.00 484.77,305.00 485.61,305.00 486.46,305.00 487.30,305.00 488.14,305.00 488.98,305.00 489.83,305.00 490.67,305.00 491.52,305.00 492.35,305.00 493.20,305.00 494.04,305.00 494.89,305.00 495.74,305.00 496.57,305.00 497.41,305.00 498.25,305.00 499.11,305.00 499.95,305.00 500.97,305.00 501.83,305.00 502.67,305.00 503.52,305.00 504.35,305.00 505.20,305.00 506.04,305.00 506.89,305.00 507.74,305.00 508.58,305.00 509.42,305.00 510.26,305.00 511.10,305.00 511.94,305.00 512.78,305.00 513.63,305.00 514.47,305.00 515.30,305.00 516.14,305.00 516.98,305.00 517.84,305.00 518.67,305.00 519.51,305.00 520.36,305.00 521.21,305.00 522.05,305.00 522.89,305.00 523.74,305.00 524.60,305.00 525.44,305.00 526.28,305.00 527.13,305.00 527.97,305.00 528.81,305.00 529.65,305.00 530.50,305.00 531.36,305.00 532.20,305.00 533.04,305.00 533.87,305.00 534.71,305.00 535.56,305.00 536.40,305.00 537.24,305.00 538.09,305.00 538.94,305.00 539.79,305.00 540.61,305.00 541.47,305.00 542.30,305.00 543.15,305.00 543.98,305.00 544.83,305.00 545.67,305.00 546.52,305.00 547.36,305.00 548.20,305.00 549.05,305.00 549.90,305.00 550.75,305.00 551.59,305.00 552.44,305.00 553.39,305.00 554.31,305.00 555.21,305.00 556.06,305.00 556.94,305.00 557.79,305.00 558.63,305.00 559.46,305.00 560.25,305.00 561.13,305.00 561.97,305.00 562.83,305.00 563.66,305.00 564.50,305.00 565.34,305.00 566.19,305.00 567.02,305.00 567.87,305.00 568.71,305.00 569.55,305.00 570.40,305.00 571.25,305.00 572.10,305.00 572.95,305.00 573.79,305.00 574.64,305.00 575.48,305.00 576.34,305.00 577.19,305.00 578.02,305.00 578.86,305.00 579.71,305.00 580.55,305.00 581.39,305.00 582.23,305.00 583.07,305.00 583.93,305.00 584.76,305.00 585.60,305.00 586.45,305.00 587.29,305.00 588.14,305.00 588.99,305.00 589.83,305.00 590.67,305.00 591.52,305.00 592.36,305.00 593.21,305.00 594.06,305.00 594.91,305.00 595.75,305.00 596.60,305.00 597.44,305.00 598.29,305.00 599.16,305.00 600.00,305.00 600.85,305.00 601.69,305.00 602.54,305.00 603.38,305.00 604.22,305.00 605.07,305.00 605.92,305.00 606.76,305.00 607.61,305.00 608.45,305.00 609.30,305.00 610.15,305.00 610.99,305.00 611.85,305.00 612.69,305.00 613.54,305.00 614.40,305.00 615.24,305.00 616.08,305.00 616.93,305.00 617.77,305.00 618.63,305.00 619.48,305.00 620.34,305.00 621.18,305.00 622.02,305.00 622.86,305.00 623.70,305.00 624.55,305.00 625.40,305.00 626.24,305.00 627.08,305.00 627.93,305.00 628.77,305.00 629.62,305.00 630.47,305.00 631.31,305.00 632.16,305.00 633.01,305.00 633.86,305.00 634.70,305.00 635.54,305.00 636.38,305.00 637.22,305.00 638.06,305.00 638.91,305.00 639.76,305.00 640.61,305.00 641.46,305.00 642.30,305.00 643.15,305.00 644.00,305.00 644.84,305.00 645.69,305.00 646.55,305.00 647.39,305.00 648.23,305.00 649.08,305.00 649.94,305.00 650.78,305.00 651.63,305.00 652.49,305.00 653.34,305.00 654.19,305.00 655.04,305.00 655.88,305.00 656.73,305.00 657.58,305.00 658.43,305.00 659.28,305.00 660.12,305.00 660.97,305.00 661.80,305.00 662.67,305.00 663.51,305.00 664.37,305.00 665.21,305.00 666.05,305.00 666.89,305.00 667.73,305.00 668.57,305.00 669.42,305.00 670.26,305.00 671.11,305.00 671.95,305.00 672.80,305.00 673.64,305.00 674.51,305.00 675.36,305.00 676.20,305.00 677.05,305.00 677.88,305.00 678.73,305.00 679.57,305.00 680.43,305.00 681.27,305.00 682.11,305.00 682.96,305.00 683.81,305.00 684.65,305.00 685.50,305.00 686.35,305.00 687.22,305.00 688.08,305.00 688.93,305.00 689.78,305.00 690.62,305.00 691.48,305.00 692.31,305.00 693.16,305.00 693.99,305.00 694.85,305.00 695.69,305.00 696.55,305.00 697.39,305.00 698.25,305.00 699.13,305.00 699.97,305.00 700.82,305.00 701.66,305.00 702.51,305.00 703.36,305.00 704.21,305.00 705.06,305.00 705.91,305.00 706.77,305.00 707.61,305.00 708.46,305.00 709.31,305.00 710.16,305.00 711.00,305.00 711.85,305.00 712.69,305.00 713.55,305.00 714.40,305.00 715.24,305.00 716.09,305.00 716.94,305.00 717.79,305.00 718.64,305.00 719.49,305.00 720.34,305.00 721.21,305.00 722.06,305.00 722.91,305.00 723.76,305.00 724.62,305.00 725.49,305.00 726.35,305.00 727.21,305.00 728.08,305.00 728.94,305.00 729.78,305.00 730.63,305.00 731.48,305.00 732.33,305.00 733.18,305.00 734.04,305.00 734.89,305.00 735.74,305.00 736.58,305.00 737.43,305.00 738.27,305.00 739.12,305.00 739.96,305.00 740.81,305.00 741.65,305.00 742.49,305.00 743.34,305.00 744.17,305.00 745.02,305.00 745.87,305.00 746.72,305.00 747.56,305.00 748.42,305.00 749.27,305.00 750.11,305.00 750.96,305.00 751.81,305.00 752.65,305.00 753.49,305.00 754.34,305.00 755.19,305.00 756.04,305.00 756.87,305.00 757.71,305.00 758.55,305.00 759.40,305.00 760.25,305.00 761.09,305.00 761.94,305.00 762.79,305.00 763.63,305.00 764.47,305.00 765.32,305.00 766.17,305.00 767.00,305.00 767.83,305.00 768.66,305.00 769.51,305.00 770.36,305.00 771.22,305.00 772.06,305.00 772.91,305.00 773.76,305.00 774.62,305.00 775.47,305.00 776.31,305.00 777.16,305.00 778.01,305.00 778.85,305.00 779.71,305.00 780.55,305.00 781.41,305.00 782.26,305.00 783.11,305.00 783.95,305.00 784.79,305.00 785.63,305.00 786.48,305.00 787.32,305.00 788.15,305.00 789.00,305.00 789.85,305.00 790.70,305.00 791.54,305.00 792.38,305.00 793.23,305.00 794.07,305.00 794.92,305.00 795.77,305.00 796.62,305.00 797.46,305.00 798.31,305.00 799.16,305.00 800.00,305.00 800.85,305.00 801.70,305.00 802.54,305.00 803.38,305.00 804.23,305.00 805.08,305.00 805.93,305.00 806.77,305.00 807.61,305.00 808.48,305.00 809.33,305.00 810.19,305.00 811.05,305.00 811.90,305.00 812.74,305.00 813.59,305.00 814.44,305.00 815.29,305.00 816.13,305.00 816.98,305.00 817.85,305.00 818.70,305.00 819.54,305.00 820.39,305.00 821.23,305.00 822.09,305.00 822.93,305.00 823.77,305.00 824.62,305.00 825.46,305.00 826.31,305.00 827.15,305.00 827.99,305.00 828.85,305.00 829.68,305.00 830.53,305.00 831.37,305.00 832.21,305.00 833.06,305.00 833.92,305.00 834.76,305.00 835.60,305.00 836.45,305.00 837.30,305.00 838.13,305.00 838.99,305.00 839.83,305.00 840.69,305.00 841.53,305.00 842.37,305.00 843.21,305.00 844.06,305.00 844.91,305.00 845.75,305.00 846.61,305.00 847.47,305.00 848.33,305.00 849.20,305.00 850.06,305.00 850.92,305.00 851.79,305.00 852.65,305.00 853.53,305.00 854.39,305.00 855.26,305.00 856.10,305.00 856.94,305.00 857.80,305.00 858.65,305.00 859.50,305.00 860.35,305.00 861.19,305.00 862.05,305.00 862.89,305.00 863.74,305.00 864.58,305.00 865.42,305.00 866.27,305.00 867.11,305.00 867.96,305.00 868.81,305.00 869.65,305.00 870.50,305.00 871.36,305.00 872.21,305.00 873.05,305.00 873.89,305.00 874.74,305.00 875.59,305.00 876.44,305.00 877.28,305.00 878.13,305.00 878.97,305.00 879.82,305.00 880.67,305.00 881.51,305.00 882.36,305.00 883.20,305.00 884.05,305.00 884.96,305.00 885.83,305.00 886.67,305.00 887.52,305.00 888.36,305.00 889.22,305.00 890.08,305.00 890.93,305.00 891.78,305.00 892.61,305.00 893.44,305.00 894.29,305.00 895.13,305.00 895.98,305.00 896.83,305.00 897.67,305.00 898.53,305.00 899.38,305.00 900.23,305.00 901.07,305.00 901.92,305.00 902.76,305.00 903.61,305.00 904.46,305.00 905.30,305.00 906.14,305.00 907.00,305.00 907.84,305.00 908.69,305.00 909.57,305.00 910.42,305.00 911.27,305.00 912.11,305.00 912.96,305.00 913.81,305.00 914.66,305.00 915.51,305.00 916.35,305.00 917.20,305.00 918.05,305.00 918.91,305.00 919.76,305.00 920.61,305.00 921.46,305.00 922.30,305.00 923.15,305.00 923.99,305.00 924.84,305.00 925.68,305.00 926.54,305.00 927.39,305.00 928.23,305.00 929.08,305.00 929.92,305.00 930.77,305.00 931.62,305.00 932.46,305.00 933.30,305.00 934.15,305.00 935.00,305.00 935.84,305.00 936.69,305.00 937.53,305.00 938.38,305.00 939.23,305.00 940.08,305.00 940.92,305.00 941.76,305.00 942.60,305.00 943.44,305.00 944.30,305.00 945.14,305.00 946.01,305.00 946.86,305.00 947.71,305.00 948.56,305.00 949.40,305.00 950.26,305.00 951.17,305.00 952.04,305.00 952.89,305.00 953.74,305.00 954.60,305.00 955.44,305.00 956.29,305.00 957.14,305.00 957.98,305.00 958.83,305.00 959.68,305.00 960.53,305.00 961.38,305.00 962.24,305.00 963.09,305.00 963.94,305.00 964.79,305.00 965.63,305.00 966.48,305.00 967.33,305.00 968.18,305.00 969.02,305.00 969.88,305.00 970.72,305.00 971.57,305.00 972.42,305.00 973.27,305.00 974.12,305.00 974.98,305.00 975.83,305.00 976.68,305.00 977.52,305.00 978.37,305.00 979.23,305.00 980.06,305.00 980.91,305.00 981.76,305.00 982.60,305.00 983.45,305.00 984.30,305.00 985.14,305.00 985.99,305.00 986.84,305.00 987.69,305.00 988.53,305.00 989.38,305.00 990.23,305.00 991.09,305.00 991.94,305.00 992.76,305.00 993.59,305.00 994.43,305.00 995.29,305.00 996.13,305.00 996.98,305.00 997.84,305.00 998.68,305.00 999.54,305.00 1000.40,305.00 1001.24,305.00 1002.09,305.00 1002.93,305.00 1003.77,305.00 1004.61,305.00 1005.45,305.00 1006.30,305.00 1007.15,305.00 1007.99,305.00 1008.83,305.00 1009.67,305.00 1010.52,305.00 1011.37,305.00 1012.22,305.00 1013.06,305.00 1013.90,305.00 1014.72,305.00 1015.59,305.00 1016.43,305.00 1017.28,305.00 1018.13,305.00 1018.99,305.00 1019.83,305.00 1020.67,305.00 1021.52,305.00 1022.37,305.00 1023.21,305.00 1024.06,305.00 1024.97,305.00 1025.82,305.00 1026.67,305.00 1027.52,305.00 1028.38,305.00 1029.21,305.00 1030.06,305.00 1030.91,305.00 1031.76,305.00 1032.60,305.00 1033.44,305.00 1034.29,305.00 1035.14,305.00 1036.00,305.00 1036.84,305.00 1037.69,305.00 1038.53,305.00 1039.38,305.00 1040.23,305.00 1041.08,305.00 1041.93,305.00 1042.79,305.00 1043.66,305.00 1044.51,305.00 1045.35,305.00 1046.20,305.00 1047.05,305.00 1047.91,305.00 1048.75,305.00 1049.59,305.00 1050.44,305.00 1051.29,305.00 1052.13,305.00 1052.98,305.00 1053.83,305.00 1054.68,305.00 1055.53,305.00 1056.38,305.00 1057.21,305.00 1058.06,305.00 1058.90,305.00 1059.76,305.00 1060.59,305.00 1061.44,305.00 1062.29,305.00 1063.13,305.00 1063.97,305.00 1064.81,305.00 1065.65,305.00 1066.49,305.00 1067.34,305.00 1068.18,305.00 1069.03,305.00 1069.86,305.00 1070.71,305.00 1071.55,305.00 1072.40,305.00 1073.24,305.00 1074.08,305.00 1074.92,305.00 1075.76,305.00 1076.63,305.00 1077.46,305.00 1078.31,305.00 1079.16,305.00 1080.04,305.00 1080.88,305.00 1081.73,305.00 1082.58,305.00 1083.43,305.00 1084.28,305.00 1085.13,305.00 1085.98,305.00 1086.83,305.00 1087.67,305.00 1088.51,305.00 1089.35,305.00 1090.20,305.00 1091.05,305.00 1091.90,305.00 1092.74,305.00 1093.58,305.00 1094.42,305.00 1095.26,305.00 1096.11,305.00 1096.97,305.00 1097.85,305.00 1098.70,305.00 1099.54,305.00 1100.37,305.00 1101.21,305.00 1102.07,305.00 1102.91,305.00 1103.76,305.00 1104.61,305.00 1105.45,305.00 1106.30,305.00 1107.15,305.00 1108.00,305.00 1108.85,305.00 1109.69,305.00 1110.54,305.00 1111.39,305.00 1112.23,305.00 1113.07,305.00 1113.91,305.00 1114.75,305.00 1115.60,305.00 1116.44,305.00 1117.28,305.00 1118.13,305.00 1118.98,305.00 1119.82,305.00 1120.67,305.00 1121.52,305.00 1122.36,305.00 1123.21,305.00 1124.05,305.00 1124.89,305.00 1125.75,305.00 1126.59,305.00 1127.44,305.00 1128.28,305.00 1129.12,305.00 1129.96,305.00 1130.81,305.00 1131.66,305.00 1132.50,305.00 1133.37,305.00 1134.21,305.00 1135.05,305.00 1135.90,305.00 1136.75,305.00 1137.60,305.00 1138.46,305.00 1139.31,305.00 1140.21,305.00 1141.06,305.00 1141.97,305.00 1142.81,305.00 1143.65,305.00 1144.49,305.00 1145.34,305.00 1146.18,305.00 1147.03,305.00 1147.88,305.00 1148.72,305.00 1149.57,305.00 1150.41,305.00 1151.26,305.00 1152.10,305.00 1152.94,305.00 1153.79,305.00 1154.63,305.00 1155.47,305.00 1156.31,305.00 1157.17,305.00 1158.01,305.00 1158.87,305.00 1159.71,305.00 1160.54,305.00 1161.39,305.00 1162.23,305.00 1163.09,305.00 1163.94,305.00 1164.78,305.00 1165.63,305.00 1166.47,305.00 1167.31,305.00 1168.15,305.00 1169.00,305.00 1169.84,305.00 1170.68,305.00 1171.52,305.00 1172.36,305.00 1173.20,305.00 1174.05,305.00 1174.89,305.00 1175.74,305.00 1176.59,305.00 1177.47,305.00 1178.32,305.00 1179.16,305.00 1180.00,305.00"/>
<polyline fill="none" stroke="#9467bd" stroke-opacity="0.65" stroke-width="2" points="424.64,305.00 425.51,305.00 426.35,305.00 427.21,305.00 428.05,305.00 428.89,305.00 429.74,305.00 430.58,305.00 431.43,305.00 432.28,305.00 433.12,305.00 433.98,305.00 434.82,305.00 435.65,305.00 436.49,305.00 437.32,305.00 438.16,305.00 439.00,305.00 439.85,305.00 440.68,305.00 441.53,305.00 442.37,305.00 443.20,305.00 444.05,305.00 444.89,305.00 445.73,305.00 446.58,305.00 447.42,305.00 448.26,305.00 449.11,305.00 449.95,305.00 450.82,305.00 451.65,305.00 452.49,305.00 453.33,305.00 454.16,305.00 455.00,305.00 455.85,305.00 456.69,305.00 457.52,305.00 458.36,305.00 459.20,305.00 460.04,305.00 460.88,305.00 461.73,305.00 462.57,305.00 463.58,305.00 464.45,305.00 465.31,305.00 466.16,305.00 467.00,305.00 467.85,305.00 468.69,305.00 469.52,305.00 470.37,305.00 471.22,305.00 472.06,305.00 472.90,305.00 473.75,305.00 474.59,305.00 475.46,305.00 476.31,305.00 477.16,305.00 478.00,305.00 478.84,305.00 479.68,305.00 480.52,305.00 481.36,305.00 482.24,305.00 483.08,305.00 483.93,305.00 484.77,305.00 485.61,305.00 486.46,305.00 487.30,305.00 488.14,305.00 488.98,305.00 489.83,305.00 490.67,305.00 491.52,305.00 492.35,305.00 493.20,305.00 494.04,305.00 494.89,305.00 495.74,305.00 496.57,305.00 497.41,305.00 498.25,305.00 499.11,305.00 499.95,305.00 500.97,305.00 501.83,305.00 502.67,305.00 503.52,305.00 504.35,305.00 505.20,305.00 506.04,305.00 506.89,305.00 507.74,305.00 508.58,305.00 509.42,305.00 510.26,305.00 511.10,305.00 511.94,305.00 512.78,305.00 513.63,305.00 514.47,305.00 515.30,305.00 516.14,305.00 516.98,305.00 517.84,305.00 518.67,305.00 519.51,305.00 520.36,305.00 521.21,305.00 522.05,305.00 522.89,305.00 523.74,305.00 524.60,305.00 525.44,305.00 526.28,305.00 527.13,305.00 527.97,305.00 528.81,305.00 529.65,305.00 530.50,305.00 531.36,305.00 532.20,305.00 533.04,305.00 533.87,305.00 534.71,305.00 535.56,305.00 536.40,305.00 537.24,305.00 538.09,305.00 538.94,305.00 539.79,305.00 540.61,305.00 541.47,305.00 542.30,305.00 543.15,305.00 543.98,305.00 544.83,305.00 545.67,305.00 546.52,305.00 547.36,305.00 548.20,305.00 549.05,305.00 549.90,305.00 550.75,305.00 551.59,305.00 552.44,305.00 553.39,305.00 554.31,305.00 555.21,305.00 556.06,305.00 556.94,305.00 557.79,305.00 558.63,305.00 559.46,305.00 560.25,305.00 561.13,305.00 561.97,305.00 562.83,305.00 563.66,305.00 564.50,305.00 565.34,305.00 566.19,305.00 567.02,305.00 567.87,305.00 568.71,305.00 569.55,305.00 570.40,305.00 571.25,305.00 572.10,305.00 572.95,305.00 573.79,305.00 574.64,305.00 575.48,305.00 576.34,305.00 577.19,305.00 578.02,305.00 578.86,305.00 579.71,305.00 580.55,305.00 581.39,305.00 582.23,305.00 583.07,305.00 583.93,305.00 584.76,305.00 585.60,305.00 586.45,305.00 587.29,305.00 588.14,305.00 588.99,305.00 589.83,305.00 590.67,305.00 591.52,305.00 592.36,305.00 593.21,305.00 594.06,305.00 594.91,305.00 595.75,305.00 596.60,305.00 597.44,305.00 598.29,305.00 599.16,305.00 600.00,305.00 600.85,305.00 601.69,305.00 602.54,305.00 603.38,305.00 604.22,305.00 605.07,305.00 605.92,305.00 606.76,305.00 607.61,305.00 608.45,305.00 609.30,305.00 610.15,305.00 610.99,305.00 611.85,305.00 612.69,305.00 613.54,305.00 614.40,305.00 615.24,305.00 616.08,305.00 616.93,305.00 617.77,305.00 618.63,305.00 619.48,305.00 620.34,305.00 621.18,305.00 622.02,305.00 622.86,305.00 623.70,305.00 624.55,305.00 625.40,305.00 626.24,305.00 627.08,305.00 627.93,305.00 628.77,305.00 629.62,305.00 630.47,305.00 631.31,305.00 632.16,305.00 633.01,305.00 633.86,305.00 634.70,305.00 635.54,305.00 636.38,305.00 637.22,305.00 638.06,305.00 638.91,305.00 639.76,305.00 640.61,305.00 641.46,305.00 642.30,305.00 643.15,305.00 644.00,305.00 644.84,305.00 645.69,305.00 646.55,305.00 647.39,305.00 648.23,305.00 649.08,305.00 649.94,305.00 650.78,305.00 651.63,305.00 652.49,305.00 653.34,305.00 654.19,305.00 655.04,305.00 655.88,305.00 656.73,305.00 657.58,305.00 658.43,305.00 659.28,305.00 660.12,305.00 660.97,305.00 661.80,305.00 662.67,305.00 663.51,305.00 664.37,305.00 665.21,305.00 666.05,305.00 666.89,305.00 667.73,305.00 668.57,305.00 669.42,305.00 670.26,305.00 671.11,305.00 671.95,305.00 672.80,305.00 673.64,305.00 674.51,305.00 675.36,305.00 676.20,305.00 677.05,305.00 677.88,305.00 678.73,305.00 679.57,305.00 680.43,305.00 681.27,305.00 682.11,305.00 682.96,305.00 683.81,305.00 684.65,305.00 685.50,305.00 686.35,305.00 687.22,305.00 688.08,305.00 688.93,305.00 689.78,305.00 690.62,305.00 691.48,305.00 692.31,305.00 693.16,305.00 693.99,305.00 694.85,305.00 695.69,305.00 696.55,305.00 697.39,305.00 698.25,305.00 699.13,305.00 699.97,305.00 700.82,305.00 701.66,305.00 702.51,305.00 703.36,305.00 704.21,305.00 705.06,305.00 705.91,305.00 706.77,305.00 707.61,305.00 708.46,305.00 709.31,305.00 710.16,305.00 711.00,305.00 711.85,305.00 712.69,305.00 713.55,305.00 714.40,305.00 715.24,305.00 716.09,305.00 716.94,305.00 717.79,305.00 718.64,305.00 719.49,305.00 720.34,305.00 721.21,305.00 722.06,305.00 722.91,305.00 723.76,305.00 724.62,305.00 725.49,305.00 726.35,305.00 727.21,305.00 728.08,305.00 728.94,305.00 729.78,305.00 730.63,305.00 731.48,305.00 732.33,305.00 733.18,305.00 734.04,305.00 734.89,305.00 735.74,305.00 736.58,305.00 737.43,305.00 738.27,305.00 739.12,305.00 739.96,305.00 740.81,305.00 741.65,305.00 742.49,305.00 743.34,305.00 744.17,305.00 745.02,305.00 745.87,305.00 746.72,305.00 747.56,305.00 748.42,305.00 749.27,305.00 750.11,305.00 750.96,305.00 751.81,305.00 752.65,305.00 753.49,305.00 754.34,305.00 755.19,305.00 756.04,305.00 756.87,305.00 757.71,305.00 758.55,305.00 759.40,305.00 760.25,305.00 761.09,305.00 761.94,305.00 762.79,305.00 763.63,305.00 764.47,305.00 765.32,305.00 766.17,305.00 767.00,305.00 767.83,305.00 768.66,305.00 769.51,305.00 770.36,305.00 771.22,305.00 772.06,305.00 772.91,305.00 773.76,305.00 774.62,305.00 775.47,305.00 776.31,305.00 777.16,305.00 778.01,305.00 778.85,305.00 779.71,305.00 780.55,305.00 781.41,305.00 782.26,305.00 783.11,305.00 783.95,305.00 784.79,305.00 785.63,305.00 786.48,305.00 787.32,305.00 788.15,305.00 789.00,305.00 789.85,305.00 790.70,305.00 791.54,305.00 792.38,305.00 793.23,305.00 794.07,305.00 794.92,305.00 795.77,305.00 796.62,305.00 797.46,305.00 798.31,305.00 799.16,305.00 800.00,305.00 800.85,305.00 801.70,305.00 802.54,305.00 803.38,305.00 804.23,305.00 805.08,305.00 805.93,305.00 806.77,305.00 807.61,305.00 808.48,305.00 809.33,305.00 810.19,305.00 811.05,305.00 811.90,305.00 812.74,305.00 813.59,305.00 814.44,305.00 815.29,305.00 816.13,305.00 816.98,305.00 817.85,305.00 818.70,305.00 819.54,305.00 820.39,305.00 821.23,305.00 822.09,305.00 822.93,305.00 823.77,305.00 824.62,305.00 825.46,305.00 826.31,305.00 827.15,305.00 827.99,305.00 828.85,305.00 829.68,305.00 830.53,305.00 831.37,305.00 832.21,305.00 833.06,305.00 833.92,305.00 834.76,305.00 835.60,305.00 836.45,305.00 837.30,305.00 838.13,305.00 838.99,305.00 839.83,305.00 840.69,305.00 841.53,305.00 842.37,305.00 843.21,305.00 844.06,305.00 844.91,305.00 845.75,305.00 846.61,305.00 847.47,305.00 848.33,305.00 849.20,305.00 850.06,305.00 850.92,305.00 851.79,305.00 852.65,305.00 853.53,305.00 854.39,305.00 855.26,305.00 856.10,305.00 856.94,305.00 857.80,305.00 858.65,305.00 859.50,305.00 860.35,305.00 861.19,305.00 862.05,305.00 862.89,305.00 863.74,305.00 864.58,305.00 865.42,305.00 866.27,305.00 867.11,305.00 867.96,305.00 868.81,305.00 869.65,305.00 870.50,305.00 871.36,305.00 872.21,305.00 873.05,305.00 873.89,305.00 874.74,305.00 875.59,305.00 876.44,305.00 877.28,305.00 878.13,305.00 878.97,305.00 879.82,305.00 880.67,305.00 881.51,305.00 882.36,305.00 883.20,305.00 884.05,305.00 884.96,305.00 885.83,305.00 886.67,305.00 887.52,305.00 888.36,305.00 889.22,305.00 890.08,305.00 890.93,305.00 891.78,305.00 892.61,305.00 893.44,305.00 894.29,305.00 895.13,305.00 895.98,305.00 896.83,305.00 897.67,305.00 898.53,305.00 899.38,305.00 900.23,305.00 901.07,305.00 901.92,305.00 902.76,305.00 903.61,305.00 904.46,305.00 905.30,305.00 906.14,305.00 907.00,305.00 907.84,305.00 908.69,305.00 909.57,305.00 910.42,305.00 911.27,305.00 912.11,305.00 912.96,305.00 913.81,305.00 914.66,305.00 915.51,305.00 916.35,305.00 917.20,305.00 918.05,305.00 918.91,305.00 919.76,305.00 920.61,305.00 921.46,305.00 922.30,305.00 923.15,305.00 923.99,305.00 924.84,305.00 925.68,305.00 926.54,305.00 927.39,305.00 928.23,305.00 929.08,305.00 929.92,305.00 930.77,305.00 931.62,305.00 932.46,305.00 933.30,305.00 934.15,305.00 935.00,305.00 935.84,305.00 936.69,305.00 937.53,305.00 938.38,305.00 939.23,305.00 940.08,305.00 940.92,305.00 941.76,305.00 942.60,305.00 943.44,305.00 944.30,305.00 945.14,305.00 946.01,305.00 946.86,305.00 947.71,305.00 948.56,305.00 949.40,305.00 950.26,305.00 951.17,305.00 952.04,305.00 952.89,305.00 953.74,305.00 954.60,305.00 955.44,305.00 956.29,305.00 957.14,305.00 957.98,305.00 958.83,305.00 959.68,305.00 960.53,305.00 961.38,305.00 962.24,305.00 963.09,305.00 963.94,305.00 964.79,305.00 965.63,305.00 966.48,305.00 967.33,305.00 968.18,305.00 969.02,305.00 969.88,305.00 970.72,305.00 971.57,305.00 972.42,305.00 973.27,305.00 974.12,305.00 974.98,305.00 975.83,305.00 976.68,305.00 977.52,305.00 978.37,305.00 979.23,305.00 980.06,305.00 980.91,305.00 981.76,305.00 982.60,305.00 983.45,305.00 984.30,305.00 985.14,305.00 985.99,305.00 986.84,305.00 987.69,305.00 988.53,305.00 989.38,305.00 990.23,305.00 991.09,305.00 991.94,305.00 992.76,305.00 993.59,305.00 994.43,305.00 995.29,305.00 996.13,305.00 996.98,305.00 997.84,305.00 998.68,305.00 999.54,305.00 1000.40,305.00 1001.24,305.00 1002.09,305.00 1002.93,305.00 1003.77,305.00 1004.61,305.00 1005.45,305.00 1006.30,305.00 1007.15,305.00 1007.99,305.00 1008.83,305.00 1009.67,305.00 1010.52,305.00 1011.37,305.00 1012.22,305.00 1013.06,305.00 1013.90,305.00 1014.72,305.00 1015.59,305.00 1016.43,305.00 1017.28,305.00 1018.13,305.00 1018.99,305.00 1019.83,305.00 1020.67,305.00 1021.52,305.00 1022.37,305.00 1023.21,305.00 1024.06,305.00 1024.97,305.00 1025.82,305.00 1026.67,305.00 1027.52,305.00 1028.38,305.00 1029.21,305.00 1030.06,305.00 1030.91,305.00 1031.76,305.00 1032.60,305.00 1033.44,305.00 1034.29,305.00 1035.14,305.00 1036.00,305.00 1036.84,305.00 1037.69,305.00 1038.53,305.00 1039.38,305.00 1040.23,305.00 1041.08,305.00 1041.93,305.00 1042.79,305.00 1043.66,305.00 1044.51,305.00 1045.35,305.00 1046.20,305.00 1047.05,305.00 1047.91,305.00 1048.75,305.00 1049.59,305.00 1050.44,305.00 1051.29,305.00 1052.13,305.00 1052.98,305.00 1053.83,305.00 1054.68,305.00 1055.53,305.00 1056.38,305.00 1057.21,305.00 1058.06,305.00 1058.90,305.00 1059.76,305.00 1060.59,305.00 1061.44,305.00 1062.29,305.00 1063.13,305.00 1063.97,305.00 1064.81,305.00 1065.65,305.00 1066.49,305.00 1067.34,305.00 1068.18,305.00 1069.03,305.00 1069.86,305.00 1070.71,305.00 1071.55,305.00 1072.40,305.00 1073.24,305.00 1074.08,305.00 1074.92,305.00 1075.76,305.00 1076.63,305.00 1077.46,305.00 1078.31,305.00 1079.16,305.00 1080.04,305.00 1080.88,305.00 1081.73,305.00 1082.58,305.00 1083.43,305.00 1084.28,305.00 1085.13,305.00 1085.98,305.00 1086.83,305.00 1087.67,305.00 1088.51,305.00 1089.35,305.00 1090.20,305.00 1091.05,305.00 1091.90,305.00 1092.74,305.00 1093.58,305.00 1094.42,305.00 1095.26,305.00 1096.11,305.00 1096.97,305.00 1097.85,305.00 1098.70,305.00 1099.54,305.00 1100.37,305.00 1101.21,305.00 1102.07,305.00 1102.91,305.00 1103.76,305.00 1104.61,305.00 1105.45,305.00 1106.30,305.00 1107.15,305.00 1108.00,305.00 1108.85,305.00 1109.69,305.00 1110.54,305.00 1111.39,305.00 1112.23,305.00 1113.07,305.00 1113.91,305.00 1114.75,305.00 1115.60,305.00 1116.44,305.00 1117.28,305.00 1118.13,305.00 1118.98,305.00 1119.82,305.00 1120.67,305.00 1121.52,305.00 1122.36,305.00 1123.21,305.00 1124.05,305.00 1124.89,305.00 1125.75,305.00 1126.59,305.00 1127.44,305.00 1128.28,305.00 1129.12,305.00 1129.96,305.00 1130.81,305.00 1131.66,305.00 1132.50,305.00 1133.37,305.00 1134.21,305.00 1135.05,305.00 1135.90,305.00 1136.75,305.00 1137.60,305.00 1138.46,305.00 1139.31,305.00 1140.21,305.00 1141.06,305.00 1141.97,305.00 1142.81,305.00 1143.65,305.00 1144.49,305.00 1145.34,305.00 1146.18,305.00 1147.03,305.00 1147.88,305.00 1148.72,305.00 1149.57,305.00 1150.41,305.00 1151.26,305.00 1152.10,305.00 1152.94,305.00 1153.79,305.00 1154.63,305.00 1155.47,305.00 1156.31,305.00 1157.17,305.00 1158.01,305.00 1158.87,305.00 1159.71,305.00 1160.54,305.00 1161.39,305.00 1162.23,305.00 1163.09,305.00 1163.94,305.00 1164.78,305.00 1165.63,305.00 1166.47,305.00 1167.31,305.00 1168.15,305.00 1169.00,305.00 1169.84,305.00 1170.68,305.00 1171.52,305.00 1172.36,305.00 1173.20,305.00 1174.05,305.00 1174.89,305.00 1175.74,305.00 1176.59,305.00 1177.47,305.00 1178.32,305.00 1179.16,305.00 1180.00,305.00"/>
<polyline fill="none" stroke="#9467bd" stroke-opacity="0.50" stroke-width="2" points="70.00,305.00 70.84,305.00 71.69,305.00 72.53,305.00 73.37,305.00 74.22,305.00 75.06,305.00 75.90,305.00 76.82,305.00 77.65,305.00 78.49,305.00 79.33,305.00 80.18,305.00 81.02,305.00 81.86,305.00 83.37,305.00 84.68,305.00 85.53,305.00 86.39,305.00 87.23,305.00 88.07,305.00 88.90,305.00 89.75,305.00 90.59,305.00 91.43,305.00 92.28,305.00 93.14,305.00 93.99,305.00 94.83,305.00 95.71,305.00 96.57,305.00 97.40,305.00 98.27,305.00 99.11,305.00 99.95,305.00 100.82,305.00 101.66,305.00 102.50,305.00 103.36,305.00 104.19,305.00 105.03,305.00 105.86,305.00 106.70,305.00 107.55,305.00 108.39,305.00 109.25,305.00 110.10,305.00 110.93,305.00 111.77,305.00 112.62,305.00 113.46,305.00 114.42,305.00 115.27,305.00 116.11,305.00 116.94,305.00 117.78,305.00 118.61,305.00 119.45,305.00 120.30,305.00 121.13,305.00 121.99,305.00 122.83,305.00 123.66,305.00 124.51,305.00 125.37,305.00 126.21,305.00 127.05,305.00 127.88,305.00 128.72,305.00 129.55,305.00 130.39,305.00 131.23,305.00 132.07,305.00 132.91,305.00 133.75,305.00 134.59,305.00 135.43,305.00 136.27,305.00 137.11,305.00 137.95,305.00 138.81,305.00 139.65,305.00 140.49,305.00 141.34,305.00 142.17,305.00 143.02,305.00 143.86,305.00 144.69,305.00 145.52,305.00 146.37,305.00 147.22,305.00 148.06,305.00 148.91,305.00 149.74,305.00 150.58,305.00 151.42,305.00 152.26,305.00 153.10,305.00 153.94,305.00 154.77,305.00 155.62,305.00 156.46,305.00 157.31,305.00 158.15,305.00 159.00,305.00 159.85,305.00 160.69,305.00 161.53,305.00 162.37,305.00 163.20,305.00 164.05,305.00 164.90,305.00 165.74,305.00 166.58,305.00 167.42,305.00 168.27,305.00 169.11,305.00 169.97,305.00 170.81,305.00 171.65,305.00 172.49,305.00 173.33,305.00 174.17,305.00 175.02,305.00 175.93,305.00 176.77,305.00 177.62,305.00 178.46,305.00 179.30,305.00 180.13,305.00 180.96,305.00 181.80,305.00 182.64,305.00 183.48,305.00 184.32,305.00 185.16,305.00 186.00,305.00 186.83,305.00 187.69,305.00 188.53,305.00 189.37,305.00 190.20,305.00 191.05,305.00 191.88,305.00 192.73,305.00 193.57,305.00 194.42,305.00 195.26,305.00 196.10,305.00 196.93,305.00 197.77,305.00 198.61,305.00 199.45,305.00 200.30,305.00 201.15,305.00 201.99,305.00 202.83,305.00 203.68,305.00 204.52,305.00 205.36,305.00 206.20,305.00 207.04,305.00 207.90,305.00 208.75,305.00 209.59,305.00 210.43,305.00 211.27,305.00 212.10,305.00 212.94,305.00 213.79,305.00 214.62,305.00 215.45,305.00 216.29,305.00 217.14,305.00 217.98,305.00 218.83,305.00 219.67,305.00 220.53,305.00 221.37,305.00 222.21,305.00 223.05,305.00 223.88,305.00 224.80,305.00 225.66,305.00 226.49,305.00 227.33,305.00 228.16,305.00 229.00,305.00 229.84,305.00 230.69,305.00 231.53,305.00 232.37,305.00 233.21,305.00 234.05,305.00 234.91,305.00 235.75,305.00 236.59,305.00 237.43,305.00 238.28,305.00 239.14,305.00 240.00,305.00 240.83,305.00 241.67,305.00 242.52,305.00 243.35,305.00 244.20,305.00 245.04,305.00 245.89,305.00 246.73,305.00 247.57,305.00 248.42,305.00 249.26,305.00 250.10,305.00 250.94,305.00 251.79,305.00 252.64,305.00 253.47,305.00 254.30,305.00 255.14,305.00 255.99,305.00 256.83,305.00 257.66,305.00 258.50,305.00 259.34,305.00 260.18,305.00 261.02,305.00 261.87,305.00 262.71,305.00 263.56,305.00 264.41,305.00 265.25,305.00 266.09,305.00 266.94,305.00 267.78,305.00 268.62,305.00 269.46,305.00 270.32,305.00 271.16,305.00 272.01,305.00 272.85,305.00 273.69,305.00 274.53,305.00 275.37,305.00 276.21,305.00 277.05,305.00 277.90,305.00 278.74,305.00 279.58,305.00 280.43,305.00 281.27,305.00 282.11,305.00 282.96,305.00 283.81,305.00 284.65,305.00 285.49,305.00 286.33,305.00 287.18,305.00 288.03,305.00 288.87,305.00 289.71,305.00 290.64,305.00 291.49,305.00 292.33,305.00 293.18,305.00 294.03,305.00 294.87,305.00 295.71,305.00 296.56,305.00 297.39,305.00 298.26,305.00 299.11,305.00 299.95,305.00 300.79,305.00 301.63,305.00 302.47,305.00 303.32,305.00 304.19,305.00 305.03,305.00 305.87,305.00 306.73,305.00 307.63,305.00 308.48,305.00 309.53,305.00 310.96,305.00 311.82,305.00 312.68,305.00 313.52,305.00 314.34,305.00 315.18,305.00 316.04,305.00 316.88,305.00 317.73,305.00 318.61,305.00 319.48,305.00 320.37,305.00 321.21,305.00 322.06,305.00 322.90,305.00 323.75,305.00 324.61,305.00 325.46,305.00 326.29,305.00 327.13,305.00 328.01,305.00 328.86,305.00 329.69,305.00 330.53,305.00 331.39,305.00 332.26,305.00 333.11,305.00 333.95,305.00 334.82,305.00 335.63,305.00 336.46,305.00 337.32,305.00 338.16,305.00 339.01,305.00 339.88,305.00 340.73,305.00 341.57,305.00 342.42,305.00 343.27,305.00 344.11,305.00 344.95,305.00 345.79,305.00 346.63,305.00 347.48,305.00 348.31,305.00 349.32,305.00 350.31,305.00 351.31,305.00 352.28,305.00 353.25,305.00 354.22,305.00 355.21,305.00 356.19,305.00 357.04,305.00 357.87,305.00 358.71,305.00 359.55,305.00 360.39,305.00 361.23,305.00 362.07,305.00 362.90,305.00 363.74,305.00 364.58,305.00 365.42,305.00 366.26,305.00 367.10,305.00 367.94,305.00 368.78,305.00 369.61,305.00 370.46,305.00 371.29,305.00 372.13,305.00 372.98,305.00 373.81,305.00 374.65,305.00 375.48,305.00 376.32,305.00 377.17,305.00 378.01,305.00 378.85,305.00 379.69,305.00 380.53,305.00 381.37,305.00 382.21,305.00 383.05,305.00 383.88,305.00 384.72,305.00 385.55,305.00 386.38,305.00 387.22,305.00 388.06,305.00 388.89,305.00 389.73,305.00 390.57,305.00 391.41,305.00 392.24,305.00 393.07,305.00 393.90,305.00 394.77,305.00 395.67,305.00 396.52,305.00 397.36,305.00 398.20,305.00 399.03,305.00 399.87,305.00 400.70,305.00 401.54,305.00 402.53,305.00 403.52,305.00 404.50,305.00 405.48,305.00 406.47,305.00 407.45,305.00 408.46,305.00 409.48,305.00 410.40,305.00 411.30,305.00 412.14,305.00 412.99,305.00 413.83,305.00 414.67,305.00 415.50,305.00 416.35,305.00 417.18,305.00 418.02,305.00 418.86,305.00 419.70,305.00 420.54,305.00 421.38,305.00 422.23,305.00 423.07,305.00 423.91,305.00 424.64,305.00 425.51,305.00 426.35,305.00 427.21,305.00 428.05,305.00 428.89,305.00 429.74,305.00 430.58,305.00 431.43,305.00 432.28,305.00 433.12,305.00 433.98,305.00 434.82,305.00 435.65,305.00 436.49,305.00 437.32,305.00 438.16,305.00 439.00,305.00 439.85,305.00 440.68,305.00 441.53,305.00 442.37,305.00 443.20,305.00 444.05,305.00 444.89,305.00 445.73,305.00 446.58,305.00 447.42,305.00 448.26,305.00 449.11,305.00 449.95,305.00 450.82,305.00 451.65,305.00 452.49,305.00 453.33,305.00 454.16,305.00 455.00,305.00 455.85,305.00 456.69,305.00 457.52,305.00 458.36,305.00 459.20,305.00 460.04,305.00 460.88,305.00 461.73,305.00 462.57,305.00 463.58,305.00 464.45,305.00 465.31,305.00 466.16,305.00 467.00,305.00 467.85,305.00 468.69,305.00 469.52,305.00 470.37,305.00 471.22,305.00 472.06,305.00 472.90,305.00 473.75,305.00 474.59,305.00 475.46,305.00 476.31,305.00 477.16,305.00 478.00,305.00 478.84,305.00 479.68,305.00 480.52,305.00 481.36,305.00 482.24,305.00 483.08,305.00 483.93,305.00 484.77,305.00 485.61,305.00 486.46,305.00 487.30,305.00 488.14,305.00 488.98,305.00 489.83,305.00 490.67,305.00 491.52,305.00 492.35,305.00 493.20,305.00 494.04,305.00 494.89,305.00 495.74,305.00 496.57,305.00 497.41,305.00 498.25,305.00 499.11,305.00 499.95,305.00 500.97,305.00 501.83,305.00 502.67,305.00 503.52,305.00 504.35,305.00 505.20,305.00 506.04,305.00 506.89,305.00 507.74,305.00 508.58,305.00 509.42,305.00 510.26,305.00 511.10,305.00 511.94,305.00 512.78,305.00 513.63,305.00 514.47,305.00 515.30,305.00 516.14,305.00 516.98,305.00 517.84,305.00 518.67,305.00 519.51,305.00 520.36,305.00 521.21,305.00 522.05,305.00 522.89,305.00 523.74,305.00 524.60,305.00 525.44,305.00 526.28,305.00 527.13,305.00 527.97,305.00 528.81,305.00 529.65,305.00 530.50,305.00 531.36,305.00 532.20,305.00 533.04,305.00 533.87,305.00 534.71,305.00 535.56,305.00 536.40,305.00 537.24,305.00 538.09,305.00 538.94,305.00 539.79,305.00 540.61,305.00 541.47,305.00 542.30,305.00 543.15,305.00 543.98,305.00 544.83,305.00 545.67,305.00 546.52,305.00 547.36,305.00 548.20,305.00 549.05,305.00 549.90,305.00 550.75,305.00 551.59,305.00 552.44,305.00 553.39,305.00 554.31,305.00 555.21,305.00 556.06,305.00 556.94,305.00 557.79,305.00 558.63,305.00 559.46,305.00 560.25,305.00 561.13,305.00 561.97,305.00 562.83,305.00 563.66,305.00 564.50,305.00 565.34,305.00 566.19,305.00 567.02,305.00 567.87,305.00 568.71,305.00 569.55,305.00 570.40,305.00 571.25,305.00 572.10,305.00 572.95,305.00 573.79,305.00 574.64,305.00 575.48,305.00 576.34,305.00 577.19,305.00 578.02,305.00 578.86,305.00 579.71,305.00 580.55,305.00 581.39,305.00 582.23,305.00 583.07,305.00 583.93,305.00 584.76,305.00 585.60,305.00 586.45,305.00 587.29,305.00 588.14,305.00 588.99,305.00 589.83,305.00 590.67,305.00 591.52,305.00 592.36,305.00 593.21,305.00 594.06,305.00 594.91,305.00 595.75,305.00 596.60,305.00 597.44,305.00 598.29,305.00 599.16,305.00 600.00,305.00 600.85,305.00 601.69,305.00 602.54,305.00 603.38,305.00 604.22,305.00 605.07,305.00 605.92,305.00 606.76,305.00 607.61,305.00 608.45,305.00 609.30,305.00 610.15,305.00 610.99,305.00 611.85,305.00 612.69,305.00 613.54,305.00 614.40,305.00 615.24,305.00 616.08,305.00 616.93,305.00 617.77,305.00 618.63,305.00 619.48,305.00 620.34,305.00 621.18,305.00 622.02,305.00 622.86,305.00 623.70,305.00 624.55,305.00 625.40,305.00 626.24,305.00 627.08,305.00 627.93,305.00 628.77,305.00 629.62,305.00 630.47,305.00 631.31,305.00 632.16,305.00 633.01,305.00 633.86,305.00 634.70,305.00 635.54,305.00 636.38,305.00 637.22,305.00 638.06,305.00 638.91,305.00 639.76,305.00 640.61,305.00 641.46,305.00 642.30,305.00 643.15,305.00 644.00,305.00 644.84,305.00 645.69,305.00 646.55,305.00 647.39,305.00 648.23,305.00 649.08,305.00 649.94,305.00 650.78,305.00 651.63,305.00 652.49,305.00 653.34,305.00 654.19,305.00 655.04,305.00 655.88,305.00 656.73,305.00 657.58,305.00 658.43,305.00 659.28,305.00 660.12,305.00 660.97,305.00 661.80,305.00 662.67,305.00 663.51,305.00 664.37,305.00 665.21,305.00 666.05,305.00 666.89,305.00 667.73,305.00 668.57,305.00 669.42,305.00 670.26,305.00 671.11,305.00 671.95,305.00 672.80,305.00 673.64,305.00 674.51,305.00 675.36,305.00 676.20,305.00 677.05,305.00 677.88,305.00 678.73,305.00 679.57,305.00 680.43,305.00 681.27,305.00 682.11,305.00 682.96,305.00 683.81,305.00 684.65,305.00 685.50,305.00 686.35,305.00 687.22,305.00 688.08,305.00 688.93,305.00 689.78,305.00 690.62,305.00 691.48,305.00 692.31,305.00 693.16,305.00 693.99,305.00 694.85,305.00 695.69,305.00 696.55,305.00 697.39,305.00 698.25,305.00 699.13,305.00 699.97,305.00 700.82,305.00 701.66,305.00 702.51,305.00 703.36,305.00 704.21,305.00 705.06,305.00 705.91,305.00 706.77,305.00 707.61,305.00 708.46,305.00 709.31,305.00 710.16,305.00 711.00,305.00 711.85,305.00 712.69,305.00 713.55,305.00 714.40,305.00 715.24,305.00 716.09,305.00 716.94,305.00 717.79,305.00 718.64,305.00 719.49,305.00 720.34,305.00 721.21,305.00 722.06,305.00 722.91,305.00 723.76,305.00 724.62,305.00 725.49,305.00 726.35,305.00 727.21,305.00 728.08,305.00 728.94,305.00 729.78,305.00 730.63,305.00 731.48,305.00 732.33,305.00 733.18,305.00 734.04,305.00 734.89,305.00 735.74,305.00 736.58,305.00 737.43,305.00 738.27,305.00 739.12,305.00 739.96,305.00 740.81,305.00 741.65,305.00 742.49,305.00 743.34,305.00 744.17,305.00 745.02,305.00 745.87,305.00 746.72,305.00 747.56,305.00 748.42,305.00 749.27,305.00 750.11,305.00 750.96,305.00 751.81,305.00 752.65,305.00 753.49,305.00 754.34,305.00 755.19,305.00 756.04,305.00 756.87,305.00 757.71,305.00 758.55,305.00 759.40,305.00 760.25,305.00 761.09,305.00 761.94,305.00 762.79,305.00 763.63,305.00 764.47,305.00 765.32,305.00 766.17,305.00 767.00,305.00 767.83,305.00 768.66,305.00 769.51,305.00 770.36,305.00 771.22,305.00 772.06,305.00 772.91,305.00 773.76,305.00 774.62,305.00 775.47,305.00 776.31,305.00 777.16,305.00 778.01,305.00 778.85,305.00 779.71,305.00 780.55,305.00 781.41,305.00 782.26,305.00 783.11,305.00 783.95,305.00 784.79,305.00 785.63,305.00 786.48,305.00 787.32,305.00 788.15,305.00 789.00,305.00 789.85,305.00 790.70,305.00 791.54,305.00 792.38,305.00 793.23,305.00 794.07,305.00 794.92,305.00 795.77,305.00 796.62,305.00 797.46,305.00 798.31,305.00 799.16,305.00 800.00,305.00 800.85,305.00 801.70,305.00 802.54,305.00 803.38,305.00 804.23,305.00 805.08,305.00 805.93,305.00 806.77,305.00 807.61,305.00 808.48,305.00 809.33,305.00 810.19,305.00 811.05,305.00 811.90,305.00 812.74,305.00 813.59,305.00 814.44,305.00 815.29,305.00 816.13,305.00 816.98,305.00 817.85,305.00 818.70,305.00 819.54,305.00 820.39,305.00 821.23,305.00 822.09,305.00 822.93,305.00 823.77,305.00 824.62,305.00 825.46,305.00 826.31,305.00 827.15,305.00 827.99,305.00 828.85,305.00 829.68,305.00 830.53,305.00 831.37,305.00 832.21,305.00 833.06,305.00 833.92,305.00 834.76,305.00 835.60,305.00 836.45,305.00 837.30,305.00 838.13,305.00 838.99,305.00 839.83,305.00 840.69,305.00 841.53,305.00 842.37,305.00 843.21,305.00 844.06,305.00 844.91,305.00 845.75,305.00 846.61,305.00 847.47,305.00 848.33,305.00 849.20,305.00 850.06,305.00 850.92,305.00 851.79,305.00 852.65,305.00 853.53,305.00 854.39,305.00 855.26,305.00 856.10,305.00 856.94,305.00 857.80,305.00 858.65,305.00 859.50,305.00 860.35,305.00 861.19,305.00 862.05,305.00 862.89,305.00 863.74,305.00 864.58,305.00 865.42,305.00 866.27,305.00 867.11,305.00 867.96,305.00 868.81,305.00 869.65,305.00 870.50,305.00 871.36,305.00 872.21,305.00 873.05,305.00 873.89,305.00 874.74,305.00 875.59,305.00 876.44,305.00 877.28,305.00 878.13,305.00 878.97,305.00 879.82,305.00 880.67,305.00 881.51,305.00 882.36,305.00 883.20,305.00 884.05,305.00 884.96,305.00 885.83,305.00 886.67,305.00 887.52,305.00 888.36,305.00 889.22,305.00 890.08,305.00 890.93,305.00 891.78,305.00 892.61,305.00 893.44,305.00 894.29,305.00 895.13,305.00 895.98,305.00 896.83,305.00 897.67,305.00 898.53,305.00 899.38,305.00 900.23,305.00 901.07,305.00 901.92,305.00 902.76,305.00 903.61,305.00 904.46,305.00 905.30,305.00 906.14,305.00 907.00,305.00 907.84,305.00 908.69,305.00 909.57,305.00 910.42,305.00 911.27,305.00 912.11,305.00 912.96,305.00 913.81,305.00 914.66,305.00 915.51,305.00 916.35,305.00 917.20,305.00 918.05,305.00 918.91,305.00 919.76,305.00 920.61,305.00 921.46,305.00 922.30,305.00 923.15,305.00 923.99,305.00 924.84,305.00 925.68,305.00 926.54,305.00 927.39,305.00 928.23,305.00 929.08,305.00 929.92,305.00 930.77,305.00 931.62,305.00 932.46,305.00 933.30,305.00 934.15,305.00 935.00,305.00 935.84,305.00 936.69,305.00 937.53,305.00 938.38,305.00 939.23,305.00 940.08,305.00 940.92,305.00 941.76,305.00 942.60,305.00 943.44,305.00 944.30,305.00 945.14,305.00 946.01,305.00 946.86,305.00 947.71,305.00 948.56,305.00 949.40,305.00 950.26,305.00 951.17,305.00 952.04,305.00 952.89,305.00 953.74,305.00 954.60,305.00 955.44,305.00 956.29,305.00 957.14,305.00 957.98,305.00 958.83,305.00 959.68,305.00 960.53,305.00 961.38,305.00 962.24,305.00 963.09,305.00 963.94,305.00 964.79,305.00 965.63,305.00 966.48,305.00 967.33,305.00 968.18,305.00 969.02,305.00 969.88,305.00 970.72,305.00 971.57,305.00 972.42,305.00 973.27,305.00 974.12,305.00 974.98,305.00 975.83,305.00 976.68,305.00 977.52,305.00 978.37,305.00 979.23,305.00 980.06,305.00 980.91,305.00 981.76,305.00 982.60,305.00 983.45,305.00 984.30,305.00 985.14,305.00 985.99,305.00 986.84,305.00 987.69,305.00 988.53,305.00 989.38,305.00 990.23,305.00 991.09,305.00 991.94,305.00 992.76,305.00 993.59,305.00 994.43,305.00 995.29,305.00 996.13,305.00 996.98,305.00 997.84,305.00 998.68,305.00 999.54,305.00 1000.40,305.00 1001.24,305.00 1002.09,305.00 1002.93,305.00 1003.77,305.00 1004.61,305.00 1005.45,305.00 1006.30,305.00 1007.15,305.00 1007.99,305.00 1008.83,305.00 1009.67,305.00 1010.52,305.00 1011.37,305.00 1012.22,305.00 1013.06,305.00 1013.90,305.00 1014.72,305.00 1015.59,305.00 1016.43,305.00 1017.28,305.00 1018.13,305.00 1018.99,305.00 1019.83,305.00 1020.67,305.00 1021.52,305.00 1022.37,305.00 1023.21,305.00 1024.06,305.00 1024.97,305.00 1025.82,305.00 1026.67,305.00 1027.52,305.00 1028.38,305.00 1029.21,305.00 1030.06,305.00 1030.91,305.00 1031.76,305.00 1032.60,305.00 1033.44,305.00 1034.29,305.00 1035.14,305.00 1036.00,305.00 1036.84,305.00 1037.69,305.00 1038.53,305.00 1039.38,305.00 1040.23,305.00 1041.08,305.00 1041.93,305.00 1042.79,305.00 1043.66,305.00 1044.51,305.00 1045.35,305.00 1046.20,305.00 1047.05,305.00 1047.91,305.00 1048.75,305.00 1049.59,305.00 1050.44,305.00 1051.29,305.00 1052.13,305.00 1052.98,305.00 1053.83,305.00 1054.68,305.00 1055.53,305.00 1056.38,305.00 1057.21,305.00 1058.06,305.00 1058.90,305.00 1059.76,305.00 1060.59,305.00 1061.44,305.00 1062.29,305.00 1063.13,305.00 1063.97,305.00 1064.81,305.00 1065.65,305.00 1066.49,305.00 1067.34,305.00 1068.18,305.00 1069.03,305.00 1069.86,305.00 1070.71,305.00 1071.55,305.00 1072.40,305.00 1073.24,305.00 1074.08,305.00 1074.92,305.00 1075.76,305.00 1076.63,305.00 1077.46,305.00 1078.31,305.00 1079.16,305.00 1080.04,305.00 1080.88,305.00 1081.73,305.00 1082.58,305.00 1083.43,305.00 1084.28,305.00 1085.13,305.00 1085.98,305.00 1086.83,305.00 1087.67,305.00 1088.51,305.00 1089.35,305.00 1090.20,305.00 1091.05,305.00 1091.90,305.00 1092.74,305.00 1093.58,305.00 1094.42,305.00 1095.26,305.00 1096.11,305.00 1096.97,305.00 1097.85,305.00 1098.70,305.00 1099.54,305.00 1100.37,305.00 1101.21,305.00 1102.07,305.00 1102.91,305.00 1103.76,305.00 1104.61,305.00 1105.45,305.00 1106.30,305.00 1107.15,305.00 1108.00,305.00 1108.85,305.00 1109.69,305.00 1110.54,305.00 1111.39,305.00 1112.23,305.00 1113.07,305.00 1113.91,305.00 1114.75,305.00 1115.60,305.00 1116.44,305.00 1117.28,305.00 1118.13,305.00 1118.98,305.00 1119.82,305.00 1120.67,305.00 1121.52,305.00 1122.36,305.00 1123.21,305.00 1124.05,305.00 1124.89,305.00 1125.75,305.00 1126.59,305.00 1127.44,305.00 1128.28,305.00 1129.12,305.00 1129.96,305.00 1130.81,305.00 1131.66,305.00 1132.50,305.00 1133.37,305.00 1134.21,305.00 1135.05,305.00 1135.90,305.00 1136.75,305.00 1137.60,305.00 1138.46,305.00 1139.31,305.00 1140.21,305.00 1141.06,305.00 1141.97,305.00 1142.81,305.00 1143.65,305.00 1144.49,305.00 1145.34,305.00 1146.18,305.00 1147.03,305.00 1147.88,305.00 1148.72,305.00 1149.57,305.00 1150.41,305.00 1151.26,305.00 1152.10,305.00 1152.94,305.00 1153.79,305.00 1154.63,305.00 1155.47,305.00 1156.31,305.00 1157.17,305.00 1158.01,305.00 1158.87,305.00 1159.71,305.00 1160.54,305.00 1161.39,305.00 1162.23,305.00 1163.09,305.00 1163.94,305.00 1164.78,305.00 1165.63,305.00 1166.47,305.00 1167.31,305.00 1168.15,305.00 1169.00,305.00 1169.84,305.00 1170.68,305.00 1171.52,305.00 1172.36,305.00 1173.20,305.00 1174.05,305.00 1174.89,305.00 1175.74,305.00 1176.59,305.00 1177.47,305.00 1178.32,305.00 1179.16,305.00 1180.00,305.00"/>
<rect x="70" y="332" width="12" height="12" fill="#9467bd" fill-opacity="0.95"/>
<text x="88" y="342" font-size="11" fill="#333" font-family="Arial, Helvetica, sans-serif">nsc1.utdallas.edu</text>
<rect x="350" y="332" width="12" height="12" fill="#9467bd" fill-opacity="0.80"/>
<text x="368" y="342" font-size="11" fill="#333" font-family="Arial, Helvetica, sans-serif">nsc2.utdallas.edu</text>
<rect x="630" y="332" width="12" height="12" fill="#9467bd" fill-opacity="0.65"/>
<text x="648" y="342" font-size="11" fill="#333" font-family="Arial, Helvetica, sans-serif">nsc3.utdallas.edu</text>
<rect x="910" y="332" width="12" height="12" fill="#9467bd" fill-opacity="0.50"/>
<text x="928" y="342" font-size="11" fill="#333" font-family="Arial, Helvetica, sans-serif">nsc4.utdallas.edu</text>
</svg>