<?xml version="1.0" encoding="UTF-8"?>
<svg xmlns="http://www.w3.org/2000/svg" width="1200" height="360" viewBox="0 0 1200 360" role="img" aria-label="GPU Utilization (%)">
<rect width="100%" height="100%" fill="#ffffff"/>
<text x="600.0" y="22" text-anchor="middle" font-size="16" font-family="Arial, Helvetica, sans-serif" font-weight="bold">GPU Utilization (%)</text>
<line x1="70" y1="35.00" x2="1180" y2="35.00" stroke="#e3e3e3" stroke-width="1"/>
<text x="62" y="39.00" text-anchor="end" font-size="11" fill="#444" font-family="Arial, Helvetica, sans-serif">100</text>
<line x1="70" y1="89.00" x2="1180" y2="89.00" stroke="#e3e3e3" stroke-width="1"/>
<text x="62" y="93.00" text-anchor="end" font-size="11" fill="#444" font-family="Arial, Helvetica, sans-serif">80</text>
<line x1="70" y1="143.00" x2="1180" y2="143.00" stroke="#e3e3e3" stroke-width="1"/>
<text x="62" y="147.00" text-anchor="end" font-size="11" fill="#444" font-family="Arial, Helvetica, sans-serif">60</text>
<line x1="70" y1="197.00" x2="1180" y2="197.00" stroke="#e3e3e3" stroke-width="1"/>
<text x="62" y="201.00" text-anchor="end" font-size="11" fill="#444" font-family="Arial, Helvetica, sans-serif">40</text>
<line x1="70" y1="251.00" x2="1180" y2="251.00" stroke="#e3e3e3" stroke-width="1"/>
<text x="62" y="255.00" text-anchor="end" font-size="11" fill="#444" font-family="Arial, Helvetica, sans-serif">20</text>
<line x1="70" y1="305.00" x2="1180" y2="305.00" stroke="#e3e3e3" stroke-width="1"/>
<text x="62" y="309.00" text-anchor="end" font-size="11" fill="#444" font-family="Arial, Helvetica, sans-serif">0</text>
<line x1="70" y1="35" x2="70" y2="305" stroke="#999"/>
<line x1="70" y1="305" x2="1180" y2="305" stroke="#999"/>
<text x="70.00" y="323" text-anchor="middle" font-size="10" fill="#444" font-family="Arial, Helvetica, sans-serif">2026-02-11 16:38</text>
<text x="347.50" y="323" text-anchor="middle" font-size="10" fill="#444" font-family="Arial, Helvetica, sans-serif">2026-02-12 16:11</text>
<text x="625.00" y="323" text-anchor="middle" font-size="10" fill="#444" font-family="Arial, Helvetica, sans-serif">2026-02-13 15:44</text>
<text x="902.50" y="323" text-anchor="middle" font-size="10" fill="#444" font-family="Arial, Helvetica, sans-serif">2026-02-14 15:17</text>
<text x="1180.00" y="323" text-anchor="middle" font-size="10" fill="#444" font-family="Arial, Helvetica, sans-serif">2026-02-15 14:50</text>
<polyline fill="none" stroke="#9467bd" stroke-opacity="0.95" stroke-width="2" points="71.06,305.00 72.12,305.00 73.17,305.00 74.23,305.00 75.30,305.00 76.35,305.00 77.41,305.00 78.55,305.00 79.60,305.00 80.65,305.00 81.70,305.00 82.78,305.00 83.83,305.00 84.88,305.00 86.78,305.00 88.42,305.00 89.49,305.00 90.57,305.00 91.62,305.00 92.68,305.00 93.71,305.00 94.78,305.00 95.83,305.00 96.90,305.00 97.96,305.00 99.04,305.00 100.10,305.00 101.16,305.00 102.27,305.00 103.33,305.00 104.39,305.00 105.47,305.00 106.53,305.00 107.59,305.00 108.68,305.00 109.72,305.00 110.78,305.00 111.86,305.00 112.90,305.00 113.96,305.00 115.00,305.00 116.06,305.00 117.12,305.00 118.17,305.00 119.25,305.00 120.31,305.00 121.36,305.00 122.41,305.00 123.48,305.00 124.54,305.00 125.74,305.00 126.80,305.00 127.85,305.00 128.90,305.00 129.95,305.00 131.00,305.00 132.05,305.00 133.11,305.00 134.16,305.00 135.24,305.00 136.30,305.00 137.34,305.00 138.40,305.00 139.47,305.00 140.53,305.00 141.59,305.00 142.63,305.00 143.68,305.00 144.73,305.00 145.78,305.00 146.83,305.00 147.89,305.00 148.93,305.00 149.99,305.00 151.05,305.00 152.10,305.00 153.16,305.00 154.21,305.00 155.26,305.00 156.34,305.00 157.40,305.00 158.45,305.00 159.51,305.00 160.56,305.00 161.62,305.00 162.68,305.00 163.72,305.00 164.77,305.00 165.83,305.00 166.90,305.00 167.95,305.00 169.02,305.00 170.06,305.00 171.12,305.00 172.17,305.00 173.22,305.00 174.27,305.00 175.33,305.00 176.37,305.00 177.44,305.00 178.50,305.00 179.55,305.00 180.61,305.00 181.68,305.00 182.74,305.00 183.80,305.00 184.85,305.00 185.90,305.00 186.95,305.00 188.02,305.00 189.08,305.00 190.13,305.00 191.18,305.00 192.24,305.00 193.30,305.00 194.37,305.00 195.44,305.00 196.49,305.00 197.55,305.00 198.61,305.00 199.66,305.00 200.71,305.00 201.78,305.00 202.92,305.00 203.97,305.00 205.04,305.00 206.10,305.00 207.15,305.00 208.19,305.00 209.23,305.00 210.28,305.00 211.34,305.00 212.40,305.00 213.45,305.00 214.50,305.00 215.55,305.00 216.60,305.00 217.68,305.00 218.73,305.00 219.78,305.00 220.83,305.00 221.89,305.00 222.94,305.00 224.00,305.00 225.06,305.00 226.12,305.00 227.18,305.00 228.23,305.00 229.28,305.00 230.33,305.00 231.38,305.00 232.44,305.00 233.50,305.00 234.56,305.00 235.62,305.00 236.67,305.00 237.74,305.00 238.80,305.00 239.85,305.00 240.91,305.00 241.96,305.00 243.04,305.00 244.11,305.00 245.16,305.00 246.22,305.00 247.26,305.00 248.31,305.00 249.37,305.00 250.42,305.00 251.47,305.00 252.52,305.00 253.57,305.00 254.64,305.00 255.69,305.00 256.75,305.00 257.81,305.00 258.89,305.00 259.94,305.00 260.99,305.00 262.04,305.00 263.09,305.00 264.24,305.00 265.32,305.00 266.37,305.00 267.42,305.00 268.46,305.00 269.52,305.00 270.57,305.00 271.63,305.00 272.69,305.00 273.75,305.00 274.80,305.00 275.85,305.00 276.93,305.00 277.99,305.00 279.03,305.00 280.09,305.00 281.16,305.00 282.23,305.00 283.31,305.00 284.36,305.00 285.42,305.00 286.47,305.00 287.52,305.00 288.58,305.00 289.64,305.00 290.71,305.00 291.76,305.00 292.81,305.00 293.88,305.00 294.93,305.00 295.99,305.00 297.04,305.00 298.12,305.00 299.17,305.00 300.22,305.00 301.27,305.00 302.32,305.00 303.38,305.00 304.43,305.00 305.48,305.00 306.54,305.00 307.58,305.00 308.63,305.00 309.70,305.00 310.75,305.00 311.82,305.00 312.89,305.00 313.94,305.00 315.01,305.00 316.06,305.00 317.12,305.00 318.17,305.00 319.23,305.00 320.29,305.00 321.37,305.00 322.42,305.00 323.48,305.00 324.54,305.00 325.59,305.00 326.65,305.00 327.70,305.00 328.75,305.00 329.81,305.00 330.87,305.00 331.93,305.00 332.98,305.00 334.05,305.00 335.10,305.00 336.16,305.00 337.22,305.00 338.29,305.00 339.34,305.00 340.39,305.00 341.46,305.00 342.52,305.00 343.58,305.00 344.64,305.00 345.69,305.00 346.86,305.00 347.93,305.00 348.99,305.00 350.04,305.00 351.11,305.00 352.17,305.00 353.23,305.00 354.29,305.00 355.33,305.00 356.42,80.90 357.49,72.80 358.54,305.00 359.60,305.00 360.65,305.00 361.71,305.00 362.77,305.00 363.86,305.00 364.92,305.00 365.97,305.00 367.04,305.00 368.18,305.00 369.24,305.00 370.57,305.00 372.36,305.00 373.44,305.00 374.52,305.00 375.57,305.00 376.60,305.00 377.66,305.00 378.73,305.00 379.79,305.00 380.85,305.00 381.95,305.00 383.05,305.00 384.17,305.00 385.23,305.00 386.28,305.00 387.34,305.00 388.41,305.00 389.48,305.00 390.55,305.00 391.60,305.00 392.65,305.00 393.75,305.00 394.81,305.00 395.86,305.00 396.92,305.00 397.99,305.00 399.09,305.00 400.15,305.00 401.21,305.00 402.30,305.00 403.31,305.00 404.36,305.00 405.44,305.00 406.49,305.00 407.56,305.00 408.65,305.00 409.71,305.00 410.76,305.00 411.83,305.00 412.90,305.00 413.96,305.00 415.01,305.00 416.06,305.00 417.12,305.00 418.18,305.00 419.23,305.00 420.49,305.00 421.73,305.00 422.98,305.00 424.21,305.00 425.42,305.00 426.64,305.00 427.89,305.00 429.12,305.00 430.18,305.00 431.22,305.00 432.28,305.00 433.33,305.00 434.39,305.00 435.43,305.00 436.48,305.00 437.54,305.00 438.59,305.00 439.65,305.00 440.70,305.00 441.75,305.00 442.80,305.00 443.85,305.00 444.91,305.00 445.96,305.00 447.01,305.00 448.06,305.00 449.12,305.00 450.18,305.00 451.23,305.00 452.27,305.00 453.32,305.00 454.38,305.00 455.43,305.00 456.49,305.00 457.54,305.00 458.60,305.00 459.66,305.00 460.71,305.00 461.76,305.00 462.82,305.00 463.86,305.00 464.92,305.00 465.96,305.00 467.00,305.00 468.05,305.00 469.10,305.00 470.15,305.00 471.20,305.00 472.25,305.00 473.30,305.00 474.35,305.00 475.39,305.00 476.43,305.00 477.52,305.00 478.66,305.00 479.72,305.00 480.77,305.00 481.82,305.00 482.87,305.00 483.92,305.00 484.97,305.00 486.02,305.00 487.26,305.00 488.50,305.00 489.73,305.00 490.96,305.00 492.21,305.00 493.44,305.00 494.70,305.00 495.98,305.00 497.13,305.00 498.26,305.00 499.32,305.00 500.39,305.00 501.44,305.00 502.49,305.00 503.54,305.00 504.60,305.00 505.65,305.00 506.70,305.00 507.75,305.00 508.81,305.00 509.86,305.00 510.91,305.00 511.98,305.00 513.03,305.00 514.08,305.00 515.01,305.00 516.10,305.00 517.15,305.00 518.23,305.00 519.29,305.00 520.34,305.00 521.40,305.00 522.46,305.00 523.52,305.00 524.59,305.00 525.65,305.00 526.73,305.00 527.77,305.00 528.82,305.00 529.88,305.00 530.92,305.00 531.97,305.00 533.02,305.00 534.08,305.00 535.14,305.00 536.19,305.00 537.25,305.00 538.29,305.00 539.36,305.00 540.41,305.00 541.47,305.00 542.54,305.00 543.59,305.00 544.64,305.00 545.71,305.00 546.76,305.00 547.85,305.00 548.90,305.00 549.95,305.00 551.00,305.00 552.05,305.00 553.10,305.00 554.16,305.00 555.21,305.00 556.26,305.00 557.32,305.00 558.37,305.00 559.42,305.00 560.48,305.00 561.54,305.00 562.60,305.00 563.87,305.00 564.95,305.00 566.04,305.00 567.10,305.00 568.16,305.00 569.23,305.00 570.27,305.00 571.32,305.00 572.39,305.00 573.45,305.00 574.50,305.00 575.57,305.00 576.63,305.00 577.68,305.00 578.77,305.00 579.85,305.00 580.90,305.00 581.96,305.00 583.02,305.00 584.07,305.00 585.12,305.00 586.18,305.00 587.28,305.00 588.34,305.00 589.40,305.00 590.46,305.00 591.51,305.00 592.57,305.00 593.62,305.00 594.68,305.00 595.74,305.00 596.80,305.00 597.86,305.00 598.92,305.00 599.97,305.00 601.03,305.00 602.08,305.00 603.16,305.00 604.22,305.00 605.27,305.00 606.32,305.00 607.37,305.00 608.45,305.00 609.51,305.00 610.78,305.00 611.86,305.00 612.92,305.00 613.98,305.00 615.03,305.00 616.09,305.00 617.15,305.00 618.21,305.00 619.28,305.00 620.33,305.00 621.39,305.00 622.44,305.00 623.50,305.00 624.55,305.00 625.60,305.00 626.67,305.00 627.72,305.00 628.77,305.00 629.82,305.00 630.88,305.00 631.95,305.00 633.00,305.00 634.05,305.00 635.12,305.00 636.18,305.00 637.24,305.00 638.29,305.00 639.35,305.00 640.44,305.00 641.48,305.00 642.54,305.00 643.61,305.00 644.66,305.00 645.72,305.00 646.78,305.00 647.84,305.00 648.92,305.00 649.97,305.00 651.03,305.00 652.07,305.00 653.13,305.00 654.18,305.00 655.24,305.00 656.29,305.00 657.36,305.00 658.43,305.00 659.49,305.00 660.53,305.00 661.60,305.00 662.65,305.00 663.71,305.00 664.76,305.00 665.82,305.00 666.87,305.00 667.94,305.00 669.00,305.00 670.05,305.00 671.12,305.00 672.18,305.00 673.24,305.00 674.30,305.00 675.37,305.00 676.56,305.00 677.71,305.00 678.85,305.00 679.91,305.00 681.02,305.00 682.08,305.00 683.14,305.00 684.18,305.00 685.17,305.00 686.27,305.00 687.33,305.00 688.40,305.00 689.44,305.00 690.50,305.00 691.55,305.00 692.62,305.00 693.67,305.00 694.73,305.00 695.78,305.00 696.84,305.00 697.90,305.00 698.97,305.00 700.04,305.00 701.10,305.00 702.16,305.00 703.22,305.00 704.28,305.00 705.36,305.00 706.42,305.00 707.47,305.00 708.52,305.00 709.58,305.00 710.64,305.00 711.69,305.00 712.75,305.00 713.81,305.00 714.88,305.00 715.93,305.00 716.98,305.00 718.04,305.00 719.10,305.00 720.17,305.00 721.23,305.00 722.28,305.00 723.34,305.00 724.40,305.00 725.47,305.00 726.53,305.00 727.60,305.00 728.66,305.00 729.71,305.00 730.78,305.00 731.83,305.00 732.90,305.00 733.99,305.00 735.05,305.00 736.12,305.00 737.17,305.00 738.23,305.00 739.29,305.00 740.35,305.00 741.41,305.00 742.47,305.00 743.53,305.00 744.59,305.00 745.66,305.00 746.71,305.00 747.78,305.00 748.84,305.00 749.91,305.00 750.97,305.00 752.04,305.00 753.11,305.00 754.17,305.00 755.22,305.00 756.29,305.00 757.35,305.00 758.43,305.00 759.49,305.00 760.56,305.00 761.62,305.00 762.67,305.00 763.73,305.00 764.79,305.00 765.85,305.00 766.92,305.00 767.97,305.00 769.03,305.00 770.09,305.00 771.15,305.00 772.22,305.00 773.28,305.00 774.33,305.00 775.41,305.00 776.47,305.00 777.53,305.00 778.59,305.00 779.64,305.00 780.70,305.00 781.75,305.00 782.81,305.00 783.87,305.00 784.94,305.00 786.00,305.00 787.07,305.00 788.12,305.00 789.19,305.00 790.26,305.00 791.32,305.00 792.38,305.00 793.45,305.00 794.51,305.00 795.57,305.00 796.63,305.00 797.71,305.00 798.77,305.00 799.83,305.00 800.91,305.00 801.98,305.00 803.05,305.00 804.11,305.00 805.16,305.00 806.23,305.00 807.30,305.00 808.37,305.00 809.43,305.00 810.49,305.00 811.55,305.00 812.60,305.00 813.69,305.00 814.74,305.00 815.81,305.00 816.87,305.00 817.93,305.00 818.98,305.00 820.03,305.00 821.09,305.00 822.15,305.00 823.21,305.00 824.28,305.00 825.33,305.00 826.39,305.00 827.45,305.00 828.54,305.00 829.61,305.00 830.66,305.00 831.73,305.00 832.78,305.00 833.84,305.00 834.90,305.00 835.97,305.00 837.02,305.00 838.08,305.00 839.15,305.00 840.21,305.00 841.27,305.00 842.33,305.00 843.40,305.00 844.50,305.00 845.57,305.00 846.63,305.00 847.70,305.00 848.76,305.00 849.83,305.00 850.88,305.00 851.94,305.00 852.99,305.00 854.06,305.00 855.12,305.00 856.19,305.00 857.26,305.00 858.33,305.00 859.43,305.00 860.49,305.00 861.55,305.00 862.61,305.00 863.67,305.00 864.74,305.00 865.81,305.00 866.88,305.00 867.95,305.00 869.02,305.00 870.08,305.00 871.15,305.00 872.21,305.00 873.27,305.00 874.33,305.00 875.40,305.00 876.46,305.00 877.53,305.00 878.60,305.00 879.66,305.00 880.72,305.00 881.78,305.00 882.85,305.00 883.91,305.00 884.98,305.00 886.04,305.00 887.14,305.00 888.20,305.00 889.28,305.00 890.34,305.00 891.43,305.00 892.51,305.00 893.60,305.00 894.67,305.00 895.77,305.00 896.84,305.00 897.90,305.00 898.96,305.00 900.02,305.00 901.09,305.00 902.16,305.00 903.25,305.00 904.30,305.00 905.37,305.00 906.43,305.00 907.49,305.00 908.55,305.00 909.62,305.00 910.67,305.00 911.73,305.00 912.79,305.00 913.85,305.00 914.91,305.00 915.96,305.00 917.02,305.00 918.08,305.00 919.15,305.00 920.21,305.00 921.28,305.00 922.35,305.00 923.40,305.00 924.47,305.00 925.54,305.00 926.60,305.00 927.65,305.00 928.71,305.00 929.78,305.00 930.84,305.00 931.89,305.00 932.94,305.00 934.00,305.00 935.06,305.00 936.13,305.00 937.19,305.00 938.25,305.00 939.31,305.00 940.37,305.00 941.42,305.00 942.50,305.00 943.55,305.00 944.59,305.00 945.65,305.00 946.69,305.00 947.75,305.00 948.82,305.00 949.90,305.00 950.95,305.00 952.01,305.00 953.08,305.00 954.16,305.00 955.22,305.00 956.28,305.00 957.35,305.00 958.41,305.00 959.47,305.00 960.54,305.00 961.61,305.00 962.68,305.00 963.75,305.00 964.81,305.00 965.86,305.00 966.92,305.00 967.98,305.00 969.04,305.00 970.10,305.00 971.14,305.00 972.21,305.00 973.27,305.00 974.34,305.00 975.39,305.00 976.45,305.00 977.51,305.00 978.57,305.00 979.64,305.00 980.70,305.00 981.76,305.00 982.82,305.00 983.88,305.00 984.96,305.00 986.01,305.00 987.07,305.00 988.14,305.00 989.19,305.00 990.25,305.00 991.32,305.00 992.39,305.00 993.44,305.00 994.50,305.00 995.55,305.00 996.65,305.00 997.71,305.00 998.79,305.00 999.87,305.00 1000.94,305.00 1002.00,305.00 1003.06,305.00 1004.13,305.00 1005.19,305.00 1006.25,305.00 1007.32,305.00 1008.40,305.00 1009.47,305.00 1010.53,305.00 1011.60,305.00 1012.65,305.00 1013.72,305.00 1014.79,305.00 1015.84,305.00 1016.90,305.00 1017.96,305.00 1019.02,305.00 1020.08,305.00 1021.14,305.00 1022.21,305.00 1023.26,305.00 1024.31,305.00 1025.37,305.00 1026.43,305.00 1027.49,305.00 1028.57,305.00 1029.63,305.00 1030.68,305.00 1031.74,305.00 1032.81,305.00 1033.85,305.00 1034.93,305.00 1035.98,305.00 1037.06,305.00 1038.12,305.00 1039.18,305.00 1040.23,305.00 1041.30,305.00 1042.36,305.00 1043.41,305.00 1044.49,305.00 1045.58,305.00 1046.65,305.00 1047.74,305.00 1048.82,305.00 1049.90,305.00 1050.99,305.00 1052.07,305.00 1053.18,305.00 1054.26,305.00 1055.35,305.00 1056.41,305.00 1057.46,305.00 1058.53,305.00 1059.60,305.00 1060.67,305.00 1061.73,305.00 1062.80,305.00 1063.87,305.00 1064.93,305.00 1065.99,305.00 1067.04,305.00 1068.10,305.00 1069.16,305.00 1070.22,305.00 1071.28,305.00 1072.35,305.00 1073.41,305.00 1074.47,305.00 1075.55,305.00 1076.61,305.00 1077.67,305.00 1078.73,305.00 1079.79,305.00 1080.86,305.00 1081.92,305.00 1082.98,305.00 1084.04,305.00 1085.10,305.00 1086.17,305.00 1087.23,305.00 1088.29,305.00 1089.35,305.00 1090.41,305.00 1091.48,305.00 1092.61,305.00 1093.71,305.00 1094.76,305.00 1095.83,305.00 1096.88,305.00 1097.96,305.00 1099.04,305.00 1100.11,305.00 1101.17,305.00 1102.22,305.00 1103.26,305.00 1104.32,305.00 1105.38,305.00 1106.45,305.00 1107.51,305.00 1108.57,305.00 1109.64,305.00 1110.71,305.00 1111.78,305.00 1112.83,305.00 1113.89,305.00 1114.95,305.00 1116.02,305.00 1117.08,305.00 1118.14,305.00 1119.20,305.00 1120.27,305.00 1121.33,305.00 1122.39,305.00 1123.50,305.00 1124.57,305.00 1125.63,305.00 1126.69,305.00 1127.75,305.00 1128.81,305.00 1129.88,305.00 1130.95,305.00 1132.00,305.00 1133.07,305.00 1134.14,305.00 1135.21,305.00 1136.28,305.00 1137.35,305.00 1138.41,305.00 1139.47,305.00 1140.54,305.00 1141.59,305.00 1142.66,305.00 1143.71,305.00 1144.79,305.00 1145.85,305.00 1146.91,305.00 1147.98,305.00 1149.03,305.00 1150.10,305.00 1151.16,305.00 1152.21,305.00 1153.28,305.00 1154.34,305.00 1155.41,305.00 1156.46,305.00 1157.53,305.00 1158.59,305.00 1159.65,305.00 1160.72,305.00 1161.78,305.00 1162.84,305.00 1163.89,305.00 1164.94,305.00 1166.00,305.00 1167.08,305.00 1168.13,305.00 1169.22,305.00 1170.29,305.00 1171.35,305.00 1172.42,305.00 1173.48,305.00 1174.56,305.00 1175.70,305.00 1176.78,305.00 1177.85,305.00 1178.93,305.00 1180.00,305.00"/>
<polyline fill="none" stroke="#9467bd" stroke-opacity="0.80" stroke-width="2" points="70.00,305.00 71.06,305.00 72.12,305.00 73.17,305.00 74.23,305.00 75.30,305.00 76.35,305.00 77.41,305.00 78.55,305.00 79.60,305.00 80.65,305.00 81.70,305.00 82.78,305.00 83.83,305.00 84.88,305.00 86.78,305.00 88.42,305.00 89.49,305.00 90.57,305.00 91.62,305.00 92.68,305.00 93.71,305.00 94.78,305.00 95.83,305.00 96.90,305.00 97.96,305.00 99.04,305.00 100.10,305.00 101.16,305.00 102.27,305.00 103.33,305.00 104.39,305.00 105.47,305.00 106.53,305.00 107.59,305.00 108.68,305.00 109.72,305.00 110.78,305.00 111.86,305.00 112.90,305.00 113.96,305.00 115.00,305.00 116.06,305.00 117.12,305.00 118.17,305.00 119.25,305.00 120.31,305.00 121.36,305.00 122.41,305.00 123.48,305.00 124.54,305.00 125.74,305.00 126.80,305.00 127.85,305.00 128.90,305.00 129.95,305.00 131.00,305.00 132.05,305.00 133.11,305.00 134.16,305.00 135.24,305.00 136.30,305.00 137.34,305.00 138.40,305.00 139.47,305.00 140.53,305.00 141.59,305.00 142.63,305.00 143.68,305.00 144.73,305.00 145.78,305.00 146.83,305.00 147.89,305.00 148.93,305.00 149.99,305.00 151.05,305.00 152.10,305.00 153.16,305.00 154.21,305.00 155.26,305.00 156.34,305.00 157.40,305.00 158.45,305.00 159.51,305.00 160.56,305.00 161.62,305.00 162.68,305.00 163.72,305.00 164.77,305.00 165.83,305.00 166.90,305.00 167.95,305.00 169.02,305.00 170.06,305.00 171.12,305.00 172.17,305.00 173.22,305.00 174.27,305.00 175.33,305.00 176.37,305.00 177.44,305.00 178.50,305.00 179.55,305.00 180.61,305.00 181.68,305.00 182.74,305.00 183.80,305.00 184.85,305.00 185.90,305.00 186.95,305.00 188.02,305.00 189.08,305.00 190.13,305.00 191.18,305.00 192.24,305.00 193.30,305.00 194.37,305.00 195.44,305.00 196.49,305.00 197.55,305.00 198.61,305.00 199.66,305.00 200.71,305.00 201.78,305.00 202.92,305.00 203.97,305.00 205.04,305.00 206.10,305.00 207.15,305.00 208.19,305.00 209.23,305.00 210.28,305.00 211.34,305.00 212.40,305.00 213.45,305.00 214.50,305.00 215.55,305.00 216.60,305.00 217.68,305.00 218.73,305.00 219.78,305.00 220.83,305.00 221.89,305.00 222.94,305.00 224.00,305.00 225.06,305.00 226.12,305.00 227.18,305.00 228.23,305.00 229.28,305.00 230.33,305.00 231.38,305.00 232.44,305.00 233.50,305.00 234.56,305.00 235.62,305.00 236.67,305.00 237.74,305.00 238.80,305.00 239.85,305.00 240.91,305.00 241.96,305.00 243.04,305.00 244.11,305.00 245.16,305.00 246.22,305.00 247.26,305.00 248.31,305.00 249.37,305.00 250.42,305.00 251.47,305.00 252.52,305.00 253.57,305.00 254.64,305.00 255.69,305.00 256.75,305.00 257.81,305.00 258.89,305.00 259.94,305.00 260.99,305.00 262.04,305.00 263.09,305.00 264.24,305.00 265.32,305.00 266.37,305.00 267.42,305.00 268.46,305.00 269.52,305.00 270.57,305.00 271.63,305.00 272.69,305.00 273.75,305.00 274.80,305.00 275.85,305.00 276.93,305.00 277.99,305.00 279.03,305.00 280.09,305.00 281.16,305.00 282.23,305.00 283.31,305.00 284.36,305.00 285.42,305.00 286.47,305.00 287.52,305.00 288.58,305.00 289.64,305.00 290.71,305.00 291.76,305.00 292.81,305.00 293.88,305.00 294.93,305.00 295.99,305.00 297.04,305.00 298.12,305.00 299.17,305.00 300.22,305.00 301.27,305.00 302.32,305.00 303.38,305.00 304.43,305.00 305.48,305.00 306.54,305.00 307.58,305.00 308.63,305.00 309.70,305.00 310.75,305.00 311.82,305.00 312.89,305.00 313.94,305.00 315.01,305.00 316.06,305.00 317.12,305.00 318.17,305.00 319.23,305.00 320.29,305.00 321.37,305.00 322.42,305.00 323.48,305.00 324.54,305.00 325.59,305.00 326.65,305.00 327.70,305.00 328.75,305.00 329.81,305.00 330.87,305.00 331.93,305.00 332.98,305.00 334.05,305.00 335.10,305.00 336.16,305.00 337.22,305.00 338.29,305.00 339.34,305.00 340.39,305.00 341.46,305.00 342.52,305.00 343.58,305.00 344.64,305.00 345.69,305.00 346.86,305.00 347.93,305.00 348.99,305.00 350.04,305.00 351.11,305.00 352.17,305.00 353.23,305.00 354.29,305.00 355.33,305.00 356.42,305.00 357.49,305.00 358.54,305.00 359.60,305.00 360.65,305.00 361.71,305.00 362.77,305.00 363.86,305.00 364.92,305.00 365.97,305.00 367.04,305.00 368.18,305.00 369.24,305.00 370.57,305.00 372.36,305.00 373.44,305.00 374.52,305.00 375.57,305.00 376.60,305.00 377.66,305.00 378.73,305.00 379.79,305.00 380.85,305.00 381.95,305.00 383.05,305.00 384.17,305.00 385.23,305.00 386.28,305.00 387.34,305.00 388.41,305.00 389.48,305.00 390.55,305.00 391.60,305.00 392.65,305.00 393.75,305.00 394.81,305.00 395.86,305.00 396.92,305.00 397.99,305.00 399.09,305.00 400.15,305.00 401.21,305.00 402.30,305.00 403.31,305.00 404.36,305.00 405.44,305.00 406.49,305.00 407.56,305.00 408.65,305.00 409.71,305.00 410.76,305.00 411.83,305.00 412.90,305.00 413.96,305.00 415.01,305.00 416.06,305.00 417.12,305.00 418.18,305.00 419.23,305.00 420.49,305.00 421.73,305.00 422.98,305.00 424.21,305.00 425.42,305.00 426.64,305.00 427.89,305.00 429.12,305.00 430.18,305.00 431.22,305.00 432.28,305.00 433.33,305.00 434.39,305.00 435.43,305.00 436.48,305.00 437.54,305.00 438.59,305.00 439.65,305.00 440.70,305.00 441.75,305.00 442.80,305.00 443.85,305.00 444.91,305.00 445.96,305.00 447.01,305.00 448.06,305.00 449.12,305.00 450.18,305.00 451.23,305.00 452.27,305.00 453.32,305.00 454.38,305.00 455.43,305.00 456.49,305.00 457.54,305.00 458.60,305.00 459.66,305.00 460.71,305.00 461.76,305.00 462.82,305.00 463.86,305.00 464.92,305.00 465.96,305.00 467.00,305.00 468.05,305.00 469.10,305.00 470.15,305.00 471.20,305.00 472.25,305.00 473.30,305.00 474.35,305.00 475.39,305.00 476.43,305.00 477.52,305.00 478.66,305.00 479.72,305.00 480.77,305.00 481.82,305.00 482.87,305.00 483.92,305.00 484.97,305.00 486.02,305.00 487.26,305.00 488.50,305.00 489.73,305.00 490.96,305.00 492.21,305.00 493.44,305.00 494.70,305.00 495.98,305.00 497.13,305.00 498.26,305.00 499.32,305.00 500.39,305.00 501.44,305.00 502.49,305.00 503.54,305.00 504.60,305.00 505.65,305.00 506.70,305.00 507.75,305.00 508.81,305.00 509.86,305.00 510.91,305.00 511.98,305.00 513.03,305.00 514.08,305.00 515.01,305.00 516.10,305.00 517.15,305.00 518.23,305.00 519.29,305.00 520.34,305.00 521.40,305.00 522.46,305.00 523.52,305.00 524.59,305.00 525.65,305.00 526.73,305.00 527.77,305.00 528.82,305.00 529.88,305.00 530.92,305.00 531.97,305.00 533.02,305.00 534.08,305.00 535.14,305.00 536.19,305.00 537.25,305.00 538.29,305.00 539.36,305.00 540.41,305.00 541.47,305.00 542.54,305.00 543.59,305.00 544.64,305.00 545.71,305.00 546.76,305.00 547.85,305.00 548.90,305.00 549.95,305.00 551.00,305.00 552.05,305.00 553.10,305.00 554.16,305.00 555.21,305.00 556.26,305.00 557.32,305.00 558.37,305.00 559.42,305.00 560.48,305.00 561.54,305.00 562.60,305.00 563.87,305.00 564.95,305.00 566.04,305.00 567.10,305.00 568.16,305.00 569.23,305.00 570.27,305.00 571.32,305.00 572.39,305.00 573.45,305.00 574.50,305.00 575.57,305.00 576.63,305.00 577.68,305.00 578.77,305.00 579.85,305.00 580.90,305.00 581.96,305.00 583.02,305.00 584.07,305.00 585.12,305.00 586.18,305.00 587.28,305.00 588.34,305.00 589.40,305.00 590.46,305.00 591.51,305.00 592.57,305.00 593.62,305.00 594.68,305.00 595.74,305.00 596.80,305.00 597.86,305.00 598.92,305.00 599.97,305.00 601.03,305.00 602.08,305.00 603.16,305.00 604.22,305.00 605.27,305.00 606.32,305.00 607.37,305.00 608.45,305.00 609.51,305.00 610.78,305.00 611.86,305.00 612.92,305.00 613.98,305.00 615.03,305.00 616.09,305.00 617.15,305.00 618.21,305.00 619.28,305.00 620.33,305.00 621.39,305.00 622.44,305.00 623.50,305.00 624.55,305.00 625.60,305.00 626.67,305.00 627.72,305.00 628.77,305.00 629.82,305.00 630.88,305.00 631.95,305.00 633.00,305.00 634.05,305.00 635.12,305.00 636.18,305.00 637.24,305.00 638.29,305.00 639.35,305.00 640.44,305.00 641.48,305.00 642.54,305.00 643.61,305.00 644.66,305.00 645.72,305.00 646.78,305.00 647.84,305.00 648.92,305.00 649.97,305.00 651.03,305.00 652.07,305.00 653.13,305.00 654.18,305.00 655.24,305.00 656.29,305.00 657.36,305.00 658.43,305.00 659.49,305.00 660.53,305.00 661.60,305.00 662.65,305.00 663.71,305.00 664.76,305.00 665.82,305.00 666.87,305.00 667.94,305.00 669.00,305.00 670.05,305.00 671.12,305.00 672.18,305.00 673.24,305.00 674.30,305.00 675.37,305.00 676.56,305.00 677.71,305.00 678.85,305.00 679.91,305.00 681.02,305.00 682.08,305.00 683.14,305.00 684.18,305.00 685.17,305.00 686.27,305.00 687.33,305.00 688.40,305.00 689.44,305.00 690.50,305.00 691.55,305.00 692.62,305.00 693.67,305.00 694.73,305.00 695.78,305.00 696.84,305.00 697.90,305.00 698.97,305.00 700.04,305.00 701.10,305.00 702.16,305.00 703.22,305.00 704.28,305.00 705.36,305.00 706.42,305.00 707.47,305.00 708.52,305.00 709.58,305.00 710.64,305.00 711.69,305.00 712.75,305.00 713.81,305.00 714.88,305.00 715.93,305.00 716.98,305.00 718.04,305.00 719.10,305.00 720.17,305.00 721.23,305.00 722.28,305.00 723.34,305.00 724.40,305.00 725.47,305.00 726.53,305.00 727.60,305.00 728.66,305.00 729.71,305.00 730.78,305.00 731.83,305.00 732.90,305.00 733.99,305.00 735.05,305.00 736.12,305.00 737.17,305.00 738.23,305.00 739.29,305.00 740.35,305.00 741.41,305.00 742.47,305.00 743.53,305.00 744.59,305.00 745.66,305.00 746.71,305.00 747.78,305.00 748.84,305.00 749.91,305.00 750.97,305.00 752.04,305.00 753.11,305.00 754.17,305.00 755.22,305.00 756.29,305.00 757.35,305.00 758.43,305.00 759.49,305.00 760.56,305.00 761.62,305.00 762.67,305.00 763.73,305.00 764.79,305.00 765.85,305.00 766.92,305.00 767.97,305.00 769.03,305.00 770.09,305.00 771.15,305.00 772.22,305.00 773.28,305.00 774.33,305.00 775.41,305.00 776.47,305.00 777.53,305.00 778.59,305.00 779.64,305.00 780.70,305.00 781.75,305.00 782.81,305.00 783.87,305.00 784.94,305.00 786.00,305.00 787.07,305.00 788.12,305.00 789.19,305.00 790.26,305.00 791.32,305.00 792.38,305.00 793.45,305.00 794.51,305.00 795.57,305.00 796.63,305.00 797.71,305.00 798.77,305.00 799.83,305.00 800.91,305.00 801.98,305.00 803.05,305.00 804.11,305.00 805.16,305.00 806.23,305.00 807.30,305.00 808.37,305.00 809.43,305.00 810.49,305.00 811.55,305.00 812.60,305.00 813.69,305.00 814.74,305.00 815.81,305.00 816.87,305.00 817.93,305.00 818.98,305.00 820.03,305.00 821.09,305.00 822.15,305.00 823.21,305.00 824.28,305.00 825.33,305.00 826.39,305.00 827.45,305.00 828.54,305.00 829.61,305.00 830.66,305.00 831.73,305.00 832.78,305.00 833.84,305.00 834.90,305.00 835.97,305.00 837.02,305.00 838.08,305.00 839.15,305.00 840.21,305.00 841.27,305.00 842.33,305.00 843.40,305.00 844.50,305.00 845.57,305.00 846.63,305.00 847.70,305.00 848.76,305.00 849.83,305.00 850.88,305.00 851.94,305.00 852.99,305.00 854.06,305.00 855.12,305.00 856.19,305.00 857.26,305.00 858.33,305.00 859.43,305.00 860.49,305.00 861.55,305.00 862.61,305.00 863.67,305.00 864.74,305.00 865.81,305.00 866.88,305.00 867.95,305.00 869.02,305.00 870.08,305.00 871.15,305.00 872.21,305.00 873.27,305.00 874.33,305.00 875.40,305.00 876.46,305.00 877.53,305.00 878.60,305.00 879.66,305.00 880.72,305.00 881.78,305.00 882.85,305.00 883.91,305.00 884.98,305.00 886.04,305.00 887.14,305.00 888.20,305.00 889.28,305.00 890.34,305.00 891.43,305.00 892.51,305.00 893.60,305.00 894.67,305.00 895.77,305.00 896.84,305.00 897.90,305.00 898.96,305.00 900.02,305.00 901.09,305.00 902.16,305.00 903.25,305.00 904.30,305.00 905.37,305.00 906.43,305.00 907.49,305.00 908.55,305.00 909.62,305.00 910.67,305.00 911.73,305.00 912.79,305.00 913.85,305.00 914.91,305.00 915.96,305.00 917.02,305.00 918.08,305.00 919.15,305.00 920.21,305.00 921.28,305.00 922.35,305.00 923.40,305.00 924.47,305.00 925.54,305.00 926.60,305.00 927.65,305.00 928.71,305.00 929.78,305.00 930.84,305.00 931.89,305.00 932.94,305.00 934.00,305.00 935.06,305.00 936.13,305.00 937.19,305.00 938.25,305.00 939.31,305.00 940.37,305.00 941.42,305.00 942.50,305.00 943.55,305.00 944.59,305.00 945.65,305.00 946.69,305.00 947.75,305.00 948.82,305.00 949.90,305.00 950.95,305.00 952.01,305.00 953.08,305.00 954.16,305.00 955.22,305.00 956.28,305.00 957.35,305.00 958.41,305.00 959.47,305.00 960.54,305.00 961.61,305.00 962.68,305.00 963.75,305.00 964.81,305.00 965.86,305.00 966.92,305.00 967.98,305.00 969.04,305.00 970.10,305.00 971.14,305.00 972.21,305.00 973.27,305.00 974.34,305.00 975.39,305.00 976.45,305.00 977.51,305.00 978.57,305.00 979.64,305.00 980.70,305.00 981.76,305.00 982.82,305.00 983.88,305.00 984.96,305.00 986.01,305.00 987.07,305.00 988.14,305.00 989.19,305.00 990.25,305.00 991.32,305.00 992.39,305.00 993.44,305.00 994.50,305.00 995.55,305.00 996.65,305.00 997.71,305.00 998.79,305.00 999.87,305.00 1000.94,305.00 1002.00,305.00 1003.06,305.00 1004.13,305.00 1005.19,305.00 1006.25,305.00 1007.32,305.00 1008.40,305.00 1009.47,305.00 1010.53,305.00 1011.60,305.00 1012.65,305.00 1013.72,305.00 1014.79,305.00 1015.84,305.00 1016.90,305.00 1017.96,305.00 1019.02,305.00 1020.08,305.00 1021.14,305.00 1022.21,305.00 1023.26,305.00 1024.31,305.00 1025.37,305.00 1026.43,305.00 1027.49,305.00 1028.57,305.00 1029.63,305.00 1030.68,305.00 1031.74,305.00 1032.81,305.00 1033.85,305.00 1034.93,305.00 1035.98,305.00 1037.06,305.00 1038.12,305.00 1039.18,305.00 1040.23,305.00 1041.30,305.00 1042.36,305.00 1043.41,305.00 1044.49,305.00 1045.58,305.00 1046.65,305.00 1047.74,305.00 1048.82,305.00 1049.90,305.00 1050.99,305.00 1052.07,305.00 1053.18,305.00 1054.26,305.00 1055.35,305.00 1056.41,305.00 1057.46,305.00 1058.53,305.00 1059.60,305.00 1060.67,305.00 1061.73,305.00 1062.80,305.00 1063.87,305.00 1064.93,305.00 1065.99,305.00 1067.04,305.00 1068.10,305.00 1069.16,305.00 1070.22,305.00 1071.28,305.00 1072.35,305.00 1073.41,305.00 1074.47,305.00 1075.55,305.00 1076.61,305.00 1077.67,305.00 1078.73,305.00 1079.79,305.00 1080.86,305.00 1081.92,305.00 1082.98,305.00 1084.04,305.00 1085.10,305.00 1086.17,305.00 1087.23,305.00 1088.29,305.00 1089.35,305.00 1090.41,305.00 1091.48,305.00 1092.61,305.00 1093.71,305.00 1094.76,305.00 1095.83,305.00 1096.88,305.00 1097.96,305.00 1099.04,305.00 1100.11,305.00 1101.17,305.00 1102.22,305.00 1103.26,305.00 1104.32,305.00 1105.38,305.00 1106.45,305.00 1107.51,305.00 1108.57,305.00 1109.64,305.00 1110.71,305.00 1111.78,305.00 1112.83,305.00 1113.89,305.00 1114.95,305.00 1116.02,305.00 1117.08,305.00 1118.14,305.00 1119.20,305.00 1120.27,305.00 1121.33,305.00 1122.39,305.00 1123.50,305.00 1124.57,305.00 1125.63,305.00 1126.69,305.00 1127.75,305.00 1128.81,305.00 1129.88,305.00 1130.95,305.00 1132.00,305.00 1133.07,305.00 1134.14,305.00 1135.21,305.00 1136.28,305.00 1137.35,305.00 1138.41,305.00 1139.47,305.00 1140.54,305.00 1141.59,305.00 1142.66,305.00 1143.71,305.00 1144.79,305.00 1145.85,305.00 1146.91,305.00 1147.98,305.00 1149.03,305.00 1150.10,305.00 1151.16,305.00 1152.21,305.00 1153.28,305.00 1154.34,305.00 1155.41,305.00 1156.46,305.00 1157.53,305.00 1158.59,305.00 1159.65,305.00 1160.72,305.00 1161.78,305.00 1162.84,305.00 1163.89,305.00 1164.94,305.00 1166.00,305.00 1167.08,305.00 1168.13,305.00 1169.22,305.00 1170.29,305.00 1171.35,305.00 1172.42,305.00 1173.48,305.00 1174.56,305.00 1175.70,305.00 1176.78,305.00 1177.85,305.00 1178.93,305.00 1180.00,305.00"/>
<polyline fill="none" stroke="#9467bd" stroke-opacity="0.65" stroke-width="2" points="515.01,305.00 516.10,305.00 517.15,305.00 518.23,305.00 519.29,305.00 520.34,305.00 521.40,305.00 522.46,305.00 523.52,305.00 524.59,305.00 525.65,305.00 526.73,305.00 527.77,305.00 528.82,305.00 529.88,305.00 530.92,305.00 531.97,305.00 533.02,305.00 534.08,305.00 535.14,305.00 536.19,305.00 537.25,305.00 538.29,305.00 539.36,305.00 540.41,305.00 541.47,305.00 542.54,305.00 543.59,305.00 544.64,305.00 545.71,305.00 546.76,305.00 547.85,305.00 548.90,305.00 549.95,305.00 551.00,305.00 552.05,305.00 553.10,305.00 554.16,305.00 555.21,305.00 556.26,305.00 557.32,305.00 558.37,305.00 559.42,305.00 560.48,305.00 561.54,305.00 562.60,305.00 563.87,305.00 564.95,305.00 566.04,305.00 567.10,305.00 568.16,305.00 569.23,305.00 570.27,305.00 571.32,305.00 572.39,305.00 573.45,305.00 574.50,305.00 575.57,305.00 576.63,305.00 577.68,305.00 578.77,305.00 579.85,305.00 580.90,305.00 581.96,305.00 583.02,305.00 584.07,305.00 585.12,305.00 586.18,305.00 587.28,305.00 588.34,305.00 589.40,305.00 590.46,305.00 591.51,305.00 592.57,305.00 593.62,305.00 594.68,305.00 595.74,305.00 596.80,305.00 597.86,305.00 598.92,305.00 599.97,305.00 601.03,305.00 602.08,305.00 603.16,305.00 604.22,305.00 605.27,305.00 606.32,305.00 607.37,305.00 608.45,305.00 609.51,305.00 610.78,305.00 611.86,305.00 612.92,305.00 613.98,305.00 615.03,305.00 616.09,305.00 617.15,305.00 618.21,305.00 619.28,305.00 620.33,305.00 621.39,305.00 622.44,305.00 623.50,305.00 624.55,305.00 625.60,305.00 626.67,305.00 627.72,305.00 628.77,305.00 629.82,305.00 630.88,305.00 631.95,305.00 633.00,305.00 634.05,305.00 635.12,305.00 636.18,305.00 637.24,305.00 638.29,305.00 639.35,305.00 640.44,305.00 641.48,305.00 642.54,305.00 643.61,305.00 644.66,305.00 645.72,305.00 646.78,305.00 647.84,305.00 648.92,305.00 649.97,305.00 651.03,305.00 652.07,305.00 653.13,305.00 654.18,305.00 655.24,305.00 656.29,305.00 657.36,305.00 658.43,305.00 659.49,305.00 660.53,305.00 661.60,305.00 662.65,305.00 663.71,305.00 664.76,305.00 665.82,305.00 666.87,305.00 667.94,305.00 669.00,305.00 670.05,305.00 671.12,305.00 672.18,305.00 673.24,305.00 674.30,305.00 675.37,305.00 676.56,305.00 677.71,305.00 678.85,305.00 679.91,305.00 681.02,305.00 682.08,305.00 683.14,305.00 684.18,305.00 685.17,305.00 686.27,305.00 687.33,305.00 688.40,305.00 689.44,305.00 690.50,305.00 691.55,305.00 692.62,305.00 693.67,305.00 694.73,305.00 695.78,305.00 696.84,305.00 697.90,305.00 698.97,305.00 700.04,305.00 701.10,305.00 702.16,305.00 703.22,305.00 704.28,305.00 705.36,305.00 706.42,305.00 707.47,305.00 708.52,305.00 709.58,305.00 710.64,305.00 711.69,305.00 712.75,305.00 713.81,305.00 714.88,305.00 715.93,305.00 716.98,305.00 718.04,305.00 719.10,305.00 720.17,305.00 721.23,305.00 722.28,305.00 723.34,305.00 724.40,305.00 725.47,305.00 726.53,305.00 727.60,305.00 728.66,305.00 729.71,305.00 730.78,305.00 731.83,305.00 732.90,305.00 733.99,305.00 735.05,305.00 736.12,305.00 737.17,305.00 738.23,305.00 739.29,305.00 740.35,305.00 741.41,305.00 742.47,305.00 743.53,305.00 744.59,305.00 745.66,305.00 746.71,305.00 747.78,305.00 748.84,305.00 749.91,305.00 750.97,305.00 752.04,305.00 753.11,305.00 754.17,305.00 755.22,305.00 756.29,305.00 757.35,305.00 758.43,305.00 759.49,305.00 760.56,305.00 761.62,305.00 762.67,305.00 763.73,305.00 764.79,305.00 765.85,305.00 766.92,305.00 767.97,305.00 769.03,305.00 770.09,305.00 771.15,305.00 772.22,305.00 773.28,305.00 774.33,305.00 775.41,305.00 776.47,305.00 777.53,305.00 778.59,305.00 779.64,305.00 780.70,305.00 781.75,305.00 782.81,305.00 783.87,305.00 784.94,305.00 786.00,305.00 787.07,305.00 788.12,305.00 789.19,305.00 790.26,305.00 791.32,305.00 792.38,305.00 793.45,305.00 794.51,305.00 795.57,305.00 796.63,305.00 797.71,305.00 798.77,305.00 799.83,305.00 800.91,305.00 801.98,305.00 803.05,305.00 804.11,305.00 805.16,305.00 806.23,305.00 807.30,305.00 808.37,305.00 809.43,305.00 810.49,305.00 811.55,305.00 812.60,305.00 813.69,305.00 814.74,305.00 815.81,305.00 816.87,305.00 817.93,305.00 818.98,305.00 820.03,305.00 821.09,305.00 822.15,305.00 823.21,305.00 824.28,305.00 825.33,305.00 826.39,305.00 827.45,305.00 828.54,305.00 829.61,305.00 830.66,305.00 831.73,305.00 832.78,305.00 833.84,305.00 834.90,305.00 835.97,305.00 837.02,305.00 838.08,305.00 839.15,305.00 840.21,305.00 841.27,305.00 842.33,305.00 843.40,305.00 844.50,305.00 845.57,305.00 846.63,305.00 847.70,305.00 848.76,305.00 849.83,305.00 850.88,305.00 851.94,305.00 852.99,305.00 854.06,305.00 855.12,305.00 856.19,305.00 857.26,305.00 858.33,305.00 859.43,305.00 860.49,305.00 861.55,305.00 862.61,305.00 863.67,305.00 864.74,305.00 865.81,305.00 866.88,305.00 867.95,305.00 869.02,305.00 870.08,305.00 871.15,305.00 872.21,305.00 873.27,305.00 874.33,305.00 875.40,305.00 876.46,305.00 877.53,305.00 878.60,305.00 879.66,305.00 880.72,305.00 881.78,305.00 882.85,305.00 883.91,305.00 884.98,305.00 886.04,305.00 887.14,305.00 888.20,305.00 889.28,305.00 890.34,305.00 891.43,305.00 892.51,305.00 893.60,305.00 894.67,305.00 895.77,305.00 896.84,305.00 897.90,305.00 898.96,305.00 900.02,305.00 901.09,305.00 902.16,305.00 903.25,305.00 904.30,305.00 905.37,305.00 906.43,305.00 907.49,305.00 908.55,305.00 909.62,305.00 910.67,305.00 911.73,305.00 912.79,305.00 913.85,305.00 914.91,305.00 915.96,305.00 917.02,305.00 918.08,305.00 919.15,305.00 920.21,305.00 921.28,305.00 922.35,305.00 923.40,305.00 924.47,305.00 925.54,305.00 926.60,305.00 927.65,305.00 928.71,305.00 929.78,305.00 930.84,305.00 931.89,305.00 932.94,305.00 934.00,305.00 935.06,305.00 936.13,305.00 937.19,305.00 938.25,305.00 939.31,305.00 940.37,305.00 941.42,305.00 942.50,305.00 943.55,305.00 944.59,305.00 945.65,305.00 946.69,305.00 947.75,305.00 948.82,305.00 949.90,305.00 950.95,305.00 952.01,305.00 953.08,305.00 954.16,305.00 955.22,305.00 956.28,305.00 957.35,305.00 958.41,305.00 959.47,305.00 960.54,305.00 961.61,305.00 962.68,305.00 963.75,305.00 964.81,305.00 965.86,305.00 966.92,305.00 967.98,305.00 969.04,305.00 970.10,305.00 971.14,305.00 972.21,305.00 973.27,305.00 974.34,305.00 975.39,305.00 976.45,305.00 977.51,305.00 978.57,305.00 979.64,305.00 980.70,305.00 981.76,305.00 982.82,305.00 983.88,305.00 984.96,305.00 986.01,305.00 987.07,305.00 988.14,305.00 989.19,305.00 990.25,305.00 991.32,305.00 992.39,305.00 993.44,305.00 994.50,305.00 995.55,305.00 996.65,305.00 997.71,305.00 998.79,305.00 999.87,305.00 1000.94,305.00 1002.00,305.00 1003.06,305.00 1004.13,305.00 1005.19,305.00 1006.25,305.00 1007.32,305.00 1008.40,305.00 1009.47,305.00 1010.53,305.00 1011.60,305.00 1012.65,305.00 1013.72,305.00 1014.79,305.00 1015.84,305.00 1016.90,305.00 1017.96,305.00 1019.02,305.00 1020.08,305.00 1021.14,305.00 1022.21,305.00 1023.26,305.00 1024.31,305.00 1025.37,305.00 1026.43,305.00 1027.49,305.00 1028.57,305.00 1029.63,305.00 1030.68,305.00 1031.74,305.00 1032.81,305.00 1033.85,305.00 1034.93,305.00 1035.98,305.00 1037.06,305.00 1038.12,305.00 1039.18,305.00 1040.23,305.00 1041.30,305.00 1042.36,305.00 1043.41,305.00 1044.49,305.00 1045.58,305.00 1046.65,305.00 1047.74,305.00 1048.82,305.00 1049.90,305.00 1050.99,305.00 1052.07,305.00 1053.18,305.00 1054.26,305.00 1055.35,305.00 1056.41,305.00 1057.46,305.00 1058.53,305.00 1059.60,305.00 1060.67,305.00 1061.73,305.00 1062.80,305.00 1063.87,305.00 1064.93,305.00 1065.99,305.00 1067.04,305.00 1068.10,305.00 1069.16,305.00 1070.22,305.00 1071.28,305.00 1072.35,305.00 1073.41,305.00 1074.47,305.00 1075.55,305.00 1076.61,305.00 1077.67,305.00 1078.73,305.00 1079.79,305.00 1080.86,305.00 1081.92,305.00 1082.98,305.00 1084.04,305.00 1085.10,305.00 1086.17,305.00 1087.23,305.00 1088.29,305.00 1089.35,305.00 1090.41,305.00 1091.48,305.00 1092.61,305.00 1093.71,305.00 1094.76,305.00 1095.83,305.00 1096.88,305.00 1097.96,305.00 1099.04,305.00 1100.11,305.00 1101.17,305.00 1102.22,305.00 1103.26,305.00 1104.32,305.00 1105.38,305.00 1106.45,305.00 1107.51,305.00 1108.57,305.00 1109.64,305.00 1110.71,305.00 1111.78,305.00 1112.83,305.00 1113.89,305.00 1114.95,305.00 1116.02,305.00 1117.08,305.00 1118.14,305.00 1119.20,305.00 1120.27,305.00 1121.33,305.00 1122.39,305.00 1123.50,305.00 1124.57,305.00 1125.63,305.00 1126.69,305.00 1127.75,305.00 1128.81,305.00 1129.88,305.00 1130.95,305.00 1132.00,305.00 1133.07,305.00 1134.14,305.00 1135.21,305.00 1136.28,305.00 1137.35,305.00 1138.41,305.00 1139.47,305.00 1140.54,305.00 1141.59,305.00 1142.66,305.00 1143.71,305.00 1144.79,305.00 1145.85,305.00 1146.91,305.00 1147.98,305.00 1149.03,305.00 1150.10,305.00 1151.16,305.00 1152.21,305.00 1153.28,305.00 1154.34,305.00 1155.41,305.00 1156.46,305.00 1157.53,305.00 1158.59,305.00 1159.65,305.00 1160.72,305.00 1161.78,305.00 1162.84,305.00 1163.89,305.00 1164.94,305.00 1166.00,305.00 1167.08,305.00 1168.13,305.00 1169.22,305.00 1170.29,305.00 1171.35,305.00 1172.42,305.00 1173.48,305.00 1174.56,305.00 1175.70,305.00 1176.78,305.00 1177.85,305.00 1178.93,305.00 1180.00,305.00"/>
<polyline fill="none" stroke="#9467bd" stroke-opacity="0.50" stroke-width="2" points="70.00,305.00 71.06,305.00 72.12,305.00 73.17,305.00 74.23,305.00 75.30,305.00 76.35,305.00 77.41,305.00 78.55,305.00 79.60,305.00 80.65,305.00 81.70,305.00 82.78,305.00 83.83,305.00 84.88,305.00 86.78,305.00 88.42,305.00 89.49,305.00 90.57,305.00 91.62,305.00 92.68,305.00 93.71,305.00 94.78,305.00 95.83,305.00 96.90,305.00 97.96,305.00 99.04,305.00 100.10,305.00 101.16,305.00 102.27,305.00 103.33,305.00 104.39,305.00 105.47,305.00 106.53,305.00 107.59,305.00 108.68,305.00 109.72,305.00 110.78,305.00 111.86,305.00 112.90,305.00 113.96,305.00 115.00,305.00 116.06,305.00 117.12,305.00 118.17,305.00 119.25,305.00 120.31,305.00 121.36,305.00 122.41,305.00 123.48,305.00 124.54,305.00 125.74,305.00 126.80,305.00 127.85,305.00 128.90,305.00 129.95,305.00 131.00,305.00 132.05,305.00 133.11,305.00 134.16,305.00 135.24,305.00 136.30,305.00 137.34,305.00 138.40,305.00 139.47,305.00 140.53,305.00 141.59,305.00 142.63,305.00 143.68,305.00 144.73,305.00 145.78,305.00 146.83,305.00 147.89,305.00 148.93,305.00 149.99,305.00 151.05,305.00 152.10,305.00 153.16,305.00 154.21,305.00 155.26,305.00 156.34,305.00 157.40,305.00 158.45,305.00 159.51,305.00 160.56,305.00 161.62,305.00 162.68,305.00 163.72,305.00 164.77,305.00 165.83,305.00 166.90,305.00 167.95,305.00 169.02,305.00 170.06,305.00 171.12,305.00 172.17,305.00 173.22,305.00 174.27,305.00 175.33,305.00 176.37,305.00 177.44,305.00 178.50,305.00 179.55,305.00 180.61,305.00 181.68,305.00 182.74,305.00 183.80,305.00 184.85,305.00 185.90,305.00 186.95,305.00 188.02,305.00 189.08,305.00 190.13,305.00 191.18,305.00 192.24,305.00 193.30,305.00 194.37,305.00 195.44,305.00 196.49,305.00 197.55,305.00 198.61,305.00 199.66,305.00 200.71,305.00 201.78,305.00 202.92,305.00 203.97,305.00 205.04,305.00 206.10,305.00 207.15,305.00 208.19,305.00 209.23,305.00 210.28,305.00 211.34,305.00 212.40,305.00 213.45,305.00 214.50,305.00 215.55,305.00 216.60,305.00 217.68,305.00 218.73,305.00 219.78,305.00 220.83,305.00 221.89,305.00 222.94,305.00 224.00,305.00 225.06,305.00 226.12,305.00 227.18,305.00 228.23,305.00 229.28,305.00 230.33,305.00 231.38,305.00 232.44,305.00 233.50,305.00 234.56,305.00 235.62,305.00 236.67,305.00 237.74,305.00 238.80,305.00 239.85,305.00 240.91,305.00 241.96,305.00 243.04,305.00 244.11,305.00 245.16,305.00 246.22,305.00 247.26,305.00 248.31,305.00 249.37,305.00 250.42,305.00 251.47,305.00 252.52,305.00 253.57,305.00 254.64,305.00 255.69,305.00 256.75,305.00 257.81,305.00 258.89,305.00 259.94,305.00 260.99,305.00 262.04,305.00 263.09,305.00 264.24,305.00 265.32,305.00 266.37,305.00 267.42,305.00 268.46,305.00 269.52,305.00 270.57,305.00 271.63,305.00 272.69,305.00 273.75,305.00 274.80,305.00 275.85,305.00 276.93,305.00 277.99,305.00 279.03,305.00 280.09,305.00 281.16,305.00 282.23,305.00 283.31,305.00 284.36,305.00 285.42,305.00 286.47,305.00 287.52,305.00 288.58,305.00 289.64,305.00 290.71,305.00 291.76,305.00 292.81,305.00 293.88,305.00 294.93,305.00 295.99,305.00 297.04,305.00 298.12,305.00 299.17,305.00 300.22,305.00 301.27,305.00 302.32,305.00 303.38,305.00 304.43,305.00 305.48,305.00 306.54,305.00 307.58,305.00 308.63,305.00 309.70,305.00 310.75,305.00 311.82,305.00 312.89,305.00 313.94,305.00 315.01,305.00 316.06,305.00 317.12,305.00 318.17,305.00 319.23,305.00 320.29,305.00 321.37,305.00 322.42,305.00 323.48,305.00 324.54,305.00 325.59,305.00 326.65,305.00 327.70,305.00 328.75,305.00 329.81,305.00 330.87,305.00 331.93,305.00 332.98,305.00 334.05,305.00 335.10,305.00 336.16,305.00 337.22,305.00 338.29,305.00 339.34,305.00 340.39,305.00 341.46,305.00 342.52,305.00 343.58,305.00 344.64,305.00 345.69,305.00 346.86,305.00 347.93,305.00 348.99,305.00 350.04,305.00 351.11,305.00 352.17,305.00 353.23,305.00 354.29,305.00 355.33,305.00 356.42,305.00 357.49,305.00 358.54,305.00 359.60,305.00 360.65,305.00 361.71,305.00 362.77,305.00 363.86,305.00 364.92,305.00 365.97,305.00 367.04,305.00 368.18,305.00 369.24,305.00 370.57,305.00 372.36,305.00 373.44,305.00 374.52,305.00 375.57,305.00 376.60,305.00 377.66,305.00 378.73,305.00 379.79,305.00 380.85,305.00 381.95,305.00 383.05,305.00 384.17,305.00 385.23,305.00 386.28,305.00 387.34,305.00 388.41,305.00 389.48,305.00 390.55,305.00 391.60,305.00 392.65,305.00 393.75,305.00 394.81,305.00 395.86,305.00 396.92,305.00 397.99,305.00 399.09,305.00 400.15,305.00 401.21,305.00 402.30,305.00 403.31,305.00 404.36,305.00 405.44,305.00 406.49,305.00 407.56,305.00 408.65,305.00 409.71,305.00 410.76,305.00 411.83,305.00 412.90,305.00 413.96,305.00 415.01,305.00 416.06,305.00 417.12,305.00 418.18,305.00 419.23,305.00 420.49,305.00 421.73,305.00 422.98,305.00 424.21,305.00 425.42,305.00 426.64,305.00 427.89,305.00 429.12,305.00 430.18,305.00 431.22,305.00 432.28,305.00 433.33,305.00 434.39,305.00 435.43,305.00 436.48,305.00 437.54,305.00 438.59,305.00 439.65,305.00 440.70,305.00 441.75,305.00 442.80,305.00 443.85,305.00 444.91,305.00 445.96,305.00 447.01,305.00 448.06,305.00 449.12,305.00 450.18,305.00 451.23,305.00 452.27,305.00 453.32,305.00 454.38,305.00 455.43,305.00 456.49,305.00 457.54,305.00 458.60,305.00 459.66,305.00 460.71,305.00 461.76,305.00 462.82,305.00 463.86,305.00 464.92,305.00 465.96,305.00 467.00,305.00 468.05,305.00 469.10,305.00 470.15,305.00 471.20,305.00 472.25,305.00 473.30,305.00 474.35,305.00 475.39,305.00 476.43,305.00 477.52,305.00 478.66,305.00 479.72,305.00 480.77,305.00 481.82,305.00 482.87,305.00 483.92,305.00 484.97,305.00 486.02,305.00 487.26,305.00 488.50,305.00 489.73,305.00 490.96,305.00 492.21,305.00 493.44,305.00 494.70,305.00 495.98,305.00 497.13,305.00 498.26,305.00 499.32,305.00 500.39,305.00 501.44,305.00 502.49,305.00 503.54,305.00 504.60,305.00 505.65,305.00 506.70,305.00 507.75,305.00 508.81,305.00 509.86,305.00 510.91,305.00 511.98,305.00 513.03,305.00 514.08,305.00 515.01,305.00 516.10,305.00 517.15,305.00 518.23,305.00 519.29,305.00 520.34,305.00 521.40,305.00 522.46,305.00 523.52,305.00 524.59,305.00 525.65,305.00 526.73,305.00 527.77,305.00 528.82,305.00 529.88,305.00 530.92,305.00 531.97,305.00 533.02,305.00 534.08,305.00 535.14,305.00 536.19,305.00 537.25,305.00 538.29,305.00 539.36,305.00 540.41,305.00 541.47,305.00 542.54,305.00 543.59,305.00 544.64,305.00 545.71,305.00 546.76,305.00 547.85,305.00 548.90,305.00 549.95,305.00 551.00,305.00 552.05,305.00 553.10,305.00 554.16,305.00 555.21,305.00 556.26,305.00 557.32,305.00 558.37,305.00 559.42,305.00 560.48,305.00 561.54,305.00 562.60,305.00 563.87,305.00 564.95,305.00 566.04,305.00 567.10,305.00 568.16,305.00 569.23,305.00 570.27,305.00 571.32,305.00 572.39,305.00 573.45,305.00 574.50,305.00 575.57,305.00 576.63,305.00 577.68,305.00 578.77,305.00 579.85,305.00 580.90,305.00 581.96,305.00 583.02,305.00 584.07,305.00 585.12,305.00 586.18,305.00 587.28,305.00 588.34,305.00 589.40,305.00 590.46,305.00 591.51,305.00 592.57,305.00 593.62,305.00 594.68,305.00 595.74,305.00 596.80,305.00 597.86,305.00 598.92,305.00 599.97,305.00 601.03,305.00 602.08,305.00 603.16,305.00 604.22,305.00 605.27,305.00 606.32,305.00 607.37,305.00 608.45,305.00 609.51,305.00 610.78,305.00 611.86,305.00 612.92,305.00 613.98,305.00 615.03,305.00 616.09,305.00 617.15,305.00 618.21,305.00 619.28,305.00 620.33,305.00 621.39,305.00 622.44,305.00 623.50,305.00 624.55,305.00 625.60,305.00 626.67,305.00 627.72,305.00 628.77,305.00 629.82,305.00 630.88,305.00 631.95,305.00 633.00,305.00 634.05,305.00 635.12,305.00 636.18,305.00 637.24,305.00 638.29,305.00 639.35,305.00 640.44,305.00 641.48,305.00 642.54,305.00 643.61,305.00 644.66,305.00 645.72,305.00 646.78,305.00 647.84,305.00 648.92,305.00 649.97,305.00 651.03,305.00 652.07,305.00 653.13,305.00 654.18,305.00 655.24,305.00 656.29,305.00 657.36,305.00 658.43,305.00 659.49,305.00 660.53,305.00 661.60,305.00 662.65,305.00 663.71,305.00 664.76,305.00 665.82,305.00 666.87,305.00 667.94,305.00 669.00,305.00 670.05,305.00 671.12,305.00 672.18,305.00 673.24,305.00 674.30,305.00 675.37,305.00 676.56,305.00 677.71,305.00 678.85,305.00 679.91,305.00 681.02,305.00 682.08,305.00 683.14,305.00 684.18,305.00 685.17,305.00 686.27,305.00 687.33,305.00 688.40,305.00 689.44,305.00 690.50,305.00 691.55,305.00 692.62,305.00 693.67,305.00 694.73,305.00 695.78,305.00 696.84,305.00 697.90,305.00 698.97,305.00 700.04,305.00 701.10,305.00 702.16,305.00 703.22,305.00 704.28,305.00 705.36,305.00 706.42,305.00 707.47,305.00 708.52,305.00 709.58,305.00 710.64,305.00 711.69,305.00 712.75,305.00 713.81,305.00 714.88,305.00 715.93,305.00 716.98,305.00 718.04,305.00 719.10,305.00 720.17,305.00 721.23,305.00 722.28,305.00 723.34,305.00 724.40,305.00 725.47,305.00 726.53,305.00 727.60,305.00 728.66,305.00 729.71,305.00 730.78,305.00 731.83,305.00 732.90,305.00 733.99,305.00 735.05,305.00 736.12,305.00 737.17,305.00 738.23,305.00 739.29,305.00 740.35,305.00 741.41,305.00 742.47,305.00 743.53,305.00 744.59,305.00 745.66,305.00 746.71,305.00 747.78,305.00 748.84,305.00 749.91,305.00 750.97,305.00 752.04,305.00 753.11,305.00 754.17,305.00 755.22,305.00 756.29,305.00 757.35,305.00 758.43,305.00 759.49,305.00 760.56,305.00 761.62,305.00 762.67,305.00 763.73,305.00 764.79,305.00 765.85,305.00 766.92,305.00 767.97,305.00 769.03,305.00 770.09,305.00 771.15,305.00 772.22,305.00 773.28,305.00 774.33,305.00 775.41,305.00 776.47,305.00 777.53,305.00 778.59,305.00 779.64,305.00 780.70,305.00 781.75,305.00 782.81,305.00 783.87,305.00 784.94,305.00 786.00,305.00 787.07,305.00 788.12,305.00 789.19,305.00 790.26,305.00 791.32,305.00 792.38,305.00 793.45,305.00 794.51,305.00 795.57,305.00 796.63,305.00 797.71,305.00 798.77,305.00 799.83,305.00 800.91,305.00 801.98,305.00 803.05,305.00 804.11,305.00 805.16,305.00 806.23,305.00 807.30,305.00 808.37,305.00 809.43,305.00 810.49,305.00 811.55,305.00 812.60,305.00 813.69,305.00 814.74,305.00 815.81,305.00 816.87,305.00 817.93,305.00 818.98,305.00 820.03,305.00 821.09,305.00 822.15,305.00 823.21,305.00 824.28,305.00 825.33,305.00 826.39,305.00 827.45,305.00 828.54,305.00 829.61,305.00 830.66,305.00 831.73,305.00 832.78,305.00 833.84,305.00 834.90,305.00 835.97,305.00 837.02,305.00 838.08,305.00 839.15,305.00 840.21,305.00 841.27,305.00 842.33,305.00 843.40,305.00 844.50,305.00 845.57,305.00 846.63,305.00 847.70,305.00 848.76,305.00 849.83,305.00 850.88,305.00 851.94,305.00 852.99,305.00 854.06,305.00 855.12,305.00 856.19,305.00 857.26,305.00 858.33,305.00 859.43,305.00 860.49,305.00 861.55,305.00 862.61,305.00 863.67,305.00 864.74,305.00 865.81,305.00 866.88,305.00 867.95,305.00 869.02,305.00 870.08,305.00 871.15,305.00 872.21,305.00 873.27,305.00 874.33,305.00 875.40,305.00 876.46,305.00 877.53,305.00 878.60,305.00 879.66,305.00 880.72,305.00 881.78,305.00 882.85,305.00 883.91,305.00 884.98,305.00 886.04,305.00 887.14,305.00 888.20,305.00 889.28,305.00 890.34,305.00 891.43,305.00 892.51,305.00 893.60,305.00 894.67,305.00 895.77,305.00 896.84,305.00 897.90,305.00 898.96,305.00 900.02,305.00 901.09,305.00 902.16,305.00 903.25,305.00 904.30,305.00 905.37,305.00 906.43,305.00 907.49,305.00 908.55,305.00 909.62,305.00 910.67,305.00 911.73,305.00 912.79,305.00 913.85,305.00 914.91,305.00 915.96,305.00 917.02,305.00 918.08,305.00 919.15,305.00 920.21,305.00 921.28,305.00 922.35,305.00 923.40,305.00 924.47,305.00 925.54,305.00 926.60,305.00 927.65,305.00 928.71,305.00 929.78,305.00 930.84,305.00 931.89,305.00 932.94,305.00 934.00,305.00 935.06,305.00 936.13,305.00 937.19,305.00 938.25,305.00 939.31,305.00 940.37,305.00 941.42,305.00 942.50,305.00 943.55,305.00 944.59,305.00 945.65,305.00 946.69,305.00 947.75,305.00 948.82,305.00 949.90,305.00 950.95,305.00 952.01,305.00 953.08,305.00 954.16,305.00 955.22,305.00 956.28,305.00 957.35,305.00 958.41,305.00 959.47,305.00 960.54,305.00 961.61,305.00 962.68,305.00 963.75,305.00 964.81,305.00 965.86,305.00 966.92,305.00 967.98,305.00 969.04,305.00 970.10,305.00 971.14,305.00 972.21,305.00 973.27,305.00 974.34,305.00 975.39,305.00 976.45,305.00 977.51,305.00 978.57,305.00 979.64,305.00 980.70,305.00 981.76,305.00 982.82,305.00 983.88,305.00 984.96,305.00 986.01,305.00 987.07,305.00 988.14,305.00 989.19,305.00 990.25,305.00 991.32,305.00 992.39,305.00 993.44,305.00 994.50,305.00 995.55,305.00 996.65,305.00 997.71,305.00 998.79,305.00 999.87,305.00 1000.94,305.00 1002.00,305.00 1003.06,305.00 1004.13,305.00 1005.19,305.00 1006.25,305.00 1007.32,305.00 1008.40,305.00 1009.47,305.00 1010.53,305.00 1011.60,305.00 1012.65,305.00 1013.72,305.00 1014.79,305.00 1015.84,305.00 1016.90,305.00 1017.96,305.00 1019.02,305.00 1020.08,305.00 1021.14,305.00 1022.21,305.00 1023.26,305.00 1024.31,305.00 1025.37,305.00 1026.43,305.00 1027.49,305.00 1028.57,305.00 1029.63,305.00 1030.68,305.00 1031.74,305.00 1032.81,305.00 1033.85,305.00 1034.93,305.00 1035.98,305.00 1037.06,305.00 1038.12,305.00 1039.18,305.00 1040.23,305.00 1041.30,305.00 1042.36,305.00 1043.41,305.00 1044.49,305.00 1045.58,305.00 1046.65,305.00 1047.74,305.00 1048.82,305.00 1049.90,305.00 1050.99,305.00 1052.07,305.00 1053.18,305.00 1054.26,305.00 1055.35,305.00 1056.41,305.00 1057.46,305.00 1058.53,305.00 1059.60,305.00 1060.67,305.00 1061.73,305.00 1062.80,305.00 1063.87,305.00 1064.93,305.00 1065.99,305.00 1067.04,305.00 1068.10,305.00 1069.16,305.00 1070.22,305.00 1071.28,305.00 1072.35,305.00 1073.41,305.00 1074.47,305.00 1075.55,305.00 1076.61,305.00 1077.67,305.00 1078.73,305.00 1079.79,305.00 1080.86,305.00 1081.92,305.00 1082.98,305.00 1084.04,305.00 1085.10,305.00 1086.17,305.00 1087.23,305.00 1088.29,305.00 1089.35,305.00 1090.41,305.00 1091.48,305.00 1092.61,305.00 1093.71,305.00 1094.76,305.00 1095.83,305.00 1096.88,305.00 1097.96,305.00 1099.04,305.00 1100.11,305.00 1101.17,305.00 1102.22,305.00 1103.26,305.00 1104.32,305.00 1105.38,305.00 1106.45,305.00 1107.51,305.00 1108.57,305.00 1109.64,305.00 1110.71,305.00 1111.78,305.00 1112.83,305.00 1113.89,305.00 1114.95,305.00 1116.02,305.00 1117.08,305.00 1118.14,305.00 1119.20,305.00 1120.27,305.00 1121.33,305.00 1122.39,305.00 1123.50,305.00 1124.57,305.00 1125.63,305.00 1126.69,305.00 1127.75,305.00 1128.81,305.00 1129.88,305.00 1130.95,305.00 1132.00,305.00 1133.07,305.00 1134.14,305.00 1135.21,305.00 1136.28,305.00 1137.35,305.00 1138.41,305.00 1139.47,305.00 1140.54,305.00 1141.59,305.00 1142.66,305.00 1143.71,305.00 1144.79,305.00 1145.85,305.00 1146.91,305.00 1147.98,305.00 1149.03,305.00 1150.10,305.00 1151.16,305.00 1152.21,305.00 1153.28,305.00 1154.34,305.00 1155.41,305.00 1156.46,305.00 1157.53,305.00 1158.59,305.00 1159.65,305.00 1160.72,305.00 1161.78,305.00 1162.84,305.00 1163.89,305.00 1164.94,305.00 1166.00,305.00 1167.08,305.00 1168.13,305.00 1169.22,305.00 1170.29,305.00 1171.35,305.00 1172.42,305.00 1173.48,305.00 1174.56,305.00 1175.70,305.00 1176.78,305.00 1177.85,305.00 1178.93,305.00 1180.00,305.00"/>
<rect x="70" y="332" width="12" height="12" fill="#9467bd" fill-opacity="0.95"/>
<text x="88" y="342" font-size="11" fill="#333" font-family="Arial, Helvetica, sans-serif">nsc1.utdallas.edu</text>
<rect x="350" y="332" width="12" height="12" fill="#9467bd" fill-opacity="0.80"/>
<text x="368" y="342" font-size="11" fill="#333" font-family="Arial, Helvetica, sans-serif">nsc2.utdallas.edu</text>
<rect x="630" y="332" width="12" height="12" fill="#9467bd" fill-opacity="0.65"/>
<text x="648" y="342" font-size="11" fill="#333" font-family="Arial, Helvetica, sans-serif">nsc3.utdallas.edu</text>
<rect x="910" y="332" width="12" height="12" fill="#9467bd" fill-opacity="0.50"/>
<text x="928" y="342" font-size="11" fill="#333" font-family="Arial, Helvetica, sans-serif">nsc4.utdallas.edu</text>
</svg>