<?xml version="1.0" encoding="UTF-8"?>
<svg xmlns="http://www.w3.org/2000/svg" width="1200" height="360" viewBox="0 0 1200 360" role="img" aria-label="GPU Utilization (%)">
<rect width="100%" height="100%" fill="#ffffff"/>
<text x="600.0" y="22" text-anchor="middle" font-size="16" font-family="Arial, Helvetica, sans-serif" font-weight="bold">GPU Utilization (%)</text>
<line x1="70" y1="35.00" x2="1180" y2="35.00" stroke="#e3e3e3" stroke-width="1"/>
<text x="62" y="39.00" text-anchor="end" font-size="11" fill="#444" font-family="Arial, Helvetica, sans-serif">100</text>
<line x1="70" y1="89.00" x2="1180" y2="89.00" stroke="#e3e3e3" stroke-width="1"/>
<text x="62" y="93.00" text-anchor="end" font-size="11" fill="#444" font-family="Arial, Helvetica, sans-serif">80</text>
<line x1="70" y1="143.00" x2="1180" y2="143.00" stroke="#e3e3e3" stroke-width="1"/>
<text x="62" y="147.00" text-anchor="end" font-size="11" fill="#444" font-family="Arial, Helvetica, sans-serif">60</text>
<line x1="70" y1="197.00" x2="1180" y2="197.00" stroke="#e3e3e3" stroke-width="1"/>
<text x="62" y="201.00" text-anchor="end" font-size="11" fill="#444" font-family="Arial, Helvetica, sans-serif">40</text>
<line x1="70" y1="251.00" x2="1180" y2="251.00" stroke="#e3e3e3" stroke-width="1"/>
<text x="62" y="255.00" text-anchor="end" font-size="11" fill="#444" font-family="Arial, Helvetica, sans-serif">20</text>
<line x1="70" y1="305.00" x2="1180" y2="305.00" stroke="#e3e3e3" stroke-width="1"/>
<text x="62" y="309.00" text-anchor="end" font-size="11" fill="#444" font-family="Arial, Helvetica, sans-serif">0</text>
<line x1="70" y1="35" x2="70" y2="305" stroke="#999"/>
<line x1="70" y1="305" x2="1180" y2="305" stroke="#999"/>
<text x="70.00" y="323" text-anchor="middle" font-size="10" fill="#444" font-family="Arial, Helvetica, sans-serif">2026-02-11 16:38</text>
<text x="347.50" y="323" text-anchor="middle" font-size="10" fill="#444" font-family="Arial, Helvetica, sans-serif">2026-02-12 02:11</text>
<text x="625.00" y="323" text-anchor="middle" font-size="10" fill="#444" font-family="Arial, Helvetica, sans-serif">2026-02-12 11:44</text>
<text x="902.50" y="323" text-anchor="middle" font-size="10" fill="#444" font-family="Arial, Helvetica, sans-serif">2026-02-12 21:17</text>
<text x="1180.00" y="323" text-anchor="middle" font-size="10" fill="#444" font-family="Arial, Helvetica, sans-serif">2026-02-13 06:51</text>
<polyline fill="none" stroke="#9467bd" stroke-opacity="0.95" stroke-width="2" points="72.61,305.00 75.22,305.00 77.82,305.00 80.43,305.00 83.06,305.00 85.64,305.00 88.26,305.00 91.08,305.00 93.67,305.00 96.26,305.00 98.85,305.00 101.49,305.00 104.08,305.00 106.67,305.00 111.36,305.00 115.40,305.00 118.03,305.00 120.70,305.00 123.30,305.00 125.90,305.00 128.45,305.00 131.08,305.00 133.67,305.00 136.29,305.00 138.92,305.00 141.57,305.00 144.18,305.00 146.80,305.00 149.53,305.00 152.16,305.00 154.76,305.00 157.43,305.00 160.04,305.00 162.64,305.00 165.33,305.00 167.91,305.00 170.52,305.00 173.17,305.00 175.74,305.00 178.35,305.00 180.92,305.00 183.52,305.00 186.13,305.00 188.72,305.00 191.38,305.00 194.01,305.00 196.59,305.00 199.19,305.00 201.82,305.00 204.42,305.00 207.40,305.00 210.00,305.00 212.60,305.00 215.18,305.00 217.77,305.00 220.35,305.00 222.94,305.00 225.56,305.00 228.15,305.00 230.81,305.00 233.41,305.00 235.98,305.00 238.60,305.00 241.24,305.00 243.84,305.00 246.45,305.00 249.02,305.00 251.61,305.00 254.19,305.00 256.78,305.00 259.37,305.00 261.98,305.00 264.56,305.00 267.17,305.00 269.78,305.00 272.35,305.00 274.98,305.00 277.56,305.00 280.15,305.00 282.82,305.00 285.41,305.00 288.01,305.00 290.63,305.00 293.22,305.00 295.84,305.00 298.43,305.00 301.01,305.00 303.59,305.00 306.21,305.00 308.83,305.00 311.43,305.00 314.06,305.00 316.63,305.00 319.24,305.00 321.83,305.00 324.43,305.00 327.01,305.00 329.61,305.00 332.19,305.00 334.82,305.00 337.42,305.00 340.03,305.00 342.63,305.00 345.27,305.00 347.89,305.00 350.49,305.00 353.08,305.00 355.68,305.00 358.27,305.00 360.90,305.00 363.50,305.00 366.10,305.00 368.70,305.00 371.31,305.00 373.93,305.00 376.55,305.00 379.19,305.00 381.78,305.00 384.39,305.00 386.99,305.00 389.59,305.00 392.19,305.00 394.81,305.00 397.63,305.00 400.22,305.00 402.86,305.00 405.46,305.00 408.04,305.00 410.62,305.00 413.18,305.00 415.78,305.00 418.38,305.00 420.98,305.00 423.57,305.00 426.17,305.00 428.77,305.00 431.35,305.00 434.00,305.00 436.59,305.00 439.19,305.00 441.78,305.00 444.38,305.00 446.97,305.00 449.59,305.00 452.20,305.00 454.81,305.00 457.41,305.00 460.01,305.00 462.59,305.00 465.18,305.00 467.78,305.00 470.38,305.00 472.99,305.00 475.62,305.00 478.22,305.00 480.82,305.00 483.45,305.00 486.06,305.00 488.64,305.00 491.25,305.00 493.86,305.00 496.50,305.00 499.14,305.00 501.73,305.00 504.35,305.00 506.93,305.00 509.51,305.00 512.11,305.00 514.71,305.00 517.30,305.00 519.87,305.00 522.46,305.00 525.09,305.00 527.70,305.00 530.31,305.00 532.91,305.00 535.57,305.00 538.17,305.00 540.77,305.00 543.36,305.00 545.94,305.00 548.77,305.00 551.43,305.00 554.01,305.00 556.60,305.00 559.17,305.00 561.78,305.00 564.38,305.00 566.99,305.00 569.61,305.00 572.20,305.00 574.79,305.00 577.39,305.00 580.05,305.00 582.65,305.00 585.23,305.00 587.83,305.00 590.46,305.00 593.12,305.00 595.78,305.00 598.36,305.00 600.96,305.00 603.57,305.00 606.16,305.00 608.77,305.00 611.38,305.00 614.02,305.00 616.61,305.00 619.19,305.00 621.82,305.00 624.42,305.00 627.02,305.00 629.63,305.00 632.26,305.00 634.87,305.00 637.46,305.00 640.03,305.00 642.62,305.00 645.24,305.00 647.83,305.00 650.42,305.00 653.02,305.00 655.59,305.00 658.19,305.00 660.81,305.00 663.42,305.00 666.03,305.00 668.67,305.00 671.28,305.00 673.90,305.00 676.49,305.00 679.10,305.00 681.70,305.00 684.30,305.00 686.91,305.00 689.57,305.00 692.18,305.00 694.79,305.00 697.40,305.00 699.99,305.00 702.60,305.00 705.17,305.00 707.77,305.00 710.39,305.00 713.00,305.00 715.60,305.00 718.21,305.00 720.83,305.00 723.43,305.00 726.04,305.00 728.66,305.00 731.29,305.00 733.88,305.00 736.47,305.00 739.10,305.00 741.73,305.00 744.34,305.00 746.94,305.00 749.53,305.00 752.42,305.00 755.04,305.00 757.65,305.00 760.26,305.00 762.89,305.00 765.50,305.00 768.11,305.00 770.72,305.00 773.30,305.00 775.99,80.90 778.62,72.80 781.21,305.00 783.80,305.00 786.41,305.00 789.01,305.00 791.62,305.00 794.32,305.00 796.93,305.00 799.53,305.00 802.16,305.00 804.97,305.00 807.58,305.00 810.85,305.00 815.26,305.00 817.92,305.00 820.58,305.00 823.18,305.00 825.73,305.00 828.32,305.00 830.96,305.00 833.58,305.00 836.20,305.00 838.91,305.00 841.60,305.00 844.36,305.00 846.98,305.00 849.58,305.00 852.19,305.00 854.83,305.00 857.46,305.00 860.09,305.00 862.68,305.00 865.28,305.00 867.99,305.00 870.61,305.00 873.19,305.00 875.80,305.00 878.45,305.00 881.15,305.00 883.77,305.00 886.38,305.00 889.05,305.00 891.55,305.00 894.14,305.00 896.79,305.00 899.38,305.00 902.03,305.00 904.71,305.00 907.33,305.00 909.92,305.00 912.56,305.00 915.19,305.00 917.80,305.00 920.39,305.00 922.98,305.00 925.60,305.00 928.21,305.00 930.79,305.00 933.90,305.00 936.96,305.00 940.05,305.00 943.07,305.00 946.05,305.00 949.05,305.00 952.13,305.00 955.16,305.00 957.78,305.00 960.35,305.00 962.95,305.00 965.55,305.00 968.15,305.00 970.73,305.00 973.32,305.00 975.91,305.00 978.52,305.00 981.12,305.00 983.71,305.00 986.30,305.00 988.90,305.00 991.48,305.00 994.08,305.00 996.67,305.00 999.27,305.00 1001.85,305.00 1004.46,305.00 1007.08,305.00 1009.66,305.00 1012.24,305.00 1014.83,305.00 1017.43,305.00 1020.03,305.00 1022.64,305.00 1025.23,305.00 1027.83,305.00 1030.44,305.00 1033.03,305.00 1035.62,305.00 1038.22,305.00 1040.80,305.00 1043.40,305.00 1045.97,305.00 1048.53,305.00 1051.13,305.00 1053.72,305.00 1056.30,305.00 1058.89,305.00 1061.48,305.00 1064.08,305.00 1066.65,305.00 1069.22,305.00 1071.78,305.00 1074.47,305.00 1077.27,305.00 1079.88,305.00 1082.49,305.00 1085.08,305.00 1087.66,305.00 1090.24,305.00 1092.82,305.00 1095.41,305.00 1098.48,305.00 1101.53,305.00 1104.56,305.00 1107.61,305.00 1110.67,305.00 1113.71,305.00 1116.81,305.00 1119.97,305.00 1122.80,305.00 1125.60,305.00 1128.20,305.00 1130.83,305.00 1133.44,305.00 1136.01,305.00 1138.60,305.00 1141.21,305.00 1143.80,305.00 1146.39,305.00 1148.97,305.00 1151.58,305.00 1154.19,305.00 1156.78,305.00 1159.41,305.00 1162.00,305.00 1164.59,305.00 1166.87,305.00 1169.55,305.00 1172.15,305.00 1174.81,305.00 1177.41,305.00 1180.00,305.00"/>
<polyline fill="none" stroke="#9467bd" stroke-opacity="0.80" stroke-width="2" points="70.00,305.00 72.61,305.00 75.22,305.00 77.82,305.00 80.43,305.00 83.06,305.00 85.64,305.00 88.26,305.00 91.08,305.00 93.67,305.00 96.26,305.00 98.85,305.00 101.49,305.00 104.08,305.00 106.67,305.00 111.36,305.00 115.40,305.00 118.03,305.00 120.70,305.00 123.30,305.00 125.90,305.00 128.45,305.00 131.08,305.00 133.67,305.00 136.29,305.00 138.92,305.00 141.57,305.00 144.18,305.00 146.80,305.00 149.53,305.00 152.16,305.00 154.76,305.00 157.43,305.00 160.04,305.00 162.64,305.00 165.33,305.00 167.91,305.00 170.52,305.00 173.17,305.00 175.74,305.00 178.35,305.00 180.92,305.00 183.52,305.00 186.13,305.00 188.72,305.00 191.38,305.00 194.01,305.00 196.59,305.00 199.19,305.00 201.82,305.00 204.42,305.00 207.40,305.00 210.00,305.00 212.60,305.00 215.18,305.00 217.77,305.00 220.35,305.00 222.94,305.00 225.56,305.00 228.15,305.00 230.81,305.00 233.41,305.00 235.98,305.00 238.60,305.00 241.24,305.00 243.84,305.00 246.45,305.00 249.02,305.00 251.61,305.00 254.19,305.00 256.78,305.00 259.37,305.00 261.98,305.00 264.56,305.00 267.17,305.00 269.78,305.00 272.35,305.00 274.98,305.00 277.56,305.00 280.15,305.00 282.82,305.00 285.41,305.00 288.01,305.00 290.63,305.00 293.22,305.00 295.84,305.00 298.43,305.00 301.01,305.00 303.59,305.00 306.21,305.00 308.83,305.00 311.43,305.00 314.06,305.00 316.63,305.00 319.24,305.00 321.83,305.00 324.43,305.00 327.01,305.00 329.61,305.00 332.19,305.00 334.82,305.00 337.42,305.00 340.03,305.00 342.63,305.00 345.27,305.00 347.89,305.00 350.49,305.00 353.08,305.00 355.68,305.00 358.27,305.00 360.90,305.00 363.50,305.00 366.10,305.00 368.70,305.00 371.31,305.00 373.93,305.00 376.55,305.00 379.19,305.00 381.78,305.00 384.39,305.00 386.99,305.00 389.59,305.00 392.19,305.00 394.81,305.00 397.63,305.00 400.22,305.00 402.86,305.00 405.46,305.00 408.04,305.00 410.62,305.00 413.18,305.00 415.78,305.00 418.38,305.00 420.98,305.00 423.57,305.00 426.17,305.00 428.77,305.00 431.35,305.00 434.00,305.00 436.59,305.00 439.19,305.00 441.78,305.00 444.38,305.00 446.97,305.00 449.59,305.00 452.20,305.00 454.81,305.00 457.41,305.00 460.01,305.00 462.59,305.00 465.18,305.00 467.78,305.00 470.38,305.00 472.99,305.00 475.62,305.00 478.22,305.00 480.82,305.00 483.45,305.00 486.06,305.00 488.64,305.00 491.25,305.00 493.86,305.00 496.50,305.00 499.14,305.00 501.73,305.00 504.35,305.00 506.93,305.00 509.51,305.00 512.11,305.00 514.71,305.00 517.30,305.00 519.87,305.00 522.46,305.00 525.09,305.00 527.70,305.00 530.31,305.00 532.91,305.00 535.57,305.00 538.17,305.00 540.77,305.00 543.36,305.00 545.94,305.00 548.77,305.00 551.43,305.00 554.01,305.00 556.60,305.00 559.17,305.00 561.78,305.00 564.38,305.00 566.99,305.00 569.61,305.00 572.20,305.00 574.79,305.00 577.39,305.00 580.05,305.00 582.65,305.00 585.23,305.00 587.83,305.00 590.46,305.00 593.12,305.00 595.78,305.00 598.36,305.00 600.96,305.00 603.57,305.00 606.16,305.00 608.77,305.00 611.38,305.00 614.02,305.00 616.61,305.00 619.19,305.00 621.82,305.00 624.42,305.00 627.02,305.00 629.63,305.00 632.26,305.00 634.87,305.00 637.46,305.00 640.03,305.00 642.62,305.00 645.24,305.00 647.83,305.00 650.42,305.00 653.02,305.00 655.59,305.00 658.19,305.00 660.81,305.00 663.42,305.00 666.03,305.00 668.67,305.00 671.28,305.00 673.90,305.00 676.49,305.00 679.10,305.00 681.70,305.00 684.30,305.00 686.91,305.00 689.57,305.00 692.18,305.00 694.79,305.00 697.40,305.00 699.99,305.00 702.60,305.00 705.17,305.00 707.77,305.00 710.39,305.00 713.00,305.00 715.60,305.00 718.21,305.00 720.83,305.00 723.43,305.00 726.04,305.00 728.66,305.00 731.29,305.00 733.88,305.00 736.47,305.00 739.10,305.00 741.73,305.00 744.34,305.00 746.94,305.00 749.53,305.00 752.42,305.00 755.04,305.00 757.65,305.00 760.26,305.00 762.89,305.00 765.50,305.00 768.11,305.00 770.72,305.00 773.30,305.00 775.99,305.00 778.62,305.00 781.21,305.00 783.80,305.00 786.41,305.00 789.01,305.00 791.62,305.00 794.32,305.00 796.93,305.00 799.53,305.00 802.16,305.00 804.97,305.00 807.58,305.00 810.85,305.00 815.26,305.00 817.92,305.00 820.58,305.00 823.18,305.00 825.73,305.00 828.32,305.00 830.96,305.00 833.58,305.00 836.20,305.00 838.91,305.00 841.60,305.00 844.36,305.00 846.98,305.00 849.58,305.00 852.19,305.00 854.83,305.00 857.46,305.00 860.09,305.00 862.68,305.00 865.28,305.00 867.99,305.00 870.61,305.00 873.19,305.00 875.80,305.00 878.45,305.00 881.15,305.00 883.77,305.00 886.38,305.00 889.05,305.00 891.55,305.00 894.14,305.00 896.79,305.00 899.38,305.00 902.03,305.00 904.71,305.00 907.33,305.00 909.92,305.00 912.56,305.00 915.19,305.00 917.80,305.00 920.39,305.00 922.98,305.00 925.60,305.00 928.21,305.00 930.79,305.00 933.90,305.00 936.96,305.00 940.05,305.00 943.07,305.00 946.05,305.00 949.05,305.00 952.13,305.00 955.16,305.00 957.78,305.00 960.35,305.00 962.95,305.00 965.55,305.00 968.15,305.00 970.73,305.00 973.32,305.00 975.91,305.00 978.52,305.00 981.12,305.00 983.71,305.00 986.30,305.00 988.90,305.00 991.48,305.00 994.08,305.00 996.67,305.00 999.27,305.00 1001.85,305.00 1004.46,305.00 1007.08,305.00 1009.66,305.00 1012.24,305.00 1014.83,305.00 1017.43,305.00 1020.03,305.00 1022.64,305.00 1025.23,305.00 1027.83,305.00 1030.44,305.00 1033.03,305.00 1035.62,305.00 1038.22,305.00 1040.80,305.00 1043.40,305.00 1045.97,305.00 1048.53,305.00 1051.13,305.00 1053.72,305.00 1056.30,305.00 1058.89,305.00 1061.48,305.00 1064.08,305.00 1066.65,305.00 1069.22,305.00 1071.78,305.00 1074.47,305.00 1077.27,305.00 1079.88,305.00 1082.49,305.00 1085.08,305.00 1087.66,305.00 1090.24,305.00 1092.82,305.00 1095.41,305.00 1098.48,305.00 1101.53,305.00 1104.56,305.00 1107.61,305.00 1110.67,305.00 1113.71,305.00 1116.81,305.00 1119.97,305.00 1122.80,305.00 1125.60,305.00 1128.20,305.00 1130.83,305.00 1133.44,305.00 1136.01,305.00 1138.60,305.00 1141.21,305.00 1143.80,305.00 1146.39,305.00 1148.97,305.00 1151.58,305.00 1154.19,305.00 1156.78,305.00 1159.41,305.00 1162.00,305.00 1164.59,305.00 1166.87,305.00 1169.55,305.00 1172.15,305.00 1174.81,305.00 1177.41,305.00 1180.00,305.00"/>
<polyline fill="none" stroke="#9467bd" stroke-opacity="0.65" stroke-width="2" points="1166.87,305.00 1169.55,305.00 1172.15,305.00 1174.81,305.00 1177.41,305.00 1180.00,305.00"/>
<polyline fill="none" stroke="#9467bd" stroke-opacity="0.50" stroke-width="2" points="70.00,305.00 72.61,305.00 75.22,305.00 77.82,305.00 80.43,305.00 83.06,305.00 85.64,305.00 88.26,305.00 91.08,305.00 93.67,305.00 96.26,305.00 98.85,305.00 101.49,305.00 104.08,305.00 106.67,305.00 111.36,305.00 115.40,305.00 118.03,305.00 120.70,305.00 123.30,305.00 125.90,305.00 128.45,305.00 131.08,305.00 133.67,305.00 136.29,305.00 138.92,305.00 141.57,305.00 144.18,305.00 146.80,305.00 149.53,305.00 152.16,305.00 154.76,305.00 157.43,305.00 160.04,305.00 162.64,305.00 165.33,305.00 167.91,305.00 170.52,305.00 173.17,305.00 175.74,305.00 178.35,305.00 180.92,305.00 183.52,305.00 186.13,305.00 188.72,305.00 191.38,305.00 194.01,305.00 196.59,305.00 199.19,305.00 201.82,305.00 204.42,305.00 207.40,305.00 210.00,305.00 212.60,305.00 215.18,305.00 217.77,305.00 220.35,305.00 222.94,305.00 225.56,305.00 228.15,305.00 230.81,305.00 233.41,305.00 235.98,305.00 238.60,305.00 241.24,305.00 243.84,305.00 246.45,305.00 249.02,305.00 251.61,305.00 254.19,305.00 256.78,305.00 259.37,305.00 261.98,305.00 264.56,305.00 267.17,305.00 269.78,305.00 272.35,305.00 274.98,305.00 277.56,305.00 280.15,305.00 282.82,305.00 285.41,305.00 288.01,305.00 290.63,305.00 293.22,305.00 295.84,305.00 298.43,305.00 301.01,305.00 303.59,305.00 306.21,305.00 308.83,305.00 311.43,305.00 314.06,305.00 316.63,305.00 319.24,305.00 321.83,305.00 324.43,305.00 327.01,305.00 329.61,305.00 332.19,305.00 334.82,305.00 337.42,305.00 340.03,305.00 342.63,305.00 345.27,305.00 347.89,305.00 350.49,305.00 353.08,305.00 355.68,305.00 358.27,305.00 360.90,305.00 363.50,305.00 366.10,305.00 368.70,305.00 371.31,305.00 373.93,305.00 376.55,305.00 379.19,305.00 381.78,305.00 384.39,305.00 386.99,305.00 389.59,305.00 392.19,305.00 394.81,305.00 397.63,305.00 400.22,305.00 402.86,305.00 405.46,305.00 408.04,305.00 410.62,305.00 413.18,305.00 415.78,305.00 418.38,305.00 420.98,305.00 423.57,305.00 426.17,305.00 428.77,305.00 431.35,305.00 434.00,305.00 436.59,305.00 439.19,305.00 441.78,305.00 444.38,305.00 446.97,305.00 449.59,305.00 452.20,305.00 454.81,305.00 457.41,305.00 460.01,305.00 462.59,305.00 465.18,305.00 467.78,305.00 470.38,305.00 472.99,305.00 475.62,305.00 478.22,305.00 480.82,305.00 483.45,305.00 486.06,305.00 488.64,305.00 491.25,305.00 493.86,305.00 496.50,305.00 499.14,305.00 501.73,305.00 504.35,305.00 506.93,305.00 509.51,305.00 512.11,305.00 514.71,305.00 517.30,305.00 519.87,305.00 522.46,305.00 525.09,305.00 527.70,305.00 530.31,305.00 532.91,305.00 535.57,305.00 538.17,305.00 540.77,305.00 543.36,305.00 545.94,305.00 548.77,305.00 551.43,305.00 554.01,305.00 556.60,305.00 559.17,305.00 561.78,305.00 564.38,305.00 566.99,305.00 569.61,305.00 572.20,305.00 574.79,305.00 577.39,305.00 580.05,305.00 582.65,305.00 585.23,305.00 587.83,305.00 590.46,305.00 593.12,305.00 595.78,305.00 598.36,305.00 600.96,305.00 603.57,305.00 606.16,305.00 608.77,305.00 611.38,305.00 614.02,305.00 616.61,305.00 619.19,305.00 621.82,305.00 624.42,305.00 627.02,305.00 629.63,305.00 632.26,305.00 634.87,305.00 637.46,305.00 640.03,305.00 642.62,305.00 645.24,305.00 647.83,305.00 650.42,305.00 653.02,305.00 655.59,305.00 658.19,305.00 660.81,305.00 663.42,305.00 666.03,305.00 668.67,305.00 671.28,305.00 673.90,305.00 676.49,305.00 679.10,305.00 681.70,305.00 684.30,305.00 686.91,305.00 689.57,305.00 692.18,305.00 694.79,305.00 697.40,305.00 699.99,305.00 702.60,305.00 705.17,305.00 707.77,305.00 710.39,305.00 713.00,305.00 715.60,305.00 718.21,305.00 720.83,305.00 723.43,305.00 726.04,305.00 728.66,305.00 731.29,305.00 733.88,305.00 736.47,305.00 739.10,305.00 741.73,305.00 744.34,305.00 746.94,305.00 749.53,305.00 752.42,305.00 755.04,305.00 757.65,305.00 760.26,305.00 762.89,305.00 765.50,305.00 768.11,305.00 770.72,305.00 773.30,305.00 775.99,305.00 778.62,305.00 781.21,305.00 783.80,305.00 786.41,305.00 789.01,305.00 791.62,305.00 794.32,305.00 796.93,305.00 799.53,305.00 802.16,305.00 804.97,305.00 807.58,305.00 810.85,305.00 815.26,305.00 817.92,305.00 820.58,305.00 823.18,305.00 825.73,305.00 828.32,305.00 830.96,305.00 833.58,305.00 836.20,305.00 838.91,305.00 841.60,305.00 844.36,305.00 846.98,305.00 849.58,305.00 852.19,305.00 854.83,305.00 857.46,305.00 860.09,305.00 862.68,305.00 865.28,305.00 867.99,305.00 870.61,305.00 873.19,305.00 875.80,305.00 878.45,305.00 881.15,305.00 883.77,305.00 886.38,305.00 889.05,305.00 891.55,305.00 894.14,305.00 896.79,305.00 899.38,305.00 902.03,305.00 904.71,305.00 907.33,305.00 909.92,305.00 912.56,305.00 915.19,305.00 917.80,305.00 920.39,305.00 922.98,305.00 925.60,305.00 928.21,305.00 930.79,305.00 933.90,305.00 936.96,305.00 940.05,305.00 943.07,305.00 946.05,305.00 949.05,305.00 952.13,305.00 955.16,305.00 957.78,305.00 960.35,305.00 962.95,305.00 965.55,305.00 968.15,305.00 970.73,305.00 973.32,305.00 975.91,305.00 978.52,305.00 981.12,305.00 983.71,305.00 986.30,305.00 988.90,305.00 991.48,305.00 994.08,305.00 996.67,305.00 999.27,305.00 1001.85,305.00 1004.46,305.00 1007.08,305.00 1009.66,305.00 1012.24,305.00 1014.83,305.00 1017.43,305.00 1020.03,305.00 1022.64,305.00 1025.23,305.00 1027.83,305.00 1030.44,305.00 1033.03,305.00 1035.62,305.00 1038.22,305.00 1040.80,305.00 1043.40,305.00 1045.97,305.00 1048.53,305.00 1051.13,305.00 1053.72,305.00 1056.30,305.00 1058.89,305.00 1061.48,305.00 1064.08,305.00 1066.65,305.00 1069.22,305.00 1071.78,305.00 1074.47,305.00 1077.27,305.00 1079.88,305.00 1082.49,305.00 1085.08,305.00 1087.66,305.00 1090.24,305.00 1092.82,305.00 1095.41,305.00 1098.48,305.00 1101.53,305.00 1104.56,305.00 1107.61,305.00 1110.67,305.00 1113.71,305.00 1116.81,305.00 1119.97,305.00 1122.80,305.00 1125.60,305.00 1128.20,305.00 1130.83,305.00 1133.44,305.00 1136.01,305.00 1138.60,305.00 1141.21,305.00 1143.80,305.00 1146.39,305.00 1148.97,305.00 1151.58,305.00 1154.19,305.00 1156.78,305.00 1159.41,305.00 1162.00,305.00 1164.59,305.00 1166.87,305.00 1169.55,305.00 1172.15,305.00 1174.81,305.00 1177.41,305.00 1180.00,305.00"/>
<rect x="70" y="332" width="12" height="12" fill="#9467bd" fill-opacity="0.95"/>
<text x="88" y="342" font-size="11" fill="#333" font-family="Arial, Helvetica, sans-serif">nsc1.utdallas.edu</text>
<rect x="350" y="332" width="12" height="12" fill="#9467bd" fill-opacity="0.80"/>
<text x="368" y="342" font-size="11" fill="#333" font-family="Arial, Helvetica, sans-serif">nsc2.utdallas.edu</text>
<rect x="630" y="332" width="12" height="12" fill="#9467bd" fill-opacity="0.65"/>
<text x="648" y="342" font-size="11" fill="#333" font-family="Arial, Helvetica, sans-serif">nsc3.utdallas.edu</text>
<rect x="910" y="332" width="12" height="12" fill="#9467bd" fill-opacity="0.50"/>
<text x="928" y="342" font-size="11" fill="#333" font-family="Arial, Helvetica, sans-serif">nsc4.utdallas.edu</text>
</svg>