<?xml version="1.0" encoding="UTF-8"?>
<svg xmlns="http://www.w3.org/2000/svg" width="1200" height="360" viewBox="0 0 1200 360" role="img" aria-label="GPU Utilization (%)">
<rect width="100%" height="100%" fill="#ffffff"/>
<text x="600.0" y="22" text-anchor="middle" font-size="16" font-family="Arial, Helvetica, sans-serif" font-weight="bold">GPU Utilization (%)</text>
<line x1="70" y1="35.00" x2="1180" y2="35.00" stroke="#e3e3e3" stroke-width="1"/>
<text x="62" y="39.00" text-anchor="end" font-size="11" fill="#444" font-family="Arial, Helvetica, sans-serif">100</text>
<line x1="70" y1="89.00" x2="1180" y2="89.00" stroke="#e3e3e3" stroke-width="1"/>
<text x="62" y="93.00" text-anchor="end" font-size="11" fill="#444" font-family="Arial, Helvetica, sans-serif">80</text>
<line x1="70" y1="143.00" x2="1180" y2="143.00" stroke="#e3e3e3" stroke-width="1"/>
<text x="62" y="147.00" text-anchor="end" font-size="11" fill="#444" font-family="Arial, Helvetica, sans-serif">60</text>
<line x1="70" y1="197.00" x2="1180" y2="197.00" stroke="#e3e3e3" stroke-width="1"/>
<text x="62" y="201.00" text-anchor="end" font-size="11" fill="#444" font-family="Arial, Helvetica, sans-serif">40</text>
<line x1="70" y1="251.00" x2="1180" y2="251.00" stroke="#e3e3e3" stroke-width="1"/>
<text x="62" y="255.00" text-anchor="end" font-size="11" fill="#444" font-family="Arial, Helvetica, sans-serif">20</text>
<line x1="70" y1="305.00" x2="1180" y2="305.00" stroke="#e3e3e3" stroke-width="1"/>
<text x="62" y="309.00" text-anchor="end" font-size="11" fill="#444" font-family="Arial, Helvetica, sans-serif">0</text>
<line x1="70" y1="35" x2="70" y2="305" stroke="#999"/>
<line x1="70" y1="305" x2="1180" y2="305" stroke="#999"/>
<text x="70.00" y="323" text-anchor="middle" font-size="10" fill="#444" font-family="Arial, Helvetica, sans-serif">2026-02-11 16:38</text>
<text x="347.50" y="323" text-anchor="middle" font-size="10" fill="#444" font-family="Arial, Helvetica, sans-serif">2026-02-13 03:21</text>
<text x="625.00" y="323" text-anchor="middle" font-size="10" fill="#444" font-family="Arial, Helvetica, sans-serif">2026-02-14 14:05</text>
<text x="902.50" y="323" text-anchor="middle" font-size="10" fill="#444" font-family="Arial, Helvetica, sans-serif">2026-02-16 00:48</text>
<text x="1180.00" y="323" text-anchor="middle" font-size="10" fill="#444" font-family="Arial, Helvetica, sans-serif">2026-02-17 11:32</text>
<polyline fill="none" stroke="#9467bd" stroke-opacity="0.95" stroke-width="2" points="70.72,305.00 71.44,305.00 72.15,305.00 72.87,305.00 73.59,305.00 74.30,305.00 75.02,305.00 75.80,305.00 76.51,305.00 77.23,305.00 77.94,305.00 78.67,305.00 79.38,305.00 80.09,305.00 81.38,305.00 82.49,305.00 83.22,305.00 83.95,305.00 84.67,305.00 85.38,305.00 86.08,305.00 86.81,305.00 87.52,305.00 88.24,305.00 88.96,305.00 89.69,305.00 90.41,305.00 91.13,305.00 91.89,305.00 92.61,305.00 93.32,305.00 94.06,305.00 94.78,305.00 95.49,305.00 96.23,305.00 96.94,305.00 97.66,305.00 98.39,305.00 99.10,305.00 99.81,305.00 100.52,305.00 101.24,305.00 101.96,305.00 102.67,305.00 103.40,305.00 104.13,305.00 104.83,305.00 105.55,305.00 106.27,305.00 106.99,305.00 107.81,305.00 108.53,305.00 109.24,305.00 109.95,305.00 110.66,305.00 111.37,305.00 112.09,305.00 112.80,305.00 113.52,305.00 114.25,305.00 114.96,305.00 115.67,305.00 116.39,305.00 117.12,305.00 117.83,305.00 118.55,305.00 119.26,305.00 119.97,305.00 120.69,305.00 121.40,305.00 122.11,305.00 122.83,305.00 123.54,305.00 124.25,305.00 124.97,305.00 125.68,305.00 126.40,305.00 127.11,305.00 127.83,305.00 128.56,305.00 129.28,305.00 129.99,305.00 130.71,305.00 131.42,305.00 132.14,305.00 132.86,305.00 133.57,305.00 134.28,305.00 135.00,305.00 135.72,305.00 136.43,305.00 137.16,305.00 137.86,305.00 138.58,305.00 139.30,305.00 140.01,305.00 140.72,305.00 141.44,305.00 142.15,305.00 142.87,305.00 143.59,305.00 144.30,305.00 145.02,305.00 145.75,305.00 146.47,305.00 147.18,305.00 147.90,305.00 148.61,305.00 149.32,305.00 150.05,305.00 150.76,305.00 151.48,305.00 152.19,305.00 152.91,305.00 153.63,305.00 154.35,305.00 155.08,305.00 155.79,305.00 156.51,305.00 157.23,305.00 157.94,305.00 158.66,305.00 159.38,305.00 160.16,305.00 160.87,305.00 161.59,305.00 162.31,305.00 163.02,305.00 163.73,305.00 164.43,305.00 165.15,305.00 165.87,305.00 166.58,305.00 167.29,305.00 168.01,305.00 168.72,305.00 169.43,305.00 170.16,305.00 170.88,305.00 171.59,305.00 172.30,305.00 173.02,305.00 173.73,305.00 174.45,305.00 175.17,305.00 175.89,305.00 176.60,305.00 177.32,305.00 178.03,305.00 178.74,305.00 179.46,305.00 180.17,305.00 180.89,305.00 181.61,305.00 182.33,305.00 183.05,305.00 183.77,305.00 184.49,305.00 185.20,305.00 185.92,305.00 186.63,305.00 187.36,305.00 188.09,305.00 188.80,305.00 189.52,305.00 190.23,305.00 190.94,305.00 191.66,305.00 192.37,305.00 193.08,305.00 193.79,305.00 194.51,305.00 195.23,305.00 195.95,305.00 196.67,305.00 197.38,305.00 198.11,305.00 198.83,305.00 199.54,305.00 200.25,305.00 200.97,305.00 201.74,305.00 202.48,305.00 203.19,305.00 203.90,305.00 204.61,305.00 205.32,305.00 206.04,305.00 206.76,305.00 207.48,305.00 208.19,305.00 208.90,305.00 209.62,305.00 210.35,305.00 211.07,305.00 211.78,305.00 212.49,305.00 213.22,305.00 213.95,305.00 214.68,305.00 215.39,305.00 216.11,305.00 216.82,305.00 217.54,305.00 218.26,305.00 218.97,305.00 219.70,305.00 220.41,305.00 221.12,305.00 221.84,305.00 222.56,305.00 223.28,305.00 223.99,305.00 224.72,305.00 225.44,305.00 226.15,305.00 226.86,305.00 227.57,305.00 228.29,305.00 229.00,305.00 229.72,305.00 230.43,305.00 231.14,305.00 231.85,305.00 232.58,305.00 233.29,305.00 234.01,305.00 234.74,305.00 235.45,305.00 236.18,305.00 236.89,305.00 237.61,305.00 238.32,305.00 239.04,305.00 239.76,305.00 240.49,305.00 241.21,305.00 241.93,305.00 242.64,305.00 243.35,305.00 244.07,305.00 244.78,305.00 245.50,305.00 246.22,305.00 246.94,305.00 247.65,305.00 248.37,305.00 249.09,305.00 249.81,305.00 250.52,305.00 251.24,305.00 251.97,305.00 252.68,305.00 253.40,305.00 254.12,305.00 254.84,305.00 255.56,305.00 256.27,305.00 256.99,305.00 257.78,305.00 258.51,305.00 259.22,305.00 259.94,305.00 260.66,305.00 261.38,305.00 262.10,305.00 262.82,305.00 263.53,305.00 264.27,80.90 264.99,72.80 265.70,305.00 266.42,305.00 267.14,305.00 267.85,305.00 268.57,305.00 269.31,305.00 270.03,305.00 270.75,305.00 271.47,305.00 272.24,305.00 272.96,305.00 273.86,305.00 275.07,305.00 275.81,305.00 276.54,305.00 277.25,305.00 277.96,305.00 278.67,305.00 279.40,305.00 280.12,305.00 280.84,305.00 281.58,305.00 282.32,305.00 283.08,305.00 283.80,305.00 284.52,305.00 285.24,305.00 285.96,305.00 286.69,305.00 287.41,305.00 288.12,305.00 288.84,305.00 289.58,305.00 290.31,305.00 291.01,305.00 291.73,305.00 292.46,305.00 293.21,305.00 293.93,305.00 294.64,305.00 295.38,305.00 296.07,305.00 296.78,305.00 297.51,305.00 298.22,305.00 298.95,305.00 299.69,305.00 300.41,305.00 301.12,305.00 301.85,305.00 302.57,305.00 303.29,305.00 304.00,305.00 304.72,305.00 305.44,305.00 306.16,305.00 306.87,305.00 307.72,305.00 308.56,305.00 309.41,305.00 310.24,305.00 311.06,305.00 311.89,305.00 312.74,305.00 313.57,305.00 314.29,305.00 315.00,305.00 315.71,305.00 316.43,305.00 317.15,305.00 317.86,305.00 318.57,305.00 319.28,305.00 320.00,305.00 320.71,305.00 321.43,305.00 322.14,305.00 322.86,305.00 323.57,305.00 324.28,305.00 324.99,305.00 325.71,305.00 326.42,305.00 327.14,305.00 327.86,305.00 328.57,305.00 329.28,305.00 329.99,305.00 330.70,305.00 331.42,305.00 332.14,305.00 332.85,305.00 333.57,305.00 334.29,305.00 335.00,305.00 335.71,305.00 336.43,305.00 337.14,305.00 337.85,305.00 338.56,305.00 339.26,305.00 339.98,305.00 340.69,305.00 341.40,305.00 342.11,305.00 342.83,305.00 343.54,305.00 344.25,305.00 344.96,305.00 345.66,305.00 346.40,305.00 347.17,305.00 347.89,305.00 348.61,305.00 349.32,305.00 350.03,305.00 350.74,305.00 351.45,305.00 352.16,305.00 353.01,305.00 353.85,305.00 354.68,305.00 355.52,305.00 356.36,305.00 357.20,305.00 358.05,305.00 358.92,305.00 359.70,305.00 360.47,305.00 361.19,305.00 361.91,305.00 362.63,305.00 363.34,305.00 364.05,305.00 364.77,305.00 365.48,305.00 366.19,305.00 366.90,305.00 367.62,305.00 368.34,305.00 369.05,305.00 369.78,305.00 370.49,305.00 371.20,305.00 371.83,305.00 372.57,305.00 373.28,305.00 374.01,305.00 374.73,305.00 375.44,305.00 376.16,305.00 376.88,305.00 377.60,305.00 378.33,305.00 379.05,305.00 379.78,305.00 380.49,305.00 381.19,305.00 381.91,305.00 382.62,305.00 383.33,305.00 384.04,305.00 384.77,305.00 385.48,305.00 386.20,305.00 386.91,305.00 387.62,305.00 388.34,305.00 389.06,305.00 389.78,305.00 390.50,305.00 391.21,305.00 391.93,305.00 392.65,305.00 393.37,305.00 394.11,305.00 394.81,305.00 395.53,305.00 396.24,305.00 396.95,305.00 397.66,305.00 398.38,305.00 399.10,305.00 399.81,305.00 400.52,305.00 401.24,305.00 401.95,305.00 402.67,305.00 403.39,305.00 404.11,305.00 404.97,305.00 405.70,305.00 406.44,305.00 407.16,305.00 407.88,305.00 408.60,305.00 409.31,305.00 410.02,305.00 410.75,305.00 411.47,305.00 412.18,305.00 412.90,305.00 413.62,305.00 414.33,305.00 415.08,305.00 415.80,305.00 416.52,305.00 417.24,305.00 417.95,305.00 418.67,305.00 419.38,305.00 420.10,305.00 420.85,305.00 421.56,305.00 422.29,305.00 423.00,305.00 423.72,305.00 424.44,305.00 425.15,305.00 425.87,305.00 426.59,305.00 427.30,305.00 428.02,305.00 428.74,305.00 429.45,305.00 430.17,305.00 430.89,305.00 431.62,305.00 432.33,305.00 433.05,305.00 433.76,305.00 434.47,305.00 435.20,305.00 435.92,305.00 436.78,305.00 437.52,305.00 438.24,305.00 438.95,305.00 439.66,305.00 440.39,305.00 441.10,305.00 441.82,305.00 442.55,305.00 443.27,305.00 443.98,305.00 444.69,305.00 445.41,305.00 446.12,305.00 446.84,305.00 447.56,305.00 448.27,305.00 448.99,305.00 449.70,305.00 450.42,305.00 451.14,305.00 451.85,305.00 452.57,305.00 453.29,305.00 454.02,305.00 454.73,305.00 455.44,305.00 456.16,305.00 456.90,305.00 457.61,305.00 458.33,305.00 459.05,305.00 459.77,305.00 460.48,305.00 461.20,305.00 461.92,305.00 462.65,305.00 463.37,305.00 464.08,305.00 464.79,305.00 465.51,305.00 466.22,305.00 466.94,305.00 467.65,305.00 468.38,305.00 469.10,305.00 469.83,305.00 470.53,305.00 471.25,305.00 471.96,305.00 472.68,305.00 473.40,305.00 474.11,305.00 474.83,305.00 475.55,305.00 476.27,305.00 476.98,305.00 477.71,305.00 478.43,305.00 479.15,305.00 479.87,305.00 480.59,305.00 481.40,305.00 482.18,305.00 482.95,305.00 483.68,305.00 484.42,305.00 485.14,305.00 485.86,305.00 486.57,305.00 487.24,305.00 487.99,305.00 488.71,305.00 489.43,305.00 490.14,305.00 490.86,305.00 491.57,305.00 492.29,305.00 493.00,305.00 493.72,305.00 494.44,305.00 495.16,305.00 495.88,305.00 496.60,305.00 497.32,305.00 498.05,305.00 498.77,305.00 499.48,305.00 500.20,305.00 500.93,305.00 501.65,305.00 502.36,305.00 503.08,305.00 503.80,305.00 504.51,305.00 505.23,305.00 505.95,305.00 506.66,305.00 507.39,305.00 508.10,305.00 508.82,305.00 509.54,305.00 510.26,305.00 510.98,305.00 511.70,305.00 512.41,305.00 513.13,305.00 513.85,305.00 514.57,305.00 515.29,305.00 516.02,305.00 516.73,305.00 517.45,305.00 518.17,305.00 518.89,305.00 519.62,305.00 520.36,305.00 521.07,305.00 521.79,305.00 522.51,305.00 523.23,305.00 523.94,305.00 524.66,305.00 525.39,305.00 526.11,305.00 526.82,305.00 527.54,305.00 528.26,305.00 528.98,305.00 529.71,305.00 530.43,305.00 531.15,305.00 531.87,305.00 532.59,305.00 533.32,305.00 534.04,305.00 534.75,305.00 535.47,305.00 536.19,305.00 536.93,305.00 537.65,305.00 538.38,305.00 539.10,305.00 539.81,305.00 540.52,305.00 541.24,305.00 541.96,305.00 542.68,305.00 543.40,305.00 544.12,305.00 544.84,305.00 545.56,305.00 546.28,305.00 547.00,305.00 547.71,305.00 548.44,305.00 549.16,305.00 549.88,305.00 550.60,305.00 551.32,305.00 552.03,305.00 552.74,305.00 553.46,305.00 554.19,305.00 554.91,305.00 555.63,305.00 556.35,305.00 557.07,305.00 557.79,305.00 558.52,305.00 559.23,305.00 559.95,305.00 560.68,305.00 561.40,305.00 562.12,305.00 562.84,305.00 563.57,305.00 564.29,305.00 565.01,305.00 565.74,305.00 566.47,305.00 567.19,305.00 567.91,305.00 568.63,305.00 569.35,305.00 570.07,305.00 570.80,305.00 571.52,305.00 572.24,305.00 572.96,305.00 573.67,305.00 574.41,305.00 575.12,305.00 575.85,305.00 576.57,305.00 577.28,305.00 578.00,305.00 578.71,305.00 579.42,305.00 580.15,305.00 580.87,305.00 581.59,305.00 582.30,305.00 583.03,305.00 583.74,305.00 584.48,305.00 585.21,305.00 585.92,305.00 586.64,305.00 587.35,305.00 588.07,305.00 588.79,305.00 589.52,305.00 590.24,305.00 590.95,305.00 591.68,305.00 592.40,305.00 593.11,305.00 593.84,305.00 594.56,305.00 595.30,305.00 596.03,305.00 596.75,305.00 597.48,305.00 598.20,305.00 598.92,305.00 599.63,305.00 600.35,305.00 601.06,305.00 601.79,305.00 602.51,305.00 603.24,305.00 603.96,305.00 604.69,305.00 605.43,305.00 606.15,305.00 606.87,305.00 607.59,305.00 608.31,305.00 609.04,305.00 609.76,305.00 610.49,305.00 611.21,305.00 611.94,305.00 612.66,305.00 613.38,305.00 614.10,305.00 614.82,305.00 615.54,305.00 616.26,305.00 616.98,305.00 617.71,305.00 618.43,305.00 619.15,305.00 619.87,305.00 620.59,305.00 621.32,305.00 622.04,305.00 622.76,305.00 623.48,305.00 624.23,305.00 624.95,305.00 625.68,305.00 626.40,305.00 627.13,305.00 627.87,305.00 628.60,305.00 629.34,305.00 630.08,305.00 630.80,305.00 631.52,305.00 632.24,305.00 632.96,305.00 633.69,305.00 634.41,305.00 635.15,305.00 635.87,305.00 636.59,305.00 637.31,305.00 638.03,305.00 638.75,305.00 639.47,305.00 640.19,305.00 640.91,305.00 641.62,305.00 642.34,305.00 643.06,305.00 643.77,305.00 644.49,305.00 645.21,305.00 645.94,305.00 646.65,305.00 647.38,305.00 648.11,305.00 648.82,305.00 649.55,305.00 650.27,305.00 650.99,305.00 651.70,305.00 652.42,305.00 653.15,305.00 653.87,305.00 654.58,305.00 655.29,305.00 656.01,305.00 656.73,305.00 657.45,305.00 658.17,305.00 658.89,305.00 659.61,305.00 660.33,305.00 661.05,305.00 661.77,305.00 662.49,305.00 663.19,305.00 663.91,305.00 664.61,305.00 665.34,305.00 666.06,305.00 666.79,305.00 667.51,305.00 668.23,305.00 668.95,305.00 669.68,305.00 670.40,305.00 671.12,305.00 671.85,305.00 672.57,305.00 673.28,305.00 674.01,305.00 674.73,305.00 675.46,305.00 676.19,305.00 676.91,305.00 677.62,305.00 678.34,305.00 679.05,305.00 679.77,305.00 680.49,305.00 681.20,305.00 681.92,305.00 682.64,305.00 683.37,305.00 684.08,305.00 684.80,305.00 685.52,305.00 686.24,305.00 686.96,305.00 687.69,305.00 688.40,305.00 689.12,305.00 689.84,305.00 690.57,305.00 691.28,305.00 692.00,305.00 692.73,305.00 693.44,305.00 694.16,305.00 694.89,305.00 695.61,305.00 696.33,305.00 697.04,305.00 697.76,305.00 698.50,305.00 699.22,305.00 699.96,305.00 700.69,305.00 701.41,305.00 702.13,305.00 702.85,305.00 703.58,305.00 704.30,305.00 705.01,305.00 705.74,305.00 706.47,305.00 707.20,305.00 707.91,305.00 708.64,305.00 709.36,305.00 710.08,305.00 710.80,305.00 711.52,305.00 712.23,305.00 712.96,305.00 713.68,305.00 714.39,305.00 715.11,305.00 715.84,305.00 716.55,305.00 717.26,305.00 717.98,305.00 718.70,305.00 719.42,305.00 720.15,305.00 720.87,305.00 721.58,305.00 722.30,305.00 723.03,305.00 723.74,305.00 724.47,305.00 725.18,305.00 725.91,305.00 726.63,305.00 727.34,305.00 728.06,305.00 728.79,305.00 729.50,305.00 730.22,305.00 730.95,305.00 731.69,305.00 732.42,305.00 733.15,305.00 733.88,305.00 734.62,305.00 735.36,305.00 736.09,305.00 736.84,305.00 737.57,305.00 738.31,305.00 739.03,305.00 739.75,305.00 740.47,305.00 741.20,305.00 741.92,305.00 742.64,305.00 743.37,305.00 744.09,305.00 744.81,305.00 745.53,305.00 746.25,305.00 746.96,305.00 747.69,305.00 748.40,305.00 749.12,305.00 749.84,305.00 750.56,305.00 751.28,305.00 752.01,305.00 752.74,305.00 753.46,305.00 754.17,305.00 754.89,305.00 755.61,305.00 756.34,305.00 757.06,305.00 757.78,305.00 758.49,305.00 759.22,305.00 759.94,305.00 760.66,305.00 761.38,305.00 762.10,305.00 762.82,305.00 763.59,305.00 764.33,305.00 765.05,305.00 765.77,305.00 766.48,305.00 767.22,305.00 767.95,305.00 768.67,305.00 769.39,305.00 770.11,305.00 770.81,305.00 771.53,305.00 772.25,305.00 772.97,305.00 773.69,305.00 774.41,305.00 775.14,305.00 775.86,305.00 776.59,305.00 777.30,305.00 778.02,305.00 778.74,305.00 779.46,305.00 780.18,305.00 780.90,305.00 781.62,305.00 782.35,305.00 783.07,305.00 783.79,305.00 784.54,305.00 785.26,305.00 785.98,305.00 786.70,305.00 787.42,305.00 788.14,305.00 788.87,305.00 789.59,305.00 790.31,305.00 791.03,305.00 791.75,305.00 792.48,305.00 793.21,305.00 793.94,305.00 794.65,305.00 795.37,305.00 796.09,305.00 796.81,305.00 797.53,305.00 798.25,305.00 798.98,305.00 799.70,305.00 800.42,305.00 801.14,305.00 801.86,305.00 802.58,305.00 803.30,305.00 804.01,305.00 804.73,305.00 805.46,305.00 806.18,305.00 806.89,305.00 807.62,305.00 808.34,305.00 809.06,305.00 809.78,305.00 810.50,305.00 811.22,305.00 811.93,305.00 812.65,305.00 813.37,305.00 814.09,305.00 814.81,305.00 815.55,305.00 816.27,305.00 816.99,305.00 817.72,305.00 818.44,305.00 819.17,305.00 819.94,305.00 820.68,305.00 821.40,305.00 822.13,305.00 822.86,305.00 823.58,305.00 824.30,305.00 825.02,305.00 825.74,305.00 826.46,305.00 827.19,305.00 827.91,305.00 828.63,305.00 829.36,305.00 830.09,305.00 830.81,305.00 831.53,305.00 832.25,305.00 832.97,305.00 833.70,305.00 834.41,305.00 835.14,305.00 835.86,305.00 836.58,305.00 837.31,305.00 838.03,305.00 838.75,305.00 839.48,305.00 840.21,305.00 840.93,305.00 841.65,305.00 842.37,305.00 843.09,305.00 843.82,305.00 844.53,305.00 845.25,305.00 845.97,305.00 846.69,305.00 847.41,305.00 848.14,305.00 848.85,305.00 849.57,305.00 850.30,305.00 851.02,305.00 851.74,305.00 852.46,305.00 853.18,305.00 853.91,305.00 854.64,305.00 855.34,305.00 856.05,305.00 856.76,305.00 857.49,305.00 858.21,305.00 858.93,305.00 859.66,305.00 860.38,305.00 861.11,305.00 861.84,305.00 862.55,305.00 863.28,305.00 863.99,305.00 864.71,305.00 865.42,305.00 866.14,305.00 866.86,305.00 867.58,305.00 868.30,305.00 869.01,305.00 869.73,305.00 870.45,305.00 871.18,305.00 871.90,305.00 872.61,305.00 873.33,305.00 874.02,305.00 874.76,305.00 875.48,305.00 876.20,305.00 876.93,305.00 877.66,305.00 878.37,305.00 879.09,305.00 879.82,305.00 880.54,305.00 881.26,305.00 881.98,305.00 882.75,305.00 883.47,305.00 884.20,305.00 884.92,305.00 885.65,305.00 886.36,305.00 887.08,305.00 887.81,305.00 888.53,305.00 889.25,305.00 889.96,305.00 890.68,305.00 891.41,305.00 892.14,305.00 892.85,305.00 893.57,305.00 894.29,305.00 895.02,305.00 895.74,305.00 896.46,305.00 897.19,305.00 897.92,305.00 898.65,305.00 899.38,305.00 900.10,305.00 900.82,305.00 901.55,305.00 902.27,305.00 902.99,305.00 903.71,305.00 904.43,305.00 905.15,305.00 905.87,305.00 906.59,305.00 907.31,305.00 908.04,305.00 908.76,305.00 909.48,305.00 910.19,305.00 910.91,305.00 911.63,305.00 912.36,305.00 913.07,305.00 913.79,305.00 914.51,305.00 915.22,305.00 915.94,305.00 916.66,305.00 917.38,305.00 918.09,305.00 918.81,305.00 919.53,305.00 920.25,305.00 920.96,305.00 921.68,305.00 922.39,305.00 923.12,305.00 923.83,305.00 924.55,305.00 925.26,305.00 925.98,305.00 926.71,305.00 927.43,305.00 928.14,305.00 928.87,305.00 929.62,305.00 930.33,305.00 931.06,305.00 931.78,305.00 932.51,305.00 933.23,305.00 933.95,305.00 934.67,305.00 935.39,305.00 936.11,305.00 936.83,305.00 937.54,305.00 938.27,305.00 938.99,305.00 939.71,305.00 940.42,305.00 941.14,305.00 941.86,305.00 942.57,305.00 943.30,305.00 944.03,305.00 944.78,305.00 945.50,305.00 946.21,305.00 946.92,305.00 947.63,305.00 948.37,305.00 949.08,305.00 949.80,305.00 950.53,305.00 951.25,305.00 951.97,305.00 952.69,305.00 953.41,305.00 954.14,305.00 954.85,305.00 955.57,305.00 956.30,305.00 957.01,305.00 957.73,305.00 958.45,305.00 959.16,305.00 959.88,305.00 960.60,305.00 961.32,305.00 962.04,305.00 962.76,305.00 963.48,305.00 964.20,305.00 964.92,305.00 965.64,305.00 966.36,305.00 967.07,305.00 967.79,305.00 968.52,305.00 969.23,305.00 969.96,305.00 970.68,305.00 971.39,305.00 972.10,305.00 972.83,305.00 973.55,305.00 974.26,305.00 975.00,305.00 975.72,305.00 976.44,305.00 977.16,305.00 977.88,305.00 978.60,305.00 979.34,305.00 980.83,305.00 981.55,305.00 982.32,305.00 983.04,305.00 983.76,305.00 984.47,305.00 985.19,305.00 985.91,305.00 986.63,305.00 987.35,305.00 988.07,305.00 988.79,305.00 989.51,305.00 990.23,305.00 990.95,305.00 991.66,305.00 992.39,305.00 993.10,305.00 993.82,305.00 994.53,305.00 995.26,305.00 995.98,305.00 996.70,305.00 997.42,305.00 998.13,305.00 998.85,305.00 999.57,305.00 1000.30,305.00 1001.02,305.00 1001.74,305.00 1002.46,305.00 1003.18,305.00 1003.89,305.00 1004.61,305.00 1005.33,305.00 1006.05,305.00 1006.76,305.00 1007.48,305.00 1008.19,305.00 1008.90,305.00 1009.63,305.00 1010.34,305.00 1011.07,305.00 1011.79,305.00 1012.54,305.00 1013.26,305.00 1013.98,305.00 1014.69,305.00 1015.41,305.00 1016.12,305.00 1016.83,305.00 1017.56,305.00 1018.27,305.00 1018.99,305.00 1019.70,305.00 1020.42,305.00 1021.13,305.00 1021.85,305.00 1022.57,305.00 1023.28,305.00 1024.00,305.00 1024.73,305.00 1025.44,305.00 1026.16,305.00 1026.89,305.00 1027.60,305.00 1028.32,305.00 1029.05,305.00 1029.76,305.00 1030.48,305.00 1031.21,305.00 1031.93,305.00 1032.66,305.00 1033.37,305.00 1034.09,305.00 1034.81,305.00 1035.53,305.00 1036.24,305.00 1036.99,305.00 1037.71,305.00 1038.43,305.00 1039.16,305.00 1039.88,305.00 1040.60,305.00 1041.31,305.00 1042.03,305.00 1042.76,305.00 1043.48,305.00 1044.19,305.00 1044.91,305.00 1045.64,305.00 1046.36,305.00 1047.08,305.00 1047.82,305.00 1048.56,305.00 1049.32,305.00 1050.04,305.00 1050.76,305.00 1051.48,305.00 1052.19,305.00 1052.92,305.00 1053.64,305.00 1054.36,305.00 1055.08,305.00 1055.80,305.00 1056.53,305.00 1057.24,305.00 1057.95,305.00 1058.68,305.00 1059.40,305.00 1060.13,305.00 1060.86,305.00 1061.59,305.00 1062.32,305.00 1063.05,305.00 1063.80,305.00 1064.52,305.00 1065.29,305.00 1066.01,305.00 1066.73,305.00 1067.46,305.00 1068.17,305.00 1068.89,305.00 1069.61,305.00 1070.33,305.00 1071.05,305.00 1071.77,305.00 1072.49,305.00 1073.22,305.00 1073.94,305.00 1074.66,305.00 1075.40,305.00 1076.24,305.00 1076.96,305.00 1077.67,305.00 1078.39,305.00 1079.10,305.00 1079.82,305.00 1080.53,305.00 1081.19,305.00 1081.84,305.00 1082.62,305.00 1083.29,305.00 1083.95,305.00 1084.69,305.00 1085.31,305.00 1086.03,305.00 1086.75,305.00 1087.47,305.00 1088.18,305.00 1088.90,305.00 1089.62,305.00 1090.33,305.00 1091.05,305.00 1091.77,305.00 1092.49,305.00 1093.20,305.00 1093.92,305.00 1094.64,305.00 1095.35,305.00 1096.07,305.00 1096.79,305.00 1097.50,305.00 1098.21,305.00 1098.93,305.00 1099.64,305.00 1100.36,305.00 1101.08,305.00 1101.81,305.00 1102.52,305.00 1103.23,305.00 1103.95,305.00 1104.66,305.00 1105.38,305.00 1106.09,305.00 1106.80,305.00 1107.52,305.00 1108.24,305.00 1108.95,305.00 1109.67,305.00 1110.38,305.00 1111.10,305.00 1111.82,305.00 1112.54,305.00 1113.26,305.00 1113.97,305.00 1114.69,305.00 1115.41,305.00 1116.12,305.00 1116.84,305.00 1117.55,305.00 1118.26,305.00 1118.97,305.00 1119.69,305.00 1120.40,305.00 1121.11,305.00 1121.85,305.00 1122.57,305.00 1123.29,305.00 1124.00,305.00 1124.72,305.00 1125.44,305.00 1126.16,305.00 1126.88,305.00 1127.60,305.00 1128.32,305.00 1129.03,305.00 1129.75,305.00 1130.46,305.00 1131.18,305.00 1131.90,305.00 1132.61,305.00 1133.33,305.00 1134.05,305.00 1134.76,305.00 1135.48,305.00 1136.20,305.00 1136.92,305.00 1137.64,305.00 1138.35,305.00 1139.07,305.00 1139.79,305.00 1140.51,305.00 1141.29,305.00 1142.01,305.00 1142.73,305.00 1143.44,305.00 1144.16,305.00 1144.88,305.00 1145.59,305.00 1146.32,305.00 1147.32,305.00 1148.03,305.00 1149.04,305.00 1149.75,305.00 1150.47,305.00 1151.19,305.00 1151.91,305.00 1152.63,305.00 1153.34,305.00 1154.05,305.00 1154.77,305.00 1155.48,305.00 1156.20,305.00 1156.91,305.00 1157.62,305.00 1158.35,305.00 1159.07,305.00 1159.79,305.00 1160.51,305.00 1161.23,305.00 1161.94,305.00 1162.67,305.00 1163.39,305.00 1164.10,305.00 1164.82,305.00 1165.54,305.00 1166.26,305.00 1166.97,305.00 1167.70,305.00 1168.42,305.00 1169.13,305.00 1169.85,305.00 1170.58,305.00 1171.31,305.00 1172.05,305.00 1172.78,305.00 1173.52,305.00 1174.24,305.00 1174.96,305.00 1175.68,305.00 1176.40,305.00 1177.12,305.00 1177.84,305.00 1178.55,305.00 1179.27,305.00 1180.00,305.00"/>
<polyline fill="none" stroke="#9467bd" stroke-opacity="0.80" stroke-width="2" points="70.00,305.00 70.72,305.00 71.44,305.00 72.15,305.00 72.87,305.00 73.59,305.00 74.30,305.00 75.02,305.00 75.80,305.00 76.51,305.00 77.23,305.00 77.94,305.00 78.67,305.00 79.38,305.00 80.09,305.00 81.38,305.00 82.49,305.00 83.22,305.00 83.95,305.00 84.67,305.00 85.38,305.00 86.08,305.00 86.81,305.00 87.52,305.00 88.24,305.00 88.96,305.00 89.69,305.00 90.41,305.00 91.13,305.00 91.89,305.00 92.61,305.00 93.32,305.00 94.06,305.00 94.78,305.00 95.49,305.00 96.23,305.00 96.94,305.00 97.66,305.00 98.39,305.00 99.10,305.00 99.81,305.00 100.52,305.00 101.24,305.00 101.96,305.00 102.67,305.00 103.40,305.00 104.13,305.00 104.83,305.00 105.55,305.00 106.27,305.00 106.99,305.00 107.81,305.00 108.53,305.00 109.24,305.00 109.95,305.00 110.66,305.00 111.37,305.00 112.09,305.00 112.80,305.00 113.52,305.00 114.25,305.00 114.96,305.00 115.67,305.00 116.39,305.00 117.12,305.00 117.83,305.00 118.55,305.00 119.26,305.00 119.97,305.00 120.69,305.00 121.40,305.00 122.11,305.00 122.83,305.00 123.54,305.00 124.25,305.00 124.97,305.00 125.68,305.00 126.40,305.00 127.11,305.00 127.83,305.00 128.56,305.00 129.28,305.00 129.99,305.00 130.71,305.00 131.42,305.00 132.14,305.00 132.86,305.00 133.57,305.00 134.28,305.00 135.00,305.00 135.72,305.00 136.43,305.00 137.16,305.00 137.86,305.00 138.58,305.00 139.30,305.00 140.01,305.00 140.72,305.00 141.44,305.00 142.15,305.00 142.87,305.00 143.59,305.00 144.30,305.00 145.02,305.00 145.75,305.00 146.47,305.00 147.18,305.00 147.90,305.00 148.61,305.00 149.32,305.00 150.05,305.00 150.76,305.00 151.48,305.00 152.19,305.00 152.91,305.00 153.63,305.00 154.35,305.00 155.08,305.00 155.79,305.00 156.51,305.00 157.23,305.00 157.94,305.00 158.66,305.00 159.38,305.00 160.16,305.00 160.87,305.00 161.59,305.00 162.31,305.00 163.02,305.00 163.73,305.00 164.43,305.00 165.15,305.00 165.87,305.00 166.58,305.00 167.29,305.00 168.01,305.00 168.72,305.00 169.43,305.00 170.16,305.00 170.88,305.00 171.59,305.00 172.30,305.00 173.02,305.00 173.73,305.00 174.45,305.00 175.17,305.00 175.89,305.00 176.60,305.00 177.32,305.00 178.03,305.00 178.74,305.00 179.46,305.00 180.17,305.00 180.89,305.00 181.61,305.00 182.33,305.00 183.05,305.00 183.77,305.00 184.49,305.00 185.20,305.00 185.92,305.00 186.63,305.00 187.36,305.00 188.09,305.00 188.80,305.00 189.52,305.00 190.23,305.00 190.94,305.00 191.66,305.00 192.37,305.00 193.08,305.00 193.79,305.00 194.51,305.00 195.23,305.00 195.95,305.00 196.67,305.00 197.38,305.00 198.11,305.00 198.83,305.00 199.54,305.00 200.25,305.00 200.97,305.00 201.74,305.00 202.48,305.00 203.19,305.00 203.90,305.00 204.61,305.00 205.32,305.00 206.04,305.00 206.76,305.00 207.48,305.00 208.19,305.00 208.90,305.00 209.62,305.00 210.35,305.00 211.07,305.00 211.78,305.00 212.49,305.00 213.22,305.00 213.95,305.00 214.68,305.00 215.39,305.00 216.11,305.00 216.82,305.00 217.54,305.00 218.26,305.00 218.97,305.00 219.70,305.00 220.41,305.00 221.12,305.00 221.84,305.00 222.56,305.00 223.28,305.00 223.99,305.00 224.72,305.00 225.44,305.00 226.15,305.00 226.86,305.00 227.57,305.00 228.29,305.00 229.00,305.00 229.72,305.00 230.43,305.00 231.14,305.00 231.85,305.00 232.58,305.00 233.29,305.00 234.01,305.00 234.74,305.00 235.45,305.00 236.18,305.00 236.89,305.00 237.61,305.00 238.32,305.00 239.04,305.00 239.76,305.00 240.49,305.00 241.21,305.00 241.93,305.00 242.64,305.00 243.35,305.00 244.07,305.00 244.78,305.00 245.50,305.00 246.22,305.00 246.94,305.00 247.65,305.00 248.37,305.00 249.09,305.00 249.81,305.00 250.52,305.00 251.24,305.00 251.97,305.00 252.68,305.00 253.40,305.00 254.12,305.00 254.84,305.00 255.56,305.00 256.27,305.00 256.99,305.00 257.78,305.00 258.51,305.00 259.22,305.00 259.94,305.00 260.66,305.00 261.38,305.00 262.10,305.00 262.82,305.00 263.53,305.00 264.27,305.00 264.99,305.00 265.70,305.00 266.42,305.00 267.14,305.00 267.85,305.00 268.57,305.00 269.31,305.00 270.03,305.00 270.75,305.00 271.47,305.00 272.24,305.00 272.96,305.00 273.86,305.00 275.07,305.00 275.81,305.00 276.54,305.00 277.25,305.00 277.96,305.00 278.67,305.00 279.40,305.00 280.12,305.00 280.84,305.00 281.58,305.00 282.32,305.00 283.08,305.00 283.80,305.00 284.52,305.00 285.24,305.00 285.96,305.00 286.69,305.00 287.41,305.00 288.12,305.00 288.84,305.00 289.58,305.00 290.31,305.00 291.01,305.00 291.73,305.00 292.46,305.00 293.21,305.00 293.93,305.00 294.64,305.00 295.38,305.00 296.07,305.00 296.78,305.00 297.51,305.00 298.22,305.00 298.95,305.00 299.69,305.00 300.41,305.00 301.12,305.00 301.85,305.00 302.57,305.00 303.29,305.00 304.00,305.00 304.72,305.00 305.44,305.00 306.16,305.00 306.87,305.00 307.72,305.00 308.56,305.00 309.41,305.00 310.24,305.00 311.06,305.00 311.89,305.00 312.74,305.00 313.57,305.00 314.29,305.00 315.00,305.00 315.71,305.00 316.43,305.00 317.15,305.00 317.86,305.00 318.57,305.00 319.28,305.00 320.00,305.00 320.71,305.00 321.43,305.00 322.14,305.00 322.86,305.00 323.57,305.00 324.28,305.00 324.99,305.00 325.71,305.00 326.42,305.00 327.14,305.00 327.86,305.00 328.57,305.00 329.28,305.00 329.99,305.00 330.70,305.00 331.42,305.00 332.14,305.00 332.85,305.00 333.57,305.00 334.29,305.00 335.00,305.00 335.71,305.00 336.43,305.00 337.14,305.00 337.85,305.00 338.56,305.00 339.26,305.00 339.98,305.00 340.69,305.00 341.40,305.00 342.11,305.00 342.83,305.00 343.54,305.00 344.25,305.00 344.96,305.00 345.66,305.00 346.40,305.00 347.17,305.00 347.89,305.00 348.61,305.00 349.32,305.00 350.03,305.00 350.74,305.00 351.45,305.00 352.16,305.00 353.01,305.00 353.85,305.00 354.68,305.00 355.52,305.00 356.36,305.00 357.20,305.00 358.05,305.00 358.92,305.00 359.70,305.00 360.47,305.00 361.19,305.00 361.91,305.00 362.63,305.00 363.34,305.00 364.05,305.00 364.77,305.00 365.48,305.00 366.19,305.00 366.90,305.00 367.62,305.00 368.34,305.00 369.05,305.00 369.78,305.00 370.49,305.00 371.20,305.00 371.83,305.00 372.57,305.00 373.28,305.00 374.01,305.00 374.73,305.00 375.44,305.00 376.16,305.00 376.88,305.00 377.60,305.00 378.33,305.00 379.05,305.00 379.78,305.00 380.49,305.00 381.19,305.00 381.91,305.00 382.62,305.00 383.33,305.00 384.04,305.00 384.77,305.00 385.48,305.00 386.20,305.00 386.91,305.00 387.62,305.00 388.34,305.00 389.06,305.00 389.78,305.00 390.50,305.00 391.21,305.00 391.93,305.00 392.65,305.00 393.37,305.00 394.11,305.00 394.81,305.00 395.53,305.00 396.24,305.00 396.95,305.00 397.66,305.00 398.38,305.00 399.10,305.00 399.81,305.00 400.52,305.00 401.24,305.00 401.95,305.00 402.67,305.00 403.39,305.00 404.11,305.00 404.97,305.00 405.70,305.00 406.44,305.00 407.16,305.00 407.88,305.00 408.60,305.00 409.31,305.00 410.02,305.00 410.75,305.00 411.47,305.00 412.18,305.00 412.90,305.00 413.62,305.00 414.33,305.00 415.08,305.00 415.80,305.00 416.52,305.00 417.24,305.00 417.95,305.00 418.67,305.00 419.38,305.00 420.10,305.00 420.85,305.00 421.56,305.00 422.29,305.00 423.00,305.00 423.72,305.00 424.44,305.00 425.15,305.00 425.87,305.00 426.59,305.00 427.30,305.00 428.02,305.00 428.74,305.00 429.45,305.00 430.17,305.00 430.89,305.00 431.62,305.00 432.33,305.00 433.05,305.00 433.76,305.00 434.47,305.00 435.20,305.00 435.92,305.00 436.78,305.00 437.52,305.00 438.24,305.00 438.95,305.00 439.66,305.00 440.39,305.00 441.10,305.00 441.82,305.00 442.55,305.00 443.27,305.00 443.98,305.00 444.69,305.00 445.41,305.00 446.12,305.00 446.84,305.00 447.56,305.00 448.27,305.00 448.99,305.00 449.70,305.00 450.42,305.00 451.14,305.00 451.85,305.00 452.57,305.00 453.29,305.00 454.02,305.00 454.73,305.00 455.44,305.00 456.16,305.00 456.90,305.00 457.61,305.00 458.33,305.00 459.05,305.00 459.77,305.00 460.48,305.00 461.20,305.00 461.92,305.00 462.65,305.00 463.37,305.00 464.08,305.00 464.79,305.00 465.51,305.00 466.22,305.00 466.94,305.00 467.65,305.00 468.38,305.00 469.10,305.00 469.83,305.00 470.53,305.00 471.25,305.00 471.96,305.00 472.68,305.00 473.40,305.00 474.11,305.00 474.83,305.00 475.55,305.00 476.27,305.00 476.98,305.00 477.71,305.00 478.43,305.00 479.15,305.00 479.87,305.00 480.59,305.00 481.40,305.00 482.18,305.00 482.95,305.00 483.68,305.00 484.42,305.00 485.14,305.00 485.86,305.00 486.57,305.00 487.24,305.00 487.99,305.00 488.71,305.00 489.43,305.00 490.14,305.00 490.86,305.00 491.57,305.00 492.29,305.00 493.00,305.00 493.72,305.00 494.44,305.00 495.16,305.00 495.88,305.00 496.60,305.00 497.32,305.00 498.05,305.00 498.77,305.00 499.48,305.00 500.20,305.00 500.93,305.00 501.65,305.00 502.36,305.00 503.08,305.00 503.80,305.00 504.51,305.00 505.23,305.00 505.95,305.00 506.66,305.00 507.39,305.00 508.10,305.00 508.82,305.00 509.54,305.00 510.26,305.00 510.98,305.00 511.70,305.00 512.41,305.00 513.13,305.00 513.85,305.00 514.57,305.00 515.29,305.00 516.02,305.00 516.73,305.00 517.45,305.00 518.17,305.00 518.89,305.00 519.62,305.00 520.36,305.00 521.07,305.00 521.79,305.00 522.51,305.00 523.23,305.00 523.94,305.00 524.66,305.00 525.39,305.00 526.11,305.00 526.82,305.00 527.54,305.00 528.26,305.00 528.98,305.00 529.71,305.00 530.43,305.00 531.15,305.00 531.87,305.00 532.59,305.00 533.32,305.00 534.04,305.00 534.75,305.00 535.47,305.00 536.19,305.00 536.93,305.00 537.65,305.00 538.38,305.00 539.10,305.00 539.81,305.00 540.52,305.00 541.24,305.00 541.96,305.00 542.68,305.00 543.40,305.00 544.12,305.00 544.84,305.00 545.56,305.00 546.28,305.00 547.00,305.00 547.71,305.00 548.44,305.00 549.16,305.00 549.88,305.00 550.60,305.00 551.32,305.00 552.03,305.00 552.74,305.00 553.46,305.00 554.19,305.00 554.91,305.00 555.63,305.00 556.35,305.00 557.07,305.00 557.79,305.00 558.52,305.00 559.23,305.00 559.95,305.00 560.68,305.00 561.40,305.00 562.12,305.00 562.84,305.00 563.57,305.00 564.29,305.00 565.01,305.00 565.74,305.00 566.47,305.00 567.19,305.00 567.91,305.00 568.63,305.00 569.35,305.00 570.07,305.00 570.80,305.00 571.52,305.00 572.24,305.00 572.96,305.00 573.67,305.00 574.41,305.00 575.12,305.00 575.85,305.00 576.57,305.00 577.28,305.00 578.00,305.00 578.71,305.00 579.42,305.00 580.15,305.00 580.87,305.00 581.59,305.00 582.30,305.00 583.03,305.00 583.74,305.00 584.48,305.00 585.21,305.00 585.92,305.00 586.64,305.00 587.35,305.00 588.07,305.00 588.79,305.00 589.52,305.00 590.24,305.00 590.95,305.00 591.68,305.00 592.40,305.00 593.11,305.00 593.84,305.00 594.56,305.00 595.30,305.00 596.03,305.00 596.75,305.00 597.48,305.00 598.20,305.00 598.92,305.00 599.63,305.00 600.35,305.00 601.06,305.00 601.79,305.00 602.51,305.00 603.24,305.00 603.96,305.00 604.69,305.00 605.43,305.00 606.15,305.00 606.87,305.00 607.59,305.00 608.31,305.00 609.04,305.00 609.76,305.00 610.49,305.00 611.21,305.00 611.94,305.00 612.66,305.00 613.38,305.00 614.10,305.00 614.82,305.00 615.54,305.00 616.26,305.00 616.98,305.00 617.71,305.00 618.43,305.00 619.15,305.00 619.87,305.00 620.59,305.00 621.32,305.00 622.04,305.00 622.76,305.00 623.48,305.00 624.23,305.00 624.95,305.00 625.68,305.00 626.40,305.00 627.13,305.00 627.87,305.00 628.60,305.00 629.34,305.00 630.08,305.00 630.80,305.00 631.52,305.00 632.24,305.00 632.96,305.00 633.69,305.00 634.41,305.00 635.15,305.00 635.87,305.00 636.59,305.00 637.31,305.00 638.03,305.00 638.75,305.00 639.47,305.00 640.19,305.00 640.91,305.00 641.62,305.00 642.34,305.00 643.06,305.00 643.77,305.00 644.49,305.00 645.21,305.00 645.94,305.00 646.65,305.00 647.38,305.00 648.11,305.00 648.82,305.00 649.55,305.00 650.27,305.00 650.99,305.00 651.70,305.00 652.42,305.00 653.15,305.00 653.87,305.00 654.58,305.00 655.29,305.00 656.01,305.00 656.73,305.00 657.45,305.00 658.17,305.00 658.89,305.00 659.61,305.00 660.33,305.00 661.05,305.00 661.77,305.00 662.49,305.00 663.19,305.00 663.91,305.00 664.61,305.00 665.34,305.00 666.06,305.00 666.79,305.00 667.51,305.00 668.23,305.00 668.95,305.00 669.68,305.00 670.40,305.00 671.12,305.00 671.85,305.00 672.57,305.00 673.28,305.00 674.01,305.00 674.73,305.00 675.46,305.00 676.19,305.00 676.91,305.00 677.62,305.00 678.34,305.00 679.05,305.00 679.77,305.00 680.49,305.00 681.20,305.00 681.92,305.00 682.64,305.00 683.37,305.00 684.08,305.00 684.80,305.00 685.52,305.00 686.24,305.00 686.96,305.00 687.69,305.00 688.40,305.00 689.12,305.00 689.84,305.00 690.57,305.00 691.28,305.00 692.00,305.00 692.73,305.00 693.44,305.00 694.16,305.00 694.89,305.00 695.61,305.00 696.33,305.00 697.04,305.00 697.76,305.00 698.50,305.00 699.22,305.00 699.96,305.00 700.69,305.00 701.41,305.00 702.13,305.00 702.85,305.00 703.58,305.00 704.30,305.00 705.01,305.00 705.74,305.00 706.47,305.00 707.20,305.00 707.91,305.00 708.64,305.00 709.36,305.00 710.08,305.00 710.80,305.00 711.52,305.00 712.23,305.00 712.96,305.00 713.68,305.00 714.39,305.00 715.11,305.00 715.84,305.00 716.55,305.00 717.26,305.00 717.98,305.00 718.70,305.00 719.42,305.00 720.15,305.00 720.87,305.00 721.58,305.00 722.30,305.00 723.03,305.00 723.74,305.00 724.47,305.00 725.18,305.00 725.91,305.00 726.63,305.00 727.34,305.00 728.06,305.00 728.79,305.00 729.50,305.00 730.22,305.00 730.95,305.00 731.69,305.00 732.42,305.00 733.15,305.00 733.88,305.00 734.62,305.00 735.36,305.00 736.09,305.00 736.84,305.00 737.57,305.00 738.31,305.00 739.03,305.00 739.75,305.00 740.47,305.00 741.20,305.00 741.92,305.00 742.64,305.00 743.37,305.00 744.09,305.00 744.81,305.00 745.53,305.00 746.25,305.00 746.96,305.00 747.69,305.00 748.40,305.00 749.12,305.00 749.84,305.00 750.56,305.00 751.28,305.00 752.01,305.00 752.74,305.00 753.46,305.00 754.17,305.00 754.89,305.00 755.61,305.00 756.34,305.00 757.06,305.00 757.78,305.00 758.49,305.00 759.22,305.00 759.94,305.00 760.66,305.00 761.38,305.00 762.10,305.00 762.82,305.00 763.59,305.00 764.33,305.00 765.05,305.00 765.77,305.00 766.48,305.00 767.22,305.00 767.95,305.00 768.67,305.00 769.39,305.00 770.11,305.00 770.81,305.00 771.53,305.00 772.25,305.00 772.97,305.00 773.69,305.00 774.41,305.00 775.14,305.00 775.86,305.00 776.59,305.00 777.30,305.00 778.02,305.00 778.74,305.00 779.46,305.00 780.18,305.00 780.90,305.00 781.62,305.00 782.35,305.00 783.07,305.00 783.79,305.00 784.54,305.00 785.26,305.00 785.98,305.00 786.70,305.00 787.42,305.00 788.14,305.00 788.87,305.00 789.59,305.00 790.31,305.00 791.03,305.00 791.75,305.00 792.48,305.00 793.21,305.00 793.94,305.00 794.65,305.00 795.37,305.00 796.09,305.00 796.81,305.00 797.53,305.00 798.25,305.00 798.98,305.00 799.70,305.00 800.42,305.00 801.14,305.00 801.86,305.00 802.58,305.00 803.30,305.00 804.01,305.00 804.73,305.00 805.46,305.00 806.18,305.00 806.89,305.00 807.62,305.00 808.34,305.00 809.06,305.00 809.78,305.00 810.50,305.00 811.22,305.00 811.93,305.00 812.65,305.00 813.37,305.00 814.09,305.00 814.81,305.00 815.55,305.00 816.27,305.00 816.99,305.00 817.72,305.00 818.44,305.00 819.17,305.00 819.94,305.00 820.68,305.00 821.40,305.00 822.13,305.00 822.86,305.00 823.58,305.00 824.30,305.00 825.02,305.00 825.74,305.00 826.46,305.00 827.19,305.00 827.91,305.00 828.63,305.00 829.36,305.00 830.09,305.00 830.81,305.00 831.53,305.00 832.25,305.00 832.97,305.00 833.70,305.00 834.41,305.00 835.14,305.00 835.86,305.00 836.58,305.00 837.31,305.00 838.03,305.00 838.75,305.00 839.48,305.00 840.21,305.00 840.93,305.00 841.65,305.00 842.37,305.00 843.09,305.00 843.82,305.00 844.53,305.00 845.25,305.00 845.97,305.00 846.69,305.00 847.41,305.00 848.14,305.00 848.85,305.00 849.57,305.00 850.30,305.00 851.02,305.00 851.74,305.00 852.46,305.00 853.18,305.00 853.91,305.00 854.64,305.00 855.34,305.00 856.05,305.00 856.76,305.00 857.49,305.00 858.21,305.00 858.93,305.00 859.66,305.00 860.38,305.00 861.11,305.00 861.84,305.00 862.55,305.00 863.28,305.00 863.99,305.00 864.71,305.00 865.42,305.00 866.14,305.00 866.86,305.00 867.58,305.00 868.30,305.00 869.01,305.00 869.73,305.00 870.45,305.00 871.18,305.00 871.90,305.00 872.61,305.00 873.33,305.00 874.02,305.00 874.76,305.00 875.48,305.00 876.20,305.00 876.93,305.00 877.66,305.00 878.37,305.00 879.09,305.00 879.82,305.00 880.54,305.00 881.26,305.00 881.98,305.00 882.75,305.00 883.47,305.00 884.20,305.00 884.92,305.00 885.65,305.00 886.36,305.00 887.08,305.00 887.81,305.00 888.53,305.00 889.25,305.00 889.96,305.00 890.68,305.00 891.41,305.00 892.14,305.00 892.85,305.00 893.57,305.00 894.29,305.00 895.02,305.00 895.74,305.00 896.46,305.00 897.19,305.00 897.92,305.00 898.65,305.00 899.38,305.00 900.10,305.00 900.82,305.00 901.55,305.00 902.27,305.00 902.99,305.00 903.71,305.00 904.43,305.00 905.15,305.00 905.87,305.00 906.59,305.00 907.31,305.00 908.04,305.00 908.76,305.00 909.48,305.00 910.19,305.00 910.91,305.00 911.63,305.00 912.36,305.00 913.07,305.00 913.79,305.00 914.51,305.00 915.22,305.00 915.94,305.00 916.66,305.00 917.38,305.00 918.09,305.00 918.81,305.00 919.53,305.00 920.25,305.00 920.96,305.00 921.68,305.00 922.39,305.00 923.12,305.00 923.83,305.00 924.55,305.00 925.26,305.00 925.98,305.00 926.71,305.00 927.43,305.00 928.14,305.00 928.87,305.00 929.62,305.00 930.33,305.00 931.06,305.00 931.78,305.00 932.51,305.00 933.23,305.00 933.95,305.00 934.67,305.00 935.39,305.00 936.11,305.00 936.83,305.00 937.54,305.00 938.27,305.00 938.99,305.00 939.71,305.00 940.42,305.00 941.14,305.00 941.86,305.00 942.57,305.00 943.30,305.00 944.03,305.00 944.78,305.00 945.50,305.00 946.21,305.00 946.92,305.00 947.63,305.00 948.37,305.00 949.08,305.00 949.80,305.00 950.53,305.00 951.25,305.00 951.97,305.00 952.69,305.00 953.41,305.00 954.14,305.00 954.85,305.00 955.57,305.00 956.30,305.00 957.01,305.00 957.73,305.00 958.45,305.00 959.16,305.00 959.88,305.00 960.60,305.00 961.32,305.00 962.04,305.00 962.76,305.00 963.48,305.00 964.20,305.00 964.92,305.00 965.64,305.00 966.36,305.00 967.07,305.00 967.79,305.00 968.52,305.00 969.23,305.00 969.96,305.00 970.68,305.00 971.39,305.00 972.10,305.00 972.83,305.00 973.55,305.00 974.26,305.00 975.00,305.00 975.72,305.00 976.44,305.00 977.16,305.00 977.88,305.00 978.60,305.00 979.34,305.00 980.06,305.00 980.83,305.00 981.55,305.00 982.32,305.00 983.04,305.00 983.76,305.00 984.47,305.00 985.19,305.00 985.91,305.00 986.63,305.00 987.35,305.00 988.07,305.00 988.79,305.00 989.51,305.00 990.23,305.00 990.95,305.00 991.66,305.00 992.39,305.00 993.10,305.00 993.82,305.00 994.53,305.00 995.26,305.00 995.98,305.00 996.70,305.00 997.42,305.00 998.13,305.00 998.85,305.00 999.57,305.00 1000.30,305.00 1001.02,305.00 1001.74,305.00 1002.46,305.00 1003.18,305.00 1003.89,305.00 1004.61,305.00 1005.33,305.00 1006.05,305.00 1006.76,305.00 1007.48,305.00 1008.19,305.00 1008.90,305.00 1009.63,305.00 1010.34,305.00 1011.07,305.00 1011.79,305.00 1012.54,305.00 1013.26,305.00 1013.98,305.00 1014.69,305.00 1015.41,305.00 1016.12,305.00 1016.83,305.00 1017.56,305.00 1018.27,305.00 1018.99,305.00 1019.70,305.00 1020.42,305.00 1021.13,305.00 1021.85,305.00 1022.57,305.00 1023.28,305.00 1024.00,305.00 1024.73,305.00 1025.44,305.00 1026.16,305.00 1026.89,305.00 1027.60,305.00 1028.32,305.00 1029.05,305.00 1029.76,305.00 1030.48,305.00 1031.21,305.00 1031.93,305.00 1032.66,305.00 1033.37,305.00 1034.09,305.00 1034.81,305.00 1035.53,305.00 1036.24,305.00 1036.99,305.00 1037.71,305.00 1038.43,305.00 1039.16,305.00 1039.88,305.00 1040.60,305.00 1041.31,305.00 1042.03,305.00 1042.76,305.00 1043.48,305.00 1044.19,305.00 1044.91,305.00 1045.64,305.00 1046.36,305.00 1047.08,305.00 1047.82,305.00 1048.56,305.00 1049.32,305.00 1050.04,305.00 1050.76,305.00 1051.48,305.00 1052.19,305.00 1052.92,305.00 1053.64,305.00 1054.36,305.00 1055.08,305.00 1055.80,305.00 1056.53,305.00 1057.24,305.00 1057.95,305.00 1058.68,305.00 1059.40,305.00 1060.13,305.00 1060.86,305.00 1061.59,305.00 1062.32,305.00 1063.05,305.00 1063.80,305.00 1064.52,305.00 1065.29,305.00 1066.01,305.00 1066.73,305.00 1067.46,305.00 1068.17,305.00 1068.89,305.00 1069.61,305.00 1070.33,305.00 1071.05,305.00 1071.77,305.00 1072.49,305.00 1073.22,305.00 1073.94,305.00 1074.66,305.00 1075.40,305.00 1076.24,305.00 1076.96,305.00 1077.67,305.00 1078.39,305.00 1079.10,305.00 1079.82,305.00 1080.53,305.00 1081.19,305.00 1081.84,305.00 1083.95,305.00 1085.31,305.00 1086.03,305.00 1086.75,305.00 1087.47,305.00 1088.18,305.00 1088.90,305.00 1089.62,305.00 1090.33,305.00 1091.05,305.00 1091.77,305.00 1092.49,305.00 1093.20,305.00 1093.92,305.00 1094.64,305.00 1095.35,305.00 1096.07,305.00 1096.79,305.00 1097.50,305.00 1098.21,305.00 1098.93,305.00 1099.64,305.00 1100.36,305.00 1101.08,305.00 1101.81,305.00 1102.52,305.00 1103.23,305.00 1103.95,305.00 1104.66,305.00 1105.38,305.00 1106.09,305.00 1106.80,305.00 1107.52,305.00 1108.24,305.00 1108.95,305.00 1109.67,305.00 1110.38,305.00 1111.10,305.00 1111.82,305.00 1112.54,305.00 1113.26,305.00 1113.97,305.00 1114.69,305.00 1115.41,305.00 1116.12,305.00 1116.84,305.00 1117.55,305.00 1118.26,305.00 1118.97,305.00 1119.69,305.00 1120.40,305.00 1121.11,305.00 1121.85,305.00 1122.57,305.00 1123.29,305.00 1124.00,305.00 1124.72,305.00 1125.44,305.00 1126.16,305.00 1126.88,305.00 1127.60,305.00 1128.32,305.00 1129.03,305.00 1129.75,305.00 1130.46,305.00 1131.18,305.00 1131.90,305.00 1132.61,305.00 1133.33,305.00 1134.05,305.00 1134.76,305.00 1135.48,305.00 1136.20,305.00 1136.92,305.00 1137.64,305.00 1138.35,305.00 1139.07,305.00 1139.79,305.00 1140.51,305.00 1141.29,305.00 1142.01,305.00 1142.73,305.00 1143.44,305.00 1144.16,305.00 1144.88,305.00 1145.59,305.00 1146.32,305.00 1147.32,305.00 1148.03,305.00 1149.04,305.00 1149.75,305.00 1150.47,305.00 1151.19,305.00 1151.91,305.00 1152.63,305.00 1153.34,305.00 1154.05,305.00 1154.77,305.00 1155.48,305.00 1156.20,305.00 1156.91,305.00 1157.62,305.00 1158.35,305.00 1159.07,305.00 1159.79,305.00 1160.51,305.00 1161.23,305.00 1161.94,305.00 1162.67,305.00 1163.39,305.00 1164.10,305.00 1164.82,305.00 1165.54,305.00 1166.26,305.00 1166.97,305.00 1167.70,305.00 1168.42,305.00 1169.13,305.00 1169.85,305.00 1170.58,305.00 1171.31,305.00 1172.05,305.00 1172.78,305.00 1173.52,305.00 1174.24,305.00 1174.96,305.00 1175.68,305.00 1176.40,305.00 1177.12,305.00 1177.84,305.00 1178.55,305.00 1179.27,305.00 1180.00,305.00"/>
<polyline fill="none" stroke="#9467bd" stroke-opacity="0.65" stroke-width="2" points="371.83,305.00 372.57,305.00 373.28,305.00 374.01,305.00 374.73,305.00 375.44,305.00 376.16,305.00 376.88,305.00 377.60,305.00 378.33,305.00 379.05,305.00 379.78,305.00 380.49,305.00 381.19,305.00 381.91,305.00 382.62,305.00 383.33,305.00 384.04,305.00 384.77,305.00 385.48,305.00 386.20,305.00 386.91,305.00 387.62,305.00 388.34,305.00 389.06,305.00 389.78,305.00 390.50,305.00 391.21,305.00 391.93,305.00 392.65,305.00 393.37,305.00 394.11,305.00 394.81,305.00 395.53,305.00 396.24,305.00 396.95,305.00 397.66,305.00 398.38,305.00 399.10,305.00 399.81,305.00 400.52,305.00 401.24,305.00 401.95,305.00 402.67,305.00 403.39,305.00 404.11,305.00 404.97,305.00 405.70,305.00 406.44,305.00 407.16,305.00 407.88,305.00 408.60,305.00 409.31,305.00 410.02,305.00 410.75,305.00 411.47,305.00 412.18,305.00 412.90,305.00 413.62,305.00 414.33,305.00 415.08,305.00 415.80,305.00 416.52,305.00 417.24,305.00 417.95,305.00 418.67,305.00 419.38,305.00 420.10,305.00 420.85,305.00 421.56,305.00 422.29,305.00 423.00,305.00 423.72,305.00 424.44,305.00 425.15,305.00 425.87,305.00 426.59,305.00 427.30,305.00 428.02,305.00 428.74,305.00 429.45,305.00 430.17,305.00 430.89,305.00 431.62,305.00 432.33,305.00 433.05,305.00 433.76,305.00 434.47,305.00 435.20,305.00 435.92,305.00 436.78,305.00 437.52,305.00 438.24,305.00 438.95,305.00 439.66,305.00 440.39,305.00 441.10,305.00 441.82,305.00 442.55,305.00 443.27,305.00 443.98,305.00 444.69,305.00 445.41,305.00 446.12,305.00 446.84,305.00 447.56,305.00 448.27,305.00 448.99,305.00 449.70,305.00 450.42,305.00 451.14,305.00 451.85,305.00 452.57,305.00 453.29,305.00 454.02,305.00 454.73,305.00 455.44,305.00 456.16,305.00 456.90,305.00 457.61,305.00 458.33,305.00 459.05,305.00 459.77,305.00 460.48,305.00 461.20,305.00 461.92,305.00 462.65,305.00 463.37,305.00 464.08,305.00 464.79,305.00 465.51,305.00 466.22,305.00 466.94,305.00 467.65,305.00 468.38,305.00 469.10,305.00 469.83,305.00 470.53,305.00 471.25,305.00 471.96,305.00 472.68,305.00 473.40,305.00 474.11,305.00 474.83,305.00 475.55,305.00 476.27,305.00 476.98,305.00 477.71,305.00 478.43,305.00 479.15,305.00 479.87,305.00 480.59,305.00 481.40,305.00 482.18,305.00 482.95,305.00 483.68,305.00 484.42,305.00 485.14,305.00 485.86,305.00 486.57,305.00 487.24,305.00 487.99,305.00 488.71,305.00 489.43,305.00 490.14,305.00 490.86,305.00 491.57,305.00 492.29,305.00 493.00,305.00 493.72,305.00 494.44,305.00 495.16,305.00 495.88,305.00 496.60,305.00 497.32,305.00 498.05,305.00 498.77,305.00 499.48,305.00 500.20,305.00 500.93,305.00 501.65,305.00 502.36,305.00 503.08,305.00 503.80,305.00 504.51,305.00 505.23,305.00 505.95,305.00 506.66,305.00 507.39,305.00 508.10,305.00 508.82,305.00 509.54,305.00 510.26,305.00 510.98,305.00 511.70,305.00 512.41,305.00 513.13,305.00 513.85,305.00 514.57,305.00 515.29,305.00 516.02,305.00 516.73,305.00 517.45,305.00 518.17,305.00 518.89,305.00 519.62,305.00 520.36,305.00 521.07,305.00 521.79,305.00 522.51,305.00 523.23,305.00 523.94,305.00 524.66,305.00 525.39,305.00 526.11,305.00 526.82,305.00 527.54,305.00 528.26,305.00 528.98,305.00 529.71,305.00 530.43,305.00 531.15,305.00 531.87,305.00 532.59,305.00 533.32,305.00 534.04,305.00 534.75,305.00 535.47,305.00 536.19,305.00 536.93,305.00 537.65,305.00 538.38,305.00 539.10,305.00 539.81,305.00 540.52,305.00 541.24,305.00 541.96,305.00 542.68,305.00 543.40,305.00 544.12,305.00 544.84,305.00 545.56,305.00 546.28,305.00 547.00,305.00 547.71,305.00 548.44,305.00 549.16,305.00 549.88,305.00 550.60,305.00 551.32,305.00 552.03,305.00 552.74,305.00 553.46,305.00 554.19,305.00 554.91,305.00 555.63,305.00 556.35,305.00 557.07,305.00 557.79,305.00 558.52,305.00 559.23,305.00 559.95,305.00 560.68,305.00 561.40,305.00 562.12,305.00 562.84,305.00 563.57,305.00 564.29,305.00 565.01,305.00 565.74,305.00 566.47,305.00 567.19,305.00 567.91,305.00 568.63,305.00 569.35,305.00 570.07,305.00 570.80,305.00 571.52,305.00 572.24,305.00 572.96,305.00 573.67,305.00 574.41,305.00 575.12,305.00 575.85,305.00 576.57,305.00 577.28,305.00 578.00,305.00 578.71,305.00 579.42,305.00 580.15,305.00 580.87,305.00 581.59,305.00 582.30,305.00 583.03,305.00 583.74,305.00 584.48,305.00 585.21,305.00 585.92,305.00 586.64,305.00 587.35,305.00 588.07,305.00 588.79,305.00 589.52,305.00 590.24,305.00 590.95,305.00 591.68,305.00 592.40,305.00 593.11,305.00 593.84,305.00 594.56,305.00 595.30,305.00 596.03,305.00 596.75,305.00 597.48,305.00 598.20,305.00 598.92,305.00 599.63,305.00 600.35,305.00 601.06,305.00 601.79,305.00 602.51,305.00 603.24,305.00 603.96,305.00 604.69,305.00 605.43,305.00 606.15,305.00 606.87,305.00 607.59,305.00 608.31,305.00 609.04,305.00 609.76,305.00 610.49,305.00 611.21,305.00 611.94,305.00 612.66,305.00 613.38,305.00 614.10,305.00 614.82,305.00 615.54,305.00 616.26,305.00 616.98,305.00 617.71,305.00 618.43,305.00 619.15,305.00 619.87,305.00 620.59,305.00 621.32,305.00 622.04,305.00 622.76,305.00 623.48,305.00 624.23,305.00 624.95,305.00 625.68,305.00 626.40,305.00 627.13,305.00 627.87,305.00 628.60,305.00 629.34,305.00 630.08,305.00 630.80,305.00 631.52,305.00 632.24,305.00 632.96,305.00 633.69,305.00 634.41,305.00 635.15,305.00 635.87,305.00 636.59,305.00 637.31,305.00 638.03,305.00 638.75,305.00 639.47,305.00 640.19,305.00 640.91,305.00 641.62,305.00 642.34,305.00 643.06,305.00 643.77,305.00 644.49,305.00 645.21,305.00 645.94,305.00 646.65,305.00 647.38,305.00 648.11,305.00 648.82,305.00 649.55,305.00 650.27,305.00 650.99,305.00 651.70,305.00 652.42,305.00 653.15,305.00 653.87,305.00 654.58,305.00 655.29,305.00 656.01,305.00 656.73,305.00 657.45,305.00 658.17,305.00 658.89,305.00 659.61,305.00 660.33,305.00 661.05,305.00 661.77,305.00 662.49,305.00 663.19,305.00 663.91,305.00 664.61,305.00 665.34,305.00 666.06,305.00 666.79,305.00 667.51,305.00 668.23,305.00 668.95,305.00 669.68,305.00 670.40,305.00 671.12,305.00 671.85,305.00 672.57,305.00 673.28,305.00 674.01,305.00 674.73,305.00 675.46,305.00 676.19,305.00 676.91,305.00 677.62,305.00 678.34,305.00 679.05,305.00 679.77,305.00 680.49,305.00 681.20,305.00 681.92,305.00 682.64,305.00 683.37,305.00 684.08,305.00 684.80,305.00 685.52,305.00 686.24,305.00 686.96,305.00 687.69,305.00 688.40,305.00 689.12,305.00 689.84,305.00 690.57,305.00 691.28,305.00 692.00,305.00 692.73,305.00 693.44,305.00 694.16,305.00 694.89,305.00 695.61,305.00 696.33,305.00 697.04,305.00 697.76,305.00 698.50,305.00 699.22,305.00 699.96,305.00 700.69,305.00 701.41,305.00 702.13,305.00 702.85,305.00 703.58,305.00 704.30,305.00 705.01,305.00 705.74,305.00 706.47,305.00 707.20,305.00 707.91,305.00 708.64,305.00 709.36,305.00 710.08,305.00 710.80,305.00 711.52,305.00 712.23,305.00 712.96,305.00 713.68,305.00 714.39,305.00 715.11,305.00 715.84,305.00 716.55,305.00 717.26,305.00 717.98,305.00 718.70,305.00 719.42,305.00 720.15,305.00 720.87,305.00 721.58,305.00 722.30,305.00 723.03,305.00 723.74,305.00 724.47,305.00 725.18,305.00 725.91,305.00 726.63,305.00 727.34,305.00 728.06,305.00 728.79,305.00 729.50,305.00 730.22,305.00 730.95,305.00 731.69,305.00 732.42,305.00 733.15,305.00 733.88,305.00 734.62,305.00 735.36,305.00 736.09,305.00 736.84,305.00 737.57,305.00 738.31,305.00 739.03,305.00 739.75,305.00 740.47,305.00 741.20,305.00 741.92,305.00 742.64,305.00 743.37,305.00 744.09,305.00 744.81,305.00 745.53,305.00 746.25,305.00 746.96,305.00 747.69,305.00 748.40,305.00 749.12,305.00 749.84,305.00 750.56,305.00 751.28,305.00 752.01,305.00 752.74,305.00 753.46,305.00 754.17,305.00 754.89,305.00 755.61,305.00 756.34,305.00 757.06,305.00 757.78,305.00 758.49,305.00 759.22,305.00 759.94,305.00 760.66,305.00 761.38,305.00 762.10,305.00 762.82,305.00 763.59,305.00 764.33,305.00 765.05,305.00 765.77,305.00 766.48,305.00 767.22,305.00 767.95,305.00 768.67,305.00 769.39,305.00 770.11,305.00 770.81,305.00 771.53,305.00 772.25,305.00 772.97,305.00 773.69,305.00 774.41,305.00 775.14,305.00 775.86,305.00 776.59,305.00 777.30,305.00 778.02,305.00 778.74,305.00 779.46,305.00 780.18,305.00 780.90,305.00 781.62,305.00 782.35,305.00 783.07,305.00 783.79,305.00 784.54,305.00 785.26,305.00 785.98,305.00 786.70,305.00 787.42,305.00 788.14,305.00 788.87,305.00 789.59,305.00 790.31,305.00 791.03,305.00 791.75,305.00 792.48,305.00 793.21,305.00 793.94,305.00 794.65,305.00 795.37,305.00 796.09,305.00 796.81,305.00 797.53,305.00 798.25,305.00 798.98,305.00 799.70,305.00 800.42,305.00 801.14,305.00 801.86,305.00 802.58,305.00 803.30,305.00 804.01,305.00 804.73,305.00 805.46,305.00 806.18,305.00 806.89,305.00 807.62,305.00 808.34,305.00 809.06,305.00 809.78,305.00 810.50,305.00 811.22,305.00 811.93,305.00 812.65,305.00 813.37,305.00 814.09,305.00 814.81,305.00 815.55,305.00 816.27,305.00 816.99,305.00 817.72,305.00 818.44,305.00 819.17,305.00 819.94,305.00 820.68,305.00 821.40,305.00 822.13,305.00 822.86,305.00 823.58,305.00 824.30,305.00 825.02,305.00 825.74,305.00 826.46,305.00 827.19,305.00 827.91,305.00 828.63,305.00 829.36,305.00 830.09,305.00 830.81,305.00 831.53,305.00 832.25,305.00 832.97,305.00 833.70,305.00 834.41,305.00 835.14,305.00 835.86,305.00 836.58,305.00 837.31,305.00 838.03,305.00 838.75,305.00 839.48,305.00 840.21,305.00 840.93,305.00 841.65,305.00 842.37,305.00 843.09,305.00 843.82,305.00 844.53,305.00 845.25,305.00 845.97,305.00 846.69,305.00 847.41,305.00 848.14,305.00 848.85,305.00 849.57,305.00 850.30,305.00 851.02,305.00 851.74,305.00 852.46,305.00 853.18,305.00 853.91,305.00 854.64,305.00 855.34,305.00 856.05,305.00 856.76,305.00 857.49,305.00 858.21,305.00 858.93,305.00 859.66,305.00 860.38,305.00 861.11,305.00 861.84,305.00 862.55,305.00 863.28,305.00 863.99,305.00 864.71,305.00 865.42,305.00 866.14,305.00 866.86,305.00 867.58,305.00 868.30,305.00 869.01,305.00 869.73,305.00 870.45,305.00 871.18,305.00 871.90,305.00 872.61,305.00 873.33,305.00 874.02,305.00 874.76,305.00 875.48,305.00 876.20,305.00 876.93,305.00 877.66,305.00 878.37,305.00 879.09,305.00 879.82,305.00 880.54,305.00 881.26,305.00 881.98,305.00 882.75,305.00 883.47,305.00 884.20,305.00 884.92,305.00 885.65,305.00 886.36,305.00 887.08,305.00 887.81,305.00 888.53,305.00 889.25,305.00 889.96,305.00 890.68,305.00 891.41,305.00 892.14,305.00 892.85,305.00 893.57,305.00 894.29,305.00 895.02,305.00 895.74,305.00 896.46,305.00 897.19,305.00 897.92,305.00 898.65,305.00 899.38,305.00 900.10,305.00 900.82,305.00 901.55,305.00 902.27,305.00 902.99,305.00 903.71,305.00 904.43,305.00 905.15,305.00 905.87,305.00 906.59,305.00 907.31,305.00 908.04,305.00 908.76,305.00 909.48,305.00 910.19,305.00 910.91,305.00 911.63,305.00 912.36,305.00 913.07,305.00 913.79,305.00 914.51,305.00 915.22,305.00 915.94,305.00 916.66,305.00 917.38,305.00 918.09,305.00 918.81,305.00 919.53,305.00 920.25,305.00 920.96,305.00 921.68,305.00 922.39,305.00 923.12,305.00 923.83,305.00 924.55,305.00 925.26,305.00 925.98,305.00 926.71,305.00 927.43,305.00 928.14,305.00 928.87,305.00 929.62,305.00 930.33,305.00 931.06,305.00 931.78,305.00 932.51,305.00 933.23,305.00 933.95,305.00 934.67,305.00 935.39,305.00 936.11,305.00 936.83,305.00 937.54,305.00 938.27,305.00 938.99,305.00 939.71,305.00 940.42,305.00 941.14,305.00 941.86,305.00 942.57,305.00 943.30,305.00 944.03,305.00 944.78,305.00 945.50,305.00 946.21,305.00 946.92,305.00 947.63,305.00 948.37,305.00 949.08,305.00 949.80,305.00 950.53,305.00 951.25,305.00 951.97,305.00 952.69,305.00 953.41,305.00 954.14,305.00 954.85,305.00 955.57,305.00 956.30,305.00 957.01,305.00 957.73,305.00 958.45,305.00 959.16,305.00 959.88,305.00 960.60,305.00 961.32,305.00 962.04,305.00 962.76,305.00 963.48,305.00 964.20,305.00 964.92,305.00 965.64,305.00 966.36,305.00 967.07,305.00 967.79,305.00 968.52,305.00 969.23,305.00 969.96,305.00 970.68,305.00 971.39,305.00 972.10,305.00 972.83,305.00 973.55,305.00 974.26,305.00 975.00,305.00 975.72,305.00 976.44,305.00 977.16,305.00 977.88,305.00 978.60,305.00 979.34,305.00 980.06,305.00 980.83,305.00 981.55,305.00 982.32,305.00 983.04,305.00 983.76,305.00 984.47,305.00 985.19,305.00 985.91,305.00 986.63,305.00 987.35,305.00 988.07,305.00 988.79,305.00 989.51,305.00 990.23,305.00 990.95,305.00 991.66,305.00 992.39,305.00 993.10,305.00 993.82,305.00 994.53,305.00 995.26,305.00 995.98,305.00 996.70,305.00 997.42,305.00 998.13,305.00 998.85,305.00 999.57,305.00 1000.30,305.00 1001.02,305.00 1001.74,305.00 1002.46,305.00 1003.18,305.00 1003.89,305.00 1004.61,305.00 1005.33,305.00 1006.05,305.00 1006.76,305.00 1007.48,305.00 1008.19,305.00 1008.90,305.00 1009.63,305.00 1010.34,305.00 1011.07,305.00 1011.79,305.00 1012.54,305.00 1013.26,305.00 1013.98,305.00 1014.69,305.00 1015.41,305.00 1016.12,305.00 1016.83,305.00 1017.56,305.00 1018.27,305.00 1018.99,305.00 1019.70,305.00 1020.42,305.00 1021.13,305.00 1021.85,305.00 1022.57,305.00 1023.28,305.00 1024.00,305.00 1024.73,305.00 1025.44,305.00 1026.16,305.00 1026.89,305.00 1027.60,305.00 1028.32,305.00 1029.05,305.00 1029.76,305.00 1030.48,305.00 1031.21,305.00 1031.93,305.00 1032.66,305.00 1033.37,305.00 1034.09,305.00 1034.81,305.00 1035.53,305.00 1036.24,305.00 1036.99,305.00 1037.71,305.00 1038.43,305.00 1039.16,305.00 1039.88,305.00 1040.60,305.00 1041.31,305.00 1042.03,305.00 1042.76,305.00 1043.48,305.00 1044.19,305.00 1044.91,305.00 1045.64,305.00 1046.36,305.00 1047.08,305.00 1047.82,305.00 1048.56,305.00 1049.32,305.00 1050.04,305.00 1050.76,305.00 1051.48,305.00 1052.19,305.00 1052.92,305.00 1053.64,305.00 1054.36,305.00 1055.08,305.00 1055.80,305.00 1056.53,305.00 1057.24,305.00 1057.95,305.00 1058.68,305.00 1059.40,305.00 1060.13,305.00 1060.86,305.00 1061.59,305.00 1062.32,305.00 1063.05,305.00 1063.80,305.00 1064.52,305.00 1065.29,305.00 1066.01,305.00 1066.73,305.00 1067.46,305.00 1068.17,305.00 1068.89,305.00 1069.61,305.00 1070.33,305.00 1071.05,305.00 1071.77,305.00 1072.49,305.00 1073.22,305.00 1073.94,305.00 1074.66,305.00 1075.40,305.00 1076.24,305.00 1076.96,305.00 1077.67,305.00 1078.39,305.00 1079.10,305.00 1079.82,305.00 1081.84,305.00 1082.62,305.00 1083.29,305.00 1083.95,305.00 1085.31,305.00 1086.03,305.00 1086.75,305.00 1087.47,305.00 1088.18,305.00 1088.90,305.00 1089.62,305.00 1090.33,305.00 1091.05,305.00 1091.77,305.00 1092.49,305.00 1093.20,305.00 1093.92,305.00 1094.64,305.00 1095.35,305.00 1096.07,305.00 1096.79,305.00 1097.50,305.00 1098.21,305.00 1098.93,305.00 1099.64,305.00 1100.36,305.00 1101.08,305.00 1101.81,305.00 1102.52,305.00 1103.23,305.00 1103.95,305.00 1104.66,305.00 1105.38,305.00 1106.09,305.00 1106.80,305.00 1107.52,305.00 1108.24,305.00 1108.95,305.00 1109.67,305.00 1110.38,305.00 1111.10,305.00 1111.82,305.00 1112.54,305.00 1113.26,305.00 1113.97,305.00 1114.69,305.00 1115.41,305.00 1116.12,305.00 1116.84,305.00 1117.55,305.00 1118.26,305.00 1118.97,305.00 1119.69,305.00 1120.40,305.00 1121.11,305.00 1121.85,305.00 1122.57,305.00 1123.29,305.00 1124.00,305.00 1124.72,305.00 1125.44,305.00 1126.16,305.00 1126.88,305.00 1127.60,305.00 1128.32,305.00 1129.03,305.00 1129.75,305.00 1130.46,305.00 1131.18,305.00 1131.90,305.00 1132.61,305.00 1133.33,305.00 1134.05,305.00 1134.76,305.00 1135.48,305.00 1136.20,305.00 1136.92,305.00 1137.64,305.00 1138.35,305.00 1139.07,305.00 1139.79,305.00 1140.51,305.00 1141.29,305.00 1142.01,305.00 1142.73,305.00 1143.44,305.00 1144.16,305.00 1144.88,305.00 1145.59,305.00 1146.32,305.00 1147.32,305.00 1148.03,305.00 1149.04,305.00 1149.75,305.00 1150.47,305.00 1151.19,305.00 1151.91,305.00 1152.63,305.00 1153.34,305.00 1154.05,305.00 1154.77,305.00 1155.48,305.00 1156.20,305.00 1156.91,305.00 1157.62,305.00 1158.35,305.00 1159.07,305.00 1159.79,305.00 1160.51,305.00 1161.23,305.00 1161.94,305.00 1162.67,305.00 1163.39,305.00 1164.10,305.00 1164.82,305.00 1165.54,305.00 1166.26,305.00 1166.97,305.00 1167.70,305.00 1168.42,305.00 1169.13,305.00 1169.85,305.00 1170.58,305.00 1171.31,305.00 1172.05,305.00 1172.78,305.00 1173.52,305.00 1174.24,305.00 1174.96,305.00 1175.68,305.00 1176.40,305.00 1177.12,305.00 1177.84,305.00 1178.55,305.00 1179.27,305.00 1180.00,305.00"/>
<polyline fill="none" stroke="#9467bd" stroke-opacity="0.50" stroke-width="2" points="70.00,305.00 70.72,305.00 71.44,305.00 72.15,305.00 72.87,305.00 73.59,305.00 74.30,305.00 75.02,305.00 75.80,305.00 76.51,305.00 77.23,305.00 77.94,305.00 78.67,305.00 79.38,305.00 80.09,305.00 81.38,305.00 82.49,305.00 83.22,305.00 83.95,305.00 84.67,305.00 85.38,305.00 86.08,305.00 86.81,305.00 87.52,305.00 88.24,305.00 88.96,305.00 89.69,305.00 90.41,305.00 91.13,305.00 91.89,305.00 92.61,305.00 93.32,305.00 94.06,305.00 94.78,305.00 95.49,305.00 96.23,305.00 96.94,305.00 97.66,305.00 98.39,305.00 99.10,305.00 99.81,305.00 100.52,305.00 101.24,305.00 101.96,305.00 102.67,305.00 103.40,305.00 104.13,305.00 104.83,305.00 105.55,305.00 106.27,305.00 106.99,305.00 107.81,305.00 108.53,305.00 109.24,305.00 109.95,305.00 110.66,305.00 111.37,305.00 112.09,305.00 112.80,305.00 113.52,305.00 114.25,305.00 114.96,305.00 115.67,305.00 116.39,305.00 117.12,305.00 117.83,305.00 118.55,305.00 119.26,305.00 119.97,305.00 120.69,305.00 121.40,305.00 122.11,305.00 122.83,305.00 123.54,305.00 124.25,305.00 124.97,305.00 125.68,305.00 126.40,305.00 127.11,305.00 127.83,305.00 128.56,305.00 129.28,305.00 129.99,305.00 130.71,305.00 131.42,305.00 132.14,305.00 132.86,305.00 133.57,305.00 134.28,305.00 135.00,305.00 135.72,305.00 136.43,305.00 137.16,305.00 137.86,305.00 138.58,305.00 139.30,305.00 140.01,305.00 140.72,305.00 141.44,305.00 142.15,305.00 142.87,305.00 143.59,305.00 144.30,305.00 145.02,305.00 145.75,305.00 146.47,305.00 147.18,305.00 147.90,305.00 148.61,305.00 149.32,305.00 150.05,305.00 150.76,305.00 151.48,305.00 152.19,305.00 152.91,305.00 153.63,305.00 154.35,305.00 155.08,305.00 155.79,305.00 156.51,305.00 157.23,305.00 157.94,305.00 158.66,305.00 159.38,305.00 160.16,305.00 160.87,305.00 161.59,305.00 162.31,305.00 163.02,305.00 163.73,305.00 164.43,305.00 165.15,305.00 165.87,305.00 166.58,305.00 167.29,305.00 168.01,305.00 168.72,305.00 169.43,305.00 170.16,305.00 170.88,305.00 171.59,305.00 172.30,305.00 173.02,305.00 173.73,305.00 174.45,305.00 175.17,305.00 175.89,305.00 176.60,305.00 177.32,305.00 178.03,305.00 178.74,305.00 179.46,305.00 180.17,305.00 180.89,305.00 181.61,305.00 182.33,305.00 183.05,305.00 183.77,305.00 184.49,305.00 185.20,305.00 185.92,305.00 186.63,305.00 187.36,305.00 188.09,305.00 188.80,305.00 189.52,305.00 190.23,305.00 190.94,305.00 191.66,305.00 192.37,305.00 193.08,305.00 193.79,305.00 194.51,305.00 195.23,305.00 195.95,305.00 196.67,305.00 197.38,305.00 198.11,305.00 198.83,305.00 199.54,305.00 200.25,305.00 200.97,305.00 201.74,305.00 202.48,305.00 203.19,305.00 203.90,305.00 204.61,305.00 205.32,305.00 206.04,305.00 206.76,305.00 207.48,305.00 208.19,305.00 208.90,305.00 209.62,305.00 210.35,305.00 211.07,305.00 211.78,305.00 212.49,305.00 213.22,305.00 213.95,305.00 214.68,305.00 215.39,305.00 216.11,305.00 216.82,305.00 217.54,305.00 218.26,305.00 218.97,305.00 219.70,305.00 220.41,305.00 221.12,305.00 221.84,305.00 222.56,305.00 223.28,305.00 223.99,305.00 224.72,305.00 225.44,305.00 226.15,305.00 226.86,305.00 227.57,305.00 228.29,305.00 229.00,305.00 229.72,305.00 230.43,305.00 231.14,305.00 231.85,305.00 232.58,305.00 233.29,305.00 234.01,305.00 234.74,305.00 235.45,305.00 236.18,305.00 236.89,305.00 237.61,305.00 238.32,305.00 239.04,305.00 239.76,305.00 240.49,305.00 241.21,305.00 241.93,305.00 242.64,305.00 243.35,305.00 244.07,305.00 244.78,305.00 245.50,305.00 246.22,305.00 246.94,305.00 247.65,305.00 248.37,305.00 249.09,305.00 249.81,305.00 250.52,305.00 251.24,305.00 251.97,305.00 252.68,305.00 253.40,305.00 254.12,305.00 254.84,305.00 255.56,305.00 256.27,305.00 256.99,305.00 257.78,305.00 258.51,305.00 259.22,305.00 259.94,305.00 260.66,305.00 261.38,305.00 262.10,305.00 262.82,305.00 263.53,305.00 264.27,305.00 264.99,305.00 265.70,305.00 266.42,305.00 267.14,305.00 267.85,305.00 268.57,305.00 269.31,305.00 270.03,305.00 270.75,305.00 271.47,305.00 272.24,305.00 272.96,305.00 273.86,305.00 275.07,305.00 275.81,305.00 276.54,305.00 277.25,305.00 277.96,305.00 278.67,305.00 279.40,305.00 280.12,305.00 280.84,305.00 281.58,305.00 282.32,305.00 283.08,305.00 283.80,305.00 284.52,305.00 285.24,305.00 285.96,305.00 286.69,305.00 287.41,305.00 288.12,305.00 288.84,305.00 289.58,305.00 290.31,305.00 291.01,305.00 291.73,305.00 292.46,305.00 293.21,305.00 293.93,305.00 294.64,305.00 295.38,305.00 296.07,305.00 296.78,305.00 297.51,305.00 298.22,305.00 298.95,305.00 299.69,305.00 300.41,305.00 301.12,305.00 301.85,305.00 302.57,305.00 303.29,305.00 304.00,305.00 304.72,305.00 305.44,305.00 306.16,305.00 306.87,305.00 307.72,305.00 308.56,305.00 309.41,305.00 310.24,305.00 311.06,305.00 311.89,305.00 312.74,305.00 313.57,305.00 314.29,305.00 315.00,305.00 315.71,305.00 316.43,305.00 317.15,305.00 317.86,305.00 318.57,305.00 319.28,305.00 320.00,305.00 320.71,305.00 321.43,305.00 322.14,305.00 322.86,305.00 323.57,305.00 324.28,305.00 324.99,305.00 325.71,305.00 326.42,305.00 327.14,305.00 327.86,305.00 328.57,305.00 329.28,305.00 329.99,305.00 330.70,305.00 331.42,305.00 332.14,305.00 332.85,305.00 333.57,305.00 334.29,305.00 335.00,305.00 335.71,305.00 336.43,305.00 337.14,305.00 337.85,305.00 338.56,305.00 339.26,305.00 339.98,305.00 340.69,305.00 341.40,305.00 342.11,305.00 342.83,305.00 343.54,305.00 344.25,305.00 344.96,305.00 345.66,305.00 346.40,305.00 347.17,305.00 347.89,305.00 348.61,305.00 349.32,305.00 350.03,305.00 350.74,305.00 351.45,305.00 352.16,305.00 353.01,305.00 353.85,305.00 354.68,305.00 355.52,305.00 356.36,305.00 357.20,305.00 358.05,305.00 358.92,305.00 359.70,305.00 360.47,305.00 361.19,305.00 361.91,305.00 362.63,305.00 363.34,305.00 364.05,305.00 364.77,305.00 365.48,305.00 366.19,305.00 366.90,305.00 367.62,305.00 368.34,305.00 369.05,305.00 369.78,305.00 370.49,305.00 371.20,305.00 371.83,305.00 372.57,305.00 373.28,305.00 374.01,305.00 374.73,305.00 375.44,305.00 376.16,305.00 376.88,305.00 377.60,305.00 378.33,305.00 379.05,305.00 379.78,305.00 380.49,305.00 381.19,305.00 381.91,305.00 382.62,305.00 383.33,305.00 384.04,305.00 384.77,305.00 385.48,305.00 386.20,305.00 386.91,305.00 387.62,305.00 388.34,305.00 389.06,305.00 389.78,305.00 390.50,305.00 391.21,305.00 391.93,305.00 392.65,305.00 393.37,305.00 394.11,305.00 394.81,305.00 395.53,305.00 396.24,305.00 396.95,305.00 397.66,305.00 398.38,305.00 399.10,305.00 399.81,305.00 400.52,305.00 401.24,305.00 401.95,305.00 402.67,305.00 403.39,305.00 404.11,305.00 404.97,305.00 405.70,305.00 406.44,305.00 407.16,305.00 407.88,305.00 408.60,305.00 409.31,305.00 410.02,305.00 410.75,305.00 411.47,305.00 412.18,305.00 412.90,305.00 413.62,305.00 414.33,305.00 415.08,305.00 415.80,305.00 416.52,305.00 417.24,305.00 417.95,305.00 418.67,305.00 419.38,305.00 420.10,305.00 420.85,305.00 421.56,305.00 422.29,305.00 423.00,305.00 423.72,305.00 424.44,305.00 425.15,305.00 425.87,305.00 426.59,305.00 427.30,305.00 428.02,305.00 428.74,305.00 429.45,305.00 430.17,305.00 430.89,305.00 431.62,305.00 432.33,305.00 433.05,305.00 433.76,305.00 434.47,305.00 435.20,305.00 435.92,305.00 436.78,305.00 437.52,305.00 438.24,305.00 438.95,305.00 439.66,305.00 440.39,305.00 441.10,305.00 441.82,305.00 442.55,305.00 443.27,305.00 443.98,305.00 444.69,305.00 445.41,305.00 446.12,305.00 446.84,305.00 447.56,305.00 448.27,305.00 448.99,305.00 449.70,305.00 450.42,305.00 451.14,305.00 451.85,305.00 452.57,305.00 453.29,305.00 454.02,305.00 454.73,305.00 455.44,305.00 456.16,305.00 456.90,305.00 457.61,305.00 458.33,305.00 459.05,305.00 459.77,305.00 460.48,305.00 461.20,305.00 461.92,305.00 462.65,305.00 463.37,305.00 464.08,305.00 464.79,305.00 465.51,305.00 466.22,305.00 466.94,305.00 467.65,305.00 468.38,305.00 469.10,305.00 469.83,305.00 470.53,305.00 471.25,305.00 471.96,305.00 472.68,305.00 473.40,305.00 474.11,305.00 474.83,305.00 475.55,305.00 476.27,305.00 476.98,305.00 477.71,305.00 478.43,305.00 479.15,305.00 479.87,305.00 480.59,305.00 481.40,305.00 482.18,305.00 482.95,305.00 483.68,305.00 484.42,305.00 485.14,305.00 485.86,305.00 486.57,305.00 487.24,305.00 487.99,305.00 488.71,305.00 489.43,305.00 490.14,305.00 490.86,305.00 491.57,305.00 492.29,305.00 493.00,305.00 493.72,305.00 494.44,305.00 495.16,305.00 495.88,305.00 496.60,305.00 497.32,305.00 498.05,305.00 498.77,305.00 499.48,305.00 500.20,305.00 500.93,305.00 501.65,305.00 502.36,305.00 503.08,305.00 503.80,305.00 504.51,305.00 505.23,305.00 505.95,305.00 506.66,305.00 507.39,305.00 508.10,305.00 508.82,305.00 509.54,305.00 510.26,305.00 510.98,305.00 511.70,305.00 512.41,305.00 513.13,305.00 513.85,305.00 514.57,305.00 515.29,305.00 516.02,305.00 516.73,305.00 517.45,305.00 518.17,305.00 518.89,305.00 519.62,305.00 520.36,305.00 521.07,305.00 521.79,305.00 522.51,305.00 523.23,305.00 523.94,305.00 524.66,305.00 525.39,305.00 526.11,305.00 526.82,305.00 527.54,305.00 528.26,305.00 528.98,305.00 529.71,305.00 530.43,305.00 531.15,305.00 531.87,305.00 532.59,305.00 533.32,305.00 534.04,305.00 534.75,305.00 535.47,305.00 536.19,305.00 536.93,305.00 537.65,305.00 538.38,305.00 539.10,305.00 539.81,305.00 540.52,305.00 541.24,305.00 541.96,305.00 542.68,305.00 543.40,305.00 544.12,305.00 544.84,305.00 545.56,305.00 546.28,305.00 547.00,305.00 547.71,305.00 548.44,305.00 549.16,305.00 549.88,305.00 550.60,305.00 551.32,305.00 552.03,305.00 552.74,305.00 553.46,305.00 554.19,305.00 554.91,305.00 555.63,305.00 556.35,305.00 557.07,305.00 557.79,305.00 558.52,305.00 559.23,305.00 559.95,305.00 560.68,305.00 561.40,305.00 562.12,305.00 562.84,305.00 563.57,305.00 564.29,305.00 565.01,305.00 565.74,305.00 566.47,305.00 567.19,305.00 567.91,305.00 568.63,305.00 569.35,305.00 570.07,305.00 570.80,305.00 571.52,305.00 572.24,305.00 572.96,305.00 573.67,305.00 574.41,305.00 575.12,305.00 575.85,305.00 576.57,305.00 577.28,305.00 578.00,305.00 578.71,305.00 579.42,305.00 580.15,305.00 580.87,305.00 581.59,305.00 582.30,305.00 583.03,305.00 583.74,305.00 584.48,305.00 585.21,305.00 585.92,305.00 586.64,305.00 587.35,305.00 588.07,305.00 588.79,305.00 589.52,305.00 590.24,305.00 590.95,305.00 591.68,305.00 592.40,305.00 593.11,305.00 593.84,305.00 594.56,305.00 595.30,305.00 596.03,305.00 596.75,305.00 597.48,305.00 598.20,305.00 598.92,305.00 599.63,305.00 600.35,305.00 601.06,305.00 601.79,305.00 602.51,305.00 603.24,305.00 603.96,305.00 604.69,305.00 605.43,305.00 606.15,305.00 606.87,305.00 607.59,305.00 608.31,305.00 609.04,305.00 609.76,305.00 610.49,305.00 611.21,305.00 611.94,305.00 612.66,305.00 613.38,305.00 614.10,305.00 614.82,305.00 615.54,305.00 616.26,305.00 616.98,305.00 617.71,305.00 618.43,305.00 619.15,305.00 619.87,305.00 620.59,305.00 621.32,305.00 622.04,305.00 622.76,305.00 623.48,305.00 624.23,305.00 624.95,305.00 625.68,305.00 626.40,305.00 627.13,305.00 627.87,305.00 628.60,305.00 629.34,305.00 630.08,305.00 630.80,305.00 631.52,305.00 632.24,305.00 632.96,305.00 633.69,305.00 634.41,305.00 635.15,305.00 635.87,305.00 636.59,305.00 637.31,305.00 638.03,305.00 638.75,305.00 639.47,305.00 640.19,305.00 640.91,305.00 641.62,305.00 642.34,305.00 643.06,305.00 643.77,305.00 644.49,305.00 645.21,305.00 645.94,305.00 646.65,305.00 647.38,305.00 648.11,305.00 648.82,305.00 649.55,305.00 650.27,305.00 650.99,305.00 651.70,305.00 652.42,305.00 653.15,305.00 653.87,305.00 654.58,305.00 655.29,305.00 656.01,305.00 656.73,305.00 657.45,305.00 658.17,305.00 658.89,305.00 659.61,305.00 660.33,305.00 661.05,305.00 661.77,305.00 662.49,305.00 663.19,305.00 663.91,305.00 664.61,305.00 665.34,305.00 666.06,305.00 666.79,305.00 667.51,305.00 668.23,305.00 668.95,305.00 669.68,305.00 670.40,305.00 671.12,305.00 671.85,305.00 672.57,305.00 673.28,305.00 674.01,305.00 674.73,305.00 675.46,305.00 676.19,305.00 676.91,305.00 677.62,305.00 678.34,305.00 679.05,305.00 679.77,305.00 680.49,305.00 681.20,305.00 681.92,305.00 682.64,305.00 683.37,305.00 684.08,305.00 684.80,305.00 685.52,305.00 686.24,305.00 686.96,305.00 687.69,305.00 688.40,305.00 689.12,305.00 689.84,305.00 690.57,305.00 691.28,305.00 692.00,305.00 692.73,305.00 693.44,305.00 694.16,305.00 694.89,305.00 695.61,305.00 696.33,305.00 697.04,305.00 697.76,305.00 698.50,305.00 699.22,305.00 699.96,305.00 700.69,305.00 701.41,305.00 702.13,305.00 702.85,305.00 703.58,305.00 704.30,305.00 705.01,305.00 705.74,305.00 706.47,305.00 707.20,305.00 707.91,305.00 708.64,305.00 709.36,305.00 710.08,305.00 710.80,305.00 711.52,305.00 712.23,305.00 712.96,305.00 713.68,305.00 714.39,305.00 715.11,305.00 715.84,305.00 716.55,305.00 717.26,305.00 717.98,305.00 718.70,305.00 719.42,305.00 720.15,305.00 720.87,305.00 721.58,305.00 722.30,305.00 723.03,305.00 723.74,305.00 724.47,305.00 725.18,305.00 725.91,305.00 726.63,305.00 727.34,305.00 728.06,305.00 728.79,305.00 729.50,305.00 730.22,305.00 730.95,305.00 731.69,305.00 732.42,305.00 733.15,305.00 733.88,305.00 734.62,305.00 735.36,305.00 736.09,305.00 736.84,305.00 737.57,305.00 738.31,305.00 739.03,305.00 739.75,305.00 740.47,305.00 741.20,305.00 741.92,305.00 742.64,305.00 743.37,305.00 744.09,305.00 744.81,305.00 745.53,305.00 746.25,305.00 746.96,305.00 747.69,305.00 748.40,305.00 749.12,305.00 749.84,305.00 750.56,305.00 751.28,305.00 752.01,305.00 752.74,305.00 753.46,305.00 754.17,305.00 754.89,305.00 755.61,305.00 756.34,305.00 757.06,305.00 757.78,305.00 758.49,305.00 759.22,305.00 759.94,305.00 760.66,305.00 761.38,305.00 762.10,305.00 762.82,305.00 763.59,305.00 764.33,305.00 765.05,305.00 765.77,305.00 766.48,305.00 767.22,305.00 767.95,305.00 768.67,305.00 769.39,305.00 770.11,305.00 770.81,305.00 771.53,305.00 772.25,305.00 772.97,305.00 773.69,305.00 774.41,305.00 775.14,305.00 775.86,305.00 776.59,305.00 777.30,305.00 778.02,305.00 778.74,305.00 779.46,305.00 780.18,305.00 780.90,305.00 781.62,305.00 782.35,305.00 783.07,305.00 783.79,305.00 784.54,305.00 785.26,305.00 785.98,305.00 786.70,305.00 787.42,305.00 788.14,305.00 788.87,305.00 789.59,305.00 790.31,305.00 791.03,305.00 791.75,305.00 792.48,305.00 793.21,305.00 793.94,305.00 794.65,305.00 795.37,305.00 796.09,305.00 796.81,305.00 797.53,305.00 798.25,305.00 798.98,305.00 799.70,305.00 800.42,305.00 801.14,305.00 801.86,305.00 802.58,305.00 803.30,305.00 804.01,305.00 804.73,305.00 805.46,305.00 806.18,305.00 806.89,305.00 807.62,305.00 808.34,305.00 809.06,305.00 809.78,305.00 810.50,305.00 811.22,305.00 811.93,305.00 812.65,305.00 813.37,305.00 814.09,305.00 814.81,305.00 815.55,305.00 816.27,305.00 816.99,305.00 817.72,305.00 818.44,305.00 819.17,305.00 819.94,305.00 820.68,305.00 821.40,305.00 822.13,305.00 822.86,305.00 823.58,305.00 824.30,305.00 825.02,305.00 825.74,305.00 826.46,305.00 827.19,305.00 827.91,305.00 828.63,305.00 829.36,305.00 830.09,305.00 830.81,305.00 831.53,305.00 832.25,305.00 832.97,305.00 833.70,305.00 834.41,305.00 835.14,305.00 835.86,305.00 836.58,305.00 837.31,305.00 838.03,305.00 838.75,305.00 839.48,305.00 840.21,305.00 840.93,305.00 841.65,305.00 842.37,305.00 843.09,305.00 843.82,305.00 844.53,305.00 845.25,305.00 845.97,305.00 846.69,305.00 847.41,305.00 848.14,305.00 848.85,305.00 849.57,305.00 850.30,305.00 851.02,305.00 851.74,305.00 852.46,305.00 853.18,305.00 853.91,305.00 854.64,305.00 855.34,305.00 856.05,305.00 856.76,305.00 857.49,305.00 858.21,305.00 858.93,305.00 859.66,305.00 860.38,305.00 861.11,305.00 861.84,305.00 862.55,305.00 863.28,305.00 863.99,305.00 864.71,305.00 865.42,305.00 866.14,305.00 866.86,305.00 867.58,305.00 868.30,305.00 869.01,305.00 869.73,305.00 870.45,305.00 871.18,305.00 871.90,305.00 872.61,305.00 873.33,305.00 874.02,305.00 874.76,305.00 875.48,305.00 876.20,305.00 876.93,305.00 877.66,305.00 878.37,305.00 879.09,305.00 879.82,305.00 880.54,305.00 881.26,305.00 881.98,305.00 882.75,305.00 883.47,305.00 884.20,305.00 884.92,305.00 885.65,305.00 886.36,305.00 887.08,305.00 887.81,305.00 888.53,305.00 889.25,305.00 889.96,305.00 890.68,305.00 891.41,305.00 892.14,305.00 892.85,305.00 893.57,305.00 894.29,305.00 895.02,305.00 895.74,305.00 896.46,305.00 897.19,305.00 897.92,305.00 898.65,305.00 899.38,305.00 900.10,305.00 900.82,305.00 901.55,305.00 902.27,305.00 902.99,305.00 903.71,305.00 904.43,305.00 905.15,305.00 905.87,305.00 906.59,305.00 907.31,305.00 908.04,305.00 908.76,305.00 909.48,305.00 910.19,305.00 910.91,305.00 911.63,305.00 912.36,305.00 913.07,305.00 913.79,305.00 914.51,305.00 915.22,305.00 915.94,305.00 916.66,305.00 917.38,305.00 918.09,305.00 918.81,305.00 919.53,305.00 920.25,305.00 920.96,305.00 921.68,305.00 922.39,305.00 923.12,305.00 923.83,305.00 924.55,305.00 925.26,305.00 925.98,305.00 926.71,305.00 927.43,305.00 928.14,305.00 928.87,305.00 929.62,305.00 930.33,305.00 931.06,305.00 931.78,305.00 932.51,305.00 933.23,305.00 933.95,305.00 934.67,305.00 935.39,305.00 936.11,305.00 936.83,305.00 937.54,305.00 938.27,305.00 938.99,305.00 939.71,305.00 940.42,305.00 941.14,305.00 941.86,305.00 942.57,305.00 943.30,305.00 944.03,305.00 944.78,305.00 945.50,305.00 946.21,305.00 946.92,305.00 947.63,305.00 948.37,305.00 949.08,305.00 949.80,305.00 950.53,305.00 951.25,305.00 951.97,305.00 952.69,305.00 953.41,305.00 954.14,305.00 954.85,305.00 955.57,305.00 956.30,305.00 957.01,305.00 957.73,305.00 958.45,305.00 959.16,305.00 959.88,305.00 960.60,305.00 961.32,305.00 962.04,305.00 962.76,305.00 963.48,305.00 964.20,305.00 964.92,305.00 965.64,305.00 966.36,305.00 967.07,305.00 967.79,305.00 968.52,305.00 969.23,305.00 969.96,305.00 970.68,305.00 971.39,305.00 972.10,305.00 972.83,305.00 973.55,305.00 974.26,305.00 975.00,305.00 975.72,305.00 976.44,305.00 977.16,305.00 977.88,305.00 978.60,305.00 979.34,305.00 980.06,305.00 980.83,305.00 981.55,305.00 982.32,305.00 983.04,305.00 983.76,305.00 984.47,305.00 985.19,305.00 985.91,305.00 986.63,305.00 987.35,305.00 988.07,305.00 988.79,305.00 989.51,305.00 990.23,305.00 990.95,305.00 991.66,305.00 992.39,305.00 993.10,305.00 993.82,305.00 994.53,305.00 995.26,305.00 995.98,305.00 996.70,305.00 997.42,305.00 998.13,305.00 998.85,305.00 999.57,305.00 1000.30,305.00 1001.02,305.00 1001.74,305.00 1002.46,305.00 1003.18,305.00 1003.89,305.00 1004.61,305.00 1005.33,305.00 1006.05,305.00 1006.76,305.00 1007.48,305.00 1008.19,305.00 1008.90,305.00 1009.63,305.00 1010.34,305.00 1011.07,305.00 1011.79,305.00 1012.54,305.00 1013.26,305.00 1013.98,305.00 1014.69,305.00 1015.41,305.00 1016.12,305.00 1016.83,305.00 1017.56,305.00 1018.27,305.00 1018.99,305.00 1019.70,305.00 1020.42,305.00 1021.13,305.00 1021.85,305.00 1022.57,305.00 1023.28,305.00 1024.00,305.00 1024.73,305.00 1025.44,305.00 1026.16,305.00 1026.89,305.00 1027.60,305.00 1028.32,305.00 1029.05,305.00 1029.76,305.00 1030.48,305.00 1031.21,305.00 1031.93,305.00 1032.66,305.00 1033.37,305.00 1034.09,305.00 1034.81,305.00 1035.53,305.00 1036.24,305.00 1036.99,305.00 1037.71,305.00 1038.43,305.00 1039.16,305.00 1039.88,305.00 1040.60,305.00 1041.31,305.00 1042.03,305.00 1042.76,305.00 1043.48,305.00 1044.19,305.00 1044.91,305.00 1045.64,305.00 1046.36,305.00 1047.08,305.00 1047.82,305.00 1048.56,305.00 1049.32,305.00 1050.04,305.00 1050.76,305.00 1051.48,305.00 1052.19,305.00 1052.92,305.00 1053.64,305.00 1054.36,305.00 1055.08,305.00 1055.80,305.00 1056.53,305.00 1057.24,305.00 1057.95,305.00 1058.68,305.00 1059.40,305.00 1060.13,305.00 1060.86,305.00 1061.59,305.00 1062.32,305.00 1063.05,305.00 1063.80,305.00 1064.52,305.00 1065.29,305.00 1066.01,305.00 1066.73,305.00 1067.46,305.00 1068.17,305.00 1068.89,305.00 1069.61,305.00 1070.33,305.00 1071.05,305.00 1071.77,305.00 1072.49,305.00 1073.22,305.00 1073.94,305.00 1074.66,305.00 1075.40,305.00 1076.24,305.00 1076.96,305.00 1077.67,305.00 1078.39,305.00 1079.10,305.00 1079.82,305.00 1080.53,305.00 1081.19,305.00 1081.84,305.00 1082.62,305.00 1083.29,305.00 1083.95,305.00 1084.69,305.00 1085.31,305.00 1086.03,305.00 1086.75,305.00 1087.47,305.00 1088.18,305.00 1088.90,305.00 1089.62,305.00 1090.33,305.00 1091.05,305.00 1091.77,305.00 1092.49,305.00 1093.20,305.00 1093.92,305.00 1094.64,305.00 1095.35,305.00 1096.07,305.00 1096.79,305.00 1097.50,305.00 1098.21,305.00 1098.93,305.00 1099.64,305.00 1100.36,305.00 1101.08,305.00 1101.81,305.00 1102.52,305.00 1103.23,305.00 1103.95,305.00 1104.66,305.00 1105.38,305.00 1106.09,305.00 1106.80,305.00 1107.52,305.00 1108.24,305.00 1108.95,305.00 1109.67,305.00 1110.38,305.00 1111.10,305.00 1111.82,305.00 1112.54,305.00 1113.26,305.00 1113.97,305.00 1114.69,305.00 1115.41,305.00 1116.12,305.00 1116.84,305.00 1117.55,305.00 1118.26,305.00 1118.97,305.00 1119.69,305.00 1120.40,305.00 1121.11,305.00 1121.85,305.00 1122.57,305.00 1123.29,305.00 1124.00,305.00 1124.72,305.00 1125.44,305.00 1126.16,305.00 1126.88,305.00 1127.60,305.00 1128.32,305.00 1129.03,305.00 1129.75,305.00 1130.46,305.00 1131.18,305.00 1131.90,305.00 1132.61,305.00 1133.33,305.00 1134.05,305.00 1134.76,305.00 1135.48,305.00 1136.20,305.00 1136.92,305.00 1137.64,305.00 1138.35,305.00 1139.07,305.00 1139.79,305.00 1140.51,305.00 1141.29,305.00 1142.01,305.00 1142.73,305.00 1143.44,305.00 1144.16,305.00 1144.88,305.00 1145.59,305.00 1146.32,305.00 1147.32,305.00 1148.03,305.00 1149.04,305.00 1149.75,305.00 1150.47,305.00 1151.19,305.00 1151.91,305.00 1152.63,305.00 1153.34,305.00 1154.05,305.00 1154.77,305.00 1155.48,305.00 1156.20,305.00 1156.91,305.00 1157.62,305.00 1158.35,305.00 1159.07,305.00 1159.79,305.00 1160.51,305.00 1161.23,305.00 1161.94,305.00 1162.67,305.00 1163.39,305.00 1164.10,305.00 1164.82,305.00 1165.54,305.00 1166.26,305.00 1166.97,305.00 1167.70,305.00 1168.42,305.00 1169.13,305.00 1169.85,305.00 1170.58,305.00 1171.31,305.00 1172.05,305.00 1172.78,305.00 1173.52,305.00 1174.24,305.00 1174.96,305.00 1175.68,305.00 1176.40,305.00 1177.12,305.00 1177.84,305.00 1178.55,305.00 1179.27,305.00 1180.00,305.00"/>
<rect x="70" y="332" width="12" height="12" fill="#9467bd" fill-opacity="0.95"/>
<text x="88" y="342" font-size="11" fill="#333" font-family="Arial, Helvetica, sans-serif">nsc1.utdallas.edu</text>
<rect x="350" y="332" width="12" height="12" fill="#9467bd" fill-opacity="0.80"/>
<text x="368" y="342" font-size="11" fill="#333" font-family="Arial, Helvetica, sans-serif">nsc2.utdallas.edu</text>
<rect x="630" y="332" width="12" height="12" fill="#9467bd" fill-opacity="0.65"/>
<text x="648" y="342" font-size="11" fill="#333" font-family="Arial, Helvetica, sans-serif">nsc3.utdallas.edu</text>
<rect x="910" y="332" width="12" height="12" fill="#9467bd" fill-opacity="0.50"/>
<text x="928" y="342" font-size="11" fill="#333" font-family="Arial, Helvetica, sans-serif">nsc4.utdallas.edu</text>
</svg>