<?xml version="1.0" encoding="UTF-8"?>
<svg xmlns="http://www.w3.org/2000/svg" width="1200" height="360" viewBox="0 0 1200 360" role="img" aria-label="GPU Utilization (%)">
<rect width="100%" height="100%" fill="#ffffff"/>
<text x="600.0" y="22" text-anchor="middle" font-size="16" font-family="Arial, Helvetica, sans-serif" font-weight="bold">GPU Utilization (%)</text>
<line x1="70" y1="35.00" x2="1180" y2="35.00" stroke="#e3e3e3" stroke-width="1"/>
<text x="62" y="39.00" text-anchor="end" font-size="11" fill="#444" font-family="Arial, Helvetica, sans-serif">100</text>
<line x1="70" y1="89.00" x2="1180" y2="89.00" stroke="#e3e3e3" stroke-width="1"/>
<text x="62" y="93.00" text-anchor="end" font-size="11" fill="#444" font-family="Arial, Helvetica, sans-serif">80</text>
<line x1="70" y1="143.00" x2="1180" y2="143.00" stroke="#e3e3e3" stroke-width="1"/>
<text x="62" y="147.00" text-anchor="end" font-size="11" fill="#444" font-family="Arial, Helvetica, sans-serif">60</text>
<line x1="70" y1="197.00" x2="1180" y2="197.00" stroke="#e3e3e3" stroke-width="1"/>
<text x="62" y="201.00" text-anchor="end" font-size="11" fill="#444" font-family="Arial, Helvetica, sans-serif">40</text>
<line x1="70" y1="251.00" x2="1180" y2="251.00" stroke="#e3e3e3" stroke-width="1"/>
<text x="62" y="255.00" text-anchor="end" font-size="11" fill="#444" font-family="Arial, Helvetica, sans-serif">20</text>
<line x1="70" y1="305.00" x2="1180" y2="305.00" stroke="#e3e3e3" stroke-width="1"/>
<text x="62" y="309.00" text-anchor="end" font-size="11" fill="#444" font-family="Arial, Helvetica, sans-serif">0</text>
<line x1="70" y1="35" x2="70" y2="305" stroke="#999"/>
<line x1="70" y1="305" x2="1180" y2="305" stroke="#999"/>
<text x="70.00" y="323" text-anchor="middle" font-size="10" fill="#444" font-family="Arial, Helvetica, sans-serif">2026-02-11 16:38</text>
<text x="347.50" y="323" text-anchor="middle" font-size="10" fill="#444" font-family="Arial, Helvetica, sans-serif">2026-02-13 07:45</text>
<text x="625.00" y="323" text-anchor="middle" font-size="10" fill="#444" font-family="Arial, Helvetica, sans-serif">2026-02-14 22:53</text>
<text x="902.50" y="323" text-anchor="middle" font-size="10" fill="#444" font-family="Arial, Helvetica, sans-serif">2026-02-16 14:01</text>
<text x="1180.00" y="323" text-anchor="middle" font-size="10" fill="#444" font-family="Arial, Helvetica, sans-serif">2026-02-18 05:09</text>
<polyline fill="none" stroke="#9467bd" stroke-opacity="0.95" stroke-width="2" points="70.64,305.00 71.27,305.00 71.91,305.00 72.55,305.00 73.19,305.00 73.82,305.00 74.46,305.00 75.15,305.00 75.78,305.00 76.41,305.00 77.04,305.00 77.69,305.00 78.32,305.00 78.96,305.00 80.10,305.00 81.09,305.00 81.73,305.00 82.38,305.00 83.02,305.00 83.65,305.00 84.27,305.00 84.91,305.00 85.55,305.00 86.19,305.00 86.83,305.00 87.48,305.00 88.12,305.00 88.75,305.00 89.42,305.00 90.06,305.00 90.70,305.00 91.35,305.00 91.99,305.00 92.62,305.00 93.28,305.00 93.91,305.00 94.55,305.00 95.19,305.00 95.82,305.00 96.46,305.00 97.09,305.00 97.72,305.00 98.36,305.00 98.99,305.00 99.64,305.00 100.28,305.00 100.91,305.00 101.55,305.00 102.19,305.00 102.83,305.00 103.55,305.00 104.19,305.00 104.82,305.00 105.45,305.00 106.09,305.00 106.72,305.00 107.35,305.00 107.99,305.00 108.62,305.00 109.27,305.00 109.90,305.00 110.53,305.00 111.17,305.00 111.82,305.00 112.45,305.00 113.09,305.00 113.72,305.00 114.35,305.00 114.98,305.00 115.61,305.00 116.24,305.00 116.88,305.00 117.51,305.00 118.15,305.00 118.79,305.00 119.41,305.00 120.05,305.00 120.68,305.00 121.32,305.00 121.97,305.00 122.60,305.00 123.24,305.00 123.88,305.00 124.51,305.00 125.15,305.00 125.78,305.00 126.41,305.00 127.04,305.00 127.68,305.00 128.32,305.00 128.96,305.00 129.60,305.00 130.23,305.00 130.86,305.00 131.50,305.00 132.13,305.00 132.76,305.00 133.40,305.00 134.03,305.00 134.67,305.00 135.30,305.00 135.94,305.00 136.58,305.00 137.22,305.00 137.86,305.00 138.50,305.00 139.13,305.00 139.76,305.00 140.39,305.00 141.04,305.00 141.67,305.00 142.31,305.00 142.94,305.00 143.58,305.00 144.22,305.00 144.86,305.00 145.50,305.00 146.14,305.00 146.77,305.00 147.41,305.00 148.04,305.00 148.68,305.00 149.32,305.00 150.01,305.00 150.64,305.00 151.28,305.00 151.92,305.00 152.55,305.00 153.18,305.00 153.80,305.00 154.44,305.00 155.07,305.00 155.71,305.00 156.34,305.00 156.98,305.00 157.61,305.00 158.24,305.00 158.89,305.00 159.52,305.00 160.15,305.00 160.79,305.00 161.42,305.00 162.06,305.00 162.69,305.00 163.33,305.00 163.97,305.00 164.61,305.00 165.24,305.00 165.87,305.00 166.50,305.00 167.14,305.00 167.77,305.00 168.41,305.00 169.05,305.00 169.69,305.00 170.32,305.00 170.96,305.00 171.60,305.00 172.23,305.00 172.87,305.00 173.51,305.00 174.15,305.00 174.80,305.00 175.43,305.00 176.07,305.00 176.70,305.00 177.33,305.00 177.96,305.00 178.60,305.00 179.23,305.00 179.86,305.00 180.49,305.00 181.13,305.00 181.77,305.00 182.41,305.00 183.04,305.00 183.69,305.00 184.33,305.00 184.96,305.00 185.59,305.00 186.22,305.00 186.91,305.00 187.56,305.00 188.20,305.00 188.83,305.00 189.45,305.00 190.09,305.00 190.73,305.00 191.36,305.00 192.00,305.00 192.64,305.00 193.27,305.00 193.90,305.00 194.55,305.00 195.19,305.00 195.82,305.00 196.45,305.00 197.10,305.00 197.74,305.00 198.39,305.00 199.02,305.00 199.66,305.00 200.30,305.00 200.93,305.00 201.57,305.00 202.20,305.00 202.85,305.00 203.48,305.00 204.11,305.00 204.75,305.00 205.39,305.00 206.02,305.00 206.66,305.00 207.30,305.00 207.94,305.00 208.57,305.00 209.20,305.00 209.83,305.00 210.47,305.00 211.11,305.00 211.74,305.00 212.37,305.00 213.00,305.00 213.64,305.00 214.28,305.00 214.91,305.00 215.55,305.00 216.19,305.00 216.83,305.00 217.47,305.00 218.10,305.00 218.74,305.00 219.38,305.00 220.01,305.00 220.65,305.00 221.30,305.00 221.93,305.00 222.57,305.00 223.21,305.00 223.84,305.00 224.48,305.00 225.11,305.00 225.74,305.00 226.38,305.00 227.02,305.00 227.66,305.00 228.29,305.00 228.93,305.00 229.57,305.00 230.20,305.00 230.84,305.00 231.48,305.00 232.12,305.00 232.75,305.00 233.39,305.00 234.03,305.00 234.67,305.00 235.31,305.00 235.94,305.00 236.65,305.00 237.29,305.00 237.92,305.00 238.56,305.00 239.20,305.00 239.84,305.00 240.48,305.00 241.11,305.00 241.74,305.00 242.40,80.90 243.04,72.80 243.68,305.00 244.31,305.00 244.95,305.00 245.58,305.00 246.22,305.00 246.88,305.00 247.51,305.00 248.15,305.00 248.79,305.00 249.48,305.00 250.11,305.00 250.91,305.00 251.99,305.00 252.64,305.00 253.29,305.00 253.92,305.00 254.55,305.00 255.18,305.00 255.83,305.00 256.46,305.00 257.10,305.00 257.77,305.00 258.42,305.00 259.10,305.00 259.74,305.00 260.37,305.00 261.01,305.00 261.65,305.00 262.30,305.00 262.94,305.00 263.57,305.00 264.21,305.00 264.87,305.00 265.51,305.00 266.14,305.00 266.77,305.00 267.42,305.00 268.08,305.00 268.72,305.00 269.36,305.00 270.01,305.00 270.62,305.00 271.25,305.00 271.90,305.00 272.53,305.00 273.18,305.00 273.84,305.00 274.47,305.00 275.11,305.00 275.75,305.00 276.39,305.00 277.03,305.00 277.66,305.00 278.30,305.00 278.94,305.00 279.57,305.00 280.20,305.00 280.96,305.00 281.71,305.00 282.46,305.00 283.20,305.00 283.93,305.00 284.66,305.00 285.41,305.00 286.16,305.00 286.79,305.00 287.42,305.00 288.06,305.00 288.69,305.00 289.33,305.00 289.96,305.00 290.59,305.00 291.22,305.00 291.86,305.00 292.49,305.00 293.13,305.00 293.76,305.00 294.39,305.00 295.02,305.00 295.66,305.00 296.29,305.00 296.93,305.00 297.56,305.00 298.19,305.00 298.83,305.00 299.46,305.00 300.09,305.00 300.72,305.00 301.36,305.00 302.00,305.00 302.63,305.00 303.26,305.00 303.90,305.00 304.54,305.00 305.17,305.00 305.80,305.00 306.44,305.00 307.07,305.00 307.70,305.00 308.33,305.00 308.96,305.00 309.59,305.00 310.22,305.00 310.85,305.00 311.48,305.00 312.12,305.00 312.75,305.00 313.38,305.00 314.01,305.00 314.63,305.00 315.29,305.00 315.97,305.00 316.61,305.00 317.25,305.00 317.88,305.00 318.51,305.00 319.14,305.00 319.77,305.00 320.40,305.00 321.15,305.00 321.90,305.00 322.64,305.00 323.38,305.00 324.13,305.00 324.87,305.00 325.63,305.00 326.40,305.00 327.09,305.00 327.77,305.00 328.41,305.00 329.05,305.00 329.69,305.00 330.32,305.00 330.95,305.00 331.59,305.00 332.22,305.00 332.85,305.00 333.48,305.00 334.12,305.00 334.76,305.00 335.39,305.00 336.03,305.00 336.66,305.00 337.30,305.00 337.85,305.00 338.51,305.00 339.14,305.00 339.79,305.00 340.43,305.00 341.06,305.00 341.70,305.00 342.34,305.00 342.98,305.00 343.62,305.00 344.26,305.00 344.91,305.00 345.54,305.00 346.17,305.00 346.80,305.00 347.43,305.00 348.06,305.00 348.69,305.00 349.34,305.00 349.97,305.00 350.60,305.00 351.24,305.00 351.87,305.00 352.51,305.00 353.14,305.00 353.78,305.00 354.42,305.00 355.06,305.00 355.69,305.00 356.33,305.00 356.97,305.00 357.62,305.00 358.25,305.00 358.88,305.00 359.52,305.00 360.15,305.00 360.78,305.00 361.42,305.00 362.05,305.00 362.68,305.00 363.32,305.00 363.95,305.00 364.58,305.00 365.22,305.00 365.86,305.00 366.50,305.00 367.26,305.00 367.92,305.00 368.57,305.00 369.21,305.00 369.84,305.00 370.49,305.00 371.12,305.00 371.75,305.00 372.39,305.00 373.03,305.00 373.66,305.00 374.30,305.00 374.94,305.00 375.58,305.00 376.23,305.00 376.88,305.00 377.52,305.00 378.15,305.00 378.79,305.00 379.42,305.00 380.05,305.00 380.69,305.00 381.35,305.00 381.99,305.00 382.63,305.00 383.27,305.00 383.90,305.00 384.54,305.00 385.17,305.00 385.81,305.00 386.45,305.00 387.09,305.00 387.72,305.00 388.36,305.00 388.99,305.00 389.63,305.00 390.26,305.00 390.91,305.00 391.55,305.00 392.18,305.00 392.81,305.00 393.45,305.00 394.09,305.00 394.73,305.00 395.50,305.00 396.15,305.00 396.79,305.00 397.42,305.00 398.05,305.00 398.69,305.00 399.33,305.00 399.97,305.00 400.62,305.00 401.25,305.00 401.88,305.00 402.52,305.00 403.15,305.00 403.79,305.00 404.42,305.00 405.06,305.00 405.69,305.00 406.33,305.00 406.96,305.00 407.59,305.00 408.24,305.00 408.87,305.00 409.50,305.00 410.15,305.00 410.79,305.00 411.42,305.00 412.06,305.00 412.70,305.00 413.35,305.00 413.98,305.00 414.62,305.00 415.26,305.00 415.89,305.00 416.53,305.00 417.16,305.00 417.80,305.00 418.46,305.00 419.09,305.00 419.72,305.00 420.35,305.00 420.99,305.00 421.62,305.00 422.26,305.00 422.89,305.00 423.54,305.00 424.18,305.00 424.82,305.00 425.44,305.00 426.09,305.00 426.72,305.00 427.36,305.00 427.99,305.00 428.63,305.00 429.26,305.00 429.90,305.00 430.54,305.00 431.17,305.00 431.82,305.00 432.46,305.00 433.10,305.00 433.73,305.00 434.37,305.00 435.09,305.00 435.79,305.00 436.47,305.00 437.11,305.00 437.77,305.00 438.41,305.00 439.05,305.00 439.68,305.00 440.27,305.00 440.94,305.00 441.57,305.00 442.22,305.00 442.85,305.00 443.48,305.00 444.12,305.00 444.76,305.00 445.39,305.00 446.03,305.00 446.66,305.00 447.30,305.00 447.94,305.00 448.58,305.00 449.22,305.00 449.86,305.00 450.50,305.00 451.14,305.00 451.78,305.00 452.43,305.00 453.07,305.00 453.70,305.00 454.33,305.00 454.97,305.00 455.60,305.00 456.24,305.00 456.88,305.00 457.51,305.00 458.16,305.00 458.79,305.00 459.42,305.00 460.06,305.00 460.70,305.00 461.34,305.00 461.98,305.00 462.61,305.00 463.25,305.00 463.89,305.00 464.53,305.00 465.17,305.00 465.81,305.00 466.45,305.00 467.09,305.00 467.73,305.00 468.36,305.00 469.01,305.00 469.66,305.00 470.30,305.00 470.94,305.00 471.58,305.00 472.21,305.00 472.85,305.00 473.49,305.00 474.13,305.00 474.77,305.00 475.40,305.00 476.04,305.00 476.68,305.00 477.32,305.00 477.96,305.00 478.60,305.00 479.24,305.00 479.88,305.00 480.52,305.00 481.17,305.00 481.81,305.00 482.44,305.00 483.08,305.00 483.72,305.00 484.37,305.00 485.01,305.00 485.65,305.00 486.29,305.00 486.92,305.00 487.56,305.00 488.20,305.00 488.84,305.00 489.48,305.00 490.11,305.00 490.75,305.00 491.39,305.00 492.03,305.00 492.67,305.00 493.31,305.00 493.94,305.00 494.59,305.00 495.23,305.00 495.87,305.00 496.50,305.00 497.14,305.00 497.77,305.00 498.41,305.00 499.04,305.00 499.68,305.00 500.33,305.00 500.96,305.00 501.61,305.00 502.24,305.00 502.89,305.00 503.53,305.00 504.16,305.00 504.80,305.00 505.45,305.00 506.09,305.00 506.72,305.00 507.37,305.00 508.01,305.00 508.65,305.00 509.29,305.00 509.94,305.00 510.58,305.00 511.23,305.00 511.86,305.00 512.50,305.00 513.14,305.00 513.78,305.00 514.43,305.00 515.07,305.00 515.71,305.00 516.34,305.00 516.97,305.00 517.63,305.00 518.26,305.00 518.91,305.00 519.55,305.00 520.18,305.00 520.82,305.00 521.45,305.00 522.08,305.00 522.72,305.00 523.36,305.00 524.00,305.00 524.64,305.00 525.28,305.00 525.92,305.00 526.57,305.00 527.21,305.00 527.85,305.00 528.49,305.00 529.12,305.00 529.76,305.00 530.40,305.00 531.04,305.00 531.68,305.00 532.31,305.00 532.96,305.00 533.60,305.00 534.23,305.00 534.87,305.00 535.52,305.00 536.17,305.00 536.82,305.00 537.46,305.00 538.10,305.00 538.74,305.00 539.38,305.00 540.02,305.00 540.65,305.00 541.29,305.00 541.93,305.00 542.57,305.00 543.21,305.00 543.85,305.00 544.50,305.00 545.16,305.00 545.80,305.00 546.44,305.00 547.08,305.00 547.72,305.00 548.36,305.00 549.00,305.00 549.65,305.00 550.29,305.00 550.93,305.00 551.57,305.00 552.22,305.00 552.86,305.00 553.50,305.00 554.13,305.00 554.77,305.00 555.41,305.00 556.05,305.00 556.70,305.00 557.34,305.00 557.98,305.00 558.62,305.00 559.26,305.00 559.90,305.00 560.54,305.00 561.18,305.00 561.84,305.00 562.48,305.00 563.13,305.00 563.77,305.00 564.42,305.00 565.07,305.00 565.73,305.00 566.38,305.00 567.04,305.00 567.68,305.00 568.32,305.00 568.95,305.00 569.60,305.00 570.24,305.00 570.88,305.00 571.54,305.00 572.17,305.00 572.81,305.00 573.45,305.00 574.09,305.00 574.73,305.00 575.37,305.00 576.01,305.00 576.64,305.00 577.28,305.00 577.92,305.00 578.56,305.00 579.19,305.00 579.82,305.00 580.47,305.00 581.11,305.00 581.74,305.00 582.39,305.00 583.04,305.00 583.67,305.00 584.31,305.00 584.95,305.00 585.59,305.00 586.23,305.00 586.86,305.00 587.50,305.00 588.15,305.00 588.78,305.00 589.41,305.00 590.05,305.00 590.68,305.00 591.33,305.00 591.96,305.00 592.60,305.00 593.24,305.00 593.88,305.00 594.52,305.00 595.16,305.00 595.80,305.00 596.42,305.00 597.06,305.00 597.68,305.00 598.32,305.00 598.96,305.00 599.62,305.00 600.25,305.00 600.89,305.00 601.53,305.00 602.18,305.00 602.82,305.00 603.46,305.00 604.10,305.00 604.74,305.00 605.38,305.00 606.02,305.00 606.66,305.00 607.31,305.00 607.95,305.00 608.59,305.00 609.23,305.00 609.86,305.00 610.50,305.00 611.14,305.00 611.77,305.00 612.40,305.00 613.04,305.00 613.68,305.00 614.33,305.00 614.96,305.00 615.60,305.00 616.23,305.00 616.87,305.00 617.52,305.00 618.16,305.00 618.80,305.00 619.43,305.00 620.07,305.00 620.72,305.00 621.35,305.00 621.99,305.00 622.63,305.00 623.27,305.00 623.90,305.00 624.55,305.00 625.19,305.00 625.83,305.00 626.46,305.00 627.10,305.00 627.76,305.00 628.40,305.00 629.05,305.00 629.70,305.00 630.34,305.00 630.98,305.00 631.62,305.00 632.26,305.00 632.90,305.00 633.53,305.00 634.18,305.00 634.83,305.00 635.47,305.00 636.11,305.00 636.75,305.00 637.39,305.00 638.03,305.00 638.67,305.00 639.30,305.00 639.94,305.00 640.58,305.00 641.22,305.00 641.86,305.00 642.49,305.00 643.14,305.00 643.77,305.00 644.41,305.00 645.05,305.00 645.68,305.00 646.32,305.00 646.97,305.00 647.60,305.00 648.24,305.00 648.88,305.00 649.52,305.00 650.15,305.00 650.80,305.00 651.43,305.00 652.08,305.00 652.72,305.00 653.35,305.00 653.99,305.00 654.63,305.00 655.27,305.00 655.90,305.00 656.55,305.00 657.21,305.00 657.85,305.00 658.51,305.00 659.16,305.00 659.81,305.00 660.47,305.00 661.12,305.00 661.78,305.00 662.43,305.00 663.09,305.00 663.72,305.00 664.36,305.00 665.00,305.00 665.65,305.00 666.29,305.00 666.93,305.00 667.57,305.00 668.21,305.00 668.85,305.00 669.49,305.00 670.13,305.00 670.76,305.00 671.40,305.00 672.04,305.00 672.68,305.00 673.32,305.00 673.96,305.00 674.59,305.00 675.24,305.00 675.89,305.00 676.53,305.00 677.16,305.00 677.80,305.00 678.44,305.00 679.08,305.00 679.72,305.00 680.36,305.00 680.99,305.00 681.64,305.00 682.28,305.00 682.91,305.00 683.56,305.00 684.19,305.00 684.83,305.00 685.52,305.00 686.18,305.00 686.81,305.00 687.45,305.00 688.09,305.00 688.74,305.00 689.38,305.00 690.03,305.00 690.67,305.00 691.30,305.00 691.93,305.00 692.57,305.00 693.20,305.00 693.84,305.00 694.49,305.00 695.12,305.00 695.77,305.00 696.41,305.00 697.05,305.00 697.69,305.00 698.32,305.00 698.96,305.00 699.60,305.00 700.24,305.00 700.88,305.00 701.52,305.00 702.16,305.00 702.80,305.00 703.44,305.00 704.11,305.00 704.75,305.00 705.39,305.00 706.03,305.00 706.67,305.00 707.31,305.00 707.95,305.00 708.59,305.00 709.23,305.00 709.87,305.00 710.51,305.00 711.16,305.00 711.80,305.00 712.45,305.00 713.08,305.00 713.72,305.00 714.36,305.00 715.00,305.00 715.64,305.00 716.27,305.00 716.92,305.00 717.56,305.00 718.20,305.00 718.84,305.00 719.48,305.00 720.12,305.00 720.76,305.00 721.39,305.00 722.03,305.00 722.67,305.00 723.31,305.00 723.95,305.00 724.59,305.00 725.23,305.00 725.87,305.00 726.51,305.00 727.15,305.00 727.79,305.00 728.42,305.00 729.05,305.00 729.69,305.00 730.34,305.00 730.97,305.00 731.63,305.00 732.27,305.00 732.91,305.00 733.55,305.00 734.19,305.00 734.84,305.00 735.53,305.00 736.18,305.00 736.82,305.00 737.47,305.00 738.12,305.00 738.75,305.00 739.39,305.00 740.03,305.00 740.67,305.00 741.31,305.00 741.96,305.00 742.59,305.00 743.23,305.00 743.89,305.00 744.53,305.00 745.17,305.00 745.81,305.00 746.45,305.00 747.09,305.00 747.73,305.00 748.37,305.00 749.01,305.00 749.66,305.00 750.29,305.00 750.94,305.00 751.58,305.00 752.22,305.00 752.86,305.00 753.51,305.00 754.15,305.00 754.80,305.00 755.43,305.00 756.07,305.00 756.72,305.00 757.35,305.00 757.98,305.00 758.63,305.00 759.26,305.00 759.91,305.00 760.55,305.00 761.18,305.00 761.82,305.00 762.47,305.00 763.11,305.00 763.74,305.00 764.39,305.00 765.03,305.00 765.68,305.00 766.32,305.00 766.94,305.00 767.57,305.00 768.20,305.00 768.85,305.00 769.49,305.00 770.13,305.00 770.78,305.00 771.41,305.00 772.06,305.00 772.71,305.00 773.34,305.00 773.98,305.00 774.62,305.00 775.26,305.00 775.89,305.00 776.52,305.00 777.16,305.00 777.80,305.00 778.44,305.00 779.08,305.00 779.71,305.00 780.35,305.00 780.99,305.00 781.63,305.00 782.27,305.00 782.90,305.00 783.52,305.00 784.18,305.00 784.81,305.00 785.45,305.00 786.10,305.00 786.75,305.00 787.38,305.00 788.02,305.00 788.66,305.00 789.30,305.00 789.94,305.00 790.58,305.00 791.27,305.00 791.90,305.00 792.55,305.00 793.19,305.00 793.84,305.00 794.47,305.00 795.11,305.00 795.75,305.00 796.39,305.00 797.03,305.00 797.67,305.00 798.30,305.00 798.95,305.00 799.59,305.00 800.23,305.00 800.87,305.00 801.51,305.00 802.15,305.00 802.79,305.00 803.44,305.00 804.08,305.00 804.72,305.00 805.38,305.00 806.02,305.00 806.66,305.00 807.30,305.00 807.94,305.00 808.59,305.00 809.23,305.00 809.86,305.00 810.50,305.00 811.14,305.00 811.78,305.00 812.42,305.00 813.06,305.00 813.70,305.00 814.35,305.00 814.99,305.00 815.62,305.00 816.26,305.00 816.89,305.00 817.54,305.00 818.17,305.00 818.81,305.00 819.45,305.00 820.08,305.00 820.72,305.00 821.35,305.00 821.99,305.00 822.63,305.00 823.26,305.00 823.90,305.00 824.54,305.00 825.17,305.00 825.81,305.00 826.44,305.00 827.09,305.00 827.72,305.00 828.36,305.00 828.99,305.00 829.63,305.00 830.28,305.00 830.91,305.00 831.55,305.00 832.19,305.00 832.86,305.00 833.49,305.00 834.13,305.00 834.78,305.00 835.42,305.00 836.06,305.00 836.70,305.00 837.34,305.00 837.98,305.00 838.62,305.00 839.25,305.00 839.89,305.00 840.53,305.00 841.17,305.00 841.81,305.00 842.45,305.00 843.08,305.00 843.72,305.00 844.36,305.00 845.00,305.00 845.64,305.00 846.31,305.00 846.95,305.00 847.58,305.00 848.21,305.00 848.84,305.00 849.50,305.00 850.13,305.00 850.77,305.00 851.41,305.00 852.05,305.00 852.69,305.00 853.33,305.00 853.97,305.00 854.61,305.00 855.25,305.00 855.89,305.00 856.53,305.00 857.17,305.00 857.81,305.00 858.44,305.00 859.07,305.00 859.72,305.00 860.35,305.00 860.99,305.00 861.63,305.00 862.27,305.00 862.91,305.00 863.54,305.00 864.18,305.00 864.82,305.00 865.46,305.00 866.10,305.00 866.73,305.00 867.38,305.00 868.01,305.00 868.65,305.00 869.29,305.00 869.93,305.00 870.56,305.00 871.20,305.00 871.84,305.00 872.48,305.00 873.13,305.00 873.77,305.00 874.41,305.00 875.05,305.00 875.69,305.00 876.33,305.00 876.98,305.00 878.30,305.00 878.94,305.00 879.63,305.00 880.27,305.00 880.90,305.00 881.54,305.00 882.18,305.00 882.81,305.00 883.45,305.00 884.09,305.00 884.73,305.00 885.37,305.00 886.01,305.00 886.65,305.00 887.28,305.00 887.92,305.00 888.56,305.00 889.20,305.00 889.83,305.00 890.46,305.00 891.11,305.00 891.75,305.00 892.39,305.00 893.03,305.00 893.66,305.00 894.30,305.00 894.94,305.00 895.58,305.00 896.22,305.00 896.86,305.00 897.50,305.00 898.14,305.00 898.77,305.00 899.41,305.00 900.05,305.00 900.68,305.00 901.32,305.00 901.95,305.00 902.58,305.00 903.22,305.00 903.86,305.00 904.50,305.00 905.14,305.00 905.78,305.00 906.44,305.00 907.08,305.00 907.72,305.00 908.36,305.00 908.99,305.00 909.62,305.00 910.26,305.00 910.90,305.00 911.53,305.00 912.17,305.00 912.80,305.00 913.44,305.00 914.07,305.00 914.71,305.00 915.35,305.00 915.98,305.00 916.62,305.00 917.27,305.00 917.90,305.00 918.53,305.00 919.18,305.00 919.81,305.00 920.45,305.00 921.09,305.00 921.73,305.00 922.37,305.00 923.01,305.00 923.65,305.00 924.30,305.00 924.93,305.00 925.57,305.00 926.21,305.00 926.85,305.00 927.48,305.00 928.14,305.00 928.78,305.00 929.42,305.00 930.07,305.00 930.70,305.00 931.34,305.00 931.98,305.00 932.62,305.00 933.26,305.00 933.90,305.00 934.53,305.00 935.17,305.00 935.82,305.00 936.46,305.00 937.10,305.00 937.75,305.00 938.41,305.00 939.08,305.00 939.73,305.00 940.37,305.00 941.00,305.00 941.64,305.00 942.28,305.00 942.92,305.00 943.55,305.00 944.20,305.00 944.84,305.00 945.48,305.00 946.12,305.00 946.75,305.00 947.39,305.00 948.03,305.00 948.67,305.00 949.33,305.00 949.98,305.00 950.62,305.00 951.27,305.00 951.93,305.00 952.58,305.00 953.26,305.00 953.90,305.00 954.54,305.00 955.18,305.00 955.82,305.00 956.46,305.00 957.09,305.00 957.73,305.00 958.37,305.00 959.00,305.00 959.64,305.00 960.30,305.00 960.94,305.00 961.58,305.00 962.23,305.00 962.97,305.00 963.61,305.00 964.25,305.00 964.88,305.00 965.52,305.00 966.15,305.00 966.78,305.00 967.37,305.00 967.94,305.00 968.64,305.00 969.23,305.00 969.82,305.00 970.47,305.00 971.03,305.00 971.66,305.00 972.30,305.00 972.94,305.00 973.57,305.00 974.21,305.00 974.85,305.00 975.48,305.00 976.11,305.00 976.76,305.00 977.39,305.00 978.03,305.00 978.66,305.00 979.31,305.00 979.94,305.00 980.58,305.00 981.21,305.00 981.84,305.00 982.47,305.00 983.11,305.00 983.75,305.00 984.38,305.00 985.02,305.00 985.66,305.00 986.30,305.00 986.92,305.00 987.57,305.00 988.20,305.00 988.83,305.00 989.47,305.00 990.10,305.00 990.73,305.00 991.37,305.00 992.00,305.00 992.64,305.00 993.28,305.00 993.91,305.00 994.55,305.00 995.19,305.00 995.83,305.00 996.46,305.00 997.10,305.00 997.73,305.00 998.37,305.00 999.00,305.00 999.63,305.00 1000.27,305.00 1000.90,305.00 1001.54,305.00 1002.17,305.00 1002.80,305.00 1003.45,305.00 1004.09,305.00 1004.73,305.00 1005.36,305.00 1006.00,305.00 1006.64,305.00 1007.28,305.00 1007.91,305.00 1008.55,305.00 1009.19,305.00 1009.83,305.00 1010.46,305.00 1011.09,305.00 1011.73,305.00 1012.37,305.00 1013.00,305.00 1013.64,305.00 1014.28,305.00 1014.91,305.00 1015.55,305.00 1016.18,305.00 1016.82,305.00 1017.46,305.00 1018.10,305.00 1018.73,305.00 1019.37,305.00 1020.01,305.00 1020.71,305.00 1021.34,305.00 1021.98,305.00 1022.61,305.00 1023.25,305.00 1023.89,305.00 1024.52,305.00 1025.16,305.00 1026.05,305.00 1026.69,305.00 1027.58,305.00 1028.21,305.00 1028.85,305.00 1029.49,305.00 1030.13,305.00 1030.76,305.00 1031.39,305.00 1032.02,305.00 1032.66,305.00 1033.30,305.00 1033.93,305.00 1034.56,305.00 1035.20,305.00 1035.84,305.00 1036.48,305.00 1037.12,305.00 1037.76,305.00 1038.40,305.00 1039.03,305.00 1039.68,305.00 1040.31,305.00 1040.95,305.00 1041.59,305.00 1042.22,305.00 1042.86,305.00 1043.50,305.00 1044.14,305.00 1044.78,305.00 1045.41,305.00 1046.05,305.00 1046.69,305.00 1047.35,305.00 1048.00,305.00 1048.65,305.00 1049.31,305.00 1049.94,305.00 1050.58,305.00 1051.22,305.00 1051.86,305.00 1052.50,305.00 1053.14,305.00 1053.77,305.00 1054.41,305.00 1055.06,305.00 1055.69,305.00 1056.34,305.00 1056.98,305.00 1057.62,305.00 1058.26,305.00 1058.90,305.00 1059.54,305.00 1060.18,305.00 1060.82,305.00 1061.46,305.00 1062.10,305.00 1062.74,305.00 1063.39,305.00 1064.03,305.00 1064.66,305.00 1065.30,305.00 1065.94,305.00 1066.58,305.00 1067.23,305.00 1067.88,305.00 1068.51,305.00 1069.15,305.00 1069.79,305.00 1070.43,305.00 1071.07,305.00 1071.71,305.00 1072.35,305.00 1072.98,305.00 1073.62,305.00 1074.26,305.00 1074.89,305.00 1075.53,305.00 1076.19,305.00 1076.83,305.00 1077.48,305.00 1078.11,305.00 1078.74,305.00 1079.39,305.00 1080.02,305.00 1080.66,305.00 1081.30,305.00 1081.94,305.00 1082.58,305.00 1083.22,305.00 1083.86,305.00 1084.50,305.00 1085.14,305.00 1085.78,305.00 1086.41,305.00 1087.05,305.00 1087.69,305.00 1088.34,305.00 1088.98,305.00 1089.62,305.00 1090.26,305.00 1090.90,305.00 1091.54,305.00 1092.18,305.00 1092.83,305.00 1093.46,305.00 1094.11,305.00 1094.76,305.00 1095.39,305.00 1096.03,305.00 1096.66,305.00 1097.30,305.00 1097.95,305.00 1098.59,305.00 1099.24,305.00 1099.89,305.00 1100.53,305.00 1101.17,305.00 1101.81,305.00 1102.45,305.00 1103.09,305.00 1103.73,305.00 1104.37,305.00 1105.02,305.00 1105.66,305.00 1106.29,305.00 1106.94,305.00 1107.57,305.00 1108.22,305.00 1108.86,305.00 1109.49,305.00 1110.14,305.00 1110.79,305.00 1111.44,305.00 1112.07,305.00 1112.72,305.00 1113.36,305.00 1114.00,305.00 1114.63,305.00 1115.28,305.00 1115.94,305.00 1116.58,305.00 1117.22,305.00 1117.86,305.00 1118.50,305.00 1119.14,305.00 1119.80,305.00 1120.44,305.00 1121.09,305.00 1121.73,305.00 1122.38,305.00 1123.03,305.00 1123.70,305.00 1124.34,305.00 1124.99,305.00 1125.63,305.00 1126.26,305.00 1126.90,305.00 1127.54,305.00 1128.18,305.00 1128.83,305.00 1129.47,305.00 1130.13,305.00 1130.77,305.00 1131.41,305.00 1132.05,305.00 1132.69,305.00 1133.33,305.00 1133.99,305.00 1134.62,305.00 1135.26,305.00 1135.90,305.00 1136.54,305.00 1137.18,305.00 1137.84,305.00 1138.48,305.00 1139.11,305.00 1139.74,305.00 1140.37,305.00 1141.01,305.00 1141.65,305.00 1142.29,305.00 1142.95,305.00 1143.58,305.00 1144.22,305.00 1144.86,305.00 1145.50,305.00 1146.13,305.00 1146.77,305.00 1147.41,305.00 1148.06,305.00 1148.70,305.00 1149.33,305.00 1149.96,305.00 1150.61,305.00 1151.24,305.00 1151.91,305.00 1152.54,305.00 1153.19,305.00 1153.83,305.00 1154.46,305.00 1155.09,305.00 1155.73,305.00 1156.37,305.00 1157.01,305.00 1157.68,305.00 1158.32,305.00 1158.96,305.00 1159.60,305.00 1160.23,305.00 1160.87,305.00 1161.50,305.00 1162.13,305.00 1162.78,305.00 1163.42,305.00 1164.05,305.00 1164.68,305.00 1165.32,305.00 1165.96,305.00 1166.60,305.00 1167.23,305.00 1167.87,305.00 1168.51,305.00 1169.15,305.00 1169.80,305.00 1170.44,305.00 1171.08,305.00 1171.71,305.00 1172.35,305.00 1172.99,305.00 1173.64,305.00 1174.27,305.00 1174.91,305.00 1175.54,305.00 1176.18,305.00 1176.82,305.00 1177.46,305.00 1178.09,305.00 1178.73,305.00 1179.36,305.00 1180.00,305.00"/>
<polyline fill="none" stroke="#9467bd" stroke-opacity="0.80" stroke-width="2" points="70.00,305.00 70.64,305.00 71.27,305.00 71.91,305.00 72.55,305.00 73.19,305.00 73.82,305.00 74.46,305.00 75.15,305.00 75.78,305.00 76.41,305.00 77.04,305.00 77.69,305.00 78.32,305.00 78.96,305.00 80.10,305.00 81.09,305.00 81.73,305.00 82.38,305.00 83.02,305.00 83.65,305.00 84.27,305.00 84.91,305.00 85.55,305.00 86.19,305.00 86.83,305.00 87.48,305.00 88.12,305.00 88.75,305.00 89.42,305.00 90.06,305.00 90.70,305.00 91.35,305.00 91.99,305.00 92.62,305.00 93.28,305.00 93.91,305.00 94.55,305.00 95.19,305.00 95.82,305.00 96.46,305.00 97.09,305.00 97.72,305.00 98.36,305.00 98.99,305.00 99.64,305.00 100.28,305.00 100.91,305.00 101.55,305.00 102.19,305.00 102.83,305.00 103.55,305.00 104.19,305.00 104.82,305.00 105.45,305.00 106.09,305.00 106.72,305.00 107.35,305.00 107.99,305.00 108.62,305.00 109.27,305.00 109.90,305.00 110.53,305.00 111.17,305.00 111.82,305.00 112.45,305.00 113.09,305.00 113.72,305.00 114.35,305.00 114.98,305.00 115.61,305.00 116.24,305.00 116.88,305.00 117.51,305.00 118.15,305.00 118.79,305.00 119.41,305.00 120.05,305.00 120.68,305.00 121.32,305.00 121.97,305.00 122.60,305.00 123.24,305.00 123.88,305.00 124.51,305.00 125.15,305.00 125.78,305.00 126.41,305.00 127.04,305.00 127.68,305.00 128.32,305.00 128.96,305.00 129.60,305.00 130.23,305.00 130.86,305.00 131.50,305.00 132.13,305.00 132.76,305.00 133.40,305.00 134.03,305.00 134.67,305.00 135.30,305.00 135.94,305.00 136.58,305.00 137.22,305.00 137.86,305.00 138.50,305.00 139.13,305.00 139.76,305.00 140.39,305.00 141.04,305.00 141.67,305.00 142.31,305.00 142.94,305.00 143.58,305.00 144.22,305.00 144.86,305.00 145.50,305.00 146.14,305.00 146.77,305.00 147.41,305.00 148.04,305.00 148.68,305.00 149.32,305.00 150.01,305.00 150.64,305.00 151.28,305.00 151.92,305.00 152.55,305.00 153.18,305.00 153.80,305.00 154.44,305.00 155.07,305.00 155.71,305.00 156.34,305.00 156.98,305.00 157.61,305.00 158.24,305.00 158.89,305.00 159.52,305.00 160.15,305.00 160.79,305.00 161.42,305.00 162.06,305.00 162.69,305.00 163.33,305.00 163.97,305.00 164.61,305.00 165.24,305.00 165.87,305.00 166.50,305.00 167.14,305.00 167.77,305.00 168.41,305.00 169.05,305.00 169.69,305.00 170.32,305.00 170.96,305.00 171.60,305.00 172.23,305.00 172.87,305.00 173.51,305.00 174.15,305.00 174.80,305.00 175.43,305.00 176.07,305.00 176.70,305.00 177.33,305.00 177.96,305.00 178.60,305.00 179.23,305.00 179.86,305.00 180.49,305.00 181.13,305.00 181.77,305.00 182.41,305.00 183.04,305.00 183.69,305.00 184.33,305.00 184.96,305.00 185.59,305.00 186.22,305.00 186.91,305.00 187.56,305.00 188.20,305.00 188.83,305.00 189.45,305.00 190.09,305.00 190.73,305.00 191.36,305.00 192.00,305.00 192.64,305.00 193.27,305.00 193.90,305.00 194.55,305.00 195.19,305.00 195.82,305.00 196.45,305.00 197.10,305.00 197.74,305.00 198.39,305.00 199.02,305.00 199.66,305.00 200.30,305.00 200.93,305.00 201.57,305.00 202.20,305.00 202.85,305.00 203.48,305.00 204.11,305.00 204.75,305.00 205.39,305.00 206.02,305.00 206.66,305.00 207.30,305.00 207.94,305.00 208.57,305.00 209.20,305.00 209.83,305.00 210.47,305.00 211.11,305.00 211.74,305.00 212.37,305.00 213.00,305.00 213.64,305.00 214.28,305.00 214.91,305.00 215.55,305.00 216.19,305.00 216.83,305.00 217.47,305.00 218.10,305.00 218.74,305.00 219.38,305.00 220.01,305.00 220.65,305.00 221.30,305.00 221.93,305.00 222.57,305.00 223.21,305.00 223.84,305.00 224.48,305.00 225.11,305.00 225.74,305.00 226.38,305.00 227.02,305.00 227.66,305.00 228.29,305.00 228.93,305.00 229.57,305.00 230.20,305.00 230.84,305.00 231.48,305.00 232.12,305.00 232.75,305.00 233.39,305.00 234.03,305.00 234.67,305.00 235.31,305.00 235.94,305.00 236.65,305.00 237.29,305.00 237.92,305.00 238.56,305.00 239.20,305.00 239.84,305.00 240.48,305.00 241.11,305.00 241.74,305.00 242.40,305.00 243.04,305.00 243.68,305.00 244.31,305.00 244.95,305.00 245.58,305.00 246.22,305.00 246.88,305.00 247.51,305.00 248.15,305.00 248.79,305.00 249.48,305.00 250.11,305.00 250.91,305.00 251.99,305.00 252.64,305.00 253.29,305.00 253.92,305.00 254.55,305.00 255.18,305.00 255.83,305.00 256.46,305.00 257.10,305.00 257.77,305.00 258.42,305.00 259.10,305.00 259.74,305.00 260.37,305.00 261.01,305.00 261.65,305.00 262.30,305.00 262.94,305.00 263.57,305.00 264.21,305.00 264.87,305.00 265.51,305.00 266.14,305.00 266.77,305.00 267.42,305.00 268.08,305.00 268.72,305.00 269.36,305.00 270.01,305.00 270.62,305.00 271.25,305.00 271.90,305.00 272.53,305.00 273.18,305.00 273.84,305.00 274.47,305.00 275.11,305.00 275.75,305.00 276.39,305.00 277.03,305.00 277.66,305.00 278.30,305.00 278.94,305.00 279.57,305.00 280.20,305.00 280.96,305.00 281.71,305.00 282.46,305.00 283.20,305.00 283.93,305.00 284.66,305.00 285.41,305.00 286.16,305.00 286.79,305.00 287.42,305.00 288.06,305.00 288.69,305.00 289.33,305.00 289.96,305.00 290.59,305.00 291.22,305.00 291.86,305.00 292.49,305.00 293.13,305.00 293.76,305.00 294.39,305.00 295.02,305.00 295.66,305.00 296.29,305.00 296.93,305.00 297.56,305.00 298.19,305.00 298.83,305.00 299.46,305.00 300.09,305.00 300.72,305.00 301.36,305.00 302.00,305.00 302.63,305.00 303.26,305.00 303.90,305.00 304.54,305.00 305.17,305.00 305.80,305.00 306.44,305.00 307.07,305.00 307.70,305.00 308.33,305.00 308.96,305.00 309.59,305.00 310.22,305.00 310.85,305.00 311.48,305.00 312.12,305.00 312.75,305.00 313.38,305.00 314.01,305.00 314.63,305.00 315.29,305.00 315.97,305.00 316.61,305.00 317.25,305.00 317.88,305.00 318.51,305.00 319.14,305.00 319.77,305.00 320.40,305.00 321.15,305.00 321.90,305.00 322.64,305.00 323.38,305.00 324.13,305.00 324.87,305.00 325.63,305.00 326.40,305.00 327.09,305.00 327.77,305.00 328.41,305.00 329.05,305.00 329.69,305.00 330.32,305.00 330.95,305.00 331.59,305.00 332.22,305.00 332.85,305.00 333.48,305.00 334.12,305.00 334.76,305.00 335.39,305.00 336.03,305.00 336.66,305.00 337.30,305.00 337.85,305.00 338.51,305.00 339.14,305.00 339.79,305.00 340.43,305.00 341.06,305.00 341.70,305.00 342.34,305.00 342.98,305.00 343.62,305.00 344.26,305.00 344.91,305.00 345.54,305.00 346.17,305.00 346.80,305.00 347.43,305.00 348.06,305.00 348.69,305.00 349.34,305.00 349.97,305.00 350.60,305.00 351.24,305.00 351.87,305.00 352.51,305.00 353.14,305.00 353.78,305.00 354.42,305.00 355.06,305.00 355.69,305.00 356.33,305.00 356.97,305.00 357.62,305.00 358.25,305.00 358.88,305.00 359.52,305.00 360.15,305.00 360.78,305.00 361.42,305.00 362.05,305.00 362.68,305.00 363.32,305.00 363.95,305.00 364.58,305.00 365.22,305.00 365.86,305.00 366.50,305.00 367.26,305.00 367.92,305.00 368.57,305.00 369.21,305.00 369.84,305.00 370.49,305.00 371.12,305.00 371.75,305.00 372.39,305.00 373.03,305.00 373.66,305.00 374.30,305.00 374.94,305.00 375.58,305.00 376.23,305.00 376.88,305.00 377.52,305.00 378.15,305.00 378.79,305.00 379.42,305.00 380.05,305.00 380.69,305.00 381.35,305.00 381.99,305.00 382.63,305.00 383.27,305.00 383.90,305.00 384.54,305.00 385.17,305.00 385.81,305.00 386.45,305.00 387.09,305.00 387.72,305.00 388.36,305.00 388.99,305.00 389.63,305.00 390.26,305.00 390.91,305.00 391.55,305.00 392.18,305.00 392.81,305.00 393.45,305.00 394.09,305.00 394.73,305.00 395.50,305.00 396.15,305.00 396.79,305.00 397.42,305.00 398.05,305.00 398.69,305.00 399.33,305.00 399.97,305.00 400.62,305.00 401.25,305.00 401.88,305.00 402.52,305.00 403.15,305.00 403.79,305.00 404.42,305.00 405.06,305.00 405.69,305.00 406.33,305.00 406.96,305.00 407.59,305.00 408.24,305.00 408.87,305.00 409.50,305.00 410.15,305.00 410.79,305.00 411.42,305.00 412.06,305.00 412.70,305.00 413.35,305.00 413.98,305.00 414.62,305.00 415.26,305.00 415.89,305.00 416.53,305.00 417.16,305.00 417.80,305.00 418.46,305.00 419.09,305.00 419.72,305.00 420.35,305.00 420.99,305.00 421.62,305.00 422.26,305.00 422.89,305.00 423.54,305.00 424.18,305.00 424.82,305.00 425.44,305.00 426.09,305.00 426.72,305.00 427.36,305.00 427.99,305.00 428.63,305.00 429.26,305.00 429.90,305.00 430.54,305.00 431.17,305.00 431.82,305.00 432.46,305.00 433.10,305.00 433.73,305.00 434.37,305.00 435.09,305.00 435.79,305.00 436.47,305.00 437.11,305.00 437.77,305.00 438.41,305.00 439.05,305.00 439.68,305.00 440.27,305.00 440.94,305.00 441.57,305.00 442.22,305.00 442.85,305.00 443.48,305.00 444.12,305.00 444.76,305.00 445.39,305.00 446.03,305.00 446.66,305.00 447.30,305.00 447.94,305.00 448.58,305.00 449.22,305.00 449.86,305.00 450.50,305.00 451.14,305.00 451.78,305.00 452.43,305.00 453.07,305.00 453.70,305.00 454.33,305.00 454.97,305.00 455.60,305.00 456.24,305.00 456.88,305.00 457.51,305.00 458.16,305.00 458.79,305.00 459.42,305.00 460.06,305.00 460.70,305.00 461.34,305.00 461.98,305.00 462.61,305.00 463.25,305.00 463.89,305.00 464.53,305.00 465.17,305.00 465.81,305.00 466.45,305.00 467.09,305.00 467.73,305.00 468.36,305.00 469.01,305.00 469.66,305.00 470.30,305.00 470.94,305.00 471.58,305.00 472.21,305.00 472.85,305.00 473.49,305.00 474.13,305.00 474.77,305.00 475.40,305.00 476.04,305.00 476.68,305.00 477.32,305.00 477.96,305.00 478.60,305.00 479.24,305.00 479.88,305.00 480.52,305.00 481.17,305.00 481.81,305.00 482.44,305.00 483.08,305.00 483.72,305.00 484.37,305.00 485.01,305.00 485.65,305.00 486.29,305.00 486.92,305.00 487.56,305.00 488.20,305.00 488.84,305.00 489.48,305.00 490.11,305.00 490.75,305.00 491.39,305.00 492.03,305.00 492.67,305.00 493.31,305.00 493.94,305.00 494.59,305.00 495.23,305.00 495.87,305.00 496.50,305.00 497.14,305.00 497.77,305.00 498.41,305.00 499.04,305.00 499.68,305.00 500.33,305.00 500.96,305.00 501.61,305.00 502.24,305.00 502.89,305.00 503.53,305.00 504.16,305.00 504.80,305.00 505.45,305.00 506.09,305.00 506.72,305.00 507.37,305.00 508.01,305.00 508.65,305.00 509.29,305.00 509.94,305.00 510.58,305.00 511.23,305.00 511.86,305.00 512.50,305.00 513.14,305.00 513.78,305.00 514.43,305.00 515.07,305.00 515.71,305.00 516.34,305.00 516.97,305.00 517.63,305.00 518.26,305.00 518.91,305.00 519.55,305.00 520.18,305.00 520.82,305.00 521.45,305.00 522.08,305.00 522.72,305.00 523.36,305.00 524.00,305.00 524.64,305.00 525.28,305.00 525.92,305.00 526.57,305.00 527.21,305.00 527.85,305.00 528.49,305.00 529.12,305.00 529.76,305.00 530.40,305.00 531.04,305.00 531.68,305.00 532.31,305.00 532.96,305.00 533.60,305.00 534.23,305.00 534.87,305.00 535.52,305.00 536.17,305.00 536.82,305.00 537.46,305.00 538.10,305.00 538.74,305.00 539.38,305.00 540.02,305.00 540.65,305.00 541.29,305.00 541.93,305.00 542.57,305.00 543.21,305.00 543.85,305.00 544.50,305.00 545.16,305.00 545.80,305.00 546.44,305.00 547.08,305.00 547.72,305.00 548.36,305.00 549.00,305.00 549.65,305.00 550.29,305.00 550.93,305.00 551.57,305.00 552.22,305.00 552.86,305.00 553.50,305.00 554.13,305.00 554.77,305.00 555.41,305.00 556.05,305.00 556.70,305.00 557.34,305.00 557.98,305.00 558.62,305.00 559.26,305.00 559.90,305.00 560.54,305.00 561.18,305.00 561.84,305.00 562.48,305.00 563.13,305.00 563.77,305.00 564.42,305.00 565.07,305.00 565.73,305.00 566.38,305.00 567.04,305.00 567.68,305.00 568.32,305.00 568.95,305.00 569.60,305.00 570.24,305.00 570.88,305.00 571.54,305.00 572.17,305.00 572.81,305.00 573.45,305.00 574.09,305.00 574.73,305.00 575.37,305.00 576.01,305.00 576.64,305.00 577.28,305.00 577.92,305.00 578.56,305.00 579.19,305.00 579.82,305.00 580.47,305.00 581.11,305.00 581.74,305.00 582.39,305.00 583.04,305.00 583.67,305.00 584.31,305.00 584.95,305.00 585.59,305.00 586.23,305.00 586.86,305.00 587.50,305.00 588.15,305.00 588.78,305.00 589.41,305.00 590.05,305.00 590.68,305.00 591.33,305.00 591.96,305.00 592.60,305.00 593.24,305.00 593.88,305.00 594.52,305.00 595.16,305.00 595.80,305.00 596.42,305.00 597.06,305.00 597.68,305.00 598.32,305.00 598.96,305.00 599.62,305.00 600.25,305.00 600.89,305.00 601.53,305.00 602.18,305.00 602.82,305.00 603.46,305.00 604.10,305.00 604.74,305.00 605.38,305.00 606.02,305.00 606.66,305.00 607.31,305.00 607.95,305.00 608.59,305.00 609.23,305.00 609.86,305.00 610.50,305.00 611.14,305.00 611.77,305.00 612.40,305.00 613.04,305.00 613.68,305.00 614.33,305.00 614.96,305.00 615.60,305.00 616.23,305.00 616.87,305.00 617.52,305.00 618.16,305.00 618.80,305.00 619.43,305.00 620.07,305.00 620.72,305.00 621.35,305.00 621.99,305.00 622.63,305.00 623.27,305.00 623.90,305.00 624.55,305.00 625.19,305.00 625.83,305.00 626.46,305.00 627.10,305.00 627.76,305.00 628.40,305.00 629.05,305.00 629.70,305.00 630.34,305.00 630.98,305.00 631.62,305.00 632.26,305.00 632.90,305.00 633.53,305.00 634.18,305.00 634.83,305.00 635.47,305.00 636.11,305.00 636.75,305.00 637.39,305.00 638.03,305.00 638.67,305.00 639.30,305.00 639.94,305.00 640.58,305.00 641.22,305.00 641.86,305.00 642.49,305.00 643.14,305.00 643.77,305.00 644.41,305.00 645.05,305.00 645.68,305.00 646.32,305.00 646.97,305.00 647.60,305.00 648.24,305.00 648.88,305.00 649.52,305.00 650.15,305.00 650.80,305.00 651.43,305.00 652.08,305.00 652.72,305.00 653.35,305.00 653.99,305.00 654.63,305.00 655.27,305.00 655.90,305.00 656.55,305.00 657.21,305.00 657.85,305.00 658.51,305.00 659.16,305.00 659.81,305.00 660.47,305.00 661.12,305.00 661.78,305.00 662.43,305.00 663.09,305.00 663.72,305.00 664.36,305.00 665.00,305.00 665.65,305.00 666.29,305.00 666.93,305.00 667.57,305.00 668.21,305.00 668.85,305.00 669.49,305.00 670.13,305.00 670.76,305.00 671.40,305.00 672.04,305.00 672.68,305.00 673.32,305.00 673.96,305.00 674.59,305.00 675.24,305.00 675.89,305.00 676.53,305.00 677.16,305.00 677.80,305.00 678.44,305.00 679.08,305.00 679.72,305.00 680.36,305.00 680.99,305.00 681.64,305.00 682.28,305.00 682.91,305.00 683.56,305.00 684.19,305.00 684.83,305.00 685.52,305.00 686.18,305.00 686.81,305.00 687.45,305.00 688.09,305.00 688.74,305.00 689.38,305.00 690.03,305.00 690.67,305.00 691.30,305.00 691.93,305.00 692.57,305.00 693.20,305.00 693.84,305.00 694.49,305.00 695.12,305.00 695.77,305.00 696.41,305.00 697.05,305.00 697.69,305.00 698.32,305.00 698.96,305.00 699.60,305.00 700.24,305.00 700.88,305.00 701.52,305.00 702.16,305.00 702.80,305.00 703.44,305.00 704.11,305.00 704.75,305.00 705.39,305.00 706.03,305.00 706.67,305.00 707.31,305.00 707.95,305.00 708.59,305.00 709.23,305.00 709.87,305.00 710.51,305.00 711.16,305.00 711.80,305.00 712.45,305.00 713.08,305.00 713.72,305.00 714.36,305.00 715.00,305.00 715.64,305.00 716.27,305.00 716.92,305.00 717.56,305.00 718.20,305.00 718.84,305.00 719.48,305.00 720.12,305.00 720.76,305.00 721.39,305.00 722.03,305.00 722.67,305.00 723.31,305.00 723.95,305.00 724.59,305.00 725.23,305.00 725.87,305.00 726.51,305.00 727.15,305.00 727.79,305.00 728.42,305.00 729.05,305.00 729.69,305.00 730.34,305.00 730.97,305.00 731.63,305.00 732.27,305.00 732.91,305.00 733.55,305.00 734.19,305.00 734.84,305.00 735.53,305.00 736.18,305.00 736.82,305.00 737.47,305.00 738.12,305.00 738.75,305.00 739.39,305.00 740.03,305.00 740.67,305.00 741.31,305.00 741.96,305.00 742.59,305.00 743.23,305.00 743.89,305.00 744.53,305.00 745.17,305.00 745.81,305.00 746.45,305.00 747.09,305.00 747.73,305.00 748.37,305.00 749.01,305.00 749.66,305.00 750.29,305.00 750.94,305.00 751.58,305.00 752.22,305.00 752.86,305.00 753.51,305.00 754.15,305.00 754.80,305.00 755.43,305.00 756.07,305.00 756.72,305.00 757.35,305.00 757.98,305.00 758.63,305.00 759.26,305.00 759.91,305.00 760.55,305.00 761.18,305.00 761.82,305.00 762.47,305.00 763.11,305.00 763.74,305.00 764.39,305.00 765.03,305.00 765.68,305.00 766.32,305.00 766.94,305.00 767.57,305.00 768.20,305.00 768.85,305.00 769.49,305.00 770.13,305.00 770.78,305.00 771.41,305.00 772.06,305.00 772.71,305.00 773.34,305.00 773.98,305.00 774.62,305.00 775.26,305.00 775.89,305.00 776.52,305.00 777.16,305.00 777.80,305.00 778.44,305.00 779.08,305.00 779.71,305.00 780.35,305.00 780.99,305.00 781.63,305.00 782.27,305.00 782.90,305.00 783.52,305.00 784.18,305.00 784.81,305.00 785.45,305.00 786.10,305.00 786.75,305.00 787.38,305.00 788.02,305.00 788.66,305.00 789.30,305.00 789.94,305.00 790.58,305.00 791.27,305.00 791.90,305.00 792.55,305.00 793.19,305.00 793.84,305.00 794.47,305.00 795.11,305.00 795.75,305.00 796.39,305.00 797.03,305.00 797.67,305.00 798.30,305.00 798.95,305.00 799.59,305.00 800.23,305.00 800.87,305.00 801.51,305.00 802.15,305.00 802.79,305.00 803.44,305.00 804.08,305.00 804.72,305.00 805.38,305.00 806.02,305.00 806.66,305.00 807.30,305.00 807.94,305.00 808.59,305.00 809.23,305.00 809.86,305.00 810.50,305.00 811.14,305.00 811.78,305.00 812.42,305.00 813.06,305.00 813.70,305.00 814.35,305.00 814.99,305.00 815.62,305.00 816.26,305.00 816.89,305.00 817.54,305.00 818.17,305.00 818.81,305.00 819.45,305.00 820.08,305.00 820.72,305.00 821.35,305.00 821.99,305.00 822.63,305.00 823.26,305.00 823.90,305.00 824.54,305.00 825.17,305.00 825.81,305.00 826.44,305.00 827.09,305.00 827.72,305.00 828.36,305.00 828.99,305.00 829.63,305.00 830.28,305.00 830.91,305.00 831.55,305.00 832.19,305.00 832.86,305.00 833.49,305.00 834.13,305.00 834.78,305.00 835.42,305.00 836.06,305.00 836.70,305.00 837.34,305.00 837.98,305.00 838.62,305.00 839.25,305.00 839.89,305.00 840.53,305.00 841.17,305.00 841.81,305.00 842.45,305.00 843.08,305.00 843.72,305.00 844.36,305.00 845.00,305.00 845.64,305.00 846.31,305.00 846.95,305.00 847.58,305.00 848.21,305.00 848.84,305.00 849.50,305.00 850.13,305.00 850.77,305.00 851.41,305.00 852.05,305.00 852.69,305.00 853.33,305.00 853.97,305.00 854.61,305.00 855.25,305.00 855.89,305.00 856.53,305.00 857.17,305.00 857.81,305.00 858.44,305.00 859.07,305.00 859.72,305.00 860.35,305.00 860.99,305.00 861.63,305.00 862.27,305.00 862.91,305.00 863.54,305.00 864.18,305.00 864.82,305.00 865.46,305.00 866.10,305.00 866.73,305.00 867.38,305.00 868.01,305.00 868.65,305.00 869.29,305.00 869.93,305.00 870.56,305.00 871.20,305.00 871.84,305.00 872.48,305.00 873.13,305.00 873.77,305.00 874.41,305.00 875.05,305.00 875.69,305.00 876.33,305.00 876.98,305.00 877.62,305.00 878.30,305.00 878.94,305.00 879.63,305.00 880.27,305.00 880.90,305.00 881.54,305.00 882.18,305.00 882.81,305.00 883.45,305.00 884.09,305.00 884.73,305.00 885.37,305.00 886.01,305.00 886.65,305.00 887.28,305.00 887.92,305.00 888.56,305.00 889.20,305.00 889.83,305.00 890.46,305.00 891.11,305.00 891.75,305.00 892.39,305.00 893.03,305.00 893.66,305.00 894.30,305.00 894.94,305.00 895.58,305.00 896.22,305.00 896.86,305.00 897.50,305.00 898.14,305.00 898.77,305.00 899.41,305.00 900.05,305.00 900.68,305.00 901.32,305.00 901.95,305.00 902.58,305.00 903.22,305.00 903.86,305.00 904.50,305.00 905.14,305.00 905.78,305.00 906.44,305.00 907.08,305.00 907.72,305.00 908.36,305.00 908.99,305.00 909.62,305.00 910.26,305.00 910.90,305.00 911.53,305.00 912.17,305.00 912.80,305.00 913.44,305.00 914.07,305.00 914.71,305.00 915.35,305.00 915.98,305.00 916.62,305.00 917.27,305.00 917.90,305.00 918.53,305.00 919.18,305.00 919.81,305.00 920.45,305.00 921.09,305.00 921.73,305.00 922.37,305.00 923.01,305.00 923.65,305.00 924.30,305.00 924.93,305.00 925.57,305.00 926.21,305.00 926.85,305.00 927.48,305.00 928.14,305.00 928.78,305.00 929.42,305.00 930.07,305.00 930.70,305.00 931.34,305.00 931.98,305.00 932.62,305.00 933.26,305.00 933.90,305.00 934.53,305.00 935.17,305.00 935.82,305.00 936.46,305.00 937.10,305.00 937.75,305.00 938.41,305.00 939.08,305.00 939.73,305.00 940.37,305.00 941.00,305.00 941.64,305.00 942.28,305.00 942.92,305.00 943.55,305.00 944.20,305.00 944.84,305.00 945.48,305.00 946.12,305.00 946.75,305.00 947.39,305.00 948.03,305.00 948.67,305.00 949.33,305.00 949.98,305.00 950.62,305.00 951.27,305.00 951.93,305.00 952.58,305.00 953.26,305.00 953.90,305.00 954.54,305.00 955.18,305.00 955.82,305.00 956.46,305.00 957.09,305.00 957.73,305.00 958.37,305.00 959.00,305.00 959.64,305.00 960.30,305.00 960.94,305.00 961.58,305.00 962.23,305.00 962.97,305.00 963.61,305.00 964.25,305.00 964.88,305.00 965.52,305.00 966.15,305.00 966.78,305.00 967.37,305.00 967.94,305.00 969.82,305.00 971.03,305.00 971.66,305.00 972.30,305.00 972.94,305.00 973.57,305.00 974.21,305.00 974.85,305.00 975.48,305.00 976.11,305.00 976.76,305.00 977.39,305.00 978.03,305.00 978.66,305.00 979.31,305.00 979.94,305.00 980.58,305.00 981.21,305.00 981.84,305.00 982.47,305.00 983.11,305.00 983.75,305.00 984.38,305.00 985.02,305.00 985.66,305.00 986.30,305.00 986.92,305.00 987.57,305.00 988.20,305.00 988.83,305.00 989.47,305.00 990.10,305.00 990.73,305.00 991.37,305.00 992.00,305.00 992.64,305.00 993.28,305.00 993.91,305.00 994.55,305.00 995.19,305.00 995.83,305.00 996.46,305.00 997.10,305.00 997.73,305.00 998.37,305.00 999.00,305.00 999.63,305.00 1000.27,305.00 1000.90,305.00 1001.54,305.00 1002.17,305.00 1002.80,305.00 1003.45,305.00 1004.09,305.00 1004.73,305.00 1005.36,305.00 1006.00,305.00 1006.64,305.00 1007.28,305.00 1007.91,305.00 1008.55,305.00 1009.19,305.00 1009.83,305.00 1010.46,305.00 1011.09,305.00 1011.73,305.00 1012.37,305.00 1013.00,305.00 1013.64,305.00 1014.28,305.00 1014.91,305.00 1015.55,305.00 1016.18,305.00 1016.82,305.00 1017.46,305.00 1018.10,305.00 1018.73,305.00 1019.37,305.00 1020.01,305.00 1020.71,305.00 1021.34,305.00 1021.98,305.00 1022.61,305.00 1023.25,305.00 1023.89,305.00 1024.52,305.00 1025.16,305.00 1026.05,305.00 1026.69,305.00 1027.58,305.00 1028.21,305.00 1028.85,305.00 1029.49,305.00 1030.13,305.00 1030.76,305.00 1031.39,305.00 1032.02,305.00 1032.66,305.00 1033.30,305.00 1033.93,305.00 1034.56,305.00 1035.20,305.00 1035.84,305.00 1036.48,305.00 1037.12,305.00 1037.76,305.00 1038.40,305.00 1039.03,305.00 1039.68,305.00 1040.31,305.00 1040.95,305.00 1041.59,305.00 1042.22,305.00 1042.86,305.00 1043.50,305.00 1044.14,305.00 1044.78,305.00 1045.41,305.00 1046.05,305.00 1046.69,305.00 1047.35,305.00 1048.00,305.00 1048.65,305.00 1049.31,305.00 1049.94,305.00 1050.58,305.00 1051.22,305.00 1051.86,305.00 1052.50,305.00 1053.14,305.00 1053.77,305.00 1054.41,305.00 1055.06,305.00 1055.69,305.00 1056.34,305.00 1056.98,305.00 1057.62,305.00 1058.26,305.00 1058.90,305.00 1059.54,305.00 1060.18,305.00 1060.82,305.00 1061.46,305.00 1062.10,305.00 1062.74,305.00 1063.39,305.00 1064.03,305.00 1064.66,305.00 1065.30,305.00 1065.94,305.00 1066.58,305.00 1067.23,305.00 1067.88,305.00 1068.51,305.00 1069.15,305.00 1069.79,305.00 1070.43,305.00 1071.07,305.00 1071.71,305.00 1072.35,305.00 1072.98,305.00 1073.62,305.00 1074.26,305.00 1074.89,305.00 1075.53,305.00 1076.19,305.00 1076.83,305.00 1077.48,305.00 1078.11,305.00 1078.74,305.00 1079.39,305.00 1080.02,305.00 1080.66,305.00 1081.30,305.00 1081.94,305.00 1082.58,305.00 1083.22,305.00 1083.86,305.00 1084.50,305.00 1085.14,305.00 1085.78,305.00 1086.41,305.00 1087.05,305.00 1087.69,305.00 1088.34,305.00 1088.98,305.00 1089.62,305.00 1090.26,305.00 1090.90,305.00 1091.54,305.00 1092.18,305.00 1092.83,305.00 1093.46,305.00 1094.11,305.00 1094.76,305.00 1095.39,305.00 1096.03,305.00 1096.66,305.00 1097.30,305.00 1097.95,305.00 1098.59,305.00 1099.24,305.00 1099.89,305.00 1100.53,305.00 1101.17,305.00 1101.81,305.00 1102.45,305.00 1103.09,305.00 1103.73,305.00 1104.37,305.00 1105.02,305.00 1105.66,305.00 1106.29,305.00 1106.94,305.00 1107.57,305.00 1108.22,305.00 1108.86,305.00 1109.49,305.00 1110.14,305.00 1110.79,305.00 1111.44,305.00 1112.07,305.00 1112.72,305.00 1113.36,305.00 1114.00,305.00 1114.63,305.00 1115.28,305.00 1115.94,305.00 1116.58,305.00 1117.22,305.00 1117.86,305.00 1118.50,305.00 1119.14,305.00 1119.80,305.00 1120.44,305.00 1121.09,305.00 1121.73,305.00 1122.38,305.00 1123.03,305.00 1123.70,305.00 1124.34,305.00 1124.99,305.00 1125.63,305.00 1126.26,305.00 1126.90,305.00 1127.54,305.00 1128.18,305.00 1128.83,305.00 1129.47,305.00 1130.13,305.00 1130.77,305.00 1131.41,305.00 1132.05,305.00 1132.69,305.00 1133.33,305.00 1133.99,305.00 1134.62,305.00 1135.26,305.00 1135.90,305.00 1136.54,305.00 1137.18,305.00 1137.84,305.00 1138.48,305.00 1139.11,305.00 1139.74,305.00 1140.37,305.00 1141.01,305.00 1141.65,305.00 1142.29,305.00 1142.95,305.00 1143.58,305.00 1144.22,305.00 1144.86,305.00 1145.50,305.00 1146.13,305.00 1146.77,305.00 1147.41,305.00 1148.06,305.00 1148.70,305.00 1149.33,305.00 1149.96,305.00 1150.61,305.00 1151.24,305.00 1151.91,305.00 1152.54,305.00 1153.19,305.00 1153.83,305.00 1154.46,305.00 1155.09,305.00 1155.73,305.00 1156.37,305.00 1157.01,305.00 1157.68,305.00 1158.32,305.00 1158.96,305.00 1159.60,305.00 1160.23,305.00 1160.87,305.00 1161.50,305.00 1162.13,305.00 1162.78,305.00 1163.42,305.00 1164.05,305.00 1164.68,305.00 1165.32,305.00 1165.96,305.00 1166.60,305.00 1167.23,305.00 1167.87,305.00 1168.51,305.00 1169.15,305.00 1169.80,305.00 1170.44,305.00 1171.08,305.00 1171.71,305.00 1172.35,305.00 1172.99,305.00 1173.64,305.00 1174.27,305.00 1174.91,305.00 1175.54,305.00 1176.18,305.00 1176.82,305.00 1177.46,305.00 1178.09,305.00 1178.73,305.00 1179.36,305.00 1180.00,305.00"/>
<polyline fill="none" stroke="#9467bd" stroke-opacity="0.65" stroke-width="2" points="337.85,305.00 338.51,305.00 339.14,305.00 339.79,305.00 340.43,305.00 341.06,305.00 341.70,305.00 342.34,305.00 342.98,305.00 343.62,305.00 344.26,305.00 344.91,305.00 345.54,305.00 346.17,305.00 346.80,305.00 347.43,305.00 348.06,305.00 348.69,305.00 349.34,305.00 349.97,305.00 350.60,305.00 351.24,305.00 351.87,305.00 352.51,305.00 353.14,305.00 353.78,305.00 354.42,305.00 355.06,305.00 355.69,305.00 356.33,305.00 356.97,305.00 357.62,305.00 358.25,305.00 358.88,305.00 359.52,305.00 360.15,305.00 360.78,305.00 361.42,305.00 362.05,305.00 362.68,305.00 363.32,305.00 363.95,305.00 364.58,305.00 365.22,305.00 365.86,305.00 366.50,305.00 367.26,305.00 367.92,305.00 368.57,305.00 369.21,305.00 369.84,305.00 370.49,305.00 371.12,305.00 371.75,305.00 372.39,305.00 373.03,305.00 373.66,305.00 374.30,305.00 374.94,305.00 375.58,305.00 376.23,305.00 376.88,305.00 377.52,305.00 378.15,305.00 378.79,305.00 379.42,305.00 380.05,305.00 380.69,305.00 381.35,305.00 381.99,305.00 382.63,305.00 383.27,305.00 383.90,305.00 384.54,305.00 385.17,305.00 385.81,305.00 386.45,305.00 387.09,305.00 387.72,305.00 388.36,305.00 388.99,305.00 389.63,305.00 390.26,305.00 390.91,305.00 391.55,305.00 392.18,305.00 392.81,305.00 393.45,305.00 394.09,305.00 394.73,305.00 395.50,305.00 396.15,305.00 396.79,305.00 397.42,305.00 398.05,305.00 398.69,305.00 399.33,305.00 399.97,305.00 400.62,305.00 401.25,305.00 401.88,305.00 402.52,305.00 403.15,305.00 403.79,305.00 404.42,305.00 405.06,305.00 405.69,305.00 406.33,305.00 406.96,305.00 407.59,305.00 408.24,305.00 408.87,305.00 409.50,305.00 410.15,305.00 410.79,305.00 411.42,305.00 412.06,305.00 412.70,305.00 413.35,305.00 413.98,305.00 414.62,305.00 415.26,305.00 415.89,305.00 416.53,305.00 417.16,305.00 417.80,305.00 418.46,305.00 419.09,305.00 419.72,305.00 420.35,305.00 420.99,305.00 421.62,305.00 422.26,305.00 422.89,305.00 423.54,305.00 424.18,305.00 424.82,305.00 425.44,305.00 426.09,305.00 426.72,305.00 427.36,305.00 427.99,305.00 428.63,305.00 429.26,305.00 429.90,305.00 430.54,305.00 431.17,305.00 431.82,305.00 432.46,305.00 433.10,305.00 433.73,305.00 434.37,305.00 435.09,305.00 435.79,305.00 436.47,305.00 437.11,305.00 437.77,305.00 438.41,305.00 439.05,305.00 439.68,305.00 440.27,305.00 440.94,305.00 441.57,305.00 442.22,305.00 442.85,305.00 443.48,305.00 444.12,305.00 444.76,305.00 445.39,305.00 446.03,305.00 446.66,305.00 447.30,305.00 447.94,305.00 448.58,305.00 449.22,305.00 449.86,305.00 450.50,305.00 451.14,305.00 451.78,305.00 452.43,305.00 453.07,305.00 453.70,305.00 454.33,305.00 454.97,305.00 455.60,305.00 456.24,305.00 456.88,305.00 457.51,305.00 458.16,305.00 458.79,305.00 459.42,305.00 460.06,305.00 460.70,305.00 461.34,305.00 461.98,305.00 462.61,305.00 463.25,305.00 463.89,305.00 464.53,305.00 465.17,305.00 465.81,305.00 466.45,305.00 467.09,305.00 467.73,305.00 468.36,305.00 469.01,305.00 469.66,305.00 470.30,305.00 470.94,305.00 471.58,305.00 472.21,305.00 472.85,305.00 473.49,305.00 474.13,305.00 474.77,305.00 475.40,305.00 476.04,305.00 476.68,305.00 477.32,305.00 477.96,305.00 478.60,305.00 479.24,305.00 479.88,305.00 480.52,305.00 481.17,305.00 481.81,305.00 482.44,305.00 483.08,305.00 483.72,305.00 484.37,305.00 485.01,305.00 485.65,305.00 486.29,305.00 486.92,305.00 487.56,305.00 488.20,305.00 488.84,305.00 489.48,305.00 490.11,305.00 490.75,305.00 491.39,305.00 492.03,305.00 492.67,305.00 493.31,305.00 493.94,305.00 494.59,305.00 495.23,305.00 495.87,305.00 496.50,305.00 497.14,305.00 497.77,305.00 498.41,305.00 499.04,305.00 499.68,305.00 500.33,305.00 500.96,305.00 501.61,305.00 502.24,305.00 502.89,305.00 503.53,305.00 504.16,305.00 504.80,305.00 505.45,305.00 506.09,305.00 506.72,305.00 507.37,305.00 508.01,305.00 508.65,305.00 509.29,305.00 509.94,305.00 510.58,305.00 511.23,305.00 511.86,305.00 512.50,305.00 513.14,305.00 513.78,305.00 514.43,305.00 515.07,305.00 515.71,305.00 516.34,305.00 516.97,305.00 517.63,305.00 518.26,305.00 518.91,305.00 519.55,305.00 520.18,305.00 520.82,305.00 521.45,305.00 522.08,305.00 522.72,305.00 523.36,305.00 524.00,305.00 524.64,305.00 525.28,305.00 525.92,305.00 526.57,305.00 527.21,305.00 527.85,305.00 528.49,305.00 529.12,305.00 529.76,305.00 530.40,305.00 531.04,305.00 531.68,305.00 532.31,305.00 532.96,305.00 533.60,305.00 534.23,305.00 534.87,305.00 535.52,305.00 536.17,305.00 536.82,305.00 537.46,305.00 538.10,305.00 538.74,305.00 539.38,305.00 540.02,305.00 540.65,305.00 541.29,305.00 541.93,305.00 542.57,305.00 543.21,305.00 543.85,305.00 544.50,305.00 545.16,305.00 545.80,305.00 546.44,305.00 547.08,305.00 547.72,305.00 548.36,305.00 549.00,305.00 549.65,305.00 550.29,305.00 550.93,305.00 551.57,305.00 552.22,305.00 552.86,305.00 553.50,305.00 554.13,305.00 554.77,305.00 555.41,305.00 556.05,305.00 556.70,305.00 557.34,305.00 557.98,305.00 558.62,305.00 559.26,305.00 559.90,305.00 560.54,305.00 561.18,305.00 561.84,305.00 562.48,305.00 563.13,305.00 563.77,305.00 564.42,305.00 565.07,305.00 565.73,305.00 566.38,305.00 567.04,305.00 567.68,305.00 568.32,305.00 568.95,305.00 569.60,305.00 570.24,305.00 570.88,305.00 571.54,305.00 572.17,305.00 572.81,305.00 573.45,305.00 574.09,305.00 574.73,305.00 575.37,305.00 576.01,305.00 576.64,305.00 577.28,305.00 577.92,305.00 578.56,305.00 579.19,305.00 579.82,305.00 580.47,305.00 581.11,305.00 581.74,305.00 582.39,305.00 583.04,305.00 583.67,305.00 584.31,305.00 584.95,305.00 585.59,305.00 586.23,305.00 586.86,305.00 587.50,305.00 588.15,305.00 588.78,305.00 589.41,305.00 590.05,305.00 590.68,305.00 591.33,305.00 591.96,305.00 592.60,305.00 593.24,305.00 593.88,305.00 594.52,305.00 595.16,305.00 595.80,305.00 596.42,305.00 597.06,305.00 597.68,305.00 598.32,305.00 598.96,305.00 599.62,305.00 600.25,305.00 600.89,305.00 601.53,305.00 602.18,305.00 602.82,305.00 603.46,305.00 604.10,305.00 604.74,305.00 605.38,305.00 606.02,305.00 606.66,305.00 607.31,305.00 607.95,305.00 608.59,305.00 609.23,305.00 609.86,305.00 610.50,305.00 611.14,305.00 611.77,305.00 612.40,305.00 613.04,305.00 613.68,305.00 614.33,305.00 614.96,305.00 615.60,305.00 616.23,305.00 616.87,305.00 617.52,305.00 618.16,305.00 618.80,305.00 619.43,305.00 620.07,305.00 620.72,305.00 621.35,305.00 621.99,305.00 622.63,305.00 623.27,305.00 623.90,305.00 624.55,305.00 625.19,305.00 625.83,305.00 626.46,305.00 627.10,305.00 627.76,305.00 628.40,305.00 629.05,305.00 629.70,305.00 630.34,305.00 630.98,305.00 631.62,305.00 632.26,305.00 632.90,305.00 633.53,305.00 634.18,305.00 634.83,305.00 635.47,305.00 636.11,305.00 636.75,305.00 637.39,305.00 638.03,305.00 638.67,305.00 639.30,305.00 639.94,305.00 640.58,305.00 641.22,305.00 641.86,305.00 642.49,305.00 643.14,305.00 643.77,305.00 644.41,305.00 645.05,305.00 645.68,305.00 646.32,305.00 646.97,305.00 647.60,305.00 648.24,305.00 648.88,305.00 649.52,305.00 650.15,305.00 650.80,305.00 651.43,305.00 652.08,305.00 652.72,305.00 653.35,305.00 653.99,305.00 654.63,305.00 655.27,305.00 655.90,305.00 656.55,305.00 657.21,305.00 657.85,305.00 658.51,305.00 659.16,305.00 659.81,305.00 660.47,305.00 661.12,305.00 661.78,305.00 662.43,305.00 663.09,305.00 663.72,305.00 664.36,305.00 665.00,305.00 665.65,305.00 666.29,305.00 666.93,305.00 667.57,305.00 668.21,305.00 668.85,305.00 669.49,305.00 670.13,305.00 670.76,305.00 671.40,305.00 672.04,305.00 672.68,305.00 673.32,305.00 673.96,305.00 674.59,305.00 675.24,305.00 675.89,305.00 676.53,305.00 677.16,305.00 677.80,305.00 678.44,305.00 679.08,305.00 679.72,305.00 680.36,305.00 680.99,305.00 681.64,305.00 682.28,305.00 682.91,305.00 683.56,305.00 684.19,305.00 684.83,305.00 685.52,305.00 686.18,305.00 686.81,305.00 687.45,305.00 688.09,305.00 688.74,305.00 689.38,305.00 690.03,305.00 690.67,305.00 691.30,305.00 691.93,305.00 692.57,305.00 693.20,305.00 693.84,305.00 694.49,305.00 695.12,305.00 695.77,305.00 696.41,305.00 697.05,305.00 697.69,305.00 698.32,305.00 698.96,305.00 699.60,305.00 700.24,305.00 700.88,305.00 701.52,305.00 702.16,305.00 702.80,305.00 703.44,305.00 704.11,305.00 704.75,305.00 705.39,305.00 706.03,305.00 706.67,305.00 707.31,305.00 707.95,305.00 708.59,305.00 709.23,305.00 709.87,305.00 710.51,305.00 711.16,305.00 711.80,305.00 712.45,305.00 713.08,305.00 713.72,305.00 714.36,305.00 715.00,305.00 715.64,305.00 716.27,305.00 716.92,305.00 717.56,305.00 718.20,305.00 718.84,305.00 719.48,305.00 720.12,305.00 720.76,305.00 721.39,305.00 722.03,305.00 722.67,305.00 723.31,305.00 723.95,305.00 724.59,305.00 725.23,305.00 725.87,305.00 726.51,305.00 727.15,305.00 727.79,305.00 728.42,305.00 729.05,305.00 729.69,305.00 730.34,305.00 730.97,305.00 731.63,305.00 732.27,305.00 732.91,305.00 733.55,305.00 734.19,305.00 734.84,305.00 735.53,305.00 736.18,305.00 736.82,305.00 737.47,305.00 738.12,305.00 738.75,305.00 739.39,305.00 740.03,305.00 740.67,305.00 741.31,305.00 741.96,305.00 742.59,305.00 743.23,305.00 743.89,305.00 744.53,305.00 745.17,305.00 745.81,305.00 746.45,305.00 747.09,305.00 747.73,305.00 748.37,305.00 749.01,305.00 749.66,305.00 750.29,305.00 750.94,305.00 751.58,305.00 752.22,305.00 752.86,305.00 753.51,305.00 754.15,305.00 754.80,305.00 755.43,305.00 756.07,305.00 756.72,305.00 757.35,305.00 757.98,305.00 758.63,305.00 759.26,305.00 759.91,305.00 760.55,305.00 761.18,305.00 761.82,305.00 762.47,305.00 763.11,305.00 763.74,305.00 764.39,305.00 765.03,305.00 765.68,305.00 766.32,305.00 766.94,305.00 767.57,305.00 768.20,305.00 768.85,305.00 769.49,305.00 770.13,305.00 770.78,305.00 771.41,305.00 772.06,305.00 772.71,305.00 773.34,305.00 773.98,305.00 774.62,305.00 775.26,305.00 775.89,305.00 776.52,305.00 777.16,305.00 777.80,305.00 778.44,305.00 779.08,305.00 779.71,305.00 780.35,305.00 780.99,305.00 781.63,305.00 782.27,305.00 782.90,305.00 783.52,305.00 784.18,305.00 784.81,305.00 785.45,305.00 786.10,305.00 786.75,305.00 787.38,305.00 788.02,305.00 788.66,305.00 789.30,305.00 789.94,305.00 790.58,305.00 791.27,305.00 791.90,305.00 792.55,305.00 793.19,305.00 793.84,305.00 794.47,305.00 795.11,305.00 795.75,305.00 796.39,305.00 797.03,305.00 797.67,305.00 798.30,305.00 798.95,305.00 799.59,305.00 800.23,305.00 800.87,305.00 801.51,305.00 802.15,305.00 802.79,305.00 803.44,305.00 804.08,305.00 804.72,305.00 805.38,305.00 806.02,305.00 806.66,305.00 807.30,305.00 807.94,305.00 808.59,305.00 809.23,305.00 809.86,305.00 810.50,305.00 811.14,305.00 811.78,305.00 812.42,305.00 813.06,305.00 813.70,305.00 814.35,305.00 814.99,305.00 815.62,305.00 816.26,305.00 816.89,305.00 817.54,305.00 818.17,305.00 818.81,305.00 819.45,305.00 820.08,305.00 820.72,305.00 821.35,305.00 821.99,305.00 822.63,305.00 823.26,305.00 823.90,305.00 824.54,305.00 825.17,305.00 825.81,305.00 826.44,305.00 827.09,305.00 827.72,305.00 828.36,305.00 828.99,305.00 829.63,305.00 830.28,305.00 830.91,305.00 831.55,305.00 832.19,305.00 832.86,305.00 833.49,305.00 834.13,305.00 834.78,305.00 835.42,305.00 836.06,305.00 836.70,305.00 837.34,305.00 837.98,305.00 838.62,305.00 839.25,305.00 839.89,305.00 840.53,305.00 841.17,305.00 841.81,305.00 842.45,305.00 843.08,305.00 843.72,305.00 844.36,305.00 845.00,305.00 845.64,305.00 846.31,305.00 846.95,305.00 847.58,305.00 848.21,305.00 848.84,305.00 849.50,305.00 850.13,305.00 850.77,305.00 851.41,305.00 852.05,305.00 852.69,305.00 853.33,305.00 853.97,305.00 854.61,305.00 855.25,305.00 855.89,305.00 856.53,305.00 857.17,305.00 857.81,305.00 858.44,305.00 859.07,305.00 859.72,305.00 860.35,305.00 860.99,305.00 861.63,305.00 862.27,305.00 862.91,305.00 863.54,305.00 864.18,305.00 864.82,305.00 865.46,305.00 866.10,305.00 866.73,305.00 867.38,305.00 868.01,305.00 868.65,305.00 869.29,305.00 869.93,305.00 870.56,305.00 871.20,305.00 871.84,305.00 872.48,305.00 873.13,305.00 873.77,305.00 874.41,305.00 875.05,305.00 875.69,305.00 876.33,305.00 876.98,305.00 877.62,305.00 878.30,305.00 878.94,305.00 879.63,305.00 880.27,305.00 880.90,305.00 881.54,305.00 882.18,305.00 882.81,305.00 883.45,305.00 884.09,305.00 884.73,305.00 885.37,305.00 886.01,305.00 886.65,305.00 887.28,305.00 887.92,305.00 888.56,305.00 889.20,305.00 889.83,305.00 890.46,305.00 891.11,305.00 891.75,305.00 892.39,305.00 893.03,305.00 893.66,305.00 894.30,305.00 894.94,305.00 895.58,305.00 896.22,305.00 896.86,305.00 897.50,305.00 898.14,305.00 898.77,305.00 899.41,305.00 900.05,305.00 900.68,305.00 901.32,305.00 901.95,305.00 902.58,305.00 903.22,305.00 903.86,305.00 904.50,305.00 905.14,305.00 905.78,305.00 906.44,305.00 907.08,305.00 907.72,305.00 908.36,305.00 908.99,305.00 909.62,305.00 910.26,305.00 910.90,305.00 911.53,305.00 912.17,305.00 912.80,305.00 913.44,305.00 914.07,305.00 914.71,305.00 915.35,305.00 915.98,305.00 916.62,305.00 917.27,305.00 917.90,305.00 918.53,305.00 919.18,305.00 919.81,305.00 920.45,305.00 921.09,305.00 921.73,305.00 922.37,305.00 923.01,305.00 923.65,305.00 924.30,305.00 924.93,305.00 925.57,305.00 926.21,305.00 926.85,305.00 927.48,305.00 928.14,305.00 928.78,305.00 929.42,305.00 930.07,305.00 930.70,305.00 931.34,305.00 931.98,305.00 932.62,305.00 933.26,305.00 933.90,305.00 934.53,305.00 935.17,305.00 935.82,305.00 936.46,305.00 937.10,305.00 937.75,305.00 938.41,305.00 939.08,305.00 939.73,305.00 940.37,305.00 941.00,305.00 941.64,305.00 942.28,305.00 942.92,305.00 943.55,305.00 944.20,305.00 944.84,305.00 945.48,305.00 946.12,305.00 946.75,305.00 947.39,305.00 948.03,305.00 948.67,305.00 949.33,305.00 949.98,305.00 950.62,305.00 951.27,305.00 951.93,305.00 952.58,305.00 953.26,305.00 953.90,305.00 954.54,305.00 955.18,305.00 955.82,305.00 956.46,305.00 957.09,305.00 957.73,305.00 958.37,305.00 959.00,305.00 959.64,305.00 960.30,305.00 960.94,305.00 961.58,305.00 962.23,305.00 962.97,305.00 963.61,305.00 964.25,305.00 964.88,305.00 965.52,305.00 966.15,305.00 967.94,305.00 968.64,305.00 969.23,305.00 969.82,305.00 971.03,305.00 971.66,305.00 972.30,305.00 972.94,305.00 973.57,305.00 974.21,305.00 974.85,305.00 975.48,305.00 976.11,305.00 976.76,305.00 977.39,305.00 978.03,305.00 978.66,305.00 979.31,305.00 979.94,305.00 980.58,305.00 981.21,305.00 981.84,305.00 982.47,305.00 983.11,305.00 983.75,305.00 984.38,305.00 985.02,305.00 985.66,305.00 986.30,305.00 986.92,305.00 987.57,305.00 988.20,305.00 988.83,305.00 989.47,305.00 990.10,305.00 990.73,305.00 991.37,305.00 992.00,305.00 992.64,305.00 993.28,305.00 993.91,305.00 994.55,305.00 995.19,305.00 995.83,305.00 996.46,305.00 997.10,305.00 997.73,305.00 998.37,305.00 999.00,305.00 999.63,305.00 1000.27,305.00 1000.90,305.00 1001.54,305.00 1002.17,305.00 1002.80,305.00 1003.45,305.00 1004.09,305.00 1004.73,305.00 1005.36,305.00 1006.00,305.00 1006.64,305.00 1007.28,305.00 1007.91,305.00 1008.55,305.00 1009.19,305.00 1009.83,305.00 1010.46,305.00 1011.09,305.00 1011.73,305.00 1012.37,305.00 1013.00,305.00 1013.64,305.00 1014.28,305.00 1014.91,305.00 1015.55,305.00 1016.18,305.00 1016.82,305.00 1017.46,305.00 1018.10,305.00 1018.73,305.00 1019.37,305.00 1020.01,305.00 1020.71,305.00 1021.34,305.00 1021.98,305.00 1022.61,305.00 1023.25,305.00 1023.89,305.00 1024.52,305.00 1025.16,305.00 1026.05,305.00 1026.69,305.00 1027.58,305.00 1028.21,305.00 1028.85,305.00 1029.49,305.00 1030.13,305.00 1030.76,305.00 1031.39,305.00 1032.02,305.00 1032.66,305.00 1033.30,305.00 1033.93,305.00 1034.56,305.00 1035.20,305.00 1035.84,305.00 1036.48,305.00 1037.12,305.00 1037.76,305.00 1038.40,305.00 1039.03,305.00 1039.68,305.00 1040.31,305.00 1040.95,305.00 1041.59,305.00 1042.22,305.00 1042.86,305.00 1043.50,305.00 1044.14,305.00 1044.78,305.00 1045.41,305.00 1046.05,305.00 1046.69,305.00 1047.35,305.00 1048.00,305.00 1048.65,305.00 1049.31,305.00 1049.94,305.00 1050.58,305.00 1051.22,305.00 1051.86,305.00 1052.50,305.00 1053.14,305.00 1053.77,305.00 1054.41,305.00 1055.06,305.00 1055.69,305.00 1056.34,305.00 1056.98,305.00 1057.62,305.00 1058.26,305.00 1058.90,305.00 1059.54,305.00 1060.18,305.00 1060.82,305.00 1061.46,305.00 1062.10,305.00 1062.74,305.00 1063.39,305.00 1064.03,305.00 1064.66,305.00 1065.30,305.00 1065.94,305.00 1066.58,305.00 1067.23,305.00 1067.88,305.00 1068.51,305.00 1069.15,305.00 1069.79,305.00 1070.43,305.00 1071.07,305.00 1071.71,305.00 1072.35,305.00 1072.98,305.00 1073.62,305.00 1074.26,305.00 1074.89,305.00 1075.53,305.00 1076.19,305.00 1076.83,305.00 1077.48,305.00 1078.11,305.00 1078.74,305.00 1079.39,305.00 1080.02,305.00 1080.66,305.00 1081.30,305.00 1081.94,305.00 1082.58,305.00 1083.22,305.00 1083.86,305.00 1084.50,305.00 1085.14,305.00 1085.78,305.00 1086.41,305.00 1087.05,305.00 1087.69,305.00 1088.34,305.00 1088.98,305.00 1089.62,305.00 1090.26,305.00 1090.90,305.00 1091.54,305.00 1092.18,305.00 1092.83,305.00 1093.46,305.00 1094.11,305.00 1094.76,305.00 1095.39,305.00 1096.03,305.00 1096.66,305.00 1097.30,305.00 1097.95,305.00 1098.59,305.00 1099.24,305.00 1099.89,305.00 1100.53,305.00 1101.17,305.00 1101.81,305.00 1102.45,305.00 1103.09,305.00 1103.73,305.00 1104.37,305.00 1105.02,305.00 1105.66,305.00 1106.29,305.00 1106.94,305.00 1107.57,305.00 1108.22,305.00 1108.86,305.00 1109.49,305.00 1110.14,305.00 1110.79,305.00 1111.44,305.00 1112.07,305.00 1112.72,305.00 1113.36,305.00 1114.00,305.00 1114.63,305.00 1115.28,305.00 1115.94,305.00 1116.58,305.00 1117.22,305.00 1117.86,305.00 1118.50,305.00 1119.14,305.00 1119.80,305.00 1120.44,305.00 1121.09,305.00 1121.73,305.00 1122.38,305.00 1123.03,305.00 1123.70,305.00 1124.34,305.00 1124.99,305.00 1125.63,305.00 1126.26,305.00 1126.90,305.00 1127.54,305.00 1128.18,305.00 1128.83,305.00 1129.47,305.00 1130.13,305.00 1130.77,305.00 1131.41,305.00 1132.05,305.00 1132.69,305.00 1133.33,305.00 1133.99,305.00 1134.62,305.00 1135.26,305.00 1135.90,305.00 1136.54,305.00 1137.18,305.00 1137.84,305.00 1138.48,305.00 1139.11,305.00 1139.74,305.00 1140.37,305.00 1141.01,305.00 1141.65,305.00 1142.29,305.00 1142.95,305.00 1143.58,305.00 1144.22,305.00 1144.86,305.00 1145.50,305.00 1146.13,305.00 1146.77,305.00 1147.41,305.00 1148.06,305.00 1148.70,305.00 1149.33,305.00 1149.96,305.00 1150.61,305.00 1151.24,305.00 1151.91,305.00 1152.54,305.00 1153.19,305.00 1153.83,305.00 1154.46,305.00 1155.09,305.00 1155.73,305.00 1156.37,305.00 1157.01,305.00 1157.68,305.00 1158.32,305.00 1158.96,305.00 1159.60,305.00 1160.23,305.00 1160.87,305.00 1161.50,305.00 1162.13,305.00 1162.78,305.00 1163.42,305.00 1164.05,305.00 1164.68,305.00 1165.32,305.00 1165.96,305.00 1166.60,305.00 1167.23,305.00 1167.87,305.00 1168.51,305.00 1169.15,305.00 1169.80,305.00 1170.44,305.00 1171.08,305.00 1171.71,305.00 1172.35,305.00 1172.99,305.00 1173.64,305.00 1174.27,305.00 1174.91,305.00 1175.54,305.00 1176.18,305.00 1176.82,305.00 1177.46,305.00 1178.09,305.00 1178.73,305.00 1179.36,305.00 1180.00,305.00"/>
<polyline fill="none" stroke="#9467bd" stroke-opacity="0.50" stroke-width="2" points="70.00,305.00 70.64,305.00 71.27,305.00 71.91,305.00 72.55,305.00 73.19,305.00 73.82,305.00 74.46,305.00 75.15,305.00 75.78,305.00 76.41,305.00 77.04,305.00 77.69,305.00 78.32,305.00 78.96,305.00 80.10,305.00 81.09,305.00 81.73,305.00 82.38,305.00 83.02,305.00 83.65,305.00 84.27,305.00 84.91,305.00 85.55,305.00 86.19,305.00 86.83,305.00 87.48,305.00 88.12,305.00 88.75,305.00 89.42,305.00 90.06,305.00 90.70,305.00 91.35,305.00 91.99,305.00 92.62,305.00 93.28,305.00 93.91,305.00 94.55,305.00 95.19,305.00 95.82,305.00 96.46,305.00 97.09,305.00 97.72,305.00 98.36,305.00 98.99,305.00 99.64,305.00 100.28,305.00 100.91,305.00 101.55,305.00 102.19,305.00 102.83,305.00 103.55,305.00 104.19,305.00 104.82,305.00 105.45,305.00 106.09,305.00 106.72,305.00 107.35,305.00 107.99,305.00 108.62,305.00 109.27,305.00 109.90,305.00 110.53,305.00 111.17,305.00 111.82,305.00 112.45,305.00 113.09,305.00 113.72,305.00 114.35,305.00 114.98,305.00 115.61,305.00 116.24,305.00 116.88,305.00 117.51,305.00 118.15,305.00 118.79,305.00 119.41,305.00 120.05,305.00 120.68,305.00 121.32,305.00 121.97,305.00 122.60,305.00 123.24,305.00 123.88,305.00 124.51,305.00 125.15,305.00 125.78,305.00 126.41,305.00 127.04,305.00 127.68,305.00 128.32,305.00 128.96,305.00 129.60,305.00 130.23,305.00 130.86,305.00 131.50,305.00 132.13,305.00 132.76,305.00 133.40,305.00 134.03,305.00 134.67,305.00 135.30,305.00 135.94,305.00 136.58,305.00 137.22,305.00 137.86,305.00 138.50,305.00 139.13,305.00 139.76,305.00 140.39,305.00 141.04,305.00 141.67,305.00 142.31,305.00 142.94,305.00 143.58,305.00 144.22,305.00 144.86,305.00 145.50,305.00 146.14,305.00 146.77,305.00 147.41,305.00 148.04,305.00 148.68,305.00 149.32,305.00 150.01,305.00 150.64,305.00 151.28,305.00 151.92,305.00 152.55,305.00 153.18,305.00 153.80,305.00 154.44,305.00 155.07,305.00 155.71,305.00 156.34,305.00 156.98,305.00 157.61,305.00 158.24,305.00 158.89,305.00 159.52,305.00 160.15,305.00 160.79,305.00 161.42,305.00 162.06,305.00 162.69,305.00 163.33,305.00 163.97,305.00 164.61,305.00 165.24,305.00 165.87,305.00 166.50,305.00 167.14,305.00 167.77,305.00 168.41,305.00 169.05,305.00 169.69,305.00 170.32,305.00 170.96,305.00 171.60,305.00 172.23,305.00 172.87,305.00 173.51,305.00 174.15,305.00 174.80,305.00 175.43,305.00 176.07,305.00 176.70,305.00 177.33,305.00 177.96,305.00 178.60,305.00 179.23,305.00 179.86,305.00 180.49,305.00 181.13,305.00 181.77,305.00 182.41,305.00 183.04,305.00 183.69,305.00 184.33,305.00 184.96,305.00 185.59,305.00 186.22,305.00 186.91,305.00 187.56,305.00 188.20,305.00 188.83,305.00 189.45,305.00 190.09,305.00 190.73,305.00 191.36,305.00 192.00,305.00 192.64,305.00 193.27,305.00 193.90,305.00 194.55,305.00 195.19,305.00 195.82,305.00 196.45,305.00 197.10,305.00 197.74,305.00 198.39,305.00 199.02,305.00 199.66,305.00 200.30,305.00 200.93,305.00 201.57,305.00 202.20,305.00 202.85,305.00 203.48,305.00 204.11,305.00 204.75,305.00 205.39,305.00 206.02,305.00 206.66,305.00 207.30,305.00 207.94,305.00 208.57,305.00 209.20,305.00 209.83,305.00 210.47,305.00 211.11,305.00 211.74,305.00 212.37,305.00 213.00,305.00 213.64,305.00 214.28,305.00 214.91,305.00 215.55,305.00 216.19,305.00 216.83,305.00 217.47,305.00 218.10,305.00 218.74,305.00 219.38,305.00 220.01,305.00 220.65,305.00 221.30,305.00 221.93,305.00 222.57,305.00 223.21,305.00 223.84,305.00 224.48,305.00 225.11,305.00 225.74,305.00 226.38,305.00 227.02,305.00 227.66,305.00 228.29,305.00 228.93,305.00 229.57,305.00 230.20,305.00 230.84,305.00 231.48,305.00 232.12,305.00 232.75,305.00 233.39,305.00 234.03,305.00 234.67,305.00 235.31,305.00 235.94,305.00 236.65,305.00 237.29,305.00 237.92,305.00 238.56,305.00 239.20,305.00 239.84,305.00 240.48,305.00 241.11,305.00 241.74,305.00 242.40,305.00 243.04,305.00 243.68,305.00 244.31,305.00 244.95,305.00 245.58,305.00 246.22,305.00 246.88,305.00 247.51,305.00 248.15,305.00 248.79,305.00 249.48,305.00 250.11,305.00 250.91,305.00 251.99,305.00 252.64,305.00 253.29,305.00 253.92,305.00 254.55,305.00 255.18,305.00 255.83,305.00 256.46,305.00 257.10,305.00 257.77,305.00 258.42,305.00 259.10,305.00 259.74,305.00 260.37,305.00 261.01,305.00 261.65,305.00 262.30,305.00 262.94,305.00 263.57,305.00 264.21,305.00 264.87,305.00 265.51,305.00 266.14,305.00 266.77,305.00 267.42,305.00 268.08,305.00 268.72,305.00 269.36,305.00 270.01,305.00 270.62,305.00 271.25,305.00 271.90,305.00 272.53,305.00 273.18,305.00 273.84,305.00 274.47,305.00 275.11,305.00 275.75,305.00 276.39,305.00 277.03,305.00 277.66,305.00 278.30,305.00 278.94,305.00 279.57,305.00 280.20,305.00 280.96,305.00 281.71,305.00 282.46,305.00 283.20,305.00 283.93,305.00 284.66,305.00 285.41,305.00 286.16,305.00 286.79,305.00 287.42,305.00 288.06,305.00 288.69,305.00 289.33,305.00 289.96,305.00 290.59,305.00 291.22,305.00 291.86,305.00 292.49,305.00 293.13,305.00 293.76,305.00 294.39,305.00 295.02,305.00 295.66,305.00 296.29,305.00 296.93,305.00 297.56,305.00 298.19,305.00 298.83,305.00 299.46,305.00 300.09,305.00 300.72,305.00 301.36,305.00 302.00,305.00 302.63,305.00 303.26,305.00 303.90,305.00 304.54,305.00 305.17,305.00 305.80,305.00 306.44,305.00 307.07,305.00 307.70,305.00 308.33,305.00 308.96,305.00 309.59,305.00 310.22,305.00 310.85,305.00 311.48,305.00 312.12,305.00 312.75,305.00 313.38,305.00 314.01,305.00 314.63,305.00 315.29,305.00 315.97,305.00 316.61,305.00 317.25,305.00 317.88,305.00 318.51,305.00 319.14,305.00 319.77,305.00 320.40,305.00 321.15,305.00 321.90,305.00 322.64,305.00 323.38,305.00 324.13,305.00 324.87,305.00 325.63,305.00 326.40,305.00 327.09,305.00 327.77,305.00 328.41,305.00 329.05,305.00 329.69,305.00 330.32,305.00 330.95,305.00 331.59,305.00 332.22,305.00 332.85,305.00 333.48,305.00 334.12,305.00 334.76,305.00 335.39,305.00 336.03,305.00 336.66,305.00 337.30,305.00 337.85,305.00 338.51,305.00 339.14,305.00 339.79,305.00 340.43,305.00 341.06,305.00 341.70,305.00 342.34,305.00 342.98,305.00 343.62,305.00 344.26,305.00 344.91,305.00 345.54,305.00 346.17,305.00 346.80,305.00 347.43,305.00 348.06,305.00 348.69,305.00 349.34,305.00 349.97,305.00 350.60,305.00 351.24,305.00 351.87,305.00 352.51,305.00 353.14,305.00 353.78,305.00 354.42,305.00 355.06,305.00 355.69,305.00 356.33,305.00 356.97,305.00 357.62,305.00 358.25,305.00 358.88,305.00 359.52,305.00 360.15,305.00 360.78,305.00 361.42,305.00 362.05,305.00 362.68,305.00 363.32,305.00 363.95,305.00 364.58,305.00 365.22,305.00 365.86,305.00 366.50,305.00 367.26,305.00 367.92,305.00 368.57,305.00 369.21,305.00 369.84,305.00 370.49,305.00 371.12,305.00 371.75,305.00 372.39,305.00 373.03,305.00 373.66,305.00 374.30,305.00 374.94,305.00 375.58,305.00 376.23,305.00 376.88,305.00 377.52,305.00 378.15,305.00 378.79,305.00 379.42,305.00 380.05,305.00 380.69,305.00 381.35,305.00 381.99,305.00 382.63,305.00 383.27,305.00 383.90,305.00 384.54,305.00 385.17,305.00 385.81,305.00 386.45,305.00 387.09,305.00 387.72,305.00 388.36,305.00 388.99,305.00 389.63,305.00 390.26,305.00 390.91,305.00 391.55,305.00 392.18,305.00 392.81,305.00 393.45,305.00 394.09,305.00 394.73,305.00 395.50,305.00 396.15,305.00 396.79,305.00 397.42,305.00 398.05,305.00 398.69,305.00 399.33,305.00 399.97,305.00 400.62,305.00 401.25,305.00 401.88,305.00 402.52,305.00 403.15,305.00 403.79,305.00 404.42,305.00 405.06,305.00 405.69,305.00 406.33,305.00 406.96,305.00 407.59,305.00 408.24,305.00 408.87,305.00 409.50,305.00 410.15,305.00 410.79,305.00 411.42,305.00 412.06,305.00 412.70,305.00 413.35,305.00 413.98,305.00 414.62,305.00 415.26,305.00 415.89,305.00 416.53,305.00 417.16,305.00 417.80,305.00 418.46,305.00 419.09,305.00 419.72,305.00 420.35,305.00 420.99,305.00 421.62,305.00 422.26,305.00 422.89,305.00 423.54,305.00 424.18,305.00 424.82,305.00 425.44,305.00 426.09,305.00 426.72,305.00 427.36,305.00 427.99,305.00 428.63,305.00 429.26,305.00 429.90,305.00 430.54,305.00 431.17,305.00 431.82,305.00 432.46,305.00 433.10,305.00 433.73,305.00 434.37,305.00 435.09,305.00 435.79,305.00 436.47,305.00 437.11,305.00 437.77,305.00 438.41,305.00 439.05,305.00 439.68,305.00 440.27,305.00 440.94,305.00 441.57,305.00 442.22,305.00 442.85,305.00 443.48,305.00 444.12,305.00 444.76,305.00 445.39,305.00 446.03,305.00 446.66,305.00 447.30,305.00 447.94,305.00 448.58,305.00 449.22,305.00 449.86,305.00 450.50,305.00 451.14,305.00 451.78,305.00 452.43,305.00 453.07,305.00 453.70,305.00 454.33,305.00 454.97,305.00 455.60,305.00 456.24,305.00 456.88,305.00 457.51,305.00 458.16,305.00 458.79,305.00 459.42,305.00 460.06,305.00 460.70,305.00 461.34,305.00 461.98,305.00 462.61,305.00 463.25,305.00 463.89,305.00 464.53,305.00 465.17,305.00 465.81,305.00 466.45,305.00 467.09,305.00 467.73,305.00 468.36,305.00 469.01,305.00 469.66,305.00 470.30,305.00 470.94,305.00 471.58,305.00 472.21,305.00 472.85,305.00 473.49,305.00 474.13,305.00 474.77,305.00 475.40,305.00 476.04,305.00 476.68,305.00 477.32,305.00 477.96,305.00 478.60,305.00 479.24,305.00 479.88,305.00 480.52,305.00 481.17,305.00 481.81,305.00 482.44,305.00 483.08,305.00 483.72,305.00 484.37,305.00 485.01,305.00 485.65,305.00 486.29,305.00 486.92,305.00 487.56,305.00 488.20,305.00 488.84,305.00 489.48,305.00 490.11,305.00 490.75,305.00 491.39,305.00 492.03,305.00 492.67,305.00 493.31,305.00 493.94,305.00 494.59,305.00 495.23,305.00 495.87,305.00 496.50,305.00 497.14,305.00 497.77,305.00 498.41,305.00 499.04,305.00 499.68,305.00 500.33,305.00 500.96,305.00 501.61,305.00 502.24,305.00 502.89,305.00 503.53,305.00 504.16,305.00 504.80,305.00 505.45,305.00 506.09,305.00 506.72,305.00 507.37,305.00 508.01,305.00 508.65,305.00 509.29,305.00 509.94,305.00 510.58,305.00 511.23,305.00 511.86,305.00 512.50,305.00 513.14,305.00 513.78,305.00 514.43,305.00 515.07,305.00 515.71,305.00 516.34,305.00 516.97,305.00 517.63,305.00 518.26,305.00 518.91,305.00 519.55,305.00 520.18,305.00 520.82,305.00 521.45,305.00 522.08,305.00 522.72,305.00 523.36,305.00 524.00,305.00 524.64,305.00 525.28,305.00 525.92,305.00 526.57,305.00 527.21,305.00 527.85,305.00 528.49,305.00 529.12,305.00 529.76,305.00 530.40,305.00 531.04,305.00 531.68,305.00 532.31,305.00 532.96,305.00 533.60,305.00 534.23,305.00 534.87,305.00 535.52,305.00 536.17,305.00 536.82,305.00 537.46,305.00 538.10,305.00 538.74,305.00 539.38,305.00 540.02,305.00 540.65,305.00 541.29,305.00 541.93,305.00 542.57,305.00 543.21,305.00 543.85,305.00 544.50,305.00 545.16,305.00 545.80,305.00 546.44,305.00 547.08,305.00 547.72,305.00 548.36,305.00 549.00,305.00 549.65,305.00 550.29,305.00 550.93,305.00 551.57,305.00 552.22,305.00 552.86,305.00 553.50,305.00 554.13,305.00 554.77,305.00 555.41,305.00 556.05,305.00 556.70,305.00 557.34,305.00 557.98,305.00 558.62,305.00 559.26,305.00 559.90,305.00 560.54,305.00 561.18,305.00 561.84,305.00 562.48,305.00 563.13,305.00 563.77,305.00 564.42,305.00 565.07,305.00 565.73,305.00 566.38,305.00 567.04,305.00 567.68,305.00 568.32,305.00 568.95,305.00 569.60,305.00 570.24,305.00 570.88,305.00 571.54,305.00 572.17,305.00 572.81,305.00 573.45,305.00 574.09,305.00 574.73,305.00 575.37,305.00 576.01,305.00 576.64,305.00 577.28,305.00 577.92,305.00 578.56,305.00 579.19,305.00 579.82,305.00 580.47,305.00 581.11,305.00 581.74,305.00 582.39,305.00 583.04,305.00 583.67,305.00 584.31,305.00 584.95,305.00 585.59,305.00 586.23,305.00 586.86,305.00 587.50,305.00 588.15,305.00 588.78,305.00 589.41,305.00 590.05,305.00 590.68,305.00 591.33,305.00 591.96,305.00 592.60,305.00 593.24,305.00 593.88,305.00 594.52,305.00 595.16,305.00 595.80,305.00 596.42,305.00 597.06,305.00 597.68,305.00 598.32,305.00 598.96,305.00 599.62,305.00 600.25,305.00 600.89,305.00 601.53,305.00 602.18,305.00 602.82,305.00 603.46,305.00 604.10,305.00 604.74,305.00 605.38,305.00 606.02,305.00 606.66,305.00 607.31,305.00 607.95,305.00 608.59,305.00 609.23,305.00 609.86,305.00 610.50,305.00 611.14,305.00 611.77,305.00 612.40,305.00 613.04,305.00 613.68,305.00 614.33,305.00 614.96,305.00 615.60,305.00 616.23,305.00 616.87,305.00 617.52,305.00 618.16,305.00 618.80,305.00 619.43,305.00 620.07,305.00 620.72,305.00 621.35,305.00 621.99,305.00 622.63,305.00 623.27,305.00 623.90,305.00 624.55,305.00 625.19,305.00 625.83,305.00 626.46,305.00 627.10,305.00 627.76,305.00 628.40,305.00 629.05,305.00 629.70,305.00 630.34,305.00 630.98,305.00 631.62,305.00 632.26,305.00 632.90,305.00 633.53,305.00 634.18,305.00 634.83,305.00 635.47,305.00 636.11,305.00 636.75,305.00 637.39,305.00 638.03,305.00 638.67,305.00 639.30,305.00 639.94,305.00 640.58,305.00 641.22,305.00 641.86,305.00 642.49,305.00 643.14,305.00 643.77,305.00 644.41,305.00 645.05,305.00 645.68,305.00 646.32,305.00 646.97,305.00 647.60,305.00 648.24,305.00 648.88,305.00 649.52,305.00 650.15,305.00 650.80,305.00 651.43,305.00 652.08,305.00 652.72,305.00 653.35,305.00 653.99,305.00 654.63,305.00 655.27,305.00 655.90,305.00 656.55,305.00 657.21,305.00 657.85,305.00 658.51,305.00 659.16,305.00 659.81,305.00 660.47,305.00 661.12,305.00 661.78,305.00 662.43,305.00 663.09,305.00 663.72,305.00 664.36,305.00 665.00,305.00 665.65,305.00 666.29,305.00 666.93,305.00 667.57,305.00 668.21,305.00 668.85,305.00 669.49,305.00 670.13,305.00 670.76,305.00 671.40,305.00 672.04,305.00 672.68,305.00 673.32,305.00 673.96,305.00 674.59,305.00 675.24,305.00 675.89,305.00 676.53,305.00 677.16,305.00 677.80,305.00 678.44,305.00 679.08,305.00 679.72,305.00 680.36,305.00 680.99,305.00 681.64,305.00 682.28,305.00 682.91,305.00 683.56,305.00 684.19,305.00 684.83,305.00 685.52,305.00 686.18,305.00 686.81,305.00 687.45,305.00 688.09,305.00 688.74,305.00 689.38,305.00 690.03,305.00 690.67,305.00 691.30,305.00 691.93,305.00 692.57,305.00 693.20,305.00 693.84,305.00 694.49,305.00 695.12,305.00 695.77,305.00 696.41,305.00 697.05,305.00 697.69,305.00 698.32,305.00 698.96,305.00 699.60,305.00 700.24,305.00 700.88,305.00 701.52,305.00 702.16,305.00 702.80,305.00 703.44,305.00 704.11,305.00 704.75,305.00 705.39,305.00 706.03,305.00 706.67,305.00 707.31,305.00 707.95,305.00 708.59,305.00 709.23,305.00 709.87,305.00 710.51,305.00 711.16,305.00 711.80,305.00 712.45,305.00 713.08,305.00 713.72,305.00 714.36,305.00 715.00,305.00 715.64,305.00 716.27,305.00 716.92,305.00 717.56,305.00 718.20,305.00 718.84,305.00 719.48,305.00 720.12,305.00 720.76,305.00 721.39,305.00 722.03,305.00 722.67,305.00 723.31,305.00 723.95,305.00 724.59,305.00 725.23,305.00 725.87,305.00 726.51,305.00 727.15,305.00 727.79,305.00 728.42,305.00 729.05,305.00 729.69,305.00 730.34,305.00 730.97,305.00 731.63,305.00 732.27,305.00 732.91,305.00 733.55,305.00 734.19,305.00 734.84,305.00 735.53,305.00 736.18,305.00 736.82,305.00 737.47,305.00 738.12,305.00 738.75,305.00 739.39,305.00 740.03,305.00 740.67,305.00 741.31,305.00 741.96,305.00 742.59,305.00 743.23,305.00 743.89,305.00 744.53,305.00 745.17,305.00 745.81,305.00 746.45,305.00 747.09,305.00 747.73,305.00 748.37,305.00 749.01,305.00 749.66,305.00 750.29,305.00 750.94,305.00 751.58,305.00 752.22,305.00 752.86,305.00 753.51,305.00 754.15,305.00 754.80,305.00 755.43,305.00 756.07,305.00 756.72,305.00 757.35,305.00 757.98,305.00 758.63,305.00 759.26,305.00 759.91,305.00 760.55,305.00 761.18,305.00 761.82,305.00 762.47,305.00 763.11,305.00 763.74,305.00 764.39,305.00 765.03,305.00 765.68,305.00 766.32,305.00 766.94,305.00 767.57,305.00 768.20,305.00 768.85,305.00 769.49,305.00 770.13,305.00 770.78,305.00 771.41,305.00 772.06,305.00 772.71,305.00 773.34,305.00 773.98,305.00 774.62,305.00 775.26,305.00 775.89,305.00 776.52,305.00 777.16,305.00 777.80,305.00 778.44,305.00 779.08,305.00 779.71,305.00 780.35,305.00 780.99,305.00 781.63,305.00 782.27,305.00 782.90,305.00 783.52,305.00 784.18,305.00 784.81,305.00 785.45,305.00 786.10,305.00 786.75,305.00 787.38,305.00 788.02,305.00 788.66,305.00 789.30,305.00 789.94,305.00 790.58,305.00 791.27,305.00 791.90,305.00 792.55,305.00 793.19,305.00 793.84,305.00 794.47,305.00 795.11,305.00 795.75,305.00 796.39,305.00 797.03,305.00 797.67,305.00 798.30,305.00 798.95,305.00 799.59,305.00 800.23,305.00 800.87,305.00 801.51,305.00 802.15,305.00 802.79,305.00 803.44,305.00 804.08,305.00 804.72,305.00 805.38,305.00 806.02,305.00 806.66,305.00 807.30,305.00 807.94,305.00 808.59,305.00 809.23,305.00 809.86,305.00 810.50,305.00 811.14,305.00 811.78,305.00 812.42,305.00 813.06,305.00 813.70,305.00 814.35,305.00 814.99,305.00 815.62,305.00 816.26,305.00 816.89,305.00 817.54,305.00 818.17,305.00 818.81,305.00 819.45,305.00 820.08,305.00 820.72,305.00 821.35,305.00 821.99,305.00 822.63,305.00 823.26,305.00 823.90,305.00 824.54,305.00 825.17,305.00 825.81,305.00 826.44,305.00 827.09,305.00 827.72,305.00 828.36,305.00 828.99,305.00 829.63,305.00 830.28,305.00 830.91,305.00 831.55,305.00 832.19,305.00 832.86,305.00 833.49,305.00 834.13,305.00 834.78,305.00 835.42,305.00 836.06,305.00 836.70,305.00 837.34,305.00 837.98,305.00 838.62,305.00 839.25,305.00 839.89,305.00 840.53,305.00 841.17,305.00 841.81,305.00 842.45,305.00 843.08,305.00 843.72,305.00 844.36,305.00 845.00,305.00 845.64,305.00 846.31,305.00 846.95,305.00 847.58,305.00 848.21,305.00 848.84,305.00 849.50,305.00 850.13,305.00 850.77,305.00 851.41,305.00 852.05,305.00 852.69,305.00 853.33,305.00 853.97,305.00 854.61,305.00 855.25,305.00 855.89,305.00 856.53,305.00 857.17,305.00 857.81,305.00 858.44,305.00 859.07,305.00 859.72,305.00 860.35,305.00 860.99,305.00 861.63,305.00 862.27,305.00 862.91,305.00 863.54,305.00 864.18,305.00 864.82,305.00 865.46,305.00 866.10,305.00 866.73,305.00 867.38,305.00 868.01,305.00 868.65,305.00 869.29,305.00 869.93,305.00 870.56,305.00 871.20,305.00 871.84,305.00 872.48,305.00 873.13,305.00 873.77,305.00 874.41,305.00 875.05,305.00 875.69,305.00 876.33,305.00 876.98,305.00 877.62,305.00 878.30,305.00 878.94,305.00 879.63,305.00 880.27,305.00 880.90,305.00 881.54,305.00 882.18,305.00 882.81,305.00 883.45,305.00 884.09,305.00 884.73,305.00 885.37,305.00 886.01,305.00 886.65,305.00 887.28,305.00 887.92,305.00 888.56,305.00 889.20,305.00 889.83,305.00 890.46,305.00 891.11,305.00 891.75,305.00 892.39,305.00 893.03,305.00 893.66,305.00 894.30,305.00 894.94,305.00 895.58,305.00 896.22,305.00 896.86,305.00 897.50,305.00 898.14,305.00 898.77,305.00 899.41,305.00 900.05,305.00 900.68,305.00 901.32,305.00 901.95,305.00 902.58,305.00 903.22,305.00 903.86,305.00 904.50,305.00 905.14,305.00 905.78,305.00 906.44,305.00 907.08,305.00 907.72,305.00 908.36,305.00 908.99,305.00 909.62,305.00 910.26,305.00 910.90,305.00 911.53,305.00 912.17,305.00 912.80,305.00 913.44,305.00 914.07,305.00 914.71,305.00 915.35,305.00 915.98,305.00 916.62,305.00 917.27,305.00 917.90,305.00 918.53,305.00 919.18,305.00 919.81,305.00 920.45,305.00 921.09,305.00 921.73,305.00 922.37,305.00 923.01,305.00 923.65,305.00 924.30,305.00 924.93,305.00 925.57,305.00 926.21,305.00 926.85,305.00 927.48,305.00 928.14,305.00 928.78,305.00 929.42,305.00 930.07,305.00 930.70,305.00 931.34,305.00 931.98,305.00 932.62,305.00 933.26,305.00 933.90,305.00 934.53,305.00 935.17,305.00 935.82,305.00 936.46,305.00 937.10,305.00 937.75,305.00 938.41,305.00 939.08,305.00 939.73,305.00 940.37,305.00 941.00,305.00 941.64,305.00 942.28,305.00 942.92,305.00 943.55,305.00 944.20,305.00 944.84,305.00 945.48,305.00 946.12,305.00 946.75,305.00 947.39,305.00 948.03,305.00 948.67,305.00 949.33,305.00 949.98,305.00 950.62,305.00 951.27,305.00 951.93,305.00 952.58,305.00 953.26,305.00 953.90,305.00 954.54,305.00 955.18,305.00 955.82,305.00 956.46,305.00 957.09,305.00 957.73,305.00 958.37,305.00 959.00,305.00 959.64,305.00 960.30,305.00 960.94,305.00 961.58,305.00 962.23,305.00 962.97,305.00 963.61,305.00 964.25,305.00 964.88,305.00 965.52,305.00 966.15,305.00 966.78,305.00 967.37,305.00 967.94,305.00 968.64,305.00 969.23,305.00 969.82,305.00 970.47,305.00 971.03,305.00 971.66,305.00 972.30,305.00 972.94,305.00 973.57,305.00 974.21,305.00 974.85,305.00 975.48,305.00 976.11,305.00 976.76,305.00 977.39,305.00 978.03,305.00 978.66,305.00 979.31,305.00 979.94,305.00 980.58,305.00 981.21,305.00 981.84,305.00 982.47,305.00 983.11,305.00 983.75,305.00 984.38,305.00 985.02,305.00 985.66,305.00 986.30,305.00 986.92,305.00 987.57,305.00 988.20,305.00 988.83,305.00 989.47,305.00 990.10,305.00 990.73,305.00 991.37,305.00 992.00,305.00 992.64,305.00 993.28,305.00 993.91,305.00 994.55,305.00 995.19,305.00 995.83,305.00 996.46,305.00 997.10,305.00 997.73,305.00 998.37,305.00 999.00,305.00 999.63,305.00 1000.27,305.00 1000.90,305.00 1001.54,305.00 1002.17,305.00 1002.80,305.00 1003.45,305.00 1004.09,305.00 1004.73,305.00 1005.36,305.00 1006.00,305.00 1006.64,305.00 1007.28,305.00 1007.91,305.00 1008.55,305.00 1009.19,305.00 1009.83,305.00 1010.46,305.00 1011.09,305.00 1011.73,305.00 1012.37,305.00 1013.00,305.00 1013.64,305.00 1014.28,305.00 1014.91,305.00 1015.55,305.00 1016.18,305.00 1016.82,305.00 1017.46,305.00 1018.10,305.00 1018.73,305.00 1019.37,305.00 1020.01,305.00 1020.71,305.00 1021.34,305.00 1021.98,305.00 1022.61,305.00 1023.25,305.00 1023.89,305.00 1024.52,305.00 1025.16,305.00 1026.05,305.00 1026.69,305.00 1027.58,305.00 1028.21,305.00 1028.85,305.00 1029.49,305.00 1030.13,305.00 1030.76,305.00 1031.39,305.00 1032.02,305.00 1032.66,305.00 1033.30,305.00 1033.93,305.00 1034.56,305.00 1035.20,305.00 1035.84,305.00 1036.48,305.00 1037.12,305.00 1037.76,305.00 1038.40,305.00 1039.03,305.00 1039.68,305.00 1040.31,305.00 1040.95,305.00 1041.59,305.00 1042.22,305.00 1042.86,305.00 1043.50,305.00 1044.14,305.00 1044.78,305.00 1045.41,305.00 1046.05,305.00 1046.69,305.00 1047.35,305.00 1048.00,305.00 1048.65,305.00 1049.31,305.00 1049.94,305.00 1050.58,305.00 1051.22,305.00 1051.86,305.00 1052.50,305.00 1053.14,305.00 1053.77,305.00 1054.41,305.00 1055.06,305.00 1055.69,305.00 1056.34,305.00 1056.98,305.00 1057.62,305.00 1058.26,305.00 1058.90,305.00 1059.54,305.00 1060.18,305.00 1060.82,305.00 1061.46,305.00 1062.10,305.00 1062.74,305.00 1063.39,305.00 1064.03,305.00 1064.66,305.00 1065.30,305.00 1065.94,305.00 1066.58,305.00 1067.23,305.00 1067.88,305.00 1068.51,305.00 1069.15,305.00 1069.79,305.00 1070.43,305.00 1071.07,305.00 1071.71,305.00 1072.35,305.00 1072.98,305.00 1073.62,305.00 1074.26,305.00 1074.89,305.00 1075.53,305.00 1076.19,305.00 1076.83,305.00 1077.48,305.00 1078.11,305.00 1078.74,305.00 1079.39,305.00 1080.02,305.00 1080.66,305.00 1081.30,305.00 1081.94,305.00 1082.58,305.00 1083.22,305.00 1083.86,305.00 1084.50,305.00 1085.14,305.00 1085.78,305.00 1086.41,305.00 1087.05,305.00 1087.69,305.00 1088.34,305.00 1088.98,305.00 1089.62,305.00 1090.26,305.00 1090.90,305.00 1091.54,305.00 1092.18,305.00 1092.83,305.00 1093.46,305.00 1094.11,305.00 1094.76,305.00 1095.39,305.00 1096.03,305.00 1096.66,305.00 1097.30,305.00 1097.95,305.00 1098.59,305.00 1099.24,305.00 1099.89,305.00 1100.53,305.00 1101.17,305.00 1101.81,305.00 1102.45,305.00 1103.09,305.00 1103.73,305.00 1104.37,305.00 1105.02,305.00 1105.66,305.00 1106.29,305.00 1106.94,305.00 1107.57,305.00 1108.22,305.00 1108.86,305.00 1109.49,305.00 1110.14,305.00 1110.79,305.00 1111.44,305.00 1112.07,305.00 1112.72,305.00 1113.36,305.00 1114.00,305.00 1114.63,305.00 1115.28,305.00 1115.94,305.00 1116.58,305.00 1117.22,305.00 1117.86,305.00 1118.50,305.00 1119.14,305.00 1119.80,305.00 1120.44,305.00 1121.09,305.00 1121.73,305.00 1122.38,305.00 1123.03,305.00 1123.70,305.00 1124.34,305.00 1124.99,305.00 1125.63,305.00 1126.26,305.00 1126.90,305.00 1127.54,305.00 1128.18,305.00 1128.83,305.00 1129.47,305.00 1130.13,305.00 1130.77,305.00 1131.41,305.00 1132.05,305.00 1132.69,305.00 1133.33,305.00 1133.99,305.00 1134.62,305.00 1135.26,305.00 1135.90,305.00 1136.54,305.00 1137.18,305.00 1137.84,305.00 1138.48,305.00 1139.11,305.00 1139.74,305.00 1140.37,305.00 1141.01,305.00 1141.65,305.00 1142.29,305.00 1142.95,305.00 1143.58,305.00 1144.22,305.00 1144.86,305.00 1145.50,305.00 1146.13,305.00 1146.77,305.00 1147.41,305.00 1148.06,305.00 1148.70,305.00 1149.33,305.00 1149.96,305.00 1150.61,305.00 1151.24,305.00 1151.91,305.00 1152.54,305.00 1153.19,305.00 1153.83,305.00 1154.46,305.00 1155.09,305.00 1155.73,305.00 1156.37,305.00 1157.01,305.00 1157.68,305.00 1158.32,305.00 1158.96,305.00 1159.60,305.00 1160.23,305.00 1160.87,305.00 1161.50,305.00 1162.13,305.00 1162.78,305.00 1163.42,305.00 1164.05,305.00 1164.68,305.00 1165.32,305.00 1165.96,305.00 1166.60,305.00 1167.23,305.00 1167.87,305.00 1168.51,305.00 1169.15,305.00 1169.80,305.00 1170.44,305.00 1171.08,305.00 1171.71,305.00 1172.35,305.00 1172.99,305.00 1173.64,305.00 1174.27,305.00 1174.91,305.00 1175.54,305.00 1176.18,305.00 1176.82,305.00 1177.46,305.00 1178.09,305.00 1178.73,305.00 1179.36,305.00 1180.00,305.00"/>
<rect x="70" y="332" width="12" height="12" fill="#9467bd" fill-opacity="0.95"/>
<text x="88" y="342" font-size="11" fill="#333" font-family="Arial, Helvetica, sans-serif">nsc1.utdallas.edu</text>
<rect x="350" y="332" width="12" height="12" fill="#9467bd" fill-opacity="0.80"/>
<text x="368" y="342" font-size="11" fill="#333" font-family="Arial, Helvetica, sans-serif">nsc2.utdallas.edu</text>
<rect x="630" y="332" width="12" height="12" fill="#9467bd" fill-opacity="0.65"/>
<text x="648" y="342" font-size="11" fill="#333" font-family="Arial, Helvetica, sans-serif">nsc3.utdallas.edu</text>
<rect x="910" y="332" width="12" height="12" fill="#9467bd" fill-opacity="0.50"/>
<text x="928" y="342" font-size="11" fill="#333" font-family="Arial, Helvetica, sans-serif">nsc4.utdallas.edu</text>
</svg>