<?xml version="1.0" encoding="UTF-8"?>
<svg xmlns="http://www.w3.org/2000/svg" width="1200" height="360" viewBox="0 0 1200 360" role="img" aria-label="GPU Utilization (%)">
<rect width="100%" height="100%" fill="#ffffff"/>
<text x="600.0" y="22" text-anchor="middle" font-size="16" font-family="Arial, Helvetica, sans-serif" font-weight="bold">GPU Utilization (%)</text>
<line x1="70" y1="35.00" x2="1180" y2="35.00" stroke="#e3e3e3" stroke-width="1"/>
<text x="62" y="39.00" text-anchor="end" font-size="11" fill="#444" font-family="Arial, Helvetica, sans-serif">100</text>
<line x1="70" y1="89.00" x2="1180" y2="89.00" stroke="#e3e3e3" stroke-width="1"/>
<text x="62" y="93.00" text-anchor="end" font-size="11" fill="#444" font-family="Arial, Helvetica, sans-serif">80</text>
<line x1="70" y1="143.00" x2="1180" y2="143.00" stroke="#e3e3e3" stroke-width="1"/>
<text x="62" y="147.00" text-anchor="end" font-size="11" fill="#444" font-family="Arial, Helvetica, sans-serif">60</text>
<line x1="70" y1="197.00" x2="1180" y2="197.00" stroke="#e3e3e3" stroke-width="1"/>
<text x="62" y="201.00" text-anchor="end" font-size="11" fill="#444" font-family="Arial, Helvetica, sans-serif">40</text>
<line x1="70" y1="251.00" x2="1180" y2="251.00" stroke="#e3e3e3" stroke-width="1"/>
<text x="62" y="255.00" text-anchor="end" font-size="11" fill="#444" font-family="Arial, Helvetica, sans-serif">20</text>
<line x1="70" y1="305.00" x2="1180" y2="305.00" stroke="#e3e3e3" stroke-width="1"/>
<text x="62" y="309.00" text-anchor="end" font-size="11" fill="#444" font-family="Arial, Helvetica, sans-serif">0</text>
<line x1="70" y1="35" x2="70" y2="305" stroke="#999"/>
<line x1="70" y1="305" x2="1180" y2="305" stroke="#999"/>
<text x="70.00" y="323" text-anchor="middle" font-size="10" fill="#444" font-family="Arial, Helvetica, sans-serif">2026-02-11 16:38</text>
<text x="347.50" y="323" text-anchor="middle" font-size="10" fill="#444" font-family="Arial, Helvetica, sans-serif">2026-02-13 07:20</text>
<text x="625.00" y="323" text-anchor="middle" font-size="10" fill="#444" font-family="Arial, Helvetica, sans-serif">2026-02-14 22:02</text>
<text x="902.50" y="323" text-anchor="middle" font-size="10" fill="#444" font-family="Arial, Helvetica, sans-serif">2026-02-16 12:44</text>
<text x="1180.00" y="323" text-anchor="middle" font-size="10" fill="#444" font-family="Arial, Helvetica, sans-serif">2026-02-18 03:26</text>
<polyline fill="none" stroke="#9467bd" stroke-opacity="0.95" stroke-width="2" points="70.64,305.00 71.29,305.00 71.93,305.00 72.58,305.00 73.22,305.00 73.86,305.00 74.51,305.00 75.20,305.00 75.84,305.00 76.48,305.00 77.12,305.00 77.78,305.00 78.42,305.00 79.05,305.00 80.21,305.00 81.21,305.00 81.86,305.00 82.52,305.00 83.16,305.00 83.80,305.00 84.43,305.00 85.08,305.00 85.72,305.00 86.37,305.00 87.02,305.00 87.67,305.00 88.32,305.00 88.96,305.00 89.64,305.00 90.29,305.00 90.93,305.00 91.59,305.00 92.23,305.00 92.87,305.00 93.54,305.00 94.17,305.00 94.82,305.00 95.47,305.00 96.11,305.00 96.75,305.00 97.39,305.00 98.03,305.00 98.67,305.00 99.31,305.00 99.97,305.00 100.62,305.00 101.25,305.00 101.90,305.00 102.54,305.00 103.19,305.00 103.92,305.00 104.57,305.00 105.21,305.00 105.85,305.00 106.48,305.00 107.12,305.00 107.76,305.00 108.41,305.00 109.05,305.00 109.70,305.00 110.34,305.00 110.98,305.00 111.63,305.00 112.28,305.00 112.92,305.00 113.56,305.00 114.20,305.00 114.84,305.00 115.48,305.00 116.11,305.00 116.76,305.00 117.40,305.00 118.04,305.00 118.68,305.00 119.33,305.00 119.96,305.00 120.61,305.00 121.25,305.00 121.88,305.00 122.54,305.00 123.19,305.00 123.83,305.00 124.47,305.00 125.11,305.00 125.76,305.00 126.40,305.00 127.04,305.00 127.67,305.00 128.32,305.00 128.97,305.00 129.61,305.00 130.26,305.00 130.89,305.00 131.54,305.00 132.18,305.00 132.82,305.00 133.45,305.00 134.10,305.00 134.74,305.00 135.38,305.00 136.03,305.00 136.67,305.00 137.31,305.00 137.96,305.00 138.61,305.00 139.25,305.00 139.89,305.00 140.53,305.00 141.17,305.00 141.82,305.00 142.46,305.00 143.11,305.00 143.75,305.00 144.39,305.00 145.04,305.00 145.69,305.00 146.34,305.00 146.98,305.00 147.62,305.00 148.26,305.00 148.91,305.00 149.55,305.00 150.19,305.00 150.89,305.00 151.53,305.00 152.18,305.00 152.82,305.00 153.46,305.00 154.10,305.00 154.73,305.00 155.37,305.00 156.01,305.00 156.66,305.00 157.30,305.00 157.94,305.00 158.58,305.00 159.22,305.00 159.87,305.00 160.51,305.00 161.15,305.00 161.79,305.00 162.43,305.00 163.07,305.00 163.72,305.00 164.36,305.00 165.01,305.00 165.65,305.00 166.29,305.00 166.93,305.00 167.57,305.00 168.21,305.00 168.85,305.00 169.50,305.00 170.15,305.00 170.79,305.00 171.43,305.00 172.08,305.00 172.72,305.00 173.36,305.00 174.01,305.00 174.65,305.00 175.30,305.00 175.95,305.00 176.59,305.00 177.24,305.00 177.88,305.00 178.51,305.00 179.15,305.00 179.80,305.00 180.44,305.00 181.07,305.00 181.71,305.00 182.36,305.00 183.00,305.00 183.65,305.00 184.29,305.00 184.95,305.00 185.59,305.00 186.23,305.00 186.87,305.00 187.51,305.00 188.21,305.00 188.86,305.00 189.50,305.00 190.14,305.00 190.77,305.00 191.42,305.00 192.06,305.00 192.71,305.00 193.35,305.00 193.99,305.00 194.63,305.00 195.27,305.00 195.93,305.00 196.57,305.00 197.21,305.00 197.85,305.00 198.50,305.00 199.16,305.00 199.81,305.00 200.45,305.00 201.09,305.00 201.74,305.00 202.38,305.00 203.02,305.00 203.66,305.00 204.32,305.00 204.96,305.00 205.59,305.00 206.24,305.00 206.89,305.00 207.53,305.00 208.17,305.00 208.82,305.00 209.46,305.00 210.10,305.00 210.74,305.00 211.38,305.00 212.02,305.00 212.67,305.00 213.30,305.00 213.95,305.00 214.58,305.00 215.22,305.00 215.87,305.00 216.51,305.00 217.16,305.00 217.81,305.00 218.45,305.00 219.10,305.00 219.74,305.00 220.39,305.00 221.03,305.00 221.67,305.00 222.31,305.00 222.97,305.00 223.61,305.00 224.26,305.00 224.90,305.00 225.54,305.00 226.19,305.00 226.82,305.00 227.46,305.00 228.11,305.00 228.75,305.00 229.40,305.00 230.04,305.00 230.69,305.00 231.33,305.00 231.97,305.00 232.62,305.00 233.27,305.00 233.91,305.00 234.55,305.00 235.20,305.00 235.85,305.00 236.49,305.00 237.13,305.00 237.77,305.00 238.49,305.00 239.14,305.00 239.78,305.00 240.42,305.00 241.07,305.00 241.72,305.00 242.36,305.00 243.01,305.00 243.64,305.00 244.31,80.90 244.96,72.80 245.59,305.00 246.24,305.00 246.88,305.00 247.52,305.00 248.17,305.00 248.83,305.00 249.48,305.00 250.12,305.00 250.77,305.00 251.46,305.00 252.11,305.00 252.91,305.00 254.00,305.00 254.66,305.00 255.32,305.00 255.96,305.00 256.59,305.00 257.23,305.00 257.88,305.00 258.52,305.00 259.17,305.00 259.84,305.00 260.51,305.00 261.19,305.00 261.83,305.00 262.48,305.00 263.12,305.00 263.77,305.00 264.42,305.00 265.07,305.00 265.71,305.00 266.35,305.00 267.02,305.00 267.67,305.00 268.30,305.00 268.95,305.00 269.60,305.00 270.27,305.00 270.92,305.00 271.56,305.00 272.22,305.00 272.84,305.00 273.48,305.00 274.13,305.00 274.77,305.00 275.42,305.00 276.09,305.00 276.73,305.00 277.37,305.00 278.03,305.00 278.67,305.00 279.32,305.00 279.96,305.00 280.60,305.00 281.24,305.00 281.89,305.00 282.53,305.00 283.29,305.00 284.05,305.00 284.81,305.00 285.56,305.00 286.29,305.00 287.03,305.00 287.80,305.00 288.54,305.00 289.19,305.00 289.82,305.00 290.47,305.00 291.11,305.00 291.75,305.00 292.39,305.00 293.03,305.00 293.67,305.00 294.31,305.00 294.95,305.00 295.59,305.00 296.23,305.00 296.87,305.00 297.51,305.00 298.15,305.00 298.79,305.00 299.43,305.00 300.07,305.00 300.72,305.00 301.36,305.00 302.00,305.00 302.64,305.00 303.27,305.00 303.92,305.00 304.56,305.00 305.20,305.00 305.84,305.00 306.49,305.00 307.13,305.00 307.77,305.00 308.41,305.00 309.05,305.00 309.69,305.00 310.33,305.00 310.96,305.00 311.60,305.00 312.24,305.00 312.88,305.00 313.51,305.00 314.15,305.00 314.79,305.00 315.43,305.00 316.07,305.00 316.70,305.00 317.34,305.00 318.00,305.00 318.69,305.00 319.34,305.00 319.98,305.00 320.62,305.00 321.26,305.00 321.89,305.00 322.53,305.00 323.17,305.00 323.93,305.00 324.68,305.00 325.43,305.00 326.18,305.00 326.94,305.00 327.69,305.00 328.45,305.00 329.23,305.00 329.93,305.00 330.62,305.00 331.27,305.00 331.92,305.00 332.56,305.00 333.19,305.00 333.83,305.00 334.48,305.00 335.12,305.00 335.76,305.00 336.40,305.00 337.04,305.00 337.68,305.00 338.32,305.00 338.97,305.00 339.61,305.00 340.25,305.00 340.81,305.00 341.48,305.00 342.12,305.00 342.77,305.00 343.42,305.00 344.06,305.00 344.70,305.00 345.35,305.00 346.00,305.00 346.64,305.00 347.29,305.00 347.95,305.00 348.58,305.00 349.22,305.00 349.86,305.00 350.50,305.00 351.14,305.00 351.77,305.00 352.42,305.00 353.06,305.00 353.71,305.00 354.35,305.00 354.98,305.00 355.63,305.00 356.27,305.00 356.92,305.00 357.57,305.00 358.21,305.00 358.85,305.00 359.50,305.00 360.14,305.00 360.80,305.00 361.44,305.00 362.08,305.00 362.72,305.00 363.35,305.00 363.99,305.00 364.64,305.00 365.28,305.00 365.92,305.00 366.56,305.00 367.20,305.00 367.84,305.00 368.49,305.00 369.13,305.00 369.77,305.00 370.55,305.00 371.21,305.00 371.87,305.00 372.52,305.00 373.16,305.00 373.81,305.00 374.45,305.00 375.08,305.00 375.73,305.00 376.38,305.00 377.02,305.00 377.67,305.00 378.31,305.00 378.95,305.00 379.62,305.00 380.27,305.00 380.91,305.00 381.56,305.00 382.20,305.00 382.84,305.00 383.48,305.00 384.12,305.00 384.79,305.00 385.44,305.00 386.09,305.00 386.73,305.00 387.37,305.00 388.02,305.00 388.66,305.00 389.30,305.00 389.94,305.00 390.59,305.00 391.24,305.00 391.88,305.00 392.52,305.00 393.16,305.00 393.80,305.00 394.46,305.00 395.10,305.00 395.74,305.00 396.38,305.00 397.02,305.00 397.68,305.00 398.32,305.00 399.09,305.00 399.76,305.00 400.40,305.00 401.04,305.00 401.68,305.00 402.33,305.00 402.97,305.00 403.62,305.00 404.27,305.00 404.91,305.00 405.55,305.00 406.19,305.00 406.83,305.00 407.48,305.00 408.12,305.00 408.76,305.00 409.40,305.00 410.04,305.00 410.68,305.00 411.33,305.00 411.98,305.00 412.62,305.00 413.26,305.00 413.91,305.00 414.56,305.00 415.20,305.00 415.84,305.00 416.48,305.00 417.14,305.00 417.78,305.00 418.43,305.00 419.07,305.00 419.72,305.00 420.36,305.00 421.00,305.00 421.65,305.00 422.31,305.00 422.95,305.00 423.59,305.00 424.22,305.00 424.87,305.00 425.51,305.00 426.15,305.00 426.79,305.00 427.44,305.00 428.09,305.00 428.74,305.00 429.37,305.00 430.02,305.00 430.66,305.00 431.30,305.00 431.94,305.00 432.59,305.00 433.23,305.00 433.88,305.00 434.52,305.00 435.16,305.00 435.81,305.00 436.46,305.00 437.11,305.00 437.75,305.00 438.40,305.00 439.12,305.00 439.83,305.00 440.52,305.00 441.17,305.00 441.84,305.00 442.48,305.00 443.13,305.00 443.77,305.00 444.37,305.00 445.04,305.00 445.68,305.00 446.33,305.00 446.97,305.00 447.61,305.00 448.25,305.00 448.90,305.00 449.54,305.00 450.18,305.00 450.83,305.00 451.47,305.00 452.12,305.00 452.76,305.00 453.41,305.00 454.06,305.00 454.71,305.00 455.35,305.00 456.00,305.00 456.65,305.00 457.30,305.00 457.94,305.00 458.58,305.00 459.22,305.00 459.86,305.00 460.51,305.00 461.15,305.00 461.79,305.00 462.45,305.00 463.08,305.00 463.73,305.00 464.37,305.00 465.02,305.00 465.66,305.00 466.31,305.00 466.95,305.00 467.60,305.00 468.24,305.00 468.89,305.00 469.54,305.00 470.19,305.00 470.83,305.00 471.47,305.00 472.12,305.00 472.76,305.00 473.42,305.00 474.08,305.00 474.72,305.00 475.37,305.00 476.01,305.00 476.66,305.00 477.30,305.00 477.95,305.00 478.59,305.00 479.24,305.00 479.88,305.00 480.53,305.00 481.18,305.00 481.82,305.00 482.47,305.00 483.12,305.00 483.76,305.00 484.41,305.00 485.06,305.00 485.71,305.00 486.36,305.00 487.00,305.00 487.64,305.00 488.29,305.00 488.95,305.00 489.60,305.00 490.25,305.00 490.89,305.00 491.53,305.00 492.18,305.00 492.82,305.00 493.47,305.00 494.11,305.00 494.76,305.00 495.40,305.00 496.04,305.00 496.69,305.00 497.34,305.00 497.99,305.00 498.63,305.00 499.28,305.00 499.93,305.00 500.57,305.00 501.22,305.00 501.86,305.00 502.50,305.00 503.14,305.00 503.79,305.00 504.43,305.00 505.08,305.00 505.73,305.00 506.38,305.00 507.02,305.00 507.67,305.00 508.32,305.00 508.96,305.00 509.61,305.00 510.26,305.00 510.91,305.00 511.55,305.00 512.20,305.00 512.85,305.00 513.50,305.00 514.14,305.00 514.80,305.00 515.45,305.00 516.10,305.00 516.75,305.00 517.39,305.00 518.04,305.00 518.69,305.00 519.34,305.00 519.99,305.00 520.63,305.00 521.27,305.00 521.91,305.00 522.58,305.00 523.22,305.00 523.87,305.00 524.51,305.00 525.16,305.00 525.80,305.00 526.44,305.00 527.08,305.00 527.73,305.00 528.37,305.00 529.02,305.00 529.66,305.00 530.31,305.00 530.95,305.00 531.62,305.00 532.27,305.00 532.91,305.00 533.55,305.00 534.19,305.00 534.84,305.00 535.48,305.00 536.14,305.00 536.78,305.00 537.42,305.00 538.07,305.00 538.72,305.00 539.36,305.00 540.01,305.00 540.66,305.00 541.33,305.00 541.98,305.00 542.63,305.00 543.28,305.00 543.92,305.00 544.57,305.00 545.21,305.00 545.85,305.00 546.49,305.00 547.15,305.00 547.79,305.00 548.44,305.00 549.09,305.00 549.74,305.00 550.42,305.00 551.06,305.00 551.70,305.00 552.35,305.00 553.00,305.00 553.65,305.00 554.30,305.00 554.95,305.00 555.60,305.00 556.25,305.00 556.89,305.00 557.54,305.00 558.19,305.00 558.84,305.00 559.48,305.00 560.13,305.00 560.77,305.00 561.43,305.00 562.08,305.00 562.72,305.00 563.37,305.00 564.02,305.00 564.67,305.00 565.31,305.00 565.96,305.00 566.61,305.00 567.28,305.00 567.93,305.00 568.58,305.00 569.22,305.00 569.89,305.00 570.55,305.00 571.21,305.00 571.86,305.00 572.53,305.00 573.18,305.00 573.82,305.00 574.47,305.00 575.12,305.00 575.77,305.00 576.42,305.00 577.08,305.00 577.72,305.00 578.37,305.00 579.02,305.00 579.66,305.00 580.31,305.00 580.96,305.00 581.60,305.00 582.24,305.00 582.89,305.00 583.53,305.00 584.18,305.00 584.81,305.00 585.46,305.00 586.11,305.00 586.76,305.00 587.40,305.00 588.05,305.00 588.70,305.00 589.35,305.00 590.00,305.00 590.64,305.00 591.29,305.00 591.93,305.00 592.57,305.00 593.22,305.00 593.87,305.00 594.51,305.00 595.15,305.00 595.80,305.00 596.44,305.00 597.09,305.00 597.73,305.00 598.38,305.00 599.03,305.00 599.67,305.00 600.31,305.00 600.96,305.00 601.61,305.00 602.24,305.00 602.88,305.00 603.52,305.00 604.16,305.00 604.81,305.00 605.47,305.00 606.11,305.00 606.76,305.00 607.40,305.00 608.06,305.00 608.71,305.00 609.35,305.00 610.01,305.00 610.65,305.00 611.29,305.00 611.95,305.00 612.59,305.00 613.25,305.00 613.90,305.00 614.54,305.00 615.18,305.00 615.83,305.00 616.47,305.00 617.12,305.00 617.76,305.00 618.40,305.00 619.04,305.00 619.69,305.00 620.34,305.00 620.98,305.00 621.63,305.00 622.27,305.00 622.92,305.00 623.57,305.00 624.22,305.00 624.86,305.00 625.51,305.00 626.15,305.00 626.80,305.00 627.44,305.00 628.09,305.00 628.74,305.00 629.38,305.00 630.03,305.00 630.68,305.00 631.33,305.00 631.97,305.00 632.61,305.00 633.25,305.00 633.92,305.00 634.57,305.00 635.23,305.00 635.88,305.00 636.53,305.00 637.18,305.00 637.82,305.00 638.47,305.00 639.12,305.00 639.76,305.00 640.41,305.00 641.07,305.00 641.72,305.00 642.37,305.00 643.02,305.00 643.66,305.00 644.31,305.00 644.96,305.00 645.60,305.00 646.24,305.00 646.89,305.00 647.53,305.00 648.18,305.00 648.82,305.00 649.47,305.00 650.11,305.00 650.75,305.00 651.40,305.00 652.04,305.00 652.69,305.00 653.35,305.00 653.99,305.00 654.63,305.00 655.28,305.00 655.92,305.00 656.56,305.00 657.22,305.00 657.86,305.00 658.51,305.00 659.16,305.00 659.80,305.00 660.44,305.00 661.09,305.00 661.74,305.00 662.38,305.00 663.03,305.00 663.70,305.00 664.35,305.00 665.01,305.00 665.67,305.00 666.33,305.00 666.99,305.00 667.65,305.00 668.32,305.00 668.98,305.00 669.64,305.00 670.29,305.00 670.93,305.00 671.58,305.00 672.23,305.00 672.88,305.00 673.53,305.00 674.17,305.00 674.82,305.00 675.47,305.00 676.12,305.00 676.76,305.00 677.40,305.00 678.05,305.00 678.69,305.00 679.34,305.00 679.99,305.00 680.63,305.00 681.28,305.00 681.93,305.00 682.58,305.00 683.23,305.00 683.87,305.00 684.52,305.00 685.16,305.00 685.81,305.00 686.46,305.00 687.10,305.00 687.75,305.00 688.40,305.00 689.04,305.00 689.69,305.00 690.34,305.00 690.98,305.00 691.63,305.00 692.32,305.00 692.99,305.00 693.63,305.00 694.28,305.00 694.92,305.00 695.57,305.00 696.23,305.00 696.88,305.00 697.53,305.00 698.17,305.00 698.80,305.00 699.45,305.00 700.09,305.00 700.74,305.00 701.39,305.00 702.03,305.00 702.68,305.00 703.33,305.00 703.98,305.00 704.62,305.00 705.27,305.00 705.91,305.00 706.56,305.00 707.21,305.00 707.85,305.00 708.50,305.00 709.15,305.00 709.80,305.00 710.44,305.00 711.12,305.00 711.77,305.00 712.41,305.00 713.05,305.00 713.70,305.00 714.35,305.00 715.00,305.00 715.65,305.00 716.29,305.00 716.94,305.00 717.59,305.00 718.24,305.00 718.90,305.00 719.55,305.00 720.19,305.00 720.83,305.00 721.48,305.00 722.13,305.00 722.78,305.00 723.42,305.00 724.07,305.00 724.72,305.00 725.36,305.00 726.01,305.00 726.65,305.00 727.30,305.00 727.95,305.00 728.59,305.00 729.24,305.00 729.88,305.00 730.53,305.00 731.17,305.00 731.82,305.00 732.47,305.00 733.12,305.00 733.76,305.00 734.41,305.00 735.05,305.00 735.69,305.00 736.34,305.00 736.98,305.00 737.63,305.00 738.28,305.00 738.94,305.00 739.59,305.00 740.24,305.00 740.89,305.00 741.53,305.00 742.19,305.00 742.88,305.00 743.54,305.00 744.19,305.00 744.85,305.00 745.50,305.00 746.14,305.00 746.79,305.00 747.44,305.00 748.08,305.00 748.73,305.00 749.38,305.00 750.03,305.00 750.67,305.00 751.34,305.00 751.98,305.00 752.63,305.00 753.28,305.00 753.92,305.00 754.57,305.00 755.22,305.00 755.87,305.00 756.51,305.00 757.17,305.00 757.81,305.00 758.46,305.00 759.11,305.00 759.76,305.00 760.41,305.00 761.06,305.00 761.71,305.00 762.36,305.00 763.00,305.00 763.65,305.00 764.31,305.00 764.94,305.00 765.59,305.00 766.24,305.00 766.88,305.00 767.53,305.00 768.18,305.00 768.82,305.00 769.47,305.00 770.12,305.00 770.77,305.00 771.41,305.00 772.06,305.00 772.71,305.00 773.36,305.00 774.01,305.00 774.64,305.00 775.28,305.00 775.92,305.00 776.57,305.00 777.22,305.00 777.86,305.00 778.52,305.00 779.16,305.00 779.82,305.00 780.47,305.00 781.11,305.00 781.76,305.00 782.40,305.00 783.05,305.00 783.69,305.00 784.33,305.00 784.98,305.00 785.63,305.00 786.27,305.00 786.91,305.00 787.55,305.00 788.20,305.00 788.85,305.00 789.50,305.00 790.14,305.00 790.78,305.00 791.41,305.00 792.07,305.00 792.71,305.00 793.36,305.00 794.01,305.00 794.67,305.00 795.31,305.00 795.95,305.00 796.60,305.00 797.25,305.00 797.90,305.00 798.54,305.00 799.24,305.00 799.88,305.00 800.54,305.00 801.18,305.00 801.84,305.00 802.48,305.00 803.12,305.00 803.78,305.00 804.42,305.00 805.06,305.00 805.71,305.00 806.35,305.00 807.00,305.00 807.66,305.00 808.30,305.00 808.95,305.00 809.59,305.00 810.24,305.00 810.89,305.00 811.54,305.00 812.19,305.00 812.84,305.00 813.50,305.00 814.15,305.00 814.80,305.00 815.45,305.00 816.10,305.00 816.75,305.00 817.40,305.00 818.04,305.00 818.69,305.00 819.33,305.00 819.98,305.00 820.63,305.00 821.28,305.00 821.92,305.00 822.57,305.00 823.22,305.00 823.86,305.00 824.50,305.00 825.15,305.00 825.80,305.00 826.44,305.00 827.09,305.00 827.73,305.00 828.37,305.00 829.01,305.00 829.66,305.00 830.30,305.00 830.94,305.00 831.59,305.00 832.23,305.00 832.88,305.00 833.52,305.00 834.16,305.00 834.80,305.00 835.46,305.00 836.10,305.00 836.74,305.00 837.38,305.00 838.02,305.00 838.68,305.00 839.32,305.00 839.96,305.00 840.61,305.00 841.29,305.00 841.93,305.00 842.58,305.00 843.23,305.00 843.88,305.00 844.53,305.00 845.18,305.00 845.82,305.00 846.47,305.00 847.12,305.00 847.75,305.00 848.40,305.00 849.05,305.00 849.69,305.00 850.34,305.00 850.98,305.00 851.62,305.00 852.27,305.00 852.91,305.00 853.56,305.00 854.22,305.00 854.89,305.00 855.53,305.00 856.18,305.00 856.81,305.00 857.45,305.00 858.11,305.00 858.75,305.00 859.40,305.00 860.05,305.00 860.69,305.00 861.34,305.00 861.99,305.00 862.64,305.00 863.29,305.00 863.93,305.00 864.58,305.00 865.23,305.00 865.87,305.00 866.51,305.00 867.15,305.00 867.80,305.00 868.44,305.00 869.09,305.00 869.73,305.00 870.38,305.00 871.02,305.00 871.67,305.00 872.31,305.00 872.96,305.00 873.61,305.00 874.25,305.00 874.90,305.00 875.54,305.00 876.19,305.00 876.83,305.00 877.48,305.00 878.13,305.00 878.77,305.00 879.41,305.00 880.06,305.00 880.71,305.00 881.34,305.00 882.01,305.00 882.65,305.00 883.30,305.00 883.94,305.00 884.59,305.00 885.24,305.00 885.90,305.00 887.24,305.00 887.88,305.00 888.58,305.00 889.22,305.00 889.86,305.00 890.50,305.00 891.15,305.00 891.80,305.00 892.44,305.00 893.09,305.00 893.74,305.00 894.38,305.00 895.03,305.00 895.67,305.00 896.31,305.00 896.96,305.00 897.61,305.00 898.25,305.00 898.89,305.00 899.53,305.00 900.18,305.00 900.83,305.00 901.48,305.00 902.12,305.00 902.76,305.00 903.41,305.00 904.05,305.00 904.71,305.00 905.35,305.00 906.00,305.00 906.65,305.00 907.29,305.00 907.93,305.00 908.57,305.00 909.22,305.00 909.86,305.00 910.51,305.00 911.15,305.00 911.78,305.00 912.43,305.00 913.08,305.00 913.72,305.00 914.37,305.00 915.02,305.00 915.69,305.00 916.34,305.00 916.98,305.00 917.62,305.00 918.26,305.00 918.90,305.00 919.54,305.00 920.19,305.00 920.83,305.00 921.48,305.00 922.12,305.00 922.76,305.00 923.40,305.00 924.04,305.00 924.69,305.00 925.33,305.00 925.98,305.00 926.63,305.00 927.27,305.00 927.91,305.00 928.56,305.00 929.21,305.00 929.85,305.00 930.50,305.00 931.14,305.00 931.79,305.00 932.44,305.00 933.08,305.00 933.74,305.00 934.38,305.00 935.02,305.00 935.67,305.00 936.32,305.00 936.96,305.00 937.63,305.00 938.27,305.00 938.92,305.00 939.57,305.00 940.22,305.00 940.86,305.00 941.50,305.00 942.15,305.00 942.80,305.00 943.45,305.00 944.09,305.00 944.74,305.00 945.39,305.00 946.03,305.00 946.68,305.00 947.34,305.00 948.00,305.00 948.69,305.00 949.34,305.00 949.99,305.00 950.63,305.00 951.27,305.00 951.92,305.00 952.56,305.00 953.21,305.00 953.86,305.00 954.51,305.00 955.16,305.00 955.80,305.00 956.44,305.00 957.08,305.00 957.73,305.00 958.38,305.00 959.04,305.00 959.70,305.00 960.35,305.00 961.01,305.00 961.68,305.00 962.33,305.00 963.02,305.00 963.66,305.00 964.31,305.00 964.96,305.00 965.61,305.00 966.25,305.00 966.90,305.00 967.54,305.00 968.19,305.00 968.83,305.00 969.48,305.00 970.14,305.00 970.78,305.00 971.43,305.00 972.09,305.00 972.84,305.00 973.49,305.00 974.13,305.00 974.77,305.00 975.41,305.00 976.05,305.00 976.69,305.00 977.29,305.00 977.87,305.00 978.57,305.00 979.17,305.00 979.76,305.00 980.42,305.00 980.98,305.00 981.62,305.00 982.27,305.00 982.92,305.00 983.56,305.00 984.20,305.00 984.85,305.00 985.49,305.00 986.13,305.00 986.78,305.00 987.42,305.00 988.06,305.00 988.71,305.00 989.36,305.00 989.99,305.00 990.64,305.00 991.28,305.00 991.92,305.00 992.55,305.00 993.20,305.00 993.84,305.00 994.48,305.00 995.13,305.00 995.78,305.00 996.42,305.00 997.06,305.00 997.71,305.00 998.34,305.00 998.99,305.00 999.63,305.00 1000.27,305.00 1000.91,305.00 1001.55,305.00 1002.19,305.00 1002.84,305.00 1003.48,305.00 1004.12,305.00 1004.77,305.00 1005.41,305.00 1006.06,305.00 1006.70,305.00 1007.34,305.00 1007.99,305.00 1008.63,305.00 1009.27,305.00 1009.90,305.00 1010.55,305.00 1011.19,305.00 1011.83,305.00 1012.47,305.00 1013.11,305.00 1013.76,305.00 1014.41,305.00 1015.06,305.00 1015.70,305.00 1016.34,305.00 1016.99,305.00 1017.64,305.00 1018.28,305.00 1018.93,305.00 1019.57,305.00 1020.21,305.00 1020.85,305.00 1021.49,305.00 1022.14,305.00 1022.78,305.00 1023.42,305.00 1024.07,305.00 1024.71,305.00 1025.35,305.00 1026.00,305.00 1026.64,305.00 1027.29,305.00 1027.93,305.00 1028.57,305.00 1029.22,305.00 1029.87,305.00 1030.51,305.00 1031.21,305.00 1031.86,305.00 1032.50,305.00 1033.14,305.00 1033.78,305.00 1034.43,305.00 1035.06,305.00 1035.72,305.00 1036.62,305.00 1037.26,305.00 1038.16,305.00 1038.80,305.00 1039.45,305.00 1040.09,305.00 1040.74,305.00 1041.38,305.00 1042.02,305.00 1042.66,305.00 1043.30,305.00 1043.94,305.00 1044.58,305.00 1045.22,305.00 1045.86,305.00 1046.52,305.00 1047.17,305.00 1047.81,305.00 1048.45,305.00 1049.10,305.00 1049.74,305.00 1050.40,305.00 1051.04,305.00 1051.68,305.00 1052.32,305.00 1052.97,305.00 1053.61,305.00 1054.25,305.00 1054.91,305.00 1055.55,305.00 1056.19,305.00 1056.84,305.00 1057.49,305.00 1058.15,305.00 1058.81,305.00 1059.46,305.00 1060.13,305.00 1060.77,305.00 1061.42,305.00 1062.07,305.00 1062.71,305.00 1063.36,305.00 1064.00,305.00 1064.64,305.00 1065.28,305.00 1065.94,305.00 1066.59,305.00 1067.24,305.00 1067.89,305.00 1068.53,305.00 1069.18,305.00 1069.83,305.00 1070.47,305.00 1071.12,305.00 1071.77,305.00 1072.42,305.00 1073.06,305.00 1073.71,305.00 1074.37,305.00 1075.01,305.00 1075.66,305.00 1076.30,305.00 1076.95,305.00 1077.59,305.00 1078.25,305.00 1078.91,305.00 1079.55,305.00 1080.20,305.00 1080.84,305.00 1081.49,305.00 1082.13,305.00 1082.78,305.00 1083.42,305.00 1084.07,305.00 1084.71,305.00 1085.36,305.00 1085.99,305.00 1086.64,305.00 1087.31,305.00 1087.96,305.00 1088.61,305.00 1089.25,305.00 1089.89,305.00 1090.54,305.00 1091.19,305.00 1091.83,305.00 1092.47,305.00 1093.12,305.00 1093.77,305.00 1094.41,305.00 1095.06,305.00 1095.71,305.00 1096.36,305.00 1097.00,305.00 1097.64,305.00 1098.29,305.00 1098.94,305.00 1099.59,305.00 1100.24,305.00 1100.88,305.00 1101.53,305.00 1102.19,305.00 1102.83,305.00 1103.47,305.00 1104.13,305.00 1104.77,305.00 1105.43,305.00 1106.08,305.00 1106.72,305.00 1107.37,305.00 1108.01,305.00 1108.65,305.00 1109.31,305.00 1109.96,305.00 1110.61,305.00 1111.27,305.00 1111.92,305.00 1112.57,305.00 1113.22,305.00 1113.86,305.00 1114.51,305.00 1115.16,305.00 1115.80,305.00 1116.46,305.00 1117.10,305.00 1117.74,305.00 1118.40,305.00 1119.04,305.00 1119.69,305.00 1120.34,305.00 1120.98,305.00 1121.64,305.00 1122.29,305.00 1122.95,305.00 1123.59,305.00 1124.25,305.00 1124.89,305.00 1125.54,305.00 1126.18,305.00 1126.83,305.00 1127.50,305.00 1128.15,305.00 1128.79,305.00 1129.44,305.00 1130.09,305.00 1130.73,305.00 1131.40,305.00 1132.05,305.00 1132.71,305.00 1133.36,305.00 1134.01,305.00 1134.66,305.00 1135.35,305.00 1135.99,305.00 1136.65,305.00 1137.29,305.00 1137.94,305.00 1138.58,305.00 1139.23,305.00 1139.88,305.00 1140.53,305.00 1141.18,305.00 1141.84,305.00 1142.49,305.00 1143.14,305.00 1143.78,305.00 1144.43,305.00 1145.08,305.00 1145.74,305.00 1146.39,305.00 1147.03,305.00 1147.68,305.00 1148.33,305.00 1148.97,305.00 1149.64,305.00 1150.28,305.00 1150.92,305.00 1151.56,305.00 1152.20,305.00 1152.85,305.00 1153.50,305.00 1154.14,305.00 1154.81,305.00 1155.45,305.00 1156.09,305.00 1156.74,305.00 1157.38,305.00 1158.02,305.00 1158.67,305.00 1159.32,305.00 1159.97,305.00 1160.62,305.00 1161.26,305.00 1161.90,305.00 1162.55,305.00 1163.19,305.00 1163.86,305.00 1164.51,305.00 1165.16,305.00 1165.80,305.00 1166.45,305.00 1167.09,305.00 1167.73,305.00 1168.37,305.00 1169.02,305.00 1169.70,305.00 1170.35,305.00 1171.00,305.00 1171.64,305.00 1172.28,305.00 1172.92,305.00 1173.56,305.00 1174.20,305.00 1174.86,305.00 1175.50,305.00 1176.14,305.00 1176.78,305.00 1177.42,305.00 1178.07,305.00 1178.72,305.00 1179.36,305.00 1180.00,305.00"/>
<polyline fill="none" stroke="#9467bd" stroke-opacity="0.80" stroke-width="2" points="70.00,305.00 70.64,305.00 71.29,305.00 71.93,305.00 72.58,305.00 73.22,305.00 73.86,305.00 74.51,305.00 75.20,305.00 75.84,305.00 76.48,305.00 77.12,305.00 77.78,305.00 78.42,305.00 79.05,305.00 80.21,305.00 81.21,305.00 81.86,305.00 82.52,305.00 83.16,305.00 83.80,305.00 84.43,305.00 85.08,305.00 85.72,305.00 86.37,305.00 87.02,305.00 87.67,305.00 88.32,305.00 88.96,305.00 89.64,305.00 90.29,305.00 90.93,305.00 91.59,305.00 92.23,305.00 92.87,305.00 93.54,305.00 94.17,305.00 94.82,305.00 95.47,305.00 96.11,305.00 96.75,305.00 97.39,305.00 98.03,305.00 98.67,305.00 99.31,305.00 99.97,305.00 100.62,305.00 101.25,305.00 101.90,305.00 102.54,305.00 103.19,305.00 103.92,305.00 104.57,305.00 105.21,305.00 105.85,305.00 106.48,305.00 107.12,305.00 107.76,305.00 108.41,305.00 109.05,305.00 109.70,305.00 110.34,305.00 110.98,305.00 111.63,305.00 112.28,305.00 112.92,305.00 113.56,305.00 114.20,305.00 114.84,305.00 115.48,305.00 116.11,305.00 116.76,305.00 117.40,305.00 118.04,305.00 118.68,305.00 119.33,305.00 119.96,305.00 120.61,305.00 121.25,305.00 121.88,305.00 122.54,305.00 123.19,305.00 123.83,305.00 124.47,305.00 125.11,305.00 125.76,305.00 126.40,305.00 127.04,305.00 127.67,305.00 128.32,305.00 128.97,305.00 129.61,305.00 130.26,305.00 130.89,305.00 131.54,305.00 132.18,305.00 132.82,305.00 133.45,305.00 134.10,305.00 134.74,305.00 135.38,305.00 136.03,305.00 136.67,305.00 137.31,305.00 137.96,305.00 138.61,305.00 139.25,305.00 139.89,305.00 140.53,305.00 141.17,305.00 141.82,305.00 142.46,305.00 143.11,305.00 143.75,305.00 144.39,305.00 145.04,305.00 145.69,305.00 146.34,305.00 146.98,305.00 147.62,305.00 148.26,305.00 148.91,305.00 149.55,305.00 150.19,305.00 150.89,305.00 151.53,305.00 152.18,305.00 152.82,305.00 153.46,305.00 154.10,305.00 154.73,305.00 155.37,305.00 156.01,305.00 156.66,305.00 157.30,305.00 157.94,305.00 158.58,305.00 159.22,305.00 159.87,305.00 160.51,305.00 161.15,305.00 161.79,305.00 162.43,305.00 163.07,305.00 163.72,305.00 164.36,305.00 165.01,305.00 165.65,305.00 166.29,305.00 166.93,305.00 167.57,305.00 168.21,305.00 168.85,305.00 169.50,305.00 170.15,305.00 170.79,305.00 171.43,305.00 172.08,305.00 172.72,305.00 173.36,305.00 174.01,305.00 174.65,305.00 175.30,305.00 175.95,305.00 176.59,305.00 177.24,305.00 177.88,305.00 178.51,305.00 179.15,305.00 179.80,305.00 180.44,305.00 181.07,305.00 181.71,305.00 182.36,305.00 183.00,305.00 183.65,305.00 184.29,305.00 184.95,305.00 185.59,305.00 186.23,305.00 186.87,305.00 187.51,305.00 188.21,305.00 188.86,305.00 189.50,305.00 190.14,305.00 190.77,305.00 191.42,305.00 192.06,305.00 192.71,305.00 193.35,305.00 193.99,305.00 194.63,305.00 195.27,305.00 195.93,305.00 196.57,305.00 197.21,305.00 197.85,305.00 198.50,305.00 199.16,305.00 199.81,305.00 200.45,305.00 201.09,305.00 201.74,305.00 202.38,305.00 203.02,305.00 203.66,305.00 204.32,305.00 204.96,305.00 205.59,305.00 206.24,305.00 206.89,305.00 207.53,305.00 208.17,305.00 208.82,305.00 209.46,305.00 210.10,305.00 210.74,305.00 211.38,305.00 212.02,305.00 212.67,305.00 213.30,305.00 213.95,305.00 214.58,305.00 215.22,305.00 215.87,305.00 216.51,305.00 217.16,305.00 217.81,305.00 218.45,305.00 219.10,305.00 219.74,305.00 220.39,305.00 221.03,305.00 221.67,305.00 222.31,305.00 222.97,305.00 223.61,305.00 224.26,305.00 224.90,305.00 225.54,305.00 226.19,305.00 226.82,305.00 227.46,305.00 228.11,305.00 228.75,305.00 229.40,305.00 230.04,305.00 230.69,305.00 231.33,305.00 231.97,305.00 232.62,305.00 233.27,305.00 233.91,305.00 234.55,305.00 235.20,305.00 235.85,305.00 236.49,305.00 237.13,305.00 237.77,305.00 238.49,305.00 239.14,305.00 239.78,305.00 240.42,305.00 241.07,305.00 241.72,305.00 242.36,305.00 243.01,305.00 243.64,305.00 244.31,305.00 244.96,305.00 245.59,305.00 246.24,305.00 246.88,305.00 247.52,305.00 248.17,305.00 248.83,305.00 249.48,305.00 250.12,305.00 250.77,305.00 251.46,305.00 252.11,305.00 252.91,305.00 254.00,305.00 254.66,305.00 255.32,305.00 255.96,305.00 256.59,305.00 257.23,305.00 257.88,305.00 258.52,305.00 259.17,305.00 259.84,305.00 260.51,305.00 261.19,305.00 261.83,305.00 262.48,305.00 263.12,305.00 263.77,305.00 264.42,305.00 265.07,305.00 265.71,305.00 266.35,305.00 267.02,305.00 267.67,305.00 268.30,305.00 268.95,305.00 269.60,305.00 270.27,305.00 270.92,305.00 271.56,305.00 272.22,305.00 272.84,305.00 273.48,305.00 274.13,305.00 274.77,305.00 275.42,305.00 276.09,305.00 276.73,305.00 277.37,305.00 278.03,305.00 278.67,305.00 279.32,305.00 279.96,305.00 280.60,305.00 281.24,305.00 281.89,305.00 282.53,305.00 283.29,305.00 284.05,305.00 284.81,305.00 285.56,305.00 286.29,305.00 287.03,305.00 287.80,305.00 288.54,305.00 289.19,305.00 289.82,305.00 290.47,305.00 291.11,305.00 291.75,305.00 292.39,305.00 293.03,305.00 293.67,305.00 294.31,305.00 294.95,305.00 295.59,305.00 296.23,305.00 296.87,305.00 297.51,305.00 298.15,305.00 298.79,305.00 299.43,305.00 300.07,305.00 300.72,305.00 301.36,305.00 302.00,305.00 302.64,305.00 303.27,305.00 303.92,305.00 304.56,305.00 305.20,305.00 305.84,305.00 306.49,305.00 307.13,305.00 307.77,305.00 308.41,305.00 309.05,305.00 309.69,305.00 310.33,305.00 310.96,305.00 311.60,305.00 312.24,305.00 312.88,305.00 313.51,305.00 314.15,305.00 314.79,305.00 315.43,305.00 316.07,305.00 316.70,305.00 317.34,305.00 318.00,305.00 318.69,305.00 319.34,305.00 319.98,305.00 320.62,305.00 321.26,305.00 321.89,305.00 322.53,305.00 323.17,305.00 323.93,305.00 324.68,305.00 325.43,305.00 326.18,305.00 326.94,305.00 327.69,305.00 328.45,305.00 329.23,305.00 329.93,305.00 330.62,305.00 331.27,305.00 331.92,305.00 332.56,305.00 333.19,305.00 333.83,305.00 334.48,305.00 335.12,305.00 335.76,305.00 336.40,305.00 337.04,305.00 337.68,305.00 338.32,305.00 338.97,305.00 339.61,305.00 340.25,305.00 340.81,305.00 341.48,305.00 342.12,305.00 342.77,305.00 343.42,305.00 344.06,305.00 344.70,305.00 345.35,305.00 346.00,305.00 346.64,305.00 347.29,305.00 347.95,305.00 348.58,305.00 349.22,305.00 349.86,305.00 350.50,305.00 351.14,305.00 351.77,305.00 352.42,305.00 353.06,305.00 353.71,305.00 354.35,305.00 354.98,305.00 355.63,305.00 356.27,305.00 356.92,305.00 357.57,305.00 358.21,305.00 358.85,305.00 359.50,305.00 360.14,305.00 360.80,305.00 361.44,305.00 362.08,305.00 362.72,305.00 363.35,305.00 363.99,305.00 364.64,305.00 365.28,305.00 365.92,305.00 366.56,305.00 367.20,305.00 367.84,305.00 368.49,305.00 369.13,305.00 369.77,305.00 370.55,305.00 371.21,305.00 371.87,305.00 372.52,305.00 373.16,305.00 373.81,305.00 374.45,305.00 375.08,305.00 375.73,305.00 376.38,305.00 377.02,305.00 377.67,305.00 378.31,305.00 378.95,305.00 379.62,305.00 380.27,305.00 380.91,305.00 381.56,305.00 382.20,305.00 382.84,305.00 383.48,305.00 384.12,305.00 384.79,305.00 385.44,305.00 386.09,305.00 386.73,305.00 387.37,305.00 388.02,305.00 388.66,305.00 389.30,305.00 389.94,305.00 390.59,305.00 391.24,305.00 391.88,305.00 392.52,305.00 393.16,305.00 393.80,305.00 394.46,305.00 395.10,305.00 395.74,305.00 396.38,305.00 397.02,305.00 397.68,305.00 398.32,305.00 399.09,305.00 399.76,305.00 400.40,305.00 401.04,305.00 401.68,305.00 402.33,305.00 402.97,305.00 403.62,305.00 404.27,305.00 404.91,305.00 405.55,305.00 406.19,305.00 406.83,305.00 407.48,305.00 408.12,305.00 408.76,305.00 409.40,305.00 410.04,305.00 410.68,305.00 411.33,305.00 411.98,305.00 412.62,305.00 413.26,305.00 413.91,305.00 414.56,305.00 415.20,305.00 415.84,305.00 416.48,305.00 417.14,305.00 417.78,305.00 418.43,305.00 419.07,305.00 419.72,305.00 420.36,305.00 421.00,305.00 421.65,305.00 422.31,305.00 422.95,305.00 423.59,305.00 424.22,305.00 424.87,305.00 425.51,305.00 426.15,305.00 426.79,305.00 427.44,305.00 428.09,305.00 428.74,305.00 429.37,305.00 430.02,305.00 430.66,305.00 431.30,305.00 431.94,305.00 432.59,305.00 433.23,305.00 433.88,305.00 434.52,305.00 435.16,305.00 435.81,305.00 436.46,305.00 437.11,305.00 437.75,305.00 438.40,305.00 439.12,305.00 439.83,305.00 440.52,305.00 441.17,305.00 441.84,305.00 442.48,305.00 443.13,305.00 443.77,305.00 444.37,305.00 445.04,305.00 445.68,305.00 446.33,305.00 446.97,305.00 447.61,305.00 448.25,305.00 448.90,305.00 449.54,305.00 450.18,305.00 450.83,305.00 451.47,305.00 452.12,305.00 452.76,305.00 453.41,305.00 454.06,305.00 454.71,305.00 455.35,305.00 456.00,305.00 456.65,305.00 457.30,305.00 457.94,305.00 458.58,305.00 459.22,305.00 459.86,305.00 460.51,305.00 461.15,305.00 461.79,305.00 462.45,305.00 463.08,305.00 463.73,305.00 464.37,305.00 465.02,305.00 465.66,305.00 466.31,305.00 466.95,305.00 467.60,305.00 468.24,305.00 468.89,305.00 469.54,305.00 470.19,305.00 470.83,305.00 471.47,305.00 472.12,305.00 472.76,305.00 473.42,305.00 474.08,305.00 474.72,305.00 475.37,305.00 476.01,305.00 476.66,305.00 477.30,305.00 477.95,305.00 478.59,305.00 479.24,305.00 479.88,305.00 480.53,305.00 481.18,305.00 481.82,305.00 482.47,305.00 483.12,305.00 483.76,305.00 484.41,305.00 485.06,305.00 485.71,305.00 486.36,305.00 487.00,305.00 487.64,305.00 488.29,305.00 488.95,305.00 489.60,305.00 490.25,305.00 490.89,305.00 491.53,305.00 492.18,305.00 492.82,305.00 493.47,305.00 494.11,305.00 494.76,305.00 495.40,305.00 496.04,305.00 496.69,305.00 497.34,305.00 497.99,305.00 498.63,305.00 499.28,305.00 499.93,305.00 500.57,305.00 501.22,305.00 501.86,305.00 502.50,305.00 503.14,305.00 503.79,305.00 504.43,305.00 505.08,305.00 505.73,305.00 506.38,305.00 507.02,305.00 507.67,305.00 508.32,305.00 508.96,305.00 509.61,305.00 510.26,305.00 510.91,305.00 511.55,305.00 512.20,305.00 512.85,305.00 513.50,305.00 514.14,305.00 514.80,305.00 515.45,305.00 516.10,305.00 516.75,305.00 517.39,305.00 518.04,305.00 518.69,305.00 519.34,305.00 519.99,305.00 520.63,305.00 521.27,305.00 521.91,305.00 522.58,305.00 523.22,305.00 523.87,305.00 524.51,305.00 525.16,305.00 525.80,305.00 526.44,305.00 527.08,305.00 527.73,305.00 528.37,305.00 529.02,305.00 529.66,305.00 530.31,305.00 530.95,305.00 531.62,305.00 532.27,305.00 532.91,305.00 533.55,305.00 534.19,305.00 534.84,305.00 535.48,305.00 536.14,305.00 536.78,305.00 537.42,305.00 538.07,305.00 538.72,305.00 539.36,305.00 540.01,305.00 540.66,305.00 541.33,305.00 541.98,305.00 542.63,305.00 543.28,305.00 543.92,305.00 544.57,305.00 545.21,305.00 545.85,305.00 546.49,305.00 547.15,305.00 547.79,305.00 548.44,305.00 549.09,305.00 549.74,305.00 550.42,305.00 551.06,305.00 551.70,305.00 552.35,305.00 553.00,305.00 553.65,305.00 554.30,305.00 554.95,305.00 555.60,305.00 556.25,305.00 556.89,305.00 557.54,305.00 558.19,305.00 558.84,305.00 559.48,305.00 560.13,305.00 560.77,305.00 561.43,305.00 562.08,305.00 562.72,305.00 563.37,305.00 564.02,305.00 564.67,305.00 565.31,305.00 565.96,305.00 566.61,305.00 567.28,305.00 567.93,305.00 568.58,305.00 569.22,305.00 569.89,305.00 570.55,305.00 571.21,305.00 571.86,305.00 572.53,305.00 573.18,305.00 573.82,305.00 574.47,305.00 575.12,305.00 575.77,305.00 576.42,305.00 577.08,305.00 577.72,305.00 578.37,305.00 579.02,305.00 579.66,305.00 580.31,305.00 580.96,305.00 581.60,305.00 582.24,305.00 582.89,305.00 583.53,305.00 584.18,305.00 584.81,305.00 585.46,305.00 586.11,305.00 586.76,305.00 587.40,305.00 588.05,305.00 588.70,305.00 589.35,305.00 590.00,305.00 590.64,305.00 591.29,305.00 591.93,305.00 592.57,305.00 593.22,305.00 593.87,305.00 594.51,305.00 595.15,305.00 595.80,305.00 596.44,305.00 597.09,305.00 597.73,305.00 598.38,305.00 599.03,305.00 599.67,305.00 600.31,305.00 600.96,305.00 601.61,305.00 602.24,305.00 602.88,305.00 603.52,305.00 604.16,305.00 604.81,305.00 605.47,305.00 606.11,305.00 606.76,305.00 607.40,305.00 608.06,305.00 608.71,305.00 609.35,305.00 610.01,305.00 610.65,305.00 611.29,305.00 611.95,305.00 612.59,305.00 613.25,305.00 613.90,305.00 614.54,305.00 615.18,305.00 615.83,305.00 616.47,305.00 617.12,305.00 617.76,305.00 618.40,305.00 619.04,305.00 619.69,305.00 620.34,305.00 620.98,305.00 621.63,305.00 622.27,305.00 622.92,305.00 623.57,305.00 624.22,305.00 624.86,305.00 625.51,305.00 626.15,305.00 626.80,305.00 627.44,305.00 628.09,305.00 628.74,305.00 629.38,305.00 630.03,305.00 630.68,305.00 631.33,305.00 631.97,305.00 632.61,305.00 633.25,305.00 633.92,305.00 634.57,305.00 635.23,305.00 635.88,305.00 636.53,305.00 637.18,305.00 637.82,305.00 638.47,305.00 639.12,305.00 639.76,305.00 640.41,305.00 641.07,305.00 641.72,305.00 642.37,305.00 643.02,305.00 643.66,305.00 644.31,305.00 644.96,305.00 645.60,305.00 646.24,305.00 646.89,305.00 647.53,305.00 648.18,305.00 648.82,305.00 649.47,305.00 650.11,305.00 650.75,305.00 651.40,305.00 652.04,305.00 652.69,305.00 653.35,305.00 653.99,305.00 654.63,305.00 655.28,305.00 655.92,305.00 656.56,305.00 657.22,305.00 657.86,305.00 658.51,305.00 659.16,305.00 659.80,305.00 660.44,305.00 661.09,305.00 661.74,305.00 662.38,305.00 663.03,305.00 663.70,305.00 664.35,305.00 665.01,305.00 665.67,305.00 666.33,305.00 666.99,305.00 667.65,305.00 668.32,305.00 668.98,305.00 669.64,305.00 670.29,305.00 670.93,305.00 671.58,305.00 672.23,305.00 672.88,305.00 673.53,305.00 674.17,305.00 674.82,305.00 675.47,305.00 676.12,305.00 676.76,305.00 677.40,305.00 678.05,305.00 678.69,305.00 679.34,305.00 679.99,305.00 680.63,305.00 681.28,305.00 681.93,305.00 682.58,305.00 683.23,305.00 683.87,305.00 684.52,305.00 685.16,305.00 685.81,305.00 686.46,305.00 687.10,305.00 687.75,305.00 688.40,305.00 689.04,305.00 689.69,305.00 690.34,305.00 690.98,305.00 691.63,305.00 692.32,305.00 692.99,305.00 693.63,305.00 694.28,305.00 694.92,305.00 695.57,305.00 696.23,305.00 696.88,305.00 697.53,305.00 698.17,305.00 698.80,305.00 699.45,305.00 700.09,305.00 700.74,305.00 701.39,305.00 702.03,305.00 702.68,305.00 703.33,305.00 703.98,305.00 704.62,305.00 705.27,305.00 705.91,305.00 706.56,305.00 707.21,305.00 707.85,305.00 708.50,305.00 709.15,305.00 709.80,305.00 710.44,305.00 711.12,305.00 711.77,305.00 712.41,305.00 713.05,305.00 713.70,305.00 714.35,305.00 715.00,305.00 715.65,305.00 716.29,305.00 716.94,305.00 717.59,305.00 718.24,305.00 718.90,305.00 719.55,305.00 720.19,305.00 720.83,305.00 721.48,305.00 722.13,305.00 722.78,305.00 723.42,305.00 724.07,305.00 724.72,305.00 725.36,305.00 726.01,305.00 726.65,305.00 727.30,305.00 727.95,305.00 728.59,305.00 729.24,305.00 729.88,305.00 730.53,305.00 731.17,305.00 731.82,305.00 732.47,305.00 733.12,305.00 733.76,305.00 734.41,305.00 735.05,305.00 735.69,305.00 736.34,305.00 736.98,305.00 737.63,305.00 738.28,305.00 738.94,305.00 739.59,305.00 740.24,305.00 740.89,305.00 741.53,305.00 742.19,305.00 742.88,305.00 743.54,305.00 744.19,305.00 744.85,305.00 745.50,305.00 746.14,305.00 746.79,305.00 747.44,305.00 748.08,305.00 748.73,305.00 749.38,305.00 750.03,305.00 750.67,305.00 751.34,305.00 751.98,305.00 752.63,305.00 753.28,305.00 753.92,305.00 754.57,305.00 755.22,305.00 755.87,305.00 756.51,305.00 757.17,305.00 757.81,305.00 758.46,305.00 759.11,305.00 759.76,305.00 760.41,305.00 761.06,305.00 761.71,305.00 762.36,305.00 763.00,305.00 763.65,305.00 764.31,305.00 764.94,305.00 765.59,305.00 766.24,305.00 766.88,305.00 767.53,305.00 768.18,305.00 768.82,305.00 769.47,305.00 770.12,305.00 770.77,305.00 771.41,305.00 772.06,305.00 772.71,305.00 773.36,305.00 774.01,305.00 774.64,305.00 775.28,305.00 775.92,305.00 776.57,305.00 777.22,305.00 777.86,305.00 778.52,305.00 779.16,305.00 779.82,305.00 780.47,305.00 781.11,305.00 781.76,305.00 782.40,305.00 783.05,305.00 783.69,305.00 784.33,305.00 784.98,305.00 785.63,305.00 786.27,305.00 786.91,305.00 787.55,305.00 788.20,305.00 788.85,305.00 789.50,305.00 790.14,305.00 790.78,305.00 791.41,305.00 792.07,305.00 792.71,305.00 793.36,305.00 794.01,305.00 794.67,305.00 795.31,305.00 795.95,305.00 796.60,305.00 797.25,305.00 797.90,305.00 798.54,305.00 799.24,305.00 799.88,305.00 800.54,305.00 801.18,305.00 801.84,305.00 802.48,305.00 803.12,305.00 803.78,305.00 804.42,305.00 805.06,305.00 805.71,305.00 806.35,305.00 807.00,305.00 807.66,305.00 808.30,305.00 808.95,305.00 809.59,305.00 810.24,305.00 810.89,305.00 811.54,305.00 812.19,305.00 812.84,305.00 813.50,305.00 814.15,305.00 814.80,305.00 815.45,305.00 816.10,305.00 816.75,305.00 817.40,305.00 818.04,305.00 818.69,305.00 819.33,305.00 819.98,305.00 820.63,305.00 821.28,305.00 821.92,305.00 822.57,305.00 823.22,305.00 823.86,305.00 824.50,305.00 825.15,305.00 825.80,305.00 826.44,305.00 827.09,305.00 827.73,305.00 828.37,305.00 829.01,305.00 829.66,305.00 830.30,305.00 830.94,305.00 831.59,305.00 832.23,305.00 832.88,305.00 833.52,305.00 834.16,305.00 834.80,305.00 835.46,305.00 836.10,305.00 836.74,305.00 837.38,305.00 838.02,305.00 838.68,305.00 839.32,305.00 839.96,305.00 840.61,305.00 841.29,305.00 841.93,305.00 842.58,305.00 843.23,305.00 843.88,305.00 844.53,305.00 845.18,305.00 845.82,305.00 846.47,305.00 847.12,305.00 847.75,305.00 848.40,305.00 849.05,305.00 849.69,305.00 850.34,305.00 850.98,305.00 851.62,305.00 852.27,305.00 852.91,305.00 853.56,305.00 854.22,305.00 854.89,305.00 855.53,305.00 856.18,305.00 856.81,305.00 857.45,305.00 858.11,305.00 858.75,305.00 859.40,305.00 860.05,305.00 860.69,305.00 861.34,305.00 861.99,305.00 862.64,305.00 863.29,305.00 863.93,305.00 864.58,305.00 865.23,305.00 865.87,305.00 866.51,305.00 867.15,305.00 867.80,305.00 868.44,305.00 869.09,305.00 869.73,305.00 870.38,305.00 871.02,305.00 871.67,305.00 872.31,305.00 872.96,305.00 873.61,305.00 874.25,305.00 874.90,305.00 875.54,305.00 876.19,305.00 876.83,305.00 877.48,305.00 878.13,305.00 878.77,305.00 879.41,305.00 880.06,305.00 880.71,305.00 881.34,305.00 882.01,305.00 882.65,305.00 883.30,305.00 883.94,305.00 884.59,305.00 885.24,305.00 885.90,305.00 886.55,305.00 887.24,305.00 887.88,305.00 888.58,305.00 889.22,305.00 889.86,305.00 890.50,305.00 891.15,305.00 891.80,305.00 892.44,305.00 893.09,305.00 893.74,305.00 894.38,305.00 895.03,305.00 895.67,305.00 896.31,305.00 896.96,305.00 897.61,305.00 898.25,305.00 898.89,305.00 899.53,305.00 900.18,305.00 900.83,305.00 901.48,305.00 902.12,305.00 902.76,305.00 903.41,305.00 904.05,305.00 904.71,305.00 905.35,305.00 906.00,305.00 906.65,305.00 907.29,305.00 907.93,305.00 908.57,305.00 909.22,305.00 909.86,305.00 910.51,305.00 911.15,305.00 911.78,305.00 912.43,305.00 913.08,305.00 913.72,305.00 914.37,305.00 915.02,305.00 915.69,305.00 916.34,305.00 916.98,305.00 917.62,305.00 918.26,305.00 918.90,305.00 919.54,305.00 920.19,305.00 920.83,305.00 921.48,305.00 922.12,305.00 922.76,305.00 923.40,305.00 924.04,305.00 924.69,305.00 925.33,305.00 925.98,305.00 926.63,305.00 927.27,305.00 927.91,305.00 928.56,305.00 929.21,305.00 929.85,305.00 930.50,305.00 931.14,305.00 931.79,305.00 932.44,305.00 933.08,305.00 933.74,305.00 934.38,305.00 935.02,305.00 935.67,305.00 936.32,305.00 936.96,305.00 937.63,305.00 938.27,305.00 938.92,305.00 939.57,305.00 940.22,305.00 940.86,305.00 941.50,305.00 942.15,305.00 942.80,305.00 943.45,305.00 944.09,305.00 944.74,305.00 945.39,305.00 946.03,305.00 946.68,305.00 947.34,305.00 948.00,305.00 948.69,305.00 949.34,305.00 949.99,305.00 950.63,305.00 951.27,305.00 951.92,305.00 952.56,305.00 953.21,305.00 953.86,305.00 954.51,305.00 955.16,305.00 955.80,305.00 956.44,305.00 957.08,305.00 957.73,305.00 958.38,305.00 959.04,305.00 959.70,305.00 960.35,305.00 961.01,305.00 961.68,305.00 962.33,305.00 963.02,305.00 963.66,305.00 964.31,305.00 964.96,305.00 965.61,305.00 966.25,305.00 966.90,305.00 967.54,305.00 968.19,305.00 968.83,305.00 969.48,305.00 970.14,305.00 970.78,305.00 971.43,305.00 972.09,305.00 972.84,305.00 973.49,305.00 974.13,305.00 974.77,305.00 975.41,305.00 976.05,305.00 976.69,305.00 977.29,305.00 977.87,305.00 979.76,305.00 980.98,305.00 981.62,305.00 982.27,305.00 982.92,305.00 983.56,305.00 984.20,305.00 984.85,305.00 985.49,305.00 986.13,305.00 986.78,305.00 987.42,305.00 988.06,305.00 988.71,305.00 989.36,305.00 989.99,305.00 990.64,305.00 991.28,305.00 991.92,305.00 992.55,305.00 993.20,305.00 993.84,305.00 994.48,305.00 995.13,305.00 995.78,305.00 996.42,305.00 997.06,305.00 997.71,305.00 998.34,305.00 998.99,305.00 999.63,305.00 1000.27,305.00 1000.91,305.00 1001.55,305.00 1002.19,305.00 1002.84,305.00 1003.48,305.00 1004.12,305.00 1004.77,305.00 1005.41,305.00 1006.06,305.00 1006.70,305.00 1007.34,305.00 1007.99,305.00 1008.63,305.00 1009.27,305.00 1009.90,305.00 1010.55,305.00 1011.19,305.00 1011.83,305.00 1012.47,305.00 1013.11,305.00 1013.76,305.00 1014.41,305.00 1015.06,305.00 1015.70,305.00 1016.34,305.00 1016.99,305.00 1017.64,305.00 1018.28,305.00 1018.93,305.00 1019.57,305.00 1020.21,305.00 1020.85,305.00 1021.49,305.00 1022.14,305.00 1022.78,305.00 1023.42,305.00 1024.07,305.00 1024.71,305.00 1025.35,305.00 1026.00,305.00 1026.64,305.00 1027.29,305.00 1027.93,305.00 1028.57,305.00 1029.22,305.00 1029.87,305.00 1030.51,305.00 1031.21,305.00 1031.86,305.00 1032.50,305.00 1033.14,305.00 1033.78,305.00 1034.43,305.00 1035.06,305.00 1035.72,305.00 1036.62,305.00 1037.26,305.00 1038.16,305.00 1038.80,305.00 1039.45,305.00 1040.09,305.00 1040.74,305.00 1041.38,305.00 1042.02,305.00 1042.66,305.00 1043.30,305.00 1043.94,305.00 1044.58,305.00 1045.22,305.00 1045.86,305.00 1046.52,305.00 1047.17,305.00 1047.81,305.00 1048.45,305.00 1049.10,305.00 1049.74,305.00 1050.40,305.00 1051.04,305.00 1051.68,305.00 1052.32,305.00 1052.97,305.00 1053.61,305.00 1054.25,305.00 1054.91,305.00 1055.55,305.00 1056.19,305.00 1056.84,305.00 1057.49,305.00 1058.15,305.00 1058.81,305.00 1059.46,305.00 1060.13,305.00 1060.77,305.00 1061.42,305.00 1062.07,305.00 1062.71,305.00 1063.36,305.00 1064.00,305.00 1064.64,305.00 1065.28,305.00 1065.94,305.00 1066.59,305.00 1067.24,305.00 1067.89,305.00 1068.53,305.00 1069.18,305.00 1069.83,305.00 1070.47,305.00 1071.12,305.00 1071.77,305.00 1072.42,305.00 1073.06,305.00 1073.71,305.00 1074.37,305.00 1075.01,305.00 1075.66,305.00 1076.30,305.00 1076.95,305.00 1077.59,305.00 1078.25,305.00 1078.91,305.00 1079.55,305.00 1080.20,305.00 1080.84,305.00 1081.49,305.00 1082.13,305.00 1082.78,305.00 1083.42,305.00 1084.07,305.00 1084.71,305.00 1085.36,305.00 1085.99,305.00 1086.64,305.00 1087.31,305.00 1087.96,305.00 1088.61,305.00 1089.25,305.00 1089.89,305.00 1090.54,305.00 1091.19,305.00 1091.83,305.00 1092.47,305.00 1093.12,305.00 1093.77,305.00 1094.41,305.00 1095.06,305.00 1095.71,305.00 1096.36,305.00 1097.00,305.00 1097.64,305.00 1098.29,305.00 1098.94,305.00 1099.59,305.00 1100.24,305.00 1100.88,305.00 1101.53,305.00 1102.19,305.00 1102.83,305.00 1103.47,305.00 1104.13,305.00 1104.77,305.00 1105.43,305.00 1106.08,305.00 1106.72,305.00 1107.37,305.00 1108.01,305.00 1108.65,305.00 1109.31,305.00 1109.96,305.00 1110.61,305.00 1111.27,305.00 1111.92,305.00 1112.57,305.00 1113.22,305.00 1113.86,305.00 1114.51,305.00 1115.16,305.00 1115.80,305.00 1116.46,305.00 1117.10,305.00 1117.74,305.00 1118.40,305.00 1119.04,305.00 1119.69,305.00 1120.34,305.00 1120.98,305.00 1121.64,305.00 1122.29,305.00 1122.95,305.00 1123.59,305.00 1124.25,305.00 1124.89,305.00 1125.54,305.00 1126.18,305.00 1126.83,305.00 1127.50,305.00 1128.15,305.00 1128.79,305.00 1129.44,305.00 1130.09,305.00 1130.73,305.00 1131.40,305.00 1132.05,305.00 1132.71,305.00 1133.36,305.00 1134.01,305.00 1134.66,305.00 1135.35,305.00 1135.99,305.00 1136.65,305.00 1137.29,305.00 1137.94,305.00 1138.58,305.00 1139.23,305.00 1139.88,305.00 1140.53,305.00 1141.18,305.00 1141.84,305.00 1142.49,305.00 1143.14,305.00 1143.78,305.00 1144.43,305.00 1145.08,305.00 1145.74,305.00 1146.39,305.00 1147.03,305.00 1147.68,305.00 1148.33,305.00 1148.97,305.00 1149.64,305.00 1150.28,305.00 1150.92,305.00 1151.56,305.00 1152.20,305.00 1152.85,305.00 1153.50,305.00 1154.14,305.00 1154.81,305.00 1155.45,305.00 1156.09,305.00 1156.74,305.00 1157.38,305.00 1158.02,305.00 1158.67,305.00 1159.32,305.00 1159.97,305.00 1160.62,305.00 1161.26,305.00 1161.90,305.00 1162.55,305.00 1163.19,305.00 1163.86,305.00 1164.51,305.00 1165.16,305.00 1165.80,305.00 1166.45,305.00 1167.09,305.00 1167.73,305.00 1168.37,305.00 1169.02,305.00 1169.70,305.00 1170.35,305.00 1171.00,305.00 1171.64,305.00 1172.28,305.00 1172.92,305.00 1173.56,305.00 1174.20,305.00 1174.86,305.00 1175.50,305.00 1176.14,305.00 1176.78,305.00 1177.42,305.00 1178.07,305.00 1178.72,305.00 1179.36,305.00 1180.00,305.00"/>
<polyline fill="none" stroke="#9467bd" stroke-opacity="0.65" stroke-width="2" points="340.81,305.00 341.48,305.00 342.12,305.00 342.77,305.00 343.42,305.00 344.06,305.00 344.70,305.00 345.35,305.00 346.00,305.00 346.64,305.00 347.29,305.00 347.95,305.00 348.58,305.00 349.22,305.00 349.86,305.00 350.50,305.00 351.14,305.00 351.77,305.00 352.42,305.00 353.06,305.00 353.71,305.00 354.35,305.00 354.98,305.00 355.63,305.00 356.27,305.00 356.92,305.00 357.57,305.00 358.21,305.00 358.85,305.00 359.50,305.00 360.14,305.00 360.80,305.00 361.44,305.00 362.08,305.00 362.72,305.00 363.35,305.00 363.99,305.00 364.64,305.00 365.28,305.00 365.92,305.00 366.56,305.00 367.20,305.00 367.84,305.00 368.49,305.00 369.13,305.00 369.77,305.00 370.55,305.00 371.21,305.00 371.87,305.00 372.52,305.00 373.16,305.00 373.81,305.00 374.45,305.00 375.08,305.00 375.73,305.00 376.38,305.00 377.02,305.00 377.67,305.00 378.31,305.00 378.95,305.00 379.62,305.00 380.27,305.00 380.91,305.00 381.56,305.00 382.20,305.00 382.84,305.00 383.48,305.00 384.12,305.00 384.79,305.00 385.44,305.00 386.09,305.00 386.73,305.00 387.37,305.00 388.02,305.00 388.66,305.00 389.30,305.00 389.94,305.00 390.59,305.00 391.24,305.00 391.88,305.00 392.52,305.00 393.16,305.00 393.80,305.00 394.46,305.00 395.10,305.00 395.74,305.00 396.38,305.00 397.02,305.00 397.68,305.00 398.32,305.00 399.09,305.00 399.76,305.00 400.40,305.00 401.04,305.00 401.68,305.00 402.33,305.00 402.97,305.00 403.62,305.00 404.27,305.00 404.91,305.00 405.55,305.00 406.19,305.00 406.83,305.00 407.48,305.00 408.12,305.00 408.76,305.00 409.40,305.00 410.04,305.00 410.68,305.00 411.33,305.00 411.98,305.00 412.62,305.00 413.26,305.00 413.91,305.00 414.56,305.00 415.20,305.00 415.84,305.00 416.48,305.00 417.14,305.00 417.78,305.00 418.43,305.00 419.07,305.00 419.72,305.00 420.36,305.00 421.00,305.00 421.65,305.00 422.31,305.00 422.95,305.00 423.59,305.00 424.22,305.00 424.87,305.00 425.51,305.00 426.15,305.00 426.79,305.00 427.44,305.00 428.09,305.00 428.74,305.00 429.37,305.00 430.02,305.00 430.66,305.00 431.30,305.00 431.94,305.00 432.59,305.00 433.23,305.00 433.88,305.00 434.52,305.00 435.16,305.00 435.81,305.00 436.46,305.00 437.11,305.00 437.75,305.00 438.40,305.00 439.12,305.00 439.83,305.00 440.52,305.00 441.17,305.00 441.84,305.00 442.48,305.00 443.13,305.00 443.77,305.00 444.37,305.00 445.04,305.00 445.68,305.00 446.33,305.00 446.97,305.00 447.61,305.00 448.25,305.00 448.90,305.00 449.54,305.00 450.18,305.00 450.83,305.00 451.47,305.00 452.12,305.00 452.76,305.00 453.41,305.00 454.06,305.00 454.71,305.00 455.35,305.00 456.00,305.00 456.65,305.00 457.30,305.00 457.94,305.00 458.58,305.00 459.22,305.00 459.86,305.00 460.51,305.00 461.15,305.00 461.79,305.00 462.45,305.00 463.08,305.00 463.73,305.00 464.37,305.00 465.02,305.00 465.66,305.00 466.31,305.00 466.95,305.00 467.60,305.00 468.24,305.00 468.89,305.00 469.54,305.00 470.19,305.00 470.83,305.00 471.47,305.00 472.12,305.00 472.76,305.00 473.42,305.00 474.08,305.00 474.72,305.00 475.37,305.00 476.01,305.00 476.66,305.00 477.30,305.00 477.95,305.00 478.59,305.00 479.24,305.00 479.88,305.00 480.53,305.00 481.18,305.00 481.82,305.00 482.47,305.00 483.12,305.00 483.76,305.00 484.41,305.00 485.06,305.00 485.71,305.00 486.36,305.00 487.00,305.00 487.64,305.00 488.29,305.00 488.95,305.00 489.60,305.00 490.25,305.00 490.89,305.00 491.53,305.00 492.18,305.00 492.82,305.00 493.47,305.00 494.11,305.00 494.76,305.00 495.40,305.00 496.04,305.00 496.69,305.00 497.34,305.00 497.99,305.00 498.63,305.00 499.28,305.00 499.93,305.00 500.57,305.00 501.22,305.00 501.86,305.00 502.50,305.00 503.14,305.00 503.79,305.00 504.43,305.00 505.08,305.00 505.73,305.00 506.38,305.00 507.02,305.00 507.67,305.00 508.32,305.00 508.96,305.00 509.61,305.00 510.26,305.00 510.91,305.00 511.55,305.00 512.20,305.00 512.85,305.00 513.50,305.00 514.14,305.00 514.80,305.00 515.45,305.00 516.10,305.00 516.75,305.00 517.39,305.00 518.04,305.00 518.69,305.00 519.34,305.00 519.99,305.00 520.63,305.00 521.27,305.00 521.91,305.00 522.58,305.00 523.22,305.00 523.87,305.00 524.51,305.00 525.16,305.00 525.80,305.00 526.44,305.00 527.08,305.00 527.73,305.00 528.37,305.00 529.02,305.00 529.66,305.00 530.31,305.00 530.95,305.00 531.62,305.00 532.27,305.00 532.91,305.00 533.55,305.00 534.19,305.00 534.84,305.00 535.48,305.00 536.14,305.00 536.78,305.00 537.42,305.00 538.07,305.00 538.72,305.00 539.36,305.00 540.01,305.00 540.66,305.00 541.33,305.00 541.98,305.00 542.63,305.00 543.28,305.00 543.92,305.00 544.57,305.00 545.21,305.00 545.85,305.00 546.49,305.00 547.15,305.00 547.79,305.00 548.44,305.00 549.09,305.00 549.74,305.00 550.42,305.00 551.06,305.00 551.70,305.00 552.35,305.00 553.00,305.00 553.65,305.00 554.30,305.00 554.95,305.00 555.60,305.00 556.25,305.00 556.89,305.00 557.54,305.00 558.19,305.00 558.84,305.00 559.48,305.00 560.13,305.00 560.77,305.00 561.43,305.00 562.08,305.00 562.72,305.00 563.37,305.00 564.02,305.00 564.67,305.00 565.31,305.00 565.96,305.00 566.61,305.00 567.28,305.00 567.93,305.00 568.58,305.00 569.22,305.00 569.89,305.00 570.55,305.00 571.21,305.00 571.86,305.00 572.53,305.00 573.18,305.00 573.82,305.00 574.47,305.00 575.12,305.00 575.77,305.00 576.42,305.00 577.08,305.00 577.72,305.00 578.37,305.00 579.02,305.00 579.66,305.00 580.31,305.00 580.96,305.00 581.60,305.00 582.24,305.00 582.89,305.00 583.53,305.00 584.18,305.00 584.81,305.00 585.46,305.00 586.11,305.00 586.76,305.00 587.40,305.00 588.05,305.00 588.70,305.00 589.35,305.00 590.00,305.00 590.64,305.00 591.29,305.00 591.93,305.00 592.57,305.00 593.22,305.00 593.87,305.00 594.51,305.00 595.15,305.00 595.80,305.00 596.44,305.00 597.09,305.00 597.73,305.00 598.38,305.00 599.03,305.00 599.67,305.00 600.31,305.00 600.96,305.00 601.61,305.00 602.24,305.00 602.88,305.00 603.52,305.00 604.16,305.00 604.81,305.00 605.47,305.00 606.11,305.00 606.76,305.00 607.40,305.00 608.06,305.00 608.71,305.00 609.35,305.00 610.01,305.00 610.65,305.00 611.29,305.00 611.95,305.00 612.59,305.00 613.25,305.00 613.90,305.00 614.54,305.00 615.18,305.00 615.83,305.00 616.47,305.00 617.12,305.00 617.76,305.00 618.40,305.00 619.04,305.00 619.69,305.00 620.34,305.00 620.98,305.00 621.63,305.00 622.27,305.00 622.92,305.00 623.57,305.00 624.22,305.00 624.86,305.00 625.51,305.00 626.15,305.00 626.80,305.00 627.44,305.00 628.09,305.00 628.74,305.00 629.38,305.00 630.03,305.00 630.68,305.00 631.33,305.00 631.97,305.00 632.61,305.00 633.25,305.00 633.92,305.00 634.57,305.00 635.23,305.00 635.88,305.00 636.53,305.00 637.18,305.00 637.82,305.00 638.47,305.00 639.12,305.00 639.76,305.00 640.41,305.00 641.07,305.00 641.72,305.00 642.37,305.00 643.02,305.00 643.66,305.00 644.31,305.00 644.96,305.00 645.60,305.00 646.24,305.00 646.89,305.00 647.53,305.00 648.18,305.00 648.82,305.00 649.47,305.00 650.11,305.00 650.75,305.00 651.40,305.00 652.04,305.00 652.69,305.00 653.35,305.00 653.99,305.00 654.63,305.00 655.28,305.00 655.92,305.00 656.56,305.00 657.22,305.00 657.86,305.00 658.51,305.00 659.16,305.00 659.80,305.00 660.44,305.00 661.09,305.00 661.74,305.00 662.38,305.00 663.03,305.00 663.70,305.00 664.35,305.00 665.01,305.00 665.67,305.00 666.33,305.00 666.99,305.00 667.65,305.00 668.32,305.00 668.98,305.00 669.64,305.00 670.29,305.00 670.93,305.00 671.58,305.00 672.23,305.00 672.88,305.00 673.53,305.00 674.17,305.00 674.82,305.00 675.47,305.00 676.12,305.00 676.76,305.00 677.40,305.00 678.05,305.00 678.69,305.00 679.34,305.00 679.99,305.00 680.63,305.00 681.28,305.00 681.93,305.00 682.58,305.00 683.23,305.00 683.87,305.00 684.52,305.00 685.16,305.00 685.81,305.00 686.46,305.00 687.10,305.00 687.75,305.00 688.40,305.00 689.04,305.00 689.69,305.00 690.34,305.00 690.98,305.00 691.63,305.00 692.32,305.00 692.99,305.00 693.63,305.00 694.28,305.00 694.92,305.00 695.57,305.00 696.23,305.00 696.88,305.00 697.53,305.00 698.17,305.00 698.80,305.00 699.45,305.00 700.09,305.00 700.74,305.00 701.39,305.00 702.03,305.00 702.68,305.00 703.33,305.00 703.98,305.00 704.62,305.00 705.27,305.00 705.91,305.00 706.56,305.00 707.21,305.00 707.85,305.00 708.50,305.00 709.15,305.00 709.80,305.00 710.44,305.00 711.12,305.00 711.77,305.00 712.41,305.00 713.05,305.00 713.70,305.00 714.35,305.00 715.00,305.00 715.65,305.00 716.29,305.00 716.94,305.00 717.59,305.00 718.24,305.00 718.90,305.00 719.55,305.00 720.19,305.00 720.83,305.00 721.48,305.00 722.13,305.00 722.78,305.00 723.42,305.00 724.07,305.00 724.72,305.00 725.36,305.00 726.01,305.00 726.65,305.00 727.30,305.00 727.95,305.00 728.59,305.00 729.24,305.00 729.88,305.00 730.53,305.00 731.17,305.00 731.82,305.00 732.47,305.00 733.12,305.00 733.76,305.00 734.41,305.00 735.05,305.00 735.69,305.00 736.34,305.00 736.98,305.00 737.63,305.00 738.28,305.00 738.94,305.00 739.59,305.00 740.24,305.00 740.89,305.00 741.53,305.00 742.19,305.00 742.88,305.00 743.54,305.00 744.19,305.00 744.85,305.00 745.50,305.00 746.14,305.00 746.79,305.00 747.44,305.00 748.08,305.00 748.73,305.00 749.38,305.00 750.03,305.00 750.67,305.00 751.34,305.00 751.98,305.00 752.63,305.00 753.28,305.00 753.92,305.00 754.57,305.00 755.22,305.00 755.87,305.00 756.51,305.00 757.17,305.00 757.81,305.00 758.46,305.00 759.11,305.00 759.76,305.00 760.41,305.00 761.06,305.00 761.71,305.00 762.36,305.00 763.00,305.00 763.65,305.00 764.31,305.00 764.94,305.00 765.59,305.00 766.24,305.00 766.88,305.00 767.53,305.00 768.18,305.00 768.82,305.00 769.47,305.00 770.12,305.00 770.77,305.00 771.41,305.00 772.06,305.00 772.71,305.00 773.36,305.00 774.01,305.00 774.64,305.00 775.28,305.00 775.92,305.00 776.57,305.00 777.22,305.00 777.86,305.00 778.52,305.00 779.16,305.00 779.82,305.00 780.47,305.00 781.11,305.00 781.76,305.00 782.40,305.00 783.05,305.00 783.69,305.00 784.33,305.00 784.98,305.00 785.63,305.00 786.27,305.00 786.91,305.00 787.55,305.00 788.20,305.00 788.85,305.00 789.50,305.00 790.14,305.00 790.78,305.00 791.41,305.00 792.07,305.00 792.71,305.00 793.36,305.00 794.01,305.00 794.67,305.00 795.31,305.00 795.95,305.00 796.60,305.00 797.25,305.00 797.90,305.00 798.54,305.00 799.24,305.00 799.88,305.00 800.54,305.00 801.18,305.00 801.84,305.00 802.48,305.00 803.12,305.00 803.78,305.00 804.42,305.00 805.06,305.00 805.71,305.00 806.35,305.00 807.00,305.00 807.66,305.00 808.30,305.00 808.95,305.00 809.59,305.00 810.24,305.00 810.89,305.00 811.54,305.00 812.19,305.00 812.84,305.00 813.50,305.00 814.15,305.00 814.80,305.00 815.45,305.00 816.10,305.00 816.75,305.00 817.40,305.00 818.04,305.00 818.69,305.00 819.33,305.00 819.98,305.00 820.63,305.00 821.28,305.00 821.92,305.00 822.57,305.00 823.22,305.00 823.86,305.00 824.50,305.00 825.15,305.00 825.80,305.00 826.44,305.00 827.09,305.00 827.73,305.00 828.37,305.00 829.01,305.00 829.66,305.00 830.30,305.00 830.94,305.00 831.59,305.00 832.23,305.00 832.88,305.00 833.52,305.00 834.16,305.00 834.80,305.00 835.46,305.00 836.10,305.00 836.74,305.00 837.38,305.00 838.02,305.00 838.68,305.00 839.32,305.00 839.96,305.00 840.61,305.00 841.29,305.00 841.93,305.00 842.58,305.00 843.23,305.00 843.88,305.00 844.53,305.00 845.18,305.00 845.82,305.00 846.47,305.00 847.12,305.00 847.75,305.00 848.40,305.00 849.05,305.00 849.69,305.00 850.34,305.00 850.98,305.00 851.62,305.00 852.27,305.00 852.91,305.00 853.56,305.00 854.22,305.00 854.89,305.00 855.53,305.00 856.18,305.00 856.81,305.00 857.45,305.00 858.11,305.00 858.75,305.00 859.40,305.00 860.05,305.00 860.69,305.00 861.34,305.00 861.99,305.00 862.64,305.00 863.29,305.00 863.93,305.00 864.58,305.00 865.23,305.00 865.87,305.00 866.51,305.00 867.15,305.00 867.80,305.00 868.44,305.00 869.09,305.00 869.73,305.00 870.38,305.00 871.02,305.00 871.67,305.00 872.31,305.00 872.96,305.00 873.61,305.00 874.25,305.00 874.90,305.00 875.54,305.00 876.19,305.00 876.83,305.00 877.48,305.00 878.13,305.00 878.77,305.00 879.41,305.00 880.06,305.00 880.71,305.00 881.34,305.00 882.01,305.00 882.65,305.00 883.30,305.00 883.94,305.00 884.59,305.00 885.24,305.00 885.90,305.00 886.55,305.00 887.24,305.00 887.88,305.00 888.58,305.00 889.22,305.00 889.86,305.00 890.50,305.00 891.15,305.00 891.80,305.00 892.44,305.00 893.09,305.00 893.74,305.00 894.38,305.00 895.03,305.00 895.67,305.00 896.31,305.00 896.96,305.00 897.61,305.00 898.25,305.00 898.89,305.00 899.53,305.00 900.18,305.00 900.83,305.00 901.48,305.00 902.12,305.00 902.76,305.00 903.41,305.00 904.05,305.00 904.71,305.00 905.35,305.00 906.00,305.00 906.65,305.00 907.29,305.00 907.93,305.00 908.57,305.00 909.22,305.00 909.86,305.00 910.51,305.00 911.15,305.00 911.78,305.00 912.43,305.00 913.08,305.00 913.72,305.00 914.37,305.00 915.02,305.00 915.69,305.00 916.34,305.00 916.98,305.00 917.62,305.00 918.26,305.00 918.90,305.00 919.54,305.00 920.19,305.00 920.83,305.00 921.48,305.00 922.12,305.00 922.76,305.00 923.40,305.00 924.04,305.00 924.69,305.00 925.33,305.00 925.98,305.00 926.63,305.00 927.27,305.00 927.91,305.00 928.56,305.00 929.21,305.00 929.85,305.00 930.50,305.00 931.14,305.00 931.79,305.00 932.44,305.00 933.08,305.00 933.74,305.00 934.38,305.00 935.02,305.00 935.67,305.00 936.32,305.00 936.96,305.00 937.63,305.00 938.27,305.00 938.92,305.00 939.57,305.00 940.22,305.00 940.86,305.00 941.50,305.00 942.15,305.00 942.80,305.00 943.45,305.00 944.09,305.00 944.74,305.00 945.39,305.00 946.03,305.00 946.68,305.00 947.34,305.00 948.00,305.00 948.69,305.00 949.34,305.00 949.99,305.00 950.63,305.00 951.27,305.00 951.92,305.00 952.56,305.00 953.21,305.00 953.86,305.00 954.51,305.00 955.16,305.00 955.80,305.00 956.44,305.00 957.08,305.00 957.73,305.00 958.38,305.00 959.04,305.00 959.70,305.00 960.35,305.00 961.01,305.00 961.68,305.00 962.33,305.00 963.02,305.00 963.66,305.00 964.31,305.00 964.96,305.00 965.61,305.00 966.25,305.00 966.90,305.00 967.54,305.00 968.19,305.00 968.83,305.00 969.48,305.00 970.14,305.00 970.78,305.00 971.43,305.00 972.09,305.00 972.84,305.00 973.49,305.00 974.13,305.00 974.77,305.00 975.41,305.00 976.05,305.00 977.87,305.00 978.57,305.00 979.17,305.00 979.76,305.00 980.98,305.00 981.62,305.00 982.27,305.00 982.92,305.00 983.56,305.00 984.20,305.00 984.85,305.00 985.49,305.00 986.13,305.00 986.78,305.00 987.42,305.00 988.06,305.00 988.71,305.00 989.36,305.00 989.99,305.00 990.64,305.00 991.28,305.00 991.92,305.00 992.55,305.00 993.20,305.00 993.84,305.00 994.48,305.00 995.13,305.00 995.78,305.00 996.42,305.00 997.06,305.00 997.71,305.00 998.34,305.00 998.99,305.00 999.63,305.00 1000.27,305.00 1000.91,305.00 1001.55,305.00 1002.19,305.00 1002.84,305.00 1003.48,305.00 1004.12,305.00 1004.77,305.00 1005.41,305.00 1006.06,305.00 1006.70,305.00 1007.34,305.00 1007.99,305.00 1008.63,305.00 1009.27,305.00 1009.90,305.00 1010.55,305.00 1011.19,305.00 1011.83,305.00 1012.47,305.00 1013.11,305.00 1013.76,305.00 1014.41,305.00 1015.06,305.00 1015.70,305.00 1016.34,305.00 1016.99,305.00 1017.64,305.00 1018.28,305.00 1018.93,305.00 1019.57,305.00 1020.21,305.00 1020.85,305.00 1021.49,305.00 1022.14,305.00 1022.78,305.00 1023.42,305.00 1024.07,305.00 1024.71,305.00 1025.35,305.00 1026.00,305.00 1026.64,305.00 1027.29,305.00 1027.93,305.00 1028.57,305.00 1029.22,305.00 1029.87,305.00 1030.51,305.00 1031.21,305.00 1031.86,305.00 1032.50,305.00 1033.14,305.00 1033.78,305.00 1034.43,305.00 1035.06,305.00 1035.72,305.00 1036.62,305.00 1037.26,305.00 1038.16,305.00 1038.80,305.00 1039.45,305.00 1040.09,305.00 1040.74,305.00 1041.38,305.00 1042.02,305.00 1042.66,305.00 1043.30,305.00 1043.94,305.00 1044.58,305.00 1045.22,305.00 1045.86,305.00 1046.52,305.00 1047.17,305.00 1047.81,305.00 1048.45,305.00 1049.10,305.00 1049.74,305.00 1050.40,305.00 1051.04,305.00 1051.68,305.00 1052.32,305.00 1052.97,305.00 1053.61,305.00 1054.25,305.00 1054.91,305.00 1055.55,305.00 1056.19,305.00 1056.84,305.00 1057.49,305.00 1058.15,305.00 1058.81,305.00 1059.46,305.00 1060.13,305.00 1060.77,305.00 1061.42,305.00 1062.07,305.00 1062.71,305.00 1063.36,305.00 1064.00,305.00 1064.64,305.00 1065.28,305.00 1065.94,305.00 1066.59,305.00 1067.24,305.00 1067.89,305.00 1068.53,305.00 1069.18,305.00 1069.83,305.00 1070.47,305.00 1071.12,305.00 1071.77,305.00 1072.42,305.00 1073.06,305.00 1073.71,305.00 1074.37,305.00 1075.01,305.00 1075.66,305.00 1076.30,305.00 1076.95,305.00 1077.59,305.00 1078.25,305.00 1078.91,305.00 1079.55,305.00 1080.20,305.00 1080.84,305.00 1081.49,305.00 1082.13,305.00 1082.78,305.00 1083.42,305.00 1084.07,305.00 1084.71,305.00 1085.36,305.00 1085.99,305.00 1086.64,305.00 1087.31,305.00 1087.96,305.00 1088.61,305.00 1089.25,305.00 1089.89,305.00 1090.54,305.00 1091.19,305.00 1091.83,305.00 1092.47,305.00 1093.12,305.00 1093.77,305.00 1094.41,305.00 1095.06,305.00 1095.71,305.00 1096.36,305.00 1097.00,305.00 1097.64,305.00 1098.29,305.00 1098.94,305.00 1099.59,305.00 1100.24,305.00 1100.88,305.00 1101.53,305.00 1102.19,305.00 1102.83,305.00 1103.47,305.00 1104.13,305.00 1104.77,305.00 1105.43,305.00 1106.08,305.00 1106.72,305.00 1107.37,305.00 1108.01,305.00 1108.65,305.00 1109.31,305.00 1109.96,305.00 1110.61,305.00 1111.27,305.00 1111.92,305.00 1112.57,305.00 1113.22,305.00 1113.86,305.00 1114.51,305.00 1115.16,305.00 1115.80,305.00 1116.46,305.00 1117.10,305.00 1117.74,305.00 1118.40,305.00 1119.04,305.00 1119.69,305.00 1120.34,305.00 1120.98,305.00 1121.64,305.00 1122.29,305.00 1122.95,305.00 1123.59,305.00 1124.25,305.00 1124.89,305.00 1125.54,305.00 1126.18,305.00 1126.83,305.00 1127.50,305.00 1128.15,305.00 1128.79,305.00 1129.44,305.00 1130.09,305.00 1130.73,305.00 1131.40,305.00 1132.05,305.00 1132.71,305.00 1133.36,305.00 1134.01,305.00 1134.66,305.00 1135.35,305.00 1135.99,305.00 1136.65,305.00 1137.29,305.00 1137.94,305.00 1138.58,305.00 1139.23,305.00 1139.88,305.00 1140.53,305.00 1141.18,305.00 1141.84,305.00 1142.49,305.00 1143.14,305.00 1143.78,305.00 1144.43,305.00 1145.08,305.00 1145.74,305.00 1146.39,305.00 1147.03,305.00 1147.68,305.00 1148.33,305.00 1148.97,305.00 1149.64,305.00 1150.28,305.00 1150.92,305.00 1151.56,305.00 1152.20,305.00 1152.85,305.00 1153.50,305.00 1154.14,305.00 1154.81,305.00 1155.45,305.00 1156.09,305.00 1156.74,305.00 1157.38,305.00 1158.02,305.00 1158.67,305.00 1159.32,305.00 1159.97,305.00 1160.62,305.00 1161.26,305.00 1161.90,305.00 1162.55,305.00 1163.19,305.00 1163.86,305.00 1164.51,305.00 1165.16,305.00 1165.80,305.00 1166.45,305.00 1167.09,305.00 1167.73,305.00 1168.37,305.00 1169.02,305.00 1169.70,305.00 1170.35,305.00 1171.00,305.00 1171.64,305.00 1172.28,305.00 1172.92,305.00 1173.56,305.00 1174.20,305.00 1174.86,305.00 1175.50,305.00 1176.14,305.00 1176.78,305.00 1177.42,305.00 1178.07,305.00 1178.72,305.00 1179.36,305.00 1180.00,305.00"/>
<polyline fill="none" stroke="#9467bd" stroke-opacity="0.50" stroke-width="2" points="70.00,305.00 70.64,305.00 71.29,305.00 71.93,305.00 72.58,305.00 73.22,305.00 73.86,305.00 74.51,305.00 75.20,305.00 75.84,305.00 76.48,305.00 77.12,305.00 77.78,305.00 78.42,305.00 79.05,305.00 80.21,305.00 81.21,305.00 81.86,305.00 82.52,305.00 83.16,305.00 83.80,305.00 84.43,305.00 85.08,305.00 85.72,305.00 86.37,305.00 87.02,305.00 87.67,305.00 88.32,305.00 88.96,305.00 89.64,305.00 90.29,305.00 90.93,305.00 91.59,305.00 92.23,305.00 92.87,305.00 93.54,305.00 94.17,305.00 94.82,305.00 95.47,305.00 96.11,305.00 96.75,305.00 97.39,305.00 98.03,305.00 98.67,305.00 99.31,305.00 99.97,305.00 100.62,305.00 101.25,305.00 101.90,305.00 102.54,305.00 103.19,305.00 103.92,305.00 104.57,305.00 105.21,305.00 105.85,305.00 106.48,305.00 107.12,305.00 107.76,305.00 108.41,305.00 109.05,305.00 109.70,305.00 110.34,305.00 110.98,305.00 111.63,305.00 112.28,305.00 112.92,305.00 113.56,305.00 114.20,305.00 114.84,305.00 115.48,305.00 116.11,305.00 116.76,305.00 117.40,305.00 118.04,305.00 118.68,305.00 119.33,305.00 119.96,305.00 120.61,305.00 121.25,305.00 121.88,305.00 122.54,305.00 123.19,305.00 123.83,305.00 124.47,305.00 125.11,305.00 125.76,305.00 126.40,305.00 127.04,305.00 127.67,305.00 128.32,305.00 128.97,305.00 129.61,305.00 130.26,305.00 130.89,305.00 131.54,305.00 132.18,305.00 132.82,305.00 133.45,305.00 134.10,305.00 134.74,305.00 135.38,305.00 136.03,305.00 136.67,305.00 137.31,305.00 137.96,305.00 138.61,305.00 139.25,305.00 139.89,305.00 140.53,305.00 141.17,305.00 141.82,305.00 142.46,305.00 143.11,305.00 143.75,305.00 144.39,305.00 145.04,305.00 145.69,305.00 146.34,305.00 146.98,305.00 147.62,305.00 148.26,305.00 148.91,305.00 149.55,305.00 150.19,305.00 150.89,305.00 151.53,305.00 152.18,305.00 152.82,305.00 153.46,305.00 154.10,305.00 154.73,305.00 155.37,305.00 156.01,305.00 156.66,305.00 157.30,305.00 157.94,305.00 158.58,305.00 159.22,305.00 159.87,305.00 160.51,305.00 161.15,305.00 161.79,305.00 162.43,305.00 163.07,305.00 163.72,305.00 164.36,305.00 165.01,305.00 165.65,305.00 166.29,305.00 166.93,305.00 167.57,305.00 168.21,305.00 168.85,305.00 169.50,305.00 170.15,305.00 170.79,305.00 171.43,305.00 172.08,305.00 172.72,305.00 173.36,305.00 174.01,305.00 174.65,305.00 175.30,305.00 175.95,305.00 176.59,305.00 177.24,305.00 177.88,305.00 178.51,305.00 179.15,305.00 179.80,305.00 180.44,305.00 181.07,305.00 181.71,305.00 182.36,305.00 183.00,305.00 183.65,305.00 184.29,305.00 184.95,305.00 185.59,305.00 186.23,305.00 186.87,305.00 187.51,305.00 188.21,305.00 188.86,305.00 189.50,305.00 190.14,305.00 190.77,305.00 191.42,305.00 192.06,305.00 192.71,305.00 193.35,305.00 193.99,305.00 194.63,305.00 195.27,305.00 195.93,305.00 196.57,305.00 197.21,305.00 197.85,305.00 198.50,305.00 199.16,305.00 199.81,305.00 200.45,305.00 201.09,305.00 201.74,305.00 202.38,305.00 203.02,305.00 203.66,305.00 204.32,305.00 204.96,305.00 205.59,305.00 206.24,305.00 206.89,305.00 207.53,305.00 208.17,305.00 208.82,305.00 209.46,305.00 210.10,305.00 210.74,305.00 211.38,305.00 212.02,305.00 212.67,305.00 213.30,305.00 213.95,305.00 214.58,305.00 215.22,305.00 215.87,305.00 216.51,305.00 217.16,305.00 217.81,305.00 218.45,305.00 219.10,305.00 219.74,305.00 220.39,305.00 221.03,305.00 221.67,305.00 222.31,305.00 222.97,305.00 223.61,305.00 224.26,305.00 224.90,305.00 225.54,305.00 226.19,305.00 226.82,305.00 227.46,305.00 228.11,305.00 228.75,305.00 229.40,305.00 230.04,305.00 230.69,305.00 231.33,305.00 231.97,305.00 232.62,305.00 233.27,305.00 233.91,305.00 234.55,305.00 235.20,305.00 235.85,305.00 236.49,305.00 237.13,305.00 237.77,305.00 238.49,305.00 239.14,305.00 239.78,305.00 240.42,305.00 241.07,305.00 241.72,305.00 242.36,305.00 243.01,305.00 243.64,305.00 244.31,305.00 244.96,305.00 245.59,305.00 246.24,305.00 246.88,305.00 247.52,305.00 248.17,305.00 248.83,305.00 249.48,305.00 250.12,305.00 250.77,305.00 251.46,305.00 252.11,305.00 252.91,305.00 254.00,305.00 254.66,305.00 255.32,305.00 255.96,305.00 256.59,305.00 257.23,305.00 257.88,305.00 258.52,305.00 259.17,305.00 259.84,305.00 260.51,305.00 261.19,305.00 261.83,305.00 262.48,305.00 263.12,305.00 263.77,305.00 264.42,305.00 265.07,305.00 265.71,305.00 266.35,305.00 267.02,305.00 267.67,305.00 268.30,305.00 268.95,305.00 269.60,305.00 270.27,305.00 270.92,305.00 271.56,305.00 272.22,305.00 272.84,305.00 273.48,305.00 274.13,305.00 274.77,305.00 275.42,305.00 276.09,305.00 276.73,305.00 277.37,305.00 278.03,305.00 278.67,305.00 279.32,305.00 279.96,305.00 280.60,305.00 281.24,305.00 281.89,305.00 282.53,305.00 283.29,305.00 284.05,305.00 284.81,305.00 285.56,305.00 286.29,305.00 287.03,305.00 287.80,305.00 288.54,305.00 289.19,305.00 289.82,305.00 290.47,305.00 291.11,305.00 291.75,305.00 292.39,305.00 293.03,305.00 293.67,305.00 294.31,305.00 294.95,305.00 295.59,305.00 296.23,305.00 296.87,305.00 297.51,305.00 298.15,305.00 298.79,305.00 299.43,305.00 300.07,305.00 300.72,305.00 301.36,305.00 302.00,305.00 302.64,305.00 303.27,305.00 303.92,305.00 304.56,305.00 305.20,305.00 305.84,305.00 306.49,305.00 307.13,305.00 307.77,305.00 308.41,305.00 309.05,305.00 309.69,305.00 310.33,305.00 310.96,305.00 311.60,305.00 312.24,305.00 312.88,305.00 313.51,305.00 314.15,305.00 314.79,305.00 315.43,305.00 316.07,305.00 316.70,305.00 317.34,305.00 318.00,305.00 318.69,305.00 319.34,305.00 319.98,305.00 320.62,305.00 321.26,305.00 321.89,305.00 322.53,305.00 323.17,305.00 323.93,305.00 324.68,305.00 325.43,305.00 326.18,305.00 326.94,305.00 327.69,305.00 328.45,305.00 329.23,305.00 329.93,305.00 330.62,305.00 331.27,305.00 331.92,305.00 332.56,305.00 333.19,305.00 333.83,305.00 334.48,305.00 335.12,305.00 335.76,305.00 336.40,305.00 337.04,305.00 337.68,305.00 338.32,305.00 338.97,305.00 339.61,305.00 340.25,305.00 340.81,305.00 341.48,305.00 342.12,305.00 342.77,305.00 343.42,305.00 344.06,305.00 344.70,305.00 345.35,305.00 346.00,305.00 346.64,305.00 347.29,305.00 347.95,305.00 348.58,305.00 349.22,305.00 349.86,305.00 350.50,305.00 351.14,305.00 351.77,305.00 352.42,305.00 353.06,305.00 353.71,305.00 354.35,305.00 354.98,305.00 355.63,305.00 356.27,305.00 356.92,305.00 357.57,305.00 358.21,305.00 358.85,305.00 359.50,305.00 360.14,305.00 360.80,305.00 361.44,305.00 362.08,305.00 362.72,305.00 363.35,305.00 363.99,305.00 364.64,305.00 365.28,305.00 365.92,305.00 366.56,305.00 367.20,305.00 367.84,305.00 368.49,305.00 369.13,305.00 369.77,305.00 370.55,305.00 371.21,305.00 371.87,305.00 372.52,305.00 373.16,305.00 373.81,305.00 374.45,305.00 375.08,305.00 375.73,305.00 376.38,305.00 377.02,305.00 377.67,305.00 378.31,305.00 378.95,305.00 379.62,305.00 380.27,305.00 380.91,305.00 381.56,305.00 382.20,305.00 382.84,305.00 383.48,305.00 384.12,305.00 384.79,305.00 385.44,305.00 386.09,305.00 386.73,305.00 387.37,305.00 388.02,305.00 388.66,305.00 389.30,305.00 389.94,305.00 390.59,305.00 391.24,305.00 391.88,305.00 392.52,305.00 393.16,305.00 393.80,305.00 394.46,305.00 395.10,305.00 395.74,305.00 396.38,305.00 397.02,305.00 397.68,305.00 398.32,305.00 399.09,305.00 399.76,305.00 400.40,305.00 401.04,305.00 401.68,305.00 402.33,305.00 402.97,305.00 403.62,305.00 404.27,305.00 404.91,305.00 405.55,305.00 406.19,305.00 406.83,305.00 407.48,305.00 408.12,305.00 408.76,305.00 409.40,305.00 410.04,305.00 410.68,305.00 411.33,305.00 411.98,305.00 412.62,305.00 413.26,305.00 413.91,305.00 414.56,305.00 415.20,305.00 415.84,305.00 416.48,305.00 417.14,305.00 417.78,305.00 418.43,305.00 419.07,305.00 419.72,305.00 420.36,305.00 421.00,305.00 421.65,305.00 422.31,305.00 422.95,305.00 423.59,305.00 424.22,305.00 424.87,305.00 425.51,305.00 426.15,305.00 426.79,305.00 427.44,305.00 428.09,305.00 428.74,305.00 429.37,305.00 430.02,305.00 430.66,305.00 431.30,305.00 431.94,305.00 432.59,305.00 433.23,305.00 433.88,305.00 434.52,305.00 435.16,305.00 435.81,305.00 436.46,305.00 437.11,305.00 437.75,305.00 438.40,305.00 439.12,305.00 439.83,305.00 440.52,305.00 441.17,305.00 441.84,305.00 442.48,305.00 443.13,305.00 443.77,305.00 444.37,305.00 445.04,305.00 445.68,305.00 446.33,305.00 446.97,305.00 447.61,305.00 448.25,305.00 448.90,305.00 449.54,305.00 450.18,305.00 450.83,305.00 451.47,305.00 452.12,305.00 452.76,305.00 453.41,305.00 454.06,305.00 454.71,305.00 455.35,305.00 456.00,305.00 456.65,305.00 457.30,305.00 457.94,305.00 458.58,305.00 459.22,305.00 459.86,305.00 460.51,305.00 461.15,305.00 461.79,305.00 462.45,305.00 463.08,305.00 463.73,305.00 464.37,305.00 465.02,305.00 465.66,305.00 466.31,305.00 466.95,305.00 467.60,305.00 468.24,305.00 468.89,305.00 469.54,305.00 470.19,305.00 470.83,305.00 471.47,305.00 472.12,305.00 472.76,305.00 473.42,305.00 474.08,305.00 474.72,305.00 475.37,305.00 476.01,305.00 476.66,305.00 477.30,305.00 477.95,305.00 478.59,305.00 479.24,305.00 479.88,305.00 480.53,305.00 481.18,305.00 481.82,305.00 482.47,305.00 483.12,305.00 483.76,305.00 484.41,305.00 485.06,305.00 485.71,305.00 486.36,305.00 487.00,305.00 487.64,305.00 488.29,305.00 488.95,305.00 489.60,305.00 490.25,305.00 490.89,305.00 491.53,305.00 492.18,305.00 492.82,305.00 493.47,305.00 494.11,305.00 494.76,305.00 495.40,305.00 496.04,305.00 496.69,305.00 497.34,305.00 497.99,305.00 498.63,305.00 499.28,305.00 499.93,305.00 500.57,305.00 501.22,305.00 501.86,305.00 502.50,305.00 503.14,305.00 503.79,305.00 504.43,305.00 505.08,305.00 505.73,305.00 506.38,305.00 507.02,305.00 507.67,305.00 508.32,305.00 508.96,305.00 509.61,305.00 510.26,305.00 510.91,305.00 511.55,305.00 512.20,305.00 512.85,305.00 513.50,305.00 514.14,305.00 514.80,305.00 515.45,305.00 516.10,305.00 516.75,305.00 517.39,305.00 518.04,305.00 518.69,305.00 519.34,305.00 519.99,305.00 520.63,305.00 521.27,305.00 521.91,305.00 522.58,305.00 523.22,305.00 523.87,305.00 524.51,305.00 525.16,305.00 525.80,305.00 526.44,305.00 527.08,305.00 527.73,305.00 528.37,305.00 529.02,305.00 529.66,305.00 530.31,305.00 530.95,305.00 531.62,305.00 532.27,305.00 532.91,305.00 533.55,305.00 534.19,305.00 534.84,305.00 535.48,305.00 536.14,305.00 536.78,305.00 537.42,305.00 538.07,305.00 538.72,305.00 539.36,305.00 540.01,305.00 540.66,305.00 541.33,305.00 541.98,305.00 542.63,305.00 543.28,305.00 543.92,305.00 544.57,305.00 545.21,305.00 545.85,305.00 546.49,305.00 547.15,305.00 547.79,305.00 548.44,305.00 549.09,305.00 549.74,305.00 550.42,305.00 551.06,305.00 551.70,305.00 552.35,305.00 553.00,305.00 553.65,305.00 554.30,305.00 554.95,305.00 555.60,305.00 556.25,305.00 556.89,305.00 557.54,305.00 558.19,305.00 558.84,305.00 559.48,305.00 560.13,305.00 560.77,305.00 561.43,305.00 562.08,305.00 562.72,305.00 563.37,305.00 564.02,305.00 564.67,305.00 565.31,305.00 565.96,305.00 566.61,305.00 567.28,305.00 567.93,305.00 568.58,305.00 569.22,305.00 569.89,305.00 570.55,305.00 571.21,305.00 571.86,305.00 572.53,305.00 573.18,305.00 573.82,305.00 574.47,305.00 575.12,305.00 575.77,305.00 576.42,305.00 577.08,305.00 577.72,305.00 578.37,305.00 579.02,305.00 579.66,305.00 580.31,305.00 580.96,305.00 581.60,305.00 582.24,305.00 582.89,305.00 583.53,305.00 584.18,305.00 584.81,305.00 585.46,305.00 586.11,305.00 586.76,305.00 587.40,305.00 588.05,305.00 588.70,305.00 589.35,305.00 590.00,305.00 590.64,305.00 591.29,305.00 591.93,305.00 592.57,305.00 593.22,305.00 593.87,305.00 594.51,305.00 595.15,305.00 595.80,305.00 596.44,305.00 597.09,305.00 597.73,305.00 598.38,305.00 599.03,305.00 599.67,305.00 600.31,305.00 600.96,305.00 601.61,305.00 602.24,305.00 602.88,305.00 603.52,305.00 604.16,305.00 604.81,305.00 605.47,305.00 606.11,305.00 606.76,305.00 607.40,305.00 608.06,305.00 608.71,305.00 609.35,305.00 610.01,305.00 610.65,305.00 611.29,305.00 611.95,305.00 612.59,305.00 613.25,305.00 613.90,305.00 614.54,305.00 615.18,305.00 615.83,305.00 616.47,305.00 617.12,305.00 617.76,305.00 618.40,305.00 619.04,305.00 619.69,305.00 620.34,305.00 620.98,305.00 621.63,305.00 622.27,305.00 622.92,305.00 623.57,305.00 624.22,305.00 624.86,305.00 625.51,305.00 626.15,305.00 626.80,305.00 627.44,305.00 628.09,305.00 628.74,305.00 629.38,305.00 630.03,305.00 630.68,305.00 631.33,305.00 631.97,305.00 632.61,305.00 633.25,305.00 633.92,305.00 634.57,305.00 635.23,305.00 635.88,305.00 636.53,305.00 637.18,305.00 637.82,305.00 638.47,305.00 639.12,305.00 639.76,305.00 640.41,305.00 641.07,305.00 641.72,305.00 642.37,305.00 643.02,305.00 643.66,305.00 644.31,305.00 644.96,305.00 645.60,305.00 646.24,305.00 646.89,305.00 647.53,305.00 648.18,305.00 648.82,305.00 649.47,305.00 650.11,305.00 650.75,305.00 651.40,305.00 652.04,305.00 652.69,305.00 653.35,305.00 653.99,305.00 654.63,305.00 655.28,305.00 655.92,305.00 656.56,305.00 657.22,305.00 657.86,305.00 658.51,305.00 659.16,305.00 659.80,305.00 660.44,305.00 661.09,305.00 661.74,305.00 662.38,305.00 663.03,305.00 663.70,305.00 664.35,305.00 665.01,305.00 665.67,305.00 666.33,305.00 666.99,305.00 667.65,305.00 668.32,305.00 668.98,305.00 669.64,305.00 670.29,305.00 670.93,305.00 671.58,305.00 672.23,305.00 672.88,305.00 673.53,305.00 674.17,305.00 674.82,305.00 675.47,305.00 676.12,305.00 676.76,305.00 677.40,305.00 678.05,305.00 678.69,305.00 679.34,305.00 679.99,305.00 680.63,305.00 681.28,305.00 681.93,305.00 682.58,305.00 683.23,305.00 683.87,305.00 684.52,305.00 685.16,305.00 685.81,305.00 686.46,305.00 687.10,305.00 687.75,305.00 688.40,305.00 689.04,305.00 689.69,305.00 690.34,305.00 690.98,305.00 691.63,305.00 692.32,305.00 692.99,305.00 693.63,305.00 694.28,305.00 694.92,305.00 695.57,305.00 696.23,305.00 696.88,305.00 697.53,305.00 698.17,305.00 698.80,305.00 699.45,305.00 700.09,305.00 700.74,305.00 701.39,305.00 702.03,305.00 702.68,305.00 703.33,305.00 703.98,305.00 704.62,305.00 705.27,305.00 705.91,305.00 706.56,305.00 707.21,305.00 707.85,305.00 708.50,305.00 709.15,305.00 709.80,305.00 710.44,305.00 711.12,305.00 711.77,305.00 712.41,305.00 713.05,305.00 713.70,305.00 714.35,305.00 715.00,305.00 715.65,305.00 716.29,305.00 716.94,305.00 717.59,305.00 718.24,305.00 718.90,305.00 719.55,305.00 720.19,305.00 720.83,305.00 721.48,305.00 722.13,305.00 722.78,305.00 723.42,305.00 724.07,305.00 724.72,305.00 725.36,305.00 726.01,305.00 726.65,305.00 727.30,305.00 727.95,305.00 728.59,305.00 729.24,305.00 729.88,305.00 730.53,305.00 731.17,305.00 731.82,305.00 732.47,305.00 733.12,305.00 733.76,305.00 734.41,305.00 735.05,305.00 735.69,305.00 736.34,305.00 736.98,305.00 737.63,305.00 738.28,305.00 738.94,305.00 739.59,305.00 740.24,305.00 740.89,305.00 741.53,305.00 742.19,305.00 742.88,305.00 743.54,305.00 744.19,305.00 744.85,305.00 745.50,305.00 746.14,305.00 746.79,305.00 747.44,305.00 748.08,305.00 748.73,305.00 749.38,305.00 750.03,305.00 750.67,305.00 751.34,305.00 751.98,305.00 752.63,305.00 753.28,305.00 753.92,305.00 754.57,305.00 755.22,305.00 755.87,305.00 756.51,305.00 757.17,305.00 757.81,305.00 758.46,305.00 759.11,305.00 759.76,305.00 760.41,305.00 761.06,305.00 761.71,305.00 762.36,305.00 763.00,305.00 763.65,305.00 764.31,305.00 764.94,305.00 765.59,305.00 766.24,305.00 766.88,305.00 767.53,305.00 768.18,305.00 768.82,305.00 769.47,305.00 770.12,305.00 770.77,305.00 771.41,305.00 772.06,305.00 772.71,305.00 773.36,305.00 774.01,305.00 774.64,305.00 775.28,305.00 775.92,305.00 776.57,305.00 777.22,305.00 777.86,305.00 778.52,305.00 779.16,305.00 779.82,305.00 780.47,305.00 781.11,305.00 781.76,305.00 782.40,305.00 783.05,305.00 783.69,305.00 784.33,305.00 784.98,305.00 785.63,305.00 786.27,305.00 786.91,305.00 787.55,305.00 788.20,305.00 788.85,305.00 789.50,305.00 790.14,305.00 790.78,305.00 791.41,305.00 792.07,305.00 792.71,305.00 793.36,305.00 794.01,305.00 794.67,305.00 795.31,305.00 795.95,305.00 796.60,305.00 797.25,305.00 797.90,305.00 798.54,305.00 799.24,305.00 799.88,305.00 800.54,305.00 801.18,305.00 801.84,305.00 802.48,305.00 803.12,305.00 803.78,305.00 804.42,305.00 805.06,305.00 805.71,305.00 806.35,305.00 807.00,305.00 807.66,305.00 808.30,305.00 808.95,305.00 809.59,305.00 810.24,305.00 810.89,305.00 811.54,305.00 812.19,305.00 812.84,305.00 813.50,305.00 814.15,305.00 814.80,305.00 815.45,305.00 816.10,305.00 816.75,305.00 817.40,305.00 818.04,305.00 818.69,305.00 819.33,305.00 819.98,305.00 820.63,305.00 821.28,305.00 821.92,305.00 822.57,305.00 823.22,305.00 823.86,305.00 824.50,305.00 825.15,305.00 825.80,305.00 826.44,305.00 827.09,305.00 827.73,305.00 828.37,305.00 829.01,305.00 829.66,305.00 830.30,305.00 830.94,305.00 831.59,305.00 832.23,305.00 832.88,305.00 833.52,305.00 834.16,305.00 834.80,305.00 835.46,305.00 836.10,305.00 836.74,305.00 837.38,305.00 838.02,305.00 838.68,305.00 839.32,305.00 839.96,305.00 840.61,305.00 841.29,305.00 841.93,305.00 842.58,305.00 843.23,305.00 843.88,305.00 844.53,305.00 845.18,305.00 845.82,305.00 846.47,305.00 847.12,305.00 847.75,305.00 848.40,305.00 849.05,305.00 849.69,305.00 850.34,305.00 850.98,305.00 851.62,305.00 852.27,305.00 852.91,305.00 853.56,305.00 854.22,305.00 854.89,305.00 855.53,305.00 856.18,305.00 856.81,305.00 857.45,305.00 858.11,305.00 858.75,305.00 859.40,305.00 860.05,305.00 860.69,305.00 861.34,305.00 861.99,305.00 862.64,305.00 863.29,305.00 863.93,305.00 864.58,305.00 865.23,305.00 865.87,305.00 866.51,305.00 867.15,305.00 867.80,305.00 868.44,305.00 869.09,305.00 869.73,305.00 870.38,305.00 871.02,305.00 871.67,305.00 872.31,305.00 872.96,305.00 873.61,305.00 874.25,305.00 874.90,305.00 875.54,305.00 876.19,305.00 876.83,305.00 877.48,305.00 878.13,305.00 878.77,305.00 879.41,305.00 880.06,305.00 880.71,305.00 881.34,305.00 882.01,305.00 882.65,305.00 883.30,305.00 883.94,305.00 884.59,305.00 885.24,305.00 885.90,305.00 886.55,305.00 887.24,305.00 887.88,305.00 888.58,305.00 889.22,305.00 889.86,305.00 890.50,305.00 891.15,305.00 891.80,305.00 892.44,305.00 893.09,305.00 893.74,305.00 894.38,305.00 895.03,305.00 895.67,305.00 896.31,305.00 896.96,305.00 897.61,305.00 898.25,305.00 898.89,305.00 899.53,305.00 900.18,305.00 900.83,305.00 901.48,305.00 902.12,305.00 902.76,305.00 903.41,305.00 904.05,305.00 904.71,305.00 905.35,305.00 906.00,305.00 906.65,305.00 907.29,305.00 907.93,305.00 908.57,305.00 909.22,305.00 909.86,305.00 910.51,305.00 911.15,305.00 911.78,305.00 912.43,305.00 913.08,305.00 913.72,305.00 914.37,305.00 915.02,305.00 915.69,305.00 916.34,305.00 916.98,305.00 917.62,305.00 918.26,305.00 918.90,305.00 919.54,305.00 920.19,305.00 920.83,305.00 921.48,305.00 922.12,305.00 922.76,305.00 923.40,305.00 924.04,305.00 924.69,305.00 925.33,305.00 925.98,305.00 926.63,305.00 927.27,305.00 927.91,305.00 928.56,305.00 929.21,305.00 929.85,305.00 930.50,305.00 931.14,305.00 931.79,305.00 932.44,305.00 933.08,305.00 933.74,305.00 934.38,305.00 935.02,305.00 935.67,305.00 936.32,305.00 936.96,305.00 937.63,305.00 938.27,305.00 938.92,305.00 939.57,305.00 940.22,305.00 940.86,305.00 941.50,305.00 942.15,305.00 942.80,305.00 943.45,305.00 944.09,305.00 944.74,305.00 945.39,305.00 946.03,305.00 946.68,305.00 947.34,305.00 948.00,305.00 948.69,305.00 949.34,305.00 949.99,305.00 950.63,305.00 951.27,305.00 951.92,305.00 952.56,305.00 953.21,305.00 953.86,305.00 954.51,305.00 955.16,305.00 955.80,305.00 956.44,305.00 957.08,305.00 957.73,305.00 958.38,305.00 959.04,305.00 959.70,305.00 960.35,305.00 961.01,305.00 961.68,305.00 962.33,305.00 963.02,305.00 963.66,305.00 964.31,305.00 964.96,305.00 965.61,305.00 966.25,305.00 966.90,305.00 967.54,305.00 968.19,305.00 968.83,305.00 969.48,305.00 970.14,305.00 970.78,305.00 971.43,305.00 972.09,305.00 972.84,305.00 973.49,305.00 974.13,305.00 974.77,305.00 975.41,305.00 976.05,305.00 976.69,305.00 977.29,305.00 977.87,305.00 978.57,305.00 979.17,305.00 979.76,305.00 980.42,305.00 980.98,305.00 981.62,305.00 982.27,305.00 982.92,305.00 983.56,305.00 984.20,305.00 984.85,305.00 985.49,305.00 986.13,305.00 986.78,305.00 987.42,305.00 988.06,305.00 988.71,305.00 989.36,305.00 989.99,305.00 990.64,305.00 991.28,305.00 991.92,305.00 992.55,305.00 993.20,305.00 993.84,305.00 994.48,305.00 995.13,305.00 995.78,305.00 996.42,305.00 997.06,305.00 997.71,305.00 998.34,305.00 998.99,305.00 999.63,305.00 1000.27,305.00 1000.91,305.00 1001.55,305.00 1002.19,305.00 1002.84,305.00 1003.48,305.00 1004.12,305.00 1004.77,305.00 1005.41,305.00 1006.06,305.00 1006.70,305.00 1007.34,305.00 1007.99,305.00 1008.63,305.00 1009.27,305.00 1009.90,305.00 1010.55,305.00 1011.19,305.00 1011.83,305.00 1012.47,305.00 1013.11,305.00 1013.76,305.00 1014.41,305.00 1015.06,305.00 1015.70,305.00 1016.34,305.00 1016.99,305.00 1017.64,305.00 1018.28,305.00 1018.93,305.00 1019.57,305.00 1020.21,305.00 1020.85,305.00 1021.49,305.00 1022.14,305.00 1022.78,305.00 1023.42,305.00 1024.07,305.00 1024.71,305.00 1025.35,305.00 1026.00,305.00 1026.64,305.00 1027.29,305.00 1027.93,305.00 1028.57,305.00 1029.22,305.00 1029.87,305.00 1030.51,305.00 1031.21,305.00 1031.86,305.00 1032.50,305.00 1033.14,305.00 1033.78,305.00 1034.43,305.00 1035.06,305.00 1035.72,305.00 1036.62,305.00 1037.26,305.00 1038.16,305.00 1038.80,305.00 1039.45,305.00 1040.09,305.00 1040.74,305.00 1041.38,305.00 1042.02,305.00 1042.66,305.00 1043.30,305.00 1043.94,305.00 1044.58,305.00 1045.22,305.00 1045.86,305.00 1046.52,305.00 1047.17,305.00 1047.81,305.00 1048.45,305.00 1049.10,305.00 1049.74,305.00 1050.40,305.00 1051.04,305.00 1051.68,305.00 1052.32,305.00 1052.97,305.00 1053.61,305.00 1054.25,305.00 1054.91,305.00 1055.55,305.00 1056.19,305.00 1056.84,305.00 1057.49,305.00 1058.15,305.00 1058.81,305.00 1059.46,305.00 1060.13,305.00 1060.77,305.00 1061.42,305.00 1062.07,305.00 1062.71,305.00 1063.36,305.00 1064.00,305.00 1064.64,305.00 1065.28,305.00 1065.94,305.00 1066.59,305.00 1067.24,305.00 1067.89,305.00 1068.53,305.00 1069.18,305.00 1069.83,305.00 1070.47,305.00 1071.12,305.00 1071.77,305.00 1072.42,305.00 1073.06,305.00 1073.71,305.00 1074.37,305.00 1075.01,305.00 1075.66,305.00 1076.30,305.00 1076.95,305.00 1077.59,305.00 1078.25,305.00 1078.91,305.00 1079.55,305.00 1080.20,305.00 1080.84,305.00 1081.49,305.00 1082.13,305.00 1082.78,305.00 1083.42,305.00 1084.07,305.00 1084.71,305.00 1085.36,305.00 1085.99,305.00 1086.64,305.00 1087.31,305.00 1087.96,305.00 1088.61,305.00 1089.25,305.00 1089.89,305.00 1090.54,305.00 1091.19,305.00 1091.83,305.00 1092.47,305.00 1093.12,305.00 1093.77,305.00 1094.41,305.00 1095.06,305.00 1095.71,305.00 1096.36,305.00 1097.00,305.00 1097.64,305.00 1098.29,305.00 1098.94,305.00 1099.59,305.00 1100.24,305.00 1100.88,305.00 1101.53,305.00 1102.19,305.00 1102.83,305.00 1103.47,305.00 1104.13,305.00 1104.77,305.00 1105.43,305.00 1106.08,305.00 1106.72,305.00 1107.37,305.00 1108.01,305.00 1108.65,305.00 1109.31,305.00 1109.96,305.00 1110.61,305.00 1111.27,305.00 1111.92,305.00 1112.57,305.00 1113.22,305.00 1113.86,305.00 1114.51,305.00 1115.16,305.00 1115.80,305.00 1116.46,305.00 1117.10,305.00 1117.74,305.00 1118.40,305.00 1119.04,305.00 1119.69,305.00 1120.34,305.00 1120.98,305.00 1121.64,305.00 1122.29,305.00 1122.95,305.00 1123.59,305.00 1124.25,305.00 1124.89,305.00 1125.54,305.00 1126.18,305.00 1126.83,305.00 1127.50,305.00 1128.15,305.00 1128.79,305.00 1129.44,305.00 1130.09,305.00 1130.73,305.00 1131.40,305.00 1132.05,305.00 1132.71,305.00 1133.36,305.00 1134.01,305.00 1134.66,305.00 1135.35,305.00 1135.99,305.00 1136.65,305.00 1137.29,305.00 1137.94,305.00 1138.58,305.00 1139.23,305.00 1139.88,305.00 1140.53,305.00 1141.18,305.00 1141.84,305.00 1142.49,305.00 1143.14,305.00 1143.78,305.00 1144.43,305.00 1145.08,305.00 1145.74,305.00 1146.39,305.00 1147.03,305.00 1147.68,305.00 1148.33,305.00 1148.97,305.00 1149.64,305.00 1150.28,305.00 1150.92,305.00 1151.56,305.00 1152.20,305.00 1152.85,305.00 1153.50,305.00 1154.14,305.00 1154.81,305.00 1155.45,305.00 1156.09,305.00 1156.74,305.00 1157.38,305.00 1158.02,305.00 1158.67,305.00 1159.32,305.00 1159.97,305.00 1160.62,305.00 1161.26,305.00 1161.90,305.00 1162.55,305.00 1163.19,305.00 1163.86,305.00 1164.51,305.00 1165.16,305.00 1165.80,305.00 1166.45,305.00 1167.09,305.00 1167.73,305.00 1168.37,305.00 1169.02,305.00 1169.70,305.00 1170.35,305.00 1171.00,305.00 1171.64,305.00 1172.28,305.00 1172.92,305.00 1173.56,305.00 1174.20,305.00 1174.86,305.00 1175.50,305.00 1176.14,305.00 1176.78,305.00 1177.42,305.00 1178.07,305.00 1178.72,305.00 1179.36,305.00 1180.00,305.00"/>
<rect x="70" y="332" width="12" height="12" fill="#9467bd" fill-opacity="0.95"/>
<text x="88" y="342" font-size="11" fill="#333" font-family="Arial, Helvetica, sans-serif">nsc1.utdallas.edu</text>
<rect x="350" y="332" width="12" height="12" fill="#9467bd" fill-opacity="0.80"/>
<text x="368" y="342" font-size="11" fill="#333" font-family="Arial, Helvetica, sans-serif">nsc2.utdallas.edu</text>
<rect x="630" y="332" width="12" height="12" fill="#9467bd" fill-opacity="0.65"/>
<text x="648" y="342" font-size="11" fill="#333" font-family="Arial, Helvetica, sans-serif">nsc3.utdallas.edu</text>
<rect x="910" y="332" width="12" height="12" fill="#9467bd" fill-opacity="0.50"/>
<text x="928" y="342" font-size="11" fill="#333" font-family="Arial, Helvetica, sans-serif">nsc4.utdallas.edu</text>
</svg>