<?xml version="1.0" encoding="UTF-8"?>
<svg xmlns="http://www.w3.org/2000/svg" width="1200" height="360" viewBox="0 0 1200 360" role="img" aria-label="GPU Utilization (%)">
<rect width="100%" height="100%" fill="#ffffff"/>
<text x="600.0" y="22" text-anchor="middle" font-size="16" font-family="Arial, Helvetica, sans-serif" font-weight="bold">GPU Utilization (%)</text>
<line x1="70" y1="35.00" x2="1180" y2="35.00" stroke="#e3e3e3" stroke-width="1"/>
<text x="62" y="39.00" text-anchor="end" font-size="11" fill="#444" font-family="Arial, Helvetica, sans-serif">100</text>
<line x1="70" y1="89.00" x2="1180" y2="89.00" stroke="#e3e3e3" stroke-width="1"/>
<text x="62" y="93.00" text-anchor="end" font-size="11" fill="#444" font-family="Arial, Helvetica, sans-serif">80</text>
<line x1="70" y1="143.00" x2="1180" y2="143.00" stroke="#e3e3e3" stroke-width="1"/>
<text x="62" y="147.00" text-anchor="end" font-size="11" fill="#444" font-family="Arial, Helvetica, sans-serif">60</text>
<line x1="70" y1="197.00" x2="1180" y2="197.00" stroke="#e3e3e3" stroke-width="1"/>
<text x="62" y="201.00" text-anchor="end" font-size="11" fill="#444" font-family="Arial, Helvetica, sans-serif">40</text>
<line x1="70" y1="251.00" x2="1180" y2="251.00" stroke="#e3e3e3" stroke-width="1"/>
<text x="62" y="255.00" text-anchor="end" font-size="11" fill="#444" font-family="Arial, Helvetica, sans-serif">20</text>
<line x1="70" y1="305.00" x2="1180" y2="305.00" stroke="#e3e3e3" stroke-width="1"/>
<text x="62" y="309.00" text-anchor="end" font-size="11" fill="#444" font-family="Arial, Helvetica, sans-serif">0</text>
<line x1="70" y1="35" x2="70" y2="305" stroke="#999"/>
<line x1="70" y1="305" x2="1180" y2="305" stroke="#999"/>
<text x="70.00" y="323" text-anchor="middle" font-size="10" fill="#444" font-family="Arial, Helvetica, sans-serif">2026-02-11 16:38</text>
<text x="347.50" y="323" text-anchor="middle" font-size="10" fill="#444" font-family="Arial, Helvetica, sans-serif">2026-02-13 09:19</text>
<text x="625.00" y="323" text-anchor="middle" font-size="10" fill="#444" font-family="Arial, Helvetica, sans-serif">2026-02-15 02:00</text>
<text x="902.50" y="323" text-anchor="middle" font-size="10" fill="#444" font-family="Arial, Helvetica, sans-serif">2026-02-16 18:41</text>
<text x="1180.00" y="323" text-anchor="middle" font-size="10" fill="#444" font-family="Arial, Helvetica, sans-serif">2026-02-18 11:22</text>
<polyline fill="none" stroke="#9467bd" stroke-opacity="0.95" stroke-width="2" points="70.61,305.00 71.23,305.00 71.84,305.00 72.45,305.00 73.07,305.00 73.67,305.00 74.29,305.00 74.95,305.00 75.56,305.00 76.17,305.00 76.78,305.00 77.40,305.00 78.00,305.00 78.61,305.00 79.71,305.00 80.66,305.00 81.28,305.00 81.91,305.00 82.52,305.00 83.13,305.00 83.73,305.00 84.34,305.00 84.95,305.00 85.57,305.00 86.19,305.00 86.81,305.00 87.42,305.00 88.04,305.00 88.68,305.00 89.30,305.00 89.91,305.00 90.53,305.00 91.15,305.00 91.76,305.00 92.39,305.00 93.00,305.00 93.61,305.00 94.23,305.00 94.83,305.00 95.45,305.00 96.05,305.00 96.66,305.00 97.28,305.00 97.88,305.00 98.51,305.00 99.13,305.00 99.73,305.00 100.34,305.00 100.96,305.00 101.57,305.00 102.27,305.00 102.88,305.00 103.49,305.00 104.10,305.00 104.71,305.00 105.31,305.00 105.92,305.00 106.53,305.00 107.14,305.00 107.77,305.00 108.38,305.00 108.98,305.00 109.60,305.00 110.22,305.00 110.83,305.00 111.44,305.00 112.05,305.00 112.65,305.00 113.26,305.00 113.87,305.00 114.48,305.00 115.09,305.00 115.70,305.00 116.31,305.00 116.92,305.00 117.53,305.00 118.14,305.00 118.75,305.00 119.36,305.00 119.98,305.00 120.59,305.00 121.20,305.00 121.82,305.00 122.43,305.00 123.04,305.00 123.65,305.00 124.26,305.00 124.86,305.00 125.48,305.00 126.09,305.00 126.70,305.00 127.32,305.00 127.92,305.00 128.54,305.00 129.15,305.00 129.76,305.00 130.36,305.00 130.97,305.00 131.58,305.00 132.20,305.00 132.81,305.00 133.42,305.00 134.03,305.00 134.65,305.00 135.27,305.00 135.88,305.00 136.48,305.00 137.10,305.00 137.70,305.00 138.32,305.00 138.93,305.00 139.54,305.00 140.15,305.00 140.77,305.00 141.38,305.00 142.00,305.00 142.62,305.00 143.23,305.00 143.84,305.00 144.45,305.00 145.06,305.00 145.67,305.00 146.29,305.00 146.95,305.00 147.56,305.00 148.18,305.00 148.79,305.00 149.39,305.00 150.00,305.00 150.60,305.00 151.21,305.00 151.82,305.00 152.43,305.00 153.04,305.00 153.65,305.00 154.26,305.00 154.87,305.00 155.49,305.00 156.10,305.00 156.71,305.00 157.32,305.00 157.93,305.00 158.54,305.00 159.15,305.00 159.76,305.00 160.38,305.00 160.99,305.00 161.60,305.00 162.20,305.00 162.81,305.00 163.42,305.00 164.03,305.00 164.65,305.00 165.26,305.00 165.88,305.00 166.49,305.00 167.10,305.00 167.72,305.00 168.32,305.00 168.94,305.00 169.55,305.00 170.17,305.00 170.79,305.00 171.40,305.00 172.01,305.00 172.62,305.00 173.22,305.00 173.83,305.00 174.45,305.00 175.05,305.00 175.66,305.00 176.27,305.00 176.88,305.00 177.50,305.00 178.11,305.00 178.72,305.00 179.35,305.00 179.96,305.00 180.57,305.00 181.17,305.00 181.78,305.00 182.45,305.00 183.07,305.00 183.68,305.00 184.28,305.00 184.89,305.00 185.50,305.00 186.11,305.00 186.73,305.00 187.34,305.00 187.95,305.00 188.56,305.00 189.17,305.00 189.79,305.00 190.40,305.00 191.01,305.00 191.62,305.00 192.24,305.00 192.86,305.00 193.49,305.00 194.09,305.00 194.70,305.00 195.32,305.00 195.92,305.00 196.54,305.00 197.15,305.00 197.77,305.00 198.38,305.00 198.98,305.00 199.60,305.00 200.21,305.00 200.82,305.00 201.44,305.00 202.05,305.00 202.67,305.00 203.27,305.00 203.88,305.00 204.49,305.00 205.10,305.00 205.71,305.00 206.32,305.00 206.93,305.00 207.53,305.00 208.14,305.00 208.76,305.00 209.37,305.00 209.99,305.00 210.61,305.00 211.22,305.00 211.83,305.00 212.44,305.00 213.06,305.00 213.67,305.00 214.28,305.00 214.89,305.00 215.51,305.00 216.13,305.00 216.74,305.00 217.35,305.00 217.96,305.00 218.57,305.00 219.18,305.00 219.79,305.00 220.40,305.00 221.02,305.00 221.63,305.00 222.24,305.00 222.86,305.00 223.47,305.00 224.08,305.00 224.69,305.00 225.31,305.00 225.92,305.00 226.53,305.00 227.15,305.00 227.76,305.00 228.38,305.00 228.99,305.00 229.60,305.00 230.28,305.00 230.89,305.00 231.50,305.00 232.12,305.00 232.73,305.00 233.35,305.00 233.96,305.00 234.57,305.00 235.18,305.00 235.81,80.90 236.43,72.80 237.04,305.00 237.65,305.00 238.26,305.00 238.87,305.00 239.48,305.00 240.12,305.00 240.73,305.00 241.34,305.00 241.96,305.00 242.62,305.00 243.23,305.00 244.00,305.00 245.03,305.00 245.66,305.00 246.28,305.00 246.89,305.00 247.49,305.00 248.10,305.00 248.72,305.00 249.34,305.00 249.95,305.00 250.59,305.00 251.22,305.00 251.87,305.00 252.48,305.00 253.09,305.00 253.71,305.00 254.33,305.00 254.95,305.00 255.56,305.00 256.17,305.00 256.78,305.00 257.42,305.00 258.03,305.00 258.64,305.00 259.25,305.00 259.87,305.00 260.51,305.00 261.12,305.00 261.74,305.00 262.37,305.00 262.95,305.00 263.56,305.00 264.18,305.00 264.79,305.00 265.41,305.00 266.04,305.00 266.66,305.00 267.27,305.00 267.89,305.00 268.50,305.00 269.12,305.00 269.73,305.00 270.33,305.00 270.95,305.00 271.56,305.00 272.17,305.00 272.90,305.00 273.62,305.00 274.34,305.00 275.05,305.00 275.75,305.00 276.46,305.00 277.18,305.00 277.89,305.00 278.51,305.00 279.11,305.00 279.72,305.00 280.33,305.00 280.94,305.00 281.55,305.00 282.16,305.00 282.76,305.00 283.38,305.00 283.99,305.00 284.60,305.00 285.21,305.00 285.82,305.00 286.42,305.00 287.03,305.00 287.64,305.00 288.25,305.00 288.86,305.00 289.47,305.00 290.09,305.00 290.69,305.00 291.30,305.00 291.90,305.00 292.51,305.00 293.13,305.00 293.74,305.00 294.35,305.00 294.96,305.00 295.57,305.00 296.18,305.00 296.79,305.00 297.40,305.00 298.01,305.00 298.62,305.00 299.22,305.00 299.82,305.00 300.43,305.00 301.04,305.00 301.64,305.00 302.25,305.00 302.86,305.00 303.47,305.00 304.08,305.00 304.68,305.00 305.28,305.00 305.91,305.00 306.57,305.00 307.18,305.00 307.79,305.00 308.40,305.00 309.01,305.00 309.62,305.00 310.22,305.00 310.83,305.00 311.55,305.00 312.27,305.00 312.98,305.00 313.69,305.00 314.41,305.00 315.13,305.00 315.86,305.00 316.60,305.00 317.26,305.00 317.92,305.00 318.53,305.00 319.15,305.00 319.76,305.00 320.37,305.00 320.97,305.00 321.59,305.00 322.19,305.00 322.80,305.00 323.41,305.00 324.02,305.00 324.63,305.00 325.24,305.00 325.86,305.00 326.47,305.00 327.08,305.00 327.61,305.00 328.24,305.00 328.85,305.00 329.48,305.00 330.09,305.00 330.70,305.00 331.31,305.00 331.93,305.00 332.54,305.00 333.16,305.00 333.77,305.00 334.40,305.00 335.00,305.00 335.61,305.00 336.22,305.00 336.82,305.00 337.43,305.00 338.04,305.00 338.66,305.00 339.26,305.00 339.88,305.00 340.49,305.00 341.09,305.00 341.71,305.00 342.32,305.00 342.93,305.00 343.55,305.00 344.16,305.00 344.77,305.00 345.38,305.00 346.00,305.00 346.63,305.00 347.23,305.00 347.84,305.00 348.45,305.00 349.05,305.00 349.66,305.00 350.28,305.00 350.89,305.00 351.49,305.00 352.11,305.00 352.71,305.00 353.32,305.00 353.94,305.00 354.55,305.00 355.16,305.00 355.90,305.00 356.53,305.00 357.15,305.00 357.77,305.00 358.38,305.00 359.00,305.00 359.61,305.00 360.21,305.00 360.83,305.00 361.45,305.00 362.06,305.00 362.67,305.00 363.28,305.00 363.89,305.00 364.53,305.00 365.15,305.00 365.76,305.00 366.37,305.00 366.98,305.00 367.59,305.00 368.20,305.00 368.81,305.00 369.45,305.00 370.06,305.00 370.68,305.00 371.29,305.00 371.90,305.00 372.52,305.00 373.12,305.00 373.74,305.00 374.35,305.00 374.96,305.00 375.58,305.00 376.19,305.00 376.80,305.00 377.41,305.00 378.02,305.00 378.64,305.00 379.26,305.00 379.86,305.00 380.47,305.00 381.08,305.00 381.70,305.00 382.32,305.00 383.05,305.00 383.68,305.00 384.29,305.00 384.91,305.00 385.51,305.00 386.13,305.00 386.74,305.00 387.35,305.00 387.98,305.00 388.59,305.00 389.20,305.00 389.80,305.00 390.42,305.00 391.03,305.00 391.64,305.00 392.25,305.00 392.86,305.00 393.47,305.00 394.08,305.00 394.69,305.00 395.31,305.00 395.92,305.00 396.52,305.00 397.14,305.00 397.76,305.00 398.37,305.00 398.98,305.00 399.59,305.00 400.22,305.00 400.83,305.00 401.44,305.00 402.06,305.00 402.67,305.00 403.28,305.00 403.89,305.00 404.51,305.00 405.13,305.00 405.74,305.00 406.35,305.00 406.96,305.00 407.57,305.00 408.18,305.00 408.79,305.00 409.40,305.00 410.02,305.00 410.64,305.00 411.26,305.00 411.85,305.00 412.47,305.00 413.08,305.00 413.69,305.00 414.30,305.00 414.92,305.00 415.52,305.00 416.14,305.00 416.76,305.00 417.37,305.00 417.98,305.00 418.60,305.00 419.22,305.00 419.83,305.00 420.44,305.00 421.13,305.00 421.80,305.00 422.46,305.00 423.08,305.00 423.71,305.00 424.33,305.00 424.94,305.00 425.55,305.00 426.12,305.00 426.76,305.00 427.37,305.00 427.99,305.00 428.59,305.00 429.21,305.00 429.81,305.00 430.43,305.00 431.04,305.00 431.65,305.00 432.26,305.00 432.88,305.00 433.49,305.00 434.11,305.00 434.72,305.00 435.34,305.00 435.96,305.00 436.57,305.00 437.18,305.00 437.81,305.00 438.42,305.00 439.03,305.00 439.64,305.00 440.25,305.00 440.86,305.00 441.47,305.00 442.09,305.00 442.70,305.00 443.32,305.00 443.93,305.00 444.54,305.00 445.15,305.00 445.76,305.00 446.38,305.00 446.99,305.00 447.60,305.00 448.22,305.00 448.83,305.00 449.45,305.00 450.06,305.00 450.68,305.00 451.29,305.00 451.91,305.00 452.52,305.00 453.13,305.00 453.75,305.00 454.38,305.00 455.00,305.00 455.61,305.00 456.22,305.00 456.84,305.00 457.45,305.00 458.06,305.00 458.68,305.00 459.29,305.00 459.90,305.00 460.52,305.00 461.13,305.00 461.75,305.00 462.37,305.00 462.98,305.00 463.60,305.00 464.21,305.00 464.83,305.00 465.45,305.00 466.06,305.00 466.67,305.00 467.29,305.00 467.90,305.00 468.53,305.00 469.14,305.00 469.76,305.00 470.38,305.00 470.99,305.00 471.60,305.00 472.21,305.00 472.83,305.00 473.44,305.00 474.05,305.00 474.67,305.00 475.28,305.00 475.89,305.00 476.51,305.00 477.12,305.00 477.73,305.00 478.36,305.00 478.97,305.00 479.59,305.00 480.20,305.00 480.81,305.00 481.42,305.00 482.03,305.00 482.64,305.00 483.26,305.00 483.88,305.00 484.49,305.00 485.11,305.00 485.72,305.00 486.34,305.00 486.96,305.00 487.57,305.00 488.18,305.00 488.80,305.00 489.42,305.00 490.03,305.00 490.65,305.00 491.27,305.00 491.88,305.00 492.50,305.00 493.12,305.00 493.74,305.00 494.36,305.00 494.97,305.00 495.58,305.00 496.20,305.00 496.82,305.00 497.44,305.00 498.05,305.00 498.67,305.00 499.28,305.00 499.89,305.00 500.52,305.00 501.13,305.00 501.75,305.00 502.36,305.00 502.97,305.00 503.58,305.00 504.19,305.00 504.80,305.00 505.42,305.00 506.03,305.00 506.65,305.00 507.26,305.00 507.87,305.00 508.49,305.00 509.12,305.00 509.74,305.00 510.34,305.00 510.96,305.00 511.57,305.00 512.18,305.00 512.80,305.00 513.41,305.00 514.03,305.00 514.64,305.00 515.26,305.00 515.87,305.00 516.48,305.00 517.10,305.00 517.72,305.00 518.35,305.00 518.97,305.00 519.59,305.00 520.21,305.00 520.82,305.00 521.44,305.00 522.05,305.00 522.66,305.00 523.27,305.00 523.89,305.00 524.50,305.00 525.12,305.00 525.74,305.00 526.36,305.00 527.00,305.00 527.61,305.00 528.23,305.00 528.84,305.00 529.45,305.00 530.07,305.00 530.69,305.00 531.31,305.00 531.93,305.00 532.55,305.00 533.16,305.00 533.78,305.00 534.40,305.00 535.01,305.00 535.63,305.00 536.24,305.00 536.85,305.00 537.47,305.00 538.09,305.00 538.71,305.00 539.32,305.00 539.94,305.00 540.56,305.00 541.17,305.00 541.79,305.00 542.40,305.00 543.04,305.00 543.66,305.00 544.28,305.00 544.89,305.00 545.52,305.00 546.15,305.00 546.78,305.00 547.40,305.00 548.03,305.00 548.65,305.00 549.27,305.00 549.88,305.00 550.50,305.00 551.11,305.00 551.73,305.00 552.36,305.00 552.98,305.00 553.59,305.00 554.21,305.00 554.82,305.00 555.43,305.00 556.05,305.00 556.66,305.00 557.28,305.00 557.89,305.00 558.50,305.00 559.11,305.00 559.72,305.00 560.33,305.00 560.95,305.00 561.57,305.00 562.18,305.00 562.80,305.00 563.42,305.00 564.03,305.00 564.65,305.00 565.27,305.00 565.88,305.00 566.49,305.00 567.10,305.00 567.72,305.00 568.34,305.00 568.95,305.00 569.55,305.00 570.17,305.00 570.78,305.00 571.40,305.00 572.01,305.00 572.62,305.00 573.24,305.00 573.85,305.00 574.46,305.00 575.08,305.00 575.70,305.00 576.30,305.00 576.91,305.00 577.51,305.00 578.13,305.00 578.74,305.00 579.37,305.00 579.98,305.00 580.59,305.00 581.21,305.00 581.83,305.00 582.45,305.00 583.06,305.00 583.69,305.00 584.30,305.00 584.91,305.00 585.53,305.00 586.15,305.00 586.77,305.00 587.39,305.00 588.00,305.00 588.61,305.00 589.23,305.00 589.84,305.00 590.45,305.00 591.06,305.00 591.67,305.00 592.28,305.00 592.90,305.00 593.52,305.00 594.13,305.00 594.74,305.00 595.35,305.00 595.97,305.00 596.58,305.00 597.20,305.00 597.82,305.00 598.43,305.00 599.04,305.00 599.66,305.00 600.27,305.00 600.89,305.00 601.50,305.00 602.12,305.00 602.73,305.00 603.35,305.00 603.97,305.00 604.58,305.00 605.19,305.00 605.80,305.00 606.44,305.00 607.05,305.00 607.68,305.00 608.30,305.00 608.91,305.00 609.53,305.00 610.15,305.00 610.76,305.00 611.38,305.00 611.99,305.00 612.61,305.00 613.24,305.00 613.86,305.00 614.47,305.00 615.09,305.00 615.70,305.00 616.32,305.00 616.93,305.00 617.54,305.00 618.15,305.00 618.77,305.00 619.38,305.00 620.00,305.00 620.61,305.00 621.23,305.00 621.84,305.00 622.45,305.00 623.06,305.00 623.67,305.00 624.29,305.00 624.91,305.00 625.52,305.00 626.13,305.00 626.75,305.00 627.36,305.00 627.97,305.00 628.59,305.00 629.20,305.00 629.83,305.00 630.44,305.00 631.05,305.00 631.66,305.00 632.28,305.00 632.89,305.00 633.50,305.00 634.13,305.00 634.76,305.00 635.38,305.00 636.01,305.00 636.63,305.00 637.26,305.00 637.89,305.00 638.52,305.00 639.16,305.00 639.78,305.00 640.41,305.00 641.03,305.00 641.64,305.00 642.26,305.00 642.88,305.00 643.49,305.00 644.11,305.00 644.73,305.00 645.34,305.00 645.96,305.00 646.57,305.00 647.18,305.00 647.80,305.00 648.41,305.00 649.02,305.00 649.64,305.00 650.25,305.00 650.87,305.00 651.48,305.00 652.11,305.00 652.72,305.00 653.34,305.00 653.95,305.00 654.56,305.00 655.18,305.00 655.80,305.00 656.41,305.00 657.03,305.00 657.64,305.00 658.26,305.00 658.87,305.00 659.48,305.00 660.10,305.00 660.71,305.00 661.33,305.00 661.99,305.00 662.62,305.00 663.23,305.00 663.85,305.00 664.46,305.00 665.08,305.00 665.70,305.00 666.32,305.00 666.94,305.00 667.55,305.00 668.15,305.00 668.77,305.00 669.38,305.00 669.99,305.00 670.61,305.00 671.22,305.00 671.84,305.00 672.46,305.00 673.08,305.00 673.69,305.00 674.30,305.00 674.92,305.00 675.53,305.00 676.15,305.00 676.76,305.00 677.38,305.00 678.00,305.00 678.61,305.00 679.23,305.00 679.87,305.00 680.48,305.00 681.10,305.00 681.71,305.00 682.33,305.00 682.94,305.00 683.56,305.00 684.18,305.00 684.79,305.00 685.41,305.00 686.02,305.00 686.65,305.00 687.27,305.00 687.89,305.00 688.50,305.00 689.11,305.00 689.73,305.00 690.34,305.00 690.96,305.00 691.57,305.00 692.19,305.00 692.81,305.00 693.42,305.00 694.04,305.00 694.65,305.00 695.26,305.00 695.88,305.00 696.49,305.00 697.10,305.00 697.72,305.00 698.34,305.00 698.95,305.00 699.56,305.00 700.18,305.00 700.80,305.00 701.41,305.00 702.03,305.00 702.64,305.00 703.25,305.00 703.86,305.00 704.47,305.00 705.09,305.00 705.70,305.00 706.34,305.00 706.95,305.00 707.57,305.00 708.19,305.00 708.80,305.00 709.42,305.00 710.08,305.00 710.71,305.00 711.33,305.00 711.95,305.00 712.57,305.00 713.19,305.00 713.80,305.00 714.42,305.00 715.03,305.00 715.65,305.00 716.27,305.00 716.88,305.00 717.50,305.00 718.13,305.00 718.74,305.00 719.36,305.00 719.97,305.00 720.59,305.00 721.21,305.00 721.82,305.00 722.44,305.00 723.05,305.00 723.67,305.00 724.29,305.00 724.90,305.00 725.52,305.00 726.14,305.00 726.76,305.00 727.38,305.00 728.00,305.00 728.62,305.00 729.22,305.00 729.84,305.00 730.46,305.00 731.07,305.00 731.68,305.00 732.30,305.00 732.91,305.00 733.53,305.00 734.15,305.00 734.76,305.00 735.37,305.00 735.99,305.00 736.61,305.00 737.22,305.00 737.84,305.00 738.46,305.00 739.08,305.00 739.70,305.00 740.30,305.00 740.90,305.00 741.51,305.00 742.13,305.00 742.74,305.00 743.36,305.00 743.99,305.00 744.60,305.00 745.22,305.00 745.84,305.00 746.45,305.00 747.07,305.00 747.68,305.00 748.29,305.00 748.90,305.00 749.51,305.00 750.13,305.00 750.75,305.00 751.36,305.00 751.97,305.00 752.58,305.00 753.20,305.00 753.81,305.00 754.43,305.00 755.04,305.00 755.65,305.00 756.24,305.00 756.87,305.00 757.49,305.00 758.10,305.00 758.72,305.00 759.35,305.00 759.96,305.00 760.57,305.00 761.19,305.00 761.80,305.00 762.42,305.00 763.03,305.00 763.69,305.00 764.31,305.00 764.93,305.00 765.54,305.00 766.17,305.00 766.77,305.00 767.39,305.00 768.01,305.00 768.62,305.00 769.24,305.00 769.85,305.00 770.46,305.00 771.08,305.00 771.70,305.00 772.32,305.00 772.93,305.00 773.54,305.00 774.16,305.00 774.78,305.00 775.40,305.00 776.01,305.00 776.64,305.00 777.26,305.00 777.88,305.00 778.50,305.00 779.11,305.00 779.73,305.00 780.35,305.00 780.97,305.00 781.58,305.00 782.19,305.00 782.81,305.00 783.42,305.00 784.04,305.00 784.66,305.00 785.27,305.00 785.89,305.00 786.51,305.00 787.11,305.00 787.73,305.00 788.34,305.00 788.96,305.00 789.57,305.00 790.18,305.00 790.80,305.00 791.41,305.00 792.02,305.00 792.63,305.00 793.24,305.00 793.85,305.00 794.47,305.00 795.08,305.00 795.69,305.00 796.30,305.00 796.92,305.00 797.53,305.00 798.15,305.00 798.76,305.00 799.37,305.00 799.98,305.00 800.59,305.00 801.22,305.00 801.82,305.00 802.44,305.00 803.05,305.00 803.70,305.00 804.30,305.00 804.92,305.00 805.54,305.00 806.16,305.00 806.78,305.00 807.39,305.00 808.01,305.00 808.62,305.00 809.24,305.00 809.85,305.00 810.46,305.00 811.07,305.00 811.69,305.00 812.31,305.00 812.92,305.00 813.53,305.00 814.14,305.00 814.75,305.00 815.37,305.00 815.99,305.00 816.63,305.00 817.25,305.00 817.86,305.00 818.46,305.00 819.07,305.00 819.70,305.00 820.31,305.00 820.92,305.00 821.54,305.00 822.15,305.00 822.77,305.00 823.39,305.00 824.00,305.00 824.62,305.00 825.23,305.00 825.85,305.00 826.47,305.00 827.08,305.00 827.69,305.00 828.30,305.00 828.91,305.00 829.52,305.00 830.14,305.00 830.75,305.00 831.36,305.00 831.98,305.00 832.59,305.00 833.21,305.00 833.82,305.00 834.44,305.00 835.05,305.00 835.66,305.00 836.28,305.00 836.90,305.00 837.51,305.00 838.12,305.00 838.74,305.00 839.35,305.00 839.96,305.00 840.57,305.00 841.19,305.00 841.80,305.00 842.43,305.00 843.04,305.00 843.66,305.00 844.27,305.00 844.89,305.00 845.50,305.00 846.13,305.00 847.40,305.00 848.02,305.00 848.68,305.00 849.29,305.00 849.90,305.00 850.51,305.00 851.13,305.00 851.74,305.00 852.36,305.00 852.97,305.00 853.59,305.00 854.20,305.00 854.81,305.00 855.43,305.00 856.04,305.00 856.65,305.00 857.27,305.00 857.88,305.00 858.49,305.00 859.10,305.00 859.72,305.00 860.33,305.00 860.95,305.00 861.56,305.00 862.17,305.00 862.79,305.00 863.40,305.00 864.02,305.00 864.64,305.00 865.25,305.00 865.87,305.00 866.48,305.00 867.09,305.00 867.70,305.00 868.32,305.00 868.93,305.00 869.54,305.00 870.15,305.00 870.75,305.00 871.37,305.00 871.98,305.00 872.59,305.00 873.21,305.00 873.83,305.00 874.47,305.00 875.08,305.00 875.70,305.00 876.31,305.00 876.92,305.00 877.52,305.00 878.13,305.00 878.75,305.00 879.36,305.00 879.97,305.00 880.58,305.00 881.19,305.00 881.80,305.00 882.42,305.00 883.03,305.00 883.64,305.00 884.25,305.00 884.88,305.00 885.48,305.00 886.09,305.00 886.72,305.00 887.33,305.00 887.94,305.00 888.56,305.00 889.17,305.00 889.78,305.00 890.40,305.00 891.02,305.00 891.64,305.00 892.25,305.00 892.86,305.00 893.47,305.00 894.09,305.00 894.70,305.00 895.34,305.00 895.95,305.00 896.57,305.00 897.19,305.00 897.80,305.00 898.41,305.00 899.03,305.00 899.64,305.00 900.26,305.00 900.88,305.00 901.48,305.00 902.10,305.00 902.72,305.00 903.33,305.00 903.95,305.00 904.58,305.00 905.21,305.00 905.86,305.00 906.48,305.00 907.09,305.00 907.71,305.00 908.31,305.00 908.93,305.00 909.55,305.00 910.16,305.00 910.78,305.00 911.39,305.00 912.01,305.00 912.62,305.00 913.23,305.00 913.85,305.00 914.46,305.00 915.08,305.00 915.71,305.00 916.34,305.00 916.95,305.00 917.58,305.00 918.22,305.00 918.84,305.00 919.49,305.00 920.11,305.00 920.72,305.00 921.34,305.00 921.95,305.00 922.57,305.00 923.18,305.00 923.79,305.00 924.41,305.00 925.02,305.00 925.63,305.00 926.26,305.00 926.88,305.00 927.49,305.00 928.12,305.00 928.84,305.00 929.45,305.00 930.06,305.00 930.67,305.00 931.28,305.00 931.89,305.00 932.50,305.00 933.07,305.00 933.62,305.00 934.28,305.00 934.86,305.00 935.42,305.00 936.05,305.00 936.58,305.00 937.19,305.00 937.81,305.00 938.42,305.00 939.03,305.00 939.64,305.00 940.26,305.00 940.87,305.00 941.47,305.00 942.09,305.00 942.71,305.00 943.31,305.00 943.93,305.00 944.54,305.00 945.15,305.00 945.77,305.00 946.37,305.00 946.98,305.00 947.59,305.00 948.20,305.00 948.81,305.00 949.42,305.00 950.04,305.00 950.66,305.00 951.27,305.00 951.87,305.00 952.49,305.00 953.10,305.00 953.71,305.00 954.32,305.00 954.92,305.00 955.53,305.00 956.15,305.00 956.76,305.00 957.37,305.00 957.98,305.00 958.59,305.00 959.21,305.00 959.82,305.00 960.43,305.00 961.04,305.00 961.65,305.00 962.27,305.00 962.88,305.00 963.49,305.00 964.09,305.00 964.70,305.00 965.31,305.00 965.92,305.00 966.53,305.00 967.14,305.00 967.76,305.00 968.38,305.00 968.99,305.00 969.60,305.00 970.22,305.00 970.83,305.00 971.45,305.00 972.06,305.00 972.67,305.00 973.29,305.00 973.90,305.00 974.51,305.00 975.12,305.00 975.73,305.00 976.34,305.00 976.95,305.00 977.57,305.00 978.18,305.00 978.79,305.00 979.40,305.00 980.01,305.00 980.63,305.00 981.24,305.00 981.85,305.00 982.46,305.00 983.08,305.00 983.69,305.00 984.36,305.00 984.97,305.00 985.58,305.00 986.20,305.00 986.81,305.00 987.42,305.00 988.03,305.00 988.65,305.00 989.50,305.00 990.11,305.00 990.97,305.00 991.58,305.00 992.19,305.00 992.81,305.00 993.42,305.00 994.03,305.00 994.64,305.00 995.25,305.00 995.86,305.00 996.47,305.00 997.08,305.00 997.69,305.00 998.30,305.00 998.92,305.00 999.54,305.00 1000.15,305.00 1000.76,305.00 1001.38,305.00 1001.98,305.00 1002.61,305.00 1003.22,305.00 1003.83,305.00 1004.44,305.00 1005.05,305.00 1005.67,305.00 1006.28,305.00 1006.90,305.00 1007.51,305.00 1008.12,305.00 1008.74,305.00 1009.36,305.00 1009.98,305.00 1010.61,305.00 1011.23,305.00 1011.87,305.00 1012.48,305.00 1013.10,305.00 1013.71,305.00 1014.33,305.00 1014.94,305.00 1015.55,305.00 1016.16,305.00 1016.77,305.00 1017.40,305.00 1018.01,305.00 1018.63,305.00 1019.25,305.00 1019.86,305.00 1020.48,305.00 1021.09,305.00 1021.71,305.00 1022.32,305.00 1022.94,305.00 1023.56,305.00 1024.17,305.00 1024.79,305.00 1025.41,305.00 1026.03,305.00 1026.64,305.00 1027.25,305.00 1027.87,305.00 1028.48,305.00 1029.11,305.00 1029.73,305.00 1030.34,305.00 1030.96,305.00 1031.57,305.00 1032.19,305.00 1032.80,305.00 1033.42,305.00 1034.03,305.00 1034.64,305.00 1035.25,305.00 1035.86,305.00 1036.47,305.00 1037.09,305.00 1037.72,305.00 1038.34,305.00 1038.96,305.00 1039.57,305.00 1040.18,305.00 1040.80,305.00 1041.41,305.00 1042.02,305.00 1042.64,305.00 1043.25,305.00 1043.87,305.00 1044.48,305.00 1045.10,305.00 1045.72,305.00 1046.33,305.00 1046.94,305.00 1047.55,305.00 1048.17,305.00 1048.79,305.00 1049.41,305.00 1050.03,305.00 1050.64,305.00 1051.25,305.00 1051.87,305.00 1052.49,305.00 1053.10,305.00 1053.73,305.00 1054.34,305.00 1054.96,305.00 1055.58,305.00 1056.19,305.00 1056.80,305.00 1057.41,305.00 1058.03,305.00 1058.65,305.00 1059.27,305.00 1059.89,305.00 1060.52,305.00 1061.14,305.00 1061.75,305.00 1062.37,305.00 1062.98,305.00 1063.59,305.00 1064.21,305.00 1064.83,305.00 1065.45,305.00 1066.06,305.00 1066.68,305.00 1067.30,305.00 1067.91,305.00 1068.53,305.00 1069.14,305.00 1069.75,305.00 1070.38,305.00 1071.00,305.00 1071.62,305.00 1072.24,305.00 1072.86,305.00 1073.47,305.00 1074.09,305.00 1074.70,305.00 1075.32,305.00 1075.96,305.00 1076.57,305.00 1077.18,305.00 1077.80,305.00 1078.42,305.00 1079.03,305.00 1079.67,305.00 1080.28,305.00 1080.91,305.00 1081.53,305.00 1082.15,305.00 1082.77,305.00 1083.42,305.00 1084.03,305.00 1084.66,305.00 1085.27,305.00 1085.88,305.00 1086.50,305.00 1087.11,305.00 1087.73,305.00 1088.35,305.00 1088.96,305.00 1089.60,305.00 1090.21,305.00 1090.83,305.00 1091.45,305.00 1092.06,305.00 1092.68,305.00 1093.31,305.00 1093.92,305.00 1094.53,305.00 1095.16,305.00 1095.77,305.00 1096.38,305.00 1097.01,305.00 1097.63,305.00 1098.24,305.00 1098.85,305.00 1099.45,305.00 1100.07,305.00 1100.68,305.00 1101.29,305.00 1101.93,305.00 1102.54,305.00 1103.15,305.00 1103.77,305.00 1104.38,305.00 1104.99,305.00 1105.61,305.00 1106.22,305.00 1106.84,305.00 1107.46,305.00 1108.07,305.00 1108.68,305.00 1109.30,305.00 1109.91,305.00 1110.55,305.00 1111.16,305.00 1111.78,305.00 1112.39,305.00 1113.00,305.00 1113.61,305.00 1114.22,305.00 1114.84,305.00 1115.46,305.00 1116.10,305.00 1116.72,305.00 1117.33,305.00 1117.94,305.00 1118.55,305.00 1119.16,305.00 1119.77,305.00 1120.38,305.00 1121.01,305.00 1121.62,305.00 1122.22,305.00 1122.83,305.00 1123.44,305.00 1124.06,305.00 1124.68,305.00 1125.29,305.00 1125.90,305.00 1126.51,305.00 1127.13,305.00 1127.75,305.00 1128.37,305.00 1128.98,305.00 1129.59,305.00 1130.20,305.00 1130.82,305.00 1131.45,305.00 1132.06,305.00 1132.67,305.00 1133.28,305.00 1133.89,305.00 1134.51,305.00 1135.12,305.00 1135.73,305.00 1136.34,305.00 1136.95,305.00 1137.57,305.00 1138.18,305.00 1138.79,305.00 1139.40,305.00 1140.00,305.00 1140.61,305.00 1141.23,305.00 1141.85,305.00 1142.46,305.00 1143.08,305.00 1143.69,305.00 1144.31,305.00 1144.92,305.00 1145.53,305.00 1146.14,305.00 1146.76,305.00 1147.37,305.00 1147.99,305.00 1148.60,305.00 1149.22,305.00 1149.83,305.00 1150.45,305.00 1151.07,305.00 1151.68,305.00 1152.31,305.00 1152.93,305.00 1153.54,305.00 1154.16,305.00 1154.77,305.00 1155.38,305.00 1155.99,305.00 1156.60,305.00 1157.21,305.00 1157.83,305.00 1158.44,305.00 1159.05,305.00 1159.69,305.00 1160.30,305.00 1160.92,305.00 1161.53,305.00 1162.14,305.00 1162.78,305.00 1163.40,305.00 1164.04,305.00 1164.65,305.00 1165.25,305.00 1165.86,305.00 1166.47,305.00 1167.08,305.00 1167.70,305.00 1168.32,305.00 1168.93,305.00 1169.55,305.00 1170.16,305.00 1170.78,305.00 1171.39,305.00 1172.00,305.00 1172.62,305.00 1173.24,305.00 1173.87,305.00 1174.49,305.00 1175.10,305.00 1175.72,305.00 1176.33,305.00 1176.94,305.00 1177.55,305.00 1178.16,305.00 1178.77,305.00 1179.39,305.00 1180.00,305.00"/>
<polyline fill="none" stroke="#9467bd" stroke-opacity="0.80" stroke-width="2" points="70.00,305.00 70.61,305.00 71.23,305.00 71.84,305.00 72.45,305.00 73.07,305.00 73.67,305.00 74.29,305.00 74.95,305.00 75.56,305.00 76.17,305.00 76.78,305.00 77.40,305.00 78.00,305.00 78.61,305.00 79.71,305.00 80.66,305.00 81.28,305.00 81.91,305.00 82.52,305.00 83.13,305.00 83.73,305.00 84.34,305.00 84.95,305.00 85.57,305.00 86.19,305.00 86.81,305.00 87.42,305.00 88.04,305.00 88.68,305.00 89.30,305.00 89.91,305.00 90.53,305.00 91.15,305.00 91.76,305.00 92.39,305.00 93.00,305.00 93.61,305.00 94.23,305.00 94.83,305.00 95.45,305.00 96.05,305.00 96.66,305.00 97.28,305.00 97.88,305.00 98.51,305.00 99.13,305.00 99.73,305.00 100.34,305.00 100.96,305.00 101.57,305.00 102.27,305.00 102.88,305.00 103.49,305.00 104.10,305.00 104.71,305.00 105.31,305.00 105.92,305.00 106.53,305.00 107.14,305.00 107.77,305.00 108.38,305.00 108.98,305.00 109.60,305.00 110.22,305.00 110.83,305.00 111.44,305.00 112.05,305.00 112.65,305.00 113.26,305.00 113.87,305.00 114.48,305.00 115.09,305.00 115.70,305.00 116.31,305.00 116.92,305.00 117.53,305.00 118.14,305.00 118.75,305.00 119.36,305.00 119.98,305.00 120.59,305.00 121.20,305.00 121.82,305.00 122.43,305.00 123.04,305.00 123.65,305.00 124.26,305.00 124.86,305.00 125.48,305.00 126.09,305.00 126.70,305.00 127.32,305.00 127.92,305.00 128.54,305.00 129.15,305.00 129.76,305.00 130.36,305.00 130.97,305.00 131.58,305.00 132.20,305.00 132.81,305.00 133.42,305.00 134.03,305.00 134.65,305.00 135.27,305.00 135.88,305.00 136.48,305.00 137.10,305.00 137.70,305.00 138.32,305.00 138.93,305.00 139.54,305.00 140.15,305.00 140.77,305.00 141.38,305.00 142.00,305.00 142.62,305.00 143.23,305.00 143.84,305.00 144.45,305.00 145.06,305.00 145.67,305.00 146.29,305.00 146.95,305.00 147.56,305.00 148.18,305.00 148.79,305.00 149.39,305.00 150.00,305.00 150.60,305.00 151.21,305.00 151.82,305.00 152.43,305.00 153.04,305.00 153.65,305.00 154.26,305.00 154.87,305.00 155.49,305.00 156.10,305.00 156.71,305.00 157.32,305.00 157.93,305.00 158.54,305.00 159.15,305.00 159.76,305.00 160.38,305.00 160.99,305.00 161.60,305.00 162.20,305.00 162.81,305.00 163.42,305.00 164.03,305.00 164.65,305.00 165.26,305.00 165.88,305.00 166.49,305.00 167.10,305.00 167.72,305.00 168.32,305.00 168.94,305.00 169.55,305.00 170.17,305.00 170.79,305.00 171.40,305.00 172.01,305.00 172.62,305.00 173.22,305.00 173.83,305.00 174.45,305.00 175.05,305.00 175.66,305.00 176.27,305.00 176.88,305.00 177.50,305.00 178.11,305.00 178.72,305.00 179.35,305.00 179.96,305.00 180.57,305.00 181.17,305.00 181.78,305.00 182.45,305.00 183.07,305.00 183.68,305.00 184.28,305.00 184.89,305.00 185.50,305.00 186.11,305.00 186.73,305.00 187.34,305.00 187.95,305.00 188.56,305.00 189.17,305.00 189.79,305.00 190.40,305.00 191.01,305.00 191.62,305.00 192.24,305.00 192.86,305.00 193.49,305.00 194.09,305.00 194.70,305.00 195.32,305.00 195.92,305.00 196.54,305.00 197.15,305.00 197.77,305.00 198.38,305.00 198.98,305.00 199.60,305.00 200.21,305.00 200.82,305.00 201.44,305.00 202.05,305.00 202.67,305.00 203.27,305.00 203.88,305.00 204.49,305.00 205.10,305.00 205.71,305.00 206.32,305.00 206.93,305.00 207.53,305.00 208.14,305.00 208.76,305.00 209.37,305.00 209.99,305.00 210.61,305.00 211.22,305.00 211.83,305.00 212.44,305.00 213.06,305.00 213.67,305.00 214.28,305.00 214.89,305.00 215.51,305.00 216.13,305.00 216.74,305.00 217.35,305.00 217.96,305.00 218.57,305.00 219.18,305.00 219.79,305.00 220.40,305.00 221.02,305.00 221.63,305.00 222.24,305.00 222.86,305.00 223.47,305.00 224.08,305.00 224.69,305.00 225.31,305.00 225.92,305.00 226.53,305.00 227.15,305.00 227.76,305.00 228.38,305.00 228.99,305.00 229.60,305.00 230.28,305.00 230.89,305.00 231.50,305.00 232.12,305.00 232.73,305.00 233.35,305.00 233.96,305.00 234.57,305.00 235.18,305.00 235.81,305.00 236.43,305.00 237.04,305.00 237.65,305.00 238.26,305.00 238.87,305.00 239.48,305.00 240.12,305.00 240.73,305.00 241.34,305.00 241.96,305.00 242.62,305.00 243.23,305.00 244.00,305.00 245.03,305.00 245.66,305.00 246.28,305.00 246.89,305.00 247.49,305.00 248.10,305.00 248.72,305.00 249.34,305.00 249.95,305.00 250.59,305.00 251.22,305.00 251.87,305.00 252.48,305.00 253.09,305.00 253.71,305.00 254.33,305.00 254.95,305.00 255.56,305.00 256.17,305.00 256.78,305.00 257.42,305.00 258.03,305.00 258.64,305.00 259.25,305.00 259.87,305.00 260.51,305.00 261.12,305.00 261.74,305.00 262.37,305.00 262.95,305.00 263.56,305.00 264.18,305.00 264.79,305.00 265.41,305.00 266.04,305.00 266.66,305.00 267.27,305.00 267.89,305.00 268.50,305.00 269.12,305.00 269.73,305.00 270.33,305.00 270.95,305.00 271.56,305.00 272.17,305.00 272.90,305.00 273.62,305.00 274.34,305.00 275.05,305.00 275.75,305.00 276.46,305.00 277.18,305.00 277.89,305.00 278.51,305.00 279.11,305.00 279.72,305.00 280.33,305.00 280.94,305.00 281.55,305.00 282.16,305.00 282.76,305.00 283.38,305.00 283.99,305.00 284.60,305.00 285.21,305.00 285.82,305.00 286.42,305.00 287.03,305.00 287.64,305.00 288.25,305.00 288.86,305.00 289.47,305.00 290.09,305.00 290.69,305.00 291.30,305.00 291.90,305.00 292.51,305.00 293.13,305.00 293.74,305.00 294.35,305.00 294.96,305.00 295.57,305.00 296.18,305.00 296.79,305.00 297.40,305.00 298.01,305.00 298.62,305.00 299.22,305.00 299.82,305.00 300.43,305.00 301.04,305.00 301.64,305.00 302.25,305.00 302.86,305.00 303.47,305.00 304.08,305.00 304.68,305.00 305.28,305.00 305.91,305.00 306.57,305.00 307.18,305.00 307.79,305.00 308.40,305.00 309.01,305.00 309.62,305.00 310.22,305.00 310.83,305.00 311.55,305.00 312.27,305.00 312.98,305.00 313.69,305.00 314.41,305.00 315.13,305.00 315.86,305.00 316.60,305.00 317.26,305.00 317.92,305.00 318.53,305.00 319.15,305.00 319.76,305.00 320.37,305.00 320.97,305.00 321.59,305.00 322.19,305.00 322.80,305.00 323.41,305.00 324.02,305.00 324.63,305.00 325.24,305.00 325.86,305.00 326.47,305.00 327.08,305.00 327.61,305.00 328.24,305.00 328.85,305.00 329.48,305.00 330.09,305.00 330.70,305.00 331.31,305.00 331.93,305.00 332.54,305.00 333.16,305.00 333.77,305.00 334.40,305.00 335.00,305.00 335.61,305.00 336.22,305.00 336.82,305.00 337.43,305.00 338.04,305.00 338.66,305.00 339.26,305.00 339.88,305.00 340.49,305.00 341.09,305.00 341.71,305.00 342.32,305.00 342.93,305.00 343.55,305.00 344.16,305.00 344.77,305.00 345.38,305.00 346.00,305.00 346.63,305.00 347.23,305.00 347.84,305.00 348.45,305.00 349.05,305.00 349.66,305.00 350.28,305.00 350.89,305.00 351.49,305.00 352.11,305.00 352.71,305.00 353.32,305.00 353.94,305.00 354.55,305.00 355.16,305.00 355.90,305.00 356.53,305.00 357.15,305.00 357.77,305.00 358.38,305.00 359.00,305.00 359.61,305.00 360.21,305.00 360.83,305.00 361.45,305.00 362.06,305.00 362.67,305.00 363.28,305.00 363.89,305.00 364.53,305.00 365.15,305.00 365.76,305.00 366.37,305.00 366.98,305.00 367.59,305.00 368.20,305.00 368.81,305.00 369.45,305.00 370.06,305.00 370.68,305.00 371.29,305.00 371.90,305.00 372.52,305.00 373.12,305.00 373.74,305.00 374.35,305.00 374.96,305.00 375.58,305.00 376.19,305.00 376.80,305.00 377.41,305.00 378.02,305.00 378.64,305.00 379.26,305.00 379.86,305.00 380.47,305.00 381.08,305.00 381.70,305.00 382.32,305.00 383.05,305.00 383.68,305.00 384.29,305.00 384.91,305.00 385.51,305.00 386.13,305.00 386.74,305.00 387.35,305.00 387.98,305.00 388.59,305.00 389.20,305.00 389.80,305.00 390.42,305.00 391.03,305.00 391.64,305.00 392.25,305.00 392.86,305.00 393.47,305.00 394.08,305.00 394.69,305.00 395.31,305.00 395.92,305.00 396.52,305.00 397.14,305.00 397.76,305.00 398.37,305.00 398.98,305.00 399.59,305.00 400.22,305.00 400.83,305.00 401.44,305.00 402.06,305.00 402.67,305.00 403.28,305.00 403.89,305.00 404.51,305.00 405.13,305.00 405.74,305.00 406.35,305.00 406.96,305.00 407.57,305.00 408.18,305.00 408.79,305.00 409.40,305.00 410.02,305.00 410.64,305.00 411.26,305.00 411.85,305.00 412.47,305.00 413.08,305.00 413.69,305.00 414.30,305.00 414.92,305.00 415.52,305.00 416.14,305.00 416.76,305.00 417.37,305.00 417.98,305.00 418.60,305.00 419.22,305.00 419.83,305.00 420.44,305.00 421.13,305.00 421.80,305.00 422.46,305.00 423.08,305.00 423.71,305.00 424.33,305.00 424.94,305.00 425.55,305.00 426.12,305.00 426.76,305.00 427.37,305.00 427.99,305.00 428.59,305.00 429.21,305.00 429.81,305.00 430.43,305.00 431.04,305.00 431.65,305.00 432.26,305.00 432.88,305.00 433.49,305.00 434.11,305.00 434.72,305.00 435.34,305.00 435.96,305.00 436.57,305.00 437.18,305.00 437.81,305.00 438.42,305.00 439.03,305.00 439.64,305.00 440.25,305.00 440.86,305.00 441.47,305.00 442.09,305.00 442.70,305.00 443.32,305.00 443.93,305.00 444.54,305.00 445.15,305.00 445.76,305.00 446.38,305.00 446.99,305.00 447.60,305.00 448.22,305.00 448.83,305.00 449.45,305.00 450.06,305.00 450.68,305.00 451.29,305.00 451.91,305.00 452.52,305.00 453.13,305.00 453.75,305.00 454.38,305.00 455.00,305.00 455.61,305.00 456.22,305.00 456.84,305.00 457.45,305.00 458.06,305.00 458.68,305.00 459.29,305.00 459.90,305.00 460.52,305.00 461.13,305.00 461.75,305.00 462.37,305.00 462.98,305.00 463.60,305.00 464.21,305.00 464.83,305.00 465.45,305.00 466.06,305.00 466.67,305.00 467.29,305.00 467.90,305.00 468.53,305.00 469.14,305.00 469.76,305.00 470.38,305.00 470.99,305.00 471.60,305.00 472.21,305.00 472.83,305.00 473.44,305.00 474.05,305.00 474.67,305.00 475.28,305.00 475.89,305.00 476.51,305.00 477.12,305.00 477.73,305.00 478.36,305.00 478.97,305.00 479.59,305.00 480.20,305.00 480.81,305.00 481.42,305.00 482.03,305.00 482.64,305.00 483.26,305.00 483.88,305.00 484.49,305.00 485.11,305.00 485.72,305.00 486.34,305.00 486.96,305.00 487.57,305.00 488.18,305.00 488.80,305.00 489.42,305.00 490.03,305.00 490.65,305.00 491.27,305.00 491.88,305.00 492.50,305.00 493.12,305.00 493.74,305.00 494.36,305.00 494.97,305.00 495.58,305.00 496.20,305.00 496.82,305.00 497.44,305.00 498.05,305.00 498.67,305.00 499.28,305.00 499.89,305.00 500.52,305.00 501.13,305.00 501.75,305.00 502.36,305.00 502.97,305.00 503.58,305.00 504.19,305.00 504.80,305.00 505.42,305.00 506.03,305.00 506.65,305.00 507.26,305.00 507.87,305.00 508.49,305.00 509.12,305.00 509.74,305.00 510.34,305.00 510.96,305.00 511.57,305.00 512.18,305.00 512.80,305.00 513.41,305.00 514.03,305.00 514.64,305.00 515.26,305.00 515.87,305.00 516.48,305.00 517.10,305.00 517.72,305.00 518.35,305.00 518.97,305.00 519.59,305.00 520.21,305.00 520.82,305.00 521.44,305.00 522.05,305.00 522.66,305.00 523.27,305.00 523.89,305.00 524.50,305.00 525.12,305.00 525.74,305.00 526.36,305.00 527.00,305.00 527.61,305.00 528.23,305.00 528.84,305.00 529.45,305.00 530.07,305.00 530.69,305.00 531.31,305.00 531.93,305.00 532.55,305.00 533.16,305.00 533.78,305.00 534.40,305.00 535.01,305.00 535.63,305.00 536.24,305.00 536.85,305.00 537.47,305.00 538.09,305.00 538.71,305.00 539.32,305.00 539.94,305.00 540.56,305.00 541.17,305.00 541.79,305.00 542.40,305.00 543.04,305.00 543.66,305.00 544.28,305.00 544.89,305.00 545.52,305.00 546.15,305.00 546.78,305.00 547.40,305.00 548.03,305.00 548.65,305.00 549.27,305.00 549.88,305.00 550.50,305.00 551.11,305.00 551.73,305.00 552.36,305.00 552.98,305.00 553.59,305.00 554.21,305.00 554.82,305.00 555.43,305.00 556.05,305.00 556.66,305.00 557.28,305.00 557.89,305.00 558.50,305.00 559.11,305.00 559.72,305.00 560.33,305.00 560.95,305.00 561.57,305.00 562.18,305.00 562.80,305.00 563.42,305.00 564.03,305.00 564.65,305.00 565.27,305.00 565.88,305.00 566.49,305.00 567.10,305.00 567.72,305.00 568.34,305.00 568.95,305.00 569.55,305.00 570.17,305.00 570.78,305.00 571.40,305.00 572.01,305.00 572.62,305.00 573.24,305.00 573.85,305.00 574.46,305.00 575.08,305.00 575.70,305.00 576.30,305.00 576.91,305.00 577.51,305.00 578.13,305.00 578.74,305.00 579.37,305.00 579.98,305.00 580.59,305.00 581.21,305.00 581.83,305.00 582.45,305.00 583.06,305.00 583.69,305.00 584.30,305.00 584.91,305.00 585.53,305.00 586.15,305.00 586.77,305.00 587.39,305.00 588.00,305.00 588.61,305.00 589.23,305.00 589.84,305.00 590.45,305.00 591.06,305.00 591.67,305.00 592.28,305.00 592.90,305.00 593.52,305.00 594.13,305.00 594.74,305.00 595.35,305.00 595.97,305.00 596.58,305.00 597.20,305.00 597.82,305.00 598.43,305.00 599.04,305.00 599.66,305.00 600.27,305.00 600.89,305.00 601.50,305.00 602.12,305.00 602.73,305.00 603.35,305.00 603.97,305.00 604.58,305.00 605.19,305.00 605.80,305.00 606.44,305.00 607.05,305.00 607.68,305.00 608.30,305.00 608.91,305.00 609.53,305.00 610.15,305.00 610.76,305.00 611.38,305.00 611.99,305.00 612.61,305.00 613.24,305.00 613.86,305.00 614.47,305.00 615.09,305.00 615.70,305.00 616.32,305.00 616.93,305.00 617.54,305.00 618.15,305.00 618.77,305.00 619.38,305.00 620.00,305.00 620.61,305.00 621.23,305.00 621.84,305.00 622.45,305.00 623.06,305.00 623.67,305.00 624.29,305.00 624.91,305.00 625.52,305.00 626.13,305.00 626.75,305.00 627.36,305.00 627.97,305.00 628.59,305.00 629.20,305.00 629.83,305.00 630.44,305.00 631.05,305.00 631.66,305.00 632.28,305.00 632.89,305.00 633.50,305.00 634.13,305.00 634.76,305.00 635.38,305.00 636.01,305.00 636.63,305.00 637.26,305.00 637.89,305.00 638.52,305.00 639.16,305.00 639.78,305.00 640.41,305.00 641.03,305.00 641.64,305.00 642.26,305.00 642.88,305.00 643.49,305.00 644.11,305.00 644.73,305.00 645.34,305.00 645.96,305.00 646.57,305.00 647.18,305.00 647.80,305.00 648.41,305.00 649.02,305.00 649.64,305.00 650.25,305.00 650.87,305.00 651.48,305.00 652.11,305.00 652.72,305.00 653.34,305.00 653.95,305.00 654.56,305.00 655.18,305.00 655.80,305.00 656.41,305.00 657.03,305.00 657.64,305.00 658.26,305.00 658.87,305.00 659.48,305.00 660.10,305.00 660.71,305.00 661.33,305.00 661.99,305.00 662.62,305.00 663.23,305.00 663.85,305.00 664.46,305.00 665.08,305.00 665.70,305.00 666.32,305.00 666.94,305.00 667.55,305.00 668.15,305.00 668.77,305.00 669.38,305.00 669.99,305.00 670.61,305.00 671.22,305.00 671.84,305.00 672.46,305.00 673.08,305.00 673.69,305.00 674.30,305.00 674.92,305.00 675.53,305.00 676.15,305.00 676.76,305.00 677.38,305.00 678.00,305.00 678.61,305.00 679.23,305.00 679.87,305.00 680.48,305.00 681.10,305.00 681.71,305.00 682.33,305.00 682.94,305.00 683.56,305.00 684.18,305.00 684.79,305.00 685.41,305.00 686.02,305.00 686.65,305.00 687.27,305.00 687.89,305.00 688.50,305.00 689.11,305.00 689.73,305.00 690.34,305.00 690.96,305.00 691.57,305.00 692.19,305.00 692.81,305.00 693.42,305.00 694.04,305.00 694.65,305.00 695.26,305.00 695.88,305.00 696.49,305.00 697.10,305.00 697.72,305.00 698.34,305.00 698.95,305.00 699.56,305.00 700.18,305.00 700.80,305.00 701.41,305.00 702.03,305.00 702.64,305.00 703.25,305.00 703.86,305.00 704.47,305.00 705.09,305.00 705.70,305.00 706.34,305.00 706.95,305.00 707.57,305.00 708.19,305.00 708.80,305.00 709.42,305.00 710.08,305.00 710.71,305.00 711.33,305.00 711.95,305.00 712.57,305.00 713.19,305.00 713.80,305.00 714.42,305.00 715.03,305.00 715.65,305.00 716.27,305.00 716.88,305.00 717.50,305.00 718.13,305.00 718.74,305.00 719.36,305.00 719.97,305.00 720.59,305.00 721.21,305.00 721.82,305.00 722.44,305.00 723.05,305.00 723.67,305.00 724.29,305.00 724.90,305.00 725.52,305.00 726.14,305.00 726.76,305.00 727.38,305.00 728.00,305.00 728.62,305.00 729.22,305.00 729.84,305.00 730.46,305.00 731.07,305.00 731.68,305.00 732.30,305.00 732.91,305.00 733.53,305.00 734.15,305.00 734.76,305.00 735.37,305.00 735.99,305.00 736.61,305.00 737.22,305.00 737.84,305.00 738.46,305.00 739.08,305.00 739.70,305.00 740.30,305.00 740.90,305.00 741.51,305.00 742.13,305.00 742.74,305.00 743.36,305.00 743.99,305.00 744.60,305.00 745.22,305.00 745.84,305.00 746.45,305.00 747.07,305.00 747.68,305.00 748.29,305.00 748.90,305.00 749.51,305.00 750.13,305.00 750.75,305.00 751.36,305.00 751.97,305.00 752.58,305.00 753.20,305.00 753.81,305.00 754.43,305.00 755.04,305.00 755.65,305.00 756.24,305.00 756.87,305.00 757.49,305.00 758.10,305.00 758.72,305.00 759.35,305.00 759.96,305.00 760.57,305.00 761.19,305.00 761.80,305.00 762.42,305.00 763.03,305.00 763.69,305.00 764.31,305.00 764.93,305.00 765.54,305.00 766.17,305.00 766.77,305.00 767.39,305.00 768.01,305.00 768.62,305.00 769.24,305.00 769.85,305.00 770.46,305.00 771.08,305.00 771.70,305.00 772.32,305.00 772.93,305.00 773.54,305.00 774.16,305.00 774.78,305.00 775.40,305.00 776.01,305.00 776.64,305.00 777.26,305.00 777.88,305.00 778.50,305.00 779.11,305.00 779.73,305.00 780.35,305.00 780.97,305.00 781.58,305.00 782.19,305.00 782.81,305.00 783.42,305.00 784.04,305.00 784.66,305.00 785.27,305.00 785.89,305.00 786.51,305.00 787.11,305.00 787.73,305.00 788.34,305.00 788.96,305.00 789.57,305.00 790.18,305.00 790.80,305.00 791.41,305.00 792.02,305.00 792.63,305.00 793.24,305.00 793.85,305.00 794.47,305.00 795.08,305.00 795.69,305.00 796.30,305.00 796.92,305.00 797.53,305.00 798.15,305.00 798.76,305.00 799.37,305.00 799.98,305.00 800.59,305.00 801.22,305.00 801.82,305.00 802.44,305.00 803.05,305.00 803.70,305.00 804.30,305.00 804.92,305.00 805.54,305.00 806.16,305.00 806.78,305.00 807.39,305.00 808.01,305.00 808.62,305.00 809.24,305.00 809.85,305.00 810.46,305.00 811.07,305.00 811.69,305.00 812.31,305.00 812.92,305.00 813.53,305.00 814.14,305.00 814.75,305.00 815.37,305.00 815.99,305.00 816.63,305.00 817.25,305.00 817.86,305.00 818.46,305.00 819.07,305.00 819.70,305.00 820.31,305.00 820.92,305.00 821.54,305.00 822.15,305.00 822.77,305.00 823.39,305.00 824.00,305.00 824.62,305.00 825.23,305.00 825.85,305.00 826.47,305.00 827.08,305.00 827.69,305.00 828.30,305.00 828.91,305.00 829.52,305.00 830.14,305.00 830.75,305.00 831.36,305.00 831.98,305.00 832.59,305.00 833.21,305.00 833.82,305.00 834.44,305.00 835.05,305.00 835.66,305.00 836.28,305.00 836.90,305.00 837.51,305.00 838.12,305.00 838.74,305.00 839.35,305.00 839.96,305.00 840.57,305.00 841.19,305.00 841.80,305.00 842.43,305.00 843.04,305.00 843.66,305.00 844.27,305.00 844.89,305.00 845.50,305.00 846.13,305.00 846.75,305.00 847.40,305.00 848.02,305.00 848.68,305.00 849.29,305.00 849.90,305.00 850.51,305.00 851.13,305.00 851.74,305.00 852.36,305.00 852.97,305.00 853.59,305.00 854.20,305.00 854.81,305.00 855.43,305.00 856.04,305.00 856.65,305.00 857.27,305.00 857.88,305.00 858.49,305.00 859.10,305.00 859.72,305.00 860.33,305.00 860.95,305.00 861.56,305.00 862.17,305.00 862.79,305.00 863.40,305.00 864.02,305.00 864.64,305.00 865.25,305.00 865.87,305.00 866.48,305.00 867.09,305.00 867.70,305.00 868.32,305.00 868.93,305.00 869.54,305.00 870.15,305.00 870.75,305.00 871.37,305.00 871.98,305.00 872.59,305.00 873.21,305.00 873.83,305.00 874.47,305.00 875.08,305.00 875.70,305.00 876.31,305.00 876.92,305.00 877.52,305.00 878.13,305.00 878.75,305.00 879.36,305.00 879.97,305.00 880.58,305.00 881.19,305.00 881.80,305.00 882.42,305.00 883.03,305.00 883.64,305.00 884.25,305.00 884.88,305.00 885.48,305.00 886.09,305.00 886.72,305.00 887.33,305.00 887.94,305.00 888.56,305.00 889.17,305.00 889.78,305.00 890.40,305.00 891.02,305.00 891.64,305.00 892.25,305.00 892.86,305.00 893.47,305.00 894.09,305.00 894.70,305.00 895.34,305.00 895.95,305.00 896.57,305.00 897.19,305.00 897.80,305.00 898.41,305.00 899.03,305.00 899.64,305.00 900.26,305.00 900.88,305.00 901.48,305.00 902.10,305.00 902.72,305.00 903.33,305.00 903.95,305.00 904.58,305.00 905.21,305.00 905.86,305.00 906.48,305.00 907.09,305.00 907.71,305.00 908.31,305.00 908.93,305.00 909.55,305.00 910.16,305.00 910.78,305.00 911.39,305.00 912.01,305.00 912.62,305.00 913.23,305.00 913.85,305.00 914.46,305.00 915.08,305.00 915.71,305.00 916.34,305.00 916.95,305.00 917.58,305.00 918.22,305.00 918.84,305.00 919.49,305.00 920.11,305.00 920.72,305.00 921.34,305.00 921.95,305.00 922.57,305.00 923.18,305.00 923.79,305.00 924.41,305.00 925.02,305.00 925.63,305.00 926.26,305.00 926.88,305.00 927.49,305.00 928.12,305.00 928.84,305.00 929.45,305.00 930.06,305.00 930.67,305.00 931.28,305.00 931.89,305.00 932.50,305.00 933.07,305.00 933.62,305.00 935.42,305.00 936.58,305.00 937.19,305.00 937.81,305.00 938.42,305.00 939.03,305.00 939.64,305.00 940.26,305.00 940.87,305.00 941.47,305.00 942.09,305.00 942.71,305.00 943.31,305.00 943.93,305.00 944.54,305.00 945.15,305.00 945.77,305.00 946.37,305.00 946.98,305.00 947.59,305.00 948.20,305.00 948.81,305.00 949.42,305.00 950.04,305.00 950.66,305.00 951.27,305.00 951.87,305.00 952.49,305.00 953.10,305.00 953.71,305.00 954.32,305.00 954.92,305.00 955.53,305.00 956.15,305.00 956.76,305.00 957.37,305.00 957.98,305.00 958.59,305.00 959.21,305.00 959.82,305.00 960.43,305.00 961.04,305.00 961.65,305.00 962.27,305.00 962.88,305.00 963.49,305.00 964.09,305.00 964.70,305.00 965.31,305.00 965.92,305.00 966.53,305.00 967.14,305.00 967.76,305.00 968.38,305.00 968.99,305.00 969.60,305.00 970.22,305.00 970.83,305.00 971.45,305.00 972.06,305.00 972.67,305.00 973.29,305.00 973.90,305.00 974.51,305.00 975.12,305.00 975.73,305.00 976.34,305.00 976.95,305.00 977.57,305.00 978.18,305.00 978.79,305.00 979.40,305.00 980.01,305.00 980.63,305.00 981.24,305.00 981.85,305.00 982.46,305.00 983.08,305.00 983.69,305.00 984.36,305.00 984.97,305.00 985.58,305.00 986.20,305.00 986.81,305.00 987.42,305.00 988.03,305.00 988.65,305.00 989.50,305.00 990.11,305.00 990.97,305.00 991.58,305.00 992.19,305.00 992.81,305.00 993.42,305.00 994.03,305.00 994.64,305.00 995.25,305.00 995.86,305.00 996.47,305.00 997.08,305.00 997.69,305.00 998.30,305.00 998.92,305.00 999.54,305.00 1000.15,305.00 1000.76,305.00 1001.38,305.00 1001.98,305.00 1002.61,305.00 1003.22,305.00 1003.83,305.00 1004.44,305.00 1005.05,305.00 1005.67,305.00 1006.28,305.00 1006.90,305.00 1007.51,305.00 1008.12,305.00 1008.74,305.00 1009.36,305.00 1009.98,305.00 1010.61,305.00 1011.23,305.00 1011.87,305.00 1012.48,305.00 1013.10,305.00 1013.71,305.00 1014.33,305.00 1014.94,305.00 1015.55,305.00 1016.16,305.00 1016.77,305.00 1017.40,305.00 1018.01,305.00 1018.63,305.00 1019.25,305.00 1019.86,305.00 1020.48,305.00 1021.09,305.00 1021.71,305.00 1022.32,305.00 1022.94,305.00 1023.56,305.00 1024.17,305.00 1024.79,305.00 1025.41,305.00 1026.03,305.00 1026.64,305.00 1027.25,305.00 1027.87,305.00 1028.48,305.00 1029.11,305.00 1029.73,305.00 1030.34,305.00 1030.96,305.00 1031.57,305.00 1032.19,305.00 1032.80,305.00 1033.42,305.00 1034.03,305.00 1034.64,305.00 1035.25,305.00 1035.86,305.00 1036.47,305.00 1037.09,305.00 1037.72,305.00 1038.34,305.00 1038.96,305.00 1039.57,305.00 1040.18,305.00 1040.80,305.00 1041.41,305.00 1042.02,305.00 1042.64,305.00 1043.25,305.00 1043.87,305.00 1044.48,305.00 1045.10,305.00 1045.72,305.00 1046.33,305.00 1046.94,305.00 1047.55,305.00 1048.17,305.00 1048.79,305.00 1049.41,305.00 1050.03,305.00 1050.64,305.00 1051.25,305.00 1051.87,305.00 1052.49,305.00 1053.10,305.00 1053.73,305.00 1054.34,305.00 1054.96,305.00 1055.58,305.00 1056.19,305.00 1056.80,305.00 1057.41,305.00 1058.03,305.00 1058.65,305.00 1059.27,305.00 1059.89,305.00 1060.52,305.00 1061.14,305.00 1061.75,305.00 1062.37,305.00 1062.98,305.00 1063.59,305.00 1064.21,305.00 1064.83,305.00 1065.45,305.00 1066.06,305.00 1066.68,305.00 1067.30,305.00 1067.91,305.00 1068.53,305.00 1069.14,305.00 1069.75,305.00 1070.38,305.00 1071.00,305.00 1071.62,305.00 1072.24,305.00 1072.86,305.00 1073.47,305.00 1074.09,305.00 1074.70,305.00 1075.32,305.00 1075.96,305.00 1076.57,305.00 1077.18,305.00 1077.80,305.00 1078.42,305.00 1079.03,305.00 1079.67,305.00 1080.28,305.00 1080.91,305.00 1081.53,305.00 1082.15,305.00 1082.77,305.00 1083.42,305.00 1084.03,305.00 1084.66,305.00 1085.27,305.00 1085.88,305.00 1086.50,305.00 1087.11,305.00 1087.73,305.00 1088.35,305.00 1088.96,305.00 1089.60,305.00 1090.21,305.00 1090.83,305.00 1091.45,305.00 1092.06,305.00 1092.68,305.00 1093.31,305.00 1093.92,305.00 1094.53,305.00 1095.16,305.00 1095.77,305.00 1096.38,305.00 1097.01,305.00 1097.63,305.00 1098.24,305.00 1098.85,305.00 1099.45,305.00 1100.07,305.00 1100.68,305.00 1101.29,305.00 1101.93,305.00 1102.54,305.00 1103.15,305.00 1103.77,305.00 1104.38,305.00 1104.99,305.00 1105.61,305.00 1106.22,305.00 1106.84,305.00 1107.46,305.00 1108.07,305.00 1108.68,305.00 1109.30,305.00 1109.91,305.00 1110.55,305.00 1111.16,305.00 1111.78,305.00 1112.39,305.00 1113.00,305.00 1113.61,305.00 1114.22,305.00 1114.84,305.00 1115.46,305.00 1116.10,305.00 1116.72,305.00 1117.33,305.00 1117.94,305.00 1118.55,305.00 1119.16,305.00 1119.77,305.00 1120.38,305.00 1121.01,305.00 1121.62,305.00 1122.22,305.00 1122.83,305.00 1123.44,305.00 1124.06,305.00 1124.68,305.00 1125.29,305.00 1125.90,305.00 1126.51,305.00 1127.13,305.00 1127.75,305.00 1128.37,305.00 1128.98,305.00 1129.59,305.00 1130.20,305.00 1130.82,305.00 1131.45,305.00 1132.06,305.00 1132.67,305.00 1133.28,305.00 1133.89,305.00 1134.51,305.00 1135.12,305.00 1135.73,305.00 1136.34,305.00 1136.95,305.00 1137.57,305.00 1138.18,305.00 1138.79,305.00 1139.40,305.00 1140.00,305.00 1140.61,305.00 1141.23,305.00 1141.85,305.00 1142.46,305.00 1143.08,305.00 1143.69,305.00 1144.31,305.00 1144.92,305.00 1145.53,305.00 1146.14,305.00 1146.76,305.00 1147.37,305.00 1147.99,305.00 1148.60,305.00 1149.22,305.00 1149.83,305.00 1150.45,305.00 1151.07,305.00 1151.68,305.00 1152.31,305.00 1152.93,305.00 1153.54,305.00 1154.16,305.00 1154.77,305.00 1155.38,305.00 1155.99,305.00 1156.60,305.00 1157.21,305.00 1157.83,305.00 1158.44,305.00 1159.05,305.00 1159.69,305.00 1160.30,305.00 1160.92,305.00 1161.53,305.00 1162.14,305.00 1162.78,305.00 1163.40,305.00 1164.04,305.00 1164.65,305.00 1165.25,305.00 1165.86,305.00 1166.47,305.00 1167.08,305.00 1167.70,305.00 1168.32,305.00 1168.93,305.00 1169.55,305.00 1170.16,305.00 1170.78,305.00 1171.39,305.00 1172.00,305.00 1172.62,305.00 1173.24,305.00 1173.87,305.00 1174.49,305.00 1175.10,305.00 1175.72,305.00 1176.33,305.00 1176.94,305.00 1177.55,305.00 1178.16,305.00 1178.77,305.00 1179.39,305.00 1180.00,305.00"/>
<polyline fill="none" stroke="#9467bd" stroke-opacity="0.65" stroke-width="2" points="327.61,305.00 328.24,305.00 328.85,305.00 329.48,305.00 330.09,305.00 330.70,305.00 331.31,305.00 331.93,305.00 332.54,305.00 333.16,305.00 333.77,305.00 334.40,305.00 335.00,305.00 335.61,305.00 336.22,305.00 336.82,305.00 337.43,305.00 338.04,305.00 338.66,305.00 339.26,305.00 339.88,305.00 340.49,305.00 341.09,305.00 341.71,305.00 342.32,305.00 342.93,305.00 343.55,305.00 344.16,305.00 344.77,305.00 345.38,305.00 346.00,305.00 346.63,305.00 347.23,305.00 347.84,305.00 348.45,305.00 349.05,305.00 349.66,305.00 350.28,305.00 350.89,305.00 351.49,305.00 352.11,305.00 352.71,305.00 353.32,305.00 353.94,305.00 354.55,305.00 355.16,305.00 355.90,305.00 356.53,305.00 357.15,305.00 357.77,305.00 358.38,305.00 359.00,305.00 359.61,305.00 360.21,305.00 360.83,305.00 361.45,305.00 362.06,305.00 362.67,305.00 363.28,305.00 363.89,305.00 364.53,305.00 365.15,305.00 365.76,305.00 366.37,305.00 366.98,305.00 367.59,305.00 368.20,305.00 368.81,305.00 369.45,305.00 370.06,305.00 370.68,305.00 371.29,305.00 371.90,305.00 372.52,305.00 373.12,305.00 373.74,305.00 374.35,305.00 374.96,305.00 375.58,305.00 376.19,305.00 376.80,305.00 377.41,305.00 378.02,305.00 378.64,305.00 379.26,305.00 379.86,305.00 380.47,305.00 381.08,305.00 381.70,305.00 382.32,305.00 383.05,305.00 383.68,305.00 384.29,305.00 384.91,305.00 385.51,305.00 386.13,305.00 386.74,305.00 387.35,305.00 387.98,305.00 388.59,305.00 389.20,305.00 389.80,305.00 390.42,305.00 391.03,305.00 391.64,305.00 392.25,305.00 392.86,305.00 393.47,305.00 394.08,305.00 394.69,305.00 395.31,305.00 395.92,305.00 396.52,305.00 397.14,305.00 397.76,305.00 398.37,305.00 398.98,305.00 399.59,305.00 400.22,305.00 400.83,305.00 401.44,305.00 402.06,305.00 402.67,305.00 403.28,305.00 403.89,305.00 404.51,305.00 405.13,305.00 405.74,305.00 406.35,305.00 406.96,305.00 407.57,305.00 408.18,305.00 408.79,305.00 409.40,305.00 410.02,305.00 410.64,305.00 411.26,305.00 411.85,305.00 412.47,305.00 413.08,305.00 413.69,305.00 414.30,305.00 414.92,305.00 415.52,305.00 416.14,305.00 416.76,305.00 417.37,305.00 417.98,305.00 418.60,305.00 419.22,305.00 419.83,305.00 420.44,305.00 421.13,305.00 421.80,305.00 422.46,305.00 423.08,305.00 423.71,305.00 424.33,305.00 424.94,305.00 425.55,305.00 426.12,305.00 426.76,305.00 427.37,305.00 427.99,305.00 428.59,305.00 429.21,305.00 429.81,305.00 430.43,305.00 431.04,305.00 431.65,305.00 432.26,305.00 432.88,305.00 433.49,305.00 434.11,305.00 434.72,305.00 435.34,305.00 435.96,305.00 436.57,305.00 437.18,305.00 437.81,305.00 438.42,305.00 439.03,305.00 439.64,305.00 440.25,305.00 440.86,305.00 441.47,305.00 442.09,305.00 442.70,305.00 443.32,305.00 443.93,305.00 444.54,305.00 445.15,305.00 445.76,305.00 446.38,305.00 446.99,305.00 447.60,305.00 448.22,305.00 448.83,305.00 449.45,305.00 450.06,305.00 450.68,305.00 451.29,305.00 451.91,305.00 452.52,305.00 453.13,305.00 453.75,305.00 454.38,305.00 455.00,305.00 455.61,305.00 456.22,305.00 456.84,305.00 457.45,305.00 458.06,305.00 458.68,305.00 459.29,305.00 459.90,305.00 460.52,305.00 461.13,305.00 461.75,305.00 462.37,305.00 462.98,305.00 463.60,305.00 464.21,305.00 464.83,305.00 465.45,305.00 466.06,305.00 466.67,305.00 467.29,305.00 467.90,305.00 468.53,305.00 469.14,305.00 469.76,305.00 470.38,305.00 470.99,305.00 471.60,305.00 472.21,305.00 472.83,305.00 473.44,305.00 474.05,305.00 474.67,305.00 475.28,305.00 475.89,305.00 476.51,305.00 477.12,305.00 477.73,305.00 478.36,305.00 478.97,305.00 479.59,305.00 480.20,305.00 480.81,305.00 481.42,305.00 482.03,305.00 482.64,305.00 483.26,305.00 483.88,305.00 484.49,305.00 485.11,305.00 485.72,305.00 486.34,305.00 486.96,305.00 487.57,305.00 488.18,305.00 488.80,305.00 489.42,305.00 490.03,305.00 490.65,305.00 491.27,305.00 491.88,305.00 492.50,305.00 493.12,305.00 493.74,305.00 494.36,305.00 494.97,305.00 495.58,305.00 496.20,305.00 496.82,305.00 497.44,305.00 498.05,305.00 498.67,305.00 499.28,305.00 499.89,305.00 500.52,305.00 501.13,305.00 501.75,305.00 502.36,305.00 502.97,305.00 503.58,305.00 504.19,305.00 504.80,305.00 505.42,305.00 506.03,305.00 506.65,305.00 507.26,305.00 507.87,305.00 508.49,305.00 509.12,305.00 509.74,305.00 510.34,305.00 510.96,305.00 511.57,305.00 512.18,305.00 512.80,305.00 513.41,305.00 514.03,305.00 514.64,305.00 515.26,305.00 515.87,305.00 516.48,305.00 517.10,305.00 517.72,305.00 518.35,305.00 518.97,305.00 519.59,305.00 520.21,305.00 520.82,305.00 521.44,305.00 522.05,305.00 522.66,305.00 523.27,305.00 523.89,305.00 524.50,305.00 525.12,305.00 525.74,305.00 526.36,305.00 527.00,305.00 527.61,305.00 528.23,305.00 528.84,305.00 529.45,305.00 530.07,305.00 530.69,305.00 531.31,305.00 531.93,305.00 532.55,305.00 533.16,305.00 533.78,305.00 534.40,305.00 535.01,305.00 535.63,305.00 536.24,305.00 536.85,305.00 537.47,305.00 538.09,305.00 538.71,305.00 539.32,305.00 539.94,305.00 540.56,305.00 541.17,305.00 541.79,305.00 542.40,305.00 543.04,305.00 543.66,305.00 544.28,305.00 544.89,305.00 545.52,305.00 546.15,305.00 546.78,305.00 547.40,305.00 548.03,305.00 548.65,305.00 549.27,305.00 549.88,305.00 550.50,305.00 551.11,305.00 551.73,305.00 552.36,305.00 552.98,305.00 553.59,305.00 554.21,305.00 554.82,305.00 555.43,305.00 556.05,305.00 556.66,305.00 557.28,305.00 557.89,305.00 558.50,305.00 559.11,305.00 559.72,305.00 560.33,305.00 560.95,305.00 561.57,305.00 562.18,305.00 562.80,305.00 563.42,305.00 564.03,305.00 564.65,305.00 565.27,305.00 565.88,305.00 566.49,305.00 567.10,305.00 567.72,305.00 568.34,305.00 568.95,305.00 569.55,305.00 570.17,305.00 570.78,305.00 571.40,305.00 572.01,305.00 572.62,305.00 573.24,305.00 573.85,305.00 574.46,305.00 575.08,305.00 575.70,305.00 576.30,305.00 576.91,305.00 577.51,305.00 578.13,305.00 578.74,305.00 579.37,305.00 579.98,305.00 580.59,305.00 581.21,305.00 581.83,305.00 582.45,305.00 583.06,305.00 583.69,305.00 584.30,305.00 584.91,305.00 585.53,305.00 586.15,305.00 586.77,305.00 587.39,305.00 588.00,305.00 588.61,305.00 589.23,305.00 589.84,305.00 590.45,305.00 591.06,305.00 591.67,305.00 592.28,305.00 592.90,305.00 593.52,305.00 594.13,305.00 594.74,305.00 595.35,305.00 595.97,305.00 596.58,305.00 597.20,305.00 597.82,305.00 598.43,305.00 599.04,305.00 599.66,305.00 600.27,305.00 600.89,305.00 601.50,305.00 602.12,305.00 602.73,305.00 603.35,305.00 603.97,305.00 604.58,305.00 605.19,305.00 605.80,305.00 606.44,305.00 607.05,305.00 607.68,305.00 608.30,305.00 608.91,305.00 609.53,305.00 610.15,305.00 610.76,305.00 611.38,305.00 611.99,305.00 612.61,305.00 613.24,305.00 613.86,305.00 614.47,305.00 615.09,305.00 615.70,305.00 616.32,305.00 616.93,305.00 617.54,305.00 618.15,305.00 618.77,305.00 619.38,305.00 620.00,305.00 620.61,305.00 621.23,305.00 621.84,305.00 622.45,305.00 623.06,305.00 623.67,305.00 624.29,305.00 624.91,305.00 625.52,305.00 626.13,305.00 626.75,305.00 627.36,305.00 627.97,305.00 628.59,305.00 629.20,305.00 629.83,305.00 630.44,305.00 631.05,305.00 631.66,305.00 632.28,305.00 632.89,305.00 633.50,305.00 634.13,305.00 634.76,305.00 635.38,305.00 636.01,305.00 636.63,305.00 637.26,305.00 637.89,305.00 638.52,305.00 639.16,305.00 639.78,305.00 640.41,305.00 641.03,305.00 641.64,305.00 642.26,305.00 642.88,305.00 643.49,305.00 644.11,305.00 644.73,305.00 645.34,305.00 645.96,305.00 646.57,305.00 647.18,305.00 647.80,305.00 648.41,305.00 649.02,305.00 649.64,305.00 650.25,305.00 650.87,305.00 651.48,305.00 652.11,305.00 652.72,305.00 653.34,305.00 653.95,305.00 654.56,305.00 655.18,305.00 655.80,305.00 656.41,305.00 657.03,305.00 657.64,305.00 658.26,305.00 658.87,305.00 659.48,305.00 660.10,305.00 660.71,305.00 661.33,305.00 661.99,305.00 662.62,305.00 663.23,305.00 663.85,305.00 664.46,305.00 665.08,305.00 665.70,305.00 666.32,305.00 666.94,305.00 667.55,305.00 668.15,305.00 668.77,305.00 669.38,305.00 669.99,305.00 670.61,305.00 671.22,305.00 671.84,305.00 672.46,305.00 673.08,305.00 673.69,305.00 674.30,305.00 674.92,305.00 675.53,305.00 676.15,305.00 676.76,305.00 677.38,305.00 678.00,305.00 678.61,305.00 679.23,305.00 679.87,305.00 680.48,305.00 681.10,305.00 681.71,305.00 682.33,305.00 682.94,305.00 683.56,305.00 684.18,305.00 684.79,305.00 685.41,305.00 686.02,305.00 686.65,305.00 687.27,305.00 687.89,305.00 688.50,305.00 689.11,305.00 689.73,305.00 690.34,305.00 690.96,305.00 691.57,305.00 692.19,305.00 692.81,305.00 693.42,305.00 694.04,305.00 694.65,305.00 695.26,305.00 695.88,305.00 696.49,305.00 697.10,305.00 697.72,305.00 698.34,305.00 698.95,305.00 699.56,305.00 700.18,305.00 700.80,305.00 701.41,305.00 702.03,305.00 702.64,305.00 703.25,305.00 703.86,305.00 704.47,305.00 705.09,305.00 705.70,305.00 706.34,305.00 706.95,305.00 707.57,305.00 708.19,305.00 708.80,305.00 709.42,305.00 710.08,305.00 710.71,305.00 711.33,305.00 711.95,305.00 712.57,305.00 713.19,305.00 713.80,305.00 714.42,305.00 715.03,305.00 715.65,305.00 716.27,305.00 716.88,305.00 717.50,305.00 718.13,305.00 718.74,305.00 719.36,305.00 719.97,305.00 720.59,305.00 721.21,305.00 721.82,305.00 722.44,305.00 723.05,305.00 723.67,305.00 724.29,305.00 724.90,305.00 725.52,305.00 726.14,305.00 726.76,305.00 727.38,305.00 728.00,305.00 728.62,305.00 729.22,305.00 729.84,305.00 730.46,305.00 731.07,305.00 731.68,305.00 732.30,305.00 732.91,305.00 733.53,305.00 734.15,305.00 734.76,305.00 735.37,305.00 735.99,305.00 736.61,305.00 737.22,305.00 737.84,305.00 738.46,305.00 739.08,305.00 739.70,305.00 740.30,305.00 740.90,305.00 741.51,305.00 742.13,305.00 742.74,305.00 743.36,305.00 743.99,305.00 744.60,305.00 745.22,305.00 745.84,305.00 746.45,305.00 747.07,305.00 747.68,305.00 748.29,305.00 748.90,305.00 749.51,305.00 750.13,305.00 750.75,305.00 751.36,305.00 751.97,305.00 752.58,305.00 753.20,305.00 753.81,305.00 754.43,305.00 755.04,305.00 755.65,305.00 756.24,305.00 756.87,305.00 757.49,305.00 758.10,305.00 758.72,305.00 759.35,305.00 759.96,305.00 760.57,305.00 761.19,305.00 761.80,305.00 762.42,305.00 763.03,305.00 763.69,305.00 764.31,305.00 764.93,305.00 765.54,305.00 766.17,305.00 766.77,305.00 767.39,305.00 768.01,305.00 768.62,305.00 769.24,305.00 769.85,305.00 770.46,305.00 771.08,305.00 771.70,305.00 772.32,305.00 772.93,305.00 773.54,305.00 774.16,305.00 774.78,305.00 775.40,305.00 776.01,305.00 776.64,305.00 777.26,305.00 777.88,305.00 778.50,305.00 779.11,305.00 779.73,305.00 780.35,305.00 780.97,305.00 781.58,305.00 782.19,305.00 782.81,305.00 783.42,305.00 784.04,305.00 784.66,305.00 785.27,305.00 785.89,305.00 786.51,305.00 787.11,305.00 787.73,305.00 788.34,305.00 788.96,305.00 789.57,305.00 790.18,305.00 790.80,305.00 791.41,305.00 792.02,305.00 792.63,305.00 793.24,305.00 793.85,305.00 794.47,305.00 795.08,305.00 795.69,305.00 796.30,305.00 796.92,305.00 797.53,305.00 798.15,305.00 798.76,305.00 799.37,305.00 799.98,305.00 800.59,305.00 801.22,305.00 801.82,305.00 802.44,305.00 803.05,305.00 803.70,305.00 804.30,305.00 804.92,305.00 805.54,305.00 806.16,305.00 806.78,305.00 807.39,305.00 808.01,305.00 808.62,305.00 809.24,305.00 809.85,305.00 810.46,305.00 811.07,305.00 811.69,305.00 812.31,305.00 812.92,305.00 813.53,305.00 814.14,305.00 814.75,305.00 815.37,305.00 815.99,305.00 816.63,305.00 817.25,305.00 817.86,305.00 818.46,305.00 819.07,305.00 819.70,305.00 820.31,305.00 820.92,305.00 821.54,305.00 822.15,305.00 822.77,305.00 823.39,305.00 824.00,305.00 824.62,305.00 825.23,305.00 825.85,305.00 826.47,305.00 827.08,305.00 827.69,305.00 828.30,305.00 828.91,305.00 829.52,305.00 830.14,305.00 830.75,305.00 831.36,305.00 831.98,305.00 832.59,305.00 833.21,305.00 833.82,305.00 834.44,305.00 835.05,305.00 835.66,305.00 836.28,305.00 836.90,305.00 837.51,305.00 838.12,305.00 838.74,305.00 839.35,305.00 839.96,305.00 840.57,305.00 841.19,305.00 841.80,305.00 842.43,305.00 843.04,305.00 843.66,305.00 844.27,305.00 844.89,305.00 845.50,305.00 846.13,305.00 846.75,305.00 847.40,305.00 848.02,305.00 848.68,305.00 849.29,305.00 849.90,305.00 850.51,305.00 851.13,305.00 851.74,305.00 852.36,305.00 852.97,305.00 853.59,305.00 854.20,305.00 854.81,305.00 855.43,305.00 856.04,305.00 856.65,305.00 857.27,305.00 857.88,305.00 858.49,305.00 859.10,305.00 859.72,305.00 860.33,305.00 860.95,305.00 861.56,305.00 862.17,305.00 862.79,305.00 863.40,305.00 864.02,305.00 864.64,305.00 865.25,305.00 865.87,305.00 866.48,305.00 867.09,305.00 867.70,305.00 868.32,305.00 868.93,305.00 869.54,305.00 870.15,305.00 870.75,305.00 871.37,305.00 871.98,305.00 872.59,305.00 873.21,305.00 873.83,305.00 874.47,305.00 875.08,305.00 875.70,305.00 876.31,305.00 876.92,305.00 877.52,305.00 878.13,305.00 878.75,305.00 879.36,305.00 879.97,305.00 880.58,305.00 881.19,305.00 881.80,305.00 882.42,305.00 883.03,305.00 883.64,305.00 884.25,305.00 884.88,305.00 885.48,305.00 886.09,305.00 886.72,305.00 887.33,305.00 887.94,305.00 888.56,305.00 889.17,305.00 889.78,305.00 890.40,305.00 891.02,305.00 891.64,305.00 892.25,305.00 892.86,305.00 893.47,305.00 894.09,305.00 894.70,305.00 895.34,305.00 895.95,305.00 896.57,305.00 897.19,305.00 897.80,305.00 898.41,305.00 899.03,305.00 899.64,305.00 900.26,305.00 900.88,305.00 901.48,305.00 902.10,305.00 902.72,305.00 903.33,305.00 903.95,305.00 904.58,305.00 905.21,305.00 905.86,305.00 906.48,305.00 907.09,305.00 907.71,305.00 908.31,305.00 908.93,305.00 909.55,305.00 910.16,305.00 910.78,305.00 911.39,305.00 912.01,305.00 912.62,305.00 913.23,305.00 913.85,305.00 914.46,305.00 915.08,305.00 915.71,305.00 916.34,305.00 916.95,305.00 917.58,305.00 918.22,305.00 918.84,305.00 919.49,305.00 920.11,305.00 920.72,305.00 921.34,305.00 921.95,305.00 922.57,305.00 923.18,305.00 923.79,305.00 924.41,305.00 925.02,305.00 925.63,305.00 926.26,305.00 926.88,305.00 927.49,305.00 928.12,305.00 928.84,305.00 929.45,305.00 930.06,305.00 930.67,305.00 931.28,305.00 931.89,305.00 933.62,305.00 934.28,305.00 934.86,305.00 935.42,305.00 936.58,305.00 937.19,305.00 937.81,305.00 938.42,305.00 939.03,305.00 939.64,305.00 940.26,305.00 940.87,305.00 941.47,305.00 942.09,305.00 942.71,305.00 943.31,305.00 943.93,305.00 944.54,305.00 945.15,305.00 945.77,305.00 946.37,305.00 946.98,305.00 947.59,305.00 948.20,305.00 948.81,305.00 949.42,305.00 950.04,305.00 950.66,305.00 951.27,305.00 951.87,305.00 952.49,305.00 953.10,305.00 953.71,305.00 954.32,305.00 954.92,305.00 955.53,305.00 956.15,305.00 956.76,305.00 957.37,305.00 957.98,305.00 958.59,305.00 959.21,305.00 959.82,305.00 960.43,305.00 961.04,305.00 961.65,305.00 962.27,305.00 962.88,305.00 963.49,305.00 964.09,305.00 964.70,305.00 965.31,305.00 965.92,305.00 966.53,305.00 967.14,305.00 967.76,305.00 968.38,305.00 968.99,305.00 969.60,305.00 970.22,305.00 970.83,305.00 971.45,305.00 972.06,305.00 972.67,305.00 973.29,305.00 973.90,305.00 974.51,305.00 975.12,305.00 975.73,305.00 976.34,305.00 976.95,305.00 977.57,305.00 978.18,305.00 978.79,305.00 979.40,305.00 980.01,305.00 980.63,305.00 981.24,305.00 981.85,305.00 982.46,305.00 983.08,305.00 983.69,305.00 984.36,305.00 984.97,305.00 985.58,305.00 986.20,305.00 986.81,305.00 987.42,305.00 988.03,305.00 988.65,305.00 989.50,305.00 990.11,305.00 990.97,305.00 991.58,305.00 992.19,305.00 992.81,305.00 993.42,305.00 994.03,305.00 994.64,305.00 995.25,305.00 995.86,305.00 996.47,305.00 997.08,305.00 997.69,305.00 998.30,305.00 998.92,305.00 999.54,305.00 1000.15,305.00 1000.76,305.00 1001.38,305.00 1001.98,305.00 1002.61,305.00 1003.22,305.00 1003.83,305.00 1004.44,305.00 1005.05,305.00 1005.67,305.00 1006.28,305.00 1006.90,305.00 1007.51,305.00 1008.12,305.00 1008.74,305.00 1009.36,305.00 1009.98,305.00 1010.61,305.00 1011.23,305.00 1011.87,305.00 1012.48,305.00 1013.10,305.00 1013.71,305.00 1014.33,305.00 1014.94,305.00 1015.55,305.00 1016.16,305.00 1016.77,305.00 1017.40,305.00 1018.01,305.00 1018.63,305.00 1019.25,305.00 1019.86,305.00 1020.48,305.00 1021.09,305.00 1021.71,305.00 1022.32,305.00 1022.94,305.00 1023.56,305.00 1024.17,305.00 1024.79,305.00 1025.41,305.00 1026.03,305.00 1026.64,305.00 1027.25,305.00 1027.87,305.00 1028.48,305.00 1029.11,305.00 1029.73,305.00 1030.34,305.00 1030.96,305.00 1031.57,305.00 1032.19,305.00 1032.80,305.00 1033.42,305.00 1034.03,305.00 1034.64,305.00 1035.25,305.00 1035.86,305.00 1036.47,305.00 1037.09,305.00 1037.72,305.00 1038.34,305.00 1038.96,305.00 1039.57,305.00 1040.18,305.00 1040.80,305.00 1041.41,305.00 1042.02,305.00 1042.64,305.00 1043.25,305.00 1043.87,305.00 1044.48,305.00 1045.10,305.00 1045.72,305.00 1046.33,305.00 1046.94,305.00 1047.55,305.00 1048.17,305.00 1048.79,305.00 1049.41,305.00 1050.03,305.00 1050.64,305.00 1051.25,305.00 1051.87,305.00 1052.49,305.00 1053.10,305.00 1053.73,305.00 1054.34,305.00 1054.96,305.00 1055.58,305.00 1056.19,305.00 1056.80,305.00 1057.41,305.00 1058.03,305.00 1058.65,305.00 1059.27,305.00 1059.89,305.00 1060.52,305.00 1061.14,305.00 1061.75,305.00 1062.37,305.00 1062.98,305.00 1063.59,305.00 1064.21,305.00 1064.83,305.00 1065.45,305.00 1066.06,305.00 1066.68,305.00 1067.30,305.00 1067.91,305.00 1068.53,305.00 1069.14,305.00 1069.75,305.00 1070.38,305.00 1071.00,305.00 1071.62,305.00 1072.24,305.00 1072.86,305.00 1073.47,305.00 1074.09,305.00 1074.70,305.00 1075.32,305.00 1075.96,305.00 1076.57,305.00 1077.18,305.00 1077.80,305.00 1078.42,305.00 1079.03,305.00 1079.67,305.00 1080.28,305.00 1080.91,305.00 1081.53,305.00 1082.15,305.00 1082.77,305.00 1083.42,305.00 1084.03,305.00 1084.66,305.00 1085.27,305.00 1085.88,305.00 1086.50,305.00 1087.11,305.00 1087.73,305.00 1088.35,305.00 1088.96,305.00 1089.60,305.00 1090.21,305.00 1090.83,305.00 1091.45,305.00 1092.06,305.00 1092.68,305.00 1093.31,305.00 1093.92,305.00 1094.53,305.00 1095.16,305.00 1095.77,305.00 1096.38,305.00 1097.01,305.00 1097.63,305.00 1098.24,305.00 1098.85,305.00 1099.45,305.00 1100.07,305.00 1100.68,305.00 1101.29,305.00 1101.93,305.00 1102.54,305.00 1103.15,305.00 1103.77,305.00 1104.38,305.00 1104.99,305.00 1105.61,305.00 1106.22,305.00 1106.84,305.00 1107.46,305.00 1108.07,305.00 1108.68,305.00 1109.30,305.00 1109.91,305.00 1110.55,305.00 1111.16,305.00 1111.78,305.00 1112.39,305.00 1113.00,305.00 1113.61,305.00 1114.22,305.00 1114.84,305.00 1115.46,305.00 1116.10,305.00 1116.72,305.00 1117.33,305.00 1117.94,305.00 1118.55,305.00 1119.16,305.00 1119.77,305.00 1120.38,305.00 1121.01,305.00 1121.62,305.00 1122.22,305.00 1122.83,305.00 1123.44,305.00 1124.06,305.00 1124.68,305.00 1125.29,305.00 1125.90,305.00 1126.51,305.00 1127.13,305.00 1127.75,305.00 1128.37,305.00 1128.98,305.00 1129.59,305.00 1130.20,305.00 1130.82,305.00 1131.45,305.00 1132.06,305.00 1132.67,305.00 1133.28,305.00 1133.89,305.00 1134.51,305.00 1135.12,305.00 1135.73,305.00 1136.34,305.00 1136.95,305.00 1137.57,305.00 1138.18,305.00 1138.79,305.00 1139.40,305.00 1140.00,305.00 1140.61,305.00 1141.23,305.00 1141.85,305.00 1142.46,305.00 1143.08,305.00 1143.69,305.00 1144.31,305.00 1144.92,305.00 1145.53,305.00 1146.14,305.00 1146.76,305.00 1147.37,305.00 1147.99,305.00 1148.60,305.00 1149.22,305.00 1149.83,305.00 1150.45,305.00 1151.07,305.00 1151.68,305.00 1152.31,305.00 1152.93,305.00 1153.54,305.00 1154.16,305.00 1154.77,305.00 1155.38,305.00 1155.99,305.00 1156.60,305.00 1157.21,305.00 1157.83,305.00 1158.44,305.00 1159.05,305.00 1159.69,305.00 1160.30,305.00 1160.92,305.00 1161.53,305.00 1162.14,305.00 1162.78,305.00 1163.40,305.00 1164.04,305.00 1164.65,305.00 1165.25,305.00 1165.86,305.00 1166.47,305.00 1167.08,305.00 1167.70,305.00 1168.32,305.00 1168.93,305.00 1169.55,305.00 1170.16,305.00 1170.78,305.00 1171.39,305.00 1172.00,305.00 1172.62,305.00 1173.24,305.00 1173.87,305.00 1174.49,305.00 1175.10,305.00 1175.72,305.00 1176.33,305.00 1176.94,305.00 1177.55,305.00 1178.16,305.00 1178.77,305.00 1179.39,305.00 1180.00,305.00"/>
<polyline fill="none" stroke="#9467bd" stroke-opacity="0.50" stroke-width="2" points="70.00,305.00 70.61,305.00 71.23,305.00 71.84,305.00 72.45,305.00 73.07,305.00 73.67,305.00 74.29,305.00 74.95,305.00 75.56,305.00 76.17,305.00 76.78,305.00 77.40,305.00 78.00,305.00 78.61,305.00 79.71,305.00 80.66,305.00 81.28,305.00 81.91,305.00 82.52,305.00 83.13,305.00 83.73,305.00 84.34,305.00 84.95,305.00 85.57,305.00 86.19,305.00 86.81,305.00 87.42,305.00 88.04,305.00 88.68,305.00 89.30,305.00 89.91,305.00 90.53,305.00 91.15,305.00 91.76,305.00 92.39,305.00 93.00,305.00 93.61,305.00 94.23,305.00 94.83,305.00 95.45,305.00 96.05,305.00 96.66,305.00 97.28,305.00 97.88,305.00 98.51,305.00 99.13,305.00 99.73,305.00 100.34,305.00 100.96,305.00 101.57,305.00 102.27,305.00 102.88,305.00 103.49,305.00 104.10,305.00 104.71,305.00 105.31,305.00 105.92,305.00 106.53,305.00 107.14,305.00 107.77,305.00 108.38,305.00 108.98,305.00 109.60,305.00 110.22,305.00 110.83,305.00 111.44,305.00 112.05,305.00 112.65,305.00 113.26,305.00 113.87,305.00 114.48,305.00 115.09,305.00 115.70,305.00 116.31,305.00 116.92,305.00 117.53,305.00 118.14,305.00 118.75,305.00 119.36,305.00 119.98,305.00 120.59,305.00 121.20,305.00 121.82,305.00 122.43,305.00 123.04,305.00 123.65,305.00 124.26,305.00 124.86,305.00 125.48,305.00 126.09,305.00 126.70,305.00 127.32,305.00 127.92,305.00 128.54,305.00 129.15,305.00 129.76,305.00 130.36,305.00 130.97,305.00 131.58,305.00 132.20,305.00 132.81,305.00 133.42,305.00 134.03,305.00 134.65,305.00 135.27,305.00 135.88,305.00 136.48,305.00 137.10,305.00 137.70,305.00 138.32,305.00 138.93,305.00 139.54,305.00 140.15,305.00 140.77,305.00 141.38,305.00 142.00,305.00 142.62,305.00 143.23,305.00 143.84,305.00 144.45,305.00 145.06,305.00 145.67,305.00 146.29,305.00 146.95,305.00 147.56,305.00 148.18,305.00 148.79,305.00 149.39,305.00 150.00,305.00 150.60,305.00 151.21,305.00 151.82,305.00 152.43,305.00 153.04,305.00 153.65,305.00 154.26,305.00 154.87,305.00 155.49,305.00 156.10,305.00 156.71,305.00 157.32,305.00 157.93,305.00 158.54,305.00 159.15,305.00 159.76,305.00 160.38,305.00 160.99,305.00 161.60,305.00 162.20,305.00 162.81,305.00 163.42,305.00 164.03,305.00 164.65,305.00 165.26,305.00 165.88,305.00 166.49,305.00 167.10,305.00 167.72,305.00 168.32,305.00 168.94,305.00 169.55,305.00 170.17,305.00 170.79,305.00 171.40,305.00 172.01,305.00 172.62,305.00 173.22,305.00 173.83,305.00 174.45,305.00 175.05,305.00 175.66,305.00 176.27,305.00 176.88,305.00 177.50,305.00 178.11,305.00 178.72,305.00 179.35,305.00 179.96,305.00 180.57,305.00 181.17,305.00 181.78,305.00 182.45,305.00 183.07,305.00 183.68,305.00 184.28,305.00 184.89,305.00 185.50,305.00 186.11,305.00 186.73,305.00 187.34,305.00 187.95,305.00 188.56,305.00 189.17,305.00 189.79,305.00 190.40,305.00 191.01,305.00 191.62,305.00 192.24,305.00 192.86,305.00 193.49,305.00 194.09,305.00 194.70,305.00 195.32,305.00 195.92,305.00 196.54,305.00 197.15,305.00 197.77,305.00 198.38,305.00 198.98,305.00 199.60,305.00 200.21,305.00 200.82,305.00 201.44,305.00 202.05,305.00 202.67,305.00 203.27,305.00 203.88,305.00 204.49,305.00 205.10,305.00 205.71,305.00 206.32,305.00 206.93,305.00 207.53,305.00 208.14,305.00 208.76,305.00 209.37,305.00 209.99,305.00 210.61,305.00 211.22,305.00 211.83,305.00 212.44,305.00 213.06,305.00 213.67,305.00 214.28,305.00 214.89,305.00 215.51,305.00 216.13,305.00 216.74,305.00 217.35,305.00 217.96,305.00 218.57,305.00 219.18,305.00 219.79,305.00 220.40,305.00 221.02,305.00 221.63,305.00 222.24,305.00 222.86,305.00 223.47,305.00 224.08,305.00 224.69,305.00 225.31,305.00 225.92,305.00 226.53,305.00 227.15,305.00 227.76,305.00 228.38,305.00 228.99,305.00 229.60,305.00 230.28,305.00 230.89,305.00 231.50,305.00 232.12,305.00 232.73,305.00 233.35,305.00 233.96,305.00 234.57,305.00 235.18,305.00 235.81,305.00 236.43,305.00 237.04,305.00 237.65,305.00 238.26,305.00 238.87,305.00 239.48,305.00 240.12,305.00 240.73,305.00 241.34,305.00 241.96,305.00 242.62,305.00 243.23,305.00 244.00,305.00 245.03,305.00 245.66,305.00 246.28,305.00 246.89,305.00 247.49,305.00 248.10,305.00 248.72,305.00 249.34,305.00 249.95,305.00 250.59,305.00 251.22,305.00 251.87,305.00 252.48,305.00 253.09,305.00 253.71,305.00 254.33,305.00 254.95,305.00 255.56,305.00 256.17,305.00 256.78,305.00 257.42,305.00 258.03,305.00 258.64,305.00 259.25,305.00 259.87,305.00 260.51,305.00 261.12,305.00 261.74,305.00 262.37,305.00 262.95,305.00 263.56,305.00 264.18,305.00 264.79,305.00 265.41,305.00 266.04,305.00 266.66,305.00 267.27,305.00 267.89,305.00 268.50,305.00 269.12,305.00 269.73,305.00 270.33,305.00 270.95,305.00 271.56,305.00 272.17,305.00 272.90,305.00 273.62,305.00 274.34,305.00 275.05,305.00 275.75,305.00 276.46,305.00 277.18,305.00 277.89,305.00 278.51,305.00 279.11,305.00 279.72,305.00 280.33,305.00 280.94,305.00 281.55,305.00 282.16,305.00 282.76,305.00 283.38,305.00 283.99,305.00 284.60,305.00 285.21,305.00 285.82,305.00 286.42,305.00 287.03,305.00 287.64,305.00 288.25,305.00 288.86,305.00 289.47,305.00 290.09,305.00 290.69,305.00 291.30,305.00 291.90,305.00 292.51,305.00 293.13,305.00 293.74,305.00 294.35,305.00 294.96,305.00 295.57,305.00 296.18,305.00 296.79,305.00 297.40,305.00 298.01,305.00 298.62,305.00 299.22,305.00 299.82,305.00 300.43,305.00 301.04,305.00 301.64,305.00 302.25,305.00 302.86,305.00 303.47,305.00 304.08,305.00 304.68,305.00 305.28,305.00 305.91,305.00 306.57,305.00 307.18,305.00 307.79,305.00 308.40,305.00 309.01,305.00 309.62,305.00 310.22,305.00 310.83,305.00 311.55,305.00 312.27,305.00 312.98,305.00 313.69,305.00 314.41,305.00 315.13,305.00 315.86,305.00 316.60,305.00 317.26,305.00 317.92,305.00 318.53,305.00 319.15,305.00 319.76,305.00 320.37,305.00 320.97,305.00 321.59,305.00 322.19,305.00 322.80,305.00 323.41,305.00 324.02,305.00 324.63,305.00 325.24,305.00 325.86,305.00 326.47,305.00 327.08,305.00 327.61,305.00 328.24,305.00 328.85,305.00 329.48,305.00 330.09,305.00 330.70,305.00 331.31,305.00 331.93,305.00 332.54,305.00 333.16,305.00 333.77,305.00 334.40,305.00 335.00,305.00 335.61,305.00 336.22,305.00 336.82,305.00 337.43,305.00 338.04,305.00 338.66,305.00 339.26,305.00 339.88,305.00 340.49,305.00 341.09,305.00 341.71,305.00 342.32,305.00 342.93,305.00 343.55,305.00 344.16,305.00 344.77,305.00 345.38,305.00 346.00,305.00 346.63,305.00 347.23,305.00 347.84,305.00 348.45,305.00 349.05,305.00 349.66,305.00 350.28,305.00 350.89,305.00 351.49,305.00 352.11,305.00 352.71,305.00 353.32,305.00 353.94,305.00 354.55,305.00 355.16,305.00 355.90,305.00 356.53,305.00 357.15,305.00 357.77,305.00 358.38,305.00 359.00,305.00 359.61,305.00 360.21,305.00 360.83,305.00 361.45,305.00 362.06,305.00 362.67,305.00 363.28,305.00 363.89,305.00 364.53,305.00 365.15,305.00 365.76,305.00 366.37,305.00 366.98,305.00 367.59,305.00 368.20,305.00 368.81,305.00 369.45,305.00 370.06,305.00 370.68,305.00 371.29,305.00 371.90,305.00 372.52,305.00 373.12,305.00 373.74,305.00 374.35,305.00 374.96,305.00 375.58,305.00 376.19,305.00 376.80,305.00 377.41,305.00 378.02,305.00 378.64,305.00 379.26,305.00 379.86,305.00 380.47,305.00 381.08,305.00 381.70,305.00 382.32,305.00 383.05,305.00 383.68,305.00 384.29,305.00 384.91,305.00 385.51,305.00 386.13,305.00 386.74,305.00 387.35,305.00 387.98,305.00 388.59,305.00 389.20,305.00 389.80,305.00 390.42,305.00 391.03,305.00 391.64,305.00 392.25,305.00 392.86,305.00 393.47,305.00 394.08,305.00 394.69,305.00 395.31,305.00 395.92,305.00 396.52,305.00 397.14,305.00 397.76,305.00 398.37,305.00 398.98,305.00 399.59,305.00 400.22,305.00 400.83,305.00 401.44,305.00 402.06,305.00 402.67,305.00 403.28,305.00 403.89,305.00 404.51,305.00 405.13,305.00 405.74,305.00 406.35,305.00 406.96,305.00 407.57,305.00 408.18,305.00 408.79,305.00 409.40,305.00 410.02,305.00 410.64,305.00 411.26,305.00 411.85,305.00 412.47,305.00 413.08,305.00 413.69,305.00 414.30,305.00 414.92,305.00 415.52,305.00 416.14,305.00 416.76,305.00 417.37,305.00 417.98,305.00 418.60,305.00 419.22,305.00 419.83,305.00 420.44,305.00 421.13,305.00 421.80,305.00 422.46,305.00 423.08,305.00 423.71,305.00 424.33,305.00 424.94,305.00 425.55,305.00 426.12,305.00 426.76,305.00 427.37,305.00 427.99,305.00 428.59,305.00 429.21,305.00 429.81,305.00 430.43,305.00 431.04,305.00 431.65,305.00 432.26,305.00 432.88,305.00 433.49,305.00 434.11,305.00 434.72,305.00 435.34,305.00 435.96,305.00 436.57,305.00 437.18,305.00 437.81,305.00 438.42,305.00 439.03,305.00 439.64,305.00 440.25,305.00 440.86,305.00 441.47,305.00 442.09,305.00 442.70,305.00 443.32,305.00 443.93,305.00 444.54,305.00 445.15,305.00 445.76,305.00 446.38,305.00 446.99,305.00 447.60,305.00 448.22,305.00 448.83,305.00 449.45,305.00 450.06,305.00 450.68,305.00 451.29,305.00 451.91,305.00 452.52,305.00 453.13,305.00 453.75,305.00 454.38,305.00 455.00,305.00 455.61,305.00 456.22,305.00 456.84,305.00 457.45,305.00 458.06,305.00 458.68,305.00 459.29,305.00 459.90,305.00 460.52,305.00 461.13,305.00 461.75,305.00 462.37,305.00 462.98,305.00 463.60,305.00 464.21,305.00 464.83,305.00 465.45,305.00 466.06,305.00 466.67,305.00 467.29,305.00 467.90,305.00 468.53,305.00 469.14,305.00 469.76,305.00 470.38,305.00 470.99,305.00 471.60,305.00 472.21,305.00 472.83,305.00 473.44,305.00 474.05,305.00 474.67,305.00 475.28,305.00 475.89,305.00 476.51,305.00 477.12,305.00 477.73,305.00 478.36,305.00 478.97,305.00 479.59,305.00 480.20,305.00 480.81,305.00 481.42,305.00 482.03,305.00 482.64,305.00 483.26,305.00 483.88,305.00 484.49,305.00 485.11,305.00 485.72,305.00 486.34,305.00 486.96,305.00 487.57,305.00 488.18,305.00 488.80,305.00 489.42,305.00 490.03,305.00 490.65,305.00 491.27,305.00 491.88,305.00 492.50,305.00 493.12,305.00 493.74,305.00 494.36,305.00 494.97,305.00 495.58,305.00 496.20,305.00 496.82,305.00 497.44,305.00 498.05,305.00 498.67,305.00 499.28,305.00 499.89,305.00 500.52,305.00 501.13,305.00 501.75,305.00 502.36,305.00 502.97,305.00 503.58,305.00 504.19,305.00 504.80,305.00 505.42,305.00 506.03,305.00 506.65,305.00 507.26,305.00 507.87,305.00 508.49,305.00 509.12,305.00 509.74,305.00 510.34,305.00 510.96,305.00 511.57,305.00 512.18,305.00 512.80,305.00 513.41,305.00 514.03,305.00 514.64,305.00 515.26,305.00 515.87,305.00 516.48,305.00 517.10,305.00 517.72,305.00 518.35,305.00 518.97,305.00 519.59,305.00 520.21,305.00 520.82,305.00 521.44,305.00 522.05,305.00 522.66,305.00 523.27,305.00 523.89,305.00 524.50,305.00 525.12,305.00 525.74,305.00 526.36,305.00 527.00,305.00 527.61,305.00 528.23,305.00 528.84,305.00 529.45,305.00 530.07,305.00 530.69,305.00 531.31,305.00 531.93,305.00 532.55,305.00 533.16,305.00 533.78,305.00 534.40,305.00 535.01,305.00 535.63,305.00 536.24,305.00 536.85,305.00 537.47,305.00 538.09,305.00 538.71,305.00 539.32,305.00 539.94,305.00 540.56,305.00 541.17,305.00 541.79,305.00 542.40,305.00 543.04,305.00 543.66,305.00 544.28,305.00 544.89,305.00 545.52,305.00 546.15,305.00 546.78,305.00 547.40,305.00 548.03,305.00 548.65,305.00 549.27,305.00 549.88,305.00 550.50,305.00 551.11,305.00 551.73,305.00 552.36,305.00 552.98,305.00 553.59,305.00 554.21,305.00 554.82,305.00 555.43,305.00 556.05,305.00 556.66,305.00 557.28,305.00 557.89,305.00 558.50,305.00 559.11,305.00 559.72,305.00 560.33,305.00 560.95,305.00 561.57,305.00 562.18,305.00 562.80,305.00 563.42,305.00 564.03,305.00 564.65,305.00 565.27,305.00 565.88,305.00 566.49,305.00 567.10,305.00 567.72,305.00 568.34,305.00 568.95,305.00 569.55,305.00 570.17,305.00 570.78,305.00 571.40,305.00 572.01,305.00 572.62,305.00 573.24,305.00 573.85,305.00 574.46,305.00 575.08,305.00 575.70,305.00 576.30,305.00 576.91,305.00 577.51,305.00 578.13,305.00 578.74,305.00 579.37,305.00 579.98,305.00 580.59,305.00 581.21,305.00 581.83,305.00 582.45,305.00 583.06,305.00 583.69,305.00 584.30,305.00 584.91,305.00 585.53,305.00 586.15,305.00 586.77,305.00 587.39,305.00 588.00,305.00 588.61,305.00 589.23,305.00 589.84,305.00 590.45,305.00 591.06,305.00 591.67,305.00 592.28,305.00 592.90,305.00 593.52,305.00 594.13,305.00 594.74,305.00 595.35,305.00 595.97,305.00 596.58,305.00 597.20,305.00 597.82,305.00 598.43,305.00 599.04,305.00 599.66,305.00 600.27,305.00 600.89,305.00 601.50,305.00 602.12,305.00 602.73,305.00 603.35,305.00 603.97,305.00 604.58,305.00 605.19,305.00 605.80,305.00 606.44,305.00 607.05,305.00 607.68,305.00 608.30,305.00 608.91,305.00 609.53,305.00 610.15,305.00 610.76,305.00 611.38,305.00 611.99,305.00 612.61,305.00 613.24,305.00 613.86,305.00 614.47,305.00 615.09,305.00 615.70,305.00 616.32,305.00 616.93,305.00 617.54,305.00 618.15,305.00 618.77,305.00 619.38,305.00 620.00,305.00 620.61,305.00 621.23,305.00 621.84,305.00 622.45,305.00 623.06,305.00 623.67,305.00 624.29,305.00 624.91,305.00 625.52,305.00 626.13,305.00 626.75,305.00 627.36,305.00 627.97,305.00 628.59,305.00 629.20,305.00 629.83,305.00 630.44,305.00 631.05,305.00 631.66,305.00 632.28,305.00 632.89,305.00 633.50,305.00 634.13,305.00 634.76,305.00 635.38,305.00 636.01,305.00 636.63,305.00 637.26,305.00 637.89,305.00 638.52,305.00 639.16,305.00 639.78,305.00 640.41,305.00 641.03,305.00 641.64,305.00 642.26,305.00 642.88,305.00 643.49,305.00 644.11,305.00 644.73,305.00 645.34,305.00 645.96,305.00 646.57,305.00 647.18,305.00 647.80,305.00 648.41,305.00 649.02,305.00 649.64,305.00 650.25,305.00 650.87,305.00 651.48,305.00 652.11,305.00 652.72,305.00 653.34,305.00 653.95,305.00 654.56,305.00 655.18,305.00 655.80,305.00 656.41,305.00 657.03,305.00 657.64,305.00 658.26,305.00 658.87,305.00 659.48,305.00 660.10,305.00 660.71,305.00 661.33,305.00 661.99,305.00 662.62,305.00 663.23,305.00 663.85,305.00 664.46,305.00 665.08,305.00 665.70,305.00 666.32,305.00 666.94,305.00 667.55,305.00 668.15,305.00 668.77,305.00 669.38,305.00 669.99,305.00 670.61,305.00 671.22,305.00 671.84,305.00 672.46,305.00 673.08,305.00 673.69,305.00 674.30,305.00 674.92,305.00 675.53,305.00 676.15,305.00 676.76,305.00 677.38,305.00 678.00,305.00 678.61,305.00 679.23,305.00 679.87,305.00 680.48,305.00 681.10,305.00 681.71,305.00 682.33,305.00 682.94,305.00 683.56,305.00 684.18,305.00 684.79,305.00 685.41,305.00 686.02,305.00 686.65,305.00 687.27,305.00 687.89,305.00 688.50,305.00 689.11,305.00 689.73,305.00 690.34,305.00 690.96,305.00 691.57,305.00 692.19,305.00 692.81,305.00 693.42,305.00 694.04,305.00 694.65,305.00 695.26,305.00 695.88,305.00 696.49,305.00 697.10,305.00 697.72,305.00 698.34,305.00 698.95,305.00 699.56,305.00 700.18,305.00 700.80,305.00 701.41,305.00 702.03,305.00 702.64,305.00 703.25,305.00 703.86,305.00 704.47,305.00 705.09,305.00 705.70,305.00 706.34,305.00 706.95,305.00 707.57,305.00 708.19,305.00 708.80,305.00 709.42,305.00 710.08,305.00 710.71,305.00 711.33,305.00 711.95,305.00 712.57,305.00 713.19,305.00 713.80,305.00 714.42,305.00 715.03,305.00 715.65,305.00 716.27,305.00 716.88,305.00 717.50,305.00 718.13,305.00 718.74,305.00 719.36,305.00 719.97,305.00 720.59,305.00 721.21,305.00 721.82,305.00 722.44,305.00 723.05,305.00 723.67,305.00 724.29,305.00 724.90,305.00 725.52,305.00 726.14,305.00 726.76,305.00 727.38,305.00 728.00,305.00 728.62,305.00 729.22,305.00 729.84,305.00 730.46,305.00 731.07,305.00 731.68,305.00 732.30,305.00 732.91,305.00 733.53,305.00 734.15,305.00 734.76,305.00 735.37,305.00 735.99,305.00 736.61,305.00 737.22,305.00 737.84,305.00 738.46,305.00 739.08,305.00 739.70,305.00 740.30,305.00 740.90,305.00 741.51,305.00 742.13,305.00 742.74,305.00 743.36,305.00 743.99,305.00 744.60,305.00 745.22,305.00 745.84,305.00 746.45,305.00 747.07,305.00 747.68,305.00 748.29,305.00 748.90,305.00 749.51,305.00 750.13,305.00 750.75,305.00 751.36,305.00 751.97,305.00 752.58,305.00 753.20,305.00 753.81,305.00 754.43,305.00 755.04,305.00 755.65,305.00 756.24,305.00 756.87,305.00 757.49,305.00 758.10,305.00 758.72,305.00 759.35,305.00 759.96,305.00 760.57,305.00 761.19,305.00 761.80,305.00 762.42,305.00 763.03,305.00 763.69,305.00 764.31,305.00 764.93,305.00 765.54,305.00 766.17,305.00 766.77,305.00 767.39,305.00 768.01,305.00 768.62,305.00 769.24,305.00 769.85,305.00 770.46,305.00 771.08,305.00 771.70,305.00 772.32,305.00 772.93,305.00 773.54,305.00 774.16,305.00 774.78,305.00 775.40,305.00 776.01,305.00 776.64,305.00 777.26,305.00 777.88,305.00 778.50,305.00 779.11,305.00 779.73,305.00 780.35,305.00 780.97,305.00 781.58,305.00 782.19,305.00 782.81,305.00 783.42,305.00 784.04,305.00 784.66,305.00 785.27,305.00 785.89,305.00 786.51,305.00 787.11,305.00 787.73,305.00 788.34,305.00 788.96,305.00 789.57,305.00 790.18,305.00 790.80,305.00 791.41,305.00 792.02,305.00 792.63,305.00 793.24,305.00 793.85,305.00 794.47,305.00 795.08,305.00 795.69,305.00 796.30,305.00 796.92,305.00 797.53,305.00 798.15,305.00 798.76,305.00 799.37,305.00 799.98,305.00 800.59,305.00 801.22,305.00 801.82,305.00 802.44,305.00 803.05,305.00 803.70,305.00 804.30,305.00 804.92,305.00 805.54,305.00 806.16,305.00 806.78,305.00 807.39,305.00 808.01,305.00 808.62,305.00 809.24,305.00 809.85,305.00 810.46,305.00 811.07,305.00 811.69,305.00 812.31,305.00 812.92,305.00 813.53,305.00 814.14,305.00 814.75,305.00 815.37,305.00 815.99,305.00 816.63,305.00 817.25,305.00 817.86,305.00 818.46,305.00 819.07,305.00 819.70,305.00 820.31,305.00 820.92,305.00 821.54,305.00 822.15,305.00 822.77,305.00 823.39,305.00 824.00,305.00 824.62,305.00 825.23,305.00 825.85,305.00 826.47,305.00 827.08,305.00 827.69,305.00 828.30,305.00 828.91,305.00 829.52,305.00 830.14,305.00 830.75,305.00 831.36,305.00 831.98,305.00 832.59,305.00 833.21,305.00 833.82,305.00 834.44,305.00 835.05,305.00 835.66,305.00 836.28,305.00 836.90,305.00 837.51,305.00 838.12,305.00 838.74,305.00 839.35,305.00 839.96,305.00 840.57,305.00 841.19,305.00 841.80,305.00 842.43,305.00 843.04,305.00 843.66,305.00 844.27,305.00 844.89,305.00 845.50,305.00 846.13,305.00 846.75,305.00 847.40,305.00 848.02,305.00 848.68,305.00 849.29,305.00 849.90,305.00 850.51,305.00 851.13,305.00 851.74,305.00 852.36,305.00 852.97,305.00 853.59,305.00 854.20,305.00 854.81,305.00 855.43,305.00 856.04,305.00 856.65,305.00 857.27,305.00 857.88,305.00 858.49,305.00 859.10,305.00 859.72,305.00 860.33,305.00 860.95,305.00 861.56,305.00 862.17,305.00 862.79,305.00 863.40,305.00 864.02,305.00 864.64,305.00 865.25,305.00 865.87,305.00 866.48,305.00 867.09,305.00 867.70,305.00 868.32,305.00 868.93,305.00 869.54,305.00 870.15,305.00 870.75,305.00 871.37,305.00 871.98,305.00 872.59,305.00 873.21,305.00 873.83,305.00 874.47,305.00 875.08,305.00 875.70,305.00 876.31,305.00 876.92,305.00 877.52,305.00 878.13,305.00 878.75,305.00 879.36,305.00 879.97,305.00 880.58,305.00 881.19,305.00 881.80,305.00 882.42,305.00 883.03,305.00 883.64,305.00 884.25,305.00 884.88,305.00 885.48,305.00 886.09,305.00 886.72,305.00 887.33,305.00 887.94,305.00 888.56,305.00 889.17,305.00 889.78,305.00 890.40,305.00 891.02,305.00 891.64,305.00 892.25,305.00 892.86,305.00 893.47,305.00 894.09,305.00 894.70,305.00 895.34,305.00 895.95,305.00 896.57,305.00 897.19,305.00 897.80,305.00 898.41,305.00 899.03,305.00 899.64,305.00 900.26,305.00 900.88,305.00 901.48,305.00 902.10,305.00 902.72,305.00 903.33,305.00 903.95,305.00 904.58,305.00 905.21,305.00 905.86,305.00 906.48,305.00 907.09,305.00 907.71,305.00 908.31,305.00 908.93,305.00 909.55,305.00 910.16,305.00 910.78,305.00 911.39,305.00 912.01,305.00 912.62,305.00 913.23,305.00 913.85,305.00 914.46,305.00 915.08,305.00 915.71,305.00 916.34,305.00 916.95,305.00 917.58,305.00 918.22,305.00 918.84,305.00 919.49,305.00 920.11,305.00 920.72,305.00 921.34,305.00 921.95,305.00 922.57,305.00 923.18,305.00 923.79,305.00 924.41,305.00 925.02,305.00 925.63,305.00 926.26,305.00 926.88,305.00 927.49,305.00 928.12,305.00 928.84,305.00 929.45,305.00 930.06,305.00 930.67,305.00 931.28,305.00 931.89,305.00 932.50,305.00 933.07,305.00 933.62,305.00 934.28,305.00 934.86,305.00 935.42,305.00 936.05,305.00 936.58,305.00 937.19,305.00 937.81,305.00 938.42,305.00 939.03,305.00 939.64,305.00 940.26,305.00 940.87,305.00 941.47,305.00 942.09,305.00 942.71,305.00 943.31,305.00 943.93,305.00 944.54,305.00 945.15,305.00 945.77,305.00 946.37,305.00 946.98,305.00 947.59,305.00 948.20,305.00 948.81,305.00 949.42,305.00 950.04,305.00 950.66,305.00 951.27,305.00 951.87,305.00 952.49,305.00 953.10,305.00 953.71,305.00 954.32,305.00 954.92,305.00 955.53,305.00 956.15,305.00 956.76,305.00 957.37,305.00 957.98,305.00 958.59,305.00 959.21,305.00 959.82,305.00 960.43,305.00 961.04,305.00 961.65,305.00 962.27,305.00 962.88,305.00 963.49,305.00 964.09,305.00 964.70,305.00 965.31,305.00 965.92,305.00 966.53,305.00 967.14,305.00 967.76,305.00 968.38,305.00 968.99,305.00 969.60,305.00 970.22,305.00 970.83,305.00 971.45,305.00 972.06,305.00 972.67,305.00 973.29,305.00 973.90,305.00 974.51,305.00 975.12,305.00 975.73,305.00 976.34,305.00 976.95,305.00 977.57,305.00 978.18,305.00 978.79,305.00 979.40,305.00 980.01,305.00 980.63,305.00 981.24,305.00 981.85,305.00 982.46,305.00 983.08,305.00 983.69,305.00 984.36,305.00 984.97,305.00 985.58,305.00 986.20,305.00 986.81,305.00 987.42,305.00 988.03,305.00 988.65,305.00 989.50,305.00 990.11,305.00 990.97,305.00 991.58,305.00 992.19,305.00 992.81,305.00 993.42,305.00 994.03,305.00 994.64,305.00 995.25,305.00 995.86,305.00 996.47,305.00 997.08,305.00 997.69,305.00 998.30,305.00 998.92,305.00 999.54,305.00 1000.15,305.00 1000.76,305.00 1001.38,305.00 1001.98,305.00 1002.61,305.00 1003.22,305.00 1003.83,305.00 1004.44,305.00 1005.05,305.00 1005.67,305.00 1006.28,305.00 1006.90,305.00 1007.51,305.00 1008.12,305.00 1008.74,305.00 1009.36,305.00 1009.98,305.00 1010.61,305.00 1011.23,305.00 1011.87,305.00 1012.48,305.00 1013.10,305.00 1013.71,305.00 1014.33,305.00 1014.94,305.00 1015.55,305.00 1016.16,305.00 1016.77,305.00 1017.40,305.00 1018.01,305.00 1018.63,305.00 1019.25,305.00 1019.86,305.00 1020.48,305.00 1021.09,305.00 1021.71,305.00 1022.32,305.00 1022.94,305.00 1023.56,305.00 1024.17,305.00 1024.79,305.00 1025.41,305.00 1026.03,305.00 1026.64,305.00 1027.25,305.00 1027.87,305.00 1028.48,305.00 1029.11,305.00 1029.73,305.00 1030.34,305.00 1030.96,305.00 1031.57,305.00 1032.19,305.00 1032.80,305.00 1033.42,305.00 1034.03,305.00 1034.64,305.00 1035.25,305.00 1035.86,305.00 1036.47,305.00 1037.09,305.00 1037.72,305.00 1038.34,305.00 1038.96,305.00 1039.57,305.00 1040.18,305.00 1040.80,305.00 1041.41,305.00 1042.02,305.00 1042.64,305.00 1043.25,305.00 1043.87,305.00 1044.48,305.00 1045.10,305.00 1045.72,305.00 1046.33,305.00 1046.94,305.00 1047.55,305.00 1048.17,305.00 1048.79,305.00 1049.41,305.00 1050.03,305.00 1050.64,305.00 1051.25,305.00 1051.87,305.00 1052.49,305.00 1053.10,305.00 1053.73,305.00 1054.34,305.00 1054.96,305.00 1055.58,305.00 1056.19,305.00 1056.80,305.00 1057.41,305.00 1058.03,305.00 1058.65,305.00 1059.27,305.00 1059.89,305.00 1060.52,305.00 1061.14,305.00 1061.75,305.00 1062.37,305.00 1062.98,305.00 1063.59,305.00 1064.21,305.00 1064.83,305.00 1065.45,305.00 1066.06,305.00 1066.68,305.00 1067.30,305.00 1067.91,305.00 1068.53,305.00 1069.14,305.00 1069.75,305.00 1070.38,305.00 1071.00,305.00 1071.62,305.00 1072.24,305.00 1072.86,305.00 1073.47,305.00 1074.09,305.00 1074.70,305.00 1075.32,305.00 1075.96,305.00 1076.57,305.00 1077.18,305.00 1077.80,305.00 1078.42,305.00 1079.03,305.00 1079.67,305.00 1080.28,305.00 1080.91,305.00 1081.53,305.00 1082.15,305.00 1082.77,305.00 1083.42,305.00 1084.03,305.00 1084.66,305.00 1085.27,305.00 1085.88,305.00 1086.50,305.00 1087.11,305.00 1087.73,305.00 1088.35,305.00 1088.96,305.00 1089.60,305.00 1090.21,305.00 1090.83,305.00 1091.45,305.00 1092.06,305.00 1092.68,305.00 1093.31,305.00 1093.92,305.00 1094.53,305.00 1095.16,305.00 1095.77,305.00 1096.38,305.00 1097.01,305.00 1097.63,305.00 1098.24,305.00 1098.85,305.00 1099.45,305.00 1100.07,305.00 1100.68,305.00 1101.29,305.00 1101.93,305.00 1102.54,305.00 1103.15,305.00 1103.77,305.00 1104.38,305.00 1104.99,305.00 1105.61,305.00 1106.22,305.00 1106.84,305.00 1107.46,305.00 1108.07,305.00 1108.68,305.00 1109.30,305.00 1109.91,305.00 1110.55,305.00 1111.16,305.00 1111.78,305.00 1112.39,305.00 1113.00,305.00 1113.61,305.00 1114.22,305.00 1114.84,305.00 1115.46,305.00 1116.10,305.00 1116.72,305.00 1117.33,305.00 1117.94,305.00 1118.55,305.00 1119.16,305.00 1119.77,305.00 1120.38,305.00 1121.01,305.00 1121.62,305.00 1122.22,305.00 1122.83,305.00 1123.44,305.00 1124.06,305.00 1124.68,305.00 1125.29,305.00 1125.90,305.00 1126.51,305.00 1127.13,305.00 1127.75,305.00 1128.37,305.00 1128.98,305.00 1129.59,305.00 1130.20,305.00 1130.82,305.00 1131.45,305.00 1132.06,305.00 1132.67,305.00 1133.28,305.00 1133.89,305.00 1134.51,305.00 1135.12,305.00 1135.73,305.00 1136.34,305.00 1136.95,305.00 1137.57,305.00 1138.18,305.00 1138.79,305.00 1139.40,305.00 1140.00,305.00 1140.61,305.00 1141.23,305.00 1141.85,305.00 1142.46,305.00 1143.08,305.00 1143.69,305.00 1144.31,305.00 1144.92,305.00 1145.53,305.00 1146.14,305.00 1146.76,305.00 1147.37,305.00 1147.99,305.00 1148.60,305.00 1149.22,305.00 1149.83,305.00 1150.45,305.00 1151.07,305.00 1151.68,305.00 1152.31,305.00 1152.93,305.00 1153.54,305.00 1154.16,305.00 1154.77,305.00 1155.38,305.00 1155.99,305.00 1156.60,305.00 1157.21,305.00 1157.83,305.00 1158.44,305.00 1159.05,305.00 1159.69,305.00 1160.30,305.00 1160.92,305.00 1161.53,305.00 1162.14,305.00 1162.78,305.00 1163.40,305.00 1164.04,305.00 1164.65,305.00 1165.25,305.00 1165.86,305.00 1166.47,305.00 1167.08,305.00 1167.70,305.00 1168.32,305.00 1168.93,305.00 1169.55,305.00 1170.16,305.00 1170.78,305.00 1171.39,305.00 1172.00,305.00 1172.62,305.00 1173.24,305.00 1173.87,305.00 1174.49,305.00 1175.10,305.00 1175.72,305.00 1176.33,305.00 1176.94,305.00 1177.55,305.00 1178.16,305.00 1178.77,305.00 1179.39,305.00 1180.00,305.00"/>
<rect x="70" y="332" width="12" height="12" fill="#9467bd" fill-opacity="0.95"/>
<text x="88" y="342" font-size="11" fill="#333" font-family="Arial, Helvetica, sans-serif">nsc1.utdallas.edu</text>
<rect x="350" y="332" width="12" height="12" fill="#9467bd" fill-opacity="0.80"/>
<text x="368" y="342" font-size="11" fill="#333" font-family="Arial, Helvetica, sans-serif">nsc2.utdallas.edu</text>
<rect x="630" y="332" width="12" height="12" fill="#9467bd" fill-opacity="0.65"/>
<text x="648" y="342" font-size="11" fill="#333" font-family="Arial, Helvetica, sans-serif">nsc3.utdallas.edu</text>
<rect x="910" y="332" width="12" height="12" fill="#9467bd" fill-opacity="0.50"/>
<text x="928" y="342" font-size="11" fill="#333" font-family="Arial, Helvetica, sans-serif">nsc4.utdallas.edu</text>
</svg>