<?xml version="1.0" encoding="UTF-8"?>
<svg xmlns="http://www.w3.org/2000/svg" width="1200" height="360" viewBox="0 0 1200 360" role="img" aria-label="GPU Utilization (%)">
<rect width="100%" height="100%" fill="#ffffff"/>
<text x="600.0" y="22" text-anchor="middle" font-size="16" font-family="Arial, Helvetica, sans-serif" font-weight="bold">GPU Utilization (%)</text>
<line x1="70" y1="35.00" x2="1180" y2="35.00" stroke="#e3e3e3" stroke-width="1"/>
<text x="62" y="39.00" text-anchor="end" font-size="11" fill="#444" font-family="Arial, Helvetica, sans-serif">100</text>
<line x1="70" y1="89.00" x2="1180" y2="89.00" stroke="#e3e3e3" stroke-width="1"/>
<text x="62" y="93.00" text-anchor="end" font-size="11" fill="#444" font-family="Arial, Helvetica, sans-serif">80</text>
<line x1="70" y1="143.00" x2="1180" y2="143.00" stroke="#e3e3e3" stroke-width="1"/>
<text x="62" y="147.00" text-anchor="end" font-size="11" fill="#444" font-family="Arial, Helvetica, sans-serif">60</text>
<line x1="70" y1="197.00" x2="1180" y2="197.00" stroke="#e3e3e3" stroke-width="1"/>
<text x="62" y="201.00" text-anchor="end" font-size="11" fill="#444" font-family="Arial, Helvetica, sans-serif">40</text>
<line x1="70" y1="251.00" x2="1180" y2="251.00" stroke="#e3e3e3" stroke-width="1"/>
<text x="62" y="255.00" text-anchor="end" font-size="11" fill="#444" font-family="Arial, Helvetica, sans-serif">20</text>
<line x1="70" y1="305.00" x2="1180" y2="305.00" stroke="#e3e3e3" stroke-width="1"/>
<text x="62" y="309.00" text-anchor="end" font-size="11" fill="#444" font-family="Arial, Helvetica, sans-serif">0</text>
<line x1="70" y1="35" x2="70" y2="305" stroke="#999"/>
<line x1="70" y1="305" x2="1180" y2="305" stroke="#999"/>
<text x="70.00" y="323" text-anchor="middle" font-size="10" fill="#444" font-family="Arial, Helvetica, sans-serif">2026-02-11 16:38</text>
<text x="347.50" y="323" text-anchor="middle" font-size="10" fill="#444" font-family="Arial, Helvetica, sans-serif">2026-02-12 23:43</text>
<text x="625.00" y="323" text-anchor="middle" font-size="10" fill="#444" font-family="Arial, Helvetica, sans-serif">2026-02-14 06:48</text>
<text x="902.50" y="323" text-anchor="middle" font-size="10" fill="#444" font-family="Arial, Helvetica, sans-serif">2026-02-15 13:54</text>
<text x="1180.00" y="323" text-anchor="middle" font-size="10" fill="#444" font-family="Arial, Helvetica, sans-serif">2026-02-16 20:59</text>
<polyline fill="none" stroke="#9467bd" stroke-opacity="0.95" stroke-width="2" points="70.80,305.00 71.60,305.00 72.40,305.00 73.21,305.00 74.01,305.00 74.81,305.00 75.61,305.00 76.48,305.00 77.27,305.00 78.07,305.00 78.87,305.00 79.68,305.00 80.48,305.00 81.27,305.00 82.71,305.00 83.95,305.00 84.76,305.00 85.58,305.00 86.38,305.00 87.18,305.00 87.96,305.00 88.77,305.00 89.57,305.00 90.38,305.00 91.18,305.00 92.00,305.00 92.80,305.00 93.60,305.00 94.44,305.00 95.25,305.00 96.05,305.00 96.87,305.00 97.67,305.00 98.47,305.00 99.30,305.00 100.09,305.00 100.89,305.00 101.71,305.00 102.50,305.00 103.30,305.00 104.09,305.00 104.89,305.00 105.69,305.00 106.49,305.00 107.31,305.00 108.12,305.00 108.91,305.00 109.70,305.00 110.51,305.00 111.31,305.00 112.23,305.00 113.03,305.00 113.83,305.00 114.62,305.00 115.42,305.00 116.21,305.00 117.01,305.00 117.81,305.00 118.61,305.00 119.42,305.00 120.22,305.00 121.01,305.00 121.82,305.00 122.63,305.00 123.43,305.00 124.23,305.00 125.02,305.00 125.82,305.00 126.61,305.00 127.41,305.00 128.20,305.00 129.00,305.00 129.80,305.00 130.60,305.00 131.40,305.00 132.19,305.00 133.00,305.00 133.79,305.00 134.59,305.00 135.41,305.00 136.21,305.00 137.01,305.00 137.81,305.00 138.61,305.00 139.41,305.00 140.21,305.00 141.00,305.00 141.79,305.00 142.60,305.00 143.40,305.00 144.20,305.00 145.01,305.00 145.80,305.00 146.60,305.00 147.40,305.00 148.20,305.00 148.99,305.00 149.79,305.00 150.58,305.00 151.39,305.00 152.19,305.00 152.99,305.00 153.79,305.00 154.60,305.00 155.41,305.00 156.21,305.00 157.00,305.00 157.80,305.00 158.60,305.00 159.41,305.00 160.21,305.00 161.01,305.00 161.80,305.00 162.61,305.00 163.41,305.00 164.22,305.00 165.03,305.00 165.83,305.00 166.63,305.00 167.43,305.00 168.23,305.00 169.02,305.00 169.83,305.00 170.70,305.00 171.49,305.00 172.30,305.00 173.10,305.00 173.90,305.00 174.69,305.00 175.48,305.00 176.27,305.00 177.07,305.00 177.87,305.00 178.67,305.00 179.47,305.00 180.27,305.00 181.06,305.00 181.87,305.00 182.67,305.00 183.47,305.00 184.26,305.00 185.07,305.00 185.86,305.00 186.66,305.00 187.47,305.00 188.27,305.00 189.07,305.00 189.87,305.00 190.66,305.00 191.46,305.00 192.26,305.00 193.05,305.00 193.86,305.00 194.67,305.00 195.47,305.00 196.26,305.00 197.07,305.00 197.87,305.00 198.67,305.00 199.47,305.00 200.27,305.00 201.08,305.00 201.90,305.00 202.69,305.00 203.49,305.00 204.29,305.00 205.08,305.00 205.88,305.00 206.68,305.00 207.48,305.00 208.27,305.00 209.06,305.00 209.87,305.00 210.67,305.00 211.48,305.00 212.27,305.00 213.09,305.00 213.89,305.00 214.69,305.00 215.48,305.00 216.28,305.00 217.15,305.00 217.97,305.00 218.76,305.00 219.56,305.00 220.34,305.00 221.15,305.00 221.95,305.00 222.75,305.00 223.55,305.00 224.35,305.00 225.14,305.00 225.95,305.00 226.76,305.00 227.56,305.00 228.36,305.00 229.15,305.00 229.96,305.00 230.78,305.00 231.60,305.00 232.39,305.00 233.19,305.00 233.99,305.00 234.79,305.00 235.59,305.00 236.39,305.00 237.20,305.00 238.00,305.00 238.79,305.00 239.60,305.00 240.40,305.00 241.20,305.00 242.00,305.00 242.81,305.00 243.61,305.00 244.41,305.00 245.20,305.00 245.99,305.00 246.80,305.00 247.60,305.00 248.39,305.00 249.19,305.00 249.98,305.00 250.78,305.00 251.58,305.00 252.39,305.00 253.19,305.00 254.00,305.00 254.80,305.00 255.61,305.00 256.40,305.00 257.21,305.00 258.00,305.00 258.80,305.00 259.61,305.00 260.42,305.00 261.22,305.00 262.03,305.00 262.83,305.00 263.62,305.00 264.43,305.00 265.22,305.00 266.02,305.00 266.82,305.00 267.62,305.00 268.42,305.00 269.23,305.00 270.03,305.00 270.83,305.00 271.63,305.00 272.44,305.00 273.24,305.00 274.04,305.00 274.84,305.00 275.64,305.00 276.45,305.00 277.26,305.00 278.05,305.00 278.85,305.00 279.74,305.00 280.55,305.00 281.35,305.00 282.15,305.00 282.96,305.00 283.76,305.00 284.56,305.00 285.36,305.00 286.16,305.00 286.98,80.90 287.79,72.80 288.59,305.00 289.39,305.00 290.19,305.00 290.99,305.00 291.79,305.00 292.62,305.00 293.42,305.00 294.22,305.00 295.03,305.00 295.89,305.00 296.69,305.00 297.70,305.00 299.05,305.00 299.87,305.00 300.69,305.00 301.49,305.00 302.27,305.00 303.07,305.00 303.88,305.00 304.68,305.00 305.49,305.00 306.32,305.00 307.15,305.00 308.00,305.00 308.80,305.00 309.60,305.00 310.40,305.00 311.21,305.00 312.02,305.00 312.83,305.00 313.63,305.00 314.43,305.00 315.26,305.00 316.07,305.00 316.86,305.00 317.66,305.00 318.47,305.00 319.30,305.00 320.11,305.00 320.91,305.00 321.73,305.00 322.50,305.00 323.30,305.00 324.11,305.00 324.91,305.00 325.72,305.00 326.55,305.00 327.35,305.00 328.15,305.00 328.96,305.00 329.77,305.00 330.57,305.00 331.37,305.00 332.16,305.00 332.97,305.00 333.77,305.00 334.56,305.00 335.52,305.00 336.46,305.00 337.41,305.00 338.34,305.00 339.25,305.00 340.17,305.00 341.12,305.00 342.05,305.00 342.86,305.00 343.65,305.00 344.44,305.00 345.24,305.00 346.04,305.00 346.84,305.00 347.63,305.00 348.43,305.00 349.23,305.00 350.03,305.00 350.83,305.00 351.62,305.00 352.42,305.00 353.21,305.00 354.01,305.00 354.81,305.00 355.61,305.00 356.40,305.00 357.20,305.00 358.01,305.00 358.80,305.00 359.59,305.00 360.39,305.00 361.19,305.00 361.99,305.00 362.79,305.00 363.59,305.00 364.39,305.00 365.19,305.00 365.98,305.00 366.78,305.00 367.58,305.00 368.37,305.00 369.17,305.00 369.96,305.00 370.75,305.00 371.55,305.00 372.34,305.00 373.14,305.00 373.93,305.00 374.73,305.00 375.53,305.00 376.32,305.00 377.11,305.00 377.89,305.00 378.72,305.00 379.58,305.00 380.38,305.00 381.18,305.00 381.98,305.00 382.78,305.00 383.57,305.00 384.36,305.00 385.16,305.00 386.10,305.00 387.04,305.00 387.97,305.00 388.90,305.00 389.85,305.00 390.78,305.00 391.73,305.00 392.70,305.00 393.58,305.00 394.43,305.00 395.23,305.00 396.04,305.00 396.84,305.00 397.63,305.00 398.43,305.00 399.23,305.00 400.03,305.00 400.83,305.00 401.62,305.00 402.42,305.00 403.22,305.00 404.02,305.00 404.83,305.00 405.62,305.00 406.42,305.00 407.12,305.00 407.94,305.00 408.74,305.00 409.56,305.00 410.36,305.00 411.15,305.00 411.96,305.00 412.77,305.00 413.57,305.00 414.38,305.00 415.18,305.00 416.00,305.00 416.79,305.00 417.58,305.00 418.38,305.00 419.17,305.00 419.97,305.00 420.76,305.00 421.57,305.00 422.37,305.00 423.17,305.00 423.97,305.00 424.76,305.00 425.57,305.00 426.36,305.00 427.17,305.00 427.97,305.00 428.77,305.00 429.57,305.00 430.38,305.00 431.18,305.00 432.00,305.00 432.79,305.00 433.59,305.00 434.39,305.00 435.18,305.00 435.97,305.00 436.78,305.00 437.58,305.00 438.37,305.00 439.17,305.00 439.97,305.00 440.76,305.00 441.57,305.00 442.37,305.00 443.17,305.00 444.14,305.00 444.96,305.00 445.78,305.00 446.58,305.00 447.38,305.00 448.19,305.00 448.99,305.00 449.78,305.00 450.59,305.00 451.40,305.00 452.19,305.00 452.99,305.00 453.80,305.00 454.60,305.00 455.42,305.00 456.24,305.00 457.04,305.00 457.84,305.00 458.64,305.00 459.44,305.00 460.23,305.00 461.04,305.00 461.87,305.00 462.67,305.00 463.48,305.00 464.28,305.00 465.07,305.00 465.88,305.00 466.68,305.00 467.48,305.00 468.28,305.00 469.08,305.00 469.89,305.00 470.69,305.00 471.48,305.00 472.28,305.00 473.08,305.00 473.90,305.00 474.70,305.00 475.49,305.00 476.29,305.00 477.09,305.00 477.90,305.00 478.71,305.00 479.67,305.00 480.49,305.00 481.29,305.00 482.09,305.00 482.89,305.00 483.69,305.00 484.49,305.00 485.30,305.00 486.11,305.00 486.91,305.00 487.71,305.00 488.50,305.00 489.30,305.00 490.10,305.00 490.90,305.00 491.71,305.00 492.50,305.00 493.30,305.00 494.10,305.00 494.90,305.00 495.71,305.00 496.50,305.00 497.30,305.00 498.11,305.00 498.92,305.00 499.71,305.00 500.51,305.00 501.32,305.00 502.14,305.00 502.93,305.00 503.73,305.00 504.54,305.00 505.34,305.00 506.14,305.00 506.94,305.00 507.74,305.00 508.56,305.00 509.36,305.00 510.16,305.00 510.95,305.00 511.75,305.00 512.55,305.00 513.35,305.00 514.15,305.00 514.96,305.00 515.77,305.00 516.58,305.00 517.36,305.00 518.17,305.00 518.96,305.00 519.77,305.00 520.56,305.00 521.37,305.00 522.16,305.00 522.97,305.00 523.77,305.00 524.57,305.00 525.38,305.00 526.19,305.00 526.99,305.00 527.79,305.00 528.60,305.00 529.50,305.00 530.38,305.00 531.24,305.00 532.04,305.00 532.88,305.00 533.68,305.00 534.49,305.00 535.28,305.00 536.03,305.00 536.86,305.00 537.66,305.00 538.47,305.00 539.26,305.00 540.07,305.00 540.86,305.00 541.67,305.00 542.47,305.00 543.27,305.00 544.07,305.00 544.87,305.00 545.67,305.00 546.48,305.00 547.29,305.00 548.10,305.00 548.90,305.00 549.70,305.00 550.50,305.00 551.32,305.00 552.12,305.00 552.92,305.00 553.72,305.00 554.52,305.00 555.32,305.00 556.12,305.00 556.92,305.00 557.72,305.00 558.53,305.00 559.33,305.00 560.13,305.00 560.93,305.00 561.73,305.00 562.54,305.00 563.34,305.00 564.14,305.00 564.94,305.00 565.75,305.00 566.55,305.00 567.36,305.00 568.17,305.00 568.97,305.00 569.77,305.00 570.58,305.00 571.38,305.00 572.19,305.00 573.01,305.00 573.81,305.00 574.62,305.00 575.42,305.00 576.22,305.00 577.02,305.00 577.83,305.00 578.63,305.00 579.44,305.00 580.24,305.00 581.04,305.00 581.85,305.00 582.65,305.00 583.46,305.00 584.26,305.00 585.07,305.00 585.88,305.00 586.68,305.00 587.50,305.00 588.30,305.00 589.09,305.00 589.90,305.00 590.70,305.00 591.52,305.00 592.33,305.00 593.14,305.00 593.94,305.00 594.74,305.00 595.54,305.00 596.34,305.00 597.15,305.00 597.95,305.00 598.75,305.00 599.56,305.00 600.36,305.00 601.16,305.00 601.97,305.00 602.77,305.00 603.57,305.00 604.39,305.00 605.19,305.00 605.99,305.00 606.80,305.00 607.60,305.00 608.39,305.00 609.19,305.00 609.99,305.00 610.80,305.00 611.61,305.00 612.41,305.00 613.22,305.00 614.02,305.00 614.83,305.00 615.64,305.00 616.44,305.00 617.24,305.00 618.06,305.00 618.86,305.00 619.66,305.00 620.47,305.00 621.28,305.00 622.09,305.00 622.89,305.00 623.71,305.00 624.52,305.00 625.33,305.00 626.13,305.00 626.93,305.00 627.74,305.00 628.54,305.00 629.36,305.00 630.16,305.00 630.96,305.00 631.76,305.00 632.56,305.00 633.39,305.00 634.18,305.00 635.00,305.00 635.80,305.00 636.60,305.00 637.40,305.00 638.19,305.00 638.99,305.00 639.80,305.00 640.60,305.00 641.41,305.00 642.21,305.00 643.01,305.00 643.81,305.00 644.64,305.00 645.45,305.00 646.24,305.00 647.05,305.00 647.85,305.00 648.65,305.00 649.45,305.00 650.26,305.00 651.06,305.00 651.87,305.00 652.68,305.00 653.48,305.00 654.28,305.00 655.09,305.00 655.90,305.00 656.72,305.00 657.54,305.00 658.34,305.00 659.15,305.00 659.96,305.00 660.77,305.00 661.56,305.00 662.36,305.00 663.16,305.00 663.97,305.00 664.78,305.00 665.59,305.00 666.39,305.00 667.21,305.00 668.04,305.00 668.84,305.00 669.64,305.00 670.45,305.00 671.25,305.00 672.06,305.00 672.87,305.00 673.68,305.00 674.49,305.00 675.30,305.00 676.11,305.00 676.91,305.00 677.72,305.00 678.53,305.00 679.33,305.00 680.14,305.00 680.94,305.00 681.75,305.00 682.56,305.00 683.36,305.00 684.16,305.00 684.97,305.00 685.78,305.00 686.58,305.00 687.39,305.00 688.20,305.00 689.03,305.00 689.84,305.00 690.65,305.00 691.45,305.00 692.28,305.00 693.10,305.00 693.92,305.00 694.74,305.00 695.57,305.00 696.38,305.00 697.18,305.00 697.98,305.00 698.79,305.00 699.60,305.00 700.41,305.00 701.23,305.00 702.03,305.00 702.84,305.00 703.64,305.00 704.45,305.00 705.25,305.00 706.06,305.00 706.86,305.00 707.66,305.00 708.46,305.00 709.26,305.00 710.07,305.00 710.86,305.00 711.66,305.00 712.47,305.00 713.28,305.00 714.08,305.00 714.89,305.00 715.70,305.00 716.50,305.00 717.31,305.00 718.12,305.00 718.92,305.00 719.72,305.00 720.52,305.00 721.33,305.00 722.14,305.00 722.93,305.00 723.73,305.00 724.53,305.00 725.33,305.00 726.14,305.00 726.94,305.00 727.75,305.00 728.55,305.00 729.35,305.00 730.15,305.00 730.96,305.00 731.77,305.00 732.55,305.00 733.35,305.00 734.14,305.00 734.95,305.00 735.75,305.00 736.57,305.00 737.37,305.00 738.17,305.00 738.98,305.00 739.80,305.00 740.61,305.00 741.41,305.00 742.22,305.00 743.02,305.00 743.82,305.00 744.64,305.00 745.44,305.00 746.26,305.00 747.07,305.00 747.87,305.00 748.67,305.00 749.47,305.00 750.27,305.00 751.07,305.00 751.88,305.00 752.67,305.00 753.47,305.00 754.28,305.00 755.09,305.00 755.89,305.00 756.69,305.00 757.49,305.00 758.29,305.00 759.10,305.00 759.91,305.00 760.71,305.00 761.52,305.00 762.32,305.00 763.13,305.00 763.93,305.00 764.73,305.00 765.54,305.00 766.34,305.00 767.14,305.00 767.95,305.00 768.76,305.00 769.56,305.00 770.36,305.00 771.16,305.00 771.99,305.00 772.80,305.00 773.62,305.00 774.43,305.00 775.24,305.00 776.04,305.00 776.85,305.00 777.66,305.00 778.46,305.00 779.26,305.00 780.07,305.00 780.89,305.00 781.70,305.00 782.50,305.00 783.31,305.00 784.11,305.00 784.92,305.00 785.73,305.00 786.53,305.00 787.33,305.00 788.13,305.00 788.94,305.00 789.74,305.00 790.54,305.00 791.35,305.00 792.15,305.00 792.95,305.00 793.75,305.00 794.55,305.00 795.35,305.00 796.17,305.00 796.97,305.00 797.77,305.00 798.58,305.00 799.38,305.00 800.17,305.00 800.99,305.00 801.79,305.00 802.61,305.00 803.41,305.00 804.21,305.00 805.01,305.00 805.81,305.00 806.62,305.00 807.41,305.00 808.23,305.00 809.06,305.00 809.87,305.00 810.69,305.00 811.51,305.00 812.33,305.00 813.16,305.00 813.98,305.00 814.81,305.00 815.63,305.00 816.46,305.00 817.26,305.00 818.06,305.00 818.87,305.00 819.68,305.00 820.49,305.00 821.29,305.00 822.10,305.00 822.91,305.00 823.71,305.00 824.52,305.00 825.32,305.00 826.12,305.00 826.92,305.00 827.72,305.00 828.53,305.00 829.33,305.00 830.14,305.00 830.94,305.00 831.76,305.00 832.57,305.00 833.37,305.00 834.17,305.00 834.97,305.00 835.78,305.00 836.59,305.00 837.39,305.00 838.20,305.00 839.00,305.00 839.81,305.00 840.61,305.00 841.41,305.00 842.22,305.00 843.02,305.00 843.83,305.00 844.69,305.00 845.52,305.00 846.32,305.00 847.12,305.00 847.92,305.00 848.74,305.00 849.55,305.00 850.36,305.00 851.17,305.00 851.97,305.00 852.75,305.00 853.56,305.00 854.36,305.00 855.17,305.00 855.98,305.00 856.78,305.00 857.59,305.00 858.40,305.00 859.21,305.00 860.00,305.00 860.81,305.00 861.61,305.00 862.42,305.00 863.22,305.00 864.02,305.00 864.83,305.00 865.64,305.00 866.44,305.00 867.25,305.00 868.09,305.00 868.90,305.00 869.70,305.00 870.50,305.00 871.31,305.00 872.11,305.00 872.92,305.00 873.73,305.00 874.53,305.00 875.34,305.00 876.14,305.00 876.96,305.00 877.77,305.00 878.58,305.00 879.38,305.00 880.18,305.00 880.99,305.00 881.79,305.00 882.60,305.00 883.40,305.00 884.22,305.00 885.02,305.00 885.82,305.00 886.63,305.00 887.43,305.00 888.24,305.00 889.04,305.00 889.84,305.00 890.64,305.00 891.45,305.00 892.26,305.00 893.06,305.00 893.86,305.00 894.67,305.00 895.47,305.00 896.28,305.00 897.09,305.00 897.89,305.00 898.68,305.00 899.48,305.00 900.28,305.00 901.10,305.00 901.90,305.00 902.72,305.00 903.53,305.00 904.34,305.00 905.15,305.00 905.95,305.00 906.77,305.00 907.63,305.00 908.45,305.00 909.26,305.00 910.08,305.00 910.89,305.00 911.69,305.00 912.49,305.00 913.30,305.00 914.11,305.00 914.91,305.00 915.72,305.00 916.52,305.00 917.33,305.00 918.15,305.00 918.96,305.00 919.77,305.00 920.57,305.00 921.38,305.00 922.18,305.00 922.99,305.00 923.79,305.00 924.60,305.00 925.41,305.00 926.22,305.00 927.02,305.00 927.83,305.00 928.64,305.00 929.45,305.00 930.26,305.00 931.07,305.00 931.88,305.00 932.68,305.00 933.49,305.00 934.30,305.00 935.09,305.00 935.90,305.00 936.70,305.00 937.50,305.00 938.31,305.00 939.12,305.00 939.92,305.00 940.73,305.00 941.54,305.00 942.34,305.00 943.14,305.00 943.95,305.00 944.76,305.00 945.57,305.00 946.38,305.00 947.17,305.00 947.96,305.00 948.75,305.00 949.56,305.00 950.37,305.00 951.18,305.00 951.99,305.00 952.79,305.00 953.61,305.00 954.42,305.00 955.22,305.00 956.03,305.00 956.83,305.00 957.63,305.00 958.43,305.00 959.23,305.00 960.03,305.00 960.84,305.00 961.64,305.00 962.44,305.00 963.24,305.00 964.05,305.00 964.85,305.00 965.66,305.00 966.46,305.00 967.26,305.00 968.04,305.00 968.86,305.00 969.66,305.00 970.47,305.00 971.28,305.00 972.09,305.00 972.89,305.00 973.69,305.00 974.50,305.00 975.31,305.00 976.11,305.00 976.92,305.00 977.78,305.00 978.59,305.00 979.40,305.00 980.21,305.00 981.02,305.00 981.82,305.00 982.62,305.00 983.43,305.00 984.23,305.00 985.04,305.00 985.84,305.00 986.64,305.00 987.45,305.00 988.26,305.00 989.07,305.00 989.87,305.00 990.67,305.00 991.48,305.00 992.29,305.00 993.10,305.00 993.91,305.00 994.72,305.00 995.54,305.00 996.35,305.00 997.16,305.00 997.96,305.00 998.77,305.00 999.59,305.00 1000.39,305.00 1001.19,305.00 1001.99,305.00 1002.80,305.00 1003.60,305.00 1004.41,305.00 1005.22,305.00 1006.02,305.00 1006.83,305.00 1007.64,305.00 1008.43,305.00 1009.24,305.00 1010.04,305.00 1010.85,305.00 1011.65,305.00 1012.45,305.00 1013.26,305.00 1014.05,305.00 1014.85,305.00 1015.65,305.00 1016.46,305.00 1017.25,305.00 1018.05,305.00 1018.86,305.00 1019.66,305.00 1020.45,305.00 1021.26,305.00 1022.06,305.00 1022.87,305.00 1023.67,305.00 1024.47,305.00 1025.26,305.00 1026.07,305.00 1026.89,305.00 1027.68,305.00 1028.48,305.00 1029.29,305.00 1030.13,305.00 1030.93,305.00 1031.74,305.00 1032.55,305.00 1033.35,305.00 1034.16,305.00 1034.97,305.00 1035.78,305.00 1036.58,305.00 1037.38,305.00 1038.18,305.00 1038.98,305.00 1039.79,305.00 1040.59,305.00 1041.40,305.00 1042.20,305.00 1043.00,305.00 1043.80,305.00 1044.60,305.00 1045.41,305.00 1046.22,305.00 1047.06,305.00 1047.86,305.00 1048.66,305.00 1049.46,305.00 1050.25,305.00 1051.07,305.00 1051.87,305.00 1052.68,305.00 1053.48,305.00 1054.29,305.00 1055.10,305.00 1055.90,305.00 1056.71,305.00 1057.51,305.00 1058.31,305.00 1059.12,305.00 1059.93,305.00 1060.73,305.00 1061.53,305.00 1062.33,305.00 1063.13,305.00 1063.93,305.00 1064.73,305.00 1065.53,305.00 1066.34,305.00 1067.14,305.00 1067.95,305.00 1068.75,305.00 1069.56,305.00 1070.36,305.00 1071.16,305.00 1071.97,305.00 1072.77,305.00 1073.58,305.00 1074.38,305.00 1075.18,305.00 1075.99,305.00 1076.79,305.00 1077.58,305.00 1078.39,305.00 1079.20,305.00 1079.99,305.00 1080.82,305.00 1081.62,305.00 1082.42,305.00 1083.23,305.00 1084.04,305.00 1084.84,305.00 1085.66,305.00 1087.33,305.00 1088.13,305.00 1089.00,305.00 1089.80,305.00 1090.60,305.00 1091.40,305.00 1092.20,305.00 1093.01,305.00 1093.81,305.00 1094.62,305.00 1095.42,305.00 1096.22,305.00 1097.03,305.00 1097.83,305.00 1098.63,305.00 1099.43,305.00 1100.24,305.00 1101.04,305.00 1101.84,305.00 1102.63,305.00 1103.45,305.00 1104.25,305.00 1105.06,305.00 1105.86,305.00 1106.65,305.00 1107.46,305.00 1108.26,305.00 1109.08,305.00 1109.88,305.00 1110.68,305.00 1111.49,305.00 1112.29,305.00 1113.09,305.00 1113.89,305.00 1114.70,305.00 1115.49,305.00 1116.29,305.00 1117.09,305.00 1117.89,305.00 1118.69,305.00 1119.50,305.00 1120.29,305.00 1121.10,305.00 1121.91,305.00 1122.74,305.00 1123.55,305.00 1124.35,305.00 1125.15,305.00 1125.95,305.00 1126.74,305.00 1127.54,305.00 1128.35,305.00 1129.15,305.00 1129.95,305.00 1130.75,305.00 1131.55,305.00 1132.34,305.00 1133.15,305.00 1133.95,305.00 1134.75,305.00 1135.55,305.00 1136.37,305.00 1137.16,305.00 1137.96,305.00 1138.78,305.00 1139.57,305.00 1140.38,305.00 1141.18,305.00 1141.98,305.00 1142.78,305.00 1143.60,305.00 1144.40,305.00 1145.22,305.00 1146.02,305.00 1146.81,305.00 1147.62,305.00 1148.43,305.00 1149.22,305.00 1150.05,305.00 1150.86,305.00 1151.67,305.00 1152.48,305.00 1153.28,305.00 1154.08,305.00 1154.88,305.00 1155.69,305.00 1156.50,305.00 1157.30,305.00 1158.10,305.00 1158.91,305.00 1159.72,305.00 1160.52,305.00 1161.33,305.00 1162.15,305.00 1162.97,305.00 1163.82,305.00 1164.64,305.00 1165.44,305.00 1166.24,305.00 1167.04,305.00 1167.85,305.00 1168.65,305.00 1169.45,305.00 1170.26,305.00 1171.07,305.00 1171.88,305.00 1172.68,305.00 1173.47,305.00 1174.28,305.00 1175.08,305.00 1175.90,305.00 1176.72,305.00 1177.54,305.00 1178.34,305.00 1179.16,305.00 1180.00,305.00"/>
<polyline fill="none" stroke="#9467bd" stroke-opacity="0.80" stroke-width="2" points="70.00,305.00 70.80,305.00 71.60,305.00 72.40,305.00 73.21,305.00 74.01,305.00 74.81,305.00 75.61,305.00 76.48,305.00 77.27,305.00 78.07,305.00 78.87,305.00 79.68,305.00 80.48,305.00 81.27,305.00 82.71,305.00 83.95,305.00 84.76,305.00 85.58,305.00 86.38,305.00 87.18,305.00 87.96,305.00 88.77,305.00 89.57,305.00 90.38,305.00 91.18,305.00 92.00,305.00 92.80,305.00 93.60,305.00 94.44,305.00 95.25,305.00 96.05,305.00 96.87,305.00 97.67,305.00 98.47,305.00 99.30,305.00 100.09,305.00 100.89,305.00 101.71,305.00 102.50,305.00 103.30,305.00 104.09,305.00 104.89,305.00 105.69,305.00 106.49,305.00 107.31,305.00 108.12,305.00 108.91,305.00 109.70,305.00 110.51,305.00 111.31,305.00 112.23,305.00 113.03,305.00 113.83,305.00 114.62,305.00 115.42,305.00 116.21,305.00 117.01,305.00 117.81,305.00 118.61,305.00 119.42,305.00 120.22,305.00 121.01,305.00 121.82,305.00 122.63,305.00 123.43,305.00 124.23,305.00 125.02,305.00 125.82,305.00 126.61,305.00 127.41,305.00 128.20,305.00 129.00,305.00 129.80,305.00 130.60,305.00 131.40,305.00 132.19,305.00 133.00,305.00 133.79,305.00 134.59,305.00 135.41,305.00 136.21,305.00 137.01,305.00 137.81,305.00 138.61,305.00 139.41,305.00 140.21,305.00 141.00,305.00 141.79,305.00 142.60,305.00 143.40,305.00 144.20,305.00 145.01,305.00 145.80,305.00 146.60,305.00 147.40,305.00 148.20,305.00 148.99,305.00 149.79,305.00 150.58,305.00 151.39,305.00 152.19,305.00 152.99,305.00 153.79,305.00 154.60,305.00 155.41,305.00 156.21,305.00 157.00,305.00 157.80,305.00 158.60,305.00 159.41,305.00 160.21,305.00 161.01,305.00 161.80,305.00 162.61,305.00 163.41,305.00 164.22,305.00 165.03,305.00 165.83,305.00 166.63,305.00 167.43,305.00 168.23,305.00 169.02,305.00 169.83,305.00 170.70,305.00 171.49,305.00 172.30,305.00 173.10,305.00 173.90,305.00 174.69,305.00 175.48,305.00 176.27,305.00 177.07,305.00 177.87,305.00 178.67,305.00 179.47,305.00 180.27,305.00 181.06,305.00 181.87,305.00 182.67,305.00 183.47,305.00 184.26,305.00 185.07,305.00 185.86,305.00 186.66,305.00 187.47,305.00 188.27,305.00 189.07,305.00 189.87,305.00 190.66,305.00 191.46,305.00 192.26,305.00 193.05,305.00 193.86,305.00 194.67,305.00 195.47,305.00 196.26,305.00 197.07,305.00 197.87,305.00 198.67,305.00 199.47,305.00 200.27,305.00 201.08,305.00 201.90,305.00 202.69,305.00 203.49,305.00 204.29,305.00 205.08,305.00 205.88,305.00 206.68,305.00 207.48,305.00 208.27,305.00 209.06,305.00 209.87,305.00 210.67,305.00 211.48,305.00 212.27,305.00 213.09,305.00 213.89,305.00 214.69,305.00 215.48,305.00 216.28,305.00 217.15,305.00 217.97,305.00 218.76,305.00 219.56,305.00 220.34,305.00 221.15,305.00 221.95,305.00 222.75,305.00 223.55,305.00 224.35,305.00 225.14,305.00 225.95,305.00 226.76,305.00 227.56,305.00 228.36,305.00 229.15,305.00 229.96,305.00 230.78,305.00 231.60,305.00 232.39,305.00 233.19,305.00 233.99,305.00 234.79,305.00 235.59,305.00 236.39,305.00 237.20,305.00 238.00,305.00 238.79,305.00 239.60,305.00 240.40,305.00 241.20,305.00 242.00,305.00 242.81,305.00 243.61,305.00 244.41,305.00 245.20,305.00 245.99,305.00 246.80,305.00 247.60,305.00 248.39,305.00 249.19,305.00 249.98,305.00 250.78,305.00 251.58,305.00 252.39,305.00 253.19,305.00 254.00,305.00 254.80,305.00 255.61,305.00 256.40,305.00 257.21,305.00 258.00,305.00 258.80,305.00 259.61,305.00 260.42,305.00 261.22,305.00 262.03,305.00 262.83,305.00 263.62,305.00 264.43,305.00 265.22,305.00 266.02,305.00 266.82,305.00 267.62,305.00 268.42,305.00 269.23,305.00 270.03,305.00 270.83,305.00 271.63,305.00 272.44,305.00 273.24,305.00 274.04,305.00 274.84,305.00 275.64,305.00 276.45,305.00 277.26,305.00 278.05,305.00 278.85,305.00 279.74,305.00 280.55,305.00 281.35,305.00 282.15,305.00 282.96,305.00 283.76,305.00 284.56,305.00 285.36,305.00 286.16,305.00 286.98,305.00 287.79,305.00 288.59,305.00 289.39,305.00 290.19,305.00 290.99,305.00 291.79,305.00 292.62,305.00 293.42,305.00 294.22,305.00 295.03,305.00 295.89,305.00 296.69,305.00 297.70,305.00 299.05,305.00 299.87,305.00 300.69,305.00 301.49,305.00 302.27,305.00 303.07,305.00 303.88,305.00 304.68,305.00 305.49,305.00 306.32,305.00 307.15,305.00 308.00,305.00 308.80,305.00 309.60,305.00 310.40,305.00 311.21,305.00 312.02,305.00 312.83,305.00 313.63,305.00 314.43,305.00 315.26,305.00 316.07,305.00 316.86,305.00 317.66,305.00 318.47,305.00 319.30,305.00 320.11,305.00 320.91,305.00 321.73,305.00 322.50,305.00 323.30,305.00 324.11,305.00 324.91,305.00 325.72,305.00 326.55,305.00 327.35,305.00 328.15,305.00 328.96,305.00 329.77,305.00 330.57,305.00 331.37,305.00 332.16,305.00 332.97,305.00 333.77,305.00 334.56,305.00 335.52,305.00 336.46,305.00 337.41,305.00 338.34,305.00 339.25,305.00 340.17,305.00 341.12,305.00 342.05,305.00 342.86,305.00 343.65,305.00 344.44,305.00 345.24,305.00 346.04,305.00 346.84,305.00 347.63,305.00 348.43,305.00 349.23,305.00 350.03,305.00 350.83,305.00 351.62,305.00 352.42,305.00 353.21,305.00 354.01,305.00 354.81,305.00 355.61,305.00 356.40,305.00 357.20,305.00 358.01,305.00 358.80,305.00 359.59,305.00 360.39,305.00 361.19,305.00 361.99,305.00 362.79,305.00 363.59,305.00 364.39,305.00 365.19,305.00 365.98,305.00 366.78,305.00 367.58,305.00 368.37,305.00 369.17,305.00 369.96,305.00 370.75,305.00 371.55,305.00 372.34,305.00 373.14,305.00 373.93,305.00 374.73,305.00 375.53,305.00 376.32,305.00 377.11,305.00 377.89,305.00 378.72,305.00 379.58,305.00 380.38,305.00 381.18,305.00 381.98,305.00 382.78,305.00 383.57,305.00 384.36,305.00 385.16,305.00 386.10,305.00 387.04,305.00 387.97,305.00 388.90,305.00 389.85,305.00 390.78,305.00 391.73,305.00 392.70,305.00 393.58,305.00 394.43,305.00 395.23,305.00 396.04,305.00 396.84,305.00 397.63,305.00 398.43,305.00 399.23,305.00 400.03,305.00 400.83,305.00 401.62,305.00 402.42,305.00 403.22,305.00 404.02,305.00 404.83,305.00 405.62,305.00 406.42,305.00 407.12,305.00 407.94,305.00 408.74,305.00 409.56,305.00 410.36,305.00 411.15,305.00 411.96,305.00 412.77,305.00 413.57,305.00 414.38,305.00 415.18,305.00 416.00,305.00 416.79,305.00 417.58,305.00 418.38,305.00 419.17,305.00 419.97,305.00 420.76,305.00 421.57,305.00 422.37,305.00 423.17,305.00 423.97,305.00 424.76,305.00 425.57,305.00 426.36,305.00 427.17,305.00 427.97,305.00 428.77,305.00 429.57,305.00 430.38,305.00 431.18,305.00 432.00,305.00 432.79,305.00 433.59,305.00 434.39,305.00 435.18,305.00 435.97,305.00 436.78,305.00 437.58,305.00 438.37,305.00 439.17,305.00 439.97,305.00 440.76,305.00 441.57,305.00 442.37,305.00 443.17,305.00 444.14,305.00 444.96,305.00 445.78,305.00 446.58,305.00 447.38,305.00 448.19,305.00 448.99,305.00 449.78,305.00 450.59,305.00 451.40,305.00 452.19,305.00 452.99,305.00 453.80,305.00 454.60,305.00 455.42,305.00 456.24,305.00 457.04,305.00 457.84,305.00 458.64,305.00 459.44,305.00 460.23,305.00 461.04,305.00 461.87,305.00 462.67,305.00 463.48,305.00 464.28,305.00 465.07,305.00 465.88,305.00 466.68,305.00 467.48,305.00 468.28,305.00 469.08,305.00 469.89,305.00 470.69,305.00 471.48,305.00 472.28,305.00 473.08,305.00 473.90,305.00 474.70,305.00 475.49,305.00 476.29,305.00 477.09,305.00 477.90,305.00 478.71,305.00 479.67,305.00 480.49,305.00 481.29,305.00 482.09,305.00 482.89,305.00 483.69,305.00 484.49,305.00 485.30,305.00 486.11,305.00 486.91,305.00 487.71,305.00 488.50,305.00 489.30,305.00 490.10,305.00 490.90,305.00 491.71,305.00 492.50,305.00 493.30,305.00 494.10,305.00 494.90,305.00 495.71,305.00 496.50,305.00 497.30,305.00 498.11,305.00 498.92,305.00 499.71,305.00 500.51,305.00 501.32,305.00 502.14,305.00 502.93,305.00 503.73,305.00 504.54,305.00 505.34,305.00 506.14,305.00 506.94,305.00 507.74,305.00 508.56,305.00 509.36,305.00 510.16,305.00 510.95,305.00 511.75,305.00 512.55,305.00 513.35,305.00 514.15,305.00 514.96,305.00 515.77,305.00 516.58,305.00 517.36,305.00 518.17,305.00 518.96,305.00 519.77,305.00 520.56,305.00 521.37,305.00 522.16,305.00 522.97,305.00 523.77,305.00 524.57,305.00 525.38,305.00 526.19,305.00 526.99,305.00 527.79,305.00 528.60,305.00 529.50,305.00 530.38,305.00 531.24,305.00 532.04,305.00 532.88,305.00 533.68,305.00 534.49,305.00 535.28,305.00 536.03,305.00 536.86,305.00 537.66,305.00 538.47,305.00 539.26,305.00 540.07,305.00 540.86,305.00 541.67,305.00 542.47,305.00 543.27,305.00 544.07,305.00 544.87,305.00 545.67,305.00 546.48,305.00 547.29,305.00 548.10,305.00 548.90,305.00 549.70,305.00 550.50,305.00 551.32,305.00 552.12,305.00 552.92,305.00 553.72,305.00 554.52,305.00 555.32,305.00 556.12,305.00 556.92,305.00 557.72,305.00 558.53,305.00 559.33,305.00 560.13,305.00 560.93,305.00 561.73,305.00 562.54,305.00 563.34,305.00 564.14,305.00 564.94,305.00 565.75,305.00 566.55,305.00 567.36,305.00 568.17,305.00 568.97,305.00 569.77,305.00 570.58,305.00 571.38,305.00 572.19,305.00 573.01,305.00 573.81,305.00 574.62,305.00 575.42,305.00 576.22,305.00 577.02,305.00 577.83,305.00 578.63,305.00 579.44,305.00 580.24,305.00 581.04,305.00 581.85,305.00 582.65,305.00 583.46,305.00 584.26,305.00 585.07,305.00 585.88,305.00 586.68,305.00 587.50,305.00 588.30,305.00 589.09,305.00 589.90,305.00 590.70,305.00 591.52,305.00 592.33,305.00 593.14,305.00 593.94,305.00 594.74,305.00 595.54,305.00 596.34,305.00 597.15,305.00 597.95,305.00 598.75,305.00 599.56,305.00 600.36,305.00 601.16,305.00 601.97,305.00 602.77,305.00 603.57,305.00 604.39,305.00 605.19,305.00 605.99,305.00 606.80,305.00 607.60,305.00 608.39,305.00 609.19,305.00 609.99,305.00 610.80,305.00 611.61,305.00 612.41,305.00 613.22,305.00 614.02,305.00 614.83,305.00 615.64,305.00 616.44,305.00 617.24,305.00 618.06,305.00 618.86,305.00 619.66,305.00 620.47,305.00 621.28,305.00 622.09,305.00 622.89,305.00 623.71,305.00 624.52,305.00 625.33,305.00 626.13,305.00 626.93,305.00 627.74,305.00 628.54,305.00 629.36,305.00 630.16,305.00 630.96,305.00 631.76,305.00 632.56,305.00 633.39,305.00 634.18,305.00 635.00,305.00 635.80,305.00 636.60,305.00 637.40,305.00 638.19,305.00 638.99,305.00 639.80,305.00 640.60,305.00 641.41,305.00 642.21,305.00 643.01,305.00 643.81,305.00 644.64,305.00 645.45,305.00 646.24,305.00 647.05,305.00 647.85,305.00 648.65,305.00 649.45,305.00 650.26,305.00 651.06,305.00 651.87,305.00 652.68,305.00 653.48,305.00 654.28,305.00 655.09,305.00 655.90,305.00 656.72,305.00 657.54,305.00 658.34,305.00 659.15,305.00 659.96,305.00 660.77,305.00 661.56,305.00 662.36,305.00 663.16,305.00 663.97,305.00 664.78,305.00 665.59,305.00 666.39,305.00 667.21,305.00 668.04,305.00 668.84,305.00 669.64,305.00 670.45,305.00 671.25,305.00 672.06,305.00 672.87,305.00 673.68,305.00 674.49,305.00 675.30,305.00 676.11,305.00 676.91,305.00 677.72,305.00 678.53,305.00 679.33,305.00 680.14,305.00 680.94,305.00 681.75,305.00 682.56,305.00 683.36,305.00 684.16,305.00 684.97,305.00 685.78,305.00 686.58,305.00 687.39,305.00 688.20,305.00 689.03,305.00 689.84,305.00 690.65,305.00 691.45,305.00 692.28,305.00 693.10,305.00 693.92,305.00 694.74,305.00 695.57,305.00 696.38,305.00 697.18,305.00 697.98,305.00 698.79,305.00 699.60,305.00 700.41,305.00 701.23,305.00 702.03,305.00 702.84,305.00 703.64,305.00 704.45,305.00 705.25,305.00 706.06,305.00 706.86,305.00 707.66,305.00 708.46,305.00 709.26,305.00 710.07,305.00 710.86,305.00 711.66,305.00 712.47,305.00 713.28,305.00 714.08,305.00 714.89,305.00 715.70,305.00 716.50,305.00 717.31,305.00 718.12,305.00 718.92,305.00 719.72,305.00 720.52,305.00 721.33,305.00 722.14,305.00 722.93,305.00 723.73,305.00 724.53,305.00 725.33,305.00 726.14,305.00 726.94,305.00 727.75,305.00 728.55,305.00 729.35,305.00 730.15,305.00 730.96,305.00 731.77,305.00 732.55,305.00 733.35,305.00 734.14,305.00 734.95,305.00 735.75,305.00 736.57,305.00 737.37,305.00 738.17,305.00 738.98,305.00 739.80,305.00 740.61,305.00 741.41,305.00 742.22,305.00 743.02,305.00 743.82,305.00 744.64,305.00 745.44,305.00 746.26,305.00 747.07,305.00 747.87,305.00 748.67,305.00 749.47,305.00 750.27,305.00 751.07,305.00 751.88,305.00 752.67,305.00 753.47,305.00 754.28,305.00 755.09,305.00 755.89,305.00 756.69,305.00 757.49,305.00 758.29,305.00 759.10,305.00 759.91,305.00 760.71,305.00 761.52,305.00 762.32,305.00 763.13,305.00 763.93,305.00 764.73,305.00 765.54,305.00 766.34,305.00 767.14,305.00 767.95,305.00 768.76,305.00 769.56,305.00 770.36,305.00 771.16,305.00 771.99,305.00 772.80,305.00 773.62,305.00 774.43,305.00 775.24,305.00 776.04,305.00 776.85,305.00 777.66,305.00 778.46,305.00 779.26,305.00 780.07,305.00 780.89,305.00 781.70,305.00 782.50,305.00 783.31,305.00 784.11,305.00 784.92,305.00 785.73,305.00 786.53,305.00 787.33,305.00 788.13,305.00 788.94,305.00 789.74,305.00 790.54,305.00 791.35,305.00 792.15,305.00 792.95,305.00 793.75,305.00 794.55,305.00 795.35,305.00 796.17,305.00 796.97,305.00 797.77,305.00 798.58,305.00 799.38,305.00 800.17,305.00 800.99,305.00 801.79,305.00 802.61,305.00 803.41,305.00 804.21,305.00 805.01,305.00 805.81,305.00 806.62,305.00 807.41,305.00 808.23,305.00 809.06,305.00 809.87,305.00 810.69,305.00 811.51,305.00 812.33,305.00 813.16,305.00 813.98,305.00 814.81,305.00 815.63,305.00 816.46,305.00 817.26,305.00 818.06,305.00 818.87,305.00 819.68,305.00 820.49,305.00 821.29,305.00 822.10,305.00 822.91,305.00 823.71,305.00 824.52,305.00 825.32,305.00 826.12,305.00 826.92,305.00 827.72,305.00 828.53,305.00 829.33,305.00 830.14,305.00 830.94,305.00 831.76,305.00 832.57,305.00 833.37,305.00 834.17,305.00 834.97,305.00 835.78,305.00 836.59,305.00 837.39,305.00 838.20,305.00 839.00,305.00 839.81,305.00 840.61,305.00 841.41,305.00 842.22,305.00 843.02,305.00 843.83,305.00 844.69,305.00 845.52,305.00 846.32,305.00 847.12,305.00 847.92,305.00 848.74,305.00 849.55,305.00 850.36,305.00 851.17,305.00 851.97,305.00 852.75,305.00 853.56,305.00 854.36,305.00 855.17,305.00 855.98,305.00 856.78,305.00 857.59,305.00 858.40,305.00 859.21,305.00 860.00,305.00 860.81,305.00 861.61,305.00 862.42,305.00 863.22,305.00 864.02,305.00 864.83,305.00 865.64,305.00 866.44,305.00 867.25,305.00 868.09,305.00 868.90,305.00 869.70,305.00 870.50,305.00 871.31,305.00 872.11,305.00 872.92,305.00 873.73,305.00 874.53,305.00 875.34,305.00 876.14,305.00 876.96,305.00 877.77,305.00 878.58,305.00 879.38,305.00 880.18,305.00 880.99,305.00 881.79,305.00 882.60,305.00 883.40,305.00 884.22,305.00 885.02,305.00 885.82,305.00 886.63,305.00 887.43,305.00 888.24,305.00 889.04,305.00 889.84,305.00 890.64,305.00 891.45,305.00 892.26,305.00 893.06,305.00 893.86,305.00 894.67,305.00 895.47,305.00 896.28,305.00 897.09,305.00 897.89,305.00 898.68,305.00 899.48,305.00 900.28,305.00 901.10,305.00 901.90,305.00 902.72,305.00 903.53,305.00 904.34,305.00 905.15,305.00 905.95,305.00 906.77,305.00 907.63,305.00 908.45,305.00 909.26,305.00 910.08,305.00 910.89,305.00 911.69,305.00 912.49,305.00 913.30,305.00 914.11,305.00 914.91,305.00 915.72,305.00 916.52,305.00 917.33,305.00 918.15,305.00 918.96,305.00 919.77,305.00 920.57,305.00 921.38,305.00 922.18,305.00 922.99,305.00 923.79,305.00 924.60,305.00 925.41,305.00 926.22,305.00 927.02,305.00 927.83,305.00 928.64,305.00 929.45,305.00 930.26,305.00 931.07,305.00 931.88,305.00 932.68,305.00 933.49,305.00 934.30,305.00 935.09,305.00 935.90,305.00 936.70,305.00 937.50,305.00 938.31,305.00 939.12,305.00 939.92,305.00 940.73,305.00 941.54,305.00 942.34,305.00 943.14,305.00 943.95,305.00 944.76,305.00 945.57,305.00 946.38,305.00 947.17,305.00 947.96,305.00 948.75,305.00 949.56,305.00 950.37,305.00 951.18,305.00 951.99,305.00 952.79,305.00 953.61,305.00 954.42,305.00 955.22,305.00 956.03,305.00 956.83,305.00 957.63,305.00 958.43,305.00 959.23,305.00 960.03,305.00 960.84,305.00 961.64,305.00 962.44,305.00 963.24,305.00 964.05,305.00 964.85,305.00 965.66,305.00 966.46,305.00 967.26,305.00 968.04,305.00 968.86,305.00 969.66,305.00 970.47,305.00 971.28,305.00 972.09,305.00 972.89,305.00 973.69,305.00 974.50,305.00 975.31,305.00 976.11,305.00 976.92,305.00 977.78,305.00 978.59,305.00 979.40,305.00 980.21,305.00 981.02,305.00 981.82,305.00 982.62,305.00 983.43,305.00 984.23,305.00 985.04,305.00 985.84,305.00 986.64,305.00 987.45,305.00 988.26,305.00 989.07,305.00 989.87,305.00 990.67,305.00 991.48,305.00 992.29,305.00 993.10,305.00 993.91,305.00 994.72,305.00 995.54,305.00 996.35,305.00 997.16,305.00 997.96,305.00 998.77,305.00 999.59,305.00 1000.39,305.00 1001.19,305.00 1001.99,305.00 1002.80,305.00 1003.60,305.00 1004.41,305.00 1005.22,305.00 1006.02,305.00 1006.83,305.00 1007.64,305.00 1008.43,305.00 1009.24,305.00 1010.04,305.00 1010.85,305.00 1011.65,305.00 1012.45,305.00 1013.26,305.00 1014.05,305.00 1014.85,305.00 1015.65,305.00 1016.46,305.00 1017.25,305.00 1018.05,305.00 1018.86,305.00 1019.66,305.00 1020.45,305.00 1021.26,305.00 1022.06,305.00 1022.87,305.00 1023.67,305.00 1024.47,305.00 1025.26,305.00 1026.07,305.00 1026.89,305.00 1027.68,305.00 1028.48,305.00 1029.29,305.00 1030.13,305.00 1030.93,305.00 1031.74,305.00 1032.55,305.00 1033.35,305.00 1034.16,305.00 1034.97,305.00 1035.78,305.00 1036.58,305.00 1037.38,305.00 1038.18,305.00 1038.98,305.00 1039.79,305.00 1040.59,305.00 1041.40,305.00 1042.20,305.00 1043.00,305.00 1043.80,305.00 1044.60,305.00 1045.41,305.00 1046.22,305.00 1047.06,305.00 1047.86,305.00 1048.66,305.00 1049.46,305.00 1050.25,305.00 1051.07,305.00 1051.87,305.00 1052.68,305.00 1053.48,305.00 1054.29,305.00 1055.10,305.00 1055.90,305.00 1056.71,305.00 1057.51,305.00 1058.31,305.00 1059.12,305.00 1059.93,305.00 1060.73,305.00 1061.53,305.00 1062.33,305.00 1063.13,305.00 1063.93,305.00 1064.73,305.00 1065.53,305.00 1066.34,305.00 1067.14,305.00 1067.95,305.00 1068.75,305.00 1069.56,305.00 1070.36,305.00 1071.16,305.00 1071.97,305.00 1072.77,305.00 1073.58,305.00 1074.38,305.00 1075.18,305.00 1075.99,305.00 1076.79,305.00 1077.58,305.00 1078.39,305.00 1079.20,305.00 1079.99,305.00 1080.82,305.00 1081.62,305.00 1082.42,305.00 1083.23,305.00 1084.04,305.00 1084.84,305.00 1085.66,305.00 1086.47,305.00 1087.33,305.00 1088.13,305.00 1089.00,305.00 1089.80,305.00 1090.60,305.00 1091.40,305.00 1092.20,305.00 1093.01,305.00 1093.81,305.00 1094.62,305.00 1095.42,305.00 1096.22,305.00 1097.03,305.00 1097.83,305.00 1098.63,305.00 1099.43,305.00 1100.24,305.00 1101.04,305.00 1101.84,305.00 1102.63,305.00 1103.45,305.00 1104.25,305.00 1105.06,305.00 1105.86,305.00 1106.65,305.00 1107.46,305.00 1108.26,305.00 1109.08,305.00 1109.88,305.00 1110.68,305.00 1111.49,305.00 1112.29,305.00 1113.09,305.00 1113.89,305.00 1114.70,305.00 1115.49,305.00 1116.29,305.00 1117.09,305.00 1117.89,305.00 1118.69,305.00 1119.50,305.00 1120.29,305.00 1121.10,305.00 1121.91,305.00 1122.74,305.00 1123.55,305.00 1124.35,305.00 1125.15,305.00 1125.95,305.00 1126.74,305.00 1127.54,305.00 1128.35,305.00 1129.15,305.00 1129.95,305.00 1130.75,305.00 1131.55,305.00 1132.34,305.00 1133.15,305.00 1133.95,305.00 1134.75,305.00 1135.55,305.00 1136.37,305.00 1137.16,305.00 1137.96,305.00 1138.78,305.00 1139.57,305.00 1140.38,305.00 1141.18,305.00 1141.98,305.00 1142.78,305.00 1143.60,305.00 1144.40,305.00 1145.22,305.00 1146.02,305.00 1146.81,305.00 1147.62,305.00 1148.43,305.00 1149.22,305.00 1150.05,305.00 1150.86,305.00 1151.67,305.00 1152.48,305.00 1153.28,305.00 1154.08,305.00 1154.88,305.00 1155.69,305.00 1156.50,305.00 1157.30,305.00 1158.10,305.00 1158.91,305.00 1159.72,305.00 1160.52,305.00 1161.33,305.00 1162.15,305.00 1162.97,305.00 1163.82,305.00 1164.64,305.00 1165.44,305.00 1166.24,305.00 1167.04,305.00 1167.85,305.00 1168.65,305.00 1169.45,305.00 1170.26,305.00 1171.07,305.00 1171.88,305.00 1172.68,305.00 1173.47,305.00 1174.28,305.00 1175.08,305.00 1175.90,305.00 1176.72,305.00 1177.54,305.00 1178.34,305.00 1179.16,305.00 1180.00,305.00"/>
<polyline fill="none" stroke="#9467bd" stroke-opacity="0.65" stroke-width="2" points="407.12,305.00 407.94,305.00 408.74,305.00 409.56,305.00 410.36,305.00 411.15,305.00 411.96,305.00 412.77,305.00 413.57,305.00 414.38,305.00 415.18,305.00 416.00,305.00 416.79,305.00 417.58,305.00 418.38,305.00 419.17,305.00 419.97,305.00 420.76,305.00 421.57,305.00 422.37,305.00 423.17,305.00 423.97,305.00 424.76,305.00 425.57,305.00 426.36,305.00 427.17,305.00 427.97,305.00 428.77,305.00 429.57,305.00 430.38,305.00 431.18,305.00 432.00,305.00 432.79,305.00 433.59,305.00 434.39,305.00 435.18,305.00 435.97,305.00 436.78,305.00 437.58,305.00 438.37,305.00 439.17,305.00 439.97,305.00 440.76,305.00 441.57,305.00 442.37,305.00 443.17,305.00 444.14,305.00 444.96,305.00 445.78,305.00 446.58,305.00 447.38,305.00 448.19,305.00 448.99,305.00 449.78,305.00 450.59,305.00 451.40,305.00 452.19,305.00 452.99,305.00 453.80,305.00 454.60,305.00 455.42,305.00 456.24,305.00 457.04,305.00 457.84,305.00 458.64,305.00 459.44,305.00 460.23,305.00 461.04,305.00 461.87,305.00 462.67,305.00 463.48,305.00 464.28,305.00 465.07,305.00 465.88,305.00 466.68,305.00 467.48,305.00 468.28,305.00 469.08,305.00 469.89,305.00 470.69,305.00 471.48,305.00 472.28,305.00 473.08,305.00 473.90,305.00 474.70,305.00 475.49,305.00 476.29,305.00 477.09,305.00 477.90,305.00 478.71,305.00 479.67,305.00 480.49,305.00 481.29,305.00 482.09,305.00 482.89,305.00 483.69,305.00 484.49,305.00 485.30,305.00 486.11,305.00 486.91,305.00 487.71,305.00 488.50,305.00 489.30,305.00 490.10,305.00 490.90,305.00 491.71,305.00 492.50,305.00 493.30,305.00 494.10,305.00 494.90,305.00 495.71,305.00 496.50,305.00 497.30,305.00 498.11,305.00 498.92,305.00 499.71,305.00 500.51,305.00 501.32,305.00 502.14,305.00 502.93,305.00 503.73,305.00 504.54,305.00 505.34,305.00 506.14,305.00 506.94,305.00 507.74,305.00 508.56,305.00 509.36,305.00 510.16,305.00 510.95,305.00 511.75,305.00 512.55,305.00 513.35,305.00 514.15,305.00 514.96,305.00 515.77,305.00 516.58,305.00 517.36,305.00 518.17,305.00 518.96,305.00 519.77,305.00 520.56,305.00 521.37,305.00 522.16,305.00 522.97,305.00 523.77,305.00 524.57,305.00 525.38,305.00 526.19,305.00 526.99,305.00 527.79,305.00 528.60,305.00 529.50,305.00 530.38,305.00 531.24,305.00 532.04,305.00 532.88,305.00 533.68,305.00 534.49,305.00 535.28,305.00 536.03,305.00 536.86,305.00 537.66,305.00 538.47,305.00 539.26,305.00 540.07,305.00 540.86,305.00 541.67,305.00 542.47,305.00 543.27,305.00 544.07,305.00 544.87,305.00 545.67,305.00 546.48,305.00 547.29,305.00 548.10,305.00 548.90,305.00 549.70,305.00 550.50,305.00 551.32,305.00 552.12,305.00 552.92,305.00 553.72,305.00 554.52,305.00 555.32,305.00 556.12,305.00 556.92,305.00 557.72,305.00 558.53,305.00 559.33,305.00 560.13,305.00 560.93,305.00 561.73,305.00 562.54,305.00 563.34,305.00 564.14,305.00 564.94,305.00 565.75,305.00 566.55,305.00 567.36,305.00 568.17,305.00 568.97,305.00 569.77,305.00 570.58,305.00 571.38,305.00 572.19,305.00 573.01,305.00 573.81,305.00 574.62,305.00 575.42,305.00 576.22,305.00 577.02,305.00 577.83,305.00 578.63,305.00 579.44,305.00 580.24,305.00 581.04,305.00 581.85,305.00 582.65,305.00 583.46,305.00 584.26,305.00 585.07,305.00 585.88,305.00 586.68,305.00 587.50,305.00 588.30,305.00 589.09,305.00 589.90,305.00 590.70,305.00 591.52,305.00 592.33,305.00 593.14,305.00 593.94,305.00 594.74,305.00 595.54,305.00 596.34,305.00 597.15,305.00 597.95,305.00 598.75,305.00 599.56,305.00 600.36,305.00 601.16,305.00 601.97,305.00 602.77,305.00 603.57,305.00 604.39,305.00 605.19,305.00 605.99,305.00 606.80,305.00 607.60,305.00 608.39,305.00 609.19,305.00 609.99,305.00 610.80,305.00 611.61,305.00 612.41,305.00 613.22,305.00 614.02,305.00 614.83,305.00 615.64,305.00 616.44,305.00 617.24,305.00 618.06,305.00 618.86,305.00 619.66,305.00 620.47,305.00 621.28,305.00 622.09,305.00 622.89,305.00 623.71,305.00 624.52,305.00 625.33,305.00 626.13,305.00 626.93,305.00 627.74,305.00 628.54,305.00 629.36,305.00 630.16,305.00 630.96,305.00 631.76,305.00 632.56,305.00 633.39,305.00 634.18,305.00 635.00,305.00 635.80,305.00 636.60,305.00 637.40,305.00 638.19,305.00 638.99,305.00 639.80,305.00 640.60,305.00 641.41,305.00 642.21,305.00 643.01,305.00 643.81,305.00 644.64,305.00 645.45,305.00 646.24,305.00 647.05,305.00 647.85,305.00 648.65,305.00 649.45,305.00 650.26,305.00 651.06,305.00 651.87,305.00 652.68,305.00 653.48,305.00 654.28,305.00 655.09,305.00 655.90,305.00 656.72,305.00 657.54,305.00 658.34,305.00 659.15,305.00 659.96,305.00 660.77,305.00 661.56,305.00 662.36,305.00 663.16,305.00 663.97,305.00 664.78,305.00 665.59,305.00 666.39,305.00 667.21,305.00 668.04,305.00 668.84,305.00 669.64,305.00 670.45,305.00 671.25,305.00 672.06,305.00 672.87,305.00 673.68,305.00 674.49,305.00 675.30,305.00 676.11,305.00 676.91,305.00 677.72,305.00 678.53,305.00 679.33,305.00 680.14,305.00 680.94,305.00 681.75,305.00 682.56,305.00 683.36,305.00 684.16,305.00 684.97,305.00 685.78,305.00 686.58,305.00 687.39,305.00 688.20,305.00 689.03,305.00 689.84,305.00 690.65,305.00 691.45,305.00 692.28,305.00 693.10,305.00 693.92,305.00 694.74,305.00 695.57,305.00 696.38,305.00 697.18,305.00 697.98,305.00 698.79,305.00 699.60,305.00 700.41,305.00 701.23,305.00 702.03,305.00 702.84,305.00 703.64,305.00 704.45,305.00 705.25,305.00 706.06,305.00 706.86,305.00 707.66,305.00 708.46,305.00 709.26,305.00 710.07,305.00 710.86,305.00 711.66,305.00 712.47,305.00 713.28,305.00 714.08,305.00 714.89,305.00 715.70,305.00 716.50,305.00 717.31,305.00 718.12,305.00 718.92,305.00 719.72,305.00 720.52,305.00 721.33,305.00 722.14,305.00 722.93,305.00 723.73,305.00 724.53,305.00 725.33,305.00 726.14,305.00 726.94,305.00 727.75,305.00 728.55,305.00 729.35,305.00 730.15,305.00 730.96,305.00 731.77,305.00 732.55,305.00 733.35,305.00 734.14,305.00 734.95,305.00 735.75,305.00 736.57,305.00 737.37,305.00 738.17,305.00 738.98,305.00 739.80,305.00 740.61,305.00 741.41,305.00 742.22,305.00 743.02,305.00 743.82,305.00 744.64,305.00 745.44,305.00 746.26,305.00 747.07,305.00 747.87,305.00 748.67,305.00 749.47,305.00 750.27,305.00 751.07,305.00 751.88,305.00 752.67,305.00 753.47,305.00 754.28,305.00 755.09,305.00 755.89,305.00 756.69,305.00 757.49,305.00 758.29,305.00 759.10,305.00 759.91,305.00 760.71,305.00 761.52,305.00 762.32,305.00 763.13,305.00 763.93,305.00 764.73,305.00 765.54,305.00 766.34,305.00 767.14,305.00 767.95,305.00 768.76,305.00 769.56,305.00 770.36,305.00 771.16,305.00 771.99,305.00 772.80,305.00 773.62,305.00 774.43,305.00 775.24,305.00 776.04,305.00 776.85,305.00 777.66,305.00 778.46,305.00 779.26,305.00 780.07,305.00 780.89,305.00 781.70,305.00 782.50,305.00 783.31,305.00 784.11,305.00 784.92,305.00 785.73,305.00 786.53,305.00 787.33,305.00 788.13,305.00 788.94,305.00 789.74,305.00 790.54,305.00 791.35,305.00 792.15,305.00 792.95,305.00 793.75,305.00 794.55,305.00 795.35,305.00 796.17,305.00 796.97,305.00 797.77,305.00 798.58,305.00 799.38,305.00 800.17,305.00 800.99,305.00 801.79,305.00 802.61,305.00 803.41,305.00 804.21,305.00 805.01,305.00 805.81,305.00 806.62,305.00 807.41,305.00 808.23,305.00 809.06,305.00 809.87,305.00 810.69,305.00 811.51,305.00 812.33,305.00 813.16,305.00 813.98,305.00 814.81,305.00 815.63,305.00 816.46,305.00 817.26,305.00 818.06,305.00 818.87,305.00 819.68,305.00 820.49,305.00 821.29,305.00 822.10,305.00 822.91,305.00 823.71,305.00 824.52,305.00 825.32,305.00 826.12,305.00 826.92,305.00 827.72,305.00 828.53,305.00 829.33,305.00 830.14,305.00 830.94,305.00 831.76,305.00 832.57,305.00 833.37,305.00 834.17,305.00 834.97,305.00 835.78,305.00 836.59,305.00 837.39,305.00 838.20,305.00 839.00,305.00 839.81,305.00 840.61,305.00 841.41,305.00 842.22,305.00 843.02,305.00 843.83,305.00 844.69,305.00 845.52,305.00 846.32,305.00 847.12,305.00 847.92,305.00 848.74,305.00 849.55,305.00 850.36,305.00 851.17,305.00 851.97,305.00 852.75,305.00 853.56,305.00 854.36,305.00 855.17,305.00 855.98,305.00 856.78,305.00 857.59,305.00 858.40,305.00 859.21,305.00 860.00,305.00 860.81,305.00 861.61,305.00 862.42,305.00 863.22,305.00 864.02,305.00 864.83,305.00 865.64,305.00 866.44,305.00 867.25,305.00 868.09,305.00 868.90,305.00 869.70,305.00 870.50,305.00 871.31,305.00 872.11,305.00 872.92,305.00 873.73,305.00 874.53,305.00 875.34,305.00 876.14,305.00 876.96,305.00 877.77,305.00 878.58,305.00 879.38,305.00 880.18,305.00 880.99,305.00 881.79,305.00 882.60,305.00 883.40,305.00 884.22,305.00 885.02,305.00 885.82,305.00 886.63,305.00 887.43,305.00 888.24,305.00 889.04,305.00 889.84,305.00 890.64,305.00 891.45,305.00 892.26,305.00 893.06,305.00 893.86,305.00 894.67,305.00 895.47,305.00 896.28,305.00 897.09,305.00 897.89,305.00 898.68,305.00 899.48,305.00 900.28,305.00 901.10,305.00 901.90,305.00 902.72,305.00 903.53,305.00 904.34,305.00 905.15,305.00 905.95,305.00 906.77,305.00 907.63,305.00 908.45,305.00 909.26,305.00 910.08,305.00 910.89,305.00 911.69,305.00 912.49,305.00 913.30,305.00 914.11,305.00 914.91,305.00 915.72,305.00 916.52,305.00 917.33,305.00 918.15,305.00 918.96,305.00 919.77,305.00 920.57,305.00 921.38,305.00 922.18,305.00 922.99,305.00 923.79,305.00 924.60,305.00 925.41,305.00 926.22,305.00 927.02,305.00 927.83,305.00 928.64,305.00 929.45,305.00 930.26,305.00 931.07,305.00 931.88,305.00 932.68,305.00 933.49,305.00 934.30,305.00 935.09,305.00 935.90,305.00 936.70,305.00 937.50,305.00 938.31,305.00 939.12,305.00 939.92,305.00 940.73,305.00 941.54,305.00 942.34,305.00 943.14,305.00 943.95,305.00 944.76,305.00 945.57,305.00 946.38,305.00 947.17,305.00 947.96,305.00 948.75,305.00 949.56,305.00 950.37,305.00 951.18,305.00 951.99,305.00 952.79,305.00 953.61,305.00 954.42,305.00 955.22,305.00 956.03,305.00 956.83,305.00 957.63,305.00 958.43,305.00 959.23,305.00 960.03,305.00 960.84,305.00 961.64,305.00 962.44,305.00 963.24,305.00 964.05,305.00 964.85,305.00 965.66,305.00 966.46,305.00 967.26,305.00 968.04,305.00 968.86,305.00 969.66,305.00 970.47,305.00 971.28,305.00 972.09,305.00 972.89,305.00 973.69,305.00 974.50,305.00 975.31,305.00 976.11,305.00 976.92,305.00 977.78,305.00 978.59,305.00 979.40,305.00 980.21,305.00 981.02,305.00 981.82,305.00 982.62,305.00 983.43,305.00 984.23,305.00 985.04,305.00 985.84,305.00 986.64,305.00 987.45,305.00 988.26,305.00 989.07,305.00 989.87,305.00 990.67,305.00 991.48,305.00 992.29,305.00 993.10,305.00 993.91,305.00 994.72,305.00 995.54,305.00 996.35,305.00 997.16,305.00 997.96,305.00 998.77,305.00 999.59,305.00 1000.39,305.00 1001.19,305.00 1001.99,305.00 1002.80,305.00 1003.60,305.00 1004.41,305.00 1005.22,305.00 1006.02,305.00 1006.83,305.00 1007.64,305.00 1008.43,305.00 1009.24,305.00 1010.04,305.00 1010.85,305.00 1011.65,305.00 1012.45,305.00 1013.26,305.00 1014.05,305.00 1014.85,305.00 1015.65,305.00 1016.46,305.00 1017.25,305.00 1018.05,305.00 1018.86,305.00 1019.66,305.00 1020.45,305.00 1021.26,305.00 1022.06,305.00 1022.87,305.00 1023.67,305.00 1024.47,305.00 1025.26,305.00 1026.07,305.00 1026.89,305.00 1027.68,305.00 1028.48,305.00 1029.29,305.00 1030.13,305.00 1030.93,305.00 1031.74,305.00 1032.55,305.00 1033.35,305.00 1034.16,305.00 1034.97,305.00 1035.78,305.00 1036.58,305.00 1037.38,305.00 1038.18,305.00 1038.98,305.00 1039.79,305.00 1040.59,305.00 1041.40,305.00 1042.20,305.00 1043.00,305.00 1043.80,305.00 1044.60,305.00 1045.41,305.00 1046.22,305.00 1047.06,305.00 1047.86,305.00 1048.66,305.00 1049.46,305.00 1050.25,305.00 1051.07,305.00 1051.87,305.00 1052.68,305.00 1053.48,305.00 1054.29,305.00 1055.10,305.00 1055.90,305.00 1056.71,305.00 1057.51,305.00 1058.31,305.00 1059.12,305.00 1059.93,305.00 1060.73,305.00 1061.53,305.00 1062.33,305.00 1063.13,305.00 1063.93,305.00 1064.73,305.00 1065.53,305.00 1066.34,305.00 1067.14,305.00 1067.95,305.00 1068.75,305.00 1069.56,305.00 1070.36,305.00 1071.16,305.00 1071.97,305.00 1072.77,305.00 1073.58,305.00 1074.38,305.00 1075.18,305.00 1075.99,305.00 1076.79,305.00 1077.58,305.00 1078.39,305.00 1079.20,305.00 1079.99,305.00 1080.82,305.00 1081.62,305.00 1082.42,305.00 1083.23,305.00 1084.04,305.00 1084.84,305.00 1085.66,305.00 1086.47,305.00 1087.33,305.00 1088.13,305.00 1089.00,305.00 1089.80,305.00 1090.60,305.00 1091.40,305.00 1092.20,305.00 1093.01,305.00 1093.81,305.00 1094.62,305.00 1095.42,305.00 1096.22,305.00 1097.03,305.00 1097.83,305.00 1098.63,305.00 1099.43,305.00 1100.24,305.00 1101.04,305.00 1101.84,305.00 1102.63,305.00 1103.45,305.00 1104.25,305.00 1105.06,305.00 1105.86,305.00 1106.65,305.00 1107.46,305.00 1108.26,305.00 1109.08,305.00 1109.88,305.00 1110.68,305.00 1111.49,305.00 1112.29,305.00 1113.09,305.00 1113.89,305.00 1114.70,305.00 1115.49,305.00 1116.29,305.00 1117.09,305.00 1117.89,305.00 1118.69,305.00 1119.50,305.00 1120.29,305.00 1121.10,305.00 1121.91,305.00 1122.74,305.00 1123.55,305.00 1124.35,305.00 1125.15,305.00 1125.95,305.00 1126.74,305.00 1127.54,305.00 1128.35,305.00 1129.15,305.00 1129.95,305.00 1130.75,305.00 1131.55,305.00 1132.34,305.00 1133.15,305.00 1133.95,305.00 1134.75,305.00 1135.55,305.00 1136.37,305.00 1137.16,305.00 1137.96,305.00 1138.78,305.00 1139.57,305.00 1140.38,305.00 1141.18,305.00 1141.98,305.00 1142.78,305.00 1143.60,305.00 1144.40,305.00 1145.22,305.00 1146.02,305.00 1146.81,305.00 1147.62,305.00 1148.43,305.00 1149.22,305.00 1150.05,305.00 1150.86,305.00 1151.67,305.00 1152.48,305.00 1153.28,305.00 1154.08,305.00 1154.88,305.00 1155.69,305.00 1156.50,305.00 1157.30,305.00 1158.10,305.00 1158.91,305.00 1159.72,305.00 1160.52,305.00 1161.33,305.00 1162.15,305.00 1162.97,305.00 1163.82,305.00 1164.64,305.00 1165.44,305.00 1166.24,305.00 1167.04,305.00 1167.85,305.00 1168.65,305.00 1169.45,305.00 1170.26,305.00 1171.07,305.00 1171.88,305.00 1172.68,305.00 1173.47,305.00 1174.28,305.00 1175.08,305.00 1175.90,305.00 1176.72,305.00 1177.54,305.00 1178.34,305.00 1179.16,305.00 1180.00,305.00"/>
<polyline fill="none" stroke="#9467bd" stroke-opacity="0.50" stroke-width="2" points="70.00,305.00 70.80,305.00 71.60,305.00 72.40,305.00 73.21,305.00 74.01,305.00 74.81,305.00 75.61,305.00 76.48,305.00 77.27,305.00 78.07,305.00 78.87,305.00 79.68,305.00 80.48,305.00 81.27,305.00 82.71,305.00 83.95,305.00 84.76,305.00 85.58,305.00 86.38,305.00 87.18,305.00 87.96,305.00 88.77,305.00 89.57,305.00 90.38,305.00 91.18,305.00 92.00,305.00 92.80,305.00 93.60,305.00 94.44,305.00 95.25,305.00 96.05,305.00 96.87,305.00 97.67,305.00 98.47,305.00 99.30,305.00 100.09,305.00 100.89,305.00 101.71,305.00 102.50,305.00 103.30,305.00 104.09,305.00 104.89,305.00 105.69,305.00 106.49,305.00 107.31,305.00 108.12,305.00 108.91,305.00 109.70,305.00 110.51,305.00 111.31,305.00 112.23,305.00 113.03,305.00 113.83,305.00 114.62,305.00 115.42,305.00 116.21,305.00 117.01,305.00 117.81,305.00 118.61,305.00 119.42,305.00 120.22,305.00 121.01,305.00 121.82,305.00 122.63,305.00 123.43,305.00 124.23,305.00 125.02,305.00 125.82,305.00 126.61,305.00 127.41,305.00 128.20,305.00 129.00,305.00 129.80,305.00 130.60,305.00 131.40,305.00 132.19,305.00 133.00,305.00 133.79,305.00 134.59,305.00 135.41,305.00 136.21,305.00 137.01,305.00 137.81,305.00 138.61,305.00 139.41,305.00 140.21,305.00 141.00,305.00 141.79,305.00 142.60,305.00 143.40,305.00 144.20,305.00 145.01,305.00 145.80,305.00 146.60,305.00 147.40,305.00 148.20,305.00 148.99,305.00 149.79,305.00 150.58,305.00 151.39,305.00 152.19,305.00 152.99,305.00 153.79,305.00 154.60,305.00 155.41,305.00 156.21,305.00 157.00,305.00 157.80,305.00 158.60,305.00 159.41,305.00 160.21,305.00 161.01,305.00 161.80,305.00 162.61,305.00 163.41,305.00 164.22,305.00 165.03,305.00 165.83,305.00 166.63,305.00 167.43,305.00 168.23,305.00 169.02,305.00 169.83,305.00 170.70,305.00 171.49,305.00 172.30,305.00 173.10,305.00 173.90,305.00 174.69,305.00 175.48,305.00 176.27,305.00 177.07,305.00 177.87,305.00 178.67,305.00 179.47,305.00 180.27,305.00 181.06,305.00 181.87,305.00 182.67,305.00 183.47,305.00 184.26,305.00 185.07,305.00 185.86,305.00 186.66,305.00 187.47,305.00 188.27,305.00 189.07,305.00 189.87,305.00 190.66,305.00 191.46,305.00 192.26,305.00 193.05,305.00 193.86,305.00 194.67,305.00 195.47,305.00 196.26,305.00 197.07,305.00 197.87,305.00 198.67,305.00 199.47,305.00 200.27,305.00 201.08,305.00 201.90,305.00 202.69,305.00 203.49,305.00 204.29,305.00 205.08,305.00 205.88,305.00 206.68,305.00 207.48,305.00 208.27,305.00 209.06,305.00 209.87,305.00 210.67,305.00 211.48,305.00 212.27,305.00 213.09,305.00 213.89,305.00 214.69,305.00 215.48,305.00 216.28,305.00 217.15,305.00 217.97,305.00 218.76,305.00 219.56,305.00 220.34,305.00 221.15,305.00 221.95,305.00 222.75,305.00 223.55,305.00 224.35,305.00 225.14,305.00 225.95,305.00 226.76,305.00 227.56,305.00 228.36,305.00 229.15,305.00 229.96,305.00 230.78,305.00 231.60,305.00 232.39,305.00 233.19,305.00 233.99,305.00 234.79,305.00 235.59,305.00 236.39,305.00 237.20,305.00 238.00,305.00 238.79,305.00 239.60,305.00 240.40,305.00 241.20,305.00 242.00,305.00 242.81,305.00 243.61,305.00 244.41,305.00 245.20,305.00 245.99,305.00 246.80,305.00 247.60,305.00 248.39,305.00 249.19,305.00 249.98,305.00 250.78,305.00 251.58,305.00 252.39,305.00 253.19,305.00 254.00,305.00 254.80,305.00 255.61,305.00 256.40,305.00 257.21,305.00 258.00,305.00 258.80,305.00 259.61,305.00 260.42,305.00 261.22,305.00 262.03,305.00 262.83,305.00 263.62,305.00 264.43,305.00 265.22,305.00 266.02,305.00 266.82,305.00 267.62,305.00 268.42,305.00 269.23,305.00 270.03,305.00 270.83,305.00 271.63,305.00 272.44,305.00 273.24,305.00 274.04,305.00 274.84,305.00 275.64,305.00 276.45,305.00 277.26,305.00 278.05,305.00 278.85,305.00 279.74,305.00 280.55,305.00 281.35,305.00 282.15,305.00 282.96,305.00 283.76,305.00 284.56,305.00 285.36,305.00 286.16,305.00 286.98,305.00 287.79,305.00 288.59,305.00 289.39,305.00 290.19,305.00 290.99,305.00 291.79,305.00 292.62,305.00 293.42,305.00 294.22,305.00 295.03,305.00 295.89,305.00 296.69,305.00 297.70,305.00 299.05,305.00 299.87,305.00 300.69,305.00 301.49,305.00 302.27,305.00 303.07,305.00 303.88,305.00 304.68,305.00 305.49,305.00 306.32,305.00 307.15,305.00 308.00,305.00 308.80,305.00 309.60,305.00 310.40,305.00 311.21,305.00 312.02,305.00 312.83,305.00 313.63,305.00 314.43,305.00 315.26,305.00 316.07,305.00 316.86,305.00 317.66,305.00 318.47,305.00 319.30,305.00 320.11,305.00 320.91,305.00 321.73,305.00 322.50,305.00 323.30,305.00 324.11,305.00 324.91,305.00 325.72,305.00 326.55,305.00 327.35,305.00 328.15,305.00 328.96,305.00 329.77,305.00 330.57,305.00 331.37,305.00 332.16,305.00 332.97,305.00 333.77,305.00 334.56,305.00 335.52,305.00 336.46,305.00 337.41,305.00 338.34,305.00 339.25,305.00 340.17,305.00 341.12,305.00 342.05,305.00 342.86,305.00 343.65,305.00 344.44,305.00 345.24,305.00 346.04,305.00 346.84,305.00 347.63,305.00 348.43,305.00 349.23,305.00 350.03,305.00 350.83,305.00 351.62,305.00 352.42,305.00 353.21,305.00 354.01,305.00 354.81,305.00 355.61,305.00 356.40,305.00 357.20,305.00 358.01,305.00 358.80,305.00 359.59,305.00 360.39,305.00 361.19,305.00 361.99,305.00 362.79,305.00 363.59,305.00 364.39,305.00 365.19,305.00 365.98,305.00 366.78,305.00 367.58,305.00 368.37,305.00 369.17,305.00 369.96,305.00 370.75,305.00 371.55,305.00 372.34,305.00 373.14,305.00 373.93,305.00 374.73,305.00 375.53,305.00 376.32,305.00 377.11,305.00 377.89,305.00 378.72,305.00 379.58,305.00 380.38,305.00 381.18,305.00 381.98,305.00 382.78,305.00 383.57,305.00 384.36,305.00 385.16,305.00 386.10,305.00 387.04,305.00 387.97,305.00 388.90,305.00 389.85,305.00 390.78,305.00 391.73,305.00 392.70,305.00 393.58,305.00 394.43,305.00 395.23,305.00 396.04,305.00 396.84,305.00 397.63,305.00 398.43,305.00 399.23,305.00 400.03,305.00 400.83,305.00 401.62,305.00 402.42,305.00 403.22,305.00 404.02,305.00 404.83,305.00 405.62,305.00 406.42,305.00 407.12,305.00 407.94,305.00 408.74,305.00 409.56,305.00 410.36,305.00 411.15,305.00 411.96,305.00 412.77,305.00 413.57,305.00 414.38,305.00 415.18,305.00 416.00,305.00 416.79,305.00 417.58,305.00 418.38,305.00 419.17,305.00 419.97,305.00 420.76,305.00 421.57,305.00 422.37,305.00 423.17,305.00 423.97,305.00 424.76,305.00 425.57,305.00 426.36,305.00 427.17,305.00 427.97,305.00 428.77,305.00 429.57,305.00 430.38,305.00 431.18,305.00 432.00,305.00 432.79,305.00 433.59,305.00 434.39,305.00 435.18,305.00 435.97,305.00 436.78,305.00 437.58,305.00 438.37,305.00 439.17,305.00 439.97,305.00 440.76,305.00 441.57,305.00 442.37,305.00 443.17,305.00 444.14,305.00 444.96,305.00 445.78,305.00 446.58,305.00 447.38,305.00 448.19,305.00 448.99,305.00 449.78,305.00 450.59,305.00 451.40,305.00 452.19,305.00 452.99,305.00 453.80,305.00 454.60,305.00 455.42,305.00 456.24,305.00 457.04,305.00 457.84,305.00 458.64,305.00 459.44,305.00 460.23,305.00 461.04,305.00 461.87,305.00 462.67,305.00 463.48,305.00 464.28,305.00 465.07,305.00 465.88,305.00 466.68,305.00 467.48,305.00 468.28,305.00 469.08,305.00 469.89,305.00 470.69,305.00 471.48,305.00 472.28,305.00 473.08,305.00 473.90,305.00 474.70,305.00 475.49,305.00 476.29,305.00 477.09,305.00 477.90,305.00 478.71,305.00 479.67,305.00 480.49,305.00 481.29,305.00 482.09,305.00 482.89,305.00 483.69,305.00 484.49,305.00 485.30,305.00 486.11,305.00 486.91,305.00 487.71,305.00 488.50,305.00 489.30,305.00 490.10,305.00 490.90,305.00 491.71,305.00 492.50,305.00 493.30,305.00 494.10,305.00 494.90,305.00 495.71,305.00 496.50,305.00 497.30,305.00 498.11,305.00 498.92,305.00 499.71,305.00 500.51,305.00 501.32,305.00 502.14,305.00 502.93,305.00 503.73,305.00 504.54,305.00 505.34,305.00 506.14,305.00 506.94,305.00 507.74,305.00 508.56,305.00 509.36,305.00 510.16,305.00 510.95,305.00 511.75,305.00 512.55,305.00 513.35,305.00 514.15,305.00 514.96,305.00 515.77,305.00 516.58,305.00 517.36,305.00 518.17,305.00 518.96,305.00 519.77,305.00 520.56,305.00 521.37,305.00 522.16,305.00 522.97,305.00 523.77,305.00 524.57,305.00 525.38,305.00 526.19,305.00 526.99,305.00 527.79,305.00 528.60,305.00 529.50,305.00 530.38,305.00 531.24,305.00 532.04,305.00 532.88,305.00 533.68,305.00 534.49,305.00 535.28,305.00 536.03,305.00 536.86,305.00 537.66,305.00 538.47,305.00 539.26,305.00 540.07,305.00 540.86,305.00 541.67,305.00 542.47,305.00 543.27,305.00 544.07,305.00 544.87,305.00 545.67,305.00 546.48,305.00 547.29,305.00 548.10,305.00 548.90,305.00 549.70,305.00 550.50,305.00 551.32,305.00 552.12,305.00 552.92,305.00 553.72,305.00 554.52,305.00 555.32,305.00 556.12,305.00 556.92,305.00 557.72,305.00 558.53,305.00 559.33,305.00 560.13,305.00 560.93,305.00 561.73,305.00 562.54,305.00 563.34,305.00 564.14,305.00 564.94,305.00 565.75,305.00 566.55,305.00 567.36,305.00 568.17,305.00 568.97,305.00 569.77,305.00 570.58,305.00 571.38,305.00 572.19,305.00 573.01,305.00 573.81,305.00 574.62,305.00 575.42,305.00 576.22,305.00 577.02,305.00 577.83,305.00 578.63,305.00 579.44,305.00 580.24,305.00 581.04,305.00 581.85,305.00 582.65,305.00 583.46,305.00 584.26,305.00 585.07,305.00 585.88,305.00 586.68,305.00 587.50,305.00 588.30,305.00 589.09,305.00 589.90,305.00 590.70,305.00 591.52,305.00 592.33,305.00 593.14,305.00 593.94,305.00 594.74,305.00 595.54,305.00 596.34,305.00 597.15,305.00 597.95,305.00 598.75,305.00 599.56,305.00 600.36,305.00 601.16,305.00 601.97,305.00 602.77,305.00 603.57,305.00 604.39,305.00 605.19,305.00 605.99,305.00 606.80,305.00 607.60,305.00 608.39,305.00 609.19,305.00 609.99,305.00 610.80,305.00 611.61,305.00 612.41,305.00 613.22,305.00 614.02,305.00 614.83,305.00 615.64,305.00 616.44,305.00 617.24,305.00 618.06,305.00 618.86,305.00 619.66,305.00 620.47,305.00 621.28,305.00 622.09,305.00 622.89,305.00 623.71,305.00 624.52,305.00 625.33,305.00 626.13,305.00 626.93,305.00 627.74,305.00 628.54,305.00 629.36,305.00 630.16,305.00 630.96,305.00 631.76,305.00 632.56,305.00 633.39,305.00 634.18,305.00 635.00,305.00 635.80,305.00 636.60,305.00 637.40,305.00 638.19,305.00 638.99,305.00 639.80,305.00 640.60,305.00 641.41,305.00 642.21,305.00 643.01,305.00 643.81,305.00 644.64,305.00 645.45,305.00 646.24,305.00 647.05,305.00 647.85,305.00 648.65,305.00 649.45,305.00 650.26,305.00 651.06,305.00 651.87,305.00 652.68,305.00 653.48,305.00 654.28,305.00 655.09,305.00 655.90,305.00 656.72,305.00 657.54,305.00 658.34,305.00 659.15,305.00 659.96,305.00 660.77,305.00 661.56,305.00 662.36,305.00 663.16,305.00 663.97,305.00 664.78,305.00 665.59,305.00 666.39,305.00 667.21,305.00 668.04,305.00 668.84,305.00 669.64,305.00 670.45,305.00 671.25,305.00 672.06,305.00 672.87,305.00 673.68,305.00 674.49,305.00 675.30,305.00 676.11,305.00 676.91,305.00 677.72,305.00 678.53,305.00 679.33,305.00 680.14,305.00 680.94,305.00 681.75,305.00 682.56,305.00 683.36,305.00 684.16,305.00 684.97,305.00 685.78,305.00 686.58,305.00 687.39,305.00 688.20,305.00 689.03,305.00 689.84,305.00 690.65,305.00 691.45,305.00 692.28,305.00 693.10,305.00 693.92,305.00 694.74,305.00 695.57,305.00 696.38,305.00 697.18,305.00 697.98,305.00 698.79,305.00 699.60,305.00 700.41,305.00 701.23,305.00 702.03,305.00 702.84,305.00 703.64,305.00 704.45,305.00 705.25,305.00 706.06,305.00 706.86,305.00 707.66,305.00 708.46,305.00 709.26,305.00 710.07,305.00 710.86,305.00 711.66,305.00 712.47,305.00 713.28,305.00 714.08,305.00 714.89,305.00 715.70,305.00 716.50,305.00 717.31,305.00 718.12,305.00 718.92,305.00 719.72,305.00 720.52,305.00 721.33,305.00 722.14,305.00 722.93,305.00 723.73,305.00 724.53,305.00 725.33,305.00 726.14,305.00 726.94,305.00 727.75,305.00 728.55,305.00 729.35,305.00 730.15,305.00 730.96,305.00 731.77,305.00 732.55,305.00 733.35,305.00 734.14,305.00 734.95,305.00 735.75,305.00 736.57,305.00 737.37,305.00 738.17,305.00 738.98,305.00 739.80,305.00 740.61,305.00 741.41,305.00 742.22,305.00 743.02,305.00 743.82,305.00 744.64,305.00 745.44,305.00 746.26,305.00 747.07,305.00 747.87,305.00 748.67,305.00 749.47,305.00 750.27,305.00 751.07,305.00 751.88,305.00 752.67,305.00 753.47,305.00 754.28,305.00 755.09,305.00 755.89,305.00 756.69,305.00 757.49,305.00 758.29,305.00 759.10,305.00 759.91,305.00 760.71,305.00 761.52,305.00 762.32,305.00 763.13,305.00 763.93,305.00 764.73,305.00 765.54,305.00 766.34,305.00 767.14,305.00 767.95,305.00 768.76,305.00 769.56,305.00 770.36,305.00 771.16,305.00 771.99,305.00 772.80,305.00 773.62,305.00 774.43,305.00 775.24,305.00 776.04,305.00 776.85,305.00 777.66,305.00 778.46,305.00 779.26,305.00 780.07,305.00 780.89,305.00 781.70,305.00 782.50,305.00 783.31,305.00 784.11,305.00 784.92,305.00 785.73,305.00 786.53,305.00 787.33,305.00 788.13,305.00 788.94,305.00 789.74,305.00 790.54,305.00 791.35,305.00 792.15,305.00 792.95,305.00 793.75,305.00 794.55,305.00 795.35,305.00 796.17,305.00 796.97,305.00 797.77,305.00 798.58,305.00 799.38,305.00 800.17,305.00 800.99,305.00 801.79,305.00 802.61,305.00 803.41,305.00 804.21,305.00 805.01,305.00 805.81,305.00 806.62,305.00 807.41,305.00 808.23,305.00 809.06,305.00 809.87,305.00 810.69,305.00 811.51,305.00 812.33,305.00 813.16,305.00 813.98,305.00 814.81,305.00 815.63,305.00 816.46,305.00 817.26,305.00 818.06,305.00 818.87,305.00 819.68,305.00 820.49,305.00 821.29,305.00 822.10,305.00 822.91,305.00 823.71,305.00 824.52,305.00 825.32,305.00 826.12,305.00 826.92,305.00 827.72,305.00 828.53,305.00 829.33,305.00 830.14,305.00 830.94,305.00 831.76,305.00 832.57,305.00 833.37,305.00 834.17,305.00 834.97,305.00 835.78,305.00 836.59,305.00 837.39,305.00 838.20,305.00 839.00,305.00 839.81,305.00 840.61,305.00 841.41,305.00 842.22,305.00 843.02,305.00 843.83,305.00 844.69,305.00 845.52,305.00 846.32,305.00 847.12,305.00 847.92,305.00 848.74,305.00 849.55,305.00 850.36,305.00 851.17,305.00 851.97,305.00 852.75,305.00 853.56,305.00 854.36,305.00 855.17,305.00 855.98,305.00 856.78,305.00 857.59,305.00 858.40,305.00 859.21,305.00 860.00,305.00 860.81,305.00 861.61,305.00 862.42,305.00 863.22,305.00 864.02,305.00 864.83,305.00 865.64,305.00 866.44,305.00 867.25,305.00 868.09,305.00 868.90,305.00 869.70,305.00 870.50,305.00 871.31,305.00 872.11,305.00 872.92,305.00 873.73,305.00 874.53,305.00 875.34,305.00 876.14,305.00 876.96,305.00 877.77,305.00 878.58,305.00 879.38,305.00 880.18,305.00 880.99,305.00 881.79,305.00 882.60,305.00 883.40,305.00 884.22,305.00 885.02,305.00 885.82,305.00 886.63,305.00 887.43,305.00 888.24,305.00 889.04,305.00 889.84,305.00 890.64,305.00 891.45,305.00 892.26,305.00 893.06,305.00 893.86,305.00 894.67,305.00 895.47,305.00 896.28,305.00 897.09,305.00 897.89,305.00 898.68,305.00 899.48,305.00 900.28,305.00 901.10,305.00 901.90,305.00 902.72,305.00 903.53,305.00 904.34,305.00 905.15,305.00 905.95,305.00 906.77,305.00 907.63,305.00 908.45,305.00 909.26,305.00 910.08,305.00 910.89,305.00 911.69,305.00 912.49,305.00 913.30,305.00 914.11,305.00 914.91,305.00 915.72,305.00 916.52,305.00 917.33,305.00 918.15,305.00 918.96,305.00 919.77,305.00 920.57,305.00 921.38,305.00 922.18,305.00 922.99,305.00 923.79,305.00 924.60,305.00 925.41,305.00 926.22,305.00 927.02,305.00 927.83,305.00 928.64,305.00 929.45,305.00 930.26,305.00 931.07,305.00 931.88,305.00 932.68,305.00 933.49,305.00 934.30,305.00 935.09,305.00 935.90,305.00 936.70,305.00 937.50,305.00 938.31,305.00 939.12,305.00 939.92,305.00 940.73,305.00 941.54,305.00 942.34,305.00 943.14,305.00 943.95,305.00 944.76,305.00 945.57,305.00 946.38,305.00 947.17,305.00 947.96,305.00 948.75,305.00 949.56,305.00 950.37,305.00 951.18,305.00 951.99,305.00 952.79,305.00 953.61,305.00 954.42,305.00 955.22,305.00 956.03,305.00 956.83,305.00 957.63,305.00 958.43,305.00 959.23,305.00 960.03,305.00 960.84,305.00 961.64,305.00 962.44,305.00 963.24,305.00 964.05,305.00 964.85,305.00 965.66,305.00 966.46,305.00 967.26,305.00 968.04,305.00 968.86,305.00 969.66,305.00 970.47,305.00 971.28,305.00 972.09,305.00 972.89,305.00 973.69,305.00 974.50,305.00 975.31,305.00 976.11,305.00 976.92,305.00 977.78,305.00 978.59,305.00 979.40,305.00 980.21,305.00 981.02,305.00 981.82,305.00 982.62,305.00 983.43,305.00 984.23,305.00 985.04,305.00 985.84,305.00 986.64,305.00 987.45,305.00 988.26,305.00 989.07,305.00 989.87,305.00 990.67,305.00 991.48,305.00 992.29,305.00 993.10,305.00 993.91,305.00 994.72,305.00 995.54,305.00 996.35,305.00 997.16,305.00 997.96,305.00 998.77,305.00 999.59,305.00 1000.39,305.00 1001.19,305.00 1001.99,305.00 1002.80,305.00 1003.60,305.00 1004.41,305.00 1005.22,305.00 1006.02,305.00 1006.83,305.00 1007.64,305.00 1008.43,305.00 1009.24,305.00 1010.04,305.00 1010.85,305.00 1011.65,305.00 1012.45,305.00 1013.26,305.00 1014.05,305.00 1014.85,305.00 1015.65,305.00 1016.46,305.00 1017.25,305.00 1018.05,305.00 1018.86,305.00 1019.66,305.00 1020.45,305.00 1021.26,305.00 1022.06,305.00 1022.87,305.00 1023.67,305.00 1024.47,305.00 1025.26,305.00 1026.07,305.00 1026.89,305.00 1027.68,305.00 1028.48,305.00 1029.29,305.00 1030.13,305.00 1030.93,305.00 1031.74,305.00 1032.55,305.00 1033.35,305.00 1034.16,305.00 1034.97,305.00 1035.78,305.00 1036.58,305.00 1037.38,305.00 1038.18,305.00 1038.98,305.00 1039.79,305.00 1040.59,305.00 1041.40,305.00 1042.20,305.00 1043.00,305.00 1043.80,305.00 1044.60,305.00 1045.41,305.00 1046.22,305.00 1047.06,305.00 1047.86,305.00 1048.66,305.00 1049.46,305.00 1050.25,305.00 1051.07,305.00 1051.87,305.00 1052.68,305.00 1053.48,305.00 1054.29,305.00 1055.10,305.00 1055.90,305.00 1056.71,305.00 1057.51,305.00 1058.31,305.00 1059.12,305.00 1059.93,305.00 1060.73,305.00 1061.53,305.00 1062.33,305.00 1063.13,305.00 1063.93,305.00 1064.73,305.00 1065.53,305.00 1066.34,305.00 1067.14,305.00 1067.95,305.00 1068.75,305.00 1069.56,305.00 1070.36,305.00 1071.16,305.00 1071.97,305.00 1072.77,305.00 1073.58,305.00 1074.38,305.00 1075.18,305.00 1075.99,305.00 1076.79,305.00 1077.58,305.00 1078.39,305.00 1079.20,305.00 1079.99,305.00 1080.82,305.00 1081.62,305.00 1082.42,305.00 1083.23,305.00 1084.04,305.00 1084.84,305.00 1085.66,305.00 1086.47,305.00 1087.33,305.00 1088.13,305.00 1089.00,305.00 1089.80,305.00 1090.60,305.00 1091.40,305.00 1092.20,305.00 1093.01,305.00 1093.81,305.00 1094.62,305.00 1095.42,305.00 1096.22,305.00 1097.03,305.00 1097.83,305.00 1098.63,305.00 1099.43,305.00 1100.24,305.00 1101.04,305.00 1101.84,305.00 1102.63,305.00 1103.45,305.00 1104.25,305.00 1105.06,305.00 1105.86,305.00 1106.65,305.00 1107.46,305.00 1108.26,305.00 1109.08,305.00 1109.88,305.00 1110.68,305.00 1111.49,305.00 1112.29,305.00 1113.09,305.00 1113.89,305.00 1114.70,305.00 1115.49,305.00 1116.29,305.00 1117.09,305.00 1117.89,305.00 1118.69,305.00 1119.50,305.00 1120.29,305.00 1121.10,305.00 1121.91,305.00 1122.74,305.00 1123.55,305.00 1124.35,305.00 1125.15,305.00 1125.95,305.00 1126.74,305.00 1127.54,305.00 1128.35,305.00 1129.15,305.00 1129.95,305.00 1130.75,305.00 1131.55,305.00 1132.34,305.00 1133.15,305.00 1133.95,305.00 1134.75,305.00 1135.55,305.00 1136.37,305.00 1137.16,305.00 1137.96,305.00 1138.78,305.00 1139.57,305.00 1140.38,305.00 1141.18,305.00 1141.98,305.00 1142.78,305.00 1143.60,305.00 1144.40,305.00 1145.22,305.00 1146.02,305.00 1146.81,305.00 1147.62,305.00 1148.43,305.00 1149.22,305.00 1150.05,305.00 1150.86,305.00 1151.67,305.00 1152.48,305.00 1153.28,305.00 1154.08,305.00 1154.88,305.00 1155.69,305.00 1156.50,305.00 1157.30,305.00 1158.10,305.00 1158.91,305.00 1159.72,305.00 1160.52,305.00 1161.33,305.00 1162.15,305.00 1162.97,305.00 1163.82,305.00 1164.64,305.00 1165.44,305.00 1166.24,305.00 1167.04,305.00 1167.85,305.00 1168.65,305.00 1169.45,305.00 1170.26,305.00 1171.07,305.00 1171.88,305.00 1172.68,305.00 1173.47,305.00 1174.28,305.00 1175.08,305.00 1175.90,305.00 1176.72,305.00 1177.54,305.00 1178.34,305.00 1179.16,305.00 1180.00,305.00"/>
<rect x="70" y="332" width="12" height="12" fill="#9467bd" fill-opacity="0.95"/>
<text x="88" y="342" font-size="11" fill="#333" font-family="Arial, Helvetica, sans-serif">nsc1.utdallas.edu</text>
<rect x="350" y="332" width="12" height="12" fill="#9467bd" fill-opacity="0.80"/>
<text x="368" y="342" font-size="11" fill="#333" font-family="Arial, Helvetica, sans-serif">nsc2.utdallas.edu</text>
<rect x="630" y="332" width="12" height="12" fill="#9467bd" fill-opacity="0.65"/>
<text x="648" y="342" font-size="11" fill="#333" font-family="Arial, Helvetica, sans-serif">nsc3.utdallas.edu</text>
<rect x="910" y="332" width="12" height="12" fill="#9467bd" fill-opacity="0.50"/>
<text x="928" y="342" font-size="11" fill="#333" font-family="Arial, Helvetica, sans-serif">nsc4.utdallas.edu</text>
</svg>