<?xml version="1.0" encoding="UTF-8"?>
<svg xmlns="http://www.w3.org/2000/svg" width="1200" height="360" viewBox="0 0 1200 360" role="img" aria-label="Mumax3 Health (%)">
<rect width="100%" height="100%" fill="#ffffff"/>
<text x="600.0" y="22" text-anchor="middle" font-size="16" font-family="Arial, Helvetica, sans-serif" font-weight="bold">Mumax3 Health (%)</text>
<line x1="70" y1="35.00" x2="1180" y2="35.00" stroke="#e3e3e3" stroke-width="1"/>
<text x="62" y="39.00" text-anchor="end" font-size="11" fill="#444" font-family="Arial, Helvetica, sans-serif">100</text>
<line x1="70" y1="89.00" x2="1180" y2="89.00" stroke="#e3e3e3" stroke-width="1"/>
<text x="62" y="93.00" text-anchor="end" font-size="11" fill="#444" font-family="Arial, Helvetica, sans-serif">80</text>
<line x1="70" y1="143.00" x2="1180" y2="143.00" stroke="#e3e3e3" stroke-width="1"/>
<text x="62" y="147.00" text-anchor="end" font-size="11" fill="#444" font-family="Arial, Helvetica, sans-serif">60</text>
<line x1="70" y1="197.00" x2="1180" y2="197.00" stroke="#e3e3e3" stroke-width="1"/>
<text x="62" y="201.00" text-anchor="end" font-size="11" fill="#444" font-family="Arial, Helvetica, sans-serif">40</text>
<line x1="70" y1="251.00" x2="1180" y2="251.00" stroke="#e3e3e3" stroke-width="1"/>
<text x="62" y="255.00" text-anchor="end" font-size="11" fill="#444" font-family="Arial, Helvetica, sans-serif">20</text>
<line x1="70" y1="305.00" x2="1180" y2="305.00" stroke="#e3e3e3" stroke-width="1"/>
<text x="62" y="309.00" text-anchor="end" font-size="11" fill="#444" font-family="Arial, Helvetica, sans-serif">0</text>
<line x1="70" y1="35" x2="70" y2="305" stroke="#999"/>
<line x1="70" y1="305" x2="1180" y2="305" stroke="#999"/>
<text x="70.00" y="323" text-anchor="middle" font-size="10" fill="#444" font-family="Arial, Helvetica, sans-serif">2026-02-11 16:38</text>
<text x="347.50" y="323" text-anchor="middle" font-size="10" fill="#444" font-family="Arial, Helvetica, sans-serif">2026-02-12 17:54</text>
<text x="625.00" y="323" text-anchor="middle" font-size="10" fill="#444" font-family="Arial, Helvetica, sans-serif">2026-02-13 19:10</text>
<text x="902.50" y="323" text-anchor="middle" font-size="10" fill="#444" font-family="Arial, Helvetica, sans-serif">2026-02-14 20:26</text>
<text x="1180.00" y="323" text-anchor="middle" font-size="10" fill="#444" font-family="Arial, Helvetica, sans-serif">2026-02-15 21:42</text>
<polyline fill="none" stroke="#2ca02c" stroke-opacity="0.95" stroke-width="2" points="70.99,35.00 71.97,35.00 72.96,35.00 73.94,35.00 74.94,35.00 75.92,35.00 76.90,35.00 77.97,35.00 78.95,35.00 79.93,35.00 80.91,35.00 81.91,35.00 82.89,35.00 83.87,35.00 85.64,35.00 87.17,35.00 88.16,35.00 89.17,35.00 90.16,35.00 91.14,35.00 92.10,35.00 93.10,35.00 94.08,35.00 95.07,35.00 96.06,35.00 97.07,35.00 98.06,35.00 99.04,35.00 100.08,35.00 101.07,35.00 102.05,35.00 103.06,35.00 104.05,35.00 105.04,35.00 106.05,35.00 107.03,35.00 108.01,35.00 109.02,35.00 109.99,35.00 110.98,35.00 111.95,35.00 112.93,35.00 113.92,35.00 114.90,35.00 115.91,35.00 116.90,35.00 117.87,35.00 118.86,35.00 119.85,35.00 120.84,35.00 121.96,35.00 122.95,35.00 123.93,35.00 124.91,35.00 125.88,35.00 126.86,35.00 127.84,35.00 128.83,35.00 129.81,35.00 130.81,35.00 131.80,35.00 132.77,35.00 133.76,35.00 134.76,35.00 135.74,35.00 136.73,35.00 137.70,35.00 138.68,35.00 139.66,35.00 140.64,35.00 141.62,35.00 142.60,35.00 143.58,35.00 144.56,35.00 145.55,35.00 146.53,35.00 147.52,35.00 148.49,35.00 149.47,35.00 150.48,35.00 151.47,35.00 152.45,35.00 153.44,35.00 154.42,35.00 155.41,35.00 156.39,35.00 157.36,35.00 158.34,35.00 159.33,35.00 160.32,35.00 161.30,35.00 162.30,35.00 163.27,35.00 164.26,35.00 165.24,35.00 166.22,35.00 167.20,35.00 168.18,35.00 169.16,35.00 170.15,35.00 171.13,35.00 172.12,35.00 173.10,35.00 174.10,35.00 175.09,35.00 176.08,35.00 177.06,35.00 178.04,35.00 179.02,35.00 180.01,35.00 181.00,35.00 181.98,35.00 182.96,35.00 183.95,35.00 184.94,35.00 185.93,35.00 186.93,35.00 187.91,35.00 188.90,35.00 189.88,35.00 190.86,35.00 191.85,35.00 192.84,35.00 193.91,35.00 194.88,35.00 195.88,35.00 196.86,35.00 197.84,35.00 198.82,35.00 199.78,35.00 200.77,35.00 201.75,35.00 202.73,35.00 203.71,35.00 204.70,35.00 205.68,35.00 206.65,35.00 207.66,35.00 208.64,35.00 209.62,35.00 210.60,35.00 211.58,35.00 212.56,35.00 213.55,35.00 214.54,35.00 215.53,35.00 216.51,35.00 217.49,35.00 218.47,35.00 219.45,35.00 220.43,35.00 221.41,35.00 222.40,35.00 223.40,35.00 224.38,35.00 225.37,35.00 226.36,35.00 227.35,35.00 228.32,35.00 229.31,35.00 230.30,35.00 231.30,35.00 232.29,35.00 233.27,35.00 234.26,35.00 235.24,35.00 236.21,35.00 237.20,35.00 238.18,35.00 239.16,35.00 240.13,35.00 241.11,35.00 242.11,35.00 243.09,35.00 244.08,35.00 245.06,35.00 246.07,35.00 247.05,35.00 248.04,35.00 249.01,35.00 249.99,35.00 251.06,35.00 252.07,35.00 253.04,35.00 254.02,35.00 254.99,35.00 255.98,35.00 256.97,35.00 257.95,35.00 258.94,35.00 259.92,35.00 260.90,35.00 261.89,35.00 262.89,35.00 263.88,35.00 264.85,35.00 265.83,35.00 266.83,35.00 267.83,35.00 268.84,35.00 269.82,35.00 270.80,35.00 271.79,35.00 272.77,35.00 273.75,35.00 274.74,35.00 275.74,35.00 276.72,35.00 277.69,35.00 278.69,35.00 279.67,35.00 280.65,35.00 281.64,35.00 282.64,35.00 283.62,35.00 284.60,35.00 285.58,35.00 286.55,35.00 287.54,35.00 288.53,35.00 289.51,35.00 290.49,35.00 291.46,35.00 292.44,35.00 293.43,35.00 294.42,35.00 295.41,35.00 296.41,35.00 297.39,35.00 298.38,35.00 299.36,35.00 300.35,35.00 301.33,35.00 302.32,35.00 303.30,35.00 304.31,35.00 305.30,35.00 306.28,35.00 307.27,35.00 308.25,35.00 309.24,35.00 310.21,35.00 311.19,35.00 312.18,35.00 313.17,35.00 314.16,35.00 315.14,35.00 316.13,35.00 317.11,35.00 318.10,35.00 319.09,35.00 320.09,35.00 321.07,35.00 322.05,35.00 323.04,35.00 324.03,35.00 325.02,35.00 326.00,35.00 326.99,35.00 328.08,35.00 329.07,35.00 330.06,35.00 331.04,35.00 332.04,35.00 333.02,35.00 334.01,35.00 335.00,35.00 335.97,35.00 336.99,35.00 337.99,35.00 338.96,35.00 339.95,35.00 340.93,35.00 341.92,35.00 342.90,35.00 343.93,35.00 344.91,35.00 345.89,35.00 346.89,35.00 347.95,35.00 348.94,35.00 350.18,35.00 351.84,35.00 352.85,35.00 353.86,35.00 354.84,35.00 355.80,35.00 356.78,35.00 357.78,35.00 358.77,35.00 359.76,35.00 360.79,35.00 361.81,35.00 362.85,35.00 363.84,35.00 364.82,35.00 365.81,35.00 366.81,35.00 367.80,35.00 368.80,35.00 369.78,35.00 370.76,35.00 371.79,35.00 372.78,35.00 373.75,35.00 374.74,35.00 375.74,35.00 376.76,35.00 377.75,35.00 378.74,35.00 379.75,35.00 380.69,35.00 381.67,35.00 382.68,35.00 383.66,35.00 384.66,35.00 385.67,35.00 386.66,35.00 387.64,35.00 388.64,35.00 389.64,35.00 390.62,35.00 391.60,35.00 392.58,35.00 393.57,35.00 394.56,35.00 395.54,35.00 396.71,35.00 397.87,35.00 399.03,35.00 400.18,35.00 401.30,35.00 402.44,35.00 403.60,35.00 404.75,35.00 405.74,35.00 406.71,35.00 407.70,35.00 408.68,35.00 409.66,35.00 410.64,35.00 411.62,35.00 412.60,35.00 413.58,35.00 414.57,35.00 415.55,35.00 416.53,35.00 417.51,35.00 418.49,35.00 419.47,35.00 420.45,35.00 421.43,35.00 422.41,35.00 423.40,35.00 424.39,35.00 425.36,35.00 426.34,35.00 427.32,35.00 428.30,35.00 429.28,35.00 430.27,35.00 431.25,35.00 432.23,35.00 433.22,35.00 434.20,35.00 435.18,35.00 436.16,35.00 437.14,35.00 438.12,35.00 439.09,35.00 440.06,35.00 441.04,35.00 442.02,35.00 443.00,35.00 443.98,35.00 444.96,35.00 445.94,35.00 446.91,35.00 447.89,35.00 448.85,35.00 449.87,35.00 450.93,35.00 451.92,35.00 452.90,35.00 453.88,35.00 454.86,35.00 455.83,35.00 456.81,35.00 457.79,35.00 458.95,35.00 460.11,35.00 461.25,35.00 462.40,35.00 463.56,35.00 464.71,35.00 465.88,35.00 467.08,35.00 468.15,35.00 469.21,35.00 470.19,35.00 471.19,35.00 472.17,35.00 473.14,35.00 474.12,35.00 475.11,35.00 476.09,35.00 477.07,35.00 478.05,35.00 479.03,35.00 480.02,35.00 481.00,35.00 482.00,35.00 482.97,35.00 483.95,35.00 484.81,35.00 485.83,35.00 486.81,35.00 487.82,35.00 488.80,35.00 489.78,35.00 490.77,35.00 491.76,35.00 492.75,35.00 493.75,35.00 494.74,35.00 495.74,35.00 496.72,35.00 497.69,35.00 498.67,35.00 499.65,35.00 500.63,35.00 501.60,35.00 502.60,35.00 503.58,35.00 504.56,35.00 505.54,35.00 506.52,35.00 507.51,35.00 508.49,35.00 509.48,35.00 510.47,35.00 511.46,35.00 512.44,35.00 513.43,35.00 514.42,35.00 515.43,35.00 516.41,35.00 517.38,35.00 518.37,35.00 519.34,35.00 520.32,35.00 521.31,35.00 522.29,35.00 523.27,35.00 524.25,35.00 525.23,35.00 526.21,35.00 527.20,35.00 528.19,35.00 529.18,35.00 530.36,35.00 531.37,35.00 532.38,35.00 533.37,35.00 534.36,35.00 535.36,35.00 536.33,35.00 537.31,35.00 538.30,35.00 539.30,35.00 540.27,35.00 541.26,35.00 542.25,35.00 543.23,35.00 544.25,35.00 545.25,35.00 546.24,35.00 547.22,35.00 548.21,35.00 549.19,35.00 550.17,35.00 551.16,35.00 552.18,35.00 553.17,35.00 554.16,35.00 555.14,35.00 556.13,35.00 557.12,35.00 558.10,35.00 559.08,35.00 560.07,35.00 561.06,35.00 562.05,35.00 563.03,35.00 564.01,35.00 565.00,35.00 565.98,35.00 566.98,35.00 567.97,35.00 568.95,35.00 569.93,35.00 570.91,35.00 571.91,35.00 572.90,35.00 574.09,35.00 575.10,35.00 576.08,35.00 577.07,35.00 578.05,35.00 579.04,35.00 580.02,35.00 581.01,35.00 582.02,35.00 583.00,35.00 583.98,35.00 584.96,35.00 585.94,35.00 586.92,35.00 587.91,35.00 588.90,35.00 589.88,35.00 590.86,35.00 591.84,35.00 592.82,35.00 593.82,35.00 594.80,35.00 595.78,35.00 596.78,35.00 597.77,35.00 598.75,35.00 599.73,35.00 600.72,35.00 601.73,35.00 602.71,35.00 603.70,35.00 604.69,35.00 605.67,35.00 606.65,35.00 607.64,35.00 608.63,35.00 609.64,35.00 610.62,35.00 611.61,35.00 612.58,35.00 613.56,35.00 614.55,35.00 615.53,35.00 616.51,35.00 617.51,35.00 618.51,35.00 619.50,35.00 620.46,35.00 621.46,35.00 622.44,35.00 623.42,35.00 624.40,35.00 625.39,35.00 626.37,35.00 627.37,35.00 628.35,35.00 629.34,35.00 630.33,35.00 631.33,35.00 632.31,35.00 633.30,35.00 634.29,35.00 635.40,35.00 636.48,35.00 637.54,35.00 638.53,35.00 639.56,35.00 640.55,35.00 641.54,35.00 642.51,35.00 643.43,35.00 644.46,35.00 645.44,35.00 646.44,35.00 647.41,35.00 648.40,35.00 649.38,35.00 650.38,35.00 651.35,35.00 652.34,35.00 653.33,35.00 654.31,35.00 655.30,35.00 656.29,35.00 657.29,35.00 658.28,35.00 659.27,35.00 660.26,35.00 661.25,35.00 662.25,35.00 663.24,35.00 664.22,35.00 665.20,35.00 666.19,35.00 667.17,35.00 668.15,35.00 669.14,35.00 670.13,35.00 671.13,35.00 672.10,35.00 673.09,35.00 674.07,35.00 675.06,35.00 676.05,35.00 677.05,35.00 678.02,35.00 679.01,35.00 680.00,35.00 680.99,35.00 681.98,35.00 682.98,35.00 683.97,35.00 684.95,35.00 685.94,35.00 686.93,35.00 687.93,35.00 688.94,35.00 689.93,35.00 690.92,35.00 691.91,35.00 692.89,35.00 693.88,35.00 694.86,35.00 695.86,35.00 696.85,35.00 697.83,35.00 698.82,35.00 699.81,35.00 700.80,35.00 701.80,35.00 702.78,35.00 703.78,35.00 704.77,35.00 705.76,35.00 706.76,35.00 707.75,35.00 708.73,35.00 709.72,35.00 710.71,35.00 711.72,35.00 712.71,35.00 713.71,35.00 714.70,35.00 715.68,35.00 716.66,35.00 717.65,35.00 718.64,35.00 719.63,35.00 720.62,35.00 721.60,35.00 722.59,35.00 723.58,35.00 724.57,35.00 725.56,35.00 726.54,35.00 727.55,35.00 728.53,35.00 729.52,35.00 730.51,35.00 731.50,35.00 732.48,35.00 733.46,35.00 734.45,35.00 735.44,35.00 736.43,35.00 737.42,35.00 738.42,35.00 739.40,35.00 740.39,35.00 741.39,35.00 742.37,35.00 743.37,35.00 744.37,35.00 745.35,35.00 746.34,35.00 747.33,35.00 748.33,35.00 749.32,35.00 750.31,35.00 751.32,35.00 752.32,35.00 753.31,35.00 754.30,35.00 755.28,35.00 756.28,35.00 757.27,35.00 758.27,35.00 759.26,35.00 760.25,35.00 761.23,35.00 762.21,35.00 763.23,35.00 764.21,35.00 765.21,35.00 766.20,35.00 767.18,35.00 768.16,35.00 769.14,35.00 770.13,35.00 771.12,35.00 772.11,35.00 773.10,35.00 774.08,35.00 775.07,35.00 776.06,35.00 777.08,35.00 778.07,35.00 779.05,35.00 780.04,35.00 781.02,35.00 782.01,35.00 783.00,35.00 784.00,35.00 784.98,35.00 785.97,35.00 786.97,35.00 787.95,35.00 788.94,35.00 789.93,35.00 790.93,35.00 791.95,35.00 792.95,35.00 793.94,35.00 794.93,35.00 795.92,35.00 796.92,35.00 797.90,35.00 798.88,35.00 799.86,35.00 800.86,35.00 801.85,35.00 802.85,35.00 803.84,35.00 804.84,35.00 805.87,35.00 806.86,35.00 807.85,35.00 808.84,35.00 809.83,35.00 810.82,35.00 811.81,35.00 812.81,35.00 813.81,35.00 814.81,35.00 815.80,35.00 816.79,35.00 817.78,35.00 818.77,35.00 819.76,35.00 820.75,35.00 821.74,35.00 822.74,35.00 823.73,35.00 824.72,35.00 825.71,35.00 826.71,35.00 827.70,35.00 828.69,35.00 829.68,35.00 830.68,35.00 831.70,35.00 832.69,35.00 833.69,35.00 834.68,35.00 835.69,35.00 836.71,35.00 837.72,35.00 838.72,35.00 839.74,35.00 840.74,35.00 841.72,35.00 842.71,35.00 843.71,35.00 844.70,35.00 845.70,35.00 846.71,35.00 847.70,35.00 848.69,35.00 849.68,35.00 850.67,35.00 851.65,35.00 852.65,35.00 853.63,35.00 854.62,35.00 855.61,35.00 856.59,35.00 857.58,35.00 858.56,35.00 859.55,35.00 860.54,35.00 861.54,35.00 862.52,35.00 863.52,35.00 864.52,35.00 865.50,35.00 866.50,35.00 867.49,35.00 868.48,35.00 869.46,35.00 870.45,35.00 871.44,35.00 872.44,35.00 873.42,35.00 874.39,35.00 875.38,35.00 876.37,35.00 877.36,35.00 878.35,35.00 879.34,35.00 880.33,35.00 881.31,35.00 882.30,35.00 883.30,35.00 884.28,35.00 885.25,35.00 886.24,35.00 887.21,35.00 888.20,35.00 889.19,35.00 890.20,35.00 891.18,35.00 892.17,35.00 893.16,35.00 894.17,35.00 895.16,35.00 896.15,35.00 897.15,35.00 898.14,35.00 899.12,35.00 900.12,35.00 901.11,35.00 902.11,35.00 903.11,35.00 904.10,35.00 905.08,35.00 906.07,35.00 907.05,35.00 908.04,35.00 909.03,35.00 910.00,35.00 910.99,35.00 911.98,35.00 912.98,35.00 913.96,35.00 914.95,35.00 915.93,35.00 916.92,35.00 917.92,35.00 918.91,35.00 919.90,35.00 920.89,35.00 921.88,35.00 922.88,35.00 923.86,35.00 924.85,35.00 925.84,35.00 926.83,35.00 927.81,35.00 928.81,35.00 929.80,35.00 930.79,35.00 931.77,35.00 932.76,35.00 933.78,35.00 934.77,35.00 935.78,35.00 936.78,35.00 937.77,35.00 938.76,35.00 939.76,35.00 940.75,35.00 941.74,35.00 942.72,35.00 943.72,35.00 944.73,35.00 945.73,35.00 946.71,35.00 947.71,35.00 948.69,35.00 949.69,35.00 950.68,35.00 951.66,35.00 952.65,35.00 953.64,35.00 954.63,35.00 955.62,35.00 956.60,35.00 957.60,35.00 958.58,35.00 959.56,35.00 960.55,35.00 961.54,35.00 962.52,35.00 963.53,35.00 964.52,35.00 965.50,35.00 966.49,35.00 967.48,35.00 968.46,35.00 969.46,35.00 970.44,35.00 971.45,35.00 972.44,35.00 973.42,35.00 974.40,35.00 975.40,35.00 976.39,35.00 977.37,35.00 978.37,35.00 979.39,35.00 980.39,35.00 981.40,35.00 982.41,35.00 983.42,35.00 984.43,35.00 985.44,35.00 986.47,35.00 987.48,35.00 988.49,35.00 989.48,35.00 990.46,35.00 991.46,35.00 992.46,35.00 993.45,35.00 994.44,35.00 995.44,35.00 996.43,35.00 997.42,35.00 998.41,35.00 999.40,35.00 1000.38,35.00 1001.37,35.00 1002.35,35.00 1003.34,35.00 1004.34,35.00 1005.33,35.00 1006.31,35.00 1007.32,35.00 1008.32,35.00 1009.30,35.00 1010.29,35.00 1011.28,35.00 1012.27,35.00 1013.26,35.00 1014.25,35.00 1015.24,35.00 1016.23,35.00 1017.22,35.00 1018.21,35.00 1019.20,35.00 1020.19,35.00 1021.18,35.00 1022.17,35.00 1023.23,35.00 1024.25,35.00 1025.24,35.00 1026.23,35.00 1027.21,35.00 1028.22,35.00 1029.22,35.00 1030.21,35.00 1031.21,35.00 1032.19,35.00 1033.16,35.00 1034.15,35.00 1035.13,35.00 1036.12,35.00 1037.12,35.00 1038.10,35.00 1039.10,35.00 1040.10,35.00 1041.09,35.00 1042.08,35.00 1043.06,35.00 1044.05,35.00 1045.04,35.00 1046.04,35.00 1047.02,35.00 1048.01,35.00 1049.01,35.00 1050.00,35.00 1050.99,35.00 1052.02,35.00 1053.02,35.00 1054.01,35.00 1054.99,35.00 1055.98,35.00 1056.97,35.00 1057.97,35.00 1058.97,35.00 1059.95,35.00 1060.94,35.00 1061.94,35.00 1062.94,35.00 1063.94,35.00 1064.94,35.00 1065.92,35.00 1066.91,35.00 1067.90,35.00 1068.89,35.00 1069.88,35.00 1070.86,35.00 1071.87,35.00 1072.86,35.00 1073.85,35.00 1074.84,35.00 1075.82,35.00 1076.82,35.00 1077.80,35.00 1078.79,35.00 1079.78,35.00 1080.77,35.00 1081.76,35.00 1082.75,35.00 1083.74,35.00 1084.73,35.00 1085.72,35.00 1086.71,35.00 1087.70,35.00 1088.69,35.00 1089.67,35.00 1090.65,35.00 1091.64,35.00 1092.64,35.00 1093.63,35.00 1094.64,35.00 1095.63,35.00 1096.62,35.00 1097.62,35.00 1098.61,35.00 1099.61,35.00 1100.68,35.00 1101.69,35.00 1102.69,35.00 1103.69,35.00 1104.69,35.00 1105.68,35.00 1106.66,35.00 1107.66,35.00 1108.65,35.00 1109.64,35.00 1110.63,35.00 1111.62,35.00 1112.61,35.00 1113.63,35.00 1114.62,35.00 1115.62,35.00 1116.60,35.00 1117.59,35.00 1118.59,35.00 1119.58,35.00 1120.57,35.00 1121.56,35.00 1122.56,35.00 1123.55,35.00 1124.54,35.00 1125.54,35.00 1126.53,35.00 1127.53,35.00 1128.53,35.00 1129.52,35.00 1130.52,35.00 1131.50,35.00 1132.50,35.00 1133.49,35.00 1134.47,35.00 1135.46,35.00 1136.45,35.00 1137.44,35.00 1138.43,35.00 1139.43,35.00 1140.41,35.00 1141.40,35.00 1142.40,35.00 1143.39,35.00 1144.38,35.00 1145.37,35.00 1146.36,35.00 1147.37,35.00 1148.36,35.00 1149.33,35.00 1150.30,35.00 1151.28,35.00 1152.28,35.00 1153.27,35.00 1154.26,35.00 1155.27,35.00 1156.25,35.00 1157.26,35.00 1158.26,35.00 1159.24,35.00 1160.23,35.00 1161.21,35.00 1162.20,35.00 1163.18,35.00 1164.17,35.00 1165.16,35.00 1166.15,35.00 1167.14,35.00 1168.12,35.00 1169.11,35.00 1170.10,35.00 1171.09,35.00 1172.08,35.00 1173.06,35.00 1174.05,35.00 1175.01,35.00 1176.02,35.00 1177.01,35.00 1178.00,35.00 1179.00,35.00 1180.00,35.00"/>
<polyline fill="none" stroke="#2ca02c" stroke-opacity="0.80" stroke-width="2" points="70.00,35.00 70.99,35.00 71.97,35.00 72.96,35.00 73.94,35.00 74.94,35.00 75.92,35.00 76.90,35.00 77.97,35.00 78.95,35.00 79.93,35.00 80.91,35.00 81.91,35.00 82.89,35.00 83.87,35.00 85.64,35.00 87.17,35.00 88.16,35.00 89.17,35.00 90.16,35.00 91.14,35.00 92.10,35.00 93.10,35.00 94.08,35.00 95.07,35.00 96.06,35.00 97.07,35.00 98.06,35.00 99.04,35.00 100.08,35.00 101.07,35.00 102.05,35.00 103.06,35.00 104.05,35.00 105.04,35.00 106.05,35.00 107.03,35.00 108.01,35.00 109.02,35.00 109.99,35.00 110.98,35.00 111.95,35.00 112.93,35.00 113.92,35.00 114.90,35.00 115.91,35.00 116.90,35.00 117.87,35.00 118.86,35.00 119.85,35.00 120.84,35.00 121.96,35.00 122.95,35.00 123.93,35.00 124.91,35.00 125.88,35.00 126.86,35.00 127.84,35.00 128.83,35.00 129.81,35.00 130.81,35.00 131.80,35.00 132.77,35.00 133.76,35.00 134.76,35.00 135.74,35.00 136.73,35.00 137.70,35.00 138.68,35.00 139.66,35.00 140.64,35.00 141.62,35.00 142.60,35.00 143.58,35.00 144.56,35.00 145.55,35.00 146.53,35.00 147.52,35.00 148.49,35.00 149.47,35.00 150.48,35.00 151.47,35.00 152.45,35.00 153.44,35.00 154.42,35.00 155.41,35.00 156.39,35.00 157.36,35.00 158.34,35.00 159.33,35.00 160.32,35.00 161.30,35.00 162.30,35.00 163.27,35.00 164.26,35.00 165.24,35.00 166.22,35.00 167.20,35.00 168.18,35.00 169.16,35.00 170.15,35.00 171.13,35.00 172.12,35.00 173.10,35.00 174.10,35.00 175.09,35.00 176.08,35.00 177.06,35.00 178.04,35.00 179.02,35.00 180.01,35.00 181.00,35.00 181.98,35.00 182.96,35.00 183.95,35.00 184.94,35.00 185.93,35.00 186.93,35.00 187.91,35.00 188.90,35.00 189.88,35.00 190.86,35.00 191.85,35.00 192.84,35.00 193.91,35.00 194.88,35.00 195.88,35.00 196.86,35.00 197.84,35.00 198.82,35.00 199.78,35.00 200.77,35.00 201.75,35.00 202.73,35.00 203.71,35.00 204.70,35.00 205.68,35.00 206.65,35.00 207.66,35.00 208.64,35.00 209.62,35.00 210.60,35.00 211.58,35.00 212.56,35.00 213.55,35.00 214.54,35.00 215.53,35.00 216.51,35.00 217.49,35.00 218.47,35.00 219.45,35.00 220.43,35.00 221.41,35.00 222.40,35.00 223.40,35.00 224.38,35.00 225.37,35.00 226.36,35.00 227.35,35.00 228.32,35.00 229.31,35.00 230.30,35.00 231.30,35.00 232.29,35.00 233.27,35.00 234.26,35.00 235.24,35.00 236.21,35.00 237.20,35.00 238.18,35.00 239.16,35.00 240.13,35.00 241.11,35.00 242.11,35.00 243.09,35.00 244.08,35.00 245.06,35.00 246.07,35.00 247.05,35.00 248.04,35.00 249.01,35.00 249.99,35.00 251.06,35.00 252.07,35.00 253.04,35.00 254.02,35.00 254.99,35.00 255.98,35.00 256.97,35.00 257.95,35.00 258.94,35.00 259.92,35.00 260.90,35.00 261.89,35.00 262.89,35.00 263.88,35.00 264.85,35.00 265.83,35.00 266.83,35.00 267.83,35.00 268.84,35.00 269.82,35.00 270.80,35.00 271.79,35.00 272.77,35.00 273.75,35.00 274.74,35.00 275.74,35.00 276.72,35.00 277.69,35.00 278.69,35.00 279.67,35.00 280.65,35.00 281.64,35.00 282.64,35.00 283.62,35.00 284.60,35.00 285.58,35.00 286.55,35.00 287.54,35.00 288.53,35.00 289.51,35.00 290.49,35.00 291.46,35.00 292.44,35.00 293.43,35.00 294.42,35.00 295.41,35.00 296.41,35.00 297.39,35.00 298.38,35.00 299.36,35.00 300.35,35.00 301.33,35.00 302.32,35.00 303.30,35.00 304.31,35.00 305.30,35.00 306.28,35.00 307.27,35.00 308.25,35.00 309.24,35.00 310.21,35.00 311.19,35.00 312.18,35.00 313.17,35.00 314.16,35.00 315.14,35.00 316.13,35.00 317.11,35.00 318.10,35.00 319.09,35.00 320.09,35.00 321.07,35.00 322.05,35.00 323.04,35.00 324.03,35.00 325.02,35.00 326.00,35.00 326.99,35.00 328.08,35.00 329.07,35.00 330.06,35.00 331.04,35.00 332.04,35.00 333.02,35.00 334.01,35.00 335.00,35.00 335.97,35.00 336.99,35.00 337.99,35.00 338.96,35.00 339.95,35.00 340.93,35.00 341.92,35.00 342.90,35.00 343.93,35.00 344.91,35.00 345.89,35.00 346.89,35.00 347.95,35.00 348.94,35.00 350.18,35.00 351.84,35.00 352.85,35.00 353.86,35.00 354.84,35.00 355.80,35.00 356.78,35.00 357.78,35.00 358.77,35.00 359.76,35.00 360.79,35.00 361.81,35.00 362.85,35.00 363.84,35.00 364.82,35.00 365.81,35.00 366.81,35.00 367.80,35.00 368.80,35.00 369.78,35.00 370.76,35.00 371.79,35.00 372.78,35.00 373.75,35.00 374.74,35.00 375.74,35.00 376.76,35.00 377.75,35.00 378.74,35.00 379.75,35.00 380.69,35.00 381.67,35.00 382.68,35.00 383.66,35.00 384.66,35.00 385.67,35.00 386.66,35.00 387.64,35.00 388.64,35.00 389.64,35.00 390.62,35.00 391.60,35.00 392.58,35.00 393.57,35.00 394.56,35.00 395.54,35.00 396.71,35.00 397.87,35.00 399.03,35.00 400.18,35.00 401.30,35.00 402.44,35.00 403.60,35.00 404.75,35.00 405.74,35.00 406.71,35.00 407.70,35.00 408.68,35.00 409.66,35.00 410.64,35.00 411.62,35.00 412.60,35.00 413.58,35.00 414.57,35.00 415.55,35.00 416.53,35.00 417.51,35.00 418.49,35.00 419.47,35.00 420.45,35.00 421.43,35.00 422.41,35.00 423.40,35.00 424.39,35.00 425.36,35.00 426.34,35.00 427.32,35.00 428.30,35.00 429.28,35.00 430.27,35.00 431.25,35.00 432.23,35.00 433.22,35.00 434.20,35.00 435.18,35.00 436.16,35.00 437.14,35.00 438.12,35.00 439.09,35.00 440.06,35.00 441.04,35.00 442.02,35.00 443.00,35.00 443.98,35.00 444.96,35.00 445.94,35.00 446.91,35.00 447.89,35.00 448.85,35.00 449.87,35.00 450.93,35.00 451.92,35.00 452.90,35.00 453.88,35.00 454.86,35.00 455.83,35.00 456.81,35.00 457.79,35.00 458.95,35.00 460.11,35.00 461.25,35.00 462.40,35.00 463.56,35.00 464.71,35.00 465.88,35.00 467.08,35.00 468.15,35.00 469.21,35.00 470.19,35.00 471.19,35.00 472.17,35.00 473.14,35.00 474.12,35.00 475.11,35.00 476.09,35.00 477.07,35.00 478.05,35.00 479.03,35.00 480.02,35.00 481.00,35.00 482.00,35.00 482.97,35.00 483.95,35.00 484.81,35.00 485.83,35.00 486.81,35.00 487.82,35.00 488.80,35.00 489.78,35.00 490.77,35.00 491.76,35.00 492.75,35.00 493.75,35.00 494.74,35.00 495.74,35.00 496.72,35.00 497.69,35.00 498.67,35.00 499.65,35.00 500.63,35.00 501.60,35.00 502.60,35.00 503.58,35.00 504.56,35.00 505.54,35.00 506.52,35.00 507.51,35.00 508.49,35.00 509.48,35.00 510.47,35.00 511.46,35.00 512.44,35.00 513.43,35.00 514.42,35.00 515.43,35.00 516.41,35.00 517.38,35.00 518.37,35.00 519.34,35.00 520.32,35.00 521.31,35.00 522.29,35.00 523.27,35.00 524.25,35.00 525.23,35.00 526.21,35.00 527.20,35.00 528.19,35.00 529.18,35.00 530.36,35.00 531.37,35.00 532.38,35.00 533.37,35.00 534.36,35.00 535.36,35.00 536.33,35.00 537.31,35.00 538.30,35.00 539.30,35.00 540.27,35.00 541.26,35.00 542.25,35.00 543.23,35.00 544.25,35.00 545.25,35.00 546.24,35.00 547.22,35.00 548.21,35.00 549.19,35.00 550.17,35.00 551.16,35.00 552.18,35.00 553.17,35.00 554.16,35.00 555.14,35.00 556.13,35.00 557.12,35.00 558.10,35.00 559.08,35.00 560.07,35.00 561.06,35.00 562.05,35.00 563.03,35.00 564.01,35.00 565.00,35.00 565.98,35.00 566.98,35.00 567.97,35.00 568.95,35.00 569.93,35.00 570.91,35.00 571.91,35.00 572.90,35.00 574.09,35.00 575.10,35.00 576.08,35.00 577.07,35.00 578.05,35.00 579.04,35.00 580.02,35.00 581.01,35.00 582.02,35.00 583.00,35.00 583.98,35.00 584.96,35.00 585.94,35.00 586.92,35.00 587.91,35.00 588.90,35.00 589.88,35.00 590.86,35.00 591.84,35.00 592.82,35.00 593.82,35.00 594.80,35.00 595.78,35.00 596.78,35.00 597.77,35.00 598.75,35.00 599.73,35.00 600.72,35.00 601.73,35.00 602.71,35.00 603.70,35.00 604.69,35.00 605.67,35.00 606.65,35.00 607.64,35.00 608.63,35.00 609.64,35.00 610.62,35.00 611.61,35.00 612.58,35.00 613.56,35.00 614.55,35.00 615.53,35.00 616.51,35.00 617.51,35.00 618.51,35.00 619.50,35.00 620.46,35.00 621.46,35.00 622.44,35.00 623.42,35.00 624.40,35.00 625.39,35.00 626.37,35.00 627.37,35.00 628.35,35.00 629.34,35.00 630.33,35.00 631.33,35.00 632.31,35.00 633.30,35.00 634.29,35.00 635.40,35.00 636.48,35.00 637.54,35.00 638.53,35.00 639.56,35.00 640.55,35.00 641.54,35.00 642.51,35.00 643.43,35.00 644.46,35.00 645.44,35.00 646.44,35.00 647.41,35.00 648.40,35.00 649.38,35.00 650.38,35.00 651.35,35.00 652.34,35.00 653.33,35.00 654.31,35.00 655.30,35.00 656.29,35.00 657.29,35.00 658.28,35.00 659.27,35.00 660.26,35.00 661.25,35.00 662.25,35.00 663.24,35.00 664.22,35.00 665.20,35.00 666.19,35.00 667.17,35.00 668.15,35.00 669.14,35.00 670.13,35.00 671.13,35.00 672.10,35.00 673.09,35.00 674.07,35.00 675.06,35.00 676.05,35.00 677.05,35.00 678.02,35.00 679.01,35.00 680.00,35.00 680.99,35.00 681.98,35.00 682.98,35.00 683.97,35.00 684.95,35.00 685.94,35.00 686.93,35.00 687.93,35.00 688.94,35.00 689.93,35.00 690.92,35.00 691.91,35.00 692.89,35.00 693.88,35.00 694.86,35.00 695.86,35.00 696.85,35.00 697.83,35.00 698.82,35.00 699.81,35.00 700.80,35.00 701.80,35.00 702.78,35.00 703.78,35.00 704.77,35.00 705.76,35.00 706.76,35.00 707.75,35.00 708.73,35.00 709.72,35.00 710.71,35.00 711.72,35.00 712.71,35.00 713.71,35.00 714.70,35.00 715.68,35.00 716.66,35.00 717.65,35.00 718.64,35.00 719.63,35.00 720.62,35.00 721.60,35.00 722.59,35.00 723.58,35.00 724.57,35.00 725.56,35.00 726.54,35.00 727.55,35.00 728.53,35.00 729.52,35.00 730.51,35.00 731.50,35.00 732.48,35.00 733.46,35.00 734.45,35.00 735.44,35.00 736.43,35.00 737.42,35.00 738.42,35.00 739.40,35.00 740.39,35.00 741.39,35.00 742.37,35.00 743.37,35.00 744.37,35.00 745.35,35.00 746.34,35.00 747.33,35.00 748.33,35.00 749.32,35.00 750.31,35.00 751.32,35.00 752.32,35.00 753.31,35.00 754.30,35.00 755.28,35.00 756.28,35.00 757.27,35.00 758.27,35.00 759.26,35.00 760.25,35.00 761.23,35.00 762.21,35.00 763.23,35.00 764.21,35.00 765.21,35.00 766.20,35.00 767.18,35.00 768.16,35.00 769.14,35.00 770.13,35.00 771.12,35.00 772.11,35.00 773.10,35.00 774.08,35.00 775.07,35.00 776.06,35.00 777.08,35.00 778.07,35.00 779.05,35.00 780.04,35.00 781.02,35.00 782.01,35.00 783.00,35.00 784.00,35.00 784.98,35.00 785.97,35.00 786.97,35.00 787.95,35.00 788.94,35.00 789.93,35.00 790.93,35.00 791.95,35.00 792.95,35.00 793.94,35.00 794.93,35.00 795.92,35.00 796.92,35.00 797.90,35.00 798.88,35.00 799.86,35.00 800.86,35.00 801.85,35.00 802.85,35.00 803.84,35.00 804.84,35.00 805.87,35.00 806.86,35.00 807.85,35.00 808.84,35.00 809.83,35.00 810.82,35.00 811.81,35.00 812.81,35.00 813.81,35.00 814.81,35.00 815.80,35.00 816.79,35.00 817.78,35.00 818.77,35.00 819.76,35.00 820.75,35.00 821.74,35.00 822.74,35.00 823.73,35.00 824.72,35.00 825.71,35.00 826.71,35.00 827.70,35.00 828.69,35.00 829.68,35.00 830.68,35.00 831.70,35.00 832.69,35.00 833.69,35.00 834.68,35.00 835.69,35.00 836.71,35.00 837.72,35.00 838.72,35.00 839.74,35.00 840.74,35.00 841.72,35.00 842.71,35.00 843.71,35.00 844.70,35.00 845.70,35.00 846.71,35.00 847.70,35.00 848.69,35.00 849.68,35.00 850.67,35.00 851.65,35.00 852.65,35.00 853.63,35.00 854.62,35.00 855.61,35.00 856.59,35.00 857.58,35.00 858.56,35.00 859.55,35.00 860.54,35.00 861.54,35.00 862.52,35.00 863.52,35.00 864.52,35.00 865.50,35.00 866.50,35.00 867.49,35.00 868.48,35.00 869.46,35.00 870.45,35.00 871.44,35.00 872.44,35.00 873.42,35.00 874.39,35.00 875.38,35.00 876.37,35.00 877.36,35.00 878.35,35.00 879.34,35.00 880.33,35.00 881.31,35.00 882.30,35.00 883.30,35.00 884.28,35.00 885.25,35.00 886.24,35.00 887.21,35.00 888.20,35.00 889.19,35.00 890.20,35.00 891.18,35.00 892.17,35.00 893.16,35.00 894.17,35.00 895.16,35.00 896.15,35.00 897.15,35.00 898.14,35.00 899.12,35.00 900.12,35.00 901.11,35.00 902.11,35.00 903.11,35.00 904.10,35.00 905.08,35.00 906.07,35.00 907.05,35.00 908.04,35.00 909.03,35.00 910.00,35.00 910.99,35.00 911.98,35.00 912.98,35.00 913.96,35.00 914.95,35.00 915.93,35.00 916.92,35.00 917.92,35.00 918.91,35.00 919.90,35.00 920.89,35.00 921.88,35.00 922.88,35.00 923.86,35.00 924.85,35.00 925.84,35.00 926.83,35.00 927.81,35.00 928.81,35.00 929.80,35.00 930.79,35.00 931.77,35.00 932.76,35.00 933.78,35.00 934.77,35.00 935.78,35.00 936.78,35.00 937.77,35.00 938.76,35.00 939.76,35.00 940.75,35.00 941.74,35.00 942.72,35.00 943.72,35.00 944.73,35.00 945.73,35.00 946.71,35.00 947.71,35.00 948.69,35.00 949.69,35.00 950.68,35.00 951.66,35.00 952.65,35.00 953.64,35.00 954.63,35.00 955.62,35.00 956.60,35.00 957.60,35.00 958.58,35.00 959.56,35.00 960.55,35.00 961.54,35.00 962.52,35.00 963.53,35.00 964.52,35.00 965.50,35.00 966.49,35.00 967.48,35.00 968.46,35.00 969.46,35.00 970.44,35.00 971.45,35.00 972.44,35.00 973.42,35.00 974.40,35.00 975.40,35.00 976.39,35.00 977.37,35.00 978.37,35.00 979.39,35.00 980.39,35.00 981.40,35.00 982.41,35.00 983.42,35.00 984.43,35.00 985.44,35.00 986.47,35.00 987.48,35.00 988.49,35.00 989.48,35.00 990.46,35.00 991.46,35.00 992.46,35.00 993.45,35.00 994.44,35.00 995.44,35.00 996.43,35.00 997.42,35.00 998.41,35.00 999.40,35.00 1000.38,35.00 1001.37,35.00 1002.35,35.00 1003.34,35.00 1004.34,35.00 1005.33,35.00 1006.31,35.00 1007.32,35.00 1008.32,35.00 1009.30,35.00 1010.29,35.00 1011.28,35.00 1012.27,35.00 1013.26,35.00 1014.25,35.00 1015.24,35.00 1016.23,35.00 1017.22,35.00 1018.21,35.00 1019.20,35.00 1020.19,35.00 1021.18,35.00 1022.17,35.00 1023.23,35.00 1024.25,35.00 1025.24,35.00 1026.23,35.00 1027.21,35.00 1028.22,35.00 1029.22,35.00 1030.21,35.00 1031.21,35.00 1032.19,35.00 1033.16,35.00 1034.15,35.00 1035.13,35.00 1036.12,35.00 1037.12,35.00 1038.10,35.00 1039.10,35.00 1040.10,35.00 1041.09,35.00 1042.08,35.00 1043.06,35.00 1044.05,35.00 1045.04,35.00 1046.04,35.00 1047.02,35.00 1048.01,35.00 1049.01,35.00 1050.00,35.00 1050.99,35.00 1052.02,35.00 1053.02,35.00 1054.01,35.00 1054.99,35.00 1055.98,35.00 1056.97,35.00 1057.97,35.00 1058.97,35.00 1059.95,35.00 1060.94,35.00 1061.94,35.00 1062.94,35.00 1063.94,35.00 1064.94,35.00 1065.92,35.00 1066.91,35.00 1067.90,35.00 1068.89,35.00 1069.88,35.00 1070.86,35.00 1071.87,35.00 1072.86,35.00 1073.85,35.00 1074.84,35.00 1075.82,35.00 1076.82,35.00 1077.80,35.00 1078.79,35.00 1079.78,35.00 1080.77,35.00 1081.76,35.00 1082.75,35.00 1083.74,35.00 1084.73,35.00 1085.72,35.00 1086.71,35.00 1087.70,35.00 1088.69,35.00 1089.67,35.00 1090.65,35.00 1091.64,35.00 1092.64,35.00 1093.63,35.00 1094.64,35.00 1095.63,35.00 1096.62,35.00 1097.62,35.00 1098.61,35.00 1099.61,35.00 1100.68,35.00 1101.69,35.00 1102.69,35.00 1103.69,35.00 1104.69,35.00 1105.68,35.00 1106.66,35.00 1107.66,35.00 1108.65,35.00 1109.64,35.00 1110.63,35.00 1111.62,35.00 1112.61,35.00 1113.63,35.00 1114.62,35.00 1115.62,35.00 1116.60,35.00 1117.59,35.00 1118.59,35.00 1119.58,35.00 1120.57,35.00 1121.56,35.00 1122.56,35.00 1123.55,35.00 1124.54,35.00 1125.54,35.00 1126.53,35.00 1127.53,35.00 1128.53,35.00 1129.52,35.00 1130.52,35.00 1131.50,35.00 1132.50,35.00 1133.49,35.00 1134.47,35.00 1135.46,35.00 1136.45,35.00 1137.44,35.00 1138.43,35.00 1139.43,35.00 1140.41,35.00 1141.40,35.00 1142.40,35.00 1143.39,35.00 1144.38,35.00 1145.37,35.00 1146.36,35.00 1147.37,35.00 1148.36,35.00 1149.33,35.00 1150.30,35.00 1151.28,35.00 1152.28,35.00 1153.27,35.00 1154.26,35.00 1155.27,35.00 1156.25,35.00 1157.26,35.00 1158.26,35.00 1159.24,35.00 1160.23,35.00 1161.21,35.00 1162.20,35.00 1163.18,35.00 1164.17,35.00 1165.16,35.00 1166.15,35.00 1167.14,35.00 1168.12,35.00 1169.11,35.00 1170.10,35.00 1171.09,35.00 1172.08,35.00 1173.06,35.00 1174.05,35.00 1175.01,35.00 1176.02,35.00 1177.01,35.00 1178.00,35.00 1179.00,35.00 1180.00,35.00"/>
<polyline fill="none" stroke="#2ca02c" stroke-opacity="0.65" stroke-width="2" points="70.00,305.00 70.99,305.00 71.97,305.00 72.96,305.00 73.94,305.00 74.94,305.00 75.92,305.00 76.90,305.00 77.97,305.00 78.95,305.00 79.93,305.00 80.91,305.00 81.91,305.00 82.89,305.00 83.87,305.00 85.64,305.00 87.17,305.00 88.16,305.00 89.17,305.00 90.16,305.00 91.14,305.00 92.10,305.00 93.10,305.00 94.08,305.00 95.07,305.00 96.06,305.00 97.07,305.00 98.06,305.00 99.04,305.00 100.08,305.00 101.07,305.00 102.05,305.00 103.06,305.00 104.05,305.00 105.04,305.00 106.05,305.00 107.03,305.00 108.01,305.00 109.02,305.00 109.99,305.00 110.98,305.00 111.95,305.00 112.93,305.00 113.92,305.00 114.90,305.00 115.91,305.00 116.90,305.00 117.87,305.00 118.86,305.00 119.85,305.00 120.84,305.00 121.96,305.00 122.95,305.00 123.93,305.00 124.91,305.00 125.88,305.00 126.86,305.00 127.84,305.00 128.83,305.00 129.81,305.00 130.81,305.00 131.80,305.00 132.77,305.00 133.76,305.00 134.76,305.00 135.74,305.00 136.73,305.00 137.70,305.00 138.68,305.00 139.66,305.00 140.64,305.00 141.62,305.00 142.60,305.00 143.58,305.00 144.56,305.00 145.55,305.00 146.53,305.00 147.52,305.00 148.49,305.00 149.47,305.00 150.48,305.00 151.47,305.00 152.45,305.00 153.44,305.00 154.42,305.00 155.41,305.00 156.39,305.00 157.36,305.00 158.34,305.00 159.33,305.00 160.32,305.00 161.30,305.00 162.30,305.00 163.27,305.00 164.26,305.00 165.24,305.00 166.22,305.00 167.20,305.00 168.18,305.00 169.16,305.00 170.15,305.00 171.13,305.00 172.12,305.00 173.10,305.00 174.10,305.00 175.09,305.00 176.08,305.00 177.06,305.00 178.04,305.00 179.02,305.00 180.01,305.00 181.00,305.00 181.98,305.00 182.96,305.00 183.95,305.00 184.94,305.00 185.93,305.00 186.93,305.00 187.91,305.00 188.90,305.00 189.88,305.00 190.86,305.00 191.85,305.00 192.84,305.00 193.91,305.00 194.88,305.00 195.88,305.00 196.86,305.00 197.84,305.00 198.82,305.00 199.78,305.00 200.77,305.00 201.75,305.00 202.73,305.00 203.71,305.00 204.70,305.00 205.68,305.00 206.65,305.00 207.66,305.00 208.64,305.00 209.62,305.00 210.60,305.00 211.58,305.00 212.56,305.00 213.55,305.00 214.54,305.00 215.53,305.00 216.51,305.00 217.49,305.00 218.47,305.00 219.45,305.00 220.43,305.00 221.41,305.00 222.40,305.00 223.40,305.00 224.38,305.00 225.37,305.00 226.36,305.00 227.35,305.00 228.32,305.00 229.31,305.00 230.30,305.00 231.30,305.00 232.29,305.00 233.27,305.00 234.26,305.00 235.24,305.00 236.21,305.00 237.20,305.00 238.18,305.00 239.16,305.00 240.13,305.00 241.11,305.00 242.11,305.00 243.09,305.00 244.08,305.00 245.06,305.00 246.07,305.00 247.05,305.00 248.04,305.00 249.01,305.00 249.99,305.00 251.06,305.00 252.07,305.00 253.04,305.00 254.02,305.00 254.99,305.00 255.98,305.00 256.97,305.00 257.95,305.00 258.94,305.00 259.92,305.00 260.90,305.00 261.89,305.00 262.89,305.00 263.88,305.00 264.85,305.00 265.83,305.00 266.83,305.00 267.83,305.00 268.84,305.00 269.82,305.00 270.80,305.00 271.79,305.00 272.77,305.00 273.75,305.00 274.74,305.00 275.74,305.00 276.72,305.00 277.69,305.00 278.69,305.00 279.67,305.00 280.65,305.00 281.64,305.00 282.64,305.00 283.62,305.00 284.60,305.00 285.58,305.00 286.55,305.00 287.54,305.00 288.53,305.00 289.51,305.00 290.49,305.00 291.46,305.00 292.44,305.00 293.43,305.00 294.42,305.00 295.41,305.00 296.41,305.00 297.39,305.00 298.38,305.00 299.36,305.00 300.35,305.00 301.33,305.00 302.32,305.00 303.30,305.00 304.31,305.00 305.30,305.00 306.28,305.00 307.27,305.00 308.25,305.00 309.24,305.00 310.21,305.00 311.19,305.00 312.18,305.00 313.17,305.00 314.16,305.00 315.14,305.00 316.13,305.00 317.11,305.00 318.10,305.00 319.09,305.00 320.09,305.00 321.07,305.00 322.05,305.00 323.04,305.00 324.03,305.00 325.02,305.00 326.00,305.00 326.99,305.00 328.08,305.00 329.07,305.00 330.06,305.00 331.04,305.00 332.04,305.00 333.02,305.00 334.01,305.00 335.00,305.00 335.97,305.00 336.99,305.00 337.99,305.00 338.96,305.00 339.95,305.00 340.93,305.00 341.92,305.00 342.90,305.00 343.93,305.00 344.91,305.00 345.89,305.00 346.89,305.00 347.95,305.00 348.94,305.00 350.18,305.00 351.84,305.00 352.85,305.00 353.86,305.00 354.84,305.00 355.80,305.00 356.78,305.00 357.78,305.00 358.77,305.00 359.76,305.00 360.79,305.00 361.81,305.00 362.85,305.00 363.84,305.00 364.82,305.00 365.81,305.00 366.81,305.00 367.80,305.00 368.80,305.00 369.78,305.00 370.76,305.00 371.79,305.00 372.78,305.00 373.75,305.00 374.74,305.00 375.74,305.00 376.76,305.00 377.75,305.00 378.74,305.00 379.75,305.00 380.69,305.00 381.67,305.00 382.68,305.00 383.66,305.00 384.66,305.00 385.67,305.00 386.66,305.00 387.64,305.00 388.64,305.00 389.64,305.00 390.62,305.00 391.60,305.00 392.58,305.00 393.57,305.00 394.56,305.00 395.54,305.00 396.71,305.00 397.87,305.00 399.03,305.00 400.18,305.00 401.30,305.00 402.44,305.00 403.60,305.00 404.75,305.00 405.74,305.00 406.71,305.00 407.70,305.00 408.68,305.00 409.66,305.00 410.64,305.00 411.62,305.00 412.60,305.00 413.58,305.00 414.57,305.00 415.55,305.00 416.53,305.00 417.51,305.00 418.49,305.00 419.47,305.00 420.45,305.00 421.43,305.00 422.41,305.00 423.40,305.00 424.39,305.00 425.36,305.00 426.34,305.00 427.32,305.00 428.30,305.00 429.28,305.00 430.27,305.00 431.25,305.00 432.23,305.00 433.22,305.00 434.20,305.00 435.18,305.00 436.16,305.00 437.14,305.00 438.12,305.00 439.09,305.00 440.06,305.00 441.04,305.00 442.02,305.00 443.00,305.00 443.98,305.00 444.96,305.00 445.94,305.00 446.91,305.00 447.89,305.00 448.85,305.00 449.87,305.00 450.93,305.00 451.92,305.00 452.90,305.00 453.88,305.00 454.86,305.00 455.83,305.00 456.81,305.00 457.79,305.00 458.95,305.00 460.11,305.00 461.25,305.00 462.40,305.00 463.56,305.00 464.71,305.00 465.88,305.00 467.08,305.00 468.15,305.00 469.21,305.00 470.19,305.00 471.19,305.00 472.17,305.00 473.14,305.00 474.12,305.00 475.11,305.00 476.09,305.00 477.07,305.00 478.05,305.00 479.03,305.00 480.02,305.00 481.00,305.00 482.00,305.00 482.97,305.00 483.95,305.00 484.81,35.00 485.83,35.00 486.81,35.00 487.82,35.00 488.80,35.00 489.78,35.00 490.77,35.00 491.76,35.00 492.75,35.00 493.75,35.00 494.74,35.00 495.74,35.00 496.72,35.00 497.69,35.00 498.67,35.00 499.65,35.00 500.63,35.00 501.60,35.00 502.60,35.00 503.58,35.00 504.56,35.00 505.54,35.00 506.52,35.00 507.51,35.00 508.49,35.00 509.48,35.00 510.47,35.00 511.46,35.00 512.44,35.00 513.43,35.00 514.42,35.00 515.43,35.00 516.41,35.00 517.38,35.00 518.37,35.00 519.34,35.00 520.32,35.00 521.31,35.00 522.29,35.00 523.27,35.00 524.25,35.00 525.23,35.00 526.21,35.00 527.20,35.00 528.19,35.00 529.18,35.00 530.36,35.00 531.37,35.00 532.38,35.00 533.37,35.00 534.36,35.00 535.36,35.00 536.33,35.00 537.31,35.00 538.30,35.00 539.30,35.00 540.27,35.00 541.26,35.00 542.25,35.00 543.23,35.00 544.25,35.00 545.25,35.00 546.24,35.00 547.22,35.00 548.21,35.00 549.19,35.00 550.17,35.00 551.16,35.00 552.18,35.00 553.17,35.00 554.16,35.00 555.14,35.00 556.13,35.00 557.12,35.00 558.10,35.00 559.08,35.00 560.07,35.00 561.06,35.00 562.05,35.00 563.03,35.00 564.01,35.00 565.00,35.00 565.98,35.00 566.98,35.00 567.97,35.00 568.95,35.00 569.93,35.00 570.91,35.00 571.91,35.00 572.90,35.00 574.09,35.00 575.10,35.00 576.08,35.00 577.07,35.00 578.05,35.00 579.04,35.00 580.02,35.00 581.01,35.00 582.02,35.00 583.00,35.00 583.98,35.00 584.96,35.00 585.94,35.00 586.92,35.00 587.91,35.00 588.90,35.00 589.88,35.00 590.86,35.00 591.84,35.00 592.82,35.00 593.82,35.00 594.80,35.00 595.78,35.00 596.78,35.00 597.77,35.00 598.75,35.00 599.73,35.00 600.72,35.00 601.73,35.00 602.71,35.00 603.70,35.00 604.69,35.00 605.67,35.00 606.65,35.00 607.64,35.00 608.63,35.00 609.64,35.00 610.62,35.00 611.61,35.00 612.58,35.00 613.56,35.00 614.55,35.00 615.53,35.00 616.51,35.00 617.51,35.00 618.51,35.00 619.50,35.00 620.46,35.00 621.46,35.00 622.44,35.00 623.42,35.00 624.40,35.00 625.39,35.00 626.37,35.00 627.37,35.00 628.35,35.00 629.34,35.00 630.33,35.00 631.33,35.00 632.31,35.00 633.30,35.00 634.29,35.00 635.40,35.00 636.48,35.00 637.54,35.00 638.53,35.00 639.56,35.00 640.55,35.00 641.54,35.00 642.51,35.00 643.43,35.00 644.46,35.00 645.44,35.00 646.44,35.00 647.41,35.00 648.40,35.00 649.38,35.00 650.38,35.00 651.35,35.00 652.34,35.00 653.33,35.00 654.31,35.00 655.30,35.00 656.29,35.00 657.29,35.00 658.28,35.00 659.27,35.00 660.26,35.00 661.25,35.00 662.25,35.00 663.24,35.00 664.22,35.00 665.20,35.00 666.19,35.00 667.17,35.00 668.15,35.00 669.14,35.00 670.13,35.00 671.13,35.00 672.10,35.00 673.09,35.00 674.07,35.00 675.06,35.00 676.05,35.00 677.05,35.00 678.02,35.00 679.01,35.00 680.00,35.00 680.99,35.00 681.98,35.00 682.98,35.00 683.97,35.00 684.95,35.00 685.94,35.00 686.93,35.00 687.93,35.00 688.94,35.00 689.93,35.00 690.92,35.00 691.91,35.00 692.89,35.00 693.88,35.00 694.86,35.00 695.86,35.00 696.85,35.00 697.83,35.00 698.82,35.00 699.81,35.00 700.80,35.00 701.80,35.00 702.78,35.00 703.78,35.00 704.77,35.00 705.76,35.00 706.76,35.00 707.75,35.00 708.73,35.00 709.72,35.00 710.71,35.00 711.72,35.00 712.71,35.00 713.71,35.00 714.70,35.00 715.68,35.00 716.66,35.00 717.65,35.00 718.64,35.00 719.63,35.00 720.62,35.00 721.60,35.00 722.59,35.00 723.58,35.00 724.57,35.00 725.56,35.00 726.54,35.00 727.55,35.00 728.53,35.00 729.52,35.00 730.51,35.00 731.50,35.00 732.48,35.00 733.46,35.00 734.45,35.00 735.44,35.00 736.43,35.00 737.42,35.00 738.42,35.00 739.40,35.00 740.39,35.00 741.39,35.00 742.37,35.00 743.37,35.00 744.37,35.00 745.35,35.00 746.34,35.00 747.33,35.00 748.33,35.00 749.32,35.00 750.31,35.00 751.32,35.00 752.32,35.00 753.31,35.00 754.30,35.00 755.28,35.00 756.28,35.00 757.27,35.00 758.27,35.00 759.26,35.00 760.25,35.00 761.23,35.00 762.21,35.00 763.23,35.00 764.21,35.00 765.21,35.00 766.20,35.00 767.18,35.00 768.16,35.00 769.14,35.00 770.13,35.00 771.12,35.00 772.11,35.00 773.10,35.00 774.08,35.00 775.07,35.00 776.06,35.00 777.08,35.00 778.07,35.00 779.05,35.00 780.04,35.00 781.02,35.00 782.01,35.00 783.00,35.00 784.00,35.00 784.98,35.00 785.97,35.00 786.97,35.00 787.95,35.00 788.94,35.00 789.93,35.00 790.93,35.00 791.95,35.00 792.95,35.00 793.94,35.00 794.93,35.00 795.92,35.00 796.92,35.00 797.90,35.00 798.88,35.00 799.86,35.00 800.86,35.00 801.85,35.00 802.85,35.00 803.84,35.00 804.84,35.00 805.87,35.00 806.86,35.00 807.85,35.00 808.84,35.00 809.83,35.00 810.82,35.00 811.81,35.00 812.81,35.00 813.81,35.00 814.81,35.00 815.80,35.00 816.79,35.00 817.78,35.00 818.77,35.00 819.76,35.00 820.75,35.00 821.74,35.00 822.74,35.00 823.73,35.00 824.72,35.00 825.71,35.00 826.71,35.00 827.70,35.00 828.69,35.00 829.68,35.00 830.68,35.00 831.70,35.00 832.69,35.00 833.69,35.00 834.68,35.00 835.69,35.00 836.71,35.00 837.72,35.00 838.72,35.00 839.74,35.00 840.74,35.00 841.72,35.00 842.71,35.00 843.71,35.00 844.70,35.00 845.70,35.00 846.71,35.00 847.70,35.00 848.69,35.00 849.68,35.00 850.67,35.00 851.65,35.00 852.65,35.00 853.63,35.00 854.62,35.00 855.61,35.00 856.59,35.00 857.58,35.00 858.56,35.00 859.55,35.00 860.54,35.00 861.54,35.00 862.52,35.00 863.52,35.00 864.52,35.00 865.50,35.00 866.50,35.00 867.49,35.00 868.48,35.00 869.46,35.00 870.45,35.00 871.44,35.00 872.44,35.00 873.42,35.00 874.39,35.00 875.38,35.00 876.37,35.00 877.36,35.00 878.35,35.00 879.34,35.00 880.33,35.00 881.31,35.00 882.30,35.00 883.30,35.00 884.28,35.00 885.25,35.00 886.24,35.00 887.21,35.00 888.20,35.00 889.19,35.00 890.20,35.00 891.18,35.00 892.17,35.00 893.16,35.00 894.17,35.00 895.16,35.00 896.15,35.00 897.15,35.00 898.14,35.00 899.12,35.00 900.12,35.00 901.11,35.00 902.11,35.00 903.11,35.00 904.10,35.00 905.08,35.00 906.07,35.00 907.05,35.00 908.04,35.00 909.03,35.00 910.00,35.00 910.99,35.00 911.98,35.00 912.98,35.00 913.96,35.00 914.95,35.00 915.93,35.00 916.92,35.00 917.92,35.00 918.91,35.00 919.90,35.00 920.89,35.00 921.88,35.00 922.88,35.00 923.86,35.00 924.85,35.00 925.84,35.00 926.83,35.00 927.81,35.00 928.81,35.00 929.80,35.00 930.79,35.00 931.77,35.00 932.76,35.00 933.78,35.00 934.77,35.00 935.78,35.00 936.78,35.00 937.77,35.00 938.76,35.00 939.76,35.00 940.75,35.00 941.74,35.00 942.72,35.00 943.72,35.00 944.73,35.00 945.73,35.00 946.71,35.00 947.71,35.00 948.69,35.00 949.69,35.00 950.68,35.00 951.66,35.00 952.65,35.00 953.64,35.00 954.63,35.00 955.62,35.00 956.60,35.00 957.60,35.00 958.58,35.00 959.56,35.00 960.55,35.00 961.54,35.00 962.52,35.00 963.53,35.00 964.52,35.00 965.50,35.00 966.49,35.00 967.48,35.00 968.46,35.00 969.46,35.00 970.44,35.00 971.45,35.00 972.44,35.00 973.42,35.00 974.40,35.00 975.40,35.00 976.39,35.00 977.37,35.00 978.37,35.00 979.39,35.00 980.39,35.00 981.40,35.00 982.41,35.00 983.42,35.00 984.43,35.00 985.44,35.00 986.47,35.00 987.48,35.00 988.49,35.00 989.48,35.00 990.46,35.00 991.46,35.00 992.46,35.00 993.45,35.00 994.44,35.00 995.44,35.00 996.43,35.00 997.42,35.00 998.41,35.00 999.40,35.00 1000.38,35.00 1001.37,35.00 1002.35,35.00 1003.34,35.00 1004.34,35.00 1005.33,35.00 1006.31,35.00 1007.32,35.00 1008.32,35.00 1009.30,35.00 1010.29,35.00 1011.28,35.00 1012.27,35.00 1013.26,35.00 1014.25,35.00 1015.24,35.00 1016.23,35.00 1017.22,35.00 1018.21,35.00 1019.20,35.00 1020.19,35.00 1021.18,35.00 1022.17,35.00 1023.23,35.00 1024.25,35.00 1025.24,35.00 1026.23,35.00 1027.21,35.00 1028.22,35.00 1029.22,35.00 1030.21,35.00 1031.21,35.00 1032.19,35.00 1033.16,35.00 1034.15,35.00 1035.13,35.00 1036.12,35.00 1037.12,35.00 1038.10,35.00 1039.10,35.00 1040.10,35.00 1041.09,35.00 1042.08,35.00 1043.06,35.00 1044.05,35.00 1045.04,35.00 1046.04,35.00 1047.02,35.00 1048.01,35.00 1049.01,35.00 1050.00,35.00 1050.99,35.00 1052.02,35.00 1053.02,35.00 1054.01,35.00 1054.99,35.00 1055.98,35.00 1056.97,35.00 1057.97,35.00 1058.97,35.00 1059.95,35.00 1060.94,35.00 1061.94,35.00 1062.94,35.00 1063.94,35.00 1064.94,35.00 1065.92,35.00 1066.91,35.00 1067.90,35.00 1068.89,35.00 1069.88,35.00 1070.86,35.00 1071.87,35.00 1072.86,35.00 1073.85,35.00 1074.84,35.00 1075.82,35.00 1076.82,35.00 1077.80,35.00 1078.79,35.00 1079.78,35.00 1080.77,35.00 1081.76,35.00 1082.75,35.00 1083.74,35.00 1084.73,35.00 1085.72,35.00 1086.71,35.00 1087.70,35.00 1088.69,35.00 1089.67,35.00 1090.65,35.00 1091.64,35.00 1092.64,35.00 1093.63,35.00 1094.64,35.00 1095.63,35.00 1096.62,35.00 1097.62,35.00 1098.61,35.00 1099.61,35.00 1100.68,35.00 1101.69,35.00 1102.69,35.00 1103.69,35.00 1104.69,35.00 1105.68,35.00 1106.66,35.00 1107.66,35.00 1108.65,35.00 1109.64,35.00 1110.63,35.00 1111.62,35.00 1112.61,35.00 1113.63,35.00 1114.62,35.00 1115.62,35.00 1116.60,35.00 1117.59,35.00 1118.59,35.00 1119.58,35.00 1120.57,35.00 1121.56,35.00 1122.56,35.00 1123.55,35.00 1124.54,35.00 1125.54,35.00 1126.53,35.00 1127.53,35.00 1128.53,35.00 1129.52,35.00 1130.52,35.00 1131.50,35.00 1132.50,35.00 1133.49,35.00 1134.47,35.00 1135.46,35.00 1136.45,35.00 1137.44,35.00 1138.43,35.00 1139.43,35.00 1140.41,35.00 1141.40,35.00 1142.40,35.00 1143.39,35.00 1144.38,35.00 1145.37,35.00 1146.36,35.00 1147.37,35.00 1148.36,35.00 1149.33,35.00 1150.30,35.00 1151.28,35.00 1152.28,35.00 1153.27,35.00 1154.26,35.00 1155.27,35.00 1156.25,35.00 1157.26,35.00 1158.26,35.00 1159.24,35.00 1160.23,35.00 1161.21,35.00 1162.20,35.00 1163.18,35.00 1164.17,35.00 1165.16,35.00 1166.15,35.00 1167.14,35.00 1168.12,35.00 1169.11,35.00 1170.10,35.00 1171.09,35.00 1172.08,35.00 1173.06,35.00 1174.05,35.00 1175.01,35.00 1176.02,35.00 1177.01,35.00 1178.00,35.00 1179.00,35.00 1180.00,35.00"/>
<polyline fill="none" stroke="#2ca02c" stroke-opacity="0.50" stroke-width="2" points="70.00,35.00 70.99,35.00 71.97,35.00 72.96,35.00 73.94,35.00 74.94,35.00 75.92,35.00 76.90,35.00 77.97,35.00 78.95,35.00 79.93,35.00 80.91,35.00 81.91,35.00 82.89,35.00 83.87,35.00 85.64,35.00 87.17,35.00 88.16,35.00 89.17,35.00 90.16,35.00 91.14,35.00 92.10,35.00 93.10,35.00 94.08,35.00 95.07,35.00 96.06,35.00 97.07,35.00 98.06,35.00 99.04,35.00 100.08,35.00 101.07,35.00 102.05,35.00 103.06,35.00 104.05,35.00 105.04,35.00 106.05,35.00 107.03,35.00 108.01,35.00 109.02,35.00 109.99,35.00 110.98,35.00 111.95,35.00 112.93,35.00 113.92,35.00 114.90,35.00 115.91,35.00 116.90,35.00 117.87,35.00 118.86,35.00 119.85,35.00 120.84,35.00 121.96,35.00 122.95,35.00 123.93,35.00 124.91,35.00 125.88,35.00 126.86,35.00 127.84,35.00 128.83,35.00 129.81,35.00 130.81,35.00 131.80,35.00 132.77,35.00 133.76,35.00 134.76,35.00 135.74,35.00 136.73,35.00 137.70,35.00 138.68,35.00 139.66,35.00 140.64,35.00 141.62,35.00 142.60,35.00 143.58,35.00 144.56,35.00 145.55,35.00 146.53,35.00 147.52,35.00 148.49,35.00 149.47,35.00 150.48,35.00 151.47,35.00 152.45,35.00 153.44,35.00 154.42,35.00 155.41,35.00 156.39,35.00 157.36,35.00 158.34,35.00 159.33,35.00 160.32,35.00 161.30,35.00 162.30,35.00 163.27,35.00 164.26,35.00 165.24,35.00 166.22,35.00 167.20,35.00 168.18,35.00 169.16,35.00 170.15,35.00 171.13,35.00 172.12,35.00 173.10,35.00 174.10,35.00 175.09,35.00 176.08,35.00 177.06,35.00 178.04,35.00 179.02,35.00 180.01,35.00 181.00,35.00 181.98,35.00 182.96,35.00 183.95,35.00 184.94,35.00 185.93,35.00 186.93,35.00 187.91,35.00 188.90,35.00 189.88,35.00 190.86,35.00 191.85,35.00 192.84,35.00 193.91,35.00 194.88,35.00 195.88,35.00 196.86,35.00 197.84,35.00 198.82,35.00 199.78,35.00 200.77,35.00 201.75,35.00 202.73,35.00 203.71,35.00 204.70,35.00 205.68,35.00 206.65,35.00 207.66,35.00 208.64,35.00 209.62,35.00 210.60,35.00 211.58,35.00 212.56,35.00 213.55,35.00 214.54,35.00 215.53,35.00 216.51,35.00 217.49,35.00 218.47,35.00 219.45,35.00 220.43,35.00 221.41,35.00 222.40,35.00 223.40,35.00 224.38,35.00 225.37,35.00 226.36,35.00 227.35,35.00 228.32,35.00 229.31,35.00 230.30,35.00 231.30,35.00 232.29,35.00 233.27,35.00 234.26,35.00 235.24,35.00 236.21,35.00 237.20,35.00 238.18,35.00 239.16,35.00 240.13,35.00 241.11,35.00 242.11,35.00 243.09,35.00 244.08,35.00 245.06,35.00 246.07,35.00 247.05,35.00 248.04,35.00 249.01,35.00 249.99,35.00 251.06,35.00 252.07,35.00 253.04,35.00 254.02,35.00 254.99,35.00 255.98,35.00 256.97,35.00 257.95,35.00 258.94,35.00 259.92,35.00 260.90,35.00 261.89,35.00 262.89,35.00 263.88,35.00 264.85,35.00 265.83,35.00 266.83,35.00 267.83,35.00 268.84,35.00 269.82,35.00 270.80,35.00 271.79,35.00 272.77,35.00 273.75,35.00 274.74,35.00 275.74,35.00 276.72,35.00 277.69,35.00 278.69,35.00 279.67,35.00 280.65,35.00 281.64,35.00 282.64,35.00 283.62,35.00 284.60,35.00 285.58,35.00 286.55,35.00 287.54,35.00 288.53,35.00 289.51,35.00 290.49,35.00 291.46,35.00 292.44,35.00 293.43,35.00 294.42,35.00 295.41,35.00 296.41,35.00 297.39,35.00 298.38,35.00 299.36,35.00 300.35,35.00 301.33,35.00 302.32,35.00 303.30,35.00 304.31,35.00 305.30,35.00 306.28,35.00 307.27,35.00 308.25,35.00 309.24,35.00 310.21,35.00 311.19,35.00 312.18,35.00 313.17,35.00 314.16,35.00 315.14,35.00 316.13,35.00 317.11,35.00 318.10,35.00 319.09,35.00 320.09,35.00 321.07,35.00 322.05,35.00 323.04,35.00 324.03,35.00 325.02,35.00 326.00,35.00 326.99,35.00 328.08,35.00 329.07,35.00 330.06,35.00 331.04,35.00 332.04,35.00 333.02,35.00 334.01,35.00 335.00,35.00 335.97,35.00 336.99,35.00 337.99,35.00 338.96,35.00 339.95,35.00 340.93,35.00 341.92,35.00 342.90,35.00 343.93,35.00 344.91,35.00 345.89,35.00 346.89,35.00 347.95,35.00 348.94,35.00 350.18,35.00 351.84,35.00 352.85,35.00 353.86,35.00 354.84,35.00 355.80,35.00 356.78,35.00 357.78,35.00 358.77,35.00 359.76,35.00 360.79,35.00 361.81,35.00 362.85,35.00 363.84,35.00 364.82,35.00 365.81,35.00 366.81,35.00 367.80,35.00 368.80,35.00 369.78,35.00 370.76,35.00 371.79,35.00 372.78,35.00 373.75,35.00 374.74,35.00 375.74,35.00 376.76,35.00 377.75,35.00 378.74,35.00 379.75,35.00 380.69,35.00 381.67,35.00 382.68,35.00 383.66,35.00 384.66,35.00 385.67,35.00 386.66,35.00 387.64,35.00 388.64,35.00 389.64,35.00 390.62,35.00 391.60,35.00 392.58,35.00 393.57,35.00 394.56,35.00 395.54,35.00 396.71,35.00 397.87,35.00 399.03,35.00 400.18,35.00 401.30,35.00 402.44,35.00 403.60,35.00 404.75,35.00 405.74,35.00 406.71,35.00 407.70,35.00 408.68,35.00 409.66,35.00 410.64,35.00 411.62,35.00 412.60,35.00 413.58,35.00 414.57,35.00 415.55,35.00 416.53,35.00 417.51,35.00 418.49,35.00 419.47,35.00 420.45,35.00 421.43,35.00 422.41,35.00 423.40,35.00 424.39,35.00 425.36,35.00 426.34,35.00 427.32,35.00 428.30,35.00 429.28,35.00 430.27,35.00 431.25,35.00 432.23,35.00 433.22,35.00 434.20,35.00 435.18,35.00 436.16,35.00 437.14,35.00 438.12,35.00 439.09,35.00 440.06,35.00 441.04,35.00 442.02,35.00 443.00,35.00 443.98,35.00 444.96,35.00 445.94,35.00 446.91,35.00 447.89,35.00 448.85,35.00 449.87,35.00 450.93,35.00 451.92,35.00 452.90,35.00 453.88,35.00 454.86,35.00 455.83,35.00 456.81,35.00 457.79,35.00 458.95,35.00 460.11,35.00 461.25,35.00 462.40,35.00 463.56,35.00 464.71,35.00 465.88,35.00 467.08,35.00 468.15,35.00 469.21,35.00 470.19,35.00 471.19,35.00 472.17,35.00 473.14,35.00 474.12,35.00 475.11,35.00 476.09,35.00 477.07,35.00 478.05,35.00 479.03,35.00 480.02,35.00 481.00,35.00 482.00,35.00 482.97,35.00 483.95,35.00 484.81,35.00 485.83,35.00 486.81,35.00 487.82,35.00 488.80,35.00 489.78,35.00 490.77,35.00 491.76,35.00 492.75,35.00 493.75,35.00 494.74,35.00 495.74,35.00 496.72,35.00 497.69,35.00 498.67,35.00 499.65,35.00 500.63,35.00 501.60,35.00 502.60,35.00 503.58,35.00 504.56,35.00 505.54,35.00 506.52,35.00 507.51,35.00 508.49,35.00 509.48,35.00 510.47,35.00 511.46,35.00 512.44,35.00 513.43,35.00 514.42,35.00 515.43,35.00 516.41,35.00 517.38,35.00 518.37,35.00 519.34,35.00 520.32,35.00 521.31,35.00 522.29,35.00 523.27,35.00 524.25,35.00 525.23,35.00 526.21,35.00 527.20,35.00 528.19,35.00 529.18,35.00 530.36,35.00 531.37,35.00 532.38,35.00 533.37,35.00 534.36,35.00 535.36,35.00 536.33,35.00 537.31,35.00 538.30,35.00 539.30,35.00 540.27,35.00 541.26,35.00 542.25,35.00 543.23,35.00 544.25,35.00 545.25,35.00 546.24,35.00 547.22,35.00 548.21,35.00 549.19,35.00 550.17,35.00 551.16,35.00 552.18,35.00 553.17,35.00 554.16,35.00 555.14,35.00 556.13,35.00 557.12,35.00 558.10,35.00 559.08,35.00 560.07,35.00 561.06,35.00 562.05,35.00 563.03,35.00 564.01,35.00 565.00,35.00 565.98,35.00 566.98,35.00 567.97,35.00 568.95,35.00 569.93,35.00 570.91,35.00 571.91,35.00 572.90,35.00 574.09,35.00 575.10,35.00 576.08,35.00 577.07,35.00 578.05,35.00 579.04,35.00 580.02,35.00 581.01,35.00 582.02,35.00 583.00,35.00 583.98,35.00 584.96,35.00 585.94,35.00 586.92,35.00 587.91,35.00 588.90,35.00 589.88,35.00 590.86,35.00 591.84,35.00 592.82,35.00 593.82,35.00 594.80,35.00 595.78,35.00 596.78,35.00 597.77,35.00 598.75,35.00 599.73,35.00 600.72,35.00 601.73,35.00 602.71,35.00 603.70,35.00 604.69,35.00 605.67,35.00 606.65,35.00 607.64,35.00 608.63,35.00 609.64,35.00 610.62,35.00 611.61,35.00 612.58,35.00 613.56,35.00 614.55,35.00 615.53,35.00 616.51,35.00 617.51,35.00 618.51,35.00 619.50,35.00 620.46,35.00 621.46,35.00 622.44,35.00 623.42,35.00 624.40,35.00 625.39,35.00 626.37,35.00 627.37,35.00 628.35,35.00 629.34,35.00 630.33,35.00 631.33,35.00 632.31,35.00 633.30,35.00 634.29,35.00 635.40,35.00 636.48,35.00 637.54,35.00 638.53,35.00 639.56,35.00 640.55,35.00 641.54,35.00 642.51,35.00 643.43,35.00 644.46,35.00 645.44,35.00 646.44,35.00 647.41,35.00 648.40,35.00 649.38,35.00 650.38,35.00 651.35,35.00 652.34,35.00 653.33,35.00 654.31,35.00 655.30,35.00 656.29,35.00 657.29,35.00 658.28,35.00 659.27,35.00 660.26,35.00 661.25,35.00 662.25,35.00 663.24,35.00 664.22,35.00 665.20,35.00 666.19,35.00 667.17,35.00 668.15,35.00 669.14,35.00 670.13,35.00 671.13,35.00 672.10,35.00 673.09,35.00 674.07,35.00 675.06,35.00 676.05,35.00 677.05,35.00 678.02,35.00 679.01,35.00 680.00,35.00 680.99,35.00 681.98,35.00 682.98,35.00 683.97,35.00 684.95,35.00 685.94,35.00 686.93,35.00 687.93,35.00 688.94,35.00 689.93,35.00 690.92,35.00 691.91,35.00 692.89,35.00 693.88,35.00 694.86,35.00 695.86,35.00 696.85,35.00 697.83,35.00 698.82,35.00 699.81,35.00 700.80,35.00 701.80,35.00 702.78,35.00 703.78,35.00 704.77,35.00 705.76,35.00 706.76,35.00 707.75,35.00 708.73,35.00 709.72,35.00 710.71,35.00 711.72,35.00 712.71,35.00 713.71,35.00 714.70,35.00 715.68,35.00 716.66,35.00 717.65,35.00 718.64,35.00 719.63,35.00 720.62,35.00 721.60,35.00 722.59,35.00 723.58,35.00 724.57,35.00 725.56,35.00 726.54,35.00 727.55,35.00 728.53,35.00 729.52,35.00 730.51,35.00 731.50,35.00 732.48,35.00 733.46,35.00 734.45,35.00 735.44,35.00 736.43,35.00 737.42,35.00 738.42,35.00 739.40,35.00 740.39,35.00 741.39,35.00 742.37,35.00 743.37,35.00 744.37,35.00 745.35,35.00 746.34,35.00 747.33,35.00 748.33,35.00 749.32,35.00 750.31,35.00 751.32,35.00 752.32,35.00 753.31,35.00 754.30,35.00 755.28,35.00 756.28,35.00 757.27,35.00 758.27,35.00 759.26,35.00 760.25,35.00 761.23,35.00 762.21,35.00 763.23,35.00 764.21,35.00 765.21,35.00 766.20,35.00 767.18,35.00 768.16,35.00 769.14,35.00 770.13,35.00 771.12,35.00 772.11,35.00 773.10,35.00 774.08,35.00 775.07,35.00 776.06,35.00 777.08,35.00 778.07,35.00 779.05,35.00 780.04,35.00 781.02,35.00 782.01,35.00 783.00,35.00 784.00,35.00 784.98,35.00 785.97,35.00 786.97,35.00 787.95,35.00 788.94,35.00 789.93,35.00 790.93,35.00 791.95,35.00 792.95,35.00 793.94,35.00 794.93,35.00 795.92,35.00 796.92,35.00 797.90,35.00 798.88,35.00 799.86,35.00 800.86,35.00 801.85,35.00 802.85,35.00 803.84,35.00 804.84,35.00 805.87,35.00 806.86,35.00 807.85,35.00 808.84,35.00 809.83,35.00 810.82,35.00 811.81,35.00 812.81,35.00 813.81,35.00 814.81,35.00 815.80,35.00 816.79,35.00 817.78,35.00 818.77,35.00 819.76,35.00 820.75,35.00 821.74,35.00 822.74,35.00 823.73,35.00 824.72,35.00 825.71,35.00 826.71,35.00 827.70,35.00 828.69,35.00 829.68,35.00 830.68,35.00 831.70,35.00 832.69,35.00 833.69,35.00 834.68,35.00 835.69,35.00 836.71,35.00 837.72,35.00 838.72,35.00 839.74,35.00 840.74,35.00 841.72,35.00 842.71,35.00 843.71,35.00 844.70,35.00 845.70,35.00 846.71,35.00 847.70,35.00 848.69,35.00 849.68,35.00 850.67,35.00 851.65,35.00 852.65,35.00 853.63,35.00 854.62,35.00 855.61,35.00 856.59,35.00 857.58,35.00 858.56,35.00 859.55,35.00 860.54,35.00 861.54,35.00 862.52,35.00 863.52,35.00 864.52,35.00 865.50,35.00 866.50,35.00 867.49,35.00 868.48,35.00 869.46,35.00 870.45,35.00 871.44,35.00 872.44,35.00 873.42,35.00 874.39,35.00 875.38,35.00 876.37,35.00 877.36,35.00 878.35,35.00 879.34,35.00 880.33,35.00 881.31,35.00 882.30,35.00 883.30,35.00 884.28,35.00 885.25,35.00 886.24,35.00 887.21,35.00 888.20,35.00 889.19,35.00 890.20,35.00 891.18,35.00 892.17,35.00 893.16,35.00 894.17,35.00 895.16,35.00 896.15,35.00 897.15,35.00 898.14,35.00 899.12,35.00 900.12,35.00 901.11,35.00 902.11,35.00 903.11,35.00 904.10,35.00 905.08,35.00 906.07,35.00 907.05,35.00 908.04,35.00 909.03,35.00 910.00,35.00 910.99,35.00 911.98,35.00 912.98,35.00 913.96,35.00 914.95,35.00 915.93,35.00 916.92,35.00 917.92,35.00 918.91,35.00 919.90,35.00 920.89,35.00 921.88,35.00 922.88,35.00 923.86,35.00 924.85,35.00 925.84,35.00 926.83,35.00 927.81,35.00 928.81,35.00 929.80,35.00 930.79,35.00 931.77,35.00 932.76,35.00 933.78,35.00 934.77,35.00 935.78,35.00 936.78,35.00 937.77,35.00 938.76,35.00 939.76,35.00 940.75,35.00 941.74,35.00 942.72,35.00 943.72,35.00 944.73,35.00 945.73,35.00 946.71,35.00 947.71,35.00 948.69,35.00 949.69,35.00 950.68,35.00 951.66,35.00 952.65,35.00 953.64,35.00 954.63,35.00 955.62,35.00 956.60,35.00 957.60,35.00 958.58,35.00 959.56,35.00 960.55,35.00 961.54,35.00 962.52,35.00 963.53,35.00 964.52,35.00 965.50,35.00 966.49,35.00 967.48,35.00 968.46,35.00 969.46,35.00 970.44,35.00 971.45,35.00 972.44,35.00 973.42,35.00 974.40,35.00 975.40,35.00 976.39,35.00 977.37,35.00 978.37,35.00 979.39,35.00 980.39,35.00 981.40,35.00 982.41,35.00 983.42,35.00 984.43,35.00 985.44,35.00 986.47,35.00 987.48,35.00 988.49,35.00 989.48,35.00 990.46,35.00 991.46,35.00 992.46,35.00 993.45,35.00 994.44,35.00 995.44,35.00 996.43,35.00 997.42,35.00 998.41,35.00 999.40,35.00 1000.38,35.00 1001.37,35.00 1002.35,35.00 1003.34,35.00 1004.34,35.00 1005.33,35.00 1006.31,35.00 1007.32,35.00 1008.32,35.00 1009.30,35.00 1010.29,35.00 1011.28,35.00 1012.27,35.00 1013.26,35.00 1014.25,35.00 1015.24,35.00 1016.23,35.00 1017.22,35.00 1018.21,35.00 1019.20,35.00 1020.19,35.00 1021.18,35.00 1022.17,35.00 1023.23,35.00 1024.25,35.00 1025.24,35.00 1026.23,35.00 1027.21,35.00 1028.22,35.00 1029.22,35.00 1030.21,35.00 1031.21,35.00 1032.19,35.00 1033.16,35.00 1034.15,35.00 1035.13,35.00 1036.12,35.00 1037.12,35.00 1038.10,35.00 1039.10,35.00 1040.10,35.00 1041.09,35.00 1042.08,35.00 1043.06,35.00 1044.05,35.00 1045.04,35.00 1046.04,35.00 1047.02,35.00 1048.01,35.00 1049.01,35.00 1050.00,35.00 1050.99,35.00 1052.02,35.00 1053.02,35.00 1054.01,35.00 1054.99,35.00 1055.98,35.00 1056.97,35.00 1057.97,35.00 1058.97,35.00 1059.95,35.00 1060.94,35.00 1061.94,35.00 1062.94,35.00 1063.94,35.00 1064.94,35.00 1065.92,35.00 1066.91,35.00 1067.90,35.00 1068.89,35.00 1069.88,35.00 1070.86,35.00 1071.87,35.00 1072.86,35.00 1073.85,35.00 1074.84,35.00 1075.82,35.00 1076.82,35.00 1077.80,35.00 1078.79,35.00 1079.78,35.00 1080.77,35.00 1081.76,35.00 1082.75,35.00 1083.74,35.00 1084.73,35.00 1085.72,35.00 1086.71,35.00 1087.70,35.00 1088.69,35.00 1089.67,35.00 1090.65,35.00 1091.64,35.00 1092.64,35.00 1093.63,35.00 1094.64,35.00 1095.63,35.00 1096.62,35.00 1097.62,35.00 1098.61,35.00 1099.61,35.00 1100.68,35.00 1101.69,35.00 1102.69,35.00 1103.69,35.00 1104.69,35.00 1105.68,35.00 1106.66,35.00 1107.66,35.00 1108.65,35.00 1109.64,35.00 1110.63,35.00 1111.62,35.00 1112.61,35.00 1113.63,35.00 1114.62,35.00 1115.62,35.00 1116.60,35.00 1117.59,35.00 1118.59,35.00 1119.58,35.00 1120.57,35.00 1121.56,35.00 1122.56,35.00 1123.55,35.00 1124.54,35.00 1125.54,35.00 1126.53,35.00 1127.53,35.00 1128.53,35.00 1129.52,35.00 1130.52,35.00 1131.50,35.00 1132.50,35.00 1133.49,35.00 1134.47,35.00 1135.46,35.00 1136.45,35.00 1137.44,35.00 1138.43,35.00 1139.43,35.00 1140.41,35.00 1141.40,35.00 1142.40,35.00 1143.39,35.00 1144.38,35.00 1145.37,35.00 1146.36,35.00 1147.37,35.00 1148.36,35.00 1149.33,35.00 1150.30,35.00 1151.28,35.00 1152.28,35.00 1153.27,35.00 1154.26,35.00 1155.27,35.00 1156.25,35.00 1157.26,35.00 1158.26,35.00 1159.24,35.00 1160.23,35.00 1161.21,35.00 1162.20,35.00 1163.18,35.00 1164.17,35.00 1165.16,35.00 1166.15,35.00 1167.14,35.00 1168.12,35.00 1169.11,35.00 1170.10,35.00 1171.09,35.00 1172.08,35.00 1173.06,35.00 1174.05,35.00 1175.01,35.00 1176.02,35.00 1177.01,35.00 1178.00,35.00 1179.00,35.00 1180.00,35.00"/>
<rect x="70" y="332" width="12" height="12" fill="#2ca02c" fill-opacity="0.95"/>
<text x="88" y="342" font-size="11" fill="#333" font-family="Arial, Helvetica, sans-serif">nsc1.utdallas.edu</text>
<rect x="350" y="332" width="12" height="12" fill="#2ca02c" fill-opacity="0.80"/>
<text x="368" y="342" font-size="11" fill="#333" font-family="Arial, Helvetica, sans-serif">nsc2.utdallas.edu</text>
<rect x="630" y="332" width="12" height="12" fill="#2ca02c" fill-opacity="0.65"/>
<text x="648" y="342" font-size="11" fill="#333" font-family="Arial, Helvetica, sans-serif">nsc3.utdallas.edu</text>
<rect x="910" y="332" width="12" height="12" fill="#2ca02c" fill-opacity="0.50"/>
<text x="928" y="342" font-size="11" fill="#333" font-family="Arial, Helvetica, sans-serif">nsc4.utdallas.edu</text>
</svg>