<?xml version="1.0" encoding="UTF-8"?>
<svg xmlns="http://www.w3.org/2000/svg" width="1200" height="360" viewBox="0 0 1200 360" role="img" aria-label="Mumax3 Health (%)">
<rect width="100%" height="100%" fill="#ffffff"/>
<text x="600.0" y="22" text-anchor="middle" font-size="16" font-family="Arial, Helvetica, sans-serif" font-weight="bold">Mumax3 Health (%)</text>
<line x1="70" y1="35.00" x2="1180" y2="35.00" stroke="#e3e3e3" stroke-width="1"/>
<text x="62" y="39.00" text-anchor="end" font-size="11" fill="#444" font-family="Arial, Helvetica, sans-serif">100</text>
<line x1="70" y1="89.00" x2="1180" y2="89.00" stroke="#e3e3e3" stroke-width="1"/>
<text x="62" y="93.00" text-anchor="end" font-size="11" fill="#444" font-family="Arial, Helvetica, sans-serif">80</text>
<line x1="70" y1="143.00" x2="1180" y2="143.00" stroke="#e3e3e3" stroke-width="1"/>
<text x="62" y="147.00" text-anchor="end" font-size="11" fill="#444" font-family="Arial, Helvetica, sans-serif">60</text>
<line x1="70" y1="197.00" x2="1180" y2="197.00" stroke="#e3e3e3" stroke-width="1"/>
<text x="62" y="201.00" text-anchor="end" font-size="11" fill="#444" font-family="Arial, Helvetica, sans-serif">40</text>
<line x1="70" y1="251.00" x2="1180" y2="251.00" stroke="#e3e3e3" stroke-width="1"/>
<text x="62" y="255.00" text-anchor="end" font-size="11" fill="#444" font-family="Arial, Helvetica, sans-serif">20</text>
<line x1="70" y1="305.00" x2="1180" y2="305.00" stroke="#e3e3e3" stroke-width="1"/>
<text x="62" y="309.00" text-anchor="end" font-size="11" fill="#444" font-family="Arial, Helvetica, sans-serif">0</text>
<line x1="70" y1="35" x2="70" y2="305" stroke="#999"/>
<line x1="70" y1="305" x2="1180" y2="305" stroke="#999"/>
<text x="70.00" y="323" text-anchor="middle" font-size="10" fill="#444" font-family="Arial, Helvetica, sans-serif">2026-02-11 16:38</text>
<text x="347.50" y="323" text-anchor="middle" font-size="10" fill="#444" font-family="Arial, Helvetica, sans-serif">2026-02-12 08:27</text>
<text x="625.00" y="323" text-anchor="middle" font-size="10" fill="#444" font-family="Arial, Helvetica, sans-serif">2026-02-13 00:17</text>
<text x="902.50" y="323" text-anchor="middle" font-size="10" fill="#444" font-family="Arial, Helvetica, sans-serif">2026-02-13 16:06</text>
<text x="1180.00" y="323" text-anchor="middle" font-size="10" fill="#444" font-family="Arial, Helvetica, sans-serif">2026-02-14 07:56</text>
<polyline fill="none" stroke="#2ca02c" stroke-opacity="0.95" stroke-width="2" points="71.57,35.00 73.15,35.00 74.72,35.00 76.30,35.00 77.89,35.00 79.44,35.00 81.02,35.00 82.73,35.00 84.29,35.00 85.86,35.00 87.42,35.00 89.02,35.00 90.58,35.00 92.14,35.00 94.97,35.00 97.41,35.00 99.00,35.00 100.61,35.00 102.18,35.00 103.75,35.00 105.29,35.00 106.88,35.00 108.45,35.00 110.03,35.00 111.61,35.00 113.22,35.00 114.79,35.00 116.37,35.00 118.02,35.00 119.61,35.00 121.18,35.00 122.79,35.00 124.37,35.00 125.94,35.00 127.56,35.00 129.12,35.00 130.69,35.00 132.30,35.00 133.85,35.00 135.42,35.00 136.98,35.00 138.55,35.00 140.12,35.00 141.69,35.00 143.29,35.00 144.88,35.00 146.44,35.00 148.00,35.00 149.59,35.00 151.17,35.00 152.96,35.00 154.54,35.00 156.11,35.00 157.66,35.00 159.23,35.00 160.79,35.00 162.35,35.00 163.93,35.00 165.50,35.00 167.10,35.00 168.67,35.00 170.22,35.00 171.80,35.00 173.40,35.00 174.97,35.00 176.54,35.00 178.10,35.00 179.66,35.00 181.22,35.00 182.78,35.00 184.35,35.00 185.92,35.00 187.48,35.00 189.05,35.00 190.63,35.00 192.18,35.00 193.77,35.00 195.33,35.00 196.89,35.00 198.50,35.00 200.07,35.00 201.64,35.00 203.22,35.00 204.79,35.00 206.36,35.00 207.93,35.00 209.49,35.00 211.05,35.00 212.63,35.00 214.21,35.00 215.78,35.00 217.37,35.00 218.92,35.00 220.50,35.00 222.06,35.00 223.63,35.00 225.19,35.00 226.76,35.00 228.32,35.00 229.90,35.00 231.47,35.00 233.05,35.00 234.62,35.00 236.21,35.00 237.80,35.00 239.37,35.00 240.93,35.00 242.50,35.00 244.06,35.00 245.65,35.00 247.22,35.00 248.79,35.00 250.36,35.00 251.94,35.00 253.52,35.00 255.10,35.00 256.70,35.00 258.26,35.00 259.83,35.00 261.41,35.00 262.98,35.00 264.54,35.00 266.13,35.00 267.83,35.00 269.40,35.00 270.99,35.00 272.56,35.00 274.12,35.00 275.67,35.00 277.22,35.00 278.79,35.00 280.36,35.00 281.93,35.00 283.49,35.00 285.06,35.00 286.63,35.00 288.19,35.00 289.79,35.00 291.35,35.00 292.92,35.00 294.49,35.00 296.06,35.00 297.62,35.00 299.20,35.00 300.78,35.00 302.35,35.00 303.93,35.00 305.49,35.00 307.05,35.00 308.62,35.00 310.19,35.00 311.75,35.00 313.33,35.00 314.92,35.00 316.49,35.00 318.06,35.00 319.65,35.00 321.22,35.00 322.78,35.00 324.36,35.00 325.93,35.00 327.53,35.00 329.12,35.00 330.69,35.00 332.27,35.00 333.82,35.00 335.38,35.00 336.95,35.00 338.53,35.00 340.09,35.00 341.64,35.00 343.21,35.00 344.79,35.00 346.37,35.00 347.95,35.00 349.51,35.00 351.12,35.00 352.69,35.00 354.26,35.00 355.82,35.00 357.38,35.00 359.09,35.00 360.70,35.00 362.26,35.00 363.82,35.00 365.37,35.00 366.95,35.00 368.52,35.00 370.09,35.00 371.67,35.00 373.24,35.00 374.80,35.00 376.37,35.00 377.98,35.00 379.55,35.00 381.11,35.00 382.68,35.00 384.26,35.00 385.87,35.00 387.47,35.00 389.03,35.00 390.61,35.00 392.18,35.00 393.74,35.00 395.32,35.00 396.89,35.00 398.49,35.00 400.05,35.00 401.61,35.00 403.20,35.00 404.77,35.00 406.34,35.00 407.91,35.00 409.51,35.00 411.08,35.00 412.64,35.00 414.20,35.00 415.76,35.00 417.34,35.00 418.91,35.00 420.47,35.00 422.04,35.00 423.59,35.00 425.16,35.00 426.74,35.00 428.32,35.00 429.90,35.00 431.49,35.00 433.06,35.00 434.65,35.00 436.21,35.00 437.79,35.00 439.36,35.00 440.93,35.00 442.50,35.00 444.11,35.00 445.68,35.00 447.26,35.00 448.83,35.00 450.40,35.00 451.98,35.00 453.53,35.00 455.10,35.00 456.68,35.00 458.25,35.00 459.83,35.00 461.40,35.00 462.98,35.00 464.55,35.00 466.13,35.00 467.71,35.00 469.30,35.00 470.86,35.00 472.43,35.00 474.01,35.00 475.60,35.00 477.18,35.00 478.75,35.00 480.32,35.00 482.06,35.00 483.64,35.00 485.22,35.00 486.79,35.00 488.38,35.00 489.96,35.00 491.53,35.00 493.11,35.00 494.67,35.00 496.29,35.00 497.88,35.00 499.44,35.00 501.01,35.00 502.58,35.00 504.15,35.00 505.73,35.00 507.36,35.00 508.93,35.00 510.50,35.00 512.09,35.00 513.79,35.00 515.36,35.00 517.34,35.00 520.00,35.00 521.61,35.00 523.22,35.00 524.78,35.00 526.32,35.00 527.89,35.00 529.48,35.00 531.06,35.00 532.65,35.00 534.28,35.00 535.91,35.00 537.57,35.00 539.15,35.00 540.73,35.00 542.30,35.00 543.89,35.00 545.49,35.00 547.07,35.00 548.64,35.00 550.21,35.00 551.84,35.00 553.43,35.00 554.98,35.00 556.56,35.00 558.15,35.00 559.79,35.00 561.37,35.00 562.94,35.00 564.56,35.00 566.07,35.00 567.63,35.00 569.23,35.00 570.80,35.00 572.39,35.00 574.01,35.00 575.59,35.00 577.16,35.00 578.75,35.00 580.34,35.00 581.92,35.00 583.48,35.00 585.04,35.00 586.63,35.00 588.20,35.00 589.76,35.00 591.64,35.00 593.49,35.00 595.35,35.00 597.18,35.00 598.97,35.00 600.79,35.00 602.65,35.00 604.48,35.00 606.06,35.00 607.61,35.00 609.18,35.00 610.75,35.00 612.32,35.00 613.88,35.00 615.44,35.00 617.01,35.00 618.58,35.00 620.15,35.00 621.72,35.00 623.28,35.00 624.85,35.00 626.41,35.00 627.98,35.00 629.54,35.00 631.11,35.00 632.67,35.00 634.25,35.00 635.83,35.00 637.38,35.00 638.94,35.00 640.50,35.00 642.07,35.00 643.65,35.00 645.22,35.00 646.78,35.00 648.36,35.00 649.93,35.00 651.49,35.00 653.06,35.00 654.63,35.00 656.19,35.00 657.76,35.00 659.31,35.00 660.86,35.00 662.42,35.00 663.99,35.00 665.55,35.00 667.11,35.00 668.67,35.00 670.24,35.00 671.80,35.00 673.35,35.00 674.89,35.00 676.52,35.00 678.21,35.00 679.78,35.00 681.36,35.00 682.92,35.00 684.48,35.00 686.04,35.00 687.60,35.00 689.16,35.00 691.02,35.00 692.86,35.00 694.68,35.00 696.53,35.00 698.38,35.00 700.21,35.00 702.08,35.00 703.99,35.00 705.70,35.00 707.39,35.00 708.96,35.00 710.55,35.00 712.12,35.00 713.68,35.00 715.24,35.00 716.81,35.00 718.38,35.00 719.95,35.00 721.50,35.00 723.08,35.00 724.65,35.00 726.22,35.00 727.81,35.00 729.37,35.00 730.94,35.00 732.31,35.00 733.93,35.00 735.50,35.00 737.11,35.00 738.68,35.00 740.24,35.00 741.82,35.00 743.40,35.00 744.98,35.00 746.57,35.00 748.15,35.00 749.75,35.00 751.31,35.00 752.86,35.00 754.44,35.00 755.99,35.00 757.56,35.00 759.11,35.00 760.70,35.00 762.27,35.00 763.84,35.00 765.41,35.00 766.97,35.00 768.55,35.00 770.12,35.00 771.70,35.00 773.28,35.00 774.85,35.00 776.41,35.00 778.00,35.00 779.57,35.00 781.19,35.00 782.75,35.00 784.31,35.00 785.88,35.00 787.43,35.00 789.00,35.00 790.59,35.00 792.15,35.00 793.71,35.00 795.28,35.00 796.84,35.00 798.41,35.00 799.99,35.00 801.57,35.00 803.14,35.00 805.03,35.00 806.65,35.00 808.26,35.00 809.84,35.00 811.41,35.00 813.01,35.00 814.56,35.00 816.12,35.00 817.71,35.00 819.30,35.00 820.86,35.00 822.44,35.00 824.02,35.00 825.58,35.00 827.21,35.00 828.81,35.00 830.38,35.00 831.96,35.00 833.53,35.00 835.10,35.00 836.66,35.00 838.23,35.00 839.87,35.00 841.45,35.00 843.03,35.00 844.60,35.00 846.17,35.00 847.75,35.00 849.32,35.00 850.89,35.00 852.47,35.00 854.05,35.00 855.62,35.00 857.20,35.00 858.76,35.00 860.33,35.00 861.90,35.00 863.50,35.00 865.08,35.00 866.64,35.00 868.21,35.00 869.78,35.00 871.38,35.00 872.95,35.00 874.84,35.00 876.46,35.00 878.03,35.00 879.61,35.00 881.17,35.00 882.75,35.00 884.32,35.00 885.90,35.00 887.50,35.00 889.07,35.00 890.64,35.00 892.20,35.00 893.77,35.00 895.34,35.00 896.91,35.00 898.49,35.00 900.06,35.00 901.62,35.00 903.19,35.00 904.76,35.00 906.35,35.00 907.91,35.00 909.48,35.00 911.07,35.00 912.66,35.00 914.22,35.00 915.79,35.00 917.37,35.00 918.99,35.00 920.54,35.00 922.12,35.00 923.71,35.00 925.28,35.00 926.84,35.00 928.42,35.00 930.00,35.00 931.61,35.00 933.18,35.00 934.75,35.00 936.30,35.00 937.87,35.00 939.44,35.00 941.02,35.00 942.59,35.00 944.17,35.00 945.77,35.00 947.35,35.00 948.89,35.00 950.48,35.00 952.04,35.00 953.62,35.00 955.18,35.00 956.76,35.00 958.32,35.00 959.92,35.00 961.49,35.00 963.06,35.00 964.65,35.00 966.23,35.00 967.81,35.00 969.39,35.00 970.97,35.00 972.74,35.00 974.47,35.00 976.15,35.00 977.74,35.00 979.38,35.00 980.96,35.00 982.54,35.00 984.09,35.00 985.56,35.00 987.20,35.00 988.78,35.00 990.37,35.00 991.92,35.00 993.50,35.00 995.06,35.00 996.65,35.00 998.21,35.00 999.79,35.00 1001.36,35.00 1002.94,35.00 1004.52,35.00 1006.10,35.00 1007.69,35.00 1009.28,35.00 1010.85,35.00 1012.43,35.00 1014.01,35.00 1015.61,35.00 1017.19,35.00 1018.75,35.00 1020.32,35.00 1021.90,35.00 1023.46,35.00 1025.03,35.00 1026.61,35.00 1028.18,35.00 1029.78,35.00 1031.34,35.00 1032.91,35.00 1034.49,35.00 1036.07,35.00 1037.65,35.00 1039.23,35.00 1040.80,35.00 1042.37,35.00 1043.95,35.00 1045.54,35.00 1047.12,35.00 1048.71,35.00 1050.28,35.00 1051.86,35.00 1053.44,35.00 1055.01,35.00 1056.61,35.00 1058.23,35.00 1059.80,35.00 1061.39,35.00 1062.96,35.00 1064.53,35.00 1066.11,35.00 1067.68,35.00 1069.27,35.00 1070.85,35.00 1072.42,35.00 1074.00,35.00 1075.58,35.00 1077.16,35.00 1078.75,35.00 1080.33,35.00 1081.92,35.00 1083.50,35.00 1085.08,35.00 1086.68,35.00 1088.25,35.00 1089.82,35.00 1091.41,35.00 1092.98,35.00 1094.60,35.00 1096.18,35.00 1097.77,35.00 1099.35,35.00 1100.91,35.00 1102.49,35.00 1104.06,35.00 1105.64,35.00 1107.23,35.00 1108.80,35.00 1110.37,35.00 1111.95,35.00 1113.53,35.00 1115.12,35.00 1116.70,35.00 1118.26,35.00 1119.86,35.00 1121.44,35.00 1123.02,35.00 1124.60,35.00 1126.17,35.00 1127.74,35.00 1129.30,35.00 1130.88,35.00 1132.46,35.00 1134.05,35.00 1135.63,35.00 1137.22,35.00 1138.79,35.00 1140.38,35.00 1141.97,35.00 1143.54,35.00 1145.12,35.00 1146.72,35.00 1148.29,35.00 1149.87,35.00 1151.46,35.00 1153.05,35.00 1154.64,35.00 1156.21,35.00 1157.83,35.00 1159.42,35.00 1161.00,35.00 1162.58,35.00 1164.15,35.00 1165.74,35.00 1167.33,35.00 1168.92,35.00 1170.50,35.00 1172.08,35.00 1173.65,35.00 1175.22,35.00 1176.84,35.00 1178.41,35.00 1180.00,35.00"/>
<polyline fill="none" stroke="#2ca02c" stroke-opacity="0.80" stroke-width="2" points="70.00,35.00 71.57,35.00 73.15,35.00 74.72,35.00 76.30,35.00 77.89,35.00 79.44,35.00 81.02,35.00 82.73,35.00 84.29,35.00 85.86,35.00 87.42,35.00 89.02,35.00 90.58,35.00 92.14,35.00 94.97,35.00 97.41,35.00 99.00,35.00 100.61,35.00 102.18,35.00 103.75,35.00 105.29,35.00 106.88,35.00 108.45,35.00 110.03,35.00 111.61,35.00 113.22,35.00 114.79,35.00 116.37,35.00 118.02,35.00 119.61,35.00 121.18,35.00 122.79,35.00 124.37,35.00 125.94,35.00 127.56,35.00 129.12,35.00 130.69,35.00 132.30,35.00 133.85,35.00 135.42,35.00 136.98,35.00 138.55,35.00 140.12,35.00 141.69,35.00 143.29,35.00 144.88,35.00 146.44,35.00 148.00,35.00 149.59,35.00 151.17,35.00 152.96,35.00 154.54,35.00 156.11,35.00 157.66,35.00 159.23,35.00 160.79,35.00 162.35,35.00 163.93,35.00 165.50,35.00 167.10,35.00 168.67,35.00 170.22,35.00 171.80,35.00 173.40,35.00 174.97,35.00 176.54,35.00 178.10,35.00 179.66,35.00 181.22,35.00 182.78,35.00 184.35,35.00 185.92,35.00 187.48,35.00 189.05,35.00 190.63,35.00 192.18,35.00 193.77,35.00 195.33,35.00 196.89,35.00 198.50,35.00 200.07,35.00 201.64,35.00 203.22,35.00 204.79,35.00 206.36,35.00 207.93,35.00 209.49,35.00 211.05,35.00 212.63,35.00 214.21,35.00 215.78,35.00 217.37,35.00 218.92,35.00 220.50,35.00 222.06,35.00 223.63,35.00 225.19,35.00 226.76,35.00 228.32,35.00 229.90,35.00 231.47,35.00 233.05,35.00 234.62,35.00 236.21,35.00 237.80,35.00 239.37,35.00 240.93,35.00 242.50,35.00 244.06,35.00 245.65,35.00 247.22,35.00 248.79,35.00 250.36,35.00 251.94,35.00 253.52,35.00 255.10,35.00 256.70,35.00 258.26,35.00 259.83,35.00 261.41,35.00 262.98,35.00 264.54,35.00 266.13,35.00 267.83,35.00 269.40,35.00 270.99,35.00 272.56,35.00 274.12,35.00 275.67,35.00 277.22,35.00 278.79,35.00 280.36,35.00 281.93,35.00 283.49,35.00 285.06,35.00 286.63,35.00 288.19,35.00 289.79,35.00 291.35,35.00 292.92,35.00 294.49,35.00 296.06,35.00 297.62,35.00 299.20,35.00 300.78,35.00 302.35,35.00 303.93,35.00 305.49,35.00 307.05,35.00 308.62,35.00 310.19,35.00 311.75,35.00 313.33,35.00 314.92,35.00 316.49,35.00 318.06,35.00 319.65,35.00 321.22,35.00 322.78,35.00 324.36,35.00 325.93,35.00 327.53,35.00 329.12,35.00 330.69,35.00 332.27,35.00 333.82,35.00 335.38,35.00 336.95,35.00 338.53,35.00 340.09,35.00 341.64,35.00 343.21,35.00 344.79,35.00 346.37,35.00 347.95,35.00 349.51,35.00 351.12,35.00 352.69,35.00 354.26,35.00 355.82,35.00 357.38,35.00 359.09,35.00 360.70,35.00 362.26,35.00 363.82,35.00 365.37,35.00 366.95,35.00 368.52,35.00 370.09,35.00 371.67,35.00 373.24,35.00 374.80,35.00 376.37,35.00 377.98,35.00 379.55,35.00 381.11,35.00 382.68,35.00 384.26,35.00 385.87,35.00 387.47,35.00 389.03,35.00 390.61,35.00 392.18,35.00 393.74,35.00 395.32,35.00 396.89,35.00 398.49,35.00 400.05,35.00 401.61,35.00 403.20,35.00 404.77,35.00 406.34,35.00 407.91,35.00 409.51,35.00 411.08,35.00 412.64,35.00 414.20,35.00 415.76,35.00 417.34,35.00 418.91,35.00 420.47,35.00 422.04,35.00 423.59,35.00 425.16,35.00 426.74,35.00 428.32,35.00 429.90,35.00 431.49,35.00 433.06,35.00 434.65,35.00 436.21,35.00 437.79,35.00 439.36,35.00 440.93,35.00 442.50,35.00 444.11,35.00 445.68,35.00 447.26,35.00 448.83,35.00 450.40,35.00 451.98,35.00 453.53,35.00 455.10,35.00 456.68,35.00 458.25,35.00 459.83,35.00 461.40,35.00 462.98,35.00 464.55,35.00 466.13,35.00 467.71,35.00 469.30,35.00 470.86,35.00 472.43,35.00 474.01,35.00 475.60,35.00 477.18,35.00 478.75,35.00 480.32,35.00 482.06,35.00 483.64,35.00 485.22,35.00 486.79,35.00 488.38,35.00 489.96,35.00 491.53,35.00 493.11,35.00 494.67,35.00 496.29,35.00 497.88,35.00 499.44,35.00 501.01,35.00 502.58,35.00 504.15,35.00 505.73,35.00 507.36,35.00 508.93,35.00 510.50,35.00 512.09,35.00 513.79,35.00 515.36,35.00 517.34,35.00 520.00,35.00 521.61,35.00 523.22,35.00 524.78,35.00 526.32,35.00 527.89,35.00 529.48,35.00 531.06,35.00 532.65,35.00 534.28,35.00 535.91,35.00 537.57,35.00 539.15,35.00 540.73,35.00 542.30,35.00 543.89,35.00 545.49,35.00 547.07,35.00 548.64,35.00 550.21,35.00 551.84,35.00 553.43,35.00 554.98,35.00 556.56,35.00 558.15,35.00 559.79,35.00 561.37,35.00 562.94,35.00 564.56,35.00 566.07,35.00 567.63,35.00 569.23,35.00 570.80,35.00 572.39,35.00 574.01,35.00 575.59,35.00 577.16,35.00 578.75,35.00 580.34,35.00 581.92,35.00 583.48,35.00 585.04,35.00 586.63,35.00 588.20,35.00 589.76,35.00 591.64,35.00 593.49,35.00 595.35,35.00 597.18,35.00 598.97,35.00 600.79,35.00 602.65,35.00 604.48,35.00 606.06,35.00 607.61,35.00 609.18,35.00 610.75,35.00 612.32,35.00 613.88,35.00 615.44,35.00 617.01,35.00 618.58,35.00 620.15,35.00 621.72,35.00 623.28,35.00 624.85,35.00 626.41,35.00 627.98,35.00 629.54,35.00 631.11,35.00 632.67,35.00 634.25,35.00 635.83,35.00 637.38,35.00 638.94,35.00 640.50,35.00 642.07,35.00 643.65,35.00 645.22,35.00 646.78,35.00 648.36,35.00 649.93,35.00 651.49,35.00 653.06,35.00 654.63,35.00 656.19,35.00 657.76,35.00 659.31,35.00 660.86,35.00 662.42,35.00 663.99,35.00 665.55,35.00 667.11,35.00 668.67,35.00 670.24,35.00 671.80,35.00 673.35,35.00 674.89,35.00 676.52,35.00 678.21,35.00 679.78,35.00 681.36,35.00 682.92,35.00 684.48,35.00 686.04,35.00 687.60,35.00 689.16,35.00 691.02,35.00 692.86,35.00 694.68,35.00 696.53,35.00 698.38,35.00 700.21,35.00 702.08,35.00 703.99,35.00 705.70,35.00 707.39,35.00 708.96,35.00 710.55,35.00 712.12,35.00 713.68,35.00 715.24,35.00 716.81,35.00 718.38,35.00 719.95,35.00 721.50,35.00 723.08,35.00 724.65,35.00 726.22,35.00 727.81,35.00 729.37,35.00 730.94,35.00 732.31,35.00 733.93,35.00 735.50,35.00 737.11,35.00 738.68,35.00 740.24,35.00 741.82,35.00 743.40,35.00 744.98,35.00 746.57,35.00 748.15,35.00 749.75,35.00 751.31,35.00 752.86,35.00 754.44,35.00 755.99,35.00 757.56,35.00 759.11,35.00 760.70,35.00 762.27,35.00 763.84,35.00 765.41,35.00 766.97,35.00 768.55,35.00 770.12,35.00 771.70,35.00 773.28,35.00 774.85,35.00 776.41,35.00 778.00,35.00 779.57,35.00 781.19,35.00 782.75,35.00 784.31,35.00 785.88,35.00 787.43,35.00 789.00,35.00 790.59,35.00 792.15,35.00 793.71,35.00 795.28,35.00 796.84,35.00 798.41,35.00 799.99,35.00 801.57,35.00 803.14,35.00 805.03,35.00 806.65,35.00 808.26,35.00 809.84,35.00 811.41,35.00 813.01,35.00 814.56,35.00 816.12,35.00 817.71,35.00 819.30,35.00 820.86,35.00 822.44,35.00 824.02,35.00 825.58,35.00 827.21,35.00 828.81,35.00 830.38,35.00 831.96,35.00 833.53,35.00 835.10,35.00 836.66,35.00 838.23,35.00 839.87,35.00 841.45,35.00 843.03,35.00 844.60,35.00 846.17,35.00 847.75,35.00 849.32,35.00 850.89,35.00 852.47,35.00 854.05,35.00 855.62,35.00 857.20,35.00 858.76,35.00 860.33,35.00 861.90,35.00 863.50,35.00 865.08,35.00 866.64,35.00 868.21,35.00 869.78,35.00 871.38,35.00 872.95,35.00 874.84,35.00 876.46,35.00 878.03,35.00 879.61,35.00 881.17,35.00 882.75,35.00 884.32,35.00 885.90,35.00 887.50,35.00 889.07,35.00 890.64,35.00 892.20,35.00 893.77,35.00 895.34,35.00 896.91,35.00 898.49,35.00 900.06,35.00 901.62,35.00 903.19,35.00 904.76,35.00 906.35,35.00 907.91,35.00 909.48,35.00 911.07,35.00 912.66,35.00 914.22,35.00 915.79,35.00 917.37,35.00 918.99,35.00 920.54,35.00 922.12,35.00 923.71,35.00 925.28,35.00 926.84,35.00 928.42,35.00 930.00,35.00 931.61,35.00 933.18,35.00 934.75,35.00 936.30,35.00 937.87,35.00 939.44,35.00 941.02,35.00 942.59,35.00 944.17,35.00 945.77,35.00 947.35,35.00 948.89,35.00 950.48,35.00 952.04,35.00 953.62,35.00 955.18,35.00 956.76,35.00 958.32,35.00 959.92,35.00 961.49,35.00 963.06,35.00 964.65,35.00 966.23,35.00 967.81,35.00 969.39,35.00 970.97,35.00 972.74,35.00 974.47,35.00 976.15,35.00 977.74,35.00 979.38,35.00 980.96,35.00 982.54,35.00 984.09,35.00 985.56,35.00 987.20,35.00 988.78,35.00 990.37,35.00 991.92,35.00 993.50,35.00 995.06,35.00 996.65,35.00 998.21,35.00 999.79,35.00 1001.36,35.00 1002.94,35.00 1004.52,35.00 1006.10,35.00 1007.69,35.00 1009.28,35.00 1010.85,35.00 1012.43,35.00 1014.01,35.00 1015.61,35.00 1017.19,35.00 1018.75,35.00 1020.32,35.00 1021.90,35.00 1023.46,35.00 1025.03,35.00 1026.61,35.00 1028.18,35.00 1029.78,35.00 1031.34,35.00 1032.91,35.00 1034.49,35.00 1036.07,35.00 1037.65,35.00 1039.23,35.00 1040.80,35.00 1042.37,35.00 1043.95,35.00 1045.54,35.00 1047.12,35.00 1048.71,35.00 1050.28,35.00 1051.86,35.00 1053.44,35.00 1055.01,35.00 1056.61,35.00 1058.23,35.00 1059.80,35.00 1061.39,35.00 1062.96,35.00 1064.53,35.00 1066.11,35.00 1067.68,35.00 1069.27,35.00 1070.85,35.00 1072.42,35.00 1074.00,35.00 1075.58,35.00 1077.16,35.00 1078.75,35.00 1080.33,35.00 1081.92,35.00 1083.50,35.00 1085.08,35.00 1086.68,35.00 1088.25,35.00 1089.82,35.00 1091.41,35.00 1092.98,35.00 1094.60,35.00 1096.18,35.00 1097.77,35.00 1099.35,35.00 1100.91,35.00 1102.49,35.00 1104.06,35.00 1105.64,35.00 1107.23,35.00 1108.80,35.00 1110.37,35.00 1111.95,35.00 1113.53,35.00 1115.12,35.00 1116.70,35.00 1118.26,35.00 1119.86,35.00 1121.44,35.00 1123.02,35.00 1124.60,35.00 1126.17,35.00 1127.74,35.00 1129.30,35.00 1130.88,35.00 1132.46,35.00 1134.05,35.00 1135.63,35.00 1137.22,35.00 1138.79,35.00 1140.38,35.00 1141.97,35.00 1143.54,35.00 1145.12,35.00 1146.72,35.00 1148.29,35.00 1149.87,35.00 1151.46,35.00 1153.05,35.00 1154.64,35.00 1156.21,35.00 1157.83,35.00 1159.42,35.00 1161.00,35.00 1162.58,35.00 1164.15,35.00 1165.74,35.00 1167.33,35.00 1168.92,35.00 1170.50,35.00 1172.08,35.00 1173.65,35.00 1175.22,35.00 1176.84,35.00 1178.41,35.00 1180.00,35.00"/>
<polyline fill="none" stroke="#2ca02c" stroke-opacity="0.65" stroke-width="2" points="70.00,305.00 71.57,305.00 73.15,305.00 74.72,305.00 76.30,305.00 77.89,305.00 79.44,305.00 81.02,305.00 82.73,305.00 84.29,305.00 85.86,305.00 87.42,305.00 89.02,305.00 90.58,305.00 92.14,305.00 94.97,305.00 97.41,305.00 99.00,305.00 100.61,305.00 102.18,305.00 103.75,305.00 105.29,305.00 106.88,305.00 108.45,305.00 110.03,305.00 111.61,305.00 113.22,305.00 114.79,305.00 116.37,305.00 118.02,305.00 119.61,305.00 121.18,305.00 122.79,305.00 124.37,305.00 125.94,305.00 127.56,305.00 129.12,305.00 130.69,305.00 132.30,305.00 133.85,305.00 135.42,305.00 136.98,305.00 138.55,305.00 140.12,305.00 141.69,305.00 143.29,305.00 144.88,305.00 146.44,305.00 148.00,305.00 149.59,305.00 151.17,305.00 152.96,305.00 154.54,305.00 156.11,305.00 157.66,305.00 159.23,305.00 160.79,305.00 162.35,305.00 163.93,305.00 165.50,305.00 167.10,305.00 168.67,305.00 170.22,305.00 171.80,305.00 173.40,305.00 174.97,305.00 176.54,305.00 178.10,305.00 179.66,305.00 181.22,305.00 182.78,305.00 184.35,305.00 185.92,305.00 187.48,305.00 189.05,305.00 190.63,305.00 192.18,305.00 193.77,305.00 195.33,305.00 196.89,305.00 198.50,305.00 200.07,305.00 201.64,305.00 203.22,305.00 204.79,305.00 206.36,305.00 207.93,305.00 209.49,305.00 211.05,305.00 212.63,305.00 214.21,305.00 215.78,305.00 217.37,305.00 218.92,305.00 220.50,305.00 222.06,305.00 223.63,305.00 225.19,305.00 226.76,305.00 228.32,305.00 229.90,305.00 231.47,305.00 233.05,305.00 234.62,305.00 236.21,305.00 237.80,305.00 239.37,305.00 240.93,305.00 242.50,305.00 244.06,305.00 245.65,305.00 247.22,305.00 248.79,305.00 250.36,305.00 251.94,305.00 253.52,305.00 255.10,305.00 256.70,305.00 258.26,305.00 259.83,305.00 261.41,305.00 262.98,305.00 264.54,305.00 266.13,305.00 267.83,305.00 269.40,305.00 270.99,305.00 272.56,305.00 274.12,305.00 275.67,305.00 277.22,305.00 278.79,305.00 280.36,305.00 281.93,305.00 283.49,305.00 285.06,305.00 286.63,305.00 288.19,305.00 289.79,305.00 291.35,305.00 292.92,305.00 294.49,305.00 296.06,305.00 297.62,305.00 299.20,305.00 300.78,305.00 302.35,305.00 303.93,305.00 305.49,305.00 307.05,305.00 308.62,305.00 310.19,305.00 311.75,305.00 313.33,305.00 314.92,305.00 316.49,305.00 318.06,305.00 319.65,305.00 321.22,305.00 322.78,305.00 324.36,305.00 325.93,305.00 327.53,305.00 329.12,305.00 330.69,305.00 332.27,305.00 333.82,305.00 335.38,305.00 336.95,305.00 338.53,305.00 340.09,305.00 341.64,305.00 343.21,305.00 344.79,305.00 346.37,305.00 347.95,305.00 349.51,305.00 351.12,305.00 352.69,305.00 354.26,305.00 355.82,305.00 357.38,305.00 359.09,305.00 360.70,305.00 362.26,305.00 363.82,305.00 365.37,305.00 366.95,305.00 368.52,305.00 370.09,305.00 371.67,305.00 373.24,305.00 374.80,305.00 376.37,305.00 377.98,305.00 379.55,305.00 381.11,305.00 382.68,305.00 384.26,305.00 385.87,305.00 387.47,305.00 389.03,305.00 390.61,305.00 392.18,305.00 393.74,305.00 395.32,305.00 396.89,305.00 398.49,305.00 400.05,305.00 401.61,305.00 403.20,305.00 404.77,305.00 406.34,305.00 407.91,305.00 409.51,305.00 411.08,305.00 412.64,305.00 414.20,305.00 415.76,305.00 417.34,305.00 418.91,305.00 420.47,305.00 422.04,305.00 423.59,305.00 425.16,305.00 426.74,305.00 428.32,305.00 429.90,305.00 431.49,305.00 433.06,305.00 434.65,305.00 436.21,305.00 437.79,305.00 439.36,305.00 440.93,305.00 442.50,305.00 444.11,305.00 445.68,305.00 447.26,305.00 448.83,305.00 450.40,305.00 451.98,305.00 453.53,305.00 455.10,305.00 456.68,305.00 458.25,305.00 459.83,305.00 461.40,305.00 462.98,305.00 464.55,305.00 466.13,305.00 467.71,305.00 469.30,305.00 470.86,305.00 472.43,305.00 474.01,305.00 475.60,305.00 477.18,305.00 478.75,305.00 480.32,305.00 482.06,305.00 483.64,305.00 485.22,305.00 486.79,305.00 488.38,305.00 489.96,305.00 491.53,305.00 493.11,305.00 494.67,305.00 496.29,305.00 497.88,305.00 499.44,305.00 501.01,305.00 502.58,305.00 504.15,305.00 505.73,305.00 507.36,305.00 508.93,305.00 510.50,305.00 512.09,305.00 513.79,305.00 515.36,305.00 517.34,305.00 520.00,305.00 521.61,305.00 523.22,305.00 524.78,305.00 526.32,305.00 527.89,305.00 529.48,305.00 531.06,305.00 532.65,305.00 534.28,305.00 535.91,305.00 537.57,305.00 539.15,305.00 540.73,305.00 542.30,305.00 543.89,305.00 545.49,305.00 547.07,305.00 548.64,305.00 550.21,305.00 551.84,305.00 553.43,305.00 554.98,305.00 556.56,305.00 558.15,305.00 559.79,305.00 561.37,305.00 562.94,305.00 564.56,305.00 566.07,305.00 567.63,305.00 569.23,305.00 570.80,305.00 572.39,305.00 574.01,305.00 575.59,305.00 577.16,305.00 578.75,305.00 580.34,305.00 581.92,305.00 583.48,305.00 585.04,305.00 586.63,305.00 588.20,305.00 589.76,305.00 591.64,305.00 593.49,305.00 595.35,305.00 597.18,305.00 598.97,305.00 600.79,305.00 602.65,305.00 604.48,305.00 606.06,305.00 607.61,305.00 609.18,305.00 610.75,305.00 612.32,305.00 613.88,305.00 615.44,305.00 617.01,305.00 618.58,305.00 620.15,305.00 621.72,305.00 623.28,305.00 624.85,305.00 626.41,305.00 627.98,305.00 629.54,305.00 631.11,305.00 632.67,305.00 634.25,305.00 635.83,305.00 637.38,305.00 638.94,305.00 640.50,305.00 642.07,305.00 643.65,305.00 645.22,305.00 646.78,305.00 648.36,305.00 649.93,305.00 651.49,305.00 653.06,305.00 654.63,305.00 656.19,305.00 657.76,305.00 659.31,305.00 660.86,305.00 662.42,305.00 663.99,305.00 665.55,305.00 667.11,305.00 668.67,305.00 670.24,305.00 671.80,305.00 673.35,305.00 674.89,305.00 676.52,305.00 678.21,305.00 679.78,305.00 681.36,305.00 682.92,305.00 684.48,305.00 686.04,305.00 687.60,305.00 689.16,305.00 691.02,305.00 692.86,305.00 694.68,305.00 696.53,305.00 698.38,305.00 700.21,305.00 702.08,305.00 703.99,305.00 705.70,305.00 707.39,305.00 708.96,305.00 710.55,305.00 712.12,305.00 713.68,305.00 715.24,305.00 716.81,305.00 718.38,305.00 719.95,305.00 721.50,305.00 723.08,305.00 724.65,305.00 726.22,305.00 727.81,305.00 729.37,305.00 730.94,305.00 732.31,35.00 733.93,35.00 735.50,35.00 737.11,35.00 738.68,35.00 740.24,35.00 741.82,35.00 743.40,35.00 744.98,35.00 746.57,35.00 748.15,35.00 749.75,35.00 751.31,35.00 752.86,35.00 754.44,35.00 755.99,35.00 757.56,35.00 759.11,35.00 760.70,35.00 762.27,35.00 763.84,35.00 765.41,35.00 766.97,35.00 768.55,35.00 770.12,35.00 771.70,35.00 773.28,35.00 774.85,35.00 776.41,35.00 778.00,35.00 779.57,35.00 781.19,35.00 782.75,35.00 784.31,35.00 785.88,35.00 787.43,35.00 789.00,35.00 790.59,35.00 792.15,35.00 793.71,35.00 795.28,35.00 796.84,35.00 798.41,35.00 799.99,35.00 801.57,35.00 803.14,35.00 805.03,35.00 806.65,35.00 808.26,35.00 809.84,35.00 811.41,35.00 813.01,35.00 814.56,35.00 816.12,35.00 817.71,35.00 819.30,35.00 820.86,35.00 822.44,35.00 824.02,35.00 825.58,35.00 827.21,35.00 828.81,35.00 830.38,35.00 831.96,35.00 833.53,35.00 835.10,35.00 836.66,35.00 838.23,35.00 839.87,35.00 841.45,35.00 843.03,35.00 844.60,35.00 846.17,35.00 847.75,35.00 849.32,35.00 850.89,35.00 852.47,35.00 854.05,35.00 855.62,35.00 857.20,35.00 858.76,35.00 860.33,35.00 861.90,35.00 863.50,35.00 865.08,35.00 866.64,35.00 868.21,35.00 869.78,35.00 871.38,35.00 872.95,35.00 874.84,35.00 876.46,35.00 878.03,35.00 879.61,35.00 881.17,35.00 882.75,35.00 884.32,35.00 885.90,35.00 887.50,35.00 889.07,35.00 890.64,35.00 892.20,35.00 893.77,35.00 895.34,35.00 896.91,35.00 898.49,35.00 900.06,35.00 901.62,35.00 903.19,35.00 904.76,35.00 906.35,35.00 907.91,35.00 909.48,35.00 911.07,35.00 912.66,35.00 914.22,35.00 915.79,35.00 917.37,35.00 918.99,35.00 920.54,35.00 922.12,35.00 923.71,35.00 925.28,35.00 926.84,35.00 928.42,35.00 930.00,35.00 931.61,35.00 933.18,35.00 934.75,35.00 936.30,35.00 937.87,35.00 939.44,35.00 941.02,35.00 942.59,35.00 944.17,35.00 945.77,35.00 947.35,35.00 948.89,35.00 950.48,35.00 952.04,35.00 953.62,35.00 955.18,35.00 956.76,35.00 958.32,35.00 959.92,35.00 961.49,35.00 963.06,35.00 964.65,35.00 966.23,35.00 967.81,35.00 969.39,35.00 970.97,35.00 972.74,35.00 974.47,35.00 976.15,35.00 977.74,35.00 979.38,35.00 980.96,35.00 982.54,35.00 984.09,35.00 985.56,35.00 987.20,35.00 988.78,35.00 990.37,35.00 991.92,35.00 993.50,35.00 995.06,35.00 996.65,35.00 998.21,35.00 999.79,35.00 1001.36,35.00 1002.94,35.00 1004.52,35.00 1006.10,35.00 1007.69,35.00 1009.28,35.00 1010.85,35.00 1012.43,35.00 1014.01,35.00 1015.61,35.00 1017.19,35.00 1018.75,35.00 1020.32,35.00 1021.90,35.00 1023.46,35.00 1025.03,35.00 1026.61,35.00 1028.18,35.00 1029.78,35.00 1031.34,35.00 1032.91,35.00 1034.49,35.00 1036.07,35.00 1037.65,35.00 1039.23,35.00 1040.80,35.00 1042.37,35.00 1043.95,35.00 1045.54,35.00 1047.12,35.00 1048.71,35.00 1050.28,35.00 1051.86,35.00 1053.44,35.00 1055.01,35.00 1056.61,35.00 1058.23,35.00 1059.80,35.00 1061.39,35.00 1062.96,35.00 1064.53,35.00 1066.11,35.00 1067.68,35.00 1069.27,35.00 1070.85,35.00 1072.42,35.00 1074.00,35.00 1075.58,35.00 1077.16,35.00 1078.75,35.00 1080.33,35.00 1081.92,35.00 1083.50,35.00 1085.08,35.00 1086.68,35.00 1088.25,35.00 1089.82,35.00 1091.41,35.00 1092.98,35.00 1094.60,35.00 1096.18,35.00 1097.77,35.00 1099.35,35.00 1100.91,35.00 1102.49,35.00 1104.06,35.00 1105.64,35.00 1107.23,35.00 1108.80,35.00 1110.37,35.00 1111.95,35.00 1113.53,35.00 1115.12,35.00 1116.70,35.00 1118.26,35.00 1119.86,35.00 1121.44,35.00 1123.02,35.00 1124.60,35.00 1126.17,35.00 1127.74,35.00 1129.30,35.00 1130.88,35.00 1132.46,35.00 1134.05,35.00 1135.63,35.00 1137.22,35.00 1138.79,35.00 1140.38,35.00 1141.97,35.00 1143.54,35.00 1145.12,35.00 1146.72,35.00 1148.29,35.00 1149.87,35.00 1151.46,35.00 1153.05,35.00 1154.64,35.00 1156.21,35.00 1157.83,35.00 1159.42,35.00 1161.00,35.00 1162.58,35.00 1164.15,35.00 1165.74,35.00 1167.33,35.00 1168.92,35.00 1170.50,35.00 1172.08,35.00 1173.65,35.00 1175.22,35.00 1176.84,35.00 1178.41,35.00 1180.00,35.00"/>
<polyline fill="none" stroke="#2ca02c" stroke-opacity="0.50" stroke-width="2" points="70.00,35.00 71.57,35.00 73.15,35.00 74.72,35.00 76.30,35.00 77.89,35.00 79.44,35.00 81.02,35.00 82.73,35.00 84.29,35.00 85.86,35.00 87.42,35.00 89.02,35.00 90.58,35.00 92.14,35.00 94.97,35.00 97.41,35.00 99.00,35.00 100.61,35.00 102.18,35.00 103.75,35.00 105.29,35.00 106.88,35.00 108.45,35.00 110.03,35.00 111.61,35.00 113.22,35.00 114.79,35.00 116.37,35.00 118.02,35.00 119.61,35.00 121.18,35.00 122.79,35.00 124.37,35.00 125.94,35.00 127.56,35.00 129.12,35.00 130.69,35.00 132.30,35.00 133.85,35.00 135.42,35.00 136.98,35.00 138.55,35.00 140.12,35.00 141.69,35.00 143.29,35.00 144.88,35.00 146.44,35.00 148.00,35.00 149.59,35.00 151.17,35.00 152.96,35.00 154.54,35.00 156.11,35.00 157.66,35.00 159.23,35.00 160.79,35.00 162.35,35.00 163.93,35.00 165.50,35.00 167.10,35.00 168.67,35.00 170.22,35.00 171.80,35.00 173.40,35.00 174.97,35.00 176.54,35.00 178.10,35.00 179.66,35.00 181.22,35.00 182.78,35.00 184.35,35.00 185.92,35.00 187.48,35.00 189.05,35.00 190.63,35.00 192.18,35.00 193.77,35.00 195.33,35.00 196.89,35.00 198.50,35.00 200.07,35.00 201.64,35.00 203.22,35.00 204.79,35.00 206.36,35.00 207.93,35.00 209.49,35.00 211.05,35.00 212.63,35.00 214.21,35.00 215.78,35.00 217.37,35.00 218.92,35.00 220.50,35.00 222.06,35.00 223.63,35.00 225.19,35.00 226.76,35.00 228.32,35.00 229.90,35.00 231.47,35.00 233.05,35.00 234.62,35.00 236.21,35.00 237.80,35.00 239.37,35.00 240.93,35.00 242.50,35.00 244.06,35.00 245.65,35.00 247.22,35.00 248.79,35.00 250.36,35.00 251.94,35.00 253.52,35.00 255.10,35.00 256.70,35.00 258.26,35.00 259.83,35.00 261.41,35.00 262.98,35.00 264.54,35.00 266.13,35.00 267.83,35.00 269.40,35.00 270.99,35.00 272.56,35.00 274.12,35.00 275.67,35.00 277.22,35.00 278.79,35.00 280.36,35.00 281.93,35.00 283.49,35.00 285.06,35.00 286.63,35.00 288.19,35.00 289.79,35.00 291.35,35.00 292.92,35.00 294.49,35.00 296.06,35.00 297.62,35.00 299.20,35.00 300.78,35.00 302.35,35.00 303.93,35.00 305.49,35.00 307.05,35.00 308.62,35.00 310.19,35.00 311.75,35.00 313.33,35.00 314.92,35.00 316.49,35.00 318.06,35.00 319.65,35.00 321.22,35.00 322.78,35.00 324.36,35.00 325.93,35.00 327.53,35.00 329.12,35.00 330.69,35.00 332.27,35.00 333.82,35.00 335.38,35.00 336.95,35.00 338.53,35.00 340.09,35.00 341.64,35.00 343.21,35.00 344.79,35.00 346.37,35.00 347.95,35.00 349.51,35.00 351.12,35.00 352.69,35.00 354.26,35.00 355.82,35.00 357.38,35.00 359.09,35.00 360.70,35.00 362.26,35.00 363.82,35.00 365.37,35.00 366.95,35.00 368.52,35.00 370.09,35.00 371.67,35.00 373.24,35.00 374.80,35.00 376.37,35.00 377.98,35.00 379.55,35.00 381.11,35.00 382.68,35.00 384.26,35.00 385.87,35.00 387.47,35.00 389.03,35.00 390.61,35.00 392.18,35.00 393.74,35.00 395.32,35.00 396.89,35.00 398.49,35.00 400.05,35.00 401.61,35.00 403.20,35.00 404.77,35.00 406.34,35.00 407.91,35.00 409.51,35.00 411.08,35.00 412.64,35.00 414.20,35.00 415.76,35.00 417.34,35.00 418.91,35.00 420.47,35.00 422.04,35.00 423.59,35.00 425.16,35.00 426.74,35.00 428.32,35.00 429.90,35.00 431.49,35.00 433.06,35.00 434.65,35.00 436.21,35.00 437.79,35.00 439.36,35.00 440.93,35.00 442.50,35.00 444.11,35.00 445.68,35.00 447.26,35.00 448.83,35.00 450.40,35.00 451.98,35.00 453.53,35.00 455.10,35.00 456.68,35.00 458.25,35.00 459.83,35.00 461.40,35.00 462.98,35.00 464.55,35.00 466.13,35.00 467.71,35.00 469.30,35.00 470.86,35.00 472.43,35.00 474.01,35.00 475.60,35.00 477.18,35.00 478.75,35.00 480.32,35.00 482.06,35.00 483.64,35.00 485.22,35.00 486.79,35.00 488.38,35.00 489.96,35.00 491.53,35.00 493.11,35.00 494.67,35.00 496.29,35.00 497.88,35.00 499.44,35.00 501.01,35.00 502.58,35.00 504.15,35.00 505.73,35.00 507.36,35.00 508.93,35.00 510.50,35.00 512.09,35.00 513.79,35.00 515.36,35.00 517.34,35.00 520.00,35.00 521.61,35.00 523.22,35.00 524.78,35.00 526.32,35.00 527.89,35.00 529.48,35.00 531.06,35.00 532.65,35.00 534.28,35.00 535.91,35.00 537.57,35.00 539.15,35.00 540.73,35.00 542.30,35.00 543.89,35.00 545.49,35.00 547.07,35.00 548.64,35.00 550.21,35.00 551.84,35.00 553.43,35.00 554.98,35.00 556.56,35.00 558.15,35.00 559.79,35.00 561.37,35.00 562.94,35.00 564.56,35.00 566.07,35.00 567.63,35.00 569.23,35.00 570.80,35.00 572.39,35.00 574.01,35.00 575.59,35.00 577.16,35.00 578.75,35.00 580.34,35.00 581.92,35.00 583.48,35.00 585.04,35.00 586.63,35.00 588.20,35.00 589.76,35.00 591.64,35.00 593.49,35.00 595.35,35.00 597.18,35.00 598.97,35.00 600.79,35.00 602.65,35.00 604.48,35.00 606.06,35.00 607.61,35.00 609.18,35.00 610.75,35.00 612.32,35.00 613.88,35.00 615.44,35.00 617.01,35.00 618.58,35.00 620.15,35.00 621.72,35.00 623.28,35.00 624.85,35.00 626.41,35.00 627.98,35.00 629.54,35.00 631.11,35.00 632.67,35.00 634.25,35.00 635.83,35.00 637.38,35.00 638.94,35.00 640.50,35.00 642.07,35.00 643.65,35.00 645.22,35.00 646.78,35.00 648.36,35.00 649.93,35.00 651.49,35.00 653.06,35.00 654.63,35.00 656.19,35.00 657.76,35.00 659.31,35.00 660.86,35.00 662.42,35.00 663.99,35.00 665.55,35.00 667.11,35.00 668.67,35.00 670.24,35.00 671.80,35.00 673.35,35.00 674.89,35.00 676.52,35.00 678.21,35.00 679.78,35.00 681.36,35.00 682.92,35.00 684.48,35.00 686.04,35.00 687.60,35.00 689.16,35.00 691.02,35.00 692.86,35.00 694.68,35.00 696.53,35.00 698.38,35.00 700.21,35.00 702.08,35.00 703.99,35.00 705.70,35.00 707.39,35.00 708.96,35.00 710.55,35.00 712.12,35.00 713.68,35.00 715.24,35.00 716.81,35.00 718.38,35.00 719.95,35.00 721.50,35.00 723.08,35.00 724.65,35.00 726.22,35.00 727.81,35.00 729.37,35.00 730.94,35.00 732.31,35.00 733.93,35.00 735.50,35.00 737.11,35.00 738.68,35.00 740.24,35.00 741.82,35.00 743.40,35.00 744.98,35.00 746.57,35.00 748.15,35.00 749.75,35.00 751.31,35.00 752.86,35.00 754.44,35.00 755.99,35.00 757.56,35.00 759.11,35.00 760.70,35.00 762.27,35.00 763.84,35.00 765.41,35.00 766.97,35.00 768.55,35.00 770.12,35.00 771.70,35.00 773.28,35.00 774.85,35.00 776.41,35.00 778.00,35.00 779.57,35.00 781.19,35.00 782.75,35.00 784.31,35.00 785.88,35.00 787.43,35.00 789.00,35.00 790.59,35.00 792.15,35.00 793.71,35.00 795.28,35.00 796.84,35.00 798.41,35.00 799.99,35.00 801.57,35.00 803.14,35.00 805.03,35.00 806.65,35.00 808.26,35.00 809.84,35.00 811.41,35.00 813.01,35.00 814.56,35.00 816.12,35.00 817.71,35.00 819.30,35.00 820.86,35.00 822.44,35.00 824.02,35.00 825.58,35.00 827.21,35.00 828.81,35.00 830.38,35.00 831.96,35.00 833.53,35.00 835.10,35.00 836.66,35.00 838.23,35.00 839.87,35.00 841.45,35.00 843.03,35.00 844.60,35.00 846.17,35.00 847.75,35.00 849.32,35.00 850.89,35.00 852.47,35.00 854.05,35.00 855.62,35.00 857.20,35.00 858.76,35.00 860.33,35.00 861.90,35.00 863.50,35.00 865.08,35.00 866.64,35.00 868.21,35.00 869.78,35.00 871.38,35.00 872.95,35.00 874.84,35.00 876.46,35.00 878.03,35.00 879.61,35.00 881.17,35.00 882.75,35.00 884.32,35.00 885.90,35.00 887.50,35.00 889.07,35.00 890.64,35.00 892.20,35.00 893.77,35.00 895.34,35.00 896.91,35.00 898.49,35.00 900.06,35.00 901.62,35.00 903.19,35.00 904.76,35.00 906.35,35.00 907.91,35.00 909.48,35.00 911.07,35.00 912.66,35.00 914.22,35.00 915.79,35.00 917.37,35.00 918.99,35.00 920.54,35.00 922.12,35.00 923.71,35.00 925.28,35.00 926.84,35.00 928.42,35.00 930.00,35.00 931.61,35.00 933.18,35.00 934.75,35.00 936.30,35.00 937.87,35.00 939.44,35.00 941.02,35.00 942.59,35.00 944.17,35.00 945.77,35.00 947.35,35.00 948.89,35.00 950.48,35.00 952.04,35.00 953.62,35.00 955.18,35.00 956.76,35.00 958.32,35.00 959.92,35.00 961.49,35.00 963.06,35.00 964.65,35.00 966.23,35.00 967.81,35.00 969.39,35.00 970.97,35.00 972.74,35.00 974.47,35.00 976.15,35.00 977.74,35.00 979.38,35.00 980.96,35.00 982.54,35.00 984.09,35.00 985.56,35.00 987.20,35.00 988.78,35.00 990.37,35.00 991.92,35.00 993.50,35.00 995.06,35.00 996.65,35.00 998.21,35.00 999.79,35.00 1001.36,35.00 1002.94,35.00 1004.52,35.00 1006.10,35.00 1007.69,35.00 1009.28,35.00 1010.85,35.00 1012.43,35.00 1014.01,35.00 1015.61,35.00 1017.19,35.00 1018.75,35.00 1020.32,35.00 1021.90,35.00 1023.46,35.00 1025.03,35.00 1026.61,35.00 1028.18,35.00 1029.78,35.00 1031.34,35.00 1032.91,35.00 1034.49,35.00 1036.07,35.00 1037.65,35.00 1039.23,35.00 1040.80,35.00 1042.37,35.00 1043.95,35.00 1045.54,35.00 1047.12,35.00 1048.71,35.00 1050.28,35.00 1051.86,35.00 1053.44,35.00 1055.01,35.00 1056.61,35.00 1058.23,35.00 1059.80,35.00 1061.39,35.00 1062.96,35.00 1064.53,35.00 1066.11,35.00 1067.68,35.00 1069.27,35.00 1070.85,35.00 1072.42,35.00 1074.00,35.00 1075.58,35.00 1077.16,35.00 1078.75,35.00 1080.33,35.00 1081.92,35.00 1083.50,35.00 1085.08,35.00 1086.68,35.00 1088.25,35.00 1089.82,35.00 1091.41,35.00 1092.98,35.00 1094.60,35.00 1096.18,35.00 1097.77,35.00 1099.35,35.00 1100.91,35.00 1102.49,35.00 1104.06,35.00 1105.64,35.00 1107.23,35.00 1108.80,35.00 1110.37,35.00 1111.95,35.00 1113.53,35.00 1115.12,35.00 1116.70,35.00 1118.26,35.00 1119.86,35.00 1121.44,35.00 1123.02,35.00 1124.60,35.00 1126.17,35.00 1127.74,35.00 1129.30,35.00 1130.88,35.00 1132.46,35.00 1134.05,35.00 1135.63,35.00 1137.22,35.00 1138.79,35.00 1140.38,35.00 1141.97,35.00 1143.54,35.00 1145.12,35.00 1146.72,35.00 1148.29,35.00 1149.87,35.00 1151.46,35.00 1153.05,35.00 1154.64,35.00 1156.21,35.00 1157.83,35.00 1159.42,35.00 1161.00,35.00 1162.58,35.00 1164.15,35.00 1165.74,35.00 1167.33,35.00 1168.92,35.00 1170.50,35.00 1172.08,35.00 1173.65,35.00 1175.22,35.00 1176.84,35.00 1178.41,35.00 1180.00,35.00"/>
<rect x="70" y="332" width="12" height="12" fill="#2ca02c" fill-opacity="0.95"/>
<text x="88" y="342" font-size="11" fill="#333" font-family="Arial, Helvetica, sans-serif">nsc1.utdallas.edu</text>
<rect x="350" y="332" width="12" height="12" fill="#2ca02c" fill-opacity="0.80"/>
<text x="368" y="342" font-size="11" fill="#333" font-family="Arial, Helvetica, sans-serif">nsc2.utdallas.edu</text>
<rect x="630" y="332" width="12" height="12" fill="#2ca02c" fill-opacity="0.65"/>
<text x="648" y="342" font-size="11" fill="#333" font-family="Arial, Helvetica, sans-serif">nsc3.utdallas.edu</text>
<rect x="910" y="332" width="12" height="12" fill="#2ca02c" fill-opacity="0.50"/>
<text x="928" y="342" font-size="11" fill="#333" font-family="Arial, Helvetica, sans-serif">nsc4.utdallas.edu</text>
</svg>