<?xml version="1.0" encoding="UTF-8"?>
<svg xmlns="http://www.w3.org/2000/svg" width="1200" height="360" viewBox="0 0 1200 360" role="img" aria-label="Mumax3 Health (%)">
<rect width="100%" height="100%" fill="#ffffff"/>
<text x="600.0" y="22" text-anchor="middle" font-size="16" font-family="Arial, Helvetica, sans-serif" font-weight="bold">Mumax3 Health (%)</text>
<line x1="70" y1="35.00" x2="1180" y2="35.00" stroke="#e3e3e3" stroke-width="1"/>
<text x="62" y="39.00" text-anchor="end" font-size="11" fill="#444" font-family="Arial, Helvetica, sans-serif">100</text>
<line x1="70" y1="89.00" x2="1180" y2="89.00" stroke="#e3e3e3" stroke-width="1"/>
<text x="62" y="93.00" text-anchor="end" font-size="11" fill="#444" font-family="Arial, Helvetica, sans-serif">80</text>
<line x1="70" y1="143.00" x2="1180" y2="143.00" stroke="#e3e3e3" stroke-width="1"/>
<text x="62" y="147.00" text-anchor="end" font-size="11" fill="#444" font-family="Arial, Helvetica, sans-serif">60</text>
<line x1="70" y1="197.00" x2="1180" y2="197.00" stroke="#e3e3e3" stroke-width="1"/>
<text x="62" y="201.00" text-anchor="end" font-size="11" fill="#444" font-family="Arial, Helvetica, sans-serif">40</text>
<line x1="70" y1="251.00" x2="1180" y2="251.00" stroke="#e3e3e3" stroke-width="1"/>
<text x="62" y="255.00" text-anchor="end" font-size="11" fill="#444" font-family="Arial, Helvetica, sans-serif">20</text>
<line x1="70" y1="305.00" x2="1180" y2="305.00" stroke="#e3e3e3" stroke-width="1"/>
<text x="62" y="309.00" text-anchor="end" font-size="11" fill="#444" font-family="Arial, Helvetica, sans-serif">0</text>
<line x1="70" y1="35" x2="70" y2="305" stroke="#999"/>
<line x1="70" y1="305" x2="1180" y2="305" stroke="#999"/>
<text x="70.00" y="323" text-anchor="middle" font-size="10" fill="#444" font-family="Arial, Helvetica, sans-serif">2026-02-11 16:38</text>
<text x="347.50" y="323" text-anchor="middle" font-size="10" fill="#444" font-family="Arial, Helvetica, sans-serif">2026-02-13 01:26</text>
<text x="625.00" y="323" text-anchor="middle" font-size="10" fill="#444" font-family="Arial, Helvetica, sans-serif">2026-02-14 10:15</text>
<text x="902.50" y="323" text-anchor="middle" font-size="10" fill="#444" font-family="Arial, Helvetica, sans-serif">2026-02-15 19:04</text>
<text x="1180.00" y="323" text-anchor="middle" font-size="10" fill="#444" font-family="Arial, Helvetica, sans-serif">2026-02-17 03:53</text>
<polyline fill="none" stroke="#2ca02c" stroke-opacity="0.95" stroke-width="2" points="70.76,35.00 71.52,35.00 72.28,35.00 73.04,35.00 73.80,35.00 74.55,35.00 75.32,35.00 76.14,35.00 76.89,35.00 77.65,35.00 78.40,35.00 79.17,35.00 79.92,35.00 80.68,35.00 82.04,35.00 83.22,35.00 83.99,35.00 84.76,35.00 85.52,35.00 86.28,35.00 87.02,35.00 87.78,35.00 88.54,35.00 89.30,35.00 90.07,35.00 90.84,35.00 91.60,35.00 92.36,35.00 93.16,35.00 93.92,35.00 94.68,35.00 95.46,35.00 96.22,35.00 96.98,35.00 97.76,35.00 98.51,35.00 99.27,35.00 100.04,35.00 100.79,35.00 101.55,35.00 102.30,35.00 103.05,35.00 103.82,35.00 104.57,35.00 105.34,35.00 106.11,35.00 106.86,35.00 107.62,35.00 108.38,35.00 109.14,35.00 110.01,35.00 110.77,35.00 111.52,35.00 112.27,35.00 113.03,35.00 113.78,35.00 114.53,35.00 115.30,35.00 116.05,35.00 116.82,35.00 117.58,35.00 118.33,35.00 119.09,35.00 119.86,35.00 120.62,35.00 121.38,35.00 122.13,35.00 122.88,35.00 123.63,35.00 124.39,35.00 125.14,35.00 125.90,35.00 126.65,35.00 127.41,35.00 128.17,35.00 128.92,35.00 129.68,35.00 130.44,35.00 131.19,35.00 131.97,35.00 132.72,35.00 133.48,35.00 134.24,35.00 135.00,35.00 135.76,35.00 136.52,35.00 137.26,35.00 138.02,35.00 138.78,35.00 139.54,35.00 140.30,35.00 141.07,35.00 141.81,35.00 142.57,35.00 143.33,35.00 144.08,35.00 144.84,35.00 145.59,35.00 146.35,35.00 147.11,35.00 147.87,35.00 148.63,35.00 149.39,35.00 150.15,35.00 150.92,35.00 151.67,35.00 152.43,35.00 153.18,35.00 153.94,35.00 154.70,35.00 155.46,35.00 156.22,35.00 156.98,35.00 157.74,35.00 158.50,35.00 159.26,35.00 160.03,35.00 160.79,35.00 161.54,35.00 162.30,35.00 163.06,35.00 163.82,35.00 164.58,35.00 165.40,35.00 166.15,35.00 166.92,35.00 167.68,35.00 168.43,35.00 169.18,35.00 169.93,35.00 170.68,35.00 171.44,35.00 172.20,35.00 172.95,35.00 173.71,35.00 174.47,35.00 175.22,35.00 175.99,35.00 176.74,35.00 177.50,35.00 178.25,35.00 179.01,35.00 179.77,35.00 180.53,35.00 181.29,35.00 182.05,35.00 182.81,35.00 183.56,35.00 184.31,35.00 185.07,35.00 185.83,35.00 186.58,35.00 187.34,35.00 188.11,35.00 188.87,35.00 189.62,35.00 190.39,35.00 191.15,35.00 191.90,35.00 192.66,35.00 193.42,35.00 194.19,35.00 194.96,35.00 195.71,35.00 196.47,35.00 197.22,35.00 197.98,35.00 198.73,35.00 199.49,35.00 200.25,35.00 200.99,35.00 201.75,35.00 202.51,35.00 203.27,35.00 204.03,35.00 204.79,35.00 205.57,35.00 206.32,35.00 207.08,35.00 207.83,35.00 208.58,35.00 209.41,35.00 210.18,35.00 210.94,35.00 211.69,35.00 212.44,35.00 213.20,35.00 213.95,35.00 214.71,35.00 215.48,35.00 216.23,35.00 216.98,35.00 217.74,35.00 218.52,35.00 219.27,35.00 220.03,35.00 220.78,35.00 221.55,35.00 222.32,35.00 223.10,35.00 223.85,35.00 224.61,35.00 225.37,35.00 226.12,35.00 226.88,35.00 227.64,35.00 228.41,35.00 229.16,35.00 229.91,35.00 230.68,35.00 231.44,35.00 232.19,35.00 232.95,35.00 233.72,35.00 234.48,35.00 235.23,35.00 235.98,35.00 236.74,35.00 237.50,35.00 238.25,35.00 239.01,35.00 239.76,35.00 240.51,35.00 241.27,35.00 242.03,35.00 242.79,35.00 243.55,35.00 244.32,35.00 245.08,35.00 245.84,35.00 246.60,35.00 247.36,35.00 248.11,35.00 248.87,35.00 249.63,35.00 250.41,35.00 251.17,35.00 251.93,35.00 252.69,35.00 253.44,35.00 254.20,35.00 254.95,35.00 255.71,35.00 256.47,35.00 257.23,35.00 257.99,35.00 258.75,35.00 259.51,35.00 260.27,35.00 261.02,35.00 261.79,35.00 262.55,35.00 263.31,35.00 264.06,35.00 264.83,35.00 265.59,35.00 266.35,35.00 267.11,35.00 267.87,35.00 268.71,35.00 269.47,35.00 270.23,35.00 270.99,35.00 271.75,35.00 272.52,35.00 273.27,35.00 274.04,35.00 274.79,35.00 275.57,35.00 276.34,35.00 277.09,35.00 277.85,35.00 278.60,35.00 279.36,35.00 280.12,35.00 280.91,35.00 281.67,35.00 282.42,35.00 283.19,35.00 284.01,35.00 284.77,35.00 285.72,35.00 287.00,35.00 287.78,35.00 288.55,35.00 289.31,35.00 290.05,35.00 290.81,35.00 291.58,35.00 292.34,35.00 293.10,35.00 293.89,35.00 294.68,35.00 295.48,35.00 296.24,35.00 297.00,35.00 297.76,35.00 298.53,35.00 299.29,35.00 300.06,35.00 300.81,35.00 301.57,35.00 302.36,35.00 303.12,35.00 303.87,35.00 304.63,35.00 305.40,35.00 306.19,35.00 306.95,35.00 307.71,35.00 308.49,35.00 309.22,35.00 309.97,35.00 310.75,35.00 311.50,35.00 312.27,35.00 313.05,35.00 313.81,35.00 314.57,35.00 315.34,35.00 316.10,35.00 316.86,35.00 317.62,35.00 318.37,35.00 319.13,35.00 319.89,35.00 320.65,35.00 321.55,35.00 322.44,35.00 323.34,35.00 324.22,35.00 325.09,35.00 325.96,35.00 326.86,35.00 327.74,35.00 328.50,35.00 329.25,35.00 330.01,35.00 330.77,35.00 331.52,35.00 332.28,35.00 333.03,35.00 333.78,35.00 334.54,35.00 335.30,35.00 336.06,35.00 336.81,35.00 337.57,35.00 338.32,35.00 339.07,35.00 339.83,35.00 340.59,35.00 341.34,35.00 342.10,35.00 342.86,35.00 343.61,35.00 344.36,35.00 345.12,35.00 345.87,35.00 346.63,35.00 347.39,35.00 348.14,35.00 348.90,35.00 349.66,35.00 350.41,35.00 351.17,35.00 351.93,35.00 352.68,35.00 353.44,35.00 354.18,35.00 354.93,35.00 355.69,35.00 356.44,35.00 357.19,35.00 357.95,35.00 358.70,35.00 359.46,35.00 360.20,35.00 360.95,35.00 361.70,35.00 362.48,35.00 363.30,35.00 364.06,35.00 364.82,35.00 365.57,35.00 366.32,35.00 367.07,35.00 367.82,35.00 368.58,35.00 369.47,35.00 370.36,35.00 371.24,35.00 372.13,35.00 373.02,35.00 373.91,35.00 374.81,35.00 375.73,35.00 376.56,35.00 377.37,35.00 378.13,35.00 378.89,35.00 379.65,35.00 380.40,35.00 381.16,35.00 381.91,35.00 382.67,35.00 383.42,35.00 384.18,35.00 384.93,35.00 385.69,35.00 386.45,35.00 387.22,35.00 387.97,35.00 388.72,35.00 389.39,35.00 390.17,35.00 390.92,35.00 391.70,35.00 392.46,35.00 393.21,35.00 393.97,35.00 394.74,35.00 395.50,35.00 396.26,35.00 397.02,35.00 397.80,35.00 398.55,35.00 399.30,35.00 400.06,35.00 400.81,35.00 401.56,35.00 402.31,35.00 403.08,35.00 403.83,35.00 404.59,35.00 405.35,35.00 406.10,35.00 406.86,35.00 407.62,35.00 408.38,35.00 409.14,35.00 409.90,35.00 410.65,35.00 411.42,35.00 412.18,35.00 412.96,35.00 413.71,35.00 414.46,35.00 415.22,35.00 415.97,35.00 416.72,35.00 417.49,35.00 418.24,35.00 418.99,35.00 419.75,35.00 420.51,35.00 421.26,35.00 422.02,35.00 422.79,35.00 423.54,35.00 424.46,35.00 425.23,35.00 426.01,35.00 426.77,35.00 427.53,35.00 428.30,35.00 429.05,35.00 429.80,35.00 430.57,35.00 431.33,35.00 432.09,35.00 432.85,35.00 433.61,35.00 434.37,35.00 435.15,35.00 435.92,35.00 436.68,35.00 437.44,35.00 438.20,35.00 438.95,35.00 439.71,35.00 440.47,35.00 441.26,35.00 442.02,35.00 442.78,35.00 443.54,35.00 444.29,35.00 445.06,35.00 445.81,35.00 446.57,35.00 447.33,35.00 448.09,35.00 448.85,35.00 449.61,35.00 450.37,35.00 451.12,35.00 451.88,35.00 452.65,35.00 453.41,35.00 454.17,35.00 454.92,35.00 455.68,35.00 456.45,35.00 457.21,35.00 458.12,35.00 458.90,35.00 459.66,35.00 460.42,35.00 461.17,35.00 461.93,35.00 462.69,35.00 463.45,35.00 464.23,35.00 464.98,35.00 465.74,35.00 466.49,35.00 467.25,35.00 468.01,35.00 468.76,35.00 469.53,35.00 470.28,35.00 471.03,35.00 471.79,35.00 472.55,35.00 473.31,35.00 474.07,35.00 474.82,35.00 475.59,35.00 476.36,35.00 477.11,35.00 477.87,35.00 478.63,35.00 479.41,35.00 480.16,35.00 480.92,35.00 481.68,35.00 482.44,35.00 483.20,35.00 483.96,35.00 484.72,35.00 485.50,35.00 486.25,35.00 487.01,35.00 487.76,35.00 488.51,35.00 489.27,35.00 490.03,35.00 490.79,35.00 491.55,35.00 492.32,35.00 493.09,35.00 493.83,35.00 494.60,35.00 495.35,35.00 496.11,35.00 496.86,35.00 497.62,35.00 498.38,35.00 499.15,35.00 499.90,35.00 500.66,35.00 501.43,35.00 502.19,35.00 502.95,35.00 503.71,35.00 504.48,35.00 505.33,35.00 506.16,35.00 506.98,35.00 507.74,35.00 508.53,35.00 509.29,35.00 510.05,35.00 510.80,35.00 511.51,35.00 512.30,35.00 513.06,35.00 513.83,35.00 514.58,35.00 515.34,35.00 516.09,35.00 516.86,35.00 517.61,35.00 518.37,35.00 519.13,35.00 519.89,35.00 520.65,35.00 521.42,35.00 522.18,35.00 522.95,35.00 523.71,35.00 524.47,35.00 525.23,35.00 526.00,35.00 526.77,35.00 527.52,35.00 528.27,35.00 529.03,35.00 529.79,35.00 530.55,35.00 531.31,35.00 532.07,35.00 532.84,35.00 533.59,35.00 534.35,35.00 535.11,35.00 535.87,35.00 536.63,35.00 537.39,35.00 538.15,35.00 538.91,35.00 539.67,35.00 540.43,35.00 541.20,35.00 541.96,35.00 542.72,35.00 543.48,35.00 544.25,35.00 545.00,35.00 545.77,35.00 546.56,35.00 547.31,35.00 548.08,35.00 548.84,35.00 549.59,35.00 550.35,35.00 551.11,35.00 551.88,35.00 552.64,35.00 553.40,35.00 554.16,35.00 554.92,35.00 555.68,35.00 556.45,35.00 557.21,35.00 557.98,35.00 558.74,35.00 559.51,35.00 560.28,35.00 561.03,35.00 561.79,35.00 562.55,35.00 563.32,35.00 564.09,35.00 564.86,35.00 565.62,35.00 566.39,35.00 567.14,35.00 567.90,35.00 568.66,35.00 569.42,35.00 570.18,35.00 570.94,35.00 571.70,35.00 572.46,35.00 573.22,35.00 573.99,35.00 574.75,35.00 575.51,35.00 576.28,35.00 577.04,35.00 577.80,35.00 578.56,35.00 579.32,35.00 580.07,35.00 580.83,35.00 581.59,35.00 582.35,35.00 583.12,35.00 583.88,35.00 584.65,35.00 585.40,35.00 586.17,35.00 586.94,35.00 587.69,35.00 588.46,35.00 589.23,35.00 589.99,35.00 590.75,35.00 591.51,35.00 592.28,35.00 593.05,35.00 593.81,35.00 594.58,35.00 595.35,35.00 596.12,35.00 596.88,35.00 597.63,35.00 598.40,35.00 599.16,35.00 599.93,35.00 600.70,35.00 601.46,35.00 602.22,35.00 602.97,35.00 603.75,35.00 604.51,35.00 605.28,35.00 606.04,35.00 606.79,35.00 607.55,35.00 608.30,35.00 609.06,35.00 609.83,35.00 610.59,35.00 611.35,35.00 612.11,35.00 612.87,35.00 613.63,35.00 614.41,35.00 615.18,35.00 615.93,35.00 616.70,35.00 617.45,35.00 618.21,35.00 618.97,35.00 619.74,35.00 620.50,35.00 621.26,35.00 622.03,35.00 622.79,35.00 623.55,35.00 624.31,35.00 625.08,35.00 625.86,35.00 626.63,35.00 627.40,35.00 628.16,35.00 628.92,35.00 629.69,35.00 630.45,35.00 631.20,35.00 631.96,35.00 632.73,35.00 633.49,35.00 634.26,35.00 635.02,35.00 635.79,35.00 636.58,35.00 637.34,35.00 638.10,35.00 638.87,35.00 639.63,35.00 640.39,35.00 641.16,35.00 641.93,35.00 642.69,35.00 643.46,35.00 644.23,35.00 644.99,35.00 645.76,35.00 646.52,35.00 647.28,35.00 648.04,35.00 648.80,35.00 649.57,35.00 650.34,35.00 651.10,35.00 651.86,35.00 652.62,35.00 653.39,35.00 654.15,35.00 654.92,35.00 655.68,35.00 656.47,35.00 657.23,35.00 658.00,35.00 658.77,35.00 659.55,35.00 660.32,35.00 661.10,35.00 661.88,35.00 662.66,35.00 663.43,35.00 664.19,35.00 664.95,35.00 665.72,35.00 666.48,35.00 667.25,35.00 668.03,35.00 668.79,35.00 669.55,35.00 670.32,35.00 671.07,35.00 671.83,35.00 672.60,35.00 673.36,35.00 674.12,35.00 674.88,35.00 675.64,35.00 676.40,35.00 677.15,35.00 677.91,35.00 678.68,35.00 679.45,35.00 680.20,35.00 680.97,35.00 681.74,35.00 682.50,35.00 683.26,35.00 684.03,35.00 684.79,35.00 685.55,35.00 686.30,35.00 687.07,35.00 687.84,35.00 688.59,35.00 689.34,35.00 690.10,35.00 690.86,35.00 691.63,35.00 692.39,35.00 693.15,35.00 693.91,35.00 694.67,35.00 695.43,35.00 696.20,35.00 696.96,35.00 697.70,35.00 698.46,35.00 699.21,35.00 699.97,35.00 700.73,35.00 701.51,35.00 702.27,35.00 703.03,35.00 703.79,35.00 704.57,35.00 705.33,35.00 706.09,35.00 706.86,35.00 707.62,35.00 708.38,35.00 709.15,35.00 709.91,35.00 710.69,35.00 711.45,35.00 712.21,35.00 712.97,35.00 713.73,35.00 714.49,35.00 715.25,35.00 716.01,35.00 716.76,35.00 717.52,35.00 718.29,35.00 719.05,35.00 719.81,35.00 720.57,35.00 721.33,35.00 722.09,35.00 722.85,35.00 723.62,35.00 724.38,35.00 725.14,35.00 725.90,35.00 726.67,35.00 727.43,35.00 728.19,35.00 728.95,35.00 729.71,35.00 730.47,35.00 731.24,35.00 732.01,35.00 732.76,35.00 733.52,35.00 734.28,35.00 735.07,35.00 735.83,35.00 736.61,35.00 737.38,35.00 738.14,35.00 738.90,35.00 739.67,35.00 740.43,35.00 741.20,35.00 741.95,35.00 742.72,35.00 743.50,35.00 744.27,35.00 745.03,35.00 745.79,35.00 746.55,35.00 747.32,35.00 748.08,35.00 748.84,35.00 749.60,35.00 750.36,35.00 751.12,35.00 751.88,35.00 752.64,35.00 753.41,35.00 754.16,35.00 754.92,35.00 755.68,35.00 756.44,35.00 757.20,35.00 757.98,35.00 758.73,35.00 759.49,35.00 760.25,35.00 761.02,35.00 761.77,35.00 762.54,35.00 763.30,35.00 764.07,35.00 764.83,35.00 765.59,35.00 766.35,35.00 767.11,35.00 767.87,35.00 768.63,35.00 769.40,35.00 770.18,35.00 770.95,35.00 771.73,35.00 772.51,35.00 773.29,35.00 774.07,35.00 774.84,35.00 775.64,35.00 776.41,35.00 777.19,35.00 777.95,35.00 778.71,35.00 779.48,35.00 780.25,35.00 781.01,35.00 781.78,35.00 782.54,35.00 783.31,35.00 784.07,35.00 784.83,35.00 785.59,35.00 786.35,35.00 787.11,35.00 787.87,35.00 788.63,35.00 789.39,35.00 790.16,35.00 790.92,35.00 791.69,35.00 792.46,35.00 793.22,35.00 793.98,35.00 794.74,35.00 795.50,35.00 796.26,35.00 797.03,35.00 797.79,35.00 798.55,35.00 799.32,35.00 800.07,35.00 800.84,35.00 801.60,35.00 802.36,35.00 803.13,35.00 803.94,35.00 804.73,35.00 805.48,35.00 806.25,35.00 807.00,35.00 807.78,35.00 808.55,35.00 809.32,35.00 810.08,35.00 810.83,35.00 811.58,35.00 812.35,35.00 813.10,35.00 813.87,35.00 814.63,35.00 815.39,35.00 816.16,35.00 816.93,35.00 817.69,35.00 818.45,35.00 819.21,35.00 819.97,35.00 820.74,35.00 821.50,35.00 822.26,35.00 823.02,35.00 823.79,35.00 824.55,35.00 825.31,35.00 826.11,35.00 826.87,35.00 827.63,35.00 828.39,35.00 829.16,35.00 829.92,35.00 830.69,35.00 831.45,35.00 832.21,35.00 832.98,35.00 833.74,35.00 834.51,35.00 835.28,35.00 836.05,35.00 836.81,35.00 837.57,35.00 838.33,35.00 839.09,35.00 839.86,35.00 840.61,35.00 841.39,35.00 842.15,35.00 842.91,35.00 843.67,35.00 844.43,35.00 845.20,35.00 845.96,35.00 846.72,35.00 847.48,35.00 848.24,35.00 849.01,35.00 849.76,35.00 850.53,35.00 851.29,35.00 852.05,35.00 852.82,35.00 853.58,35.00 854.34,35.00 855.09,35.00 855.85,35.00 856.61,35.00 857.38,35.00 858.14,35.00 858.92,35.00 859.69,35.00 860.45,35.00 861.22,35.00 861.98,35.00 862.75,35.00 863.57,35.00 864.35,35.00 865.12,35.00 865.89,35.00 866.66,35.00 867.42,35.00 868.18,35.00 868.94,35.00 869.71,35.00 870.47,35.00 871.24,35.00 872.00,35.00 872.76,35.00 873.54,35.00 874.31,35.00 875.07,35.00 875.83,35.00 876.59,35.00 877.36,35.00 878.13,35.00 878.88,35.00 879.65,35.00 880.42,35.00 881.18,35.00 881.94,35.00 882.71,35.00 883.48,35.00 884.24,35.00 885.01,35.00 885.78,35.00 886.55,35.00 887.30,35.00 888.07,35.00 888.84,35.00 889.59,35.00 890.35,35.00 891.12,35.00 891.87,35.00 892.64,35.00 893.41,35.00 894.16,35.00 894.93,35.00 895.69,35.00 896.46,35.00 897.22,35.00 897.98,35.00 898.74,35.00 899.52,35.00 900.29,35.00 901.03,35.00 901.77,35.00 902.53,35.00 903.30,35.00 904.06,35.00 904.83,35.00 905.60,35.00 906.36,35.00 907.13,35.00 907.90,35.00 908.66,35.00 909.43,35.00 910.18,35.00 910.94,35.00 911.69,35.00 912.45,35.00 913.22,35.00 913.98,35.00 914.74,35.00 915.50,35.00 916.26,35.00 917.02,35.00 917.79,35.00 918.55,35.00 919.30,35.00 920.06,35.00 920.80,35.00 921.58,35.00 922.34,35.00 923.10,35.00 923.87,35.00 924.64,35.00 925.40,35.00 926.16,35.00 926.93,35.00 927.69,35.00 928.45,35.00 929.21,35.00 930.04,35.00 930.79,35.00 931.57,35.00 932.33,35.00 933.10,35.00 933.85,35.00 934.62,35.00 935.39,35.00 936.14,35.00 936.91,35.00 937.66,35.00 938.43,35.00 939.19,35.00 939.96,35.00 940.73,35.00 941.49,35.00 942.25,35.00 943.01,35.00 943.77,35.00 944.54,35.00 945.31,35.00 946.08,35.00 946.86,35.00 947.63,35.00 948.39,35.00 949.15,35.00 949.92,35.00 950.69,35.00 951.45,35.00 952.21,35.00 952.97,35.00 953.73,35.00 954.49,35.00 955.26,35.00 956.03,35.00 956.79,35.00 957.55,35.00 958.32,35.00 959.07,35.00 959.83,35.00 960.59,35.00 961.36,35.00 962.11,35.00 962.88,35.00 963.64,35.00 964.40,35.00 965.15,35.00 965.91,35.00 966.67,35.00 967.43,35.00 968.19,35.00 968.95,35.00 969.71,35.00 970.46,35.00 971.22,35.00 971.98,35.00 972.75,35.00 973.51,35.00 974.26,35.00 975.02,35.00 975.78,35.00 976.55,35.00 977.31,35.00 978.07,35.00 978.83,35.00 979.63,35.00 980.38,35.00 981.15,35.00 981.92,35.00 982.68,35.00 983.45,35.00 984.21,35.00 984.98,35.00 985.74,35.00 986.50,35.00 987.25,35.00 988.01,35.00 988.78,35.00 989.54,35.00 990.30,35.00 991.06,35.00 991.82,35.00 992.58,35.00 993.34,35.00 994.10,35.00 994.87,35.00 995.67,35.00 996.43,35.00 997.18,35.00 997.94,35.00 998.69,35.00 999.47,35.00 1000.22,35.00 1000.99,35.00 1001.75,35.00 1002.51,35.00 1003.28,35.00 1004.04,35.00 1004.81,35.00 1005.57,35.00 1006.33,35.00 1007.09,35.00 1007.86,35.00 1008.62,35.00 1009.38,35.00 1010.13,35.00 1010.89,35.00 1011.65,35.00 1012.41,35.00 1013.17,35.00 1013.93,35.00 1014.69,35.00 1015.46,35.00 1016.22,35.00 1016.98,35.00 1017.74,35.00 1018.50,35.00 1019.26,35.00 1020.02,35.00 1020.79,35.00 1021.55,35.00 1022.31,35.00 1023.08,35.00 1023.83,35.00 1024.59,35.00 1025.35,35.00 1026.11,35.00 1026.87,35.00 1027.65,35.00 1028.41,35.00 1029.17,35.00 1029.93,35.00 1030.70,35.00 1031.46,35.00 1032.24,35.00 1033.01,35.00 1033.82,35.00 1034.58,35.00 1035.40,35.00 1036.16,35.00 1036.92,35.00 1037.67,35.00 1038.44,35.00 1039.20,35.00 1039.96,35.00 1040.72,35.00 1041.48,35.00 1042.24,35.00 1043.01,35.00 1043.76,35.00 1044.52,35.00 1045.28,35.00 1046.05,35.00 1046.80,35.00 1047.56,35.00 1048.32,35.00 1049.09,35.00 1049.85,35.00 1050.62,35.00 1051.37,35.00 1052.12,35.00 1052.89,35.00 1053.65,35.00 1054.42,35.00 1055.18,35.00 1055.94,35.00 1056.71,35.00 1057.47,35.00 1058.22,35.00 1058.98,35.00 1059.75,35.00 1060.50,35.00 1061.26,35.00 1062.02,35.00 1062.77,35.00 1063.53,35.00 1064.29,35.00 1065.05,35.00 1065.81,35.00 1066.58,35.00 1067.37,35.00 1068.14,35.00 1068.89,35.00 1069.65,35.00 1070.41,35.00 1071.16,35.00 1071.92,35.00 1072.68,35.00 1073.44,35.00 1074.20,35.00 1074.95,35.00 1075.71,35.00 1076.46,35.00 1077.23,35.00 1077.99,35.00 1078.74,35.00 1079.50,35.00 1080.27,35.00 1081.03,35.00 1081.79,35.00 1082.56,35.00 1083.31,35.00 1084.08,35.00 1084.84,35.00 1085.60,35.00 1086.36,35.00 1087.13,35.00 1087.89,35.00 1088.66,35.00 1089.42,35.00 1090.17,35.00 1090.94,35.00 1091.70,35.00 1092.46,35.00 1093.24,35.00 1094.00,35.00 1094.77,35.00 1095.54,35.00 1096.30,35.00 1097.06,35.00 1097.82,35.00 1098.58,35.00 1099.35,35.00 1100.11,35.00 1100.86,35.00 1101.63,35.00 1102.40,35.00 1103.16,35.00 1103.93,35.00 1104.70,35.00 1105.48,35.00 1106.29,35.00 1107.06,35.00 1107.82,35.00 1108.58,35.00 1109.33,35.00 1110.10,35.00 1110.86,35.00 1111.62,35.00 1112.39,35.00 1113.15,35.00 1113.92,35.00 1114.68,35.00 1115.43,35.00 1116.19,35.00 1116.96,35.00 1117.73,35.00 1118.50,35.00 1119.28,35.00 1120.05,35.00 1120.82,35.00 1121.61,35.00 1122.38,35.00 1123.19,35.00 1123.95,35.00 1124.72,35.00 1125.48,35.00 1126.24,35.00 1127.01,35.00 1127.77,35.00 1128.52,35.00 1129.29,35.00 1130.04,35.00 1130.81,35.00 1131.59,35.00 1132.35,35.00 1133.11,35.00 1133.89,35.00 1134.78,35.00 1135.54,35.00 1136.30,35.00 1137.05,35.00 1137.81,35.00 1138.56,35.00 1139.32,35.00 1140.02,35.00 1140.70,35.00 1141.53,35.00 1142.24,35.00 1142.94,35.00 1143.72,35.00 1144.38,35.00 1145.13,35.00 1145.90,35.00 1146.66,35.00 1147.42,35.00 1148.17,35.00 1148.93,35.00 1149.69,35.00 1150.45,35.00 1151.21,35.00 1151.97,35.00 1152.73,35.00 1153.49,35.00 1154.25,35.00 1155.00,35.00 1155.77,35.00 1156.52,35.00 1157.27,35.00 1158.03,35.00 1158.78,35.00 1159.55,35.00 1160.30,35.00 1161.06,35.00 1161.83,35.00 1162.59,35.00 1163.34,35.00 1164.10,35.00 1164.85,35.00 1165.61,35.00 1166.37,35.00 1167.12,35.00 1167.88,35.00 1168.64,35.00 1169.39,35.00 1170.15,35.00 1170.91,35.00 1171.67,35.00 1172.43,35.00 1173.19,35.00 1173.95,35.00 1174.70,35.00 1175.46,35.00 1176.23,35.00 1176.98,35.00 1177.74,35.00 1178.49,35.00 1179.24,35.00 1180.00,35.00"/>
<polyline fill="none" stroke="#2ca02c" stroke-opacity="0.80" stroke-width="2" points="70.00,35.00 70.76,35.00 71.52,35.00 72.28,35.00 73.04,35.00 73.80,35.00 74.55,35.00 75.32,35.00 76.14,35.00 76.89,35.00 77.65,35.00 78.40,35.00 79.17,35.00 79.92,35.00 80.68,35.00 82.04,35.00 83.22,35.00 83.99,35.00 84.76,35.00 85.52,35.00 86.28,35.00 87.02,35.00 87.78,35.00 88.54,35.00 89.30,35.00 90.07,35.00 90.84,35.00 91.60,35.00 92.36,35.00 93.16,35.00 93.92,35.00 94.68,35.00 95.46,35.00 96.22,35.00 96.98,35.00 97.76,35.00 98.51,35.00 99.27,35.00 100.04,35.00 100.79,35.00 101.55,35.00 102.30,35.00 103.05,35.00 103.82,35.00 104.57,35.00 105.34,35.00 106.11,35.00 106.86,35.00 107.62,35.00 108.38,35.00 109.14,35.00 110.01,35.00 110.77,35.00 111.52,35.00 112.27,35.00 113.03,35.00 113.78,35.00 114.53,35.00 115.30,35.00 116.05,35.00 116.82,35.00 117.58,35.00 118.33,35.00 119.09,35.00 119.86,35.00 120.62,35.00 121.38,35.00 122.13,35.00 122.88,35.00 123.63,35.00 124.39,35.00 125.14,35.00 125.90,35.00 126.65,35.00 127.41,35.00 128.17,35.00 128.92,35.00 129.68,35.00 130.44,35.00 131.19,35.00 131.97,35.00 132.72,35.00 133.48,35.00 134.24,35.00 135.00,35.00 135.76,35.00 136.52,35.00 137.26,35.00 138.02,35.00 138.78,35.00 139.54,35.00 140.30,35.00 141.07,35.00 141.81,35.00 142.57,35.00 143.33,35.00 144.08,35.00 144.84,35.00 145.59,35.00 146.35,35.00 147.11,35.00 147.87,35.00 148.63,35.00 149.39,35.00 150.15,35.00 150.92,35.00 151.67,35.00 152.43,35.00 153.18,35.00 153.94,35.00 154.70,35.00 155.46,35.00 156.22,35.00 156.98,35.00 157.74,35.00 158.50,35.00 159.26,35.00 160.03,35.00 160.79,35.00 161.54,35.00 162.30,35.00 163.06,35.00 163.82,35.00 164.58,35.00 165.40,35.00 166.15,35.00 166.92,35.00 167.68,35.00 168.43,35.00 169.18,35.00 169.93,35.00 170.68,35.00 171.44,35.00 172.20,35.00 172.95,35.00 173.71,35.00 174.47,35.00 175.22,35.00 175.99,35.00 176.74,35.00 177.50,35.00 178.25,35.00 179.01,35.00 179.77,35.00 180.53,35.00 181.29,35.00 182.05,35.00 182.81,35.00 183.56,35.00 184.31,35.00 185.07,35.00 185.83,35.00 186.58,35.00 187.34,35.00 188.11,35.00 188.87,35.00 189.62,35.00 190.39,35.00 191.15,35.00 191.90,35.00 192.66,35.00 193.42,35.00 194.19,35.00 194.96,35.00 195.71,35.00 196.47,35.00 197.22,35.00 197.98,35.00 198.73,35.00 199.49,35.00 200.25,35.00 200.99,35.00 201.75,35.00 202.51,35.00 203.27,35.00 204.03,35.00 204.79,35.00 205.57,35.00 206.32,35.00 207.08,35.00 207.83,35.00 208.58,35.00 209.41,35.00 210.18,35.00 210.94,35.00 211.69,35.00 212.44,35.00 213.20,35.00 213.95,35.00 214.71,35.00 215.48,35.00 216.23,35.00 216.98,35.00 217.74,35.00 218.52,35.00 219.27,35.00 220.03,35.00 220.78,35.00 221.55,35.00 222.32,35.00 223.10,35.00 223.85,35.00 224.61,35.00 225.37,35.00 226.12,35.00 226.88,35.00 227.64,35.00 228.41,35.00 229.16,35.00 229.91,35.00 230.68,35.00 231.44,35.00 232.19,35.00 232.95,35.00 233.72,35.00 234.48,35.00 235.23,35.00 235.98,35.00 236.74,35.00 237.50,35.00 238.25,35.00 239.01,35.00 239.76,35.00 240.51,35.00 241.27,35.00 242.03,35.00 242.79,35.00 243.55,35.00 244.32,35.00 245.08,35.00 245.84,35.00 246.60,35.00 247.36,35.00 248.11,35.00 248.87,35.00 249.63,35.00 250.41,35.00 251.17,35.00 251.93,35.00 252.69,35.00 253.44,35.00 254.20,35.00 254.95,35.00 255.71,35.00 256.47,35.00 257.23,35.00 257.99,35.00 258.75,35.00 259.51,35.00 260.27,35.00 261.02,35.00 261.79,35.00 262.55,35.00 263.31,35.00 264.06,35.00 264.83,35.00 265.59,35.00 266.35,35.00 267.11,35.00 267.87,35.00 268.71,35.00 269.47,35.00 270.23,35.00 270.99,35.00 271.75,35.00 272.52,35.00 273.27,35.00 274.04,35.00 274.79,35.00 275.57,35.00 276.34,35.00 277.09,35.00 277.85,35.00 278.60,35.00 279.36,35.00 280.12,35.00 280.91,35.00 281.67,35.00 282.42,35.00 283.19,35.00 284.01,35.00 284.77,35.00 285.72,35.00 287.00,35.00 287.78,35.00 288.55,35.00 289.31,35.00 290.05,35.00 290.81,35.00 291.58,35.00 292.34,35.00 293.10,35.00 293.89,35.00 294.68,35.00 295.48,35.00 296.24,35.00 297.00,35.00 297.76,35.00 298.53,35.00 299.29,35.00 300.06,35.00 300.81,35.00 301.57,35.00 302.36,35.00 303.12,35.00 303.87,35.00 304.63,35.00 305.40,35.00 306.19,35.00 306.95,35.00 307.71,35.00 308.49,35.00 309.22,35.00 309.97,35.00 310.75,35.00 311.50,35.00 312.27,35.00 313.05,35.00 313.81,35.00 314.57,35.00 315.34,35.00 316.10,35.00 316.86,35.00 317.62,35.00 318.37,35.00 319.13,35.00 319.89,35.00 320.65,35.00 321.55,35.00 322.44,35.00 323.34,35.00 324.22,35.00 325.09,35.00 325.96,35.00 326.86,35.00 327.74,35.00 328.50,35.00 329.25,35.00 330.01,35.00 330.77,35.00 331.52,35.00 332.28,35.00 333.03,35.00 333.78,35.00 334.54,35.00 335.30,35.00 336.06,35.00 336.81,35.00 337.57,35.00 338.32,35.00 339.07,35.00 339.83,35.00 340.59,35.00 341.34,35.00 342.10,35.00 342.86,35.00 343.61,35.00 344.36,35.00 345.12,35.00 345.87,35.00 346.63,35.00 347.39,35.00 348.14,35.00 348.90,35.00 349.66,35.00 350.41,35.00 351.17,35.00 351.93,35.00 352.68,35.00 353.44,35.00 354.18,35.00 354.93,35.00 355.69,35.00 356.44,35.00 357.19,35.00 357.95,35.00 358.70,35.00 359.46,35.00 360.20,35.00 360.95,35.00 361.70,35.00 362.48,35.00 363.30,35.00 364.06,35.00 364.82,35.00 365.57,35.00 366.32,35.00 367.07,35.00 367.82,35.00 368.58,35.00 369.47,35.00 370.36,35.00 371.24,35.00 372.13,35.00 373.02,35.00 373.91,35.00 374.81,35.00 375.73,35.00 376.56,35.00 377.37,35.00 378.13,35.00 378.89,35.00 379.65,35.00 380.40,35.00 381.16,35.00 381.91,35.00 382.67,35.00 383.42,35.00 384.18,35.00 384.93,35.00 385.69,35.00 386.45,35.00 387.22,35.00 387.97,35.00 388.72,35.00 389.39,35.00 390.17,35.00 390.92,35.00 391.70,35.00 392.46,35.00 393.21,35.00 393.97,35.00 394.74,35.00 395.50,35.00 396.26,35.00 397.02,35.00 397.80,35.00 398.55,35.00 399.30,35.00 400.06,35.00 400.81,35.00 401.56,35.00 402.31,35.00 403.08,35.00 403.83,35.00 404.59,35.00 405.35,35.00 406.10,35.00 406.86,35.00 407.62,35.00 408.38,35.00 409.14,35.00 409.90,35.00 410.65,35.00 411.42,35.00 412.18,35.00 412.96,35.00 413.71,35.00 414.46,35.00 415.22,35.00 415.97,35.00 416.72,35.00 417.49,35.00 418.24,35.00 418.99,35.00 419.75,35.00 420.51,35.00 421.26,35.00 422.02,35.00 422.79,35.00 423.54,35.00 424.46,35.00 425.23,35.00 426.01,35.00 426.77,35.00 427.53,35.00 428.30,35.00 429.05,35.00 429.80,35.00 430.57,35.00 431.33,35.00 432.09,35.00 432.85,35.00 433.61,35.00 434.37,35.00 435.15,35.00 435.92,35.00 436.68,35.00 437.44,35.00 438.20,35.00 438.95,35.00 439.71,35.00 440.47,35.00 441.26,35.00 442.02,35.00 442.78,35.00 443.54,35.00 444.29,35.00 445.06,35.00 445.81,35.00 446.57,35.00 447.33,35.00 448.09,35.00 448.85,35.00 449.61,35.00 450.37,35.00 451.12,35.00 451.88,35.00 452.65,35.00 453.41,35.00 454.17,35.00 454.92,35.00 455.68,35.00 456.45,35.00 457.21,35.00 458.12,35.00 458.90,35.00 459.66,35.00 460.42,35.00 461.17,35.00 461.93,35.00 462.69,35.00 463.45,35.00 464.23,35.00 464.98,35.00 465.74,35.00 466.49,35.00 467.25,35.00 468.01,35.00 468.76,35.00 469.53,35.00 470.28,35.00 471.03,35.00 471.79,35.00 472.55,35.00 473.31,35.00 474.07,35.00 474.82,35.00 475.59,35.00 476.36,35.00 477.11,35.00 477.87,35.00 478.63,35.00 479.41,35.00 480.16,35.00 480.92,35.00 481.68,35.00 482.44,35.00 483.20,35.00 483.96,35.00 484.72,35.00 485.50,35.00 486.25,35.00 487.01,35.00 487.76,35.00 488.51,35.00 489.27,35.00 490.03,35.00 490.79,35.00 491.55,35.00 492.32,35.00 493.09,35.00 493.83,35.00 494.60,35.00 495.35,35.00 496.11,35.00 496.86,35.00 497.62,35.00 498.38,35.00 499.15,35.00 499.90,35.00 500.66,35.00 501.43,35.00 502.19,35.00 502.95,35.00 503.71,35.00 504.48,35.00 505.33,35.00 506.16,35.00 506.98,35.00 507.74,35.00 508.53,35.00 509.29,35.00 510.05,35.00 510.80,35.00 511.51,35.00 512.30,35.00 513.06,35.00 513.83,35.00 514.58,35.00 515.34,35.00 516.09,35.00 516.86,35.00 517.61,35.00 518.37,35.00 519.13,35.00 519.89,35.00 520.65,35.00 521.42,35.00 522.18,35.00 522.95,35.00 523.71,35.00 524.47,35.00 525.23,35.00 526.00,35.00 526.77,35.00 527.52,35.00 528.27,35.00 529.03,35.00 529.79,35.00 530.55,35.00 531.31,35.00 532.07,35.00 532.84,35.00 533.59,35.00 534.35,35.00 535.11,35.00 535.87,35.00 536.63,35.00 537.39,35.00 538.15,35.00 538.91,35.00 539.67,35.00 540.43,35.00 541.20,35.00 541.96,35.00 542.72,35.00 543.48,35.00 544.25,35.00 545.00,35.00 545.77,35.00 546.56,35.00 547.31,35.00 548.08,35.00 548.84,35.00 549.59,35.00 550.35,35.00 551.11,35.00 551.88,35.00 552.64,35.00 553.40,35.00 554.16,35.00 554.92,35.00 555.68,35.00 556.45,35.00 557.21,35.00 557.98,35.00 558.74,35.00 559.51,35.00 560.28,35.00 561.03,35.00 561.79,35.00 562.55,35.00 563.32,35.00 564.09,35.00 564.86,35.00 565.62,35.00 566.39,35.00 567.14,35.00 567.90,35.00 568.66,35.00 569.42,35.00 570.18,35.00 570.94,35.00 571.70,35.00 572.46,35.00 573.22,35.00 573.99,35.00 574.75,35.00 575.51,35.00 576.28,35.00 577.04,35.00 577.80,35.00 578.56,35.00 579.32,35.00 580.07,35.00 580.83,35.00 581.59,35.00 582.35,35.00 583.12,35.00 583.88,35.00 584.65,35.00 585.40,35.00 586.17,35.00 586.94,35.00 587.69,35.00 588.46,35.00 589.23,35.00 589.99,35.00 590.75,35.00 591.51,35.00 592.28,35.00 593.05,35.00 593.81,35.00 594.58,35.00 595.35,35.00 596.12,35.00 596.88,35.00 597.63,35.00 598.40,35.00 599.16,35.00 599.93,35.00 600.70,35.00 601.46,35.00 602.22,35.00 602.97,35.00 603.75,35.00 604.51,35.00 605.28,35.00 606.04,35.00 606.79,35.00 607.55,35.00 608.30,35.00 609.06,35.00 609.83,35.00 610.59,35.00 611.35,35.00 612.11,35.00 612.87,35.00 613.63,35.00 614.41,35.00 615.18,35.00 615.93,35.00 616.70,35.00 617.45,35.00 618.21,35.00 618.97,35.00 619.74,35.00 620.50,35.00 621.26,35.00 622.03,35.00 622.79,35.00 623.55,35.00 624.31,35.00 625.08,35.00 625.86,35.00 626.63,35.00 627.40,35.00 628.16,35.00 628.92,35.00 629.69,35.00 630.45,35.00 631.20,35.00 631.96,35.00 632.73,35.00 633.49,35.00 634.26,35.00 635.02,35.00 635.79,35.00 636.58,35.00 637.34,35.00 638.10,35.00 638.87,35.00 639.63,35.00 640.39,35.00 641.16,35.00 641.93,35.00 642.69,35.00 643.46,35.00 644.23,35.00 644.99,35.00 645.76,35.00 646.52,35.00 647.28,35.00 648.04,35.00 648.80,35.00 649.57,35.00 650.34,35.00 651.10,35.00 651.86,35.00 652.62,35.00 653.39,35.00 654.15,35.00 654.92,35.00 655.68,35.00 656.47,35.00 657.23,35.00 658.00,35.00 658.77,35.00 659.55,35.00 660.32,35.00 661.10,35.00 661.88,35.00 662.66,35.00 663.43,35.00 664.19,35.00 664.95,35.00 665.72,35.00 666.48,35.00 667.25,35.00 668.03,35.00 668.79,35.00 669.55,35.00 670.32,35.00 671.07,35.00 671.83,35.00 672.60,35.00 673.36,35.00 674.12,35.00 674.88,35.00 675.64,35.00 676.40,35.00 677.15,35.00 677.91,35.00 678.68,35.00 679.45,35.00 680.20,35.00 680.97,35.00 681.74,35.00 682.50,35.00 683.26,35.00 684.03,35.00 684.79,35.00 685.55,35.00 686.30,35.00 687.07,35.00 687.84,35.00 688.59,35.00 689.34,35.00 690.10,35.00 690.86,35.00 691.63,35.00 692.39,35.00 693.15,35.00 693.91,35.00 694.67,35.00 695.43,35.00 696.20,35.00 696.96,35.00 697.70,35.00 698.46,35.00 699.21,35.00 699.97,35.00 700.73,35.00 701.51,35.00 702.27,35.00 703.03,35.00 703.79,35.00 704.57,35.00 705.33,35.00 706.09,35.00 706.86,35.00 707.62,35.00 708.38,35.00 709.15,35.00 709.91,35.00 710.69,35.00 711.45,35.00 712.21,35.00 712.97,35.00 713.73,35.00 714.49,35.00 715.25,35.00 716.01,35.00 716.76,35.00 717.52,35.00 718.29,35.00 719.05,35.00 719.81,35.00 720.57,35.00 721.33,35.00 722.09,35.00 722.85,35.00 723.62,35.00 724.38,35.00 725.14,35.00 725.90,35.00 726.67,35.00 727.43,35.00 728.19,35.00 728.95,35.00 729.71,35.00 730.47,35.00 731.24,35.00 732.01,35.00 732.76,35.00 733.52,35.00 734.28,35.00 735.07,35.00 735.83,35.00 736.61,35.00 737.38,35.00 738.14,35.00 738.90,35.00 739.67,35.00 740.43,35.00 741.20,35.00 741.95,35.00 742.72,35.00 743.50,35.00 744.27,35.00 745.03,35.00 745.79,35.00 746.55,35.00 747.32,35.00 748.08,35.00 748.84,35.00 749.60,35.00 750.36,35.00 751.12,35.00 751.88,35.00 752.64,35.00 753.41,35.00 754.16,35.00 754.92,35.00 755.68,35.00 756.44,35.00 757.20,35.00 757.98,35.00 758.73,35.00 759.49,35.00 760.25,35.00 761.02,35.00 761.77,35.00 762.54,35.00 763.30,35.00 764.07,35.00 764.83,35.00 765.59,35.00 766.35,35.00 767.11,35.00 767.87,35.00 768.63,35.00 769.40,35.00 770.18,35.00 770.95,35.00 771.73,35.00 772.51,35.00 773.29,35.00 774.07,35.00 774.84,35.00 775.64,35.00 776.41,35.00 777.19,35.00 777.95,35.00 778.71,35.00 779.48,35.00 780.25,35.00 781.01,35.00 781.78,35.00 782.54,35.00 783.31,35.00 784.07,35.00 784.83,35.00 785.59,35.00 786.35,35.00 787.11,35.00 787.87,35.00 788.63,35.00 789.39,35.00 790.16,35.00 790.92,35.00 791.69,35.00 792.46,35.00 793.22,35.00 793.98,35.00 794.74,35.00 795.50,35.00 796.26,35.00 797.03,35.00 797.79,35.00 798.55,35.00 799.32,35.00 800.07,35.00 800.84,35.00 801.60,35.00 802.36,35.00 803.13,35.00 803.94,35.00 804.73,35.00 805.48,35.00 806.25,35.00 807.00,35.00 807.78,35.00 808.55,35.00 809.32,35.00 810.08,35.00 810.83,35.00 811.58,35.00 812.35,35.00 813.10,35.00 813.87,35.00 814.63,35.00 815.39,35.00 816.16,35.00 816.93,35.00 817.69,35.00 818.45,35.00 819.21,35.00 819.97,35.00 820.74,35.00 821.50,35.00 822.26,35.00 823.02,35.00 823.79,35.00 824.55,35.00 825.31,35.00 826.11,35.00 826.87,35.00 827.63,35.00 828.39,35.00 829.16,35.00 829.92,35.00 830.69,35.00 831.45,35.00 832.21,35.00 832.98,35.00 833.74,35.00 834.51,35.00 835.28,35.00 836.05,35.00 836.81,35.00 837.57,35.00 838.33,35.00 839.09,35.00 839.86,35.00 840.61,35.00 841.39,35.00 842.15,35.00 842.91,35.00 843.67,35.00 844.43,35.00 845.20,35.00 845.96,35.00 846.72,35.00 847.48,35.00 848.24,35.00 849.01,35.00 849.76,35.00 850.53,35.00 851.29,35.00 852.05,35.00 852.82,35.00 853.58,35.00 854.34,35.00 855.09,35.00 855.85,35.00 856.61,35.00 857.38,35.00 858.14,35.00 858.92,35.00 859.69,35.00 860.45,35.00 861.22,35.00 861.98,35.00 862.75,35.00 863.57,35.00 864.35,35.00 865.12,35.00 865.89,35.00 866.66,35.00 867.42,35.00 868.18,35.00 868.94,35.00 869.71,35.00 870.47,35.00 871.24,35.00 872.00,35.00 872.76,35.00 873.54,35.00 874.31,35.00 875.07,35.00 875.83,35.00 876.59,35.00 877.36,35.00 878.13,35.00 878.88,35.00 879.65,35.00 880.42,35.00 881.18,35.00 881.94,35.00 882.71,35.00 883.48,35.00 884.24,35.00 885.01,35.00 885.78,35.00 886.55,35.00 887.30,35.00 888.07,35.00 888.84,35.00 889.59,35.00 890.35,35.00 891.12,35.00 891.87,35.00 892.64,35.00 893.41,35.00 894.16,35.00 894.93,35.00 895.69,35.00 896.46,35.00 897.22,35.00 897.98,35.00 898.74,35.00 899.52,35.00 900.29,35.00 901.03,35.00 901.77,35.00 902.53,35.00 903.30,35.00 904.06,35.00 904.83,35.00 905.60,35.00 906.36,35.00 907.13,35.00 907.90,35.00 908.66,35.00 909.43,35.00 910.18,35.00 910.94,35.00 911.69,35.00 912.45,35.00 913.22,35.00 913.98,35.00 914.74,35.00 915.50,35.00 916.26,35.00 917.02,35.00 917.79,35.00 918.55,35.00 919.30,35.00 920.06,35.00 920.80,35.00 921.58,35.00 922.34,35.00 923.10,35.00 923.87,35.00 924.64,35.00 925.40,35.00 926.16,35.00 926.93,35.00 927.69,35.00 928.45,35.00 929.21,35.00 930.04,35.00 930.79,35.00 931.57,35.00 932.33,35.00 933.10,35.00 933.85,35.00 934.62,35.00 935.39,35.00 936.14,35.00 936.91,35.00 937.66,35.00 938.43,35.00 939.19,35.00 939.96,35.00 940.73,35.00 941.49,35.00 942.25,35.00 943.01,35.00 943.77,35.00 944.54,35.00 945.31,35.00 946.08,35.00 946.86,35.00 947.63,35.00 948.39,35.00 949.15,35.00 949.92,35.00 950.69,35.00 951.45,35.00 952.21,35.00 952.97,35.00 953.73,35.00 954.49,35.00 955.26,35.00 956.03,35.00 956.79,35.00 957.55,35.00 958.32,35.00 959.07,35.00 959.83,35.00 960.59,35.00 961.36,35.00 962.11,35.00 962.88,35.00 963.64,35.00 964.40,35.00 965.15,35.00 965.91,35.00 966.67,35.00 967.43,35.00 968.19,35.00 968.95,35.00 969.71,35.00 970.46,35.00 971.22,35.00 971.98,35.00 972.75,35.00 973.51,35.00 974.26,35.00 975.02,35.00 975.78,35.00 976.55,35.00 977.31,35.00 978.07,35.00 978.83,35.00 979.63,35.00 980.38,35.00 981.15,35.00 981.92,35.00 982.68,35.00 983.45,35.00 984.21,35.00 984.98,35.00 985.74,35.00 986.50,35.00 987.25,35.00 988.01,35.00 988.78,35.00 989.54,35.00 990.30,35.00 991.06,35.00 991.82,35.00 992.58,35.00 993.34,35.00 994.10,35.00 994.87,35.00 995.67,35.00 996.43,35.00 997.18,35.00 997.94,35.00 998.69,35.00 999.47,35.00 1000.22,35.00 1000.99,35.00 1001.75,35.00 1002.51,35.00 1003.28,35.00 1004.04,35.00 1004.81,35.00 1005.57,35.00 1006.33,35.00 1007.09,35.00 1007.86,35.00 1008.62,35.00 1009.38,35.00 1010.13,35.00 1010.89,35.00 1011.65,35.00 1012.41,35.00 1013.17,35.00 1013.93,35.00 1014.69,35.00 1015.46,35.00 1016.22,35.00 1016.98,35.00 1017.74,35.00 1018.50,35.00 1019.26,35.00 1020.02,35.00 1020.79,35.00 1021.55,35.00 1022.31,35.00 1023.08,35.00 1023.83,35.00 1024.59,35.00 1025.35,35.00 1026.11,35.00 1026.87,35.00 1027.65,35.00 1028.41,35.00 1029.17,35.00 1029.93,35.00 1030.70,35.00 1031.46,35.00 1032.24,35.00 1033.01,35.00 1033.82,35.00 1034.58,35.00 1035.40,35.00 1036.16,35.00 1036.92,35.00 1037.67,35.00 1038.44,35.00 1039.20,35.00 1039.96,35.00 1040.72,35.00 1041.48,35.00 1042.24,35.00 1043.01,35.00 1043.76,35.00 1044.52,35.00 1045.28,35.00 1046.05,35.00 1046.80,35.00 1047.56,35.00 1048.32,35.00 1049.09,35.00 1049.85,35.00 1050.62,35.00 1051.37,35.00 1052.12,35.00 1052.89,35.00 1053.65,35.00 1054.42,35.00 1055.18,35.00 1055.94,35.00 1056.71,35.00 1057.47,35.00 1058.22,35.00 1058.98,35.00 1059.75,35.00 1060.50,35.00 1061.26,35.00 1062.02,35.00 1062.77,35.00 1063.53,35.00 1064.29,35.00 1065.05,35.00 1065.81,35.00 1066.58,35.00 1067.37,35.00 1068.14,35.00 1068.89,35.00 1069.65,35.00 1070.41,35.00 1071.16,35.00 1071.92,35.00 1072.68,35.00 1073.44,35.00 1074.20,35.00 1074.95,35.00 1075.71,35.00 1076.46,35.00 1077.23,35.00 1077.99,35.00 1078.74,35.00 1079.50,35.00 1080.27,35.00 1081.03,35.00 1081.79,35.00 1082.56,35.00 1083.31,35.00 1084.08,35.00 1084.84,35.00 1085.60,35.00 1086.36,35.00 1087.13,35.00 1087.89,35.00 1088.66,35.00 1089.42,35.00 1090.17,35.00 1090.94,35.00 1091.70,35.00 1092.46,35.00 1093.24,35.00 1094.00,35.00 1094.77,35.00 1095.54,35.00 1096.30,35.00 1097.06,35.00 1097.82,35.00 1098.58,35.00 1099.35,35.00 1100.11,35.00 1100.86,35.00 1101.63,35.00 1102.40,35.00 1103.16,35.00 1103.93,35.00 1104.70,35.00 1105.48,35.00 1106.29,35.00 1107.06,35.00 1107.82,35.00 1108.58,35.00 1109.33,35.00 1110.10,35.00 1110.86,35.00 1111.62,35.00 1112.39,35.00 1113.15,35.00 1113.92,35.00 1114.68,35.00 1115.43,35.00 1116.19,35.00 1116.96,35.00 1117.73,35.00 1118.50,35.00 1119.28,35.00 1120.05,35.00 1120.82,35.00 1121.61,35.00 1122.38,35.00 1123.19,35.00 1123.95,35.00 1124.72,35.00 1125.48,35.00 1126.24,35.00 1127.01,35.00 1127.77,35.00 1128.52,35.00 1129.29,35.00 1130.04,35.00 1130.81,35.00 1131.59,35.00 1132.35,35.00 1133.11,35.00 1133.89,35.00 1134.78,35.00 1135.54,35.00 1136.30,35.00 1137.05,35.00 1137.81,35.00 1138.56,35.00 1139.32,35.00 1140.02,35.00 1140.70,35.00 1141.53,305.00 1142.24,305.00 1142.94,35.00 1143.72,305.00 1144.38,35.00 1145.13,35.00 1145.90,35.00 1146.66,35.00 1147.42,35.00 1148.17,35.00 1148.93,35.00 1149.69,35.00 1150.45,35.00 1151.21,35.00 1151.97,35.00 1152.73,35.00 1153.49,35.00 1154.25,35.00 1155.00,35.00 1155.77,35.00 1156.52,35.00 1157.27,35.00 1158.03,35.00 1158.78,35.00 1159.55,35.00 1160.30,35.00 1161.06,35.00 1161.83,35.00 1162.59,35.00 1163.34,35.00 1164.10,35.00 1164.85,35.00 1165.61,35.00 1166.37,35.00 1167.12,35.00 1167.88,35.00 1168.64,35.00 1169.39,35.00 1170.15,35.00 1170.91,35.00 1171.67,35.00 1172.43,35.00 1173.19,35.00 1173.95,35.00 1174.70,35.00 1175.46,35.00 1176.23,35.00 1176.98,35.00 1177.74,35.00 1178.49,35.00 1179.24,35.00 1180.00,35.00"/>
<polyline fill="none" stroke="#2ca02c" stroke-opacity="0.65" stroke-width="2" points="70.00,305.00 70.76,305.00 71.52,305.00 72.28,305.00 73.04,305.00 73.80,305.00 74.55,305.00 75.32,305.00 76.14,305.00 76.89,305.00 77.65,305.00 78.40,305.00 79.17,305.00 79.92,305.00 80.68,305.00 82.04,305.00 83.22,305.00 83.99,305.00 84.76,305.00 85.52,305.00 86.28,305.00 87.02,305.00 87.78,305.00 88.54,305.00 89.30,305.00 90.07,305.00 90.84,305.00 91.60,305.00 92.36,305.00 93.16,305.00 93.92,305.00 94.68,305.00 95.46,305.00 96.22,305.00 96.98,305.00 97.76,305.00 98.51,305.00 99.27,305.00 100.04,305.00 100.79,305.00 101.55,305.00 102.30,305.00 103.05,305.00 103.82,305.00 104.57,305.00 105.34,305.00 106.11,305.00 106.86,305.00 107.62,305.00 108.38,305.00 109.14,305.00 110.01,305.00 110.77,305.00 111.52,305.00 112.27,305.00 113.03,305.00 113.78,305.00 114.53,305.00 115.30,305.00 116.05,305.00 116.82,305.00 117.58,305.00 118.33,305.00 119.09,305.00 119.86,305.00 120.62,305.00 121.38,305.00 122.13,305.00 122.88,305.00 123.63,305.00 124.39,305.00 125.14,305.00 125.90,305.00 126.65,305.00 127.41,305.00 128.17,305.00 128.92,305.00 129.68,305.00 130.44,305.00 131.19,305.00 131.97,305.00 132.72,305.00 133.48,305.00 134.24,305.00 135.00,305.00 135.76,305.00 136.52,305.00 137.26,305.00 138.02,305.00 138.78,305.00 139.54,305.00 140.30,305.00 141.07,305.00 141.81,305.00 142.57,305.00 143.33,305.00 144.08,305.00 144.84,305.00 145.59,305.00 146.35,305.00 147.11,305.00 147.87,305.00 148.63,305.00 149.39,305.00 150.15,305.00 150.92,305.00 151.67,305.00 152.43,305.00 153.18,305.00 153.94,305.00 154.70,305.00 155.46,305.00 156.22,305.00 156.98,305.00 157.74,305.00 158.50,305.00 159.26,305.00 160.03,305.00 160.79,305.00 161.54,305.00 162.30,305.00 163.06,305.00 163.82,305.00 164.58,305.00 165.40,305.00 166.15,305.00 166.92,305.00 167.68,305.00 168.43,305.00 169.18,305.00 169.93,305.00 170.68,305.00 171.44,305.00 172.20,305.00 172.95,305.00 173.71,305.00 174.47,305.00 175.22,305.00 175.99,305.00 176.74,305.00 177.50,305.00 178.25,305.00 179.01,305.00 179.77,305.00 180.53,305.00 181.29,305.00 182.05,305.00 182.81,305.00 183.56,305.00 184.31,305.00 185.07,305.00 185.83,305.00 186.58,305.00 187.34,305.00 188.11,305.00 188.87,305.00 189.62,305.00 190.39,305.00 191.15,305.00 191.90,305.00 192.66,305.00 193.42,305.00 194.19,305.00 194.96,305.00 195.71,305.00 196.47,305.00 197.22,305.00 197.98,305.00 198.73,305.00 199.49,305.00 200.25,305.00 200.99,305.00 201.75,305.00 202.51,305.00 203.27,305.00 204.03,305.00 204.79,305.00 205.57,305.00 206.32,305.00 207.08,305.00 207.83,305.00 208.58,305.00 209.41,305.00 210.18,305.00 210.94,305.00 211.69,305.00 212.44,305.00 213.20,305.00 213.95,305.00 214.71,305.00 215.48,305.00 216.23,305.00 216.98,305.00 217.74,305.00 218.52,305.00 219.27,305.00 220.03,305.00 220.78,305.00 221.55,305.00 222.32,305.00 223.10,305.00 223.85,305.00 224.61,305.00 225.37,305.00 226.12,305.00 226.88,305.00 227.64,305.00 228.41,305.00 229.16,305.00 229.91,305.00 230.68,305.00 231.44,305.00 232.19,305.00 232.95,305.00 233.72,305.00 234.48,305.00 235.23,305.00 235.98,305.00 236.74,305.00 237.50,305.00 238.25,305.00 239.01,305.00 239.76,305.00 240.51,305.00 241.27,305.00 242.03,305.00 242.79,305.00 243.55,305.00 244.32,305.00 245.08,305.00 245.84,305.00 246.60,305.00 247.36,305.00 248.11,305.00 248.87,305.00 249.63,305.00 250.41,305.00 251.17,305.00 251.93,305.00 252.69,305.00 253.44,305.00 254.20,305.00 254.95,305.00 255.71,305.00 256.47,305.00 257.23,305.00 257.99,305.00 258.75,305.00 259.51,305.00 260.27,305.00 261.02,305.00 261.79,305.00 262.55,305.00 263.31,305.00 264.06,305.00 264.83,305.00 265.59,305.00 266.35,305.00 267.11,305.00 267.87,305.00 268.71,305.00 269.47,305.00 270.23,305.00 270.99,305.00 271.75,305.00 272.52,305.00 273.27,305.00 274.04,305.00 274.79,305.00 275.57,305.00 276.34,305.00 277.09,305.00 277.85,305.00 278.60,305.00 279.36,305.00 280.12,305.00 280.91,305.00 281.67,305.00 282.42,305.00 283.19,305.00 284.01,305.00 284.77,305.00 285.72,305.00 287.00,305.00 287.78,305.00 288.55,305.00 289.31,305.00 290.05,305.00 290.81,305.00 291.58,305.00 292.34,305.00 293.10,305.00 293.89,305.00 294.68,305.00 295.48,305.00 296.24,305.00 297.00,305.00 297.76,305.00 298.53,305.00 299.29,305.00 300.06,305.00 300.81,305.00 301.57,305.00 302.36,305.00 303.12,305.00 303.87,305.00 304.63,305.00 305.40,305.00 306.19,305.00 306.95,305.00 307.71,305.00 308.49,305.00 309.22,305.00 309.97,305.00 310.75,305.00 311.50,305.00 312.27,305.00 313.05,305.00 313.81,305.00 314.57,305.00 315.34,305.00 316.10,305.00 316.86,305.00 317.62,305.00 318.37,305.00 319.13,305.00 319.89,305.00 320.65,305.00 321.55,305.00 322.44,305.00 323.34,305.00 324.22,305.00 325.09,305.00 325.96,305.00 326.86,305.00 327.74,305.00 328.50,305.00 329.25,305.00 330.01,305.00 330.77,305.00 331.52,305.00 332.28,305.00 333.03,305.00 333.78,305.00 334.54,305.00 335.30,305.00 336.06,305.00 336.81,305.00 337.57,305.00 338.32,305.00 339.07,305.00 339.83,305.00 340.59,305.00 341.34,305.00 342.10,305.00 342.86,305.00 343.61,305.00 344.36,305.00 345.12,305.00 345.87,305.00 346.63,305.00 347.39,305.00 348.14,305.00 348.90,305.00 349.66,305.00 350.41,305.00 351.17,305.00 351.93,305.00 352.68,305.00 353.44,305.00 354.18,305.00 354.93,305.00 355.69,305.00 356.44,305.00 357.19,305.00 357.95,305.00 358.70,305.00 359.46,305.00 360.20,305.00 360.95,305.00 361.70,305.00 362.48,305.00 363.30,305.00 364.06,305.00 364.82,305.00 365.57,305.00 366.32,305.00 367.07,305.00 367.82,305.00 368.58,305.00 369.47,305.00 370.36,305.00 371.24,305.00 372.13,305.00 373.02,305.00 373.91,305.00 374.81,305.00 375.73,305.00 376.56,305.00 377.37,305.00 378.13,305.00 378.89,305.00 379.65,305.00 380.40,305.00 381.16,305.00 381.91,305.00 382.67,305.00 383.42,305.00 384.18,305.00 384.93,305.00 385.69,305.00 386.45,305.00 387.22,305.00 387.97,305.00 388.72,305.00 389.39,35.00 390.17,35.00 390.92,35.00 391.70,35.00 392.46,35.00 393.21,35.00 393.97,35.00 394.74,35.00 395.50,35.00 396.26,35.00 397.02,35.00 397.80,35.00 398.55,35.00 399.30,35.00 400.06,35.00 400.81,35.00 401.56,35.00 402.31,35.00 403.08,35.00 403.83,35.00 404.59,35.00 405.35,35.00 406.10,35.00 406.86,35.00 407.62,35.00 408.38,35.00 409.14,35.00 409.90,35.00 410.65,35.00 411.42,35.00 412.18,35.00 412.96,35.00 413.71,35.00 414.46,35.00 415.22,35.00 415.97,35.00 416.72,35.00 417.49,35.00 418.24,35.00 418.99,35.00 419.75,35.00 420.51,35.00 421.26,35.00 422.02,35.00 422.79,35.00 423.54,35.00 424.46,35.00 425.23,35.00 426.01,35.00 426.77,35.00 427.53,35.00 428.30,35.00 429.05,35.00 429.80,35.00 430.57,35.00 431.33,35.00 432.09,35.00 432.85,35.00 433.61,35.00 434.37,35.00 435.15,35.00 435.92,35.00 436.68,35.00 437.44,35.00 438.20,35.00 438.95,35.00 439.71,35.00 440.47,35.00 441.26,35.00 442.02,35.00 442.78,35.00 443.54,35.00 444.29,35.00 445.06,35.00 445.81,35.00 446.57,35.00 447.33,35.00 448.09,35.00 448.85,35.00 449.61,35.00 450.37,35.00 451.12,35.00 451.88,35.00 452.65,35.00 453.41,35.00 454.17,35.00 454.92,35.00 455.68,35.00 456.45,35.00 457.21,35.00 458.12,35.00 458.90,35.00 459.66,35.00 460.42,35.00 461.17,35.00 461.93,35.00 462.69,35.00 463.45,35.00 464.23,35.00 464.98,35.00 465.74,35.00 466.49,35.00 467.25,35.00 468.01,35.00 468.76,35.00 469.53,35.00 470.28,35.00 471.03,35.00 471.79,35.00 472.55,35.00 473.31,35.00 474.07,35.00 474.82,35.00 475.59,35.00 476.36,35.00 477.11,35.00 477.87,35.00 478.63,35.00 479.41,35.00 480.16,35.00 480.92,35.00 481.68,35.00 482.44,35.00 483.20,35.00 483.96,35.00 484.72,35.00 485.50,35.00 486.25,35.00 487.01,35.00 487.76,35.00 488.51,35.00 489.27,35.00 490.03,35.00 490.79,35.00 491.55,35.00 492.32,35.00 493.09,35.00 493.83,35.00 494.60,35.00 495.35,35.00 496.11,35.00 496.86,35.00 497.62,35.00 498.38,35.00 499.15,35.00 499.90,35.00 500.66,35.00 501.43,35.00 502.19,35.00 502.95,35.00 503.71,35.00 504.48,35.00 505.33,35.00 506.16,35.00 506.98,35.00 507.74,35.00 508.53,35.00 509.29,35.00 510.05,35.00 510.80,35.00 511.51,35.00 512.30,35.00 513.06,35.00 513.83,35.00 514.58,35.00 515.34,35.00 516.09,35.00 516.86,35.00 517.61,35.00 518.37,35.00 519.13,35.00 519.89,35.00 520.65,35.00 521.42,35.00 522.18,35.00 522.95,35.00 523.71,35.00 524.47,35.00 525.23,35.00 526.00,35.00 526.77,35.00 527.52,35.00 528.27,35.00 529.03,35.00 529.79,35.00 530.55,35.00 531.31,35.00 532.07,35.00 532.84,35.00 533.59,35.00 534.35,35.00 535.11,35.00 535.87,35.00 536.63,35.00 537.39,35.00 538.15,35.00 538.91,35.00 539.67,35.00 540.43,35.00 541.20,35.00 541.96,35.00 542.72,35.00 543.48,35.00 544.25,35.00 545.00,35.00 545.77,35.00 546.56,35.00 547.31,35.00 548.08,35.00 548.84,35.00 549.59,35.00 550.35,35.00 551.11,35.00 551.88,35.00 552.64,35.00 553.40,35.00 554.16,35.00 554.92,35.00 555.68,35.00 556.45,35.00 557.21,35.00 557.98,35.00 558.74,35.00 559.51,35.00 560.28,35.00 561.03,35.00 561.79,35.00 562.55,35.00 563.32,35.00 564.09,35.00 564.86,35.00 565.62,35.00 566.39,35.00 567.14,35.00 567.90,35.00 568.66,35.00 569.42,35.00 570.18,35.00 570.94,35.00 571.70,35.00 572.46,35.00 573.22,35.00 573.99,35.00 574.75,35.00 575.51,35.00 576.28,35.00 577.04,35.00 577.80,35.00 578.56,35.00 579.32,35.00 580.07,35.00 580.83,35.00 581.59,35.00 582.35,35.00 583.12,35.00 583.88,35.00 584.65,35.00 585.40,35.00 586.17,35.00 586.94,35.00 587.69,35.00 588.46,35.00 589.23,35.00 589.99,35.00 590.75,35.00 591.51,35.00 592.28,35.00 593.05,35.00 593.81,35.00 594.58,35.00 595.35,35.00 596.12,35.00 596.88,35.00 597.63,35.00 598.40,35.00 599.16,35.00 599.93,35.00 600.70,35.00 601.46,35.00 602.22,35.00 602.97,35.00 603.75,35.00 604.51,35.00 605.28,35.00 606.04,35.00 606.79,35.00 607.55,35.00 608.30,35.00 609.06,35.00 609.83,35.00 610.59,35.00 611.35,35.00 612.11,35.00 612.87,35.00 613.63,35.00 614.41,35.00 615.18,35.00 615.93,35.00 616.70,35.00 617.45,35.00 618.21,35.00 618.97,35.00 619.74,35.00 620.50,35.00 621.26,35.00 622.03,35.00 622.79,35.00 623.55,35.00 624.31,35.00 625.08,35.00 625.86,35.00 626.63,35.00 627.40,35.00 628.16,35.00 628.92,35.00 629.69,35.00 630.45,35.00 631.20,35.00 631.96,35.00 632.73,35.00 633.49,35.00 634.26,35.00 635.02,35.00 635.79,35.00 636.58,35.00 637.34,35.00 638.10,35.00 638.87,35.00 639.63,35.00 640.39,35.00 641.16,35.00 641.93,35.00 642.69,35.00 643.46,35.00 644.23,35.00 644.99,35.00 645.76,35.00 646.52,35.00 647.28,35.00 648.04,35.00 648.80,35.00 649.57,35.00 650.34,35.00 651.10,35.00 651.86,35.00 652.62,35.00 653.39,35.00 654.15,35.00 654.92,35.00 655.68,35.00 656.47,35.00 657.23,35.00 658.00,35.00 658.77,35.00 659.55,35.00 660.32,35.00 661.10,35.00 661.88,35.00 662.66,35.00 663.43,35.00 664.19,35.00 664.95,35.00 665.72,35.00 666.48,35.00 667.25,35.00 668.03,35.00 668.79,35.00 669.55,35.00 670.32,35.00 671.07,35.00 671.83,35.00 672.60,35.00 673.36,35.00 674.12,35.00 674.88,35.00 675.64,35.00 676.40,35.00 677.15,35.00 677.91,35.00 678.68,35.00 679.45,35.00 680.20,35.00 680.97,35.00 681.74,35.00 682.50,35.00 683.26,35.00 684.03,35.00 684.79,35.00 685.55,35.00 686.30,35.00 687.07,35.00 687.84,35.00 688.59,35.00 689.34,35.00 690.10,35.00 690.86,35.00 691.63,35.00 692.39,35.00 693.15,35.00 693.91,35.00 694.67,35.00 695.43,35.00 696.20,35.00 696.96,35.00 697.70,35.00 698.46,35.00 699.21,35.00 699.97,35.00 700.73,35.00 701.51,35.00 702.27,35.00 703.03,35.00 703.79,35.00 704.57,35.00 705.33,35.00 706.09,35.00 706.86,35.00 707.62,35.00 708.38,35.00 709.15,35.00 709.91,35.00 710.69,35.00 711.45,35.00 712.21,35.00 712.97,35.00 713.73,35.00 714.49,35.00 715.25,35.00 716.01,35.00 716.76,35.00 717.52,35.00 718.29,35.00 719.05,35.00 719.81,35.00 720.57,35.00 721.33,35.00 722.09,35.00 722.85,35.00 723.62,35.00 724.38,35.00 725.14,35.00 725.90,35.00 726.67,35.00 727.43,35.00 728.19,35.00 728.95,35.00 729.71,35.00 730.47,35.00 731.24,35.00 732.01,35.00 732.76,35.00 733.52,35.00 734.28,35.00 735.07,35.00 735.83,35.00 736.61,35.00 737.38,35.00 738.14,35.00 738.90,35.00 739.67,35.00 740.43,35.00 741.20,35.00 741.95,35.00 742.72,35.00 743.50,35.00 744.27,35.00 745.03,35.00 745.79,35.00 746.55,35.00 747.32,35.00 748.08,35.00 748.84,35.00 749.60,35.00 750.36,35.00 751.12,35.00 751.88,35.00 752.64,35.00 753.41,35.00 754.16,35.00 754.92,35.00 755.68,35.00 756.44,35.00 757.20,35.00 757.98,35.00 758.73,35.00 759.49,35.00 760.25,35.00 761.02,35.00 761.77,35.00 762.54,35.00 763.30,35.00 764.07,35.00 764.83,35.00 765.59,35.00 766.35,35.00 767.11,35.00 767.87,35.00 768.63,35.00 769.40,35.00 770.18,35.00 770.95,35.00 771.73,35.00 772.51,35.00 773.29,35.00 774.07,35.00 774.84,35.00 775.64,35.00 776.41,35.00 777.19,35.00 777.95,35.00 778.71,35.00 779.48,35.00 780.25,35.00 781.01,35.00 781.78,35.00 782.54,35.00 783.31,35.00 784.07,35.00 784.83,35.00 785.59,35.00 786.35,35.00 787.11,35.00 787.87,35.00 788.63,35.00 789.39,35.00 790.16,35.00 790.92,35.00 791.69,35.00 792.46,35.00 793.22,35.00 793.98,35.00 794.74,35.00 795.50,35.00 796.26,35.00 797.03,35.00 797.79,35.00 798.55,35.00 799.32,35.00 800.07,35.00 800.84,35.00 801.60,35.00 802.36,35.00 803.13,35.00 803.94,35.00 804.73,35.00 805.48,35.00 806.25,35.00 807.00,35.00 807.78,35.00 808.55,35.00 809.32,35.00 810.08,35.00 810.83,35.00 811.58,35.00 812.35,35.00 813.10,35.00 813.87,35.00 814.63,35.00 815.39,35.00 816.16,35.00 816.93,35.00 817.69,35.00 818.45,35.00 819.21,35.00 819.97,35.00 820.74,35.00 821.50,35.00 822.26,35.00 823.02,35.00 823.79,35.00 824.55,35.00 825.31,35.00 826.11,35.00 826.87,35.00 827.63,35.00 828.39,35.00 829.16,35.00 829.92,35.00 830.69,35.00 831.45,35.00 832.21,35.00 832.98,35.00 833.74,35.00 834.51,35.00 835.28,35.00 836.05,35.00 836.81,35.00 837.57,35.00 838.33,35.00 839.09,35.00 839.86,35.00 840.61,35.00 841.39,35.00 842.15,35.00 842.91,35.00 843.67,35.00 844.43,35.00 845.20,35.00 845.96,35.00 846.72,35.00 847.48,35.00 848.24,35.00 849.01,35.00 849.76,35.00 850.53,35.00 851.29,35.00 852.05,35.00 852.82,35.00 853.58,35.00 854.34,35.00 855.09,35.00 855.85,35.00 856.61,35.00 857.38,35.00 858.14,35.00 858.92,35.00 859.69,35.00 860.45,35.00 861.22,35.00 861.98,35.00 862.75,35.00 863.57,35.00 864.35,35.00 865.12,35.00 865.89,35.00 866.66,35.00 867.42,35.00 868.18,35.00 868.94,35.00 869.71,35.00 870.47,35.00 871.24,35.00 872.00,35.00 872.76,35.00 873.54,35.00 874.31,35.00 875.07,35.00 875.83,35.00 876.59,35.00 877.36,35.00 878.13,35.00 878.88,35.00 879.65,35.00 880.42,35.00 881.18,35.00 881.94,35.00 882.71,35.00 883.48,35.00 884.24,35.00 885.01,35.00 885.78,35.00 886.55,35.00 887.30,35.00 888.07,35.00 888.84,35.00 889.59,35.00 890.35,35.00 891.12,35.00 891.87,35.00 892.64,35.00 893.41,35.00 894.16,35.00 894.93,35.00 895.69,35.00 896.46,35.00 897.22,35.00 897.98,35.00 898.74,35.00 899.52,35.00 900.29,35.00 901.03,35.00 901.77,35.00 902.53,35.00 903.30,35.00 904.06,35.00 904.83,35.00 905.60,35.00 906.36,35.00 907.13,35.00 907.90,35.00 908.66,35.00 909.43,35.00 910.18,35.00 910.94,35.00 911.69,35.00 912.45,35.00 913.22,35.00 913.98,35.00 914.74,35.00 915.50,35.00 916.26,35.00 917.02,35.00 917.79,35.00 918.55,35.00 919.30,35.00 920.06,35.00 920.80,35.00 921.58,35.00 922.34,35.00 923.10,35.00 923.87,35.00 924.64,35.00 925.40,35.00 926.16,35.00 926.93,35.00 927.69,35.00 928.45,35.00 929.21,35.00 930.04,35.00 930.79,35.00 931.57,35.00 932.33,35.00 933.10,35.00 933.85,35.00 934.62,35.00 935.39,35.00 936.14,35.00 936.91,35.00 937.66,35.00 938.43,35.00 939.19,35.00 939.96,35.00 940.73,35.00 941.49,35.00 942.25,35.00 943.01,35.00 943.77,35.00 944.54,35.00 945.31,35.00 946.08,35.00 946.86,35.00 947.63,35.00 948.39,35.00 949.15,35.00 949.92,35.00 950.69,35.00 951.45,35.00 952.21,35.00 952.97,35.00 953.73,35.00 954.49,35.00 955.26,35.00 956.03,35.00 956.79,35.00 957.55,35.00 958.32,35.00 959.07,35.00 959.83,35.00 960.59,35.00 961.36,35.00 962.11,35.00 962.88,35.00 963.64,35.00 964.40,35.00 965.15,35.00 965.91,35.00 966.67,35.00 967.43,35.00 968.19,35.00 968.95,35.00 969.71,35.00 970.46,35.00 971.22,35.00 971.98,35.00 972.75,35.00 973.51,35.00 974.26,35.00 975.02,35.00 975.78,35.00 976.55,35.00 977.31,35.00 978.07,35.00 978.83,35.00 979.63,35.00 980.38,35.00 981.15,35.00 981.92,35.00 982.68,35.00 983.45,35.00 984.21,35.00 984.98,35.00 985.74,35.00 986.50,35.00 987.25,35.00 988.01,35.00 988.78,35.00 989.54,35.00 990.30,35.00 991.06,35.00 991.82,35.00 992.58,35.00 993.34,35.00 994.10,35.00 994.87,35.00 995.67,35.00 996.43,35.00 997.18,35.00 997.94,35.00 998.69,35.00 999.47,35.00 1000.22,35.00 1000.99,35.00 1001.75,35.00 1002.51,35.00 1003.28,35.00 1004.04,35.00 1004.81,35.00 1005.57,35.00 1006.33,35.00 1007.09,35.00 1007.86,35.00 1008.62,35.00 1009.38,35.00 1010.13,35.00 1010.89,35.00 1011.65,35.00 1012.41,35.00 1013.17,35.00 1013.93,35.00 1014.69,35.00 1015.46,35.00 1016.22,35.00 1016.98,35.00 1017.74,35.00 1018.50,35.00 1019.26,35.00 1020.02,35.00 1020.79,35.00 1021.55,35.00 1022.31,35.00 1023.08,35.00 1023.83,35.00 1024.59,35.00 1025.35,35.00 1026.11,35.00 1026.87,35.00 1027.65,35.00 1028.41,35.00 1029.17,35.00 1029.93,35.00 1030.70,35.00 1031.46,35.00 1032.24,35.00 1033.01,35.00 1033.82,35.00 1034.58,35.00 1035.40,35.00 1036.16,35.00 1036.92,35.00 1037.67,35.00 1038.44,35.00 1039.20,35.00 1039.96,35.00 1040.72,35.00 1041.48,35.00 1042.24,35.00 1043.01,35.00 1043.76,35.00 1044.52,35.00 1045.28,35.00 1046.05,35.00 1046.80,35.00 1047.56,35.00 1048.32,35.00 1049.09,35.00 1049.85,35.00 1050.62,35.00 1051.37,35.00 1052.12,35.00 1052.89,35.00 1053.65,35.00 1054.42,35.00 1055.18,35.00 1055.94,35.00 1056.71,35.00 1057.47,35.00 1058.22,35.00 1058.98,35.00 1059.75,35.00 1060.50,35.00 1061.26,35.00 1062.02,35.00 1062.77,35.00 1063.53,35.00 1064.29,35.00 1065.05,35.00 1065.81,35.00 1066.58,35.00 1067.37,35.00 1068.14,35.00 1068.89,35.00 1069.65,35.00 1070.41,35.00 1071.16,35.00 1071.92,35.00 1072.68,35.00 1073.44,35.00 1074.20,35.00 1074.95,35.00 1075.71,35.00 1076.46,35.00 1077.23,35.00 1077.99,35.00 1078.74,35.00 1079.50,35.00 1080.27,35.00 1081.03,35.00 1081.79,35.00 1082.56,35.00 1083.31,35.00 1084.08,35.00 1084.84,35.00 1085.60,35.00 1086.36,35.00 1087.13,35.00 1087.89,35.00 1088.66,35.00 1089.42,35.00 1090.17,35.00 1090.94,35.00 1091.70,35.00 1092.46,35.00 1093.24,35.00 1094.00,35.00 1094.77,35.00 1095.54,35.00 1096.30,35.00 1097.06,35.00 1097.82,35.00 1098.58,35.00 1099.35,35.00 1100.11,35.00 1100.86,35.00 1101.63,35.00 1102.40,35.00 1103.16,35.00 1103.93,35.00 1104.70,35.00 1105.48,35.00 1106.29,35.00 1107.06,35.00 1107.82,35.00 1108.58,35.00 1109.33,35.00 1110.10,35.00 1110.86,35.00 1111.62,35.00 1112.39,35.00 1113.15,35.00 1113.92,35.00 1114.68,35.00 1115.43,35.00 1116.19,35.00 1116.96,35.00 1117.73,35.00 1118.50,35.00 1119.28,35.00 1120.05,35.00 1120.82,35.00 1121.61,35.00 1122.38,35.00 1123.19,35.00 1123.95,35.00 1124.72,35.00 1125.48,35.00 1126.24,35.00 1127.01,35.00 1127.77,35.00 1128.52,35.00 1129.29,35.00 1130.04,35.00 1130.81,35.00 1131.59,35.00 1132.35,35.00 1133.11,35.00 1133.89,35.00 1134.78,35.00 1135.54,35.00 1136.30,35.00 1137.05,35.00 1137.81,35.00 1138.56,35.00 1139.32,305.00 1140.02,305.00 1140.70,35.00 1141.53,35.00 1142.24,35.00 1142.94,35.00 1143.72,305.00 1144.38,35.00 1145.13,35.00 1145.90,35.00 1146.66,35.00 1147.42,35.00 1148.17,35.00 1148.93,35.00 1149.69,35.00 1150.45,35.00 1151.21,35.00 1151.97,35.00 1152.73,35.00 1153.49,35.00 1154.25,35.00 1155.00,35.00 1155.77,35.00 1156.52,35.00 1157.27,35.00 1158.03,35.00 1158.78,35.00 1159.55,35.00 1160.30,35.00 1161.06,35.00 1161.83,35.00 1162.59,35.00 1163.34,35.00 1164.10,35.00 1164.85,35.00 1165.61,35.00 1166.37,35.00 1167.12,35.00 1167.88,35.00 1168.64,35.00 1169.39,35.00 1170.15,35.00 1170.91,35.00 1171.67,35.00 1172.43,35.00 1173.19,35.00 1173.95,35.00 1174.70,35.00 1175.46,35.00 1176.23,35.00 1176.98,35.00 1177.74,35.00 1178.49,35.00 1179.24,35.00 1180.00,35.00"/>
<polyline fill="none" stroke="#2ca02c" stroke-opacity="0.50" stroke-width="2" points="70.00,35.00 70.76,35.00 71.52,35.00 72.28,35.00 73.04,35.00 73.80,35.00 74.55,35.00 75.32,35.00 76.14,35.00 76.89,35.00 77.65,35.00 78.40,35.00 79.17,35.00 79.92,35.00 80.68,35.00 82.04,35.00 83.22,35.00 83.99,35.00 84.76,35.00 85.52,35.00 86.28,35.00 87.02,35.00 87.78,35.00 88.54,35.00 89.30,35.00 90.07,35.00 90.84,35.00 91.60,35.00 92.36,35.00 93.16,35.00 93.92,35.00 94.68,35.00 95.46,35.00 96.22,35.00 96.98,35.00 97.76,35.00 98.51,35.00 99.27,35.00 100.04,35.00 100.79,35.00 101.55,35.00 102.30,35.00 103.05,35.00 103.82,35.00 104.57,35.00 105.34,35.00 106.11,35.00 106.86,35.00 107.62,35.00 108.38,35.00 109.14,35.00 110.01,35.00 110.77,35.00 111.52,35.00 112.27,35.00 113.03,35.00 113.78,35.00 114.53,35.00 115.30,35.00 116.05,35.00 116.82,35.00 117.58,35.00 118.33,35.00 119.09,35.00 119.86,35.00 120.62,35.00 121.38,35.00 122.13,35.00 122.88,35.00 123.63,35.00 124.39,35.00 125.14,35.00 125.90,35.00 126.65,35.00 127.41,35.00 128.17,35.00 128.92,35.00 129.68,35.00 130.44,35.00 131.19,35.00 131.97,35.00 132.72,35.00 133.48,35.00 134.24,35.00 135.00,35.00 135.76,35.00 136.52,35.00 137.26,35.00 138.02,35.00 138.78,35.00 139.54,35.00 140.30,35.00 141.07,35.00 141.81,35.00 142.57,35.00 143.33,35.00 144.08,35.00 144.84,35.00 145.59,35.00 146.35,35.00 147.11,35.00 147.87,35.00 148.63,35.00 149.39,35.00 150.15,35.00 150.92,35.00 151.67,35.00 152.43,35.00 153.18,35.00 153.94,35.00 154.70,35.00 155.46,35.00 156.22,35.00 156.98,35.00 157.74,35.00 158.50,35.00 159.26,35.00 160.03,35.00 160.79,35.00 161.54,35.00 162.30,35.00 163.06,35.00 163.82,35.00 164.58,35.00 165.40,35.00 166.15,35.00 166.92,35.00 167.68,35.00 168.43,35.00 169.18,35.00 169.93,35.00 170.68,35.00 171.44,35.00 172.20,35.00 172.95,35.00 173.71,35.00 174.47,35.00 175.22,35.00 175.99,35.00 176.74,35.00 177.50,35.00 178.25,35.00 179.01,35.00 179.77,35.00 180.53,35.00 181.29,35.00 182.05,35.00 182.81,35.00 183.56,35.00 184.31,35.00 185.07,35.00 185.83,35.00 186.58,35.00 187.34,35.00 188.11,35.00 188.87,35.00 189.62,35.00 190.39,35.00 191.15,35.00 191.90,35.00 192.66,35.00 193.42,35.00 194.19,35.00 194.96,35.00 195.71,35.00 196.47,35.00 197.22,35.00 197.98,35.00 198.73,35.00 199.49,35.00 200.25,35.00 200.99,35.00 201.75,35.00 202.51,35.00 203.27,35.00 204.03,35.00 204.79,35.00 205.57,35.00 206.32,35.00 207.08,35.00 207.83,35.00 208.58,35.00 209.41,35.00 210.18,35.00 210.94,35.00 211.69,35.00 212.44,35.00 213.20,35.00 213.95,35.00 214.71,35.00 215.48,35.00 216.23,35.00 216.98,35.00 217.74,35.00 218.52,35.00 219.27,35.00 220.03,35.00 220.78,35.00 221.55,35.00 222.32,35.00 223.10,35.00 223.85,35.00 224.61,35.00 225.37,35.00 226.12,35.00 226.88,35.00 227.64,35.00 228.41,35.00 229.16,35.00 229.91,35.00 230.68,35.00 231.44,35.00 232.19,35.00 232.95,35.00 233.72,35.00 234.48,35.00 235.23,35.00 235.98,35.00 236.74,35.00 237.50,35.00 238.25,35.00 239.01,35.00 239.76,35.00 240.51,35.00 241.27,35.00 242.03,35.00 242.79,35.00 243.55,35.00 244.32,35.00 245.08,35.00 245.84,35.00 246.60,35.00 247.36,35.00 248.11,35.00 248.87,35.00 249.63,35.00 250.41,35.00 251.17,35.00 251.93,35.00 252.69,35.00 253.44,35.00 254.20,35.00 254.95,35.00 255.71,35.00 256.47,35.00 257.23,35.00 257.99,35.00 258.75,35.00 259.51,35.00 260.27,35.00 261.02,35.00 261.79,35.00 262.55,35.00 263.31,35.00 264.06,35.00 264.83,35.00 265.59,35.00 266.35,35.00 267.11,35.00 267.87,35.00 268.71,35.00 269.47,35.00 270.23,35.00 270.99,35.00 271.75,35.00 272.52,35.00 273.27,35.00 274.04,35.00 274.79,35.00 275.57,35.00 276.34,35.00 277.09,35.00 277.85,35.00 278.60,35.00 279.36,35.00 280.12,35.00 280.91,35.00 281.67,35.00 282.42,35.00 283.19,35.00 284.01,35.00 284.77,35.00 285.72,35.00 287.00,35.00 287.78,35.00 288.55,35.00 289.31,35.00 290.05,35.00 290.81,35.00 291.58,35.00 292.34,35.00 293.10,35.00 293.89,35.00 294.68,35.00 295.48,35.00 296.24,35.00 297.00,35.00 297.76,35.00 298.53,35.00 299.29,35.00 300.06,35.00 300.81,35.00 301.57,35.00 302.36,35.00 303.12,35.00 303.87,35.00 304.63,35.00 305.40,35.00 306.19,35.00 306.95,35.00 307.71,35.00 308.49,35.00 309.22,35.00 309.97,35.00 310.75,35.00 311.50,35.00 312.27,35.00 313.05,35.00 313.81,35.00 314.57,35.00 315.34,35.00 316.10,35.00 316.86,35.00 317.62,35.00 318.37,35.00 319.13,35.00 319.89,35.00 320.65,35.00 321.55,35.00 322.44,35.00 323.34,35.00 324.22,35.00 325.09,35.00 325.96,35.00 326.86,35.00 327.74,35.00 328.50,35.00 329.25,35.00 330.01,35.00 330.77,35.00 331.52,35.00 332.28,35.00 333.03,35.00 333.78,35.00 334.54,35.00 335.30,35.00 336.06,35.00 336.81,35.00 337.57,35.00 338.32,35.00 339.07,35.00 339.83,35.00 340.59,35.00 341.34,35.00 342.10,35.00 342.86,35.00 343.61,35.00 344.36,35.00 345.12,35.00 345.87,35.00 346.63,35.00 347.39,35.00 348.14,35.00 348.90,35.00 349.66,35.00 350.41,35.00 351.17,35.00 351.93,35.00 352.68,35.00 353.44,35.00 354.18,35.00 354.93,35.00 355.69,35.00 356.44,35.00 357.19,35.00 357.95,35.00 358.70,35.00 359.46,35.00 360.20,35.00 360.95,35.00 361.70,35.00 362.48,35.00 363.30,35.00 364.06,35.00 364.82,35.00 365.57,35.00 366.32,35.00 367.07,35.00 367.82,35.00 368.58,35.00 369.47,35.00 370.36,35.00 371.24,35.00 372.13,35.00 373.02,35.00 373.91,35.00 374.81,35.00 375.73,35.00 376.56,35.00 377.37,35.00 378.13,35.00 378.89,35.00 379.65,35.00 380.40,35.00 381.16,35.00 381.91,35.00 382.67,35.00 383.42,35.00 384.18,35.00 384.93,35.00 385.69,35.00 386.45,35.00 387.22,35.00 387.97,35.00 388.72,35.00 389.39,35.00 390.17,35.00 390.92,35.00 391.70,35.00 392.46,35.00 393.21,35.00 393.97,35.00 394.74,35.00 395.50,35.00 396.26,35.00 397.02,35.00 397.80,35.00 398.55,35.00 399.30,35.00 400.06,35.00 400.81,35.00 401.56,35.00 402.31,35.00 403.08,35.00 403.83,35.00 404.59,35.00 405.35,35.00 406.10,35.00 406.86,35.00 407.62,35.00 408.38,35.00 409.14,35.00 409.90,35.00 410.65,35.00 411.42,35.00 412.18,35.00 412.96,35.00 413.71,35.00 414.46,35.00 415.22,35.00 415.97,35.00 416.72,35.00 417.49,35.00 418.24,35.00 418.99,35.00 419.75,35.00 420.51,35.00 421.26,35.00 422.02,35.00 422.79,35.00 423.54,35.00 424.46,35.00 425.23,35.00 426.01,35.00 426.77,35.00 427.53,35.00 428.30,35.00 429.05,35.00 429.80,35.00 430.57,35.00 431.33,35.00 432.09,35.00 432.85,35.00 433.61,35.00 434.37,35.00 435.15,35.00 435.92,35.00 436.68,35.00 437.44,35.00 438.20,35.00 438.95,35.00 439.71,35.00 440.47,35.00 441.26,35.00 442.02,35.00 442.78,35.00 443.54,35.00 444.29,35.00 445.06,35.00 445.81,35.00 446.57,35.00 447.33,35.00 448.09,35.00 448.85,35.00 449.61,35.00 450.37,35.00 451.12,35.00 451.88,35.00 452.65,35.00 453.41,35.00 454.17,35.00 454.92,35.00 455.68,35.00 456.45,35.00 457.21,35.00 458.12,35.00 458.90,35.00 459.66,35.00 460.42,35.00 461.17,35.00 461.93,35.00 462.69,35.00 463.45,35.00 464.23,35.00 464.98,35.00 465.74,35.00 466.49,35.00 467.25,35.00 468.01,35.00 468.76,35.00 469.53,35.00 470.28,35.00 471.03,35.00 471.79,35.00 472.55,35.00 473.31,35.00 474.07,35.00 474.82,35.00 475.59,35.00 476.36,35.00 477.11,35.00 477.87,35.00 478.63,35.00 479.41,35.00 480.16,35.00 480.92,35.00 481.68,35.00 482.44,35.00 483.20,35.00 483.96,35.00 484.72,35.00 485.50,35.00 486.25,35.00 487.01,35.00 487.76,35.00 488.51,35.00 489.27,35.00 490.03,35.00 490.79,35.00 491.55,35.00 492.32,35.00 493.09,35.00 493.83,35.00 494.60,35.00 495.35,35.00 496.11,35.00 496.86,35.00 497.62,35.00 498.38,35.00 499.15,35.00 499.90,35.00 500.66,35.00 501.43,35.00 502.19,35.00 502.95,35.00 503.71,35.00 504.48,35.00 505.33,35.00 506.16,35.00 506.98,35.00 507.74,35.00 508.53,35.00 509.29,35.00 510.05,35.00 510.80,35.00 511.51,35.00 512.30,35.00 513.06,35.00 513.83,35.00 514.58,35.00 515.34,35.00 516.09,35.00 516.86,35.00 517.61,35.00 518.37,35.00 519.13,35.00 519.89,35.00 520.65,35.00 521.42,35.00 522.18,35.00 522.95,35.00 523.71,35.00 524.47,35.00 525.23,35.00 526.00,35.00 526.77,35.00 527.52,35.00 528.27,35.00 529.03,35.00 529.79,35.00 530.55,35.00 531.31,35.00 532.07,35.00 532.84,35.00 533.59,35.00 534.35,35.00 535.11,35.00 535.87,35.00 536.63,35.00 537.39,35.00 538.15,35.00 538.91,35.00 539.67,35.00 540.43,35.00 541.20,35.00 541.96,35.00 542.72,35.00 543.48,35.00 544.25,35.00 545.00,35.00 545.77,35.00 546.56,35.00 547.31,35.00 548.08,35.00 548.84,35.00 549.59,35.00 550.35,35.00 551.11,35.00 551.88,35.00 552.64,35.00 553.40,35.00 554.16,35.00 554.92,35.00 555.68,35.00 556.45,35.00 557.21,35.00 557.98,35.00 558.74,35.00 559.51,35.00 560.28,35.00 561.03,35.00 561.79,35.00 562.55,35.00 563.32,35.00 564.09,35.00 564.86,35.00 565.62,35.00 566.39,35.00 567.14,35.00 567.90,35.00 568.66,35.00 569.42,35.00 570.18,35.00 570.94,35.00 571.70,35.00 572.46,35.00 573.22,35.00 573.99,35.00 574.75,35.00 575.51,35.00 576.28,35.00 577.04,35.00 577.80,35.00 578.56,35.00 579.32,35.00 580.07,35.00 580.83,35.00 581.59,35.00 582.35,35.00 583.12,35.00 583.88,35.00 584.65,35.00 585.40,35.00 586.17,35.00 586.94,35.00 587.69,35.00 588.46,35.00 589.23,35.00 589.99,35.00 590.75,35.00 591.51,35.00 592.28,35.00 593.05,35.00 593.81,35.00 594.58,35.00 595.35,35.00 596.12,35.00 596.88,35.00 597.63,35.00 598.40,35.00 599.16,35.00 599.93,35.00 600.70,35.00 601.46,35.00 602.22,35.00 602.97,35.00 603.75,35.00 604.51,35.00 605.28,35.00 606.04,35.00 606.79,35.00 607.55,35.00 608.30,35.00 609.06,35.00 609.83,35.00 610.59,35.00 611.35,35.00 612.11,35.00 612.87,35.00 613.63,35.00 614.41,35.00 615.18,35.00 615.93,35.00 616.70,35.00 617.45,35.00 618.21,35.00 618.97,35.00 619.74,35.00 620.50,35.00 621.26,35.00 622.03,35.00 622.79,35.00 623.55,35.00 624.31,35.00 625.08,35.00 625.86,35.00 626.63,35.00 627.40,35.00 628.16,35.00 628.92,35.00 629.69,35.00 630.45,35.00 631.20,35.00 631.96,35.00 632.73,35.00 633.49,35.00 634.26,35.00 635.02,35.00 635.79,35.00 636.58,35.00 637.34,35.00 638.10,35.00 638.87,35.00 639.63,35.00 640.39,35.00 641.16,35.00 641.93,35.00 642.69,35.00 643.46,35.00 644.23,35.00 644.99,35.00 645.76,35.00 646.52,35.00 647.28,35.00 648.04,35.00 648.80,35.00 649.57,35.00 650.34,35.00 651.10,35.00 651.86,35.00 652.62,35.00 653.39,35.00 654.15,35.00 654.92,35.00 655.68,35.00 656.47,35.00 657.23,35.00 658.00,35.00 658.77,35.00 659.55,35.00 660.32,35.00 661.10,35.00 661.88,35.00 662.66,35.00 663.43,35.00 664.19,35.00 664.95,35.00 665.72,35.00 666.48,35.00 667.25,35.00 668.03,35.00 668.79,35.00 669.55,35.00 670.32,35.00 671.07,35.00 671.83,35.00 672.60,35.00 673.36,35.00 674.12,35.00 674.88,35.00 675.64,35.00 676.40,35.00 677.15,35.00 677.91,35.00 678.68,35.00 679.45,35.00 680.20,35.00 680.97,35.00 681.74,35.00 682.50,35.00 683.26,35.00 684.03,35.00 684.79,35.00 685.55,35.00 686.30,35.00 687.07,35.00 687.84,35.00 688.59,35.00 689.34,35.00 690.10,35.00 690.86,35.00 691.63,35.00 692.39,35.00 693.15,35.00 693.91,35.00 694.67,35.00 695.43,35.00 696.20,35.00 696.96,35.00 697.70,35.00 698.46,35.00 699.21,35.00 699.97,35.00 700.73,35.00 701.51,35.00 702.27,35.00 703.03,35.00 703.79,35.00 704.57,35.00 705.33,35.00 706.09,35.00 706.86,35.00 707.62,35.00 708.38,35.00 709.15,35.00 709.91,35.00 710.69,35.00 711.45,35.00 712.21,35.00 712.97,35.00 713.73,35.00 714.49,35.00 715.25,35.00 716.01,35.00 716.76,35.00 717.52,35.00 718.29,35.00 719.05,35.00 719.81,35.00 720.57,35.00 721.33,35.00 722.09,35.00 722.85,35.00 723.62,35.00 724.38,35.00 725.14,35.00 725.90,35.00 726.67,35.00 727.43,35.00 728.19,35.00 728.95,35.00 729.71,35.00 730.47,35.00 731.24,35.00 732.01,35.00 732.76,35.00 733.52,35.00 734.28,35.00 735.07,35.00 735.83,35.00 736.61,35.00 737.38,35.00 738.14,35.00 738.90,35.00 739.67,35.00 740.43,35.00 741.20,35.00 741.95,35.00 742.72,35.00 743.50,35.00 744.27,35.00 745.03,35.00 745.79,35.00 746.55,35.00 747.32,35.00 748.08,35.00 748.84,35.00 749.60,35.00 750.36,35.00 751.12,35.00 751.88,35.00 752.64,35.00 753.41,35.00 754.16,35.00 754.92,35.00 755.68,35.00 756.44,35.00 757.20,35.00 757.98,35.00 758.73,35.00 759.49,35.00 760.25,35.00 761.02,35.00 761.77,35.00 762.54,35.00 763.30,35.00 764.07,35.00 764.83,35.00 765.59,35.00 766.35,35.00 767.11,35.00 767.87,35.00 768.63,35.00 769.40,35.00 770.18,35.00 770.95,35.00 771.73,35.00 772.51,35.00 773.29,35.00 774.07,35.00 774.84,35.00 775.64,35.00 776.41,35.00 777.19,35.00 777.95,35.00 778.71,35.00 779.48,35.00 780.25,35.00 781.01,35.00 781.78,35.00 782.54,35.00 783.31,35.00 784.07,35.00 784.83,35.00 785.59,35.00 786.35,35.00 787.11,35.00 787.87,35.00 788.63,35.00 789.39,35.00 790.16,35.00 790.92,35.00 791.69,35.00 792.46,35.00 793.22,35.00 793.98,35.00 794.74,35.00 795.50,35.00 796.26,35.00 797.03,35.00 797.79,35.00 798.55,35.00 799.32,35.00 800.07,35.00 800.84,35.00 801.60,35.00 802.36,35.00 803.13,35.00 803.94,35.00 804.73,35.00 805.48,35.00 806.25,35.00 807.00,35.00 807.78,35.00 808.55,35.00 809.32,35.00 810.08,35.00 810.83,35.00 811.58,35.00 812.35,35.00 813.10,35.00 813.87,35.00 814.63,35.00 815.39,35.00 816.16,35.00 816.93,35.00 817.69,35.00 818.45,35.00 819.21,35.00 819.97,35.00 820.74,35.00 821.50,35.00 822.26,35.00 823.02,35.00 823.79,35.00 824.55,35.00 825.31,35.00 826.11,35.00 826.87,35.00 827.63,35.00 828.39,35.00 829.16,35.00 829.92,35.00 830.69,35.00 831.45,35.00 832.21,35.00 832.98,35.00 833.74,35.00 834.51,35.00 835.28,35.00 836.05,35.00 836.81,35.00 837.57,35.00 838.33,35.00 839.09,35.00 839.86,35.00 840.61,35.00 841.39,35.00 842.15,35.00 842.91,35.00 843.67,35.00 844.43,35.00 845.20,35.00 845.96,35.00 846.72,35.00 847.48,35.00 848.24,35.00 849.01,35.00 849.76,35.00 850.53,35.00 851.29,35.00 852.05,35.00 852.82,35.00 853.58,35.00 854.34,35.00 855.09,35.00 855.85,35.00 856.61,35.00 857.38,35.00 858.14,35.00 858.92,35.00 859.69,35.00 860.45,35.00 861.22,35.00 861.98,35.00 862.75,35.00 863.57,35.00 864.35,35.00 865.12,35.00 865.89,35.00 866.66,35.00 867.42,35.00 868.18,35.00 868.94,35.00 869.71,35.00 870.47,35.00 871.24,35.00 872.00,35.00 872.76,35.00 873.54,35.00 874.31,35.00 875.07,35.00 875.83,35.00 876.59,35.00 877.36,35.00 878.13,35.00 878.88,35.00 879.65,35.00 880.42,35.00 881.18,35.00 881.94,35.00 882.71,35.00 883.48,35.00 884.24,35.00 885.01,35.00 885.78,35.00 886.55,35.00 887.30,35.00 888.07,35.00 888.84,35.00 889.59,35.00 890.35,35.00 891.12,35.00 891.87,35.00 892.64,35.00 893.41,35.00 894.16,35.00 894.93,35.00 895.69,35.00 896.46,35.00 897.22,35.00 897.98,35.00 898.74,35.00 899.52,35.00 900.29,35.00 901.03,35.00 901.77,35.00 902.53,35.00 903.30,35.00 904.06,35.00 904.83,35.00 905.60,35.00 906.36,35.00 907.13,35.00 907.90,35.00 908.66,35.00 909.43,35.00 910.18,35.00 910.94,35.00 911.69,35.00 912.45,35.00 913.22,35.00 913.98,35.00 914.74,35.00 915.50,35.00 916.26,35.00 917.02,35.00 917.79,35.00 918.55,35.00 919.30,35.00 920.06,35.00 920.80,35.00 921.58,35.00 922.34,35.00 923.10,35.00 923.87,35.00 924.64,35.00 925.40,35.00 926.16,35.00 926.93,35.00 927.69,35.00 928.45,35.00 929.21,35.00 930.04,35.00 930.79,35.00 931.57,35.00 932.33,35.00 933.10,35.00 933.85,35.00 934.62,35.00 935.39,35.00 936.14,35.00 936.91,35.00 937.66,35.00 938.43,35.00 939.19,35.00 939.96,35.00 940.73,35.00 941.49,35.00 942.25,35.00 943.01,35.00 943.77,35.00 944.54,35.00 945.31,35.00 946.08,35.00 946.86,35.00 947.63,35.00 948.39,35.00 949.15,35.00 949.92,35.00 950.69,35.00 951.45,35.00 952.21,35.00 952.97,35.00 953.73,35.00 954.49,35.00 955.26,35.00 956.03,35.00 956.79,35.00 957.55,35.00 958.32,35.00 959.07,35.00 959.83,35.00 960.59,35.00 961.36,35.00 962.11,35.00 962.88,35.00 963.64,35.00 964.40,35.00 965.15,35.00 965.91,35.00 966.67,35.00 967.43,35.00 968.19,35.00 968.95,35.00 969.71,35.00 970.46,35.00 971.22,35.00 971.98,35.00 972.75,35.00 973.51,35.00 974.26,35.00 975.02,35.00 975.78,35.00 976.55,35.00 977.31,35.00 978.07,35.00 978.83,35.00 979.63,35.00 980.38,35.00 981.15,35.00 981.92,35.00 982.68,35.00 983.45,35.00 984.21,35.00 984.98,35.00 985.74,35.00 986.50,35.00 987.25,35.00 988.01,35.00 988.78,35.00 989.54,35.00 990.30,35.00 991.06,35.00 991.82,35.00 992.58,35.00 993.34,35.00 994.10,35.00 994.87,35.00 995.67,35.00 996.43,35.00 997.18,35.00 997.94,35.00 998.69,35.00 999.47,35.00 1000.22,35.00 1000.99,35.00 1001.75,35.00 1002.51,35.00 1003.28,35.00 1004.04,35.00 1004.81,35.00 1005.57,35.00 1006.33,35.00 1007.09,35.00 1007.86,35.00 1008.62,35.00 1009.38,35.00 1010.13,35.00 1010.89,35.00 1011.65,35.00 1012.41,35.00 1013.17,35.00 1013.93,35.00 1014.69,35.00 1015.46,35.00 1016.22,35.00 1016.98,35.00 1017.74,35.00 1018.50,35.00 1019.26,35.00 1020.02,35.00 1020.79,35.00 1021.55,35.00 1022.31,35.00 1023.08,35.00 1023.83,35.00 1024.59,35.00 1025.35,35.00 1026.11,35.00 1026.87,35.00 1027.65,35.00 1028.41,35.00 1029.17,35.00 1029.93,35.00 1030.70,35.00 1031.46,35.00 1032.24,35.00 1033.01,35.00 1033.82,35.00 1034.58,35.00 1035.40,35.00 1036.16,35.00 1036.92,35.00 1037.67,35.00 1038.44,35.00 1039.20,35.00 1039.96,35.00 1040.72,35.00 1041.48,35.00 1042.24,35.00 1043.01,35.00 1043.76,35.00 1044.52,35.00 1045.28,35.00 1046.05,35.00 1046.80,35.00 1047.56,35.00 1048.32,35.00 1049.09,35.00 1049.85,35.00 1050.62,35.00 1051.37,35.00 1052.12,35.00 1052.89,35.00 1053.65,35.00 1054.42,35.00 1055.18,35.00 1055.94,35.00 1056.71,35.00 1057.47,35.00 1058.22,35.00 1058.98,35.00 1059.75,35.00 1060.50,35.00 1061.26,35.00 1062.02,35.00 1062.77,35.00 1063.53,35.00 1064.29,35.00 1065.05,35.00 1065.81,35.00 1066.58,35.00 1067.37,35.00 1068.14,35.00 1068.89,35.00 1069.65,35.00 1070.41,35.00 1071.16,35.00 1071.92,35.00 1072.68,35.00 1073.44,35.00 1074.20,35.00 1074.95,35.00 1075.71,35.00 1076.46,35.00 1077.23,35.00 1077.99,35.00 1078.74,35.00 1079.50,35.00 1080.27,35.00 1081.03,35.00 1081.79,35.00 1082.56,35.00 1083.31,35.00 1084.08,35.00 1084.84,35.00 1085.60,35.00 1086.36,35.00 1087.13,35.00 1087.89,35.00 1088.66,35.00 1089.42,35.00 1090.17,35.00 1090.94,35.00 1091.70,35.00 1092.46,35.00 1093.24,35.00 1094.00,35.00 1094.77,35.00 1095.54,35.00 1096.30,35.00 1097.06,35.00 1097.82,35.00 1098.58,35.00 1099.35,35.00 1100.11,35.00 1100.86,35.00 1101.63,35.00 1102.40,35.00 1103.16,35.00 1103.93,35.00 1104.70,35.00 1105.48,35.00 1106.29,35.00 1107.06,35.00 1107.82,35.00 1108.58,35.00 1109.33,35.00 1110.10,35.00 1110.86,35.00 1111.62,35.00 1112.39,35.00 1113.15,35.00 1113.92,35.00 1114.68,35.00 1115.43,35.00 1116.19,35.00 1116.96,35.00 1117.73,35.00 1118.50,35.00 1119.28,35.00 1120.05,35.00 1120.82,35.00 1121.61,35.00 1122.38,35.00 1123.19,35.00 1123.95,35.00 1124.72,35.00 1125.48,35.00 1126.24,35.00 1127.01,35.00 1127.77,35.00 1128.52,35.00 1129.29,35.00 1130.04,35.00 1130.81,35.00 1131.59,35.00 1132.35,35.00 1133.11,35.00 1133.89,35.00 1134.78,35.00 1135.54,35.00 1136.30,35.00 1137.05,35.00 1137.81,35.00 1138.56,35.00 1139.32,35.00 1140.02,35.00 1140.70,35.00 1141.53,35.00 1142.24,35.00 1142.94,35.00 1143.72,35.00 1144.38,35.00 1145.13,35.00 1145.90,35.00 1146.66,35.00 1147.42,35.00 1148.17,35.00 1148.93,35.00 1149.69,35.00 1150.45,35.00 1151.21,35.00 1151.97,35.00 1152.73,35.00 1153.49,35.00 1154.25,35.00 1155.00,35.00 1155.77,35.00 1156.52,35.00 1157.27,35.00 1158.03,35.00 1158.78,35.00 1159.55,35.00 1160.30,35.00 1161.06,35.00 1161.83,35.00 1162.59,35.00 1163.34,35.00 1164.10,35.00 1164.85,35.00 1165.61,35.00 1166.37,35.00 1167.12,35.00 1167.88,35.00 1168.64,35.00 1169.39,35.00 1170.15,35.00 1170.91,35.00 1171.67,35.00 1172.43,35.00 1173.19,35.00 1173.95,35.00 1174.70,35.00 1175.46,35.00 1176.23,35.00 1176.98,35.00 1177.74,35.00 1178.49,35.00 1179.24,35.00 1180.00,35.00"/>
<rect x="70" y="332" width="12" height="12" fill="#2ca02c" fill-opacity="0.95"/>
<text x="88" y="342" font-size="11" fill="#333" font-family="Arial, Helvetica, sans-serif">nsc1.utdallas.edu</text>
<rect x="350" y="332" width="12" height="12" fill="#2ca02c" fill-opacity="0.80"/>
<text x="368" y="342" font-size="11" fill="#333" font-family="Arial, Helvetica, sans-serif">nsc2.utdallas.edu</text>
<rect x="630" y="332" width="12" height="12" fill="#2ca02c" fill-opacity="0.65"/>
<text x="648" y="342" font-size="11" fill="#333" font-family="Arial, Helvetica, sans-serif">nsc3.utdallas.edu</text>
<rect x="910" y="332" width="12" height="12" fill="#2ca02c" fill-opacity="0.50"/>
<text x="928" y="342" font-size="11" fill="#333" font-family="Arial, Helvetica, sans-serif">nsc4.utdallas.edu</text>
</svg>