<?xml version="1.0" encoding="UTF-8"?>
<svg xmlns="http://www.w3.org/2000/svg" width="1200" height="360" viewBox="0 0 1200 360" role="img" aria-label="Mumax3 Health (%)">
<rect width="100%" height="100%" fill="#ffffff"/>
<text x="600.0" y="22" text-anchor="middle" font-size="16" font-family="Arial, Helvetica, sans-serif" font-weight="bold">Mumax3 Health (%)</text>
<line x1="70" y1="35.00" x2="1180" y2="35.00" stroke="#e3e3e3" stroke-width="1"/>
<text x="62" y="39.00" text-anchor="end" font-size="11" fill="#444" font-family="Arial, Helvetica, sans-serif">100</text>
<line x1="70" y1="89.00" x2="1180" y2="89.00" stroke="#e3e3e3" stroke-width="1"/>
<text x="62" y="93.00" text-anchor="end" font-size="11" fill="#444" font-family="Arial, Helvetica, sans-serif">80</text>
<line x1="70" y1="143.00" x2="1180" y2="143.00" stroke="#e3e3e3" stroke-width="1"/>
<text x="62" y="147.00" text-anchor="end" font-size="11" fill="#444" font-family="Arial, Helvetica, sans-serif">60</text>
<line x1="70" y1="197.00" x2="1180" y2="197.00" stroke="#e3e3e3" stroke-width="1"/>
<text x="62" y="201.00" text-anchor="end" font-size="11" fill="#444" font-family="Arial, Helvetica, sans-serif">40</text>
<line x1="70" y1="251.00" x2="1180" y2="251.00" stroke="#e3e3e3" stroke-width="1"/>
<text x="62" y="255.00" text-anchor="end" font-size="11" fill="#444" font-family="Arial, Helvetica, sans-serif">20</text>
<line x1="70" y1="305.00" x2="1180" y2="305.00" stroke="#e3e3e3" stroke-width="1"/>
<text x="62" y="309.00" text-anchor="end" font-size="11" fill="#444" font-family="Arial, Helvetica, sans-serif">0</text>
<line x1="70" y1="35" x2="70" y2="305" stroke="#999"/>
<line x1="70" y1="305" x2="1180" y2="305" stroke="#999"/>
<text x="70.00" y="323" text-anchor="middle" font-size="10" fill="#444" font-family="Arial, Helvetica, sans-serif">2026-02-11 16:38</text>
<text x="347.50" y="323" text-anchor="middle" font-size="10" fill="#444" font-family="Arial, Helvetica, sans-serif">2026-02-12 22:36</text>
<text x="625.00" y="323" text-anchor="middle" font-size="10" fill="#444" font-family="Arial, Helvetica, sans-serif">2026-02-14 04:35</text>
<text x="902.50" y="323" text-anchor="middle" font-size="10" fill="#444" font-family="Arial, Helvetica, sans-serif">2026-02-15 10:34</text>
<text x="1180.00" y="323" text-anchor="middle" font-size="10" fill="#444" font-family="Arial, Helvetica, sans-serif">2026-02-16 16:33</text>
<polyline fill="none" stroke="#2ca02c" stroke-opacity="0.95" stroke-width="2" points="70.83,35.00 71.66,35.00 72.49,35.00 73.32,35.00 74.16,35.00 74.99,35.00 75.82,35.00 76.72,35.00 77.54,35.00 78.37,35.00 79.19,35.00 80.04,35.00 80.86,35.00 81.69,35.00 83.18,35.00 84.47,35.00 85.31,35.00 86.16,35.00 86.99,35.00 87.82,35.00 88.63,35.00 89.47,35.00 90.29,35.00 91.13,35.00 91.97,35.00 92.81,35.00 93.64,35.00 94.48,35.00 95.35,35.00 96.19,35.00 97.02,35.00 97.87,35.00 98.70,35.00 99.53,35.00 100.38,35.00 101.21,35.00 102.04,35.00 102.88,35.00 103.70,35.00 104.53,35.00 105.35,35.00 106.18,35.00 107.01,35.00 107.84,35.00 108.69,35.00 109.53,35.00 110.35,35.00 111.17,35.00 112.01,35.00 112.84,35.00 113.79,35.00 114.62,35.00 115.45,35.00 116.27,35.00 117.10,35.00 117.92,35.00 118.75,35.00 119.58,35.00 120.41,35.00 121.25,35.00 122.08,35.00 122.90,35.00 123.74,35.00 124.58,35.00 125.41,35.00 126.24,35.00 127.06,35.00 127.88,35.00 128.71,35.00 129.53,35.00 130.36,35.00 131.19,35.00 132.01,35.00 132.84,35.00 133.67,35.00 134.49,35.00 135.33,35.00 136.15,35.00 136.98,35.00 137.83,35.00 138.66,35.00 139.49,35.00 140.32,35.00 141.15,35.00 141.98,35.00 142.81,35.00 143.63,35.00 144.45,35.00 145.29,35.00 146.12,35.00 146.95,35.00 147.79,35.00 148.61,35.00 149.44,35.00 150.26,35.00 151.09,35.00 151.91,35.00 152.75,35.00 153.57,35.00 154.40,35.00 155.23,35.00 156.06,35.00 156.89,35.00 157.74,35.00 158.57,35.00 159.40,35.00 160.22,35.00 161.05,35.00 161.88,35.00 162.72,35.00 163.55,35.00 164.37,35.00 165.20,35.00 166.04,35.00 166.87,35.00 167.70,35.00 168.55,35.00 169.37,35.00 170.20,35.00 171.03,35.00 171.86,35.00 172.69,35.00 173.53,35.00 174.43,35.00 175.25,35.00 176.09,35.00 176.92,35.00 177.74,35.00 178.56,35.00 179.38,35.00 180.21,35.00 181.04,35.00 181.87,35.00 182.69,35.00 183.52,35.00 184.35,35.00 185.17,35.00 186.02,35.00 186.84,35.00 187.67,35.00 188.49,35.00 189.32,35.00 190.15,35.00 190.98,35.00 191.82,35.00 192.65,35.00 193.48,35.00 194.31,35.00 195.13,35.00 195.95,35.00 196.78,35.00 197.61,35.00 198.44,35.00 199.28,35.00 200.11,35.00 200.94,35.00 201.78,35.00 202.61,35.00 203.43,35.00 204.26,35.00 205.09,35.00 205.94,35.00 206.78,35.00 207.60,35.00 208.44,35.00 209.26,35.00 210.08,35.00 210.91,35.00 211.74,35.00 212.57,35.00 213.39,35.00 214.21,35.00 215.05,35.00 215.88,35.00 216.71,35.00 217.54,35.00 218.39,35.00 219.22,35.00 220.05,35.00 220.87,35.00 221.69,35.00 222.60,35.00 223.44,35.00 224.27,35.00 225.09,35.00 225.91,35.00 226.74,35.00 227.57,35.00 228.40,35.00 229.24,35.00 230.06,35.00 230.89,35.00 231.72,35.00 232.57,35.00 233.39,35.00 234.22,35.00 235.05,35.00 235.88,35.00 236.73,35.00 237.58,35.00 238.40,35.00 239.23,35.00 240.06,35.00 240.89,35.00 241.72,35.00 242.55,35.00 243.39,35.00 244.22,35.00 245.04,35.00 245.88,35.00 246.71,35.00 247.54,35.00 248.37,35.00 249.21,35.00 250.04,35.00 250.86,35.00 251.68,35.00 252.51,35.00 253.34,35.00 254.17,35.00 254.99,35.00 255.82,35.00 256.64,35.00 257.47,35.00 258.31,35.00 259.14,35.00 259.97,35.00 260.81,35.00 261.64,35.00 262.48,35.00 263.30,35.00 264.14,35.00 264.96,35.00 265.79,35.00 266.62,35.00 267.47,35.00 268.30,35.00 269.14,35.00 269.97,35.00 270.79,35.00 271.63,35.00 272.45,35.00 273.27,35.00 274.11,35.00 274.94,35.00 275.77,35.00 276.60,35.00 277.44,35.00 278.26,35.00 279.09,35.00 279.93,35.00 280.77,35.00 281.59,35.00 282.42,35.00 283.26,35.00 284.10,35.00 284.93,35.00 285.76,35.00 286.58,35.00 287.50,35.00 288.34,35.00 289.17,35.00 290.00,35.00 290.84,35.00 291.67,35.00 292.50,35.00 293.34,35.00 294.16,35.00 295.01,35.00 295.86,35.00 296.68,35.00 297.51,35.00 298.34,35.00 299.17,35.00 300.00,35.00 300.86,35.00 301.69,35.00 302.52,35.00 303.36,35.00 304.25,35.00 305.08,35.00 306.13,35.00 307.53,35.00 308.38,35.00 309.23,35.00 310.06,35.00 310.87,35.00 311.69,35.00 312.54,35.00 313.37,35.00 314.21,35.00 315.07,35.00 315.93,35.00 316.81,35.00 317.64,35.00 318.47,35.00 319.30,35.00 320.14,35.00 320.98,35.00 321.82,35.00 322.65,35.00 323.48,35.00 324.34,35.00 325.17,35.00 325.99,35.00 326.83,35.00 327.67,35.00 328.53,35.00 329.37,35.00 330.20,35.00 331.05,35.00 331.85,35.00 332.67,35.00 333.52,35.00 334.34,35.00 335.19,35.00 336.04,35.00 336.88,35.00 337.70,35.00 338.54,35.00 339.38,35.00 340.21,35.00 341.04,35.00 341.86,35.00 342.70,35.00 343.53,35.00 344.36,35.00 345.35,35.00 346.32,35.00 347.30,35.00 348.27,35.00 349.22,35.00 350.17,35.00 351.16,35.00 352.12,35.00 352.96,35.00 353.78,35.00 354.60,35.00 355.43,35.00 356.26,35.00 357.09,35.00 357.91,35.00 358.74,35.00 359.57,35.00 360.39,35.00 361.22,35.00 362.05,35.00 362.88,35.00 363.70,35.00 364.53,35.00 365.35,35.00 366.18,35.00 367.00,35.00 367.84,35.00 368.67,35.00 369.49,35.00 370.31,35.00 371.14,35.00 371.97,35.00 372.80,35.00 373.63,35.00 374.45,35.00 375.28,35.00 376.11,35.00 376.94,35.00 377.77,35.00 378.60,35.00 379.42,35.00 380.25,35.00 381.06,35.00 381.88,35.00 382.71,35.00 383.53,35.00 384.36,35.00 385.18,35.00 386.01,35.00 386.84,35.00 387.66,35.00 388.48,35.00 389.29,35.00 390.15,35.00 391.04,35.00 391.87,35.00 392.70,35.00 393.53,35.00 394.35,35.00 395.17,35.00 396.00,35.00 396.82,35.00 397.80,35.00 398.77,35.00 399.74,35.00 400.71,35.00 401.69,35.00 402.65,35.00 403.64,35.00 404.65,35.00 405.55,35.00 406.44,35.00 407.27,35.00 408.11,35.00 408.94,35.00 409.76,35.00 410.59,35.00 411.42,35.00 412.24,35.00 413.07,35.00 413.90,35.00 414.73,35.00 415.56,35.00 416.38,35.00 417.22,35.00 418.05,35.00 418.87,35.00 419.60,35.00 420.45,35.00 421.28,35.00 422.13,35.00 422.96,35.00 423.78,35.00 424.62,35.00 425.45,35.00 426.29,35.00 427.13,35.00 427.96,35.00 428.81,35.00 429.63,35.00 430.45,35.00 431.28,35.00 432.10,35.00 432.92,35.00 433.75,35.00 434.59,35.00 435.41,35.00 436.24,35.00 437.07,35.00 437.89,35.00 438.73,35.00 439.56,35.00 440.39,35.00 441.22,35.00 442.05,35.00 442.88,35.00 443.72,35.00 444.55,35.00 445.40,35.00 446.22,35.00 447.05,35.00 447.88,35.00 448.70,35.00 449.52,35.00 450.36,35.00 451.18,35.00 452.01,35.00 452.84,35.00 453.66,35.00 454.49,35.00 455.32,35.00 456.16,35.00 456.99,35.00 457.99,35.00 458.84,35.00 459.69,35.00 460.52,35.00 461.35,35.00 462.19,35.00 463.01,35.00 463.84,35.00 464.68,35.00 465.51,35.00 466.34,35.00 467.17,35.00 468.01,35.00 468.83,35.00 469.69,35.00 470.54,35.00 471.37,35.00 472.20,35.00 473.03,35.00 473.85,35.00 474.68,35.00 475.51,35.00 476.37,35.00 477.21,35.00 478.04,35.00 478.87,35.00 479.70,35.00 480.53,35.00 481.36,35.00 482.19,35.00 483.02,35.00 483.86,35.00 484.69,35.00 485.52,35.00 486.35,35.00 487.18,35.00 488.00,35.00 488.85,35.00 489.68,35.00 490.51,35.00 491.33,35.00 492.16,35.00 493.00,35.00 493.84,35.00 494.84,35.00 495.69,35.00 496.52,35.00 497.35,35.00 498.17,35.00 499.01,35.00 499.84,35.00 500.67,35.00 501.52,35.00 502.34,35.00 503.17,35.00 504.00,35.00 504.83,35.00 505.65,35.00 506.48,35.00 507.32,35.00 508.14,35.00 508.97,35.00 509.80,35.00 510.62,35.00 511.47,35.00 512.29,35.00 513.12,35.00 513.96,35.00 514.80,35.00 515.62,35.00 516.45,35.00 517.28,35.00 518.13,35.00 518.96,35.00 519.79,35.00 520.63,35.00 521.46,35.00 522.28,35.00 523.12,35.00 523.95,35.00 524.80,35.00 525.63,35.00 526.46,35.00 527.28,35.00 528.10,35.00 528.93,35.00 529.76,35.00 530.59,35.00 531.43,35.00 532.27,35.00 533.11,35.00 533.92,35.00 534.76,35.00 535.58,35.00 536.42,35.00 537.24,35.00 538.07,35.00 538.90,35.00 539.74,35.00 540.57,35.00 541.40,35.00 542.24,35.00 543.08,35.00 543.91,35.00 544.74,35.00 545.58,35.00 546.51,35.00 547.42,35.00 548.31,35.00 549.15,35.00 550.01,35.00 550.85,35.00 551.68,35.00 552.50,35.00 553.28,35.00 554.14,35.00 554.97,35.00 555.82,35.00 556.63,35.00 557.47,35.00 558.29,35.00 559.13,35.00 559.95,35.00 560.79,35.00 561.62,35.00 562.45,35.00 563.28,35.00 564.12,35.00 564.96,35.00 565.79,35.00 566.63,35.00 567.46,35.00 568.29,35.00 569.14,35.00 569.97,35.00 570.79,35.00 571.62,35.00 572.46,35.00 573.28,35.00 574.11,35.00 574.94,35.00 575.78,35.00 576.62,35.00 577.44,35.00 578.27,35.00 579.10,35.00 579.94,35.00 580.77,35.00 581.61,35.00 582.43,35.00 583.26,35.00 584.10,35.00 584.93,35.00 585.77,35.00 586.61,35.00 587.44,35.00 588.27,35.00 589.11,35.00 589.94,35.00 590.78,35.00 591.63,35.00 592.46,35.00 593.30,35.00 594.13,35.00 594.96,35.00 595.79,35.00 596.62,35.00 597.46,35.00 598.30,35.00 599.12,35.00 599.96,35.00 600.80,35.00 601.63,35.00 602.47,35.00 603.30,35.00 604.14,35.00 604.97,35.00 605.81,35.00 606.65,35.00 607.48,35.00 608.31,35.00 609.15,35.00 609.98,35.00 610.83,35.00 611.67,35.00 612.51,35.00 613.34,35.00 614.17,35.00 615.00,35.00 615.83,35.00 616.66,35.00 617.50,35.00 618.33,35.00 619.16,35.00 619.99,35.00 620.82,35.00 621.66,35.00 622.50,35.00 623.32,35.00 624.17,35.00 625.00,35.00 625.84,35.00 626.67,35.00 627.50,35.00 628.32,35.00 629.15,35.00 629.98,35.00 630.82,35.00 631.66,35.00 632.49,35.00 633.33,35.00 634.16,35.00 635.00,35.00 635.84,35.00 636.67,35.00 637.50,35.00 638.34,35.00 639.17,35.00 640.01,35.00 640.84,35.00 641.69,35.00 642.52,35.00 643.36,35.00 644.21,35.00 645.04,35.00 645.88,35.00 646.72,35.00 647.54,35.00 648.38,35.00 649.22,35.00 650.06,35.00 650.90,35.00 651.73,35.00 652.56,35.00 653.39,35.00 654.24,35.00 655.07,35.00 655.91,35.00 656.74,35.00 657.57,35.00 658.40,35.00 659.22,35.00 660.05,35.00 660.89,35.00 661.72,35.00 662.56,35.00 663.39,35.00 664.22,35.00 665.06,35.00 665.91,35.00 666.75,35.00 667.58,35.00 668.41,35.00 669.24,35.00 670.07,35.00 670.90,35.00 671.74,35.00 672.57,35.00 673.41,35.00 674.25,35.00 675.08,35.00 675.91,35.00 676.74,35.00 677.59,35.00 678.44,35.00 679.28,35.00 680.12,35.00 680.96,35.00 681.79,35.00 682.64,35.00 683.46,35.00 684.29,35.00 685.12,35.00 685.96,35.00 686.79,35.00 687.63,35.00 688.47,35.00 689.31,35.00 690.18,35.00 691.01,35.00 691.84,35.00 692.68,35.00 693.51,35.00 694.35,35.00 695.19,35.00 696.03,35.00 696.87,35.00 697.71,35.00 698.54,35.00 699.38,35.00 700.22,35.00 701.05,35.00 701.89,35.00 702.72,35.00 703.55,35.00 704.39,35.00 705.23,35.00 706.07,35.00 706.90,35.00 707.74,35.00 708.58,35.00 709.41,35.00 710.25,35.00 711.08,35.00 711.95,35.00 712.78,35.00 713.63,35.00 714.46,35.00 715.31,35.00 716.17,35.00 717.02,35.00 717.86,35.00 718.72,35.00 719.56,35.00 720.40,35.00 721.23,35.00 722.07,35.00 722.90,35.00 723.74,35.00 724.60,35.00 725.43,35.00 726.27,35.00 727.10,35.00 727.93,35.00 728.76,35.00 729.60,35.00 730.43,35.00 731.27,35.00 732.10,35.00 732.93,35.00 733.76,35.00 734.58,35.00 735.42,35.00 736.25,35.00 737.09,35.00 737.92,35.00 738.77,35.00 739.61,35.00 740.43,35.00 741.27,35.00 742.11,35.00 742.94,35.00 743.77,35.00 744.60,35.00 745.44,35.00 746.28,35.00 747.10,35.00 747.93,35.00 748.76,35.00 749.59,35.00 750.43,35.00 751.26,35.00 752.09,35.00 752.93,35.00 753.76,35.00 754.59,35.00 755.43,35.00 756.26,35.00 757.08,35.00 757.91,35.00 758.73,35.00 759.56,35.00 760.40,35.00 761.25,35.00 762.08,35.00 762.91,35.00 763.74,35.00 764.59,35.00 765.43,35.00 766.26,35.00 767.11,35.00 767.94,35.00 768.77,35.00 769.61,35.00 770.45,35.00 771.29,35.00 772.13,35.00 772.96,35.00 773.79,35.00 774.62,35.00 775.45,35.00 776.28,35.00 777.12,35.00 777.94,35.00 778.77,35.00 779.61,35.00 780.45,35.00 781.28,35.00 782.11,35.00 782.94,35.00 783.77,35.00 784.61,35.00 785.45,35.00 786.28,35.00 787.11,35.00 787.95,35.00 788.79,35.00 789.62,35.00 790.45,35.00 791.29,35.00 792.12,35.00 792.95,35.00 793.79,35.00 794.63,35.00 795.46,35.00 796.29,35.00 797.12,35.00 797.98,35.00 798.81,35.00 799.66,35.00 800.51,35.00 801.34,35.00 802.18,35.00 803.01,35.00 803.85,35.00 804.69,35.00 805.52,35.00 806.36,35.00 807.21,35.00 808.05,35.00 808.88,35.00 809.72,35.00 810.55,35.00 811.39,35.00 812.22,35.00 813.05,35.00 813.88,35.00 814.72,35.00 815.55,35.00 816.38,35.00 817.21,35.00 818.05,35.00 818.88,35.00 819.71,35.00 820.54,35.00 821.37,35.00 822.20,35.00 823.05,35.00 823.88,35.00 824.71,35.00 825.55,35.00 826.38,35.00 827.20,35.00 828.05,35.00 828.88,35.00 829.73,35.00 830.56,35.00 831.38,35.00 832.21,35.00 833.05,35.00 833.89,35.00 834.71,35.00 835.56,35.00 836.41,35.00 837.26,35.00 838.11,35.00 838.96,35.00 839.81,35.00 840.67,35.00 841.52,35.00 842.38,35.00 843.23,35.00 844.09,35.00 844.92,35.00 845.75,35.00 846.59,35.00 847.43,35.00 848.27,35.00 849.10,35.00 849.94,35.00 850.78,35.00 851.61,35.00 852.45,35.00 853.28,35.00 854.11,35.00 854.94,35.00 855.77,35.00 856.60,35.00 857.44,35.00 858.28,35.00 859.11,35.00 859.96,35.00 860.80,35.00 861.63,35.00 862.46,35.00 863.29,35.00 864.13,35.00 864.96,35.00 865.80,35.00 866.63,35.00 867.46,35.00 868.30,35.00 869.13,35.00 869.97,35.00 870.81,35.00 871.64,35.00 872.47,35.00 873.37,35.00 874.23,35.00 875.06,35.00 875.89,35.00 876.72,35.00 877.57,35.00 878.41,35.00 879.25,35.00 880.09,35.00 880.91,35.00 881.73,35.00 882.57,35.00 883.40,35.00 884.23,35.00 885.07,35.00 885.90,35.00 886.74,35.00 887.58,35.00 888.42,35.00 889.25,35.00 890.08,35.00 890.91,35.00 891.75,35.00 892.59,35.00 893.42,35.00 894.25,35.00 895.09,35.00 895.93,35.00 896.76,35.00 897.63,35.00 898.47,35.00 899.30,35.00 900.13,35.00 900.97,35.00 901.80,35.00 902.64,35.00 903.48,35.00 904.31,35.00 905.15,35.00 905.99,35.00 906.83,35.00 907.67,35.00 908.51,35.00 909.34,35.00 910.17,35.00 911.01,35.00 911.84,35.00 912.68,35.00 913.51,35.00 914.36,35.00 915.19,35.00 916.02,35.00 916.86,35.00 917.69,35.00 918.53,35.00 919.36,35.00 920.19,35.00 921.02,35.00 921.86,35.00 922.70,35.00 923.52,35.00 924.36,35.00 925.19,35.00 926.03,35.00 926.87,35.00 927.70,35.00 928.53,35.00 929.36,35.00 930.19,35.00 931.02,35.00 931.86,35.00 932.69,35.00 933.55,35.00 934.38,35.00 935.22,35.00 936.06,35.00 936.89,35.00 937.74,35.00 938.64,35.00 939.49,35.00 940.33,35.00 941.17,35.00 942.02,35.00 942.85,35.00 943.68,35.00 944.52,35.00 945.35,35.00 946.19,35.00 947.03,35.00 947.86,35.00 948.70,35.00 949.55,35.00 950.39,35.00 951.23,35.00 952.06,35.00 952.89,35.00 953.73,35.00 954.57,35.00 955.40,35.00 956.23,35.00 957.08,35.00 957.91,35.00 958.75,35.00 959.59,35.00 960.43,35.00 961.26,35.00 962.11,35.00 962.95,35.00 963.79,35.00 964.61,35.00 965.45,35.00 966.29,35.00 967.12,35.00 967.95,35.00 968.79,35.00 969.62,35.00 970.46,35.00 971.30,35.00 972.12,35.00 972.96,35.00 973.80,35.00 974.64,35.00 975.46,35.00 976.31,35.00 977.14,35.00 977.99,35.00 978.82,35.00 979.64,35.00 980.45,35.00 981.28,35.00 982.12,35.00 982.96,35.00 983.80,35.00 984.64,35.00 985.47,35.00 986.32,35.00 987.16,35.00 987.99,35.00 988.83,35.00 989.65,35.00 990.49,35.00 991.31,35.00 992.14,35.00 992.98,35.00 993.82,35.00 994.65,35.00 995.48,35.00 996.31,35.00 997.14,35.00 997.98,35.00 998.82,35.00 999.64,35.00 1000.47,35.00 1001.28,35.00 1002.13,35.00 1002.97,35.00 1003.80,35.00 1004.64,35.00 1005.49,35.00 1006.32,35.00 1007.15,35.00 1007.99,35.00 1008.82,35.00 1009.66,35.00 1010.49,35.00 1011.39,35.00 1012.22,35.00 1013.06,35.00 1013.90,35.00 1014.75,35.00 1015.57,35.00 1016.40,35.00 1017.25,35.00 1018.08,35.00 1018.91,35.00 1019.74,35.00 1020.57,35.00 1021.41,35.00 1022.26,35.00 1023.09,35.00 1023.92,35.00 1024.76,35.00 1025.59,35.00 1026.43,35.00 1027.27,35.00 1028.11,35.00 1028.95,35.00 1029.81,35.00 1030.64,35.00 1031.48,35.00 1032.32,35.00 1033.16,35.00 1034.00,35.00 1034.83,35.00 1035.66,35.00 1036.49,35.00 1037.33,35.00 1038.16,35.00 1039.00,35.00 1039.84,35.00 1040.67,35.00 1041.51,35.00 1042.35,35.00 1043.17,35.00 1044.00,35.00 1044.84,35.00 1045.68,35.00 1046.50,35.00 1047.34,35.00 1048.17,35.00 1049.00,35.00 1049.83,35.00 1050.66,35.00 1051.49,35.00 1052.32,35.00 1053.15,35.00 1053.98,35.00 1054.82,35.00 1055.64,35.00 1056.47,35.00 1057.30,35.00 1058.14,35.00 1058.97,35.00 1059.80,35.00 1060.63,35.00 1061.46,35.00 1062.31,35.00 1063.13,35.00 1063.96,35.00 1064.80,35.00 1065.67,35.00 1066.50,35.00 1067.34,35.00 1068.18,35.00 1069.02,35.00 1069.85,35.00 1070.69,35.00 1071.53,35.00 1072.36,35.00 1073.19,35.00 1074.02,35.00 1074.85,35.00 1075.69,35.00 1076.52,35.00 1077.36,35.00 1078.19,35.00 1079.02,35.00 1079.85,35.00 1080.68,35.00 1081.52,35.00 1082.36,35.00 1083.23,35.00 1084.06,35.00 1084.89,35.00 1085.71,35.00 1086.54,35.00 1087.39,35.00 1088.22,35.00 1089.05,35.00 1089.89,35.00 1090.72,35.00 1091.56,35.00 1092.40,35.00 1093.23,35.00 1094.07,35.00 1094.90,35.00 1095.74,35.00 1096.57,35.00 1097.40,35.00 1098.23,35.00 1099.06,35.00 1099.89,35.00 1100.73,35.00 1101.56,35.00 1102.39,35.00 1103.22,35.00 1104.06,35.00 1104.89,35.00 1105.72,35.00 1106.56,35.00 1107.39,35.00 1108.22,35.00 1109.06,35.00 1109.89,35.00 1110.73,35.00 1111.56,35.00 1112.39,35.00 1113.23,35.00 1114.06,35.00 1114.88,35.00 1115.72,35.00 1116.56,35.00 1117.38,35.00 1118.24,35.00 1119.07,35.00 1119.90,35.00 1120.74,35.00 1121.58,35.00 1122.41,35.00 1123.26,35.00 1124.10,35.00 1124.99,35.00 1125.82,35.00 1126.72,35.00 1127.55,35.00 1128.38,35.00 1129.21,35.00 1130.04,35.00 1130.88,35.00 1131.71,35.00 1132.54,35.00 1133.38,35.00 1134.21,35.00 1135.05,35.00 1135.88,35.00 1136.71,35.00 1137.54,35.00 1138.37,35.00 1139.20,35.00 1140.03,35.00 1140.86,35.00 1141.70,35.00 1142.54,35.00 1143.38,35.00 1144.20,35.00 1145.03,35.00 1145.87,35.00 1146.70,35.00 1147.54,35.00 1148.37,35.00 1149.21,35.00 1150.04,35.00 1150.88,35.00 1151.70,35.00 1152.53,35.00 1153.37,35.00 1154.20,35.00 1155.03,35.00 1155.85,35.00 1156.68,35.00 1157.51,35.00 1158.35,35.00 1159.17,35.00 1160.01,35.00 1160.85,35.00 1161.71,35.00 1162.55,35.00 1163.38,35.00 1164.21,35.00 1165.04,35.00 1165.86,35.00 1166.69,35.00 1167.53,35.00 1168.36,35.00 1169.19,35.00 1170.02,35.00 1170.84,35.00 1171.67,35.00 1172.50,35.00 1173.34,35.00 1174.16,35.00 1175.00,35.00 1175.84,35.00 1176.66,35.00 1177.49,35.00 1178.34,35.00 1179.17,35.00 1180.00,35.00"/>
<polyline fill="none" stroke="#2ca02c" stroke-opacity="0.80" stroke-width="2" points="70.00,35.00 70.83,35.00 71.66,35.00 72.49,35.00 73.32,35.00 74.16,35.00 74.99,35.00 75.82,35.00 76.72,35.00 77.54,35.00 78.37,35.00 79.19,35.00 80.04,35.00 80.86,35.00 81.69,35.00 83.18,35.00 84.47,35.00 85.31,35.00 86.16,35.00 86.99,35.00 87.82,35.00 88.63,35.00 89.47,35.00 90.29,35.00 91.13,35.00 91.97,35.00 92.81,35.00 93.64,35.00 94.48,35.00 95.35,35.00 96.19,35.00 97.02,35.00 97.87,35.00 98.70,35.00 99.53,35.00 100.38,35.00 101.21,35.00 102.04,35.00 102.88,35.00 103.70,35.00 104.53,35.00 105.35,35.00 106.18,35.00 107.01,35.00 107.84,35.00 108.69,35.00 109.53,35.00 110.35,35.00 111.17,35.00 112.01,35.00 112.84,35.00 113.79,35.00 114.62,35.00 115.45,35.00 116.27,35.00 117.10,35.00 117.92,35.00 118.75,35.00 119.58,35.00 120.41,35.00 121.25,35.00 122.08,35.00 122.90,35.00 123.74,35.00 124.58,35.00 125.41,35.00 126.24,35.00 127.06,35.00 127.88,35.00 128.71,35.00 129.53,35.00 130.36,35.00 131.19,35.00 132.01,35.00 132.84,35.00 133.67,35.00 134.49,35.00 135.33,35.00 136.15,35.00 136.98,35.00 137.83,35.00 138.66,35.00 139.49,35.00 140.32,35.00 141.15,35.00 141.98,35.00 142.81,35.00 143.63,35.00 144.45,35.00 145.29,35.00 146.12,35.00 146.95,35.00 147.79,35.00 148.61,35.00 149.44,35.00 150.26,35.00 151.09,35.00 151.91,35.00 152.75,35.00 153.57,35.00 154.40,35.00 155.23,35.00 156.06,35.00 156.89,35.00 157.74,35.00 158.57,35.00 159.40,35.00 160.22,35.00 161.05,35.00 161.88,35.00 162.72,35.00 163.55,35.00 164.37,35.00 165.20,35.00 166.04,35.00 166.87,35.00 167.70,35.00 168.55,35.00 169.37,35.00 170.20,35.00 171.03,35.00 171.86,35.00 172.69,35.00 173.53,35.00 174.43,35.00 175.25,35.00 176.09,35.00 176.92,35.00 177.74,35.00 178.56,35.00 179.38,35.00 180.21,35.00 181.04,35.00 181.87,35.00 182.69,35.00 183.52,35.00 184.35,35.00 185.17,35.00 186.02,35.00 186.84,35.00 187.67,35.00 188.49,35.00 189.32,35.00 190.15,35.00 190.98,35.00 191.82,35.00 192.65,35.00 193.48,35.00 194.31,35.00 195.13,35.00 195.95,35.00 196.78,35.00 197.61,35.00 198.44,35.00 199.28,35.00 200.11,35.00 200.94,35.00 201.78,35.00 202.61,35.00 203.43,35.00 204.26,35.00 205.09,35.00 205.94,35.00 206.78,35.00 207.60,35.00 208.44,35.00 209.26,35.00 210.08,35.00 210.91,35.00 211.74,35.00 212.57,35.00 213.39,35.00 214.21,35.00 215.05,35.00 215.88,35.00 216.71,35.00 217.54,35.00 218.39,35.00 219.22,35.00 220.05,35.00 220.87,35.00 221.69,35.00 222.60,35.00 223.44,35.00 224.27,35.00 225.09,35.00 225.91,35.00 226.74,35.00 227.57,35.00 228.40,35.00 229.24,35.00 230.06,35.00 230.89,35.00 231.72,35.00 232.57,35.00 233.39,35.00 234.22,35.00 235.05,35.00 235.88,35.00 236.73,35.00 237.58,35.00 238.40,35.00 239.23,35.00 240.06,35.00 240.89,35.00 241.72,35.00 242.55,35.00 243.39,35.00 244.22,35.00 245.04,35.00 245.88,35.00 246.71,35.00 247.54,35.00 248.37,35.00 249.21,35.00 250.04,35.00 250.86,35.00 251.68,35.00 252.51,35.00 253.34,35.00 254.17,35.00 254.99,35.00 255.82,35.00 256.64,35.00 257.47,35.00 258.31,35.00 259.14,35.00 259.97,35.00 260.81,35.00 261.64,35.00 262.48,35.00 263.30,35.00 264.14,35.00 264.96,35.00 265.79,35.00 266.62,35.00 267.47,35.00 268.30,35.00 269.14,35.00 269.97,35.00 270.79,35.00 271.63,35.00 272.45,35.00 273.27,35.00 274.11,35.00 274.94,35.00 275.77,35.00 276.60,35.00 277.44,35.00 278.26,35.00 279.09,35.00 279.93,35.00 280.77,35.00 281.59,35.00 282.42,35.00 283.26,35.00 284.10,35.00 284.93,35.00 285.76,35.00 286.58,35.00 287.50,35.00 288.34,35.00 289.17,35.00 290.00,35.00 290.84,35.00 291.67,35.00 292.50,35.00 293.34,35.00 294.16,35.00 295.01,35.00 295.86,35.00 296.68,35.00 297.51,35.00 298.34,35.00 299.17,35.00 300.00,35.00 300.86,35.00 301.69,35.00 302.52,35.00 303.36,35.00 304.25,35.00 305.08,35.00 306.13,35.00 307.53,35.00 308.38,35.00 309.23,35.00 310.06,35.00 310.87,35.00 311.69,35.00 312.54,35.00 313.37,35.00 314.21,35.00 315.07,35.00 315.93,35.00 316.81,35.00 317.64,35.00 318.47,35.00 319.30,35.00 320.14,35.00 320.98,35.00 321.82,35.00 322.65,35.00 323.48,35.00 324.34,35.00 325.17,35.00 325.99,35.00 326.83,35.00 327.67,35.00 328.53,35.00 329.37,35.00 330.20,35.00 331.05,35.00 331.85,35.00 332.67,35.00 333.52,35.00 334.34,35.00 335.19,35.00 336.04,35.00 336.88,35.00 337.70,35.00 338.54,35.00 339.38,35.00 340.21,35.00 341.04,35.00 341.86,35.00 342.70,35.00 343.53,35.00 344.36,35.00 345.35,35.00 346.32,35.00 347.30,35.00 348.27,35.00 349.22,35.00 350.17,35.00 351.16,35.00 352.12,35.00 352.96,35.00 353.78,35.00 354.60,35.00 355.43,35.00 356.26,35.00 357.09,35.00 357.91,35.00 358.74,35.00 359.57,35.00 360.39,35.00 361.22,35.00 362.05,35.00 362.88,35.00 363.70,35.00 364.53,35.00 365.35,35.00 366.18,35.00 367.00,35.00 367.84,35.00 368.67,35.00 369.49,35.00 370.31,35.00 371.14,35.00 371.97,35.00 372.80,35.00 373.63,35.00 374.45,35.00 375.28,35.00 376.11,35.00 376.94,35.00 377.77,35.00 378.60,35.00 379.42,35.00 380.25,35.00 381.06,35.00 381.88,35.00 382.71,35.00 383.53,35.00 384.36,35.00 385.18,35.00 386.01,35.00 386.84,35.00 387.66,35.00 388.48,35.00 389.29,35.00 390.15,35.00 391.04,35.00 391.87,35.00 392.70,35.00 393.53,35.00 394.35,35.00 395.17,35.00 396.00,35.00 396.82,35.00 397.80,35.00 398.77,35.00 399.74,35.00 400.71,35.00 401.69,35.00 402.65,35.00 403.64,35.00 404.65,35.00 405.55,35.00 406.44,35.00 407.27,35.00 408.11,35.00 408.94,35.00 409.76,35.00 410.59,35.00 411.42,35.00 412.24,35.00 413.07,35.00 413.90,35.00 414.73,35.00 415.56,35.00 416.38,35.00 417.22,35.00 418.05,35.00 418.87,35.00 419.60,35.00 420.45,35.00 421.28,35.00 422.13,35.00 422.96,35.00 423.78,35.00 424.62,35.00 425.45,35.00 426.29,35.00 427.13,35.00 427.96,35.00 428.81,35.00 429.63,35.00 430.45,35.00 431.28,35.00 432.10,35.00 432.92,35.00 433.75,35.00 434.59,35.00 435.41,35.00 436.24,35.00 437.07,35.00 437.89,35.00 438.73,35.00 439.56,35.00 440.39,35.00 441.22,35.00 442.05,35.00 442.88,35.00 443.72,35.00 444.55,35.00 445.40,35.00 446.22,35.00 447.05,35.00 447.88,35.00 448.70,35.00 449.52,35.00 450.36,35.00 451.18,35.00 452.01,35.00 452.84,35.00 453.66,35.00 454.49,35.00 455.32,35.00 456.16,35.00 456.99,35.00 457.99,35.00 458.84,35.00 459.69,35.00 460.52,35.00 461.35,35.00 462.19,35.00 463.01,35.00 463.84,35.00 464.68,35.00 465.51,35.00 466.34,35.00 467.17,35.00 468.01,35.00 468.83,35.00 469.69,35.00 470.54,35.00 471.37,35.00 472.20,35.00 473.03,35.00 473.85,35.00 474.68,35.00 475.51,35.00 476.37,35.00 477.21,35.00 478.04,35.00 478.87,35.00 479.70,35.00 480.53,35.00 481.36,35.00 482.19,35.00 483.02,35.00 483.86,35.00 484.69,35.00 485.52,35.00 486.35,35.00 487.18,35.00 488.00,35.00 488.85,35.00 489.68,35.00 490.51,35.00 491.33,35.00 492.16,35.00 493.00,35.00 493.84,35.00 494.84,35.00 495.69,35.00 496.52,35.00 497.35,35.00 498.17,35.00 499.01,35.00 499.84,35.00 500.67,35.00 501.52,35.00 502.34,35.00 503.17,35.00 504.00,35.00 504.83,35.00 505.65,35.00 506.48,35.00 507.32,35.00 508.14,35.00 508.97,35.00 509.80,35.00 510.62,35.00 511.47,35.00 512.29,35.00 513.12,35.00 513.96,35.00 514.80,35.00 515.62,35.00 516.45,35.00 517.28,35.00 518.13,35.00 518.96,35.00 519.79,35.00 520.63,35.00 521.46,35.00 522.28,35.00 523.12,35.00 523.95,35.00 524.80,35.00 525.63,35.00 526.46,35.00 527.28,35.00 528.10,35.00 528.93,35.00 529.76,35.00 530.59,35.00 531.43,35.00 532.27,35.00 533.11,35.00 533.92,35.00 534.76,35.00 535.58,35.00 536.42,35.00 537.24,35.00 538.07,35.00 538.90,35.00 539.74,35.00 540.57,35.00 541.40,35.00 542.24,35.00 543.08,35.00 543.91,35.00 544.74,35.00 545.58,35.00 546.51,35.00 547.42,35.00 548.31,35.00 549.15,35.00 550.01,35.00 550.85,35.00 551.68,35.00 552.50,35.00 553.28,35.00 554.14,35.00 554.97,35.00 555.82,35.00 556.63,35.00 557.47,35.00 558.29,35.00 559.13,35.00 559.95,35.00 560.79,35.00 561.62,35.00 562.45,35.00 563.28,35.00 564.12,35.00 564.96,35.00 565.79,35.00 566.63,35.00 567.46,35.00 568.29,35.00 569.14,35.00 569.97,35.00 570.79,35.00 571.62,35.00 572.46,35.00 573.28,35.00 574.11,35.00 574.94,35.00 575.78,35.00 576.62,35.00 577.44,35.00 578.27,35.00 579.10,35.00 579.94,35.00 580.77,35.00 581.61,35.00 582.43,35.00 583.26,35.00 584.10,35.00 584.93,35.00 585.77,35.00 586.61,35.00 587.44,35.00 588.27,35.00 589.11,35.00 589.94,35.00 590.78,35.00 591.63,35.00 592.46,35.00 593.30,35.00 594.13,35.00 594.96,35.00 595.79,35.00 596.62,35.00 597.46,35.00 598.30,35.00 599.12,35.00 599.96,35.00 600.80,35.00 601.63,35.00 602.47,35.00 603.30,35.00 604.14,35.00 604.97,35.00 605.81,35.00 606.65,35.00 607.48,35.00 608.31,35.00 609.15,35.00 609.98,35.00 610.83,35.00 611.67,35.00 612.51,35.00 613.34,35.00 614.17,35.00 615.00,35.00 615.83,35.00 616.66,35.00 617.50,35.00 618.33,35.00 619.16,35.00 619.99,35.00 620.82,35.00 621.66,35.00 622.50,35.00 623.32,35.00 624.17,35.00 625.00,35.00 625.84,35.00 626.67,35.00 627.50,35.00 628.32,35.00 629.15,35.00 629.98,35.00 630.82,35.00 631.66,35.00 632.49,35.00 633.33,35.00 634.16,35.00 635.00,35.00 635.84,35.00 636.67,35.00 637.50,35.00 638.34,35.00 639.17,35.00 640.01,35.00 640.84,35.00 641.69,35.00 642.52,35.00 643.36,35.00 644.21,35.00 645.04,35.00 645.88,35.00 646.72,35.00 647.54,35.00 648.38,35.00 649.22,35.00 650.06,35.00 650.90,35.00 651.73,35.00 652.56,35.00 653.39,35.00 654.24,35.00 655.07,35.00 655.91,35.00 656.74,35.00 657.57,35.00 658.40,35.00 659.22,35.00 660.05,35.00 660.89,35.00 661.72,35.00 662.56,35.00 663.39,35.00 664.22,35.00 665.06,35.00 665.91,35.00 666.75,35.00 667.58,35.00 668.41,35.00 669.24,35.00 670.07,35.00 670.90,35.00 671.74,35.00 672.57,35.00 673.41,35.00 674.25,35.00 675.08,35.00 675.91,35.00 676.74,35.00 677.59,35.00 678.44,35.00 679.28,35.00 680.12,35.00 680.96,35.00 681.79,35.00 682.64,35.00 683.46,35.00 684.29,35.00 685.12,35.00 685.96,35.00 686.79,35.00 687.63,35.00 688.47,35.00 689.31,35.00 690.18,35.00 691.01,35.00 691.84,35.00 692.68,35.00 693.51,35.00 694.35,35.00 695.19,35.00 696.03,35.00 696.87,35.00 697.71,35.00 698.54,35.00 699.38,35.00 700.22,35.00 701.05,35.00 701.89,35.00 702.72,35.00 703.55,35.00 704.39,35.00 705.23,35.00 706.07,35.00 706.90,35.00 707.74,35.00 708.58,35.00 709.41,35.00 710.25,35.00 711.08,35.00 711.95,35.00 712.78,35.00 713.63,35.00 714.46,35.00 715.31,35.00 716.17,35.00 717.02,35.00 717.86,35.00 718.72,35.00 719.56,35.00 720.40,35.00 721.23,35.00 722.07,35.00 722.90,35.00 723.74,35.00 724.60,35.00 725.43,35.00 726.27,35.00 727.10,35.00 727.93,35.00 728.76,35.00 729.60,35.00 730.43,35.00 731.27,35.00 732.10,35.00 732.93,35.00 733.76,35.00 734.58,35.00 735.42,35.00 736.25,35.00 737.09,35.00 737.92,35.00 738.77,35.00 739.61,35.00 740.43,35.00 741.27,35.00 742.11,35.00 742.94,35.00 743.77,35.00 744.60,35.00 745.44,35.00 746.28,35.00 747.10,35.00 747.93,35.00 748.76,35.00 749.59,35.00 750.43,35.00 751.26,35.00 752.09,35.00 752.93,35.00 753.76,35.00 754.59,35.00 755.43,35.00 756.26,35.00 757.08,35.00 757.91,35.00 758.73,35.00 759.56,35.00 760.40,35.00 761.25,35.00 762.08,35.00 762.91,35.00 763.74,35.00 764.59,35.00 765.43,35.00 766.26,35.00 767.11,35.00 767.94,35.00 768.77,35.00 769.61,35.00 770.45,35.00 771.29,35.00 772.13,35.00 772.96,35.00 773.79,35.00 774.62,35.00 775.45,35.00 776.28,35.00 777.12,35.00 777.94,35.00 778.77,35.00 779.61,35.00 780.45,35.00 781.28,35.00 782.11,35.00 782.94,35.00 783.77,35.00 784.61,35.00 785.45,35.00 786.28,35.00 787.11,35.00 787.95,35.00 788.79,35.00 789.62,35.00 790.45,35.00 791.29,35.00 792.12,35.00 792.95,35.00 793.79,35.00 794.63,35.00 795.46,35.00 796.29,35.00 797.12,35.00 797.98,35.00 798.81,35.00 799.66,35.00 800.51,35.00 801.34,35.00 802.18,35.00 803.01,35.00 803.85,35.00 804.69,35.00 805.52,35.00 806.36,35.00 807.21,35.00 808.05,35.00 808.88,35.00 809.72,35.00 810.55,35.00 811.39,35.00 812.22,35.00 813.05,35.00 813.88,35.00 814.72,35.00 815.55,35.00 816.38,35.00 817.21,35.00 818.05,35.00 818.88,35.00 819.71,35.00 820.54,35.00 821.37,35.00 822.20,35.00 823.05,35.00 823.88,35.00 824.71,35.00 825.55,35.00 826.38,35.00 827.20,35.00 828.05,35.00 828.88,35.00 829.73,35.00 830.56,35.00 831.38,35.00 832.21,35.00 833.05,35.00 833.89,35.00 834.71,35.00 835.56,35.00 836.41,35.00 837.26,35.00 838.11,35.00 838.96,35.00 839.81,35.00 840.67,35.00 841.52,35.00 842.38,35.00 843.23,35.00 844.09,35.00 844.92,35.00 845.75,35.00 846.59,35.00 847.43,35.00 848.27,35.00 849.10,35.00 849.94,35.00 850.78,35.00 851.61,35.00 852.45,35.00 853.28,35.00 854.11,35.00 854.94,35.00 855.77,35.00 856.60,35.00 857.44,35.00 858.28,35.00 859.11,35.00 859.96,35.00 860.80,35.00 861.63,35.00 862.46,35.00 863.29,35.00 864.13,35.00 864.96,35.00 865.80,35.00 866.63,35.00 867.46,35.00 868.30,35.00 869.13,35.00 869.97,35.00 870.81,35.00 871.64,35.00 872.47,35.00 873.37,35.00 874.23,35.00 875.06,35.00 875.89,35.00 876.72,35.00 877.57,35.00 878.41,35.00 879.25,35.00 880.09,35.00 880.91,35.00 881.73,35.00 882.57,35.00 883.40,35.00 884.23,35.00 885.07,35.00 885.90,35.00 886.74,35.00 887.58,35.00 888.42,35.00 889.25,35.00 890.08,35.00 890.91,35.00 891.75,35.00 892.59,35.00 893.42,35.00 894.25,35.00 895.09,35.00 895.93,35.00 896.76,35.00 897.63,35.00 898.47,35.00 899.30,35.00 900.13,35.00 900.97,35.00 901.80,35.00 902.64,35.00 903.48,35.00 904.31,35.00 905.15,35.00 905.99,35.00 906.83,35.00 907.67,35.00 908.51,35.00 909.34,35.00 910.17,35.00 911.01,35.00 911.84,35.00 912.68,35.00 913.51,35.00 914.36,35.00 915.19,35.00 916.02,35.00 916.86,35.00 917.69,35.00 918.53,35.00 919.36,35.00 920.19,35.00 921.02,35.00 921.86,35.00 922.70,35.00 923.52,35.00 924.36,35.00 925.19,35.00 926.03,35.00 926.87,35.00 927.70,35.00 928.53,35.00 929.36,35.00 930.19,35.00 931.02,35.00 931.86,35.00 932.69,35.00 933.55,35.00 934.38,35.00 935.22,35.00 936.06,35.00 936.89,35.00 937.74,35.00 938.64,35.00 939.49,35.00 940.33,35.00 941.17,35.00 942.02,35.00 942.85,35.00 943.68,35.00 944.52,35.00 945.35,35.00 946.19,35.00 947.03,35.00 947.86,35.00 948.70,35.00 949.55,35.00 950.39,35.00 951.23,35.00 952.06,35.00 952.89,35.00 953.73,35.00 954.57,35.00 955.40,35.00 956.23,35.00 957.08,35.00 957.91,35.00 958.75,35.00 959.59,35.00 960.43,35.00 961.26,35.00 962.11,35.00 962.95,35.00 963.79,35.00 964.61,35.00 965.45,35.00 966.29,35.00 967.12,35.00 967.95,35.00 968.79,35.00 969.62,35.00 970.46,35.00 971.30,35.00 972.12,35.00 972.96,35.00 973.80,35.00 974.64,35.00 975.46,35.00 976.31,35.00 977.14,35.00 977.99,35.00 978.82,35.00 979.64,35.00 980.45,35.00 981.28,35.00 982.12,35.00 982.96,35.00 983.80,35.00 984.64,35.00 985.47,35.00 986.32,35.00 987.16,35.00 987.99,35.00 988.83,35.00 989.65,35.00 990.49,35.00 991.31,35.00 992.14,35.00 992.98,35.00 993.82,35.00 994.65,35.00 995.48,35.00 996.31,35.00 997.14,35.00 997.98,35.00 998.82,35.00 999.64,35.00 1000.47,35.00 1001.28,35.00 1002.13,35.00 1002.97,35.00 1003.80,35.00 1004.64,35.00 1005.49,35.00 1006.32,35.00 1007.15,35.00 1007.99,35.00 1008.82,35.00 1009.66,35.00 1010.49,35.00 1011.39,35.00 1012.22,35.00 1013.06,35.00 1013.90,35.00 1014.75,35.00 1015.57,35.00 1016.40,35.00 1017.25,35.00 1018.08,35.00 1018.91,35.00 1019.74,35.00 1020.57,35.00 1021.41,35.00 1022.26,35.00 1023.09,35.00 1023.92,35.00 1024.76,35.00 1025.59,35.00 1026.43,35.00 1027.27,35.00 1028.11,35.00 1028.95,35.00 1029.81,35.00 1030.64,35.00 1031.48,35.00 1032.32,35.00 1033.16,35.00 1034.00,35.00 1034.83,35.00 1035.66,35.00 1036.49,35.00 1037.33,35.00 1038.16,35.00 1039.00,35.00 1039.84,35.00 1040.67,35.00 1041.51,35.00 1042.35,35.00 1043.17,35.00 1044.00,35.00 1044.84,35.00 1045.68,35.00 1046.50,35.00 1047.34,35.00 1048.17,35.00 1049.00,35.00 1049.83,35.00 1050.66,35.00 1051.49,35.00 1052.32,35.00 1053.15,35.00 1053.98,35.00 1054.82,35.00 1055.64,35.00 1056.47,35.00 1057.30,35.00 1058.14,35.00 1058.97,35.00 1059.80,35.00 1060.63,35.00 1061.46,35.00 1062.31,35.00 1063.13,35.00 1063.96,35.00 1064.80,35.00 1065.67,35.00 1066.50,35.00 1067.34,35.00 1068.18,35.00 1069.02,35.00 1069.85,35.00 1070.69,35.00 1071.53,35.00 1072.36,35.00 1073.19,35.00 1074.02,35.00 1074.85,35.00 1075.69,35.00 1076.52,35.00 1077.36,35.00 1078.19,35.00 1079.02,35.00 1079.85,35.00 1080.68,35.00 1081.52,35.00 1082.36,35.00 1083.23,35.00 1084.06,35.00 1084.89,35.00 1085.71,35.00 1086.54,35.00 1087.39,35.00 1088.22,35.00 1089.05,35.00 1089.89,35.00 1090.72,35.00 1091.56,35.00 1092.40,35.00 1093.23,35.00 1094.07,35.00 1094.90,35.00 1095.74,35.00 1096.57,35.00 1097.40,35.00 1098.23,35.00 1099.06,35.00 1099.89,35.00 1100.73,35.00 1101.56,35.00 1102.39,35.00 1103.22,35.00 1104.06,35.00 1104.89,35.00 1105.72,35.00 1106.56,35.00 1107.39,35.00 1108.22,35.00 1109.06,35.00 1109.89,35.00 1110.73,35.00 1111.56,35.00 1112.39,35.00 1113.23,35.00 1114.06,35.00 1114.88,35.00 1115.72,35.00 1116.56,35.00 1117.38,35.00 1118.24,35.00 1119.07,35.00 1119.90,35.00 1120.74,35.00 1121.58,35.00 1122.41,35.00 1123.26,35.00 1124.10,35.00 1124.99,35.00 1125.82,35.00 1126.72,35.00 1127.55,35.00 1128.38,35.00 1129.21,35.00 1130.04,35.00 1130.88,35.00 1131.71,35.00 1132.54,35.00 1133.38,35.00 1134.21,35.00 1135.05,35.00 1135.88,35.00 1136.71,35.00 1137.54,35.00 1138.37,35.00 1139.20,35.00 1140.03,35.00 1140.86,35.00 1141.70,35.00 1142.54,35.00 1143.38,35.00 1144.20,35.00 1145.03,35.00 1145.87,35.00 1146.70,35.00 1147.54,35.00 1148.37,35.00 1149.21,35.00 1150.04,35.00 1150.88,35.00 1151.70,35.00 1152.53,35.00 1153.37,35.00 1154.20,35.00 1155.03,35.00 1155.85,35.00 1156.68,35.00 1157.51,35.00 1158.35,35.00 1159.17,35.00 1160.01,35.00 1160.85,35.00 1161.71,35.00 1162.55,35.00 1163.38,35.00 1164.21,35.00 1165.04,35.00 1165.86,35.00 1166.69,35.00 1167.53,35.00 1168.36,35.00 1169.19,35.00 1170.02,35.00 1170.84,35.00 1171.67,35.00 1172.50,35.00 1173.34,35.00 1174.16,35.00 1175.00,35.00 1175.84,35.00 1176.66,35.00 1177.49,35.00 1178.34,35.00 1179.17,35.00 1180.00,35.00"/>
<polyline fill="none" stroke="#2ca02c" stroke-opacity="0.65" stroke-width="2" points="70.00,305.00 70.83,305.00 71.66,305.00 72.49,305.00 73.32,305.00 74.16,305.00 74.99,305.00 75.82,305.00 76.72,305.00 77.54,305.00 78.37,305.00 79.19,305.00 80.04,305.00 80.86,305.00 81.69,305.00 83.18,305.00 84.47,305.00 85.31,305.00 86.16,305.00 86.99,305.00 87.82,305.00 88.63,305.00 89.47,305.00 90.29,305.00 91.13,305.00 91.97,305.00 92.81,305.00 93.64,305.00 94.48,305.00 95.35,305.00 96.19,305.00 97.02,305.00 97.87,305.00 98.70,305.00 99.53,305.00 100.38,305.00 101.21,305.00 102.04,305.00 102.88,305.00 103.70,305.00 104.53,305.00 105.35,305.00 106.18,305.00 107.01,305.00 107.84,305.00 108.69,305.00 109.53,305.00 110.35,305.00 111.17,305.00 112.01,305.00 112.84,305.00 113.79,305.00 114.62,305.00 115.45,305.00 116.27,305.00 117.10,305.00 117.92,305.00 118.75,305.00 119.58,305.00 120.41,305.00 121.25,305.00 122.08,305.00 122.90,305.00 123.74,305.00 124.58,305.00 125.41,305.00 126.24,305.00 127.06,305.00 127.88,305.00 128.71,305.00 129.53,305.00 130.36,305.00 131.19,305.00 132.01,305.00 132.84,305.00 133.67,305.00 134.49,305.00 135.33,305.00 136.15,305.00 136.98,305.00 137.83,305.00 138.66,305.00 139.49,305.00 140.32,305.00 141.15,305.00 141.98,305.00 142.81,305.00 143.63,305.00 144.45,305.00 145.29,305.00 146.12,305.00 146.95,305.00 147.79,305.00 148.61,305.00 149.44,305.00 150.26,305.00 151.09,305.00 151.91,305.00 152.75,305.00 153.57,305.00 154.40,305.00 155.23,305.00 156.06,305.00 156.89,305.00 157.74,305.00 158.57,305.00 159.40,305.00 160.22,305.00 161.05,305.00 161.88,305.00 162.72,305.00 163.55,305.00 164.37,305.00 165.20,305.00 166.04,305.00 166.87,305.00 167.70,305.00 168.55,305.00 169.37,305.00 170.20,305.00 171.03,305.00 171.86,305.00 172.69,305.00 173.53,305.00 174.43,305.00 175.25,305.00 176.09,305.00 176.92,305.00 177.74,305.00 178.56,305.00 179.38,305.00 180.21,305.00 181.04,305.00 181.87,305.00 182.69,305.00 183.52,305.00 184.35,305.00 185.17,305.00 186.02,305.00 186.84,305.00 187.67,305.00 188.49,305.00 189.32,305.00 190.15,305.00 190.98,305.00 191.82,305.00 192.65,305.00 193.48,305.00 194.31,305.00 195.13,305.00 195.95,305.00 196.78,305.00 197.61,305.00 198.44,305.00 199.28,305.00 200.11,305.00 200.94,305.00 201.78,305.00 202.61,305.00 203.43,305.00 204.26,305.00 205.09,305.00 205.94,305.00 206.78,305.00 207.60,305.00 208.44,305.00 209.26,305.00 210.08,305.00 210.91,305.00 211.74,305.00 212.57,305.00 213.39,305.00 214.21,305.00 215.05,305.00 215.88,305.00 216.71,305.00 217.54,305.00 218.39,305.00 219.22,305.00 220.05,305.00 220.87,305.00 221.69,305.00 222.60,305.00 223.44,305.00 224.27,305.00 225.09,305.00 225.91,305.00 226.74,305.00 227.57,305.00 228.40,305.00 229.24,305.00 230.06,305.00 230.89,305.00 231.72,305.00 232.57,305.00 233.39,305.00 234.22,305.00 235.05,305.00 235.88,305.00 236.73,305.00 237.58,305.00 238.40,305.00 239.23,305.00 240.06,305.00 240.89,305.00 241.72,305.00 242.55,305.00 243.39,305.00 244.22,305.00 245.04,305.00 245.88,305.00 246.71,305.00 247.54,305.00 248.37,305.00 249.21,305.00 250.04,305.00 250.86,305.00 251.68,305.00 252.51,305.00 253.34,305.00 254.17,305.00 254.99,305.00 255.82,305.00 256.64,305.00 257.47,305.00 258.31,305.00 259.14,305.00 259.97,305.00 260.81,305.00 261.64,305.00 262.48,305.00 263.30,305.00 264.14,305.00 264.96,305.00 265.79,305.00 266.62,305.00 267.47,305.00 268.30,305.00 269.14,305.00 269.97,305.00 270.79,305.00 271.63,305.00 272.45,305.00 273.27,305.00 274.11,305.00 274.94,305.00 275.77,305.00 276.60,305.00 277.44,305.00 278.26,305.00 279.09,305.00 279.93,305.00 280.77,305.00 281.59,305.00 282.42,305.00 283.26,305.00 284.10,305.00 284.93,305.00 285.76,305.00 286.58,305.00 287.50,305.00 288.34,305.00 289.17,305.00 290.00,305.00 290.84,305.00 291.67,305.00 292.50,305.00 293.34,305.00 294.16,305.00 295.01,305.00 295.86,305.00 296.68,305.00 297.51,305.00 298.34,305.00 299.17,305.00 300.00,305.00 300.86,305.00 301.69,305.00 302.52,305.00 303.36,305.00 304.25,305.00 305.08,305.00 306.13,305.00 307.53,305.00 308.38,305.00 309.23,305.00 310.06,305.00 310.87,305.00 311.69,305.00 312.54,305.00 313.37,305.00 314.21,305.00 315.07,305.00 315.93,305.00 316.81,305.00 317.64,305.00 318.47,305.00 319.30,305.00 320.14,305.00 320.98,305.00 321.82,305.00 322.65,305.00 323.48,305.00 324.34,305.00 325.17,305.00 325.99,305.00 326.83,305.00 327.67,305.00 328.53,305.00 329.37,305.00 330.20,305.00 331.05,305.00 331.85,305.00 332.67,305.00 333.52,305.00 334.34,305.00 335.19,305.00 336.04,305.00 336.88,305.00 337.70,305.00 338.54,305.00 339.38,305.00 340.21,305.00 341.04,305.00 341.86,305.00 342.70,305.00 343.53,305.00 344.36,305.00 345.35,305.00 346.32,305.00 347.30,305.00 348.27,305.00 349.22,305.00 350.17,305.00 351.16,305.00 352.12,305.00 352.96,305.00 353.78,305.00 354.60,305.00 355.43,305.00 356.26,305.00 357.09,305.00 357.91,305.00 358.74,305.00 359.57,305.00 360.39,305.00 361.22,305.00 362.05,305.00 362.88,305.00 363.70,305.00 364.53,305.00 365.35,305.00 366.18,305.00 367.00,305.00 367.84,305.00 368.67,305.00 369.49,305.00 370.31,305.00 371.14,305.00 371.97,305.00 372.80,305.00 373.63,305.00 374.45,305.00 375.28,305.00 376.11,305.00 376.94,305.00 377.77,305.00 378.60,305.00 379.42,305.00 380.25,305.00 381.06,305.00 381.88,305.00 382.71,305.00 383.53,305.00 384.36,305.00 385.18,305.00 386.01,305.00 386.84,305.00 387.66,305.00 388.48,305.00 389.29,305.00 390.15,305.00 391.04,305.00 391.87,305.00 392.70,305.00 393.53,305.00 394.35,305.00 395.17,305.00 396.00,305.00 396.82,305.00 397.80,305.00 398.77,305.00 399.74,305.00 400.71,305.00 401.69,305.00 402.65,305.00 403.64,305.00 404.65,305.00 405.55,305.00 406.44,305.00 407.27,305.00 408.11,305.00 408.94,305.00 409.76,305.00 410.59,305.00 411.42,305.00 412.24,305.00 413.07,305.00 413.90,305.00 414.73,305.00 415.56,305.00 416.38,305.00 417.22,305.00 418.05,305.00 418.87,305.00 419.60,35.00 420.45,35.00 421.28,35.00 422.13,35.00 422.96,35.00 423.78,35.00 424.62,35.00 425.45,35.00 426.29,35.00 427.13,35.00 427.96,35.00 428.81,35.00 429.63,35.00 430.45,35.00 431.28,35.00 432.10,35.00 432.92,35.00 433.75,35.00 434.59,35.00 435.41,35.00 436.24,35.00 437.07,35.00 437.89,35.00 438.73,35.00 439.56,35.00 440.39,35.00 441.22,35.00 442.05,35.00 442.88,35.00 443.72,35.00 444.55,35.00 445.40,35.00 446.22,35.00 447.05,35.00 447.88,35.00 448.70,35.00 449.52,35.00 450.36,35.00 451.18,35.00 452.01,35.00 452.84,35.00 453.66,35.00 454.49,35.00 455.32,35.00 456.16,35.00 456.99,35.00 457.99,35.00 458.84,35.00 459.69,35.00 460.52,35.00 461.35,35.00 462.19,35.00 463.01,35.00 463.84,35.00 464.68,35.00 465.51,35.00 466.34,35.00 467.17,35.00 468.01,35.00 468.83,35.00 469.69,35.00 470.54,35.00 471.37,35.00 472.20,35.00 473.03,35.00 473.85,35.00 474.68,35.00 475.51,35.00 476.37,35.00 477.21,35.00 478.04,35.00 478.87,35.00 479.70,35.00 480.53,35.00 481.36,35.00 482.19,35.00 483.02,35.00 483.86,35.00 484.69,35.00 485.52,35.00 486.35,35.00 487.18,35.00 488.00,35.00 488.85,35.00 489.68,35.00 490.51,35.00 491.33,35.00 492.16,35.00 493.00,35.00 493.84,35.00 494.84,35.00 495.69,35.00 496.52,35.00 497.35,35.00 498.17,35.00 499.01,35.00 499.84,35.00 500.67,35.00 501.52,35.00 502.34,35.00 503.17,35.00 504.00,35.00 504.83,35.00 505.65,35.00 506.48,35.00 507.32,35.00 508.14,35.00 508.97,35.00 509.80,35.00 510.62,35.00 511.47,35.00 512.29,35.00 513.12,35.00 513.96,35.00 514.80,35.00 515.62,35.00 516.45,35.00 517.28,35.00 518.13,35.00 518.96,35.00 519.79,35.00 520.63,35.00 521.46,35.00 522.28,35.00 523.12,35.00 523.95,35.00 524.80,35.00 525.63,35.00 526.46,35.00 527.28,35.00 528.10,35.00 528.93,35.00 529.76,35.00 530.59,35.00 531.43,35.00 532.27,35.00 533.11,35.00 533.92,35.00 534.76,35.00 535.58,35.00 536.42,35.00 537.24,35.00 538.07,35.00 538.90,35.00 539.74,35.00 540.57,35.00 541.40,35.00 542.24,35.00 543.08,35.00 543.91,35.00 544.74,35.00 545.58,35.00 546.51,35.00 547.42,35.00 548.31,35.00 549.15,35.00 550.01,35.00 550.85,35.00 551.68,35.00 552.50,35.00 553.28,35.00 554.14,35.00 554.97,35.00 555.82,35.00 556.63,35.00 557.47,35.00 558.29,35.00 559.13,35.00 559.95,35.00 560.79,35.00 561.62,35.00 562.45,35.00 563.28,35.00 564.12,35.00 564.96,35.00 565.79,35.00 566.63,35.00 567.46,35.00 568.29,35.00 569.14,35.00 569.97,35.00 570.79,35.00 571.62,35.00 572.46,35.00 573.28,35.00 574.11,35.00 574.94,35.00 575.78,35.00 576.62,35.00 577.44,35.00 578.27,35.00 579.10,35.00 579.94,35.00 580.77,35.00 581.61,35.00 582.43,35.00 583.26,35.00 584.10,35.00 584.93,35.00 585.77,35.00 586.61,35.00 587.44,35.00 588.27,35.00 589.11,35.00 589.94,35.00 590.78,35.00 591.63,35.00 592.46,35.00 593.30,35.00 594.13,35.00 594.96,35.00 595.79,35.00 596.62,35.00 597.46,35.00 598.30,35.00 599.12,35.00 599.96,35.00 600.80,35.00 601.63,35.00 602.47,35.00 603.30,35.00 604.14,35.00 604.97,35.00 605.81,35.00 606.65,35.00 607.48,35.00 608.31,35.00 609.15,35.00 609.98,35.00 610.83,35.00 611.67,35.00 612.51,35.00 613.34,35.00 614.17,35.00 615.00,35.00 615.83,35.00 616.66,35.00 617.50,35.00 618.33,35.00 619.16,35.00 619.99,35.00 620.82,35.00 621.66,35.00 622.50,35.00 623.32,35.00 624.17,35.00 625.00,35.00 625.84,35.00 626.67,35.00 627.50,35.00 628.32,35.00 629.15,35.00 629.98,35.00 630.82,35.00 631.66,35.00 632.49,35.00 633.33,35.00 634.16,35.00 635.00,35.00 635.84,35.00 636.67,35.00 637.50,35.00 638.34,35.00 639.17,35.00 640.01,35.00 640.84,35.00 641.69,35.00 642.52,35.00 643.36,35.00 644.21,35.00 645.04,35.00 645.88,35.00 646.72,35.00 647.54,35.00 648.38,35.00 649.22,35.00 650.06,35.00 650.90,35.00 651.73,35.00 652.56,35.00 653.39,35.00 654.24,35.00 655.07,35.00 655.91,35.00 656.74,35.00 657.57,35.00 658.40,35.00 659.22,35.00 660.05,35.00 660.89,35.00 661.72,35.00 662.56,35.00 663.39,35.00 664.22,35.00 665.06,35.00 665.91,35.00 666.75,35.00 667.58,35.00 668.41,35.00 669.24,35.00 670.07,35.00 670.90,35.00 671.74,35.00 672.57,35.00 673.41,35.00 674.25,35.00 675.08,35.00 675.91,35.00 676.74,35.00 677.59,35.00 678.44,35.00 679.28,35.00 680.12,35.00 680.96,35.00 681.79,35.00 682.64,35.00 683.46,35.00 684.29,35.00 685.12,35.00 685.96,35.00 686.79,35.00 687.63,35.00 688.47,35.00 689.31,35.00 690.18,35.00 691.01,35.00 691.84,35.00 692.68,35.00 693.51,35.00 694.35,35.00 695.19,35.00 696.03,35.00 696.87,35.00 697.71,35.00 698.54,35.00 699.38,35.00 700.22,35.00 701.05,35.00 701.89,35.00 702.72,35.00 703.55,35.00 704.39,35.00 705.23,35.00 706.07,35.00 706.90,35.00 707.74,35.00 708.58,35.00 709.41,35.00 710.25,35.00 711.08,35.00 711.95,35.00 712.78,35.00 713.63,35.00 714.46,35.00 715.31,35.00 716.17,35.00 717.02,35.00 717.86,35.00 718.72,35.00 719.56,35.00 720.40,35.00 721.23,35.00 722.07,35.00 722.90,35.00 723.74,35.00 724.60,35.00 725.43,35.00 726.27,35.00 727.10,35.00 727.93,35.00 728.76,35.00 729.60,35.00 730.43,35.00 731.27,35.00 732.10,35.00 732.93,35.00 733.76,35.00 734.58,35.00 735.42,35.00 736.25,35.00 737.09,35.00 737.92,35.00 738.77,35.00 739.61,35.00 740.43,35.00 741.27,35.00 742.11,35.00 742.94,35.00 743.77,35.00 744.60,35.00 745.44,35.00 746.28,35.00 747.10,35.00 747.93,35.00 748.76,35.00 749.59,35.00 750.43,35.00 751.26,35.00 752.09,35.00 752.93,35.00 753.76,35.00 754.59,35.00 755.43,35.00 756.26,35.00 757.08,35.00 757.91,35.00 758.73,35.00 759.56,35.00 760.40,35.00 761.25,35.00 762.08,35.00 762.91,35.00 763.74,35.00 764.59,35.00 765.43,35.00 766.26,35.00 767.11,35.00 767.94,35.00 768.77,35.00 769.61,35.00 770.45,35.00 771.29,35.00 772.13,35.00 772.96,35.00 773.79,35.00 774.62,35.00 775.45,35.00 776.28,35.00 777.12,35.00 777.94,35.00 778.77,35.00 779.61,35.00 780.45,35.00 781.28,35.00 782.11,35.00 782.94,35.00 783.77,35.00 784.61,35.00 785.45,35.00 786.28,35.00 787.11,35.00 787.95,35.00 788.79,35.00 789.62,35.00 790.45,35.00 791.29,35.00 792.12,35.00 792.95,35.00 793.79,35.00 794.63,35.00 795.46,35.00 796.29,35.00 797.12,35.00 797.98,35.00 798.81,35.00 799.66,35.00 800.51,35.00 801.34,35.00 802.18,35.00 803.01,35.00 803.85,35.00 804.69,35.00 805.52,35.00 806.36,35.00 807.21,35.00 808.05,35.00 808.88,35.00 809.72,35.00 810.55,35.00 811.39,35.00 812.22,35.00 813.05,35.00 813.88,35.00 814.72,35.00 815.55,35.00 816.38,35.00 817.21,35.00 818.05,35.00 818.88,35.00 819.71,35.00 820.54,35.00 821.37,35.00 822.20,35.00 823.05,35.00 823.88,35.00 824.71,35.00 825.55,35.00 826.38,35.00 827.20,35.00 828.05,35.00 828.88,35.00 829.73,35.00 830.56,35.00 831.38,35.00 832.21,35.00 833.05,35.00 833.89,35.00 834.71,35.00 835.56,35.00 836.41,35.00 837.26,35.00 838.11,35.00 838.96,35.00 839.81,35.00 840.67,35.00 841.52,35.00 842.38,35.00 843.23,35.00 844.09,35.00 844.92,35.00 845.75,35.00 846.59,35.00 847.43,35.00 848.27,35.00 849.10,35.00 849.94,35.00 850.78,35.00 851.61,35.00 852.45,35.00 853.28,35.00 854.11,35.00 854.94,35.00 855.77,35.00 856.60,35.00 857.44,35.00 858.28,35.00 859.11,35.00 859.96,35.00 860.80,35.00 861.63,35.00 862.46,35.00 863.29,35.00 864.13,35.00 864.96,35.00 865.80,35.00 866.63,35.00 867.46,35.00 868.30,35.00 869.13,35.00 869.97,35.00 870.81,35.00 871.64,35.00 872.47,35.00 873.37,35.00 874.23,35.00 875.06,35.00 875.89,35.00 876.72,35.00 877.57,35.00 878.41,35.00 879.25,35.00 880.09,35.00 880.91,35.00 881.73,35.00 882.57,35.00 883.40,35.00 884.23,35.00 885.07,35.00 885.90,35.00 886.74,35.00 887.58,35.00 888.42,35.00 889.25,35.00 890.08,35.00 890.91,35.00 891.75,35.00 892.59,35.00 893.42,35.00 894.25,35.00 895.09,35.00 895.93,35.00 896.76,35.00 897.63,35.00 898.47,35.00 899.30,35.00 900.13,35.00 900.97,35.00 901.80,35.00 902.64,35.00 903.48,35.00 904.31,35.00 905.15,35.00 905.99,35.00 906.83,35.00 907.67,35.00 908.51,35.00 909.34,35.00 910.17,35.00 911.01,35.00 911.84,35.00 912.68,35.00 913.51,35.00 914.36,35.00 915.19,35.00 916.02,35.00 916.86,35.00 917.69,35.00 918.53,35.00 919.36,35.00 920.19,35.00 921.02,35.00 921.86,35.00 922.70,35.00 923.52,35.00 924.36,35.00 925.19,35.00 926.03,35.00 926.87,35.00 927.70,35.00 928.53,35.00 929.36,35.00 930.19,35.00 931.02,35.00 931.86,35.00 932.69,35.00 933.55,35.00 934.38,35.00 935.22,35.00 936.06,35.00 936.89,35.00 937.74,35.00 938.64,35.00 939.49,35.00 940.33,35.00 941.17,35.00 942.02,35.00 942.85,35.00 943.68,35.00 944.52,35.00 945.35,35.00 946.19,35.00 947.03,35.00 947.86,35.00 948.70,35.00 949.55,35.00 950.39,35.00 951.23,35.00 952.06,35.00 952.89,35.00 953.73,35.00 954.57,35.00 955.40,35.00 956.23,35.00 957.08,35.00 957.91,35.00 958.75,35.00 959.59,35.00 960.43,35.00 961.26,35.00 962.11,35.00 962.95,35.00 963.79,35.00 964.61,35.00 965.45,35.00 966.29,35.00 967.12,35.00 967.95,35.00 968.79,35.00 969.62,35.00 970.46,35.00 971.30,35.00 972.12,35.00 972.96,35.00 973.80,35.00 974.64,35.00 975.46,35.00 976.31,35.00 977.14,35.00 977.99,35.00 978.82,35.00 979.64,35.00 980.45,35.00 981.28,35.00 982.12,35.00 982.96,35.00 983.80,35.00 984.64,35.00 985.47,35.00 986.32,35.00 987.16,35.00 987.99,35.00 988.83,35.00 989.65,35.00 990.49,35.00 991.31,35.00 992.14,35.00 992.98,35.00 993.82,35.00 994.65,35.00 995.48,35.00 996.31,35.00 997.14,35.00 997.98,35.00 998.82,35.00 999.64,35.00 1000.47,35.00 1001.28,35.00 1002.13,35.00 1002.97,35.00 1003.80,35.00 1004.64,35.00 1005.49,35.00 1006.32,35.00 1007.15,35.00 1007.99,35.00 1008.82,35.00 1009.66,35.00 1010.49,35.00 1011.39,35.00 1012.22,35.00 1013.06,35.00 1013.90,35.00 1014.75,35.00 1015.57,35.00 1016.40,35.00 1017.25,35.00 1018.08,35.00 1018.91,35.00 1019.74,35.00 1020.57,35.00 1021.41,35.00 1022.26,35.00 1023.09,35.00 1023.92,35.00 1024.76,35.00 1025.59,35.00 1026.43,35.00 1027.27,35.00 1028.11,35.00 1028.95,35.00 1029.81,35.00 1030.64,35.00 1031.48,35.00 1032.32,35.00 1033.16,35.00 1034.00,35.00 1034.83,35.00 1035.66,35.00 1036.49,35.00 1037.33,35.00 1038.16,35.00 1039.00,35.00 1039.84,35.00 1040.67,35.00 1041.51,35.00 1042.35,35.00 1043.17,35.00 1044.00,35.00 1044.84,35.00 1045.68,35.00 1046.50,35.00 1047.34,35.00 1048.17,35.00 1049.00,35.00 1049.83,35.00 1050.66,35.00 1051.49,35.00 1052.32,35.00 1053.15,35.00 1053.98,35.00 1054.82,35.00 1055.64,35.00 1056.47,35.00 1057.30,35.00 1058.14,35.00 1058.97,35.00 1059.80,35.00 1060.63,35.00 1061.46,35.00 1062.31,35.00 1063.13,35.00 1063.96,35.00 1064.80,35.00 1065.67,35.00 1066.50,35.00 1067.34,35.00 1068.18,35.00 1069.02,35.00 1069.85,35.00 1070.69,35.00 1071.53,35.00 1072.36,35.00 1073.19,35.00 1074.02,35.00 1074.85,35.00 1075.69,35.00 1076.52,35.00 1077.36,35.00 1078.19,35.00 1079.02,35.00 1079.85,35.00 1080.68,35.00 1081.52,35.00 1082.36,35.00 1083.23,35.00 1084.06,35.00 1084.89,35.00 1085.71,35.00 1086.54,35.00 1087.39,35.00 1088.22,35.00 1089.05,35.00 1089.89,35.00 1090.72,35.00 1091.56,35.00 1092.40,35.00 1093.23,35.00 1094.07,35.00 1094.90,35.00 1095.74,35.00 1096.57,35.00 1097.40,35.00 1098.23,35.00 1099.06,35.00 1099.89,35.00 1100.73,35.00 1101.56,35.00 1102.39,35.00 1103.22,35.00 1104.06,35.00 1104.89,35.00 1105.72,35.00 1106.56,35.00 1107.39,35.00 1108.22,35.00 1109.06,35.00 1109.89,35.00 1110.73,35.00 1111.56,35.00 1112.39,35.00 1113.23,35.00 1114.06,35.00 1114.88,35.00 1115.72,35.00 1116.56,35.00 1117.38,35.00 1118.24,35.00 1119.07,35.00 1119.90,35.00 1120.74,35.00 1121.58,35.00 1122.41,35.00 1123.26,35.00 1124.10,35.00 1124.99,35.00 1125.82,35.00 1126.72,35.00 1127.55,35.00 1128.38,35.00 1129.21,35.00 1130.04,35.00 1130.88,35.00 1131.71,35.00 1132.54,35.00 1133.38,35.00 1134.21,35.00 1135.05,35.00 1135.88,35.00 1136.71,35.00 1137.54,35.00 1138.37,35.00 1139.20,35.00 1140.03,35.00 1140.86,35.00 1141.70,35.00 1142.54,35.00 1143.38,35.00 1144.20,35.00 1145.03,35.00 1145.87,35.00 1146.70,35.00 1147.54,35.00 1148.37,35.00 1149.21,35.00 1150.04,35.00 1150.88,35.00 1151.70,35.00 1152.53,35.00 1153.37,35.00 1154.20,35.00 1155.03,35.00 1155.85,35.00 1156.68,35.00 1157.51,35.00 1158.35,35.00 1159.17,35.00 1160.01,35.00 1160.85,35.00 1161.71,35.00 1162.55,35.00 1163.38,35.00 1164.21,35.00 1165.04,35.00 1165.86,35.00 1166.69,35.00 1167.53,35.00 1168.36,35.00 1169.19,35.00 1170.02,35.00 1170.84,35.00 1171.67,35.00 1172.50,35.00 1173.34,35.00 1174.16,35.00 1175.00,35.00 1175.84,35.00 1176.66,35.00 1177.49,35.00 1178.34,35.00 1179.17,35.00 1180.00,35.00"/>
<polyline fill="none" stroke="#2ca02c" stroke-opacity="0.50" stroke-width="2" points="70.00,35.00 70.83,35.00 71.66,35.00 72.49,35.00 73.32,35.00 74.16,35.00 74.99,35.00 75.82,35.00 76.72,35.00 77.54,35.00 78.37,35.00 79.19,35.00 80.04,35.00 80.86,35.00 81.69,35.00 83.18,35.00 84.47,35.00 85.31,35.00 86.16,35.00 86.99,35.00 87.82,35.00 88.63,35.00 89.47,35.00 90.29,35.00 91.13,35.00 91.97,35.00 92.81,35.00 93.64,35.00 94.48,35.00 95.35,35.00 96.19,35.00 97.02,35.00 97.87,35.00 98.70,35.00 99.53,35.00 100.38,35.00 101.21,35.00 102.04,35.00 102.88,35.00 103.70,35.00 104.53,35.00 105.35,35.00 106.18,35.00 107.01,35.00 107.84,35.00 108.69,35.00 109.53,35.00 110.35,35.00 111.17,35.00 112.01,35.00 112.84,35.00 113.79,35.00 114.62,35.00 115.45,35.00 116.27,35.00 117.10,35.00 117.92,35.00 118.75,35.00 119.58,35.00 120.41,35.00 121.25,35.00 122.08,35.00 122.90,35.00 123.74,35.00 124.58,35.00 125.41,35.00 126.24,35.00 127.06,35.00 127.88,35.00 128.71,35.00 129.53,35.00 130.36,35.00 131.19,35.00 132.01,35.00 132.84,35.00 133.67,35.00 134.49,35.00 135.33,35.00 136.15,35.00 136.98,35.00 137.83,35.00 138.66,35.00 139.49,35.00 140.32,35.00 141.15,35.00 141.98,35.00 142.81,35.00 143.63,35.00 144.45,35.00 145.29,35.00 146.12,35.00 146.95,35.00 147.79,35.00 148.61,35.00 149.44,35.00 150.26,35.00 151.09,35.00 151.91,35.00 152.75,35.00 153.57,35.00 154.40,35.00 155.23,35.00 156.06,35.00 156.89,35.00 157.74,35.00 158.57,35.00 159.40,35.00 160.22,35.00 161.05,35.00 161.88,35.00 162.72,35.00 163.55,35.00 164.37,35.00 165.20,35.00 166.04,35.00 166.87,35.00 167.70,35.00 168.55,35.00 169.37,35.00 170.20,35.00 171.03,35.00 171.86,35.00 172.69,35.00 173.53,35.00 174.43,35.00 175.25,35.00 176.09,35.00 176.92,35.00 177.74,35.00 178.56,35.00 179.38,35.00 180.21,35.00 181.04,35.00 181.87,35.00 182.69,35.00 183.52,35.00 184.35,35.00 185.17,35.00 186.02,35.00 186.84,35.00 187.67,35.00 188.49,35.00 189.32,35.00 190.15,35.00 190.98,35.00 191.82,35.00 192.65,35.00 193.48,35.00 194.31,35.00 195.13,35.00 195.95,35.00 196.78,35.00 197.61,35.00 198.44,35.00 199.28,35.00 200.11,35.00 200.94,35.00 201.78,35.00 202.61,35.00 203.43,35.00 204.26,35.00 205.09,35.00 205.94,35.00 206.78,35.00 207.60,35.00 208.44,35.00 209.26,35.00 210.08,35.00 210.91,35.00 211.74,35.00 212.57,35.00 213.39,35.00 214.21,35.00 215.05,35.00 215.88,35.00 216.71,35.00 217.54,35.00 218.39,35.00 219.22,35.00 220.05,35.00 220.87,35.00 221.69,35.00 222.60,35.00 223.44,35.00 224.27,35.00 225.09,35.00 225.91,35.00 226.74,35.00 227.57,35.00 228.40,35.00 229.24,35.00 230.06,35.00 230.89,35.00 231.72,35.00 232.57,35.00 233.39,35.00 234.22,35.00 235.05,35.00 235.88,35.00 236.73,35.00 237.58,35.00 238.40,35.00 239.23,35.00 240.06,35.00 240.89,35.00 241.72,35.00 242.55,35.00 243.39,35.00 244.22,35.00 245.04,35.00 245.88,35.00 246.71,35.00 247.54,35.00 248.37,35.00 249.21,35.00 250.04,35.00 250.86,35.00 251.68,35.00 252.51,35.00 253.34,35.00 254.17,35.00 254.99,35.00 255.82,35.00 256.64,35.00 257.47,35.00 258.31,35.00 259.14,35.00 259.97,35.00 260.81,35.00 261.64,35.00 262.48,35.00 263.30,35.00 264.14,35.00 264.96,35.00 265.79,35.00 266.62,35.00 267.47,35.00 268.30,35.00 269.14,35.00 269.97,35.00 270.79,35.00 271.63,35.00 272.45,35.00 273.27,35.00 274.11,35.00 274.94,35.00 275.77,35.00 276.60,35.00 277.44,35.00 278.26,35.00 279.09,35.00 279.93,35.00 280.77,35.00 281.59,35.00 282.42,35.00 283.26,35.00 284.10,35.00 284.93,35.00 285.76,35.00 286.58,35.00 287.50,35.00 288.34,35.00 289.17,35.00 290.00,35.00 290.84,35.00 291.67,35.00 292.50,35.00 293.34,35.00 294.16,35.00 295.01,35.00 295.86,35.00 296.68,35.00 297.51,35.00 298.34,35.00 299.17,35.00 300.00,35.00 300.86,35.00 301.69,35.00 302.52,35.00 303.36,35.00 304.25,35.00 305.08,35.00 306.13,35.00 307.53,35.00 308.38,35.00 309.23,35.00 310.06,35.00 310.87,35.00 311.69,35.00 312.54,35.00 313.37,35.00 314.21,35.00 315.07,35.00 315.93,35.00 316.81,35.00 317.64,35.00 318.47,35.00 319.30,35.00 320.14,35.00 320.98,35.00 321.82,35.00 322.65,35.00 323.48,35.00 324.34,35.00 325.17,35.00 325.99,35.00 326.83,35.00 327.67,35.00 328.53,35.00 329.37,35.00 330.20,35.00 331.05,35.00 331.85,35.00 332.67,35.00 333.52,35.00 334.34,35.00 335.19,35.00 336.04,35.00 336.88,35.00 337.70,35.00 338.54,35.00 339.38,35.00 340.21,35.00 341.04,35.00 341.86,35.00 342.70,35.00 343.53,35.00 344.36,35.00 345.35,35.00 346.32,35.00 347.30,35.00 348.27,35.00 349.22,35.00 350.17,35.00 351.16,35.00 352.12,35.00 352.96,35.00 353.78,35.00 354.60,35.00 355.43,35.00 356.26,35.00 357.09,35.00 357.91,35.00 358.74,35.00 359.57,35.00 360.39,35.00 361.22,35.00 362.05,35.00 362.88,35.00 363.70,35.00 364.53,35.00 365.35,35.00 366.18,35.00 367.00,35.00 367.84,35.00 368.67,35.00 369.49,35.00 370.31,35.00 371.14,35.00 371.97,35.00 372.80,35.00 373.63,35.00 374.45,35.00 375.28,35.00 376.11,35.00 376.94,35.00 377.77,35.00 378.60,35.00 379.42,35.00 380.25,35.00 381.06,35.00 381.88,35.00 382.71,35.00 383.53,35.00 384.36,35.00 385.18,35.00 386.01,35.00 386.84,35.00 387.66,35.00 388.48,35.00 389.29,35.00 390.15,35.00 391.04,35.00 391.87,35.00 392.70,35.00 393.53,35.00 394.35,35.00 395.17,35.00 396.00,35.00 396.82,35.00 397.80,35.00 398.77,35.00 399.74,35.00 400.71,35.00 401.69,35.00 402.65,35.00 403.64,35.00 404.65,35.00 405.55,35.00 406.44,35.00 407.27,35.00 408.11,35.00 408.94,35.00 409.76,35.00 410.59,35.00 411.42,35.00 412.24,35.00 413.07,35.00 413.90,35.00 414.73,35.00 415.56,35.00 416.38,35.00 417.22,35.00 418.05,35.00 418.87,35.00 419.60,35.00 420.45,35.00 421.28,35.00 422.13,35.00 422.96,35.00 423.78,35.00 424.62,35.00 425.45,35.00 426.29,35.00 427.13,35.00 427.96,35.00 428.81,35.00 429.63,35.00 430.45,35.00 431.28,35.00 432.10,35.00 432.92,35.00 433.75,35.00 434.59,35.00 435.41,35.00 436.24,35.00 437.07,35.00 437.89,35.00 438.73,35.00 439.56,35.00 440.39,35.00 441.22,35.00 442.05,35.00 442.88,35.00 443.72,35.00 444.55,35.00 445.40,35.00 446.22,35.00 447.05,35.00 447.88,35.00 448.70,35.00 449.52,35.00 450.36,35.00 451.18,35.00 452.01,35.00 452.84,35.00 453.66,35.00 454.49,35.00 455.32,35.00 456.16,35.00 456.99,35.00 457.99,35.00 458.84,35.00 459.69,35.00 460.52,35.00 461.35,35.00 462.19,35.00 463.01,35.00 463.84,35.00 464.68,35.00 465.51,35.00 466.34,35.00 467.17,35.00 468.01,35.00 468.83,35.00 469.69,35.00 470.54,35.00 471.37,35.00 472.20,35.00 473.03,35.00 473.85,35.00 474.68,35.00 475.51,35.00 476.37,35.00 477.21,35.00 478.04,35.00 478.87,35.00 479.70,35.00 480.53,35.00 481.36,35.00 482.19,35.00 483.02,35.00 483.86,35.00 484.69,35.00 485.52,35.00 486.35,35.00 487.18,35.00 488.00,35.00 488.85,35.00 489.68,35.00 490.51,35.00 491.33,35.00 492.16,35.00 493.00,35.00 493.84,35.00 494.84,35.00 495.69,35.00 496.52,35.00 497.35,35.00 498.17,35.00 499.01,35.00 499.84,35.00 500.67,35.00 501.52,35.00 502.34,35.00 503.17,35.00 504.00,35.00 504.83,35.00 505.65,35.00 506.48,35.00 507.32,35.00 508.14,35.00 508.97,35.00 509.80,35.00 510.62,35.00 511.47,35.00 512.29,35.00 513.12,35.00 513.96,35.00 514.80,35.00 515.62,35.00 516.45,35.00 517.28,35.00 518.13,35.00 518.96,35.00 519.79,35.00 520.63,35.00 521.46,35.00 522.28,35.00 523.12,35.00 523.95,35.00 524.80,35.00 525.63,35.00 526.46,35.00 527.28,35.00 528.10,35.00 528.93,35.00 529.76,35.00 530.59,35.00 531.43,35.00 532.27,35.00 533.11,35.00 533.92,35.00 534.76,35.00 535.58,35.00 536.42,35.00 537.24,35.00 538.07,35.00 538.90,35.00 539.74,35.00 540.57,35.00 541.40,35.00 542.24,35.00 543.08,35.00 543.91,35.00 544.74,35.00 545.58,35.00 546.51,35.00 547.42,35.00 548.31,35.00 549.15,35.00 550.01,35.00 550.85,35.00 551.68,35.00 552.50,35.00 553.28,35.00 554.14,35.00 554.97,35.00 555.82,35.00 556.63,35.00 557.47,35.00 558.29,35.00 559.13,35.00 559.95,35.00 560.79,35.00 561.62,35.00 562.45,35.00 563.28,35.00 564.12,35.00 564.96,35.00 565.79,35.00 566.63,35.00 567.46,35.00 568.29,35.00 569.14,35.00 569.97,35.00 570.79,35.00 571.62,35.00 572.46,35.00 573.28,35.00 574.11,35.00 574.94,35.00 575.78,35.00 576.62,35.00 577.44,35.00 578.27,35.00 579.10,35.00 579.94,35.00 580.77,35.00 581.61,35.00 582.43,35.00 583.26,35.00 584.10,35.00 584.93,35.00 585.77,35.00 586.61,35.00 587.44,35.00 588.27,35.00 589.11,35.00 589.94,35.00 590.78,35.00 591.63,35.00 592.46,35.00 593.30,35.00 594.13,35.00 594.96,35.00 595.79,35.00 596.62,35.00 597.46,35.00 598.30,35.00 599.12,35.00 599.96,35.00 600.80,35.00 601.63,35.00 602.47,35.00 603.30,35.00 604.14,35.00 604.97,35.00 605.81,35.00 606.65,35.00 607.48,35.00 608.31,35.00 609.15,35.00 609.98,35.00 610.83,35.00 611.67,35.00 612.51,35.00 613.34,35.00 614.17,35.00 615.00,35.00 615.83,35.00 616.66,35.00 617.50,35.00 618.33,35.00 619.16,35.00 619.99,35.00 620.82,35.00 621.66,35.00 622.50,35.00 623.32,35.00 624.17,35.00 625.00,35.00 625.84,35.00 626.67,35.00 627.50,35.00 628.32,35.00 629.15,35.00 629.98,35.00 630.82,35.00 631.66,35.00 632.49,35.00 633.33,35.00 634.16,35.00 635.00,35.00 635.84,35.00 636.67,35.00 637.50,35.00 638.34,35.00 639.17,35.00 640.01,35.00 640.84,35.00 641.69,35.00 642.52,35.00 643.36,35.00 644.21,35.00 645.04,35.00 645.88,35.00 646.72,35.00 647.54,35.00 648.38,35.00 649.22,35.00 650.06,35.00 650.90,35.00 651.73,35.00 652.56,35.00 653.39,35.00 654.24,35.00 655.07,35.00 655.91,35.00 656.74,35.00 657.57,35.00 658.40,35.00 659.22,35.00 660.05,35.00 660.89,35.00 661.72,35.00 662.56,35.00 663.39,35.00 664.22,35.00 665.06,35.00 665.91,35.00 666.75,35.00 667.58,35.00 668.41,35.00 669.24,35.00 670.07,35.00 670.90,35.00 671.74,35.00 672.57,35.00 673.41,35.00 674.25,35.00 675.08,35.00 675.91,35.00 676.74,35.00 677.59,35.00 678.44,35.00 679.28,35.00 680.12,35.00 680.96,35.00 681.79,35.00 682.64,35.00 683.46,35.00 684.29,35.00 685.12,35.00 685.96,35.00 686.79,35.00 687.63,35.00 688.47,35.00 689.31,35.00 690.18,35.00 691.01,35.00 691.84,35.00 692.68,35.00 693.51,35.00 694.35,35.00 695.19,35.00 696.03,35.00 696.87,35.00 697.71,35.00 698.54,35.00 699.38,35.00 700.22,35.00 701.05,35.00 701.89,35.00 702.72,35.00 703.55,35.00 704.39,35.00 705.23,35.00 706.07,35.00 706.90,35.00 707.74,35.00 708.58,35.00 709.41,35.00 710.25,35.00 711.08,35.00 711.95,35.00 712.78,35.00 713.63,35.00 714.46,35.00 715.31,35.00 716.17,35.00 717.02,35.00 717.86,35.00 718.72,35.00 719.56,35.00 720.40,35.00 721.23,35.00 722.07,35.00 722.90,35.00 723.74,35.00 724.60,35.00 725.43,35.00 726.27,35.00 727.10,35.00 727.93,35.00 728.76,35.00 729.60,35.00 730.43,35.00 731.27,35.00 732.10,35.00 732.93,35.00 733.76,35.00 734.58,35.00 735.42,35.00 736.25,35.00 737.09,35.00 737.92,35.00 738.77,35.00 739.61,35.00 740.43,35.00 741.27,35.00 742.11,35.00 742.94,35.00 743.77,35.00 744.60,35.00 745.44,35.00 746.28,35.00 747.10,35.00 747.93,35.00 748.76,35.00 749.59,35.00 750.43,35.00 751.26,35.00 752.09,35.00 752.93,35.00 753.76,35.00 754.59,35.00 755.43,35.00 756.26,35.00 757.08,35.00 757.91,35.00 758.73,35.00 759.56,35.00 760.40,35.00 761.25,35.00 762.08,35.00 762.91,35.00 763.74,35.00 764.59,35.00 765.43,35.00 766.26,35.00 767.11,35.00 767.94,35.00 768.77,35.00 769.61,35.00 770.45,35.00 771.29,35.00 772.13,35.00 772.96,35.00 773.79,35.00 774.62,35.00 775.45,35.00 776.28,35.00 777.12,35.00 777.94,35.00 778.77,35.00 779.61,35.00 780.45,35.00 781.28,35.00 782.11,35.00 782.94,35.00 783.77,35.00 784.61,35.00 785.45,35.00 786.28,35.00 787.11,35.00 787.95,35.00 788.79,35.00 789.62,35.00 790.45,35.00 791.29,35.00 792.12,35.00 792.95,35.00 793.79,35.00 794.63,35.00 795.46,35.00 796.29,35.00 797.12,35.00 797.98,35.00 798.81,35.00 799.66,35.00 800.51,35.00 801.34,35.00 802.18,35.00 803.01,35.00 803.85,35.00 804.69,35.00 805.52,35.00 806.36,35.00 807.21,35.00 808.05,35.00 808.88,35.00 809.72,35.00 810.55,35.00 811.39,35.00 812.22,35.00 813.05,35.00 813.88,35.00 814.72,35.00 815.55,35.00 816.38,35.00 817.21,35.00 818.05,35.00 818.88,35.00 819.71,35.00 820.54,35.00 821.37,35.00 822.20,35.00 823.05,35.00 823.88,35.00 824.71,35.00 825.55,35.00 826.38,35.00 827.20,35.00 828.05,35.00 828.88,35.00 829.73,35.00 830.56,35.00 831.38,35.00 832.21,35.00 833.05,35.00 833.89,35.00 834.71,35.00 835.56,35.00 836.41,35.00 837.26,35.00 838.11,35.00 838.96,35.00 839.81,35.00 840.67,35.00 841.52,35.00 842.38,35.00 843.23,35.00 844.09,35.00 844.92,35.00 845.75,35.00 846.59,35.00 847.43,35.00 848.27,35.00 849.10,35.00 849.94,35.00 850.78,35.00 851.61,35.00 852.45,35.00 853.28,35.00 854.11,35.00 854.94,35.00 855.77,35.00 856.60,35.00 857.44,35.00 858.28,35.00 859.11,35.00 859.96,35.00 860.80,35.00 861.63,35.00 862.46,35.00 863.29,35.00 864.13,35.00 864.96,35.00 865.80,35.00 866.63,35.00 867.46,35.00 868.30,35.00 869.13,35.00 869.97,35.00 870.81,35.00 871.64,35.00 872.47,35.00 873.37,35.00 874.23,35.00 875.06,35.00 875.89,35.00 876.72,35.00 877.57,35.00 878.41,35.00 879.25,35.00 880.09,35.00 880.91,35.00 881.73,35.00 882.57,35.00 883.40,35.00 884.23,35.00 885.07,35.00 885.90,35.00 886.74,35.00 887.58,35.00 888.42,35.00 889.25,35.00 890.08,35.00 890.91,35.00 891.75,35.00 892.59,35.00 893.42,35.00 894.25,35.00 895.09,35.00 895.93,35.00 896.76,35.00 897.63,35.00 898.47,35.00 899.30,35.00 900.13,35.00 900.97,35.00 901.80,35.00 902.64,35.00 903.48,35.00 904.31,35.00 905.15,35.00 905.99,35.00 906.83,35.00 907.67,35.00 908.51,35.00 909.34,35.00 910.17,35.00 911.01,35.00 911.84,35.00 912.68,35.00 913.51,35.00 914.36,35.00 915.19,35.00 916.02,35.00 916.86,35.00 917.69,35.00 918.53,35.00 919.36,35.00 920.19,35.00 921.02,35.00 921.86,35.00 922.70,35.00 923.52,35.00 924.36,35.00 925.19,35.00 926.03,35.00 926.87,35.00 927.70,35.00 928.53,35.00 929.36,35.00 930.19,35.00 931.02,35.00 931.86,35.00 932.69,35.00 933.55,35.00 934.38,35.00 935.22,35.00 936.06,35.00 936.89,35.00 937.74,35.00 938.64,35.00 939.49,35.00 940.33,35.00 941.17,35.00 942.02,35.00 942.85,35.00 943.68,35.00 944.52,35.00 945.35,35.00 946.19,35.00 947.03,35.00 947.86,35.00 948.70,35.00 949.55,35.00 950.39,35.00 951.23,35.00 952.06,35.00 952.89,35.00 953.73,35.00 954.57,35.00 955.40,35.00 956.23,35.00 957.08,35.00 957.91,35.00 958.75,35.00 959.59,35.00 960.43,35.00 961.26,35.00 962.11,35.00 962.95,35.00 963.79,35.00 964.61,35.00 965.45,35.00 966.29,35.00 967.12,35.00 967.95,35.00 968.79,35.00 969.62,35.00 970.46,35.00 971.30,35.00 972.12,35.00 972.96,35.00 973.80,35.00 974.64,35.00 975.46,35.00 976.31,35.00 977.14,35.00 977.99,35.00 978.82,35.00 979.64,35.00 980.45,35.00 981.28,35.00 982.12,35.00 982.96,35.00 983.80,35.00 984.64,35.00 985.47,35.00 986.32,35.00 987.16,35.00 987.99,35.00 988.83,35.00 989.65,35.00 990.49,35.00 991.31,35.00 992.14,35.00 992.98,35.00 993.82,35.00 994.65,35.00 995.48,35.00 996.31,35.00 997.14,35.00 997.98,35.00 998.82,35.00 999.64,35.00 1000.47,35.00 1001.28,35.00 1002.13,35.00 1002.97,35.00 1003.80,35.00 1004.64,35.00 1005.49,35.00 1006.32,35.00 1007.15,35.00 1007.99,35.00 1008.82,35.00 1009.66,35.00 1010.49,35.00 1011.39,35.00 1012.22,35.00 1013.06,35.00 1013.90,35.00 1014.75,35.00 1015.57,35.00 1016.40,35.00 1017.25,35.00 1018.08,35.00 1018.91,35.00 1019.74,35.00 1020.57,35.00 1021.41,35.00 1022.26,35.00 1023.09,35.00 1023.92,35.00 1024.76,35.00 1025.59,35.00 1026.43,35.00 1027.27,35.00 1028.11,35.00 1028.95,35.00 1029.81,35.00 1030.64,35.00 1031.48,35.00 1032.32,35.00 1033.16,35.00 1034.00,35.00 1034.83,35.00 1035.66,35.00 1036.49,35.00 1037.33,35.00 1038.16,35.00 1039.00,35.00 1039.84,35.00 1040.67,35.00 1041.51,35.00 1042.35,35.00 1043.17,35.00 1044.00,35.00 1044.84,35.00 1045.68,35.00 1046.50,35.00 1047.34,35.00 1048.17,35.00 1049.00,35.00 1049.83,35.00 1050.66,35.00 1051.49,35.00 1052.32,35.00 1053.15,35.00 1053.98,35.00 1054.82,35.00 1055.64,35.00 1056.47,35.00 1057.30,35.00 1058.14,35.00 1058.97,35.00 1059.80,35.00 1060.63,35.00 1061.46,35.00 1062.31,35.00 1063.13,35.00 1063.96,35.00 1064.80,35.00 1065.67,35.00 1066.50,35.00 1067.34,35.00 1068.18,35.00 1069.02,35.00 1069.85,35.00 1070.69,35.00 1071.53,35.00 1072.36,35.00 1073.19,35.00 1074.02,35.00 1074.85,35.00 1075.69,35.00 1076.52,35.00 1077.36,35.00 1078.19,35.00 1079.02,35.00 1079.85,35.00 1080.68,35.00 1081.52,35.00 1082.36,35.00 1083.23,35.00 1084.06,35.00 1084.89,35.00 1085.71,35.00 1086.54,35.00 1087.39,35.00 1088.22,35.00 1089.05,35.00 1089.89,35.00 1090.72,35.00 1091.56,35.00 1092.40,35.00 1093.23,35.00 1094.07,35.00 1094.90,35.00 1095.74,35.00 1096.57,35.00 1097.40,35.00 1098.23,35.00 1099.06,35.00 1099.89,35.00 1100.73,35.00 1101.56,35.00 1102.39,35.00 1103.22,35.00 1104.06,35.00 1104.89,35.00 1105.72,35.00 1106.56,35.00 1107.39,35.00 1108.22,35.00 1109.06,35.00 1109.89,35.00 1110.73,35.00 1111.56,35.00 1112.39,35.00 1113.23,35.00 1114.06,35.00 1114.88,35.00 1115.72,35.00 1116.56,35.00 1117.38,35.00 1118.24,35.00 1119.07,35.00 1119.90,35.00 1120.74,35.00 1121.58,35.00 1122.41,35.00 1123.26,35.00 1124.10,35.00 1124.99,35.00 1125.82,35.00 1126.72,35.00 1127.55,35.00 1128.38,35.00 1129.21,35.00 1130.04,35.00 1130.88,35.00 1131.71,35.00 1132.54,35.00 1133.38,35.00 1134.21,35.00 1135.05,35.00 1135.88,35.00 1136.71,35.00 1137.54,35.00 1138.37,35.00 1139.20,35.00 1140.03,35.00 1140.86,35.00 1141.70,35.00 1142.54,35.00 1143.38,35.00 1144.20,35.00 1145.03,35.00 1145.87,35.00 1146.70,35.00 1147.54,35.00 1148.37,35.00 1149.21,35.00 1150.04,35.00 1150.88,35.00 1151.70,35.00 1152.53,35.00 1153.37,35.00 1154.20,35.00 1155.03,35.00 1155.85,35.00 1156.68,35.00 1157.51,35.00 1158.35,35.00 1159.17,35.00 1160.01,35.00 1160.85,35.00 1161.71,35.00 1162.55,35.00 1163.38,35.00 1164.21,35.00 1165.04,35.00 1165.86,35.00 1166.69,35.00 1167.53,35.00 1168.36,35.00 1169.19,35.00 1170.02,35.00 1170.84,35.00 1171.67,35.00 1172.50,35.00 1173.34,35.00 1174.16,35.00 1175.00,35.00 1175.84,35.00 1176.66,35.00 1177.49,35.00 1178.34,35.00 1179.17,35.00 1180.00,35.00"/>
<rect x="70" y="332" width="12" height="12" fill="#2ca02c" fill-opacity="0.95"/>
<text x="88" y="342" font-size="11" fill="#333" font-family="Arial, Helvetica, sans-serif">nsc1.utdallas.edu</text>
<rect x="350" y="332" width="12" height="12" fill="#2ca02c" fill-opacity="0.80"/>
<text x="368" y="342" font-size="11" fill="#333" font-family="Arial, Helvetica, sans-serif">nsc2.utdallas.edu</text>
<rect x="630" y="332" width="12" height="12" fill="#2ca02c" fill-opacity="0.65"/>
<text x="648" y="342" font-size="11" fill="#333" font-family="Arial, Helvetica, sans-serif">nsc3.utdallas.edu</text>
<rect x="910" y="332" width="12" height="12" fill="#2ca02c" fill-opacity="0.50"/>
<text x="928" y="342" font-size="11" fill="#333" font-family="Arial, Helvetica, sans-serif">nsc4.utdallas.edu</text>
</svg>