<?xml version="1.0" encoding="UTF-8"?>
<svg xmlns="http://www.w3.org/2000/svg" width="1200" height="360" viewBox="0 0 1200 360" role="img" aria-label="Mumax3 Health (%)">
<rect width="100%" height="100%" fill="#ffffff"/>
<text x="600.0" y="22" text-anchor="middle" font-size="16" font-family="Arial, Helvetica, sans-serif" font-weight="bold">Mumax3 Health (%)</text>
<line x1="70" y1="35.00" x2="1180" y2="35.00" stroke="#e3e3e3" stroke-width="1"/>
<text x="62" y="39.00" text-anchor="end" font-size="11" fill="#444" font-family="Arial, Helvetica, sans-serif">100</text>
<line x1="70" y1="89.00" x2="1180" y2="89.00" stroke="#e3e3e3" stroke-width="1"/>
<text x="62" y="93.00" text-anchor="end" font-size="11" fill="#444" font-family="Arial, Helvetica, sans-serif">80</text>
<line x1="70" y1="143.00" x2="1180" y2="143.00" stroke="#e3e3e3" stroke-width="1"/>
<text x="62" y="147.00" text-anchor="end" font-size="11" fill="#444" font-family="Arial, Helvetica, sans-serif">60</text>
<line x1="70" y1="197.00" x2="1180" y2="197.00" stroke="#e3e3e3" stroke-width="1"/>
<text x="62" y="201.00" text-anchor="end" font-size="11" fill="#444" font-family="Arial, Helvetica, sans-serif">40</text>
<line x1="70" y1="251.00" x2="1180" y2="251.00" stroke="#e3e3e3" stroke-width="1"/>
<text x="62" y="255.00" text-anchor="end" font-size="11" fill="#444" font-family="Arial, Helvetica, sans-serif">20</text>
<line x1="70" y1="305.00" x2="1180" y2="305.00" stroke="#e3e3e3" stroke-width="1"/>
<text x="62" y="309.00" text-anchor="end" font-size="11" fill="#444" font-family="Arial, Helvetica, sans-serif">0</text>
<line x1="70" y1="35" x2="70" y2="305" stroke="#999"/>
<line x1="70" y1="305" x2="1180" y2="305" stroke="#999"/>
<text x="70.00" y="323" text-anchor="middle" font-size="10" fill="#444" font-family="Arial, Helvetica, sans-serif">2026-02-11 16:38</text>
<text x="347.50" y="323" text-anchor="middle" font-size="10" fill="#444" font-family="Arial, Helvetica, sans-serif">2026-02-12 00:50</text>
<text x="625.00" y="323" text-anchor="middle" font-size="10" fill="#444" font-family="Arial, Helvetica, sans-serif">2026-02-12 09:02</text>
<text x="902.50" y="323" text-anchor="middle" font-size="10" fill="#444" font-family="Arial, Helvetica, sans-serif">2026-02-12 17:14</text>
<text x="1180.00" y="323" text-anchor="middle" font-size="10" fill="#444" font-family="Arial, Helvetica, sans-serif">2026-02-13 01:26</text>
<polyline fill="none" stroke="#2ca02c" stroke-opacity="0.95" stroke-width="2" points="73.04,35.00 76.08,35.00 79.11,35.00 82.15,35.00 85.22,35.00 88.23,35.00 91.27,35.00 94.56,35.00 97.58,35.00 100.60,35.00 103.61,35.00 106.70,35.00 109.71,35.00 112.73,35.00 118.19,35.00 122.90,35.00 125.97,35.00 129.08,35.00 132.10,35.00 135.13,35.00 138.10,35.00 141.16,35.00 144.19,35.00 147.25,35.00 150.30,35.00 153.39,35.00 156.44,35.00 159.48,35.00 162.67,35.00 165.74,35.00 168.76,35.00 171.87,35.00 174.91,35.00 177.95,35.00 181.08,35.00 184.08,35.00 187.12,35.00 190.21,35.00 193.21,35.00 196.25,35.00 199.24,35.00 202.27,35.00 205.32,35.00 208.33,35.00 211.44,35.00 214.50,35.00 217.50,35.00 220.53,35.00 223.59,35.00 226.63,35.00 230.09,35.00 233.13,35.00 236.16,35.00 239.16,35.00 242.18,35.00 245.19,35.00 248.21,35.00 251.25,35.00 254.28,35.00 257.37,35.00 260.40,35.00 263.40,35.00 266.45,35.00 269.53,35.00 272.55,35.00 275.60,35.00 278.60,35.00 281.60,35.00 284.62,35.00 287.63,35.00 290.66,35.00 293.69,35.00 296.70,35.00 299.74,35.00 302.78,35.00 305.78,35.00 308.83,35.00 311.84,35.00 314.86,35.00 317.97,35.00 321.00,35.00 324.02,35.00 327.08,35.00 330.10,35.00 333.14,35.00 336.17,35.00 339.17,35.00 342.18,35.00 345.23,35.00 348.28,35.00 351.31,35.00 354.38,35.00 357.36,35.00 360.41,35.00 363.43,35.00 366.45,35.00 369.46,35.00 372.50,35.00 375.51,35.00 378.56,35.00 381.60,35.00 384.63,35.00 387.67,35.00 390.74,35.00 393.80,35.00 396.82,35.00 399.84,35.00 402.87,35.00 405.89,35.00 408.95,35.00 411.99,35.00 415.01,35.00 418.04,35.00 421.08,35.00 424.13,35.00 427.19,35.00 430.27,35.00 433.29,35.00 436.32,35.00 439.36,35.00 442.38,35.00 445.41,35.00 448.47,35.00 451.76,35.00 454.77,35.00 457.85,35.00 460.87,35.00 463.88,35.00 466.89,35.00 469.87,35.00 472.90,35.00 475.93,35.00 478.96,35.00 481.98,35.00 485.00,35.00 488.03,35.00 491.04,35.00 494.13,35.00 497.15,35.00 500.17,35.00 503.19,35.00 506.23,35.00 509.24,35.00 512.29,35.00 515.33,35.00 518.37,35.00 521.41,35.00 524.43,35.00 527.44,35.00 530.46,35.00 533.49,35.00 536.51,35.00 539.56,35.00 542.62,35.00 545.66,35.00 548.68,35.00 551.75,35.00 554.78,35.00 557.79,35.00 560.84,35.00 563.87,35.00 566.96,35.00 570.03,35.00 573.05,35.00 576.09,35.00 579.10,35.00 582.11,35.00 585.14,35.00 588.17,35.00 591.19,35.00 594.19,35.00 597.21,35.00 600.27,35.00 603.31,35.00 606.35,35.00 609.38,35.00 612.48,35.00 615.51,35.00 618.53,35.00 621.55,35.00 624.56,35.00 627.86,35.00 630.96,35.00 633.97,35.00 636.98,35.00 639.97,35.00 643.02,35.00 646.05,35.00 649.09,35.00 652.14,35.00 655.15,35.00 658.17,35.00 661.21,35.00 664.31,35.00 667.34,35.00 670.34,35.00 673.37,35.00 676.43,35.00 679.53,35.00 682.63,35.00 685.64,35.00 688.67,35.00 691.71,35.00 694.73,35.00 697.77,35.00 700.81,35.00 703.88,35.00 706.90,35.00 709.91,35.00 712.97,35.00 716.01,35.00 719.03,35.00 722.07,35.00 725.14,35.00 728.18,35.00 731.20,35.00 734.20,35.00 737.21,35.00 740.26,35.00 743.28,35.00 746.30,35.00 749.33,35.00 752.33,35.00 755.35,35.00 758.41,35.00 761.44,35.00 764.49,35.00 767.56,35.00 770.60,35.00 773.65,35.00 776.67,35.00 779.72,35.00 782.74,35.00 785.78,35.00 788.82,35.00 791.92,35.00 794.95,35.00 798.00,35.00 801.04,35.00 804.05,35.00 807.10,35.00 810.10,35.00 813.12,35.00 816.18,35.00 819.21,35.00 822.25,35.00 825.29,35.00 828.34,35.00 831.37,35.00 834.40,35.00 837.46,35.00 840.52,35.00 843.54,35.00 846.57,35.00 849.62,35.00 852.69,35.00 855.73,35.00 858.76,35.00 861.79,35.00 865.15,35.00 868.21,35.00 871.24,35.00 874.28,35.00 877.34,35.00 880.39,35.00 883.42,35.00 886.47,35.00 889.48,35.00 892.61,35.00 895.68,35.00 898.69,35.00 901.72,35.00 904.75,35.00 907.79,35.00 910.82,35.00 913.97,35.00 917.01,35.00 920.03,35.00 923.11,35.00 926.38,35.00 929.42,35.00 933.23,35.00 938.36,35.00 941.47,35.00 944.57,35.00 947.59,35.00 950.56,35.00 953.58,35.00 956.67,35.00 959.71,35.00 962.77,35.00 965.92,35.00 969.06,35.00 972.28,35.00 975.32,35.00 978.36,35.00 981.40,35.00 984.47,35.00 987.54,35.00 990.61,35.00 993.62,35.00 996.65,35.00 999.81,35.00 1002.86,35.00 1005.86,35.00 1008.91,35.00 1011.99,35.00 1015.14,35.00 1018.20,35.00 1021.23,35.00 1024.35,35.00 1027.26,35.00 1030.27,35.00 1033.37,35.00 1036.38,35.00 1039.47,35.00 1042.60,35.00 1045.64,35.00 1048.67,35.00 1051.74,35.00 1054.81,35.00 1057.84,35.00 1060.87,35.00 1063.88,35.00 1066.93,35.00 1069.98,35.00 1072.99,35.00 1076.60,35.00 1080.18,35.00 1083.77,35.00 1087.29,35.00 1090.76,35.00 1094.26,35.00 1097.85,35.00 1101.38,35.00 1104.43,35.00 1107.43,35.00 1110.45,35.00 1113.48,35.00 1116.52,35.00 1119.52,35.00 1122.54,35.00 1125.56,35.00 1128.59,35.00 1131.62,35.00 1134.65,35.00 1137.66,35.00 1140.69,35.00 1143.70,35.00 1146.73,35.00 1149.74,35.00 1152.78,35.00 1155.78,35.00 1158.82,35.00 1161.88,35.00 1164.88,35.00 1167.88,35.00 1170.90,35.00 1173.93,35.00 1176.96,35.00 1180.00,35.00"/>
<polyline fill="none" stroke="#2ca02c" stroke-opacity="0.80" stroke-width="2" points="70.00,35.00 73.04,35.00 76.08,35.00 79.11,35.00 82.15,35.00 85.22,35.00 88.23,35.00 91.27,35.00 94.56,35.00 97.58,35.00 100.60,35.00 103.61,35.00 106.70,35.00 109.71,35.00 112.73,35.00 118.19,35.00 122.90,35.00 125.97,35.00 129.08,35.00 132.10,35.00 135.13,35.00 138.10,35.00 141.16,35.00 144.19,35.00 147.25,35.00 150.30,35.00 153.39,35.00 156.44,35.00 159.48,35.00 162.67,35.00 165.74,35.00 168.76,35.00 171.87,35.00 174.91,35.00 177.95,35.00 181.08,35.00 184.08,35.00 187.12,35.00 190.21,35.00 193.21,35.00 196.25,35.00 199.24,35.00 202.27,35.00 205.32,35.00 208.33,35.00 211.44,35.00 214.50,35.00 217.50,35.00 220.53,35.00 223.59,35.00 226.63,35.00 230.09,35.00 233.13,35.00 236.16,35.00 239.16,35.00 242.18,35.00 245.19,35.00 248.21,35.00 251.25,35.00 254.28,35.00 257.37,35.00 260.40,35.00 263.40,35.00 266.45,35.00 269.53,35.00 272.55,35.00 275.60,35.00 278.60,35.00 281.60,35.00 284.62,35.00 287.63,35.00 290.66,35.00 293.69,35.00 296.70,35.00 299.74,35.00 302.78,35.00 305.78,35.00 308.83,35.00 311.84,35.00 314.86,35.00 317.97,35.00 321.00,35.00 324.02,35.00 327.08,35.00 330.10,35.00 333.14,35.00 336.17,35.00 339.17,35.00 342.18,35.00 345.23,35.00 348.28,35.00 351.31,35.00 354.38,35.00 357.36,35.00 360.41,35.00 363.43,35.00 366.45,35.00 369.46,35.00 372.50,35.00 375.51,35.00 378.56,35.00 381.60,35.00 384.63,35.00 387.67,35.00 390.74,35.00 393.80,35.00 396.82,35.00 399.84,35.00 402.87,35.00 405.89,35.00 408.95,35.00 411.99,35.00 415.01,35.00 418.04,35.00 421.08,35.00 424.13,35.00 427.19,35.00 430.27,35.00 433.29,35.00 436.32,35.00 439.36,35.00 442.38,35.00 445.41,35.00 448.47,35.00 451.76,35.00 454.77,35.00 457.85,35.00 460.87,35.00 463.88,35.00 466.89,35.00 469.87,35.00 472.90,35.00 475.93,35.00 478.96,35.00 481.98,35.00 485.00,35.00 488.03,35.00 491.04,35.00 494.13,35.00 497.15,35.00 500.17,35.00 503.19,35.00 506.23,35.00 509.24,35.00 512.29,35.00 515.33,35.00 518.37,35.00 521.41,35.00 524.43,35.00 527.44,35.00 530.46,35.00 533.49,35.00 536.51,35.00 539.56,35.00 542.62,35.00 545.66,35.00 548.68,35.00 551.75,35.00 554.78,35.00 557.79,35.00 560.84,35.00 563.87,35.00 566.96,35.00 570.03,35.00 573.05,35.00 576.09,35.00 579.10,35.00 582.11,35.00 585.14,35.00 588.17,35.00 591.19,35.00 594.19,35.00 597.21,35.00 600.27,35.00 603.31,35.00 606.35,35.00 609.38,35.00 612.48,35.00 615.51,35.00 618.53,35.00 621.55,35.00 624.56,35.00 627.86,35.00 630.96,35.00 633.97,35.00 636.98,35.00 639.97,35.00 643.02,35.00 646.05,35.00 649.09,35.00 652.14,35.00 655.15,35.00 658.17,35.00 661.21,35.00 664.31,35.00 667.34,35.00 670.34,35.00 673.37,35.00 676.43,35.00 679.53,35.00 682.63,35.00 685.64,35.00 688.67,35.00 691.71,35.00 694.73,35.00 697.77,35.00 700.81,35.00 703.88,35.00 706.90,35.00 709.91,35.00 712.97,35.00 716.01,35.00 719.03,35.00 722.07,35.00 725.14,35.00 728.18,35.00 731.20,35.00 734.20,35.00 737.21,35.00 740.26,35.00 743.28,35.00 746.30,35.00 749.33,35.00 752.33,35.00 755.35,35.00 758.41,35.00 761.44,35.00 764.49,35.00 767.56,35.00 770.60,35.00 773.65,35.00 776.67,35.00 779.72,35.00 782.74,35.00 785.78,35.00 788.82,35.00 791.92,35.00 794.95,35.00 798.00,35.00 801.04,35.00 804.05,35.00 807.10,35.00 810.10,35.00 813.12,35.00 816.18,35.00 819.21,35.00 822.25,35.00 825.29,35.00 828.34,35.00 831.37,35.00 834.40,35.00 837.46,35.00 840.52,35.00 843.54,35.00 846.57,35.00 849.62,35.00 852.69,35.00 855.73,35.00 858.76,35.00 861.79,35.00 865.15,35.00 868.21,35.00 871.24,35.00 874.28,35.00 877.34,35.00 880.39,35.00 883.42,35.00 886.47,35.00 889.48,35.00 892.61,35.00 895.68,35.00 898.69,35.00 901.72,35.00 904.75,35.00 907.79,35.00 910.82,35.00 913.97,35.00 917.01,35.00 920.03,35.00 923.11,35.00 926.38,35.00 929.42,35.00 933.23,35.00 938.36,35.00 941.47,35.00 944.57,35.00 947.59,35.00 950.56,35.00 953.58,35.00 956.67,35.00 959.71,35.00 962.77,35.00 965.92,35.00 969.06,35.00 972.28,35.00 975.32,35.00 978.36,35.00 981.40,35.00 984.47,35.00 987.54,35.00 990.61,35.00 993.62,35.00 996.65,35.00 999.81,35.00 1002.86,35.00 1005.86,35.00 1008.91,35.00 1011.99,35.00 1015.14,35.00 1018.20,35.00 1021.23,35.00 1024.35,35.00 1027.26,35.00 1030.27,35.00 1033.37,35.00 1036.38,35.00 1039.47,35.00 1042.60,35.00 1045.64,35.00 1048.67,35.00 1051.74,35.00 1054.81,35.00 1057.84,35.00 1060.87,35.00 1063.88,35.00 1066.93,35.00 1069.98,35.00 1072.99,35.00 1076.60,35.00 1080.18,35.00 1083.77,35.00 1087.29,35.00 1090.76,35.00 1094.26,35.00 1097.85,35.00 1101.38,35.00 1104.43,35.00 1107.43,35.00 1110.45,35.00 1113.48,35.00 1116.52,35.00 1119.52,35.00 1122.54,35.00 1125.56,35.00 1128.59,35.00 1131.62,35.00 1134.65,35.00 1137.66,35.00 1140.69,35.00 1143.70,35.00 1146.73,35.00 1149.74,35.00 1152.78,35.00 1155.78,35.00 1158.82,35.00 1161.88,35.00 1164.88,35.00 1167.88,35.00 1170.90,35.00 1173.93,35.00 1176.96,35.00 1180.00,35.00"/>
<polyline fill="none" stroke="#2ca02c" stroke-opacity="0.65" stroke-width="2" points="70.00,305.00 73.04,305.00 76.08,305.00 79.11,305.00 82.15,305.00 85.22,305.00 88.23,305.00 91.27,305.00 94.56,305.00 97.58,305.00 100.60,305.00 103.61,305.00 106.70,305.00 109.71,305.00 112.73,305.00 118.19,305.00 122.90,305.00 125.97,305.00 129.08,305.00 132.10,305.00 135.13,305.00 138.10,305.00 141.16,305.00 144.19,305.00 147.25,305.00 150.30,305.00 153.39,305.00 156.44,305.00 159.48,305.00 162.67,305.00 165.74,305.00 168.76,305.00 171.87,305.00 174.91,305.00 177.95,305.00 181.08,305.00 184.08,305.00 187.12,305.00 190.21,305.00 193.21,305.00 196.25,305.00 199.24,305.00 202.27,305.00 205.32,305.00 208.33,305.00 211.44,305.00 214.50,305.00 217.50,305.00 220.53,305.00 223.59,305.00 226.63,305.00 230.09,305.00 233.13,305.00 236.16,305.00 239.16,305.00 242.18,305.00 245.19,305.00 248.21,305.00 251.25,305.00 254.28,305.00 257.37,305.00 260.40,305.00 263.40,305.00 266.45,305.00 269.53,305.00 272.55,305.00 275.60,305.00 278.60,305.00 281.60,305.00 284.62,305.00 287.63,305.00 290.66,305.00 293.69,305.00 296.70,305.00 299.74,305.00 302.78,305.00 305.78,305.00 308.83,305.00 311.84,305.00 314.86,305.00 317.97,305.00 321.00,305.00 324.02,305.00 327.08,305.00 330.10,305.00 333.14,305.00 336.17,305.00 339.17,305.00 342.18,305.00 345.23,305.00 348.28,305.00 351.31,305.00 354.38,305.00 357.36,305.00 360.41,305.00 363.43,305.00 366.45,305.00 369.46,305.00 372.50,305.00 375.51,305.00 378.56,305.00 381.60,305.00 384.63,305.00 387.67,305.00 390.74,305.00 393.80,305.00 396.82,305.00 399.84,305.00 402.87,305.00 405.89,305.00 408.95,305.00 411.99,305.00 415.01,305.00 418.04,305.00 421.08,305.00 424.13,305.00 427.19,305.00 430.27,305.00 433.29,305.00 436.32,305.00 439.36,305.00 442.38,305.00 445.41,305.00 448.47,305.00 451.76,305.00 454.77,305.00 457.85,305.00 460.87,305.00 463.88,305.00 466.89,305.00 469.87,305.00 472.90,305.00 475.93,305.00 478.96,305.00 481.98,305.00 485.00,305.00 488.03,305.00 491.04,305.00 494.13,305.00 497.15,305.00 500.17,305.00 503.19,305.00 506.23,305.00 509.24,305.00 512.29,305.00 515.33,305.00 518.37,305.00 521.41,305.00 524.43,305.00 527.44,305.00 530.46,305.00 533.49,305.00 536.51,305.00 539.56,305.00 542.62,305.00 545.66,305.00 548.68,305.00 551.75,305.00 554.78,305.00 557.79,305.00 560.84,305.00 563.87,305.00 566.96,305.00 570.03,305.00 573.05,305.00 576.09,305.00 579.10,305.00 582.11,305.00 585.14,305.00 588.17,305.00 591.19,305.00 594.19,305.00 597.21,305.00 600.27,305.00 603.31,305.00 606.35,305.00 609.38,305.00 612.48,305.00 615.51,305.00 618.53,305.00 621.55,305.00 624.56,305.00 627.86,305.00 630.96,305.00 633.97,305.00 636.98,305.00 639.97,305.00 643.02,305.00 646.05,305.00 649.09,305.00 652.14,305.00 655.15,305.00 658.17,305.00 661.21,305.00 664.31,305.00 667.34,305.00 670.34,305.00 673.37,305.00 676.43,305.00 679.53,305.00 682.63,305.00 685.64,305.00 688.67,305.00 691.71,305.00 694.73,305.00 697.77,305.00 700.81,305.00 703.88,305.00 706.90,305.00 709.91,305.00 712.97,305.00 716.01,305.00 719.03,305.00 722.07,305.00 725.14,305.00 728.18,305.00 731.20,305.00 734.20,305.00 737.21,305.00 740.26,305.00 743.28,305.00 746.30,305.00 749.33,305.00 752.33,305.00 755.35,305.00 758.41,305.00 761.44,305.00 764.49,305.00 767.56,305.00 770.60,305.00 773.65,305.00 776.67,305.00 779.72,305.00 782.74,305.00 785.78,305.00 788.82,305.00 791.92,305.00 794.95,305.00 798.00,305.00 801.04,305.00 804.05,305.00 807.10,305.00 810.10,305.00 813.12,305.00 816.18,305.00 819.21,305.00 822.25,305.00 825.29,305.00 828.34,305.00 831.37,305.00 834.40,305.00 837.46,305.00 840.52,305.00 843.54,305.00 846.57,305.00 849.62,305.00 852.69,305.00 855.73,305.00 858.76,305.00 861.79,305.00 865.15,305.00 868.21,305.00 871.24,305.00 874.28,305.00 877.34,305.00 880.39,305.00 883.42,305.00 886.47,305.00 889.48,305.00 892.61,305.00 895.68,305.00 898.69,305.00 901.72,305.00 904.75,305.00 907.79,305.00 910.82,305.00 913.97,305.00 917.01,305.00 920.03,305.00 923.11,305.00 926.38,305.00 929.42,305.00 933.23,305.00 938.36,305.00 941.47,305.00 944.57,305.00 947.59,305.00 950.56,305.00 953.58,305.00 956.67,305.00 959.71,305.00 962.77,305.00 965.92,305.00 969.06,305.00 972.28,305.00 975.32,305.00 978.36,305.00 981.40,305.00 984.47,305.00 987.54,305.00 990.61,305.00 993.62,305.00 996.65,305.00 999.81,305.00 1002.86,305.00 1005.86,305.00 1008.91,305.00 1011.99,305.00 1015.14,305.00 1018.20,305.00 1021.23,305.00 1024.35,305.00 1027.26,305.00 1030.27,305.00 1033.37,305.00 1036.38,305.00 1039.47,305.00 1042.60,305.00 1045.64,305.00 1048.67,305.00 1051.74,305.00 1054.81,305.00 1057.84,305.00 1060.87,305.00 1063.88,305.00 1066.93,305.00 1069.98,305.00 1072.99,305.00 1076.60,305.00 1080.18,305.00 1083.77,305.00 1087.29,305.00 1090.76,305.00 1094.26,305.00 1097.85,305.00 1101.38,305.00 1104.43,305.00 1107.43,305.00 1110.45,305.00 1113.48,305.00 1116.52,305.00 1119.52,305.00 1122.54,305.00 1125.56,305.00 1128.59,305.00 1131.62,305.00 1134.65,305.00 1137.66,305.00 1140.69,305.00 1143.70,305.00 1146.73,305.00 1149.74,305.00 1152.78,305.00 1155.78,305.00 1158.82,305.00 1161.88,305.00 1164.88,305.00 1167.88,305.00 1170.90,305.00 1173.93,305.00 1176.96,305.00 1180.00,305.00"/>
<polyline fill="none" stroke="#2ca02c" stroke-opacity="0.50" stroke-width="2" points="70.00,35.00 73.04,35.00 76.08,35.00 79.11,35.00 82.15,35.00 85.22,35.00 88.23,35.00 91.27,35.00 94.56,35.00 97.58,35.00 100.60,35.00 103.61,35.00 106.70,35.00 109.71,35.00 112.73,35.00 118.19,35.00 122.90,35.00 125.97,35.00 129.08,35.00 132.10,35.00 135.13,35.00 138.10,35.00 141.16,35.00 144.19,35.00 147.25,35.00 150.30,35.00 153.39,35.00 156.44,35.00 159.48,35.00 162.67,35.00 165.74,35.00 168.76,35.00 171.87,35.00 174.91,35.00 177.95,35.00 181.08,35.00 184.08,35.00 187.12,35.00 190.21,35.00 193.21,35.00 196.25,35.00 199.24,35.00 202.27,35.00 205.32,35.00 208.33,35.00 211.44,35.00 214.50,35.00 217.50,35.00 220.53,35.00 223.59,35.00 226.63,35.00 230.09,35.00 233.13,35.00 236.16,35.00 239.16,35.00 242.18,35.00 245.19,35.00 248.21,35.00 251.25,35.00 254.28,35.00 257.37,35.00 260.40,35.00 263.40,35.00 266.45,35.00 269.53,35.00 272.55,35.00 275.60,35.00 278.60,35.00 281.60,35.00 284.62,35.00 287.63,35.00 290.66,35.00 293.69,35.00 296.70,35.00 299.74,35.00 302.78,35.00 305.78,35.00 308.83,35.00 311.84,35.00 314.86,35.00 317.97,35.00 321.00,35.00 324.02,35.00 327.08,35.00 330.10,35.00 333.14,35.00 336.17,35.00 339.17,35.00 342.18,35.00 345.23,35.00 348.28,35.00 351.31,35.00 354.38,35.00 357.36,35.00 360.41,35.00 363.43,35.00 366.45,35.00 369.46,35.00 372.50,35.00 375.51,35.00 378.56,35.00 381.60,35.00 384.63,35.00 387.67,35.00 390.74,35.00 393.80,35.00 396.82,35.00 399.84,35.00 402.87,35.00 405.89,35.00 408.95,35.00 411.99,35.00 415.01,35.00 418.04,35.00 421.08,35.00 424.13,35.00 427.19,35.00 430.27,35.00 433.29,35.00 436.32,35.00 439.36,35.00 442.38,35.00 445.41,35.00 448.47,35.00 451.76,35.00 454.77,35.00 457.85,35.00 460.87,35.00 463.88,35.00 466.89,35.00 469.87,35.00 472.90,35.00 475.93,35.00 478.96,35.00 481.98,35.00 485.00,35.00 488.03,35.00 491.04,35.00 494.13,35.00 497.15,35.00 500.17,35.00 503.19,35.00 506.23,35.00 509.24,35.00 512.29,35.00 515.33,35.00 518.37,35.00 521.41,35.00 524.43,35.00 527.44,35.00 530.46,35.00 533.49,35.00 536.51,35.00 539.56,35.00 542.62,35.00 545.66,35.00 548.68,35.00 551.75,35.00 554.78,35.00 557.79,35.00 560.84,35.00 563.87,35.00 566.96,35.00 570.03,35.00 573.05,35.00 576.09,35.00 579.10,35.00 582.11,35.00 585.14,35.00 588.17,35.00 591.19,35.00 594.19,35.00 597.21,35.00 600.27,35.00 603.31,35.00 606.35,35.00 609.38,35.00 612.48,35.00 615.51,35.00 618.53,35.00 621.55,35.00 624.56,35.00 627.86,35.00 630.96,35.00 633.97,35.00 636.98,35.00 639.97,35.00 643.02,35.00 646.05,35.00 649.09,35.00 652.14,35.00 655.15,35.00 658.17,35.00 661.21,35.00 664.31,35.00 667.34,35.00 670.34,35.00 673.37,35.00 676.43,35.00 679.53,35.00 682.63,35.00 685.64,35.00 688.67,35.00 691.71,35.00 694.73,35.00 697.77,35.00 700.81,35.00 703.88,35.00 706.90,35.00 709.91,35.00 712.97,35.00 716.01,35.00 719.03,35.00 722.07,35.00 725.14,35.00 728.18,35.00 731.20,35.00 734.20,35.00 737.21,35.00 740.26,35.00 743.28,35.00 746.30,35.00 749.33,35.00 752.33,35.00 755.35,35.00 758.41,35.00 761.44,35.00 764.49,35.00 767.56,35.00 770.60,35.00 773.65,35.00 776.67,35.00 779.72,35.00 782.74,35.00 785.78,35.00 788.82,35.00 791.92,35.00 794.95,35.00 798.00,35.00 801.04,35.00 804.05,35.00 807.10,35.00 810.10,35.00 813.12,35.00 816.18,35.00 819.21,35.00 822.25,35.00 825.29,35.00 828.34,35.00 831.37,35.00 834.40,35.00 837.46,35.00 840.52,35.00 843.54,35.00 846.57,35.00 849.62,35.00 852.69,35.00 855.73,35.00 858.76,35.00 861.79,35.00 865.15,35.00 868.21,35.00 871.24,35.00 874.28,35.00 877.34,35.00 880.39,35.00 883.42,35.00 886.47,35.00 889.48,35.00 892.61,35.00 895.68,35.00 898.69,35.00 901.72,35.00 904.75,35.00 907.79,35.00 910.82,35.00 913.97,35.00 917.01,35.00 920.03,35.00 923.11,35.00 926.38,35.00 929.42,35.00 933.23,35.00 938.36,35.00 941.47,35.00 944.57,35.00 947.59,35.00 950.56,35.00 953.58,35.00 956.67,35.00 959.71,35.00 962.77,35.00 965.92,35.00 969.06,35.00 972.28,35.00 975.32,35.00 978.36,35.00 981.40,35.00 984.47,35.00 987.54,35.00 990.61,35.00 993.62,35.00 996.65,35.00 999.81,35.00 1002.86,35.00 1005.86,35.00 1008.91,35.00 1011.99,35.00 1015.14,35.00 1018.20,35.00 1021.23,35.00 1024.35,35.00 1027.26,35.00 1030.27,35.00 1033.37,35.00 1036.38,35.00 1039.47,35.00 1042.60,35.00 1045.64,35.00 1048.67,35.00 1051.74,35.00 1054.81,35.00 1057.84,35.00 1060.87,35.00 1063.88,35.00 1066.93,35.00 1069.98,35.00 1072.99,35.00 1076.60,35.00 1080.18,35.00 1083.77,35.00 1087.29,35.00 1090.76,35.00 1094.26,35.00 1097.85,35.00 1101.38,35.00 1104.43,35.00 1107.43,35.00 1110.45,35.00 1113.48,35.00 1116.52,35.00 1119.52,35.00 1122.54,35.00 1125.56,35.00 1128.59,35.00 1131.62,35.00 1134.65,35.00 1137.66,35.00 1140.69,35.00 1143.70,35.00 1146.73,35.00 1149.74,35.00 1152.78,35.00 1155.78,35.00 1158.82,35.00 1161.88,35.00 1164.88,35.00 1167.88,35.00 1170.90,35.00 1173.93,35.00 1176.96,35.00 1180.00,35.00"/>
<rect x="70" y="332" width="12" height="12" fill="#2ca02c" fill-opacity="0.95"/>
<text x="88" y="342" font-size="11" fill="#333" font-family="Arial, Helvetica, sans-serif">nsc1.utdallas.edu</text>
<rect x="350" y="332" width="12" height="12" fill="#2ca02c" fill-opacity="0.80"/>
<text x="368" y="342" font-size="11" fill="#333" font-family="Arial, Helvetica, sans-serif">nsc2.utdallas.edu</text>
<rect x="630" y="332" width="12" height="12" fill="#2ca02c" fill-opacity="0.65"/>
<text x="648" y="342" font-size="11" fill="#333" font-family="Arial, Helvetica, sans-serif">nsc3.utdallas.edu</text>
<rect x="910" y="332" width="12" height="12" fill="#2ca02c" fill-opacity="0.50"/>
<text x="928" y="342" font-size="11" fill="#333" font-family="Arial, Helvetica, sans-serif">nsc4.utdallas.edu</text>
</svg>