<?xml version="1.0" encoding="UTF-8"?>
<svg xmlns="http://www.w3.org/2000/svg" width="1200" height="360" viewBox="0 0 1200 360" role="img" aria-label="Mumax3 Health (%)">
<rect width="100%" height="100%" fill="#ffffff"/>
<text x="600.0" y="22" text-anchor="middle" font-size="16" font-family="Arial, Helvetica, sans-serif" font-weight="bold">Mumax3 Health (%)</text>
<line x1="70" y1="35.00" x2="1180" y2="35.00" stroke="#e3e3e3" stroke-width="1"/>
<text x="62" y="39.00" text-anchor="end" font-size="11" fill="#444" font-family="Arial, Helvetica, sans-serif">100</text>
<line x1="70" y1="89.00" x2="1180" y2="89.00" stroke="#e3e3e3" stroke-width="1"/>
<text x="62" y="93.00" text-anchor="end" font-size="11" fill="#444" font-family="Arial, Helvetica, sans-serif">80</text>
<line x1="70" y1="143.00" x2="1180" y2="143.00" stroke="#e3e3e3" stroke-width="1"/>
<text x="62" y="147.00" text-anchor="end" font-size="11" fill="#444" font-family="Arial, Helvetica, sans-serif">60</text>
<line x1="70" y1="197.00" x2="1180" y2="197.00" stroke="#e3e3e3" stroke-width="1"/>
<text x="62" y="201.00" text-anchor="end" font-size="11" fill="#444" font-family="Arial, Helvetica, sans-serif">40</text>
<line x1="70" y1="251.00" x2="1180" y2="251.00" stroke="#e3e3e3" stroke-width="1"/>
<text x="62" y="255.00" text-anchor="end" font-size="11" fill="#444" font-family="Arial, Helvetica, sans-serif">20</text>
<line x1="70" y1="305.00" x2="1180" y2="305.00" stroke="#e3e3e3" stroke-width="1"/>
<text x="62" y="309.00" text-anchor="end" font-size="11" fill="#444" font-family="Arial, Helvetica, sans-serif">0</text>
<line x1="70" y1="35" x2="70" y2="305" stroke="#999"/>
<line x1="70" y1="305" x2="1180" y2="305" stroke="#999"/>
<text x="70.00" y="323" text-anchor="middle" font-size="10" fill="#444" font-family="Arial, Helvetica, sans-serif">2026-02-11 16:38</text>
<text x="347.50" y="323" text-anchor="middle" font-size="10" fill="#444" font-family="Arial, Helvetica, sans-serif">2026-02-12 23:12</text>
<text x="625.00" y="323" text-anchor="middle" font-size="10" fill="#444" font-family="Arial, Helvetica, sans-serif">2026-02-14 05:46</text>
<text x="902.50" y="323" text-anchor="middle" font-size="10" fill="#444" font-family="Arial, Helvetica, sans-serif">2026-02-15 12:20</text>
<text x="1180.00" y="323" text-anchor="middle" font-size="10" fill="#444" font-family="Arial, Helvetica, sans-serif">2026-02-16 18:54</text>
<polyline fill="none" stroke="#2ca02c" stroke-opacity="0.95" stroke-width="2" points="70.81,35.00 71.63,35.00 72.44,35.00 73.26,35.00 74.08,35.00 74.89,35.00 75.71,35.00 76.59,35.00 77.40,35.00 78.21,35.00 79.02,35.00 79.85,35.00 80.65,35.00 81.46,35.00 82.93,35.00 84.19,35.00 85.01,35.00 85.85,35.00 86.66,35.00 87.47,35.00 88.27,35.00 89.09,35.00 89.90,35.00 90.72,35.00 91.54,35.00 92.37,35.00 93.19,35.00 94.01,35.00 94.86,35.00 95.68,35.00 96.50,35.00 97.33,35.00 98.15,35.00 98.96,35.00 99.80,35.00 100.61,35.00 101.42,35.00 102.25,35.00 103.06,35.00 103.87,35.00 104.67,35.00 105.49,35.00 106.30,35.00 107.11,35.00 107.95,35.00 108.77,35.00 109.57,35.00 110.38,35.00 111.21,35.00 112.02,35.00 112.95,35.00 113.77,35.00 114.58,35.00 115.38,35.00 116.19,35.00 117.00,35.00 117.81,35.00 118.63,35.00 119.44,35.00 120.27,35.00 121.08,35.00 121.89,35.00 122.71,35.00 123.53,35.00 124.34,35.00 125.16,35.00 125.96,35.00 126.77,35.00 127.58,35.00 128.39,35.00 129.20,35.00 130.01,35.00 130.82,35.00 131.64,35.00 132.45,35.00 133.26,35.00 134.08,35.00 134.88,35.00 135.69,35.00 136.53,35.00 137.34,35.00 138.15,35.00 138.97,35.00 139.78,35.00 140.60,35.00 141.41,35.00 142.21,35.00 143.02,35.00 143.84,35.00 144.66,35.00 145.47,35.00 146.29,35.00 147.10,35.00 147.91,35.00 148.72,35.00 149.53,35.00 150.34,35.00 151.16,35.00 151.96,35.00 152.78,35.00 153.60,35.00 154.41,35.00 155.23,35.00 156.05,35.00 156.87,35.00 157.68,35.00 158.49,35.00 159.30,35.00 160.11,35.00 160.94,35.00 161.75,35.00 162.56,35.00 163.37,35.00 164.19,35.00 165.01,35.00 165.83,35.00 166.66,35.00 167.46,35.00 168.28,35.00 169.09,35.00 169.91,35.00 170.72,35.00 171.54,35.00 172.42,35.00 173.23,35.00 174.05,35.00 174.87,35.00 175.67,35.00 176.48,35.00 177.28,35.00 178.09,35.00 178.91,35.00 179.72,35.00 180.53,35.00 181.34,35.00 182.15,35.00 182.96,35.00 183.79,35.00 184.60,35.00 185.41,35.00 186.22,35.00 187.03,35.00 187.84,35.00 188.66,35.00 189.48,35.00 190.29,35.00 191.11,35.00 191.92,35.00 192.73,35.00 193.54,35.00 194.35,35.00 195.16,35.00 195.98,35.00 196.80,35.00 197.61,35.00 198.42,35.00 199.25,35.00 200.06,35.00 200.87,35.00 201.69,35.00 202.50,35.00 203.33,35.00 204.15,35.00 204.96,35.00 205.78,35.00 206.59,35.00 207.39,35.00 208.20,35.00 209.02,35.00 209.83,35.00 210.63,35.00 211.44,35.00 212.26,35.00 213.08,35.00 213.90,35.00 214.71,35.00 215.54,35.00 216.35,35.00 217.16,35.00 217.97,35.00 218.78,35.00 219.67,35.00 220.50,35.00 221.31,35.00 222.11,35.00 222.92,35.00 223.73,35.00 224.55,35.00 225.36,35.00 226.18,35.00 226.99,35.00 227.80,35.00 228.61,35.00 229.45,35.00 230.26,35.00 231.06,35.00 231.88,35.00 232.70,35.00 233.53,35.00 234.36,35.00 235.17,35.00 235.98,35.00 236.80,35.00 237.61,35.00 238.42,35.00 239.24,35.00 240.06,35.00 240.87,35.00 241.68,35.00 242.50,35.00 243.32,35.00 244.13,35.00 244.94,35.00 245.77,35.00 246.58,35.00 247.39,35.00 248.19,35.00 249.00,35.00 249.82,35.00 250.63,35.00 251.44,35.00 252.26,35.00 253.06,35.00 253.87,35.00 254.69,35.00 255.51,35.00 256.32,35.00 257.15,35.00 257.96,35.00 258.78,35.00 259.59,35.00 260.41,35.00 261.22,35.00 262.03,35.00 262.85,35.00 263.68,35.00 264.50,35.00 265.31,35.00 266.13,35.00 266.94,35.00 267.75,35.00 268.56,35.00 269.37,35.00 270.19,35.00 271.00,35.00 271.82,35.00 272.63,35.00 273.45,35.00 274.27,35.00 275.08,35.00 275.90,35.00 276.72,35.00 277.53,35.00 278.34,35.00 279.16,35.00 279.98,35.00 280.80,35.00 281.61,35.00 282.43,35.00 283.33,35.00 284.15,35.00 284.96,35.00 285.78,35.00 286.60,35.00 287.42,35.00 288.23,35.00 289.05,35.00 289.85,35.00 290.69,35.00 291.52,35.00 292.33,35.00 293.14,35.00 293.95,35.00 294.77,35.00 295.58,35.00 296.43,35.00 297.24,35.00 298.05,35.00 298.88,35.00 299.76,35.00 300.57,35.00 301.59,35.00 302.97,35.00 303.80,35.00 304.64,35.00 305.45,35.00 306.24,35.00 307.05,35.00 307.88,35.00 308.70,35.00 309.52,35.00 310.36,35.00 311.21,35.00 312.07,35.00 312.89,35.00 313.70,35.00 314.52,35.00 315.34,35.00 316.16,35.00 316.99,35.00 317.80,35.00 318.61,35.00 319.46,35.00 320.28,35.00 321.08,35.00 321.90,35.00 322.72,35.00 323.57,35.00 324.39,35.00 325.20,35.00 326.04,35.00 326.82,35.00 327.63,35.00 328.46,35.00 329.27,35.00 330.10,35.00 330.93,35.00 331.75,35.00 332.56,35.00 333.39,35.00 334.21,35.00 335.03,35.00 335.84,35.00 336.64,35.00 337.46,35.00 338.28,35.00 339.09,35.00 340.06,35.00 341.02,35.00 341.98,35.00 342.93,35.00 343.86,35.00 344.79,35.00 345.76,35.00 346.71,35.00 347.52,35.00 348.33,35.00 349.14,35.00 349.95,35.00 350.77,35.00 351.57,35.00 352.38,35.00 353.19,35.00 354.01,35.00 354.82,35.00 355.63,35.00 356.44,35.00 357.25,35.00 358.06,35.00 358.87,35.00 359.68,35.00 360.50,35.00 361.30,35.00 362.12,35.00 362.94,35.00 363.74,35.00 364.55,35.00 365.36,35.00 366.17,35.00 366.98,35.00 367.80,35.00 368.61,35.00 369.42,35.00 370.24,35.00 371.05,35.00 371.86,35.00 372.67,35.00 373.48,35.00 374.29,35.00 375.09,35.00 375.89,35.00 376.71,35.00 377.52,35.00 378.32,35.00 379.13,35.00 379.94,35.00 380.75,35.00 381.56,35.00 382.36,35.00 383.16,35.00 384.00,35.00 384.88,35.00 385.69,35.00 386.51,35.00 387.32,35.00 388.13,35.00 388.93,35.00 389.74,35.00 390.55,35.00 391.51,35.00 392.46,35.00 393.41,35.00 394.36,35.00 395.32,35.00 396.27,35.00 397.24,35.00 398.22,35.00 399.11,35.00 399.98,35.00 400.80,35.00 401.62,35.00 402.44,35.00 403.24,35.00 404.05,35.00 404.86,35.00 405.67,35.00 406.49,35.00 407.29,35.00 408.11,35.00 408.92,35.00 409.73,35.00 410.56,35.00 411.37,35.00 412.17,35.00 412.89,35.00 413.73,35.00 414.54,35.00 415.37,35.00 416.18,35.00 416.99,35.00 417.81,35.00 418.63,35.00 419.45,35.00 420.27,35.00 421.09,35.00 421.92,35.00 422.72,35.00 423.53,35.00 424.34,35.00 425.15,35.00 425.96,35.00 426.76,35.00 427.59,35.00 428.39,35.00 429.21,35.00 430.02,35.00 430.83,35.00 431.65,35.00 432.46,35.00 433.28,35.00 434.10,35.00 434.91,35.00 435.72,35.00 436.54,35.00 437.35,35.00 438.19,35.00 439.00,35.00 439.81,35.00 440.62,35.00 441.42,35.00 442.23,35.00 443.06,35.00 443.87,35.00 444.67,35.00 445.49,35.00 446.29,35.00 447.11,35.00 447.92,35.00 448.74,35.00 449.56,35.00 450.54,35.00 451.37,35.00 452.21,35.00 453.03,35.00 453.84,35.00 454.66,35.00 455.47,35.00 456.28,35.00 457.10,35.00 457.92,35.00 458.73,35.00 459.55,35.00 460.36,35.00 461.18,35.00 462.02,35.00 462.84,35.00 463.66,35.00 464.47,35.00 465.29,35.00 466.10,35.00 466.91,35.00 467.72,35.00 468.57,35.00 469.39,35.00 470.21,35.00 471.02,35.00 471.83,35.00 472.65,35.00 473.46,35.00 474.28,35.00 475.09,35.00 475.91,35.00 476.73,35.00 477.54,35.00 478.35,35.00 479.17,35.00 479.98,35.00 480.81,35.00 481.62,35.00 482.43,35.00 483.24,35.00 484.06,35.00 484.88,35.00 485.70,35.00 486.68,35.00 487.52,35.00 488.33,35.00 489.14,35.00 489.95,35.00 490.77,35.00 491.59,35.00 492.40,35.00 493.23,35.00 494.04,35.00 494.85,35.00 495.66,35.00 496.48,35.00 497.29,35.00 498.10,35.00 498.92,35.00 499.73,35.00 500.54,35.00 501.35,35.00 502.16,35.00 502.99,35.00 503.80,35.00 504.61,35.00 505.43,35.00 506.26,35.00 507.06,35.00 507.88,35.00 508.69,35.00 509.53,35.00 510.34,35.00 511.15,35.00 511.97,35.00 512.79,35.00 513.60,35.00 514.42,35.00 515.23,35.00 516.07,35.00 516.88,35.00 517.69,35.00 518.50,35.00 519.31,35.00 520.12,35.00 520.94,35.00 521.75,35.00 522.57,35.00 523.40,35.00 524.22,35.00 525.01,35.00 525.84,35.00 526.64,35.00 527.46,35.00 528.27,35.00 529.09,35.00 529.90,35.00 530.72,35.00 531.54,35.00 532.35,35.00 533.17,35.00 533.99,35.00 534.81,35.00 535.62,35.00 536.45,35.00 537.36,35.00 538.25,35.00 539.13,35.00 539.95,35.00 540.80,35.00 541.62,35.00 542.43,35.00 543.24,35.00 544.00,35.00 544.85,35.00 545.66,35.00 546.49,35.00 547.29,35.00 548.11,35.00 548.92,35.00 549.74,35.00 550.55,35.00 551.36,35.00 552.18,35.00 552.99,35.00 553.81,35.00 554.63,35.00 555.45,35.00 556.27,35.00 557.09,35.00 557.91,35.00 558.72,35.00 559.56,35.00 560.37,35.00 561.18,35.00 561.99,35.00 562.81,35.00 563.62,35.00 564.43,35.00 565.25,35.00 566.06,35.00 566.89,35.00 567.70,35.00 568.51,35.00 569.33,35.00 570.14,35.00 570.96,35.00 571.78,35.00 572.59,35.00 573.41,35.00 574.23,35.00 575.05,35.00 575.87,35.00 576.69,35.00 577.51,35.00 578.32,35.00 579.14,35.00 579.95,35.00 580.78,35.00 581.62,35.00 582.43,35.00 583.25,35.00 584.07,35.00 584.88,35.00 585.70,35.00 586.51,35.00 587.33,35.00 588.15,35.00 588.96,35.00 589.78,35.00 590.60,35.00 591.42,35.00 592.24,35.00 593.06,35.00 593.88,35.00 594.70,35.00 595.52,35.00 596.35,35.00 597.16,35.00 597.98,35.00 598.79,35.00 599.61,35.00 600.45,35.00 601.27,35.00 602.09,35.00 602.91,35.00 603.72,35.00 604.53,35.00 605.35,35.00 606.17,35.00 606.99,35.00 607.80,35.00 608.61,35.00 609.43,35.00 610.25,35.00 611.07,35.00 611.89,35.00 612.70,35.00 613.53,35.00 614.34,35.00 615.16,35.00 615.98,35.00 616.79,35.00 617.60,35.00 618.41,35.00 619.23,35.00 620.05,35.00 620.87,35.00 621.69,35.00 622.51,35.00 623.32,35.00 624.15,35.00 624.97,35.00 625.79,35.00 626.61,35.00 627.43,35.00 628.25,35.00 629.06,35.00 629.88,35.00 630.71,35.00 631.53,35.00 632.35,35.00 633.18,35.00 634.00,35.00 634.83,35.00 635.64,35.00 636.46,35.00 637.28,35.00 638.10,35.00 638.92,35.00 639.74,35.00 640.56,35.00 641.38,35.00 642.18,35.00 643.02,35.00 643.84,35.00 644.66,35.00 645.48,35.00 646.29,35.00 647.10,35.00 647.91,35.00 648.72,35.00 649.55,35.00 650.36,35.00 651.18,35.00 651.99,35.00 652.81,35.00 653.63,35.00 654.47,35.00 655.29,35.00 656.10,35.00 656.92,35.00 657.73,35.00 658.55,35.00 659.37,35.00 660.19,35.00 661.00,35.00 661.82,35.00 662.64,35.00 663.46,35.00 664.28,35.00 665.10,35.00 665.92,35.00 666.76,35.00 667.59,35.00 668.41,35.00 669.23,35.00 670.05,35.00 670.87,35.00 671.68,35.00 672.50,35.00 673.31,35.00 674.13,35.00 674.95,35.00 675.78,35.00 676.59,35.00 677.42,35.00 678.27,35.00 679.09,35.00 679.90,35.00 680.72,35.00 681.54,35.00 682.36,35.00 683.18,35.00 684.01,35.00 684.83,35.00 685.66,35.00 686.48,35.00 687.30,35.00 688.12,35.00 688.94,35.00 689.75,35.00 690.57,35.00 691.39,35.00 692.21,35.00 693.04,35.00 693.85,35.00 694.67,35.00 695.49,35.00 696.32,35.00 697.13,35.00 697.95,35.00 698.78,35.00 699.62,35.00 700.44,35.00 701.27,35.00 702.08,35.00 702.92,35.00 703.76,35.00 704.59,35.00 705.42,35.00 706.27,35.00 707.09,35.00 707.91,35.00 708.72,35.00 709.55,35.00 710.37,35.00 711.19,35.00 712.03,35.00 712.85,35.00 713.67,35.00 714.48,35.00 715.30,35.00 716.12,35.00 716.94,35.00 717.75,35.00 718.57,35.00 719.38,35.00 720.20,35.00 721.02,35.00 721.82,35.00 722.64,35.00 723.46,35.00 724.29,35.00 725.10,35.00 725.93,35.00 726.75,35.00 727.56,35.00 728.38,35.00 729.20,35.00 730.02,35.00 730.84,35.00 731.65,35.00 732.47,35.00 733.29,35.00 734.10,35.00 734.91,35.00 735.73,35.00 736.54,35.00 737.36,35.00 738.18,35.00 739.00,35.00 739.82,35.00 740.63,35.00 741.45,35.00 742.27,35.00 743.09,35.00 743.89,35.00 744.70,35.00 745.50,35.00 746.32,35.00 747.14,35.00 747.98,35.00 748.79,35.00 749.61,35.00 750.43,35.00 751.26,35.00 752.08,35.00 752.89,35.00 753.72,35.00 754.54,35.00 755.35,35.00 756.18,35.00 757.00,35.00 757.83,35.00 758.65,35.00 759.47,35.00 760.28,35.00 761.09,35.00 761.91,35.00 762.72,35.00 763.54,35.00 764.35,35.00 765.17,35.00 765.98,35.00 766.81,35.00 767.62,35.00 768.43,35.00 769.25,35.00 770.07,35.00 770.89,35.00 771.71,35.00 772.53,35.00 773.35,35.00 774.16,35.00 774.99,35.00 775.80,35.00 776.62,35.00 777.44,35.00 778.25,35.00 779.07,35.00 779.89,35.00 780.71,35.00 781.53,35.00 782.34,35.00 783.16,35.00 784.00,35.00 784.82,35.00 785.65,35.00 786.48,35.00 787.30,35.00 788.12,35.00 788.94,35.00 789.76,35.00 790.58,35.00 791.39,35.00 792.22,35.00 793.06,35.00 793.88,35.00 794.69,35.00 795.51,35.00 796.33,35.00 797.15,35.00 797.97,35.00 798.78,35.00 799.60,35.00 800.42,35.00 801.24,35.00 802.05,35.00 802.87,35.00 803.69,35.00 804.50,35.00 805.31,35.00 806.13,35.00 806.95,35.00 807.76,35.00 808.60,35.00 809.41,35.00 810.22,35.00 811.04,35.00 811.86,35.00 812.67,35.00 813.50,35.00 814.31,35.00 815.14,35.00 815.96,35.00 816.77,35.00 817.58,35.00 818.40,35.00 819.22,35.00 820.03,35.00 820.86,35.00 821.70,35.00 822.53,35.00 823.37,35.00 824.20,35.00 825.03,35.00 825.87,35.00 826.70,35.00 827.55,35.00 828.39,35.00 829.23,35.00 830.04,35.00 830.86,35.00 831.68,35.00 832.51,35.00 833.32,35.00 834.15,35.00 834.97,35.00 835.79,35.00 836.61,35.00 837.43,35.00 838.24,35.00 839.05,35.00 839.87,35.00 840.69,35.00 841.50,35.00 842.32,35.00 843.14,35.00 843.96,35.00 844.79,35.00 845.61,35.00 846.43,35.00 847.24,35.00 848.06,35.00 848.88,35.00 849.70,35.00 850.52,35.00 851.34,35.00 852.15,35.00 852.98,35.00 853.79,35.00 854.61,35.00 855.43,35.00 856.24,35.00 857.07,35.00 857.94,35.00 858.79,35.00 859.60,35.00 860.42,35.00 861.23,35.00 862.06,35.00 862.89,35.00 863.71,35.00 864.53,35.00 865.34,35.00 866.15,35.00 866.96,35.00 867.78,35.00 868.60,35.00 869.42,35.00 870.24,35.00 871.06,35.00 871.88,35.00 872.71,35.00 873.52,35.00 874.34,35.00 875.15,35.00 875.97,35.00 876.79,35.00 877.61,35.00 878.42,35.00 879.25,35.00 880.07,35.00 880.89,35.00 881.74,35.00 882.56,35.00 883.38,35.00 884.19,35.00 885.01,35.00 885.83,35.00 886.66,35.00 887.48,35.00 888.29,35.00 889.11,35.00 889.94,35.00 890.77,35.00 891.59,35.00 892.41,35.00 893.23,35.00 894.04,35.00 894.87,35.00 895.68,35.00 896.50,35.00 897.31,35.00 898.15,35.00 898.96,35.00 899.78,35.00 900.60,35.00 901.41,35.00 902.23,35.00 903.05,35.00 903.86,35.00 904.68,35.00 905.50,35.00 906.32,35.00 907.14,35.00 907.96,35.00 908.77,35.00 909.60,35.00 910.42,35.00 911.23,35.00 912.05,35.00 912.86,35.00 913.67,35.00 914.49,35.00 915.32,35.00 916.13,35.00 916.97,35.00 917.79,35.00 918.61,35.00 919.43,35.00 920.25,35.00 921.08,35.00 921.96,35.00 922.79,35.00 923.62,35.00 924.45,35.00 925.27,35.00 926.09,35.00 926.91,35.00 927.73,35.00 928.55,35.00 929.36,35.00 930.19,35.00 931.01,35.00 931.83,35.00 932.66,35.00 933.48,35.00 934.31,35.00 935.12,35.00 935.94,35.00 936.76,35.00 937.59,35.00 938.40,35.00 939.22,35.00 940.05,35.00 940.86,35.00 941.69,35.00 942.51,35.00 943.33,35.00 944.15,35.00 944.98,35.00 945.80,35.00 946.63,35.00 947.44,35.00 948.26,35.00 949.08,35.00 949.89,35.00 950.71,35.00 951.53,35.00 952.35,35.00 953.17,35.00 953.99,35.00 954.80,35.00 955.62,35.00 956.45,35.00 957.27,35.00 958.08,35.00 958.90,35.00 959.72,35.00 960.55,35.00 961.38,35.00 962.17,35.00 962.97,35.00 963.79,35.00 964.61,35.00 965.43,35.00 966.25,35.00 967.08,35.00 967.90,35.00 968.73,35.00 969.55,35.00 970.37,35.00 971.19,35.00 972.00,35.00 972.82,35.00 973.62,35.00 974.44,35.00 975.26,35.00 976.08,35.00 976.89,35.00 977.71,35.00 978.52,35.00 979.34,35.00 980.16,35.00 980.98,35.00 981.79,35.00 982.61,35.00 983.40,35.00 984.24,35.00 985.05,35.00 985.87,35.00 986.70,35.00 987.53,35.00 988.34,35.00 989.15,35.00 989.98,35.00 990.80,35.00 991.61,35.00 992.43,35.00 993.31,35.00 994.13,35.00 994.96,35.00 995.78,35.00 996.61,35.00 997.41,35.00 998.23,35.00 999.06,35.00 999.87,35.00 1000.69,35.00 1001.50,35.00 1002.32,35.00 1003.15,35.00 1003.97,35.00 1004.79,35.00 1005.61,35.00 1006.42,35.00 1007.25,35.00 1008.06,35.00 1008.89,35.00 1009.71,35.00 1010.54,35.00 1011.38,35.00 1012.20,35.00 1013.02,35.00 1013.84,35.00 1014.66,35.00 1015.49,35.00 1016.31,35.00 1017.12,35.00 1017.94,35.00 1018.76,35.00 1019.57,35.00 1020.40,35.00 1021.22,35.00 1022.04,35.00 1022.86,35.00 1023.68,35.00 1024.49,35.00 1025.30,35.00 1026.12,35.00 1026.94,35.00 1027.75,35.00 1028.57,35.00 1029.39,35.00 1030.20,35.00 1031.01,35.00 1031.83,35.00 1032.65,35.00 1033.46,35.00 1034.27,35.00 1035.09,35.00 1035.91,35.00 1036.71,35.00 1037.53,35.00 1038.35,35.00 1039.17,35.00 1039.99,35.00 1040.80,35.00 1041.61,35.00 1042.42,35.00 1043.26,35.00 1044.07,35.00 1044.88,35.00 1045.70,35.00 1046.56,35.00 1047.37,35.00 1048.19,35.00 1049.02,35.00 1049.84,35.00 1050.66,35.00 1051.48,35.00 1052.30,35.00 1053.12,35.00 1053.93,35.00 1054.74,35.00 1055.56,35.00 1056.38,35.00 1057.20,35.00 1058.02,35.00 1058.83,35.00 1059.64,35.00 1060.46,35.00 1061.27,35.00 1062.10,35.00 1062.92,35.00 1063.78,35.00 1064.59,35.00 1065.40,35.00 1066.21,35.00 1067.02,35.00 1067.86,35.00 1068.67,35.00 1069.49,35.00 1070.31,35.00 1071.13,35.00 1071.95,35.00 1072.77,35.00 1073.59,35.00 1074.41,35.00 1075.22,35.00 1076.04,35.00 1076.86,35.00 1077.68,35.00 1078.49,35.00 1079.30,35.00 1080.12,35.00 1080.94,35.00 1081.75,35.00 1082.57,35.00 1083.39,35.00 1084.20,35.00 1085.02,35.00 1085.84,35.00 1086.66,35.00 1087.48,35.00 1088.29,35.00 1089.11,35.00 1089.92,35.00 1090.75,35.00 1091.56,35.00 1092.38,35.00 1093.20,35.00 1094.01,35.00 1094.82,35.00 1095.64,35.00 1096.46,35.00 1097.27,35.00 1098.11,35.00 1098.93,35.00 1099.74,35.00 1100.56,35.00 1101.39,35.00 1102.21,35.00 1103.04,35.00 1103.86,35.00 1104.73,35.00 1105.55,35.00 1106.43,35.00 1107.25,35.00 1108.06,35.00 1108.87,35.00 1109.69,35.00 1110.51,35.00 1111.33,35.00 1112.14,35.00 1112.96,35.00 1113.78,35.00 1114.60,35.00 1115.41,35.00 1116.23,35.00 1117.04,35.00 1117.86,35.00 1118.68,35.00 1119.49,35.00 1120.30,35.00 1121.13,35.00 1121.94,35.00 1122.77,35.00 1123.58,35.00 1124.39,35.00 1125.21,35.00 1126.02,35.00 1126.85,35.00 1127.67,35.00 1128.48,35.00 1129.31,35.00 1130.12,35.00 1130.93,35.00 1131.75,35.00 1132.57,35.00 1133.38,35.00 1134.19,35.00 1135.01,35.00 1135.81,35.00 1136.63,35.00 1137.45,35.00 1138.26,35.00 1139.08,35.00 1139.91,35.00 1140.75,35.00 1141.58,35.00 1142.39,35.00 1143.20,35.00 1144.02,35.00 1144.82,35.00 1145.64,35.00 1146.46,35.00 1147.27,35.00 1148.08,35.00 1148.90,35.00 1149.71,35.00 1150.52,35.00 1151.33,35.00 1152.15,35.00 1152.96,35.00 1153.78,35.00 1154.61,35.00 1155.42,35.00 1156.23,35.00 1157.06,35.00 1157.87,35.00 1158.69,35.00 1159.51,35.00 1160.32,35.00 1161.14,35.00 1161.97,35.00 1162.78,35.00 1163.61,35.00 1164.42,35.00 1165.23,35.00 1166.05,35.00 1166.87,35.00 1167.69,35.00 1168.53,35.00 1169.35,35.00 1170.17,35.00 1171.00,35.00 1171.81,35.00 1172.63,35.00 1173.44,35.00 1174.26,35.00 1175.09,35.00 1175.90,35.00 1176.71,35.00 1177.53,35.00 1178.36,35.00 1179.18,35.00 1180.00,35.00"/>
<polyline fill="none" stroke="#2ca02c" stroke-opacity="0.80" stroke-width="2" points="70.00,35.00 70.81,35.00 71.63,35.00 72.44,35.00 73.26,35.00 74.08,35.00 74.89,35.00 75.71,35.00 76.59,35.00 77.40,35.00 78.21,35.00 79.02,35.00 79.85,35.00 80.65,35.00 81.46,35.00 82.93,35.00 84.19,35.00 85.01,35.00 85.85,35.00 86.66,35.00 87.47,35.00 88.27,35.00 89.09,35.00 89.90,35.00 90.72,35.00 91.54,35.00 92.37,35.00 93.19,35.00 94.01,35.00 94.86,35.00 95.68,35.00 96.50,35.00 97.33,35.00 98.15,35.00 98.96,35.00 99.80,35.00 100.61,35.00 101.42,35.00 102.25,35.00 103.06,35.00 103.87,35.00 104.67,35.00 105.49,35.00 106.30,35.00 107.11,35.00 107.95,35.00 108.77,35.00 109.57,35.00 110.38,35.00 111.21,35.00 112.02,35.00 112.95,35.00 113.77,35.00 114.58,35.00 115.38,35.00 116.19,35.00 117.00,35.00 117.81,35.00 118.63,35.00 119.44,35.00 120.27,35.00 121.08,35.00 121.89,35.00 122.71,35.00 123.53,35.00 124.34,35.00 125.16,35.00 125.96,35.00 126.77,35.00 127.58,35.00 128.39,35.00 129.20,35.00 130.01,35.00 130.82,35.00 131.64,35.00 132.45,35.00 133.26,35.00 134.08,35.00 134.88,35.00 135.69,35.00 136.53,35.00 137.34,35.00 138.15,35.00 138.97,35.00 139.78,35.00 140.60,35.00 141.41,35.00 142.21,35.00 143.02,35.00 143.84,35.00 144.66,35.00 145.47,35.00 146.29,35.00 147.10,35.00 147.91,35.00 148.72,35.00 149.53,35.00 150.34,35.00 151.16,35.00 151.96,35.00 152.78,35.00 153.60,35.00 154.41,35.00 155.23,35.00 156.05,35.00 156.87,35.00 157.68,35.00 158.49,35.00 159.30,35.00 160.11,35.00 160.94,35.00 161.75,35.00 162.56,35.00 163.37,35.00 164.19,35.00 165.01,35.00 165.83,35.00 166.66,35.00 167.46,35.00 168.28,35.00 169.09,35.00 169.91,35.00 170.72,35.00 171.54,35.00 172.42,35.00 173.23,35.00 174.05,35.00 174.87,35.00 175.67,35.00 176.48,35.00 177.28,35.00 178.09,35.00 178.91,35.00 179.72,35.00 180.53,35.00 181.34,35.00 182.15,35.00 182.96,35.00 183.79,35.00 184.60,35.00 185.41,35.00 186.22,35.00 187.03,35.00 187.84,35.00 188.66,35.00 189.48,35.00 190.29,35.00 191.11,35.00 191.92,35.00 192.73,35.00 193.54,35.00 194.35,35.00 195.16,35.00 195.98,35.00 196.80,35.00 197.61,35.00 198.42,35.00 199.25,35.00 200.06,35.00 200.87,35.00 201.69,35.00 202.50,35.00 203.33,35.00 204.15,35.00 204.96,35.00 205.78,35.00 206.59,35.00 207.39,35.00 208.20,35.00 209.02,35.00 209.83,35.00 210.63,35.00 211.44,35.00 212.26,35.00 213.08,35.00 213.90,35.00 214.71,35.00 215.54,35.00 216.35,35.00 217.16,35.00 217.97,35.00 218.78,35.00 219.67,35.00 220.50,35.00 221.31,35.00 222.11,35.00 222.92,35.00 223.73,35.00 224.55,35.00 225.36,35.00 226.18,35.00 226.99,35.00 227.80,35.00 228.61,35.00 229.45,35.00 230.26,35.00 231.06,35.00 231.88,35.00 232.70,35.00 233.53,35.00 234.36,35.00 235.17,35.00 235.98,35.00 236.80,35.00 237.61,35.00 238.42,35.00 239.24,35.00 240.06,35.00 240.87,35.00 241.68,35.00 242.50,35.00 243.32,35.00 244.13,35.00 244.94,35.00 245.77,35.00 246.58,35.00 247.39,35.00 248.19,35.00 249.00,35.00 249.82,35.00 250.63,35.00 251.44,35.00 252.26,35.00 253.06,35.00 253.87,35.00 254.69,35.00 255.51,35.00 256.32,35.00 257.15,35.00 257.96,35.00 258.78,35.00 259.59,35.00 260.41,35.00 261.22,35.00 262.03,35.00 262.85,35.00 263.68,35.00 264.50,35.00 265.31,35.00 266.13,35.00 266.94,35.00 267.75,35.00 268.56,35.00 269.37,35.00 270.19,35.00 271.00,35.00 271.82,35.00 272.63,35.00 273.45,35.00 274.27,35.00 275.08,35.00 275.90,35.00 276.72,35.00 277.53,35.00 278.34,35.00 279.16,35.00 279.98,35.00 280.80,35.00 281.61,35.00 282.43,35.00 283.33,35.00 284.15,35.00 284.96,35.00 285.78,35.00 286.60,35.00 287.42,35.00 288.23,35.00 289.05,35.00 289.85,35.00 290.69,35.00 291.52,35.00 292.33,35.00 293.14,35.00 293.95,35.00 294.77,35.00 295.58,35.00 296.43,35.00 297.24,35.00 298.05,35.00 298.88,35.00 299.76,35.00 300.57,35.00 301.59,35.00 302.97,35.00 303.80,35.00 304.64,35.00 305.45,35.00 306.24,35.00 307.05,35.00 307.88,35.00 308.70,35.00 309.52,35.00 310.36,35.00 311.21,35.00 312.07,35.00 312.89,35.00 313.70,35.00 314.52,35.00 315.34,35.00 316.16,35.00 316.99,35.00 317.80,35.00 318.61,35.00 319.46,35.00 320.28,35.00 321.08,35.00 321.90,35.00 322.72,35.00 323.57,35.00 324.39,35.00 325.20,35.00 326.04,35.00 326.82,35.00 327.63,35.00 328.46,35.00 329.27,35.00 330.10,35.00 330.93,35.00 331.75,35.00 332.56,35.00 333.39,35.00 334.21,35.00 335.03,35.00 335.84,35.00 336.64,35.00 337.46,35.00 338.28,35.00 339.09,35.00 340.06,35.00 341.02,35.00 341.98,35.00 342.93,35.00 343.86,35.00 344.79,35.00 345.76,35.00 346.71,35.00 347.52,35.00 348.33,35.00 349.14,35.00 349.95,35.00 350.77,35.00 351.57,35.00 352.38,35.00 353.19,35.00 354.01,35.00 354.82,35.00 355.63,35.00 356.44,35.00 357.25,35.00 358.06,35.00 358.87,35.00 359.68,35.00 360.50,35.00 361.30,35.00 362.12,35.00 362.94,35.00 363.74,35.00 364.55,35.00 365.36,35.00 366.17,35.00 366.98,35.00 367.80,35.00 368.61,35.00 369.42,35.00 370.24,35.00 371.05,35.00 371.86,35.00 372.67,35.00 373.48,35.00 374.29,35.00 375.09,35.00 375.89,35.00 376.71,35.00 377.52,35.00 378.32,35.00 379.13,35.00 379.94,35.00 380.75,35.00 381.56,35.00 382.36,35.00 383.16,35.00 384.00,35.00 384.88,35.00 385.69,35.00 386.51,35.00 387.32,35.00 388.13,35.00 388.93,35.00 389.74,35.00 390.55,35.00 391.51,35.00 392.46,35.00 393.41,35.00 394.36,35.00 395.32,35.00 396.27,35.00 397.24,35.00 398.22,35.00 399.11,35.00 399.98,35.00 400.80,35.00 401.62,35.00 402.44,35.00 403.24,35.00 404.05,35.00 404.86,35.00 405.67,35.00 406.49,35.00 407.29,35.00 408.11,35.00 408.92,35.00 409.73,35.00 410.56,35.00 411.37,35.00 412.17,35.00 412.89,35.00 413.73,35.00 414.54,35.00 415.37,35.00 416.18,35.00 416.99,35.00 417.81,35.00 418.63,35.00 419.45,35.00 420.27,35.00 421.09,35.00 421.92,35.00 422.72,35.00 423.53,35.00 424.34,35.00 425.15,35.00 425.96,35.00 426.76,35.00 427.59,35.00 428.39,35.00 429.21,35.00 430.02,35.00 430.83,35.00 431.65,35.00 432.46,35.00 433.28,35.00 434.10,35.00 434.91,35.00 435.72,35.00 436.54,35.00 437.35,35.00 438.19,35.00 439.00,35.00 439.81,35.00 440.62,35.00 441.42,35.00 442.23,35.00 443.06,35.00 443.87,35.00 444.67,35.00 445.49,35.00 446.29,35.00 447.11,35.00 447.92,35.00 448.74,35.00 449.56,35.00 450.54,35.00 451.37,35.00 452.21,35.00 453.03,35.00 453.84,35.00 454.66,35.00 455.47,35.00 456.28,35.00 457.10,35.00 457.92,35.00 458.73,35.00 459.55,35.00 460.36,35.00 461.18,35.00 462.02,35.00 462.84,35.00 463.66,35.00 464.47,35.00 465.29,35.00 466.10,35.00 466.91,35.00 467.72,35.00 468.57,35.00 469.39,35.00 470.21,35.00 471.02,35.00 471.83,35.00 472.65,35.00 473.46,35.00 474.28,35.00 475.09,35.00 475.91,35.00 476.73,35.00 477.54,35.00 478.35,35.00 479.17,35.00 479.98,35.00 480.81,35.00 481.62,35.00 482.43,35.00 483.24,35.00 484.06,35.00 484.88,35.00 485.70,35.00 486.68,35.00 487.52,35.00 488.33,35.00 489.14,35.00 489.95,35.00 490.77,35.00 491.59,35.00 492.40,35.00 493.23,35.00 494.04,35.00 494.85,35.00 495.66,35.00 496.48,35.00 497.29,35.00 498.10,35.00 498.92,35.00 499.73,35.00 500.54,35.00 501.35,35.00 502.16,35.00 502.99,35.00 503.80,35.00 504.61,35.00 505.43,35.00 506.26,35.00 507.06,35.00 507.88,35.00 508.69,35.00 509.53,35.00 510.34,35.00 511.15,35.00 511.97,35.00 512.79,35.00 513.60,35.00 514.42,35.00 515.23,35.00 516.07,35.00 516.88,35.00 517.69,35.00 518.50,35.00 519.31,35.00 520.12,35.00 520.94,35.00 521.75,35.00 522.57,35.00 523.40,35.00 524.22,35.00 525.01,35.00 525.84,35.00 526.64,35.00 527.46,35.00 528.27,35.00 529.09,35.00 529.90,35.00 530.72,35.00 531.54,35.00 532.35,35.00 533.17,35.00 533.99,35.00 534.81,35.00 535.62,35.00 536.45,35.00 537.36,35.00 538.25,35.00 539.13,35.00 539.95,35.00 540.80,35.00 541.62,35.00 542.43,35.00 543.24,35.00 544.00,35.00 544.85,35.00 545.66,35.00 546.49,35.00 547.29,35.00 548.11,35.00 548.92,35.00 549.74,35.00 550.55,35.00 551.36,35.00 552.18,35.00 552.99,35.00 553.81,35.00 554.63,35.00 555.45,35.00 556.27,35.00 557.09,35.00 557.91,35.00 558.72,35.00 559.56,35.00 560.37,35.00 561.18,35.00 561.99,35.00 562.81,35.00 563.62,35.00 564.43,35.00 565.25,35.00 566.06,35.00 566.89,35.00 567.70,35.00 568.51,35.00 569.33,35.00 570.14,35.00 570.96,35.00 571.78,35.00 572.59,35.00 573.41,35.00 574.23,35.00 575.05,35.00 575.87,35.00 576.69,35.00 577.51,35.00 578.32,35.00 579.14,35.00 579.95,35.00 580.78,35.00 581.62,35.00 582.43,35.00 583.25,35.00 584.07,35.00 584.88,35.00 585.70,35.00 586.51,35.00 587.33,35.00 588.15,35.00 588.96,35.00 589.78,35.00 590.60,35.00 591.42,35.00 592.24,35.00 593.06,35.00 593.88,35.00 594.70,35.00 595.52,35.00 596.35,35.00 597.16,35.00 597.98,35.00 598.79,35.00 599.61,35.00 600.45,35.00 601.27,35.00 602.09,35.00 602.91,35.00 603.72,35.00 604.53,35.00 605.35,35.00 606.17,35.00 606.99,35.00 607.80,35.00 608.61,35.00 609.43,35.00 610.25,35.00 611.07,35.00 611.89,35.00 612.70,35.00 613.53,35.00 614.34,35.00 615.16,35.00 615.98,35.00 616.79,35.00 617.60,35.00 618.41,35.00 619.23,35.00 620.05,35.00 620.87,35.00 621.69,35.00 622.51,35.00 623.32,35.00 624.15,35.00 624.97,35.00 625.79,35.00 626.61,35.00 627.43,35.00 628.25,35.00 629.06,35.00 629.88,35.00 630.71,35.00 631.53,35.00 632.35,35.00 633.18,35.00 634.00,35.00 634.83,35.00 635.64,35.00 636.46,35.00 637.28,35.00 638.10,35.00 638.92,35.00 639.74,35.00 640.56,35.00 641.38,35.00 642.18,35.00 643.02,35.00 643.84,35.00 644.66,35.00 645.48,35.00 646.29,35.00 647.10,35.00 647.91,35.00 648.72,35.00 649.55,35.00 650.36,35.00 651.18,35.00 651.99,35.00 652.81,35.00 653.63,35.00 654.47,35.00 655.29,35.00 656.10,35.00 656.92,35.00 657.73,35.00 658.55,35.00 659.37,35.00 660.19,35.00 661.00,35.00 661.82,35.00 662.64,35.00 663.46,35.00 664.28,35.00 665.10,35.00 665.92,35.00 666.76,35.00 667.59,35.00 668.41,35.00 669.23,35.00 670.05,35.00 670.87,35.00 671.68,35.00 672.50,35.00 673.31,35.00 674.13,35.00 674.95,35.00 675.78,35.00 676.59,35.00 677.42,35.00 678.27,35.00 679.09,35.00 679.90,35.00 680.72,35.00 681.54,35.00 682.36,35.00 683.18,35.00 684.01,35.00 684.83,35.00 685.66,35.00 686.48,35.00 687.30,35.00 688.12,35.00 688.94,35.00 689.75,35.00 690.57,35.00 691.39,35.00 692.21,35.00 693.04,35.00 693.85,35.00 694.67,35.00 695.49,35.00 696.32,35.00 697.13,35.00 697.95,35.00 698.78,35.00 699.62,35.00 700.44,35.00 701.27,35.00 702.08,35.00 702.92,35.00 703.76,35.00 704.59,35.00 705.42,35.00 706.27,35.00 707.09,35.00 707.91,35.00 708.72,35.00 709.55,35.00 710.37,35.00 711.19,35.00 712.03,35.00 712.85,35.00 713.67,35.00 714.48,35.00 715.30,35.00 716.12,35.00 716.94,35.00 717.75,35.00 718.57,35.00 719.38,35.00 720.20,35.00 721.02,35.00 721.82,35.00 722.64,35.00 723.46,35.00 724.29,35.00 725.10,35.00 725.93,35.00 726.75,35.00 727.56,35.00 728.38,35.00 729.20,35.00 730.02,35.00 730.84,35.00 731.65,35.00 732.47,35.00 733.29,35.00 734.10,35.00 734.91,35.00 735.73,35.00 736.54,35.00 737.36,35.00 738.18,35.00 739.00,35.00 739.82,35.00 740.63,35.00 741.45,35.00 742.27,35.00 743.09,35.00 743.89,35.00 744.70,35.00 745.50,35.00 746.32,35.00 747.14,35.00 747.98,35.00 748.79,35.00 749.61,35.00 750.43,35.00 751.26,35.00 752.08,35.00 752.89,35.00 753.72,35.00 754.54,35.00 755.35,35.00 756.18,35.00 757.00,35.00 757.83,35.00 758.65,35.00 759.47,35.00 760.28,35.00 761.09,35.00 761.91,35.00 762.72,35.00 763.54,35.00 764.35,35.00 765.17,35.00 765.98,35.00 766.81,35.00 767.62,35.00 768.43,35.00 769.25,35.00 770.07,35.00 770.89,35.00 771.71,35.00 772.53,35.00 773.35,35.00 774.16,35.00 774.99,35.00 775.80,35.00 776.62,35.00 777.44,35.00 778.25,35.00 779.07,35.00 779.89,35.00 780.71,35.00 781.53,35.00 782.34,35.00 783.16,35.00 784.00,35.00 784.82,35.00 785.65,35.00 786.48,35.00 787.30,35.00 788.12,35.00 788.94,35.00 789.76,35.00 790.58,35.00 791.39,35.00 792.22,35.00 793.06,35.00 793.88,35.00 794.69,35.00 795.51,35.00 796.33,35.00 797.15,35.00 797.97,35.00 798.78,35.00 799.60,35.00 800.42,35.00 801.24,35.00 802.05,35.00 802.87,35.00 803.69,35.00 804.50,35.00 805.31,35.00 806.13,35.00 806.95,35.00 807.76,35.00 808.60,35.00 809.41,35.00 810.22,35.00 811.04,35.00 811.86,35.00 812.67,35.00 813.50,35.00 814.31,35.00 815.14,35.00 815.96,35.00 816.77,35.00 817.58,35.00 818.40,35.00 819.22,35.00 820.03,35.00 820.86,35.00 821.70,35.00 822.53,35.00 823.37,35.00 824.20,35.00 825.03,35.00 825.87,35.00 826.70,35.00 827.55,35.00 828.39,35.00 829.23,35.00 830.04,35.00 830.86,35.00 831.68,35.00 832.51,35.00 833.32,35.00 834.15,35.00 834.97,35.00 835.79,35.00 836.61,35.00 837.43,35.00 838.24,35.00 839.05,35.00 839.87,35.00 840.69,35.00 841.50,35.00 842.32,35.00 843.14,35.00 843.96,35.00 844.79,35.00 845.61,35.00 846.43,35.00 847.24,35.00 848.06,35.00 848.88,35.00 849.70,35.00 850.52,35.00 851.34,35.00 852.15,35.00 852.98,35.00 853.79,35.00 854.61,35.00 855.43,35.00 856.24,35.00 857.07,35.00 857.94,35.00 858.79,35.00 859.60,35.00 860.42,35.00 861.23,35.00 862.06,35.00 862.89,35.00 863.71,35.00 864.53,35.00 865.34,35.00 866.15,35.00 866.96,35.00 867.78,35.00 868.60,35.00 869.42,35.00 870.24,35.00 871.06,35.00 871.88,35.00 872.71,35.00 873.52,35.00 874.34,35.00 875.15,35.00 875.97,35.00 876.79,35.00 877.61,35.00 878.42,35.00 879.25,35.00 880.07,35.00 880.89,35.00 881.74,35.00 882.56,35.00 883.38,35.00 884.19,35.00 885.01,35.00 885.83,35.00 886.66,35.00 887.48,35.00 888.29,35.00 889.11,35.00 889.94,35.00 890.77,35.00 891.59,35.00 892.41,35.00 893.23,35.00 894.04,35.00 894.87,35.00 895.68,35.00 896.50,35.00 897.31,35.00 898.15,35.00 898.96,35.00 899.78,35.00 900.60,35.00 901.41,35.00 902.23,35.00 903.05,35.00 903.86,35.00 904.68,35.00 905.50,35.00 906.32,35.00 907.14,35.00 907.96,35.00 908.77,35.00 909.60,35.00 910.42,35.00 911.23,35.00 912.05,35.00 912.86,35.00 913.67,35.00 914.49,35.00 915.32,35.00 916.13,35.00 916.97,35.00 917.79,35.00 918.61,35.00 919.43,35.00 920.25,35.00 921.08,35.00 921.96,35.00 922.79,35.00 923.62,35.00 924.45,35.00 925.27,35.00 926.09,35.00 926.91,35.00 927.73,35.00 928.55,35.00 929.36,35.00 930.19,35.00 931.01,35.00 931.83,35.00 932.66,35.00 933.48,35.00 934.31,35.00 935.12,35.00 935.94,35.00 936.76,35.00 937.59,35.00 938.40,35.00 939.22,35.00 940.05,35.00 940.86,35.00 941.69,35.00 942.51,35.00 943.33,35.00 944.15,35.00 944.98,35.00 945.80,35.00 946.63,35.00 947.44,35.00 948.26,35.00 949.08,35.00 949.89,35.00 950.71,35.00 951.53,35.00 952.35,35.00 953.17,35.00 953.99,35.00 954.80,35.00 955.62,35.00 956.45,35.00 957.27,35.00 958.08,35.00 958.90,35.00 959.72,35.00 960.55,35.00 961.38,35.00 962.17,35.00 962.97,35.00 963.79,35.00 964.61,35.00 965.43,35.00 966.25,35.00 967.08,35.00 967.90,35.00 968.73,35.00 969.55,35.00 970.37,35.00 971.19,35.00 972.00,35.00 972.82,35.00 973.62,35.00 974.44,35.00 975.26,35.00 976.08,35.00 976.89,35.00 977.71,35.00 978.52,35.00 979.34,35.00 980.16,35.00 980.98,35.00 981.79,35.00 982.61,35.00 983.40,35.00 984.24,35.00 985.05,35.00 985.87,35.00 986.70,35.00 987.53,35.00 988.34,35.00 989.15,35.00 989.98,35.00 990.80,35.00 991.61,35.00 992.43,35.00 993.31,35.00 994.13,35.00 994.96,35.00 995.78,35.00 996.61,35.00 997.41,35.00 998.23,35.00 999.06,35.00 999.87,35.00 1000.69,35.00 1001.50,35.00 1002.32,35.00 1003.15,35.00 1003.97,35.00 1004.79,35.00 1005.61,35.00 1006.42,35.00 1007.25,35.00 1008.06,35.00 1008.89,35.00 1009.71,35.00 1010.54,35.00 1011.38,35.00 1012.20,35.00 1013.02,35.00 1013.84,35.00 1014.66,35.00 1015.49,35.00 1016.31,35.00 1017.12,35.00 1017.94,35.00 1018.76,35.00 1019.57,35.00 1020.40,35.00 1021.22,35.00 1022.04,35.00 1022.86,35.00 1023.68,35.00 1024.49,35.00 1025.30,35.00 1026.12,35.00 1026.94,35.00 1027.75,35.00 1028.57,35.00 1029.39,35.00 1030.20,35.00 1031.01,35.00 1031.83,35.00 1032.65,35.00 1033.46,35.00 1034.27,35.00 1035.09,35.00 1035.91,35.00 1036.71,35.00 1037.53,35.00 1038.35,35.00 1039.17,35.00 1039.99,35.00 1040.80,35.00 1041.61,35.00 1042.42,35.00 1043.26,35.00 1044.07,35.00 1044.88,35.00 1045.70,35.00 1046.56,35.00 1047.37,35.00 1048.19,35.00 1049.02,35.00 1049.84,35.00 1050.66,35.00 1051.48,35.00 1052.30,35.00 1053.12,35.00 1053.93,35.00 1054.74,35.00 1055.56,35.00 1056.38,35.00 1057.20,35.00 1058.02,35.00 1058.83,35.00 1059.64,35.00 1060.46,35.00 1061.27,35.00 1062.10,35.00 1062.92,35.00 1063.78,35.00 1064.59,35.00 1065.40,35.00 1066.21,35.00 1067.02,35.00 1067.86,35.00 1068.67,35.00 1069.49,35.00 1070.31,35.00 1071.13,35.00 1071.95,35.00 1072.77,35.00 1073.59,35.00 1074.41,35.00 1075.22,35.00 1076.04,35.00 1076.86,35.00 1077.68,35.00 1078.49,35.00 1079.30,35.00 1080.12,35.00 1080.94,35.00 1081.75,35.00 1082.57,35.00 1083.39,35.00 1084.20,35.00 1085.02,35.00 1085.84,35.00 1086.66,35.00 1087.48,35.00 1088.29,35.00 1089.11,35.00 1089.92,35.00 1090.75,35.00 1091.56,35.00 1092.38,35.00 1093.20,35.00 1094.01,35.00 1094.82,35.00 1095.64,35.00 1096.46,35.00 1097.27,35.00 1098.11,35.00 1098.93,35.00 1099.74,35.00 1100.56,35.00 1101.39,35.00 1102.21,35.00 1103.04,35.00 1103.86,35.00 1104.73,35.00 1105.55,35.00 1106.43,35.00 1107.25,35.00 1108.06,35.00 1108.87,35.00 1109.69,35.00 1110.51,35.00 1111.33,35.00 1112.14,35.00 1112.96,35.00 1113.78,35.00 1114.60,35.00 1115.41,35.00 1116.23,35.00 1117.04,35.00 1117.86,35.00 1118.68,35.00 1119.49,35.00 1120.30,35.00 1121.13,35.00 1121.94,35.00 1122.77,35.00 1123.58,35.00 1124.39,35.00 1125.21,35.00 1126.02,35.00 1126.85,35.00 1127.67,35.00 1128.48,35.00 1129.31,35.00 1130.12,35.00 1130.93,35.00 1131.75,35.00 1132.57,35.00 1133.38,35.00 1134.19,35.00 1135.01,35.00 1135.81,35.00 1136.63,35.00 1137.45,35.00 1138.26,35.00 1139.08,35.00 1139.91,35.00 1140.75,35.00 1141.58,35.00 1142.39,35.00 1143.20,35.00 1144.02,35.00 1144.82,35.00 1145.64,35.00 1146.46,35.00 1147.27,35.00 1148.08,35.00 1148.90,35.00 1149.71,35.00 1150.52,35.00 1151.33,35.00 1152.15,35.00 1152.96,35.00 1153.78,35.00 1154.61,35.00 1155.42,35.00 1156.23,35.00 1157.06,35.00 1157.87,35.00 1158.69,35.00 1159.51,35.00 1160.32,35.00 1161.14,35.00 1161.97,35.00 1162.78,35.00 1163.61,35.00 1164.42,35.00 1165.23,35.00 1166.05,35.00 1166.87,35.00 1167.69,35.00 1168.53,35.00 1169.35,35.00 1170.17,35.00 1171.00,35.00 1171.81,35.00 1172.63,35.00 1173.44,35.00 1174.26,35.00 1175.09,35.00 1175.90,35.00 1176.71,35.00 1177.53,35.00 1178.36,35.00 1179.18,35.00 1180.00,35.00"/>
<polyline fill="none" stroke="#2ca02c" stroke-opacity="0.65" stroke-width="2" points="70.00,305.00 70.81,305.00 71.63,305.00 72.44,305.00 73.26,305.00 74.08,305.00 74.89,305.00 75.71,305.00 76.59,305.00 77.40,305.00 78.21,305.00 79.02,305.00 79.85,305.00 80.65,305.00 81.46,305.00 82.93,305.00 84.19,305.00 85.01,305.00 85.85,305.00 86.66,305.00 87.47,305.00 88.27,305.00 89.09,305.00 89.90,305.00 90.72,305.00 91.54,305.00 92.37,305.00 93.19,305.00 94.01,305.00 94.86,305.00 95.68,305.00 96.50,305.00 97.33,305.00 98.15,305.00 98.96,305.00 99.80,305.00 100.61,305.00 101.42,305.00 102.25,305.00 103.06,305.00 103.87,305.00 104.67,305.00 105.49,305.00 106.30,305.00 107.11,305.00 107.95,305.00 108.77,305.00 109.57,305.00 110.38,305.00 111.21,305.00 112.02,305.00 112.95,305.00 113.77,305.00 114.58,305.00 115.38,305.00 116.19,305.00 117.00,305.00 117.81,305.00 118.63,305.00 119.44,305.00 120.27,305.00 121.08,305.00 121.89,305.00 122.71,305.00 123.53,305.00 124.34,305.00 125.16,305.00 125.96,305.00 126.77,305.00 127.58,305.00 128.39,305.00 129.20,305.00 130.01,305.00 130.82,305.00 131.64,305.00 132.45,305.00 133.26,305.00 134.08,305.00 134.88,305.00 135.69,305.00 136.53,305.00 137.34,305.00 138.15,305.00 138.97,305.00 139.78,305.00 140.60,305.00 141.41,305.00 142.21,305.00 143.02,305.00 143.84,305.00 144.66,305.00 145.47,305.00 146.29,305.00 147.10,305.00 147.91,305.00 148.72,305.00 149.53,305.00 150.34,305.00 151.16,305.00 151.96,305.00 152.78,305.00 153.60,305.00 154.41,305.00 155.23,305.00 156.05,305.00 156.87,305.00 157.68,305.00 158.49,305.00 159.30,305.00 160.11,305.00 160.94,305.00 161.75,305.00 162.56,305.00 163.37,305.00 164.19,305.00 165.01,305.00 165.83,305.00 166.66,305.00 167.46,305.00 168.28,305.00 169.09,305.00 169.91,305.00 170.72,305.00 171.54,305.00 172.42,305.00 173.23,305.00 174.05,305.00 174.87,305.00 175.67,305.00 176.48,305.00 177.28,305.00 178.09,305.00 178.91,305.00 179.72,305.00 180.53,305.00 181.34,305.00 182.15,305.00 182.96,305.00 183.79,305.00 184.60,305.00 185.41,305.00 186.22,305.00 187.03,305.00 187.84,305.00 188.66,305.00 189.48,305.00 190.29,305.00 191.11,305.00 191.92,305.00 192.73,305.00 193.54,305.00 194.35,305.00 195.16,305.00 195.98,305.00 196.80,305.00 197.61,305.00 198.42,305.00 199.25,305.00 200.06,305.00 200.87,305.00 201.69,305.00 202.50,305.00 203.33,305.00 204.15,305.00 204.96,305.00 205.78,305.00 206.59,305.00 207.39,305.00 208.20,305.00 209.02,305.00 209.83,305.00 210.63,305.00 211.44,305.00 212.26,305.00 213.08,305.00 213.90,305.00 214.71,305.00 215.54,305.00 216.35,305.00 217.16,305.00 217.97,305.00 218.78,305.00 219.67,305.00 220.50,305.00 221.31,305.00 222.11,305.00 222.92,305.00 223.73,305.00 224.55,305.00 225.36,305.00 226.18,305.00 226.99,305.00 227.80,305.00 228.61,305.00 229.45,305.00 230.26,305.00 231.06,305.00 231.88,305.00 232.70,305.00 233.53,305.00 234.36,305.00 235.17,305.00 235.98,305.00 236.80,305.00 237.61,305.00 238.42,305.00 239.24,305.00 240.06,305.00 240.87,305.00 241.68,305.00 242.50,305.00 243.32,305.00 244.13,305.00 244.94,305.00 245.77,305.00 246.58,305.00 247.39,305.00 248.19,305.00 249.00,305.00 249.82,305.00 250.63,305.00 251.44,305.00 252.26,305.00 253.06,305.00 253.87,305.00 254.69,305.00 255.51,305.00 256.32,305.00 257.15,305.00 257.96,305.00 258.78,305.00 259.59,305.00 260.41,305.00 261.22,305.00 262.03,305.00 262.85,305.00 263.68,305.00 264.50,305.00 265.31,305.00 266.13,305.00 266.94,305.00 267.75,305.00 268.56,305.00 269.37,305.00 270.19,305.00 271.00,305.00 271.82,305.00 272.63,305.00 273.45,305.00 274.27,305.00 275.08,305.00 275.90,305.00 276.72,305.00 277.53,305.00 278.34,305.00 279.16,305.00 279.98,305.00 280.80,305.00 281.61,305.00 282.43,305.00 283.33,305.00 284.15,305.00 284.96,305.00 285.78,305.00 286.60,305.00 287.42,305.00 288.23,305.00 289.05,305.00 289.85,305.00 290.69,305.00 291.52,305.00 292.33,305.00 293.14,305.00 293.95,305.00 294.77,305.00 295.58,305.00 296.43,305.00 297.24,305.00 298.05,305.00 298.88,305.00 299.76,305.00 300.57,305.00 301.59,305.00 302.97,305.00 303.80,305.00 304.64,305.00 305.45,305.00 306.24,305.00 307.05,305.00 307.88,305.00 308.70,305.00 309.52,305.00 310.36,305.00 311.21,305.00 312.07,305.00 312.89,305.00 313.70,305.00 314.52,305.00 315.34,305.00 316.16,305.00 316.99,305.00 317.80,305.00 318.61,305.00 319.46,305.00 320.28,305.00 321.08,305.00 321.90,305.00 322.72,305.00 323.57,305.00 324.39,305.00 325.20,305.00 326.04,305.00 326.82,305.00 327.63,305.00 328.46,305.00 329.27,305.00 330.10,305.00 330.93,305.00 331.75,305.00 332.56,305.00 333.39,305.00 334.21,305.00 335.03,305.00 335.84,305.00 336.64,305.00 337.46,305.00 338.28,305.00 339.09,305.00 340.06,305.00 341.02,305.00 341.98,305.00 342.93,305.00 343.86,305.00 344.79,305.00 345.76,305.00 346.71,305.00 347.52,305.00 348.33,305.00 349.14,305.00 349.95,305.00 350.77,305.00 351.57,305.00 352.38,305.00 353.19,305.00 354.01,305.00 354.82,305.00 355.63,305.00 356.44,305.00 357.25,305.00 358.06,305.00 358.87,305.00 359.68,305.00 360.50,305.00 361.30,305.00 362.12,305.00 362.94,305.00 363.74,305.00 364.55,305.00 365.36,305.00 366.17,305.00 366.98,305.00 367.80,305.00 368.61,305.00 369.42,305.00 370.24,305.00 371.05,305.00 371.86,305.00 372.67,305.00 373.48,305.00 374.29,305.00 375.09,305.00 375.89,305.00 376.71,305.00 377.52,305.00 378.32,305.00 379.13,305.00 379.94,305.00 380.75,305.00 381.56,305.00 382.36,305.00 383.16,305.00 384.00,305.00 384.88,305.00 385.69,305.00 386.51,305.00 387.32,305.00 388.13,305.00 388.93,305.00 389.74,305.00 390.55,305.00 391.51,305.00 392.46,305.00 393.41,305.00 394.36,305.00 395.32,305.00 396.27,305.00 397.24,305.00 398.22,305.00 399.11,305.00 399.98,305.00 400.80,305.00 401.62,305.00 402.44,305.00 403.24,305.00 404.05,305.00 404.86,305.00 405.67,305.00 406.49,305.00 407.29,305.00 408.11,305.00 408.92,305.00 409.73,305.00 410.56,305.00 411.37,305.00 412.17,305.00 412.89,35.00 413.73,35.00 414.54,35.00 415.37,35.00 416.18,35.00 416.99,35.00 417.81,35.00 418.63,35.00 419.45,35.00 420.27,35.00 421.09,35.00 421.92,35.00 422.72,35.00 423.53,35.00 424.34,35.00 425.15,35.00 425.96,35.00 426.76,35.00 427.59,35.00 428.39,35.00 429.21,35.00 430.02,35.00 430.83,35.00 431.65,35.00 432.46,35.00 433.28,35.00 434.10,35.00 434.91,35.00 435.72,35.00 436.54,35.00 437.35,35.00 438.19,35.00 439.00,35.00 439.81,35.00 440.62,35.00 441.42,35.00 442.23,35.00 443.06,35.00 443.87,35.00 444.67,35.00 445.49,35.00 446.29,35.00 447.11,35.00 447.92,35.00 448.74,35.00 449.56,35.00 450.54,35.00 451.37,35.00 452.21,35.00 453.03,35.00 453.84,35.00 454.66,35.00 455.47,35.00 456.28,35.00 457.10,35.00 457.92,35.00 458.73,35.00 459.55,35.00 460.36,35.00 461.18,35.00 462.02,35.00 462.84,35.00 463.66,35.00 464.47,35.00 465.29,35.00 466.10,35.00 466.91,35.00 467.72,35.00 468.57,35.00 469.39,35.00 470.21,35.00 471.02,35.00 471.83,35.00 472.65,35.00 473.46,35.00 474.28,35.00 475.09,35.00 475.91,35.00 476.73,35.00 477.54,35.00 478.35,35.00 479.17,35.00 479.98,35.00 480.81,35.00 481.62,35.00 482.43,35.00 483.24,35.00 484.06,35.00 484.88,35.00 485.70,35.00 486.68,35.00 487.52,35.00 488.33,35.00 489.14,35.00 489.95,35.00 490.77,35.00 491.59,35.00 492.40,35.00 493.23,35.00 494.04,35.00 494.85,35.00 495.66,35.00 496.48,35.00 497.29,35.00 498.10,35.00 498.92,35.00 499.73,35.00 500.54,35.00 501.35,35.00 502.16,35.00 502.99,35.00 503.80,35.00 504.61,35.00 505.43,35.00 506.26,35.00 507.06,35.00 507.88,35.00 508.69,35.00 509.53,35.00 510.34,35.00 511.15,35.00 511.97,35.00 512.79,35.00 513.60,35.00 514.42,35.00 515.23,35.00 516.07,35.00 516.88,35.00 517.69,35.00 518.50,35.00 519.31,35.00 520.12,35.00 520.94,35.00 521.75,35.00 522.57,35.00 523.40,35.00 524.22,35.00 525.01,35.00 525.84,35.00 526.64,35.00 527.46,35.00 528.27,35.00 529.09,35.00 529.90,35.00 530.72,35.00 531.54,35.00 532.35,35.00 533.17,35.00 533.99,35.00 534.81,35.00 535.62,35.00 536.45,35.00 537.36,35.00 538.25,35.00 539.13,35.00 539.95,35.00 540.80,35.00 541.62,35.00 542.43,35.00 543.24,35.00 544.00,35.00 544.85,35.00 545.66,35.00 546.49,35.00 547.29,35.00 548.11,35.00 548.92,35.00 549.74,35.00 550.55,35.00 551.36,35.00 552.18,35.00 552.99,35.00 553.81,35.00 554.63,35.00 555.45,35.00 556.27,35.00 557.09,35.00 557.91,35.00 558.72,35.00 559.56,35.00 560.37,35.00 561.18,35.00 561.99,35.00 562.81,35.00 563.62,35.00 564.43,35.00 565.25,35.00 566.06,35.00 566.89,35.00 567.70,35.00 568.51,35.00 569.33,35.00 570.14,35.00 570.96,35.00 571.78,35.00 572.59,35.00 573.41,35.00 574.23,35.00 575.05,35.00 575.87,35.00 576.69,35.00 577.51,35.00 578.32,35.00 579.14,35.00 579.95,35.00 580.78,35.00 581.62,35.00 582.43,35.00 583.25,35.00 584.07,35.00 584.88,35.00 585.70,35.00 586.51,35.00 587.33,35.00 588.15,35.00 588.96,35.00 589.78,35.00 590.60,35.00 591.42,35.00 592.24,35.00 593.06,35.00 593.88,35.00 594.70,35.00 595.52,35.00 596.35,35.00 597.16,35.00 597.98,35.00 598.79,35.00 599.61,35.00 600.45,35.00 601.27,35.00 602.09,35.00 602.91,35.00 603.72,35.00 604.53,35.00 605.35,35.00 606.17,35.00 606.99,35.00 607.80,35.00 608.61,35.00 609.43,35.00 610.25,35.00 611.07,35.00 611.89,35.00 612.70,35.00 613.53,35.00 614.34,35.00 615.16,35.00 615.98,35.00 616.79,35.00 617.60,35.00 618.41,35.00 619.23,35.00 620.05,35.00 620.87,35.00 621.69,35.00 622.51,35.00 623.32,35.00 624.15,35.00 624.97,35.00 625.79,35.00 626.61,35.00 627.43,35.00 628.25,35.00 629.06,35.00 629.88,35.00 630.71,35.00 631.53,35.00 632.35,35.00 633.18,35.00 634.00,35.00 634.83,35.00 635.64,35.00 636.46,35.00 637.28,35.00 638.10,35.00 638.92,35.00 639.74,35.00 640.56,35.00 641.38,35.00 642.18,35.00 643.02,35.00 643.84,35.00 644.66,35.00 645.48,35.00 646.29,35.00 647.10,35.00 647.91,35.00 648.72,35.00 649.55,35.00 650.36,35.00 651.18,35.00 651.99,35.00 652.81,35.00 653.63,35.00 654.47,35.00 655.29,35.00 656.10,35.00 656.92,35.00 657.73,35.00 658.55,35.00 659.37,35.00 660.19,35.00 661.00,35.00 661.82,35.00 662.64,35.00 663.46,35.00 664.28,35.00 665.10,35.00 665.92,35.00 666.76,35.00 667.59,35.00 668.41,35.00 669.23,35.00 670.05,35.00 670.87,35.00 671.68,35.00 672.50,35.00 673.31,35.00 674.13,35.00 674.95,35.00 675.78,35.00 676.59,35.00 677.42,35.00 678.27,35.00 679.09,35.00 679.90,35.00 680.72,35.00 681.54,35.00 682.36,35.00 683.18,35.00 684.01,35.00 684.83,35.00 685.66,35.00 686.48,35.00 687.30,35.00 688.12,35.00 688.94,35.00 689.75,35.00 690.57,35.00 691.39,35.00 692.21,35.00 693.04,35.00 693.85,35.00 694.67,35.00 695.49,35.00 696.32,35.00 697.13,35.00 697.95,35.00 698.78,35.00 699.62,35.00 700.44,35.00 701.27,35.00 702.08,35.00 702.92,35.00 703.76,35.00 704.59,35.00 705.42,35.00 706.27,35.00 707.09,35.00 707.91,35.00 708.72,35.00 709.55,35.00 710.37,35.00 711.19,35.00 712.03,35.00 712.85,35.00 713.67,35.00 714.48,35.00 715.30,35.00 716.12,35.00 716.94,35.00 717.75,35.00 718.57,35.00 719.38,35.00 720.20,35.00 721.02,35.00 721.82,35.00 722.64,35.00 723.46,35.00 724.29,35.00 725.10,35.00 725.93,35.00 726.75,35.00 727.56,35.00 728.38,35.00 729.20,35.00 730.02,35.00 730.84,35.00 731.65,35.00 732.47,35.00 733.29,35.00 734.10,35.00 734.91,35.00 735.73,35.00 736.54,35.00 737.36,35.00 738.18,35.00 739.00,35.00 739.82,35.00 740.63,35.00 741.45,35.00 742.27,35.00 743.09,35.00 743.89,35.00 744.70,35.00 745.50,35.00 746.32,35.00 747.14,35.00 747.98,35.00 748.79,35.00 749.61,35.00 750.43,35.00 751.26,35.00 752.08,35.00 752.89,35.00 753.72,35.00 754.54,35.00 755.35,35.00 756.18,35.00 757.00,35.00 757.83,35.00 758.65,35.00 759.47,35.00 760.28,35.00 761.09,35.00 761.91,35.00 762.72,35.00 763.54,35.00 764.35,35.00 765.17,35.00 765.98,35.00 766.81,35.00 767.62,35.00 768.43,35.00 769.25,35.00 770.07,35.00 770.89,35.00 771.71,35.00 772.53,35.00 773.35,35.00 774.16,35.00 774.99,35.00 775.80,35.00 776.62,35.00 777.44,35.00 778.25,35.00 779.07,35.00 779.89,35.00 780.71,35.00 781.53,35.00 782.34,35.00 783.16,35.00 784.00,35.00 784.82,35.00 785.65,35.00 786.48,35.00 787.30,35.00 788.12,35.00 788.94,35.00 789.76,35.00 790.58,35.00 791.39,35.00 792.22,35.00 793.06,35.00 793.88,35.00 794.69,35.00 795.51,35.00 796.33,35.00 797.15,35.00 797.97,35.00 798.78,35.00 799.60,35.00 800.42,35.00 801.24,35.00 802.05,35.00 802.87,35.00 803.69,35.00 804.50,35.00 805.31,35.00 806.13,35.00 806.95,35.00 807.76,35.00 808.60,35.00 809.41,35.00 810.22,35.00 811.04,35.00 811.86,35.00 812.67,35.00 813.50,35.00 814.31,35.00 815.14,35.00 815.96,35.00 816.77,35.00 817.58,35.00 818.40,35.00 819.22,35.00 820.03,35.00 820.86,35.00 821.70,35.00 822.53,35.00 823.37,35.00 824.20,35.00 825.03,35.00 825.87,35.00 826.70,35.00 827.55,35.00 828.39,35.00 829.23,35.00 830.04,35.00 830.86,35.00 831.68,35.00 832.51,35.00 833.32,35.00 834.15,35.00 834.97,35.00 835.79,35.00 836.61,35.00 837.43,35.00 838.24,35.00 839.05,35.00 839.87,35.00 840.69,35.00 841.50,35.00 842.32,35.00 843.14,35.00 843.96,35.00 844.79,35.00 845.61,35.00 846.43,35.00 847.24,35.00 848.06,35.00 848.88,35.00 849.70,35.00 850.52,35.00 851.34,35.00 852.15,35.00 852.98,35.00 853.79,35.00 854.61,35.00 855.43,35.00 856.24,35.00 857.07,35.00 857.94,35.00 858.79,35.00 859.60,35.00 860.42,35.00 861.23,35.00 862.06,35.00 862.89,35.00 863.71,35.00 864.53,35.00 865.34,35.00 866.15,35.00 866.96,35.00 867.78,35.00 868.60,35.00 869.42,35.00 870.24,35.00 871.06,35.00 871.88,35.00 872.71,35.00 873.52,35.00 874.34,35.00 875.15,35.00 875.97,35.00 876.79,35.00 877.61,35.00 878.42,35.00 879.25,35.00 880.07,35.00 880.89,35.00 881.74,35.00 882.56,35.00 883.38,35.00 884.19,35.00 885.01,35.00 885.83,35.00 886.66,35.00 887.48,35.00 888.29,35.00 889.11,35.00 889.94,35.00 890.77,35.00 891.59,35.00 892.41,35.00 893.23,35.00 894.04,35.00 894.87,35.00 895.68,35.00 896.50,35.00 897.31,35.00 898.15,35.00 898.96,35.00 899.78,35.00 900.60,35.00 901.41,35.00 902.23,35.00 903.05,35.00 903.86,35.00 904.68,35.00 905.50,35.00 906.32,35.00 907.14,35.00 907.96,35.00 908.77,35.00 909.60,35.00 910.42,35.00 911.23,35.00 912.05,35.00 912.86,35.00 913.67,35.00 914.49,35.00 915.32,35.00 916.13,35.00 916.97,35.00 917.79,35.00 918.61,35.00 919.43,35.00 920.25,35.00 921.08,35.00 921.96,35.00 922.79,35.00 923.62,35.00 924.45,35.00 925.27,35.00 926.09,35.00 926.91,35.00 927.73,35.00 928.55,35.00 929.36,35.00 930.19,35.00 931.01,35.00 931.83,35.00 932.66,35.00 933.48,35.00 934.31,35.00 935.12,35.00 935.94,35.00 936.76,35.00 937.59,35.00 938.40,35.00 939.22,35.00 940.05,35.00 940.86,35.00 941.69,35.00 942.51,35.00 943.33,35.00 944.15,35.00 944.98,35.00 945.80,35.00 946.63,35.00 947.44,35.00 948.26,35.00 949.08,35.00 949.89,35.00 950.71,35.00 951.53,35.00 952.35,35.00 953.17,35.00 953.99,35.00 954.80,35.00 955.62,35.00 956.45,35.00 957.27,35.00 958.08,35.00 958.90,35.00 959.72,35.00 960.55,35.00 961.38,35.00 962.17,35.00 962.97,35.00 963.79,35.00 964.61,35.00 965.43,35.00 966.25,35.00 967.08,35.00 967.90,35.00 968.73,35.00 969.55,35.00 970.37,35.00 971.19,35.00 972.00,35.00 972.82,35.00 973.62,35.00 974.44,35.00 975.26,35.00 976.08,35.00 976.89,35.00 977.71,35.00 978.52,35.00 979.34,35.00 980.16,35.00 980.98,35.00 981.79,35.00 982.61,35.00 983.40,35.00 984.24,35.00 985.05,35.00 985.87,35.00 986.70,35.00 987.53,35.00 988.34,35.00 989.15,35.00 989.98,35.00 990.80,35.00 991.61,35.00 992.43,35.00 993.31,35.00 994.13,35.00 994.96,35.00 995.78,35.00 996.61,35.00 997.41,35.00 998.23,35.00 999.06,35.00 999.87,35.00 1000.69,35.00 1001.50,35.00 1002.32,35.00 1003.15,35.00 1003.97,35.00 1004.79,35.00 1005.61,35.00 1006.42,35.00 1007.25,35.00 1008.06,35.00 1008.89,35.00 1009.71,35.00 1010.54,35.00 1011.38,35.00 1012.20,35.00 1013.02,35.00 1013.84,35.00 1014.66,35.00 1015.49,35.00 1016.31,35.00 1017.12,35.00 1017.94,35.00 1018.76,35.00 1019.57,35.00 1020.40,35.00 1021.22,35.00 1022.04,35.00 1022.86,35.00 1023.68,35.00 1024.49,35.00 1025.30,35.00 1026.12,35.00 1026.94,35.00 1027.75,35.00 1028.57,35.00 1029.39,35.00 1030.20,35.00 1031.01,35.00 1031.83,35.00 1032.65,35.00 1033.46,35.00 1034.27,35.00 1035.09,35.00 1035.91,35.00 1036.71,35.00 1037.53,35.00 1038.35,35.00 1039.17,35.00 1039.99,35.00 1040.80,35.00 1041.61,35.00 1042.42,35.00 1043.26,35.00 1044.07,35.00 1044.88,35.00 1045.70,35.00 1046.56,35.00 1047.37,35.00 1048.19,35.00 1049.02,35.00 1049.84,35.00 1050.66,35.00 1051.48,35.00 1052.30,35.00 1053.12,35.00 1053.93,35.00 1054.74,35.00 1055.56,35.00 1056.38,35.00 1057.20,35.00 1058.02,35.00 1058.83,35.00 1059.64,35.00 1060.46,35.00 1061.27,35.00 1062.10,35.00 1062.92,35.00 1063.78,35.00 1064.59,35.00 1065.40,35.00 1066.21,35.00 1067.02,35.00 1067.86,35.00 1068.67,35.00 1069.49,35.00 1070.31,35.00 1071.13,35.00 1071.95,35.00 1072.77,35.00 1073.59,35.00 1074.41,35.00 1075.22,35.00 1076.04,35.00 1076.86,35.00 1077.68,35.00 1078.49,35.00 1079.30,35.00 1080.12,35.00 1080.94,35.00 1081.75,35.00 1082.57,35.00 1083.39,35.00 1084.20,35.00 1085.02,35.00 1085.84,35.00 1086.66,35.00 1087.48,35.00 1088.29,35.00 1089.11,35.00 1089.92,35.00 1090.75,35.00 1091.56,35.00 1092.38,35.00 1093.20,35.00 1094.01,35.00 1094.82,35.00 1095.64,35.00 1096.46,35.00 1097.27,35.00 1098.11,35.00 1098.93,35.00 1099.74,35.00 1100.56,35.00 1101.39,35.00 1102.21,35.00 1103.04,35.00 1103.86,35.00 1104.73,35.00 1105.55,35.00 1106.43,35.00 1107.25,35.00 1108.06,35.00 1108.87,35.00 1109.69,35.00 1110.51,35.00 1111.33,35.00 1112.14,35.00 1112.96,35.00 1113.78,35.00 1114.60,35.00 1115.41,35.00 1116.23,35.00 1117.04,35.00 1117.86,35.00 1118.68,35.00 1119.49,35.00 1120.30,35.00 1121.13,35.00 1121.94,35.00 1122.77,35.00 1123.58,35.00 1124.39,35.00 1125.21,35.00 1126.02,35.00 1126.85,35.00 1127.67,35.00 1128.48,35.00 1129.31,35.00 1130.12,35.00 1130.93,35.00 1131.75,35.00 1132.57,35.00 1133.38,35.00 1134.19,35.00 1135.01,35.00 1135.81,35.00 1136.63,35.00 1137.45,35.00 1138.26,35.00 1139.08,35.00 1139.91,35.00 1140.75,35.00 1141.58,35.00 1142.39,35.00 1143.20,35.00 1144.02,35.00 1144.82,35.00 1145.64,35.00 1146.46,35.00 1147.27,35.00 1148.08,35.00 1148.90,35.00 1149.71,35.00 1150.52,35.00 1151.33,35.00 1152.15,35.00 1152.96,35.00 1153.78,35.00 1154.61,35.00 1155.42,35.00 1156.23,35.00 1157.06,35.00 1157.87,35.00 1158.69,35.00 1159.51,35.00 1160.32,35.00 1161.14,35.00 1161.97,35.00 1162.78,35.00 1163.61,35.00 1164.42,35.00 1165.23,35.00 1166.05,35.00 1166.87,35.00 1167.69,35.00 1168.53,35.00 1169.35,35.00 1170.17,35.00 1171.00,35.00 1171.81,35.00 1172.63,35.00 1173.44,35.00 1174.26,35.00 1175.09,35.00 1175.90,35.00 1176.71,35.00 1177.53,35.00 1178.36,35.00 1179.18,35.00 1180.00,35.00"/>
<polyline fill="none" stroke="#2ca02c" stroke-opacity="0.50" stroke-width="2" points="70.00,35.00 70.81,35.00 71.63,35.00 72.44,35.00 73.26,35.00 74.08,35.00 74.89,35.00 75.71,35.00 76.59,35.00 77.40,35.00 78.21,35.00 79.02,35.00 79.85,35.00 80.65,35.00 81.46,35.00 82.93,35.00 84.19,35.00 85.01,35.00 85.85,35.00 86.66,35.00 87.47,35.00 88.27,35.00 89.09,35.00 89.90,35.00 90.72,35.00 91.54,35.00 92.37,35.00 93.19,35.00 94.01,35.00 94.86,35.00 95.68,35.00 96.50,35.00 97.33,35.00 98.15,35.00 98.96,35.00 99.80,35.00 100.61,35.00 101.42,35.00 102.25,35.00 103.06,35.00 103.87,35.00 104.67,35.00 105.49,35.00 106.30,35.00 107.11,35.00 107.95,35.00 108.77,35.00 109.57,35.00 110.38,35.00 111.21,35.00 112.02,35.00 112.95,35.00 113.77,35.00 114.58,35.00 115.38,35.00 116.19,35.00 117.00,35.00 117.81,35.00 118.63,35.00 119.44,35.00 120.27,35.00 121.08,35.00 121.89,35.00 122.71,35.00 123.53,35.00 124.34,35.00 125.16,35.00 125.96,35.00 126.77,35.00 127.58,35.00 128.39,35.00 129.20,35.00 130.01,35.00 130.82,35.00 131.64,35.00 132.45,35.00 133.26,35.00 134.08,35.00 134.88,35.00 135.69,35.00 136.53,35.00 137.34,35.00 138.15,35.00 138.97,35.00 139.78,35.00 140.60,35.00 141.41,35.00 142.21,35.00 143.02,35.00 143.84,35.00 144.66,35.00 145.47,35.00 146.29,35.00 147.10,35.00 147.91,35.00 148.72,35.00 149.53,35.00 150.34,35.00 151.16,35.00 151.96,35.00 152.78,35.00 153.60,35.00 154.41,35.00 155.23,35.00 156.05,35.00 156.87,35.00 157.68,35.00 158.49,35.00 159.30,35.00 160.11,35.00 160.94,35.00 161.75,35.00 162.56,35.00 163.37,35.00 164.19,35.00 165.01,35.00 165.83,35.00 166.66,35.00 167.46,35.00 168.28,35.00 169.09,35.00 169.91,35.00 170.72,35.00 171.54,35.00 172.42,35.00 173.23,35.00 174.05,35.00 174.87,35.00 175.67,35.00 176.48,35.00 177.28,35.00 178.09,35.00 178.91,35.00 179.72,35.00 180.53,35.00 181.34,35.00 182.15,35.00 182.96,35.00 183.79,35.00 184.60,35.00 185.41,35.00 186.22,35.00 187.03,35.00 187.84,35.00 188.66,35.00 189.48,35.00 190.29,35.00 191.11,35.00 191.92,35.00 192.73,35.00 193.54,35.00 194.35,35.00 195.16,35.00 195.98,35.00 196.80,35.00 197.61,35.00 198.42,35.00 199.25,35.00 200.06,35.00 200.87,35.00 201.69,35.00 202.50,35.00 203.33,35.00 204.15,35.00 204.96,35.00 205.78,35.00 206.59,35.00 207.39,35.00 208.20,35.00 209.02,35.00 209.83,35.00 210.63,35.00 211.44,35.00 212.26,35.00 213.08,35.00 213.90,35.00 214.71,35.00 215.54,35.00 216.35,35.00 217.16,35.00 217.97,35.00 218.78,35.00 219.67,35.00 220.50,35.00 221.31,35.00 222.11,35.00 222.92,35.00 223.73,35.00 224.55,35.00 225.36,35.00 226.18,35.00 226.99,35.00 227.80,35.00 228.61,35.00 229.45,35.00 230.26,35.00 231.06,35.00 231.88,35.00 232.70,35.00 233.53,35.00 234.36,35.00 235.17,35.00 235.98,35.00 236.80,35.00 237.61,35.00 238.42,35.00 239.24,35.00 240.06,35.00 240.87,35.00 241.68,35.00 242.50,35.00 243.32,35.00 244.13,35.00 244.94,35.00 245.77,35.00 246.58,35.00 247.39,35.00 248.19,35.00 249.00,35.00 249.82,35.00 250.63,35.00 251.44,35.00 252.26,35.00 253.06,35.00 253.87,35.00 254.69,35.00 255.51,35.00 256.32,35.00 257.15,35.00 257.96,35.00 258.78,35.00 259.59,35.00 260.41,35.00 261.22,35.00 262.03,35.00 262.85,35.00 263.68,35.00 264.50,35.00 265.31,35.00 266.13,35.00 266.94,35.00 267.75,35.00 268.56,35.00 269.37,35.00 270.19,35.00 271.00,35.00 271.82,35.00 272.63,35.00 273.45,35.00 274.27,35.00 275.08,35.00 275.90,35.00 276.72,35.00 277.53,35.00 278.34,35.00 279.16,35.00 279.98,35.00 280.80,35.00 281.61,35.00 282.43,35.00 283.33,35.00 284.15,35.00 284.96,35.00 285.78,35.00 286.60,35.00 287.42,35.00 288.23,35.00 289.05,35.00 289.85,35.00 290.69,35.00 291.52,35.00 292.33,35.00 293.14,35.00 293.95,35.00 294.77,35.00 295.58,35.00 296.43,35.00 297.24,35.00 298.05,35.00 298.88,35.00 299.76,35.00 300.57,35.00 301.59,35.00 302.97,35.00 303.80,35.00 304.64,35.00 305.45,35.00 306.24,35.00 307.05,35.00 307.88,35.00 308.70,35.00 309.52,35.00 310.36,35.00 311.21,35.00 312.07,35.00 312.89,35.00 313.70,35.00 314.52,35.00 315.34,35.00 316.16,35.00 316.99,35.00 317.80,35.00 318.61,35.00 319.46,35.00 320.28,35.00 321.08,35.00 321.90,35.00 322.72,35.00 323.57,35.00 324.39,35.00 325.20,35.00 326.04,35.00 326.82,35.00 327.63,35.00 328.46,35.00 329.27,35.00 330.10,35.00 330.93,35.00 331.75,35.00 332.56,35.00 333.39,35.00 334.21,35.00 335.03,35.00 335.84,35.00 336.64,35.00 337.46,35.00 338.28,35.00 339.09,35.00 340.06,35.00 341.02,35.00 341.98,35.00 342.93,35.00 343.86,35.00 344.79,35.00 345.76,35.00 346.71,35.00 347.52,35.00 348.33,35.00 349.14,35.00 349.95,35.00 350.77,35.00 351.57,35.00 352.38,35.00 353.19,35.00 354.01,35.00 354.82,35.00 355.63,35.00 356.44,35.00 357.25,35.00 358.06,35.00 358.87,35.00 359.68,35.00 360.50,35.00 361.30,35.00 362.12,35.00 362.94,35.00 363.74,35.00 364.55,35.00 365.36,35.00 366.17,35.00 366.98,35.00 367.80,35.00 368.61,35.00 369.42,35.00 370.24,35.00 371.05,35.00 371.86,35.00 372.67,35.00 373.48,35.00 374.29,35.00 375.09,35.00 375.89,35.00 376.71,35.00 377.52,35.00 378.32,35.00 379.13,35.00 379.94,35.00 380.75,35.00 381.56,35.00 382.36,35.00 383.16,35.00 384.00,35.00 384.88,35.00 385.69,35.00 386.51,35.00 387.32,35.00 388.13,35.00 388.93,35.00 389.74,35.00 390.55,35.00 391.51,35.00 392.46,35.00 393.41,35.00 394.36,35.00 395.32,35.00 396.27,35.00 397.24,35.00 398.22,35.00 399.11,35.00 399.98,35.00 400.80,35.00 401.62,35.00 402.44,35.00 403.24,35.00 404.05,35.00 404.86,35.00 405.67,35.00 406.49,35.00 407.29,35.00 408.11,35.00 408.92,35.00 409.73,35.00 410.56,35.00 411.37,35.00 412.17,35.00 412.89,35.00 413.73,35.00 414.54,35.00 415.37,35.00 416.18,35.00 416.99,35.00 417.81,35.00 418.63,35.00 419.45,35.00 420.27,35.00 421.09,35.00 421.92,35.00 422.72,35.00 423.53,35.00 424.34,35.00 425.15,35.00 425.96,35.00 426.76,35.00 427.59,35.00 428.39,35.00 429.21,35.00 430.02,35.00 430.83,35.00 431.65,35.00 432.46,35.00 433.28,35.00 434.10,35.00 434.91,35.00 435.72,35.00 436.54,35.00 437.35,35.00 438.19,35.00 439.00,35.00 439.81,35.00 440.62,35.00 441.42,35.00 442.23,35.00 443.06,35.00 443.87,35.00 444.67,35.00 445.49,35.00 446.29,35.00 447.11,35.00 447.92,35.00 448.74,35.00 449.56,35.00 450.54,35.00 451.37,35.00 452.21,35.00 453.03,35.00 453.84,35.00 454.66,35.00 455.47,35.00 456.28,35.00 457.10,35.00 457.92,35.00 458.73,35.00 459.55,35.00 460.36,35.00 461.18,35.00 462.02,35.00 462.84,35.00 463.66,35.00 464.47,35.00 465.29,35.00 466.10,35.00 466.91,35.00 467.72,35.00 468.57,35.00 469.39,35.00 470.21,35.00 471.02,35.00 471.83,35.00 472.65,35.00 473.46,35.00 474.28,35.00 475.09,35.00 475.91,35.00 476.73,35.00 477.54,35.00 478.35,35.00 479.17,35.00 479.98,35.00 480.81,35.00 481.62,35.00 482.43,35.00 483.24,35.00 484.06,35.00 484.88,35.00 485.70,35.00 486.68,35.00 487.52,35.00 488.33,35.00 489.14,35.00 489.95,35.00 490.77,35.00 491.59,35.00 492.40,35.00 493.23,35.00 494.04,35.00 494.85,35.00 495.66,35.00 496.48,35.00 497.29,35.00 498.10,35.00 498.92,35.00 499.73,35.00 500.54,35.00 501.35,35.00 502.16,35.00 502.99,35.00 503.80,35.00 504.61,35.00 505.43,35.00 506.26,35.00 507.06,35.00 507.88,35.00 508.69,35.00 509.53,35.00 510.34,35.00 511.15,35.00 511.97,35.00 512.79,35.00 513.60,35.00 514.42,35.00 515.23,35.00 516.07,35.00 516.88,35.00 517.69,35.00 518.50,35.00 519.31,35.00 520.12,35.00 520.94,35.00 521.75,35.00 522.57,35.00 523.40,35.00 524.22,35.00 525.01,35.00 525.84,35.00 526.64,35.00 527.46,35.00 528.27,35.00 529.09,35.00 529.90,35.00 530.72,35.00 531.54,35.00 532.35,35.00 533.17,35.00 533.99,35.00 534.81,35.00 535.62,35.00 536.45,35.00 537.36,35.00 538.25,35.00 539.13,35.00 539.95,35.00 540.80,35.00 541.62,35.00 542.43,35.00 543.24,35.00 544.00,35.00 544.85,35.00 545.66,35.00 546.49,35.00 547.29,35.00 548.11,35.00 548.92,35.00 549.74,35.00 550.55,35.00 551.36,35.00 552.18,35.00 552.99,35.00 553.81,35.00 554.63,35.00 555.45,35.00 556.27,35.00 557.09,35.00 557.91,35.00 558.72,35.00 559.56,35.00 560.37,35.00 561.18,35.00 561.99,35.00 562.81,35.00 563.62,35.00 564.43,35.00 565.25,35.00 566.06,35.00 566.89,35.00 567.70,35.00 568.51,35.00 569.33,35.00 570.14,35.00 570.96,35.00 571.78,35.00 572.59,35.00 573.41,35.00 574.23,35.00 575.05,35.00 575.87,35.00 576.69,35.00 577.51,35.00 578.32,35.00 579.14,35.00 579.95,35.00 580.78,35.00 581.62,35.00 582.43,35.00 583.25,35.00 584.07,35.00 584.88,35.00 585.70,35.00 586.51,35.00 587.33,35.00 588.15,35.00 588.96,35.00 589.78,35.00 590.60,35.00 591.42,35.00 592.24,35.00 593.06,35.00 593.88,35.00 594.70,35.00 595.52,35.00 596.35,35.00 597.16,35.00 597.98,35.00 598.79,35.00 599.61,35.00 600.45,35.00 601.27,35.00 602.09,35.00 602.91,35.00 603.72,35.00 604.53,35.00 605.35,35.00 606.17,35.00 606.99,35.00 607.80,35.00 608.61,35.00 609.43,35.00 610.25,35.00 611.07,35.00 611.89,35.00 612.70,35.00 613.53,35.00 614.34,35.00 615.16,35.00 615.98,35.00 616.79,35.00 617.60,35.00 618.41,35.00 619.23,35.00 620.05,35.00 620.87,35.00 621.69,35.00 622.51,35.00 623.32,35.00 624.15,35.00 624.97,35.00 625.79,35.00 626.61,35.00 627.43,35.00 628.25,35.00 629.06,35.00 629.88,35.00 630.71,35.00 631.53,35.00 632.35,35.00 633.18,35.00 634.00,35.00 634.83,35.00 635.64,35.00 636.46,35.00 637.28,35.00 638.10,35.00 638.92,35.00 639.74,35.00 640.56,35.00 641.38,35.00 642.18,35.00 643.02,35.00 643.84,35.00 644.66,35.00 645.48,35.00 646.29,35.00 647.10,35.00 647.91,35.00 648.72,35.00 649.55,35.00 650.36,35.00 651.18,35.00 651.99,35.00 652.81,35.00 653.63,35.00 654.47,35.00 655.29,35.00 656.10,35.00 656.92,35.00 657.73,35.00 658.55,35.00 659.37,35.00 660.19,35.00 661.00,35.00 661.82,35.00 662.64,35.00 663.46,35.00 664.28,35.00 665.10,35.00 665.92,35.00 666.76,35.00 667.59,35.00 668.41,35.00 669.23,35.00 670.05,35.00 670.87,35.00 671.68,35.00 672.50,35.00 673.31,35.00 674.13,35.00 674.95,35.00 675.78,35.00 676.59,35.00 677.42,35.00 678.27,35.00 679.09,35.00 679.90,35.00 680.72,35.00 681.54,35.00 682.36,35.00 683.18,35.00 684.01,35.00 684.83,35.00 685.66,35.00 686.48,35.00 687.30,35.00 688.12,35.00 688.94,35.00 689.75,35.00 690.57,35.00 691.39,35.00 692.21,35.00 693.04,35.00 693.85,35.00 694.67,35.00 695.49,35.00 696.32,35.00 697.13,35.00 697.95,35.00 698.78,35.00 699.62,35.00 700.44,35.00 701.27,35.00 702.08,35.00 702.92,35.00 703.76,35.00 704.59,35.00 705.42,35.00 706.27,35.00 707.09,35.00 707.91,35.00 708.72,35.00 709.55,35.00 710.37,35.00 711.19,35.00 712.03,35.00 712.85,35.00 713.67,35.00 714.48,35.00 715.30,35.00 716.12,35.00 716.94,35.00 717.75,35.00 718.57,35.00 719.38,35.00 720.20,35.00 721.02,35.00 721.82,35.00 722.64,35.00 723.46,35.00 724.29,35.00 725.10,35.00 725.93,35.00 726.75,35.00 727.56,35.00 728.38,35.00 729.20,35.00 730.02,35.00 730.84,35.00 731.65,35.00 732.47,35.00 733.29,35.00 734.10,35.00 734.91,35.00 735.73,35.00 736.54,35.00 737.36,35.00 738.18,35.00 739.00,35.00 739.82,35.00 740.63,35.00 741.45,35.00 742.27,35.00 743.09,35.00 743.89,35.00 744.70,35.00 745.50,35.00 746.32,35.00 747.14,35.00 747.98,35.00 748.79,35.00 749.61,35.00 750.43,35.00 751.26,35.00 752.08,35.00 752.89,35.00 753.72,35.00 754.54,35.00 755.35,35.00 756.18,35.00 757.00,35.00 757.83,35.00 758.65,35.00 759.47,35.00 760.28,35.00 761.09,35.00 761.91,35.00 762.72,35.00 763.54,35.00 764.35,35.00 765.17,35.00 765.98,35.00 766.81,35.00 767.62,35.00 768.43,35.00 769.25,35.00 770.07,35.00 770.89,35.00 771.71,35.00 772.53,35.00 773.35,35.00 774.16,35.00 774.99,35.00 775.80,35.00 776.62,35.00 777.44,35.00 778.25,35.00 779.07,35.00 779.89,35.00 780.71,35.00 781.53,35.00 782.34,35.00 783.16,35.00 784.00,35.00 784.82,35.00 785.65,35.00 786.48,35.00 787.30,35.00 788.12,35.00 788.94,35.00 789.76,35.00 790.58,35.00 791.39,35.00 792.22,35.00 793.06,35.00 793.88,35.00 794.69,35.00 795.51,35.00 796.33,35.00 797.15,35.00 797.97,35.00 798.78,35.00 799.60,35.00 800.42,35.00 801.24,35.00 802.05,35.00 802.87,35.00 803.69,35.00 804.50,35.00 805.31,35.00 806.13,35.00 806.95,35.00 807.76,35.00 808.60,35.00 809.41,35.00 810.22,35.00 811.04,35.00 811.86,35.00 812.67,35.00 813.50,35.00 814.31,35.00 815.14,35.00 815.96,35.00 816.77,35.00 817.58,35.00 818.40,35.00 819.22,35.00 820.03,35.00 820.86,35.00 821.70,35.00 822.53,35.00 823.37,35.00 824.20,35.00 825.03,35.00 825.87,35.00 826.70,35.00 827.55,35.00 828.39,35.00 829.23,35.00 830.04,35.00 830.86,35.00 831.68,35.00 832.51,35.00 833.32,35.00 834.15,35.00 834.97,35.00 835.79,35.00 836.61,35.00 837.43,35.00 838.24,35.00 839.05,35.00 839.87,35.00 840.69,35.00 841.50,35.00 842.32,35.00 843.14,35.00 843.96,35.00 844.79,35.00 845.61,35.00 846.43,35.00 847.24,35.00 848.06,35.00 848.88,35.00 849.70,35.00 850.52,35.00 851.34,35.00 852.15,35.00 852.98,35.00 853.79,35.00 854.61,35.00 855.43,35.00 856.24,35.00 857.07,35.00 857.94,35.00 858.79,35.00 859.60,35.00 860.42,35.00 861.23,35.00 862.06,35.00 862.89,35.00 863.71,35.00 864.53,35.00 865.34,35.00 866.15,35.00 866.96,35.00 867.78,35.00 868.60,35.00 869.42,35.00 870.24,35.00 871.06,35.00 871.88,35.00 872.71,35.00 873.52,35.00 874.34,35.00 875.15,35.00 875.97,35.00 876.79,35.00 877.61,35.00 878.42,35.00 879.25,35.00 880.07,35.00 880.89,35.00 881.74,35.00 882.56,35.00 883.38,35.00 884.19,35.00 885.01,35.00 885.83,35.00 886.66,35.00 887.48,35.00 888.29,35.00 889.11,35.00 889.94,35.00 890.77,35.00 891.59,35.00 892.41,35.00 893.23,35.00 894.04,35.00 894.87,35.00 895.68,35.00 896.50,35.00 897.31,35.00 898.15,35.00 898.96,35.00 899.78,35.00 900.60,35.00 901.41,35.00 902.23,35.00 903.05,35.00 903.86,35.00 904.68,35.00 905.50,35.00 906.32,35.00 907.14,35.00 907.96,35.00 908.77,35.00 909.60,35.00 910.42,35.00 911.23,35.00 912.05,35.00 912.86,35.00 913.67,35.00 914.49,35.00 915.32,35.00 916.13,35.00 916.97,35.00 917.79,35.00 918.61,35.00 919.43,35.00 920.25,35.00 921.08,35.00 921.96,35.00 922.79,35.00 923.62,35.00 924.45,35.00 925.27,35.00 926.09,35.00 926.91,35.00 927.73,35.00 928.55,35.00 929.36,35.00 930.19,35.00 931.01,35.00 931.83,35.00 932.66,35.00 933.48,35.00 934.31,35.00 935.12,35.00 935.94,35.00 936.76,35.00 937.59,35.00 938.40,35.00 939.22,35.00 940.05,35.00 940.86,35.00 941.69,35.00 942.51,35.00 943.33,35.00 944.15,35.00 944.98,35.00 945.80,35.00 946.63,35.00 947.44,35.00 948.26,35.00 949.08,35.00 949.89,35.00 950.71,35.00 951.53,35.00 952.35,35.00 953.17,35.00 953.99,35.00 954.80,35.00 955.62,35.00 956.45,35.00 957.27,35.00 958.08,35.00 958.90,35.00 959.72,35.00 960.55,35.00 961.38,35.00 962.17,35.00 962.97,35.00 963.79,35.00 964.61,35.00 965.43,35.00 966.25,35.00 967.08,35.00 967.90,35.00 968.73,35.00 969.55,35.00 970.37,35.00 971.19,35.00 972.00,35.00 972.82,35.00 973.62,35.00 974.44,35.00 975.26,35.00 976.08,35.00 976.89,35.00 977.71,35.00 978.52,35.00 979.34,35.00 980.16,35.00 980.98,35.00 981.79,35.00 982.61,35.00 983.40,35.00 984.24,35.00 985.05,35.00 985.87,35.00 986.70,35.00 987.53,35.00 988.34,35.00 989.15,35.00 989.98,35.00 990.80,35.00 991.61,35.00 992.43,35.00 993.31,35.00 994.13,35.00 994.96,35.00 995.78,35.00 996.61,35.00 997.41,35.00 998.23,35.00 999.06,35.00 999.87,35.00 1000.69,35.00 1001.50,35.00 1002.32,35.00 1003.15,35.00 1003.97,35.00 1004.79,35.00 1005.61,35.00 1006.42,35.00 1007.25,35.00 1008.06,35.00 1008.89,35.00 1009.71,35.00 1010.54,35.00 1011.38,35.00 1012.20,35.00 1013.02,35.00 1013.84,35.00 1014.66,35.00 1015.49,35.00 1016.31,35.00 1017.12,35.00 1017.94,35.00 1018.76,35.00 1019.57,35.00 1020.40,35.00 1021.22,35.00 1022.04,35.00 1022.86,35.00 1023.68,35.00 1024.49,35.00 1025.30,35.00 1026.12,35.00 1026.94,35.00 1027.75,35.00 1028.57,35.00 1029.39,35.00 1030.20,35.00 1031.01,35.00 1031.83,35.00 1032.65,35.00 1033.46,35.00 1034.27,35.00 1035.09,35.00 1035.91,35.00 1036.71,35.00 1037.53,35.00 1038.35,35.00 1039.17,35.00 1039.99,35.00 1040.80,35.00 1041.61,35.00 1042.42,35.00 1043.26,35.00 1044.07,35.00 1044.88,35.00 1045.70,35.00 1046.56,35.00 1047.37,35.00 1048.19,35.00 1049.02,35.00 1049.84,35.00 1050.66,35.00 1051.48,35.00 1052.30,35.00 1053.12,35.00 1053.93,35.00 1054.74,35.00 1055.56,35.00 1056.38,35.00 1057.20,35.00 1058.02,35.00 1058.83,35.00 1059.64,35.00 1060.46,35.00 1061.27,35.00 1062.10,35.00 1062.92,35.00 1063.78,35.00 1064.59,35.00 1065.40,35.00 1066.21,35.00 1067.02,35.00 1067.86,35.00 1068.67,35.00 1069.49,35.00 1070.31,35.00 1071.13,35.00 1071.95,35.00 1072.77,35.00 1073.59,35.00 1074.41,35.00 1075.22,35.00 1076.04,35.00 1076.86,35.00 1077.68,35.00 1078.49,35.00 1079.30,35.00 1080.12,35.00 1080.94,35.00 1081.75,35.00 1082.57,35.00 1083.39,35.00 1084.20,35.00 1085.02,35.00 1085.84,35.00 1086.66,35.00 1087.48,35.00 1088.29,35.00 1089.11,35.00 1089.92,35.00 1090.75,35.00 1091.56,35.00 1092.38,35.00 1093.20,35.00 1094.01,35.00 1094.82,35.00 1095.64,35.00 1096.46,35.00 1097.27,35.00 1098.11,35.00 1098.93,35.00 1099.74,35.00 1100.56,35.00 1101.39,35.00 1102.21,35.00 1103.04,35.00 1103.86,35.00 1104.73,35.00 1105.55,35.00 1106.43,35.00 1107.25,35.00 1108.06,35.00 1108.87,35.00 1109.69,35.00 1110.51,35.00 1111.33,35.00 1112.14,35.00 1112.96,35.00 1113.78,35.00 1114.60,35.00 1115.41,35.00 1116.23,35.00 1117.04,35.00 1117.86,35.00 1118.68,35.00 1119.49,35.00 1120.30,35.00 1121.13,35.00 1121.94,35.00 1122.77,35.00 1123.58,35.00 1124.39,35.00 1125.21,35.00 1126.02,35.00 1126.85,35.00 1127.67,35.00 1128.48,35.00 1129.31,35.00 1130.12,35.00 1130.93,35.00 1131.75,35.00 1132.57,35.00 1133.38,35.00 1134.19,35.00 1135.01,35.00 1135.81,35.00 1136.63,35.00 1137.45,35.00 1138.26,35.00 1139.08,35.00 1139.91,35.00 1140.75,35.00 1141.58,35.00 1142.39,35.00 1143.20,35.00 1144.02,35.00 1144.82,35.00 1145.64,35.00 1146.46,35.00 1147.27,35.00 1148.08,35.00 1148.90,35.00 1149.71,35.00 1150.52,35.00 1151.33,35.00 1152.15,35.00 1152.96,35.00 1153.78,35.00 1154.61,35.00 1155.42,35.00 1156.23,35.00 1157.06,35.00 1157.87,35.00 1158.69,35.00 1159.51,35.00 1160.32,35.00 1161.14,35.00 1161.97,35.00 1162.78,35.00 1163.61,35.00 1164.42,35.00 1165.23,35.00 1166.05,35.00 1166.87,35.00 1167.69,35.00 1168.53,35.00 1169.35,35.00 1170.17,35.00 1171.00,35.00 1171.81,35.00 1172.63,35.00 1173.44,35.00 1174.26,35.00 1175.09,35.00 1175.90,35.00 1176.71,35.00 1177.53,35.00 1178.36,35.00 1179.18,35.00 1180.00,35.00"/>
<rect x="70" y="332" width="12" height="12" fill="#2ca02c" fill-opacity="0.95"/>
<text x="88" y="342" font-size="11" fill="#333" font-family="Arial, Helvetica, sans-serif">nsc1.utdallas.edu</text>
<rect x="350" y="332" width="12" height="12" fill="#2ca02c" fill-opacity="0.80"/>
<text x="368" y="342" font-size="11" fill="#333" font-family="Arial, Helvetica, sans-serif">nsc2.utdallas.edu</text>
<rect x="630" y="332" width="12" height="12" fill="#2ca02c" fill-opacity="0.65"/>
<text x="648" y="342" font-size="11" fill="#333" font-family="Arial, Helvetica, sans-serif">nsc3.utdallas.edu</text>
<rect x="910" y="332" width="12" height="12" fill="#2ca02c" fill-opacity="0.50"/>
<text x="928" y="342" font-size="11" fill="#333" font-family="Arial, Helvetica, sans-serif">nsc4.utdallas.edu</text>
</svg>