<?xml version="1.0" encoding="UTF-8"?>
<svg xmlns="http://www.w3.org/2000/svg" width="1200" height="360" viewBox="0 0 1200 360" role="img" aria-label="Mumax3 Health (%)">
<rect width="100%" height="100%" fill="#ffffff"/>
<text x="600.0" y="22" text-anchor="middle" font-size="16" font-family="Arial, Helvetica, sans-serif" font-weight="bold">Mumax3 Health (%)</text>
<line x1="70" y1="35.00" x2="1180" y2="35.00" stroke="#e3e3e3" stroke-width="1"/>
<text x="62" y="39.00" text-anchor="end" font-size="11" fill="#444" font-family="Arial, Helvetica, sans-serif">100</text>
<line x1="70" y1="89.00" x2="1180" y2="89.00" stroke="#e3e3e3" stroke-width="1"/>
<text x="62" y="93.00" text-anchor="end" font-size="11" fill="#444" font-family="Arial, Helvetica, sans-serif">80</text>
<line x1="70" y1="143.00" x2="1180" y2="143.00" stroke="#e3e3e3" stroke-width="1"/>
<text x="62" y="147.00" text-anchor="end" font-size="11" fill="#444" font-family="Arial, Helvetica, sans-serif">60</text>
<line x1="70" y1="197.00" x2="1180" y2="197.00" stroke="#e3e3e3" stroke-width="1"/>
<text x="62" y="201.00" text-anchor="end" font-size="11" fill="#444" font-family="Arial, Helvetica, sans-serif">40</text>
<line x1="70" y1="251.00" x2="1180" y2="251.00" stroke="#e3e3e3" stroke-width="1"/>
<text x="62" y="255.00" text-anchor="end" font-size="11" fill="#444" font-family="Arial, Helvetica, sans-serif">20</text>
<line x1="70" y1="305.00" x2="1180" y2="305.00" stroke="#e3e3e3" stroke-width="1"/>
<text x="62" y="309.00" text-anchor="end" font-size="11" fill="#444" font-family="Arial, Helvetica, sans-serif">0</text>
<line x1="70" y1="35" x2="70" y2="305" stroke="#999"/>
<line x1="70" y1="305" x2="1180" y2="305" stroke="#999"/>
<text x="70.00" y="323" text-anchor="middle" font-size="10" fill="#444" font-family="Arial, Helvetica, sans-serif">2026-02-11 16:38</text>
<text x="347.50" y="323" text-anchor="middle" font-size="10" fill="#444" font-family="Arial, Helvetica, sans-serif">2026-02-11 17:47</text>
<text x="625.00" y="323" text-anchor="middle" font-size="10" fill="#444" font-family="Arial, Helvetica, sans-serif">2026-02-11 18:56</text>
<text x="902.50" y="323" text-anchor="middle" font-size="10" fill="#444" font-family="Arial, Helvetica, sans-serif">2026-02-11 20:06</text>
<text x="1180.00" y="323" text-anchor="middle" font-size="10" fill="#444" font-family="Arial, Helvetica, sans-serif">2026-02-11 21:15</text>
<polyline fill="none" stroke="#2ca02c" stroke-opacity="0.95" stroke-width="2" points="91.52,35.00 113.10,35.00 134.55,35.00 156.13,35.00 177.85,35.00 199.17,35.00 220.75,35.00 244.06,35.00 265.45,35.00 286.83,35.00 308.21,35.00 330.06,35.00 351.45,35.00 372.83,35.00 411.53,35.00 444.91,35.00 466.62,35.00 488.67,35.00 510.12,35.00 531.57,35.00 552.62,35.00 574.34,35.00 595.79,35.00 617.44,35.00 639.09,35.00 661.01,35.00 682.59,35.00 704.17,35.00 726.75,35.00 748.47,35.00 769.92,35.00 791.97,35.00 813.49,35.00 835.00,35.00 857.19,35.00 878.50,35.00 900.02,35.00 921.93,35.00 943.18,35.00 964.70,35.00 985.95,35.00 1007.40,35.00 1028.98,35.00 1050.37,35.00 1072.35,35.00 1094.07,35.00 1115.32,35.00 1136.77,35.00 1158.48,35.00 1180.00,35.00"/>
<polyline fill="none" stroke="#2ca02c" stroke-opacity="0.80" stroke-width="2" points="70.00,35.00 91.52,35.00 113.10,35.00 134.55,35.00 156.13,35.00 177.85,35.00 199.17,35.00 220.75,35.00 244.06,35.00 265.45,35.00 286.83,35.00 308.21,35.00 330.06,35.00 351.45,35.00 372.83,35.00 411.53,35.00 444.91,35.00 466.62,35.00 488.67,35.00 510.12,35.00 531.57,35.00 552.62,35.00 574.34,35.00 595.79,35.00 617.44,35.00 639.09,35.00 661.01,35.00 682.59,35.00 704.17,35.00 726.75,35.00 748.47,35.00 769.92,35.00 791.97,35.00 813.49,35.00 835.00,35.00 857.19,35.00 878.50,35.00 900.02,35.00 921.93,35.00 943.18,35.00 964.70,35.00 985.95,35.00 1007.40,35.00 1028.98,35.00 1050.37,35.00 1072.35,35.00 1094.07,35.00 1115.32,35.00 1136.77,35.00 1158.48,35.00 1180.00,35.00"/>
<polyline fill="none" stroke="#2ca02c" stroke-opacity="0.65" stroke-width="2" points="70.00,305.00 91.52,305.00 113.10,305.00 134.55,305.00 156.13,305.00 177.85,305.00 199.17,305.00 220.75,305.00 244.06,305.00 265.45,305.00 286.83,305.00 308.21,305.00 330.06,305.00 351.45,305.00 372.83,305.00 411.53,305.00 444.91,305.00 466.62,305.00 488.67,305.00 510.12,305.00 531.57,305.00 552.62,305.00 574.34,305.00 595.79,305.00 617.44,305.00 639.09,305.00 661.01,305.00 682.59,305.00 704.17,305.00 726.75,305.00 748.47,305.00 769.92,305.00 791.97,305.00 813.49,305.00 835.00,305.00 857.19,305.00 878.50,305.00 900.02,305.00 921.93,305.00 943.18,305.00 964.70,305.00 985.95,305.00 1007.40,305.00 1028.98,305.00 1050.37,305.00 1072.35,305.00 1094.07,305.00 1115.32,305.00 1136.77,305.00 1158.48,305.00 1180.00,305.00"/>
<polyline fill="none" stroke="#2ca02c" stroke-opacity="0.50" stroke-width="2" points="70.00,35.00 91.52,35.00 113.10,35.00 134.55,35.00 156.13,35.00 177.85,35.00 199.17,35.00 220.75,35.00 244.06,35.00 265.45,35.00 286.83,35.00 308.21,35.00 330.06,35.00 351.45,35.00 372.83,35.00 411.53,35.00 444.91,35.00 466.62,35.00 488.67,35.00 510.12,35.00 531.57,35.00 552.62,35.00 574.34,35.00 595.79,35.00 617.44,35.00 639.09,35.00 661.01,35.00 682.59,35.00 704.17,35.00 726.75,35.00 748.47,35.00 769.92,35.00 791.97,35.00 813.49,35.00 835.00,35.00 857.19,35.00 878.50,35.00 900.02,35.00 921.93,35.00 943.18,35.00 964.70,35.00 985.95,35.00 1007.40,35.00 1028.98,35.00 1050.37,35.00 1072.35,35.00 1094.07,35.00 1115.32,35.00 1136.77,35.00 1158.48,35.00 1180.00,35.00"/>
<rect x="70" y="332" width="12" height="12" fill="#2ca02c" fill-opacity="0.95"/>
<text x="88" y="342" font-size="11" fill="#333" font-family="Arial, Helvetica, sans-serif">nsc1.utdallas.edu</text>
<rect x="350" y="332" width="12" height="12" fill="#2ca02c" fill-opacity="0.80"/>
<text x="368" y="342" font-size="11" fill="#333" font-family="Arial, Helvetica, sans-serif">nsc2.utdallas.edu</text>
<rect x="630" y="332" width="12" height="12" fill="#2ca02c" fill-opacity="0.65"/>
<text x="648" y="342" font-size="11" fill="#333" font-family="Arial, Helvetica, sans-serif">nsc3.utdallas.edu</text>
<rect x="910" y="332" width="12" height="12" fill="#2ca02c" fill-opacity="0.50"/>
<text x="928" y="342" font-size="11" fill="#333" font-family="Arial, Helvetica, sans-serif">nsc4.utdallas.edu</text>
</svg>