<?xml version="1.0" encoding="UTF-8"?>
<svg xmlns="http://www.w3.org/2000/svg" width="1200" height="360" viewBox="0 0 1200 360" role="img" aria-label="Mumax3 Health (%)">
<rect width="100%" height="100%" fill="#ffffff"/>
<text x="600.0" y="22" text-anchor="middle" font-size="16" font-family="Arial, Helvetica, sans-serif" font-weight="bold">Mumax3 Health (%)</text>
<line x1="70" y1="35.00" x2="1180" y2="35.00" stroke="#e3e3e3" stroke-width="1"/>
<text x="62" y="39.00" text-anchor="end" font-size="11" fill="#444" font-family="Arial, Helvetica, sans-serif">100</text>
<line x1="70" y1="89.00" x2="1180" y2="89.00" stroke="#e3e3e3" stroke-width="1"/>
<text x="62" y="93.00" text-anchor="end" font-size="11" fill="#444" font-family="Arial, Helvetica, sans-serif">80</text>
<line x1="70" y1="143.00" x2="1180" y2="143.00" stroke="#e3e3e3" stroke-width="1"/>
<text x="62" y="147.00" text-anchor="end" font-size="11" fill="#444" font-family="Arial, Helvetica, sans-serif">60</text>
<line x1="70" y1="197.00" x2="1180" y2="197.00" stroke="#e3e3e3" stroke-width="1"/>
<text x="62" y="201.00" text-anchor="end" font-size="11" fill="#444" font-family="Arial, Helvetica, sans-serif">40</text>
<line x1="70" y1="251.00" x2="1180" y2="251.00" stroke="#e3e3e3" stroke-width="1"/>
<text x="62" y="255.00" text-anchor="end" font-size="11" fill="#444" font-family="Arial, Helvetica, sans-serif">20</text>
<line x1="70" y1="305.00" x2="1180" y2="305.00" stroke="#e3e3e3" stroke-width="1"/>
<text x="62" y="309.00" text-anchor="end" font-size="11" fill="#444" font-family="Arial, Helvetica, sans-serif">0</text>
<line x1="70" y1="35" x2="70" y2="305" stroke="#999"/>
<line x1="70" y1="305" x2="1180" y2="305" stroke="#999"/>
<text x="70.00" y="323" text-anchor="middle" font-size="10" fill="#444" font-family="Arial, Helvetica, sans-serif">2026-02-11 16:38</text>
<text x="347.50" y="323" text-anchor="middle" font-size="10" fill="#444" font-family="Arial, Helvetica, sans-serif">2026-02-11 18:37</text>
<text x="625.00" y="323" text-anchor="middle" font-size="10" fill="#444" font-family="Arial, Helvetica, sans-serif">2026-02-11 20:36</text>
<text x="902.50" y="323" text-anchor="middle" font-size="10" fill="#444" font-family="Arial, Helvetica, sans-serif">2026-02-11 22:35</text>
<text x="1180.00" y="323" text-anchor="middle" font-size="10" fill="#444" font-family="Arial, Helvetica, sans-serif">2026-02-12 00:35</text>
<polyline fill="none" stroke="#2ca02c" stroke-opacity="0.95" stroke-width="2" points="82.52,35.00 95.08,35.00 107.56,35.00 120.12,35.00 132.76,35.00 145.16,35.00 157.72,35.00 171.29,35.00 183.73,35.00 196.17,35.00 208.61,35.00 221.33,35.00 233.77,35.00 246.21,35.00 268.73,35.00 288.15,35.00 300.79,35.00 313.62,35.00 326.10,35.00 338.58,35.00 350.83,35.00 363.47,35.00 375.95,35.00 388.55,35.00 401.15,35.00 413.90,35.00 426.46,35.00 439.02,35.00 452.16,35.00 464.80,35.00 477.28,35.00 490.11,35.00 502.63,35.00 515.15,35.00 528.06,35.00 540.46,35.00 552.98,35.00 565.73,35.00 578.10,35.00 590.62,35.00 602.98,35.00 615.46,35.00 628.02,35.00 640.47,35.00 653.26,35.00 665.89,35.00 678.26,35.00 690.74,35.00 703.38,35.00 715.90,35.00 730.20,35.00 742.72,35.00 755.20,35.00 767.61,35.00 780.05,35.00 792.45,35.00 804.90,35.00 817.46,35.00 829.94,35.00 842.69,35.00 855.17,35.00 867.54,35.00 880.13,35.00 892.81,35.00 905.29,35.00 917.85,35.00 930.22,35.00 942.62,35.00 955.06,35.00 967.47,35.00 979.95,35.00 992.47,35.00 1004.87,35.00 1017.39,35.00 1029.95,35.00 1042.32,35.00 1054.91,35.00 1067.32,35.00 1079.76,35.00 1092.59,35.00 1105.07,35.00 1117.55,35.00 1130.15,35.00 1142.59,35.00 1155.15,35.00 1167.63,35.00 1180.00,35.00"/>
<polyline fill="none" stroke="#2ca02c" stroke-opacity="0.80" stroke-width="2" points="70.00,35.00 82.52,35.00 95.08,35.00 107.56,35.00 120.12,35.00 132.76,35.00 145.16,35.00 157.72,35.00 171.29,35.00 183.73,35.00 196.17,35.00 208.61,35.00 221.33,35.00 233.77,35.00 246.21,35.00 268.73,35.00 288.15,35.00 300.79,35.00 313.62,35.00 326.10,35.00 338.58,35.00 350.83,35.00 363.47,35.00 375.95,35.00 388.55,35.00 401.15,35.00 413.90,35.00 426.46,35.00 439.02,35.00 452.16,35.00 464.80,35.00 477.28,35.00 490.11,35.00 502.63,35.00 515.15,35.00 528.06,35.00 540.46,35.00 552.98,35.00 565.73,35.00 578.10,35.00 590.62,35.00 602.98,35.00 615.46,35.00 628.02,35.00 640.47,35.00 653.26,35.00 665.89,35.00 678.26,35.00 690.74,35.00 703.38,35.00 715.90,35.00 730.20,35.00 742.72,35.00 755.20,35.00 767.61,35.00 780.05,35.00 792.45,35.00 804.90,35.00 817.46,35.00 829.94,35.00 842.69,35.00 855.17,35.00 867.54,35.00 880.13,35.00 892.81,35.00 905.29,35.00 917.85,35.00 930.22,35.00 942.62,35.00 955.06,35.00 967.47,35.00 979.95,35.00 992.47,35.00 1004.87,35.00 1017.39,35.00 1029.95,35.00 1042.32,35.00 1054.91,35.00 1067.32,35.00 1079.76,35.00 1092.59,35.00 1105.07,35.00 1117.55,35.00 1130.15,35.00 1142.59,35.00 1155.15,35.00 1167.63,35.00 1180.00,35.00"/>
<polyline fill="none" stroke="#2ca02c" stroke-opacity="0.65" stroke-width="2" points="70.00,305.00 82.52,305.00 95.08,305.00 107.56,305.00 120.12,305.00 132.76,305.00 145.16,305.00 157.72,305.00 171.29,305.00 183.73,305.00 196.17,305.00 208.61,305.00 221.33,305.00 233.77,305.00 246.21,305.00 268.73,305.00 288.15,305.00 300.79,305.00 313.62,305.00 326.10,305.00 338.58,305.00 350.83,305.00 363.47,305.00 375.95,305.00 388.55,305.00 401.15,305.00 413.90,305.00 426.46,305.00 439.02,305.00 452.16,305.00 464.80,305.00 477.28,305.00 490.11,305.00 502.63,305.00 515.15,305.00 528.06,305.00 540.46,305.00 552.98,305.00 565.73,305.00 578.10,305.00 590.62,305.00 602.98,305.00 615.46,305.00 628.02,305.00 640.47,305.00 653.26,305.00 665.89,305.00 678.26,305.00 690.74,305.00 703.38,305.00 715.90,305.00 730.20,305.00 742.72,305.00 755.20,305.00 767.61,305.00 780.05,305.00 792.45,305.00 804.90,305.00 817.46,305.00 829.94,305.00 842.69,305.00 855.17,305.00 867.54,305.00 880.13,305.00 892.81,305.00 905.29,305.00 917.85,305.00 930.22,305.00 942.62,305.00 955.06,305.00 967.47,305.00 979.95,305.00 992.47,305.00 1004.87,305.00 1017.39,305.00 1029.95,305.00 1042.32,305.00 1054.91,305.00 1067.32,305.00 1079.76,305.00 1092.59,305.00 1105.07,305.00 1117.55,305.00 1130.15,305.00 1142.59,305.00 1155.15,305.00 1167.63,305.00 1180.00,305.00"/>
<polyline fill="none" stroke="#2ca02c" stroke-opacity="0.50" stroke-width="2" points="70.00,35.00 82.52,35.00 95.08,35.00 107.56,35.00 120.12,35.00 132.76,35.00 145.16,35.00 157.72,35.00 171.29,35.00 183.73,35.00 196.17,35.00 208.61,35.00 221.33,35.00 233.77,35.00 246.21,35.00 268.73,35.00 288.15,35.00 300.79,35.00 313.62,35.00 326.10,35.00 338.58,35.00 350.83,35.00 363.47,35.00 375.95,35.00 388.55,35.00 401.15,35.00 413.90,35.00 426.46,35.00 439.02,35.00 452.16,35.00 464.80,35.00 477.28,35.00 490.11,35.00 502.63,35.00 515.15,35.00 528.06,35.00 540.46,35.00 552.98,35.00 565.73,35.00 578.10,35.00 590.62,35.00 602.98,35.00 615.46,35.00 628.02,35.00 640.47,35.00 653.26,35.00 665.89,35.00 678.26,35.00 690.74,35.00 703.38,35.00 715.90,35.00 730.20,35.00 742.72,35.00 755.20,35.00 767.61,35.00 780.05,35.00 792.45,35.00 804.90,35.00 817.46,35.00 829.94,35.00 842.69,35.00 855.17,35.00 867.54,35.00 880.13,35.00 892.81,35.00 905.29,35.00 917.85,35.00 930.22,35.00 942.62,35.00 955.06,35.00 967.47,35.00 979.95,35.00 992.47,35.00 1004.87,35.00 1017.39,35.00 1029.95,35.00 1042.32,35.00 1054.91,35.00 1067.32,35.00 1079.76,35.00 1092.59,35.00 1105.07,35.00 1117.55,35.00 1130.15,35.00 1142.59,35.00 1155.15,35.00 1167.63,35.00 1180.00,35.00"/>
<rect x="70" y="332" width="12" height="12" fill="#2ca02c" fill-opacity="0.95"/>
<text x="88" y="342" font-size="11" fill="#333" font-family="Arial, Helvetica, sans-serif">nsc1.utdallas.edu</text>
<rect x="350" y="332" width="12" height="12" fill="#2ca02c" fill-opacity="0.80"/>
<text x="368" y="342" font-size="11" fill="#333" font-family="Arial, Helvetica, sans-serif">nsc2.utdallas.edu</text>
<rect x="630" y="332" width="12" height="12" fill="#2ca02c" fill-opacity="0.65"/>
<text x="648" y="342" font-size="11" fill="#333" font-family="Arial, Helvetica, sans-serif">nsc3.utdallas.edu</text>
<rect x="910" y="332" width="12" height="12" fill="#2ca02c" fill-opacity="0.50"/>
<text x="928" y="342" font-size="11" fill="#333" font-family="Arial, Helvetica, sans-serif">nsc4.utdallas.edu</text>
</svg>