<?xml version="1.0" encoding="UTF-8"?>
<svg xmlns="http://www.w3.org/2000/svg" width="1200" height="360" viewBox="0 0 1200 360" role="img" aria-label="Mumax3 Health (%)">
<rect width="100%" height="100%" fill="#ffffff"/>
<text x="600.0" y="22" text-anchor="middle" font-size="16" font-family="Arial, Helvetica, sans-serif" font-weight="bold">Mumax3 Health (%)</text>
<line x1="70" y1="35.00" x2="1180" y2="35.00" stroke="#e3e3e3" stroke-width="1"/>
<text x="62" y="39.00" text-anchor="end" font-size="11" fill="#444" font-family="Arial, Helvetica, sans-serif">100</text>
<line x1="70" y1="89.00" x2="1180" y2="89.00" stroke="#e3e3e3" stroke-width="1"/>
<text x="62" y="93.00" text-anchor="end" font-size="11" fill="#444" font-family="Arial, Helvetica, sans-serif">80</text>
<line x1="70" y1="143.00" x2="1180" y2="143.00" stroke="#e3e3e3" stroke-width="1"/>
<text x="62" y="147.00" text-anchor="end" font-size="11" fill="#444" font-family="Arial, Helvetica, sans-serif">60</text>
<line x1="70" y1="197.00" x2="1180" y2="197.00" stroke="#e3e3e3" stroke-width="1"/>
<text x="62" y="201.00" text-anchor="end" font-size="11" fill="#444" font-family="Arial, Helvetica, sans-serif">40</text>
<line x1="70" y1="251.00" x2="1180" y2="251.00" stroke="#e3e3e3" stroke-width="1"/>
<text x="62" y="255.00" text-anchor="end" font-size="11" fill="#444" font-family="Arial, Helvetica, sans-serif">20</text>
<line x1="70" y1="305.00" x2="1180" y2="305.00" stroke="#e3e3e3" stroke-width="1"/>
<text x="62" y="309.00" text-anchor="end" font-size="11" fill="#444" font-family="Arial, Helvetica, sans-serif">0</text>
<line x1="70" y1="35" x2="70" y2="305" stroke="#999"/>
<line x1="70" y1="305" x2="1180" y2="305" stroke="#999"/>
<text x="70.00" y="323" text-anchor="middle" font-size="10" fill="#444" font-family="Arial, Helvetica, sans-serif">2026-02-11 16:38</text>
<text x="347.50" y="323" text-anchor="middle" font-size="10" fill="#444" font-family="Arial, Helvetica, sans-serif">2026-02-12 06:02</text>
<text x="625.00" y="323" text-anchor="middle" font-size="10" fill="#444" font-family="Arial, Helvetica, sans-serif">2026-02-12 19:27</text>
<text x="902.50" y="323" text-anchor="middle" font-size="10" fill="#444" font-family="Arial, Helvetica, sans-serif">2026-02-13 08:52</text>
<text x="1180.00" y="323" text-anchor="middle" font-size="10" fill="#444" font-family="Arial, Helvetica, sans-serif">2026-02-13 22:17</text>
<polyline fill="none" stroke="#2ca02c" stroke-opacity="0.95" stroke-width="2" points="71.86,35.00 73.72,35.00 75.57,35.00 77.43,35.00 79.30,35.00 81.14,35.00 83.00,35.00 85.02,35.00 86.86,35.00 88.71,35.00 90.55,35.00 92.44,35.00 94.28,35.00 96.12,35.00 99.46,35.00 102.34,35.00 104.22,35.00 106.12,35.00 107.97,35.00 109.82,35.00 111.64,35.00 113.51,35.00 115.36,35.00 117.23,35.00 119.09,35.00 120.99,35.00 122.85,35.00 124.71,35.00 126.66,35.00 128.53,35.00 130.38,35.00 132.28,35.00 134.14,35.00 136.00,35.00 137.91,35.00 139.75,35.00 141.60,35.00 143.50,35.00 145.33,35.00 147.18,35.00 149.02,35.00 150.87,35.00 152.73,35.00 154.57,35.00 156.47,35.00 158.34,35.00 160.18,35.00 162.03,35.00 163.90,35.00 165.76,35.00 167.88,35.00 169.73,35.00 171.59,35.00 173.42,35.00 175.27,35.00 177.11,35.00 178.95,35.00 180.81,35.00 182.66,35.00 184.56,35.00 186.41,35.00 188.24,35.00 190.11,35.00 191.99,35.00 193.84,35.00 195.70,35.00 197.53,35.00 199.37,35.00 201.22,35.00 203.05,35.00 204.90,35.00 206.76,35.00 208.60,35.00 210.46,35.00 212.32,35.00 214.15,35.00 216.02,35.00 217.86,35.00 219.70,35.00 221.60,35.00 223.46,35.00 225.31,35.00 227.17,35.00 229.02,35.00 230.88,35.00 232.73,35.00 234.56,35.00 236.40,35.00 238.27,35.00 240.14,35.00 241.99,35.00 243.86,35.00 245.69,35.00 247.55,35.00 249.40,35.00 251.25,35.00 253.09,35.00 254.94,35.00 256.78,35.00 258.65,35.00 260.50,35.00 262.36,35.00 264.22,35.00 266.10,35.00 267.96,35.00 269.81,35.00 271.66,35.00 273.51,35.00 275.35,35.00 277.23,35.00 279.08,35.00 280.93,35.00 282.78,35.00 284.65,35.00 286.51,35.00 288.38,35.00 290.26,35.00 292.11,35.00 293.96,35.00 295.82,35.00 297.67,35.00 299.52,35.00 301.39,35.00 303.40,35.00 305.24,35.00 307.12,35.00 308.97,35.00 310.81,35.00 312.65,35.00 314.47,35.00 316.32,35.00 318.18,35.00 320.03,35.00 321.87,35.00 323.72,35.00 325.57,35.00 327.41,35.00 329.30,35.00 331.15,35.00 333.00,35.00 334.84,35.00 336.70,35.00 338.55,35.00 340.41,35.00 342.27,35.00 344.13,35.00 345.98,35.00 347.83,35.00 349.67,35.00 351.52,35.00 353.37,35.00 355.22,35.00 357.08,35.00 358.95,35.00 360.81,35.00 362.66,35.00 364.53,35.00 366.39,35.00 368.23,35.00 370.09,35.00 371.95,35.00 373.83,35.00 375.71,35.00 377.55,35.00 379.42,35.00 381.25,35.00 383.09,35.00 384.94,35.00 386.80,35.00 388.65,35.00 390.48,35.00 392.32,35.00 394.20,35.00 396.05,35.00 397.91,35.00 399.77,35.00 401.66,35.00 403.51,35.00 405.36,35.00 407.21,35.00 409.05,35.00 411.06,35.00 412.96,35.00 414.80,35.00 416.64,35.00 418.47,35.00 420.33,35.00 422.18,35.00 424.05,35.00 425.91,35.00 427.75,35.00 429.60,35.00 431.45,35.00 433.35,35.00 435.20,35.00 437.04,35.00 438.89,35.00 440.76,35.00 442.65,35.00 444.55,35.00 446.39,35.00 448.24,35.00 450.10,35.00 451.95,35.00 453.81,35.00 455.66,35.00 457.54,35.00 459.39,35.00 461.23,35.00 463.10,35.00 464.96,35.00 466.81,35.00 468.66,35.00 470.54,35.00 472.40,35.00 474.24,35.00 476.08,35.00 477.92,35.00 479.78,35.00 481.63,35.00 483.48,35.00 485.33,35.00 487.16,35.00 489.01,35.00 490.88,35.00 492.74,35.00 494.60,35.00 496.48,35.00 498.33,35.00 500.20,35.00 502.05,35.00 503.91,35.00 505.76,35.00 507.61,35.00 509.47,35.00 511.37,35.00 513.22,35.00 515.08,35.00 516.94,35.00 518.79,35.00 520.65,35.00 522.48,35.00 524.33,35.00 526.20,35.00 528.06,35.00 529.91,35.00 531.77,35.00 533.64,35.00 535.49,35.00 537.34,35.00 539.21,35.00 541.08,35.00 542.93,35.00 544.78,35.00 546.65,35.00 548.52,35.00 550.38,35.00 552.23,35.00 554.08,35.00 556.14,35.00 558.01,35.00 559.86,35.00 561.72,35.00 563.59,35.00 565.46,35.00 567.31,35.00 569.17,35.00 571.01,35.00 572.93,35.00 574.81,35.00 576.64,35.00 578.49,35.00 580.35,35.00 582.21,35.00 584.06,35.00 585.99,35.00 587.84,35.00 589.69,35.00 591.57,35.00 593.57,35.00 595.43,35.00 597.76,35.00 600.90,35.00 602.80,35.00 604.69,35.00 606.54,35.00 608.36,35.00 610.21,35.00 612.09,35.00 613.95,35.00 615.82,35.00 617.75,35.00 619.67,35.00 621.64,35.00 623.50,35.00 625.35,35.00 627.21,35.00 629.09,35.00 630.97,35.00 632.84,35.00 634.69,35.00 636.54,35.00 638.47,35.00 640.34,35.00 642.17,35.00 644.03,35.00 645.92,35.00 647.84,35.00 649.71,35.00 651.56,35.00 653.47,35.00 655.25,35.00 657.09,35.00 658.98,35.00 660.83,35.00 662.71,35.00 664.63,35.00 666.49,35.00 668.34,35.00 670.22,35.00 672.09,35.00 673.95,35.00 675.80,35.00 677.64,35.00 679.50,35.00 681.37,35.00 683.21,35.00 685.42,35.00 687.60,35.00 689.80,35.00 691.95,35.00 694.07,35.00 696.21,35.00 698.41,35.00 700.57,35.00 702.43,35.00 704.26,35.00 706.11,35.00 707.96,35.00 709.82,35.00 711.66,35.00 713.50,35.00 715.35,35.00 717.20,35.00 719.05,35.00 720.90,35.00 722.75,35.00 724.60,35.00 726.44,35.00 728.29,35.00 730.13,35.00 731.99,35.00 733.82,35.00 735.69,35.00 737.55,35.00 739.39,35.00 741.22,35.00 743.07,35.00 744.92,35.00 746.78,35.00 748.63,35.00 750.48,35.00 752.33,35.00 754.19,35.00 756.03,35.00 757.88,35.00 759.74,35.00 761.57,35.00 763.42,35.00 765.25,35.00 767.08,35.00 768.93,35.00 770.77,35.00 772.61,35.00 774.46,35.00 776.30,35.00 778.15,35.00 779.99,35.00 781.82,35.00 783.64,35.00 785.56,35.00 787.55,35.00 789.41,35.00 791.27,35.00 793.11,35.00 794.96,35.00 796.79,35.00 798.63,35.00 800.47,35.00 802.66,35.00 804.84,35.00 806.99,35.00 809.16,35.00 811.35,35.00 813.51,35.00 815.72,35.00 817.97,35.00 819.99,35.00 821.98,35.00 823.83,35.00 825.71,35.00 827.56,35.00 829.40,35.00 831.24,35.00 833.10,35.00 834.94,35.00 836.79,35.00 838.63,35.00 840.49,35.00 842.34,35.00 844.19,35.00 846.07,35.00 847.91,35.00 849.76,35.00 851.38,35.00 853.29,35.00 855.14,35.00 857.04,35.00 858.89,35.00 860.73,35.00 862.60,35.00 864.47,35.00 866.33,35.00 868.20,35.00 870.07,35.00 871.96,35.00 873.80,35.00 875.63,35.00 877.49,35.00 879.32,35.00 881.16,35.00 883.00,35.00 884.88,35.00 886.72,35.00 888.58,35.00 890.43,35.00 892.27,35.00 894.13,35.00 895.98,35.00 897.85,35.00 899.71,35.00 901.56,35.00 903.41,35.00 905.28,35.00 907.14,35.00 909.05,35.00 910.89,35.00 912.73,35.00 914.58,35.00 916.41,35.00 918.26,35.00 920.13,35.00 921.98,35.00 923.82,35.00 925.67,35.00 927.51,35.00 929.36,35.00 931.22,35.00 933.09,35.00 934.94,35.00 937.18,35.00 939.08,35.00 940.98,35.00 942.85,35.00 944.71,35.00 946.58,35.00 948.42,35.00 950.26,35.00 952.14,35.00 954.00,35.00 955.85,35.00 957.71,35.00 959.57,35.00 961.42,35.00 963.34,35.00 965.23,35.00 967.08,35.00 968.94,35.00 970.80,35.00 972.65,35.00 974.49,35.00 976.35,35.00 978.28,35.00 980.14,35.00 982.01,35.00 983.86,35.00 985.71,35.00 987.58,35.00 989.42,35.00 991.28,35.00 993.14,35.00 995.00,35.00 996.86,35.00 998.72,35.00 1000.56,35.00 1002.42,35.00 1004.27,35.00 1006.16,35.00 1008.02,35.00 1009.86,35.00 1011.71,35.00 1013.56,35.00 1015.45,35.00 1017.31,35.00 1019.54,35.00 1021.45,35.00 1023.30,35.00 1025.16,35.00 1027.00,35.00 1028.87,35.00 1030.72,35.00 1032.58,35.00 1034.48,35.00 1036.32,35.00 1038.17,35.00 1040.02,35.00 1041.87,35.00 1043.72,35.00 1045.57,35.00 1047.44,35.00 1049.28,35.00 1051.13,35.00 1052.98,35.00 1054.83,35.00 1056.71,35.00 1058.55,35.00 1060.40,35.00 1062.28,35.00 1064.15,35.00 1066.00,35.00 1067.85,35.00 1069.71,35.00 1071.62,35.00 1073.46,35.00 1075.32,35.00 1077.19,35.00 1079.04,35.00 1080.89,35.00 1082.75,35.00 1084.61,35.00 1086.51,35.00 1088.36,35.00 1090.21,35.00 1092.05,35.00 1093.90,35.00 1095.75,35.00 1097.61,35.00 1099.46,35.00 1101.33,35.00 1103.21,35.00 1105.08,35.00 1106.90,35.00 1108.77,35.00 1110.61,35.00 1112.48,35.00 1114.32,35.00 1116.18,35.00 1118.03,35.00 1119.91,35.00 1121.76,35.00 1123.61,35.00 1125.49,35.00 1127.36,35.00 1129.22,35.00 1131.08,35.00 1132.95,35.00 1135.04,35.00 1137.07,35.00 1139.06,35.00 1140.93,35.00 1142.87,35.00 1144.73,35.00 1146.59,35.00 1148.43,35.00 1150.16,35.00 1152.10,35.00 1153.96,35.00 1155.83,35.00 1157.66,35.00 1159.52,35.00 1161.37,35.00 1163.24,35.00 1165.09,35.00 1166.95,35.00 1168.80,35.00 1170.66,35.00 1172.52,35.00 1174.39,35.00 1176.26,35.00 1178.14,35.00 1180.00,35.00"/>
<polyline fill="none" stroke="#2ca02c" stroke-opacity="0.80" stroke-width="2" points="70.00,35.00 71.86,35.00 73.72,35.00 75.57,35.00 77.43,35.00 79.30,35.00 81.14,35.00 83.00,35.00 85.02,35.00 86.86,35.00 88.71,35.00 90.55,35.00 92.44,35.00 94.28,35.00 96.12,35.00 99.46,35.00 102.34,35.00 104.22,35.00 106.12,35.00 107.97,35.00 109.82,35.00 111.64,35.00 113.51,35.00 115.36,35.00 117.23,35.00 119.09,35.00 120.99,35.00 122.85,35.00 124.71,35.00 126.66,35.00 128.53,35.00 130.38,35.00 132.28,35.00 134.14,35.00 136.00,35.00 137.91,35.00 139.75,35.00 141.60,35.00 143.50,35.00 145.33,35.00 147.18,35.00 149.02,35.00 150.87,35.00 152.73,35.00 154.57,35.00 156.47,35.00 158.34,35.00 160.18,35.00 162.03,35.00 163.90,35.00 165.76,35.00 167.88,35.00 169.73,35.00 171.59,35.00 173.42,35.00 175.27,35.00 177.11,35.00 178.95,35.00 180.81,35.00 182.66,35.00 184.56,35.00 186.41,35.00 188.24,35.00 190.11,35.00 191.99,35.00 193.84,35.00 195.70,35.00 197.53,35.00 199.37,35.00 201.22,35.00 203.05,35.00 204.90,35.00 206.76,35.00 208.60,35.00 210.46,35.00 212.32,35.00 214.15,35.00 216.02,35.00 217.86,35.00 219.70,35.00 221.60,35.00 223.46,35.00 225.31,35.00 227.17,35.00 229.02,35.00 230.88,35.00 232.73,35.00 234.56,35.00 236.40,35.00 238.27,35.00 240.14,35.00 241.99,35.00 243.86,35.00 245.69,35.00 247.55,35.00 249.40,35.00 251.25,35.00 253.09,35.00 254.94,35.00 256.78,35.00 258.65,35.00 260.50,35.00 262.36,35.00 264.22,35.00 266.10,35.00 267.96,35.00 269.81,35.00 271.66,35.00 273.51,35.00 275.35,35.00 277.23,35.00 279.08,35.00 280.93,35.00 282.78,35.00 284.65,35.00 286.51,35.00 288.38,35.00 290.26,35.00 292.11,35.00 293.96,35.00 295.82,35.00 297.67,35.00 299.52,35.00 301.39,35.00 303.40,35.00 305.24,35.00 307.12,35.00 308.97,35.00 310.81,35.00 312.65,35.00 314.47,35.00 316.32,35.00 318.18,35.00 320.03,35.00 321.87,35.00 323.72,35.00 325.57,35.00 327.41,35.00 329.30,35.00 331.15,35.00 333.00,35.00 334.84,35.00 336.70,35.00 338.55,35.00 340.41,35.00 342.27,35.00 344.13,35.00 345.98,35.00 347.83,35.00 349.67,35.00 351.52,35.00 353.37,35.00 355.22,35.00 357.08,35.00 358.95,35.00 360.81,35.00 362.66,35.00 364.53,35.00 366.39,35.00 368.23,35.00 370.09,35.00 371.95,35.00 373.83,35.00 375.71,35.00 377.55,35.00 379.42,35.00 381.25,35.00 383.09,35.00 384.94,35.00 386.80,35.00 388.65,35.00 390.48,35.00 392.32,35.00 394.20,35.00 396.05,35.00 397.91,35.00 399.77,35.00 401.66,35.00 403.51,35.00 405.36,35.00 407.21,35.00 409.05,35.00 411.06,35.00 412.96,35.00 414.80,35.00 416.64,35.00 418.47,35.00 420.33,35.00 422.18,35.00 424.05,35.00 425.91,35.00 427.75,35.00 429.60,35.00 431.45,35.00 433.35,35.00 435.20,35.00 437.04,35.00 438.89,35.00 440.76,35.00 442.65,35.00 444.55,35.00 446.39,35.00 448.24,35.00 450.10,35.00 451.95,35.00 453.81,35.00 455.66,35.00 457.54,35.00 459.39,35.00 461.23,35.00 463.10,35.00 464.96,35.00 466.81,35.00 468.66,35.00 470.54,35.00 472.40,35.00 474.24,35.00 476.08,35.00 477.92,35.00 479.78,35.00 481.63,35.00 483.48,35.00 485.33,35.00 487.16,35.00 489.01,35.00 490.88,35.00 492.74,35.00 494.60,35.00 496.48,35.00 498.33,35.00 500.20,35.00 502.05,35.00 503.91,35.00 505.76,35.00 507.61,35.00 509.47,35.00 511.37,35.00 513.22,35.00 515.08,35.00 516.94,35.00 518.79,35.00 520.65,35.00 522.48,35.00 524.33,35.00 526.20,35.00 528.06,35.00 529.91,35.00 531.77,35.00 533.64,35.00 535.49,35.00 537.34,35.00 539.21,35.00 541.08,35.00 542.93,35.00 544.78,35.00 546.65,35.00 548.52,35.00 550.38,35.00 552.23,35.00 554.08,35.00 556.14,35.00 558.01,35.00 559.86,35.00 561.72,35.00 563.59,35.00 565.46,35.00 567.31,35.00 569.17,35.00 571.01,35.00 572.93,35.00 574.81,35.00 576.64,35.00 578.49,35.00 580.35,35.00 582.21,35.00 584.06,35.00 585.99,35.00 587.84,35.00 589.69,35.00 591.57,35.00 593.57,35.00 595.43,35.00 597.76,35.00 600.90,35.00 602.80,35.00 604.69,35.00 606.54,35.00 608.36,35.00 610.21,35.00 612.09,35.00 613.95,35.00 615.82,35.00 617.75,35.00 619.67,35.00 621.64,35.00 623.50,35.00 625.35,35.00 627.21,35.00 629.09,35.00 630.97,35.00 632.84,35.00 634.69,35.00 636.54,35.00 638.47,35.00 640.34,35.00 642.17,35.00 644.03,35.00 645.92,35.00 647.84,35.00 649.71,35.00 651.56,35.00 653.47,35.00 655.25,35.00 657.09,35.00 658.98,35.00 660.83,35.00 662.71,35.00 664.63,35.00 666.49,35.00 668.34,35.00 670.22,35.00 672.09,35.00 673.95,35.00 675.80,35.00 677.64,35.00 679.50,35.00 681.37,35.00 683.21,35.00 685.42,35.00 687.60,35.00 689.80,35.00 691.95,35.00 694.07,35.00 696.21,35.00 698.41,35.00 700.57,35.00 702.43,35.00 704.26,35.00 706.11,35.00 707.96,35.00 709.82,35.00 711.66,35.00 713.50,35.00 715.35,35.00 717.20,35.00 719.05,35.00 720.90,35.00 722.75,35.00 724.60,35.00 726.44,35.00 728.29,35.00 730.13,35.00 731.99,35.00 733.82,35.00 735.69,35.00 737.55,35.00 739.39,35.00 741.22,35.00 743.07,35.00 744.92,35.00 746.78,35.00 748.63,35.00 750.48,35.00 752.33,35.00 754.19,35.00 756.03,35.00 757.88,35.00 759.74,35.00 761.57,35.00 763.42,35.00 765.25,35.00 767.08,35.00 768.93,35.00 770.77,35.00 772.61,35.00 774.46,35.00 776.30,35.00 778.15,35.00 779.99,35.00 781.82,35.00 783.64,35.00 785.56,35.00 787.55,35.00 789.41,35.00 791.27,35.00 793.11,35.00 794.96,35.00 796.79,35.00 798.63,35.00 800.47,35.00 802.66,35.00 804.84,35.00 806.99,35.00 809.16,35.00 811.35,35.00 813.51,35.00 815.72,35.00 817.97,35.00 819.99,35.00 821.98,35.00 823.83,35.00 825.71,35.00 827.56,35.00 829.40,35.00 831.24,35.00 833.10,35.00 834.94,35.00 836.79,35.00 838.63,35.00 840.49,35.00 842.34,35.00 844.19,35.00 846.07,35.00 847.91,35.00 849.76,35.00 851.38,35.00 853.29,35.00 855.14,35.00 857.04,35.00 858.89,35.00 860.73,35.00 862.60,35.00 864.47,35.00 866.33,35.00 868.20,35.00 870.07,35.00 871.96,35.00 873.80,35.00 875.63,35.00 877.49,35.00 879.32,35.00 881.16,35.00 883.00,35.00 884.88,35.00 886.72,35.00 888.58,35.00 890.43,35.00 892.27,35.00 894.13,35.00 895.98,35.00 897.85,35.00 899.71,35.00 901.56,35.00 903.41,35.00 905.28,35.00 907.14,35.00 909.05,35.00 910.89,35.00 912.73,35.00 914.58,35.00 916.41,35.00 918.26,35.00 920.13,35.00 921.98,35.00 923.82,35.00 925.67,35.00 927.51,35.00 929.36,35.00 931.22,35.00 933.09,35.00 934.94,35.00 937.18,35.00 939.08,35.00 940.98,35.00 942.85,35.00 944.71,35.00 946.58,35.00 948.42,35.00 950.26,35.00 952.14,35.00 954.00,35.00 955.85,35.00 957.71,35.00 959.57,35.00 961.42,35.00 963.34,35.00 965.23,35.00 967.08,35.00 968.94,35.00 970.80,35.00 972.65,35.00 974.49,35.00 976.35,35.00 978.28,35.00 980.14,35.00 982.01,35.00 983.86,35.00 985.71,35.00 987.58,35.00 989.42,35.00 991.28,35.00 993.14,35.00 995.00,35.00 996.86,35.00 998.72,35.00 1000.56,35.00 1002.42,35.00 1004.27,35.00 1006.16,35.00 1008.02,35.00 1009.86,35.00 1011.71,35.00 1013.56,35.00 1015.45,35.00 1017.31,35.00 1019.54,35.00 1021.45,35.00 1023.30,35.00 1025.16,35.00 1027.00,35.00 1028.87,35.00 1030.72,35.00 1032.58,35.00 1034.48,35.00 1036.32,35.00 1038.17,35.00 1040.02,35.00 1041.87,35.00 1043.72,35.00 1045.57,35.00 1047.44,35.00 1049.28,35.00 1051.13,35.00 1052.98,35.00 1054.83,35.00 1056.71,35.00 1058.55,35.00 1060.40,35.00 1062.28,35.00 1064.15,35.00 1066.00,35.00 1067.85,35.00 1069.71,35.00 1071.62,35.00 1073.46,35.00 1075.32,35.00 1077.19,35.00 1079.04,35.00 1080.89,35.00 1082.75,35.00 1084.61,35.00 1086.51,35.00 1088.36,35.00 1090.21,35.00 1092.05,35.00 1093.90,35.00 1095.75,35.00 1097.61,35.00 1099.46,35.00 1101.33,35.00 1103.21,35.00 1105.08,35.00 1106.90,35.00 1108.77,35.00 1110.61,35.00 1112.48,35.00 1114.32,35.00 1116.18,35.00 1118.03,35.00 1119.91,35.00 1121.76,35.00 1123.61,35.00 1125.49,35.00 1127.36,35.00 1129.22,35.00 1131.08,35.00 1132.95,35.00 1135.04,35.00 1137.07,35.00 1139.06,35.00 1140.93,35.00 1142.87,35.00 1144.73,35.00 1146.59,35.00 1148.43,35.00 1150.16,35.00 1152.10,35.00 1153.96,35.00 1155.83,35.00 1157.66,35.00 1159.52,35.00 1161.37,35.00 1163.24,35.00 1165.09,35.00 1166.95,35.00 1168.80,35.00 1170.66,35.00 1172.52,35.00 1174.39,35.00 1176.26,35.00 1178.14,35.00 1180.00,35.00"/>
<polyline fill="none" stroke="#2ca02c" stroke-opacity="0.65" stroke-width="2" points="70.00,305.00 71.86,305.00 73.72,305.00 75.57,305.00 77.43,305.00 79.30,305.00 81.14,305.00 83.00,305.00 85.02,305.00 86.86,305.00 88.71,305.00 90.55,305.00 92.44,305.00 94.28,305.00 96.12,305.00 99.46,305.00 102.34,305.00 104.22,305.00 106.12,305.00 107.97,305.00 109.82,305.00 111.64,305.00 113.51,305.00 115.36,305.00 117.23,305.00 119.09,305.00 120.99,305.00 122.85,305.00 124.71,305.00 126.66,305.00 128.53,305.00 130.38,305.00 132.28,305.00 134.14,305.00 136.00,305.00 137.91,305.00 139.75,305.00 141.60,305.00 143.50,305.00 145.33,305.00 147.18,305.00 149.02,305.00 150.87,305.00 152.73,305.00 154.57,305.00 156.47,305.00 158.34,305.00 160.18,305.00 162.03,305.00 163.90,305.00 165.76,305.00 167.88,305.00 169.73,305.00 171.59,305.00 173.42,305.00 175.27,305.00 177.11,305.00 178.95,305.00 180.81,305.00 182.66,305.00 184.56,305.00 186.41,305.00 188.24,305.00 190.11,305.00 191.99,305.00 193.84,305.00 195.70,305.00 197.53,305.00 199.37,305.00 201.22,305.00 203.05,305.00 204.90,305.00 206.76,305.00 208.60,305.00 210.46,305.00 212.32,305.00 214.15,305.00 216.02,305.00 217.86,305.00 219.70,305.00 221.60,305.00 223.46,305.00 225.31,305.00 227.17,305.00 229.02,305.00 230.88,305.00 232.73,305.00 234.56,305.00 236.40,305.00 238.27,305.00 240.14,305.00 241.99,305.00 243.86,305.00 245.69,305.00 247.55,305.00 249.40,305.00 251.25,305.00 253.09,305.00 254.94,305.00 256.78,305.00 258.65,305.00 260.50,305.00 262.36,305.00 264.22,305.00 266.10,305.00 267.96,305.00 269.81,305.00 271.66,305.00 273.51,305.00 275.35,305.00 277.23,305.00 279.08,305.00 280.93,305.00 282.78,305.00 284.65,305.00 286.51,305.00 288.38,305.00 290.26,305.00 292.11,305.00 293.96,305.00 295.82,305.00 297.67,305.00 299.52,305.00 301.39,305.00 303.40,305.00 305.24,305.00 307.12,305.00 308.97,305.00 310.81,305.00 312.65,305.00 314.47,305.00 316.32,305.00 318.18,305.00 320.03,305.00 321.87,305.00 323.72,305.00 325.57,305.00 327.41,305.00 329.30,305.00 331.15,305.00 333.00,305.00 334.84,305.00 336.70,305.00 338.55,305.00 340.41,305.00 342.27,305.00 344.13,305.00 345.98,305.00 347.83,305.00 349.67,305.00 351.52,305.00 353.37,305.00 355.22,305.00 357.08,305.00 358.95,305.00 360.81,305.00 362.66,305.00 364.53,305.00 366.39,305.00 368.23,305.00 370.09,305.00 371.95,305.00 373.83,305.00 375.71,305.00 377.55,305.00 379.42,305.00 381.25,305.00 383.09,305.00 384.94,305.00 386.80,305.00 388.65,305.00 390.48,305.00 392.32,305.00 394.20,305.00 396.05,305.00 397.91,305.00 399.77,305.00 401.66,305.00 403.51,305.00 405.36,305.00 407.21,305.00 409.05,305.00 411.06,305.00 412.96,305.00 414.80,305.00 416.64,305.00 418.47,305.00 420.33,305.00 422.18,305.00 424.05,305.00 425.91,305.00 427.75,305.00 429.60,305.00 431.45,305.00 433.35,305.00 435.20,305.00 437.04,305.00 438.89,305.00 440.76,305.00 442.65,305.00 444.55,305.00 446.39,305.00 448.24,305.00 450.10,305.00 451.95,305.00 453.81,305.00 455.66,305.00 457.54,305.00 459.39,305.00 461.23,305.00 463.10,305.00 464.96,305.00 466.81,305.00 468.66,305.00 470.54,305.00 472.40,305.00 474.24,305.00 476.08,305.00 477.92,305.00 479.78,305.00 481.63,305.00 483.48,305.00 485.33,305.00 487.16,305.00 489.01,305.00 490.88,305.00 492.74,305.00 494.60,305.00 496.48,305.00 498.33,305.00 500.20,305.00 502.05,305.00 503.91,305.00 505.76,305.00 507.61,305.00 509.47,305.00 511.37,305.00 513.22,305.00 515.08,305.00 516.94,305.00 518.79,305.00 520.65,305.00 522.48,305.00 524.33,305.00 526.20,305.00 528.06,305.00 529.91,305.00 531.77,305.00 533.64,305.00 535.49,305.00 537.34,305.00 539.21,305.00 541.08,305.00 542.93,305.00 544.78,305.00 546.65,305.00 548.52,305.00 550.38,305.00 552.23,305.00 554.08,305.00 556.14,305.00 558.01,305.00 559.86,305.00 561.72,305.00 563.59,305.00 565.46,305.00 567.31,305.00 569.17,305.00 571.01,305.00 572.93,305.00 574.81,305.00 576.64,305.00 578.49,305.00 580.35,305.00 582.21,305.00 584.06,305.00 585.99,305.00 587.84,305.00 589.69,305.00 591.57,305.00 593.57,305.00 595.43,305.00 597.76,305.00 600.90,305.00 602.80,305.00 604.69,305.00 606.54,305.00 608.36,305.00 610.21,305.00 612.09,305.00 613.95,305.00 615.82,305.00 617.75,305.00 619.67,305.00 621.64,305.00 623.50,305.00 625.35,305.00 627.21,305.00 629.09,305.00 630.97,305.00 632.84,305.00 634.69,305.00 636.54,305.00 638.47,305.00 640.34,305.00 642.17,305.00 644.03,305.00 645.92,305.00 647.84,305.00 649.71,305.00 651.56,305.00 653.47,305.00 655.25,305.00 657.09,305.00 658.98,305.00 660.83,305.00 662.71,305.00 664.63,305.00 666.49,305.00 668.34,305.00 670.22,305.00 672.09,305.00 673.95,305.00 675.80,305.00 677.64,305.00 679.50,305.00 681.37,305.00 683.21,305.00 685.42,305.00 687.60,305.00 689.80,305.00 691.95,305.00 694.07,305.00 696.21,305.00 698.41,305.00 700.57,305.00 702.43,305.00 704.26,305.00 706.11,305.00 707.96,305.00 709.82,305.00 711.66,305.00 713.50,305.00 715.35,305.00 717.20,305.00 719.05,305.00 720.90,305.00 722.75,305.00 724.60,305.00 726.44,305.00 728.29,305.00 730.13,305.00 731.99,305.00 733.82,305.00 735.69,305.00 737.55,305.00 739.39,305.00 741.22,305.00 743.07,305.00 744.92,305.00 746.78,305.00 748.63,305.00 750.48,305.00 752.33,305.00 754.19,305.00 756.03,305.00 757.88,305.00 759.74,305.00 761.57,305.00 763.42,305.00 765.25,305.00 767.08,305.00 768.93,305.00 770.77,305.00 772.61,305.00 774.46,305.00 776.30,305.00 778.15,305.00 779.99,305.00 781.82,305.00 783.64,305.00 785.56,305.00 787.55,305.00 789.41,305.00 791.27,305.00 793.11,305.00 794.96,305.00 796.79,305.00 798.63,305.00 800.47,305.00 802.66,305.00 804.84,305.00 806.99,305.00 809.16,305.00 811.35,305.00 813.51,305.00 815.72,305.00 817.97,305.00 819.99,305.00 821.98,305.00 823.83,305.00 825.71,305.00 827.56,305.00 829.40,305.00 831.24,305.00 833.10,305.00 834.94,305.00 836.79,305.00 838.63,305.00 840.49,305.00 842.34,305.00 844.19,305.00 846.07,305.00 847.91,305.00 849.76,305.00 851.38,35.00 853.29,35.00 855.14,35.00 857.04,35.00 858.89,35.00 860.73,35.00 862.60,35.00 864.47,35.00 866.33,35.00 868.20,35.00 870.07,35.00 871.96,35.00 873.80,35.00 875.63,35.00 877.49,35.00 879.32,35.00 881.16,35.00 883.00,35.00 884.88,35.00 886.72,35.00 888.58,35.00 890.43,35.00 892.27,35.00 894.13,35.00 895.98,35.00 897.85,35.00 899.71,35.00 901.56,35.00 903.41,35.00 905.28,35.00 907.14,35.00 909.05,35.00 910.89,35.00 912.73,35.00 914.58,35.00 916.41,35.00 918.26,35.00 920.13,35.00 921.98,35.00 923.82,35.00 925.67,35.00 927.51,35.00 929.36,35.00 931.22,35.00 933.09,35.00 934.94,35.00 937.18,35.00 939.08,35.00 940.98,35.00 942.85,35.00 944.71,35.00 946.58,35.00 948.42,35.00 950.26,35.00 952.14,35.00 954.00,35.00 955.85,35.00 957.71,35.00 959.57,35.00 961.42,35.00 963.34,35.00 965.23,35.00 967.08,35.00 968.94,35.00 970.80,35.00 972.65,35.00 974.49,35.00 976.35,35.00 978.28,35.00 980.14,35.00 982.01,35.00 983.86,35.00 985.71,35.00 987.58,35.00 989.42,35.00 991.28,35.00 993.14,35.00 995.00,35.00 996.86,35.00 998.72,35.00 1000.56,35.00 1002.42,35.00 1004.27,35.00 1006.16,35.00 1008.02,35.00 1009.86,35.00 1011.71,35.00 1013.56,35.00 1015.45,35.00 1017.31,35.00 1019.54,35.00 1021.45,35.00 1023.30,35.00 1025.16,35.00 1027.00,35.00 1028.87,35.00 1030.72,35.00 1032.58,35.00 1034.48,35.00 1036.32,35.00 1038.17,35.00 1040.02,35.00 1041.87,35.00 1043.72,35.00 1045.57,35.00 1047.44,35.00 1049.28,35.00 1051.13,35.00 1052.98,35.00 1054.83,35.00 1056.71,35.00 1058.55,35.00 1060.40,35.00 1062.28,35.00 1064.15,35.00 1066.00,35.00 1067.85,35.00 1069.71,35.00 1071.62,35.00 1073.46,35.00 1075.32,35.00 1077.19,35.00 1079.04,35.00 1080.89,35.00 1082.75,35.00 1084.61,35.00 1086.51,35.00 1088.36,35.00 1090.21,35.00 1092.05,35.00 1093.90,35.00 1095.75,35.00 1097.61,35.00 1099.46,35.00 1101.33,35.00 1103.21,35.00 1105.08,35.00 1106.90,35.00 1108.77,35.00 1110.61,35.00 1112.48,35.00 1114.32,35.00 1116.18,35.00 1118.03,35.00 1119.91,35.00 1121.76,35.00 1123.61,35.00 1125.49,35.00 1127.36,35.00 1129.22,35.00 1131.08,35.00 1132.95,35.00 1135.04,35.00 1137.07,35.00 1139.06,35.00 1140.93,35.00 1142.87,35.00 1144.73,35.00 1146.59,35.00 1148.43,35.00 1150.16,35.00 1152.10,35.00 1153.96,35.00 1155.83,35.00 1157.66,35.00 1159.52,35.00 1161.37,35.00 1163.24,35.00 1165.09,35.00 1166.95,35.00 1168.80,35.00 1170.66,35.00 1172.52,35.00 1174.39,35.00 1176.26,35.00 1178.14,35.00 1180.00,35.00"/>
<polyline fill="none" stroke="#2ca02c" stroke-opacity="0.50" stroke-width="2" points="70.00,35.00 71.86,35.00 73.72,35.00 75.57,35.00 77.43,35.00 79.30,35.00 81.14,35.00 83.00,35.00 85.02,35.00 86.86,35.00 88.71,35.00 90.55,35.00 92.44,35.00 94.28,35.00 96.12,35.00 99.46,35.00 102.34,35.00 104.22,35.00 106.12,35.00 107.97,35.00 109.82,35.00 111.64,35.00 113.51,35.00 115.36,35.00 117.23,35.00 119.09,35.00 120.99,35.00 122.85,35.00 124.71,35.00 126.66,35.00 128.53,35.00 130.38,35.00 132.28,35.00 134.14,35.00 136.00,35.00 137.91,35.00 139.75,35.00 141.60,35.00 143.50,35.00 145.33,35.00 147.18,35.00 149.02,35.00 150.87,35.00 152.73,35.00 154.57,35.00 156.47,35.00 158.34,35.00 160.18,35.00 162.03,35.00 163.90,35.00 165.76,35.00 167.88,35.00 169.73,35.00 171.59,35.00 173.42,35.00 175.27,35.00 177.11,35.00 178.95,35.00 180.81,35.00 182.66,35.00 184.56,35.00 186.41,35.00 188.24,35.00 190.11,35.00 191.99,35.00 193.84,35.00 195.70,35.00 197.53,35.00 199.37,35.00 201.22,35.00 203.05,35.00 204.90,35.00 206.76,35.00 208.60,35.00 210.46,35.00 212.32,35.00 214.15,35.00 216.02,35.00 217.86,35.00 219.70,35.00 221.60,35.00 223.46,35.00 225.31,35.00 227.17,35.00 229.02,35.00 230.88,35.00 232.73,35.00 234.56,35.00 236.40,35.00 238.27,35.00 240.14,35.00 241.99,35.00 243.86,35.00 245.69,35.00 247.55,35.00 249.40,35.00 251.25,35.00 253.09,35.00 254.94,35.00 256.78,35.00 258.65,35.00 260.50,35.00 262.36,35.00 264.22,35.00 266.10,35.00 267.96,35.00 269.81,35.00 271.66,35.00 273.51,35.00 275.35,35.00 277.23,35.00 279.08,35.00 280.93,35.00 282.78,35.00 284.65,35.00 286.51,35.00 288.38,35.00 290.26,35.00 292.11,35.00 293.96,35.00 295.82,35.00 297.67,35.00 299.52,35.00 301.39,35.00 303.40,35.00 305.24,35.00 307.12,35.00 308.97,35.00 310.81,35.00 312.65,35.00 314.47,35.00 316.32,35.00 318.18,35.00 320.03,35.00 321.87,35.00 323.72,35.00 325.57,35.00 327.41,35.00 329.30,35.00 331.15,35.00 333.00,35.00 334.84,35.00 336.70,35.00 338.55,35.00 340.41,35.00 342.27,35.00 344.13,35.00 345.98,35.00 347.83,35.00 349.67,35.00 351.52,35.00 353.37,35.00 355.22,35.00 357.08,35.00 358.95,35.00 360.81,35.00 362.66,35.00 364.53,35.00 366.39,35.00 368.23,35.00 370.09,35.00 371.95,35.00 373.83,35.00 375.71,35.00 377.55,35.00 379.42,35.00 381.25,35.00 383.09,35.00 384.94,35.00 386.80,35.00 388.65,35.00 390.48,35.00 392.32,35.00 394.20,35.00 396.05,35.00 397.91,35.00 399.77,35.00 401.66,35.00 403.51,35.00 405.36,35.00 407.21,35.00 409.05,35.00 411.06,35.00 412.96,35.00 414.80,35.00 416.64,35.00 418.47,35.00 420.33,35.00 422.18,35.00 424.05,35.00 425.91,35.00 427.75,35.00 429.60,35.00 431.45,35.00 433.35,35.00 435.20,35.00 437.04,35.00 438.89,35.00 440.76,35.00 442.65,35.00 444.55,35.00 446.39,35.00 448.24,35.00 450.10,35.00 451.95,35.00 453.81,35.00 455.66,35.00 457.54,35.00 459.39,35.00 461.23,35.00 463.10,35.00 464.96,35.00 466.81,35.00 468.66,35.00 470.54,35.00 472.40,35.00 474.24,35.00 476.08,35.00 477.92,35.00 479.78,35.00 481.63,35.00 483.48,35.00 485.33,35.00 487.16,35.00 489.01,35.00 490.88,35.00 492.74,35.00 494.60,35.00 496.48,35.00 498.33,35.00 500.20,35.00 502.05,35.00 503.91,35.00 505.76,35.00 507.61,35.00 509.47,35.00 511.37,35.00 513.22,35.00 515.08,35.00 516.94,35.00 518.79,35.00 520.65,35.00 522.48,35.00 524.33,35.00 526.20,35.00 528.06,35.00 529.91,35.00 531.77,35.00 533.64,35.00 535.49,35.00 537.34,35.00 539.21,35.00 541.08,35.00 542.93,35.00 544.78,35.00 546.65,35.00 548.52,35.00 550.38,35.00 552.23,35.00 554.08,35.00 556.14,35.00 558.01,35.00 559.86,35.00 561.72,35.00 563.59,35.00 565.46,35.00 567.31,35.00 569.17,35.00 571.01,35.00 572.93,35.00 574.81,35.00 576.64,35.00 578.49,35.00 580.35,35.00 582.21,35.00 584.06,35.00 585.99,35.00 587.84,35.00 589.69,35.00 591.57,35.00 593.57,35.00 595.43,35.00 597.76,35.00 600.90,35.00 602.80,35.00 604.69,35.00 606.54,35.00 608.36,35.00 610.21,35.00 612.09,35.00 613.95,35.00 615.82,35.00 617.75,35.00 619.67,35.00 621.64,35.00 623.50,35.00 625.35,35.00 627.21,35.00 629.09,35.00 630.97,35.00 632.84,35.00 634.69,35.00 636.54,35.00 638.47,35.00 640.34,35.00 642.17,35.00 644.03,35.00 645.92,35.00 647.84,35.00 649.71,35.00 651.56,35.00 653.47,35.00 655.25,35.00 657.09,35.00 658.98,35.00 660.83,35.00 662.71,35.00 664.63,35.00 666.49,35.00 668.34,35.00 670.22,35.00 672.09,35.00 673.95,35.00 675.80,35.00 677.64,35.00 679.50,35.00 681.37,35.00 683.21,35.00 685.42,35.00 687.60,35.00 689.80,35.00 691.95,35.00 694.07,35.00 696.21,35.00 698.41,35.00 700.57,35.00 702.43,35.00 704.26,35.00 706.11,35.00 707.96,35.00 709.82,35.00 711.66,35.00 713.50,35.00 715.35,35.00 717.20,35.00 719.05,35.00 720.90,35.00 722.75,35.00 724.60,35.00 726.44,35.00 728.29,35.00 730.13,35.00 731.99,35.00 733.82,35.00 735.69,35.00 737.55,35.00 739.39,35.00 741.22,35.00 743.07,35.00 744.92,35.00 746.78,35.00 748.63,35.00 750.48,35.00 752.33,35.00 754.19,35.00 756.03,35.00 757.88,35.00 759.74,35.00 761.57,35.00 763.42,35.00 765.25,35.00 767.08,35.00 768.93,35.00 770.77,35.00 772.61,35.00 774.46,35.00 776.30,35.00 778.15,35.00 779.99,35.00 781.82,35.00 783.64,35.00 785.56,35.00 787.55,35.00 789.41,35.00 791.27,35.00 793.11,35.00 794.96,35.00 796.79,35.00 798.63,35.00 800.47,35.00 802.66,35.00 804.84,35.00 806.99,35.00 809.16,35.00 811.35,35.00 813.51,35.00 815.72,35.00 817.97,35.00 819.99,35.00 821.98,35.00 823.83,35.00 825.71,35.00 827.56,35.00 829.40,35.00 831.24,35.00 833.10,35.00 834.94,35.00 836.79,35.00 838.63,35.00 840.49,35.00 842.34,35.00 844.19,35.00 846.07,35.00 847.91,35.00 849.76,35.00 851.38,35.00 853.29,35.00 855.14,35.00 857.04,35.00 858.89,35.00 860.73,35.00 862.60,35.00 864.47,35.00 866.33,35.00 868.20,35.00 870.07,35.00 871.96,35.00 873.80,35.00 875.63,35.00 877.49,35.00 879.32,35.00 881.16,35.00 883.00,35.00 884.88,35.00 886.72,35.00 888.58,35.00 890.43,35.00 892.27,35.00 894.13,35.00 895.98,35.00 897.85,35.00 899.71,35.00 901.56,35.00 903.41,35.00 905.28,35.00 907.14,35.00 909.05,35.00 910.89,35.00 912.73,35.00 914.58,35.00 916.41,35.00 918.26,35.00 920.13,35.00 921.98,35.00 923.82,35.00 925.67,35.00 927.51,35.00 929.36,35.00 931.22,35.00 933.09,35.00 934.94,35.00 937.18,35.00 939.08,35.00 940.98,35.00 942.85,35.00 944.71,35.00 946.58,35.00 948.42,35.00 950.26,35.00 952.14,35.00 954.00,35.00 955.85,35.00 957.71,35.00 959.57,35.00 961.42,35.00 963.34,35.00 965.23,35.00 967.08,35.00 968.94,35.00 970.80,35.00 972.65,35.00 974.49,35.00 976.35,35.00 978.28,35.00 980.14,35.00 982.01,35.00 983.86,35.00 985.71,35.00 987.58,35.00 989.42,35.00 991.28,35.00 993.14,35.00 995.00,35.00 996.86,35.00 998.72,35.00 1000.56,35.00 1002.42,35.00 1004.27,35.00 1006.16,35.00 1008.02,35.00 1009.86,35.00 1011.71,35.00 1013.56,35.00 1015.45,35.00 1017.31,35.00 1019.54,35.00 1021.45,35.00 1023.30,35.00 1025.16,35.00 1027.00,35.00 1028.87,35.00 1030.72,35.00 1032.58,35.00 1034.48,35.00 1036.32,35.00 1038.17,35.00 1040.02,35.00 1041.87,35.00 1043.72,35.00 1045.57,35.00 1047.44,35.00 1049.28,35.00 1051.13,35.00 1052.98,35.00 1054.83,35.00 1056.71,35.00 1058.55,35.00 1060.40,35.00 1062.28,35.00 1064.15,35.00 1066.00,35.00 1067.85,35.00 1069.71,35.00 1071.62,35.00 1073.46,35.00 1075.32,35.00 1077.19,35.00 1079.04,35.00 1080.89,35.00 1082.75,35.00 1084.61,35.00 1086.51,35.00 1088.36,35.00 1090.21,35.00 1092.05,35.00 1093.90,35.00 1095.75,35.00 1097.61,35.00 1099.46,35.00 1101.33,35.00 1103.21,35.00 1105.08,35.00 1106.90,35.00 1108.77,35.00 1110.61,35.00 1112.48,35.00 1114.32,35.00 1116.18,35.00 1118.03,35.00 1119.91,35.00 1121.76,35.00 1123.61,35.00 1125.49,35.00 1127.36,35.00 1129.22,35.00 1131.08,35.00 1132.95,35.00 1135.04,35.00 1137.07,35.00 1139.06,35.00 1140.93,35.00 1142.87,35.00 1144.73,35.00 1146.59,35.00 1148.43,35.00 1150.16,35.00 1152.10,35.00 1153.96,35.00 1155.83,35.00 1157.66,35.00 1159.52,35.00 1161.37,35.00 1163.24,35.00 1165.09,35.00 1166.95,35.00 1168.80,35.00 1170.66,35.00 1172.52,35.00 1174.39,35.00 1176.26,35.00 1178.14,35.00 1180.00,35.00"/>
<rect x="70" y="332" width="12" height="12" fill="#2ca02c" fill-opacity="0.95"/>
<text x="88" y="342" font-size="11" fill="#333" font-family="Arial, Helvetica, sans-serif">nsc1.utdallas.edu</text>
<rect x="350" y="332" width="12" height="12" fill="#2ca02c" fill-opacity="0.80"/>
<text x="368" y="342" font-size="11" fill="#333" font-family="Arial, Helvetica, sans-serif">nsc2.utdallas.edu</text>
<rect x="630" y="332" width="12" height="12" fill="#2ca02c" fill-opacity="0.65"/>
<text x="648" y="342" font-size="11" fill="#333" font-family="Arial, Helvetica, sans-serif">nsc3.utdallas.edu</text>
<rect x="910" y="332" width="12" height="12" fill="#2ca02c" fill-opacity="0.50"/>
<text x="928" y="342" font-size="11" fill="#333" font-family="Arial, Helvetica, sans-serif">nsc4.utdallas.edu</text>
</svg>