<?xml version="1.0" encoding="UTF-8"?>
<svg xmlns="http://www.w3.org/2000/svg" width="1200" height="360" viewBox="0 0 1200 360" role="img" aria-label="Ping Uptime (%)">
<rect width="100%" height="100%" fill="#ffffff"/>
<text x="600.0" y="22" text-anchor="middle" font-size="16" font-family="Arial, Helvetica, sans-serif" font-weight="bold">Ping Uptime (%)</text>
<line x1="70" y1="35.00" x2="1180" y2="35.00" stroke="#e3e3e3" stroke-width="1"/>
<text x="62" y="39.00" text-anchor="end" font-size="11" fill="#444" font-family="Arial, Helvetica, sans-serif">100</text>
<line x1="70" y1="89.00" x2="1180" y2="89.00" stroke="#e3e3e3" stroke-width="1"/>
<text x="62" y="93.00" text-anchor="end" font-size="11" fill="#444" font-family="Arial, Helvetica, sans-serif">80</text>
<line x1="70" y1="143.00" x2="1180" y2="143.00" stroke="#e3e3e3" stroke-width="1"/>
<text x="62" y="147.00" text-anchor="end" font-size="11" fill="#444" font-family="Arial, Helvetica, sans-serif">60</text>
<line x1="70" y1="197.00" x2="1180" y2="197.00" stroke="#e3e3e3" stroke-width="1"/>
<text x="62" y="201.00" text-anchor="end" font-size="11" fill="#444" font-family="Arial, Helvetica, sans-serif">40</text>
<line x1="70" y1="251.00" x2="1180" y2="251.00" stroke="#e3e3e3" stroke-width="1"/>
<text x="62" y="255.00" text-anchor="end" font-size="11" fill="#444" font-family="Arial, Helvetica, sans-serif">20</text>
<line x1="70" y1="305.00" x2="1180" y2="305.00" stroke="#e3e3e3" stroke-width="1"/>
<text x="62" y="309.00" text-anchor="end" font-size="11" fill="#444" font-family="Arial, Helvetica, sans-serif">0</text>
<line x1="70" y1="35" x2="70" y2="305" stroke="#999"/>
<line x1="70" y1="305" x2="1180" y2="305" stroke="#999"/>
<text x="70.00" y="323" text-anchor="middle" font-size="10" fill="#444" font-family="Arial, Helvetica, sans-serif">2026-02-11 16:38</text>
<text x="347.50" y="323" text-anchor="middle" font-size="10" fill="#444" font-family="Arial, Helvetica, sans-serif">2026-02-13 06:17</text>
<text x="625.00" y="323" text-anchor="middle" font-size="10" fill="#444" font-family="Arial, Helvetica, sans-serif">2026-02-14 19:57</text>
<text x="902.50" y="323" text-anchor="middle" font-size="10" fill="#444" font-family="Arial, Helvetica, sans-serif">2026-02-16 09:37</text>
<text x="1180.00" y="323" text-anchor="middle" font-size="10" fill="#444" font-family="Arial, Helvetica, sans-serif">2026-02-17 23:17</text>
<polyline fill="none" stroke="#1f77b4" stroke-opacity="0.95" stroke-width="2" points="70.66,35.00 71.32,35.00 71.98,35.00 72.65,35.00 73.31,35.00 73.97,35.00 74.63,35.00 75.35,35.00 76.00,35.00 76.66,35.00 77.32,35.00 77.99,35.00 78.65,35.00 79.30,35.00 80.49,35.00 81.52,35.00 82.18,35.00 82.86,35.00 83.52,35.00 84.18,35.00 84.83,35.00 85.49,35.00 86.15,35.00 86.82,35.00 87.48,35.00 88.16,35.00 88.82,35.00 89.48,35.00 90.18,35.00 90.84,35.00 91.50,35.00 92.18,35.00 92.84,35.00 93.50,35.00 94.18,35.00 94.84,35.00 95.50,35.00 96.17,35.00 96.83,35.00 97.49,35.00 98.14,35.00 98.80,35.00 99.46,35.00 100.12,35.00 100.79,35.00 101.46,35.00 102.11,35.00 102.77,35.00 103.44,35.00 104.10,35.00 104.86,35.00 105.52,35.00 106.18,35.00 106.83,35.00 107.49,35.00 108.14,35.00 108.80,35.00 109.46,35.00 110.12,35.00 110.80,35.00 111.45,35.00 112.11,35.00 112.77,35.00 113.44,35.00 114.10,35.00 114.76,35.00 115.42,35.00 116.07,35.00 116.73,35.00 117.38,35.00 118.04,35.00 118.70,35.00 119.36,35.00 120.02,35.00 120.68,35.00 121.33,35.00 122.00,35.00 122.65,35.00 123.31,35.00 123.99,35.00 124.65,35.00 125.31,35.00 125.97,35.00 126.63,35.00 127.29,35.00 127.95,35.00 128.60,35.00 129.26,35.00 129.92,35.00 130.59,35.00 131.25,35.00 131.92,35.00 132.57,35.00 133.23,35.00 133.89,35.00 134.54,35.00 135.20,35.00 135.86,35.00 136.52,35.00 137.18,35.00 137.84,35.00 138.50,35.00 139.16,35.00 139.83,35.00 140.50,35.00 141.16,35.00 141.81,35.00 142.47,35.00 143.13,35.00 143.80,35.00 144.46,35.00 145.12,35.00 145.78,35.00 146.44,35.00 147.10,35.00 147.77,35.00 148.44,35.00 149.10,35.00 149.76,35.00 150.42,35.00 151.08,35.00 151.74,35.00 152.40,35.00 153.12,35.00 153.77,35.00 154.44,35.00 155.10,35.00 155.76,35.00 156.41,35.00 157.06,35.00 157.72,35.00 158.38,35.00 159.04,35.00 159.70,35.00 160.36,35.00 161.01,35.00 161.67,35.00 162.34,35.00 163.00,35.00 163.66,35.00 164.32,35.00 164.98,35.00 165.63,35.00 166.30,35.00 166.96,35.00 167.62,35.00 168.28,35.00 168.94,35.00 169.60,35.00 170.25,35.00 170.91,35.00 171.57,35.00 172.23,35.00 172.90,35.00 173.56,35.00 174.22,35.00 174.89,35.00 175.55,35.00 176.20,35.00 176.87,35.00 177.53,35.00 178.20,35.00 178.87,35.00 179.53,35.00 180.19,35.00 180.84,35.00 181.50,35.00 182.16,35.00 182.82,35.00 183.48,35.00 184.13,35.00 184.78,35.00 185.45,35.00 186.11,35.00 186.78,35.00 187.44,35.00 188.11,35.00 188.77,35.00 189.43,35.00 190.09,35.00 190.74,35.00 191.46,35.00 192.13,35.00 192.79,35.00 193.45,35.00 194.10,35.00 194.76,35.00 195.42,35.00 196.08,35.00 196.74,35.00 197.40,35.00 198.06,35.00 198.72,35.00 199.39,35.00 200.05,35.00 200.71,35.00 201.37,35.00 202.03,35.00 202.71,35.00 203.38,35.00 204.04,35.00 204.70,35.00 205.36,35.00 206.02,35.00 206.68,35.00 207.34,35.00 208.01,35.00 208.67,35.00 209.32,35.00 209.99,35.00 210.65,35.00 211.31,35.00 211.97,35.00 212.64,35.00 213.30,35.00 213.96,35.00 214.61,35.00 215.27,35.00 215.93,35.00 216.59,35.00 217.25,35.00 217.91,35.00 218.56,35.00 219.22,35.00 219.88,35.00 220.54,35.00 221.21,35.00 221.88,35.00 222.54,35.00 223.20,35.00 223.86,35.00 224.52,35.00 225.18,35.00 225.84,35.00 226.50,35.00 227.18,35.00 227.84,35.00 228.50,35.00 229.16,35.00 229.82,35.00 230.48,35.00 231.14,35.00 231.80,35.00 232.46,35.00 233.12,35.00 233.78,35.00 234.44,35.00 235.11,35.00 235.77,35.00 236.43,35.00 237.09,35.00 237.76,35.00 238.42,35.00 239.08,35.00 239.74,35.00 240.41,35.00 241.07,35.00 241.73,35.00 242.39,35.00 243.12,35.00 243.79,35.00 244.45,35.00 245.11,35.00 245.78,35.00 246.44,35.00 247.10,35.00 247.76,35.00 248.42,35.00 249.10,35.00 249.77,35.00 250.42,35.00 251.08,35.00 251.74,35.00 252.41,35.00 253.07,35.00 253.75,35.00 254.41,35.00 255.07,35.00 255.74,35.00 256.45,35.00 257.11,35.00 257.95,35.00 259.06,35.00 259.74,35.00 260.41,35.00 261.07,35.00 261.72,35.00 262.38,35.00 263.05,35.00 263.71,35.00 264.38,35.00 265.06,35.00 265.75,35.00 266.45,35.00 267.11,35.00 267.77,35.00 268.43,35.00 269.10,35.00 269.77,35.00 270.44,35.00 271.09,35.00 271.75,35.00 272.44,35.00 273.11,35.00 273.76,35.00 274.42,35.00 275.09,35.00 275.78,35.00 276.44,35.00 277.11,35.00 277.78,35.00 278.42,35.00 279.07,35.00 279.75,35.00 280.40,35.00 281.08,35.00 281.76,35.00 282.42,35.00 283.08,35.00 283.75,35.00 284.42,35.00 285.08,35.00 285.74,35.00 286.39,35.00 287.06,35.00 287.72,35.00 288.37,35.00 289.16,35.00 289.94,35.00 290.72,35.00 291.49,35.00 292.24,35.00 293.00,35.00 293.79,35.00 294.56,35.00 295.22,35.00 295.87,35.00 296.53,35.00 297.19,35.00 297.85,35.00 298.51,35.00 299.16,35.00 299.82,35.00 300.48,35.00 301.14,35.00 301.80,35.00 302.46,35.00 303.11,35.00 303.77,35.00 304.43,35.00 305.08,35.00 305.75,35.00 306.40,35.00 307.06,35.00 307.73,35.00 308.38,35.00 309.03,35.00 309.69,35.00 310.35,35.00 311.01,35.00 311.67,35.00 312.33,35.00 312.99,35.00 313.65,35.00 314.31,35.00 314.97,35.00 315.63,35.00 316.28,35.00 316.94,35.00 317.59,35.00 318.24,35.00 318.90,35.00 319.56,35.00 320.21,35.00 320.87,35.00 321.53,35.00 322.19,35.00 322.84,35.00 323.49,35.00 324.14,35.00 324.82,35.00 325.53,35.00 326.19,35.00 326.86,35.00 327.51,35.00 328.17,35.00 328.82,35.00 329.48,35.00 330.13,35.00 330.91,35.00 331.69,35.00 332.46,35.00 333.23,35.00 334.01,35.00 334.78,35.00 335.56,35.00 336.36,35.00 337.08,35.00 337.79,35.00 338.45,35.00 339.12,35.00 339.78,35.00 340.43,35.00 341.09,35.00 341.75,35.00 342.41,35.00 343.07,35.00 343.72,35.00 344.38,35.00 345.05,35.00 345.70,35.00 346.37,35.00 347.03,35.00 347.69,35.00 348.26,35.00 348.94,35.00 349.60,35.00 350.28,35.00 350.94,35.00 351.59,35.00 352.26,35.00 352.92,35.00 353.59,35.00 354.25,35.00 354.92,35.00 355.59,35.00 356.25,35.00 356.90,35.00 357.56,35.00 358.21,35.00 358.87,35.00 359.52,35.00 360.19,35.00 360.85,35.00 361.51,35.00 362.17,35.00 362.82,35.00 363.49,35.00 364.15,35.00 364.81,35.00 365.48,35.00 366.13,35.00 366.79,35.00 367.46,35.00 368.12,35.00 368.80,35.00 369.45,35.00 370.11,35.00 370.77,35.00 371.42,35.00 372.08,35.00 372.75,35.00 373.40,35.00 374.06,35.00 374.72,35.00 375.37,35.00 376.03,35.00 376.70,35.00 377.36,35.00 378.02,35.00 378.82,35.00 379.49,35.00 380.17,35.00 380.84,35.00 381.50,35.00 382.17,35.00 382.82,35.00 383.48,35.00 384.14,35.00 384.81,35.00 385.47,35.00 386.13,35.00 386.79,35.00 387.45,35.00 388.13,35.00 388.81,35.00 389.47,35.00 390.13,35.00 390.79,35.00 391.45,35.00 392.10,35.00 392.77,35.00 393.45,35.00 394.12,35.00 394.78,35.00 395.44,35.00 396.10,35.00 396.76,35.00 397.42,35.00 398.08,35.00 398.75,35.00 399.41,35.00 400.07,35.00 400.73,35.00 401.39,35.00 402.05,35.00 402.71,35.00 403.38,35.00 404.04,35.00 404.70,35.00 405.36,35.00 406.02,35.00 406.69,35.00 407.35,35.00 408.15,35.00 408.83,35.00 409.49,35.00 410.15,35.00 410.80,35.00 411.47,35.00 412.13,35.00 412.79,35.00 413.47,35.00 414.12,35.00 414.78,35.00 415.44,35.00 416.10,35.00 416.76,35.00 417.42,35.00 418.08,35.00 418.74,35.00 419.40,35.00 420.06,35.00 420.72,35.00 421.38,35.00 422.04,35.00 422.70,35.00 423.37,35.00 424.03,35.00 424.69,35.00 425.35,35.00 426.01,35.00 426.69,35.00 427.35,35.00 428.01,35.00 428.68,35.00 429.34,35.00 429.99,35.00 430.66,35.00 431.32,35.00 432.00,35.00 432.66,35.00 433.32,35.00 433.97,35.00 434.63,35.00 435.29,35.00 435.95,35.00 436.61,35.00 437.28,35.00 437.94,35.00 438.61,35.00 439.26,35.00 439.93,35.00 440.58,35.00 441.24,35.00 441.90,35.00 442.56,35.00 443.22,35.00 443.89,35.00 444.55,35.00 445.21,35.00 445.88,35.00 446.54,35.00 447.21,35.00 447.87,35.00 448.54,35.00 449.28,35.00 450.00,35.00 450.71,35.00 451.38,35.00 452.07,35.00 452.73,35.00 453.39,35.00 454.05,35.00 454.66,35.00 455.35,35.00 456.02,35.00 456.68,35.00 457.34,35.00 458.00,35.00 458.66,35.00 459.32,35.00 459.98,35.00 460.64,35.00 461.30,35.00 461.96,35.00 462.63,35.00 463.29,35.00 463.96,35.00 464.63,35.00 465.29,35.00 465.95,35.00 466.61,35.00 467.29,35.00 467.95,35.00 468.61,35.00 469.27,35.00 469.93,35.00 470.59,35.00 471.25,35.00 471.91,35.00 472.57,35.00 473.24,35.00 473.90,35.00 474.56,35.00 475.22,35.00 475.88,35.00 476.55,35.00 477.21,35.00 477.87,35.00 478.53,35.00 479.20,35.00 479.86,35.00 480.53,35.00 481.19,35.00 481.86,35.00 482.52,35.00 483.18,35.00 483.84,35.00 484.51,35.00 485.19,35.00 485.86,35.00 486.52,35.00 487.18,35.00 487.84,35.00 488.50,35.00 489.17,35.00 489.83,35.00 490.50,35.00 491.16,35.00 491.82,35.00 492.49,35.00 493.15,35.00 493.82,35.00 494.48,35.00 495.15,35.00 495.81,35.00 496.48,35.00 497.15,35.00 497.81,35.00 498.47,35.00 499.13,35.00 499.80,35.00 500.47,35.00 501.14,35.00 501.81,35.00 502.47,35.00 503.13,35.00 503.79,35.00 504.45,35.00 505.12,35.00 505.78,35.00 506.44,35.00 507.10,35.00 507.76,35.00 508.43,35.00 509.10,35.00 509.76,35.00 510.42,35.00 511.09,35.00 511.75,35.00 512.42,35.00 513.08,35.00 513.74,35.00 514.40,35.00 515.06,35.00 515.72,35.00 516.38,35.00 517.05,35.00 517.71,35.00 518.38,35.00 519.04,35.00 519.71,35.00 520.38,35.00 521.04,35.00 521.70,35.00 522.37,35.00 523.03,35.00 523.70,35.00 524.36,35.00 525.03,35.00 525.70,35.00 526.36,35.00 527.04,35.00 527.71,35.00 528.37,35.00 529.04,35.00 529.70,35.00 530.36,35.00 531.03,35.00 531.70,35.00 532.36,35.00 533.03,35.00 533.69,35.00 534.35,35.00 535.03,35.00 535.69,35.00 536.36,35.00 537.02,35.00 537.68,35.00 538.34,35.00 538.99,35.00 539.65,35.00 540.32,35.00 540.98,35.00 541.65,35.00 542.31,35.00 542.97,35.00 543.63,35.00 544.32,35.00 544.98,35.00 545.64,35.00 546.31,35.00 546.96,35.00 547.63,35.00 548.29,35.00 548.96,35.00 549.62,35.00 550.28,35.00 550.95,35.00 551.61,35.00 552.27,35.00 552.94,35.00 553.61,35.00 554.29,35.00 554.96,35.00 555.63,35.00 556.29,35.00 556.96,35.00 557.63,35.00 558.28,35.00 558.94,35.00 559.60,35.00 560.27,35.00 560.94,35.00 561.61,35.00 562.27,35.00 562.94,35.00 563.63,35.00 564.29,35.00 564.96,35.00 565.62,35.00 566.28,35.00 566.95,35.00 567.62,35.00 568.29,35.00 568.95,35.00 569.63,35.00 570.29,35.00 570.96,35.00 571.62,35.00 572.29,35.00 572.95,35.00 573.61,35.00 574.28,35.00 574.94,35.00 575.61,35.00 576.28,35.00 576.94,35.00 577.61,35.00 578.27,35.00 578.94,35.00 579.60,35.00 580.27,35.00 580.96,35.00 581.62,35.00 582.29,35.00 582.96,35.00 583.64,35.00 584.32,35.00 584.99,35.00 585.67,35.00 586.35,35.00 587.02,35.00 587.68,35.00 588.34,35.00 589.01,35.00 589.68,35.00 590.35,35.00 591.03,35.00 591.69,35.00 592.36,35.00 593.02,35.00 593.68,35.00 594.34,35.00 595.01,35.00 595.67,35.00 596.33,35.00 597.00,35.00 597.66,35.00 598.32,35.00 598.97,35.00 599.64,35.00 600.30,35.00 600.97,35.00 601.63,35.00 602.30,35.00 602.97,35.00 603.63,35.00 604.30,35.00 604.96,35.00 605.63,35.00 606.29,35.00 606.95,35.00 607.62,35.00 608.28,35.00 608.94,35.00 609.60,35.00 610.26,35.00 610.92,35.00 611.59,35.00 612.25,35.00 612.91,35.00 613.58,35.00 614.24,35.00 614.90,35.00 615.57,35.00 616.23,35.00 616.88,35.00 617.54,35.00 618.19,35.00 618.86,35.00 619.52,35.00 620.20,35.00 620.86,35.00 621.52,35.00 622.19,35.00 622.86,35.00 623.53,35.00 624.19,35.00 624.86,35.00 625.52,35.00 626.18,35.00 626.86,35.00 627.52,35.00 628.19,35.00 628.86,35.00 629.52,35.00 630.18,35.00 630.84,35.00 631.50,35.00 632.17,35.00 632.83,35.00 633.48,35.00 634.15,35.00 634.81,35.00 635.48,35.00 636.14,35.00 636.80,35.00 637.46,35.00 638.13,35.00 638.79,35.00 639.46,35.00 640.12,35.00 640.79,35.00 641.45,35.00 642.12,35.00 642.78,35.00 643.44,35.00 644.11,35.00 644.77,35.00 645.43,35.00 646.10,35.00 646.77,35.00 647.43,35.00 648.09,35.00 648.75,35.00 649.44,35.00 650.10,35.00 650.77,35.00 651.45,35.00 652.11,35.00 652.78,35.00 653.44,35.00 654.11,35.00 654.77,35.00 655.43,35.00 656.10,35.00 656.78,35.00 657.45,35.00 658.11,35.00 658.78,35.00 659.44,35.00 660.11,35.00 660.77,35.00 661.43,35.00 662.09,35.00 662.76,35.00 663.42,35.00 664.08,35.00 664.74,35.00 665.41,35.00 666.07,35.00 666.73,35.00 667.39,35.00 668.05,35.00 668.72,35.00 669.39,35.00 670.05,35.00 670.71,35.00 671.38,35.00 672.04,35.00 672.70,35.00 673.37,35.00 674.03,35.00 674.70,35.00 675.37,35.00 676.02,35.00 676.68,35.00 677.35,35.00 678.01,35.00 678.67,35.00 679.35,35.00 680.03,35.00 680.70,35.00 681.38,35.00 682.05,35.00 682.73,35.00 683.41,35.00 684.09,35.00 684.78,35.00 685.45,35.00 686.14,35.00 686.80,35.00 687.46,35.00 688.13,35.00 688.80,35.00 689.46,35.00 690.13,35.00 690.79,35.00 691.46,35.00 692.13,35.00 692.79,35.00 693.45,35.00 694.11,35.00 694.78,35.00 695.43,35.00 696.10,35.00 696.77,35.00 697.43,35.00 698.09,35.00 698.77,35.00 699.43,35.00 700.10,35.00 700.76,35.00 701.42,35.00 702.09,35.00 702.75,35.00 703.42,35.00 704.08,35.00 704.74,35.00 705.41,35.00 706.07,35.00 706.73,35.00 707.40,35.00 708.06,35.00 708.73,35.00 709.44,35.00 710.12,35.00 710.78,35.00 711.45,35.00 712.11,35.00 712.78,35.00 713.45,35.00 714.12,35.00 714.79,35.00 715.45,35.00 716.10,35.00 716.76,35.00 717.42,35.00 718.09,35.00 718.75,35.00 719.42,35.00 720.09,35.00 720.75,35.00 721.42,35.00 722.08,35.00 722.74,35.00 723.40,35.00 724.07,35.00 724.74,35.00 725.40,35.00 726.06,35.00 726.73,35.00 727.40,35.00 728.06,35.00 728.75,35.00 729.42,35.00 730.08,35.00 730.74,35.00 731.41,35.00 732.07,35.00 732.74,35.00 733.41,35.00 734.07,35.00 734.74,35.00 735.40,35.00 736.08,35.00 736.75,35.00 737.41,35.00 738.08,35.00 738.74,35.00 739.40,35.00 740.07,35.00 740.73,35.00 741.39,35.00 742.07,35.00 742.73,35.00 743.39,35.00 744.06,35.00 744.72,35.00 745.38,35.00 746.05,35.00 746.71,35.00 747.37,35.00 748.04,35.00 748.70,35.00 749.36,35.00 750.03,35.00 750.69,35.00 751.36,35.00 752.02,35.00 752.69,35.00 753.35,35.00 754.01,35.00 754.67,35.00 755.33,35.00 756.00,35.00 756.66,35.00 757.34,35.00 758.01,35.00 758.67,35.00 759.34,35.00 760.00,35.00 760.68,35.00 761.39,35.00 762.07,35.00 762.74,35.00 763.41,35.00 764.08,35.00 764.74,35.00 765.41,35.00 766.07,35.00 766.74,35.00 767.40,35.00 768.07,35.00 768.73,35.00 769.40,35.00 770.08,35.00 770.74,35.00 771.41,35.00 772.07,35.00 772.74,35.00 773.40,35.00 774.07,35.00 774.73,35.00 775.40,35.00 776.07,35.00 776.73,35.00 777.40,35.00 778.07,35.00 778.73,35.00 779.40,35.00 780.07,35.00 780.74,35.00 781.41,35.00 782.07,35.00 782.73,35.00 783.40,35.00 784.06,35.00 784.72,35.00 785.39,35.00 786.05,35.00 786.72,35.00 787.39,35.00 788.04,35.00 788.71,35.00 789.38,35.00 790.05,35.00 790.70,35.00 791.37,35.00 792.04,35.00 792.71,35.00 793.38,35.00 794.03,35.00 794.68,35.00 795.34,35.00 796.00,35.00 796.67,35.00 797.34,35.00 798.01,35.00 798.67,35.00 799.34,35.00 800.02,35.00 800.67,35.00 801.34,35.00 802.00,35.00 802.66,35.00 803.32,35.00 803.98,35.00 804.64,35.00 805.31,35.00 805.97,35.00 806.63,35.00 807.29,35.00 807.96,35.00 808.63,35.00 809.29,35.00 809.95,35.00 810.61,35.00 811.25,35.00 811.93,35.00 812.59,35.00 813.26,35.00 813.93,35.00 814.60,35.00 815.26,35.00 815.92,35.00 816.59,35.00 817.26,35.00 817.92,35.00 818.58,35.00 819.30,35.00 819.96,35.00 820.63,35.00 821.30,35.00 821.97,35.00 822.63,35.00 823.29,35.00 823.96,35.00 824.62,35.00 825.28,35.00 825.95,35.00 826.61,35.00 827.28,35.00 827.95,35.00 828.61,35.00 829.27,35.00 829.94,35.00 830.60,35.00 831.27,35.00 831.94,35.00 832.60,35.00 833.28,35.00 833.96,35.00 834.62,35.00 835.29,35.00 835.95,35.00 836.62,35.00 837.29,35.00 837.96,35.00 838.62,35.00 839.28,35.00 839.95,35.00 840.61,35.00 841.28,35.00 841.94,35.00 842.61,35.00 843.27,35.00 843.94,35.00 844.59,35.00 845.26,35.00 845.92,35.00 846.59,35.00 847.25,35.00 847.91,35.00 848.58,35.00 849.23,35.00 849.89,35.00 850.55,35.00 851.22,35.00 851.88,35.00 852.54,35.00 853.20,35.00 853.86,35.00 854.52,35.00 855.18,35.00 855.84,35.00 856.51,35.00 857.17,35.00 857.83,35.00 858.49,35.00 859.15,35.00 859.83,35.00 860.48,35.00 861.15,35.00 861.81,35.00 862.51,35.00 863.16,35.00 863.83,35.00 864.50,35.00 865.17,35.00 865.83,35.00 866.50,35.00 867.17,35.00 867.83,35.00 868.49,35.00 869.15,35.00 869.81,35.00 870.48,35.00 871.14,35.00 871.81,35.00 872.47,35.00 873.13,35.00 873.79,35.00 874.45,35.00 875.12,35.00 875.79,35.00 876.48,35.00 877.14,35.00 877.80,35.00 878.46,35.00 879.11,35.00 879.79,35.00 880.45,35.00 881.11,35.00 881.78,35.00 882.45,35.00 883.11,35.00 883.78,35.00 884.44,35.00 885.11,35.00 885.77,35.00 886.43,35.00 887.10,35.00 887.76,35.00 888.42,35.00 889.08,35.00 889.74,35.00 890.41,35.00 891.07,35.00 891.73,35.00 892.39,35.00 893.06,35.00 893.72,35.00 894.38,35.00 895.05,35.00 895.71,35.00 896.37,35.00 897.04,35.00 897.70,35.00 898.37,35.00 899.03,35.00 899.69,35.00 900.36,35.00 901.02,35.00 901.67,35.00 902.34,35.00 903.01,35.00 903.66,35.00 904.35,35.00 905.01,35.00 905.67,35.00 906.33,35.00 907.00,35.00 907.67,35.00 908.34,35.00 909.01,35.00 909.72,35.00 910.38,35.00 911.10,35.00 911.76,35.00 912.42,35.00 913.08,35.00 913.74,35.00 914.40,35.00 915.07,35.00 915.73,35.00 916.39,35.00 917.06,35.00 917.72,35.00 918.38,35.00 919.05,35.00 919.71,35.00 920.37,35.00 921.03,35.00 921.69,35.00 922.35,35.00 923.02,35.00 923.68,35.00 924.35,35.00 925.01,35.00 925.67,35.00 926.33,35.00 927.00,35.00 927.67,35.00 928.33,35.00 928.99,35.00 929.66,35.00 930.32,35.00 930.98,35.00 931.64,35.00 932.31,35.00 932.97,35.00 933.63,35.00 934.29,35.00 934.94,35.00 935.60,35.00 936.27,35.00 936.93,35.00 937.59,35.00 938.26,35.00 938.95,35.00 939.62,35.00 940.28,35.00 940.94,35.00 941.60,35.00 942.25,35.00 942.91,35.00 943.58,35.00 944.24,35.00 944.90,35.00 945.56,35.00 946.22,35.00 946.87,35.00 947.54,35.00 948.20,35.00 948.86,35.00 949.52,35.00 950.19,35.00 950.85,35.00 951.51,35.00 952.18,35.00 952.84,35.00 953.50,35.00 954.17,35.00 954.83,35.00 955.49,35.00 956.16,35.00 956.83,35.00 957.50,35.00 958.16,35.00 958.82,35.00 959.48,35.00 960.15,35.00 960.81,35.00 961.49,35.00 962.15,35.00 962.82,35.00 963.49,35.00 964.15,35.00 964.82,35.00 965.48,35.00 966.14,35.00 966.81,35.00 967.48,35.00 968.13,35.00 968.80,35.00 969.47,35.00 970.13,35.00 970.80,35.00 971.47,35.00 972.16,35.00 972.86,35.00 973.53,35.00 974.19,35.00 974.85,35.00 975.51,35.00 976.18,35.00 976.84,35.00 977.50,35.00 978.17,35.00 978.84,35.00 979.51,35.00 980.16,35.00 980.82,35.00 981.49,35.00 982.15,35.00 982.82,35.00 983.50,35.00 984.18,35.00 984.84,35.00 985.52,35.00 986.21,35.00 986.88,35.00 987.58,35.00 988.25,35.00 988.91,35.00 989.58,35.00 990.24,35.00 990.91,35.00 991.57,35.00 992.23,35.00 992.89,35.00 993.55,35.00 994.22,35.00 994.90,35.00 995.56,35.00 996.23,35.00 996.90,35.00 997.68,35.00 998.34,35.00 999.00,35.00 999.66,35.00 1000.32,35.00 1000.98,35.00 1001.63,35.00 1002.25,35.00 1002.84,35.00 1003.56,35.00 1004.18,35.00 1004.79,35.00 1005.47,35.00 1006.04,35.00 1006.70,35.00 1007.37,35.00 1008.03,35.00 1008.69,35.00 1009.35,35.00 1010.01,35.00 1010.67,35.00 1011.33,35.00 1012.00,35.00 1012.66,35.00 1013.32,35.00 1013.98,35.00 1014.65,35.00 1015.30,35.00 1015.96,35.00 1016.62,35.00 1017.28,35.00 1017.93,35.00 1018.59,35.00 1019.26,35.00 1019.92,35.00 1020.58,35.00 1021.25,35.00 1021.91,35.00 1022.56,35.00 1023.22,35.00 1023.88,35.00 1024.54,35.00 1025.20,35.00 1025.86,35.00 1026.52,35.00 1027.18,35.00 1027.84,35.00 1028.50,35.00 1029.16,35.00 1029.82,35.00 1030.48,35.00 1031.14,35.00 1031.81,35.00 1032.46,35.00 1033.13,35.00 1033.79,35.00 1034.45,35.00 1035.11,35.00 1035.76,35.00 1036.42,35.00 1037.08,35.00 1037.74,35.00 1038.39,35.00 1039.05,35.00 1039.73,35.00 1040.39,35.00 1041.05,35.00 1041.71,35.00 1042.37,35.00 1043.04,35.00 1043.70,35.00 1044.37,35.00 1045.03,35.00 1045.69,35.00 1046.35,35.00 1047.01,35.00 1047.67,35.00 1048.33,35.00 1048.99,35.00 1049.65,35.00 1050.31,35.00 1050.98,35.00 1051.63,35.00 1052.30,35.00 1052.96,35.00 1053.62,35.00 1054.28,35.00 1054.94,35.00 1055.60,35.00 1056.27,35.00 1056.93,35.00 1057.65,35.00 1058.31,35.00 1058.98,35.00 1059.64,35.00 1060.30,35.00 1060.96,35.00 1061.61,35.00 1062.28,35.00 1063.21,35.00 1063.87,35.00 1064.79,35.00 1065.45,35.00 1066.11,35.00 1066.78,35.00 1067.44,35.00 1068.10,35.00 1068.76,35.00 1069.41,35.00 1070.07,35.00 1070.73,35.00 1071.39,35.00 1072.05,35.00 1072.71,35.00 1073.38,35.00 1074.05,35.00 1074.71,35.00 1075.37,35.00 1076.03,35.00 1076.69,35.00 1077.37,35.00 1078.02,35.00 1078.68,35.00 1079.35,35.00 1080.01,35.00 1080.67,35.00 1081.33,35.00 1082.00,35.00 1082.66,35.00 1083.32,35.00 1083.98,35.00 1084.65,35.00 1085.33,35.00 1086.01,35.00 1086.68,35.00 1087.37,35.00 1088.03,35.00 1088.69,35.00 1089.36,35.00 1090.02,35.00 1090.68,35.00 1091.35,35.00 1092.00,35.00 1092.66,35.00 1093.34,35.00 1094.00,35.00 1094.67,35.00 1095.34,35.00 1096.00,35.00 1096.67,35.00 1097.33,35.00 1097.99,35.00 1098.66,35.00 1099.32,35.00 1099.99,35.00 1100.66,35.00 1101.32,35.00 1102.00,35.00 1102.66,35.00 1103.32,35.00 1103.98,35.00 1104.65,35.00 1105.31,35.00 1105.99,35.00 1106.66,35.00 1107.32,35.00 1107.99,35.00 1108.65,35.00 1109.31,35.00 1109.97,35.00 1110.64,35.00 1111.30,35.00 1111.96,35.00 1112.62,35.00 1113.29,35.00 1113.94,35.00 1114.61,35.00 1115.29,35.00 1115.96,35.00 1116.63,35.00 1117.29,35.00 1117.95,35.00 1118.61,35.00 1119.28,35.00 1119.94,35.00 1120.60,35.00 1121.26,35.00 1121.93,35.00 1122.59,35.00 1123.26,35.00 1123.93,35.00 1124.59,35.00 1125.25,35.00 1125.91,35.00 1126.58,35.00 1127.24,35.00 1127.91,35.00 1128.58,35.00 1129.24,35.00 1129.91,35.00 1130.58,35.00 1131.24,35.00 1131.90,35.00 1132.58,35.00 1133.24,35.00 1133.91,35.00 1134.58,35.00 1135.24,35.00 1135.90,35.00 1136.56,35.00 1137.22,35.00 1137.90,35.00 1138.57,35.00 1139.24,35.00 1139.92,35.00 1140.58,35.00 1141.25,35.00 1141.91,35.00 1142.58,35.00 1143.24,35.00 1143.91,35.00 1144.57,35.00 1145.24,35.00 1145.91,35.00 1146.57,35.00 1147.24,35.00 1147.90,35.00 1148.57,35.00 1149.23,35.00 1149.89,35.00 1150.57,35.00 1151.24,35.00 1151.91,35.00 1152.57,35.00 1153.25,35.00 1153.91,35.00 1154.57,35.00 1155.23,35.00 1155.90,35.00 1156.59,35.00 1157.26,35.00 1157.91,35.00 1158.59,35.00 1159.25,35.00 1159.91,35.00 1160.60,35.00 1161.27,35.00 1161.94,35.00 1162.61,35.00 1163.28,35.00 1163.95,35.00 1164.66,35.00 1165.31,35.00 1165.99,35.00 1166.65,35.00 1167.31,35.00 1167.97,35.00 1168.64,35.00 1169.31,35.00 1169.98,35.00 1170.64,35.00 1171.33,35.00 1171.99,35.00 1172.66,35.00 1173.32,35.00 1173.99,35.00 1174.65,35.00 1175.34,35.00 1176.00,35.00 1176.66,35.00 1177.33,35.00 1177.99,35.00 1178.65,35.00 1179.33,35.00 1180.00,35.00"/>
<polyline fill="none" stroke="#1f77b4" stroke-opacity="0.80" stroke-width="2" points="70.00,35.00 70.66,35.00 71.32,35.00 71.98,35.00 72.65,35.00 73.31,35.00 73.97,35.00 74.63,35.00 75.35,35.00 76.00,35.00 76.66,35.00 77.32,35.00 77.99,35.00 78.65,35.00 79.30,35.00 80.49,35.00 81.52,35.00 82.18,35.00 82.86,35.00 83.52,35.00 84.18,35.00 84.83,35.00 85.49,35.00 86.15,35.00 86.82,35.00 87.48,35.00 88.16,35.00 88.82,35.00 89.48,35.00 90.18,35.00 90.84,35.00 91.50,35.00 92.18,35.00 92.84,35.00 93.50,35.00 94.18,35.00 94.84,35.00 95.50,35.00 96.17,35.00 96.83,35.00 97.49,35.00 98.14,35.00 98.80,35.00 99.46,35.00 100.12,35.00 100.79,35.00 101.46,35.00 102.11,35.00 102.77,35.00 103.44,35.00 104.10,35.00 104.86,35.00 105.52,35.00 106.18,35.00 106.83,35.00 107.49,35.00 108.14,35.00 108.80,35.00 109.46,35.00 110.12,35.00 110.80,35.00 111.45,35.00 112.11,35.00 112.77,35.00 113.44,35.00 114.10,35.00 114.76,35.00 115.42,35.00 116.07,35.00 116.73,35.00 117.38,35.00 118.04,35.00 118.70,35.00 119.36,35.00 120.02,35.00 120.68,35.00 121.33,35.00 122.00,35.00 122.65,35.00 123.31,35.00 123.99,35.00 124.65,35.00 125.31,35.00 125.97,35.00 126.63,35.00 127.29,35.00 127.95,35.00 128.60,35.00 129.26,35.00 129.92,35.00 130.59,35.00 131.25,35.00 131.92,35.00 132.57,35.00 133.23,35.00 133.89,35.00 134.54,35.00 135.20,35.00 135.86,35.00 136.52,35.00 137.18,35.00 137.84,35.00 138.50,35.00 139.16,35.00 139.83,35.00 140.50,35.00 141.16,35.00 141.81,35.00 142.47,35.00 143.13,35.00 143.80,35.00 144.46,35.00 145.12,35.00 145.78,35.00 146.44,35.00 147.10,35.00 147.77,35.00 148.44,35.00 149.10,35.00 149.76,35.00 150.42,35.00 151.08,35.00 151.74,35.00 152.40,35.00 153.12,35.00 153.77,35.00 154.44,35.00 155.10,35.00 155.76,35.00 156.41,35.00 157.06,35.00 157.72,35.00 158.38,35.00 159.04,35.00 159.70,35.00 160.36,35.00 161.01,35.00 161.67,35.00 162.34,35.00 163.00,35.00 163.66,35.00 164.32,35.00 164.98,35.00 165.63,35.00 166.30,35.00 166.96,35.00 167.62,35.00 168.28,35.00 168.94,35.00 169.60,35.00 170.25,35.00 170.91,35.00 171.57,35.00 172.23,35.00 172.90,35.00 173.56,35.00 174.22,35.00 174.89,35.00 175.55,35.00 176.20,35.00 176.87,35.00 177.53,35.00 178.20,35.00 178.87,35.00 179.53,35.00 180.19,35.00 180.84,35.00 181.50,35.00 182.16,35.00 182.82,35.00 183.48,35.00 184.13,35.00 184.78,35.00 185.45,35.00 186.11,35.00 186.78,35.00 187.44,35.00 188.11,35.00 188.77,35.00 189.43,35.00 190.09,35.00 190.74,35.00 191.46,35.00 192.13,35.00 192.79,35.00 193.45,35.00 194.10,35.00 194.76,35.00 195.42,35.00 196.08,35.00 196.74,35.00 197.40,35.00 198.06,35.00 198.72,35.00 199.39,35.00 200.05,35.00 200.71,35.00 201.37,35.00 202.03,35.00 202.71,35.00 203.38,35.00 204.04,35.00 204.70,35.00 205.36,35.00 206.02,35.00 206.68,35.00 207.34,35.00 208.01,35.00 208.67,35.00 209.32,35.00 209.99,35.00 210.65,35.00 211.31,35.00 211.97,35.00 212.64,35.00 213.30,35.00 213.96,35.00 214.61,35.00 215.27,35.00 215.93,35.00 216.59,35.00 217.25,35.00 217.91,35.00 218.56,35.00 219.22,35.00 219.88,35.00 220.54,35.00 221.21,35.00 221.88,35.00 222.54,35.00 223.20,35.00 223.86,35.00 224.52,35.00 225.18,35.00 225.84,35.00 226.50,35.00 227.18,35.00 227.84,35.00 228.50,35.00 229.16,35.00 229.82,35.00 230.48,35.00 231.14,35.00 231.80,35.00 232.46,35.00 233.12,35.00 233.78,35.00 234.44,35.00 235.11,35.00 235.77,35.00 236.43,35.00 237.09,35.00 237.76,35.00 238.42,35.00 239.08,35.00 239.74,35.00 240.41,35.00 241.07,35.00 241.73,35.00 242.39,35.00 243.12,35.00 243.79,35.00 244.45,35.00 245.11,35.00 245.78,35.00 246.44,35.00 247.10,35.00 247.76,35.00 248.42,35.00 249.10,35.00 249.77,35.00 250.42,35.00 251.08,35.00 251.74,35.00 252.41,35.00 253.07,35.00 253.75,35.00 254.41,35.00 255.07,35.00 255.74,35.00 256.45,35.00 257.11,35.00 257.95,35.00 259.06,35.00 259.74,35.00 260.41,35.00 261.07,35.00 261.72,35.00 262.38,35.00 263.05,35.00 263.71,35.00 264.38,35.00 265.06,35.00 265.75,35.00 266.45,35.00 267.11,35.00 267.77,35.00 268.43,35.00 269.10,35.00 269.77,35.00 270.44,35.00 271.09,35.00 271.75,35.00 272.44,35.00 273.11,35.00 273.76,35.00 274.42,35.00 275.09,35.00 275.78,35.00 276.44,35.00 277.11,35.00 277.78,35.00 278.42,35.00 279.07,35.00 279.75,35.00 280.40,35.00 281.08,35.00 281.76,35.00 282.42,35.00 283.08,35.00 283.75,35.00 284.42,35.00 285.08,35.00 285.74,35.00 286.39,35.00 287.06,35.00 287.72,35.00 288.37,35.00 289.16,35.00 289.94,35.00 290.72,35.00 291.49,35.00 292.24,35.00 293.00,35.00 293.79,35.00 294.56,35.00 295.22,35.00 295.87,35.00 296.53,35.00 297.19,35.00 297.85,35.00 298.51,35.00 299.16,35.00 299.82,35.00 300.48,35.00 301.14,35.00 301.80,35.00 302.46,35.00 303.11,35.00 303.77,35.00 304.43,35.00 305.08,35.00 305.75,35.00 306.40,35.00 307.06,35.00 307.73,35.00 308.38,35.00 309.03,35.00 309.69,35.00 310.35,35.00 311.01,35.00 311.67,35.00 312.33,35.00 312.99,35.00 313.65,35.00 314.31,35.00 314.97,35.00 315.63,35.00 316.28,35.00 316.94,35.00 317.59,35.00 318.24,35.00 318.90,35.00 319.56,35.00 320.21,35.00 320.87,35.00 321.53,35.00 322.19,35.00 322.84,35.00 323.49,35.00 324.14,35.00 324.82,35.00 325.53,35.00 326.19,35.00 326.86,35.00 327.51,35.00 328.17,35.00 328.82,35.00 329.48,35.00 330.13,35.00 330.91,35.00 331.69,35.00 332.46,35.00 333.23,35.00 334.01,35.00 334.78,35.00 335.56,35.00 336.36,35.00 337.08,35.00 337.79,35.00 338.45,35.00 339.12,35.00 339.78,35.00 340.43,35.00 341.09,35.00 341.75,35.00 342.41,35.00 343.07,35.00 343.72,35.00 344.38,35.00 345.05,35.00 345.70,35.00 346.37,35.00 347.03,35.00 347.69,35.00 348.26,35.00 348.94,35.00 349.60,35.00 350.28,35.00 350.94,35.00 351.59,35.00 352.26,35.00 352.92,35.00 353.59,35.00 354.25,35.00 354.92,35.00 355.59,35.00 356.25,35.00 356.90,35.00 357.56,35.00 358.21,35.00 358.87,35.00 359.52,35.00 360.19,35.00 360.85,35.00 361.51,35.00 362.17,35.00 362.82,35.00 363.49,35.00 364.15,35.00 364.81,35.00 365.48,35.00 366.13,35.00 366.79,35.00 367.46,35.00 368.12,35.00 368.80,35.00 369.45,35.00 370.11,35.00 370.77,35.00 371.42,35.00 372.08,35.00 372.75,35.00 373.40,35.00 374.06,35.00 374.72,35.00 375.37,35.00 376.03,35.00 376.70,35.00 377.36,35.00 378.02,35.00 378.82,35.00 379.49,35.00 380.17,35.00 380.84,35.00 381.50,35.00 382.17,35.00 382.82,35.00 383.48,35.00 384.14,35.00 384.81,35.00 385.47,35.00 386.13,35.00 386.79,35.00 387.45,35.00 388.13,35.00 388.81,35.00 389.47,35.00 390.13,35.00 390.79,35.00 391.45,35.00 392.10,35.00 392.77,35.00 393.45,35.00 394.12,35.00 394.78,35.00 395.44,35.00 396.10,35.00 396.76,35.00 397.42,35.00 398.08,35.00 398.75,35.00 399.41,35.00 400.07,35.00 400.73,35.00 401.39,35.00 402.05,35.00 402.71,35.00 403.38,35.00 404.04,35.00 404.70,35.00 405.36,35.00 406.02,35.00 406.69,35.00 407.35,35.00 408.15,35.00 408.83,35.00 409.49,35.00 410.15,35.00 410.80,35.00 411.47,35.00 412.13,35.00 412.79,35.00 413.47,35.00 414.12,35.00 414.78,35.00 415.44,35.00 416.10,35.00 416.76,35.00 417.42,35.00 418.08,35.00 418.74,35.00 419.40,35.00 420.06,35.00 420.72,35.00 421.38,35.00 422.04,35.00 422.70,35.00 423.37,35.00 424.03,35.00 424.69,35.00 425.35,35.00 426.01,35.00 426.69,35.00 427.35,35.00 428.01,35.00 428.68,35.00 429.34,35.00 429.99,35.00 430.66,35.00 431.32,35.00 432.00,35.00 432.66,35.00 433.32,35.00 433.97,35.00 434.63,35.00 435.29,35.00 435.95,35.00 436.61,35.00 437.28,35.00 437.94,35.00 438.61,35.00 439.26,35.00 439.93,35.00 440.58,35.00 441.24,35.00 441.90,35.00 442.56,35.00 443.22,35.00 443.89,35.00 444.55,35.00 445.21,35.00 445.88,35.00 446.54,35.00 447.21,35.00 447.87,35.00 448.54,35.00 449.28,35.00 450.00,35.00 450.71,35.00 451.38,35.00 452.07,35.00 452.73,35.00 453.39,35.00 454.05,35.00 454.66,35.00 455.35,35.00 456.02,35.00 456.68,35.00 457.34,35.00 458.00,35.00 458.66,35.00 459.32,35.00 459.98,35.00 460.64,35.00 461.30,35.00 461.96,35.00 462.63,35.00 463.29,35.00 463.96,35.00 464.63,35.00 465.29,35.00 465.95,35.00 466.61,35.00 467.29,35.00 467.95,35.00 468.61,35.00 469.27,35.00 469.93,35.00 470.59,35.00 471.25,35.00 471.91,35.00 472.57,35.00 473.24,35.00 473.90,35.00 474.56,35.00 475.22,35.00 475.88,35.00 476.55,35.00 477.21,35.00 477.87,35.00 478.53,35.00 479.20,35.00 479.86,35.00 480.53,35.00 481.19,35.00 481.86,35.00 482.52,35.00 483.18,35.00 483.84,35.00 484.51,35.00 485.19,35.00 485.86,35.00 486.52,35.00 487.18,35.00 487.84,35.00 488.50,35.00 489.17,35.00 489.83,35.00 490.50,35.00 491.16,35.00 491.82,35.00 492.49,35.00 493.15,35.00 493.82,35.00 494.48,35.00 495.15,35.00 495.81,35.00 496.48,35.00 497.15,35.00 497.81,35.00 498.47,35.00 499.13,35.00 499.80,35.00 500.47,35.00 501.14,35.00 501.81,35.00 502.47,35.00 503.13,35.00 503.79,35.00 504.45,35.00 505.12,35.00 505.78,35.00 506.44,35.00 507.10,35.00 507.76,35.00 508.43,35.00 509.10,35.00 509.76,35.00 510.42,35.00 511.09,35.00 511.75,35.00 512.42,35.00 513.08,35.00 513.74,35.00 514.40,35.00 515.06,35.00 515.72,35.00 516.38,35.00 517.05,35.00 517.71,35.00 518.38,35.00 519.04,35.00 519.71,35.00 520.38,35.00 521.04,35.00 521.70,35.00 522.37,35.00 523.03,35.00 523.70,35.00 524.36,35.00 525.03,35.00 525.70,35.00 526.36,35.00 527.04,35.00 527.71,35.00 528.37,35.00 529.04,35.00 529.70,35.00 530.36,35.00 531.03,35.00 531.70,35.00 532.36,35.00 533.03,35.00 533.69,35.00 534.35,35.00 535.03,35.00 535.69,35.00 536.36,35.00 537.02,35.00 537.68,35.00 538.34,35.00 538.99,35.00 539.65,35.00 540.32,35.00 540.98,35.00 541.65,35.00 542.31,35.00 542.97,35.00 543.63,35.00 544.32,35.00 544.98,35.00 545.64,35.00 546.31,35.00 546.96,35.00 547.63,35.00 548.29,35.00 548.96,35.00 549.62,35.00 550.28,35.00 550.95,35.00 551.61,35.00 552.27,35.00 552.94,35.00 553.61,35.00 554.29,35.00 554.96,35.00 555.63,35.00 556.29,35.00 556.96,35.00 557.63,35.00 558.28,35.00 558.94,35.00 559.60,35.00 560.27,35.00 560.94,35.00 561.61,35.00 562.27,35.00 562.94,35.00 563.63,35.00 564.29,35.00 564.96,35.00 565.62,35.00 566.28,35.00 566.95,35.00 567.62,35.00 568.29,35.00 568.95,35.00 569.63,35.00 570.29,35.00 570.96,35.00 571.62,35.00 572.29,35.00 572.95,35.00 573.61,35.00 574.28,35.00 574.94,35.00 575.61,35.00 576.28,35.00 576.94,35.00 577.61,35.00 578.27,35.00 578.94,35.00 579.60,35.00 580.27,35.00 580.96,35.00 581.62,35.00 582.29,35.00 582.96,35.00 583.64,35.00 584.32,35.00 584.99,35.00 585.67,35.00 586.35,35.00 587.02,35.00 587.68,35.00 588.34,35.00 589.01,35.00 589.68,35.00 590.35,35.00 591.03,35.00 591.69,35.00 592.36,35.00 593.02,35.00 593.68,35.00 594.34,35.00 595.01,35.00 595.67,35.00 596.33,35.00 597.00,35.00 597.66,35.00 598.32,35.00 598.97,35.00 599.64,35.00 600.30,35.00 600.97,35.00 601.63,35.00 602.30,35.00 602.97,35.00 603.63,35.00 604.30,35.00 604.96,35.00 605.63,35.00 606.29,35.00 606.95,35.00 607.62,35.00 608.28,35.00 608.94,35.00 609.60,35.00 610.26,35.00 610.92,35.00 611.59,35.00 612.25,35.00 612.91,35.00 613.58,35.00 614.24,35.00 614.90,35.00 615.57,35.00 616.23,35.00 616.88,35.00 617.54,35.00 618.19,35.00 618.86,35.00 619.52,35.00 620.20,35.00 620.86,35.00 621.52,35.00 622.19,35.00 622.86,35.00 623.53,35.00 624.19,35.00 624.86,35.00 625.52,35.00 626.18,35.00 626.86,35.00 627.52,35.00 628.19,35.00 628.86,35.00 629.52,35.00 630.18,35.00 630.84,35.00 631.50,35.00 632.17,35.00 632.83,35.00 633.48,35.00 634.15,35.00 634.81,35.00 635.48,35.00 636.14,35.00 636.80,35.00 637.46,35.00 638.13,35.00 638.79,35.00 639.46,35.00 640.12,35.00 640.79,35.00 641.45,35.00 642.12,35.00 642.78,35.00 643.44,35.00 644.11,35.00 644.77,35.00 645.43,35.00 646.10,35.00 646.77,35.00 647.43,35.00 648.09,35.00 648.75,35.00 649.44,35.00 650.10,35.00 650.77,35.00 651.45,35.00 652.11,35.00 652.78,35.00 653.44,35.00 654.11,35.00 654.77,35.00 655.43,35.00 656.10,35.00 656.78,35.00 657.45,35.00 658.11,35.00 658.78,35.00 659.44,35.00 660.11,35.00 660.77,35.00 661.43,35.00 662.09,35.00 662.76,35.00 663.42,35.00 664.08,35.00 664.74,35.00 665.41,35.00 666.07,35.00 666.73,35.00 667.39,35.00 668.05,35.00 668.72,35.00 669.39,35.00 670.05,35.00 670.71,35.00 671.38,35.00 672.04,35.00 672.70,35.00 673.37,35.00 674.03,35.00 674.70,35.00 675.37,35.00 676.02,35.00 676.68,35.00 677.35,35.00 678.01,35.00 678.67,35.00 679.35,35.00 680.03,35.00 680.70,35.00 681.38,35.00 682.05,35.00 682.73,35.00 683.41,35.00 684.09,35.00 684.78,35.00 685.45,35.00 686.14,35.00 686.80,35.00 687.46,35.00 688.13,35.00 688.80,35.00 689.46,35.00 690.13,35.00 690.79,35.00 691.46,35.00 692.13,35.00 692.79,35.00 693.45,35.00 694.11,35.00 694.78,35.00 695.43,35.00 696.10,35.00 696.77,35.00 697.43,35.00 698.09,35.00 698.77,35.00 699.43,35.00 700.10,35.00 700.76,35.00 701.42,35.00 702.09,35.00 702.75,35.00 703.42,35.00 704.08,35.00 704.74,35.00 705.41,35.00 706.07,35.00 706.73,35.00 707.40,35.00 708.06,35.00 708.73,35.00 709.44,35.00 710.12,35.00 710.78,35.00 711.45,35.00 712.11,35.00 712.78,35.00 713.45,35.00 714.12,35.00 714.79,35.00 715.45,35.00 716.10,35.00 716.76,35.00 717.42,35.00 718.09,35.00 718.75,35.00 719.42,35.00 720.09,35.00 720.75,35.00 721.42,35.00 722.08,35.00 722.74,35.00 723.40,35.00 724.07,35.00 724.74,35.00 725.40,35.00 726.06,35.00 726.73,35.00 727.40,35.00 728.06,35.00 728.75,35.00 729.42,35.00 730.08,35.00 730.74,35.00 731.41,35.00 732.07,35.00 732.74,35.00 733.41,35.00 734.07,35.00 734.74,35.00 735.40,35.00 736.08,35.00 736.75,35.00 737.41,35.00 738.08,35.00 738.74,35.00 739.40,35.00 740.07,35.00 740.73,35.00 741.39,35.00 742.07,35.00 742.73,35.00 743.39,35.00 744.06,35.00 744.72,35.00 745.38,35.00 746.05,35.00 746.71,35.00 747.37,35.00 748.04,35.00 748.70,35.00 749.36,35.00 750.03,35.00 750.69,35.00 751.36,35.00 752.02,35.00 752.69,35.00 753.35,35.00 754.01,35.00 754.67,35.00 755.33,35.00 756.00,35.00 756.66,35.00 757.34,35.00 758.01,35.00 758.67,35.00 759.34,35.00 760.00,35.00 760.68,35.00 761.39,35.00 762.07,35.00 762.74,35.00 763.41,35.00 764.08,35.00 764.74,35.00 765.41,35.00 766.07,35.00 766.74,35.00 767.40,35.00 768.07,35.00 768.73,35.00 769.40,35.00 770.08,35.00 770.74,35.00 771.41,35.00 772.07,35.00 772.74,35.00 773.40,35.00 774.07,35.00 774.73,35.00 775.40,35.00 776.07,35.00 776.73,35.00 777.40,35.00 778.07,35.00 778.73,35.00 779.40,35.00 780.07,35.00 780.74,35.00 781.41,35.00 782.07,35.00 782.73,35.00 783.40,35.00 784.06,35.00 784.72,35.00 785.39,35.00 786.05,35.00 786.72,35.00 787.39,35.00 788.04,35.00 788.71,35.00 789.38,35.00 790.05,35.00 790.70,35.00 791.37,35.00 792.04,35.00 792.71,35.00 793.38,35.00 794.03,35.00 794.68,35.00 795.34,35.00 796.00,35.00 796.67,35.00 797.34,35.00 798.01,35.00 798.67,35.00 799.34,35.00 800.02,35.00 800.67,35.00 801.34,35.00 802.00,35.00 802.66,35.00 803.32,35.00 803.98,35.00 804.64,35.00 805.31,35.00 805.97,35.00 806.63,35.00 807.29,35.00 807.96,35.00 808.63,35.00 809.29,35.00 809.95,35.00 810.61,35.00 811.25,35.00 811.93,35.00 812.59,35.00 813.26,35.00 813.93,35.00 814.60,35.00 815.26,35.00 815.92,35.00 816.59,35.00 817.26,35.00 817.92,35.00 818.58,35.00 819.30,35.00 819.96,35.00 820.63,35.00 821.30,35.00 821.97,35.00 822.63,35.00 823.29,35.00 823.96,35.00 824.62,35.00 825.28,35.00 825.95,35.00 826.61,35.00 827.28,35.00 827.95,35.00 828.61,35.00 829.27,35.00 829.94,35.00 830.60,35.00 831.27,35.00 831.94,35.00 832.60,35.00 833.28,35.00 833.96,35.00 834.62,35.00 835.29,35.00 835.95,35.00 836.62,35.00 837.29,35.00 837.96,35.00 838.62,35.00 839.28,35.00 839.95,35.00 840.61,35.00 841.28,35.00 841.94,35.00 842.61,35.00 843.27,35.00 843.94,35.00 844.59,35.00 845.26,35.00 845.92,35.00 846.59,35.00 847.25,35.00 847.91,35.00 848.58,35.00 849.23,35.00 849.89,35.00 850.55,35.00 851.22,35.00 851.88,35.00 852.54,35.00 853.20,35.00 853.86,35.00 854.52,35.00 855.18,35.00 855.84,35.00 856.51,35.00 857.17,35.00 857.83,35.00 858.49,35.00 859.15,35.00 859.83,35.00 860.48,35.00 861.15,35.00 861.81,35.00 862.51,35.00 863.16,35.00 863.83,35.00 864.50,35.00 865.17,35.00 865.83,35.00 866.50,35.00 867.17,35.00 867.83,35.00 868.49,35.00 869.15,35.00 869.81,35.00 870.48,35.00 871.14,35.00 871.81,35.00 872.47,35.00 873.13,35.00 873.79,35.00 874.45,35.00 875.12,35.00 875.79,35.00 876.48,35.00 877.14,35.00 877.80,35.00 878.46,35.00 879.11,35.00 879.79,35.00 880.45,35.00 881.11,35.00 881.78,35.00 882.45,35.00 883.11,35.00 883.78,35.00 884.44,35.00 885.11,35.00 885.77,35.00 886.43,35.00 887.10,35.00 887.76,35.00 888.42,35.00 889.08,35.00 889.74,35.00 890.41,35.00 891.07,35.00 891.73,35.00 892.39,35.00 893.06,35.00 893.72,35.00 894.38,35.00 895.05,35.00 895.71,35.00 896.37,35.00 897.04,35.00 897.70,35.00 898.37,35.00 899.03,35.00 899.69,35.00 900.36,35.00 901.02,35.00 901.67,35.00 902.34,35.00 903.01,35.00 903.66,35.00 904.35,35.00 905.01,35.00 905.67,35.00 906.33,35.00 907.00,35.00 907.67,35.00 908.34,35.00 909.01,35.00 909.72,35.00 910.38,35.00 911.10,35.00 911.76,35.00 912.42,35.00 913.08,35.00 913.74,35.00 914.40,35.00 915.07,35.00 915.73,35.00 916.39,35.00 917.06,35.00 917.72,35.00 918.38,35.00 919.05,35.00 919.71,35.00 920.37,35.00 921.03,35.00 921.69,35.00 922.35,35.00 923.02,35.00 923.68,35.00 924.35,35.00 925.01,35.00 925.67,35.00 926.33,35.00 927.00,35.00 927.67,35.00 928.33,35.00 928.99,35.00 929.66,35.00 930.32,35.00 930.98,35.00 931.64,35.00 932.31,35.00 932.97,35.00 933.63,35.00 934.29,35.00 934.94,35.00 935.60,35.00 936.27,35.00 936.93,35.00 937.59,35.00 938.26,35.00 938.95,35.00 939.62,35.00 940.28,35.00 940.94,35.00 941.60,35.00 942.25,35.00 942.91,35.00 943.58,35.00 944.24,35.00 944.90,35.00 945.56,35.00 946.22,35.00 946.87,35.00 947.54,35.00 948.20,35.00 948.86,35.00 949.52,35.00 950.19,35.00 950.85,35.00 951.51,35.00 952.18,35.00 952.84,35.00 953.50,35.00 954.17,35.00 954.83,35.00 955.49,35.00 956.16,35.00 956.83,35.00 957.50,35.00 958.16,35.00 958.82,35.00 959.48,35.00 960.15,35.00 960.81,35.00 961.49,35.00 962.15,35.00 962.82,35.00 963.49,35.00 964.15,35.00 964.82,35.00 965.48,35.00 966.14,35.00 966.81,35.00 967.48,35.00 968.13,35.00 968.80,35.00 969.47,35.00 970.13,35.00 970.80,35.00 971.47,35.00 972.16,35.00 972.86,35.00 973.53,35.00 974.19,35.00 974.85,35.00 975.51,35.00 976.18,35.00 976.84,35.00 977.50,35.00 978.17,35.00 978.84,35.00 979.51,35.00 980.16,35.00 980.82,35.00 981.49,35.00 982.15,35.00 982.82,35.00 983.50,35.00 984.18,35.00 984.84,35.00 985.52,35.00 986.21,35.00 986.88,35.00 987.58,35.00 988.25,35.00 988.91,35.00 989.58,35.00 990.24,35.00 990.91,35.00 991.57,35.00 992.23,35.00 992.89,35.00 993.55,35.00 994.22,35.00 994.90,35.00 995.56,35.00 996.23,35.00 996.90,35.00 997.68,35.00 998.34,35.00 999.00,35.00 999.66,35.00 1000.32,35.00 1000.98,35.00 1001.63,35.00 1002.25,35.00 1002.84,35.00 1003.56,35.00 1004.18,35.00 1004.79,35.00 1005.47,35.00 1006.04,35.00 1006.70,35.00 1007.37,35.00 1008.03,35.00 1008.69,35.00 1009.35,35.00 1010.01,35.00 1010.67,35.00 1011.33,35.00 1012.00,35.00 1012.66,35.00 1013.32,35.00 1013.98,35.00 1014.65,35.00 1015.30,35.00 1015.96,35.00 1016.62,35.00 1017.28,35.00 1017.93,35.00 1018.59,35.00 1019.26,35.00 1019.92,35.00 1020.58,35.00 1021.25,35.00 1021.91,35.00 1022.56,35.00 1023.22,35.00 1023.88,35.00 1024.54,35.00 1025.20,35.00 1025.86,35.00 1026.52,35.00 1027.18,35.00 1027.84,35.00 1028.50,35.00 1029.16,35.00 1029.82,35.00 1030.48,35.00 1031.14,35.00 1031.81,35.00 1032.46,35.00 1033.13,35.00 1033.79,35.00 1034.45,35.00 1035.11,35.00 1035.76,35.00 1036.42,35.00 1037.08,35.00 1037.74,35.00 1038.39,35.00 1039.05,35.00 1039.73,35.00 1040.39,35.00 1041.05,35.00 1041.71,35.00 1042.37,35.00 1043.04,35.00 1043.70,35.00 1044.37,35.00 1045.03,35.00 1045.69,35.00 1046.35,35.00 1047.01,35.00 1047.67,35.00 1048.33,35.00 1048.99,35.00 1049.65,35.00 1050.31,35.00 1050.98,35.00 1051.63,35.00 1052.30,35.00 1052.96,35.00 1053.62,35.00 1054.28,35.00 1054.94,35.00 1055.60,35.00 1056.27,35.00 1056.93,35.00 1057.65,35.00 1058.31,35.00 1058.98,35.00 1059.64,35.00 1060.30,35.00 1060.96,35.00 1061.61,35.00 1062.28,35.00 1063.21,35.00 1063.87,35.00 1064.79,35.00 1065.45,35.00 1066.11,35.00 1066.78,35.00 1067.44,35.00 1068.10,35.00 1068.76,35.00 1069.41,35.00 1070.07,35.00 1070.73,35.00 1071.39,35.00 1072.05,35.00 1072.71,35.00 1073.38,35.00 1074.05,35.00 1074.71,35.00 1075.37,35.00 1076.03,35.00 1076.69,35.00 1077.37,35.00 1078.02,35.00 1078.68,35.00 1079.35,35.00 1080.01,35.00 1080.67,35.00 1081.33,35.00 1082.00,35.00 1082.66,35.00 1083.32,35.00 1083.98,35.00 1084.65,35.00 1085.33,35.00 1086.01,35.00 1086.68,35.00 1087.37,35.00 1088.03,35.00 1088.69,35.00 1089.36,35.00 1090.02,35.00 1090.68,35.00 1091.35,35.00 1092.00,35.00 1092.66,35.00 1093.34,35.00 1094.00,35.00 1094.67,35.00 1095.34,35.00 1096.00,35.00 1096.67,35.00 1097.33,35.00 1097.99,35.00 1098.66,35.00 1099.32,35.00 1099.99,35.00 1100.66,35.00 1101.32,35.00 1102.00,35.00 1102.66,35.00 1103.32,35.00 1103.98,35.00 1104.65,35.00 1105.31,35.00 1105.99,35.00 1106.66,35.00 1107.32,35.00 1107.99,35.00 1108.65,35.00 1109.31,35.00 1109.97,35.00 1110.64,35.00 1111.30,35.00 1111.96,35.00 1112.62,35.00 1113.29,35.00 1113.94,35.00 1114.61,35.00 1115.29,35.00 1115.96,35.00 1116.63,35.00 1117.29,35.00 1117.95,35.00 1118.61,35.00 1119.28,35.00 1119.94,35.00 1120.60,35.00 1121.26,35.00 1121.93,35.00 1122.59,35.00 1123.26,35.00 1123.93,35.00 1124.59,35.00 1125.25,35.00 1125.91,35.00 1126.58,35.00 1127.24,35.00 1127.91,35.00 1128.58,35.00 1129.24,35.00 1129.91,35.00 1130.58,35.00 1131.24,35.00 1131.90,35.00 1132.58,35.00 1133.24,35.00 1133.91,35.00 1134.58,35.00 1135.24,35.00 1135.90,35.00 1136.56,35.00 1137.22,35.00 1137.90,35.00 1138.57,35.00 1139.24,35.00 1139.92,35.00 1140.58,35.00 1141.25,35.00 1141.91,35.00 1142.58,35.00 1143.24,35.00 1143.91,35.00 1144.57,35.00 1145.24,35.00 1145.91,35.00 1146.57,35.00 1147.24,35.00 1147.90,35.00 1148.57,35.00 1149.23,35.00 1149.89,35.00 1150.57,35.00 1151.24,35.00 1151.91,35.00 1152.57,35.00 1153.25,35.00 1153.91,35.00 1154.57,35.00 1155.23,35.00 1155.90,35.00 1156.59,35.00 1157.26,35.00 1157.91,35.00 1158.59,35.00 1159.25,35.00 1159.91,35.00 1160.60,35.00 1161.27,35.00 1161.94,35.00 1162.61,35.00 1163.28,35.00 1163.95,35.00 1164.66,35.00 1165.31,35.00 1165.99,35.00 1166.65,35.00 1167.31,35.00 1167.97,35.00 1168.64,35.00 1169.31,35.00 1169.98,35.00 1170.64,35.00 1171.33,35.00 1171.99,35.00 1172.66,35.00 1173.32,35.00 1173.99,35.00 1174.65,35.00 1175.34,35.00 1176.00,35.00 1176.66,35.00 1177.33,35.00 1177.99,35.00 1178.65,35.00 1179.33,35.00 1180.00,35.00"/>
<polyline fill="none" stroke="#1f77b4" stroke-opacity="0.65" stroke-width="2" points="70.00,35.00 70.66,35.00 71.32,35.00 71.98,35.00 72.65,35.00 73.31,35.00 73.97,35.00 74.63,35.00 75.35,35.00 76.00,35.00 76.66,35.00 77.32,35.00 77.99,35.00 78.65,35.00 79.30,35.00 80.49,35.00 81.52,35.00 82.18,35.00 82.86,35.00 83.52,35.00 84.18,35.00 84.83,35.00 85.49,35.00 86.15,35.00 86.82,35.00 87.48,35.00 88.16,35.00 88.82,35.00 89.48,35.00 90.18,35.00 90.84,35.00 91.50,35.00 92.18,35.00 92.84,35.00 93.50,35.00 94.18,35.00 94.84,35.00 95.50,35.00 96.17,35.00 96.83,35.00 97.49,35.00 98.14,35.00 98.80,35.00 99.46,35.00 100.12,35.00 100.79,35.00 101.46,35.00 102.11,35.00 102.77,35.00 103.44,35.00 104.10,35.00 104.86,35.00 105.52,35.00 106.18,35.00 106.83,35.00 107.49,35.00 108.14,35.00 108.80,35.00 109.46,35.00 110.12,35.00 110.80,35.00 111.45,35.00 112.11,35.00 112.77,35.00 113.44,35.00 114.10,35.00 114.76,35.00 115.42,35.00 116.07,35.00 116.73,35.00 117.38,35.00 118.04,35.00 118.70,35.00 119.36,35.00 120.02,35.00 120.68,35.00 121.33,35.00 122.00,35.00 122.65,35.00 123.31,35.00 123.99,35.00 124.65,35.00 125.31,35.00 125.97,35.00 126.63,35.00 127.29,35.00 127.95,35.00 128.60,35.00 129.26,35.00 129.92,35.00 130.59,35.00 131.25,35.00 131.92,35.00 132.57,35.00 133.23,35.00 133.89,35.00 134.54,35.00 135.20,35.00 135.86,35.00 136.52,35.00 137.18,35.00 137.84,35.00 138.50,35.00 139.16,35.00 139.83,35.00 140.50,35.00 141.16,35.00 141.81,35.00 142.47,35.00 143.13,35.00 143.80,35.00 144.46,35.00 145.12,35.00 145.78,35.00 146.44,35.00 147.10,35.00 147.77,35.00 148.44,35.00 149.10,35.00 149.76,35.00 150.42,35.00 151.08,35.00 151.74,35.00 152.40,35.00 153.12,35.00 153.77,35.00 154.44,35.00 155.10,35.00 155.76,35.00 156.41,35.00 157.06,35.00 157.72,35.00 158.38,35.00 159.04,35.00 159.70,35.00 160.36,35.00 161.01,35.00 161.67,35.00 162.34,35.00 163.00,35.00 163.66,35.00 164.32,35.00 164.98,35.00 165.63,35.00 166.30,35.00 166.96,35.00 167.62,35.00 168.28,35.00 168.94,35.00 169.60,35.00 170.25,35.00 170.91,35.00 171.57,35.00 172.23,35.00 172.90,35.00 173.56,35.00 174.22,35.00 174.89,35.00 175.55,35.00 176.20,35.00 176.87,35.00 177.53,35.00 178.20,35.00 178.87,35.00 179.53,35.00 180.19,35.00 180.84,35.00 181.50,35.00 182.16,35.00 182.82,35.00 183.48,35.00 184.13,35.00 184.78,35.00 185.45,35.00 186.11,35.00 186.78,35.00 187.44,35.00 188.11,35.00 188.77,35.00 189.43,35.00 190.09,35.00 190.74,35.00 191.46,35.00 192.13,35.00 192.79,35.00 193.45,35.00 194.10,35.00 194.76,35.00 195.42,35.00 196.08,35.00 196.74,35.00 197.40,35.00 198.06,35.00 198.72,35.00 199.39,35.00 200.05,35.00 200.71,35.00 201.37,35.00 202.03,35.00 202.71,35.00 203.38,35.00 204.04,35.00 204.70,35.00 205.36,35.00 206.02,35.00 206.68,35.00 207.34,35.00 208.01,35.00 208.67,35.00 209.32,35.00 209.99,35.00 210.65,35.00 211.31,35.00 211.97,35.00 212.64,35.00 213.30,35.00 213.96,35.00 214.61,35.00 215.27,35.00 215.93,35.00 216.59,35.00 217.25,35.00 217.91,35.00 218.56,35.00 219.22,35.00 219.88,35.00 220.54,35.00 221.21,35.00 221.88,35.00 222.54,35.00 223.20,35.00 223.86,35.00 224.52,35.00 225.18,35.00 225.84,35.00 226.50,35.00 227.18,35.00 227.84,35.00 228.50,35.00 229.16,35.00 229.82,35.00 230.48,35.00 231.14,35.00 231.80,35.00 232.46,35.00 233.12,35.00 233.78,35.00 234.44,35.00 235.11,35.00 235.77,35.00 236.43,35.00 237.09,35.00 237.76,35.00 238.42,35.00 239.08,35.00 239.74,35.00 240.41,35.00 241.07,35.00 241.73,35.00 242.39,35.00 243.12,35.00 243.79,35.00 244.45,35.00 245.11,35.00 245.78,35.00 246.44,35.00 247.10,35.00 247.76,35.00 248.42,35.00 249.10,35.00 249.77,35.00 250.42,35.00 251.08,35.00 251.74,35.00 252.41,35.00 253.07,35.00 253.75,35.00 254.41,35.00 255.07,35.00 255.74,35.00 256.45,35.00 257.11,35.00 257.95,35.00 259.06,35.00 259.74,35.00 260.41,35.00 261.07,35.00 261.72,35.00 262.38,35.00 263.05,35.00 263.71,35.00 264.38,35.00 265.06,35.00 265.75,35.00 266.45,35.00 267.11,35.00 267.77,35.00 268.43,35.00 269.10,35.00 269.77,35.00 270.44,35.00 271.09,35.00 271.75,35.00 272.44,35.00 273.11,35.00 273.76,35.00 274.42,35.00 275.09,35.00 275.78,35.00 276.44,35.00 277.11,35.00 277.78,35.00 278.42,35.00 279.07,35.00 279.75,35.00 280.40,35.00 281.08,35.00 281.76,35.00 282.42,35.00 283.08,35.00 283.75,35.00 284.42,35.00 285.08,35.00 285.74,35.00 286.39,35.00 287.06,35.00 287.72,35.00 288.37,35.00 289.16,35.00 289.94,35.00 290.72,35.00 291.49,35.00 292.24,35.00 293.00,35.00 293.79,35.00 294.56,35.00 295.22,35.00 295.87,35.00 296.53,35.00 297.19,35.00 297.85,35.00 298.51,35.00 299.16,35.00 299.82,35.00 300.48,35.00 301.14,35.00 301.80,35.00 302.46,35.00 303.11,35.00 303.77,35.00 304.43,35.00 305.08,35.00 305.75,35.00 306.40,35.00 307.06,35.00 307.73,35.00 308.38,35.00 309.03,35.00 309.69,35.00 310.35,35.00 311.01,35.00 311.67,35.00 312.33,35.00 312.99,35.00 313.65,35.00 314.31,35.00 314.97,35.00 315.63,35.00 316.28,35.00 316.94,35.00 317.59,35.00 318.24,35.00 318.90,35.00 319.56,35.00 320.21,35.00 320.87,35.00 321.53,35.00 322.19,35.00 322.84,35.00 323.49,35.00 324.14,35.00 324.82,35.00 325.53,35.00 326.19,35.00 326.86,35.00 327.51,35.00 328.17,35.00 328.82,35.00 329.48,35.00 330.13,35.00 330.91,35.00 331.69,35.00 332.46,35.00 333.23,35.00 334.01,35.00 334.78,35.00 335.56,35.00 336.36,35.00 337.08,35.00 337.79,35.00 338.45,35.00 339.12,35.00 339.78,35.00 340.43,35.00 341.09,35.00 341.75,35.00 342.41,35.00 343.07,35.00 343.72,35.00 344.38,35.00 345.05,35.00 345.70,35.00 346.37,35.00 347.03,35.00 347.69,35.00 348.26,35.00 348.94,35.00 349.60,35.00 350.28,35.00 350.94,35.00 351.59,35.00 352.26,35.00 352.92,35.00 353.59,35.00 354.25,35.00 354.92,35.00 355.59,35.00 356.25,35.00 356.90,35.00 357.56,35.00 358.21,35.00 358.87,35.00 359.52,35.00 360.19,35.00 360.85,35.00 361.51,35.00 362.17,35.00 362.82,35.00 363.49,35.00 364.15,35.00 364.81,35.00 365.48,35.00 366.13,35.00 366.79,35.00 367.46,35.00 368.12,35.00 368.80,35.00 369.45,35.00 370.11,35.00 370.77,35.00 371.42,35.00 372.08,35.00 372.75,35.00 373.40,35.00 374.06,35.00 374.72,35.00 375.37,35.00 376.03,35.00 376.70,35.00 377.36,35.00 378.02,35.00 378.82,35.00 379.49,35.00 380.17,35.00 380.84,35.00 381.50,35.00 382.17,35.00 382.82,35.00 383.48,35.00 384.14,35.00 384.81,35.00 385.47,35.00 386.13,35.00 386.79,35.00 387.45,35.00 388.13,35.00 388.81,35.00 389.47,35.00 390.13,35.00 390.79,35.00 391.45,35.00 392.10,35.00 392.77,35.00 393.45,35.00 394.12,35.00 394.78,35.00 395.44,35.00 396.10,35.00 396.76,35.00 397.42,35.00 398.08,35.00 398.75,35.00 399.41,35.00 400.07,35.00 400.73,35.00 401.39,35.00 402.05,35.00 402.71,35.00 403.38,35.00 404.04,35.00 404.70,35.00 405.36,35.00 406.02,35.00 406.69,35.00 407.35,35.00 408.15,35.00 408.83,35.00 409.49,35.00 410.15,35.00 410.80,35.00 411.47,35.00 412.13,35.00 412.79,35.00 413.47,35.00 414.12,35.00 414.78,35.00 415.44,35.00 416.10,35.00 416.76,35.00 417.42,35.00 418.08,35.00 418.74,35.00 419.40,35.00 420.06,35.00 420.72,35.00 421.38,35.00 422.04,35.00 422.70,35.00 423.37,35.00 424.03,35.00 424.69,35.00 425.35,35.00 426.01,35.00 426.69,35.00 427.35,35.00 428.01,35.00 428.68,35.00 429.34,35.00 429.99,35.00 430.66,35.00 431.32,35.00 432.00,35.00 432.66,35.00 433.32,35.00 433.97,35.00 434.63,35.00 435.29,35.00 435.95,35.00 436.61,35.00 437.28,35.00 437.94,35.00 438.61,35.00 439.26,35.00 439.93,35.00 440.58,35.00 441.24,35.00 441.90,35.00 442.56,35.00 443.22,35.00 443.89,35.00 444.55,35.00 445.21,35.00 445.88,35.00 446.54,35.00 447.21,35.00 447.87,35.00 448.54,35.00 449.28,35.00 450.00,35.00 450.71,35.00 451.38,35.00 452.07,35.00 452.73,35.00 453.39,35.00 454.05,35.00 454.66,35.00 455.35,35.00 456.02,35.00 456.68,35.00 457.34,35.00 458.00,35.00 458.66,35.00 459.32,35.00 459.98,35.00 460.64,35.00 461.30,35.00 461.96,35.00 462.63,35.00 463.29,35.00 463.96,35.00 464.63,35.00 465.29,35.00 465.95,35.00 466.61,35.00 467.29,35.00 467.95,35.00 468.61,35.00 469.27,35.00 469.93,35.00 470.59,35.00 471.25,35.00 471.91,35.00 472.57,35.00 473.24,35.00 473.90,35.00 474.56,35.00 475.22,35.00 475.88,35.00 476.55,35.00 477.21,35.00 477.87,35.00 478.53,35.00 479.20,35.00 479.86,35.00 480.53,35.00 481.19,35.00 481.86,35.00 482.52,35.00 483.18,35.00 483.84,35.00 484.51,35.00 485.19,35.00 485.86,35.00 486.52,35.00 487.18,35.00 487.84,35.00 488.50,35.00 489.17,35.00 489.83,35.00 490.50,35.00 491.16,35.00 491.82,35.00 492.49,35.00 493.15,35.00 493.82,35.00 494.48,35.00 495.15,35.00 495.81,35.00 496.48,35.00 497.15,35.00 497.81,35.00 498.47,35.00 499.13,35.00 499.80,35.00 500.47,35.00 501.14,35.00 501.81,35.00 502.47,35.00 503.13,35.00 503.79,35.00 504.45,35.00 505.12,35.00 505.78,35.00 506.44,35.00 507.10,35.00 507.76,35.00 508.43,35.00 509.10,35.00 509.76,35.00 510.42,35.00 511.09,35.00 511.75,35.00 512.42,35.00 513.08,35.00 513.74,35.00 514.40,35.00 515.06,35.00 515.72,35.00 516.38,35.00 517.05,35.00 517.71,35.00 518.38,35.00 519.04,35.00 519.71,35.00 520.38,35.00 521.04,35.00 521.70,35.00 522.37,35.00 523.03,35.00 523.70,35.00 524.36,35.00 525.03,35.00 525.70,35.00 526.36,35.00 527.04,35.00 527.71,35.00 528.37,35.00 529.04,35.00 529.70,35.00 530.36,35.00 531.03,35.00 531.70,35.00 532.36,35.00 533.03,35.00 533.69,35.00 534.35,35.00 535.03,35.00 535.69,35.00 536.36,35.00 537.02,35.00 537.68,35.00 538.34,35.00 538.99,35.00 539.65,35.00 540.32,35.00 540.98,35.00 541.65,35.00 542.31,35.00 542.97,35.00 543.63,35.00 544.32,35.00 544.98,35.00 545.64,35.00 546.31,35.00 546.96,35.00 547.63,35.00 548.29,35.00 548.96,35.00 549.62,35.00 550.28,35.00 550.95,35.00 551.61,35.00 552.27,35.00 552.94,35.00 553.61,35.00 554.29,35.00 554.96,35.00 555.63,35.00 556.29,35.00 556.96,35.00 557.63,35.00 558.28,35.00 558.94,35.00 559.60,35.00 560.27,35.00 560.94,35.00 561.61,35.00 562.27,35.00 562.94,35.00 563.63,35.00 564.29,35.00 564.96,35.00 565.62,35.00 566.28,35.00 566.95,35.00 567.62,35.00 568.29,35.00 568.95,35.00 569.63,35.00 570.29,35.00 570.96,35.00 571.62,35.00 572.29,35.00 572.95,35.00 573.61,35.00 574.28,35.00 574.94,35.00 575.61,35.00 576.28,35.00 576.94,35.00 577.61,35.00 578.27,35.00 578.94,35.00 579.60,35.00 580.27,35.00 580.96,35.00 581.62,35.00 582.29,35.00 582.96,35.00 583.64,35.00 584.32,35.00 584.99,35.00 585.67,35.00 586.35,35.00 587.02,35.00 587.68,35.00 588.34,35.00 589.01,35.00 589.68,35.00 590.35,35.00 591.03,35.00 591.69,35.00 592.36,35.00 593.02,35.00 593.68,35.00 594.34,35.00 595.01,35.00 595.67,35.00 596.33,35.00 597.00,35.00 597.66,35.00 598.32,35.00 598.97,35.00 599.64,35.00 600.30,35.00 600.97,35.00 601.63,35.00 602.30,35.00 602.97,35.00 603.63,35.00 604.30,35.00 604.96,35.00 605.63,35.00 606.29,35.00 606.95,35.00 607.62,35.00 608.28,35.00 608.94,35.00 609.60,35.00 610.26,35.00 610.92,35.00 611.59,35.00 612.25,35.00 612.91,35.00 613.58,35.00 614.24,35.00 614.90,35.00 615.57,35.00 616.23,35.00 616.88,35.00 617.54,35.00 618.19,35.00 618.86,35.00 619.52,35.00 620.20,35.00 620.86,35.00 621.52,35.00 622.19,35.00 622.86,35.00 623.53,35.00 624.19,35.00 624.86,35.00 625.52,35.00 626.18,35.00 626.86,35.00 627.52,35.00 628.19,35.00 628.86,35.00 629.52,35.00 630.18,35.00 630.84,35.00 631.50,35.00 632.17,35.00 632.83,35.00 633.48,35.00 634.15,35.00 634.81,35.00 635.48,35.00 636.14,35.00 636.80,35.00 637.46,35.00 638.13,35.00 638.79,35.00 639.46,35.00 640.12,35.00 640.79,35.00 641.45,35.00 642.12,35.00 642.78,35.00 643.44,35.00 644.11,35.00 644.77,35.00 645.43,35.00 646.10,35.00 646.77,35.00 647.43,35.00 648.09,35.00 648.75,35.00 649.44,35.00 650.10,35.00 650.77,35.00 651.45,35.00 652.11,35.00 652.78,35.00 653.44,35.00 654.11,35.00 654.77,35.00 655.43,35.00 656.10,35.00 656.78,35.00 657.45,35.00 658.11,35.00 658.78,35.00 659.44,35.00 660.11,35.00 660.77,35.00 661.43,35.00 662.09,35.00 662.76,35.00 663.42,35.00 664.08,35.00 664.74,35.00 665.41,35.00 666.07,35.00 666.73,35.00 667.39,35.00 668.05,35.00 668.72,35.00 669.39,35.00 670.05,35.00 670.71,35.00 671.38,35.00 672.04,35.00 672.70,35.00 673.37,35.00 674.03,35.00 674.70,35.00 675.37,35.00 676.02,35.00 676.68,35.00 677.35,35.00 678.01,35.00 678.67,35.00 679.35,35.00 680.03,35.00 680.70,35.00 681.38,35.00 682.05,35.00 682.73,35.00 683.41,35.00 684.09,35.00 684.78,35.00 685.45,35.00 686.14,35.00 686.80,35.00 687.46,35.00 688.13,35.00 688.80,35.00 689.46,35.00 690.13,35.00 690.79,35.00 691.46,35.00 692.13,35.00 692.79,35.00 693.45,35.00 694.11,35.00 694.78,35.00 695.43,35.00 696.10,35.00 696.77,35.00 697.43,35.00 698.09,35.00 698.77,35.00 699.43,35.00 700.10,35.00 700.76,35.00 701.42,35.00 702.09,35.00 702.75,35.00 703.42,35.00 704.08,35.00 704.74,35.00 705.41,35.00 706.07,35.00 706.73,35.00 707.40,35.00 708.06,35.00 708.73,35.00 709.44,35.00 710.12,35.00 710.78,35.00 711.45,35.00 712.11,35.00 712.78,35.00 713.45,35.00 714.12,35.00 714.79,35.00 715.45,35.00 716.10,35.00 716.76,35.00 717.42,35.00 718.09,35.00 718.75,35.00 719.42,35.00 720.09,35.00 720.75,35.00 721.42,35.00 722.08,35.00 722.74,35.00 723.40,35.00 724.07,35.00 724.74,35.00 725.40,35.00 726.06,35.00 726.73,35.00 727.40,35.00 728.06,35.00 728.75,35.00 729.42,35.00 730.08,35.00 730.74,35.00 731.41,35.00 732.07,35.00 732.74,35.00 733.41,35.00 734.07,35.00 734.74,35.00 735.40,35.00 736.08,35.00 736.75,35.00 737.41,35.00 738.08,35.00 738.74,35.00 739.40,35.00 740.07,35.00 740.73,35.00 741.39,35.00 742.07,35.00 742.73,35.00 743.39,35.00 744.06,35.00 744.72,35.00 745.38,35.00 746.05,35.00 746.71,35.00 747.37,35.00 748.04,35.00 748.70,35.00 749.36,35.00 750.03,35.00 750.69,35.00 751.36,35.00 752.02,35.00 752.69,35.00 753.35,35.00 754.01,35.00 754.67,35.00 755.33,35.00 756.00,35.00 756.66,35.00 757.34,35.00 758.01,35.00 758.67,35.00 759.34,35.00 760.00,35.00 760.68,35.00 761.39,35.00 762.07,35.00 762.74,35.00 763.41,35.00 764.08,35.00 764.74,35.00 765.41,35.00 766.07,35.00 766.74,35.00 767.40,35.00 768.07,35.00 768.73,35.00 769.40,35.00 770.08,35.00 770.74,35.00 771.41,35.00 772.07,35.00 772.74,35.00 773.40,35.00 774.07,35.00 774.73,35.00 775.40,35.00 776.07,35.00 776.73,35.00 777.40,35.00 778.07,35.00 778.73,35.00 779.40,35.00 780.07,35.00 780.74,35.00 781.41,35.00 782.07,35.00 782.73,35.00 783.40,35.00 784.06,35.00 784.72,35.00 785.39,35.00 786.05,35.00 786.72,35.00 787.39,35.00 788.04,35.00 788.71,35.00 789.38,35.00 790.05,35.00 790.70,35.00 791.37,35.00 792.04,35.00 792.71,35.00 793.38,35.00 794.03,35.00 794.68,35.00 795.34,35.00 796.00,35.00 796.67,35.00 797.34,35.00 798.01,35.00 798.67,35.00 799.34,35.00 800.02,35.00 800.67,35.00 801.34,35.00 802.00,35.00 802.66,35.00 803.32,35.00 803.98,35.00 804.64,35.00 805.31,35.00 805.97,35.00 806.63,35.00 807.29,35.00 807.96,35.00 808.63,35.00 809.29,35.00 809.95,35.00 810.61,35.00 811.25,35.00 811.93,35.00 812.59,35.00 813.26,35.00 813.93,35.00 814.60,35.00 815.26,35.00 815.92,35.00 816.59,35.00 817.26,35.00 817.92,35.00 818.58,35.00 819.30,35.00 819.96,35.00 820.63,35.00 821.30,35.00 821.97,35.00 822.63,35.00 823.29,35.00 823.96,35.00 824.62,35.00 825.28,35.00 825.95,35.00 826.61,35.00 827.28,35.00 827.95,35.00 828.61,35.00 829.27,35.00 829.94,35.00 830.60,35.00 831.27,35.00 831.94,35.00 832.60,35.00 833.28,35.00 833.96,35.00 834.62,35.00 835.29,35.00 835.95,35.00 836.62,35.00 837.29,35.00 837.96,35.00 838.62,35.00 839.28,35.00 839.95,35.00 840.61,35.00 841.28,35.00 841.94,35.00 842.61,35.00 843.27,35.00 843.94,35.00 844.59,35.00 845.26,35.00 845.92,35.00 846.59,35.00 847.25,35.00 847.91,35.00 848.58,35.00 849.23,35.00 849.89,35.00 850.55,35.00 851.22,35.00 851.88,35.00 852.54,35.00 853.20,35.00 853.86,35.00 854.52,35.00 855.18,35.00 855.84,35.00 856.51,35.00 857.17,35.00 857.83,35.00 858.49,35.00 859.15,35.00 859.83,35.00 860.48,35.00 861.15,35.00 861.81,35.00 862.51,35.00 863.16,35.00 863.83,35.00 864.50,35.00 865.17,35.00 865.83,35.00 866.50,35.00 867.17,35.00 867.83,35.00 868.49,35.00 869.15,35.00 869.81,35.00 870.48,35.00 871.14,35.00 871.81,35.00 872.47,35.00 873.13,35.00 873.79,35.00 874.45,35.00 875.12,35.00 875.79,35.00 876.48,35.00 877.14,35.00 877.80,35.00 878.46,35.00 879.11,35.00 879.79,35.00 880.45,35.00 881.11,35.00 881.78,35.00 882.45,35.00 883.11,35.00 883.78,35.00 884.44,35.00 885.11,35.00 885.77,35.00 886.43,35.00 887.10,35.00 887.76,35.00 888.42,35.00 889.08,35.00 889.74,35.00 890.41,35.00 891.07,35.00 891.73,35.00 892.39,35.00 893.06,35.00 893.72,35.00 894.38,35.00 895.05,35.00 895.71,35.00 896.37,35.00 897.04,35.00 897.70,35.00 898.37,35.00 899.03,35.00 899.69,35.00 900.36,35.00 901.02,35.00 901.67,35.00 902.34,35.00 903.01,35.00 903.66,35.00 904.35,35.00 905.01,35.00 905.67,35.00 906.33,35.00 907.00,35.00 907.67,35.00 908.34,35.00 909.01,35.00 909.72,35.00 910.38,35.00 911.10,35.00 911.76,35.00 912.42,35.00 913.08,35.00 913.74,35.00 914.40,35.00 915.07,35.00 915.73,35.00 916.39,35.00 917.06,35.00 917.72,35.00 918.38,35.00 919.05,35.00 919.71,35.00 920.37,35.00 921.03,35.00 921.69,35.00 922.35,35.00 923.02,35.00 923.68,35.00 924.35,35.00 925.01,35.00 925.67,35.00 926.33,35.00 927.00,35.00 927.67,35.00 928.33,35.00 928.99,35.00 929.66,35.00 930.32,35.00 930.98,35.00 931.64,35.00 932.31,35.00 932.97,35.00 933.63,35.00 934.29,35.00 934.94,35.00 935.60,35.00 936.27,35.00 936.93,35.00 937.59,35.00 938.26,35.00 938.95,35.00 939.62,35.00 940.28,35.00 940.94,35.00 941.60,35.00 942.25,35.00 942.91,35.00 943.58,35.00 944.24,35.00 944.90,35.00 945.56,35.00 946.22,35.00 946.87,35.00 947.54,35.00 948.20,35.00 948.86,35.00 949.52,35.00 950.19,35.00 950.85,35.00 951.51,35.00 952.18,35.00 952.84,35.00 953.50,35.00 954.17,35.00 954.83,35.00 955.49,35.00 956.16,35.00 956.83,35.00 957.50,35.00 958.16,35.00 958.82,35.00 959.48,35.00 960.15,35.00 960.81,35.00 961.49,35.00 962.15,35.00 962.82,35.00 963.49,35.00 964.15,35.00 964.82,35.00 965.48,35.00 966.14,35.00 966.81,35.00 967.48,35.00 968.13,35.00 968.80,35.00 969.47,35.00 970.13,35.00 970.80,35.00 971.47,35.00 972.16,35.00 972.86,35.00 973.53,35.00 974.19,35.00 974.85,35.00 975.51,35.00 976.18,35.00 976.84,35.00 977.50,35.00 978.17,35.00 978.84,35.00 979.51,35.00 980.16,35.00 980.82,35.00 981.49,35.00 982.15,35.00 982.82,35.00 983.50,35.00 984.18,35.00 984.84,35.00 985.52,35.00 986.21,35.00 986.88,35.00 987.58,35.00 988.25,35.00 988.91,35.00 989.58,35.00 990.24,35.00 990.91,35.00 991.57,35.00 992.23,35.00 992.89,35.00 993.55,35.00 994.22,35.00 994.90,35.00 995.56,35.00 996.23,35.00 996.90,35.00 997.68,35.00 998.34,35.00 999.00,35.00 999.66,35.00 1000.32,35.00 1000.98,35.00 1001.63,35.00 1002.25,35.00 1002.84,35.00 1003.56,35.00 1004.18,35.00 1004.79,35.00 1005.47,35.00 1006.04,35.00 1006.70,35.00 1007.37,35.00 1008.03,35.00 1008.69,35.00 1009.35,35.00 1010.01,35.00 1010.67,35.00 1011.33,35.00 1012.00,35.00 1012.66,35.00 1013.32,35.00 1013.98,35.00 1014.65,35.00 1015.30,35.00 1015.96,35.00 1016.62,35.00 1017.28,35.00 1017.93,35.00 1018.59,35.00 1019.26,35.00 1019.92,35.00 1020.58,35.00 1021.25,35.00 1021.91,35.00 1022.56,35.00 1023.22,35.00 1023.88,35.00 1024.54,35.00 1025.20,35.00 1025.86,35.00 1026.52,35.00 1027.18,35.00 1027.84,35.00 1028.50,35.00 1029.16,35.00 1029.82,35.00 1030.48,35.00 1031.14,35.00 1031.81,35.00 1032.46,35.00 1033.13,35.00 1033.79,35.00 1034.45,35.00 1035.11,35.00 1035.76,35.00 1036.42,35.00 1037.08,35.00 1037.74,35.00 1038.39,35.00 1039.05,35.00 1039.73,35.00 1040.39,35.00 1041.05,35.00 1041.71,35.00 1042.37,35.00 1043.04,35.00 1043.70,35.00 1044.37,35.00 1045.03,35.00 1045.69,35.00 1046.35,35.00 1047.01,35.00 1047.67,35.00 1048.33,35.00 1048.99,35.00 1049.65,35.00 1050.31,35.00 1050.98,35.00 1051.63,35.00 1052.30,35.00 1052.96,35.00 1053.62,35.00 1054.28,35.00 1054.94,35.00 1055.60,35.00 1056.27,35.00 1056.93,35.00 1057.65,35.00 1058.31,35.00 1058.98,35.00 1059.64,35.00 1060.30,35.00 1060.96,35.00 1061.61,35.00 1062.28,35.00 1063.21,35.00 1063.87,35.00 1064.79,35.00 1065.45,35.00 1066.11,35.00 1066.78,35.00 1067.44,35.00 1068.10,35.00 1068.76,35.00 1069.41,35.00 1070.07,35.00 1070.73,35.00 1071.39,35.00 1072.05,35.00 1072.71,35.00 1073.38,35.00 1074.05,35.00 1074.71,35.00 1075.37,35.00 1076.03,35.00 1076.69,35.00 1077.37,35.00 1078.02,35.00 1078.68,35.00 1079.35,35.00 1080.01,35.00 1080.67,35.00 1081.33,35.00 1082.00,35.00 1082.66,35.00 1083.32,35.00 1083.98,35.00 1084.65,35.00 1085.33,35.00 1086.01,35.00 1086.68,35.00 1087.37,35.00 1088.03,35.00 1088.69,35.00 1089.36,35.00 1090.02,35.00 1090.68,35.00 1091.35,35.00 1092.00,35.00 1092.66,35.00 1093.34,35.00 1094.00,35.00 1094.67,35.00 1095.34,35.00 1096.00,35.00 1096.67,35.00 1097.33,35.00 1097.99,35.00 1098.66,35.00 1099.32,35.00 1099.99,35.00 1100.66,35.00 1101.32,35.00 1102.00,35.00 1102.66,35.00 1103.32,35.00 1103.98,35.00 1104.65,35.00 1105.31,35.00 1105.99,35.00 1106.66,35.00 1107.32,35.00 1107.99,35.00 1108.65,35.00 1109.31,35.00 1109.97,35.00 1110.64,35.00 1111.30,35.00 1111.96,35.00 1112.62,35.00 1113.29,35.00 1113.94,35.00 1114.61,35.00 1115.29,35.00 1115.96,35.00 1116.63,35.00 1117.29,35.00 1117.95,35.00 1118.61,35.00 1119.28,35.00 1119.94,35.00 1120.60,35.00 1121.26,35.00 1121.93,35.00 1122.59,35.00 1123.26,35.00 1123.93,35.00 1124.59,35.00 1125.25,35.00 1125.91,35.00 1126.58,35.00 1127.24,35.00 1127.91,35.00 1128.58,35.00 1129.24,35.00 1129.91,35.00 1130.58,35.00 1131.24,35.00 1131.90,35.00 1132.58,35.00 1133.24,35.00 1133.91,35.00 1134.58,35.00 1135.24,35.00 1135.90,35.00 1136.56,35.00 1137.22,35.00 1137.90,35.00 1138.57,35.00 1139.24,35.00 1139.92,35.00 1140.58,35.00 1141.25,35.00 1141.91,35.00 1142.58,35.00 1143.24,35.00 1143.91,35.00 1144.57,35.00 1145.24,35.00 1145.91,35.00 1146.57,35.00 1147.24,35.00 1147.90,35.00 1148.57,35.00 1149.23,35.00 1149.89,35.00 1150.57,35.00 1151.24,35.00 1151.91,35.00 1152.57,35.00 1153.25,35.00 1153.91,35.00 1154.57,35.00 1155.23,35.00 1155.90,35.00 1156.59,35.00 1157.26,35.00 1157.91,35.00 1158.59,35.00 1159.25,35.00 1159.91,35.00 1160.60,35.00 1161.27,35.00 1161.94,35.00 1162.61,35.00 1163.28,35.00 1163.95,35.00 1164.66,35.00 1165.31,35.00 1165.99,35.00 1166.65,35.00 1167.31,35.00 1167.97,35.00 1168.64,35.00 1169.31,35.00 1169.98,35.00 1170.64,35.00 1171.33,35.00 1171.99,35.00 1172.66,35.00 1173.32,35.00 1173.99,35.00 1174.65,35.00 1175.34,35.00 1176.00,35.00 1176.66,35.00 1177.33,35.00 1177.99,35.00 1178.65,35.00 1179.33,35.00 1180.00,35.00"/>
<polyline fill="none" stroke="#1f77b4" stroke-opacity="0.50" stroke-width="2" points="70.00,35.00 70.66,35.00 71.32,35.00 71.98,35.00 72.65,35.00 73.31,35.00 73.97,35.00 74.63,35.00 75.35,35.00 76.00,35.00 76.66,35.00 77.32,35.00 77.99,35.00 78.65,35.00 79.30,35.00 80.49,35.00 81.52,35.00 82.18,35.00 82.86,35.00 83.52,35.00 84.18,35.00 84.83,35.00 85.49,35.00 86.15,35.00 86.82,35.00 87.48,35.00 88.16,35.00 88.82,35.00 89.48,35.00 90.18,35.00 90.84,35.00 91.50,35.00 92.18,35.00 92.84,35.00 93.50,35.00 94.18,35.00 94.84,35.00 95.50,35.00 96.17,35.00 96.83,35.00 97.49,35.00 98.14,35.00 98.80,35.00 99.46,35.00 100.12,35.00 100.79,35.00 101.46,35.00 102.11,35.00 102.77,35.00 103.44,35.00 104.10,35.00 104.86,35.00 105.52,35.00 106.18,35.00 106.83,35.00 107.49,35.00 108.14,35.00 108.80,35.00 109.46,35.00 110.12,35.00 110.80,35.00 111.45,35.00 112.11,35.00 112.77,35.00 113.44,35.00 114.10,35.00 114.76,35.00 115.42,35.00 116.07,35.00 116.73,35.00 117.38,35.00 118.04,35.00 118.70,35.00 119.36,35.00 120.02,35.00 120.68,35.00 121.33,35.00 122.00,35.00 122.65,35.00 123.31,35.00 123.99,35.00 124.65,35.00 125.31,35.00 125.97,35.00 126.63,35.00 127.29,35.00 127.95,35.00 128.60,35.00 129.26,35.00 129.92,35.00 130.59,35.00 131.25,35.00 131.92,35.00 132.57,35.00 133.23,35.00 133.89,35.00 134.54,35.00 135.20,35.00 135.86,35.00 136.52,35.00 137.18,35.00 137.84,35.00 138.50,35.00 139.16,35.00 139.83,35.00 140.50,35.00 141.16,35.00 141.81,35.00 142.47,35.00 143.13,35.00 143.80,35.00 144.46,35.00 145.12,35.00 145.78,35.00 146.44,35.00 147.10,35.00 147.77,35.00 148.44,35.00 149.10,35.00 149.76,35.00 150.42,35.00 151.08,35.00 151.74,35.00 152.40,35.00 153.12,35.00 153.77,35.00 154.44,35.00 155.10,35.00 155.76,35.00 156.41,35.00 157.06,35.00 157.72,35.00 158.38,35.00 159.04,35.00 159.70,35.00 160.36,35.00 161.01,35.00 161.67,35.00 162.34,35.00 163.00,35.00 163.66,35.00 164.32,35.00 164.98,35.00 165.63,35.00 166.30,35.00 166.96,35.00 167.62,35.00 168.28,35.00 168.94,35.00 169.60,35.00 170.25,35.00 170.91,35.00 171.57,35.00 172.23,35.00 172.90,35.00 173.56,35.00 174.22,35.00 174.89,35.00 175.55,35.00 176.20,35.00 176.87,35.00 177.53,35.00 178.20,35.00 178.87,35.00 179.53,35.00 180.19,35.00 180.84,35.00 181.50,35.00 182.16,35.00 182.82,35.00 183.48,35.00 184.13,35.00 184.78,35.00 185.45,35.00 186.11,35.00 186.78,35.00 187.44,35.00 188.11,35.00 188.77,35.00 189.43,35.00 190.09,35.00 190.74,35.00 191.46,35.00 192.13,35.00 192.79,35.00 193.45,35.00 194.10,35.00 194.76,35.00 195.42,35.00 196.08,35.00 196.74,35.00 197.40,35.00 198.06,35.00 198.72,35.00 199.39,35.00 200.05,35.00 200.71,35.00 201.37,35.00 202.03,35.00 202.71,35.00 203.38,35.00 204.04,35.00 204.70,35.00 205.36,35.00 206.02,35.00 206.68,35.00 207.34,35.00 208.01,35.00 208.67,35.00 209.32,35.00 209.99,35.00 210.65,35.00 211.31,35.00 211.97,35.00 212.64,35.00 213.30,35.00 213.96,35.00 214.61,35.00 215.27,35.00 215.93,35.00 216.59,35.00 217.25,35.00 217.91,35.00 218.56,35.00 219.22,35.00 219.88,35.00 220.54,35.00 221.21,35.00 221.88,35.00 222.54,35.00 223.20,35.00 223.86,35.00 224.52,35.00 225.18,35.00 225.84,35.00 226.50,35.00 227.18,35.00 227.84,35.00 228.50,35.00 229.16,35.00 229.82,35.00 230.48,35.00 231.14,35.00 231.80,35.00 232.46,35.00 233.12,35.00 233.78,35.00 234.44,35.00 235.11,35.00 235.77,35.00 236.43,35.00 237.09,35.00 237.76,35.00 238.42,35.00 239.08,35.00 239.74,35.00 240.41,35.00 241.07,35.00 241.73,35.00 242.39,35.00 243.12,35.00 243.79,35.00 244.45,35.00 245.11,35.00 245.78,35.00 246.44,35.00 247.10,35.00 247.76,35.00 248.42,35.00 249.10,35.00 249.77,35.00 250.42,35.00 251.08,35.00 251.74,35.00 252.41,35.00 253.07,35.00 253.75,35.00 254.41,35.00 255.07,35.00 255.74,35.00 256.45,35.00 257.11,35.00 257.95,35.00 259.06,35.00 259.74,35.00 260.41,35.00 261.07,35.00 261.72,35.00 262.38,35.00 263.05,35.00 263.71,35.00 264.38,35.00 265.06,35.00 265.75,35.00 266.45,35.00 267.11,35.00 267.77,35.00 268.43,35.00 269.10,35.00 269.77,35.00 270.44,35.00 271.09,35.00 271.75,35.00 272.44,35.00 273.11,35.00 273.76,35.00 274.42,35.00 275.09,35.00 275.78,35.00 276.44,35.00 277.11,35.00 277.78,35.00 278.42,35.00 279.07,35.00 279.75,35.00 280.40,35.00 281.08,35.00 281.76,35.00 282.42,35.00 283.08,35.00 283.75,35.00 284.42,35.00 285.08,35.00 285.74,35.00 286.39,35.00 287.06,35.00 287.72,35.00 288.37,35.00 289.16,35.00 289.94,35.00 290.72,35.00 291.49,35.00 292.24,35.00 293.00,35.00 293.79,35.00 294.56,35.00 295.22,35.00 295.87,35.00 296.53,35.00 297.19,35.00 297.85,35.00 298.51,35.00 299.16,35.00 299.82,35.00 300.48,35.00 301.14,35.00 301.80,35.00 302.46,35.00 303.11,35.00 303.77,35.00 304.43,35.00 305.08,35.00 305.75,35.00 306.40,35.00 307.06,35.00 307.73,35.00 308.38,35.00 309.03,35.00 309.69,35.00 310.35,35.00 311.01,35.00 311.67,35.00 312.33,35.00 312.99,35.00 313.65,35.00 314.31,35.00 314.97,35.00 315.63,35.00 316.28,35.00 316.94,35.00 317.59,35.00 318.24,35.00 318.90,35.00 319.56,35.00 320.21,35.00 320.87,35.00 321.53,35.00 322.19,35.00 322.84,35.00 323.49,35.00 324.14,35.00 324.82,35.00 325.53,35.00 326.19,35.00 326.86,35.00 327.51,35.00 328.17,35.00 328.82,35.00 329.48,35.00 330.13,35.00 330.91,35.00 331.69,35.00 332.46,35.00 333.23,35.00 334.01,35.00 334.78,35.00 335.56,35.00 336.36,35.00 337.08,35.00 337.79,35.00 338.45,35.00 339.12,35.00 339.78,35.00 340.43,35.00 341.09,35.00 341.75,35.00 342.41,35.00 343.07,35.00 343.72,35.00 344.38,35.00 345.05,35.00 345.70,35.00 346.37,35.00 347.03,35.00 347.69,35.00 348.26,35.00 348.94,35.00 349.60,35.00 350.28,35.00 350.94,35.00 351.59,35.00 352.26,35.00 352.92,35.00 353.59,35.00 354.25,35.00 354.92,35.00 355.59,35.00 356.25,35.00 356.90,35.00 357.56,35.00 358.21,35.00 358.87,35.00 359.52,35.00 360.19,35.00 360.85,35.00 361.51,35.00 362.17,35.00 362.82,35.00 363.49,35.00 364.15,35.00 364.81,35.00 365.48,35.00 366.13,35.00 366.79,35.00 367.46,35.00 368.12,35.00 368.80,35.00 369.45,35.00 370.11,35.00 370.77,35.00 371.42,35.00 372.08,35.00 372.75,35.00 373.40,35.00 374.06,35.00 374.72,35.00 375.37,35.00 376.03,35.00 376.70,35.00 377.36,35.00 378.02,35.00 378.82,35.00 379.49,35.00 380.17,35.00 380.84,35.00 381.50,35.00 382.17,35.00 382.82,35.00 383.48,35.00 384.14,35.00 384.81,35.00 385.47,35.00 386.13,35.00 386.79,35.00 387.45,35.00 388.13,35.00 388.81,35.00 389.47,35.00 390.13,35.00 390.79,35.00 391.45,35.00 392.10,35.00 392.77,35.00 393.45,35.00 394.12,35.00 394.78,35.00 395.44,35.00 396.10,35.00 396.76,35.00 397.42,35.00 398.08,35.00 398.75,35.00 399.41,35.00 400.07,35.00 400.73,35.00 401.39,35.00 402.05,35.00 402.71,35.00 403.38,35.00 404.04,35.00 404.70,35.00 405.36,35.00 406.02,35.00 406.69,35.00 407.35,35.00 408.15,35.00 408.83,35.00 409.49,35.00 410.15,35.00 410.80,35.00 411.47,35.00 412.13,35.00 412.79,35.00 413.47,35.00 414.12,35.00 414.78,35.00 415.44,35.00 416.10,35.00 416.76,35.00 417.42,35.00 418.08,35.00 418.74,35.00 419.40,35.00 420.06,35.00 420.72,35.00 421.38,35.00 422.04,35.00 422.70,35.00 423.37,35.00 424.03,35.00 424.69,35.00 425.35,35.00 426.01,35.00 426.69,35.00 427.35,35.00 428.01,35.00 428.68,35.00 429.34,35.00 429.99,35.00 430.66,35.00 431.32,35.00 432.00,35.00 432.66,35.00 433.32,35.00 433.97,35.00 434.63,35.00 435.29,35.00 435.95,35.00 436.61,35.00 437.28,35.00 437.94,35.00 438.61,35.00 439.26,35.00 439.93,35.00 440.58,35.00 441.24,35.00 441.90,35.00 442.56,35.00 443.22,35.00 443.89,35.00 444.55,35.00 445.21,35.00 445.88,35.00 446.54,35.00 447.21,35.00 447.87,35.00 448.54,35.00 449.28,35.00 450.00,35.00 450.71,35.00 451.38,35.00 452.07,35.00 452.73,35.00 453.39,35.00 454.05,35.00 454.66,35.00 455.35,35.00 456.02,35.00 456.68,35.00 457.34,35.00 458.00,35.00 458.66,35.00 459.32,35.00 459.98,35.00 460.64,35.00 461.30,35.00 461.96,35.00 462.63,35.00 463.29,35.00 463.96,35.00 464.63,35.00 465.29,35.00 465.95,35.00 466.61,35.00 467.29,35.00 467.95,35.00 468.61,35.00 469.27,35.00 469.93,35.00 470.59,35.00 471.25,35.00 471.91,35.00 472.57,35.00 473.24,35.00 473.90,35.00 474.56,35.00 475.22,35.00 475.88,35.00 476.55,35.00 477.21,35.00 477.87,35.00 478.53,35.00 479.20,35.00 479.86,35.00 480.53,35.00 481.19,35.00 481.86,35.00 482.52,35.00 483.18,35.00 483.84,35.00 484.51,35.00 485.19,35.00 485.86,35.00 486.52,35.00 487.18,35.00 487.84,35.00 488.50,35.00 489.17,35.00 489.83,35.00 490.50,35.00 491.16,35.00 491.82,35.00 492.49,35.00 493.15,35.00 493.82,35.00 494.48,35.00 495.15,35.00 495.81,35.00 496.48,35.00 497.15,35.00 497.81,35.00 498.47,35.00 499.13,35.00 499.80,35.00 500.47,35.00 501.14,35.00 501.81,35.00 502.47,35.00 503.13,35.00 503.79,35.00 504.45,35.00 505.12,35.00 505.78,35.00 506.44,35.00 507.10,35.00 507.76,35.00 508.43,35.00 509.10,35.00 509.76,35.00 510.42,35.00 511.09,35.00 511.75,35.00 512.42,35.00 513.08,35.00 513.74,35.00 514.40,35.00 515.06,35.00 515.72,35.00 516.38,35.00 517.05,35.00 517.71,35.00 518.38,35.00 519.04,35.00 519.71,35.00 520.38,35.00 521.04,35.00 521.70,35.00 522.37,35.00 523.03,35.00 523.70,35.00 524.36,35.00 525.03,35.00 525.70,35.00 526.36,35.00 527.04,35.00 527.71,35.00 528.37,35.00 529.04,35.00 529.70,35.00 530.36,35.00 531.03,35.00 531.70,35.00 532.36,35.00 533.03,35.00 533.69,35.00 534.35,35.00 535.03,35.00 535.69,35.00 536.36,35.00 537.02,35.00 537.68,35.00 538.34,35.00 538.99,35.00 539.65,35.00 540.32,35.00 540.98,35.00 541.65,35.00 542.31,35.00 542.97,35.00 543.63,35.00 544.32,35.00 544.98,35.00 545.64,35.00 546.31,35.00 546.96,35.00 547.63,35.00 548.29,35.00 548.96,35.00 549.62,35.00 550.28,35.00 550.95,35.00 551.61,35.00 552.27,35.00 552.94,35.00 553.61,35.00 554.29,35.00 554.96,35.00 555.63,35.00 556.29,35.00 556.96,35.00 557.63,35.00 558.28,35.00 558.94,35.00 559.60,35.00 560.27,35.00 560.94,35.00 561.61,35.00 562.27,35.00 562.94,35.00 563.63,35.00 564.29,35.00 564.96,35.00 565.62,35.00 566.28,35.00 566.95,35.00 567.62,35.00 568.29,35.00 568.95,35.00 569.63,35.00 570.29,35.00 570.96,35.00 571.62,35.00 572.29,35.00 572.95,35.00 573.61,35.00 574.28,35.00 574.94,35.00 575.61,35.00 576.28,35.00 576.94,35.00 577.61,35.00 578.27,35.00 578.94,35.00 579.60,35.00 580.27,35.00 580.96,35.00 581.62,35.00 582.29,35.00 582.96,35.00 583.64,35.00 584.32,35.00 584.99,35.00 585.67,35.00 586.35,35.00 587.02,35.00 587.68,35.00 588.34,35.00 589.01,35.00 589.68,35.00 590.35,35.00 591.03,35.00 591.69,35.00 592.36,35.00 593.02,35.00 593.68,35.00 594.34,35.00 595.01,35.00 595.67,35.00 596.33,35.00 597.00,35.00 597.66,35.00 598.32,35.00 598.97,35.00 599.64,35.00 600.30,35.00 600.97,35.00 601.63,35.00 602.30,35.00 602.97,35.00 603.63,35.00 604.30,35.00 604.96,35.00 605.63,35.00 606.29,35.00 606.95,35.00 607.62,35.00 608.28,35.00 608.94,35.00 609.60,35.00 610.26,35.00 610.92,35.00 611.59,35.00 612.25,35.00 612.91,35.00 613.58,35.00 614.24,35.00 614.90,35.00 615.57,35.00 616.23,35.00 616.88,35.00 617.54,35.00 618.19,35.00 618.86,35.00 619.52,35.00 620.20,35.00 620.86,35.00 621.52,35.00 622.19,35.00 622.86,35.00 623.53,35.00 624.19,35.00 624.86,35.00 625.52,35.00 626.18,35.00 626.86,35.00 627.52,35.00 628.19,35.00 628.86,35.00 629.52,35.00 630.18,35.00 630.84,35.00 631.50,35.00 632.17,35.00 632.83,35.00 633.48,35.00 634.15,35.00 634.81,35.00 635.48,35.00 636.14,35.00 636.80,35.00 637.46,35.00 638.13,35.00 638.79,35.00 639.46,35.00 640.12,35.00 640.79,35.00 641.45,35.00 642.12,35.00 642.78,35.00 643.44,35.00 644.11,35.00 644.77,35.00 645.43,35.00 646.10,35.00 646.77,35.00 647.43,35.00 648.09,35.00 648.75,35.00 649.44,35.00 650.10,35.00 650.77,35.00 651.45,35.00 652.11,35.00 652.78,35.00 653.44,35.00 654.11,35.00 654.77,35.00 655.43,35.00 656.10,35.00 656.78,35.00 657.45,35.00 658.11,35.00 658.78,35.00 659.44,35.00 660.11,35.00 660.77,35.00 661.43,35.00 662.09,35.00 662.76,35.00 663.42,35.00 664.08,35.00 664.74,35.00 665.41,35.00 666.07,35.00 666.73,35.00 667.39,35.00 668.05,35.00 668.72,35.00 669.39,35.00 670.05,35.00 670.71,35.00 671.38,35.00 672.04,35.00 672.70,35.00 673.37,35.00 674.03,35.00 674.70,35.00 675.37,35.00 676.02,35.00 676.68,35.00 677.35,35.00 678.01,35.00 678.67,35.00 679.35,35.00 680.03,35.00 680.70,35.00 681.38,35.00 682.05,35.00 682.73,35.00 683.41,35.00 684.09,35.00 684.78,35.00 685.45,35.00 686.14,35.00 686.80,35.00 687.46,35.00 688.13,35.00 688.80,35.00 689.46,35.00 690.13,35.00 690.79,35.00 691.46,35.00 692.13,35.00 692.79,35.00 693.45,35.00 694.11,35.00 694.78,35.00 695.43,35.00 696.10,35.00 696.77,35.00 697.43,35.00 698.09,35.00 698.77,35.00 699.43,35.00 700.10,35.00 700.76,35.00 701.42,35.00 702.09,35.00 702.75,35.00 703.42,35.00 704.08,35.00 704.74,35.00 705.41,35.00 706.07,35.00 706.73,35.00 707.40,35.00 708.06,35.00 708.73,35.00 709.44,35.00 710.12,35.00 710.78,35.00 711.45,35.00 712.11,35.00 712.78,35.00 713.45,35.00 714.12,35.00 714.79,35.00 715.45,35.00 716.10,35.00 716.76,35.00 717.42,35.00 718.09,35.00 718.75,35.00 719.42,35.00 720.09,35.00 720.75,35.00 721.42,35.00 722.08,35.00 722.74,35.00 723.40,35.00 724.07,35.00 724.74,35.00 725.40,35.00 726.06,35.00 726.73,35.00 727.40,35.00 728.06,35.00 728.75,35.00 729.42,35.00 730.08,35.00 730.74,35.00 731.41,35.00 732.07,35.00 732.74,35.00 733.41,35.00 734.07,35.00 734.74,35.00 735.40,35.00 736.08,35.00 736.75,35.00 737.41,35.00 738.08,35.00 738.74,35.00 739.40,35.00 740.07,35.00 740.73,35.00 741.39,35.00 742.07,35.00 742.73,35.00 743.39,35.00 744.06,35.00 744.72,35.00 745.38,35.00 746.05,35.00 746.71,35.00 747.37,35.00 748.04,35.00 748.70,35.00 749.36,35.00 750.03,35.00 750.69,35.00 751.36,35.00 752.02,35.00 752.69,35.00 753.35,35.00 754.01,35.00 754.67,35.00 755.33,35.00 756.00,35.00 756.66,35.00 757.34,35.00 758.01,35.00 758.67,35.00 759.34,35.00 760.00,35.00 760.68,35.00 761.39,35.00 762.07,35.00 762.74,35.00 763.41,35.00 764.08,35.00 764.74,35.00 765.41,35.00 766.07,35.00 766.74,35.00 767.40,35.00 768.07,35.00 768.73,35.00 769.40,35.00 770.08,35.00 770.74,35.00 771.41,35.00 772.07,35.00 772.74,35.00 773.40,35.00 774.07,35.00 774.73,35.00 775.40,35.00 776.07,35.00 776.73,35.00 777.40,35.00 778.07,35.00 778.73,35.00 779.40,35.00 780.07,35.00 780.74,35.00 781.41,35.00 782.07,35.00 782.73,35.00 783.40,35.00 784.06,35.00 784.72,35.00 785.39,35.00 786.05,35.00 786.72,35.00 787.39,35.00 788.04,35.00 788.71,35.00 789.38,35.00 790.05,35.00 790.70,35.00 791.37,35.00 792.04,35.00 792.71,35.00 793.38,35.00 794.03,35.00 794.68,35.00 795.34,35.00 796.00,35.00 796.67,35.00 797.34,35.00 798.01,35.00 798.67,35.00 799.34,35.00 800.02,35.00 800.67,35.00 801.34,35.00 802.00,35.00 802.66,35.00 803.32,35.00 803.98,35.00 804.64,35.00 805.31,35.00 805.97,35.00 806.63,35.00 807.29,35.00 807.96,35.00 808.63,35.00 809.29,35.00 809.95,35.00 810.61,35.00 811.25,35.00 811.93,35.00 812.59,35.00 813.26,35.00 813.93,35.00 814.60,35.00 815.26,35.00 815.92,35.00 816.59,35.00 817.26,35.00 817.92,35.00 818.58,35.00 819.30,35.00 819.96,35.00 820.63,35.00 821.30,35.00 821.97,35.00 822.63,35.00 823.29,35.00 823.96,35.00 824.62,35.00 825.28,35.00 825.95,35.00 826.61,35.00 827.28,35.00 827.95,35.00 828.61,35.00 829.27,35.00 829.94,35.00 830.60,35.00 831.27,35.00 831.94,35.00 832.60,35.00 833.28,35.00 833.96,35.00 834.62,35.00 835.29,35.00 835.95,35.00 836.62,35.00 837.29,35.00 837.96,35.00 838.62,35.00 839.28,35.00 839.95,35.00 840.61,35.00 841.28,35.00 841.94,35.00 842.61,35.00 843.27,35.00 843.94,35.00 844.59,35.00 845.26,35.00 845.92,35.00 846.59,35.00 847.25,35.00 847.91,35.00 848.58,35.00 849.23,35.00 849.89,35.00 850.55,35.00 851.22,35.00 851.88,35.00 852.54,35.00 853.20,35.00 853.86,35.00 854.52,35.00 855.18,35.00 855.84,35.00 856.51,35.00 857.17,35.00 857.83,35.00 858.49,35.00 859.15,35.00 859.83,35.00 860.48,35.00 861.15,35.00 861.81,35.00 862.51,35.00 863.16,35.00 863.83,35.00 864.50,35.00 865.17,35.00 865.83,35.00 866.50,35.00 867.17,35.00 867.83,35.00 868.49,35.00 869.15,35.00 869.81,35.00 870.48,35.00 871.14,35.00 871.81,35.00 872.47,35.00 873.13,35.00 873.79,35.00 874.45,35.00 875.12,35.00 875.79,35.00 876.48,35.00 877.14,35.00 877.80,35.00 878.46,35.00 879.11,35.00 879.79,35.00 880.45,35.00 881.11,35.00 881.78,35.00 882.45,35.00 883.11,35.00 883.78,35.00 884.44,35.00 885.11,35.00 885.77,35.00 886.43,35.00 887.10,35.00 887.76,35.00 888.42,35.00 889.08,35.00 889.74,35.00 890.41,35.00 891.07,35.00 891.73,35.00 892.39,35.00 893.06,35.00 893.72,35.00 894.38,35.00 895.05,35.00 895.71,35.00 896.37,35.00 897.04,35.00 897.70,35.00 898.37,35.00 899.03,35.00 899.69,35.00 900.36,35.00 901.02,35.00 901.67,35.00 902.34,35.00 903.01,35.00 903.66,35.00 904.35,35.00 905.01,35.00 905.67,35.00 906.33,35.00 907.00,35.00 907.67,35.00 908.34,35.00 909.01,35.00 909.72,35.00 910.38,35.00 911.10,35.00 911.76,35.00 912.42,35.00 913.08,35.00 913.74,35.00 914.40,35.00 915.07,35.00 915.73,35.00 916.39,35.00 917.06,35.00 917.72,35.00 918.38,35.00 919.05,35.00 919.71,35.00 920.37,35.00 921.03,35.00 921.69,35.00 922.35,35.00 923.02,35.00 923.68,35.00 924.35,35.00 925.01,35.00 925.67,35.00 926.33,35.00 927.00,35.00 927.67,35.00 928.33,35.00 928.99,35.00 929.66,35.00 930.32,35.00 930.98,35.00 931.64,35.00 932.31,35.00 932.97,35.00 933.63,35.00 934.29,35.00 934.94,35.00 935.60,35.00 936.27,35.00 936.93,35.00 937.59,35.00 938.26,35.00 938.95,35.00 939.62,35.00 940.28,35.00 940.94,35.00 941.60,35.00 942.25,35.00 942.91,35.00 943.58,35.00 944.24,35.00 944.90,35.00 945.56,35.00 946.22,35.00 946.87,35.00 947.54,35.00 948.20,35.00 948.86,35.00 949.52,35.00 950.19,35.00 950.85,35.00 951.51,35.00 952.18,35.00 952.84,35.00 953.50,35.00 954.17,35.00 954.83,35.00 955.49,35.00 956.16,35.00 956.83,35.00 957.50,35.00 958.16,35.00 958.82,35.00 959.48,35.00 960.15,35.00 960.81,35.00 961.49,35.00 962.15,35.00 962.82,35.00 963.49,35.00 964.15,35.00 964.82,35.00 965.48,35.00 966.14,35.00 966.81,35.00 967.48,35.00 968.13,35.00 968.80,35.00 969.47,35.00 970.13,35.00 970.80,35.00 971.47,35.00 972.16,35.00 972.86,35.00 973.53,35.00 974.19,35.00 974.85,35.00 975.51,35.00 976.18,35.00 976.84,35.00 977.50,35.00 978.17,35.00 978.84,35.00 979.51,35.00 980.16,35.00 980.82,35.00 981.49,35.00 982.15,35.00 982.82,35.00 983.50,35.00 984.18,35.00 984.84,35.00 985.52,35.00 986.21,35.00 986.88,35.00 987.58,35.00 988.25,35.00 988.91,35.00 989.58,35.00 990.24,35.00 990.91,35.00 991.57,35.00 992.23,35.00 992.89,35.00 993.55,35.00 994.22,35.00 994.90,35.00 995.56,35.00 996.23,35.00 996.90,35.00 997.68,35.00 998.34,35.00 999.00,35.00 999.66,35.00 1000.32,35.00 1000.98,35.00 1001.63,35.00 1002.25,35.00 1002.84,35.00 1003.56,35.00 1004.18,35.00 1004.79,35.00 1005.47,35.00 1006.04,35.00 1006.70,35.00 1007.37,35.00 1008.03,35.00 1008.69,35.00 1009.35,35.00 1010.01,35.00 1010.67,35.00 1011.33,35.00 1012.00,35.00 1012.66,35.00 1013.32,35.00 1013.98,35.00 1014.65,35.00 1015.30,35.00 1015.96,35.00 1016.62,35.00 1017.28,35.00 1017.93,35.00 1018.59,35.00 1019.26,35.00 1019.92,35.00 1020.58,35.00 1021.25,35.00 1021.91,35.00 1022.56,35.00 1023.22,35.00 1023.88,35.00 1024.54,35.00 1025.20,35.00 1025.86,35.00 1026.52,35.00 1027.18,35.00 1027.84,35.00 1028.50,35.00 1029.16,35.00 1029.82,35.00 1030.48,35.00 1031.14,35.00 1031.81,35.00 1032.46,35.00 1033.13,35.00 1033.79,35.00 1034.45,35.00 1035.11,35.00 1035.76,35.00 1036.42,35.00 1037.08,35.00 1037.74,35.00 1038.39,35.00 1039.05,35.00 1039.73,35.00 1040.39,35.00 1041.05,35.00 1041.71,35.00 1042.37,35.00 1043.04,35.00 1043.70,35.00 1044.37,35.00 1045.03,35.00 1045.69,35.00 1046.35,35.00 1047.01,35.00 1047.67,35.00 1048.33,35.00 1048.99,35.00 1049.65,35.00 1050.31,35.00 1050.98,35.00 1051.63,35.00 1052.30,35.00 1052.96,35.00 1053.62,35.00 1054.28,35.00 1054.94,35.00 1055.60,35.00 1056.27,35.00 1056.93,35.00 1057.65,35.00 1058.31,35.00 1058.98,35.00 1059.64,35.00 1060.30,35.00 1060.96,35.00 1061.61,35.00 1062.28,35.00 1063.21,35.00 1063.87,35.00 1064.79,35.00 1065.45,35.00 1066.11,35.00 1066.78,35.00 1067.44,35.00 1068.10,35.00 1068.76,35.00 1069.41,35.00 1070.07,35.00 1070.73,35.00 1071.39,35.00 1072.05,35.00 1072.71,35.00 1073.38,35.00 1074.05,35.00 1074.71,35.00 1075.37,35.00 1076.03,35.00 1076.69,35.00 1077.37,35.00 1078.02,35.00 1078.68,35.00 1079.35,35.00 1080.01,35.00 1080.67,35.00 1081.33,35.00 1082.00,35.00 1082.66,35.00 1083.32,35.00 1083.98,35.00 1084.65,35.00 1085.33,35.00 1086.01,35.00 1086.68,35.00 1087.37,35.00 1088.03,35.00 1088.69,35.00 1089.36,35.00 1090.02,35.00 1090.68,35.00 1091.35,35.00 1092.00,35.00 1092.66,35.00 1093.34,35.00 1094.00,35.00 1094.67,35.00 1095.34,35.00 1096.00,35.00 1096.67,35.00 1097.33,35.00 1097.99,35.00 1098.66,35.00 1099.32,35.00 1099.99,35.00 1100.66,35.00 1101.32,35.00 1102.00,35.00 1102.66,35.00 1103.32,35.00 1103.98,35.00 1104.65,35.00 1105.31,35.00 1105.99,35.00 1106.66,35.00 1107.32,35.00 1107.99,35.00 1108.65,35.00 1109.31,35.00 1109.97,35.00 1110.64,35.00 1111.30,35.00 1111.96,35.00 1112.62,35.00 1113.29,35.00 1113.94,35.00 1114.61,35.00 1115.29,35.00 1115.96,35.00 1116.63,35.00 1117.29,35.00 1117.95,35.00 1118.61,35.00 1119.28,35.00 1119.94,35.00 1120.60,35.00 1121.26,35.00 1121.93,35.00 1122.59,35.00 1123.26,35.00 1123.93,35.00 1124.59,35.00 1125.25,35.00 1125.91,35.00 1126.58,35.00 1127.24,35.00 1127.91,35.00 1128.58,35.00 1129.24,35.00 1129.91,35.00 1130.58,35.00 1131.24,35.00 1131.90,35.00 1132.58,35.00 1133.24,35.00 1133.91,35.00 1134.58,35.00 1135.24,35.00 1135.90,35.00 1136.56,35.00 1137.22,35.00 1137.90,35.00 1138.57,35.00 1139.24,35.00 1139.92,35.00 1140.58,35.00 1141.25,35.00 1141.91,35.00 1142.58,35.00 1143.24,35.00 1143.91,35.00 1144.57,35.00 1145.24,35.00 1145.91,35.00 1146.57,35.00 1147.24,35.00 1147.90,35.00 1148.57,35.00 1149.23,35.00 1149.89,35.00 1150.57,35.00 1151.24,35.00 1151.91,35.00 1152.57,35.00 1153.25,35.00 1153.91,35.00 1154.57,35.00 1155.23,35.00 1155.90,35.00 1156.59,35.00 1157.26,35.00 1157.91,35.00 1158.59,35.00 1159.25,35.00 1159.91,35.00 1160.60,35.00 1161.27,35.00 1161.94,35.00 1162.61,35.00 1163.28,35.00 1163.95,35.00 1164.66,35.00 1165.31,35.00 1165.99,35.00 1166.65,35.00 1167.31,35.00 1167.97,35.00 1168.64,35.00 1169.31,35.00 1169.98,35.00 1170.64,35.00 1171.33,35.00 1171.99,35.00 1172.66,35.00 1173.32,35.00 1173.99,35.00 1174.65,35.00 1175.34,35.00 1176.00,35.00 1176.66,35.00 1177.33,35.00 1177.99,35.00 1178.65,35.00 1179.33,35.00 1180.00,35.00"/>
<rect x="70" y="332" width="12" height="12" fill="#1f77b4" fill-opacity="0.95"/>
<text x="88" y="342" font-size="11" fill="#333" font-family="Arial, Helvetica, sans-serif">nsc1.utdallas.edu</text>
<rect x="350" y="332" width="12" height="12" fill="#1f77b4" fill-opacity="0.80"/>
<text x="368" y="342" font-size="11" fill="#333" font-family="Arial, Helvetica, sans-serif">nsc2.utdallas.edu</text>
<rect x="630" y="332" width="12" height="12" fill="#1f77b4" fill-opacity="0.65"/>
<text x="648" y="342" font-size="11" fill="#333" font-family="Arial, Helvetica, sans-serif">nsc3.utdallas.edu</text>
<rect x="910" y="332" width="12" height="12" fill="#1f77b4" fill-opacity="0.50"/>
<text x="928" y="342" font-size="11" fill="#333" font-family="Arial, Helvetica, sans-serif">nsc4.utdallas.edu</text>
</svg>