<?xml version="1.0" encoding="UTF-8"?>
<svg xmlns="http://www.w3.org/2000/svg" width="1200" height="360" viewBox="0 0 1200 360" role="img" aria-label="Ping Uptime (%)">
<rect width="100%" height="100%" fill="#ffffff"/>
<text x="600.0" y="22" text-anchor="middle" font-size="16" font-family="Arial, Helvetica, sans-serif" font-weight="bold">Ping Uptime (%)</text>
<line x1="70" y1="35.00" x2="1180" y2="35.00" stroke="#e3e3e3" stroke-width="1"/>
<text x="62" y="39.00" text-anchor="end" font-size="11" fill="#444" font-family="Arial, Helvetica, sans-serif">100</text>
<line x1="70" y1="89.00" x2="1180" y2="89.00" stroke="#e3e3e3" stroke-width="1"/>
<text x="62" y="93.00" text-anchor="end" font-size="11" fill="#444" font-family="Arial, Helvetica, sans-serif">80</text>
<line x1="70" y1="143.00" x2="1180" y2="143.00" stroke="#e3e3e3" stroke-width="1"/>
<text x="62" y="147.00" text-anchor="end" font-size="11" fill="#444" font-family="Arial, Helvetica, sans-serif">60</text>
<line x1="70" y1="197.00" x2="1180" y2="197.00" stroke="#e3e3e3" stroke-width="1"/>
<text x="62" y="201.00" text-anchor="end" font-size="11" fill="#444" font-family="Arial, Helvetica, sans-serif">40</text>
<line x1="70" y1="251.00" x2="1180" y2="251.00" stroke="#e3e3e3" stroke-width="1"/>
<text x="62" y="255.00" text-anchor="end" font-size="11" fill="#444" font-family="Arial, Helvetica, sans-serif">20</text>
<line x1="70" y1="305.00" x2="1180" y2="305.00" stroke="#e3e3e3" stroke-width="1"/>
<text x="62" y="309.00" text-anchor="end" font-size="11" fill="#444" font-family="Arial, Helvetica, sans-serif">0</text>
<line x1="70" y1="35" x2="70" y2="305" stroke="#999"/>
<line x1="70" y1="305" x2="1180" y2="305" stroke="#999"/>
<text x="70.00" y="323" text-anchor="middle" font-size="10" fill="#444" font-family="Arial, Helvetica, sans-serif">2026-02-11 16:38</text>
<text x="347.50" y="323" text-anchor="middle" font-size="10" fill="#444" font-family="Arial, Helvetica, sans-serif">2026-02-12 23:05</text>
<text x="625.00" y="323" text-anchor="middle" font-size="10" fill="#444" font-family="Arial, Helvetica, sans-serif">2026-02-14 05:32</text>
<text x="902.50" y="323" text-anchor="middle" font-size="10" fill="#444" font-family="Arial, Helvetica, sans-serif">2026-02-15 11:59</text>
<text x="1180.00" y="323" text-anchor="middle" font-size="10" fill="#444" font-family="Arial, Helvetica, sans-serif">2026-02-16 18:27</text>
<polyline fill="none" stroke="#1f77b4" stroke-opacity="0.95" stroke-width="2" points="70.82,35.00 71.64,35.00 72.45,35.00 73.27,35.00 74.10,35.00 74.91,35.00 75.73,35.00 76.61,35.00 77.43,35.00 78.24,35.00 79.05,35.00 79.88,35.00 80.69,35.00 81.51,35.00 82.98,35.00 84.25,35.00 85.07,35.00 85.91,35.00 86.72,35.00 87.54,35.00 88.34,35.00 89.16,35.00 89.98,35.00 90.80,35.00 91.62,35.00 92.46,35.00 93.28,35.00 94.10,35.00 94.95,35.00 95.78,35.00 96.59,35.00 97.43,35.00 98.25,35.00 99.07,35.00 99.91,35.00 100.72,35.00 101.54,35.00 102.37,35.00 103.18,35.00 104.00,35.00 104.80,35.00 105.62,35.00 106.44,35.00 107.25,35.00 108.09,35.00 108.91,35.00 109.72,35.00 110.53,35.00 111.36,35.00 112.18,35.00 113.11,35.00 113.93,35.00 114.74,35.00 115.55,35.00 116.37,35.00 117.18,35.00 117.99,35.00 118.81,35.00 119.62,35.00 120.46,35.00 121.27,35.00 122.08,35.00 122.90,35.00 123.73,35.00 124.54,35.00 125.36,35.00 126.17,35.00 126.98,35.00 127.79,35.00 128.60,35.00 129.42,35.00 130.24,35.00 131.05,35.00 131.86,35.00 132.68,35.00 133.49,35.00 134.31,35.00 135.12,35.00 135.94,35.00 136.77,35.00 137.59,35.00 138.40,35.00 139.23,35.00 140.04,35.00 140.86,35.00 141.67,35.00 142.48,35.00 143.29,35.00 144.11,35.00 144.94,35.00 145.75,35.00 146.58,35.00 147.38,35.00 148.20,35.00 149.01,35.00 149.83,35.00 150.64,35.00 151.46,35.00 152.27,35.00 153.09,35.00 153.91,35.00 154.72,35.00 155.54,35.00 156.37,35.00 157.19,35.00 158.01,35.00 158.82,35.00 159.63,35.00 160.45,35.00 161.27,35.00 162.09,35.00 162.91,35.00 163.72,35.00 164.54,35.00 165.36,35.00 166.18,35.00 167.01,35.00 167.83,35.00 168.64,35.00 169.46,35.00 170.28,35.00 171.09,35.00 171.91,35.00 172.80,35.00 173.61,35.00 174.44,35.00 175.25,35.00 176.06,35.00 176.87,35.00 177.68,35.00 178.49,35.00 179.31,35.00 180.12,35.00 180.94,35.00 181.75,35.00 182.57,35.00 183.38,35.00 184.21,35.00 185.02,35.00 185.84,35.00 186.65,35.00 187.47,35.00 188.28,35.00 189.10,35.00 189.92,35.00 190.74,35.00 191.56,35.00 192.37,35.00 193.18,35.00 193.99,35.00 194.81,35.00 195.62,35.00 196.44,35.00 197.27,35.00 198.09,35.00 198.90,35.00 199.73,35.00 200.54,35.00 201.35,35.00 202.17,35.00 202.99,35.00 203.82,35.00 204.65,35.00 205.46,35.00 206.28,35.00 207.09,35.00 207.90,35.00 208.72,35.00 209.53,35.00 210.35,35.00 211.15,35.00 211.97,35.00 212.79,35.00 213.61,35.00 214.43,35.00 215.24,35.00 216.08,35.00 216.89,35.00 217.71,35.00 218.52,35.00 219.33,35.00 220.22,35.00 221.06,35.00 221.87,35.00 222.68,35.00 223.48,35.00 224.30,35.00 225.12,35.00 225.94,35.00 226.76,35.00 227.57,35.00 228.38,35.00 229.20,35.00 230.04,35.00 230.85,35.00 231.66,35.00 232.48,35.00 233.30,35.00 234.13,35.00 234.97,35.00 235.78,35.00 236.60,35.00 237.41,35.00 238.23,35.00 239.05,35.00 239.86,35.00 240.69,35.00 241.50,35.00 242.31,35.00 243.14,35.00 243.96,35.00 244.77,35.00 245.59,35.00 246.42,35.00 247.23,35.00 248.05,35.00 248.85,35.00 249.67,35.00 250.49,35.00 251.30,35.00 252.11,35.00 252.93,35.00 253.74,35.00 254.55,35.00 255.38,35.00 256.19,35.00 257.01,35.00 257.84,35.00 258.66,35.00 259.48,35.00 260.29,35.00 261.11,35.00 261.93,35.00 262.75,35.00 263.56,35.00 264.40,35.00 265.22,35.00 266.04,35.00 266.85,35.00 267.67,35.00 268.49,35.00 269.29,35.00 270.11,35.00 270.93,35.00 271.75,35.00 272.57,35.00 273.38,35.00 274.21,35.00 275.02,35.00 275.84,35.00 276.66,35.00 277.49,35.00 278.30,35.00 279.11,35.00 279.94,35.00 280.76,35.00 281.58,35.00 282.40,35.00 283.21,35.00 284.12,35.00 284.94,35.00 285.76,35.00 286.58,35.00 287.40,35.00 288.22,35.00 289.04,35.00 289.86,35.00 290.67,35.00 291.51,35.00 292.34,35.00 293.15,35.00 293.96,35.00 294.78,35.00 295.60,35.00 296.42,35.00 297.27,35.00 298.08,35.00 298.90,35.00 299.73,35.00 300.61,35.00 301.42,35.00 302.45,35.00 303.83,35.00 304.67,35.00 305.50,35.00 306.32,35.00 307.12,35.00 307.93,35.00 308.76,35.00 309.58,35.00 310.40,35.00 311.25,35.00 312.10,35.00 312.97,35.00 313.79,35.00 314.60,35.00 315.42,35.00 316.25,35.00 317.08,35.00 317.90,35.00 318.71,35.00 319.53,35.00 320.38,35.00 321.20,35.00 322.01,35.00 322.83,35.00 323.66,35.00 324.51,35.00 325.33,35.00 326.15,35.00 326.99,35.00 327.77,35.00 328.58,35.00 329.42,35.00 330.23,35.00 331.06,35.00 331.90,35.00 332.72,35.00 333.54,35.00 334.36,35.00 335.19,35.00 336.01,35.00 336.82,35.00 337.63,35.00 338.45,35.00 339.27,35.00 340.08,35.00 341.06,35.00 342.02,35.00 342.99,35.00 343.94,35.00 344.87,35.00 345.81,35.00 346.78,35.00 347.73,35.00 348.55,35.00 349.36,35.00 350.17,35.00 350.99,35.00 351.81,35.00 352.62,35.00 353.43,35.00 354.24,35.00 355.06,35.00 355.87,35.00 356.69,35.00 357.50,35.00 358.32,35.00 359.13,35.00 359.94,35.00 360.75,35.00 361.57,35.00 362.38,35.00 363.20,35.00 364.02,35.00 364.83,35.00 365.64,35.00 366.45,35.00 367.27,35.00 368.08,35.00 368.90,35.00 369.71,35.00 370.53,35.00 371.35,35.00 372.16,35.00 372.98,35.00 373.79,35.00 374.60,35.00 375.42,35.00 376.22,35.00 377.03,35.00 377.84,35.00 378.65,35.00 379.46,35.00 380.28,35.00 381.09,35.00 381.90,35.00 382.71,35.00 383.52,35.00 384.32,35.00 385.16,35.00 386.04,35.00 386.86,35.00 387.68,35.00 388.49,35.00 389.30,35.00 390.11,35.00 390.92,35.00 391.73,35.00 392.70,35.00 393.66,35.00 394.60,35.00 395.56,35.00 396.52,35.00 397.48,35.00 398.45,35.00 399.44,35.00 400.33,35.00 401.21,35.00 402.02,35.00 402.85,35.00 403.67,35.00 404.47,35.00 405.29,35.00 406.10,35.00 406.92,35.00 407.73,35.00 408.54,35.00 409.36,35.00 410.18,35.00 410.99,35.00 411.82,35.00 412.63,35.00 413.44,35.00 414.16,35.00 415.00,35.00 415.81,35.00 416.65,35.00 417.46,35.00 418.28,35.00 419.10,35.00 419.92,35.00 420.74,35.00 421.57,35.00 422.39,35.00 423.22,35.00 424.03,35.00 424.84,35.00 425.65,35.00 426.46,35.00 427.27,35.00 428.08,35.00 428.91,35.00 429.72,35.00 430.54,35.00 431.35,35.00 432.16,35.00 432.99,35.00 433.80,35.00 434.62,35.00 435.44,35.00 436.26,35.00 437.07,35.00 437.90,35.00 438.72,35.00 439.56,35.00 440.37,35.00 441.18,35.00 441.99,35.00 442.80,35.00 443.61,35.00 444.44,35.00 445.25,35.00 446.06,35.00 446.88,35.00 447.69,35.00 448.50,35.00 449.32,35.00 450.15,35.00 450.96,35.00 451.95,35.00 452.78,35.00 453.62,35.00 454.44,35.00 455.26,35.00 456.09,35.00 456.90,35.00 457.71,35.00 458.53,35.00 459.36,35.00 460.17,35.00 460.99,35.00 461.81,35.00 462.62,35.00 463.47,35.00 464.30,35.00 465.12,35.00 465.93,35.00 466.75,35.00 467.57,35.00 468.38,35.00 469.20,35.00 470.05,35.00 470.87,35.00 471.69,35.00 472.51,35.00 473.32,35.00 474.14,35.00 474.96,35.00 475.77,35.00 476.59,35.00 477.41,35.00 478.23,35.00 479.05,35.00 479.86,35.00 480.68,35.00 481.50,35.00 482.33,35.00 483.15,35.00 483.96,35.00 484.77,35.00 485.59,35.00 486.42,35.00 487.24,35.00 488.22,35.00 489.06,35.00 489.88,35.00 490.70,35.00 491.51,35.00 492.33,35.00 493.15,35.00 493.97,35.00 494.80,35.00 495.61,35.00 496.43,35.00 497.24,35.00 498.06,35.00 498.87,35.00 499.69,35.00 500.51,35.00 501.32,35.00 502.14,35.00 502.95,35.00 503.77,35.00 504.59,35.00 505.41,35.00 506.22,35.00 507.05,35.00 507.87,35.00 508.68,35.00 509.50,35.00 510.32,35.00 511.16,35.00 511.97,35.00 512.79,35.00 513.61,35.00 514.43,35.00 515.24,35.00 516.06,35.00 516.88,35.00 517.72,35.00 518.53,35.00 519.35,35.00 520.16,35.00 520.97,35.00 521.79,35.00 522.61,35.00 523.42,35.00 524.25,35.00 525.07,35.00 525.90,35.00 526.70,35.00 527.52,35.00 528.33,35.00 529.15,35.00 529.97,35.00 530.79,35.00 531.60,35.00 532.43,35.00 533.25,35.00 534.06,35.00 534.89,35.00 535.71,35.00 536.53,35.00 537.35,35.00 538.17,35.00 539.09,35.00 539.99,35.00 540.86,35.00 541.69,35.00 542.54,35.00 543.36,35.00 544.18,35.00 544.99,35.00 545.75,35.00 546.61,35.00 547.42,35.00 548.25,35.00 549.06,35.00 549.88,35.00 550.69,35.00 551.51,35.00 552.33,35.00 553.15,35.00 553.96,35.00 554.78,35.00 555.60,35.00 556.43,35.00 557.25,35.00 558.08,35.00 558.90,35.00 559.72,35.00 560.53,35.00 561.37,35.00 562.19,35.00 563.00,35.00 563.81,35.00 564.63,35.00 565.45,35.00 566.26,35.00 567.08,35.00 567.90,35.00 568.73,35.00 569.54,35.00 570.36,35.00 571.18,35.00 572.00,35.00 572.82,35.00 573.64,35.00 574.45,35.00 575.27,35.00 576.09,35.00 576.92,35.00 577.74,35.00 578.57,35.00 579.39,35.00 580.20,35.00 581.03,35.00 581.84,35.00 582.67,35.00 583.51,35.00 584.33,35.00 585.15,35.00 585.97,35.00 586.79,35.00 587.61,35.00 588.43,35.00 589.25,35.00 590.07,35.00 590.89,35.00 591.71,35.00 592.53,35.00 593.35,35.00 594.18,35.00 595.00,35.00 595.82,35.00 596.64,35.00 597.47,35.00 598.30,35.00 599.12,35.00 599.93,35.00 600.75,35.00 601.57,35.00 602.41,35.00 603.23,35.00 604.06,35.00 604.88,35.00 605.69,35.00 606.51,35.00 607.33,35.00 608.15,35.00 608.97,35.00 609.79,35.00 610.61,35.00 611.43,35.00 612.25,35.00 613.07,35.00 613.89,35.00 614.71,35.00 615.54,35.00 616.36,35.00 617.18,35.00 618.00,35.00 618.82,35.00 619.63,35.00 620.45,35.00 621.27,35.00 622.09,35.00 622.91,35.00 623.73,35.00 624.56,35.00 625.37,35.00 626.20,35.00 627.03,35.00 627.84,35.00 628.67,35.00 629.50,35.00 630.31,35.00 631.13,35.00 631.96,35.00 632.79,35.00 633.61,35.00 634.43,35.00 635.27,35.00 636.09,35.00 636.92,35.00 637.74,35.00 638.55,35.00 639.38,35.00 640.20,35.00 641.03,35.00 641.85,35.00 642.67,35.00 643.49,35.00 644.30,35.00 645.15,35.00 645.96,35.00 646.79,35.00 647.61,35.00 648.42,35.00 649.24,35.00 650.05,35.00 650.87,35.00 651.69,35.00 652.51,35.00 653.33,35.00 654.15,35.00 654.97,35.00 655.79,35.00 656.64,35.00 657.46,35.00 658.27,35.00 659.10,35.00 659.91,35.00 660.73,35.00 661.55,35.00 662.38,35.00 663.19,35.00 664.01,35.00 664.84,35.00 665.66,35.00 666.48,35.00 667.30,35.00 668.13,35.00 668.97,35.00 669.80,35.00 670.62,35.00 671.45,35.00 672.27,35.00 673.10,35.00 673.91,35.00 674.73,35.00 675.54,35.00 676.37,35.00 677.19,35.00 678.02,35.00 678.84,35.00 679.67,35.00 680.52,35.00 681.34,35.00 682.16,35.00 682.98,35.00 683.80,35.00 684.63,35.00 685.45,35.00 686.29,35.00 687.11,35.00 687.94,35.00 688.76,35.00 689.58,35.00 690.41,35.00 691.23,35.00 692.05,35.00 692.87,35.00 693.69,35.00 694.52,35.00 695.34,35.00 696.16,35.00 696.98,35.00 697.81,35.00 698.63,35.00 699.45,35.00 700.28,35.00 701.10,35.00 701.95,35.00 702.78,35.00 703.61,35.00 704.43,35.00 705.27,35.00 706.11,35.00 706.94,35.00 707.78,35.00 708.62,35.00 709.45,35.00 710.27,35.00 711.09,35.00 711.92,35.00 712.74,35.00 713.57,35.00 714.41,35.00 715.23,35.00 716.05,35.00 716.87,35.00 717.69,35.00 718.51,35.00 719.33,35.00 720.15,35.00 720.97,35.00 721.79,35.00 722.61,35.00 723.43,35.00 724.24,35.00 725.06,35.00 725.88,35.00 726.71,35.00 727.52,35.00 728.35,35.00 729.18,35.00 730.00,35.00 730.82,35.00 731.65,35.00 732.47,35.00 733.28,35.00 734.10,35.00 734.93,35.00 735.75,35.00 736.56,35.00 737.37,35.00 738.19,35.00 739.01,35.00 739.84,35.00 740.66,35.00 741.48,35.00 742.30,35.00 743.12,35.00 743.93,35.00 744.76,35.00 745.58,35.00 746.38,35.00 747.20,35.00 748.00,35.00 748.83,35.00 749.65,35.00 750.49,35.00 751.30,35.00 752.12,35.00 752.94,35.00 753.78,35.00 754.61,35.00 755.42,35.00 756.25,35.00 757.07,35.00 757.89,35.00 758.72,35.00 759.54,35.00 760.37,35.00 761.20,35.00 762.02,35.00 762.83,35.00 763.65,35.00 764.47,35.00 765.29,35.00 766.11,35.00 766.92,35.00 767.74,35.00 768.56,35.00 769.39,35.00 770.20,35.00 771.02,35.00 771.84,35.00 772.66,35.00 773.49,35.00 774.31,35.00 775.13,35.00 775.95,35.00 776.77,35.00 777.60,35.00 778.41,35.00 779.23,35.00 780.06,35.00 780.88,35.00 781.69,35.00 782.52,35.00 783.35,35.00 784.16,35.00 784.98,35.00 785.80,35.00 786.65,35.00 787.47,35.00 788.30,35.00 789.14,35.00 789.96,35.00 790.78,35.00 791.60,35.00 792.43,35.00 793.25,35.00 794.07,35.00 794.90,35.00 795.73,35.00 796.56,35.00 797.38,35.00 798.20,35.00 799.02,35.00 799.85,35.00 800.67,35.00 801.48,35.00 802.30,35.00 803.12,35.00 803.94,35.00 804.76,35.00 805.58,35.00 806.41,35.00 807.22,35.00 808.04,35.00 808.86,35.00 809.68,35.00 810.49,35.00 811.33,35.00 812.15,35.00 812.96,35.00 813.78,35.00 814.61,35.00 815.42,35.00 816.25,35.00 817.06,35.00 817.90,35.00 818.72,35.00 819.53,35.00 820.35,35.00 821.17,35.00 821.99,35.00 822.81,35.00 823.64,35.00 824.48,35.00 825.32,35.00 826.16,35.00 826.99,35.00 827.83,35.00 828.67,35.00 829.51,35.00 830.36,35.00 831.19,35.00 832.04,35.00 832.86,35.00 833.67,35.00 834.50,35.00 835.33,35.00 836.15,35.00 836.98,35.00 837.80,35.00 838.63,35.00 839.45,35.00 840.27,35.00 841.08,35.00 841.90,35.00 842.72,35.00 843.54,35.00 844.36,35.00 845.18,35.00 846.01,35.00 846.82,35.00 847.66,35.00 848.49,35.00 849.31,35.00 850.12,35.00 850.94,35.00 851.77,35.00 852.59,35.00 853.41,35.00 854.23,35.00 855.05,35.00 855.88,35.00 856.69,35.00 857.51,35.00 858.34,35.00 859.16,35.00 859.98,35.00 860.86,35.00 861.71,35.00 862.52,35.00 863.35,35.00 864.16,35.00 865.00,35.00 865.83,35.00 866.65,35.00 867.48,35.00 868.29,35.00 869.09,35.00 869.92,35.00 870.73,35.00 871.56,35.00 872.38,35.00 873.20,35.00 874.03,35.00 874.85,35.00 875.68,35.00 876.49,35.00 877.31,35.00 878.13,35.00 878.96,35.00 879.78,35.00 880.60,35.00 881.42,35.00 882.25,35.00 883.07,35.00 883.89,35.00 884.75,35.00 885.57,35.00 886.39,35.00 887.21,35.00 888.03,35.00 888.85,35.00 889.68,35.00 890.51,35.00 891.32,35.00 892.15,35.00 892.97,35.00 893.80,35.00 894.63,35.00 895.46,35.00 896.28,35.00 897.10,35.00 897.92,35.00 898.74,35.00 899.56,35.00 900.38,35.00 901.21,35.00 902.03,35.00 902.85,35.00 903.67,35.00 904.49,35.00 905.32,35.00 906.14,35.00 906.95,35.00 907.77,35.00 908.60,35.00 909.42,35.00 910.24,35.00 911.06,35.00 911.88,35.00 912.70,35.00 913.53,35.00 914.35,35.00 915.17,35.00 915.98,35.00 916.80,35.00 917.62,35.00 918.45,35.00 919.26,35.00 920.11,35.00 920.93,35.00 921.75,35.00 922.58,35.00 923.40,35.00 924.23,35.00 925.12,35.00 925.95,35.00 926.78,35.00 927.61,35.00 928.44,35.00 929.26,35.00 930.08,35.00 930.90,35.00 931.73,35.00 932.55,35.00 933.37,35.00 934.19,35.00 935.02,35.00 935.86,35.00 936.68,35.00 937.51,35.00 938.33,35.00 939.15,35.00 939.97,35.00 940.80,35.00 941.62,35.00 942.44,35.00 943.27,35.00 944.09,35.00 944.91,35.00 945.74,35.00 946.56,35.00 947.39,35.00 948.22,35.00 949.04,35.00 949.87,35.00 950.68,35.00 951.51,35.00 952.34,35.00 953.15,35.00 953.97,35.00 954.80,35.00 955.61,35.00 956.44,35.00 957.27,35.00 958.08,35.00 958.90,35.00 959.73,35.00 960.55,35.00 961.37,35.00 962.20,35.00 963.02,35.00 963.85,35.00 964.68,35.00 965.48,35.00 966.28,35.00 967.10,35.00 967.92,35.00 968.75,35.00 969.57,35.00 970.40,35.00 971.22,35.00 972.05,35.00 972.89,35.00 973.70,35.00 974.53,35.00 975.34,35.00 976.16,35.00 976.97,35.00 977.79,35.00 978.61,35.00 979.44,35.00 980.25,35.00 981.07,35.00 981.89,35.00 982.71,35.00 983.53,35.00 984.36,35.00 985.17,35.00 985.99,35.00 986.78,35.00 987.62,35.00 988.44,35.00 989.26,35.00 990.09,35.00 990.92,35.00 991.74,35.00 992.56,35.00 993.38,35.00 994.21,35.00 995.03,35.00 995.85,35.00 996.73,35.00 997.55,35.00 998.38,35.00 999.21,35.00 1000.04,35.00 1000.85,35.00 1001.67,35.00 1002.50,35.00 1003.32,35.00 1004.14,35.00 1004.95,35.00 1005.77,35.00 1006.60,35.00 1007.43,35.00 1008.25,35.00 1009.07,35.00 1009.89,35.00 1010.72,35.00 1011.54,35.00 1012.37,35.00 1013.19,35.00 1014.02,35.00 1014.86,35.00 1015.69,35.00 1016.51,35.00 1017.33,35.00 1018.16,35.00 1018.99,35.00 1019.81,35.00 1020.63,35.00 1021.45,35.00 1022.27,35.00 1023.09,35.00 1023.92,35.00 1024.74,35.00 1025.56,35.00 1026.39,35.00 1027.21,35.00 1028.02,35.00 1028.84,35.00 1029.66,35.00 1030.49,35.00 1031.30,35.00 1032.12,35.00 1032.95,35.00 1033.76,35.00 1034.57,35.00 1035.39,35.00 1036.21,35.00 1037.03,35.00 1037.84,35.00 1038.66,35.00 1039.48,35.00 1040.29,35.00 1041.12,35.00 1041.93,35.00 1042.76,35.00 1043.58,35.00 1044.39,35.00 1045.20,35.00 1046.02,35.00 1046.86,35.00 1047.67,35.00 1048.49,35.00 1049.32,35.00 1050.17,35.00 1050.99,35.00 1051.81,35.00 1052.64,35.00 1053.46,35.00 1054.29,35.00 1055.11,35.00 1055.94,35.00 1056.76,35.00 1057.58,35.00 1058.39,35.00 1059.21,35.00 1060.03,35.00 1060.85,35.00 1061.68,35.00 1062.49,35.00 1063.31,35.00 1064.13,35.00 1064.94,35.00 1065.77,35.00 1066.60,35.00 1067.46,35.00 1068.28,35.00 1069.09,35.00 1069.90,35.00 1070.71,35.00 1071.55,35.00 1072.37,35.00 1073.19,35.00 1074.01,35.00 1074.83,35.00 1075.66,35.00 1076.48,35.00 1077.30,35.00 1078.13,35.00 1078.94,35.00 1079.77,35.00 1080.59,35.00 1081.41,35.00 1082.23,35.00 1083.04,35.00 1083.86,35.00 1084.68,35.00 1085.50,35.00 1086.32,35.00 1087.14,35.00 1087.96,35.00 1088.78,35.00 1089.60,35.00 1090.42,35.00 1091.24,35.00 1092.06,35.00 1092.88,35.00 1093.70,35.00 1094.53,35.00 1095.34,35.00 1096.17,35.00 1096.99,35.00 1097.80,35.00 1098.62,35.00 1099.44,35.00 1100.26,35.00 1101.08,35.00 1101.92,35.00 1102.74,35.00 1103.56,35.00 1104.38,35.00 1105.21,35.00 1106.03,35.00 1106.87,35.00 1107.69,35.00 1108.56,35.00 1109.39,35.00 1110.27,35.00 1111.09,35.00 1111.90,35.00 1112.72,35.00 1113.54,35.00 1114.36,35.00 1115.18,35.00 1116.00,35.00 1116.82,35.00 1117.64,35.00 1118.47,35.00 1119.28,35.00 1120.10,35.00 1120.92,35.00 1121.74,35.00 1122.56,35.00 1123.37,35.00 1124.19,35.00 1125.02,35.00 1125.84,35.00 1126.67,35.00 1127.48,35.00 1128.29,35.00 1129.12,35.00 1129.93,35.00 1130.77,35.00 1131.59,35.00 1132.40,35.00 1133.23,35.00 1134.05,35.00 1134.86,35.00 1135.68,35.00 1136.51,35.00 1137.32,35.00 1138.14,35.00 1138.95,35.00 1139.76,35.00 1140.58,35.00 1141.40,35.00 1142.22,35.00 1143.04,35.00 1143.87,35.00 1144.72,35.00 1145.54,35.00 1146.36,35.00 1147.18,35.00 1147.99,35.00 1148.80,35.00 1149.62,35.00 1150.44,35.00 1151.26,35.00 1152.08,35.00 1152.89,35.00 1153.71,35.00 1154.52,35.00 1155.34,35.00 1156.16,35.00 1156.97,35.00 1157.79,35.00 1158.62,35.00 1159.43,35.00 1160.25,35.00 1161.08,35.00 1161.90,35.00 1162.72,35.00 1163.54,35.00 1164.36,35.00 1165.18,35.00 1166.01,35.00 1166.83,35.00 1167.66,35.00 1168.48,35.00 1169.29,35.00 1170.11,35.00 1170.94,35.00 1171.75,35.00 1172.60,35.00 1173.42,35.00 1174.25,35.00 1175.07,35.00 1175.89,35.00 1176.71,35.00 1177.53,35.00 1178.35,35.00 1179.18,35.00 1180.00,35.00"/>
<polyline fill="none" stroke="#1f77b4" stroke-opacity="0.80" stroke-width="2" points="70.00,35.00 70.82,35.00 71.64,35.00 72.45,35.00 73.27,35.00 74.10,35.00 74.91,35.00 75.73,35.00 76.61,35.00 77.43,35.00 78.24,35.00 79.05,35.00 79.88,35.00 80.69,35.00 81.51,35.00 82.98,35.00 84.25,35.00 85.07,35.00 85.91,35.00 86.72,35.00 87.54,35.00 88.34,35.00 89.16,35.00 89.98,35.00 90.80,35.00 91.62,35.00 92.46,35.00 93.28,35.00 94.10,35.00 94.95,35.00 95.78,35.00 96.59,35.00 97.43,35.00 98.25,35.00 99.07,35.00 99.91,35.00 100.72,35.00 101.54,35.00 102.37,35.00 103.18,35.00 104.00,35.00 104.80,35.00 105.62,35.00 106.44,35.00 107.25,35.00 108.09,35.00 108.91,35.00 109.72,35.00 110.53,35.00 111.36,35.00 112.18,35.00 113.11,35.00 113.93,35.00 114.74,35.00 115.55,35.00 116.37,35.00 117.18,35.00 117.99,35.00 118.81,35.00 119.62,35.00 120.46,35.00 121.27,35.00 122.08,35.00 122.90,35.00 123.73,35.00 124.54,35.00 125.36,35.00 126.17,35.00 126.98,35.00 127.79,35.00 128.60,35.00 129.42,35.00 130.24,35.00 131.05,35.00 131.86,35.00 132.68,35.00 133.49,35.00 134.31,35.00 135.12,35.00 135.94,35.00 136.77,35.00 137.59,35.00 138.40,35.00 139.23,35.00 140.04,35.00 140.86,35.00 141.67,35.00 142.48,35.00 143.29,35.00 144.11,35.00 144.94,35.00 145.75,35.00 146.58,35.00 147.38,35.00 148.20,35.00 149.01,35.00 149.83,35.00 150.64,35.00 151.46,35.00 152.27,35.00 153.09,35.00 153.91,35.00 154.72,35.00 155.54,35.00 156.37,35.00 157.19,35.00 158.01,35.00 158.82,35.00 159.63,35.00 160.45,35.00 161.27,35.00 162.09,35.00 162.91,35.00 163.72,35.00 164.54,35.00 165.36,35.00 166.18,35.00 167.01,35.00 167.83,35.00 168.64,35.00 169.46,35.00 170.28,35.00 171.09,35.00 171.91,35.00 172.80,35.00 173.61,35.00 174.44,35.00 175.25,35.00 176.06,35.00 176.87,35.00 177.68,35.00 178.49,35.00 179.31,35.00 180.12,35.00 180.94,35.00 181.75,35.00 182.57,35.00 183.38,35.00 184.21,35.00 185.02,35.00 185.84,35.00 186.65,35.00 187.47,35.00 188.28,35.00 189.10,35.00 189.92,35.00 190.74,35.00 191.56,35.00 192.37,35.00 193.18,35.00 193.99,35.00 194.81,35.00 195.62,35.00 196.44,35.00 197.27,35.00 198.09,35.00 198.90,35.00 199.73,35.00 200.54,35.00 201.35,35.00 202.17,35.00 202.99,35.00 203.82,35.00 204.65,35.00 205.46,35.00 206.28,35.00 207.09,35.00 207.90,35.00 208.72,35.00 209.53,35.00 210.35,35.00 211.15,35.00 211.97,35.00 212.79,35.00 213.61,35.00 214.43,35.00 215.24,35.00 216.08,35.00 216.89,35.00 217.71,35.00 218.52,35.00 219.33,35.00 220.22,35.00 221.06,35.00 221.87,35.00 222.68,35.00 223.48,35.00 224.30,35.00 225.12,35.00 225.94,35.00 226.76,35.00 227.57,35.00 228.38,35.00 229.20,35.00 230.04,35.00 230.85,35.00 231.66,35.00 232.48,35.00 233.30,35.00 234.13,35.00 234.97,35.00 235.78,35.00 236.60,35.00 237.41,35.00 238.23,35.00 239.05,35.00 239.86,35.00 240.69,35.00 241.50,35.00 242.31,35.00 243.14,35.00 243.96,35.00 244.77,35.00 245.59,35.00 246.42,35.00 247.23,35.00 248.05,35.00 248.85,35.00 249.67,35.00 250.49,35.00 251.30,35.00 252.11,35.00 252.93,35.00 253.74,35.00 254.55,35.00 255.38,35.00 256.19,35.00 257.01,35.00 257.84,35.00 258.66,35.00 259.48,35.00 260.29,35.00 261.11,35.00 261.93,35.00 262.75,35.00 263.56,35.00 264.40,35.00 265.22,35.00 266.04,35.00 266.85,35.00 267.67,35.00 268.49,35.00 269.29,35.00 270.11,35.00 270.93,35.00 271.75,35.00 272.57,35.00 273.38,35.00 274.21,35.00 275.02,35.00 275.84,35.00 276.66,35.00 277.49,35.00 278.30,35.00 279.11,35.00 279.94,35.00 280.76,35.00 281.58,35.00 282.40,35.00 283.21,35.00 284.12,35.00 284.94,35.00 285.76,35.00 286.58,35.00 287.40,35.00 288.22,35.00 289.04,35.00 289.86,35.00 290.67,35.00 291.51,35.00 292.34,35.00 293.15,35.00 293.96,35.00 294.78,35.00 295.60,35.00 296.42,35.00 297.27,35.00 298.08,35.00 298.90,35.00 299.73,35.00 300.61,35.00 301.42,35.00 302.45,35.00 303.83,35.00 304.67,35.00 305.50,35.00 306.32,35.00 307.12,35.00 307.93,35.00 308.76,35.00 309.58,35.00 310.40,35.00 311.25,35.00 312.10,35.00 312.97,35.00 313.79,35.00 314.60,35.00 315.42,35.00 316.25,35.00 317.08,35.00 317.90,35.00 318.71,35.00 319.53,35.00 320.38,35.00 321.20,35.00 322.01,35.00 322.83,35.00 323.66,35.00 324.51,35.00 325.33,35.00 326.15,35.00 326.99,35.00 327.77,35.00 328.58,35.00 329.42,35.00 330.23,35.00 331.06,35.00 331.90,35.00 332.72,35.00 333.54,35.00 334.36,35.00 335.19,35.00 336.01,35.00 336.82,35.00 337.63,35.00 338.45,35.00 339.27,35.00 340.08,35.00 341.06,35.00 342.02,35.00 342.99,35.00 343.94,35.00 344.87,35.00 345.81,35.00 346.78,35.00 347.73,35.00 348.55,35.00 349.36,35.00 350.17,35.00 350.99,35.00 351.81,35.00 352.62,35.00 353.43,35.00 354.24,35.00 355.06,35.00 355.87,35.00 356.69,35.00 357.50,35.00 358.32,35.00 359.13,35.00 359.94,35.00 360.75,35.00 361.57,35.00 362.38,35.00 363.20,35.00 364.02,35.00 364.83,35.00 365.64,35.00 366.45,35.00 367.27,35.00 368.08,35.00 368.90,35.00 369.71,35.00 370.53,35.00 371.35,35.00 372.16,35.00 372.98,35.00 373.79,35.00 374.60,35.00 375.42,35.00 376.22,35.00 377.03,35.00 377.84,35.00 378.65,35.00 379.46,35.00 380.28,35.00 381.09,35.00 381.90,35.00 382.71,35.00 383.52,35.00 384.32,35.00 385.16,35.00 386.04,35.00 386.86,35.00 387.68,35.00 388.49,35.00 389.30,35.00 390.11,35.00 390.92,35.00 391.73,35.00 392.70,35.00 393.66,35.00 394.60,35.00 395.56,35.00 396.52,35.00 397.48,35.00 398.45,35.00 399.44,35.00 400.33,35.00 401.21,35.00 402.02,35.00 402.85,35.00 403.67,35.00 404.47,35.00 405.29,35.00 406.10,35.00 406.92,35.00 407.73,35.00 408.54,35.00 409.36,35.00 410.18,35.00 410.99,35.00 411.82,35.00 412.63,35.00 413.44,35.00 414.16,35.00 415.00,35.00 415.81,35.00 416.65,35.00 417.46,35.00 418.28,35.00 419.10,35.00 419.92,35.00 420.74,35.00 421.57,35.00 422.39,35.00 423.22,35.00 424.03,35.00 424.84,35.00 425.65,35.00 426.46,35.00 427.27,35.00 428.08,35.00 428.91,35.00 429.72,35.00 430.54,35.00 431.35,35.00 432.16,35.00 432.99,35.00 433.80,35.00 434.62,35.00 435.44,35.00 436.26,35.00 437.07,35.00 437.90,35.00 438.72,35.00 439.56,35.00 440.37,35.00 441.18,35.00 441.99,35.00 442.80,35.00 443.61,35.00 444.44,35.00 445.25,35.00 446.06,35.00 446.88,35.00 447.69,35.00 448.50,35.00 449.32,35.00 450.15,35.00 450.96,35.00 451.95,35.00 452.78,35.00 453.62,35.00 454.44,35.00 455.26,35.00 456.09,35.00 456.90,35.00 457.71,35.00 458.53,35.00 459.36,35.00 460.17,35.00 460.99,35.00 461.81,35.00 462.62,35.00 463.47,35.00 464.30,35.00 465.12,35.00 465.93,35.00 466.75,35.00 467.57,35.00 468.38,35.00 469.20,35.00 470.05,35.00 470.87,35.00 471.69,35.00 472.51,35.00 473.32,35.00 474.14,35.00 474.96,35.00 475.77,35.00 476.59,35.00 477.41,35.00 478.23,35.00 479.05,35.00 479.86,35.00 480.68,35.00 481.50,35.00 482.33,35.00 483.15,35.00 483.96,35.00 484.77,35.00 485.59,35.00 486.42,35.00 487.24,35.00 488.22,35.00 489.06,35.00 489.88,35.00 490.70,35.00 491.51,35.00 492.33,35.00 493.15,35.00 493.97,35.00 494.80,35.00 495.61,35.00 496.43,35.00 497.24,35.00 498.06,35.00 498.87,35.00 499.69,35.00 500.51,35.00 501.32,35.00 502.14,35.00 502.95,35.00 503.77,35.00 504.59,35.00 505.41,35.00 506.22,35.00 507.05,35.00 507.87,35.00 508.68,35.00 509.50,35.00 510.32,35.00 511.16,35.00 511.97,35.00 512.79,35.00 513.61,35.00 514.43,35.00 515.24,35.00 516.06,35.00 516.88,35.00 517.72,35.00 518.53,35.00 519.35,35.00 520.16,35.00 520.97,35.00 521.79,35.00 522.61,35.00 523.42,35.00 524.25,35.00 525.07,35.00 525.90,35.00 526.70,35.00 527.52,35.00 528.33,35.00 529.15,35.00 529.97,35.00 530.79,35.00 531.60,35.00 532.43,35.00 533.25,35.00 534.06,35.00 534.89,35.00 535.71,35.00 536.53,35.00 537.35,35.00 538.17,35.00 539.09,35.00 539.99,35.00 540.86,35.00 541.69,35.00 542.54,35.00 543.36,35.00 544.18,35.00 544.99,35.00 545.75,35.00 546.61,35.00 547.42,35.00 548.25,35.00 549.06,35.00 549.88,35.00 550.69,35.00 551.51,35.00 552.33,35.00 553.15,35.00 553.96,35.00 554.78,35.00 555.60,35.00 556.43,35.00 557.25,35.00 558.08,35.00 558.90,35.00 559.72,35.00 560.53,35.00 561.37,35.00 562.19,35.00 563.00,35.00 563.81,35.00 564.63,35.00 565.45,35.00 566.26,35.00 567.08,35.00 567.90,35.00 568.73,35.00 569.54,35.00 570.36,35.00 571.18,35.00 572.00,35.00 572.82,35.00 573.64,35.00 574.45,35.00 575.27,35.00 576.09,35.00 576.92,35.00 577.74,35.00 578.57,35.00 579.39,35.00 580.20,35.00 581.03,35.00 581.84,35.00 582.67,35.00 583.51,35.00 584.33,35.00 585.15,35.00 585.97,35.00 586.79,35.00 587.61,35.00 588.43,35.00 589.25,35.00 590.07,35.00 590.89,35.00 591.71,35.00 592.53,35.00 593.35,35.00 594.18,35.00 595.00,35.00 595.82,35.00 596.64,35.00 597.47,35.00 598.30,35.00 599.12,35.00 599.93,35.00 600.75,35.00 601.57,35.00 602.41,35.00 603.23,35.00 604.06,35.00 604.88,35.00 605.69,35.00 606.51,35.00 607.33,35.00 608.15,35.00 608.97,35.00 609.79,35.00 610.61,35.00 611.43,35.00 612.25,35.00 613.07,35.00 613.89,35.00 614.71,35.00 615.54,35.00 616.36,35.00 617.18,35.00 618.00,35.00 618.82,35.00 619.63,35.00 620.45,35.00 621.27,35.00 622.09,35.00 622.91,35.00 623.73,35.00 624.56,35.00 625.37,35.00 626.20,35.00 627.03,35.00 627.84,35.00 628.67,35.00 629.50,35.00 630.31,35.00 631.13,35.00 631.96,35.00 632.79,35.00 633.61,35.00 634.43,35.00 635.27,35.00 636.09,35.00 636.92,35.00 637.74,35.00 638.55,35.00 639.38,35.00 640.20,35.00 641.03,35.00 641.85,35.00 642.67,35.00 643.49,35.00 644.30,35.00 645.15,35.00 645.96,35.00 646.79,35.00 647.61,35.00 648.42,35.00 649.24,35.00 650.05,35.00 650.87,35.00 651.69,35.00 652.51,35.00 653.33,35.00 654.15,35.00 654.97,35.00 655.79,35.00 656.64,35.00 657.46,35.00 658.27,35.00 659.10,35.00 659.91,35.00 660.73,35.00 661.55,35.00 662.38,35.00 663.19,35.00 664.01,35.00 664.84,35.00 665.66,35.00 666.48,35.00 667.30,35.00 668.13,35.00 668.97,35.00 669.80,35.00 670.62,35.00 671.45,35.00 672.27,35.00 673.10,35.00 673.91,35.00 674.73,35.00 675.54,35.00 676.37,35.00 677.19,35.00 678.02,35.00 678.84,35.00 679.67,35.00 680.52,35.00 681.34,35.00 682.16,35.00 682.98,35.00 683.80,35.00 684.63,35.00 685.45,35.00 686.29,35.00 687.11,35.00 687.94,35.00 688.76,35.00 689.58,35.00 690.41,35.00 691.23,35.00 692.05,35.00 692.87,35.00 693.69,35.00 694.52,35.00 695.34,35.00 696.16,35.00 696.98,35.00 697.81,35.00 698.63,35.00 699.45,35.00 700.28,35.00 701.10,35.00 701.95,35.00 702.78,35.00 703.61,35.00 704.43,35.00 705.27,35.00 706.11,35.00 706.94,35.00 707.78,35.00 708.62,35.00 709.45,35.00 710.27,35.00 711.09,35.00 711.92,35.00 712.74,35.00 713.57,35.00 714.41,35.00 715.23,35.00 716.05,35.00 716.87,35.00 717.69,35.00 718.51,35.00 719.33,35.00 720.15,35.00 720.97,35.00 721.79,35.00 722.61,35.00 723.43,35.00 724.24,35.00 725.06,35.00 725.88,35.00 726.71,35.00 727.52,35.00 728.35,35.00 729.18,35.00 730.00,35.00 730.82,35.00 731.65,35.00 732.47,35.00 733.28,35.00 734.10,35.00 734.93,35.00 735.75,35.00 736.56,35.00 737.37,35.00 738.19,35.00 739.01,35.00 739.84,35.00 740.66,35.00 741.48,35.00 742.30,35.00 743.12,35.00 743.93,35.00 744.76,35.00 745.58,35.00 746.38,35.00 747.20,35.00 748.00,35.00 748.83,35.00 749.65,35.00 750.49,35.00 751.30,35.00 752.12,35.00 752.94,35.00 753.78,35.00 754.61,35.00 755.42,35.00 756.25,35.00 757.07,35.00 757.89,35.00 758.72,35.00 759.54,35.00 760.37,35.00 761.20,35.00 762.02,35.00 762.83,35.00 763.65,35.00 764.47,35.00 765.29,35.00 766.11,35.00 766.92,35.00 767.74,35.00 768.56,35.00 769.39,35.00 770.20,35.00 771.02,35.00 771.84,35.00 772.66,35.00 773.49,35.00 774.31,35.00 775.13,35.00 775.95,35.00 776.77,35.00 777.60,35.00 778.41,35.00 779.23,35.00 780.06,35.00 780.88,35.00 781.69,35.00 782.52,35.00 783.35,35.00 784.16,35.00 784.98,35.00 785.80,35.00 786.65,35.00 787.47,35.00 788.30,35.00 789.14,35.00 789.96,35.00 790.78,35.00 791.60,35.00 792.43,35.00 793.25,35.00 794.07,35.00 794.90,35.00 795.73,35.00 796.56,35.00 797.38,35.00 798.20,35.00 799.02,35.00 799.85,35.00 800.67,35.00 801.48,35.00 802.30,35.00 803.12,35.00 803.94,35.00 804.76,35.00 805.58,35.00 806.41,35.00 807.22,35.00 808.04,35.00 808.86,35.00 809.68,35.00 810.49,35.00 811.33,35.00 812.15,35.00 812.96,35.00 813.78,35.00 814.61,35.00 815.42,35.00 816.25,35.00 817.06,35.00 817.90,35.00 818.72,35.00 819.53,35.00 820.35,35.00 821.17,35.00 821.99,35.00 822.81,35.00 823.64,35.00 824.48,35.00 825.32,35.00 826.16,35.00 826.99,35.00 827.83,35.00 828.67,35.00 829.51,35.00 830.36,35.00 831.19,35.00 832.04,35.00 832.86,35.00 833.67,35.00 834.50,35.00 835.33,35.00 836.15,35.00 836.98,35.00 837.80,35.00 838.63,35.00 839.45,35.00 840.27,35.00 841.08,35.00 841.90,35.00 842.72,35.00 843.54,35.00 844.36,35.00 845.18,35.00 846.01,35.00 846.82,35.00 847.66,35.00 848.49,35.00 849.31,35.00 850.12,35.00 850.94,35.00 851.77,35.00 852.59,35.00 853.41,35.00 854.23,35.00 855.05,35.00 855.88,35.00 856.69,35.00 857.51,35.00 858.34,35.00 859.16,35.00 859.98,35.00 860.86,35.00 861.71,35.00 862.52,35.00 863.35,35.00 864.16,35.00 865.00,35.00 865.83,35.00 866.65,35.00 867.48,35.00 868.29,35.00 869.09,35.00 869.92,35.00 870.73,35.00 871.56,35.00 872.38,35.00 873.20,35.00 874.03,35.00 874.85,35.00 875.68,35.00 876.49,35.00 877.31,35.00 878.13,35.00 878.96,35.00 879.78,35.00 880.60,35.00 881.42,35.00 882.25,35.00 883.07,35.00 883.89,35.00 884.75,35.00 885.57,35.00 886.39,35.00 887.21,35.00 888.03,35.00 888.85,35.00 889.68,35.00 890.51,35.00 891.32,35.00 892.15,35.00 892.97,35.00 893.80,35.00 894.63,35.00 895.46,35.00 896.28,35.00 897.10,35.00 897.92,35.00 898.74,35.00 899.56,35.00 900.38,35.00 901.21,35.00 902.03,35.00 902.85,35.00 903.67,35.00 904.49,35.00 905.32,35.00 906.14,35.00 906.95,35.00 907.77,35.00 908.60,35.00 909.42,35.00 910.24,35.00 911.06,35.00 911.88,35.00 912.70,35.00 913.53,35.00 914.35,35.00 915.17,35.00 915.98,35.00 916.80,35.00 917.62,35.00 918.45,35.00 919.26,35.00 920.11,35.00 920.93,35.00 921.75,35.00 922.58,35.00 923.40,35.00 924.23,35.00 925.12,35.00 925.95,35.00 926.78,35.00 927.61,35.00 928.44,35.00 929.26,35.00 930.08,35.00 930.90,35.00 931.73,35.00 932.55,35.00 933.37,35.00 934.19,35.00 935.02,35.00 935.86,35.00 936.68,35.00 937.51,35.00 938.33,35.00 939.15,35.00 939.97,35.00 940.80,35.00 941.62,35.00 942.44,35.00 943.27,35.00 944.09,35.00 944.91,35.00 945.74,35.00 946.56,35.00 947.39,35.00 948.22,35.00 949.04,35.00 949.87,35.00 950.68,35.00 951.51,35.00 952.34,35.00 953.15,35.00 953.97,35.00 954.80,35.00 955.61,35.00 956.44,35.00 957.27,35.00 958.08,35.00 958.90,35.00 959.73,35.00 960.55,35.00 961.37,35.00 962.20,35.00 963.02,35.00 963.85,35.00 964.68,35.00 965.48,35.00 966.28,35.00 967.10,35.00 967.92,35.00 968.75,35.00 969.57,35.00 970.40,35.00 971.22,35.00 972.05,35.00 972.89,35.00 973.70,35.00 974.53,35.00 975.34,35.00 976.16,35.00 976.97,35.00 977.79,35.00 978.61,35.00 979.44,35.00 980.25,35.00 981.07,35.00 981.89,35.00 982.71,35.00 983.53,35.00 984.36,35.00 985.17,35.00 985.99,35.00 986.78,35.00 987.62,35.00 988.44,35.00 989.26,35.00 990.09,35.00 990.92,35.00 991.74,35.00 992.56,35.00 993.38,35.00 994.21,35.00 995.03,35.00 995.85,35.00 996.73,35.00 997.55,35.00 998.38,35.00 999.21,35.00 1000.04,35.00 1000.85,35.00 1001.67,35.00 1002.50,35.00 1003.32,35.00 1004.14,35.00 1004.95,35.00 1005.77,35.00 1006.60,35.00 1007.43,35.00 1008.25,35.00 1009.07,35.00 1009.89,35.00 1010.72,35.00 1011.54,35.00 1012.37,35.00 1013.19,35.00 1014.02,35.00 1014.86,35.00 1015.69,35.00 1016.51,35.00 1017.33,35.00 1018.16,35.00 1018.99,35.00 1019.81,35.00 1020.63,35.00 1021.45,35.00 1022.27,35.00 1023.09,35.00 1023.92,35.00 1024.74,35.00 1025.56,35.00 1026.39,35.00 1027.21,35.00 1028.02,35.00 1028.84,35.00 1029.66,35.00 1030.49,35.00 1031.30,35.00 1032.12,35.00 1032.95,35.00 1033.76,35.00 1034.57,35.00 1035.39,35.00 1036.21,35.00 1037.03,35.00 1037.84,35.00 1038.66,35.00 1039.48,35.00 1040.29,35.00 1041.12,35.00 1041.93,35.00 1042.76,35.00 1043.58,35.00 1044.39,35.00 1045.20,35.00 1046.02,35.00 1046.86,35.00 1047.67,35.00 1048.49,35.00 1049.32,35.00 1050.17,35.00 1050.99,35.00 1051.81,35.00 1052.64,35.00 1053.46,35.00 1054.29,35.00 1055.11,35.00 1055.94,35.00 1056.76,35.00 1057.58,35.00 1058.39,35.00 1059.21,35.00 1060.03,35.00 1060.85,35.00 1061.68,35.00 1062.49,35.00 1063.31,35.00 1064.13,35.00 1064.94,35.00 1065.77,35.00 1066.60,35.00 1067.46,35.00 1068.28,35.00 1069.09,35.00 1069.90,35.00 1070.71,35.00 1071.55,35.00 1072.37,35.00 1073.19,35.00 1074.01,35.00 1074.83,35.00 1075.66,35.00 1076.48,35.00 1077.30,35.00 1078.13,35.00 1078.94,35.00 1079.77,35.00 1080.59,35.00 1081.41,35.00 1082.23,35.00 1083.04,35.00 1083.86,35.00 1084.68,35.00 1085.50,35.00 1086.32,35.00 1087.14,35.00 1087.96,35.00 1088.78,35.00 1089.60,35.00 1090.42,35.00 1091.24,35.00 1092.06,35.00 1092.88,35.00 1093.70,35.00 1094.53,35.00 1095.34,35.00 1096.17,35.00 1096.99,35.00 1097.80,35.00 1098.62,35.00 1099.44,35.00 1100.26,35.00 1101.08,35.00 1101.92,35.00 1102.74,35.00 1103.56,35.00 1104.38,35.00 1105.21,35.00 1106.03,35.00 1106.87,35.00 1107.69,35.00 1108.56,35.00 1109.39,35.00 1110.27,35.00 1111.09,35.00 1111.90,35.00 1112.72,35.00 1113.54,35.00 1114.36,35.00 1115.18,35.00 1116.00,35.00 1116.82,35.00 1117.64,35.00 1118.47,35.00 1119.28,35.00 1120.10,35.00 1120.92,35.00 1121.74,35.00 1122.56,35.00 1123.37,35.00 1124.19,35.00 1125.02,35.00 1125.84,35.00 1126.67,35.00 1127.48,35.00 1128.29,35.00 1129.12,35.00 1129.93,35.00 1130.77,35.00 1131.59,35.00 1132.40,35.00 1133.23,35.00 1134.05,35.00 1134.86,35.00 1135.68,35.00 1136.51,35.00 1137.32,35.00 1138.14,35.00 1138.95,35.00 1139.76,35.00 1140.58,35.00 1141.40,35.00 1142.22,35.00 1143.04,35.00 1143.87,35.00 1144.72,35.00 1145.54,35.00 1146.36,35.00 1147.18,35.00 1147.99,35.00 1148.80,35.00 1149.62,35.00 1150.44,35.00 1151.26,35.00 1152.08,35.00 1152.89,35.00 1153.71,35.00 1154.52,35.00 1155.34,35.00 1156.16,35.00 1156.97,35.00 1157.79,35.00 1158.62,35.00 1159.43,35.00 1160.25,35.00 1161.08,35.00 1161.90,35.00 1162.72,35.00 1163.54,35.00 1164.36,35.00 1165.18,35.00 1166.01,35.00 1166.83,35.00 1167.66,35.00 1168.48,35.00 1169.29,35.00 1170.11,35.00 1170.94,35.00 1171.75,35.00 1172.60,35.00 1173.42,35.00 1174.25,35.00 1175.07,35.00 1175.89,35.00 1176.71,35.00 1177.53,35.00 1178.35,35.00 1179.18,35.00 1180.00,35.00"/>
<polyline fill="none" stroke="#1f77b4" stroke-opacity="0.65" stroke-width="2" points="70.00,35.00 70.82,35.00 71.64,35.00 72.45,35.00 73.27,35.00 74.10,35.00 74.91,35.00 75.73,35.00 76.61,35.00 77.43,35.00 78.24,35.00 79.05,35.00 79.88,35.00 80.69,35.00 81.51,35.00 82.98,35.00 84.25,35.00 85.07,35.00 85.91,35.00 86.72,35.00 87.54,35.00 88.34,35.00 89.16,35.00 89.98,35.00 90.80,35.00 91.62,35.00 92.46,35.00 93.28,35.00 94.10,35.00 94.95,35.00 95.78,35.00 96.59,35.00 97.43,35.00 98.25,35.00 99.07,35.00 99.91,35.00 100.72,35.00 101.54,35.00 102.37,35.00 103.18,35.00 104.00,35.00 104.80,35.00 105.62,35.00 106.44,35.00 107.25,35.00 108.09,35.00 108.91,35.00 109.72,35.00 110.53,35.00 111.36,35.00 112.18,35.00 113.11,35.00 113.93,35.00 114.74,35.00 115.55,35.00 116.37,35.00 117.18,35.00 117.99,35.00 118.81,35.00 119.62,35.00 120.46,35.00 121.27,35.00 122.08,35.00 122.90,35.00 123.73,35.00 124.54,35.00 125.36,35.00 126.17,35.00 126.98,35.00 127.79,35.00 128.60,35.00 129.42,35.00 130.24,35.00 131.05,35.00 131.86,35.00 132.68,35.00 133.49,35.00 134.31,35.00 135.12,35.00 135.94,35.00 136.77,35.00 137.59,35.00 138.40,35.00 139.23,35.00 140.04,35.00 140.86,35.00 141.67,35.00 142.48,35.00 143.29,35.00 144.11,35.00 144.94,35.00 145.75,35.00 146.58,35.00 147.38,35.00 148.20,35.00 149.01,35.00 149.83,35.00 150.64,35.00 151.46,35.00 152.27,35.00 153.09,35.00 153.91,35.00 154.72,35.00 155.54,35.00 156.37,35.00 157.19,35.00 158.01,35.00 158.82,35.00 159.63,35.00 160.45,35.00 161.27,35.00 162.09,35.00 162.91,35.00 163.72,35.00 164.54,35.00 165.36,35.00 166.18,35.00 167.01,35.00 167.83,35.00 168.64,35.00 169.46,35.00 170.28,35.00 171.09,35.00 171.91,35.00 172.80,35.00 173.61,35.00 174.44,35.00 175.25,35.00 176.06,35.00 176.87,35.00 177.68,35.00 178.49,35.00 179.31,35.00 180.12,35.00 180.94,35.00 181.75,35.00 182.57,35.00 183.38,35.00 184.21,35.00 185.02,35.00 185.84,35.00 186.65,35.00 187.47,35.00 188.28,35.00 189.10,35.00 189.92,35.00 190.74,35.00 191.56,35.00 192.37,35.00 193.18,35.00 193.99,35.00 194.81,35.00 195.62,35.00 196.44,35.00 197.27,35.00 198.09,35.00 198.90,35.00 199.73,35.00 200.54,35.00 201.35,35.00 202.17,35.00 202.99,35.00 203.82,35.00 204.65,35.00 205.46,35.00 206.28,35.00 207.09,35.00 207.90,35.00 208.72,35.00 209.53,35.00 210.35,35.00 211.15,35.00 211.97,35.00 212.79,35.00 213.61,35.00 214.43,35.00 215.24,35.00 216.08,35.00 216.89,35.00 217.71,35.00 218.52,35.00 219.33,35.00 220.22,35.00 221.06,35.00 221.87,35.00 222.68,35.00 223.48,35.00 224.30,35.00 225.12,35.00 225.94,35.00 226.76,35.00 227.57,35.00 228.38,35.00 229.20,35.00 230.04,35.00 230.85,35.00 231.66,35.00 232.48,35.00 233.30,35.00 234.13,35.00 234.97,35.00 235.78,35.00 236.60,35.00 237.41,35.00 238.23,35.00 239.05,35.00 239.86,35.00 240.69,35.00 241.50,35.00 242.31,35.00 243.14,35.00 243.96,35.00 244.77,35.00 245.59,35.00 246.42,35.00 247.23,35.00 248.05,35.00 248.85,35.00 249.67,35.00 250.49,35.00 251.30,35.00 252.11,35.00 252.93,35.00 253.74,35.00 254.55,35.00 255.38,35.00 256.19,35.00 257.01,35.00 257.84,35.00 258.66,35.00 259.48,35.00 260.29,35.00 261.11,35.00 261.93,35.00 262.75,35.00 263.56,35.00 264.40,35.00 265.22,35.00 266.04,35.00 266.85,35.00 267.67,35.00 268.49,35.00 269.29,35.00 270.11,35.00 270.93,35.00 271.75,35.00 272.57,35.00 273.38,35.00 274.21,35.00 275.02,35.00 275.84,35.00 276.66,35.00 277.49,35.00 278.30,35.00 279.11,35.00 279.94,35.00 280.76,35.00 281.58,35.00 282.40,35.00 283.21,35.00 284.12,35.00 284.94,35.00 285.76,35.00 286.58,35.00 287.40,35.00 288.22,35.00 289.04,35.00 289.86,35.00 290.67,35.00 291.51,35.00 292.34,35.00 293.15,35.00 293.96,35.00 294.78,35.00 295.60,35.00 296.42,35.00 297.27,35.00 298.08,35.00 298.90,35.00 299.73,35.00 300.61,35.00 301.42,35.00 302.45,35.00 303.83,35.00 304.67,35.00 305.50,35.00 306.32,35.00 307.12,35.00 307.93,35.00 308.76,35.00 309.58,35.00 310.40,35.00 311.25,35.00 312.10,35.00 312.97,35.00 313.79,35.00 314.60,35.00 315.42,35.00 316.25,35.00 317.08,35.00 317.90,35.00 318.71,35.00 319.53,35.00 320.38,35.00 321.20,35.00 322.01,35.00 322.83,35.00 323.66,35.00 324.51,35.00 325.33,35.00 326.15,35.00 326.99,35.00 327.77,35.00 328.58,35.00 329.42,35.00 330.23,35.00 331.06,35.00 331.90,35.00 332.72,35.00 333.54,35.00 334.36,35.00 335.19,35.00 336.01,35.00 336.82,35.00 337.63,35.00 338.45,35.00 339.27,35.00 340.08,35.00 341.06,35.00 342.02,35.00 342.99,35.00 343.94,35.00 344.87,35.00 345.81,35.00 346.78,35.00 347.73,35.00 348.55,35.00 349.36,35.00 350.17,35.00 350.99,35.00 351.81,35.00 352.62,35.00 353.43,35.00 354.24,35.00 355.06,35.00 355.87,35.00 356.69,35.00 357.50,35.00 358.32,35.00 359.13,35.00 359.94,35.00 360.75,35.00 361.57,35.00 362.38,35.00 363.20,35.00 364.02,35.00 364.83,35.00 365.64,35.00 366.45,35.00 367.27,35.00 368.08,35.00 368.90,35.00 369.71,35.00 370.53,35.00 371.35,35.00 372.16,35.00 372.98,35.00 373.79,35.00 374.60,35.00 375.42,35.00 376.22,35.00 377.03,35.00 377.84,35.00 378.65,35.00 379.46,35.00 380.28,35.00 381.09,35.00 381.90,35.00 382.71,35.00 383.52,35.00 384.32,35.00 385.16,35.00 386.04,35.00 386.86,35.00 387.68,35.00 388.49,35.00 389.30,35.00 390.11,35.00 390.92,35.00 391.73,35.00 392.70,35.00 393.66,35.00 394.60,35.00 395.56,35.00 396.52,35.00 397.48,35.00 398.45,35.00 399.44,35.00 400.33,35.00 401.21,35.00 402.02,35.00 402.85,35.00 403.67,35.00 404.47,35.00 405.29,35.00 406.10,35.00 406.92,35.00 407.73,35.00 408.54,35.00 409.36,35.00 410.18,35.00 410.99,35.00 411.82,35.00 412.63,35.00 413.44,35.00 414.16,35.00 415.00,35.00 415.81,35.00 416.65,35.00 417.46,35.00 418.28,35.00 419.10,35.00 419.92,35.00 420.74,35.00 421.57,35.00 422.39,35.00 423.22,35.00 424.03,35.00 424.84,35.00 425.65,35.00 426.46,35.00 427.27,35.00 428.08,35.00 428.91,35.00 429.72,35.00 430.54,35.00 431.35,35.00 432.16,35.00 432.99,35.00 433.80,35.00 434.62,35.00 435.44,35.00 436.26,35.00 437.07,35.00 437.90,35.00 438.72,35.00 439.56,35.00 440.37,35.00 441.18,35.00 441.99,35.00 442.80,35.00 443.61,35.00 444.44,35.00 445.25,35.00 446.06,35.00 446.88,35.00 447.69,35.00 448.50,35.00 449.32,35.00 450.15,35.00 450.96,35.00 451.95,35.00 452.78,35.00 453.62,35.00 454.44,35.00 455.26,35.00 456.09,35.00 456.90,35.00 457.71,35.00 458.53,35.00 459.36,35.00 460.17,35.00 460.99,35.00 461.81,35.00 462.62,35.00 463.47,35.00 464.30,35.00 465.12,35.00 465.93,35.00 466.75,35.00 467.57,35.00 468.38,35.00 469.20,35.00 470.05,35.00 470.87,35.00 471.69,35.00 472.51,35.00 473.32,35.00 474.14,35.00 474.96,35.00 475.77,35.00 476.59,35.00 477.41,35.00 478.23,35.00 479.05,35.00 479.86,35.00 480.68,35.00 481.50,35.00 482.33,35.00 483.15,35.00 483.96,35.00 484.77,35.00 485.59,35.00 486.42,35.00 487.24,35.00 488.22,35.00 489.06,35.00 489.88,35.00 490.70,35.00 491.51,35.00 492.33,35.00 493.15,35.00 493.97,35.00 494.80,35.00 495.61,35.00 496.43,35.00 497.24,35.00 498.06,35.00 498.87,35.00 499.69,35.00 500.51,35.00 501.32,35.00 502.14,35.00 502.95,35.00 503.77,35.00 504.59,35.00 505.41,35.00 506.22,35.00 507.05,35.00 507.87,35.00 508.68,35.00 509.50,35.00 510.32,35.00 511.16,35.00 511.97,35.00 512.79,35.00 513.61,35.00 514.43,35.00 515.24,35.00 516.06,35.00 516.88,35.00 517.72,35.00 518.53,35.00 519.35,35.00 520.16,35.00 520.97,35.00 521.79,35.00 522.61,35.00 523.42,35.00 524.25,35.00 525.07,35.00 525.90,35.00 526.70,35.00 527.52,35.00 528.33,35.00 529.15,35.00 529.97,35.00 530.79,35.00 531.60,35.00 532.43,35.00 533.25,35.00 534.06,35.00 534.89,35.00 535.71,35.00 536.53,35.00 537.35,35.00 538.17,35.00 539.09,35.00 539.99,35.00 540.86,35.00 541.69,35.00 542.54,35.00 543.36,35.00 544.18,35.00 544.99,35.00 545.75,35.00 546.61,35.00 547.42,35.00 548.25,35.00 549.06,35.00 549.88,35.00 550.69,35.00 551.51,35.00 552.33,35.00 553.15,35.00 553.96,35.00 554.78,35.00 555.60,35.00 556.43,35.00 557.25,35.00 558.08,35.00 558.90,35.00 559.72,35.00 560.53,35.00 561.37,35.00 562.19,35.00 563.00,35.00 563.81,35.00 564.63,35.00 565.45,35.00 566.26,35.00 567.08,35.00 567.90,35.00 568.73,35.00 569.54,35.00 570.36,35.00 571.18,35.00 572.00,35.00 572.82,35.00 573.64,35.00 574.45,35.00 575.27,35.00 576.09,35.00 576.92,35.00 577.74,35.00 578.57,35.00 579.39,35.00 580.20,35.00 581.03,35.00 581.84,35.00 582.67,35.00 583.51,35.00 584.33,35.00 585.15,35.00 585.97,35.00 586.79,35.00 587.61,35.00 588.43,35.00 589.25,35.00 590.07,35.00 590.89,35.00 591.71,35.00 592.53,35.00 593.35,35.00 594.18,35.00 595.00,35.00 595.82,35.00 596.64,35.00 597.47,35.00 598.30,35.00 599.12,35.00 599.93,35.00 600.75,35.00 601.57,35.00 602.41,35.00 603.23,35.00 604.06,35.00 604.88,35.00 605.69,35.00 606.51,35.00 607.33,35.00 608.15,35.00 608.97,35.00 609.79,35.00 610.61,35.00 611.43,35.00 612.25,35.00 613.07,35.00 613.89,35.00 614.71,35.00 615.54,35.00 616.36,35.00 617.18,35.00 618.00,35.00 618.82,35.00 619.63,35.00 620.45,35.00 621.27,35.00 622.09,35.00 622.91,35.00 623.73,35.00 624.56,35.00 625.37,35.00 626.20,35.00 627.03,35.00 627.84,35.00 628.67,35.00 629.50,35.00 630.31,35.00 631.13,35.00 631.96,35.00 632.79,35.00 633.61,35.00 634.43,35.00 635.27,35.00 636.09,35.00 636.92,35.00 637.74,35.00 638.55,35.00 639.38,35.00 640.20,35.00 641.03,35.00 641.85,35.00 642.67,35.00 643.49,35.00 644.30,35.00 645.15,35.00 645.96,35.00 646.79,35.00 647.61,35.00 648.42,35.00 649.24,35.00 650.05,35.00 650.87,35.00 651.69,35.00 652.51,35.00 653.33,35.00 654.15,35.00 654.97,35.00 655.79,35.00 656.64,35.00 657.46,35.00 658.27,35.00 659.10,35.00 659.91,35.00 660.73,35.00 661.55,35.00 662.38,35.00 663.19,35.00 664.01,35.00 664.84,35.00 665.66,35.00 666.48,35.00 667.30,35.00 668.13,35.00 668.97,35.00 669.80,35.00 670.62,35.00 671.45,35.00 672.27,35.00 673.10,35.00 673.91,35.00 674.73,35.00 675.54,35.00 676.37,35.00 677.19,35.00 678.02,35.00 678.84,35.00 679.67,35.00 680.52,35.00 681.34,35.00 682.16,35.00 682.98,35.00 683.80,35.00 684.63,35.00 685.45,35.00 686.29,35.00 687.11,35.00 687.94,35.00 688.76,35.00 689.58,35.00 690.41,35.00 691.23,35.00 692.05,35.00 692.87,35.00 693.69,35.00 694.52,35.00 695.34,35.00 696.16,35.00 696.98,35.00 697.81,35.00 698.63,35.00 699.45,35.00 700.28,35.00 701.10,35.00 701.95,35.00 702.78,35.00 703.61,35.00 704.43,35.00 705.27,35.00 706.11,35.00 706.94,35.00 707.78,35.00 708.62,35.00 709.45,35.00 710.27,35.00 711.09,35.00 711.92,35.00 712.74,35.00 713.57,35.00 714.41,35.00 715.23,35.00 716.05,35.00 716.87,35.00 717.69,35.00 718.51,35.00 719.33,35.00 720.15,35.00 720.97,35.00 721.79,35.00 722.61,35.00 723.43,35.00 724.24,35.00 725.06,35.00 725.88,35.00 726.71,35.00 727.52,35.00 728.35,35.00 729.18,35.00 730.00,35.00 730.82,35.00 731.65,35.00 732.47,35.00 733.28,35.00 734.10,35.00 734.93,35.00 735.75,35.00 736.56,35.00 737.37,35.00 738.19,35.00 739.01,35.00 739.84,35.00 740.66,35.00 741.48,35.00 742.30,35.00 743.12,35.00 743.93,35.00 744.76,35.00 745.58,35.00 746.38,35.00 747.20,35.00 748.00,35.00 748.83,35.00 749.65,35.00 750.49,35.00 751.30,35.00 752.12,35.00 752.94,35.00 753.78,35.00 754.61,35.00 755.42,35.00 756.25,35.00 757.07,35.00 757.89,35.00 758.72,35.00 759.54,35.00 760.37,35.00 761.20,35.00 762.02,35.00 762.83,35.00 763.65,35.00 764.47,35.00 765.29,35.00 766.11,35.00 766.92,35.00 767.74,35.00 768.56,35.00 769.39,35.00 770.20,35.00 771.02,35.00 771.84,35.00 772.66,35.00 773.49,35.00 774.31,35.00 775.13,35.00 775.95,35.00 776.77,35.00 777.60,35.00 778.41,35.00 779.23,35.00 780.06,35.00 780.88,35.00 781.69,35.00 782.52,35.00 783.35,35.00 784.16,35.00 784.98,35.00 785.80,35.00 786.65,35.00 787.47,35.00 788.30,35.00 789.14,35.00 789.96,35.00 790.78,35.00 791.60,35.00 792.43,35.00 793.25,35.00 794.07,35.00 794.90,35.00 795.73,35.00 796.56,35.00 797.38,35.00 798.20,35.00 799.02,35.00 799.85,35.00 800.67,35.00 801.48,35.00 802.30,35.00 803.12,35.00 803.94,35.00 804.76,35.00 805.58,35.00 806.41,35.00 807.22,35.00 808.04,35.00 808.86,35.00 809.68,35.00 810.49,35.00 811.33,35.00 812.15,35.00 812.96,35.00 813.78,35.00 814.61,35.00 815.42,35.00 816.25,35.00 817.06,35.00 817.90,35.00 818.72,35.00 819.53,35.00 820.35,35.00 821.17,35.00 821.99,35.00 822.81,35.00 823.64,35.00 824.48,35.00 825.32,35.00 826.16,35.00 826.99,35.00 827.83,35.00 828.67,35.00 829.51,35.00 830.36,35.00 831.19,35.00 832.04,35.00 832.86,35.00 833.67,35.00 834.50,35.00 835.33,35.00 836.15,35.00 836.98,35.00 837.80,35.00 838.63,35.00 839.45,35.00 840.27,35.00 841.08,35.00 841.90,35.00 842.72,35.00 843.54,35.00 844.36,35.00 845.18,35.00 846.01,35.00 846.82,35.00 847.66,35.00 848.49,35.00 849.31,35.00 850.12,35.00 850.94,35.00 851.77,35.00 852.59,35.00 853.41,35.00 854.23,35.00 855.05,35.00 855.88,35.00 856.69,35.00 857.51,35.00 858.34,35.00 859.16,35.00 859.98,35.00 860.86,35.00 861.71,35.00 862.52,35.00 863.35,35.00 864.16,35.00 865.00,35.00 865.83,35.00 866.65,35.00 867.48,35.00 868.29,35.00 869.09,35.00 869.92,35.00 870.73,35.00 871.56,35.00 872.38,35.00 873.20,35.00 874.03,35.00 874.85,35.00 875.68,35.00 876.49,35.00 877.31,35.00 878.13,35.00 878.96,35.00 879.78,35.00 880.60,35.00 881.42,35.00 882.25,35.00 883.07,35.00 883.89,35.00 884.75,35.00 885.57,35.00 886.39,35.00 887.21,35.00 888.03,35.00 888.85,35.00 889.68,35.00 890.51,35.00 891.32,35.00 892.15,35.00 892.97,35.00 893.80,35.00 894.63,35.00 895.46,35.00 896.28,35.00 897.10,35.00 897.92,35.00 898.74,35.00 899.56,35.00 900.38,35.00 901.21,35.00 902.03,35.00 902.85,35.00 903.67,35.00 904.49,35.00 905.32,35.00 906.14,35.00 906.95,35.00 907.77,35.00 908.60,35.00 909.42,35.00 910.24,35.00 911.06,35.00 911.88,35.00 912.70,35.00 913.53,35.00 914.35,35.00 915.17,35.00 915.98,35.00 916.80,35.00 917.62,35.00 918.45,35.00 919.26,35.00 920.11,35.00 920.93,35.00 921.75,35.00 922.58,35.00 923.40,35.00 924.23,35.00 925.12,35.00 925.95,35.00 926.78,35.00 927.61,35.00 928.44,35.00 929.26,35.00 930.08,35.00 930.90,35.00 931.73,35.00 932.55,35.00 933.37,35.00 934.19,35.00 935.02,35.00 935.86,35.00 936.68,35.00 937.51,35.00 938.33,35.00 939.15,35.00 939.97,35.00 940.80,35.00 941.62,35.00 942.44,35.00 943.27,35.00 944.09,35.00 944.91,35.00 945.74,35.00 946.56,35.00 947.39,35.00 948.22,35.00 949.04,35.00 949.87,35.00 950.68,35.00 951.51,35.00 952.34,35.00 953.15,35.00 953.97,35.00 954.80,35.00 955.61,35.00 956.44,35.00 957.27,35.00 958.08,35.00 958.90,35.00 959.73,35.00 960.55,35.00 961.37,35.00 962.20,35.00 963.02,35.00 963.85,35.00 964.68,35.00 965.48,35.00 966.28,35.00 967.10,35.00 967.92,35.00 968.75,35.00 969.57,35.00 970.40,35.00 971.22,35.00 972.05,35.00 972.89,35.00 973.70,35.00 974.53,35.00 975.34,35.00 976.16,35.00 976.97,35.00 977.79,35.00 978.61,35.00 979.44,35.00 980.25,35.00 981.07,35.00 981.89,35.00 982.71,35.00 983.53,35.00 984.36,35.00 985.17,35.00 985.99,35.00 986.78,35.00 987.62,35.00 988.44,35.00 989.26,35.00 990.09,35.00 990.92,35.00 991.74,35.00 992.56,35.00 993.38,35.00 994.21,35.00 995.03,35.00 995.85,35.00 996.73,35.00 997.55,35.00 998.38,35.00 999.21,35.00 1000.04,35.00 1000.85,35.00 1001.67,35.00 1002.50,35.00 1003.32,35.00 1004.14,35.00 1004.95,35.00 1005.77,35.00 1006.60,35.00 1007.43,35.00 1008.25,35.00 1009.07,35.00 1009.89,35.00 1010.72,35.00 1011.54,35.00 1012.37,35.00 1013.19,35.00 1014.02,35.00 1014.86,35.00 1015.69,35.00 1016.51,35.00 1017.33,35.00 1018.16,35.00 1018.99,35.00 1019.81,35.00 1020.63,35.00 1021.45,35.00 1022.27,35.00 1023.09,35.00 1023.92,35.00 1024.74,35.00 1025.56,35.00 1026.39,35.00 1027.21,35.00 1028.02,35.00 1028.84,35.00 1029.66,35.00 1030.49,35.00 1031.30,35.00 1032.12,35.00 1032.95,35.00 1033.76,35.00 1034.57,35.00 1035.39,35.00 1036.21,35.00 1037.03,35.00 1037.84,35.00 1038.66,35.00 1039.48,35.00 1040.29,35.00 1041.12,35.00 1041.93,35.00 1042.76,35.00 1043.58,35.00 1044.39,35.00 1045.20,35.00 1046.02,35.00 1046.86,35.00 1047.67,35.00 1048.49,35.00 1049.32,35.00 1050.17,35.00 1050.99,35.00 1051.81,35.00 1052.64,35.00 1053.46,35.00 1054.29,35.00 1055.11,35.00 1055.94,35.00 1056.76,35.00 1057.58,35.00 1058.39,35.00 1059.21,35.00 1060.03,35.00 1060.85,35.00 1061.68,35.00 1062.49,35.00 1063.31,35.00 1064.13,35.00 1064.94,35.00 1065.77,35.00 1066.60,35.00 1067.46,35.00 1068.28,35.00 1069.09,35.00 1069.90,35.00 1070.71,35.00 1071.55,35.00 1072.37,35.00 1073.19,35.00 1074.01,35.00 1074.83,35.00 1075.66,35.00 1076.48,35.00 1077.30,35.00 1078.13,35.00 1078.94,35.00 1079.77,35.00 1080.59,35.00 1081.41,35.00 1082.23,35.00 1083.04,35.00 1083.86,35.00 1084.68,35.00 1085.50,35.00 1086.32,35.00 1087.14,35.00 1087.96,35.00 1088.78,35.00 1089.60,35.00 1090.42,35.00 1091.24,35.00 1092.06,35.00 1092.88,35.00 1093.70,35.00 1094.53,35.00 1095.34,35.00 1096.17,35.00 1096.99,35.00 1097.80,35.00 1098.62,35.00 1099.44,35.00 1100.26,35.00 1101.08,35.00 1101.92,35.00 1102.74,35.00 1103.56,35.00 1104.38,35.00 1105.21,35.00 1106.03,35.00 1106.87,35.00 1107.69,35.00 1108.56,35.00 1109.39,35.00 1110.27,35.00 1111.09,35.00 1111.90,35.00 1112.72,35.00 1113.54,35.00 1114.36,35.00 1115.18,35.00 1116.00,35.00 1116.82,35.00 1117.64,35.00 1118.47,35.00 1119.28,35.00 1120.10,35.00 1120.92,35.00 1121.74,35.00 1122.56,35.00 1123.37,35.00 1124.19,35.00 1125.02,35.00 1125.84,35.00 1126.67,35.00 1127.48,35.00 1128.29,35.00 1129.12,35.00 1129.93,35.00 1130.77,35.00 1131.59,35.00 1132.40,35.00 1133.23,35.00 1134.05,35.00 1134.86,35.00 1135.68,35.00 1136.51,35.00 1137.32,35.00 1138.14,35.00 1138.95,35.00 1139.76,35.00 1140.58,35.00 1141.40,35.00 1142.22,35.00 1143.04,35.00 1143.87,35.00 1144.72,35.00 1145.54,35.00 1146.36,35.00 1147.18,35.00 1147.99,35.00 1148.80,35.00 1149.62,35.00 1150.44,35.00 1151.26,35.00 1152.08,35.00 1152.89,35.00 1153.71,35.00 1154.52,35.00 1155.34,35.00 1156.16,35.00 1156.97,35.00 1157.79,35.00 1158.62,35.00 1159.43,35.00 1160.25,35.00 1161.08,35.00 1161.90,35.00 1162.72,35.00 1163.54,35.00 1164.36,35.00 1165.18,35.00 1166.01,35.00 1166.83,35.00 1167.66,35.00 1168.48,35.00 1169.29,35.00 1170.11,35.00 1170.94,35.00 1171.75,35.00 1172.60,35.00 1173.42,35.00 1174.25,35.00 1175.07,35.00 1175.89,35.00 1176.71,35.00 1177.53,35.00 1178.35,35.00 1179.18,35.00 1180.00,35.00"/>
<polyline fill="none" stroke="#1f77b4" stroke-opacity="0.50" stroke-width="2" points="70.00,35.00 70.82,35.00 71.64,35.00 72.45,35.00 73.27,35.00 74.10,35.00 74.91,35.00 75.73,35.00 76.61,35.00 77.43,35.00 78.24,35.00 79.05,35.00 79.88,35.00 80.69,35.00 81.51,35.00 82.98,35.00 84.25,35.00 85.07,35.00 85.91,35.00 86.72,35.00 87.54,35.00 88.34,35.00 89.16,35.00 89.98,35.00 90.80,35.00 91.62,35.00 92.46,35.00 93.28,35.00 94.10,35.00 94.95,35.00 95.78,35.00 96.59,35.00 97.43,35.00 98.25,35.00 99.07,35.00 99.91,35.00 100.72,35.00 101.54,35.00 102.37,35.00 103.18,35.00 104.00,35.00 104.80,35.00 105.62,35.00 106.44,35.00 107.25,35.00 108.09,35.00 108.91,35.00 109.72,35.00 110.53,35.00 111.36,35.00 112.18,35.00 113.11,35.00 113.93,35.00 114.74,35.00 115.55,35.00 116.37,35.00 117.18,35.00 117.99,35.00 118.81,35.00 119.62,35.00 120.46,35.00 121.27,35.00 122.08,35.00 122.90,35.00 123.73,35.00 124.54,35.00 125.36,35.00 126.17,35.00 126.98,35.00 127.79,35.00 128.60,35.00 129.42,35.00 130.24,35.00 131.05,35.00 131.86,35.00 132.68,35.00 133.49,35.00 134.31,35.00 135.12,35.00 135.94,35.00 136.77,35.00 137.59,35.00 138.40,35.00 139.23,35.00 140.04,35.00 140.86,35.00 141.67,35.00 142.48,35.00 143.29,35.00 144.11,35.00 144.94,35.00 145.75,35.00 146.58,35.00 147.38,35.00 148.20,35.00 149.01,35.00 149.83,35.00 150.64,35.00 151.46,35.00 152.27,35.00 153.09,35.00 153.91,35.00 154.72,35.00 155.54,35.00 156.37,35.00 157.19,35.00 158.01,35.00 158.82,35.00 159.63,35.00 160.45,35.00 161.27,35.00 162.09,35.00 162.91,35.00 163.72,35.00 164.54,35.00 165.36,35.00 166.18,35.00 167.01,35.00 167.83,35.00 168.64,35.00 169.46,35.00 170.28,35.00 171.09,35.00 171.91,35.00 172.80,35.00 173.61,35.00 174.44,35.00 175.25,35.00 176.06,35.00 176.87,35.00 177.68,35.00 178.49,35.00 179.31,35.00 180.12,35.00 180.94,35.00 181.75,35.00 182.57,35.00 183.38,35.00 184.21,35.00 185.02,35.00 185.84,35.00 186.65,35.00 187.47,35.00 188.28,35.00 189.10,35.00 189.92,35.00 190.74,35.00 191.56,35.00 192.37,35.00 193.18,35.00 193.99,35.00 194.81,35.00 195.62,35.00 196.44,35.00 197.27,35.00 198.09,35.00 198.90,35.00 199.73,35.00 200.54,35.00 201.35,35.00 202.17,35.00 202.99,35.00 203.82,35.00 204.65,35.00 205.46,35.00 206.28,35.00 207.09,35.00 207.90,35.00 208.72,35.00 209.53,35.00 210.35,35.00 211.15,35.00 211.97,35.00 212.79,35.00 213.61,35.00 214.43,35.00 215.24,35.00 216.08,35.00 216.89,35.00 217.71,35.00 218.52,35.00 219.33,35.00 220.22,35.00 221.06,35.00 221.87,35.00 222.68,35.00 223.48,35.00 224.30,35.00 225.12,35.00 225.94,35.00 226.76,35.00 227.57,35.00 228.38,35.00 229.20,35.00 230.04,35.00 230.85,35.00 231.66,35.00 232.48,35.00 233.30,35.00 234.13,35.00 234.97,35.00 235.78,35.00 236.60,35.00 237.41,35.00 238.23,35.00 239.05,35.00 239.86,35.00 240.69,35.00 241.50,35.00 242.31,35.00 243.14,35.00 243.96,35.00 244.77,35.00 245.59,35.00 246.42,35.00 247.23,35.00 248.05,35.00 248.85,35.00 249.67,35.00 250.49,35.00 251.30,35.00 252.11,35.00 252.93,35.00 253.74,35.00 254.55,35.00 255.38,35.00 256.19,35.00 257.01,35.00 257.84,35.00 258.66,35.00 259.48,35.00 260.29,35.00 261.11,35.00 261.93,35.00 262.75,35.00 263.56,35.00 264.40,35.00 265.22,35.00 266.04,35.00 266.85,35.00 267.67,35.00 268.49,35.00 269.29,35.00 270.11,35.00 270.93,35.00 271.75,35.00 272.57,35.00 273.38,35.00 274.21,35.00 275.02,35.00 275.84,35.00 276.66,35.00 277.49,35.00 278.30,35.00 279.11,35.00 279.94,35.00 280.76,35.00 281.58,35.00 282.40,35.00 283.21,35.00 284.12,35.00 284.94,35.00 285.76,35.00 286.58,35.00 287.40,35.00 288.22,35.00 289.04,35.00 289.86,35.00 290.67,35.00 291.51,35.00 292.34,35.00 293.15,35.00 293.96,35.00 294.78,35.00 295.60,35.00 296.42,35.00 297.27,35.00 298.08,35.00 298.90,35.00 299.73,35.00 300.61,35.00 301.42,35.00 302.45,35.00 303.83,35.00 304.67,35.00 305.50,35.00 306.32,35.00 307.12,35.00 307.93,35.00 308.76,35.00 309.58,35.00 310.40,35.00 311.25,35.00 312.10,35.00 312.97,35.00 313.79,35.00 314.60,35.00 315.42,35.00 316.25,35.00 317.08,35.00 317.90,35.00 318.71,35.00 319.53,35.00 320.38,35.00 321.20,35.00 322.01,35.00 322.83,35.00 323.66,35.00 324.51,35.00 325.33,35.00 326.15,35.00 326.99,35.00 327.77,35.00 328.58,35.00 329.42,35.00 330.23,35.00 331.06,35.00 331.90,35.00 332.72,35.00 333.54,35.00 334.36,35.00 335.19,35.00 336.01,35.00 336.82,35.00 337.63,35.00 338.45,35.00 339.27,35.00 340.08,35.00 341.06,35.00 342.02,35.00 342.99,35.00 343.94,35.00 344.87,35.00 345.81,35.00 346.78,35.00 347.73,35.00 348.55,35.00 349.36,35.00 350.17,35.00 350.99,35.00 351.81,35.00 352.62,35.00 353.43,35.00 354.24,35.00 355.06,35.00 355.87,35.00 356.69,35.00 357.50,35.00 358.32,35.00 359.13,35.00 359.94,35.00 360.75,35.00 361.57,35.00 362.38,35.00 363.20,35.00 364.02,35.00 364.83,35.00 365.64,35.00 366.45,35.00 367.27,35.00 368.08,35.00 368.90,35.00 369.71,35.00 370.53,35.00 371.35,35.00 372.16,35.00 372.98,35.00 373.79,35.00 374.60,35.00 375.42,35.00 376.22,35.00 377.03,35.00 377.84,35.00 378.65,35.00 379.46,35.00 380.28,35.00 381.09,35.00 381.90,35.00 382.71,35.00 383.52,35.00 384.32,35.00 385.16,35.00 386.04,35.00 386.86,35.00 387.68,35.00 388.49,35.00 389.30,35.00 390.11,35.00 390.92,35.00 391.73,35.00 392.70,35.00 393.66,35.00 394.60,35.00 395.56,35.00 396.52,35.00 397.48,35.00 398.45,35.00 399.44,35.00 400.33,35.00 401.21,35.00 402.02,35.00 402.85,35.00 403.67,35.00 404.47,35.00 405.29,35.00 406.10,35.00 406.92,35.00 407.73,35.00 408.54,35.00 409.36,35.00 410.18,35.00 410.99,35.00 411.82,35.00 412.63,35.00 413.44,35.00 414.16,35.00 415.00,35.00 415.81,35.00 416.65,35.00 417.46,35.00 418.28,35.00 419.10,35.00 419.92,35.00 420.74,35.00 421.57,35.00 422.39,35.00 423.22,35.00 424.03,35.00 424.84,35.00 425.65,35.00 426.46,35.00 427.27,35.00 428.08,35.00 428.91,35.00 429.72,35.00 430.54,35.00 431.35,35.00 432.16,35.00 432.99,35.00 433.80,35.00 434.62,35.00 435.44,35.00 436.26,35.00 437.07,35.00 437.90,35.00 438.72,35.00 439.56,35.00 440.37,35.00 441.18,35.00 441.99,35.00 442.80,35.00 443.61,35.00 444.44,35.00 445.25,35.00 446.06,35.00 446.88,35.00 447.69,35.00 448.50,35.00 449.32,35.00 450.15,35.00 450.96,35.00 451.95,35.00 452.78,35.00 453.62,35.00 454.44,35.00 455.26,35.00 456.09,35.00 456.90,35.00 457.71,35.00 458.53,35.00 459.36,35.00 460.17,35.00 460.99,35.00 461.81,35.00 462.62,35.00 463.47,35.00 464.30,35.00 465.12,35.00 465.93,35.00 466.75,35.00 467.57,35.00 468.38,35.00 469.20,35.00 470.05,35.00 470.87,35.00 471.69,35.00 472.51,35.00 473.32,35.00 474.14,35.00 474.96,35.00 475.77,35.00 476.59,35.00 477.41,35.00 478.23,35.00 479.05,35.00 479.86,35.00 480.68,35.00 481.50,35.00 482.33,35.00 483.15,35.00 483.96,35.00 484.77,35.00 485.59,35.00 486.42,35.00 487.24,35.00 488.22,35.00 489.06,35.00 489.88,35.00 490.70,35.00 491.51,35.00 492.33,35.00 493.15,35.00 493.97,35.00 494.80,35.00 495.61,35.00 496.43,35.00 497.24,35.00 498.06,35.00 498.87,35.00 499.69,35.00 500.51,35.00 501.32,35.00 502.14,35.00 502.95,35.00 503.77,35.00 504.59,35.00 505.41,35.00 506.22,35.00 507.05,35.00 507.87,35.00 508.68,35.00 509.50,35.00 510.32,35.00 511.16,35.00 511.97,35.00 512.79,35.00 513.61,35.00 514.43,35.00 515.24,35.00 516.06,35.00 516.88,35.00 517.72,35.00 518.53,35.00 519.35,35.00 520.16,35.00 520.97,35.00 521.79,35.00 522.61,35.00 523.42,35.00 524.25,35.00 525.07,35.00 525.90,35.00 526.70,35.00 527.52,35.00 528.33,35.00 529.15,35.00 529.97,35.00 530.79,35.00 531.60,35.00 532.43,35.00 533.25,35.00 534.06,35.00 534.89,35.00 535.71,35.00 536.53,35.00 537.35,35.00 538.17,35.00 539.09,35.00 539.99,35.00 540.86,35.00 541.69,35.00 542.54,35.00 543.36,35.00 544.18,35.00 544.99,35.00 545.75,35.00 546.61,35.00 547.42,35.00 548.25,35.00 549.06,35.00 549.88,35.00 550.69,35.00 551.51,35.00 552.33,35.00 553.15,35.00 553.96,35.00 554.78,35.00 555.60,35.00 556.43,35.00 557.25,35.00 558.08,35.00 558.90,35.00 559.72,35.00 560.53,35.00 561.37,35.00 562.19,35.00 563.00,35.00 563.81,35.00 564.63,35.00 565.45,35.00 566.26,35.00 567.08,35.00 567.90,35.00 568.73,35.00 569.54,35.00 570.36,35.00 571.18,35.00 572.00,35.00 572.82,35.00 573.64,35.00 574.45,35.00 575.27,35.00 576.09,35.00 576.92,35.00 577.74,35.00 578.57,35.00 579.39,35.00 580.20,35.00 581.03,35.00 581.84,35.00 582.67,35.00 583.51,35.00 584.33,35.00 585.15,35.00 585.97,35.00 586.79,35.00 587.61,35.00 588.43,35.00 589.25,35.00 590.07,35.00 590.89,35.00 591.71,35.00 592.53,35.00 593.35,35.00 594.18,35.00 595.00,35.00 595.82,35.00 596.64,35.00 597.47,35.00 598.30,35.00 599.12,35.00 599.93,35.00 600.75,35.00 601.57,35.00 602.41,35.00 603.23,35.00 604.06,35.00 604.88,35.00 605.69,35.00 606.51,35.00 607.33,35.00 608.15,35.00 608.97,35.00 609.79,35.00 610.61,35.00 611.43,35.00 612.25,35.00 613.07,35.00 613.89,35.00 614.71,35.00 615.54,35.00 616.36,35.00 617.18,35.00 618.00,35.00 618.82,35.00 619.63,35.00 620.45,35.00 621.27,35.00 622.09,35.00 622.91,35.00 623.73,35.00 624.56,35.00 625.37,35.00 626.20,35.00 627.03,35.00 627.84,35.00 628.67,35.00 629.50,35.00 630.31,35.00 631.13,35.00 631.96,35.00 632.79,35.00 633.61,35.00 634.43,35.00 635.27,35.00 636.09,35.00 636.92,35.00 637.74,35.00 638.55,35.00 639.38,35.00 640.20,35.00 641.03,35.00 641.85,35.00 642.67,35.00 643.49,35.00 644.30,35.00 645.15,35.00 645.96,35.00 646.79,35.00 647.61,35.00 648.42,35.00 649.24,35.00 650.05,35.00 650.87,35.00 651.69,35.00 652.51,35.00 653.33,35.00 654.15,35.00 654.97,35.00 655.79,35.00 656.64,35.00 657.46,35.00 658.27,35.00 659.10,35.00 659.91,35.00 660.73,35.00 661.55,35.00 662.38,35.00 663.19,35.00 664.01,35.00 664.84,35.00 665.66,35.00 666.48,35.00 667.30,35.00 668.13,35.00 668.97,35.00 669.80,35.00 670.62,35.00 671.45,35.00 672.27,35.00 673.10,35.00 673.91,35.00 674.73,35.00 675.54,35.00 676.37,35.00 677.19,35.00 678.02,35.00 678.84,35.00 679.67,35.00 680.52,35.00 681.34,35.00 682.16,35.00 682.98,35.00 683.80,35.00 684.63,35.00 685.45,35.00 686.29,35.00 687.11,35.00 687.94,35.00 688.76,35.00 689.58,35.00 690.41,35.00 691.23,35.00 692.05,35.00 692.87,35.00 693.69,35.00 694.52,35.00 695.34,35.00 696.16,35.00 696.98,35.00 697.81,35.00 698.63,35.00 699.45,35.00 700.28,35.00 701.10,35.00 701.95,35.00 702.78,35.00 703.61,35.00 704.43,35.00 705.27,35.00 706.11,35.00 706.94,35.00 707.78,35.00 708.62,35.00 709.45,35.00 710.27,35.00 711.09,35.00 711.92,35.00 712.74,35.00 713.57,35.00 714.41,35.00 715.23,35.00 716.05,35.00 716.87,35.00 717.69,35.00 718.51,35.00 719.33,35.00 720.15,35.00 720.97,35.00 721.79,35.00 722.61,35.00 723.43,35.00 724.24,35.00 725.06,35.00 725.88,35.00 726.71,35.00 727.52,35.00 728.35,35.00 729.18,35.00 730.00,35.00 730.82,35.00 731.65,35.00 732.47,35.00 733.28,35.00 734.10,35.00 734.93,35.00 735.75,35.00 736.56,35.00 737.37,35.00 738.19,35.00 739.01,35.00 739.84,35.00 740.66,35.00 741.48,35.00 742.30,35.00 743.12,35.00 743.93,35.00 744.76,35.00 745.58,35.00 746.38,35.00 747.20,35.00 748.00,35.00 748.83,35.00 749.65,35.00 750.49,35.00 751.30,35.00 752.12,35.00 752.94,35.00 753.78,35.00 754.61,35.00 755.42,35.00 756.25,35.00 757.07,35.00 757.89,35.00 758.72,35.00 759.54,35.00 760.37,35.00 761.20,35.00 762.02,35.00 762.83,35.00 763.65,35.00 764.47,35.00 765.29,35.00 766.11,35.00 766.92,35.00 767.74,35.00 768.56,35.00 769.39,35.00 770.20,35.00 771.02,35.00 771.84,35.00 772.66,35.00 773.49,35.00 774.31,35.00 775.13,35.00 775.95,35.00 776.77,35.00 777.60,35.00 778.41,35.00 779.23,35.00 780.06,35.00 780.88,35.00 781.69,35.00 782.52,35.00 783.35,35.00 784.16,35.00 784.98,35.00 785.80,35.00 786.65,35.00 787.47,35.00 788.30,35.00 789.14,35.00 789.96,35.00 790.78,35.00 791.60,35.00 792.43,35.00 793.25,35.00 794.07,35.00 794.90,35.00 795.73,35.00 796.56,35.00 797.38,35.00 798.20,35.00 799.02,35.00 799.85,35.00 800.67,35.00 801.48,35.00 802.30,35.00 803.12,35.00 803.94,35.00 804.76,35.00 805.58,35.00 806.41,35.00 807.22,35.00 808.04,35.00 808.86,35.00 809.68,35.00 810.49,35.00 811.33,35.00 812.15,35.00 812.96,35.00 813.78,35.00 814.61,35.00 815.42,35.00 816.25,35.00 817.06,35.00 817.90,35.00 818.72,35.00 819.53,35.00 820.35,35.00 821.17,35.00 821.99,35.00 822.81,35.00 823.64,35.00 824.48,35.00 825.32,35.00 826.16,35.00 826.99,35.00 827.83,35.00 828.67,35.00 829.51,35.00 830.36,35.00 831.19,35.00 832.04,35.00 832.86,35.00 833.67,35.00 834.50,35.00 835.33,35.00 836.15,35.00 836.98,35.00 837.80,35.00 838.63,35.00 839.45,35.00 840.27,35.00 841.08,35.00 841.90,35.00 842.72,35.00 843.54,35.00 844.36,35.00 845.18,35.00 846.01,35.00 846.82,35.00 847.66,35.00 848.49,35.00 849.31,35.00 850.12,35.00 850.94,35.00 851.77,35.00 852.59,35.00 853.41,35.00 854.23,35.00 855.05,35.00 855.88,35.00 856.69,35.00 857.51,35.00 858.34,35.00 859.16,35.00 859.98,35.00 860.86,35.00 861.71,35.00 862.52,35.00 863.35,35.00 864.16,35.00 865.00,35.00 865.83,35.00 866.65,35.00 867.48,35.00 868.29,35.00 869.09,35.00 869.92,35.00 870.73,35.00 871.56,35.00 872.38,35.00 873.20,35.00 874.03,35.00 874.85,35.00 875.68,35.00 876.49,35.00 877.31,35.00 878.13,35.00 878.96,35.00 879.78,35.00 880.60,35.00 881.42,35.00 882.25,35.00 883.07,35.00 883.89,35.00 884.75,35.00 885.57,35.00 886.39,35.00 887.21,35.00 888.03,35.00 888.85,35.00 889.68,35.00 890.51,35.00 891.32,35.00 892.15,35.00 892.97,35.00 893.80,35.00 894.63,35.00 895.46,35.00 896.28,35.00 897.10,35.00 897.92,35.00 898.74,35.00 899.56,35.00 900.38,35.00 901.21,35.00 902.03,35.00 902.85,35.00 903.67,35.00 904.49,35.00 905.32,35.00 906.14,35.00 906.95,35.00 907.77,35.00 908.60,35.00 909.42,35.00 910.24,35.00 911.06,35.00 911.88,35.00 912.70,35.00 913.53,35.00 914.35,35.00 915.17,35.00 915.98,35.00 916.80,35.00 917.62,35.00 918.45,35.00 919.26,35.00 920.11,35.00 920.93,35.00 921.75,35.00 922.58,35.00 923.40,35.00 924.23,35.00 925.12,35.00 925.95,35.00 926.78,35.00 927.61,35.00 928.44,35.00 929.26,35.00 930.08,35.00 930.90,35.00 931.73,35.00 932.55,35.00 933.37,35.00 934.19,35.00 935.02,35.00 935.86,35.00 936.68,35.00 937.51,35.00 938.33,35.00 939.15,35.00 939.97,35.00 940.80,35.00 941.62,35.00 942.44,35.00 943.27,35.00 944.09,35.00 944.91,35.00 945.74,35.00 946.56,35.00 947.39,35.00 948.22,35.00 949.04,35.00 949.87,35.00 950.68,35.00 951.51,35.00 952.34,35.00 953.15,35.00 953.97,35.00 954.80,35.00 955.61,35.00 956.44,35.00 957.27,35.00 958.08,35.00 958.90,35.00 959.73,35.00 960.55,35.00 961.37,35.00 962.20,35.00 963.02,35.00 963.85,35.00 964.68,35.00 965.48,35.00 966.28,35.00 967.10,35.00 967.92,35.00 968.75,35.00 969.57,35.00 970.40,35.00 971.22,35.00 972.05,35.00 972.89,35.00 973.70,35.00 974.53,35.00 975.34,35.00 976.16,35.00 976.97,35.00 977.79,35.00 978.61,35.00 979.44,35.00 980.25,35.00 981.07,35.00 981.89,35.00 982.71,35.00 983.53,35.00 984.36,35.00 985.17,35.00 985.99,35.00 986.78,35.00 987.62,35.00 988.44,35.00 989.26,35.00 990.09,35.00 990.92,35.00 991.74,35.00 992.56,35.00 993.38,35.00 994.21,35.00 995.03,35.00 995.85,35.00 996.73,35.00 997.55,35.00 998.38,35.00 999.21,35.00 1000.04,35.00 1000.85,35.00 1001.67,35.00 1002.50,35.00 1003.32,35.00 1004.14,35.00 1004.95,35.00 1005.77,35.00 1006.60,35.00 1007.43,35.00 1008.25,35.00 1009.07,35.00 1009.89,35.00 1010.72,35.00 1011.54,35.00 1012.37,35.00 1013.19,35.00 1014.02,35.00 1014.86,35.00 1015.69,35.00 1016.51,35.00 1017.33,35.00 1018.16,35.00 1018.99,35.00 1019.81,35.00 1020.63,35.00 1021.45,35.00 1022.27,35.00 1023.09,35.00 1023.92,35.00 1024.74,35.00 1025.56,35.00 1026.39,35.00 1027.21,35.00 1028.02,35.00 1028.84,35.00 1029.66,35.00 1030.49,35.00 1031.30,35.00 1032.12,35.00 1032.95,35.00 1033.76,35.00 1034.57,35.00 1035.39,35.00 1036.21,35.00 1037.03,35.00 1037.84,35.00 1038.66,35.00 1039.48,35.00 1040.29,35.00 1041.12,35.00 1041.93,35.00 1042.76,35.00 1043.58,35.00 1044.39,35.00 1045.20,35.00 1046.02,35.00 1046.86,35.00 1047.67,35.00 1048.49,35.00 1049.32,35.00 1050.17,35.00 1050.99,35.00 1051.81,35.00 1052.64,35.00 1053.46,35.00 1054.29,35.00 1055.11,35.00 1055.94,35.00 1056.76,35.00 1057.58,35.00 1058.39,35.00 1059.21,35.00 1060.03,35.00 1060.85,35.00 1061.68,35.00 1062.49,35.00 1063.31,35.00 1064.13,35.00 1064.94,35.00 1065.77,35.00 1066.60,35.00 1067.46,35.00 1068.28,35.00 1069.09,35.00 1069.90,35.00 1070.71,35.00 1071.55,35.00 1072.37,35.00 1073.19,35.00 1074.01,35.00 1074.83,35.00 1075.66,35.00 1076.48,35.00 1077.30,35.00 1078.13,35.00 1078.94,35.00 1079.77,35.00 1080.59,35.00 1081.41,35.00 1082.23,35.00 1083.04,35.00 1083.86,35.00 1084.68,35.00 1085.50,35.00 1086.32,35.00 1087.14,35.00 1087.96,35.00 1088.78,35.00 1089.60,35.00 1090.42,35.00 1091.24,35.00 1092.06,35.00 1092.88,35.00 1093.70,35.00 1094.53,35.00 1095.34,35.00 1096.17,35.00 1096.99,35.00 1097.80,35.00 1098.62,35.00 1099.44,35.00 1100.26,35.00 1101.08,35.00 1101.92,35.00 1102.74,35.00 1103.56,35.00 1104.38,35.00 1105.21,35.00 1106.03,35.00 1106.87,35.00 1107.69,35.00 1108.56,35.00 1109.39,35.00 1110.27,35.00 1111.09,35.00 1111.90,35.00 1112.72,35.00 1113.54,35.00 1114.36,35.00 1115.18,35.00 1116.00,35.00 1116.82,35.00 1117.64,35.00 1118.47,35.00 1119.28,35.00 1120.10,35.00 1120.92,35.00 1121.74,35.00 1122.56,35.00 1123.37,35.00 1124.19,35.00 1125.02,35.00 1125.84,35.00 1126.67,35.00 1127.48,35.00 1128.29,35.00 1129.12,35.00 1129.93,35.00 1130.77,35.00 1131.59,35.00 1132.40,35.00 1133.23,35.00 1134.05,35.00 1134.86,35.00 1135.68,35.00 1136.51,35.00 1137.32,35.00 1138.14,35.00 1138.95,35.00 1139.76,35.00 1140.58,35.00 1141.40,35.00 1142.22,35.00 1143.04,35.00 1143.87,35.00 1144.72,35.00 1145.54,35.00 1146.36,35.00 1147.18,35.00 1147.99,35.00 1148.80,35.00 1149.62,35.00 1150.44,35.00 1151.26,35.00 1152.08,35.00 1152.89,35.00 1153.71,35.00 1154.52,35.00 1155.34,35.00 1156.16,35.00 1156.97,35.00 1157.79,35.00 1158.62,35.00 1159.43,35.00 1160.25,35.00 1161.08,35.00 1161.90,35.00 1162.72,35.00 1163.54,35.00 1164.36,35.00 1165.18,35.00 1166.01,35.00 1166.83,35.00 1167.66,35.00 1168.48,35.00 1169.29,35.00 1170.11,35.00 1170.94,35.00 1171.75,35.00 1172.60,35.00 1173.42,35.00 1174.25,35.00 1175.07,35.00 1175.89,35.00 1176.71,35.00 1177.53,35.00 1178.35,35.00 1179.18,35.00 1180.00,35.00"/>
<rect x="70" y="332" width="12" height="12" fill="#1f77b4" fill-opacity="0.95"/>
<text x="88" y="342" font-size="11" fill="#333" font-family="Arial, Helvetica, sans-serif">nsc1.utdallas.edu</text>
<rect x="350" y="332" width="12" height="12" fill="#1f77b4" fill-opacity="0.80"/>
<text x="368" y="342" font-size="11" fill="#333" font-family="Arial, Helvetica, sans-serif">nsc2.utdallas.edu</text>
<rect x="630" y="332" width="12" height="12" fill="#1f77b4" fill-opacity="0.65"/>
<text x="648" y="342" font-size="11" fill="#333" font-family="Arial, Helvetica, sans-serif">nsc3.utdallas.edu</text>
<rect x="910" y="332" width="12" height="12" fill="#1f77b4" fill-opacity="0.50"/>
<text x="928" y="342" font-size="11" fill="#333" font-family="Arial, Helvetica, sans-serif">nsc4.utdallas.edu</text>
</svg>