<?xml version="1.0" encoding="UTF-8"?>
<svg xmlns="http://www.w3.org/2000/svg" width="1200" height="360" viewBox="0 0 1200 360" role="img" aria-label="Ping Uptime (%)">
<rect width="100%" height="100%" fill="#ffffff"/>
<text x="600.0" y="22" text-anchor="middle" font-size="16" font-family="Arial, Helvetica, sans-serif" font-weight="bold">Ping Uptime (%)</text>
<line x1="70" y1="35.00" x2="1180" y2="35.00" stroke="#e3e3e3" stroke-width="1"/>
<text x="62" y="39.00" text-anchor="end" font-size="11" fill="#444" font-family="Arial, Helvetica, sans-serif">100</text>
<line x1="70" y1="89.00" x2="1180" y2="89.00" stroke="#e3e3e3" stroke-width="1"/>
<text x="62" y="93.00" text-anchor="end" font-size="11" fill="#444" font-family="Arial, Helvetica, sans-serif">80</text>
<line x1="70" y1="143.00" x2="1180" y2="143.00" stroke="#e3e3e3" stroke-width="1"/>
<text x="62" y="147.00" text-anchor="end" font-size="11" fill="#444" font-family="Arial, Helvetica, sans-serif">60</text>
<line x1="70" y1="197.00" x2="1180" y2="197.00" stroke="#e3e3e3" stroke-width="1"/>
<text x="62" y="201.00" text-anchor="end" font-size="11" fill="#444" font-family="Arial, Helvetica, sans-serif">40</text>
<line x1="70" y1="251.00" x2="1180" y2="251.00" stroke="#e3e3e3" stroke-width="1"/>
<text x="62" y="255.00" text-anchor="end" font-size="11" fill="#444" font-family="Arial, Helvetica, sans-serif">20</text>
<line x1="70" y1="305.00" x2="1180" y2="305.00" stroke="#e3e3e3" stroke-width="1"/>
<text x="62" y="309.00" text-anchor="end" font-size="11" fill="#444" font-family="Arial, Helvetica, sans-serif">0</text>
<line x1="70" y1="35" x2="70" y2="305" stroke="#999"/>
<line x1="70" y1="305" x2="1180" y2="305" stroke="#999"/>
<text x="70.00" y="323" text-anchor="middle" font-size="10" fill="#444" font-family="Arial, Helvetica, sans-serif">2026-02-11 16:38</text>
<text x="347.50" y="323" text-anchor="middle" font-size="10" fill="#444" font-family="Arial, Helvetica, sans-serif">2026-02-12 02:07</text>
<text x="625.00" y="323" text-anchor="middle" font-size="10" fill="#444" font-family="Arial, Helvetica, sans-serif">2026-02-12 11:36</text>
<text x="902.50" y="323" text-anchor="middle" font-size="10" fill="#444" font-family="Arial, Helvetica, sans-serif">2026-02-12 21:05</text>
<text x="1180.00" y="323" text-anchor="middle" font-size="10" fill="#444" font-family="Arial, Helvetica, sans-serif">2026-02-13 06:35</text>
<polyline fill="none" stroke="#1f77b4" stroke-opacity="0.95" stroke-width="2" points="72.62,35.00 75.26,35.00 77.87,35.00 80.50,35.00 83.15,35.00 85.75,35.00 88.39,35.00 91.23,35.00 93.84,35.00 96.45,35.00 99.05,35.00 101.72,35.00 104.33,35.00 106.93,35.00 111.65,35.00 115.72,35.00 118.37,35.00 121.06,35.00 123.68,35.00 126.29,35.00 128.86,35.00 131.51,35.00 134.13,35.00 136.77,35.00 139.41,35.00 142.08,35.00 144.71,35.00 147.35,35.00 150.10,35.00 152.75,35.00 155.36,35.00 158.05,35.00 160.68,35.00 163.30,35.00 166.01,35.00 168.61,35.00 171.23,35.00 173.90,35.00 176.50,35.00 179.12,35.00 181.71,35.00 184.33,35.00 186.96,35.00 189.57,35.00 192.25,35.00 194.90,35.00 197.49,35.00 200.11,35.00 202.75,35.00 205.38,35.00 208.38,35.00 211.00,35.00 213.62,35.00 216.22,35.00 218.82,35.00 221.42,35.00 224.03,35.00 226.66,35.00 229.28,35.00 231.95,35.00 234.57,35.00 237.16,35.00 239.80,35.00 242.46,35.00 245.07,35.00 247.71,35.00 250.30,35.00 252.90,35.00 255.51,35.00 258.11,35.00 260.72,35.00 263.35,35.00 265.95,35.00 268.57,35.00 271.20,35.00 273.79,35.00 276.44,35.00 279.03,35.00 281.64,35.00 284.33,35.00 286.95,35.00 289.56,35.00 292.20,35.00 294.81,35.00 297.45,35.00 300.06,35.00 302.65,35.00 305.25,35.00 307.89,35.00 310.53,35.00 313.15,35.00 315.80,35.00 318.38,35.00 321.01,35.00 323.62,35.00 326.24,35.00 328.84,35.00 331.46,35.00 334.06,35.00 336.70,35.00 339.33,35.00 341.95,35.00 344.58,35.00 347.23,35.00 349.87,35.00 352.49,35.00 355.10,35.00 357.71,35.00 360.32,35.00 362.97,35.00 365.59,35.00 368.21,35.00 370.83,35.00 373.46,35.00 376.09,35.00 378.73,35.00 381.40,35.00 384.00,35.00 386.63,35.00 389.25,35.00 391.87,35.00 394.48,35.00 397.12,35.00 399.97,35.00 402.58,35.00 405.23,35.00 407.85,35.00 410.45,35.00 413.05,35.00 415.62,35.00 418.24,35.00 420.86,35.00 423.48,35.00 426.09,35.00 428.70,35.00 431.32,35.00 433.92,35.00 436.59,35.00 439.20,35.00 441.82,35.00 444.43,35.00 447.05,35.00 449.66,35.00 452.29,35.00 454.92,35.00 457.55,35.00 460.17,35.00 462.79,35.00 465.39,35.00 467.99,35.00 470.61,35.00 473.23,35.00 475.86,35.00 478.51,35.00 481.13,35.00 483.75,35.00 486.40,35.00 489.02,35.00 491.62,35.00 494.25,35.00 496.88,35.00 499.54,35.00 502.20,35.00 504.81,35.00 507.44,35.00 510.04,35.00 512.64,35.00 515.25,35.00 517.88,35.00 520.49,35.00 523.08,35.00 525.69,35.00 528.33,35.00 530.96,35.00 533.59,35.00 536.21,35.00 538.89,35.00 541.50,35.00 544.12,35.00 546.73,35.00 549.33,35.00 552.18,35.00 554.86,35.00 557.46,35.00 560.07,35.00 562.65,35.00 565.29,35.00 567.90,35.00 570.53,35.00 573.17,35.00 575.77,35.00 578.38,35.00 581.01,35.00 583.69,35.00 586.30,35.00 588.90,35.00 591.52,35.00 594.17,35.00 596.84,35.00 599.52,35.00 602.12,35.00 604.75,35.00 607.37,35.00 609.98,35.00 612.61,35.00 615.23,35.00 617.89,35.00 620.50,35.00 623.10,35.00 625.75,35.00 628.37,35.00 630.99,35.00 633.61,35.00 636.27,35.00 638.89,35.00 641.50,35.00 644.09,35.00 646.70,35.00 649.33,35.00 651.95,35.00 654.56,35.00 657.17,35.00 659.76,35.00 662.38,35.00 665.02,35.00 667.65,35.00 670.28,35.00 672.93,35.00 675.56,35.00 678.20,35.00 680.81,35.00 683.44,35.00 686.06,35.00 688.68,35.00 691.30,35.00 693.99,35.00 696.61,35.00 699.24,35.00 701.87,35.00 704.47,35.00 707.11,35.00 709.70,35.00 712.31,35.00 714.95,35.00 717.58,35.00 720.20,35.00 722.83,35.00 725.47,35.00 728.08,35.00 730.71,35.00 733.35,35.00 736.00,35.00 738.60,35.00 741.22,35.00 743.86,35.00 746.51,35.00 749.14,35.00 751.76,35.00 754.37,35.00 757.28,35.00 759.92,35.00 762.55,35.00 765.17,35.00 767.82,35.00 770.45,35.00 773.08,35.00 775.71,35.00 778.31,35.00 781.01,35.00 783.67,35.00 786.27,35.00 788.89,35.00 791.51,35.00 794.14,35.00 796.76,35.00 799.48,35.00 802.11,35.00 804.72,35.00 807.38,35.00 810.21,35.00 812.83,35.00 816.13,35.00 820.56,35.00 823.25,35.00 825.93,35.00 828.54,35.00 831.11,35.00 833.72,35.00 836.38,35.00 839.02,35.00 841.66,35.00 844.39,35.00 847.10,35.00 849.88,35.00 852.51,35.00 855.13,35.00 857.76,35.00 860.42,35.00 863.07,35.00 865.72,35.00 868.33,35.00 870.94,35.00 873.67,35.00 876.31,35.00 878.91,35.00 881.54,35.00 884.20,35.00 886.93,35.00 889.57,35.00 892.19,35.00 894.89,35.00 897.40,35.00 900.01,35.00 902.68,35.00 905.29,35.00 907.95,35.00 910.66,35.00 913.29,35.00 915.91,35.00 918.56,35.00 921.21,35.00 923.83,35.00 926.45,35.00 929.05,35.00 931.69,35.00 934.32,35.00 936.92,35.00 940.05,35.00 943.14,35.00 946.24,35.00 949.29,35.00 952.29,35.00 955.31,35.00 958.41,35.00 961.47,35.00 964.10,35.00 966.69,35.00 969.31,35.00 971.92,35.00 974.55,35.00 977.15,35.00 979.76,35.00 982.36,35.00 984.99,35.00 987.60,35.00 990.22,35.00 992.83,35.00 995.44,35.00 998.04,35.00 1000.66,35.00 1003.27,35.00 1005.89,35.00 1008.48,35.00 1011.12,35.00 1013.76,35.00 1016.35,35.00 1018.95,35.00 1021.56,35.00 1024.17,35.00 1026.80,35.00 1029.42,35.00 1032.03,35.00 1034.65,35.00 1037.28,35.00 1039.89,35.00 1042.50,35.00 1045.12,35.00 1047.72,35.00 1050.33,35.00 1052.92,35.00 1055.50,35.00 1058.12,35.00 1060.72,35.00 1063.32,35.00 1065.93,35.00 1068.54,35.00 1071.16,35.00 1073.75,35.00 1076.34,35.00 1078.92,35.00 1081.62,35.00 1084.44,35.00 1087.07,35.00 1089.70,35.00 1092.30,35.00 1094.91,35.00 1097.50,35.00 1100.10,35.00 1102.71,35.00 1105.81,35.00 1108.88,35.00 1111.92,35.00 1115.00,35.00 1118.08,35.00 1121.14,35.00 1124.27,35.00 1127.44,35.00 1130.30,35.00 1133.11,35.00 1135.74,35.00 1138.39,35.00 1141.01,35.00 1143.60,35.00 1146.21,35.00 1148.83,35.00 1151.44,35.00 1154.06,35.00 1156.66,35.00 1159.28,35.00 1161.91,35.00 1164.51,35.00 1167.17,35.00 1169.78,35.00 1172.39,35.00 1174.68,35.00 1177.38,35.00 1180.00,35.00"/>
<polyline fill="none" stroke="#1f77b4" stroke-opacity="0.80" stroke-width="2" points="70.00,35.00 72.62,35.00 75.26,35.00 77.87,35.00 80.50,35.00 83.15,35.00 85.75,35.00 88.39,35.00 91.23,35.00 93.84,35.00 96.45,35.00 99.05,35.00 101.72,35.00 104.33,35.00 106.93,35.00 111.65,35.00 115.72,35.00 118.37,35.00 121.06,35.00 123.68,35.00 126.29,35.00 128.86,35.00 131.51,35.00 134.13,35.00 136.77,35.00 139.41,35.00 142.08,35.00 144.71,35.00 147.35,35.00 150.10,35.00 152.75,35.00 155.36,35.00 158.05,35.00 160.68,35.00 163.30,35.00 166.01,35.00 168.61,35.00 171.23,35.00 173.90,35.00 176.50,35.00 179.12,35.00 181.71,35.00 184.33,35.00 186.96,35.00 189.57,35.00 192.25,35.00 194.90,35.00 197.49,35.00 200.11,35.00 202.75,35.00 205.38,35.00 208.38,35.00 211.00,35.00 213.62,35.00 216.22,35.00 218.82,35.00 221.42,35.00 224.03,35.00 226.66,35.00 229.28,35.00 231.95,35.00 234.57,35.00 237.16,35.00 239.80,35.00 242.46,35.00 245.07,35.00 247.71,35.00 250.30,35.00 252.90,35.00 255.51,35.00 258.11,35.00 260.72,35.00 263.35,35.00 265.95,35.00 268.57,35.00 271.20,35.00 273.79,35.00 276.44,35.00 279.03,35.00 281.64,35.00 284.33,35.00 286.95,35.00 289.56,35.00 292.20,35.00 294.81,35.00 297.45,35.00 300.06,35.00 302.65,35.00 305.25,35.00 307.89,35.00 310.53,35.00 313.15,35.00 315.80,35.00 318.38,35.00 321.01,35.00 323.62,35.00 326.24,35.00 328.84,35.00 331.46,35.00 334.06,35.00 336.70,35.00 339.33,35.00 341.95,35.00 344.58,35.00 347.23,35.00 349.87,35.00 352.49,35.00 355.10,35.00 357.71,35.00 360.32,35.00 362.97,35.00 365.59,35.00 368.21,35.00 370.83,35.00 373.46,35.00 376.09,35.00 378.73,35.00 381.40,35.00 384.00,35.00 386.63,35.00 389.25,35.00 391.87,35.00 394.48,35.00 397.12,35.00 399.97,35.00 402.58,35.00 405.23,35.00 407.85,35.00 410.45,35.00 413.05,35.00 415.62,35.00 418.24,35.00 420.86,35.00 423.48,35.00 426.09,35.00 428.70,35.00 431.32,35.00 433.92,35.00 436.59,35.00 439.20,35.00 441.82,35.00 444.43,35.00 447.05,35.00 449.66,35.00 452.29,35.00 454.92,35.00 457.55,35.00 460.17,35.00 462.79,35.00 465.39,35.00 467.99,35.00 470.61,35.00 473.23,35.00 475.86,35.00 478.51,35.00 481.13,35.00 483.75,35.00 486.40,35.00 489.02,35.00 491.62,35.00 494.25,35.00 496.88,35.00 499.54,35.00 502.20,35.00 504.81,35.00 507.44,35.00 510.04,35.00 512.64,35.00 515.25,35.00 517.88,35.00 520.49,35.00 523.08,35.00 525.69,35.00 528.33,35.00 530.96,35.00 533.59,35.00 536.21,35.00 538.89,35.00 541.50,35.00 544.12,35.00 546.73,35.00 549.33,35.00 552.18,35.00 554.86,35.00 557.46,35.00 560.07,35.00 562.65,35.00 565.29,35.00 567.90,35.00 570.53,35.00 573.17,35.00 575.77,35.00 578.38,35.00 581.01,35.00 583.69,35.00 586.30,35.00 588.90,35.00 591.52,35.00 594.17,35.00 596.84,35.00 599.52,35.00 602.12,35.00 604.75,35.00 607.37,35.00 609.98,35.00 612.61,35.00 615.23,35.00 617.89,35.00 620.50,35.00 623.10,35.00 625.75,35.00 628.37,35.00 630.99,35.00 633.61,35.00 636.27,35.00 638.89,35.00 641.50,35.00 644.09,35.00 646.70,35.00 649.33,35.00 651.95,35.00 654.56,35.00 657.17,35.00 659.76,35.00 662.38,35.00 665.02,35.00 667.65,35.00 670.28,35.00 672.93,35.00 675.56,35.00 678.20,35.00 680.81,35.00 683.44,35.00 686.06,35.00 688.68,35.00 691.30,35.00 693.99,35.00 696.61,35.00 699.24,35.00 701.87,35.00 704.47,35.00 707.11,35.00 709.70,35.00 712.31,35.00 714.95,35.00 717.58,35.00 720.20,35.00 722.83,35.00 725.47,35.00 728.08,35.00 730.71,35.00 733.35,35.00 736.00,35.00 738.60,35.00 741.22,35.00 743.86,35.00 746.51,35.00 749.14,35.00 751.76,35.00 754.37,35.00 757.28,35.00 759.92,35.00 762.55,35.00 765.17,35.00 767.82,35.00 770.45,35.00 773.08,35.00 775.71,35.00 778.31,35.00 781.01,35.00 783.67,35.00 786.27,35.00 788.89,35.00 791.51,35.00 794.14,35.00 796.76,35.00 799.48,35.00 802.11,35.00 804.72,35.00 807.38,35.00 810.21,35.00 812.83,35.00 816.13,35.00 820.56,35.00 823.25,35.00 825.93,35.00 828.54,35.00 831.11,35.00 833.72,35.00 836.38,35.00 839.02,35.00 841.66,35.00 844.39,35.00 847.10,35.00 849.88,35.00 852.51,35.00 855.13,35.00 857.76,35.00 860.42,35.00 863.07,35.00 865.72,35.00 868.33,35.00 870.94,35.00 873.67,35.00 876.31,35.00 878.91,35.00 881.54,35.00 884.20,35.00 886.93,35.00 889.57,35.00 892.19,35.00 894.89,35.00 897.40,35.00 900.01,35.00 902.68,35.00 905.29,35.00 907.95,35.00 910.66,35.00 913.29,35.00 915.91,35.00 918.56,35.00 921.21,35.00 923.83,35.00 926.45,35.00 929.05,35.00 931.69,35.00 934.32,35.00 936.92,35.00 940.05,35.00 943.14,35.00 946.24,35.00 949.29,35.00 952.29,35.00 955.31,35.00 958.41,35.00 961.47,35.00 964.10,35.00 966.69,35.00 969.31,35.00 971.92,35.00 974.55,35.00 977.15,35.00 979.76,35.00 982.36,35.00 984.99,35.00 987.60,35.00 990.22,35.00 992.83,35.00 995.44,35.00 998.04,35.00 1000.66,35.00 1003.27,35.00 1005.89,35.00 1008.48,35.00 1011.12,35.00 1013.76,35.00 1016.35,35.00 1018.95,35.00 1021.56,35.00 1024.17,35.00 1026.80,35.00 1029.42,35.00 1032.03,35.00 1034.65,35.00 1037.28,35.00 1039.89,35.00 1042.50,35.00 1045.12,35.00 1047.72,35.00 1050.33,35.00 1052.92,35.00 1055.50,35.00 1058.12,35.00 1060.72,35.00 1063.32,35.00 1065.93,35.00 1068.54,35.00 1071.16,35.00 1073.75,35.00 1076.34,35.00 1078.92,35.00 1081.62,35.00 1084.44,35.00 1087.07,35.00 1089.70,35.00 1092.30,35.00 1094.91,35.00 1097.50,35.00 1100.10,35.00 1102.71,35.00 1105.81,35.00 1108.88,35.00 1111.92,35.00 1115.00,35.00 1118.08,35.00 1121.14,35.00 1124.27,35.00 1127.44,35.00 1130.30,35.00 1133.11,35.00 1135.74,35.00 1138.39,35.00 1141.01,35.00 1143.60,35.00 1146.21,35.00 1148.83,35.00 1151.44,35.00 1154.06,35.00 1156.66,35.00 1159.28,35.00 1161.91,35.00 1164.51,35.00 1167.17,35.00 1169.78,35.00 1172.39,35.00 1174.68,35.00 1177.38,35.00 1180.00,35.00"/>
<polyline fill="none" stroke="#1f77b4" stroke-opacity="0.65" stroke-width="2" points="70.00,35.00 72.62,35.00 75.26,35.00 77.87,35.00 80.50,35.00 83.15,35.00 85.75,35.00 88.39,35.00 91.23,35.00 93.84,35.00 96.45,35.00 99.05,35.00 101.72,35.00 104.33,35.00 106.93,35.00 111.65,35.00 115.72,35.00 118.37,35.00 121.06,35.00 123.68,35.00 126.29,35.00 128.86,35.00 131.51,35.00 134.13,35.00 136.77,35.00 139.41,35.00 142.08,35.00 144.71,35.00 147.35,35.00 150.10,35.00 152.75,35.00 155.36,35.00 158.05,35.00 160.68,35.00 163.30,35.00 166.01,35.00 168.61,35.00 171.23,35.00 173.90,35.00 176.50,35.00 179.12,35.00 181.71,35.00 184.33,35.00 186.96,35.00 189.57,35.00 192.25,35.00 194.90,35.00 197.49,35.00 200.11,35.00 202.75,35.00 205.38,35.00 208.38,35.00 211.00,35.00 213.62,35.00 216.22,35.00 218.82,35.00 221.42,35.00 224.03,35.00 226.66,35.00 229.28,35.00 231.95,35.00 234.57,35.00 237.16,35.00 239.80,35.00 242.46,35.00 245.07,35.00 247.71,35.00 250.30,35.00 252.90,35.00 255.51,35.00 258.11,35.00 260.72,35.00 263.35,35.00 265.95,35.00 268.57,35.00 271.20,35.00 273.79,35.00 276.44,35.00 279.03,35.00 281.64,35.00 284.33,35.00 286.95,35.00 289.56,35.00 292.20,35.00 294.81,35.00 297.45,35.00 300.06,35.00 302.65,35.00 305.25,35.00 307.89,35.00 310.53,35.00 313.15,35.00 315.80,35.00 318.38,35.00 321.01,35.00 323.62,35.00 326.24,35.00 328.84,35.00 331.46,35.00 334.06,35.00 336.70,35.00 339.33,35.00 341.95,35.00 344.58,35.00 347.23,35.00 349.87,35.00 352.49,35.00 355.10,35.00 357.71,35.00 360.32,35.00 362.97,35.00 365.59,35.00 368.21,35.00 370.83,35.00 373.46,35.00 376.09,35.00 378.73,35.00 381.40,35.00 384.00,35.00 386.63,35.00 389.25,35.00 391.87,35.00 394.48,35.00 397.12,35.00 399.97,35.00 402.58,35.00 405.23,35.00 407.85,35.00 410.45,35.00 413.05,35.00 415.62,35.00 418.24,35.00 420.86,35.00 423.48,35.00 426.09,35.00 428.70,35.00 431.32,35.00 433.92,35.00 436.59,35.00 439.20,35.00 441.82,35.00 444.43,35.00 447.05,35.00 449.66,35.00 452.29,35.00 454.92,35.00 457.55,35.00 460.17,35.00 462.79,35.00 465.39,35.00 467.99,35.00 470.61,35.00 473.23,35.00 475.86,35.00 478.51,35.00 481.13,35.00 483.75,35.00 486.40,35.00 489.02,35.00 491.62,35.00 494.25,35.00 496.88,35.00 499.54,35.00 502.20,35.00 504.81,35.00 507.44,35.00 510.04,35.00 512.64,35.00 515.25,35.00 517.88,35.00 520.49,35.00 523.08,35.00 525.69,35.00 528.33,35.00 530.96,35.00 533.59,35.00 536.21,35.00 538.89,35.00 541.50,35.00 544.12,35.00 546.73,35.00 549.33,35.00 552.18,35.00 554.86,35.00 557.46,35.00 560.07,35.00 562.65,35.00 565.29,35.00 567.90,35.00 570.53,35.00 573.17,35.00 575.77,35.00 578.38,35.00 581.01,35.00 583.69,35.00 586.30,35.00 588.90,35.00 591.52,35.00 594.17,35.00 596.84,35.00 599.52,35.00 602.12,35.00 604.75,35.00 607.37,35.00 609.98,35.00 612.61,35.00 615.23,35.00 617.89,35.00 620.50,35.00 623.10,35.00 625.75,35.00 628.37,35.00 630.99,35.00 633.61,35.00 636.27,35.00 638.89,35.00 641.50,35.00 644.09,35.00 646.70,35.00 649.33,35.00 651.95,35.00 654.56,35.00 657.17,35.00 659.76,35.00 662.38,35.00 665.02,35.00 667.65,35.00 670.28,35.00 672.93,35.00 675.56,35.00 678.20,35.00 680.81,35.00 683.44,35.00 686.06,35.00 688.68,35.00 691.30,35.00 693.99,35.00 696.61,35.00 699.24,35.00 701.87,35.00 704.47,35.00 707.11,35.00 709.70,35.00 712.31,35.00 714.95,35.00 717.58,35.00 720.20,35.00 722.83,35.00 725.47,35.00 728.08,35.00 730.71,35.00 733.35,35.00 736.00,35.00 738.60,35.00 741.22,35.00 743.86,35.00 746.51,35.00 749.14,35.00 751.76,35.00 754.37,35.00 757.28,35.00 759.92,35.00 762.55,35.00 765.17,35.00 767.82,35.00 770.45,35.00 773.08,35.00 775.71,35.00 778.31,35.00 781.01,35.00 783.67,35.00 786.27,35.00 788.89,35.00 791.51,35.00 794.14,35.00 796.76,35.00 799.48,35.00 802.11,35.00 804.72,35.00 807.38,35.00 810.21,35.00 812.83,35.00 816.13,35.00 820.56,35.00 823.25,35.00 825.93,35.00 828.54,35.00 831.11,35.00 833.72,35.00 836.38,35.00 839.02,35.00 841.66,35.00 844.39,35.00 847.10,35.00 849.88,35.00 852.51,35.00 855.13,35.00 857.76,35.00 860.42,35.00 863.07,35.00 865.72,35.00 868.33,35.00 870.94,35.00 873.67,35.00 876.31,35.00 878.91,35.00 881.54,35.00 884.20,35.00 886.93,35.00 889.57,35.00 892.19,35.00 894.89,35.00 897.40,35.00 900.01,35.00 902.68,35.00 905.29,35.00 907.95,35.00 910.66,35.00 913.29,35.00 915.91,35.00 918.56,35.00 921.21,35.00 923.83,35.00 926.45,35.00 929.05,35.00 931.69,35.00 934.32,35.00 936.92,35.00 940.05,35.00 943.14,35.00 946.24,35.00 949.29,35.00 952.29,35.00 955.31,35.00 958.41,35.00 961.47,35.00 964.10,35.00 966.69,35.00 969.31,35.00 971.92,35.00 974.55,35.00 977.15,35.00 979.76,35.00 982.36,35.00 984.99,35.00 987.60,35.00 990.22,35.00 992.83,35.00 995.44,35.00 998.04,35.00 1000.66,35.00 1003.27,35.00 1005.89,35.00 1008.48,35.00 1011.12,35.00 1013.76,35.00 1016.35,35.00 1018.95,35.00 1021.56,35.00 1024.17,35.00 1026.80,35.00 1029.42,35.00 1032.03,35.00 1034.65,35.00 1037.28,35.00 1039.89,35.00 1042.50,35.00 1045.12,35.00 1047.72,35.00 1050.33,35.00 1052.92,35.00 1055.50,35.00 1058.12,35.00 1060.72,35.00 1063.32,35.00 1065.93,35.00 1068.54,35.00 1071.16,35.00 1073.75,35.00 1076.34,35.00 1078.92,35.00 1081.62,35.00 1084.44,35.00 1087.07,35.00 1089.70,35.00 1092.30,35.00 1094.91,35.00 1097.50,35.00 1100.10,35.00 1102.71,35.00 1105.81,35.00 1108.88,35.00 1111.92,35.00 1115.00,35.00 1118.08,35.00 1121.14,35.00 1124.27,35.00 1127.44,35.00 1130.30,35.00 1133.11,35.00 1135.74,35.00 1138.39,35.00 1141.01,35.00 1143.60,35.00 1146.21,35.00 1148.83,35.00 1151.44,35.00 1154.06,35.00 1156.66,35.00 1159.28,35.00 1161.91,35.00 1164.51,35.00 1167.17,35.00 1169.78,35.00 1172.39,35.00 1174.68,35.00 1177.38,35.00 1180.00,35.00"/>
<polyline fill="none" stroke="#1f77b4" stroke-opacity="0.50" stroke-width="2" points="70.00,35.00 72.62,35.00 75.26,35.00 77.87,35.00 80.50,35.00 83.15,35.00 85.75,35.00 88.39,35.00 91.23,35.00 93.84,35.00 96.45,35.00 99.05,35.00 101.72,35.00 104.33,35.00 106.93,35.00 111.65,35.00 115.72,35.00 118.37,35.00 121.06,35.00 123.68,35.00 126.29,35.00 128.86,35.00 131.51,35.00 134.13,35.00 136.77,35.00 139.41,35.00 142.08,35.00 144.71,35.00 147.35,35.00 150.10,35.00 152.75,35.00 155.36,35.00 158.05,35.00 160.68,35.00 163.30,35.00 166.01,35.00 168.61,35.00 171.23,35.00 173.90,35.00 176.50,35.00 179.12,35.00 181.71,35.00 184.33,35.00 186.96,35.00 189.57,35.00 192.25,35.00 194.90,35.00 197.49,35.00 200.11,35.00 202.75,35.00 205.38,35.00 208.38,35.00 211.00,35.00 213.62,35.00 216.22,35.00 218.82,35.00 221.42,35.00 224.03,35.00 226.66,35.00 229.28,35.00 231.95,35.00 234.57,35.00 237.16,35.00 239.80,35.00 242.46,35.00 245.07,35.00 247.71,35.00 250.30,35.00 252.90,35.00 255.51,35.00 258.11,35.00 260.72,35.00 263.35,35.00 265.95,35.00 268.57,35.00 271.20,35.00 273.79,35.00 276.44,35.00 279.03,35.00 281.64,35.00 284.33,35.00 286.95,35.00 289.56,35.00 292.20,35.00 294.81,35.00 297.45,35.00 300.06,35.00 302.65,35.00 305.25,35.00 307.89,35.00 310.53,35.00 313.15,35.00 315.80,35.00 318.38,35.00 321.01,35.00 323.62,35.00 326.24,35.00 328.84,35.00 331.46,35.00 334.06,35.00 336.70,35.00 339.33,35.00 341.95,35.00 344.58,35.00 347.23,35.00 349.87,35.00 352.49,35.00 355.10,35.00 357.71,35.00 360.32,35.00 362.97,35.00 365.59,35.00 368.21,35.00 370.83,35.00 373.46,35.00 376.09,35.00 378.73,35.00 381.40,35.00 384.00,35.00 386.63,35.00 389.25,35.00 391.87,35.00 394.48,35.00 397.12,35.00 399.97,35.00 402.58,35.00 405.23,35.00 407.85,35.00 410.45,35.00 413.05,35.00 415.62,35.00 418.24,35.00 420.86,35.00 423.48,35.00 426.09,35.00 428.70,35.00 431.32,35.00 433.92,35.00 436.59,35.00 439.20,35.00 441.82,35.00 444.43,35.00 447.05,35.00 449.66,35.00 452.29,35.00 454.92,35.00 457.55,35.00 460.17,35.00 462.79,35.00 465.39,35.00 467.99,35.00 470.61,35.00 473.23,35.00 475.86,35.00 478.51,35.00 481.13,35.00 483.75,35.00 486.40,35.00 489.02,35.00 491.62,35.00 494.25,35.00 496.88,35.00 499.54,35.00 502.20,35.00 504.81,35.00 507.44,35.00 510.04,35.00 512.64,35.00 515.25,35.00 517.88,35.00 520.49,35.00 523.08,35.00 525.69,35.00 528.33,35.00 530.96,35.00 533.59,35.00 536.21,35.00 538.89,35.00 541.50,35.00 544.12,35.00 546.73,35.00 549.33,35.00 552.18,35.00 554.86,35.00 557.46,35.00 560.07,35.00 562.65,35.00 565.29,35.00 567.90,35.00 570.53,35.00 573.17,35.00 575.77,35.00 578.38,35.00 581.01,35.00 583.69,35.00 586.30,35.00 588.90,35.00 591.52,35.00 594.17,35.00 596.84,35.00 599.52,35.00 602.12,35.00 604.75,35.00 607.37,35.00 609.98,35.00 612.61,35.00 615.23,35.00 617.89,35.00 620.50,35.00 623.10,35.00 625.75,35.00 628.37,35.00 630.99,35.00 633.61,35.00 636.27,35.00 638.89,35.00 641.50,35.00 644.09,35.00 646.70,35.00 649.33,35.00 651.95,35.00 654.56,35.00 657.17,35.00 659.76,35.00 662.38,35.00 665.02,35.00 667.65,35.00 670.28,35.00 672.93,35.00 675.56,35.00 678.20,35.00 680.81,35.00 683.44,35.00 686.06,35.00 688.68,35.00 691.30,35.00 693.99,35.00 696.61,35.00 699.24,35.00 701.87,35.00 704.47,35.00 707.11,35.00 709.70,35.00 712.31,35.00 714.95,35.00 717.58,35.00 720.20,35.00 722.83,35.00 725.47,35.00 728.08,35.00 730.71,35.00 733.35,35.00 736.00,35.00 738.60,35.00 741.22,35.00 743.86,35.00 746.51,35.00 749.14,35.00 751.76,35.00 754.37,35.00 757.28,35.00 759.92,35.00 762.55,35.00 765.17,35.00 767.82,35.00 770.45,35.00 773.08,35.00 775.71,35.00 778.31,35.00 781.01,35.00 783.67,35.00 786.27,35.00 788.89,35.00 791.51,35.00 794.14,35.00 796.76,35.00 799.48,35.00 802.11,35.00 804.72,35.00 807.38,35.00 810.21,35.00 812.83,35.00 816.13,35.00 820.56,35.00 823.25,35.00 825.93,35.00 828.54,35.00 831.11,35.00 833.72,35.00 836.38,35.00 839.02,35.00 841.66,35.00 844.39,35.00 847.10,35.00 849.88,35.00 852.51,35.00 855.13,35.00 857.76,35.00 860.42,35.00 863.07,35.00 865.72,35.00 868.33,35.00 870.94,35.00 873.67,35.00 876.31,35.00 878.91,35.00 881.54,35.00 884.20,35.00 886.93,35.00 889.57,35.00 892.19,35.00 894.89,35.00 897.40,35.00 900.01,35.00 902.68,35.00 905.29,35.00 907.95,35.00 910.66,35.00 913.29,35.00 915.91,35.00 918.56,35.00 921.21,35.00 923.83,35.00 926.45,35.00 929.05,35.00 931.69,35.00 934.32,35.00 936.92,35.00 940.05,35.00 943.14,35.00 946.24,35.00 949.29,35.00 952.29,35.00 955.31,35.00 958.41,35.00 961.47,35.00 964.10,35.00 966.69,35.00 969.31,35.00 971.92,35.00 974.55,35.00 977.15,35.00 979.76,35.00 982.36,35.00 984.99,35.00 987.60,35.00 990.22,35.00 992.83,35.00 995.44,35.00 998.04,35.00 1000.66,35.00 1003.27,35.00 1005.89,35.00 1008.48,35.00 1011.12,35.00 1013.76,35.00 1016.35,35.00 1018.95,35.00 1021.56,35.00 1024.17,35.00 1026.80,35.00 1029.42,35.00 1032.03,35.00 1034.65,35.00 1037.28,35.00 1039.89,35.00 1042.50,35.00 1045.12,35.00 1047.72,35.00 1050.33,35.00 1052.92,35.00 1055.50,35.00 1058.12,35.00 1060.72,35.00 1063.32,35.00 1065.93,35.00 1068.54,35.00 1071.16,35.00 1073.75,35.00 1076.34,35.00 1078.92,35.00 1081.62,35.00 1084.44,35.00 1087.07,35.00 1089.70,35.00 1092.30,35.00 1094.91,35.00 1097.50,35.00 1100.10,35.00 1102.71,35.00 1105.81,35.00 1108.88,35.00 1111.92,35.00 1115.00,35.00 1118.08,35.00 1121.14,35.00 1124.27,35.00 1127.44,35.00 1130.30,35.00 1133.11,35.00 1135.74,35.00 1138.39,35.00 1141.01,35.00 1143.60,35.00 1146.21,35.00 1148.83,35.00 1151.44,35.00 1154.06,35.00 1156.66,35.00 1159.28,35.00 1161.91,35.00 1164.51,35.00 1167.17,35.00 1169.78,35.00 1172.39,35.00 1174.68,35.00 1177.38,35.00 1180.00,35.00"/>
<rect x="70" y="332" width="12" height="12" fill="#1f77b4" fill-opacity="0.95"/>
<text x="88" y="342" font-size="11" fill="#333" font-family="Arial, Helvetica, sans-serif">nsc1.utdallas.edu</text>
<rect x="350" y="332" width="12" height="12" fill="#1f77b4" fill-opacity="0.80"/>
<text x="368" y="342" font-size="11" fill="#333" font-family="Arial, Helvetica, sans-serif">nsc2.utdallas.edu</text>
<rect x="630" y="332" width="12" height="12" fill="#1f77b4" fill-opacity="0.65"/>
<text x="648" y="342" font-size="11" fill="#333" font-family="Arial, Helvetica, sans-serif">nsc3.utdallas.edu</text>
<rect x="910" y="332" width="12" height="12" fill="#1f77b4" fill-opacity="0.50"/>
<text x="928" y="342" font-size="11" fill="#333" font-family="Arial, Helvetica, sans-serif">nsc4.utdallas.edu</text>
</svg>