<?xml version="1.0" encoding="UTF-8"?>
<svg xmlns="http://www.w3.org/2000/svg" width="1200" height="360" viewBox="0 0 1200 360" role="img" aria-label="Ping Uptime (%)">
<rect width="100%" height="100%" fill="#ffffff"/>
<text x="600.0" y="22" text-anchor="middle" font-size="16" font-family="Arial, Helvetica, sans-serif" font-weight="bold">Ping Uptime (%)</text>
<line x1="70" y1="35.00" x2="1180" y2="35.00" stroke="#e3e3e3" stroke-width="1"/>
<text x="62" y="39.00" text-anchor="end" font-size="11" fill="#444" font-family="Arial, Helvetica, sans-serif">100</text>
<line x1="70" y1="89.00" x2="1180" y2="89.00" stroke="#e3e3e3" stroke-width="1"/>
<text x="62" y="93.00" text-anchor="end" font-size="11" fill="#444" font-family="Arial, Helvetica, sans-serif">80</text>
<line x1="70" y1="143.00" x2="1180" y2="143.00" stroke="#e3e3e3" stroke-width="1"/>
<text x="62" y="147.00" text-anchor="end" font-size="11" fill="#444" font-family="Arial, Helvetica, sans-serif">60</text>
<line x1="70" y1="197.00" x2="1180" y2="197.00" stroke="#e3e3e3" stroke-width="1"/>
<text x="62" y="201.00" text-anchor="end" font-size="11" fill="#444" font-family="Arial, Helvetica, sans-serif">40</text>
<line x1="70" y1="251.00" x2="1180" y2="251.00" stroke="#e3e3e3" stroke-width="1"/>
<text x="62" y="255.00" text-anchor="end" font-size="11" fill="#444" font-family="Arial, Helvetica, sans-serif">20</text>
<line x1="70" y1="305.00" x2="1180" y2="305.00" stroke="#e3e3e3" stroke-width="1"/>
<text x="62" y="309.00" text-anchor="end" font-size="11" fill="#444" font-family="Arial, Helvetica, sans-serif">0</text>
<line x1="70" y1="35" x2="70" y2="305" stroke="#999"/>
<line x1="70" y1="305" x2="1180" y2="305" stroke="#999"/>
<text x="70.00" y="323" text-anchor="middle" font-size="10" fill="#444" font-family="Arial, Helvetica, sans-serif">2026-02-11 16:38</text>
<text x="347.50" y="323" text-anchor="middle" font-size="10" fill="#444" font-family="Arial, Helvetica, sans-serif">2026-02-11 17:25</text>
<text x="625.00" y="323" text-anchor="middle" font-size="10" fill="#444" font-family="Arial, Helvetica, sans-serif">2026-02-11 18:13</text>
<text x="902.50" y="323" text-anchor="middle" font-size="10" fill="#444" font-family="Arial, Helvetica, sans-serif">2026-02-11 19:01</text>
<text x="1180.00" y="323" text-anchor="middle" font-size="10" fill="#444" font-family="Arial, Helvetica, sans-serif">2026-02-11 19:49</text>
<polyline fill="none" stroke="#1f77b4" stroke-opacity="0.95" stroke-width="2" points="101.22,35.00 132.54,35.00 163.66,35.00 194.98,35.00 226.49,35.00 257.42,35.00 288.73,35.00 322.56,35.00 353.59,35.00 384.62,35.00 415.64,35.00 447.35,35.00 478.37,35.00 509.40,35.00 565.56,35.00 613.98,35.00 645.49,35.00 677.48,35.00 708.61,35.00 739.73,35.00 770.27,35.00 801.78,35.00 832.91,35.00 864.32,35.00 895.73,35.00 927.53,35.00 958.85,35.00 990.17,35.00 1022.93,35.00 1054.44,35.00 1085.57,35.00 1117.56,35.00 1148.78,35.00 1180.00,35.00"/>
<polyline fill="none" stroke="#1f77b4" stroke-opacity="0.80" stroke-width="2" points="70.00,35.00 101.22,35.00 132.54,35.00 163.66,35.00 194.98,35.00 226.49,35.00 257.42,35.00 288.73,35.00 322.56,35.00 353.59,35.00 384.62,35.00 415.64,35.00 447.35,35.00 478.37,35.00 509.40,35.00 565.56,35.00 613.98,35.00 645.49,35.00 677.48,35.00 708.61,35.00 739.73,35.00 770.27,35.00 801.78,35.00 832.91,35.00 864.32,35.00 895.73,35.00 927.53,35.00 958.85,35.00 990.17,35.00 1022.93,35.00 1054.44,35.00 1085.57,35.00 1117.56,35.00 1148.78,35.00 1180.00,35.00"/>
<polyline fill="none" stroke="#1f77b4" stroke-opacity="0.65" stroke-width="2" points="70.00,35.00 101.22,35.00 132.54,35.00 163.66,35.00 194.98,35.00 226.49,35.00 257.42,35.00 288.73,35.00 322.56,35.00 353.59,35.00 384.62,35.00 415.64,35.00 447.35,35.00 478.37,35.00 509.40,35.00 565.56,35.00 613.98,35.00 645.49,35.00 677.48,35.00 708.61,35.00 739.73,35.00 770.27,35.00 801.78,35.00 832.91,35.00 864.32,35.00 895.73,35.00 927.53,35.00 958.85,35.00 990.17,35.00 1022.93,35.00 1054.44,35.00 1085.57,35.00 1117.56,35.00 1148.78,35.00 1180.00,35.00"/>
<polyline fill="none" stroke="#1f77b4" stroke-opacity="0.50" stroke-width="2" points="70.00,35.00 101.22,35.00 132.54,35.00 163.66,35.00 194.98,35.00 226.49,35.00 257.42,35.00 288.73,35.00 322.56,35.00 353.59,35.00 384.62,35.00 415.64,35.00 447.35,35.00 478.37,35.00 509.40,35.00 565.56,35.00 613.98,35.00 645.49,35.00 677.48,35.00 708.61,35.00 739.73,35.00 770.27,35.00 801.78,35.00 832.91,35.00 864.32,35.00 895.73,35.00 927.53,35.00 958.85,35.00 990.17,35.00 1022.93,35.00 1054.44,35.00 1085.57,35.00 1117.56,35.00 1148.78,35.00 1180.00,35.00"/>
<rect x="70" y="332" width="12" height="12" fill="#1f77b4" fill-opacity="0.95"/>
<text x="88" y="342" font-size="11" fill="#333" font-family="Arial, Helvetica, sans-serif">nsc1.utdallas.edu</text>
<rect x="350" y="332" width="12" height="12" fill="#1f77b4" fill-opacity="0.80"/>
<text x="368" y="342" font-size="11" fill="#333" font-family="Arial, Helvetica, sans-serif">nsc2.utdallas.edu</text>
<rect x="630" y="332" width="12" height="12" fill="#1f77b4" fill-opacity="0.65"/>
<text x="648" y="342" font-size="11" fill="#333" font-family="Arial, Helvetica, sans-serif">nsc3.utdallas.edu</text>
<rect x="910" y="332" width="12" height="12" fill="#1f77b4" fill-opacity="0.50"/>
<text x="928" y="342" font-size="11" fill="#333" font-family="Arial, Helvetica, sans-serif">nsc4.utdallas.edu</text>
</svg>