<?xml version="1.0" encoding="UTF-8"?>
<svg xmlns="http://www.w3.org/2000/svg" width="1200" height="360" viewBox="0 0 1200 360" role="img" aria-label="Ping Uptime (%)">
<rect width="100%" height="100%" fill="#ffffff"/>
<text x="600.0" y="22" text-anchor="middle" font-size="16" font-family="Arial, Helvetica, sans-serif" font-weight="bold">Ping Uptime (%)</text>
<line x1="70" y1="35.00" x2="1180" y2="35.00" stroke="#e3e3e3" stroke-width="1"/>
<text x="62" y="39.00" text-anchor="end" font-size="11" fill="#444" font-family="Arial, Helvetica, sans-serif">100</text>
<line x1="70" y1="89.00" x2="1180" y2="89.00" stroke="#e3e3e3" stroke-width="1"/>
<text x="62" y="93.00" text-anchor="end" font-size="11" fill="#444" font-family="Arial, Helvetica, sans-serif">80</text>
<line x1="70" y1="143.00" x2="1180" y2="143.00" stroke="#e3e3e3" stroke-width="1"/>
<text x="62" y="147.00" text-anchor="end" font-size="11" fill="#444" font-family="Arial, Helvetica, sans-serif">60</text>
<line x1="70" y1="197.00" x2="1180" y2="197.00" stroke="#e3e3e3" stroke-width="1"/>
<text x="62" y="201.00" text-anchor="end" font-size="11" fill="#444" font-family="Arial, Helvetica, sans-serif">40</text>
<line x1="70" y1="251.00" x2="1180" y2="251.00" stroke="#e3e3e3" stroke-width="1"/>
<text x="62" y="255.00" text-anchor="end" font-size="11" fill="#444" font-family="Arial, Helvetica, sans-serif">20</text>
<line x1="70" y1="305.00" x2="1180" y2="305.00" stroke="#e3e3e3" stroke-width="1"/>
<text x="62" y="309.00" text-anchor="end" font-size="11" fill="#444" font-family="Arial, Helvetica, sans-serif">0</text>
<line x1="70" y1="35" x2="70" y2="305" stroke="#999"/>
<line x1="70" y1="305" x2="1180" y2="305" stroke="#999"/>
<text x="70.00" y="323" text-anchor="middle" font-size="10" fill="#444" font-family="Arial, Helvetica, sans-serif">2026-02-11 16:38</text>
<text x="347.50" y="323" text-anchor="middle" font-size="10" fill="#444" font-family="Arial, Helvetica, sans-serif">2026-02-13 09:02</text>
<text x="625.00" y="323" text-anchor="middle" font-size="10" fill="#444" font-family="Arial, Helvetica, sans-serif">2026-02-15 01:27</text>
<text x="902.50" y="323" text-anchor="middle" font-size="10" fill="#444" font-family="Arial, Helvetica, sans-serif">2026-02-16 17:52</text>
<text x="1180.00" y="323" text-anchor="middle" font-size="10" fill="#444" font-family="Arial, Helvetica, sans-serif">2026-02-18 10:17</text>
<polyline fill="none" stroke="#1f77b4" stroke-opacity="0.95" stroke-width="2" points="70.62,35.00 71.23,35.00 71.85,35.00 72.47,35.00 73.09,35.00 73.70,35.00 74.32,35.00 74.98,35.00 75.60,35.00 76.21,35.00 76.82,35.00 77.45,35.00 78.06,35.00 78.67,35.00 79.78,35.00 80.73,35.00 81.36,35.00 81.99,35.00 82.60,35.00 83.22,35.00 83.82,35.00 84.44,35.00 85.05,35.00 85.67,35.00 86.29,35.00 86.92,35.00 87.54,35.00 88.16,35.00 88.80,35.00 89.43,35.00 90.04,35.00 90.67,35.00 91.29,35.00 91.90,35.00 92.54,35.00 93.15,35.00 93.77,35.00 94.39,35.00 95.00,35.00 95.62,35.00 96.23,35.00 96.84,35.00 97.46,35.00 98.07,35.00 98.70,35.00 99.32,35.00 99.93,35.00 100.54,35.00 101.17,35.00 101.78,35.00 102.49,35.00 103.10,35.00 103.72,35.00 104.33,35.00 104.94,35.00 105.55,35.00 106.16,35.00 106.78,35.00 107.39,35.00 108.02,35.00 108.63,35.00 109.24,35.00 109.86,35.00 110.49,35.00 111.10,35.00 111.72,35.00 112.33,35.00 112.94,35.00 113.55,35.00 114.16,35.00 114.77,35.00 115.39,35.00 116.00,35.00 116.62,35.00 117.23,35.00 117.84,35.00 118.46,35.00 119.07,35.00 119.69,35.00 120.32,35.00 120.93,35.00 121.55,35.00 122.17,35.00 122.78,35.00 123.40,35.00 124.01,35.00 124.62,35.00 125.23,35.00 125.85,35.00 126.47,35.00 127.08,35.00 127.70,35.00 128.31,35.00 128.93,35.00 129.54,35.00 130.16,35.00 130.77,35.00 131.38,35.00 131.99,35.00 132.61,35.00 133.23,35.00 133.84,35.00 134.46,35.00 135.08,35.00 135.70,35.00 136.32,35.00 136.93,35.00 137.54,35.00 138.16,35.00 138.78,35.00 139.39,35.00 140.01,35.00 140.62,35.00 141.24,35.00 141.86,35.00 142.48,35.00 143.10,35.00 143.72,35.00 144.33,35.00 144.95,35.00 145.56,35.00 146.18,35.00 146.80,35.00 147.46,35.00 148.08,35.00 148.70,35.00 149.31,35.00 149.92,35.00 150.53,35.00 151.14,35.00 151.75,35.00 152.37,35.00 152.98,35.00 153.60,35.00 154.21,35.00 154.82,35.00 155.43,35.00 156.06,35.00 156.67,35.00 157.29,35.00 157.90,35.00 158.52,35.00 159.13,35.00 159.75,35.00 160.37,35.00 160.98,35.00 161.60,35.00 162.21,35.00 162.82,35.00 163.43,35.00 164.05,35.00 164.66,35.00 165.28,35.00 165.90,35.00 166.52,35.00 167.13,35.00 167.75,35.00 168.37,35.00 168.98,35.00 169.60,35.00 170.21,35.00 170.84,35.00 171.46,35.00 172.08,35.00 172.69,35.00 173.30,35.00 173.91,35.00 174.53,35.00 175.15,35.00 175.76,35.00 176.37,35.00 176.98,35.00 177.60,35.00 178.22,35.00 178.83,35.00 179.45,35.00 180.08,35.00 180.69,35.00 181.31,35.00 181.92,35.00 182.53,35.00 183.20,35.00 183.83,35.00 184.44,35.00 185.05,35.00 185.66,35.00 186.27,35.00 186.89,35.00 187.51,35.00 188.12,35.00 188.74,35.00 189.35,35.00 189.96,35.00 190.59,35.00 191.21,35.00 191.82,35.00 192.43,35.00 193.05,35.00 193.68,35.00 194.31,35.00 194.92,35.00 195.54,35.00 196.15,35.00 196.77,35.00 197.38,35.00 198.00,35.00 198.62,35.00 199.24,35.00 199.85,35.00 200.47,35.00 201.08,35.00 201.70,35.00 202.31,35.00 202.94,35.00 203.55,35.00 204.17,35.00 204.78,35.00 205.39,35.00 206.01,35.00 206.62,35.00 207.23,35.00 207.85,35.00 208.45,35.00 209.07,35.00 209.69,35.00 210.30,35.00 210.92,35.00 211.55,35.00 212.16,35.00 212.78,35.00 213.39,35.00 214.01,35.00 214.63,35.00 215.24,35.00 215.86,35.00 216.49,35.00 217.10,35.00 217.72,35.00 218.34,35.00 218.95,35.00 219.57,35.00 220.18,35.00 220.79,35.00 221.41,35.00 222.03,35.00 222.64,35.00 223.26,35.00 223.88,35.00 224.49,35.00 225.11,35.00 225.73,35.00 226.35,35.00 226.96,35.00 227.58,35.00 228.20,35.00 228.82,35.00 229.44,35.00 230.05,35.00 230.67,35.00 231.35,35.00 231.97,35.00 232.58,35.00 233.20,35.00 233.82,35.00 234.44,35.00 235.06,35.00 235.67,35.00 236.28,35.00 236.92,35.00 237.54,35.00 238.15,35.00 238.77,35.00 239.38,35.00 240.00,35.00 240.62,35.00 241.25,35.00 241.87,35.00 242.49,35.00 243.11,35.00 243.77,35.00 244.39,35.00 245.16,35.00 246.20,35.00 246.83,35.00 247.46,35.00 248.08,35.00 248.68,35.00 249.29,35.00 249.92,35.00 250.54,35.00 251.16,35.00 251.80,35.00 252.43,35.00 253.09,35.00 253.70,35.00 254.32,35.00 254.94,35.00 255.56,35.00 256.18,35.00 256.81,35.00 257.42,35.00 258.03,35.00 258.67,35.00 259.29,35.00 259.90,35.00 260.52,35.00 261.14,35.00 261.78,35.00 262.40,35.00 263.02,35.00 263.65,35.00 264.24,35.00 264.85,35.00 265.48,35.00 266.09,35.00 266.72,35.00 267.35,35.00 267.97,35.00 268.59,35.00 269.21,35.00 269.83,35.00 270.45,35.00 271.06,35.00 271.67,35.00 272.29,35.00 272.91,35.00 273.52,35.00 274.26,35.00 274.98,35.00 275.71,35.00 276.42,35.00 277.13,35.00 277.84,35.00 278.57,35.00 279.28,35.00 279.90,35.00 280.51,35.00 281.12,35.00 281.74,35.00 282.35,35.00 282.96,35.00 283.58,35.00 284.19,35.00 284.80,35.00 285.42,35.00 286.03,35.00 286.65,35.00 287.26,35.00 287.87,35.00 288.48,35.00 289.10,35.00 289.71,35.00 290.32,35.00 290.94,35.00 291.56,35.00 292.17,35.00 292.78,35.00 293.39,35.00 294.00,35.00 294.62,35.00 295.24,35.00 295.85,35.00 296.46,35.00 297.08,35.00 297.69,35.00 298.31,35.00 298.92,35.00 299.53,35.00 300.15,35.00 300.75,35.00 301.36,35.00 301.97,35.00 302.58,35.00 303.20,35.00 303.81,35.00 304.42,35.00 305.03,35.00 305.64,35.00 306.25,35.00 306.86,35.00 307.49,35.00 308.15,35.00 308.77,35.00 309.39,35.00 310.00,35.00 310.61,35.00 311.22,35.00 311.83,35.00 312.44,35.00 313.17,35.00 313.89,35.00 314.60,35.00 315.33,35.00 316.05,35.00 316.77,35.00 317.50,35.00 318.25,35.00 318.92,35.00 319.58,35.00 320.20,35.00 320.82,35.00 321.43,35.00 322.04,35.00 322.65,35.00 323.27,35.00 323.88,35.00 324.50,35.00 325.11,35.00 325.72,35.00 326.34,35.00 326.95,35.00 327.57,35.00 328.19,35.00 328.80,35.00 329.34,35.00 329.97,35.00 330.59,35.00 331.22,35.00 331.83,35.00 332.44,35.00 333.06,35.00 333.68,35.00 334.30,35.00 334.92,35.00 335.54,35.00 336.17,35.00 336.78,35.00 337.39,35.00 338.00,35.00 338.61,35.00 339.22,35.00 339.83,35.00 340.45,35.00 341.07,35.00 341.68,35.00 342.30,35.00 342.91,35.00 343.53,35.00 344.14,35.00 344.76,35.00 345.38,35.00 345.99,35.00 346.61,35.00 347.23,35.00 347.84,35.00 348.48,35.00 349.09,35.00 349.70,35.00 350.31,35.00 350.92,35.00 351.53,35.00 352.16,35.00 352.77,35.00 353.38,35.00 353.99,35.00 354.61,35.00 355.22,35.00 355.84,35.00 356.46,35.00 357.07,35.00 357.81,35.00 358.44,35.00 359.08,35.00 359.70,35.00 360.31,35.00 360.94,35.00 361.54,35.00 362.16,35.00 362.78,35.00 363.40,35.00 364.01,35.00 364.63,35.00 365.25,35.00 365.86,35.00 366.50,35.00 367.12,35.00 367.74,35.00 368.36,35.00 368.97,35.00 369.59,35.00 370.20,35.00 370.81,35.00 371.45,35.00 372.07,35.00 372.69,35.00 373.31,35.00 373.92,35.00 374.54,35.00 375.15,35.00 375.77,35.00 376.39,35.00 377.00,35.00 377.62,35.00 378.24,35.00 378.85,35.00 379.47,35.00 380.08,35.00 380.71,35.00 381.32,35.00 381.94,35.00 382.55,35.00 383.17,35.00 383.79,35.00 384.41,35.00 385.15,35.00 385.78,35.00 386.40,35.00 387.01,35.00 387.62,35.00 388.24,35.00 388.86,35.00 389.48,35.00 390.11,35.00 390.72,35.00 391.33,35.00 391.94,35.00 392.56,35.00 393.18,35.00 393.79,35.00 394.41,35.00 395.02,35.00 395.63,35.00 396.25,35.00 396.86,35.00 397.49,35.00 398.10,35.00 398.71,35.00 399.33,35.00 399.96,35.00 400.57,35.00 401.18,35.00 401.80,35.00 402.43,35.00 403.04,35.00 403.66,35.00 404.28,35.00 404.90,35.00 405.51,35.00 406.13,35.00 406.75,35.00 407.38,35.00 407.99,35.00 408.61,35.00 409.21,35.00 409.83,35.00 410.44,35.00 411.06,35.00 411.67,35.00 412.30,35.00 412.92,35.00 413.54,35.00 414.14,35.00 414.77,35.00 415.38,35.00 415.99,35.00 416.61,35.00 417.22,35.00 417.84,35.00 418.46,35.00 419.08,35.00 419.69,35.00 420.31,35.00 420.93,35.00 421.55,35.00 422.17,35.00 422.79,35.00 423.48,35.00 424.16,35.00 424.82,35.00 425.44,35.00 426.08,35.00 426.70,35.00 427.32,35.00 427.93,35.00 428.50,35.00 429.15,35.00 429.76,35.00 430.39,35.00 430.99,35.00 431.61,35.00 432.22,35.00 432.84,35.00 433.46,35.00 434.07,35.00 434.69,35.00 435.31,35.00 435.92,35.00 436.54,35.00 437.17,35.00 437.79,35.00 438.41,35.00 439.02,35.00 439.64,35.00 440.27,35.00 440.89,35.00 441.50,35.00 442.11,35.00 442.73,35.00 443.34,35.00 443.96,35.00 444.58,35.00 445.19,35.00 445.82,35.00 446.43,35.00 447.04,35.00 447.66,35.00 448.28,35.00 448.90,35.00 449.52,35.00 450.13,35.00 450.75,35.00 451.37,35.00 451.99,35.00 452.61,35.00 453.23,35.00 453.85,35.00 454.46,35.00 455.08,35.00 455.70,35.00 456.32,35.00 456.96,35.00 457.57,35.00 458.19,35.00 458.81,35.00 459.42,35.00 460.04,35.00 460.66,35.00 461.28,35.00 461.90,35.00 462.51,35.00 463.13,35.00 463.75,35.00 464.37,35.00 464.99,35.00 465.61,35.00 466.23,35.00 466.85,35.00 467.47,35.00 468.10,35.00 468.71,35.00 469.33,35.00 469.95,35.00 470.56,35.00 471.20,35.00 471.82,35.00 472.44,35.00 473.06,35.00 473.67,35.00 474.29,35.00 474.90,35.00 475.52,35.00 476.14,35.00 476.76,35.00 477.37,35.00 477.99,35.00 478.61,35.00 479.23,35.00 479.85,35.00 480.46,35.00 481.09,35.00 481.71,35.00 482.33,35.00 482.95,35.00 483.56,35.00 484.17,35.00 484.79,35.00 485.40,35.00 486.02,35.00 486.65,35.00 487.26,35.00 487.89,35.00 488.50,35.00 489.12,35.00 489.75,35.00 490.36,35.00 490.98,35.00 491.61,35.00 492.22,35.00 492.84,35.00 493.46,35.00 494.09,35.00 494.71,35.00 495.32,35.00 495.96,35.00 496.58,35.00 497.20,35.00 497.82,35.00 498.43,35.00 499.05,35.00 499.67,35.00 500.30,35.00 500.92,35.00 501.54,35.00 502.15,35.00 502.76,35.00 503.40,35.00 504.01,35.00 504.64,35.00 505.25,35.00 505.87,35.00 506.48,35.00 507.10,35.00 507.71,35.00 508.33,35.00 508.95,35.00 509.57,35.00 510.18,35.00 510.80,35.00 511.42,35.00 512.06,35.00 512.68,35.00 513.29,35.00 513.91,35.00 514.52,35.00 515.14,35.00 515.76,35.00 516.38,35.00 517.00,35.00 517.62,35.00 518.24,35.00 518.86,35.00 519.47,35.00 520.09,35.00 520.72,35.00 521.35,35.00 521.98,35.00 522.60,35.00 523.22,35.00 523.84,35.00 524.46,35.00 525.07,35.00 525.69,35.00 526.30,35.00 526.93,35.00 527.55,35.00 528.17,35.00 528.79,35.00 529.42,35.00 530.06,35.00 530.68,35.00 531.29,35.00 531.91,35.00 532.53,35.00 533.15,35.00 533.77,35.00 534.40,35.00 535.02,35.00 535.64,35.00 536.26,35.00 536.88,35.00 537.51,35.00 538.12,35.00 538.74,35.00 539.36,35.00 539.98,35.00 540.60,35.00 541.23,35.00 541.84,35.00 542.46,35.00 543.08,35.00 543.71,35.00 544.32,35.00 544.94,35.00 545.57,35.00 546.21,35.00 546.83,35.00 547.45,35.00 548.07,35.00 548.70,35.00 549.34,35.00 549.97,35.00 550.59,35.00 551.23,35.00 551.86,35.00 552.47,35.00 553.09,35.00 553.71,35.00 554.33,35.00 554.96,35.00 555.59,35.00 556.21,35.00 556.83,35.00 557.45,35.00 558.06,35.00 558.68,35.00 559.30,35.00 559.92,35.00 560.54,35.00 561.15,35.00 561.77,35.00 562.39,35.00 563.00,35.00 563.62,35.00 564.24,35.00 564.86,35.00 565.48,35.00 566.10,35.00 566.72,35.00 567.34,35.00 567.96,35.00 568.58,35.00 569.20,35.00 569.81,35.00 570.43,35.00 571.05,35.00 571.67,35.00 572.29,35.00 572.90,35.00 573.51,35.00 574.13,35.00 574.75,35.00 575.37,35.00 575.99,35.00 576.61,35.00 577.22,35.00 577.84,35.00 578.46,35.00 579.08,35.00 579.69,35.00 580.30,35.00 580.91,35.00 581.53,35.00 582.15,35.00 582.78,35.00 583.39,35.00 584.01,35.00 584.63,35.00 585.26,35.00 585.88,35.00 586.50,35.00 587.12,35.00 587.74,35.00 588.36,35.00 588.98,35.00 589.60,35.00 590.23,35.00 590.85,35.00 591.47,35.00 592.08,35.00 592.70,35.00 593.31,35.00 593.93,35.00 594.55,35.00 595.16,35.00 595.78,35.00 596.40,35.00 597.02,35.00 597.63,35.00 598.25,35.00 598.87,35.00 599.49,35.00 600.11,35.00 600.73,35.00 601.35,35.00 601.97,35.00 602.58,35.00 603.21,35.00 603.82,35.00 604.44,35.00 605.06,35.00 605.68,35.00 606.29,35.00 606.92,35.00 607.54,35.00 608.16,35.00 608.77,35.00 609.39,35.00 610.03,35.00 610.64,35.00 611.27,35.00 611.90,35.00 612.52,35.00 613.14,35.00 613.76,35.00 614.38,35.00 615.00,35.00 615.62,35.00 616.24,35.00 616.87,35.00 617.50,35.00 618.11,35.00 618.73,35.00 619.35,35.00 619.97,35.00 620.59,35.00 621.21,35.00 621.82,35.00 622.44,35.00 623.06,35.00 623.68,35.00 624.29,35.00 624.92,35.00 625.53,35.00 626.15,35.00 626.76,35.00 627.38,35.00 628.00,35.00 628.63,35.00 629.24,35.00 629.86,35.00 630.47,35.00 631.09,35.00 631.71,35.00 632.33,35.00 632.95,35.00 633.58,35.00 634.19,35.00 634.81,35.00 635.42,35.00 636.04,35.00 636.66,35.00 637.27,35.00 637.90,35.00 638.54,35.00 639.16,35.00 639.80,35.00 640.43,35.00 641.06,35.00 641.69,35.00 642.32,35.00 642.97,35.00 643.60,35.00 644.23,35.00 644.85,35.00 645.46,35.00 646.09,35.00 646.71,35.00 647.33,35.00 647.95,35.00 648.57,35.00 649.20,35.00 649.81,35.00 650.43,35.00 651.05,35.00 651.66,35.00 652.28,35.00 652.90,35.00 653.52,35.00 654.14,35.00 654.76,35.00 655.37,35.00 656.00,35.00 656.62,35.00 657.24,35.00 657.86,35.00 658.48,35.00 659.10,35.00 659.72,35.00 660.34,35.00 660.95,35.00 661.57,35.00 662.19,35.00 662.81,35.00 663.43,35.00 664.05,35.00 664.67,35.00 665.29,35.00 665.95,35.00 666.59,35.00 667.20,35.00 667.82,35.00 668.44,35.00 669.07,35.00 669.69,35.00 670.32,35.00 670.94,35.00 671.55,35.00 672.15,35.00 672.77,35.00 673.39,35.00 674.01,35.00 674.63,35.00 675.25,35.00 675.87,35.00 676.49,35.00 677.12,35.00 677.73,35.00 678.35,35.00 678.96,35.00 679.59,35.00 680.21,35.00 680.82,35.00 681.44,35.00 682.07,35.00 682.68,35.00 683.30,35.00 683.95,35.00 684.57,35.00 685.19,35.00 685.80,35.00 686.42,35.00 687.04,35.00 687.67,35.00 688.29,35.00 688.90,35.00 689.53,35.00 690.15,35.00 690.78,35.00 691.40,35.00 692.02,35.00 692.64,35.00 693.25,35.00 693.88,35.00 694.49,35.00 695.11,35.00 695.73,35.00 696.36,35.00 696.98,35.00 697.59,35.00 698.21,35.00 698.83,35.00 699.45,35.00 700.07,35.00 700.68,35.00 701.30,35.00 701.92,35.00 702.54,35.00 703.16,35.00 703.78,35.00 704.40,35.00 705.02,35.00 705.64,35.00 706.26,35.00 706.87,35.00 707.49,35.00 708.10,35.00 708.72,35.00 709.34,35.00 709.96,35.00 710.59,35.00 711.21,35.00 711.83,35.00 712.46,35.00 713.07,35.00 713.70,35.00 714.37,35.00 715.00,35.00 715.62,35.00 716.25,35.00 716.87,35.00 717.49,35.00 718.11,35.00 718.73,35.00 719.35,35.00 719.97,35.00 720.59,35.00 721.21,35.00 721.83,35.00 722.46,35.00 723.09,35.00 723.71,35.00 724.32,35.00 724.94,35.00 725.56,35.00 726.19,35.00 726.80,35.00 727.42,35.00 728.05,35.00 728.67,35.00 729.29,35.00 729.91,35.00 730.53,35.00 731.15,35.00 731.78,35.00 732.40,35.00 733.02,35.00 733.64,35.00 734.26,35.00 734.88,35.00 735.50,35.00 736.11,35.00 736.73,35.00 737.35,35.00 737.97,35.00 738.60,35.00 739.21,35.00 739.83,35.00 740.45,35.00 741.07,35.00 741.69,35.00 742.31,35.00 742.93,35.00 743.56,35.00 744.18,35.00 744.78,35.00 745.39,35.00 746.00,35.00 746.63,35.00 747.25,35.00 747.87,35.00 748.50,35.00 749.11,35.00 749.74,35.00 750.37,35.00 750.98,35.00 751.60,35.00 752.21,35.00 752.83,35.00 753.44,35.00 754.06,35.00 754.68,35.00 755.30,35.00 755.92,35.00 756.53,35.00 757.15,35.00 757.77,35.00 758.39,35.00 759.01,35.00 759.62,35.00 760.24,35.00 760.84,35.00 761.47,35.00 762.09,35.00 762.71,35.00 763.33,35.00 763.96,35.00 764.57,35.00 765.19,35.00 765.81,35.00 766.43,35.00 767.05,35.00 767.67,35.00 768.34,35.00 768.95,35.00 769.58,35.00 770.20,35.00 770.83,35.00 771.44,35.00 772.06,35.00 772.68,35.00 773.30,35.00 773.92,35.00 774.53,35.00 775.15,35.00 775.77,35.00 776.40,35.00 777.02,35.00 777.63,35.00 778.25,35.00 778.87,35.00 779.49,35.00 780.12,35.00 780.74,35.00 781.37,35.00 782.00,35.00 782.62,35.00 783.24,35.00 783.86,35.00 784.48,35.00 785.11,35.00 785.73,35.00 786.34,35.00 786.96,35.00 787.58,35.00 788.20,35.00 788.82,35.00 789.44,35.00 790.06,35.00 790.68,35.00 791.30,35.00 791.91,35.00 792.53,35.00 793.15,35.00 793.77,35.00 794.38,35.00 795.00,35.00 795.62,35.00 796.24,35.00 796.85,35.00 797.47,35.00 798.08,35.00 798.70,35.00 799.32,35.00 799.93,35.00 800.55,35.00 801.16,35.00 801.78,35.00 802.40,35.00 803.02,35.00 803.64,35.00 804.25,35.00 804.86,35.00 805.48,35.00 806.11,35.00 806.72,35.00 807.34,35.00 807.96,35.00 808.61,35.00 809.22,35.00 809.84,35.00 810.47,35.00 811.09,35.00 811.71,35.00 812.33,35.00 812.95,35.00 813.57,35.00 814.18,35.00 814.80,35.00 815.41,35.00 816.03,35.00 816.65,35.00 817.27,35.00 817.89,35.00 818.50,35.00 819.12,35.00 819.74,35.00 820.36,35.00 820.98,35.00 821.63,35.00 822.25,35.00 822.86,35.00 823.47,35.00 824.08,35.00 824.72,35.00 825.33,35.00 825.95,35.00 826.57,35.00 827.19,35.00 827.81,35.00 828.43,35.00 829.05,35.00 829.67,35.00 830.29,35.00 830.91,35.00 831.53,35.00 832.14,35.00 832.76,35.00 833.37,35.00 833.99,35.00 834.61,35.00 835.22,35.00 835.84,35.00 836.46,35.00 837.08,35.00 837.70,35.00 838.32,35.00 838.94,35.00 839.55,35.00 840.17,35.00 840.79,35.00 841.40,35.00 842.03,35.00 842.64,35.00 843.26,35.00 843.88,35.00 844.50,35.00 845.11,35.00 845.73,35.00 846.35,35.00 846.96,35.00 847.60,35.00 848.22,35.00 848.83,35.00 849.45,35.00 850.07,35.00 850.69,35.00 851.33,35.00 851.95,35.00 852.61,35.00 853.23,35.00 853.89,35.00 854.51,35.00 855.12,35.00 855.74,35.00 856.36,35.00 856.97,35.00 857.59,35.00 858.21,35.00 858.83,35.00 859.45,35.00 860.07,35.00 860.68,35.00 861.30,35.00 861.92,35.00 862.54,35.00 863.15,35.00 863.77,35.00 864.38,35.00 865.01,35.00 865.62,35.00 866.25,35.00 866.86,35.00 867.47,35.00 868.09,35.00 868.71,35.00 869.34,35.00 869.95,35.00 870.57,35.00 871.19,35.00 871.81,35.00 872.42,35.00 873.04,35.00 873.66,35.00 874.27,35.00 874.89,35.00 875.50,35.00 876.11,35.00 876.73,35.00 877.35,35.00 877.97,35.00 878.59,35.00 879.21,35.00 879.85,35.00 880.47,35.00 881.09,35.00 881.70,35.00 882.32,35.00 882.93,35.00 883.54,35.00 884.16,35.00 884.78,35.00 885.39,35.00 886.01,35.00 886.62,35.00 887.24,35.00 887.85,35.00 888.47,35.00 889.09,35.00 889.70,35.00 890.33,35.00 890.94,35.00 891.56,35.00 892.18,35.00 892.80,35.00 893.41,35.00 894.03,35.00 894.65,35.00 895.27,35.00 895.89,35.00 896.51,35.00 897.14,35.00 897.75,35.00 898.37,35.00 898.99,35.00 899.61,35.00 900.22,35.00 900.86,35.00 901.48,35.00 902.10,35.00 902.72,35.00 903.34,35.00 903.96,35.00 904.57,35.00 905.19,35.00 905.82,35.00 906.44,35.00 907.05,35.00 907.67,35.00 908.29,35.00 908.91,35.00 909.53,35.00 910.16,35.00 910.80,35.00 911.45,35.00 912.08,35.00 912.70,35.00 913.31,35.00 913.92,35.00 914.55,35.00 915.16,35.00 915.78,35.00 916.41,35.00 917.03,35.00 917.65,35.00 918.26,35.00 918.87,35.00 919.49,35.00 920.11,35.00 920.74,35.00 921.37,35.00 922.00,35.00 922.62,35.00 923.25,35.00 923.90,35.00 924.52,35.00 925.18,35.00 925.80,35.00 926.42,35.00 927.04,35.00 927.66,35.00 928.27,35.00 928.89,35.00 929.51,35.00 930.13,35.00 930.74,35.00 931.36,35.00 931.99,35.00 932.61,35.00 933.23,35.00 933.86,35.00 934.58,35.00 935.20,35.00 935.82,35.00 936.43,35.00 937.05,35.00 937.66,35.00 938.27,35.00 938.84,35.00 939.40,35.00 940.07,35.00 940.65,35.00 941.21,35.00 941.84,35.00 942.38,35.00 942.99,35.00 943.61,35.00 944.23,35.00 944.85,35.00 945.46,35.00 946.08,35.00 946.69,35.00 947.31,35.00 947.93,35.00 948.55,35.00 949.16,35.00 949.78,35.00 950.40,35.00 951.01,35.00 951.63,35.00 952.24,35.00 952.85,35.00 953.46,35.00 954.08,35.00 954.70,35.00 955.31,35.00 955.93,35.00 956.55,35.00 957.17,35.00 957.77,35.00 958.39,35.00 959.01,35.00 959.62,35.00 960.23,35.00 960.85,35.00 961.46,35.00 962.08,35.00 962.69,35.00 963.31,35.00 963.92,35.00 964.54,35.00 965.16,35.00 965.78,35.00 966.39,35.00 967.00,35.00 967.62,35.00 968.24,35.00 968.86,35.00 969.47,35.00 970.08,35.00 970.69,35.00 971.30,35.00 971.92,35.00 972.53,35.00 973.14,35.00 973.77,35.00 974.39,35.00 975.01,35.00 975.62,35.00 976.24,35.00 976.86,35.00 977.48,35.00 978.10,35.00 978.72,35.00 979.33,35.00 979.95,35.00 980.56,35.00 981.17,35.00 981.79,35.00 982.41,35.00 983.02,35.00 983.64,35.00 984.26,35.00 984.87,35.00 985.49,35.00 986.10,35.00 986.72,35.00 987.34,35.00 987.95,35.00 988.57,35.00 989.19,35.00 989.81,35.00 990.48,35.00 991.10,35.00 991.71,35.00 992.33,35.00 992.94,35.00 993.56,35.00 994.17,35.00 994.80,35.00 995.66,35.00 996.27,35.00 997.13,35.00 997.75,35.00 998.37,35.00 998.98,35.00 999.60,35.00 1000.22,35.00 1000.83,35.00 1001.44,35.00 1002.06,35.00 1002.67,35.00 1003.29,35.00 1003.90,35.00 1004.51,35.00 1005.14,35.00 1005.76,35.00 1006.37,35.00 1006.99,35.00 1007.61,35.00 1008.22,35.00 1008.85,35.00 1009.47,35.00 1010.08,35.00 1010.70,35.00 1011.31,35.00 1011.93,35.00 1012.55,35.00 1013.17,35.00 1013.79,35.00 1014.40,35.00 1015.02,35.00 1015.64,35.00 1016.27,35.00 1016.91,35.00 1017.53,35.00 1018.17,35.00 1018.79,35.00 1019.41,35.00 1020.03,35.00 1020.65,35.00 1021.26,35.00 1021.88,35.00 1022.50,35.00 1023.11,35.00 1023.74,35.00 1024.36,35.00 1024.98,35.00 1025.60,35.00 1026.22,35.00 1026.84,35.00 1027.46,35.00 1028.08,35.00 1028.70,35.00 1029.32,35.00 1029.94,35.00 1030.56,35.00 1031.18,35.00 1031.81,35.00 1032.42,35.00 1033.04,35.00 1033.66,35.00 1034.28,35.00 1034.89,35.00 1035.53,35.00 1036.15,35.00 1036.77,35.00 1037.39,35.00 1038.01,35.00 1038.63,35.00 1039.24,35.00 1039.86,35.00 1040.48,35.00 1041.10,35.00 1041.71,35.00 1042.33,35.00 1042.94,35.00 1043.56,35.00 1044.20,35.00 1044.82,35.00 1045.45,35.00 1046.06,35.00 1046.67,35.00 1047.30,35.00 1047.91,35.00 1048.53,35.00 1049.15,35.00 1049.76,35.00 1050.38,35.00 1051.00,35.00 1051.63,35.00 1052.25,35.00 1052.87,35.00 1053.48,35.00 1054.10,35.00 1054.72,35.00 1055.34,35.00 1055.96,35.00 1056.58,35.00 1057.20,35.00 1057.82,35.00 1058.45,35.00 1059.06,35.00 1059.68,35.00 1060.31,35.00 1060.93,35.00 1061.55,35.00 1062.18,35.00 1062.79,35.00 1063.41,35.00 1064.02,35.00 1064.64,35.00 1065.27,35.00 1065.89,35.00 1066.52,35.00 1067.15,35.00 1067.77,35.00 1068.39,35.00 1069.01,35.00 1069.63,35.00 1070.24,35.00 1070.87,35.00 1071.49,35.00 1072.11,35.00 1072.73,35.00 1073.35,35.00 1073.97,35.00 1074.59,35.00 1075.21,35.00 1075.83,35.00 1076.45,35.00 1077.07,35.00 1077.70,35.00 1078.33,35.00 1078.94,35.00 1079.57,35.00 1080.19,35.00 1080.81,35.00 1081.42,35.00 1082.04,35.00 1082.69,35.00 1083.31,35.00 1083.92,35.00 1084.55,35.00 1085.17,35.00 1085.79,35.00 1086.42,35.00 1087.05,35.00 1087.68,35.00 1088.30,35.00 1088.93,35.00 1089.55,35.00 1090.21,35.00 1090.82,35.00 1091.45,35.00 1092.06,35.00 1092.68,35.00 1093.30,35.00 1093.92,35.00 1094.54,35.00 1095.17,35.00 1095.78,35.00 1096.42,35.00 1097.04,35.00 1097.66,35.00 1098.28,35.00 1098.90,35.00 1099.52,35.00 1100.16,35.00 1100.78,35.00 1101.39,35.00 1102.02,35.00 1102.63,35.00 1103.25,35.00 1103.89,35.00 1104.51,35.00 1105.12,35.00 1105.73,35.00 1106.34,35.00 1106.96,35.00 1107.58,35.00 1108.20,35.00 1108.84,35.00 1109.45,35.00 1110.07,35.00 1110.69,35.00 1111.31,35.00 1111.92,35.00 1112.54,35.00 1113.16,35.00 1113.78,35.00 1114.40,35.00 1115.02,35.00 1115.63,35.00 1116.25,35.00 1116.87,35.00 1117.51,35.00 1118.13,35.00 1118.76,35.00 1119.37,35.00 1119.98,35.00 1120.60,35.00 1121.21,35.00 1121.83,35.00 1122.45,35.00 1123.10,35.00 1123.72,35.00 1124.34,35.00 1124.96,35.00 1125.57,35.00 1126.19,35.00 1126.80,35.00 1127.41,35.00 1128.04,35.00 1128.65,35.00 1129.27,35.00 1129.88,35.00 1130.49,35.00 1131.12,35.00 1131.74,35.00 1132.35,35.00 1132.96,35.00 1133.58,35.00 1134.20,35.00 1134.83,35.00 1135.45,35.00 1136.07,35.00 1136.69,35.00 1137.30,35.00 1137.92,35.00 1138.55,35.00 1139.16,35.00 1139.78,35.00 1140.40,35.00 1141.01,35.00 1141.63,35.00 1142.25,35.00 1142.86,35.00 1143.48,35.00 1144.09,35.00 1144.71,35.00 1145.33,35.00 1145.94,35.00 1146.55,35.00 1147.16,35.00 1147.78,35.00 1148.40,35.00 1149.02,35.00 1149.64,35.00 1150.26,35.00 1150.88,35.00 1151.50,35.00 1152.11,35.00 1152.73,35.00 1153.34,35.00 1153.97,35.00 1154.58,35.00 1155.20,35.00 1155.82,35.00 1156.44,35.00 1157.06,35.00 1157.68,35.00 1158.30,35.00 1158.92,35.00 1159.55,35.00 1160.17,35.00 1160.79,35.00 1161.41,35.00 1162.03,35.00 1162.64,35.00 1163.26,35.00 1163.87,35.00 1164.49,35.00 1165.11,35.00 1165.72,35.00 1166.34,35.00 1166.98,35.00 1167.60,35.00 1168.22,35.00 1168.83,35.00 1169.45,35.00 1170.09,35.00 1170.72,35.00 1171.37,35.00 1171.98,35.00 1172.58,35.00 1173.20,35.00 1173.81,35.00 1174.42,35.00 1175.04,35.00 1175.67,35.00 1176.29,35.00 1176.90,35.00 1177.52,35.00 1178.15,35.00 1178.76,35.00 1179.38,35.00 1180.00,35.00"/>
<polyline fill="none" stroke="#1f77b4" stroke-opacity="0.80" stroke-width="2" points="70.00,35.00 70.62,35.00 71.23,35.00 71.85,35.00 72.47,35.00 73.09,35.00 73.70,35.00 74.32,35.00 74.98,35.00 75.60,35.00 76.21,35.00 76.82,35.00 77.45,35.00 78.06,35.00 78.67,35.00 79.78,35.00 80.73,35.00 81.36,35.00 81.99,35.00 82.60,35.00 83.22,35.00 83.82,35.00 84.44,35.00 85.05,35.00 85.67,35.00 86.29,35.00 86.92,35.00 87.54,35.00 88.16,35.00 88.80,35.00 89.43,35.00 90.04,35.00 90.67,35.00 91.29,35.00 91.90,35.00 92.54,35.00 93.15,35.00 93.77,35.00 94.39,35.00 95.00,35.00 95.62,35.00 96.23,35.00 96.84,35.00 97.46,35.00 98.07,35.00 98.70,35.00 99.32,35.00 99.93,35.00 100.54,35.00 101.17,35.00 101.78,35.00 102.49,35.00 103.10,35.00 103.72,35.00 104.33,35.00 104.94,35.00 105.55,35.00 106.16,35.00 106.78,35.00 107.39,35.00 108.02,35.00 108.63,35.00 109.24,35.00 109.86,35.00 110.49,35.00 111.10,35.00 111.72,35.00 112.33,35.00 112.94,35.00 113.55,35.00 114.16,35.00 114.77,35.00 115.39,35.00 116.00,35.00 116.62,35.00 117.23,35.00 117.84,35.00 118.46,35.00 119.07,35.00 119.69,35.00 120.32,35.00 120.93,35.00 121.55,35.00 122.17,35.00 122.78,35.00 123.40,35.00 124.01,35.00 124.62,35.00 125.23,35.00 125.85,35.00 126.47,35.00 127.08,35.00 127.70,35.00 128.31,35.00 128.93,35.00 129.54,35.00 130.16,35.00 130.77,35.00 131.38,35.00 131.99,35.00 132.61,35.00 133.23,35.00 133.84,35.00 134.46,35.00 135.08,35.00 135.70,35.00 136.32,35.00 136.93,35.00 137.54,35.00 138.16,35.00 138.78,35.00 139.39,35.00 140.01,35.00 140.62,35.00 141.24,35.00 141.86,35.00 142.48,35.00 143.10,35.00 143.72,35.00 144.33,35.00 144.95,35.00 145.56,35.00 146.18,35.00 146.80,35.00 147.46,35.00 148.08,35.00 148.70,35.00 149.31,35.00 149.92,35.00 150.53,35.00 151.14,35.00 151.75,35.00 152.37,35.00 152.98,35.00 153.60,35.00 154.21,35.00 154.82,35.00 155.43,35.00 156.06,35.00 156.67,35.00 157.29,35.00 157.90,35.00 158.52,35.00 159.13,35.00 159.75,35.00 160.37,35.00 160.98,35.00 161.60,35.00 162.21,35.00 162.82,35.00 163.43,35.00 164.05,35.00 164.66,35.00 165.28,35.00 165.90,35.00 166.52,35.00 167.13,35.00 167.75,35.00 168.37,35.00 168.98,35.00 169.60,35.00 170.21,35.00 170.84,35.00 171.46,35.00 172.08,35.00 172.69,35.00 173.30,35.00 173.91,35.00 174.53,35.00 175.15,35.00 175.76,35.00 176.37,35.00 176.98,35.00 177.60,35.00 178.22,35.00 178.83,35.00 179.45,35.00 180.08,35.00 180.69,35.00 181.31,35.00 181.92,35.00 182.53,35.00 183.20,35.00 183.83,35.00 184.44,35.00 185.05,35.00 185.66,35.00 186.27,35.00 186.89,35.00 187.51,35.00 188.12,35.00 188.74,35.00 189.35,35.00 189.96,35.00 190.59,35.00 191.21,35.00 191.82,35.00 192.43,35.00 193.05,35.00 193.68,35.00 194.31,35.00 194.92,35.00 195.54,35.00 196.15,35.00 196.77,35.00 197.38,35.00 198.00,35.00 198.62,35.00 199.24,35.00 199.85,35.00 200.47,35.00 201.08,35.00 201.70,35.00 202.31,35.00 202.94,35.00 203.55,35.00 204.17,35.00 204.78,35.00 205.39,35.00 206.01,35.00 206.62,35.00 207.23,35.00 207.85,35.00 208.45,35.00 209.07,35.00 209.69,35.00 210.30,35.00 210.92,35.00 211.55,35.00 212.16,35.00 212.78,35.00 213.39,35.00 214.01,35.00 214.63,35.00 215.24,35.00 215.86,35.00 216.49,35.00 217.10,35.00 217.72,35.00 218.34,35.00 218.95,35.00 219.57,35.00 220.18,35.00 220.79,35.00 221.41,35.00 222.03,35.00 222.64,35.00 223.26,35.00 223.88,35.00 224.49,35.00 225.11,35.00 225.73,35.00 226.35,35.00 226.96,35.00 227.58,35.00 228.20,35.00 228.82,35.00 229.44,35.00 230.05,35.00 230.67,35.00 231.35,35.00 231.97,35.00 232.58,35.00 233.20,35.00 233.82,35.00 234.44,35.00 235.06,35.00 235.67,35.00 236.28,35.00 236.92,35.00 237.54,35.00 238.15,35.00 238.77,35.00 239.38,35.00 240.00,35.00 240.62,35.00 241.25,35.00 241.87,35.00 242.49,35.00 243.11,35.00 243.77,35.00 244.39,35.00 245.16,35.00 246.20,35.00 246.83,35.00 247.46,35.00 248.08,35.00 248.68,35.00 249.29,35.00 249.92,35.00 250.54,35.00 251.16,35.00 251.80,35.00 252.43,35.00 253.09,35.00 253.70,35.00 254.32,35.00 254.94,35.00 255.56,35.00 256.18,35.00 256.81,35.00 257.42,35.00 258.03,35.00 258.67,35.00 259.29,35.00 259.90,35.00 260.52,35.00 261.14,35.00 261.78,35.00 262.40,35.00 263.02,35.00 263.65,35.00 264.24,35.00 264.85,35.00 265.48,35.00 266.09,35.00 266.72,35.00 267.35,35.00 267.97,35.00 268.59,35.00 269.21,35.00 269.83,35.00 270.45,35.00 271.06,35.00 271.67,35.00 272.29,35.00 272.91,35.00 273.52,35.00 274.26,35.00 274.98,35.00 275.71,35.00 276.42,35.00 277.13,35.00 277.84,35.00 278.57,35.00 279.28,35.00 279.90,35.00 280.51,35.00 281.12,35.00 281.74,35.00 282.35,35.00 282.96,35.00 283.58,35.00 284.19,35.00 284.80,35.00 285.42,35.00 286.03,35.00 286.65,35.00 287.26,35.00 287.87,35.00 288.48,35.00 289.10,35.00 289.71,35.00 290.32,35.00 290.94,35.00 291.56,35.00 292.17,35.00 292.78,35.00 293.39,35.00 294.00,35.00 294.62,35.00 295.24,35.00 295.85,35.00 296.46,35.00 297.08,35.00 297.69,35.00 298.31,35.00 298.92,35.00 299.53,35.00 300.15,35.00 300.75,35.00 301.36,35.00 301.97,35.00 302.58,35.00 303.20,35.00 303.81,35.00 304.42,35.00 305.03,35.00 305.64,35.00 306.25,35.00 306.86,35.00 307.49,35.00 308.15,35.00 308.77,35.00 309.39,35.00 310.00,35.00 310.61,35.00 311.22,35.00 311.83,35.00 312.44,35.00 313.17,35.00 313.89,35.00 314.60,35.00 315.33,35.00 316.05,35.00 316.77,35.00 317.50,35.00 318.25,35.00 318.92,35.00 319.58,35.00 320.20,35.00 320.82,35.00 321.43,35.00 322.04,35.00 322.65,35.00 323.27,35.00 323.88,35.00 324.50,35.00 325.11,35.00 325.72,35.00 326.34,35.00 326.95,35.00 327.57,35.00 328.19,35.00 328.80,35.00 329.34,35.00 329.97,35.00 330.59,35.00 331.22,35.00 331.83,35.00 332.44,35.00 333.06,35.00 333.68,35.00 334.30,35.00 334.92,35.00 335.54,35.00 336.17,35.00 336.78,35.00 337.39,35.00 338.00,35.00 338.61,35.00 339.22,35.00 339.83,35.00 340.45,35.00 341.07,35.00 341.68,35.00 342.30,35.00 342.91,35.00 343.53,35.00 344.14,35.00 344.76,35.00 345.38,35.00 345.99,35.00 346.61,35.00 347.23,35.00 347.84,35.00 348.48,35.00 349.09,35.00 349.70,35.00 350.31,35.00 350.92,35.00 351.53,35.00 352.16,35.00 352.77,35.00 353.38,35.00 353.99,35.00 354.61,35.00 355.22,35.00 355.84,35.00 356.46,35.00 357.07,35.00 357.81,35.00 358.44,35.00 359.08,35.00 359.70,35.00 360.31,35.00 360.94,35.00 361.54,35.00 362.16,35.00 362.78,35.00 363.40,35.00 364.01,35.00 364.63,35.00 365.25,35.00 365.86,35.00 366.50,35.00 367.12,35.00 367.74,35.00 368.36,35.00 368.97,35.00 369.59,35.00 370.20,35.00 370.81,35.00 371.45,35.00 372.07,35.00 372.69,35.00 373.31,35.00 373.92,35.00 374.54,35.00 375.15,35.00 375.77,35.00 376.39,35.00 377.00,35.00 377.62,35.00 378.24,35.00 378.85,35.00 379.47,35.00 380.08,35.00 380.71,35.00 381.32,35.00 381.94,35.00 382.55,35.00 383.17,35.00 383.79,35.00 384.41,35.00 385.15,35.00 385.78,35.00 386.40,35.00 387.01,35.00 387.62,35.00 388.24,35.00 388.86,35.00 389.48,35.00 390.11,35.00 390.72,35.00 391.33,35.00 391.94,35.00 392.56,35.00 393.18,35.00 393.79,35.00 394.41,35.00 395.02,35.00 395.63,35.00 396.25,35.00 396.86,35.00 397.49,35.00 398.10,35.00 398.71,35.00 399.33,35.00 399.96,35.00 400.57,35.00 401.18,35.00 401.80,35.00 402.43,35.00 403.04,35.00 403.66,35.00 404.28,35.00 404.90,35.00 405.51,35.00 406.13,35.00 406.75,35.00 407.38,35.00 407.99,35.00 408.61,35.00 409.21,35.00 409.83,35.00 410.44,35.00 411.06,35.00 411.67,35.00 412.30,35.00 412.92,35.00 413.54,35.00 414.14,35.00 414.77,35.00 415.38,35.00 415.99,35.00 416.61,35.00 417.22,35.00 417.84,35.00 418.46,35.00 419.08,35.00 419.69,35.00 420.31,35.00 420.93,35.00 421.55,35.00 422.17,35.00 422.79,35.00 423.48,35.00 424.16,35.00 424.82,35.00 425.44,35.00 426.08,35.00 426.70,35.00 427.32,35.00 427.93,35.00 428.50,35.00 429.15,35.00 429.76,35.00 430.39,35.00 430.99,35.00 431.61,35.00 432.22,35.00 432.84,35.00 433.46,35.00 434.07,35.00 434.69,35.00 435.31,35.00 435.92,35.00 436.54,35.00 437.17,35.00 437.79,35.00 438.41,35.00 439.02,35.00 439.64,35.00 440.27,35.00 440.89,35.00 441.50,35.00 442.11,35.00 442.73,35.00 443.34,35.00 443.96,35.00 444.58,35.00 445.19,35.00 445.82,35.00 446.43,35.00 447.04,35.00 447.66,35.00 448.28,35.00 448.90,35.00 449.52,35.00 450.13,35.00 450.75,35.00 451.37,35.00 451.99,35.00 452.61,35.00 453.23,35.00 453.85,35.00 454.46,35.00 455.08,35.00 455.70,35.00 456.32,35.00 456.96,35.00 457.57,35.00 458.19,35.00 458.81,35.00 459.42,35.00 460.04,35.00 460.66,35.00 461.28,35.00 461.90,35.00 462.51,35.00 463.13,35.00 463.75,35.00 464.37,35.00 464.99,35.00 465.61,35.00 466.23,35.00 466.85,35.00 467.47,35.00 468.10,35.00 468.71,35.00 469.33,35.00 469.95,35.00 470.56,35.00 471.20,35.00 471.82,35.00 472.44,35.00 473.06,35.00 473.67,35.00 474.29,35.00 474.90,35.00 475.52,35.00 476.14,35.00 476.76,35.00 477.37,35.00 477.99,35.00 478.61,35.00 479.23,35.00 479.85,35.00 480.46,35.00 481.09,35.00 481.71,35.00 482.33,35.00 482.95,35.00 483.56,35.00 484.17,35.00 484.79,35.00 485.40,35.00 486.02,35.00 486.65,35.00 487.26,35.00 487.89,35.00 488.50,35.00 489.12,35.00 489.75,35.00 490.36,35.00 490.98,35.00 491.61,35.00 492.22,35.00 492.84,35.00 493.46,35.00 494.09,35.00 494.71,35.00 495.32,35.00 495.96,35.00 496.58,35.00 497.20,35.00 497.82,35.00 498.43,35.00 499.05,35.00 499.67,35.00 500.30,35.00 500.92,35.00 501.54,35.00 502.15,35.00 502.76,35.00 503.40,35.00 504.01,35.00 504.64,35.00 505.25,35.00 505.87,35.00 506.48,35.00 507.10,35.00 507.71,35.00 508.33,35.00 508.95,35.00 509.57,35.00 510.18,35.00 510.80,35.00 511.42,35.00 512.06,35.00 512.68,35.00 513.29,35.00 513.91,35.00 514.52,35.00 515.14,35.00 515.76,35.00 516.38,35.00 517.00,35.00 517.62,35.00 518.24,35.00 518.86,35.00 519.47,35.00 520.09,35.00 520.72,35.00 521.35,35.00 521.98,35.00 522.60,35.00 523.22,35.00 523.84,35.00 524.46,35.00 525.07,35.00 525.69,35.00 526.30,35.00 526.93,35.00 527.55,35.00 528.17,35.00 528.79,35.00 529.42,35.00 530.06,35.00 530.68,35.00 531.29,35.00 531.91,35.00 532.53,35.00 533.15,35.00 533.77,35.00 534.40,35.00 535.02,35.00 535.64,35.00 536.26,35.00 536.88,35.00 537.51,35.00 538.12,35.00 538.74,35.00 539.36,35.00 539.98,35.00 540.60,35.00 541.23,35.00 541.84,35.00 542.46,35.00 543.08,35.00 543.71,35.00 544.32,35.00 544.94,35.00 545.57,35.00 546.21,35.00 546.83,35.00 547.45,35.00 548.07,35.00 548.70,35.00 549.34,35.00 549.97,35.00 550.59,35.00 551.23,35.00 551.86,35.00 552.47,35.00 553.09,35.00 553.71,35.00 554.33,35.00 554.96,35.00 555.59,35.00 556.21,35.00 556.83,35.00 557.45,35.00 558.06,35.00 558.68,35.00 559.30,35.00 559.92,35.00 560.54,35.00 561.15,35.00 561.77,35.00 562.39,35.00 563.00,35.00 563.62,35.00 564.24,35.00 564.86,35.00 565.48,35.00 566.10,35.00 566.72,35.00 567.34,35.00 567.96,35.00 568.58,35.00 569.20,35.00 569.81,35.00 570.43,35.00 571.05,35.00 571.67,35.00 572.29,35.00 572.90,35.00 573.51,35.00 574.13,35.00 574.75,35.00 575.37,35.00 575.99,35.00 576.61,35.00 577.22,35.00 577.84,35.00 578.46,35.00 579.08,35.00 579.69,35.00 580.30,35.00 580.91,35.00 581.53,35.00 582.15,35.00 582.78,35.00 583.39,35.00 584.01,35.00 584.63,35.00 585.26,35.00 585.88,35.00 586.50,35.00 587.12,35.00 587.74,35.00 588.36,35.00 588.98,35.00 589.60,35.00 590.23,35.00 590.85,35.00 591.47,35.00 592.08,35.00 592.70,35.00 593.31,35.00 593.93,35.00 594.55,35.00 595.16,35.00 595.78,35.00 596.40,35.00 597.02,35.00 597.63,35.00 598.25,35.00 598.87,35.00 599.49,35.00 600.11,35.00 600.73,35.00 601.35,35.00 601.97,35.00 602.58,35.00 603.21,35.00 603.82,35.00 604.44,35.00 605.06,35.00 605.68,35.00 606.29,35.00 606.92,35.00 607.54,35.00 608.16,35.00 608.77,35.00 609.39,35.00 610.03,35.00 610.64,35.00 611.27,35.00 611.90,35.00 612.52,35.00 613.14,35.00 613.76,35.00 614.38,35.00 615.00,35.00 615.62,35.00 616.24,35.00 616.87,35.00 617.50,35.00 618.11,35.00 618.73,35.00 619.35,35.00 619.97,35.00 620.59,35.00 621.21,35.00 621.82,35.00 622.44,35.00 623.06,35.00 623.68,35.00 624.29,35.00 624.92,35.00 625.53,35.00 626.15,35.00 626.76,35.00 627.38,35.00 628.00,35.00 628.63,35.00 629.24,35.00 629.86,35.00 630.47,35.00 631.09,35.00 631.71,35.00 632.33,35.00 632.95,35.00 633.58,35.00 634.19,35.00 634.81,35.00 635.42,35.00 636.04,35.00 636.66,35.00 637.27,35.00 637.90,35.00 638.54,35.00 639.16,35.00 639.80,35.00 640.43,35.00 641.06,35.00 641.69,35.00 642.32,35.00 642.97,35.00 643.60,35.00 644.23,35.00 644.85,35.00 645.46,35.00 646.09,35.00 646.71,35.00 647.33,35.00 647.95,35.00 648.57,35.00 649.20,35.00 649.81,35.00 650.43,35.00 651.05,35.00 651.66,35.00 652.28,35.00 652.90,35.00 653.52,35.00 654.14,35.00 654.76,35.00 655.37,35.00 656.00,35.00 656.62,35.00 657.24,35.00 657.86,35.00 658.48,35.00 659.10,35.00 659.72,35.00 660.34,35.00 660.95,35.00 661.57,35.00 662.19,35.00 662.81,35.00 663.43,35.00 664.05,35.00 664.67,35.00 665.29,35.00 665.95,35.00 666.59,35.00 667.20,35.00 667.82,35.00 668.44,35.00 669.07,35.00 669.69,35.00 670.32,35.00 670.94,35.00 671.55,35.00 672.15,35.00 672.77,35.00 673.39,35.00 674.01,35.00 674.63,35.00 675.25,35.00 675.87,35.00 676.49,35.00 677.12,35.00 677.73,35.00 678.35,35.00 678.96,35.00 679.59,35.00 680.21,35.00 680.82,35.00 681.44,35.00 682.07,35.00 682.68,35.00 683.30,35.00 683.95,35.00 684.57,35.00 685.19,35.00 685.80,35.00 686.42,35.00 687.04,35.00 687.67,35.00 688.29,35.00 688.90,35.00 689.53,35.00 690.15,35.00 690.78,35.00 691.40,35.00 692.02,35.00 692.64,35.00 693.25,35.00 693.88,35.00 694.49,35.00 695.11,35.00 695.73,35.00 696.36,35.00 696.98,35.00 697.59,35.00 698.21,35.00 698.83,35.00 699.45,35.00 700.07,35.00 700.68,35.00 701.30,35.00 701.92,35.00 702.54,35.00 703.16,35.00 703.78,35.00 704.40,35.00 705.02,35.00 705.64,35.00 706.26,35.00 706.87,35.00 707.49,35.00 708.10,35.00 708.72,35.00 709.34,35.00 709.96,35.00 710.59,35.00 711.21,35.00 711.83,35.00 712.46,35.00 713.07,35.00 713.70,35.00 714.37,35.00 715.00,35.00 715.62,35.00 716.25,35.00 716.87,35.00 717.49,35.00 718.11,35.00 718.73,35.00 719.35,35.00 719.97,35.00 720.59,35.00 721.21,35.00 721.83,35.00 722.46,35.00 723.09,35.00 723.71,35.00 724.32,35.00 724.94,35.00 725.56,35.00 726.19,35.00 726.80,35.00 727.42,35.00 728.05,35.00 728.67,35.00 729.29,35.00 729.91,35.00 730.53,35.00 731.15,35.00 731.78,35.00 732.40,35.00 733.02,35.00 733.64,35.00 734.26,35.00 734.88,35.00 735.50,35.00 736.11,35.00 736.73,35.00 737.35,35.00 737.97,35.00 738.60,35.00 739.21,35.00 739.83,35.00 740.45,35.00 741.07,35.00 741.69,35.00 742.31,35.00 742.93,35.00 743.56,35.00 744.18,35.00 744.78,35.00 745.39,35.00 746.00,35.00 746.63,35.00 747.25,35.00 747.87,35.00 748.50,35.00 749.11,35.00 749.74,35.00 750.37,35.00 750.98,35.00 751.60,35.00 752.21,35.00 752.83,35.00 753.44,35.00 754.06,35.00 754.68,35.00 755.30,35.00 755.92,35.00 756.53,35.00 757.15,35.00 757.77,35.00 758.39,35.00 759.01,35.00 759.62,35.00 760.24,35.00 760.84,35.00 761.47,35.00 762.09,35.00 762.71,35.00 763.33,35.00 763.96,35.00 764.57,35.00 765.19,35.00 765.81,35.00 766.43,35.00 767.05,35.00 767.67,35.00 768.34,35.00 768.95,35.00 769.58,35.00 770.20,35.00 770.83,35.00 771.44,35.00 772.06,35.00 772.68,35.00 773.30,35.00 773.92,35.00 774.53,35.00 775.15,35.00 775.77,35.00 776.40,35.00 777.02,35.00 777.63,35.00 778.25,35.00 778.87,35.00 779.49,35.00 780.12,35.00 780.74,35.00 781.37,35.00 782.00,35.00 782.62,35.00 783.24,35.00 783.86,35.00 784.48,35.00 785.11,35.00 785.73,35.00 786.34,35.00 786.96,35.00 787.58,35.00 788.20,35.00 788.82,35.00 789.44,35.00 790.06,35.00 790.68,35.00 791.30,35.00 791.91,35.00 792.53,35.00 793.15,35.00 793.77,35.00 794.38,35.00 795.00,35.00 795.62,35.00 796.24,35.00 796.85,35.00 797.47,35.00 798.08,35.00 798.70,35.00 799.32,35.00 799.93,35.00 800.55,35.00 801.16,35.00 801.78,35.00 802.40,35.00 803.02,35.00 803.64,35.00 804.25,35.00 804.86,35.00 805.48,35.00 806.11,35.00 806.72,35.00 807.34,35.00 807.96,35.00 808.61,35.00 809.22,35.00 809.84,35.00 810.47,35.00 811.09,35.00 811.71,35.00 812.33,35.00 812.95,35.00 813.57,35.00 814.18,35.00 814.80,35.00 815.41,35.00 816.03,35.00 816.65,35.00 817.27,35.00 817.89,35.00 818.50,35.00 819.12,35.00 819.74,35.00 820.36,35.00 820.98,35.00 821.63,35.00 822.25,35.00 822.86,35.00 823.47,35.00 824.08,35.00 824.72,35.00 825.33,35.00 825.95,35.00 826.57,35.00 827.19,35.00 827.81,35.00 828.43,35.00 829.05,35.00 829.67,35.00 830.29,35.00 830.91,35.00 831.53,35.00 832.14,35.00 832.76,35.00 833.37,35.00 833.99,35.00 834.61,35.00 835.22,35.00 835.84,35.00 836.46,35.00 837.08,35.00 837.70,35.00 838.32,35.00 838.94,35.00 839.55,35.00 840.17,35.00 840.79,35.00 841.40,35.00 842.03,35.00 842.64,35.00 843.26,35.00 843.88,35.00 844.50,35.00 845.11,35.00 845.73,35.00 846.35,35.00 846.96,35.00 847.60,35.00 848.22,35.00 848.83,35.00 849.45,35.00 850.07,35.00 850.69,35.00 851.33,35.00 851.95,35.00 852.61,35.00 853.23,35.00 853.89,35.00 854.51,35.00 855.12,35.00 855.74,35.00 856.36,35.00 856.97,35.00 857.59,35.00 858.21,35.00 858.83,35.00 859.45,35.00 860.07,35.00 860.68,35.00 861.30,35.00 861.92,35.00 862.54,35.00 863.15,35.00 863.77,35.00 864.38,35.00 865.01,35.00 865.62,35.00 866.25,35.00 866.86,35.00 867.47,35.00 868.09,35.00 868.71,35.00 869.34,35.00 869.95,35.00 870.57,35.00 871.19,35.00 871.81,35.00 872.42,35.00 873.04,35.00 873.66,35.00 874.27,35.00 874.89,35.00 875.50,35.00 876.11,35.00 876.73,35.00 877.35,35.00 877.97,35.00 878.59,35.00 879.21,35.00 879.85,35.00 880.47,35.00 881.09,35.00 881.70,35.00 882.32,35.00 882.93,35.00 883.54,35.00 884.16,35.00 884.78,35.00 885.39,35.00 886.01,35.00 886.62,35.00 887.24,35.00 887.85,35.00 888.47,35.00 889.09,35.00 889.70,35.00 890.33,35.00 890.94,35.00 891.56,35.00 892.18,35.00 892.80,35.00 893.41,35.00 894.03,35.00 894.65,35.00 895.27,35.00 895.89,35.00 896.51,35.00 897.14,35.00 897.75,35.00 898.37,35.00 898.99,35.00 899.61,35.00 900.22,35.00 900.86,35.00 901.48,35.00 902.10,35.00 902.72,35.00 903.34,35.00 903.96,35.00 904.57,35.00 905.19,35.00 905.82,35.00 906.44,35.00 907.05,35.00 907.67,35.00 908.29,35.00 908.91,35.00 909.53,35.00 910.16,35.00 910.80,35.00 911.45,35.00 912.08,35.00 912.70,35.00 913.31,35.00 913.92,35.00 914.55,35.00 915.16,35.00 915.78,35.00 916.41,35.00 917.03,35.00 917.65,35.00 918.26,35.00 918.87,35.00 919.49,35.00 920.11,35.00 920.74,35.00 921.37,35.00 922.00,35.00 922.62,35.00 923.25,35.00 923.90,35.00 924.52,35.00 925.18,35.00 925.80,35.00 926.42,35.00 927.04,35.00 927.66,35.00 928.27,35.00 928.89,35.00 929.51,35.00 930.13,35.00 930.74,35.00 931.36,35.00 931.99,35.00 932.61,35.00 933.23,35.00 933.86,35.00 934.58,35.00 935.20,35.00 935.82,35.00 936.43,35.00 937.05,35.00 937.66,35.00 938.27,35.00 938.84,35.00 939.40,35.00 940.07,35.00 940.65,35.00 941.21,35.00 941.84,35.00 942.38,35.00 942.99,35.00 943.61,35.00 944.23,35.00 944.85,35.00 945.46,35.00 946.08,35.00 946.69,35.00 947.31,35.00 947.93,35.00 948.55,35.00 949.16,35.00 949.78,35.00 950.40,35.00 951.01,35.00 951.63,35.00 952.24,35.00 952.85,35.00 953.46,35.00 954.08,35.00 954.70,35.00 955.31,35.00 955.93,35.00 956.55,35.00 957.17,35.00 957.77,35.00 958.39,35.00 959.01,35.00 959.62,35.00 960.23,35.00 960.85,35.00 961.46,35.00 962.08,35.00 962.69,35.00 963.31,35.00 963.92,35.00 964.54,35.00 965.16,35.00 965.78,35.00 966.39,35.00 967.00,35.00 967.62,35.00 968.24,35.00 968.86,35.00 969.47,35.00 970.08,35.00 970.69,35.00 971.30,35.00 971.92,35.00 972.53,35.00 973.14,35.00 973.77,35.00 974.39,35.00 975.01,35.00 975.62,35.00 976.24,35.00 976.86,35.00 977.48,35.00 978.10,35.00 978.72,35.00 979.33,35.00 979.95,35.00 980.56,35.00 981.17,35.00 981.79,35.00 982.41,35.00 983.02,35.00 983.64,35.00 984.26,35.00 984.87,35.00 985.49,35.00 986.10,35.00 986.72,35.00 987.34,35.00 987.95,35.00 988.57,35.00 989.19,35.00 989.81,35.00 990.48,35.00 991.10,35.00 991.71,35.00 992.33,35.00 992.94,35.00 993.56,35.00 994.17,35.00 994.80,35.00 995.66,35.00 996.27,35.00 997.13,35.00 997.75,35.00 998.37,35.00 998.98,35.00 999.60,35.00 1000.22,35.00 1000.83,35.00 1001.44,35.00 1002.06,35.00 1002.67,35.00 1003.29,35.00 1003.90,35.00 1004.51,35.00 1005.14,35.00 1005.76,35.00 1006.37,35.00 1006.99,35.00 1007.61,35.00 1008.22,35.00 1008.85,35.00 1009.47,35.00 1010.08,35.00 1010.70,35.00 1011.31,35.00 1011.93,35.00 1012.55,35.00 1013.17,35.00 1013.79,35.00 1014.40,35.00 1015.02,35.00 1015.64,35.00 1016.27,35.00 1016.91,35.00 1017.53,35.00 1018.17,35.00 1018.79,35.00 1019.41,35.00 1020.03,35.00 1020.65,35.00 1021.26,35.00 1021.88,35.00 1022.50,35.00 1023.11,35.00 1023.74,35.00 1024.36,35.00 1024.98,35.00 1025.60,35.00 1026.22,35.00 1026.84,35.00 1027.46,35.00 1028.08,35.00 1028.70,35.00 1029.32,35.00 1029.94,35.00 1030.56,35.00 1031.18,35.00 1031.81,35.00 1032.42,35.00 1033.04,35.00 1033.66,35.00 1034.28,35.00 1034.89,35.00 1035.53,35.00 1036.15,35.00 1036.77,35.00 1037.39,35.00 1038.01,35.00 1038.63,35.00 1039.24,35.00 1039.86,35.00 1040.48,35.00 1041.10,35.00 1041.71,35.00 1042.33,35.00 1042.94,35.00 1043.56,35.00 1044.20,35.00 1044.82,35.00 1045.45,35.00 1046.06,35.00 1046.67,35.00 1047.30,35.00 1047.91,35.00 1048.53,35.00 1049.15,35.00 1049.76,35.00 1050.38,35.00 1051.00,35.00 1051.63,35.00 1052.25,35.00 1052.87,35.00 1053.48,35.00 1054.10,35.00 1054.72,35.00 1055.34,35.00 1055.96,35.00 1056.58,35.00 1057.20,35.00 1057.82,35.00 1058.45,35.00 1059.06,35.00 1059.68,35.00 1060.31,35.00 1060.93,35.00 1061.55,35.00 1062.18,35.00 1062.79,35.00 1063.41,35.00 1064.02,35.00 1064.64,35.00 1065.27,35.00 1065.89,35.00 1066.52,35.00 1067.15,35.00 1067.77,35.00 1068.39,35.00 1069.01,35.00 1069.63,35.00 1070.24,35.00 1070.87,35.00 1071.49,35.00 1072.11,35.00 1072.73,35.00 1073.35,35.00 1073.97,35.00 1074.59,35.00 1075.21,35.00 1075.83,35.00 1076.45,35.00 1077.07,35.00 1077.70,35.00 1078.33,35.00 1078.94,35.00 1079.57,35.00 1080.19,35.00 1080.81,35.00 1081.42,35.00 1082.04,35.00 1082.69,35.00 1083.31,35.00 1083.92,35.00 1084.55,35.00 1085.17,35.00 1085.79,35.00 1086.42,35.00 1087.05,35.00 1087.68,35.00 1088.30,35.00 1088.93,35.00 1089.55,35.00 1090.21,35.00 1090.82,35.00 1091.45,35.00 1092.06,35.00 1092.68,35.00 1093.30,35.00 1093.92,35.00 1094.54,35.00 1095.17,35.00 1095.78,35.00 1096.42,35.00 1097.04,35.00 1097.66,35.00 1098.28,35.00 1098.90,35.00 1099.52,35.00 1100.16,35.00 1100.78,35.00 1101.39,35.00 1102.02,35.00 1102.63,35.00 1103.25,35.00 1103.89,35.00 1104.51,35.00 1105.12,35.00 1105.73,35.00 1106.34,35.00 1106.96,35.00 1107.58,35.00 1108.20,35.00 1108.84,35.00 1109.45,35.00 1110.07,35.00 1110.69,35.00 1111.31,35.00 1111.92,35.00 1112.54,35.00 1113.16,35.00 1113.78,35.00 1114.40,35.00 1115.02,35.00 1115.63,35.00 1116.25,35.00 1116.87,35.00 1117.51,35.00 1118.13,35.00 1118.76,35.00 1119.37,35.00 1119.98,35.00 1120.60,35.00 1121.21,35.00 1121.83,35.00 1122.45,35.00 1123.10,35.00 1123.72,35.00 1124.34,35.00 1124.96,35.00 1125.57,35.00 1126.19,35.00 1126.80,35.00 1127.41,35.00 1128.04,35.00 1128.65,35.00 1129.27,35.00 1129.88,35.00 1130.49,35.00 1131.12,35.00 1131.74,35.00 1132.35,35.00 1132.96,35.00 1133.58,35.00 1134.20,35.00 1134.83,35.00 1135.45,35.00 1136.07,35.00 1136.69,35.00 1137.30,35.00 1137.92,35.00 1138.55,35.00 1139.16,35.00 1139.78,35.00 1140.40,35.00 1141.01,35.00 1141.63,35.00 1142.25,35.00 1142.86,35.00 1143.48,35.00 1144.09,35.00 1144.71,35.00 1145.33,35.00 1145.94,35.00 1146.55,35.00 1147.16,35.00 1147.78,35.00 1148.40,35.00 1149.02,35.00 1149.64,35.00 1150.26,35.00 1150.88,35.00 1151.50,35.00 1152.11,35.00 1152.73,35.00 1153.34,35.00 1153.97,35.00 1154.58,35.00 1155.20,35.00 1155.82,35.00 1156.44,35.00 1157.06,35.00 1157.68,35.00 1158.30,35.00 1158.92,35.00 1159.55,35.00 1160.17,35.00 1160.79,35.00 1161.41,35.00 1162.03,35.00 1162.64,35.00 1163.26,35.00 1163.87,35.00 1164.49,35.00 1165.11,35.00 1165.72,35.00 1166.34,35.00 1166.98,35.00 1167.60,35.00 1168.22,35.00 1168.83,35.00 1169.45,35.00 1170.09,35.00 1170.72,35.00 1171.37,35.00 1171.98,35.00 1172.58,35.00 1173.20,35.00 1173.81,35.00 1174.42,35.00 1175.04,35.00 1175.67,35.00 1176.29,35.00 1176.90,35.00 1177.52,35.00 1178.15,35.00 1178.76,35.00 1179.38,35.00 1180.00,35.00"/>
<polyline fill="none" stroke="#1f77b4" stroke-opacity="0.65" stroke-width="2" points="70.00,35.00 70.62,35.00 71.23,35.00 71.85,35.00 72.47,35.00 73.09,35.00 73.70,35.00 74.32,35.00 74.98,35.00 75.60,35.00 76.21,35.00 76.82,35.00 77.45,35.00 78.06,35.00 78.67,35.00 79.78,35.00 80.73,35.00 81.36,35.00 81.99,35.00 82.60,35.00 83.22,35.00 83.82,35.00 84.44,35.00 85.05,35.00 85.67,35.00 86.29,35.00 86.92,35.00 87.54,35.00 88.16,35.00 88.80,35.00 89.43,35.00 90.04,35.00 90.67,35.00 91.29,35.00 91.90,35.00 92.54,35.00 93.15,35.00 93.77,35.00 94.39,35.00 95.00,35.00 95.62,35.00 96.23,35.00 96.84,35.00 97.46,35.00 98.07,35.00 98.70,35.00 99.32,35.00 99.93,35.00 100.54,35.00 101.17,35.00 101.78,35.00 102.49,35.00 103.10,35.00 103.72,35.00 104.33,35.00 104.94,35.00 105.55,35.00 106.16,35.00 106.78,35.00 107.39,35.00 108.02,35.00 108.63,35.00 109.24,35.00 109.86,35.00 110.49,35.00 111.10,35.00 111.72,35.00 112.33,35.00 112.94,35.00 113.55,35.00 114.16,35.00 114.77,35.00 115.39,35.00 116.00,35.00 116.62,35.00 117.23,35.00 117.84,35.00 118.46,35.00 119.07,35.00 119.69,35.00 120.32,35.00 120.93,35.00 121.55,35.00 122.17,35.00 122.78,35.00 123.40,35.00 124.01,35.00 124.62,35.00 125.23,35.00 125.85,35.00 126.47,35.00 127.08,35.00 127.70,35.00 128.31,35.00 128.93,35.00 129.54,35.00 130.16,35.00 130.77,35.00 131.38,35.00 131.99,35.00 132.61,35.00 133.23,35.00 133.84,35.00 134.46,35.00 135.08,35.00 135.70,35.00 136.32,35.00 136.93,35.00 137.54,35.00 138.16,35.00 138.78,35.00 139.39,35.00 140.01,35.00 140.62,35.00 141.24,35.00 141.86,35.00 142.48,35.00 143.10,35.00 143.72,35.00 144.33,35.00 144.95,35.00 145.56,35.00 146.18,35.00 146.80,35.00 147.46,35.00 148.08,35.00 148.70,35.00 149.31,35.00 149.92,35.00 150.53,35.00 151.14,35.00 151.75,35.00 152.37,35.00 152.98,35.00 153.60,35.00 154.21,35.00 154.82,35.00 155.43,35.00 156.06,35.00 156.67,35.00 157.29,35.00 157.90,35.00 158.52,35.00 159.13,35.00 159.75,35.00 160.37,35.00 160.98,35.00 161.60,35.00 162.21,35.00 162.82,35.00 163.43,35.00 164.05,35.00 164.66,35.00 165.28,35.00 165.90,35.00 166.52,35.00 167.13,35.00 167.75,35.00 168.37,35.00 168.98,35.00 169.60,35.00 170.21,35.00 170.84,35.00 171.46,35.00 172.08,35.00 172.69,35.00 173.30,35.00 173.91,35.00 174.53,35.00 175.15,35.00 175.76,35.00 176.37,35.00 176.98,35.00 177.60,35.00 178.22,35.00 178.83,35.00 179.45,35.00 180.08,35.00 180.69,35.00 181.31,35.00 181.92,35.00 182.53,35.00 183.20,35.00 183.83,35.00 184.44,35.00 185.05,35.00 185.66,35.00 186.27,35.00 186.89,35.00 187.51,35.00 188.12,35.00 188.74,35.00 189.35,35.00 189.96,35.00 190.59,35.00 191.21,35.00 191.82,35.00 192.43,35.00 193.05,35.00 193.68,35.00 194.31,35.00 194.92,35.00 195.54,35.00 196.15,35.00 196.77,35.00 197.38,35.00 198.00,35.00 198.62,35.00 199.24,35.00 199.85,35.00 200.47,35.00 201.08,35.00 201.70,35.00 202.31,35.00 202.94,35.00 203.55,35.00 204.17,35.00 204.78,35.00 205.39,35.00 206.01,35.00 206.62,35.00 207.23,35.00 207.85,35.00 208.45,35.00 209.07,35.00 209.69,35.00 210.30,35.00 210.92,35.00 211.55,35.00 212.16,35.00 212.78,35.00 213.39,35.00 214.01,35.00 214.63,35.00 215.24,35.00 215.86,35.00 216.49,35.00 217.10,35.00 217.72,35.00 218.34,35.00 218.95,35.00 219.57,35.00 220.18,35.00 220.79,35.00 221.41,35.00 222.03,35.00 222.64,35.00 223.26,35.00 223.88,35.00 224.49,35.00 225.11,35.00 225.73,35.00 226.35,35.00 226.96,35.00 227.58,35.00 228.20,35.00 228.82,35.00 229.44,35.00 230.05,35.00 230.67,35.00 231.35,35.00 231.97,35.00 232.58,35.00 233.20,35.00 233.82,35.00 234.44,35.00 235.06,35.00 235.67,35.00 236.28,35.00 236.92,35.00 237.54,35.00 238.15,35.00 238.77,35.00 239.38,35.00 240.00,35.00 240.62,35.00 241.25,35.00 241.87,35.00 242.49,35.00 243.11,35.00 243.77,35.00 244.39,35.00 245.16,35.00 246.20,35.00 246.83,35.00 247.46,35.00 248.08,35.00 248.68,35.00 249.29,35.00 249.92,35.00 250.54,35.00 251.16,35.00 251.80,35.00 252.43,35.00 253.09,35.00 253.70,35.00 254.32,35.00 254.94,35.00 255.56,35.00 256.18,35.00 256.81,35.00 257.42,35.00 258.03,35.00 258.67,35.00 259.29,35.00 259.90,35.00 260.52,35.00 261.14,35.00 261.78,35.00 262.40,35.00 263.02,35.00 263.65,35.00 264.24,35.00 264.85,35.00 265.48,35.00 266.09,35.00 266.72,35.00 267.35,35.00 267.97,35.00 268.59,35.00 269.21,35.00 269.83,35.00 270.45,35.00 271.06,35.00 271.67,35.00 272.29,35.00 272.91,35.00 273.52,35.00 274.26,35.00 274.98,35.00 275.71,35.00 276.42,35.00 277.13,35.00 277.84,35.00 278.57,35.00 279.28,35.00 279.90,35.00 280.51,35.00 281.12,35.00 281.74,35.00 282.35,35.00 282.96,35.00 283.58,35.00 284.19,35.00 284.80,35.00 285.42,35.00 286.03,35.00 286.65,35.00 287.26,35.00 287.87,35.00 288.48,35.00 289.10,35.00 289.71,35.00 290.32,35.00 290.94,35.00 291.56,35.00 292.17,35.00 292.78,35.00 293.39,35.00 294.00,35.00 294.62,35.00 295.24,35.00 295.85,35.00 296.46,35.00 297.08,35.00 297.69,35.00 298.31,35.00 298.92,35.00 299.53,35.00 300.15,35.00 300.75,35.00 301.36,35.00 301.97,35.00 302.58,35.00 303.20,35.00 303.81,35.00 304.42,35.00 305.03,35.00 305.64,35.00 306.25,35.00 306.86,35.00 307.49,35.00 308.15,35.00 308.77,35.00 309.39,35.00 310.00,35.00 310.61,35.00 311.22,35.00 311.83,35.00 312.44,35.00 313.17,35.00 313.89,35.00 314.60,35.00 315.33,35.00 316.05,35.00 316.77,35.00 317.50,35.00 318.25,35.00 318.92,35.00 319.58,35.00 320.20,35.00 320.82,35.00 321.43,35.00 322.04,35.00 322.65,35.00 323.27,35.00 323.88,35.00 324.50,35.00 325.11,35.00 325.72,35.00 326.34,35.00 326.95,35.00 327.57,35.00 328.19,35.00 328.80,35.00 329.34,35.00 329.97,35.00 330.59,35.00 331.22,35.00 331.83,35.00 332.44,35.00 333.06,35.00 333.68,35.00 334.30,35.00 334.92,35.00 335.54,35.00 336.17,35.00 336.78,35.00 337.39,35.00 338.00,35.00 338.61,35.00 339.22,35.00 339.83,35.00 340.45,35.00 341.07,35.00 341.68,35.00 342.30,35.00 342.91,35.00 343.53,35.00 344.14,35.00 344.76,35.00 345.38,35.00 345.99,35.00 346.61,35.00 347.23,35.00 347.84,35.00 348.48,35.00 349.09,35.00 349.70,35.00 350.31,35.00 350.92,35.00 351.53,35.00 352.16,35.00 352.77,35.00 353.38,35.00 353.99,35.00 354.61,35.00 355.22,35.00 355.84,35.00 356.46,35.00 357.07,35.00 357.81,35.00 358.44,35.00 359.08,35.00 359.70,35.00 360.31,35.00 360.94,35.00 361.54,35.00 362.16,35.00 362.78,35.00 363.40,35.00 364.01,35.00 364.63,35.00 365.25,35.00 365.86,35.00 366.50,35.00 367.12,35.00 367.74,35.00 368.36,35.00 368.97,35.00 369.59,35.00 370.20,35.00 370.81,35.00 371.45,35.00 372.07,35.00 372.69,35.00 373.31,35.00 373.92,35.00 374.54,35.00 375.15,35.00 375.77,35.00 376.39,35.00 377.00,35.00 377.62,35.00 378.24,35.00 378.85,35.00 379.47,35.00 380.08,35.00 380.71,35.00 381.32,35.00 381.94,35.00 382.55,35.00 383.17,35.00 383.79,35.00 384.41,35.00 385.15,35.00 385.78,35.00 386.40,35.00 387.01,35.00 387.62,35.00 388.24,35.00 388.86,35.00 389.48,35.00 390.11,35.00 390.72,35.00 391.33,35.00 391.94,35.00 392.56,35.00 393.18,35.00 393.79,35.00 394.41,35.00 395.02,35.00 395.63,35.00 396.25,35.00 396.86,35.00 397.49,35.00 398.10,35.00 398.71,35.00 399.33,35.00 399.96,35.00 400.57,35.00 401.18,35.00 401.80,35.00 402.43,35.00 403.04,35.00 403.66,35.00 404.28,35.00 404.90,35.00 405.51,35.00 406.13,35.00 406.75,35.00 407.38,35.00 407.99,35.00 408.61,35.00 409.21,35.00 409.83,35.00 410.44,35.00 411.06,35.00 411.67,35.00 412.30,35.00 412.92,35.00 413.54,35.00 414.14,35.00 414.77,35.00 415.38,35.00 415.99,35.00 416.61,35.00 417.22,35.00 417.84,35.00 418.46,35.00 419.08,35.00 419.69,35.00 420.31,35.00 420.93,35.00 421.55,35.00 422.17,35.00 422.79,35.00 423.48,35.00 424.16,35.00 424.82,35.00 425.44,35.00 426.08,35.00 426.70,35.00 427.32,35.00 427.93,35.00 428.50,35.00 429.15,35.00 429.76,35.00 430.39,35.00 430.99,35.00 431.61,35.00 432.22,35.00 432.84,35.00 433.46,35.00 434.07,35.00 434.69,35.00 435.31,35.00 435.92,35.00 436.54,35.00 437.17,35.00 437.79,35.00 438.41,35.00 439.02,35.00 439.64,35.00 440.27,35.00 440.89,35.00 441.50,35.00 442.11,35.00 442.73,35.00 443.34,35.00 443.96,35.00 444.58,35.00 445.19,35.00 445.82,35.00 446.43,35.00 447.04,35.00 447.66,35.00 448.28,35.00 448.90,35.00 449.52,35.00 450.13,35.00 450.75,35.00 451.37,35.00 451.99,35.00 452.61,35.00 453.23,35.00 453.85,35.00 454.46,35.00 455.08,35.00 455.70,35.00 456.32,35.00 456.96,35.00 457.57,35.00 458.19,35.00 458.81,35.00 459.42,35.00 460.04,35.00 460.66,35.00 461.28,35.00 461.90,35.00 462.51,35.00 463.13,35.00 463.75,35.00 464.37,35.00 464.99,35.00 465.61,35.00 466.23,35.00 466.85,35.00 467.47,35.00 468.10,35.00 468.71,35.00 469.33,35.00 469.95,35.00 470.56,35.00 471.20,35.00 471.82,35.00 472.44,35.00 473.06,35.00 473.67,35.00 474.29,35.00 474.90,35.00 475.52,35.00 476.14,35.00 476.76,35.00 477.37,35.00 477.99,35.00 478.61,35.00 479.23,35.00 479.85,35.00 480.46,35.00 481.09,35.00 481.71,35.00 482.33,35.00 482.95,35.00 483.56,35.00 484.17,35.00 484.79,35.00 485.40,35.00 486.02,35.00 486.65,35.00 487.26,35.00 487.89,35.00 488.50,35.00 489.12,35.00 489.75,35.00 490.36,35.00 490.98,35.00 491.61,35.00 492.22,35.00 492.84,35.00 493.46,35.00 494.09,35.00 494.71,35.00 495.32,35.00 495.96,35.00 496.58,35.00 497.20,35.00 497.82,35.00 498.43,35.00 499.05,35.00 499.67,35.00 500.30,35.00 500.92,35.00 501.54,35.00 502.15,35.00 502.76,35.00 503.40,35.00 504.01,35.00 504.64,35.00 505.25,35.00 505.87,35.00 506.48,35.00 507.10,35.00 507.71,35.00 508.33,35.00 508.95,35.00 509.57,35.00 510.18,35.00 510.80,35.00 511.42,35.00 512.06,35.00 512.68,35.00 513.29,35.00 513.91,35.00 514.52,35.00 515.14,35.00 515.76,35.00 516.38,35.00 517.00,35.00 517.62,35.00 518.24,35.00 518.86,35.00 519.47,35.00 520.09,35.00 520.72,35.00 521.35,35.00 521.98,35.00 522.60,35.00 523.22,35.00 523.84,35.00 524.46,35.00 525.07,35.00 525.69,35.00 526.30,35.00 526.93,35.00 527.55,35.00 528.17,35.00 528.79,35.00 529.42,35.00 530.06,35.00 530.68,35.00 531.29,35.00 531.91,35.00 532.53,35.00 533.15,35.00 533.77,35.00 534.40,35.00 535.02,35.00 535.64,35.00 536.26,35.00 536.88,35.00 537.51,35.00 538.12,35.00 538.74,35.00 539.36,35.00 539.98,35.00 540.60,35.00 541.23,35.00 541.84,35.00 542.46,35.00 543.08,35.00 543.71,35.00 544.32,35.00 544.94,35.00 545.57,35.00 546.21,35.00 546.83,35.00 547.45,35.00 548.07,35.00 548.70,35.00 549.34,35.00 549.97,35.00 550.59,35.00 551.23,35.00 551.86,35.00 552.47,35.00 553.09,35.00 553.71,35.00 554.33,35.00 554.96,35.00 555.59,35.00 556.21,35.00 556.83,35.00 557.45,35.00 558.06,35.00 558.68,35.00 559.30,35.00 559.92,35.00 560.54,35.00 561.15,35.00 561.77,35.00 562.39,35.00 563.00,35.00 563.62,35.00 564.24,35.00 564.86,35.00 565.48,35.00 566.10,35.00 566.72,35.00 567.34,35.00 567.96,35.00 568.58,35.00 569.20,35.00 569.81,35.00 570.43,35.00 571.05,35.00 571.67,35.00 572.29,35.00 572.90,35.00 573.51,35.00 574.13,35.00 574.75,35.00 575.37,35.00 575.99,35.00 576.61,35.00 577.22,35.00 577.84,35.00 578.46,35.00 579.08,35.00 579.69,35.00 580.30,35.00 580.91,35.00 581.53,35.00 582.15,35.00 582.78,35.00 583.39,35.00 584.01,35.00 584.63,35.00 585.26,35.00 585.88,35.00 586.50,35.00 587.12,35.00 587.74,35.00 588.36,35.00 588.98,35.00 589.60,35.00 590.23,35.00 590.85,35.00 591.47,35.00 592.08,35.00 592.70,35.00 593.31,35.00 593.93,35.00 594.55,35.00 595.16,35.00 595.78,35.00 596.40,35.00 597.02,35.00 597.63,35.00 598.25,35.00 598.87,35.00 599.49,35.00 600.11,35.00 600.73,35.00 601.35,35.00 601.97,35.00 602.58,35.00 603.21,35.00 603.82,35.00 604.44,35.00 605.06,35.00 605.68,35.00 606.29,35.00 606.92,35.00 607.54,35.00 608.16,35.00 608.77,35.00 609.39,35.00 610.03,35.00 610.64,35.00 611.27,35.00 611.90,35.00 612.52,35.00 613.14,35.00 613.76,35.00 614.38,35.00 615.00,35.00 615.62,35.00 616.24,35.00 616.87,35.00 617.50,35.00 618.11,35.00 618.73,35.00 619.35,35.00 619.97,35.00 620.59,35.00 621.21,35.00 621.82,35.00 622.44,35.00 623.06,35.00 623.68,35.00 624.29,35.00 624.92,35.00 625.53,35.00 626.15,35.00 626.76,35.00 627.38,35.00 628.00,35.00 628.63,35.00 629.24,35.00 629.86,35.00 630.47,35.00 631.09,35.00 631.71,35.00 632.33,35.00 632.95,35.00 633.58,35.00 634.19,35.00 634.81,35.00 635.42,35.00 636.04,35.00 636.66,35.00 637.27,35.00 637.90,35.00 638.54,35.00 639.16,35.00 639.80,35.00 640.43,35.00 641.06,35.00 641.69,35.00 642.32,35.00 642.97,35.00 643.60,35.00 644.23,35.00 644.85,35.00 645.46,35.00 646.09,35.00 646.71,35.00 647.33,35.00 647.95,35.00 648.57,35.00 649.20,35.00 649.81,35.00 650.43,35.00 651.05,35.00 651.66,35.00 652.28,35.00 652.90,35.00 653.52,35.00 654.14,35.00 654.76,35.00 655.37,35.00 656.00,35.00 656.62,35.00 657.24,35.00 657.86,35.00 658.48,35.00 659.10,35.00 659.72,35.00 660.34,35.00 660.95,35.00 661.57,35.00 662.19,35.00 662.81,35.00 663.43,35.00 664.05,35.00 664.67,35.00 665.29,35.00 665.95,35.00 666.59,35.00 667.20,35.00 667.82,35.00 668.44,35.00 669.07,35.00 669.69,35.00 670.32,35.00 670.94,35.00 671.55,35.00 672.15,35.00 672.77,35.00 673.39,35.00 674.01,35.00 674.63,35.00 675.25,35.00 675.87,35.00 676.49,35.00 677.12,35.00 677.73,35.00 678.35,35.00 678.96,35.00 679.59,35.00 680.21,35.00 680.82,35.00 681.44,35.00 682.07,35.00 682.68,35.00 683.30,35.00 683.95,35.00 684.57,35.00 685.19,35.00 685.80,35.00 686.42,35.00 687.04,35.00 687.67,35.00 688.29,35.00 688.90,35.00 689.53,35.00 690.15,35.00 690.78,35.00 691.40,35.00 692.02,35.00 692.64,35.00 693.25,35.00 693.88,35.00 694.49,35.00 695.11,35.00 695.73,35.00 696.36,35.00 696.98,35.00 697.59,35.00 698.21,35.00 698.83,35.00 699.45,35.00 700.07,35.00 700.68,35.00 701.30,35.00 701.92,35.00 702.54,35.00 703.16,35.00 703.78,35.00 704.40,35.00 705.02,35.00 705.64,35.00 706.26,35.00 706.87,35.00 707.49,35.00 708.10,35.00 708.72,35.00 709.34,35.00 709.96,35.00 710.59,35.00 711.21,35.00 711.83,35.00 712.46,35.00 713.07,35.00 713.70,35.00 714.37,35.00 715.00,35.00 715.62,35.00 716.25,35.00 716.87,35.00 717.49,35.00 718.11,35.00 718.73,35.00 719.35,35.00 719.97,35.00 720.59,35.00 721.21,35.00 721.83,35.00 722.46,35.00 723.09,35.00 723.71,35.00 724.32,35.00 724.94,35.00 725.56,35.00 726.19,35.00 726.80,35.00 727.42,35.00 728.05,35.00 728.67,35.00 729.29,35.00 729.91,35.00 730.53,35.00 731.15,35.00 731.78,35.00 732.40,35.00 733.02,35.00 733.64,35.00 734.26,35.00 734.88,35.00 735.50,35.00 736.11,35.00 736.73,35.00 737.35,35.00 737.97,35.00 738.60,35.00 739.21,35.00 739.83,35.00 740.45,35.00 741.07,35.00 741.69,35.00 742.31,35.00 742.93,35.00 743.56,35.00 744.18,35.00 744.78,35.00 745.39,35.00 746.00,35.00 746.63,35.00 747.25,35.00 747.87,35.00 748.50,35.00 749.11,35.00 749.74,35.00 750.37,35.00 750.98,35.00 751.60,35.00 752.21,35.00 752.83,35.00 753.44,35.00 754.06,35.00 754.68,35.00 755.30,35.00 755.92,35.00 756.53,35.00 757.15,35.00 757.77,35.00 758.39,35.00 759.01,35.00 759.62,35.00 760.24,35.00 760.84,35.00 761.47,35.00 762.09,35.00 762.71,35.00 763.33,35.00 763.96,35.00 764.57,35.00 765.19,35.00 765.81,35.00 766.43,35.00 767.05,35.00 767.67,35.00 768.34,35.00 768.95,35.00 769.58,35.00 770.20,35.00 770.83,35.00 771.44,35.00 772.06,35.00 772.68,35.00 773.30,35.00 773.92,35.00 774.53,35.00 775.15,35.00 775.77,35.00 776.40,35.00 777.02,35.00 777.63,35.00 778.25,35.00 778.87,35.00 779.49,35.00 780.12,35.00 780.74,35.00 781.37,35.00 782.00,35.00 782.62,35.00 783.24,35.00 783.86,35.00 784.48,35.00 785.11,35.00 785.73,35.00 786.34,35.00 786.96,35.00 787.58,35.00 788.20,35.00 788.82,35.00 789.44,35.00 790.06,35.00 790.68,35.00 791.30,35.00 791.91,35.00 792.53,35.00 793.15,35.00 793.77,35.00 794.38,35.00 795.00,35.00 795.62,35.00 796.24,35.00 796.85,35.00 797.47,35.00 798.08,35.00 798.70,35.00 799.32,35.00 799.93,35.00 800.55,35.00 801.16,35.00 801.78,35.00 802.40,35.00 803.02,35.00 803.64,35.00 804.25,35.00 804.86,35.00 805.48,35.00 806.11,35.00 806.72,35.00 807.34,35.00 807.96,35.00 808.61,35.00 809.22,35.00 809.84,35.00 810.47,35.00 811.09,35.00 811.71,35.00 812.33,35.00 812.95,35.00 813.57,35.00 814.18,35.00 814.80,35.00 815.41,35.00 816.03,35.00 816.65,35.00 817.27,35.00 817.89,35.00 818.50,35.00 819.12,35.00 819.74,35.00 820.36,35.00 820.98,35.00 821.63,35.00 822.25,35.00 822.86,35.00 823.47,35.00 824.08,35.00 824.72,35.00 825.33,35.00 825.95,35.00 826.57,35.00 827.19,35.00 827.81,35.00 828.43,35.00 829.05,35.00 829.67,35.00 830.29,35.00 830.91,35.00 831.53,35.00 832.14,35.00 832.76,35.00 833.37,35.00 833.99,35.00 834.61,35.00 835.22,35.00 835.84,35.00 836.46,35.00 837.08,35.00 837.70,35.00 838.32,35.00 838.94,35.00 839.55,35.00 840.17,35.00 840.79,35.00 841.40,35.00 842.03,35.00 842.64,35.00 843.26,35.00 843.88,35.00 844.50,35.00 845.11,35.00 845.73,35.00 846.35,35.00 846.96,35.00 847.60,35.00 848.22,35.00 848.83,35.00 849.45,35.00 850.07,35.00 850.69,35.00 851.33,35.00 851.95,35.00 852.61,35.00 853.23,35.00 853.89,35.00 854.51,35.00 855.12,35.00 855.74,35.00 856.36,35.00 856.97,35.00 857.59,35.00 858.21,35.00 858.83,35.00 859.45,35.00 860.07,35.00 860.68,35.00 861.30,35.00 861.92,35.00 862.54,35.00 863.15,35.00 863.77,35.00 864.38,35.00 865.01,35.00 865.62,35.00 866.25,35.00 866.86,35.00 867.47,35.00 868.09,35.00 868.71,35.00 869.34,35.00 869.95,35.00 870.57,35.00 871.19,35.00 871.81,35.00 872.42,35.00 873.04,35.00 873.66,35.00 874.27,35.00 874.89,35.00 875.50,35.00 876.11,35.00 876.73,35.00 877.35,35.00 877.97,35.00 878.59,35.00 879.21,35.00 879.85,35.00 880.47,35.00 881.09,35.00 881.70,35.00 882.32,35.00 882.93,35.00 883.54,35.00 884.16,35.00 884.78,35.00 885.39,35.00 886.01,35.00 886.62,35.00 887.24,35.00 887.85,35.00 888.47,35.00 889.09,35.00 889.70,35.00 890.33,35.00 890.94,35.00 891.56,35.00 892.18,35.00 892.80,35.00 893.41,35.00 894.03,35.00 894.65,35.00 895.27,35.00 895.89,35.00 896.51,35.00 897.14,35.00 897.75,35.00 898.37,35.00 898.99,35.00 899.61,35.00 900.22,35.00 900.86,35.00 901.48,35.00 902.10,35.00 902.72,35.00 903.34,35.00 903.96,35.00 904.57,35.00 905.19,35.00 905.82,35.00 906.44,35.00 907.05,35.00 907.67,35.00 908.29,35.00 908.91,35.00 909.53,35.00 910.16,35.00 910.80,35.00 911.45,35.00 912.08,35.00 912.70,35.00 913.31,35.00 913.92,35.00 914.55,35.00 915.16,35.00 915.78,35.00 916.41,35.00 917.03,35.00 917.65,35.00 918.26,35.00 918.87,35.00 919.49,35.00 920.11,35.00 920.74,35.00 921.37,35.00 922.00,35.00 922.62,35.00 923.25,35.00 923.90,35.00 924.52,35.00 925.18,35.00 925.80,35.00 926.42,35.00 927.04,35.00 927.66,35.00 928.27,35.00 928.89,35.00 929.51,35.00 930.13,35.00 930.74,35.00 931.36,35.00 931.99,35.00 932.61,35.00 933.23,35.00 933.86,35.00 934.58,35.00 935.20,35.00 935.82,35.00 936.43,35.00 937.05,35.00 937.66,35.00 938.27,35.00 938.84,35.00 939.40,35.00 940.07,35.00 940.65,35.00 941.21,35.00 941.84,35.00 942.38,35.00 942.99,35.00 943.61,35.00 944.23,35.00 944.85,35.00 945.46,35.00 946.08,35.00 946.69,35.00 947.31,35.00 947.93,35.00 948.55,35.00 949.16,35.00 949.78,35.00 950.40,35.00 951.01,35.00 951.63,35.00 952.24,35.00 952.85,35.00 953.46,35.00 954.08,35.00 954.70,35.00 955.31,35.00 955.93,35.00 956.55,35.00 957.17,35.00 957.77,35.00 958.39,35.00 959.01,35.00 959.62,35.00 960.23,35.00 960.85,35.00 961.46,35.00 962.08,35.00 962.69,35.00 963.31,35.00 963.92,35.00 964.54,35.00 965.16,35.00 965.78,35.00 966.39,35.00 967.00,35.00 967.62,35.00 968.24,35.00 968.86,35.00 969.47,35.00 970.08,35.00 970.69,35.00 971.30,35.00 971.92,35.00 972.53,35.00 973.14,35.00 973.77,35.00 974.39,35.00 975.01,35.00 975.62,35.00 976.24,35.00 976.86,35.00 977.48,35.00 978.10,35.00 978.72,35.00 979.33,35.00 979.95,35.00 980.56,35.00 981.17,35.00 981.79,35.00 982.41,35.00 983.02,35.00 983.64,35.00 984.26,35.00 984.87,35.00 985.49,35.00 986.10,35.00 986.72,35.00 987.34,35.00 987.95,35.00 988.57,35.00 989.19,35.00 989.81,35.00 990.48,35.00 991.10,35.00 991.71,35.00 992.33,35.00 992.94,35.00 993.56,35.00 994.17,35.00 994.80,35.00 995.66,35.00 996.27,35.00 997.13,35.00 997.75,35.00 998.37,35.00 998.98,35.00 999.60,35.00 1000.22,35.00 1000.83,35.00 1001.44,35.00 1002.06,35.00 1002.67,35.00 1003.29,35.00 1003.90,35.00 1004.51,35.00 1005.14,35.00 1005.76,35.00 1006.37,35.00 1006.99,35.00 1007.61,35.00 1008.22,35.00 1008.85,35.00 1009.47,35.00 1010.08,35.00 1010.70,35.00 1011.31,35.00 1011.93,35.00 1012.55,35.00 1013.17,35.00 1013.79,35.00 1014.40,35.00 1015.02,35.00 1015.64,35.00 1016.27,35.00 1016.91,35.00 1017.53,35.00 1018.17,35.00 1018.79,35.00 1019.41,35.00 1020.03,35.00 1020.65,35.00 1021.26,35.00 1021.88,35.00 1022.50,35.00 1023.11,35.00 1023.74,35.00 1024.36,35.00 1024.98,35.00 1025.60,35.00 1026.22,35.00 1026.84,35.00 1027.46,35.00 1028.08,35.00 1028.70,35.00 1029.32,35.00 1029.94,35.00 1030.56,35.00 1031.18,35.00 1031.81,35.00 1032.42,35.00 1033.04,35.00 1033.66,35.00 1034.28,35.00 1034.89,35.00 1035.53,35.00 1036.15,35.00 1036.77,35.00 1037.39,35.00 1038.01,35.00 1038.63,35.00 1039.24,35.00 1039.86,35.00 1040.48,35.00 1041.10,35.00 1041.71,35.00 1042.33,35.00 1042.94,35.00 1043.56,35.00 1044.20,35.00 1044.82,35.00 1045.45,35.00 1046.06,35.00 1046.67,35.00 1047.30,35.00 1047.91,35.00 1048.53,35.00 1049.15,35.00 1049.76,35.00 1050.38,35.00 1051.00,35.00 1051.63,35.00 1052.25,35.00 1052.87,35.00 1053.48,35.00 1054.10,35.00 1054.72,35.00 1055.34,35.00 1055.96,35.00 1056.58,35.00 1057.20,35.00 1057.82,35.00 1058.45,35.00 1059.06,35.00 1059.68,35.00 1060.31,35.00 1060.93,35.00 1061.55,35.00 1062.18,35.00 1062.79,35.00 1063.41,35.00 1064.02,35.00 1064.64,35.00 1065.27,35.00 1065.89,35.00 1066.52,35.00 1067.15,35.00 1067.77,35.00 1068.39,35.00 1069.01,35.00 1069.63,35.00 1070.24,35.00 1070.87,35.00 1071.49,35.00 1072.11,35.00 1072.73,35.00 1073.35,35.00 1073.97,35.00 1074.59,35.00 1075.21,35.00 1075.83,35.00 1076.45,35.00 1077.07,35.00 1077.70,35.00 1078.33,35.00 1078.94,35.00 1079.57,35.00 1080.19,35.00 1080.81,35.00 1081.42,35.00 1082.04,35.00 1082.69,35.00 1083.31,35.00 1083.92,35.00 1084.55,35.00 1085.17,35.00 1085.79,35.00 1086.42,35.00 1087.05,35.00 1087.68,35.00 1088.30,35.00 1088.93,35.00 1089.55,35.00 1090.21,35.00 1090.82,35.00 1091.45,35.00 1092.06,35.00 1092.68,35.00 1093.30,35.00 1093.92,35.00 1094.54,35.00 1095.17,35.00 1095.78,35.00 1096.42,35.00 1097.04,35.00 1097.66,35.00 1098.28,35.00 1098.90,35.00 1099.52,35.00 1100.16,35.00 1100.78,35.00 1101.39,35.00 1102.02,35.00 1102.63,35.00 1103.25,35.00 1103.89,35.00 1104.51,35.00 1105.12,35.00 1105.73,35.00 1106.34,35.00 1106.96,35.00 1107.58,35.00 1108.20,35.00 1108.84,35.00 1109.45,35.00 1110.07,35.00 1110.69,35.00 1111.31,35.00 1111.92,35.00 1112.54,35.00 1113.16,35.00 1113.78,35.00 1114.40,35.00 1115.02,35.00 1115.63,35.00 1116.25,35.00 1116.87,35.00 1117.51,35.00 1118.13,35.00 1118.76,35.00 1119.37,35.00 1119.98,35.00 1120.60,35.00 1121.21,35.00 1121.83,35.00 1122.45,35.00 1123.10,35.00 1123.72,35.00 1124.34,35.00 1124.96,35.00 1125.57,35.00 1126.19,35.00 1126.80,35.00 1127.41,35.00 1128.04,35.00 1128.65,35.00 1129.27,35.00 1129.88,35.00 1130.49,35.00 1131.12,35.00 1131.74,35.00 1132.35,35.00 1132.96,35.00 1133.58,35.00 1134.20,35.00 1134.83,35.00 1135.45,35.00 1136.07,35.00 1136.69,35.00 1137.30,35.00 1137.92,35.00 1138.55,35.00 1139.16,35.00 1139.78,35.00 1140.40,35.00 1141.01,35.00 1141.63,35.00 1142.25,35.00 1142.86,35.00 1143.48,35.00 1144.09,35.00 1144.71,35.00 1145.33,35.00 1145.94,35.00 1146.55,35.00 1147.16,35.00 1147.78,35.00 1148.40,35.00 1149.02,35.00 1149.64,35.00 1150.26,35.00 1150.88,35.00 1151.50,35.00 1152.11,35.00 1152.73,35.00 1153.34,35.00 1153.97,35.00 1154.58,35.00 1155.20,35.00 1155.82,35.00 1156.44,35.00 1157.06,35.00 1157.68,35.00 1158.30,35.00 1158.92,35.00 1159.55,35.00 1160.17,35.00 1160.79,35.00 1161.41,35.00 1162.03,35.00 1162.64,35.00 1163.26,35.00 1163.87,35.00 1164.49,35.00 1165.11,35.00 1165.72,35.00 1166.34,35.00 1166.98,35.00 1167.60,35.00 1168.22,35.00 1168.83,35.00 1169.45,35.00 1170.09,35.00 1170.72,35.00 1171.37,35.00 1171.98,35.00 1172.58,35.00 1173.20,35.00 1173.81,35.00 1174.42,35.00 1175.04,35.00 1175.67,35.00 1176.29,35.00 1176.90,35.00 1177.52,35.00 1178.15,35.00 1178.76,35.00 1179.38,35.00 1180.00,35.00"/>
<polyline fill="none" stroke="#1f77b4" stroke-opacity="0.50" stroke-width="2" points="70.00,35.00 70.62,35.00 71.23,35.00 71.85,35.00 72.47,35.00 73.09,35.00 73.70,35.00 74.32,35.00 74.98,35.00 75.60,35.00 76.21,35.00 76.82,35.00 77.45,35.00 78.06,35.00 78.67,35.00 79.78,35.00 80.73,35.00 81.36,35.00 81.99,35.00 82.60,35.00 83.22,35.00 83.82,35.00 84.44,35.00 85.05,35.00 85.67,35.00 86.29,35.00 86.92,35.00 87.54,35.00 88.16,35.00 88.80,35.00 89.43,35.00 90.04,35.00 90.67,35.00 91.29,35.00 91.90,35.00 92.54,35.00 93.15,35.00 93.77,35.00 94.39,35.00 95.00,35.00 95.62,35.00 96.23,35.00 96.84,35.00 97.46,35.00 98.07,35.00 98.70,35.00 99.32,35.00 99.93,35.00 100.54,35.00 101.17,35.00 101.78,35.00 102.49,35.00 103.10,35.00 103.72,35.00 104.33,35.00 104.94,35.00 105.55,35.00 106.16,35.00 106.78,35.00 107.39,35.00 108.02,35.00 108.63,35.00 109.24,35.00 109.86,35.00 110.49,35.00 111.10,35.00 111.72,35.00 112.33,35.00 112.94,35.00 113.55,35.00 114.16,35.00 114.77,35.00 115.39,35.00 116.00,35.00 116.62,35.00 117.23,35.00 117.84,35.00 118.46,35.00 119.07,35.00 119.69,35.00 120.32,35.00 120.93,35.00 121.55,35.00 122.17,35.00 122.78,35.00 123.40,35.00 124.01,35.00 124.62,35.00 125.23,35.00 125.85,35.00 126.47,35.00 127.08,35.00 127.70,35.00 128.31,35.00 128.93,35.00 129.54,35.00 130.16,35.00 130.77,35.00 131.38,35.00 131.99,35.00 132.61,35.00 133.23,35.00 133.84,35.00 134.46,35.00 135.08,35.00 135.70,35.00 136.32,35.00 136.93,35.00 137.54,35.00 138.16,35.00 138.78,35.00 139.39,35.00 140.01,35.00 140.62,35.00 141.24,35.00 141.86,35.00 142.48,35.00 143.10,35.00 143.72,35.00 144.33,35.00 144.95,35.00 145.56,35.00 146.18,35.00 146.80,35.00 147.46,35.00 148.08,35.00 148.70,35.00 149.31,35.00 149.92,35.00 150.53,35.00 151.14,35.00 151.75,35.00 152.37,35.00 152.98,35.00 153.60,35.00 154.21,35.00 154.82,35.00 155.43,35.00 156.06,35.00 156.67,35.00 157.29,35.00 157.90,35.00 158.52,35.00 159.13,35.00 159.75,35.00 160.37,35.00 160.98,35.00 161.60,35.00 162.21,35.00 162.82,35.00 163.43,35.00 164.05,35.00 164.66,35.00 165.28,35.00 165.90,35.00 166.52,35.00 167.13,35.00 167.75,35.00 168.37,35.00 168.98,35.00 169.60,35.00 170.21,35.00 170.84,35.00 171.46,35.00 172.08,35.00 172.69,35.00 173.30,35.00 173.91,35.00 174.53,35.00 175.15,35.00 175.76,35.00 176.37,35.00 176.98,35.00 177.60,35.00 178.22,35.00 178.83,35.00 179.45,35.00 180.08,35.00 180.69,35.00 181.31,35.00 181.92,35.00 182.53,35.00 183.20,35.00 183.83,35.00 184.44,35.00 185.05,35.00 185.66,35.00 186.27,35.00 186.89,35.00 187.51,35.00 188.12,35.00 188.74,35.00 189.35,35.00 189.96,35.00 190.59,35.00 191.21,35.00 191.82,35.00 192.43,35.00 193.05,35.00 193.68,35.00 194.31,35.00 194.92,35.00 195.54,35.00 196.15,35.00 196.77,35.00 197.38,35.00 198.00,35.00 198.62,35.00 199.24,35.00 199.85,35.00 200.47,35.00 201.08,35.00 201.70,35.00 202.31,35.00 202.94,35.00 203.55,35.00 204.17,35.00 204.78,35.00 205.39,35.00 206.01,35.00 206.62,35.00 207.23,35.00 207.85,35.00 208.45,35.00 209.07,35.00 209.69,35.00 210.30,35.00 210.92,35.00 211.55,35.00 212.16,35.00 212.78,35.00 213.39,35.00 214.01,35.00 214.63,35.00 215.24,35.00 215.86,35.00 216.49,35.00 217.10,35.00 217.72,35.00 218.34,35.00 218.95,35.00 219.57,35.00 220.18,35.00 220.79,35.00 221.41,35.00 222.03,35.00 222.64,35.00 223.26,35.00 223.88,35.00 224.49,35.00 225.11,35.00 225.73,35.00 226.35,35.00 226.96,35.00 227.58,35.00 228.20,35.00 228.82,35.00 229.44,35.00 230.05,35.00 230.67,35.00 231.35,35.00 231.97,35.00 232.58,35.00 233.20,35.00 233.82,35.00 234.44,35.00 235.06,35.00 235.67,35.00 236.28,35.00 236.92,35.00 237.54,35.00 238.15,35.00 238.77,35.00 239.38,35.00 240.00,35.00 240.62,35.00 241.25,35.00 241.87,35.00 242.49,35.00 243.11,35.00 243.77,35.00 244.39,35.00 245.16,35.00 246.20,35.00 246.83,35.00 247.46,35.00 248.08,35.00 248.68,35.00 249.29,35.00 249.92,35.00 250.54,35.00 251.16,35.00 251.80,35.00 252.43,35.00 253.09,35.00 253.70,35.00 254.32,35.00 254.94,35.00 255.56,35.00 256.18,35.00 256.81,35.00 257.42,35.00 258.03,35.00 258.67,35.00 259.29,35.00 259.90,35.00 260.52,35.00 261.14,35.00 261.78,35.00 262.40,35.00 263.02,35.00 263.65,35.00 264.24,35.00 264.85,35.00 265.48,35.00 266.09,35.00 266.72,35.00 267.35,35.00 267.97,35.00 268.59,35.00 269.21,35.00 269.83,35.00 270.45,35.00 271.06,35.00 271.67,35.00 272.29,35.00 272.91,35.00 273.52,35.00 274.26,35.00 274.98,35.00 275.71,35.00 276.42,35.00 277.13,35.00 277.84,35.00 278.57,35.00 279.28,35.00 279.90,35.00 280.51,35.00 281.12,35.00 281.74,35.00 282.35,35.00 282.96,35.00 283.58,35.00 284.19,35.00 284.80,35.00 285.42,35.00 286.03,35.00 286.65,35.00 287.26,35.00 287.87,35.00 288.48,35.00 289.10,35.00 289.71,35.00 290.32,35.00 290.94,35.00 291.56,35.00 292.17,35.00 292.78,35.00 293.39,35.00 294.00,35.00 294.62,35.00 295.24,35.00 295.85,35.00 296.46,35.00 297.08,35.00 297.69,35.00 298.31,35.00 298.92,35.00 299.53,35.00 300.15,35.00 300.75,35.00 301.36,35.00 301.97,35.00 302.58,35.00 303.20,35.00 303.81,35.00 304.42,35.00 305.03,35.00 305.64,35.00 306.25,35.00 306.86,35.00 307.49,35.00 308.15,35.00 308.77,35.00 309.39,35.00 310.00,35.00 310.61,35.00 311.22,35.00 311.83,35.00 312.44,35.00 313.17,35.00 313.89,35.00 314.60,35.00 315.33,35.00 316.05,35.00 316.77,35.00 317.50,35.00 318.25,35.00 318.92,35.00 319.58,35.00 320.20,35.00 320.82,35.00 321.43,35.00 322.04,35.00 322.65,35.00 323.27,35.00 323.88,35.00 324.50,35.00 325.11,35.00 325.72,35.00 326.34,35.00 326.95,35.00 327.57,35.00 328.19,35.00 328.80,35.00 329.34,35.00 329.97,35.00 330.59,35.00 331.22,35.00 331.83,35.00 332.44,35.00 333.06,35.00 333.68,35.00 334.30,35.00 334.92,35.00 335.54,35.00 336.17,35.00 336.78,35.00 337.39,35.00 338.00,35.00 338.61,35.00 339.22,35.00 339.83,35.00 340.45,35.00 341.07,35.00 341.68,35.00 342.30,35.00 342.91,35.00 343.53,35.00 344.14,35.00 344.76,35.00 345.38,35.00 345.99,35.00 346.61,35.00 347.23,35.00 347.84,35.00 348.48,35.00 349.09,35.00 349.70,35.00 350.31,35.00 350.92,35.00 351.53,35.00 352.16,35.00 352.77,35.00 353.38,35.00 353.99,35.00 354.61,35.00 355.22,35.00 355.84,35.00 356.46,35.00 357.07,35.00 357.81,35.00 358.44,35.00 359.08,35.00 359.70,35.00 360.31,35.00 360.94,35.00 361.54,35.00 362.16,35.00 362.78,35.00 363.40,35.00 364.01,35.00 364.63,35.00 365.25,35.00 365.86,35.00 366.50,35.00 367.12,35.00 367.74,35.00 368.36,35.00 368.97,35.00 369.59,35.00 370.20,35.00 370.81,35.00 371.45,35.00 372.07,35.00 372.69,35.00 373.31,35.00 373.92,35.00 374.54,35.00 375.15,35.00 375.77,35.00 376.39,35.00 377.00,35.00 377.62,35.00 378.24,35.00 378.85,35.00 379.47,35.00 380.08,35.00 380.71,35.00 381.32,35.00 381.94,35.00 382.55,35.00 383.17,35.00 383.79,35.00 384.41,35.00 385.15,35.00 385.78,35.00 386.40,35.00 387.01,35.00 387.62,35.00 388.24,35.00 388.86,35.00 389.48,35.00 390.11,35.00 390.72,35.00 391.33,35.00 391.94,35.00 392.56,35.00 393.18,35.00 393.79,35.00 394.41,35.00 395.02,35.00 395.63,35.00 396.25,35.00 396.86,35.00 397.49,35.00 398.10,35.00 398.71,35.00 399.33,35.00 399.96,35.00 400.57,35.00 401.18,35.00 401.80,35.00 402.43,35.00 403.04,35.00 403.66,35.00 404.28,35.00 404.90,35.00 405.51,35.00 406.13,35.00 406.75,35.00 407.38,35.00 407.99,35.00 408.61,35.00 409.21,35.00 409.83,35.00 410.44,35.00 411.06,35.00 411.67,35.00 412.30,35.00 412.92,35.00 413.54,35.00 414.14,35.00 414.77,35.00 415.38,35.00 415.99,35.00 416.61,35.00 417.22,35.00 417.84,35.00 418.46,35.00 419.08,35.00 419.69,35.00 420.31,35.00 420.93,35.00 421.55,35.00 422.17,35.00 422.79,35.00 423.48,35.00 424.16,35.00 424.82,35.00 425.44,35.00 426.08,35.00 426.70,35.00 427.32,35.00 427.93,35.00 428.50,35.00 429.15,35.00 429.76,35.00 430.39,35.00 430.99,35.00 431.61,35.00 432.22,35.00 432.84,35.00 433.46,35.00 434.07,35.00 434.69,35.00 435.31,35.00 435.92,35.00 436.54,35.00 437.17,35.00 437.79,35.00 438.41,35.00 439.02,35.00 439.64,35.00 440.27,35.00 440.89,35.00 441.50,35.00 442.11,35.00 442.73,35.00 443.34,35.00 443.96,35.00 444.58,35.00 445.19,35.00 445.82,35.00 446.43,35.00 447.04,35.00 447.66,35.00 448.28,35.00 448.90,35.00 449.52,35.00 450.13,35.00 450.75,35.00 451.37,35.00 451.99,35.00 452.61,35.00 453.23,35.00 453.85,35.00 454.46,35.00 455.08,35.00 455.70,35.00 456.32,35.00 456.96,35.00 457.57,35.00 458.19,35.00 458.81,35.00 459.42,35.00 460.04,35.00 460.66,35.00 461.28,35.00 461.90,35.00 462.51,35.00 463.13,35.00 463.75,35.00 464.37,35.00 464.99,35.00 465.61,35.00 466.23,35.00 466.85,35.00 467.47,35.00 468.10,35.00 468.71,35.00 469.33,35.00 469.95,35.00 470.56,35.00 471.20,35.00 471.82,35.00 472.44,35.00 473.06,35.00 473.67,35.00 474.29,35.00 474.90,35.00 475.52,35.00 476.14,35.00 476.76,35.00 477.37,35.00 477.99,35.00 478.61,35.00 479.23,35.00 479.85,35.00 480.46,35.00 481.09,35.00 481.71,35.00 482.33,35.00 482.95,35.00 483.56,35.00 484.17,35.00 484.79,35.00 485.40,35.00 486.02,35.00 486.65,35.00 487.26,35.00 487.89,35.00 488.50,35.00 489.12,35.00 489.75,35.00 490.36,35.00 490.98,35.00 491.61,35.00 492.22,35.00 492.84,35.00 493.46,35.00 494.09,35.00 494.71,35.00 495.32,35.00 495.96,35.00 496.58,35.00 497.20,35.00 497.82,35.00 498.43,35.00 499.05,35.00 499.67,35.00 500.30,35.00 500.92,35.00 501.54,35.00 502.15,35.00 502.76,35.00 503.40,35.00 504.01,35.00 504.64,35.00 505.25,35.00 505.87,35.00 506.48,35.00 507.10,35.00 507.71,35.00 508.33,35.00 508.95,35.00 509.57,35.00 510.18,35.00 510.80,35.00 511.42,35.00 512.06,35.00 512.68,35.00 513.29,35.00 513.91,35.00 514.52,35.00 515.14,35.00 515.76,35.00 516.38,35.00 517.00,35.00 517.62,35.00 518.24,35.00 518.86,35.00 519.47,35.00 520.09,35.00 520.72,35.00 521.35,35.00 521.98,35.00 522.60,35.00 523.22,35.00 523.84,35.00 524.46,35.00 525.07,35.00 525.69,35.00 526.30,35.00 526.93,35.00 527.55,35.00 528.17,35.00 528.79,35.00 529.42,35.00 530.06,35.00 530.68,35.00 531.29,35.00 531.91,35.00 532.53,35.00 533.15,35.00 533.77,35.00 534.40,35.00 535.02,35.00 535.64,35.00 536.26,35.00 536.88,35.00 537.51,35.00 538.12,35.00 538.74,35.00 539.36,35.00 539.98,35.00 540.60,35.00 541.23,35.00 541.84,35.00 542.46,35.00 543.08,35.00 543.71,35.00 544.32,35.00 544.94,35.00 545.57,35.00 546.21,35.00 546.83,35.00 547.45,35.00 548.07,35.00 548.70,35.00 549.34,35.00 549.97,35.00 550.59,35.00 551.23,35.00 551.86,35.00 552.47,35.00 553.09,35.00 553.71,35.00 554.33,35.00 554.96,35.00 555.59,35.00 556.21,35.00 556.83,35.00 557.45,35.00 558.06,35.00 558.68,35.00 559.30,35.00 559.92,35.00 560.54,35.00 561.15,35.00 561.77,35.00 562.39,35.00 563.00,35.00 563.62,35.00 564.24,35.00 564.86,35.00 565.48,35.00 566.10,35.00 566.72,35.00 567.34,35.00 567.96,35.00 568.58,35.00 569.20,35.00 569.81,35.00 570.43,35.00 571.05,35.00 571.67,35.00 572.29,35.00 572.90,35.00 573.51,35.00 574.13,35.00 574.75,35.00 575.37,35.00 575.99,35.00 576.61,35.00 577.22,35.00 577.84,35.00 578.46,35.00 579.08,35.00 579.69,35.00 580.30,35.00 580.91,35.00 581.53,35.00 582.15,35.00 582.78,35.00 583.39,35.00 584.01,35.00 584.63,35.00 585.26,35.00 585.88,35.00 586.50,35.00 587.12,35.00 587.74,35.00 588.36,35.00 588.98,35.00 589.60,35.00 590.23,35.00 590.85,35.00 591.47,35.00 592.08,35.00 592.70,35.00 593.31,35.00 593.93,35.00 594.55,35.00 595.16,35.00 595.78,35.00 596.40,35.00 597.02,35.00 597.63,35.00 598.25,35.00 598.87,35.00 599.49,35.00 600.11,35.00 600.73,35.00 601.35,35.00 601.97,35.00 602.58,35.00 603.21,35.00 603.82,35.00 604.44,35.00 605.06,35.00 605.68,35.00 606.29,35.00 606.92,35.00 607.54,35.00 608.16,35.00 608.77,35.00 609.39,35.00 610.03,35.00 610.64,35.00 611.27,35.00 611.90,35.00 612.52,35.00 613.14,35.00 613.76,35.00 614.38,35.00 615.00,35.00 615.62,35.00 616.24,35.00 616.87,35.00 617.50,35.00 618.11,35.00 618.73,35.00 619.35,35.00 619.97,35.00 620.59,35.00 621.21,35.00 621.82,35.00 622.44,35.00 623.06,35.00 623.68,35.00 624.29,35.00 624.92,35.00 625.53,35.00 626.15,35.00 626.76,35.00 627.38,35.00 628.00,35.00 628.63,35.00 629.24,35.00 629.86,35.00 630.47,35.00 631.09,35.00 631.71,35.00 632.33,35.00 632.95,35.00 633.58,35.00 634.19,35.00 634.81,35.00 635.42,35.00 636.04,35.00 636.66,35.00 637.27,35.00 637.90,35.00 638.54,35.00 639.16,35.00 639.80,35.00 640.43,35.00 641.06,35.00 641.69,35.00 642.32,35.00 642.97,35.00 643.60,35.00 644.23,35.00 644.85,35.00 645.46,35.00 646.09,35.00 646.71,35.00 647.33,35.00 647.95,35.00 648.57,35.00 649.20,35.00 649.81,35.00 650.43,35.00 651.05,35.00 651.66,35.00 652.28,35.00 652.90,35.00 653.52,35.00 654.14,35.00 654.76,35.00 655.37,35.00 656.00,35.00 656.62,35.00 657.24,35.00 657.86,35.00 658.48,35.00 659.10,35.00 659.72,35.00 660.34,35.00 660.95,35.00 661.57,35.00 662.19,35.00 662.81,35.00 663.43,35.00 664.05,35.00 664.67,35.00 665.29,35.00 665.95,35.00 666.59,35.00 667.20,35.00 667.82,35.00 668.44,35.00 669.07,35.00 669.69,35.00 670.32,35.00 670.94,35.00 671.55,35.00 672.15,35.00 672.77,35.00 673.39,35.00 674.01,35.00 674.63,35.00 675.25,35.00 675.87,35.00 676.49,35.00 677.12,35.00 677.73,35.00 678.35,35.00 678.96,35.00 679.59,35.00 680.21,35.00 680.82,35.00 681.44,35.00 682.07,35.00 682.68,35.00 683.30,35.00 683.95,35.00 684.57,35.00 685.19,35.00 685.80,35.00 686.42,35.00 687.04,35.00 687.67,35.00 688.29,35.00 688.90,35.00 689.53,35.00 690.15,35.00 690.78,35.00 691.40,35.00 692.02,35.00 692.64,35.00 693.25,35.00 693.88,35.00 694.49,35.00 695.11,35.00 695.73,35.00 696.36,35.00 696.98,35.00 697.59,35.00 698.21,35.00 698.83,35.00 699.45,35.00 700.07,35.00 700.68,35.00 701.30,35.00 701.92,35.00 702.54,35.00 703.16,35.00 703.78,35.00 704.40,35.00 705.02,35.00 705.64,35.00 706.26,35.00 706.87,35.00 707.49,35.00 708.10,35.00 708.72,35.00 709.34,35.00 709.96,35.00 710.59,35.00 711.21,35.00 711.83,35.00 712.46,35.00 713.07,35.00 713.70,35.00 714.37,35.00 715.00,35.00 715.62,35.00 716.25,35.00 716.87,35.00 717.49,35.00 718.11,35.00 718.73,35.00 719.35,35.00 719.97,35.00 720.59,35.00 721.21,35.00 721.83,35.00 722.46,35.00 723.09,35.00 723.71,35.00 724.32,35.00 724.94,35.00 725.56,35.00 726.19,35.00 726.80,35.00 727.42,35.00 728.05,35.00 728.67,35.00 729.29,35.00 729.91,35.00 730.53,35.00 731.15,35.00 731.78,35.00 732.40,35.00 733.02,35.00 733.64,35.00 734.26,35.00 734.88,35.00 735.50,35.00 736.11,35.00 736.73,35.00 737.35,35.00 737.97,35.00 738.60,35.00 739.21,35.00 739.83,35.00 740.45,35.00 741.07,35.00 741.69,35.00 742.31,35.00 742.93,35.00 743.56,35.00 744.18,35.00 744.78,35.00 745.39,35.00 746.00,35.00 746.63,35.00 747.25,35.00 747.87,35.00 748.50,35.00 749.11,35.00 749.74,35.00 750.37,35.00 750.98,35.00 751.60,35.00 752.21,35.00 752.83,35.00 753.44,35.00 754.06,35.00 754.68,35.00 755.30,35.00 755.92,35.00 756.53,35.00 757.15,35.00 757.77,35.00 758.39,35.00 759.01,35.00 759.62,35.00 760.24,35.00 760.84,35.00 761.47,35.00 762.09,35.00 762.71,35.00 763.33,35.00 763.96,35.00 764.57,35.00 765.19,35.00 765.81,35.00 766.43,35.00 767.05,35.00 767.67,35.00 768.34,35.00 768.95,35.00 769.58,35.00 770.20,35.00 770.83,35.00 771.44,35.00 772.06,35.00 772.68,35.00 773.30,35.00 773.92,35.00 774.53,35.00 775.15,35.00 775.77,35.00 776.40,35.00 777.02,35.00 777.63,35.00 778.25,35.00 778.87,35.00 779.49,35.00 780.12,35.00 780.74,35.00 781.37,35.00 782.00,35.00 782.62,35.00 783.24,35.00 783.86,35.00 784.48,35.00 785.11,35.00 785.73,35.00 786.34,35.00 786.96,35.00 787.58,35.00 788.20,35.00 788.82,35.00 789.44,35.00 790.06,35.00 790.68,35.00 791.30,35.00 791.91,35.00 792.53,35.00 793.15,35.00 793.77,35.00 794.38,35.00 795.00,35.00 795.62,35.00 796.24,35.00 796.85,35.00 797.47,35.00 798.08,35.00 798.70,35.00 799.32,35.00 799.93,35.00 800.55,35.00 801.16,35.00 801.78,35.00 802.40,35.00 803.02,35.00 803.64,35.00 804.25,35.00 804.86,35.00 805.48,35.00 806.11,35.00 806.72,35.00 807.34,35.00 807.96,35.00 808.61,35.00 809.22,35.00 809.84,35.00 810.47,35.00 811.09,35.00 811.71,35.00 812.33,35.00 812.95,35.00 813.57,35.00 814.18,35.00 814.80,35.00 815.41,35.00 816.03,35.00 816.65,35.00 817.27,35.00 817.89,35.00 818.50,35.00 819.12,35.00 819.74,35.00 820.36,35.00 820.98,35.00 821.63,35.00 822.25,35.00 822.86,35.00 823.47,35.00 824.08,35.00 824.72,35.00 825.33,35.00 825.95,35.00 826.57,35.00 827.19,35.00 827.81,35.00 828.43,35.00 829.05,35.00 829.67,35.00 830.29,35.00 830.91,35.00 831.53,35.00 832.14,35.00 832.76,35.00 833.37,35.00 833.99,35.00 834.61,35.00 835.22,35.00 835.84,35.00 836.46,35.00 837.08,35.00 837.70,35.00 838.32,35.00 838.94,35.00 839.55,35.00 840.17,35.00 840.79,35.00 841.40,35.00 842.03,35.00 842.64,35.00 843.26,35.00 843.88,35.00 844.50,35.00 845.11,35.00 845.73,35.00 846.35,35.00 846.96,35.00 847.60,35.00 848.22,35.00 848.83,35.00 849.45,35.00 850.07,35.00 850.69,35.00 851.33,35.00 851.95,35.00 852.61,35.00 853.23,35.00 853.89,35.00 854.51,35.00 855.12,35.00 855.74,35.00 856.36,35.00 856.97,35.00 857.59,35.00 858.21,35.00 858.83,35.00 859.45,35.00 860.07,35.00 860.68,35.00 861.30,35.00 861.92,35.00 862.54,35.00 863.15,35.00 863.77,35.00 864.38,35.00 865.01,35.00 865.62,35.00 866.25,35.00 866.86,35.00 867.47,35.00 868.09,35.00 868.71,35.00 869.34,35.00 869.95,35.00 870.57,35.00 871.19,35.00 871.81,35.00 872.42,35.00 873.04,35.00 873.66,35.00 874.27,35.00 874.89,35.00 875.50,35.00 876.11,35.00 876.73,35.00 877.35,35.00 877.97,35.00 878.59,35.00 879.21,35.00 879.85,35.00 880.47,35.00 881.09,35.00 881.70,35.00 882.32,35.00 882.93,35.00 883.54,35.00 884.16,35.00 884.78,35.00 885.39,35.00 886.01,35.00 886.62,35.00 887.24,35.00 887.85,35.00 888.47,35.00 889.09,35.00 889.70,35.00 890.33,35.00 890.94,35.00 891.56,35.00 892.18,35.00 892.80,35.00 893.41,35.00 894.03,35.00 894.65,35.00 895.27,35.00 895.89,35.00 896.51,35.00 897.14,35.00 897.75,35.00 898.37,35.00 898.99,35.00 899.61,35.00 900.22,35.00 900.86,35.00 901.48,35.00 902.10,35.00 902.72,35.00 903.34,35.00 903.96,35.00 904.57,35.00 905.19,35.00 905.82,35.00 906.44,35.00 907.05,35.00 907.67,35.00 908.29,35.00 908.91,35.00 909.53,35.00 910.16,35.00 910.80,35.00 911.45,35.00 912.08,35.00 912.70,35.00 913.31,35.00 913.92,35.00 914.55,35.00 915.16,35.00 915.78,35.00 916.41,35.00 917.03,35.00 917.65,35.00 918.26,35.00 918.87,35.00 919.49,35.00 920.11,35.00 920.74,35.00 921.37,35.00 922.00,35.00 922.62,35.00 923.25,35.00 923.90,35.00 924.52,35.00 925.18,35.00 925.80,35.00 926.42,35.00 927.04,35.00 927.66,35.00 928.27,35.00 928.89,35.00 929.51,35.00 930.13,35.00 930.74,35.00 931.36,35.00 931.99,35.00 932.61,35.00 933.23,35.00 933.86,35.00 934.58,35.00 935.20,35.00 935.82,35.00 936.43,35.00 937.05,35.00 937.66,35.00 938.27,35.00 938.84,35.00 939.40,35.00 940.07,35.00 940.65,35.00 941.21,35.00 941.84,35.00 942.38,35.00 942.99,35.00 943.61,35.00 944.23,35.00 944.85,35.00 945.46,35.00 946.08,35.00 946.69,35.00 947.31,35.00 947.93,35.00 948.55,35.00 949.16,35.00 949.78,35.00 950.40,35.00 951.01,35.00 951.63,35.00 952.24,35.00 952.85,35.00 953.46,35.00 954.08,35.00 954.70,35.00 955.31,35.00 955.93,35.00 956.55,35.00 957.17,35.00 957.77,35.00 958.39,35.00 959.01,35.00 959.62,35.00 960.23,35.00 960.85,35.00 961.46,35.00 962.08,35.00 962.69,35.00 963.31,35.00 963.92,35.00 964.54,35.00 965.16,35.00 965.78,35.00 966.39,35.00 967.00,35.00 967.62,35.00 968.24,35.00 968.86,35.00 969.47,35.00 970.08,35.00 970.69,35.00 971.30,35.00 971.92,35.00 972.53,35.00 973.14,35.00 973.77,35.00 974.39,35.00 975.01,35.00 975.62,35.00 976.24,35.00 976.86,35.00 977.48,35.00 978.10,35.00 978.72,35.00 979.33,35.00 979.95,35.00 980.56,35.00 981.17,35.00 981.79,35.00 982.41,35.00 983.02,35.00 983.64,35.00 984.26,35.00 984.87,35.00 985.49,35.00 986.10,35.00 986.72,35.00 987.34,35.00 987.95,35.00 988.57,35.00 989.19,35.00 989.81,35.00 990.48,35.00 991.10,35.00 991.71,35.00 992.33,35.00 992.94,35.00 993.56,35.00 994.17,35.00 994.80,35.00 995.66,35.00 996.27,35.00 997.13,35.00 997.75,35.00 998.37,35.00 998.98,35.00 999.60,35.00 1000.22,35.00 1000.83,35.00 1001.44,35.00 1002.06,35.00 1002.67,35.00 1003.29,35.00 1003.90,35.00 1004.51,35.00 1005.14,35.00 1005.76,35.00 1006.37,35.00 1006.99,35.00 1007.61,35.00 1008.22,35.00 1008.85,35.00 1009.47,35.00 1010.08,35.00 1010.70,35.00 1011.31,35.00 1011.93,35.00 1012.55,35.00 1013.17,35.00 1013.79,35.00 1014.40,35.00 1015.02,35.00 1015.64,35.00 1016.27,35.00 1016.91,35.00 1017.53,35.00 1018.17,35.00 1018.79,35.00 1019.41,35.00 1020.03,35.00 1020.65,35.00 1021.26,35.00 1021.88,35.00 1022.50,35.00 1023.11,35.00 1023.74,35.00 1024.36,35.00 1024.98,35.00 1025.60,35.00 1026.22,35.00 1026.84,35.00 1027.46,35.00 1028.08,35.00 1028.70,35.00 1029.32,35.00 1029.94,35.00 1030.56,35.00 1031.18,35.00 1031.81,35.00 1032.42,35.00 1033.04,35.00 1033.66,35.00 1034.28,35.00 1034.89,35.00 1035.53,35.00 1036.15,35.00 1036.77,35.00 1037.39,35.00 1038.01,35.00 1038.63,35.00 1039.24,35.00 1039.86,35.00 1040.48,35.00 1041.10,35.00 1041.71,35.00 1042.33,35.00 1042.94,35.00 1043.56,35.00 1044.20,35.00 1044.82,35.00 1045.45,35.00 1046.06,35.00 1046.67,35.00 1047.30,35.00 1047.91,35.00 1048.53,35.00 1049.15,35.00 1049.76,35.00 1050.38,35.00 1051.00,35.00 1051.63,35.00 1052.25,35.00 1052.87,35.00 1053.48,35.00 1054.10,35.00 1054.72,35.00 1055.34,35.00 1055.96,35.00 1056.58,35.00 1057.20,35.00 1057.82,35.00 1058.45,35.00 1059.06,35.00 1059.68,35.00 1060.31,35.00 1060.93,35.00 1061.55,35.00 1062.18,35.00 1062.79,35.00 1063.41,35.00 1064.02,35.00 1064.64,35.00 1065.27,35.00 1065.89,35.00 1066.52,35.00 1067.15,35.00 1067.77,35.00 1068.39,35.00 1069.01,35.00 1069.63,35.00 1070.24,35.00 1070.87,35.00 1071.49,35.00 1072.11,35.00 1072.73,35.00 1073.35,35.00 1073.97,35.00 1074.59,35.00 1075.21,35.00 1075.83,35.00 1076.45,35.00 1077.07,35.00 1077.70,35.00 1078.33,35.00 1078.94,35.00 1079.57,35.00 1080.19,35.00 1080.81,35.00 1081.42,35.00 1082.04,35.00 1082.69,35.00 1083.31,35.00 1083.92,35.00 1084.55,35.00 1085.17,35.00 1085.79,35.00 1086.42,35.00 1087.05,35.00 1087.68,35.00 1088.30,35.00 1088.93,35.00 1089.55,35.00 1090.21,35.00 1090.82,35.00 1091.45,35.00 1092.06,35.00 1092.68,35.00 1093.30,35.00 1093.92,35.00 1094.54,35.00 1095.17,35.00 1095.78,35.00 1096.42,35.00 1097.04,35.00 1097.66,35.00 1098.28,35.00 1098.90,35.00 1099.52,35.00 1100.16,35.00 1100.78,35.00 1101.39,35.00 1102.02,35.00 1102.63,35.00 1103.25,35.00 1103.89,35.00 1104.51,35.00 1105.12,35.00 1105.73,35.00 1106.34,35.00 1106.96,35.00 1107.58,35.00 1108.20,35.00 1108.84,35.00 1109.45,35.00 1110.07,35.00 1110.69,35.00 1111.31,35.00 1111.92,35.00 1112.54,35.00 1113.16,35.00 1113.78,35.00 1114.40,35.00 1115.02,35.00 1115.63,35.00 1116.25,35.00 1116.87,35.00 1117.51,35.00 1118.13,35.00 1118.76,35.00 1119.37,35.00 1119.98,35.00 1120.60,35.00 1121.21,35.00 1121.83,35.00 1122.45,35.00 1123.10,35.00 1123.72,35.00 1124.34,35.00 1124.96,35.00 1125.57,35.00 1126.19,35.00 1126.80,35.00 1127.41,35.00 1128.04,35.00 1128.65,35.00 1129.27,35.00 1129.88,35.00 1130.49,35.00 1131.12,35.00 1131.74,35.00 1132.35,35.00 1132.96,35.00 1133.58,35.00 1134.20,35.00 1134.83,35.00 1135.45,35.00 1136.07,35.00 1136.69,35.00 1137.30,35.00 1137.92,35.00 1138.55,35.00 1139.16,35.00 1139.78,35.00 1140.40,35.00 1141.01,35.00 1141.63,35.00 1142.25,35.00 1142.86,35.00 1143.48,35.00 1144.09,35.00 1144.71,35.00 1145.33,35.00 1145.94,35.00 1146.55,35.00 1147.16,35.00 1147.78,35.00 1148.40,35.00 1149.02,35.00 1149.64,35.00 1150.26,35.00 1150.88,35.00 1151.50,35.00 1152.11,35.00 1152.73,35.00 1153.34,35.00 1153.97,35.00 1154.58,35.00 1155.20,35.00 1155.82,35.00 1156.44,35.00 1157.06,35.00 1157.68,35.00 1158.30,35.00 1158.92,35.00 1159.55,35.00 1160.17,35.00 1160.79,35.00 1161.41,35.00 1162.03,35.00 1162.64,35.00 1163.26,35.00 1163.87,35.00 1164.49,35.00 1165.11,35.00 1165.72,35.00 1166.34,35.00 1166.98,35.00 1167.60,35.00 1168.22,35.00 1168.83,35.00 1169.45,35.00 1170.09,35.00 1170.72,35.00 1171.37,35.00 1171.98,35.00 1172.58,35.00 1173.20,35.00 1173.81,35.00 1174.42,35.00 1175.04,35.00 1175.67,35.00 1176.29,35.00 1176.90,35.00 1177.52,35.00 1178.15,35.00 1178.76,35.00 1179.38,35.00 1180.00,35.00"/>
<rect x="70" y="332" width="12" height="12" fill="#1f77b4" fill-opacity="0.95"/>
<text x="88" y="342" font-size="11" fill="#333" font-family="Arial, Helvetica, sans-serif">nsc1.utdallas.edu</text>
<rect x="350" y="332" width="12" height="12" fill="#1f77b4" fill-opacity="0.80"/>
<text x="368" y="342" font-size="11" fill="#333" font-family="Arial, Helvetica, sans-serif">nsc2.utdallas.edu</text>
<rect x="630" y="332" width="12" height="12" fill="#1f77b4" fill-opacity="0.65"/>
<text x="648" y="342" font-size="11" fill="#333" font-family="Arial, Helvetica, sans-serif">nsc3.utdallas.edu</text>
<rect x="910" y="332" width="12" height="12" fill="#1f77b4" fill-opacity="0.50"/>
<text x="928" y="342" font-size="11" fill="#333" font-family="Arial, Helvetica, sans-serif">nsc4.utdallas.edu</text>
</svg>