<?xml version="1.0" encoding="UTF-8"?>
<svg xmlns="http://www.w3.org/2000/svg" width="1200" height="360" viewBox="0 0 1200 360" role="img" aria-label="Ping Uptime (%)">
<rect width="100%" height="100%" fill="#ffffff"/>
<text x="600.0" y="22" text-anchor="middle" font-size="16" font-family="Arial, Helvetica, sans-serif" font-weight="bold">Ping Uptime (%)</text>
<line x1="70" y1="35.00" x2="1180" y2="35.00" stroke="#e3e3e3" stroke-width="1"/>
<text x="62" y="39.00" text-anchor="end" font-size="11" fill="#444" font-family="Arial, Helvetica, sans-serif">100</text>
<line x1="70" y1="89.00" x2="1180" y2="89.00" stroke="#e3e3e3" stroke-width="1"/>
<text x="62" y="93.00" text-anchor="end" font-size="11" fill="#444" font-family="Arial, Helvetica, sans-serif">80</text>
<line x1="70" y1="143.00" x2="1180" y2="143.00" stroke="#e3e3e3" stroke-width="1"/>
<text x="62" y="147.00" text-anchor="end" font-size="11" fill="#444" font-family="Arial, Helvetica, sans-serif">60</text>
<line x1="70" y1="197.00" x2="1180" y2="197.00" stroke="#e3e3e3" stroke-width="1"/>
<text x="62" y="201.00" text-anchor="end" font-size="11" fill="#444" font-family="Arial, Helvetica, sans-serif">40</text>
<line x1="70" y1="251.00" x2="1180" y2="251.00" stroke="#e3e3e3" stroke-width="1"/>
<text x="62" y="255.00" text-anchor="end" font-size="11" fill="#444" font-family="Arial, Helvetica, sans-serif">20</text>
<line x1="70" y1="305.00" x2="1180" y2="305.00" stroke="#e3e3e3" stroke-width="1"/>
<text x="62" y="309.00" text-anchor="end" font-size="11" fill="#444" font-family="Arial, Helvetica, sans-serif">0</text>
<line x1="70" y1="35" x2="70" y2="305" stroke="#999"/>
<line x1="70" y1="305" x2="1180" y2="305" stroke="#999"/>
<text x="70.00" y="323" text-anchor="middle" font-size="10" fill="#444" font-family="Arial, Helvetica, sans-serif">2026-02-11 16:38</text>
<text x="347.50" y="323" text-anchor="middle" font-size="10" fill="#444" font-family="Arial, Helvetica, sans-serif">2026-02-13 02:03</text>
<text x="625.00" y="323" text-anchor="middle" font-size="10" fill="#444" font-family="Arial, Helvetica, sans-serif">2026-02-14 11:28</text>
<text x="902.50" y="323" text-anchor="middle" font-size="10" fill="#444" font-family="Arial, Helvetica, sans-serif">2026-02-15 20:54</text>
<text x="1180.00" y="323" text-anchor="middle" font-size="10" fill="#444" font-family="Arial, Helvetica, sans-serif">2026-02-17 06:19</text>
<polyline fill="none" stroke="#1f77b4" stroke-opacity="0.95" stroke-width="2" points="70.74,35.00 71.49,35.00 72.23,35.00 72.98,35.00 73.73,35.00 74.47,35.00 75.22,35.00 76.03,35.00 76.77,35.00 77.51,35.00 78.25,35.00 79.00,35.00 79.74,35.00 80.48,35.00 81.82,35.00 82.98,35.00 83.73,35.00 84.50,35.00 85.24,35.00 85.98,35.00 86.71,35.00 87.46,35.00 88.20,35.00 88.95,35.00 89.70,35.00 90.46,35.00 91.21,35.00 91.96,35.00 92.74,35.00 93.49,35.00 94.23,35.00 95.00,35.00 95.74,35.00 96.49,35.00 97.25,35.00 97.99,35.00 98.74,35.00 99.50,35.00 100.23,35.00 100.98,35.00 101.71,35.00 102.46,35.00 103.20,35.00 103.94,35.00 104.70,35.00 105.46,35.00 106.19,35.00 106.93,35.00 107.69,35.00 108.43,35.00 109.28,35.00 110.03,35.00 110.77,35.00 111.51,35.00 112.25,35.00 112.99,35.00 113.73,35.00 114.47,35.00 115.22,35.00 115.97,35.00 116.72,35.00 117.45,35.00 118.20,35.00 118.96,35.00 119.70,35.00 120.45,35.00 121.18,35.00 121.92,35.00 122.66,35.00 123.40,35.00 124.14,35.00 124.89,35.00 125.62,35.00 126.37,35.00 127.12,35.00 127.85,35.00 128.60,35.00 129.34,35.00 130.08,35.00 130.84,35.00 131.59,35.00 132.33,35.00 133.08,35.00 133.82,35.00 134.57,35.00 135.31,35.00 136.04,35.00 136.78,35.00 137.53,35.00 138.28,35.00 139.02,35.00 139.78,35.00 140.51,35.00 141.26,35.00 142.00,35.00 142.74,35.00 143.48,35.00 144.22,35.00 144.96,35.00 145.71,35.00 146.46,35.00 147.20,35.00 147.95,35.00 148.70,35.00 149.45,35.00 150.19,35.00 150.93,35.00 151.68,35.00 152.42,35.00 153.17,35.00 153.91,35.00 154.65,35.00 155.40,35.00 156.14,35.00 156.89,35.00 157.64,35.00 158.40,35.00 159.14,35.00 159.88,35.00 160.63,35.00 161.37,35.00 162.11,35.00 162.86,35.00 163.67,35.00 164.41,35.00 165.16,35.00 165.91,35.00 166.65,35.00 167.38,35.00 168.11,35.00 168.86,35.00 169.60,35.00 170.35,35.00 171.09,35.00 171.83,35.00 172.57,35.00 173.31,35.00 174.07,35.00 174.81,35.00 175.55,35.00 176.29,35.00 177.04,35.00 177.78,35.00 178.52,35.00 179.27,35.00 180.02,35.00 180.76,35.00 181.50,35.00 182.24,35.00 182.98,35.00 183.72,35.00 184.47,35.00 185.21,35.00 185.97,35.00 186.71,35.00 187.45,35.00 188.21,35.00 188.95,35.00 189.69,35.00 190.44,35.00 191.18,35.00 191.94,35.00 192.69,35.00 193.43,35.00 194.18,35.00 194.92,35.00 195.66,35.00 196.40,35.00 197.14,35.00 197.88,35.00 198.62,35.00 199.36,35.00 200.11,35.00 200.86,35.00 201.60,35.00 202.35,35.00 203.11,35.00 203.85,35.00 204.59,35.00 205.33,35.00 206.07,35.00 206.88,35.00 207.64,35.00 208.38,35.00 209.12,35.00 209.85,35.00 210.60,35.00 211.34,35.00 212.09,35.00 212.84,35.00 213.58,35.00 214.32,35.00 215.06,35.00 215.82,35.00 216.57,35.00 217.30,35.00 218.05,35.00 218.80,35.00 219.56,35.00 220.32,35.00 221.06,35.00 221.80,35.00 222.55,35.00 223.29,35.00 224.03,35.00 224.78,35.00 225.53,35.00 226.27,35.00 227.01,35.00 227.76,35.00 228.51,35.00 229.25,35.00 230.00,35.00 230.75,35.00 231.50,35.00 232.24,35.00 232.97,35.00 233.71,35.00 234.46,35.00 235.20,35.00 235.94,35.00 236.69,35.00 237.42,35.00 238.16,35.00 238.91,35.00 239.66,35.00 240.41,35.00 241.16,35.00 241.90,35.00 242.65,35.00 243.39,35.00 244.14,35.00 244.88,35.00 245.63,35.00 246.37,35.00 247.14,35.00 247.88,35.00 248.63,35.00 249.37,35.00 250.11,35.00 250.86,35.00 251.60,35.00 252.34,35.00 253.09,35.00 253.83,35.00 254.58,35.00 255.32,35.00 256.07,35.00 256.82,35.00 257.56,35.00 258.31,35.00 259.06,35.00 259.80,35.00 260.54,35.00 261.29,35.00 262.05,35.00 262.79,35.00 263.54,35.00 264.28,35.00 265.10,35.00 265.85,35.00 266.60,35.00 267.34,35.00 268.10,35.00 268.84,35.00 269.59,35.00 270.33,35.00 271.07,35.00 271.84,35.00 272.60,35.00 273.33,35.00 274.08,35.00 274.82,35.00 275.57,35.00 276.31,35.00 277.08,35.00 277.83,35.00 278.57,35.00 279.33,35.00 280.13,35.00 280.87,35.00 281.81,35.00 283.07,35.00 283.83,35.00 284.59,35.00 285.33,35.00 286.06,35.00 286.80,35.00 287.56,35.00 288.31,35.00 289.06,35.00 289.83,35.00 290.60,35.00 291.39,35.00 292.14,35.00 292.88,35.00 293.63,35.00 294.38,35.00 295.14,35.00 295.89,35.00 296.63,35.00 297.37,35.00 298.15,35.00 298.89,35.00 299.63,35.00 300.38,35.00 301.13,35.00 301.91,35.00 302.66,35.00 303.40,35.00 304.17,35.00 304.88,35.00 305.62,35.00 306.38,35.00 307.12,35.00 307.88,35.00 308.64,35.00 309.39,35.00 310.13,35.00 310.89,35.00 311.64,35.00 312.38,35.00 313.13,35.00 313.87,35.00 314.61,35.00 315.36,35.00 316.10,35.00 316.99,35.00 317.86,35.00 318.75,35.00 319.61,35.00 320.46,35.00 321.32,35.00 322.20,35.00 323.07,35.00 323.81,35.00 324.55,35.00 325.29,35.00 326.04,35.00 326.78,35.00 327.52,35.00 328.26,35.00 329.00,35.00 329.74,35.00 330.49,35.00 331.23,35.00 331.97,35.00 332.71,35.00 333.45,35.00 334.19,35.00 334.93,35.00 335.68,35.00 336.41,35.00 337.16,35.00 337.91,35.00 338.65,35.00 339.39,35.00 340.13,35.00 340.87,35.00 341.61,35.00 342.36,35.00 343.10,35.00 343.84,35.00 344.59,35.00 345.33,35.00 346.07,35.00 346.81,35.00 347.55,35.00 348.29,35.00 349.03,35.00 349.76,35.00 350.50,35.00 351.24,35.00 351.98,35.00 352.72,35.00 353.46,35.00 354.21,35.00 354.94,35.00 355.68,35.00 356.41,35.00 357.18,35.00 357.98,35.00 358.72,35.00 359.47,35.00 360.21,35.00 360.95,35.00 361.69,35.00 362.42,35.00 363.16,35.00 364.04,35.00 364.91,35.00 365.78,35.00 366.65,35.00 367.53,35.00 368.39,35.00 369.28,35.00 370.18,35.00 371.00,35.00 371.79,35.00 372.54,35.00 373.29,35.00 374.04,35.00 374.77,35.00 375.51,35.00 376.26,35.00 377.00,35.00 377.74,35.00 378.48,35.00 379.22,35.00 379.97,35.00 380.71,35.00 381.46,35.00 382.20,35.00 382.94,35.00 383.59,35.00 384.36,35.00 385.10,35.00 385.87,35.00 386.61,35.00 387.35,35.00 388.10,35.00 388.85,35.00 389.59,35.00 390.35,35.00 391.09,35.00 391.85,35.00 392.59,35.00 393.33,35.00 394.07,35.00 394.81,35.00 395.55,35.00 396.29,35.00 397.04,35.00 397.78,35.00 398.52,35.00 399.27,35.00 400.00,35.00 400.75,35.00 401.50,35.00 402.24,35.00 402.99,35.00 403.73,35.00 404.48,35.00 405.23,35.00 405.97,35.00 406.74,35.00 407.48,35.00 408.22,35.00 408.96,35.00 409.69,35.00 410.43,35.00 411.19,35.00 411.93,35.00 412.67,35.00 413.41,35.00 414.15,35.00 414.89,35.00 415.64,35.00 416.39,35.00 417.13,35.00 418.03,35.00 418.79,35.00 419.55,35.00 420.30,35.00 421.05,35.00 421.80,35.00 422.54,35.00 423.28,35.00 424.03,35.00 424.78,35.00 425.52,35.00 426.27,35.00 427.02,35.00 427.76,35.00 428.53,35.00 429.28,35.00 430.03,35.00 430.77,35.00 431.52,35.00 432.26,35.00 433.00,35.00 433.75,35.00 434.52,35.00 435.27,35.00 436.02,35.00 436.76,35.00 437.50,35.00 438.25,35.00 438.99,35.00 439.74,35.00 440.49,35.00 441.23,35.00 441.98,35.00 442.73,35.00 443.47,35.00 444.21,35.00 444.95,35.00 445.71,35.00 446.46,35.00 447.20,35.00 447.94,35.00 448.68,35.00 449.44,35.00 450.19,35.00 451.08,35.00 451.85,35.00 452.59,35.00 453.34,35.00 454.08,35.00 454.83,35.00 455.57,35.00 456.32,35.00 457.08,35.00 457.82,35.00 458.56,35.00 459.30,35.00 460.04,35.00 460.79,35.00 461.53,35.00 462.28,35.00 463.02,35.00 463.76,35.00 464.50,35.00 465.25,35.00 466.00,35.00 466.74,35.00 467.48,35.00 468.23,35.00 468.99,35.00 469.73,35.00 470.47,35.00 471.22,35.00 471.98,35.00 472.72,35.00 473.47,35.00 474.22,35.00 474.96,35.00 475.70,35.00 476.45,35.00 477.20,35.00 477.96,35.00 478.70,35.00 479.45,35.00 480.18,35.00 480.92,35.00 481.67,35.00 482.41,35.00 483.16,35.00 483.91,35.00 484.66,35.00 485.41,35.00 486.14,35.00 486.90,35.00 487.63,35.00 488.38,35.00 489.12,35.00 489.87,35.00 490.61,35.00 491.36,35.00 492.11,35.00 492.85,35.00 493.60,35.00 494.35,35.00 495.10,35.00 495.85,35.00 496.60,35.00 497.44,35.00 498.25,35.00 499.05,35.00 499.80,35.00 500.58,35.00 501.33,35.00 502.07,35.00 502.81,35.00 503.51,35.00 504.28,35.00 505.03,35.00 505.78,35.00 506.52,35.00 507.26,35.00 508.00,35.00 508.75,35.00 509.50,35.00 510.24,35.00 510.99,35.00 511.73,35.00 512.48,35.00 513.23,35.00 513.98,35.00 514.73,35.00 515.48,35.00 516.23,35.00 516.97,35.00 517.73,35.00 518.48,35.00 519.22,35.00 519.96,35.00 520.71,35.00 521.45,35.00 522.19,35.00 522.94,35.00 523.69,35.00 524.44,35.00 525.18,35.00 525.92,35.00 526.67,35.00 527.42,35.00 528.17,35.00 528.92,35.00 529.66,35.00 530.40,35.00 531.15,35.00 531.90,35.00 532.65,35.00 533.40,35.00 534.15,35.00 534.90,35.00 535.64,35.00 536.39,35.00 537.14,35.00 537.91,35.00 538.66,35.00 539.41,35.00 540.15,35.00 540.90,35.00 541.64,35.00 542.39,35.00 543.14,35.00 543.89,35.00 544.63,35.00 545.38,35.00 546.13,35.00 546.87,35.00 547.63,35.00 548.38,35.00 549.13,35.00 549.88,35.00 550.63,35.00 551.38,35.00 552.13,35.00 552.87,35.00 553.62,35.00 554.37,35.00 555.13,35.00 555.88,35.00 556.63,35.00 557.38,35.00 558.12,35.00 558.87,35.00 559.61,35.00 560.36,35.00 561.11,35.00 561.86,35.00 562.60,35.00 563.35,35.00 564.10,35.00 564.85,35.00 565.60,35.00 566.34,35.00 567.09,35.00 567.84,35.00 568.59,35.00 569.34,35.00 570.08,35.00 570.82,35.00 571.56,35.00 572.31,35.00 573.06,35.00 573.81,35.00 574.56,35.00 575.31,35.00 576.05,35.00 576.81,35.00 577.56,35.00 578.31,35.00 579.06,35.00 579.81,35.00 580.56,35.00 581.30,35.00 582.05,35.00 582.81,35.00 583.56,35.00 584.31,35.00 585.07,35.00 585.82,35.00 586.57,35.00 587.32,35.00 588.06,35.00 588.82,35.00 589.57,35.00 590.32,35.00 591.07,35.00 591.82,35.00 592.56,35.00 593.30,35.00 594.07,35.00 594.81,35.00 595.57,35.00 596.31,35.00 597.06,35.00 597.80,35.00 598.54,35.00 599.28,35.00 600.04,35.00 600.78,35.00 601.53,35.00 602.28,35.00 603.03,35.00 603.77,35.00 604.54,35.00 605.29,35.00 606.03,35.00 606.78,35.00 607.52,35.00 608.27,35.00 609.02,35.00 609.77,35.00 610.52,35.00 611.26,35.00 612.02,35.00 612.76,35.00 613.51,35.00 614.26,35.00 615.01,35.00 615.78,35.00 616.54,35.00 617.29,35.00 618.04,35.00 618.79,35.00 619.54,35.00 620.28,35.00 621.03,35.00 621.77,35.00 622.52,35.00 623.27,35.00 624.02,35.00 624.77,35.00 625.53,35.00 626.31,35.00 627.05,35.00 627.80,35.00 628.55,35.00 629.30,35.00 630.05,35.00 630.80,35.00 631.56,35.00 632.31,35.00 633.06,35.00 633.81,35.00 634.56,35.00 635.31,35.00 636.06,35.00 636.81,35.00 637.56,35.00 638.30,35.00 639.06,35.00 639.81,35.00 640.56,35.00 641.31,35.00 642.06,35.00 642.81,35.00 643.56,35.00 644.31,35.00 645.06,35.00 645.83,35.00 646.58,35.00 647.34,35.00 648.09,35.00 648.85,35.00 649.62,35.00 650.38,35.00 651.14,35.00 651.91,35.00 652.66,35.00 653.41,35.00 654.16,35.00 654.91,35.00 655.66,35.00 656.41,35.00 657.18,35.00 657.93,35.00 658.68,35.00 659.43,35.00 660.17,35.00 660.92,35.00 661.67,35.00 662.42,35.00 663.16,35.00 663.91,35.00 664.65,35.00 665.40,35.00 666.14,35.00 666.89,35.00 667.64,35.00 668.39,35.00 669.13,35.00 669.89,35.00 670.65,35.00 671.39,35.00 672.14,35.00 672.89,35.00 673.64,35.00 674.38,35.00 675.13,35.00 675.88,35.00 676.63,35.00 677.37,35.00 678.11,35.00 678.86,35.00 679.60,35.00 680.35,35.00 681.10,35.00 681.85,35.00 682.60,35.00 683.34,35.00 684.09,35.00 684.84,35.00 685.59,35.00 686.32,35.00 687.06,35.00 687.80,35.00 688.54,35.00 689.29,35.00 690.06,35.00 690.80,35.00 691.55,35.00 692.30,35.00 693.06,35.00 693.81,35.00 694.56,35.00 695.31,35.00 696.06,35.00 696.80,35.00 697.56,35.00 698.31,35.00 699.07,35.00 699.82,35.00 700.57,35.00 701.31,35.00 702.06,35.00 702.80,35.00 703.55,35.00 704.29,35.00 705.03,35.00 705.78,35.00 706.53,35.00 707.28,35.00 708.02,35.00 708.77,35.00 709.51,35.00 710.26,35.00 711.01,35.00 711.77,35.00 712.51,35.00 713.26,35.00 714.01,35.00 714.76,35.00 715.50,35.00 716.25,35.00 717.00,35.00 717.75,35.00 718.49,35.00 719.25,35.00 720.00,35.00 720.74,35.00 721.49,35.00 722.23,35.00 723.01,35.00 723.75,35.00 724.51,35.00 725.27,35.00 726.02,35.00 726.77,35.00 727.52,35.00 728.27,35.00 729.02,35.00 729.77,35.00 730.52,35.00 731.29,35.00 732.04,35.00 732.78,35.00 733.53,35.00 734.28,35.00 735.03,35.00 735.78,35.00 736.52,35.00 737.27,35.00 738.02,35.00 738.77,35.00 739.52,35.00 740.26,35.00 741.01,35.00 741.75,35.00 742.50,35.00 743.24,35.00 743.99,35.00 744.73,35.00 745.50,35.00 746.24,35.00 746.99,35.00 747.73,35.00 748.48,35.00 749.22,35.00 749.98,35.00 750.72,35.00 751.48,35.00 752.23,35.00 752.97,35.00 753.72,35.00 754.47,35.00 755.21,35.00 755.96,35.00 756.72,35.00 757.48,35.00 758.24,35.00 759.01,35.00 759.77,35.00 760.53,35.00 761.30,35.00 762.06,35.00 762.84,35.00 763.60,35.00 764.37,35.00 765.11,35.00 765.86,35.00 766.61,35.00 767.37,35.00 768.11,35.00 768.87,35.00 769.62,35.00 770.37,35.00 771.12,35.00 771.87,35.00 772.61,35.00 773.35,35.00 774.10,35.00 774.85,35.00 775.59,35.00 776.35,35.00 777.10,35.00 777.84,35.00 778.60,35.00 779.35,35.00 780.10,35.00 780.85,35.00 781.59,35.00 782.34,35.00 783.09,35.00 783.84,35.00 784.59,35.00 785.33,35.00 786.09,35.00 786.83,35.00 787.58,35.00 788.33,35.00 789.08,35.00 789.83,35.00 790.63,35.00 791.40,35.00 792.14,35.00 792.89,35.00 793.64,35.00 794.40,35.00 795.15,35.00 795.91,35.00 796.66,35.00 797.40,35.00 798.13,35.00 798.88,35.00 799.63,35.00 800.38,35.00 801.13,35.00 801.87,35.00 802.63,35.00 803.38,35.00 804.13,35.00 804.88,35.00 805.62,35.00 806.37,35.00 807.12,35.00 807.87,35.00 808.61,35.00 809.36,35.00 810.12,35.00 810.86,35.00 811.61,35.00 812.39,35.00 813.15,35.00 813.89,35.00 814.64,35.00 815.39,35.00 816.14,35.00 816.89,35.00 817.64,35.00 818.39,35.00 819.14,35.00 819.89,35.00 820.65,35.00 821.40,35.00 822.16,35.00 822.90,35.00 823.65,35.00 824.40,35.00 825.14,35.00 825.90,35.00 826.64,35.00 827.40,35.00 828.15,35.00 828.89,35.00 829.64,35.00 830.39,35.00 831.14,35.00 831.89,35.00 832.63,35.00 833.38,35.00 834.13,35.00 834.88,35.00 835.62,35.00 836.37,35.00 837.12,35.00 837.87,35.00 838.62,35.00 839.37,35.00 840.11,35.00 840.85,35.00 841.60,35.00 842.34,35.00 843.10,35.00 843.85,35.00 844.61,35.00 845.36,35.00 846.11,35.00 846.87,35.00 847.61,35.00 848.37,35.00 849.18,35.00 849.94,35.00 850.70,35.00 851.45,35.00 852.21,35.00 852.96,35.00 853.70,35.00 854.45,35.00 855.20,35.00 855.95,35.00 856.70,35.00 857.45,35.00 858.20,35.00 858.97,35.00 859.72,35.00 860.47,35.00 861.22,35.00 861.96,35.00 862.72,35.00 863.47,35.00 864.21,35.00 864.96,35.00 865.72,35.00 866.47,35.00 867.22,35.00 867.97,35.00 868.72,35.00 869.47,35.00 870.23,35.00 870.98,35.00 871.74,35.00 872.48,35.00 873.23,35.00 873.99,35.00 874.73,35.00 875.47,35.00 876.22,35.00 876.97,35.00 877.72,35.00 878.47,35.00 879.21,35.00 879.96,35.00 880.72,35.00 881.47,35.00 882.21,35.00 882.97,35.00 883.71,35.00 884.47,35.00 885.23,35.00 885.96,35.00 886.69,35.00 887.43,35.00 888.19,35.00 888.94,35.00 889.69,35.00 890.45,35.00 891.19,35.00 891.95,35.00 892.71,35.00 893.45,35.00 894.20,35.00 894.94,35.00 895.69,35.00 896.43,35.00 897.17,35.00 897.92,35.00 898.67,35.00 899.42,35.00 900.16,35.00 900.91,35.00 901.66,35.00 902.41,35.00 903.16,35.00 903.90,35.00 904.64,35.00 905.37,35.00 906.14,35.00 906.88,35.00 907.63,35.00 908.38,35.00 909.14,35.00 909.89,35.00 910.63,35.00 911.39,35.00 912.13,35.00 912.88,35.00 913.63,35.00 914.44,35.00 915.18,35.00 915.94,35.00 916.69,35.00 917.45,35.00 918.19,35.00 918.93,35.00 919.69,35.00 920.44,35.00 921.18,35.00 921.93,35.00 922.67,35.00 923.43,35.00 924.19,35.00 924.93,35.00 925.68,35.00 926.43,35.00 927.18,35.00 927.93,35.00 928.68,35.00 929.43,35.00 930.19,35.00 930.96,35.00 931.71,35.00 932.46,35.00 933.21,35.00 933.96,35.00 934.72,35.00 935.47,35.00 936.21,35.00 936.96,35.00 937.71,35.00 938.45,35.00 939.20,35.00 939.96,35.00 940.71,35.00 941.46,35.00 942.21,35.00 942.95,35.00 943.69,35.00 944.44,35.00 945.19,35.00 945.93,35.00 946.68,35.00 947.43,35.00 948.17,35.00 948.92,35.00 949.66,35.00 950.41,35.00 951.15,35.00 951.90,35.00 952.64,35.00 953.39,35.00 954.13,35.00 954.88,35.00 955.62,35.00 956.38,35.00 957.12,35.00 957.86,35.00 958.60,35.00 959.35,35.00 960.11,35.00 960.85,35.00 961.60,35.00 962.35,35.00 963.13,35.00 963.87,35.00 964.62,35.00 965.38,35.00 966.13,35.00 966.88,35.00 967.63,35.00 968.38,35.00 969.13,35.00 969.88,35.00 970.62,35.00 971.36,35.00 972.11,35.00 972.86,35.00 973.61,35.00 974.36,35.00 975.10,35.00 975.85,35.00 976.59,35.00 977.34,35.00 978.10,35.00 978.88,35.00 979.63,35.00 980.37,35.00 981.11,35.00 981.85,35.00 982.61,35.00 983.35,35.00 984.10,35.00 984.85,35.00 985.60,35.00 986.35,35.00 987.10,35.00 987.85,35.00 988.60,35.00 989.35,35.00 990.10,35.00 990.85,35.00 991.59,35.00 992.34,35.00 993.08,35.00 993.82,35.00 994.57,35.00 995.32,35.00 996.06,35.00 996.81,35.00 997.56,35.00 998.31,35.00 999.06,35.00 999.81,35.00 1000.55,35.00 1001.30,35.00 1002.05,35.00 1002.79,35.00 1003.55,35.00 1004.29,35.00 1005.04,35.00 1005.79,35.00 1006.53,35.00 1007.27,35.00 1008.02,35.00 1008.77,35.00 1009.51,35.00 1010.28,35.00 1011.03,35.00 1011.77,35.00 1012.52,35.00 1013.28,35.00 1014.03,35.00 1014.79,35.00 1015.54,35.00 1016.34,35.00 1017.09,35.00 1017.89,35.00 1018.64,35.00 1019.38,35.00 1020.12,35.00 1020.87,35.00 1021.62,35.00 1022.37,35.00 1023.11,35.00 1023.86,35.00 1024.61,35.00 1025.36,35.00 1026.10,35.00 1026.85,35.00 1027.59,35.00 1028.34,35.00 1029.09,35.00 1029.83,35.00 1030.57,35.00 1031.33,35.00 1032.08,35.00 1032.83,35.00 1033.57,35.00 1034.31,35.00 1035.06,35.00 1035.81,35.00 1036.57,35.00 1037.31,35.00 1038.06,35.00 1038.81,35.00 1039.56,35.00 1040.30,35.00 1041.04,35.00 1041.80,35.00 1042.54,35.00 1043.28,35.00 1044.02,35.00 1044.76,35.00 1045.51,35.00 1046.26,35.00 1047.00,35.00 1047.75,35.00 1048.51,35.00 1049.28,35.00 1050.03,35.00 1050.78,35.00 1051.52,35.00 1052.26,35.00 1053.00,35.00 1053.75,35.00 1054.50,35.00 1055.24,35.00 1055.98,35.00 1056.73,35.00 1057.47,35.00 1058.21,35.00 1058.96,35.00 1059.70,35.00 1060.45,35.00 1061.19,35.00 1061.95,35.00 1062.69,35.00 1063.43,35.00 1064.19,35.00 1064.94,35.00 1065.68,35.00 1066.43,35.00 1067.18,35.00 1067.92,35.00 1068.68,35.00 1069.43,35.00 1070.19,35.00 1070.93,35.00 1071.67,35.00 1072.42,35.00 1073.17,35.00 1073.91,35.00 1074.68,35.00 1075.43,35.00 1076.19,35.00 1076.94,35.00 1077.69,35.00 1078.43,35.00 1079.18,35.00 1079.92,35.00 1080.68,35.00 1081.43,35.00 1082.17,35.00 1082.92,35.00 1083.67,35.00 1084.42,35.00 1085.17,35.00 1085.94,35.00 1086.70,35.00 1087.49,35.00 1088.25,35.00 1089.00,35.00 1089.74,35.00 1090.48,35.00 1091.24,35.00 1091.98,35.00 1092.73,35.00 1093.48,35.00 1094.23,35.00 1094.99,35.00 1095.73,35.00 1096.47,35.00 1097.22,35.00 1097.97,35.00 1098.72,35.00 1099.49,35.00 1100.25,35.00 1101.00,35.00 1101.76,35.00 1102.54,35.00 1103.29,35.00 1104.09,35.00 1104.84,35.00 1105.59,35.00 1106.34,35.00 1107.09,35.00 1107.83,35.00 1108.58,35.00 1109.32,35.00 1110.07,35.00 1110.82,35.00 1111.57,35.00 1112.33,35.00 1113.08,35.00 1113.83,35.00 1114.59,35.00 1115.47,35.00 1116.22,35.00 1116.96,35.00 1117.70,35.00 1118.44,35.00 1119.18,35.00 1119.92,35.00 1120.61,35.00 1121.28,35.00 1122.09,35.00 1122.80,35.00 1123.48,35.00 1124.24,35.00 1124.89,35.00 1125.63,35.00 1126.38,35.00 1127.13,35.00 1127.88,35.00 1128.62,35.00 1129.37,35.00 1130.11,35.00 1130.85,35.00 1131.60,35.00 1132.35,35.00 1133.09,35.00 1133.84,35.00 1134.59,35.00 1135.33,35.00 1136.07,35.00 1136.81,35.00 1137.55,35.00 1138.29,35.00 1139.04,35.00 1139.78,35.00 1140.53,35.00 1141.27,35.00 1142.03,35.00 1142.77,35.00 1143.51,35.00 1144.26,35.00 1145.00,35.00 1145.74,35.00 1146.48,35.00 1147.22,35.00 1147.96,35.00 1148.71,35.00 1149.45,35.00 1150.20,35.00 1150.94,35.00 1151.69,35.00 1152.44,35.00 1153.18,35.00 1153.93,35.00 1154.67,35.00 1155.41,35.00 1156.16,35.00 1156.91,35.00 1157.65,35.00 1158.38,35.00 1159.13,35.00 1159.87,35.00 1160.61,35.00 1161.35,35.00 1162.09,35.00 1162.85,35.00 1163.60,35.00 1164.35,35.00 1165.09,35.00 1165.84,35.00 1166.59,35.00 1167.34,35.00 1168.08,35.00 1168.83,35.00 1169.58,35.00 1170.32,35.00 1171.06,35.00 1171.80,35.00 1172.55,35.00 1173.30,35.00 1174.04,35.00 1174.79,35.00 1175.53,35.00 1176.27,35.00 1177.02,35.00 1177.76,35.00 1178.51,35.00 1179.26,35.00 1180.00,35.00"/>
<polyline fill="none" stroke="#1f77b4" stroke-opacity="0.80" stroke-width="2" points="70.00,35.00 70.74,35.00 71.49,35.00 72.23,35.00 72.98,35.00 73.73,35.00 74.47,35.00 75.22,35.00 76.03,35.00 76.77,35.00 77.51,35.00 78.25,35.00 79.00,35.00 79.74,35.00 80.48,35.00 81.82,35.00 82.98,35.00 83.73,35.00 84.50,35.00 85.24,35.00 85.98,35.00 86.71,35.00 87.46,35.00 88.20,35.00 88.95,35.00 89.70,35.00 90.46,35.00 91.21,35.00 91.96,35.00 92.74,35.00 93.49,35.00 94.23,35.00 95.00,35.00 95.74,35.00 96.49,35.00 97.25,35.00 97.99,35.00 98.74,35.00 99.50,35.00 100.23,35.00 100.98,35.00 101.71,35.00 102.46,35.00 103.20,35.00 103.94,35.00 104.70,35.00 105.46,35.00 106.19,35.00 106.93,35.00 107.69,35.00 108.43,35.00 109.28,35.00 110.03,35.00 110.77,35.00 111.51,35.00 112.25,35.00 112.99,35.00 113.73,35.00 114.47,35.00 115.22,35.00 115.97,35.00 116.72,35.00 117.45,35.00 118.20,35.00 118.96,35.00 119.70,35.00 120.45,35.00 121.18,35.00 121.92,35.00 122.66,35.00 123.40,35.00 124.14,35.00 124.89,35.00 125.62,35.00 126.37,35.00 127.12,35.00 127.85,35.00 128.60,35.00 129.34,35.00 130.08,35.00 130.84,35.00 131.59,35.00 132.33,35.00 133.08,35.00 133.82,35.00 134.57,35.00 135.31,35.00 136.04,35.00 136.78,35.00 137.53,35.00 138.28,35.00 139.02,35.00 139.78,35.00 140.51,35.00 141.26,35.00 142.00,35.00 142.74,35.00 143.48,35.00 144.22,35.00 144.96,35.00 145.71,35.00 146.46,35.00 147.20,35.00 147.95,35.00 148.70,35.00 149.45,35.00 150.19,35.00 150.93,35.00 151.68,35.00 152.42,35.00 153.17,35.00 153.91,35.00 154.65,35.00 155.40,35.00 156.14,35.00 156.89,35.00 157.64,35.00 158.40,35.00 159.14,35.00 159.88,35.00 160.63,35.00 161.37,35.00 162.11,35.00 162.86,35.00 163.67,35.00 164.41,35.00 165.16,35.00 165.91,35.00 166.65,35.00 167.38,35.00 168.11,35.00 168.86,35.00 169.60,35.00 170.35,35.00 171.09,35.00 171.83,35.00 172.57,35.00 173.31,35.00 174.07,35.00 174.81,35.00 175.55,35.00 176.29,35.00 177.04,35.00 177.78,35.00 178.52,35.00 179.27,35.00 180.02,35.00 180.76,35.00 181.50,35.00 182.24,35.00 182.98,35.00 183.72,35.00 184.47,35.00 185.21,35.00 185.97,35.00 186.71,35.00 187.45,35.00 188.21,35.00 188.95,35.00 189.69,35.00 190.44,35.00 191.18,35.00 191.94,35.00 192.69,35.00 193.43,35.00 194.18,35.00 194.92,35.00 195.66,35.00 196.40,35.00 197.14,35.00 197.88,35.00 198.62,35.00 199.36,35.00 200.11,35.00 200.86,35.00 201.60,35.00 202.35,35.00 203.11,35.00 203.85,35.00 204.59,35.00 205.33,35.00 206.07,35.00 206.88,35.00 207.64,35.00 208.38,35.00 209.12,35.00 209.85,35.00 210.60,35.00 211.34,35.00 212.09,35.00 212.84,35.00 213.58,35.00 214.32,35.00 215.06,35.00 215.82,35.00 216.57,35.00 217.30,35.00 218.05,35.00 218.80,35.00 219.56,35.00 220.32,35.00 221.06,35.00 221.80,35.00 222.55,35.00 223.29,35.00 224.03,35.00 224.78,35.00 225.53,35.00 226.27,35.00 227.01,35.00 227.76,35.00 228.51,35.00 229.25,35.00 230.00,35.00 230.75,35.00 231.50,35.00 232.24,35.00 232.97,35.00 233.71,35.00 234.46,35.00 235.20,35.00 235.94,35.00 236.69,35.00 237.42,35.00 238.16,35.00 238.91,35.00 239.66,35.00 240.41,35.00 241.16,35.00 241.90,35.00 242.65,35.00 243.39,35.00 244.14,35.00 244.88,35.00 245.63,35.00 246.37,35.00 247.14,35.00 247.88,35.00 248.63,35.00 249.37,35.00 250.11,35.00 250.86,35.00 251.60,35.00 252.34,35.00 253.09,35.00 253.83,35.00 254.58,35.00 255.32,35.00 256.07,35.00 256.82,35.00 257.56,35.00 258.31,35.00 259.06,35.00 259.80,35.00 260.54,35.00 261.29,35.00 262.05,35.00 262.79,35.00 263.54,35.00 264.28,35.00 265.10,35.00 265.85,35.00 266.60,35.00 267.34,35.00 268.10,35.00 268.84,35.00 269.59,35.00 270.33,35.00 271.07,35.00 271.84,35.00 272.60,35.00 273.33,35.00 274.08,35.00 274.82,35.00 275.57,35.00 276.31,35.00 277.08,35.00 277.83,35.00 278.57,35.00 279.33,35.00 280.13,35.00 280.87,35.00 281.81,35.00 283.07,35.00 283.83,35.00 284.59,35.00 285.33,35.00 286.06,35.00 286.80,35.00 287.56,35.00 288.31,35.00 289.06,35.00 289.83,35.00 290.60,35.00 291.39,35.00 292.14,35.00 292.88,35.00 293.63,35.00 294.38,35.00 295.14,35.00 295.89,35.00 296.63,35.00 297.37,35.00 298.15,35.00 298.89,35.00 299.63,35.00 300.38,35.00 301.13,35.00 301.91,35.00 302.66,35.00 303.40,35.00 304.17,35.00 304.88,35.00 305.62,35.00 306.38,35.00 307.12,35.00 307.88,35.00 308.64,35.00 309.39,35.00 310.13,35.00 310.89,35.00 311.64,35.00 312.38,35.00 313.13,35.00 313.87,35.00 314.61,35.00 315.36,35.00 316.10,35.00 316.99,35.00 317.86,35.00 318.75,35.00 319.61,35.00 320.46,35.00 321.32,35.00 322.20,35.00 323.07,35.00 323.81,35.00 324.55,35.00 325.29,35.00 326.04,35.00 326.78,35.00 327.52,35.00 328.26,35.00 329.00,35.00 329.74,35.00 330.49,35.00 331.23,35.00 331.97,35.00 332.71,35.00 333.45,35.00 334.19,35.00 334.93,35.00 335.68,35.00 336.41,35.00 337.16,35.00 337.91,35.00 338.65,35.00 339.39,35.00 340.13,35.00 340.87,35.00 341.61,35.00 342.36,35.00 343.10,35.00 343.84,35.00 344.59,35.00 345.33,35.00 346.07,35.00 346.81,35.00 347.55,35.00 348.29,35.00 349.03,35.00 349.76,35.00 350.50,35.00 351.24,35.00 351.98,35.00 352.72,35.00 353.46,35.00 354.21,35.00 354.94,35.00 355.68,35.00 356.41,35.00 357.18,35.00 357.98,35.00 358.72,35.00 359.47,35.00 360.21,35.00 360.95,35.00 361.69,35.00 362.42,35.00 363.16,35.00 364.04,35.00 364.91,35.00 365.78,35.00 366.65,35.00 367.53,35.00 368.39,35.00 369.28,35.00 370.18,35.00 371.00,35.00 371.79,35.00 372.54,35.00 373.29,35.00 374.04,35.00 374.77,35.00 375.51,35.00 376.26,35.00 377.00,35.00 377.74,35.00 378.48,35.00 379.22,35.00 379.97,35.00 380.71,35.00 381.46,35.00 382.20,35.00 382.94,35.00 383.59,35.00 384.36,35.00 385.10,35.00 385.87,35.00 386.61,35.00 387.35,35.00 388.10,35.00 388.85,35.00 389.59,35.00 390.35,35.00 391.09,35.00 391.85,35.00 392.59,35.00 393.33,35.00 394.07,35.00 394.81,35.00 395.55,35.00 396.29,35.00 397.04,35.00 397.78,35.00 398.52,35.00 399.27,35.00 400.00,35.00 400.75,35.00 401.50,35.00 402.24,35.00 402.99,35.00 403.73,35.00 404.48,35.00 405.23,35.00 405.97,35.00 406.74,35.00 407.48,35.00 408.22,35.00 408.96,35.00 409.69,35.00 410.43,35.00 411.19,35.00 411.93,35.00 412.67,35.00 413.41,35.00 414.15,35.00 414.89,35.00 415.64,35.00 416.39,35.00 417.13,35.00 418.03,35.00 418.79,35.00 419.55,35.00 420.30,35.00 421.05,35.00 421.80,35.00 422.54,35.00 423.28,35.00 424.03,35.00 424.78,35.00 425.52,35.00 426.27,35.00 427.02,35.00 427.76,35.00 428.53,35.00 429.28,35.00 430.03,35.00 430.77,35.00 431.52,35.00 432.26,35.00 433.00,35.00 433.75,35.00 434.52,35.00 435.27,35.00 436.02,35.00 436.76,35.00 437.50,35.00 438.25,35.00 438.99,35.00 439.74,35.00 440.49,35.00 441.23,35.00 441.98,35.00 442.73,35.00 443.47,35.00 444.21,35.00 444.95,35.00 445.71,35.00 446.46,35.00 447.20,35.00 447.94,35.00 448.68,35.00 449.44,35.00 450.19,35.00 451.08,35.00 451.85,35.00 452.59,35.00 453.34,35.00 454.08,35.00 454.83,35.00 455.57,35.00 456.32,35.00 457.08,35.00 457.82,35.00 458.56,35.00 459.30,35.00 460.04,35.00 460.79,35.00 461.53,35.00 462.28,35.00 463.02,35.00 463.76,35.00 464.50,35.00 465.25,35.00 466.00,35.00 466.74,35.00 467.48,35.00 468.23,35.00 468.99,35.00 469.73,35.00 470.47,35.00 471.22,35.00 471.98,35.00 472.72,35.00 473.47,35.00 474.22,35.00 474.96,35.00 475.70,35.00 476.45,35.00 477.20,35.00 477.96,35.00 478.70,35.00 479.45,35.00 480.18,35.00 480.92,35.00 481.67,35.00 482.41,35.00 483.16,35.00 483.91,35.00 484.66,35.00 485.41,35.00 486.14,35.00 486.90,35.00 487.63,35.00 488.38,35.00 489.12,35.00 489.87,35.00 490.61,35.00 491.36,35.00 492.11,35.00 492.85,35.00 493.60,35.00 494.35,35.00 495.10,35.00 495.85,35.00 496.60,35.00 497.44,35.00 498.25,35.00 499.05,35.00 499.80,35.00 500.58,35.00 501.33,35.00 502.07,35.00 502.81,35.00 503.51,35.00 504.28,35.00 505.03,35.00 505.78,35.00 506.52,35.00 507.26,35.00 508.00,35.00 508.75,35.00 509.50,35.00 510.24,35.00 510.99,35.00 511.73,35.00 512.48,35.00 513.23,35.00 513.98,35.00 514.73,35.00 515.48,35.00 516.23,35.00 516.97,35.00 517.73,35.00 518.48,35.00 519.22,35.00 519.96,35.00 520.71,35.00 521.45,35.00 522.19,35.00 522.94,35.00 523.69,35.00 524.44,35.00 525.18,35.00 525.92,35.00 526.67,35.00 527.42,35.00 528.17,35.00 528.92,35.00 529.66,35.00 530.40,35.00 531.15,35.00 531.90,35.00 532.65,35.00 533.40,35.00 534.15,35.00 534.90,35.00 535.64,35.00 536.39,35.00 537.14,35.00 537.91,35.00 538.66,35.00 539.41,35.00 540.15,35.00 540.90,35.00 541.64,35.00 542.39,35.00 543.14,35.00 543.89,35.00 544.63,35.00 545.38,35.00 546.13,35.00 546.87,35.00 547.63,35.00 548.38,35.00 549.13,35.00 549.88,35.00 550.63,35.00 551.38,35.00 552.13,35.00 552.87,35.00 553.62,35.00 554.37,35.00 555.13,35.00 555.88,35.00 556.63,35.00 557.38,35.00 558.12,35.00 558.87,35.00 559.61,35.00 560.36,35.00 561.11,35.00 561.86,35.00 562.60,35.00 563.35,35.00 564.10,35.00 564.85,35.00 565.60,35.00 566.34,35.00 567.09,35.00 567.84,35.00 568.59,35.00 569.34,35.00 570.08,35.00 570.82,35.00 571.56,35.00 572.31,35.00 573.06,35.00 573.81,35.00 574.56,35.00 575.31,35.00 576.05,35.00 576.81,35.00 577.56,35.00 578.31,35.00 579.06,35.00 579.81,35.00 580.56,35.00 581.30,35.00 582.05,35.00 582.81,35.00 583.56,35.00 584.31,35.00 585.07,35.00 585.82,35.00 586.57,35.00 587.32,35.00 588.06,35.00 588.82,35.00 589.57,35.00 590.32,35.00 591.07,35.00 591.82,35.00 592.56,35.00 593.30,35.00 594.07,35.00 594.81,35.00 595.57,35.00 596.31,35.00 597.06,35.00 597.80,35.00 598.54,35.00 599.28,35.00 600.04,35.00 600.78,35.00 601.53,35.00 602.28,35.00 603.03,35.00 603.77,35.00 604.54,35.00 605.29,35.00 606.03,35.00 606.78,35.00 607.52,35.00 608.27,35.00 609.02,35.00 609.77,35.00 610.52,35.00 611.26,35.00 612.02,35.00 612.76,35.00 613.51,35.00 614.26,35.00 615.01,35.00 615.78,35.00 616.54,35.00 617.29,35.00 618.04,35.00 618.79,35.00 619.54,35.00 620.28,35.00 621.03,35.00 621.77,35.00 622.52,35.00 623.27,35.00 624.02,35.00 624.77,35.00 625.53,35.00 626.31,35.00 627.05,35.00 627.80,35.00 628.55,35.00 629.30,35.00 630.05,35.00 630.80,35.00 631.56,35.00 632.31,35.00 633.06,35.00 633.81,35.00 634.56,35.00 635.31,35.00 636.06,35.00 636.81,35.00 637.56,35.00 638.30,35.00 639.06,35.00 639.81,35.00 640.56,35.00 641.31,35.00 642.06,35.00 642.81,35.00 643.56,35.00 644.31,35.00 645.06,35.00 645.83,35.00 646.58,35.00 647.34,35.00 648.09,35.00 648.85,35.00 649.62,35.00 650.38,35.00 651.14,35.00 651.91,35.00 652.66,35.00 653.41,35.00 654.16,35.00 654.91,35.00 655.66,35.00 656.41,35.00 657.18,35.00 657.93,35.00 658.68,35.00 659.43,35.00 660.17,35.00 660.92,35.00 661.67,35.00 662.42,35.00 663.16,35.00 663.91,35.00 664.65,35.00 665.40,35.00 666.14,35.00 666.89,35.00 667.64,35.00 668.39,35.00 669.13,35.00 669.89,35.00 670.65,35.00 671.39,35.00 672.14,35.00 672.89,35.00 673.64,35.00 674.38,35.00 675.13,35.00 675.88,35.00 676.63,35.00 677.37,35.00 678.11,35.00 678.86,35.00 679.60,35.00 680.35,35.00 681.10,35.00 681.85,35.00 682.60,35.00 683.34,35.00 684.09,35.00 684.84,35.00 685.59,35.00 686.32,35.00 687.06,35.00 687.80,35.00 688.54,35.00 689.29,35.00 690.06,35.00 690.80,35.00 691.55,35.00 692.30,35.00 693.06,35.00 693.81,35.00 694.56,35.00 695.31,35.00 696.06,35.00 696.80,35.00 697.56,35.00 698.31,35.00 699.07,35.00 699.82,35.00 700.57,35.00 701.31,35.00 702.06,35.00 702.80,35.00 703.55,35.00 704.29,35.00 705.03,35.00 705.78,35.00 706.53,35.00 707.28,35.00 708.02,35.00 708.77,35.00 709.51,35.00 710.26,35.00 711.01,35.00 711.77,35.00 712.51,35.00 713.26,35.00 714.01,35.00 714.76,35.00 715.50,35.00 716.25,35.00 717.00,35.00 717.75,35.00 718.49,35.00 719.25,35.00 720.00,35.00 720.74,35.00 721.49,35.00 722.23,35.00 723.01,35.00 723.75,35.00 724.51,35.00 725.27,35.00 726.02,35.00 726.77,35.00 727.52,35.00 728.27,35.00 729.02,35.00 729.77,35.00 730.52,35.00 731.29,35.00 732.04,35.00 732.78,35.00 733.53,35.00 734.28,35.00 735.03,35.00 735.78,35.00 736.52,35.00 737.27,35.00 738.02,35.00 738.77,35.00 739.52,35.00 740.26,35.00 741.01,35.00 741.75,35.00 742.50,35.00 743.24,35.00 743.99,35.00 744.73,35.00 745.50,35.00 746.24,35.00 746.99,35.00 747.73,35.00 748.48,35.00 749.22,35.00 749.98,35.00 750.72,35.00 751.48,35.00 752.23,35.00 752.97,35.00 753.72,35.00 754.47,35.00 755.21,35.00 755.96,35.00 756.72,35.00 757.48,35.00 758.24,35.00 759.01,35.00 759.77,35.00 760.53,35.00 761.30,35.00 762.06,35.00 762.84,35.00 763.60,35.00 764.37,35.00 765.11,35.00 765.86,35.00 766.61,35.00 767.37,35.00 768.11,35.00 768.87,35.00 769.62,35.00 770.37,35.00 771.12,35.00 771.87,35.00 772.61,35.00 773.35,35.00 774.10,35.00 774.85,35.00 775.59,35.00 776.35,35.00 777.10,35.00 777.84,35.00 778.60,35.00 779.35,35.00 780.10,35.00 780.85,35.00 781.59,35.00 782.34,35.00 783.09,35.00 783.84,35.00 784.59,35.00 785.33,35.00 786.09,35.00 786.83,35.00 787.58,35.00 788.33,35.00 789.08,35.00 789.83,35.00 790.63,35.00 791.40,35.00 792.14,35.00 792.89,35.00 793.64,35.00 794.40,35.00 795.15,35.00 795.91,35.00 796.66,35.00 797.40,35.00 798.13,35.00 798.88,35.00 799.63,35.00 800.38,35.00 801.13,35.00 801.87,35.00 802.63,35.00 803.38,35.00 804.13,35.00 804.88,35.00 805.62,35.00 806.37,35.00 807.12,35.00 807.87,35.00 808.61,35.00 809.36,35.00 810.12,35.00 810.86,35.00 811.61,35.00 812.39,35.00 813.15,35.00 813.89,35.00 814.64,35.00 815.39,35.00 816.14,35.00 816.89,35.00 817.64,35.00 818.39,35.00 819.14,35.00 819.89,35.00 820.65,35.00 821.40,35.00 822.16,35.00 822.90,35.00 823.65,35.00 824.40,35.00 825.14,35.00 825.90,35.00 826.64,35.00 827.40,35.00 828.15,35.00 828.89,35.00 829.64,35.00 830.39,35.00 831.14,35.00 831.89,35.00 832.63,35.00 833.38,35.00 834.13,35.00 834.88,35.00 835.62,35.00 836.37,35.00 837.12,35.00 837.87,35.00 838.62,35.00 839.37,35.00 840.11,35.00 840.85,35.00 841.60,35.00 842.34,35.00 843.10,35.00 843.85,35.00 844.61,35.00 845.36,35.00 846.11,35.00 846.87,35.00 847.61,35.00 848.37,35.00 849.18,35.00 849.94,35.00 850.70,35.00 851.45,35.00 852.21,35.00 852.96,35.00 853.70,35.00 854.45,35.00 855.20,35.00 855.95,35.00 856.70,35.00 857.45,35.00 858.20,35.00 858.97,35.00 859.72,35.00 860.47,35.00 861.22,35.00 861.96,35.00 862.72,35.00 863.47,35.00 864.21,35.00 864.96,35.00 865.72,35.00 866.47,35.00 867.22,35.00 867.97,35.00 868.72,35.00 869.47,35.00 870.23,35.00 870.98,35.00 871.74,35.00 872.48,35.00 873.23,35.00 873.99,35.00 874.73,35.00 875.47,35.00 876.22,35.00 876.97,35.00 877.72,35.00 878.47,35.00 879.21,35.00 879.96,35.00 880.72,35.00 881.47,35.00 882.21,35.00 882.97,35.00 883.71,35.00 884.47,35.00 885.23,35.00 885.96,35.00 886.69,35.00 887.43,35.00 888.19,35.00 888.94,35.00 889.69,35.00 890.45,35.00 891.19,35.00 891.95,35.00 892.71,35.00 893.45,35.00 894.20,35.00 894.94,35.00 895.69,35.00 896.43,35.00 897.17,35.00 897.92,35.00 898.67,35.00 899.42,35.00 900.16,35.00 900.91,35.00 901.66,35.00 902.41,35.00 903.16,35.00 903.90,35.00 904.64,35.00 905.37,35.00 906.14,35.00 906.88,35.00 907.63,35.00 908.38,35.00 909.14,35.00 909.89,35.00 910.63,35.00 911.39,35.00 912.13,35.00 912.88,35.00 913.63,35.00 914.44,35.00 915.18,35.00 915.94,35.00 916.69,35.00 917.45,35.00 918.19,35.00 918.93,35.00 919.69,35.00 920.44,35.00 921.18,35.00 921.93,35.00 922.67,35.00 923.43,35.00 924.19,35.00 924.93,35.00 925.68,35.00 926.43,35.00 927.18,35.00 927.93,35.00 928.68,35.00 929.43,35.00 930.19,35.00 930.96,35.00 931.71,35.00 932.46,35.00 933.21,35.00 933.96,35.00 934.72,35.00 935.47,35.00 936.21,35.00 936.96,35.00 937.71,35.00 938.45,35.00 939.20,35.00 939.96,35.00 940.71,35.00 941.46,35.00 942.21,35.00 942.95,35.00 943.69,35.00 944.44,35.00 945.19,35.00 945.93,35.00 946.68,35.00 947.43,35.00 948.17,35.00 948.92,35.00 949.66,35.00 950.41,35.00 951.15,35.00 951.90,35.00 952.64,35.00 953.39,35.00 954.13,35.00 954.88,35.00 955.62,35.00 956.38,35.00 957.12,35.00 957.86,35.00 958.60,35.00 959.35,35.00 960.11,35.00 960.85,35.00 961.60,35.00 962.35,35.00 963.13,35.00 963.87,35.00 964.62,35.00 965.38,35.00 966.13,35.00 966.88,35.00 967.63,35.00 968.38,35.00 969.13,35.00 969.88,35.00 970.62,35.00 971.36,35.00 972.11,35.00 972.86,35.00 973.61,35.00 974.36,35.00 975.10,35.00 975.85,35.00 976.59,35.00 977.34,35.00 978.10,35.00 978.88,35.00 979.63,35.00 980.37,35.00 981.11,35.00 981.85,35.00 982.61,35.00 983.35,35.00 984.10,35.00 984.85,35.00 985.60,35.00 986.35,35.00 987.10,35.00 987.85,35.00 988.60,35.00 989.35,35.00 990.10,35.00 990.85,35.00 991.59,35.00 992.34,35.00 993.08,35.00 993.82,35.00 994.57,35.00 995.32,35.00 996.06,35.00 996.81,35.00 997.56,35.00 998.31,35.00 999.06,35.00 999.81,35.00 1000.55,35.00 1001.30,35.00 1002.05,35.00 1002.79,35.00 1003.55,35.00 1004.29,35.00 1005.04,35.00 1005.79,35.00 1006.53,35.00 1007.27,35.00 1008.02,35.00 1008.77,35.00 1009.51,35.00 1010.28,35.00 1011.03,35.00 1011.77,35.00 1012.52,35.00 1013.28,35.00 1014.03,35.00 1014.79,35.00 1015.54,35.00 1016.34,35.00 1017.09,35.00 1017.89,35.00 1018.64,35.00 1019.38,35.00 1020.12,35.00 1020.87,35.00 1021.62,35.00 1022.37,35.00 1023.11,35.00 1023.86,35.00 1024.61,35.00 1025.36,35.00 1026.10,35.00 1026.85,35.00 1027.59,35.00 1028.34,35.00 1029.09,35.00 1029.83,35.00 1030.57,35.00 1031.33,35.00 1032.08,35.00 1032.83,35.00 1033.57,35.00 1034.31,35.00 1035.06,35.00 1035.81,35.00 1036.57,35.00 1037.31,35.00 1038.06,35.00 1038.81,35.00 1039.56,35.00 1040.30,35.00 1041.04,35.00 1041.80,35.00 1042.54,35.00 1043.28,35.00 1044.02,35.00 1044.76,35.00 1045.51,35.00 1046.26,35.00 1047.00,35.00 1047.75,35.00 1048.51,35.00 1049.28,35.00 1050.03,35.00 1050.78,35.00 1051.52,35.00 1052.26,35.00 1053.00,35.00 1053.75,35.00 1054.50,35.00 1055.24,35.00 1055.98,35.00 1056.73,35.00 1057.47,35.00 1058.21,35.00 1058.96,35.00 1059.70,35.00 1060.45,35.00 1061.19,35.00 1061.95,35.00 1062.69,35.00 1063.43,35.00 1064.19,35.00 1064.94,35.00 1065.68,35.00 1066.43,35.00 1067.18,35.00 1067.92,35.00 1068.68,35.00 1069.43,35.00 1070.19,35.00 1070.93,35.00 1071.67,35.00 1072.42,35.00 1073.17,35.00 1073.91,35.00 1074.68,35.00 1075.43,35.00 1076.19,35.00 1076.94,35.00 1077.69,35.00 1078.43,35.00 1079.18,35.00 1079.92,35.00 1080.68,35.00 1081.43,35.00 1082.17,35.00 1082.92,35.00 1083.67,35.00 1084.42,35.00 1085.17,35.00 1085.94,35.00 1086.70,35.00 1087.49,35.00 1088.25,35.00 1089.00,35.00 1089.74,35.00 1090.48,35.00 1091.24,35.00 1091.98,35.00 1092.73,35.00 1093.48,35.00 1094.23,35.00 1094.99,35.00 1095.73,35.00 1096.47,35.00 1097.22,35.00 1097.97,35.00 1098.72,35.00 1099.49,35.00 1100.25,35.00 1101.00,35.00 1101.76,35.00 1102.54,35.00 1103.29,35.00 1104.09,35.00 1104.84,35.00 1105.59,35.00 1106.34,35.00 1107.09,35.00 1107.83,35.00 1108.58,35.00 1109.32,35.00 1110.07,35.00 1110.82,35.00 1111.57,35.00 1112.33,35.00 1113.08,35.00 1113.83,35.00 1114.59,35.00 1115.47,35.00 1116.22,35.00 1116.96,35.00 1117.70,35.00 1118.44,35.00 1119.18,35.00 1119.92,35.00 1120.61,35.00 1121.28,35.00 1122.09,35.00 1122.80,35.00 1123.48,35.00 1124.24,35.00 1124.89,35.00 1125.63,35.00 1126.38,35.00 1127.13,35.00 1127.88,35.00 1128.62,35.00 1129.37,35.00 1130.11,35.00 1130.85,35.00 1131.60,35.00 1132.35,35.00 1133.09,35.00 1133.84,35.00 1134.59,35.00 1135.33,35.00 1136.07,35.00 1136.81,35.00 1137.55,35.00 1138.29,35.00 1139.04,35.00 1139.78,35.00 1140.53,35.00 1141.27,35.00 1142.03,35.00 1142.77,35.00 1143.51,35.00 1144.26,35.00 1145.00,35.00 1145.74,35.00 1146.48,35.00 1147.22,35.00 1147.96,35.00 1148.71,35.00 1149.45,35.00 1150.20,35.00 1150.94,35.00 1151.69,35.00 1152.44,35.00 1153.18,35.00 1153.93,35.00 1154.67,35.00 1155.41,35.00 1156.16,35.00 1156.91,35.00 1157.65,35.00 1158.38,35.00 1159.13,35.00 1159.87,35.00 1160.61,35.00 1161.35,35.00 1162.09,35.00 1162.85,35.00 1163.60,35.00 1164.35,35.00 1165.09,35.00 1165.84,35.00 1166.59,35.00 1167.34,35.00 1168.08,35.00 1168.83,35.00 1169.58,35.00 1170.32,35.00 1171.06,35.00 1171.80,35.00 1172.55,35.00 1173.30,35.00 1174.04,35.00 1174.79,35.00 1175.53,35.00 1176.27,35.00 1177.02,35.00 1177.76,35.00 1178.51,35.00 1179.26,35.00 1180.00,35.00"/>
<polyline fill="none" stroke="#1f77b4" stroke-opacity="0.65" stroke-width="2" points="70.00,35.00 70.74,35.00 71.49,35.00 72.23,35.00 72.98,35.00 73.73,35.00 74.47,35.00 75.22,35.00 76.03,35.00 76.77,35.00 77.51,35.00 78.25,35.00 79.00,35.00 79.74,35.00 80.48,35.00 81.82,35.00 82.98,35.00 83.73,35.00 84.50,35.00 85.24,35.00 85.98,35.00 86.71,35.00 87.46,35.00 88.20,35.00 88.95,35.00 89.70,35.00 90.46,35.00 91.21,35.00 91.96,35.00 92.74,35.00 93.49,35.00 94.23,35.00 95.00,35.00 95.74,35.00 96.49,35.00 97.25,35.00 97.99,35.00 98.74,35.00 99.50,35.00 100.23,35.00 100.98,35.00 101.71,35.00 102.46,35.00 103.20,35.00 103.94,35.00 104.70,35.00 105.46,35.00 106.19,35.00 106.93,35.00 107.69,35.00 108.43,35.00 109.28,35.00 110.03,35.00 110.77,35.00 111.51,35.00 112.25,35.00 112.99,35.00 113.73,35.00 114.47,35.00 115.22,35.00 115.97,35.00 116.72,35.00 117.45,35.00 118.20,35.00 118.96,35.00 119.70,35.00 120.45,35.00 121.18,35.00 121.92,35.00 122.66,35.00 123.40,35.00 124.14,35.00 124.89,35.00 125.62,35.00 126.37,35.00 127.12,35.00 127.85,35.00 128.60,35.00 129.34,35.00 130.08,35.00 130.84,35.00 131.59,35.00 132.33,35.00 133.08,35.00 133.82,35.00 134.57,35.00 135.31,35.00 136.04,35.00 136.78,35.00 137.53,35.00 138.28,35.00 139.02,35.00 139.78,35.00 140.51,35.00 141.26,35.00 142.00,35.00 142.74,35.00 143.48,35.00 144.22,35.00 144.96,35.00 145.71,35.00 146.46,35.00 147.20,35.00 147.95,35.00 148.70,35.00 149.45,35.00 150.19,35.00 150.93,35.00 151.68,35.00 152.42,35.00 153.17,35.00 153.91,35.00 154.65,35.00 155.40,35.00 156.14,35.00 156.89,35.00 157.64,35.00 158.40,35.00 159.14,35.00 159.88,35.00 160.63,35.00 161.37,35.00 162.11,35.00 162.86,35.00 163.67,35.00 164.41,35.00 165.16,35.00 165.91,35.00 166.65,35.00 167.38,35.00 168.11,35.00 168.86,35.00 169.60,35.00 170.35,35.00 171.09,35.00 171.83,35.00 172.57,35.00 173.31,35.00 174.07,35.00 174.81,35.00 175.55,35.00 176.29,35.00 177.04,35.00 177.78,35.00 178.52,35.00 179.27,35.00 180.02,35.00 180.76,35.00 181.50,35.00 182.24,35.00 182.98,35.00 183.72,35.00 184.47,35.00 185.21,35.00 185.97,35.00 186.71,35.00 187.45,35.00 188.21,35.00 188.95,35.00 189.69,35.00 190.44,35.00 191.18,35.00 191.94,35.00 192.69,35.00 193.43,35.00 194.18,35.00 194.92,35.00 195.66,35.00 196.40,35.00 197.14,35.00 197.88,35.00 198.62,35.00 199.36,35.00 200.11,35.00 200.86,35.00 201.60,35.00 202.35,35.00 203.11,35.00 203.85,35.00 204.59,35.00 205.33,35.00 206.07,35.00 206.88,35.00 207.64,35.00 208.38,35.00 209.12,35.00 209.85,35.00 210.60,35.00 211.34,35.00 212.09,35.00 212.84,35.00 213.58,35.00 214.32,35.00 215.06,35.00 215.82,35.00 216.57,35.00 217.30,35.00 218.05,35.00 218.80,35.00 219.56,35.00 220.32,35.00 221.06,35.00 221.80,35.00 222.55,35.00 223.29,35.00 224.03,35.00 224.78,35.00 225.53,35.00 226.27,35.00 227.01,35.00 227.76,35.00 228.51,35.00 229.25,35.00 230.00,35.00 230.75,35.00 231.50,35.00 232.24,35.00 232.97,35.00 233.71,35.00 234.46,35.00 235.20,35.00 235.94,35.00 236.69,35.00 237.42,35.00 238.16,35.00 238.91,35.00 239.66,35.00 240.41,35.00 241.16,35.00 241.90,35.00 242.65,35.00 243.39,35.00 244.14,35.00 244.88,35.00 245.63,35.00 246.37,35.00 247.14,35.00 247.88,35.00 248.63,35.00 249.37,35.00 250.11,35.00 250.86,35.00 251.60,35.00 252.34,35.00 253.09,35.00 253.83,35.00 254.58,35.00 255.32,35.00 256.07,35.00 256.82,35.00 257.56,35.00 258.31,35.00 259.06,35.00 259.80,35.00 260.54,35.00 261.29,35.00 262.05,35.00 262.79,35.00 263.54,35.00 264.28,35.00 265.10,35.00 265.85,35.00 266.60,35.00 267.34,35.00 268.10,35.00 268.84,35.00 269.59,35.00 270.33,35.00 271.07,35.00 271.84,35.00 272.60,35.00 273.33,35.00 274.08,35.00 274.82,35.00 275.57,35.00 276.31,35.00 277.08,35.00 277.83,35.00 278.57,35.00 279.33,35.00 280.13,35.00 280.87,35.00 281.81,35.00 283.07,35.00 283.83,35.00 284.59,35.00 285.33,35.00 286.06,35.00 286.80,35.00 287.56,35.00 288.31,35.00 289.06,35.00 289.83,35.00 290.60,35.00 291.39,35.00 292.14,35.00 292.88,35.00 293.63,35.00 294.38,35.00 295.14,35.00 295.89,35.00 296.63,35.00 297.37,35.00 298.15,35.00 298.89,35.00 299.63,35.00 300.38,35.00 301.13,35.00 301.91,35.00 302.66,35.00 303.40,35.00 304.17,35.00 304.88,35.00 305.62,35.00 306.38,35.00 307.12,35.00 307.88,35.00 308.64,35.00 309.39,35.00 310.13,35.00 310.89,35.00 311.64,35.00 312.38,35.00 313.13,35.00 313.87,35.00 314.61,35.00 315.36,35.00 316.10,35.00 316.99,35.00 317.86,35.00 318.75,35.00 319.61,35.00 320.46,35.00 321.32,35.00 322.20,35.00 323.07,35.00 323.81,35.00 324.55,35.00 325.29,35.00 326.04,35.00 326.78,35.00 327.52,35.00 328.26,35.00 329.00,35.00 329.74,35.00 330.49,35.00 331.23,35.00 331.97,35.00 332.71,35.00 333.45,35.00 334.19,35.00 334.93,35.00 335.68,35.00 336.41,35.00 337.16,35.00 337.91,35.00 338.65,35.00 339.39,35.00 340.13,35.00 340.87,35.00 341.61,35.00 342.36,35.00 343.10,35.00 343.84,35.00 344.59,35.00 345.33,35.00 346.07,35.00 346.81,35.00 347.55,35.00 348.29,35.00 349.03,35.00 349.76,35.00 350.50,35.00 351.24,35.00 351.98,35.00 352.72,35.00 353.46,35.00 354.21,35.00 354.94,35.00 355.68,35.00 356.41,35.00 357.18,35.00 357.98,35.00 358.72,35.00 359.47,35.00 360.21,35.00 360.95,35.00 361.69,35.00 362.42,35.00 363.16,35.00 364.04,35.00 364.91,35.00 365.78,35.00 366.65,35.00 367.53,35.00 368.39,35.00 369.28,35.00 370.18,35.00 371.00,35.00 371.79,35.00 372.54,35.00 373.29,35.00 374.04,35.00 374.77,35.00 375.51,35.00 376.26,35.00 377.00,35.00 377.74,35.00 378.48,35.00 379.22,35.00 379.97,35.00 380.71,35.00 381.46,35.00 382.20,35.00 382.94,35.00 383.59,35.00 384.36,35.00 385.10,35.00 385.87,35.00 386.61,35.00 387.35,35.00 388.10,35.00 388.85,35.00 389.59,35.00 390.35,35.00 391.09,35.00 391.85,35.00 392.59,35.00 393.33,35.00 394.07,35.00 394.81,35.00 395.55,35.00 396.29,35.00 397.04,35.00 397.78,35.00 398.52,35.00 399.27,35.00 400.00,35.00 400.75,35.00 401.50,35.00 402.24,35.00 402.99,35.00 403.73,35.00 404.48,35.00 405.23,35.00 405.97,35.00 406.74,35.00 407.48,35.00 408.22,35.00 408.96,35.00 409.69,35.00 410.43,35.00 411.19,35.00 411.93,35.00 412.67,35.00 413.41,35.00 414.15,35.00 414.89,35.00 415.64,35.00 416.39,35.00 417.13,35.00 418.03,35.00 418.79,35.00 419.55,35.00 420.30,35.00 421.05,35.00 421.80,35.00 422.54,35.00 423.28,35.00 424.03,35.00 424.78,35.00 425.52,35.00 426.27,35.00 427.02,35.00 427.76,35.00 428.53,35.00 429.28,35.00 430.03,35.00 430.77,35.00 431.52,35.00 432.26,35.00 433.00,35.00 433.75,35.00 434.52,35.00 435.27,35.00 436.02,35.00 436.76,35.00 437.50,35.00 438.25,35.00 438.99,35.00 439.74,35.00 440.49,35.00 441.23,35.00 441.98,35.00 442.73,35.00 443.47,35.00 444.21,35.00 444.95,35.00 445.71,35.00 446.46,35.00 447.20,35.00 447.94,35.00 448.68,35.00 449.44,35.00 450.19,35.00 451.08,35.00 451.85,35.00 452.59,35.00 453.34,35.00 454.08,35.00 454.83,35.00 455.57,35.00 456.32,35.00 457.08,35.00 457.82,35.00 458.56,35.00 459.30,35.00 460.04,35.00 460.79,35.00 461.53,35.00 462.28,35.00 463.02,35.00 463.76,35.00 464.50,35.00 465.25,35.00 466.00,35.00 466.74,35.00 467.48,35.00 468.23,35.00 468.99,35.00 469.73,35.00 470.47,35.00 471.22,35.00 471.98,35.00 472.72,35.00 473.47,35.00 474.22,35.00 474.96,35.00 475.70,35.00 476.45,35.00 477.20,35.00 477.96,35.00 478.70,35.00 479.45,35.00 480.18,35.00 480.92,35.00 481.67,35.00 482.41,35.00 483.16,35.00 483.91,35.00 484.66,35.00 485.41,35.00 486.14,35.00 486.90,35.00 487.63,35.00 488.38,35.00 489.12,35.00 489.87,35.00 490.61,35.00 491.36,35.00 492.11,35.00 492.85,35.00 493.60,35.00 494.35,35.00 495.10,35.00 495.85,35.00 496.60,35.00 497.44,35.00 498.25,35.00 499.05,35.00 499.80,35.00 500.58,35.00 501.33,35.00 502.07,35.00 502.81,35.00 503.51,35.00 504.28,35.00 505.03,35.00 505.78,35.00 506.52,35.00 507.26,35.00 508.00,35.00 508.75,35.00 509.50,35.00 510.24,35.00 510.99,35.00 511.73,35.00 512.48,35.00 513.23,35.00 513.98,35.00 514.73,35.00 515.48,35.00 516.23,35.00 516.97,35.00 517.73,35.00 518.48,35.00 519.22,35.00 519.96,35.00 520.71,35.00 521.45,35.00 522.19,35.00 522.94,35.00 523.69,35.00 524.44,35.00 525.18,35.00 525.92,35.00 526.67,35.00 527.42,35.00 528.17,35.00 528.92,35.00 529.66,35.00 530.40,35.00 531.15,35.00 531.90,35.00 532.65,35.00 533.40,35.00 534.15,35.00 534.90,35.00 535.64,35.00 536.39,35.00 537.14,35.00 537.91,35.00 538.66,35.00 539.41,35.00 540.15,35.00 540.90,35.00 541.64,35.00 542.39,35.00 543.14,35.00 543.89,35.00 544.63,35.00 545.38,35.00 546.13,35.00 546.87,35.00 547.63,35.00 548.38,35.00 549.13,35.00 549.88,35.00 550.63,35.00 551.38,35.00 552.13,35.00 552.87,35.00 553.62,35.00 554.37,35.00 555.13,35.00 555.88,35.00 556.63,35.00 557.38,35.00 558.12,35.00 558.87,35.00 559.61,35.00 560.36,35.00 561.11,35.00 561.86,35.00 562.60,35.00 563.35,35.00 564.10,35.00 564.85,35.00 565.60,35.00 566.34,35.00 567.09,35.00 567.84,35.00 568.59,35.00 569.34,35.00 570.08,35.00 570.82,35.00 571.56,35.00 572.31,35.00 573.06,35.00 573.81,35.00 574.56,35.00 575.31,35.00 576.05,35.00 576.81,35.00 577.56,35.00 578.31,35.00 579.06,35.00 579.81,35.00 580.56,35.00 581.30,35.00 582.05,35.00 582.81,35.00 583.56,35.00 584.31,35.00 585.07,35.00 585.82,35.00 586.57,35.00 587.32,35.00 588.06,35.00 588.82,35.00 589.57,35.00 590.32,35.00 591.07,35.00 591.82,35.00 592.56,35.00 593.30,35.00 594.07,35.00 594.81,35.00 595.57,35.00 596.31,35.00 597.06,35.00 597.80,35.00 598.54,35.00 599.28,35.00 600.04,35.00 600.78,35.00 601.53,35.00 602.28,35.00 603.03,35.00 603.77,35.00 604.54,35.00 605.29,35.00 606.03,35.00 606.78,35.00 607.52,35.00 608.27,35.00 609.02,35.00 609.77,35.00 610.52,35.00 611.26,35.00 612.02,35.00 612.76,35.00 613.51,35.00 614.26,35.00 615.01,35.00 615.78,35.00 616.54,35.00 617.29,35.00 618.04,35.00 618.79,35.00 619.54,35.00 620.28,35.00 621.03,35.00 621.77,35.00 622.52,35.00 623.27,35.00 624.02,35.00 624.77,35.00 625.53,35.00 626.31,35.00 627.05,35.00 627.80,35.00 628.55,35.00 629.30,35.00 630.05,35.00 630.80,35.00 631.56,35.00 632.31,35.00 633.06,35.00 633.81,35.00 634.56,35.00 635.31,35.00 636.06,35.00 636.81,35.00 637.56,35.00 638.30,35.00 639.06,35.00 639.81,35.00 640.56,35.00 641.31,35.00 642.06,35.00 642.81,35.00 643.56,35.00 644.31,35.00 645.06,35.00 645.83,35.00 646.58,35.00 647.34,35.00 648.09,35.00 648.85,35.00 649.62,35.00 650.38,35.00 651.14,35.00 651.91,35.00 652.66,35.00 653.41,35.00 654.16,35.00 654.91,35.00 655.66,35.00 656.41,35.00 657.18,35.00 657.93,35.00 658.68,35.00 659.43,35.00 660.17,35.00 660.92,35.00 661.67,35.00 662.42,35.00 663.16,35.00 663.91,35.00 664.65,35.00 665.40,35.00 666.14,35.00 666.89,35.00 667.64,35.00 668.39,35.00 669.13,35.00 669.89,35.00 670.65,35.00 671.39,35.00 672.14,35.00 672.89,35.00 673.64,35.00 674.38,35.00 675.13,35.00 675.88,35.00 676.63,35.00 677.37,35.00 678.11,35.00 678.86,35.00 679.60,35.00 680.35,35.00 681.10,35.00 681.85,35.00 682.60,35.00 683.34,35.00 684.09,35.00 684.84,35.00 685.59,35.00 686.32,35.00 687.06,35.00 687.80,35.00 688.54,35.00 689.29,35.00 690.06,35.00 690.80,35.00 691.55,35.00 692.30,35.00 693.06,35.00 693.81,35.00 694.56,35.00 695.31,35.00 696.06,35.00 696.80,35.00 697.56,35.00 698.31,35.00 699.07,35.00 699.82,35.00 700.57,35.00 701.31,35.00 702.06,35.00 702.80,35.00 703.55,35.00 704.29,35.00 705.03,35.00 705.78,35.00 706.53,35.00 707.28,35.00 708.02,35.00 708.77,35.00 709.51,35.00 710.26,35.00 711.01,35.00 711.77,35.00 712.51,35.00 713.26,35.00 714.01,35.00 714.76,35.00 715.50,35.00 716.25,35.00 717.00,35.00 717.75,35.00 718.49,35.00 719.25,35.00 720.00,35.00 720.74,35.00 721.49,35.00 722.23,35.00 723.01,35.00 723.75,35.00 724.51,35.00 725.27,35.00 726.02,35.00 726.77,35.00 727.52,35.00 728.27,35.00 729.02,35.00 729.77,35.00 730.52,35.00 731.29,35.00 732.04,35.00 732.78,35.00 733.53,35.00 734.28,35.00 735.03,35.00 735.78,35.00 736.52,35.00 737.27,35.00 738.02,35.00 738.77,35.00 739.52,35.00 740.26,35.00 741.01,35.00 741.75,35.00 742.50,35.00 743.24,35.00 743.99,35.00 744.73,35.00 745.50,35.00 746.24,35.00 746.99,35.00 747.73,35.00 748.48,35.00 749.22,35.00 749.98,35.00 750.72,35.00 751.48,35.00 752.23,35.00 752.97,35.00 753.72,35.00 754.47,35.00 755.21,35.00 755.96,35.00 756.72,35.00 757.48,35.00 758.24,35.00 759.01,35.00 759.77,35.00 760.53,35.00 761.30,35.00 762.06,35.00 762.84,35.00 763.60,35.00 764.37,35.00 765.11,35.00 765.86,35.00 766.61,35.00 767.37,35.00 768.11,35.00 768.87,35.00 769.62,35.00 770.37,35.00 771.12,35.00 771.87,35.00 772.61,35.00 773.35,35.00 774.10,35.00 774.85,35.00 775.59,35.00 776.35,35.00 777.10,35.00 777.84,35.00 778.60,35.00 779.35,35.00 780.10,35.00 780.85,35.00 781.59,35.00 782.34,35.00 783.09,35.00 783.84,35.00 784.59,35.00 785.33,35.00 786.09,35.00 786.83,35.00 787.58,35.00 788.33,35.00 789.08,35.00 789.83,35.00 790.63,35.00 791.40,35.00 792.14,35.00 792.89,35.00 793.64,35.00 794.40,35.00 795.15,35.00 795.91,35.00 796.66,35.00 797.40,35.00 798.13,35.00 798.88,35.00 799.63,35.00 800.38,35.00 801.13,35.00 801.87,35.00 802.63,35.00 803.38,35.00 804.13,35.00 804.88,35.00 805.62,35.00 806.37,35.00 807.12,35.00 807.87,35.00 808.61,35.00 809.36,35.00 810.12,35.00 810.86,35.00 811.61,35.00 812.39,35.00 813.15,35.00 813.89,35.00 814.64,35.00 815.39,35.00 816.14,35.00 816.89,35.00 817.64,35.00 818.39,35.00 819.14,35.00 819.89,35.00 820.65,35.00 821.40,35.00 822.16,35.00 822.90,35.00 823.65,35.00 824.40,35.00 825.14,35.00 825.90,35.00 826.64,35.00 827.40,35.00 828.15,35.00 828.89,35.00 829.64,35.00 830.39,35.00 831.14,35.00 831.89,35.00 832.63,35.00 833.38,35.00 834.13,35.00 834.88,35.00 835.62,35.00 836.37,35.00 837.12,35.00 837.87,35.00 838.62,35.00 839.37,35.00 840.11,35.00 840.85,35.00 841.60,35.00 842.34,35.00 843.10,35.00 843.85,35.00 844.61,35.00 845.36,35.00 846.11,35.00 846.87,35.00 847.61,35.00 848.37,35.00 849.18,35.00 849.94,35.00 850.70,35.00 851.45,35.00 852.21,35.00 852.96,35.00 853.70,35.00 854.45,35.00 855.20,35.00 855.95,35.00 856.70,35.00 857.45,35.00 858.20,35.00 858.97,35.00 859.72,35.00 860.47,35.00 861.22,35.00 861.96,35.00 862.72,35.00 863.47,35.00 864.21,35.00 864.96,35.00 865.72,35.00 866.47,35.00 867.22,35.00 867.97,35.00 868.72,35.00 869.47,35.00 870.23,35.00 870.98,35.00 871.74,35.00 872.48,35.00 873.23,35.00 873.99,35.00 874.73,35.00 875.47,35.00 876.22,35.00 876.97,35.00 877.72,35.00 878.47,35.00 879.21,35.00 879.96,35.00 880.72,35.00 881.47,35.00 882.21,35.00 882.97,35.00 883.71,35.00 884.47,35.00 885.23,35.00 885.96,35.00 886.69,35.00 887.43,35.00 888.19,35.00 888.94,35.00 889.69,35.00 890.45,35.00 891.19,35.00 891.95,35.00 892.71,35.00 893.45,35.00 894.20,35.00 894.94,35.00 895.69,35.00 896.43,35.00 897.17,35.00 897.92,35.00 898.67,35.00 899.42,35.00 900.16,35.00 900.91,35.00 901.66,35.00 902.41,35.00 903.16,35.00 903.90,35.00 904.64,35.00 905.37,35.00 906.14,35.00 906.88,35.00 907.63,35.00 908.38,35.00 909.14,35.00 909.89,35.00 910.63,35.00 911.39,35.00 912.13,35.00 912.88,35.00 913.63,35.00 914.44,35.00 915.18,35.00 915.94,35.00 916.69,35.00 917.45,35.00 918.19,35.00 918.93,35.00 919.69,35.00 920.44,35.00 921.18,35.00 921.93,35.00 922.67,35.00 923.43,35.00 924.19,35.00 924.93,35.00 925.68,35.00 926.43,35.00 927.18,35.00 927.93,35.00 928.68,35.00 929.43,35.00 930.19,35.00 930.96,35.00 931.71,35.00 932.46,35.00 933.21,35.00 933.96,35.00 934.72,35.00 935.47,35.00 936.21,35.00 936.96,35.00 937.71,35.00 938.45,35.00 939.20,35.00 939.96,35.00 940.71,35.00 941.46,35.00 942.21,35.00 942.95,35.00 943.69,35.00 944.44,35.00 945.19,35.00 945.93,35.00 946.68,35.00 947.43,35.00 948.17,35.00 948.92,35.00 949.66,35.00 950.41,35.00 951.15,35.00 951.90,35.00 952.64,35.00 953.39,35.00 954.13,35.00 954.88,35.00 955.62,35.00 956.38,35.00 957.12,35.00 957.86,35.00 958.60,35.00 959.35,35.00 960.11,35.00 960.85,35.00 961.60,35.00 962.35,35.00 963.13,35.00 963.87,35.00 964.62,35.00 965.38,35.00 966.13,35.00 966.88,35.00 967.63,35.00 968.38,35.00 969.13,35.00 969.88,35.00 970.62,35.00 971.36,35.00 972.11,35.00 972.86,35.00 973.61,35.00 974.36,35.00 975.10,35.00 975.85,35.00 976.59,35.00 977.34,35.00 978.10,35.00 978.88,35.00 979.63,35.00 980.37,35.00 981.11,35.00 981.85,35.00 982.61,35.00 983.35,35.00 984.10,35.00 984.85,35.00 985.60,35.00 986.35,35.00 987.10,35.00 987.85,35.00 988.60,35.00 989.35,35.00 990.10,35.00 990.85,35.00 991.59,35.00 992.34,35.00 993.08,35.00 993.82,35.00 994.57,35.00 995.32,35.00 996.06,35.00 996.81,35.00 997.56,35.00 998.31,35.00 999.06,35.00 999.81,35.00 1000.55,35.00 1001.30,35.00 1002.05,35.00 1002.79,35.00 1003.55,35.00 1004.29,35.00 1005.04,35.00 1005.79,35.00 1006.53,35.00 1007.27,35.00 1008.02,35.00 1008.77,35.00 1009.51,35.00 1010.28,35.00 1011.03,35.00 1011.77,35.00 1012.52,35.00 1013.28,35.00 1014.03,35.00 1014.79,35.00 1015.54,35.00 1016.34,35.00 1017.09,35.00 1017.89,35.00 1018.64,35.00 1019.38,35.00 1020.12,35.00 1020.87,35.00 1021.62,35.00 1022.37,35.00 1023.11,35.00 1023.86,35.00 1024.61,35.00 1025.36,35.00 1026.10,35.00 1026.85,35.00 1027.59,35.00 1028.34,35.00 1029.09,35.00 1029.83,35.00 1030.57,35.00 1031.33,35.00 1032.08,35.00 1032.83,35.00 1033.57,35.00 1034.31,35.00 1035.06,35.00 1035.81,35.00 1036.57,35.00 1037.31,35.00 1038.06,35.00 1038.81,35.00 1039.56,35.00 1040.30,35.00 1041.04,35.00 1041.80,35.00 1042.54,35.00 1043.28,35.00 1044.02,35.00 1044.76,35.00 1045.51,35.00 1046.26,35.00 1047.00,35.00 1047.75,35.00 1048.51,35.00 1049.28,35.00 1050.03,35.00 1050.78,35.00 1051.52,35.00 1052.26,35.00 1053.00,35.00 1053.75,35.00 1054.50,35.00 1055.24,35.00 1055.98,35.00 1056.73,35.00 1057.47,35.00 1058.21,35.00 1058.96,35.00 1059.70,35.00 1060.45,35.00 1061.19,35.00 1061.95,35.00 1062.69,35.00 1063.43,35.00 1064.19,35.00 1064.94,35.00 1065.68,35.00 1066.43,35.00 1067.18,35.00 1067.92,35.00 1068.68,35.00 1069.43,35.00 1070.19,35.00 1070.93,35.00 1071.67,35.00 1072.42,35.00 1073.17,35.00 1073.91,35.00 1074.68,35.00 1075.43,35.00 1076.19,35.00 1076.94,35.00 1077.69,35.00 1078.43,35.00 1079.18,35.00 1079.92,35.00 1080.68,35.00 1081.43,35.00 1082.17,35.00 1082.92,35.00 1083.67,35.00 1084.42,35.00 1085.17,35.00 1085.94,35.00 1086.70,35.00 1087.49,35.00 1088.25,35.00 1089.00,35.00 1089.74,35.00 1090.48,35.00 1091.24,35.00 1091.98,35.00 1092.73,35.00 1093.48,35.00 1094.23,35.00 1094.99,35.00 1095.73,35.00 1096.47,35.00 1097.22,35.00 1097.97,35.00 1098.72,35.00 1099.49,35.00 1100.25,35.00 1101.00,35.00 1101.76,35.00 1102.54,35.00 1103.29,35.00 1104.09,35.00 1104.84,35.00 1105.59,35.00 1106.34,35.00 1107.09,35.00 1107.83,35.00 1108.58,35.00 1109.32,35.00 1110.07,35.00 1110.82,35.00 1111.57,35.00 1112.33,35.00 1113.08,35.00 1113.83,35.00 1114.59,35.00 1115.47,35.00 1116.22,35.00 1116.96,35.00 1117.70,35.00 1118.44,35.00 1119.18,35.00 1119.92,35.00 1120.61,35.00 1121.28,35.00 1122.09,35.00 1122.80,35.00 1123.48,35.00 1124.24,35.00 1124.89,35.00 1125.63,35.00 1126.38,35.00 1127.13,35.00 1127.88,35.00 1128.62,35.00 1129.37,35.00 1130.11,35.00 1130.85,35.00 1131.60,35.00 1132.35,35.00 1133.09,35.00 1133.84,35.00 1134.59,35.00 1135.33,35.00 1136.07,35.00 1136.81,35.00 1137.55,35.00 1138.29,35.00 1139.04,35.00 1139.78,35.00 1140.53,35.00 1141.27,35.00 1142.03,35.00 1142.77,35.00 1143.51,35.00 1144.26,35.00 1145.00,35.00 1145.74,35.00 1146.48,35.00 1147.22,35.00 1147.96,35.00 1148.71,35.00 1149.45,35.00 1150.20,35.00 1150.94,35.00 1151.69,35.00 1152.44,35.00 1153.18,35.00 1153.93,35.00 1154.67,35.00 1155.41,35.00 1156.16,35.00 1156.91,35.00 1157.65,35.00 1158.38,35.00 1159.13,35.00 1159.87,35.00 1160.61,35.00 1161.35,35.00 1162.09,35.00 1162.85,35.00 1163.60,35.00 1164.35,35.00 1165.09,35.00 1165.84,35.00 1166.59,35.00 1167.34,35.00 1168.08,35.00 1168.83,35.00 1169.58,35.00 1170.32,35.00 1171.06,35.00 1171.80,35.00 1172.55,35.00 1173.30,35.00 1174.04,35.00 1174.79,35.00 1175.53,35.00 1176.27,35.00 1177.02,35.00 1177.76,35.00 1178.51,35.00 1179.26,35.00 1180.00,35.00"/>
<polyline fill="none" stroke="#1f77b4" stroke-opacity="0.50" stroke-width="2" points="70.00,35.00 70.74,35.00 71.49,35.00 72.23,35.00 72.98,35.00 73.73,35.00 74.47,35.00 75.22,35.00 76.03,35.00 76.77,35.00 77.51,35.00 78.25,35.00 79.00,35.00 79.74,35.00 80.48,35.00 81.82,35.00 82.98,35.00 83.73,35.00 84.50,35.00 85.24,35.00 85.98,35.00 86.71,35.00 87.46,35.00 88.20,35.00 88.95,35.00 89.70,35.00 90.46,35.00 91.21,35.00 91.96,35.00 92.74,35.00 93.49,35.00 94.23,35.00 95.00,35.00 95.74,35.00 96.49,35.00 97.25,35.00 97.99,35.00 98.74,35.00 99.50,35.00 100.23,35.00 100.98,35.00 101.71,35.00 102.46,35.00 103.20,35.00 103.94,35.00 104.70,35.00 105.46,35.00 106.19,35.00 106.93,35.00 107.69,35.00 108.43,35.00 109.28,35.00 110.03,35.00 110.77,35.00 111.51,35.00 112.25,35.00 112.99,35.00 113.73,35.00 114.47,35.00 115.22,35.00 115.97,35.00 116.72,35.00 117.45,35.00 118.20,35.00 118.96,35.00 119.70,35.00 120.45,35.00 121.18,35.00 121.92,35.00 122.66,35.00 123.40,35.00 124.14,35.00 124.89,35.00 125.62,35.00 126.37,35.00 127.12,35.00 127.85,35.00 128.60,35.00 129.34,35.00 130.08,35.00 130.84,35.00 131.59,35.00 132.33,35.00 133.08,35.00 133.82,35.00 134.57,35.00 135.31,35.00 136.04,35.00 136.78,35.00 137.53,35.00 138.28,35.00 139.02,35.00 139.78,35.00 140.51,35.00 141.26,35.00 142.00,35.00 142.74,35.00 143.48,35.00 144.22,35.00 144.96,35.00 145.71,35.00 146.46,35.00 147.20,35.00 147.95,35.00 148.70,35.00 149.45,35.00 150.19,35.00 150.93,35.00 151.68,35.00 152.42,35.00 153.17,35.00 153.91,35.00 154.65,35.00 155.40,35.00 156.14,35.00 156.89,35.00 157.64,35.00 158.40,35.00 159.14,35.00 159.88,35.00 160.63,35.00 161.37,35.00 162.11,35.00 162.86,35.00 163.67,35.00 164.41,35.00 165.16,35.00 165.91,35.00 166.65,35.00 167.38,35.00 168.11,35.00 168.86,35.00 169.60,35.00 170.35,35.00 171.09,35.00 171.83,35.00 172.57,35.00 173.31,35.00 174.07,35.00 174.81,35.00 175.55,35.00 176.29,35.00 177.04,35.00 177.78,35.00 178.52,35.00 179.27,35.00 180.02,35.00 180.76,35.00 181.50,35.00 182.24,35.00 182.98,35.00 183.72,35.00 184.47,35.00 185.21,35.00 185.97,35.00 186.71,35.00 187.45,35.00 188.21,35.00 188.95,35.00 189.69,35.00 190.44,35.00 191.18,35.00 191.94,35.00 192.69,35.00 193.43,35.00 194.18,35.00 194.92,35.00 195.66,35.00 196.40,35.00 197.14,35.00 197.88,35.00 198.62,35.00 199.36,35.00 200.11,35.00 200.86,35.00 201.60,35.00 202.35,35.00 203.11,35.00 203.85,35.00 204.59,35.00 205.33,35.00 206.07,35.00 206.88,35.00 207.64,35.00 208.38,35.00 209.12,35.00 209.85,35.00 210.60,35.00 211.34,35.00 212.09,35.00 212.84,35.00 213.58,35.00 214.32,35.00 215.06,35.00 215.82,35.00 216.57,35.00 217.30,35.00 218.05,35.00 218.80,35.00 219.56,35.00 220.32,35.00 221.06,35.00 221.80,35.00 222.55,35.00 223.29,35.00 224.03,35.00 224.78,35.00 225.53,35.00 226.27,35.00 227.01,35.00 227.76,35.00 228.51,35.00 229.25,35.00 230.00,35.00 230.75,35.00 231.50,35.00 232.24,35.00 232.97,35.00 233.71,35.00 234.46,35.00 235.20,35.00 235.94,35.00 236.69,35.00 237.42,35.00 238.16,35.00 238.91,35.00 239.66,35.00 240.41,35.00 241.16,35.00 241.90,35.00 242.65,35.00 243.39,35.00 244.14,35.00 244.88,35.00 245.63,35.00 246.37,35.00 247.14,35.00 247.88,35.00 248.63,35.00 249.37,35.00 250.11,35.00 250.86,35.00 251.60,35.00 252.34,35.00 253.09,35.00 253.83,35.00 254.58,35.00 255.32,35.00 256.07,35.00 256.82,35.00 257.56,35.00 258.31,35.00 259.06,35.00 259.80,35.00 260.54,35.00 261.29,35.00 262.05,35.00 262.79,35.00 263.54,35.00 264.28,35.00 265.10,35.00 265.85,35.00 266.60,35.00 267.34,35.00 268.10,35.00 268.84,35.00 269.59,35.00 270.33,35.00 271.07,35.00 271.84,35.00 272.60,35.00 273.33,35.00 274.08,35.00 274.82,35.00 275.57,35.00 276.31,35.00 277.08,35.00 277.83,35.00 278.57,35.00 279.33,35.00 280.13,35.00 280.87,35.00 281.81,35.00 283.07,35.00 283.83,35.00 284.59,35.00 285.33,35.00 286.06,35.00 286.80,35.00 287.56,35.00 288.31,35.00 289.06,35.00 289.83,35.00 290.60,35.00 291.39,35.00 292.14,35.00 292.88,35.00 293.63,35.00 294.38,35.00 295.14,35.00 295.89,35.00 296.63,35.00 297.37,35.00 298.15,35.00 298.89,35.00 299.63,35.00 300.38,35.00 301.13,35.00 301.91,35.00 302.66,35.00 303.40,35.00 304.17,35.00 304.88,35.00 305.62,35.00 306.38,35.00 307.12,35.00 307.88,35.00 308.64,35.00 309.39,35.00 310.13,35.00 310.89,35.00 311.64,35.00 312.38,35.00 313.13,35.00 313.87,35.00 314.61,35.00 315.36,35.00 316.10,35.00 316.99,35.00 317.86,35.00 318.75,35.00 319.61,35.00 320.46,35.00 321.32,35.00 322.20,35.00 323.07,35.00 323.81,35.00 324.55,35.00 325.29,35.00 326.04,35.00 326.78,35.00 327.52,35.00 328.26,35.00 329.00,35.00 329.74,35.00 330.49,35.00 331.23,35.00 331.97,35.00 332.71,35.00 333.45,35.00 334.19,35.00 334.93,35.00 335.68,35.00 336.41,35.00 337.16,35.00 337.91,35.00 338.65,35.00 339.39,35.00 340.13,35.00 340.87,35.00 341.61,35.00 342.36,35.00 343.10,35.00 343.84,35.00 344.59,35.00 345.33,35.00 346.07,35.00 346.81,35.00 347.55,35.00 348.29,35.00 349.03,35.00 349.76,35.00 350.50,35.00 351.24,35.00 351.98,35.00 352.72,35.00 353.46,35.00 354.21,35.00 354.94,35.00 355.68,35.00 356.41,35.00 357.18,35.00 357.98,35.00 358.72,35.00 359.47,35.00 360.21,35.00 360.95,35.00 361.69,35.00 362.42,35.00 363.16,35.00 364.04,35.00 364.91,35.00 365.78,35.00 366.65,35.00 367.53,35.00 368.39,35.00 369.28,35.00 370.18,35.00 371.00,35.00 371.79,35.00 372.54,35.00 373.29,35.00 374.04,35.00 374.77,35.00 375.51,35.00 376.26,35.00 377.00,35.00 377.74,35.00 378.48,35.00 379.22,35.00 379.97,35.00 380.71,35.00 381.46,35.00 382.20,35.00 382.94,35.00 383.59,35.00 384.36,35.00 385.10,35.00 385.87,35.00 386.61,35.00 387.35,35.00 388.10,35.00 388.85,35.00 389.59,35.00 390.35,35.00 391.09,35.00 391.85,35.00 392.59,35.00 393.33,35.00 394.07,35.00 394.81,35.00 395.55,35.00 396.29,35.00 397.04,35.00 397.78,35.00 398.52,35.00 399.27,35.00 400.00,35.00 400.75,35.00 401.50,35.00 402.24,35.00 402.99,35.00 403.73,35.00 404.48,35.00 405.23,35.00 405.97,35.00 406.74,35.00 407.48,35.00 408.22,35.00 408.96,35.00 409.69,35.00 410.43,35.00 411.19,35.00 411.93,35.00 412.67,35.00 413.41,35.00 414.15,35.00 414.89,35.00 415.64,35.00 416.39,35.00 417.13,35.00 418.03,35.00 418.79,35.00 419.55,35.00 420.30,35.00 421.05,35.00 421.80,35.00 422.54,35.00 423.28,35.00 424.03,35.00 424.78,35.00 425.52,35.00 426.27,35.00 427.02,35.00 427.76,35.00 428.53,35.00 429.28,35.00 430.03,35.00 430.77,35.00 431.52,35.00 432.26,35.00 433.00,35.00 433.75,35.00 434.52,35.00 435.27,35.00 436.02,35.00 436.76,35.00 437.50,35.00 438.25,35.00 438.99,35.00 439.74,35.00 440.49,35.00 441.23,35.00 441.98,35.00 442.73,35.00 443.47,35.00 444.21,35.00 444.95,35.00 445.71,35.00 446.46,35.00 447.20,35.00 447.94,35.00 448.68,35.00 449.44,35.00 450.19,35.00 451.08,35.00 451.85,35.00 452.59,35.00 453.34,35.00 454.08,35.00 454.83,35.00 455.57,35.00 456.32,35.00 457.08,35.00 457.82,35.00 458.56,35.00 459.30,35.00 460.04,35.00 460.79,35.00 461.53,35.00 462.28,35.00 463.02,35.00 463.76,35.00 464.50,35.00 465.25,35.00 466.00,35.00 466.74,35.00 467.48,35.00 468.23,35.00 468.99,35.00 469.73,35.00 470.47,35.00 471.22,35.00 471.98,35.00 472.72,35.00 473.47,35.00 474.22,35.00 474.96,35.00 475.70,35.00 476.45,35.00 477.20,35.00 477.96,35.00 478.70,35.00 479.45,35.00 480.18,35.00 480.92,35.00 481.67,35.00 482.41,35.00 483.16,35.00 483.91,35.00 484.66,35.00 485.41,35.00 486.14,35.00 486.90,35.00 487.63,35.00 488.38,35.00 489.12,35.00 489.87,35.00 490.61,35.00 491.36,35.00 492.11,35.00 492.85,35.00 493.60,35.00 494.35,35.00 495.10,35.00 495.85,35.00 496.60,35.00 497.44,35.00 498.25,35.00 499.05,35.00 499.80,35.00 500.58,35.00 501.33,35.00 502.07,35.00 502.81,35.00 503.51,35.00 504.28,35.00 505.03,35.00 505.78,35.00 506.52,35.00 507.26,35.00 508.00,35.00 508.75,35.00 509.50,35.00 510.24,35.00 510.99,35.00 511.73,35.00 512.48,35.00 513.23,35.00 513.98,35.00 514.73,35.00 515.48,35.00 516.23,35.00 516.97,35.00 517.73,35.00 518.48,35.00 519.22,35.00 519.96,35.00 520.71,35.00 521.45,35.00 522.19,35.00 522.94,35.00 523.69,35.00 524.44,35.00 525.18,35.00 525.92,35.00 526.67,35.00 527.42,35.00 528.17,35.00 528.92,35.00 529.66,35.00 530.40,35.00 531.15,35.00 531.90,35.00 532.65,35.00 533.40,35.00 534.15,35.00 534.90,35.00 535.64,35.00 536.39,35.00 537.14,35.00 537.91,35.00 538.66,35.00 539.41,35.00 540.15,35.00 540.90,35.00 541.64,35.00 542.39,35.00 543.14,35.00 543.89,35.00 544.63,35.00 545.38,35.00 546.13,35.00 546.87,35.00 547.63,35.00 548.38,35.00 549.13,35.00 549.88,35.00 550.63,35.00 551.38,35.00 552.13,35.00 552.87,35.00 553.62,35.00 554.37,35.00 555.13,35.00 555.88,35.00 556.63,35.00 557.38,35.00 558.12,35.00 558.87,35.00 559.61,35.00 560.36,35.00 561.11,35.00 561.86,35.00 562.60,35.00 563.35,35.00 564.10,35.00 564.85,35.00 565.60,35.00 566.34,35.00 567.09,35.00 567.84,35.00 568.59,35.00 569.34,35.00 570.08,35.00 570.82,35.00 571.56,35.00 572.31,35.00 573.06,35.00 573.81,35.00 574.56,35.00 575.31,35.00 576.05,35.00 576.81,35.00 577.56,35.00 578.31,35.00 579.06,35.00 579.81,35.00 580.56,35.00 581.30,35.00 582.05,35.00 582.81,35.00 583.56,35.00 584.31,35.00 585.07,35.00 585.82,35.00 586.57,35.00 587.32,35.00 588.06,35.00 588.82,35.00 589.57,35.00 590.32,35.00 591.07,35.00 591.82,35.00 592.56,35.00 593.30,35.00 594.07,35.00 594.81,35.00 595.57,35.00 596.31,35.00 597.06,35.00 597.80,35.00 598.54,35.00 599.28,35.00 600.04,35.00 600.78,35.00 601.53,35.00 602.28,35.00 603.03,35.00 603.77,35.00 604.54,35.00 605.29,35.00 606.03,35.00 606.78,35.00 607.52,35.00 608.27,35.00 609.02,35.00 609.77,35.00 610.52,35.00 611.26,35.00 612.02,35.00 612.76,35.00 613.51,35.00 614.26,35.00 615.01,35.00 615.78,35.00 616.54,35.00 617.29,35.00 618.04,35.00 618.79,35.00 619.54,35.00 620.28,35.00 621.03,35.00 621.77,35.00 622.52,35.00 623.27,35.00 624.02,35.00 624.77,35.00 625.53,35.00 626.31,35.00 627.05,35.00 627.80,35.00 628.55,35.00 629.30,35.00 630.05,35.00 630.80,35.00 631.56,35.00 632.31,35.00 633.06,35.00 633.81,35.00 634.56,35.00 635.31,35.00 636.06,35.00 636.81,35.00 637.56,35.00 638.30,35.00 639.06,35.00 639.81,35.00 640.56,35.00 641.31,35.00 642.06,35.00 642.81,35.00 643.56,35.00 644.31,35.00 645.06,35.00 645.83,35.00 646.58,35.00 647.34,35.00 648.09,35.00 648.85,35.00 649.62,35.00 650.38,35.00 651.14,35.00 651.91,35.00 652.66,35.00 653.41,35.00 654.16,35.00 654.91,35.00 655.66,35.00 656.41,35.00 657.18,35.00 657.93,35.00 658.68,35.00 659.43,35.00 660.17,35.00 660.92,35.00 661.67,35.00 662.42,35.00 663.16,35.00 663.91,35.00 664.65,35.00 665.40,35.00 666.14,35.00 666.89,35.00 667.64,35.00 668.39,35.00 669.13,35.00 669.89,35.00 670.65,35.00 671.39,35.00 672.14,35.00 672.89,35.00 673.64,35.00 674.38,35.00 675.13,35.00 675.88,35.00 676.63,35.00 677.37,35.00 678.11,35.00 678.86,35.00 679.60,35.00 680.35,35.00 681.10,35.00 681.85,35.00 682.60,35.00 683.34,35.00 684.09,35.00 684.84,35.00 685.59,35.00 686.32,35.00 687.06,35.00 687.80,35.00 688.54,35.00 689.29,35.00 690.06,35.00 690.80,35.00 691.55,35.00 692.30,35.00 693.06,35.00 693.81,35.00 694.56,35.00 695.31,35.00 696.06,35.00 696.80,35.00 697.56,35.00 698.31,35.00 699.07,35.00 699.82,35.00 700.57,35.00 701.31,35.00 702.06,35.00 702.80,35.00 703.55,35.00 704.29,35.00 705.03,35.00 705.78,35.00 706.53,35.00 707.28,35.00 708.02,35.00 708.77,35.00 709.51,35.00 710.26,35.00 711.01,35.00 711.77,35.00 712.51,35.00 713.26,35.00 714.01,35.00 714.76,35.00 715.50,35.00 716.25,35.00 717.00,35.00 717.75,35.00 718.49,35.00 719.25,35.00 720.00,35.00 720.74,35.00 721.49,35.00 722.23,35.00 723.01,35.00 723.75,35.00 724.51,35.00 725.27,35.00 726.02,35.00 726.77,35.00 727.52,35.00 728.27,35.00 729.02,35.00 729.77,35.00 730.52,35.00 731.29,35.00 732.04,35.00 732.78,35.00 733.53,35.00 734.28,35.00 735.03,35.00 735.78,35.00 736.52,35.00 737.27,35.00 738.02,35.00 738.77,35.00 739.52,35.00 740.26,35.00 741.01,35.00 741.75,35.00 742.50,35.00 743.24,35.00 743.99,35.00 744.73,35.00 745.50,35.00 746.24,35.00 746.99,35.00 747.73,35.00 748.48,35.00 749.22,35.00 749.98,35.00 750.72,35.00 751.48,35.00 752.23,35.00 752.97,35.00 753.72,35.00 754.47,35.00 755.21,35.00 755.96,35.00 756.72,35.00 757.48,35.00 758.24,35.00 759.01,35.00 759.77,35.00 760.53,35.00 761.30,35.00 762.06,35.00 762.84,35.00 763.60,35.00 764.37,35.00 765.11,35.00 765.86,35.00 766.61,35.00 767.37,35.00 768.11,35.00 768.87,35.00 769.62,35.00 770.37,35.00 771.12,35.00 771.87,35.00 772.61,35.00 773.35,35.00 774.10,35.00 774.85,35.00 775.59,35.00 776.35,35.00 777.10,35.00 777.84,35.00 778.60,35.00 779.35,35.00 780.10,35.00 780.85,35.00 781.59,35.00 782.34,35.00 783.09,35.00 783.84,35.00 784.59,35.00 785.33,35.00 786.09,35.00 786.83,35.00 787.58,35.00 788.33,35.00 789.08,35.00 789.83,35.00 790.63,35.00 791.40,35.00 792.14,35.00 792.89,35.00 793.64,35.00 794.40,35.00 795.15,35.00 795.91,35.00 796.66,35.00 797.40,35.00 798.13,35.00 798.88,35.00 799.63,35.00 800.38,35.00 801.13,35.00 801.87,35.00 802.63,35.00 803.38,35.00 804.13,35.00 804.88,35.00 805.62,35.00 806.37,35.00 807.12,35.00 807.87,35.00 808.61,35.00 809.36,35.00 810.12,35.00 810.86,35.00 811.61,35.00 812.39,35.00 813.15,35.00 813.89,35.00 814.64,35.00 815.39,35.00 816.14,35.00 816.89,35.00 817.64,35.00 818.39,35.00 819.14,35.00 819.89,35.00 820.65,35.00 821.40,35.00 822.16,35.00 822.90,35.00 823.65,35.00 824.40,35.00 825.14,35.00 825.90,35.00 826.64,35.00 827.40,35.00 828.15,35.00 828.89,35.00 829.64,35.00 830.39,35.00 831.14,35.00 831.89,35.00 832.63,35.00 833.38,35.00 834.13,35.00 834.88,35.00 835.62,35.00 836.37,35.00 837.12,35.00 837.87,35.00 838.62,35.00 839.37,35.00 840.11,35.00 840.85,35.00 841.60,35.00 842.34,35.00 843.10,35.00 843.85,35.00 844.61,35.00 845.36,35.00 846.11,35.00 846.87,35.00 847.61,35.00 848.37,35.00 849.18,35.00 849.94,35.00 850.70,35.00 851.45,35.00 852.21,35.00 852.96,35.00 853.70,35.00 854.45,35.00 855.20,35.00 855.95,35.00 856.70,35.00 857.45,35.00 858.20,35.00 858.97,35.00 859.72,35.00 860.47,35.00 861.22,35.00 861.96,35.00 862.72,35.00 863.47,35.00 864.21,35.00 864.96,35.00 865.72,35.00 866.47,35.00 867.22,35.00 867.97,35.00 868.72,35.00 869.47,35.00 870.23,35.00 870.98,35.00 871.74,35.00 872.48,35.00 873.23,35.00 873.99,35.00 874.73,35.00 875.47,35.00 876.22,35.00 876.97,35.00 877.72,35.00 878.47,35.00 879.21,35.00 879.96,35.00 880.72,35.00 881.47,35.00 882.21,35.00 882.97,35.00 883.71,35.00 884.47,35.00 885.23,35.00 885.96,35.00 886.69,35.00 887.43,35.00 888.19,35.00 888.94,35.00 889.69,35.00 890.45,35.00 891.19,35.00 891.95,35.00 892.71,35.00 893.45,35.00 894.20,35.00 894.94,35.00 895.69,35.00 896.43,35.00 897.17,35.00 897.92,35.00 898.67,35.00 899.42,35.00 900.16,35.00 900.91,35.00 901.66,35.00 902.41,35.00 903.16,35.00 903.90,35.00 904.64,35.00 905.37,35.00 906.14,35.00 906.88,35.00 907.63,35.00 908.38,35.00 909.14,35.00 909.89,35.00 910.63,35.00 911.39,35.00 912.13,35.00 912.88,35.00 913.63,35.00 914.44,35.00 915.18,35.00 915.94,35.00 916.69,35.00 917.45,35.00 918.19,35.00 918.93,35.00 919.69,35.00 920.44,35.00 921.18,35.00 921.93,35.00 922.67,35.00 923.43,35.00 924.19,35.00 924.93,35.00 925.68,35.00 926.43,35.00 927.18,35.00 927.93,35.00 928.68,35.00 929.43,35.00 930.19,35.00 930.96,35.00 931.71,35.00 932.46,35.00 933.21,35.00 933.96,35.00 934.72,35.00 935.47,35.00 936.21,35.00 936.96,35.00 937.71,35.00 938.45,35.00 939.20,35.00 939.96,35.00 940.71,35.00 941.46,35.00 942.21,35.00 942.95,35.00 943.69,35.00 944.44,35.00 945.19,35.00 945.93,35.00 946.68,35.00 947.43,35.00 948.17,35.00 948.92,35.00 949.66,35.00 950.41,35.00 951.15,35.00 951.90,35.00 952.64,35.00 953.39,35.00 954.13,35.00 954.88,35.00 955.62,35.00 956.38,35.00 957.12,35.00 957.86,35.00 958.60,35.00 959.35,35.00 960.11,35.00 960.85,35.00 961.60,35.00 962.35,35.00 963.13,35.00 963.87,35.00 964.62,35.00 965.38,35.00 966.13,35.00 966.88,35.00 967.63,35.00 968.38,35.00 969.13,35.00 969.88,35.00 970.62,35.00 971.36,35.00 972.11,35.00 972.86,35.00 973.61,35.00 974.36,35.00 975.10,35.00 975.85,35.00 976.59,35.00 977.34,35.00 978.10,35.00 978.88,35.00 979.63,35.00 980.37,35.00 981.11,35.00 981.85,35.00 982.61,35.00 983.35,35.00 984.10,35.00 984.85,35.00 985.60,35.00 986.35,35.00 987.10,35.00 987.85,35.00 988.60,35.00 989.35,35.00 990.10,35.00 990.85,35.00 991.59,35.00 992.34,35.00 993.08,35.00 993.82,35.00 994.57,35.00 995.32,35.00 996.06,35.00 996.81,35.00 997.56,35.00 998.31,35.00 999.06,35.00 999.81,35.00 1000.55,35.00 1001.30,35.00 1002.05,35.00 1002.79,35.00 1003.55,35.00 1004.29,35.00 1005.04,35.00 1005.79,35.00 1006.53,35.00 1007.27,35.00 1008.02,35.00 1008.77,35.00 1009.51,35.00 1010.28,35.00 1011.03,35.00 1011.77,35.00 1012.52,35.00 1013.28,35.00 1014.03,35.00 1014.79,35.00 1015.54,35.00 1016.34,35.00 1017.09,35.00 1017.89,35.00 1018.64,35.00 1019.38,35.00 1020.12,35.00 1020.87,35.00 1021.62,35.00 1022.37,35.00 1023.11,35.00 1023.86,35.00 1024.61,35.00 1025.36,35.00 1026.10,35.00 1026.85,35.00 1027.59,35.00 1028.34,35.00 1029.09,35.00 1029.83,35.00 1030.57,35.00 1031.33,35.00 1032.08,35.00 1032.83,35.00 1033.57,35.00 1034.31,35.00 1035.06,35.00 1035.81,35.00 1036.57,35.00 1037.31,35.00 1038.06,35.00 1038.81,35.00 1039.56,35.00 1040.30,35.00 1041.04,35.00 1041.80,35.00 1042.54,35.00 1043.28,35.00 1044.02,35.00 1044.76,35.00 1045.51,35.00 1046.26,35.00 1047.00,35.00 1047.75,35.00 1048.51,35.00 1049.28,35.00 1050.03,35.00 1050.78,35.00 1051.52,35.00 1052.26,35.00 1053.00,35.00 1053.75,35.00 1054.50,35.00 1055.24,35.00 1055.98,35.00 1056.73,35.00 1057.47,35.00 1058.21,35.00 1058.96,35.00 1059.70,35.00 1060.45,35.00 1061.19,35.00 1061.95,35.00 1062.69,35.00 1063.43,35.00 1064.19,35.00 1064.94,35.00 1065.68,35.00 1066.43,35.00 1067.18,35.00 1067.92,35.00 1068.68,35.00 1069.43,35.00 1070.19,35.00 1070.93,35.00 1071.67,35.00 1072.42,35.00 1073.17,35.00 1073.91,35.00 1074.68,35.00 1075.43,35.00 1076.19,35.00 1076.94,35.00 1077.69,35.00 1078.43,35.00 1079.18,35.00 1079.92,35.00 1080.68,35.00 1081.43,35.00 1082.17,35.00 1082.92,35.00 1083.67,35.00 1084.42,35.00 1085.17,35.00 1085.94,35.00 1086.70,35.00 1087.49,35.00 1088.25,35.00 1089.00,35.00 1089.74,35.00 1090.48,35.00 1091.24,35.00 1091.98,35.00 1092.73,35.00 1093.48,35.00 1094.23,35.00 1094.99,35.00 1095.73,35.00 1096.47,35.00 1097.22,35.00 1097.97,35.00 1098.72,35.00 1099.49,35.00 1100.25,35.00 1101.00,35.00 1101.76,35.00 1102.54,35.00 1103.29,35.00 1104.09,35.00 1104.84,35.00 1105.59,35.00 1106.34,35.00 1107.09,35.00 1107.83,35.00 1108.58,35.00 1109.32,35.00 1110.07,35.00 1110.82,35.00 1111.57,35.00 1112.33,35.00 1113.08,35.00 1113.83,35.00 1114.59,35.00 1115.47,35.00 1116.22,35.00 1116.96,35.00 1117.70,35.00 1118.44,35.00 1119.18,35.00 1119.92,35.00 1120.61,35.00 1121.28,35.00 1122.09,35.00 1122.80,35.00 1123.48,35.00 1124.24,35.00 1124.89,35.00 1125.63,35.00 1126.38,35.00 1127.13,35.00 1127.88,35.00 1128.62,35.00 1129.37,35.00 1130.11,35.00 1130.85,35.00 1131.60,35.00 1132.35,35.00 1133.09,35.00 1133.84,35.00 1134.59,35.00 1135.33,35.00 1136.07,35.00 1136.81,35.00 1137.55,35.00 1138.29,35.00 1139.04,35.00 1139.78,35.00 1140.53,35.00 1141.27,35.00 1142.03,35.00 1142.77,35.00 1143.51,35.00 1144.26,35.00 1145.00,35.00 1145.74,35.00 1146.48,35.00 1147.22,35.00 1147.96,35.00 1148.71,35.00 1149.45,35.00 1150.20,35.00 1150.94,35.00 1151.69,35.00 1152.44,35.00 1153.18,35.00 1153.93,35.00 1154.67,35.00 1155.41,35.00 1156.16,35.00 1156.91,35.00 1157.65,35.00 1158.38,35.00 1159.13,35.00 1159.87,35.00 1160.61,35.00 1161.35,35.00 1162.09,35.00 1162.85,35.00 1163.60,35.00 1164.35,35.00 1165.09,35.00 1165.84,35.00 1166.59,35.00 1167.34,35.00 1168.08,35.00 1168.83,35.00 1169.58,35.00 1170.32,35.00 1171.06,35.00 1171.80,35.00 1172.55,35.00 1173.30,35.00 1174.04,35.00 1174.79,35.00 1175.53,35.00 1176.27,35.00 1177.02,35.00 1177.76,35.00 1178.51,35.00 1179.26,35.00 1180.00,35.00"/>
<rect x="70" y="332" width="12" height="12" fill="#1f77b4" fill-opacity="0.95"/>
<text x="88" y="342" font-size="11" fill="#333" font-family="Arial, Helvetica, sans-serif">nsc1.utdallas.edu</text>
<rect x="350" y="332" width="12" height="12" fill="#1f77b4" fill-opacity="0.80"/>
<text x="368" y="342" font-size="11" fill="#333" font-family="Arial, Helvetica, sans-serif">nsc2.utdallas.edu</text>
<rect x="630" y="332" width="12" height="12" fill="#1f77b4" fill-opacity="0.65"/>
<text x="648" y="342" font-size="11" fill="#333" font-family="Arial, Helvetica, sans-serif">nsc3.utdallas.edu</text>
<rect x="910" y="332" width="12" height="12" fill="#1f77b4" fill-opacity="0.50"/>
<text x="928" y="342" font-size="11" fill="#333" font-family="Arial, Helvetica, sans-serif">nsc4.utdallas.edu</text>
</svg>