<?xml version="1.0" encoding="UTF-8"?>
<svg xmlns="http://www.w3.org/2000/svg" width="1200" height="360" viewBox="0 0 1200 360" role="img" aria-label="Ping Uptime (%)">
<rect width="100%" height="100%" fill="#ffffff"/>
<text x="600.0" y="22" text-anchor="middle" font-size="16" font-family="Arial, Helvetica, sans-serif" font-weight="bold">Ping Uptime (%)</text>
<line x1="70" y1="35.00" x2="1180" y2="35.00" stroke="#e3e3e3" stroke-width="1"/>
<text x="62" y="39.00" text-anchor="end" font-size="11" fill="#444" font-family="Arial, Helvetica, sans-serif">100</text>
<line x1="70" y1="89.00" x2="1180" y2="89.00" stroke="#e3e3e3" stroke-width="1"/>
<text x="62" y="93.00" text-anchor="end" font-size="11" fill="#444" font-family="Arial, Helvetica, sans-serif">80</text>
<line x1="70" y1="143.00" x2="1180" y2="143.00" stroke="#e3e3e3" stroke-width="1"/>
<text x="62" y="147.00" text-anchor="end" font-size="11" fill="#444" font-family="Arial, Helvetica, sans-serif">60</text>
<line x1="70" y1="197.00" x2="1180" y2="197.00" stroke="#e3e3e3" stroke-width="1"/>
<text x="62" y="201.00" text-anchor="end" font-size="11" fill="#444" font-family="Arial, Helvetica, sans-serif">40</text>
<line x1="70" y1="251.00" x2="1180" y2="251.00" stroke="#e3e3e3" stroke-width="1"/>
<text x="62" y="255.00" text-anchor="end" font-size="11" fill="#444" font-family="Arial, Helvetica, sans-serif">20</text>
<line x1="70" y1="305.00" x2="1180" y2="305.00" stroke="#e3e3e3" stroke-width="1"/>
<text x="62" y="309.00" text-anchor="end" font-size="11" fill="#444" font-family="Arial, Helvetica, sans-serif">0</text>
<line x1="70" y1="35" x2="70" y2="305" stroke="#999"/>
<line x1="70" y1="305" x2="1180" y2="305" stroke="#999"/>
<text x="70.00" y="323" text-anchor="middle" font-size="10" fill="#444" font-family="Arial, Helvetica, sans-serif">2026-02-11 16:38</text>
<text x="347.50" y="323" text-anchor="middle" font-size="10" fill="#444" font-family="Arial, Helvetica, sans-serif">2026-02-12 16:27</text>
<text x="625.00" y="323" text-anchor="middle" font-size="10" fill="#444" font-family="Arial, Helvetica, sans-serif">2026-02-13 16:16</text>
<text x="902.50" y="323" text-anchor="middle" font-size="10" fill="#444" font-family="Arial, Helvetica, sans-serif">2026-02-14 16:06</text>
<text x="1180.00" y="323" text-anchor="middle" font-size="10" fill="#444" font-family="Arial, Helvetica, sans-serif">2026-02-15 15:55</text>
<polyline fill="none" stroke="#1f77b4" stroke-opacity="0.95" stroke-width="2" points="71.05,35.00 72.09,35.00 73.14,35.00 74.18,35.00 75.24,35.00 76.27,35.00 77.32,35.00 78.45,35.00 79.49,35.00 80.53,35.00 81.57,35.00 82.63,35.00 83.67,35.00 84.71,35.00 86.59,35.00 88.21,35.00 89.26,35.00 90.34,35.00 91.38,35.00 92.42,35.00 93.44,35.00 94.50,35.00 95.54,35.00 96.59,35.00 97.64,35.00 98.71,35.00 99.75,35.00 100.80,35.00 101.90,35.00 102.95,35.00 104.00,35.00 105.07,35.00 106.11,35.00 107.16,35.00 108.24,35.00 109.27,35.00 110.32,35.00 111.38,35.00 112.41,35.00 113.46,35.00 114.49,35.00 115.53,35.00 116.58,35.00 117.62,35.00 118.69,35.00 119.74,35.00 120.77,35.00 121.81,35.00 122.87,35.00 123.91,35.00 125.11,35.00 126.15,35.00 127.20,35.00 128.23,35.00 129.27,35.00 130.31,35.00 131.34,35.00 132.39,35.00 133.43,35.00 134.50,35.00 135.54,35.00 136.57,35.00 137.62,35.00 138.68,35.00 139.72,35.00 140.77,35.00 141.80,35.00 142.84,35.00 143.88,35.00 144.91,35.00 145.96,35.00 147.00,35.00 148.04,35.00 149.08,35.00 150.13,35.00 151.16,35.00 152.21,35.00 153.25,35.00 154.29,35.00 155.36,35.00 156.40,35.00 157.44,35.00 158.49,35.00 159.53,35.00 160.58,35.00 161.62,35.00 162.65,35.00 163.69,35.00 164.74,35.00 165.79,35.00 166.83,35.00 167.89,35.00 168.92,35.00 169.97,35.00 171.01,35.00 172.05,35.00 173.08,35.00 174.13,35.00 175.16,35.00 176.21,35.00 177.26,35.00 178.31,35.00 179.35,35.00 180.41,35.00 181.46,35.00 182.50,35.00 183.54,35.00 184.58,35.00 185.62,35.00 186.68,35.00 187.72,35.00 188.76,35.00 189.80,35.00 190.85,35.00 191.90,35.00 192.95,35.00 194.01,35.00 195.05,35.00 196.10,35.00 197.14,35.00 198.18,35.00 199.23,35.00 200.28,35.00 201.41,35.00 202.45,35.00 203.51,35.00 204.55,35.00 205.58,35.00 206.62,35.00 207.65,35.00 208.69,35.00 209.73,35.00 210.77,35.00 211.81,35.00 212.85,35.00 213.90,35.00 214.93,35.00 216.00,35.00 217.04,35.00 218.08,35.00 219.12,35.00 220.16,35.00 221.20,35.00 222.25,35.00 223.30,35.00 224.34,35.00 225.39,35.00 226.43,35.00 227.46,35.00 228.50,35.00 229.54,35.00 230.59,35.00 231.63,35.00 232.69,35.00 233.73,35.00 234.78,35.00 235.83,35.00 236.88,35.00 237.91,35.00 238.96,35.00 240.00,35.00 241.07,35.00 242.12,35.00 243.16,35.00 244.21,35.00 245.25,35.00 246.28,35.00 247.32,35.00 248.37,35.00 249.41,35.00 250.44,35.00 251.48,35.00 252.53,35.00 253.58,35.00 254.63,35.00 255.67,35.00 256.74,35.00 257.78,35.00 258.82,35.00 259.86,35.00 260.89,35.00 262.03,35.00 263.10,35.00 264.13,35.00 265.17,35.00 266.20,35.00 267.25,35.00 268.29,35.00 269.34,35.00 270.39,35.00 271.43,35.00 272.46,35.00 273.51,35.00 274.58,35.00 275.62,35.00 276.65,35.00 277.70,35.00 278.75,35.00 279.82,35.00 280.88,35.00 281.92,35.00 282.96,35.00 284.01,35.00 285.05,35.00 286.10,35.00 287.14,35.00 288.20,35.00 289.24,35.00 290.27,35.00 291.33,35.00 292.37,35.00 293.41,35.00 294.46,35.00 295.52,35.00 296.56,35.00 297.60,35.00 298.63,35.00 299.67,35.00 300.72,35.00 301.76,35.00 302.80,35.00 303.84,35.00 304.88,35.00 305.92,35.00 306.97,35.00 308.01,35.00 309.06,35.00 310.12,35.00 311.17,35.00 312.22,35.00 313.26,35.00 314.30,35.00 315.35,35.00 316.39,35.00 317.44,35.00 318.50,35.00 319.55,35.00 320.60,35.00 321.64,35.00 322.68,35.00 323.73,35.00 324.76,35.00 325.80,35.00 326.85,35.00 327.90,35.00 328.94,35.00 329.99,35.00 331.04,35.00 332.08,35.00 333.13,35.00 334.18,35.00 335.23,35.00 336.27,35.00 337.32,35.00 338.37,35.00 339.42,35.00 340.47,35.00 341.51,35.00 342.55,35.00 343.71,35.00 344.76,35.00 345.81,35.00 346.85,35.00 347.91,35.00 348.96,35.00 350.00,35.00 351.05,35.00 352.09,35.00 353.16,35.00 354.22,35.00 355.26,35.00 356.30,35.00 357.34,35.00 358.39,35.00 359.43,35.00 360.52,35.00 361.56,35.00 362.60,35.00 363.66,35.00 364.79,35.00 365.83,35.00 367.15,35.00 368.91,35.00 369.98,35.00 371.05,35.00 372.09,35.00 373.11,35.00 374.15,35.00 375.21,35.00 376.26,35.00 377.31,35.00 378.40,35.00 379.48,35.00 380.59,35.00 381.64,35.00 382.68,35.00 383.73,35.00 384.78,35.00 385.84,35.00 386.90,35.00 387.94,35.00 388.98,35.00 390.07,35.00 391.12,35.00 392.15,35.00 393.20,35.00 394.26,35.00 395.34,35.00 396.39,35.00 397.44,35.00 398.51,35.00 399.51,35.00 400.55,35.00 401.62,35.00 402.65,35.00 403.72,35.00 404.79,35.00 405.84,35.00 406.88,35.00 407.94,35.00 409.00,35.00 410.04,35.00 411.08,35.00 412.12,35.00 413.17,35.00 414.22,35.00 415.25,35.00 416.50,35.00 417.73,35.00 418.97,35.00 420.18,35.00 421.37,35.00 422.58,35.00 423.81,35.00 425.03,35.00 426.08,35.00 427.11,35.00 428.15,35.00 429.19,35.00 430.24,35.00 431.27,35.00 432.31,35.00 433.35,35.00 434.40,35.00 435.44,35.00 436.48,35.00 437.52,35.00 438.56,35.00 439.60,35.00 440.64,35.00 441.68,35.00 442.72,35.00 443.75,35.00 444.80,35.00 445.85,35.00 446.89,35.00 447.92,35.00 448.96,35.00 450.00,35.00 451.05,35.00 452.09,35.00 453.13,35.00 454.18,35.00 455.22,35.00 456.26,35.00 457.30,35.00 458.34,35.00 459.38,35.00 460.42,35.00 461.45,35.00 462.48,35.00 463.52,35.00 464.56,35.00 465.59,35.00 466.63,35.00 467.67,35.00 468.71,35.00 469.74,35.00 470.78,35.00 471.80,35.00 472.88,35.00 474.00,35.00 475.05,35.00 476.10,35.00 477.13,35.00 478.17,35.00 479.21,35.00 480.24,35.00 481.28,35.00 482.51,35.00 483.74,35.00 484.95,35.00 486.17,35.00 487.40,35.00 488.62,35.00 489.86,35.00 491.13,35.00 492.27,35.00 493.39,35.00 494.43,35.00 495.49,35.00 496.53,35.00 497.56,35.00 498.60,35.00 499.65,35.00 500.69,35.00 501.73,35.00 502.76,35.00 503.81,35.00 504.85,35.00 505.89,35.00 506.95,35.00 507.99,35.00 509.03,35.00 509.94,35.00 511.02,35.00 512.06,35.00 513.13,35.00 514.17,35.00 515.21,35.00 516.26,35.00 517.31,35.00 518.36,35.00 519.41,35.00 520.46,35.00 521.53,35.00 522.56,35.00 523.59,35.00 524.64,35.00 525.67,35.00 526.71,35.00 527.75,35.00 528.80,35.00 529.84,35.00 530.88,35.00 531.93,35.00 532.96,35.00 534.01,35.00 535.06,35.00 536.10,35.00 537.16,35.00 538.20,35.00 539.24,35.00 540.29,35.00 541.34,35.00 542.41,35.00 543.45,35.00 544.48,35.00 545.53,35.00 546.56,35.00 547.60,35.00 548.65,35.00 549.69,35.00 550.73,35.00 551.77,35.00 552.81,35.00 553.85,35.00 554.90,35.00 555.95,35.00 556.99,35.00 558.25,35.00 559.32,35.00 560.39,35.00 561.44,35.00 562.49,35.00 563.54,35.00 564.58,35.00 565.62,35.00 566.67,35.00 567.72,35.00 568.76,35.00 569.81,35.00 570.86,35.00 571.90,35.00 572.98,35.00 574.04,35.00 575.09,35.00 576.13,35.00 577.18,35.00 578.22,35.00 579.26,35.00 580.30,35.00 581.39,35.00 582.44,35.00 583.49,35.00 584.53,35.00 585.57,35.00 586.62,35.00 587.66,35.00 588.71,35.00 589.76,35.00 590.80,35.00 591.85,35.00 592.90,35.00 593.94,35.00 594.98,35.00 596.02,35.00 597.09,35.00 598.13,35.00 599.17,35.00 600.21,35.00 601.26,35.00 602.32,35.00 603.37,35.00 604.62,35.00 605.69,35.00 606.74,35.00 607.79,35.00 608.82,35.00 609.87,35.00 610.92,35.00 611.97,35.00 613.03,35.00 614.07,35.00 615.11,35.00 616.15,35.00 617.19,35.00 618.24,35.00 619.28,35.00 620.33,35.00 621.37,35.00 622.41,35.00 623.45,35.00 624.49,35.00 625.55,35.00 626.59,35.00 627.63,35.00 628.68,35.00 629.74,35.00 630.78,35.00 631.82,35.00 632.87,35.00 633.94,35.00 634.98,35.00 636.03,35.00 637.08,35.00 638.12,35.00 639.16,35.00 640.21,35.00 641.26,35.00 642.33,35.00 643.37,35.00 644.41,35.00 645.44,35.00 646.49,35.00 647.53,35.00 648.58,35.00 649.62,35.00 650.67,35.00 651.73,35.00 652.78,35.00 653.80,35.00 654.86,35.00 655.90,35.00 656.95,35.00 657.99,35.00 659.03,35.00 660.07,35.00 661.13,35.00 662.18,35.00 663.22,35.00 664.27,35.00 665.33,35.00 666.38,35.00 667.42,35.00 668.48,35.00 669.65,35.00 670.79,35.00 671.91,35.00 672.97,35.00 674.06,35.00 675.11,35.00 676.16,35.00 677.19,35.00 678.17,35.00 679.26,35.00 680.30,35.00 681.36,35.00 682.39,35.00 683.44,35.00 684.48,35.00 685.53,35.00 686.57,35.00 687.62,35.00 688.66,35.00 689.71,35.00 690.76,35.00 691.81,35.00 692.86,35.00 693.92,35.00 694.96,35.00 696.01,35.00 697.06,35.00 698.13,35.00 699.17,35.00 700.21,35.00 701.25,35.00 702.30,35.00 703.34,35.00 704.38,35.00 705.43,35.00 706.48,35.00 707.54,35.00 708.57,35.00 709.62,35.00 710.66,35.00 711.71,35.00 712.76,35.00 713.82,35.00 714.85,35.00 715.90,35.00 716.95,35.00 718.00,35.00 719.05,35.00 720.11,35.00 721.16,35.00 722.20,35.00 723.25,35.00 724.30,35.00 725.36,35.00 726.43,35.00 727.48,35.00 728.53,35.00 729.58,35.00 730.62,35.00 731.67,35.00 732.71,35.00 733.77,35.00 734.82,35.00 735.86,35.00 736.91,35.00 737.96,35.00 739.01,35.00 740.07,35.00 741.11,35.00 742.17,35.00 743.22,35.00 744.27,35.00 745.33,35.00 746.38,35.00 747.42,35.00 748.47,35.00 749.52,35.00 750.59,35.00 751.64,35.00 752.70,35.00 753.75,35.00 754.79,35.00 755.83,35.00 756.88,35.00 757.93,35.00 758.98,35.00 760.03,35.00 761.07,35.00 762.12,35.00 763.17,35.00 764.22,35.00 765.27,35.00 766.31,35.00 767.37,35.00 768.42,35.00 769.47,35.00 770.52,35.00 771.56,35.00 772.61,35.00 773.64,35.00 774.69,35.00 775.74,35.00 776.80,35.00 777.85,35.00 778.90,35.00 779.94,35.00 781.00,35.00 782.06,35.00 783.10,35.00 784.15,35.00 785.22,35.00 786.26,35.00 787.31,35.00 788.36,35.00 789.42,35.00 790.47,35.00 791.52,35.00 792.59,35.00 793.65,35.00 794.70,35.00 795.75,35.00 796.79,35.00 797.85,35.00 798.90,35.00 799.96,35.00 801.01,35.00 802.06,35.00 803.10,35.00 804.14,35.00 805.22,35.00 806.26,35.00 807.32,35.00 808.37,35.00 809.41,35.00 810.45,35.00 811.49,35.00 812.53,35.00 813.59,35.00 814.64,35.00 815.69,35.00 816.73,35.00 817.78,35.00 818.83,35.00 819.91,35.00 820.96,35.00 822.00,35.00 823.05,35.00 824.09,35.00 825.14,35.00 826.19,35.00 827.25,35.00 828.29,35.00 829.34,35.00 830.39,35.00 831.44,35.00 832.49,35.00 833.54,35.00 834.60,35.00 835.68,35.00 836.74,35.00 837.79,35.00 838.85,35.00 839.89,35.00 840.95,35.00 841.99,35.00 843.04,35.00 844.07,35.00 845.14,35.00 846.18,35.00 847.24,35.00 848.29,35.00 849.35,35.00 850.44,35.00 851.49,35.00 852.54,35.00 853.59,35.00 854.64,35.00 855.69,35.00 856.75,35.00 857.81,35.00 858.86,35.00 859.92,35.00 860.97,35.00 862.03,35.00 863.08,35.00 864.13,35.00 865.18,35.00 866.23,35.00 867.27,35.00 868.33,35.00 869.39,35.00 870.44,35.00 871.49,35.00 872.54,35.00 873.60,35.00 874.64,35.00 875.70,35.00 876.75,35.00 877.84,35.00 878.89,35.00 879.95,35.00 881.00,35.00 882.07,35.00 883.15,35.00 884.22,35.00 885.28,35.00 886.37,35.00 887.42,35.00 888.47,35.00 889.52,35.00 890.57,35.00 891.63,35.00 892.68,35.00 893.76,35.00 894.80,35.00 895.86,35.00 896.91,35.00 897.95,35.00 899.00,35.00 900.06,35.00 901.10,35.00 902.15,35.00 903.19,35.00 904.24,35.00 905.29,35.00 906.32,35.00 907.37,35.00 908.43,35.00 909.48,35.00 910.53,35.00 911.59,35.00 912.65,35.00 913.69,35.00 914.74,35.00 915.79,35.00 916.84,35.00 917.89,35.00 918.93,35.00 919.99,35.00 921.04,35.00 922.08,35.00 923.12,35.00 924.16,35.00 925.21,35.00 926.26,35.00 927.31,35.00 928.36,35.00 929.41,35.00 930.46,35.00 931.50,35.00 932.56,35.00 933.61,35.00 934.64,35.00 935.68,35.00 936.71,35.00 937.76,35.00 938.81,35.00 939.88,35.00 940.92,35.00 941.97,35.00 943.02,35.00 944.09,35.00 945.14,35.00 946.19,35.00 947.25,35.00 948.30,35.00 949.34,35.00 950.41,35.00 951.45,35.00 952.52,35.00 953.58,35.00 954.62,35.00 955.66,35.00 956.71,35.00 957.75,35.00 958.80,35.00 959.85,35.00 960.88,35.00 961.93,35.00 962.99,35.00 964.04,35.00 965.08,35.00 966.13,35.00 967.18,35.00 968.22,35.00 969.28,35.00 970.33,35.00 971.38,35.00 972.43,35.00 973.48,35.00 974.54,35.00 975.58,35.00 976.63,35.00 977.68,35.00 978.73,35.00 979.77,35.00 980.83,35.00 981.88,35.00 982.93,35.00 983.97,35.00 985.02,35.00 986.10,35.00 987.15,35.00 988.22,35.00 989.28,35.00 990.34,35.00 991.39,35.00 992.44,35.00 993.49,35.00 994.55,35.00 995.59,35.00 996.65,35.00 997.72,35.00 998.77,35.00 999.82,35.00 1000.87,35.00 1001.92,35.00 1002.98,35.00 1004.03,35.00 1005.07,35.00 1006.12,35.00 1007.17,35.00 1008.22,35.00 1009.26,35.00 1010.31,35.00 1011.36,35.00 1012.40,35.00 1013.45,35.00 1014.50,35.00 1015.54,35.00 1016.59,35.00 1017.66,35.00 1018.70,35.00 1019.74,35.00 1020.79,35.00 1021.84,35.00 1022.88,35.00 1023.94,35.00 1024.99,35.00 1026.05,35.00 1027.10,35.00 1028.14,35.00 1029.19,35.00 1030.24,35.00 1031.29,35.00 1032.33,35.00 1033.40,35.00 1034.47,35.00 1035.53,35.00 1036.61,35.00 1037.67,35.00 1038.75,35.00 1039.82,35.00 1040.89,35.00 1041.98,35.00 1043.05,35.00 1044.13,35.00 1045.18,35.00 1046.22,35.00 1047.28,35.00 1048.34,35.00 1049.39,35.00 1050.44,35.00 1051.49,35.00 1052.55,35.00 1053.60,35.00 1054.65,35.00 1055.69,35.00 1056.74,35.00 1057.79,35.00 1058.83,35.00 1059.88,35.00 1060.93,35.00 1061.98,35.00 1063.03,35.00 1064.10,35.00 1065.15,35.00 1066.20,35.00 1067.25,35.00 1068.29,35.00 1069.35,35.00 1070.40,35.00 1071.45,35.00 1072.50,35.00 1073.54,35.00 1074.60,35.00 1075.65,35.00 1076.69,35.00 1077.75,35.00 1078.79,35.00 1079.85,35.00 1080.97,35.00 1082.06,35.00 1083.10,35.00 1084.15,35.00 1085.19,35.00 1086.26,35.00 1087.32,35.00 1088.38,35.00 1089.43,35.00 1090.47,35.00 1091.50,35.00 1092.55,35.00 1093.59,35.00 1094.65,35.00 1095.70,35.00 1096.74,35.00 1097.80,35.00 1098.86,35.00 1099.92,35.00 1100.96,35.00 1102.01,35.00 1103.05,35.00 1104.11,35.00 1105.16,35.00 1106.20,35.00 1107.25,35.00 1108.31,35.00 1109.36,35.00 1110.41,35.00 1111.51,35.00 1112.56,35.00 1113.61,35.00 1114.65,35.00 1115.71,35.00 1116.76,35.00 1117.82,35.00 1118.87,35.00 1119.91,35.00 1120.97,35.00 1122.02,35.00 1123.09,35.00 1124.14,35.00 1125.20,35.00 1126.25,35.00 1127.29,35.00 1128.35,35.00 1129.39,35.00 1130.45,35.00 1131.49,35.00 1132.56,35.00 1133.60,35.00 1134.65,35.00 1135.70,35.00 1136.75,35.00 1137.80,35.00 1138.85,35.00 1139.89,35.00 1140.94,35.00 1141.99,35.00 1143.05,35.00 1144.09,35.00 1145.14,35.00 1146.19,35.00 1147.25,35.00 1148.30,35.00 1149.35,35.00 1150.39,35.00 1151.43,35.00 1152.47,35.00 1153.52,35.00 1154.58,35.00 1155.63,35.00 1156.71,35.00 1157.76,35.00 1158.81,35.00 1159.87,35.00 1160.91,35.00 1161.98,35.00 1163.11,35.00 1164.18,35.00 1165.24,35.00 1166.30,35.00 1167.36,35.00 1168.41,35.00 1169.46,35.00 1170.51,35.00 1171.56,35.00 1172.61,35.00 1173.67,35.00 1174.72,35.00 1175.77,35.00 1176.84,35.00 1177.90,35.00 1178.95,35.00 1180.00,35.00"/>
<polyline fill="none" stroke="#1f77b4" stroke-opacity="0.80" stroke-width="2" points="70.00,35.00 71.05,35.00 72.09,35.00 73.14,35.00 74.18,35.00 75.24,35.00 76.27,35.00 77.32,35.00 78.45,35.00 79.49,35.00 80.53,35.00 81.57,35.00 82.63,35.00 83.67,35.00 84.71,35.00 86.59,35.00 88.21,35.00 89.26,35.00 90.34,35.00 91.38,35.00 92.42,35.00 93.44,35.00 94.50,35.00 95.54,35.00 96.59,35.00 97.64,35.00 98.71,35.00 99.75,35.00 100.80,35.00 101.90,35.00 102.95,35.00 104.00,35.00 105.07,35.00 106.11,35.00 107.16,35.00 108.24,35.00 109.27,35.00 110.32,35.00 111.38,35.00 112.41,35.00 113.46,35.00 114.49,35.00 115.53,35.00 116.58,35.00 117.62,35.00 118.69,35.00 119.74,35.00 120.77,35.00 121.81,35.00 122.87,35.00 123.91,35.00 125.11,35.00 126.15,35.00 127.20,35.00 128.23,35.00 129.27,35.00 130.31,35.00 131.34,35.00 132.39,35.00 133.43,35.00 134.50,35.00 135.54,35.00 136.57,35.00 137.62,35.00 138.68,35.00 139.72,35.00 140.77,35.00 141.80,35.00 142.84,35.00 143.88,35.00 144.91,35.00 145.96,35.00 147.00,35.00 148.04,35.00 149.08,35.00 150.13,35.00 151.16,35.00 152.21,35.00 153.25,35.00 154.29,35.00 155.36,35.00 156.40,35.00 157.44,35.00 158.49,35.00 159.53,35.00 160.58,35.00 161.62,35.00 162.65,35.00 163.69,35.00 164.74,35.00 165.79,35.00 166.83,35.00 167.89,35.00 168.92,35.00 169.97,35.00 171.01,35.00 172.05,35.00 173.08,35.00 174.13,35.00 175.16,35.00 176.21,35.00 177.26,35.00 178.31,35.00 179.35,35.00 180.41,35.00 181.46,35.00 182.50,35.00 183.54,35.00 184.58,35.00 185.62,35.00 186.68,35.00 187.72,35.00 188.76,35.00 189.80,35.00 190.85,35.00 191.90,35.00 192.95,35.00 194.01,35.00 195.05,35.00 196.10,35.00 197.14,35.00 198.18,35.00 199.23,35.00 200.28,35.00 201.41,35.00 202.45,35.00 203.51,35.00 204.55,35.00 205.58,35.00 206.62,35.00 207.65,35.00 208.69,35.00 209.73,35.00 210.77,35.00 211.81,35.00 212.85,35.00 213.90,35.00 214.93,35.00 216.00,35.00 217.04,35.00 218.08,35.00 219.12,35.00 220.16,35.00 221.20,35.00 222.25,35.00 223.30,35.00 224.34,35.00 225.39,35.00 226.43,35.00 227.46,35.00 228.50,35.00 229.54,35.00 230.59,35.00 231.63,35.00 232.69,35.00 233.73,35.00 234.78,35.00 235.83,35.00 236.88,35.00 237.91,35.00 238.96,35.00 240.00,35.00 241.07,35.00 242.12,35.00 243.16,35.00 244.21,35.00 245.25,35.00 246.28,35.00 247.32,35.00 248.37,35.00 249.41,35.00 250.44,35.00 251.48,35.00 252.53,35.00 253.58,35.00 254.63,35.00 255.67,35.00 256.74,35.00 257.78,35.00 258.82,35.00 259.86,35.00 260.89,35.00 262.03,35.00 263.10,35.00 264.13,35.00 265.17,35.00 266.20,35.00 267.25,35.00 268.29,35.00 269.34,35.00 270.39,35.00 271.43,35.00 272.46,35.00 273.51,35.00 274.58,35.00 275.62,35.00 276.65,35.00 277.70,35.00 278.75,35.00 279.82,35.00 280.88,35.00 281.92,35.00 282.96,35.00 284.01,35.00 285.05,35.00 286.10,35.00 287.14,35.00 288.20,35.00 289.24,35.00 290.27,35.00 291.33,35.00 292.37,35.00 293.41,35.00 294.46,35.00 295.52,35.00 296.56,35.00 297.60,35.00 298.63,35.00 299.67,35.00 300.72,35.00 301.76,35.00 302.80,35.00 303.84,35.00 304.88,35.00 305.92,35.00 306.97,35.00 308.01,35.00 309.06,35.00 310.12,35.00 311.17,35.00 312.22,35.00 313.26,35.00 314.30,35.00 315.35,35.00 316.39,35.00 317.44,35.00 318.50,35.00 319.55,35.00 320.60,35.00 321.64,35.00 322.68,35.00 323.73,35.00 324.76,35.00 325.80,35.00 326.85,35.00 327.90,35.00 328.94,35.00 329.99,35.00 331.04,35.00 332.08,35.00 333.13,35.00 334.18,35.00 335.23,35.00 336.27,35.00 337.32,35.00 338.37,35.00 339.42,35.00 340.47,35.00 341.51,35.00 342.55,35.00 343.71,35.00 344.76,35.00 345.81,35.00 346.85,35.00 347.91,35.00 348.96,35.00 350.00,35.00 351.05,35.00 352.09,35.00 353.16,35.00 354.22,35.00 355.26,35.00 356.30,35.00 357.34,35.00 358.39,35.00 359.43,35.00 360.52,35.00 361.56,35.00 362.60,35.00 363.66,35.00 364.79,35.00 365.83,35.00 367.15,35.00 368.91,35.00 369.98,35.00 371.05,35.00 372.09,35.00 373.11,35.00 374.15,35.00 375.21,35.00 376.26,35.00 377.31,35.00 378.40,35.00 379.48,35.00 380.59,35.00 381.64,35.00 382.68,35.00 383.73,35.00 384.78,35.00 385.84,35.00 386.90,35.00 387.94,35.00 388.98,35.00 390.07,35.00 391.12,35.00 392.15,35.00 393.20,35.00 394.26,35.00 395.34,35.00 396.39,35.00 397.44,35.00 398.51,35.00 399.51,35.00 400.55,35.00 401.62,35.00 402.65,35.00 403.72,35.00 404.79,35.00 405.84,35.00 406.88,35.00 407.94,35.00 409.00,35.00 410.04,35.00 411.08,35.00 412.12,35.00 413.17,35.00 414.22,35.00 415.25,35.00 416.50,35.00 417.73,35.00 418.97,35.00 420.18,35.00 421.37,35.00 422.58,35.00 423.81,35.00 425.03,35.00 426.08,35.00 427.11,35.00 428.15,35.00 429.19,35.00 430.24,35.00 431.27,35.00 432.31,35.00 433.35,35.00 434.40,35.00 435.44,35.00 436.48,35.00 437.52,35.00 438.56,35.00 439.60,35.00 440.64,35.00 441.68,35.00 442.72,35.00 443.75,35.00 444.80,35.00 445.85,35.00 446.89,35.00 447.92,35.00 448.96,35.00 450.00,35.00 451.05,35.00 452.09,35.00 453.13,35.00 454.18,35.00 455.22,35.00 456.26,35.00 457.30,35.00 458.34,35.00 459.38,35.00 460.42,35.00 461.45,35.00 462.48,35.00 463.52,35.00 464.56,35.00 465.59,35.00 466.63,35.00 467.67,35.00 468.71,35.00 469.74,35.00 470.78,35.00 471.80,35.00 472.88,35.00 474.00,35.00 475.05,35.00 476.10,35.00 477.13,35.00 478.17,35.00 479.21,35.00 480.24,35.00 481.28,35.00 482.51,35.00 483.74,35.00 484.95,35.00 486.17,35.00 487.40,35.00 488.62,35.00 489.86,35.00 491.13,35.00 492.27,35.00 493.39,35.00 494.43,35.00 495.49,35.00 496.53,35.00 497.56,35.00 498.60,35.00 499.65,35.00 500.69,35.00 501.73,35.00 502.76,35.00 503.81,35.00 504.85,35.00 505.89,35.00 506.95,35.00 507.99,35.00 509.03,35.00 509.94,35.00 511.02,35.00 512.06,35.00 513.13,35.00 514.17,35.00 515.21,35.00 516.26,35.00 517.31,35.00 518.36,35.00 519.41,35.00 520.46,35.00 521.53,35.00 522.56,35.00 523.59,35.00 524.64,35.00 525.67,35.00 526.71,35.00 527.75,35.00 528.80,35.00 529.84,35.00 530.88,35.00 531.93,35.00 532.96,35.00 534.01,35.00 535.06,35.00 536.10,35.00 537.16,35.00 538.20,35.00 539.24,35.00 540.29,35.00 541.34,35.00 542.41,35.00 543.45,35.00 544.48,35.00 545.53,35.00 546.56,35.00 547.60,35.00 548.65,35.00 549.69,35.00 550.73,35.00 551.77,35.00 552.81,35.00 553.85,35.00 554.90,35.00 555.95,35.00 556.99,35.00 558.25,35.00 559.32,35.00 560.39,35.00 561.44,35.00 562.49,35.00 563.54,35.00 564.58,35.00 565.62,35.00 566.67,35.00 567.72,35.00 568.76,35.00 569.81,35.00 570.86,35.00 571.90,35.00 572.98,35.00 574.04,35.00 575.09,35.00 576.13,35.00 577.18,35.00 578.22,35.00 579.26,35.00 580.30,35.00 581.39,35.00 582.44,35.00 583.49,35.00 584.53,35.00 585.57,35.00 586.62,35.00 587.66,35.00 588.71,35.00 589.76,35.00 590.80,35.00 591.85,35.00 592.90,35.00 593.94,35.00 594.98,35.00 596.02,35.00 597.09,35.00 598.13,35.00 599.17,35.00 600.21,35.00 601.26,35.00 602.32,35.00 603.37,35.00 604.62,35.00 605.69,35.00 606.74,35.00 607.79,35.00 608.82,35.00 609.87,35.00 610.92,35.00 611.97,35.00 613.03,35.00 614.07,35.00 615.11,35.00 616.15,35.00 617.19,35.00 618.24,35.00 619.28,35.00 620.33,35.00 621.37,35.00 622.41,35.00 623.45,35.00 624.49,35.00 625.55,35.00 626.59,35.00 627.63,35.00 628.68,35.00 629.74,35.00 630.78,35.00 631.82,35.00 632.87,35.00 633.94,35.00 634.98,35.00 636.03,35.00 637.08,35.00 638.12,35.00 639.16,35.00 640.21,35.00 641.26,35.00 642.33,35.00 643.37,35.00 644.41,35.00 645.44,35.00 646.49,35.00 647.53,35.00 648.58,35.00 649.62,35.00 650.67,35.00 651.73,35.00 652.78,35.00 653.80,35.00 654.86,35.00 655.90,35.00 656.95,35.00 657.99,35.00 659.03,35.00 660.07,35.00 661.13,35.00 662.18,35.00 663.22,35.00 664.27,35.00 665.33,35.00 666.38,35.00 667.42,35.00 668.48,35.00 669.65,35.00 670.79,35.00 671.91,35.00 672.97,35.00 674.06,35.00 675.11,35.00 676.16,35.00 677.19,35.00 678.17,35.00 679.26,35.00 680.30,35.00 681.36,35.00 682.39,35.00 683.44,35.00 684.48,35.00 685.53,35.00 686.57,35.00 687.62,35.00 688.66,35.00 689.71,35.00 690.76,35.00 691.81,35.00 692.86,35.00 693.92,35.00 694.96,35.00 696.01,35.00 697.06,35.00 698.13,35.00 699.17,35.00 700.21,35.00 701.25,35.00 702.30,35.00 703.34,35.00 704.38,35.00 705.43,35.00 706.48,35.00 707.54,35.00 708.57,35.00 709.62,35.00 710.66,35.00 711.71,35.00 712.76,35.00 713.82,35.00 714.85,35.00 715.90,35.00 716.95,35.00 718.00,35.00 719.05,35.00 720.11,35.00 721.16,35.00 722.20,35.00 723.25,35.00 724.30,35.00 725.36,35.00 726.43,35.00 727.48,35.00 728.53,35.00 729.58,35.00 730.62,35.00 731.67,35.00 732.71,35.00 733.77,35.00 734.82,35.00 735.86,35.00 736.91,35.00 737.96,35.00 739.01,35.00 740.07,35.00 741.11,35.00 742.17,35.00 743.22,35.00 744.27,35.00 745.33,35.00 746.38,35.00 747.42,35.00 748.47,35.00 749.52,35.00 750.59,35.00 751.64,35.00 752.70,35.00 753.75,35.00 754.79,35.00 755.83,35.00 756.88,35.00 757.93,35.00 758.98,35.00 760.03,35.00 761.07,35.00 762.12,35.00 763.17,35.00 764.22,35.00 765.27,35.00 766.31,35.00 767.37,35.00 768.42,35.00 769.47,35.00 770.52,35.00 771.56,35.00 772.61,35.00 773.64,35.00 774.69,35.00 775.74,35.00 776.80,35.00 777.85,35.00 778.90,35.00 779.94,35.00 781.00,35.00 782.06,35.00 783.10,35.00 784.15,35.00 785.22,35.00 786.26,35.00 787.31,35.00 788.36,35.00 789.42,35.00 790.47,35.00 791.52,35.00 792.59,35.00 793.65,35.00 794.70,35.00 795.75,35.00 796.79,35.00 797.85,35.00 798.90,35.00 799.96,35.00 801.01,35.00 802.06,35.00 803.10,35.00 804.14,35.00 805.22,35.00 806.26,35.00 807.32,35.00 808.37,35.00 809.41,35.00 810.45,35.00 811.49,35.00 812.53,35.00 813.59,35.00 814.64,35.00 815.69,35.00 816.73,35.00 817.78,35.00 818.83,35.00 819.91,35.00 820.96,35.00 822.00,35.00 823.05,35.00 824.09,35.00 825.14,35.00 826.19,35.00 827.25,35.00 828.29,35.00 829.34,35.00 830.39,35.00 831.44,35.00 832.49,35.00 833.54,35.00 834.60,35.00 835.68,35.00 836.74,35.00 837.79,35.00 838.85,35.00 839.89,35.00 840.95,35.00 841.99,35.00 843.04,35.00 844.07,35.00 845.14,35.00 846.18,35.00 847.24,35.00 848.29,35.00 849.35,35.00 850.44,35.00 851.49,35.00 852.54,35.00 853.59,35.00 854.64,35.00 855.69,35.00 856.75,35.00 857.81,35.00 858.86,35.00 859.92,35.00 860.97,35.00 862.03,35.00 863.08,35.00 864.13,35.00 865.18,35.00 866.23,35.00 867.27,35.00 868.33,35.00 869.39,35.00 870.44,35.00 871.49,35.00 872.54,35.00 873.60,35.00 874.64,35.00 875.70,35.00 876.75,35.00 877.84,35.00 878.89,35.00 879.95,35.00 881.00,35.00 882.07,35.00 883.15,35.00 884.22,35.00 885.28,35.00 886.37,35.00 887.42,35.00 888.47,35.00 889.52,35.00 890.57,35.00 891.63,35.00 892.68,35.00 893.76,35.00 894.80,35.00 895.86,35.00 896.91,35.00 897.95,35.00 899.00,35.00 900.06,35.00 901.10,35.00 902.15,35.00 903.19,35.00 904.24,35.00 905.29,35.00 906.32,35.00 907.37,35.00 908.43,35.00 909.48,35.00 910.53,35.00 911.59,35.00 912.65,35.00 913.69,35.00 914.74,35.00 915.79,35.00 916.84,35.00 917.89,35.00 918.93,35.00 919.99,35.00 921.04,35.00 922.08,35.00 923.12,35.00 924.16,35.00 925.21,35.00 926.26,35.00 927.31,35.00 928.36,35.00 929.41,35.00 930.46,35.00 931.50,35.00 932.56,35.00 933.61,35.00 934.64,35.00 935.68,35.00 936.71,35.00 937.76,35.00 938.81,35.00 939.88,35.00 940.92,35.00 941.97,35.00 943.02,35.00 944.09,35.00 945.14,35.00 946.19,35.00 947.25,35.00 948.30,35.00 949.34,35.00 950.41,35.00 951.45,35.00 952.52,35.00 953.58,35.00 954.62,35.00 955.66,35.00 956.71,35.00 957.75,35.00 958.80,35.00 959.85,35.00 960.88,35.00 961.93,35.00 962.99,35.00 964.04,35.00 965.08,35.00 966.13,35.00 967.18,35.00 968.22,35.00 969.28,35.00 970.33,35.00 971.38,35.00 972.43,35.00 973.48,35.00 974.54,35.00 975.58,35.00 976.63,35.00 977.68,35.00 978.73,35.00 979.77,35.00 980.83,35.00 981.88,35.00 982.93,35.00 983.97,35.00 985.02,35.00 986.10,35.00 987.15,35.00 988.22,35.00 989.28,35.00 990.34,35.00 991.39,35.00 992.44,35.00 993.49,35.00 994.55,35.00 995.59,35.00 996.65,35.00 997.72,35.00 998.77,35.00 999.82,35.00 1000.87,35.00 1001.92,35.00 1002.98,35.00 1004.03,35.00 1005.07,35.00 1006.12,35.00 1007.17,35.00 1008.22,35.00 1009.26,35.00 1010.31,35.00 1011.36,35.00 1012.40,35.00 1013.45,35.00 1014.50,35.00 1015.54,35.00 1016.59,35.00 1017.66,35.00 1018.70,35.00 1019.74,35.00 1020.79,35.00 1021.84,35.00 1022.88,35.00 1023.94,35.00 1024.99,35.00 1026.05,35.00 1027.10,35.00 1028.14,35.00 1029.19,35.00 1030.24,35.00 1031.29,35.00 1032.33,35.00 1033.40,35.00 1034.47,35.00 1035.53,35.00 1036.61,35.00 1037.67,35.00 1038.75,35.00 1039.82,35.00 1040.89,35.00 1041.98,35.00 1043.05,35.00 1044.13,35.00 1045.18,35.00 1046.22,35.00 1047.28,35.00 1048.34,35.00 1049.39,35.00 1050.44,35.00 1051.49,35.00 1052.55,35.00 1053.60,35.00 1054.65,35.00 1055.69,35.00 1056.74,35.00 1057.79,35.00 1058.83,35.00 1059.88,35.00 1060.93,35.00 1061.98,35.00 1063.03,35.00 1064.10,35.00 1065.15,35.00 1066.20,35.00 1067.25,35.00 1068.29,35.00 1069.35,35.00 1070.40,35.00 1071.45,35.00 1072.50,35.00 1073.54,35.00 1074.60,35.00 1075.65,35.00 1076.69,35.00 1077.75,35.00 1078.79,35.00 1079.85,35.00 1080.97,35.00 1082.06,35.00 1083.10,35.00 1084.15,35.00 1085.19,35.00 1086.26,35.00 1087.32,35.00 1088.38,35.00 1089.43,35.00 1090.47,35.00 1091.50,35.00 1092.55,35.00 1093.59,35.00 1094.65,35.00 1095.70,35.00 1096.74,35.00 1097.80,35.00 1098.86,35.00 1099.92,35.00 1100.96,35.00 1102.01,35.00 1103.05,35.00 1104.11,35.00 1105.16,35.00 1106.20,35.00 1107.25,35.00 1108.31,35.00 1109.36,35.00 1110.41,35.00 1111.51,35.00 1112.56,35.00 1113.61,35.00 1114.65,35.00 1115.71,35.00 1116.76,35.00 1117.82,35.00 1118.87,35.00 1119.91,35.00 1120.97,35.00 1122.02,35.00 1123.09,35.00 1124.14,35.00 1125.20,35.00 1126.25,35.00 1127.29,35.00 1128.35,35.00 1129.39,35.00 1130.45,35.00 1131.49,35.00 1132.56,35.00 1133.60,35.00 1134.65,35.00 1135.70,35.00 1136.75,35.00 1137.80,35.00 1138.85,35.00 1139.89,35.00 1140.94,35.00 1141.99,35.00 1143.05,35.00 1144.09,35.00 1145.14,35.00 1146.19,35.00 1147.25,35.00 1148.30,35.00 1149.35,35.00 1150.39,35.00 1151.43,35.00 1152.47,35.00 1153.52,35.00 1154.58,35.00 1155.63,35.00 1156.71,35.00 1157.76,35.00 1158.81,35.00 1159.87,35.00 1160.91,35.00 1161.98,35.00 1163.11,35.00 1164.18,35.00 1165.24,35.00 1166.30,35.00 1167.36,35.00 1168.41,35.00 1169.46,35.00 1170.51,35.00 1171.56,35.00 1172.61,35.00 1173.67,35.00 1174.72,35.00 1175.77,35.00 1176.84,35.00 1177.90,35.00 1178.95,35.00 1180.00,35.00"/>
<polyline fill="none" stroke="#1f77b4" stroke-opacity="0.65" stroke-width="2" points="70.00,35.00 71.05,35.00 72.09,35.00 73.14,35.00 74.18,35.00 75.24,35.00 76.27,35.00 77.32,35.00 78.45,35.00 79.49,35.00 80.53,35.00 81.57,35.00 82.63,35.00 83.67,35.00 84.71,35.00 86.59,35.00 88.21,35.00 89.26,35.00 90.34,35.00 91.38,35.00 92.42,35.00 93.44,35.00 94.50,35.00 95.54,35.00 96.59,35.00 97.64,35.00 98.71,35.00 99.75,35.00 100.80,35.00 101.90,35.00 102.95,35.00 104.00,35.00 105.07,35.00 106.11,35.00 107.16,35.00 108.24,35.00 109.27,35.00 110.32,35.00 111.38,35.00 112.41,35.00 113.46,35.00 114.49,35.00 115.53,35.00 116.58,35.00 117.62,35.00 118.69,35.00 119.74,35.00 120.77,35.00 121.81,35.00 122.87,35.00 123.91,35.00 125.11,35.00 126.15,35.00 127.20,35.00 128.23,35.00 129.27,35.00 130.31,35.00 131.34,35.00 132.39,35.00 133.43,35.00 134.50,35.00 135.54,35.00 136.57,35.00 137.62,35.00 138.68,35.00 139.72,35.00 140.77,35.00 141.80,35.00 142.84,35.00 143.88,35.00 144.91,35.00 145.96,35.00 147.00,35.00 148.04,35.00 149.08,35.00 150.13,35.00 151.16,35.00 152.21,35.00 153.25,35.00 154.29,35.00 155.36,35.00 156.40,35.00 157.44,35.00 158.49,35.00 159.53,35.00 160.58,35.00 161.62,35.00 162.65,35.00 163.69,35.00 164.74,35.00 165.79,35.00 166.83,35.00 167.89,35.00 168.92,35.00 169.97,35.00 171.01,35.00 172.05,35.00 173.08,35.00 174.13,35.00 175.16,35.00 176.21,35.00 177.26,35.00 178.31,35.00 179.35,35.00 180.41,35.00 181.46,35.00 182.50,35.00 183.54,35.00 184.58,35.00 185.62,35.00 186.68,35.00 187.72,35.00 188.76,35.00 189.80,35.00 190.85,35.00 191.90,35.00 192.95,35.00 194.01,35.00 195.05,35.00 196.10,35.00 197.14,35.00 198.18,35.00 199.23,35.00 200.28,35.00 201.41,35.00 202.45,35.00 203.51,35.00 204.55,35.00 205.58,35.00 206.62,35.00 207.65,35.00 208.69,35.00 209.73,35.00 210.77,35.00 211.81,35.00 212.85,35.00 213.90,35.00 214.93,35.00 216.00,35.00 217.04,35.00 218.08,35.00 219.12,35.00 220.16,35.00 221.20,35.00 222.25,35.00 223.30,35.00 224.34,35.00 225.39,35.00 226.43,35.00 227.46,35.00 228.50,35.00 229.54,35.00 230.59,35.00 231.63,35.00 232.69,35.00 233.73,35.00 234.78,35.00 235.83,35.00 236.88,35.00 237.91,35.00 238.96,35.00 240.00,35.00 241.07,35.00 242.12,35.00 243.16,35.00 244.21,35.00 245.25,35.00 246.28,35.00 247.32,35.00 248.37,35.00 249.41,35.00 250.44,35.00 251.48,35.00 252.53,35.00 253.58,35.00 254.63,35.00 255.67,35.00 256.74,35.00 257.78,35.00 258.82,35.00 259.86,35.00 260.89,35.00 262.03,35.00 263.10,35.00 264.13,35.00 265.17,35.00 266.20,35.00 267.25,35.00 268.29,35.00 269.34,35.00 270.39,35.00 271.43,35.00 272.46,35.00 273.51,35.00 274.58,35.00 275.62,35.00 276.65,35.00 277.70,35.00 278.75,35.00 279.82,35.00 280.88,35.00 281.92,35.00 282.96,35.00 284.01,35.00 285.05,35.00 286.10,35.00 287.14,35.00 288.20,35.00 289.24,35.00 290.27,35.00 291.33,35.00 292.37,35.00 293.41,35.00 294.46,35.00 295.52,35.00 296.56,35.00 297.60,35.00 298.63,35.00 299.67,35.00 300.72,35.00 301.76,35.00 302.80,35.00 303.84,35.00 304.88,35.00 305.92,35.00 306.97,35.00 308.01,35.00 309.06,35.00 310.12,35.00 311.17,35.00 312.22,35.00 313.26,35.00 314.30,35.00 315.35,35.00 316.39,35.00 317.44,35.00 318.50,35.00 319.55,35.00 320.60,35.00 321.64,35.00 322.68,35.00 323.73,35.00 324.76,35.00 325.80,35.00 326.85,35.00 327.90,35.00 328.94,35.00 329.99,35.00 331.04,35.00 332.08,35.00 333.13,35.00 334.18,35.00 335.23,35.00 336.27,35.00 337.32,35.00 338.37,35.00 339.42,35.00 340.47,35.00 341.51,35.00 342.55,35.00 343.71,35.00 344.76,35.00 345.81,35.00 346.85,35.00 347.91,35.00 348.96,35.00 350.00,35.00 351.05,35.00 352.09,35.00 353.16,35.00 354.22,35.00 355.26,35.00 356.30,35.00 357.34,35.00 358.39,35.00 359.43,35.00 360.52,35.00 361.56,35.00 362.60,35.00 363.66,35.00 364.79,35.00 365.83,35.00 367.15,35.00 368.91,35.00 369.98,35.00 371.05,35.00 372.09,35.00 373.11,35.00 374.15,35.00 375.21,35.00 376.26,35.00 377.31,35.00 378.40,35.00 379.48,35.00 380.59,35.00 381.64,35.00 382.68,35.00 383.73,35.00 384.78,35.00 385.84,35.00 386.90,35.00 387.94,35.00 388.98,35.00 390.07,35.00 391.12,35.00 392.15,35.00 393.20,35.00 394.26,35.00 395.34,35.00 396.39,35.00 397.44,35.00 398.51,35.00 399.51,35.00 400.55,35.00 401.62,35.00 402.65,35.00 403.72,35.00 404.79,35.00 405.84,35.00 406.88,35.00 407.94,35.00 409.00,35.00 410.04,35.00 411.08,35.00 412.12,35.00 413.17,35.00 414.22,35.00 415.25,35.00 416.50,35.00 417.73,35.00 418.97,35.00 420.18,35.00 421.37,35.00 422.58,35.00 423.81,35.00 425.03,35.00 426.08,35.00 427.11,35.00 428.15,35.00 429.19,35.00 430.24,35.00 431.27,35.00 432.31,35.00 433.35,35.00 434.40,35.00 435.44,35.00 436.48,35.00 437.52,35.00 438.56,35.00 439.60,35.00 440.64,35.00 441.68,35.00 442.72,35.00 443.75,35.00 444.80,35.00 445.85,35.00 446.89,35.00 447.92,35.00 448.96,35.00 450.00,35.00 451.05,35.00 452.09,35.00 453.13,35.00 454.18,35.00 455.22,35.00 456.26,35.00 457.30,35.00 458.34,35.00 459.38,35.00 460.42,35.00 461.45,35.00 462.48,35.00 463.52,35.00 464.56,35.00 465.59,35.00 466.63,35.00 467.67,35.00 468.71,35.00 469.74,35.00 470.78,35.00 471.80,35.00 472.88,35.00 474.00,35.00 475.05,35.00 476.10,35.00 477.13,35.00 478.17,35.00 479.21,35.00 480.24,35.00 481.28,35.00 482.51,35.00 483.74,35.00 484.95,35.00 486.17,35.00 487.40,35.00 488.62,35.00 489.86,35.00 491.13,35.00 492.27,35.00 493.39,35.00 494.43,35.00 495.49,35.00 496.53,35.00 497.56,35.00 498.60,35.00 499.65,35.00 500.69,35.00 501.73,35.00 502.76,35.00 503.81,35.00 504.85,35.00 505.89,35.00 506.95,35.00 507.99,35.00 509.03,35.00 509.94,35.00 511.02,35.00 512.06,35.00 513.13,35.00 514.17,35.00 515.21,35.00 516.26,35.00 517.31,35.00 518.36,35.00 519.41,35.00 520.46,35.00 521.53,35.00 522.56,35.00 523.59,35.00 524.64,35.00 525.67,35.00 526.71,35.00 527.75,35.00 528.80,35.00 529.84,35.00 530.88,35.00 531.93,35.00 532.96,35.00 534.01,35.00 535.06,35.00 536.10,35.00 537.16,35.00 538.20,35.00 539.24,35.00 540.29,35.00 541.34,35.00 542.41,35.00 543.45,35.00 544.48,35.00 545.53,35.00 546.56,35.00 547.60,35.00 548.65,35.00 549.69,35.00 550.73,35.00 551.77,35.00 552.81,35.00 553.85,35.00 554.90,35.00 555.95,35.00 556.99,35.00 558.25,35.00 559.32,35.00 560.39,35.00 561.44,35.00 562.49,35.00 563.54,35.00 564.58,35.00 565.62,35.00 566.67,35.00 567.72,35.00 568.76,35.00 569.81,35.00 570.86,35.00 571.90,35.00 572.98,35.00 574.04,35.00 575.09,35.00 576.13,35.00 577.18,35.00 578.22,35.00 579.26,35.00 580.30,35.00 581.39,35.00 582.44,35.00 583.49,35.00 584.53,35.00 585.57,35.00 586.62,35.00 587.66,35.00 588.71,35.00 589.76,35.00 590.80,35.00 591.85,35.00 592.90,35.00 593.94,35.00 594.98,35.00 596.02,35.00 597.09,35.00 598.13,35.00 599.17,35.00 600.21,35.00 601.26,35.00 602.32,35.00 603.37,35.00 604.62,35.00 605.69,35.00 606.74,35.00 607.79,35.00 608.82,35.00 609.87,35.00 610.92,35.00 611.97,35.00 613.03,35.00 614.07,35.00 615.11,35.00 616.15,35.00 617.19,35.00 618.24,35.00 619.28,35.00 620.33,35.00 621.37,35.00 622.41,35.00 623.45,35.00 624.49,35.00 625.55,35.00 626.59,35.00 627.63,35.00 628.68,35.00 629.74,35.00 630.78,35.00 631.82,35.00 632.87,35.00 633.94,35.00 634.98,35.00 636.03,35.00 637.08,35.00 638.12,35.00 639.16,35.00 640.21,35.00 641.26,35.00 642.33,35.00 643.37,35.00 644.41,35.00 645.44,35.00 646.49,35.00 647.53,35.00 648.58,35.00 649.62,35.00 650.67,35.00 651.73,35.00 652.78,35.00 653.80,35.00 654.86,35.00 655.90,35.00 656.95,35.00 657.99,35.00 659.03,35.00 660.07,35.00 661.13,35.00 662.18,35.00 663.22,35.00 664.27,35.00 665.33,35.00 666.38,35.00 667.42,35.00 668.48,35.00 669.65,35.00 670.79,35.00 671.91,35.00 672.97,35.00 674.06,35.00 675.11,35.00 676.16,35.00 677.19,35.00 678.17,35.00 679.26,35.00 680.30,35.00 681.36,35.00 682.39,35.00 683.44,35.00 684.48,35.00 685.53,35.00 686.57,35.00 687.62,35.00 688.66,35.00 689.71,35.00 690.76,35.00 691.81,35.00 692.86,35.00 693.92,35.00 694.96,35.00 696.01,35.00 697.06,35.00 698.13,35.00 699.17,35.00 700.21,35.00 701.25,35.00 702.30,35.00 703.34,35.00 704.38,35.00 705.43,35.00 706.48,35.00 707.54,35.00 708.57,35.00 709.62,35.00 710.66,35.00 711.71,35.00 712.76,35.00 713.82,35.00 714.85,35.00 715.90,35.00 716.95,35.00 718.00,35.00 719.05,35.00 720.11,35.00 721.16,35.00 722.20,35.00 723.25,35.00 724.30,35.00 725.36,35.00 726.43,35.00 727.48,35.00 728.53,35.00 729.58,35.00 730.62,35.00 731.67,35.00 732.71,35.00 733.77,35.00 734.82,35.00 735.86,35.00 736.91,35.00 737.96,35.00 739.01,35.00 740.07,35.00 741.11,35.00 742.17,35.00 743.22,35.00 744.27,35.00 745.33,35.00 746.38,35.00 747.42,35.00 748.47,35.00 749.52,35.00 750.59,35.00 751.64,35.00 752.70,35.00 753.75,35.00 754.79,35.00 755.83,35.00 756.88,35.00 757.93,35.00 758.98,35.00 760.03,35.00 761.07,35.00 762.12,35.00 763.17,35.00 764.22,35.00 765.27,35.00 766.31,35.00 767.37,35.00 768.42,35.00 769.47,35.00 770.52,35.00 771.56,35.00 772.61,35.00 773.64,35.00 774.69,35.00 775.74,35.00 776.80,35.00 777.85,35.00 778.90,35.00 779.94,35.00 781.00,35.00 782.06,35.00 783.10,35.00 784.15,35.00 785.22,35.00 786.26,35.00 787.31,35.00 788.36,35.00 789.42,35.00 790.47,35.00 791.52,35.00 792.59,35.00 793.65,35.00 794.70,35.00 795.75,35.00 796.79,35.00 797.85,35.00 798.90,35.00 799.96,35.00 801.01,35.00 802.06,35.00 803.10,35.00 804.14,35.00 805.22,35.00 806.26,35.00 807.32,35.00 808.37,35.00 809.41,35.00 810.45,35.00 811.49,35.00 812.53,35.00 813.59,35.00 814.64,35.00 815.69,35.00 816.73,35.00 817.78,35.00 818.83,35.00 819.91,35.00 820.96,35.00 822.00,35.00 823.05,35.00 824.09,35.00 825.14,35.00 826.19,35.00 827.25,35.00 828.29,35.00 829.34,35.00 830.39,35.00 831.44,35.00 832.49,35.00 833.54,35.00 834.60,35.00 835.68,35.00 836.74,35.00 837.79,35.00 838.85,35.00 839.89,35.00 840.95,35.00 841.99,35.00 843.04,35.00 844.07,35.00 845.14,35.00 846.18,35.00 847.24,35.00 848.29,35.00 849.35,35.00 850.44,35.00 851.49,35.00 852.54,35.00 853.59,35.00 854.64,35.00 855.69,35.00 856.75,35.00 857.81,35.00 858.86,35.00 859.92,35.00 860.97,35.00 862.03,35.00 863.08,35.00 864.13,35.00 865.18,35.00 866.23,35.00 867.27,35.00 868.33,35.00 869.39,35.00 870.44,35.00 871.49,35.00 872.54,35.00 873.60,35.00 874.64,35.00 875.70,35.00 876.75,35.00 877.84,35.00 878.89,35.00 879.95,35.00 881.00,35.00 882.07,35.00 883.15,35.00 884.22,35.00 885.28,35.00 886.37,35.00 887.42,35.00 888.47,35.00 889.52,35.00 890.57,35.00 891.63,35.00 892.68,35.00 893.76,35.00 894.80,35.00 895.86,35.00 896.91,35.00 897.95,35.00 899.00,35.00 900.06,35.00 901.10,35.00 902.15,35.00 903.19,35.00 904.24,35.00 905.29,35.00 906.32,35.00 907.37,35.00 908.43,35.00 909.48,35.00 910.53,35.00 911.59,35.00 912.65,35.00 913.69,35.00 914.74,35.00 915.79,35.00 916.84,35.00 917.89,35.00 918.93,35.00 919.99,35.00 921.04,35.00 922.08,35.00 923.12,35.00 924.16,35.00 925.21,35.00 926.26,35.00 927.31,35.00 928.36,35.00 929.41,35.00 930.46,35.00 931.50,35.00 932.56,35.00 933.61,35.00 934.64,35.00 935.68,35.00 936.71,35.00 937.76,35.00 938.81,35.00 939.88,35.00 940.92,35.00 941.97,35.00 943.02,35.00 944.09,35.00 945.14,35.00 946.19,35.00 947.25,35.00 948.30,35.00 949.34,35.00 950.41,35.00 951.45,35.00 952.52,35.00 953.58,35.00 954.62,35.00 955.66,35.00 956.71,35.00 957.75,35.00 958.80,35.00 959.85,35.00 960.88,35.00 961.93,35.00 962.99,35.00 964.04,35.00 965.08,35.00 966.13,35.00 967.18,35.00 968.22,35.00 969.28,35.00 970.33,35.00 971.38,35.00 972.43,35.00 973.48,35.00 974.54,35.00 975.58,35.00 976.63,35.00 977.68,35.00 978.73,35.00 979.77,35.00 980.83,35.00 981.88,35.00 982.93,35.00 983.97,35.00 985.02,35.00 986.10,35.00 987.15,35.00 988.22,35.00 989.28,35.00 990.34,35.00 991.39,35.00 992.44,35.00 993.49,35.00 994.55,35.00 995.59,35.00 996.65,35.00 997.72,35.00 998.77,35.00 999.82,35.00 1000.87,35.00 1001.92,35.00 1002.98,35.00 1004.03,35.00 1005.07,35.00 1006.12,35.00 1007.17,35.00 1008.22,35.00 1009.26,35.00 1010.31,35.00 1011.36,35.00 1012.40,35.00 1013.45,35.00 1014.50,35.00 1015.54,35.00 1016.59,35.00 1017.66,35.00 1018.70,35.00 1019.74,35.00 1020.79,35.00 1021.84,35.00 1022.88,35.00 1023.94,35.00 1024.99,35.00 1026.05,35.00 1027.10,35.00 1028.14,35.00 1029.19,35.00 1030.24,35.00 1031.29,35.00 1032.33,35.00 1033.40,35.00 1034.47,35.00 1035.53,35.00 1036.61,35.00 1037.67,35.00 1038.75,35.00 1039.82,35.00 1040.89,35.00 1041.98,35.00 1043.05,35.00 1044.13,35.00 1045.18,35.00 1046.22,35.00 1047.28,35.00 1048.34,35.00 1049.39,35.00 1050.44,35.00 1051.49,35.00 1052.55,35.00 1053.60,35.00 1054.65,35.00 1055.69,35.00 1056.74,35.00 1057.79,35.00 1058.83,35.00 1059.88,35.00 1060.93,35.00 1061.98,35.00 1063.03,35.00 1064.10,35.00 1065.15,35.00 1066.20,35.00 1067.25,35.00 1068.29,35.00 1069.35,35.00 1070.40,35.00 1071.45,35.00 1072.50,35.00 1073.54,35.00 1074.60,35.00 1075.65,35.00 1076.69,35.00 1077.75,35.00 1078.79,35.00 1079.85,35.00 1080.97,35.00 1082.06,35.00 1083.10,35.00 1084.15,35.00 1085.19,35.00 1086.26,35.00 1087.32,35.00 1088.38,35.00 1089.43,35.00 1090.47,35.00 1091.50,35.00 1092.55,35.00 1093.59,35.00 1094.65,35.00 1095.70,35.00 1096.74,35.00 1097.80,35.00 1098.86,35.00 1099.92,35.00 1100.96,35.00 1102.01,35.00 1103.05,35.00 1104.11,35.00 1105.16,35.00 1106.20,35.00 1107.25,35.00 1108.31,35.00 1109.36,35.00 1110.41,35.00 1111.51,35.00 1112.56,35.00 1113.61,35.00 1114.65,35.00 1115.71,35.00 1116.76,35.00 1117.82,35.00 1118.87,35.00 1119.91,35.00 1120.97,35.00 1122.02,35.00 1123.09,35.00 1124.14,35.00 1125.20,35.00 1126.25,35.00 1127.29,35.00 1128.35,35.00 1129.39,35.00 1130.45,35.00 1131.49,35.00 1132.56,35.00 1133.60,35.00 1134.65,35.00 1135.70,35.00 1136.75,35.00 1137.80,35.00 1138.85,35.00 1139.89,35.00 1140.94,35.00 1141.99,35.00 1143.05,35.00 1144.09,35.00 1145.14,35.00 1146.19,35.00 1147.25,35.00 1148.30,35.00 1149.35,35.00 1150.39,35.00 1151.43,35.00 1152.47,35.00 1153.52,35.00 1154.58,35.00 1155.63,35.00 1156.71,35.00 1157.76,35.00 1158.81,35.00 1159.87,35.00 1160.91,35.00 1161.98,35.00 1163.11,35.00 1164.18,35.00 1165.24,35.00 1166.30,35.00 1167.36,35.00 1168.41,35.00 1169.46,35.00 1170.51,35.00 1171.56,35.00 1172.61,35.00 1173.67,35.00 1174.72,35.00 1175.77,35.00 1176.84,35.00 1177.90,35.00 1178.95,35.00 1180.00,35.00"/>
<polyline fill="none" stroke="#1f77b4" stroke-opacity="0.50" stroke-width="2" points="70.00,35.00 71.05,35.00 72.09,35.00 73.14,35.00 74.18,35.00 75.24,35.00 76.27,35.00 77.32,35.00 78.45,35.00 79.49,35.00 80.53,35.00 81.57,35.00 82.63,35.00 83.67,35.00 84.71,35.00 86.59,35.00 88.21,35.00 89.26,35.00 90.34,35.00 91.38,35.00 92.42,35.00 93.44,35.00 94.50,35.00 95.54,35.00 96.59,35.00 97.64,35.00 98.71,35.00 99.75,35.00 100.80,35.00 101.90,35.00 102.95,35.00 104.00,35.00 105.07,35.00 106.11,35.00 107.16,35.00 108.24,35.00 109.27,35.00 110.32,35.00 111.38,35.00 112.41,35.00 113.46,35.00 114.49,35.00 115.53,35.00 116.58,35.00 117.62,35.00 118.69,35.00 119.74,35.00 120.77,35.00 121.81,35.00 122.87,35.00 123.91,35.00 125.11,35.00 126.15,35.00 127.20,35.00 128.23,35.00 129.27,35.00 130.31,35.00 131.34,35.00 132.39,35.00 133.43,35.00 134.50,35.00 135.54,35.00 136.57,35.00 137.62,35.00 138.68,35.00 139.72,35.00 140.77,35.00 141.80,35.00 142.84,35.00 143.88,35.00 144.91,35.00 145.96,35.00 147.00,35.00 148.04,35.00 149.08,35.00 150.13,35.00 151.16,35.00 152.21,35.00 153.25,35.00 154.29,35.00 155.36,35.00 156.40,35.00 157.44,35.00 158.49,35.00 159.53,35.00 160.58,35.00 161.62,35.00 162.65,35.00 163.69,35.00 164.74,35.00 165.79,35.00 166.83,35.00 167.89,35.00 168.92,35.00 169.97,35.00 171.01,35.00 172.05,35.00 173.08,35.00 174.13,35.00 175.16,35.00 176.21,35.00 177.26,35.00 178.31,35.00 179.35,35.00 180.41,35.00 181.46,35.00 182.50,35.00 183.54,35.00 184.58,35.00 185.62,35.00 186.68,35.00 187.72,35.00 188.76,35.00 189.80,35.00 190.85,35.00 191.90,35.00 192.95,35.00 194.01,35.00 195.05,35.00 196.10,35.00 197.14,35.00 198.18,35.00 199.23,35.00 200.28,35.00 201.41,35.00 202.45,35.00 203.51,35.00 204.55,35.00 205.58,35.00 206.62,35.00 207.65,35.00 208.69,35.00 209.73,35.00 210.77,35.00 211.81,35.00 212.85,35.00 213.90,35.00 214.93,35.00 216.00,35.00 217.04,35.00 218.08,35.00 219.12,35.00 220.16,35.00 221.20,35.00 222.25,35.00 223.30,35.00 224.34,35.00 225.39,35.00 226.43,35.00 227.46,35.00 228.50,35.00 229.54,35.00 230.59,35.00 231.63,35.00 232.69,35.00 233.73,35.00 234.78,35.00 235.83,35.00 236.88,35.00 237.91,35.00 238.96,35.00 240.00,35.00 241.07,35.00 242.12,35.00 243.16,35.00 244.21,35.00 245.25,35.00 246.28,35.00 247.32,35.00 248.37,35.00 249.41,35.00 250.44,35.00 251.48,35.00 252.53,35.00 253.58,35.00 254.63,35.00 255.67,35.00 256.74,35.00 257.78,35.00 258.82,35.00 259.86,35.00 260.89,35.00 262.03,35.00 263.10,35.00 264.13,35.00 265.17,35.00 266.20,35.00 267.25,35.00 268.29,35.00 269.34,35.00 270.39,35.00 271.43,35.00 272.46,35.00 273.51,35.00 274.58,35.00 275.62,35.00 276.65,35.00 277.70,35.00 278.75,35.00 279.82,35.00 280.88,35.00 281.92,35.00 282.96,35.00 284.01,35.00 285.05,35.00 286.10,35.00 287.14,35.00 288.20,35.00 289.24,35.00 290.27,35.00 291.33,35.00 292.37,35.00 293.41,35.00 294.46,35.00 295.52,35.00 296.56,35.00 297.60,35.00 298.63,35.00 299.67,35.00 300.72,35.00 301.76,35.00 302.80,35.00 303.84,35.00 304.88,35.00 305.92,35.00 306.97,35.00 308.01,35.00 309.06,35.00 310.12,35.00 311.17,35.00 312.22,35.00 313.26,35.00 314.30,35.00 315.35,35.00 316.39,35.00 317.44,35.00 318.50,35.00 319.55,35.00 320.60,35.00 321.64,35.00 322.68,35.00 323.73,35.00 324.76,35.00 325.80,35.00 326.85,35.00 327.90,35.00 328.94,35.00 329.99,35.00 331.04,35.00 332.08,35.00 333.13,35.00 334.18,35.00 335.23,35.00 336.27,35.00 337.32,35.00 338.37,35.00 339.42,35.00 340.47,35.00 341.51,35.00 342.55,35.00 343.71,35.00 344.76,35.00 345.81,35.00 346.85,35.00 347.91,35.00 348.96,35.00 350.00,35.00 351.05,35.00 352.09,35.00 353.16,35.00 354.22,35.00 355.26,35.00 356.30,35.00 357.34,35.00 358.39,35.00 359.43,35.00 360.52,35.00 361.56,35.00 362.60,35.00 363.66,35.00 364.79,35.00 365.83,35.00 367.15,35.00 368.91,35.00 369.98,35.00 371.05,35.00 372.09,35.00 373.11,35.00 374.15,35.00 375.21,35.00 376.26,35.00 377.31,35.00 378.40,35.00 379.48,35.00 380.59,35.00 381.64,35.00 382.68,35.00 383.73,35.00 384.78,35.00 385.84,35.00 386.90,35.00 387.94,35.00 388.98,35.00 390.07,35.00 391.12,35.00 392.15,35.00 393.20,35.00 394.26,35.00 395.34,35.00 396.39,35.00 397.44,35.00 398.51,35.00 399.51,35.00 400.55,35.00 401.62,35.00 402.65,35.00 403.72,35.00 404.79,35.00 405.84,35.00 406.88,35.00 407.94,35.00 409.00,35.00 410.04,35.00 411.08,35.00 412.12,35.00 413.17,35.00 414.22,35.00 415.25,35.00 416.50,35.00 417.73,35.00 418.97,35.00 420.18,35.00 421.37,35.00 422.58,35.00 423.81,35.00 425.03,35.00 426.08,35.00 427.11,35.00 428.15,35.00 429.19,35.00 430.24,35.00 431.27,35.00 432.31,35.00 433.35,35.00 434.40,35.00 435.44,35.00 436.48,35.00 437.52,35.00 438.56,35.00 439.60,35.00 440.64,35.00 441.68,35.00 442.72,35.00 443.75,35.00 444.80,35.00 445.85,35.00 446.89,35.00 447.92,35.00 448.96,35.00 450.00,35.00 451.05,35.00 452.09,35.00 453.13,35.00 454.18,35.00 455.22,35.00 456.26,35.00 457.30,35.00 458.34,35.00 459.38,35.00 460.42,35.00 461.45,35.00 462.48,35.00 463.52,35.00 464.56,35.00 465.59,35.00 466.63,35.00 467.67,35.00 468.71,35.00 469.74,35.00 470.78,35.00 471.80,35.00 472.88,35.00 474.00,35.00 475.05,35.00 476.10,35.00 477.13,35.00 478.17,35.00 479.21,35.00 480.24,35.00 481.28,35.00 482.51,35.00 483.74,35.00 484.95,35.00 486.17,35.00 487.40,35.00 488.62,35.00 489.86,35.00 491.13,35.00 492.27,35.00 493.39,35.00 494.43,35.00 495.49,35.00 496.53,35.00 497.56,35.00 498.60,35.00 499.65,35.00 500.69,35.00 501.73,35.00 502.76,35.00 503.81,35.00 504.85,35.00 505.89,35.00 506.95,35.00 507.99,35.00 509.03,35.00 509.94,35.00 511.02,35.00 512.06,35.00 513.13,35.00 514.17,35.00 515.21,35.00 516.26,35.00 517.31,35.00 518.36,35.00 519.41,35.00 520.46,35.00 521.53,35.00 522.56,35.00 523.59,35.00 524.64,35.00 525.67,35.00 526.71,35.00 527.75,35.00 528.80,35.00 529.84,35.00 530.88,35.00 531.93,35.00 532.96,35.00 534.01,35.00 535.06,35.00 536.10,35.00 537.16,35.00 538.20,35.00 539.24,35.00 540.29,35.00 541.34,35.00 542.41,35.00 543.45,35.00 544.48,35.00 545.53,35.00 546.56,35.00 547.60,35.00 548.65,35.00 549.69,35.00 550.73,35.00 551.77,35.00 552.81,35.00 553.85,35.00 554.90,35.00 555.95,35.00 556.99,35.00 558.25,35.00 559.32,35.00 560.39,35.00 561.44,35.00 562.49,35.00 563.54,35.00 564.58,35.00 565.62,35.00 566.67,35.00 567.72,35.00 568.76,35.00 569.81,35.00 570.86,35.00 571.90,35.00 572.98,35.00 574.04,35.00 575.09,35.00 576.13,35.00 577.18,35.00 578.22,35.00 579.26,35.00 580.30,35.00 581.39,35.00 582.44,35.00 583.49,35.00 584.53,35.00 585.57,35.00 586.62,35.00 587.66,35.00 588.71,35.00 589.76,35.00 590.80,35.00 591.85,35.00 592.90,35.00 593.94,35.00 594.98,35.00 596.02,35.00 597.09,35.00 598.13,35.00 599.17,35.00 600.21,35.00 601.26,35.00 602.32,35.00 603.37,35.00 604.62,35.00 605.69,35.00 606.74,35.00 607.79,35.00 608.82,35.00 609.87,35.00 610.92,35.00 611.97,35.00 613.03,35.00 614.07,35.00 615.11,35.00 616.15,35.00 617.19,35.00 618.24,35.00 619.28,35.00 620.33,35.00 621.37,35.00 622.41,35.00 623.45,35.00 624.49,35.00 625.55,35.00 626.59,35.00 627.63,35.00 628.68,35.00 629.74,35.00 630.78,35.00 631.82,35.00 632.87,35.00 633.94,35.00 634.98,35.00 636.03,35.00 637.08,35.00 638.12,35.00 639.16,35.00 640.21,35.00 641.26,35.00 642.33,35.00 643.37,35.00 644.41,35.00 645.44,35.00 646.49,35.00 647.53,35.00 648.58,35.00 649.62,35.00 650.67,35.00 651.73,35.00 652.78,35.00 653.80,35.00 654.86,35.00 655.90,35.00 656.95,35.00 657.99,35.00 659.03,35.00 660.07,35.00 661.13,35.00 662.18,35.00 663.22,35.00 664.27,35.00 665.33,35.00 666.38,35.00 667.42,35.00 668.48,35.00 669.65,35.00 670.79,35.00 671.91,35.00 672.97,35.00 674.06,35.00 675.11,35.00 676.16,35.00 677.19,35.00 678.17,35.00 679.26,35.00 680.30,35.00 681.36,35.00 682.39,35.00 683.44,35.00 684.48,35.00 685.53,35.00 686.57,35.00 687.62,35.00 688.66,35.00 689.71,35.00 690.76,35.00 691.81,35.00 692.86,35.00 693.92,35.00 694.96,35.00 696.01,35.00 697.06,35.00 698.13,35.00 699.17,35.00 700.21,35.00 701.25,35.00 702.30,35.00 703.34,35.00 704.38,35.00 705.43,35.00 706.48,35.00 707.54,35.00 708.57,35.00 709.62,35.00 710.66,35.00 711.71,35.00 712.76,35.00 713.82,35.00 714.85,35.00 715.90,35.00 716.95,35.00 718.00,35.00 719.05,35.00 720.11,35.00 721.16,35.00 722.20,35.00 723.25,35.00 724.30,35.00 725.36,35.00 726.43,35.00 727.48,35.00 728.53,35.00 729.58,35.00 730.62,35.00 731.67,35.00 732.71,35.00 733.77,35.00 734.82,35.00 735.86,35.00 736.91,35.00 737.96,35.00 739.01,35.00 740.07,35.00 741.11,35.00 742.17,35.00 743.22,35.00 744.27,35.00 745.33,35.00 746.38,35.00 747.42,35.00 748.47,35.00 749.52,35.00 750.59,35.00 751.64,35.00 752.70,35.00 753.75,35.00 754.79,35.00 755.83,35.00 756.88,35.00 757.93,35.00 758.98,35.00 760.03,35.00 761.07,35.00 762.12,35.00 763.17,35.00 764.22,35.00 765.27,35.00 766.31,35.00 767.37,35.00 768.42,35.00 769.47,35.00 770.52,35.00 771.56,35.00 772.61,35.00 773.64,35.00 774.69,35.00 775.74,35.00 776.80,35.00 777.85,35.00 778.90,35.00 779.94,35.00 781.00,35.00 782.06,35.00 783.10,35.00 784.15,35.00 785.22,35.00 786.26,35.00 787.31,35.00 788.36,35.00 789.42,35.00 790.47,35.00 791.52,35.00 792.59,35.00 793.65,35.00 794.70,35.00 795.75,35.00 796.79,35.00 797.85,35.00 798.90,35.00 799.96,35.00 801.01,35.00 802.06,35.00 803.10,35.00 804.14,35.00 805.22,35.00 806.26,35.00 807.32,35.00 808.37,35.00 809.41,35.00 810.45,35.00 811.49,35.00 812.53,35.00 813.59,35.00 814.64,35.00 815.69,35.00 816.73,35.00 817.78,35.00 818.83,35.00 819.91,35.00 820.96,35.00 822.00,35.00 823.05,35.00 824.09,35.00 825.14,35.00 826.19,35.00 827.25,35.00 828.29,35.00 829.34,35.00 830.39,35.00 831.44,35.00 832.49,35.00 833.54,35.00 834.60,35.00 835.68,35.00 836.74,35.00 837.79,35.00 838.85,35.00 839.89,35.00 840.95,35.00 841.99,35.00 843.04,35.00 844.07,35.00 845.14,35.00 846.18,35.00 847.24,35.00 848.29,35.00 849.35,35.00 850.44,35.00 851.49,35.00 852.54,35.00 853.59,35.00 854.64,35.00 855.69,35.00 856.75,35.00 857.81,35.00 858.86,35.00 859.92,35.00 860.97,35.00 862.03,35.00 863.08,35.00 864.13,35.00 865.18,35.00 866.23,35.00 867.27,35.00 868.33,35.00 869.39,35.00 870.44,35.00 871.49,35.00 872.54,35.00 873.60,35.00 874.64,35.00 875.70,35.00 876.75,35.00 877.84,35.00 878.89,35.00 879.95,35.00 881.00,35.00 882.07,35.00 883.15,35.00 884.22,35.00 885.28,35.00 886.37,35.00 887.42,35.00 888.47,35.00 889.52,35.00 890.57,35.00 891.63,35.00 892.68,35.00 893.76,35.00 894.80,35.00 895.86,35.00 896.91,35.00 897.95,35.00 899.00,35.00 900.06,35.00 901.10,35.00 902.15,35.00 903.19,35.00 904.24,35.00 905.29,35.00 906.32,35.00 907.37,35.00 908.43,35.00 909.48,35.00 910.53,35.00 911.59,35.00 912.65,35.00 913.69,35.00 914.74,35.00 915.79,35.00 916.84,35.00 917.89,35.00 918.93,35.00 919.99,35.00 921.04,35.00 922.08,35.00 923.12,35.00 924.16,35.00 925.21,35.00 926.26,35.00 927.31,35.00 928.36,35.00 929.41,35.00 930.46,35.00 931.50,35.00 932.56,35.00 933.61,35.00 934.64,35.00 935.68,35.00 936.71,35.00 937.76,35.00 938.81,35.00 939.88,35.00 940.92,35.00 941.97,35.00 943.02,35.00 944.09,35.00 945.14,35.00 946.19,35.00 947.25,35.00 948.30,35.00 949.34,35.00 950.41,35.00 951.45,35.00 952.52,35.00 953.58,35.00 954.62,35.00 955.66,35.00 956.71,35.00 957.75,35.00 958.80,35.00 959.85,35.00 960.88,35.00 961.93,35.00 962.99,35.00 964.04,35.00 965.08,35.00 966.13,35.00 967.18,35.00 968.22,35.00 969.28,35.00 970.33,35.00 971.38,35.00 972.43,35.00 973.48,35.00 974.54,35.00 975.58,35.00 976.63,35.00 977.68,35.00 978.73,35.00 979.77,35.00 980.83,35.00 981.88,35.00 982.93,35.00 983.97,35.00 985.02,35.00 986.10,35.00 987.15,35.00 988.22,35.00 989.28,35.00 990.34,35.00 991.39,35.00 992.44,35.00 993.49,35.00 994.55,35.00 995.59,35.00 996.65,35.00 997.72,35.00 998.77,35.00 999.82,35.00 1000.87,35.00 1001.92,35.00 1002.98,35.00 1004.03,35.00 1005.07,35.00 1006.12,35.00 1007.17,35.00 1008.22,35.00 1009.26,35.00 1010.31,35.00 1011.36,35.00 1012.40,35.00 1013.45,35.00 1014.50,35.00 1015.54,35.00 1016.59,35.00 1017.66,35.00 1018.70,35.00 1019.74,35.00 1020.79,35.00 1021.84,35.00 1022.88,35.00 1023.94,35.00 1024.99,35.00 1026.05,35.00 1027.10,35.00 1028.14,35.00 1029.19,35.00 1030.24,35.00 1031.29,35.00 1032.33,35.00 1033.40,35.00 1034.47,35.00 1035.53,35.00 1036.61,35.00 1037.67,35.00 1038.75,35.00 1039.82,35.00 1040.89,35.00 1041.98,35.00 1043.05,35.00 1044.13,35.00 1045.18,35.00 1046.22,35.00 1047.28,35.00 1048.34,35.00 1049.39,35.00 1050.44,35.00 1051.49,35.00 1052.55,35.00 1053.60,35.00 1054.65,35.00 1055.69,35.00 1056.74,35.00 1057.79,35.00 1058.83,35.00 1059.88,35.00 1060.93,35.00 1061.98,35.00 1063.03,35.00 1064.10,35.00 1065.15,35.00 1066.20,35.00 1067.25,35.00 1068.29,35.00 1069.35,35.00 1070.40,35.00 1071.45,35.00 1072.50,35.00 1073.54,35.00 1074.60,35.00 1075.65,35.00 1076.69,35.00 1077.75,35.00 1078.79,35.00 1079.85,35.00 1080.97,35.00 1082.06,35.00 1083.10,35.00 1084.15,35.00 1085.19,35.00 1086.26,35.00 1087.32,35.00 1088.38,35.00 1089.43,35.00 1090.47,35.00 1091.50,35.00 1092.55,35.00 1093.59,35.00 1094.65,35.00 1095.70,35.00 1096.74,35.00 1097.80,35.00 1098.86,35.00 1099.92,35.00 1100.96,35.00 1102.01,35.00 1103.05,35.00 1104.11,35.00 1105.16,35.00 1106.20,35.00 1107.25,35.00 1108.31,35.00 1109.36,35.00 1110.41,35.00 1111.51,35.00 1112.56,35.00 1113.61,35.00 1114.65,35.00 1115.71,35.00 1116.76,35.00 1117.82,35.00 1118.87,35.00 1119.91,35.00 1120.97,35.00 1122.02,35.00 1123.09,35.00 1124.14,35.00 1125.20,35.00 1126.25,35.00 1127.29,35.00 1128.35,35.00 1129.39,35.00 1130.45,35.00 1131.49,35.00 1132.56,35.00 1133.60,35.00 1134.65,35.00 1135.70,35.00 1136.75,35.00 1137.80,35.00 1138.85,35.00 1139.89,35.00 1140.94,35.00 1141.99,35.00 1143.05,35.00 1144.09,35.00 1145.14,35.00 1146.19,35.00 1147.25,35.00 1148.30,35.00 1149.35,35.00 1150.39,35.00 1151.43,35.00 1152.47,35.00 1153.52,35.00 1154.58,35.00 1155.63,35.00 1156.71,35.00 1157.76,35.00 1158.81,35.00 1159.87,35.00 1160.91,35.00 1161.98,35.00 1163.11,35.00 1164.18,35.00 1165.24,35.00 1166.30,35.00 1167.36,35.00 1168.41,35.00 1169.46,35.00 1170.51,35.00 1171.56,35.00 1172.61,35.00 1173.67,35.00 1174.72,35.00 1175.77,35.00 1176.84,35.00 1177.90,35.00 1178.95,35.00 1180.00,35.00"/>
<rect x="70" y="332" width="12" height="12" fill="#1f77b4" fill-opacity="0.95"/>
<text x="88" y="342" font-size="11" fill="#333" font-family="Arial, Helvetica, sans-serif">nsc1.utdallas.edu</text>
<rect x="350" y="332" width="12" height="12" fill="#1f77b4" fill-opacity="0.80"/>
<text x="368" y="342" font-size="11" fill="#333" font-family="Arial, Helvetica, sans-serif">nsc2.utdallas.edu</text>
<rect x="630" y="332" width="12" height="12" fill="#1f77b4" fill-opacity="0.65"/>
<text x="648" y="342" font-size="11" fill="#333" font-family="Arial, Helvetica, sans-serif">nsc3.utdallas.edu</text>
<rect x="910" y="332" width="12" height="12" fill="#1f77b4" fill-opacity="0.50"/>
<text x="928" y="342" font-size="11" fill="#333" font-family="Arial, Helvetica, sans-serif">nsc4.utdallas.edu</text>
</svg>