<?xml version="1.0" encoding="UTF-8"?>
<svg xmlns="http://www.w3.org/2000/svg" width="1200" height="360" viewBox="0 0 1200 360" role="img" aria-label="Ping Uptime (%)">
<rect width="100%" height="100%" fill="#ffffff"/>
<text x="600.0" y="22" text-anchor="middle" font-size="16" font-family="Arial, Helvetica, sans-serif" font-weight="bold">Ping Uptime (%)</text>
<line x1="70" y1="35.00" x2="1180" y2="35.00" stroke="#e3e3e3" stroke-width="1"/>
<text x="62" y="39.00" text-anchor="end" font-size="11" fill="#444" font-family="Arial, Helvetica, sans-serif">100</text>
<line x1="70" y1="89.00" x2="1180" y2="89.00" stroke="#e3e3e3" stroke-width="1"/>
<text x="62" y="93.00" text-anchor="end" font-size="11" fill="#444" font-family="Arial, Helvetica, sans-serif">80</text>
<line x1="70" y1="143.00" x2="1180" y2="143.00" stroke="#e3e3e3" stroke-width="1"/>
<text x="62" y="147.00" text-anchor="end" font-size="11" fill="#444" font-family="Arial, Helvetica, sans-serif">60</text>
<line x1="70" y1="197.00" x2="1180" y2="197.00" stroke="#e3e3e3" stroke-width="1"/>
<text x="62" y="201.00" text-anchor="end" font-size="11" fill="#444" font-family="Arial, Helvetica, sans-serif">40</text>
<line x1="70" y1="251.00" x2="1180" y2="251.00" stroke="#e3e3e3" stroke-width="1"/>
<text x="62" y="255.00" text-anchor="end" font-size="11" fill="#444" font-family="Arial, Helvetica, sans-serif">20</text>
<line x1="70" y1="305.00" x2="1180" y2="305.00" stroke="#e3e3e3" stroke-width="1"/>
<text x="62" y="309.00" text-anchor="end" font-size="11" fill="#444" font-family="Arial, Helvetica, sans-serif">0</text>
<line x1="70" y1="35" x2="70" y2="305" stroke="#999"/>
<line x1="70" y1="305" x2="1180" y2="305" stroke="#999"/>
<text x="70.00" y="323" text-anchor="middle" font-size="10" fill="#444" font-family="Arial, Helvetica, sans-serif">2026-02-11 16:38</text>
<text x="347.50" y="323" text-anchor="middle" font-size="10" fill="#444" font-family="Arial, Helvetica, sans-serif">2026-02-11 22:38</text>
<text x="625.00" y="323" text-anchor="middle" font-size="10" fill="#444" font-family="Arial, Helvetica, sans-serif">2026-02-12 04:39</text>
<text x="902.50" y="323" text-anchor="middle" font-size="10" fill="#444" font-family="Arial, Helvetica, sans-serif">2026-02-12 10:39</text>
<text x="1180.00" y="323" text-anchor="middle" font-size="10" fill="#444" font-family="Arial, Helvetica, sans-serif">2026-02-12 16:40</text>
<polyline fill="none" stroke="#1f77b4" stroke-opacity="0.95" stroke-width="2" points="74.14,35.00 78.30,35.00 82.43,35.00 86.58,35.00 90.77,35.00 94.87,35.00 99.03,35.00 103.52,35.00 107.63,35.00 111.75,35.00 115.87,35.00 120.08,35.00 124.19,35.00 128.31,35.00 135.76,35.00 142.19,35.00 146.37,35.00 150.62,35.00 154.75,35.00 158.88,35.00 162.93,35.00 167.11,35.00 171.24,35.00 175.41,35.00 179.58,35.00 183.80,35.00 187.95,35.00 192.11,35.00 196.46,35.00 200.64,35.00 204.77,35.00 209.02,35.00 213.16,35.00 217.30,35.00 221.57,35.00 225.68,35.00 229.82,35.00 234.04,35.00 238.13,35.00 242.28,35.00 246.37,35.00 250.50,35.00 254.65,35.00 258.77,35.00 263.00,35.00 267.19,35.00 271.28,35.00 275.41,35.00 279.59,35.00 283.73,35.00 288.46,35.00 292.61,35.00 296.74,35.00 300.84,35.00 304.96,35.00 309.06,35.00 313.18,35.00 317.34,35.00 321.47,35.00 325.69,35.00 329.82,35.00 333.91,35.00 338.08,35.00 342.27,35.00 346.40,35.00 350.56,35.00 354.65,35.00 358.76,35.00 362.87,35.00 366.98,35.00 371.11,35.00 375.25,35.00 379.36,35.00 383.50,35.00 387.65,35.00 391.75,35.00 395.91,35.00 400.02,35.00 404.14,35.00 408.38,35.00 412.51,35.00 416.64,35.00 420.81,35.00 424.93,35.00 429.08,35.00 433.21,35.00 437.31,35.00 441.41,35.00 445.58,35.00 449.75,35.00 453.88,35.00 458.06,35.00 462.14,35.00 466.29,35.00 470.41,35.00 474.54,35.00 478.65,35.00 482.79,35.00 486.89,35.00 491.06,35.00 495.21,35.00 499.35,35.00 503.49,35.00 507.69,35.00 511.86,35.00 515.99,35.00 520.10,35.00 524.23,35.00 528.35,35.00 532.53,35.00 536.68,35.00 540.81,35.00 544.94,35.00 549.09,35.00 553.25,35.00 557.42,35.00 561.62,35.00 565.74,35.00 569.88,35.00 574.03,35.00 578.16,35.00 582.29,35.00 586.46,35.00 590.95,35.00 595.06,35.00 599.26,35.00 603.39,35.00 607.49,35.00 611.60,35.00 615.66,35.00 619.79,35.00 623.94,35.00 628.07,35.00 632.18,35.00 636.31,35.00 640.44,35.00 644.55,35.00 648.77,35.00 652.89,35.00 657.02,35.00 661.13,35.00 665.28,35.00 669.39,35.00 673.55,35.00 677.71,35.00 681.85,35.00 685.99,35.00 690.12,35.00 694.23,35.00 698.34,35.00 702.47,35.00 706.60,35.00 710.76,35.00 714.94,35.00 719.08,35.00 723.21,35.00 727.40,35.00 731.54,35.00 735.64,35.00 739.80,35.00 743.94,35.00 748.15,35.00 752.34,35.00 756.46,35.00 760.62,35.00 764.72,35.00 768.83,35.00 772.96,35.00 777.10,35.00 781.22,35.00 785.31,35.00 789.43,35.00 793.61,35.00 797.75,35.00 801.91,35.00 806.04,35.00 810.27,35.00 814.40,35.00 818.53,35.00 822.65,35.00 826.75,35.00 831.25,35.00 835.49,35.00 839.59,35.00 843.71,35.00 847.79,35.00 851.94,35.00 856.07,35.00 860.23,35.00 864.39,35.00 868.50,35.00 872.62,35.00 876.76,35.00 881.00,35.00 885.13,35.00 889.23,35.00 893.36,35.00 897.54,35.00 901.76,35.00 906.00,35.00 910.10,35.00 914.24,35.00 918.39,35.00 922.50,35.00 926.66,35.00 930.80,35.00 935.00,35.00 939.11,35.00 943.22,35.00 947.40,35.00 951.54,35.00 955.67,35.00 959.82,35.00 964.01,35.00 968.15,35.00 972.27,35.00 976.36,35.00 980.48,35.00 984.64,35.00 988.77,35.00 992.88,35.00 997.01,35.00 1001.11,35.00 1005.24,35.00 1009.40,35.00 1013.55,35.00 1017.70,35.00 1021.90,35.00 1026.04,35.00 1030.21,35.00 1034.33,35.00 1038.48,35.00 1042.61,35.00 1046.76,35.00 1050.90,35.00 1055.13,35.00 1059.27,35.00 1063.43,35.00 1067.57,35.00 1071.69,35.00 1075.85,35.00 1079.94,35.00 1084.07,35.00 1088.24,35.00 1092.38,35.00 1096.52,35.00 1100.67,35.00 1104.84,35.00 1108.97,35.00 1113.11,35.00 1117.28,35.00 1121.46,35.00 1125.58,35.00 1129.71,35.00 1133.88,35.00 1138.06,35.00 1142.21,35.00 1146.34,35.00 1150.47,35.00 1155.06,35.00 1159.23,35.00 1163.38,35.00 1167.52,35.00 1171.70,35.00 1175.86,35.00 1180.00,35.00"/>
<polyline fill="none" stroke="#1f77b4" stroke-opacity="0.80" stroke-width="2" points="70.00,35.00 74.14,35.00 78.30,35.00 82.43,35.00 86.58,35.00 90.77,35.00 94.87,35.00 99.03,35.00 103.52,35.00 107.63,35.00 111.75,35.00 115.87,35.00 120.08,35.00 124.19,35.00 128.31,35.00 135.76,35.00 142.19,35.00 146.37,35.00 150.62,35.00 154.75,35.00 158.88,35.00 162.93,35.00 167.11,35.00 171.24,35.00 175.41,35.00 179.58,35.00 183.80,35.00 187.95,35.00 192.11,35.00 196.46,35.00 200.64,35.00 204.77,35.00 209.02,35.00 213.16,35.00 217.30,35.00 221.57,35.00 225.68,35.00 229.82,35.00 234.04,35.00 238.13,35.00 242.28,35.00 246.37,35.00 250.50,35.00 254.65,35.00 258.77,35.00 263.00,35.00 267.19,35.00 271.28,35.00 275.41,35.00 279.59,35.00 283.73,35.00 288.46,35.00 292.61,35.00 296.74,35.00 300.84,35.00 304.96,35.00 309.06,35.00 313.18,35.00 317.34,35.00 321.47,35.00 325.69,35.00 329.82,35.00 333.91,35.00 338.08,35.00 342.27,35.00 346.40,35.00 350.56,35.00 354.65,35.00 358.76,35.00 362.87,35.00 366.98,35.00 371.11,35.00 375.25,35.00 379.36,35.00 383.50,35.00 387.65,35.00 391.75,35.00 395.91,35.00 400.02,35.00 404.14,35.00 408.38,35.00 412.51,35.00 416.64,35.00 420.81,35.00 424.93,35.00 429.08,35.00 433.21,35.00 437.31,35.00 441.41,35.00 445.58,35.00 449.75,35.00 453.88,35.00 458.06,35.00 462.14,35.00 466.29,35.00 470.41,35.00 474.54,35.00 478.65,35.00 482.79,35.00 486.89,35.00 491.06,35.00 495.21,35.00 499.35,35.00 503.49,35.00 507.69,35.00 511.86,35.00 515.99,35.00 520.10,35.00 524.23,35.00 528.35,35.00 532.53,35.00 536.68,35.00 540.81,35.00 544.94,35.00 549.09,35.00 553.25,35.00 557.42,35.00 561.62,35.00 565.74,35.00 569.88,35.00 574.03,35.00 578.16,35.00 582.29,35.00 586.46,35.00 590.95,35.00 595.06,35.00 599.26,35.00 603.39,35.00 607.49,35.00 611.60,35.00 615.66,35.00 619.79,35.00 623.94,35.00 628.07,35.00 632.18,35.00 636.31,35.00 640.44,35.00 644.55,35.00 648.77,35.00 652.89,35.00 657.02,35.00 661.13,35.00 665.28,35.00 669.39,35.00 673.55,35.00 677.71,35.00 681.85,35.00 685.99,35.00 690.12,35.00 694.23,35.00 698.34,35.00 702.47,35.00 706.60,35.00 710.76,35.00 714.94,35.00 719.08,35.00 723.21,35.00 727.40,35.00 731.54,35.00 735.64,35.00 739.80,35.00 743.94,35.00 748.15,35.00 752.34,35.00 756.46,35.00 760.62,35.00 764.72,35.00 768.83,35.00 772.96,35.00 777.10,35.00 781.22,35.00 785.31,35.00 789.43,35.00 793.61,35.00 797.75,35.00 801.91,35.00 806.04,35.00 810.27,35.00 814.40,35.00 818.53,35.00 822.65,35.00 826.75,35.00 831.25,35.00 835.49,35.00 839.59,35.00 843.71,35.00 847.79,35.00 851.94,35.00 856.07,35.00 860.23,35.00 864.39,35.00 868.50,35.00 872.62,35.00 876.76,35.00 881.00,35.00 885.13,35.00 889.23,35.00 893.36,35.00 897.54,35.00 901.76,35.00 906.00,35.00 910.10,35.00 914.24,35.00 918.39,35.00 922.50,35.00 926.66,35.00 930.80,35.00 935.00,35.00 939.11,35.00 943.22,35.00 947.40,35.00 951.54,35.00 955.67,35.00 959.82,35.00 964.01,35.00 968.15,35.00 972.27,35.00 976.36,35.00 980.48,35.00 984.64,35.00 988.77,35.00 992.88,35.00 997.01,35.00 1001.11,35.00 1005.24,35.00 1009.40,35.00 1013.55,35.00 1017.70,35.00 1021.90,35.00 1026.04,35.00 1030.21,35.00 1034.33,35.00 1038.48,35.00 1042.61,35.00 1046.76,35.00 1050.90,35.00 1055.13,35.00 1059.27,35.00 1063.43,35.00 1067.57,35.00 1071.69,35.00 1075.85,35.00 1079.94,35.00 1084.07,35.00 1088.24,35.00 1092.38,35.00 1096.52,35.00 1100.67,35.00 1104.84,35.00 1108.97,35.00 1113.11,35.00 1117.28,35.00 1121.46,35.00 1125.58,35.00 1129.71,35.00 1133.88,35.00 1138.06,35.00 1142.21,35.00 1146.34,35.00 1150.47,35.00 1155.06,35.00 1159.23,35.00 1163.38,35.00 1167.52,35.00 1171.70,35.00 1175.86,35.00 1180.00,35.00"/>
<polyline fill="none" stroke="#1f77b4" stroke-opacity="0.65" stroke-width="2" points="70.00,35.00 74.14,35.00 78.30,35.00 82.43,35.00 86.58,35.00 90.77,35.00 94.87,35.00 99.03,35.00 103.52,35.00 107.63,35.00 111.75,35.00 115.87,35.00 120.08,35.00 124.19,35.00 128.31,35.00 135.76,35.00 142.19,35.00 146.37,35.00 150.62,35.00 154.75,35.00 158.88,35.00 162.93,35.00 167.11,35.00 171.24,35.00 175.41,35.00 179.58,35.00 183.80,35.00 187.95,35.00 192.11,35.00 196.46,35.00 200.64,35.00 204.77,35.00 209.02,35.00 213.16,35.00 217.30,35.00 221.57,35.00 225.68,35.00 229.82,35.00 234.04,35.00 238.13,35.00 242.28,35.00 246.37,35.00 250.50,35.00 254.65,35.00 258.77,35.00 263.00,35.00 267.19,35.00 271.28,35.00 275.41,35.00 279.59,35.00 283.73,35.00 288.46,35.00 292.61,35.00 296.74,35.00 300.84,35.00 304.96,35.00 309.06,35.00 313.18,35.00 317.34,35.00 321.47,35.00 325.69,35.00 329.82,35.00 333.91,35.00 338.08,35.00 342.27,35.00 346.40,35.00 350.56,35.00 354.65,35.00 358.76,35.00 362.87,35.00 366.98,35.00 371.11,35.00 375.25,35.00 379.36,35.00 383.50,35.00 387.65,35.00 391.75,35.00 395.91,35.00 400.02,35.00 404.14,35.00 408.38,35.00 412.51,35.00 416.64,35.00 420.81,35.00 424.93,35.00 429.08,35.00 433.21,35.00 437.31,35.00 441.41,35.00 445.58,35.00 449.75,35.00 453.88,35.00 458.06,35.00 462.14,35.00 466.29,35.00 470.41,35.00 474.54,35.00 478.65,35.00 482.79,35.00 486.89,35.00 491.06,35.00 495.21,35.00 499.35,35.00 503.49,35.00 507.69,35.00 511.86,35.00 515.99,35.00 520.10,35.00 524.23,35.00 528.35,35.00 532.53,35.00 536.68,35.00 540.81,35.00 544.94,35.00 549.09,35.00 553.25,35.00 557.42,35.00 561.62,35.00 565.74,35.00 569.88,35.00 574.03,35.00 578.16,35.00 582.29,35.00 586.46,35.00 590.95,35.00 595.06,35.00 599.26,35.00 603.39,35.00 607.49,35.00 611.60,35.00 615.66,35.00 619.79,35.00 623.94,35.00 628.07,35.00 632.18,35.00 636.31,35.00 640.44,35.00 644.55,35.00 648.77,35.00 652.89,35.00 657.02,35.00 661.13,35.00 665.28,35.00 669.39,35.00 673.55,35.00 677.71,35.00 681.85,35.00 685.99,35.00 690.12,35.00 694.23,35.00 698.34,35.00 702.47,35.00 706.60,35.00 710.76,35.00 714.94,35.00 719.08,35.00 723.21,35.00 727.40,35.00 731.54,35.00 735.64,35.00 739.80,35.00 743.94,35.00 748.15,35.00 752.34,35.00 756.46,35.00 760.62,35.00 764.72,35.00 768.83,35.00 772.96,35.00 777.10,35.00 781.22,35.00 785.31,35.00 789.43,35.00 793.61,35.00 797.75,35.00 801.91,35.00 806.04,35.00 810.27,35.00 814.40,35.00 818.53,35.00 822.65,35.00 826.75,35.00 831.25,35.00 835.49,35.00 839.59,35.00 843.71,35.00 847.79,35.00 851.94,35.00 856.07,35.00 860.23,35.00 864.39,35.00 868.50,35.00 872.62,35.00 876.76,35.00 881.00,35.00 885.13,35.00 889.23,35.00 893.36,35.00 897.54,35.00 901.76,35.00 906.00,35.00 910.10,35.00 914.24,35.00 918.39,35.00 922.50,35.00 926.66,35.00 930.80,35.00 935.00,35.00 939.11,35.00 943.22,35.00 947.40,35.00 951.54,35.00 955.67,35.00 959.82,35.00 964.01,35.00 968.15,35.00 972.27,35.00 976.36,35.00 980.48,35.00 984.64,35.00 988.77,35.00 992.88,35.00 997.01,35.00 1001.11,35.00 1005.24,35.00 1009.40,35.00 1013.55,35.00 1017.70,35.00 1021.90,35.00 1026.04,35.00 1030.21,35.00 1034.33,35.00 1038.48,35.00 1042.61,35.00 1046.76,35.00 1050.90,35.00 1055.13,35.00 1059.27,35.00 1063.43,35.00 1067.57,35.00 1071.69,35.00 1075.85,35.00 1079.94,35.00 1084.07,35.00 1088.24,35.00 1092.38,35.00 1096.52,35.00 1100.67,35.00 1104.84,35.00 1108.97,35.00 1113.11,35.00 1117.28,35.00 1121.46,35.00 1125.58,35.00 1129.71,35.00 1133.88,35.00 1138.06,35.00 1142.21,35.00 1146.34,35.00 1150.47,35.00 1155.06,35.00 1159.23,35.00 1163.38,35.00 1167.52,35.00 1171.70,35.00 1175.86,35.00 1180.00,35.00"/>
<polyline fill="none" stroke="#1f77b4" stroke-opacity="0.50" stroke-width="2" points="70.00,35.00 74.14,35.00 78.30,35.00 82.43,35.00 86.58,35.00 90.77,35.00 94.87,35.00 99.03,35.00 103.52,35.00 107.63,35.00 111.75,35.00 115.87,35.00 120.08,35.00 124.19,35.00 128.31,35.00 135.76,35.00 142.19,35.00 146.37,35.00 150.62,35.00 154.75,35.00 158.88,35.00 162.93,35.00 167.11,35.00 171.24,35.00 175.41,35.00 179.58,35.00 183.80,35.00 187.95,35.00 192.11,35.00 196.46,35.00 200.64,35.00 204.77,35.00 209.02,35.00 213.16,35.00 217.30,35.00 221.57,35.00 225.68,35.00 229.82,35.00 234.04,35.00 238.13,35.00 242.28,35.00 246.37,35.00 250.50,35.00 254.65,35.00 258.77,35.00 263.00,35.00 267.19,35.00 271.28,35.00 275.41,35.00 279.59,35.00 283.73,35.00 288.46,35.00 292.61,35.00 296.74,35.00 300.84,35.00 304.96,35.00 309.06,35.00 313.18,35.00 317.34,35.00 321.47,35.00 325.69,35.00 329.82,35.00 333.91,35.00 338.08,35.00 342.27,35.00 346.40,35.00 350.56,35.00 354.65,35.00 358.76,35.00 362.87,35.00 366.98,35.00 371.11,35.00 375.25,35.00 379.36,35.00 383.50,35.00 387.65,35.00 391.75,35.00 395.91,35.00 400.02,35.00 404.14,35.00 408.38,35.00 412.51,35.00 416.64,35.00 420.81,35.00 424.93,35.00 429.08,35.00 433.21,35.00 437.31,35.00 441.41,35.00 445.58,35.00 449.75,35.00 453.88,35.00 458.06,35.00 462.14,35.00 466.29,35.00 470.41,35.00 474.54,35.00 478.65,35.00 482.79,35.00 486.89,35.00 491.06,35.00 495.21,35.00 499.35,35.00 503.49,35.00 507.69,35.00 511.86,35.00 515.99,35.00 520.10,35.00 524.23,35.00 528.35,35.00 532.53,35.00 536.68,35.00 540.81,35.00 544.94,35.00 549.09,35.00 553.25,35.00 557.42,35.00 561.62,35.00 565.74,35.00 569.88,35.00 574.03,35.00 578.16,35.00 582.29,35.00 586.46,35.00 590.95,35.00 595.06,35.00 599.26,35.00 603.39,35.00 607.49,35.00 611.60,35.00 615.66,35.00 619.79,35.00 623.94,35.00 628.07,35.00 632.18,35.00 636.31,35.00 640.44,35.00 644.55,35.00 648.77,35.00 652.89,35.00 657.02,35.00 661.13,35.00 665.28,35.00 669.39,35.00 673.55,35.00 677.71,35.00 681.85,35.00 685.99,35.00 690.12,35.00 694.23,35.00 698.34,35.00 702.47,35.00 706.60,35.00 710.76,35.00 714.94,35.00 719.08,35.00 723.21,35.00 727.40,35.00 731.54,35.00 735.64,35.00 739.80,35.00 743.94,35.00 748.15,35.00 752.34,35.00 756.46,35.00 760.62,35.00 764.72,35.00 768.83,35.00 772.96,35.00 777.10,35.00 781.22,35.00 785.31,35.00 789.43,35.00 793.61,35.00 797.75,35.00 801.91,35.00 806.04,35.00 810.27,35.00 814.40,35.00 818.53,35.00 822.65,35.00 826.75,35.00 831.25,35.00 835.49,35.00 839.59,35.00 843.71,35.00 847.79,35.00 851.94,35.00 856.07,35.00 860.23,35.00 864.39,35.00 868.50,35.00 872.62,35.00 876.76,35.00 881.00,35.00 885.13,35.00 889.23,35.00 893.36,35.00 897.54,35.00 901.76,35.00 906.00,35.00 910.10,35.00 914.24,35.00 918.39,35.00 922.50,35.00 926.66,35.00 930.80,35.00 935.00,35.00 939.11,35.00 943.22,35.00 947.40,35.00 951.54,35.00 955.67,35.00 959.82,35.00 964.01,35.00 968.15,35.00 972.27,35.00 976.36,35.00 980.48,35.00 984.64,35.00 988.77,35.00 992.88,35.00 997.01,35.00 1001.11,35.00 1005.24,35.00 1009.40,35.00 1013.55,35.00 1017.70,35.00 1021.90,35.00 1026.04,35.00 1030.21,35.00 1034.33,35.00 1038.48,35.00 1042.61,35.00 1046.76,35.00 1050.90,35.00 1055.13,35.00 1059.27,35.00 1063.43,35.00 1067.57,35.00 1071.69,35.00 1075.85,35.00 1079.94,35.00 1084.07,35.00 1088.24,35.00 1092.38,35.00 1096.52,35.00 1100.67,35.00 1104.84,35.00 1108.97,35.00 1113.11,35.00 1117.28,35.00 1121.46,35.00 1125.58,35.00 1129.71,35.00 1133.88,35.00 1138.06,35.00 1142.21,35.00 1146.34,35.00 1150.47,35.00 1155.06,35.00 1159.23,35.00 1163.38,35.00 1167.52,35.00 1171.70,35.00 1175.86,35.00 1180.00,35.00"/>
<rect x="70" y="332" width="12" height="12" fill="#1f77b4" fill-opacity="0.95"/>
<text x="88" y="342" font-size="11" fill="#333" font-family="Arial, Helvetica, sans-serif">nsc1.utdallas.edu</text>
<rect x="350" y="332" width="12" height="12" fill="#1f77b4" fill-opacity="0.80"/>
<text x="368" y="342" font-size="11" fill="#333" font-family="Arial, Helvetica, sans-serif">nsc2.utdallas.edu</text>
<rect x="630" y="332" width="12" height="12" fill="#1f77b4" fill-opacity="0.65"/>
<text x="648" y="342" font-size="11" fill="#333" font-family="Arial, Helvetica, sans-serif">nsc3.utdallas.edu</text>
<rect x="910" y="332" width="12" height="12" fill="#1f77b4" fill-opacity="0.50"/>
<text x="928" y="342" font-size="11" fill="#333" font-family="Arial, Helvetica, sans-serif">nsc4.utdallas.edu</text>
</svg>