<?xml version="1.0" encoding="UTF-8"?>
<svg xmlns="http://www.w3.org/2000/svg" width="1200" height="360" viewBox="0 0 1200 360" role="img" aria-label="Ping Uptime (%)">
<rect width="100%" height="100%" fill="#ffffff"/>
<text x="600.0" y="22" text-anchor="middle" font-size="16" font-family="Arial, Helvetica, sans-serif" font-weight="bold">Ping Uptime (%)</text>
<line x1="70" y1="35.00" x2="1180" y2="35.00" stroke="#e3e3e3" stroke-width="1"/>
<text x="62" y="39.00" text-anchor="end" font-size="11" fill="#444" font-family="Arial, Helvetica, sans-serif">100</text>
<line x1="70" y1="89.00" x2="1180" y2="89.00" stroke="#e3e3e3" stroke-width="1"/>
<text x="62" y="93.00" text-anchor="end" font-size="11" fill="#444" font-family="Arial, Helvetica, sans-serif">80</text>
<line x1="70" y1="143.00" x2="1180" y2="143.00" stroke="#e3e3e3" stroke-width="1"/>
<text x="62" y="147.00" text-anchor="end" font-size="11" fill="#444" font-family="Arial, Helvetica, sans-serif">60</text>
<line x1="70" y1="197.00" x2="1180" y2="197.00" stroke="#e3e3e3" stroke-width="1"/>
<text x="62" y="201.00" text-anchor="end" font-size="11" fill="#444" font-family="Arial, Helvetica, sans-serif">40</text>
<line x1="70" y1="251.00" x2="1180" y2="251.00" stroke="#e3e3e3" stroke-width="1"/>
<text x="62" y="255.00" text-anchor="end" font-size="11" fill="#444" font-family="Arial, Helvetica, sans-serif">20</text>
<line x1="70" y1="305.00" x2="1180" y2="305.00" stroke="#e3e3e3" stroke-width="1"/>
<text x="62" y="309.00" text-anchor="end" font-size="11" fill="#444" font-family="Arial, Helvetica, sans-serif">0</text>
<line x1="70" y1="35" x2="70" y2="305" stroke="#999"/>
<line x1="70" y1="305" x2="1180" y2="305" stroke="#999"/>
<text x="70.00" y="323" text-anchor="middle" font-size="10" fill="#444" font-family="Arial, Helvetica, sans-serif">2026-02-11 16:38</text>
<text x="347.50" y="323" text-anchor="middle" font-size="10" fill="#444" font-family="Arial, Helvetica, sans-serif">2026-02-13 07:06</text>
<text x="625.00" y="323" text-anchor="middle" font-size="10" fill="#444" font-family="Arial, Helvetica, sans-serif">2026-02-14 21:35</text>
<text x="902.50" y="323" text-anchor="middle" font-size="10" fill="#444" font-family="Arial, Helvetica, sans-serif">2026-02-16 12:03</text>
<text x="1180.00" y="323" text-anchor="middle" font-size="10" fill="#444" font-family="Arial, Helvetica, sans-serif">2026-02-18 02:32</text>
<polyline fill="none" stroke="#1f77b4" stroke-opacity="0.95" stroke-width="2" points="70.65,35.00 71.30,35.00 71.94,35.00 72.59,35.00 73.24,35.00 73.88,35.00 74.53,35.00 75.23,35.00 75.88,35.00 76.52,35.00 77.16,35.00 77.82,35.00 78.46,35.00 79.11,35.00 80.27,35.00 81.27,35.00 81.93,35.00 82.59,35.00 83.24,35.00 83.88,35.00 84.51,35.00 85.17,35.00 85.81,35.00 86.46,35.00 87.11,35.00 87.77,35.00 88.42,35.00 89.07,35.00 89.75,35.00 90.40,35.00 91.05,35.00 91.71,35.00 92.36,35.00 93.01,35.00 93.67,35.00 94.31,35.00 94.96,35.00 95.62,35.00 96.26,35.00 96.91,35.00 97.55,35.00 98.19,35.00 98.84,35.00 99.48,35.00 100.14,35.00 100.80,35.00 101.44,35.00 102.08,35.00 102.73,35.00 103.38,35.00 104.12,35.00 104.77,35.00 105.41,35.00 106.05,35.00 106.70,35.00 107.34,35.00 107.98,35.00 108.63,35.00 109.28,35.00 109.93,35.00 110.58,35.00 111.22,35.00 111.87,35.00 112.53,35.00 113.17,35.00 113.82,35.00 114.46,35.00 115.10,35.00 115.74,35.00 116.38,35.00 117.03,35.00 117.68,35.00 118.32,35.00 118.96,35.00 119.61,35.00 120.25,35.00 120.90,35.00 121.54,35.00 122.19,35.00 122.85,35.00 123.50,35.00 124.14,35.00 124.79,35.00 125.43,35.00 126.08,35.00 126.73,35.00 127.37,35.00 128.01,35.00 128.66,35.00 129.31,35.00 129.96,35.00 130.61,35.00 131.25,35.00 131.90,35.00 132.54,35.00 133.18,35.00 133.82,35.00 134.47,35.00 135.11,35.00 135.76,35.00 136.41,35.00 137.06,35.00 137.71,35.00 138.36,35.00 139.01,35.00 139.66,35.00 140.30,35.00 140.94,35.00 141.59,35.00 142.24,35.00 142.89,35.00 143.53,35.00 144.18,35.00 144.83,35.00 145.48,35.00 146.13,35.00 146.78,35.00 147.43,35.00 148.07,35.00 148.72,35.00 149.37,35.00 150.01,35.00 150.66,35.00 151.36,35.00 152.01,35.00 152.66,35.00 153.31,35.00 153.95,35.00 154.59,35.00 155.22,35.00 155.87,35.00 156.52,35.00 157.16,35.00 157.80,35.00 158.45,35.00 159.09,35.00 159.74,35.00 160.39,35.00 161.04,35.00 161.68,35.00 162.33,35.00 162.97,35.00 163.62,35.00 164.27,35.00 164.91,35.00 165.56,35.00 166.21,35.00 166.85,35.00 167.49,35.00 168.14,35.00 168.78,35.00 169.43,35.00 170.08,35.00 170.73,35.00 171.38,35.00 172.02,35.00 172.68,35.00 173.32,35.00 173.96,35.00 174.61,35.00 175.26,35.00 175.92,35.00 176.57,35.00 177.22,35.00 177.86,35.00 178.51,35.00 179.15,35.00 179.79,35.00 180.44,35.00 181.08,35.00 181.72,35.00 182.36,35.00 183.02,35.00 183.66,35.00 184.31,35.00 184.96,35.00 185.62,35.00 186.26,35.00 186.91,35.00 187.55,35.00 188.19,35.00 188.90,35.00 189.56,35.00 190.20,35.00 190.84,35.00 191.48,35.00 192.13,35.00 192.77,35.00 193.42,35.00 194.07,35.00 194.71,35.00 195.36,35.00 196.00,35.00 196.67,35.00 197.31,35.00 197.95,35.00 198.60,35.00 199.25,35.00 199.91,35.00 200.57,35.00 201.21,35.00 201.86,35.00 202.51,35.00 203.15,35.00 203.80,35.00 204.44,35.00 205.10,35.00 205.74,35.00 206.38,35.00 207.04,35.00 207.68,35.00 208.33,35.00 208.98,35.00 209.63,35.00 210.28,35.00 210.92,35.00 211.56,35.00 212.20,35.00 212.85,35.00 213.50,35.00 214.14,35.00 214.79,35.00 215.42,35.00 216.07,35.00 216.72,35.00 217.37,35.00 218.02,35.00 218.67,35.00 219.32,35.00 219.97,35.00 220.61,35.00 221.26,35.00 221.91,35.00 222.55,35.00 223.20,35.00 223.86,35.00 224.51,35.00 225.16,35.00 225.81,35.00 226.45,35.00 227.10,35.00 227.74,35.00 228.38,35.00 229.03,35.00 229.68,35.00 230.33,35.00 230.97,35.00 231.63,35.00 232.27,35.00 232.92,35.00 233.57,35.00 234.22,35.00 234.87,35.00 235.51,35.00 236.16,35.00 236.81,35.00 237.46,35.00 238.11,35.00 238.75,35.00 239.47,35.00 240.12,35.00 240.77,35.00 241.42,35.00 242.07,35.00 242.72,35.00 243.37,35.00 244.01,35.00 244.66,35.00 245.32,35.00 245.98,35.00 246.62,35.00 247.26,35.00 247.91,35.00 248.56,35.00 249.21,35.00 249.88,35.00 250.52,35.00 251.17,35.00 251.82,35.00 252.52,35.00 253.17,35.00 253.98,35.00 255.08,35.00 255.74,35.00 256.40,35.00 257.04,35.00 257.68,35.00 258.32,35.00 258.98,35.00 259.62,35.00 260.28,35.00 260.95,35.00 261.62,35.00 262.30,35.00 262.95,35.00 263.60,35.00 264.25,35.00 264.90,35.00 265.56,35.00 266.21,35.00 266.85,35.00 267.50,35.00 268.17,35.00 268.82,35.00 269.46,35.00 270.11,35.00 270.77,35.00 271.44,35.00 272.09,35.00 272.74,35.00 273.40,35.00 274.02,35.00 274.66,35.00 275.32,35.00 275.97,35.00 276.62,35.00 277.29,35.00 277.94,35.00 278.58,35.00 279.24,35.00 279.89,35.00 280.54,35.00 281.18,35.00 281.83,35.00 282.48,35.00 283.13,35.00 283.77,35.00 284.54,35.00 285.30,35.00 286.06,35.00 286.82,35.00 287.56,35.00 288.30,35.00 289.07,35.00 289.82,35.00 290.47,35.00 291.11,35.00 291.75,35.00 292.40,35.00 293.04,35.00 293.69,35.00 294.33,35.00 294.97,35.00 295.62,35.00 296.26,35.00 296.91,35.00 297.55,35.00 298.20,35.00 298.84,35.00 299.48,35.00 300.13,35.00 300.77,35.00 301.41,35.00 302.06,35.00 302.71,35.00 303.35,35.00 303.99,35.00 304.64,35.00 305.28,35.00 305.93,35.00 306.58,35.00 307.22,35.00 307.87,35.00 308.51,35.00 309.16,35.00 309.80,35.00 310.45,35.00 311.09,35.00 311.73,35.00 312.37,35.00 313.01,35.00 313.65,35.00 314.29,35.00 314.94,35.00 315.58,35.00 316.22,35.00 316.87,35.00 317.51,35.00 318.14,35.00 318.78,35.00 319.45,35.00 320.14,35.00 320.79,35.00 321.44,35.00 322.08,35.00 322.72,35.00 323.36,35.00 324.00,35.00 324.65,35.00 325.41,35.00 326.17,35.00 326.92,35.00 327.68,35.00 328.44,35.00 329.19,35.00 329.96,35.00 330.75,35.00 331.45,35.00 332.14,35.00 332.79,35.00 333.44,35.00 334.09,35.00 334.73,35.00 335.37,35.00 336.02,35.00 336.66,35.00 337.31,35.00 337.95,35.00 338.60,35.00 339.24,35.00 339.89,35.00 340.54,35.00 341.18,35.00 341.83,35.00 342.39,35.00 343.06,35.00 343.71,35.00 344.37,35.00 345.01,35.00 345.65,35.00 346.31,35.00 346.96,35.00 347.61,35.00 348.26,35.00 348.91,35.00 349.57,35.00 350.21,35.00 350.85,35.00 351.49,35.00 352.13,35.00 352.78,35.00 353.42,35.00 354.07,35.00 354.71,35.00 355.36,35.00 356.01,35.00 356.65,35.00 357.30,35.00 357.94,35.00 358.59,35.00 359.24,35.00 359.89,35.00 360.53,35.00 361.18,35.00 361.83,35.00 362.50,35.00 363.14,35.00 363.78,35.00 364.43,35.00 365.06,35.00 365.71,35.00 366.36,35.00 367.00,35.00 367.65,35.00 368.29,35.00 368.93,35.00 369.58,35.00 370.23,35.00 370.88,35.00 371.52,35.00 372.30,35.00 372.97,35.00 373.63,35.00 374.28,35.00 374.93,35.00 375.58,35.00 376.22,35.00 376.86,35.00 377.52,35.00 378.17,35.00 378.81,35.00 379.46,35.00 380.11,35.00 380.76,35.00 381.42,35.00 382.08,35.00 382.73,35.00 383.38,35.00 384.02,35.00 384.67,35.00 385.31,35.00 385.96,35.00 386.63,35.00 387.28,35.00 387.93,35.00 388.58,35.00 389.22,35.00 389.87,35.00 390.52,35.00 391.16,35.00 391.81,35.00 392.46,35.00 393.11,35.00 393.76,35.00 394.40,35.00 395.05,35.00 395.69,35.00 396.35,35.00 397.00,35.00 397.64,35.00 398.28,35.00 398.93,35.00 399.59,35.00 400.24,35.00 401.01,35.00 401.68,35.00 402.33,35.00 402.97,35.00 403.62,35.00 404.27,35.00 404.91,35.00 405.56,35.00 406.22,35.00 406.86,35.00 407.51,35.00 408.15,35.00 408.80,35.00 409.44,35.00 410.09,35.00 410.74,35.00 411.38,35.00 412.03,35.00 412.67,35.00 413.32,35.00 413.97,35.00 414.62,35.00 415.26,35.00 415.91,35.00 416.57,35.00 417.21,35.00 417.86,35.00 418.50,35.00 419.17,35.00 419.81,35.00 420.46,35.00 421.11,35.00 421.76,35.00 422.40,35.00 423.05,35.00 423.70,35.00 424.36,35.00 425.01,35.00 425.65,35.00 426.29,35.00 426.94,35.00 427.58,35.00 428.23,35.00 428.88,35.00 429.53,35.00 430.18,35.00 430.83,35.00 431.47,35.00 432.12,35.00 432.76,35.00 433.41,35.00 434.06,35.00 434.71,35.00 435.35,35.00 436.00,35.00 436.65,35.00 437.30,35.00 437.95,35.00 438.60,35.00 439.25,35.00 439.90,35.00 440.55,35.00 441.28,35.00 441.99,35.00 442.68,35.00 443.33,35.00 444.01,35.00 444.66,35.00 445.31,35.00 445.95,35.00 446.55,35.00 447.23,35.00 447.87,35.00 448.53,35.00 449.17,35.00 449.81,35.00 450.46,35.00 451.11,35.00 451.75,35.00 452.40,35.00 453.05,35.00 453.70,35.00 454.35,35.00 455.00,35.00 455.65,35.00 456.30,35.00 456.95,35.00 457.60,35.00 458.25,35.00 458.91,35.00 459.56,35.00 460.20,35.00 460.84,35.00 461.49,35.00 462.14,35.00 462.78,35.00 463.43,35.00 464.08,35.00 464.74,35.00 465.38,35.00 466.02,35.00 466.67,35.00 467.32,35.00 467.97,35.00 468.62,35.00 469.27,35.00 469.92,35.00 470.57,35.00 471.22,35.00 471.87,35.00 472.52,35.00 473.17,35.00 473.82,35.00 474.47,35.00 475.11,35.00 475.77,35.00 476.44,35.00 477.08,35.00 477.74,35.00 478.38,35.00 479.03,35.00 479.68,35.00 480.33,35.00 480.98,35.00 481.63,35.00 482.27,35.00 482.92,35.00 483.57,35.00 484.22,35.00 484.88,35.00 485.53,35.00 486.18,35.00 486.83,35.00 487.48,35.00 488.14,35.00 488.79,35.00 489.43,35.00 490.08,35.00 490.73,35.00 491.39,35.00 492.04,35.00 492.70,35.00 493.35,35.00 493.99,35.00 494.64,35.00 495.29,35.00 495.94,35.00 496.59,35.00 497.24,35.00 497.88,35.00 498.53,35.00 499.18,35.00 499.83,35.00 500.48,35.00 501.13,35.00 501.79,35.00 502.43,35.00 503.09,35.00 503.73,35.00 504.38,35.00 505.02,35.00 505.67,35.00 506.32,35.00 506.97,35.00 507.62,35.00 508.27,35.00 508.92,35.00 509.57,35.00 510.22,35.00 510.88,35.00 511.52,35.00 512.17,35.00 512.83,35.00 513.48,35.00 514.13,35.00 514.78,35.00 515.44,35.00 516.09,35.00 516.74,35.00 517.40,35.00 518.05,35.00 518.71,35.00 519.35,35.00 520.00,35.00 520.65,35.00 521.31,35.00 521.96,35.00 522.61,35.00 523.26,35.00 523.91,35.00 524.55,35.00 525.22,35.00 525.86,35.00 526.52,35.00 527.17,35.00 527.81,35.00 528.46,35.00 529.10,35.00 529.75,35.00 530.40,35.00 531.05,35.00 531.70,35.00 532.34,35.00 533.00,35.00 533.64,35.00 534.31,35.00 534.96,35.00 535.61,35.00 536.26,35.00 536.90,35.00 537.55,35.00 538.20,35.00 538.86,35.00 539.50,35.00 540.15,35.00 540.80,35.00 541.45,35.00 542.10,35.00 542.75,35.00 543.41,35.00 544.08,35.00 544.73,35.00 545.38,35.00 546.04,35.00 546.69,35.00 547.34,35.00 547.98,35.00 548.63,35.00 549.27,35.00 549.93,35.00 550.58,35.00 551.24,35.00 551.89,35.00 552.54,35.00 553.22,35.00 553.87,35.00 554.52,35.00 555.17,35.00 555.82,35.00 556.47,35.00 557.12,35.00 557.78,35.00 558.43,35.00 559.09,35.00 559.74,35.00 560.39,35.00 561.04,35.00 561.69,35.00 562.34,35.00 562.99,35.00 563.64,35.00 564.29,35.00 564.95,35.00 565.60,35.00 566.25,35.00 566.90,35.00 567.55,35.00 568.20,35.00 568.86,35.00 569.51,35.00 570.18,35.00 570.83,35.00 571.49,35.00 572.14,35.00 572.80,35.00 573.47,35.00 574.13,35.00 574.79,35.00 575.46,35.00 576.11,35.00 576.76,35.00 577.41,35.00 578.06,35.00 578.72,35.00 579.37,35.00 580.04,35.00 580.68,35.00 581.34,35.00 581.99,35.00 582.63,35.00 583.28,35.00 583.94,35.00 584.58,35.00 585.23,35.00 585.88,35.00 586.53,35.00 587.18,35.00 587.82,35.00 588.47,35.00 589.12,35.00 589.77,35.00 590.42,35.00 591.08,35.00 591.73,35.00 592.38,35.00 593.03,35.00 593.68,35.00 594.33,35.00 594.98,35.00 595.62,35.00 596.28,35.00 596.93,35.00 597.57,35.00 598.21,35.00 598.86,35.00 599.51,35.00 600.16,35.00 600.81,35.00 601.46,35.00 602.11,35.00 602.76,35.00 603.41,35.00 604.06,35.00 604.71,35.00 605.35,35.00 605.99,35.00 606.63,35.00 607.28,35.00 607.93,35.00 608.59,35.00 609.24,35.00 609.89,35.00 610.54,35.00 611.20,35.00 611.85,35.00 612.50,35.00 613.16,35.00 613.81,35.00 614.45,35.00 615.11,35.00 615.76,35.00 616.42,35.00 617.07,35.00 617.72,35.00 618.37,35.00 619.02,35.00 619.66,35.00 620.31,35.00 620.96,35.00 621.60,35.00 622.25,35.00 622.90,35.00 623.55,35.00 624.20,35.00 624.84,35.00 625.49,35.00 626.14,35.00 626.80,35.00 627.45,35.00 628.10,35.00 628.75,35.00 629.40,35.00 630.05,35.00 630.70,35.00 631.35,35.00 632.00,35.00 632.65,35.00 633.29,35.00 633.95,35.00 634.60,35.00 635.25,35.00 635.89,35.00 636.54,35.00 637.21,35.00 637.86,35.00 638.52,35.00 639.18,35.00 639.83,35.00 640.48,35.00 641.14,35.00 641.79,35.00 642.44,35.00 643.09,35.00 643.74,35.00 644.41,35.00 645.06,35.00 645.71,35.00 646.36,35.00 647.01,35.00 647.66,35.00 648.31,35.00 648.96,35.00 649.60,35.00 650.26,35.00 650.90,35.00 651.55,35.00 652.20,35.00 652.85,35.00 653.50,35.00 654.14,35.00 654.79,35.00 655.44,35.00 656.09,35.00 656.75,35.00 657.40,35.00 658.04,35.00 658.69,35.00 659.34,35.00 659.98,35.00 660.64,35.00 661.29,35.00 661.95,35.00 662.60,35.00 663.24,35.00 663.89,35.00 664.54,35.00 665.19,35.00 665.83,35.00 666.49,35.00 667.16,35.00 667.82,35.00 668.48,35.00 669.14,35.00 669.81,35.00 670.47,35.00 671.14,35.00 671.81,35.00 672.47,35.00 673.14,35.00 673.79,35.00 674.43,35.00 675.09,35.00 675.75,35.00 676.39,35.00 677.05,35.00 677.70,35.00 678.35,35.00 679.00,35.00 679.65,35.00 680.30,35.00 680.95,35.00 681.60,35.00 682.24,35.00 682.89,35.00 683.54,35.00 684.20,35.00 684.84,35.00 685.50,35.00 686.16,35.00 686.81,35.00 687.45,35.00 688.10,35.00 688.75,35.00 689.40,35.00 690.06,35.00 690.70,35.00 691.35,35.00 692.01,35.00 692.65,35.00 693.30,35.00 693.96,35.00 694.60,35.00 695.26,35.00 695.95,35.00 696.62,35.00 697.27,35.00 697.92,35.00 698.56,35.00 699.22,35.00 699.88,35.00 700.54,35.00 701.19,35.00 701.83,35.00 702.47,35.00 703.12,35.00 703.77,35.00 704.42,35.00 705.07,35.00 705.72,35.00 706.37,35.00 707.03,35.00 707.68,35.00 708.33,35.00 708.98,35.00 709.62,35.00 710.28,35.00 710.93,35.00 711.57,35.00 712.22,35.00 712.88,35.00 713.53,35.00 714.18,35.00 714.86,35.00 715.51,35.00 716.16,35.00 716.81,35.00 717.46,35.00 718.11,35.00 718.76,35.00 719.42,35.00 720.06,35.00 720.71,35.00 721.37,35.00 722.03,35.00 722.68,35.00 723.34,35.00 723.98,35.00 724.63,35.00 725.28,35.00 725.93,35.00 726.58,35.00 727.23,35.00 727.89,35.00 728.54,35.00 729.19,35.00 729.84,35.00 730.49,35.00 731.14,35.00 731.79,35.00 732.43,35.00 733.08,35.00 733.73,35.00 734.39,35.00 735.03,35.00 735.68,35.00 736.33,35.00 736.99,35.00 737.64,35.00 738.29,35.00 738.94,35.00 739.58,35.00 740.22,35.00 740.87,35.00 741.53,35.00 742.18,35.00 742.84,35.00 743.49,35.00 744.15,35.00 744.80,35.00 745.45,35.00 746.11,35.00 746.81,35.00 747.47,35.00 748.13,35.00 748.78,35.00 749.44,35.00 750.09,35.00 750.74,35.00 751.39,35.00 752.04,35.00 752.69,35.00 753.35,35.00 753.99,35.00 754.65,35.00 755.31,35.00 755.96,35.00 756.62,35.00 757.27,35.00 757.92,35.00 758.57,35.00 759.22,35.00 759.87,35.00 760.52,35.00 761.18,35.00 761.83,35.00 762.48,35.00 763.13,35.00 763.78,35.00 764.44,35.00 765.10,35.00 765.75,35.00 766.40,35.00 767.05,35.00 767.70,35.00 768.36,35.00 769.00,35.00 769.65,35.00 770.30,35.00 770.95,35.00 771.60,35.00 772.25,35.00 772.90,35.00 773.55,35.00 774.20,35.00 774.86,35.00 775.50,35.00 776.16,35.00 776.81,35.00 777.47,35.00 778.12,35.00 778.75,35.00 779.39,35.00 780.04,35.00 780.69,35.00 781.34,35.00 782.00,35.00 782.65,35.00 783.30,35.00 783.96,35.00 784.62,35.00 785.26,35.00 785.92,35.00 786.56,35.00 787.21,35.00 787.85,35.00 788.50,35.00 789.15,35.00 789.80,35.00 790.45,35.00 791.09,35.00 791.74,35.00 792.39,35.00 793.05,35.00 793.70,35.00 794.34,35.00 794.99,35.00 795.62,35.00 796.28,35.00 796.93,35.00 797.58,35.00 798.24,35.00 798.90,35.00 799.54,35.00 800.19,35.00 800.84,35.00 801.49,35.00 802.14,35.00 802.79,35.00 803.49,35.00 804.14,35.00 804.80,35.00 805.45,35.00 806.11,35.00 806.75,35.00 807.40,35.00 808.06,35.00 808.70,35.00 809.35,35.00 810.00,35.00 810.65,35.00 811.30,35.00 811.96,35.00 812.61,35.00 813.26,35.00 813.91,35.00 814.56,35.00 815.21,35.00 815.87,35.00 816.52,35.00 817.18,35.00 817.84,35.00 818.50,35.00 819.15,35.00 819.80,35.00 820.45,35.00 821.11,35.00 821.76,35.00 822.40,35.00 823.05,35.00 823.70,35.00 824.35,35.00 825.01,35.00 825.66,35.00 826.31,35.00 826.96,35.00 827.61,35.00 828.26,35.00 828.91,35.00 829.55,35.00 830.21,35.00 830.85,35.00 831.50,35.00 832.16,35.00 832.80,35.00 833.44,35.00 834.09,35.00 834.74,35.00 835.38,35.00 836.03,35.00 836.68,35.00 837.33,35.00 837.97,35.00 838.62,35.00 839.27,35.00 839.92,35.00 840.57,35.00 841.21,35.00 841.86,35.00 842.50,35.00 843.17,35.00 843.81,35.00 844.46,35.00 845.11,35.00 845.79,35.00 846.43,35.00 847.09,35.00 847.74,35.00 848.39,35.00 849.05,35.00 849.70,35.00 850.35,35.00 851.00,35.00 851.65,35.00 852.29,35.00 852.94,35.00 853.59,35.00 854.24,35.00 854.89,35.00 855.54,35.00 856.19,35.00 856.84,35.00 857.48,35.00 858.13,35.00 858.79,35.00 859.47,35.00 860.12,35.00 860.76,35.00 861.40,35.00 862.05,35.00 862.71,35.00 863.36,35.00 864.01,35.00 864.66,35.00 865.31,35.00 865.96,35.00 866.61,35.00 867.26,35.00 867.91,35.00 868.56,35.00 869.21,35.00 869.87,35.00 870.51,35.00 871.16,35.00 871.81,35.00 872.45,35.00 873.10,35.00 873.75,35.00 874.40,35.00 875.05,35.00 875.70,35.00 876.35,35.00 877.00,35.00 877.65,35.00 878.30,35.00 878.94,35.00 879.59,35.00 880.24,35.00 880.90,35.00 881.54,35.00 882.19,35.00 882.84,35.00 883.49,35.00 884.13,35.00 884.78,35.00 885.44,35.00 886.08,35.00 886.75,35.00 887.40,35.00 888.04,35.00 888.69,35.00 889.35,35.00 890.00,35.00 890.66,35.00 891.31,35.00 892.00,35.00 892.66,35.00 893.36,35.00 894.00,35.00 894.65,35.00 895.29,35.00 895.94,35.00 896.59,35.00 897.24,35.00 897.89,35.00 898.54,35.00 899.19,35.00 899.84,35.00 900.49,35.00 901.14,35.00 901.78,35.00 902.43,35.00 903.08,35.00 903.73,35.00 904.37,35.00 905.03,35.00 905.68,35.00 906.33,35.00 906.98,35.00 907.62,35.00 908.27,35.00 908.92,35.00 909.58,35.00 910.23,35.00 910.87,35.00 911.53,35.00 912.18,35.00 912.82,35.00 913.47,35.00 914.12,35.00 914.76,35.00 915.41,35.00 916.06,35.00 916.70,35.00 917.34,35.00 918.00,35.00 918.64,35.00 919.29,35.00 919.95,35.00 920.62,35.00 921.27,35.00 921.92,35.00 922.57,35.00 923.21,35.00 923.85,35.00 924.50,35.00 925.15,35.00 925.80,35.00 926.44,35.00 927.09,35.00 927.73,35.00 928.38,35.00 929.03,35.00 929.68,35.00 930.32,35.00 930.97,35.00 931.63,35.00 932.27,35.00 932.92,35.00 933.57,35.00 934.22,35.00 934.87,35.00 935.52,35.00 936.17,35.00 936.81,35.00 937.47,35.00 938.12,35.00 938.78,35.00 939.42,35.00 940.07,35.00 940.72,35.00 941.37,35.00 942.02,35.00 942.69,35.00 943.34,35.00 943.99,35.00 944.65,35.00 945.29,35.00 945.94,35.00 946.59,35.00 947.24,35.00 947.90,35.00 948.55,35.00 949.19,35.00 949.84,35.00 950.49,35.00 951.15,35.00 951.80,35.00 952.46,35.00 953.13,35.00 953.81,35.00 954.47,35.00 955.12,35.00 955.77,35.00 956.41,35.00 957.07,35.00 957.71,35.00 958.36,35.00 959.02,35.00 959.67,35.00 960.32,35.00 960.97,35.00 961.61,35.00 962.26,35.00 962.91,35.00 963.57,35.00 964.23,35.00 964.89,35.00 965.55,35.00 966.20,35.00 966.88,35.00 967.54,35.00 968.23,35.00 968.88,35.00 969.53,35.00 970.18,35.00 970.83,35.00 971.48,35.00 972.13,35.00 972.78,35.00 973.43,35.00 974.07,35.00 974.73,35.00 975.39,35.00 976.04,35.00 976.69,35.00 977.35,35.00 978.11,35.00 978.76,35.00 979.40,35.00 980.05,35.00 980.70,35.00 981.34,35.00 981.98,35.00 982.58,35.00 983.17,35.00 983.87,35.00 984.48,35.00 985.07,35.00 985.74,35.00 986.30,35.00 986.94,35.00 987.59,35.00 988.25,35.00 988.89,35.00 989.54,35.00 990.18,35.00 990.83,35.00 991.47,35.00 992.13,35.00 992.78,35.00 993.42,35.00 994.07,35.00 994.72,35.00 995.36,35.00 996.01,35.00 996.65,35.00 997.30,35.00 997.94,35.00 998.58,35.00 999.23,35.00 999.88,35.00 1000.53,35.00 1001.19,35.00 1001.83,35.00 1002.47,35.00 1003.12,35.00 1003.76,35.00 1004.41,35.00 1005.05,35.00 1005.69,35.00 1006.34,35.00 1006.99,35.00 1007.63,35.00 1008.28,35.00 1008.93,35.00 1009.57,35.00 1010.22,35.00 1010.87,35.00 1011.52,35.00 1012.16,35.00 1012.81,35.00 1013.46,35.00 1014.11,35.00 1014.75,35.00 1015.39,35.00 1016.03,35.00 1016.68,35.00 1017.33,35.00 1017.97,35.00 1018.61,35.00 1019.27,35.00 1019.92,35.00 1020.57,35.00 1021.22,35.00 1021.86,35.00 1022.51,35.00 1023.17,35.00 1023.81,35.00 1024.46,35.00 1025.11,35.00 1025.76,35.00 1026.40,35.00 1027.05,35.00 1027.69,35.00 1028.34,35.00 1028.99,35.00 1029.64,35.00 1030.28,35.00 1030.93,35.00 1031.58,35.00 1032.22,35.00 1032.87,35.00 1033.52,35.00 1034.17,35.00 1034.81,35.00 1035.47,35.00 1036.11,35.00 1036.82,35.00 1037.47,35.00 1038.12,35.00 1038.76,35.00 1039.41,35.00 1040.06,35.00 1040.70,35.00 1041.35,35.00 1042.26,35.00 1042.91,35.00 1043.81,35.00 1044.45,35.00 1045.10,35.00 1045.75,35.00 1046.40,35.00 1047.05,35.00 1047.69,35.00 1048.33,35.00 1048.98,35.00 1049.63,35.00 1050.27,35.00 1050.91,35.00 1051.56,35.00 1052.22,35.00 1052.87,35.00 1053.51,35.00 1054.16,35.00 1054.81,35.00 1055.46,35.00 1056.12,35.00 1056.76,35.00 1057.41,35.00 1058.06,35.00 1058.70,35.00 1059.35,35.00 1060.00,35.00 1060.65,35.00 1061.30,35.00 1061.94,35.00 1062.59,35.00 1063.25,35.00 1063.91,35.00 1064.58,35.00 1065.23,35.00 1065.91,35.00 1066.55,35.00 1067.20,35.00 1067.86,35.00 1068.51,35.00 1069.15,35.00 1069.80,35.00 1070.45,35.00 1071.09,35.00 1071.75,35.00 1072.40,35.00 1073.06,35.00 1073.71,35.00 1074.36,35.00 1075.01,35.00 1075.66,35.00 1076.31,35.00 1076.96,35.00 1077.61,35.00 1078.26,35.00 1078.92,35.00 1079.57,35.00 1080.23,35.00 1080.88,35.00 1081.52,35.00 1082.17,35.00 1082.83,35.00 1083.47,35.00 1084.13,35.00 1084.79,35.00 1085.44,35.00 1086.09,35.00 1086.74,35.00 1087.39,35.00 1088.04,35.00 1088.69,35.00 1089.34,35.00 1089.99,35.00 1090.63,35.00 1091.28,35.00 1091.92,35.00 1092.57,35.00 1093.24,35.00 1093.90,35.00 1094.56,35.00 1095.20,35.00 1095.84,35.00 1096.50,35.00 1097.14,35.00 1097.79,35.00 1098.44,35.00 1099.09,35.00 1099.74,35.00 1100.39,35.00 1101.04,35.00 1101.70,35.00 1102.35,35.00 1102.99,35.00 1103.64,35.00 1104.29,35.00 1104.94,35.00 1105.60,35.00 1106.25,35.00 1106.90,35.00 1107.55,35.00 1108.21,35.00 1108.86,35.00 1109.50,35.00 1110.17,35.00 1110.81,35.00 1111.47,35.00 1112.13,35.00 1112.77,35.00 1113.42,35.00 1114.06,35.00 1114.71,35.00 1115.38,35.00 1116.03,35.00 1116.69,35.00 1117.35,35.00 1118.00,35.00 1118.65,35.00 1119.30,35.00 1119.95,35.00 1120.60,35.00 1121.26,35.00 1121.91,35.00 1122.56,35.00 1123.21,35.00 1123.86,35.00 1124.52,35.00 1125.16,35.00 1125.82,35.00 1126.47,35.00 1127.11,35.00 1127.77,35.00 1128.43,35.00 1129.09,35.00 1129.74,35.00 1130.40,35.00 1131.05,35.00 1131.70,35.00 1132.34,35.00 1132.99,35.00 1133.67,35.00 1134.32,35.00 1134.97,35.00 1135.63,35.00 1136.28,35.00 1136.92,35.00 1137.60,35.00 1138.25,35.00 1138.91,35.00 1139.56,35.00 1140.22,35.00 1140.88,35.00 1141.57,35.00 1142.21,35.00 1142.87,35.00 1143.52,35.00 1144.17,35.00 1144.82,35.00 1145.47,35.00 1146.12,35.00 1146.78,35.00 1147.43,35.00 1148.10,35.00 1148.75,35.00 1149.40,35.00 1150.05,35.00 1150.70,35.00 1151.35,35.00 1152.02,35.00 1152.67,35.00 1153.32,35.00 1153.97,35.00 1154.62,35.00 1155.27,35.00 1155.94,35.00 1156.59,35.00 1157.23,35.00 1157.88,35.00 1158.52,35.00 1159.17,35.00 1159.82,35.00 1160.46,35.00 1161.14,35.00 1161.78,35.00 1162.43,35.00 1163.08,35.00 1163.73,35.00 1164.37,35.00 1165.02,35.00 1165.67,35.00 1166.33,35.00 1166.98,35.00 1167.63,35.00 1168.27,35.00 1168.92,35.00 1169.57,35.00 1170.25,35.00 1170.89,35.00 1171.55,35.00 1172.20,35.00 1172.84,35.00 1173.49,35.00 1174.13,35.00 1174.78,35.00 1175.44,35.00 1176.12,35.00 1176.77,35.00 1177.42,35.00 1178.07,35.00 1178.71,35.00 1179.36,35.00 1180.00,35.00"/>
<polyline fill="none" stroke="#1f77b4" stroke-opacity="0.80" stroke-width="2" points="70.00,35.00 70.65,35.00 71.30,35.00 71.94,35.00 72.59,35.00 73.24,35.00 73.88,35.00 74.53,35.00 75.23,35.00 75.88,35.00 76.52,35.00 77.16,35.00 77.82,35.00 78.46,35.00 79.11,35.00 80.27,35.00 81.27,35.00 81.93,35.00 82.59,35.00 83.24,35.00 83.88,35.00 84.51,35.00 85.17,35.00 85.81,35.00 86.46,35.00 87.11,35.00 87.77,35.00 88.42,35.00 89.07,35.00 89.75,35.00 90.40,35.00 91.05,35.00 91.71,35.00 92.36,35.00 93.01,35.00 93.67,35.00 94.31,35.00 94.96,35.00 95.62,35.00 96.26,35.00 96.91,35.00 97.55,35.00 98.19,35.00 98.84,35.00 99.48,35.00 100.14,35.00 100.80,35.00 101.44,35.00 102.08,35.00 102.73,35.00 103.38,35.00 104.12,35.00 104.77,35.00 105.41,35.00 106.05,35.00 106.70,35.00 107.34,35.00 107.98,35.00 108.63,35.00 109.28,35.00 109.93,35.00 110.58,35.00 111.22,35.00 111.87,35.00 112.53,35.00 113.17,35.00 113.82,35.00 114.46,35.00 115.10,35.00 115.74,35.00 116.38,35.00 117.03,35.00 117.68,35.00 118.32,35.00 118.96,35.00 119.61,35.00 120.25,35.00 120.90,35.00 121.54,35.00 122.19,35.00 122.85,35.00 123.50,35.00 124.14,35.00 124.79,35.00 125.43,35.00 126.08,35.00 126.73,35.00 127.37,35.00 128.01,35.00 128.66,35.00 129.31,35.00 129.96,35.00 130.61,35.00 131.25,35.00 131.90,35.00 132.54,35.00 133.18,35.00 133.82,35.00 134.47,35.00 135.11,35.00 135.76,35.00 136.41,35.00 137.06,35.00 137.71,35.00 138.36,35.00 139.01,35.00 139.66,35.00 140.30,35.00 140.94,35.00 141.59,35.00 142.24,35.00 142.89,35.00 143.53,35.00 144.18,35.00 144.83,35.00 145.48,35.00 146.13,35.00 146.78,35.00 147.43,35.00 148.07,35.00 148.72,35.00 149.37,35.00 150.01,35.00 150.66,35.00 151.36,35.00 152.01,35.00 152.66,35.00 153.31,35.00 153.95,35.00 154.59,35.00 155.22,35.00 155.87,35.00 156.52,35.00 157.16,35.00 157.80,35.00 158.45,35.00 159.09,35.00 159.74,35.00 160.39,35.00 161.04,35.00 161.68,35.00 162.33,35.00 162.97,35.00 163.62,35.00 164.27,35.00 164.91,35.00 165.56,35.00 166.21,35.00 166.85,35.00 167.49,35.00 168.14,35.00 168.78,35.00 169.43,35.00 170.08,35.00 170.73,35.00 171.38,35.00 172.02,35.00 172.68,35.00 173.32,35.00 173.96,35.00 174.61,35.00 175.26,35.00 175.92,35.00 176.57,35.00 177.22,35.00 177.86,35.00 178.51,35.00 179.15,35.00 179.79,35.00 180.44,35.00 181.08,35.00 181.72,35.00 182.36,35.00 183.02,35.00 183.66,35.00 184.31,35.00 184.96,35.00 185.62,35.00 186.26,35.00 186.91,35.00 187.55,35.00 188.19,35.00 188.90,35.00 189.56,35.00 190.20,35.00 190.84,35.00 191.48,35.00 192.13,35.00 192.77,35.00 193.42,35.00 194.07,35.00 194.71,35.00 195.36,35.00 196.00,35.00 196.67,35.00 197.31,35.00 197.95,35.00 198.60,35.00 199.25,35.00 199.91,35.00 200.57,35.00 201.21,35.00 201.86,35.00 202.51,35.00 203.15,35.00 203.80,35.00 204.44,35.00 205.10,35.00 205.74,35.00 206.38,35.00 207.04,35.00 207.68,35.00 208.33,35.00 208.98,35.00 209.63,35.00 210.28,35.00 210.92,35.00 211.56,35.00 212.20,35.00 212.85,35.00 213.50,35.00 214.14,35.00 214.79,35.00 215.42,35.00 216.07,35.00 216.72,35.00 217.37,35.00 218.02,35.00 218.67,35.00 219.32,35.00 219.97,35.00 220.61,35.00 221.26,35.00 221.91,35.00 222.55,35.00 223.20,35.00 223.86,35.00 224.51,35.00 225.16,35.00 225.81,35.00 226.45,35.00 227.10,35.00 227.74,35.00 228.38,35.00 229.03,35.00 229.68,35.00 230.33,35.00 230.97,35.00 231.63,35.00 232.27,35.00 232.92,35.00 233.57,35.00 234.22,35.00 234.87,35.00 235.51,35.00 236.16,35.00 236.81,35.00 237.46,35.00 238.11,35.00 238.75,35.00 239.47,35.00 240.12,35.00 240.77,35.00 241.42,35.00 242.07,35.00 242.72,35.00 243.37,35.00 244.01,35.00 244.66,35.00 245.32,35.00 245.98,35.00 246.62,35.00 247.26,35.00 247.91,35.00 248.56,35.00 249.21,35.00 249.88,35.00 250.52,35.00 251.17,35.00 251.82,35.00 252.52,35.00 253.17,35.00 253.98,35.00 255.08,35.00 255.74,35.00 256.40,35.00 257.04,35.00 257.68,35.00 258.32,35.00 258.98,35.00 259.62,35.00 260.28,35.00 260.95,35.00 261.62,35.00 262.30,35.00 262.95,35.00 263.60,35.00 264.25,35.00 264.90,35.00 265.56,35.00 266.21,35.00 266.85,35.00 267.50,35.00 268.17,35.00 268.82,35.00 269.46,35.00 270.11,35.00 270.77,35.00 271.44,35.00 272.09,35.00 272.74,35.00 273.40,35.00 274.02,35.00 274.66,35.00 275.32,35.00 275.97,35.00 276.62,35.00 277.29,35.00 277.94,35.00 278.58,35.00 279.24,35.00 279.89,35.00 280.54,35.00 281.18,35.00 281.83,35.00 282.48,35.00 283.13,35.00 283.77,35.00 284.54,35.00 285.30,35.00 286.06,35.00 286.82,35.00 287.56,35.00 288.30,35.00 289.07,35.00 289.82,35.00 290.47,35.00 291.11,35.00 291.75,35.00 292.40,35.00 293.04,35.00 293.69,35.00 294.33,35.00 294.97,35.00 295.62,35.00 296.26,35.00 296.91,35.00 297.55,35.00 298.20,35.00 298.84,35.00 299.48,35.00 300.13,35.00 300.77,35.00 301.41,35.00 302.06,35.00 302.71,35.00 303.35,35.00 303.99,35.00 304.64,35.00 305.28,35.00 305.93,35.00 306.58,35.00 307.22,35.00 307.87,35.00 308.51,35.00 309.16,35.00 309.80,35.00 310.45,35.00 311.09,35.00 311.73,35.00 312.37,35.00 313.01,35.00 313.65,35.00 314.29,35.00 314.94,35.00 315.58,35.00 316.22,35.00 316.87,35.00 317.51,35.00 318.14,35.00 318.78,35.00 319.45,35.00 320.14,35.00 320.79,35.00 321.44,35.00 322.08,35.00 322.72,35.00 323.36,35.00 324.00,35.00 324.65,35.00 325.41,35.00 326.17,35.00 326.92,35.00 327.68,35.00 328.44,35.00 329.19,35.00 329.96,35.00 330.75,35.00 331.45,35.00 332.14,35.00 332.79,35.00 333.44,35.00 334.09,35.00 334.73,35.00 335.37,35.00 336.02,35.00 336.66,35.00 337.31,35.00 337.95,35.00 338.60,35.00 339.24,35.00 339.89,35.00 340.54,35.00 341.18,35.00 341.83,35.00 342.39,35.00 343.06,35.00 343.71,35.00 344.37,35.00 345.01,35.00 345.65,35.00 346.31,35.00 346.96,35.00 347.61,35.00 348.26,35.00 348.91,35.00 349.57,35.00 350.21,35.00 350.85,35.00 351.49,35.00 352.13,35.00 352.78,35.00 353.42,35.00 354.07,35.00 354.71,35.00 355.36,35.00 356.01,35.00 356.65,35.00 357.30,35.00 357.94,35.00 358.59,35.00 359.24,35.00 359.89,35.00 360.53,35.00 361.18,35.00 361.83,35.00 362.50,35.00 363.14,35.00 363.78,35.00 364.43,35.00 365.06,35.00 365.71,35.00 366.36,35.00 367.00,35.00 367.65,35.00 368.29,35.00 368.93,35.00 369.58,35.00 370.23,35.00 370.88,35.00 371.52,35.00 372.30,35.00 372.97,35.00 373.63,35.00 374.28,35.00 374.93,35.00 375.58,35.00 376.22,35.00 376.86,35.00 377.52,35.00 378.17,35.00 378.81,35.00 379.46,35.00 380.11,35.00 380.76,35.00 381.42,35.00 382.08,35.00 382.73,35.00 383.38,35.00 384.02,35.00 384.67,35.00 385.31,35.00 385.96,35.00 386.63,35.00 387.28,35.00 387.93,35.00 388.58,35.00 389.22,35.00 389.87,35.00 390.52,35.00 391.16,35.00 391.81,35.00 392.46,35.00 393.11,35.00 393.76,35.00 394.40,35.00 395.05,35.00 395.69,35.00 396.35,35.00 397.00,35.00 397.64,35.00 398.28,35.00 398.93,35.00 399.59,35.00 400.24,35.00 401.01,35.00 401.68,35.00 402.33,35.00 402.97,35.00 403.62,35.00 404.27,35.00 404.91,35.00 405.56,35.00 406.22,35.00 406.86,35.00 407.51,35.00 408.15,35.00 408.80,35.00 409.44,35.00 410.09,35.00 410.74,35.00 411.38,35.00 412.03,35.00 412.67,35.00 413.32,35.00 413.97,35.00 414.62,35.00 415.26,35.00 415.91,35.00 416.57,35.00 417.21,35.00 417.86,35.00 418.50,35.00 419.17,35.00 419.81,35.00 420.46,35.00 421.11,35.00 421.76,35.00 422.40,35.00 423.05,35.00 423.70,35.00 424.36,35.00 425.01,35.00 425.65,35.00 426.29,35.00 426.94,35.00 427.58,35.00 428.23,35.00 428.88,35.00 429.53,35.00 430.18,35.00 430.83,35.00 431.47,35.00 432.12,35.00 432.76,35.00 433.41,35.00 434.06,35.00 434.71,35.00 435.35,35.00 436.00,35.00 436.65,35.00 437.30,35.00 437.95,35.00 438.60,35.00 439.25,35.00 439.90,35.00 440.55,35.00 441.28,35.00 441.99,35.00 442.68,35.00 443.33,35.00 444.01,35.00 444.66,35.00 445.31,35.00 445.95,35.00 446.55,35.00 447.23,35.00 447.87,35.00 448.53,35.00 449.17,35.00 449.81,35.00 450.46,35.00 451.11,35.00 451.75,35.00 452.40,35.00 453.05,35.00 453.70,35.00 454.35,35.00 455.00,35.00 455.65,35.00 456.30,35.00 456.95,35.00 457.60,35.00 458.25,35.00 458.91,35.00 459.56,35.00 460.20,35.00 460.84,35.00 461.49,35.00 462.14,35.00 462.78,35.00 463.43,35.00 464.08,35.00 464.74,35.00 465.38,35.00 466.02,35.00 466.67,35.00 467.32,35.00 467.97,35.00 468.62,35.00 469.27,35.00 469.92,35.00 470.57,35.00 471.22,35.00 471.87,35.00 472.52,35.00 473.17,35.00 473.82,35.00 474.47,35.00 475.11,35.00 475.77,35.00 476.44,35.00 477.08,35.00 477.74,35.00 478.38,35.00 479.03,35.00 479.68,35.00 480.33,35.00 480.98,35.00 481.63,35.00 482.27,35.00 482.92,35.00 483.57,35.00 484.22,35.00 484.88,35.00 485.53,35.00 486.18,35.00 486.83,35.00 487.48,35.00 488.14,35.00 488.79,35.00 489.43,35.00 490.08,35.00 490.73,35.00 491.39,35.00 492.04,35.00 492.70,35.00 493.35,35.00 493.99,35.00 494.64,35.00 495.29,35.00 495.94,35.00 496.59,35.00 497.24,35.00 497.88,35.00 498.53,35.00 499.18,35.00 499.83,35.00 500.48,35.00 501.13,35.00 501.79,35.00 502.43,35.00 503.09,35.00 503.73,35.00 504.38,35.00 505.02,35.00 505.67,35.00 506.32,35.00 506.97,35.00 507.62,35.00 508.27,35.00 508.92,35.00 509.57,35.00 510.22,35.00 510.88,35.00 511.52,35.00 512.17,35.00 512.83,35.00 513.48,35.00 514.13,35.00 514.78,35.00 515.44,35.00 516.09,35.00 516.74,35.00 517.40,35.00 518.05,35.00 518.71,35.00 519.35,35.00 520.00,35.00 520.65,35.00 521.31,35.00 521.96,35.00 522.61,35.00 523.26,35.00 523.91,35.00 524.55,35.00 525.22,35.00 525.86,35.00 526.52,35.00 527.17,35.00 527.81,35.00 528.46,35.00 529.10,35.00 529.75,35.00 530.40,35.00 531.05,35.00 531.70,35.00 532.34,35.00 533.00,35.00 533.64,35.00 534.31,35.00 534.96,35.00 535.61,35.00 536.26,35.00 536.90,35.00 537.55,35.00 538.20,35.00 538.86,35.00 539.50,35.00 540.15,35.00 540.80,35.00 541.45,35.00 542.10,35.00 542.75,35.00 543.41,35.00 544.08,35.00 544.73,35.00 545.38,35.00 546.04,35.00 546.69,35.00 547.34,35.00 547.98,35.00 548.63,35.00 549.27,35.00 549.93,35.00 550.58,35.00 551.24,35.00 551.89,35.00 552.54,35.00 553.22,35.00 553.87,35.00 554.52,35.00 555.17,35.00 555.82,35.00 556.47,35.00 557.12,35.00 557.78,35.00 558.43,35.00 559.09,35.00 559.74,35.00 560.39,35.00 561.04,35.00 561.69,35.00 562.34,35.00 562.99,35.00 563.64,35.00 564.29,35.00 564.95,35.00 565.60,35.00 566.25,35.00 566.90,35.00 567.55,35.00 568.20,35.00 568.86,35.00 569.51,35.00 570.18,35.00 570.83,35.00 571.49,35.00 572.14,35.00 572.80,35.00 573.47,35.00 574.13,35.00 574.79,35.00 575.46,35.00 576.11,35.00 576.76,35.00 577.41,35.00 578.06,35.00 578.72,35.00 579.37,35.00 580.04,35.00 580.68,35.00 581.34,35.00 581.99,35.00 582.63,35.00 583.28,35.00 583.94,35.00 584.58,35.00 585.23,35.00 585.88,35.00 586.53,35.00 587.18,35.00 587.82,35.00 588.47,35.00 589.12,35.00 589.77,35.00 590.42,35.00 591.08,35.00 591.73,35.00 592.38,35.00 593.03,35.00 593.68,35.00 594.33,35.00 594.98,35.00 595.62,35.00 596.28,35.00 596.93,35.00 597.57,35.00 598.21,35.00 598.86,35.00 599.51,35.00 600.16,35.00 600.81,35.00 601.46,35.00 602.11,35.00 602.76,35.00 603.41,35.00 604.06,35.00 604.71,35.00 605.35,35.00 605.99,35.00 606.63,35.00 607.28,35.00 607.93,35.00 608.59,35.00 609.24,35.00 609.89,35.00 610.54,35.00 611.20,35.00 611.85,35.00 612.50,35.00 613.16,35.00 613.81,35.00 614.45,35.00 615.11,35.00 615.76,35.00 616.42,35.00 617.07,35.00 617.72,35.00 618.37,35.00 619.02,35.00 619.66,35.00 620.31,35.00 620.96,35.00 621.60,35.00 622.25,35.00 622.90,35.00 623.55,35.00 624.20,35.00 624.84,35.00 625.49,35.00 626.14,35.00 626.80,35.00 627.45,35.00 628.10,35.00 628.75,35.00 629.40,35.00 630.05,35.00 630.70,35.00 631.35,35.00 632.00,35.00 632.65,35.00 633.29,35.00 633.95,35.00 634.60,35.00 635.25,35.00 635.89,35.00 636.54,35.00 637.21,35.00 637.86,35.00 638.52,35.00 639.18,35.00 639.83,35.00 640.48,35.00 641.14,35.00 641.79,35.00 642.44,35.00 643.09,35.00 643.74,35.00 644.41,35.00 645.06,35.00 645.71,35.00 646.36,35.00 647.01,35.00 647.66,35.00 648.31,35.00 648.96,35.00 649.60,35.00 650.26,35.00 650.90,35.00 651.55,35.00 652.20,35.00 652.85,35.00 653.50,35.00 654.14,35.00 654.79,35.00 655.44,35.00 656.09,35.00 656.75,35.00 657.40,35.00 658.04,35.00 658.69,35.00 659.34,35.00 659.98,35.00 660.64,35.00 661.29,35.00 661.95,35.00 662.60,35.00 663.24,35.00 663.89,35.00 664.54,35.00 665.19,35.00 665.83,35.00 666.49,35.00 667.16,35.00 667.82,35.00 668.48,35.00 669.14,35.00 669.81,35.00 670.47,35.00 671.14,35.00 671.81,35.00 672.47,35.00 673.14,35.00 673.79,35.00 674.43,35.00 675.09,35.00 675.75,35.00 676.39,35.00 677.05,35.00 677.70,35.00 678.35,35.00 679.00,35.00 679.65,35.00 680.30,35.00 680.95,35.00 681.60,35.00 682.24,35.00 682.89,35.00 683.54,35.00 684.20,35.00 684.84,35.00 685.50,35.00 686.16,35.00 686.81,35.00 687.45,35.00 688.10,35.00 688.75,35.00 689.40,35.00 690.06,35.00 690.70,35.00 691.35,35.00 692.01,35.00 692.65,35.00 693.30,35.00 693.96,35.00 694.60,35.00 695.26,35.00 695.95,35.00 696.62,35.00 697.27,35.00 697.92,35.00 698.56,35.00 699.22,35.00 699.88,35.00 700.54,35.00 701.19,35.00 701.83,35.00 702.47,35.00 703.12,35.00 703.77,35.00 704.42,35.00 705.07,35.00 705.72,35.00 706.37,35.00 707.03,35.00 707.68,35.00 708.33,35.00 708.98,35.00 709.62,35.00 710.28,35.00 710.93,35.00 711.57,35.00 712.22,35.00 712.88,35.00 713.53,35.00 714.18,35.00 714.86,35.00 715.51,35.00 716.16,35.00 716.81,35.00 717.46,35.00 718.11,35.00 718.76,35.00 719.42,35.00 720.06,35.00 720.71,35.00 721.37,35.00 722.03,35.00 722.68,35.00 723.34,35.00 723.98,35.00 724.63,35.00 725.28,35.00 725.93,35.00 726.58,35.00 727.23,35.00 727.89,35.00 728.54,35.00 729.19,35.00 729.84,35.00 730.49,35.00 731.14,35.00 731.79,35.00 732.43,35.00 733.08,35.00 733.73,35.00 734.39,35.00 735.03,35.00 735.68,35.00 736.33,35.00 736.99,35.00 737.64,35.00 738.29,35.00 738.94,35.00 739.58,35.00 740.22,35.00 740.87,35.00 741.53,35.00 742.18,35.00 742.84,35.00 743.49,35.00 744.15,35.00 744.80,35.00 745.45,35.00 746.11,35.00 746.81,35.00 747.47,35.00 748.13,35.00 748.78,35.00 749.44,35.00 750.09,35.00 750.74,35.00 751.39,35.00 752.04,35.00 752.69,35.00 753.35,35.00 753.99,35.00 754.65,35.00 755.31,35.00 755.96,35.00 756.62,35.00 757.27,35.00 757.92,35.00 758.57,35.00 759.22,35.00 759.87,35.00 760.52,35.00 761.18,35.00 761.83,35.00 762.48,35.00 763.13,35.00 763.78,35.00 764.44,35.00 765.10,35.00 765.75,35.00 766.40,35.00 767.05,35.00 767.70,35.00 768.36,35.00 769.00,35.00 769.65,35.00 770.30,35.00 770.95,35.00 771.60,35.00 772.25,35.00 772.90,35.00 773.55,35.00 774.20,35.00 774.86,35.00 775.50,35.00 776.16,35.00 776.81,35.00 777.47,35.00 778.12,35.00 778.75,35.00 779.39,35.00 780.04,35.00 780.69,35.00 781.34,35.00 782.00,35.00 782.65,35.00 783.30,35.00 783.96,35.00 784.62,35.00 785.26,35.00 785.92,35.00 786.56,35.00 787.21,35.00 787.85,35.00 788.50,35.00 789.15,35.00 789.80,35.00 790.45,35.00 791.09,35.00 791.74,35.00 792.39,35.00 793.05,35.00 793.70,35.00 794.34,35.00 794.99,35.00 795.62,35.00 796.28,35.00 796.93,35.00 797.58,35.00 798.24,35.00 798.90,35.00 799.54,35.00 800.19,35.00 800.84,35.00 801.49,35.00 802.14,35.00 802.79,35.00 803.49,35.00 804.14,35.00 804.80,35.00 805.45,35.00 806.11,35.00 806.75,35.00 807.40,35.00 808.06,35.00 808.70,35.00 809.35,35.00 810.00,35.00 810.65,35.00 811.30,35.00 811.96,35.00 812.61,35.00 813.26,35.00 813.91,35.00 814.56,35.00 815.21,35.00 815.87,35.00 816.52,35.00 817.18,35.00 817.84,35.00 818.50,35.00 819.15,35.00 819.80,35.00 820.45,35.00 821.11,35.00 821.76,35.00 822.40,35.00 823.05,35.00 823.70,35.00 824.35,35.00 825.01,35.00 825.66,35.00 826.31,35.00 826.96,35.00 827.61,35.00 828.26,35.00 828.91,35.00 829.55,35.00 830.21,35.00 830.85,35.00 831.50,35.00 832.16,35.00 832.80,35.00 833.44,35.00 834.09,35.00 834.74,35.00 835.38,35.00 836.03,35.00 836.68,35.00 837.33,35.00 837.97,35.00 838.62,35.00 839.27,35.00 839.92,35.00 840.57,35.00 841.21,35.00 841.86,35.00 842.50,35.00 843.17,35.00 843.81,35.00 844.46,35.00 845.11,35.00 845.79,35.00 846.43,35.00 847.09,35.00 847.74,35.00 848.39,35.00 849.05,35.00 849.70,35.00 850.35,35.00 851.00,35.00 851.65,35.00 852.29,35.00 852.94,35.00 853.59,35.00 854.24,35.00 854.89,35.00 855.54,35.00 856.19,35.00 856.84,35.00 857.48,35.00 858.13,35.00 858.79,35.00 859.47,35.00 860.12,35.00 860.76,35.00 861.40,35.00 862.05,35.00 862.71,35.00 863.36,35.00 864.01,35.00 864.66,35.00 865.31,35.00 865.96,35.00 866.61,35.00 867.26,35.00 867.91,35.00 868.56,35.00 869.21,35.00 869.87,35.00 870.51,35.00 871.16,35.00 871.81,35.00 872.45,35.00 873.10,35.00 873.75,35.00 874.40,35.00 875.05,35.00 875.70,35.00 876.35,35.00 877.00,35.00 877.65,35.00 878.30,35.00 878.94,35.00 879.59,35.00 880.24,35.00 880.90,35.00 881.54,35.00 882.19,35.00 882.84,35.00 883.49,35.00 884.13,35.00 884.78,35.00 885.44,35.00 886.08,35.00 886.75,35.00 887.40,35.00 888.04,35.00 888.69,35.00 889.35,35.00 890.00,35.00 890.66,35.00 891.31,35.00 892.00,35.00 892.66,35.00 893.36,35.00 894.00,35.00 894.65,35.00 895.29,35.00 895.94,35.00 896.59,35.00 897.24,35.00 897.89,35.00 898.54,35.00 899.19,35.00 899.84,35.00 900.49,35.00 901.14,35.00 901.78,35.00 902.43,35.00 903.08,35.00 903.73,35.00 904.37,35.00 905.03,35.00 905.68,35.00 906.33,35.00 906.98,35.00 907.62,35.00 908.27,35.00 908.92,35.00 909.58,35.00 910.23,35.00 910.87,35.00 911.53,35.00 912.18,35.00 912.82,35.00 913.47,35.00 914.12,35.00 914.76,35.00 915.41,35.00 916.06,35.00 916.70,35.00 917.34,35.00 918.00,35.00 918.64,35.00 919.29,35.00 919.95,35.00 920.62,35.00 921.27,35.00 921.92,35.00 922.57,35.00 923.21,35.00 923.85,35.00 924.50,35.00 925.15,35.00 925.80,35.00 926.44,35.00 927.09,35.00 927.73,35.00 928.38,35.00 929.03,35.00 929.68,35.00 930.32,35.00 930.97,35.00 931.63,35.00 932.27,35.00 932.92,35.00 933.57,35.00 934.22,35.00 934.87,35.00 935.52,35.00 936.17,35.00 936.81,35.00 937.47,35.00 938.12,35.00 938.78,35.00 939.42,35.00 940.07,35.00 940.72,35.00 941.37,35.00 942.02,35.00 942.69,35.00 943.34,35.00 943.99,35.00 944.65,35.00 945.29,35.00 945.94,35.00 946.59,35.00 947.24,35.00 947.90,35.00 948.55,35.00 949.19,35.00 949.84,35.00 950.49,35.00 951.15,35.00 951.80,35.00 952.46,35.00 953.13,35.00 953.81,35.00 954.47,35.00 955.12,35.00 955.77,35.00 956.41,35.00 957.07,35.00 957.71,35.00 958.36,35.00 959.02,35.00 959.67,35.00 960.32,35.00 960.97,35.00 961.61,35.00 962.26,35.00 962.91,35.00 963.57,35.00 964.23,35.00 964.89,35.00 965.55,35.00 966.20,35.00 966.88,35.00 967.54,35.00 968.23,35.00 968.88,35.00 969.53,35.00 970.18,35.00 970.83,35.00 971.48,35.00 972.13,35.00 972.78,35.00 973.43,35.00 974.07,35.00 974.73,35.00 975.39,35.00 976.04,35.00 976.69,35.00 977.35,35.00 978.11,35.00 978.76,35.00 979.40,35.00 980.05,35.00 980.70,35.00 981.34,35.00 981.98,35.00 982.58,35.00 983.17,35.00 983.87,35.00 984.48,35.00 985.07,35.00 985.74,35.00 986.30,35.00 986.94,35.00 987.59,35.00 988.25,35.00 988.89,35.00 989.54,35.00 990.18,35.00 990.83,35.00 991.47,35.00 992.13,35.00 992.78,35.00 993.42,35.00 994.07,35.00 994.72,35.00 995.36,35.00 996.01,35.00 996.65,35.00 997.30,35.00 997.94,35.00 998.58,35.00 999.23,35.00 999.88,35.00 1000.53,35.00 1001.19,35.00 1001.83,35.00 1002.47,35.00 1003.12,35.00 1003.76,35.00 1004.41,35.00 1005.05,35.00 1005.69,35.00 1006.34,35.00 1006.99,35.00 1007.63,35.00 1008.28,35.00 1008.93,35.00 1009.57,35.00 1010.22,35.00 1010.87,35.00 1011.52,35.00 1012.16,35.00 1012.81,35.00 1013.46,35.00 1014.11,35.00 1014.75,35.00 1015.39,35.00 1016.03,35.00 1016.68,35.00 1017.33,35.00 1017.97,35.00 1018.61,35.00 1019.27,35.00 1019.92,35.00 1020.57,35.00 1021.22,35.00 1021.86,35.00 1022.51,35.00 1023.17,35.00 1023.81,35.00 1024.46,35.00 1025.11,35.00 1025.76,35.00 1026.40,35.00 1027.05,35.00 1027.69,35.00 1028.34,35.00 1028.99,35.00 1029.64,35.00 1030.28,35.00 1030.93,35.00 1031.58,35.00 1032.22,35.00 1032.87,35.00 1033.52,35.00 1034.17,35.00 1034.81,35.00 1035.47,35.00 1036.11,35.00 1036.82,35.00 1037.47,35.00 1038.12,35.00 1038.76,35.00 1039.41,35.00 1040.06,35.00 1040.70,35.00 1041.35,35.00 1042.26,35.00 1042.91,35.00 1043.81,35.00 1044.45,35.00 1045.10,35.00 1045.75,35.00 1046.40,35.00 1047.05,35.00 1047.69,35.00 1048.33,35.00 1048.98,35.00 1049.63,35.00 1050.27,35.00 1050.91,35.00 1051.56,35.00 1052.22,35.00 1052.87,35.00 1053.51,35.00 1054.16,35.00 1054.81,35.00 1055.46,35.00 1056.12,35.00 1056.76,35.00 1057.41,35.00 1058.06,35.00 1058.70,35.00 1059.35,35.00 1060.00,35.00 1060.65,35.00 1061.30,35.00 1061.94,35.00 1062.59,35.00 1063.25,35.00 1063.91,35.00 1064.58,35.00 1065.23,35.00 1065.91,35.00 1066.55,35.00 1067.20,35.00 1067.86,35.00 1068.51,35.00 1069.15,35.00 1069.80,35.00 1070.45,35.00 1071.09,35.00 1071.75,35.00 1072.40,35.00 1073.06,35.00 1073.71,35.00 1074.36,35.00 1075.01,35.00 1075.66,35.00 1076.31,35.00 1076.96,35.00 1077.61,35.00 1078.26,35.00 1078.92,35.00 1079.57,35.00 1080.23,35.00 1080.88,35.00 1081.52,35.00 1082.17,35.00 1082.83,35.00 1083.47,35.00 1084.13,35.00 1084.79,35.00 1085.44,35.00 1086.09,35.00 1086.74,35.00 1087.39,35.00 1088.04,35.00 1088.69,35.00 1089.34,35.00 1089.99,35.00 1090.63,35.00 1091.28,35.00 1091.92,35.00 1092.57,35.00 1093.24,35.00 1093.90,35.00 1094.56,35.00 1095.20,35.00 1095.84,35.00 1096.50,35.00 1097.14,35.00 1097.79,35.00 1098.44,35.00 1099.09,35.00 1099.74,35.00 1100.39,35.00 1101.04,35.00 1101.70,35.00 1102.35,35.00 1102.99,35.00 1103.64,35.00 1104.29,35.00 1104.94,35.00 1105.60,35.00 1106.25,35.00 1106.90,35.00 1107.55,35.00 1108.21,35.00 1108.86,35.00 1109.50,35.00 1110.17,35.00 1110.81,35.00 1111.47,35.00 1112.13,35.00 1112.77,35.00 1113.42,35.00 1114.06,35.00 1114.71,35.00 1115.38,35.00 1116.03,35.00 1116.69,35.00 1117.35,35.00 1118.00,35.00 1118.65,35.00 1119.30,35.00 1119.95,35.00 1120.60,35.00 1121.26,35.00 1121.91,35.00 1122.56,35.00 1123.21,35.00 1123.86,35.00 1124.52,35.00 1125.16,35.00 1125.82,35.00 1126.47,35.00 1127.11,35.00 1127.77,35.00 1128.43,35.00 1129.09,35.00 1129.74,35.00 1130.40,35.00 1131.05,35.00 1131.70,35.00 1132.34,35.00 1132.99,35.00 1133.67,35.00 1134.32,35.00 1134.97,35.00 1135.63,35.00 1136.28,35.00 1136.92,35.00 1137.60,35.00 1138.25,35.00 1138.91,35.00 1139.56,35.00 1140.22,35.00 1140.88,35.00 1141.57,35.00 1142.21,35.00 1142.87,35.00 1143.52,35.00 1144.17,35.00 1144.82,35.00 1145.47,35.00 1146.12,35.00 1146.78,35.00 1147.43,35.00 1148.10,35.00 1148.75,35.00 1149.40,35.00 1150.05,35.00 1150.70,35.00 1151.35,35.00 1152.02,35.00 1152.67,35.00 1153.32,35.00 1153.97,35.00 1154.62,35.00 1155.27,35.00 1155.94,35.00 1156.59,35.00 1157.23,35.00 1157.88,35.00 1158.52,35.00 1159.17,35.00 1159.82,35.00 1160.46,35.00 1161.14,35.00 1161.78,35.00 1162.43,35.00 1163.08,35.00 1163.73,35.00 1164.37,35.00 1165.02,35.00 1165.67,35.00 1166.33,35.00 1166.98,35.00 1167.63,35.00 1168.27,35.00 1168.92,35.00 1169.57,35.00 1170.25,35.00 1170.89,35.00 1171.55,35.00 1172.20,35.00 1172.84,35.00 1173.49,35.00 1174.13,35.00 1174.78,35.00 1175.44,35.00 1176.12,35.00 1176.77,35.00 1177.42,35.00 1178.07,35.00 1178.71,35.00 1179.36,35.00 1180.00,35.00"/>
<polyline fill="none" stroke="#1f77b4" stroke-opacity="0.65" stroke-width="2" points="70.00,35.00 70.65,35.00 71.30,35.00 71.94,35.00 72.59,35.00 73.24,35.00 73.88,35.00 74.53,35.00 75.23,35.00 75.88,35.00 76.52,35.00 77.16,35.00 77.82,35.00 78.46,35.00 79.11,35.00 80.27,35.00 81.27,35.00 81.93,35.00 82.59,35.00 83.24,35.00 83.88,35.00 84.51,35.00 85.17,35.00 85.81,35.00 86.46,35.00 87.11,35.00 87.77,35.00 88.42,35.00 89.07,35.00 89.75,35.00 90.40,35.00 91.05,35.00 91.71,35.00 92.36,35.00 93.01,35.00 93.67,35.00 94.31,35.00 94.96,35.00 95.62,35.00 96.26,35.00 96.91,35.00 97.55,35.00 98.19,35.00 98.84,35.00 99.48,35.00 100.14,35.00 100.80,35.00 101.44,35.00 102.08,35.00 102.73,35.00 103.38,35.00 104.12,35.00 104.77,35.00 105.41,35.00 106.05,35.00 106.70,35.00 107.34,35.00 107.98,35.00 108.63,35.00 109.28,35.00 109.93,35.00 110.58,35.00 111.22,35.00 111.87,35.00 112.53,35.00 113.17,35.00 113.82,35.00 114.46,35.00 115.10,35.00 115.74,35.00 116.38,35.00 117.03,35.00 117.68,35.00 118.32,35.00 118.96,35.00 119.61,35.00 120.25,35.00 120.90,35.00 121.54,35.00 122.19,35.00 122.85,35.00 123.50,35.00 124.14,35.00 124.79,35.00 125.43,35.00 126.08,35.00 126.73,35.00 127.37,35.00 128.01,35.00 128.66,35.00 129.31,35.00 129.96,35.00 130.61,35.00 131.25,35.00 131.90,35.00 132.54,35.00 133.18,35.00 133.82,35.00 134.47,35.00 135.11,35.00 135.76,35.00 136.41,35.00 137.06,35.00 137.71,35.00 138.36,35.00 139.01,35.00 139.66,35.00 140.30,35.00 140.94,35.00 141.59,35.00 142.24,35.00 142.89,35.00 143.53,35.00 144.18,35.00 144.83,35.00 145.48,35.00 146.13,35.00 146.78,35.00 147.43,35.00 148.07,35.00 148.72,35.00 149.37,35.00 150.01,35.00 150.66,35.00 151.36,35.00 152.01,35.00 152.66,35.00 153.31,35.00 153.95,35.00 154.59,35.00 155.22,35.00 155.87,35.00 156.52,35.00 157.16,35.00 157.80,35.00 158.45,35.00 159.09,35.00 159.74,35.00 160.39,35.00 161.04,35.00 161.68,35.00 162.33,35.00 162.97,35.00 163.62,35.00 164.27,35.00 164.91,35.00 165.56,35.00 166.21,35.00 166.85,35.00 167.49,35.00 168.14,35.00 168.78,35.00 169.43,35.00 170.08,35.00 170.73,35.00 171.38,35.00 172.02,35.00 172.68,35.00 173.32,35.00 173.96,35.00 174.61,35.00 175.26,35.00 175.92,35.00 176.57,35.00 177.22,35.00 177.86,35.00 178.51,35.00 179.15,35.00 179.79,35.00 180.44,35.00 181.08,35.00 181.72,35.00 182.36,35.00 183.02,35.00 183.66,35.00 184.31,35.00 184.96,35.00 185.62,35.00 186.26,35.00 186.91,35.00 187.55,35.00 188.19,35.00 188.90,35.00 189.56,35.00 190.20,35.00 190.84,35.00 191.48,35.00 192.13,35.00 192.77,35.00 193.42,35.00 194.07,35.00 194.71,35.00 195.36,35.00 196.00,35.00 196.67,35.00 197.31,35.00 197.95,35.00 198.60,35.00 199.25,35.00 199.91,35.00 200.57,35.00 201.21,35.00 201.86,35.00 202.51,35.00 203.15,35.00 203.80,35.00 204.44,35.00 205.10,35.00 205.74,35.00 206.38,35.00 207.04,35.00 207.68,35.00 208.33,35.00 208.98,35.00 209.63,35.00 210.28,35.00 210.92,35.00 211.56,35.00 212.20,35.00 212.85,35.00 213.50,35.00 214.14,35.00 214.79,35.00 215.42,35.00 216.07,35.00 216.72,35.00 217.37,35.00 218.02,35.00 218.67,35.00 219.32,35.00 219.97,35.00 220.61,35.00 221.26,35.00 221.91,35.00 222.55,35.00 223.20,35.00 223.86,35.00 224.51,35.00 225.16,35.00 225.81,35.00 226.45,35.00 227.10,35.00 227.74,35.00 228.38,35.00 229.03,35.00 229.68,35.00 230.33,35.00 230.97,35.00 231.63,35.00 232.27,35.00 232.92,35.00 233.57,35.00 234.22,35.00 234.87,35.00 235.51,35.00 236.16,35.00 236.81,35.00 237.46,35.00 238.11,35.00 238.75,35.00 239.47,35.00 240.12,35.00 240.77,35.00 241.42,35.00 242.07,35.00 242.72,35.00 243.37,35.00 244.01,35.00 244.66,35.00 245.32,35.00 245.98,35.00 246.62,35.00 247.26,35.00 247.91,35.00 248.56,35.00 249.21,35.00 249.88,35.00 250.52,35.00 251.17,35.00 251.82,35.00 252.52,35.00 253.17,35.00 253.98,35.00 255.08,35.00 255.74,35.00 256.40,35.00 257.04,35.00 257.68,35.00 258.32,35.00 258.98,35.00 259.62,35.00 260.28,35.00 260.95,35.00 261.62,35.00 262.30,35.00 262.95,35.00 263.60,35.00 264.25,35.00 264.90,35.00 265.56,35.00 266.21,35.00 266.85,35.00 267.50,35.00 268.17,35.00 268.82,35.00 269.46,35.00 270.11,35.00 270.77,35.00 271.44,35.00 272.09,35.00 272.74,35.00 273.40,35.00 274.02,35.00 274.66,35.00 275.32,35.00 275.97,35.00 276.62,35.00 277.29,35.00 277.94,35.00 278.58,35.00 279.24,35.00 279.89,35.00 280.54,35.00 281.18,35.00 281.83,35.00 282.48,35.00 283.13,35.00 283.77,35.00 284.54,35.00 285.30,35.00 286.06,35.00 286.82,35.00 287.56,35.00 288.30,35.00 289.07,35.00 289.82,35.00 290.47,35.00 291.11,35.00 291.75,35.00 292.40,35.00 293.04,35.00 293.69,35.00 294.33,35.00 294.97,35.00 295.62,35.00 296.26,35.00 296.91,35.00 297.55,35.00 298.20,35.00 298.84,35.00 299.48,35.00 300.13,35.00 300.77,35.00 301.41,35.00 302.06,35.00 302.71,35.00 303.35,35.00 303.99,35.00 304.64,35.00 305.28,35.00 305.93,35.00 306.58,35.00 307.22,35.00 307.87,35.00 308.51,35.00 309.16,35.00 309.80,35.00 310.45,35.00 311.09,35.00 311.73,35.00 312.37,35.00 313.01,35.00 313.65,35.00 314.29,35.00 314.94,35.00 315.58,35.00 316.22,35.00 316.87,35.00 317.51,35.00 318.14,35.00 318.78,35.00 319.45,35.00 320.14,35.00 320.79,35.00 321.44,35.00 322.08,35.00 322.72,35.00 323.36,35.00 324.00,35.00 324.65,35.00 325.41,35.00 326.17,35.00 326.92,35.00 327.68,35.00 328.44,35.00 329.19,35.00 329.96,35.00 330.75,35.00 331.45,35.00 332.14,35.00 332.79,35.00 333.44,35.00 334.09,35.00 334.73,35.00 335.37,35.00 336.02,35.00 336.66,35.00 337.31,35.00 337.95,35.00 338.60,35.00 339.24,35.00 339.89,35.00 340.54,35.00 341.18,35.00 341.83,35.00 342.39,35.00 343.06,35.00 343.71,35.00 344.37,35.00 345.01,35.00 345.65,35.00 346.31,35.00 346.96,35.00 347.61,35.00 348.26,35.00 348.91,35.00 349.57,35.00 350.21,35.00 350.85,35.00 351.49,35.00 352.13,35.00 352.78,35.00 353.42,35.00 354.07,35.00 354.71,35.00 355.36,35.00 356.01,35.00 356.65,35.00 357.30,35.00 357.94,35.00 358.59,35.00 359.24,35.00 359.89,35.00 360.53,35.00 361.18,35.00 361.83,35.00 362.50,35.00 363.14,35.00 363.78,35.00 364.43,35.00 365.06,35.00 365.71,35.00 366.36,35.00 367.00,35.00 367.65,35.00 368.29,35.00 368.93,35.00 369.58,35.00 370.23,35.00 370.88,35.00 371.52,35.00 372.30,35.00 372.97,35.00 373.63,35.00 374.28,35.00 374.93,35.00 375.58,35.00 376.22,35.00 376.86,35.00 377.52,35.00 378.17,35.00 378.81,35.00 379.46,35.00 380.11,35.00 380.76,35.00 381.42,35.00 382.08,35.00 382.73,35.00 383.38,35.00 384.02,35.00 384.67,35.00 385.31,35.00 385.96,35.00 386.63,35.00 387.28,35.00 387.93,35.00 388.58,35.00 389.22,35.00 389.87,35.00 390.52,35.00 391.16,35.00 391.81,35.00 392.46,35.00 393.11,35.00 393.76,35.00 394.40,35.00 395.05,35.00 395.69,35.00 396.35,35.00 397.00,35.00 397.64,35.00 398.28,35.00 398.93,35.00 399.59,35.00 400.24,35.00 401.01,35.00 401.68,35.00 402.33,35.00 402.97,35.00 403.62,35.00 404.27,35.00 404.91,35.00 405.56,35.00 406.22,35.00 406.86,35.00 407.51,35.00 408.15,35.00 408.80,35.00 409.44,35.00 410.09,35.00 410.74,35.00 411.38,35.00 412.03,35.00 412.67,35.00 413.32,35.00 413.97,35.00 414.62,35.00 415.26,35.00 415.91,35.00 416.57,35.00 417.21,35.00 417.86,35.00 418.50,35.00 419.17,35.00 419.81,35.00 420.46,35.00 421.11,35.00 421.76,35.00 422.40,35.00 423.05,35.00 423.70,35.00 424.36,35.00 425.01,35.00 425.65,35.00 426.29,35.00 426.94,35.00 427.58,35.00 428.23,35.00 428.88,35.00 429.53,35.00 430.18,35.00 430.83,35.00 431.47,35.00 432.12,35.00 432.76,35.00 433.41,35.00 434.06,35.00 434.71,35.00 435.35,35.00 436.00,35.00 436.65,35.00 437.30,35.00 437.95,35.00 438.60,35.00 439.25,35.00 439.90,35.00 440.55,35.00 441.28,35.00 441.99,35.00 442.68,35.00 443.33,35.00 444.01,35.00 444.66,35.00 445.31,35.00 445.95,35.00 446.55,35.00 447.23,35.00 447.87,35.00 448.53,35.00 449.17,35.00 449.81,35.00 450.46,35.00 451.11,35.00 451.75,35.00 452.40,35.00 453.05,35.00 453.70,35.00 454.35,35.00 455.00,35.00 455.65,35.00 456.30,35.00 456.95,35.00 457.60,35.00 458.25,35.00 458.91,35.00 459.56,35.00 460.20,35.00 460.84,35.00 461.49,35.00 462.14,35.00 462.78,35.00 463.43,35.00 464.08,35.00 464.74,35.00 465.38,35.00 466.02,35.00 466.67,35.00 467.32,35.00 467.97,35.00 468.62,35.00 469.27,35.00 469.92,35.00 470.57,35.00 471.22,35.00 471.87,35.00 472.52,35.00 473.17,35.00 473.82,35.00 474.47,35.00 475.11,35.00 475.77,35.00 476.44,35.00 477.08,35.00 477.74,35.00 478.38,35.00 479.03,35.00 479.68,35.00 480.33,35.00 480.98,35.00 481.63,35.00 482.27,35.00 482.92,35.00 483.57,35.00 484.22,35.00 484.88,35.00 485.53,35.00 486.18,35.00 486.83,35.00 487.48,35.00 488.14,35.00 488.79,35.00 489.43,35.00 490.08,35.00 490.73,35.00 491.39,35.00 492.04,35.00 492.70,35.00 493.35,35.00 493.99,35.00 494.64,35.00 495.29,35.00 495.94,35.00 496.59,35.00 497.24,35.00 497.88,35.00 498.53,35.00 499.18,35.00 499.83,35.00 500.48,35.00 501.13,35.00 501.79,35.00 502.43,35.00 503.09,35.00 503.73,35.00 504.38,35.00 505.02,35.00 505.67,35.00 506.32,35.00 506.97,35.00 507.62,35.00 508.27,35.00 508.92,35.00 509.57,35.00 510.22,35.00 510.88,35.00 511.52,35.00 512.17,35.00 512.83,35.00 513.48,35.00 514.13,35.00 514.78,35.00 515.44,35.00 516.09,35.00 516.74,35.00 517.40,35.00 518.05,35.00 518.71,35.00 519.35,35.00 520.00,35.00 520.65,35.00 521.31,35.00 521.96,35.00 522.61,35.00 523.26,35.00 523.91,35.00 524.55,35.00 525.22,35.00 525.86,35.00 526.52,35.00 527.17,35.00 527.81,35.00 528.46,35.00 529.10,35.00 529.75,35.00 530.40,35.00 531.05,35.00 531.70,35.00 532.34,35.00 533.00,35.00 533.64,35.00 534.31,35.00 534.96,35.00 535.61,35.00 536.26,35.00 536.90,35.00 537.55,35.00 538.20,35.00 538.86,35.00 539.50,35.00 540.15,35.00 540.80,35.00 541.45,35.00 542.10,35.00 542.75,35.00 543.41,35.00 544.08,35.00 544.73,35.00 545.38,35.00 546.04,35.00 546.69,35.00 547.34,35.00 547.98,35.00 548.63,35.00 549.27,35.00 549.93,35.00 550.58,35.00 551.24,35.00 551.89,35.00 552.54,35.00 553.22,35.00 553.87,35.00 554.52,35.00 555.17,35.00 555.82,35.00 556.47,35.00 557.12,35.00 557.78,35.00 558.43,35.00 559.09,35.00 559.74,35.00 560.39,35.00 561.04,35.00 561.69,35.00 562.34,35.00 562.99,35.00 563.64,35.00 564.29,35.00 564.95,35.00 565.60,35.00 566.25,35.00 566.90,35.00 567.55,35.00 568.20,35.00 568.86,35.00 569.51,35.00 570.18,35.00 570.83,35.00 571.49,35.00 572.14,35.00 572.80,35.00 573.47,35.00 574.13,35.00 574.79,35.00 575.46,35.00 576.11,35.00 576.76,35.00 577.41,35.00 578.06,35.00 578.72,35.00 579.37,35.00 580.04,35.00 580.68,35.00 581.34,35.00 581.99,35.00 582.63,35.00 583.28,35.00 583.94,35.00 584.58,35.00 585.23,35.00 585.88,35.00 586.53,35.00 587.18,35.00 587.82,35.00 588.47,35.00 589.12,35.00 589.77,35.00 590.42,35.00 591.08,35.00 591.73,35.00 592.38,35.00 593.03,35.00 593.68,35.00 594.33,35.00 594.98,35.00 595.62,35.00 596.28,35.00 596.93,35.00 597.57,35.00 598.21,35.00 598.86,35.00 599.51,35.00 600.16,35.00 600.81,35.00 601.46,35.00 602.11,35.00 602.76,35.00 603.41,35.00 604.06,35.00 604.71,35.00 605.35,35.00 605.99,35.00 606.63,35.00 607.28,35.00 607.93,35.00 608.59,35.00 609.24,35.00 609.89,35.00 610.54,35.00 611.20,35.00 611.85,35.00 612.50,35.00 613.16,35.00 613.81,35.00 614.45,35.00 615.11,35.00 615.76,35.00 616.42,35.00 617.07,35.00 617.72,35.00 618.37,35.00 619.02,35.00 619.66,35.00 620.31,35.00 620.96,35.00 621.60,35.00 622.25,35.00 622.90,35.00 623.55,35.00 624.20,35.00 624.84,35.00 625.49,35.00 626.14,35.00 626.80,35.00 627.45,35.00 628.10,35.00 628.75,35.00 629.40,35.00 630.05,35.00 630.70,35.00 631.35,35.00 632.00,35.00 632.65,35.00 633.29,35.00 633.95,35.00 634.60,35.00 635.25,35.00 635.89,35.00 636.54,35.00 637.21,35.00 637.86,35.00 638.52,35.00 639.18,35.00 639.83,35.00 640.48,35.00 641.14,35.00 641.79,35.00 642.44,35.00 643.09,35.00 643.74,35.00 644.41,35.00 645.06,35.00 645.71,35.00 646.36,35.00 647.01,35.00 647.66,35.00 648.31,35.00 648.96,35.00 649.60,35.00 650.26,35.00 650.90,35.00 651.55,35.00 652.20,35.00 652.85,35.00 653.50,35.00 654.14,35.00 654.79,35.00 655.44,35.00 656.09,35.00 656.75,35.00 657.40,35.00 658.04,35.00 658.69,35.00 659.34,35.00 659.98,35.00 660.64,35.00 661.29,35.00 661.95,35.00 662.60,35.00 663.24,35.00 663.89,35.00 664.54,35.00 665.19,35.00 665.83,35.00 666.49,35.00 667.16,35.00 667.82,35.00 668.48,35.00 669.14,35.00 669.81,35.00 670.47,35.00 671.14,35.00 671.81,35.00 672.47,35.00 673.14,35.00 673.79,35.00 674.43,35.00 675.09,35.00 675.75,35.00 676.39,35.00 677.05,35.00 677.70,35.00 678.35,35.00 679.00,35.00 679.65,35.00 680.30,35.00 680.95,35.00 681.60,35.00 682.24,35.00 682.89,35.00 683.54,35.00 684.20,35.00 684.84,35.00 685.50,35.00 686.16,35.00 686.81,35.00 687.45,35.00 688.10,35.00 688.75,35.00 689.40,35.00 690.06,35.00 690.70,35.00 691.35,35.00 692.01,35.00 692.65,35.00 693.30,35.00 693.96,35.00 694.60,35.00 695.26,35.00 695.95,35.00 696.62,35.00 697.27,35.00 697.92,35.00 698.56,35.00 699.22,35.00 699.88,35.00 700.54,35.00 701.19,35.00 701.83,35.00 702.47,35.00 703.12,35.00 703.77,35.00 704.42,35.00 705.07,35.00 705.72,35.00 706.37,35.00 707.03,35.00 707.68,35.00 708.33,35.00 708.98,35.00 709.62,35.00 710.28,35.00 710.93,35.00 711.57,35.00 712.22,35.00 712.88,35.00 713.53,35.00 714.18,35.00 714.86,35.00 715.51,35.00 716.16,35.00 716.81,35.00 717.46,35.00 718.11,35.00 718.76,35.00 719.42,35.00 720.06,35.00 720.71,35.00 721.37,35.00 722.03,35.00 722.68,35.00 723.34,35.00 723.98,35.00 724.63,35.00 725.28,35.00 725.93,35.00 726.58,35.00 727.23,35.00 727.89,35.00 728.54,35.00 729.19,35.00 729.84,35.00 730.49,35.00 731.14,35.00 731.79,35.00 732.43,35.00 733.08,35.00 733.73,35.00 734.39,35.00 735.03,35.00 735.68,35.00 736.33,35.00 736.99,35.00 737.64,35.00 738.29,35.00 738.94,35.00 739.58,35.00 740.22,35.00 740.87,35.00 741.53,35.00 742.18,35.00 742.84,35.00 743.49,35.00 744.15,35.00 744.80,35.00 745.45,35.00 746.11,35.00 746.81,35.00 747.47,35.00 748.13,35.00 748.78,35.00 749.44,35.00 750.09,35.00 750.74,35.00 751.39,35.00 752.04,35.00 752.69,35.00 753.35,35.00 753.99,35.00 754.65,35.00 755.31,35.00 755.96,35.00 756.62,35.00 757.27,35.00 757.92,35.00 758.57,35.00 759.22,35.00 759.87,35.00 760.52,35.00 761.18,35.00 761.83,35.00 762.48,35.00 763.13,35.00 763.78,35.00 764.44,35.00 765.10,35.00 765.75,35.00 766.40,35.00 767.05,35.00 767.70,35.00 768.36,35.00 769.00,35.00 769.65,35.00 770.30,35.00 770.95,35.00 771.60,35.00 772.25,35.00 772.90,35.00 773.55,35.00 774.20,35.00 774.86,35.00 775.50,35.00 776.16,35.00 776.81,35.00 777.47,35.00 778.12,35.00 778.75,35.00 779.39,35.00 780.04,35.00 780.69,35.00 781.34,35.00 782.00,35.00 782.65,35.00 783.30,35.00 783.96,35.00 784.62,35.00 785.26,35.00 785.92,35.00 786.56,35.00 787.21,35.00 787.85,35.00 788.50,35.00 789.15,35.00 789.80,35.00 790.45,35.00 791.09,35.00 791.74,35.00 792.39,35.00 793.05,35.00 793.70,35.00 794.34,35.00 794.99,35.00 795.62,35.00 796.28,35.00 796.93,35.00 797.58,35.00 798.24,35.00 798.90,35.00 799.54,35.00 800.19,35.00 800.84,35.00 801.49,35.00 802.14,35.00 802.79,35.00 803.49,35.00 804.14,35.00 804.80,35.00 805.45,35.00 806.11,35.00 806.75,35.00 807.40,35.00 808.06,35.00 808.70,35.00 809.35,35.00 810.00,35.00 810.65,35.00 811.30,35.00 811.96,35.00 812.61,35.00 813.26,35.00 813.91,35.00 814.56,35.00 815.21,35.00 815.87,35.00 816.52,35.00 817.18,35.00 817.84,35.00 818.50,35.00 819.15,35.00 819.80,35.00 820.45,35.00 821.11,35.00 821.76,35.00 822.40,35.00 823.05,35.00 823.70,35.00 824.35,35.00 825.01,35.00 825.66,35.00 826.31,35.00 826.96,35.00 827.61,35.00 828.26,35.00 828.91,35.00 829.55,35.00 830.21,35.00 830.85,35.00 831.50,35.00 832.16,35.00 832.80,35.00 833.44,35.00 834.09,35.00 834.74,35.00 835.38,35.00 836.03,35.00 836.68,35.00 837.33,35.00 837.97,35.00 838.62,35.00 839.27,35.00 839.92,35.00 840.57,35.00 841.21,35.00 841.86,35.00 842.50,35.00 843.17,35.00 843.81,35.00 844.46,35.00 845.11,35.00 845.79,35.00 846.43,35.00 847.09,35.00 847.74,35.00 848.39,35.00 849.05,35.00 849.70,35.00 850.35,35.00 851.00,35.00 851.65,35.00 852.29,35.00 852.94,35.00 853.59,35.00 854.24,35.00 854.89,35.00 855.54,35.00 856.19,35.00 856.84,35.00 857.48,35.00 858.13,35.00 858.79,35.00 859.47,35.00 860.12,35.00 860.76,35.00 861.40,35.00 862.05,35.00 862.71,35.00 863.36,35.00 864.01,35.00 864.66,35.00 865.31,35.00 865.96,35.00 866.61,35.00 867.26,35.00 867.91,35.00 868.56,35.00 869.21,35.00 869.87,35.00 870.51,35.00 871.16,35.00 871.81,35.00 872.45,35.00 873.10,35.00 873.75,35.00 874.40,35.00 875.05,35.00 875.70,35.00 876.35,35.00 877.00,35.00 877.65,35.00 878.30,35.00 878.94,35.00 879.59,35.00 880.24,35.00 880.90,35.00 881.54,35.00 882.19,35.00 882.84,35.00 883.49,35.00 884.13,35.00 884.78,35.00 885.44,35.00 886.08,35.00 886.75,35.00 887.40,35.00 888.04,35.00 888.69,35.00 889.35,35.00 890.00,35.00 890.66,35.00 891.31,35.00 892.00,35.00 892.66,35.00 893.36,35.00 894.00,35.00 894.65,35.00 895.29,35.00 895.94,35.00 896.59,35.00 897.24,35.00 897.89,35.00 898.54,35.00 899.19,35.00 899.84,35.00 900.49,35.00 901.14,35.00 901.78,35.00 902.43,35.00 903.08,35.00 903.73,35.00 904.37,35.00 905.03,35.00 905.68,35.00 906.33,35.00 906.98,35.00 907.62,35.00 908.27,35.00 908.92,35.00 909.58,35.00 910.23,35.00 910.87,35.00 911.53,35.00 912.18,35.00 912.82,35.00 913.47,35.00 914.12,35.00 914.76,35.00 915.41,35.00 916.06,35.00 916.70,35.00 917.34,35.00 918.00,35.00 918.64,35.00 919.29,35.00 919.95,35.00 920.62,35.00 921.27,35.00 921.92,35.00 922.57,35.00 923.21,35.00 923.85,35.00 924.50,35.00 925.15,35.00 925.80,35.00 926.44,35.00 927.09,35.00 927.73,35.00 928.38,35.00 929.03,35.00 929.68,35.00 930.32,35.00 930.97,35.00 931.63,35.00 932.27,35.00 932.92,35.00 933.57,35.00 934.22,35.00 934.87,35.00 935.52,35.00 936.17,35.00 936.81,35.00 937.47,35.00 938.12,35.00 938.78,35.00 939.42,35.00 940.07,35.00 940.72,35.00 941.37,35.00 942.02,35.00 942.69,35.00 943.34,35.00 943.99,35.00 944.65,35.00 945.29,35.00 945.94,35.00 946.59,35.00 947.24,35.00 947.90,35.00 948.55,35.00 949.19,35.00 949.84,35.00 950.49,35.00 951.15,35.00 951.80,35.00 952.46,35.00 953.13,35.00 953.81,35.00 954.47,35.00 955.12,35.00 955.77,35.00 956.41,35.00 957.07,35.00 957.71,35.00 958.36,35.00 959.02,35.00 959.67,35.00 960.32,35.00 960.97,35.00 961.61,35.00 962.26,35.00 962.91,35.00 963.57,35.00 964.23,35.00 964.89,35.00 965.55,35.00 966.20,35.00 966.88,35.00 967.54,35.00 968.23,35.00 968.88,35.00 969.53,35.00 970.18,35.00 970.83,35.00 971.48,35.00 972.13,35.00 972.78,35.00 973.43,35.00 974.07,35.00 974.73,35.00 975.39,35.00 976.04,35.00 976.69,35.00 977.35,35.00 978.11,35.00 978.76,35.00 979.40,35.00 980.05,35.00 980.70,35.00 981.34,35.00 981.98,35.00 982.58,35.00 983.17,35.00 983.87,35.00 984.48,35.00 985.07,35.00 985.74,35.00 986.30,35.00 986.94,35.00 987.59,35.00 988.25,35.00 988.89,35.00 989.54,35.00 990.18,35.00 990.83,35.00 991.47,35.00 992.13,35.00 992.78,35.00 993.42,35.00 994.07,35.00 994.72,35.00 995.36,35.00 996.01,35.00 996.65,35.00 997.30,35.00 997.94,35.00 998.58,35.00 999.23,35.00 999.88,35.00 1000.53,35.00 1001.19,35.00 1001.83,35.00 1002.47,35.00 1003.12,35.00 1003.76,35.00 1004.41,35.00 1005.05,35.00 1005.69,35.00 1006.34,35.00 1006.99,35.00 1007.63,35.00 1008.28,35.00 1008.93,35.00 1009.57,35.00 1010.22,35.00 1010.87,35.00 1011.52,35.00 1012.16,35.00 1012.81,35.00 1013.46,35.00 1014.11,35.00 1014.75,35.00 1015.39,35.00 1016.03,35.00 1016.68,35.00 1017.33,35.00 1017.97,35.00 1018.61,35.00 1019.27,35.00 1019.92,35.00 1020.57,35.00 1021.22,35.00 1021.86,35.00 1022.51,35.00 1023.17,35.00 1023.81,35.00 1024.46,35.00 1025.11,35.00 1025.76,35.00 1026.40,35.00 1027.05,35.00 1027.69,35.00 1028.34,35.00 1028.99,35.00 1029.64,35.00 1030.28,35.00 1030.93,35.00 1031.58,35.00 1032.22,35.00 1032.87,35.00 1033.52,35.00 1034.17,35.00 1034.81,35.00 1035.47,35.00 1036.11,35.00 1036.82,35.00 1037.47,35.00 1038.12,35.00 1038.76,35.00 1039.41,35.00 1040.06,35.00 1040.70,35.00 1041.35,35.00 1042.26,35.00 1042.91,35.00 1043.81,35.00 1044.45,35.00 1045.10,35.00 1045.75,35.00 1046.40,35.00 1047.05,35.00 1047.69,35.00 1048.33,35.00 1048.98,35.00 1049.63,35.00 1050.27,35.00 1050.91,35.00 1051.56,35.00 1052.22,35.00 1052.87,35.00 1053.51,35.00 1054.16,35.00 1054.81,35.00 1055.46,35.00 1056.12,35.00 1056.76,35.00 1057.41,35.00 1058.06,35.00 1058.70,35.00 1059.35,35.00 1060.00,35.00 1060.65,35.00 1061.30,35.00 1061.94,35.00 1062.59,35.00 1063.25,35.00 1063.91,35.00 1064.58,35.00 1065.23,35.00 1065.91,35.00 1066.55,35.00 1067.20,35.00 1067.86,35.00 1068.51,35.00 1069.15,35.00 1069.80,35.00 1070.45,35.00 1071.09,35.00 1071.75,35.00 1072.40,35.00 1073.06,35.00 1073.71,35.00 1074.36,35.00 1075.01,35.00 1075.66,35.00 1076.31,35.00 1076.96,35.00 1077.61,35.00 1078.26,35.00 1078.92,35.00 1079.57,35.00 1080.23,35.00 1080.88,35.00 1081.52,35.00 1082.17,35.00 1082.83,35.00 1083.47,35.00 1084.13,35.00 1084.79,35.00 1085.44,35.00 1086.09,35.00 1086.74,35.00 1087.39,35.00 1088.04,35.00 1088.69,35.00 1089.34,35.00 1089.99,35.00 1090.63,35.00 1091.28,35.00 1091.92,35.00 1092.57,35.00 1093.24,35.00 1093.90,35.00 1094.56,35.00 1095.20,35.00 1095.84,35.00 1096.50,35.00 1097.14,35.00 1097.79,35.00 1098.44,35.00 1099.09,35.00 1099.74,35.00 1100.39,35.00 1101.04,35.00 1101.70,35.00 1102.35,35.00 1102.99,35.00 1103.64,35.00 1104.29,35.00 1104.94,35.00 1105.60,35.00 1106.25,35.00 1106.90,35.00 1107.55,35.00 1108.21,35.00 1108.86,35.00 1109.50,35.00 1110.17,35.00 1110.81,35.00 1111.47,35.00 1112.13,35.00 1112.77,35.00 1113.42,35.00 1114.06,35.00 1114.71,35.00 1115.38,35.00 1116.03,35.00 1116.69,35.00 1117.35,35.00 1118.00,35.00 1118.65,35.00 1119.30,35.00 1119.95,35.00 1120.60,35.00 1121.26,35.00 1121.91,35.00 1122.56,35.00 1123.21,35.00 1123.86,35.00 1124.52,35.00 1125.16,35.00 1125.82,35.00 1126.47,35.00 1127.11,35.00 1127.77,35.00 1128.43,35.00 1129.09,35.00 1129.74,35.00 1130.40,35.00 1131.05,35.00 1131.70,35.00 1132.34,35.00 1132.99,35.00 1133.67,35.00 1134.32,35.00 1134.97,35.00 1135.63,35.00 1136.28,35.00 1136.92,35.00 1137.60,35.00 1138.25,35.00 1138.91,35.00 1139.56,35.00 1140.22,35.00 1140.88,35.00 1141.57,35.00 1142.21,35.00 1142.87,35.00 1143.52,35.00 1144.17,35.00 1144.82,35.00 1145.47,35.00 1146.12,35.00 1146.78,35.00 1147.43,35.00 1148.10,35.00 1148.75,35.00 1149.40,35.00 1150.05,35.00 1150.70,35.00 1151.35,35.00 1152.02,35.00 1152.67,35.00 1153.32,35.00 1153.97,35.00 1154.62,35.00 1155.27,35.00 1155.94,35.00 1156.59,35.00 1157.23,35.00 1157.88,35.00 1158.52,35.00 1159.17,35.00 1159.82,35.00 1160.46,35.00 1161.14,35.00 1161.78,35.00 1162.43,35.00 1163.08,35.00 1163.73,35.00 1164.37,35.00 1165.02,35.00 1165.67,35.00 1166.33,35.00 1166.98,35.00 1167.63,35.00 1168.27,35.00 1168.92,35.00 1169.57,35.00 1170.25,35.00 1170.89,35.00 1171.55,35.00 1172.20,35.00 1172.84,35.00 1173.49,35.00 1174.13,35.00 1174.78,35.00 1175.44,35.00 1176.12,35.00 1176.77,35.00 1177.42,35.00 1178.07,35.00 1178.71,35.00 1179.36,35.00 1180.00,35.00"/>
<polyline fill="none" stroke="#1f77b4" stroke-opacity="0.50" stroke-width="2" points="70.00,35.00 70.65,35.00 71.30,35.00 71.94,35.00 72.59,35.00 73.24,35.00 73.88,35.00 74.53,35.00 75.23,35.00 75.88,35.00 76.52,35.00 77.16,35.00 77.82,35.00 78.46,35.00 79.11,35.00 80.27,35.00 81.27,35.00 81.93,35.00 82.59,35.00 83.24,35.00 83.88,35.00 84.51,35.00 85.17,35.00 85.81,35.00 86.46,35.00 87.11,35.00 87.77,35.00 88.42,35.00 89.07,35.00 89.75,35.00 90.40,35.00 91.05,35.00 91.71,35.00 92.36,35.00 93.01,35.00 93.67,35.00 94.31,35.00 94.96,35.00 95.62,35.00 96.26,35.00 96.91,35.00 97.55,35.00 98.19,35.00 98.84,35.00 99.48,35.00 100.14,35.00 100.80,35.00 101.44,35.00 102.08,35.00 102.73,35.00 103.38,35.00 104.12,35.00 104.77,35.00 105.41,35.00 106.05,35.00 106.70,35.00 107.34,35.00 107.98,35.00 108.63,35.00 109.28,35.00 109.93,35.00 110.58,35.00 111.22,35.00 111.87,35.00 112.53,35.00 113.17,35.00 113.82,35.00 114.46,35.00 115.10,35.00 115.74,35.00 116.38,35.00 117.03,35.00 117.68,35.00 118.32,35.00 118.96,35.00 119.61,35.00 120.25,35.00 120.90,35.00 121.54,35.00 122.19,35.00 122.85,35.00 123.50,35.00 124.14,35.00 124.79,35.00 125.43,35.00 126.08,35.00 126.73,35.00 127.37,35.00 128.01,35.00 128.66,35.00 129.31,35.00 129.96,35.00 130.61,35.00 131.25,35.00 131.90,35.00 132.54,35.00 133.18,35.00 133.82,35.00 134.47,35.00 135.11,35.00 135.76,35.00 136.41,35.00 137.06,35.00 137.71,35.00 138.36,35.00 139.01,35.00 139.66,35.00 140.30,35.00 140.94,35.00 141.59,35.00 142.24,35.00 142.89,35.00 143.53,35.00 144.18,35.00 144.83,35.00 145.48,35.00 146.13,35.00 146.78,35.00 147.43,35.00 148.07,35.00 148.72,35.00 149.37,35.00 150.01,35.00 150.66,35.00 151.36,35.00 152.01,35.00 152.66,35.00 153.31,35.00 153.95,35.00 154.59,35.00 155.22,35.00 155.87,35.00 156.52,35.00 157.16,35.00 157.80,35.00 158.45,35.00 159.09,35.00 159.74,35.00 160.39,35.00 161.04,35.00 161.68,35.00 162.33,35.00 162.97,35.00 163.62,35.00 164.27,35.00 164.91,35.00 165.56,35.00 166.21,35.00 166.85,35.00 167.49,35.00 168.14,35.00 168.78,35.00 169.43,35.00 170.08,35.00 170.73,35.00 171.38,35.00 172.02,35.00 172.68,35.00 173.32,35.00 173.96,35.00 174.61,35.00 175.26,35.00 175.92,35.00 176.57,35.00 177.22,35.00 177.86,35.00 178.51,35.00 179.15,35.00 179.79,35.00 180.44,35.00 181.08,35.00 181.72,35.00 182.36,35.00 183.02,35.00 183.66,35.00 184.31,35.00 184.96,35.00 185.62,35.00 186.26,35.00 186.91,35.00 187.55,35.00 188.19,35.00 188.90,35.00 189.56,35.00 190.20,35.00 190.84,35.00 191.48,35.00 192.13,35.00 192.77,35.00 193.42,35.00 194.07,35.00 194.71,35.00 195.36,35.00 196.00,35.00 196.67,35.00 197.31,35.00 197.95,35.00 198.60,35.00 199.25,35.00 199.91,35.00 200.57,35.00 201.21,35.00 201.86,35.00 202.51,35.00 203.15,35.00 203.80,35.00 204.44,35.00 205.10,35.00 205.74,35.00 206.38,35.00 207.04,35.00 207.68,35.00 208.33,35.00 208.98,35.00 209.63,35.00 210.28,35.00 210.92,35.00 211.56,35.00 212.20,35.00 212.85,35.00 213.50,35.00 214.14,35.00 214.79,35.00 215.42,35.00 216.07,35.00 216.72,35.00 217.37,35.00 218.02,35.00 218.67,35.00 219.32,35.00 219.97,35.00 220.61,35.00 221.26,35.00 221.91,35.00 222.55,35.00 223.20,35.00 223.86,35.00 224.51,35.00 225.16,35.00 225.81,35.00 226.45,35.00 227.10,35.00 227.74,35.00 228.38,35.00 229.03,35.00 229.68,35.00 230.33,35.00 230.97,35.00 231.63,35.00 232.27,35.00 232.92,35.00 233.57,35.00 234.22,35.00 234.87,35.00 235.51,35.00 236.16,35.00 236.81,35.00 237.46,35.00 238.11,35.00 238.75,35.00 239.47,35.00 240.12,35.00 240.77,35.00 241.42,35.00 242.07,35.00 242.72,35.00 243.37,35.00 244.01,35.00 244.66,35.00 245.32,35.00 245.98,35.00 246.62,35.00 247.26,35.00 247.91,35.00 248.56,35.00 249.21,35.00 249.88,35.00 250.52,35.00 251.17,35.00 251.82,35.00 252.52,35.00 253.17,35.00 253.98,35.00 255.08,35.00 255.74,35.00 256.40,35.00 257.04,35.00 257.68,35.00 258.32,35.00 258.98,35.00 259.62,35.00 260.28,35.00 260.95,35.00 261.62,35.00 262.30,35.00 262.95,35.00 263.60,35.00 264.25,35.00 264.90,35.00 265.56,35.00 266.21,35.00 266.85,35.00 267.50,35.00 268.17,35.00 268.82,35.00 269.46,35.00 270.11,35.00 270.77,35.00 271.44,35.00 272.09,35.00 272.74,35.00 273.40,35.00 274.02,35.00 274.66,35.00 275.32,35.00 275.97,35.00 276.62,35.00 277.29,35.00 277.94,35.00 278.58,35.00 279.24,35.00 279.89,35.00 280.54,35.00 281.18,35.00 281.83,35.00 282.48,35.00 283.13,35.00 283.77,35.00 284.54,35.00 285.30,35.00 286.06,35.00 286.82,35.00 287.56,35.00 288.30,35.00 289.07,35.00 289.82,35.00 290.47,35.00 291.11,35.00 291.75,35.00 292.40,35.00 293.04,35.00 293.69,35.00 294.33,35.00 294.97,35.00 295.62,35.00 296.26,35.00 296.91,35.00 297.55,35.00 298.20,35.00 298.84,35.00 299.48,35.00 300.13,35.00 300.77,35.00 301.41,35.00 302.06,35.00 302.71,35.00 303.35,35.00 303.99,35.00 304.64,35.00 305.28,35.00 305.93,35.00 306.58,35.00 307.22,35.00 307.87,35.00 308.51,35.00 309.16,35.00 309.80,35.00 310.45,35.00 311.09,35.00 311.73,35.00 312.37,35.00 313.01,35.00 313.65,35.00 314.29,35.00 314.94,35.00 315.58,35.00 316.22,35.00 316.87,35.00 317.51,35.00 318.14,35.00 318.78,35.00 319.45,35.00 320.14,35.00 320.79,35.00 321.44,35.00 322.08,35.00 322.72,35.00 323.36,35.00 324.00,35.00 324.65,35.00 325.41,35.00 326.17,35.00 326.92,35.00 327.68,35.00 328.44,35.00 329.19,35.00 329.96,35.00 330.75,35.00 331.45,35.00 332.14,35.00 332.79,35.00 333.44,35.00 334.09,35.00 334.73,35.00 335.37,35.00 336.02,35.00 336.66,35.00 337.31,35.00 337.95,35.00 338.60,35.00 339.24,35.00 339.89,35.00 340.54,35.00 341.18,35.00 341.83,35.00 342.39,35.00 343.06,35.00 343.71,35.00 344.37,35.00 345.01,35.00 345.65,35.00 346.31,35.00 346.96,35.00 347.61,35.00 348.26,35.00 348.91,35.00 349.57,35.00 350.21,35.00 350.85,35.00 351.49,35.00 352.13,35.00 352.78,35.00 353.42,35.00 354.07,35.00 354.71,35.00 355.36,35.00 356.01,35.00 356.65,35.00 357.30,35.00 357.94,35.00 358.59,35.00 359.24,35.00 359.89,35.00 360.53,35.00 361.18,35.00 361.83,35.00 362.50,35.00 363.14,35.00 363.78,35.00 364.43,35.00 365.06,35.00 365.71,35.00 366.36,35.00 367.00,35.00 367.65,35.00 368.29,35.00 368.93,35.00 369.58,35.00 370.23,35.00 370.88,35.00 371.52,35.00 372.30,35.00 372.97,35.00 373.63,35.00 374.28,35.00 374.93,35.00 375.58,35.00 376.22,35.00 376.86,35.00 377.52,35.00 378.17,35.00 378.81,35.00 379.46,35.00 380.11,35.00 380.76,35.00 381.42,35.00 382.08,35.00 382.73,35.00 383.38,35.00 384.02,35.00 384.67,35.00 385.31,35.00 385.96,35.00 386.63,35.00 387.28,35.00 387.93,35.00 388.58,35.00 389.22,35.00 389.87,35.00 390.52,35.00 391.16,35.00 391.81,35.00 392.46,35.00 393.11,35.00 393.76,35.00 394.40,35.00 395.05,35.00 395.69,35.00 396.35,35.00 397.00,35.00 397.64,35.00 398.28,35.00 398.93,35.00 399.59,35.00 400.24,35.00 401.01,35.00 401.68,35.00 402.33,35.00 402.97,35.00 403.62,35.00 404.27,35.00 404.91,35.00 405.56,35.00 406.22,35.00 406.86,35.00 407.51,35.00 408.15,35.00 408.80,35.00 409.44,35.00 410.09,35.00 410.74,35.00 411.38,35.00 412.03,35.00 412.67,35.00 413.32,35.00 413.97,35.00 414.62,35.00 415.26,35.00 415.91,35.00 416.57,35.00 417.21,35.00 417.86,35.00 418.50,35.00 419.17,35.00 419.81,35.00 420.46,35.00 421.11,35.00 421.76,35.00 422.40,35.00 423.05,35.00 423.70,35.00 424.36,35.00 425.01,35.00 425.65,35.00 426.29,35.00 426.94,35.00 427.58,35.00 428.23,35.00 428.88,35.00 429.53,35.00 430.18,35.00 430.83,35.00 431.47,35.00 432.12,35.00 432.76,35.00 433.41,35.00 434.06,35.00 434.71,35.00 435.35,35.00 436.00,35.00 436.65,35.00 437.30,35.00 437.95,35.00 438.60,35.00 439.25,35.00 439.90,35.00 440.55,35.00 441.28,35.00 441.99,35.00 442.68,35.00 443.33,35.00 444.01,35.00 444.66,35.00 445.31,35.00 445.95,35.00 446.55,35.00 447.23,35.00 447.87,35.00 448.53,35.00 449.17,35.00 449.81,35.00 450.46,35.00 451.11,35.00 451.75,35.00 452.40,35.00 453.05,35.00 453.70,35.00 454.35,35.00 455.00,35.00 455.65,35.00 456.30,35.00 456.95,35.00 457.60,35.00 458.25,35.00 458.91,35.00 459.56,35.00 460.20,35.00 460.84,35.00 461.49,35.00 462.14,35.00 462.78,35.00 463.43,35.00 464.08,35.00 464.74,35.00 465.38,35.00 466.02,35.00 466.67,35.00 467.32,35.00 467.97,35.00 468.62,35.00 469.27,35.00 469.92,35.00 470.57,35.00 471.22,35.00 471.87,35.00 472.52,35.00 473.17,35.00 473.82,35.00 474.47,35.00 475.11,35.00 475.77,35.00 476.44,35.00 477.08,35.00 477.74,35.00 478.38,35.00 479.03,35.00 479.68,35.00 480.33,35.00 480.98,35.00 481.63,35.00 482.27,35.00 482.92,35.00 483.57,35.00 484.22,35.00 484.88,35.00 485.53,35.00 486.18,35.00 486.83,35.00 487.48,35.00 488.14,35.00 488.79,35.00 489.43,35.00 490.08,35.00 490.73,35.00 491.39,35.00 492.04,35.00 492.70,35.00 493.35,35.00 493.99,35.00 494.64,35.00 495.29,35.00 495.94,35.00 496.59,35.00 497.24,35.00 497.88,35.00 498.53,35.00 499.18,35.00 499.83,35.00 500.48,35.00 501.13,35.00 501.79,35.00 502.43,35.00 503.09,35.00 503.73,35.00 504.38,35.00 505.02,35.00 505.67,35.00 506.32,35.00 506.97,35.00 507.62,35.00 508.27,35.00 508.92,35.00 509.57,35.00 510.22,35.00 510.88,35.00 511.52,35.00 512.17,35.00 512.83,35.00 513.48,35.00 514.13,35.00 514.78,35.00 515.44,35.00 516.09,35.00 516.74,35.00 517.40,35.00 518.05,35.00 518.71,35.00 519.35,35.00 520.00,35.00 520.65,35.00 521.31,35.00 521.96,35.00 522.61,35.00 523.26,35.00 523.91,35.00 524.55,35.00 525.22,35.00 525.86,35.00 526.52,35.00 527.17,35.00 527.81,35.00 528.46,35.00 529.10,35.00 529.75,35.00 530.40,35.00 531.05,35.00 531.70,35.00 532.34,35.00 533.00,35.00 533.64,35.00 534.31,35.00 534.96,35.00 535.61,35.00 536.26,35.00 536.90,35.00 537.55,35.00 538.20,35.00 538.86,35.00 539.50,35.00 540.15,35.00 540.80,35.00 541.45,35.00 542.10,35.00 542.75,35.00 543.41,35.00 544.08,35.00 544.73,35.00 545.38,35.00 546.04,35.00 546.69,35.00 547.34,35.00 547.98,35.00 548.63,35.00 549.27,35.00 549.93,35.00 550.58,35.00 551.24,35.00 551.89,35.00 552.54,35.00 553.22,35.00 553.87,35.00 554.52,35.00 555.17,35.00 555.82,35.00 556.47,35.00 557.12,35.00 557.78,35.00 558.43,35.00 559.09,35.00 559.74,35.00 560.39,35.00 561.04,35.00 561.69,35.00 562.34,35.00 562.99,35.00 563.64,35.00 564.29,35.00 564.95,35.00 565.60,35.00 566.25,35.00 566.90,35.00 567.55,35.00 568.20,35.00 568.86,35.00 569.51,35.00 570.18,35.00 570.83,35.00 571.49,35.00 572.14,35.00 572.80,35.00 573.47,35.00 574.13,35.00 574.79,35.00 575.46,35.00 576.11,35.00 576.76,35.00 577.41,35.00 578.06,35.00 578.72,35.00 579.37,35.00 580.04,35.00 580.68,35.00 581.34,35.00 581.99,35.00 582.63,35.00 583.28,35.00 583.94,35.00 584.58,35.00 585.23,35.00 585.88,35.00 586.53,35.00 587.18,35.00 587.82,35.00 588.47,35.00 589.12,35.00 589.77,35.00 590.42,35.00 591.08,35.00 591.73,35.00 592.38,35.00 593.03,35.00 593.68,35.00 594.33,35.00 594.98,35.00 595.62,35.00 596.28,35.00 596.93,35.00 597.57,35.00 598.21,35.00 598.86,35.00 599.51,35.00 600.16,35.00 600.81,35.00 601.46,35.00 602.11,35.00 602.76,35.00 603.41,35.00 604.06,35.00 604.71,35.00 605.35,35.00 605.99,35.00 606.63,35.00 607.28,35.00 607.93,35.00 608.59,35.00 609.24,35.00 609.89,35.00 610.54,35.00 611.20,35.00 611.85,35.00 612.50,35.00 613.16,35.00 613.81,35.00 614.45,35.00 615.11,35.00 615.76,35.00 616.42,35.00 617.07,35.00 617.72,35.00 618.37,35.00 619.02,35.00 619.66,35.00 620.31,35.00 620.96,35.00 621.60,35.00 622.25,35.00 622.90,35.00 623.55,35.00 624.20,35.00 624.84,35.00 625.49,35.00 626.14,35.00 626.80,35.00 627.45,35.00 628.10,35.00 628.75,35.00 629.40,35.00 630.05,35.00 630.70,35.00 631.35,35.00 632.00,35.00 632.65,35.00 633.29,35.00 633.95,35.00 634.60,35.00 635.25,35.00 635.89,35.00 636.54,35.00 637.21,35.00 637.86,35.00 638.52,35.00 639.18,35.00 639.83,35.00 640.48,35.00 641.14,35.00 641.79,35.00 642.44,35.00 643.09,35.00 643.74,35.00 644.41,35.00 645.06,35.00 645.71,35.00 646.36,35.00 647.01,35.00 647.66,35.00 648.31,35.00 648.96,35.00 649.60,35.00 650.26,35.00 650.90,35.00 651.55,35.00 652.20,35.00 652.85,35.00 653.50,35.00 654.14,35.00 654.79,35.00 655.44,35.00 656.09,35.00 656.75,35.00 657.40,35.00 658.04,35.00 658.69,35.00 659.34,35.00 659.98,35.00 660.64,35.00 661.29,35.00 661.95,35.00 662.60,35.00 663.24,35.00 663.89,35.00 664.54,35.00 665.19,35.00 665.83,35.00 666.49,35.00 667.16,35.00 667.82,35.00 668.48,35.00 669.14,35.00 669.81,35.00 670.47,35.00 671.14,35.00 671.81,35.00 672.47,35.00 673.14,35.00 673.79,35.00 674.43,35.00 675.09,35.00 675.75,35.00 676.39,35.00 677.05,35.00 677.70,35.00 678.35,35.00 679.00,35.00 679.65,35.00 680.30,35.00 680.95,35.00 681.60,35.00 682.24,35.00 682.89,35.00 683.54,35.00 684.20,35.00 684.84,35.00 685.50,35.00 686.16,35.00 686.81,35.00 687.45,35.00 688.10,35.00 688.75,35.00 689.40,35.00 690.06,35.00 690.70,35.00 691.35,35.00 692.01,35.00 692.65,35.00 693.30,35.00 693.96,35.00 694.60,35.00 695.26,35.00 695.95,35.00 696.62,35.00 697.27,35.00 697.92,35.00 698.56,35.00 699.22,35.00 699.88,35.00 700.54,35.00 701.19,35.00 701.83,35.00 702.47,35.00 703.12,35.00 703.77,35.00 704.42,35.00 705.07,35.00 705.72,35.00 706.37,35.00 707.03,35.00 707.68,35.00 708.33,35.00 708.98,35.00 709.62,35.00 710.28,35.00 710.93,35.00 711.57,35.00 712.22,35.00 712.88,35.00 713.53,35.00 714.18,35.00 714.86,35.00 715.51,35.00 716.16,35.00 716.81,35.00 717.46,35.00 718.11,35.00 718.76,35.00 719.42,35.00 720.06,35.00 720.71,35.00 721.37,35.00 722.03,35.00 722.68,35.00 723.34,35.00 723.98,35.00 724.63,35.00 725.28,35.00 725.93,35.00 726.58,35.00 727.23,35.00 727.89,35.00 728.54,35.00 729.19,35.00 729.84,35.00 730.49,35.00 731.14,35.00 731.79,35.00 732.43,35.00 733.08,35.00 733.73,35.00 734.39,35.00 735.03,35.00 735.68,35.00 736.33,35.00 736.99,35.00 737.64,35.00 738.29,35.00 738.94,35.00 739.58,35.00 740.22,35.00 740.87,35.00 741.53,35.00 742.18,35.00 742.84,35.00 743.49,35.00 744.15,35.00 744.80,35.00 745.45,35.00 746.11,35.00 746.81,35.00 747.47,35.00 748.13,35.00 748.78,35.00 749.44,35.00 750.09,35.00 750.74,35.00 751.39,35.00 752.04,35.00 752.69,35.00 753.35,35.00 753.99,35.00 754.65,35.00 755.31,35.00 755.96,35.00 756.62,35.00 757.27,35.00 757.92,35.00 758.57,35.00 759.22,35.00 759.87,35.00 760.52,35.00 761.18,35.00 761.83,35.00 762.48,35.00 763.13,35.00 763.78,35.00 764.44,35.00 765.10,35.00 765.75,35.00 766.40,35.00 767.05,35.00 767.70,35.00 768.36,35.00 769.00,35.00 769.65,35.00 770.30,35.00 770.95,35.00 771.60,35.00 772.25,35.00 772.90,35.00 773.55,35.00 774.20,35.00 774.86,35.00 775.50,35.00 776.16,35.00 776.81,35.00 777.47,35.00 778.12,35.00 778.75,35.00 779.39,35.00 780.04,35.00 780.69,35.00 781.34,35.00 782.00,35.00 782.65,35.00 783.30,35.00 783.96,35.00 784.62,35.00 785.26,35.00 785.92,35.00 786.56,35.00 787.21,35.00 787.85,35.00 788.50,35.00 789.15,35.00 789.80,35.00 790.45,35.00 791.09,35.00 791.74,35.00 792.39,35.00 793.05,35.00 793.70,35.00 794.34,35.00 794.99,35.00 795.62,35.00 796.28,35.00 796.93,35.00 797.58,35.00 798.24,35.00 798.90,35.00 799.54,35.00 800.19,35.00 800.84,35.00 801.49,35.00 802.14,35.00 802.79,35.00 803.49,35.00 804.14,35.00 804.80,35.00 805.45,35.00 806.11,35.00 806.75,35.00 807.40,35.00 808.06,35.00 808.70,35.00 809.35,35.00 810.00,35.00 810.65,35.00 811.30,35.00 811.96,35.00 812.61,35.00 813.26,35.00 813.91,35.00 814.56,35.00 815.21,35.00 815.87,35.00 816.52,35.00 817.18,35.00 817.84,35.00 818.50,35.00 819.15,35.00 819.80,35.00 820.45,35.00 821.11,35.00 821.76,35.00 822.40,35.00 823.05,35.00 823.70,35.00 824.35,35.00 825.01,35.00 825.66,35.00 826.31,35.00 826.96,35.00 827.61,35.00 828.26,35.00 828.91,35.00 829.55,35.00 830.21,35.00 830.85,35.00 831.50,35.00 832.16,35.00 832.80,35.00 833.44,35.00 834.09,35.00 834.74,35.00 835.38,35.00 836.03,35.00 836.68,35.00 837.33,35.00 837.97,35.00 838.62,35.00 839.27,35.00 839.92,35.00 840.57,35.00 841.21,35.00 841.86,35.00 842.50,35.00 843.17,35.00 843.81,35.00 844.46,35.00 845.11,35.00 845.79,35.00 846.43,35.00 847.09,35.00 847.74,35.00 848.39,35.00 849.05,35.00 849.70,35.00 850.35,35.00 851.00,35.00 851.65,35.00 852.29,35.00 852.94,35.00 853.59,35.00 854.24,35.00 854.89,35.00 855.54,35.00 856.19,35.00 856.84,35.00 857.48,35.00 858.13,35.00 858.79,35.00 859.47,35.00 860.12,35.00 860.76,35.00 861.40,35.00 862.05,35.00 862.71,35.00 863.36,35.00 864.01,35.00 864.66,35.00 865.31,35.00 865.96,35.00 866.61,35.00 867.26,35.00 867.91,35.00 868.56,35.00 869.21,35.00 869.87,35.00 870.51,35.00 871.16,35.00 871.81,35.00 872.45,35.00 873.10,35.00 873.75,35.00 874.40,35.00 875.05,35.00 875.70,35.00 876.35,35.00 877.00,35.00 877.65,35.00 878.30,35.00 878.94,35.00 879.59,35.00 880.24,35.00 880.90,35.00 881.54,35.00 882.19,35.00 882.84,35.00 883.49,35.00 884.13,35.00 884.78,35.00 885.44,35.00 886.08,35.00 886.75,35.00 887.40,35.00 888.04,35.00 888.69,35.00 889.35,35.00 890.00,35.00 890.66,35.00 891.31,35.00 892.00,35.00 892.66,35.00 893.36,35.00 894.00,35.00 894.65,35.00 895.29,35.00 895.94,35.00 896.59,35.00 897.24,35.00 897.89,35.00 898.54,35.00 899.19,35.00 899.84,35.00 900.49,35.00 901.14,35.00 901.78,35.00 902.43,35.00 903.08,35.00 903.73,35.00 904.37,35.00 905.03,35.00 905.68,35.00 906.33,35.00 906.98,35.00 907.62,35.00 908.27,35.00 908.92,35.00 909.58,35.00 910.23,35.00 910.87,35.00 911.53,35.00 912.18,35.00 912.82,35.00 913.47,35.00 914.12,35.00 914.76,35.00 915.41,35.00 916.06,35.00 916.70,35.00 917.34,35.00 918.00,35.00 918.64,35.00 919.29,35.00 919.95,35.00 920.62,35.00 921.27,35.00 921.92,35.00 922.57,35.00 923.21,35.00 923.85,35.00 924.50,35.00 925.15,35.00 925.80,35.00 926.44,35.00 927.09,35.00 927.73,35.00 928.38,35.00 929.03,35.00 929.68,35.00 930.32,35.00 930.97,35.00 931.63,35.00 932.27,35.00 932.92,35.00 933.57,35.00 934.22,35.00 934.87,35.00 935.52,35.00 936.17,35.00 936.81,35.00 937.47,35.00 938.12,35.00 938.78,35.00 939.42,35.00 940.07,35.00 940.72,35.00 941.37,35.00 942.02,35.00 942.69,35.00 943.34,35.00 943.99,35.00 944.65,35.00 945.29,35.00 945.94,35.00 946.59,35.00 947.24,35.00 947.90,35.00 948.55,35.00 949.19,35.00 949.84,35.00 950.49,35.00 951.15,35.00 951.80,35.00 952.46,35.00 953.13,35.00 953.81,35.00 954.47,35.00 955.12,35.00 955.77,35.00 956.41,35.00 957.07,35.00 957.71,35.00 958.36,35.00 959.02,35.00 959.67,35.00 960.32,35.00 960.97,35.00 961.61,35.00 962.26,35.00 962.91,35.00 963.57,35.00 964.23,35.00 964.89,35.00 965.55,35.00 966.20,35.00 966.88,35.00 967.54,35.00 968.23,35.00 968.88,35.00 969.53,35.00 970.18,35.00 970.83,35.00 971.48,35.00 972.13,35.00 972.78,35.00 973.43,35.00 974.07,35.00 974.73,35.00 975.39,35.00 976.04,35.00 976.69,35.00 977.35,35.00 978.11,35.00 978.76,35.00 979.40,35.00 980.05,35.00 980.70,35.00 981.34,35.00 981.98,35.00 982.58,35.00 983.17,35.00 983.87,35.00 984.48,35.00 985.07,35.00 985.74,35.00 986.30,35.00 986.94,35.00 987.59,35.00 988.25,35.00 988.89,35.00 989.54,35.00 990.18,35.00 990.83,35.00 991.47,35.00 992.13,35.00 992.78,35.00 993.42,35.00 994.07,35.00 994.72,35.00 995.36,35.00 996.01,35.00 996.65,35.00 997.30,35.00 997.94,35.00 998.58,35.00 999.23,35.00 999.88,35.00 1000.53,35.00 1001.19,35.00 1001.83,35.00 1002.47,35.00 1003.12,35.00 1003.76,35.00 1004.41,35.00 1005.05,35.00 1005.69,35.00 1006.34,35.00 1006.99,35.00 1007.63,35.00 1008.28,35.00 1008.93,35.00 1009.57,35.00 1010.22,35.00 1010.87,35.00 1011.52,35.00 1012.16,35.00 1012.81,35.00 1013.46,35.00 1014.11,35.00 1014.75,35.00 1015.39,35.00 1016.03,35.00 1016.68,35.00 1017.33,35.00 1017.97,35.00 1018.61,35.00 1019.27,35.00 1019.92,35.00 1020.57,35.00 1021.22,35.00 1021.86,35.00 1022.51,35.00 1023.17,35.00 1023.81,35.00 1024.46,35.00 1025.11,35.00 1025.76,35.00 1026.40,35.00 1027.05,35.00 1027.69,35.00 1028.34,35.00 1028.99,35.00 1029.64,35.00 1030.28,35.00 1030.93,35.00 1031.58,35.00 1032.22,35.00 1032.87,35.00 1033.52,35.00 1034.17,35.00 1034.81,35.00 1035.47,35.00 1036.11,35.00 1036.82,35.00 1037.47,35.00 1038.12,35.00 1038.76,35.00 1039.41,35.00 1040.06,35.00 1040.70,35.00 1041.35,35.00 1042.26,35.00 1042.91,35.00 1043.81,35.00 1044.45,35.00 1045.10,35.00 1045.75,35.00 1046.40,35.00 1047.05,35.00 1047.69,35.00 1048.33,35.00 1048.98,35.00 1049.63,35.00 1050.27,35.00 1050.91,35.00 1051.56,35.00 1052.22,35.00 1052.87,35.00 1053.51,35.00 1054.16,35.00 1054.81,35.00 1055.46,35.00 1056.12,35.00 1056.76,35.00 1057.41,35.00 1058.06,35.00 1058.70,35.00 1059.35,35.00 1060.00,35.00 1060.65,35.00 1061.30,35.00 1061.94,35.00 1062.59,35.00 1063.25,35.00 1063.91,35.00 1064.58,35.00 1065.23,35.00 1065.91,35.00 1066.55,35.00 1067.20,35.00 1067.86,35.00 1068.51,35.00 1069.15,35.00 1069.80,35.00 1070.45,35.00 1071.09,35.00 1071.75,35.00 1072.40,35.00 1073.06,35.00 1073.71,35.00 1074.36,35.00 1075.01,35.00 1075.66,35.00 1076.31,35.00 1076.96,35.00 1077.61,35.00 1078.26,35.00 1078.92,35.00 1079.57,35.00 1080.23,35.00 1080.88,35.00 1081.52,35.00 1082.17,35.00 1082.83,35.00 1083.47,35.00 1084.13,35.00 1084.79,35.00 1085.44,35.00 1086.09,35.00 1086.74,35.00 1087.39,35.00 1088.04,35.00 1088.69,35.00 1089.34,35.00 1089.99,35.00 1090.63,35.00 1091.28,35.00 1091.92,35.00 1092.57,35.00 1093.24,35.00 1093.90,35.00 1094.56,35.00 1095.20,35.00 1095.84,35.00 1096.50,35.00 1097.14,35.00 1097.79,35.00 1098.44,35.00 1099.09,35.00 1099.74,35.00 1100.39,35.00 1101.04,35.00 1101.70,35.00 1102.35,35.00 1102.99,35.00 1103.64,35.00 1104.29,35.00 1104.94,35.00 1105.60,35.00 1106.25,35.00 1106.90,35.00 1107.55,35.00 1108.21,35.00 1108.86,35.00 1109.50,35.00 1110.17,35.00 1110.81,35.00 1111.47,35.00 1112.13,35.00 1112.77,35.00 1113.42,35.00 1114.06,35.00 1114.71,35.00 1115.38,35.00 1116.03,35.00 1116.69,35.00 1117.35,35.00 1118.00,35.00 1118.65,35.00 1119.30,35.00 1119.95,35.00 1120.60,35.00 1121.26,35.00 1121.91,35.00 1122.56,35.00 1123.21,35.00 1123.86,35.00 1124.52,35.00 1125.16,35.00 1125.82,35.00 1126.47,35.00 1127.11,35.00 1127.77,35.00 1128.43,35.00 1129.09,35.00 1129.74,35.00 1130.40,35.00 1131.05,35.00 1131.70,35.00 1132.34,35.00 1132.99,35.00 1133.67,35.00 1134.32,35.00 1134.97,35.00 1135.63,35.00 1136.28,35.00 1136.92,35.00 1137.60,35.00 1138.25,35.00 1138.91,35.00 1139.56,35.00 1140.22,35.00 1140.88,35.00 1141.57,35.00 1142.21,35.00 1142.87,35.00 1143.52,35.00 1144.17,35.00 1144.82,35.00 1145.47,35.00 1146.12,35.00 1146.78,35.00 1147.43,35.00 1148.10,35.00 1148.75,35.00 1149.40,35.00 1150.05,35.00 1150.70,35.00 1151.35,35.00 1152.02,35.00 1152.67,35.00 1153.32,35.00 1153.97,35.00 1154.62,35.00 1155.27,35.00 1155.94,35.00 1156.59,35.00 1157.23,35.00 1157.88,35.00 1158.52,35.00 1159.17,35.00 1159.82,35.00 1160.46,35.00 1161.14,35.00 1161.78,35.00 1162.43,35.00 1163.08,35.00 1163.73,35.00 1164.37,35.00 1165.02,35.00 1165.67,35.00 1166.33,35.00 1166.98,35.00 1167.63,35.00 1168.27,35.00 1168.92,35.00 1169.57,35.00 1170.25,35.00 1170.89,35.00 1171.55,35.00 1172.20,35.00 1172.84,35.00 1173.49,35.00 1174.13,35.00 1174.78,35.00 1175.44,35.00 1176.12,35.00 1176.77,35.00 1177.42,35.00 1178.07,35.00 1178.71,35.00 1179.36,35.00 1180.00,35.00"/>
<rect x="70" y="332" width="12" height="12" fill="#1f77b4" fill-opacity="0.95"/>
<text x="88" y="342" font-size="11" fill="#333" font-family="Arial, Helvetica, sans-serif">nsc1.utdallas.edu</text>
<rect x="350" y="332" width="12" height="12" fill="#1f77b4" fill-opacity="0.80"/>
<text x="368" y="342" font-size="11" fill="#333" font-family="Arial, Helvetica, sans-serif">nsc2.utdallas.edu</text>
<rect x="630" y="332" width="12" height="12" fill="#1f77b4" fill-opacity="0.65"/>
<text x="648" y="342" font-size="11" fill="#333" font-family="Arial, Helvetica, sans-serif">nsc3.utdallas.edu</text>
<rect x="910" y="332" width="12" height="12" fill="#1f77b4" fill-opacity="0.50"/>
<text x="928" y="342" font-size="11" fill="#333" font-family="Arial, Helvetica, sans-serif">nsc4.utdallas.edu</text>
</svg>